<?xml version="1.0" encoding="utf-8"?>
<svg xmlns="http://www.w3.org/2000/svg" xmlns:xlink="http://www.w3.org/1999/xlink" width="672" height="480" viewBox="0 0 2688 1920">
<defs>
  <clipPath id="clip540">
    <rect x="0" y="0" width="2688" height="1920"/>
  </clipPath>
</defs>
<path clip-path="url(#clip540)" d="M0 1920 L2688 1920 L2688 -4.26326e-14 L0 -4.26326e-14  Z" fill="#ffffff" fill-rule="evenodd" fill-opacity="1"/>
<defs>
  <clipPath id="clip541">
    <rect x="241" y="127" width="2400" height="1607"/>
  </clipPath>
</defs>
<path clip-path="url(#clip540)" d="M241.557 1734.12 L2640.76 1734.12 L2640.76 127.792 L241.557 127.792  Z" fill="#ffffff" fill-rule="evenodd" fill-opacity="1"/>
<polyline clip-path="url(#clip541)" style="stroke:#000000; stroke-linecap:round; stroke-linejoin:round; stroke-width:2; stroke-opacity:0.1; fill:none" points="309.459,1734.12 309.459,127.792 "/>
<polyline clip-path="url(#clip541)" style="stroke:#000000; stroke-linecap:round; stroke-linejoin:round; stroke-width:2; stroke-opacity:0.1; fill:none" points="1063.92,1734.12 1063.92,127.792 "/>
<polyline clip-path="url(#clip541)" style="stroke:#000000; stroke-linecap:round; stroke-linejoin:round; stroke-width:2; stroke-opacity:0.1; fill:none" points="1818.39,1734.12 1818.39,127.792 "/>
<polyline clip-path="url(#clip541)" style="stroke:#000000; stroke-linecap:round; stroke-linejoin:round; stroke-width:2; stroke-opacity:0.1; fill:none" points="2572.85,1734.12 2572.85,127.792 "/>
<polyline clip-path="url(#clip541)" style="stroke:#000000; stroke-linecap:round; stroke-linejoin:round; stroke-width:2; stroke-opacity:0.1; fill:none" points="241.557,1688.65 2640.76,1688.65 "/>
<polyline clip-path="url(#clip541)" style="stroke:#000000; stroke-linecap:round; stroke-linejoin:round; stroke-width:2; stroke-opacity:0.1; fill:none" points="241.557,1269.65 2640.76,1269.65 "/>
<polyline clip-path="url(#clip541)" style="stroke:#000000; stroke-linecap:round; stroke-linejoin:round; stroke-width:2; stroke-opacity:0.1; fill:none" points="241.557,850.645 2640.76,850.645 "/>
<polyline clip-path="url(#clip541)" style="stroke:#000000; stroke-linecap:round; stroke-linejoin:round; stroke-width:2; stroke-opacity:0.1; fill:none" points="241.557,431.64 2640.76,431.64 "/>
<polyline clip-path="url(#clip540)" style="stroke:#000000; stroke-linecap:round; stroke-linejoin:round; stroke-width:4; stroke-opacity:1; fill:none" points="241.557,1734.12 2640.76,1734.12 "/>
<polyline clip-path="url(#clip540)" style="stroke:#000000; stroke-linecap:round; stroke-linejoin:round; stroke-width:4; stroke-opacity:1; fill:none" points="309.459,1734.12 309.459,1715.22 "/>
<polyline clip-path="url(#clip540)" style="stroke:#000000; stroke-linecap:round; stroke-linejoin:round; stroke-width:4; stroke-opacity:1; fill:none" points="1063.92,1734.12 1063.92,1715.22 "/>
<polyline clip-path="url(#clip540)" style="stroke:#000000; stroke-linecap:round; stroke-linejoin:round; stroke-width:4; stroke-opacity:1; fill:none" points="1818.39,1734.12 1818.39,1715.22 "/>
<polyline clip-path="url(#clip540)" style="stroke:#000000; stroke-linecap:round; stroke-linejoin:round; stroke-width:4; stroke-opacity:1; fill:none" points="2572.85,1734.12 2572.85,1715.22 "/>
<path clip-path="url(#clip540)" d="M309.459 1767.34 Q305.848 1767.34 304.019 1770.9 Q302.214 1774.45 302.214 1781.58 Q302.214 1788.68 304.019 1792.25 Q305.848 1795.79 309.459 1795.79 Q313.093 1795.79 314.899 1792.25 Q316.727 1788.68 316.727 1781.58 Q316.727 1774.45 314.899 1770.9 Q313.093 1767.34 309.459 1767.34 M309.459 1763.64 Q315.269 1763.64 318.325 1768.24 Q321.403 1772.83 321.403 1781.58 Q321.403 1790.3 318.325 1794.91 Q315.269 1799.49 309.459 1799.49 Q303.649 1799.49 300.57 1794.91 Q297.515 1790.3 297.515 1781.58 Q297.515 1772.83 300.57 1768.24 Q303.649 1763.64 309.459 1763.64 Z" fill="#000000" fill-rule="nonzero" fill-opacity="1" /><path clip-path="url(#clip540)" d="M1023.53 1794.89 L1031.17 1794.89 L1031.17 1768.52 L1022.86 1770.19 L1022.86 1765.93 L1031.12 1764.26 L1035.8 1764.26 L1035.8 1794.89 L1043.44 1794.89 L1043.44 1798.82 L1023.53 1798.82 L1023.53 1794.89 Z" fill="#000000" fill-rule="nonzero" fill-opacity="1" /><path clip-path="url(#clip540)" d="M1062.88 1767.34 Q1059.27 1767.34 1057.44 1770.9 Q1055.64 1774.45 1055.64 1781.58 Q1055.64 1788.68 1057.44 1792.25 Q1059.27 1795.79 1062.88 1795.79 Q1066.52 1795.79 1068.32 1792.25 Q1070.15 1788.68 1070.15 1781.58 Q1070.15 1774.45 1068.32 1770.9 Q1066.52 1767.34 1062.88 1767.34 M1062.88 1763.64 Q1068.69 1763.64 1071.75 1768.24 Q1074.83 1772.83 1074.83 1781.58 Q1074.83 1790.3 1071.75 1794.91 Q1068.69 1799.49 1062.88 1799.49 Q1057.07 1799.49 1053.99 1794.91 Q1050.94 1790.3 1050.94 1781.58 Q1050.94 1772.83 1053.99 1768.24 Q1057.07 1763.64 1062.88 1763.64 Z" fill="#000000" fill-rule="nonzero" fill-opacity="1" /><path clip-path="url(#clip540)" d="M1093.04 1767.34 Q1089.43 1767.34 1087.6 1770.9 Q1085.8 1774.45 1085.8 1781.58 Q1085.8 1788.68 1087.6 1792.25 Q1089.43 1795.79 1093.04 1795.79 Q1096.68 1795.79 1098.48 1792.25 Q1100.31 1788.68 1100.31 1781.58 Q1100.31 1774.45 1098.48 1770.9 Q1096.68 1767.34 1093.04 1767.34 M1093.04 1763.64 Q1098.85 1763.64 1101.91 1768.24 Q1104.99 1772.83 1104.99 1781.58 Q1104.99 1790.3 1101.91 1794.91 Q1098.85 1799.49 1093.04 1799.49 Q1087.23 1799.49 1084.16 1794.91 Q1081.1 1790.3 1081.1 1781.58 Q1081.1 1772.83 1084.16 1768.24 Q1087.23 1763.64 1093.04 1763.64 Z" fill="#000000" fill-rule="nonzero" fill-opacity="1" /><path clip-path="url(#clip540)" d="M1782.08 1794.89 L1798.4 1794.89 L1798.4 1798.82 L1776.46 1798.82 L1776.46 1794.89 Q1779.12 1792.13 1783.7 1787.5 Q1788.31 1782.85 1789.49 1781.51 Q1791.73 1778.98 1792.61 1777.25 Q1793.52 1775.49 1793.52 1773.8 Q1793.52 1771.04 1791.57 1769.31 Q1789.65 1767.57 1786.55 1767.57 Q1784.35 1767.57 1781.9 1768.34 Q1779.47 1769.1 1776.69 1770.65 L1776.69 1765.93 Q1779.51 1764.79 1781.97 1764.21 Q1784.42 1763.64 1786.46 1763.64 Q1791.83 1763.64 1795.02 1766.32 Q1798.22 1769.01 1798.22 1773.5 Q1798.22 1775.63 1797.41 1777.55 Q1796.62 1779.45 1794.51 1782.04 Q1793.93 1782.71 1790.83 1785.93 Q1787.73 1789.12 1782.08 1794.89 Z" fill="#000000" fill-rule="nonzero" fill-opacity="1" /><path clip-path="url(#clip540)" d="M1818.22 1767.34 Q1814.6 1767.34 1812.78 1770.9 Q1810.97 1774.45 1810.97 1781.58 Q1810.97 1788.68 1812.78 1792.25 Q1814.6 1795.79 1818.22 1795.79 Q1821.85 1795.79 1823.66 1792.25 Q1825.48 1788.68 1825.48 1781.58 Q1825.48 1774.45 1823.66 1770.9 Q1821.85 1767.34 1818.22 1767.34 M1818.22 1763.64 Q1824.03 1763.64 1827.08 1768.24 Q1830.16 1772.83 1830.16 1781.58 Q1830.16 1790.3 1827.08 1794.91 Q1824.03 1799.49 1818.22 1799.49 Q1812.41 1799.49 1809.33 1794.91 Q1806.27 1790.3 1806.27 1781.58 Q1806.27 1772.83 1809.33 1768.24 Q1812.41 1763.64 1818.22 1763.64 Z" fill="#000000" fill-rule="nonzero" fill-opacity="1" /><path clip-path="url(#clip540)" d="M1848.38 1767.34 Q1844.77 1767.34 1842.94 1770.9 Q1841.13 1774.45 1841.13 1781.58 Q1841.13 1788.68 1842.94 1792.25 Q1844.77 1795.79 1848.38 1795.79 Q1852.01 1795.79 1853.82 1792.25 Q1855.65 1788.68 1855.65 1781.58 Q1855.65 1774.45 1853.82 1770.9 Q1852.01 1767.34 1848.38 1767.34 M1848.38 1763.64 Q1854.19 1763.64 1857.24 1768.24 Q1860.32 1772.83 1860.32 1781.58 Q1860.32 1790.3 1857.24 1794.91 Q1854.19 1799.49 1848.38 1799.49 Q1842.57 1799.49 1839.49 1794.91 Q1836.43 1790.3 1836.43 1781.58 Q1836.43 1772.83 1839.49 1768.24 Q1842.57 1763.64 1848.38 1763.64 Z" fill="#000000" fill-rule="nonzero" fill-opacity="1" /><path clip-path="url(#clip540)" d="M2546.62 1780.19 Q2549.97 1780.9 2551.85 1783.17 Q2553.75 1785.44 2553.75 1788.77 Q2553.75 1793.89 2550.23 1796.69 Q2546.71 1799.49 2540.23 1799.49 Q2538.05 1799.49 2535.74 1799.05 Q2533.44 1798.64 2530.99 1797.78 L2530.99 1793.27 Q2532.94 1794.4 2535.25 1794.98 Q2537.56 1795.56 2540.09 1795.56 Q2544.49 1795.56 2546.78 1793.82 Q2549.09 1792.08 2549.09 1788.77 Q2549.09 1785.72 2546.94 1784.01 Q2544.81 1782.27 2540.99 1782.27 L2536.96 1782.27 L2536.96 1778.43 L2541.18 1778.43 Q2544.63 1778.43 2546.45 1777.06 Q2548.28 1775.67 2548.28 1773.08 Q2548.28 1770.42 2546.38 1769.01 Q2544.51 1767.57 2540.99 1767.57 Q2539.07 1767.57 2536.87 1767.99 Q2534.67 1768.4 2532.03 1769.28 L2532.03 1765.12 Q2534.69 1764.38 2537.01 1764.01 Q2539.35 1763.64 2541.41 1763.64 Q2546.73 1763.64 2549.83 1766.07 Q2552.94 1768.47 2552.94 1772.59 Q2552.94 1775.46 2551.29 1777.46 Q2549.65 1779.42 2546.62 1780.19 Z" fill="#000000" fill-rule="nonzero" fill-opacity="1" /><path clip-path="url(#clip540)" d="M2572.61 1767.34 Q2569 1767.34 2567.17 1770.9 Q2565.37 1774.45 2565.37 1781.58 Q2565.37 1788.68 2567.17 1792.25 Q2569 1795.79 2572.61 1795.79 Q2576.25 1795.79 2578.05 1792.25 Q2579.88 1788.68 2579.88 1781.58 Q2579.88 1774.45 2578.05 1770.9 Q2576.25 1767.34 2572.61 1767.34 M2572.61 1763.64 Q2578.42 1763.64 2581.48 1768.24 Q2584.56 1772.83 2584.56 1781.58 Q2584.56 1790.3 2581.48 1794.91 Q2578.42 1799.49 2572.61 1799.49 Q2566.8 1799.49 2563.72 1794.91 Q2560.67 1790.3 2560.67 1781.58 Q2560.67 1772.83 2563.72 1768.24 Q2566.8 1763.64 2572.61 1763.64 Z" fill="#000000" fill-rule="nonzero" fill-opacity="1" /><path clip-path="url(#clip540)" d="M2602.77 1767.34 Q2599.16 1767.34 2597.33 1770.9 Q2595.53 1774.45 2595.53 1781.58 Q2595.53 1788.68 2597.33 1792.25 Q2599.16 1795.79 2602.77 1795.79 Q2606.41 1795.79 2608.21 1792.25 Q2610.04 1788.68 2610.04 1781.58 Q2610.04 1774.45 2608.21 1770.9 Q2606.41 1767.34 2602.77 1767.34 M2602.77 1763.64 Q2608.58 1763.64 2611.64 1768.24 Q2614.72 1772.83 2614.72 1781.58 Q2614.72 1790.3 2611.64 1794.91 Q2608.58 1799.49 2602.77 1799.49 Q2596.96 1799.49 2593.88 1794.91 Q2590.83 1790.3 2590.83 1781.58 Q2590.83 1772.83 2593.88 1768.24 Q2596.96 1763.64 2602.77 1763.64 Z" fill="#000000" fill-rule="nonzero" fill-opacity="1" /><path clip-path="url(#clip540)" d="M1251.38 1835.78 L1291.58 1835.78 L1291.58 1841.19 L1274.71 1841.19 L1274.71 1883.3 L1268.25 1883.3 L1268.25 1841.19 L1251.38 1841.19 L1251.38 1835.78 Z" fill="#000000" fill-rule="nonzero" fill-opacity="1" /><path clip-path="url(#clip540)" d="M1295.53 1847.65 L1301.38 1847.65 L1301.38 1883.3 L1295.53 1883.3 L1295.53 1847.65 M1295.53 1833.78 L1301.38 1833.78 L1301.38 1841.19 L1295.53 1841.19 L1295.53 1833.78 Z" fill="#000000" fill-rule="nonzero" fill-opacity="1" /><path clip-path="url(#clip540)" d="M1341.39 1854.5 Q1343.59 1850.55 1346.64 1848.67 Q1349.7 1846.79 1353.83 1846.79 Q1359.4 1846.79 1362.43 1850.71 Q1365.45 1854.59 1365.45 1861.78 L1365.45 1883.3 L1359.56 1883.3 L1359.56 1861.98 Q1359.56 1856.85 1357.75 1854.37 Q1355.94 1851.89 1352.21 1851.89 Q1347.66 1851.89 1345.02 1854.91 Q1342.38 1857.93 1342.38 1863.15 L1342.38 1883.3 L1336.49 1883.3 L1336.49 1861.98 Q1336.49 1856.82 1334.67 1854.37 Q1332.86 1851.89 1329.07 1851.89 Q1324.58 1851.89 1321.94 1854.94 Q1319.3 1857.97 1319.3 1863.15 L1319.3 1883.3 L1313.41 1883.3 L1313.41 1847.65 L1319.3 1847.65 L1319.3 1853.19 Q1321.31 1849.91 1324.11 1848.35 Q1326.91 1846.79 1330.76 1846.79 Q1334.64 1846.79 1337.35 1848.77 Q1340.09 1850.74 1341.39 1854.5 Z" fill="#000000" fill-rule="nonzero" fill-opacity="1" /><path clip-path="url(#clip540)" d="M1407.63 1864.01 L1407.63 1866.88 L1380.7 1866.88 Q1381.08 1872.92 1384.33 1876.11 Q1387.61 1879.26 1393.43 1879.26 Q1396.8 1879.26 1399.95 1878.43 Q1403.14 1877.6 1406.26 1875.95 L1406.26 1881.49 Q1403.11 1882.82 1399.8 1883.52 Q1396.49 1884.22 1393.08 1884.22 Q1384.55 1884.22 1379.55 1879.26 Q1374.59 1874.29 1374.59 1865.83 Q1374.59 1857.07 1379.3 1851.95 Q1384.04 1846.79 1392.06 1846.79 Q1399.25 1846.79 1403.42 1851.44 Q1407.63 1856.06 1407.63 1864.01 M1401.77 1862.29 Q1401.71 1857.49 1399.06 1854.62 Q1396.45 1851.76 1392.12 1851.76 Q1387.22 1851.76 1384.26 1854.53 Q1381.33 1857.3 1380.89 1862.33 L1401.77 1862.29 Z" fill="#000000" fill-rule="nonzero" fill-opacity="1" /><path clip-path="url(#clip540)" d="M1452.03 1833.84 Q1447.76 1841.16 1445.69 1848.32 Q1443.62 1855.48 1443.62 1862.84 Q1443.62 1870.19 1445.69 1877.41 Q1447.79 1884.61 1452.03 1891.89 L1446.93 1891.89 Q1442.16 1884.41 1439.77 1877.19 Q1437.42 1869.96 1437.42 1862.84 Q1437.42 1855.74 1439.77 1848.54 Q1442.13 1841.35 1446.93 1833.84 L1452.03 1833.84 Z" fill="#000000" fill-rule="nonzero" fill-opacity="1" /><path clip-path="url(#clip540)" d="M1486.85 1853.06 L1486.85 1833.78 L1492.7 1833.78 L1492.7 1883.3 L1486.85 1883.3 L1486.85 1877.95 Q1485 1881.14 1482.17 1882.7 Q1479.37 1884.22 1475.42 1884.22 Q1468.96 1884.22 1464.88 1879.07 Q1460.84 1873.91 1460.84 1865.51 Q1460.84 1857.11 1464.88 1851.95 Q1468.96 1846.79 1475.42 1846.79 Q1479.37 1846.79 1482.17 1848.35 Q1485 1849.88 1486.85 1853.06 M1466.89 1865.51 Q1466.89 1871.97 1469.53 1875.66 Q1472.21 1879.32 1476.85 1879.32 Q1481.5 1879.32 1484.17 1875.66 Q1486.85 1871.97 1486.85 1865.51 Q1486.85 1859.05 1484.17 1855.39 Q1481.5 1851.7 1476.85 1851.7 Q1472.21 1851.7 1469.53 1855.39 Q1466.89 1859.05 1466.89 1865.51 Z" fill="#000000" fill-rule="nonzero" fill-opacity="1" /><path clip-path="url(#clip540)" d="M1520.97 1865.38 Q1513.87 1865.38 1511.13 1867 Q1508.39 1868.63 1508.39 1872.54 Q1508.39 1875.66 1510.43 1877.51 Q1512.5 1879.32 1516.03 1879.32 Q1520.9 1879.32 1523.83 1875.88 Q1526.79 1872.42 1526.79 1866.69 L1526.79 1865.38 L1520.97 1865.38 M1532.65 1862.96 L1532.65 1883.3 L1526.79 1883.3 L1526.79 1877.89 Q1524.79 1881.14 1521.79 1882.7 Q1518.8 1884.22 1514.47 1884.22 Q1509 1884.22 1505.75 1881.17 Q1502.54 1878.08 1502.54 1872.92 Q1502.54 1866.91 1506.55 1863.85 Q1510.59 1860.8 1518.58 1860.8 L1526.79 1860.8 L1526.79 1860.23 Q1526.79 1856.18 1524.12 1853.99 Q1521.48 1851.76 1516.67 1851.76 Q1513.61 1851.76 1510.72 1852.49 Q1507.82 1853.22 1505.15 1854.69 L1505.15 1849.28 Q1508.36 1848.03 1511.39 1847.43 Q1514.41 1846.79 1517.27 1846.79 Q1525.01 1846.79 1528.83 1850.8 Q1532.65 1854.81 1532.65 1862.96 Z" fill="#000000" fill-rule="nonzero" fill-opacity="1" /><path clip-path="url(#clip540)" d="M1559.54 1886.61 Q1557.06 1892.98 1554.7 1894.92 Q1552.35 1896.86 1548.4 1896.86 L1543.72 1896.86 L1543.72 1891.96 L1547.16 1891.96 Q1549.58 1891.96 1550.92 1890.81 Q1552.25 1889.67 1553.88 1885.4 L1554.93 1882.73 L1540.51 1847.65 L1546.72 1847.65 L1557.86 1875.53 L1569 1847.65 L1575.2 1847.65 L1559.54 1886.61 Z" fill="#000000" fill-rule="nonzero" fill-opacity="1" /><path clip-path="url(#clip540)" d="M1606.01 1848.7 L1606.01 1854.24 Q1603.53 1852.97 1600.86 1852.33 Q1598.18 1851.7 1595.32 1851.7 Q1590.96 1851.7 1588.76 1853.03 Q1586.6 1854.37 1586.6 1857.04 Q1586.6 1859.08 1588.16 1860.26 Q1589.72 1861.4 1594.43 1862.45 L1596.43 1862.9 Q1602.67 1864.24 1605.28 1866.69 Q1607.92 1869.11 1607.92 1873.47 Q1607.92 1878.43 1603.98 1881.33 Q1600.06 1884.22 1593.19 1884.22 Q1590.32 1884.22 1587.2 1883.65 Q1584.11 1883.11 1580.68 1882 L1580.68 1875.95 Q1583.92 1877.64 1587.07 1878.49 Q1590.23 1879.32 1593.31 1879.32 Q1597.45 1879.32 1599.68 1877.92 Q1601.91 1876.49 1601.91 1873.91 Q1601.91 1871.52 1600.28 1870.25 Q1598.69 1868.98 1593.25 1867.8 L1591.21 1867.32 Q1585.77 1866.18 1583.35 1863.82 Q1580.93 1861.43 1580.93 1857.3 Q1580.93 1852.27 1584.5 1849.53 Q1588.06 1846.79 1594.62 1846.79 Q1597.86 1846.79 1600.73 1847.27 Q1603.59 1847.75 1606.01 1848.7 Z" fill="#000000" fill-rule="nonzero" fill-opacity="1" /><path clip-path="url(#clip540)" d="M1616.32 1833.84 L1621.42 1833.84 Q1626.19 1841.35 1628.55 1848.54 Q1630.93 1855.74 1630.93 1862.84 Q1630.93 1869.96 1628.55 1877.19 Q1626.19 1884.41 1621.42 1891.89 L1616.32 1891.89 Q1620.56 1884.61 1622.63 1877.41 Q1624.73 1870.19 1624.73 1862.84 Q1624.73 1855.48 1622.63 1848.32 Q1620.56 1841.16 1616.32 1833.84 Z" fill="#000000" fill-rule="nonzero" fill-opacity="1" /><polyline clip-path="url(#clip540)" style="stroke:#000000; stroke-linecap:round; stroke-linejoin:round; stroke-width:4; stroke-opacity:1; fill:none" points="241.557,1734.12 241.557,127.792 "/>
<polyline clip-path="url(#clip540)" style="stroke:#000000; stroke-linecap:round; stroke-linejoin:round; stroke-width:4; stroke-opacity:1; fill:none" points="241.557,1688.65 260.455,1688.65 "/>
<polyline clip-path="url(#clip540)" style="stroke:#000000; stroke-linecap:round; stroke-linejoin:round; stroke-width:4; stroke-opacity:1; fill:none" points="241.557,1269.65 260.455,1269.65 "/>
<polyline clip-path="url(#clip540)" style="stroke:#000000; stroke-linecap:round; stroke-linejoin:round; stroke-width:4; stroke-opacity:1; fill:none" points="241.557,850.645 260.455,850.645 "/>
<polyline clip-path="url(#clip540)" style="stroke:#000000; stroke-linecap:round; stroke-linejoin:round; stroke-width:4; stroke-opacity:1; fill:none" points="241.557,431.64 260.455,431.64 "/>
<path clip-path="url(#clip540)" d="M189.293 1674.45 Q185.682 1674.45 183.853 1678.02 Q182.047 1681.56 182.047 1688.69 Q182.047 1695.8 183.853 1699.36 Q185.682 1702.9 189.293 1702.9 Q192.927 1702.9 194.733 1699.36 Q196.561 1695.8 196.561 1688.69 Q196.561 1681.56 194.733 1678.02 Q192.927 1674.45 189.293 1674.45 M189.293 1670.75 Q195.103 1670.75 198.158 1675.36 Q201.237 1679.94 201.237 1688.69 Q201.237 1697.42 198.158 1702.02 Q195.103 1706.61 189.293 1706.61 Q183.483 1706.61 180.404 1702.02 Q177.348 1697.42 177.348 1688.69 Q177.348 1679.94 180.404 1675.36 Q183.483 1670.75 189.293 1670.75 Z" fill="#000000" fill-rule="nonzero" fill-opacity="1" /><path clip-path="url(#clip540)" d="M122.997 1282.99 L139.316 1282.99 L139.316 1286.93 L117.372 1286.93 L117.372 1282.99 Q120.034 1280.24 124.617 1275.61 Q129.224 1270.96 130.404 1269.62 Q132.65 1267.09 133.529 1265.36 Q134.432 1263.6 134.432 1261.91 Q134.432 1259.15 132.488 1257.42 Q130.566 1255.68 127.464 1255.68 Q125.265 1255.68 122.812 1256.44 Q120.381 1257.21 117.603 1258.76 L117.603 1254.04 Q120.427 1252.9 122.881 1252.32 Q125.335 1251.75 127.372 1251.75 Q132.742 1251.75 135.937 1254.43 Q139.131 1257.12 139.131 1261.61 Q139.131 1263.74 138.321 1265.66 Q137.534 1267.56 135.427 1270.15 Q134.849 1270.82 131.747 1274.04 Q128.645 1277.23 122.997 1282.99 Z" fill="#000000" fill-rule="nonzero" fill-opacity="1" /><path clip-path="url(#clip540)" d="M159.131 1255.45 Q155.52 1255.45 153.691 1259.01 Q151.886 1262.56 151.886 1269.68 Q151.886 1276.79 153.691 1280.36 Q155.52 1283.9 159.131 1283.9 Q162.765 1283.9 164.571 1280.36 Q166.399 1276.79 166.399 1269.68 Q166.399 1262.56 164.571 1259.01 Q162.765 1255.45 159.131 1255.45 M159.131 1251.75 Q164.941 1251.75 167.997 1256.35 Q171.075 1260.93 171.075 1269.68 Q171.075 1278.41 167.997 1283.02 Q164.941 1287.6 159.131 1287.6 Q153.321 1287.6 150.242 1283.02 Q147.186 1278.41 147.186 1269.68 Q147.186 1260.93 150.242 1256.35 Q153.321 1251.75 159.131 1251.75 Z" fill="#000000" fill-rule="nonzero" fill-opacity="1" /><path clip-path="url(#clip540)" d="M189.293 1255.45 Q185.682 1255.45 183.853 1259.01 Q182.047 1262.56 182.047 1269.68 Q182.047 1276.79 183.853 1280.36 Q185.682 1283.9 189.293 1283.9 Q192.927 1283.9 194.733 1280.36 Q196.561 1276.79 196.561 1269.68 Q196.561 1262.56 194.733 1259.01 Q192.927 1255.45 189.293 1255.45 M189.293 1251.75 Q195.103 1251.75 198.158 1256.35 Q201.237 1260.93 201.237 1269.68 Q201.237 1278.41 198.158 1283.02 Q195.103 1287.6 189.293 1287.6 Q183.483 1287.6 180.404 1283.02 Q177.348 1278.41 177.348 1269.68 Q177.348 1260.93 180.404 1256.35 Q183.483 1251.75 189.293 1251.75 Z" fill="#000000" fill-rule="nonzero" fill-opacity="1" /><path clip-path="url(#clip540)" d="M131.816 837.439 L120.011 855.888 L131.816 855.888 L131.816 837.439 M130.589 833.365 L136.469 833.365 L136.469 855.888 L141.399 855.888 L141.399 859.777 L136.469 859.777 L136.469 867.925 L131.816 867.925 L131.816 859.777 L116.214 859.777 L116.214 855.263 L130.589 833.365 Z" fill="#000000" fill-rule="nonzero" fill-opacity="1" /><path clip-path="url(#clip540)" d="M159.131 836.444 Q155.52 836.444 153.691 840.009 Q151.886 843.55 151.886 850.68 Q151.886 857.786 153.691 861.351 Q155.52 864.893 159.131 864.893 Q162.765 864.893 164.571 861.351 Q166.399 857.786 166.399 850.68 Q166.399 843.55 164.571 840.009 Q162.765 836.444 159.131 836.444 M159.131 832.74 Q164.941 832.74 167.997 837.347 Q171.075 841.93 171.075 850.68 Q171.075 859.407 167.997 864.013 Q164.941 868.597 159.131 868.597 Q153.321 868.597 150.242 864.013 Q147.186 859.407 147.186 850.68 Q147.186 841.93 150.242 837.347 Q153.321 832.74 159.131 832.74 Z" fill="#000000" fill-rule="nonzero" fill-opacity="1" /><path clip-path="url(#clip540)" d="M189.293 836.444 Q185.682 836.444 183.853 840.009 Q182.047 843.55 182.047 850.68 Q182.047 857.786 183.853 861.351 Q185.682 864.893 189.293 864.893 Q192.927 864.893 194.733 861.351 Q196.561 857.786 196.561 850.68 Q196.561 843.55 194.733 840.009 Q192.927 836.444 189.293 836.444 M189.293 832.74 Q195.103 832.74 198.158 837.347 Q201.237 841.93 201.237 850.68 Q201.237 859.407 198.158 864.013 Q195.103 868.597 189.293 868.597 Q183.483 868.597 180.404 864.013 Q177.348 859.407 177.348 850.68 Q177.348 841.93 180.404 837.347 Q183.483 832.74 189.293 832.74 Z" fill="#000000" fill-rule="nonzero" fill-opacity="1" /><path clip-path="url(#clip540)" d="M129.548 429.777 Q126.4 429.777 124.548 431.93 Q122.719 434.083 122.719 437.833 Q122.719 441.559 124.548 443.735 Q126.4 445.888 129.548 445.888 Q132.696 445.888 134.525 443.735 Q136.376 441.559 136.376 437.833 Q136.376 434.083 134.525 431.93 Q132.696 429.777 129.548 429.777 M138.83 415.124 L138.83 419.384 Q137.071 418.55 135.265 418.11 Q133.483 417.671 131.724 417.671 Q127.094 417.671 124.64 420.796 Q122.21 423.921 121.863 430.24 Q123.228 428.226 125.288 427.161 Q127.349 426.073 129.825 426.073 Q135.034 426.073 138.043 429.245 Q141.075 432.393 141.075 437.833 Q141.075 443.157 137.927 446.374 Q134.779 449.592 129.548 449.592 Q123.552 449.592 120.381 445.008 Q117.21 440.402 117.21 431.675 Q117.21 423.481 121.099 418.62 Q124.988 413.735 131.538 413.735 Q133.298 413.735 135.08 414.083 Q136.886 414.43 138.83 415.124 Z" fill="#000000" fill-rule="nonzero" fill-opacity="1" /><path clip-path="url(#clip540)" d="M159.131 417.439 Q155.52 417.439 153.691 421.004 Q151.886 424.546 151.886 431.675 Q151.886 438.782 153.691 442.346 Q155.52 445.888 159.131 445.888 Q162.765 445.888 164.571 442.346 Q166.399 438.782 166.399 431.675 Q166.399 424.546 164.571 421.004 Q162.765 417.439 159.131 417.439 M159.131 413.735 Q164.941 413.735 167.997 418.342 Q171.075 422.925 171.075 431.675 Q171.075 440.402 167.997 445.008 Q164.941 449.592 159.131 449.592 Q153.321 449.592 150.242 445.008 Q147.186 440.402 147.186 431.675 Q147.186 422.925 150.242 418.342 Q153.321 413.735 159.131 413.735 Z" fill="#000000" fill-rule="nonzero" fill-opacity="1" /><path clip-path="url(#clip540)" d="M189.293 417.439 Q185.682 417.439 183.853 421.004 Q182.047 424.546 182.047 431.675 Q182.047 438.782 183.853 442.346 Q185.682 445.888 189.293 445.888 Q192.927 445.888 194.733 442.346 Q196.561 438.782 196.561 431.675 Q196.561 424.546 194.733 421.004 Q192.927 417.439 189.293 417.439 M189.293 413.735 Q195.103 413.735 198.158 418.342 Q201.237 422.925 201.237 431.675 Q201.237 440.402 198.158 445.008 Q195.103 449.592 189.293 449.592 Q183.483 449.592 180.404 445.008 Q177.348 440.402 177.348 431.675 Q177.348 422.925 180.404 418.342 Q183.483 413.735 189.293 413.735 Z" fill="#000000" fill-rule="nonzero" fill-opacity="1" /><path clip-path="url(#clip540)" d="M14.1184 1058.03 L14.1184 1051.6 L61.6384 1051.6 L61.6384 1058.03 L14.1184 1058.03 Z" fill="#000000" fill-rule="nonzero" fill-opacity="1" /><path clip-path="url(#clip540)" d="M40.1224 1009.43 L61.6384 1009.43 L61.6384 1015.28 L40.3133 1015.28 Q35.2526 1015.28 32.7381 1017.26 Q30.2237 1019.23 30.2237 1023.18 Q30.2237 1027.92 33.2474 1030.66 Q36.2711 1033.39 41.491 1033.39 L61.6384 1033.39 L61.6384 1039.28 L25.9905 1039.28 L25.9905 1033.39 L31.5287 1033.39 Q28.314 1031.29 26.7225 1028.46 Q25.1311 1025.6 25.1311 1021.87 Q25.1311 1015.73 28.9505 1012.58 Q32.7381 1009.43 40.1224 1009.43 Z" fill="#000000" fill-rule="nonzero" fill-opacity="1" /><path clip-path="url(#clip540)" d="M12.1132 979.7 L16.983 979.7 L16.983 985.302 Q16.983 988.453 18.2562 989.694 Q19.5293 990.904 22.8395 990.904 L25.9905 990.904 L25.9905 981.26 L30.542 981.26 L30.542 990.904 L61.6384 990.904 L61.6384 996.792 L30.542 996.792 L30.542 1002.39 L25.9905 1002.39 L25.9905 996.792 L23.5079 996.792 Q17.5559 996.792 14.8505 994.023 Q12.1132 991.254 12.1132 985.238 L12.1132 979.7 Z" fill="#000000" fill-rule="nonzero" fill-opacity="1" /><path clip-path="url(#clip540)" d="M42.3504 944.307 L45.2149 944.307 L45.2149 971.234 Q51.2623 970.852 54.4452 967.605 Q57.5962 964.327 57.5962 958.502 Q57.5962 955.128 56.7687 951.977 Q55.9411 948.794 54.2861 945.675 L59.8242 945.675 Q61.161 948.826 61.8612 952.136 Q62.5615 955.447 62.5615 958.852 Q62.5615 967.382 57.5962 972.379 Q52.631 977.345 44.1646 977.345 Q35.4117 977.345 30.2873 972.634 Q25.1311 967.892 25.1311 959.871 Q25.1311 952.678 29.7781 948.508 Q34.3932 944.307 42.3504 944.307 M40.6316 950.163 Q35.8255 950.227 32.9609 952.869 Q30.0964 955.478 30.0964 959.807 Q30.0964 964.709 32.8654 967.669 Q35.6345 970.597 40.6634 971.043 L40.6316 950.163 Z" fill="#000000" fill-rule="nonzero" fill-opacity="1" /><path clip-path="url(#clip540)" d="M27.3591 909.041 L32.8336 909.041 Q31.465 911.523 30.7966 914.038 Q30.0964 916.52 30.0964 919.067 Q30.0964 924.764 33.7248 927.915 Q37.3214 931.066 43.8463 931.066 Q50.3711 931.066 53.9996 927.915 Q57.5962 924.764 57.5962 919.067 Q57.5962 916.52 56.9278 914.038 Q56.2276 911.523 54.859 909.041 L60.2698 909.041 Q61.4156 911.491 61.9886 914.133 Q62.5615 916.743 62.5615 919.703 Q62.5615 927.756 57.5007 932.498 Q52.44 937.241 43.8463 937.241 Q35.1253 937.241 30.1282 932.466 Q25.1311 927.66 25.1311 919.321 Q25.1311 916.616 25.704 914.038 Q26.2451 911.46 27.3591 909.041 Z" fill="#000000" fill-rule="nonzero" fill-opacity="1" /><path clip-path="url(#clip540)" d="M15.869 893.063 L25.9905 893.063 L25.9905 881 L30.542 881 L30.542 893.063 L49.8937 893.063 Q54.2542 893.063 55.4955 891.885 Q56.7368 890.676 56.7368 887.015 L56.7368 881 L61.6384 881 L61.6384 887.015 Q61.6384 893.795 59.124 896.373 Q56.5777 898.951 49.8937 898.951 L30.542 898.951 L30.542 903.248 L25.9905 903.248 L25.9905 898.951 L15.869 898.951 L15.869 893.063 Z" fill="#000000" fill-rule="nonzero" fill-opacity="1" /><path clip-path="url(#clip540)" d="M42.3504 842.805 L45.2149 842.805 L45.2149 869.732 Q51.2623 869.35 54.4452 866.104 Q57.5962 862.826 57.5962 857.001 Q57.5962 853.627 56.7687 850.476 Q55.9411 847.293 54.2861 844.174 L59.8242 844.174 Q61.161 847.325 61.8612 850.635 Q62.5615 853.945 62.5615 857.351 Q62.5615 865.881 57.5962 870.878 Q52.631 875.843 44.1646 875.843 Q35.4117 875.843 30.2873 871.133 Q25.1311 866.39 25.1311 858.37 Q25.1311 851.176 29.7781 847.007 Q34.3932 842.805 42.3504 842.805 M40.6316 848.662 Q35.8255 848.726 32.9609 851.367 Q30.0964 853.977 30.0964 858.306 Q30.0964 863.208 32.8654 866.168 Q35.6345 869.096 40.6634 869.541 L40.6316 848.662 Z" fill="#000000" fill-rule="nonzero" fill-opacity="1" /><path clip-path="url(#clip540)" d="M31.4013 809.736 L12.1132 809.736 L12.1132 803.879 L61.6384 803.879 L61.6384 809.736 L56.2912 809.736 Q59.4741 811.582 61.0337 814.414 Q62.5615 817.215 62.5615 821.162 Q62.5615 827.623 57.4052 831.697 Q52.249 835.739 43.8463 835.739 Q35.4436 835.739 30.2873 831.697 Q25.1311 827.623 25.1311 821.162 Q25.1311 817.215 26.6907 814.414 Q28.2185 811.582 31.4013 809.736 M43.8463 829.692 Q50.3075 829.692 53.9996 827.05 Q57.6599 824.377 57.6599 819.73 Q57.6599 815.083 53.9996 812.409 Q50.3075 809.736 43.8463 809.736 Q37.3851 809.736 33.7248 812.409 Q30.0327 815.083 30.0327 819.73 Q30.0327 824.377 33.7248 827.05 Q37.3851 829.692 43.8463 829.692 Z" fill="#000000" fill-rule="nonzero" fill-opacity="1" /><path clip-path="url(#clip540)" d="M755.703 16.7545 L755.703 25.383 Q751.571 21.5346 746.872 19.6307 Q742.214 17.7268 736.947 17.7268 Q726.577 17.7268 721.068 24.0867 Q715.559 30.4061 715.559 42.3968 Q715.559 54.3469 721.068 60.7069 Q726.577 67.0263 736.947 67.0263 Q742.214 67.0263 746.872 65.1223 Q751.571 63.2184 755.703 59.3701 L755.703 67.9175 Q751.409 70.8341 746.588 72.2924 Q741.808 73.7508 736.461 73.7508 Q722.729 73.7508 714.829 65.3654 Q706.93 56.9395 706.93 42.3968 Q706.93 27.8135 714.829 19.4281 Q722.729 11.0023 736.461 11.0023 Q741.889 11.0023 746.67 12.4606 Q751.49 13.8784 755.703 16.7545 Z" fill="#000000" fill-rule="nonzero" fill-opacity="1" /><path clip-path="url(#clip540)" d="M785.599 32.4315 Q779.603 32.4315 776.12 37.1306 Q772.636 41.7891 772.636 49.9314 Q772.636 58.0738 776.079 62.7728 Q779.563 67.4314 785.599 67.4314 Q791.554 67.4314 795.037 62.7323 Q798.521 58.0333 798.521 49.9314 Q798.521 41.8701 795.037 37.1711 Q791.554 32.4315 785.599 32.4315 M785.599 26.1121 Q795.321 26.1121 800.871 32.4315 Q806.42 38.7509 806.42 49.9314 Q806.42 61.0714 800.871 67.4314 Q795.321 73.7508 785.599 73.7508 Q775.836 73.7508 770.286 67.4314 Q764.777 61.0714 764.777 49.9314 Q764.777 38.7509 770.286 32.4315 Q775.836 26.1121 785.599 26.1121 Z" fill="#000000" fill-rule="nonzero" fill-opacity="1" /><path clip-path="url(#clip540)" d="M816.548 46.5287 L838.382 46.5287 L838.382 53.1722 L816.548 53.1722 L816.548 46.5287 Z" fill="#000000" fill-rule="nonzero" fill-opacity="1" /><path clip-path="url(#clip540)" d="M895.864 16.7545 L895.864 25.383 Q891.732 21.5346 887.033 19.6307 Q882.375 17.7268 877.109 17.7268 Q866.738 17.7268 861.229 24.0867 Q855.72 30.4061 855.72 42.3968 Q855.72 54.3469 861.229 60.7069 Q866.738 67.0263 877.109 67.0263 Q882.375 67.0263 887.033 65.1223 Q891.732 63.2184 895.864 59.3701 L895.864 67.9175 Q891.57 70.8341 886.75 72.2924 Q881.97 73.7508 876.623 73.7508 Q862.89 73.7508 854.991 65.3654 Q847.091 56.9395 847.091 42.3968 Q847.091 27.8135 854.991 19.4281 Q862.89 11.0023 876.623 11.0023 Q882.051 11.0023 886.831 12.4606 Q891.651 13.8784 895.864 16.7545 Z" fill="#000000" fill-rule="nonzero" fill-opacity="1" /><path clip-path="url(#clip540)" d="M908.179 27.2059 L915.633 27.2059 L915.633 72.576 L908.179 72.576 L908.179 27.2059 M908.179 9.54393 L915.633 9.54393 L915.633 18.9825 L908.179 18.9825 L908.179 9.54393 Z" fill="#000000" fill-rule="nonzero" fill-opacity="1" /><path clip-path="url(#clip540)" d="M957.519 34.1734 Q956.263 33.4443 954.764 33.1202 Q953.306 32.7556 951.524 32.7556 Q945.204 32.7556 941.802 36.8875 Q938.439 40.9789 938.439 48.6757 L938.439 72.576 L930.945 72.576 L930.945 27.2059 L938.439 27.2059 L938.439 34.2544 Q940.789 30.1225 944.556 28.1376 Q948.324 26.1121 953.711 26.1121 Q954.481 26.1121 955.413 26.2337 Q956.344 26.3147 957.479 26.5172 L957.519 34.1734 Z" fill="#000000" fill-rule="nonzero" fill-opacity="1" /><path clip-path="url(#clip540)" d="M996.165 28.9478 L996.165 35.9153 Q993.005 34.1734 989.805 33.3227 Q986.645 32.4315 983.404 32.4315 Q976.153 32.4315 972.143 37.0496 Q968.132 41.6271 968.132 49.9314 Q968.132 58.2358 972.143 62.8538 Q976.153 67.4314 983.404 67.4314 Q986.645 67.4314 989.805 66.5807 Q993.005 65.6895 996.165 63.9476 L996.165 70.8341 Q993.045 72.2924 989.683 73.0216 Q986.362 73.7508 982.594 73.7508 Q972.345 73.7508 966.31 67.3098 Q960.274 60.8689 960.274 49.9314 Q960.274 38.832 966.35 32.472 Q972.467 26.1121 983.08 26.1121 Q986.524 26.1121 989.805 26.8413 Q993.086 27.5299 996.165 28.9478 Z" fill="#000000" fill-rule="nonzero" fill-opacity="1" /><path clip-path="url(#clip540)" d="M1008.36 54.671 L1008.36 27.2059 L1015.81 27.2059 L1015.81 54.3874 Q1015.81 60.8284 1018.32 64.0691 Q1020.83 67.2693 1025.86 67.2693 Q1031.89 67.2693 1035.38 63.421 Q1038.9 59.5726 1038.9 52.9291 L1038.9 27.2059 L1046.36 27.2059 L1046.36 72.576 L1038.9 72.576 L1038.9 65.6084 Q1036.19 69.7404 1032.58 71.7658 Q1029.02 73.7508 1024.28 73.7508 Q1016.46 73.7508 1012.41 68.8897 Q1008.36 64.0286 1008.36 54.671 M1027.11 26.1121 L1027.11 26.1121 Z" fill="#000000" fill-rule="nonzero" fill-opacity="1" /><path clip-path="url(#clip540)" d="M1061.71 9.54393 L1069.16 9.54393 L1069.16 72.576 L1061.71 72.576 L1061.71 9.54393 Z" fill="#000000" fill-rule="nonzero" fill-opacity="1" /><path clip-path="url(#clip540)" d="M1105.38 49.7694 Q1096.34 49.7694 1092.86 51.8354 Q1089.38 53.9013 1089.38 58.8839 Q1089.38 62.8538 1091.97 65.2034 Q1094.6 67.5124 1099.1 67.5124 Q1105.3 67.5124 1109.02 63.1374 Q1112.79 58.7219 1112.79 51.4303 L1112.79 49.7694 L1105.38 49.7694 M1120.24 46.6907 L1120.24 72.576 L1112.79 72.576 L1112.79 65.6895 Q1110.24 69.8214 1106.43 71.8063 Q1102.62 73.7508 1097.11 73.7508 Q1090.15 73.7508 1086.01 69.8619 Q1081.92 65.9325 1081.92 59.3701 Q1081.92 51.7138 1087.03 47.825 Q1092.17 43.9361 1102.34 43.9361 L1112.79 43.9361 L1112.79 43.2069 Q1112.79 38.0623 1109.39 35.2672 Q1106.03 32.4315 1099.91 32.4315 Q1096.02 32.4315 1092.33 33.3632 Q1088.65 34.295 1085.24 36.1584 L1085.24 29.2718 Q1089.34 27.692 1093.18 26.9223 Q1097.03 26.1121 1100.68 26.1121 Q1110.52 26.1121 1115.38 31.2163 Q1120.24 36.3204 1120.24 46.6907 Z" fill="#000000" fill-rule="nonzero" fill-opacity="1" /><path clip-path="url(#clip540)" d="M1142.97 14.324 L1142.97 27.2059 L1158.32 27.2059 L1158.32 32.9987 L1142.97 32.9987 L1142.97 57.6282 Q1142.97 63.1779 1144.47 64.7578 Q1146.01 66.3376 1150.67 66.3376 L1158.32 66.3376 L1158.32 72.576 L1150.67 72.576 Q1142.04 72.576 1138.76 69.3758 Q1135.48 66.1351 1135.48 57.6282 L1135.48 32.9987 L1130.01 32.9987 L1130.01 27.2059 L1135.48 27.2059 L1135.48 14.324 L1142.97 14.324 Z" fill="#000000" fill-rule="nonzero" fill-opacity="1" /><path clip-path="url(#clip540)" d="M1168.13 27.2059 L1175.58 27.2059 L1175.58 72.576 L1168.13 72.576 L1168.13 27.2059 M1168.13 9.54393 L1175.58 9.54393 L1175.58 18.9825 L1168.13 18.9825 L1168.13 9.54393 Z" fill="#000000" fill-rule="nonzero" fill-opacity="1" /><path clip-path="url(#clip540)" d="M1208.76 32.4315 Q1202.76 32.4315 1199.28 37.1306 Q1195.79 41.7891 1195.79 49.9314 Q1195.79 58.0738 1199.24 62.7728 Q1202.72 67.4314 1208.76 67.4314 Q1214.71 67.4314 1218.19 62.7323 Q1221.68 58.0333 1221.68 49.9314 Q1221.68 41.8701 1218.19 37.1711 Q1214.71 32.4315 1208.76 32.4315 M1208.76 26.1121 Q1218.48 26.1121 1224.03 32.4315 Q1229.58 38.7509 1229.58 49.9314 Q1229.58 61.0714 1224.03 67.4314 Q1218.48 73.7508 1208.76 73.7508 Q1198.99 73.7508 1193.44 67.4314 Q1187.93 61.0714 1187.93 49.9314 Q1187.93 38.7509 1193.44 32.4315 Q1198.99 26.1121 1208.76 26.1121 Z" fill="#000000" fill-rule="nonzero" fill-opacity="1" /><path clip-path="url(#clip540)" d="M1279.65 45.1919 L1279.65 72.576 L1272.19 72.576 L1272.19 45.4349 Q1272.19 38.994 1269.68 35.7938 Q1267.17 32.5936 1262.15 32.5936 Q1256.11 32.5936 1252.63 36.4419 Q1249.14 40.2903 1249.14 46.9338 L1249.14 72.576 L1241.65 72.576 L1241.65 27.2059 L1249.14 27.2059 L1249.14 34.2544 Q1251.82 30.163 1255.42 28.1376 Q1259.07 26.1121 1263.81 26.1121 Q1271.63 26.1121 1275.64 30.9732 Q1279.65 35.7938 1279.65 45.1919 Z" fill="#000000" fill-rule="nonzero" fill-opacity="1" /><path clip-path="url(#clip540)" d="M1296.42 62.2867 L1304.97 62.2867 L1304.97 72.576 L1296.42 72.576 L1296.42 62.2867 M1296.42 29.6769 L1304.97 29.6769 L1304.97 39.9662 L1296.42 39.9662 L1296.42 29.6769 Z" fill="#000000" fill-rule="nonzero" fill-opacity="1" /><path clip-path="url(#clip540)" d="M1349.16 12.096 L1361.35 12.096 L1376.79 53.2532 L1392.3 12.096 L1404.5 12.096 L1404.5 72.576 L1396.52 72.576 L1396.52 19.4686 L1380.92 60.9499 L1372.7 60.9499 L1357.1 19.4686 L1357.1 72.576 L1349.16 72.576 L1349.16 12.096 Z" fill="#000000" fill-rule="nonzero" fill-opacity="1" /><path clip-path="url(#clip540)" d="M1441.03 49.7694 Q1432 49.7694 1428.52 51.8354 Q1425.03 53.9013 1425.03 58.8839 Q1425.03 62.8538 1427.63 65.2034 Q1430.26 67.5124 1434.76 67.5124 Q1440.95 67.5124 1444.68 63.1374 Q1448.45 58.7219 1448.45 51.4303 L1448.45 49.7694 L1441.03 49.7694 M1455.9 46.6907 L1455.9 72.576 L1448.45 72.576 L1448.45 65.6895 Q1445.9 69.8214 1442.09 71.8063 Q1438.28 73.7508 1432.77 73.7508 Q1425.8 73.7508 1421.67 69.8619 Q1417.58 65.9325 1417.58 59.3701 Q1417.58 51.7138 1422.68 47.825 Q1427.83 43.9361 1438 43.9361 L1448.45 43.9361 L1448.45 43.2069 Q1448.45 38.0623 1445.05 35.2672 Q1441.68 32.4315 1435.57 32.4315 Q1431.68 32.4315 1427.99 33.3632 Q1424.3 34.295 1420.9 36.1584 L1420.9 29.2718 Q1424.99 27.692 1428.84 26.9223 Q1432.69 26.1121 1436.34 26.1121 Q1446.18 26.1121 1451.04 31.2163 Q1455.9 36.3204 1455.9 46.6907 Z" fill="#000000" fill-rule="nonzero" fill-opacity="1" /><path clip-path="url(#clip540)" d="M1497.55 34.1734 Q1496.29 33.4443 1494.79 33.1202 Q1493.33 32.7556 1491.55 32.7556 Q1485.23 32.7556 1481.83 36.8875 Q1478.47 40.9789 1478.47 48.6757 L1478.47 72.576 L1470.97 72.576 L1470.97 27.2059 L1478.47 27.2059 L1478.47 34.2544 Q1480.81 30.1225 1484.58 28.1376 Q1488.35 26.1121 1493.74 26.1121 Q1494.51 26.1121 1495.44 26.2337 Q1496.37 26.3147 1497.5 26.5172 L1497.55 34.1734 Z" fill="#000000" fill-rule="nonzero" fill-opacity="1" /><path clip-path="url(#clip540)" d="M1533.76 49.3643 Q1533.76 41.2625 1530.4 36.8065 Q1527.08 32.3505 1521.04 32.3505 Q1515.05 32.3505 1511.68 36.8065 Q1508.36 41.2625 1508.36 49.3643 Q1508.36 57.4256 1511.68 61.8816 Q1515.05 66.3376 1521.04 66.3376 Q1527.08 66.3376 1530.4 61.8816 Q1533.76 57.4256 1533.76 49.3643 M1541.21 66.9452 Q1541.21 78.5308 1536.07 84.1616 Q1530.92 89.8329 1520.31 89.8329 Q1516.38 89.8329 1512.9 89.2252 Q1509.41 88.6581 1506.13 87.4428 L1506.13 80.1917 Q1509.41 81.9741 1512.61 82.8248 Q1515.81 83.6755 1519.14 83.6755 Q1526.47 83.6755 1530.11 79.8271 Q1533.76 76.0193 1533.76 68.282 L1533.76 64.5957 Q1531.45 68.6061 1527.85 70.5911 Q1524.24 72.576 1519.22 72.576 Q1510.87 72.576 1505.77 66.2161 Q1500.66 59.8562 1500.66 49.3643 Q1500.66 38.832 1505.77 32.472 Q1510.87 26.1121 1519.22 26.1121 Q1524.24 26.1121 1527.85 28.0971 Q1531.45 30.082 1533.76 34.0924 L1533.76 27.2059 L1541.21 27.2059 L1541.21 66.9452 Z" fill="#000000" fill-rule="nonzero" fill-opacity="1" /><path clip-path="url(#clip540)" d="M1556.57 27.2059 L1564.02 27.2059 L1564.02 72.576 L1556.57 72.576 L1556.57 27.2059 M1556.57 9.54393 L1564.02 9.54393 L1564.02 18.9825 L1556.57 18.9825 L1556.57 9.54393 Z" fill="#000000" fill-rule="nonzero" fill-opacity="1" /><path clip-path="url(#clip540)" d="M1617.33 45.1919 L1617.33 72.576 L1609.88 72.576 L1609.88 45.4349 Q1609.88 38.994 1607.37 35.7938 Q1604.85 32.5936 1599.83 32.5936 Q1593.79 32.5936 1590.31 36.4419 Q1586.83 40.2903 1586.83 46.9338 L1586.83 72.576 L1579.33 72.576 L1579.33 27.2059 L1586.83 27.2059 L1586.83 34.2544 Q1589.5 30.163 1593.11 28.1376 Q1596.75 26.1121 1601.49 26.1121 Q1609.31 26.1121 1613.32 30.9732 Q1617.33 35.7938 1617.33 45.1919 Z" fill="#000000" fill-rule="nonzero" fill-opacity="1" /><path clip-path="url(#clip540)" d="M1652.82 49.7694 Q1643.78 49.7694 1640.3 51.8354 Q1636.82 53.9013 1636.82 58.8839 Q1636.82 62.8538 1639.41 65.2034 Q1642.04 67.5124 1646.54 67.5124 Q1652.74 67.5124 1656.46 63.1374 Q1660.23 58.7219 1660.23 51.4303 L1660.23 49.7694 L1652.82 49.7694 M1667.68 46.6907 L1667.68 72.576 L1660.23 72.576 L1660.23 65.6895 Q1657.68 69.8214 1653.87 71.8063 Q1650.06 73.7508 1644.55 73.7508 Q1637.58 73.7508 1633.45 69.8619 Q1629.36 65.9325 1629.36 59.3701 Q1629.36 51.7138 1634.47 47.825 Q1639.61 43.9361 1649.78 43.9361 L1660.23 43.9361 L1660.23 43.2069 Q1660.23 38.0623 1656.83 35.2672 Q1653.46 32.4315 1647.35 32.4315 Q1643.46 32.4315 1639.77 33.3632 Q1636.09 34.295 1632.68 36.1584 L1632.68 29.2718 Q1636.77 27.692 1640.62 26.9223 Q1644.47 26.1121 1648.12 26.1121 Q1657.96 26.1121 1662.82 31.2163 Q1667.68 36.3204 1667.68 46.6907 Z" fill="#000000" fill-rule="nonzero" fill-opacity="1" /><path clip-path="url(#clip540)" d="M1683.04 9.54393 L1690.49 9.54393 L1690.49 72.576 L1683.04 72.576 L1683.04 9.54393 Z" fill="#000000" fill-rule="nonzero" fill-opacity="1" /><path clip-path="url(#clip540)" d="M1740.96 18.8205 L1740.96 41.5461 L1751.25 41.5461 Q1756.97 41.5461 1760.08 38.5889 Q1763.2 35.6318 1763.2 30.163 Q1763.2 24.7348 1760.08 21.7777 Q1756.97 18.8205 1751.25 18.8205 L1740.96 18.8205 M1732.78 12.096 L1751.25 12.096 Q1761.42 12.096 1766.61 16.714 Q1771.83 21.2916 1771.83 30.163 Q1771.83 39.1155 1766.61 43.6931 Q1761.42 48.2706 1751.25 48.2706 L1740.96 48.2706 L1740.96 72.576 L1732.78 72.576 L1732.78 12.096 Z" fill="#000000" fill-rule="nonzero" fill-opacity="1" /><path clip-path="url(#clip540)" d="M1807.32 34.1734 Q1806.06 33.4443 1804.56 33.1202 Q1803.1 32.7556 1801.32 32.7556 Q1795 32.7556 1791.6 36.8875 Q1788.24 40.9789 1788.24 48.6757 L1788.24 72.576 L1780.74 72.576 L1780.74 27.2059 L1788.24 27.2059 L1788.24 34.2544 Q1790.59 30.1225 1794.35 28.1376 Q1798.12 26.1121 1803.51 26.1121 Q1804.28 26.1121 1805.21 26.2337 Q1806.14 26.3147 1807.28 26.5172 L1807.32 34.1734 Z" fill="#000000" fill-rule="nonzero" fill-opacity="1" /><path clip-path="url(#clip540)" d="M1852.12 48.0275 L1852.12 51.6733 L1817.85 51.6733 Q1818.34 59.3701 1822.47 63.421 Q1826.64 67.4314 1834.05 67.4314 Q1838.35 67.4314 1842.36 66.3781 Q1846.41 65.3249 1850.38 63.2184 L1850.38 70.267 Q1846.37 71.9684 1842.16 72.8596 Q1837.94 73.7508 1833.61 73.7508 Q1822.75 73.7508 1816.39 67.4314 Q1810.07 61.1119 1810.07 50.3365 Q1810.07 39.1965 1816.07 32.6746 Q1822.1 26.1121 1832.31 26.1121 Q1841.47 26.1121 1846.77 32.0264 Q1852.12 37.9003 1852.12 48.0275 M1844.67 45.84 Q1844.59 39.7232 1841.22 36.0774 Q1837.9 32.4315 1832.39 32.4315 Q1826.15 32.4315 1822.39 35.9558 Q1818.66 39.4801 1818.09 45.8805 L1844.67 45.84 Z" fill="#000000" fill-rule="nonzero" fill-opacity="1" /><path clip-path="url(#clip540)" d="M1859.01 27.2059 L1866.91 27.2059 L1881.08 65.2844 L1895.26 27.2059 L1903.16 27.2059 L1886.15 72.576 L1876.02 72.576 L1859.01 27.2059 Z" fill="#000000" fill-rule="nonzero" fill-opacity="1" /><path clip-path="url(#clip540)" d="M1934.07 49.7694 Q1925.04 49.7694 1921.55 51.8354 Q1918.07 53.9013 1918.07 58.8839 Q1918.07 62.8538 1920.66 65.2034 Q1923.3 67.5124 1927.79 67.5124 Q1933.99 67.5124 1937.72 63.1374 Q1941.48 58.7219 1941.48 51.4303 L1941.48 49.7694 L1934.07 49.7694 M1948.94 46.6907 L1948.94 72.576 L1941.48 72.576 L1941.48 65.6895 Q1938.93 69.8214 1935.12 71.8063 Q1931.32 73.7508 1925.81 73.7508 Q1918.84 73.7508 1914.71 69.8619 Q1910.62 65.9325 1910.62 59.3701 Q1910.62 51.7138 1915.72 47.825 Q1920.86 43.9361 1931.03 43.9361 L1941.48 43.9361 L1941.48 43.2069 Q1941.48 38.0623 1938.08 35.2672 Q1934.72 32.4315 1928.6 32.4315 Q1924.71 32.4315 1921.03 33.3632 Q1917.34 34.295 1913.94 36.1584 L1913.94 29.2718 Q1918.03 27.692 1921.88 26.9223 Q1925.73 26.1121 1929.37 26.1121 Q1939.22 26.1121 1944.08 31.2163 Q1948.94 36.3204 1948.94 46.6907 Z" fill="#000000" fill-rule="nonzero" fill-opacity="1" /><path clip-path="url(#clip540)" d="M1964.29 9.54393 L1971.74 9.54393 L1971.74 72.576 L1964.29 72.576 L1964.29 9.54393 Z" fill="#000000" fill-rule="nonzero" fill-opacity="1" /><path clip-path="url(#clip540)" d="M2026.15 48.0275 L2026.15 51.6733 L1991.88 51.6733 Q1992.36 59.3701 1996.49 63.421 Q2000.67 67.4314 2008.08 67.4314 Q2012.37 67.4314 2016.38 66.3781 Q2020.44 65.3249 2024.41 63.2184 L2024.41 70.267 Q2020.4 71.9684 2016.18 72.8596 Q2011.97 73.7508 2007.63 73.7508 Q1996.78 73.7508 1990.42 67.4314 Q1984.1 61.1119 1984.1 50.3365 Q1984.1 39.1965 1990.09 32.6746 Q1996.13 26.1121 2006.34 26.1121 Q2015.49 26.1121 2020.8 32.0264 Q2026.15 37.9003 2026.15 48.0275 M2018.69 45.84 Q2018.61 39.7232 2015.25 36.0774 Q2011.93 32.4315 2006.42 32.4315 Q2000.18 32.4315 1996.41 35.9558 Q1992.69 39.4801 1992.12 45.8805 L2018.69 45.84 Z" fill="#000000" fill-rule="nonzero" fill-opacity="1" /><path clip-path="url(#clip540)" d="M2076.1 45.1919 L2076.1 72.576 L2068.64 72.576 L2068.64 45.4349 Q2068.64 38.994 2066.13 35.7938 Q2063.62 32.5936 2058.6 32.5936 Q2052.56 32.5936 2049.08 36.4419 Q2045.59 40.2903 2045.59 46.9338 L2045.59 72.576 L2038.1 72.576 L2038.1 27.2059 L2045.59 27.2059 L2045.59 34.2544 Q2048.27 30.163 2051.87 28.1376 Q2055.52 26.1121 2060.26 26.1121 Q2068.07 26.1121 2072.08 30.9732 Q2076.1 35.7938 2076.1 45.1919 Z" fill="#000000" fill-rule="nonzero" fill-opacity="1" /><path clip-path="url(#clip540)" d="M2123.61 28.9478 L2123.61 35.9153 Q2120.45 34.1734 2117.25 33.3227 Q2114.09 32.4315 2110.85 32.4315 Q2103.6 32.4315 2099.59 37.0496 Q2095.58 41.6271 2095.58 49.9314 Q2095.58 58.2358 2099.59 62.8538 Q2103.6 67.4314 2110.85 67.4314 Q2114.09 67.4314 2117.25 66.5807 Q2120.45 65.6895 2123.61 63.9476 L2123.61 70.8341 Q2120.49 72.2924 2117.13 73.0216 Q2113.81 73.7508 2110.04 73.7508 Q2099.79 73.7508 2093.76 67.3098 Q2087.72 60.8689 2087.72 49.9314 Q2087.72 38.832 2093.8 32.472 Q2099.91 26.1121 2110.53 26.1121 Q2113.97 26.1121 2117.25 26.8413 Q2120.53 27.5299 2123.61 28.9478 Z" fill="#000000" fill-rule="nonzero" fill-opacity="1" /><path clip-path="url(#clip540)" d="M2175.38 48.0275 L2175.38 51.6733 L2141.11 51.6733 Q2141.6 59.3701 2145.73 63.421 Q2149.9 67.4314 2157.32 67.4314 Q2161.61 67.4314 2165.62 66.3781 Q2169.67 65.3249 2173.64 63.2184 L2173.64 70.267 Q2169.63 71.9684 2165.42 72.8596 Q2161.2 73.7508 2156.87 73.7508 Q2146.01 73.7508 2139.65 67.4314 Q2133.33 61.1119 2133.33 50.3365 Q2133.33 39.1965 2139.33 32.6746 Q2145.37 26.1121 2155.57 26.1121 Q2164.73 26.1121 2170.04 32.0264 Q2175.38 37.9003 2175.38 48.0275 M2167.93 45.84 Q2167.85 39.7232 2164.49 36.0774 Q2161.16 32.4315 2155.66 32.4315 Q2149.42 32.4315 2145.65 35.9558 Q2141.92 39.4801 2141.36 45.8805 L2167.93 45.84 Z" fill="#000000" fill-rule="nonzero" fill-opacity="1" /><polyline clip-path="url(#clip541)" style="stroke:#ff0000; stroke-linecap:round; stroke-linejoin:round; stroke-width:4; stroke-opacity:1; fill:none" points="309.459,1678.18 313.231,1677.06 317.004,1675.81 320.776,1674.44 324.548,1672.93 328.321,1671.26 332.093,1669.41 335.865,1667.38 339.638,1665.14 343.41,1662.68 347.182,1659.97 350.955,1657 354.727,1653.73 358.499,1650.15 362.272,1646.23 366.044,1641.94 369.816,1637.26 373.589,1632.15 377.361,1626.6 381.133,1620.56 384.905,1614.02 388.678,1606.95 392.45,1599.33 396.222,1591.13 399.995,1582.34 403.767,1572.94 407.539,1562.94 411.312,1552.32 415.084,1541.11 418.856,1529.32 422.629,1516.99 426.401,1504.14 430.173,1490.85 433.946,1477.17 437.718,1463.18 441.49,1448.98 445.263,1434.67 449.035,1420.36 452.807,1406.17 456.58,1392.23 460.352,1378.67 464.124,1365.62 467.897,1353.2 471.669,1341.55 475.441,1330.76 479.214,1320.94 482.986,1312.19 486.758,1304.56 490.531,1298.11 494.303,1292.89 498.075,1288.91 501.848,1286.17 505.62,1284.66 509.392,1284.34 513.165,1285.19 516.937,1287.15 520.709,1290.14 524.482,1294.11 528.254,1298.98 532.026,1304.66 535.798,1311.08 539.571,1318.16 543.343,1325.82 547.115,1333.97 550.888,1342.54 554.66,1351.45 558.432,1360.65 562.205,1370.06 565.977,1379.62 569.749,1389.29 573.522,1399.01 577.294,1408.73 581.066,1418.41 584.839,1428.03 588.611,1437.54 592.383,1446.93 596.156,1456.15 599.928,1465.21 603.7,1474.07 607.473,1482.72 611.245,1491.15 615.017,1499.36 618.79,1507.33 622.562,1515.06 626.334,1522.55 630.107,1529.79 633.879,1536.79 637.651,1543.54 641.424,1550.04 645.196,1556.31 648.968,1562.34 652.741,1568.13 656.513,1573.69 660.285,1579.04 664.058,1584.16 667.83,1589.07 671.602,1593.77 675.375,1598.28 679.147,1602.59 682.919,1606.71 686.691,1610.65 690.464,1614.41 694.236,1618.01 698.008,1621.44 701.781,1624.72 705.553,1627.84 709.325,1630.82 713.098,1633.67 716.87,1636.38 720.642,1638.96 724.415,1641.42 728.187,1643.76 731.959,1645.99 735.732,1648.12 739.504,1650.14 743.276,1652.06 747.049,1653.9 750.821,1655.64 754.593,1657.3 758.366,1658.87 762.138,1660.37 765.91,1661.8 769.683,1663.15 773.455,1664.44 777.227,1665.66 781,1666.83 784.772,1667.93 788.544,1668.98 792.317,1669.98 796.089,1670.93 799.861,1671.83 803.634,1672.68 807.406,1673.5 811.178,1674.27 814.951,1675 818.723,1675.7 822.495,1676.36 826.268,1676.98 830.04,1677.58 833.812,1678.14 837.585,1678.68 841.357,1679.19 845.129,1679.67 848.901,1680.13 852.674,1680.57 856.446,1680.98 860.218,1681.38 863.991,1681.75 867.763,1682.1 871.535,1682.44 875.308,1682.76 879.08,1683.06 882.852,1683.35 886.625,1683.62 890.397,1683.88 894.169,1684.12 897.942,1684.35 901.714,1684.57 905.486,1684.78 909.259,1684.98 913.031,1685.17 916.803,1685.35 920.576,1685.52 924.348,1685.68 928.12,1685.83 931.893,1685.98 935.665,1686.12 939.437,1686.25 943.21,1686.37 946.982,1686.49 950.754,1686.6 954.527,1686.7 958.299,1686.8 962.071,1686.9 965.844,1686.99 969.616,1687.08 973.388,1687.16 977.161,1687.23 980.933,1687.31 984.705,1687.38 988.478,1687.44 992.25,1687.5 996.022,1687.56 999.794,1687.62 1003.57,1687.67 1007.34,1687.72 1011.11,1687.77 1014.88,1687.82 1018.66,1687.86 1022.43,1687.9 1026.2,1687.94 1029.97,1687.98 1033.75,1688.01 1037.52,1688.04 1041.29,1688.08 1045.06,1688.11 1048.83,1688.13 1052.61,1688.16 1056.38,1688.19 1060.15,1688.21 1063.92,1688.23 1067.7,1688.25 1071.47,1688.28 1075.24,1688.29 1079.01,1688.31 1082.79,1688.33 1086.56,1688.35 1090.33,1688.36 1094.1,1688.38 1097.87,1688.39 1101.65,1688.41 1105.42,1688.42 1109.19,1688.43 1112.96,1688.44 1116.74,1688.45 1120.51,1688.46 1124.28,1688.47 1128.05,1688.48 1131.83,1688.49 1135.6,1688.5 1139.37,1688.51 1143.14,1688.52 1146.92,1688.52 1150.69,1688.53 1154.46,1688.54 1158.23,1688.54 1162,1688.55 1165.78,1688.55 1169.55,1688.56 1173.32,1688.56 1177.09,1688.57 1180.87,1688.57 1184.64,1688.58 1188.41,1688.58 1192.18,1688.58 1195.96,1688.59 1199.73,1688.59 1203.5,1688.6 1207.27,1688.6 1211.04,1688.6 1214.82,1688.6 1218.59,1688.61 1222.36,1688.61 1226.13,1688.61 1229.91,1688.61 1233.68,1688.62 1237.45,1688.62 1241.22,1688.62 1245,1688.62 1248.77,1688.62 1252.54,1688.62 1256.31,1688.63 1260.08,1688.63 1263.86,1688.63 1267.63,1688.63 1271.4,1688.63 1275.17,1688.63 1278.95,1688.63 1282.72,1688.64 1286.49,1688.64 1290.26,1688.64 1294.04,1688.64 1297.81,1688.64 1301.58,1688.64 1305.35,1688.64 1309.13,1688.64 1312.9,1688.64 1316.67,1688.64 1320.44,1688.64 1324.21,1688.64 1327.99,1688.64 1331.76,1688.65 1335.53,1688.65 1339.3,1688.65 1343.08,1688.65 1346.85,1688.65 1350.62,1688.65 1354.39,1688.65 1358.17,1688.65 1361.94,1688.65 1365.71,1688.65 1369.48,1688.65 1373.25,1688.65 1377.03,1688.65 1380.8,1688.65 1384.57,1688.65 1388.34,1688.65 1392.12,1688.65 1395.89,1688.65 1399.66,1688.65 1403.43,1688.65 1407.21,1688.65 1410.98,1688.65 1414.75,1688.65 1418.52,1688.65 1422.29,1688.65 1426.07,1688.65 1429.84,1688.65 1433.61,1688.65 1437.38,1688.65 1441.16,1688.65 1444.93,1688.65 1448.7,1688.65 1452.47,1688.65 1456.25,1688.65 1460.02,1688.65 1463.79,1688.65 1467.56,1688.65 1471.34,1688.65 1475.11,1688.65 1478.88,1688.65 1482.65,1688.65 1486.42,1688.65 1490.2,1688.65 1493.97,1688.65 1497.74,1688.65 1501.51,1688.65 1505.29,1688.65 1509.06,1688.65 1512.83,1688.65 1516.6,1688.65 1520.38,1688.65 1524.15,1688.65 1527.92,1688.65 1531.69,1688.65 1535.46,1688.65 1539.24,1688.65 1543.01,1688.65 1546.78,1688.65 1550.55,1688.65 1554.33,1688.65 1558.1,1688.65 1561.87,1688.65 1565.64,1688.65 1569.42,1688.65 1573.19,1688.65 1576.96,1688.65 1580.73,1688.65 1584.5,1688.65 1588.28,1688.65 1592.05,1688.65 1595.82,1688.65 1599.59,1688.65 1603.37,1688.65 1607.14,1688.65 1610.91,1688.65 1614.68,1688.65 1618.46,1688.65 1622.23,1688.65 1626,1688.65 1629.77,1688.65 1633.55,1688.65 1637.32,1688.65 1641.09,1688.65 1644.86,1688.65 1648.63,1688.65 1652.41,1688.65 1656.18,1688.65 1659.95,1688.65 1663.72,1688.65 1667.5,1688.65 1671.27,1688.65 1675.04,1688.65 1678.81,1688.65 1682.59,1688.65 1686.36,1688.65 1690.13,1688.65 1693.9,1688.65 1697.67,1688.65 1701.45,1688.65 1705.22,1688.65 1708.99,1688.65 1712.76,1688.65 1716.54,1688.65 1720.31,1688.65 1724.08,1688.65 1727.85,1688.65 1731.63,1688.65 1735.4,1688.65 1739.17,1688.65 1742.94,1688.65 1746.71,1688.65 1750.49,1688.65 1754.26,1688.65 1758.03,1688.65 1761.8,1688.65 1765.58,1688.65 1769.35,1688.65 1773.12,1688.65 1776.89,1688.65 1780.67,1688.65 1784.44,1688.65 1788.21,1688.65 1791.98,1688.65 1795.76,1688.65 1799.53,1688.65 1803.3,1688.65 1807.07,1688.65 1810.84,1688.65 1814.62,1688.65 1818.39,1688.65 1822.16,1688.65 1825.93,1688.65 1829.71,1688.65 1833.48,1688.65 1837.25,1688.65 1841.02,1688.65 1844.8,1688.65 1848.57,1688.65 1852.34,1688.65 1856.11,1688.65 1859.88,1688.65 1863.66,1688.65 1867.43,1688.65 1871.2,1688.65 1874.97,1688.65 1878.75,1688.65 1882.52,1688.65 1886.29,1688.65 1890.06,1688.65 1893.84,1688.65 1897.61,1688.65 1901.38,1688.65 1905.15,1688.65 1908.92,1688.65 1912.7,1688.65 1916.47,1688.65 1920.24,1688.65 1924.01,1688.65 1927.79,1688.65 1931.56,1688.65 1935.33,1688.65 1939.1,1688.65 1942.88,1688.65 1946.65,1688.65 1950.42,1688.65 1954.19,1688.65 1957.97,1688.65 1961.74,1688.65 1965.51,1688.65 1969.28,1688.65 1973.05,1688.65 1976.83,1688.65 1980.6,1688.65 1984.37,1688.65 1988.14,1688.65 1991.92,1688.65 1995.69,1688.65 1999.46,1688.65 2003.23,1688.65 2007.01,1688.65 2010.78,1688.65 2014.55,1688.65 2018.32,1688.65 2022.09,1688.65 2025.87,1688.65 2029.64,1688.65 2033.41,1688.65 2037.18,1688.65 2040.96,1688.65 2044.73,1688.65 2048.5,1688.65 2052.27,1688.65 2056.05,1688.65 2059.82,1688.65 2063.59,1688.65 2067.36,1688.65 2071.13,1688.65 2074.91,1688.65 2078.68,1688.65 2082.45,1688.65 2086.22,1688.65 2090,1688.65 2093.77,1688.65 2097.54,1688.65 2101.31,1688.65 2105.09,1688.65 2108.86,1688.65 2112.63,1688.65 2116.4,1688.65 2120.18,1688.65 2123.95,1688.65 2127.72,1688.65 2131.49,1688.65 2135.26,1688.65 2139.04,1688.65 2142.81,1688.65 2146.58,1688.65 2150.35,1688.65 2154.13,1688.65 2157.9,1688.65 2161.67,1688.65 2165.44,1688.65 2169.22,1688.65 2172.99,1688.65 2176.76,1688.65 2180.53,1688.65 2184.3,1688.65 2188.08,1688.65 2191.85,1688.65 2195.62,1688.65 2199.39,1688.65 2203.17,1688.65 2206.94,1688.65 2210.71,1688.65 2214.48,1688.65 2218.26,1688.65 2222.03,1688.65 2225.8,1688.65 2229.57,1688.65 2233.34,1688.65 2237.12,1688.65 2240.89,1688.65 2244.66,1688.65 2248.43,1688.65 2252.21,1688.65 2255.98,1688.65 2259.75,1688.65 2263.52,1688.65 2267.3,1688.65 2271.07,1688.65 2274.84,1688.65 2278.61,1688.65 2282.39,1688.65 2286.16,1688.65 2289.93,1688.65 2293.7,1688.65 2297.47,1688.65 2301.25,1688.65 2305.02,1688.65 2308.79,1688.65 2312.56,1688.65 2316.34,1688.65 2320.11,1688.65 2323.88,1688.65 2327.65,1688.65 2331.43,1688.65 2335.2,1688.65 2338.97,1688.65 2342.74,1688.65 2346.51,1688.65 2350.29,1688.65 2354.06,1688.65 2357.83,1688.65 2361.6,1688.65 2365.38,1688.65 2369.15,1688.65 2372.92,1688.65 2376.69,1688.65 2380.47,1688.65 2384.24,1688.65 2388.01,1688.65 2391.78,1688.65 2395.55,1688.65 2399.33,1688.65 2403.1,1688.65 2406.87,1688.65 2410.64,1688.65 2414.42,1688.65 2418.19,1688.65 2421.96,1688.65 2425.73,1688.65 2429.51,1688.65 2433.28,1688.65 2437.05,1688.65 2440.82,1688.65 2444.59,1688.65 2448.37,1688.65 2452.14,1688.65 2455.91,1688.65 2459.68,1688.65 2463.46,1688.65 2467.23,1688.65 2471,1688.65 2474.77,1688.65 2478.55,1688.65 2482.32,1688.65 2486.09,1688.65 2489.86,1688.65 2493.64,1688.65 2497.41,1688.65 2501.18,1688.65 2504.95,1688.65 2508.72,1688.65 2512.5,1688.65 2516.27,1688.65 2520.04,1688.65 2523.81,1688.65 2527.59,1688.65 2531.36,1688.65 2535.13,1688.65 2538.9,1688.65 2542.68,1688.65 2546.45,1688.65 2550.22,1688.65 2553.99,1688.65 2557.76,1688.65 2561.54,1688.65 2565.31,1688.65 2569.08,1688.65 2572.85,1688.65 "/>
<polyline clip-path="url(#clip541)" style="stroke:#0000ff; stroke-linecap:round; stroke-linejoin:round; stroke-width:4; stroke-opacity:1; fill:none" points="309.459,1678.18 313.231,1676.99 317.004,1675.66 320.776,1674.19 324.548,1672.55 328.321,1670.72 332.093,1668.7 335.865,1666.44 339.638,1663.94 343.41,1661.16 347.182,1658.07 350.955,1654.64 354.727,1650.84 358.499,1646.63 362.272,1641.96 366.044,1636.79 369.816,1631.07 373.589,1624.75 377.361,1617.77 381.133,1610.07 384.905,1601.58 388.678,1592.24 392.45,1581.96 396.222,1570.69 399.995,1558.33 403.767,1544.81 407.539,1530.05 411.312,1513.97 415.084,1496.49 418.856,1477.54 422.629,1457.04 426.401,1434.94 430.173,1411.19 433.946,1385.74 437.718,1358.59 441.49,1329.72 445.263,1299.16 449.035,1266.94 452.807,1233.14 456.58,1197.85 460.352,1161.18 464.124,1123.28 467.897,1084.32 471.669,1044.5 475.441,1004.03 479.214,963.136 482.986,922.05 486.758,881.017 490.531,840.276 494.303,800.06 498.075,760.59 501.848,722.071 505.62,684.685 509.392,648.594 513.165,613.932 516.937,580.807 520.709,549.3 524.482,519.469 528.254,491.343 532.026,464.932 535.798,440.224 539.571,417.193 543.343,395.794 547.115,375.973 550.888,357.666 554.66,340.801 558.432,325.302 562.205,311.091 565.977,298.086 569.749,286.207 573.522,275.376 577.294,265.515 581.066,256.55 584.839,248.41 588.611,241.028 592.383,234.34 596.156,228.287 599.928,222.814 603.7,217.868 607.473,213.402 611.245,209.373 615.017,205.739 618.79,202.463 622.562,199.512 626.334,196.854 630.107,194.461 633.879,192.308 637.651,190.371 641.424,188.629 645.196,187.063 648.968,185.654 652.741,184.389 656.513,183.251 660.285,182.23 664.058,181.312 667.83,180.487 671.602,179.747 675.375,179.082 679.147,178.484 682.919,177.948 686.691,177.467 690.464,177.035 694.236,176.647 698.008,176.299 701.781,175.986 705.553,175.706 709.325,175.454 713.098,175.228 716.87,175.026 720.642,174.844 724.415,174.68 728.187,174.534 731.959,174.402 735.732,174.284 739.504,174.178 743.276,174.084 747.049,173.998 750.821,173.922 754.593,173.853 758.366,173.792 762.138,173.736 765.91,173.687 769.683,173.642 773.455,173.602 777.227,173.567 781,173.534 784.772,173.506 788.544,173.48 792.317,173.457 796.089,173.436 799.861,173.417 803.634,173.4 807.406,173.385 811.178,173.372 814.951,173.36 818.723,173.349 822.495,173.339 826.268,173.33 830.04,173.323 833.812,173.316 837.585,173.309 841.357,173.304 845.129,173.298 848.901,173.294 852.674,173.29 856.446,173.286 860.218,173.283 863.991,173.28 867.763,173.277 871.535,173.275 875.308,173.273 879.08,173.271 882.852,173.269 886.625,173.268 890.397,173.266 894.169,173.265 897.942,173.264 901.714,173.263 905.486,173.262 909.259,173.261 913.031,173.26 916.803,173.26 920.576,173.259 924.348,173.259 928.12,173.258 931.893,173.258 935.665,173.257 939.437,173.257 943.21,173.257 946.982,173.257 950.754,173.256 954.527,173.256 958.299,173.256 962.071,173.256 965.844,173.256 969.616,173.255 973.388,173.255 977.161,173.255 980.933,173.255 984.705,173.255 988.478,173.255 992.25,173.255 996.022,173.255 999.794,173.255 1003.57,173.255 1007.34,173.255 1011.11,173.255 1014.88,173.254 1018.66,173.254 1022.43,173.254 1026.2,173.254 1029.97,173.254 1033.75,173.254 1037.52,173.254 1041.29,173.254 1045.06,173.254 1048.83,173.254 1052.61,173.254 1056.38,173.254 1060.15,173.254 1063.92,173.254 1067.7,173.254 1071.47,173.254 1075.24,173.254 1079.01,173.254 1082.79,173.254 1086.56,173.254 1090.33,173.254 1094.1,173.254 1097.87,173.254 1101.65,173.254 1105.42,173.254 1109.19,173.254 1112.96,173.254 1116.74,173.254 1120.51,173.254 1124.28,173.254 1128.05,173.254 1131.83,173.254 1135.6,173.254 1139.37,173.254 1143.14,173.254 1146.92,173.254 1150.69,173.254 1154.46,173.254 1158.23,173.254 1162,173.254 1165.78,173.254 1169.55,173.254 1173.32,173.254 1177.09,173.254 1180.87,173.254 1184.64,173.254 1188.41,173.254 1192.18,173.254 1195.96,173.254 1199.73,173.254 1203.5,173.254 1207.27,173.254 1211.04,173.254 1214.82,173.254 1218.59,173.254 1222.36,173.254 1226.13,173.254 1229.91,173.254 1233.68,173.254 1237.45,173.254 1241.22,173.254 1245,173.254 1248.77,173.254 1252.54,173.254 1256.31,173.254 1260.08,173.254 1263.86,173.254 1267.63,173.254 1271.4,173.254 1275.17,173.254 1278.95,173.254 1282.72,173.254 1286.49,173.254 1290.26,173.254 1294.04,173.254 1297.81,173.254 1301.58,173.254 1305.35,173.254 1309.13,173.254 1312.9,173.254 1316.67,173.254 1320.44,173.254 1324.21,173.254 1327.99,173.254 1331.76,173.254 1335.53,173.254 1339.3,173.254 1343.08,173.254 1346.85,173.254 1350.62,173.254 1354.39,173.254 1358.17,173.254 1361.94,173.254 1365.71,173.254 1369.48,173.254 1373.25,173.254 1377.03,173.254 1380.8,173.254 1384.57,173.254 1388.34,173.254 1392.12,173.254 1395.89,173.254 1399.66,173.254 1403.43,173.254 1407.21,173.254 1410.98,173.254 1414.75,173.254 1418.52,173.254 1422.29,173.254 1426.07,173.254 1429.84,173.254 1433.61,173.254 1437.38,173.254 1441.16,173.254 1444.93,173.254 1448.7,173.254 1452.47,173.254 1456.25,173.254 1460.02,173.254 1463.79,173.254 1467.56,173.254 1471.34,173.254 1475.11,173.254 1478.88,173.254 1482.65,173.254 1486.42,173.254 1490.2,173.254 1493.97,173.254 1497.74,173.254 1501.51,173.254 1505.29,173.254 1509.06,173.254 1512.83,173.254 1516.6,173.254 1520.38,173.254 1524.15,173.254 1527.92,173.254 1531.69,173.254 1535.46,173.254 1539.24,173.254 1543.01,173.254 1546.78,173.254 1550.55,173.254 1554.33,173.254 1558.1,173.254 1561.87,173.254 1565.64,173.254 1569.42,173.254 1573.19,173.254 1576.96,173.254 1580.73,173.254 1584.5,173.254 1588.28,173.254 1592.05,173.254 1595.82,173.254 1599.59,173.254 1603.37,173.254 1607.14,173.254 1610.91,173.254 1614.68,173.254 1618.46,173.254 1622.23,173.254 1626,173.254 1629.77,173.254 1633.55,173.254 1637.32,173.254 1641.09,173.254 1644.86,173.254 1648.63,173.254 1652.41,173.254 1656.18,173.254 1659.95,173.254 1663.72,173.254 1667.5,173.254 1671.27,173.254 1675.04,173.254 1678.81,173.254 1682.59,173.254 1686.36,173.254 1690.13,173.254 1693.9,173.254 1697.67,173.254 1701.45,173.254 1705.22,173.254 1708.99,173.254 1712.76,173.254 1716.54,173.254 1720.31,173.254 1724.08,173.254 1727.85,173.254 1731.63,173.254 1735.4,173.254 1739.17,173.254 1742.94,173.254 1746.71,173.254 1750.49,173.254 1754.26,173.254 1758.03,173.254 1761.8,173.254 1765.58,173.254 1769.35,173.254 1773.12,173.254 1776.89,173.254 1780.67,173.254 1784.44,173.254 1788.21,173.254 1791.98,173.254 1795.76,173.254 1799.53,173.254 1803.3,173.254 1807.07,173.254 1810.84,173.254 1814.62,173.254 1818.39,173.254 1822.16,173.254 1825.93,173.254 1829.71,173.254 1833.48,173.254 1837.25,173.254 1841.02,173.254 1844.8,173.254 1848.57,173.254 1852.34,173.254 1856.11,173.254 1859.88,173.254 1863.66,173.254 1867.43,173.254 1871.2,173.254 1874.97,173.254 1878.75,173.254 1882.52,173.254 1886.29,173.254 1890.06,173.254 1893.84,173.254 1897.61,173.254 1901.38,173.254 1905.15,173.254 1908.92,173.254 1912.7,173.254 1916.47,173.254 1920.24,173.254 1924.01,173.254 1927.79,173.254 1931.56,173.254 1935.33,173.254 1939.1,173.254 1942.88,173.254 1946.65,173.254 1950.42,173.254 1954.19,173.254 1957.97,173.254 1961.74,173.254 1965.51,173.254 1969.28,173.254 1973.05,173.254 1976.83,173.254 1980.6,173.254 1984.37,173.254 1988.14,173.254 1991.92,173.254 1995.69,173.254 1999.46,173.254 2003.23,173.254 2007.01,173.254 2010.78,173.254 2014.55,173.254 2018.32,173.254 2022.09,173.254 2025.87,173.254 2029.64,173.254 2033.41,173.254 2037.18,173.254 2040.96,173.254 2044.73,173.254 2048.5,173.254 2052.27,173.254 2056.05,173.254 2059.82,173.254 2063.59,173.254 2067.36,173.254 2071.13,173.254 2074.91,173.254 2078.68,173.254 2082.45,173.254 2086.22,173.254 2090,173.254 2093.77,173.254 2097.54,173.254 2101.31,173.254 2105.09,173.254 2108.86,173.254 2112.63,173.254 2116.4,173.254 2120.18,173.254 2123.95,173.254 2127.72,173.254 2131.49,173.254 2135.26,173.254 2139.04,173.254 2142.81,173.254 2146.58,173.254 2150.35,173.254 2154.13,173.254 2157.9,173.254 2161.67,173.254 2165.44,173.254 2169.22,173.254 2172.99,173.254 2176.76,173.254 2180.53,173.254 2184.3,173.254 2188.08,173.254 2191.85,173.254 2195.62,173.254 2199.39,173.254 2203.17,173.254 2206.94,173.254 2210.71,173.254 2214.48,173.254 2218.26,173.254 2222.03,173.254 2225.8,173.254 2229.57,173.254 2233.34,173.254 2237.12,173.254 2240.89,173.254 2244.66,173.254 2248.43,173.254 2252.21,173.254 2255.98,173.254 2259.75,173.254 2263.52,173.254 2267.3,173.254 2271.07,173.254 2274.84,173.254 2278.61,173.254 2282.39,173.254 2286.16,173.254 2289.93,173.254 2293.7,173.254 2297.47,173.254 2301.25,173.254 2305.02,173.254 2308.79,173.254 2312.56,173.254 2316.34,173.254 2320.11,173.254 2323.88,173.254 2327.65,173.254 2331.43,173.254 2335.2,173.254 2338.97,173.254 2342.74,173.254 2346.51,173.254 2350.29,173.254 2354.06,173.254 2357.83,173.254 2361.6,173.254 2365.38,173.254 2369.15,173.254 2372.92,173.254 2376.69,173.254 2380.47,173.254 2384.24,173.254 2388.01,173.254 2391.78,173.254 2395.55,173.254 2399.33,173.254 2403.1,173.254 2406.87,173.254 2410.64,173.254 2414.42,173.254 2418.19,173.254 2421.96,173.254 2425.73,173.254 2429.51,173.254 2433.28,173.254 2437.05,173.254 2440.82,173.254 2444.59,173.254 2448.37,173.254 2452.14,173.254 2455.91,173.254 2459.68,173.254 2463.46,173.254 2467.23,173.254 2471,173.254 2474.77,173.254 2478.55,173.254 2482.32,173.254 2486.09,173.254 2489.86,173.254 2493.64,173.254 2497.41,173.254 2501.18,173.254 2504.95,173.254 2508.72,173.254 2512.5,173.254 2516.27,173.254 2520.04,173.254 2523.81,173.254 2527.59,173.254 2531.36,173.254 2535.13,173.254 2538.9,173.254 2542.68,173.254 2546.45,173.254 2550.22,173.254 2553.99,173.254 2557.76,173.254 2561.54,173.254 2565.31,173.254 2569.08,173.254 2572.85,173.254 "/>
<path clip-path="url(#clip540)" d="M321.53 336.856 L932.86 336.856 L932.86 181.336 L321.53 181.336  Z" fill="#ffffff" fill-rule="evenodd" fill-opacity="1"/>
<polyline clip-path="url(#clip540)" style="stroke:#000000; stroke-linecap:round; stroke-linejoin:round; stroke-width:4; stroke-opacity:1; fill:none" points="321.53,336.856 932.86,336.856 932.86,181.336 321.53,181.336 321.53,336.856 "/>
<polyline clip-path="url(#clip540)" style="stroke:#ff0000; stroke-linecap:round; stroke-linejoin:round; stroke-width:4; stroke-opacity:1; fill:none" points="348.188,233.176 508.135,233.176 "/>
<path clip-path="url(#clip540)" d="M534.793 215.896 L554.654 215.896 L554.654 219.831 L539.468 219.831 L539.468 230.017 L553.172 230.017 L553.172 233.952 L539.468 233.952 L539.468 250.456 L534.793 250.456 L534.793 215.896 Z" fill="#000000" fill-rule="nonzero" fill-opacity="1" /><path clip-path="url(#clip540)" d="M561.876 214.438 L566.135 214.438 L566.135 250.456 L561.876 250.456 L561.876 214.438 Z" fill="#000000" fill-rule="nonzero" fill-opacity="1" /><path clip-path="url(#clip540)" d="M574.607 240.225 L574.607 224.531 L578.866 224.531 L578.866 240.063 Q578.866 243.743 580.302 245.595 Q581.737 247.424 584.607 247.424 Q588.056 247.424 590.047 245.225 Q592.061 243.026 592.061 239.229 L592.061 224.531 L596.32 224.531 L596.32 250.456 L592.061 250.456 L592.061 246.475 Q590.51 248.836 588.45 249.993 Q586.413 251.128 583.704 251.128 Q579.237 251.128 576.922 248.35 Q574.607 245.572 574.607 240.225 M585.325 223.906 L585.325 223.906 Z" fill="#000000" fill-rule="nonzero" fill-opacity="1" /><path clip-path="url(#clip540)" d="M630.394 214.484 Q627.292 219.808 625.787 225.017 Q624.283 230.225 624.283 235.572 Q624.283 240.919 625.787 246.174 Q627.315 251.405 630.394 256.706 L626.69 256.706 Q623.218 251.266 621.482 246.012 Q619.769 240.757 619.769 235.572 Q619.769 230.41 621.482 225.179 Q623.195 219.947 626.69 214.484 L630.394 214.484 Z" fill="#000000" fill-rule="nonzero" fill-opacity="1" /><path clip-path="url(#clip540)" d="M659.56 217.031 L659.56 221.591 Q656.898 220.318 654.537 219.693 Q652.176 219.068 649.977 219.068 Q646.158 219.068 644.074 220.549 Q642.014 222.031 642.014 224.762 Q642.014 227.054 643.38 228.234 Q644.769 229.392 648.611 230.109 L651.435 230.688 Q656.667 231.683 659.144 234.206 Q661.644 236.706 661.644 240.919 Q661.644 245.942 658.264 248.535 Q654.908 251.128 648.403 251.128 Q645.949 251.128 643.172 250.572 Q640.417 250.016 637.454 248.929 L637.454 244.114 Q640.301 245.711 643.033 246.521 Q645.764 247.331 648.403 247.331 Q652.408 247.331 654.584 245.757 Q656.759 244.183 656.759 241.267 Q656.759 238.72 655.185 237.285 Q653.634 235.85 650.07 235.132 L647.222 234.577 Q641.991 233.535 639.653 231.313 Q637.315 229.091 637.315 225.132 Q637.315 220.549 640.533 217.91 Q643.773 215.271 649.445 215.271 Q651.875 215.271 654.398 215.711 Q656.922 216.151 659.56 217.031 Z" fill="#000000" fill-rule="nonzero" fill-opacity="1" /><path clip-path="url(#clip540)" d="M668.935 215.896 L673.611 215.896 L673.611 250.456 L668.935 250.456 L668.935 215.896 Z" fill="#000000" fill-rule="nonzero" fill-opacity="1" /><path clip-path="url(#clip540)" d="M699.306 234.253 Q700.81 234.762 702.222 236.429 Q703.657 238.095 705.093 241.012 L709.838 250.456 L704.815 250.456 L700.394 241.591 Q698.681 238.118 697.06 236.984 Q695.463 235.85 692.685 235.85 L687.593 235.85 L687.593 250.456 L682.917 250.456 L682.917 215.896 L693.472 215.896 Q699.398 215.896 702.315 218.373 Q705.231 220.85 705.231 225.85 Q705.231 229.114 703.704 231.267 Q702.199 233.419 699.306 234.253 M687.593 219.739 L687.593 232.007 L693.472 232.007 Q696.852 232.007 698.565 230.456 Q700.301 228.882 700.301 225.85 Q700.301 222.818 698.565 221.29 Q696.852 219.739 693.472 219.739 L687.593 219.739 Z" fill="#000000" fill-rule="nonzero" fill-opacity="1" /><path clip-path="url(#clip540)" d="M715 214.484 L718.704 214.484 Q722.176 219.947 723.889 225.179 Q725.625 230.41 725.625 235.572 Q725.625 240.757 723.889 246.012 Q722.176 251.266 718.704 256.706 L715 256.706 Q718.079 251.405 719.583 246.174 Q721.111 240.919 721.111 235.572 Q721.111 230.225 719.583 225.017 Q718.079 219.808 715 214.484 Z" fill="#000000" fill-rule="nonzero" fill-opacity="1" /><polyline clip-path="url(#clip540)" style="stroke:#0000ff; stroke-linecap:round; stroke-linejoin:round; stroke-width:4; stroke-opacity:1; fill:none" points="348.188,285.016 508.135,285.016 "/>
<path clip-path="url(#clip540)" d="M562.663 270.398 L562.663 275.329 Q560.302 273.13 557.616 272.042 Q554.954 270.954 551.945 270.954 Q546.019 270.954 542.871 274.588 Q539.723 278.199 539.723 285.051 Q539.723 291.88 542.871 295.514 Q546.019 299.125 551.945 299.125 Q554.954 299.125 557.616 298.037 Q560.302 296.949 562.663 294.75 L562.663 299.634 Q560.209 301.301 557.454 302.134 Q554.723 302.968 551.667 302.968 Q543.82 302.968 539.306 298.176 Q534.793 293.361 534.793 285.051 Q534.793 276.718 539.306 271.926 Q543.82 267.111 551.667 267.111 Q554.769 267.111 557.501 267.945 Q560.255 268.755 562.663 270.398 Z" fill="#000000" fill-rule="nonzero" fill-opacity="1" /><path clip-path="url(#clip540)" d="M591.251 286.648 L591.251 302.296 L586.991 302.296 L586.991 286.787 Q586.991 283.107 585.556 281.278 Q584.121 279.449 581.251 279.449 Q577.802 279.449 575.811 281.648 Q573.82 283.847 573.82 287.644 L573.82 302.296 L569.538 302.296 L569.538 266.278 L573.82 266.278 L573.82 280.398 Q575.348 278.06 577.408 276.903 Q579.491 275.746 582.2 275.746 Q586.667 275.746 588.959 278.523 Q591.251 281.278 591.251 286.648 Z" fill="#000000" fill-rule="nonzero" fill-opacity="1" /><path clip-path="url(#clip540)" d="M599.746 266.278 L604.005 266.278 L604.005 302.296 L599.746 302.296 L599.746 266.278 Z" fill="#000000" fill-rule="nonzero" fill-opacity="1" /><path clip-path="url(#clip540)" d="M624.699 289.264 Q619.537 289.264 617.547 290.444 Q615.556 291.625 615.556 294.472 Q615.556 296.741 617.037 298.083 Q618.542 299.403 621.112 299.403 Q624.653 299.403 626.783 296.903 Q628.936 294.38 628.936 290.213 L628.936 289.264 L624.699 289.264 M633.195 287.505 L633.195 302.296 L628.936 302.296 L628.936 298.361 Q627.477 300.722 625.301 301.856 Q623.125 302.968 619.977 302.968 Q615.996 302.968 613.635 300.745 Q611.297 298.5 611.297 294.75 Q611.297 290.375 614.213 288.153 Q617.153 285.931 622.963 285.931 L628.936 285.931 L628.936 285.514 Q628.936 282.574 626.991 280.977 Q625.07 279.357 621.574 279.357 Q619.352 279.357 617.246 279.889 Q615.139 280.421 613.195 281.486 L613.195 277.551 Q615.533 276.648 617.732 276.208 Q619.931 275.746 622.014 275.746 Q627.639 275.746 630.417 278.662 Q633.195 281.579 633.195 287.505 Z" fill="#000000" fill-rule="nonzero" fill-opacity="1" /><path clip-path="url(#clip540)" d="M662.153 281.347 Q663.75 278.477 665.972 277.111 Q668.195 275.746 671.204 275.746 Q675.255 275.746 677.454 278.593 Q679.653 281.417 679.653 286.648 L679.653 302.296 L675.37 302.296 L675.37 286.787 Q675.37 283.06 674.051 281.255 Q672.732 279.449 670.023 279.449 Q666.713 279.449 664.792 281.648 Q662.871 283.847 662.871 287.644 L662.871 302.296 L658.588 302.296 L658.588 286.787 Q658.588 283.037 657.269 281.255 Q655.949 279.449 653.195 279.449 Q649.931 279.449 648.01 281.671 Q646.088 283.87 646.088 287.644 L646.088 302.296 L641.806 302.296 L641.806 276.371 L646.088 276.371 L646.088 280.398 Q647.547 278.014 649.584 276.88 Q651.621 275.746 654.422 275.746 Q657.246 275.746 659.213 277.181 Q661.204 278.616 662.153 281.347 Z" fill="#000000" fill-rule="nonzero" fill-opacity="1" /><path clip-path="url(#clip540)" d="M698.935 304.704 Q697.13 309.333 695.417 310.745 Q693.704 312.157 690.833 312.157 L687.431 312.157 L687.431 308.593 L689.931 308.593 Q691.69 308.593 692.662 307.759 Q693.634 306.926 694.815 303.824 L695.579 301.88 L685.093 276.371 L689.607 276.371 L697.708 296.648 L705.81 276.371 L710.324 276.371 L698.935 304.704 Z" fill="#000000" fill-rule="nonzero" fill-opacity="1" /><path clip-path="url(#clip540)" d="M733.264 280.306 L733.264 266.278 L737.523 266.278 L737.523 302.296 L733.264 302.296 L733.264 298.407 Q731.921 300.722 729.861 301.856 Q727.824 302.968 724.954 302.968 Q720.255 302.968 717.292 299.218 Q714.352 295.468 714.352 289.357 Q714.352 283.245 717.292 279.495 Q720.255 275.746 724.954 275.746 Q727.824 275.746 729.861 276.88 Q731.921 277.991 733.264 280.306 M718.75 289.357 Q718.75 294.056 720.671 296.741 Q722.616 299.403 725.995 299.403 Q729.375 299.403 731.319 296.741 Q733.264 294.056 733.264 289.357 Q733.264 284.657 731.319 281.995 Q729.375 279.31 725.995 279.31 Q722.616 279.31 720.671 281.995 Q718.75 284.657 718.75 289.357 Z" fill="#000000" fill-rule="nonzero" fill-opacity="1" /><path clip-path="url(#clip540)" d="M746.296 276.371 L750.555 276.371 L750.555 302.296 L746.296 302.296 L746.296 276.371 M746.296 266.278 L750.555 266.278 L750.555 271.671 L746.296 271.671 L746.296 266.278 Z" fill="#000000" fill-rule="nonzero" fill-opacity="1" /><path clip-path="url(#clip540)" d="M771.25 289.264 Q766.088 289.264 764.097 290.444 Q762.106 291.625 762.106 294.472 Q762.106 296.741 763.588 298.083 Q765.092 299.403 767.662 299.403 Q771.203 299.403 773.333 296.903 Q775.486 294.38 775.486 290.213 L775.486 289.264 L771.25 289.264 M779.745 287.505 L779.745 302.296 L775.486 302.296 L775.486 298.361 Q774.027 300.722 771.851 301.856 Q769.676 302.968 766.527 302.968 Q762.546 302.968 760.185 300.745 Q757.847 298.5 757.847 294.75 Q757.847 290.375 760.764 288.153 Q763.703 285.931 769.514 285.931 L775.486 285.931 L775.486 285.514 Q775.486 282.574 773.541 280.977 Q771.62 279.357 768.125 279.357 Q765.902 279.357 763.796 279.889 Q761.689 280.421 759.745 281.486 L759.745 277.551 Q762.083 276.648 764.282 276.208 Q766.481 275.746 768.564 275.746 Q774.189 275.746 776.967 278.662 Q779.745 281.579 779.745 287.505 Z" fill="#000000" fill-rule="nonzero" fill-opacity="1" /><path clip-path="url(#clip540)" d="M813.819 266.324 Q810.717 271.648 809.212 276.857 Q807.708 282.065 807.708 287.412 Q807.708 292.759 809.212 298.014 Q810.74 303.245 813.819 308.546 L810.115 308.546 Q806.643 303.106 804.907 297.852 Q803.194 292.597 803.194 287.412 Q803.194 282.25 804.907 277.019 Q806.62 271.787 810.115 266.324 L813.819 266.324 Z" fill="#000000" fill-rule="nonzero" fill-opacity="1" /><path clip-path="url(#clip540)" d="M842.985 268.871 L842.985 273.431 Q840.323 272.158 837.962 271.533 Q835.601 270.908 833.402 270.908 Q829.583 270.908 827.499 272.389 Q825.439 273.871 825.439 276.602 Q825.439 278.894 826.805 280.074 Q828.194 281.232 832.036 281.949 L834.86 282.528 Q840.092 283.523 842.569 286.046 Q845.069 288.546 845.069 292.759 Q845.069 297.782 841.689 300.375 Q838.333 302.968 831.828 302.968 Q829.374 302.968 826.597 302.412 Q823.842 301.856 820.879 300.769 L820.879 295.954 Q823.726 297.551 826.458 298.361 Q829.189 299.171 831.828 299.171 Q835.833 299.171 838.009 297.597 Q840.184 296.023 840.184 293.107 Q840.184 290.56 838.61 289.125 Q837.059 287.69 833.495 286.972 L830.647 286.417 Q825.416 285.375 823.078 283.153 Q820.74 280.931 820.74 276.972 Q820.74 272.389 823.958 269.75 Q827.198 267.111 832.87 267.111 Q835.3 267.111 837.823 267.551 Q840.346 267.991 842.985 268.871 Z" fill="#000000" fill-rule="nonzero" fill-opacity="1" /><path clip-path="url(#clip540)" d="M852.36 267.736 L857.036 267.736 L857.036 302.296 L852.36 302.296 L852.36 267.736 Z" fill="#000000" fill-rule="nonzero" fill-opacity="1" /><path clip-path="url(#clip540)" d="M887.059 268.871 L887.059 273.431 Q884.397 272.158 882.036 271.533 Q879.675 270.908 877.476 270.908 Q873.656 270.908 871.573 272.389 Q869.513 273.871 869.513 276.602 Q869.513 278.894 870.879 280.074 Q872.268 281.232 876.11 281.949 L878.934 282.528 Q884.166 283.523 886.643 286.046 Q889.142 288.546 889.142 292.759 Q889.142 297.782 885.763 300.375 Q882.406 302.968 875.902 302.968 Q873.448 302.968 870.67 302.412 Q867.916 301.856 864.953 300.769 L864.953 295.954 Q867.8 297.551 870.531 298.361 Q873.263 299.171 875.902 299.171 Q879.906 299.171 882.082 297.597 Q884.258 296.023 884.258 293.107 Q884.258 290.56 882.684 289.125 Q881.133 287.69 877.568 286.972 L874.721 286.417 Q869.49 285.375 867.152 283.153 Q864.814 280.931 864.814 276.972 Q864.814 272.389 868.031 269.75 Q871.272 267.111 876.943 267.111 Q879.374 267.111 881.897 267.551 Q884.42 267.991 887.059 268.871 Z" fill="#000000" fill-rule="nonzero" fill-opacity="1" /><path clip-path="url(#clip540)" d="M895.578 266.324 L899.281 266.324 Q902.754 271.787 904.466 277.019 Q906.203 282.25 906.203 287.412 Q906.203 292.597 904.466 297.852 Q902.754 303.106 899.281 308.546 L895.578 308.546 Q898.656 303.245 900.161 298.014 Q901.689 292.759 901.689 287.412 Q901.689 282.065 900.161 276.857 Q898.656 271.648 895.578 266.324 Z" fill="#000000" fill-rule="nonzero" fill-opacity="1" /></svg>
