<?xml version="1.0" encoding="utf-8"?>
<svg xmlns="http://www.w3.org/2000/svg" xmlns:xlink="http://www.w3.org/1999/xlink" width="672" height="480" viewBox="0 0 2688 1920">
<defs>
  <clipPath id="clip950">
    <rect x="0" y="0" width="2688" height="1920"/>
  </clipPath>
</defs>
<path clip-path="url(#clip950)" d="M0 1920 L2688 1920 L2688 -4.26326e-14 L0 -4.26326e-14  Z" fill="#ffffff" fill-rule="evenodd" fill-opacity="1"/>
<defs>
  <clipPath id="clip951">
    <rect x="238" y="127" width="2403" height="1607"/>
  </clipPath>
</defs>
<path clip-path="url(#clip950)" d="M238.664 1734.12 L2640.76 1734.12 L2640.76 127.792 L238.664 127.792  Z" fill="#ffffff" fill-rule="evenodd" fill-opacity="1"/>
<polyline clip-path="url(#clip951)" style="stroke:#000000; stroke-linecap:round; stroke-linejoin:round; stroke-width:2; stroke-opacity:0.1; fill:none" points="306.647,1734.12 306.647,127.792 "/>
<polyline clip-path="url(#clip951)" style="stroke:#000000; stroke-linecap:round; stroke-linejoin:round; stroke-width:2; stroke-opacity:0.1; fill:none" points="1062.02,1734.12 1062.02,127.792 "/>
<polyline clip-path="url(#clip951)" style="stroke:#000000; stroke-linecap:round; stroke-linejoin:round; stroke-width:2; stroke-opacity:0.1; fill:none" points="1817.4,1734.12 1817.4,127.792 "/>
<polyline clip-path="url(#clip951)" style="stroke:#000000; stroke-linecap:round; stroke-linejoin:round; stroke-width:2; stroke-opacity:0.1; fill:none" points="2572.77,1734.12 2572.77,127.792 "/>
<polyline clip-path="url(#clip951)" style="stroke:#000000; stroke-linecap:round; stroke-linejoin:round; stroke-width:2; stroke-opacity:0.1; fill:none" points="238.664,1688.65 2640.76,1688.65 "/>
<polyline clip-path="url(#clip951)" style="stroke:#000000; stroke-linecap:round; stroke-linejoin:round; stroke-width:2; stroke-opacity:0.1; fill:none" points="238.664,1374.6 2640.76,1374.6 "/>
<polyline clip-path="url(#clip951)" style="stroke:#000000; stroke-linecap:round; stroke-linejoin:round; stroke-width:2; stroke-opacity:0.1; fill:none" points="238.664,1060.55 2640.76,1060.55 "/>
<polyline clip-path="url(#clip951)" style="stroke:#000000; stroke-linecap:round; stroke-linejoin:round; stroke-width:2; stroke-opacity:0.1; fill:none" points="238.664,746.498 2640.76,746.498 "/>
<polyline clip-path="url(#clip951)" style="stroke:#000000; stroke-linecap:round; stroke-linejoin:round; stroke-width:2; stroke-opacity:0.1; fill:none" points="238.664,432.445 2640.76,432.445 "/>
<polyline clip-path="url(#clip950)" style="stroke:#000000; stroke-linecap:round; stroke-linejoin:round; stroke-width:4; stroke-opacity:1; fill:none" points="238.664,1734.12 2640.76,1734.12 "/>
<polyline clip-path="url(#clip950)" style="stroke:#000000; stroke-linecap:round; stroke-linejoin:round; stroke-width:4; stroke-opacity:1; fill:none" points="306.647,1734.12 306.647,1715.22 "/>
<polyline clip-path="url(#clip950)" style="stroke:#000000; stroke-linecap:round; stroke-linejoin:round; stroke-width:4; stroke-opacity:1; fill:none" points="1062.02,1734.12 1062.02,1715.22 "/>
<polyline clip-path="url(#clip950)" style="stroke:#000000; stroke-linecap:round; stroke-linejoin:round; stroke-width:4; stroke-opacity:1; fill:none" points="1817.4,1734.12 1817.4,1715.22 "/>
<polyline clip-path="url(#clip950)" style="stroke:#000000; stroke-linecap:round; stroke-linejoin:round; stroke-width:4; stroke-opacity:1; fill:none" points="2572.77,1734.12 2572.77,1715.22 "/>
<path clip-path="url(#clip950)" d="M306.647 1767.34 Q303.036 1767.34 301.208 1770.9 Q299.402 1774.45 299.402 1781.58 Q299.402 1788.68 301.208 1792.25 Q303.036 1795.79 306.647 1795.79 Q310.282 1795.79 312.087 1792.25 Q313.916 1788.68 313.916 1781.58 Q313.916 1774.45 312.087 1770.9 Q310.282 1767.34 306.647 1767.34 M306.647 1763.64 Q312.458 1763.64 315.513 1768.24 Q318.592 1772.83 318.592 1781.58 Q318.592 1790.3 315.513 1794.91 Q312.458 1799.49 306.647 1799.49 Q300.837 1799.49 297.759 1794.91 Q294.703 1790.3 294.703 1781.58 Q294.703 1772.83 297.759 1768.24 Q300.837 1763.64 306.647 1763.64 Z" fill="#000000" fill-rule="nonzero" fill-opacity="1" /><path clip-path="url(#clip950)" d="M1052.4 1794.89 L1060.04 1794.89 L1060.04 1768.52 L1051.73 1770.19 L1051.73 1765.93 L1060 1764.26 L1064.67 1764.26 L1064.67 1794.89 L1072.31 1794.89 L1072.31 1798.82 L1052.4 1798.82 L1052.4 1794.89 Z" fill="#000000" fill-rule="nonzero" fill-opacity="1" /><path clip-path="url(#clip950)" d="M1812.05 1794.89 L1828.37 1794.89 L1828.37 1798.82 L1806.43 1798.82 L1806.43 1794.89 Q1809.09 1792.13 1813.67 1787.5 Q1818.28 1782.85 1819.46 1781.51 Q1821.7 1778.98 1822.58 1777.25 Q1823.49 1775.49 1823.49 1773.8 Q1823.49 1771.04 1821.54 1769.31 Q1819.62 1767.57 1816.52 1767.57 Q1814.32 1767.57 1811.86 1768.34 Q1809.43 1769.1 1806.66 1770.65 L1806.66 1765.93 Q1809.48 1764.79 1811.93 1764.21 Q1814.39 1763.64 1816.43 1763.64 Q1821.8 1763.64 1824.99 1766.32 Q1828.18 1769.01 1828.18 1773.5 Q1828.18 1775.63 1827.37 1777.55 Q1826.59 1779.45 1824.48 1782.04 Q1823.9 1782.71 1820.8 1785.93 Q1817.7 1789.12 1812.05 1794.89 Z" fill="#000000" fill-rule="nonzero" fill-opacity="1" /><path clip-path="url(#clip950)" d="M2577.02 1780.19 Q2580.38 1780.9 2582.25 1783.17 Q2584.15 1785.44 2584.15 1788.77 Q2584.15 1793.89 2580.63 1796.69 Q2577.11 1799.49 2570.63 1799.49 Q2568.46 1799.49 2566.14 1799.05 Q2563.85 1798.64 2561.39 1797.78 L2561.39 1793.27 Q2563.34 1794.4 2565.65 1794.98 Q2567.97 1795.56 2570.49 1795.56 Q2574.89 1795.56 2577.18 1793.82 Q2579.5 1792.08 2579.5 1788.77 Q2579.5 1785.72 2577.34 1784.01 Q2575.21 1782.27 2571.39 1782.27 L2567.37 1782.27 L2567.37 1778.43 L2571.58 1778.43 Q2575.03 1778.43 2576.86 1777.06 Q2578.69 1775.67 2578.69 1773.08 Q2578.69 1770.42 2576.79 1769.01 Q2574.91 1767.57 2571.39 1767.57 Q2569.47 1767.57 2567.27 1767.99 Q2565.08 1768.4 2562.44 1769.28 L2562.44 1765.12 Q2565.1 1764.38 2567.41 1764.01 Q2569.75 1763.64 2571.81 1763.64 Q2577.14 1763.64 2580.24 1766.07 Q2583.34 1768.47 2583.34 1772.59 Q2583.34 1775.46 2581.7 1777.46 Q2580.05 1779.42 2577.02 1780.19 Z" fill="#000000" fill-rule="nonzero" fill-opacity="1" /><path clip-path="url(#clip950)" d="M1370.64 1835.78 L1377.55 1835.78 L1390.73 1855.32 L1403.81 1835.78 L1410.71 1835.78 L1393.91 1860.67 L1393.91 1883.3 L1387.45 1883.3 L1387.45 1860.67 L1370.64 1835.78 Z" fill="#000000" fill-rule="nonzero" fill-opacity="1" /><path clip-path="url(#clip950)" d="M1438.56 1864.01 L1438.56 1866.88 L1411.64 1866.88 Q1412.02 1872.92 1415.27 1876.11 Q1418.54 1879.26 1424.37 1879.26 Q1427.74 1879.26 1430.89 1878.43 Q1434.08 1877.6 1437.2 1875.95 L1437.2 1881.49 Q1434.04 1882.82 1430.73 1883.52 Q1427.42 1884.22 1424.02 1884.22 Q1415.49 1884.22 1410.49 1879.26 Q1405.53 1874.29 1405.53 1865.83 Q1405.53 1857.07 1410.24 1851.95 Q1414.98 1846.79 1423 1846.79 Q1430.19 1846.79 1434.36 1851.44 Q1438.56 1856.06 1438.56 1864.01 M1432.71 1862.29 Q1432.64 1857.49 1430 1854.62 Q1427.39 1851.76 1423.06 1851.76 Q1418.16 1851.76 1415.2 1854.53 Q1412.27 1857.3 1411.83 1862.33 L1432.71 1862.29 Z" fill="#000000" fill-rule="nonzero" fill-opacity="1" /><path clip-path="url(#clip950)" d="M1464.38 1865.38 Q1457.28 1865.38 1454.54 1867 Q1451.8 1868.63 1451.8 1872.54 Q1451.8 1875.66 1453.84 1877.51 Q1455.91 1879.32 1459.44 1879.32 Q1464.31 1879.32 1467.24 1875.88 Q1470.2 1872.42 1470.2 1866.69 L1470.2 1865.38 L1464.38 1865.38 M1476.06 1862.96 L1476.06 1883.3 L1470.2 1883.3 L1470.2 1877.89 Q1468.2 1881.14 1465.2 1882.7 Q1462.21 1884.22 1457.88 1884.22 Q1452.41 1884.22 1449.16 1881.17 Q1445.95 1878.08 1445.95 1872.92 Q1445.95 1866.91 1449.96 1863.85 Q1454 1860.8 1461.99 1860.8 L1470.2 1860.8 L1470.2 1860.23 Q1470.2 1856.18 1467.53 1853.99 Q1464.89 1851.76 1460.08 1851.76 Q1457.02 1851.76 1454.13 1852.49 Q1451.23 1853.22 1448.56 1854.69 L1448.56 1849.28 Q1451.77 1848.03 1454.8 1847.43 Q1457.82 1846.79 1460.68 1846.79 Q1468.42 1846.79 1472.24 1850.8 Q1476.06 1854.81 1476.06 1862.96 Z" fill="#000000" fill-rule="nonzero" fill-opacity="1" /><path clip-path="url(#clip950)" d="M1508.78 1853.13 Q1507.79 1852.55 1506.61 1852.3 Q1505.47 1852.01 1504.07 1852.01 Q1499.1 1852.01 1496.43 1855.26 Q1493.79 1858.47 1493.79 1864.52 L1493.79 1883.3 L1487.9 1883.3 L1487.9 1847.65 L1493.79 1847.65 L1493.79 1853.19 Q1495.63 1849.94 1498.59 1848.39 Q1501.55 1846.79 1505.79 1846.79 Q1506.39 1846.79 1507.12 1846.89 Q1507.85 1846.95 1508.75 1847.11 L1508.78 1853.13 Z" fill="#000000" fill-rule="nonzero" fill-opacity="1" /><polyline clip-path="url(#clip950)" style="stroke:#000000; stroke-linecap:round; stroke-linejoin:round; stroke-width:4; stroke-opacity:1; fill:none" points="238.664,1734.12 238.664,127.792 "/>
<polyline clip-path="url(#clip950)" style="stroke:#000000; stroke-linecap:round; stroke-linejoin:round; stroke-width:4; stroke-opacity:1; fill:none" points="238.664,1688.65 257.561,1688.65 "/>
<polyline clip-path="url(#clip950)" style="stroke:#000000; stroke-linecap:round; stroke-linejoin:round; stroke-width:4; stroke-opacity:1; fill:none" points="238.664,1374.6 257.561,1374.6 "/>
<polyline clip-path="url(#clip950)" style="stroke:#000000; stroke-linecap:round; stroke-linejoin:round; stroke-width:4; stroke-opacity:1; fill:none" points="238.664,1060.55 257.561,1060.55 "/>
<polyline clip-path="url(#clip950)" style="stroke:#000000; stroke-linecap:round; stroke-linejoin:round; stroke-width:4; stroke-opacity:1; fill:none" points="238.664,746.498 257.561,746.498 "/>
<polyline clip-path="url(#clip950)" style="stroke:#000000; stroke-linecap:round; stroke-linejoin:round; stroke-width:4; stroke-opacity:1; fill:none" points="238.664,432.445 257.561,432.445 "/>
<path clip-path="url(#clip950)" d="M186.399 1674.45 Q182.788 1674.45 180.959 1678.02 Q179.154 1681.56 179.154 1688.69 Q179.154 1695.8 180.959 1699.36 Q182.788 1702.9 186.399 1702.9 Q190.033 1702.9 191.839 1699.36 Q193.668 1695.8 193.668 1688.69 Q193.668 1681.56 191.839 1678.02 Q190.033 1674.45 186.399 1674.45 M186.399 1670.75 Q192.209 1670.75 195.265 1675.36 Q198.344 1679.94 198.344 1688.69 Q198.344 1697.42 195.265 1702.02 Q192.209 1706.61 186.399 1706.61 Q180.589 1706.61 177.51 1702.02 Q174.455 1697.42 174.455 1688.69 Q174.455 1679.94 177.51 1675.36 Q180.589 1670.75 186.399 1670.75 Z" fill="#000000" fill-rule="nonzero" fill-opacity="1" /><path clip-path="url(#clip950)" d="M160.404 1373.25 Q163.76 1373.97 165.635 1376.23 Q167.534 1378.5 167.534 1381.84 Q167.534 1386.95 164.015 1389.75 Q160.497 1392.55 154.015 1392.55 Q151.839 1392.55 149.524 1392.11 Q147.233 1391.7 144.779 1390.84 L144.779 1386.33 Q146.724 1387.46 149.038 1388.04 Q151.353 1388.62 153.876 1388.62 Q158.274 1388.62 160.566 1386.88 Q162.881 1385.15 162.881 1381.84 Q162.881 1378.78 160.728 1377.07 Q158.598 1375.33 154.779 1375.33 L150.751 1375.33 L150.751 1371.49 L154.964 1371.49 Q158.413 1371.49 160.242 1370.12 Q162.071 1368.73 162.071 1366.14 Q162.071 1363.48 160.173 1362.07 Q158.298 1360.63 154.779 1360.63 Q152.858 1360.63 150.659 1361.05 Q148.46 1361.47 145.821 1362.35 L145.821 1358.18 Q148.483 1357.44 150.798 1357.07 Q153.136 1356.7 155.196 1356.7 Q160.52 1356.7 163.622 1359.13 Q166.723 1361.54 166.723 1365.66 Q166.723 1368.53 165.08 1370.52 Q163.436 1372.48 160.404 1373.25 Z" fill="#000000" fill-rule="nonzero" fill-opacity="1" /><path clip-path="url(#clip950)" d="M186.399 1360.4 Q182.788 1360.4 180.959 1363.97 Q179.154 1367.51 179.154 1374.64 Q179.154 1381.74 180.959 1385.31 Q182.788 1388.85 186.399 1388.85 Q190.033 1388.85 191.839 1385.31 Q193.668 1381.74 193.668 1374.64 Q193.668 1367.51 191.839 1363.97 Q190.033 1360.4 186.399 1360.4 M186.399 1356.7 Q192.209 1356.7 195.265 1361.3 Q198.344 1365.89 198.344 1374.64 Q198.344 1383.36 195.265 1387.97 Q192.209 1392.55 186.399 1392.55 Q180.589 1392.55 177.51 1387.97 Q174.455 1383.36 174.455 1374.64 Q174.455 1365.89 177.51 1361.3 Q180.589 1356.7 186.399 1356.7 Z" fill="#000000" fill-rule="nonzero" fill-opacity="1" /><path clip-path="url(#clip950)" d="M156.816 1058.69 Q153.668 1058.69 151.816 1060.84 Q149.987 1062.99 149.987 1066.74 Q149.987 1070.47 151.816 1072.64 Q153.668 1074.8 156.816 1074.8 Q159.964 1074.8 161.793 1072.64 Q163.645 1070.47 163.645 1066.74 Q163.645 1062.99 161.793 1060.84 Q159.964 1058.69 156.816 1058.69 M166.098 1044.03 L166.098 1048.29 Q164.339 1047.46 162.534 1047.02 Q160.751 1046.58 158.992 1046.58 Q154.362 1046.58 151.909 1049.71 Q149.478 1052.83 149.131 1059.15 Q150.497 1057.14 152.557 1056.07 Q154.617 1054.98 157.094 1054.98 Q162.302 1054.98 165.311 1058.15 Q168.344 1061.3 168.344 1066.74 Q168.344 1072.07 165.196 1075.28 Q162.048 1078.5 156.816 1078.5 Q150.821 1078.5 147.649 1073.92 Q144.478 1069.31 144.478 1060.58 Q144.478 1052.39 148.367 1047.53 Q152.256 1042.64 158.807 1042.64 Q160.566 1042.64 162.348 1042.99 Q164.154 1043.34 166.098 1044.03 Z" fill="#000000" fill-rule="nonzero" fill-opacity="1" /><path clip-path="url(#clip950)" d="M186.399 1046.35 Q182.788 1046.35 180.959 1049.91 Q179.154 1053.46 179.154 1060.58 Q179.154 1067.69 180.959 1071.26 Q182.788 1074.8 186.399 1074.8 Q190.033 1074.8 191.839 1071.26 Q193.668 1067.69 193.668 1060.58 Q193.668 1053.46 191.839 1049.91 Q190.033 1046.35 186.399 1046.35 M186.399 1042.64 Q192.209 1042.64 195.265 1047.25 Q198.344 1051.83 198.344 1060.58 Q198.344 1069.31 195.265 1073.92 Q192.209 1078.5 186.399 1078.5 Q180.589 1078.5 177.51 1073.92 Q174.455 1069.31 174.455 1060.58 Q174.455 1051.83 177.51 1047.25 Q180.589 1042.64 186.399 1042.64 Z" fill="#000000" fill-rule="nonzero" fill-opacity="1" /><path clip-path="url(#clip950)" d="M146.376 763.06 L146.376 758.801 Q148.136 759.634 149.941 760.074 Q151.747 760.514 153.483 760.514 Q158.112 760.514 160.543 757.412 Q162.997 754.287 163.344 747.944 Q162.001 749.935 159.941 751 Q157.881 752.065 155.381 752.065 Q150.196 752.065 147.163 748.94 Q144.154 745.791 144.154 740.352 Q144.154 735.028 147.302 731.81 Q150.45 728.593 155.682 728.593 Q161.677 728.593 164.825 733.199 Q167.997 737.782 167.997 746.532 Q167.997 754.703 164.108 759.588 Q160.242 764.449 153.691 764.449 Q151.932 764.449 150.126 764.102 Q148.321 763.754 146.376 763.06 M155.682 748.407 Q158.83 748.407 160.659 746.254 Q162.51 744.102 162.51 740.352 Q162.51 736.625 160.659 734.472 Q158.83 732.296 155.682 732.296 Q152.534 732.296 150.682 734.472 Q148.853 736.625 148.853 740.352 Q148.853 744.102 150.682 746.254 Q152.534 748.407 155.682 748.407 Z" fill="#000000" fill-rule="nonzero" fill-opacity="1" /><path clip-path="url(#clip950)" d="M186.399 732.296 Q182.788 732.296 180.959 735.861 Q179.154 739.403 179.154 746.532 Q179.154 753.639 180.959 757.203 Q182.788 760.745 186.399 760.745 Q190.033 760.745 191.839 757.203 Q193.668 753.639 193.668 746.532 Q193.668 739.403 191.839 735.861 Q190.033 732.296 186.399 732.296 M186.399 728.593 Q192.209 728.593 195.265 733.199 Q198.344 737.782 198.344 746.532 Q198.344 755.259 195.265 759.865 Q192.209 764.449 186.399 764.449 Q180.589 764.449 177.51 759.865 Q174.455 755.259 174.455 746.532 Q174.455 737.782 177.51 733.199 Q180.589 728.593 186.399 728.593 Z" fill="#000000" fill-rule="nonzero" fill-opacity="1" /><path clip-path="url(#clip950)" d="M116.886 445.79 L124.525 445.79 L124.525 419.424 L116.214 421.091 L116.214 416.832 L124.478 415.165 L129.154 415.165 L129.154 445.79 L136.793 445.79 L136.793 449.725 L116.886 449.725 L116.886 445.79 Z" fill="#000000" fill-rule="nonzero" fill-opacity="1" /><path clip-path="url(#clip950)" d="M150.265 445.79 L166.585 445.79 L166.585 449.725 L144.64 449.725 L144.64 445.79 Q147.302 443.035 151.886 438.406 Q156.492 433.753 157.673 432.41 Q159.918 429.887 160.798 428.151 Q161.7 426.392 161.7 424.702 Q161.7 421.947 159.756 420.211 Q157.835 418.475 154.733 418.475 Q152.534 418.475 150.08 419.239 Q147.649 420.003 144.872 421.554 L144.872 416.832 Q147.696 415.697 150.149 415.119 Q152.603 414.54 154.64 414.54 Q160.011 414.54 163.205 417.225 Q166.399 419.91 166.399 424.401 Q166.399 426.531 165.589 428.452 Q164.802 430.35 162.696 432.943 Q162.117 433.614 159.015 436.832 Q155.913 440.026 150.265 445.79 Z" fill="#000000" fill-rule="nonzero" fill-opacity="1" /><path clip-path="url(#clip950)" d="M186.399 418.244 Q182.788 418.244 180.959 421.809 Q179.154 425.35 179.154 432.48 Q179.154 439.586 180.959 443.151 Q182.788 446.693 186.399 446.693 Q190.033 446.693 191.839 443.151 Q193.668 439.586 193.668 432.48 Q193.668 425.35 191.839 421.809 Q190.033 418.244 186.399 418.244 M186.399 414.54 Q192.209 414.54 195.265 419.146 Q198.344 423.73 198.344 432.48 Q198.344 441.207 195.265 445.813 Q192.209 450.396 186.399 450.396 Q180.589 450.396 177.51 445.813 Q174.455 441.207 174.455 432.48 Q174.455 423.73 177.51 419.146 Q180.589 414.54 186.399 414.54 Z" fill="#000000" fill-rule="nonzero" fill-opacity="1" /><path clip-path="url(#clip950)" d="M20.4523 1084.5 L44.1009 1093.22 L44.1009 1075.74 L20.4523 1084.5 M14.1184 1088.12 L14.1184 1080.84 L61.6384 1062.72 L61.6384 1069.41 L49.4481 1073.74 L49.4481 1095.16 L61.6384 1099.49 L61.6384 1106.27 L14.1184 1088.12 Z" fill="#000000" fill-rule="nonzero" fill-opacity="1" /><path clip-path="url(#clip950)" d="M40.1224 1026.41 L61.6384 1026.41 L61.6384 1032.26 L40.3133 1032.26 Q35.2526 1032.26 32.7381 1034.24 Q30.2237 1036.21 30.2237 1040.16 Q30.2237 1044.9 33.2474 1047.64 Q36.2711 1050.38 41.491 1050.38 L61.6384 1050.38 L61.6384 1056.26 L25.9905 1056.26 L25.9905 1050.38 L31.5287 1050.38 Q28.314 1048.27 26.7225 1045.44 Q25.1311 1042.58 25.1311 1038.85 Q25.1311 1032.71 28.9505 1029.56 Q32.7381 1026.41 40.1224 1026.41 Z" fill="#000000" fill-rule="nonzero" fill-opacity="1" /><path clip-path="url(#clip950)" d="M40.1224 985.095 L61.6384 985.095 L61.6384 990.951 L40.3133 990.951 Q35.2526 990.951 32.7381 992.925 Q30.2237 994.898 30.2237 998.845 Q30.2237 1003.59 33.2474 1006.32 Q36.2711 1009.06 41.491 1009.06 L61.6384 1009.06 L61.6384 1014.95 L25.9905 1014.95 L25.9905 1009.06 L31.5287 1009.06 Q28.314 1006.96 26.7225 1004.13 Q25.1311 1001.26 25.1311 997.54 Q25.1311 991.397 28.9505 988.246 Q32.7381 985.095 40.1224 985.095 Z" fill="#000000" fill-rule="nonzero" fill-opacity="1" /><path clip-path="url(#clip950)" d="M47.5702 974.019 L25.9905 974.019 L25.9905 968.162 L47.3474 968.162 Q52.4082 968.162 54.9545 966.189 Q57.4689 964.215 57.4689 960.269 Q57.4689 955.526 54.4452 952.789 Q51.4215 950.02 46.2016 950.02 L25.9905 950.02 L25.9905 944.163 L61.6384 944.163 L61.6384 950.02 L56.1639 950.02 Q59.4104 952.152 61.0019 954.985 Q62.5615 957.786 62.5615 961.51 Q62.5615 967.653 58.742 970.836 Q54.9226 974.019 47.5702 974.019 M25.1311 959.282 L25.1311 959.282 Z" fill="#000000" fill-rule="nonzero" fill-opacity="1" /><path clip-path="url(#clip950)" d="M43.719 915.9 Q43.719 922.997 45.3422 925.735 Q46.9655 928.472 50.8804 928.472 Q53.9996 928.472 55.8457 926.435 Q57.6599 924.366 57.6599 920.833 Q57.6599 915.963 54.2224 913.035 Q50.7531 910.075 45.0239 910.075 L43.719 910.075 L43.719 915.9 M41.3 904.219 L61.6384 904.219 L61.6384 910.075 L56.2276 910.075 Q59.4741 912.08 61.0337 915.072 Q62.5615 918.064 62.5615 922.393 Q62.5615 927.867 59.5059 931.114 Q56.4186 934.328 51.2623 934.328 Q45.2467 934.328 42.1912 930.318 Q39.1357 926.276 39.1357 918.287 L39.1357 910.075 L38.5628 910.075 Q34.5205 910.075 32.3244 912.749 Q30.0964 915.39 30.0964 920.197 Q30.0964 923.252 30.8284 926.148 Q31.5605 929.045 33.0246 931.718 L27.6137 931.718 Q26.3724 928.504 25.7677 925.48 Q25.1311 922.456 25.1311 919.592 Q25.1311 911.857 29.1415 908.038 Q33.1519 904.219 41.3 904.219 Z" fill="#000000" fill-rule="nonzero" fill-opacity="1" /><path clip-path="url(#clip950)" d="M12.1132 892.156 L12.1132 886.299 L61.6384 886.299 L61.6384 892.156 L12.1132 892.156 Z" fill="#000000" fill-rule="nonzero" fill-opacity="1" /><path clip-path="url(#clip950)" d="M14.1184 853.07 L14.1184 823.024 L19.5293 823.024 L19.5293 846.641 L33.5975 846.641 L33.5975 824.011 L39.0084 824.011 L39.0084 846.641 L56.2276 846.641 L56.2276 822.451 L61.6384 822.451 L61.6384 853.07 L14.1184 853.07 Z" fill="#000000" fill-rule="nonzero" fill-opacity="1" /><path clip-path="url(#clip950)" d="M14.1184 811.884 L14.1184 805.455 L61.6384 805.455 L61.6384 811.884 L14.1184 811.884 Z" fill="#000000" fill-rule="nonzero" fill-opacity="1" /><path clip-path="url(#clip950)" d="M39.3585 770.125 Q40.0587 768.056 42.3504 766.115 Q44.642 764.141 48.6524 762.168 L61.6384 755.643 L61.6384 762.55 L49.4481 768.629 Q44.6738 770.984 43.1142 773.212 Q41.5546 775.409 41.5546 779.228 L41.5546 786.23 L61.6384 786.23 L61.6384 792.66 L14.1184 792.66 L14.1184 778.146 Q14.1184 769.998 17.5241 765.987 Q20.9297 761.977 27.8047 761.977 Q32.2925 761.977 35.2526 764.078 Q38.2126 766.146 39.3585 770.125 M19.402 786.23 L36.2711 786.23 L36.2711 778.146 Q36.2711 773.499 34.1386 771.143 Q31.9743 768.756 27.8047 768.756 Q23.6352 768.756 21.5345 771.143 Q19.402 773.499 19.402 778.146 L19.402 786.23 Z" fill="#000000" fill-rule="nonzero" fill-opacity="1" /><path clip-path="url(#clip950)" d="M809.328 12.096 L817.511 12.096 L817.511 72.576 L809.328 72.576 L809.328 12.096 Z" fill="#000000" fill-rule="nonzero" fill-opacity="1" /><path clip-path="url(#clip950)" d="M868.796 35.9153 Q871.591 30.8922 875.48 28.5022 Q879.368 26.1121 884.635 26.1121 Q891.724 26.1121 895.572 31.0947 Q899.42 36.0368 899.42 45.1919 L899.42 72.576 L891.926 72.576 L891.926 45.4349 Q891.926 38.913 889.617 35.7533 Q887.308 32.5936 882.569 32.5936 Q876.776 32.5936 873.414 36.4419 Q870.051 40.2903 870.051 46.9338 L870.051 72.576 L862.557 72.576 L862.557 45.4349 Q862.557 38.8725 860.248 35.7533 Q857.939 32.5936 853.119 32.5936 Q847.407 32.5936 844.045 36.4824 Q840.682 40.3308 840.682 46.9338 L840.682 72.576 L833.188 72.576 L833.188 27.2059 L840.682 27.2059 L840.682 34.2544 Q843.234 30.082 846.799 28.0971 Q850.364 26.1121 855.266 26.1121 Q860.208 26.1121 863.651 28.6237 Q867.135 31.1352 868.796 35.9153 Z" fill="#000000" fill-rule="nonzero" fill-opacity="1" /><path clip-path="url(#clip950)" d="M921.498 65.7705 L921.498 89.8329 L914.004 89.8329 L914.004 27.2059 L921.498 27.2059 L921.498 34.0924 Q923.847 30.0415 927.412 28.0971 Q931.017 26.1121 936 26.1121 Q944.264 26.1121 949.409 32.6746 Q954.594 39.2371 954.594 49.9314 Q954.594 60.6258 949.409 67.1883 Q944.264 73.7508 936 73.7508 Q931.017 73.7508 927.412 71.8063 Q923.847 69.8214 921.498 65.7705 M946.857 49.9314 Q946.857 41.7081 943.454 37.0496 Q940.091 32.3505 934.177 32.3505 Q928.263 32.3505 924.86 37.0496 Q921.498 41.7081 921.498 49.9314 Q921.498 58.1548 924.86 62.8538 Q928.263 67.5124 934.177 67.5124 Q940.091 67.5124 943.454 62.8538 Q946.857 58.1548 946.857 49.9314 Z" fill="#000000" fill-rule="nonzero" fill-opacity="1" /><path clip-path="url(#clip950)" d="M987.568 49.7694 Q978.535 49.7694 975.051 51.8354 Q971.567 53.9013 971.567 58.8839 Q971.567 62.8538 974.16 65.2034 Q976.793 67.5124 981.289 67.5124 Q987.487 67.5124 991.214 63.1374 Q994.981 58.7219 994.981 51.4303 L994.981 49.7694 L987.568 49.7694 M1002.43 46.6907 L1002.43 72.576 L994.981 72.576 L994.981 65.6895 Q992.429 69.8214 988.621 71.8063 Q984.813 73.7508 979.304 73.7508 Q972.337 73.7508 968.205 69.8619 Q964.113 65.9325 964.113 59.3701 Q964.113 51.7138 969.217 47.825 Q974.362 43.9361 984.53 43.9361 L994.981 43.9361 L994.981 43.2069 Q994.981 38.0623 991.578 35.2672 Q988.216 32.4315 982.099 32.4315 Q978.211 32.4315 974.524 33.3632 Q970.838 34.295 967.435 36.1584 L967.435 29.2718 Q971.527 27.692 975.375 26.9223 Q979.223 26.1121 982.869 26.1121 Q992.713 26.1121 997.574 31.2163 Q1002.43 36.3204 1002.43 46.6907 Z" fill="#000000" fill-rule="nonzero" fill-opacity="1" /><path clip-path="url(#clip950)" d="M1050.44 28.9478 L1050.44 35.9153 Q1047.28 34.1734 1044.08 33.3227 Q1040.92 32.4315 1037.68 32.4315 Q1030.43 32.4315 1026.42 37.0496 Q1022.41 41.6271 1022.41 49.9314 Q1022.41 58.2358 1026.42 62.8538 Q1030.43 67.4314 1037.68 67.4314 Q1040.92 67.4314 1044.08 66.5807 Q1047.28 65.6895 1050.44 63.9476 L1050.44 70.8341 Q1047.32 72.2924 1043.96 73.0216 Q1040.63 73.7508 1036.87 73.7508 Q1026.62 73.7508 1020.58 67.3098 Q1014.55 60.8689 1014.55 49.9314 Q1014.55 38.832 1020.62 32.472 Q1026.74 26.1121 1037.35 26.1121 Q1040.8 26.1121 1044.08 26.8413 Q1047.36 27.5299 1050.44 28.9478 Z" fill="#000000" fill-rule="nonzero" fill-opacity="1" /><path clip-path="url(#clip950)" d="M1070.77 14.324 L1070.77 27.2059 L1086.13 27.2059 L1086.13 32.9987 L1070.77 32.9987 L1070.77 57.6282 Q1070.77 63.1779 1072.27 64.7578 Q1073.81 66.3376 1078.47 66.3376 L1086.13 66.3376 L1086.13 72.576 L1078.47 72.576 Q1069.84 72.576 1066.56 69.3758 Q1063.28 66.1351 1063.28 57.6282 L1063.28 32.9987 L1057.81 32.9987 L1057.81 27.2059 L1063.28 27.2059 L1063.28 14.324 L1070.77 14.324 Z" fill="#000000" fill-rule="nonzero" fill-opacity="1" /><path clip-path="url(#clip950)" d="M1139.88 32.4315 Q1133.89 32.4315 1130.4 37.1306 Q1126.92 41.7891 1126.92 49.9314 Q1126.92 58.0738 1130.36 62.7728 Q1133.85 67.4314 1139.88 67.4314 Q1145.84 67.4314 1149.32 62.7323 Q1152.8 58.0333 1152.8 49.9314 Q1152.8 41.8701 1149.32 37.1711 Q1145.84 32.4315 1139.88 32.4315 M1139.88 26.1121 Q1149.6 26.1121 1155.15 32.4315 Q1160.7 38.7509 1160.7 49.9314 Q1160.7 61.0714 1155.15 67.4314 Q1149.6 73.7508 1139.88 73.7508 Q1130.12 73.7508 1124.57 67.4314 Q1119.06 61.0714 1119.06 49.9314 Q1119.06 38.7509 1124.57 32.4315 Q1130.12 26.1121 1139.88 26.1121 Z" fill="#000000" fill-rule="nonzero" fill-opacity="1" /><path clip-path="url(#clip950)" d="M1196.03 9.54393 L1196.03 15.7418 L1188.9 15.7418 Q1184.89 15.7418 1183.31 17.3622 Q1181.77 18.9825 1181.77 23.1955 L1181.77 27.2059 L1194.04 27.2059 L1194.04 32.9987 L1181.77 32.9987 L1181.77 72.576 L1174.27 72.576 L1174.27 32.9987 L1167.14 32.9987 L1167.14 27.2059 L1174.27 27.2059 L1174.27 24.0462 Q1174.27 16.471 1177.8 13.0277 Q1181.32 9.54393 1188.98 9.54393 L1196.03 9.54393 Z" fill="#000000" fill-rule="nonzero" fill-opacity="1" /><path clip-path="url(#clip950)" d="M1228.96 12.096 L1237.14 12.096 L1237.14 72.576 L1228.96 72.576 L1228.96 12.096 Z" fill="#000000" fill-rule="nonzero" fill-opacity="1" /><path clip-path="url(#clip950)" d="M1245.04 12.096 L1296.21 12.096 L1296.21 18.9825 L1274.74 18.9825 L1274.74 72.576 L1266.51 72.576 L1266.51 18.9825 L1245.04 18.9825 L1245.04 12.096 Z" fill="#000000" fill-rule="nonzero" fill-opacity="1" /><path clip-path="url(#clip950)" d="M1304.11 12.096 L1315.12 12.096 L1341.94 62.6918 L1341.94 12.096 L1349.88 12.096 L1349.88 72.576 L1338.86 72.576 L1312.05 21.9802 L1312.05 72.576 L1304.11 72.576 L1304.11 12.096 Z" fill="#000000" fill-rule="nonzero" fill-opacity="1" /><path clip-path="url(#clip950)" d="M1437.83 16.7545 L1437.83 25.383 Q1433.69 21.5346 1429 19.6307 Q1424.34 17.7268 1419.07 17.7268 Q1408.7 17.7268 1403.19 24.0867 Q1397.68 30.4061 1397.68 42.3968 Q1397.68 54.3469 1403.19 60.7069 Q1408.7 67.0263 1419.07 67.0263 Q1424.34 67.0263 1429 65.1223 Q1433.69 63.2184 1437.83 59.3701 L1437.83 67.9175 Q1433.53 70.8341 1428.71 72.2924 Q1423.93 73.7508 1418.58 73.7508 Q1404.85 73.7508 1396.95 65.3654 Q1389.05 56.9395 1389.05 42.3968 Q1389.05 27.8135 1396.95 19.4281 Q1404.85 11.0023 1418.58 11.0023 Q1424.01 11.0023 1428.79 12.4606 Q1433.61 13.8784 1437.83 16.7545 Z" fill="#000000" fill-rule="nonzero" fill-opacity="1" /><path clip-path="url(#clip950)" d="M1467.72 32.4315 Q1461.73 32.4315 1458.24 37.1306 Q1454.76 41.7891 1454.76 49.9314 Q1454.76 58.0738 1458.2 62.7728 Q1461.69 67.4314 1467.72 67.4314 Q1473.68 67.4314 1477.16 62.7323 Q1480.64 58.0333 1480.64 49.9314 Q1480.64 41.8701 1477.16 37.1711 Q1473.68 32.4315 1467.72 32.4315 M1467.72 26.1121 Q1477.44 26.1121 1482.99 32.4315 Q1488.54 38.7509 1488.54 49.9314 Q1488.54 61.0714 1482.99 67.4314 Q1477.44 73.7508 1467.72 73.7508 Q1457.96 73.7508 1452.41 67.4314 Q1446.9 61.0714 1446.9 49.9314 Q1446.9 38.7509 1452.41 32.4315 Q1457.96 26.1121 1467.72 26.1121 Z" fill="#000000" fill-rule="nonzero" fill-opacity="1" /><path clip-path="url(#clip950)" d="M1495.55 27.2059 L1503.45 27.2059 L1517.63 65.2844 L1531.81 27.2059 L1539.71 27.2059 L1522.69 72.576 L1512.57 72.576 L1495.55 27.2059 Z" fill="#000000" fill-rule="nonzero" fill-opacity="1" /><path clip-path="url(#clip950)" d="M1588.8 48.0275 L1588.8 51.6733 L1554.53 51.6733 Q1555.02 59.3701 1559.15 63.421 Q1563.32 67.4314 1570.74 67.4314 Q1575.03 67.4314 1579.04 66.3781 Q1583.09 65.3249 1587.06 63.2184 L1587.06 70.267 Q1583.05 71.9684 1578.84 72.8596 Q1574.63 73.7508 1570.29 73.7508 Q1559.43 73.7508 1553.07 67.4314 Q1546.75 61.1119 1546.75 50.3365 Q1546.75 39.1965 1552.75 32.6746 Q1558.79 26.1121 1568.99 26.1121 Q1578.15 26.1121 1583.46 32.0264 Q1588.8 37.9003 1588.8 48.0275 M1581.35 45.84 Q1581.27 39.7232 1577.91 36.0774 Q1574.58 32.4315 1569.08 32.4315 Q1562.84 32.4315 1559.07 35.9558 Q1555.34 39.4801 1554.78 45.8805 L1581.35 45.84 Z" fill="#000000" fill-rule="nonzero" fill-opacity="1" /><path clip-path="url(#clip950)" d="M1627.33 34.1734 Q1626.07 33.4443 1624.57 33.1202 Q1623.11 32.7556 1621.33 32.7556 Q1615.01 32.7556 1611.61 36.8875 Q1608.25 40.9789 1608.25 48.6757 L1608.25 72.576 L1600.75 72.576 L1600.75 27.2059 L1608.25 27.2059 L1608.25 34.2544 Q1610.6 30.1225 1614.36 28.1376 Q1618.13 26.1121 1623.52 26.1121 Q1624.29 26.1121 1625.22 26.2337 Q1626.15 26.3147 1627.29 26.5172 L1627.33 34.1734 Z" fill="#000000" fill-rule="nonzero" fill-opacity="1" /><path clip-path="url(#clip950)" d="M1655.76 49.7694 Q1646.73 49.7694 1643.25 51.8354 Q1639.76 53.9013 1639.76 58.8839 Q1639.76 62.8538 1642.36 65.2034 Q1644.99 67.5124 1649.49 67.5124 Q1655.68 67.5124 1659.41 63.1374 Q1663.18 58.7219 1663.18 51.4303 L1663.18 49.7694 L1655.76 49.7694 M1670.63 46.6907 L1670.63 72.576 L1663.18 72.576 L1663.18 65.6895 Q1660.63 69.8214 1656.82 71.8063 Q1653.01 73.7508 1647.5 73.7508 Q1640.53 73.7508 1636.4 69.8619 Q1632.31 65.9325 1632.31 59.3701 Q1632.31 51.7138 1637.41 47.825 Q1642.56 43.9361 1652.73 43.9361 L1663.18 43.9361 L1663.18 43.2069 Q1663.18 38.0623 1659.78 35.2672 Q1656.41 32.4315 1650.3 32.4315 Q1646.41 32.4315 1642.72 33.3632 Q1639.03 34.295 1635.63 36.1584 L1635.63 29.2718 Q1639.72 27.692 1643.57 26.9223 Q1647.42 26.1121 1651.07 26.1121 Q1660.91 26.1121 1665.77 31.2163 Q1670.63 36.3204 1670.63 46.6907 Z" fill="#000000" fill-rule="nonzero" fill-opacity="1" /><path clip-path="url(#clip950)" d="M1715.84 49.3643 Q1715.84 41.2625 1712.48 36.8065 Q1709.16 32.3505 1703.12 32.3505 Q1697.12 32.3505 1693.76 36.8065 Q1690.44 41.2625 1690.44 49.3643 Q1690.44 57.4256 1693.76 61.8816 Q1697.12 66.3376 1703.12 66.3376 Q1709.16 66.3376 1712.48 61.8816 Q1715.84 57.4256 1715.84 49.3643 M1723.29 66.9452 Q1723.29 78.5308 1718.15 84.1616 Q1713 89.8329 1702.39 89.8329 Q1698.46 89.8329 1694.98 89.2252 Q1691.49 88.6581 1688.21 87.4428 L1688.21 80.1917 Q1691.49 81.9741 1694.69 82.8248 Q1697.89 83.6755 1701.22 83.6755 Q1708.55 83.6755 1712.19 79.8271 Q1715.84 76.0193 1715.84 68.282 L1715.84 64.5957 Q1713.53 68.6061 1709.93 70.5911 Q1706.32 72.576 1701.3 72.576 Q1692.95 72.576 1687.85 66.2161 Q1682.74 59.8562 1682.74 49.3643 Q1682.74 38.832 1687.85 32.472 Q1692.95 26.1121 1701.3 26.1121 Q1706.32 26.1121 1709.93 28.0971 Q1713.53 30.082 1715.84 34.0924 L1715.84 27.2059 L1723.29 27.2059 L1723.29 66.9452 Z" fill="#000000" fill-rule="nonzero" fill-opacity="1" /><path clip-path="url(#clip950)" d="M1777.45 48.0275 L1777.45 51.6733 L1743.18 51.6733 Q1743.67 59.3701 1747.8 63.421 Q1751.97 67.4314 1759.39 67.4314 Q1763.68 67.4314 1767.69 66.3781 Q1771.74 65.3249 1775.71 63.2184 L1775.71 70.267 Q1771.7 71.9684 1767.49 72.8596 Q1763.28 73.7508 1758.94 73.7508 Q1748.08 73.7508 1741.72 67.4314 Q1735.41 61.1119 1735.41 50.3365 Q1735.41 39.1965 1741.4 32.6746 Q1747.44 26.1121 1757.64 26.1121 Q1766.8 26.1121 1772.11 32.0264 Q1777.45 37.9003 1777.45 48.0275 M1770 45.84 Q1769.92 39.7232 1766.56 36.0774 Q1763.24 32.4315 1757.73 32.4315 Q1751.49 32.4315 1747.72 35.9558 Q1743.99 39.4801 1743.43 45.8805 L1770 45.84 Z" fill="#000000" fill-rule="nonzero" fill-opacity="1" /><path clip-path="url(#clip950)" d="M1833.64 32.4315 Q1827.64 32.4315 1824.16 37.1306 Q1820.68 41.7891 1820.68 49.9314 Q1820.68 58.0738 1824.12 62.7728 Q1827.6 67.4314 1833.64 67.4314 Q1839.59 67.4314 1843.08 62.7323 Q1846.56 58.0333 1846.56 49.9314 Q1846.56 41.8701 1843.08 37.1711 Q1839.59 32.4315 1833.64 32.4315 M1833.64 26.1121 Q1843.36 26.1121 1848.91 32.4315 Q1854.46 38.7509 1854.46 49.9314 Q1854.46 61.0714 1848.91 67.4314 Q1843.36 73.7508 1833.64 73.7508 Q1823.88 73.7508 1818.33 67.4314 Q1812.82 61.0714 1812.82 49.9314 Q1812.82 38.7509 1818.33 32.4315 Q1823.88 26.1121 1833.64 26.1121 Z" fill="#000000" fill-rule="nonzero" fill-opacity="1" /><path clip-path="url(#clip950)" d="M1904.53 45.1919 L1904.53 72.576 L1897.08 72.576 L1897.08 45.4349 Q1897.08 38.994 1894.57 35.7938 Q1892.05 32.5936 1887.03 32.5936 Q1881 32.5936 1877.51 36.4419 Q1874.03 40.2903 1874.03 46.9338 L1874.03 72.576 L1866.53 72.576 L1866.53 27.2059 L1874.03 27.2059 L1874.03 34.2544 Q1876.7 30.163 1880.31 28.1376 Q1883.95 26.1121 1888.69 26.1121 Q1896.51 26.1121 1900.52 30.9732 Q1904.53 35.7938 1904.53 45.1919 Z" fill="#000000" fill-rule="nonzero" fill-opacity="1" /><path clip-path="url(#clip950)" d="M1946.09 12.096 L1984.33 12.096 L1984.33 18.9825 L1954.28 18.9825 L1954.28 36.8875 L1983.08 36.8875 L1983.08 43.7741 L1954.28 43.7741 L1954.28 65.6895 L1985.06 65.6895 L1985.06 72.576 L1946.09 72.576 L1946.09 12.096 Z" fill="#000000" fill-rule="nonzero" fill-opacity="1" /><path clip-path="url(#clip950)" d="M1998.51 12.096 L2006.69 12.096 L2006.69 72.576 L1998.51 72.576 L1998.51 12.096 Z" fill="#000000" fill-rule="nonzero" fill-opacity="1" /><path clip-path="url(#clip950)" d="M2051.66 44.2197 Q2054.29 45.1109 2056.76 48.0275 Q2059.28 50.9442 2061.79 56.0483 L2070.09 72.576 L2061.3 72.576 L2053.56 57.061 Q2050.57 50.9847 2047.73 48.9997 Q2044.94 47.0148 2040.07 47.0148 L2031.16 47.0148 L2031.16 72.576 L2022.98 72.576 L2022.98 12.096 L2041.45 12.096 Q2051.82 12.096 2056.93 16.4305 Q2062.03 20.7649 2062.03 29.5149 Q2062.03 35.2267 2059.36 38.994 Q2056.72 42.7613 2051.66 44.2197 M2031.16 18.8205 L2031.16 40.2903 L2041.45 40.2903 Q2047.37 40.2903 2050.36 37.5762 Q2053.4 34.8216 2053.4 29.5149 Q2053.4 24.2082 2050.36 21.5346 Q2047.37 18.8205 2041.45 18.8205 L2031.16 18.8205 Z" fill="#000000" fill-rule="nonzero" fill-opacity="1" /><polyline clip-path="url(#clip951)" style="stroke:#ff0000; stroke-linecap:round; stroke-linejoin:round; stroke-width:8; stroke-opacity:1; fill:none" points="306.647,1688.65 308.717,1688.22 310.786,1687.21 312.856,1685.94 314.925,1684.61 316.995,1683.34 319.064,1682.21 321.134,1681.25 323.204,1680.47 325.273,1679.86 327.343,1679.4 329.412,1679.07 331.482,1678.83 333.551,1678.68 335.621,1678.57 337.69,1678.5 339.76,1678.44 341.829,1678.37 343.899,1678.28 345.968,1678.17 348.038,1678.01 350.107,1677.81 352.177,1677.56 354.246,1677.25 356.316,1676.88 358.385,1676.46 360.455,1675.97 362.524,1675.42 364.594,1674.8 366.663,1674.13 368.733,1673.38 370.803,1672.57 372.872,1671.69 374.942,1670.74 377.011,1669.72 379.081,1668.63 381.15,1667.45 383.22,1666.2 385.289,1664.86 387.359,1663.44 389.428,1661.91 391.498,1660.29 393.567,1658.57 395.637,1656.73 397.706,1654.77 399.776,1652.69 401.845,1650.47 403.915,1648.1 405.984,1645.59 408.054,1642.9 410.123,1640.05 412.193,1637 414.262,1633.76 416.332,1630.3 418.401,1626.62 420.471,1622.7 422.541,1618.53 424.61,1614.09 426.68,1609.35 428.749,1604.31 430.819,1598.95 432.888,1593.25 434.958,1587.18 437.027,1580.73 439.097,1573.87 441.166,1566.59 443.236,1558.86 445.305,1550.65 447.375,1541.94 449.444,1532.71 451.514,1522.93 453.583,1512.58 455.653,1501.63 457.722,1490.06 459.792,1477.84 461.861,1464.94 463.931,1451.36 466,1437.06 468.07,1422.02 470.139,1406.23 472.209,1389.66 474.279,1372.32 476.348,1354.18 478.418,1335.24 480.487,1315.49 482.557,1294.94 484.626,1273.6 486.696,1251.46 488.765,1228.56 490.835,1204.91 492.904,1180.53 494.974,1155.47 497.043,1129.76 499.113,1103.44 501.182,1076.57 503.252,1049.21 505.321,1021.4 507.391,993.235 509.46,964.769 511.53,936.082 513.599,907.25 515.669,878.355 517.738,849.478 519.808,820.7 521.877,792.103 523.947,763.769 526.017,735.774 528.086,708.194 530.156,681.101 532.225,654.561 534.295,628.636 536.364,603.381 538.434,578.847 540.503,555.077 542.573,532.107 544.642,509.968 546.712,488.684 548.781,468.271 550.851,448.741 552.92,430.097 554.99,412.339 557.059,395.461 559.129,379.452 561.198,364.298 563.268,349.979 565.337,336.474 567.407,323.758 569.476,311.805 571.546,300.586 573.616,290.071 575.685,280.231 577.755,271.033 579.824,262.448 581.894,254.443 583.963,246.99 586.033,240.058 588.102,233.617 590.172,227.641 592.241,222.103 594.311,216.977 596.38,212.24 598.45,207.867 600.519,203.839 602.589,200.134 604.658,196.735 606.728,193.623 608.797,190.784 610.867,188.202 612.936,185.863 615.006,183.756 617.075,181.869 619.145,180.191 621.214,178.714 623.284,177.429 625.354,176.327 627.423,175.403 629.493,174.651 631.562,174.065 633.632,173.64 635.701,173.37 637.771,173.254 639.84,173.288 641.91,173.468 643.979,173.79 646.049,174.254 648.118,174.858 650.188,175.599 652.257,176.476 654.327,177.486 656.396,178.63 658.466,179.906 660.535,181.313 662.605,182.849 664.674,184.514 666.744,186.309 668.813,188.231 670.883,190.28 672.952,192.455 675.022,194.757 677.092,197.184 679.161,199.736 681.231,202.411 683.3,205.21 685.37,208.133 687.439,211.178 689.509,214.345 691.578,217.632 693.648,221.041 695.717,224.57 697.787,228.218 699.856,231.984 701.926,235.867 703.995,239.868 706.065,243.985 708.134,248.217 710.204,252.563 712.273,257.022 714.343,261.594 716.412,266.278 718.482,271.071 720.551,275.973 722.621,280.984 724.69,286.102 726.76,291.326 728.83,296.653 730.899,302.084 732.969,307.617 735.038,313.252 737.108,318.985 739.177,324.815 741.247,330.743 743.316,336.766 745.386,342.883 747.455,349.091 749.525,355.389 751.594,361.778 753.664,368.254 755.733,374.815 757.803,381.461 759.872,388.188 761.942,394.998 764.011,401.887 766.081,408.852 768.15,415.893 770.22,423.009 772.289,430.196 774.359,437.455 776.428,444.781 778.498,452.173 780.568,459.631 782.637,467.152 784.707,474.733 786.776,482.374 788.846,490.071 790.915,497.824 792.985,505.63 795.054,513.487 797.124,521.393 799.193,529.346 801.263,537.344 803.332,545.386 805.402,553.468 807.471,561.589 809.541,569.747 811.61,577.941 813.68,586.166 815.749,594.423 817.819,602.707 819.888,611.019 821.958,619.354 824.027,627.712 826.097,636.089 828.167,644.485 830.236,652.896 832.306,661.32 834.375,669.756 836.445,678.202 838.514,686.654 840.584,695.112 842.653,703.572 844.723,712.033 846.792,720.492 848.862,728.948 850.931,737.398 853.001,745.839 855.07,754.271 857.14,762.691 859.209,771.096 861.279,779.484 863.348,787.854 865.418,796.203 867.487,804.529 869.557,812.831 871.626,821.105 873.696,829.35 875.765,837.563 877.835,845.743 879.905,853.888 881.974,861.995 884.044,870.063 886.113,878.089 888.183,886.072 890.252,894.009 892.322,901.898 894.391,909.738 896.461,917.526 898.53,925.261 900.6,932.941 902.669,940.563 904.739,948.126 906.808,955.627 908.878,963.066 910.947,970.44 913.017,977.747 915.086,984.986 917.156,992.154 919.225,999.25 921.295,1006.27 923.364,1013.22 925.434,1020.09 927.503,1026.88 929.573,1033.59 931.643,1040.22 933.712,1046.76 935.782,1053.22 937.851,1059.59 939.921,1065.88 941.99,1072.07 944.06,1078.17 946.129,1084.18 948.199,1090.1 950.268,1095.91 952.338,1101.64 954.407,1107.26 956.477,1112.78 958.546,1118.2 960.616,1123.52 962.685,1128.74 964.755,1133.85 966.824,1138.85 968.894,1143.75 970.963,1148.54 973.033,1153.22 975.102,1157.79 977.172,1162.24 979.241,1166.59 981.311,1170.82 983.381,1174.93 985.45,1178.93 987.52,1182.82 989.589,1186.59 991.659,1190.24 993.728,1193.77 995.798,1197.18 997.867,1200.47 999.937,1203.64 1002.01,1206.69 1004.08,1209.61 1006.15,1212.42 1008.21,1215.1 1010.28,1217.66 1012.35,1220.09 1014.42,1222.4 1016.49,1224.58 1018.56,1226.64 1020.63,1228.57 1022.7,1230.38 1024.77,1232.06 1026.84,1233.61 1028.91,1235.03 1030.98,1236.33 1033.05,1237.51 1035.12,1238.55 1037.19,1239.47 1039.26,1240.26 1041.33,1240.92 1043.4,1241.45 1045.47,1241.86 1047.54,1242.14 1049.61,1242.29 1051.67,1242.32 1053.74,1242.22 1055.81,1241.99 1057.88,1241.63 1059.95,1241.15 1062.02,1240.55 1064.09,1239.81 1066.16,1238.95 1068.23,1237.97 1070.3,1236.87 1072.37,1235.63 1074.44,1234.28 1076.51,1232.8 1078.58,1231.2 1080.65,1229.48 1082.72,1227.64 1084.79,1225.67 1086.86,1223.59 1088.93,1221.38 1091,1219.06 1093.07,1216.62 1095.13,1214.07 1097.2,1211.39 1099.27,1208.6 1101.34,1205.7 1103.41,1202.68 1105.48,1199.55 1107.55,1196.31 1109.62,1192.96 1111.69,1189.49 1113.76,1185.92 1115.83,1182.24 1117.9,1178.46 1119.97,1174.57 1122.04,1170.57 1124.11,1166.47 1126.18,1162.27 1128.25,1157.97 1130.32,1153.57 1132.39,1149.07 1134.46,1144.47 1136.53,1139.78 1138.59,1134.99 1140.66,1130.11 1142.73,1125.15 1144.8,1120.09 1146.87,1114.94 1148.94,1109.7 1151.01,1104.39 1153.08,1098.98 1155.15,1093.5 1157.22,1087.93 1159.29,1082.29 1161.36,1076.57 1163.43,1070.78 1165.5,1064.91 1167.57,1058.97 1169.64,1052.96 1171.71,1046.88 1173.78,1040.74 1175.85,1034.53 1177.92,1028.27 1179.98,1021.94 1182.05,1015.55 1184.12,1009.11 1186.19,1002.61 1188.26,996.059 1190.33,989.459 1192.4,982.811 1194.47,976.117 1196.54,969.379 1198.61,962.599 1200.68,955.78 1202.75,948.923 1204.82,942.03 1206.89,935.105 1208.96,928.148 1211.03,921.163 1213.1,914.15 1215.17,907.114 1217.24,900.055 1219.31,892.976 1221.38,885.879 1223.44,878.767 1225.51,871.641 1227.58,864.505 1229.65,857.359 1231.72,850.207 1233.79,843.05 1235.86,835.891 1237.93,828.732 1240,821.576 1242.07,814.424 1244.14,807.278 1246.21,800.142 1248.28,793.017 1250.35,785.905 1252.42,778.809 1254.49,771.731 1256.56,764.672 1258.63,757.636 1260.7,750.624 1262.77,743.638 1264.84,736.681 1266.9,729.755 1268.97,722.861 1271.04,716.002 1273.11,709.18 1275.18,702.398 1277.25,695.656 1279.32,688.957 1281.39,682.304 1283.46,675.698 1285.53,669.141 1287.6,662.635 1289.67,656.182 1291.74,649.785 1293.81,643.444 1295.88,637.162 1297.95,630.941 1300.02,624.783 1302.09,618.689 1304.16,612.661 1306.23,606.701 1308.3,600.811 1310.36,594.993 1312.43,589.247 1314.5,583.577 1316.57,577.983 1318.64,572.468 1320.71,567.033 1322.78,561.679 1324.85,556.408 1326.92,551.223 1328.99,546.123 1331.06,541.111 1333.13,536.188 1335.2,531.356 1337.27,526.616 1339.34,521.969 1341.41,517.417 1343.48,512.962 1345.55,508.604 1347.62,504.344 1349.69,500.184 1351.76,496.126 1353.82,492.17 1355.89,488.318 1357.96,484.57 1360.03,480.928 1362.1,477.393 1364.17,473.966 1366.24,470.648 1368.31,467.438 1370.38,464.34 1372.45,461.354 1374.52,458.481 1376.59,455.72 1378.66,453.074 1380.73,450.542 1382.8,448.127 1384.87,445.828 1386.94,443.645 1389.01,441.581 1391.08,439.635 1393.15,437.808 1395.22,436.099 1397.28,434.51 1399.35,433.042 1401.42,431.696 1403.49,430.47 1405.56,429.365 1407.63,428.381 1409.7,427.521 1411.77,426.783 1413.84,426.166 1415.91,425.672 1417.98,425.302 1420.05,425.054 1422.12,424.93 1424.19,424.928 1426.26,425.049 1428.33,425.293 1430.4,425.661 1432.47,426.151 1434.54,426.762 1436.61,427.497 1438.68,428.354 1440.74,429.334 1442.81,430.434 1444.88,431.655 1446.95,432.998 1449.02,434.462 1451.09,436.046 1453.16,437.748 1455.23,439.57 1457.3,441.511 1459.37,443.57 1461.44,445.746 1463.51,448.038 1465.58,450.447 1467.65,452.971 1469.72,455.61 1471.79,458.362 1473.86,461.227 1475.93,464.205 1478,467.294 1480.07,470.494 1482.13,473.802 1484.2,477.218 1486.27,480.743 1488.34,484.374 1490.41,488.11 1492.48,491.95 1494.55,495.893 1496.62,499.938 1498.69,504.084 1500.76,508.329 1502.83,512.672 1504.9,517.112 1506.97,521.649 1509.04,526.279 1511.11,531.002 1513.18,535.817 1515.25,540.721 1517.32,545.715 1519.39,550.796 1521.46,555.962 1523.53,561.212 1525.59,566.545 1527.66,571.959 1529.73,577.453 1531.8,583.024 1533.87,588.672 1535.94,594.393 1538.01,600.189 1540.08,606.055 1542.15,611.99 1544.22,617.993 1546.29,624.062 1548.36,630.195 1550.43,636.391 1552.5,642.647 1554.57,648.961 1556.64,655.332 1558.71,661.759 1560.78,668.238 1562.85,674.768 1564.92,681.348 1566.99,687.974 1569.05,694.647 1571.12,701.362 1573.19,708.119 1575.26,714.915 1577.33,721.749 1579.4,728.618 1581.47,735.52 1583.54,742.454 1585.61,749.417 1587.68,756.407 1589.75,763.423 1591.82,770.461 1593.89,777.521 1595.96,784.6 1598.03,791.696 1600.1,798.806 1602.17,805.929 1604.24,813.063 1606.31,820.206 1608.38,827.355 1610.45,834.508 1612.51,841.664 1614.58,848.82 1616.65,855.975 1618.72,863.125 1620.79,870.269 1622.86,877.405 1624.93,884.531 1627,891.644 1629.07,898.743 1631.14,905.825 1633.21,912.889 1635.28,919.932 1637.35,926.953 1639.42,933.948 1641.49,940.918 1643.56,947.858 1645.63,954.767 1647.7,961.644 1649.77,968.485 1651.84,975.29 1653.91,982.056 1655.97,988.781 1658.04,995.464 1660.11,1002.1 1662.18,1008.69 1664.25,1015.24 1666.32,1021.73 1668.39,1028.17 1670.46,1034.55 1672.53,1040.88 1674.6,1047.15 1676.67,1053.37 1678.74,1059.52 1680.81,1065.6 1682.88,1071.63 1684.95,1077.58 1687.02,1083.47 1689.09,1089.28 1691.16,1095.03 1693.23,1100.7 1695.3,1106.3 1697.37,1111.82 1699.43,1117.26 1701.5,1122.62 1703.57,1127.9 1705.64,1133.09 1707.71,1138.21 1709.78,1143.23 1711.85,1148.17 1713.92,1153.02 1715.99,1157.78 1718.06,1162.45 1720.13,1167.03 1722.2,1171.51 1724.27,1175.89 1726.34,1180.18 1728.41,1184.37 1730.48,1188.47 1732.55,1192.46 1734.62,1196.35 1736.69,1200.14 1738.76,1203.83 1740.82,1207.41 1742.89,1210.88 1744.96,1214.25 1747.03,1217.51 1749.1,1220.67 1751.17,1223.71 1753.24,1226.64 1755.31,1229.47 1757.38,1232.18 1759.45,1234.78 1761.52,1237.27 1763.59,1239.64 1765.66,1241.9 1767.73,1244.04 1769.8,1246.07 1771.87,1247.98 1773.94,1249.77 1776.01,1251.45 1778.08,1253.01 1780.15,1254.45 1782.22,1255.78 1784.28,1256.98 1786.35,1258.07 1788.42,1259.03 1790.49,1259.88 1792.56,1260.61 1794.63,1261.21 1796.7,1261.7 1798.77,1262.06 1800.84,1262.31 1802.91,1262.44 1804.98,1262.44 1807.05,1262.32 1809.12,1262.09 1811.19,1261.73 1813.26,1261.25 1815.33,1260.66 1817.4,1259.94 1819.47,1259.1 1821.54,1258.14 1823.61,1257.07 1825.68,1255.87 1827.74,1254.56 1829.81,1253.12 1831.88,1251.57 1833.95,1249.9 1836.02,1248.12 1838.09,1246.21 1840.16,1244.19 1842.23,1242.06 1844.3,1239.81 1846.37,1237.44 1848.44,1234.96 1850.51,1232.37 1852.58,1229.66 1854.65,1226.85 1856.72,1223.92 1858.79,1220.88 1860.86,1217.73 1862.93,1214.47 1865,1211.11 1867.07,1207.63 1869.14,1204.05 1871.2,1200.37 1873.27,1196.58 1875.34,1192.69 1877.41,1188.69 1879.48,1184.6 1881.55,1180.4 1883.62,1176.11 1885.69,1171.72 1887.76,1167.23 1889.83,1162.64 1891.9,1157.96 1893.97,1153.19 1896.04,1148.33 1898.11,1143.38 1900.18,1138.34 1902.25,1133.21 1904.32,1127.99 1906.39,1122.7 1908.46,1117.31 1910.53,1111.85 1912.6,1106.31 1914.66,1100.69 1916.73,1094.99 1918.8,1089.22 1920.87,1083.38 1922.94,1077.46 1925.01,1071.47 1927.08,1065.42 1929.15,1059.3 1931.22,1053.12 1933.29,1046.87 1935.36,1040.57 1937.43,1034.2 1939.5,1027.78 1941.57,1021.3 1943.64,1014.77 1945.71,1008.19 1947.78,1001.56 1949.85,994.889 1951.92,988.17 1953.99,981.407 1956.06,974.604 1958.12,967.763 1960.19,960.886 1962.26,953.974 1964.33,947.031 1966.4,940.057 1968.47,933.056 1970.54,926.03 1972.61,918.98 1974.68,911.909 1976.75,904.819 1978.82,897.712 1980.89,890.591 1982.96,883.458 1985.03,876.314 1987.1,869.163 1989.17,862.006 1991.24,854.845 1993.31,847.684 1995.38,840.523 1997.45,833.366 1999.52,826.214 2001.58,819.07 2003.65,811.935 2005.72,804.813 2007.79,797.704 2009.86,790.613 2011.93,783.54 2014,776.487 2016.07,769.457 2018.14,762.453 2020.21,755.475 2022.28,748.527 2024.35,741.61 2026.42,734.727 2028.49,727.879 2030.56,721.069 2032.63,714.298 2034.7,707.57 2036.77,700.885 2038.84,694.246 2040.91,687.654 2042.97,681.112 2045.04,674.622 2047.11,668.186 2049.18,661.805 2051.25,655.481 2053.32,649.217 2055.39,643.015 2057.46,636.875 2059.53,630.799 2061.6,624.791 2063.67,618.851 2065.74,612.981 2067.81,607.183 2069.88,601.459 2071.95,595.81 2074.02,590.238 2076.09,584.744 2078.16,579.331 2080.23,573.999 2082.3,568.752 2084.37,563.588 2086.43,558.511 2088.5,553.522 2090.57,548.623 2092.64,543.814 2094.71,539.097 2096.78,534.474 2098.85,529.947 2100.92,525.515 2102.99,521.181 2105.06,516.945 2107.13,512.81 2109.2,508.776 2111.27,504.844 2113.34,501.016 2115.41,497.292 2117.48,493.675 2119.55,490.164 2121.62,486.761 2123.69,483.466 2125.76,480.282 2127.83,477.208 2129.89,474.246 2131.96,471.395 2134.03,468.659 2136.1,466.036 2138.17,463.529 2140.24,461.136 2142.31,458.859 2144.38,456.7 2146.45,454.659 2148.52,452.735 2150.59,450.929 2152.66,449.243 2154.73,447.677 2156.8,446.231 2158.87,444.904 2160.94,443.698 2163.01,442.614 2165.08,441.652 2167.15,440.811 2169.22,440.092 2171.29,439.495 2173.35,439.02 2175.42,438.669 2177.49,438.439 2179.56,438.331 2181.63,438.347 2183.7,438.485 2185.77,438.746 2187.84,439.128 2189.91,439.633 2191.98,440.26 2194.05,441.01 2196.12,441.881 2198.19,442.872 2200.26,443.986 2202.33,445.22 2204.4,446.575 2206.47,448.049 2208.54,449.642 2210.61,451.355 2212.68,453.186 2214.75,455.136 2216.81,457.201 2218.88,459.384 2220.95,461.684 2223.02,464.099 2225.09,466.628 2227.16,469.27 2229.23,472.026 2231.3,474.895 2233.37,477.875 2235.44,480.964 2237.51,484.163 2239.58,487.472 2241.65,490.888 2243.72,494.41 2245.79,498.038 2247.86,501.77 2249.93,505.605 2252,509.543 2254.07,513.582 2256.14,517.72 2258.21,521.957 2260.27,526.291 2262.34,530.722 2264.41,535.247 2266.48,539.865 2268.55,544.575 2270.62,549.375 2272.69,554.266 2274.76,559.243 2276.83,564.306 2278.9,569.454 2280.97,574.686 2283.04,579.999 2285.11,585.392 2287.18,590.863 2289.25,596.41 2291.32,602.033 2293.39,607.73 2295.46,613.498 2297.53,619.336 2299.6,625.243 2301.66,631.216 2303.73,637.254 2305.8,643.354 2307.87,649.516 2309.94,655.737 2312.01,662.016 2314.08,668.35 2316.15,674.738 2318.22,681.177 2320.29,687.667 2322.36,694.205 2324.43,700.788 2326.5,707.416 2328.57,714.086 2330.64,720.796 2332.71,727.544 2334.78,734.328 2336.85,741.147 2338.92,747.997 2340.99,754.878 2343.06,761.787 2345.12,768.721 2347.19,775.68 2349.26,782.661 2351.33,789.661 2353.4,796.679 2355.47,803.713 2357.54,810.76 2359.61,817.819 2361.68,824.888 2363.75,831.963 2365.82,839.044 2367.89,846.128 2369.96,853.214 2372.03,860.298 2374.1,867.378 2376.17,874.454 2378.24,881.523 2380.31,888.582 2382.38,895.629 2384.45,902.663 2386.52,909.681 2388.58,916.682 2390.65,923.663 2392.72,930.621 2394.79,937.556 2396.86,944.466 2398.93,951.347 2401,958.198 2403.07,965.017 2405.14,971.802 2407.21,978.551 2409.28,985.262 2411.35,991.933 2413.42,998.563 2415.49,1005.15 2417.56,1011.69 2419.63,1018.18 2421.7,1024.62 2423.77,1031.01 2425.84,1037.35 2427.91,1043.63 2429.98,1049.86 2432.04,1056.02 2434.11,1062.13 2436.18,1068.17 2438.25,1074.15 2440.32,1080.06 2442.39,1085.91 2444.46,1091.68 2446.53,1097.39 2448.6,1103.02 2450.67,1108.58 2452.74,1114.06 2454.81,1119.46 2456.88,1124.78 2458.95,1130.03 2461.02,1135.19 2463.09,1140.27 2465.16,1145.26 2467.23,1150.17 2469.3,1154.98 2471.37,1159.71 2473.44,1164.35 2475.5,1168.9 2477.57,1173.35 2479.64,1177.7 2481.71,1181.97 2483.78,1186.13 2485.85,1190.2 2487.92,1194.16 2489.99,1198.03 2492.06,1201.79 2494.13,1205.45 2496.2,1209.01 2498.27,1212.46 2500.34,1215.81 2502.41,1219.05 2504.48,1222.18 2506.55,1225.2 2508.62,1228.12 2510.69,1230.92 2512.76,1233.61 2514.83,1236.2 2516.9,1238.66 2518.96,1241.02 2521.03,1243.26 2523.1,1245.39 2525.17,1247.4 2527.24,1249.29 2529.31,1251.07 2531.38,1252.74 2533.45,1254.28 2535.52,1255.71 2537.59,1257.02 2539.66,1258.21 2541.73,1259.29 2543.8,1260.24 2545.87,1261.08 2547.94,1261.79 2550.01,1262.39 2552.08,1262.87 2554.15,1263.22 2556.22,1263.46 2558.29,1263.58 2560.36,1263.57 2562.42,1263.45 2564.49,1263.2 2566.56,1262.84 2568.63,1262.36 2570.7,1261.75 2572.77,1261.03 "/>
<polyline clip-path="url(#clip951)" style="stroke:#ffa500; stroke-linecap:round; stroke-linejoin:round; stroke-width:8; stroke-opacity:1; fill:none" points="306.647,1688.65 308.717,1688.33 310.786,1687.57 312.856,1686.62 314.925,1685.62 316.995,1684.67 319.064,1683.83 321.134,1683.11 323.204,1682.53 325.273,1682.09 327.343,1681.76 329.412,1681.53 331.482,1681.38 333.551,1681.3 335.621,1681.27 337.69,1681.27 339.76,1681.29 341.829,1681.32 343.899,1681.34 345.968,1681.34 348.038,1681.33 350.107,1681.3 352.177,1681.24 354.246,1681.14 356.316,1681.02 358.385,1680.86 360.455,1680.66 362.524,1680.43 364.594,1680.17 366.663,1679.87 368.733,1679.53 370.803,1679.16 372.872,1678.75 374.942,1678.31 377.011,1677.83 379.081,1677.32 381.15,1676.77 383.22,1676.18 385.289,1675.56 387.359,1674.89 389.428,1674.19 391.498,1673.44 393.567,1672.64 395.637,1671.8 397.706,1670.91 399.776,1669.97 401.845,1668.98 403.915,1667.92 405.984,1666.81 408.054,1665.63 410.123,1664.38 412.193,1663.06 414.262,1661.66 416.332,1660.18 418.401,1658.61 420.471,1656.96 422.541,1655.2 424.61,1653.34 426.68,1651.37 428.749,1649.28 430.819,1647.07 432.888,1644.73 434.958,1642.25 437.027,1639.63 439.097,1636.85 441.166,1633.91 443.236,1630.8 445.305,1627.5 447.375,1624.01 449.444,1620.32 451.514,1616.41 453.583,1612.28 455.653,1607.91 457.722,1603.29 459.792,1598.41 461.861,1593.25 463.931,1587.8 466,1582.05 468.07,1575.97 470.139,1569.56 472.209,1562.81 474.279,1555.69 476.348,1548.19 478.418,1540.29 480.487,1531.99 482.557,1523.26 484.626,1514.08 486.696,1504.46 488.765,1494.36 490.835,1483.77 492.904,1472.69 494.974,1461.11 497.043,1449 499.113,1436.36 501.182,1423.19 503.252,1409.48 505.321,1395.21 507.391,1380.4 509.46,1365.05 511.53,1349.14 513.599,1332.7 515.669,1315.73 517.738,1298.24 519.808,1280.25 521.877,1261.78 523.947,1242.84 526.017,1223.47 528.086,1203.7 530.156,1183.54 532.225,1163.05 534.295,1142.27 536.364,1121.22 538.434,1099.97 540.503,1078.55 542.573,1057.01 544.642,1035.41 546.712,1013.8 548.781,992.236 550.851,970.764 552.92,949.441 554.99,928.32 557.059,907.452 559.129,886.887 561.198,866.675 563.268,846.859 565.337,827.484 567.407,808.587 569.476,790.207 571.546,772.374 573.616,755.118 575.685,738.462 577.755,722.428 579.824,707.031 581.894,692.285 583.963,678.198 586.033,664.774 588.102,652.014 590.172,639.918 592.241,628.479 594.311,617.689 596.38,607.537 598.45,598.012 600.519,589.097 602.589,580.777 604.658,573.033 606.728,565.846 608.797,559.197 610.867,553.064 612.936,547.426 615.006,542.263 617.075,537.553 619.145,533.275 621.214,529.408 623.284,525.933 625.354,522.828 627.423,520.076 629.493,517.657 631.562,515.554 633.632,513.751 635.701,512.23 637.771,510.978 639.84,509.979 641.91,509.221 643.979,508.69 646.049,508.375 648.118,508.265 650.188,508.35 652.257,508.62 654.327,509.067 656.396,509.682 658.466,510.458 660.535,511.389 662.605,512.467 664.674,513.688 666.744,515.045 668.813,516.535 670.883,518.153 672.952,519.895 675.022,521.756 677.092,523.734 679.161,525.827 681.231,528.03 683.3,530.341 685.37,532.758 687.439,535.28 689.509,537.904 691.578,540.626 693.648,543.448 695.717,546.366 697.787,549.381 699.856,552.488 701.926,555.688 703.995,558.98 706.065,562.362 708.134,565.833 710.204,569.392 712.273,573.037 714.343,576.768 716.412,580.585 718.482,584.485 720.551,588.467 722.621,592.531 724.69,596.676 726.76,600.901 728.83,605.204 730.899,609.584 732.969,614.042 735.038,618.575 737.108,623.182 739.177,627.863 741.247,632.615 743.316,637.439 745.386,642.334 747.455,647.297 749.525,652.327 751.594,657.424 753.664,662.587 755.733,667.814 757.803,673.103 759.872,678.454 761.942,683.866 764.011,689.337 766.081,694.865 768.15,700.45 770.22,706.089 772.289,711.783 774.359,717.529 776.428,723.326 778.498,729.172 780.568,735.067 782.637,741.008 784.707,746.994 786.776,753.024 788.846,759.096 790.915,765.209 792.985,771.362 795.054,777.552 797.124,783.778 799.193,790.039 801.263,796.333 803.332,802.659 805.402,809.015 807.471,815.399 809.541,821.809 811.61,828.245 813.68,834.705 815.749,841.187 817.819,847.689 819.888,854.21 821.958,860.748 824.027,867.302 826.097,873.869 828.167,880.449 830.236,887.039 832.306,893.638 834.375,900.245 836.445,906.857 838.514,913.473 840.584,920.092 842.653,926.711 844.723,933.33 846.792,939.945 848.862,946.557 850.931,953.163 853.001,959.761 855.07,966.35 857.14,972.928 859.209,979.494 861.279,986.045 863.348,992.581 865.418,999.1 867.487,1005.6 869.557,1012.08 871.626,1018.54 873.696,1024.97 875.765,1031.38 877.835,1037.76 879.905,1044.11 881.974,1050.43 884.044,1056.72 886.113,1062.98 888.183,1069.2 890.252,1075.39 892.322,1081.54 894.391,1087.65 896.461,1093.72 898.53,1099.74 900.6,1105.73 902.669,1111.66 904.739,1117.55 906.808,1123.4 908.878,1129.19 910.947,1134.93 913.017,1140.62 915.086,1146.26 917.156,1151.84 919.225,1157.36 921.295,1162.83 923.364,1168.24 925.434,1173.59 927.503,1178.87 929.573,1184.1 931.643,1189.26 933.712,1194.35 935.782,1199.38 937.851,1204.34 939.921,1209.23 941.99,1214.05 944.06,1218.8 946.129,1223.48 948.199,1228.08 950.268,1232.61 952.338,1237.07 954.407,1241.45 956.477,1245.75 958.546,1249.97 960.616,1254.11 962.685,1258.18 964.755,1262.16 966.824,1266.06 968.894,1269.87 970.963,1273.61 973.033,1277.25 975.102,1280.82 977.172,1284.29 979.241,1287.68 981.311,1290.99 983.381,1294.2 985.45,1297.33 987.52,1300.36 989.589,1303.31 991.659,1306.16 993.728,1308.92 995.798,1311.59 997.867,1314.17 999.937,1316.66 1002.01,1319.05 1004.08,1321.35 1006.15,1323.55 1008.21,1325.66 1010.28,1327.67 1012.35,1329.59 1014.42,1331.41 1016.49,1333.14 1018.56,1334.77 1020.63,1336.31 1022.7,1337.74 1024.77,1339.08 1026.84,1340.33 1028.91,1341.47 1030.98,1342.52 1033.05,1343.47 1035.12,1344.32 1037.19,1345.08 1039.26,1345.74 1041.33,1346.3 1043.4,1346.76 1045.47,1347.12 1047.54,1347.39 1049.61,1347.56 1051.67,1347.64 1053.74,1347.61 1055.81,1347.49 1057.88,1347.27 1059.95,1346.96 1062.02,1346.55 1064.09,1346.04 1066.16,1345.44 1068.23,1344.74 1070.3,1343.95 1072.37,1343.06 1074.44,1342.08 1076.51,1341 1078.58,1339.83 1080.65,1338.57 1082.72,1337.21 1084.79,1335.76 1086.86,1334.22 1088.93,1332.59 1091,1330.87 1093.07,1329.06 1095.13,1327.16 1097.2,1325.17 1099.27,1323.09 1101.34,1320.92 1103.41,1318.67 1105.48,1316.33 1107.55,1313.9 1109.62,1311.39 1111.69,1308.8 1113.76,1306.12 1115.83,1303.36 1117.9,1300.52 1119.97,1297.59 1122.04,1294.59 1124.11,1291.51 1126.18,1288.35 1128.25,1285.11 1130.32,1281.79 1132.39,1278.4 1134.46,1274.94 1136.53,1271.4 1138.59,1267.79 1140.66,1264.11 1142.73,1260.35 1144.8,1256.53 1146.87,1252.64 1148.94,1248.68 1151.01,1244.66 1153.08,1240.57 1155.15,1236.42 1157.22,1232.21 1159.29,1227.94 1161.36,1223.6 1163.43,1219.21 1165.5,1214.76 1167.57,1210.25 1169.64,1205.69 1171.71,1201.08 1173.78,1196.42 1175.85,1191.7 1177.92,1186.94 1179.98,1182.13 1182.05,1177.27 1184.12,1172.37 1186.19,1167.43 1188.26,1162.44 1190.33,1157.41 1192.4,1152.35 1194.47,1147.25 1196.54,1142.12 1198.61,1136.95 1200.68,1131.75 1202.75,1126.51 1204.82,1121.25 1206.89,1115.97 1208.96,1110.66 1211.03,1105.32 1213.1,1099.96 1215.17,1094.59 1217.24,1089.19 1219.31,1083.78 1221.38,1078.35 1223.44,1072.91 1225.51,1067.46 1227.58,1061.99 1229.65,1056.52 1231.72,1051.05 1233.79,1045.56 1235.86,1040.08 1237.93,1034.59 1240,1029.11 1242.07,1023.63 1244.14,1018.15 1246.21,1012.67 1248.28,1007.21 1250.35,1001.75 1252.42,996.308 1254.49,990.876 1256.56,985.459 1258.63,980.057 1260.7,974.673 1262.77,969.309 1264.84,963.967 1266.9,958.647 1268.97,953.351 1271.04,948.082 1273.11,942.841 1275.18,937.629 1277.25,932.449 1279.32,927.301 1281.39,922.187 1283.46,917.109 1285.53,912.069 1287.6,907.067 1289.67,902.106 1291.74,897.187 1293.81,892.312 1295.88,887.481 1297.95,882.697 1300.02,877.961 1302.09,873.274 1304.16,868.638 1306.23,864.054 1308.3,859.523 1310.36,855.048 1312.43,850.629 1314.5,846.267 1316.57,841.963 1318.64,837.721 1320.71,833.539 1322.78,829.42 1324.85,825.365 1326.92,821.374 1328.99,817.451 1331.06,813.594 1333.13,809.806 1335.2,806.087 1337.27,802.439 1339.34,798.864 1341.41,795.36 1343.48,791.93 1345.55,788.576 1347.62,785.297 1349.69,782.095 1351.76,778.97 1353.82,775.925 1355.89,772.959 1357.96,770.073 1360.03,767.268 1362.1,764.545 1364.17,761.905 1366.24,759.349 1368.31,756.877 1370.38,754.489 1372.45,752.188 1374.52,749.973 1376.59,747.845 1378.66,745.804 1380.73,743.851 1382.8,741.988 1384.87,740.214 1386.94,738.529 1389.01,736.934 1391.08,735.43 1393.15,734.018 1395.22,732.698 1397.28,731.468 1399.35,730.331 1401.42,729.286 1403.49,728.335 1405.56,727.477 1407.63,726.712 1409.7,726.04 1411.77,725.462 1413.84,724.979 1415.91,724.589 1417.98,724.293 1420.05,724.091 1422.12,723.984 1424.19,723.972 1426.26,724.053 1428.33,724.228 1430.4,724.498 1432.47,724.862 1434.54,725.32 1436.61,725.871 1438.68,726.515 1440.74,727.254 1442.81,728.086 1444.88,729.011 1446.95,730.028 1449.02,731.137 1451.09,732.339 1453.16,733.632 1455.23,735.017 1457.3,736.491 1459.37,738.057 1461.44,739.713 1463.51,741.458 1465.58,743.292 1467.65,745.213 1469.72,747.224 1471.79,749.321 1473.86,751.505 1475.93,753.774 1478,756.128 1480.07,758.568 1482.13,761.091 1484.2,763.697 1486.27,766.385 1488.34,769.155 1490.41,772.006 1492.48,774.936 1494.55,777.945 1496.62,781.032 1498.69,784.196 1500.76,787.437 1502.83,790.753 1504.9,794.143 1506.97,797.606 1509.04,801.141 1511.11,804.748 1513.18,808.425 1515.25,812.17 1517.32,815.984 1519.39,819.864 1521.46,823.81 1523.53,827.821 1525.59,831.895 1527.66,836.031 1529.73,840.227 1531.8,844.484 1533.87,848.799 1535.94,853.171 1538.01,857.598 1540.08,862.08 1542.15,866.616 1544.22,871.204 1546.29,875.841 1548.36,880.528 1550.43,885.263 1552.5,890.044 1554.57,894.87 1556.64,899.74 1558.71,904.651 1560.78,909.604 1562.85,914.595 1564.92,919.625 1566.99,924.69 1569.05,929.79 1571.12,934.924 1573.19,940.089 1575.26,945.285 1577.33,950.509 1579.4,955.761 1581.47,961.038 1583.54,966.339 1585.61,971.663 1587.68,977.008 1589.75,982.372 1591.82,987.754 1593.89,993.152 1595.96,998.565 1598.03,1003.99 1600.1,1009.43 1602.17,1014.88 1604.24,1020.33 1606.31,1025.79 1608.38,1031.26 1610.45,1036.73 1612.51,1042.21 1614.58,1047.68 1616.65,1053.15 1618.72,1058.62 1620.79,1064.09 1622.86,1069.54 1624.93,1074.99 1627,1080.44 1629.07,1085.87 1631.14,1091.29 1633.21,1096.69 1635.28,1102.08 1637.35,1107.45 1639.42,1112.8 1641.49,1118.14 1643.56,1123.45 1645.63,1128.73 1647.7,1134 1649.77,1139.23 1651.84,1144.44 1653.91,1149.62 1655.97,1154.76 1658.04,1159.88 1660.11,1164.96 1662.18,1170.01 1664.25,1175.01 1666.32,1179.98 1668.39,1184.92 1670.46,1189.8 1672.53,1194.65 1674.6,1199.45 1676.67,1204.21 1678.74,1208.92 1680.81,1213.58 1682.88,1218.2 1684.95,1222.76 1687.02,1227.27 1689.09,1231.72 1691.16,1236.13 1693.23,1240.47 1695.3,1244.76 1697.37,1248.99 1699.43,1253.16 1701.5,1257.27 1703.57,1261.32 1705.64,1265.3 1707.71,1269.22 1709.78,1273.08 1711.85,1276.87 1713.92,1280.59 1715.99,1284.24 1718.06,1287.82 1720.13,1291.34 1722.2,1294.78 1724.27,1298.15 1726.34,1301.44 1728.41,1304.66 1730.48,1307.81 1732.55,1310.88 1734.62,1313.87 1736.69,1316.78 1738.76,1319.62 1740.82,1322.37 1742.89,1325.05 1744.96,1327.64 1747.03,1330.16 1749.1,1332.59 1751.17,1334.94 1753.24,1337.2 1755.31,1339.38 1757.38,1341.48 1759.45,1343.49 1761.52,1345.41 1763.59,1347.25 1765.66,1349 1767.73,1350.66 1769.8,1352.24 1771.87,1353.73 1773.94,1355.13 1776.01,1356.44 1778.08,1357.66 1780.15,1358.79 1782.22,1359.83 1784.28,1360.78 1786.35,1361.64 1788.42,1362.41 1790.49,1363.09 1792.56,1363.68 1794.63,1364.17 1796.7,1364.58 1798.77,1364.89 1800.84,1365.12 1802.91,1365.25 1804.98,1365.29 1807.05,1365.24 1809.12,1365.09 1811.19,1364.86 1813.26,1364.53 1815.33,1364.12 1817.4,1363.61 1819.47,1363.01 1821.54,1362.32 1823.61,1361.54 1825.68,1360.67 1827.74,1359.7 1829.81,1358.65 1831.88,1357.51 1833.95,1356.28 1836.02,1354.96 1838.09,1353.55 1840.16,1352.06 1842.23,1350.47 1844.3,1348.8 1846.37,1347.04 1848.44,1345.19 1850.51,1343.26 1852.58,1341.24 1854.65,1339.14 1856.72,1336.95 1858.79,1334.68 1860.86,1332.32 1862.93,1329.88 1865,1327.36 1867.07,1324.76 1869.14,1322.07 1871.2,1319.31 1873.27,1316.46 1875.34,1313.54 1877.41,1310.54 1879.48,1307.46 1881.55,1304.3 1883.62,1301.07 1885.69,1297.77 1887.76,1294.39 1889.83,1290.93 1891.9,1287.41 1893.97,1283.81 1896.04,1280.14 1898.11,1276.4 1900.18,1272.6 1902.25,1268.73 1904.32,1264.79 1906.39,1260.78 1908.46,1256.71 1910.53,1252.58 1912.6,1248.39 1914.66,1244.13 1916.73,1239.82 1918.8,1235.45 1920.87,1231.02 1922.94,1226.53 1925.01,1221.99 1927.08,1217.4 1929.15,1212.76 1931.22,1208.06 1933.29,1203.32 1935.36,1198.53 1937.43,1193.69 1939.5,1188.8 1941.57,1183.88 1943.64,1178.91 1945.71,1173.9 1947.78,1168.85 1949.85,1163.77 1951.92,1158.65 1953.99,1153.49 1956.06,1148.3 1958.12,1143.09 1960.19,1137.84 1962.26,1132.56 1964.33,1127.26 1966.4,1121.93 1968.47,1116.58 1970.54,1111.21 1972.61,1105.82 1974.68,1100.41 1976.75,1094.99 1978.82,1089.55 1980.89,1084.1 1982.96,1078.63 1985.03,1073.16 1987.1,1067.68 1989.17,1062.2 1991.24,1056.71 1993.31,1051.22 1995.38,1045.72 1997.45,1040.23 1999.52,1034.75 2001.58,1029.26 2003.65,1023.78 2005.72,1018.32 2007.79,1012.86 2009.86,1007.41 2011.93,1001.97 2014,996.555 2016.07,991.152 2018.14,985.768 2020.21,980.403 2022.28,975.061 2024.35,969.741 2026.42,964.447 2028.49,959.179 2030.56,953.939 2032.63,948.73 2034.7,943.551 2036.77,938.406 2038.84,933.295 2040.91,928.221 2042.97,923.185 2045.04,918.187 2047.11,913.231 2049.18,908.317 2051.25,903.447 2053.32,898.621 2055.39,893.843 2057.46,889.113 2059.53,884.432 2061.6,879.803 2063.67,875.225 2065.74,870.702 2067.81,866.234 2069.88,861.821 2071.95,857.467 2074.02,853.172 2076.09,848.937 2078.16,844.763 2080.23,840.652 2082.3,836.605 2084.37,832.624 2086.43,828.709 2088.5,824.86 2090.57,821.081 2092.64,817.371 2094.71,813.732 2096.78,810.165 2098.85,806.671 2100.92,803.25 2102.99,799.905 2105.06,796.635 2107.13,793.442 2109.2,790.326 2111.27,787.29 2113.34,784.333 2115.41,781.456 2117.48,778.66 2119.55,775.946 2121.62,773.315 2123.69,770.767 2125.76,768.303 2127.83,765.924 2129.89,763.632 2131.96,761.425 2134.03,759.305 2136.1,757.272 2138.17,755.327 2140.24,753.471 2142.31,751.705 2144.38,750.027 2146.45,748.44 2148.52,746.943 2150.59,745.537 2152.66,744.223 2154.73,742.999 2156.8,741.868 2158.87,740.83 2160.94,739.884 2163.01,739.031 2165.08,738.27 2167.15,737.603 2169.22,737.03 2171.29,736.551 2173.35,736.164 2175.42,735.872 2177.49,735.674 2179.56,735.57 2181.63,735.559 2183.7,735.642 2185.77,735.819 2187.84,736.09 2189.91,736.455 2191.98,736.913 2194.05,737.464 2196.12,738.109 2198.19,738.847 2200.26,739.678 2202.33,740.6 2204.4,741.615 2206.47,742.722 2208.54,743.921 2210.61,745.211 2212.68,746.591 2214.75,748.062 2216.81,749.623 2218.88,751.273 2220.95,753.012 2223.02,754.839 2225.09,756.754 2227.16,758.757 2229.23,760.846 2231.3,763.021 2233.37,765.281 2235.44,767.626 2237.51,770.055 2239.58,772.567 2241.65,775.161 2243.72,777.837 2245.79,780.594 2247.86,783.432 2249.93,786.348 2252,789.342 2254.07,792.413 2256.14,795.562 2258.21,798.786 2260.27,802.084 2262.34,805.456 2264.41,808.9 2266.48,812.416 2268.55,816.003 2270.62,819.659 2272.69,823.383 2274.76,827.174 2276.83,831.031 2278.9,834.954 2280.97,838.94 2283.04,842.988 2285.11,847.098 2287.18,851.268 2289.25,855.497 2291.32,859.783 2293.39,864.126 2295.46,868.523 2297.53,872.975 2299.6,877.479 2301.66,882.034 2303.73,886.639 2305.8,891.291 2307.87,895.991 2309.94,900.737 2312.01,905.526 2314.08,910.358 2316.15,915.232 2318.22,920.145 2320.29,925.097 2322.36,930.085 2324.43,935.109 2326.5,940.167 2328.57,945.257 2330.64,950.379 2332.71,955.529 2334.78,960.708 2336.85,965.912 2338.92,971.142 2340.99,976.394 2343.06,981.669 2345.12,986.963 2347.19,992.276 2349.26,997.606 2351.33,1002.95 2353.4,1008.31 2355.47,1013.68 2357.54,1019.06 2359.61,1024.45 2361.68,1029.85 2363.75,1035.26 2365.82,1040.67 2367.89,1046.08 2369.96,1051.49 2372.03,1056.9 2374.1,1062.31 2376.17,1067.71 2378.24,1073.12 2380.31,1078.51 2382.38,1083.89 2384.45,1089.27 2386.52,1094.63 2388.58,1099.98 2390.65,1105.31 2392.72,1110.63 2394.79,1115.93 2396.86,1121.21 2398.93,1126.47 2401,1131.71 2403.07,1136.92 2405.14,1142.11 2407.21,1147.27 2409.28,1152.4 2411.35,1157.5 2413.42,1162.57 2415.49,1167.61 2417.56,1172.61 2419.63,1177.57 2421.7,1182.5 2423.77,1187.39 2425.84,1192.23 2427.91,1197.04 2429.98,1201.8 2432.04,1206.52 2434.11,1211.19 2436.18,1215.81 2438.25,1220.39 2440.32,1224.91 2442.39,1229.39 2444.46,1233.81 2446.53,1238.17 2448.6,1242.49 2450.67,1246.74 2452.74,1250.94 2454.81,1255.08 2456.88,1259.15 2458.95,1263.17 2461.02,1267.12 2463.09,1271.02 2465.16,1274.84 2467.23,1278.6 2469.3,1282.29 2471.37,1285.92 2473.44,1289.48 2475.5,1292.96 2477.57,1296.38 2479.64,1299.72 2481.71,1302.99 2483.78,1306.19 2485.85,1309.31 2487.92,1312.36 2489.99,1315.33 2492.06,1318.22 2494.13,1321.03 2496.2,1323.77 2498.27,1326.42 2500.34,1329 2502.41,1331.49 2504.48,1333.91 2506.55,1336.24 2508.62,1338.48 2510.69,1340.65 2512.76,1342.73 2514.83,1344.72 2516.9,1346.63 2518.96,1348.45 2521.03,1350.19 2523.1,1351.84 2525.17,1353.4 2527.24,1354.87 2529.31,1356.26 2531.38,1357.56 2533.45,1358.76 2535.52,1359.88 2537.59,1360.91 2539.66,1361.85 2541.73,1362.7 2543.8,1363.46 2545.87,1364.13 2547.94,1364.71 2550.01,1365.2 2552.08,1365.6 2554.15,1365.9 2556.22,1366.12 2558.29,1366.24 2560.36,1366.27 2562.42,1366.21 2564.49,1366.06 2566.56,1365.82 2568.63,1365.49 2570.7,1365.07 2572.77,1364.56 "/>
<polyline clip-path="url(#clip951)" style="stroke:#008000; stroke-linecap:round; stroke-linejoin:round; stroke-width:8; stroke-opacity:1; fill:none" points="306.647,1688.65 308.717,1688.4 310.786,1687.79 312.856,1687.03 314.925,1686.23 316.995,1685.47 319.064,1684.79 321.134,1684.22 323.204,1683.77 325.273,1683.41 327.343,1683.16 329.412,1682.99 331.482,1682.88 333.551,1682.84 335.621,1682.84 337.69,1682.86 339.76,1682.91 341.829,1682.96 343.899,1683.02 345.968,1683.07 348.038,1683.11 350.107,1683.14 352.177,1683.15 354.246,1683.14 356.316,1683.11 358.385,1683.05 360.455,1682.98 362.524,1682.88 364.594,1682.75 366.663,1682.6 368.733,1682.43 370.803,1682.24 372.872,1682.03 374.942,1681.79 377.011,1681.53 379.081,1681.25 381.15,1680.95 383.22,1680.63 385.289,1680.28 387.359,1679.91 389.428,1679.52 391.498,1679.11 393.567,1678.68 395.637,1678.22 397.706,1677.73 399.776,1677.22 401.845,1676.68 403.915,1676.11 405.984,1675.51 408.054,1674.88 410.123,1674.22 412.193,1673.52 414.262,1672.79 416.332,1672.01 418.401,1671.19 420.471,1670.33 422.541,1669.43 424.61,1668.47 426.68,1667.47 428.749,1666.4 430.819,1665.29 432.888,1664.11 434.958,1662.87 437.027,1661.56 439.097,1660.18 441.166,1658.72 443.236,1657.19 445.305,1655.57 447.375,1653.86 449.444,1652.06 451.514,1650.17 453.583,1648.17 455.653,1646.06 457.722,1643.84 459.792,1641.5 461.861,1639.03 463.931,1636.43 466,1633.69 468.07,1630.8 470.139,1627.76 472.209,1624.56 474.279,1621.19 476.348,1617.64 478.418,1613.9 480.487,1609.97 482.557,1605.84 484.626,1601.49 486.696,1596.92 488.765,1592.12 490.835,1587.07 492.904,1581.77 494.974,1576.21 497.043,1570.38 499.113,1564.26 501.182,1557.85 503.252,1551.14 505.321,1544.11 507.391,1536.75 509.46,1529.07 511.53,1521.04 513.599,1512.66 515.669,1503.92 517.738,1494.81 519.808,1485.33 521.877,1475.46 523.947,1465.21 526.017,1454.57 528.086,1443.53 530.156,1432.1 532.225,1420.28 534.295,1408.06 536.364,1395.45 538.434,1382.46 540.503,1369.08 542.573,1355.34 544.642,1341.23 546.712,1326.78 548.781,1312 550.851,1296.91 552.92,1281.52 554.99,1265.86 557.059,1249.96 559.129,1233.83 561.198,1217.51 563.268,1201.02 565.337,1184.4 567.407,1167.68 569.476,1150.9 571.546,1134.09 573.616,1117.29 575.685,1100.54 577.755,1083.86 579.824,1067.3 581.894,1050.91 583.963,1034.7 586.033,1018.72 588.102,1003.01 590.172,987.586 592.241,972.493 594.311,957.757 596.38,943.405 598.45,929.461 600.519,915.949 602.589,902.888 604.658,890.297 606.728,878.189 608.797,866.578 610.867,855.473 612.936,844.881 615.006,834.806 617.075,825.251 619.145,816.215 621.214,807.697 623.284,799.691 625.354,792.191 627.423,785.19 629.493,778.679 631.562,772.645 633.632,767.078 635.701,761.965 637.771,757.291 639.84,753.043 641.91,749.206 643.979,745.764 646.049,742.702 648.118,740.005 650.188,737.657 652.257,735.644 654.327,733.949 656.396,732.558 658.466,731.457 660.535,730.632 662.605,730.068 664.674,729.754 666.744,729.677 668.813,729.824 670.883,730.184 672.952,730.746 675.022,731.501 677.092,732.438 679.161,733.549 681.231,734.824 683.3,736.255 685.37,737.836 687.439,739.559 689.509,741.417 691.578,743.405 693.648,745.515 695.717,747.745 697.787,750.087 699.856,752.538 701.926,755.093 703.995,757.749 706.065,760.501 708.134,763.347 710.204,766.283 712.273,769.305 714.343,772.412 716.412,775.602 718.482,778.87 720.551,782.215 722.621,785.636 724.69,789.13 726.76,792.695 728.83,796.329 730.899,800.03 732.969,803.798 735.038,807.631 737.108,811.527 739.177,815.485 741.247,819.502 743.316,823.579 745.386,827.714 747.455,831.905 749.525,836.151 751.594,840.452 753.664,844.805 755.733,849.21 757.803,853.666 759.872,858.17 761.942,862.723 764.011,867.323 766.081,871.969 768.15,876.659 770.22,881.392 772.289,886.169 774.359,890.986 776.428,895.844 778.498,900.74 780.568,905.674 782.637,910.644 784.707,915.65 786.776,920.69 788.846,925.762 790.915,930.866 792.985,936.001 795.054,941.165 797.124,946.357 799.193,951.575 801.263,956.819 803.332,962.087 805.402,967.378 807.471,972.691 809.541,978.024 811.61,983.376 813.68,988.746 815.749,994.132 817.819,999.534 819.888,1004.95 821.958,1010.38 824.027,1015.82 826.097,1021.27 828.167,1026.72 830.236,1032.19 832.306,1037.66 834.375,1043.13 836.445,1048.61 838.514,1054.09 840.584,1059.58 842.653,1065.06 844.723,1070.53 846.792,1076.01 848.862,1081.48 850.931,1086.94 853.001,1092.4 855.07,1097.85 857.14,1103.29 859.209,1108.71 861.279,1114.13 863.348,1119.53 865.418,1124.91 867.487,1130.28 869.557,1135.63 871.626,1140.96 873.696,1146.27 875.765,1151.56 877.835,1156.83 879.905,1162.07 881.974,1167.29 884.044,1172.48 886.113,1177.64 888.183,1182.77 890.252,1187.87 892.322,1192.94 894.391,1197.98 896.461,1202.98 898.53,1207.94 900.6,1212.87 902.669,1217.77 904.739,1222.62 906.808,1227.43 908.878,1232.21 910.947,1236.93 913.017,1241.62 915.086,1246.26 917.156,1250.86 919.225,1255.41 921.295,1259.91 923.364,1264.36 925.434,1268.76 927.503,1273.12 929.573,1277.42 931.643,1281.66 933.712,1285.86 935.782,1289.99 937.851,1294.08 939.921,1298.1 941.99,1302.07 944.06,1305.98 946.129,1309.83 948.199,1313.62 950.268,1317.35 952.338,1321.01 954.407,1324.62 956.477,1328.16 958.546,1331.63 960.616,1335.05 962.685,1338.39 964.755,1341.67 966.824,1344.88 968.894,1348.02 970.963,1351.1 973.033,1354.1 975.102,1357.04 977.172,1359.9 979.241,1362.7 981.311,1365.42 983.381,1368.07 985.45,1370.65 987.52,1373.15 989.589,1375.58 991.659,1377.94 993.728,1380.22 995.798,1382.43 997.867,1384.56 999.937,1386.62 1002.01,1388.6 1004.08,1390.5 1006.15,1392.32 1008.21,1394.07 1010.28,1395.75 1012.35,1397.34 1014.42,1398.86 1016.49,1400.29 1018.56,1401.65 1020.63,1402.93 1022.7,1404.14 1024.77,1405.26 1026.84,1406.31 1028.91,1407.27 1030.98,1408.16 1033.05,1408.97 1035.12,1409.69 1037.19,1410.34 1039.26,1410.91 1041.33,1411.4 1043.4,1411.82 1045.47,1412.15 1047.54,1412.4 1049.61,1412.58 1051.67,1412.67 1053.74,1412.69 1055.81,1412.63 1057.88,1412.49 1059.95,1412.27 1062.02,1411.97 1064.09,1411.6 1066.16,1411.15 1068.23,1410.62 1070.3,1410.02 1072.37,1409.33 1074.44,1408.58 1076.51,1407.74 1078.58,1406.83 1080.65,1405.85 1082.72,1404.78 1084.79,1403.65 1086.86,1402.44 1088.93,1401.16 1091,1399.8 1093.07,1398.37 1095.13,1396.87 1097.2,1395.3 1099.27,1393.65 1101.34,1391.94 1103.41,1390.15 1105.48,1388.29 1107.55,1386.37 1109.62,1384.37 1111.69,1382.31 1113.76,1380.18 1115.83,1377.99 1117.9,1375.72 1119.97,1373.4 1122.04,1371 1124.11,1368.55 1126.18,1366.03 1128.25,1363.44 1130.32,1360.8 1132.39,1358.09 1134.46,1355.32 1136.53,1352.5 1138.59,1349.61 1140.66,1346.67 1142.73,1343.67 1144.8,1340.61 1146.87,1337.5 1148.94,1334.33 1151.01,1331.11 1153.08,1327.84 1155.15,1324.51 1157.22,1321.14 1159.29,1317.71 1161.36,1314.23 1163.43,1310.71 1165.5,1307.14 1167.57,1303.53 1169.64,1299.86 1171.71,1296.16 1173.78,1292.41 1175.85,1288.63 1177.92,1284.8 1179.98,1280.93 1182.05,1277.02 1184.12,1273.08 1186.19,1269.1 1188.26,1265.09 1190.33,1261.04 1192.4,1256.96 1194.47,1252.85 1196.54,1248.72 1198.61,1244.55 1200.68,1240.36 1202.75,1236.14 1204.82,1231.89 1206.89,1227.63 1208.96,1223.34 1211.03,1219.03 1213.1,1214.7 1215.17,1210.36 1217.24,1205.99 1219.31,1201.62 1221.38,1197.23 1223.44,1192.83 1225.51,1188.42 1227.58,1183.99 1229.65,1179.57 1231.72,1175.13 1233.79,1170.69 1235.86,1166.25 1237.93,1161.8 1240,1157.36 1242.07,1152.91 1244.14,1148.47 1246.21,1144.03 1248.28,1139.59 1250.35,1135.17 1252.42,1130.75 1254.49,1126.34 1256.56,1121.94 1258.63,1117.55 1260.7,1113.18 1262.77,1108.82 1264.84,1104.48 1266.9,1100.15 1268.97,1095.85 1271.04,1091.56 1273.11,1087.3 1275.18,1083.06 1277.25,1078.85 1279.32,1074.66 1281.39,1070.5 1283.46,1066.37 1285.53,1062.27 1287.6,1058.2 1289.67,1054.16 1291.74,1050.15 1293.81,1046.18 1295.88,1042.25 1297.95,1038.36 1300.02,1034.5 1302.09,1030.68 1304.16,1026.9 1306.23,1023.17 1308.3,1019.48 1310.36,1015.83 1312.43,1012.23 1314.5,1008.68 1316.57,1005.17 1318.64,1001.72 1320.71,998.309 1322.78,994.953 1324.85,991.648 1326.92,988.396 1328.99,985.198 1331.06,982.055 1333.13,978.967 1335.2,975.937 1337.27,972.963 1339.34,970.048 1341.41,967.192 1343.48,964.397 1345.55,961.662 1347.62,958.989 1349.69,956.378 1351.76,953.831 1353.82,951.348 1355.89,948.929 1357.96,946.576 1360.03,944.289 1362.1,942.069 1364.17,939.916 1366.24,937.831 1368.31,935.814 1370.38,933.867 1372.45,931.99 1374.52,930.182 1376.59,928.445 1378.66,926.78 1380.73,925.187 1382.8,923.666 1384.87,922.217 1386.94,920.841 1389.01,919.538 1391.08,918.31 1393.15,917.156 1395.22,916.075 1397.28,915.07 1399.35,914.139 1401.42,913.285 1403.49,912.505 1405.56,911.8 1407.63,911.172 1409.7,910.62 1411.77,910.144 1413.84,909.744 1415.91,909.421 1417.98,909.174 1420.05,909.004 1422.12,908.91 1424.19,908.893 1426.26,908.952 1428.33,909.088 1430.4,909.301 1432.47,909.589 1434.54,909.954 1436.61,910.395 1438.68,910.912 1440.74,911.505 1442.81,912.173 1444.88,912.917 1446.95,913.737 1449.02,914.631 1451.09,915.6 1453.16,916.642 1455.23,917.759 1457.3,918.95 1459.37,920.215 1461.44,921.552 1463.51,922.961 1465.58,924.443 1467.65,925.997 1469.72,927.621 1471.79,929.316 1473.86,931.081 1475.93,932.917 1478,934.821 1480.07,936.794 1482.13,938.835 1484.2,940.943 1486.27,943.118 1488.34,945.359 1490.41,947.665 1492.48,950.035 1494.55,952.47 1496.62,954.969 1498.69,957.53 1500.76,960.152 1502.83,962.835 1504.9,965.579 1506.97,968.382 1509.04,971.244 1511.11,974.163 1513.18,977.139 1515.25,980.171 1517.32,983.259 1519.39,986.4 1521.46,989.595 1523.53,992.841 1525.59,996.139 1527.66,999.488 1529.73,1002.89 1531.8,1006.33 1533.87,1009.82 1535.94,1013.36 1538.01,1016.95 1540.08,1020.58 1542.15,1024.25 1544.22,1027.97 1546.29,1031.72 1548.36,1035.52 1550.43,1039.35 1552.5,1043.22 1554.57,1047.13 1556.64,1051.07 1558.71,1055.05 1560.78,1059.06 1562.85,1063.1 1564.92,1067.17 1566.99,1071.28 1569.05,1075.41 1571.12,1079.56 1573.19,1083.75 1575.26,1087.95 1577.33,1092.18 1579.4,1096.44 1581.47,1100.71 1583.54,1105 1585.61,1109.31 1587.68,1113.64 1589.75,1117.99 1591.82,1122.34 1593.89,1126.72 1595.96,1131.1 1598.03,1135.49 1600.1,1139.9 1602.17,1144.31 1604.24,1148.73 1606.31,1153.15 1608.38,1157.58 1610.45,1162.01 1612.51,1166.44 1614.58,1170.88 1616.65,1175.31 1618.72,1179.74 1620.79,1184.16 1622.86,1188.58 1624.93,1193 1627,1197.41 1629.07,1201.81 1631.14,1206.19 1633.21,1210.57 1635.28,1214.94 1637.35,1219.29 1639.42,1223.62 1641.49,1227.94 1643.56,1232.24 1645.63,1236.53 1647.7,1240.79 1649.77,1245.03 1651.84,1249.25 1653.91,1253.44 1655.97,1257.61 1658.04,1261.76 1660.11,1265.87 1662.18,1269.96 1664.25,1274.02 1666.32,1278.05 1668.39,1282.04 1670.46,1286 1672.53,1289.93 1674.6,1293.82 1676.67,1297.68 1678.74,1301.49 1680.81,1305.27 1682.88,1309.01 1684.95,1312.71 1687.02,1316.36 1689.09,1319.98 1691.16,1323.54 1693.23,1327.07 1695.3,1330.54 1697.37,1333.97 1699.43,1337.36 1701.5,1340.69 1703.57,1343.97 1705.64,1347.2 1707.71,1350.38 1709.78,1353.51 1711.85,1356.58 1713.92,1359.6 1715.99,1362.57 1718.06,1365.47 1720.13,1368.33 1722.2,1371.12 1724.27,1373.85 1726.34,1376.53 1728.41,1379.14 1730.48,1381.7 1732.55,1384.19 1734.62,1386.62 1736.69,1388.99 1738.76,1391.3 1740.82,1393.54 1742.89,1395.72 1744.96,1397.83 1747.03,1399.87 1749.1,1401.85 1751.17,1403.76 1753.24,1405.61 1755.31,1407.39 1757.38,1409.1 1759.45,1410.74 1761.52,1412.31 1763.59,1413.81 1765.66,1415.24 1767.73,1416.6 1769.8,1417.89 1771.87,1419.11 1773.94,1420.26 1776.01,1421.34 1778.08,1422.34 1780.15,1423.28 1782.22,1424.14 1784.28,1424.93 1786.35,1425.64 1788.42,1426.28 1790.49,1426.85 1792.56,1427.35 1794.63,1427.77 1796.7,1428.12 1798.77,1428.4 1800.84,1428.6 1802.91,1428.73 1804.98,1428.79 1807.05,1428.77 1809.12,1428.68 1811.19,1428.51 1813.26,1428.28 1815.33,1427.96 1817.4,1427.58 1819.47,1427.12 1821.54,1426.59 1823.61,1425.99 1825.68,1425.31 1827.74,1424.56 1829.81,1423.74 1831.88,1422.85 1833.95,1421.88 1836.02,1420.85 1838.09,1419.74 1840.16,1418.56 1842.23,1417.31 1844.3,1415.99 1846.37,1414.6 1848.44,1413.14 1850.51,1411.61 1852.58,1410.01 1854.65,1408.35 1856.72,1406.61 1858.79,1404.81 1860.86,1402.94 1862.93,1401 1865,1399 1867.07,1396.93 1869.14,1394.8 1871.2,1392.6 1873.27,1390.33 1875.34,1388.01 1877.41,1385.62 1879.48,1383.16 1881.55,1380.65 1883.62,1378.07 1885.69,1375.44 1887.76,1372.74 1889.83,1369.98 1891.9,1367.17 1893.97,1364.3 1896.04,1361.37 1898.11,1358.38 1900.18,1355.34 1902.25,1352.25 1904.32,1349.1 1906.39,1345.89 1908.46,1342.64 1910.53,1339.33 1912.6,1335.97 1914.66,1332.57 1916.73,1329.11 1918.8,1325.61 1920.87,1322.06 1922.94,1318.46 1925.01,1314.82 1927.08,1311.13 1929.15,1307.4 1931.22,1303.64 1933.29,1299.82 1935.36,1295.97 1937.43,1292.09 1939.5,1288.16 1941.57,1284.2 1943.64,1280.2 1945.71,1276.17 1947.78,1272.11 1949.85,1268.01 1951.92,1263.89 1953.99,1259.73 1956.06,1255.55 1958.12,1251.34 1960.19,1247.11 1962.26,1242.85 1964.33,1238.57 1966.4,1234.27 1968.47,1229.94 1970.54,1225.6 1972.61,1221.25 1974.68,1216.87 1976.75,1212.49 1978.82,1208.08 1980.89,1203.67 1982.96,1199.25 1985.03,1194.82 1987.1,1190.38 1989.17,1185.93 1991.24,1181.48 1993.31,1177.03 1995.38,1172.57 1997.45,1168.12 1999.52,1163.66 2001.58,1159.21 2003.65,1154.77 2005.72,1150.32 2007.79,1145.89 2009.86,1141.46 2011.93,1137.04 2014,1132.64 2016.07,1128.24 2018.14,1123.86 2020.21,1119.5 2022.28,1115.15 2024.35,1110.82 2026.42,1106.51 2028.49,1102.22 2030.56,1097.95 2032.63,1093.71 2034.7,1089.49 2036.77,1085.29 2038.84,1081.13 2040.91,1076.99 2042.97,1072.88 2045.04,1068.81 2047.11,1064.77 2049.18,1060.76 2051.25,1056.79 2053.32,1052.85 2055.39,1048.95 2057.46,1045.09 2059.53,1041.27 2061.6,1037.49 2063.67,1033.75 2065.74,1030.06 2067.81,1026.41 2069.88,1022.81 2071.95,1019.25 2074.02,1015.75 2076.09,1012.29 2078.16,1008.88 2080.23,1005.52 2082.3,1002.21 2084.37,998.958 2086.43,995.759 2088.5,992.615 2090.57,989.526 2092.64,986.493 2094.71,983.518 2096.78,980.602 2098.85,977.745 2100.92,974.948 2102.99,972.212 2105.06,969.538 2107.13,966.926 2109.2,964.378 2111.27,961.893 2113.34,959.473 2115.41,957.118 2117.48,954.83 2119.55,952.608 2121.62,950.453 2123.69,948.366 2125.76,946.349 2127.83,944.4 2129.89,942.52 2131.96,940.71 2134.03,938.972 2136.1,937.305 2138.17,935.708 2140.24,934.184 2142.31,932.733 2144.38,931.355 2146.45,930.049 2148.52,928.817 2150.59,927.659 2152.66,926.576 2154.73,925.567 2156.8,924.632 2158.87,923.773 2160.94,922.988 2163.01,922.28 2165.08,921.647 2167.15,921.09 2169.22,920.608 2171.29,920.203 2173.35,919.874 2175.42,919.622 2177.49,919.445 2179.56,919.344 2181.63,919.32 2183.7,919.373 2185.77,919.501 2187.84,919.705 2189.91,919.985 2191.98,920.342 2194.05,920.775 2196.12,921.282 2198.19,921.866 2200.26,922.525 2202.33,923.259 2204.4,924.067 2206.47,924.95 2208.54,925.908 2210.61,926.939 2212.68,928.045 2214.75,929.223 2216.81,930.474 2218.88,931.798 2220.95,933.195 2223.02,934.663 2225.09,936.202 2227.16,937.811 2229.23,939.491 2231.3,941.241 2233.37,943.061 2235.44,944.948 2237.51,946.904 2239.58,948.927 2241.65,951.018 2243.72,953.174 2245.79,955.396 2247.86,957.683 2249.93,960.034 2252,962.449 2254.07,964.926 2256.14,967.466 2258.21,970.066 2260.27,972.727 2262.34,975.449 2264.41,978.228 2266.48,981.066 2268.55,983.961 2270.62,986.912 2272.69,989.919 2274.76,992.98 2276.83,996.094 2278.9,999.262 2280.97,1002.48 2283.04,1005.75 2285.11,1009.07 2287.18,1012.44 2289.25,1015.85 2291.32,1019.32 2293.39,1022.83 2295.46,1026.38 2297.53,1029.98 2299.6,1033.61 2301.66,1037.3 2303.73,1041.02 2305.8,1044.78 2307.87,1048.58 2309.94,1052.41 2312.01,1056.28 2314.08,1060.19 2316.15,1064.13 2318.22,1068.1 2320.29,1072.1 2322.36,1076.13 2324.43,1080.19 2326.5,1084.28 2328.57,1088.4 2330.64,1092.54 2332.71,1096.7 2334.78,1100.89 2336.85,1105.1 2338.92,1109.33 2340.99,1113.57 2343.06,1117.84 2345.12,1122.12 2347.19,1126.42 2349.26,1130.73 2351.33,1135.05 2353.4,1139.38 2355.47,1143.73 2357.54,1148.08 2359.61,1152.44 2361.68,1156.81 2363.75,1161.18 2365.82,1165.55 2367.89,1169.93 2369.96,1174.31 2372.03,1178.69 2374.1,1183.06 2376.17,1187.43 2378.24,1191.8 2380.31,1196.17 2382.38,1200.52 2384.45,1204.87 2386.52,1209.21 2388.58,1213.54 2390.65,1217.85 2392.72,1222.16 2394.79,1226.44 2396.86,1230.72 2398.93,1234.97 2401,1239.21 2403.07,1243.43 2405.14,1247.63 2407.21,1251.8 2409.28,1255.95 2411.35,1260.08 2413.42,1264.18 2415.49,1268.26 2417.56,1272.31 2419.63,1276.33 2421.7,1280.31 2423.77,1284.27 2425.84,1288.19 2427.91,1292.08 2429.98,1295.94 2432.04,1299.76 2434.11,1303.54 2436.18,1307.28 2438.25,1310.99 2440.32,1314.65 2442.39,1318.28 2444.46,1321.86 2446.53,1325.39 2448.6,1328.89 2450.67,1332.33 2452.74,1335.73 2454.81,1339.08 2456.88,1342.39 2458.95,1345.64 2461.02,1348.85 2463.09,1352 2465.16,1355.1 2467.23,1358.15 2469.3,1361.14 2471.37,1364.08 2473.44,1366.97 2475.5,1369.79 2477.57,1372.56 2479.64,1375.28 2481.71,1377.93 2483.78,1380.52 2485.85,1383.06 2487.92,1385.53 2489.99,1387.94 2492.06,1390.29 2494.13,1392.58 2496.2,1394.8 2498.27,1396.96 2500.34,1399.05 2502.41,1401.08 2504.48,1403.04 2506.55,1404.94 2508.62,1406.77 2510.69,1408.53 2512.76,1410.22 2514.83,1411.85 2516.9,1413.41 2518.96,1414.9 2521.03,1416.31 2523.1,1417.66 2525.17,1418.94 2527.24,1420.15 2529.31,1421.29 2531.38,1422.35 2533.45,1423.35 2535.52,1424.27 2537.59,1425.12 2539.66,1425.9 2541.73,1426.6 2543.8,1427.24 2545.87,1427.8 2547.94,1428.29 2550.01,1428.7 2552.08,1429.04 2554.15,1429.31 2556.22,1429.51 2558.29,1429.63 2560.36,1429.68 2562.42,1429.66 2564.49,1429.56 2566.56,1429.39 2568.63,1429.14 2570.7,1428.83 2572.77,1428.44 "/>
<path clip-path="url(#clip950)" d="M2129.51 388.696 L2560.69 388.696 L2560.69 181.336 L2129.51 181.336  Z" fill="#ffffff" fill-rule="evenodd" fill-opacity="1"/>
<polyline clip-path="url(#clip950)" style="stroke:#000000; stroke-linecap:round; stroke-linejoin:round; stroke-width:4; stroke-opacity:1; fill:none" points="2129.51,388.696 2560.69,388.696 2560.69,181.336 2129.51,181.336 2129.51,388.696 "/>
<polyline clip-path="url(#clip950)" style="stroke:#ff0000; stroke-linecap:round; stroke-linejoin:round; stroke-width:8; stroke-opacity:1; fill:none" points="2156.2,233.176 2316.34,233.176 "/>
<path clip-path="url(#clip950)" d="M2343.03 215.896 L2349.32 215.896 L2364.65 244.808 L2364.65 215.896 L2369.18 215.896 L2369.18 250.456 L2362.89 250.456 L2347.56 221.544 L2347.56 250.456 L2343.03 250.456 L2343.03 215.896 Z" fill="#000000" fill-rule="nonzero" fill-opacity="1" /><path clip-path="url(#clip950)" d="M2388.35 227.517 Q2384.92 227.517 2382.93 230.202 Q2380.94 232.864 2380.94 237.517 Q2380.94 242.169 2382.91 244.854 Q2384.9 247.516 2388.35 247.516 Q2391.75 247.516 2393.74 244.831 Q2395.73 242.146 2395.73 237.517 Q2395.73 232.91 2393.74 230.225 Q2391.75 227.517 2388.35 227.517 M2388.35 223.906 Q2393.9 223.906 2397.08 227.517 Q2400.25 231.128 2400.25 237.517 Q2400.25 243.882 2397.08 247.516 Q2393.9 251.128 2388.35 251.128 Q2382.77 251.128 2379.6 247.516 Q2376.45 243.882 2376.45 237.517 Q2376.45 231.128 2379.6 227.517 Q2382.77 223.906 2388.35 223.906 Z" fill="#000000" fill-rule="nonzero" fill-opacity="1" /><path clip-path="url(#clip950)" d="M2422.56 215.896 L2427.24 215.896 L2427.24 250.456 L2422.56 250.456 L2422.56 215.896 Z" fill="#000000" fill-rule="nonzero" fill-opacity="1" /><path clip-path="url(#clip950)" d="M2431.75 215.896 L2460.99 215.896 L2460.99 219.831 L2448.72 219.831 L2448.72 250.456 L2444.02 250.456 L2444.02 219.831 L2431.75 219.831 L2431.75 215.896 Z" fill="#000000" fill-rule="nonzero" fill-opacity="1" /><path clip-path="url(#clip950)" d="M2465.5 215.896 L2471.8 215.896 L2487.12 244.808 L2487.12 215.896 L2491.66 215.896 L2491.66 250.456 L2485.36 250.456 L2470.04 221.544 L2470.04 250.456 L2465.5 250.456 L2465.5 215.896 Z" fill="#000000" fill-rule="nonzero" fill-opacity="1" /><polyline clip-path="url(#clip950)" style="stroke:#ffa500; stroke-linecap:round; stroke-linejoin:round; stroke-width:8; stroke-opacity:1; fill:none" points="2156.2,285.016 2316.34,285.016 "/>
<path clip-path="url(#clip950)" d="M2344.48 267.736 L2362.84 267.736 L2362.84 271.671 L2348.77 271.671 L2348.77 280.144 Q2349.78 279.796 2350.8 279.634 Q2351.82 279.449 2352.84 279.449 Q2358.63 279.449 2362.01 282.62 Q2365.39 285.792 2365.39 291.208 Q2365.39 296.787 2361.91 299.889 Q2358.44 302.968 2352.12 302.968 Q2349.95 302.968 2347.68 302.597 Q2345.43 302.227 2343.03 301.486 L2343.03 296.787 Q2345.11 297.921 2347.33 298.477 Q2349.55 299.032 2352.03 299.032 Q2356.03 299.032 2358.37 296.926 Q2360.71 294.819 2360.71 291.208 Q2360.71 287.597 2358.37 285.491 Q2356.03 283.384 2352.03 283.384 Q2350.15 283.384 2348.28 283.801 Q2346.43 284.218 2344.48 285.097 L2344.48 267.736 Z" fill="#000000" fill-rule="nonzero" fill-opacity="1" /><path clip-path="url(#clip950)" d="M2384.6 270.815 Q2380.99 270.815 2379.16 274.38 Q2377.35 277.921 2377.35 285.051 Q2377.35 292.157 2379.16 295.722 Q2380.99 299.264 2384.6 299.264 Q2388.23 299.264 2390.04 295.722 Q2391.87 292.157 2391.87 285.051 Q2391.87 277.921 2390.04 274.38 Q2388.23 270.815 2384.6 270.815 M2384.6 267.111 Q2390.41 267.111 2393.46 271.718 Q2396.54 276.301 2396.54 285.051 Q2396.54 293.778 2393.46 298.384 Q2390.41 302.968 2384.6 302.968 Q2378.79 302.968 2375.71 298.384 Q2372.65 293.778 2372.65 285.051 Q2372.65 276.301 2375.71 271.718 Q2378.79 267.111 2384.6 267.111 Z" fill="#000000" fill-rule="nonzero" fill-opacity="1" /><path clip-path="url(#clip950)" d="M2434.16 287.088 Q2432.14 287.088 2430.99 288.801 Q2429.85 290.514 2429.85 293.569 Q2429.85 296.579 2430.99 298.315 Q2432.14 300.028 2434.16 300.028 Q2436.13 300.028 2437.26 298.315 Q2438.42 296.579 2438.42 293.569 Q2438.42 290.537 2437.26 288.824 Q2436.13 287.088 2434.16 287.088 M2434.16 284.148 Q2437.82 284.148 2439.97 286.695 Q2442.12 289.241 2442.12 293.569 Q2442.12 297.898 2439.95 300.444 Q2437.79 302.968 2434.16 302.968 Q2430.46 302.968 2428.3 300.444 Q2426.15 297.898 2426.15 293.569 Q2426.15 289.218 2428.3 286.695 Q2430.48 284.148 2434.16 284.148 M2410.27 270.051 Q2408.28 270.051 2407.12 271.787 Q2405.99 273.5 2405.99 276.509 Q2405.99 279.565 2407.12 281.278 Q2408.26 282.991 2410.27 282.991 Q2412.28 282.991 2413.42 281.278 Q2414.58 279.565 2414.58 276.509 Q2414.58 273.523 2413.42 271.787 Q2412.26 270.051 2410.27 270.051 M2431.17 267.111 L2434.88 267.111 L2413.26 302.968 L2409.55 302.968 L2431.17 267.111 M2410.27 267.111 Q2413.93 267.111 2416.1 269.658 Q2418.28 272.181 2418.28 276.509 Q2418.28 280.884 2416.1 283.408 Q2413.95 285.931 2410.27 285.931 Q2406.59 285.931 2404.44 283.408 Q2402.31 280.861 2402.31 276.509 Q2402.31 272.204 2404.46 269.658 Q2406.61 267.111 2410.27 267.111 Z" fill="#000000" fill-rule="nonzero" fill-opacity="1" /><path clip-path="url(#clip950)" d="M2464.46 267.736 L2469.14 267.736 L2469.14 302.296 L2464.46 302.296 L2464.46 267.736 Z" fill="#000000" fill-rule="nonzero" fill-opacity="1" /><path clip-path="url(#clip950)" d="M2473.65 267.736 L2502.89 267.736 L2502.89 271.671 L2490.62 271.671 L2490.62 302.296 L2485.92 302.296 L2485.92 271.671 L2473.65 271.671 L2473.65 267.736 Z" fill="#000000" fill-rule="nonzero" fill-opacity="1" /><path clip-path="url(#clip950)" d="M2507.4 267.736 L2513.7 267.736 L2529.02 296.648 L2529.02 267.736 L2533.56 267.736 L2533.56 302.296 L2527.26 302.296 L2511.94 273.384 L2511.94 302.296 L2507.4 302.296 L2507.4 267.736 Z" fill="#000000" fill-rule="nonzero" fill-opacity="1" /><polyline clip-path="url(#clip950)" style="stroke:#008000; stroke-linecap:round; stroke-linejoin:round; stroke-width:8; stroke-opacity:1; fill:none" points="2156.2,336.856 2316.34,336.856 "/>
<path clip-path="url(#clip950)" d="M2354.88 337.724 Q2351.54 337.724 2349.62 339.507 Q2347.72 341.289 2347.72 344.414 Q2347.72 347.539 2349.62 349.321 Q2351.54 351.104 2354.88 351.104 Q2358.21 351.104 2360.13 349.321 Q2362.05 347.516 2362.05 344.414 Q2362.05 341.289 2360.13 339.507 Q2358.23 337.724 2354.88 337.724 M2350.2 335.734 Q2347.19 334.993 2345.5 332.933 Q2343.84 330.873 2343.84 327.91 Q2343.84 323.766 2346.78 321.359 Q2349.74 318.951 2354.88 318.951 Q2360.04 318.951 2362.98 321.359 Q2365.92 323.766 2365.92 327.91 Q2365.92 330.873 2364.23 332.933 Q2362.56 334.993 2359.58 335.734 Q2362.96 336.521 2364.83 338.812 Q2366.73 341.104 2366.73 344.414 Q2366.73 349.437 2363.65 352.122 Q2360.59 354.808 2354.88 354.808 Q2349.16 354.808 2346.08 352.122 Q2343.03 349.437 2343.03 344.414 Q2343.03 341.104 2344.92 338.812 Q2346.82 336.521 2350.2 335.734 M2348.49 328.349 Q2348.49 331.035 2350.15 332.539 Q2351.84 334.044 2354.88 334.044 Q2357.89 334.044 2359.58 332.539 Q2361.29 331.035 2361.29 328.349 Q2361.29 325.664 2359.58 324.16 Q2357.89 322.655 2354.88 322.655 Q2351.84 322.655 2350.15 324.16 Q2348.49 325.664 2348.49 328.349 Z" fill="#000000" fill-rule="nonzero" fill-opacity="1" /><path clip-path="url(#clip950)" d="M2385.04 322.655 Q2381.43 322.655 2379.6 326.22 Q2377.79 329.761 2377.79 336.891 Q2377.79 343.997 2379.6 347.562 Q2381.43 351.104 2385.04 351.104 Q2388.67 351.104 2390.48 347.562 Q2392.31 343.997 2392.31 336.891 Q2392.31 329.761 2390.48 326.22 Q2388.67 322.655 2385.04 322.655 M2385.04 318.951 Q2390.85 318.951 2393.9 323.558 Q2396.98 328.141 2396.98 336.891 Q2396.98 345.618 2393.9 350.224 Q2390.85 354.808 2385.04 354.808 Q2379.23 354.808 2376.15 350.224 Q2373.09 345.618 2373.09 336.891 Q2373.09 328.141 2376.15 323.558 Q2379.23 318.951 2385.04 318.951 Z" fill="#000000" fill-rule="nonzero" fill-opacity="1" /><path clip-path="url(#clip950)" d="M2434.6 338.928 Q2432.58 338.928 2431.43 340.641 Q2430.29 342.354 2430.29 345.409 Q2430.29 348.419 2431.43 350.155 Q2432.58 351.868 2434.6 351.868 Q2436.57 351.868 2437.7 350.155 Q2438.86 348.419 2438.86 345.409 Q2438.86 342.377 2437.7 340.664 Q2436.57 338.928 2434.6 338.928 M2434.6 335.988 Q2438.26 335.988 2440.41 338.535 Q2442.56 341.081 2442.56 345.409 Q2442.56 349.738 2440.39 352.284 Q2438.23 354.808 2434.6 354.808 Q2430.89 354.808 2428.74 352.284 Q2426.59 349.738 2426.59 345.409 Q2426.59 341.058 2428.74 338.535 Q2430.92 335.988 2434.6 335.988 M2410.71 321.891 Q2408.72 321.891 2407.56 323.627 Q2406.43 325.34 2406.43 328.349 Q2406.43 331.405 2407.56 333.118 Q2408.7 334.831 2410.71 334.831 Q2412.72 334.831 2413.86 333.118 Q2415.02 331.405 2415.02 328.349 Q2415.02 325.363 2413.86 323.627 Q2412.7 321.891 2410.71 321.891 M2431.61 318.951 L2435.32 318.951 L2413.7 354.808 L2409.99 354.808 L2431.61 318.951 M2410.71 318.951 Q2414.37 318.951 2416.54 321.498 Q2418.72 324.021 2418.72 328.349 Q2418.72 332.724 2416.54 335.248 Q2414.39 337.771 2410.71 337.771 Q2407.03 337.771 2404.88 335.248 Q2402.75 332.701 2402.75 328.349 Q2402.75 324.044 2404.9 321.498 Q2407.05 318.951 2410.71 318.951 Z" fill="#000000" fill-rule="nonzero" fill-opacity="1" /><path clip-path="url(#clip950)" d="M2464.9 319.576 L2469.58 319.576 L2469.58 354.136 L2464.9 354.136 L2464.9 319.576 Z" fill="#000000" fill-rule="nonzero" fill-opacity="1" /><path clip-path="url(#clip950)" d="M2474.09 319.576 L2503.33 319.576 L2503.33 323.511 L2491.06 323.511 L2491.06 354.136 L2486.36 354.136 L2486.36 323.511 L2474.09 323.511 L2474.09 319.576 Z" fill="#000000" fill-rule="nonzero" fill-opacity="1" /><path clip-path="url(#clip950)" d="M2507.84 319.576 L2514.14 319.576 L2529.46 348.488 L2529.46 319.576 L2534 319.576 L2534 354.136 L2527.7 354.136 L2512.38 325.224 L2512.38 354.136 L2507.84 354.136 L2507.84 319.576 Z" fill="#000000" fill-rule="nonzero" fill-opacity="1" /></svg>
