<?xml version="1.0" encoding="utf-8"?>
<svg xmlns="http://www.w3.org/2000/svg" xmlns:xlink="http://www.w3.org/1999/xlink" width="672" height="480" viewBox="0 0 2688 1920">
<defs>
  <clipPath id="clip980">
    <rect x="0" y="0" width="2688" height="1920"/>
  </clipPath>
</defs>
<path clip-path="url(#clip980)" d="M0 1920 L2688 1920 L2688 -4.26326e-14 L0 -4.26326e-14  Z" fill="#ffffff" fill-rule="evenodd" fill-opacity="1"/>
<defs>
  <clipPath id="clip981">
    <rect x="211" y="127" width="2430" height="1607"/>
  </clipPath>
</defs>
<path clip-path="url(#clip980)" d="M211.395 1734.12 L2640.76 1734.12 L2640.76 127.792 L211.395 127.792  Z" fill="#ffffff" fill-rule="evenodd" fill-opacity="1"/>
<polyline clip-path="url(#clip981)" style="stroke:#000000; stroke-linecap:round; stroke-linejoin:round; stroke-width:2; stroke-opacity:0.1; fill:none" points="280.151,1734.12 280.151,127.792 "/>
<polyline clip-path="url(#clip981)" style="stroke:#000000; stroke-linecap:round; stroke-linejoin:round; stroke-width:2; stroke-opacity:0.1; fill:none" points="853.113,1734.12 853.113,127.792 "/>
<polyline clip-path="url(#clip981)" style="stroke:#000000; stroke-linecap:round; stroke-linejoin:round; stroke-width:2; stroke-opacity:0.1; fill:none" points="1426.08,1734.12 1426.08,127.792 "/>
<polyline clip-path="url(#clip981)" style="stroke:#000000; stroke-linecap:round; stroke-linejoin:round; stroke-width:2; stroke-opacity:0.1; fill:none" points="1999.04,1734.12 1999.04,127.792 "/>
<polyline clip-path="url(#clip981)" style="stroke:#000000; stroke-linecap:round; stroke-linejoin:round; stroke-width:2; stroke-opacity:0.1; fill:none" points="2572,1734.12 2572,127.792 "/>
<polyline clip-path="url(#clip981)" style="stroke:#000000; stroke-linecap:round; stroke-linejoin:round; stroke-width:2; stroke-opacity:0.1; fill:none" points="211.395,1697.06 2640.76,1697.06 "/>
<polyline clip-path="url(#clip981)" style="stroke:#000000; stroke-linecap:round; stroke-linejoin:round; stroke-width:2; stroke-opacity:0.1; fill:none" points="211.395,1382.88 2640.76,1382.88 "/>
<polyline clip-path="url(#clip981)" style="stroke:#000000; stroke-linecap:round; stroke-linejoin:round; stroke-width:2; stroke-opacity:0.1; fill:none" points="211.395,1068.69 2640.76,1068.69 "/>
<polyline clip-path="url(#clip981)" style="stroke:#000000; stroke-linecap:round; stroke-linejoin:round; stroke-width:2; stroke-opacity:0.1; fill:none" points="211.395,754.501 2640.76,754.501 "/>
<polyline clip-path="url(#clip981)" style="stroke:#000000; stroke-linecap:round; stroke-linejoin:round; stroke-width:2; stroke-opacity:0.1; fill:none" points="211.395,440.314 2640.76,440.314 "/>
<polyline clip-path="url(#clip980)" style="stroke:#000000; stroke-linecap:round; stroke-linejoin:round; stroke-width:4; stroke-opacity:1; fill:none" points="211.395,1734.12 2640.76,1734.12 "/>
<polyline clip-path="url(#clip980)" style="stroke:#000000; stroke-linecap:round; stroke-linejoin:round; stroke-width:4; stroke-opacity:1; fill:none" points="280.151,1734.12 280.151,1715.22 "/>
<polyline clip-path="url(#clip980)" style="stroke:#000000; stroke-linecap:round; stroke-linejoin:round; stroke-width:4; stroke-opacity:1; fill:none" points="853.113,1734.12 853.113,1715.22 "/>
<polyline clip-path="url(#clip980)" style="stroke:#000000; stroke-linecap:round; stroke-linejoin:round; stroke-width:4; stroke-opacity:1; fill:none" points="1426.08,1734.12 1426.08,1715.22 "/>
<polyline clip-path="url(#clip980)" style="stroke:#000000; stroke-linecap:round; stroke-linejoin:round; stroke-width:4; stroke-opacity:1; fill:none" points="1999.04,1734.12 1999.04,1715.22 "/>
<polyline clip-path="url(#clip980)" style="stroke:#000000; stroke-linecap:round; stroke-linejoin:round; stroke-width:4; stroke-opacity:1; fill:none" points="2572,1734.12 2572,1715.22 "/>
<path clip-path="url(#clip980)" d="M257.535 1767.34 Q253.924 1767.34 252.095 1770.9 Q250.29 1774.45 250.29 1781.58 Q250.29 1788.68 252.095 1792.25 Q253.924 1795.79 257.535 1795.79 Q261.169 1795.79 262.975 1792.25 Q264.804 1788.68 264.804 1781.58 Q264.804 1774.45 262.975 1770.9 Q261.169 1767.34 257.535 1767.34 M257.535 1763.64 Q263.345 1763.64 266.401 1768.24 Q269.48 1772.83 269.48 1781.58 Q269.48 1790.3 266.401 1794.91 Q263.345 1799.49 257.535 1799.49 Q251.725 1799.49 248.646 1794.91 Q245.591 1790.3 245.591 1781.58 Q245.591 1772.83 248.646 1768.24 Q251.725 1763.64 257.535 1763.64 Z" fill="#000000" fill-rule="nonzero" fill-opacity="1" /><path clip-path="url(#clip980)" d="M277.697 1792.94 L282.581 1792.94 L282.581 1798.82 L277.697 1798.82 L277.697 1792.94 Z" fill="#000000" fill-rule="nonzero" fill-opacity="1" /><path clip-path="url(#clip980)" d="M302.766 1767.34 Q299.155 1767.34 297.327 1770.9 Q295.521 1774.45 295.521 1781.58 Q295.521 1788.68 297.327 1792.25 Q299.155 1795.79 302.766 1795.79 Q306.401 1795.79 308.206 1792.25 Q310.035 1788.68 310.035 1781.58 Q310.035 1774.45 308.206 1770.9 Q306.401 1767.34 302.766 1767.34 M302.766 1763.64 Q308.577 1763.64 311.632 1768.24 Q314.711 1772.83 314.711 1781.58 Q314.711 1790.3 311.632 1794.91 Q308.577 1799.49 302.766 1799.49 Q296.956 1799.49 293.878 1794.91 Q290.822 1790.3 290.822 1781.58 Q290.822 1772.83 293.878 1768.24 Q296.956 1763.64 302.766 1763.64 Z" fill="#000000" fill-rule="nonzero" fill-opacity="1" /><path clip-path="url(#clip980)" d="M830.995 1767.34 Q827.384 1767.34 825.555 1770.9 Q823.75 1774.45 823.75 1781.58 Q823.75 1788.68 825.555 1792.25 Q827.384 1795.79 830.995 1795.79 Q834.629 1795.79 836.435 1792.25 Q838.264 1788.68 838.264 1781.58 Q838.264 1774.45 836.435 1770.9 Q834.629 1767.34 830.995 1767.34 M830.995 1763.64 Q836.805 1763.64 839.861 1768.24 Q842.94 1772.83 842.94 1781.58 Q842.94 1790.3 839.861 1794.91 Q836.805 1799.49 830.995 1799.49 Q825.185 1799.49 822.106 1794.91 Q819.051 1790.3 819.051 1781.58 Q819.051 1772.83 822.106 1768.24 Q825.185 1763.64 830.995 1763.64 Z" fill="#000000" fill-rule="nonzero" fill-opacity="1" /><path clip-path="url(#clip980)" d="M851.157 1792.94 L856.041 1792.94 L856.041 1798.82 L851.157 1798.82 L851.157 1792.94 Z" fill="#000000" fill-rule="nonzero" fill-opacity="1" /><path clip-path="url(#clip980)" d="M866.273 1764.26 L884.629 1764.26 L884.629 1768.2 L870.555 1768.2 L870.555 1776.67 Q871.574 1776.32 872.592 1776.16 Q873.611 1775.97 874.629 1775.97 Q880.416 1775.97 883.796 1779.15 Q887.175 1782.32 887.175 1787.73 Q887.175 1793.31 883.703 1796.41 Q880.231 1799.49 873.912 1799.49 Q871.736 1799.49 869.467 1799.12 Q867.222 1798.75 864.814 1798.01 L864.814 1793.31 Q866.898 1794.45 869.12 1795 Q871.342 1795.56 873.819 1795.56 Q877.824 1795.56 880.162 1793.45 Q882.5 1791.34 882.5 1787.73 Q882.5 1784.12 880.162 1782.02 Q877.824 1779.91 873.819 1779.91 Q871.944 1779.91 870.069 1780.33 Q868.217 1780.74 866.273 1781.62 L866.273 1764.26 Z" fill="#000000" fill-rule="nonzero" fill-opacity="1" /><path clip-path="url(#clip980)" d="M1393.23 1794.89 L1400.87 1794.89 L1400.87 1768.52 L1392.56 1770.19 L1392.56 1765.93 L1400.82 1764.26 L1405.5 1764.26 L1405.5 1794.89 L1413.14 1794.89 L1413.14 1798.82 L1393.23 1798.82 L1393.23 1794.89 Z" fill="#000000" fill-rule="nonzero" fill-opacity="1" /><path clip-path="url(#clip980)" d="M1422.58 1792.94 L1427.46 1792.94 L1427.46 1798.82 L1422.58 1798.82 L1422.58 1792.94 Z" fill="#000000" fill-rule="nonzero" fill-opacity="1" /><path clip-path="url(#clip980)" d="M1447.65 1767.34 Q1444.04 1767.34 1442.21 1770.9 Q1440.4 1774.45 1440.4 1781.58 Q1440.4 1788.68 1442.21 1792.25 Q1444.04 1795.79 1447.65 1795.79 Q1451.28 1795.79 1453.09 1792.25 Q1454.92 1788.68 1454.92 1781.58 Q1454.92 1774.45 1453.09 1770.9 Q1451.28 1767.34 1447.65 1767.34 M1447.65 1763.64 Q1453.46 1763.64 1456.52 1768.24 Q1459.59 1772.83 1459.59 1781.58 Q1459.59 1790.3 1456.52 1794.91 Q1453.46 1799.49 1447.65 1799.49 Q1441.84 1799.49 1438.76 1794.91 Q1435.71 1790.3 1435.71 1781.58 Q1435.71 1772.83 1438.76 1768.24 Q1441.84 1763.64 1447.65 1763.64 Z" fill="#000000" fill-rule="nonzero" fill-opacity="1" /><path clip-path="url(#clip980)" d="M1966.69 1794.89 L1974.33 1794.89 L1974.33 1768.52 L1966.02 1770.19 L1966.02 1765.93 L1974.28 1764.26 L1978.96 1764.26 L1978.96 1794.89 L1986.6 1794.89 L1986.6 1798.82 L1966.69 1798.82 L1966.69 1794.89 Z" fill="#000000" fill-rule="nonzero" fill-opacity="1" /><path clip-path="url(#clip980)" d="M1996.04 1792.94 L2000.92 1792.94 L2000.92 1798.82 L1996.04 1798.82 L1996.04 1792.94 Z" fill="#000000" fill-rule="nonzero" fill-opacity="1" /><path clip-path="url(#clip980)" d="M2011.16 1764.26 L2029.51 1764.26 L2029.51 1768.2 L2015.44 1768.2 L2015.44 1776.67 Q2016.46 1776.32 2017.48 1776.16 Q2018.49 1775.97 2019.51 1775.97 Q2025.3 1775.97 2028.68 1779.15 Q2032.06 1782.32 2032.06 1787.73 Q2032.06 1793.31 2028.59 1796.41 Q2025.11 1799.49 2018.79 1799.49 Q2016.62 1799.49 2014.35 1799.12 Q2012.11 1798.75 2009.7 1798.01 L2009.7 1793.31 Q2011.78 1794.45 2014 1795 Q2016.23 1795.56 2018.7 1795.56 Q2022.71 1795.56 2025.04 1793.45 Q2027.38 1791.34 2027.38 1787.73 Q2027.38 1784.12 2025.04 1782.02 Q2022.71 1779.91 2018.7 1779.91 Q2016.83 1779.91 2014.95 1780.33 Q2013.1 1780.74 2011.16 1781.62 L2011.16 1764.26 Z" fill="#000000" fill-rule="nonzero" fill-opacity="1" /><path clip-path="url(#clip980)" d="M2543.24 1794.89 L2559.56 1794.89 L2559.56 1798.82 L2537.61 1798.82 L2537.61 1794.89 Q2540.28 1792.13 2544.86 1787.5 Q2549.47 1782.85 2550.65 1781.51 Q2552.89 1778.98 2553.77 1777.25 Q2554.67 1775.49 2554.67 1773.8 Q2554.67 1771.04 2552.73 1769.31 Q2550.81 1767.57 2547.71 1767.57 Q2545.51 1767.57 2543.05 1768.34 Q2540.62 1769.1 2537.85 1770.65 L2537.85 1765.93 Q2540.67 1764.79 2543.12 1764.21 Q2545.58 1763.64 2547.61 1763.64 Q2552.98 1763.64 2556.18 1766.32 Q2559.37 1769.01 2559.37 1773.5 Q2559.37 1775.63 2558.56 1777.55 Q2557.78 1779.45 2555.67 1782.04 Q2555.09 1782.71 2551.99 1785.93 Q2548.89 1789.12 2543.24 1794.89 Z" fill="#000000" fill-rule="nonzero" fill-opacity="1" /><path clip-path="url(#clip980)" d="M2569.37 1792.94 L2574.26 1792.94 L2574.26 1798.82 L2569.37 1798.82 L2569.37 1792.94 Z" fill="#000000" fill-rule="nonzero" fill-opacity="1" /><path clip-path="url(#clip980)" d="M2594.44 1767.34 Q2590.83 1767.34 2589 1770.9 Q2587.2 1774.45 2587.2 1781.58 Q2587.2 1788.68 2589 1792.25 Q2590.83 1795.79 2594.44 1795.79 Q2598.08 1795.79 2599.88 1792.25 Q2601.71 1788.68 2601.71 1781.58 Q2601.71 1774.45 2599.88 1770.9 Q2598.08 1767.34 2594.44 1767.34 M2594.44 1763.64 Q2600.25 1763.64 2603.31 1768.24 Q2606.39 1772.83 2606.39 1781.58 Q2606.39 1790.3 2603.31 1794.91 Q2600.25 1799.49 2594.44 1799.49 Q2588.63 1799.49 2585.55 1794.91 Q2582.5 1790.3 2582.5 1781.58 Q2582.5 1772.83 2585.55 1768.24 Q2588.63 1763.64 2594.44 1763.64 Z" fill="#000000" fill-rule="nonzero" fill-opacity="1" /><path clip-path="url(#clip980)" d="M1357.01 1835.78 L1363.91 1835.78 L1377.09 1855.32 L1390.17 1835.78 L1397.08 1835.78 L1380.27 1860.67 L1380.27 1883.3 L1373.81 1883.3 L1373.81 1860.67 L1357.01 1835.78 Z" fill="#000000" fill-rule="nonzero" fill-opacity="1" /><path clip-path="url(#clip980)" d="M1424.93 1864.01 L1424.93 1866.88 L1398 1866.88 Q1398.38 1872.92 1401.63 1876.11 Q1404.91 1879.26 1410.73 1879.26 Q1414.11 1879.26 1417.26 1878.43 Q1420.44 1877.6 1423.56 1875.95 L1423.56 1881.49 Q1420.41 1882.82 1417.1 1883.52 Q1413.79 1884.22 1410.38 1884.22 Q1401.85 1884.22 1396.86 1879.26 Q1391.89 1874.29 1391.89 1865.83 Q1391.89 1857.07 1396.6 1851.95 Q1401.34 1846.79 1409.37 1846.79 Q1416.56 1846.79 1420.73 1851.44 Q1424.93 1856.06 1424.93 1864.01 M1419.07 1862.29 Q1419.01 1857.49 1416.37 1854.62 Q1413.76 1851.76 1409.43 1851.76 Q1404.53 1851.76 1401.57 1854.53 Q1398.64 1857.3 1398.19 1862.33 L1419.07 1862.29 Z" fill="#000000" fill-rule="nonzero" fill-opacity="1" /><path clip-path="url(#clip980)" d="M1450.74 1865.38 Q1443.64 1865.38 1440.91 1867 Q1438.17 1868.63 1438.17 1872.54 Q1438.17 1875.66 1440.21 1877.51 Q1442.28 1879.32 1445.81 1879.32 Q1450.68 1879.32 1453.61 1875.88 Q1456.57 1872.42 1456.57 1866.69 L1456.57 1865.38 L1450.74 1865.38 M1462.42 1862.96 L1462.42 1883.3 L1456.57 1883.3 L1456.57 1877.89 Q1454.56 1881.14 1451.57 1882.7 Q1448.58 1884.22 1444.25 1884.22 Q1438.78 1884.22 1435.53 1881.17 Q1432.31 1878.08 1432.31 1872.92 Q1432.31 1866.91 1436.32 1863.85 Q1440.37 1860.8 1448.36 1860.8 L1456.57 1860.8 L1456.57 1860.23 Q1456.57 1856.18 1453.89 1853.99 Q1451.25 1851.76 1446.45 1851.76 Q1443.39 1851.76 1440.49 1852.49 Q1437.6 1853.22 1434.92 1854.69 L1434.92 1849.28 Q1438.14 1848.03 1441.16 1847.43 Q1444.19 1846.79 1447.05 1846.79 Q1454.78 1846.79 1458.6 1850.8 Q1462.42 1854.81 1462.42 1862.96 Z" fill="#000000" fill-rule="nonzero" fill-opacity="1" /><path clip-path="url(#clip980)" d="M1495.14 1853.13 Q1494.16 1852.55 1492.98 1852.3 Q1491.83 1852.01 1490.43 1852.01 Q1485.47 1852.01 1482.79 1855.26 Q1480.15 1858.47 1480.15 1864.52 L1480.15 1883.3 L1474.26 1883.3 L1474.26 1847.65 L1480.15 1847.65 L1480.15 1853.19 Q1482 1849.94 1484.96 1848.39 Q1487.92 1846.79 1492.15 1846.79 Q1492.76 1846.79 1493.49 1846.89 Q1494.22 1846.95 1495.11 1847.11 L1495.14 1853.13 Z" fill="#000000" fill-rule="nonzero" fill-opacity="1" /><polyline clip-path="url(#clip980)" style="stroke:#000000; stroke-linecap:round; stroke-linejoin:round; stroke-width:4; stroke-opacity:1; fill:none" points="211.395,1734.12 211.395,127.792 "/>
<polyline clip-path="url(#clip980)" style="stroke:#000000; stroke-linecap:round; stroke-linejoin:round; stroke-width:4; stroke-opacity:1; fill:none" points="211.395,1697.06 230.293,1697.06 "/>
<polyline clip-path="url(#clip980)" style="stroke:#000000; stroke-linecap:round; stroke-linejoin:round; stroke-width:4; stroke-opacity:1; fill:none" points="211.395,1382.88 230.293,1382.88 "/>
<polyline clip-path="url(#clip980)" style="stroke:#000000; stroke-linecap:round; stroke-linejoin:round; stroke-width:4; stroke-opacity:1; fill:none" points="211.395,1068.69 230.293,1068.69 "/>
<polyline clip-path="url(#clip980)" style="stroke:#000000; stroke-linecap:round; stroke-linejoin:round; stroke-width:4; stroke-opacity:1; fill:none" points="211.395,754.501 230.293,754.501 "/>
<polyline clip-path="url(#clip980)" style="stroke:#000000; stroke-linecap:round; stroke-linejoin:round; stroke-width:4; stroke-opacity:1; fill:none" points="211.395,440.314 230.293,440.314 "/>
<path clip-path="url(#clip980)" d="M159.131 1682.86 Q155.52 1682.86 153.691 1686.43 Q151.886 1689.97 151.886 1697.1 Q151.886 1704.2 153.691 1707.77 Q155.52 1711.31 159.131 1711.31 Q162.765 1711.31 164.571 1707.77 Q166.399 1704.2 166.399 1697.1 Q166.399 1689.97 164.571 1686.43 Q162.765 1682.86 159.131 1682.86 M159.131 1679.16 Q164.941 1679.16 167.997 1683.76 Q171.075 1688.35 171.075 1697.1 Q171.075 1705.82 167.997 1710.43 Q164.941 1715.01 159.131 1715.01 Q153.321 1715.01 150.242 1710.43 Q147.186 1705.82 147.186 1697.1 Q147.186 1688.35 150.242 1683.76 Q153.321 1679.16 159.131 1679.16 Z" fill="#000000" fill-rule="nonzero" fill-opacity="1" /><path clip-path="url(#clip980)" d="M119.779 1396.22 L127.418 1396.22 L127.418 1369.86 L119.108 1371.52 L119.108 1367.26 L127.372 1365.6 L132.048 1365.6 L132.048 1396.22 L139.687 1396.22 L139.687 1400.16 L119.779 1400.16 L119.779 1396.22 Z" fill="#000000" fill-rule="nonzero" fill-opacity="1" /><path clip-path="url(#clip980)" d="M159.131 1368.67 Q155.52 1368.67 153.691 1372.24 Q151.886 1375.78 151.886 1382.91 Q151.886 1390.02 153.691 1393.58 Q155.52 1397.12 159.131 1397.12 Q162.765 1397.12 164.571 1393.58 Q166.399 1390.02 166.399 1382.91 Q166.399 1375.78 164.571 1372.24 Q162.765 1368.67 159.131 1368.67 M159.131 1364.97 Q164.941 1364.97 167.997 1369.58 Q171.075 1374.16 171.075 1382.91 Q171.075 1391.64 167.997 1396.24 Q164.941 1400.83 159.131 1400.83 Q153.321 1400.83 150.242 1396.24 Q147.186 1391.64 147.186 1382.91 Q147.186 1374.16 150.242 1369.58 Q153.321 1364.97 159.131 1364.97 Z" fill="#000000" fill-rule="nonzero" fill-opacity="1" /><path clip-path="url(#clip980)" d="M122.997 1082.03 L139.316 1082.03 L139.316 1085.97 L117.372 1085.97 L117.372 1082.03 Q120.034 1079.28 124.617 1074.65 Q129.224 1070 130.404 1068.65 Q132.65 1066.13 133.529 1064.39 Q134.432 1062.64 134.432 1060.95 Q134.432 1058.19 132.488 1056.45 Q130.566 1054.72 127.464 1054.72 Q125.265 1054.72 122.812 1055.48 Q120.381 1056.25 117.603 1057.8 L117.603 1053.08 Q120.427 1051.94 122.881 1051.36 Q125.335 1050.78 127.372 1050.78 Q132.742 1050.78 135.937 1053.47 Q139.131 1056.15 139.131 1060.64 Q139.131 1062.77 138.321 1064.7 Q137.534 1066.59 135.427 1069.19 Q134.849 1069.86 131.747 1073.08 Q128.645 1076.27 122.997 1082.03 Z" fill="#000000" fill-rule="nonzero" fill-opacity="1" /><path clip-path="url(#clip980)" d="M159.131 1054.49 Q155.52 1054.49 153.691 1058.05 Q151.886 1061.59 151.886 1068.72 Q151.886 1075.83 153.691 1079.39 Q155.52 1082.94 159.131 1082.94 Q162.765 1082.94 164.571 1079.39 Q166.399 1075.83 166.399 1068.72 Q166.399 1061.59 164.571 1058.05 Q162.765 1054.49 159.131 1054.49 M159.131 1050.78 Q164.941 1050.78 167.997 1055.39 Q171.075 1059.97 171.075 1068.72 Q171.075 1077.45 167.997 1082.06 Q164.941 1086.64 159.131 1086.64 Q153.321 1086.64 150.242 1082.06 Q147.186 1077.45 147.186 1068.72 Q147.186 1059.97 150.242 1055.39 Q153.321 1050.78 159.131 1050.78 Z" fill="#000000" fill-rule="nonzero" fill-opacity="1" /><path clip-path="url(#clip980)" d="M133.136 753.147 Q136.492 753.864 138.367 756.133 Q140.265 758.401 140.265 761.735 Q140.265 766.85 136.747 769.651 Q133.228 772.452 126.747 772.452 Q124.571 772.452 122.256 772.012 Q119.964 771.596 117.511 770.739 L117.511 766.225 Q119.455 767.36 121.77 767.938 Q124.085 768.517 126.608 768.517 Q131.006 768.517 133.298 766.781 Q135.612 765.045 135.612 761.735 Q135.612 758.679 133.46 756.966 Q131.33 755.23 127.511 755.23 L123.483 755.23 L123.483 751.388 L127.696 751.388 Q131.145 751.388 132.974 750.022 Q134.802 748.633 134.802 746.04 Q134.802 743.378 132.904 741.966 Q131.029 740.531 127.511 740.531 Q125.589 740.531 123.39 740.948 Q121.191 741.364 118.552 742.244 L118.552 738.077 Q121.214 737.337 123.529 736.966 Q125.867 736.596 127.927 736.596 Q133.251 736.596 136.353 739.027 Q139.455 741.434 139.455 745.554 Q139.455 748.425 137.812 750.415 Q136.168 752.383 133.136 753.147 Z" fill="#000000" fill-rule="nonzero" fill-opacity="1" /><path clip-path="url(#clip980)" d="M159.131 740.3 Q155.52 740.3 153.691 743.864 Q151.886 747.406 151.886 754.536 Q151.886 761.642 153.691 765.207 Q155.52 768.749 159.131 768.749 Q162.765 768.749 164.571 765.207 Q166.399 761.642 166.399 754.536 Q166.399 747.406 164.571 743.864 Q162.765 740.3 159.131 740.3 M159.131 736.596 Q164.941 736.596 167.997 741.202 Q171.075 745.786 171.075 754.536 Q171.075 763.263 167.997 767.869 Q164.941 772.452 159.131 772.452 Q153.321 772.452 150.242 767.869 Q147.186 763.263 147.186 754.536 Q147.186 745.786 150.242 741.202 Q153.321 736.596 159.131 736.596 Z" fill="#000000" fill-rule="nonzero" fill-opacity="1" /><path clip-path="url(#clip980)" d="M131.816 427.108 L120.011 445.557 L131.816 445.557 L131.816 427.108 M130.589 423.034 L136.469 423.034 L136.469 445.557 L141.399 445.557 L141.399 449.445 L136.469 449.445 L136.469 457.594 L131.816 457.594 L131.816 449.445 L116.214 449.445 L116.214 444.932 L130.589 423.034 Z" fill="#000000" fill-rule="nonzero" fill-opacity="1" /><path clip-path="url(#clip980)" d="M159.131 426.112 Q155.52 426.112 153.691 429.677 Q151.886 433.219 151.886 440.348 Q151.886 447.455 153.691 451.019 Q155.52 454.561 159.131 454.561 Q162.765 454.561 164.571 451.019 Q166.399 447.455 166.399 440.348 Q166.399 433.219 164.571 429.677 Q162.765 426.112 159.131 426.112 M159.131 422.409 Q164.941 422.409 167.997 427.015 Q171.075 431.598 171.075 440.348 Q171.075 449.075 167.997 453.681 Q164.941 458.265 159.131 458.265 Q153.321 458.265 150.242 453.681 Q147.186 449.075 147.186 440.348 Q147.186 431.598 150.242 427.015 Q153.321 422.409 159.131 422.409 Z" fill="#000000" fill-rule="nonzero" fill-opacity="1" /><path clip-path="url(#clip980)" d="M19.402 1164.1 L37.2578 1164.1 L37.2578 1156.01 Q37.2578 1151.53 34.9343 1149.08 Q32.6108 1146.62 28.314 1146.62 Q24.0489 1146.62 21.7255 1149.08 Q19.402 1151.53 19.402 1156.01 L19.402 1164.1 M14.1184 1170.53 L14.1184 1156.01 Q14.1184 1148.03 17.7469 1143.95 Q21.3435 1139.85 28.314 1139.85 Q35.3481 1139.85 38.9447 1143.95 Q42.5413 1148.03 42.5413 1156.01 L42.5413 1164.1 L61.6384 1164.1 L61.6384 1170.53 L14.1184 1170.53 Z" fill="#000000" fill-rule="nonzero" fill-opacity="1" /><path clip-path="url(#clip980)" d="M31.465 1111.96 Q30.8921 1112.95 30.6375 1114.13 Q30.351 1115.27 30.351 1116.67 Q30.351 1121.64 33.5975 1124.31 Q36.8122 1126.95 42.8596 1126.95 L61.6384 1126.95 L61.6384 1132.84 L25.9905 1132.84 L25.9905 1126.95 L31.5287 1126.95 Q28.2821 1125.11 26.7225 1122.15 Q25.1311 1119.19 25.1311 1114.96 Q25.1311 1114.35 25.2266 1113.62 Q25.2903 1112.89 25.4494 1112 L31.465 1111.96 Z" fill="#000000" fill-rule="nonzero" fill-opacity="1" /><path clip-path="url(#clip980)" d="M42.3504 1076.76 L45.2149 1076.76 L45.2149 1103.69 Q51.2623 1103.31 54.4452 1100.06 Q57.5962 1096.78 57.5962 1090.96 Q57.5962 1087.58 56.7687 1084.43 Q55.9411 1081.25 54.2861 1078.13 L59.8242 1078.13 Q61.161 1081.28 61.8612 1084.59 Q62.5615 1087.9 62.5615 1091.31 Q62.5615 1099.84 57.5962 1104.83 Q52.631 1109.8 44.1646 1109.8 Q35.4117 1109.8 30.2873 1105.09 Q25.1311 1100.35 25.1311 1092.33 Q25.1311 1085.13 29.7781 1080.96 Q34.3932 1076.76 42.3504 1076.76 M40.6316 1082.62 Q35.8255 1082.68 32.9609 1085.32 Q30.0964 1087.93 30.0964 1092.26 Q30.0964 1097.16 32.8654 1100.12 Q35.6345 1103.05 40.6634 1103.5 L40.6316 1082.62 Z" fill="#000000" fill-rule="nonzero" fill-opacity="1" /><path clip-path="url(#clip980)" d="M25.9905 1071.35 L25.9905 1065.14 L55.9093 1054 L25.9905 1042.86 L25.9905 1036.66 L61.6384 1050.03 L61.6384 1057.98 L25.9905 1071.35 Z" fill="#000000" fill-rule="nonzero" fill-opacity="1" /><path clip-path="url(#clip980)" d="M43.719 1012.37 Q43.719 1019.47 45.3422 1022.21 Q46.9655 1024.94 50.8804 1024.94 Q53.9996 1024.94 55.8457 1022.91 Q57.6599 1020.84 57.6599 1017.31 Q57.6599 1012.44 54.2224 1009.51 Q50.7531 1006.55 45.0239 1006.55 L43.719 1006.55 L43.719 1012.37 M41.3 1000.69 L61.6384 1000.69 L61.6384 1006.55 L56.2276 1006.55 Q59.4741 1008.55 61.0337 1011.54 Q62.5615 1014.54 62.5615 1018.86 Q62.5615 1024.34 59.5059 1027.59 Q56.4186 1030.8 51.2623 1030.8 Q45.2467 1030.8 42.1912 1026.79 Q39.1357 1022.75 39.1357 1014.76 L39.1357 1006.55 L38.5628 1006.55 Q34.5205 1006.55 32.3244 1009.22 Q30.0964 1011.86 30.0964 1016.67 Q30.0964 1019.72 30.8284 1022.62 Q31.5605 1025.52 33.0246 1028.19 L27.6137 1028.19 Q26.3724 1024.98 25.7677 1021.95 Q25.1311 1018.93 25.1311 1016.06 Q25.1311 1008.33 29.1415 1004.51 Q33.1519 1000.69 41.3 1000.69 Z" fill="#000000" fill-rule="nonzero" fill-opacity="1" /><path clip-path="url(#clip980)" d="M12.1132 988.628 L12.1132 982.771 L61.6384 982.771 L61.6384 988.628 L12.1132 988.628 Z" fill="#000000" fill-rule="nonzero" fill-opacity="1" /><path clip-path="url(#clip980)" d="M42.3504 940.026 L45.2149 940.026 L45.2149 966.953 Q51.2623 966.571 54.4452 963.324 Q57.5962 960.046 57.5962 954.221 Q57.5962 950.847 56.7687 947.696 Q55.9411 944.514 54.2861 941.394 L59.8242 941.394 Q61.161 944.545 61.8612 947.856 Q62.5615 951.166 62.5615 954.571 Q62.5615 963.101 57.5962 968.098 Q52.631 973.064 44.1646 973.064 Q35.4117 973.064 30.2873 968.353 Q25.1311 963.611 25.1311 955.59 Q25.1311 948.397 29.7781 944.227 Q34.3932 940.026 42.3504 940.026 M40.6316 945.882 Q35.8255 945.946 32.9609 948.588 Q30.0964 951.198 30.0964 955.526 Q30.0964 960.428 32.8654 963.388 Q35.6345 966.316 40.6634 966.762 L40.6316 945.882 Z" fill="#000000" fill-rule="nonzero" fill-opacity="1" /><path clip-path="url(#clip980)" d="M40.1224 900.781 L61.6384 900.781 L61.6384 906.638 L40.3133 906.638 Q35.2526 906.638 32.7381 908.611 Q30.2237 910.584 30.2237 914.531 Q30.2237 919.273 33.2474 922.011 Q36.2711 924.748 41.491 924.748 L61.6384 924.748 L61.6384 930.636 L25.9905 930.636 L25.9905 924.748 L31.5287 924.748 Q28.314 922.647 26.7225 919.815 Q25.1311 916.95 25.1311 913.226 Q25.1311 907.083 28.9505 903.932 Q32.7381 900.781 40.1224 900.781 Z" fill="#000000" fill-rule="nonzero" fill-opacity="1" /><path clip-path="url(#clip980)" d="M27.3591 863.446 L32.8336 863.446 Q31.465 865.929 30.7966 868.443 Q30.0964 870.926 30.0964 873.472 Q30.0964 879.17 33.7248 882.321 Q37.3214 885.472 43.8463 885.472 Q50.3711 885.472 53.9996 882.321 Q57.5962 879.17 57.5962 873.472 Q57.5962 870.926 56.9278 868.443 Q56.2276 865.929 54.859 863.446 L60.2698 863.446 Q61.4156 865.897 61.9886 868.539 Q62.5615 871.149 62.5615 874.109 Q62.5615 882.161 57.5007 886.904 Q52.44 891.646 43.8463 891.646 Q35.1253 891.646 30.1282 886.872 Q25.1311 882.066 25.1311 873.727 Q25.1311 871.021 25.704 868.443 Q26.2451 865.865 27.3591 863.446 Z" fill="#000000" fill-rule="nonzero" fill-opacity="1" /><path clip-path="url(#clip980)" d="M42.3504 822.769 L45.2149 822.769 L45.2149 849.696 Q51.2623 849.314 54.4452 846.068 Q57.5962 842.79 57.5962 836.965 Q57.5962 833.591 56.7687 830.44 Q55.9411 827.257 54.2861 824.138 L59.8242 824.138 Q61.161 827.289 61.8612 830.599 Q62.5615 833.909 62.5615 837.315 Q62.5615 845.845 57.5962 850.842 Q52.631 855.807 44.1646 855.807 Q35.4117 855.807 30.2873 851.097 Q25.1311 846.354 25.1311 838.334 Q25.1311 831.14 29.7781 826.971 Q34.3932 822.769 42.3504 822.769 M40.6316 828.626 Q35.8255 828.689 32.9609 831.331 Q30.0964 833.941 30.0964 838.27 Q30.0964 843.171 32.8654 846.132 Q35.6345 849.06 40.6634 849.505 L40.6316 828.626 Z" fill="#000000" fill-rule="nonzero" fill-opacity="1" /><path clip-path="url(#clip980)" d="M12.1769 778.369 Q19.4975 782.634 26.6589 784.702 Q33.8203 786.771 41.1727 786.771 Q48.5251 786.771 55.7502 784.702 Q62.9434 782.602 70.2321 778.369 L70.2321 783.461 Q62.7524 788.235 55.5274 790.623 Q48.3023 792.978 41.1727 792.978 Q34.0749 792.978 26.8817 790.623 Q19.6884 788.267 12.1769 783.461 L12.1769 778.369 Z" fill="#000000" fill-rule="nonzero" fill-opacity="1" /><path clip-path="url(#clip980)" d="M40.7271 725.756 Q40.7271 728.525 43.0824 730.117 Q45.4377 731.676 49.6391 731.676 Q53.7768 731.676 56.1639 730.117 Q58.5192 728.525 58.5192 725.756 Q58.5192 723.051 56.1639 721.491 Q53.7768 719.9 49.6391 719.9 Q45.4695 719.9 43.1142 721.491 Q40.7271 723.051 40.7271 725.756 M36.6849 725.756 Q36.6849 720.727 40.186 717.767 Q43.6872 714.807 49.6391 714.807 Q55.591 714.807 59.0922 717.799 Q62.5615 720.759 62.5615 725.756 Q62.5615 730.849 59.0922 733.809 Q55.591 736.769 49.6391 736.769 Q43.6553 736.769 40.186 733.809 Q36.6849 730.817 36.6849 725.756 M17.3013 758.603 Q17.3013 761.34 19.6884 762.932 Q22.0437 764.491 26.1815 764.491 Q30.3828 764.491 32.7381 762.932 Q35.0934 761.372 35.0934 758.603 Q35.0934 755.834 32.7381 754.274 Q30.3828 752.683 26.1815 752.683 Q22.0756 752.683 19.6884 754.274 Q17.3013 755.866 17.3013 758.603 M13.2591 729.862 L13.2591 724.769 L62.5615 754.497 L62.5615 759.59 L13.2591 729.862 M13.2591 758.603 Q13.2591 753.574 16.7602 750.582 Q20.2295 747.59 26.1815 747.59 Q32.1971 747.59 35.6664 750.582 Q39.1357 753.542 39.1357 758.603 Q39.1357 763.664 35.6664 766.624 Q32.1652 769.552 26.1815 769.552 Q20.2614 769.552 16.7602 766.592 Q13.2591 763.632 13.2591 758.603 Z" fill="#000000" fill-rule="nonzero" fill-opacity="1" /><path clip-path="url(#clip980)" d="M12.1769 705.99 L12.1769 700.898 Q19.6884 696.124 26.8817 693.768 Q34.0749 691.381 41.1727 691.381 Q48.3023 691.381 55.5274 693.768 Q62.7524 696.124 70.2321 700.898 L70.2321 705.99 Q62.9434 701.757 55.7502 699.688 Q48.5251 697.588 41.1727 697.588 Q33.8203 697.588 26.6589 699.688 Q19.4975 701.757 12.1769 705.99 Z" fill="#000000" fill-rule="nonzero" fill-opacity="1" /><path clip-path="url(#clip980)" d="M458.274 14.0809 L458.274 22.0612 Q453.616 19.8332 449.484 18.7395 Q445.352 17.6457 441.503 17.6457 Q434.819 17.6457 431.174 20.2383 Q427.568 22.8309 427.568 27.611 Q427.568 31.6214 429.958 33.6873 Q432.389 35.7128 439.113 36.9686 L444.055 37.9813 Q453.21 39.7232 457.545 44.1387 Q461.92 48.5136 461.92 55.8863 Q461.92 64.6767 456.006 69.2137 Q450.132 73.7508 438.749 73.7508 Q434.455 73.7508 429.594 72.7785 Q424.773 71.8063 419.588 69.9024 L419.588 61.4765 Q424.571 64.2716 429.351 65.6895 Q434.131 67.1073 438.749 67.1073 Q445.757 67.1073 449.565 64.3527 Q453.372 61.598 453.372 56.4939 Q453.372 52.0379 450.618 49.5264 Q447.904 47.0148 441.665 45.759 L436.683 44.7868 Q427.528 42.9639 423.436 39.075 Q419.345 35.1862 419.345 28.2591 Q419.345 20.2383 424.976 15.6203 Q430.647 11.0023 440.572 11.0023 Q444.825 11.0023 449.241 11.7719 Q453.656 12.5416 458.274 14.0809 Z" fill="#000000" fill-rule="nonzero" fill-opacity="1" /><path clip-path="url(#clip980)" d="M493.233 76.7889 Q490.074 84.8907 487.076 87.3618 Q484.078 89.8329 479.055 89.8329 L473.1 89.8329 L473.1 83.5945 L477.475 83.5945 Q480.554 83.5945 482.255 82.1361 Q483.957 80.6778 486.023 75.2496 L487.36 71.8468 L469.009 27.2059 L476.908 27.2059 L491.086 62.6918 L505.265 27.2059 L513.164 27.2059 L493.233 76.7889 Z" fill="#000000" fill-rule="nonzero" fill-opacity="1" /><path clip-path="url(#clip980)" d="M561.167 45.1919 L561.167 72.576 L553.713 72.576 L553.713 45.4349 Q553.713 38.994 551.202 35.7938 Q548.69 32.5936 543.667 32.5936 Q537.631 32.5936 534.147 36.4419 Q530.664 40.2903 530.664 46.9338 L530.664 72.576 L523.17 72.576 L523.17 27.2059 L530.664 27.2059 L530.664 34.2544 Q533.337 30.163 536.943 28.1376 Q540.588 26.1121 545.328 26.1121 Q553.146 26.1121 557.157 30.9732 Q561.167 35.7938 561.167 45.1919 Z" fill="#000000" fill-rule="nonzero" fill-opacity="1" /><path clip-path="url(#clip980)" d="M583.406 14.324 L583.406 27.2059 L598.759 27.2059 L598.759 32.9987 L583.406 32.9987 L583.406 57.6282 Q583.406 63.1779 584.905 64.7578 Q586.445 66.3376 591.103 66.3376 L598.759 66.3376 L598.759 72.576 L591.103 72.576 Q582.475 72.576 579.194 69.3758 Q575.912 66.1351 575.912 57.6282 L575.912 32.9987 L570.444 32.9987 L570.444 27.2059 L575.912 27.2059 L575.912 14.324 L583.406 14.324 Z" fill="#000000" fill-rule="nonzero" fill-opacity="1" /><path clip-path="url(#clip980)" d="M646.277 45.1919 L646.277 72.576 L638.823 72.576 L638.823 45.4349 Q638.823 38.994 636.311 35.7938 Q633.8 32.5936 628.777 32.5936 Q622.741 32.5936 619.257 36.4419 Q615.773 40.2903 615.773 46.9338 L615.773 72.576 L608.279 72.576 L608.279 9.54393 L615.773 9.54393 L615.773 34.2544 Q618.447 30.163 622.052 28.1376 Q625.698 26.1121 630.437 26.1121 Q638.256 26.1121 642.266 30.9732 Q646.277 35.7938 646.277 45.1919 Z" fill="#000000" fill-rule="nonzero" fill-opacity="1" /><path clip-path="url(#clip980)" d="M699.951 48.0275 L699.951 51.6733 L665.68 51.6733 Q666.166 59.3701 670.298 63.421 Q674.471 67.4314 681.884 67.4314 Q686.178 67.4314 690.188 66.3781 Q694.239 65.3249 698.209 63.2184 L698.209 70.267 Q694.199 71.9684 689.986 72.8596 Q685.773 73.7508 681.438 73.7508 Q670.582 73.7508 664.222 67.4314 Q657.903 61.1119 657.903 50.3365 Q657.903 39.1965 663.898 32.6746 Q669.934 26.1121 680.142 26.1121 Q689.297 26.1121 694.604 32.0264 Q699.951 37.9003 699.951 48.0275 M692.497 45.84 Q692.416 39.7232 689.054 36.0774 Q685.732 32.4315 680.223 32.4315 Q673.985 32.4315 670.217 35.9558 Q666.491 39.4801 665.923 45.8805 L692.497 45.84 Z" fill="#000000" fill-rule="nonzero" fill-opacity="1" /><path clip-path="url(#clip980)" d="M719.557 14.324 L719.557 27.2059 L734.91 27.2059 L734.91 32.9987 L719.557 32.9987 L719.557 57.6282 Q719.557 63.1779 721.056 64.7578 Q722.596 66.3376 727.254 66.3376 L734.91 66.3376 L734.91 72.576 L727.254 72.576 Q718.626 72.576 715.344 69.3758 Q712.063 66.1351 712.063 57.6282 L712.063 32.9987 L706.594 32.9987 L706.594 27.2059 L712.063 27.2059 L712.063 14.324 L719.557 14.324 Z" fill="#000000" fill-rule="nonzero" fill-opacity="1" /><path clip-path="url(#clip980)" d="M744.713 27.2059 L752.167 27.2059 L752.167 72.576 L744.713 72.576 L744.713 27.2059 M744.713 9.54393 L752.167 9.54393 L752.167 18.9825 L744.713 18.9825 L744.713 9.54393 Z" fill="#000000" fill-rule="nonzero" fill-opacity="1" /><path clip-path="url(#clip980)" d="M800.413 28.9478 L800.413 35.9153 Q797.254 34.1734 794.054 33.3227 Q790.894 32.4315 787.653 32.4315 Q780.402 32.4315 776.392 37.0496 Q772.381 41.6271 772.381 49.9314 Q772.381 58.2358 776.392 62.8538 Q780.402 67.4314 787.653 67.4314 Q790.894 67.4314 794.054 66.5807 Q797.254 65.6895 800.413 63.9476 L800.413 70.8341 Q797.294 72.2924 793.932 73.0216 Q790.61 73.7508 786.843 73.7508 Q776.594 73.7508 770.558 67.3098 Q764.522 60.8689 764.522 49.9314 Q764.522 38.832 770.599 32.472 Q776.716 26.1121 787.329 26.1121 Q790.772 26.1121 794.054 26.8413 Q797.335 27.5299 800.413 28.9478 Z" fill="#000000" fill-rule="nonzero" fill-opacity="1" /><path clip-path="url(#clip980)" d="M876.327 14.0809 L876.327 22.0612 Q871.669 19.8332 867.537 18.7395 Q863.405 17.6457 859.557 17.6457 Q852.873 17.6457 849.227 20.2383 Q845.622 22.8309 845.622 27.611 Q845.622 31.6214 848.012 33.6873 Q850.442 35.7128 857.167 36.9686 L862.109 37.9813 Q871.264 39.7232 875.598 44.1387 Q879.973 48.5136 879.973 55.8863 Q879.973 64.6767 874.059 69.2137 Q868.185 73.7508 856.802 73.7508 Q852.508 73.7508 847.647 72.7785 Q842.826 71.8063 837.641 69.9024 L837.641 61.4765 Q842.624 64.2716 847.404 65.6895 Q852.184 67.1073 856.802 67.1073 Q863.81 67.1073 867.618 64.3527 Q871.426 61.598 871.426 56.4939 Q871.426 52.0379 868.671 49.5264 Q865.957 47.0148 859.719 45.759 L854.736 44.7868 Q845.581 42.9639 841.49 39.075 Q837.398 35.1862 837.398 28.2591 Q837.398 20.2383 843.029 15.6203 Q848.7 11.0023 858.625 11.0023 Q862.878 11.0023 867.294 11.7719 Q871.709 12.5416 876.327 14.0809 Z" fill="#000000" fill-rule="nonzero" fill-opacity="1" /><path clip-path="url(#clip980)" d="M892.409 9.54393 L899.863 9.54393 L899.863 72.576 L892.409 72.576 L892.409 9.54393 Z" fill="#000000" fill-rule="nonzero" fill-opacity="1" /><path clip-path="url(#clip980)" d="M915.459 27.2059 L922.913 27.2059 L922.913 72.576 L915.459 72.576 L915.459 27.2059 M915.459 9.54393 L922.913 9.54393 L922.913 18.9825 L915.459 18.9825 L915.459 9.54393 Z" fill="#000000" fill-rule="nonzero" fill-opacity="1" /><path clip-path="url(#clip980)" d="M968.364 34.0924 L968.364 9.54393 L975.818 9.54393 L975.818 72.576 L968.364 72.576 L968.364 65.7705 Q966.014 69.8214 962.409 71.8063 Q958.844 73.7508 953.821 73.7508 Q945.598 73.7508 940.413 67.1883 Q935.268 60.6258 935.268 49.9314 Q935.268 39.2371 940.413 32.6746 Q945.598 26.1121 953.821 26.1121 Q958.844 26.1121 962.409 28.0971 Q966.014 30.0415 968.364 34.0924 M942.965 49.9314 Q942.965 58.1548 946.327 62.8538 Q949.73 67.5124 955.644 67.5124 Q961.558 67.5124 964.961 62.8538 Q968.364 58.1548 968.364 49.9314 Q968.364 41.7081 964.961 37.0496 Q961.558 32.3505 955.644 32.3505 Q949.73 32.3505 946.327 37.0496 Q942.965 41.7081 942.965 49.9314 Z" fill="#000000" fill-rule="nonzero" fill-opacity="1" /><path clip-path="url(#clip980)" d="M1029.98 48.0275 L1029.98 51.6733 L995.708 51.6733 Q996.194 59.3701 1000.33 63.421 Q1004.5 67.4314 1011.91 67.4314 Q1016.21 67.4314 1020.22 66.3781 Q1024.27 65.3249 1028.24 63.2184 L1028.24 70.267 Q1024.23 71.9684 1020.01 72.8596 Q1015.8 73.7508 1011.47 73.7508 Q1000.61 73.7508 994.249 67.4314 Q987.93 61.1119 987.93 50.3365 Q987.93 39.1965 993.925 32.6746 Q999.961 26.1121 1010.17 26.1121 Q1019.32 26.1121 1024.63 32.0264 Q1029.98 37.9003 1029.98 48.0275 M1022.52 45.84 Q1022.44 39.7232 1019.08 36.0774 Q1015.76 32.4315 1010.25 32.4315 Q1004.01 32.4315 1000.24 35.9558 Q996.518 39.4801 995.951 45.8805 L1022.52 45.84 Z" fill="#000000" fill-rule="nonzero" fill-opacity="1" /><path clip-path="url(#clip980)" d="M1077.09 18.8205 L1077.09 41.5461 L1087.38 41.5461 Q1093.09 41.5461 1096.21 38.5889 Q1099.33 35.6318 1099.33 30.163 Q1099.33 24.7348 1096.21 21.7777 Q1093.09 18.8205 1087.38 18.8205 L1077.09 18.8205 M1068.91 12.096 L1087.38 12.096 Q1097.55 12.096 1102.73 16.714 Q1107.96 21.2916 1107.96 30.163 Q1107.96 39.1155 1102.73 43.6931 Q1097.55 48.2706 1087.38 48.2706 L1077.09 48.2706 L1077.09 72.576 L1068.91 72.576 L1068.91 12.096 Z" fill="#000000" fill-rule="nonzero" fill-opacity="1" /><path clip-path="url(#clip980)" d="M1133.24 32.4315 Q1127.24 32.4315 1123.76 37.1306 Q1120.27 41.7891 1120.27 49.9314 Q1120.27 58.0738 1123.72 62.7728 Q1127.2 67.4314 1133.24 67.4314 Q1139.19 67.4314 1142.67 62.7323 Q1146.16 58.0333 1146.16 49.9314 Q1146.16 41.8701 1142.67 37.1711 Q1139.19 32.4315 1133.24 32.4315 M1133.24 26.1121 Q1142.96 26.1121 1148.51 32.4315 Q1154.06 38.7509 1154.06 49.9314 Q1154.06 61.0714 1148.51 67.4314 Q1142.96 73.7508 1133.24 73.7508 Q1123.47 73.7508 1117.92 67.4314 Q1112.41 61.0714 1112.41 49.9314 Q1112.41 38.7509 1117.92 32.4315 Q1123.47 26.1121 1133.24 26.1121 Z" fill="#000000" fill-rule="nonzero" fill-opacity="1" /><path clip-path="url(#clip980)" d="M1195.34 28.5427 L1195.34 35.5912 Q1192.18 33.9709 1188.77 33.1607 Q1185.37 32.3505 1181.73 32.3505 Q1176.18 32.3505 1173.38 34.0519 Q1170.63 35.7533 1170.63 39.156 Q1170.63 41.7486 1172.61 43.2475 Q1174.6 44.7058 1180.59 46.0426 L1183.14 46.6097 Q1191.08 48.3111 1194.4 51.4303 Q1197.77 54.509 1197.77 60.0587 Q1197.77 66.3781 1192.74 70.0644 Q1187.76 73.7508 1179.01 73.7508 Q1175.37 73.7508 1171.4 73.0216 Q1167.47 72.3329 1163.09 70.9151 L1163.09 63.2184 Q1167.22 65.3654 1171.23 66.4591 Q1175.24 67.5124 1179.17 67.5124 Q1184.44 67.5124 1187.27 65.73 Q1190.11 63.9071 1190.11 60.6258 Q1190.11 57.5877 1188.04 55.9673 Q1186.02 54.3469 1179.09 52.8481 L1176.5 52.2405 Q1169.57 50.7821 1166.49 47.7845 Q1163.41 44.7463 1163.41 39.4801 Q1163.41 33.0797 1167.95 29.5959 Q1172.49 26.1121 1180.83 26.1121 Q1184.97 26.1121 1188.61 26.7198 Q1192.26 27.3274 1195.34 28.5427 Z" fill="#000000" fill-rule="nonzero" fill-opacity="1" /><path clip-path="url(#clip980)" d="M1209.64 27.2059 L1217.09 27.2059 L1217.09 72.576 L1209.64 72.576 L1209.64 27.2059 M1209.64 9.54393 L1217.09 9.54393 L1217.09 18.9825 L1209.64 18.9825 L1209.64 9.54393 Z" fill="#000000" fill-rule="nonzero" fill-opacity="1" /><path clip-path="url(#clip980)" d="M1240.06 14.324 L1240.06 27.2059 L1255.41 27.2059 L1255.41 32.9987 L1240.06 32.9987 L1240.06 57.6282 Q1240.06 63.1779 1241.56 64.7578 Q1243.1 66.3376 1247.75 66.3376 L1255.41 66.3376 L1255.41 72.576 L1247.75 72.576 Q1239.13 72.576 1235.85 69.3758 Q1232.56 66.1351 1232.56 57.6282 L1232.56 32.9987 L1227.1 32.9987 L1227.1 27.2059 L1232.56 27.2059 L1232.56 14.324 L1240.06 14.324 Z" fill="#000000" fill-rule="nonzero" fill-opacity="1" /><path clip-path="url(#clip980)" d="M1265.21 27.2059 L1272.67 27.2059 L1272.67 72.576 L1265.21 72.576 L1265.21 27.2059 M1265.21 9.54393 L1272.67 9.54393 L1272.67 18.9825 L1265.21 18.9825 L1265.21 9.54393 Z" fill="#000000" fill-rule="nonzero" fill-opacity="1" /><path clip-path="url(#clip980)" d="M1282.92 27.2059 L1290.82 27.2059 L1304.99 65.2844 L1319.17 27.2059 L1327.07 27.2059 L1310.06 72.576 L1299.93 72.576 L1282.92 27.2059 Z" fill="#000000" fill-rule="nonzero" fill-opacity="1" /><path clip-path="url(#clip980)" d="M1337.36 27.2059 L1344.81 27.2059 L1344.81 72.576 L1337.36 72.576 L1337.36 27.2059 M1337.36 9.54393 L1344.81 9.54393 L1344.81 18.9825 L1337.36 18.9825 L1337.36 9.54393 Z" fill="#000000" fill-rule="nonzero" fill-opacity="1" /><path clip-path="url(#clip980)" d="M1367.78 14.324 L1367.78 27.2059 L1383.14 27.2059 L1383.14 32.9987 L1367.78 32.9987 L1367.78 57.6282 Q1367.78 63.1779 1369.28 64.7578 Q1370.82 66.3376 1375.48 66.3376 L1383.14 66.3376 L1383.14 72.576 L1375.48 72.576 Q1366.85 72.576 1363.57 69.3758 Q1360.29 66.1351 1360.29 57.6282 L1360.29 32.9987 L1354.82 32.9987 L1354.82 27.2059 L1360.29 27.2059 L1360.29 14.324 L1367.78 14.324 Z" fill="#000000" fill-rule="nonzero" fill-opacity="1" /><path clip-path="url(#clip980)" d="M1411.82 76.7889 Q1408.66 84.8907 1405.66 87.3618 Q1402.66 89.8329 1397.64 89.8329 L1391.68 89.8329 L1391.68 83.5945 L1396.06 83.5945 Q1399.14 83.5945 1400.84 82.1361 Q1402.54 80.6778 1404.61 75.2496 L1405.94 71.8468 L1387.59 27.2059 L1395.49 27.2059 L1409.67 62.6918 L1423.85 27.2059 L1431.75 27.2059 L1411.82 76.7889 Z" fill="#000000" fill-rule="nonzero" fill-opacity="1" /><path clip-path="url(#clip980)" d="M1476.91 18.8205 L1476.91 65.8515 L1486.8 65.8515 Q1499.32 65.8515 1505.11 60.1802 Q1510.94 54.509 1510.94 42.2752 Q1510.94 30.1225 1505.11 24.4918 Q1499.32 18.8205 1486.8 18.8205 L1476.91 18.8205 M1468.73 12.096 L1485.54 12.096 Q1503.12 12.096 1511.35 19.4281 Q1519.57 26.7198 1519.57 42.2752 Q1519.57 57.9117 1511.31 65.2439 Q1503.04 72.576 1485.54 72.576 L1468.73 72.576 L1468.73 12.096 Z" fill="#000000" fill-rule="nonzero" fill-opacity="1" /><path clip-path="url(#clip980)" d="M1552.91 49.7694 Q1543.88 49.7694 1540.39 51.8354 Q1536.91 53.9013 1536.91 58.8839 Q1536.91 62.8538 1539.5 65.2034 Q1542.13 67.5124 1546.63 67.5124 Q1552.83 67.5124 1556.56 63.1374 Q1560.32 58.7219 1560.32 51.4303 L1560.32 49.7694 L1552.91 49.7694 M1567.78 46.6907 L1567.78 72.576 L1560.32 72.576 L1560.32 65.6895 Q1557.77 69.8214 1553.96 71.8063 Q1550.15 73.7508 1544.65 73.7508 Q1537.68 73.7508 1533.55 69.8619 Q1529.45 65.9325 1529.45 59.3701 Q1529.45 51.7138 1534.56 47.825 Q1539.7 43.9361 1549.87 43.9361 L1560.32 43.9361 L1560.32 43.2069 Q1560.32 38.0623 1556.92 35.2672 Q1553.56 32.4315 1547.44 32.4315 Q1543.55 32.4315 1539.87 33.3632 Q1536.18 34.295 1532.78 36.1584 L1532.78 29.2718 Q1536.87 27.692 1540.72 26.9223 Q1544.56 26.1121 1548.21 26.1121 Q1558.05 26.1121 1562.92 31.2163 Q1567.78 36.3204 1567.78 46.6907 Z" fill="#000000" fill-rule="nonzero" fill-opacity="1" /><path clip-path="url(#clip980)" d="M1590.5 14.324 L1590.5 27.2059 L1605.85 27.2059 L1605.85 32.9987 L1590.5 32.9987 L1590.5 57.6282 Q1590.5 63.1779 1592 64.7578 Q1593.54 66.3376 1598.2 66.3376 L1605.85 66.3376 L1605.85 72.576 L1598.2 72.576 Q1589.57 72.576 1586.29 69.3758 Q1583.01 66.1351 1583.01 57.6282 L1583.01 32.9987 L1577.54 32.9987 L1577.54 27.2059 L1583.01 27.2059 L1583.01 14.324 L1590.5 14.324 Z" fill="#000000" fill-rule="nonzero" fill-opacity="1" /><path clip-path="url(#clip980)" d="M1636.28 49.7694 Q1627.24 49.7694 1623.76 51.8354 Q1620.28 53.9013 1620.28 58.8839 Q1620.28 62.8538 1622.87 65.2034 Q1625.5 67.5124 1630 67.5124 Q1636.2 67.5124 1639.92 63.1374 Q1643.69 58.7219 1643.69 51.4303 L1643.69 49.7694 L1636.28 49.7694 M1651.14 46.6907 L1651.14 72.576 L1643.69 72.576 L1643.69 65.6895 Q1641.14 69.8214 1637.33 71.8063 Q1633.52 73.7508 1628.01 73.7508 Q1621.05 73.7508 1616.91 69.8619 Q1612.82 65.9325 1612.82 59.3701 Q1612.82 51.7138 1617.93 47.825 Q1623.07 43.9361 1633.24 43.9361 L1643.69 43.9361 L1643.69 43.2069 Q1643.69 38.0623 1640.29 35.2672 Q1636.93 32.4315 1630.81 32.4315 Q1626.92 32.4315 1623.23 33.3632 Q1619.55 34.295 1616.14 36.1584 L1616.14 29.2718 Q1620.24 27.692 1624.08 26.9223 Q1627.93 26.1121 1631.58 26.1121 Q1641.42 26.1121 1646.28 31.2163 Q1651.14 36.3204 1651.14 46.6907 Z" fill="#000000" fill-rule="nonzero" fill-opacity="1" /><path clip-path="url(#clip980)" d="M1710.77 9.62495 Q1705.34 18.942 1702.71 28.0566 Q1700.08 37.1711 1700.08 46.5287 Q1700.08 55.8863 1702.71 65.0818 Q1705.39 74.2369 1710.77 83.5134 L1704.29 83.5134 Q1698.22 73.9938 1695.18 64.7983 Q1692.18 55.6027 1692.18 46.5287 Q1692.18 37.4952 1695.18 28.3401 Q1698.17 19.1851 1704.29 9.62495 L1710.77 9.62495 Z" fill="#000000" fill-rule="nonzero" fill-opacity="1" /><path clip-path="url(#clip980)" d="M1760.56 35.9153 Q1763.35 30.8922 1767.24 28.5022 Q1771.13 26.1121 1776.4 26.1121 Q1783.49 26.1121 1787.34 31.0947 Q1791.18 36.0368 1791.18 45.1919 L1791.18 72.576 L1783.69 72.576 L1783.69 45.4349 Q1783.69 38.913 1781.38 35.7533 Q1779.07 32.5936 1774.33 32.5936 Q1768.54 32.5936 1765.18 36.4419 Q1761.81 40.2903 1761.81 46.9338 L1761.81 72.576 L1754.32 72.576 L1754.32 45.4349 Q1754.32 38.8725 1752.01 35.7533 Q1749.7 32.5936 1744.88 32.5936 Q1739.17 32.5936 1735.81 36.4824 Q1732.45 40.3308 1732.45 46.9338 L1732.45 72.576 L1724.95 72.576 L1724.95 27.2059 L1732.45 27.2059 L1732.45 34.2544 Q1735 30.082 1738.56 28.0971 Q1742.13 26.1121 1747.03 26.1121 Q1751.97 26.1121 1755.41 28.6237 Q1758.9 31.1352 1760.56 35.9153 Z" fill="#000000" fill-rule="nonzero" fill-opacity="1" /><path clip-path="url(#clip980)" d="M1823.63 32.4315 Q1817.64 32.4315 1814.15 37.1306 Q1810.67 41.7891 1810.67 49.9314 Q1810.67 58.0738 1814.11 62.7728 Q1817.6 67.4314 1823.63 67.4314 Q1829.59 67.4314 1833.07 62.7323 Q1836.55 58.0333 1836.55 49.9314 Q1836.55 41.8701 1833.07 37.1711 Q1829.59 32.4315 1823.63 32.4315 M1823.63 26.1121 Q1833.35 26.1121 1838.9 32.4315 Q1844.45 38.7509 1844.45 49.9314 Q1844.45 61.0714 1838.9 67.4314 Q1833.35 73.7508 1823.63 73.7508 Q1813.87 73.7508 1808.32 67.4314 Q1802.81 61.0714 1802.81 49.9314 Q1802.81 38.7509 1808.32 32.4315 Q1813.87 26.1121 1823.63 26.1121 Z" fill="#000000" fill-rule="nonzero" fill-opacity="1" /><path clip-path="url(#clip980)" d="M1894.52 45.1919 L1894.52 72.576 L1887.07 72.576 L1887.07 45.4349 Q1887.07 38.994 1884.56 35.7938 Q1882.05 32.5936 1877.02 32.5936 Q1870.99 32.5936 1867.5 36.4419 Q1864.02 40.2903 1864.02 46.9338 L1864.02 72.576 L1856.52 72.576 L1856.52 27.2059 L1864.02 27.2059 L1864.02 34.2544 Q1866.69 30.163 1870.3 28.1376 Q1873.94 26.1121 1878.68 26.1121 Q1886.5 26.1121 1890.51 30.9732 Q1894.52 35.7938 1894.52 45.1919 Z" fill="#000000" fill-rule="nonzero" fill-opacity="1" /><path clip-path="url(#clip980)" d="M1916.76 14.324 L1916.76 27.2059 L1932.11 27.2059 L1932.11 32.9987 L1916.76 32.9987 L1916.76 57.6282 Q1916.76 63.1779 1918.26 64.7578 Q1919.8 66.3376 1924.46 66.3376 L1932.11 66.3376 L1932.11 72.576 L1924.46 72.576 Q1915.83 72.576 1912.55 69.3758 Q1909.27 66.1351 1909.27 57.6282 L1909.27 32.9987 L1903.8 32.9987 L1903.8 27.2059 L1909.27 27.2059 L1909.27 14.324 L1916.76 14.324 Z" fill="#000000" fill-rule="nonzero" fill-opacity="1" /><path clip-path="url(#clip980)" d="M1979.63 45.1919 L1979.63 72.576 L1972.18 72.576 L1972.18 45.4349 Q1972.18 38.994 1969.67 35.7938 Q1967.15 32.5936 1962.13 32.5936 Q1956.1 32.5936 1952.61 36.4419 Q1949.13 40.2903 1949.13 46.9338 L1949.13 72.576 L1941.63 72.576 L1941.63 9.54393 L1949.13 9.54393 L1949.13 34.2544 Q1951.8 30.163 1955.41 28.1376 Q1959.05 26.1121 1963.79 26.1121 Q1971.61 26.1121 1975.62 30.9732 Q1979.63 35.7938 1979.63 45.1919 Z" fill="#000000" fill-rule="nonzero" fill-opacity="1" /><path clip-path="url(#clip980)" d="M1994.5 9.54393 L2001.95 9.54393 L2001.95 72.576 L1994.5 72.576 L1994.5 9.54393 Z" fill="#000000" fill-rule="nonzero" fill-opacity="1" /><path clip-path="url(#clip980)" d="M2036.43 76.7889 Q2033.27 84.8907 2030.27 87.3618 Q2027.27 89.8329 2022.25 89.8329 L2016.29 89.8329 L2016.29 83.5945 L2020.67 83.5945 Q2023.75 83.5945 2025.45 82.1361 Q2027.15 80.6778 2029.21 75.2496 L2030.55 71.8468 L2012.2 27.2059 L2020.1 27.2059 L2034.28 62.6918 L2048.46 27.2059 L2056.36 27.2059 L2036.43 76.7889 Z" fill="#000000" fill-rule="nonzero" fill-opacity="1" /><path clip-path="url(#clip980)" d="M2121.94 28.5427 L2121.94 35.5912 Q2118.78 33.9709 2115.38 33.1607 Q2111.97 32.3505 2108.33 32.3505 Q2102.78 32.3505 2099.98 34.0519 Q2097.23 35.7533 2097.23 39.156 Q2097.23 41.7486 2099.21 43.2475 Q2101.2 44.7058 2107.19 46.0426 L2109.75 46.6097 Q2117.69 48.3111 2121.01 51.4303 Q2124.37 54.509 2124.37 60.0587 Q2124.37 66.3781 2119.35 70.0644 Q2114.36 73.7508 2105.61 73.7508 Q2101.97 73.7508 2098 73.0216 Q2094.07 72.3329 2089.69 70.9151 L2089.69 63.2184 Q2093.83 65.3654 2097.84 66.4591 Q2101.85 67.5124 2105.78 67.5124 Q2111.04 67.5124 2113.88 65.73 Q2116.71 63.9071 2116.71 60.6258 Q2116.71 57.5877 2114.65 55.9673 Q2112.62 54.3469 2105.7 52.8481 L2103.1 52.2405 Q2096.18 50.7821 2093.1 47.7845 Q2090.02 44.7463 2090.02 39.4801 Q2090.02 33.0797 2094.56 29.5959 Q2099.09 26.1121 2107.44 26.1121 Q2111.57 26.1121 2115.22 26.7198 Q2118.86 27.3274 2121.94 28.5427 Z" fill="#000000" fill-rule="nonzero" fill-opacity="1" /><path clip-path="url(#clip980)" d="M2135.47 54.671 L2135.47 27.2059 L2142.92 27.2059 L2142.92 54.3874 Q2142.92 60.8284 2145.44 64.0691 Q2147.95 67.2693 2152.97 67.2693 Q2159.01 67.2693 2162.49 63.421 Q2166.01 59.5726 2166.01 52.9291 L2166.01 27.2059 L2173.47 27.2059 L2173.47 72.576 L2166.01 72.576 L2166.01 65.6084 Q2163.3 69.7404 2159.69 71.7658 Q2156.13 73.7508 2151.39 73.7508 Q2143.57 73.7508 2139.52 68.8897 Q2135.47 64.0286 2135.47 54.671 M2154.23 26.1121 L2154.23 26.1121 Z" fill="#000000" fill-rule="nonzero" fill-opacity="1" /><path clip-path="url(#clip980)" d="M2215.11 34.1734 Q2213.85 33.4443 2212.36 33.1202 Q2210.9 32.7556 2209.12 32.7556 Q2202.8 32.7556 2199.39 36.8875 Q2196.03 40.9789 2196.03 48.6757 L2196.03 72.576 L2188.54 72.576 L2188.54 27.2059 L2196.03 27.2059 L2196.03 34.2544 Q2198.38 30.1225 2202.15 28.1376 Q2205.92 26.1121 2211.3 26.1121 Q2212.07 26.1121 2213 26.2337 Q2213.94 26.3147 2215.07 26.5172 L2215.11 34.1734 Z" fill="#000000" fill-rule="nonzero" fill-opacity="1" /><path clip-path="url(#clip980)" d="M2217.58 27.2059 L2225.48 27.2059 L2239.66 65.2844 L2253.84 27.2059 L2261.74 27.2059 L2244.72 72.576 L2234.6 72.576 L2217.58 27.2059 Z" fill="#000000" fill-rule="nonzero" fill-opacity="1" /><path clip-path="url(#clip980)" d="M2310.83 48.0275 L2310.83 51.6733 L2276.56 51.6733 Q2277.05 59.3701 2281.18 63.421 Q2285.35 67.4314 2292.77 67.4314 Q2297.06 67.4314 2301.07 66.3781 Q2305.12 65.3249 2309.09 63.2184 L2309.09 70.267 Q2305.08 71.9684 2300.87 72.8596 Q2296.66 73.7508 2292.32 73.7508 Q2281.46 73.7508 2275.1 67.4314 Q2268.79 61.1119 2268.79 50.3365 Q2268.79 39.1965 2274.78 32.6746 Q2280.82 26.1121 2291.02 26.1121 Q2300.18 26.1121 2305.49 32.0264 Q2310.83 37.9003 2310.83 48.0275 M2303.38 45.84 Q2303.3 39.7232 2299.94 36.0774 Q2296.61 32.4315 2291.11 32.4315 Q2284.87 32.4315 2281.1 35.9558 Q2277.37 39.4801 2276.81 45.8805 L2303.38 45.84 Z" fill="#000000" fill-rule="nonzero" fill-opacity="1" /><path clip-path="url(#clip980)" d="M2341.94 76.7889 Q2338.78 84.8907 2335.79 87.3618 Q2332.79 89.8329 2327.77 89.8329 L2321.81 89.8329 L2321.81 83.5945 L2326.19 83.5945 Q2329.27 83.5945 2330.97 82.1361 Q2332.67 80.6778 2334.73 75.2496 L2336.07 71.8468 L2317.72 27.2059 L2325.62 27.2059 L2339.8 62.6918 L2353.98 27.2059 L2361.87 27.2059 L2341.94 76.7889 Z" fill="#000000" fill-rule="nonzero" fill-opacity="1" /><path clip-path="url(#clip980)" d="M2401.09 28.5427 L2401.09 35.5912 Q2397.93 33.9709 2394.53 33.1607 Q2391.12 32.3505 2387.48 32.3505 Q2381.93 32.3505 2379.13 34.0519 Q2376.38 35.7533 2376.38 39.156 Q2376.38 41.7486 2378.36 43.2475 Q2380.35 44.7058 2386.34 46.0426 L2388.89 46.6097 Q2396.83 48.3111 2400.16 51.4303 Q2403.52 54.509 2403.52 60.0587 Q2403.52 66.3781 2398.5 70.0644 Q2393.51 73.7508 2384.76 73.7508 Q2381.12 73.7508 2377.15 73.0216 Q2373.22 72.3329 2368.84 70.9151 L2368.84 63.2184 Q2372.97 65.3654 2376.98 66.4591 Q2381 67.5124 2384.92 67.5124 Q2390.19 67.5124 2393.03 65.73 Q2395.86 63.9071 2395.86 60.6258 Q2395.86 57.5877 2393.8 55.9673 Q2391.77 54.3469 2384.84 52.8481 L2382.25 52.2405 Q2375.32 50.7821 2372.25 47.7845 Q2369.17 44.7463 2369.17 39.4801 Q2369.17 33.0797 2373.7 29.5959 Q2378.24 26.1121 2386.59 26.1121 Q2390.72 26.1121 2394.36 26.7198 Q2398.01 27.3274 2401.09 28.5427 Z" fill="#000000" fill-rule="nonzero" fill-opacity="1" /><path clip-path="url(#clip980)" d="M2414.21 9.62495 L2420.69 9.62495 Q2426.77 19.1851 2429.77 28.3401 Q2432.81 37.4952 2432.81 46.5287 Q2432.81 55.6027 2429.77 64.7983 Q2426.77 73.9938 2420.69 83.5134 L2414.21 83.5134 Q2419.6 74.2369 2422.23 65.0818 Q2424.91 55.8863 2424.91 46.5287 Q2424.91 37.1711 2422.23 28.0566 Q2419.6 18.942 2414.21 9.62495 Z" fill="#000000" fill-rule="nonzero" fill-opacity="1" /><polyline clip-path="url(#clip981)" style="stroke:#4682b4; stroke-linecap:round; stroke-linejoin:round; stroke-width:8; stroke-opacity:1; fill:none" points="280.151,1665.64 283.29,1671.34 286.43,1675.97 289.569,1679.71 292.709,1682.66 295.848,1684.94 298.988,1686.61 302.127,1687.74 305.267,1688.41 308.406,1688.65 311.546,1688.54 314.685,1688.11 317.825,1687.42 320.965,1686.49 324.104,1685.37 327.244,1684.08 330.383,1682.65 333.523,1681.11 336.662,1679.47 339.802,1677.74 342.941,1675.95 346.081,1674.08 349.22,1672.16 352.36,1670.18 355.499,1668.15 358.639,1666.06 361.778,1663.9 364.918,1661.68 368.057,1659.38 371.197,1657.01 374.336,1654.55 377.476,1652 380.615,1649.34 383.755,1646.57 386.894,1643.68 390.034,1640.65 393.173,1637.48 396.313,1634.15 399.453,1630.65 402.592,1626.98 405.732,1623.11 408.871,1619.05 412.011,1614.76 415.15,1610.24 418.29,1605.48 421.429,1600.46 424.569,1595.16 427.708,1589.57 430.848,1583.67 433.987,1577.45 437.127,1570.88 440.266,1563.95 443.406,1556.64 446.545,1548.93 449.685,1540.79 452.824,1532.21 455.964,1523.16 459.103,1513.62 462.243,1503.58 465.382,1492.99 468.522,1481.85 471.661,1470.13 474.801,1457.79 477.941,1444.83 481.08,1431.22 484.22,1416.93 487.359,1401.94 490.499,1386.23 493.638,1369.79 496.778,1352.6 499.917,1334.64 503.057,1315.9 506.196,1296.37 509.336,1276.05 512.475,1254.94 515.615,1233.03 518.754,1210.35 521.894,1186.89 525.033,1162.69 528.173,1137.77 531.312,1112.17 534.452,1085.91 537.591,1059.06 540.731,1031.66 543.87,1003.79 547.01,975.5 550.149,946.878 553.289,918.005 556.429,888.971 559.568,859.87 562.708,830.801 565.847,801.866 568.987,773.169 572.126,744.815 575.266,716.907 578.405,689.549 581.545,662.837 584.684,636.866 587.824,611.721 590.963,587.482 594.103,564.219 597.242,541.994 600.382,520.855 603.521,500.844 606.661,481.988 609.8,464.305 612.94,447.802 616.079,432.475 619.219,418.31 622.358,405.288 625.498,393.377 628.637,382.54 631.777,372.737 634.917,363.919 638.056,356.036 641.196,349.036 644.335,342.863 647.475,337.463 650.614,332.78 653.754,328.76 656.893,325.35 660.033,322.5 663.172,320.16 666.312,318.285 669.451,316.832 672.591,315.758 675.73,315.028 678.87,314.606 682.009,314.459 685.149,314.559 688.288,314.88 691.428,315.395 694.567,316.084 697.707,316.928 700.846,317.907 703.986,319.005 707.125,320.21 710.265,321.507 713.405,322.886 716.544,324.335 719.684,325.847 722.823,327.412 725.963,329.024 729.102,330.676 732.242,332.363 735.381,334.078 738.521,335.819 741.66,337.581 744.8,339.36 747.939,341.153 751.079,342.958 754.218,344.771 757.358,346.591 760.497,348.415 763.637,350.243 766.776,352.071 769.916,353.9 773.055,355.727 776.195,357.551 779.334,359.372 782.474,361.189 785.613,363 788.753,364.806 791.893,366.605 795.032,368.397 798.172,370.181 801.311,371.957 804.451,373.726 807.59,375.485 810.73,377.235 813.869,378.976 817.009,380.708 820.148,382.43 823.288,384.142 826.427,385.844 829.567,387.536 832.706,389.217 835.846,390.889 838.985,392.55 842.125,394.2 845.264,395.84 848.404,397.47 851.543,399.089 854.683,400.697 857.822,402.295 860.962,403.882 864.101,405.459 867.241,407.025 870.381,408.581 873.52,410.127 876.66,411.662 879.799,413.187 882.939,414.701 886.078,416.206 889.218,417.7 892.357,419.184 895.497,420.658 898.636,422.122 901.776,423.576 904.915,425.02 908.055,426.455 911.194,427.879 914.334,429.295 917.473,430.7 920.613,432.096 923.752,433.483 926.892,434.86 930.031,436.229 933.171,437.588 936.31,438.938 939.45,440.278 942.589,441.61 945.729,442.934 948.869,444.248 952.008,445.554 955.148,446.851 958.287,448.139 961.427,449.419 964.566,450.691 967.706,451.955 970.845,453.21 973.985,454.457 977.124,455.697 980.264,456.928 983.403,458.151 986.543,459.367 989.682,460.575 992.822,461.775 995.961,462.968 999.101,464.154 1002.24,465.332 1005.38,466.502 1008.52,467.666 1011.66,468.822 1014.8,469.972 1017.94,471.114 1021.08,472.249 1024.22,473.378 1027.36,474.5 1030.5,475.615 1033.64,476.724 1036.78,477.826 1039.91,478.922 1043.05,480.012 1046.19,481.095 1049.33,482.172 1052.47,483.243 1055.61,484.308 1058.75,485.367 1061.89,486.421 1065.03,487.468 1068.17,488.51 1071.31,489.546 1074.45,490.576 1077.59,491.601 1080.73,492.621 1083.87,493.635 1087.01,494.644 1090.15,495.648 1093.29,496.647 1096.43,497.64 1099.57,498.629 1102.71,499.613 1105.84,500.591 1108.98,501.566 1112.12,502.535 1115.26,503.5 1118.4,504.46 1121.54,505.416 1124.68,506.367 1127.82,507.314 1130.96,508.257 1134.1,509.195 1137.24,510.13 1140.38,511.06 1143.52,511.986 1146.66,512.908 1149.8,513.826 1152.94,514.741 1156.08,515.651 1159.22,516.558 1162.36,517.461 1165.5,518.361 1168.63,519.256 1171.77,520.149 1174.91,521.037 1178.05,521.923 1181.19,522.805 1184.33,523.683 1187.47,524.559 1190.61,525.43 1193.75,526.299 1196.89,527.165 1200.03,528.027 1203.17,528.886 1206.31,529.742 1209.45,530.595 1212.59,531.445 1215.73,532.292 1218.87,533.136 1222.01,533.976 1225.15,534.814 1228.29,535.649 1231.43,536.481 1234.56,537.309 1237.7,538.135 1240.84,538.958 1243.98,539.778 1247.12,540.595 1250.26,541.408 1253.4,542.219 1256.54,543.027 1259.68,543.831 1262.82,544.633 1265.96,545.431 1269.1,546.226 1272.24,547.018 1275.38,547.806 1278.52,548.591 1281.66,549.373 1284.8,550.151 1287.94,550.926 1291.08,551.697 1294.22,552.464 1297.36,553.228 1300.49,553.987 1303.63,554.743 1306.77,555.494 1309.91,556.242 1313.05,556.985 1316.19,557.724 1319.33,558.458 1322.47,559.188 1325.61,559.912 1328.75,560.632 1331.89,561.347 1335.03,562.057 1338.17,562.761 1341.31,563.46 1344.45,564.153 1347.59,564.841 1350.73,565.522 1353.87,566.197 1357.01,566.866 1360.15,567.528 1363.29,568.184 1366.42,568.833 1369.56,569.475 1372.7,570.109 1375.84,570.736 1378.98,571.355 1382.12,571.967 1385.26,572.571 1388.4,573.166 1391.54,573.753 1394.68,574.331 1397.82,574.901 1400.96,575.461 1404.1,576.013 1407.24,576.555 1410.38,577.087 1413.52,577.61 1416.66,578.123 1419.8,578.625 1422.94,579.118 1426.08,579.6 1429.22,580.071 1432.35,580.532 1435.49,580.982 1438.63,581.421 1441.77,581.849 1444.91,582.265 1448.05,582.67 1451.19,583.064 1454.33,583.446 1457.47,583.817 1460.61,584.176 1463.75,584.523 1466.89,584.859 1470.03,585.182 1473.17,585.494 1476.31,585.794 1479.45,586.082 1482.59,586.359 1485.73,586.624 1488.87,586.876 1492.01,587.118 1495.15,587.347 1498.28,587.566 1501.42,587.773 1504.56,587.968 1507.7,588.153 1510.84,588.326 1513.98,588.489 1517.12,588.641 1520.26,588.782 1523.4,588.913 1526.54,589.034 1529.68,589.145 1532.82,589.247 1535.96,589.339 1539.1,589.422 1542.24,589.496 1545.38,589.561 1548.52,589.618 1551.66,589.667 1554.8,589.709 1557.94,589.742 1561.07,589.769 1564.21,589.788 1567.35,589.801 1570.49,589.807 1573.63,589.808 1576.77,589.803 1579.91,589.792 1583.05,589.777 1586.19,589.756 1589.33,589.732 1592.47,589.703 1595.61,589.67 1598.75,589.634 1601.89,589.594 1605.03,589.551 1608.17,589.506 1611.31,589.459 1614.45,589.409 1617.59,589.358 1620.73,589.304 1623.87,589.25 1627,589.195 1630.14,589.138 1633.28,589.081 1636.42,589.024 1639.56,588.966 1642.7,588.909 1645.84,588.851 1648.98,588.795 1652.12,588.738 1655.26,588.683 1658.4,588.628 1661.54,588.574 1664.68,588.522 1667.82,588.471 1670.96,588.421 1674.1,588.373 1677.24,588.326 1680.38,588.282 1683.52,588.239 1686.66,588.198 1689.8,588.159 1692.93,588.122 1696.07,588.087 1699.21,588.055 1702.35,588.024 1705.49,587.996 1708.63,587.97 1711.77,587.947 1714.91,587.926 1718.05,587.907 1721.19,587.89 1724.33,587.876 1727.47,587.865 1730.61,587.855 1733.75,587.848 1736.89,587.844 1740.03,587.842 1743.17,587.842 1746.31,587.844 1749.45,587.849 1752.59,587.856 1755.73,587.866 1758.86,587.877 1762,587.891 1765.14,587.907 1768.28,587.925 1771.42,587.945 1774.56,587.968 1777.7,587.992 1780.84,588.019 1783.98,588.047 1787.12,588.078 1790.26,588.11 1793.4,588.144 1796.54,588.18 1799.68,588.218 1802.82,588.258 1805.96,588.3 1809.1,588.343 1812.24,588.388 1815.38,588.434 1818.52,588.482 1821.66,588.532 1824.79,588.583 1827.93,588.636 1831.07,588.69 1834.21,588.746 1837.35,588.803 1840.49,588.862 1843.63,588.921 1846.77,588.983 1849.91,589.045 1853.05,589.109 1856.19,589.174 1859.33,589.24 1862.47,589.308 1865.61,589.376 1868.75,589.446 1871.89,589.517 1875.03,589.589 1878.17,589.661 1881.31,589.735 1884.45,589.811 1887.59,589.887 1890.72,589.964 1893.86,590.042 1897,590.12 1900.14,590.2 1903.28,590.281 1906.42,590.363 1909.56,590.445 1912.7,590.529 1915.84,590.613 1918.98,590.698 1922.12,590.784 1925.26,590.87 1928.4,590.958 1931.54,591.046 1934.68,591.135 1937.82,591.224 1940.96,591.315 1944.1,591.406 1947.24,591.498 1950.38,591.591 1953.51,591.684 1956.65,591.778 1959.79,591.873 1962.93,591.968 1966.07,592.064 1969.21,592.161 1972.35,592.258 1975.49,592.356 1978.63,592.455 1981.77,592.554 1984.91,592.654 1988.05,592.755 1991.19,592.856 1994.33,592.958 1997.47,593.06 2000.61,593.163 2003.75,593.267 2006.89,593.372 2010.03,593.477 2013.17,593.582 2016.31,593.689 2019.44,593.796 2022.58,593.903 2025.72,594.011 2028.86,594.12 2032,594.23 2035.14,594.34 2038.28,594.451 2041.42,594.562 2044.56,594.674 2047.7,594.787 2050.84,594.901 2053.98,595.015 2057.12,595.13 2060.26,595.245 2063.4,595.361 2066.54,595.478 2069.68,595.596 2072.82,595.714 2075.96,595.833 2079.1,595.953 2082.24,596.073 2085.37,596.195 2088.51,596.317 2091.65,596.44 2094.79,596.563 2097.93,596.687 2101.07,596.813 2104.21,596.939 2107.35,597.065 2110.49,597.193 2113.63,597.321 2116.77,597.451 2119.91,597.581 2123.05,597.712 2126.19,597.844 2129.33,597.977 2132.47,598.111 2135.61,598.245 2138.75,598.381 2141.89,598.518 2145.03,598.655 2148.17,598.794 2151.3,598.933 2154.44,599.074 2157.58,599.216 2160.72,599.359 2163.86,599.502 2167,599.647 2170.14,599.793 2173.28,599.94 2176.42,600.089 2179.56,600.238 2182.7,600.389 2185.84,600.541 2188.98,600.694 2192.12,600.848 2195.26,601.004 2198.4,601.161 2201.54,601.319 2204.68,601.478 2207.82,601.639 2210.96,601.801 2214.1,601.965 2217.23,602.129 2220.37,602.296 2223.51,602.463 2226.65,602.633 2229.79,602.803 2232.93,602.975 2236.07,603.149 2239.21,603.324 2242.35,603.501 2245.49,603.679 2248.63,603.859 2251.77,604.04 2254.91,604.224 2258.05,604.408 2261.19,604.595 2264.33,604.783 2267.47,604.972 2270.61,605.164 2273.75,605.357 2276.89,605.552 2280.03,605.749 2283.16,605.947 2286.3,606.147 2289.44,606.35 2292.58,606.553 2295.72,606.759 2298.86,606.967 2302,607.176 2305.14,607.387 2308.28,607.6 2311.42,607.815 2314.56,608.032 2317.7,608.251 2320.84,608.472 2323.98,608.694 2327.12,608.918 2330.26,609.145 2333.4,609.373 2336.54,609.603 2339.68,609.835 2342.82,610.069 2345.95,610.305 2349.09,610.542 2352.23,610.781 2355.37,611.023 2358.51,611.266 2361.65,611.51 2364.79,611.757 2367.93,612.005 2371.07,612.255 2374.21,612.507 2377.35,612.76 2380.49,613.015 2383.63,613.271 2386.77,613.529 2389.91,613.788 2393.05,614.049 2396.19,614.311 2399.33,614.575 2402.47,614.839 2405.61,615.105 2408.75,615.372 2411.88,615.64 2415.02,615.909 2418.16,616.178 2421.3,616.449 2424.44,616.72 2427.58,616.992 2430.72,617.264 2433.86,617.536 2437,617.809 2440.14,618.082 2443.28,618.355 2446.42,618.628 2449.56,618.9 2452.7,619.172 2455.84,619.444 2458.98,619.715 2462.12,619.985 2465.26,620.254 2468.4,620.522 2471.54,620.789 2474.68,621.054 2477.81,621.317 2480.95,621.579 2484.09,621.839 2487.23,622.096 2490.37,622.351 2493.51,622.603 2496.65,622.853 2499.79,623.099 2502.93,623.343 2506.07,623.583 2509.21,623.819 2512.35,624.051 2515.49,624.279 2518.63,624.503 2521.77,624.722 2524.91,624.937 2528.05,625.146 2531.19,625.35 2534.33,625.549 2537.47,625.742 2540.61,625.929 2543.74,626.11 2546.88,626.285 2550.02,626.453 2553.16,626.614 2556.3,626.768 2559.44,626.915 2562.58,627.054 2565.72,627.186 2568.86,627.31 2572,627.426 "/>
<circle clip-path="url(#clip981)" cx="374.336" cy="1649.94" r="18" fill="#ff0000" fill-rule="evenodd" fill-opacity="1" stroke="#000000" stroke-opacity="1" stroke-width="3.84"/>
<circle clip-path="url(#clip981)" cx="468.522" cy="1571.39" r="18" fill="#ff0000" fill-rule="evenodd" fill-opacity="1" stroke="#000000" stroke-opacity="1" stroke-width="3.84"/>
<circle clip-path="url(#clip981)" cx="562.708" cy="723.082" r="18" fill="#ff0000" fill-rule="evenodd" fill-opacity="1" stroke="#000000" stroke-opacity="1" stroke-width="3.84"/>
<circle clip-path="url(#clip981)" cx="656.893" cy="251.801" r="18" fill="#ff0000" fill-rule="evenodd" fill-opacity="1" stroke="#000000" stroke-opacity="1" stroke-width="3.84"/>
<circle clip-path="url(#clip981)" cx="751.079" cy="173.254" r="18" fill="#ff0000" fill-rule="evenodd" fill-opacity="1" stroke="#000000" stroke-opacity="1" stroke-width="3.84"/>
<circle clip-path="url(#clip981)" cx="845.264" cy="330.348" r="18" fill="#ff0000" fill-rule="evenodd" fill-opacity="1" stroke="#000000" stroke-opacity="1" stroke-width="3.84"/>
<circle clip-path="url(#clip981)" cx="939.45" cy="377.476" r="18" fill="#ff0000" fill-rule="evenodd" fill-opacity="1" stroke="#000000" stroke-opacity="1" stroke-width="3.84"/>
<circle clip-path="url(#clip981)" cx="1033.64" cy="550.279" r="18" fill="#ff0000" fill-rule="evenodd" fill-opacity="1" stroke="#000000" stroke-opacity="1" stroke-width="3.84"/>
<circle clip-path="url(#clip981)" cx="1127.82" cy="550.279" r="18" fill="#ff0000" fill-rule="evenodd" fill-opacity="1" stroke="#000000" stroke-opacity="1" stroke-width="3.84"/>
<circle clip-path="url(#clip981)" cx="1222.01" cy="440.314" r="18" fill="#ff0000" fill-rule="evenodd" fill-opacity="1" stroke="#000000" stroke-opacity="1" stroke-width="3.84"/>
<circle clip-path="url(#clip981)" cx="1316.19" cy="565.988" r="18" fill="#ff0000" fill-rule="evenodd" fill-opacity="1" stroke="#000000" stroke-opacity="1" stroke-width="3.84"/>
<circle clip-path="url(#clip981)" cx="1410.38" cy="565.988" r="18" fill="#ff0000" fill-rule="evenodd" fill-opacity="1" stroke="#000000" stroke-opacity="1" stroke-width="3.84"/>
<circle clip-path="url(#clip981)" cx="1504.56" cy="503.151" r="18" fill="#ff0000" fill-rule="evenodd" fill-opacity="1" stroke="#000000" stroke-opacity="1" stroke-width="3.84"/>
<circle clip-path="url(#clip981)" cx="1598.75" cy="565.988" r="18" fill="#ff0000" fill-rule="evenodd" fill-opacity="1" stroke="#000000" stroke-opacity="1" stroke-width="3.84"/>
<circle clip-path="url(#clip981)" cx="1692.93" cy="597.407" r="18" fill="#ff0000" fill-rule="evenodd" fill-opacity="1" stroke="#000000" stroke-opacity="1" stroke-width="3.84"/>
<circle clip-path="url(#clip981)" cx="1787.12" cy="565.988" r="18" fill="#ff0000" fill-rule="evenodd" fill-opacity="1" stroke="#000000" stroke-opacity="1" stroke-width="3.84"/>
<circle clip-path="url(#clip981)" cx="1881.31" cy="424.604" r="18" fill="#ff0000" fill-rule="evenodd" fill-opacity="1" stroke="#000000" stroke-opacity="1" stroke-width="3.84"/>
<circle clip-path="url(#clip981)" cx="1975.49" cy="675.954" r="18" fill="#ff0000" fill-rule="evenodd" fill-opacity="1" stroke="#000000" stroke-opacity="1" stroke-width="3.84"/>
<circle clip-path="url(#clip981)" cx="2069.68" cy="597.407" r="18" fill="#ff0000" fill-rule="evenodd" fill-opacity="1" stroke="#000000" stroke-opacity="1" stroke-width="3.84"/>
<circle clip-path="url(#clip981)" cx="2163.86" cy="550.279" r="18" fill="#ff0000" fill-rule="evenodd" fill-opacity="1" stroke="#000000" stroke-opacity="1" stroke-width="3.84"/>
<circle clip-path="url(#clip981)" cx="2258.05" cy="503.151" r="18" fill="#ff0000" fill-rule="evenodd" fill-opacity="1" stroke="#000000" stroke-opacity="1" stroke-width="3.84"/>
<circle clip-path="url(#clip981)" cx="2352.23" cy="738.792" r="18" fill="#ff0000" fill-rule="evenodd" fill-opacity="1" stroke="#000000" stroke-opacity="1" stroke-width="3.84"/>
<circle clip-path="url(#clip981)" cx="2446.42" cy="346.057" r="18" fill="#ff0000" fill-rule="evenodd" fill-opacity="1" stroke="#000000" stroke-opacity="1" stroke-width="3.84"/>
<circle clip-path="url(#clip981)" cx="2540.61" cy="644.535" r="18" fill="#ff0000" fill-rule="evenodd" fill-opacity="1" stroke="#000000" stroke-opacity="1" stroke-width="3.84"/>
<path clip-path="url(#clip980)" d="M1824.97 336.856 L2559.78 336.856 L2559.78 181.336 L1824.97 181.336  Z" fill="#ffffff" fill-rule="evenodd" fill-opacity="1"/>
<polyline clip-path="url(#clip980)" style="stroke:#000000; stroke-linecap:round; stroke-linejoin:round; stroke-width:4; stroke-opacity:1; fill:none" points="1824.97,336.856 2559.78,336.856 2559.78,181.336 1824.97,181.336 1824.97,336.856 "/>
<polyline clip-path="url(#clip980)" style="stroke:#4682b4; stroke-linecap:round; stroke-linejoin:round; stroke-width:8; stroke-opacity:1; fill:none" points="1851.96,233.176 2013.92,233.176 "/>
<path clip-path="url(#clip980)" d="M2040.91 215.896 L2070.15 215.896 L2070.15 219.831 L2057.88 219.831 L2057.88 250.456 L2053.18 250.456 L2053.18 219.831 L2040.91 219.831 L2040.91 215.896 Z" fill="#000000" fill-rule="nonzero" fill-opacity="1" /><path clip-path="url(#clip980)" d="M2082.53 228.512 Q2081.81 228.095 2080.96 227.91 Q2080.12 227.702 2079.11 227.702 Q2075.5 227.702 2073.55 230.063 Q2071.63 232.401 2071.63 236.799 L2071.63 250.456 L2067.35 250.456 L2067.35 224.531 L2071.63 224.531 L2071.63 228.558 Q2072.97 226.197 2075.12 225.063 Q2077.28 223.906 2080.36 223.906 Q2080.8 223.906 2081.33 223.975 Q2081.86 224.021 2082.51 224.137 L2082.53 228.512 Z" fill="#000000" fill-rule="nonzero" fill-opacity="1" /><path clip-path="url(#clip980)" d="M2086.56 240.225 L2086.56 224.531 L2090.82 224.531 L2090.82 240.063 Q2090.82 243.743 2092.25 245.595 Q2093.69 247.424 2096.56 247.424 Q2100.01 247.424 2102 245.225 Q2104.01 243.026 2104.01 239.229 L2104.01 224.531 L2108.27 224.531 L2108.27 250.456 L2104.01 250.456 L2104.01 246.475 Q2102.46 248.836 2100.4 249.993 Q2098.37 251.128 2095.66 251.128 Q2091.19 251.128 2088.87 248.35 Q2086.56 245.572 2086.56 240.225 M2097.28 223.906 L2097.28 223.906 Z" fill="#000000" fill-rule="nonzero" fill-opacity="1" /><path clip-path="url(#clip980)" d="M2139.22 236.429 L2139.22 238.512 L2119.64 238.512 Q2119.92 242.91 2122.28 245.225 Q2124.66 247.516 2128.9 247.516 Q2131.35 247.516 2133.64 246.915 Q2135.96 246.313 2138.23 245.109 L2138.23 249.137 Q2135.93 250.109 2133.53 250.618 Q2131.12 251.128 2128.64 251.128 Q2122.44 251.128 2118.81 247.516 Q2115.19 243.905 2115.19 237.748 Q2115.19 231.382 2118.62 227.655 Q2122.07 223.906 2127.9 223.906 Q2133.13 223.906 2136.17 227.285 Q2139.22 230.642 2139.22 236.429 M2134.96 235.179 Q2134.92 231.683 2132.99 229.6 Q2131.1 227.517 2127.95 227.517 Q2124.38 227.517 2122.23 229.53 Q2120.1 231.544 2119.78 235.202 L2134.96 235.179 Z" fill="#000000" fill-rule="nonzero" fill-opacity="1" /><path clip-path="url(#clip980)" d="M2165.4 246.567 L2165.4 260.317 L2161.12 260.317 L2161.12 224.531 L2165.4 224.531 L2165.4 228.466 Q2166.74 226.151 2168.78 225.04 Q2170.84 223.906 2173.69 223.906 Q2178.41 223.906 2181.35 227.655 Q2184.31 231.405 2184.31 237.517 Q2184.31 243.628 2181.35 247.378 Q2178.41 251.128 2173.69 251.128 Q2170.84 251.128 2168.78 250.016 Q2166.74 248.882 2165.4 246.567 M2179.89 237.517 Q2179.89 232.817 2177.95 230.155 Q2176.03 227.47 2172.65 227.47 Q2169.27 227.47 2167.32 230.155 Q2165.4 232.817 2165.4 237.517 Q2165.4 242.216 2167.32 244.901 Q2169.27 247.563 2172.65 247.563 Q2176.03 247.563 2177.95 244.901 Q2179.89 242.216 2179.89 237.517 Z" fill="#000000" fill-rule="nonzero" fill-opacity="1" /><path clip-path="url(#clip980)" d="M2206.4 228.512 Q2205.68 228.095 2204.82 227.91 Q2203.99 227.702 2202.97 227.702 Q2199.36 227.702 2197.42 230.063 Q2195.49 232.401 2195.49 236.799 L2195.49 250.456 L2191.21 250.456 L2191.21 224.531 L2195.49 224.531 L2195.49 228.558 Q2196.84 226.197 2198.99 225.063 Q2201.14 223.906 2204.22 223.906 Q2204.66 223.906 2205.19 223.975 Q2205.73 224.021 2206.37 224.137 L2206.4 228.512 Z" fill="#000000" fill-rule="nonzero" fill-opacity="1" /><path clip-path="url(#clip980)" d="M2232 236.429 L2232 238.512 L2212.42 238.512 Q2212.69 242.91 2215.05 245.225 Q2217.44 247.516 2221.67 247.516 Q2224.13 247.516 2226.42 246.915 Q2228.74 246.313 2231 245.109 L2231 249.137 Q2228.71 250.109 2226.3 250.618 Q2223.9 251.128 2221.42 251.128 Q2215.22 251.128 2211.58 247.516 Q2207.97 243.905 2207.97 237.748 Q2207.97 231.382 2211.4 227.655 Q2214.85 223.906 2220.68 223.906 Q2225.91 223.906 2228.94 227.285 Q2232 230.642 2232 236.429 M2227.74 235.179 Q2227.69 231.683 2225.77 229.6 Q2223.87 227.517 2220.73 227.517 Q2217.16 227.517 2215.01 229.53 Q2212.88 231.544 2212.55 235.202 L2227.74 235.179 Z" fill="#000000" fill-rule="nonzero" fill-opacity="1" /><path clip-path="url(#clip980)" d="M2235.93 224.531 L2240.45 224.531 L2248.55 246.29 L2256.65 224.531 L2261.17 224.531 L2251.44 250.456 L2245.66 250.456 L2235.93 224.531 Z" fill="#000000" fill-rule="nonzero" fill-opacity="1" /><path clip-path="url(#clip980)" d="M2278.83 237.424 Q2273.67 237.424 2271.67 238.604 Q2269.68 239.785 2269.68 242.632 Q2269.68 244.901 2271.17 246.243 Q2272.67 247.563 2275.24 247.563 Q2278.78 247.563 2280.91 245.063 Q2283.06 242.54 2283.06 238.373 L2283.06 237.424 L2278.83 237.424 M2287.32 235.665 L2287.32 250.456 L2283.06 250.456 L2283.06 246.521 Q2281.61 248.882 2279.43 250.016 Q2277.25 251.128 2274.11 251.128 Q2270.12 251.128 2267.76 248.905 Q2265.42 246.66 2265.42 242.91 Q2265.42 238.535 2268.34 236.313 Q2271.28 234.091 2277.09 234.091 L2283.06 234.091 L2283.06 233.674 Q2283.06 230.734 2281.12 229.137 Q2279.2 227.517 2275.7 227.517 Q2273.48 227.517 2271.37 228.049 Q2269.27 228.581 2267.32 229.646 L2267.32 225.711 Q2269.66 224.808 2271.86 224.368 Q2274.06 223.906 2276.14 223.906 Q2281.77 223.906 2284.54 226.822 Q2287.32 229.739 2287.32 235.665 Z" fill="#000000" fill-rule="nonzero" fill-opacity="1" /><path clip-path="url(#clip980)" d="M2296.1 214.438 L2300.36 214.438 L2300.36 250.456 L2296.1 250.456 L2296.1 214.438 Z" fill="#000000" fill-rule="nonzero" fill-opacity="1" /><path clip-path="url(#clip980)" d="M2331.44 236.429 L2331.44 238.512 L2311.86 238.512 Q2312.14 242.91 2314.5 245.225 Q2316.88 247.516 2321.12 247.516 Q2323.57 247.516 2325.86 246.915 Q2328.18 246.313 2330.45 245.109 L2330.45 249.137 Q2328.16 250.109 2325.75 250.618 Q2323.34 251.128 2320.86 251.128 Q2314.66 251.128 2311.03 247.516 Q2307.42 243.905 2307.42 237.748 Q2307.42 231.382 2310.84 227.655 Q2314.29 223.906 2320.12 223.906 Q2325.35 223.906 2328.39 227.285 Q2331.44 230.642 2331.44 236.429 M2327.18 235.179 Q2327.14 231.683 2325.22 229.6 Q2323.32 227.517 2320.17 227.517 Q2316.6 227.517 2314.45 229.53 Q2312.32 231.544 2312 235.202 L2327.18 235.179 Z" fill="#000000" fill-rule="nonzero" fill-opacity="1" /><path clip-path="url(#clip980)" d="M2359.98 234.808 L2359.98 250.456 L2355.73 250.456 L2355.73 234.947 Q2355.73 231.267 2354.29 229.438 Q2352.85 227.609 2349.98 227.609 Q2346.54 227.609 2344.54 229.808 Q2342.55 232.007 2342.55 235.804 L2342.55 250.456 L2338.27 250.456 L2338.27 224.531 L2342.55 224.531 L2342.55 228.558 Q2344.08 226.22 2346.14 225.063 Q2348.23 223.906 2350.93 223.906 Q2355.4 223.906 2357.69 226.683 Q2359.98 229.438 2359.98 234.808 Z" fill="#000000" fill-rule="nonzero" fill-opacity="1" /><path clip-path="url(#clip980)" d="M2387.14 225.526 L2387.14 229.507 Q2385.33 228.512 2383.5 228.026 Q2381.7 227.517 2379.85 227.517 Q2375.7 227.517 2373.41 230.155 Q2371.12 232.771 2371.12 237.517 Q2371.12 242.262 2373.41 244.901 Q2375.7 247.516 2379.85 247.516 Q2381.7 247.516 2383.5 247.03 Q2385.33 246.521 2387.14 245.526 L2387.14 249.461 Q2385.35 250.294 2383.43 250.711 Q2381.54 251.128 2379.38 251.128 Q2373.53 251.128 2370.08 247.447 Q2366.63 243.767 2366.63 237.517 Q2366.63 231.174 2370.1 227.54 Q2373.6 223.906 2379.66 223.906 Q2381.63 223.906 2383.5 224.322 Q2385.38 224.716 2387.14 225.526 Z" fill="#000000" fill-rule="nonzero" fill-opacity="1" /><path clip-path="url(#clip980)" d="M2416.72 236.429 L2416.72 238.512 L2397.14 238.512 Q2397.41 242.91 2399.78 245.225 Q2402.16 247.516 2406.4 247.516 Q2408.85 247.516 2411.14 246.915 Q2413.46 246.313 2415.72 245.109 L2415.72 249.137 Q2413.43 250.109 2411.03 250.618 Q2408.62 251.128 2406.14 251.128 Q2399.94 251.128 2396.3 247.516 Q2392.69 243.905 2392.69 237.748 Q2392.69 231.382 2396.12 227.655 Q2399.57 223.906 2405.4 223.906 Q2410.63 223.906 2413.66 227.285 Q2416.72 230.642 2416.72 236.429 M2412.46 235.179 Q2412.41 231.683 2410.49 229.6 Q2408.6 227.517 2405.45 227.517 Q2401.88 227.517 2399.73 229.53 Q2397.6 231.544 2397.28 235.202 L2412.46 235.179 Z" fill="#000000" fill-rule="nonzero" fill-opacity="1" /><circle clip-path="url(#clip980)" cx="1932.94" cy="285.016" r="20.9455" fill="#ff0000" fill-rule="evenodd" fill-opacity="1" stroke="#000000" stroke-opacity="1" stroke-width="4.46836"/>
<path clip-path="url(#clip980)" d="M2063.16 268.871 L2063.16 273.431 Q2060.5 272.158 2058.13 271.533 Q2055.77 270.908 2053.57 270.908 Q2049.75 270.908 2047.67 272.389 Q2045.61 273.871 2045.61 276.602 Q2045.61 278.894 2046.98 280.074 Q2048.37 281.232 2052.21 281.949 L2055.03 282.528 Q2060.26 283.523 2062.74 286.046 Q2065.24 288.546 2065.24 292.759 Q2065.24 297.782 2061.86 300.375 Q2058.5 302.968 2052 302.968 Q2049.55 302.968 2046.77 302.412 Q2044.01 301.856 2041.05 300.769 L2041.05 295.954 Q2043.9 297.551 2046.63 298.361 Q2049.36 299.171 2052 299.171 Q2056 299.171 2058.18 297.597 Q2060.36 296.023 2060.36 293.107 Q2060.36 290.56 2058.78 289.125 Q2057.23 287.69 2053.67 286.972 L2050.82 286.417 Q2045.59 285.375 2043.25 283.153 Q2040.91 280.931 2040.91 276.972 Q2040.91 272.389 2044.13 269.75 Q2047.37 267.111 2053.04 267.111 Q2055.47 267.111 2058 267.551 Q2060.52 267.991 2063.16 268.871 Z" fill="#000000" fill-rule="nonzero" fill-opacity="1" /><path clip-path="url(#clip980)" d="M2071.91 292.065 L2071.91 276.371 L2076.17 276.371 L2076.17 291.903 Q2076.17 295.583 2077.6 297.435 Q2079.04 299.264 2081.91 299.264 Q2085.36 299.264 2087.35 297.065 Q2089.36 294.866 2089.36 291.069 L2089.36 276.371 L2093.62 276.371 L2093.62 302.296 L2089.36 302.296 L2089.36 298.315 Q2087.81 300.676 2085.75 301.833 Q2083.71 302.968 2081 302.968 Q2076.54 302.968 2074.22 300.19 Q2071.91 297.412 2071.91 292.065 M2082.62 275.746 L2082.62 275.746 Z" fill="#000000" fill-rule="nonzero" fill-opacity="1" /><path clip-path="url(#clip980)" d="M2117.42 280.352 Q2116.7 279.935 2115.84 279.75 Q2115.01 279.542 2113.99 279.542 Q2110.38 279.542 2108.43 281.903 Q2106.51 284.241 2106.51 288.639 L2106.51 302.296 L2102.23 302.296 L2102.23 276.371 L2106.51 276.371 L2106.51 280.398 Q2107.86 278.037 2110.01 276.903 Q2112.16 275.746 2115.24 275.746 Q2115.68 275.746 2116.21 275.815 Q2116.74 275.861 2117.39 275.977 L2117.42 280.352 Z" fill="#000000" fill-rule="nonzero" fill-opacity="1" /><path clip-path="url(#clip980)" d="M2118.83 276.371 L2123.34 276.371 L2131.44 298.13 L2139.55 276.371 L2144.06 276.371 L2134.34 302.296 L2128.55 302.296 L2118.83 276.371 Z" fill="#000000" fill-rule="nonzero" fill-opacity="1" /><path clip-path="url(#clip980)" d="M2172.11 288.269 L2172.11 290.352 L2152.53 290.352 Q2152.81 294.75 2155.17 297.065 Q2157.55 299.356 2161.79 299.356 Q2164.24 299.356 2166.54 298.755 Q2168.85 298.153 2171.12 296.949 L2171.12 300.977 Q2168.83 301.949 2166.42 302.458 Q2164.01 302.968 2161.54 302.968 Q2155.33 302.968 2151.7 299.356 Q2148.09 295.745 2148.09 289.588 Q2148.09 283.222 2151.51 279.495 Q2154.96 275.746 2160.8 275.746 Q2166.03 275.746 2169.06 279.125 Q2172.11 282.482 2172.11 288.269 M2167.86 287.019 Q2167.81 283.523 2165.89 281.44 Q2163.99 279.357 2160.84 279.357 Q2157.28 279.357 2155.12 281.37 Q2152.99 283.384 2152.67 287.042 L2167.86 287.019 Z" fill="#000000" fill-rule="nonzero" fill-opacity="1" /><path clip-path="url(#clip980)" d="M2189.89 304.704 Q2188.09 309.333 2186.37 310.745 Q2184.66 312.157 2181.79 312.157 L2178.39 312.157 L2178.39 308.593 L2180.89 308.593 Q2182.65 308.593 2183.62 307.759 Q2184.59 306.926 2185.77 303.824 L2186.54 301.88 L2176.05 276.371 L2180.56 276.371 L2188.67 296.648 L2196.77 276.371 L2201.28 276.371 L2189.89 304.704 Z" fill="#000000" fill-rule="nonzero" fill-opacity="1" /><path clip-path="url(#clip980)" d="M2239.29 280.306 L2239.29 266.278 L2243.55 266.278 L2243.55 302.296 L2239.29 302.296 L2239.29 298.407 Q2237.95 300.722 2235.89 301.856 Q2233.85 302.968 2230.98 302.968 Q2226.28 302.968 2223.32 299.218 Q2220.38 295.468 2220.38 289.357 Q2220.38 283.245 2223.32 279.495 Q2226.28 275.746 2230.98 275.746 Q2233.85 275.746 2235.89 276.88 Q2237.95 277.991 2239.29 280.306 M2224.78 289.357 Q2224.78 294.056 2226.7 296.741 Q2228.64 299.403 2232.02 299.403 Q2235.4 299.403 2237.35 296.741 Q2239.29 294.056 2239.29 289.357 Q2239.29 284.657 2237.35 281.995 Q2235.4 279.31 2232.02 279.31 Q2228.64 279.31 2226.7 281.995 Q2224.78 284.657 2224.78 289.357 Z" fill="#000000" fill-rule="nonzero" fill-opacity="1" /><path clip-path="url(#clip980)" d="M2264.11 289.264 Q2258.94 289.264 2256.95 290.444 Q2254.96 291.625 2254.96 294.472 Q2254.96 296.741 2256.44 298.083 Q2257.95 299.403 2260.52 299.403 Q2264.06 299.403 2266.19 296.903 Q2268.34 294.38 2268.34 290.213 L2268.34 289.264 L2264.11 289.264 M2272.6 287.505 L2272.6 302.296 L2268.34 302.296 L2268.34 298.361 Q2266.88 300.722 2264.71 301.856 Q2262.53 302.968 2259.38 302.968 Q2255.4 302.968 2253.04 300.745 Q2250.7 298.5 2250.7 294.75 Q2250.7 290.375 2253.62 288.153 Q2256.56 285.931 2262.37 285.931 L2268.34 285.931 L2268.34 285.514 Q2268.34 282.574 2266.4 280.977 Q2264.48 279.357 2260.98 279.357 Q2258.76 279.357 2256.65 279.889 Q2254.55 280.421 2252.6 281.486 L2252.6 277.551 Q2254.94 276.648 2257.14 276.208 Q2259.34 275.746 2261.42 275.746 Q2267.05 275.746 2269.82 278.662 Q2272.6 281.579 2272.6 287.505 Z" fill="#000000" fill-rule="nonzero" fill-opacity="1" /><path clip-path="url(#clip980)" d="M2285.59 269.009 L2285.59 276.371 L2294.36 276.371 L2294.36 279.681 L2285.59 279.681 L2285.59 293.755 Q2285.59 296.926 2286.44 297.829 Q2287.32 298.731 2289.98 298.731 L2294.36 298.731 L2294.36 302.296 L2289.98 302.296 Q2285.05 302.296 2283.18 300.468 Q2281.3 298.616 2281.3 293.755 L2281.3 279.681 L2278.18 279.681 L2278.18 276.371 L2281.3 276.371 L2281.3 269.009 L2285.59 269.009 Z" fill="#000000" fill-rule="nonzero" fill-opacity="1" /><path clip-path="url(#clip980)" d="M2311.74 289.264 Q2306.58 289.264 2304.59 290.444 Q2302.6 291.625 2302.6 294.472 Q2302.6 296.741 2304.08 298.083 Q2305.59 299.403 2308.16 299.403 Q2311.7 299.403 2313.83 296.903 Q2315.98 294.38 2315.98 290.213 L2315.98 289.264 L2311.74 289.264 M2320.24 287.505 L2320.24 302.296 L2315.98 302.296 L2315.98 298.361 Q2314.52 300.722 2312.35 301.856 Q2310.17 302.968 2307.02 302.968 Q2303.04 302.968 2300.68 300.745 Q2298.34 298.5 2298.34 294.75 Q2298.34 290.375 2301.26 288.153 Q2304.2 285.931 2310.01 285.931 L2315.98 285.931 L2315.98 285.514 Q2315.98 282.574 2314.04 280.977 Q2312.11 279.357 2308.62 279.357 Q2306.4 279.357 2304.29 279.889 Q2302.18 280.421 2300.24 281.486 L2300.24 277.551 Q2302.58 276.648 2304.78 276.208 Q2306.98 275.746 2309.06 275.746 Q2314.68 275.746 2317.46 278.662 Q2320.24 281.579 2320.24 287.505 Z" fill="#000000" fill-rule="nonzero" fill-opacity="1" /><path clip-path="url(#clip980)" d="M2354.31 266.324 Q2351.21 271.648 2349.71 276.857 Q2348.2 282.065 2348.2 287.412 Q2348.2 292.759 2349.71 298.014 Q2351.23 303.245 2354.31 308.546 L2350.61 308.546 Q2347.14 303.106 2345.4 297.852 Q2343.69 292.597 2343.69 287.412 Q2343.69 282.25 2345.4 277.019 Q2347.11 271.787 2350.61 266.324 L2354.31 266.324 Z" fill="#000000" fill-rule="nonzero" fill-opacity="1" /><path clip-path="url(#clip980)" d="M2384.13 286.648 L2384.13 302.296 L2379.87 302.296 L2379.87 286.787 Q2379.87 283.107 2378.43 281.278 Q2377 279.449 2374.13 279.449 Q2370.68 279.449 2368.69 281.648 Q2366.7 283.847 2366.7 287.644 L2366.7 302.296 L2362.41 302.296 L2362.41 276.371 L2366.7 276.371 L2366.7 280.398 Q2368.23 278.06 2370.29 276.903 Q2372.37 275.746 2375.08 275.746 Q2379.54 275.746 2381.84 278.523 Q2384.13 281.278 2384.13 286.648 Z" fill="#000000" fill-rule="nonzero" fill-opacity="1" /><path clip-path="url(#clip980)" d="M2393.18 280.769 L2422.85 280.769 L2422.85 284.657 L2393.18 284.657 L2393.18 280.769 M2393.18 290.213 L2422.85 290.213 L2422.85 294.148 L2393.18 294.148 L2393.18 290.213 Z" fill="#000000" fill-rule="nonzero" fill-opacity="1" /><path clip-path="url(#clip980)" d="M2436.97 298.361 L2453.29 298.361 L2453.29 302.296 L2431.35 302.296 L2431.35 298.361 Q2434.01 295.607 2438.6 290.977 Q2443.2 286.324 2444.38 284.982 Q2446.63 282.458 2447.51 280.722 Q2448.41 278.963 2448.41 277.273 Q2448.41 274.519 2446.47 272.783 Q2444.54 271.046 2441.44 271.046 Q2439.24 271.046 2436.79 271.81 Q2434.36 272.574 2431.58 274.125 L2431.58 269.403 Q2434.41 268.269 2436.86 267.69 Q2439.31 267.111 2441.35 267.111 Q2446.72 267.111 2449.91 269.796 Q2453.11 272.482 2453.11 276.972 Q2453.11 279.102 2452.3 281.023 Q2451.51 282.921 2449.41 285.514 Q2448.83 286.185 2445.72 289.403 Q2442.62 292.597 2436.97 298.361 Z" fill="#000000" fill-rule="nonzero" fill-opacity="1" /><path clip-path="url(#clip980)" d="M2473.11 270.815 Q2469.5 270.815 2467.67 274.38 Q2465.86 277.921 2465.86 285.051 Q2465.86 292.157 2467.67 295.722 Q2469.5 299.264 2473.11 299.264 Q2476.74 299.264 2478.55 295.722 Q2480.38 292.157 2480.38 285.051 Q2480.38 277.921 2478.55 274.38 Q2476.74 270.815 2473.11 270.815 M2473.11 267.111 Q2478.92 267.111 2481.97 271.718 Q2485.05 276.301 2485.05 285.051 Q2485.05 293.778 2481.97 298.384 Q2478.92 302.968 2473.11 302.968 Q2467.3 302.968 2464.22 298.384 Q2461.16 293.778 2461.16 285.051 Q2461.16 276.301 2464.22 271.718 Q2467.3 267.111 2473.11 267.111 Z" fill="#000000" fill-rule="nonzero" fill-opacity="1" /><path clip-path="url(#clip980)" d="M2503.27 270.815 Q2499.66 270.815 2497.83 274.38 Q2496.03 277.921 2496.03 285.051 Q2496.03 292.157 2497.83 295.722 Q2499.66 299.264 2503.27 299.264 Q2506.9 299.264 2508.71 295.722 Q2510.54 292.157 2510.54 285.051 Q2510.54 277.921 2508.71 274.38 Q2506.9 270.815 2503.27 270.815 M2503.27 267.111 Q2509.08 267.111 2512.14 271.718 Q2515.21 276.301 2515.21 285.051 Q2515.21 293.778 2512.14 298.384 Q2509.08 302.968 2503.27 302.968 Q2497.46 302.968 2494.38 298.384 Q2491.33 293.778 2491.33 285.051 Q2491.33 276.301 2494.38 271.718 Q2497.46 267.111 2503.27 267.111 Z" fill="#000000" fill-rule="nonzero" fill-opacity="1" /><path clip-path="url(#clip980)" d="M2522.16 266.324 L2525.86 266.324 Q2529.34 271.787 2531.05 277.019 Q2532.78 282.25 2532.78 287.412 Q2532.78 292.597 2531.05 297.852 Q2529.34 303.106 2525.86 308.546 L2522.16 308.546 Q2525.24 303.245 2526.74 298.014 Q2528.27 292.759 2528.27 287.412 Q2528.27 282.065 2526.74 276.857 Q2525.24 271.648 2522.16 266.324 Z" fill="#000000" fill-rule="nonzero" fill-opacity="1" /></svg>
