<?xml version="1.0" encoding="utf-8"?>
<svg xmlns="http://www.w3.org/2000/svg" xmlns:xlink="http://www.w3.org/1999/xlink" width="672" height="480" viewBox="0 0 2688 1920">
<defs>
  <clipPath id="clip360">
    <rect x="0" y="0" width="2688" height="1920"/>
  </clipPath>
</defs>
<path clip-path="url(#clip360)" d="M0 1920 L2688 1920 L2688 -4.26326e-14 L0 -4.26326e-14  Z" fill="#ffffff" fill-rule="evenodd" fill-opacity="1"/>
<defs>
  <clipPath id="clip361">
    <rect x="211" y="127" width="2430" height="1607"/>
  </clipPath>
</defs>
<path clip-path="url(#clip360)" d="M211.395 1734.12 L2640.76 1734.12 L2640.76 127.792 L211.395 127.792  Z" fill="#ffffff" fill-rule="evenodd" fill-opacity="1"/>
<polyline clip-path="url(#clip361)" style="stroke:#000000; stroke-linecap:round; stroke-linejoin:round; stroke-width:2; stroke-opacity:0.1; fill:none" points="264.769,1734.12 264.769,127.792 "/>
<polyline clip-path="url(#clip361)" style="stroke:#000000; stroke-linecap:round; stroke-linejoin:round; stroke-width:2; stroke-opacity:0.1; fill:none" points="1033.85,1734.12 1033.85,127.792 "/>
<polyline clip-path="url(#clip361)" style="stroke:#000000; stroke-linecap:round; stroke-linejoin:round; stroke-width:2; stroke-opacity:0.1; fill:none" points="1802.92,1734.12 1802.92,127.792 "/>
<polyline clip-path="url(#clip361)" style="stroke:#000000; stroke-linecap:round; stroke-linejoin:round; stroke-width:2; stroke-opacity:0.1; fill:none" points="2572,1734.12 2572,127.792 "/>
<polyline clip-path="url(#clip361)" style="stroke:#000000; stroke-linecap:round; stroke-linejoin:round; stroke-width:2; stroke-opacity:0.1; fill:none" points="211.395,1688.65 2640.76,1688.65 "/>
<polyline clip-path="url(#clip361)" style="stroke:#000000; stroke-linecap:round; stroke-linejoin:round; stroke-width:2; stroke-opacity:0.1; fill:none" points="211.395,1255.68 2640.76,1255.68 "/>
<polyline clip-path="url(#clip361)" style="stroke:#000000; stroke-linecap:round; stroke-linejoin:round; stroke-width:2; stroke-opacity:0.1; fill:none" points="211.395,822.712 2640.76,822.712 "/>
<polyline clip-path="url(#clip361)" style="stroke:#000000; stroke-linecap:round; stroke-linejoin:round; stroke-width:2; stroke-opacity:0.1; fill:none" points="211.395,389.74 2640.76,389.74 "/>
<polyline clip-path="url(#clip360)" style="stroke:#000000; stroke-linecap:round; stroke-linejoin:round; stroke-width:4; stroke-opacity:1; fill:none" points="211.395,1734.12 2640.76,1734.12 "/>
<polyline clip-path="url(#clip360)" style="stroke:#000000; stroke-linecap:round; stroke-linejoin:round; stroke-width:4; stroke-opacity:1; fill:none" points="264.769,1734.12 264.769,1715.22 "/>
<polyline clip-path="url(#clip360)" style="stroke:#000000; stroke-linecap:round; stroke-linejoin:round; stroke-width:4; stroke-opacity:1; fill:none" points="1033.85,1734.12 1033.85,1715.22 "/>
<polyline clip-path="url(#clip360)" style="stroke:#000000; stroke-linecap:round; stroke-linejoin:round; stroke-width:4; stroke-opacity:1; fill:none" points="1802.92,1734.12 1802.92,1715.22 "/>
<polyline clip-path="url(#clip360)" style="stroke:#000000; stroke-linecap:round; stroke-linejoin:round; stroke-width:4; stroke-opacity:1; fill:none" points="2572,1734.12 2572,1715.22 "/>
<path clip-path="url(#clip360)" d="M264.769 1767.34 Q261.158 1767.34 259.329 1770.9 Q257.524 1774.45 257.524 1781.58 Q257.524 1788.68 259.329 1792.25 Q261.158 1795.79 264.769 1795.79 Q268.403 1795.79 270.209 1792.25 Q272.038 1788.68 272.038 1781.58 Q272.038 1774.45 270.209 1770.9 Q268.403 1767.34 264.769 1767.34 M264.769 1763.64 Q270.579 1763.64 273.635 1768.24 Q276.714 1772.83 276.714 1781.58 Q276.714 1790.3 273.635 1794.91 Q270.579 1799.49 264.769 1799.49 Q258.959 1799.49 255.88 1794.91 Q252.825 1790.3 252.825 1781.58 Q252.825 1772.83 255.88 1768.24 Q258.959 1763.64 264.769 1763.64 Z" fill="#000000" fill-rule="nonzero" fill-opacity="1" /><path clip-path="url(#clip360)" d="M1008.55 1764.26 L1026.9 1764.26 L1026.9 1768.2 L1012.83 1768.2 L1012.83 1776.67 Q1013.85 1776.32 1014.86 1776.16 Q1015.88 1775.97 1016.9 1775.97 Q1022.69 1775.97 1026.07 1779.15 Q1029.45 1782.32 1029.45 1787.73 Q1029.45 1793.31 1025.98 1796.41 Q1022.5 1799.49 1016.18 1799.49 Q1014.01 1799.49 1011.74 1799.12 Q1009.49 1798.75 1007.09 1798.01 L1007.09 1793.31 Q1009.17 1794.45 1011.39 1795 Q1013.61 1795.56 1016.09 1795.56 Q1020.1 1795.56 1022.43 1793.45 Q1024.77 1791.34 1024.77 1787.73 Q1024.77 1784.12 1022.43 1782.02 Q1020.1 1779.91 1016.09 1779.91 Q1014.22 1779.91 1012.34 1780.33 Q1010.49 1780.74 1008.55 1781.62 L1008.55 1764.26 Z" fill="#000000" fill-rule="nonzero" fill-opacity="1" /><path clip-path="url(#clip360)" d="M1048.66 1767.34 Q1045.05 1767.34 1043.22 1770.9 Q1041.42 1774.45 1041.42 1781.58 Q1041.42 1788.68 1043.22 1792.25 Q1045.05 1795.79 1048.66 1795.79 Q1052.3 1795.79 1054.1 1792.25 Q1055.93 1788.68 1055.93 1781.58 Q1055.93 1774.45 1054.1 1770.9 Q1052.3 1767.34 1048.66 1767.34 M1048.66 1763.64 Q1054.47 1763.64 1057.53 1768.24 Q1060.61 1772.83 1060.61 1781.58 Q1060.61 1790.3 1057.53 1794.91 Q1054.47 1799.49 1048.66 1799.49 Q1042.85 1799.49 1039.77 1794.91 Q1036.72 1790.3 1036.72 1781.58 Q1036.72 1772.83 1039.77 1768.24 Q1042.85 1763.64 1048.66 1763.64 Z" fill="#000000" fill-rule="nonzero" fill-opacity="1" /><path clip-path="url(#clip360)" d="M1762.53 1794.89 L1770.17 1794.89 L1770.17 1768.52 L1761.86 1770.19 L1761.86 1765.93 L1770.12 1764.26 L1774.8 1764.26 L1774.8 1794.89 L1782.44 1794.89 L1782.44 1798.82 L1762.53 1798.82 L1762.53 1794.89 Z" fill="#000000" fill-rule="nonzero" fill-opacity="1" /><path clip-path="url(#clip360)" d="M1801.88 1767.34 Q1798.27 1767.34 1796.44 1770.9 Q1794.64 1774.45 1794.64 1781.58 Q1794.64 1788.68 1796.44 1792.25 Q1798.27 1795.79 1801.88 1795.79 Q1805.52 1795.79 1807.32 1792.25 Q1809.15 1788.68 1809.15 1781.58 Q1809.15 1774.45 1807.32 1770.9 Q1805.52 1767.34 1801.88 1767.34 M1801.88 1763.64 Q1807.69 1763.64 1810.75 1768.24 Q1813.83 1772.83 1813.83 1781.58 Q1813.83 1790.3 1810.75 1794.91 Q1807.69 1799.49 1801.88 1799.49 Q1796.07 1799.49 1792.99 1794.91 Q1789.94 1790.3 1789.94 1781.58 Q1789.94 1772.83 1792.99 1768.24 Q1796.07 1763.64 1801.88 1763.64 Z" fill="#000000" fill-rule="nonzero" fill-opacity="1" /><path clip-path="url(#clip360)" d="M1832.04 1767.34 Q1828.43 1767.34 1826.6 1770.9 Q1824.8 1774.45 1824.8 1781.58 Q1824.8 1788.68 1826.6 1792.25 Q1828.43 1795.79 1832.04 1795.79 Q1835.68 1795.79 1837.48 1792.25 Q1839.31 1788.68 1839.31 1781.58 Q1839.31 1774.45 1837.48 1770.9 Q1835.68 1767.34 1832.04 1767.34 M1832.04 1763.64 Q1837.85 1763.64 1840.91 1768.24 Q1843.99 1772.83 1843.99 1781.58 Q1843.99 1790.3 1840.91 1794.91 Q1837.85 1799.49 1832.04 1799.49 Q1826.23 1799.49 1823.15 1794.91 Q1820.1 1790.3 1820.1 1781.58 Q1820.1 1772.83 1823.15 1768.24 Q1826.23 1763.64 1832.04 1763.64 Z" fill="#000000" fill-rule="nonzero" fill-opacity="1" /><path clip-path="url(#clip360)" d="M2531.61 1794.89 L2539.25 1794.89 L2539.25 1768.52 L2530.94 1770.19 L2530.94 1765.93 L2539.2 1764.26 L2543.88 1764.26 L2543.88 1794.89 L2551.51 1794.89 L2551.51 1798.82 L2531.61 1798.82 L2531.61 1794.89 Z" fill="#000000" fill-rule="nonzero" fill-opacity="1" /><path clip-path="url(#clip360)" d="M2561.01 1764.26 L2579.36 1764.26 L2579.36 1768.2 L2565.29 1768.2 L2565.29 1776.67 Q2566.31 1776.32 2567.32 1776.16 Q2568.34 1775.97 2569.36 1775.97 Q2575.15 1775.97 2578.53 1779.15 Q2581.91 1782.32 2581.91 1787.73 Q2581.91 1793.31 2578.44 1796.41 Q2574.96 1799.49 2568.64 1799.49 Q2566.47 1799.49 2564.2 1799.12 Q2561.95 1798.75 2559.55 1798.01 L2559.55 1793.31 Q2561.63 1794.45 2563.85 1795 Q2566.07 1795.56 2568.55 1795.56 Q2572.56 1795.56 2574.89 1793.45 Q2577.23 1791.34 2577.23 1787.73 Q2577.23 1784.12 2574.89 1782.02 Q2572.56 1779.91 2568.55 1779.91 Q2566.68 1779.91 2564.8 1780.33 Q2562.95 1780.74 2561.01 1781.62 L2561.01 1764.26 Z" fill="#000000" fill-rule="nonzero" fill-opacity="1" /><path clip-path="url(#clip360)" d="M2601.12 1767.34 Q2597.51 1767.34 2595.68 1770.9 Q2593.88 1774.45 2593.88 1781.58 Q2593.88 1788.68 2595.68 1792.25 Q2597.51 1795.79 2601.12 1795.79 Q2604.75 1795.79 2606.56 1792.25 Q2608.39 1788.68 2608.39 1781.58 Q2608.39 1774.45 2606.56 1770.9 Q2604.75 1767.34 2601.12 1767.34 M2601.12 1763.64 Q2606.93 1763.64 2609.99 1768.24 Q2613.07 1772.83 2613.07 1781.58 Q2613.07 1790.3 2609.99 1794.91 Q2606.93 1799.49 2601.12 1799.49 Q2595.31 1799.49 2592.23 1794.91 Q2589.18 1790.3 2589.18 1781.58 Q2589.18 1772.83 2592.23 1768.24 Q2595.31 1763.64 2601.12 1763.64 Z" fill="#000000" fill-rule="nonzero" fill-opacity="1" /><path clip-path="url(#clip360)" d="M1347.95 1835.78 L1388.15 1835.78 L1388.15 1841.19 L1371.28 1841.19 L1371.28 1883.3 L1364.82 1883.3 L1364.82 1841.19 L1347.95 1841.19 L1347.95 1835.78 Z" fill="#000000" fill-rule="nonzero" fill-opacity="1" /><path clip-path="url(#clip360)" d="M1392.1 1847.65 L1397.96 1847.65 L1397.96 1883.3 L1392.1 1883.3 L1392.1 1847.65 M1392.1 1833.78 L1397.96 1833.78 L1397.96 1841.19 L1392.1 1841.19 L1392.1 1833.78 Z" fill="#000000" fill-rule="nonzero" fill-opacity="1" /><path clip-path="url(#clip360)" d="M1437.96 1854.5 Q1440.16 1850.55 1443.22 1848.67 Q1446.27 1846.79 1450.41 1846.79 Q1455.98 1846.79 1459 1850.71 Q1462.03 1854.59 1462.03 1861.78 L1462.03 1883.3 L1456.14 1883.3 L1456.14 1861.98 Q1456.14 1856.85 1454.32 1854.37 Q1452.51 1851.89 1448.79 1851.89 Q1444.23 1851.89 1441.59 1854.91 Q1438.95 1857.93 1438.95 1863.15 L1438.95 1883.3 L1433.06 1883.3 L1433.06 1861.98 Q1433.06 1856.82 1431.25 1854.37 Q1429.43 1851.89 1425.65 1851.89 Q1421.16 1851.89 1418.52 1854.94 Q1415.87 1857.97 1415.87 1863.15 L1415.87 1883.3 L1409.99 1883.3 L1409.99 1847.65 L1415.87 1847.65 L1415.87 1853.19 Q1417.88 1849.91 1420.68 1848.35 Q1423.48 1846.79 1427.33 1846.79 Q1431.22 1846.79 1433.92 1848.77 Q1436.66 1850.74 1437.96 1854.5 Z" fill="#000000" fill-rule="nonzero" fill-opacity="1" /><path clip-path="url(#clip360)" d="M1504.2 1864.01 L1504.2 1866.88 L1477.27 1866.88 Q1477.65 1872.92 1480.9 1876.11 Q1484.18 1879.26 1490 1879.26 Q1493.38 1879.26 1496.53 1878.43 Q1499.71 1877.6 1502.83 1875.95 L1502.83 1881.49 Q1499.68 1882.82 1496.37 1883.52 Q1493.06 1884.22 1489.65 1884.22 Q1481.12 1884.22 1476.13 1879.26 Q1471.16 1874.29 1471.16 1865.83 Q1471.16 1857.07 1475.87 1851.95 Q1480.61 1846.79 1488.63 1846.79 Q1495.83 1846.79 1500 1851.44 Q1504.2 1856.06 1504.2 1864.01 M1498.34 1862.29 Q1498.28 1857.49 1495.64 1854.62 Q1493.03 1851.76 1488.7 1851.76 Q1483.8 1851.76 1480.84 1854.53 Q1477.91 1857.3 1477.46 1862.33 L1498.34 1862.29 Z" fill="#000000" fill-rule="nonzero" fill-opacity="1" /><polyline clip-path="url(#clip360)" style="stroke:#000000; stroke-linecap:round; stroke-linejoin:round; stroke-width:4; stroke-opacity:1; fill:none" points="211.395,1734.12 211.395,127.792 "/>
<polyline clip-path="url(#clip360)" style="stroke:#000000; stroke-linecap:round; stroke-linejoin:round; stroke-width:4; stroke-opacity:1; fill:none" points="211.395,1688.65 230.293,1688.65 "/>
<polyline clip-path="url(#clip360)" style="stroke:#000000; stroke-linecap:round; stroke-linejoin:round; stroke-width:4; stroke-opacity:1; fill:none" points="211.395,1255.68 230.293,1255.68 "/>
<polyline clip-path="url(#clip360)" style="stroke:#000000; stroke-linecap:round; stroke-linejoin:round; stroke-width:4; stroke-opacity:1; fill:none" points="211.395,822.712 230.293,822.712 "/>
<polyline clip-path="url(#clip360)" style="stroke:#000000; stroke-linecap:round; stroke-linejoin:round; stroke-width:4; stroke-opacity:1; fill:none" points="211.395,389.74 230.293,389.74 "/>
<path clip-path="url(#clip360)" d="M159.131 1674.45 Q155.52 1674.45 153.691 1678.02 Q151.886 1681.56 151.886 1688.69 Q151.886 1695.8 153.691 1699.36 Q155.52 1702.9 159.131 1702.9 Q162.765 1702.9 164.571 1699.36 Q166.399 1695.8 166.399 1688.69 Q166.399 1681.56 164.571 1678.02 Q162.765 1674.45 159.131 1674.45 M159.131 1670.75 Q164.941 1670.75 167.997 1675.36 Q171.075 1679.94 171.075 1688.69 Q171.075 1697.42 167.997 1702.02 Q164.941 1706.61 159.131 1706.61 Q153.321 1706.61 150.242 1702.02 Q147.186 1697.42 147.186 1688.69 Q147.186 1679.94 150.242 1675.36 Q153.321 1670.75 159.131 1670.75 Z" fill="#000000" fill-rule="nonzero" fill-opacity="1" /><path clip-path="url(#clip360)" d="M122.997 1269.03 L139.316 1269.03 L139.316 1272.96 L117.372 1272.96 L117.372 1269.03 Q120.034 1266.27 124.617 1261.64 Q129.224 1256.99 130.404 1255.65 Q132.65 1253.13 133.529 1251.39 Q134.432 1249.63 134.432 1247.94 Q134.432 1245.19 132.488 1243.45 Q130.566 1241.71 127.464 1241.71 Q125.265 1241.71 122.812 1242.48 Q120.381 1243.24 117.603 1244.79 L117.603 1240.07 Q120.427 1238.94 122.881 1238.36 Q125.335 1237.78 127.372 1237.78 Q132.742 1237.78 135.937 1240.46 Q139.131 1243.15 139.131 1247.64 Q139.131 1249.77 138.321 1251.69 Q137.534 1253.59 135.427 1256.18 Q134.849 1256.85 131.747 1260.07 Q128.645 1263.26 122.997 1269.03 Z" fill="#000000" fill-rule="nonzero" fill-opacity="1" /><path clip-path="url(#clip360)" d="M159.131 1241.48 Q155.52 1241.48 153.691 1245.05 Q151.886 1248.59 151.886 1255.72 Q151.886 1262.82 153.691 1266.39 Q155.52 1269.93 159.131 1269.93 Q162.765 1269.93 164.571 1266.39 Q166.399 1262.82 166.399 1255.72 Q166.399 1248.59 164.571 1245.05 Q162.765 1241.48 159.131 1241.48 M159.131 1237.78 Q164.941 1237.78 167.997 1242.38 Q171.075 1246.97 171.075 1255.72 Q171.075 1264.44 167.997 1269.05 Q164.941 1273.63 159.131 1273.63 Q153.321 1273.63 150.242 1269.05 Q147.186 1264.44 147.186 1255.72 Q147.186 1246.97 150.242 1242.38 Q153.321 1237.78 159.131 1237.78 Z" fill="#000000" fill-rule="nonzero" fill-opacity="1" /><path clip-path="url(#clip360)" d="M131.816 809.506 L120.011 827.955 L131.816 827.955 L131.816 809.506 M130.589 805.432 L136.469 805.432 L136.469 827.955 L141.399 827.955 L141.399 831.844 L136.469 831.844 L136.469 839.992 L131.816 839.992 L131.816 831.844 L116.214 831.844 L116.214 827.33 L130.589 805.432 Z" fill="#000000" fill-rule="nonzero" fill-opacity="1" /><path clip-path="url(#clip360)" d="M159.131 808.51 Q155.52 808.51 153.691 812.075 Q151.886 815.617 151.886 822.746 Q151.886 829.853 153.691 833.418 Q155.52 836.959 159.131 836.959 Q162.765 836.959 164.571 833.418 Q166.399 829.853 166.399 822.746 Q166.399 815.617 164.571 812.075 Q162.765 808.51 159.131 808.51 M159.131 804.807 Q164.941 804.807 167.997 809.413 Q171.075 813.996 171.075 822.746 Q171.075 831.473 167.997 836.08 Q164.941 840.663 159.131 840.663 Q153.321 840.663 150.242 836.08 Q147.186 831.473 147.186 822.746 Q147.186 813.996 150.242 809.413 Q153.321 804.807 159.131 804.807 Z" fill="#000000" fill-rule="nonzero" fill-opacity="1" /><path clip-path="url(#clip360)" d="M129.548 387.877 Q126.4 387.877 124.548 390.029 Q122.719 392.182 122.719 395.932 Q122.719 399.659 124.548 401.835 Q126.4 403.988 129.548 403.988 Q132.696 403.988 134.525 401.835 Q136.376 399.659 136.376 395.932 Q136.376 392.182 134.525 390.029 Q132.696 387.877 129.548 387.877 M138.83 373.224 L138.83 377.483 Q137.071 376.65 135.265 376.21 Q133.483 375.77 131.724 375.77 Q127.094 375.77 124.64 378.895 Q122.21 382.02 121.863 388.34 Q123.228 386.326 125.288 385.261 Q127.349 384.173 129.825 384.173 Q135.034 384.173 138.043 387.344 Q141.075 390.492 141.075 395.932 Q141.075 401.256 137.927 404.474 Q134.779 407.691 129.548 407.691 Q123.552 407.691 120.381 403.108 Q117.21 398.502 117.21 389.775 Q117.21 381.58 121.099 376.719 Q124.988 371.835 131.538 371.835 Q133.298 371.835 135.08 372.182 Q136.886 372.529 138.83 373.224 Z" fill="#000000" fill-rule="nonzero" fill-opacity="1" /><path clip-path="url(#clip360)" d="M159.131 375.539 Q155.52 375.539 153.691 379.103 Q151.886 382.645 151.886 389.775 Q151.886 396.881 153.691 400.446 Q155.52 403.988 159.131 403.988 Q162.765 403.988 164.571 400.446 Q166.399 396.881 166.399 389.775 Q166.399 382.645 164.571 379.103 Q162.765 375.539 159.131 375.539 M159.131 371.835 Q164.941 371.835 167.997 376.441 Q171.075 381.025 171.075 389.775 Q171.075 398.502 167.997 403.108 Q164.941 407.691 159.131 407.691 Q153.321 407.691 150.242 403.108 Q147.186 398.502 147.186 389.775 Q147.186 381.025 150.242 376.441 Q153.321 371.835 159.131 371.835 Z" fill="#000000" fill-rule="nonzero" fill-opacity="1" /><path clip-path="url(#clip360)" d="M17.7787 985.954 L24.5582 985.954 Q21.5345 989.201 20.0386 992.893 Q18.5426 996.553 18.5426 1000.69 Q18.5426 1008.84 23.5397 1013.17 Q28.5049 1017.5 37.9262 1017.5 Q47.3156 1017.5 52.3127 1013.17 Q57.2779 1008.84 57.2779 1000.69 Q57.2779 996.553 55.782 992.893 Q54.2861 989.201 51.2623 985.954 L57.9782 985.954 Q60.2698 989.328 61.4156 993.116 Q62.5615 996.871 62.5615 1001.07 Q62.5615 1011.86 55.973 1018.07 Q49.3526 1024.28 37.9262 1024.28 Q26.4679 1024.28 19.8794 1018.07 Q13.2591 1011.86 13.2591 1001.07 Q13.2591 996.808 14.4049 993.052 Q15.5189 989.264 17.7787 985.954 Z" fill="#000000" fill-rule="nonzero" fill-opacity="1" /><path clip-path="url(#clip360)" d="M43.719 960.078 Q43.719 967.175 45.3422 969.913 Q46.9655 972.65 50.8804 972.65 Q53.9996 972.65 55.8457 970.613 Q57.6599 968.544 57.6599 965.011 Q57.6599 960.141 54.2224 957.213 Q50.7531 954.253 45.0239 954.253 L43.719 954.253 L43.719 960.078 M41.3 948.397 L61.6384 948.397 L61.6384 954.253 L56.2276 954.253 Q59.4741 956.258 61.0337 959.25 Q62.5615 962.242 62.5615 966.571 Q62.5615 972.045 59.5059 975.292 Q56.4186 978.506 51.2623 978.506 Q45.2467 978.506 42.1912 974.496 Q39.1357 970.454 39.1357 962.465 L39.1357 954.253 L38.5628 954.253 Q34.5205 954.253 32.3244 956.927 Q30.0964 959.568 30.0964 964.375 Q30.0964 967.43 30.8284 970.326 Q31.5605 973.223 33.0246 975.896 L27.6137 975.896 Q26.3724 972.682 25.7677 969.658 Q25.1311 966.634 25.1311 963.77 Q25.1311 956.035 29.1415 952.216 Q33.1519 948.397 41.3 948.397 Z" fill="#000000" fill-rule="nonzero" fill-opacity="1" /><path clip-path="url(#clip360)" d="M27.0408 913.608 L32.579 913.608 Q31.3059 916.091 30.6693 918.764 Q30.0327 921.438 30.0327 924.302 Q30.0327 928.663 31.3695 930.859 Q32.7063 933.023 35.3799 933.023 Q37.4169 933.023 38.5946 931.464 Q39.7404 929.904 40.7908 925.194 L41.2364 923.188 Q42.5732 916.95 45.0239 914.34 Q47.4429 911.698 51.8034 911.698 Q56.7687 911.698 59.6651 915.645 Q62.5615 919.56 62.5615 926.435 Q62.5615 929.299 61.9886 932.419 Q61.4475 935.506 60.3335 938.944 L54.2861 938.944 Q55.973 935.697 56.8323 932.546 Q57.6599 929.395 57.6599 926.308 Q57.6599 922.17 56.2594 919.942 Q54.8271 917.714 52.249 917.714 Q49.8619 917.714 48.5887 919.337 Q47.3156 920.929 46.1379 926.371 L45.6605 928.408 Q44.5147 933.851 42.1594 936.27 Q39.7722 938.689 35.6345 938.689 Q30.6056 938.689 27.8684 935.124 Q25.1311 931.559 25.1311 925.003 Q25.1311 921.756 25.6085 918.892 Q26.086 916.027 27.0408 913.608 Z" fill="#000000" fill-rule="nonzero" fill-opacity="1" /><path clip-path="url(#clip360)" d="M42.3504 871.881 L45.2149 871.881 L45.2149 898.808 Q51.2623 898.426 54.4452 895.179 Q57.5962 891.901 57.5962 886.076 Q57.5962 882.702 56.7687 879.551 Q55.9411 876.369 54.2861 873.249 L59.8242 873.249 Q61.161 876.4 61.8612 879.711 Q62.5615 883.021 62.5615 886.426 Q62.5615 894.956 57.5962 899.954 Q52.631 904.919 44.1646 904.919 Q35.4117 904.919 30.2873 900.208 Q25.1311 895.466 25.1311 887.445 Q25.1311 880.252 29.7781 876.082 Q34.3932 871.881 42.3504 871.881 M40.6316 877.737 Q35.8255 877.801 32.9609 880.443 Q30.0964 883.053 30.0964 887.381 Q30.0964 892.283 32.8654 895.243 Q35.6345 898.171 40.6634 898.617 L40.6316 877.737 Z" fill="#000000" fill-rule="nonzero" fill-opacity="1" /><path clip-path="url(#clip360)" d="M27.0408 839.543 L32.579 839.543 Q31.3059 842.026 30.6693 844.699 Q30.0327 847.373 30.0327 850.237 Q30.0327 854.598 31.3695 856.794 Q32.7063 858.958 35.3799 858.958 Q37.4169 858.958 38.5946 857.399 Q39.7404 855.839 40.7908 851.129 L41.2364 849.123 Q42.5732 842.885 45.0239 840.275 Q47.4429 837.633 51.8034 837.633 Q56.7687 837.633 59.6651 841.58 Q62.5615 845.495 62.5615 852.37 Q62.5615 855.234 61.9886 858.354 Q61.4475 861.441 60.3335 864.879 L54.2861 864.879 Q55.973 861.632 56.8323 858.481 Q57.6599 855.33 57.6599 852.243 Q57.6599 848.105 56.2594 845.877 Q54.8271 843.649 52.249 843.649 Q49.8619 843.649 48.5887 845.272 Q47.3156 846.864 46.1379 852.306 L45.6605 854.343 Q44.5147 859.786 42.1594 862.205 Q39.7722 864.624 35.6345 864.624 Q30.6056 864.624 27.8684 861.059 Q25.1311 857.494 25.1311 850.938 Q25.1311 847.691 25.6085 844.827 Q26.086 841.962 27.0408 839.543 Z" fill="#000000" fill-rule="nonzero" fill-opacity="1" /><path clip-path="url(#clip360)" d="M974.866 14.0809 L974.866 22.0612 Q970.207 19.8332 966.075 18.7395 Q961.943 17.6457 958.095 17.6457 Q951.411 17.6457 947.765 20.2383 Q944.16 22.8309 944.16 27.611 Q944.16 31.6214 946.55 33.6873 Q948.98 35.7128 955.705 36.9686 L960.647 37.9813 Q969.802 39.7232 974.136 44.1387 Q978.511 48.5136 978.511 55.8863 Q978.511 64.6767 972.597 69.2137 Q966.723 73.7508 955.34 73.7508 Q951.046 73.7508 946.185 72.7785 Q941.365 71.8063 936.179 69.9024 L936.179 61.4765 Q941.162 64.2716 945.942 65.6895 Q950.722 67.1073 955.34 67.1073 Q962.348 67.1073 966.156 64.3527 Q969.964 61.598 969.964 56.4939 Q969.964 52.0379 967.209 49.5264 Q964.495 47.0148 958.257 45.759 L953.274 44.7868 Q944.119 42.9639 940.028 39.075 Q935.936 35.1862 935.936 28.2591 Q935.936 20.2383 941.567 15.6203 Q947.238 11.0023 957.163 11.0023 Q961.417 11.0023 965.832 11.7719 Q970.248 12.5416 974.866 14.0809 Z" fill="#000000" fill-rule="nonzero" fill-opacity="1" /><path clip-path="url(#clip360)" d="M991.272 12.096 L999.455 12.096 L999.455 72.576 L991.272 72.576 L991.272 12.096 Z" fill="#000000" fill-rule="nonzero" fill-opacity="1" /><path clip-path="url(#clip360)" d="M1051.99 14.0809 L1051.99 22.0612 Q1047.34 19.8332 1043.2 18.7395 Q1039.07 17.6457 1035.22 17.6457 Q1028.54 17.6457 1024.89 20.2383 Q1021.29 22.8309 1021.29 27.611 Q1021.29 31.6214 1023.68 33.6873 Q1026.11 35.7128 1032.83 36.9686 L1037.78 37.9813 Q1046.93 39.7232 1051.27 44.1387 Q1055.64 48.5136 1055.64 55.8863 Q1055.64 64.6767 1049.73 69.2137 Q1043.85 73.7508 1032.47 73.7508 Q1028.18 73.7508 1023.31 72.7785 Q1018.49 71.8063 1013.31 69.9024 L1013.31 61.4765 Q1018.29 64.2716 1023.07 65.6895 Q1027.85 67.1073 1032.47 67.1073 Q1039.48 67.1073 1043.29 64.3527 Q1047.09 61.598 1047.09 56.4939 Q1047.09 52.0379 1044.34 49.5264 Q1041.62 47.0148 1035.39 45.759 L1030.4 44.7868 Q1021.25 42.9639 1017.16 39.075 Q1013.07 35.1862 1013.07 28.2591 Q1013.07 20.2383 1018.7 15.6203 Q1024.37 11.0023 1034.29 11.0023 Q1038.55 11.0023 1042.96 11.7719 Q1047.38 12.5416 1051.99 14.0809 Z" fill="#000000" fill-rule="nonzero" fill-opacity="1" /><path clip-path="url(#clip360)" d="M1131.03 14.0809 L1131.03 22.0612 Q1126.37 19.8332 1122.24 18.7395 Q1118.11 17.6457 1114.26 17.6457 Q1107.57 17.6457 1103.93 20.2383 Q1100.32 22.8309 1100.32 27.611 Q1100.32 31.6214 1102.71 33.6873 Q1105.14 35.7128 1111.87 36.9686 L1116.81 37.9813 Q1125.96 39.7232 1130.3 44.1387 Q1134.67 48.5136 1134.67 55.8863 Q1134.67 64.6767 1128.76 69.2137 Q1122.89 73.7508 1111.5 73.7508 Q1107.21 73.7508 1102.35 72.7785 Q1097.53 71.8063 1092.34 69.9024 L1092.34 61.4765 Q1097.32 64.2716 1102.1 65.6895 Q1106.88 67.1073 1111.5 67.1073 Q1118.51 67.1073 1122.32 64.3527 Q1126.13 61.598 1126.13 56.4939 Q1126.13 52.0379 1123.37 49.5264 Q1120.66 47.0148 1114.42 45.759 L1109.44 44.7868 Q1100.28 42.9639 1096.19 39.075 Q1092.1 35.1862 1092.1 28.2591 Q1092.1 20.2383 1097.73 15.6203 Q1103.4 11.0023 1113.33 11.0023 Q1117.58 11.0023 1121.99 11.7719 Q1126.41 12.5416 1131.03 14.0809 Z" fill="#000000" fill-rule="nonzero" fill-opacity="1" /><path clip-path="url(#clip360)" d="M1179.76 28.9478 L1179.76 35.9153 Q1176.6 34.1734 1173.4 33.3227 Q1170.24 32.4315 1167 32.4315 Q1159.75 32.4315 1155.74 37.0496 Q1151.73 41.6271 1151.73 49.9314 Q1151.73 58.2358 1155.74 62.8538 Q1159.75 67.4314 1167 67.4314 Q1170.24 67.4314 1173.4 66.5807 Q1176.6 65.6895 1179.76 63.9476 L1179.76 70.8341 Q1176.64 72.2924 1173.28 73.0216 Q1169.96 73.7508 1166.19 73.7508 Q1155.94 73.7508 1149.91 67.3098 Q1143.87 60.8689 1143.87 49.9314 Q1143.87 38.832 1149.95 32.472 Q1156.06 26.1121 1166.68 26.1121 Q1170.12 26.1121 1173.4 26.8413 Q1176.68 27.5299 1179.76 28.9478 Z" fill="#000000" fill-rule="nonzero" fill-opacity="1" /><path clip-path="url(#clip360)" d="M1230.44 45.1919 L1230.44 72.576 L1222.98 72.576 L1222.98 45.4349 Q1222.98 38.994 1220.47 35.7938 Q1217.96 32.5936 1212.94 32.5936 Q1206.9 32.5936 1203.42 36.4419 Q1199.93 40.2903 1199.93 46.9338 L1199.93 72.576 L1192.44 72.576 L1192.44 9.54393 L1199.93 9.54393 L1199.93 34.2544 Q1202.61 30.163 1206.21 28.1376 Q1209.86 26.1121 1214.6 26.1121 Q1222.42 26.1121 1226.43 30.9732 Q1230.44 35.7938 1230.44 45.1919 Z" fill="#000000" fill-rule="nonzero" fill-opacity="1" /><path clip-path="url(#clip360)" d="M1262.88 32.4315 Q1256.89 32.4315 1253.41 37.1306 Q1249.92 41.7891 1249.92 49.9314 Q1249.92 58.0738 1253.37 62.7728 Q1256.85 67.4314 1262.88 67.4314 Q1268.84 67.4314 1272.32 62.7323 Q1275.81 58.0333 1275.81 49.9314 Q1275.81 41.8701 1272.32 37.1711 Q1268.84 32.4315 1262.88 32.4315 M1262.88 26.1121 Q1272.61 26.1121 1278.16 32.4315 Q1283.71 38.7509 1283.71 49.9314 Q1283.71 61.0714 1278.16 67.4314 Q1272.61 73.7508 1262.88 73.7508 Q1253.12 73.7508 1247.57 67.4314 Q1242.06 61.0714 1242.06 49.9314 Q1242.06 38.7509 1247.57 32.4315 Q1253.12 26.1121 1262.88 26.1121 Z" fill="#000000" fill-rule="nonzero" fill-opacity="1" /><path clip-path="url(#clip360)" d="M1313.64 32.4315 Q1307.65 32.4315 1304.16 37.1306 Q1300.68 41.7891 1300.68 49.9314 Q1300.68 58.0738 1304.12 62.7728 Q1307.61 67.4314 1313.64 67.4314 Q1319.6 67.4314 1323.08 62.7323 Q1326.57 58.0333 1326.57 49.9314 Q1326.57 41.8701 1323.08 37.1711 Q1319.6 32.4315 1313.64 32.4315 M1313.64 26.1121 Q1323.36 26.1121 1328.91 32.4315 Q1334.46 38.7509 1334.46 49.9314 Q1334.46 61.0714 1328.91 67.4314 Q1323.36 73.7508 1313.64 73.7508 Q1303.88 73.7508 1298.33 67.4314 Q1292.82 61.0714 1292.82 49.9314 Q1292.82 38.7509 1298.33 32.4315 Q1303.88 26.1121 1313.64 26.1121 Z" fill="#000000" fill-rule="nonzero" fill-opacity="1" /><path clip-path="url(#clip360)" d="M1346.82 9.54393 L1354.27 9.54393 L1354.27 72.576 L1346.82 72.576 L1346.82 9.54393 Z" fill="#000000" fill-rule="nonzero" fill-opacity="1" /><path clip-path="url(#clip360)" d="M1441.85 16.7545 L1441.85 25.383 Q1437.72 21.5346 1433.02 19.6307 Q1428.36 17.7268 1423.1 17.7268 Q1412.73 17.7268 1407.22 24.0867 Q1401.71 30.4061 1401.71 42.3968 Q1401.71 54.3469 1407.22 60.7069 Q1412.73 67.0263 1423.1 67.0263 Q1428.36 67.0263 1433.02 65.1223 Q1437.72 63.2184 1441.85 59.3701 L1441.85 67.9175 Q1437.56 70.8341 1432.74 72.2924 Q1427.96 73.7508 1422.61 73.7508 Q1408.88 73.7508 1400.98 65.3654 Q1393.08 56.9395 1393.08 42.3968 Q1393.08 27.8135 1400.98 19.4281 Q1408.88 11.0023 1422.61 11.0023 Q1428.04 11.0023 1432.82 12.4606 Q1437.64 13.8784 1441.85 16.7545 Z" fill="#000000" fill-rule="nonzero" fill-opacity="1" /><path clip-path="url(#clip360)" d="M1454.17 9.54393 L1461.62 9.54393 L1461.62 72.576 L1454.17 72.576 L1454.17 9.54393 Z" fill="#000000" fill-rule="nonzero" fill-opacity="1" /><path clip-path="url(#clip360)" d="M1494.8 32.4315 Q1488.8 32.4315 1485.32 37.1306 Q1481.84 41.7891 1481.84 49.9314 Q1481.84 58.0738 1485.28 62.7728 Q1488.76 67.4314 1494.8 67.4314 Q1500.75 67.4314 1504.24 62.7323 Q1507.72 58.0333 1507.72 49.9314 Q1507.72 41.8701 1504.24 37.1711 Q1500.75 32.4315 1494.8 32.4315 M1494.8 26.1121 Q1504.52 26.1121 1510.07 32.4315 Q1515.62 38.7509 1515.62 49.9314 Q1515.62 61.0714 1510.07 67.4314 Q1504.52 73.7508 1494.8 73.7508 Q1485.04 73.7508 1479.49 67.4314 Q1473.98 61.0714 1473.98 49.9314 Q1473.98 38.7509 1479.49 32.4315 Q1485.04 26.1121 1494.8 26.1121 Z" fill="#000000" fill-rule="nonzero" fill-opacity="1" /><path clip-path="url(#clip360)" d="M1556.9 28.5427 L1556.9 35.5912 Q1553.74 33.9709 1550.34 33.1607 Q1546.93 32.3505 1543.29 32.3505 Q1537.74 32.3505 1534.94 34.0519 Q1532.19 35.7533 1532.19 39.156 Q1532.19 41.7486 1534.17 43.2475 Q1536.16 44.7058 1542.15 46.0426 L1544.71 46.6097 Q1552.65 48.3111 1555.97 51.4303 Q1559.33 54.509 1559.33 60.0587 Q1559.33 66.3781 1554.31 70.0644 Q1549.32 73.7508 1540.57 73.7508 Q1536.93 73.7508 1532.96 73.0216 Q1529.03 72.3329 1524.65 70.9151 L1524.65 63.2184 Q1528.79 65.3654 1532.8 66.4591 Q1536.81 67.5124 1540.74 67.5124 Q1546 67.5124 1548.84 65.73 Q1551.67 63.9071 1551.67 60.6258 Q1551.67 57.5877 1549.61 55.9673 Q1547.58 54.3469 1540.66 52.8481 L1538.06 52.2405 Q1531.14 50.7821 1528.06 47.7845 Q1524.98 44.7463 1524.98 39.4801 Q1524.98 33.0797 1529.52 29.5959 Q1534.05 26.1121 1542.4 26.1121 Q1546.53 26.1121 1550.18 26.7198 Q1553.82 27.3274 1556.9 28.5427 Z" fill="#000000" fill-rule="nonzero" fill-opacity="1" /><path clip-path="url(#clip360)" d="M1570.43 54.671 L1570.43 27.2059 L1577.88 27.2059 L1577.88 54.3874 Q1577.88 60.8284 1580.39 64.0691 Q1582.91 67.2693 1587.93 67.2693 Q1593.97 67.2693 1597.45 63.421 Q1600.97 59.5726 1600.97 52.9291 L1600.97 27.2059 L1608.43 27.2059 L1608.43 72.576 L1600.97 72.576 L1600.97 65.6084 Q1598.26 69.7404 1594.65 71.7658 Q1591.09 73.7508 1586.35 73.7508 Q1578.53 73.7508 1574.48 68.8897 Q1570.43 64.0286 1570.43 54.671 M1589.19 26.1121 L1589.19 26.1121 Z" fill="#000000" fill-rule="nonzero" fill-opacity="1" /><path clip-path="url(#clip360)" d="M1650.07 34.1734 Q1648.81 33.4443 1647.32 33.1202 Q1645.86 32.7556 1644.07 32.7556 Q1637.76 32.7556 1634.35 36.8875 Q1630.99 40.9789 1630.99 48.6757 L1630.99 72.576 L1623.5 72.576 L1623.5 27.2059 L1630.99 27.2059 L1630.99 34.2544 Q1633.34 30.1225 1637.11 28.1376 Q1640.87 26.1121 1646.26 26.1121 Q1647.03 26.1121 1647.96 26.2337 Q1648.9 26.3147 1650.03 26.5172 L1650.07 34.1734 Z" fill="#000000" fill-rule="nonzero" fill-opacity="1" /><path clip-path="url(#clip360)" d="M1694.87 48.0275 L1694.87 51.6733 L1660.6 51.6733 Q1661.09 59.3701 1665.22 63.421 Q1669.39 67.4314 1676.81 67.4314 Q1681.1 67.4314 1685.11 66.3781 Q1689.16 65.3249 1693.13 63.2184 L1693.13 70.267 Q1689.12 71.9684 1684.91 72.8596 Q1680.7 73.7508 1676.36 73.7508 Q1665.5 73.7508 1659.14 67.4314 Q1652.82 61.1119 1652.82 50.3365 Q1652.82 39.1965 1658.82 32.6746 Q1664.86 26.1121 1675.06 26.1121 Q1684.22 26.1121 1689.53 32.0264 Q1694.87 37.9003 1694.87 48.0275 M1687.42 45.84 Q1687.34 39.7232 1683.98 36.0774 Q1680.65 32.4315 1675.15 32.4315 Q1668.91 32.4315 1665.14 35.9558 Q1661.41 39.4801 1660.85 45.8805 L1687.42 45.84 Z" fill="#000000" fill-rule="nonzero" fill-opacity="1" /><path clip-path="url(#clip360)" d="M1741.99 18.8205 L1741.99 65.8515 L1751.87 65.8515 Q1764.39 65.8515 1770.18 60.1802 Q1776.01 54.509 1776.01 42.2752 Q1776.01 30.1225 1770.18 24.4918 Q1764.39 18.8205 1751.87 18.8205 L1741.99 18.8205 M1733.8 12.096 L1750.61 12.096 Q1768.19 12.096 1776.42 19.4281 Q1784.64 26.7198 1784.64 42.2752 Q1784.64 57.9117 1776.38 65.2439 Q1768.11 72.576 1750.61 72.576 L1733.8 72.576 L1733.8 12.096 Z" fill="#000000" fill-rule="nonzero" fill-opacity="1" /><path clip-path="url(#clip360)" d="M1817.98 49.7694 Q1808.95 49.7694 1805.46 51.8354 Q1801.98 53.9013 1801.98 58.8839 Q1801.98 62.8538 1804.57 65.2034 Q1807.2 67.5124 1811.7 67.5124 Q1817.9 67.5124 1821.63 63.1374 Q1825.39 58.7219 1825.39 51.4303 L1825.39 49.7694 L1817.98 49.7694 M1832.85 46.6907 L1832.85 72.576 L1825.39 72.576 L1825.39 65.6895 Q1822.84 69.8214 1819.03 71.8063 Q1815.23 73.7508 1809.72 73.7508 Q1802.75 73.7508 1798.62 69.8619 Q1794.53 65.9325 1794.53 59.3701 Q1794.53 51.7138 1799.63 47.825 Q1804.77 43.9361 1814.94 43.9361 L1825.39 43.9361 L1825.39 43.2069 Q1825.39 38.0623 1821.99 35.2672 Q1818.63 32.4315 1812.51 32.4315 Q1808.62 32.4315 1804.94 33.3632 Q1801.25 34.295 1797.85 36.1584 L1797.85 29.2718 Q1801.94 27.692 1805.79 26.9223 Q1809.64 26.1121 1813.28 26.1121 Q1823.12 26.1121 1827.99 31.2163 Q1832.85 36.3204 1832.85 46.6907 Z" fill="#000000" fill-rule="nonzero" fill-opacity="1" /><path clip-path="url(#clip360)" d="M1855.57 14.324 L1855.57 27.2059 L1870.93 27.2059 L1870.93 32.9987 L1855.57 32.9987 L1855.57 57.6282 Q1855.57 63.1779 1857.07 64.7578 Q1858.61 66.3376 1863.27 66.3376 L1870.93 66.3376 L1870.93 72.576 L1863.27 72.576 Q1854.64 72.576 1851.36 69.3758 Q1848.08 66.1351 1848.08 57.6282 L1848.08 32.9987 L1842.61 32.9987 L1842.61 27.2059 L1848.08 27.2059 L1848.08 14.324 L1855.57 14.324 Z" fill="#000000" fill-rule="nonzero" fill-opacity="1" /><path clip-path="url(#clip360)" d="M1901.35 49.7694 Q1892.31 49.7694 1888.83 51.8354 Q1885.35 53.9013 1885.35 58.8839 Q1885.35 62.8538 1887.94 65.2034 Q1890.57 67.5124 1895.07 67.5124 Q1901.27 67.5124 1904.99 63.1374 Q1908.76 58.7219 1908.76 51.4303 L1908.76 49.7694 L1901.35 49.7694 M1916.21 46.6907 L1916.21 72.576 L1908.76 72.576 L1908.76 65.6895 Q1906.21 69.8214 1902.4 71.8063 Q1898.59 73.7508 1893.08 73.7508 Q1886.12 73.7508 1881.98 69.8619 Q1877.89 65.9325 1877.89 59.3701 Q1877.89 51.7138 1883 47.825 Q1888.14 43.9361 1898.31 43.9361 L1908.76 43.9361 L1908.76 43.2069 Q1908.76 38.0623 1905.36 35.2672 Q1902 32.4315 1895.88 32.4315 Q1891.99 32.4315 1888.3 33.3632 Q1884.62 34.295 1881.21 36.1584 L1881.21 29.2718 Q1885.31 27.692 1889.15 26.9223 Q1893 26.1121 1896.65 26.1121 Q1906.49 26.1121 1911.35 31.2163 Q1916.21 36.3204 1916.21 46.6907 Z" fill="#000000" fill-rule="nonzero" fill-opacity="1" /><circle clip-path="url(#clip361)" cx="280.151" cy="1645.36" r="10.8" fill="#ff0000" fill-rule="evenodd" fill-opacity="0.7" stroke="#000000" stroke-opacity="0.7" stroke-width="3.84"/>
<circle clip-path="url(#clip361)" cx="295.532" cy="1623.71" r="10.8" fill="#ff0000" fill-rule="evenodd" fill-opacity="0.7" stroke="#000000" stroke-opacity="0.7" stroke-width="3.84"/>
<circle clip-path="url(#clip361)" cx="310.914" cy="1645.36" r="10.8" fill="#ff0000" fill-rule="evenodd" fill-opacity="0.7" stroke="#000000" stroke-opacity="0.7" stroke-width="3.84"/>
<circle clip-path="url(#clip361)" cx="326.295" cy="1645.36" r="10.8" fill="#ff0000" fill-rule="evenodd" fill-opacity="0.7" stroke="#000000" stroke-opacity="0.7" stroke-width="3.84"/>
<circle clip-path="url(#clip361)" cx="341.677" cy="1602.06" r="10.8" fill="#ff0000" fill-rule="evenodd" fill-opacity="0.7" stroke="#000000" stroke-opacity="0.7" stroke-width="3.84"/>
<circle clip-path="url(#clip361)" cx="357.058" cy="1537.11" r="10.8" fill="#ff0000" fill-rule="evenodd" fill-opacity="0.7" stroke="#000000" stroke-opacity="0.7" stroke-width="3.84"/>
<circle clip-path="url(#clip361)" cx="372.44" cy="1645.36" r="10.8" fill="#ff0000" fill-rule="evenodd" fill-opacity="0.7" stroke="#000000" stroke-opacity="0.7" stroke-width="3.84"/>
<circle clip-path="url(#clip361)" cx="387.822" cy="1645.36" r="10.8" fill="#ff0000" fill-rule="evenodd" fill-opacity="0.7" stroke="#000000" stroke-opacity="0.7" stroke-width="3.84"/>
<circle clip-path="url(#clip361)" cx="403.203" cy="1688.65" r="10.8" fill="#ff0000" fill-rule="evenodd" fill-opacity="0.7" stroke="#000000" stroke-opacity="0.7" stroke-width="3.84"/>
<circle clip-path="url(#clip361)" cx="418.585" cy="1623.71" r="10.8" fill="#ff0000" fill-rule="evenodd" fill-opacity="0.7" stroke="#000000" stroke-opacity="0.7" stroke-width="3.84"/>
<circle clip-path="url(#clip361)" cx="433.966" cy="1667.01" r="10.8" fill="#ff0000" fill-rule="evenodd" fill-opacity="0.7" stroke="#000000" stroke-opacity="0.7" stroke-width="3.84"/>
<circle clip-path="url(#clip361)" cx="449.348" cy="1580.41" r="10.8" fill="#ff0000" fill-rule="evenodd" fill-opacity="0.7" stroke="#000000" stroke-opacity="0.7" stroke-width="3.84"/>
<circle clip-path="url(#clip361)" cx="464.729" cy="1602.06" r="10.8" fill="#ff0000" fill-rule="evenodd" fill-opacity="0.7" stroke="#000000" stroke-opacity="0.7" stroke-width="3.84"/>
<circle clip-path="url(#clip361)" cx="480.111" cy="1580.41" r="10.8" fill="#ff0000" fill-rule="evenodd" fill-opacity="0.7" stroke="#000000" stroke-opacity="0.7" stroke-width="3.84"/>
<circle clip-path="url(#clip361)" cx="495.492" cy="1602.06" r="10.8" fill="#ff0000" fill-rule="evenodd" fill-opacity="0.7" stroke="#000000" stroke-opacity="0.7" stroke-width="3.84"/>
<circle clip-path="url(#clip361)" cx="510.874" cy="1580.41" r="10.8" fill="#ff0000" fill-rule="evenodd" fill-opacity="0.7" stroke="#000000" stroke-opacity="0.7" stroke-width="3.84"/>
<circle clip-path="url(#clip361)" cx="526.255" cy="1385.57" r="10.8" fill="#ff0000" fill-rule="evenodd" fill-opacity="0.7" stroke="#000000" stroke-opacity="0.7" stroke-width="3.84"/>
<circle clip-path="url(#clip361)" cx="541.637" cy="1558.76" r="10.8" fill="#ff0000" fill-rule="evenodd" fill-opacity="0.7" stroke="#000000" stroke-opacity="0.7" stroke-width="3.84"/>
<circle clip-path="url(#clip361)" cx="557.018" cy="1428.87" r="10.8" fill="#ff0000" fill-rule="evenodd" fill-opacity="0.7" stroke="#000000" stroke-opacity="0.7" stroke-width="3.84"/>
<circle clip-path="url(#clip361)" cx="572.4" cy="1558.76" r="10.8" fill="#ff0000" fill-rule="evenodd" fill-opacity="0.7" stroke="#000000" stroke-opacity="0.7" stroke-width="3.84"/>
<circle clip-path="url(#clip361)" cx="587.782" cy="1558.76" r="10.8" fill="#ff0000" fill-rule="evenodd" fill-opacity="0.7" stroke="#000000" stroke-opacity="0.7" stroke-width="3.84"/>
<circle clip-path="url(#clip361)" cx="603.163" cy="1493.82" r="10.8" fill="#ff0000" fill-rule="evenodd" fill-opacity="0.7" stroke="#000000" stroke-opacity="0.7" stroke-width="3.84"/>
<circle clip-path="url(#clip361)" cx="618.545" cy="1602.06" r="10.8" fill="#ff0000" fill-rule="evenodd" fill-opacity="0.7" stroke="#000000" stroke-opacity="0.7" stroke-width="3.84"/>
<circle clip-path="url(#clip361)" cx="633.926" cy="1537.11" r="10.8" fill="#ff0000" fill-rule="evenodd" fill-opacity="0.7" stroke="#000000" stroke-opacity="0.7" stroke-width="3.84"/>
<circle clip-path="url(#clip361)" cx="649.308" cy="1450.52" r="10.8" fill="#ff0000" fill-rule="evenodd" fill-opacity="0.7" stroke="#000000" stroke-opacity="0.7" stroke-width="3.84"/>
<circle clip-path="url(#clip361)" cx="664.689" cy="1277.33" r="10.8" fill="#ff0000" fill-rule="evenodd" fill-opacity="0.7" stroke="#000000" stroke-opacity="0.7" stroke-width="3.84"/>
<circle clip-path="url(#clip361)" cx="680.071" cy="1298.98" r="10.8" fill="#ff0000" fill-rule="evenodd" fill-opacity="0.7" stroke="#000000" stroke-opacity="0.7" stroke-width="3.84"/>
<circle clip-path="url(#clip361)" cx="695.452" cy="1147.44" r="10.8" fill="#ff0000" fill-rule="evenodd" fill-opacity="0.7" stroke="#000000" stroke-opacity="0.7" stroke-width="3.84"/>
<circle clip-path="url(#clip361)" cx="710.834" cy="1363.93" r="10.8" fill="#ff0000" fill-rule="evenodd" fill-opacity="0.7" stroke="#000000" stroke-opacity="0.7" stroke-width="3.84"/>
<circle clip-path="url(#clip361)" cx="726.215" cy="1342.28" r="10.8" fill="#ff0000" fill-rule="evenodd" fill-opacity="0.7" stroke="#000000" stroke-opacity="0.7" stroke-width="3.84"/>
<circle clip-path="url(#clip361)" cx="741.597" cy="1104.14" r="10.8" fill="#ff0000" fill-rule="evenodd" fill-opacity="0.7" stroke="#000000" stroke-opacity="0.7" stroke-width="3.84"/>
<circle clip-path="url(#clip361)" cx="756.979" cy="1363.93" r="10.8" fill="#ff0000" fill-rule="evenodd" fill-opacity="0.7" stroke="#000000" stroke-opacity="0.7" stroke-width="3.84"/>
<circle clip-path="url(#clip361)" cx="772.36" cy="1277.33" r="10.8" fill="#ff0000" fill-rule="evenodd" fill-opacity="0.7" stroke="#000000" stroke-opacity="0.7" stroke-width="3.84"/>
<circle clip-path="url(#clip361)" cx="787.742" cy="1104.14" r="10.8" fill="#ff0000" fill-rule="evenodd" fill-opacity="0.7" stroke="#000000" stroke-opacity="0.7" stroke-width="3.84"/>
<circle clip-path="url(#clip361)" cx="803.123" cy="930.955" r="10.8" fill="#ff0000" fill-rule="evenodd" fill-opacity="0.7" stroke="#000000" stroke-opacity="0.7" stroke-width="3.84"/>
<circle clip-path="url(#clip361)" cx="818.505" cy="1190.74" r="10.8" fill="#ff0000" fill-rule="evenodd" fill-opacity="0.7" stroke="#000000" stroke-opacity="0.7" stroke-width="3.84"/>
<circle clip-path="url(#clip361)" cx="833.886" cy="1255.68" r="10.8" fill="#ff0000" fill-rule="evenodd" fill-opacity="0.7" stroke="#000000" stroke-opacity="0.7" stroke-width="3.84"/>
<circle clip-path="url(#clip361)" cx="849.268" cy="995.9" r="10.8" fill="#ff0000" fill-rule="evenodd" fill-opacity="0.7" stroke="#000000" stroke-opacity="0.7" stroke-width="3.84"/>
<circle clip-path="url(#clip361)" cx="864.649" cy="1190.74" r="10.8" fill="#ff0000" fill-rule="evenodd" fill-opacity="0.7" stroke="#000000" stroke-opacity="0.7" stroke-width="3.84"/>
<circle clip-path="url(#clip361)" cx="880.031" cy="995.9" r="10.8" fill="#ff0000" fill-rule="evenodd" fill-opacity="0.7" stroke="#000000" stroke-opacity="0.7" stroke-width="3.84"/>
<circle clip-path="url(#clip361)" cx="895.412" cy="1039.2" r="10.8" fill="#ff0000" fill-rule="evenodd" fill-opacity="0.7" stroke="#000000" stroke-opacity="0.7" stroke-width="3.84"/>
<circle clip-path="url(#clip361)" cx="910.794" cy="1234.03" r="10.8" fill="#ff0000" fill-rule="evenodd" fill-opacity="0.7" stroke="#000000" stroke-opacity="0.7" stroke-width="3.84"/>
<circle clip-path="url(#clip361)" cx="926.175" cy="433.037" r="10.8" fill="#ff0000" fill-rule="evenodd" fill-opacity="0.7" stroke="#000000" stroke-opacity="0.7" stroke-width="3.84"/>
<circle clip-path="url(#clip361)" cx="941.557" cy="1017.55" r="10.8" fill="#ff0000" fill-rule="evenodd" fill-opacity="0.7" stroke="#000000" stroke-opacity="0.7" stroke-width="3.84"/>
<circle clip-path="url(#clip361)" cx="956.939" cy="822.712" r="10.8" fill="#ff0000" fill-rule="evenodd" fill-opacity="0.7" stroke="#000000" stroke-opacity="0.7" stroke-width="3.84"/>
<circle clip-path="url(#clip361)" cx="972.32" cy="692.82" r="10.8" fill="#ff0000" fill-rule="evenodd" fill-opacity="0.7" stroke="#000000" stroke-opacity="0.7" stroke-width="3.84"/>
<circle clip-path="url(#clip361)" cx="987.702" cy="866.009" r="10.8" fill="#ff0000" fill-rule="evenodd" fill-opacity="0.7" stroke="#000000" stroke-opacity="0.7" stroke-width="3.84"/>
<circle clip-path="url(#clip361)" cx="1003.08" cy="995.9" r="10.8" fill="#ff0000" fill-rule="evenodd" fill-opacity="0.7" stroke="#000000" stroke-opacity="0.7" stroke-width="3.84"/>
<circle clip-path="url(#clip361)" cx="1018.46" cy="779.414" r="10.8" fill="#ff0000" fill-rule="evenodd" fill-opacity="0.7" stroke="#000000" stroke-opacity="0.7" stroke-width="3.84"/>
<circle clip-path="url(#clip361)" cx="1033.85" cy="692.82" r="10.8" fill="#ff0000" fill-rule="evenodd" fill-opacity="0.7" stroke="#000000" stroke-opacity="0.7" stroke-width="3.84"/>
<circle clip-path="url(#clip361)" cx="1049.23" cy="1537.11" r="10.8" fill="#ff0000" fill-rule="evenodd" fill-opacity="0.7" stroke="#000000" stroke-opacity="0.7" stroke-width="3.84"/>
<circle clip-path="url(#clip361)" cx="1064.61" cy="1472.17" r="10.8" fill="#ff0000" fill-rule="evenodd" fill-opacity="0.7" stroke="#000000" stroke-opacity="0.7" stroke-width="3.84"/>
<circle clip-path="url(#clip361)" cx="1079.99" cy="1277.33" r="10.8" fill="#ff0000" fill-rule="evenodd" fill-opacity="0.7" stroke="#000000" stroke-opacity="0.7" stroke-width="3.84"/>
<circle clip-path="url(#clip361)" cx="1095.37" cy="1298.98" r="10.8" fill="#ff0000" fill-rule="evenodd" fill-opacity="0.7" stroke="#000000" stroke-opacity="0.7" stroke-width="3.84"/>
<circle clip-path="url(#clip361)" cx="1110.75" cy="1298.98" r="10.8" fill="#ff0000" fill-rule="evenodd" fill-opacity="0.7" stroke="#000000" stroke-opacity="0.7" stroke-width="3.84"/>
<circle clip-path="url(#clip361)" cx="1126.14" cy="1255.68" r="10.8" fill="#ff0000" fill-rule="evenodd" fill-opacity="0.7" stroke="#000000" stroke-opacity="0.7" stroke-width="3.84"/>
<circle clip-path="url(#clip361)" cx="1141.52" cy="1472.17" r="10.8" fill="#ff0000" fill-rule="evenodd" fill-opacity="0.7" stroke="#000000" stroke-opacity="0.7" stroke-width="3.84"/>
<circle clip-path="url(#clip361)" cx="1156.9" cy="1537.11" r="10.8" fill="#ff0000" fill-rule="evenodd" fill-opacity="0.7" stroke="#000000" stroke-opacity="0.7" stroke-width="3.84"/>
<circle clip-path="url(#clip361)" cx="1172.28" cy="1450.52" r="10.8" fill="#ff0000" fill-rule="evenodd" fill-opacity="0.7" stroke="#000000" stroke-opacity="0.7" stroke-width="3.84"/>
<circle clip-path="url(#clip361)" cx="1187.66" cy="1407.22" r="10.8" fill="#ff0000" fill-rule="evenodd" fill-opacity="0.7" stroke="#000000" stroke-opacity="0.7" stroke-width="3.84"/>
<circle clip-path="url(#clip361)" cx="1203.04" cy="909.306" r="10.8" fill="#ff0000" fill-rule="evenodd" fill-opacity="0.7" stroke="#000000" stroke-opacity="0.7" stroke-width="3.84"/>
<circle clip-path="url(#clip361)" cx="1218.42" cy="1147.44" r="10.8" fill="#ff0000" fill-rule="evenodd" fill-opacity="0.7" stroke="#000000" stroke-opacity="0.7" stroke-width="3.84"/>
<circle clip-path="url(#clip361)" cx="1233.81" cy="974.252" r="10.8" fill="#ff0000" fill-rule="evenodd" fill-opacity="0.7" stroke="#000000" stroke-opacity="0.7" stroke-width="3.84"/>
<circle clip-path="url(#clip361)" cx="1249.19" cy="1169.09" r="10.8" fill="#ff0000" fill-rule="evenodd" fill-opacity="0.7" stroke="#000000" stroke-opacity="0.7" stroke-width="3.84"/>
<circle clip-path="url(#clip361)" cx="1264.57" cy="1082.49" r="10.8" fill="#ff0000" fill-rule="evenodd" fill-opacity="0.7" stroke="#000000" stroke-opacity="0.7" stroke-width="3.84"/>
<circle clip-path="url(#clip361)" cx="1279.95" cy="1039.2" r="10.8" fill="#ff0000" fill-rule="evenodd" fill-opacity="0.7" stroke="#000000" stroke-opacity="0.7" stroke-width="3.84"/>
<circle clip-path="url(#clip361)" cx="1295.33" cy="866.009" r="10.8" fill="#ff0000" fill-rule="evenodd" fill-opacity="0.7" stroke="#000000" stroke-opacity="0.7" stroke-width="3.84"/>
<circle clip-path="url(#clip361)" cx="1310.71" cy="1017.55" r="10.8" fill="#ff0000" fill-rule="evenodd" fill-opacity="0.7" stroke="#000000" stroke-opacity="0.7" stroke-width="3.84"/>
<circle clip-path="url(#clip361)" cx="1326.1" cy="649.523" r="10.8" fill="#ff0000" fill-rule="evenodd" fill-opacity="0.7" stroke="#000000" stroke-opacity="0.7" stroke-width="3.84"/>
<circle clip-path="url(#clip361)" cx="1341.48" cy="822.712" r="10.8" fill="#ff0000" fill-rule="evenodd" fill-opacity="0.7" stroke="#000000" stroke-opacity="0.7" stroke-width="3.84"/>
<circle clip-path="url(#clip361)" cx="1356.86" cy="368.091" r="10.8" fill="#ff0000" fill-rule="evenodd" fill-opacity="0.7" stroke="#000000" stroke-opacity="0.7" stroke-width="3.84"/>
<circle clip-path="url(#clip361)" cx="1372.24" cy="995.9" r="10.8" fill="#ff0000" fill-rule="evenodd" fill-opacity="0.7" stroke="#000000" stroke-opacity="0.7" stroke-width="3.84"/>
<circle clip-path="url(#clip361)" cx="1387.62" cy="1039.2" r="10.8" fill="#ff0000" fill-rule="evenodd" fill-opacity="0.7" stroke="#000000" stroke-opacity="0.7" stroke-width="3.84"/>
<circle clip-path="url(#clip361)" cx="1403" cy="736.117" r="10.8" fill="#ff0000" fill-rule="evenodd" fill-opacity="0.7" stroke="#000000" stroke-opacity="0.7" stroke-width="3.84"/>
<circle clip-path="url(#clip361)" cx="1418.38" cy="562.929" r="10.8" fill="#ff0000" fill-rule="evenodd" fill-opacity="0.7" stroke="#000000" stroke-opacity="0.7" stroke-width="3.84"/>
<circle clip-path="url(#clip361)" cx="1433.77" cy="844.36" r="10.8" fill="#ff0000" fill-rule="evenodd" fill-opacity="0.7" stroke="#000000" stroke-opacity="0.7" stroke-width="3.84"/>
<circle clip-path="url(#clip361)" cx="1449.15" cy="714.469" r="10.8" fill="#ff0000" fill-rule="evenodd" fill-opacity="0.7" stroke="#000000" stroke-opacity="0.7" stroke-width="3.84"/>
<circle clip-path="url(#clip361)" cx="1464.53" cy="671.172" r="10.8" fill="#ff0000" fill-rule="evenodd" fill-opacity="0.7" stroke="#000000" stroke-opacity="0.7" stroke-width="3.84"/>
<circle clip-path="url(#clip361)" cx="1479.91" cy="822.712" r="10.8" fill="#ff0000" fill-rule="evenodd" fill-opacity="0.7" stroke="#000000" stroke-opacity="0.7" stroke-width="3.84"/>
<circle clip-path="url(#clip361)" cx="1495.29" cy="736.117" r="10.8" fill="#ff0000" fill-rule="evenodd" fill-opacity="0.7" stroke="#000000" stroke-opacity="0.7" stroke-width="3.84"/>
<circle clip-path="url(#clip361)" cx="1510.67" cy="757.766" r="10.8" fill="#ff0000" fill-rule="evenodd" fill-opacity="0.7" stroke="#000000" stroke-opacity="0.7" stroke-width="3.84"/>
<circle clip-path="url(#clip361)" cx="1526.06" cy="779.414" r="10.8" fill="#ff0000" fill-rule="evenodd" fill-opacity="0.7" stroke="#000000" stroke-opacity="0.7" stroke-width="3.84"/>
<circle clip-path="url(#clip361)" cx="1541.44" cy="736.117" r="10.8" fill="#ff0000" fill-rule="evenodd" fill-opacity="0.7" stroke="#000000" stroke-opacity="0.7" stroke-width="3.84"/>
<circle clip-path="url(#clip361)" cx="1556.82" cy="952.603" r="10.8" fill="#ff0000" fill-rule="evenodd" fill-opacity="0.7" stroke="#000000" stroke-opacity="0.7" stroke-width="3.84"/>
<circle clip-path="url(#clip361)" cx="1572.2" cy="562.929" r="10.8" fill="#ff0000" fill-rule="evenodd" fill-opacity="0.7" stroke="#000000" stroke-opacity="0.7" stroke-width="3.84"/>
<circle clip-path="url(#clip361)" cx="1587.58" cy="714.469" r="10.8" fill="#ff0000" fill-rule="evenodd" fill-opacity="0.7" stroke="#000000" stroke-opacity="0.7" stroke-width="3.84"/>
<circle clip-path="url(#clip361)" cx="1602.96" cy="822.712" r="10.8" fill="#ff0000" fill-rule="evenodd" fill-opacity="0.7" stroke="#000000" stroke-opacity="0.7" stroke-width="3.84"/>
<circle clip-path="url(#clip361)" cx="1618.34" cy="433.037" r="10.8" fill="#ff0000" fill-rule="evenodd" fill-opacity="0.7" stroke="#000000" stroke-opacity="0.7" stroke-width="3.84"/>
<circle clip-path="url(#clip361)" cx="1633.73" cy="497.983" r="10.8" fill="#ff0000" fill-rule="evenodd" fill-opacity="0.7" stroke="#000000" stroke-opacity="0.7" stroke-width="3.84"/>
<circle clip-path="url(#clip361)" cx="1649.11" cy="801.063" r="10.8" fill="#ff0000" fill-rule="evenodd" fill-opacity="0.7" stroke="#000000" stroke-opacity="0.7" stroke-width="3.84"/>
<circle clip-path="url(#clip361)" cx="1664.49" cy="562.929" r="10.8" fill="#ff0000" fill-rule="evenodd" fill-opacity="0.7" stroke="#000000" stroke-opacity="0.7" stroke-width="3.84"/>
<circle clip-path="url(#clip361)" cx="1679.87" cy="822.712" r="10.8" fill="#ff0000" fill-rule="evenodd" fill-opacity="0.7" stroke="#000000" stroke-opacity="0.7" stroke-width="3.84"/>
<circle clip-path="url(#clip361)" cx="1695.25" cy="346.443" r="10.8" fill="#ff0000" fill-rule="evenodd" fill-opacity="0.7" stroke="#000000" stroke-opacity="0.7" stroke-width="3.84"/>
<circle clip-path="url(#clip361)" cx="1710.63" cy="627.874" r="10.8" fill="#ff0000" fill-rule="evenodd" fill-opacity="0.7" stroke="#000000" stroke-opacity="0.7" stroke-width="3.84"/>
<circle clip-path="url(#clip361)" cx="1726.02" cy="909.306" r="10.8" fill="#ff0000" fill-rule="evenodd" fill-opacity="0.7" stroke="#000000" stroke-opacity="0.7" stroke-width="3.84"/>
<circle clip-path="url(#clip361)" cx="1741.4" cy="822.712" r="10.8" fill="#ff0000" fill-rule="evenodd" fill-opacity="0.7" stroke="#000000" stroke-opacity="0.7" stroke-width="3.84"/>
<circle clip-path="url(#clip361)" cx="1756.78" cy="649.523" r="10.8" fill="#ff0000" fill-rule="evenodd" fill-opacity="0.7" stroke="#000000" stroke-opacity="0.7" stroke-width="3.84"/>
<circle clip-path="url(#clip361)" cx="1772.16" cy="433.037" r="10.8" fill="#ff0000" fill-rule="evenodd" fill-opacity="0.7" stroke="#000000" stroke-opacity="0.7" stroke-width="3.84"/>
<circle clip-path="url(#clip361)" cx="1787.54" cy="801.063" r="10.8" fill="#ff0000" fill-rule="evenodd" fill-opacity="0.7" stroke="#000000" stroke-opacity="0.7" stroke-width="3.84"/>
<circle clip-path="url(#clip361)" cx="1802.92" cy="779.414" r="10.8" fill="#ff0000" fill-rule="evenodd" fill-opacity="0.7" stroke="#000000" stroke-opacity="0.7" stroke-width="3.84"/>
<circle clip-path="url(#clip361)" cx="1818.3" cy="887.657" r="10.8" fill="#ff0000" fill-rule="evenodd" fill-opacity="0.7" stroke="#000000" stroke-opacity="0.7" stroke-width="3.84"/>
<circle clip-path="url(#clip361)" cx="1833.69" cy="801.063" r="10.8" fill="#ff0000" fill-rule="evenodd" fill-opacity="0.7" stroke="#000000" stroke-opacity="0.7" stroke-width="3.84"/>
<circle clip-path="url(#clip361)" cx="1849.07" cy="411.389" r="10.8" fill="#ff0000" fill-rule="evenodd" fill-opacity="0.7" stroke="#000000" stroke-opacity="0.7" stroke-width="3.84"/>
<circle clip-path="url(#clip361)" cx="1864.45" cy="779.414" r="10.8" fill="#ff0000" fill-rule="evenodd" fill-opacity="0.7" stroke="#000000" stroke-opacity="0.7" stroke-width="3.84"/>
<circle clip-path="url(#clip361)" cx="1879.83" cy="606.226" r="10.8" fill="#ff0000" fill-rule="evenodd" fill-opacity="0.7" stroke="#000000" stroke-opacity="0.7" stroke-width="3.84"/>
<circle clip-path="url(#clip361)" cx="1895.21" cy="562.929" r="10.8" fill="#ff0000" fill-rule="evenodd" fill-opacity="0.7" stroke="#000000" stroke-opacity="0.7" stroke-width="3.84"/>
<circle clip-path="url(#clip361)" cx="1910.59" cy="930.955" r="10.8" fill="#ff0000" fill-rule="evenodd" fill-opacity="0.7" stroke="#000000" stroke-opacity="0.7" stroke-width="3.84"/>
<circle clip-path="url(#clip361)" cx="1925.98" cy="562.929" r="10.8" fill="#ff0000" fill-rule="evenodd" fill-opacity="0.7" stroke="#000000" stroke-opacity="0.7" stroke-width="3.84"/>
<circle clip-path="url(#clip361)" cx="1941.36" cy="736.117" r="10.8" fill="#ff0000" fill-rule="evenodd" fill-opacity="0.7" stroke="#000000" stroke-opacity="0.7" stroke-width="3.84"/>
<circle clip-path="url(#clip361)" cx="1956.74" cy="866.009" r="10.8" fill="#ff0000" fill-rule="evenodd" fill-opacity="0.7" stroke="#000000" stroke-opacity="0.7" stroke-width="3.84"/>
<circle clip-path="url(#clip361)" cx="1972.12" cy="541.28" r="10.8" fill="#ff0000" fill-rule="evenodd" fill-opacity="0.7" stroke="#000000" stroke-opacity="0.7" stroke-width="3.84"/>
<circle clip-path="url(#clip361)" cx="1987.5" cy="281.497" r="10.8" fill="#ff0000" fill-rule="evenodd" fill-opacity="0.7" stroke="#000000" stroke-opacity="0.7" stroke-width="3.84"/>
<circle clip-path="url(#clip361)" cx="2002.88" cy="649.523" r="10.8" fill="#ff0000" fill-rule="evenodd" fill-opacity="0.7" stroke="#000000" stroke-opacity="0.7" stroke-width="3.84"/>
<circle clip-path="url(#clip361)" cx="2018.26" cy="671.172" r="10.8" fill="#ff0000" fill-rule="evenodd" fill-opacity="0.7" stroke="#000000" stroke-opacity="0.7" stroke-width="3.84"/>
<circle clip-path="url(#clip361)" cx="2033.65" cy="454.686" r="10.8" fill="#ff0000" fill-rule="evenodd" fill-opacity="0.7" stroke="#000000" stroke-opacity="0.7" stroke-width="3.84"/>
<circle clip-path="url(#clip361)" cx="2049.03" cy="541.28" r="10.8" fill="#ff0000" fill-rule="evenodd" fill-opacity="0.7" stroke="#000000" stroke-opacity="0.7" stroke-width="3.84"/>
<circle clip-path="url(#clip361)" cx="2064.41" cy="757.766" r="10.8" fill="#ff0000" fill-rule="evenodd" fill-opacity="0.7" stroke="#000000" stroke-opacity="0.7" stroke-width="3.84"/>
<circle clip-path="url(#clip361)" cx="2079.79" cy="562.929" r="10.8" fill="#ff0000" fill-rule="evenodd" fill-opacity="0.7" stroke="#000000" stroke-opacity="0.7" stroke-width="3.84"/>
<circle clip-path="url(#clip361)" cx="2095.17" cy="995.9" r="10.8" fill="#ff0000" fill-rule="evenodd" fill-opacity="0.7" stroke="#000000" stroke-opacity="0.7" stroke-width="3.84"/>
<circle clip-path="url(#clip361)" cx="2110.55" cy="627.874" r="10.8" fill="#ff0000" fill-rule="evenodd" fill-opacity="0.7" stroke="#000000" stroke-opacity="0.7" stroke-width="3.84"/>
<circle clip-path="url(#clip361)" cx="2125.94" cy="1277.33" r="10.8" fill="#ff0000" fill-rule="evenodd" fill-opacity="0.7" stroke="#000000" stroke-opacity="0.7" stroke-width="3.84"/>
<circle clip-path="url(#clip361)" cx="2141.32" cy="1298.98" r="10.8" fill="#ff0000" fill-rule="evenodd" fill-opacity="0.7" stroke="#000000" stroke-opacity="0.7" stroke-width="3.84"/>
<circle clip-path="url(#clip361)" cx="2156.7" cy="1320.63" r="10.8" fill="#ff0000" fill-rule="evenodd" fill-opacity="0.7" stroke="#000000" stroke-opacity="0.7" stroke-width="3.84"/>
<circle clip-path="url(#clip361)" cx="2172.08" cy="1320.63" r="10.8" fill="#ff0000" fill-rule="evenodd" fill-opacity="0.7" stroke="#000000" stroke-opacity="0.7" stroke-width="3.84"/>
<circle clip-path="url(#clip361)" cx="2187.46" cy="1363.93" r="10.8" fill="#ff0000" fill-rule="evenodd" fill-opacity="0.7" stroke="#000000" stroke-opacity="0.7" stroke-width="3.84"/>
<circle clip-path="url(#clip361)" cx="2202.84" cy="1298.98" r="10.8" fill="#ff0000" fill-rule="evenodd" fill-opacity="0.7" stroke="#000000" stroke-opacity="0.7" stroke-width="3.84"/>
<circle clip-path="url(#clip361)" cx="2218.22" cy="1428.87" r="10.8" fill="#ff0000" fill-rule="evenodd" fill-opacity="0.7" stroke="#000000" stroke-opacity="0.7" stroke-width="3.84"/>
<circle clip-path="url(#clip361)" cx="2233.61" cy="1298.98" r="10.8" fill="#ff0000" fill-rule="evenodd" fill-opacity="0.7" stroke="#000000" stroke-opacity="0.7" stroke-width="3.84"/>
<circle clip-path="url(#clip361)" cx="2248.99" cy="1428.87" r="10.8" fill="#ff0000" fill-rule="evenodd" fill-opacity="0.7" stroke="#000000" stroke-opacity="0.7" stroke-width="3.84"/>
<circle clip-path="url(#clip361)" cx="2264.37" cy="1515.47" r="10.8" fill="#ff0000" fill-rule="evenodd" fill-opacity="0.7" stroke="#000000" stroke-opacity="0.7" stroke-width="3.84"/>
<circle clip-path="url(#clip361)" cx="2279.75" cy="541.28" r="10.8" fill="#ff0000" fill-rule="evenodd" fill-opacity="0.7" stroke="#000000" stroke-opacity="0.7" stroke-width="3.84"/>
<circle clip-path="url(#clip361)" cx="2295.13" cy="454.686" r="10.8" fill="#ff0000" fill-rule="evenodd" fill-opacity="0.7" stroke="#000000" stroke-opacity="0.7" stroke-width="3.84"/>
<circle clip-path="url(#clip361)" cx="2310.51" cy="779.414" r="10.8" fill="#ff0000" fill-rule="evenodd" fill-opacity="0.7" stroke="#000000" stroke-opacity="0.7" stroke-width="3.84"/>
<circle clip-path="url(#clip361)" cx="2325.9" cy="671.172" r="10.8" fill="#ff0000" fill-rule="evenodd" fill-opacity="0.7" stroke="#000000" stroke-opacity="0.7" stroke-width="3.84"/>
<circle clip-path="url(#clip361)" cx="2341.28" cy="779.414" r="10.8" fill="#ff0000" fill-rule="evenodd" fill-opacity="0.7" stroke="#000000" stroke-opacity="0.7" stroke-width="3.84"/>
<circle clip-path="url(#clip361)" cx="2356.66" cy="801.063" r="10.8" fill="#ff0000" fill-rule="evenodd" fill-opacity="0.7" stroke="#000000" stroke-opacity="0.7" stroke-width="3.84"/>
<circle clip-path="url(#clip361)" cx="2372.04" cy="627.874" r="10.8" fill="#ff0000" fill-rule="evenodd" fill-opacity="0.7" stroke="#000000" stroke-opacity="0.7" stroke-width="3.84"/>
<circle clip-path="url(#clip361)" cx="2387.42" cy="584.577" r="10.8" fill="#ff0000" fill-rule="evenodd" fill-opacity="0.7" stroke="#000000" stroke-opacity="0.7" stroke-width="3.84"/>
<circle clip-path="url(#clip361)" cx="2402.8" cy="714.469" r="10.8" fill="#ff0000" fill-rule="evenodd" fill-opacity="0.7" stroke="#000000" stroke-opacity="0.7" stroke-width="3.84"/>
<circle clip-path="url(#clip361)" cx="2418.19" cy="736.117" r="10.8" fill="#ff0000" fill-rule="evenodd" fill-opacity="0.7" stroke="#000000" stroke-opacity="0.7" stroke-width="3.84"/>
<circle clip-path="url(#clip361)" cx="2433.57" cy="627.874" r="10.8" fill="#ff0000" fill-rule="evenodd" fill-opacity="0.7" stroke="#000000" stroke-opacity="0.7" stroke-width="3.84"/>
<circle clip-path="url(#clip361)" cx="2448.95" cy="671.172" r="10.8" fill="#ff0000" fill-rule="evenodd" fill-opacity="0.7" stroke="#000000" stroke-opacity="0.7" stroke-width="3.84"/>
<circle clip-path="url(#clip361)" cx="2464.33" cy="541.28" r="10.8" fill="#ff0000" fill-rule="evenodd" fill-opacity="0.7" stroke="#000000" stroke-opacity="0.7" stroke-width="3.84"/>
<circle clip-path="url(#clip361)" cx="2479.71" cy="974.252" r="10.8" fill="#ff0000" fill-rule="evenodd" fill-opacity="0.7" stroke="#000000" stroke-opacity="0.7" stroke-width="3.84"/>
<circle clip-path="url(#clip361)" cx="2495.09" cy="909.306" r="10.8" fill="#ff0000" fill-rule="evenodd" fill-opacity="0.7" stroke="#000000" stroke-opacity="0.7" stroke-width="3.84"/>
<circle clip-path="url(#clip361)" cx="2510.47" cy="887.657" r="10.8" fill="#ff0000" fill-rule="evenodd" fill-opacity="0.7" stroke="#000000" stroke-opacity="0.7" stroke-width="3.84"/>
<circle clip-path="url(#clip361)" cx="2525.86" cy="736.117" r="10.8" fill="#ff0000" fill-rule="evenodd" fill-opacity="0.7" stroke="#000000" stroke-opacity="0.7" stroke-width="3.84"/>
<circle clip-path="url(#clip361)" cx="2541.24" cy="822.712" r="10.8" fill="#ff0000" fill-rule="evenodd" fill-opacity="0.7" stroke="#000000" stroke-opacity="0.7" stroke-width="3.84"/>
<circle clip-path="url(#clip361)" cx="2556.62" cy="173.254" r="10.8" fill="#ff0000" fill-rule="evenodd" fill-opacity="0.7" stroke="#000000" stroke-opacity="0.7" stroke-width="3.84"/>
<circle clip-path="url(#clip361)" cx="2572" cy="454.686" r="10.8" fill="#ff0000" fill-rule="evenodd" fill-opacity="0.7" stroke="#000000" stroke-opacity="0.7" stroke-width="3.84"/>
<path clip-path="url(#clip360)" d="M292.374 285.016 L756.42 285.016 L756.42 181.336 L292.374 181.336  Z" fill="#ffffff" fill-rule="evenodd" fill-opacity="1"/>
<polyline clip-path="url(#clip360)" style="stroke:#000000; stroke-linecap:round; stroke-linejoin:round; stroke-width:4; stroke-opacity:1; fill:none" points="292.374,285.016 756.42,285.016 756.42,181.336 292.374,181.336 292.374,285.016 "/>
<circle clip-path="url(#clip360)" cx="400.346" cy="233.176" r="19.7486" fill="#ff0000" fill-rule="evenodd" fill-opacity="0.7" stroke="#000000" stroke-opacity="0.7" stroke-width="7.02171"/>
<path clip-path="url(#clip360)" d="M524.336 219.068 Q519.243 219.068 516.234 222.864 Q513.248 226.66 513.248 233.211 Q513.248 239.739 516.234 243.535 Q519.243 247.331 524.336 247.331 Q529.428 247.331 532.391 243.535 Q535.377 239.739 535.377 233.211 Q535.377 226.66 532.391 222.864 Q529.428 219.068 524.336 219.068 M524.336 215.271 Q531.604 215.271 535.956 220.156 Q540.308 225.017 540.308 233.211 Q540.308 241.382 535.956 246.266 Q531.604 251.128 524.336 251.128 Q517.044 251.128 512.669 246.266 Q508.317 241.405 508.317 233.211 Q508.317 225.017 512.669 220.156 Q517.044 215.271 524.336 215.271 Z" fill="#000000" fill-rule="nonzero" fill-opacity="1" /><path clip-path="url(#clip360)" d="M566.048 237.517 Q566.048 232.817 564.104 230.155 Q562.183 227.47 558.803 227.47 Q555.423 227.47 553.479 230.155 Q551.558 232.817 551.558 237.517 Q551.558 242.216 553.479 244.901 Q555.423 247.563 558.803 247.563 Q562.183 247.563 564.104 244.901 Q566.048 242.216 566.048 237.517 M551.558 228.466 Q552.9 226.151 554.937 225.04 Q556.997 223.906 559.845 223.906 Q564.567 223.906 567.507 227.655 Q570.47 231.405 570.47 237.517 Q570.47 243.628 567.507 247.378 Q564.567 251.128 559.845 251.128 Q556.997 251.128 554.937 250.016 Q552.9 248.882 551.558 246.567 L551.558 250.456 L547.275 250.456 L547.275 214.438 L551.558 214.438 L551.558 228.466 Z" fill="#000000" fill-rule="nonzero" fill-opacity="1" /><path clip-path="url(#clip360)" d="M594.057 225.294 L594.057 229.322 Q592.252 228.396 590.307 227.933 Q588.363 227.47 586.28 227.47 Q583.108 227.47 581.511 228.443 Q579.937 229.415 579.937 231.359 Q579.937 232.841 581.071 233.697 Q582.206 234.53 585.632 235.294 L587.09 235.618 Q591.627 236.591 593.525 238.373 Q595.446 240.132 595.446 243.304 Q595.446 246.915 592.576 249.021 Q589.729 251.128 584.729 251.128 Q582.645 251.128 580.377 250.711 Q578.132 250.317 575.632 249.507 L575.632 245.109 Q577.993 246.336 580.284 246.961 Q582.576 247.563 584.821 247.563 Q587.831 247.563 589.451 246.544 Q591.071 245.503 591.071 243.628 Q591.071 241.892 589.891 240.966 Q588.733 240.04 584.775 239.183 L583.294 238.836 Q579.335 238.003 577.576 236.29 Q575.817 234.554 575.817 231.544 Q575.817 227.887 578.409 225.896 Q581.002 223.906 585.77 223.906 Q588.132 223.906 590.215 224.253 Q592.298 224.6 594.057 225.294 Z" fill="#000000" fill-rule="nonzero" fill-opacity="1" /><path clip-path="url(#clip360)" d="M624.404 236.429 L624.404 238.512 L604.821 238.512 Q605.099 242.91 607.46 245.225 Q609.844 247.516 614.08 247.516 Q616.534 247.516 618.826 246.915 Q621.141 246.313 623.409 245.109 L623.409 249.137 Q621.117 250.109 618.71 250.618 Q616.303 251.128 613.826 251.128 Q607.622 251.128 603.988 247.516 Q600.377 243.905 600.377 237.748 Q600.377 231.382 603.803 227.655 Q607.252 223.906 613.085 223.906 Q618.317 223.906 621.349 227.285 Q624.404 230.642 624.404 236.429 M620.145 235.179 Q620.099 231.683 618.178 229.6 Q616.28 227.517 613.131 227.517 Q609.567 227.517 607.414 229.53 Q605.284 231.544 604.96 235.202 L620.145 235.179 Z" fill="#000000" fill-rule="nonzero" fill-opacity="1" /><path clip-path="url(#clip360)" d="M646.418 228.512 Q645.701 228.095 644.844 227.91 Q644.011 227.702 642.992 227.702 Q639.381 227.702 637.437 230.063 Q635.516 232.401 635.516 236.799 L635.516 250.456 L631.233 250.456 L631.233 224.531 L635.516 224.531 L635.516 228.558 Q636.858 226.197 639.011 225.063 Q641.164 223.906 644.242 223.906 Q644.682 223.906 645.215 223.975 Q645.747 224.021 646.395 224.137 L646.418 228.512 Z" fill="#000000" fill-rule="nonzero" fill-opacity="1" /><path clip-path="url(#clip360)" d="M647.83 224.531 L652.344 224.531 L660.446 246.29 L668.548 224.531 L673.062 224.531 L663.339 250.456 L657.552 250.456 L647.83 224.531 Z" fill="#000000" fill-rule="nonzero" fill-opacity="1" /><path clip-path="url(#clip360)" d="M701.117 236.429 L701.117 238.512 L681.534 238.512 Q681.812 242.91 684.173 245.225 Q686.557 247.516 690.793 247.516 Q693.247 247.516 695.538 246.915 Q697.853 246.313 700.122 245.109 L700.122 249.137 Q697.83 250.109 695.423 250.618 Q693.015 251.128 690.538 251.128 Q684.335 251.128 680.7 247.516 Q677.089 243.905 677.089 237.748 Q677.089 231.382 680.515 227.655 Q683.964 223.906 689.798 223.906 Q695.029 223.906 698.061 227.285 Q701.117 230.642 701.117 236.429 M696.858 235.179 Q696.811 231.683 694.89 229.6 Q692.992 227.517 689.844 227.517 Q686.279 227.517 684.126 229.53 Q681.997 231.544 681.673 235.202 L696.858 235.179 Z" fill="#000000" fill-rule="nonzero" fill-opacity="1" /><path clip-path="url(#clip360)" d="M725.168 228.466 L725.168 214.438 L729.427 214.438 L729.427 250.456 L725.168 250.456 L725.168 246.567 Q723.825 248.882 721.765 250.016 Q719.728 251.128 716.858 251.128 Q712.159 251.128 709.196 247.378 Q706.256 243.628 706.256 237.517 Q706.256 231.405 709.196 227.655 Q712.159 223.906 716.858 223.906 Q719.728 223.906 721.765 225.04 Q723.825 226.151 725.168 228.466 M710.654 237.517 Q710.654 242.216 712.575 244.901 Q714.52 247.563 717.899 247.563 Q721.279 247.563 723.223 244.901 Q725.168 242.216 725.168 237.517 Q725.168 232.817 723.223 230.155 Q721.279 227.47 717.899 227.47 Q714.52 227.47 712.575 230.155 Q710.654 232.817 710.654 237.517 Z" fill="#000000" fill-rule="nonzero" fill-opacity="1" /></svg>
