<?xml version="1.0" encoding="utf-8"?>
<svg xmlns="http://www.w3.org/2000/svg" xmlns:xlink="http://www.w3.org/1999/xlink" width="672" height="480" viewBox="0 0 2688 1920">
<defs>
  <clipPath id="clip970">
    <rect x="0" y="0" width="2688" height="1920"/>
  </clipPath>
</defs>
<path clip-path="url(#clip970)" d="M0 1920 L2688 1920 L2688 -4.26326e-14 L0 -4.26326e-14  Z" fill="#ffffff" fill-rule="evenodd" fill-opacity="1"/>
<defs>
  <clipPath id="clip971">
    <rect x="238" y="127" width="2403" height="1607"/>
  </clipPath>
</defs>
<path clip-path="url(#clip970)" d="M238.664 1734.12 L2640.76 1734.12 L2640.76 127.792 L238.664 127.792  Z" fill="#ffffff" fill-rule="evenodd" fill-opacity="1"/>
<polyline clip-path="url(#clip971)" style="stroke:#000000; stroke-linecap:round; stroke-linejoin:round; stroke-width:2; stroke-opacity:0.1; fill:none" points="306.647,1734.12 306.647,127.792 "/>
<polyline clip-path="url(#clip971)" style="stroke:#000000; stroke-linecap:round; stroke-linejoin:round; stroke-width:2; stroke-opacity:0.1; fill:none" points="1062.02,1734.12 1062.02,127.792 "/>
<polyline clip-path="url(#clip971)" style="stroke:#000000; stroke-linecap:round; stroke-linejoin:round; stroke-width:2; stroke-opacity:0.1; fill:none" points="1817.4,1734.12 1817.4,127.792 "/>
<polyline clip-path="url(#clip971)" style="stroke:#000000; stroke-linecap:round; stroke-linejoin:round; stroke-width:2; stroke-opacity:0.1; fill:none" points="2572.77,1734.12 2572.77,127.792 "/>
<polyline clip-path="url(#clip971)" style="stroke:#000000; stroke-linecap:round; stroke-linejoin:round; stroke-width:2; stroke-opacity:0.1; fill:none" points="238.664,1688.65 2640.76,1688.65 "/>
<polyline clip-path="url(#clip971)" style="stroke:#000000; stroke-linecap:round; stroke-linejoin:round; stroke-width:2; stroke-opacity:0.1; fill:none" points="238.664,1374.58 2640.76,1374.58 "/>
<polyline clip-path="url(#clip971)" style="stroke:#000000; stroke-linecap:round; stroke-linejoin:round; stroke-width:2; stroke-opacity:0.1; fill:none" points="238.664,1060.51 2640.76,1060.51 "/>
<polyline clip-path="url(#clip971)" style="stroke:#000000; stroke-linecap:round; stroke-linejoin:round; stroke-width:2; stroke-opacity:0.1; fill:none" points="238.664,746.442 2640.76,746.442 "/>
<polyline clip-path="url(#clip971)" style="stroke:#000000; stroke-linecap:round; stroke-linejoin:round; stroke-width:2; stroke-opacity:0.1; fill:none" points="238.664,432.37 2640.76,432.37 "/>
<polyline clip-path="url(#clip970)" style="stroke:#000000; stroke-linecap:round; stroke-linejoin:round; stroke-width:4; stroke-opacity:1; fill:none" points="238.664,1734.12 2640.76,1734.12 "/>
<polyline clip-path="url(#clip970)" style="stroke:#000000; stroke-linecap:round; stroke-linejoin:round; stroke-width:4; stroke-opacity:1; fill:none" points="306.647,1734.12 306.647,1715.22 "/>
<polyline clip-path="url(#clip970)" style="stroke:#000000; stroke-linecap:round; stroke-linejoin:round; stroke-width:4; stroke-opacity:1; fill:none" points="1062.02,1734.12 1062.02,1715.22 "/>
<polyline clip-path="url(#clip970)" style="stroke:#000000; stroke-linecap:round; stroke-linejoin:round; stroke-width:4; stroke-opacity:1; fill:none" points="1817.4,1734.12 1817.4,1715.22 "/>
<polyline clip-path="url(#clip970)" style="stroke:#000000; stroke-linecap:round; stroke-linejoin:round; stroke-width:4; stroke-opacity:1; fill:none" points="2572.77,1734.12 2572.77,1715.22 "/>
<path clip-path="url(#clip970)" d="M306.647 1767.34 Q303.036 1767.34 301.208 1770.9 Q299.402 1774.45 299.402 1781.58 Q299.402 1788.68 301.208 1792.25 Q303.036 1795.79 306.647 1795.79 Q310.282 1795.79 312.087 1792.25 Q313.916 1788.68 313.916 1781.58 Q313.916 1774.45 312.087 1770.9 Q310.282 1767.34 306.647 1767.34 M306.647 1763.64 Q312.458 1763.64 315.513 1768.24 Q318.592 1772.83 318.592 1781.58 Q318.592 1790.3 315.513 1794.91 Q312.458 1799.49 306.647 1799.49 Q300.837 1799.49 297.759 1794.91 Q294.703 1790.3 294.703 1781.58 Q294.703 1772.83 297.759 1768.24 Q300.837 1763.64 306.647 1763.64 Z" fill="#000000" fill-rule="nonzero" fill-opacity="1" /><path clip-path="url(#clip970)" d="M1052.4 1794.89 L1060.04 1794.89 L1060.04 1768.52 L1051.73 1770.19 L1051.73 1765.93 L1060 1764.26 L1064.67 1764.26 L1064.67 1794.89 L1072.31 1794.89 L1072.31 1798.82 L1052.4 1798.82 L1052.4 1794.89 Z" fill="#000000" fill-rule="nonzero" fill-opacity="1" /><path clip-path="url(#clip970)" d="M1812.05 1794.89 L1828.37 1794.89 L1828.37 1798.82 L1806.43 1798.82 L1806.43 1794.89 Q1809.09 1792.13 1813.67 1787.5 Q1818.28 1782.85 1819.46 1781.51 Q1821.7 1778.98 1822.58 1777.25 Q1823.49 1775.49 1823.49 1773.8 Q1823.49 1771.04 1821.54 1769.31 Q1819.62 1767.57 1816.52 1767.57 Q1814.32 1767.57 1811.86 1768.34 Q1809.43 1769.1 1806.66 1770.65 L1806.66 1765.93 Q1809.48 1764.79 1811.93 1764.21 Q1814.39 1763.64 1816.43 1763.64 Q1821.8 1763.64 1824.99 1766.32 Q1828.18 1769.01 1828.18 1773.5 Q1828.18 1775.63 1827.37 1777.55 Q1826.59 1779.45 1824.48 1782.04 Q1823.9 1782.71 1820.8 1785.93 Q1817.7 1789.12 1812.05 1794.89 Z" fill="#000000" fill-rule="nonzero" fill-opacity="1" /><path clip-path="url(#clip970)" d="M2577.02 1780.19 Q2580.38 1780.9 2582.25 1783.17 Q2584.15 1785.44 2584.15 1788.77 Q2584.15 1793.89 2580.63 1796.69 Q2577.11 1799.49 2570.63 1799.49 Q2568.46 1799.49 2566.14 1799.05 Q2563.85 1798.64 2561.39 1797.78 L2561.39 1793.27 Q2563.34 1794.4 2565.65 1794.98 Q2567.97 1795.56 2570.49 1795.56 Q2574.89 1795.56 2577.18 1793.82 Q2579.5 1792.08 2579.5 1788.77 Q2579.5 1785.72 2577.34 1784.01 Q2575.21 1782.27 2571.39 1782.27 L2567.37 1782.27 L2567.37 1778.43 L2571.58 1778.43 Q2575.03 1778.43 2576.86 1777.06 Q2578.69 1775.67 2578.69 1773.08 Q2578.69 1770.42 2576.79 1769.01 Q2574.91 1767.57 2571.39 1767.57 Q2569.47 1767.57 2567.27 1767.99 Q2565.08 1768.4 2562.44 1769.28 L2562.44 1765.12 Q2565.1 1764.38 2567.41 1764.01 Q2569.75 1763.64 2571.81 1763.64 Q2577.14 1763.64 2580.24 1766.07 Q2583.34 1768.47 2583.34 1772.59 Q2583.34 1775.46 2581.7 1777.46 Q2580.05 1779.42 2577.02 1780.19 Z" fill="#000000" fill-rule="nonzero" fill-opacity="1" /><path clip-path="url(#clip970)" d="M1370.64 1835.78 L1377.55 1835.78 L1390.73 1855.32 L1403.81 1835.78 L1410.71 1835.78 L1393.91 1860.67 L1393.91 1883.3 L1387.45 1883.3 L1387.45 1860.67 L1370.64 1835.78 Z" fill="#000000" fill-rule="nonzero" fill-opacity="1" /><path clip-path="url(#clip970)" d="M1438.56 1864.01 L1438.56 1866.88 L1411.64 1866.88 Q1412.02 1872.92 1415.27 1876.11 Q1418.54 1879.26 1424.37 1879.26 Q1427.74 1879.26 1430.89 1878.43 Q1434.08 1877.6 1437.2 1875.95 L1437.2 1881.49 Q1434.04 1882.82 1430.73 1883.52 Q1427.42 1884.22 1424.02 1884.22 Q1415.49 1884.22 1410.49 1879.26 Q1405.53 1874.29 1405.53 1865.83 Q1405.53 1857.07 1410.24 1851.95 Q1414.98 1846.79 1423 1846.79 Q1430.19 1846.79 1434.36 1851.44 Q1438.56 1856.06 1438.56 1864.01 M1432.71 1862.29 Q1432.64 1857.49 1430 1854.62 Q1427.39 1851.76 1423.06 1851.76 Q1418.16 1851.76 1415.2 1854.53 Q1412.27 1857.3 1411.83 1862.33 L1432.71 1862.29 Z" fill="#000000" fill-rule="nonzero" fill-opacity="1" /><path clip-path="url(#clip970)" d="M1464.38 1865.38 Q1457.28 1865.38 1454.54 1867 Q1451.8 1868.63 1451.8 1872.54 Q1451.8 1875.66 1453.84 1877.51 Q1455.91 1879.32 1459.44 1879.32 Q1464.31 1879.32 1467.24 1875.88 Q1470.2 1872.42 1470.2 1866.69 L1470.2 1865.38 L1464.38 1865.38 M1476.06 1862.96 L1476.06 1883.3 L1470.2 1883.3 L1470.2 1877.89 Q1468.2 1881.14 1465.2 1882.7 Q1462.21 1884.22 1457.88 1884.22 Q1452.41 1884.22 1449.16 1881.17 Q1445.95 1878.08 1445.95 1872.92 Q1445.95 1866.91 1449.96 1863.85 Q1454 1860.8 1461.99 1860.8 L1470.2 1860.8 L1470.2 1860.23 Q1470.2 1856.18 1467.53 1853.99 Q1464.89 1851.76 1460.08 1851.76 Q1457.02 1851.76 1454.13 1852.49 Q1451.23 1853.22 1448.56 1854.69 L1448.56 1849.28 Q1451.77 1848.03 1454.8 1847.43 Q1457.82 1846.79 1460.68 1846.79 Q1468.42 1846.79 1472.24 1850.8 Q1476.06 1854.81 1476.06 1862.96 Z" fill="#000000" fill-rule="nonzero" fill-opacity="1" /><path clip-path="url(#clip970)" d="M1508.78 1853.13 Q1507.79 1852.55 1506.61 1852.3 Q1505.47 1852.01 1504.07 1852.01 Q1499.1 1852.01 1496.43 1855.26 Q1493.79 1858.47 1493.79 1864.52 L1493.79 1883.3 L1487.9 1883.3 L1487.9 1847.65 L1493.79 1847.65 L1493.79 1853.19 Q1495.63 1849.94 1498.59 1848.39 Q1501.55 1846.79 1505.79 1846.79 Q1506.39 1846.79 1507.12 1846.89 Q1507.85 1846.95 1508.75 1847.11 L1508.78 1853.13 Z" fill="#000000" fill-rule="nonzero" fill-opacity="1" /><polyline clip-path="url(#clip970)" style="stroke:#000000; stroke-linecap:round; stroke-linejoin:round; stroke-width:4; stroke-opacity:1; fill:none" points="238.664,1734.12 238.664,127.792 "/>
<polyline clip-path="url(#clip970)" style="stroke:#000000; stroke-linecap:round; stroke-linejoin:round; stroke-width:4; stroke-opacity:1; fill:none" points="238.664,1688.65 257.561,1688.65 "/>
<polyline clip-path="url(#clip970)" style="stroke:#000000; stroke-linecap:round; stroke-linejoin:round; stroke-width:4; stroke-opacity:1; fill:none" points="238.664,1374.58 257.561,1374.58 "/>
<polyline clip-path="url(#clip970)" style="stroke:#000000; stroke-linecap:round; stroke-linejoin:round; stroke-width:4; stroke-opacity:1; fill:none" points="238.664,1060.51 257.561,1060.51 "/>
<polyline clip-path="url(#clip970)" style="stroke:#000000; stroke-linecap:round; stroke-linejoin:round; stroke-width:4; stroke-opacity:1; fill:none" points="238.664,746.442 257.561,746.442 "/>
<polyline clip-path="url(#clip970)" style="stroke:#000000; stroke-linecap:round; stroke-linejoin:round; stroke-width:4; stroke-opacity:1; fill:none" points="238.664,432.37 257.561,432.37 "/>
<path clip-path="url(#clip970)" d="M186.399 1674.45 Q182.788 1674.45 180.959 1678.02 Q179.154 1681.56 179.154 1688.69 Q179.154 1695.8 180.959 1699.36 Q182.788 1702.9 186.399 1702.9 Q190.033 1702.9 191.839 1699.36 Q193.668 1695.8 193.668 1688.69 Q193.668 1681.56 191.839 1678.02 Q190.033 1674.45 186.399 1674.45 M186.399 1670.75 Q192.209 1670.75 195.265 1675.36 Q198.344 1679.94 198.344 1688.69 Q198.344 1697.42 195.265 1702.02 Q192.209 1706.61 186.399 1706.61 Q180.589 1706.61 177.51 1702.02 Q174.455 1697.42 174.455 1688.69 Q174.455 1679.94 177.51 1675.36 Q180.589 1670.75 186.399 1670.75 Z" fill="#000000" fill-rule="nonzero" fill-opacity="1" /><path clip-path="url(#clip970)" d="M160.404 1373.23 Q163.76 1373.95 165.635 1376.22 Q167.534 1378.48 167.534 1381.82 Q167.534 1386.93 164.015 1389.73 Q160.497 1392.54 154.015 1392.54 Q151.839 1392.54 149.524 1392.1 Q147.233 1391.68 144.779 1390.82 L144.779 1386.31 Q146.724 1387.44 149.038 1388.02 Q151.353 1388.6 153.876 1388.6 Q158.274 1388.6 160.566 1386.86 Q162.881 1385.13 162.881 1381.82 Q162.881 1378.76 160.728 1377.05 Q158.598 1375.31 154.779 1375.31 L150.751 1375.31 L150.751 1371.47 L154.964 1371.47 Q158.413 1371.47 160.242 1370.1 Q162.071 1368.72 162.071 1366.12 Q162.071 1363.46 160.173 1362.05 Q158.298 1360.61 154.779 1360.61 Q152.858 1360.61 150.659 1361.03 Q148.46 1361.45 145.821 1362.33 L145.821 1358.16 Q148.483 1357.42 150.798 1357.05 Q153.136 1356.68 155.196 1356.68 Q160.52 1356.68 163.622 1359.11 Q166.723 1361.52 166.723 1365.64 Q166.723 1368.51 165.08 1370.5 Q163.436 1372.47 160.404 1373.23 Z" fill="#000000" fill-rule="nonzero" fill-opacity="1" /><path clip-path="url(#clip970)" d="M186.399 1360.38 Q182.788 1360.38 180.959 1363.95 Q179.154 1367.49 179.154 1374.62 Q179.154 1381.73 180.959 1385.29 Q182.788 1388.83 186.399 1388.83 Q190.033 1388.83 191.839 1385.29 Q193.668 1381.73 193.668 1374.62 Q193.668 1367.49 191.839 1363.95 Q190.033 1360.38 186.399 1360.38 M186.399 1356.68 Q192.209 1356.68 195.265 1361.29 Q198.344 1365.87 198.344 1374.62 Q198.344 1383.35 195.265 1387.95 Q192.209 1392.54 186.399 1392.54 Q180.589 1392.54 177.51 1387.95 Q174.455 1383.35 174.455 1374.62 Q174.455 1365.87 177.51 1361.29 Q180.589 1356.68 186.399 1356.68 Z" fill="#000000" fill-rule="nonzero" fill-opacity="1" /><path clip-path="url(#clip970)" d="M156.816 1058.65 Q153.668 1058.65 151.816 1060.8 Q149.987 1062.95 149.987 1066.7 Q149.987 1070.43 151.816 1072.61 Q153.668 1074.76 156.816 1074.76 Q159.964 1074.76 161.793 1072.61 Q163.645 1070.43 163.645 1066.7 Q163.645 1062.95 161.793 1060.8 Q159.964 1058.65 156.816 1058.65 M166.098 1044 L166.098 1048.26 Q164.339 1047.42 162.534 1046.98 Q160.751 1046.54 158.992 1046.54 Q154.362 1046.54 151.909 1049.67 Q149.478 1052.79 149.131 1059.11 Q150.497 1057.1 152.557 1056.03 Q154.617 1054.95 157.094 1054.95 Q162.302 1054.95 165.311 1058.12 Q168.344 1061.27 168.344 1066.7 Q168.344 1072.03 165.196 1075.25 Q162.048 1078.46 156.816 1078.46 Q150.821 1078.46 147.649 1073.88 Q144.478 1069.27 144.478 1060.55 Q144.478 1052.35 148.367 1047.49 Q152.256 1042.61 158.807 1042.61 Q160.566 1042.61 162.348 1042.95 Q164.154 1043.3 166.098 1044 Z" fill="#000000" fill-rule="nonzero" fill-opacity="1" /><path clip-path="url(#clip970)" d="M186.399 1046.31 Q182.788 1046.31 180.959 1049.88 Q179.154 1053.42 179.154 1060.55 Q179.154 1067.65 180.959 1071.22 Q182.788 1074.76 186.399 1074.76 Q190.033 1074.76 191.839 1071.22 Q193.668 1067.65 193.668 1060.55 Q193.668 1053.42 191.839 1049.88 Q190.033 1046.31 186.399 1046.31 M186.399 1042.61 Q192.209 1042.61 195.265 1047.21 Q198.344 1051.8 198.344 1060.55 Q198.344 1069.27 195.265 1073.88 Q192.209 1078.46 186.399 1078.46 Q180.589 1078.46 177.51 1073.88 Q174.455 1069.27 174.455 1060.55 Q174.455 1051.8 177.51 1047.21 Q180.589 1042.61 186.399 1042.61 Z" fill="#000000" fill-rule="nonzero" fill-opacity="1" /><path clip-path="url(#clip970)" d="M146.376 763.004 L146.376 758.745 Q148.136 759.578 149.941 760.018 Q151.747 760.458 153.483 760.458 Q158.112 760.458 160.543 757.356 Q162.997 754.231 163.344 747.888 Q162.001 749.879 159.941 750.944 Q157.881 752.009 155.381 752.009 Q150.196 752.009 147.163 748.884 Q144.154 745.736 144.154 740.296 Q144.154 734.972 147.302 731.754 Q150.45 728.537 155.682 728.537 Q161.677 728.537 164.825 733.143 Q167.997 737.726 167.997 746.476 Q167.997 754.648 164.108 759.532 Q160.242 764.393 153.691 764.393 Q151.932 764.393 150.126 764.046 Q148.321 763.698 146.376 763.004 M155.682 748.351 Q158.83 748.351 160.659 746.199 Q162.51 744.046 162.51 740.296 Q162.51 736.569 160.659 734.416 Q158.83 732.24 155.682 732.24 Q152.534 732.24 150.682 734.416 Q148.853 736.569 148.853 740.296 Q148.853 744.046 150.682 746.199 Q152.534 748.351 155.682 748.351 Z" fill="#000000" fill-rule="nonzero" fill-opacity="1" /><path clip-path="url(#clip970)" d="M186.399 732.24 Q182.788 732.24 180.959 735.805 Q179.154 739.347 179.154 746.476 Q179.154 753.583 180.959 757.148 Q182.788 760.689 186.399 760.689 Q190.033 760.689 191.839 757.148 Q193.668 753.583 193.668 746.476 Q193.668 739.347 191.839 735.805 Q190.033 732.24 186.399 732.24 M186.399 728.537 Q192.209 728.537 195.265 733.143 Q198.344 737.726 198.344 746.476 Q198.344 755.203 195.265 759.81 Q192.209 764.393 186.399 764.393 Q180.589 764.393 177.51 759.81 Q174.455 755.203 174.455 746.476 Q174.455 737.726 177.51 733.143 Q180.589 728.537 186.399 728.537 Z" fill="#000000" fill-rule="nonzero" fill-opacity="1" /><path clip-path="url(#clip970)" d="M116.886 445.715 L124.525 445.715 L124.525 419.35 L116.214 421.016 L116.214 416.757 L124.478 415.09 L129.154 415.09 L129.154 445.715 L136.793 445.715 L136.793 449.65 L116.886 449.65 L116.886 445.715 Z" fill="#000000" fill-rule="nonzero" fill-opacity="1" /><path clip-path="url(#clip970)" d="M150.265 445.715 L166.585 445.715 L166.585 449.65 L144.64 449.65 L144.64 445.715 Q147.302 442.961 151.886 438.331 Q156.492 433.678 157.673 432.336 Q159.918 429.813 160.798 428.077 Q161.7 426.317 161.7 424.627 Q161.7 421.873 159.756 420.137 Q157.835 418.401 154.733 418.401 Q152.534 418.401 150.08 419.165 Q147.649 419.928 144.872 421.479 L144.872 416.757 Q147.696 415.623 150.149 415.044 Q152.603 414.465 154.64 414.465 Q160.011 414.465 163.205 417.151 Q166.399 419.836 166.399 424.327 Q166.399 426.456 165.589 428.377 Q164.802 430.276 162.696 432.868 Q162.117 433.539 159.015 436.757 Q155.913 439.951 150.265 445.715 Z" fill="#000000" fill-rule="nonzero" fill-opacity="1" /><path clip-path="url(#clip970)" d="M186.399 418.169 Q182.788 418.169 180.959 421.734 Q179.154 425.276 179.154 432.405 Q179.154 439.512 180.959 443.076 Q182.788 446.618 186.399 446.618 Q190.033 446.618 191.839 443.076 Q193.668 439.512 193.668 432.405 Q193.668 425.276 191.839 421.734 Q190.033 418.169 186.399 418.169 M186.399 414.465 Q192.209 414.465 195.265 419.072 Q198.344 423.655 198.344 432.405 Q198.344 441.132 195.265 445.738 Q192.209 450.322 186.399 450.322 Q180.589 450.322 177.51 445.738 Q174.455 441.132 174.455 432.405 Q174.455 423.655 177.51 419.072 Q180.589 414.465 186.399 414.465 Z" fill="#000000" fill-rule="nonzero" fill-opacity="1" /><path clip-path="url(#clip970)" d="M20.4523 1084.5 L44.1009 1093.22 L44.1009 1075.74 L20.4523 1084.5 M14.1184 1088.12 L14.1184 1080.84 L61.6384 1062.72 L61.6384 1069.41 L49.4481 1073.74 L49.4481 1095.16 L61.6384 1099.49 L61.6384 1106.27 L14.1184 1088.12 Z" fill="#000000" fill-rule="nonzero" fill-opacity="1" /><path clip-path="url(#clip970)" d="M40.1224 1026.41 L61.6384 1026.41 L61.6384 1032.26 L40.3133 1032.26 Q35.2526 1032.26 32.7381 1034.24 Q30.2237 1036.21 30.2237 1040.16 Q30.2237 1044.9 33.2474 1047.64 Q36.2711 1050.38 41.491 1050.38 L61.6384 1050.38 L61.6384 1056.26 L25.9905 1056.26 L25.9905 1050.38 L31.5287 1050.38 Q28.314 1048.27 26.7225 1045.44 Q25.1311 1042.58 25.1311 1038.85 Q25.1311 1032.71 28.9505 1029.56 Q32.7381 1026.41 40.1224 1026.41 Z" fill="#000000" fill-rule="nonzero" fill-opacity="1" /><path clip-path="url(#clip970)" d="M40.1224 985.095 L61.6384 985.095 L61.6384 990.951 L40.3133 990.951 Q35.2526 990.951 32.7381 992.925 Q30.2237 994.898 30.2237 998.845 Q30.2237 1003.59 33.2474 1006.32 Q36.2711 1009.06 41.491 1009.06 L61.6384 1009.06 L61.6384 1014.95 L25.9905 1014.95 L25.9905 1009.06 L31.5287 1009.06 Q28.314 1006.96 26.7225 1004.13 Q25.1311 1001.26 25.1311 997.54 Q25.1311 991.397 28.9505 988.246 Q32.7381 985.095 40.1224 985.095 Z" fill="#000000" fill-rule="nonzero" fill-opacity="1" /><path clip-path="url(#clip970)" d="M47.5702 974.019 L25.9905 974.019 L25.9905 968.162 L47.3474 968.162 Q52.4082 968.162 54.9545 966.189 Q57.4689 964.215 57.4689 960.269 Q57.4689 955.526 54.4452 952.789 Q51.4215 950.02 46.2016 950.02 L25.9905 950.02 L25.9905 944.163 L61.6384 944.163 L61.6384 950.02 L56.1639 950.02 Q59.4104 952.152 61.0019 954.985 Q62.5615 957.786 62.5615 961.51 Q62.5615 967.653 58.742 970.836 Q54.9226 974.019 47.5702 974.019 M25.1311 959.282 L25.1311 959.282 Z" fill="#000000" fill-rule="nonzero" fill-opacity="1" /><path clip-path="url(#clip970)" d="M43.719 915.9 Q43.719 922.997 45.3422 925.735 Q46.9655 928.472 50.8804 928.472 Q53.9996 928.472 55.8457 926.435 Q57.6599 924.366 57.6599 920.833 Q57.6599 915.963 54.2224 913.035 Q50.7531 910.075 45.0239 910.075 L43.719 910.075 L43.719 915.9 M41.3 904.219 L61.6384 904.219 L61.6384 910.075 L56.2276 910.075 Q59.4741 912.08 61.0337 915.072 Q62.5615 918.064 62.5615 922.393 Q62.5615 927.867 59.5059 931.114 Q56.4186 934.328 51.2623 934.328 Q45.2467 934.328 42.1912 930.318 Q39.1357 926.276 39.1357 918.287 L39.1357 910.075 L38.5628 910.075 Q34.5205 910.075 32.3244 912.749 Q30.0964 915.39 30.0964 920.197 Q30.0964 923.252 30.8284 926.148 Q31.5605 929.045 33.0246 931.718 L27.6137 931.718 Q26.3724 928.504 25.7677 925.48 Q25.1311 922.456 25.1311 919.592 Q25.1311 911.857 29.1415 908.038 Q33.1519 904.219 41.3 904.219 Z" fill="#000000" fill-rule="nonzero" fill-opacity="1" /><path clip-path="url(#clip970)" d="M12.1132 892.156 L12.1132 886.299 L61.6384 886.299 L61.6384 892.156 L12.1132 892.156 Z" fill="#000000" fill-rule="nonzero" fill-opacity="1" /><path clip-path="url(#clip970)" d="M14.1184 853.07 L14.1184 823.024 L19.5293 823.024 L19.5293 846.641 L33.5975 846.641 L33.5975 824.011 L39.0084 824.011 L39.0084 846.641 L56.2276 846.641 L56.2276 822.451 L61.6384 822.451 L61.6384 853.07 L14.1184 853.07 Z" fill="#000000" fill-rule="nonzero" fill-opacity="1" /><path clip-path="url(#clip970)" d="M14.1184 811.884 L14.1184 805.455 L61.6384 805.455 L61.6384 811.884 L14.1184 811.884 Z" fill="#000000" fill-rule="nonzero" fill-opacity="1" /><path clip-path="url(#clip970)" d="M39.3585 770.125 Q40.0587 768.056 42.3504 766.115 Q44.642 764.141 48.6524 762.168 L61.6384 755.643 L61.6384 762.55 L49.4481 768.629 Q44.6738 770.984 43.1142 773.212 Q41.5546 775.409 41.5546 779.228 L41.5546 786.23 L61.6384 786.23 L61.6384 792.66 L14.1184 792.66 L14.1184 778.146 Q14.1184 769.998 17.5241 765.987 Q20.9297 761.977 27.8047 761.977 Q32.2925 761.977 35.2526 764.078 Q38.2126 766.146 39.3585 770.125 M19.402 786.23 L36.2711 786.23 L36.2711 778.146 Q36.2711 773.499 34.1386 771.143 Q31.9743 768.756 27.8047 768.756 Q23.6352 768.756 21.5345 771.143 Q19.402 773.499 19.402 778.146 L19.402 786.23 Z" fill="#000000" fill-rule="nonzero" fill-opacity="1" /><path clip-path="url(#clip970)" d="M809.328 12.096 L817.511 12.096 L817.511 72.576 L809.328 72.576 L809.328 12.096 Z" fill="#000000" fill-rule="nonzero" fill-opacity="1" /><path clip-path="url(#clip970)" d="M868.796 35.9153 Q871.591 30.8922 875.48 28.5022 Q879.368 26.1121 884.635 26.1121 Q891.724 26.1121 895.572 31.0947 Q899.42 36.0368 899.42 45.1919 L899.42 72.576 L891.926 72.576 L891.926 45.4349 Q891.926 38.913 889.617 35.7533 Q887.308 32.5936 882.569 32.5936 Q876.776 32.5936 873.414 36.4419 Q870.051 40.2903 870.051 46.9338 L870.051 72.576 L862.557 72.576 L862.557 45.4349 Q862.557 38.8725 860.248 35.7533 Q857.939 32.5936 853.119 32.5936 Q847.407 32.5936 844.045 36.4824 Q840.682 40.3308 840.682 46.9338 L840.682 72.576 L833.188 72.576 L833.188 27.2059 L840.682 27.2059 L840.682 34.2544 Q843.234 30.082 846.799 28.0971 Q850.364 26.1121 855.266 26.1121 Q860.208 26.1121 863.651 28.6237 Q867.135 31.1352 868.796 35.9153 Z" fill="#000000" fill-rule="nonzero" fill-opacity="1" /><path clip-path="url(#clip970)" d="M921.498 65.7705 L921.498 89.8329 L914.004 89.8329 L914.004 27.2059 L921.498 27.2059 L921.498 34.0924 Q923.847 30.0415 927.412 28.0971 Q931.017 26.1121 936 26.1121 Q944.264 26.1121 949.409 32.6746 Q954.594 39.2371 954.594 49.9314 Q954.594 60.6258 949.409 67.1883 Q944.264 73.7508 936 73.7508 Q931.017 73.7508 927.412 71.8063 Q923.847 69.8214 921.498 65.7705 M946.857 49.9314 Q946.857 41.7081 943.454 37.0496 Q940.091 32.3505 934.177 32.3505 Q928.263 32.3505 924.86 37.0496 Q921.498 41.7081 921.498 49.9314 Q921.498 58.1548 924.86 62.8538 Q928.263 67.5124 934.177 67.5124 Q940.091 67.5124 943.454 62.8538 Q946.857 58.1548 946.857 49.9314 Z" fill="#000000" fill-rule="nonzero" fill-opacity="1" /><path clip-path="url(#clip970)" d="M987.568 49.7694 Q978.535 49.7694 975.051 51.8354 Q971.567 53.9013 971.567 58.8839 Q971.567 62.8538 974.16 65.2034 Q976.793 67.5124 981.289 67.5124 Q987.487 67.5124 991.214 63.1374 Q994.981 58.7219 994.981 51.4303 L994.981 49.7694 L987.568 49.7694 M1002.43 46.6907 L1002.43 72.576 L994.981 72.576 L994.981 65.6895 Q992.429 69.8214 988.621 71.8063 Q984.813 73.7508 979.304 73.7508 Q972.337 73.7508 968.205 69.8619 Q964.113 65.9325 964.113 59.3701 Q964.113 51.7138 969.217 47.825 Q974.362 43.9361 984.53 43.9361 L994.981 43.9361 L994.981 43.2069 Q994.981 38.0623 991.578 35.2672 Q988.216 32.4315 982.099 32.4315 Q978.211 32.4315 974.524 33.3632 Q970.838 34.295 967.435 36.1584 L967.435 29.2718 Q971.527 27.692 975.375 26.9223 Q979.223 26.1121 982.869 26.1121 Q992.713 26.1121 997.574 31.2163 Q1002.43 36.3204 1002.43 46.6907 Z" fill="#000000" fill-rule="nonzero" fill-opacity="1" /><path clip-path="url(#clip970)" d="M1050.44 28.9478 L1050.44 35.9153 Q1047.28 34.1734 1044.08 33.3227 Q1040.92 32.4315 1037.68 32.4315 Q1030.43 32.4315 1026.42 37.0496 Q1022.41 41.6271 1022.41 49.9314 Q1022.41 58.2358 1026.42 62.8538 Q1030.43 67.4314 1037.68 67.4314 Q1040.92 67.4314 1044.08 66.5807 Q1047.28 65.6895 1050.44 63.9476 L1050.44 70.8341 Q1047.32 72.2924 1043.96 73.0216 Q1040.63 73.7508 1036.87 73.7508 Q1026.62 73.7508 1020.58 67.3098 Q1014.55 60.8689 1014.55 49.9314 Q1014.55 38.832 1020.62 32.472 Q1026.74 26.1121 1037.35 26.1121 Q1040.8 26.1121 1044.08 26.8413 Q1047.36 27.5299 1050.44 28.9478 Z" fill="#000000" fill-rule="nonzero" fill-opacity="1" /><path clip-path="url(#clip970)" d="M1070.77 14.324 L1070.77 27.2059 L1086.13 27.2059 L1086.13 32.9987 L1070.77 32.9987 L1070.77 57.6282 Q1070.77 63.1779 1072.27 64.7578 Q1073.81 66.3376 1078.47 66.3376 L1086.13 66.3376 L1086.13 72.576 L1078.47 72.576 Q1069.84 72.576 1066.56 69.3758 Q1063.28 66.1351 1063.28 57.6282 L1063.28 32.9987 L1057.81 32.9987 L1057.81 27.2059 L1063.28 27.2059 L1063.28 14.324 L1070.77 14.324 Z" fill="#000000" fill-rule="nonzero" fill-opacity="1" /><path clip-path="url(#clip970)" d="M1139.88 32.4315 Q1133.89 32.4315 1130.4 37.1306 Q1126.92 41.7891 1126.92 49.9314 Q1126.92 58.0738 1130.36 62.7728 Q1133.85 67.4314 1139.88 67.4314 Q1145.84 67.4314 1149.32 62.7323 Q1152.8 58.0333 1152.8 49.9314 Q1152.8 41.8701 1149.32 37.1711 Q1145.84 32.4315 1139.88 32.4315 M1139.88 26.1121 Q1149.6 26.1121 1155.15 32.4315 Q1160.7 38.7509 1160.7 49.9314 Q1160.7 61.0714 1155.15 67.4314 Q1149.6 73.7508 1139.88 73.7508 Q1130.12 73.7508 1124.57 67.4314 Q1119.06 61.0714 1119.06 49.9314 Q1119.06 38.7509 1124.57 32.4315 Q1130.12 26.1121 1139.88 26.1121 Z" fill="#000000" fill-rule="nonzero" fill-opacity="1" /><path clip-path="url(#clip970)" d="M1196.03 9.54393 L1196.03 15.7418 L1188.9 15.7418 Q1184.89 15.7418 1183.31 17.3622 Q1181.77 18.9825 1181.77 23.1955 L1181.77 27.2059 L1194.04 27.2059 L1194.04 32.9987 L1181.77 32.9987 L1181.77 72.576 L1174.27 72.576 L1174.27 32.9987 L1167.14 32.9987 L1167.14 27.2059 L1174.27 27.2059 L1174.27 24.0462 Q1174.27 16.471 1177.8 13.0277 Q1181.32 9.54393 1188.98 9.54393 L1196.03 9.54393 Z" fill="#000000" fill-rule="nonzero" fill-opacity="1" /><path clip-path="url(#clip970)" d="M1228.96 12.096 L1237.14 12.096 L1237.14 72.576 L1228.96 72.576 L1228.96 12.096 Z" fill="#000000" fill-rule="nonzero" fill-opacity="1" /><path clip-path="url(#clip970)" d="M1245.04 12.096 L1296.21 12.096 L1296.21 18.9825 L1274.74 18.9825 L1274.74 72.576 L1266.51 72.576 L1266.51 18.9825 L1245.04 18.9825 L1245.04 12.096 Z" fill="#000000" fill-rule="nonzero" fill-opacity="1" /><path clip-path="url(#clip970)" d="M1304.11 12.096 L1315.12 12.096 L1341.94 62.6918 L1341.94 12.096 L1349.88 12.096 L1349.88 72.576 L1338.86 72.576 L1312.05 21.9802 L1312.05 72.576 L1304.11 72.576 L1304.11 12.096 Z" fill="#000000" fill-rule="nonzero" fill-opacity="1" /><path clip-path="url(#clip970)" d="M1437.83 16.7545 L1437.83 25.383 Q1433.69 21.5346 1429 19.6307 Q1424.34 17.7268 1419.07 17.7268 Q1408.7 17.7268 1403.19 24.0867 Q1397.68 30.4061 1397.68 42.3968 Q1397.68 54.3469 1403.19 60.7069 Q1408.7 67.0263 1419.07 67.0263 Q1424.34 67.0263 1429 65.1223 Q1433.69 63.2184 1437.83 59.3701 L1437.83 67.9175 Q1433.53 70.8341 1428.71 72.2924 Q1423.93 73.7508 1418.58 73.7508 Q1404.85 73.7508 1396.95 65.3654 Q1389.05 56.9395 1389.05 42.3968 Q1389.05 27.8135 1396.95 19.4281 Q1404.85 11.0023 1418.58 11.0023 Q1424.01 11.0023 1428.79 12.4606 Q1433.61 13.8784 1437.83 16.7545 Z" fill="#000000" fill-rule="nonzero" fill-opacity="1" /><path clip-path="url(#clip970)" d="M1467.72 32.4315 Q1461.73 32.4315 1458.24 37.1306 Q1454.76 41.7891 1454.76 49.9314 Q1454.76 58.0738 1458.2 62.7728 Q1461.69 67.4314 1467.72 67.4314 Q1473.68 67.4314 1477.16 62.7323 Q1480.64 58.0333 1480.64 49.9314 Q1480.64 41.8701 1477.16 37.1711 Q1473.68 32.4315 1467.72 32.4315 M1467.72 26.1121 Q1477.44 26.1121 1482.99 32.4315 Q1488.54 38.7509 1488.54 49.9314 Q1488.54 61.0714 1482.99 67.4314 Q1477.44 73.7508 1467.72 73.7508 Q1457.96 73.7508 1452.41 67.4314 Q1446.9 61.0714 1446.9 49.9314 Q1446.9 38.7509 1452.41 32.4315 Q1457.96 26.1121 1467.72 26.1121 Z" fill="#000000" fill-rule="nonzero" fill-opacity="1" /><path clip-path="url(#clip970)" d="M1495.55 27.2059 L1503.45 27.2059 L1517.63 65.2844 L1531.81 27.2059 L1539.71 27.2059 L1522.69 72.576 L1512.57 72.576 L1495.55 27.2059 Z" fill="#000000" fill-rule="nonzero" fill-opacity="1" /><path clip-path="url(#clip970)" d="M1588.8 48.0275 L1588.8 51.6733 L1554.53 51.6733 Q1555.02 59.3701 1559.15 63.421 Q1563.32 67.4314 1570.74 67.4314 Q1575.03 67.4314 1579.04 66.3781 Q1583.09 65.3249 1587.06 63.2184 L1587.06 70.267 Q1583.05 71.9684 1578.84 72.8596 Q1574.63 73.7508 1570.29 73.7508 Q1559.43 73.7508 1553.07 67.4314 Q1546.75 61.1119 1546.75 50.3365 Q1546.75 39.1965 1552.75 32.6746 Q1558.79 26.1121 1568.99 26.1121 Q1578.15 26.1121 1583.46 32.0264 Q1588.8 37.9003 1588.8 48.0275 M1581.35 45.84 Q1581.27 39.7232 1577.91 36.0774 Q1574.58 32.4315 1569.08 32.4315 Q1562.84 32.4315 1559.07 35.9558 Q1555.34 39.4801 1554.78 45.8805 L1581.35 45.84 Z" fill="#000000" fill-rule="nonzero" fill-opacity="1" /><path clip-path="url(#clip970)" d="M1627.33 34.1734 Q1626.07 33.4443 1624.57 33.1202 Q1623.11 32.7556 1621.33 32.7556 Q1615.01 32.7556 1611.61 36.8875 Q1608.25 40.9789 1608.25 48.6757 L1608.25 72.576 L1600.75 72.576 L1600.75 27.2059 L1608.25 27.2059 L1608.25 34.2544 Q1610.6 30.1225 1614.36 28.1376 Q1618.13 26.1121 1623.52 26.1121 Q1624.29 26.1121 1625.22 26.2337 Q1626.15 26.3147 1627.29 26.5172 L1627.33 34.1734 Z" fill="#000000" fill-rule="nonzero" fill-opacity="1" /><path clip-path="url(#clip970)" d="M1655.76 49.7694 Q1646.73 49.7694 1643.25 51.8354 Q1639.76 53.9013 1639.76 58.8839 Q1639.76 62.8538 1642.36 65.2034 Q1644.99 67.5124 1649.49 67.5124 Q1655.68 67.5124 1659.41 63.1374 Q1663.18 58.7219 1663.18 51.4303 L1663.18 49.7694 L1655.76 49.7694 M1670.63 46.6907 L1670.63 72.576 L1663.18 72.576 L1663.18 65.6895 Q1660.63 69.8214 1656.82 71.8063 Q1653.01 73.7508 1647.5 73.7508 Q1640.53 73.7508 1636.4 69.8619 Q1632.31 65.9325 1632.31 59.3701 Q1632.31 51.7138 1637.41 47.825 Q1642.56 43.9361 1652.73 43.9361 L1663.18 43.9361 L1663.18 43.2069 Q1663.18 38.0623 1659.78 35.2672 Q1656.41 32.4315 1650.3 32.4315 Q1646.41 32.4315 1642.72 33.3632 Q1639.03 34.295 1635.63 36.1584 L1635.63 29.2718 Q1639.72 27.692 1643.57 26.9223 Q1647.42 26.1121 1651.07 26.1121 Q1660.91 26.1121 1665.77 31.2163 Q1670.63 36.3204 1670.63 46.6907 Z" fill="#000000" fill-rule="nonzero" fill-opacity="1" /><path clip-path="url(#clip970)" d="M1715.84 49.3643 Q1715.84 41.2625 1712.48 36.8065 Q1709.16 32.3505 1703.12 32.3505 Q1697.12 32.3505 1693.76 36.8065 Q1690.44 41.2625 1690.44 49.3643 Q1690.44 57.4256 1693.76 61.8816 Q1697.12 66.3376 1703.12 66.3376 Q1709.16 66.3376 1712.48 61.8816 Q1715.84 57.4256 1715.84 49.3643 M1723.29 66.9452 Q1723.29 78.5308 1718.15 84.1616 Q1713 89.8329 1702.39 89.8329 Q1698.46 89.8329 1694.98 89.2252 Q1691.49 88.6581 1688.21 87.4428 L1688.21 80.1917 Q1691.49 81.9741 1694.69 82.8248 Q1697.89 83.6755 1701.22 83.6755 Q1708.55 83.6755 1712.19 79.8271 Q1715.84 76.0193 1715.84 68.282 L1715.84 64.5957 Q1713.53 68.6061 1709.93 70.5911 Q1706.32 72.576 1701.3 72.576 Q1692.95 72.576 1687.85 66.2161 Q1682.74 59.8562 1682.74 49.3643 Q1682.74 38.832 1687.85 32.472 Q1692.95 26.1121 1701.3 26.1121 Q1706.32 26.1121 1709.93 28.0971 Q1713.53 30.082 1715.84 34.0924 L1715.84 27.2059 L1723.29 27.2059 L1723.29 66.9452 Z" fill="#000000" fill-rule="nonzero" fill-opacity="1" /><path clip-path="url(#clip970)" d="M1777.45 48.0275 L1777.45 51.6733 L1743.18 51.6733 Q1743.67 59.3701 1747.8 63.421 Q1751.97 67.4314 1759.39 67.4314 Q1763.68 67.4314 1767.69 66.3781 Q1771.74 65.3249 1775.71 63.2184 L1775.71 70.267 Q1771.7 71.9684 1767.49 72.8596 Q1763.28 73.7508 1758.94 73.7508 Q1748.08 73.7508 1741.72 67.4314 Q1735.41 61.1119 1735.41 50.3365 Q1735.41 39.1965 1741.4 32.6746 Q1747.44 26.1121 1757.64 26.1121 Q1766.8 26.1121 1772.11 32.0264 Q1777.45 37.9003 1777.45 48.0275 M1770 45.84 Q1769.92 39.7232 1766.56 36.0774 Q1763.24 32.4315 1757.73 32.4315 Q1751.49 32.4315 1747.72 35.9558 Q1743.99 39.4801 1743.43 45.8805 L1770 45.84 Z" fill="#000000" fill-rule="nonzero" fill-opacity="1" /><path clip-path="url(#clip970)" d="M1833.64 32.4315 Q1827.64 32.4315 1824.16 37.1306 Q1820.68 41.7891 1820.68 49.9314 Q1820.68 58.0738 1824.12 62.7728 Q1827.6 67.4314 1833.64 67.4314 Q1839.59 67.4314 1843.08 62.7323 Q1846.56 58.0333 1846.56 49.9314 Q1846.56 41.8701 1843.08 37.1711 Q1839.59 32.4315 1833.64 32.4315 M1833.64 26.1121 Q1843.36 26.1121 1848.91 32.4315 Q1854.46 38.7509 1854.46 49.9314 Q1854.46 61.0714 1848.91 67.4314 Q1843.36 73.7508 1833.64 73.7508 Q1823.88 73.7508 1818.33 67.4314 Q1812.82 61.0714 1812.82 49.9314 Q1812.82 38.7509 1818.33 32.4315 Q1823.88 26.1121 1833.64 26.1121 Z" fill="#000000" fill-rule="nonzero" fill-opacity="1" /><path clip-path="url(#clip970)" d="M1904.53 45.1919 L1904.53 72.576 L1897.08 72.576 L1897.08 45.4349 Q1897.08 38.994 1894.57 35.7938 Q1892.05 32.5936 1887.03 32.5936 Q1881 32.5936 1877.51 36.4419 Q1874.03 40.2903 1874.03 46.9338 L1874.03 72.576 L1866.53 72.576 L1866.53 27.2059 L1874.03 27.2059 L1874.03 34.2544 Q1876.7 30.163 1880.31 28.1376 Q1883.95 26.1121 1888.69 26.1121 Q1896.51 26.1121 1900.52 30.9732 Q1904.53 35.7938 1904.53 45.1919 Z" fill="#000000" fill-rule="nonzero" fill-opacity="1" /><path clip-path="url(#clip970)" d="M1946.09 12.096 L1984.33 12.096 L1984.33 18.9825 L1954.28 18.9825 L1954.28 36.8875 L1983.08 36.8875 L1983.08 43.7741 L1954.28 43.7741 L1954.28 65.6895 L1985.06 65.6895 L1985.06 72.576 L1946.09 72.576 L1946.09 12.096 Z" fill="#000000" fill-rule="nonzero" fill-opacity="1" /><path clip-path="url(#clip970)" d="M1998.51 12.096 L2006.69 12.096 L2006.69 72.576 L1998.51 72.576 L1998.51 12.096 Z" fill="#000000" fill-rule="nonzero" fill-opacity="1" /><path clip-path="url(#clip970)" d="M2051.66 44.2197 Q2054.29 45.1109 2056.76 48.0275 Q2059.28 50.9442 2061.79 56.0483 L2070.09 72.576 L2061.3 72.576 L2053.56 57.061 Q2050.57 50.9847 2047.73 48.9997 Q2044.94 47.0148 2040.07 47.0148 L2031.16 47.0148 L2031.16 72.576 L2022.98 72.576 L2022.98 12.096 L2041.45 12.096 Q2051.82 12.096 2056.93 16.4305 Q2062.03 20.7649 2062.03 29.5149 Q2062.03 35.2267 2059.36 38.994 Q2056.72 42.7613 2051.66 44.2197 M2031.16 18.8205 L2031.16 40.2903 L2041.45 40.2903 Q2047.37 40.2903 2050.36 37.5762 Q2053.4 34.8216 2053.4 29.5149 Q2053.4 24.2082 2050.36 21.5346 Q2047.37 18.8205 2041.45 18.8205 L2031.16 18.8205 Z" fill="#000000" fill-rule="nonzero" fill-opacity="1" /><polyline clip-path="url(#clip971)" style="stroke:#ff0000; stroke-linecap:round; stroke-linejoin:round; stroke-width:8; stroke-opacity:1; fill:none" points="306.647,1688.65 308.717,1688.22 310.786,1687.21 312.856,1685.94 314.925,1684.61 316.995,1683.34 319.064,1682.21 321.134,1681.25 323.204,1680.47 325.273,1679.86 327.343,1679.4 329.412,1679.06 331.482,1678.83 333.551,1678.68 335.621,1678.57 337.69,1678.5 339.76,1678.44 341.829,1678.37 343.899,1678.28 345.968,1678.16 348.038,1678.01 350.107,1677.81 352.177,1677.56 354.246,1677.25 356.316,1676.88 358.385,1676.46 360.455,1675.97 362.524,1675.42 364.594,1674.8 366.663,1674.12 368.733,1673.38 370.803,1672.57 372.872,1671.69 374.942,1670.74 377.011,1669.72 379.081,1668.62 381.15,1667.45 383.22,1666.2 385.289,1664.86 387.359,1663.43 389.428,1661.91 391.498,1660.28 393.567,1658.56 395.637,1656.72 397.706,1654.77 399.776,1652.69 401.845,1650.48 403.915,1648.11 405.984,1645.58 408.054,1642.88 410.123,1640.01 412.193,1636.96 414.262,1633.71 416.332,1630.27 418.401,1626.61 420.471,1622.71 422.541,1618.56 424.61,1614.12 426.68,1609.37 428.749,1604.31 430.819,1598.91 432.888,1593.19 434.958,1587.11 437.027,1580.67 439.097,1573.84 441.166,1566.59 443.236,1558.89 445.305,1550.71 447.375,1541.99 449.444,1532.75 451.514,1522.96 453.583,1512.59 455.653,1501.62 457.722,1490.02 459.792,1477.78 461.861,1464.87 463.931,1451.28 466,1436.99 468.07,1421.99 470.139,1406.26 472.209,1389.76 474.279,1372.44 476.348,1354.29 478.418,1335.29 480.487,1315.47 482.557,1294.84 484.626,1273.47 486.696,1251.4 488.765,1228.61 490.835,1205.05 492.904,1180.69 494.974,1155.55 497.043,1129.69 499.113,1103.22 501.182,1076.26 503.252,1048.96 505.321,1021.3 507.391,993.236 509.46,964.803 511.53,936.069 513.599,907.133 515.669,878.134 517.738,849.242 519.808,820.556 521.877,792.039 523.947,763.744 526.017,735.739 528.086,708.11 530.156,680.96 532.225,654.407 534.295,628.53 536.364,603.313 538.434,578.796 540.503,555.022 542.573,532.034 544.642,509.876 546.712,488.592 548.781,468.197 550.851,448.676 552.92,430.034 554.99,412.273 557.059,395.39 559.129,379.377 561.198,364.224 563.268,349.905 565.337,336.399 567.407,323.681 569.476,311.725 571.546,300.505 573.616,289.989 575.685,280.146 577.755,270.946 579.824,262.359 581.894,254.355 583.963,246.902 586.033,239.971 588.102,233.529 590.172,227.549 592.241,222.008 594.311,216.881 596.38,212.146 598.45,207.779 600.519,203.755 602.589,200.05 604.658,196.641 606.728,193.518 608.797,190.67 610.867,188.089 612.936,185.76 615.006,183.67 617.075,181.799 619.145,180.13 621.214,178.638 623.284,177.308 625.354,176.158 627.423,175.199 629.493,174.437 631.562,173.872 633.632,173.497 635.701,173.297 637.771,173.254 639.84,173.341 641.91,173.525 643.979,173.753 646.049,174.042 648.118,174.452 650.188,175.033 652.257,175.818 654.327,176.828 656.396,178.068 658.466,179.53 660.535,181.191 662.605,183.015 664.674,184.949 666.744,186.929 668.813,188.876 670.883,190.735 672.952,192.617 675.022,194.609 677.092,196.771 679.161,199.148 681.231,201.767 683.3,204.636 685.37,207.745 687.439,211.067 689.509,214.556 691.578,218.151 693.648,221.769 695.717,225.312 697.787,228.754 699.856,232.274 701.926,235.928 703.995,239.753 706.065,243.77 708.134,247.988 710.204,252.402 712.273,256.992 714.343,261.725 716.412,266.555 718.482,271.421 720.551,276.258 722.621,281.137 724.69,286.119 726.76,291.231 728.83,296.49 730.899,301.904 732.969,307.47 735.038,313.179 737.108,319.011 739.177,324.935 741.247,330.912 743.316,336.899 745.386,342.915 747.455,349.005 749.525,355.199 751.594,361.516 753.664,367.969 755.733,374.56 757.803,381.283 759.872,388.125 761.942,395.062 764.011,402.063 766.081,409.088 768.15,416.089 770.22,423.08 772.289,430.111 774.359,437.219 776.428,444.429 778.498,451.761 780.568,459.222 782.637,466.813 784.707,474.523 786.776,482.333 788.846,490.216 790.915,498.134 792.985,506.041 795.054,513.882 797.124,521.651 799.193,529.425 801.263,537.242 803.332,545.13 805.402,553.107 807.471,561.186 809.541,569.37 811.61,577.654 813.68,586.023 815.749,594.458 817.819,602.926 819.888,611.391 821.958,619.806 824.027,628.117 826.097,636.365 828.167,644.617 830.236,652.894 832.306,661.208 834.375,669.57 836.445,677.984 838.514,686.449 840.584,694.96 842.653,703.506 844.723,712.072 846.792,720.637 848.862,729.176 850.931,737.658 853.001,746.057 855.07,754.435 857.14,762.811 859.209,771.18 861.279,779.538 863.348,787.883 865.418,796.211 867.487,804.519 869.557,812.805 871.626,821.067 873.696,829.302 875.765,837.51 877.835,845.687 879.905,853.834 881.974,861.95 884.044,870.055 886.113,878.146 888.183,886.198 890.252,894.189 892.322,902.105 894.391,909.935 896.461,917.677 898.53,925.332 900.6,932.907 902.669,940.418 904.739,947.881 906.808,955.323 908.878,962.774 910.947,970.234 913.017,977.653 915.086,984.999 917.156,992.248 919.225,999.384 921.295,1006.4 923.364,1013.29 925.434,1020.08 927.503,1026.76 929.573,1033.36 931.643,1039.92 933.712,1046.47 935.782,1053.02 937.851,1059.5 939.921,1065.89 941.99,1072.16 944.06,1078.3 946.129,1084.29 948.199,1090.15 950.268,1095.88 952.338,1101.49 954.407,1107.01 956.477,1112.49 958.546,1117.94 960.616,1123.36 962.685,1128.69 964.755,1133.9 966.824,1138.97 968.894,1143.88 970.963,1148.64 973.033,1153.24 975.102,1157.71 977.172,1162.05 979.241,1166.31 981.311,1170.52 983.381,1174.71 985.45,1178.82 987.52,1182.82 989.589,1186.67 991.659,1190.36 993.728,1193.89 995.798,1197.25 997.867,1200.44 999.937,1203.5 1002.01,1206.45 1004.08,1209.32 1006.15,1212.16 1008.21,1214.94 1010.28,1217.61 1012.35,1220.14 1014.42,1222.51 1016.49,1224.71 1018.56,1226.73 1020.63,1228.59 1022.7,1230.29 1024.77,1231.86 1026.84,1233.34 1028.91,1234.76 1030.98,1236.14 1033.05,1237.42 1035.12,1238.57 1037.19,1239.56 1039.26,1240.38 1041.33,1241.03 1043.4,1241.5 1045.47,1241.82 1047.54,1241.99 1049.61,1242.05 1051.67,1242.03 1053.74,1241.99 1055.81,1241.86 1057.88,1241.62 1059.95,1241.22 1062.02,1240.67 1064.09,1239.94 1066.16,1239.04 1068.23,1237.97 1070.3,1236.76 1072.37,1235.43 1074.44,1234 1076.51,1232.53 1078.58,1231.02 1080.65,1229.41 1082.72,1227.67 1084.79,1225.78 1086.86,1223.73 1088.93,1221.51 1091,1219.12 1093.07,1216.59 1095.13,1213.92 1097.2,1211.14 1099.27,1208.31 1101.34,1205.44 1103.41,1202.52 1105.48,1199.51 1107.55,1196.36 1109.62,1193.08 1111.69,1189.64 1113.76,1186.04 1115.83,1182.29 1117.9,1178.4 1119.97,1174.4 1122.04,1170.31 1124.11,1166.16 1126.18,1162.01 1128.25,1157.8 1130.32,1153.51 1132.39,1149.11 1134.46,1144.58 1136.53,1139.91 1138.59,1135.1 1140.66,1130.16 1142.73,1125.1 1144.8,1119.93 1146.87,1114.69 1148.94,1109.4 1151.01,1104.11 1153.08,1098.79 1155.15,1093.4 1157.22,1087.93 1159.29,1082.35 1161.36,1076.66 1163.43,1070.86 1165.5,1064.95 1167.57,1058.94 1169.64,1052.85 1171.71,1046.69 1173.78,1040.49 1175.85,1034.28 1177.92,1028.07 1179.98,1021.81 1182.05,1015.49 1184.12,1009.09 1186.19,1002.63 1188.26,996.084 1190.33,989.467 1192.4,982.782 1194.47,976.038 1196.54,969.249 1198.61,962.43 1200.68,955.601 1202.75,948.774 1204.82,941.916 1206.89,935.022 1208.96,928.09 1211.03,921.121 1213.1,914.115 1215.17,907.076 1217.24,900.007 1219.31,892.913 1221.38,885.8 1223.44,878.675 1225.51,871.546 1227.58,864.418 1229.65,857.275 1231.72,850.12 1233.79,842.959 1235.86,835.799 1237.93,828.642 1240,821.493 1242.07,814.353 1244.14,807.224 1246.21,800.104 1248.28,792.993 1250.35,785.889 1252.42,778.786 1254.49,771.679 1256.56,764.582 1258.63,757.511 1260.7,750.476 1262.77,743.485 1264.84,736.542 1266.9,729.649 1268.97,722.802 1271.04,715.996 1273.11,709.222 1275.18,702.466 1277.25,695.712 1279.32,688.956 1281.39,682.224 1283.46,675.541 1285.53,668.927 1287.6,662.396 1289.67,655.955 1291.74,649.606 1293.81,643.344 1295.88,637.159 1297.95,631.035 1300.02,624.949 1302.09,618.873 1304.16,612.778 1306.23,606.692 1308.3,600.659 1310.36,594.715 1312.43,588.886 1314.5,583.19 1316.57,577.634 1318.64,572.216 1320.71,566.927 1322.78,561.745 1324.85,556.642 1326.92,551.577 1328.99,546.503 1331.06,541.374 1333.13,536.227 1335.2,531.138 1337.27,526.164 1339.34,521.349 1341.41,516.724 1343.48,512.303 1345.55,508.087 1347.62,504.063 1349.69,500.202 1351.76,496.462 1353.82,492.786 1355.89,489.101 1357.96,485.323 1360.03,481.454 1362.1,477.648 1364.17,473.964 1366.24,470.444 1368.31,467.117 1370.38,463.998 1372.45,461.087 1374.52,458.367 1376.59,455.812 1378.66,453.375 1380.73,450.999 1382.8,448.612 1384.87,446.173 1386.94,443.796 1389.01,441.54 1391.08,439.441 1393.15,437.525 1395.22,435.805 1397.28,434.281 1399.35,432.939 1401.42,431.756 1403.49,430.694 1405.56,429.702 1407.63,428.717 1409.7,427.726 1411.77,426.817 1413.84,426.035 1415.91,425.416 1417.98,424.981 1420.05,424.74 1422.12,424.693 1424.19,424.826 1426.26,425.113 1428.33,425.518 1430.4,425.992 1432.47,426.474 1434.54,426.954 1436.61,427.516 1438.68,428.204 1440.74,429.053 1442.81,430.087 1444.88,431.314 1446.95,432.734 1449.02,434.335 1451.09,436.092 1453.16,437.968 1455.23,439.916 1457.3,441.876 1459.37,443.816 1461.44,445.823 1463.51,447.945 1465.58,450.215 1467.65,452.658 1469.72,455.283 1471.79,458.093 1473.86,461.076 1475.93,464.212 1478,467.469 1480.07,470.802 1482.13,474.157 1484.2,477.486 1486.27,480.862 1488.34,484.335 1490.41,487.938 1492.48,491.69 1494.55,495.605 1496.62,499.684 1498.69,503.921 1500.76,508.297 1502.83,512.787 1504.9,517.354 1506.97,521.953 1509.04,526.533 1511.11,531.134 1513.18,535.811 1515.25,540.592 1517.32,545.496 1519.39,550.536 1521.46,555.714 1523.53,561.028 1525.59,566.464 1527.66,572.004 1529.73,577.619 1531.8,583.275 1533.87,588.927 1535.94,594.561 1538.01,600.239 1540.08,605.989 1542.15,611.828 1544.22,617.77 1546.29,623.82 1548.36,629.979 1550.43,636.241 1552.5,642.594 1554.57,649.02 1556.64,655.494 1558.71,661.987 1560.78,668.462 1562.85,674.915 1564.92,681.4 1566.99,687.933 1569.05,694.527 1571.12,701.188 1573.19,707.921 1575.26,714.726 1577.33,721.6 1579.4,728.535 1581.47,735.518 1583.54,742.535 1585.61,749.567 1587.68,756.589 1589.75,763.578 1591.82,770.569 1593.89,777.586 1595.96,784.628 1598.03,791.694 1600.1,798.782 1602.17,805.889 1604.24,813.012 1606.31,820.151 1608.38,827.3 1610.45,834.458 1612.51,841.621 1614.58,848.786 1616.65,855.948 1618.72,863.104 1620.79,870.252 1622.86,877.426 1624.93,884.617 1627,891.799 1629.07,898.953 1631.14,906.062 1633.21,913.117 1635.28,920.115 1637.35,927.055 1639.42,933.943 1641.49,940.791 1643.56,947.615 1645.63,954.437 1647.7,961.283 1649.77,968.182 1651.84,975.108 1653.91,982.015 1655.97,988.868 1658.04,995.642 1660.11,1002.32 1662.18,1008.89 1664.25,1015.36 1666.32,1021.73 1668.39,1028.03 1670.46,1034.27 1672.53,1040.49 1674.6,1046.74 1676.67,1053.04 1678.74,1059.32 1680.81,1065.54 1682.88,1071.67 1684.95,1077.69 1687.02,1083.59 1689.09,1089.36 1691.16,1095.02 1693.23,1100.58 1695.3,1106.06 1697.37,1111.5 1699.43,1116.94 1701.5,1122.39 1703.57,1127.78 1705.64,1133.08 1707.71,1138.28 1709.78,1143.35 1711.85,1148.28 1713.92,1153.07 1715.99,1157.74 1718.06,1162.31 1720.13,1166.78 1722.2,1171.22 1724.27,1175.64 1726.34,1180.03 1728.41,1184.33 1730.48,1188.52 1732.55,1192.57 1734.62,1196.48 1736.69,1200.24 1738.76,1203.85 1740.82,1207.32 1742.89,1210.69 1744.96,1213.98 1747.03,1217.23 1749.1,1220.46 1751.17,1223.61 1753.24,1226.65 1755.31,1229.56 1757.38,1232.31 1759.45,1234.9 1761.52,1237.33 1763.59,1239.61 1765.66,1241.76 1767.73,1243.8 1769.8,1245.78 1771.87,1247.73 1773.94,1249.63 1776.01,1251.41 1778.08,1253.06 1780.15,1254.56 1782.22,1255.9 1784.28,1257.07 1786.35,1258.08 1788.42,1258.94 1790.49,1259.68 1792.56,1260.34 1794.63,1260.95 1796.7,1261.52 1798.77,1261.99 1800.84,1262.33 1802.91,1262.53 1804.98,1262.56 1807.05,1262.43 1809.12,1262.13 1811.19,1261.68 1813.26,1261.1 1815.33,1260.42 1817.4,1259.67 1819.47,1258.88 1821.54,1258.02 1823.61,1257.05 1825.68,1255.94 1827.74,1254.68 1829.81,1253.25 1831.88,1251.66 1833.95,1249.91 1836.02,1248.02 1838.09,1246.01 1840.16,1243.92 1842.23,1241.79 1844.3,1239.62 1846.37,1237.36 1848.44,1234.99 1850.51,1232.47 1852.58,1229.8 1854.65,1226.97 1856.72,1223.99 1858.79,1220.86 1860.86,1217.6 1862.93,1214.24 1865,1210.82 1867.07,1207.37 1869.14,1203.88 1871.2,1200.3 1873.27,1196.61 1875.34,1192.79 1877.41,1188.83 1879.48,1184.72 1881.55,1180.47 1883.62,1176.09 1885.69,1171.59 1887.76,1167 1889.83,1162.35 1891.9,1157.68 1893.97,1152.99 1896.04,1148.23 1898.11,1143.37 1900.18,1138.4 1902.25,1133.31 1904.32,1128.1 1906.39,1122.76 1908.46,1117.31 1910.53,1111.75 1912.6,1106.12 1914.66,1100.43 1916.73,1094.72 1918.8,1089.01 1920.87,1083.24 1922.94,1077.4 1925.01,1071.48 1927.08,1065.46 1929.15,1059.36 1931.22,1053.15 1933.29,1046.86 1935.36,1040.5 1937.43,1034.07 1939.5,1027.59 1941.57,1021.09 1943.64,1014.59 1945.71,1008.06 1947.78,1001.48 1949.85,994.84 1951.92,988.147 1953.99,981.397 1956.06,974.591 1958.12,967.733 1960.19,960.829 1962.26,953.887 1964.33,946.917 1966.4,939.93 1968.47,932.941 1970.54,925.932 1972.61,918.895 1974.68,911.833 1976.75,904.749 1978.82,897.647 1980.89,890.53 1982.96,883.399 1985.03,876.258 1987.1,869.109 1989.17,861.954 1991.24,854.796 1993.31,847.637 1995.38,840.466 1997.45,833.288 1999.52,826.115 2001.58,818.956 2003.65,811.816 2005.72,804.701 2007.79,797.613 2009.86,790.55 2011.93,783.512 2014,776.491 2016.07,769.482 2018.14,762.475 2020.21,755.462 2022.28,748.459 2024.35,741.487 2026.42,734.561 2028.49,727.694 2030.56,720.891 2032.63,714.155 2034.7,707.484 2036.77,700.869 2038.84,694.3 2040.91,687.76 2042.97,681.228 2045.04,674.686 2047.11,668.155 2049.18,661.671 2051.25,655.26 2053.32,648.942 2055.39,642.729 2057.46,636.627 2059.53,630.633 2061.6,624.737 2063.67,618.922 2065.74,613.165 2067.81,607.433 2069.88,601.688 2071.95,595.917 2074.02,590.172 2076.09,584.504 2078.16,578.95 2080.23,573.537 2082.3,568.283 2084.37,563.191 2086.43,558.257 2088.5,553.462 2090.57,548.78 2092.64,544.171 2094.71,539.585 2096.78,534.961 2098.85,530.254 2100.92,525.535 2102.99,520.887 2105.06,516.376 2107.13,512.05 2109.2,507.942 2111.27,504.067 2113.34,500.423 2115.41,496.992 2117.48,493.74 2119.55,490.613 2121.62,487.544 2123.69,484.446 2125.76,481.217 2127.83,477.881 2129.89,474.632 2131.96,471.523 2134.03,468.59 2136.1,465.856 2138.17,463.331 2140.24,461.008 2142.31,458.868 2144.38,456.877 2146.45,454.986 2148.52,453.134 2150.59,451.254 2152.66,449.417 2154.73,447.692 2156.8,446.113 2158.87,444.703 2160.94,443.474 2163.01,442.428 2165.08,441.556 2167.15,440.837 2169.22,440.242 2171.29,439.728 2173.35,439.243 2175.42,438.778 2177.49,438.399 2179.56,438.147 2181.63,438.055 2183.7,438.143 2185.77,438.419 2187.84,438.884 2189.91,439.523 2191.98,440.314 2194.05,441.221 2196.12,442.199 2198.19,443.191 2200.26,444.176 2202.33,445.232 2204.4,446.408 2206.47,447.741 2208.54,449.255 2210.61,450.963 2212.68,452.866 2214.75,454.954 2216.81,457.205 2218.88,459.583 2220.95,462.042 2223.02,464.525 2225.09,466.971 2227.16,469.446 2229.23,472.018 2231.3,474.724 2233.37,477.591 2235.44,480.636 2237.51,483.863 2239.58,487.265 2241.65,490.827 2243.72,494.52 2245.79,498.305 2247.86,502.132 2249.93,505.94 2252,509.748 2254.07,513.635 2256.14,517.632 2258.21,521.763 2260.27,526.042 2262.34,530.475 2264.41,535.059 2266.48,539.781 2268.55,544.621 2270.62,549.549 2272.69,554.526 2274.76,559.505 2276.83,564.474 2278.9,569.501 2280.97,574.615 2283.04,579.833 2285.11,585.17 2287.18,590.63 2289.25,596.214 2291.32,601.913 2293.39,607.713 2295.46,613.593 2297.53,619.524 2299.6,625.472 2301.66,631.4 2303.73,637.344 2305.8,643.341 2307.87,649.407 2309.94,655.557 2312.01,661.798 2314.08,668.131 2316.15,674.556 2318.22,681.065 2320.29,687.646 2322.36,694.282 2324.43,700.95 2326.5,707.623 2328.57,714.27 2330.64,720.91 2332.71,727.582 2334.78,734.293 2336.85,741.051 2338.92,747.859 2340.99,754.72 2343.06,761.633 2345.12,768.593 2347.19,775.596 2349.26,782.634 2351.33,789.695 2353.4,796.768 2355.47,803.835 2357.54,810.88 2359.61,817.921 2361.68,825.007 2363.75,832.121 2365.82,839.245 2367.89,846.363 2369.96,853.465 2372.03,860.542 2374.1,867.589 2376.17,874.603 2378.24,881.586 2380.31,888.542 2382.38,895.477 2384.45,902.401 2386.52,909.33 2388.58,916.278 2390.65,923.265 2392.72,930.308 2394.79,937.367 2396.86,944.405 2398.93,951.396 2401,958.319 2403.07,965.162 2405.14,971.923 2407.21,978.603 2409.28,985.213 2411.35,991.77 2413.42,998.3 2415.49,1004.84 2417.56,1011.41 2419.63,1018 2421.7,1024.55 2423.77,1031.04 2425.84,1037.44 2427.91,1043.75 2429.98,1049.95 2432.04,1056.05 2434.11,1062.07 2436.18,1068 2438.25,1073.9 2440.32,1079.77 2442.39,1085.67 2444.46,1091.54 2446.53,1097.36 2448.6,1103.08 2450.67,1108.7 2452.74,1114.19 2454.81,1119.56 2456.88,1124.81 2458.95,1129.94 2461.02,1135 2463.09,1139.99 2465.16,1144.96 2467.23,1149.93 2469.3,1154.86 2471.37,1159.7 2473.44,1164.43 2475.5,1169.03 2477.57,1173.48 2479.64,1177.79 2481.71,1181.96 2483.78,1186.01 2485.85,1189.97 2487.92,1193.86 2489.99,1197.74 2492.06,1201.6 2494.13,1205.37 2496.2,1209.04 2498.27,1212.56 2500.34,1215.94 2502.41,1219.16 2504.48,1222.22 2506.55,1225.15 2508.62,1227.95 2510.69,1230.66 2512.76,1233.32 2514.83,1235.96 2516.9,1238.53 2518.96,1241 2521.03,1243.33 2523.1,1245.5 2525.17,1247.52 2527.24,1249.37 2529.31,1251.07 2531.38,1252.62 2533.45,1254.07 2535.52,1255.44 2537.59,1256.77 2539.66,1258.05 2541.73,1259.23 2543.8,1260.28 2545.87,1261.18 2547.94,1261.92 2550.01,1262.49 2552.08,1262.89 2554.15,1263.15 2556.22,1263.29 2558.29,1263.32 2560.36,1263.3 2562.42,1263.23 2564.49,1263.04 2566.56,1262.71 2568.63,1262.25 2570.7,1261.66 2572.77,1260.95 "/>
<polyline clip-path="url(#clip971)" style="stroke:#ffa500; stroke-linecap:round; stroke-linejoin:round; stroke-width:8; stroke-opacity:1; fill:none" points="306.647,1688.65 308.717,1688.33 310.786,1687.57 312.856,1686.62 314.925,1685.62 316.995,1684.67 319.064,1683.83 321.134,1683.11 323.204,1682.53 325.273,1682.09 327.343,1681.76 329.412,1681.53 331.482,1681.38 333.551,1681.3 335.621,1681.27 337.69,1681.27 339.76,1681.29 341.829,1681.32 343.899,1681.34 345.968,1681.34 348.038,1681.33 350.107,1681.3 352.177,1681.24 354.246,1681.14 356.316,1681.02 358.385,1680.86 360.455,1680.66 362.524,1680.43 364.594,1680.17 366.663,1679.87 368.733,1679.53 370.803,1679.16 372.872,1678.75 374.942,1678.31 377.011,1677.83 379.081,1677.32 381.15,1676.77 383.22,1676.18 385.289,1675.56 387.359,1674.89 389.428,1674.18 391.498,1673.43 393.567,1672.64 395.637,1671.8 397.706,1670.91 399.776,1669.97 401.845,1668.98 403.915,1667.93 405.984,1666.81 408.054,1665.63 410.123,1664.37 412.193,1663.04 414.262,1661.64 416.332,1660.16 418.401,1658.6 420.471,1656.95 422.541,1655.21 424.61,1653.36 426.68,1651.39 428.749,1649.29 430.819,1647.06 432.888,1644.71 434.958,1642.22 437.027,1639.59 439.097,1636.83 441.166,1633.9 443.236,1630.81 445.305,1627.54 447.375,1624.05 449.444,1620.34 451.514,1616.41 453.583,1612.25 455.653,1607.86 457.722,1603.24 459.792,1598.37 461.861,1593.24 463.931,1587.82 466,1582.09 468.07,1576.03 470.139,1569.6 472.209,1562.82 474.279,1555.67 476.348,1548.14 478.418,1540.24 480.487,1531.93 482.557,1523.21 484.626,1514.06 486.696,1504.46 488.765,1494.39 490.835,1483.82 492.904,1472.75 494.974,1461.18 497.043,1449.07 499.113,1436.42 501.182,1423.21 503.252,1409.46 505.321,1395.16 507.391,1380.33 509.46,1364.99 511.53,1349.15 513.599,1332.79 515.669,1315.86 517.738,1298.36 519.808,1280.31 521.877,1261.73 523.947,1242.68 526.017,1223.24 528.086,1203.51 530.156,1183.46 532.225,1163.07 534.295,1142.33 536.364,1121.27 538.434,1099.95 540.503,1078.43 542.573,1056.81 544.642,1035.23 546.712,1013.71 548.781,992.21 550.851,970.772 552.92,949.438 554.99,928.268 557.059,907.339 559.129,886.741 561.198,866.566 563.268,846.797 565.337,827.452 567.407,808.563 569.476,790.167 571.546,772.306 573.616,755.026 575.685,738.376 577.755,722.365 579.824,706.983 581.894,692.243 583.963,678.152 586.033,664.719 588.102,651.95 590.172,639.851 592.241,628.419 594.311,617.633 596.38,607.482 598.45,597.955 600.519,589.038 602.589,580.716 604.658,572.971 606.728,565.784 608.797,559.132 610.867,552.996 612.936,547.356 615.006,542.193 617.075,537.485 619.145,533.209 621.214,529.344 623.284,525.864 625.354,522.752 627.423,519.994 629.493,517.574 631.562,515.475 633.632,513.68 635.701,512.168 637.771,510.92 639.84,509.913 641.91,509.138 643.979,508.59 646.049,508.266 648.118,508.159 650.188,508.259 652.257,508.552 654.327,509.024 656.396,509.655 658.466,510.424 660.535,511.308 662.605,512.324 664.674,513.489 666.744,514.814 668.813,516.305 670.883,517.959 672.952,519.768 675.022,521.718 677.092,523.786 679.161,525.946 681.231,528.162 683.3,530.394 685.37,532.652 687.439,534.992 689.509,537.455 691.578,540.072 693.648,542.864 695.717,545.837 697.787,548.989 699.856,552.302 701.926,555.749 703.995,559.291 706.065,562.877 708.134,566.444 710.204,569.919 712.273,573.346 714.343,576.817 716.412,580.386 718.482,584.095 720.551,587.97 722.621,592.026 724.69,596.263 726.76,600.666 728.83,605.21 730.899,609.853 732.969,614.542 735.038,619.207 737.108,623.769 739.177,628.264 741.247,632.81 743.316,637.444 745.386,642.193 747.455,647.075 749.525,652.096 751.594,657.252 753.664,662.529 755.733,667.902 757.803,673.338 759.872,678.79 761.942,684.204 764.011,689.569 766.081,694.97 768.15,700.433 770.22,705.978 772.289,711.616 774.359,717.352 776.428,723.184 778.498,729.103 780.568,735.093 782.637,741.132 784.707,747.189 786.776,753.229 788.846,759.231 790.915,765.245 792.985,771.294 795.054,777.397 797.124,783.566 799.193,789.807 801.263,796.122 803.332,802.506 805.402,808.95 807.471,815.438 809.541,821.95 811.61,828.459 813.68,834.934 815.749,841.352 817.819,847.755 819.888,854.167 821.958,860.605 824.027,867.081 826.097,873.603 828.167,880.175 830.236,886.797 832.306,893.464 834.375,900.166 836.445,906.89 838.514,913.619 840.584,920.33 842.653,926.997 844.723,933.589 846.792,940.132 848.862,946.667 850.931,953.198 853.001,959.731 855.07,966.267 857.14,972.81 859.209,979.358 861.279,985.911 863.348,992.465 865.418,999.017 867.487,1005.56 869.557,1012.09 871.626,1018.6 873.696,1025.07 875.765,1031.5 877.835,1037.87 879.905,1044.24 881.974,1050.6 884.044,1056.93 886.113,1063.23 888.183,1069.47 890.252,1075.64 892.322,1081.75 894.391,1087.79 896.461,1093.77 898.53,1099.69 900.6,1105.56 902.669,1111.41 904.739,1117.25 906.808,1123.11 908.878,1128.98 910.947,1134.83 913.017,1140.61 915.086,1146.32 917.156,1151.95 919.225,1157.47 921.295,1162.9 923.364,1168.24 925.434,1173.5 927.503,1178.7 929.573,1183.86 931.643,1189.02 933.712,1194.17 935.782,1199.29 937.851,1204.33 939.921,1209.29 941.99,1214.14 944.06,1218.89 946.129,1223.53 948.199,1228.07 950.268,1232.52 952.338,1236.89 954.407,1241.22 956.477,1245.54 958.546,1249.83 960.616,1254.06 962.685,1258.2 964.755,1262.24 966.824,1266.16 968.894,1269.97 970.963,1273.65 973.033,1277.22 975.102,1280.69 977.172,1284.09 979.241,1287.45 981.311,1290.79 983.381,1294.08 985.45,1297.3 987.52,1300.41 989.589,1303.4 991.659,1306.27 993.728,1309 995.798,1311.61 997.867,1314.1 999.937,1316.5 1002.01,1318.83 1004.08,1321.12 1006.15,1323.38 1008.21,1325.58 1010.28,1327.68 1012.35,1329.66 1014.42,1331.51 1016.49,1333.23 1018.56,1334.82 1020.63,1336.28 1022.7,1337.63 1024.77,1338.9 1026.84,1340.1 1028.91,1341.28 1030.98,1342.4 1033.05,1343.44 1035.12,1344.37 1037.19,1345.17 1039.26,1345.84 1041.33,1346.37 1043.4,1346.77 1045.47,1347.06 1047.54,1347.24 1049.61,1347.35 1051.67,1347.42 1053.74,1347.46 1055.81,1347.42 1057.88,1347.28 1059.95,1347.03 1062.02,1346.65 1064.09,1346.13 1066.16,1345.49 1068.23,1344.72 1070.3,1343.84 1072.37,1342.88 1074.44,1341.86 1076.51,1340.81 1078.58,1339.71 1080.65,1338.54 1082.72,1337.26 1084.79,1335.86 1086.86,1334.33 1088.93,1332.68 1091,1330.9 1093.07,1329.01 1095.13,1327.02 1097.2,1324.96 1099.27,1322.86 1101.34,1320.74 1103.41,1318.57 1105.48,1316.31 1107.55,1313.96 1109.62,1311.49 1111.69,1308.91 1113.76,1306.2 1115.83,1303.38 1117.9,1300.46 1119.97,1297.45 1122.04,1294.37 1124.11,1291.27 1126.18,1288.15 1128.25,1285 1130.32,1281.77 1132.39,1278.45 1134.46,1275.03 1136.53,1271.51 1138.59,1267.87 1140.66,1264.14 1142.73,1260.31 1144.8,1256.4 1146.87,1252.44 1148.94,1248.44 1151.01,1244.45 1153.08,1240.43 1155.15,1236.36 1157.22,1232.21 1159.29,1227.99 1161.36,1223.68 1163.43,1219.28 1165.5,1214.8 1167.57,1210.24 1169.64,1205.61 1171.71,1200.93 1173.78,1196.21 1175.85,1191.49 1177.92,1186.77 1179.98,1182.02 1182.05,1177.22 1184.12,1172.36 1186.19,1167.44 1188.26,1162.47 1190.33,1157.43 1192.4,1152.34 1194.47,1147.2 1196.54,1142.02 1198.61,1136.81 1200.68,1131.59 1202.75,1126.38 1204.82,1121.15 1206.89,1115.89 1208.96,1110.6 1211.03,1105.28 1213.1,1099.93 1215.17,1094.56 1217.24,1089.16 1219.31,1083.74 1221.38,1078.29 1223.44,1072.84 1225.51,1067.38 1227.58,1061.92 1229.65,1056.45 1231.72,1050.98 1233.79,1045.49 1235.86,1040 1237.93,1034.51 1240,1029.03 1242.07,1023.56 1244.14,1018.09 1246.21,1012.63 1248.28,1007.19 1250.35,1001.74 1252.42,996.305 1254.49,990.866 1256.56,985.421 1258.63,979.984 1260.7,974.567 1262.77,969.18 1264.84,963.831 1266.9,958.522 1268.97,953.255 1271.04,948.028 1273.11,942.836 1275.18,937.671 1277.25,932.521 1279.32,927.374 1281.39,922.217 1283.46,917.069 1285.53,911.954 1287.6,906.891 1289.67,901.893 1291.74,896.97 1293.81,892.125 1295.88,887.356 1297.95,882.656 1300.02,878.014 1302.09,873.411 1304.16,868.826 1306.23,864.23 1308.3,859.611 1310.36,855.006 1312.43,850.453 1314.5,845.981 1316.57,841.611 1318.64,837.357 1320.71,833.223 1322.78,829.206 1324.85,825.295 1326.92,821.469 1328.99,817.702 1331.06,813.958 1333.13,810.191 1335.2,806.362 1337.27,802.508 1339.34,798.694 1341.41,794.972 1343.48,791.381 1345.55,787.949 1347.62,784.689 1349.69,781.603 1351.76,778.681 1353.82,775.9 1355.89,773.224 1357.96,770.605 1360.03,767.984 1362.1,765.286 1364.17,762.46 1366.24,759.614 1368.31,756.831 1370.38,754.169 1372.45,751.671 1374.52,749.367 1376.59,747.267 1378.66,745.371 1380.73,743.658 1382.8,742.096 1384.87,740.636 1386.94,739.212 1389.01,737.746 1391.08,736.145 1393.15,734.499 1395.22,732.928 1397.28,731.477 1399.35,730.179 1401.42,729.052 1403.49,728.104 1405.56,727.328 1407.63,726.707 1409.7,726.21 1411.77,725.792 1413.84,725.398 1415.91,724.961 1417.98,724.527 1420.05,724.175 1422.12,723.934 1424.19,723.827 1426.26,723.867 1428.33,724.058 1430.4,724.393 1432.47,724.859 1434.54,725.431 1436.61,726.079 1438.68,726.759 1440.74,727.433 1442.81,728.147 1444.88,728.945 1446.95,729.853 1449.02,730.892 1451.09,732.074 1453.16,733.401 1455.23,734.868 1457.3,736.462 1459.37,738.159 1461.44,739.93 1463.51,741.734 1465.58,743.527 1467.65,745.329 1469.72,747.194 1471.79,749.155 1473.86,751.237 1475.93,753.457 1478,755.821 1480.07,758.329 1482.13,760.969 1484.2,763.724 1486.27,766.566 1488.34,769.459 1490.41,772.357 1492.48,775.216 1494.55,778.088 1496.62,781.025 1498.69,784.054 1500.76,787.198 1502.83,790.469 1504.9,793.871 1506.97,797.403 1509.04,801.052 1511.11,804.799 1513.18,808.616 1515.25,812.469 1517.32,816.313 1519.39,820.115 1521.46,823.939 1523.53,827.822 1525.59,831.786 1527.66,835.846 1529.73,840.009 1531.8,844.279 1533.87,848.652 1535.94,853.115 1538.01,857.654 1540.08,862.243 1542.15,866.854 1544.22,871.45 1546.29,876.016 1548.36,880.609 1550.43,885.248 1552.5,889.949 1554.57,894.721 1556.64,899.567 1558.71,904.49 1560.78,909.485 1562.85,914.544 1564.92,919.655 1566.99,924.8 1569.05,929.959 1571.12,935.105 1573.19,940.224 1575.26,945.357 1577.33,950.517 1579.4,955.713 1581.47,960.947 1583.54,966.224 1585.61,971.543 1587.68,976.902 1589.75,982.298 1591.82,987.723 1593.89,993.171 1595.96,998.631 1598.03,1004.09 1600.1,1009.53 1602.17,1014.96 1604.24,1020.41 1606.31,1025.88 1608.38,1031.36 1610.45,1036.85 1612.51,1042.32 1614.58,1047.79 1616.65,1053.24 1618.72,1058.68 1620.79,1064.1 1622.86,1069.51 1624.93,1074.9 1627,1080.29 1629.07,1085.68 1631.14,1091.08 1633.21,1096.5 1635.28,1101.94 1637.35,1107.39 1639.42,1112.83 1641.49,1118.24 1643.56,1123.6 1645.63,1128.9 1647.7,1134.13 1649.77,1139.31 1651.84,1144.43 1653.91,1149.51 1655.97,1154.56 1658.04,1159.61 1660.11,1164.69 1662.18,1169.8 1664.25,1174.91 1666.32,1179.98 1668.39,1184.99 1670.46,1189.92 1672.53,1194.78 1674.6,1199.54 1676.67,1204.23 1678.74,1208.85 1680.81,1213.41 1682.88,1217.95 1684.95,1222.48 1687.02,1227.04 1689.09,1231.59 1691.16,1236.08 1693.23,1240.51 1695.3,1244.85 1697.37,1249.1 1699.43,1253.24 1701.5,1257.29 1703.57,1261.25 1705.64,1265.15 1707.71,1269 1709.78,1272.83 1711.85,1276.67 1713.92,1280.48 1715.99,1284.22 1718.06,1287.88 1720.13,1291.43 1722.2,1294.88 1724.27,1298.22 1726.34,1301.45 1728.41,1304.58 1730.48,1307.64 1732.55,1310.65 1734.62,1313.64 1736.69,1316.62 1738.76,1319.54 1740.82,1322.38 1742.89,1325.12 1744.96,1327.74 1747.03,1330.25 1749.1,1332.64 1751.17,1334.91 1753.24,1337.09 1755.31,1339.19 1757.38,1341.25 1759.45,1343.29 1761.52,1345.29 1763.59,1347.21 1765.66,1349.04 1767.73,1350.75 1769.8,1352.34 1771.87,1353.8 1773.94,1355.14 1776.01,1356.37 1778.08,1357.51 1780.15,1358.58 1782.22,1359.61 1784.28,1360.62 1786.35,1361.56 1788.42,1362.41 1790.49,1363.15 1792.56,1363.77 1794.63,1364.26 1796.7,1364.62 1798.77,1364.87 1800.84,1365.01 1802.91,1365.07 1804.98,1365.08 1807.05,1365.05 1809.12,1364.98 1811.19,1364.83 1813.26,1364.57 1815.33,1364.2 1817.4,1363.7 1819.47,1363.08 1821.54,1362.33 1823.61,1361.48 1825.68,1360.53 1827.74,1359.51 1829.81,1358.45 1831.88,1357.36 1833.95,1356.21 1836.02,1354.97 1838.09,1353.62 1840.16,1352.16 1842.23,1350.57 1844.3,1348.86 1846.37,1347.03 1848.44,1345.11 1850.51,1343.1 1852.58,1341.03 1854.65,1338.93 1856.72,1336.81 1858.79,1334.62 1860.86,1332.34 1862.93,1329.96 1865,1327.47 1867.07,1324.85 1869.14,1322.13 1871.2,1319.3 1873.27,1316.37 1875.34,1313.37 1877.41,1310.32 1879.48,1307.25 1881.55,1304.15 1883.62,1301 1885.69,1297.77 1887.76,1294.45 1889.83,1291.03 1891.9,1287.5 1893.97,1283.87 1896.04,1280.14 1898.11,1276.33 1900.18,1272.45 1902.25,1268.51 1904.32,1264.56 1906.39,1260.6 1908.46,1256.6 1910.53,1252.54 1912.6,1248.41 1914.66,1244.19 1916.73,1239.89 1918.8,1235.51 1920.87,1231.04 1922.94,1226.49 1925.01,1221.89 1927.08,1217.24 1929.15,1212.56 1931.22,1207.88 1933.29,1203.18 1935.36,1198.44 1937.43,1193.65 1939.5,1188.8 1941.57,1183.9 1943.64,1178.93 1945.71,1173.91 1947.78,1168.83 1949.85,1163.71 1951.92,1158.55 1953.99,1153.36 1956.06,1148.17 1958.12,1142.97 1960.19,1137.75 1962.26,1132.49 1964.33,1127.21 1966.4,1121.89 1968.47,1116.55 1970.54,1111.18 1972.61,1105.78 1974.68,1100.37 1976.75,1094.93 1978.82,1089.49 1980.89,1084.03 1982.96,1078.57 1985.03,1073.1 1987.1,1067.62 1989.17,1062.12 1991.24,1056.63 1993.31,1051.14 1995.38,1045.65 1997.45,1040.17 1999.52,1034.7 2001.58,1029.23 2003.65,1023.77 2005.72,1018.32 2007.79,1012.86 2009.86,1007.4 2011.93,1001.93 2014,996.472 2016.07,991.038 2018.14,985.636 2020.21,980.272 2022.28,974.947 2024.35,969.663 2026.42,964.415 2028.49,959.196 2030.56,953.999 2032.63,948.809 2034.7,943.613 2036.77,938.41 2038.84,933.226 2040.91,928.083 2042.97,922.996 2045.04,917.977 2047.11,913.033 2049.18,908.163 2051.25,903.364 2053.32,898.627 2055.39,893.937 2057.46,889.275 2059.53,884.616 2061.6,879.934 2063.67,875.247 2065.74,870.595 2067.81,866.01 2069.88,861.514 2071.95,857.125 2074.02,852.851 2076.09,848.691 2078.16,844.638 2080.23,840.677 2082.3,836.784 2084.37,832.928 2086.43,829.071 2088.5,825.166 2090.57,821.218 2092.64,817.292 2094.71,813.439 2096.78,809.7 2098.85,806.106 2100.92,802.673 2102.99,799.407 2105.06,796.302 2107.13,793.34 2109.2,790.491 2111.27,787.714 2113.34,784.954 2115.41,782.147 2117.48,779.224 2119.55,776.249 2121.62,773.315 2123.69,770.483 2125.76,767.802 2127.83,765.304 2129.89,763.007 2131.96,760.912 2134.03,759.008 2136.1,757.266 2138.17,755.643 2140.24,754.081 2142.31,752.506 2144.38,750.83 2146.45,749.031 2148.52,747.275 2150.59,745.619 2152.66,744.105 2154.73,742.757 2156.8,741.59 2158.87,740.604 2160.94,739.787 2163.01,739.112 2165.08,738.542 2167.15,738.024 2169.22,737.494 2171.29,736.904 2173.35,736.36 2175.42,735.913 2177.49,735.589 2179.56,735.406 2181.63,735.375 2183.7,735.495 2185.77,735.757 2187.84,736.141 2189.91,736.62 2191.98,737.156 2194.05,737.704 2196.12,738.253 2198.19,738.865 2200.26,739.574 2202.33,740.404 2204.4,741.37 2206.47,742.479 2208.54,743.732 2210.61,745.119 2212.68,746.622 2214.75,748.217 2216.81,749.867 2218.88,751.532 2220.95,753.184 2223.02,754.879 2225.09,756.654 2227.16,758.54 2229.23,760.554 2231.3,762.71 2233.37,765.01 2235.44,767.447 2237.51,770.009 2239.58,772.671 2241.65,775.403 2243.72,778.166 2245.79,780.911 2247.86,783.633 2249.93,786.404 2252,789.255 2254.07,792.211 2256.14,795.29 2258.21,798.499 2260.27,801.84 2262.34,805.305 2264.41,808.88 2266.48,812.54 2268.55,816.255 2270.62,819.985 2272.69,823.683 2274.76,827.366 2276.83,831.095 2278.9,834.895 2280.97,838.785 2283.04,842.778 2285.11,846.877 2287.18,851.083 2289.25,855.389 2291.32,859.779 2293.39,864.236 2295.46,868.731 2297.53,873.232 2299.6,877.701 2301.66,882.169 2303.73,886.676 2305.8,891.239 2307.87,895.869 2309.94,900.574 2312.01,905.356 2314.08,910.215 2316.15,915.143 2318.22,920.132 2320.29,925.167 2322.36,930.228 2324.43,935.291 2326.5,940.331 2328.57,945.363 2330.64,950.42 2332.71,955.51 2334.78,960.639 2336.85,965.81 2338.92,971.024 2340.99,976.282 2343.06,981.579 2345.12,986.912 2347.19,992.272 2349.26,997.65 2351.33,1003.03 2353.4,1008.41 2355.47,1013.77 2357.54,1019.14 2359.61,1024.53 2361.68,1029.94 2363.75,1035.35 2365.82,1040.77 2367.89,1046.18 2369.96,1051.58 2372.03,1056.96 2374.1,1062.34 2376.17,1067.7 2378.24,1073.05 2380.31,1078.39 2382.38,1083.73 2384.45,1089.08 2386.52,1094.45 2388.58,1099.83 2390.65,1105.24 2392.72,1110.65 2394.79,1116.02 2396.86,1121.36 2398.93,1126.64 2401,1131.86 2403.07,1137.03 2405.14,1142.13 2407.21,1147.2 2409.28,1152.23 2411.35,1157.25 2413.42,1162.29 2415.49,1167.36 2417.56,1172.46 2419.63,1177.52 2421.7,1182.54 2423.77,1187.49 2425.84,1192.36 2427.91,1197.15 2429.98,1201.86 2432.04,1206.49 2434.11,1211.06 2436.18,1215.59 2438.25,1220.11 2440.32,1224.65 2442.39,1229.2 2444.46,1233.72 2446.53,1238.18 2448.6,1242.56 2450.67,1246.84 2452.74,1251.03 2454.81,1255.13 2456.88,1259.13 2458.95,1263.06 2461.02,1266.93 2463.09,1270.77 2465.16,1274.61 2467.23,1278.44 2469.3,1282.23 2471.37,1285.94 2473.44,1289.55 2475.5,1293.07 2477.57,1296.47 2479.64,1299.76 2481.71,1302.95 2483.78,1306.06 2485.85,1309.11 2487.92,1312.12 2489.99,1315.12 2492.06,1318.1 2494.13,1321 2496.2,1323.81 2498.27,1326.51 2500.34,1329.1 2502.41,1331.57 2504.48,1333.92 2506.55,1336.17 2508.62,1338.33 2510.69,1340.43 2512.76,1342.5 2514.83,1344.56 2516.9,1346.55 2518.96,1348.45 2521.03,1350.25 2523.1,1351.93 2525.17,1353.49 2527.24,1354.92 2529.31,1356.24 2531.38,1357.45 2533.45,1358.58 2535.52,1359.67 2537.59,1360.72 2539.66,1361.74 2541.73,1362.67 2543.8,1363.5 2545.87,1364.22 2547.94,1364.81 2550.01,1365.27 2552.08,1365.61 2554.15,1365.84 2556.22,1365.97 2558.29,1366.04 2560.36,1366.07 2562.42,1366.05 2564.49,1365.94 2566.56,1365.72 2568.63,1365.41 2570.7,1365 2572.77,1364.5 "/>
<polyline clip-path="url(#clip971)" style="stroke:#008000; stroke-linecap:round; stroke-linejoin:round; stroke-width:8; stroke-opacity:1; fill:none" points="306.647,1688.65 308.717,1688.4 310.786,1687.79 312.856,1687.03 314.925,1686.23 316.995,1685.47 319.064,1684.79 321.134,1684.22 323.204,1683.77 325.273,1683.41 327.343,1683.16 329.412,1682.99 331.482,1682.88 333.551,1682.84 335.621,1682.84 337.69,1682.86 339.76,1682.91 341.829,1682.96 343.899,1683.02 345.968,1683.07 348.038,1683.11 350.107,1683.14 352.177,1683.15 354.246,1683.14 356.316,1683.11 358.385,1683.05 360.455,1682.98 362.524,1682.88 364.594,1682.75 366.663,1682.6 368.733,1682.43 370.803,1682.24 372.872,1682.03 374.942,1681.79 377.011,1681.53 379.081,1681.25 381.15,1680.95 383.22,1680.62 385.289,1680.28 387.359,1679.91 389.428,1679.52 391.498,1679.11 393.567,1678.67 395.637,1678.21 397.706,1677.73 399.776,1677.22 401.845,1676.68 403.915,1676.11 405.984,1675.52 408.054,1674.89 410.123,1674.22 412.193,1673.51 414.262,1672.77 416.332,1672 418.401,1671.18 420.471,1670.33 422.541,1669.43 424.61,1668.48 426.68,1667.48 428.749,1666.42 430.819,1665.29 432.888,1664.1 434.958,1662.85 437.027,1661.53 439.097,1660.16 441.166,1658.71 443.236,1657.19 445.305,1655.58 447.375,1653.88 449.444,1652.08 451.514,1650.17 453.583,1648.16 455.653,1646.03 457.722,1643.81 459.792,1641.47 461.861,1639.01 463.931,1636.43 466,1633.71 468.07,1630.84 470.139,1627.8 472.209,1624.58 474.279,1621.18 476.348,1617.6 478.418,1613.86 480.487,1609.93 482.557,1605.81 484.626,1601.49 486.696,1596.94 488.765,1592.16 490.835,1587.12 492.904,1581.8 494.974,1576.21 497.043,1570.35 499.113,1564.21 501.182,1557.79 503.252,1551.08 505.321,1544.07 507.391,1536.75 509.46,1529.1 511.53,1521.09 513.599,1512.71 515.669,1503.98 517.738,1494.87 519.808,1485.38 521.877,1475.5 523.947,1465.23 526.017,1454.55 528.086,1443.48 530.156,1432.01 532.225,1420.18 534.295,1407.98 536.364,1395.44 538.434,1382.52 540.503,1369.21 542.573,1355.49 544.642,1341.35 546.712,1326.82 548.781,1311.94 550.851,1296.75 552.92,1281.32 554.99,1265.72 557.059,1249.91 559.129,1233.87 561.198,1217.58 563.268,1201.08 565.337,1184.4 567.407,1167.6 569.476,1150.74 571.546,1133.92 573.616,1117.18 575.685,1100.5 577.755,1083.87 579.824,1067.32 581.894,1050.89 583.963,1034.63 586.033,1018.6 588.102,1002.88 590.172,987.503 592.241,972.449 594.311,957.736 596.38,943.387 598.45,929.427 600.519,915.888 602.589,902.804 604.658,890.214 606.728,878.129 608.797,866.534 610.867,855.437 612.936,844.844 615.006,834.762 617.075,825.197 619.145,816.153 621.214,807.637 623.284,799.639 625.354,792.143 627.423,785.143 629.493,778.63 631.562,772.594 633.632,767.026 635.701,761.912 637.771,757.239 639.84,752.99 641.91,749.149 643.979,745.703 646.049,742.64 648.118,739.945 650.188,737.601 652.257,735.593 654.327,733.902 656.396,732.507 658.466,731.395 660.535,730.559 662.605,729.989 664.674,729.675 666.744,729.606 668.813,729.766 670.883,730.142 672.952,730.714 675.022,731.463 677.092,732.376 679.161,733.456 681.231,734.706 683.3,736.127 685.37,737.715 687.439,739.462 689.509,741.358 691.578,743.388 693.648,745.534 695.717,747.773 697.787,750.079 699.856,752.447 701.926,754.905 703.995,757.477 706.065,760.179 708.134,763.018 710.204,765.996 712.273,769.106 714.343,772.336 716.412,775.664 718.482,779.062 720.551,782.496 722.621,785.923 724.69,789.314 726.76,792.713 728.83,796.167 730.899,799.712 732.969,803.372 735.038,807.165 737.108,811.096 739.177,815.16 741.247,819.346 743.316,823.629 745.386,827.975 747.455,832.343 749.525,836.68 751.594,840.923 753.664,845.109 755.733,849.318 757.803,853.587 759.872,857.945 761.942,862.41 764.011,866.991 766.081,871.689 768.15,876.494 770.22,881.388 772.289,886.343 774.359,891.322 776.428,896.279 778.498,901.157 780.568,905.968 782.637,910.796 784.707,915.668 786.776,920.601 788.846,925.608 790.915,930.692 792.985,935.854 795.054,941.086 797.124,946.374 799.193,951.698 801.263,957.031 803.332,962.341 805.402,967.591 807.471,972.822 809.541,978.066 811.61,983.337 813.68,988.645 815.749,993.997 817.819,999.394 819.888,1004.83 821.958,1010.31 824.027,1015.82 826.097,1021.34 828.167,1026.86 830.236,1032.35 832.306,1037.8 834.375,1043.22 836.445,1048.64 838.514,1054.06 840.584,1059.5 842.653,1064.94 844.723,1070.41 846.792,1075.88 848.862,1081.38 850.931,1086.88 853.001,1092.38 855.07,1097.88 857.14,1103.37 859.209,1108.82 861.279,1114.24 863.348,1119.63 865.418,1125.01 867.487,1130.39 869.557,1135.75 871.626,1141.09 873.696,1146.4 875.765,1151.68 877.835,1156.92 879.905,1162.13 881.974,1167.3 884.044,1172.43 886.113,1177.54 888.183,1182.62 890.252,1187.69 892.322,1192.75 894.391,1197.82 896.461,1202.88 898.53,1207.92 900.6,1212.92 902.669,1217.86 904.739,1222.74 906.808,1227.54 908.878,1232.28 910.947,1236.94 913.017,1241.56 915.086,1246.13 917.156,1250.67 919.225,1255.21 921.295,1259.76 923.364,1264.29 925.434,1268.76 927.503,1273.17 929.573,1277.51 931.643,1281.76 933.712,1285.92 935.782,1290.01 937.851,1294.02 939.921,1297.97 941.99,1301.88 944.06,1305.77 946.129,1309.67 948.199,1313.53 950.268,1317.33 952.338,1321.06 954.407,1324.7 956.477,1328.25 958.546,1331.7 960.616,1335.05 962.685,1338.33 964.755,1341.53 966.824,1344.69 968.894,1347.82 970.963,1350.95 973.033,1354.02 975.102,1357.03 977.172,1359.96 979.241,1362.78 981.311,1365.5 983.381,1368.12 985.45,1370.64 987.52,1373.08 989.589,1375.44 991.659,1377.75 993.728,1380.04 995.798,1382.3 997.867,1384.51 999.937,1386.63 1002.01,1388.66 1004.08,1390.58 1006.15,1392.4 1008.21,1394.11 1010.28,1395.72 1012.35,1397.24 1014.42,1398.69 1016.49,1400.1 1018.56,1401.5 1020.63,1402.84 1022.7,1404.12 1024.77,1405.3 1026.84,1406.38 1028.91,1407.35 1030.98,1408.21 1033.05,1408.97 1035.12,1409.63 1037.19,1410.22 1039.26,1410.74 1041.33,1411.23 1043.4,1411.69 1045.47,1412.1 1047.54,1412.41 1049.61,1412.64 1051.67,1412.75 1053.74,1412.76 1055.81,1412.66 1057.88,1412.46 1059.95,1412.18 1062.02,1411.82 1064.09,1411.42 1066.16,1411 1068.23,1410.53 1070.3,1410 1072.37,1409.37 1074.44,1408.65 1076.51,1407.83 1078.58,1406.89 1080.65,1405.86 1082.72,1404.73 1084.79,1403.53 1086.86,1402.27 1088.93,1400.98 1091,1399.67 1093.07,1398.3 1095.13,1396.87 1097.2,1395.35 1099.27,1393.74 1101.34,1392.02 1103.41,1390.21 1105.48,1388.3 1107.55,1386.31 1109.62,1384.24 1111.69,1382.13 1113.76,1380 1115.83,1377.85 1117.9,1375.66 1119.97,1373.4 1122.04,1371.06 1124.11,1368.63 1126.18,1366.12 1128.25,1363.51 1130.32,1360.81 1132.39,1358.04 1134.46,1355.2 1136.53,1352.32 1138.59,1349.42 1140.66,1346.51 1142.73,1343.57 1144.8,1340.58 1146.87,1337.53 1148.94,1334.4 1151.01,1331.19 1153.08,1327.91 1155.15,1324.54 1157.22,1321.11 1159.29,1317.62 1161.36,1314.08 1163.43,1310.52 1165.5,1306.96 1167.57,1303.39 1169.64,1299.79 1171.71,1296.14 1173.78,1292.43 1175.85,1288.67 1177.92,1284.84 1179.98,1280.96 1182.05,1277.02 1184.12,1273.03 1186.19,1269 1188.26,1264.95 1190.33,1260.89 1192.4,1256.83 1194.47,1252.75 1196.54,1248.65 1198.61,1244.51 1200.68,1240.34 1202.75,1236.13 1204.82,1231.89 1206.89,1227.62 1208.96,1223.31 1211.03,1218.98 1213.1,1214.63 1215.17,1210.27 1217.24,1205.9 1219.31,1201.54 1221.38,1197.16 1223.44,1192.77 1225.51,1188.36 1227.58,1183.94 1229.65,1179.52 1231.72,1175.09 1233.79,1170.65 1235.86,1166.21 1237.93,1161.77 1240,1157.33 1242.07,1152.88 1244.14,1148.44 1246.21,1143.99 1248.28,1139.54 1250.35,1135.09 1252.42,1130.66 1254.49,1126.24 1256.56,1121.84 1258.63,1117.47 1260.7,1113.12 1262.77,1108.79 1264.84,1104.48 1266.9,1100.19 1268.97,1095.89 1271.04,1091.6 1273.11,1087.29 1275.18,1083 1277.25,1078.74 1279.32,1074.51 1281.39,1070.34 1283.46,1066.22 1285.53,1062.15 1287.6,1058.13 1289.67,1054.16 1291.74,1050.22 1293.81,1046.3 1295.88,1042.39 1297.95,1038.45 1300.02,1034.52 1302.09,1030.6 1304.16,1026.74 1306.23,1022.94 1308.3,1019.22 1310.36,1015.58 1312.43,1012.04 1314.5,1008.57 1316.57,1005.18 1318.64,1001.84 1320.71,998.53 1322.78,995.226 1324.85,991.891 1326.92,988.519 1328.99,985.158 1331.06,981.848 1333.13,978.624 1335.2,975.509 1337.27,972.516 1339.34,969.653 1341.41,966.915 1343.48,964.29 1345.55,961.757 1347.62,959.285 1349.69,956.835 1351.76,954.358 1353.82,951.8 1355.89,949.183 1357.96,946.583 1360.03,944.056 1362.1,941.642 1364.17,939.372 1366.24,937.263 1368.31,935.32 1370.38,933.537 1372.45,931.894 1374.52,930.36 1376.59,928.892 1378.66,927.433 1380.73,925.916 1382.8,924.272 1384.87,922.601 1386.94,920.986 1389.01,919.472 1391.08,918.088 1393.15,916.856 1395.22,915.781 1397.28,914.862 1399.35,914.082 1401.42,913.415 1403.49,912.821 1405.56,912.252 1407.63,911.644 1409.7,910.971 1411.77,910.339 1413.84,909.788 1415.91,909.344 1417.98,909.023 1420.05,908.833 1422.12,908.775 1424.19,908.838 1426.26,909.007 1428.33,909.255 1430.4,909.548 1432.47,909.843 1434.54,910.124 1436.61,910.451 1438.68,910.855 1440.74,911.358 1442.81,911.974 1444.88,912.711 1446.95,913.57 1449.02,914.543 1451.09,915.616 1453.16,916.768 1455.23,917.97 1457.3,919.187 1459.37,920.387 1461.44,921.613 1463.51,922.901 1465.58,924.277 1467.65,925.759 1469.72,927.358 1471.79,929.078 1473.86,930.914 1475.93,932.858 1478,934.889 1480.07,936.984 1482.13,939.11 1484.2,941.227 1486.27,943.315 1488.34,945.432 1490.41,947.61 1492.48,949.873 1494.55,952.237 1496.62,954.712 1498.69,957.299 1500.76,959.994 1502.83,962.787 1504.9,965.658 1506.97,968.582 1509.04,971.528 1511.11,974.455 1513.18,977.347 1515.25,980.265 1517.32,983.238 1519.39,986.282 1521.46,989.412 1523.53,992.635 1525.59,995.952 1527.66,999.359 1529.73,1002.85 1531.8,1006.4 1533.87,1009.99 1535.94,1013.6 1538.01,1017.19 1540.08,1020.75 1542.15,1024.33 1544.22,1027.95 1546.29,1031.63 1548.36,1035.38 1550.43,1039.19 1552.5,1043.07 1554.57,1047.02 1556.64,1051.03 1558.71,1055.08 1560.78,1059.17 1562.85,1063.27 1564.92,1067.35 1566.99,1071.41 1569.05,1075.48 1571.12,1079.57 1573.19,1083.7 1575.26,1087.86 1577.33,1092.07 1579.4,1096.32 1581.47,1100.61 1583.54,1104.94 1585.61,1109.3 1587.68,1113.68 1589.75,1118.07 1591.82,1122.46 1593.89,1126.83 1595.96,1131.18 1598.03,1135.55 1600.1,1139.94 1602.17,1144.33 1604.24,1148.74 1606.31,1153.15 1608.38,1157.57 1610.45,1161.99 1612.51,1166.42 1614.58,1170.85 1616.65,1175.27 1618.72,1179.7 1620.79,1184.13 1622.86,1188.55 1624.93,1192.97 1627,1197.39 1629.07,1201.83 1631.14,1206.28 1633.21,1210.7 1635.28,1215.1 1637.35,1219.47 1639.42,1223.79 1641.49,1228.07 1643.56,1232.3 1645.63,1236.5 1647.7,1240.67 1649.77,1244.83 1651.84,1248.99 1653.91,1253.18 1655.97,1257.41 1658.04,1261.64 1660.11,1265.86 1662.18,1270.04 1664.25,1274.16 1666.32,1278.21 1668.39,1282.19 1670.46,1286.1 1672.53,1289.94 1674.6,1293.72 1676.67,1297.47 1678.74,1301.21 1680.81,1304.97 1682.88,1308.77 1684.95,1312.56 1687.02,1316.31 1689.09,1319.99 1691.16,1323.61 1693.23,1327.15 1695.3,1330.61 1697.37,1333.98 1699.43,1337.29 1701.5,1340.55 1703.57,1343.77 1705.64,1346.98 1707.71,1350.21 1709.78,1353.41 1711.85,1356.55 1713.92,1359.63 1715.99,1362.63 1718.06,1365.55 1720.13,1368.37 1722.2,1371.12 1724.27,1373.78 1726.34,1376.39 1728.41,1378.96 1730.48,1381.52 1732.55,1384.06 1734.62,1386.56 1736.69,1389 1738.76,1391.36 1740.82,1393.62 1742.89,1395.79 1744.96,1397.87 1747.03,1399.85 1749.1,1401.76 1751.17,1403.61 1753.24,1405.42 1755.31,1407.22 1757.38,1408.99 1759.45,1410.7 1761.52,1412.34 1763.59,1413.88 1765.66,1415.32 1767.73,1416.67 1769.8,1417.91 1771.87,1419.07 1773.94,1420.15 1776.01,1421.17 1778.08,1422.17 1780.15,1423.14 1782.22,1424.07 1784.28,1424.92 1786.35,1425.69 1788.42,1426.36 1790.49,1426.93 1792.56,1427.39 1794.63,1427.76 1796.7,1428.05 1798.77,1428.26 1800.84,1428.43 1802.91,1428.58 1804.98,1428.69 1807.05,1428.74 1809.12,1428.7 1811.19,1428.58 1813.26,1428.35 1815.33,1428.03 1817.4,1427.6 1819.47,1427.09 1821.54,1426.49 1823.61,1425.83 1825.68,1425.14 1827.74,1424.43 1829.81,1423.67 1831.88,1422.84 1833.95,1421.93 1836.02,1420.92 1838.09,1419.82 1840.16,1418.62 1842.23,1417.32 1844.3,1415.93 1846.37,1414.48 1848.44,1412.97 1850.51,1411.44 1852.58,1409.89 1854.65,1408.29 1856.72,1406.62 1858.79,1404.87 1860.86,1403.02 1862.93,1401.08 1865,1399.05 1867.07,1396.93 1869.14,1394.73 1871.2,1392.47 1873.27,1390.16 1875.34,1387.83 1877.41,1385.49 1879.48,1383.1 1881.55,1380.65 1883.62,1378.12 1885.69,1375.52 1887.76,1372.82 1889.83,1370.04 1891.9,1367.18 1893.97,1364.25 1896.04,1361.26 1898.11,1358.22 1900.18,1355.16 1902.25,1352.09 1904.32,1349 1906.39,1345.86 1908.46,1342.65 1910.53,1339.38 1912.6,1336.04 1914.66,1332.63 1916.73,1329.14 1918.8,1325.59 1920.87,1321.98 1922.94,1318.33 1925.01,1314.65 1927.08,1310.96 1929.15,1307.27 1931.22,1303.55 1933.29,1299.79 1935.36,1295.97 1937.43,1292.11 1939.5,1288.19 1941.57,1284.22 1943.64,1280.2 1945.71,1276.13 1947.78,1272.03 1949.85,1267.9 1951.92,1263.76 1953.99,1259.61 1956.06,1255.46 1958.12,1251.27 1960.19,1247.06 1962.26,1242.82 1964.33,1238.55 1966.4,1234.25 1968.47,1229.92 1970.54,1225.57 1972.61,1221.21 1974.68,1216.82 1976.75,1212.43 1978.82,1208.02 1980.89,1203.62 1982.96,1199.19 1985.03,1194.76 1987.1,1190.32 1989.17,1185.87 1991.24,1181.42 1993.31,1176.97 1995.38,1172.52 1997.45,1168.08 1999.52,1163.64 2001.58,1159.2 2003.65,1154.77 2005.72,1150.32 2007.79,1145.88 2009.86,1141.42 2011.93,1136.97 2014,1132.54 2016.07,1128.13 2018.14,1123.75 2020.21,1119.4 2022.28,1115.08 2024.35,1110.79 2026.42,1106.52 2028.49,1102.27 2030.56,1098.02 2032.63,1093.76 2034.7,1089.5 2036.77,1085.25 2038.84,1081.02 2040.91,1076.84 2042.97,1072.71 2045.04,1068.64 2047.11,1064.63 2049.18,1060.68 2051.25,1056.78 2053.32,1052.92 2055.39,1049.08 2057.46,1045.25 2059.53,1041.4 2061.6,1037.54 2063.67,1033.7 2065.74,1029.9 2067.81,1026.17 2069.88,1022.53 2071.95,1018.98 2074.02,1015.52 2076.09,1012.15 2078.16,1008.86 2080.23,1005.63 2082.3,1002.44 2084.37,999.256 2086.43,996.046 2088.5,992.789 2090.57,989.531 2092.64,986.32 2094.71,983.19 2096.78,980.17 2098.85,977.276 2100.92,974.517 2102.99,971.89 2105.06,969.386 2107.13,966.982 2109.2,964.648 2111.27,962.347 2113.34,960.027 2115.41,957.631 2117.48,955.158 2119.55,952.694 2121.62,950.296 2123.69,948.006 2125.76,945.856 2127.83,943.865 2129.89,942.04 2131.96,940.376 2134.03,938.855 2136.1,937.448 2138.17,936.113 2140.24,934.795 2142.31,933.429 2144.38,931.944 2146.45,930.429 2148.52,928.973 2150.59,927.614 2152.66,926.384 2154.73,925.3 2156.8,924.369 2158.87,923.588 2160.94,922.943 2163.01,922.407 2165.08,921.944 2167.15,921.505 2169.22,921.033 2171.29,920.509 2173.35,920.033 2175.42,919.639 2177.49,919.352 2179.56,919.186 2181.63,919.148 2183.7,919.239 2185.77,919.449 2187.84,919.761 2189.91,920.149 2191.98,920.582 2194.05,921.016 2196.12,921.44 2198.19,921.91 2200.26,922.458 2202.33,923.103 2204.4,923.861 2206.47,924.739 2208.54,925.737 2210.61,926.848 2212.68,928.059 2214.75,929.348 2216.81,930.687 2218.88,932.04 2220.95,933.376 2223.02,934.735 2225.09,936.153 2227.16,937.656 2229.23,939.262 2231.3,940.983 2233.37,942.821 2235.44,944.776 2237.51,946.836 2239.58,948.984 2241.65,951.196 2243.72,953.442 2245.79,955.682 2247.86,957.891 2249.93,960.124 2252,962.414 2254.07,964.784 2256.14,967.25 2258.21,969.822 2260.27,972.502 2262.34,975.288 2264.41,978.168 2266.48,981.126 2268.55,984.139 2270.62,987.176 2272.69,990.202 2274.76,993.19 2276.83,996.199 2278.9,999.257 2280.97,1002.38 2283.04,1005.59 2285.11,1008.88 2287.18,1012.26 2289.25,1015.72 2291.32,1019.26 2293.39,1022.87 2295.46,1026.52 2297.53,1030.19 2299.6,1033.84 2301.66,1037.47 2303.73,1041.11 2305.8,1044.78 2307.87,1048.51 2309.94,1052.29 2312.01,1056.14 2314.08,1060.05 2316.15,1064.02 2318.22,1068.04 2320.29,1072.11 2322.36,1076.22 2324.43,1080.34 2326.5,1084.45 2328.57,1088.54 2330.64,1092.62 2332.71,1096.73 2334.78,1100.87 2336.85,1105.04 2338.92,1109.24 2340.99,1113.48 2343.06,1117.75 2345.12,1122.05 2347.19,1126.38 2349.26,1130.73 2351.33,1135.1 2353.4,1139.46 2355.47,1143.82 2357.54,1148.16 2359.61,1152.51 2361.68,1156.87 2363.75,1161.25 2365.82,1165.63 2367.89,1170.01 2369.96,1174.39 2372.03,1178.75 2374.1,1183.1 2376.17,1187.45 2378.24,1191.78 2380.31,1196.1 2382.38,1200.42 2384.45,1204.74 2386.52,1209.07 2388.58,1213.4 2390.65,1217.76 2392.72,1222.12 2394.79,1226.48 2396.86,1230.82 2398.93,1235.11 2401,1239.36 2403.07,1243.56 2405.14,1247.71 2407.21,1251.81 2409.28,1255.88 2411.35,1259.92 2413.42,1263.96 2415.49,1268.01 2417.56,1272.1 2419.63,1276.2 2421.7,1280.28 2423.77,1284.31 2425.84,1288.29 2427.91,1292.2 2429.98,1296.04 2432.04,1299.81 2434.11,1303.52 2436.18,1307.18 2438.25,1310.8 2440.32,1314.42 2442.39,1318.04 2444.46,1321.69 2446.53,1325.31 2448.6,1328.88 2450.67,1332.39 2452.74,1335.82 2454.81,1339.17 2456.88,1342.44 2458.95,1345.63 2461.02,1348.76 2463.09,1351.84 2465.16,1354.9 2467.23,1357.95 2469.3,1361 2471.37,1364.02 2473.44,1366.97 2475.5,1369.85 2477.57,1372.65 2479.64,1375.35 2481.71,1377.97 2483.78,1380.5 2485.85,1382.96 2487.92,1385.37 2489.99,1387.75 2492.06,1390.12 2494.13,1392.46 2496.2,1394.76 2498.27,1396.98 2500.34,1399.12 2502.41,1401.16 2504.48,1403.11 2506.55,1404.96 2508.62,1406.73 2510.69,1408.42 2512.76,1410.06 2514.83,1411.66 2516.9,1413.26 2518.96,1414.81 2521.03,1416.3 2523.1,1417.71 2525.17,1419.02 2527.24,1420.23 2529.31,1421.34 2531.38,1422.35 2533.45,1423.28 2535.52,1424.14 2537.59,1424.95 2539.66,1425.73 2541.73,1426.49 2543.8,1427.19 2545.87,1427.81 2547.94,1428.35 2550.01,1428.78 2552.08,1429.11 2554.15,1429.34 2556.22,1429.48 2558.29,1429.53 2560.36,1429.53 2562.42,1429.48 2564.49,1429.42 2566.56,1429.27 2568.63,1429.05 2570.7,1428.76 2572.77,1428.38 "/>
<path clip-path="url(#clip970)" d="M2129.51 388.696 L2560.69 388.696 L2560.69 181.336 L2129.51 181.336  Z" fill="#ffffff" fill-rule="evenodd" fill-opacity="1"/>
<polyline clip-path="url(#clip970)" style="stroke:#000000; stroke-linecap:round; stroke-linejoin:round; stroke-width:4; stroke-opacity:1; fill:none" points="2129.51,388.696 2560.69,388.696 2560.69,181.336 2129.51,181.336 2129.51,388.696 "/>
<polyline clip-path="url(#clip970)" style="stroke:#ff0000; stroke-linecap:round; stroke-linejoin:round; stroke-width:8; stroke-opacity:1; fill:none" points="2156.2,233.176 2316.34,233.176 "/>
<path clip-path="url(#clip970)" d="M2343.03 215.896 L2349.32 215.896 L2364.65 244.808 L2364.65 215.896 L2369.18 215.896 L2369.18 250.456 L2362.89 250.456 L2347.56 221.544 L2347.56 250.456 L2343.03 250.456 L2343.03 215.896 Z" fill="#000000" fill-rule="nonzero" fill-opacity="1" /><path clip-path="url(#clip970)" d="M2388.35 227.517 Q2384.92 227.517 2382.93 230.202 Q2380.94 232.864 2380.94 237.517 Q2380.94 242.169 2382.91 244.854 Q2384.9 247.516 2388.35 247.516 Q2391.75 247.516 2393.74 244.831 Q2395.73 242.146 2395.73 237.517 Q2395.73 232.91 2393.74 230.225 Q2391.75 227.517 2388.35 227.517 M2388.35 223.906 Q2393.9 223.906 2397.08 227.517 Q2400.25 231.128 2400.25 237.517 Q2400.25 243.882 2397.08 247.516 Q2393.9 251.128 2388.35 251.128 Q2382.77 251.128 2379.6 247.516 Q2376.45 243.882 2376.45 237.517 Q2376.45 231.128 2379.6 227.517 Q2382.77 223.906 2388.35 223.906 Z" fill="#000000" fill-rule="nonzero" fill-opacity="1" /><path clip-path="url(#clip970)" d="M2422.56 215.896 L2427.24 215.896 L2427.24 250.456 L2422.56 250.456 L2422.56 215.896 Z" fill="#000000" fill-rule="nonzero" fill-opacity="1" /><path clip-path="url(#clip970)" d="M2431.75 215.896 L2460.99 215.896 L2460.99 219.831 L2448.72 219.831 L2448.72 250.456 L2444.02 250.456 L2444.02 219.831 L2431.75 219.831 L2431.75 215.896 Z" fill="#000000" fill-rule="nonzero" fill-opacity="1" /><path clip-path="url(#clip970)" d="M2465.5 215.896 L2471.8 215.896 L2487.12 244.808 L2487.12 215.896 L2491.66 215.896 L2491.66 250.456 L2485.36 250.456 L2470.04 221.544 L2470.04 250.456 L2465.5 250.456 L2465.5 215.896 Z" fill="#000000" fill-rule="nonzero" fill-opacity="1" /><polyline clip-path="url(#clip970)" style="stroke:#ffa500; stroke-linecap:round; stroke-linejoin:round; stroke-width:8; stroke-opacity:1; fill:none" points="2156.2,285.016 2316.34,285.016 "/>
<path clip-path="url(#clip970)" d="M2344.48 267.736 L2362.84 267.736 L2362.84 271.671 L2348.77 271.671 L2348.77 280.144 Q2349.78 279.796 2350.8 279.634 Q2351.82 279.449 2352.84 279.449 Q2358.63 279.449 2362.01 282.62 Q2365.39 285.792 2365.39 291.208 Q2365.39 296.787 2361.91 299.889 Q2358.44 302.968 2352.12 302.968 Q2349.95 302.968 2347.68 302.597 Q2345.43 302.227 2343.03 301.486 L2343.03 296.787 Q2345.11 297.921 2347.33 298.477 Q2349.55 299.032 2352.03 299.032 Q2356.03 299.032 2358.37 296.926 Q2360.71 294.819 2360.71 291.208 Q2360.71 287.597 2358.37 285.491 Q2356.03 283.384 2352.03 283.384 Q2350.15 283.384 2348.28 283.801 Q2346.43 284.218 2344.48 285.097 L2344.48 267.736 Z" fill="#000000" fill-rule="nonzero" fill-opacity="1" /><path clip-path="url(#clip970)" d="M2384.6 270.815 Q2380.99 270.815 2379.16 274.38 Q2377.35 277.921 2377.35 285.051 Q2377.35 292.157 2379.16 295.722 Q2380.99 299.264 2384.6 299.264 Q2388.23 299.264 2390.04 295.722 Q2391.87 292.157 2391.87 285.051 Q2391.87 277.921 2390.04 274.38 Q2388.23 270.815 2384.6 270.815 M2384.6 267.111 Q2390.41 267.111 2393.46 271.718 Q2396.54 276.301 2396.54 285.051 Q2396.54 293.778 2393.46 298.384 Q2390.41 302.968 2384.6 302.968 Q2378.79 302.968 2375.71 298.384 Q2372.65 293.778 2372.65 285.051 Q2372.65 276.301 2375.71 271.718 Q2378.79 267.111 2384.6 267.111 Z" fill="#000000" fill-rule="nonzero" fill-opacity="1" /><path clip-path="url(#clip970)" d="M2434.16 287.088 Q2432.14 287.088 2430.99 288.801 Q2429.85 290.514 2429.85 293.569 Q2429.85 296.579 2430.99 298.315 Q2432.14 300.028 2434.16 300.028 Q2436.13 300.028 2437.26 298.315 Q2438.42 296.579 2438.42 293.569 Q2438.42 290.537 2437.26 288.824 Q2436.13 287.088 2434.16 287.088 M2434.16 284.148 Q2437.82 284.148 2439.97 286.695 Q2442.12 289.241 2442.12 293.569 Q2442.12 297.898 2439.95 300.444 Q2437.79 302.968 2434.16 302.968 Q2430.46 302.968 2428.3 300.444 Q2426.15 297.898 2426.15 293.569 Q2426.15 289.218 2428.3 286.695 Q2430.48 284.148 2434.16 284.148 M2410.27 270.051 Q2408.28 270.051 2407.12 271.787 Q2405.99 273.5 2405.99 276.509 Q2405.99 279.565 2407.12 281.278 Q2408.26 282.991 2410.27 282.991 Q2412.28 282.991 2413.42 281.278 Q2414.58 279.565 2414.58 276.509 Q2414.58 273.523 2413.42 271.787 Q2412.26 270.051 2410.27 270.051 M2431.17 267.111 L2434.88 267.111 L2413.26 302.968 L2409.55 302.968 L2431.17 267.111 M2410.27 267.111 Q2413.93 267.111 2416.1 269.658 Q2418.28 272.181 2418.28 276.509 Q2418.28 280.884 2416.1 283.408 Q2413.95 285.931 2410.27 285.931 Q2406.59 285.931 2404.44 283.408 Q2402.31 280.861 2402.31 276.509 Q2402.31 272.204 2404.46 269.658 Q2406.61 267.111 2410.27 267.111 Z" fill="#000000" fill-rule="nonzero" fill-opacity="1" /><path clip-path="url(#clip970)" d="M2464.46 267.736 L2469.14 267.736 L2469.14 302.296 L2464.46 302.296 L2464.46 267.736 Z" fill="#000000" fill-rule="nonzero" fill-opacity="1" /><path clip-path="url(#clip970)" d="M2473.65 267.736 L2502.89 267.736 L2502.89 271.671 L2490.62 271.671 L2490.62 302.296 L2485.92 302.296 L2485.92 271.671 L2473.65 271.671 L2473.65 267.736 Z" fill="#000000" fill-rule="nonzero" fill-opacity="1" /><path clip-path="url(#clip970)" d="M2507.4 267.736 L2513.7 267.736 L2529.02 296.648 L2529.02 267.736 L2533.56 267.736 L2533.56 302.296 L2527.26 302.296 L2511.94 273.384 L2511.94 302.296 L2507.4 302.296 L2507.4 267.736 Z" fill="#000000" fill-rule="nonzero" fill-opacity="1" /><polyline clip-path="url(#clip970)" style="stroke:#008000; stroke-linecap:round; stroke-linejoin:round; stroke-width:8; stroke-opacity:1; fill:none" points="2156.2,336.856 2316.34,336.856 "/>
<path clip-path="url(#clip970)" d="M2354.88 337.724 Q2351.54 337.724 2349.62 339.507 Q2347.72 341.289 2347.72 344.414 Q2347.72 347.539 2349.62 349.321 Q2351.54 351.104 2354.88 351.104 Q2358.21 351.104 2360.13 349.321 Q2362.05 347.516 2362.05 344.414 Q2362.05 341.289 2360.13 339.507 Q2358.23 337.724 2354.88 337.724 M2350.2 335.734 Q2347.19 334.993 2345.5 332.933 Q2343.84 330.873 2343.84 327.91 Q2343.84 323.766 2346.78 321.359 Q2349.74 318.951 2354.88 318.951 Q2360.04 318.951 2362.98 321.359 Q2365.92 323.766 2365.92 327.91 Q2365.92 330.873 2364.23 332.933 Q2362.56 334.993 2359.58 335.734 Q2362.96 336.521 2364.83 338.812 Q2366.73 341.104 2366.73 344.414 Q2366.73 349.437 2363.65 352.122 Q2360.59 354.808 2354.88 354.808 Q2349.16 354.808 2346.08 352.122 Q2343.03 349.437 2343.03 344.414 Q2343.03 341.104 2344.92 338.812 Q2346.82 336.521 2350.2 335.734 M2348.49 328.349 Q2348.49 331.035 2350.15 332.539 Q2351.84 334.044 2354.88 334.044 Q2357.89 334.044 2359.58 332.539 Q2361.29 331.035 2361.29 328.349 Q2361.29 325.664 2359.58 324.16 Q2357.89 322.655 2354.88 322.655 Q2351.84 322.655 2350.15 324.16 Q2348.49 325.664 2348.49 328.349 Z" fill="#000000" fill-rule="nonzero" fill-opacity="1" /><path clip-path="url(#clip970)" d="M2385.04 322.655 Q2381.43 322.655 2379.6 326.22 Q2377.79 329.761 2377.79 336.891 Q2377.79 343.997 2379.6 347.562 Q2381.43 351.104 2385.04 351.104 Q2388.67 351.104 2390.48 347.562 Q2392.31 343.997 2392.31 336.891 Q2392.31 329.761 2390.48 326.22 Q2388.67 322.655 2385.04 322.655 M2385.04 318.951 Q2390.85 318.951 2393.9 323.558 Q2396.98 328.141 2396.98 336.891 Q2396.98 345.618 2393.9 350.224 Q2390.85 354.808 2385.04 354.808 Q2379.23 354.808 2376.15 350.224 Q2373.09 345.618 2373.09 336.891 Q2373.09 328.141 2376.15 323.558 Q2379.23 318.951 2385.04 318.951 Z" fill="#000000" fill-rule="nonzero" fill-opacity="1" /><path clip-path="url(#clip970)" d="M2434.6 338.928 Q2432.58 338.928 2431.43 340.641 Q2430.29 342.354 2430.29 345.409 Q2430.29 348.419 2431.43 350.155 Q2432.58 351.868 2434.6 351.868 Q2436.57 351.868 2437.7 350.155 Q2438.86 348.419 2438.86 345.409 Q2438.86 342.377 2437.7 340.664 Q2436.57 338.928 2434.6 338.928 M2434.6 335.988 Q2438.26 335.988 2440.41 338.535 Q2442.56 341.081 2442.56 345.409 Q2442.56 349.738 2440.39 352.284 Q2438.23 354.808 2434.6 354.808 Q2430.89 354.808 2428.74 352.284 Q2426.59 349.738 2426.59 345.409 Q2426.59 341.058 2428.74 338.535 Q2430.92 335.988 2434.6 335.988 M2410.71 321.891 Q2408.72 321.891 2407.56 323.627 Q2406.43 325.34 2406.43 328.349 Q2406.43 331.405 2407.56 333.118 Q2408.7 334.831 2410.71 334.831 Q2412.72 334.831 2413.86 333.118 Q2415.02 331.405 2415.02 328.349 Q2415.02 325.363 2413.86 323.627 Q2412.7 321.891 2410.71 321.891 M2431.61 318.951 L2435.32 318.951 L2413.7 354.808 L2409.99 354.808 L2431.61 318.951 M2410.71 318.951 Q2414.37 318.951 2416.54 321.498 Q2418.72 324.021 2418.72 328.349 Q2418.72 332.724 2416.54 335.248 Q2414.39 337.771 2410.71 337.771 Q2407.03 337.771 2404.88 335.248 Q2402.75 332.701 2402.75 328.349 Q2402.75 324.044 2404.9 321.498 Q2407.05 318.951 2410.71 318.951 Z" fill="#000000" fill-rule="nonzero" fill-opacity="1" /><path clip-path="url(#clip970)" d="M2464.9 319.576 L2469.58 319.576 L2469.58 354.136 L2464.9 354.136 L2464.9 319.576 Z" fill="#000000" fill-rule="nonzero" fill-opacity="1" /><path clip-path="url(#clip970)" d="M2474.09 319.576 L2503.33 319.576 L2503.33 323.511 L2491.06 323.511 L2491.06 354.136 L2486.36 354.136 L2486.36 323.511 L2474.09 323.511 L2474.09 319.576 Z" fill="#000000" fill-rule="nonzero" fill-opacity="1" /><path clip-path="url(#clip970)" d="M2507.84 319.576 L2514.14 319.576 L2529.46 348.488 L2529.46 319.576 L2534 319.576 L2534 354.136 L2527.7 354.136 L2512.38 325.224 L2512.38 354.136 L2507.84 354.136 L2507.84 319.576 Z" fill="#000000" fill-rule="nonzero" fill-opacity="1" /></svg>
