<?xml version="1.0" encoding="utf-8"?>
<svg xmlns="http://www.w3.org/2000/svg" xmlns:xlink="http://www.w3.org/1999/xlink" width="672" height="480" viewBox="0 0 2688 1920">
<defs>
  <clipPath id="clip430">
    <rect x="0" y="0" width="2688" height="1920"/>
  </clipPath>
</defs>
<path clip-path="url(#clip430)" d="M0 1920 L2688 1920 L2688 -4.26326e-14 L0 -4.26326e-14  Z" fill="#ffffff" fill-rule="evenodd" fill-opacity="1"/>
<defs>
  <clipPath id="clip431">
    <rect x="255" y="127" width="2386" height="1607"/>
  </clipPath>
</defs>
<path clip-path="url(#clip430)" d="M255.816 1734.12 L2640.76 1734.12 L2640.76 127.792 L255.816 127.792  Z" fill="#ffffff" fill-rule="evenodd" fill-opacity="1"/>
<polyline clip-path="url(#clip431)" style="stroke:#000000; stroke-linecap:round; stroke-linejoin:round; stroke-width:2; stroke-opacity:0.1; fill:none" points="323.315,1734.12 323.315,127.792 "/>
<polyline clip-path="url(#clip431)" style="stroke:#000000; stroke-linecap:round; stroke-linejoin:round; stroke-width:2; stroke-opacity:0.1; fill:none" points="939.737,1734.12 939.737,127.792 "/>
<polyline clip-path="url(#clip431)" style="stroke:#000000; stroke-linecap:round; stroke-linejoin:round; stroke-width:2; stroke-opacity:0.1; fill:none" points="1556.16,1734.12 1556.16,127.792 "/>
<polyline clip-path="url(#clip431)" style="stroke:#000000; stroke-linecap:round; stroke-linejoin:round; stroke-width:2; stroke-opacity:0.1; fill:none" points="2172.58,1734.12 2172.58,127.792 "/>
<polyline clip-path="url(#clip431)" style="stroke:#000000; stroke-linecap:round; stroke-linejoin:round; stroke-width:2; stroke-opacity:0.1; fill:none" points="255.816,1688.65 2640.76,1688.65 "/>
<polyline clip-path="url(#clip431)" style="stroke:#000000; stroke-linecap:round; stroke-linejoin:round; stroke-width:2; stroke-opacity:0.1; fill:none" points="255.816,1309.77 2640.76,1309.77 "/>
<polyline clip-path="url(#clip431)" style="stroke:#000000; stroke-linecap:round; stroke-linejoin:round; stroke-width:2; stroke-opacity:0.1; fill:none" points="255.816,930.879 2640.76,930.879 "/>
<polyline clip-path="url(#clip431)" style="stroke:#000000; stroke-linecap:round; stroke-linejoin:round; stroke-width:2; stroke-opacity:0.1; fill:none" points="255.816,551.991 2640.76,551.991 "/>
<polyline clip-path="url(#clip431)" style="stroke:#000000; stroke-linecap:round; stroke-linejoin:round; stroke-width:2; stroke-opacity:0.1; fill:none" points="255.816,173.103 2640.76,173.103 "/>
<polyline clip-path="url(#clip430)" style="stroke:#000000; stroke-linecap:round; stroke-linejoin:round; stroke-width:4; stroke-opacity:1; fill:none" points="255.816,1734.12 2640.76,1734.12 "/>
<polyline clip-path="url(#clip430)" style="stroke:#000000; stroke-linecap:round; stroke-linejoin:round; stroke-width:4; stroke-opacity:1; fill:none" points="323.315,1734.12 323.315,1715.22 "/>
<polyline clip-path="url(#clip430)" style="stroke:#000000; stroke-linecap:round; stroke-linejoin:round; stroke-width:4; stroke-opacity:1; fill:none" points="939.737,1734.12 939.737,1715.22 "/>
<polyline clip-path="url(#clip430)" style="stroke:#000000; stroke-linecap:round; stroke-linejoin:round; stroke-width:4; stroke-opacity:1; fill:none" points="1556.16,1734.12 1556.16,1715.22 "/>
<polyline clip-path="url(#clip430)" style="stroke:#000000; stroke-linecap:round; stroke-linejoin:round; stroke-width:4; stroke-opacity:1; fill:none" points="2172.58,1734.12 2172.58,1715.22 "/>
<path clip-path="url(#clip430)" d="M323.315 1767.34 Q319.704 1767.34 317.875 1770.9 Q316.069 1774.45 316.069 1781.58 Q316.069 1788.68 317.875 1792.25 Q319.704 1795.79 323.315 1795.79 Q326.949 1795.79 328.754 1792.25 Q330.583 1788.68 330.583 1781.58 Q330.583 1774.45 328.754 1770.9 Q326.949 1767.34 323.315 1767.34 M323.315 1763.64 Q329.125 1763.64 332.18 1768.24 Q335.259 1772.83 335.259 1781.58 Q335.259 1790.3 332.18 1794.91 Q329.125 1799.49 323.315 1799.49 Q317.504 1799.49 314.426 1794.91 Q311.37 1790.3 311.37 1781.58 Q311.37 1772.83 314.426 1768.24 Q317.504 1763.64 323.315 1763.64 Z" fill="#000000" fill-rule="nonzero" fill-opacity="1" /><path clip-path="url(#clip430)" d="M899.344 1794.89 L906.983 1794.89 L906.983 1768.52 L898.673 1770.19 L898.673 1765.93 L906.937 1764.26 L911.613 1764.26 L911.613 1794.89 L919.251 1794.89 L919.251 1798.82 L899.344 1798.82 L899.344 1794.89 Z" fill="#000000" fill-rule="nonzero" fill-opacity="1" /><path clip-path="url(#clip430)" d="M938.696 1767.34 Q935.085 1767.34 933.256 1770.9 Q931.45 1774.45 931.45 1781.58 Q931.45 1788.68 933.256 1792.25 Q935.085 1795.79 938.696 1795.79 Q942.33 1795.79 944.135 1792.25 Q945.964 1788.68 945.964 1781.58 Q945.964 1774.45 944.135 1770.9 Q942.33 1767.34 938.696 1767.34 M938.696 1763.64 Q944.506 1763.64 947.561 1768.24 Q950.64 1772.83 950.64 1781.58 Q950.64 1790.3 947.561 1794.91 Q944.506 1799.49 938.696 1799.49 Q932.886 1799.49 929.807 1794.91 Q926.751 1790.3 926.751 1781.58 Q926.751 1772.83 929.807 1768.24 Q932.886 1763.64 938.696 1763.64 Z" fill="#000000" fill-rule="nonzero" fill-opacity="1" /><path clip-path="url(#clip430)" d="M968.858 1767.34 Q965.246 1767.34 963.418 1770.9 Q961.612 1774.45 961.612 1781.58 Q961.612 1788.68 963.418 1792.25 Q965.246 1795.79 968.858 1795.79 Q972.492 1795.79 974.297 1792.25 Q976.126 1788.68 976.126 1781.58 Q976.126 1774.45 974.297 1770.9 Q972.492 1767.34 968.858 1767.34 M968.858 1763.64 Q974.668 1763.64 977.723 1768.24 Q980.802 1772.83 980.802 1781.58 Q980.802 1790.3 977.723 1794.91 Q974.668 1799.49 968.858 1799.49 Q963.047 1799.49 959.969 1794.91 Q956.913 1790.3 956.913 1781.58 Q956.913 1772.83 959.969 1768.24 Q963.047 1763.64 968.858 1763.64 Z" fill="#000000" fill-rule="nonzero" fill-opacity="1" /><path clip-path="url(#clip430)" d="M1519.85 1794.89 L1536.17 1794.89 L1536.17 1798.82 L1514.23 1798.82 L1514.23 1794.89 Q1516.89 1792.13 1521.47 1787.5 Q1526.08 1782.85 1527.26 1781.51 Q1529.51 1778.98 1530.38 1777.25 Q1531.29 1775.49 1531.29 1773.8 Q1531.29 1771.04 1529.34 1769.31 Q1527.42 1767.57 1524.32 1767.57 Q1522.12 1767.57 1519.67 1768.34 Q1517.24 1769.1 1514.46 1770.65 L1514.46 1765.93 Q1517.28 1764.79 1519.74 1764.21 Q1522.19 1763.64 1524.23 1763.64 Q1529.6 1763.64 1532.79 1766.32 Q1535.99 1769.01 1535.99 1773.5 Q1535.99 1775.63 1535.18 1777.55 Q1534.39 1779.45 1532.28 1782.04 Q1531.7 1782.71 1528.6 1785.93 Q1525.5 1789.12 1519.85 1794.89 Z" fill="#000000" fill-rule="nonzero" fill-opacity="1" /><path clip-path="url(#clip430)" d="M1555.99 1767.34 Q1552.38 1767.34 1550.55 1770.9 Q1548.74 1774.45 1548.74 1781.58 Q1548.74 1788.68 1550.55 1792.25 Q1552.38 1795.79 1555.99 1795.79 Q1559.62 1795.79 1561.43 1792.25 Q1563.25 1788.68 1563.25 1781.58 Q1563.25 1774.45 1561.43 1770.9 Q1559.62 1767.34 1555.99 1767.34 M1555.99 1763.64 Q1561.8 1763.64 1564.85 1768.24 Q1567.93 1772.83 1567.93 1781.58 Q1567.93 1790.3 1564.85 1794.91 Q1561.8 1799.49 1555.99 1799.49 Q1550.18 1799.49 1547.1 1794.91 Q1544.04 1790.3 1544.04 1781.58 Q1544.04 1772.83 1547.1 1768.24 Q1550.18 1763.64 1555.99 1763.64 Z" fill="#000000" fill-rule="nonzero" fill-opacity="1" /><path clip-path="url(#clip430)" d="M1586.15 1767.34 Q1582.54 1767.34 1580.71 1770.9 Q1578.9 1774.45 1578.9 1781.58 Q1578.9 1788.68 1580.71 1792.25 Q1582.54 1795.79 1586.15 1795.79 Q1589.78 1795.79 1591.59 1792.25 Q1593.42 1788.68 1593.42 1781.58 Q1593.42 1774.45 1591.59 1770.9 Q1589.78 1767.34 1586.15 1767.34 M1586.15 1763.64 Q1591.96 1763.64 1595.01 1768.24 Q1598.09 1772.83 1598.09 1781.58 Q1598.09 1790.3 1595.01 1794.91 Q1591.96 1799.49 1586.15 1799.49 Q1580.34 1799.49 1577.26 1794.91 Q1574.2 1790.3 1574.2 1781.58 Q1574.2 1772.83 1577.26 1768.24 Q1580.34 1763.64 1586.15 1763.64 Z" fill="#000000" fill-rule="nonzero" fill-opacity="1" /><path clip-path="url(#clip430)" d="M2146.34 1780.19 Q2149.7 1780.9 2151.58 1783.17 Q2153.47 1785.44 2153.47 1788.77 Q2153.47 1793.89 2149.96 1796.69 Q2146.44 1799.49 2139.96 1799.49 Q2137.78 1799.49 2135.46 1799.05 Q2133.17 1798.64 2130.72 1797.78 L2130.72 1793.27 Q2132.66 1794.4 2134.98 1794.98 Q2137.29 1795.56 2139.82 1795.56 Q2144.21 1795.56 2146.51 1793.82 Q2148.82 1792.08 2148.82 1788.77 Q2148.82 1785.72 2146.67 1784.01 Q2144.54 1782.27 2140.72 1782.27 L2136.69 1782.27 L2136.69 1778.43 L2140.9 1778.43 Q2144.35 1778.43 2146.18 1777.06 Q2148.01 1775.67 2148.01 1773.08 Q2148.01 1770.42 2146.11 1769.01 Q2144.24 1767.57 2140.72 1767.57 Q2138.8 1767.57 2136.6 1767.99 Q2134.4 1768.4 2131.76 1769.28 L2131.76 1765.12 Q2134.42 1764.38 2136.74 1764.01 Q2139.08 1763.64 2141.14 1763.64 Q2146.46 1763.64 2149.56 1766.07 Q2152.66 1768.47 2152.66 1772.59 Q2152.66 1775.46 2151.02 1777.46 Q2149.38 1779.42 2146.34 1780.19 Z" fill="#000000" fill-rule="nonzero" fill-opacity="1" /><path clip-path="url(#clip430)" d="M2172.34 1767.34 Q2168.73 1767.34 2166.9 1770.9 Q2165.09 1774.45 2165.09 1781.58 Q2165.09 1788.68 2166.9 1792.25 Q2168.73 1795.79 2172.34 1795.79 Q2175.97 1795.79 2177.78 1792.25 Q2179.61 1788.68 2179.61 1781.58 Q2179.61 1774.45 2177.78 1770.9 Q2175.97 1767.34 2172.34 1767.34 M2172.34 1763.64 Q2178.15 1763.64 2181.21 1768.24 Q2184.28 1772.83 2184.28 1781.58 Q2184.28 1790.3 2181.21 1794.91 Q2178.15 1799.49 2172.34 1799.49 Q2166.53 1799.49 2163.45 1794.91 Q2160.4 1790.3 2160.4 1781.58 Q2160.4 1772.83 2163.45 1768.24 Q2166.53 1763.64 2172.34 1763.64 Z" fill="#000000" fill-rule="nonzero" fill-opacity="1" /><path clip-path="url(#clip430)" d="M2202.5 1767.34 Q2198.89 1767.34 2197.06 1770.9 Q2195.26 1774.45 2195.26 1781.58 Q2195.26 1788.68 2197.06 1792.25 Q2198.89 1795.79 2202.5 1795.79 Q2206.14 1795.79 2207.94 1792.25 Q2209.77 1788.68 2209.77 1781.58 Q2209.77 1774.45 2207.94 1770.9 Q2206.14 1767.34 2202.5 1767.34 M2202.5 1763.64 Q2208.31 1763.64 2211.37 1768.24 Q2214.45 1772.83 2214.45 1781.58 Q2214.45 1790.3 2211.37 1794.91 Q2208.31 1799.49 2202.5 1799.49 Q2196.69 1799.49 2193.61 1794.91 Q2190.56 1790.3 2190.56 1781.58 Q2190.56 1772.83 2193.61 1768.24 Q2196.69 1763.64 2202.5 1763.64 Z" fill="#000000" fill-rule="nonzero" fill-opacity="1" /><path clip-path="url(#clip430)" d="M1394.53 1841.06 L1394.53 1878.02 L1402.29 1878.02 Q1412.13 1878.02 1416.68 1873.56 Q1421.26 1869.11 1421.26 1859.49 Q1421.26 1849.94 1416.68 1845.52 Q1412.13 1841.06 1402.29 1841.06 L1394.53 1841.06 M1388.1 1835.78 L1401.31 1835.78 Q1415.12 1835.78 1421.58 1841.54 Q1428.04 1847.27 1428.04 1859.49 Q1428.04 1871.78 1421.55 1877.54 Q1415.06 1883.3 1401.31 1883.3 L1388.1 1883.3 L1388.1 1835.78 Z" fill="#000000" fill-rule="nonzero" fill-opacity="1" /><path clip-path="url(#clip430)" d="M1454.24 1865.38 Q1447.14 1865.38 1444.4 1867 Q1441.67 1868.63 1441.67 1872.54 Q1441.67 1875.66 1443.7 1877.51 Q1445.77 1879.32 1449.3 1879.32 Q1454.17 1879.32 1457.1 1875.88 Q1460.06 1872.42 1460.06 1866.69 L1460.06 1865.38 L1454.24 1865.38 M1465.92 1862.96 L1465.92 1883.3 L1460.06 1883.3 L1460.06 1877.89 Q1458.06 1881.14 1455.07 1882.7 Q1452.07 1884.22 1447.75 1884.22 Q1442.27 1884.22 1439.02 1881.17 Q1435.81 1878.08 1435.81 1872.92 Q1435.81 1866.91 1439.82 1863.85 Q1443.86 1860.8 1451.85 1860.8 L1460.06 1860.8 L1460.06 1860.23 Q1460.06 1856.18 1457.39 1853.99 Q1454.75 1851.76 1449.94 1851.76 Q1446.89 1851.76 1443.99 1852.49 Q1441.09 1853.22 1438.42 1854.69 L1438.42 1849.28 Q1441.63 1848.03 1444.66 1847.43 Q1447.68 1846.79 1450.55 1846.79 Q1458.28 1846.79 1462.1 1850.8 Q1465.92 1854.81 1465.92 1862.96 Z" fill="#000000" fill-rule="nonzero" fill-opacity="1" /><path clip-path="url(#clip430)" d="M1492.81 1886.61 Q1490.33 1892.98 1487.98 1894.92 Q1485.62 1896.86 1481.67 1896.86 L1477 1896.86 L1477 1891.96 L1480.43 1891.96 Q1482.85 1891.96 1484.19 1890.81 Q1485.53 1889.67 1487.15 1885.4 L1488.2 1882.73 L1473.78 1847.65 L1479.99 1847.65 L1491.13 1875.53 L1502.27 1847.65 L1508.47 1847.65 L1492.81 1886.61 Z" fill="#000000" fill-rule="nonzero" fill-opacity="1" /><polyline clip-path="url(#clip430)" style="stroke:#000000; stroke-linecap:round; stroke-linejoin:round; stroke-width:4; stroke-opacity:1; fill:none" points="255.816,1734.12 255.816,127.792 "/>
<polyline clip-path="url(#clip430)" style="stroke:#000000; stroke-linecap:round; stroke-linejoin:round; stroke-width:4; stroke-opacity:1; fill:none" points="255.816,1688.65 274.714,1688.65 "/>
<polyline clip-path="url(#clip430)" style="stroke:#000000; stroke-linecap:round; stroke-linejoin:round; stroke-width:4; stroke-opacity:1; fill:none" points="255.816,1309.77 274.714,1309.77 "/>
<polyline clip-path="url(#clip430)" style="stroke:#000000; stroke-linecap:round; stroke-linejoin:round; stroke-width:4; stroke-opacity:1; fill:none" points="255.816,930.879 274.714,930.879 "/>
<polyline clip-path="url(#clip430)" style="stroke:#000000; stroke-linecap:round; stroke-linejoin:round; stroke-width:4; stroke-opacity:1; fill:none" points="255.816,551.991 274.714,551.991 "/>
<polyline clip-path="url(#clip430)" style="stroke:#000000; stroke-linecap:round; stroke-linejoin:round; stroke-width:4; stroke-opacity:1; fill:none" points="255.816,173.103 274.714,173.103 "/>
<path clip-path="url(#clip430)" d="M128.159 1674.45 Q124.548 1674.45 122.719 1678.02 Q120.913 1681.56 120.913 1688.69 Q120.913 1695.8 122.719 1699.36 Q124.548 1702.9 128.159 1702.9 Q131.793 1702.9 133.599 1699.36 Q135.427 1695.8 135.427 1688.69 Q135.427 1681.56 133.599 1678.02 Q131.793 1674.45 128.159 1674.45 M128.159 1670.75 Q133.969 1670.75 137.025 1675.36 Q140.103 1679.94 140.103 1688.69 Q140.103 1697.42 137.025 1702.02 Q133.969 1706.61 128.159 1706.61 Q122.349 1706.61 119.27 1702.02 Q116.214 1697.42 116.214 1688.69 Q116.214 1679.94 119.27 1675.36 Q122.349 1670.75 128.159 1670.75 Z" fill="#000000" fill-rule="nonzero" fill-opacity="1" /><path clip-path="url(#clip430)" d="M148.321 1700.06 L153.205 1700.06 L153.205 1705.93 L148.321 1705.93 L148.321 1700.06 Z" fill="#000000" fill-rule="nonzero" fill-opacity="1" /><path clip-path="url(#clip430)" d="M173.39 1674.45 Q169.779 1674.45 167.95 1678.02 Q166.145 1681.56 166.145 1688.69 Q166.145 1695.8 167.95 1699.36 Q169.779 1702.9 173.39 1702.9 Q177.024 1702.9 178.83 1699.36 Q180.659 1695.8 180.659 1688.69 Q180.659 1681.56 178.83 1678.02 Q177.024 1674.45 173.39 1674.45 M173.39 1670.75 Q179.2 1670.75 182.256 1675.36 Q185.334 1679.94 185.334 1688.69 Q185.334 1697.42 182.256 1702.02 Q179.2 1706.61 173.39 1706.61 Q167.58 1706.61 164.501 1702.02 Q161.446 1697.42 161.446 1688.69 Q161.446 1679.94 164.501 1675.36 Q167.58 1670.75 173.39 1670.75 Z" fill="#000000" fill-rule="nonzero" fill-opacity="1" /><path clip-path="url(#clip430)" d="M203.552 1674.45 Q199.941 1674.45 198.112 1678.02 Q196.307 1681.56 196.307 1688.69 Q196.307 1695.8 198.112 1699.36 Q199.941 1702.9 203.552 1702.9 Q207.186 1702.9 208.992 1699.36 Q210.82 1695.8 210.82 1688.69 Q210.82 1681.56 208.992 1678.02 Q207.186 1674.45 203.552 1674.45 M203.552 1670.75 Q209.362 1670.75 212.418 1675.36 Q215.496 1679.94 215.496 1688.69 Q215.496 1697.42 212.418 1702.02 Q209.362 1706.61 203.552 1706.61 Q197.742 1706.61 194.663 1702.02 Q191.608 1697.42 191.608 1688.69 Q191.608 1679.94 194.663 1675.36 Q197.742 1670.75 203.552 1670.75 Z" fill="#000000" fill-rule="nonzero" fill-opacity="1" /><path clip-path="url(#clip430)" d="M129.154 1295.57 Q125.543 1295.57 123.714 1299.13 Q121.909 1302.67 121.909 1309.8 Q121.909 1316.91 123.714 1320.47 Q125.543 1324.01 129.154 1324.01 Q132.788 1324.01 134.594 1320.47 Q136.423 1316.91 136.423 1309.8 Q136.423 1302.67 134.594 1299.13 Q132.788 1295.57 129.154 1295.57 M129.154 1291.86 Q134.964 1291.86 138.02 1296.47 Q141.099 1301.05 141.099 1309.8 Q141.099 1318.53 138.02 1323.13 Q134.964 1327.72 129.154 1327.72 Q123.344 1327.72 120.265 1323.13 Q117.21 1318.53 117.21 1309.8 Q117.21 1301.05 120.265 1296.47 Q123.344 1291.86 129.154 1291.86 Z" fill="#000000" fill-rule="nonzero" fill-opacity="1" /><path clip-path="url(#clip430)" d="M149.316 1321.17 L154.2 1321.17 L154.2 1327.05 L149.316 1327.05 L149.316 1321.17 Z" fill="#000000" fill-rule="nonzero" fill-opacity="1" /><path clip-path="url(#clip430)" d="M168.413 1323.11 L184.733 1323.11 L184.733 1327.05 L162.788 1327.05 L162.788 1323.11 Q165.45 1320.36 170.034 1315.73 Q174.64 1311.07 175.821 1309.73 Q178.066 1307.21 178.946 1305.47 Q179.848 1303.71 179.848 1302.02 Q179.848 1299.27 177.904 1297.53 Q175.983 1295.8 172.881 1295.8 Q170.682 1295.8 168.228 1296.56 Q165.798 1297.32 163.02 1298.88 L163.02 1294.15 Q165.844 1293.02 168.297 1292.44 Q170.751 1291.86 172.788 1291.86 Q178.159 1291.86 181.353 1294.55 Q184.547 1297.23 184.547 1301.72 Q184.547 1303.85 183.737 1305.77 Q182.95 1307.67 180.844 1310.26 Q180.265 1310.94 177.163 1314.15 Q174.061 1317.35 168.413 1323.11 Z" fill="#000000" fill-rule="nonzero" fill-opacity="1" /><path clip-path="url(#clip430)" d="M194.594 1292.49 L212.95 1292.49 L212.95 1296.42 L198.876 1296.42 L198.876 1304.89 Q199.895 1304.55 200.913 1304.38 Q201.932 1304.2 202.95 1304.2 Q208.737 1304.2 212.117 1307.37 Q215.496 1310.54 215.496 1315.96 Q215.496 1321.54 212.024 1324.64 Q208.552 1327.72 202.233 1327.72 Q200.057 1327.72 197.788 1327.35 Q195.543 1326.98 193.135 1326.24 L193.135 1321.54 Q195.219 1322.67 197.441 1323.23 Q199.663 1323.78 202.14 1323.78 Q206.145 1323.78 208.482 1321.68 Q210.82 1319.57 210.82 1315.96 Q210.82 1312.35 208.482 1310.24 Q206.145 1308.13 202.14 1308.13 Q200.265 1308.13 198.39 1308.55 Q196.538 1308.97 194.594 1309.85 L194.594 1292.49 Z" fill="#000000" fill-rule="nonzero" fill-opacity="1" /><path clip-path="url(#clip430)" d="M128.159 916.677 Q124.548 916.677 122.719 920.242 Q120.913 923.784 120.913 930.914 Q120.913 938.02 122.719 941.585 Q124.548 945.126 128.159 945.126 Q131.793 945.126 133.599 941.585 Q135.427 938.02 135.427 930.914 Q135.427 923.784 133.599 920.242 Q131.793 916.677 128.159 916.677 M128.159 912.974 Q133.969 912.974 137.025 917.58 Q140.103 922.164 140.103 930.914 Q140.103 939.64 137.025 944.247 Q133.969 948.83 128.159 948.83 Q122.349 948.83 119.27 944.247 Q116.214 939.64 116.214 930.914 Q116.214 922.164 119.27 917.58 Q122.349 912.974 128.159 912.974 Z" fill="#000000" fill-rule="nonzero" fill-opacity="1" /><path clip-path="url(#clip430)" d="M148.321 942.279 L153.205 942.279 L153.205 948.159 L148.321 948.159 L148.321 942.279 Z" fill="#000000" fill-rule="nonzero" fill-opacity="1" /><path clip-path="url(#clip430)" d="M163.436 913.599 L181.793 913.599 L181.793 917.534 L167.719 917.534 L167.719 926.006 Q168.737 925.659 169.756 925.497 Q170.774 925.312 171.793 925.312 Q177.58 925.312 180.959 928.483 Q184.339 931.654 184.339 937.071 Q184.339 942.65 180.867 945.751 Q177.395 948.83 171.075 948.83 Q168.899 948.83 166.631 948.46 Q164.385 948.089 161.978 947.349 L161.978 942.65 Q164.061 943.784 166.284 944.339 Q168.506 944.895 170.983 944.895 Q174.987 944.895 177.325 942.788 Q179.663 940.682 179.663 937.071 Q179.663 933.46 177.325 931.353 Q174.987 929.247 170.983 929.247 Q169.108 929.247 167.233 929.664 Q165.381 930.08 163.436 930.96 L163.436 913.599 Z" fill="#000000" fill-rule="nonzero" fill-opacity="1" /><path clip-path="url(#clip430)" d="M203.552 916.677 Q199.941 916.677 198.112 920.242 Q196.307 923.784 196.307 930.914 Q196.307 938.02 198.112 941.585 Q199.941 945.126 203.552 945.126 Q207.186 945.126 208.992 941.585 Q210.82 938.02 210.82 930.914 Q210.82 923.784 208.992 920.242 Q207.186 916.677 203.552 916.677 M203.552 912.974 Q209.362 912.974 212.418 917.58 Q215.496 922.164 215.496 930.914 Q215.496 939.64 212.418 944.247 Q209.362 948.83 203.552 948.83 Q197.742 948.83 194.663 944.247 Q191.608 939.64 191.608 930.914 Q191.608 922.164 194.663 917.58 Q197.742 912.974 203.552 912.974 Z" fill="#000000" fill-rule="nonzero" fill-opacity="1" /><path clip-path="url(#clip430)" d="M129.154 537.789 Q125.543 537.789 123.714 541.354 Q121.909 544.896 121.909 552.025 Q121.909 559.132 123.714 562.697 Q125.543 566.238 129.154 566.238 Q132.788 566.238 134.594 562.697 Q136.423 559.132 136.423 552.025 Q136.423 544.896 134.594 541.354 Q132.788 537.789 129.154 537.789 M129.154 534.086 Q134.964 534.086 138.02 538.692 Q141.099 543.275 141.099 552.025 Q141.099 560.752 138.02 565.359 Q134.964 569.942 129.154 569.942 Q123.344 569.942 120.265 565.359 Q117.21 560.752 117.21 552.025 Q117.21 543.275 120.265 538.692 Q123.344 534.086 129.154 534.086 Z" fill="#000000" fill-rule="nonzero" fill-opacity="1" /><path clip-path="url(#clip430)" d="M149.316 563.391 L154.2 563.391 L154.2 569.271 L149.316 569.271 L149.316 563.391 Z" fill="#000000" fill-rule="nonzero" fill-opacity="1" /><path clip-path="url(#clip430)" d="M163.205 534.711 L185.427 534.711 L185.427 536.701 L172.881 569.271 L167.997 569.271 L179.802 538.646 L163.205 538.646 L163.205 534.711 Z" fill="#000000" fill-rule="nonzero" fill-opacity="1" /><path clip-path="url(#clip430)" d="M194.594 534.711 L212.95 534.711 L212.95 538.646 L198.876 538.646 L198.876 547.118 Q199.895 546.771 200.913 546.609 Q201.932 546.424 202.95 546.424 Q208.737 546.424 212.117 549.595 Q215.496 552.766 215.496 558.183 Q215.496 563.761 212.024 566.863 Q208.552 569.942 202.233 569.942 Q200.057 569.942 197.788 569.572 Q195.543 569.201 193.135 568.461 L193.135 563.761 Q195.219 564.896 197.441 565.451 Q199.663 566.007 202.14 566.007 Q206.145 566.007 208.482 563.9 Q210.82 561.794 210.82 558.183 Q210.82 554.572 208.482 552.465 Q206.145 550.359 202.14 550.359 Q200.265 550.359 198.39 550.775 Q196.538 551.192 194.594 552.072 L194.594 534.711 Z" fill="#000000" fill-rule="nonzero" fill-opacity="1" /><path clip-path="url(#clip430)" d="M118.969 186.447 L126.608 186.447 L126.608 160.082 L118.298 161.748 L118.298 157.489 L126.562 155.823 L131.238 155.823 L131.238 186.447 L138.876 186.447 L138.876 190.383 L118.969 190.383 L118.969 186.447 Z" fill="#000000" fill-rule="nonzero" fill-opacity="1" /><path clip-path="url(#clip430)" d="M148.321 184.503 L153.205 184.503 L153.205 190.383 L148.321 190.383 L148.321 184.503 Z" fill="#000000" fill-rule="nonzero" fill-opacity="1" /><path clip-path="url(#clip430)" d="M173.39 158.901 Q169.779 158.901 167.95 162.466 Q166.145 166.008 166.145 173.137 Q166.145 180.244 167.95 183.809 Q169.779 187.35 173.39 187.35 Q177.024 187.35 178.83 183.809 Q180.659 180.244 180.659 173.137 Q180.659 166.008 178.83 162.466 Q177.024 158.901 173.39 158.901 M173.39 155.198 Q179.2 155.198 182.256 159.804 Q185.334 164.387 185.334 173.137 Q185.334 181.864 182.256 186.471 Q179.2 191.054 173.39 191.054 Q167.58 191.054 164.501 186.471 Q161.446 181.864 161.446 173.137 Q161.446 164.387 164.501 159.804 Q167.58 155.198 173.39 155.198 Z" fill="#000000" fill-rule="nonzero" fill-opacity="1" /><path clip-path="url(#clip430)" d="M203.552 158.901 Q199.941 158.901 198.112 162.466 Q196.307 166.008 196.307 173.137 Q196.307 180.244 198.112 183.809 Q199.941 187.35 203.552 187.35 Q207.186 187.35 208.992 183.809 Q210.82 180.244 210.82 173.137 Q210.82 166.008 208.992 162.466 Q207.186 158.901 203.552 158.901 M203.552 155.198 Q209.362 155.198 212.418 159.804 Q215.496 164.387 215.496 173.137 Q215.496 181.864 212.418 186.471 Q209.362 191.054 203.552 191.054 Q197.742 191.054 194.663 186.471 Q191.608 181.864 191.608 173.137 Q191.608 164.387 194.663 159.804 Q197.742 155.198 203.552 155.198 Z" fill="#000000" fill-rule="nonzero" fill-opacity="1" /><path clip-path="url(#clip430)" d="M19.402 1086.72 L37.2578 1086.72 L37.2578 1078.64 Q37.2578 1074.15 34.9343 1071.7 Q32.6108 1069.25 28.314 1069.25 Q24.0489 1069.25 21.7255 1071.7 Q19.402 1074.15 19.402 1078.64 L19.402 1086.72 M14.1184 1093.15 L14.1184 1078.64 Q14.1184 1070.65 17.7469 1066.58 Q21.3435 1062.47 28.314 1062.47 Q35.3481 1062.47 38.9447 1066.58 Q42.5413 1070.65 42.5413 1078.64 L42.5413 1086.72 L61.6384 1086.72 L61.6384 1093.15 L14.1184 1093.15 Z" fill="#000000" fill-rule="nonzero" fill-opacity="1" /><path clip-path="url(#clip430)" d="M31.465 1034.59 Q30.8921 1035.57 30.6375 1036.75 Q30.351 1037.9 30.351 1039.3 Q30.351 1044.26 33.5975 1046.94 Q36.8122 1049.58 42.8596 1049.58 L61.6384 1049.58 L61.6384 1055.47 L25.9905 1055.47 L25.9905 1049.58 L31.5287 1049.58 Q28.2821 1047.73 26.7225 1044.77 Q25.1311 1041.81 25.1311 1037.58 Q25.1311 1036.98 25.2266 1036.24 Q25.2903 1035.51 25.4494 1034.62 L31.465 1034.59 Z" fill="#000000" fill-rule="nonzero" fill-opacity="1" /><path clip-path="url(#clip430)" d="M30.0964 1016.06 Q30.0964 1020.77 33.7885 1023.51 Q37.4488 1026.25 43.8463 1026.25 Q50.2438 1026.25 53.9359 1023.54 Q57.5962 1020.81 57.5962 1016.06 Q57.5962 1011.39 53.9041 1008.65 Q50.212 1005.91 43.8463 1005.91 Q37.5124 1005.91 33.8203 1008.65 Q30.0964 1011.39 30.0964 1016.06 M25.1311 1016.06 Q25.1311 1008.43 30.0964 1004.06 Q35.0616 999.704 43.8463 999.704 Q52.5991 999.704 57.5962 1004.06 Q62.5615 1008.43 62.5615 1016.06 Q62.5615 1023.73 57.5962 1028.1 Q52.5991 1032.42 43.8463 1032.42 Q35.0616 1032.42 30.0964 1028.1 Q25.1311 1023.73 25.1311 1016.06 Z" fill="#000000" fill-rule="nonzero" fill-opacity="1" /><path clip-path="url(#clip430)" d="M56.2912 984.331 L75.1974 984.331 L75.1974 990.219 L25.9905 990.219 L25.9905 984.331 L31.4013 984.331 Q28.2185 982.485 26.6907 979.684 Q25.1311 976.851 25.1311 972.936 Q25.1311 966.443 30.2873 962.401 Q35.4436 958.327 43.8463 958.327 Q52.249 958.327 57.4052 962.401 Q62.5615 966.443 62.5615 972.936 Q62.5615 976.851 61.0337 979.684 Q59.4741 982.485 56.2912 984.331 M43.8463 964.406 Q37.3851 964.406 33.7248 967.08 Q30.0327 969.722 30.0327 974.369 Q30.0327 979.016 33.7248 981.689 Q37.3851 984.331 43.8463 984.331 Q50.3075 984.331 53.9996 981.689 Q57.6599 979.016 57.6599 974.369 Q57.6599 969.722 53.9996 967.08 Q50.3075 964.406 43.8463 964.406 Z" fill="#000000" fill-rule="nonzero" fill-opacity="1" /><path clip-path="url(#clip430)" d="M30.0964 934.806 Q30.0964 939.516 33.7885 942.254 Q37.4488 944.991 43.8463 944.991 Q50.2438 944.991 53.9359 942.286 Q57.5962 939.548 57.5962 934.806 Q57.5962 930.127 53.9041 927.39 Q50.212 924.653 43.8463 924.653 Q37.5124 924.653 33.8203 927.39 Q30.0964 930.127 30.0964 934.806 M25.1311 934.806 Q25.1311 927.167 30.0964 922.806 Q35.0616 918.446 43.8463 918.446 Q52.5991 918.446 57.5962 922.806 Q62.5615 927.167 62.5615 934.806 Q62.5615 942.476 57.5962 946.837 Q52.5991 951.166 43.8463 951.166 Q35.0616 951.166 30.0964 946.837 Q25.1311 942.476 25.1311 934.806 Z" fill="#000000" fill-rule="nonzero" fill-opacity="1" /><path clip-path="url(#clip430)" d="M31.465 888.082 Q30.8921 889.068 30.6375 890.246 Q30.351 891.392 30.351 892.792 Q30.351 897.757 33.5975 900.431 Q36.8122 903.073 42.8596 903.073 L61.6384 903.073 L61.6384 908.961 L25.9905 908.961 L25.9905 903.073 L31.5287 903.073 Q28.2821 901.227 26.7225 898.267 Q25.1311 895.307 25.1311 891.073 Q25.1311 890.469 25.2266 889.737 Q25.2903 889.005 25.4494 888.113 L31.465 888.082 Z" fill="#000000" fill-rule="nonzero" fill-opacity="1" /><path clip-path="url(#clip430)" d="M15.869 876.146 L25.9905 876.146 L25.9905 864.083 L30.542 864.083 L30.542 876.146 L49.8937 876.146 Q54.2542 876.146 55.4955 874.968 Q56.7368 873.759 56.7368 870.098 L56.7368 864.083 L61.6384 864.083 L61.6384 870.098 Q61.6384 876.878 59.124 879.456 Q56.5777 882.034 49.8937 882.034 L30.542 882.034 L30.542 886.331 L25.9905 886.331 L25.9905 882.034 L15.869 882.034 L15.869 876.146 Z" fill="#000000" fill-rule="nonzero" fill-opacity="1" /><path clip-path="url(#clip430)" d="M25.9905 856.38 L25.9905 850.524 L61.6384 850.524 L61.6384 856.38 L25.9905 856.38 M12.1132 856.38 L12.1132 850.524 L19.5293 850.524 L19.5293 856.38 L12.1132 856.38 Z" fill="#000000" fill-rule="nonzero" fill-opacity="1" /><path clip-path="url(#clip430)" d="M30.0964 824.456 Q30.0964 829.167 33.7885 831.904 Q37.4488 834.641 43.8463 834.641 Q50.2438 834.641 53.9359 831.936 Q57.5962 829.199 57.5962 824.456 Q57.5962 819.777 53.9041 817.04 Q50.212 814.303 43.8463 814.303 Q37.5124 814.303 33.8203 817.04 Q30.0964 819.777 30.0964 824.456 M25.1311 824.456 Q25.1311 816.817 30.0964 812.457 Q35.0616 808.096 43.8463 808.096 Q52.5991 808.096 57.5962 812.457 Q62.5615 816.817 62.5615 824.456 Q62.5615 832.127 57.5962 836.487 Q52.5991 840.816 43.8463 840.816 Q35.0616 840.816 30.0964 836.487 Q25.1311 832.127 25.1311 824.456 Z" fill="#000000" fill-rule="nonzero" fill-opacity="1" /><path clip-path="url(#clip430)" d="M40.1224 768.756 L61.6384 768.756 L61.6384 774.613 L40.3133 774.613 Q35.2526 774.613 32.7381 776.586 Q30.2237 778.56 30.2237 782.506 Q30.2237 787.249 33.2474 789.986 Q36.2711 792.723 41.491 792.723 L61.6384 792.723 L61.6384 798.612 L25.9905 798.612 L25.9905 792.723 L31.5287 792.723 Q28.314 790.623 26.7225 787.79 Q25.1311 784.925 25.1311 781.201 Q25.1311 775.058 28.9505 771.907 Q32.7381 768.756 40.1224 768.756 Z" fill="#000000" fill-rule="nonzero" fill-opacity="1" /><path clip-path="url(#clip430)" d="M1045.85 72.576 L1022.76 12.096 L1031.31 12.096 L1050.47 63.0159 L1069.67 12.096 L1078.18 12.096 L1055.13 72.576 L1045.85 72.576 Z" fill="#000000" fill-rule="nonzero" fill-opacity="1" /><path clip-path="url(#clip430)" d="M1119.05 48.0275 L1119.05 51.6733 L1084.78 51.6733 Q1085.26 59.3701 1089.4 63.421 Q1093.57 67.4314 1100.98 67.4314 Q1105.28 67.4314 1109.29 66.3781 Q1113.34 65.3249 1117.31 63.2184 L1117.31 70.267 Q1113.3 71.9684 1109.08 72.8596 Q1104.87 73.7508 1100.54 73.7508 Q1089.68 73.7508 1083.32 67.4314 Q1077 61.1119 1077 50.3365 Q1077 39.1965 1083 32.6746 Q1089.03 26.1121 1099.24 26.1121 Q1108.39 26.1121 1113.7 32.0264 Q1119.05 37.9003 1119.05 48.0275 M1111.6 45.84 Q1111.51 39.7232 1108.15 36.0774 Q1104.83 32.4315 1099.32 32.4315 Q1093.08 32.4315 1089.32 35.9558 Q1085.59 39.4801 1085.02 45.8805 L1111.6 45.84 Z" fill="#000000" fill-rule="nonzero" fill-opacity="1" /><path clip-path="url(#clip430)" d="M1163.93 28.9478 L1163.93 35.9153 Q1160.77 34.1734 1157.57 33.3227 Q1154.41 32.4315 1151.17 32.4315 Q1143.92 32.4315 1139.91 37.0496 Q1135.9 41.6271 1135.9 49.9314 Q1135.9 58.2358 1139.91 62.8538 Q1143.92 67.4314 1151.17 67.4314 Q1154.41 67.4314 1157.57 66.5807 Q1160.77 65.6895 1163.93 63.9476 L1163.93 70.8341 Q1160.81 72.2924 1157.45 73.0216 Q1154.13 73.7508 1150.36 73.7508 Q1140.11 73.7508 1134.08 67.3098 Q1128.04 60.8689 1128.04 49.9314 Q1128.04 38.832 1134.12 32.472 Q1140.24 26.1121 1150.85 26.1121 Q1154.29 26.1121 1157.57 26.8413 Q1160.85 27.5299 1163.93 28.9478 Z" fill="#000000" fill-rule="nonzero" fill-opacity="1" /><path clip-path="url(#clip430)" d="M1184.27 14.324 L1184.27 27.2059 L1199.62 27.2059 L1199.62 32.9987 L1184.27 32.9987 L1184.27 57.6282 Q1184.27 63.1779 1185.77 64.7578 Q1187.31 66.3376 1191.97 66.3376 L1199.62 66.3376 L1199.62 72.576 L1191.97 72.576 Q1183.34 72.576 1180.06 69.3758 Q1176.77 66.1351 1176.77 57.6282 L1176.77 32.9987 L1171.31 32.9987 L1171.31 27.2059 L1176.77 27.2059 L1176.77 14.324 L1184.27 14.324 Z" fill="#000000" fill-rule="nonzero" fill-opacity="1" /><path clip-path="url(#clip430)" d="M1227.01 32.4315 Q1221.01 32.4315 1217.53 37.1306 Q1214.04 41.7891 1214.04 49.9314 Q1214.04 58.0738 1217.49 62.7728 Q1220.97 67.4314 1227.01 67.4314 Q1232.96 67.4314 1236.44 62.7323 Q1239.93 58.0333 1239.93 49.9314 Q1239.93 41.8701 1236.44 37.1711 Q1232.96 32.4315 1227.01 32.4315 M1227.01 26.1121 Q1236.73 26.1121 1242.28 32.4315 Q1247.83 38.7509 1247.83 49.9314 Q1247.83 61.0714 1242.28 67.4314 Q1236.73 73.7508 1227.01 73.7508 Q1217.24 73.7508 1211.69 67.4314 Q1206.18 61.0714 1206.18 49.9314 Q1206.18 38.7509 1211.69 32.4315 Q1217.24 26.1121 1227.01 26.1121 Z" fill="#000000" fill-rule="nonzero" fill-opacity="1" /><path clip-path="url(#clip430)" d="M1286.47 34.1734 Q1285.22 33.4443 1283.72 33.1202 Q1282.26 32.7556 1280.48 32.7556 Q1274.16 32.7556 1270.76 36.8875 Q1267.39 40.9789 1267.39 48.6757 L1267.39 72.576 L1259.9 72.576 L1259.9 27.2059 L1267.39 27.2059 L1267.39 34.2544 Q1269.74 30.1225 1273.51 28.1376 Q1277.28 26.1121 1282.66 26.1121 Q1283.43 26.1121 1284.37 26.2337 Q1285.3 26.3147 1286.43 26.5172 L1286.47 34.1734 Z" fill="#000000" fill-rule="nonzero" fill-opacity="1" /><path clip-path="url(#clip430)" d="M1357.24 14.0809 L1357.24 22.0612 Q1352.58 19.8332 1348.45 18.7395 Q1344.32 17.6457 1340.47 17.6457 Q1333.79 17.6457 1330.14 20.2383 Q1326.54 22.8309 1326.54 27.611 Q1326.54 31.6214 1328.93 33.6873 Q1331.36 35.7128 1338.08 36.9686 L1343.02 37.9813 Q1352.18 39.7232 1356.51 44.1387 Q1360.89 48.5136 1360.89 55.8863 Q1360.89 64.6767 1354.97 69.2137 Q1349.1 73.7508 1337.72 73.7508 Q1333.42 73.7508 1328.56 72.7785 Q1323.74 71.8063 1318.56 69.9024 L1318.56 61.4765 Q1323.54 64.2716 1328.32 65.6895 Q1333.1 67.1073 1337.72 67.1073 Q1344.72 67.1073 1348.53 64.3527 Q1352.34 61.598 1352.34 56.4939 Q1352.34 52.0379 1349.59 49.5264 Q1346.87 47.0148 1340.63 45.759 L1335.65 44.7868 Q1326.5 42.9639 1322.4 39.075 Q1318.31 35.1862 1318.31 28.2591 Q1318.31 20.2383 1323.94 15.6203 Q1329.61 11.0023 1339.54 11.0023 Q1343.79 11.0023 1348.21 11.7719 Q1352.62 12.5416 1357.24 14.0809 Z" fill="#000000" fill-rule="nonzero" fill-opacity="1" /><path clip-path="url(#clip430)" d="M1373.65 12.096 L1411.89 12.096 L1411.89 18.9825 L1381.83 18.9825 L1381.83 36.8875 L1410.63 36.8875 L1410.63 43.7741 L1381.83 43.7741 L1381.83 65.6895 L1412.62 65.6895 L1412.62 72.576 L1373.65 72.576 L1373.65 12.096 Z" fill="#000000" fill-rule="nonzero" fill-opacity="1" /><path clip-path="url(#clip430)" d="M1426.07 12.096 L1434.25 12.096 L1434.25 72.576 L1426.07 72.576 L1426.07 12.096 Z" fill="#000000" fill-rule="nonzero" fill-opacity="1" /><path clip-path="url(#clip430)" d="M1485.09 18.8205 L1485.09 65.8515 L1494.97 65.8515 Q1507.49 65.8515 1513.28 60.1802 Q1519.12 54.509 1519.12 42.2752 Q1519.12 30.1225 1513.28 24.4918 Q1507.49 18.8205 1494.97 18.8205 L1485.09 18.8205 M1476.91 12.096 L1493.72 12.096 Q1511.3 12.096 1519.52 19.4281 Q1527.74 26.7198 1527.74 42.2752 Q1527.74 57.9117 1519.48 65.2439 Q1511.22 72.576 1493.72 72.576 L1476.91 72.576 L1476.91 12.096 Z" fill="#000000" fill-rule="nonzero" fill-opacity="1" /><path clip-path="url(#clip430)" d="M1559.34 76.7889 Q1556.18 84.8907 1553.18 87.3618 Q1550.19 89.8329 1545.16 89.8329 L1539.21 89.8329 L1539.21 83.5945 L1543.58 83.5945 Q1546.66 83.5945 1548.36 82.1361 Q1550.07 80.6778 1552.13 75.2496 L1553.47 71.8468 L1535.12 27.2059 L1543.02 27.2059 L1557.19 62.6918 L1571.37 27.2059 L1579.27 27.2059 L1559.34 76.7889 Z" fill="#000000" fill-rule="nonzero" fill-opacity="1" /><path clip-path="url(#clip430)" d="M1627.28 45.1919 L1627.28 72.576 L1619.82 72.576 L1619.82 45.4349 Q1619.82 38.994 1617.31 35.7938 Q1614.8 32.5936 1609.78 32.5936 Q1603.74 32.5936 1600.26 36.4419 Q1596.77 40.2903 1596.77 46.9338 L1596.77 72.576 L1589.28 72.576 L1589.28 27.2059 L1596.77 27.2059 L1596.77 34.2544 Q1599.45 30.163 1603.05 28.1376 Q1606.7 26.1121 1611.44 26.1121 Q1619.25 26.1121 1623.26 30.9732 Q1627.28 35.7938 1627.28 45.1919 Z" fill="#000000" fill-rule="nonzero" fill-opacity="1" /><path clip-path="url(#clip430)" d="M1662.76 49.7694 Q1653.73 49.7694 1650.24 51.8354 Q1646.76 53.9013 1646.76 58.8839 Q1646.76 62.8538 1649.35 65.2034 Q1651.99 67.5124 1656.48 67.5124 Q1662.68 67.5124 1666.41 63.1374 Q1670.17 58.7219 1670.17 51.4303 L1670.17 49.7694 L1662.76 49.7694 M1677.63 46.6907 L1677.63 72.576 L1670.17 72.576 L1670.17 65.6895 Q1667.62 69.8214 1663.81 71.8063 Q1660.01 73.7508 1654.5 73.7508 Q1647.53 73.7508 1643.4 69.8619 Q1639.31 65.9325 1639.31 59.3701 Q1639.31 51.7138 1644.41 47.825 Q1649.56 43.9361 1659.72 43.9361 L1670.17 43.9361 L1670.17 43.2069 Q1670.17 38.0623 1666.77 35.2672 Q1663.41 32.4315 1657.29 32.4315 Q1653.4 32.4315 1649.72 33.3632 Q1646.03 34.295 1642.63 36.1584 L1642.63 29.2718 Q1646.72 27.692 1650.57 26.9223 Q1654.42 26.1121 1658.06 26.1121 Q1667.91 26.1121 1672.77 31.2163 Q1677.63 36.3204 1677.63 46.6907 Z" fill="#000000" fill-rule="nonzero" fill-opacity="1" /><path clip-path="url(#clip430)" d="M1728.3 35.9153 Q1731.1 30.8922 1734.99 28.5022 Q1738.88 26.1121 1744.14 26.1121 Q1751.23 26.1121 1755.08 31.0947 Q1758.93 36.0368 1758.93 45.1919 L1758.93 72.576 L1751.44 72.576 L1751.44 45.4349 Q1751.44 38.913 1749.13 35.7533 Q1746.82 32.5936 1742.08 32.5936 Q1736.29 32.5936 1732.92 36.4419 Q1729.56 40.2903 1729.56 46.9338 L1729.56 72.576 L1722.07 72.576 L1722.07 45.4349 Q1722.07 38.8725 1719.76 35.7533 Q1717.45 32.5936 1712.63 32.5936 Q1706.92 32.5936 1703.55 36.4824 Q1700.19 40.3308 1700.19 46.9338 L1700.19 72.576 L1692.7 72.576 L1692.7 27.2059 L1700.19 27.2059 L1700.19 34.2544 Q1702.74 30.082 1706.31 28.0971 Q1709.87 26.1121 1714.77 26.1121 Q1719.72 26.1121 1723.16 28.6237 Q1726.64 31.1352 1728.3 35.9153 Z" fill="#000000" fill-rule="nonzero" fill-opacity="1" /><path clip-path="url(#clip430)" d="M1773.8 27.2059 L1781.25 27.2059 L1781.25 72.576 L1773.8 72.576 L1773.8 27.2059 M1773.8 9.54393 L1781.25 9.54393 L1781.25 18.9825 L1773.8 18.9825 L1773.8 9.54393 Z" fill="#000000" fill-rule="nonzero" fill-opacity="1" /><path clip-path="url(#clip430)" d="M1829.5 28.9478 L1829.5 35.9153 Q1826.34 34.1734 1823.14 33.3227 Q1819.98 32.4315 1816.74 32.4315 Q1809.48 32.4315 1805.47 37.0496 Q1801.46 41.6271 1801.46 49.9314 Q1801.46 58.2358 1805.47 62.8538 Q1809.48 67.4314 1816.74 67.4314 Q1819.98 67.4314 1823.14 66.5807 Q1826.34 65.6895 1829.5 63.9476 L1829.5 70.8341 Q1826.38 72.2924 1823.02 73.0216 Q1819.69 73.7508 1815.93 73.7508 Q1805.68 73.7508 1799.64 67.3098 Q1793.61 60.8689 1793.61 49.9314 Q1793.61 38.832 1799.68 32.472 Q1805.8 26.1121 1816.41 26.1121 Q1819.86 26.1121 1823.14 26.8413 Q1826.42 27.5299 1829.5 28.9478 Z" fill="#000000" fill-rule="nonzero" fill-opacity="1" /><path clip-path="url(#clip430)" d="M1871.38 28.5427 L1871.38 35.5912 Q1868.22 33.9709 1864.82 33.1607 Q1861.42 32.3505 1857.77 32.3505 Q1852.22 32.3505 1849.43 34.0519 Q1846.67 35.7533 1846.67 39.156 Q1846.67 41.7486 1848.66 43.2475 Q1850.64 44.7058 1856.64 46.0426 L1859.19 46.6097 Q1867.13 48.3111 1870.45 51.4303 Q1873.81 54.509 1873.81 60.0587 Q1873.81 66.3781 1868.79 70.0644 Q1863.81 73.7508 1855.06 73.7508 Q1851.41 73.7508 1847.44 73.0216 Q1843.51 72.3329 1839.14 70.9151 L1839.14 63.2184 Q1843.27 65.3654 1847.28 66.4591 Q1851.29 67.5124 1855.22 67.5124 Q1860.49 67.5124 1863.32 65.73 Q1866.16 63.9071 1866.16 60.6258 Q1866.16 57.5877 1864.09 55.9673 Q1862.07 54.3469 1855.14 52.8481 L1852.55 52.2405 Q1845.62 50.7821 1842.54 47.7845 Q1839.46 44.7463 1839.46 39.4801 Q1839.46 33.0797 1844 29.5959 Q1848.54 26.1121 1856.88 26.1121 Q1861.01 26.1121 1864.66 26.7198 Q1868.3 27.3274 1871.38 28.5427 Z" fill="#000000" fill-rule="nonzero" fill-opacity="1" /><polyline clip-path="url(#clip431)" style="stroke:#0000ff; stroke-linecap:round; stroke-linejoin:round; stroke-width:8; stroke-opacity:1; fill:none" points="323.315,173.254 326.397,173.263 329.479,173.272 332.561,173.281 335.643,173.289 338.725,173.298 341.807,173.306 344.889,173.315 347.972,173.323 351.054,173.331 354.136,173.339 357.218,173.346 360.3,173.354 363.382,173.361 366.464,173.369 369.546,173.376 372.628,173.383 375.711,173.39 378.793,173.397 381.875,173.403 384.957,173.409 388.039,173.415 391.121,173.421 394.203,173.427 397.285,173.432 400.367,173.436 403.45,173.441 406.532,173.445 409.614,173.449 412.696,173.452 415.778,173.455 418.86,173.458 421.942,173.46 425.024,173.463 428.106,173.465 431.189,173.466 434.271,173.468 437.353,173.47 440.435,173.471 443.517,173.472 446.599,173.473 449.681,173.475 452.763,173.476 455.845,173.477 458.928,173.478 462.01,173.479 465.092,173.48 468.174,173.481 471.256,173.483 474.338,173.484 477.42,173.485 480.502,173.487 483.585,173.489 486.667,173.49 489.749,173.492 492.831,173.494 495.913,173.496 498.995,173.499 502.077,173.501 505.159,173.504 508.241,173.506 511.324,173.509 514.406,173.512 517.488,173.515 520.57,173.518 523.652,173.522 526.734,173.525 529.816,173.529 532.898,173.532 535.98,173.536 539.063,173.54 542.145,173.544 545.227,173.549 548.309,173.553 551.391,173.557 554.473,173.562 557.555,173.567 560.637,173.571 563.719,173.576 566.802,173.581 569.884,173.586 572.966,173.591 576.048,173.596 579.13,173.602 582.212,173.607 585.294,173.612 588.376,173.618 591.459,173.623 594.541,173.629 597.623,173.634 600.705,173.64 603.787,173.646 606.869,173.651 609.951,173.657 613.033,173.663 616.115,173.669 619.198,173.675 622.28,173.681 625.362,173.687 628.444,173.693 631.526,173.699 634.608,173.705 637.69,173.711 640.772,173.717 643.854,173.723 646.937,173.729 650.019,173.735 653.101,173.742 656.183,173.748 659.265,173.754 662.347,173.76 665.429,173.767 668.511,173.773 671.593,173.78 674.676,173.786 677.758,173.792 680.84,173.799 683.922,173.806 687.004,173.812 690.086,173.819 693.168,173.826 696.25,173.832 699.332,173.839 702.415,173.846 705.497,173.853 708.579,173.86 711.661,173.867 714.743,173.874 717.825,173.881 720.907,173.888 723.989,173.895 727.072,173.903 730.154,173.91 733.236,173.918 736.318,173.925 739.4,173.933 742.482,173.94 745.564,173.948 748.646,173.956 751.728,173.964 754.811,173.972 757.893,173.98 760.975,173.988 764.057,173.996 767.139,174.004 770.221,174.013 773.303,174.021 776.385,174.03 779.467,174.038 782.55,174.047 785.632,174.056 788.714,174.064 791.796,174.073 794.878,174.082 797.96,174.091 801.042,174.101 804.124,174.11 807.206,174.119 810.289,174.129 813.371,174.138 816.453,174.148 819.535,174.158 822.617,174.168 825.699,174.178 828.781,174.188 831.863,174.198 834.945,174.208 838.028,174.218 841.11,174.229 844.192,174.239 847.274,174.25 850.356,174.261 853.438,174.271 856.52,174.282 859.602,174.293 862.685,174.304 865.767,174.316 868.849,174.327 871.931,174.338 875.013,174.35 878.095,174.362 881.177,174.373 884.259,174.385 887.341,174.397 890.424,174.409 893.506,174.421 896.588,174.434 899.67,174.446 902.752,174.458 905.834,174.471 908.916,174.484 911.998,174.496 915.08,174.509 918.163,174.522 921.245,174.536 924.327,174.549 927.409,174.562 930.491,174.576 933.573,174.589 936.655,174.603 939.737,174.617 942.819,174.631 945.902,174.645 948.984,174.659 952.066,174.674 955.148,174.688 958.23,174.703 961.312,174.717 964.394,174.732 967.476,174.747 970.558,174.762 973.641,174.777 976.723,174.793 979.805,174.808 982.887,174.824 985.969,174.84 989.051,174.856 992.133,174.872 995.215,174.888 998.298,174.904 1001.38,174.921 1004.46,174.937 1007.54,174.954 1010.63,174.971 1013.71,174.988 1016.79,175.005 1019.87,175.023 1022.95,175.04 1026.04,175.058 1029.12,175.076 1032.2,175.093 1035.28,175.112 1038.36,175.13 1041.45,175.148 1044.53,175.167 1047.61,175.186 1050.69,175.204 1053.78,175.224 1056.86,175.243 1059.94,175.262 1063.02,175.282 1066.1,175.301 1069.19,175.321 1072.27,175.341 1075.35,175.362 1078.43,175.382 1081.51,175.402 1084.6,175.423 1087.68,175.444 1090.76,175.465 1093.84,175.486 1096.93,175.508 1100.01,175.529 1103.09,175.551 1106.17,175.573 1109.25,175.595 1112.34,175.618 1115.42,175.64 1118.5,175.663 1121.58,175.686 1124.66,175.709 1127.75,175.732 1130.83,175.756 1133.91,175.779 1136.99,175.803 1140.07,175.827 1143.16,175.852 1146.24,175.876 1149.32,175.901 1152.4,175.926 1155.49,175.951 1158.57,175.976 1161.65,176.001 1164.73,176.027 1167.81,176.053 1170.9,176.079 1173.98,176.105 1177.06,176.132 1180.14,176.159 1183.22,176.186 1186.31,176.213 1189.39,176.24 1192.47,176.268 1195.55,176.296 1198.63,176.324 1201.72,176.352 1204.8,176.38 1207.88,176.409 1210.96,176.438 1214.05,176.467 1217.13,176.496 1220.21,176.526 1223.29,176.556 1226.37,176.586 1229.46,176.616 1232.54,176.647 1235.62,176.678 1238.7,176.709 1241.78,176.74 1244.87,176.771 1247.95,176.803 1251.03,176.835 1254.11,176.867 1257.2,176.9 1260.28,176.932 1263.36,176.965 1266.44,176.998 1269.52,177.032 1272.61,177.066 1275.69,177.1 1278.77,177.134 1281.85,177.168 1284.93,177.203 1288.02,177.238 1291.1,177.273 1294.18,177.309 1297.26,177.344 1300.34,177.38 1303.43,177.417 1306.51,177.453 1309.59,177.49 1312.67,177.527 1315.76,177.564 1318.84,177.602 1321.92,177.64 1325,177.678 1328.08,177.716 1331.17,177.755 1334.25,177.794 1337.33,177.833 1340.41,177.873 1343.49,177.913 1346.58,177.953 1349.66,177.993 1352.74,178.034 1355.82,178.074 1358.9,178.116 1361.99,178.157 1365.07,178.199 1368.15,178.241 1371.23,178.283 1374.32,178.326 1377.4,178.369 1380.48,178.412 1383.56,178.455 1386.64,178.499 1389.73,178.543 1392.81,178.587 1395.89,178.632 1398.97,178.677 1402.05,178.722 1405.14,178.768 1408.22,178.813 1411.3,178.859 1414.38,178.906 1417.46,178.953 1420.55,178.999 1423.63,179.047 1426.71,179.094 1429.79,179.142 1432.88,179.19 1435.96,179.239 1439.04,179.287 1442.12,179.336 1445.2,179.386 1448.29,179.435 1451.37,179.485 1454.45,179.536 1457.53,179.586 1460.61,179.637 1463.7,179.688 1466.78,179.739 1469.86,179.791 1472.94,179.843 1476.03,179.895 1479.11,179.948 1482.19,180.001 1485.27,180.054 1488.35,180.108 1491.44,180.161 1494.52,180.215 1497.6,180.27 1500.68,180.325 1503.76,180.38 1506.85,180.435 1509.93,180.49 1513.01,180.546 1516.09,180.602 1519.17,180.659 1522.26,180.715 1525.34,180.772 1528.42,180.83 1531.5,180.887 1534.59,180.945 1537.67,181.003 1540.75,181.062 1543.83,181.121 1546.91,181.18 1550,181.239 1553.08,181.298 1556.16,181.358 1559.24,181.418 1562.32,181.479 1565.41,181.539 1568.49,181.6 1571.57,181.662 1574.65,181.723 1577.73,181.785 1580.82,181.847 1583.9,181.909 1586.98,181.972 1590.06,182.034 1593.15,182.097 1596.23,182.161 1599.31,182.224 1602.39,182.288 1605.47,182.352 1608.56,182.417 1611.64,182.481 1614.72,182.546 1617.8,182.611 1620.88,182.676 1623.97,182.742 1627.05,182.807 1630.13,182.873 1633.21,182.939 1636.3,183.006 1639.38,183.072 1642.46,183.139 1645.54,183.206 1648.62,183.274 1651.71,183.341 1654.79,183.409 1657.87,183.477 1660.95,183.545 1664.03,183.613 1667.12,183.681 1670.2,183.75 1673.28,183.819 1676.36,183.887 1679.44,183.957 1682.53,184.026 1685.61,184.095 1688.69,184.165 1691.77,184.235 1694.86,184.305 1697.94,184.375 1701.02,184.445 1704.1,184.515 1707.18,184.586 1710.27,184.656 1713.35,184.727 1716.43,184.798 1719.51,184.869 1722.59,184.94 1725.68,185.011 1728.76,185.082 1731.84,185.153 1734.92,185.225 1738,185.296 1741.09,185.368 1744.17,185.439 1747.25,185.511 1750.33,185.583 1753.42,185.654 1756.5,185.726 1759.58,185.798 1762.66,185.87 1765.74,185.942 1768.83,186.014 1771.91,186.086 1774.99,186.158 1778.07,186.23 1781.15,186.302 1784.24,186.373 1787.32,186.445 1790.4,186.517 1793.48,186.589 1796.56,186.661 1799.65,186.733 1802.73,186.804 1805.81,186.876 1808.89,186.947 1811.98,187.019 1815.06,187.09 1818.14,187.161 1821.22,187.233 1824.3,187.304 1827.39,187.375 1830.47,187.445 1833.55,187.516 1836.63,187.587 1839.71,187.657 1842.8,187.727 1845.88,187.798 1848.96,187.867 1852.04,187.937 1855.13,188.007 1858.21,188.076 1861.29,188.145 1864.37,188.214 1867.45,188.283 1870.54,188.351 1873.62,188.42 1876.7,188.488 1879.78,188.555 1882.86,188.623 1885.95,188.69 1889.03,188.757 1892.11,188.824 1895.19,188.89 1898.27,188.956 1901.36,189.022 1904.44,189.087 1907.52,189.152 1910.6,189.217 1913.69,189.282 1916.77,189.346 1919.85,189.409 1922.93,189.473 1926.01,189.535 1929.1,189.598 1932.18,189.66 1935.26,189.722 1938.34,189.783 1941.42,189.844 1944.51,189.904 1947.59,189.964 1950.67,190.024 1953.75,190.083 1956.83,190.142 1959.92,190.2 1963,190.257 1966.08,190.314 1969.16,190.371 1972.25,190.427 1975.33,190.483 1978.41,190.538 1981.49,190.592 1984.57,190.646 1987.66,190.7 1990.74,190.753 1993.82,190.805 1996.9,190.857 1999.98,190.908 2003.07,190.958 2006.15,191.008 2009.23,191.057 2012.31,191.106 2015.4,191.154 2018.48,191.202 2021.56,191.248 2024.64,191.295 2027.72,191.34 2030.81,191.385 2033.89,191.429 2036.97,191.472 2040.05,191.515 2043.13,191.557 2046.22,191.599 2049.3,191.639 2052.38,191.679 2055.46,191.718 2058.54,191.757 2061.63,191.795 2064.71,191.832 2067.79,191.868 2070.87,191.903 2073.96,191.938 2077.04,191.972 2080.12,192.005 2083.2,192.038 2086.28,192.069 2089.37,192.1 2092.45,192.13 2095.53,192.159 2098.61,192.188 2101.69,192.215 2104.78,192.242 2107.86,192.268 2110.94,192.293 2114.02,192.318 2117.1,192.341 2120.19,192.364 2123.27,192.386 2126.35,192.407 2129.43,192.427 2132.52,192.446 2135.6,192.464 2138.68,192.482 2141.76,192.499 2144.84,192.514 2147.93,192.529 2151.01,192.543 2154.09,192.557 2157.17,192.569 2160.25,192.58 2163.34,192.591 2166.42,192.601 2169.5,192.609 2172.58,192.617 2175.66,192.624 2178.75,192.63 2181.83,192.636 2184.91,192.64 2187.99,192.643 2191.08,192.646 2194.16,192.648 2197.24,192.648 2200.32,192.648 2203.4,192.647 2206.49,192.645 2209.57,192.643 2212.65,192.639 2215.73,192.634 2218.81,192.629 2221.9,192.623 2224.98,192.615 2228.06,192.607 2231.14,192.598 2234.23,192.588 2237.31,192.577 2240.39,192.566 2243.47,192.553 2246.55,192.54 2249.64,192.525 2252.72,192.51 2255.8,192.494 2258.88,192.477 2261.96,192.46 2265.05,192.441 2268.13,192.421 2271.21,192.401 2274.29,192.38 2277.37,192.358 2280.46,192.335 2283.54,192.311 2286.62,192.287 2289.7,192.261 2292.79,192.235 2295.87,192.208 2298.95,192.18 2302.03,192.152 2305.11,192.122 2308.2,192.092 2311.28,192.061 2314.36,192.029 2317.44,191.997 2320.52,191.963 2323.61,191.929 2326.69,191.894 2329.77,191.859 2332.85,191.822 2335.93,191.785 2339.02,191.747 2342.1,191.709 2345.18,191.669 2348.26,191.629 2351.35,191.588 2354.43,191.547 2357.51,191.505 2360.59,191.462 2363.67,191.418 2366.76,191.374 2369.84,191.329 2372.92,191.283 2376,191.237 2379.08,191.19 2382.17,191.143 2385.25,191.095 2388.33,191.046 2391.41,190.997 2394.5,190.947 2397.58,190.896 2400.66,190.845 2403.74,190.793 2406.82,190.741 2409.91,190.688 2412.99,190.634 2416.07,190.58 2419.15,190.526 2422.23,190.471 2425.32,190.415 2428.4,190.359 2431.48,190.302 2434.56,190.245 2437.64,190.187 2440.73,190.129 2443.81,190.071 2446.89,190.012 2449.97,189.952 2453.06,189.892 2456.14,189.832 2459.22,189.771 2462.3,189.71 2465.38,189.648 2468.47,189.586 2471.55,189.523 2474.63,189.461 2477.71,189.397 2480.79,189.334 2483.88,189.27 2486.96,189.205 2490.04,189.141 2493.12,189.076 2496.2,189.011 2499.29,188.945 2502.37,188.879 2505.45,188.813 2508.53,188.746 2511.62,188.679 2514.7,188.612 2517.78,188.545 2520.86,188.477 2523.94,188.409 2527.03,188.341 2530.11,188.273 2533.19,188.204 2536.27,188.136 2539.35,188.067 2542.44,187.997 2545.52,187.928 2548.6,187.859 2551.68,187.789 2554.76,187.719 2557.85,187.649 2560.93,187.579 2564.01,187.508 2567.09,187.438 2570.18,187.367 2573.26,187.297 "/>
<polyline clip-path="url(#clip431)" style="stroke:#ffa500; stroke-linecap:round; stroke-linejoin:round; stroke-width:8; stroke-opacity:1; fill:none" points="323.315,1688.65 326.397,1688.64 329.479,1688.63 332.561,1688.62 335.643,1688.62 338.725,1688.61 341.807,1688.6 344.889,1688.59 347.972,1688.59 351.054,1688.58 354.136,1688.58 357.218,1688.57 360.3,1688.57 363.382,1688.56 366.464,1688.56 369.546,1688.55 372.628,1688.55 375.711,1688.55 378.793,1688.55 381.875,1688.54 384.957,1688.54 388.039,1688.54 391.121,1688.54 394.203,1688.54 397.285,1688.54 400.367,1688.54 403.45,1688.54 406.532,1688.54 409.614,1688.54 412.696,1688.54 415.778,1688.54 418.86,1688.54 421.942,1688.54 425.024,1688.54 428.106,1688.54 431.189,1688.54 434.271,1688.54 437.353,1688.55 440.435,1688.55 443.517,1688.55 446.599,1688.55 449.681,1688.55 452.763,1688.55 455.845,1688.55 458.928,1688.56 462.01,1688.56 465.092,1688.56 468.174,1688.56 471.256,1688.56 474.338,1688.56 477.42,1688.56 480.502,1688.56 483.585,1688.56 486.667,1688.56 489.749,1688.56 492.831,1688.56 495.913,1688.56 498.995,1688.56 502.077,1688.56 505.159,1688.56 508.241,1688.55 511.324,1688.55 514.406,1688.55 517.488,1688.55 520.57,1688.55 523.652,1688.55 526.734,1688.55 529.816,1688.55 532.898,1688.54 535.98,1688.54 539.063,1688.54 542.145,1688.54 545.227,1688.54 548.309,1688.53 551.391,1688.53 554.473,1688.53 557.555,1688.53 560.637,1688.53 563.719,1688.53 566.802,1688.52 569.884,1688.52 572.966,1688.52 576.048,1688.52 579.13,1688.52 582.212,1688.51 585.294,1688.51 588.376,1688.51 591.459,1688.51 594.541,1688.51 597.623,1688.5 600.705,1688.5 603.787,1688.5 606.869,1688.5 609.951,1688.5 613.033,1688.49 616.115,1688.49 619.198,1688.49 622.28,1688.49 625.362,1688.49 628.444,1688.49 631.526,1688.48 634.608,1688.48 637.69,1688.48 640.772,1688.48 643.854,1688.48 646.937,1688.48 650.019,1688.47 653.101,1688.47 656.183,1688.47 659.265,1688.47 662.347,1688.47 665.429,1688.47 668.511,1688.46 671.593,1688.46 674.676,1688.46 677.758,1688.46 680.84,1688.46 683.922,1688.46 687.004,1688.45 690.086,1688.45 693.168,1688.45 696.25,1688.45 699.332,1688.45 702.415,1688.45 705.497,1688.44 708.579,1688.44 711.661,1688.44 714.743,1688.44 717.825,1688.44 720.907,1688.43 723.989,1688.43 727.072,1688.43 730.154,1688.43 733.236,1688.43 736.318,1688.42 739.4,1688.42 742.482,1688.42 745.564,1688.42 748.646,1688.42 751.728,1688.41 754.811,1688.41 757.893,1688.41 760.975,1688.41 764.057,1688.41 767.139,1688.4 770.221,1688.4 773.303,1688.4 776.385,1688.4 779.467,1688.39 782.55,1688.39 785.632,1688.39 788.714,1688.39 791.796,1688.38 794.878,1688.38 797.96,1688.38 801.042,1688.38 804.124,1688.37 807.206,1688.37 810.289,1688.37 813.371,1688.37 816.453,1688.36 819.535,1688.36 822.617,1688.36 825.699,1688.35 828.781,1688.35 831.863,1688.35 834.945,1688.35 838.028,1688.34 841.11,1688.34 844.192,1688.34 847.274,1688.33 850.356,1688.33 853.438,1688.33 856.52,1688.32 859.602,1688.32 862.685,1688.32 865.767,1688.32 868.849,1688.31 871.931,1688.31 875.013,1688.31 878.095,1688.3 881.177,1688.3 884.259,1688.3 887.341,1688.29 890.424,1688.29 893.506,1688.29 896.588,1688.28 899.67,1688.28 902.752,1688.28 905.834,1688.27 908.916,1688.27 911.998,1688.27 915.08,1688.26 918.163,1688.26 921.245,1688.25 924.327,1688.25 927.409,1688.25 930.491,1688.24 933.573,1688.24 936.655,1688.24 939.737,1688.23 942.819,1688.23 945.902,1688.22 948.984,1688.22 952.066,1688.22 955.148,1688.21 958.23,1688.21 961.312,1688.2 964.394,1688.2 967.476,1688.2 970.558,1688.19 973.641,1688.19 976.723,1688.18 979.805,1688.18 982.887,1688.17 985.969,1688.17 989.051,1688.17 992.133,1688.16 995.215,1688.16 998.298,1688.15 1001.38,1688.15 1004.46,1688.14 1007.54,1688.14 1010.63,1688.13 1013.71,1688.13 1016.79,1688.12 1019.87,1688.12 1022.95,1688.12 1026.04,1688.11 1029.12,1688.11 1032.2,1688.1 1035.28,1688.1 1038.36,1688.09 1041.45,1688.09 1044.53,1688.08 1047.61,1688.08 1050.69,1688.07 1053.78,1688.07 1056.86,1688.06 1059.94,1688.05 1063.02,1688.05 1066.1,1688.04 1069.19,1688.04 1072.27,1688.03 1075.35,1688.03 1078.43,1688.02 1081.51,1688.02 1084.6,1688.01 1087.68,1688 1090.76,1688 1093.84,1687.99 1096.93,1687.99 1100.01,1687.98 1103.09,1687.98 1106.17,1687.97 1109.25,1687.96 1112.34,1687.96 1115.42,1687.95 1118.5,1687.94 1121.58,1687.94 1124.66,1687.93 1127.75,1687.93 1130.83,1687.92 1133.91,1687.91 1136.99,1687.91 1140.07,1687.9 1143.16,1687.89 1146.24,1687.89 1149.32,1687.88 1152.4,1687.87 1155.49,1687.87 1158.57,1687.86 1161.65,1687.85 1164.73,1687.85 1167.81,1687.84 1170.9,1687.83 1173.98,1687.82 1177.06,1687.82 1180.14,1687.81 1183.22,1687.8 1186.31,1687.8 1189.39,1687.79 1192.47,1687.78 1195.55,1687.77 1198.63,1687.77 1201.72,1687.76 1204.8,1687.75 1207.88,1687.74 1210.96,1687.74 1214.05,1687.73 1217.13,1687.72 1220.21,1687.71 1223.29,1687.7 1226.37,1687.7 1229.46,1687.69 1232.54,1687.68 1235.62,1687.67 1238.7,1687.66 1241.78,1687.65 1244.87,1687.65 1247.95,1687.64 1251.03,1687.63 1254.11,1687.62 1257.2,1687.61 1260.28,1687.6 1263.36,1687.59 1266.44,1687.59 1269.52,1687.58 1272.61,1687.57 1275.69,1687.56 1278.77,1687.55 1281.85,1687.54 1284.93,1687.53 1288.02,1687.52 1291.1,1687.51 1294.18,1687.5 1297.26,1687.49 1300.34,1687.48 1303.43,1687.47 1306.51,1687.46 1309.59,1687.45 1312.67,1687.44 1315.76,1687.43 1318.84,1687.42 1321.92,1687.41 1325,1687.4 1328.08,1687.39 1331.17,1687.38 1334.25,1687.37 1337.33,1687.36 1340.41,1687.35 1343.49,1687.34 1346.58,1687.33 1349.66,1687.32 1352.74,1687.31 1355.82,1687.3 1358.9,1687.29 1361.99,1687.28 1365.07,1687.27 1368.15,1687.26 1371.23,1687.25 1374.32,1687.24 1377.4,1687.22 1380.48,1687.21 1383.56,1687.2 1386.64,1687.19 1389.73,1687.18 1392.81,1687.17 1395.89,1687.16 1398.97,1687.14 1402.05,1687.13 1405.14,1687.12 1408.22,1687.11 1411.3,1687.1 1414.38,1687.08 1417.46,1687.07 1420.55,1687.06 1423.63,1687.05 1426.71,1687.04 1429.79,1687.02 1432.88,1687.01 1435.96,1687 1439.04,1686.99 1442.12,1686.97 1445.2,1686.96 1448.29,1686.95 1451.37,1686.94 1454.45,1686.92 1457.53,1686.91 1460.61,1686.9 1463.7,1686.89 1466.78,1686.87 1469.86,1686.86 1472.94,1686.85 1476.03,1686.83 1479.11,1686.82 1482.19,1686.81 1485.27,1686.79 1488.35,1686.78 1491.44,1686.77 1494.52,1686.75 1497.6,1686.74 1500.68,1686.72 1503.76,1686.71 1506.85,1686.7 1509.93,1686.68 1513.01,1686.67 1516.09,1686.66 1519.17,1686.64 1522.26,1686.63 1525.34,1686.61 1528.42,1686.6 1531.5,1686.59 1534.59,1686.57 1537.67,1686.56 1540.75,1686.54 1543.83,1686.53 1546.91,1686.51 1550,1686.5 1553.08,1686.48 1556.16,1686.47 1559.24,1686.46 1562.32,1686.44 1565.41,1686.43 1568.49,1686.41 1571.57,1686.4 1574.65,1686.38 1577.73,1686.37 1580.82,1686.35 1583.9,1686.34 1586.98,1686.32 1590.06,1686.31 1593.15,1686.29 1596.23,1686.28 1599.31,1686.26 1602.39,1686.25 1605.47,1686.23 1608.56,1686.22 1611.64,1686.2 1614.72,1686.18 1617.8,1686.17 1620.88,1686.15 1623.97,1686.14 1627.05,1686.12 1630.13,1686.11 1633.21,1686.09 1636.3,1686.08 1639.38,1686.06 1642.46,1686.05 1645.54,1686.03 1648.62,1686.01 1651.71,1686 1654.79,1685.98 1657.87,1685.97 1660.95,1685.95 1664.03,1685.94 1667.12,1685.92 1670.2,1685.91 1673.28,1685.89 1676.36,1685.87 1679.44,1685.86 1682.53,1685.84 1685.61,1685.83 1688.69,1685.81 1691.77,1685.8 1694.86,1685.78 1697.94,1685.77 1701.02,1685.75 1704.1,1685.73 1707.18,1685.72 1710.27,1685.7 1713.35,1685.69 1716.43,1685.67 1719.51,1685.66 1722.59,1685.64 1725.68,1685.63 1728.76,1685.61 1731.84,1685.6 1734.92,1685.58 1738,1685.57 1741.09,1685.55 1744.17,1685.53 1747.25,1685.52 1750.33,1685.5 1753.42,1685.49 1756.5,1685.47 1759.58,1685.46 1762.66,1685.44 1765.74,1685.43 1768.83,1685.41 1771.91,1685.4 1774.99,1685.39 1778.07,1685.37 1781.15,1685.36 1784.24,1685.34 1787.32,1685.33 1790.4,1685.31 1793.48,1685.3 1796.56,1685.28 1799.65,1685.27 1802.73,1685.26 1805.81,1685.24 1808.89,1685.23 1811.98,1685.21 1815.06,1685.2 1818.14,1685.19 1821.22,1685.17 1824.3,1685.16 1827.39,1685.15 1830.47,1685.13 1833.55,1685.12 1836.63,1685.11 1839.71,1685.09 1842.8,1685.08 1845.88,1685.07 1848.96,1685.06 1852.04,1685.04 1855.13,1685.03 1858.21,1685.02 1861.29,1685.01 1864.37,1684.99 1867.45,1684.98 1870.54,1684.97 1873.62,1684.96 1876.7,1684.95 1879.78,1684.93 1882.86,1684.92 1885.95,1684.91 1889.03,1684.9 1892.11,1684.89 1895.19,1684.88 1898.27,1684.87 1901.36,1684.86 1904.44,1684.85 1907.52,1684.84 1910.6,1684.83 1913.69,1684.82 1916.77,1684.81 1919.85,1684.8 1922.93,1684.79 1926.01,1684.78 1929.1,1684.77 1932.18,1684.76 1935.26,1684.75 1938.34,1684.74 1941.42,1684.74 1944.51,1684.73 1947.59,1684.72 1950.67,1684.71 1953.75,1684.7 1956.83,1684.7 1959.92,1684.69 1963,1684.68 1966.08,1684.67 1969.16,1684.67 1972.25,1684.66 1975.33,1684.65 1978.41,1684.65 1981.49,1684.64 1984.57,1684.64 1987.66,1684.63 1990.74,1684.63 1993.82,1684.62 1996.9,1684.62 1999.98,1684.61 2003.07,1684.61 2006.15,1684.6 2009.23,1684.6 2012.31,1684.59 2015.4,1684.59 2018.48,1684.59 2021.56,1684.58 2024.64,1684.58 2027.72,1684.58 2030.81,1684.57 2033.89,1684.57 2036.97,1684.57 2040.05,1684.57 2043.13,1684.56 2046.22,1684.56 2049.3,1684.56 2052.38,1684.56 2055.46,1684.56 2058.54,1684.56 2061.63,1684.56 2064.71,1684.56 2067.79,1684.56 2070.87,1684.56 2073.96,1684.56 2077.04,1684.56 2080.12,1684.56 2083.2,1684.56 2086.28,1684.56 2089.37,1684.56 2092.45,1684.56 2095.53,1684.57 2098.61,1684.57 2101.69,1684.57 2104.78,1684.57 2107.86,1684.58 2110.94,1684.58 2114.02,1684.58 2117.1,1684.59 2120.19,1684.59 2123.27,1684.59 2126.35,1684.6 2129.43,1684.6 2132.52,1684.61 2135.6,1684.61 2138.68,1684.62 2141.76,1684.62 2144.84,1684.63 2147.93,1684.63 2151.01,1684.64 2154.09,1684.64 2157.17,1684.65 2160.25,1684.66 2163.34,1684.66 2166.42,1684.67 2169.5,1684.68 2172.58,1684.68 2175.66,1684.69 2178.75,1684.7 2181.83,1684.71 2184.91,1684.72 2187.99,1684.72 2191.08,1684.73 2194.16,1684.74 2197.24,1684.75 2200.32,1684.76 2203.4,1684.77 2206.49,1684.78 2209.57,1684.79 2212.65,1684.8 2215.73,1684.81 2218.81,1684.82 2221.9,1684.83 2224.98,1684.84 2228.06,1684.85 2231.14,1684.86 2234.23,1684.87 2237.31,1684.88 2240.39,1684.9 2243.47,1684.91 2246.55,1684.92 2249.64,1684.93 2252.72,1684.94 2255.8,1684.95 2258.88,1684.97 2261.96,1684.98 2265.05,1684.99 2268.13,1685.01 2271.21,1685.02 2274.29,1685.03 2277.37,1685.05 2280.46,1685.06 2283.54,1685.07 2286.62,1685.09 2289.7,1685.1 2292.79,1685.11 2295.87,1685.13 2298.95,1685.14 2302.03,1685.16 2305.11,1685.17 2308.2,1685.19 2311.28,1685.2 2314.36,1685.22 2317.44,1685.23 2320.52,1685.25 2323.61,1685.26 2326.69,1685.28 2329.77,1685.29 2332.85,1685.31 2335.93,1685.32 2339.02,1685.34 2342.1,1685.35 2345.18,1685.37 2348.26,1685.39 2351.35,1685.4 2354.43,1685.42 2357.51,1685.43 2360.59,1685.45 2363.67,1685.47 2366.76,1685.48 2369.84,1685.5 2372.92,1685.52 2376,1685.53 2379.08,1685.55 2382.17,1685.57 2385.25,1685.58 2388.33,1685.6 2391.41,1685.62 2394.5,1685.63 2397.58,1685.65 2400.66,1685.67 2403.74,1685.68 2406.82,1685.7 2409.91,1685.72 2412.99,1685.74 2416.07,1685.75 2419.15,1685.77 2422.23,1685.79 2425.32,1685.8 2428.4,1685.82 2431.48,1685.84 2434.56,1685.86 2437.64,1685.87 2440.73,1685.89 2443.81,1685.91 2446.89,1685.93 2449.97,1685.94 2453.06,1685.96 2456.14,1685.98 2459.22,1686 2462.3,1686.01 2465.38,1686.03 2468.47,1686.05 2471.55,1686.06 2474.63,1686.08 2477.71,1686.1 2480.79,1686.12 2483.88,1686.13 2486.96,1686.15 2490.04,1686.17 2493.12,1686.18 2496.2,1686.2 2499.29,1686.22 2502.37,1686.24 2505.45,1686.25 2508.53,1686.27 2511.62,1686.29 2514.7,1686.3 2517.78,1686.32 2520.86,1686.34 2523.94,1686.35 2527.03,1686.37 2530.11,1686.39 2533.19,1686.41 2536.27,1686.42 2539.35,1686.44 2542.44,1686.45 2545.52,1686.47 2548.6,1686.49 2551.68,1686.5 2554.76,1686.52 2557.85,1686.54 2560.93,1686.55 2564.01,1686.57 2567.09,1686.59 2570.18,1686.6 2573.26,1686.62 "/>
<polyline clip-path="url(#clip431)" style="stroke:#ff0000; stroke-linecap:round; stroke-linejoin:round; stroke-width:8; stroke-opacity:1; fill:none" points="323.315,1688.5 326.397,1688.51 329.479,1688.51 332.561,1688.51 335.643,1688.51 338.725,1688.51 341.807,1688.51 344.889,1688.5 347.972,1688.5 351.054,1688.5 354.136,1688.5 357.218,1688.5 360.3,1688.49 363.382,1688.49 366.464,1688.49 369.546,1688.48 372.628,1688.48 375.711,1688.47 378.793,1688.47 381.875,1688.47 384.957,1688.46 388.039,1688.46 391.121,1688.45 394.203,1688.45 397.285,1688.44 400.367,1688.44 403.45,1688.44 406.532,1688.43 409.614,1688.43 412.696,1688.42 415.778,1688.42 418.86,1688.42 421.942,1688.41 425.024,1688.41 428.106,1688.41 431.189,1688.4 434.271,1688.4 437.353,1688.4 440.435,1688.39 443.517,1688.39 446.599,1688.39 449.681,1688.39 452.763,1688.38 455.845,1688.38 458.928,1688.38 462.01,1688.38 465.092,1688.38 468.174,1688.37 471.256,1688.37 474.338,1688.37 477.42,1688.37 480.502,1688.37 483.585,1688.36 486.667,1688.36 489.749,1688.36 492.831,1688.36 495.913,1688.36 498.995,1688.36 502.077,1688.36 505.159,1688.35 508.241,1688.35 511.324,1688.35 514.406,1688.35 517.488,1688.35 520.57,1688.34 523.652,1688.34 526.734,1688.34 529.816,1688.34 532.898,1688.34 535.98,1688.33 539.063,1688.33 542.145,1688.33 545.227,1688.33 548.309,1688.32 551.391,1688.32 554.473,1688.32 557.555,1688.32 560.637,1688.31 563.719,1688.31 566.802,1688.31 569.884,1688.3 572.966,1688.3 576.048,1688.3 579.13,1688.3 582.212,1688.29 585.294,1688.29 588.376,1688.28 591.459,1688.28 594.541,1688.28 597.623,1688.27 600.705,1688.27 603.787,1688.27 606.869,1688.26 609.951,1688.26 613.033,1688.25 616.115,1688.25 619.198,1688.25 622.28,1688.24 625.362,1688.24 628.444,1688.23 631.526,1688.23 634.608,1688.23 637.69,1688.22 640.772,1688.22 643.854,1688.21 646.937,1688.21 650.019,1688.2 653.101,1688.2 656.183,1688.19 659.265,1688.19 662.347,1688.18 665.429,1688.18 668.511,1688.18 671.593,1688.17 674.676,1688.17 677.758,1688.16 680.84,1688.16 683.922,1688.15 687.004,1688.15 690.086,1688.14 693.168,1688.14 696.25,1688.13 699.332,1688.13 702.415,1688.12 705.497,1688.12 708.579,1688.11 711.661,1688.11 714.743,1688.1 717.825,1688.1 720.907,1688.09 723.989,1688.08 727.072,1688.08 730.154,1688.07 733.236,1688.07 736.318,1688.06 739.4,1688.06 742.482,1688.05 745.564,1688.05 748.646,1688.04 751.728,1688.03 754.811,1688.03 757.893,1688.02 760.975,1688.02 764.057,1688.01 767.139,1688.01 770.221,1688 773.303,1687.99 776.385,1687.99 779.467,1687.98 782.55,1687.97 785.632,1687.97 788.714,1687.96 791.796,1687.96 794.878,1687.95 797.96,1687.94 801.042,1687.94 804.124,1687.93 807.206,1687.92 810.289,1687.92 813.371,1687.91 816.453,1687.9 819.535,1687.89 822.617,1687.89 825.699,1687.88 828.781,1687.87 831.863,1687.87 834.945,1687.86 838.028,1687.85 841.11,1687.84 844.192,1687.84 847.274,1687.83 850.356,1687.82 853.438,1687.81 856.52,1687.81 859.602,1687.8 862.685,1687.79 865.767,1687.78 868.849,1687.77 871.931,1687.76 875.013,1687.76 878.095,1687.75 881.177,1687.74 884.259,1687.73 887.341,1687.72 890.424,1687.71 893.506,1687.71 896.588,1687.7 899.67,1687.69 902.752,1687.68 905.834,1687.67 908.916,1687.66 911.998,1687.65 915.08,1687.64 918.163,1687.63 921.245,1687.62 924.327,1687.61 927.409,1687.6 930.491,1687.59 933.573,1687.58 936.655,1687.57 939.737,1687.56 942.819,1687.55 945.902,1687.54 948.984,1687.53 952.066,1687.52 955.148,1687.51 958.23,1687.5 961.312,1687.49 964.394,1687.48 967.476,1687.47 970.558,1687.46 973.641,1687.45 976.723,1687.44 979.805,1687.42 982.887,1687.41 985.969,1687.4 989.051,1687.39 992.133,1687.38 995.215,1687.37 998.298,1687.36 1001.38,1687.34 1004.46,1687.33 1007.54,1687.32 1010.63,1687.31 1013.71,1687.29 1016.79,1687.28 1019.87,1687.27 1022.95,1687.26 1026.04,1687.24 1029.12,1687.23 1032.2,1687.22 1035.28,1687.2 1038.36,1687.19 1041.45,1687.18 1044.53,1687.16 1047.61,1687.15 1050.69,1687.14 1053.78,1687.12 1056.86,1687.11 1059.94,1687.1 1063.02,1687.08 1066.1,1687.07 1069.19,1687.05 1072.27,1687.04 1075.35,1687.02 1078.43,1687.01 1081.51,1686.99 1084.6,1686.98 1087.68,1686.96 1090.76,1686.95 1093.84,1686.93 1096.93,1686.92 1100.01,1686.9 1103.09,1686.89 1106.17,1686.87 1109.25,1686.85 1112.34,1686.84 1115.42,1686.82 1118.5,1686.8 1121.58,1686.79 1124.66,1686.77 1127.75,1686.75 1130.83,1686.74 1133.91,1686.72 1136.99,1686.7 1140.07,1686.68 1143.16,1686.67 1146.24,1686.65 1149.32,1686.63 1152.4,1686.61 1155.49,1686.59 1158.57,1686.58 1161.65,1686.56 1164.73,1686.54 1167.81,1686.52 1170.9,1686.5 1173.98,1686.48 1177.06,1686.46 1180.14,1686.44 1183.22,1686.42 1186.31,1686.4 1189.39,1686.38 1192.47,1686.36 1195.55,1686.34 1198.63,1686.32 1201.72,1686.3 1204.8,1686.28 1207.88,1686.26 1210.96,1686.24 1214.05,1686.22 1217.13,1686.2 1220.21,1686.17 1223.29,1686.15 1226.37,1686.13 1229.46,1686.11 1232.54,1686.09 1235.62,1686.06 1238.7,1686.04 1241.78,1686.02 1244.87,1685.99 1247.95,1685.97 1251.03,1685.95 1254.11,1685.92 1257.2,1685.9 1260.28,1685.88 1263.36,1685.85 1266.44,1685.83 1269.52,1685.8 1272.61,1685.78 1275.69,1685.75 1278.77,1685.73 1281.85,1685.7 1284.93,1685.68 1288.02,1685.65 1291.1,1685.63 1294.18,1685.6 1297.26,1685.57 1300.34,1685.55 1303.43,1685.52 1306.51,1685.49 1309.59,1685.47 1312.67,1685.44 1315.76,1685.41 1318.84,1685.38 1321.92,1685.36 1325,1685.33 1328.08,1685.3 1331.17,1685.27 1334.25,1685.24 1337.33,1685.21 1340.41,1685.18 1343.49,1685.15 1346.58,1685.13 1349.66,1685.1 1352.74,1685.07 1355.82,1685.04 1358.9,1685 1361.99,1684.97 1365.07,1684.94 1368.15,1684.91 1371.23,1684.88 1374.32,1684.85 1377.4,1684.82 1380.48,1684.79 1383.56,1684.75 1386.64,1684.72 1389.73,1684.69 1392.81,1684.66 1395.89,1684.62 1398.97,1684.59 1402.05,1684.56 1405.14,1684.52 1408.22,1684.49 1411.3,1684.45 1414.38,1684.42 1417.46,1684.38 1420.55,1684.35 1423.63,1684.31 1426.71,1684.28 1429.79,1684.24 1432.88,1684.21 1435.96,1684.17 1439.04,1684.13 1442.12,1684.1 1445.2,1684.06 1448.29,1684.02 1451.37,1683.99 1454.45,1683.95 1457.53,1683.91 1460.61,1683.87 1463.7,1683.84 1466.78,1683.8 1469.86,1683.76 1472.94,1683.72 1476.03,1683.68 1479.11,1683.64 1482.19,1683.6 1485.27,1683.56 1488.35,1683.52 1491.44,1683.48 1494.52,1683.44 1497.6,1683.4 1500.68,1683.36 1503.76,1683.32 1506.85,1683.28 1509.93,1683.23 1513.01,1683.19 1516.09,1683.15 1519.17,1683.11 1522.26,1683.06 1525.34,1683.02 1528.42,1682.98 1531.5,1682.93 1534.59,1682.89 1537.67,1682.85 1540.75,1682.8 1543.83,1682.76 1546.91,1682.71 1550,1682.67 1553.08,1682.62 1556.16,1682.58 1559.24,1682.53 1562.32,1682.49 1565.41,1682.44 1568.49,1682.4 1571.57,1682.35 1574.65,1682.3 1577.73,1682.26 1580.82,1682.21 1583.9,1682.16 1586.98,1682.11 1590.06,1682.07 1593.15,1682.02 1596.23,1681.97 1599.31,1681.92 1602.39,1681.87 1605.47,1681.82 1608.56,1681.77 1611.64,1681.72 1614.72,1681.67 1617.8,1681.62 1620.88,1681.57 1623.97,1681.52 1627.05,1681.47 1630.13,1681.42 1633.21,1681.37 1636.3,1681.32 1639.38,1681.27 1642.46,1681.22 1645.54,1681.17 1648.62,1681.12 1651.71,1681.06 1654.79,1681.01 1657.87,1680.96 1660.95,1680.91 1664.03,1680.85 1667.12,1680.8 1670.2,1680.75 1673.28,1680.69 1676.36,1680.64 1679.44,1680.59 1682.53,1680.53 1685.61,1680.48 1688.69,1680.43 1691.77,1680.37 1694.86,1680.32 1697.94,1680.26 1701.02,1680.21 1704.1,1680.15 1707.18,1680.1 1710.27,1680.04 1713.35,1679.99 1716.43,1679.93 1719.51,1679.88 1722.59,1679.82 1725.68,1679.76 1728.76,1679.71 1731.84,1679.65 1734.92,1679.6 1738,1679.54 1741.09,1679.48 1744.17,1679.43 1747.25,1679.37 1750.33,1679.31 1753.42,1679.26 1756.5,1679.2 1759.58,1679.14 1762.66,1679.09 1765.74,1679.03 1768.83,1678.97 1771.91,1678.91 1774.99,1678.86 1778.07,1678.8 1781.15,1678.74 1784.24,1678.68 1787.32,1678.63 1790.4,1678.57 1793.48,1678.51 1796.56,1678.45 1799.65,1678.4 1802.73,1678.34 1805.81,1678.28 1808.89,1678.22 1811.98,1678.17 1815.06,1678.11 1818.14,1678.05 1821.22,1677.99 1824.3,1677.93 1827.39,1677.88 1830.47,1677.82 1833.55,1677.76 1836.63,1677.7 1839.71,1677.65 1842.8,1677.59 1845.88,1677.53 1848.96,1677.47 1852.04,1677.42 1855.13,1677.36 1858.21,1677.3 1861.29,1677.25 1864.37,1677.19 1867.45,1677.13 1870.54,1677.08 1873.62,1677.02 1876.7,1676.96 1879.78,1676.91 1882.86,1676.85 1885.95,1676.79 1889.03,1676.74 1892.11,1676.68 1895.19,1676.63 1898.27,1676.57 1901.36,1676.52 1904.44,1676.46 1907.52,1676.41 1910.6,1676.35 1913.69,1676.3 1916.77,1676.24 1919.85,1676.19 1922.93,1676.13 1926.01,1676.08 1929.1,1676.03 1932.18,1675.97 1935.26,1675.92 1938.34,1675.87 1941.42,1675.82 1944.51,1675.76 1947.59,1675.71 1950.67,1675.66 1953.75,1675.61 1956.83,1675.56 1959.92,1675.51 1963,1675.46 1966.08,1675.41 1969.16,1675.36 1972.25,1675.31 1975.33,1675.26 1978.41,1675.21 1981.49,1675.16 1984.57,1675.11 1987.66,1675.06 1990.74,1675.02 1993.82,1674.97 1996.9,1674.92 1999.98,1674.88 2003.07,1674.83 2006.15,1674.78 2009.23,1674.74 2012.31,1674.69 2015.4,1674.65 2018.48,1674.61 2021.56,1674.56 2024.64,1674.52 2027.72,1674.48 2030.81,1674.44 2033.89,1674.39 2036.97,1674.35 2040.05,1674.31 2043.13,1674.27 2046.22,1674.23 2049.3,1674.19 2052.38,1674.15 2055.46,1674.12 2058.54,1674.08 2061.63,1674.04 2064.71,1674.01 2067.79,1673.97 2070.87,1673.93 2073.96,1673.9 2077.04,1673.86 2080.12,1673.83 2083.2,1673.8 2086.28,1673.76 2089.37,1673.73 2092.45,1673.7 2095.53,1673.67 2098.61,1673.64 2101.69,1673.61 2104.78,1673.58 2107.86,1673.55 2110.94,1673.52 2114.02,1673.5 2117.1,1673.47 2120.19,1673.44 2123.27,1673.42 2126.35,1673.39 2129.43,1673.37 2132.52,1673.34 2135.6,1673.32 2138.68,1673.3 2141.76,1673.28 2144.84,1673.26 2147.93,1673.23 2151.01,1673.22 2154.09,1673.2 2157.17,1673.18 2160.25,1673.16 2163.34,1673.14 2166.42,1673.13 2169.5,1673.11 2172.58,1673.1 2175.66,1673.08 2178.75,1673.07 2181.83,1673.05 2184.91,1673.04 2187.99,1673.03 2191.08,1673.02 2194.16,1673.01 2197.24,1673 2200.32,1672.99 2203.4,1672.98 2206.49,1672.98 2209.57,1672.97 2212.65,1672.96 2215.73,1672.96 2218.81,1672.95 2221.9,1672.95 2224.98,1672.95 2228.06,1672.94 2231.14,1672.94 2234.23,1672.94 2237.31,1672.94 2240.39,1672.94 2243.47,1672.94 2246.55,1672.94 2249.64,1672.95 2252.72,1672.95 2255.8,1672.95 2258.88,1672.96 2261.96,1672.96 2265.05,1672.97 2268.13,1672.98 2271.21,1672.98 2274.29,1672.99 2277.37,1673 2280.46,1673.01 2283.54,1673.02 2286.62,1673.03 2289.7,1673.04 2292.79,1673.05 2295.87,1673.07 2298.95,1673.08 2302.03,1673.1 2305.11,1673.11 2308.2,1673.13 2311.28,1673.14 2314.36,1673.16 2317.44,1673.18 2320.52,1673.2 2323.61,1673.22 2326.69,1673.24 2329.77,1673.26 2332.85,1673.28 2335.93,1673.3 2339.02,1673.32 2342.1,1673.34 2345.18,1673.37 2348.26,1673.39 2351.35,1673.42 2354.43,1673.44 2357.51,1673.47 2360.59,1673.5 2363.67,1673.52 2366.76,1673.55 2369.84,1673.58 2372.92,1673.61 2376,1673.64 2379.08,1673.67 2382.17,1673.7 2385.25,1673.73 2388.33,1673.76 2391.41,1673.8 2394.5,1673.83 2397.58,1673.86 2400.66,1673.9 2403.74,1673.93 2406.82,1673.97 2409.91,1674 2412.99,1674.04 2416.07,1674.08 2419.15,1674.12 2422.23,1674.15 2425.32,1674.19 2428.4,1674.23 2431.48,1674.27 2434.56,1674.31 2437.64,1674.35 2440.73,1674.39 2443.81,1674.43 2446.89,1674.48 2449.97,1674.52 2453.06,1674.56 2456.14,1674.6 2459.22,1674.65 2462.3,1674.69 2465.38,1674.74 2468.47,1674.78 2471.55,1674.83 2474.63,1674.87 2477.71,1674.92 2480.79,1674.96 2483.88,1675.01 2486.96,1675.06 2490.04,1675.11 2493.12,1675.15 2496.2,1675.2 2499.29,1675.25 2502.37,1675.3 2505.45,1675.35 2508.53,1675.4 2511.62,1675.45 2514.7,1675.5 2517.78,1675.55 2520.86,1675.6 2523.94,1675.65 2527.03,1675.7 2530.11,1675.76 2533.19,1675.81 2536.27,1675.86 2539.35,1675.91 2542.44,1675.96 2545.52,1676.02 2548.6,1676.07 2551.68,1676.12 2554.76,1676.18 2557.85,1676.23 2560.93,1676.29 2564.01,1676.34 2567.09,1676.39 2570.18,1676.45 2573.26,1676.5 "/>
<path clip-path="url(#clip430)" d="M2245.45 388.696 L2561.26 388.696 L2561.26 181.336 L2245.45 181.336  Z" fill="#ffffff" fill-rule="evenodd" fill-opacity="1"/>
<polyline clip-path="url(#clip430)" style="stroke:#000000; stroke-linecap:round; stroke-linejoin:round; stroke-width:4; stroke-opacity:1; fill:none" points="2245.45,388.696 2561.26,388.696 2561.26,181.336 2245.45,181.336 2245.45,388.696 "/>
<polyline clip-path="url(#clip430)" style="stroke:#0000ff; stroke-linecap:round; stroke-linejoin:round; stroke-width:8; stroke-opacity:1; fill:none" points="2271.95,233.176 2430.94,233.176 "/>
<path clip-path="url(#clip430)" d="M2479.69 217.031 L2479.69 221.591 Q2477.03 220.318 2474.67 219.693 Q2472.31 219.068 2470.11 219.068 Q2466.29 219.068 2464.2 220.549 Q2462.14 222.031 2462.14 224.762 Q2462.14 227.054 2463.51 228.234 Q2464.9 229.392 2468.74 230.109 L2471.56 230.688 Q2476.8 231.683 2479.27 234.206 Q2481.77 236.706 2481.77 240.919 Q2481.77 245.942 2478.39 248.535 Q2475.04 251.128 2468.53 251.128 Q2466.08 251.128 2463.3 250.572 Q2460.55 250.016 2457.58 248.929 L2457.58 244.114 Q2460.43 245.711 2463.16 246.521 Q2465.89 247.331 2468.53 247.331 Q2472.54 247.331 2474.71 245.757 Q2476.89 244.183 2476.89 241.267 Q2476.89 238.72 2475.31 237.285 Q2473.76 235.85 2470.2 235.132 L2467.35 234.577 Q2462.12 233.535 2459.78 231.313 Q2457.44 229.091 2457.44 225.132 Q2457.44 220.549 2460.66 217.91 Q2463.9 215.271 2469.57 215.271 Q2472 215.271 2474.53 215.711 Q2477.05 216.151 2479.69 217.031 Z" fill="#000000" fill-rule="nonzero" fill-opacity="1" /><path clip-path="url(#clip430)" d="M2508.58 258.327 L2508.58 261.637 L2483.95 261.637 L2483.95 258.327 L2508.58 258.327 Z" fill="#000000" fill-rule="nonzero" fill-opacity="1" /><path clip-path="url(#clip430)" d="M2509.53 224.531 L2514.04 224.531 L2522.14 246.29 L2530.24 224.531 L2534.76 224.531 L2525.04 250.456 L2519.25 250.456 L2509.53 224.531 Z" fill="#000000" fill-rule="nonzero" fill-opacity="1" /><polyline clip-path="url(#clip430)" style="stroke:#ffa500; stroke-linecap:round; stroke-linejoin:round; stroke-width:8; stroke-opacity:1; fill:none" points="2271.95,285.016 2430.94,285.016 "/>
<path clip-path="url(#clip430)" d="M2457.44 267.736 L2479.3 267.736 L2479.3 271.671 L2462.12 271.671 L2462.12 281.903 L2478.58 281.903 L2478.58 285.838 L2462.12 285.838 L2462.12 298.361 L2479.71 298.361 L2479.71 302.296 L2457.44 302.296 L2457.44 267.736 Z" fill="#000000" fill-rule="nonzero" fill-opacity="1" /><path clip-path="url(#clip430)" d="M2506.91 310.167 L2506.91 313.477 L2482.28 313.477 L2482.28 310.167 L2506.91 310.167 Z" fill="#000000" fill-rule="nonzero" fill-opacity="1" /><path clip-path="url(#clip430)" d="M2507.86 276.371 L2512.37 276.371 L2520.48 298.13 L2528.58 276.371 L2533.09 276.371 L2523.37 302.296 L2517.58 302.296 L2507.86 276.371 Z" fill="#000000" fill-rule="nonzero" fill-opacity="1" /><polyline clip-path="url(#clip430)" style="stroke:#ff0000; stroke-linecap:round; stroke-linejoin:round; stroke-width:8; stroke-opacity:1; fill:none" points="2271.95,336.856 2430.94,336.856 "/>
<path clip-path="url(#clip430)" d="M2457.44 319.576 L2462.12 319.576 L2462.12 354.136 L2457.44 354.136 L2457.44 319.576 Z" fill="#000000" fill-rule="nonzero" fill-opacity="1" /><path clip-path="url(#clip430)" d="M2490.94 362.007 L2490.94 365.317 L2466.31 365.317 L2466.31 362.007 L2490.94 362.007 Z" fill="#000000" fill-rule="nonzero" fill-opacity="1" /><path clip-path="url(#clip430)" d="M2491.89 328.211 L2496.4 328.211 L2504.5 349.97 L2512.61 328.211 L2517.12 328.211 L2507.4 354.136 L2501.61 354.136 L2491.89 328.211 Z" fill="#000000" fill-rule="nonzero" fill-opacity="1" /></svg>
