<?xml version="1.0" encoding="utf-8"?>
<svg xmlns="http://www.w3.org/2000/svg" xmlns:xlink="http://www.w3.org/1999/xlink" width="672" height="480" viewBox="0 0 2688 1920">
<defs>
  <clipPath id="clip010">
    <rect x="0" y="0" width="2688" height="1920"/>
  </clipPath>
</defs>
<path clip-path="url(#clip010)" d="M0 1920 L2688 1920 L2688 -4.26326e-14 L0 -4.26326e-14  Z" fill="#ffffff" fill-rule="evenodd" fill-opacity="1"/>
<defs>
  <clipPath id="clip011">
    <rect x="241" y="127" width="2400" height="1607"/>
  </clipPath>
</defs>
<path clip-path="url(#clip010)" d="M241.557 1734.12 L2640.76 1734.12 L2640.76 127.792 L241.557 127.792  Z" fill="#ffffff" fill-rule="evenodd" fill-opacity="1"/>
<polyline clip-path="url(#clip011)" style="stroke:#000000; stroke-linecap:round; stroke-linejoin:round; stroke-width:2; stroke-opacity:0.1; fill:none" points="263.267,1734.12 263.267,127.792 "/>
<polyline clip-path="url(#clip011)" style="stroke:#000000; stroke-linecap:round; stroke-linejoin:round; stroke-width:2; stroke-opacity:0.1; fill:none" points="725.185,1734.12 725.185,127.792 "/>
<polyline clip-path="url(#clip011)" style="stroke:#000000; stroke-linecap:round; stroke-linejoin:round; stroke-width:2; stroke-opacity:0.1; fill:none" points="1187.1,1734.12 1187.1,127.792 "/>
<polyline clip-path="url(#clip011)" style="stroke:#000000; stroke-linecap:round; stroke-linejoin:round; stroke-width:2; stroke-opacity:0.1; fill:none" points="1649.02,1734.12 1649.02,127.792 "/>
<polyline clip-path="url(#clip011)" style="stroke:#000000; stroke-linecap:round; stroke-linejoin:round; stroke-width:2; stroke-opacity:0.1; fill:none" points="2110.94,1734.12 2110.94,127.792 "/>
<polyline clip-path="url(#clip011)" style="stroke:#000000; stroke-linecap:round; stroke-linejoin:round; stroke-width:2; stroke-opacity:0.1; fill:none" points="2572.85,1734.12 2572.85,127.792 "/>
<polyline clip-path="url(#clip011)" style="stroke:#000000; stroke-linecap:round; stroke-linejoin:round; stroke-width:2; stroke-opacity:0.1; fill:none" points="241.557,1429.32 2640.76,1429.32 "/>
<polyline clip-path="url(#clip011)" style="stroke:#000000; stroke-linecap:round; stroke-linejoin:round; stroke-width:2; stroke-opacity:0.1; fill:none" points="241.557,1116.86 2640.76,1116.86 "/>
<polyline clip-path="url(#clip011)" style="stroke:#000000; stroke-linecap:round; stroke-linejoin:round; stroke-width:2; stroke-opacity:0.1; fill:none" points="241.557,804.411 2640.76,804.411 "/>
<polyline clip-path="url(#clip011)" style="stroke:#000000; stroke-linecap:round; stroke-linejoin:round; stroke-width:2; stroke-opacity:0.1; fill:none" points="241.557,491.957 2640.76,491.957 "/>
<polyline clip-path="url(#clip011)" style="stroke:#000000; stroke-linecap:round; stroke-linejoin:round; stroke-width:2; stroke-opacity:0.1; fill:none" points="241.557,179.503 2640.76,179.503 "/>
<polyline clip-path="url(#clip010)" style="stroke:#000000; stroke-linecap:round; stroke-linejoin:round; stroke-width:4; stroke-opacity:1; fill:none" points="241.557,1734.12 2640.76,1734.12 "/>
<polyline clip-path="url(#clip010)" style="stroke:#000000; stroke-linecap:round; stroke-linejoin:round; stroke-width:4; stroke-opacity:1; fill:none" points="263.267,1734.12 263.267,1715.22 "/>
<polyline clip-path="url(#clip010)" style="stroke:#000000; stroke-linecap:round; stroke-linejoin:round; stroke-width:4; stroke-opacity:1; fill:none" points="725.185,1734.12 725.185,1715.22 "/>
<polyline clip-path="url(#clip010)" style="stroke:#000000; stroke-linecap:round; stroke-linejoin:round; stroke-width:4; stroke-opacity:1; fill:none" points="1187.1,1734.12 1187.1,1715.22 "/>
<polyline clip-path="url(#clip010)" style="stroke:#000000; stroke-linecap:round; stroke-linejoin:round; stroke-width:4; stroke-opacity:1; fill:none" points="1649.02,1734.12 1649.02,1715.22 "/>
<polyline clip-path="url(#clip010)" style="stroke:#000000; stroke-linecap:round; stroke-linejoin:round; stroke-width:4; stroke-opacity:1; fill:none" points="2110.94,1734.12 2110.94,1715.22 "/>
<polyline clip-path="url(#clip010)" style="stroke:#000000; stroke-linecap:round; stroke-linejoin:round; stroke-width:4; stroke-opacity:1; fill:none" points="2572.85,1734.12 2572.85,1715.22 "/>
<path clip-path="url(#clip010)" d="M263.267 1767.34 Q259.656 1767.34 257.827 1770.9 Q256.022 1774.45 256.022 1781.58 Q256.022 1788.68 257.827 1792.25 Q259.656 1795.79 263.267 1795.79 Q266.901 1795.79 268.707 1792.25 Q270.536 1788.68 270.536 1781.58 Q270.536 1774.45 268.707 1770.9 Q266.901 1767.34 263.267 1767.34 M263.267 1763.64 Q269.077 1763.64 272.133 1768.24 Q275.212 1772.83 275.212 1781.58 Q275.212 1790.3 272.133 1794.91 Q269.077 1799.49 263.267 1799.49 Q257.457 1799.49 254.378 1794.91 Q251.323 1790.3 251.323 1781.58 Q251.323 1772.83 254.378 1768.24 Q257.457 1763.64 263.267 1763.64 Z" fill="#000000" fill-rule="nonzero" fill-opacity="1" /><path clip-path="url(#clip010)" d="M699.872 1794.89 L707.511 1794.89 L707.511 1768.52 L699.201 1770.19 L699.201 1765.93 L707.465 1764.26 L712.141 1764.26 L712.141 1794.89 L719.78 1794.89 L719.78 1798.82 L699.872 1798.82 L699.872 1794.89 Z" fill="#000000" fill-rule="nonzero" fill-opacity="1" /><path clip-path="url(#clip010)" d="M739.224 1767.34 Q735.613 1767.34 733.784 1770.9 Q731.979 1774.45 731.979 1781.58 Q731.979 1788.68 733.784 1792.25 Q735.613 1795.79 739.224 1795.79 Q742.858 1795.79 744.664 1792.25 Q746.492 1788.68 746.492 1781.58 Q746.492 1774.45 744.664 1770.9 Q742.858 1767.34 739.224 1767.34 M739.224 1763.64 Q745.034 1763.64 748.09 1768.24 Q751.168 1772.83 751.168 1781.58 Q751.168 1790.3 748.09 1794.91 Q745.034 1799.49 739.224 1799.49 Q733.414 1799.49 730.335 1794.91 Q727.28 1790.3 727.28 1781.58 Q727.28 1772.83 730.335 1768.24 Q733.414 1763.64 739.224 1763.64 Z" fill="#000000" fill-rule="nonzero" fill-opacity="1" /><path clip-path="url(#clip010)" d="M1165.88 1794.89 L1182.19 1794.89 L1182.19 1798.82 L1160.25 1798.82 L1160.25 1794.89 Q1162.91 1792.13 1167.5 1787.5 Q1172.1 1782.85 1173.28 1781.51 Q1175.53 1778.98 1176.41 1777.25 Q1177.31 1775.49 1177.31 1773.8 Q1177.31 1771.04 1175.37 1769.31 Q1173.44 1767.57 1170.34 1767.57 Q1168.14 1767.57 1165.69 1768.34 Q1163.26 1769.1 1160.48 1770.65 L1160.48 1765.93 Q1163.31 1764.79 1165.76 1764.21 Q1168.21 1763.64 1170.25 1763.64 Q1175.62 1763.64 1178.81 1766.32 Q1182.01 1769.01 1182.01 1773.5 Q1182.01 1775.63 1181.2 1777.55 Q1180.41 1779.45 1178.31 1782.04 Q1177.73 1782.71 1174.63 1785.93 Q1171.52 1789.12 1165.88 1794.89 Z" fill="#000000" fill-rule="nonzero" fill-opacity="1" /><path clip-path="url(#clip010)" d="M1202.01 1767.34 Q1198.4 1767.34 1196.57 1770.9 Q1194.76 1774.45 1194.76 1781.58 Q1194.76 1788.68 1196.57 1792.25 Q1198.4 1795.79 1202.01 1795.79 Q1205.64 1795.79 1207.45 1792.25 Q1209.28 1788.68 1209.28 1781.58 Q1209.28 1774.45 1207.45 1770.9 Q1205.64 1767.34 1202.01 1767.34 M1202.01 1763.64 Q1207.82 1763.64 1210.87 1768.24 Q1213.95 1772.83 1213.95 1781.58 Q1213.95 1790.3 1210.87 1794.91 Q1207.82 1799.49 1202.01 1799.49 Q1196.2 1799.49 1193.12 1794.91 Q1190.06 1790.3 1190.06 1781.58 Q1190.06 1772.83 1193.12 1768.24 Q1196.2 1763.64 1202.01 1763.64 Z" fill="#000000" fill-rule="nonzero" fill-opacity="1" /><path clip-path="url(#clip010)" d="M1637.86 1780.19 Q1641.22 1780.9 1643.09 1783.17 Q1644.99 1785.44 1644.99 1788.77 Q1644.99 1793.89 1641.47 1796.69 Q1637.95 1799.49 1631.47 1799.49 Q1629.3 1799.49 1626.98 1799.05 Q1624.69 1798.64 1622.24 1797.78 L1622.24 1793.27 Q1624.18 1794.4 1626.5 1794.98 Q1628.81 1795.56 1631.33 1795.56 Q1635.73 1795.56 1638.02 1793.82 Q1640.34 1792.08 1640.34 1788.77 Q1640.34 1785.72 1638.19 1784.01 Q1636.06 1782.27 1632.24 1782.27 L1628.21 1782.27 L1628.21 1778.43 L1632.42 1778.43 Q1635.87 1778.43 1637.7 1777.06 Q1639.53 1775.67 1639.53 1773.08 Q1639.53 1770.42 1637.63 1769.01 Q1635.76 1767.57 1632.24 1767.57 Q1630.32 1767.57 1628.12 1767.99 Q1625.92 1768.4 1623.28 1769.28 L1623.28 1765.12 Q1625.94 1764.38 1628.26 1764.01 Q1630.59 1763.64 1632.65 1763.64 Q1637.98 1763.64 1641.08 1766.07 Q1644.18 1768.47 1644.18 1772.59 Q1644.18 1775.46 1642.54 1777.46 Q1640.89 1779.42 1637.86 1780.19 Z" fill="#000000" fill-rule="nonzero" fill-opacity="1" /><path clip-path="url(#clip010)" d="M1663.86 1767.34 Q1660.25 1767.34 1658.42 1770.9 Q1656.61 1774.45 1656.61 1781.58 Q1656.61 1788.68 1658.42 1792.25 Q1660.25 1795.79 1663.86 1795.79 Q1667.49 1795.79 1669.3 1792.25 Q1671.13 1788.68 1671.13 1781.58 Q1671.13 1774.45 1669.3 1770.9 Q1667.49 1767.34 1663.86 1767.34 M1663.86 1763.64 Q1669.67 1763.64 1672.72 1768.24 Q1675.8 1772.83 1675.8 1781.58 Q1675.8 1790.3 1672.72 1794.91 Q1669.67 1799.49 1663.86 1799.49 Q1658.05 1799.49 1654.97 1794.91 Q1651.91 1790.3 1651.91 1781.58 Q1651.91 1772.83 1654.97 1768.24 Q1658.05 1763.64 1663.86 1763.64 Z" fill="#000000" fill-rule="nonzero" fill-opacity="1" /><path clip-path="url(#clip010)" d="M2099.11 1768.34 L2087.3 1786.78 L2099.11 1786.78 L2099.11 1768.34 M2097.88 1764.26 L2103.76 1764.26 L2103.76 1786.78 L2108.69 1786.78 L2108.69 1790.67 L2103.76 1790.67 L2103.76 1798.82 L2099.11 1798.82 L2099.11 1790.67 L2083.51 1790.67 L2083.51 1786.16 L2097.88 1764.26 Z" fill="#000000" fill-rule="nonzero" fill-opacity="1" /><path clip-path="url(#clip010)" d="M2126.42 1767.34 Q2122.81 1767.34 2120.98 1770.9 Q2119.18 1774.45 2119.18 1781.58 Q2119.18 1788.68 2120.98 1792.25 Q2122.81 1795.79 2126.42 1795.79 Q2130.06 1795.79 2131.86 1792.25 Q2133.69 1788.68 2133.69 1781.58 Q2133.69 1774.45 2131.86 1770.9 Q2130.06 1767.34 2126.42 1767.34 M2126.42 1763.64 Q2132.23 1763.64 2135.29 1768.24 Q2138.37 1772.83 2138.37 1781.58 Q2138.37 1790.3 2135.29 1794.91 Q2132.23 1799.49 2126.42 1799.49 Q2120.61 1799.49 2117.53 1794.91 Q2114.48 1790.3 2114.48 1781.58 Q2114.48 1772.83 2117.53 1768.24 Q2120.61 1763.64 2126.42 1763.64 Z" fill="#000000" fill-rule="nonzero" fill-opacity="1" /><path clip-path="url(#clip010)" d="M2547.55 1764.26 L2565.91 1764.26 L2565.91 1768.2 L2551.84 1768.2 L2551.84 1776.67 Q2552.85 1776.32 2553.87 1776.16 Q2554.89 1775.97 2555.91 1775.97 Q2561.7 1775.97 2565.08 1779.15 Q2568.46 1782.32 2568.46 1787.73 Q2568.46 1793.31 2564.98 1796.41 Q2561.51 1799.49 2555.19 1799.49 Q2553.02 1799.49 2550.75 1799.12 Q2548.5 1798.75 2546.09 1798.01 L2546.09 1793.31 Q2548.18 1794.45 2550.4 1795 Q2552.62 1795.56 2555.1 1795.56 Q2559.1 1795.56 2561.44 1793.45 Q2563.78 1791.34 2563.78 1787.73 Q2563.78 1784.12 2561.44 1782.02 Q2559.1 1779.91 2555.1 1779.91 Q2553.22 1779.91 2551.35 1780.33 Q2549.5 1780.74 2547.55 1781.62 L2547.55 1764.26 Z" fill="#000000" fill-rule="nonzero" fill-opacity="1" /><path clip-path="url(#clip010)" d="M2587.67 1767.34 Q2584.06 1767.34 2582.23 1770.9 Q2580.42 1774.45 2580.42 1781.58 Q2580.42 1788.68 2582.23 1792.25 Q2584.06 1795.79 2587.67 1795.79 Q2591.3 1795.79 2593.11 1792.25 Q2594.94 1788.68 2594.94 1781.58 Q2594.94 1774.45 2593.11 1770.9 Q2591.3 1767.34 2587.67 1767.34 M2587.67 1763.64 Q2593.48 1763.64 2596.53 1768.24 Q2599.61 1772.83 2599.61 1781.58 Q2599.61 1790.3 2596.53 1794.91 Q2593.48 1799.49 2587.67 1799.49 Q2581.86 1799.49 2578.78 1794.91 Q2575.72 1790.3 2575.72 1781.58 Q2575.72 1772.83 2578.78 1768.24 Q2581.86 1763.64 2587.67 1763.64 Z" fill="#000000" fill-rule="nonzero" fill-opacity="1" /><path clip-path="url(#clip010)" d="M1363.03 1835.78 L1403.23 1835.78 L1403.23 1841.19 L1386.36 1841.19 L1386.36 1883.3 L1379.9 1883.3 L1379.9 1841.19 L1363.03 1841.19 L1363.03 1835.78 Z" fill="#000000" fill-rule="nonzero" fill-opacity="1" /><path clip-path="url(#clip010)" d="M1407.18 1847.65 L1413.04 1847.65 L1413.04 1883.3 L1407.18 1883.3 L1407.18 1847.65 M1407.18 1833.78 L1413.04 1833.78 L1413.04 1841.19 L1407.18 1841.19 L1407.18 1833.78 Z" fill="#000000" fill-rule="nonzero" fill-opacity="1" /><path clip-path="url(#clip010)" d="M1453.04 1854.5 Q1455.24 1850.55 1458.3 1848.67 Q1461.35 1846.79 1465.49 1846.79 Q1471.06 1846.79 1474.08 1850.71 Q1477.11 1854.59 1477.11 1861.78 L1477.11 1883.3 L1471.22 1883.3 L1471.22 1861.98 Q1471.22 1856.85 1469.4 1854.37 Q1467.59 1851.89 1463.87 1851.89 Q1459.31 1851.89 1456.67 1854.91 Q1454.03 1857.93 1454.03 1863.15 L1454.03 1883.3 L1448.14 1883.3 L1448.14 1861.98 Q1448.14 1856.82 1446.33 1854.37 Q1444.51 1851.89 1440.73 1851.89 Q1436.24 1851.89 1433.6 1854.94 Q1430.96 1857.97 1430.96 1863.15 L1430.96 1883.3 L1425.07 1883.3 L1425.07 1847.65 L1430.96 1847.65 L1430.96 1853.19 Q1432.96 1849.91 1435.76 1848.35 Q1438.56 1846.79 1442.41 1846.79 Q1446.3 1846.79 1449 1848.77 Q1451.74 1850.74 1453.04 1854.5 Z" fill="#000000" fill-rule="nonzero" fill-opacity="1" /><path clip-path="url(#clip010)" d="M1519.28 1864.01 L1519.28 1866.88 L1492.35 1866.88 Q1492.73 1872.92 1495.98 1876.11 Q1499.26 1879.26 1505.08 1879.26 Q1508.46 1879.26 1511.61 1878.43 Q1514.79 1877.6 1517.91 1875.95 L1517.91 1881.49 Q1514.76 1882.82 1511.45 1883.52 Q1508.14 1884.22 1504.73 1884.22 Q1496.2 1884.22 1491.21 1879.26 Q1486.24 1874.29 1486.24 1865.83 Q1486.24 1857.07 1490.95 1851.95 Q1495.69 1846.79 1503.72 1846.79 Q1510.91 1846.79 1515.08 1851.44 Q1519.28 1856.06 1519.28 1864.01 M1513.42 1862.29 Q1513.36 1857.49 1510.72 1854.62 Q1508.11 1851.76 1503.78 1851.76 Q1498.88 1851.76 1495.92 1854.53 Q1492.99 1857.3 1492.54 1862.33 L1513.42 1862.29 Z" fill="#000000" fill-rule="nonzero" fill-opacity="1" /><polyline clip-path="url(#clip010)" style="stroke:#000000; stroke-linecap:round; stroke-linejoin:round; stroke-width:4; stroke-opacity:1; fill:none" points="241.557,1734.12 241.557,127.792 "/>
<polyline clip-path="url(#clip010)" style="stroke:#000000; stroke-linecap:round; stroke-linejoin:round; stroke-width:4; stroke-opacity:1; fill:none" points="241.557,1429.32 260.455,1429.32 "/>
<polyline clip-path="url(#clip010)" style="stroke:#000000; stroke-linecap:round; stroke-linejoin:round; stroke-width:4; stroke-opacity:1; fill:none" points="241.557,1116.86 260.455,1116.86 "/>
<polyline clip-path="url(#clip010)" style="stroke:#000000; stroke-linecap:round; stroke-linejoin:round; stroke-width:4; stroke-opacity:1; fill:none" points="241.557,804.411 260.455,804.411 "/>
<polyline clip-path="url(#clip010)" style="stroke:#000000; stroke-linecap:round; stroke-linejoin:round; stroke-width:4; stroke-opacity:1; fill:none" points="241.557,491.957 260.455,491.957 "/>
<polyline clip-path="url(#clip010)" style="stroke:#000000; stroke-linecap:round; stroke-linejoin:round; stroke-width:4; stroke-opacity:1; fill:none" points="241.557,179.503 260.455,179.503 "/>
<path clip-path="url(#clip010)" d="M119.779 1442.66 L127.418 1442.66 L127.418 1416.3 L119.108 1417.96 L119.108 1413.7 L127.372 1412.04 L132.048 1412.04 L132.048 1442.66 L139.687 1442.66 L139.687 1446.6 L119.779 1446.6 L119.779 1442.66 Z" fill="#000000" fill-rule="nonzero" fill-opacity="1" /><path clip-path="url(#clip010)" d="M159.131 1415.12 Q155.52 1415.12 153.691 1418.68 Q151.886 1422.22 151.886 1429.35 Q151.886 1436.46 153.691 1440.02 Q155.52 1443.57 159.131 1443.57 Q162.765 1443.57 164.571 1440.02 Q166.399 1436.46 166.399 1429.35 Q166.399 1422.22 164.571 1418.68 Q162.765 1415.12 159.131 1415.12 M159.131 1411.41 Q164.941 1411.41 167.997 1416.02 Q171.075 1420.6 171.075 1429.35 Q171.075 1438.08 167.997 1442.69 Q164.941 1447.27 159.131 1447.27 Q153.321 1447.27 150.242 1442.69 Q147.186 1438.08 147.186 1429.35 Q147.186 1420.6 150.242 1416.02 Q153.321 1411.41 159.131 1411.41 Z" fill="#000000" fill-rule="nonzero" fill-opacity="1" /><path clip-path="url(#clip010)" d="M189.293 1415.12 Q185.682 1415.12 183.853 1418.68 Q182.047 1422.22 182.047 1429.35 Q182.047 1436.46 183.853 1440.02 Q185.682 1443.57 189.293 1443.57 Q192.927 1443.57 194.733 1440.02 Q196.561 1436.46 196.561 1429.35 Q196.561 1422.22 194.733 1418.68 Q192.927 1415.12 189.293 1415.12 M189.293 1411.41 Q195.103 1411.41 198.158 1416.02 Q201.237 1420.6 201.237 1429.35 Q201.237 1438.08 198.158 1442.69 Q195.103 1447.27 189.293 1447.27 Q183.483 1447.27 180.404 1442.69 Q177.348 1438.08 177.348 1429.35 Q177.348 1420.6 180.404 1416.02 Q183.483 1411.41 189.293 1411.41 Z" fill="#000000" fill-rule="nonzero" fill-opacity="1" /><path clip-path="url(#clip010)" d="M122.997 1130.21 L139.316 1130.21 L139.316 1134.14 L117.372 1134.14 L117.372 1130.21 Q120.034 1127.45 124.617 1122.83 Q129.224 1118.17 130.404 1116.83 Q132.65 1114.31 133.529 1112.57 Q134.432 1110.81 134.432 1109.12 Q134.432 1106.37 132.488 1104.63 Q130.566 1102.89 127.464 1102.89 Q125.265 1102.89 122.812 1103.66 Q120.381 1104.42 117.603 1105.97 L117.603 1101.25 Q120.427 1100.12 122.881 1099.54 Q125.335 1098.96 127.372 1098.96 Q132.742 1098.96 135.937 1101.64 Q139.131 1104.33 139.131 1108.82 Q139.131 1110.95 138.321 1112.87 Q137.534 1114.77 135.427 1117.36 Q134.849 1118.03 131.747 1121.25 Q128.645 1124.45 122.997 1130.21 Z" fill="#000000" fill-rule="nonzero" fill-opacity="1" /><path clip-path="url(#clip010)" d="M159.131 1102.66 Q155.52 1102.66 153.691 1106.23 Q151.886 1109.77 151.886 1116.9 Q151.886 1124.01 153.691 1127.57 Q155.52 1131.11 159.131 1131.11 Q162.765 1131.11 164.571 1127.57 Q166.399 1124.01 166.399 1116.9 Q166.399 1109.77 164.571 1106.23 Q162.765 1102.66 159.131 1102.66 M159.131 1098.96 Q164.941 1098.96 167.997 1103.57 Q171.075 1108.15 171.075 1116.9 Q171.075 1125.63 167.997 1130.23 Q164.941 1134.82 159.131 1134.82 Q153.321 1134.82 150.242 1130.23 Q147.186 1125.63 147.186 1116.9 Q147.186 1108.15 150.242 1103.57 Q153.321 1098.96 159.131 1098.96 Z" fill="#000000" fill-rule="nonzero" fill-opacity="1" /><path clip-path="url(#clip010)" d="M189.293 1102.66 Q185.682 1102.66 183.853 1106.23 Q182.047 1109.77 182.047 1116.9 Q182.047 1124.01 183.853 1127.57 Q185.682 1131.11 189.293 1131.11 Q192.927 1131.11 194.733 1127.57 Q196.561 1124.01 196.561 1116.9 Q196.561 1109.77 194.733 1106.23 Q192.927 1102.66 189.293 1102.66 M189.293 1098.96 Q195.103 1098.96 198.158 1103.57 Q201.237 1108.15 201.237 1116.9 Q201.237 1125.63 198.158 1130.23 Q195.103 1134.82 189.293 1134.82 Q183.483 1134.82 180.404 1130.23 Q177.348 1125.63 177.348 1116.9 Q177.348 1108.15 180.404 1103.57 Q183.483 1098.96 189.293 1098.96 Z" fill="#000000" fill-rule="nonzero" fill-opacity="1" /><path clip-path="url(#clip010)" d="M133.136 803.057 Q136.492 803.774 138.367 806.043 Q140.265 808.311 140.265 811.645 Q140.265 816.76 136.747 819.561 Q133.228 822.362 126.747 822.362 Q124.571 822.362 122.256 821.922 Q119.964 821.506 117.511 820.649 L117.511 816.135 Q119.455 817.27 121.77 817.848 Q124.085 818.427 126.608 818.427 Q131.006 818.427 133.298 816.691 Q135.612 814.955 135.612 811.645 Q135.612 808.589 133.46 806.876 Q131.33 805.14 127.511 805.14 L123.483 805.14 L123.483 801.297 L127.696 801.297 Q131.145 801.297 132.974 799.932 Q134.802 798.543 134.802 795.95 Q134.802 793.288 132.904 791.876 Q131.029 790.441 127.511 790.441 Q125.589 790.441 123.39 790.858 Q121.191 791.274 118.552 792.154 L118.552 787.987 Q121.214 787.247 123.529 786.876 Q125.867 786.506 127.927 786.506 Q133.251 786.506 136.353 788.936 Q139.455 791.344 139.455 795.464 Q139.455 798.334 137.812 800.325 Q136.168 802.293 133.136 803.057 Z" fill="#000000" fill-rule="nonzero" fill-opacity="1" /><path clip-path="url(#clip010)" d="M159.131 790.209 Q155.52 790.209 153.691 793.774 Q151.886 797.316 151.886 804.445 Q151.886 811.552 153.691 815.117 Q155.52 818.658 159.131 818.658 Q162.765 818.658 164.571 815.117 Q166.399 811.552 166.399 804.445 Q166.399 797.316 164.571 793.774 Q162.765 790.209 159.131 790.209 M159.131 786.506 Q164.941 786.506 167.997 791.112 Q171.075 795.696 171.075 804.445 Q171.075 813.172 167.997 817.779 Q164.941 822.362 159.131 822.362 Q153.321 822.362 150.242 817.779 Q147.186 813.172 147.186 804.445 Q147.186 795.696 150.242 791.112 Q153.321 786.506 159.131 786.506 Z" fill="#000000" fill-rule="nonzero" fill-opacity="1" /><path clip-path="url(#clip010)" d="M189.293 790.209 Q185.682 790.209 183.853 793.774 Q182.047 797.316 182.047 804.445 Q182.047 811.552 183.853 815.117 Q185.682 818.658 189.293 818.658 Q192.927 818.658 194.733 815.117 Q196.561 811.552 196.561 804.445 Q196.561 797.316 194.733 793.774 Q192.927 790.209 189.293 790.209 M189.293 786.506 Q195.103 786.506 198.158 791.112 Q201.237 795.696 201.237 804.445 Q201.237 813.172 198.158 817.779 Q195.103 822.362 189.293 822.362 Q183.483 822.362 180.404 817.779 Q177.348 813.172 177.348 804.445 Q177.348 795.696 180.404 791.112 Q183.483 786.506 189.293 786.506 Z" fill="#000000" fill-rule="nonzero" fill-opacity="1" /><path clip-path="url(#clip010)" d="M131.816 478.751 L120.011 497.2 L131.816 497.2 L131.816 478.751 M130.589 474.677 L136.469 474.677 L136.469 497.2 L141.399 497.2 L141.399 501.089 L136.469 501.089 L136.469 509.237 L131.816 509.237 L131.816 501.089 L116.214 501.089 L116.214 496.575 L130.589 474.677 Z" fill="#000000" fill-rule="nonzero" fill-opacity="1" /><path clip-path="url(#clip010)" d="M159.131 477.756 Q155.52 477.756 153.691 481.32 Q151.886 484.862 151.886 491.992 Q151.886 499.098 153.691 502.663 Q155.52 506.205 159.131 506.205 Q162.765 506.205 164.571 502.663 Q166.399 499.098 166.399 491.992 Q166.399 484.862 164.571 481.32 Q162.765 477.756 159.131 477.756 M159.131 474.052 Q164.941 474.052 167.997 478.658 Q171.075 483.242 171.075 491.992 Q171.075 500.719 167.997 505.325 Q164.941 509.908 159.131 509.908 Q153.321 509.908 150.242 505.325 Q147.186 500.719 147.186 491.992 Q147.186 483.242 150.242 478.658 Q153.321 474.052 159.131 474.052 Z" fill="#000000" fill-rule="nonzero" fill-opacity="1" /><path clip-path="url(#clip010)" d="M189.293 477.756 Q185.682 477.756 183.853 481.32 Q182.047 484.862 182.047 491.992 Q182.047 499.098 183.853 502.663 Q185.682 506.205 189.293 506.205 Q192.927 506.205 194.733 502.663 Q196.561 499.098 196.561 491.992 Q196.561 484.862 194.733 481.32 Q192.927 477.756 189.293 477.756 M189.293 474.052 Q195.103 474.052 198.158 478.658 Q201.237 483.242 201.237 491.992 Q201.237 500.719 198.158 505.325 Q195.103 509.908 189.293 509.908 Q183.483 509.908 180.404 505.325 Q177.348 500.719 177.348 491.992 Q177.348 483.242 180.404 478.658 Q183.483 474.052 189.293 474.052 Z" fill="#000000" fill-rule="nonzero" fill-opacity="1" /><path clip-path="url(#clip010)" d="M119.015 162.223 L137.372 162.223 L137.372 166.158 L123.298 166.158 L123.298 174.631 Q124.316 174.283 125.335 174.121 Q126.353 173.936 127.372 173.936 Q133.159 173.936 136.538 177.107 Q139.918 180.279 139.918 185.695 Q139.918 191.274 136.446 194.376 Q132.974 197.455 126.654 197.455 Q124.478 197.455 122.21 197.084 Q119.964 196.714 117.557 195.973 L117.557 191.274 Q119.64 192.408 121.863 192.964 Q124.085 193.519 126.562 193.519 Q130.566 193.519 132.904 191.413 Q135.242 189.306 135.242 185.695 Q135.242 182.084 132.904 179.978 Q130.566 177.871 126.562 177.871 Q124.687 177.871 122.812 178.288 Q120.96 178.705 119.015 179.584 L119.015 162.223 Z" fill="#000000" fill-rule="nonzero" fill-opacity="1" /><path clip-path="url(#clip010)" d="M159.131 165.302 Q155.52 165.302 153.691 168.867 Q151.886 172.408 151.886 179.538 Q151.886 186.644 153.691 190.209 Q155.52 193.751 159.131 193.751 Q162.765 193.751 164.571 190.209 Q166.399 186.644 166.399 179.538 Q166.399 172.408 164.571 168.867 Q162.765 165.302 159.131 165.302 M159.131 161.598 Q164.941 161.598 167.997 166.205 Q171.075 170.788 171.075 179.538 Q171.075 188.265 167.997 192.871 Q164.941 197.455 159.131 197.455 Q153.321 197.455 150.242 192.871 Q147.186 188.265 147.186 179.538 Q147.186 170.788 150.242 166.205 Q153.321 161.598 159.131 161.598 Z" fill="#000000" fill-rule="nonzero" fill-opacity="1" /><path clip-path="url(#clip010)" d="M189.293 165.302 Q185.682 165.302 183.853 168.867 Q182.047 172.408 182.047 179.538 Q182.047 186.644 183.853 190.209 Q185.682 193.751 189.293 193.751 Q192.927 193.751 194.733 190.209 Q196.561 186.644 196.561 179.538 Q196.561 172.408 194.733 168.867 Q192.927 165.302 189.293 165.302 M189.293 161.598 Q195.103 161.598 198.158 166.205 Q201.237 170.788 201.237 179.538 Q201.237 188.265 198.158 192.871 Q195.103 197.455 189.293 197.455 Q183.483 197.455 180.404 192.871 Q177.348 188.265 177.348 179.538 Q177.348 170.788 180.404 166.205 Q183.483 161.598 189.293 161.598 Z" fill="#000000" fill-rule="nonzero" fill-opacity="1" /><path clip-path="url(#clip010)" d="M17.7787 985.954 L24.5582 985.954 Q21.5345 989.201 20.0386 992.893 Q18.5426 996.553 18.5426 1000.69 Q18.5426 1008.84 23.5397 1013.17 Q28.5049 1017.5 37.9262 1017.5 Q47.3156 1017.5 52.3127 1013.17 Q57.2779 1008.84 57.2779 1000.69 Q57.2779 996.553 55.782 992.893 Q54.2861 989.201 51.2623 985.954 L57.9782 985.954 Q60.2698 989.328 61.4156 993.116 Q62.5615 996.871 62.5615 1001.07 Q62.5615 1011.86 55.973 1018.07 Q49.3526 1024.28 37.9262 1024.28 Q26.4679 1024.28 19.8794 1018.07 Q13.2591 1011.86 13.2591 1001.07 Q13.2591 996.808 14.4049 993.052 Q15.5189 989.264 17.7787 985.954 Z" fill="#000000" fill-rule="nonzero" fill-opacity="1" /><path clip-path="url(#clip010)" d="M43.719 960.078 Q43.719 967.175 45.3422 969.913 Q46.9655 972.65 50.8804 972.65 Q53.9996 972.65 55.8457 970.613 Q57.6599 968.544 57.6599 965.011 Q57.6599 960.141 54.2224 957.213 Q50.7531 954.253 45.0239 954.253 L43.719 954.253 L43.719 960.078 M41.3 948.397 L61.6384 948.397 L61.6384 954.253 L56.2276 954.253 Q59.4741 956.258 61.0337 959.25 Q62.5615 962.242 62.5615 966.571 Q62.5615 972.045 59.5059 975.292 Q56.4186 978.506 51.2623 978.506 Q45.2467 978.506 42.1912 974.496 Q39.1357 970.454 39.1357 962.465 L39.1357 954.253 L38.5628 954.253 Q34.5205 954.253 32.3244 956.927 Q30.0964 959.568 30.0964 964.375 Q30.0964 967.43 30.8284 970.326 Q31.5605 973.223 33.0246 975.896 L27.6137 975.896 Q26.3724 972.682 25.7677 969.658 Q25.1311 966.634 25.1311 963.77 Q25.1311 956.035 29.1415 952.216 Q33.1519 948.397 41.3 948.397 Z" fill="#000000" fill-rule="nonzero" fill-opacity="1" /><path clip-path="url(#clip010)" d="M27.0408 913.608 L32.579 913.608 Q31.3059 916.091 30.6693 918.764 Q30.0327 921.438 30.0327 924.302 Q30.0327 928.663 31.3695 930.859 Q32.7063 933.023 35.3799 933.023 Q37.4169 933.023 38.5946 931.464 Q39.7404 929.904 40.7908 925.194 L41.2364 923.188 Q42.5732 916.95 45.0239 914.34 Q47.4429 911.698 51.8034 911.698 Q56.7687 911.698 59.6651 915.645 Q62.5615 919.56 62.5615 926.435 Q62.5615 929.299 61.9886 932.419 Q61.4475 935.506 60.3335 938.944 L54.2861 938.944 Q55.973 935.697 56.8323 932.546 Q57.6599 929.395 57.6599 926.308 Q57.6599 922.17 56.2594 919.942 Q54.8271 917.714 52.249 917.714 Q49.8619 917.714 48.5887 919.337 Q47.3156 920.929 46.1379 926.371 L45.6605 928.408 Q44.5147 933.851 42.1594 936.27 Q39.7722 938.689 35.6345 938.689 Q30.6056 938.689 27.8684 935.124 Q25.1311 931.559 25.1311 925.003 Q25.1311 921.756 25.6085 918.892 Q26.086 916.027 27.0408 913.608 Z" fill="#000000" fill-rule="nonzero" fill-opacity="1" /><path clip-path="url(#clip010)" d="M42.3504 871.881 L45.2149 871.881 L45.2149 898.808 Q51.2623 898.426 54.4452 895.179 Q57.5962 891.901 57.5962 886.076 Q57.5962 882.702 56.7687 879.551 Q55.9411 876.369 54.2861 873.249 L59.8242 873.249 Q61.161 876.4 61.8612 879.711 Q62.5615 883.021 62.5615 886.426 Q62.5615 894.956 57.5962 899.954 Q52.631 904.919 44.1646 904.919 Q35.4117 904.919 30.2873 900.208 Q25.1311 895.466 25.1311 887.445 Q25.1311 880.252 29.7781 876.082 Q34.3932 871.881 42.3504 871.881 M40.6316 877.737 Q35.8255 877.801 32.9609 880.443 Q30.0964 883.053 30.0964 887.381 Q30.0964 892.283 32.8654 895.243 Q35.6345 898.171 40.6634 898.617 L40.6316 877.737 Z" fill="#000000" fill-rule="nonzero" fill-opacity="1" /><path clip-path="url(#clip010)" d="M27.0408 839.543 L32.579 839.543 Q31.3059 842.026 30.6693 844.699 Q30.0327 847.373 30.0327 850.237 Q30.0327 854.598 31.3695 856.794 Q32.7063 858.958 35.3799 858.958 Q37.4169 858.958 38.5946 857.399 Q39.7404 855.839 40.7908 851.129 L41.2364 849.123 Q42.5732 842.885 45.0239 840.275 Q47.4429 837.633 51.8034 837.633 Q56.7687 837.633 59.6651 841.58 Q62.5615 845.495 62.5615 852.37 Q62.5615 855.234 61.9886 858.354 Q61.4475 861.441 60.3335 864.879 L54.2861 864.879 Q55.973 861.632 56.8323 858.481 Q57.6599 855.33 57.6599 852.243 Q57.6599 848.105 56.2594 845.877 Q54.8271 843.649 52.249 843.649 Q49.8619 843.649 48.5887 845.272 Q47.3156 846.864 46.1379 852.306 L45.6605 854.343 Q44.5147 859.786 42.1594 862.205 Q39.7722 864.624 35.6345 864.624 Q30.6056 864.624 27.8684 861.059 Q25.1311 857.494 25.1311 850.938 Q25.1311 847.691 25.6085 844.827 Q26.086 841.962 27.0408 839.543 Z" fill="#000000" fill-rule="nonzero" fill-opacity="1" /><path clip-path="url(#clip010)" d="M1178.52 14.0809 L1178.52 22.0612 Q1173.86 19.8332 1169.73 18.7395 Q1165.59 17.6457 1161.75 17.6457 Q1155.06 17.6457 1151.42 20.2383 Q1147.81 22.8309 1147.81 27.611 Q1147.81 31.6214 1150.2 33.6873 Q1152.63 35.7128 1159.36 36.9686 L1164.3 37.9813 Q1173.45 39.7232 1177.79 44.1387 Q1182.16 48.5136 1182.16 55.8863 Q1182.16 64.6767 1176.25 69.2137 Q1170.37 73.7508 1158.99 73.7508 Q1154.7 73.7508 1149.84 72.7785 Q1145.02 71.8063 1139.83 69.9024 L1139.83 61.4765 Q1144.81 64.2716 1149.59 65.6895 Q1154.37 67.1073 1158.99 67.1073 Q1166 67.1073 1169.81 64.3527 Q1173.61 61.598 1173.61 56.4939 Q1173.61 52.0379 1170.86 49.5264 Q1168.15 47.0148 1161.91 45.759 L1156.92 44.7868 Q1147.77 42.9639 1143.68 39.075 Q1139.59 35.1862 1139.59 28.2591 Q1139.59 20.2383 1145.22 15.6203 Q1150.89 11.0023 1160.81 11.0023 Q1165.07 11.0023 1169.48 11.7719 Q1173.9 12.5416 1178.52 14.0809 Z" fill="#000000" fill-rule="nonzero" fill-opacity="1" /><path clip-path="url(#clip010)" d="M1213.48 76.7889 Q1210.32 84.8907 1207.32 87.3618 Q1204.32 89.8329 1199.3 89.8329 L1193.34 89.8329 L1193.34 83.5945 L1197.72 83.5945 Q1200.8 83.5945 1202.5 82.1361 Q1204.2 80.6778 1206.26 75.2496 L1207.6 71.8468 L1189.25 27.2059 L1197.15 27.2059 L1211.33 62.6918 L1225.51 27.2059 L1233.41 27.2059 L1213.48 76.7889 Z" fill="#000000" fill-rule="nonzero" fill-opacity="1" /><path clip-path="url(#clip010)" d="M1281.41 45.1919 L1281.41 72.576 L1273.96 72.576 L1273.96 45.4349 Q1273.96 38.994 1271.44 35.7938 Q1268.93 32.5936 1263.91 32.5936 Q1257.87 32.5936 1254.39 36.4419 Q1250.91 40.2903 1250.91 46.9338 L1250.91 72.576 L1243.41 72.576 L1243.41 27.2059 L1250.91 27.2059 L1250.91 34.2544 Q1253.58 30.163 1257.18 28.1376 Q1260.83 26.1121 1265.57 26.1121 Q1273.39 26.1121 1277.4 30.9732 Q1281.41 35.7938 1281.41 45.1919 Z" fill="#000000" fill-rule="nonzero" fill-opacity="1" /><path clip-path="url(#clip010)" d="M1303.65 14.324 L1303.65 27.2059 L1319 27.2059 L1319 32.9987 L1303.65 32.9987 L1303.65 57.6282 Q1303.65 63.1779 1305.15 64.7578 Q1306.69 66.3376 1311.35 66.3376 L1319 66.3376 L1319 72.576 L1311.35 72.576 Q1302.72 72.576 1299.44 69.3758 Q1296.15 66.1351 1296.15 57.6282 L1296.15 32.9987 L1290.69 32.9987 L1290.69 27.2059 L1296.15 27.2059 L1296.15 14.324 L1303.65 14.324 Z" fill="#000000" fill-rule="nonzero" fill-opacity="1" /><path clip-path="url(#clip010)" d="M1366.52 45.1919 L1366.52 72.576 L1359.06 72.576 L1359.06 45.4349 Q1359.06 38.994 1356.55 35.7938 Q1354.04 32.5936 1349.02 32.5936 Q1342.98 32.5936 1339.5 36.4419 Q1336.02 40.2903 1336.02 46.9338 L1336.02 72.576 L1328.52 72.576 L1328.52 9.54393 L1336.02 9.54393 L1336.02 34.2544 Q1338.69 30.163 1342.29 28.1376 Q1345.94 26.1121 1350.68 26.1121 Q1358.5 26.1121 1362.51 30.9732 Q1366.52 35.7938 1366.52 45.1919 Z" fill="#000000" fill-rule="nonzero" fill-opacity="1" /><path clip-path="url(#clip010)" d="M1420.19 48.0275 L1420.19 51.6733 L1385.92 51.6733 Q1386.41 59.3701 1390.54 63.421 Q1394.71 67.4314 1402.13 67.4314 Q1406.42 67.4314 1410.43 66.3781 Q1414.48 65.3249 1418.45 63.2184 L1418.45 70.267 Q1414.44 71.9684 1410.23 72.8596 Q1406.01 73.7508 1401.68 73.7508 Q1390.82 73.7508 1384.46 67.4314 Q1378.14 61.1119 1378.14 50.3365 Q1378.14 39.1965 1384.14 32.6746 Q1390.18 26.1121 1400.38 26.1121 Q1409.54 26.1121 1414.85 32.0264 Q1420.19 37.9003 1420.19 48.0275 M1412.74 45.84 Q1412.66 39.7232 1409.3 36.0774 Q1405.97 32.4315 1400.47 32.4315 Q1394.23 32.4315 1390.46 35.9558 Q1386.73 39.4801 1386.17 45.8805 L1412.74 45.84 Z" fill="#000000" fill-rule="nonzero" fill-opacity="1" /><path clip-path="url(#clip010)" d="M1439.8 14.324 L1439.8 27.2059 L1455.15 27.2059 L1455.15 32.9987 L1439.8 32.9987 L1439.8 57.6282 Q1439.8 63.1779 1441.3 64.7578 Q1442.84 66.3376 1447.5 66.3376 L1455.15 66.3376 L1455.15 72.576 L1447.5 72.576 Q1438.87 72.576 1435.59 69.3758 Q1432.31 66.1351 1432.31 57.6282 L1432.31 32.9987 L1426.84 32.9987 L1426.84 27.2059 L1432.31 27.2059 L1432.31 14.324 L1439.8 14.324 Z" fill="#000000" fill-rule="nonzero" fill-opacity="1" /><path clip-path="url(#clip010)" d="M1464.96 27.2059 L1472.41 27.2059 L1472.41 72.576 L1464.96 72.576 L1464.96 27.2059 M1464.96 9.54393 L1472.41 9.54393 L1472.41 18.9825 L1464.96 18.9825 L1464.96 9.54393 Z" fill="#000000" fill-rule="nonzero" fill-opacity="1" /><path clip-path="url(#clip010)" d="M1520.66 28.9478 L1520.66 35.9153 Q1517.5 34.1734 1514.3 33.3227 Q1511.14 32.4315 1507.9 32.4315 Q1500.64 32.4315 1496.63 37.0496 Q1492.62 41.6271 1492.62 49.9314 Q1492.62 58.2358 1496.63 62.8538 Q1500.64 67.4314 1507.9 67.4314 Q1511.14 67.4314 1514.3 66.5807 Q1517.5 65.6895 1520.66 63.9476 L1520.66 70.8341 Q1517.54 72.2924 1514.17 73.0216 Q1510.85 73.7508 1507.08 73.7508 Q1496.84 73.7508 1490.8 67.3098 Q1484.76 60.8689 1484.76 49.9314 Q1484.76 38.832 1490.84 32.472 Q1496.96 26.1121 1507.57 26.1121 Q1511.01 26.1121 1514.3 26.8413 Q1517.58 27.5299 1520.66 28.9478 Z" fill="#000000" fill-rule="nonzero" fill-opacity="1" /><path clip-path="url(#clip010)" d="M1568.5 18.8205 L1568.5 65.8515 L1578.38 65.8515 Q1590.9 65.8515 1596.69 60.1802 Q1602.52 54.509 1602.52 42.2752 Q1602.52 30.1225 1596.69 24.4918 Q1590.9 18.8205 1578.38 18.8205 L1568.5 18.8205 M1560.31 12.096 L1577.13 12.096 Q1594.71 12.096 1602.93 19.4281 Q1611.15 26.7198 1611.15 42.2752 Q1611.15 57.9117 1602.89 65.2439 Q1594.63 72.576 1577.13 72.576 L1560.31 72.576 L1560.31 12.096 Z" fill="#000000" fill-rule="nonzero" fill-opacity="1" /><path clip-path="url(#clip010)" d="M1644.49 49.7694 Q1635.46 49.7694 1631.97 51.8354 Q1628.49 53.9013 1628.49 58.8839 Q1628.49 62.8538 1631.08 65.2034 Q1633.72 67.5124 1638.21 67.5124 Q1644.41 67.5124 1648.14 63.1374 Q1651.9 58.7219 1651.9 51.4303 L1651.9 49.7694 L1644.49 49.7694 M1659.36 46.6907 L1659.36 72.576 L1651.9 72.576 L1651.9 65.6895 Q1649.35 69.8214 1645.54 71.8063 Q1641.74 73.7508 1636.23 73.7508 Q1629.26 73.7508 1625.13 69.8619 Q1621.04 65.9325 1621.04 59.3701 Q1621.04 51.7138 1626.14 47.825 Q1631.29 43.9361 1641.45 43.9361 L1651.9 43.9361 L1651.9 43.2069 Q1651.9 38.0623 1648.5 35.2672 Q1645.14 32.4315 1639.02 32.4315 Q1635.13 32.4315 1631.45 33.3632 Q1627.76 34.295 1624.36 36.1584 L1624.36 29.2718 Q1628.45 27.692 1632.3 26.9223 Q1636.15 26.1121 1639.79 26.1121 Q1649.64 26.1121 1654.5 31.2163 Q1659.36 36.3204 1659.36 46.6907 Z" fill="#000000" fill-rule="nonzero" fill-opacity="1" /><path clip-path="url(#clip010)" d="M1682.08 14.324 L1682.08 27.2059 L1697.44 27.2059 L1697.44 32.9987 L1682.08 32.9987 L1682.08 57.6282 Q1682.08 63.1779 1683.58 64.7578 Q1685.12 66.3376 1689.78 66.3376 L1697.44 66.3376 L1697.44 72.576 L1689.78 72.576 Q1681.15 72.576 1677.87 69.3758 Q1674.59 66.1351 1674.59 57.6282 L1674.59 32.9987 L1669.12 32.9987 L1669.12 27.2059 L1674.59 27.2059 L1674.59 14.324 L1682.08 14.324 Z" fill="#000000" fill-rule="nonzero" fill-opacity="1" /><path clip-path="url(#clip010)" d="M1727.86 49.7694 Q1718.83 49.7694 1715.34 51.8354 Q1711.86 53.9013 1711.86 58.8839 Q1711.86 62.8538 1714.45 65.2034 Q1717.08 67.5124 1721.58 67.5124 Q1727.78 67.5124 1731.51 63.1374 Q1735.27 58.7219 1735.27 51.4303 L1735.27 49.7694 L1727.86 49.7694 M1742.73 46.6907 L1742.73 72.576 L1735.27 72.576 L1735.27 65.6895 Q1732.72 69.8214 1728.91 71.8063 Q1725.1 73.7508 1719.6 73.7508 Q1712.63 73.7508 1708.5 69.8619 Q1704.4 65.9325 1704.4 59.3701 Q1704.4 51.7138 1709.51 47.825 Q1714.65 43.9361 1724.82 43.9361 L1735.27 43.9361 L1735.27 43.2069 Q1735.27 38.0623 1731.87 35.2672 Q1728.51 32.4315 1722.39 32.4315 Q1718.5 32.4315 1714.82 33.3632 Q1711.13 34.295 1707.73 36.1584 L1707.73 29.2718 Q1711.82 27.692 1715.67 26.9223 Q1719.51 26.1121 1723.16 26.1121 Q1733 26.1121 1737.87 31.2163 Q1742.73 36.3204 1742.73 46.6907 Z" fill="#000000" fill-rule="nonzero" fill-opacity="1" /><circle clip-path="url(#clip011)" cx="309.459" cy="1688.65" r="10.8" fill="#009af9" fill-rule="evenodd" fill-opacity="1" stroke="#000000" stroke-opacity="1" stroke-width="3.84"/>
<circle clip-path="url(#clip011)" cx="355.651" cy="1688.65" r="10.8" fill="#009af9" fill-rule="evenodd" fill-opacity="1" stroke="#000000" stroke-opacity="1" stroke-width="3.84"/>
<circle clip-path="url(#clip011)" cx="401.842" cy="1657.41" r="10.8" fill="#009af9" fill-rule="evenodd" fill-opacity="1" stroke="#000000" stroke-opacity="1" stroke-width="3.84"/>
<circle clip-path="url(#clip011)" cx="448.034" cy="1598.04" r="10.8" fill="#009af9" fill-rule="evenodd" fill-opacity="1" stroke="#000000" stroke-opacity="1" stroke-width="3.84"/>
<circle clip-path="url(#clip011)" cx="494.226" cy="1554.3" r="10.8" fill="#009af9" fill-rule="evenodd" fill-opacity="1" stroke="#000000" stroke-opacity="1" stroke-width="3.84"/>
<circle clip-path="url(#clip011)" cx="540.418" cy="1401.2" r="10.8" fill="#009af9" fill-rule="evenodd" fill-opacity="1" stroke="#000000" stroke-opacity="1" stroke-width="3.84"/>
<circle clip-path="url(#clip011)" cx="586.609" cy="1338.71" r="10.8" fill="#009af9" fill-rule="evenodd" fill-opacity="1" stroke="#000000" stroke-opacity="1" stroke-width="3.84"/>
<circle clip-path="url(#clip011)" cx="632.801" cy="1229.35" r="10.8" fill="#009af9" fill-rule="evenodd" fill-opacity="1" stroke="#000000" stroke-opacity="1" stroke-width="3.84"/>
<circle clip-path="url(#clip011)" cx="678.993" cy="988.759" r="10.8" fill="#009af9" fill-rule="evenodd" fill-opacity="1" stroke="#000000" stroke-opacity="1" stroke-width="3.84"/>
<circle clip-path="url(#clip011)" cx="725.185" cy="773.165" r="10.8" fill="#009af9" fill-rule="evenodd" fill-opacity="1" stroke="#000000" stroke-opacity="1" stroke-width="3.84"/>
<circle clip-path="url(#clip011)" cx="771.376" cy="632.561" r="10.8" fill="#009af9" fill-rule="evenodd" fill-opacity="1" stroke="#000000" stroke-opacity="1" stroke-width="3.84"/>
<circle clip-path="url(#clip011)" cx="817.568" cy="498.206" r="10.8" fill="#009af9" fill-rule="evenodd" fill-opacity="1" stroke="#000000" stroke-opacity="1" stroke-width="3.84"/>
<circle clip-path="url(#clip011)" cx="863.76" cy="279.488" r="10.8" fill="#009af9" fill-rule="evenodd" fill-opacity="1" stroke="#000000" stroke-opacity="1" stroke-width="3.84"/>
<circle clip-path="url(#clip011)" cx="909.952" cy="260.741" r="10.8" fill="#009af9" fill-rule="evenodd" fill-opacity="1" stroke="#000000" stroke-opacity="1" stroke-width="3.84"/>
<circle clip-path="url(#clip011)" cx="956.143" cy="232.62" r="10.8" fill="#009af9" fill-rule="evenodd" fill-opacity="1" stroke="#000000" stroke-opacity="1" stroke-width="3.84"/>
<circle clip-path="url(#clip011)" cx="1002.34" cy="173.254" r="10.8" fill="#009af9" fill-rule="evenodd" fill-opacity="1" stroke="#000000" stroke-opacity="1" stroke-width="3.84"/>
<circle clip-path="url(#clip011)" cx="1048.53" cy="266.99" r="10.8" fill="#009af9" fill-rule="evenodd" fill-opacity="1" stroke="#000000" stroke-opacity="1" stroke-width="3.84"/>
<circle clip-path="url(#clip011)" cx="1094.72" cy="445.089" r="10.8" fill="#009af9" fill-rule="evenodd" fill-opacity="1" stroke="#000000" stroke-opacity="1" stroke-width="3.84"/>
<circle clip-path="url(#clip011)" cx="1140.91" cy="454.463" r="10.8" fill="#009af9" fill-rule="evenodd" fill-opacity="1" stroke="#000000" stroke-opacity="1" stroke-width="3.84"/>
<circle clip-path="url(#clip011)" cx="1187.1" cy="407.594" r="10.8" fill="#009af9" fill-rule="evenodd" fill-opacity="1" stroke="#000000" stroke-opacity="1" stroke-width="3.84"/>
<circle clip-path="url(#clip011)" cx="1233.29" cy="613.814" r="10.8" fill="#009af9" fill-rule="evenodd" fill-opacity="1" stroke="#000000" stroke-opacity="1" stroke-width="3.84"/>
<circle clip-path="url(#clip011)" cx="1279.49" cy="610.689" r="10.8" fill="#009af9" fill-rule="evenodd" fill-opacity="1" stroke="#000000" stroke-opacity="1" stroke-width="3.84"/>
<circle clip-path="url(#clip011)" cx="1325.68" cy="760.667" r="10.8" fill="#009af9" fill-rule="evenodd" fill-opacity="1" stroke="#000000" stroke-opacity="1" stroke-width="3.84"/>
<circle clip-path="url(#clip011)" cx="1371.87" cy="835.656" r="10.8" fill="#009af9" fill-rule="evenodd" fill-opacity="1" stroke="#000000" stroke-opacity="1" stroke-width="3.84"/>
<circle clip-path="url(#clip011)" cx="1418.06" cy="885.649" r="10.8" fill="#009af9" fill-rule="evenodd" fill-opacity="1" stroke="#000000" stroke-opacity="1" stroke-width="3.84"/>
<circle clip-path="url(#clip011)" cx="1464.25" cy="1010.63" r="10.8" fill="#009af9" fill-rule="evenodd" fill-opacity="1" stroke="#000000" stroke-opacity="1" stroke-width="3.84"/>
<circle clip-path="url(#clip011)" cx="1510.44" cy="963.762" r="10.8" fill="#009af9" fill-rule="evenodd" fill-opacity="1" stroke="#000000" stroke-opacity="1" stroke-width="3.84"/>
<circle clip-path="url(#clip011)" cx="1556.64" cy="1070" r="10.8" fill="#009af9" fill-rule="evenodd" fill-opacity="1" stroke="#000000" stroke-opacity="1" stroke-width="3.84"/>
<circle clip-path="url(#clip011)" cx="1602.83" cy="1091.87" r="10.8" fill="#009af9" fill-rule="evenodd" fill-opacity="1" stroke="#000000" stroke-opacity="1" stroke-width="3.84"/>
<circle clip-path="url(#clip011)" cx="1649.02" cy="1248.1" r="10.8" fill="#009af9" fill-rule="evenodd" fill-opacity="1" stroke="#000000" stroke-opacity="1" stroke-width="3.84"/>
<circle clip-path="url(#clip011)" cx="1695.21" cy="1244.97" r="10.8" fill="#009af9" fill-rule="evenodd" fill-opacity="1" stroke="#000000" stroke-opacity="1" stroke-width="3.84"/>
<circle clip-path="url(#clip011)" cx="1741.4" cy="1316.83" r="10.8" fill="#009af9" fill-rule="evenodd" fill-opacity="1" stroke="#000000" stroke-opacity="1" stroke-width="3.84"/>
<circle clip-path="url(#clip011)" cx="1787.59" cy="1294.96" r="10.8" fill="#009af9" fill-rule="evenodd" fill-opacity="1" stroke="#000000" stroke-opacity="1" stroke-width="3.84"/>
<circle clip-path="url(#clip011)" cx="1833.79" cy="1351.2" r="10.8" fill="#009af9" fill-rule="evenodd" fill-opacity="1" stroke="#000000" stroke-opacity="1" stroke-width="3.84"/>
<circle clip-path="url(#clip011)" cx="1879.98" cy="1407.45" r="10.8" fill="#009af9" fill-rule="evenodd" fill-opacity="1" stroke="#000000" stroke-opacity="1" stroke-width="3.84"/>
<circle clip-path="url(#clip011)" cx="1926.17" cy="1401.2" r="10.8" fill="#009af9" fill-rule="evenodd" fill-opacity="1" stroke="#000000" stroke-opacity="1" stroke-width="3.84"/>
<circle clip-path="url(#clip011)" cx="1972.36" cy="1441.82" r="10.8" fill="#009af9" fill-rule="evenodd" fill-opacity="1" stroke="#000000" stroke-opacity="1" stroke-width="3.84"/>
<circle clip-path="url(#clip011)" cx="2018.55" cy="1485.56" r="10.8" fill="#009af9" fill-rule="evenodd" fill-opacity="1" stroke="#000000" stroke-opacity="1" stroke-width="3.84"/>
<circle clip-path="url(#clip011)" cx="2064.74" cy="1504.31" r="10.8" fill="#009af9" fill-rule="evenodd" fill-opacity="1" stroke="#000000" stroke-opacity="1" stroke-width="3.84"/>
<circle clip-path="url(#clip011)" cx="2110.94" cy="1535.55" r="10.8" fill="#009af9" fill-rule="evenodd" fill-opacity="1" stroke="#000000" stroke-opacity="1" stroke-width="3.84"/>
<circle clip-path="url(#clip011)" cx="2157.13" cy="1554.3" r="10.8" fill="#009af9" fill-rule="evenodd" fill-opacity="1" stroke="#000000" stroke-opacity="1" stroke-width="3.84"/>
<circle clip-path="url(#clip011)" cx="2203.32" cy="1573.05" r="10.8" fill="#009af9" fill-rule="evenodd" fill-opacity="1" stroke="#000000" stroke-opacity="1" stroke-width="3.84"/>
<circle clip-path="url(#clip011)" cx="2249.51" cy="1607.42" r="10.8" fill="#009af9" fill-rule="evenodd" fill-opacity="1" stroke="#000000" stroke-opacity="1" stroke-width="3.84"/>
<circle clip-path="url(#clip011)" cx="2295.7" cy="1619.92" r="10.8" fill="#009af9" fill-rule="evenodd" fill-opacity="1" stroke="#000000" stroke-opacity="1" stroke-width="3.84"/>
<circle clip-path="url(#clip011)" cx="2341.9" cy="1613.67" r="10.8" fill="#009af9" fill-rule="evenodd" fill-opacity="1" stroke="#000000" stroke-opacity="1" stroke-width="3.84"/>
<circle clip-path="url(#clip011)" cx="2388.09" cy="1626.16" r="10.8" fill="#009af9" fill-rule="evenodd" fill-opacity="1" stroke="#000000" stroke-opacity="1" stroke-width="3.84"/>
<circle clip-path="url(#clip011)" cx="2434.28" cy="1607.42" r="10.8" fill="#009af9" fill-rule="evenodd" fill-opacity="1" stroke="#000000" stroke-opacity="1" stroke-width="3.84"/>
<circle clip-path="url(#clip011)" cx="2480.47" cy="1651.16" r="10.8" fill="#009af9" fill-rule="evenodd" fill-opacity="1" stroke="#000000" stroke-opacity="1" stroke-width="3.84"/>
<circle clip-path="url(#clip011)" cx="2526.66" cy="1623.04" r="10.8" fill="#009af9" fill-rule="evenodd" fill-opacity="1" stroke="#000000" stroke-opacity="1" stroke-width="3.84"/>
<circle clip-path="url(#clip011)" cx="2572.85" cy="1669.91" r="10.8" fill="#009af9" fill-rule="evenodd" fill-opacity="1" stroke="#000000" stroke-opacity="1" stroke-width="3.84"/>
<path clip-path="url(#clip010)" d="M2099.75 285.016 L2560.78 285.016 L2560.78 181.336 L2099.75 181.336  Z" fill="#ffffff" fill-rule="evenodd" fill-opacity="1"/>
<polyline clip-path="url(#clip010)" style="stroke:#000000; stroke-linecap:round; stroke-linejoin:round; stroke-width:4; stroke-opacity:1; fill:none" points="2099.75,285.016 2560.78,285.016 2560.78,181.336 2099.75,181.336 2099.75,285.016 "/>
<circle clip-path="url(#clip010)" cx="2206.38" cy="233.176" r="19.7486" fill="#009af9" fill-rule="evenodd" fill-opacity="1" stroke="#000000" stroke-opacity="1" stroke-width="7.02171"/>
<path clip-path="url(#clip010)" d="M2329.03 219.068 Q2323.94 219.068 2320.93 222.864 Q2317.95 226.66 2317.95 233.211 Q2317.95 239.739 2320.93 243.535 Q2323.94 247.331 2329.03 247.331 Q2334.13 247.331 2337.09 243.535 Q2340.07 239.739 2340.07 233.211 Q2340.07 226.66 2337.09 222.864 Q2334.13 219.068 2329.03 219.068 M2329.03 215.271 Q2336.3 215.271 2340.65 220.156 Q2345.01 225.017 2345.01 233.211 Q2345.01 241.382 2340.65 246.266 Q2336.3 251.128 2329.03 251.128 Q2321.74 251.128 2317.37 246.266 Q2313.01 241.405 2313.01 233.211 Q2313.01 225.017 2317.37 220.156 Q2321.74 215.271 2329.03 215.271 Z" fill="#000000" fill-rule="nonzero" fill-opacity="1" /><path clip-path="url(#clip010)" d="M2370.75 237.517 Q2370.75 232.817 2368.8 230.155 Q2366.88 227.47 2363.5 227.47 Q2360.12 227.47 2358.18 230.155 Q2356.26 232.817 2356.26 237.517 Q2356.26 242.216 2358.18 244.901 Q2360.12 247.563 2363.5 247.563 Q2366.88 247.563 2368.8 244.901 Q2370.75 242.216 2370.75 237.517 M2356.26 228.466 Q2357.6 226.151 2359.64 225.04 Q2361.7 223.906 2364.54 223.906 Q2369.26 223.906 2372.2 227.655 Q2375.17 231.405 2375.17 237.517 Q2375.17 243.628 2372.2 247.378 Q2369.26 251.128 2364.54 251.128 Q2361.7 251.128 2359.64 250.016 Q2357.6 248.882 2356.26 246.567 L2356.26 250.456 L2351.97 250.456 L2351.97 214.438 L2356.26 214.438 L2356.26 228.466 Z" fill="#000000" fill-rule="nonzero" fill-opacity="1" /><path clip-path="url(#clip010)" d="M2398.76 225.294 L2398.76 229.322 Q2396.95 228.396 2395.01 227.933 Q2393.06 227.47 2390.98 227.47 Q2387.81 227.47 2386.21 228.443 Q2384.63 229.415 2384.63 231.359 Q2384.63 232.841 2385.77 233.697 Q2386.9 234.53 2390.33 235.294 L2391.79 235.618 Q2396.32 236.591 2398.22 238.373 Q2400.14 240.132 2400.14 243.304 Q2400.14 246.915 2397.27 249.021 Q2394.43 251.128 2389.43 251.128 Q2387.34 251.128 2385.07 250.711 Q2382.83 250.317 2380.33 249.507 L2380.33 245.109 Q2382.69 246.336 2384.98 246.961 Q2387.27 247.563 2389.52 247.563 Q2392.53 247.563 2394.15 246.544 Q2395.77 245.503 2395.77 243.628 Q2395.77 241.892 2394.59 240.966 Q2393.43 240.04 2389.47 239.183 L2387.99 238.836 Q2384.03 238.003 2382.27 236.29 Q2380.51 234.554 2380.51 231.544 Q2380.51 227.887 2383.11 225.896 Q2385.7 223.906 2390.47 223.906 Q2392.83 223.906 2394.91 224.253 Q2397 224.6 2398.76 225.294 Z" fill="#000000" fill-rule="nonzero" fill-opacity="1" /><path clip-path="url(#clip010)" d="M2429.1 236.429 L2429.1 238.512 L2409.52 238.512 Q2409.8 242.91 2412.16 245.225 Q2414.54 247.516 2418.78 247.516 Q2421.23 247.516 2423.52 246.915 Q2425.84 246.313 2428.11 245.109 L2428.11 249.137 Q2425.82 250.109 2423.41 250.618 Q2421 251.128 2418.52 251.128 Q2412.32 251.128 2408.69 247.516 Q2405.07 243.905 2405.07 237.748 Q2405.07 231.382 2408.5 227.655 Q2411.95 223.906 2417.78 223.906 Q2423.01 223.906 2426.05 227.285 Q2429.1 230.642 2429.1 236.429 M2424.84 235.179 Q2424.8 231.683 2422.88 229.6 Q2420.98 227.517 2417.83 227.517 Q2414.26 227.517 2412.11 229.53 Q2409.98 231.544 2409.66 235.202 L2424.84 235.179 Z" fill="#000000" fill-rule="nonzero" fill-opacity="1" /><path clip-path="url(#clip010)" d="M2451.12 228.512 Q2450.4 228.095 2449.54 227.91 Q2448.71 227.702 2447.69 227.702 Q2444.08 227.702 2442.13 230.063 Q2440.21 232.401 2440.21 236.799 L2440.21 250.456 L2435.93 250.456 L2435.93 224.531 L2440.21 224.531 L2440.21 228.558 Q2441.56 226.197 2443.71 225.063 Q2445.86 223.906 2448.94 223.906 Q2449.38 223.906 2449.91 223.975 Q2450.44 224.021 2451.09 224.137 L2451.12 228.512 Z" fill="#000000" fill-rule="nonzero" fill-opacity="1" /><path clip-path="url(#clip010)" d="M2452.53 224.531 L2457.04 224.531 L2465.14 246.29 L2473.25 224.531 L2477.76 224.531 L2468.04 250.456 L2462.25 250.456 L2452.53 224.531 Z" fill="#000000" fill-rule="nonzero" fill-opacity="1" /><path clip-path="url(#clip010)" d="M2505.81 236.429 L2505.81 238.512 L2486.23 238.512 Q2486.51 242.91 2488.87 245.225 Q2491.25 247.516 2495.49 247.516 Q2497.94 247.516 2500.24 246.915 Q2502.55 246.313 2504.82 245.109 L2504.82 249.137 Q2502.53 250.109 2500.12 250.618 Q2497.71 251.128 2495.24 251.128 Q2489.03 251.128 2485.4 247.516 Q2481.79 243.905 2481.79 237.748 Q2481.79 231.382 2485.21 227.655 Q2488.66 223.906 2494.5 223.906 Q2499.73 223.906 2502.76 227.285 Q2505.81 230.642 2505.81 236.429 M2501.56 235.179 Q2501.51 231.683 2499.59 229.6 Q2497.69 227.517 2494.54 227.517 Q2490.98 227.517 2488.82 229.53 Q2486.69 231.544 2486.37 235.202 L2501.56 235.179 Z" fill="#000000" fill-rule="nonzero" fill-opacity="1" /><path clip-path="url(#clip010)" d="M2529.87 228.466 L2529.87 214.438 L2534.12 214.438 L2534.12 250.456 L2529.87 250.456 L2529.87 246.567 Q2528.52 248.882 2526.46 250.016 Q2524.43 251.128 2521.56 251.128 Q2516.86 251.128 2513.89 247.378 Q2510.95 243.628 2510.95 237.517 Q2510.95 231.405 2513.89 227.655 Q2516.86 223.906 2521.56 223.906 Q2524.43 223.906 2526.46 225.04 Q2528.52 226.151 2529.87 228.466 M2515.35 237.517 Q2515.35 242.216 2517.27 244.901 Q2519.22 247.563 2522.6 247.563 Q2525.98 247.563 2527.92 244.901 Q2529.87 242.216 2529.87 237.517 Q2529.87 232.817 2527.92 230.155 Q2525.98 227.47 2522.6 227.47 Q2519.22 227.47 2517.27 230.155 Q2515.35 232.817 2515.35 237.517 Z" fill="#000000" fill-rule="nonzero" fill-opacity="1" /></svg>
