<?xml version="1.0" encoding="utf-8"?>
<svg xmlns="http://www.w3.org/2000/svg" xmlns:xlink="http://www.w3.org/1999/xlink" width="672" height="480" viewBox="0 0 2688 1920">
<defs>
  <clipPath id="clip650">
    <rect x="0" y="0" width="2688" height="1920"/>
  </clipPath>
</defs>
<path clip-path="url(#clip650)" d="M0 1920 L2688 1920 L2688 -4.26326e-14 L0 -4.26326e-14  Z" fill="#ffffff" fill-rule="evenodd" fill-opacity="1"/>
<defs>
  <clipPath id="clip651">
    <rect x="298" y="127" width="2343" height="1607"/>
  </clipPath>
</defs>
<path clip-path="url(#clip650)" d="M298.987 1734.12 L2640.76 1734.12 L2640.76 127.792 L298.987 127.792  Z" fill="#ffffff" fill-rule="evenodd" fill-opacity="1"/>
<polyline clip-path="url(#clip651)" style="stroke:#000000; stroke-linecap:round; stroke-linejoin:round; stroke-width:2; stroke-opacity:0.1; fill:none" points="365.264,1734.12 365.264,127.792 "/>
<polyline clip-path="url(#clip651)" style="stroke:#000000; stroke-linecap:round; stroke-linejoin:round; stroke-width:2; stroke-opacity:0.1; fill:none" points="970.528,1734.12 970.528,127.792 "/>
<polyline clip-path="url(#clip651)" style="stroke:#000000; stroke-linecap:round; stroke-linejoin:round; stroke-width:2; stroke-opacity:0.1; fill:none" points="1575.79,1734.12 1575.79,127.792 "/>
<polyline clip-path="url(#clip651)" style="stroke:#000000; stroke-linecap:round; stroke-linejoin:round; stroke-width:2; stroke-opacity:0.1; fill:none" points="2181.06,1734.12 2181.06,127.792 "/>
<polyline clip-path="url(#clip651)" style="stroke:#000000; stroke-linecap:round; stroke-linejoin:round; stroke-width:2; stroke-opacity:0.1; fill:none" points="298.987,1688.65 2640.76,1688.65 "/>
<polyline clip-path="url(#clip651)" style="stroke:#000000; stroke-linecap:round; stroke-linejoin:round; stroke-width:2; stroke-opacity:0.1; fill:none" points="298.987,1309.43 2640.76,1309.43 "/>
<polyline clip-path="url(#clip651)" style="stroke:#000000; stroke-linecap:round; stroke-linejoin:round; stroke-width:2; stroke-opacity:0.1; fill:none" points="298.987,930.196 2640.76,930.196 "/>
<polyline clip-path="url(#clip651)" style="stroke:#000000; stroke-linecap:round; stroke-linejoin:round; stroke-width:2; stroke-opacity:0.1; fill:none" points="298.987,550.967 2640.76,550.967 "/>
<polyline clip-path="url(#clip651)" style="stroke:#000000; stroke-linecap:round; stroke-linejoin:round; stroke-width:2; stroke-opacity:0.1; fill:none" points="298.987,171.737 2640.76,171.737 "/>
<polyline clip-path="url(#clip650)" style="stroke:#000000; stroke-linecap:round; stroke-linejoin:round; stroke-width:4; stroke-opacity:1; fill:none" points="298.987,1734.12 2640.76,1734.12 "/>
<polyline clip-path="url(#clip650)" style="stroke:#000000; stroke-linecap:round; stroke-linejoin:round; stroke-width:4; stroke-opacity:1; fill:none" points="365.264,1734.12 365.264,1715.22 "/>
<polyline clip-path="url(#clip650)" style="stroke:#000000; stroke-linecap:round; stroke-linejoin:round; stroke-width:4; stroke-opacity:1; fill:none" points="970.528,1734.12 970.528,1715.22 "/>
<polyline clip-path="url(#clip650)" style="stroke:#000000; stroke-linecap:round; stroke-linejoin:round; stroke-width:4; stroke-opacity:1; fill:none" points="1575.79,1734.12 1575.79,1715.22 "/>
<polyline clip-path="url(#clip650)" style="stroke:#000000; stroke-linecap:round; stroke-linejoin:round; stroke-width:4; stroke-opacity:1; fill:none" points="2181.06,1734.12 2181.06,1715.22 "/>
<path clip-path="url(#clip650)" d="M365.264 1767.34 Q361.653 1767.34 359.824 1770.9 Q358.019 1774.45 358.019 1781.58 Q358.019 1788.68 359.824 1792.25 Q361.653 1795.79 365.264 1795.79 Q368.898 1795.79 370.704 1792.25 Q372.532 1788.68 372.532 1781.58 Q372.532 1774.45 370.704 1770.9 Q368.898 1767.34 365.264 1767.34 M365.264 1763.64 Q371.074 1763.64 374.13 1768.24 Q377.208 1772.83 377.208 1781.58 Q377.208 1790.3 374.13 1794.91 Q371.074 1799.49 365.264 1799.49 Q359.454 1799.49 356.375 1794.91 Q353.319 1790.3 353.319 1781.58 Q353.319 1772.83 356.375 1768.24 Q359.454 1763.64 365.264 1763.64 Z" fill="#000000" fill-rule="nonzero" fill-opacity="1" /><path clip-path="url(#clip650)" d="M930.135 1794.89 L937.774 1794.89 L937.774 1768.52 L929.464 1770.19 L929.464 1765.93 L937.728 1764.26 L942.404 1764.26 L942.404 1794.89 L950.042 1794.89 L950.042 1798.82 L930.135 1798.82 L930.135 1794.89 Z" fill="#000000" fill-rule="nonzero" fill-opacity="1" /><path clip-path="url(#clip650)" d="M969.487 1767.34 Q965.876 1767.34 964.047 1770.9 Q962.241 1774.45 962.241 1781.58 Q962.241 1788.68 964.047 1792.25 Q965.876 1795.79 969.487 1795.79 Q973.121 1795.79 974.927 1792.25 Q976.755 1788.68 976.755 1781.58 Q976.755 1774.45 974.927 1770.9 Q973.121 1767.34 969.487 1767.34 M969.487 1763.64 Q975.297 1763.64 978.352 1768.24 Q981.431 1772.83 981.431 1781.58 Q981.431 1790.3 978.352 1794.91 Q975.297 1799.49 969.487 1799.49 Q963.677 1799.49 960.598 1794.91 Q957.542 1790.3 957.542 1781.58 Q957.542 1772.83 960.598 1768.24 Q963.677 1763.64 969.487 1763.64 Z" fill="#000000" fill-rule="nonzero" fill-opacity="1" /><path clip-path="url(#clip650)" d="M999.649 1767.34 Q996.038 1767.34 994.209 1770.9 Q992.403 1774.45 992.403 1781.58 Q992.403 1788.68 994.209 1792.25 Q996.038 1795.79 999.649 1795.79 Q1003.28 1795.79 1005.09 1792.25 Q1006.92 1788.68 1006.92 1781.58 Q1006.92 1774.45 1005.09 1770.9 Q1003.28 1767.34 999.649 1767.34 M999.649 1763.64 Q1005.46 1763.64 1008.51 1768.24 Q1011.59 1772.83 1011.59 1781.58 Q1011.59 1790.3 1008.51 1794.91 Q1005.46 1799.49 999.649 1799.49 Q993.838 1799.49 990.76 1794.91 Q987.704 1790.3 987.704 1781.58 Q987.704 1772.83 990.76 1768.24 Q993.838 1763.64 999.649 1763.64 Z" fill="#000000" fill-rule="nonzero" fill-opacity="1" /><path clip-path="url(#clip650)" d="M1539.49 1794.89 L1555.8 1794.89 L1555.8 1798.82 L1533.86 1798.82 L1533.86 1794.89 Q1536.52 1792.13 1541.11 1787.5 Q1545.71 1782.85 1546.89 1781.51 Q1549.14 1778.98 1550.02 1777.25 Q1550.92 1775.49 1550.92 1773.8 Q1550.92 1771.04 1548.98 1769.31 Q1547.05 1767.57 1543.95 1767.57 Q1541.75 1767.57 1539.3 1768.34 Q1536.87 1769.1 1534.09 1770.65 L1534.09 1765.93 Q1536.92 1764.79 1539.37 1764.21 Q1541.82 1763.64 1543.86 1763.64 Q1549.23 1763.64 1552.43 1766.32 Q1555.62 1769.01 1555.62 1773.5 Q1555.62 1775.63 1554.81 1777.55 Q1554.02 1779.45 1551.92 1782.04 Q1551.34 1782.71 1548.24 1785.93 Q1545.13 1789.12 1539.49 1794.89 Z" fill="#000000" fill-rule="nonzero" fill-opacity="1" /><path clip-path="url(#clip650)" d="M1575.62 1767.34 Q1572.01 1767.34 1570.18 1770.9 Q1568.37 1774.45 1568.37 1781.58 Q1568.37 1788.68 1570.18 1792.25 Q1572.01 1795.79 1575.62 1795.79 Q1579.25 1795.79 1581.06 1792.25 Q1582.89 1788.68 1582.89 1781.58 Q1582.89 1774.45 1581.06 1770.9 Q1579.25 1767.34 1575.62 1767.34 M1575.62 1763.64 Q1581.43 1763.64 1584.49 1768.24 Q1587.56 1772.83 1587.56 1781.58 Q1587.56 1790.3 1584.49 1794.91 Q1581.43 1799.49 1575.62 1799.49 Q1569.81 1799.49 1566.73 1794.91 Q1563.67 1790.3 1563.67 1781.58 Q1563.67 1772.83 1566.73 1768.24 Q1569.81 1763.64 1575.62 1763.64 Z" fill="#000000" fill-rule="nonzero" fill-opacity="1" /><path clip-path="url(#clip650)" d="M1605.78 1767.34 Q1602.17 1767.34 1600.34 1770.9 Q1598.54 1774.45 1598.54 1781.58 Q1598.54 1788.68 1600.34 1792.25 Q1602.17 1795.79 1605.78 1795.79 Q1609.42 1795.79 1611.22 1792.25 Q1613.05 1788.68 1613.05 1781.58 Q1613.05 1774.45 1611.22 1770.9 Q1609.42 1767.34 1605.78 1767.34 M1605.78 1763.64 Q1611.59 1763.64 1614.65 1768.24 Q1617.73 1772.83 1617.73 1781.58 Q1617.73 1790.3 1614.65 1794.91 Q1611.59 1799.49 1605.78 1799.49 Q1599.97 1799.49 1596.89 1794.91 Q1593.84 1790.3 1593.84 1781.58 Q1593.84 1772.83 1596.89 1768.24 Q1599.97 1763.64 1605.78 1763.64 Z" fill="#000000" fill-rule="nonzero" fill-opacity="1" /><path clip-path="url(#clip650)" d="M2154.82 1780.19 Q2158.18 1780.9 2160.05 1783.17 Q2161.95 1785.44 2161.95 1788.77 Q2161.95 1793.89 2158.43 1796.69 Q2154.91 1799.49 2148.43 1799.49 Q2146.25 1799.49 2143.94 1799.05 Q2141.65 1798.64 2139.19 1797.78 L2139.19 1793.27 Q2141.14 1794.4 2143.45 1794.98 Q2145.77 1795.56 2148.29 1795.56 Q2152.69 1795.56 2154.98 1793.82 Q2157.3 1792.08 2157.3 1788.77 Q2157.3 1785.72 2155.14 1784.01 Q2153.01 1782.27 2149.19 1782.27 L2145.17 1782.27 L2145.17 1778.43 L2149.38 1778.43 Q2152.83 1778.43 2154.66 1777.06 Q2156.49 1775.67 2156.49 1773.08 Q2156.49 1770.42 2154.59 1769.01 Q2152.71 1767.57 2149.19 1767.57 Q2147.27 1767.57 2145.07 1767.99 Q2142.87 1768.4 2140.24 1769.28 L2140.24 1765.12 Q2142.9 1764.38 2145.21 1764.01 Q2147.55 1763.64 2149.61 1763.64 Q2154.93 1763.64 2158.04 1766.07 Q2161.14 1768.47 2161.14 1772.59 Q2161.14 1775.46 2159.5 1777.46 Q2157.85 1779.42 2154.82 1780.19 Z" fill="#000000" fill-rule="nonzero" fill-opacity="1" /><path clip-path="url(#clip650)" d="M2180.81 1767.34 Q2177.2 1767.34 2175.37 1770.9 Q2173.57 1774.45 2173.57 1781.58 Q2173.57 1788.68 2175.37 1792.25 Q2177.2 1795.79 2180.81 1795.79 Q2184.45 1795.79 2186.25 1792.25 Q2188.08 1788.68 2188.08 1781.58 Q2188.08 1774.45 2186.25 1770.9 Q2184.45 1767.34 2180.81 1767.34 M2180.81 1763.64 Q2186.62 1763.64 2189.68 1768.24 Q2192.76 1772.83 2192.76 1781.58 Q2192.76 1790.3 2189.68 1794.91 Q2186.62 1799.49 2180.81 1799.49 Q2175 1799.49 2171.93 1794.91 Q2168.87 1790.3 2168.87 1781.58 Q2168.87 1772.83 2171.93 1768.24 Q2175 1763.64 2180.81 1763.64 Z" fill="#000000" fill-rule="nonzero" fill-opacity="1" /><path clip-path="url(#clip650)" d="M2210.98 1767.34 Q2207.37 1767.34 2205.54 1770.9 Q2203.73 1774.45 2203.73 1781.58 Q2203.73 1788.68 2205.54 1792.25 Q2207.37 1795.79 2210.98 1795.79 Q2214.61 1795.79 2216.42 1792.25 Q2218.24 1788.68 2218.24 1781.58 Q2218.24 1774.45 2216.42 1770.9 Q2214.61 1767.34 2210.98 1767.34 M2210.98 1763.64 Q2216.79 1763.64 2219.84 1768.24 Q2222.92 1772.83 2222.92 1781.58 Q2222.92 1790.3 2219.84 1794.91 Q2216.79 1799.49 2210.98 1799.49 Q2205.17 1799.49 2202.09 1794.91 Q2199.03 1790.3 2199.03 1781.58 Q2199.03 1772.83 2202.09 1768.24 Q2205.17 1763.64 2210.98 1763.64 Z" fill="#000000" fill-rule="nonzero" fill-opacity="1" /><path clip-path="url(#clip650)" d="M1416.11 1841.06 L1416.11 1878.02 L1423.88 1878.02 Q1433.71 1878.02 1438.27 1873.56 Q1442.85 1869.11 1442.85 1859.49 Q1442.85 1849.94 1438.27 1845.52 Q1433.71 1841.06 1423.88 1841.06 L1416.11 1841.06 M1409.68 1835.78 L1422.89 1835.78 Q1436.71 1835.78 1443.17 1841.54 Q1449.63 1847.27 1449.63 1859.49 Q1449.63 1871.78 1443.14 1877.54 Q1436.64 1883.3 1422.89 1883.3 L1409.68 1883.3 L1409.68 1835.78 Z" fill="#000000" fill-rule="nonzero" fill-opacity="1" /><path clip-path="url(#clip650)" d="M1475.82 1865.38 Q1468.73 1865.38 1465.99 1867 Q1463.25 1868.63 1463.25 1872.54 Q1463.25 1875.66 1465.29 1877.51 Q1467.36 1879.32 1470.89 1879.32 Q1475.76 1879.32 1478.69 1875.88 Q1481.65 1872.42 1481.65 1866.69 L1481.65 1865.38 L1475.82 1865.38 M1487.5 1862.96 L1487.5 1883.3 L1481.65 1883.3 L1481.65 1877.89 Q1479.64 1881.14 1476.65 1882.7 Q1473.66 1884.22 1469.33 1884.22 Q1463.86 1884.22 1460.61 1881.17 Q1457.39 1878.08 1457.39 1872.92 Q1457.39 1866.91 1461.41 1863.85 Q1465.45 1860.8 1473.44 1860.8 L1481.65 1860.8 L1481.65 1860.23 Q1481.65 1856.18 1478.97 1853.99 Q1476.33 1851.76 1471.53 1851.76 Q1468.47 1851.76 1465.57 1852.49 Q1462.68 1853.22 1460 1854.69 L1460 1849.28 Q1463.22 1848.03 1466.24 1847.43 Q1469.27 1846.79 1472.13 1846.79 Q1479.87 1846.79 1483.69 1850.8 Q1487.5 1854.81 1487.5 1862.96 Z" fill="#000000" fill-rule="nonzero" fill-opacity="1" /><path clip-path="url(#clip650)" d="M1514.4 1886.61 Q1511.92 1892.98 1509.56 1894.92 Q1507.21 1896.86 1503.26 1896.86 L1498.58 1896.86 L1498.58 1891.96 L1502.02 1891.96 Q1504.44 1891.96 1505.77 1890.81 Q1507.11 1889.67 1508.73 1885.4 L1509.78 1882.73 L1495.37 1847.65 L1501.57 1847.65 L1512.71 1875.53 L1523.85 1847.65 L1530.06 1847.65 L1514.4 1886.61 Z" fill="#000000" fill-rule="nonzero" fill-opacity="1" /><polyline clip-path="url(#clip650)" style="stroke:#000000; stroke-linecap:round; stroke-linejoin:round; stroke-width:4; stroke-opacity:1; fill:none" points="298.987,1734.12 298.987,127.792 "/>
<polyline clip-path="url(#clip650)" style="stroke:#000000; stroke-linecap:round; stroke-linejoin:round; stroke-width:4; stroke-opacity:1; fill:none" points="298.987,1688.65 317.885,1688.65 "/>
<polyline clip-path="url(#clip650)" style="stroke:#000000; stroke-linecap:round; stroke-linejoin:round; stroke-width:4; stroke-opacity:1; fill:none" points="298.987,1309.43 317.885,1309.43 "/>
<polyline clip-path="url(#clip650)" style="stroke:#000000; stroke-linecap:round; stroke-linejoin:round; stroke-width:4; stroke-opacity:1; fill:none" points="298.987,930.196 317.885,930.196 "/>
<polyline clip-path="url(#clip650)" style="stroke:#000000; stroke-linecap:round; stroke-linejoin:round; stroke-width:4; stroke-opacity:1; fill:none" points="298.987,550.967 317.885,550.967 "/>
<polyline clip-path="url(#clip650)" style="stroke:#000000; stroke-linecap:round; stroke-linejoin:round; stroke-width:4; stroke-opacity:1; fill:none" points="298.987,171.737 317.885,171.737 "/>
<path clip-path="url(#clip650)" d="M246.723 1674.45 Q243.112 1674.45 241.283 1678.02 Q239.478 1681.56 239.478 1688.69 Q239.478 1695.8 241.283 1699.36 Q243.112 1702.9 246.723 1702.9 Q250.357 1702.9 252.163 1699.36 Q253.991 1695.8 253.991 1688.69 Q253.991 1681.56 252.163 1678.02 Q250.357 1674.45 246.723 1674.45 M246.723 1670.75 Q252.533 1670.75 255.589 1675.36 Q258.667 1679.94 258.667 1688.69 Q258.667 1697.42 255.589 1702.02 Q252.533 1706.61 246.723 1706.61 Q240.913 1706.61 237.834 1702.02 Q234.779 1697.42 234.779 1688.69 Q234.779 1679.94 237.834 1675.36 Q240.913 1670.75 246.723 1670.75 Z" fill="#000000" fill-rule="nonzero" fill-opacity="1" /><path clip-path="url(#clip650)" d="M150.265 1322.77 L166.585 1322.77 L166.585 1326.71 L144.64 1326.71 L144.64 1322.77 Q147.302 1320.02 151.886 1315.39 Q156.492 1310.73 157.673 1309.39 Q159.918 1306.87 160.798 1305.13 Q161.7 1303.37 161.7 1301.68 Q161.7 1298.93 159.756 1297.19 Q157.835 1295.46 154.733 1295.46 Q152.534 1295.46 150.08 1296.22 Q147.649 1296.98 144.872 1298.53 L144.872 1293.81 Q147.696 1292.68 150.149 1292.1 Q152.603 1291.52 154.64 1291.52 Q160.011 1291.52 163.205 1294.21 Q166.399 1296.89 166.399 1301.38 Q166.399 1303.51 165.589 1305.43 Q164.802 1307.33 162.696 1309.92 Q162.117 1310.59 159.015 1313.81 Q155.913 1317.01 150.265 1322.77 Z" fill="#000000" fill-rule="nonzero" fill-opacity="1" /><path clip-path="url(#clip650)" d="M176.446 1292.15 L194.802 1292.15 L194.802 1296.08 L180.728 1296.08 L180.728 1304.55 Q181.746 1304.21 182.765 1304.04 Q183.784 1303.86 184.802 1303.86 Q190.589 1303.86 193.969 1307.03 Q197.348 1310.2 197.348 1315.62 Q197.348 1321.2 193.876 1324.3 Q190.404 1327.38 184.084 1327.38 Q181.909 1327.38 179.64 1327.01 Q177.395 1326.64 174.987 1325.9 L174.987 1321.2 Q177.071 1322.33 179.293 1322.89 Q181.515 1323.44 183.992 1323.44 Q187.996 1323.44 190.334 1321.34 Q192.672 1319.23 192.672 1315.62 Q192.672 1312.01 190.334 1309.9 Q187.996 1307.79 183.992 1307.79 Q182.117 1307.79 180.242 1308.21 Q178.39 1308.63 176.446 1309.51 L176.446 1292.15 Z" fill="#000000" fill-rule="nonzero" fill-opacity="1" /><path clip-path="url(#clip650)" d="M216.561 1295.22 Q212.95 1295.22 211.121 1298.79 Q209.316 1302.33 209.316 1309.46 Q209.316 1316.57 211.121 1320.13 Q212.95 1323.67 216.561 1323.67 Q220.195 1323.67 222.001 1320.13 Q223.83 1316.57 223.83 1309.46 Q223.83 1302.33 222.001 1298.79 Q220.195 1295.22 216.561 1295.22 M216.561 1291.52 Q222.371 1291.52 225.427 1296.13 Q228.506 1300.71 228.506 1309.46 Q228.506 1318.19 225.427 1322.79 Q222.371 1327.38 216.561 1327.38 Q210.751 1327.38 207.672 1322.79 Q204.617 1318.19 204.617 1309.46 Q204.617 1300.71 207.672 1296.13 Q210.751 1291.52 216.561 1291.52 Z" fill="#000000" fill-rule="nonzero" fill-opacity="1" /><path clip-path="url(#clip650)" d="M246.723 1295.22 Q243.112 1295.22 241.283 1298.79 Q239.478 1302.33 239.478 1309.46 Q239.478 1316.57 241.283 1320.13 Q243.112 1323.67 246.723 1323.67 Q250.357 1323.67 252.163 1320.13 Q253.991 1316.57 253.991 1309.46 Q253.991 1302.33 252.163 1298.79 Q250.357 1295.22 246.723 1295.22 M246.723 1291.52 Q252.533 1291.52 255.589 1296.13 Q258.667 1300.71 258.667 1309.46 Q258.667 1318.19 255.589 1322.79 Q252.533 1327.38 246.723 1327.38 Q240.913 1327.38 237.834 1322.79 Q234.779 1318.19 234.779 1309.46 Q234.779 1300.71 237.834 1296.13 Q240.913 1291.52 246.723 1291.52 Z" fill="#000000" fill-rule="nonzero" fill-opacity="1" /><path clip-path="url(#clip650)" d="M146.284 912.916 L164.64 912.916 L164.64 916.851 L150.566 916.851 L150.566 925.323 Q151.585 924.976 152.603 924.814 Q153.622 924.629 154.64 924.629 Q160.427 924.629 163.807 927.8 Q167.186 930.972 167.186 936.388 Q167.186 941.967 163.714 945.069 Q160.242 948.147 153.923 948.147 Q151.747 948.147 149.478 947.777 Q147.233 947.407 144.825 946.666 L144.825 941.967 Q146.909 943.101 149.131 943.657 Q151.353 944.212 153.83 944.212 Q157.835 944.212 160.173 942.106 Q162.51 939.999 162.51 936.388 Q162.51 932.777 160.173 930.671 Q157.835 928.564 153.83 928.564 Q151.955 928.564 150.08 928.981 Q148.228 929.397 146.284 930.277 L146.284 912.916 Z" fill="#000000" fill-rule="nonzero" fill-opacity="1" /><path clip-path="url(#clip650)" d="M186.399 915.995 Q182.788 915.995 180.959 919.56 Q179.154 923.101 179.154 930.231 Q179.154 937.337 180.959 940.902 Q182.788 944.444 186.399 944.444 Q190.033 944.444 191.839 940.902 Q193.668 937.337 193.668 930.231 Q193.668 923.101 191.839 919.56 Q190.033 915.995 186.399 915.995 M186.399 912.291 Q192.209 912.291 195.265 916.898 Q198.344 921.481 198.344 930.231 Q198.344 938.958 195.265 943.564 Q192.209 948.147 186.399 948.147 Q180.589 948.147 177.51 943.564 Q174.455 938.958 174.455 930.231 Q174.455 921.481 177.51 916.898 Q180.589 912.291 186.399 912.291 Z" fill="#000000" fill-rule="nonzero" fill-opacity="1" /><path clip-path="url(#clip650)" d="M216.561 915.995 Q212.95 915.995 211.121 919.56 Q209.316 923.101 209.316 930.231 Q209.316 937.337 211.121 940.902 Q212.95 944.444 216.561 944.444 Q220.195 944.444 222.001 940.902 Q223.83 937.337 223.83 930.231 Q223.83 923.101 222.001 919.56 Q220.195 915.995 216.561 915.995 M216.561 912.291 Q222.371 912.291 225.427 916.898 Q228.506 921.481 228.506 930.231 Q228.506 938.958 225.427 943.564 Q222.371 948.147 216.561 948.147 Q210.751 948.147 207.672 943.564 Q204.617 938.958 204.617 930.231 Q204.617 921.481 207.672 916.898 Q210.751 912.291 216.561 912.291 Z" fill="#000000" fill-rule="nonzero" fill-opacity="1" /><path clip-path="url(#clip650)" d="M246.723 915.995 Q243.112 915.995 241.283 919.56 Q239.478 923.101 239.478 930.231 Q239.478 937.337 241.283 940.902 Q243.112 944.444 246.723 944.444 Q250.357 944.444 252.163 940.902 Q253.991 937.337 253.991 930.231 Q253.991 923.101 252.163 919.56 Q250.357 915.995 246.723 915.995 M246.723 912.291 Q252.533 912.291 255.589 916.898 Q258.667 921.481 258.667 930.231 Q258.667 938.958 255.589 943.564 Q252.533 948.147 246.723 948.147 Q240.913 948.147 237.834 943.564 Q234.779 938.958 234.779 930.231 Q234.779 921.481 237.834 916.898 Q240.913 912.291 246.723 912.291 Z" fill="#000000" fill-rule="nonzero" fill-opacity="1" /><path clip-path="url(#clip650)" d="M145.057 533.687 L167.279 533.687 L167.279 535.677 L154.733 568.247 L149.849 568.247 L161.654 537.622 L145.057 537.622 L145.057 533.687 Z" fill="#000000" fill-rule="nonzero" fill-opacity="1" /><path clip-path="url(#clip650)" d="M176.446 533.687 L194.802 533.687 L194.802 537.622 L180.728 537.622 L180.728 546.094 Q181.746 545.747 182.765 545.585 Q183.784 545.4 184.802 545.4 Q190.589 545.4 193.969 548.571 Q197.348 551.742 197.348 557.159 Q197.348 562.737 193.876 565.839 Q190.404 568.918 184.084 568.918 Q181.909 568.918 179.64 568.548 Q177.395 568.177 174.987 567.436 L174.987 562.737 Q177.071 563.872 179.293 564.427 Q181.515 564.983 183.992 564.983 Q187.996 564.983 190.334 562.876 Q192.672 560.77 192.672 557.159 Q192.672 553.548 190.334 551.441 Q187.996 549.335 183.992 549.335 Q182.117 549.335 180.242 549.751 Q178.39 550.168 176.446 551.048 L176.446 533.687 Z" fill="#000000" fill-rule="nonzero" fill-opacity="1" /><path clip-path="url(#clip650)" d="M216.561 536.765 Q212.95 536.765 211.121 540.33 Q209.316 543.872 209.316 551.001 Q209.316 558.108 211.121 561.673 Q212.95 565.214 216.561 565.214 Q220.195 565.214 222.001 561.673 Q223.83 558.108 223.83 551.001 Q223.83 543.872 222.001 540.33 Q220.195 536.765 216.561 536.765 M216.561 533.062 Q222.371 533.062 225.427 537.668 Q228.506 542.251 228.506 551.001 Q228.506 559.728 225.427 564.335 Q222.371 568.918 216.561 568.918 Q210.751 568.918 207.672 564.335 Q204.617 559.728 204.617 551.001 Q204.617 542.251 207.672 537.668 Q210.751 533.062 216.561 533.062 Z" fill="#000000" fill-rule="nonzero" fill-opacity="1" /><path clip-path="url(#clip650)" d="M246.723 536.765 Q243.112 536.765 241.283 540.33 Q239.478 543.872 239.478 551.001 Q239.478 558.108 241.283 561.673 Q243.112 565.214 246.723 565.214 Q250.357 565.214 252.163 561.673 Q253.991 558.108 253.991 551.001 Q253.991 543.872 252.163 540.33 Q250.357 536.765 246.723 536.765 M246.723 533.062 Q252.533 533.062 255.589 537.668 Q258.667 542.251 258.667 551.001 Q258.667 559.728 255.589 564.335 Q252.533 568.918 246.723 568.918 Q240.913 568.918 237.834 564.335 Q234.779 559.728 234.779 551.001 Q234.779 542.251 237.834 537.668 Q240.913 533.062 246.723 533.062 Z" fill="#000000" fill-rule="nonzero" fill-opacity="1" /><path clip-path="url(#clip650)" d="M116.886 185.082 L124.525 185.082 L124.525 158.716 L116.214 160.383 L116.214 156.124 L124.478 154.457 L129.154 154.457 L129.154 185.082 L136.793 185.082 L136.793 189.017 L116.886 189.017 L116.886 185.082 Z" fill="#000000" fill-rule="nonzero" fill-opacity="1" /><path clip-path="url(#clip650)" d="M156.237 157.536 Q152.626 157.536 150.798 161.101 Q148.992 164.642 148.992 171.772 Q148.992 178.878 150.798 182.443 Q152.626 185.985 156.237 185.985 Q159.872 185.985 161.677 182.443 Q163.506 178.878 163.506 171.772 Q163.506 164.642 161.677 161.101 Q159.872 157.536 156.237 157.536 M156.237 153.832 Q162.048 153.832 165.103 158.439 Q168.182 163.022 168.182 171.772 Q168.182 180.499 165.103 185.105 Q162.048 189.689 156.237 189.689 Q150.427 189.689 147.349 185.105 Q144.293 180.499 144.293 171.772 Q144.293 163.022 147.349 158.439 Q150.427 153.832 156.237 153.832 Z" fill="#000000" fill-rule="nonzero" fill-opacity="1" /><path clip-path="url(#clip650)" d="M186.399 157.536 Q182.788 157.536 180.959 161.101 Q179.154 164.642 179.154 171.772 Q179.154 178.878 180.959 182.443 Q182.788 185.985 186.399 185.985 Q190.033 185.985 191.839 182.443 Q193.668 178.878 193.668 171.772 Q193.668 164.642 191.839 161.101 Q190.033 157.536 186.399 157.536 M186.399 153.832 Q192.209 153.832 195.265 158.439 Q198.344 163.022 198.344 171.772 Q198.344 180.499 195.265 185.105 Q192.209 189.689 186.399 189.689 Q180.589 189.689 177.51 185.105 Q174.455 180.499 174.455 171.772 Q174.455 163.022 177.51 158.439 Q180.589 153.832 186.399 153.832 Z" fill="#000000" fill-rule="nonzero" fill-opacity="1" /><path clip-path="url(#clip650)" d="M216.561 157.536 Q212.95 157.536 211.121 161.101 Q209.316 164.642 209.316 171.772 Q209.316 178.878 211.121 182.443 Q212.95 185.985 216.561 185.985 Q220.195 185.985 222.001 182.443 Q223.83 178.878 223.83 171.772 Q223.83 164.642 222.001 161.101 Q220.195 157.536 216.561 157.536 M216.561 153.832 Q222.371 153.832 225.427 158.439 Q228.506 163.022 228.506 171.772 Q228.506 180.499 225.427 185.105 Q222.371 189.689 216.561 189.689 Q210.751 189.689 207.672 185.105 Q204.617 180.499 204.617 171.772 Q204.617 163.022 207.672 158.439 Q210.751 153.832 216.561 153.832 Z" fill="#000000" fill-rule="nonzero" fill-opacity="1" /><path clip-path="url(#clip650)" d="M246.723 157.536 Q243.112 157.536 241.283 161.101 Q239.478 164.642 239.478 171.772 Q239.478 178.878 241.283 182.443 Q243.112 185.985 246.723 185.985 Q250.357 185.985 252.163 182.443 Q253.991 178.878 253.991 171.772 Q253.991 164.642 252.163 161.101 Q250.357 157.536 246.723 157.536 M246.723 153.832 Q252.533 153.832 255.589 158.439 Q258.667 163.022 258.667 171.772 Q258.667 180.499 255.589 185.105 Q252.533 189.689 246.723 189.689 Q240.913 189.689 237.834 185.105 Q234.779 180.499 234.779 171.772 Q234.779 163.022 237.834 158.439 Q240.913 153.832 246.723 153.832 Z" fill="#000000" fill-rule="nonzero" fill-opacity="1" /><path clip-path="url(#clip650)" d="M19.402 1089.79 L37.2578 1089.79 L37.2578 1081.71 Q37.2578 1077.22 34.9343 1074.77 Q32.6108 1072.32 28.314 1072.32 Q24.0489 1072.32 21.7255 1074.77 Q19.402 1077.22 19.402 1081.71 L19.402 1089.79 M14.1184 1096.22 L14.1184 1081.71 Q14.1184 1073.72 17.7469 1069.65 Q21.3435 1065.54 28.314 1065.54 Q35.3481 1065.54 38.9447 1069.65 Q42.5413 1073.72 42.5413 1081.71 L42.5413 1089.79 L61.6384 1089.79 L61.6384 1096.22 L14.1184 1096.22 Z" fill="#000000" fill-rule="nonzero" fill-opacity="1" /><path clip-path="url(#clip650)" d="M30.0964 1045.68 Q30.0964 1050.39 33.7885 1053.13 Q37.4488 1055.87 43.8463 1055.87 Q50.2438 1055.87 53.9359 1053.16 Q57.5962 1050.42 57.5962 1045.68 Q57.5962 1041 53.9041 1038.26 Q50.212 1035.53 43.8463 1035.53 Q37.5124 1035.53 33.8203 1038.26 Q30.0964 1041 30.0964 1045.68 M25.1311 1045.68 Q25.1311 1038.04 30.0964 1033.68 Q35.0616 1029.32 43.8463 1029.32 Q52.5991 1029.32 57.5962 1033.68 Q62.5615 1038.04 62.5615 1045.68 Q62.5615 1053.35 57.5962 1057.71 Q52.5991 1062.04 43.8463 1062.04 Q35.0616 1062.04 30.0964 1057.71 Q25.1311 1053.35 25.1311 1045.68 Z" fill="#000000" fill-rule="nonzero" fill-opacity="1" /><path clip-path="url(#clip650)" d="M56.2912 1013.95 L75.1974 1013.95 L75.1974 1019.84 L25.9905 1019.84 L25.9905 1013.95 L31.4013 1013.95 Q28.2185 1012.1 26.6907 1009.3 Q25.1311 1006.47 25.1311 1002.55 Q25.1311 996.06 30.2873 992.018 Q35.4436 987.944 43.8463 987.944 Q52.249 987.944 57.4052 992.018 Q62.5615 996.06 62.5615 1002.55 Q62.5615 1006.47 61.0337 1009.3 Q59.4741 1012.1 56.2912 1013.95 M43.8463 994.023 Q37.3851 994.023 33.7248 996.696 Q30.0327 999.338 30.0327 1003.99 Q30.0327 1008.63 33.7248 1011.31 Q37.3851 1013.95 43.8463 1013.95 Q50.3075 1013.95 53.9996 1011.31 Q57.6599 1008.63 57.6599 1003.99 Q57.6599 999.338 53.9996 996.696 Q50.3075 994.023 43.8463 994.023 Z" fill="#000000" fill-rule="nonzero" fill-opacity="1" /><path clip-path="url(#clip650)" d="M47.5702 978.841 L25.9905 978.841 L25.9905 972.984 L47.3474 972.984 Q52.4082 972.984 54.9545 971.011 Q57.4689 969.037 57.4689 965.091 Q57.4689 960.348 54.4452 957.611 Q51.4215 954.842 46.2016 954.842 L25.9905 954.842 L25.9905 948.985 L61.6384 948.985 L61.6384 954.842 L56.1639 954.842 Q59.4104 956.974 61.0019 959.807 Q62.5615 962.608 62.5615 966.332 Q62.5615 972.475 58.742 975.658 Q54.9226 978.841 47.5702 978.841 M25.1311 964.104 L25.1311 964.104 Z" fill="#000000" fill-rule="nonzero" fill-opacity="1" /><path clip-path="url(#clip650)" d="M12.1132 936.922 L12.1132 931.066 L61.6384 931.066 L61.6384 936.922 L12.1132 936.922 Z" fill="#000000" fill-rule="nonzero" fill-opacity="1" /><path clip-path="url(#clip650)" d="M43.719 902.611 Q43.719 909.709 45.3422 912.446 Q46.9655 915.184 50.8804 915.184 Q53.9996 915.184 55.8457 913.146 Q57.6599 911.078 57.6599 907.545 Q57.6599 902.675 54.2224 899.747 Q50.7531 896.787 45.0239 896.787 L43.719 896.787 L43.719 902.611 M41.3 890.93 L61.6384 890.93 L61.6384 896.787 L56.2276 896.787 Q59.4741 898.792 61.0337 901.784 Q62.5615 904.776 62.5615 909.104 Q62.5615 914.579 59.5059 917.825 Q56.4186 921.04 51.2623 921.04 Q45.2467 921.04 42.1912 917.03 Q39.1357 912.987 39.1357 904.998 L39.1357 896.787 L38.5628 896.787 Q34.5205 896.787 32.3244 899.46 Q30.0964 902.102 30.0964 906.908 Q30.0964 909.964 30.8284 912.86 Q31.5605 915.756 33.0246 918.43 L27.6137 918.43 Q26.3724 915.215 25.7677 912.192 Q25.1311 909.168 25.1311 906.303 Q25.1311 898.569 29.1415 894.75 Q33.1519 890.93 41.3 890.93 Z" fill="#000000" fill-rule="nonzero" fill-opacity="1" /><path clip-path="url(#clip650)" d="M15.869 873.074 L25.9905 873.074 L25.9905 861.011 L30.542 861.011 L30.542 873.074 L49.8937 873.074 Q54.2542 873.074 55.4955 871.897 Q56.7368 870.687 56.7368 867.027 L56.7368 861.011 L61.6384 861.011 L61.6384 867.027 Q61.6384 873.806 59.124 876.385 Q56.5777 878.963 49.8937 878.963 L30.542 878.963 L30.542 883.259 L25.9905 883.259 L25.9905 878.963 L15.869 878.963 L15.869 873.074 Z" fill="#000000" fill-rule="nonzero" fill-opacity="1" /><path clip-path="url(#clip650)" d="M25.9905 853.309 L25.9905 847.452 L61.6384 847.452 L61.6384 853.309 L25.9905 853.309 M12.1132 853.309 L12.1132 847.452 L19.5293 847.452 L19.5293 853.309 L12.1132 853.309 Z" fill="#000000" fill-rule="nonzero" fill-opacity="1" /><path clip-path="url(#clip650)" d="M30.0964 821.385 Q30.0964 826.095 33.7885 828.833 Q37.4488 831.57 43.8463 831.57 Q50.2438 831.57 53.9359 828.865 Q57.5962 826.127 57.5962 821.385 Q57.5962 816.706 53.9041 813.969 Q50.212 811.232 43.8463 811.232 Q37.5124 811.232 33.8203 813.969 Q30.0964 816.706 30.0964 821.385 M25.1311 821.385 Q25.1311 813.746 30.0964 809.385 Q35.0616 805.025 43.8463 805.025 Q52.5991 805.025 57.5962 809.385 Q62.5615 813.746 62.5615 821.385 Q62.5615 829.056 57.5962 833.416 Q52.5991 837.745 43.8463 837.745 Q35.0616 837.745 30.0964 833.416 Q25.1311 829.056 25.1311 821.385 Z" fill="#000000" fill-rule="nonzero" fill-opacity="1" /><path clip-path="url(#clip650)" d="M40.1224 765.685 L61.6384 765.685 L61.6384 771.541 L40.3133 771.541 Q35.2526 771.541 32.7381 773.515 Q30.2237 775.488 30.2237 779.435 Q30.2237 784.177 33.2474 786.915 Q36.2711 789.652 41.491 789.652 L61.6384 789.652 L61.6384 795.54 L25.9905 795.54 L25.9905 789.652 L31.5287 789.652 Q28.314 787.551 26.7225 784.718 Q25.1311 781.854 25.1311 778.13 Q25.1311 771.987 28.9505 768.836 Q32.7381 765.685 40.1224 765.685 Z" fill="#000000" fill-rule="nonzero" fill-opacity="1" /><path clip-path="url(#clip650)" d="M780.266 14.0809 L780.266 22.0612 Q775.607 19.8332 771.476 18.7395 Q767.344 17.6457 763.495 17.6457 Q756.811 17.6457 753.165 20.2383 Q749.56 22.8309 749.56 27.611 Q749.56 31.6214 751.95 33.6873 Q754.381 35.7128 761.105 36.9686 L766.047 37.9813 Q775.202 39.7232 779.537 44.1387 Q783.912 48.5136 783.912 55.8863 Q783.912 64.6767 777.997 69.2137 Q772.124 73.7508 760.741 73.7508 Q756.447 73.7508 751.586 72.7785 Q746.765 71.8063 741.58 69.9024 L741.58 61.4765 Q746.562 64.2716 751.343 65.6895 Q756.123 67.1073 760.741 67.1073 Q767.749 67.1073 771.557 64.3527 Q775.364 61.598 775.364 56.4939 Q775.364 52.0379 772.61 49.5264 Q769.896 47.0148 763.657 45.759 L758.675 44.7868 Q749.52 42.9639 745.428 39.075 Q741.337 35.1862 741.337 28.2591 Q741.337 20.2383 746.968 15.6203 Q752.639 11.0023 762.564 11.0023 Q766.817 11.0023 771.232 11.7719 Q775.648 12.5416 780.266 14.0809 Z" fill="#000000" fill-rule="nonzero" fill-opacity="1" /><path clip-path="url(#clip650)" d="M796.672 12.096 L834.913 12.096 L834.913 18.9825 L804.855 18.9825 L804.855 36.8875 L833.657 36.8875 L833.657 43.7741 L804.855 43.7741 L804.855 65.6895 L835.642 65.6895 L835.642 72.576 L796.672 72.576 L796.672 12.096 Z" fill="#000000" fill-rule="nonzero" fill-opacity="1" /><path clip-path="url(#clip650)" d="M849.091 12.096 L857.274 12.096 L857.274 72.576 L849.091 72.576 L849.091 12.096 Z" fill="#000000" fill-rule="nonzero" fill-opacity="1" /><path clip-path="url(#clip650)" d="M902.239 44.2197 Q904.872 45.1109 907.343 48.0275 Q909.854 50.9442 912.366 56.0483 L920.67 72.576 L911.88 72.576 L904.143 57.061 Q901.145 50.9847 898.309 48.9997 Q895.514 47.0148 890.653 47.0148 L881.741 47.0148 L881.741 72.576 L873.558 72.576 L873.558 12.096 L892.03 12.096 Q902.401 12.096 907.505 16.4305 Q912.609 20.7649 912.609 29.5149 Q912.609 35.2267 909.935 38.994 Q907.302 42.7613 902.239 44.2197 M881.741 18.8205 L881.741 40.2903 L892.03 40.2903 Q897.945 40.2903 900.942 37.5762 Q903.981 34.8216 903.981 29.5149 Q903.981 24.2082 900.942 21.5346 Q897.945 18.8205 892.03 18.8205 L881.741 18.8205 Z" fill="#000000" fill-rule="nonzero" fill-opacity="1" /><path clip-path="url(#clip650)" d="M923.749 46.5287 L945.583 46.5287 L945.583 53.1722 L923.749 53.1722 L923.749 46.5287 Z" fill="#000000" fill-rule="nonzero" fill-opacity="1" /><path clip-path="url(#clip650)" d="M968.511 72.576 L945.421 12.096 L953.969 12.096 L973.13 63.0159 L992.331 12.096 L1000.84 12.096 L977.788 72.576 L968.511 72.576 Z" fill="#000000" fill-rule="nonzero" fill-opacity="1" /><path clip-path="url(#clip650)" d="M1036.04 12.096 L1074.28 12.096 L1074.28 18.9825 L1044.22 18.9825 L1044.22 36.8875 L1073.02 36.8875 L1073.02 43.7741 L1044.22 43.7741 L1044.22 65.6895 L1075.01 65.6895 L1075.01 72.576 L1036.04 72.576 L1036.04 12.096 Z" fill="#000000" fill-rule="nonzero" fill-opacity="1" /><path clip-path="url(#clip650)" d="M1095.35 65.7705 L1095.35 89.8329 L1087.85 89.8329 L1087.85 27.2059 L1095.35 27.2059 L1095.35 34.0924 Q1097.69 30.0415 1101.26 28.0971 Q1104.86 26.1121 1109.85 26.1121 Q1118.11 26.1121 1123.26 32.6746 Q1128.44 39.2371 1128.44 49.9314 Q1128.44 60.6258 1123.26 67.1883 Q1118.11 73.7508 1109.85 73.7508 Q1104.86 73.7508 1101.26 71.8063 Q1097.69 69.8214 1095.35 65.7705 M1120.7 49.9314 Q1120.7 41.7081 1117.3 37.0496 Q1113.94 32.3505 1108.02 32.3505 Q1102.11 32.3505 1098.71 37.0496 Q1095.35 41.7081 1095.35 49.9314 Q1095.35 58.1548 1098.71 62.8538 Q1102.11 67.5124 1108.02 67.5124 Q1113.94 67.5124 1117.3 62.8538 Q1120.7 58.1548 1120.7 49.9314 Z" fill="#000000" fill-rule="nonzero" fill-opacity="1" /><path clip-path="url(#clip650)" d="M1140.8 27.2059 L1148.25 27.2059 L1148.25 72.576 L1140.8 72.576 L1140.8 27.2059 M1140.8 9.54393 L1148.25 9.54393 L1148.25 18.9825 L1140.8 18.9825 L1140.8 9.54393 Z" fill="#000000" fill-rule="nonzero" fill-opacity="1" /><path clip-path="url(#clip650)" d="M1193.7 34.0924 L1193.7 9.54393 L1201.15 9.54393 L1201.15 72.576 L1193.7 72.576 L1193.7 65.7705 Q1191.35 69.8214 1187.75 71.8063 Q1184.18 73.7508 1179.16 73.7508 Q1170.94 73.7508 1165.75 67.1883 Q1160.61 60.6258 1160.61 49.9314 Q1160.61 39.2371 1165.75 32.6746 Q1170.94 26.1121 1179.16 26.1121 Q1184.18 26.1121 1187.75 28.0971 Q1191.35 30.0415 1193.7 34.0924 M1168.3 49.9314 Q1168.3 58.1548 1171.66 62.8538 Q1175.07 67.5124 1180.98 67.5124 Q1186.9 67.5124 1190.3 62.8538 Q1193.7 58.1548 1193.7 49.9314 Q1193.7 41.7081 1190.3 37.0496 Q1186.9 32.3505 1180.98 32.3505 Q1175.07 32.3505 1171.66 37.0496 Q1168.3 41.7081 1168.3 49.9314 Z" fill="#000000" fill-rule="nonzero" fill-opacity="1" /><path clip-path="url(#clip650)" d="M1255.32 48.0275 L1255.32 51.6733 L1221.04 51.6733 Q1221.53 59.3701 1225.66 63.421 Q1229.84 67.4314 1237.25 67.4314 Q1241.54 67.4314 1245.55 66.3781 Q1249.6 65.3249 1253.57 63.2184 L1253.57 70.267 Q1249.56 71.9684 1245.35 72.8596 Q1241.14 73.7508 1236.8 73.7508 Q1225.95 73.7508 1219.59 67.4314 Q1213.27 61.1119 1213.27 50.3365 Q1213.27 39.1965 1219.26 32.6746 Q1225.3 26.1121 1235.51 26.1121 Q1244.66 26.1121 1249.97 32.0264 Q1255.32 37.9003 1255.32 48.0275 M1247.86 45.84 Q1247.78 39.7232 1244.42 36.0774 Q1241.1 32.4315 1235.59 32.4315 Q1229.35 32.4315 1225.58 35.9558 Q1221.86 39.4801 1221.29 45.8805 L1247.86 45.84 Z" fill="#000000" fill-rule="nonzero" fill-opacity="1" /><path clip-path="url(#clip650)" d="M1302.87 35.9153 Q1305.67 30.8922 1309.56 28.5022 Q1313.45 26.1121 1318.71 26.1121 Q1325.8 26.1121 1329.65 31.0947 Q1333.5 36.0368 1333.5 45.1919 L1333.5 72.576 L1326 72.576 L1326 45.4349 Q1326 38.913 1323.69 35.7533 Q1321.39 32.5936 1316.65 32.5936 Q1310.85 32.5936 1307.49 36.4419 Q1304.13 40.2903 1304.13 46.9338 L1304.13 72.576 L1296.63 72.576 L1296.63 45.4349 Q1296.63 38.8725 1294.33 35.7533 Q1292.02 32.5936 1287.2 32.5936 Q1281.48 32.5936 1278.12 36.4824 Q1274.76 40.3308 1274.76 46.9338 L1274.76 72.576 L1267.27 72.576 L1267.27 27.2059 L1274.76 27.2059 L1274.76 34.2544 Q1277.31 30.082 1280.88 28.0971 Q1284.44 26.1121 1289.34 26.1121 Q1294.29 26.1121 1297.73 28.6237 Q1301.21 31.1352 1302.87 35.9153 Z" fill="#000000" fill-rule="nonzero" fill-opacity="1" /><path clip-path="url(#clip650)" d="M1348.36 27.2059 L1355.82 27.2059 L1355.82 72.576 L1348.36 72.576 L1348.36 27.2059 M1348.36 9.54393 L1355.82 9.54393 L1355.82 18.9825 L1348.36 18.9825 L1348.36 9.54393 Z" fill="#000000" fill-rule="nonzero" fill-opacity="1" /><path clip-path="url(#clip650)" d="M1404.06 28.9478 L1404.06 35.9153 Q1400.91 34.1734 1397.7 33.3227 Q1394.55 32.4315 1391.3 32.4315 Q1384.05 32.4315 1380.04 37.0496 Q1376.03 41.6271 1376.03 49.9314 Q1376.03 58.2358 1380.04 62.8538 Q1384.05 67.4314 1391.3 67.4314 Q1394.55 67.4314 1397.7 66.5807 Q1400.91 65.6895 1404.06 63.9476 L1404.06 70.8341 Q1400.95 72.2924 1397.58 73.0216 Q1394.26 73.7508 1390.49 73.7508 Q1380.25 73.7508 1374.21 67.3098 Q1368.17 60.8689 1368.17 49.9314 Q1368.17 38.832 1374.25 32.472 Q1380.37 26.1121 1390.98 26.1121 Q1394.42 26.1121 1397.7 26.8413 Q1400.99 27.5299 1404.06 28.9478 Z" fill="#000000" fill-rule="nonzero" fill-opacity="1" /><path clip-path="url(#clip650)" d="M1461.3 9.62495 Q1455.88 18.942 1453.24 28.0566 Q1450.61 37.1711 1450.61 46.5287 Q1450.61 55.8863 1453.24 65.0818 Q1455.92 74.2369 1461.3 83.5134 L1454.82 83.5134 Q1448.75 73.9938 1445.71 64.7983 Q1442.71 55.6027 1442.71 46.5287 Q1442.71 37.4952 1445.71 28.3401 Q1448.71 19.1851 1454.82 9.62495 L1461.3 9.62495 Z" fill="#000000" fill-rule="nonzero" fill-opacity="1" /><path clip-path="url(#clip650)" d="M1504.69 28.5427 L1504.69 35.5912 Q1501.53 33.9709 1498.13 33.1607 Q1494.72 32.3505 1491.08 32.3505 Q1485.53 32.3505 1482.73 34.0519 Q1479.98 35.7533 1479.98 39.156 Q1479.98 41.7486 1481.96 43.2475 Q1483.95 44.7058 1489.94 46.0426 L1492.5 46.6097 Q1500.44 48.3111 1503.76 51.4303 Q1507.12 54.509 1507.12 60.0587 Q1507.12 66.3781 1502.1 70.0644 Q1497.11 73.7508 1488.36 73.7508 Q1484.72 73.7508 1480.75 73.0216 Q1476.82 72.3329 1472.44 70.9151 L1472.44 63.2184 Q1476.58 65.3654 1480.59 66.4591 Q1484.6 67.5124 1488.53 67.5124 Q1493.79 67.5124 1496.63 65.73 Q1499.46 63.9071 1499.46 60.6258 Q1499.46 57.5877 1497.4 55.9673 Q1495.37 54.3469 1488.45 52.8481 L1485.85 52.2405 Q1478.93 50.7821 1475.85 47.7845 Q1472.77 44.7463 1472.77 39.4801 Q1472.77 33.0797 1477.31 29.5959 Q1481.84 26.1121 1490.19 26.1121 Q1494.32 26.1121 1497.96 26.7198 Q1501.61 27.3274 1504.69 28.5427 Z" fill="#000000" fill-rule="nonzero" fill-opacity="1" /><path clip-path="url(#clip650)" d="M1518.99 27.2059 L1526.44 27.2059 L1526.44 72.576 L1518.99 72.576 L1518.99 27.2059 M1518.99 9.54393 L1526.44 9.54393 L1526.44 18.9825 L1518.99 18.9825 L1518.99 9.54393 Z" fill="#000000" fill-rule="nonzero" fill-opacity="1" /><path clip-path="url(#clip650)" d="M1579.75 45.1919 L1579.75 72.576 L1572.3 72.576 L1572.3 45.4349 Q1572.3 38.994 1569.79 35.7938 Q1567.28 32.5936 1562.25 32.5936 Q1556.22 32.5936 1552.73 36.4419 Q1549.25 40.2903 1549.25 46.9338 L1549.25 72.576 L1541.75 72.576 L1541.75 27.2059 L1549.25 27.2059 L1549.25 34.2544 Q1551.92 30.163 1555.53 28.1376 Q1559.17 26.1121 1563.91 26.1121 Q1571.73 26.1121 1575.74 30.9732 Q1579.75 35.7938 1579.75 45.1919 Z" fill="#000000" fill-rule="nonzero" fill-opacity="1" /><path clip-path="url(#clip650)" d="M1624.47 49.3643 Q1624.47 41.2625 1621.11 36.8065 Q1617.79 32.3505 1611.75 32.3505 Q1605.76 32.3505 1602.4 36.8065 Q1599.08 41.2625 1599.08 49.3643 Q1599.08 57.4256 1602.4 61.8816 Q1605.76 66.3376 1611.75 66.3376 Q1617.79 66.3376 1621.11 61.8816 Q1624.47 57.4256 1624.47 49.3643 M1631.93 66.9452 Q1631.93 78.5308 1626.78 84.1616 Q1621.64 89.8329 1611.03 89.8329 Q1607.1 89.8329 1603.61 89.2252 Q1600.13 88.6581 1596.85 87.4428 L1596.85 80.1917 Q1600.13 81.9741 1603.33 82.8248 Q1606.53 83.6755 1609.85 83.6755 Q1617.18 83.6755 1620.83 79.8271 Q1624.47 76.0193 1624.47 68.282 L1624.47 64.5957 Q1622.17 68.6061 1618.56 70.5911 Q1614.95 72.576 1609.93 72.576 Q1601.59 72.576 1596.48 66.2161 Q1591.38 59.8562 1591.38 49.3643 Q1591.38 38.832 1596.48 32.472 Q1601.59 26.1121 1609.93 26.1121 Q1614.95 26.1121 1618.56 28.0971 Q1622.17 30.082 1624.47 34.0924 L1624.47 27.2059 L1631.93 27.2059 L1631.93 66.9452 Z" fill="#000000" fill-rule="nonzero" fill-opacity="1" /><path clip-path="url(#clip650)" d="M1647.28 9.54393 L1654.73 9.54393 L1654.73 72.576 L1647.28 72.576 L1647.28 9.54393 Z" fill="#000000" fill-rule="nonzero" fill-opacity="1" /><path clip-path="url(#clip650)" d="M1709.14 48.0275 L1709.14 51.6733 L1674.87 51.6733 Q1675.35 59.3701 1679.49 63.421 Q1683.66 67.4314 1691.07 67.4314 Q1695.37 67.4314 1699.38 66.3781 Q1703.43 65.3249 1707.4 63.2184 L1707.4 70.267 Q1703.39 71.9684 1699.17 72.8596 Q1694.96 73.7508 1690.63 73.7508 Q1679.77 73.7508 1673.41 67.4314 Q1667.09 61.1119 1667.09 50.3365 Q1667.09 39.1965 1673.09 32.6746 Q1679.12 26.1121 1689.33 26.1121 Q1698.48 26.1121 1703.79 32.0264 Q1709.14 37.9003 1709.14 48.0275 M1701.68 45.84 Q1701.6 39.7232 1698.24 36.0774 Q1694.92 32.4315 1689.41 32.4315 Q1683.17 32.4315 1679.4 35.9558 Q1675.68 39.4801 1675.11 45.8805 L1701.68 45.84 Z" fill="#000000" fill-rule="nonzero" fill-opacity="1" /><path clip-path="url(#clip650)" d="M1774.03 34.1734 Q1772.78 33.4443 1771.28 33.1202 Q1769.82 32.7556 1768.04 32.7556 Q1761.72 32.7556 1758.32 36.8875 Q1754.95 40.9789 1754.95 48.6757 L1754.95 72.576 L1747.46 72.576 L1747.46 27.2059 L1754.95 27.2059 L1754.95 34.2544 Q1757.3 30.1225 1761.07 28.1376 Q1764.84 26.1121 1770.23 26.1121 Q1771 26.1121 1771.93 26.2337 Q1772.86 26.3147 1773.99 26.5172 L1774.03 34.1734 Z" fill="#000000" fill-rule="nonzero" fill-opacity="1" /><path clip-path="url(#clip650)" d="M1818.84 48.0275 L1818.84 51.6733 L1784.57 51.6733 Q1785.05 59.3701 1789.18 63.421 Q1793.36 67.4314 1800.77 67.4314 Q1805.06 67.4314 1809.07 66.3781 Q1813.13 65.3249 1817.09 63.2184 L1817.09 70.267 Q1813.08 71.9684 1808.87 72.8596 Q1804.66 73.7508 1800.32 73.7508 Q1789.47 73.7508 1783.11 67.4314 Q1776.79 61.1119 1776.79 50.3365 Q1776.79 39.1965 1782.78 32.6746 Q1788.82 26.1121 1799.03 26.1121 Q1808.18 26.1121 1813.49 32.0264 Q1818.84 37.9003 1818.84 48.0275 M1811.38 45.84 Q1811.3 39.7232 1807.94 36.0774 Q1804.62 32.4315 1799.11 32.4315 Q1792.87 32.4315 1789.1 35.9558 Q1785.38 39.4801 1784.81 45.8805 L1811.38 45.84 Z" fill="#000000" fill-rule="nonzero" fill-opacity="1" /><path clip-path="url(#clip650)" d="M1851.69 49.7694 Q1842.66 49.7694 1839.17 51.8354 Q1835.69 53.9013 1835.69 58.8839 Q1835.69 62.8538 1838.28 65.2034 Q1840.91 67.5124 1845.41 67.5124 Q1851.61 67.5124 1855.34 63.1374 Q1859.1 58.7219 1859.1 51.4303 L1859.1 49.7694 L1851.69 49.7694 M1866.56 46.6907 L1866.56 72.576 L1859.1 72.576 L1859.1 65.6895 Q1856.55 69.8214 1852.74 71.8063 Q1848.94 73.7508 1843.43 73.7508 Q1836.46 73.7508 1832.33 69.8619 Q1828.23 65.9325 1828.23 59.3701 Q1828.23 51.7138 1833.34 47.825 Q1838.48 43.9361 1848.65 43.9361 L1859.1 43.9361 L1859.1 43.2069 Q1859.1 38.0623 1855.7 35.2672 Q1852.34 32.4315 1846.22 32.4315 Q1842.33 32.4315 1838.65 33.3632 Q1834.96 34.295 1831.56 36.1584 L1831.56 29.2718 Q1835.65 27.692 1839.5 26.9223 Q1843.34 26.1121 1846.99 26.1121 Q1856.83 26.1121 1861.7 31.2163 Q1866.56 36.3204 1866.56 46.6907 Z" fill="#000000" fill-rule="nonzero" fill-opacity="1" /><path clip-path="url(#clip650)" d="M1881.91 9.54393 L1889.36 9.54393 L1889.36 72.576 L1881.91 72.576 L1881.91 9.54393 Z" fill="#000000" fill-rule="nonzero" fill-opacity="1" /><path clip-path="url(#clip650)" d="M1904.96 27.2059 L1912.41 27.2059 L1912.41 72.576 L1904.96 72.576 L1904.96 27.2059 M1904.96 9.54393 L1912.41 9.54393 L1912.41 18.9825 L1904.96 18.9825 L1904.96 9.54393 Z" fill="#000000" fill-rule="nonzero" fill-opacity="1" /><path clip-path="url(#clip650)" d="M1956.93 28.5427 L1956.93 35.5912 Q1953.77 33.9709 1950.37 33.1607 Q1946.97 32.3505 1943.32 32.3505 Q1937.77 32.3505 1934.98 34.0519 Q1932.22 35.7533 1932.22 39.156 Q1932.22 41.7486 1934.21 43.2475 Q1936.19 44.7058 1942.19 46.0426 L1944.74 46.6097 Q1952.68 48.3111 1956 51.4303 Q1959.36 54.509 1959.36 60.0587 Q1959.36 66.3781 1954.34 70.0644 Q1949.36 73.7508 1940.61 73.7508 Q1936.96 73.7508 1932.99 73.0216 Q1929.06 72.3329 1924.69 70.9151 L1924.69 63.2184 Q1928.82 65.3654 1932.83 66.4591 Q1936.84 67.5124 1940.77 67.5124 Q1946.04 67.5124 1948.87 65.73 Q1951.71 63.9071 1951.71 60.6258 Q1951.71 57.5877 1949.64 55.9673 Q1947.62 54.3469 1940.69 52.8481 L1938.1 52.2405 Q1931.17 50.7821 1928.09 47.7845 Q1925.01 44.7463 1925.01 39.4801 Q1925.01 33.0797 1929.55 29.5959 Q1934.09 26.1121 1942.43 26.1121 Q1946.56 26.1121 1950.21 26.7198 Q1953.85 27.3274 1956.93 28.5427 Z" fill="#000000" fill-rule="nonzero" fill-opacity="1" /><path clip-path="url(#clip650)" d="M1991.85 49.7694 Q1982.82 49.7694 1979.33 51.8354 Q1975.85 53.9013 1975.85 58.8839 Q1975.85 62.8538 1978.44 65.2034 Q1981.08 67.5124 1985.57 67.5124 Q1991.77 67.5124 1995.5 63.1374 Q1999.26 58.7219 1999.26 51.4303 L1999.26 49.7694 L1991.85 49.7694 M2006.72 46.6907 L2006.72 72.576 L1999.26 72.576 L1999.26 65.6895 Q1996.71 69.8214 1992.9 71.8063 Q1989.1 73.7508 1983.59 73.7508 Q1976.62 73.7508 1972.49 69.8619 Q1968.4 65.9325 1968.4 59.3701 Q1968.4 51.7138 1973.5 47.825 Q1978.64 43.9361 1988.81 43.9361 L1999.26 43.9361 L1999.26 43.2069 Q1999.26 38.0623 1995.86 35.2672 Q1992.5 32.4315 1986.38 32.4315 Q1982.49 32.4315 1978.81 33.3632 Q1975.12 34.295 1971.72 36.1584 L1971.72 29.2718 Q1975.81 27.692 1979.66 26.9223 Q1983.51 26.1121 1987.15 26.1121 Q1997 26.1121 2001.86 31.2163 Q2006.72 36.3204 2006.72 46.6907 Z" fill="#000000" fill-rule="nonzero" fill-opacity="1" /><path clip-path="url(#clip650)" d="M2029.44 14.324 L2029.44 27.2059 L2044.8 27.2059 L2044.8 32.9987 L2029.44 32.9987 L2029.44 57.6282 Q2029.44 63.1779 2030.94 64.7578 Q2032.48 66.3376 2037.14 66.3376 L2044.8 66.3376 L2044.8 72.576 L2037.14 72.576 Q2028.51 72.576 2025.23 69.3758 Q2021.95 66.1351 2021.95 57.6282 L2021.95 32.9987 L2016.48 32.9987 L2016.48 27.2059 L2021.95 27.2059 L2021.95 14.324 L2029.44 14.324 Z" fill="#000000" fill-rule="nonzero" fill-opacity="1" /><path clip-path="url(#clip650)" d="M2054.6 27.2059 L2062.05 27.2059 L2062.05 72.576 L2054.6 72.576 L2054.6 27.2059 M2054.6 9.54393 L2062.05 9.54393 L2062.05 18.9825 L2054.6 18.9825 L2054.6 9.54393 Z" fill="#000000" fill-rule="nonzero" fill-opacity="1" /><path clip-path="url(#clip650)" d="M2095.23 32.4315 Q2089.23 32.4315 2085.75 37.1306 Q2082.27 41.7891 2082.27 49.9314 Q2082.27 58.0738 2085.71 62.7728 Q2089.19 67.4314 2095.23 67.4314 Q2101.18 67.4314 2104.67 62.7323 Q2108.15 58.0333 2108.15 49.9314 Q2108.15 41.8701 2104.67 37.1711 Q2101.18 32.4315 2095.23 32.4315 M2095.23 26.1121 Q2104.95 26.1121 2110.5 32.4315 Q2116.05 38.7509 2116.05 49.9314 Q2116.05 61.0714 2110.5 67.4314 Q2104.95 73.7508 2095.23 73.7508 Q2085.47 73.7508 2079.92 67.4314 Q2074.41 61.0714 2074.41 49.9314 Q2074.41 38.7509 2079.92 32.4315 Q2085.47 26.1121 2095.23 26.1121 Z" fill="#000000" fill-rule="nonzero" fill-opacity="1" /><path clip-path="url(#clip650)" d="M2166.12 45.1919 L2166.12 72.576 L2158.67 72.576 L2158.67 45.4349 Q2158.67 38.994 2156.16 35.7938 Q2153.64 32.5936 2148.62 32.5936 Q2142.59 32.5936 2139.1 36.4419 Q2135.62 40.2903 2135.62 46.9338 L2135.62 72.576 L2128.12 72.576 L2128.12 27.2059 L2135.62 27.2059 L2135.62 34.2544 Q2138.29 30.163 2141.9 28.1376 Q2145.54 26.1121 2150.28 26.1121 Q2158.1 26.1121 2162.11 30.9732 Q2166.12 35.7938 2166.12 45.1919 Z" fill="#000000" fill-rule="nonzero" fill-opacity="1" /><path clip-path="url(#clip650)" d="M2179.81 9.62495 L2186.29 9.62495 Q2192.37 19.1851 2195.37 28.3401 Q2198.41 37.4952 2198.41 46.5287 Q2198.41 55.6027 2195.37 64.7983 Q2192.37 73.9938 2186.29 83.5134 L2179.81 83.5134 Q2185.2 74.2369 2187.83 65.0818 Q2190.51 55.8863 2190.51 46.5287 Q2190.51 37.1711 2187.83 28.0566 Q2185.2 18.942 2179.81 9.62495 Z" fill="#000000" fill-rule="nonzero" fill-opacity="1" /><polyline clip-path="url(#clip651)" style="stroke:#0000ff; stroke-linecap:round; stroke-linejoin:round; stroke-width:8; stroke-opacity:1; fill:none" points="365.264,1688.65 371.316,1688.5 377.369,1688.5 383.422,1688.5 389.474,1688.35 395.527,1688.5 401.58,1688.2 407.632,1688.5 413.685,1688.5 419.738,1688.5 425.79,1687.9 431.843,1688.35 437.896,1688.05 443.948,1687.44 450.001,1687.74 456.054,1688.2 462.106,1688.2 468.159,1687.9 474.211,1687.9 480.264,1687.9 486.317,1687.14 492.369,1686.68 498.422,1687.59 504.475,1686.38 510.527,1686.83 516.58,1685.77 522.633,1686.08 528.685,1685.47 534.738,1686.08 540.791,1686.08 546.843,1685.17 552.896,1681.83 558.949,1683.8 565.001,1682.74 571.054,1680.92 577.106,1681.83 583.159,1681.68 589.212,1681.22 595.264,1679.4 601.317,1679.25 607.37,1676.52 613.422,1675.76 619.475,1672.73 625.528,1672.88 631.58,1671.67 637.633,1668.78 643.686,1665.45 649.738,1666.05 655.791,1665.6 661.843,1663.17 667.896,1663.02 673.949,1659.08 680.001,1658.77 686.054,1657.1 692.107,1654.22 698.159,1653.01 704.212,1653.01 710.265,1650.88 716.317,1649.82 722.37,1646.64 728.423,1650.28 734.475,1649.82 740.528,1645.12 746.581,1649.52 752.633,1649.67 758.686,1654.98 764.738,1651.04 770.791,1654.22 776.844,1652.86 782.896,1655.43 788.949,1657.41 795.002,1659.08 801.054,1663.32 807.107,1665.45 813.16,1664.38 819.212,1666.66 825.265,1669.54 831.318,1670.76 837.37,1668.02 843.423,1672.27 849.475,1674.7 855.528,1673.49 861.581,1674.85 867.633,1674.85 873.686,1676.37 879.739,1675.76 885.791,1680.16 891.844,1680.92 897.897,1679.86 903.949,1680.62 910.002,1681.83 916.055,1681.83 922.107,1682.59 928.16,1682.13 934.213,1682.89 940.265,1683.95 946.318,1684.1 952.37,1681.83 958.423,1683.8 964.476,1683.8 970.528,1684.56 976.581,1684.1 982.634,1683.8 988.686,1683.19 994.739,1685.17 1000.79,1684.26 1006.84,1685.62 1012.9,1686.23 1018.95,1684.71 1025,1686.08 1031.05,1685.47 1037.11,1685.77 1043.16,1685.92 1049.21,1685.77 1055.27,1686.08 1061.32,1685.92 1067.37,1685.92 1073.42,1685.92 1079.48,1685.92 1085.53,1686.38 1091.58,1685.92 1097.63,1685.92 1103.69,1685.47 1109.74,1686.38 1115.79,1685.17 1121.84,1686.68 1127.9,1686.83 1133.95,1686.23 1140,1686.23 1146.06,1687.29 1152.11,1686.68 1158.16,1686.08 1164.21,1686.38 1170.27,1686.68 1176.32,1687.59 1182.37,1685.92 1188.42,1686.53 1194.48,1686.38 1200.53,1686.23 1206.58,1687.14 1212.63,1686.83 1218.69,1687.14 1224.74,1686.53 1230.79,1686.38 1236.84,1686.83 1242.9,1688.05 1248.95,1687.59 1255,1686.23 1261.06,1686.99 1267.11,1686.53 1273.16,1687.59 1279.21,1687.74 1285.27,1686.08 1291.32,1686.53 1297.37,1687.74 1303.42,1686.83 1309.48,1686.99 1315.53,1687.44 1321.58,1687.14 1327.63,1687.29 1333.69,1686.99 1339.74,1686.83 1345.79,1686.68 1351.85,1687.29 1357.9,1687.14 1363.95,1686.68 1370,1686.68 1376.06,1686.68 1382.11,1688.05 1388.16,1687.14 1394.21,1686.99 1400.27,1686.68 1406.32,1687.44 1412.37,1686.23 1418.42,1687.59 1424.48,1687.14 1430.53,1686.99 1436.58,1686.83 1442.63,1686.53 1448.69,1686.53 1454.74,1686.83 1460.79,1687.9 1466.85,1686.08 1472.9,1686.68 1478.95,1686.38 1485,1687.14 1491.06,1686.53 1497.11,1686.08 1503.16,1687.44 1509.21,1687.29 1515.27,1686.99 1521.32,1687.44 1527.37,1686.38 1533.42,1685.92 1539.48,1686.99 1545.53,1687.29 1551.58,1686.38 1557.64,1687.29 1563.69,1687.29 1569.74,1685.62 1575.79,1686.53 1581.85,1687.14 1587.9,1686.68 1593.95,1686.83 1600,1685.62 1606.06,1686.08 1612.11,1686.08 1618.16,1687.44 1624.21,1686.53 1630.27,1686.38 1636.32,1685.92 1642.37,1686.08 1648.42,1685.77 1654.48,1685.92 1660.53,1686.23 1666.58,1686.53 1672.64,1685.47 1678.69,1685.62 1684.74,1685.77 1690.79,1684.86 1696.85,1684.71 1702.9,1686.23 1708.95,1685.01 1715,1685.77 1721.06,1686.68 1727.11,1684.86 1733.16,1685.17 1739.21,1685.92 1745.27,1683.95 1751.32,1685.32 1757.37,1684.86 1763.42,1685.62 1769.48,1685.01 1775.53,1685.47 1781.58,1686.38 1787.64,1685.32 1793.69,1685.92 1799.74,1683.8 1805.79,1684.86 1811.85,1684.41 1817.9,1686.08 1823.95,1684.71 1830,1684.56 1836.06,1685.62 1842.11,1685.77 1848.16,1684.71 1854.21,1685.01 1860.27,1685.17 1866.32,1684.26 1872.37,1684.71 1878.43,1684.1 1884.48,1683.35 1890.53,1683.5 1896.58,1682.74 1902.64,1685.01 1908.69,1681.83 1914.74,1684.71 1920.79,1682.89 1926.85,1685.01 1932.9,1683.95 1938.95,1683.19 1945,1681.83 1951.06,1684.1 1957.11,1683.04 1963.16,1681.98 1969.21,1684.1 1975.27,1683.04 1981.32,1684.41 1987.37,1684.1 1993.43,1683.5 1999.48,1683.95 2005.53,1683.95 2011.58,1683.35 2017.64,1682.89 2023.69,1684.71 2029.74,1683.19 2035.79,1683.8 2041.85,1683.95 2047.9,1682.59 2053.95,1682.89 2060,1683.19 2066.06,1683.65 2072.11,1683.35 2078.16,1684.41 2084.22,1683.35 2090.27,1681.83 2096.32,1682.28 2102.37,1682.89 2108.43,1684.71 2114.48,1682.74 2120.53,1684.26 2126.58,1682.89 2132.64,1681.68 2138.69,1683.04 2144.74,1682.59 2150.79,1681.22 2156.85,1684.86 2162.9,1683.35 2168.95,1681.98 2175,1683.8 2181.06,1681.83 2187.11,1683.35 2193.16,1683.19 2199.22,1684.1 2205.27,1681.68 2211.32,1682.89 2217.37,1683.65 2223.43,1682.59 2229.48,1683.35 2235.53,1681.98 2241.58,1683.5 2247.64,1683.35 2253.69,1683.19 2259.74,1683.19 2265.79,1683.35 2271.85,1683.19 2277.9,1682.44 2283.95,1683.95 2290.01,1683.19 2296.06,1684.71 2302.11,1682.89 2308.16,1683.8 2314.22,1684.26 2320.27,1684.71 2326.32,1683.5 2332.37,1683.19 2338.43,1683.5 2344.48,1684.41 2350.53,1682.59 2356.58,1683.8 2362.64,1682.44 2368.69,1683.65 2374.74,1684.86 2380.79,1682.13 2386.85,1684.71 2392.9,1683.5 2398.95,1683.5 2405.01,1683.65 2411.06,1684.26 2417.11,1683.5 2423.16,1681.07 2429.22,1684.26 2435.27,1682.89 2441.32,1685.47 2447.37,1684.1 2453.43,1684.26 2459.48,1683.5 2465.53,1684.71 2471.58,1684.26 2477.64,1683.95 2483.69,1682.28 2489.74,1684.1 2495.8,1681.98 2501.85,1683.95 2507.9,1683.5 2513.95,1684.26 2520.01,1683.65 2526.06,1684.26 2532.11,1685.01 2538.16,1683.04 2544.22,1683.19 2550.27,1684.26 2556.32,1684.71 2562.37,1683.8 2568.43,1684.1 2574.48,1684.86 "/>
<polyline clip-path="url(#clip651)" style="stroke:#ffa500; stroke-linecap:round; stroke-linejoin:round; stroke-width:6; stroke-opacity:1; fill:none" points="365.264,173.254 371.316,173.406 377.369,173.558 383.422,173.709 389.474,174.013 395.527,174.619 401.58,175.074 407.632,175.378 413.685,175.681 419.738,176.136 425.79,176.895 431.843,178.563 437.896,179.17 443.948,179.777 450.001,180.535 456.054,182.052 462.106,183.266 468.159,185.389 474.211,187.513 480.264,189.789 486.317,191.761 492.369,193.884 498.422,196.16 504.475,199.193 510.527,203.137 516.58,208.143 522.633,211.177 528.685,216.638 534.738,221.796 540.791,229.077 546.843,235.448 552.896,250.314 558.949,264.724 565.001,278.225 571.054,296.428 577.106,316.299 583.159,334.503 589.212,356.346 595.264,376.218 601.317,400.792 607.37,423.242 613.422,448.575 619.475,476.486 625.528,506.673 631.58,536.404 637.633,572.659 643.686,607.093 649.738,640.313 655.791,682.18 661.843,720.71 667.896,767.583 673.949,810.056 680.001,849.648 686.054,893.79 692.107,936.112 698.159,977.979 704.212,1020.91 710.265,1060.95 716.317,1105.55 722.37,1144.69 728.423,1184.13 734.475,1222.2 740.528,1254.97 746.581,1287.73 752.633,1323.23 758.686,1352.35 764.738,1379.05 770.791,1406.51 776.844,1429.11 782.896,1451.71 788.949,1469.46 795.002,1484.17 801.054,1497.52 807.107,1511.33 813.16,1523.46 819.212,1531.96 825.265,1538.78 831.318,1547.28 837.37,1551.68 843.423,1555.92 849.475,1558.96 855.528,1562.9 861.581,1566.69 867.633,1570.18 873.686,1572.16 879.739,1570.64 885.791,1571.09 891.844,1571.55 897.897,1571.25 903.949,1569.12 910.002,1568.21 916.055,1567 922.107,1565.78 928.16,1564.87 934.213,1563.81 940.265,1562.75 946.318,1561.69 952.37,1558.35 958.423,1555.62 964.476,1556.38 970.528,1553.95 976.581,1552.44 982.634,1551.07 988.686,1547.88 994.739,1546.06 1000.79,1543.94 1006.84,1540.45 1012.9,1536.51 1018.95,1533.02 1025,1529.23 1031.05,1523.31 1037.11,1517.85 1043.16,1516.94 1049.21,1513.75 1055.27,1510.57 1061.32,1507.08 1067.37,1505.41 1073.42,1501.92 1079.48,1498.89 1085.53,1495.7 1091.58,1491.91 1097.63,1487.82 1103.69,1485.69 1109.74,1481.9 1115.79,1479.32 1121.84,1475.53 1127.9,1474.47 1133.95,1469.92 1140,1466.73 1146.06,1461.57 1152.11,1457.93 1158.16,1452.77 1164.21,1449.44 1170.27,1446.71 1176.32,1444.13 1182.37,1441.55 1188.42,1439.43 1194.48,1435.94 1200.53,1432.9 1206.58,1428.66 1212.63,1424.71 1218.69,1418.95 1224.74,1415.15 1230.79,1410.15 1236.84,1406.66 1242.9,1402.56 1248.95,1398.32 1255,1394.22 1261.06,1390.28 1267.11,1386.48 1273.16,1384.06 1279.21,1382.24 1285.27,1378.29 1291.32,1374.5 1297.37,1370.86 1303.42,1364.19 1309.48,1361.3 1315.53,1359.18 1321.58,1355.24 1327.63,1351.75 1333.69,1347.5 1339.74,1344.31 1345.79,1342.19 1351.85,1340.37 1357.9,1339.31 1363.95,1335.21 1370,1333.09 1376.06,1329.75 1382.11,1326.26 1388.16,1325.2 1394.21,1320.95 1400.27,1318.68 1406.32,1317.31 1412.37,1315.95 1418.42,1313.37 1424.48,1311.09 1430.53,1307.76 1436.58,1304.72 1442.63,1303.96 1448.69,1301.08 1454.74,1297.14 1460.79,1295.47 1466.85,1294.26 1472.9,1293.35 1478.95,1292.59 1485,1291.53 1491.06,1288.49 1497.11,1286.37 1503.16,1284.24 1509.21,1283.79 1515.27,1283.03 1521.32,1281.82 1527.37,1280.3 1533.42,1278.03 1539.48,1275.45 1545.53,1275.14 1551.58,1275.29 1557.64,1273.47 1563.69,1272.56 1569.74,1268.77 1575.79,1265.28 1581.85,1263.31 1587.9,1261.79 1593.95,1262.1 1600,1261.19 1606.06,1260.28 1612.11,1259.22 1618.16,1258.76 1624.21,1258.46 1630.27,1257.55 1636.32,1254.66 1642.37,1255.12 1648.42,1253.75 1654.48,1252.84 1660.53,1251.18 1666.58,1249.96 1672.64,1250.72 1678.69,1249.36 1684.74,1251.18 1690.79,1250.42 1696.85,1248.9 1702.9,1250.11 1708.95,1246.32 1715,1246.47 1721.06,1247.54 1727.11,1247.99 1733.16,1247.08 1739.21,1249.05 1745.27,1251.63 1751.32,1251.93 1757.37,1255.12 1763.42,1255.73 1769.48,1252.54 1775.53,1254.51 1781.58,1255.88 1787.64,1255.57 1793.69,1254.97 1799.74,1253.6 1805.79,1253.6 1811.85,1254.21 1817.9,1252.09 1823.95,1252.24 1830,1250.72 1836.06,1250.72 1842.11,1248.29 1848.16,1248.9 1854.21,1247.99 1860.27,1248.6 1866.32,1250.72 1872.37,1252.84 1878.43,1254.36 1884.48,1257.55 1890.53,1257.24 1896.58,1258.15 1902.64,1261.95 1908.69,1263.46 1914.74,1264.52 1920.79,1266.95 1926.85,1268.17 1932.9,1270.59 1938.95,1271.5 1945,1270.9 1951.06,1271.96 1957.11,1272.11 1963.16,1275.14 1969.21,1278.33 1975.27,1279.24 1981.32,1279.54 1987.37,1284.09 1993.43,1283.03 1999.48,1283.79 2005.53,1288.49 2011.58,1290.16 2017.64,1289.71 2023.69,1291.68 2029.74,1292.13 2035.79,1293.35 2041.85,1294.56 2047.9,1294.41 2053.95,1297.44 2060,1298.35 2066.06,1297.75 2072.11,1298.2 2078.16,1301.99 2084.22,1299.26 2090.27,1303.21 2096.32,1306.54 2102.37,1307 2108.43,1310.94 2114.48,1313.98 2120.53,1315.04 2126.58,1317.16 2132.64,1317.92 2138.69,1319.74 2144.74,1320.35 2150.79,1321.26 2156.85,1322.17 2162.9,1321.56 2168.95,1323.38 2175,1324.44 2181.06,1324.44 2187.11,1325.66 2193.16,1326.11 2199.22,1327.33 2205.27,1328.84 2211.32,1331.12 2217.37,1332.03 2223.43,1333.39 2229.48,1336.43 2235.53,1337.49 2241.58,1339.16 2247.64,1337.94 2253.69,1338.55 2259.74,1340.52 2265.79,1340.52 2271.85,1338.7 2277.9,1338.7 2283.95,1337.49 2290.01,1338.1 2296.06,1338.1 2302.11,1338.4 2308.16,1339.46 2314.22,1340.67 2320.27,1341.58 2326.32,1341.43 2332.37,1340.52 2338.43,1341.28 2344.48,1339.01 2350.53,1339.01 2356.58,1338.85 2362.64,1339.01 2368.69,1340.83 2374.74,1343.56 2380.79,1346.59 2386.85,1346.59 2392.9,1345.53 2398.95,1345.53 2405.01,1344.47 2411.06,1346.44 2417.11,1345.68 2423.16,1344.77 2429.22,1342.8 2435.27,1345.38 2441.32,1347.05 2447.37,1347.05 2453.43,1348.26 2459.48,1350.08 2465.53,1351.6 2471.58,1347.96 2477.64,1348.56 2483.69,1348.11 2489.74,1346.89 2495.8,1345.68 2501.85,1345.53 2507.9,1346.44 2513.95,1344.01 2520.01,1343.56 2526.06,1344.31 2532.11,1343.86 2538.16,1344.31 2544.22,1346.44 2550.27,1345.07 2556.32,1345.68 2562.37,1346.44 2568.43,1347.2 2574.48,1347.35 "/>
<polyline clip-path="url(#clip651)" style="stroke:#ff0000; stroke-linecap:round; stroke-linejoin:round; stroke-width:8; stroke-opacity:1; fill:none" points="365.264,1687.9 371.316,1687.9 377.369,1687.9 383.422,1687.9 389.474,1687.9 395.527,1687.44 401.58,1687.44 407.632,1687.29 413.685,1687.14 419.738,1686.83 425.79,1686.83 431.843,1685.47 437.896,1685.47 443.948,1686.08 450.001,1686.23 456.054,1685.17 462.106,1684.41 468.159,1683.04 474.211,1681.68 480.264,1680.01 486.317,1679.55 492.369,1679.4 498.422,1678.19 504.475,1677.43 510.527,1675.31 516.58,1673.18 522.633,1672.73 528.685,1670.15 534.738,1667.42 540.791,1662.56 546.843,1659.68 552.896,1660.14 558.949,1658.16 565.001,1656.5 571.054,1653.92 577.106,1646.64 583.159,1641.18 589.212,1632.83 595.264,1627.37 601.317,1618.42 607.37,1614.33 613.422,1606.74 619.475,1601.43 625.528,1591.72 631.58,1582.93 637.633,1572 643.686,1565.48 649.738,1559.11 655.791,1545.46 661.843,1537.11 667.896,1520.73 673.949,1510.72 680.001,1504.05 686.054,1493.28 692.107,1485.99 698.159,1480.08 704.212,1472.95 710.265,1469.76 716.317,1464.61 722.37,1466.88 728.423,1466.12 734.475,1467.03 740.528,1476.74 746.581,1481.6 752.633,1482.81 758.686,1484.48 764.738,1492.67 770.791,1498.74 776.844,1509.66 782.896,1518.46 788.949,1528.62 795.002,1540.45 801.054,1548.8 807.107,1555.77 813.16,1564.42 819.212,1574.58 825.265,1582.93 831.318,1587.17 837.37,1597.94 843.423,1605.22 849.475,1608.56 855.528,1615.24 861.581,1620.24 867.633,1626.01 873.686,1631.16 879.739,1639.36 885.791,1640.11 891.844,1642.39 897.897,1646.64 903.949,1649.37 910.002,1650.28 916.055,1652.55 922.107,1654.37 928.16,1657.41 934.213,1657.71 940.265,1657.71 946.318,1658.01 952.37,1661.81 958.423,1662.11 964.476,1661.96 970.528,1662.41 976.581,1664.69 982.634,1666.36 988.686,1668.94 994.739,1668.18 1000.79,1669.39 1006.84,1669.69 1012.9,1668.63 1018.95,1669.69 1025,1670.45 1031.05,1671.06 1037.11,1671.67 1043.16,1671.67 1049.21,1672.27 1055.27,1672.73 1061.32,1673.33 1067.37,1673.64 1073.42,1674.09 1079.48,1675.46 1085.53,1675.15 1091.58,1675.15 1097.63,1675.31 1103.69,1675.91 1109.74,1676.22 1115.79,1676.52 1121.84,1676.22 1127.9,1675.31 1133.95,1676.97 1140,1676.82 1146.06,1676.06 1152.11,1674.55 1158.16,1676.37 1164.21,1676.67 1170.27,1676.97 1176.32,1675.91 1182.37,1676.67 1188.42,1676.97 1194.48,1677.73 1200.53,1678.79 1206.58,1679.25 1212.63,1679.86 1218.69,1679.86 1224.74,1680.92 1230.79,1680.92 1236.84,1681.22 1242.9,1679.4 1248.95,1679.4 1255,1680.92 1261.06,1680.77 1267.11,1681.07 1273.16,1680.62 1279.21,1679.86 1285.27,1681.22 1291.32,1681.22 1297.37,1680.62 1303.42,1681.07 1309.48,1680.77 1315.53,1679.55 1321.58,1678.95 1327.63,1678.95 1333.69,1679.55 1339.74,1680.01 1345.79,1680.62 1351.85,1680.16 1357.9,1679.86 1363.95,1680.46 1370,1681.22 1376.06,1681.68 1382.11,1680.46 1388.16,1679.4 1394.21,1679.71 1400.27,1679.71 1406.32,1678.79 1412.37,1679.25 1418.42,1678.95 1424.48,1678.79 1430.53,1678.49 1436.58,1678.64 1442.63,1678.95 1448.69,1680.16 1454.74,1680.92 1460.79,1679.86 1466.85,1680.01 1472.9,1679.1 1478.95,1679.4 1485,1678.95 1491.06,1679.25 1497.11,1680.46 1503.16,1679.4 1509.21,1679.4 1515.27,1678.49 1521.32,1677.28 1527.37,1678.04 1533.42,1678.49 1539.48,1677.88 1545.53,1677.58 1551.58,1678.34 1557.64,1677.73 1563.69,1676.67 1569.74,1677.13 1575.79,1677.88 1581.85,1677.28 1587.9,1676.97 1593.95,1675.46 1600,1677.13 1606.06,1676.37 1612.11,1676.52 1618.16,1674.7 1624.21,1674.7 1630.27,1674.4 1636.32,1674.55 1642.37,1673.79 1648.42,1674.24 1654.48,1673.33 1660.53,1673.64 1666.58,1673.49 1672.64,1672.88 1678.69,1673.33 1684.74,1672.88 1690.79,1672.73 1696.85,1673.18 1702.9,1672.12 1708.95,1674.7 1715,1674.09 1721.06,1671.82 1727.11,1672.12 1733.16,1672.58 1739.21,1671.67 1745.27,1672.58 1751.32,1671.97 1757.37,1671.82 1763.42,1670.6 1769.48,1671.06 1775.53,1669.24 1781.58,1667.87 1787.64,1668.63 1793.69,1666.96 1799.74,1668.33 1805.79,1667.87 1811.85,1668.94 1817.9,1667.57 1823.95,1667.57 1830,1667.72 1836.06,1666.36 1842.11,1665.29 1848.16,1664.08 1854.21,1664.38 1860.27,1663.02 1866.32,1662.72 1872.37,1660.29 1878.43,1661.05 1884.48,1660.44 1890.53,1660.44 1896.58,1662.41 1902.64,1659.38 1908.69,1661.35 1914.74,1660.59 1920.79,1661.81 1926.85,1661.05 1932.9,1661.2 1938.95,1660.74 1945,1661.81 1951.06,1661.65 1957.11,1663.63 1963.16,1664.69 1969.21,1663.17 1975.27,1662.87 1981.32,1662.26 1987.37,1660.74 1993.43,1660.9 1999.48,1660.59 2005.53,1658.77 2011.58,1658.01 2017.64,1660.14 2023.69,1659.08 2029.74,1660.14 2035.79,1659.83 2041.85,1657.71 2047.9,1659.99 2053.95,1659.99 2060,1659.99 2066.06,1660.9 2072.11,1659.99 2078.16,1656.95 2084.22,1656.95 2090.27,1657.71 2096.32,1658.16 2102.37,1659.38 2108.43,1655.28 2114.48,1653.77 2120.53,1653.46 2126.58,1653.46 2132.64,1654.52 2138.69,1654.83 2144.74,1655.59 2150.79,1658.32 2156.85,1656.8 2162.9,1656.5 2168.95,1656.5 2175,1656.04 2181.06,1657.86 2187.11,1658.16 2193.16,1659.08 2199.22,1657.86 2205.27,1659.38 2211.32,1658.92 2217.37,1658.16 2223.43,1658.77 2229.48,1657.86 2235.53,1659.53 2241.58,1658.92 2247.64,1658.77 2253.69,1659.08 2259.74,1658.47 2265.79,1657.56 2271.85,1658.92 2277.9,1660.14 2283.95,1660.14 2290.01,1659.99 2296.06,1658.92 2302.11,1659.83 2308.16,1659.23 2314.22,1658.47 2320.27,1657.41 2326.32,1657.86 2332.37,1659.23 2338.43,1658.62 2344.48,1659.53 2350.53,1661.65 2356.58,1661.5 2362.64,1663.78 2368.69,1662.11 2374.74,1659.08 2380.79,1659.23 2386.85,1657.25 2392.9,1658.62 2398.95,1659.23 2405.01,1660.29 2411.06,1658.62 2417.11,1660.14 2423.16,1662.26 2429.22,1663.17 2435.27,1663.17 2441.32,1661.35 2447.37,1661.05 2453.43,1659.99 2459.48,1661.05 2465.53,1659.53 2471.58,1659.68 2477.64,1659.68 2483.69,1661.05 2489.74,1660.59 2495.8,1663.32 2501.85,1663.47 2507.9,1663.17 2513.95,1663.63 2520.01,1663.93 2526.06,1663.63 2532.11,1661.96 2538.16,1662.72 2544.22,1663.02 2550.27,1663.78 2556.32,1662.72 2562.37,1662.11 2568.43,1661.81 2574.48,1660.74 "/>
<polyline clip-path="url(#clip651)" style="stroke:#008000; stroke-linecap:round; stroke-linejoin:round; stroke-width:6; stroke-opacity:1; fill:none" points="365.264,1687.9 371.316,1687.9 377.369,1687.74 383.422,1687.59 389.474,1687.29 395.527,1687.29 401.58,1687.29 407.632,1687.29 413.685,1687.29 419.738,1687.29 425.79,1686.83 431.843,1686.83 437.896,1686.68 443.948,1685.62 450.001,1685.01 456.054,1685.32 462.106,1685.17 468.159,1684.56 474.211,1684.41 480.264,1683.65 486.317,1682.59 492.369,1681.37 498.422,1681.07 504.475,1679.4 510.527,1678.49 516.58,1677.13 522.633,1676.37 528.685,1674.09 534.738,1672.73 540.791,1671.82 546.843,1669.24 552.896,1664.69 558.949,1662.11 565.001,1658.47 571.054,1654.52 577.106,1651.04 583.159,1646.79 589.212,1644.06 595.264,1639.2 601.317,1635.41 607.37,1628.74 613.422,1621.91 619.475,1613.42 625.528,1604.77 631.58,1594.61 637.633,1582.62 643.686,1572 649.738,1559.41 655.791,1548.95 661.843,1535.9 667.896,1523.92 673.949,1512.54 680.001,1497.68 686.054,1485.24 692.107,1469.92 698.159,1453.08 704.212,1441.09 710.265,1425.01 716.317,1411.36 722.37,1392.86 728.423,1380.72 734.475,1374.65 740.528,1357.51 746.581,1348.56 752.633,1342.19 758.686,1338.7 764.738,1332.33 770.791,1331.88 776.844,1329.75 782.896,1332.63 788.949,1333.09 795.002,1335.82 801.054,1342.49 807.107,1354.48 813.16,1359.79 819.212,1369.65 825.265,1383.3 831.318,1394.68 837.37,1403.93 843.423,1413.03 849.475,1426.08 855.528,1433.81 861.581,1446.71 867.633,1455.5 873.686,1465.82 879.739,1474.47 885.791,1485.69 891.844,1496.46 897.897,1507.53 903.949,1514.97 910.002,1526.34 916.055,1531.81 922.107,1541.36 928.16,1550.01 934.213,1556.83 940.265,1564.42 946.318,1571.7 952.37,1576.1 958.423,1582.62 964.476,1587.02 970.528,1591.88 976.581,1593.54 982.634,1598.7 988.686,1601.74 994.739,1607.35 1000.79,1612.66 1006.84,1618.88 1012.9,1622.52 1018.95,1624.79 1025,1629.04 1031.05,1632.38 1037.11,1634.8 1043.16,1637.99 1049.21,1639.36 1055.27,1642.09 1061.32,1643.75 1067.37,1644.82 1073.42,1644.82 1079.48,1646.03 1085.53,1648 1091.58,1649.52 1097.63,1648.91 1103.69,1649.52 1109.74,1650.43 1115.79,1650.58 1121.84,1652.25 1127.9,1654.68 1133.95,1655.13 1140,1655.59 1146.06,1657.56 1152.11,1658.92 1158.16,1659.08 1164.21,1658.47 1170.27,1659.68 1176.32,1661.35 1182.37,1660.74 1188.42,1662.26 1194.48,1662.87 1200.53,1663.47 1206.58,1664.08 1212.63,1664.54 1218.69,1665.14 1224.74,1664.69 1230.79,1664.84 1236.84,1665.6 1242.9,1666.51 1248.95,1667.11 1255,1666.51 1261.06,1666.96 1267.11,1666.81 1273.16,1667.57 1279.21,1668.02 1285.27,1667.57 1291.32,1667.57 1297.37,1668.78 1303.42,1669.24 1309.48,1669.54 1315.53,1669.85 1321.58,1670.76 1327.63,1670.76 1333.69,1671.21 1339.74,1671.51 1345.79,1670.45 1351.85,1670.76 1357.9,1670.76 1363.95,1669.85 1370,1669.09 1376.06,1668.94 1382.11,1669.85 1388.16,1669.85 1394.21,1670.45 1400.27,1669.85 1406.32,1669.69 1412.37,1668.48 1418.42,1669.85 1424.48,1670.6 1430.53,1670.76 1436.58,1671.36 1442.63,1670.15 1448.69,1670.6 1454.74,1669.85 1460.79,1670.6 1466.85,1669.24 1472.9,1669.09 1478.95,1669.24 1485,1670.45 1491.06,1670.15 1497.11,1669.39 1503.16,1671.06 1509.21,1671.06 1515.27,1670.6 1521.32,1671.21 1527.37,1670.76 1533.42,1669.54 1539.48,1669.09 1545.53,1669.69 1551.58,1668.48 1557.64,1669.39 1563.69,1669.85 1569.74,1669.09 1575.79,1669.54 1581.85,1670.3 1587.9,1669.69 1593.95,1670 1600,1669.09 1606.06,1668.78 1612.11,1667.42 1618.16,1668.02 1624.21,1668.94 1630.27,1669.39 1636.32,1668.63 1642.37,1668.48 1648.42,1667.57 1654.48,1666.05 1660.53,1665.9 1666.58,1665.45 1672.64,1664.54 1678.69,1663.17 1684.74,1663.93 1690.79,1662.11 1696.85,1660.74 1702.9,1660.59 1708.95,1659.53 1715,1659.08 1721.06,1659.68 1727.11,1658.47 1733.16,1658.32 1739.21,1657.86 1745.27,1654.98 1751.32,1654.52 1757.37,1653.61 1763.42,1655.28 1769.48,1654.98 1775.53,1654.68 1781.58,1655.74 1787.64,1655.89 1793.69,1657.56 1799.74,1655.28 1805.79,1654.68 1811.85,1653.01 1817.9,1653.31 1823.95,1653.16 1830,1652.86 1836.06,1653.77 1842.11,1654.07 1848.16,1653.01 1854.21,1653.01 1860.27,1653.16 1866.32,1652.1 1872.37,1651.04 1878.43,1649.06 1884.48,1647.55 1890.53,1646.03 1896.58,1643.6 1902.64,1645.12 1908.69,1642.24 1914.74,1643 1920.79,1641.48 1926.85,1643 1932.9,1641.78 1938.95,1639.96 1945,1637.69 1951.06,1637.69 1957.11,1636.93 1963.16,1634.5 1969.21,1634.96 1975.27,1633.89 1981.32,1634.35 1987.37,1635.87 1993.43,1636.93 1999.48,1637.84 2005.53,1638.44 2011.58,1637.38 2017.64,1636.32 2023.69,1637.38 2029.74,1636.32 2035.79,1636.93 2041.85,1637.38 2047.9,1636.17 2053.95,1633.74 2060,1632.53 2066.06,1632.83 2072.11,1632.68 2078.16,1633.44 2084.22,1632.83 2090.27,1631.01 2096.32,1630.71 2102.37,1629.65 2108.43,1631.77 2114.48,1630.25 2120.53,1631.01 2126.58,1630.56 2132.64,1628.59 2138.69,1628.89 2144.74,1629.19 2150.79,1627.22 2156.85,1631.77 2162.9,1632.53 2168.95,1631.47 2175,1632.23 2181.06,1631.01 2187.11,1631.47 2193.16,1631.47 2199.22,1632.68 2205.27,1631.01 2211.32,1629.19 2217.37,1629.95 2223.43,1629.65 2229.48,1629.34 2235.53,1628.59 2241.58,1627.67 2247.64,1628.59 2253.69,1629.5 2259.74,1629.65 2265.79,1628.89 2271.85,1629.34 2277.9,1629.8 2283.95,1630.1 2290.01,1629.04 2296.06,1631.32 2302.11,1630.56 2308.16,1631.62 2314.22,1633.74 2320.27,1633.89 2326.32,1632.98 2332.37,1633.59 2338.43,1634.2 2344.48,1634.65 2350.53,1632.83 2356.58,1633.59 2362.64,1631.01 2368.69,1631.32 2374.74,1633.29 2380.79,1632.83 2386.85,1634.05 2392.9,1634.65 2398.95,1633.74 2405.01,1634.2 2411.06,1635.11 2417.11,1634.96 2423.16,1632.07 2429.22,1632.68 2435.27,1631.01 2441.32,1633.74 2447.37,1634.65 2453.43,1635.11 2459.48,1635.71 2465.53,1636.32 2471.58,1637.53 2477.64,1637.38 2483.69,1635.56 2489.74,1635.11 2495.8,1632.68 2501.85,1632.98 2507.9,1634.2 2513.95,1634.8 2520.01,1635.41 2526.06,1636.47 2532.11,1637.99 2538.16,1636.93 2544.22,1636.17 2550.27,1637.53 2556.32,1639.66 2562.37,1638.44 2568.43,1640.72 2574.48,1640.72 "/>
<polyline clip-path="url(#clip651)" style="stroke:#800080; stroke-linecap:round; stroke-linejoin:round; stroke-width:6; stroke-opacity:1; fill:none" points="365.264,1688.65 371.316,1688.5 377.369,1688.5 383.422,1688.5 389.474,1688.5 395.527,1688.35 401.58,1687.9 407.632,1687.74 413.685,1687.59 419.738,1687.44 425.79,1687.14 431.843,1686.83 437.896,1686.38 443.948,1686.23 450.001,1685.92 456.054,1685.17 462.106,1684.86 468.159,1684.71 474.211,1684.1 480.264,1684.26 486.317,1683.8 492.369,1683.04 498.422,1682.28 504.475,1681.68 510.527,1680.77 516.58,1679.25 522.633,1677.43 528.685,1676.82 534.738,1675.76 540.791,1674.24 546.843,1673.33 552.896,1671.06 558.949,1668.78 565.001,1666.51 571.054,1662.87 577.106,1659.53 583.159,1657.25 589.212,1652.86 595.264,1648.46 601.317,1643 607.37,1637.53 613.422,1631.47 619.475,1624.34 625.528,1617.36 631.58,1611.29 637.633,1603.86 643.686,1591.42 649.738,1581.56 655.791,1569.12 661.843,1556.99 667.896,1544.09 673.949,1526.95 680.001,1512.84 686.054,1494.79 692.107,1477.5 698.159,1460.21 704.212,1437.61 710.265,1417.28 716.317,1393.01 722.37,1371.47 728.423,1345.98 734.475,1314.28 740.528,1288.95 746.581,1260.43 752.633,1230.09 758.686,1202.33 764.738,1174.42 770.791,1141.81 776.844,1110.1 782.896,1076.12 788.949,1048.06 795.002,1019.09 801.054,989.963 807.107,957.197 813.16,930.803 819.212,901.981 825.265,872.402 831.318,847.827 837.37,823.253 843.423,801.713 849.475,781.538 855.528,763.79 861.581,741.643 867.633,722.682 873.686,704.782 879.739,688.399 885.791,675.657 891.844,661.247 897.897,645.471 903.949,636.066 910.002,623.779 916.055,616.801 922.107,606.031 928.16,595.261 934.213,588.435 940.265,581.457 946.318,575.237 952.37,570.687 958.423,565.377 964.476,560.372 970.528,556.428 976.581,552.939 982.634,546.871 988.686,543.534 994.739,539.741 1000.79,535.191 1006.84,530.943 1012.9,531.854 1018.95,530.488 1025,528.971 1031.05,530.185 1037.11,531.854 1043.16,530.337 1049.21,532.157 1055.27,532.005 1061.32,532.915 1067.37,533.219 1073.42,535.342 1079.48,536.253 1085.53,537.466 1091.58,539.286 1097.63,543.534 1103.69,545.051 1109.74,547.478 1115.79,549.601 1121.84,552.029 1127.9,551.573 1133.95,554.001 1140,557.641 1146.06,560.523 1152.11,564.467 1158.16,567.956 1164.21,571.445 1170.27,572.81 1176.32,575.692 1182.37,578.575 1188.42,579.03 1194.48,581.457 1200.53,582.822 1206.58,585.704 1212.63,587.979 1218.69,593.592 1224.74,598.294 1230.79,602.542 1236.84,605.272 1242.9,609.671 1248.95,613.919 1255,618.47 1261.06,622.413 1267.11,625.902 1273.16,629.24 1279.21,632.273 1285.27,635.762 1291.32,639.403 1297.37,641.83 1303.42,646.532 1309.48,650.173 1315.53,654.572 1321.58,658.061 1327.63,661.853 1333.69,665.342 1339.74,668.983 1345.79,672.32 1351.85,675.506 1357.9,677.781 1363.95,682.028 1370,685.366 1376.06,689.006 1382.11,692.04 1388.16,694.77 1394.21,698.411 1400.27,701.597 1406.32,704.479 1412.37,707.664 1418.42,710.546 1424.48,712.367 1430.53,716.007 1436.58,718.131 1442.63,721.772 1448.69,724.047 1454.74,728.143 1460.79,730.721 1466.85,734.665 1472.9,738.609 1478.95,739.975 1485,741.188 1491.06,744.677 1497.11,747.408 1503.16,748.773 1509.21,749.986 1515.27,752.868 1521.32,754.84 1527.37,757.267 1533.42,759.391 1539.48,763.032 1545.53,764.245 1551.58,766.672 1557.64,769.251 1563.69,771.071 1569.74,775.167 1575.79,778.656 1581.85,780.78 1587.9,783.965 1593.95,785.786 1600,787.606 1606.06,790.033 1612.11,793.218 1618.16,795.494 1624.21,795.949 1630.27,797.466 1636.32,800.955 1642.37,802.927 1648.42,805.505 1654.48,808.691 1660.53,810.663 1666.58,812.787 1672.64,814.455 1678.69,817.489 1684.74,816.276 1690.79,818.703 1696.85,822.343 1702.9,823.86 1708.95,826.439 1715,827.804 1721.06,828.866 1727.11,830.535 1733.16,831.141 1739.21,831.596 1745.27,832.355 1751.32,833.72 1757.37,834.175 1763.42,834.327 1769.48,836.602 1775.53,837.664 1781.58,837.512 1787.64,837.209 1793.69,838.271 1799.74,840.85 1805.79,841.911 1811.85,842.822 1817.9,845.097 1823.95,845.855 1830,846.917 1836.06,848.283 1842.11,850.861 1848.16,853.137 1854.21,854.35 1860.27,855.715 1866.32,855.564 1872.37,857.232 1878.43,858.294 1884.48,858.143 1890.53,860.873 1896.58,861.025 1902.64,860.418 1908.69,861.025 1914.74,859.053 1920.79,857.839 1926.85,856.626 1932.9,856.777 1938.95,857.991 1945,858.143 1951.06,858.446 1957.11,857.536 1963.16,856.929 1969.21,856.626 1975.27,856.171 1981.32,855.867 1987.37,853.288 1993.43,851.923 1999.48,851.165 2005.53,849.193 2011.58,848.889 2017.64,848.586 2023.69,847.069 2029.74,846.007 2035.79,845.4 2041.85,844.49 2047.9,844.187 2053.95,844.794 2060,844.945 2066.06,843.58 2072.11,843.428 2078.16,842.063 2084.22,843.732 2090.27,841.456 2096.32,839.029 2102.37,837.816 2108.43,835.996 2114.48,835.844 2120.53,833.568 2126.58,833.113 2132.64,832.81 2138.69,831.293 2144.74,829.018 2150.79,827.804 2156.85,823.253 2162.9,822.04 2168.95,820.978 2175,820.22 2181.06,819.006 2187.11,817.034 2193.16,816.427 2199.22,814.91 2205.27,814.304 2211.32,814.455 2217.37,813.393 2223.43,811.118 2229.48,809.601 2235.53,807.022 2241.58,806.871 2247.64,805.657 2253.69,804.595 2259.74,803.837 2265.79,803.837 2271.85,804.292 2277.9,802.472 2283.95,801.106 2290.01,801.713 2296.06,800.348 2302.11,800.5 2308.16,798.376 2314.22,796.404 2320.27,796.707 2326.32,796.556 2332.37,794.887 2338.43,793.522 2344.48,793.522 2350.53,793.218 2356.58,792.157 2362.64,792.46 2368.69,792.46 2374.74,790.943 2380.79,788.516 2386.85,788.516 2392.9,786.999 2398.95,787.302 2405.01,785.937 2411.06,784.875 2417.11,784.875 2423.16,785.482 2429.22,785.179 2435.27,785.786 2441.32,782.903 2447.37,782.448 2453.43,782.448 2459.48,780.476 2465.53,779.414 2471.58,780.628 2477.64,779.718 2483.69,781.235 2489.74,782.448 2495.8,783.055 2501.85,782.297 2507.9,778.959 2513.95,780.325 2520.01,778.201 2526.06,776.987 2532.11,777.442 2538.16,777.291 2544.22,775.926 2550.27,773.954 2556.32,771.678 2562.37,772.437 2568.43,769.706 2574.48,770.92 "/>
<polyline clip-path="url(#clip651)" style="stroke:#808080; stroke-linecap:round; stroke-linejoin:round; stroke-width:4; stroke-opacity:1; fill:none" stroke-dasharray="16, 10" points="546.843,3340.44 546.843,-1478.53 "/>
<path clip-path="url(#clip650)" d="M1908.01 544.216 L2562.7 544.216 L2562.7 181.336 L1908.01 181.336  Z" fill="#ffffff" fill-rule="evenodd" fill-opacity="1"/>
<polyline clip-path="url(#clip650)" style="stroke:#000000; stroke-linecap:round; stroke-linejoin:round; stroke-width:4; stroke-opacity:1; fill:none" points="1908.01,544.216 2562.7,544.216 2562.7,181.336 1908.01,181.336 1908.01,544.216 "/>
<polyline clip-path="url(#clip650)" style="stroke:#0000ff; stroke-linecap:round; stroke-linejoin:round; stroke-width:8; stroke-opacity:1; fill:none" points="1934.03,233.176 2090.15,233.176 "/>
<path clip-path="url(#clip650)" d="M2138.42 217.031 L2138.42 221.591 Q2135.75 220.318 2133.39 219.693 Q2131.03 219.068 2128.83 219.068 Q2125.01 219.068 2122.93 220.549 Q2120.87 222.031 2120.87 224.762 Q2120.87 227.054 2122.24 228.234 Q2123.62 229.392 2127.47 230.109 L2130.29 230.688 Q2135.52 231.683 2138 234.206 Q2140.5 236.706 2140.5 240.919 Q2140.5 245.942 2137.12 248.535 Q2133.76 251.128 2127.26 251.128 Q2124.8 251.128 2122.03 250.572 Q2119.27 250.016 2116.31 248.929 L2116.31 244.114 Q2119.16 245.711 2121.89 246.521 Q2124.62 247.331 2127.26 247.331 Q2131.26 247.331 2133.44 245.757 Q2135.61 244.183 2135.61 241.267 Q2135.61 238.72 2134.04 237.285 Q2132.49 235.85 2128.92 235.132 L2126.08 234.577 Q2120.85 233.535 2118.51 231.313 Q2116.17 229.091 2116.17 225.132 Q2116.17 220.549 2119.39 217.91 Q2122.63 215.271 2128.3 215.271 Q2130.73 215.271 2133.25 215.711 Q2135.78 216.151 2138.42 217.031 Z" fill="#000000" fill-rule="nonzero" fill-opacity="1" /><polyline clip-path="url(#clip650)" style="stroke:#ffa500; stroke-linecap:round; stroke-linejoin:round; stroke-width:6; stroke-opacity:1; fill:none" points="1934.03,285.016 2090.15,285.016 "/>
<path clip-path="url(#clip650)" d="M2116.17 267.736 L2138.02 267.736 L2138.02 271.671 L2120.85 271.671 L2120.85 281.903 L2137.3 281.903 L2137.3 285.838 L2120.85 285.838 L2120.85 298.361 L2138.44 298.361 L2138.44 302.296 L2116.17 302.296 L2116.17 267.736 Z" fill="#000000" fill-rule="nonzero" fill-opacity="1" /><polyline clip-path="url(#clip650)" style="stroke:#ff0000; stroke-linecap:round; stroke-linejoin:round; stroke-width:8; stroke-opacity:1; fill:none" points="1934.03,336.856 2090.15,336.856 "/>
<path clip-path="url(#clip650)" d="M2116.17 319.576 L2120.85 319.576 L2120.85 354.136 L2116.17 354.136 L2116.17 319.576 Z" fill="#000000" fill-rule="nonzero" fill-opacity="1" /><polyline clip-path="url(#clip650)" style="stroke:#008000; stroke-linecap:round; stroke-linejoin:round; stroke-width:6; stroke-opacity:1; fill:none" points="1934.03,388.696 2090.15,388.696 "/>
<path clip-path="url(#clip650)" d="M2132.56 389.773 Q2134.06 390.282 2135.48 391.949 Q2136.91 393.615 2138.35 396.532 L2143.09 405.976 L2138.07 405.976 L2133.65 397.111 Q2131.93 393.638 2130.31 392.504 Q2128.72 391.37 2125.94 391.37 L2120.85 391.37 L2120.85 405.976 L2116.17 405.976 L2116.17 371.416 L2126.73 371.416 Q2132.65 371.416 2135.57 373.893 Q2138.48 376.37 2138.48 381.37 Q2138.48 384.634 2136.96 386.787 Q2135.45 388.939 2132.56 389.773 M2120.85 375.259 L2120.85 387.527 L2126.73 387.527 Q2130.11 387.527 2131.82 385.976 Q2133.55 384.402 2133.55 381.37 Q2133.55 378.338 2131.82 376.81 Q2130.11 375.259 2126.73 375.259 L2120.85 375.259 Z" fill="#000000" fill-rule="nonzero" fill-opacity="1" /><polyline clip-path="url(#clip650)" style="stroke:#800080; stroke-linecap:round; stroke-linejoin:round; stroke-width:6; stroke-opacity:1; fill:none" points="1934.03,440.536 2090.15,440.536 "/>
<path clip-path="url(#clip650)" d="M2129.36 457.816 L2116.17 423.256 L2121.05 423.256 L2132 452.353 L2142.98 423.256 L2147.84 423.256 L2134.67 457.816 L2129.36 457.816 Z" fill="#000000" fill-rule="nonzero" fill-opacity="1" /><polyline clip-path="url(#clip650)" style="stroke:#808080; stroke-linecap:round; stroke-linejoin:round; stroke-width:4; stroke-opacity:1; fill:none" stroke-dasharray="16, 10" points="1934.03,492.376 2090.15,492.376 "/>
<path clip-path="url(#clip650)" d="M2129.36 509.656 L2116.17 475.096 L2121.05 475.096 L2132 504.193 L2142.98 475.096 L2147.84 475.096 L2134.67 509.656 L2129.36 509.656 Z" fill="#000000" fill-rule="nonzero" fill-opacity="1" /><path clip-path="url(#clip650)" d="M2160.8 496.624 Q2155.64 496.624 2153.65 497.804 Q2151.66 498.985 2151.66 501.832 Q2151.66 504.101 2153.14 505.443 Q2154.64 506.763 2157.21 506.763 Q2160.75 506.763 2162.88 504.263 Q2165.04 501.74 2165.04 497.573 L2165.04 496.624 L2160.8 496.624 M2169.3 494.865 L2169.3 509.656 L2165.04 509.656 L2165.04 505.721 Q2163.58 508.082 2161.4 509.216 Q2159.23 510.328 2156.08 510.328 Q2152.1 510.328 2149.73 508.105 Q2147.4 505.86 2147.4 502.11 Q2147.4 497.735 2150.31 495.513 Q2153.25 493.291 2159.06 493.291 L2165.04 493.291 L2165.04 492.874 Q2165.04 489.934 2163.09 488.337 Q2161.17 486.717 2157.67 486.717 Q2155.45 486.717 2153.35 487.249 Q2151.24 487.781 2149.3 488.846 L2149.3 484.911 Q2151.63 484.008 2153.83 483.568 Q2156.03 483.106 2158.11 483.106 Q2163.74 483.106 2166.52 486.022 Q2169.3 488.939 2169.3 494.865 Z" fill="#000000" fill-rule="nonzero" fill-opacity="1" /><path clip-path="url(#clip650)" d="M2196.73 484.726 L2196.73 488.707 Q2194.92 487.712 2193.09 487.226 Q2191.29 486.717 2189.43 486.717 Q2185.29 486.717 2183 489.355 Q2180.71 491.971 2180.71 496.717 Q2180.71 501.462 2183 504.101 Q2185.29 506.716 2189.43 506.716 Q2191.29 506.716 2193.09 506.23 Q2194.92 505.721 2196.73 504.726 L2196.73 508.661 Q2194.94 509.494 2193.02 509.911 Q2191.12 510.328 2188.97 510.328 Q2183.11 510.328 2179.67 506.647 Q2176.22 502.967 2176.22 496.717 Q2176.22 490.374 2179.69 486.74 Q2183.18 483.106 2189.25 483.106 Q2191.22 483.106 2193.09 483.522 Q2194.97 483.916 2196.73 484.726 Z" fill="#000000" fill-rule="nonzero" fill-opacity="1" /><path clip-path="url(#clip650)" d="M2222.79 484.726 L2222.79 488.707 Q2220.98 487.712 2219.16 487.226 Q2217.35 486.717 2215.5 486.717 Q2211.35 486.717 2209.06 489.355 Q2206.77 491.971 2206.77 496.717 Q2206.77 501.462 2209.06 504.101 Q2211.35 506.716 2215.5 506.716 Q2217.35 506.716 2219.16 506.23 Q2220.98 505.721 2222.79 504.726 L2222.79 508.661 Q2221.01 509.494 2219.09 509.911 Q2217.19 510.328 2215.04 510.328 Q2209.18 510.328 2205.73 506.647 Q2202.28 502.967 2202.28 496.717 Q2202.28 490.374 2205.75 486.74 Q2209.25 483.106 2215.31 483.106 Q2217.28 483.106 2219.16 483.522 Q2221.03 483.916 2222.79 484.726 Z" fill="#000000" fill-rule="nonzero" fill-opacity="1" /><path clip-path="url(#clip650)" d="M2230.2 483.731 L2234.46 483.731 L2234.46 509.656 L2230.2 509.656 L2230.2 483.731 M2230.2 473.638 L2234.46 473.638 L2234.46 479.031 L2230.2 479.031 L2230.2 473.638 Z" fill="#000000" fill-rule="nonzero" fill-opacity="1" /><path clip-path="url(#clip650)" d="M2264.92 494.008 L2264.92 509.656 L2260.66 509.656 L2260.66 494.147 Q2260.66 490.467 2259.23 488.638 Q2257.79 486.809 2254.92 486.809 Q2251.47 486.809 2249.48 489.008 Q2247.49 491.207 2247.49 495.004 L2247.49 509.656 L2243.21 509.656 L2243.21 483.731 L2247.49 483.731 L2247.49 487.758 Q2249.02 485.42 2251.08 484.263 Q2253.16 483.106 2255.87 483.106 Q2260.34 483.106 2262.63 485.883 Q2264.92 488.638 2264.92 494.008 Z" fill="#000000" fill-rule="nonzero" fill-opacity="1" /><path clip-path="url(#clip650)" d="M2285.2 496.624 Q2280.04 496.624 2278.04 497.804 Q2276.05 498.985 2276.05 501.832 Q2276.05 504.101 2277.54 505.443 Q2279.04 506.763 2281.61 506.763 Q2285.15 506.763 2287.28 504.263 Q2289.43 501.74 2289.43 497.573 L2289.43 496.624 L2285.2 496.624 M2293.69 494.865 L2293.69 509.656 L2289.43 509.656 L2289.43 505.721 Q2287.97 508.082 2285.8 509.216 Q2283.62 510.328 2280.47 510.328 Q2276.49 510.328 2274.13 508.105 Q2271.79 505.86 2271.79 502.11 Q2271.79 497.735 2274.71 495.513 Q2277.65 493.291 2283.46 493.291 L2289.43 493.291 L2289.43 492.874 Q2289.43 489.934 2287.49 488.337 Q2285.57 486.717 2282.07 486.717 Q2279.85 486.717 2277.74 487.249 Q2275.64 487.781 2273.69 488.846 L2273.69 484.911 Q2276.03 484.008 2278.23 483.568 Q2280.43 483.106 2282.51 483.106 Q2288.14 483.106 2290.91 486.022 Q2293.69 488.939 2293.69 494.865 Z" fill="#000000" fill-rule="nonzero" fill-opacity="1" /><path clip-path="url(#clip650)" d="M2306.68 476.369 L2306.68 483.731 L2315.45 483.731 L2315.45 487.041 L2306.68 487.041 L2306.68 501.115 Q2306.68 504.286 2307.54 505.189 Q2308.41 506.091 2311.08 506.091 L2315.45 506.091 L2315.45 509.656 L2311.08 509.656 Q2306.15 509.656 2304.27 507.828 Q2302.4 505.976 2302.4 501.115 L2302.4 487.041 L2299.27 487.041 L2299.27 483.731 L2302.4 483.731 L2302.4 476.369 L2306.68 476.369 Z" fill="#000000" fill-rule="nonzero" fill-opacity="1" /><path clip-path="url(#clip650)" d="M2321.05 483.731 L2325.31 483.731 L2325.31 509.656 L2321.05 509.656 L2321.05 483.731 M2321.05 473.638 L2325.31 473.638 L2325.31 479.031 L2321.05 479.031 L2321.05 473.638 Z" fill="#000000" fill-rule="nonzero" fill-opacity="1" /><path clip-path="url(#clip650)" d="M2344.27 486.717 Q2340.85 486.717 2338.85 489.402 Q2336.86 492.064 2336.86 496.717 Q2336.86 501.369 2338.83 504.054 Q2340.82 506.716 2344.27 506.716 Q2347.67 506.716 2349.66 504.031 Q2351.66 501.346 2351.66 496.717 Q2351.66 492.11 2349.66 489.425 Q2347.67 486.717 2344.27 486.717 M2344.27 483.106 Q2349.83 483.106 2353 486.717 Q2356.17 490.328 2356.17 496.717 Q2356.17 503.082 2353 506.716 Q2349.83 510.328 2344.27 510.328 Q2338.69 510.328 2335.52 506.716 Q2332.37 503.082 2332.37 496.717 Q2332.37 490.328 2335.52 486.717 Q2338.69 483.106 2344.27 483.106 Z" fill="#000000" fill-rule="nonzero" fill-opacity="1" /><path clip-path="url(#clip650)" d="M2384.78 494.008 L2384.78 509.656 L2380.52 509.656 L2380.52 494.147 Q2380.52 490.467 2379.09 488.638 Q2377.65 486.809 2374.78 486.809 Q2371.33 486.809 2369.34 489.008 Q2367.35 491.207 2367.35 495.004 L2367.35 509.656 L2363.07 509.656 L2363.07 483.731 L2367.35 483.731 L2367.35 487.758 Q2368.88 485.42 2370.94 484.263 Q2373.02 483.106 2375.73 483.106 Q2380.2 483.106 2382.49 485.883 Q2384.78 488.638 2384.78 494.008 Z" fill="#000000" fill-rule="nonzero" fill-opacity="1" /><path clip-path="url(#clip650)" d="M2424.87 484.494 L2424.87 488.522 Q2423.07 487.596 2421.12 487.133 Q2419.18 486.67 2417.09 486.67 Q2413.92 486.67 2412.33 487.643 Q2410.75 488.615 2410.75 490.559 Q2410.75 492.041 2411.89 492.897 Q2413.02 493.73 2416.45 494.494 L2417.9 494.818 Q2422.44 495.791 2424.34 497.573 Q2426.26 499.332 2426.26 502.504 Q2426.26 506.115 2423.39 508.221 Q2420.54 510.328 2415.54 510.328 Q2413.46 510.328 2411.19 509.911 Q2408.95 509.517 2406.45 508.707 L2406.45 504.309 Q2408.81 505.536 2411.1 506.161 Q2413.39 506.763 2415.64 506.763 Q2418.65 506.763 2420.27 505.744 Q2421.89 504.703 2421.89 502.828 Q2421.89 501.092 2420.71 500.166 Q2419.55 499.24 2415.59 498.383 L2414.11 498.036 Q2410.15 497.203 2408.39 495.49 Q2406.63 493.754 2406.63 490.744 Q2406.63 487.087 2409.22 485.096 Q2411.82 483.106 2416.59 483.106 Q2418.95 483.106 2421.03 483.453 Q2423.11 483.8 2424.87 484.494 Z" fill="#000000" fill-rule="nonzero" fill-opacity="1" /><path clip-path="url(#clip650)" d="M2437.26 476.369 L2437.26 483.731 L2446.03 483.731 L2446.03 487.041 L2437.26 487.041 L2437.26 501.115 Q2437.26 504.286 2438.11 505.189 Q2438.99 506.091 2441.65 506.091 L2446.03 506.091 L2446.03 509.656 L2441.65 509.656 Q2436.72 509.656 2434.85 507.828 Q2432.97 505.976 2432.97 501.115 L2432.97 487.041 L2429.85 487.041 L2429.85 483.731 L2432.97 483.731 L2432.97 476.369 L2437.26 476.369 Z" fill="#000000" fill-rule="nonzero" fill-opacity="1" /><path clip-path="url(#clip650)" d="M2463.41 496.624 Q2458.25 496.624 2456.26 497.804 Q2454.27 498.985 2454.27 501.832 Q2454.27 504.101 2455.75 505.443 Q2457.26 506.763 2459.83 506.763 Q2463.37 506.763 2465.5 504.263 Q2467.65 501.74 2467.65 497.573 L2467.65 496.624 L2463.41 496.624 M2471.91 494.865 L2471.91 509.656 L2467.65 509.656 L2467.65 505.721 Q2466.19 508.082 2464.02 509.216 Q2461.84 510.328 2458.69 510.328 Q2454.71 510.328 2452.35 508.105 Q2450.01 505.86 2450.01 502.11 Q2450.01 497.735 2452.93 495.513 Q2455.87 493.291 2461.68 493.291 L2467.65 493.291 L2467.65 492.874 Q2467.65 489.934 2465.71 488.337 Q2463.78 486.717 2460.29 486.717 Q2458.07 486.717 2455.96 487.249 Q2453.85 487.781 2451.91 488.846 L2451.91 484.911 Q2454.25 484.008 2456.45 483.568 Q2458.65 483.106 2460.73 483.106 Q2466.35 483.106 2469.13 486.022 Q2471.91 488.939 2471.91 494.865 Z" fill="#000000" fill-rule="nonzero" fill-opacity="1" /><path clip-path="url(#clip650)" d="M2495.71 487.712 Q2494.99 487.295 2494.13 487.11 Q2493.3 486.902 2492.28 486.902 Q2488.67 486.902 2486.72 489.263 Q2484.8 491.601 2484.8 495.999 L2484.8 509.656 L2480.52 509.656 L2480.52 483.731 L2484.8 483.731 L2484.8 487.758 Q2486.15 485.397 2488.3 484.263 Q2490.45 483.106 2493.53 483.106 Q2493.97 483.106 2494.5 483.175 Q2495.03 483.221 2495.68 483.337 L2495.71 487.712 Z" fill="#000000" fill-rule="nonzero" fill-opacity="1" /><path clip-path="url(#clip650)" d="M2504.39 476.369 L2504.39 483.731 L2513.16 483.731 L2513.16 487.041 L2504.39 487.041 L2504.39 501.115 Q2504.39 504.286 2505.24 505.189 Q2506.12 506.091 2508.78 506.091 L2513.16 506.091 L2513.16 509.656 L2508.78 509.656 Q2503.85 509.656 2501.98 507.828 Q2500.1 505.976 2500.1 501.115 L2500.1 487.041 L2496.98 487.041 L2496.98 483.731 L2500.1 483.731 L2500.1 476.369 L2504.39 476.369 Z" fill="#000000" fill-rule="nonzero" fill-opacity="1" /><path clip-path="url(#clip650)" d="M2535.29 484.494 L2535.29 488.522 Q2533.48 487.596 2531.54 487.133 Q2529.59 486.67 2527.51 486.67 Q2524.34 486.67 2522.74 487.643 Q2521.17 488.615 2521.17 490.559 Q2521.17 492.041 2522.3 492.897 Q2523.44 493.73 2526.86 494.494 L2528.32 494.818 Q2532.86 495.791 2534.76 497.573 Q2536.68 499.332 2536.68 502.504 Q2536.68 506.115 2533.81 508.221 Q2530.96 510.328 2525.96 510.328 Q2523.88 510.328 2521.61 509.911 Q2519.36 509.517 2516.86 508.707 L2516.86 504.309 Q2519.22 505.536 2521.52 506.161 Q2523.81 506.763 2526.05 506.763 Q2529.06 506.763 2530.68 505.744 Q2532.3 504.703 2532.3 502.828 Q2532.3 501.092 2531.12 500.166 Q2529.96 499.24 2526.01 498.383 L2524.52 498.036 Q2520.57 497.203 2518.81 495.49 Q2517.05 493.754 2517.05 490.744 Q2517.05 487.087 2519.64 485.096 Q2522.23 483.106 2527 483.106 Q2529.36 483.106 2531.45 483.453 Q2533.53 483.8 2535.29 484.494 Z" fill="#000000" fill-rule="nonzero" fill-opacity="1" /></svg>
