<?xml version="1.0" encoding="utf-8"?>
<svg xmlns="http://www.w3.org/2000/svg" xmlns:xlink="http://www.w3.org/1999/xlink" width="672" height="480" viewBox="0 0 2688 1920">
<defs>
  <clipPath id="clip790">
    <rect x="0" y="0" width="2688" height="1920"/>
  </clipPath>
</defs>
<path clip-path="url(#clip790)" d="M0 1920 L2688 1920 L2688 -4.26326e-14 L0 -4.26326e-14  Z" fill="#ffffff" fill-rule="evenodd" fill-opacity="1"/>
<defs>
  <clipPath id="clip791">
    <rect x="268" y="127" width="2373" height="1607"/>
  </clipPath>
</defs>
<path clip-path="url(#clip790)" d="M268.826 1734.12 L2640.76 1734.12 L2640.76 127.792 L268.826 127.792  Z" fill="#ffffff" fill-rule="evenodd" fill-opacity="1"/>
<polyline clip-path="url(#clip791)" style="stroke:#000000; stroke-linecap:round; stroke-linejoin:round; stroke-width:2; stroke-opacity:0.1; fill:none" points="335.956,1734.12 335.956,127.792 "/>
<polyline clip-path="url(#clip791)" style="stroke:#000000; stroke-linecap:round; stroke-linejoin:round; stroke-width:2; stroke-opacity:0.1; fill:none" points="895.373,1734.12 895.373,127.792 "/>
<polyline clip-path="url(#clip791)" style="stroke:#000000; stroke-linecap:round; stroke-linejoin:round; stroke-width:2; stroke-opacity:0.1; fill:none" points="1454.79,1734.12 1454.79,127.792 "/>
<polyline clip-path="url(#clip791)" style="stroke:#000000; stroke-linecap:round; stroke-linejoin:round; stroke-width:2; stroke-opacity:0.1; fill:none" points="2014.21,1734.12 2014.21,127.792 "/>
<polyline clip-path="url(#clip791)" style="stroke:#000000; stroke-linecap:round; stroke-linejoin:round; stroke-width:2; stroke-opacity:0.1; fill:none" points="2573.63,1734.12 2573.63,127.792 "/>
<polyline clip-path="url(#clip791)" style="stroke:#000000; stroke-linecap:round; stroke-linejoin:round; stroke-width:2; stroke-opacity:0.1; fill:none" points="268.826,1688.65 2640.76,1688.65 "/>
<polyline clip-path="url(#clip791)" style="stroke:#000000; stroke-linecap:round; stroke-linejoin:round; stroke-width:2; stroke-opacity:0.1; fill:none" points="268.826,1307.17 2640.76,1307.17 "/>
<polyline clip-path="url(#clip791)" style="stroke:#000000; stroke-linecap:round; stroke-linejoin:round; stroke-width:2; stroke-opacity:0.1; fill:none" points="268.826,925.692 2640.76,925.692 "/>
<polyline clip-path="url(#clip791)" style="stroke:#000000; stroke-linecap:round; stroke-linejoin:round; stroke-width:2; stroke-opacity:0.1; fill:none" points="268.826,544.211 2640.76,544.211 "/>
<polyline clip-path="url(#clip791)" style="stroke:#000000; stroke-linecap:round; stroke-linejoin:round; stroke-width:2; stroke-opacity:0.1; fill:none" points="268.826,162.729 2640.76,162.729 "/>
<polyline clip-path="url(#clip790)" style="stroke:#000000; stroke-linecap:round; stroke-linejoin:round; stroke-width:4; stroke-opacity:1; fill:none" points="268.826,1734.12 2640.76,1734.12 "/>
<polyline clip-path="url(#clip790)" style="stroke:#000000; stroke-linecap:round; stroke-linejoin:round; stroke-width:4; stroke-opacity:1; fill:none" points="335.956,1734.12 335.956,1715.22 "/>
<polyline clip-path="url(#clip790)" style="stroke:#000000; stroke-linecap:round; stroke-linejoin:round; stroke-width:4; stroke-opacity:1; fill:none" points="895.373,1734.12 895.373,1715.22 "/>
<polyline clip-path="url(#clip790)" style="stroke:#000000; stroke-linecap:round; stroke-linejoin:round; stroke-width:4; stroke-opacity:1; fill:none" points="1454.79,1734.12 1454.79,1715.22 "/>
<polyline clip-path="url(#clip790)" style="stroke:#000000; stroke-linecap:round; stroke-linejoin:round; stroke-width:4; stroke-opacity:1; fill:none" points="2014.21,1734.12 2014.21,1715.22 "/>
<polyline clip-path="url(#clip790)" style="stroke:#000000; stroke-linecap:round; stroke-linejoin:round; stroke-width:4; stroke-opacity:1; fill:none" points="2573.63,1734.12 2573.63,1715.22 "/>
<path clip-path="url(#clip790)" d="M335.956 1767.34 Q332.345 1767.34 330.516 1770.9 Q328.71 1774.45 328.71 1781.58 Q328.71 1788.68 330.516 1792.25 Q332.345 1795.79 335.956 1795.79 Q339.59 1795.79 341.395 1792.25 Q343.224 1788.68 343.224 1781.58 Q343.224 1774.45 341.395 1770.9 Q339.59 1767.34 335.956 1767.34 M335.956 1763.64 Q341.766 1763.64 344.821 1768.24 Q347.9 1772.83 347.9 1781.58 Q347.9 1790.3 344.821 1794.91 Q341.766 1799.49 335.956 1799.49 Q330.145 1799.49 327.067 1794.91 Q324.011 1790.3 324.011 1781.58 Q324.011 1772.83 327.067 1768.24 Q330.145 1763.64 335.956 1763.64 Z" fill="#000000" fill-rule="nonzero" fill-opacity="1" /><path clip-path="url(#clip790)" d="M870.072 1764.26 L888.429 1764.26 L888.429 1768.2 L874.355 1768.2 L874.355 1776.67 Q875.373 1776.32 876.392 1776.16 Q877.41 1775.97 878.429 1775.97 Q884.216 1775.97 887.595 1779.15 Q890.975 1782.32 890.975 1787.73 Q890.975 1793.31 887.503 1796.41 Q884.031 1799.49 877.711 1799.49 Q875.535 1799.49 873.267 1799.12 Q871.021 1798.75 868.614 1798.01 L868.614 1793.31 Q870.697 1794.45 872.92 1795 Q875.142 1795.56 877.619 1795.56 Q881.623 1795.56 883.961 1793.45 Q886.299 1791.34 886.299 1787.73 Q886.299 1784.12 883.961 1782.02 Q881.623 1779.91 877.619 1779.91 Q875.744 1779.91 873.869 1780.33 Q872.017 1780.74 870.072 1781.62 L870.072 1764.26 Z" fill="#000000" fill-rule="nonzero" fill-opacity="1" /><path clip-path="url(#clip790)" d="M910.188 1767.34 Q906.577 1767.34 904.748 1770.9 Q902.943 1774.45 902.943 1781.58 Q902.943 1788.68 904.748 1792.25 Q906.577 1795.79 910.188 1795.79 Q913.822 1795.79 915.628 1792.25 Q917.456 1788.68 917.456 1781.58 Q917.456 1774.45 915.628 1770.9 Q913.822 1767.34 910.188 1767.34 M910.188 1763.64 Q915.998 1763.64 919.054 1768.24 Q922.132 1772.83 922.132 1781.58 Q922.132 1790.3 919.054 1794.91 Q915.998 1799.49 910.188 1799.49 Q904.378 1799.49 901.299 1794.91 Q898.244 1790.3 898.244 1781.58 Q898.244 1772.83 901.299 1768.24 Q904.378 1763.64 910.188 1763.64 Z" fill="#000000" fill-rule="nonzero" fill-opacity="1" /><path clip-path="url(#clip790)" d="M1414.4 1794.89 L1422.04 1794.89 L1422.04 1768.52 L1413.73 1770.19 L1413.73 1765.93 L1421.99 1764.26 L1426.67 1764.26 L1426.67 1794.89 L1434.3 1794.89 L1434.3 1798.82 L1414.4 1798.82 L1414.4 1794.89 Z" fill="#000000" fill-rule="nonzero" fill-opacity="1" /><path clip-path="url(#clip790)" d="M1453.75 1767.34 Q1450.14 1767.34 1448.31 1770.9 Q1446.5 1774.45 1446.5 1781.58 Q1446.5 1788.68 1448.31 1792.25 Q1450.14 1795.79 1453.75 1795.79 Q1457.38 1795.79 1459.19 1792.25 Q1461.02 1788.68 1461.02 1781.58 Q1461.02 1774.45 1459.19 1770.9 Q1457.38 1767.34 1453.75 1767.34 M1453.75 1763.64 Q1459.56 1763.64 1462.61 1768.24 Q1465.69 1772.83 1465.69 1781.58 Q1465.69 1790.3 1462.61 1794.91 Q1459.56 1799.49 1453.75 1799.49 Q1447.94 1799.49 1444.86 1794.91 Q1441.8 1790.3 1441.8 1781.58 Q1441.8 1772.83 1444.86 1768.24 Q1447.94 1763.64 1453.75 1763.64 Z" fill="#000000" fill-rule="nonzero" fill-opacity="1" /><path clip-path="url(#clip790)" d="M1483.91 1767.34 Q1480.3 1767.34 1478.47 1770.9 Q1476.67 1774.45 1476.67 1781.58 Q1476.67 1788.68 1478.47 1792.25 Q1480.3 1795.79 1483.91 1795.79 Q1487.55 1795.79 1489.35 1792.25 Q1491.18 1788.68 1491.18 1781.58 Q1491.18 1774.45 1489.35 1770.9 Q1487.55 1767.34 1483.91 1767.34 M1483.91 1763.64 Q1489.72 1763.64 1492.78 1768.24 Q1495.86 1772.83 1495.86 1781.58 Q1495.86 1790.3 1492.78 1794.91 Q1489.72 1799.49 1483.91 1799.49 Q1478.1 1799.49 1475.02 1794.91 Q1471.97 1790.3 1471.97 1781.58 Q1471.97 1772.83 1475.02 1768.24 Q1478.1 1763.64 1483.91 1763.64 Z" fill="#000000" fill-rule="nonzero" fill-opacity="1" /><path clip-path="url(#clip790)" d="M1973.81 1794.89 L1981.45 1794.89 L1981.45 1768.52 L1973.14 1770.19 L1973.14 1765.93 L1981.41 1764.26 L1986.08 1764.26 L1986.08 1794.89 L1993.72 1794.89 L1993.72 1798.82 L1973.81 1798.82 L1973.81 1794.89 Z" fill="#000000" fill-rule="nonzero" fill-opacity="1" /><path clip-path="url(#clip790)" d="M2003.21 1764.26 L2021.57 1764.26 L2021.57 1768.2 L2007.5 1768.2 L2007.5 1776.67 Q2008.51 1776.32 2009.53 1776.16 Q2010.55 1775.97 2011.57 1775.97 Q2017.36 1775.97 2020.74 1779.15 Q2024.12 1782.32 2024.12 1787.73 Q2024.12 1793.31 2020.64 1796.41 Q2017.17 1799.49 2010.85 1799.49 Q2008.68 1799.49 2006.41 1799.12 Q2004.16 1798.75 2001.75 1798.01 L2001.75 1793.31 Q2003.84 1794.45 2006.06 1795 Q2008.28 1795.56 2010.76 1795.56 Q2014.76 1795.56 2017.1 1793.45 Q2019.44 1791.34 2019.44 1787.73 Q2019.44 1784.12 2017.1 1782.02 Q2014.76 1779.91 2010.76 1779.91 Q2008.88 1779.91 2007.01 1780.33 Q2005.16 1780.74 2003.21 1781.62 L2003.21 1764.26 Z" fill="#000000" fill-rule="nonzero" fill-opacity="1" /><path clip-path="url(#clip790)" d="M2043.33 1767.34 Q2039.72 1767.34 2037.89 1770.9 Q2036.08 1774.45 2036.08 1781.58 Q2036.08 1788.68 2037.89 1792.25 Q2039.72 1795.79 2043.33 1795.79 Q2046.96 1795.79 2048.77 1792.25 Q2050.6 1788.68 2050.6 1781.58 Q2050.6 1774.45 2048.77 1770.9 Q2046.96 1767.34 2043.33 1767.34 M2043.33 1763.64 Q2049.14 1763.64 2052.19 1768.24 Q2055.27 1772.83 2055.27 1781.58 Q2055.27 1790.3 2052.19 1794.91 Q2049.14 1799.49 2043.33 1799.49 Q2037.52 1799.49 2034.44 1794.91 Q2031.38 1790.3 2031.38 1781.58 Q2031.38 1772.83 2034.44 1768.24 Q2037.52 1763.64 2043.33 1763.64 Z" fill="#000000" fill-rule="nonzero" fill-opacity="1" /><path clip-path="url(#clip790)" d="M2537.32 1794.89 L2553.64 1794.89 L2553.64 1798.82 L2531.69 1798.82 L2531.69 1794.89 Q2534.36 1792.13 2538.94 1787.5 Q2543.54 1782.85 2544.73 1781.51 Q2546.97 1778.98 2547.85 1777.25 Q2548.75 1775.49 2548.75 1773.8 Q2548.75 1771.04 2546.81 1769.31 Q2544.89 1767.57 2541.79 1767.57 Q2539.59 1767.57 2537.13 1768.34 Q2534.7 1769.1 2531.92 1770.65 L2531.92 1765.93 Q2534.75 1764.79 2537.2 1764.21 Q2539.66 1763.64 2541.69 1763.64 Q2547.06 1763.64 2550.26 1766.32 Q2553.45 1769.01 2553.45 1773.5 Q2553.45 1775.63 2552.64 1777.55 Q2551.86 1779.45 2549.75 1782.04 Q2549.17 1782.71 2546.07 1785.93 Q2542.97 1789.12 2537.32 1794.89 Z" fill="#000000" fill-rule="nonzero" fill-opacity="1" /><path clip-path="url(#clip790)" d="M2573.45 1767.34 Q2569.84 1767.34 2568.01 1770.9 Q2566.21 1774.45 2566.21 1781.58 Q2566.21 1788.68 2568.01 1792.25 Q2569.84 1795.79 2573.45 1795.79 Q2577.09 1795.79 2578.89 1792.25 Q2580.72 1788.68 2580.72 1781.58 Q2580.72 1774.45 2578.89 1770.9 Q2577.09 1767.34 2573.45 1767.34 M2573.45 1763.64 Q2579.26 1763.64 2582.32 1768.24 Q2585.4 1772.83 2585.4 1781.58 Q2585.4 1790.3 2582.32 1794.91 Q2579.26 1799.49 2573.45 1799.49 Q2567.64 1799.49 2564.56 1794.91 Q2561.51 1790.3 2561.51 1781.58 Q2561.51 1772.83 2564.56 1768.24 Q2567.64 1763.64 2573.45 1763.64 Z" fill="#000000" fill-rule="nonzero" fill-opacity="1" /><path clip-path="url(#clip790)" d="M2603.61 1767.34 Q2600 1767.34 2598.17 1770.9 Q2596.37 1774.45 2596.37 1781.58 Q2596.37 1788.68 2598.17 1792.25 Q2600 1795.79 2603.61 1795.79 Q2607.25 1795.79 2609.05 1792.25 Q2610.88 1788.68 2610.88 1781.58 Q2610.88 1774.45 2609.05 1770.9 Q2607.25 1767.34 2603.61 1767.34 M2603.61 1763.64 Q2609.42 1763.64 2612.48 1768.24 Q2615.56 1772.83 2615.56 1781.58 Q2615.56 1790.3 2612.48 1794.91 Q2609.42 1799.49 2603.61 1799.49 Q2597.8 1799.49 2594.73 1794.91 Q2591.67 1790.3 2591.67 1781.58 Q2591.67 1772.83 2594.73 1768.24 Q2597.8 1763.64 2603.61 1763.64 Z" fill="#000000" fill-rule="nonzero" fill-opacity="1" /><path clip-path="url(#clip790)" d="M1376.67 1835.78 L1416.87 1835.78 L1416.87 1841.19 L1400 1841.19 L1400 1883.3 L1393.54 1883.3 L1393.54 1841.19 L1376.67 1841.19 L1376.67 1835.78 Z" fill="#000000" fill-rule="nonzero" fill-opacity="1" /><path clip-path="url(#clip790)" d="M1420.81 1847.65 L1426.67 1847.65 L1426.67 1883.3 L1420.81 1883.3 L1420.81 1847.65 M1420.81 1833.78 L1426.67 1833.78 L1426.67 1841.19 L1420.81 1841.19 L1420.81 1833.78 Z" fill="#000000" fill-rule="nonzero" fill-opacity="1" /><path clip-path="url(#clip790)" d="M1466.68 1854.5 Q1468.87 1850.55 1471.93 1848.67 Q1474.99 1846.79 1479.12 1846.79 Q1484.69 1846.79 1487.72 1850.71 Q1490.74 1854.59 1490.74 1861.78 L1490.74 1883.3 L1484.85 1883.3 L1484.85 1861.98 Q1484.85 1856.85 1483.04 1854.37 Q1481.22 1851.89 1477.5 1851.89 Q1472.95 1851.89 1470.31 1854.91 Q1467.67 1857.93 1467.67 1863.15 L1467.67 1883.3 L1461.78 1883.3 L1461.78 1861.98 Q1461.78 1856.82 1459.96 1854.37 Q1458.15 1851.89 1454.36 1851.89 Q1449.87 1851.89 1447.23 1854.94 Q1444.59 1857.97 1444.59 1863.15 L1444.59 1883.3 L1438.7 1883.3 L1438.7 1847.65 L1444.59 1847.65 L1444.59 1853.19 Q1446.59 1849.91 1449.4 1848.35 Q1452.2 1846.79 1456.05 1846.79 Q1459.93 1846.79 1462.64 1848.77 Q1465.37 1850.74 1466.68 1854.5 Z" fill="#000000" fill-rule="nonzero" fill-opacity="1" /><path clip-path="url(#clip790)" d="M1532.91 1864.01 L1532.91 1866.88 L1505.99 1866.88 Q1506.37 1872.92 1509.62 1876.11 Q1512.89 1879.26 1518.72 1879.26 Q1522.09 1879.26 1525.24 1878.43 Q1528.43 1877.6 1531.55 1875.95 L1531.55 1881.49 Q1528.39 1882.82 1525.08 1883.52 Q1521.77 1884.22 1518.37 1884.22 Q1509.84 1884.22 1504.84 1879.26 Q1499.88 1874.29 1499.88 1865.83 Q1499.88 1857.07 1504.59 1851.95 Q1509.33 1846.79 1517.35 1846.79 Q1524.54 1846.79 1528.71 1851.44 Q1532.91 1856.06 1532.91 1864.01 M1527.06 1862.29 Q1526.99 1857.49 1524.35 1854.62 Q1521.74 1851.76 1517.41 1851.76 Q1512.51 1851.76 1509.55 1854.53 Q1506.62 1857.3 1506.18 1862.33 L1527.06 1862.29 Z" fill="#000000" fill-rule="nonzero" fill-opacity="1" /><polyline clip-path="url(#clip790)" style="stroke:#000000; stroke-linecap:round; stroke-linejoin:round; stroke-width:4; stroke-opacity:1; fill:none" points="268.826,1734.12 268.826,127.792 "/>
<polyline clip-path="url(#clip790)" style="stroke:#000000; stroke-linecap:round; stroke-linejoin:round; stroke-width:4; stroke-opacity:1; fill:none" points="268.826,1688.65 287.723,1688.65 "/>
<polyline clip-path="url(#clip790)" style="stroke:#000000; stroke-linecap:round; stroke-linejoin:round; stroke-width:4; stroke-opacity:1; fill:none" points="268.826,1307.17 287.723,1307.17 "/>
<polyline clip-path="url(#clip790)" style="stroke:#000000; stroke-linecap:round; stroke-linejoin:round; stroke-width:4; stroke-opacity:1; fill:none" points="268.826,925.692 287.723,925.692 "/>
<polyline clip-path="url(#clip790)" style="stroke:#000000; stroke-linecap:round; stroke-linejoin:round; stroke-width:4; stroke-opacity:1; fill:none" points="268.826,544.211 287.723,544.211 "/>
<polyline clip-path="url(#clip790)" style="stroke:#000000; stroke-linecap:round; stroke-linejoin:round; stroke-width:4; stroke-opacity:1; fill:none" points="268.826,162.729 287.723,162.729 "/>
<path clip-path="url(#clip790)" d="M216.561 1674.45 Q212.95 1674.45 211.121 1678.02 Q209.316 1681.56 209.316 1688.69 Q209.316 1695.8 211.121 1699.36 Q212.95 1702.9 216.561 1702.9 Q220.195 1702.9 222.001 1699.36 Q223.83 1695.8 223.83 1688.69 Q223.83 1681.56 222.001 1678.02 Q220.195 1674.45 216.561 1674.45 M216.561 1670.75 Q222.371 1670.75 225.427 1675.36 Q228.506 1679.94 228.506 1688.69 Q228.506 1697.42 225.427 1702.02 Q222.371 1706.61 216.561 1706.61 Q210.751 1706.61 207.672 1702.02 Q204.617 1697.42 204.617 1688.69 Q204.617 1679.94 207.672 1675.36 Q210.751 1670.75 216.561 1670.75 Z" fill="#000000" fill-rule="nonzero" fill-opacity="1" /><path clip-path="url(#clip790)" d="M150.265 1320.52 L166.585 1320.52 L166.585 1324.45 L144.64 1324.45 L144.64 1320.52 Q147.302 1317.76 151.886 1313.13 Q156.492 1308.48 157.673 1307.14 Q159.918 1304.62 160.798 1302.88 Q161.7 1301.12 161.7 1299.43 Q161.7 1296.68 159.756 1294.94 Q157.835 1293.2 154.733 1293.2 Q152.534 1293.2 150.08 1293.97 Q147.649 1294.73 144.872 1296.28 L144.872 1291.56 Q147.696 1290.43 150.149 1289.85 Q152.603 1289.27 154.64 1289.27 Q160.011 1289.27 163.205 1291.95 Q166.399 1294.64 166.399 1299.13 Q166.399 1301.26 165.589 1303.18 Q164.802 1305.08 162.696 1307.67 Q162.117 1308.34 159.015 1311.56 Q155.913 1314.75 150.265 1320.52 Z" fill="#000000" fill-rule="nonzero" fill-opacity="1" /><path clip-path="url(#clip790)" d="M176.446 1289.89 L194.802 1289.89 L194.802 1293.83 L180.728 1293.83 L180.728 1302.3 Q181.746 1301.95 182.765 1301.79 Q183.784 1301.61 184.802 1301.61 Q190.589 1301.61 193.969 1304.78 Q197.348 1307.95 197.348 1313.37 Q197.348 1318.94 193.876 1322.05 Q190.404 1325.12 184.084 1325.12 Q181.909 1325.12 179.64 1324.75 Q177.395 1324.38 174.987 1323.64 L174.987 1318.94 Q177.071 1320.08 179.293 1320.63 Q181.515 1321.19 183.992 1321.19 Q187.996 1321.19 190.334 1319.08 Q192.672 1316.98 192.672 1313.37 Q192.672 1309.75 190.334 1307.65 Q187.996 1305.54 183.992 1305.54 Q182.117 1305.54 180.242 1305.96 Q178.39 1306.37 176.446 1307.25 L176.446 1289.89 Z" fill="#000000" fill-rule="nonzero" fill-opacity="1" /><path clip-path="url(#clip790)" d="M216.561 1292.97 Q212.95 1292.97 211.121 1296.54 Q209.316 1300.08 209.316 1307.21 Q209.316 1314.31 211.121 1317.88 Q212.95 1321.42 216.561 1321.42 Q220.195 1321.42 222.001 1317.88 Q223.83 1314.31 223.83 1307.21 Q223.83 1300.08 222.001 1296.54 Q220.195 1292.97 216.561 1292.97 M216.561 1289.27 Q222.371 1289.27 225.427 1293.87 Q228.506 1298.46 228.506 1307.21 Q228.506 1315.94 225.427 1320.54 Q222.371 1325.12 216.561 1325.12 Q210.751 1325.12 207.672 1320.54 Q204.617 1315.94 204.617 1307.21 Q204.617 1298.46 207.672 1293.87 Q210.751 1289.27 216.561 1289.27 Z" fill="#000000" fill-rule="nonzero" fill-opacity="1" /><path clip-path="url(#clip790)" d="M146.284 908.412 L164.64 908.412 L164.64 912.347 L150.566 912.347 L150.566 920.819 Q151.585 920.472 152.603 920.31 Q153.622 920.125 154.64 920.125 Q160.427 920.125 163.807 923.296 Q167.186 926.467 167.186 931.884 Q167.186 937.463 163.714 940.565 Q160.242 943.643 153.923 943.643 Q151.747 943.643 149.478 943.273 Q147.233 942.903 144.825 942.162 L144.825 937.463 Q146.909 938.597 149.131 939.153 Q151.353 939.708 153.83 939.708 Q157.835 939.708 160.173 937.602 Q162.51 935.495 162.51 931.884 Q162.51 928.273 160.173 926.167 Q157.835 924.06 153.83 924.06 Q151.955 924.06 150.08 924.477 Q148.228 924.893 146.284 925.773 L146.284 908.412 Z" fill="#000000" fill-rule="nonzero" fill-opacity="1" /><path clip-path="url(#clip790)" d="M186.399 911.491 Q182.788 911.491 180.959 915.056 Q179.154 918.597 179.154 925.727 Q179.154 932.833 180.959 936.398 Q182.788 939.94 186.399 939.94 Q190.033 939.94 191.839 936.398 Q193.668 932.833 193.668 925.727 Q193.668 918.597 191.839 915.056 Q190.033 911.491 186.399 911.491 M186.399 907.787 Q192.209 907.787 195.265 912.393 Q198.344 916.977 198.344 925.727 Q198.344 934.454 195.265 939.06 Q192.209 943.643 186.399 943.643 Q180.589 943.643 177.51 939.06 Q174.455 934.454 174.455 925.727 Q174.455 916.977 177.51 912.393 Q180.589 907.787 186.399 907.787 Z" fill="#000000" fill-rule="nonzero" fill-opacity="1" /><path clip-path="url(#clip790)" d="M216.561 911.491 Q212.95 911.491 211.121 915.056 Q209.316 918.597 209.316 925.727 Q209.316 932.833 211.121 936.398 Q212.95 939.94 216.561 939.94 Q220.195 939.94 222.001 936.398 Q223.83 932.833 223.83 925.727 Q223.83 918.597 222.001 915.056 Q220.195 911.491 216.561 911.491 M216.561 907.787 Q222.371 907.787 225.427 912.393 Q228.506 916.977 228.506 925.727 Q228.506 934.454 225.427 939.06 Q222.371 943.643 216.561 943.643 Q210.751 943.643 207.672 939.06 Q204.617 934.454 204.617 925.727 Q204.617 916.977 207.672 912.393 Q210.751 907.787 216.561 907.787 Z" fill="#000000" fill-rule="nonzero" fill-opacity="1" /><path clip-path="url(#clip790)" d="M145.057 526.931 L167.279 526.931 L167.279 528.921 L154.733 561.491 L149.849 561.491 L161.654 530.866 L145.057 530.866 L145.057 526.931 Z" fill="#000000" fill-rule="nonzero" fill-opacity="1" /><path clip-path="url(#clip790)" d="M176.446 526.931 L194.802 526.931 L194.802 530.866 L180.728 530.866 L180.728 539.338 Q181.746 538.991 182.765 538.829 Q183.784 538.643 184.802 538.643 Q190.589 538.643 193.969 541.815 Q197.348 544.986 197.348 550.403 Q197.348 555.981 193.876 559.083 Q190.404 562.162 184.084 562.162 Q181.909 562.162 179.64 561.791 Q177.395 561.421 174.987 560.68 L174.987 555.981 Q177.071 557.116 179.293 557.671 Q181.515 558.227 183.992 558.227 Q187.996 558.227 190.334 556.12 Q192.672 554.014 192.672 550.403 Q192.672 546.792 190.334 544.685 Q187.996 542.579 183.992 542.579 Q182.117 542.579 180.242 542.995 Q178.39 543.412 176.446 544.292 L176.446 526.931 Z" fill="#000000" fill-rule="nonzero" fill-opacity="1" /><path clip-path="url(#clip790)" d="M216.561 530.009 Q212.95 530.009 211.121 533.574 Q209.316 537.116 209.316 544.245 Q209.316 551.352 211.121 554.917 Q212.95 558.458 216.561 558.458 Q220.195 558.458 222.001 554.917 Q223.83 551.352 223.83 544.245 Q223.83 537.116 222.001 533.574 Q220.195 530.009 216.561 530.009 M216.561 526.306 Q222.371 526.306 225.427 530.912 Q228.506 535.495 228.506 544.245 Q228.506 552.972 225.427 557.579 Q222.371 562.162 216.561 562.162 Q210.751 562.162 207.672 557.579 Q204.617 552.972 204.617 544.245 Q204.617 535.495 207.672 530.912 Q210.751 526.306 216.561 526.306 Z" fill="#000000" fill-rule="nonzero" fill-opacity="1" /><path clip-path="url(#clip790)" d="M116.886 176.074 L124.525 176.074 L124.525 149.708 L116.214 151.375 L116.214 147.116 L124.478 145.449 L129.154 145.449 L129.154 176.074 L136.793 176.074 L136.793 180.009 L116.886 180.009 L116.886 176.074 Z" fill="#000000" fill-rule="nonzero" fill-opacity="1" /><path clip-path="url(#clip790)" d="M156.237 148.528 Q152.626 148.528 150.798 152.093 Q148.992 155.634 148.992 162.764 Q148.992 169.87 150.798 173.435 Q152.626 176.977 156.237 176.977 Q159.872 176.977 161.677 173.435 Q163.506 169.87 163.506 162.764 Q163.506 155.634 161.677 152.093 Q159.872 148.528 156.237 148.528 M156.237 144.824 Q162.048 144.824 165.103 149.431 Q168.182 154.014 168.182 162.764 Q168.182 171.491 165.103 176.097 Q162.048 180.68 156.237 180.68 Q150.427 180.68 147.349 176.097 Q144.293 171.491 144.293 162.764 Q144.293 154.014 147.349 149.431 Q150.427 144.824 156.237 144.824 Z" fill="#000000" fill-rule="nonzero" fill-opacity="1" /><path clip-path="url(#clip790)" d="M186.399 148.528 Q182.788 148.528 180.959 152.093 Q179.154 155.634 179.154 162.764 Q179.154 169.87 180.959 173.435 Q182.788 176.977 186.399 176.977 Q190.033 176.977 191.839 173.435 Q193.668 169.87 193.668 162.764 Q193.668 155.634 191.839 152.093 Q190.033 148.528 186.399 148.528 M186.399 144.824 Q192.209 144.824 195.265 149.431 Q198.344 154.014 198.344 162.764 Q198.344 171.491 195.265 176.097 Q192.209 180.68 186.399 180.68 Q180.589 180.68 177.51 176.097 Q174.455 171.491 174.455 162.764 Q174.455 154.014 177.51 149.431 Q180.589 144.824 186.399 144.824 Z" fill="#000000" fill-rule="nonzero" fill-opacity="1" /><path clip-path="url(#clip790)" d="M216.561 148.528 Q212.95 148.528 211.121 152.093 Q209.316 155.634 209.316 162.764 Q209.316 169.87 211.121 173.435 Q212.95 176.977 216.561 176.977 Q220.195 176.977 222.001 173.435 Q223.83 169.87 223.83 162.764 Q223.83 155.634 222.001 152.093 Q220.195 148.528 216.561 148.528 M216.561 144.824 Q222.371 144.824 225.427 149.431 Q228.506 154.014 228.506 162.764 Q228.506 171.491 225.427 176.097 Q222.371 180.68 216.561 180.68 Q210.751 180.68 207.672 176.097 Q204.617 171.491 204.617 162.764 Q204.617 154.014 207.672 149.431 Q210.751 144.824 216.561 144.824 Z" fill="#000000" fill-rule="nonzero" fill-opacity="1" /><path clip-path="url(#clip790)" d="M19.402 1089.79 L37.2578 1089.79 L37.2578 1081.71 Q37.2578 1077.22 34.9343 1074.77 Q32.6108 1072.32 28.314 1072.32 Q24.0489 1072.32 21.7255 1074.77 Q19.402 1077.22 19.402 1081.71 L19.402 1089.79 M14.1184 1096.22 L14.1184 1081.71 Q14.1184 1073.72 17.7469 1069.65 Q21.3435 1065.54 28.314 1065.54 Q35.3481 1065.54 38.9447 1069.65 Q42.5413 1073.72 42.5413 1081.71 L42.5413 1089.79 L61.6384 1089.79 L61.6384 1096.22 L14.1184 1096.22 Z" fill="#000000" fill-rule="nonzero" fill-opacity="1" /><path clip-path="url(#clip790)" d="M30.0964 1045.68 Q30.0964 1050.39 33.7885 1053.13 Q37.4488 1055.87 43.8463 1055.87 Q50.2438 1055.87 53.9359 1053.16 Q57.5962 1050.42 57.5962 1045.68 Q57.5962 1041 53.9041 1038.26 Q50.212 1035.53 43.8463 1035.53 Q37.5124 1035.53 33.8203 1038.26 Q30.0964 1041 30.0964 1045.68 M25.1311 1045.68 Q25.1311 1038.04 30.0964 1033.68 Q35.0616 1029.32 43.8463 1029.32 Q52.5991 1029.32 57.5962 1033.68 Q62.5615 1038.04 62.5615 1045.68 Q62.5615 1053.35 57.5962 1057.71 Q52.5991 1062.04 43.8463 1062.04 Q35.0616 1062.04 30.0964 1057.71 Q25.1311 1053.35 25.1311 1045.68 Z" fill="#000000" fill-rule="nonzero" fill-opacity="1" /><path clip-path="url(#clip790)" d="M56.2912 1013.95 L75.1974 1013.95 L75.1974 1019.84 L25.9905 1019.84 L25.9905 1013.95 L31.4013 1013.95 Q28.2185 1012.1 26.6907 1009.3 Q25.1311 1006.47 25.1311 1002.55 Q25.1311 996.06 30.2873 992.018 Q35.4436 987.944 43.8463 987.944 Q52.249 987.944 57.4052 992.018 Q62.5615 996.06 62.5615 1002.55 Q62.5615 1006.47 61.0337 1009.3 Q59.4741 1012.1 56.2912 1013.95 M43.8463 994.023 Q37.3851 994.023 33.7248 996.696 Q30.0327 999.338 30.0327 1003.99 Q30.0327 1008.63 33.7248 1011.31 Q37.3851 1013.95 43.8463 1013.95 Q50.3075 1013.95 53.9996 1011.31 Q57.6599 1008.63 57.6599 1003.99 Q57.6599 999.338 53.9996 996.696 Q50.3075 994.023 43.8463 994.023 Z" fill="#000000" fill-rule="nonzero" fill-opacity="1" /><path clip-path="url(#clip790)" d="M47.5702 978.841 L25.9905 978.841 L25.9905 972.984 L47.3474 972.984 Q52.4082 972.984 54.9545 971.011 Q57.4689 969.037 57.4689 965.091 Q57.4689 960.348 54.4452 957.611 Q51.4215 954.842 46.2016 954.842 L25.9905 954.842 L25.9905 948.985 L61.6384 948.985 L61.6384 954.842 L56.1639 954.842 Q59.4104 956.974 61.0019 959.807 Q62.5615 962.608 62.5615 966.332 Q62.5615 972.475 58.742 975.658 Q54.9226 978.841 47.5702 978.841 M25.1311 964.104 L25.1311 964.104 Z" fill="#000000" fill-rule="nonzero" fill-opacity="1" /><path clip-path="url(#clip790)" d="M12.1132 936.922 L12.1132 931.066 L61.6384 931.066 L61.6384 936.922 L12.1132 936.922 Z" fill="#000000" fill-rule="nonzero" fill-opacity="1" /><path clip-path="url(#clip790)" d="M43.719 902.611 Q43.719 909.709 45.3422 912.446 Q46.9655 915.184 50.8804 915.184 Q53.9996 915.184 55.8457 913.146 Q57.6599 911.078 57.6599 907.545 Q57.6599 902.675 54.2224 899.747 Q50.7531 896.787 45.0239 896.787 L43.719 896.787 L43.719 902.611 M41.3 890.93 L61.6384 890.93 L61.6384 896.787 L56.2276 896.787 Q59.4741 898.792 61.0337 901.784 Q62.5615 904.776 62.5615 909.104 Q62.5615 914.579 59.5059 917.825 Q56.4186 921.04 51.2623 921.04 Q45.2467 921.04 42.1912 917.03 Q39.1357 912.987 39.1357 904.998 L39.1357 896.787 L38.5628 896.787 Q34.5205 896.787 32.3244 899.46 Q30.0964 902.102 30.0964 906.908 Q30.0964 909.964 30.8284 912.86 Q31.5605 915.756 33.0246 918.43 L27.6137 918.43 Q26.3724 915.215 25.7677 912.192 Q25.1311 909.168 25.1311 906.303 Q25.1311 898.569 29.1415 894.75 Q33.1519 890.93 41.3 890.93 Z" fill="#000000" fill-rule="nonzero" fill-opacity="1" /><path clip-path="url(#clip790)" d="M15.869 873.074 L25.9905 873.074 L25.9905 861.011 L30.542 861.011 L30.542 873.074 L49.8937 873.074 Q54.2542 873.074 55.4955 871.897 Q56.7368 870.687 56.7368 867.027 L56.7368 861.011 L61.6384 861.011 L61.6384 867.027 Q61.6384 873.806 59.124 876.385 Q56.5777 878.963 49.8937 878.963 L30.542 878.963 L30.542 883.259 L25.9905 883.259 L25.9905 878.963 L15.869 878.963 L15.869 873.074 Z" fill="#000000" fill-rule="nonzero" fill-opacity="1" /><path clip-path="url(#clip790)" d="M25.9905 853.309 L25.9905 847.452 L61.6384 847.452 L61.6384 853.309 L25.9905 853.309 M12.1132 853.309 L12.1132 847.452 L19.5293 847.452 L19.5293 853.309 L12.1132 853.309 Z" fill="#000000" fill-rule="nonzero" fill-opacity="1" /><path clip-path="url(#clip790)" d="M30.0964 821.385 Q30.0964 826.095 33.7885 828.833 Q37.4488 831.57 43.8463 831.57 Q50.2438 831.57 53.9359 828.865 Q57.5962 826.127 57.5962 821.385 Q57.5962 816.706 53.9041 813.969 Q50.212 811.232 43.8463 811.232 Q37.5124 811.232 33.8203 813.969 Q30.0964 816.706 30.0964 821.385 M25.1311 821.385 Q25.1311 813.746 30.0964 809.385 Q35.0616 805.025 43.8463 805.025 Q52.5991 805.025 57.5962 809.385 Q62.5615 813.746 62.5615 821.385 Q62.5615 829.056 57.5962 833.416 Q52.5991 837.745 43.8463 837.745 Q35.0616 837.745 30.0964 833.416 Q25.1311 829.056 25.1311 821.385 Z" fill="#000000" fill-rule="nonzero" fill-opacity="1" /><path clip-path="url(#clip790)" d="M40.1224 765.685 L61.6384 765.685 L61.6384 771.541 L40.3133 771.541 Q35.2526 771.541 32.7381 773.515 Q30.2237 775.488 30.2237 779.435 Q30.2237 784.177 33.2474 786.915 Q36.2711 789.652 41.491 789.652 L61.6384 789.652 L61.6384 795.54 L25.9905 795.54 L25.9905 789.652 L31.5287 789.652 Q28.314 787.551 26.7225 784.718 Q25.1311 781.854 25.1311 778.13 Q25.1311 771.987 28.9505 768.836 Q32.7381 765.685 40.1224 765.685 Z" fill="#000000" fill-rule="nonzero" fill-opacity="1" /><path clip-path="url(#clip790)" d="M874.965 14.0809 L874.965 22.0612 Q870.306 19.8332 866.174 18.7395 Q862.042 17.6457 858.194 17.6457 Q851.51 17.6457 847.864 20.2383 Q844.259 22.8309 844.259 27.611 Q844.259 31.6214 846.649 33.6873 Q849.079 35.7128 855.804 36.9686 L860.746 37.9813 Q869.901 39.7232 874.235 44.1387 Q878.61 48.5136 878.61 55.8863 Q878.61 64.6767 872.696 69.2137 Q866.822 73.7508 855.439 73.7508 Q851.145 73.7508 846.284 72.7785 Q841.464 71.8063 836.278 69.9024 L836.278 61.4765 Q841.261 64.2716 846.041 65.6895 Q850.821 67.1073 855.439 67.1073 Q862.447 67.1073 866.255 64.3527 Q870.063 61.598 870.063 56.4939 Q870.063 52.0379 867.308 49.5264 Q864.594 47.0148 858.356 45.759 L853.373 44.7868 Q844.218 42.9639 840.127 39.075 Q836.035 35.1862 836.035 28.2591 Q836.035 20.2383 841.666 15.6203 Q847.337 11.0023 857.262 11.0023 Q861.516 11.0023 865.931 11.7719 Q870.347 12.5416 874.965 14.0809 Z" fill="#000000" fill-rule="nonzero" fill-opacity="1" /><path clip-path="url(#clip790)" d="M891.371 12.096 L929.611 12.096 L929.611 18.9825 L899.554 18.9825 L899.554 36.8875 L928.355 36.8875 L928.355 43.7741 L899.554 43.7741 L899.554 65.6895 L930.34 65.6895 L930.34 72.576 L891.371 72.576 L891.371 12.096 Z" fill="#000000" fill-rule="nonzero" fill-opacity="1" /><path clip-path="url(#clip790)" d="M943.789 12.096 L951.972 12.096 L951.972 72.576 L943.789 72.576 L943.789 12.096 Z" fill="#000000" fill-rule="nonzero" fill-opacity="1" /><path clip-path="url(#clip790)" d="M996.937 44.2197 Q999.57 45.1109 1002.04 48.0275 Q1004.55 50.9442 1007.06 56.0483 L1015.37 72.576 L1006.58 72.576 L998.841 57.061 Q995.844 50.9847 993.008 48.9997 Q990.213 47.0148 985.352 47.0148 L976.44 47.0148 L976.44 72.576 L968.257 72.576 L968.257 12.096 L986.729 12.096 Q997.099 12.096 1002.2 16.4305 Q1007.31 20.7649 1007.31 29.5149 Q1007.31 35.2267 1004.63 38.994 Q1002 42.7613 996.937 44.2197 M976.44 18.8205 L976.44 40.2903 L986.729 40.2903 Q992.643 40.2903 995.641 37.5762 Q998.679 34.8216 998.679 29.5149 Q998.679 24.2082 995.641 21.5346 Q992.643 18.8205 986.729 18.8205 L976.44 18.8205 Z" fill="#000000" fill-rule="nonzero" fill-opacity="1" /><path clip-path="url(#clip790)" d="M1069.85 9.62495 Q1064.43 18.942 1061.79 28.0566 Q1059.16 37.1711 1059.16 46.5287 Q1059.16 55.8863 1061.79 65.0818 Q1064.47 74.2369 1069.85 83.5134 L1063.37 83.5134 Q1057.3 73.9938 1054.26 64.7983 Q1051.26 55.6027 1051.26 46.5287 Q1051.26 37.4952 1054.26 28.3401 Q1057.26 19.1851 1063.37 9.62495 L1069.85 9.62495 Z" fill="#000000" fill-rule="nonzero" fill-opacity="1" /><path clip-path="url(#clip790)" d="M1129.93 16.7545 L1129.93 25.383 Q1125.8 21.5346 1121.1 19.6307 Q1116.44 17.7268 1111.17 17.7268 Q1100.8 17.7268 1095.29 24.0867 Q1089.78 30.4061 1089.78 42.3968 Q1089.78 54.3469 1095.29 60.7069 Q1100.8 67.0263 1111.17 67.0263 Q1116.44 67.0263 1121.1 65.1223 Q1125.8 63.2184 1129.93 59.3701 L1129.93 67.9175 Q1125.63 70.8341 1120.81 72.2924 Q1116.03 73.7508 1110.69 73.7508 Q1096.95 73.7508 1089.05 65.3654 Q1081.16 56.9395 1081.16 42.3968 Q1081.16 27.8135 1089.05 19.4281 Q1096.95 11.0023 1110.69 11.0023 Q1116.11 11.0023 1120.89 12.4606 Q1125.72 13.8784 1129.93 16.7545 Z" fill="#000000" fill-rule="nonzero" fill-opacity="1" /><path clip-path="url(#clip790)" d="M1159.82 32.4315 Q1153.83 32.4315 1150.35 37.1306 Q1146.86 41.7891 1146.86 49.9314 Q1146.86 58.0738 1150.3 62.7728 Q1153.79 67.4314 1159.82 67.4314 Q1165.78 67.4314 1169.26 62.7323 Q1172.75 58.0333 1172.75 49.9314 Q1172.75 41.8701 1169.26 37.1711 Q1165.78 32.4315 1159.82 32.4315 M1159.82 26.1121 Q1169.55 26.1121 1175.1 32.4315 Q1180.65 38.7509 1180.65 49.9314 Q1180.65 61.0714 1175.1 67.4314 Q1169.55 73.7508 1159.82 73.7508 Q1150.06 73.7508 1144.51 67.4314 Q1139 61.0714 1139 49.9314 Q1139 38.7509 1144.51 32.4315 Q1150.06 26.1121 1159.82 26.1121 Z" fill="#000000" fill-rule="nonzero" fill-opacity="1" /><path clip-path="url(#clip790)" d="M1228.32 35.9153 Q1231.12 30.8922 1235.01 28.5022 Q1238.9 26.1121 1244.16 26.1121 Q1251.25 26.1121 1255.1 31.0947 Q1258.95 36.0368 1258.95 45.1919 L1258.95 72.576 L1251.46 72.576 L1251.46 45.4349 Q1251.46 38.913 1249.15 35.7533 Q1246.84 32.5936 1242.1 32.5936 Q1236.31 32.5936 1232.94 36.4419 Q1229.58 40.2903 1229.58 46.9338 L1229.58 72.576 L1222.09 72.576 L1222.09 45.4349 Q1222.09 38.8725 1219.78 35.7533 Q1217.47 32.5936 1212.65 32.5936 Q1206.94 32.5936 1203.57 36.4824 Q1200.21 40.3308 1200.21 46.9338 L1200.21 72.576 L1192.72 72.576 L1192.72 27.2059 L1200.21 27.2059 L1200.21 34.2544 Q1202.76 30.082 1206.33 28.0971 Q1209.89 26.1121 1214.79 26.1121 Q1219.74 26.1121 1223.18 28.6237 Q1226.66 31.1352 1228.32 35.9153 Z" fill="#000000" fill-rule="nonzero" fill-opacity="1" /><path clip-path="url(#clip790)" d="M1281.03 65.7705 L1281.03 89.8329 L1273.53 89.8329 L1273.53 27.2059 L1281.03 27.2059 L1281.03 34.0924 Q1283.38 30.0415 1286.94 28.0971 Q1290.55 26.1121 1295.53 26.1121 Q1303.79 26.1121 1308.94 32.6746 Q1314.12 39.2371 1314.12 49.9314 Q1314.12 60.6258 1308.94 67.1883 Q1303.79 73.7508 1295.53 73.7508 Q1290.55 73.7508 1286.94 71.8063 Q1283.38 69.8214 1281.03 65.7705 M1306.39 49.9314 Q1306.39 41.7081 1302.98 37.0496 Q1299.62 32.3505 1293.71 32.3505 Q1287.79 32.3505 1284.39 37.0496 Q1281.03 41.7081 1281.03 49.9314 Q1281.03 58.1548 1284.39 62.8538 Q1287.79 67.5124 1293.71 67.5124 Q1299.62 67.5124 1302.98 62.8538 Q1306.39 58.1548 1306.39 49.9314 Z" fill="#000000" fill-rule="nonzero" fill-opacity="1" /><path clip-path="url(#clip790)" d="M1344.06 32.4315 Q1338.06 32.4315 1334.58 37.1306 Q1331.1 41.7891 1331.1 49.9314 Q1331.1 58.0738 1334.54 62.7728 Q1338.02 67.4314 1344.06 67.4314 Q1350.01 67.4314 1353.5 62.7323 Q1356.98 58.0333 1356.98 49.9314 Q1356.98 41.8701 1353.5 37.1711 Q1350.01 32.4315 1344.06 32.4315 M1344.06 26.1121 Q1353.78 26.1121 1359.33 32.4315 Q1364.88 38.7509 1364.88 49.9314 Q1364.88 61.0714 1359.33 67.4314 Q1353.78 73.7508 1344.06 73.7508 Q1334.3 73.7508 1328.75 67.4314 Q1323.24 61.0714 1323.24 49.9314 Q1323.24 38.7509 1328.75 32.4315 Q1334.3 26.1121 1344.06 26.1121 Z" fill="#000000" fill-rule="nonzero" fill-opacity="1" /><path clip-path="url(#clip790)" d="M1406.16 28.5427 L1406.16 35.5912 Q1403 33.9709 1399.6 33.1607 Q1396.19 32.3505 1392.55 32.3505 Q1387 32.3505 1384.2 34.0519 Q1381.45 35.7533 1381.45 39.156 Q1381.45 41.7486 1383.43 43.2475 Q1385.42 44.7058 1391.41 46.0426 L1393.97 46.6097 Q1401.91 48.3111 1405.23 51.4303 Q1408.59 54.509 1408.59 60.0587 Q1408.59 66.3781 1403.57 70.0644 Q1398.58 73.7508 1389.83 73.7508 Q1386.19 73.7508 1382.22 73.0216 Q1378.29 72.3329 1373.91 70.9151 L1373.91 63.2184 Q1378.05 65.3654 1382.06 66.4591 Q1386.07 67.5124 1390 67.5124 Q1395.26 67.5124 1398.1 65.73 Q1400.93 63.9071 1400.93 60.6258 Q1400.93 57.5877 1398.87 55.9673 Q1396.84 54.3469 1389.92 52.8481 L1387.32 52.2405 Q1380.4 50.7821 1377.32 47.7845 Q1374.24 44.7463 1374.24 39.4801 Q1374.24 33.0797 1378.78 29.5959 Q1383.31 26.1121 1391.66 26.1121 Q1395.79 26.1121 1399.44 26.7198 Q1403.08 27.3274 1406.16 28.5427 Z" fill="#000000" fill-rule="nonzero" fill-opacity="1" /><path clip-path="url(#clip790)" d="M1459.27 48.0275 L1459.27 51.6733 L1425 51.6733 Q1425.48 59.3701 1429.61 63.421 Q1433.79 67.4314 1441.2 67.4314 Q1445.49 67.4314 1449.5 66.3781 Q1453.56 65.3249 1457.53 63.2184 L1457.53 70.267 Q1453.51 71.9684 1449.3 72.8596 Q1445.09 73.7508 1440.75 73.7508 Q1429.9 73.7508 1423.54 67.4314 Q1417.22 61.1119 1417.22 50.3365 Q1417.22 39.1965 1423.21 32.6746 Q1429.25 26.1121 1439.46 26.1121 Q1448.61 26.1121 1453.92 32.0264 Q1459.27 37.9003 1459.27 48.0275 M1451.81 45.84 Q1451.73 39.7232 1448.37 36.0774 Q1445.05 32.4315 1439.54 32.4315 Q1433.3 32.4315 1429.53 35.9558 Q1425.81 39.4801 1425.24 45.8805 L1451.81 45.84 Z" fill="#000000" fill-rule="nonzero" fill-opacity="1" /><path clip-path="url(#clip790)" d="M1501.36 34.0924 L1501.36 9.54393 L1508.81 9.54393 L1508.81 72.576 L1501.36 72.576 L1501.36 65.7705 Q1499.01 69.8214 1495.4 71.8063 Q1491.84 73.7508 1486.81 73.7508 Q1478.59 73.7508 1473.4 67.1883 Q1468.26 60.6258 1468.26 49.9314 Q1468.26 39.2371 1473.4 32.6746 Q1478.59 26.1121 1486.81 26.1121 Q1491.84 26.1121 1495.4 28.0971 Q1499.01 30.0415 1501.36 34.0924 M1475.96 49.9314 Q1475.96 58.1548 1479.32 62.8538 Q1482.72 67.5124 1488.64 67.5124 Q1494.55 67.5124 1497.95 62.8538 Q1501.36 58.1548 1501.36 49.9314 Q1501.36 41.7081 1497.95 37.0496 Q1494.55 32.3505 1488.64 32.3505 Q1482.72 32.3505 1479.32 37.0496 Q1475.96 41.7081 1475.96 49.9314 Z" fill="#000000" fill-rule="nonzero" fill-opacity="1" /><path clip-path="url(#clip790)" d="M1573.5 9.54393 L1573.5 15.7418 L1566.37 15.7418 Q1562.36 15.7418 1560.78 17.3622 Q1559.24 18.9825 1559.24 23.1955 L1559.24 27.2059 L1571.52 27.2059 L1571.52 32.9987 L1559.24 32.9987 L1559.24 72.576 L1551.75 72.576 L1551.75 32.9987 L1544.62 32.9987 L1544.62 27.2059 L1551.75 27.2059 L1551.75 24.0462 Q1551.75 16.471 1555.27 13.0277 Q1558.8 9.54393 1566.45 9.54393 L1573.5 9.54393 Z" fill="#000000" fill-rule="nonzero" fill-opacity="1" /><path clip-path="url(#clip790)" d="M1606.03 34.1734 Q1604.78 33.4443 1603.28 33.1202 Q1601.82 32.7556 1600.04 32.7556 Q1593.72 32.7556 1590.31 36.8875 Q1586.95 40.9789 1586.95 48.6757 L1586.95 72.576 L1579.46 72.576 L1579.46 27.2059 L1586.95 27.2059 L1586.95 34.2544 Q1589.3 30.1225 1593.07 28.1376 Q1596.84 26.1121 1602.22 26.1121 Q1602.99 26.1121 1603.92 26.2337 Q1604.86 26.3147 1605.99 26.5172 L1606.03 34.1734 Z" fill="#000000" fill-rule="nonzero" fill-opacity="1" /><path clip-path="url(#clip790)" d="M1629.61 32.4315 Q1623.61 32.4315 1620.13 37.1306 Q1616.64 41.7891 1616.64 49.9314 Q1616.64 58.0738 1620.09 62.7728 Q1623.57 67.4314 1629.61 67.4314 Q1635.56 67.4314 1639.05 62.7323 Q1642.53 58.0333 1642.53 49.9314 Q1642.53 41.8701 1639.05 37.1711 Q1635.56 32.4315 1629.61 32.4315 M1629.61 26.1121 Q1639.33 26.1121 1644.88 32.4315 Q1650.43 38.7509 1650.43 49.9314 Q1650.43 61.0714 1644.88 67.4314 Q1639.33 73.7508 1629.61 73.7508 Q1619.84 73.7508 1614.3 67.4314 Q1608.79 61.0714 1608.79 49.9314 Q1608.79 38.7509 1614.3 32.4315 Q1619.84 26.1121 1629.61 26.1121 Z" fill="#000000" fill-rule="nonzero" fill-opacity="1" /><path clip-path="url(#clip790)" d="M1698.11 35.9153 Q1700.9 30.8922 1704.79 28.5022 Q1708.68 26.1121 1713.95 26.1121 Q1721.04 26.1121 1724.88 31.0947 Q1728.73 36.0368 1728.73 45.1919 L1728.73 72.576 L1721.24 72.576 L1721.24 45.4349 Q1721.24 38.913 1718.93 35.7533 Q1716.62 32.5936 1711.88 32.5936 Q1706.09 32.5936 1702.73 36.4419 Q1699.36 40.2903 1699.36 46.9338 L1699.36 72.576 L1691.87 72.576 L1691.87 45.4349 Q1691.87 38.8725 1689.56 35.7533 Q1687.25 32.5936 1682.43 32.5936 Q1676.72 32.5936 1673.36 36.4824 Q1669.99 40.3308 1669.99 46.9338 L1669.99 72.576 L1662.5 72.576 L1662.5 27.2059 L1669.99 27.2059 L1669.99 34.2544 Q1672.55 30.082 1676.11 28.0971 Q1679.68 26.1121 1684.58 26.1121 Q1689.52 26.1121 1692.96 28.6237 Q1696.45 31.1352 1698.11 35.9153 Z" fill="#000000" fill-rule="nonzero" fill-opacity="1" /><path clip-path="url(#clip790)" d="M1795.82 39.9662 Q1801.69 41.222 1804.97 45.1919 Q1808.29 49.1618 1808.29 54.9951 Q1808.29 63.9476 1802.14 68.8492 Q1795.98 73.7508 1784.64 73.7508 Q1780.83 73.7508 1776.78 72.9811 Q1772.77 72.2519 1768.47 70.7531 L1768.47 62.8538 Q1771.88 64.8388 1775.93 65.8515 Q1779.98 66.8642 1784.39 66.8642 Q1792.09 66.8642 1796.1 63.826 Q1800.15 60.7879 1800.15 54.9951 Q1800.15 49.6479 1796.38 46.6502 Q1792.66 43.612 1785.97 43.612 L1778.92 43.612 L1778.92 36.8875 L1786.3 36.8875 Q1792.33 36.8875 1795.53 34.4975 Q1798.73 32.067 1798.73 27.5299 Q1798.73 22.8714 1795.41 20.4004 Q1792.13 17.8888 1785.97 17.8888 Q1782.61 17.8888 1778.76 18.618 Q1774.91 19.3471 1770.3 20.8865 L1770.3 13.5948 Q1774.95 12.2985 1779 11.6504 Q1783.1 11.0023 1786.7 11.0023 Q1796.02 11.0023 1801.45 15.2557 Q1806.88 19.4686 1806.88 26.6793 Q1806.88 31.7024 1804 35.1862 Q1801.12 38.6294 1795.82 39.9662 Z" fill="#000000" fill-rule="nonzero" fill-opacity="1" /><path clip-path="url(#clip790)" d="M1857.63 18.8205 L1857.63 41.5461 L1867.92 41.5461 Q1873.63 41.5461 1876.75 38.5889 Q1879.87 35.6318 1879.87 30.163 Q1879.87 24.7348 1876.75 21.7777 Q1873.63 18.8205 1867.92 18.8205 L1857.63 18.8205 M1849.45 12.096 L1867.92 12.096 Q1878.09 12.096 1883.28 16.714 Q1888.5 21.2916 1888.5 30.163 Q1888.5 39.1155 1883.28 43.6931 Q1878.09 48.2706 1867.92 48.2706 L1857.63 48.2706 L1857.63 72.576 L1849.45 72.576 L1849.45 12.096 Z" fill="#000000" fill-rule="nonzero" fill-opacity="1" /><path clip-path="url(#clip790)" d="M1916.05 49.7694 Q1907.01 49.7694 1903.53 51.8354 Q1900.05 53.9013 1900.05 58.8839 Q1900.05 62.8538 1902.64 65.2034 Q1905.27 67.5124 1909.77 67.5124 Q1915.97 67.5124 1919.69 63.1374 Q1923.46 58.7219 1923.46 51.4303 L1923.46 49.7694 L1916.05 49.7694 M1930.91 46.6907 L1930.91 72.576 L1923.46 72.576 L1923.46 65.6895 Q1920.91 69.8214 1917.1 71.8063 Q1913.29 73.7508 1907.78 73.7508 Q1900.82 73.7508 1896.68 69.8619 Q1892.59 65.9325 1892.59 59.3701 Q1892.59 51.7138 1897.7 47.825 Q1902.84 43.9361 1913.01 43.9361 L1923.46 43.9361 L1923.46 43.2069 Q1923.46 38.0623 1920.06 35.2672 Q1916.7 32.4315 1910.58 32.4315 Q1906.69 32.4315 1903 33.3632 Q1899.32 34.295 1895.91 36.1584 L1895.91 29.2718 Q1900.01 27.692 1903.85 26.9223 Q1907.7 26.1121 1911.35 26.1121 Q1921.19 26.1121 1926.05 31.2163 Q1930.91 36.3204 1930.91 46.6907 Z" fill="#000000" fill-rule="nonzero" fill-opacity="1" /><path clip-path="url(#clip790)" d="M1972.56 34.1734 Q1971.3 33.4443 1969.8 33.1202 Q1968.34 32.7556 1966.56 32.7556 Q1960.24 32.7556 1956.84 36.8875 Q1953.48 40.9789 1953.48 48.6757 L1953.48 72.576 L1945.98 72.576 L1945.98 27.2059 L1953.48 27.2059 L1953.48 34.2544 Q1955.83 30.1225 1959.59 28.1376 Q1963.36 26.1121 1968.75 26.1121 Q1969.52 26.1121 1970.45 26.2337 Q1971.38 26.3147 1972.52 26.5172 L1972.56 34.1734 Z" fill="#000000" fill-rule="nonzero" fill-opacity="1" /><path clip-path="url(#clip790)" d="M1987.75 14.324 L1987.75 27.2059 L2003.1 27.2059 L2003.1 32.9987 L1987.75 32.9987 L1987.75 57.6282 Q1987.75 63.1779 1989.25 64.7578 Q1990.79 66.3376 1995.44 66.3376 L2003.1 66.3376 L2003.1 72.576 L1995.44 72.576 Q1986.82 72.576 1983.53 69.3758 Q1980.25 66.1351 1980.25 57.6282 L1980.25 32.9987 L1974.79 32.9987 L1974.79 27.2059 L1980.25 27.2059 L1980.25 14.324 L1987.75 14.324 Z" fill="#000000" fill-rule="nonzero" fill-opacity="1" /><path clip-path="url(#clip790)" d="M2041.83 28.5427 L2041.83 35.5912 Q2038.67 33.9709 2035.27 33.1607 Q2031.86 32.3505 2028.22 32.3505 Q2022.67 32.3505 2019.87 34.0519 Q2017.12 35.7533 2017.12 39.156 Q2017.12 41.7486 2019.1 43.2475 Q2021.09 44.7058 2027.08 46.0426 L2029.63 46.6097 Q2037.57 48.3111 2040.9 51.4303 Q2044.26 54.509 2044.26 60.0587 Q2044.26 66.3781 2039.23 70.0644 Q2034.25 73.7508 2025.5 73.7508 Q2021.86 73.7508 2017.89 73.0216 Q2013.96 72.3329 2009.58 70.9151 L2009.58 63.2184 Q2013.71 65.3654 2017.72 66.4591 Q2021.74 67.5124 2025.66 67.5124 Q2030.93 67.5124 2033.77 65.73 Q2036.6 63.9071 2036.6 60.6258 Q2036.6 57.5877 2034.54 55.9673 Q2032.51 54.3469 2025.58 52.8481 L2022.99 52.2405 Q2016.06 50.7821 2012.99 47.7845 Q2009.91 44.7463 2009.91 39.4801 Q2009.91 33.0797 2014.44 29.5959 Q2018.98 26.1121 2027.33 26.1121 Q2031.46 26.1121 2035.1 26.7198 Q2038.75 27.3274 2041.83 28.5427 Z" fill="#000000" fill-rule="nonzero" fill-opacity="1" /><path clip-path="url(#clip790)" d="M2054.95 9.62495 L2061.43 9.62495 Q2067.51 19.1851 2070.51 28.3401 Q2073.55 37.4952 2073.55 46.5287 Q2073.55 55.6027 2070.51 64.7983 Q2067.51 73.9938 2061.43 83.5134 L2054.95 83.5134 Q2060.34 74.2369 2062.97 65.0818 Q2065.65 55.8863 2065.65 46.5287 Q2065.65 37.1711 2062.97 28.0566 Q2060.34 18.942 2054.95 9.62495 Z" fill="#000000" fill-rule="nonzero" fill-opacity="1" /><polyline clip-path="url(#clip791)" style="stroke:#009af9; stroke-linecap:round; stroke-linejoin:round; stroke-width:8; stroke-opacity:1; fill:none" points="335.956,177.988 341.55,181.682 347.144,185.272 352.738,188.836 358.332,192.442 363.926,196.148 369.521,200.006 375.115,204.06 380.709,208.352 386.303,212.924 391.897,217.814 397.492,223.057 403.086,228.692 408.68,234.755 414.274,241.287 419.868,248.323 425.462,255.902 431.057,264.066 436.651,272.855 442.245,282.315 447.839,292.489 453.433,303.421 459.027,315.153 464.622,327.731 470.216,341.198 475.81,355.601 481.404,370.982 486.998,387.389 492.593,404.861 498.187,423.428 503.781,443.12 509.375,463.958 514.969,485.959 520.563,509.136 526.158,533.496 531.752,559.042 537.346,585.77 542.94,613.658 548.534,642.648 554.128,672.674 559.723,703.661 565.317,735.529 570.911,768.189 576.505,801.546 582.099,835.495 587.694,869.927 593.288,904.719 598.882,939.704 604.476,974.704 610.07,1009.55 615.664,1044.1 621.259,1078.2 626.853,1111.72 632.447,1144.54 638.041,1176.55 643.635,1207.64 649.229,1237.71 654.824,1266.65 660.418,1294.37 666.012,1320.82 671.606,1345.96 677.2,1369.75 682.794,1392.21 688.389,1413.34 693.983,1433.2 699.577,1451.8 705.171,1469.15 710.765,1485.3 716.36,1500.29 721.954,1514.17 727.548,1527.01 733.142,1538.84 738.736,1549.75 744.33,1559.81 749.925,1569.07 755.519,1577.57 761.113,1585.39 766.707,1592.56 772.301,1599.14 777.895,1605.17 783.49,1610.7 789.084,1615.78 794.678,1620.43 800.272,1624.69 805.866,1628.6 811.461,1632.19 817.055,1635.48 822.649,1638.51 828.243,1641.29 833.837,1643.86 839.431,1646.22 845.026,1648.39 850.62,1650.4 856.214,1652.25 861.808,1653.95 867.402,1655.52 872.996,1656.98 878.591,1658.32 884.185,1659.57 889.779,1660.73 895.373,1661.8 900.967,1662.8 906.562,1663.73 912.156,1664.59 917.75,1665.4 923.344,1666.15 928.938,1666.85 934.532,1667.5 940.127,1668.11 945.721,1668.67 951.315,1669.21 956.909,1669.7 962.503,1670.17 968.097,1670.61 973.692,1671.02 979.286,1671.4 984.88,1671.77 990.474,1672.11 996.068,1672.43 1001.66,1672.73 1007.26,1673.01 1012.85,1673.28 1018.45,1673.53 1024.04,1673.77 1029.63,1673.99 1035.23,1674.2 1040.82,1674.4 1046.42,1674.59 1052.01,1674.77 1057.6,1674.94 1063.2,1675.1 1068.79,1675.25 1074.39,1675.39 1079.98,1675.53 1085.58,1675.65 1091.17,1675.78 1096.76,1675.89 1102.36,1676 1107.95,1676.1 1113.55,1676.2 1119.14,1676.29 1124.73,1676.38 1130.33,1676.47 1135.92,1676.55 1141.52,1676.62 1147.11,1676.7 1152.71,1676.76 1158.3,1676.83 1163.89,1676.89 1169.49,1676.95 1175.08,1677.01 1180.68,1677.06 1186.27,1677.11 1191.86,1677.16 1197.46,1677.2 1203.05,1677.25 1208.65,1677.29 1214.24,1677.33 1219.84,1677.37 1225.43,1677.4 1231.02,1677.44 1236.62,1677.47 1242.21,1677.5 1247.81,1677.53 1253.4,1677.56 1258.99,1677.58 1264.59,1677.61 1270.18,1677.63 1275.78,1677.66 1281.37,1677.68 1286.97,1677.7 1292.56,1677.72 1298.15,1677.74 1303.75,1677.76 1309.34,1677.77 1314.94,1677.79 1320.53,1677.81 1326.12,1677.82 1331.72,1677.83 1337.31,1677.85 1342.91,1677.86 1348.5,1677.87 1354.1,1677.89 1359.69,1677.9 1365.28,1677.91 1370.88,1677.92 1376.47,1677.93 1382.07,1677.94 1387.66,1677.95 1393.25,1677.95 1398.85,1677.96 1404.44,1677.97 1410.04,1677.98 1415.63,1677.98 1421.23,1677.99 1426.82,1678 1432.41,1678 1438.01,1678.01 1443.6,1678.01 1449.2,1678.02 1454.79,1678.03 1460.38,1678.03 1465.98,1678.03 1471.57,1678.04 1477.17,1678.04 1482.76,1678.05 1488.36,1678.05 1493.95,1678.05 1499.54,1678.06 1505.14,1678.06 1510.73,1678.06 1516.33,1678.07 1521.92,1678.07 1527.51,1678.07 1533.11,1678.08 1538.7,1678.08 1544.3,1678.08 1549.89,1678.08 1555.49,1678.08 1561.08,1678.09 1566.67,1678.09 1572.27,1678.09 1577.86,1678.09 1583.46,1678.09 1589.05,1678.1 1594.65,1678.1 1600.24,1678.1 1605.83,1678.1 1611.43,1678.1 1617.02,1678.1 1622.62,1678.1 1628.21,1678.11 1633.8,1678.11 1639.4,1678.11 1644.99,1678.11 1650.59,1678.11 1656.18,1678.11 1661.78,1678.11 1667.37,1678.11 1672.96,1678.11 1678.56,1678.11 1684.15,1678.11 1689.75,1678.12 1695.34,1678.12 1700.93,1678.12 1706.53,1678.12 1712.12,1678.12 1717.72,1678.12 1723.31,1678.12 1728.91,1678.12 1734.5,1678.12 1740.09,1678.12 1745.69,1678.12 1751.28,1678.12 1756.88,1678.12 1762.47,1678.12 1768.06,1678.12 1773.66,1678.12 1779.25,1678.12 1784.85,1678.12 1790.44,1678.12 1796.04,1678.12 1801.63,1678.12 1807.22,1678.12 1812.82,1678.12 1818.41,1678.13 1824.01,1678.13 1829.6,1678.13 1835.19,1678.13 1840.79,1678.13 1846.38,1678.13 1851.98,1678.13 1857.57,1678.13 1863.17,1678.13 1868.76,1678.13 1874.35,1678.13 1879.95,1678.13 1885.54,1678.13 1891.14,1678.13 1896.73,1678.13 1902.32,1678.13 1907.92,1678.13 1913.51,1678.13 1919.11,1678.13 1924.7,1678.13 1930.3,1678.13 1935.89,1678.13 1941.48,1678.13 1947.08,1678.13 1952.67,1678.13 1958.27,1678.13 1963.86,1678.13 1969.45,1678.13 1975.05,1678.13 1980.64,1678.13 1986.24,1678.13 1991.83,1678.13 1997.43,1678.13 2003.02,1678.13 2008.61,1678.13 2014.21,1678.13 2019.8,1678.13 2025.4,1678.13 2030.99,1678.13 2036.58,1678.13 2042.18,1678.13 2047.77,1678.13 2053.37,1678.13 2058.96,1678.13 2064.56,1678.13 2070.15,1678.13 2075.74,1678.13 2081.34,1678.13 2086.93,1678.13 2092.53,1678.13 2098.12,1678.13 2103.72,1678.13 2109.31,1678.13 2114.9,1678.13 2120.5,1678.13 2126.09,1678.13 2131.69,1678.13 2137.28,1678.13 2142.87,1678.13 2148.47,1678.13 2154.06,1678.13 2159.66,1678.13 2165.25,1678.13 2170.85,1678.13 2176.44,1678.13 2182.03,1678.13 2187.63,1678.13 2193.22,1678.13 2198.82,1678.13 2204.41,1678.13 2210,1678.13 2215.6,1678.13 2221.19,1678.13 2226.79,1678.13 2232.38,1678.13 2237.98,1678.13 2243.57,1678.13 2249.16,1678.13 2254.76,1678.13 2260.35,1678.13 2265.95,1678.13 2271.54,1678.13 2277.13,1678.13 2282.73,1678.13 2288.32,1678.13 2293.92,1678.13 2299.51,1678.13 2305.11,1678.13 2310.7,1678.13 2316.29,1678.13 2321.89,1678.13 2327.48,1678.13 2333.08,1678.13 2338.67,1678.13 2344.26,1678.13 2349.86,1678.13 2355.45,1678.13 2361.05,1678.13 2366.64,1678.13 2372.24,1678.13 2377.83,1678.13 2383.42,1678.13 2389.02,1678.13 2394.61,1678.13 2400.21,1678.13 2405.8,1678.13 2411.39,1678.13 2416.99,1678.13 2422.58,1678.13 2428.18,1678.13 2433.77,1678.13 2439.37,1678.13 2444.96,1678.13 2450.55,1678.13 2456.15,1678.13 2461.74,1678.13 2467.34,1678.13 2472.93,1678.13 2478.52,1678.13 2484.12,1678.13 2489.71,1678.13 2495.31,1678.13 2500.9,1678.13 2506.5,1678.13 2512.09,1678.13 2517.68,1678.13 2523.28,1678.13 2528.87,1678.13 2534.47,1678.13 2540.06,1678.13 2545.65,1678.13 2551.25,1678.13 2556.84,1678.13 2562.44,1678.13 2568.03,1678.13 2573.63,1678.13 "/>
<polyline clip-path="url(#clip791)" style="stroke:#e26f46; stroke-linecap:round; stroke-linejoin:round; stroke-width:8; stroke-opacity:1; fill:none" points="335.956,1688.65 341.55,1685.14 347.144,1682.06 352.738,1679.3 358.332,1676.75 363.926,1674.36 369.521,1672.05 375.115,1669.77 380.709,1667.48 386.303,1665.14 391.897,1662.72 397.492,1660.2 403.086,1657.54 408.68,1654.73 414.274,1651.74 419.868,1648.55 425.462,1645.15 431.057,1641.52 436.651,1637.63 442.245,1633.48 447.839,1629.04 453.433,1624.3 459.027,1619.25 464.622,1613.88 470.216,1608.18 475.81,1602.13 481.404,1595.72 486.998,1588.94 492.593,1581.78 498.187,1574.26 503.781,1566.39 509.375,1558.18 514.969,1549.66 520.563,1540.83 526.158,1531.72 531.752,1522.35 537.346,1512.73 542.94,1502.9 548.534,1492.95 554.128,1482.97 559.723,1473.03 565.317,1463.22 570.911,1453.61 576.505,1444.27 582.099,1435.25 587.694,1426.61 593.288,1418.42 598.882,1410.81 604.476,1403.9 610.07,1397.8 615.664,1392.6 621.259,1388.35 626.853,1385.07 632.447,1382.8 638.041,1381.49 643.635,1381.14 649.229,1381.76 654.824,1383.39 660.418,1386.02 666.012,1389.63 671.606,1394.19 677.2,1399.62 682.794,1405.82 688.389,1412.7 693.983,1420.1 699.577,1427.95 705.171,1436.22 710.765,1444.85 716.36,1453.77 721.954,1462.92 727.548,1472.22 733.142,1481.6 738.736,1490.98 744.33,1500.25 749.925,1509.37 755.519,1518.33 761.113,1527.09 766.707,1535.64 772.301,1543.94 777.895,1551.98 783.49,1559.74 789.084,1567.2 794.678,1574.35 800.272,1581.18 805.866,1587.69 811.461,1593.88 817.055,1599.77 822.649,1605.35 828.243,1610.63 833.837,1615.62 839.431,1620.33 845.026,1624.76 850.62,1628.93 856.214,1632.85 861.808,1636.55 867.402,1640.02 872.996,1643.28 878.591,1646.33 884.185,1649.18 889.779,1651.84 895.373,1654.32 900.967,1656.64 906.562,1658.79 912.156,1660.79 917.75,1662.66 923.344,1664.41 928.938,1666.05 934.532,1667.58 940.127,1669.01 945.721,1670.35 951.315,1671.59 956.909,1672.74 962.503,1673.81 968.097,1674.8 973.692,1675.73 979.286,1676.59 984.88,1677.39 990.474,1678.14 996.068,1678.83 1001.66,1679.48 1007.26,1680.09 1012.85,1680.65 1018.45,1681.18 1024.04,1681.66 1029.63,1682.11 1035.23,1682.53 1040.82,1682.92 1046.42,1683.29 1052.01,1683.63 1057.6,1683.94 1063.2,1684.24 1068.79,1684.52 1074.39,1684.78 1079.98,1685.02 1085.58,1685.24 1091.17,1685.45 1096.76,1685.64 1102.36,1685.83 1107.95,1686 1113.55,1686.16 1119.14,1686.3 1124.73,1686.44 1130.33,1686.58 1135.92,1686.7 1141.52,1686.81 1147.11,1686.92 1152.71,1687.02 1158.3,1687.11 1163.89,1687.2 1169.49,1687.28 1175.08,1687.36 1180.68,1687.43 1186.27,1687.5 1191.86,1687.56 1197.46,1687.62 1203.05,1687.68 1208.65,1687.73 1214.24,1687.78 1219.84,1687.83 1225.43,1687.88 1231.02,1687.92 1236.62,1687.96 1242.21,1687.99 1247.81,1688.03 1253.4,1688.06 1258.99,1688.09 1264.59,1688.12 1270.18,1688.15 1275.78,1688.18 1281.37,1688.2 1286.97,1688.22 1292.56,1688.25 1298.15,1688.27 1303.75,1688.29 1309.34,1688.3 1314.94,1688.32 1320.53,1688.34 1326.12,1688.35 1331.72,1688.37 1337.31,1688.38 1342.91,1688.4 1348.5,1688.41 1354.1,1688.42 1359.69,1688.43 1365.28,1688.44 1370.88,1688.45 1376.47,1688.46 1382.07,1688.47 1387.66,1688.48 1393.25,1688.49 1398.85,1688.5 1404.44,1688.51 1410.04,1688.51 1415.63,1688.52 1421.23,1688.53 1426.82,1688.53 1432.41,1688.54 1438.01,1688.54 1443.6,1688.55 1449.2,1688.55 1454.79,1688.56 1460.38,1688.56 1465.98,1688.57 1471.57,1688.57 1477.17,1688.58 1482.76,1688.58 1488.36,1688.58 1493.95,1688.59 1499.54,1688.59 1505.14,1688.59 1510.73,1688.6 1516.33,1688.6 1521.92,1688.6 1527.51,1688.6 1533.11,1688.61 1538.7,1688.61 1544.3,1688.61 1549.89,1688.61 1555.49,1688.61 1561.08,1688.62 1566.67,1688.62 1572.27,1688.62 1577.86,1688.62 1583.46,1688.62 1589.05,1688.62 1594.65,1688.63 1600.24,1688.63 1605.83,1688.63 1611.43,1688.63 1617.02,1688.63 1622.62,1688.63 1628.21,1688.63 1633.8,1688.63 1639.4,1688.64 1644.99,1688.64 1650.59,1688.64 1656.18,1688.64 1661.78,1688.64 1667.37,1688.64 1672.96,1688.64 1678.56,1688.64 1684.15,1688.64 1689.75,1688.64 1695.34,1688.64 1700.93,1688.64 1706.53,1688.64 1712.12,1688.64 1717.72,1688.64 1723.31,1688.65 1728.91,1688.65 1734.5,1688.65 1740.09,1688.65 1745.69,1688.65 1751.28,1688.65 1756.88,1688.65 1762.47,1688.65 1768.06,1688.65 1773.66,1688.65 1779.25,1688.65 1784.85,1688.65 1790.44,1688.65 1796.04,1688.65 1801.63,1688.65 1807.22,1688.65 1812.82,1688.65 1818.41,1688.65 1824.01,1688.65 1829.6,1688.65 1835.19,1688.65 1840.79,1688.65 1846.38,1688.65 1851.98,1688.65 1857.57,1688.65 1863.17,1688.65 1868.76,1688.65 1874.35,1688.65 1879.95,1688.65 1885.54,1688.65 1891.14,1688.65 1896.73,1688.65 1902.32,1688.65 1907.92,1688.65 1913.51,1688.65 1919.11,1688.65 1924.7,1688.65 1930.3,1688.65 1935.89,1688.65 1941.48,1688.65 1947.08,1688.65 1952.67,1688.65 1958.27,1688.65 1963.86,1688.65 1969.45,1688.65 1975.05,1688.65 1980.64,1688.65 1986.24,1688.65 1991.83,1688.65 1997.43,1688.65 2003.02,1688.65 2008.61,1688.65 2014.21,1688.65 2019.8,1688.65 2025.4,1688.65 2030.99,1688.65 2036.58,1688.65 2042.18,1688.65 2047.77,1688.65 2053.37,1688.65 2058.96,1688.65 2064.56,1688.65 2070.15,1688.65 2075.74,1688.65 2081.34,1688.65 2086.93,1688.65 2092.53,1688.65 2098.12,1688.65 2103.72,1688.65 2109.31,1688.65 2114.9,1688.65 2120.5,1688.65 2126.09,1688.65 2131.69,1688.65 2137.28,1688.65 2142.87,1688.65 2148.47,1688.65 2154.06,1688.65 2159.66,1688.65 2165.25,1688.65 2170.85,1688.65 2176.44,1688.65 2182.03,1688.65 2187.63,1688.65 2193.22,1688.65 2198.82,1688.65 2204.41,1688.65 2210,1688.65 2215.6,1688.65 2221.19,1688.65 2226.79,1688.65 2232.38,1688.65 2237.98,1688.65 2243.57,1688.65 2249.16,1688.65 2254.76,1688.65 2260.35,1688.65 2265.95,1688.65 2271.54,1688.65 2277.13,1688.65 2282.73,1688.65 2288.32,1688.65 2293.92,1688.65 2299.51,1688.65 2305.11,1688.65 2310.7,1688.65 2316.29,1688.65 2321.89,1688.65 2327.48,1688.65 2333.08,1688.65 2338.67,1688.65 2344.26,1688.65 2349.86,1688.65 2355.45,1688.65 2361.05,1688.65 2366.64,1688.65 2372.24,1688.65 2377.83,1688.65 2383.42,1688.65 2389.02,1688.65 2394.61,1688.65 2400.21,1688.65 2405.8,1688.65 2411.39,1688.65 2416.99,1688.65 2422.58,1688.65 2428.18,1688.65 2433.77,1688.65 2439.37,1688.65 2444.96,1688.65 2450.55,1688.65 2456.15,1688.65 2461.74,1688.65 2467.34,1688.65 2472.93,1688.65 2478.52,1688.65 2484.12,1688.65 2489.71,1688.65 2495.31,1688.65 2500.9,1688.65 2506.5,1688.65 2512.09,1688.65 2517.68,1688.65 2523.28,1688.65 2528.87,1688.65 2534.47,1688.65 2540.06,1688.65 2545.65,1688.65 2551.25,1688.65 2556.84,1688.65 2562.44,1688.65 2568.03,1688.65 2573.63,1688.65 "/>
<polyline clip-path="url(#clip791)" style="stroke:#3da44d; stroke-linecap:round; stroke-linejoin:round; stroke-width:8; stroke-opacity:1; fill:none" points="335.956,1673.4 341.55,1673.96 347.144,1674.18 352.738,1674.11 358.332,1673.78 363.926,1673.22 369.521,1672.47 375.115,1671.52 380.709,1670.4 386.303,1669.12 391.897,1667.66 397.492,1666.03 403.086,1664.23 408.68,1662.24 414.274,1660.08 419.868,1657.72 425.462,1655.15 431.057,1652.36 436.651,1649.34 442.245,1646.08 447.839,1642.56 453.433,1638.77 459.027,1634.68 464.622,1630.28 470.216,1625.56 475.81,1620.48 481.404,1615.05 486.998,1609.25 492.593,1603.06 498.187,1596.46 503.781,1589.43 509.375,1581.94 514.969,1574 520.563,1565.58 526.158,1556.7 531.752,1547.35 537.346,1537.55 542.94,1527.31 548.534,1516.61 554.128,1505.46 559.723,1493.86 565.317,1481.84 570.911,1469.43 576.505,1456.69 582.099,1443.66 587.694,1430.44 593.288,1417.09 598.882,1403.65 604.476,1390.16 610.07,1376.69 615.664,1363.28 621.259,1350.03 626.853,1337.02 632.447,1324.36 638.041,1312.16 643.635,1300.53 649.229,1289.55 654.824,1279.23 660.418,1269.61 666.012,1260.73 671.606,1252.64 677.2,1245.38 682.794,1239.01 688.389,1233.59 693.983,1229.19 699.577,1225.81 705.171,1223.42 710.765,1221.96 716.36,1221.41 721.954,1221.73 727.548,1222.91 733.142,1224.91 738.736,1227.72 744.33,1231.33 749.925,1235.72 755.519,1240.78 761.113,1246.47 766.707,1252.71 772.301,1259.46 777.895,1266.66 783.49,1274.28 789.084,1282.25 794.678,1290.56 800.272,1299.16 805.866,1307.99 811.461,1317.01 817.055,1326.18 822.649,1335.46 828.243,1344.82 833.837,1354.23 839.431,1363.65 845.026,1373.07 850.62,1382.44 856.214,1391.74 861.808,1400.96 867.402,1410.07 872.996,1419.05 878.591,1427.9 884.185,1436.61 889.779,1445.17 895.373,1453.58 900.967,1461.82 906.562,1469.89 912.156,1477.77 917.75,1485.46 923.344,1492.95 928.938,1500.22 934.532,1507.27 940.127,1514.13 945.721,1520.79 951.315,1527.24 956.909,1533.51 962.503,1539.58 968.097,1545.45 973.692,1551.14 979.286,1556.63 984.88,1561.94 990.474,1567.06 996.068,1572 1001.66,1576.76 1007.26,1581.35 1012.85,1585.77 1018.45,1590.03 1024.04,1594.14 1029.63,1598.09 1035.23,1601.89 1040.82,1605.55 1046.42,1609.07 1052.01,1612.44 1057.6,1615.68 1063.2,1618.8 1068.79,1621.79 1074.39,1624.66 1079.98,1627.41 1085.58,1630.05 1091.17,1632.59 1096.76,1635.02 1102.36,1637.35 1107.95,1639.59 1113.55,1641.73 1119.14,1643.78 1124.73,1645.75 1130.33,1647.63 1135.92,1649.44 1141.52,1651.16 1147.11,1652.82 1152.71,1654.4 1158.3,1655.92 1163.89,1657.37 1169.49,1658.76 1175.08,1660.09 1180.68,1661.36 1186.27,1662.57 1191.86,1663.73 1197.46,1664.85 1203.05,1665.91 1208.65,1666.93 1214.24,1667.9 1219.84,1668.83 1225.43,1669.72 1231.02,1670.57 1236.62,1671.38 1242.21,1672.16 1247.81,1672.9 1253.4,1673.61 1258.99,1674.28 1264.59,1674.93 1270.18,1675.55 1275.78,1676.14 1281.37,1676.71 1286.97,1677.25 1292.56,1677.76 1298.15,1678.25 1303.75,1678.72 1309.34,1679.17 1314.94,1679.6 1320.53,1680.01 1326.12,1680.4 1331.72,1680.78 1337.31,1681.14 1342.91,1681.48 1348.5,1681.8 1354.1,1682.11 1359.69,1682.41 1365.28,1682.69 1370.88,1682.96 1376.47,1683.22 1382.07,1683.47 1387.66,1683.7 1393.25,1683.93 1398.85,1684.14 1404.44,1684.35 1410.04,1684.55 1415.63,1684.73 1421.23,1684.91 1426.82,1685.08 1432.41,1685.24 1438.01,1685.4 1443.6,1685.55 1449.2,1685.69 1454.79,1685.82 1460.38,1685.95 1465.98,1686.08 1471.57,1686.19 1477.17,1686.31 1482.76,1686.41 1488.36,1686.52 1493.95,1686.61 1499.54,1686.71 1505.14,1686.79 1510.73,1686.88 1516.33,1686.96 1521.92,1687.04 1527.51,1687.11 1533.11,1687.18 1538.7,1687.25 1544.3,1687.31 1549.89,1687.37 1555.49,1687.43 1561.08,1687.49 1566.67,1687.54 1572.27,1687.59 1577.86,1687.64 1583.46,1687.69 1589.05,1687.73 1594.65,1687.77 1600.24,1687.81 1605.83,1687.85 1611.43,1687.89 1617.02,1687.92 1622.62,1687.96 1628.21,1687.99 1633.8,1688.02 1639.4,1688.05 1644.99,1688.08 1650.59,1688.1 1656.18,1688.13 1661.78,1688.15 1667.37,1688.17 1672.96,1688.2 1678.56,1688.22 1684.15,1688.24 1689.75,1688.26 1695.34,1688.27 1700.93,1688.29 1706.53,1688.31 1712.12,1688.32 1717.72,1688.34 1723.31,1688.35 1728.91,1688.37 1734.5,1688.38 1740.09,1688.39 1745.69,1688.41 1751.28,1688.42 1756.88,1688.43 1762.47,1688.44 1768.06,1688.45 1773.66,1688.46 1779.25,1688.47 1784.85,1688.48 1790.44,1688.48 1796.04,1688.49 1801.63,1688.5 1807.22,1688.51 1812.82,1688.51 1818.41,1688.52 1824.01,1688.53 1829.6,1688.53 1835.19,1688.54 1840.79,1688.54 1846.38,1688.55 1851.98,1688.55 1857.57,1688.56 1863.17,1688.56 1868.76,1688.57 1874.35,1688.57 1879.95,1688.57 1885.54,1688.58 1891.14,1688.58 1896.73,1688.58 1902.32,1688.59 1907.92,1688.59 1913.51,1688.59 1919.11,1688.6 1924.7,1688.6 1930.3,1688.6 1935.89,1688.6 1941.48,1688.61 1947.08,1688.61 1952.67,1688.61 1958.27,1688.61 1963.86,1688.61 1969.45,1688.62 1975.05,1688.62 1980.64,1688.62 1986.24,1688.62 1991.83,1688.62 1997.43,1688.62 2003.02,1688.63 2008.61,1688.63 2014.21,1688.63 2019.8,1688.63 2025.4,1688.63 2030.99,1688.63 2036.58,1688.63 2042.18,1688.63 2047.77,1688.63 2053.37,1688.64 2058.96,1688.64 2064.56,1688.64 2070.15,1688.64 2075.74,1688.64 2081.34,1688.64 2086.93,1688.64 2092.53,1688.64 2098.12,1688.64 2103.72,1688.64 2109.31,1688.64 2114.9,1688.64 2120.5,1688.64 2126.09,1688.64 2131.69,1688.65 2137.28,1688.65 2142.87,1688.65 2148.47,1688.65 2154.06,1688.65 2159.66,1688.65 2165.25,1688.65 2170.85,1688.65 2176.44,1688.65 2182.03,1688.65 2187.63,1688.65 2193.22,1688.65 2198.82,1688.65 2204.41,1688.65 2210,1688.65 2215.6,1688.65 2221.19,1688.65 2226.79,1688.65 2232.38,1688.65 2237.98,1688.65 2243.57,1688.65 2249.16,1688.65 2254.76,1688.65 2260.35,1688.65 2265.95,1688.65 2271.54,1688.65 2277.13,1688.65 2282.73,1688.65 2288.32,1688.65 2293.92,1688.65 2299.51,1688.65 2305.11,1688.65 2310.7,1688.65 2316.29,1688.65 2321.89,1688.65 2327.48,1688.65 2333.08,1688.65 2338.67,1688.65 2344.26,1688.65 2349.86,1688.65 2355.45,1688.65 2361.05,1688.65 2366.64,1688.65 2372.24,1688.65 2377.83,1688.65 2383.42,1688.65 2389.02,1688.65 2394.61,1688.65 2400.21,1688.65 2405.8,1688.65 2411.39,1688.65 2416.99,1688.65 2422.58,1688.65 2428.18,1688.65 2433.77,1688.65 2439.37,1688.65 2444.96,1688.65 2450.55,1688.65 2456.15,1688.65 2461.74,1688.65 2467.34,1688.65 2472.93,1688.65 2478.52,1688.65 2484.12,1688.65 2489.71,1688.65 2495.31,1688.65 2500.9,1688.65 2506.5,1688.65 2512.09,1688.65 2517.68,1688.65 2523.28,1688.65 2528.87,1688.65 2534.47,1688.65 2540.06,1688.65 2545.65,1688.65 2551.25,1688.65 2556.84,1688.65 2562.44,1688.65 2568.03,1688.65 2573.63,1688.65 "/>
<polyline clip-path="url(#clip791)" style="stroke:#c271d2; stroke-linecap:round; stroke-linejoin:round; stroke-width:8; stroke-opacity:1; fill:none" points="335.956,1688.65 341.55,1687.91 347.144,1687.18 352.738,1686.46 358.332,1685.72 363.926,1684.96 369.521,1684.17 375.115,1683.34 380.709,1682.46 386.303,1681.51 391.897,1680.5 397.492,1679.41 403.086,1678.24 408.68,1676.97 414.274,1675.59 419.868,1674.1 425.462,1672.49 431.057,1670.75 436.651,1668.86 442.245,1666.82 447.839,1664.6 453.433,1662.2 459.027,1659.6 464.622,1656.8 470.216,1653.76 475.81,1650.48 481.404,1646.94 486.998,1643.12 492.593,1638.99 498.187,1634.54 503.781,1629.76 509.375,1624.61 514.969,1619.08 520.563,1613.14 526.158,1606.77 531.752,1599.95 537.346,1592.64 542.94,1584.82 548.534,1576.48 554.128,1567.59 559.723,1558.14 565.317,1548.1 570.911,1537.46 576.505,1526.19 582.099,1514.28 587.694,1501.71 593.288,1488.46 598.882,1474.53 604.476,1459.92 610.07,1444.65 615.664,1428.71 621.259,1412.12 626.853,1394.88 632.447,1377 638.041,1358.5 643.635,1339.38 649.229,1319.67 654.824,1299.43 660.418,1278.69 666.012,1257.51 671.606,1235.91 677.2,1213.95 682.794,1191.65 688.389,1169.06 693.983,1146.21 699.577,1123.13 705.171,1099.91 710.765,1076.59 716.36,1053.22 721.954,1029.87 727.548,1006.56 733.142,983.341 738.736,960.244 744.33,937.299 749.925,914.538 755.519,892.01 761.113,869.749 766.707,847.789 772.301,826.157 777.895,804.878 783.49,783.973 789.084,763.46 794.678,743.353 800.272,723.664 805.866,704.413 811.461,685.609 817.055,667.26 822.649,649.37 828.243,631.944 833.837,614.986 839.431,598.496 845.026,582.477 850.62,566.928 856.214,551.848 861.808,537.235 867.402,523.087 872.996,509.395 878.591,496.148 884.185,483.337 889.779,470.954 895.373,458.99 900.967,447.437 906.562,436.288 912.156,425.534 917.75,415.169 923.344,405.187 928.938,395.581 934.532,386.337 940.127,377.443 945.721,368.887 951.315,360.658 956.909,352.745 962.503,345.14 968.097,337.831 973.692,330.811 979.286,324.07 984.88,317.601 990.474,311.393 996.068,305.439 1001.66,299.727 1007.26,294.249 1012.85,288.995 1018.45,283.959 1024.04,279.131 1029.63,274.503 1035.23,270.069 1040.82,265.821 1046.42,261.753 1052.01,257.858 1057.6,254.129 1063.2,250.559 1068.79,247.142 1074.39,243.871 1079.98,240.741 1085.58,237.745 1091.17,234.879 1096.76,232.136 1102.36,229.513 1107.95,227.004 1113.55,224.604 1119.14,222.31 1124.73,220.116 1130.33,218.018 1135.92,216.012 1141.52,214.095 1147.11,212.262 1152.71,210.51 1158.3,208.836 1163.89,207.235 1169.49,205.706 1175.08,204.244 1180.68,202.848 1186.27,201.513 1191.86,200.238 1197.46,199.02 1203.05,197.856 1208.65,196.745 1214.24,195.683 1219.84,194.669 1225.43,193.7 1231.02,192.774 1236.62,191.89 1242.21,191.046 1247.81,190.24 1253.4,189.47 1258.99,188.734 1264.59,188.032 1270.18,187.361 1275.78,186.721 1281.37,186.11 1286.97,185.526 1292.56,184.969 1298.15,184.436 1303.75,183.928 1309.34,183.443 1314.94,182.98 1320.53,182.538 1326.12,182.115 1331.72,181.712 1337.31,181.327 1342.91,180.96 1348.5,180.609 1354.1,180.274 1359.69,179.954 1365.28,179.649 1370.88,179.358 1376.47,179.08 1382.07,178.815 1387.66,178.561 1393.25,178.32 1398.85,178.089 1404.44,177.868 1410.04,177.658 1415.63,177.457 1421.23,177.265 1426.82,177.082 1432.41,176.908 1438.01,176.741 1443.6,176.582 1449.2,176.431 1454.79,176.286 1460.38,176.148 1465.98,176.016 1471.57,175.89 1477.17,175.769 1482.76,175.654 1488.36,175.545 1493.95,175.44 1499.54,175.34 1505.14,175.245 1510.73,175.154 1516.33,175.068 1521.92,174.985 1527.51,174.906 1533.11,174.831 1538.7,174.759 1544.3,174.69 1549.89,174.624 1555.49,174.562 1561.08,174.502 1566.67,174.445 1572.27,174.391 1577.86,174.339 1583.46,174.289 1589.05,174.242 1594.65,174.197 1600.24,174.154 1605.83,174.113 1611.43,174.074 1617.02,174.036 1622.62,174 1628.21,173.966 1633.8,173.934 1639.4,173.903 1644.99,173.873 1650.59,173.845 1656.18,173.818 1661.78,173.792 1667.37,173.767 1672.96,173.744 1678.56,173.722 1684.15,173.7 1689.75,173.68 1695.34,173.66 1700.93,173.642 1706.53,173.624 1712.12,173.607 1717.72,173.591 1723.31,173.576 1728.91,173.561 1734.5,173.547 1740.09,173.534 1745.69,173.521 1751.28,173.509 1756.88,173.497 1762.47,173.486 1768.06,173.475 1773.66,173.465 1779.25,173.456 1784.85,173.446 1790.44,173.438 1796.04,173.429 1801.63,173.421 1807.22,173.414 1812.82,173.406 1818.41,173.399 1824.01,173.393 1829.6,173.386 1835.19,173.38 1840.79,173.375 1846.38,173.369 1851.98,173.364 1857.57,173.359 1863.17,173.354 1868.76,173.349 1874.35,173.345 1879.95,173.341 1885.54,173.337 1891.14,173.333 1896.73,173.329 1902.32,173.326 1907.92,173.323 1913.51,173.32 1919.11,173.317 1924.7,173.314 1930.3,173.311 1935.89,173.308 1941.48,173.306 1947.08,173.304 1952.67,173.301 1958.27,173.299 1963.86,173.297 1969.45,173.295 1975.05,173.293 1980.64,173.291 1986.24,173.29 1991.83,173.288 1997.43,173.286 2003.02,173.285 2008.61,173.284 2014.21,173.282 2019.8,173.281 2025.4,173.28 2030.99,173.279 2036.58,173.277 2042.18,173.276 2047.77,173.275 2053.37,173.274 2058.96,173.273 2064.56,173.272 2070.15,173.272 2075.74,173.271 2081.34,173.27 2086.93,173.269 2092.53,173.269 2098.12,173.268 2103.72,173.267 2109.31,173.267 2114.9,173.266 2120.5,173.266 2126.09,173.265 2131.69,173.265 2137.28,173.264 2142.87,173.264 2148.47,173.263 2154.06,173.263 2159.66,173.262 2165.25,173.262 2170.85,173.262 2176.44,173.261 2182.03,173.261 2187.63,173.261 2193.22,173.26 2198.82,173.26 2204.41,173.26 2210,173.259 2215.6,173.259 2221.19,173.259 2226.79,173.259 2232.38,173.258 2237.98,173.258 2243.57,173.258 2249.16,173.258 2254.76,173.258 2260.35,173.258 2265.95,173.257 2271.54,173.257 2277.13,173.257 2282.73,173.257 2288.32,173.257 2293.92,173.257 2299.51,173.256 2305.11,173.256 2310.7,173.256 2316.29,173.256 2321.89,173.256 2327.48,173.256 2333.08,173.256 2338.67,173.256 2344.26,173.256 2349.86,173.256 2355.45,173.256 2361.05,173.255 2366.64,173.255 2372.24,173.255 2377.83,173.255 2383.42,173.255 2389.02,173.255 2394.61,173.255 2400.21,173.255 2405.8,173.255 2411.39,173.255 2416.99,173.255 2422.58,173.255 2428.18,173.255 2433.77,173.255 2439.37,173.255 2444.96,173.255 2450.55,173.255 2456.15,173.255 2461.74,173.255 2467.34,173.255 2472.93,173.254 2478.52,173.254 2484.12,173.254 2489.71,173.254 2495.31,173.254 2500.9,173.254 2506.5,173.254 2512.09,173.254 2517.68,173.254 2523.28,173.254 2528.87,173.254 2534.47,173.254 2540.06,173.254 2545.65,173.254 2551.25,173.254 2556.84,173.254 2562.44,173.254 2568.03,173.254 2573.63,173.254 "/>
<path clip-path="url(#clip790)" d="M2297.58 1088.18 L2561.69 1088.18 L2561.69 828.979 L2297.58 828.979  Z" fill="#ffffff" fill-rule="evenodd" fill-opacity="1"/>
<polyline clip-path="url(#clip790)" style="stroke:#000000; stroke-linecap:round; stroke-linejoin:round; stroke-width:4; stroke-opacity:1; fill:none" points="2297.58,1088.18 2561.69,1088.18 2561.69,828.979 2297.58,828.979 2297.58,1088.18 "/>
<polyline clip-path="url(#clip790)" style="stroke:#009af9; stroke-linecap:round; stroke-linejoin:round; stroke-width:8; stroke-opacity:1; fill:none" points="2323.93,880.819 2482.06,880.819 "/>
<path clip-path="url(#clip790)" d="M2530.66 864.673 L2530.66 869.233 Q2528 867.96 2525.64 867.335 Q2523.28 866.71 2521.08 866.71 Q2517.26 866.71 2515.17 868.191 Q2513.11 869.673 2513.11 872.404 Q2513.11 874.696 2514.48 875.877 Q2515.87 877.034 2519.71 877.752 L2522.54 878.33 Q2527.77 879.326 2530.24 881.849 Q2532.74 884.349 2532.74 888.562 Q2532.74 893.585 2529.36 896.177 Q2526.01 898.77 2519.5 898.77 Q2517.05 898.77 2514.27 898.214 Q2511.52 897.659 2508.55 896.571 L2508.55 891.756 Q2511.4 893.353 2514.13 894.164 Q2516.86 894.974 2519.5 894.974 Q2523.51 894.974 2525.68 893.4 Q2527.86 891.826 2527.86 888.909 Q2527.86 886.363 2526.29 884.927 Q2524.73 883.492 2521.17 882.775 L2518.32 882.219 Q2513.09 881.178 2510.75 878.955 Q2508.42 876.733 2508.42 872.775 Q2508.42 868.191 2511.63 865.553 Q2514.87 862.914 2520.55 862.914 Q2522.98 862.914 2525.5 863.354 Q2528.02 863.793 2530.66 864.673 Z" fill="#000000" fill-rule="nonzero" fill-opacity="1" /><polyline clip-path="url(#clip790)" style="stroke:#e26f46; stroke-linecap:round; stroke-linejoin:round; stroke-width:8; stroke-opacity:1; fill:none" points="2323.93,932.659 2482.06,932.659 "/>
<path clip-path="url(#clip790)" d="M2508.42 915.379 L2530.27 915.379 L2530.27 919.314 L2513.09 919.314 L2513.09 929.545 L2529.55 929.545 L2529.55 933.48 L2513.09 933.48 L2513.09 946.004 L2530.68 946.004 L2530.68 949.939 L2508.42 949.939 L2508.42 915.379 Z" fill="#000000" fill-rule="nonzero" fill-opacity="1" /><polyline clip-path="url(#clip790)" style="stroke:#3da44d; stroke-linecap:round; stroke-linejoin:round; stroke-width:8; stroke-opacity:1; fill:none" points="2323.93,984.499 2482.06,984.499 "/>
<path clip-path="url(#clip790)" d="M2508.42 967.219 L2513.09 967.219 L2513.09 1001.78 L2508.42 1001.78 L2508.42 967.219 Z" fill="#000000" fill-rule="nonzero" fill-opacity="1" /><polyline clip-path="url(#clip790)" style="stroke:#c271d2; stroke-linecap:round; stroke-linejoin:round; stroke-width:8; stroke-opacity:1; fill:none" points="2323.93,1036.34 2482.06,1036.34 "/>
<path clip-path="url(#clip790)" d="M2524.8 1037.42 Q2526.31 1037.92 2527.72 1039.59 Q2529.16 1041.26 2530.59 1044.17 L2535.34 1053.62 L2530.31 1053.62 L2525.89 1044.75 Q2524.18 1041.28 2522.56 1040.15 Q2520.96 1039.01 2518.18 1039.01 L2513.09 1039.01 L2513.09 1053.62 L2508.42 1053.62 L2508.42 1019.06 L2518.97 1019.06 Q2524.9 1019.06 2527.81 1021.54 Q2530.73 1024.01 2530.73 1029.01 Q2530.73 1032.28 2529.2 1034.43 Q2527.7 1036.58 2524.8 1037.42 M2513.09 1022.9 L2513.09 1035.17 L2518.97 1035.17 Q2522.35 1035.17 2524.06 1033.62 Q2525.8 1032.04 2525.8 1029.01 Q2525.8 1025.98 2524.06 1024.45 Q2522.35 1022.9 2518.97 1022.9 L2513.09 1022.9 Z" fill="#000000" fill-rule="nonzero" fill-opacity="1" /></svg>
