<?xml version="1.0" encoding="utf-8"?>
<svg xmlns="http://www.w3.org/2000/svg" xmlns:xlink="http://www.w3.org/1999/xlink" width="672" height="480" viewBox="0 0 2688 1920">
<defs>
  <clipPath id="clip880">
    <rect x="0" y="0" width="2688" height="1920"/>
  </clipPath>
</defs>
<path clip-path="url(#clip880)" d="M0 1920 L2688 1920 L2688 -4.26326e-14 L0 -4.26326e-14  Z" fill="#ffffff" fill-rule="evenodd" fill-opacity="1"/>
<defs>
  <clipPath id="clip881">
    <rect x="240" y="127" width="2401" height="1607"/>
  </clipPath>
</defs>
<path clip-path="url(#clip880)" d="M240.4 1734.12 L2640.76 1734.12 L2640.76 127.792 L240.4 127.792  Z" fill="#ffffff" fill-rule="evenodd" fill-opacity="1"/>
<polyline clip-path="url(#clip881)" style="stroke:#000000; stroke-linecap:round; stroke-linejoin:round; stroke-width:2; stroke-opacity:0.1; fill:none" points="308.334,1734.12 308.334,127.792 "/>
<polyline clip-path="url(#clip881)" style="stroke:#000000; stroke-linecap:round; stroke-linejoin:round; stroke-width:2; stroke-opacity:0.1; fill:none" points="874.456,1734.12 874.456,127.792 "/>
<polyline clip-path="url(#clip881)" style="stroke:#000000; stroke-linecap:round; stroke-linejoin:round; stroke-width:2; stroke-opacity:0.1; fill:none" points="1440.58,1734.12 1440.58,127.792 "/>
<polyline clip-path="url(#clip881)" style="stroke:#000000; stroke-linecap:round; stroke-linejoin:round; stroke-width:2; stroke-opacity:0.1; fill:none" points="2006.7,1734.12 2006.7,127.792 "/>
<polyline clip-path="url(#clip881)" style="stroke:#000000; stroke-linecap:round; stroke-linejoin:round; stroke-width:2; stroke-opacity:0.1; fill:none" points="2572.82,1734.12 2572.82,127.792 "/>
<polyline clip-path="url(#clip881)" style="stroke:#000000; stroke-linecap:round; stroke-linejoin:round; stroke-width:2; stroke-opacity:0.1; fill:none" points="240.4,1688.66 2640.76,1688.66 "/>
<polyline clip-path="url(#clip881)" style="stroke:#000000; stroke-linecap:round; stroke-linejoin:round; stroke-width:2; stroke-opacity:0.1; fill:none" points="240.4,1190.47 2640.76,1190.47 "/>
<polyline clip-path="url(#clip881)" style="stroke:#000000; stroke-linecap:round; stroke-linejoin:round; stroke-width:2; stroke-opacity:0.1; fill:none" points="240.4,692.28 2640.76,692.28 "/>
<polyline clip-path="url(#clip881)" style="stroke:#000000; stroke-linecap:round; stroke-linejoin:round; stroke-width:2; stroke-opacity:0.1; fill:none" points="240.4,194.091 2640.76,194.091 "/>
<polyline clip-path="url(#clip880)" style="stroke:#000000; stroke-linecap:round; stroke-linejoin:round; stroke-width:4; stroke-opacity:1; fill:none" points="240.4,1734.12 2640.76,1734.12 "/>
<polyline clip-path="url(#clip880)" style="stroke:#000000; stroke-linecap:round; stroke-linejoin:round; stroke-width:4; stroke-opacity:1; fill:none" points="308.334,1734.12 308.334,1715.22 "/>
<polyline clip-path="url(#clip880)" style="stroke:#000000; stroke-linecap:round; stroke-linejoin:round; stroke-width:4; stroke-opacity:1; fill:none" points="874.456,1734.12 874.456,1715.22 "/>
<polyline clip-path="url(#clip880)" style="stroke:#000000; stroke-linecap:round; stroke-linejoin:round; stroke-width:4; stroke-opacity:1; fill:none" points="1440.58,1734.12 1440.58,1715.22 "/>
<polyline clip-path="url(#clip880)" style="stroke:#000000; stroke-linecap:round; stroke-linejoin:round; stroke-width:4; stroke-opacity:1; fill:none" points="2006.7,1734.12 2006.7,1715.22 "/>
<polyline clip-path="url(#clip880)" style="stroke:#000000; stroke-linecap:round; stroke-linejoin:round; stroke-width:4; stroke-opacity:1; fill:none" points="2572.82,1734.12 2572.82,1715.22 "/>
<path clip-path="url(#clip880)" d="M308.334 1767.34 Q304.723 1767.34 302.895 1770.9 Q301.089 1774.45 301.089 1781.58 Q301.089 1788.68 302.895 1792.25 Q304.723 1795.79 308.334 1795.79 Q311.969 1795.79 313.774 1792.25 Q315.603 1788.68 315.603 1781.58 Q315.603 1774.45 313.774 1770.9 Q311.969 1767.34 308.334 1767.34 M308.334 1763.64 Q314.144 1763.64 317.2 1768.24 Q320.279 1772.83 320.279 1781.58 Q320.279 1790.3 317.2 1794.91 Q314.144 1799.49 308.334 1799.49 Q302.524 1799.49 299.446 1794.91 Q296.39 1790.3 296.39 1781.58 Q296.39 1772.83 299.446 1768.24 Q302.524 1763.64 308.334 1763.64 Z" fill="#000000" fill-rule="nonzero" fill-opacity="1" /><path clip-path="url(#clip880)" d="M849.155 1764.26 L867.512 1764.26 L867.512 1768.2 L853.438 1768.2 L853.438 1776.67 Q854.456 1776.32 855.475 1776.16 Q856.493 1775.97 857.512 1775.97 Q863.299 1775.97 866.678 1779.15 Q870.058 1782.32 870.058 1787.73 Q870.058 1793.31 866.586 1796.41 Q863.114 1799.49 856.794 1799.49 Q854.618 1799.49 852.35 1799.12 Q850.104 1798.75 847.697 1798.01 L847.697 1793.31 Q849.78 1794.45 852.002 1795 Q854.225 1795.56 856.702 1795.56 Q860.706 1795.56 863.044 1793.45 Q865.382 1791.34 865.382 1787.73 Q865.382 1784.12 863.044 1782.02 Q860.706 1779.91 856.702 1779.91 Q854.827 1779.91 852.952 1780.33 Q851.1 1780.74 849.155 1781.62 L849.155 1764.26 Z" fill="#000000" fill-rule="nonzero" fill-opacity="1" /><path clip-path="url(#clip880)" d="M889.271 1767.34 Q885.66 1767.34 883.831 1770.9 Q882.025 1774.45 882.025 1781.58 Q882.025 1788.68 883.831 1792.25 Q885.66 1795.79 889.271 1795.79 Q892.905 1795.79 894.711 1792.25 Q896.539 1788.68 896.539 1781.58 Q896.539 1774.45 894.711 1770.9 Q892.905 1767.34 889.271 1767.34 M889.271 1763.64 Q895.081 1763.64 898.137 1768.24 Q901.215 1772.83 901.215 1781.58 Q901.215 1790.3 898.137 1794.91 Q895.081 1799.49 889.271 1799.49 Q883.461 1799.49 880.382 1794.91 Q877.326 1790.3 877.326 1781.58 Q877.326 1772.83 880.382 1768.24 Q883.461 1763.64 889.271 1763.64 Z" fill="#000000" fill-rule="nonzero" fill-opacity="1" /><path clip-path="url(#clip880)" d="M1400.18 1794.89 L1407.82 1794.89 L1407.82 1768.52 L1399.51 1770.19 L1399.51 1765.93 L1407.78 1764.26 L1412.45 1764.26 L1412.45 1794.89 L1420.09 1794.89 L1420.09 1798.82 L1400.18 1798.82 L1400.18 1794.89 Z" fill="#000000" fill-rule="nonzero" fill-opacity="1" /><path clip-path="url(#clip880)" d="M1439.54 1767.34 Q1435.93 1767.34 1434.1 1770.9 Q1432.29 1774.45 1432.29 1781.58 Q1432.29 1788.68 1434.1 1792.25 Q1435.93 1795.79 1439.54 1795.79 Q1443.17 1795.79 1444.98 1792.25 Q1446.8 1788.68 1446.8 1781.58 Q1446.8 1774.45 1444.98 1770.9 Q1443.17 1767.34 1439.54 1767.34 M1439.54 1763.64 Q1445.35 1763.64 1448.4 1768.24 Q1451.48 1772.83 1451.48 1781.58 Q1451.48 1790.3 1448.4 1794.91 Q1445.35 1799.49 1439.54 1799.49 Q1433.73 1799.49 1430.65 1794.91 Q1427.59 1790.3 1427.59 1781.58 Q1427.59 1772.83 1430.65 1768.24 Q1433.73 1763.64 1439.54 1763.64 Z" fill="#000000" fill-rule="nonzero" fill-opacity="1" /><path clip-path="url(#clip880)" d="M1469.7 1767.34 Q1466.09 1767.34 1464.26 1770.9 Q1462.45 1774.45 1462.45 1781.58 Q1462.45 1788.68 1464.26 1792.25 Q1466.09 1795.79 1469.7 1795.79 Q1473.33 1795.79 1475.14 1792.25 Q1476.97 1788.68 1476.97 1781.58 Q1476.97 1774.45 1475.14 1770.9 Q1473.33 1767.34 1469.7 1767.34 M1469.7 1763.64 Q1475.51 1763.64 1478.56 1768.24 Q1481.64 1772.83 1481.64 1781.58 Q1481.64 1790.3 1478.56 1794.91 Q1475.51 1799.49 1469.7 1799.49 Q1463.89 1799.49 1460.81 1794.91 Q1457.75 1790.3 1457.75 1781.58 Q1457.75 1772.83 1460.81 1768.24 Q1463.89 1763.64 1469.7 1763.64 Z" fill="#000000" fill-rule="nonzero" fill-opacity="1" /><path clip-path="url(#clip880)" d="M1966.31 1794.89 L1973.95 1794.89 L1973.95 1768.52 L1965.63 1770.19 L1965.63 1765.93 L1973.9 1764.26 L1978.57 1764.26 L1978.57 1794.89 L1986.21 1794.89 L1986.21 1798.82 L1966.31 1798.82 L1966.31 1794.89 Z" fill="#000000" fill-rule="nonzero" fill-opacity="1" /><path clip-path="url(#clip880)" d="M1995.7 1764.26 L2014.06 1764.26 L2014.06 1768.2 L1999.99 1768.2 L1999.99 1776.67 Q2001.01 1776.32 2002.02 1776.16 Q2003.04 1775.97 2004.06 1775.97 Q2009.85 1775.97 2013.23 1779.15 Q2016.61 1782.32 2016.61 1787.73 Q2016.61 1793.31 2013.13 1796.41 Q2009.66 1799.49 2003.34 1799.49 Q2001.17 1799.49 1998.9 1799.12 Q1996.65 1798.75 1994.25 1798.01 L1994.25 1793.31 Q1996.33 1794.45 1998.55 1795 Q2000.77 1795.56 2003.25 1795.56 Q2007.26 1795.56 2009.59 1793.45 Q2011.93 1791.34 2011.93 1787.73 Q2011.93 1784.12 2009.59 1782.02 Q2007.26 1779.91 2003.25 1779.91 Q2001.38 1779.91 1999.5 1780.33 Q1997.65 1780.74 1995.7 1781.62 L1995.7 1764.26 Z" fill="#000000" fill-rule="nonzero" fill-opacity="1" /><path clip-path="url(#clip880)" d="M2035.82 1767.34 Q2032.21 1767.34 2030.38 1770.9 Q2028.57 1774.45 2028.57 1781.58 Q2028.57 1788.68 2030.38 1792.25 Q2032.21 1795.79 2035.82 1795.79 Q2039.45 1795.79 2041.26 1792.25 Q2043.09 1788.68 2043.09 1781.58 Q2043.09 1774.45 2041.26 1770.9 Q2039.45 1767.34 2035.82 1767.34 M2035.82 1763.64 Q2041.63 1763.64 2044.69 1768.24 Q2047.76 1772.83 2047.76 1781.58 Q2047.76 1790.3 2044.69 1794.91 Q2041.63 1799.49 2035.82 1799.49 Q2030.01 1799.49 2026.93 1794.91 Q2023.88 1790.3 2023.88 1781.58 Q2023.88 1772.83 2026.93 1768.24 Q2030.01 1763.64 2035.82 1763.64 Z" fill="#000000" fill-rule="nonzero" fill-opacity="1" /><path clip-path="url(#clip880)" d="M2536.51 1794.89 L2552.83 1794.89 L2552.83 1798.82 L2530.89 1798.82 L2530.89 1794.89 Q2533.55 1792.13 2538.13 1787.5 Q2542.74 1782.85 2543.92 1781.51 Q2546.17 1778.98 2547.05 1777.25 Q2547.95 1775.49 2547.95 1773.8 Q2547.95 1771.04 2546 1769.31 Q2544.08 1767.57 2540.98 1767.57 Q2538.78 1767.57 2536.33 1768.34 Q2533.9 1769.1 2531.12 1770.65 L2531.12 1765.93 Q2533.94 1764.79 2536.4 1764.21 Q2538.85 1763.64 2540.89 1763.64 Q2546.26 1763.64 2549.45 1766.32 Q2552.65 1769.01 2552.65 1773.5 Q2552.65 1775.63 2551.84 1777.55 Q2551.05 1779.45 2548.94 1782.04 Q2548.37 1782.71 2545.26 1785.93 Q2542.16 1789.12 2536.51 1794.89 Z" fill="#000000" fill-rule="nonzero" fill-opacity="1" /><path clip-path="url(#clip880)" d="M2572.65 1767.34 Q2569.04 1767.34 2567.21 1770.9 Q2565.4 1774.45 2565.4 1781.58 Q2565.4 1788.68 2567.21 1792.25 Q2569.04 1795.79 2572.65 1795.79 Q2576.28 1795.79 2578.09 1792.25 Q2579.92 1788.68 2579.92 1781.58 Q2579.92 1774.45 2578.09 1770.9 Q2576.28 1767.34 2572.65 1767.34 M2572.65 1763.64 Q2578.46 1763.64 2581.51 1768.24 Q2584.59 1772.83 2584.59 1781.58 Q2584.59 1790.3 2581.51 1794.91 Q2578.46 1799.49 2572.65 1799.49 Q2566.84 1799.49 2563.76 1794.91 Q2560.7 1790.3 2560.7 1781.58 Q2560.7 1772.83 2563.76 1768.24 Q2566.84 1763.64 2572.65 1763.64 Z" fill="#000000" fill-rule="nonzero" fill-opacity="1" /><path clip-path="url(#clip880)" d="M2602.81 1767.34 Q2599.2 1767.34 2597.37 1770.9 Q2595.56 1774.45 2595.56 1781.58 Q2595.56 1788.68 2597.37 1792.25 Q2599.2 1795.79 2602.81 1795.79 Q2606.44 1795.79 2608.25 1792.25 Q2610.08 1788.68 2610.08 1781.58 Q2610.08 1774.45 2608.25 1770.9 Q2606.44 1767.34 2602.81 1767.34 M2602.81 1763.64 Q2608.62 1763.64 2611.68 1768.24 Q2614.75 1772.83 2614.75 1781.58 Q2614.75 1790.3 2611.68 1794.91 Q2608.62 1799.49 2602.81 1799.49 Q2597 1799.49 2593.92 1794.91 Q2590.87 1790.3 2590.87 1781.58 Q2590.87 1772.83 2593.92 1768.24 Q2597 1763.64 2602.81 1763.64 Z" fill="#000000" fill-rule="nonzero" fill-opacity="1" /><path clip-path="url(#clip880)" d="M1362.45 1835.78 L1402.65 1835.78 L1402.65 1841.19 L1385.79 1841.19 L1385.79 1883.3 L1379.32 1883.3 L1379.32 1841.19 L1362.45 1841.19 L1362.45 1835.78 Z" fill="#000000" fill-rule="nonzero" fill-opacity="1" /><path clip-path="url(#clip880)" d="M1406.6 1847.65 L1412.46 1847.65 L1412.46 1883.3 L1406.6 1883.3 L1406.6 1847.65 M1406.6 1833.78 L1412.46 1833.78 L1412.46 1841.19 L1406.6 1841.19 L1406.6 1833.78 Z" fill="#000000" fill-rule="nonzero" fill-opacity="1" /><path clip-path="url(#clip880)" d="M1452.47 1854.5 Q1454.66 1850.55 1457.72 1848.67 Q1460.77 1846.79 1464.91 1846.79 Q1470.48 1846.79 1473.5 1850.71 Q1476.53 1854.59 1476.53 1861.78 L1476.53 1883.3 L1470.64 1883.3 L1470.64 1861.98 Q1470.64 1856.85 1468.83 1854.37 Q1467.01 1851.89 1463.29 1851.89 Q1458.74 1851.89 1456.09 1854.91 Q1453.45 1857.93 1453.45 1863.15 L1453.45 1883.3 L1447.56 1883.3 L1447.56 1861.98 Q1447.56 1856.82 1445.75 1854.37 Q1443.94 1851.89 1440.15 1851.89 Q1435.66 1851.89 1433.02 1854.94 Q1430.38 1857.97 1430.38 1863.15 L1430.38 1883.3 L1424.49 1883.3 L1424.49 1847.65 L1430.38 1847.65 L1430.38 1853.19 Q1432.38 1849.91 1435.18 1848.35 Q1437.98 1846.79 1441.84 1846.79 Q1445.72 1846.79 1448.42 1848.77 Q1451.16 1850.74 1452.47 1854.5 Z" fill="#000000" fill-rule="nonzero" fill-opacity="1" /><path clip-path="url(#clip880)" d="M1518.7 1864.01 L1518.7 1866.88 L1491.77 1866.88 Q1492.16 1872.92 1495.4 1876.11 Q1498.68 1879.26 1504.51 1879.26 Q1507.88 1879.26 1511.03 1878.43 Q1514.21 1877.6 1517.33 1875.95 L1517.33 1881.49 Q1514.18 1882.82 1510.87 1883.52 Q1507.56 1884.22 1504.16 1884.22 Q1495.63 1884.22 1490.63 1879.26 Q1485.66 1874.29 1485.66 1865.83 Q1485.66 1857.07 1490.37 1851.95 Q1495.12 1846.79 1503.14 1846.79 Q1510.33 1846.79 1514.5 1851.44 Q1518.7 1856.06 1518.7 1864.01 M1512.84 1862.29 Q1512.78 1857.49 1510.14 1854.62 Q1507.53 1851.76 1503.2 1851.76 Q1498.3 1851.76 1495.34 1854.53 Q1492.41 1857.3 1491.96 1862.33 L1512.84 1862.29 Z" fill="#000000" fill-rule="nonzero" fill-opacity="1" /><polyline clip-path="url(#clip880)" style="stroke:#000000; stroke-linecap:round; stroke-linejoin:round; stroke-width:4; stroke-opacity:1; fill:none" points="240.4,1734.12 240.4,127.792 "/>
<polyline clip-path="url(#clip880)" style="stroke:#000000; stroke-linecap:round; stroke-linejoin:round; stroke-width:4; stroke-opacity:1; fill:none" points="240.4,1688.66 259.297,1688.66 "/>
<polyline clip-path="url(#clip880)" style="stroke:#000000; stroke-linecap:round; stroke-linejoin:round; stroke-width:4; stroke-opacity:1; fill:none" points="240.4,1190.47 259.297,1190.47 "/>
<polyline clip-path="url(#clip880)" style="stroke:#000000; stroke-linecap:round; stroke-linejoin:round; stroke-width:4; stroke-opacity:1; fill:none" points="240.4,692.28 259.297,692.28 "/>
<polyline clip-path="url(#clip880)" style="stroke:#000000; stroke-linecap:round; stroke-linejoin:round; stroke-width:4; stroke-opacity:1; fill:none" points="240.4,194.091 259.297,194.091 "/>
<path clip-path="url(#clip880)" d="M188.135 1674.45 Q184.524 1674.45 182.696 1678.02 Q180.89 1681.56 180.89 1688.69 Q180.89 1695.8 182.696 1699.36 Q184.524 1702.9 188.135 1702.9 Q191.77 1702.9 193.575 1699.36 Q195.404 1695.8 195.404 1688.69 Q195.404 1681.56 193.575 1678.02 Q191.77 1674.45 188.135 1674.45 M188.135 1670.75 Q193.946 1670.75 197.001 1675.36 Q200.08 1679.94 200.08 1688.69 Q200.08 1697.42 197.001 1702.02 Q193.946 1706.61 188.135 1706.61 Q182.325 1706.61 179.247 1702.02 Q176.191 1697.42 176.191 1688.69 Q176.191 1679.94 179.247 1675.36 Q182.325 1670.75 188.135 1670.75 Z" fill="#000000" fill-rule="nonzero" fill-opacity="1" /><path clip-path="url(#clip880)" d="M118.622 1203.81 L126.261 1203.81 L126.261 1177.45 L117.951 1179.11 L117.951 1174.85 L126.214 1173.19 L130.89 1173.19 L130.89 1203.81 L138.529 1203.81 L138.529 1207.75 L118.622 1207.75 L118.622 1203.81 Z" fill="#000000" fill-rule="nonzero" fill-opacity="1" /><path clip-path="url(#clip880)" d="M157.973 1176.27 Q154.362 1176.27 152.534 1179.83 Q150.728 1183.37 150.728 1190.5 Q150.728 1197.61 152.534 1201.17 Q154.362 1204.72 157.973 1204.72 Q161.608 1204.72 163.413 1201.17 Q165.242 1197.61 165.242 1190.5 Q165.242 1183.37 163.413 1179.83 Q161.608 1176.27 157.973 1176.27 M157.973 1172.56 Q163.784 1172.56 166.839 1177.17 Q169.918 1181.75 169.918 1190.5 Q169.918 1199.23 166.839 1203.84 Q163.784 1208.42 157.973 1208.42 Q152.163 1208.42 149.085 1203.84 Q146.029 1199.23 146.029 1190.5 Q146.029 1181.75 149.085 1177.17 Q152.163 1172.56 157.973 1172.56 Z" fill="#000000" fill-rule="nonzero" fill-opacity="1" /><path clip-path="url(#clip880)" d="M188.135 1176.27 Q184.524 1176.27 182.696 1179.83 Q180.89 1183.37 180.89 1190.5 Q180.89 1197.61 182.696 1201.17 Q184.524 1204.72 188.135 1204.72 Q191.77 1204.72 193.575 1201.17 Q195.404 1197.61 195.404 1190.5 Q195.404 1183.37 193.575 1179.83 Q191.77 1176.27 188.135 1176.27 M188.135 1172.56 Q193.946 1172.56 197.001 1177.17 Q200.08 1181.75 200.08 1190.5 Q200.08 1199.23 197.001 1203.84 Q193.946 1208.42 188.135 1208.42 Q182.325 1208.42 179.247 1203.84 Q176.191 1199.23 176.191 1190.5 Q176.191 1181.75 179.247 1177.17 Q182.325 1172.56 188.135 1172.56 Z" fill="#000000" fill-rule="nonzero" fill-opacity="1" /><path clip-path="url(#clip880)" d="M121.839 705.624 L138.159 705.624 L138.159 709.56 L116.214 709.56 L116.214 705.624 Q118.876 702.87 123.46 698.24 Q128.066 693.587 129.247 692.245 Q131.492 689.722 132.372 687.986 Q133.275 686.226 133.275 684.537 Q133.275 681.782 131.33 680.046 Q129.409 678.31 126.307 678.31 Q124.108 678.31 121.654 679.074 Q119.224 679.837 116.446 681.388 L116.446 676.666 Q119.27 675.532 121.724 674.953 Q124.177 674.375 126.214 674.375 Q131.585 674.375 134.779 677.06 Q137.974 679.745 137.974 684.236 Q137.974 686.365 137.163 688.287 Q136.376 690.185 134.27 692.777 Q133.691 693.449 130.589 696.666 Q127.488 699.861 121.839 705.624 Z" fill="#000000" fill-rule="nonzero" fill-opacity="1" /><path clip-path="url(#clip880)" d="M157.973 678.078 Q154.362 678.078 152.534 681.643 Q150.728 685.185 150.728 692.314 Q150.728 699.421 152.534 702.986 Q154.362 706.527 157.973 706.527 Q161.608 706.527 163.413 702.986 Q165.242 699.421 165.242 692.314 Q165.242 685.185 163.413 681.643 Q161.608 678.078 157.973 678.078 M157.973 674.375 Q163.784 674.375 166.839 678.981 Q169.918 683.564 169.918 692.314 Q169.918 701.041 166.839 705.648 Q163.784 710.231 157.973 710.231 Q152.163 710.231 149.085 705.648 Q146.029 701.041 146.029 692.314 Q146.029 683.564 149.085 678.981 Q152.163 674.375 157.973 674.375 Z" fill="#000000" fill-rule="nonzero" fill-opacity="1" /><path clip-path="url(#clip880)" d="M188.135 678.078 Q184.524 678.078 182.696 681.643 Q180.89 685.185 180.89 692.314 Q180.89 699.421 182.696 702.986 Q184.524 706.527 188.135 706.527 Q191.77 706.527 193.575 702.986 Q195.404 699.421 195.404 692.314 Q195.404 685.185 193.575 681.643 Q191.77 678.078 188.135 678.078 M188.135 674.375 Q193.946 674.375 197.001 678.981 Q200.08 683.564 200.08 692.314 Q200.08 701.041 197.001 705.648 Q193.946 710.231 188.135 710.231 Q182.325 710.231 179.247 705.648 Q176.191 701.041 176.191 692.314 Q176.191 683.564 179.247 678.981 Q182.325 674.375 188.135 674.375 Z" fill="#000000" fill-rule="nonzero" fill-opacity="1" /><path clip-path="url(#clip880)" d="M131.978 192.737 Q135.335 193.455 137.21 195.723 Q139.108 197.992 139.108 201.325 Q139.108 206.441 135.589 209.242 Q132.071 212.043 125.589 212.043 Q123.413 212.043 121.099 211.603 Q118.807 211.186 116.353 210.33 L116.353 205.816 Q118.298 206.95 120.613 207.529 Q122.927 208.107 125.451 208.107 Q129.849 208.107 132.14 206.371 Q134.455 204.635 134.455 201.325 Q134.455 198.27 132.302 196.557 Q130.173 194.82 126.353 194.82 L122.326 194.82 L122.326 190.978 L126.538 190.978 Q129.988 190.978 131.816 189.612 Q133.645 188.223 133.645 185.631 Q133.645 182.969 131.747 181.557 Q129.872 180.121 126.353 180.121 Q124.432 180.121 122.233 180.538 Q120.034 180.955 117.395 181.834 L117.395 177.668 Q120.057 176.927 122.372 176.557 Q124.71 176.186 126.77 176.186 Q132.094 176.186 135.196 178.617 Q138.298 181.024 138.298 185.145 Q138.298 188.015 136.654 190.006 Q135.011 191.973 131.978 192.737 Z" fill="#000000" fill-rule="nonzero" fill-opacity="1" /><path clip-path="url(#clip880)" d="M157.973 179.89 Q154.362 179.89 152.534 183.455 Q150.728 186.996 150.728 194.126 Q150.728 201.232 152.534 204.797 Q154.362 208.339 157.973 208.339 Q161.608 208.339 163.413 204.797 Q165.242 201.232 165.242 194.126 Q165.242 186.996 163.413 183.455 Q161.608 179.89 157.973 179.89 M157.973 176.186 Q163.784 176.186 166.839 180.793 Q169.918 185.376 169.918 194.126 Q169.918 202.853 166.839 207.459 Q163.784 212.043 157.973 212.043 Q152.163 212.043 149.085 207.459 Q146.029 202.853 146.029 194.126 Q146.029 185.376 149.085 180.793 Q152.163 176.186 157.973 176.186 Z" fill="#000000" fill-rule="nonzero" fill-opacity="1" /><path clip-path="url(#clip880)" d="M188.135 179.89 Q184.524 179.89 182.696 183.455 Q180.89 186.996 180.89 194.126 Q180.89 201.232 182.696 204.797 Q184.524 208.339 188.135 208.339 Q191.77 208.339 193.575 204.797 Q195.404 201.232 195.404 194.126 Q195.404 186.996 193.575 183.455 Q191.77 179.89 188.135 179.89 M188.135 176.186 Q193.946 176.186 197.001 180.793 Q200.08 185.376 200.08 194.126 Q200.08 202.853 197.001 207.459 Q193.946 212.043 188.135 212.043 Q182.325 212.043 179.247 207.459 Q176.191 202.853 176.191 194.126 Q176.191 185.376 179.247 180.793 Q182.325 176.186 188.135 176.186 Z" fill="#000000" fill-rule="nonzero" fill-opacity="1" /><path clip-path="url(#clip880)" d="M14.1184 1058.03 L14.1184 1051.6 L61.6384 1051.6 L61.6384 1058.03 L14.1184 1058.03 Z" fill="#000000" fill-rule="nonzero" fill-opacity="1" /><path clip-path="url(#clip880)" d="M40.1224 1009.43 L61.6384 1009.43 L61.6384 1015.28 L40.3133 1015.28 Q35.2526 1015.28 32.7381 1017.26 Q30.2237 1019.23 30.2237 1023.18 Q30.2237 1027.92 33.2474 1030.66 Q36.2711 1033.39 41.491 1033.39 L61.6384 1033.39 L61.6384 1039.28 L25.9905 1039.28 L25.9905 1033.39 L31.5287 1033.39 Q28.314 1031.29 26.7225 1028.46 Q25.1311 1025.6 25.1311 1021.87 Q25.1311 1015.73 28.9505 1012.58 Q32.7381 1009.43 40.1224 1009.43 Z" fill="#000000" fill-rule="nonzero" fill-opacity="1" /><path clip-path="url(#clip880)" d="M12.1132 979.7 L16.983 979.7 L16.983 985.302 Q16.983 988.453 18.2562 989.694 Q19.5293 990.904 22.8395 990.904 L25.9905 990.904 L25.9905 981.26 L30.542 981.26 L30.542 990.904 L61.6384 990.904 L61.6384 996.792 L30.542 996.792 L30.542 1002.39 L25.9905 1002.39 L25.9905 996.792 L23.5079 996.792 Q17.5559 996.792 14.8505 994.023 Q12.1132 991.254 12.1132 985.238 L12.1132 979.7 Z" fill="#000000" fill-rule="nonzero" fill-opacity="1" /><path clip-path="url(#clip880)" d="M42.3504 944.307 L45.2149 944.307 L45.2149 971.234 Q51.2623 970.852 54.4452 967.605 Q57.5962 964.327 57.5962 958.502 Q57.5962 955.128 56.7687 951.977 Q55.9411 948.794 54.2861 945.675 L59.8242 945.675 Q61.161 948.826 61.8612 952.136 Q62.5615 955.447 62.5615 958.852 Q62.5615 967.382 57.5962 972.379 Q52.631 977.345 44.1646 977.345 Q35.4117 977.345 30.2873 972.634 Q25.1311 967.892 25.1311 959.871 Q25.1311 952.678 29.7781 948.508 Q34.3932 944.307 42.3504 944.307 M40.6316 950.163 Q35.8255 950.227 32.9609 952.869 Q30.0964 955.478 30.0964 959.807 Q30.0964 964.709 32.8654 967.669 Q35.6345 970.597 40.6634 971.043 L40.6316 950.163 Z" fill="#000000" fill-rule="nonzero" fill-opacity="1" /><path clip-path="url(#clip880)" d="M27.3591 909.041 L32.8336 909.041 Q31.465 911.523 30.7966 914.038 Q30.0964 916.52 30.0964 919.067 Q30.0964 924.764 33.7248 927.915 Q37.3214 931.066 43.8463 931.066 Q50.3711 931.066 53.9996 927.915 Q57.5962 924.764 57.5962 919.067 Q57.5962 916.52 56.9278 914.038 Q56.2276 911.523 54.859 909.041 L60.2698 909.041 Q61.4156 911.491 61.9886 914.133 Q62.5615 916.743 62.5615 919.703 Q62.5615 927.756 57.5007 932.498 Q52.44 937.241 43.8463 937.241 Q35.1253 937.241 30.1282 932.466 Q25.1311 927.66 25.1311 919.321 Q25.1311 916.616 25.704 914.038 Q26.2451 911.46 27.3591 909.041 Z" fill="#000000" fill-rule="nonzero" fill-opacity="1" /><path clip-path="url(#clip880)" d="M15.869 893.063 L25.9905 893.063 L25.9905 881 L30.542 881 L30.542 893.063 L49.8937 893.063 Q54.2542 893.063 55.4955 891.885 Q56.7368 890.676 56.7368 887.015 L56.7368 881 L61.6384 881 L61.6384 887.015 Q61.6384 893.795 59.124 896.373 Q56.5777 898.951 49.8937 898.951 L30.542 898.951 L30.542 903.248 L25.9905 903.248 L25.9905 898.951 L15.869 898.951 L15.869 893.063 Z" fill="#000000" fill-rule="nonzero" fill-opacity="1" /><path clip-path="url(#clip880)" d="M42.3504 842.805 L45.2149 842.805 L45.2149 869.732 Q51.2623 869.35 54.4452 866.104 Q57.5962 862.826 57.5962 857.001 Q57.5962 853.627 56.7687 850.476 Q55.9411 847.293 54.2861 844.174 L59.8242 844.174 Q61.161 847.325 61.8612 850.635 Q62.5615 853.945 62.5615 857.351 Q62.5615 865.881 57.5962 870.878 Q52.631 875.843 44.1646 875.843 Q35.4117 875.843 30.2873 871.133 Q25.1311 866.39 25.1311 858.37 Q25.1311 851.176 29.7781 847.007 Q34.3932 842.805 42.3504 842.805 M40.6316 848.662 Q35.8255 848.726 32.9609 851.367 Q30.0964 853.977 30.0964 858.306 Q30.0964 863.208 32.8654 866.168 Q35.6345 869.096 40.6634 869.541 L40.6316 848.662 Z" fill="#000000" fill-rule="nonzero" fill-opacity="1" /><path clip-path="url(#clip880)" d="M31.4013 809.736 L12.1132 809.736 L12.1132 803.879 L61.6384 803.879 L61.6384 809.736 L56.2912 809.736 Q59.4741 811.582 61.0337 814.414 Q62.5615 817.215 62.5615 821.162 Q62.5615 827.623 57.4052 831.697 Q52.249 835.739 43.8463 835.739 Q35.4436 835.739 30.2873 831.697 Q25.1311 827.623 25.1311 821.162 Q25.1311 817.215 26.6907 814.414 Q28.2185 811.582 31.4013 809.736 M43.8463 829.692 Q50.3075 829.692 53.9996 827.05 Q57.6599 824.377 57.6599 819.73 Q57.6599 815.083 53.9996 812.409 Q50.3075 809.736 43.8463 809.736 Q37.3851 809.736 33.7248 812.409 Q30.0327 815.083 30.0327 819.73 Q30.0327 824.377 33.7248 827.05 Q37.3851 829.692 43.8463 829.692 Z" fill="#000000" fill-rule="nonzero" fill-opacity="1" /><path clip-path="url(#clip880)" d="M1022.93 12.096 L1061.17 12.096 L1061.17 18.9825 L1031.11 18.9825 L1031.11 36.8875 L1059.91 36.8875 L1059.91 43.7741 L1031.11 43.7741 L1031.11 65.6895 L1061.9 65.6895 L1061.9 72.576 L1022.93 72.576 L1022.93 12.096 Z" fill="#000000" fill-rule="nonzero" fill-opacity="1" /><path clip-path="url(#clip880)" d="M1097.99 9.54393 L1097.99 15.7418 L1090.86 15.7418 Q1086.85 15.7418 1085.27 17.3622 Q1083.73 18.9825 1083.73 23.1955 L1083.73 27.2059 L1096.01 27.2059 L1096.01 32.9987 L1083.73 32.9987 L1083.73 72.576 L1076.24 72.576 L1076.24 32.9987 L1069.11 32.9987 L1069.11 27.2059 L1076.24 27.2059 L1076.24 24.0462 Q1076.24 16.471 1079.76 13.0277 Q1083.29 9.54393 1090.94 9.54393 L1097.99 9.54393 Z" fill="#000000" fill-rule="nonzero" fill-opacity="1" /><path clip-path="url(#clip880)" d="M1127.2 9.54393 L1127.2 15.7418 L1120.07 15.7418 Q1116.06 15.7418 1114.48 17.3622 Q1112.94 18.9825 1112.94 23.1955 L1112.94 27.2059 L1125.21 27.2059 L1125.21 32.9987 L1112.94 32.9987 L1112.94 72.576 L1105.45 72.576 L1105.45 32.9987 L1098.32 32.9987 L1098.32 27.2059 L1105.45 27.2059 L1105.45 24.0462 Q1105.45 16.471 1108.97 13.0277 Q1112.5 9.54393 1120.15 9.54393 L1127.2 9.54393 Z" fill="#000000" fill-rule="nonzero" fill-opacity="1" /><path clip-path="url(#clip880)" d="M1172.25 48.0275 L1172.25 51.6733 L1137.98 51.6733 Q1138.46 59.3701 1142.59 63.421 Q1146.77 67.4314 1154.18 67.4314 Q1158.47 67.4314 1162.48 66.3781 Q1166.53 65.3249 1170.5 63.2184 L1170.5 70.267 Q1166.49 71.9684 1162.28 72.8596 Q1158.07 73.7508 1153.73 73.7508 Q1142.88 73.7508 1136.52 67.4314 Q1130.2 61.1119 1130.2 50.3365 Q1130.2 39.1965 1136.19 32.6746 Q1142.23 26.1121 1152.44 26.1121 Q1161.59 26.1121 1166.9 32.0264 Q1172.25 37.9003 1172.25 48.0275 M1164.79 45.84 Q1164.71 39.7232 1161.35 36.0774 Q1158.03 32.4315 1152.52 32.4315 Q1146.28 32.4315 1142.51 35.9558 Q1138.79 39.4801 1138.22 45.8805 L1164.79 45.84 Z" fill="#000000" fill-rule="nonzero" fill-opacity="1" /><path clip-path="url(#clip880)" d="M1217.13 28.9478 L1217.13 35.9153 Q1213.97 34.1734 1210.77 33.3227 Q1207.61 32.4315 1204.37 32.4315 Q1197.12 32.4315 1193.11 37.0496 Q1189.1 41.6271 1189.1 49.9314 Q1189.1 58.2358 1193.11 62.8538 Q1197.12 67.4314 1204.37 67.4314 Q1207.61 67.4314 1210.77 66.5807 Q1213.97 65.6895 1217.13 63.9476 L1217.13 70.8341 Q1214.01 72.2924 1210.65 73.0216 Q1207.33 73.7508 1203.56 73.7508 Q1193.31 73.7508 1187.27 67.3098 Q1181.24 60.8689 1181.24 49.9314 Q1181.24 38.832 1187.32 32.472 Q1193.43 26.1121 1204.05 26.1121 Q1207.49 26.1121 1210.77 26.8413 Q1214.05 27.5299 1217.13 28.9478 Z" fill="#000000" fill-rule="nonzero" fill-opacity="1" /><path clip-path="url(#clip880)" d="M1237.47 14.324 L1237.47 27.2059 L1252.82 27.2059 L1252.82 32.9987 L1237.47 32.9987 L1237.47 57.6282 Q1237.47 63.1779 1238.96 64.7578 Q1240.5 66.3376 1245.16 66.3376 L1252.82 66.3376 L1252.82 72.576 L1245.16 72.576 Q1236.53 72.576 1233.25 69.3758 Q1229.97 66.1351 1229.97 57.6282 L1229.97 32.9987 L1224.5 32.9987 L1224.5 27.2059 L1229.97 27.2059 L1229.97 14.324 L1237.47 14.324 Z" fill="#000000" fill-rule="nonzero" fill-opacity="1" /><path clip-path="url(#clip880)" d="M1306.57 32.4315 Q1300.58 32.4315 1297.09 37.1306 Q1293.61 41.7891 1293.61 49.9314 Q1293.61 58.0738 1297.05 62.7728 Q1300.54 67.4314 1306.57 67.4314 Q1312.53 67.4314 1316.01 62.7323 Q1319.5 58.0333 1319.5 49.9314 Q1319.5 41.8701 1316.01 37.1711 Q1312.53 32.4315 1306.57 32.4315 M1306.57 26.1121 Q1316.3 26.1121 1321.85 32.4315 Q1327.4 38.7509 1327.4 49.9314 Q1327.4 61.0714 1321.85 67.4314 Q1316.3 73.7508 1306.57 73.7508 Q1296.81 73.7508 1291.26 67.4314 Q1285.75 61.0714 1285.75 49.9314 Q1285.75 38.7509 1291.26 32.4315 Q1296.81 26.1121 1306.57 26.1121 Z" fill="#000000" fill-rule="nonzero" fill-opacity="1" /><path clip-path="url(#clip880)" d="M1362.72 9.54393 L1362.72 15.7418 L1355.59 15.7418 Q1351.58 15.7418 1350 17.3622 Q1348.46 18.9825 1348.46 23.1955 L1348.46 27.2059 L1360.73 27.2059 L1360.73 32.9987 L1348.46 32.9987 L1348.46 72.576 L1340.97 72.576 L1340.97 32.9987 L1333.84 32.9987 L1333.84 27.2059 L1340.97 27.2059 L1340.97 24.0462 Q1340.97 16.471 1344.49 13.0277 Q1348.01 9.54393 1355.67 9.54393 L1362.72 9.54393 Z" fill="#000000" fill-rule="nonzero" fill-opacity="1" /><path clip-path="url(#clip880)" d="M1411.25 72.576 L1388.16 12.096 L1396.71 12.096 L1415.87 63.0159 L1435.07 12.096 L1443.58 12.096 L1420.53 72.576 L1411.25 72.576 Z" fill="#000000" fill-rule="nonzero" fill-opacity="1" /><path clip-path="url(#clip880)" d="M1466.26 49.7694 Q1457.23 49.7694 1453.74 51.8354 Q1450.26 53.9013 1450.26 58.8839 Q1450.26 62.8538 1452.85 65.2034 Q1455.49 67.5124 1459.98 67.5124 Q1466.18 67.5124 1469.91 63.1374 Q1473.67 58.7219 1473.67 51.4303 L1473.67 49.7694 L1466.26 49.7694 M1481.13 46.6907 L1481.13 72.576 L1473.67 72.576 L1473.67 65.6895 Q1471.12 69.8214 1467.31 71.8063 Q1463.51 73.7508 1458 73.7508 Q1451.03 73.7508 1446.9 69.8619 Q1442.81 65.9325 1442.81 59.3701 Q1442.81 51.7138 1447.91 47.825 Q1453.05 43.9361 1463.22 43.9361 L1473.67 43.9361 L1473.67 43.2069 Q1473.67 38.0623 1470.27 35.2672 Q1466.91 32.4315 1460.79 32.4315 Q1456.9 32.4315 1453.22 33.3632 Q1449.53 34.295 1446.13 36.1584 L1446.13 29.2718 Q1450.22 27.692 1454.07 26.9223 Q1457.92 26.1121 1461.56 26.1121 Q1471.41 26.1121 1476.27 31.2163 Q1481.13 36.3204 1481.13 46.6907 Z" fill="#000000" fill-rule="nonzero" fill-opacity="1" /><path clip-path="url(#clip880)" d="M1529.13 28.9478 L1529.13 35.9153 Q1525.97 34.1734 1522.77 33.3227 Q1519.61 32.4315 1516.37 32.4315 Q1509.12 32.4315 1505.11 37.0496 Q1501.1 41.6271 1501.1 49.9314 Q1501.1 58.2358 1505.11 62.8538 Q1509.12 67.4314 1516.37 67.4314 Q1519.61 67.4314 1522.77 66.5807 Q1525.97 65.6895 1529.13 63.9476 L1529.13 70.8341 Q1526.01 72.2924 1522.65 73.0216 Q1519.33 73.7508 1515.56 73.7508 Q1505.31 73.7508 1499.28 67.3098 Q1493.24 60.8689 1493.24 49.9314 Q1493.24 38.832 1499.32 32.472 Q1505.43 26.1121 1516.05 26.1121 Q1519.49 26.1121 1522.77 26.8413 Q1526.05 27.5299 1529.13 28.9478 Z" fill="#000000" fill-rule="nonzero" fill-opacity="1" /><path clip-path="url(#clip880)" d="M1574.74 28.9478 L1574.74 35.9153 Q1571.58 34.1734 1568.38 33.3227 Q1565.22 32.4315 1561.98 32.4315 Q1554.73 32.4315 1550.72 37.0496 Q1546.71 41.6271 1546.71 49.9314 Q1546.71 58.2358 1550.72 62.8538 Q1554.73 67.4314 1561.98 67.4314 Q1565.22 67.4314 1568.38 66.5807 Q1571.58 65.6895 1574.74 63.9476 L1574.74 70.8341 Q1571.62 72.2924 1568.26 73.0216 Q1564.94 73.7508 1561.17 73.7508 Q1550.92 73.7508 1544.89 67.3098 Q1538.85 60.8689 1538.85 49.9314 Q1538.85 38.832 1544.93 32.472 Q1551.05 26.1121 1561.66 26.1121 Q1565.1 26.1121 1568.38 26.8413 Q1571.67 27.5299 1574.74 28.9478 Z" fill="#000000" fill-rule="nonzero" fill-opacity="1" /><path clip-path="url(#clip880)" d="M1587.71 27.2059 L1595.16 27.2059 L1595.16 72.576 L1587.71 72.576 L1587.71 27.2059 M1587.71 9.54393 L1595.16 9.54393 L1595.16 18.9825 L1587.71 18.9825 L1587.71 9.54393 Z" fill="#000000" fill-rule="nonzero" fill-opacity="1" /><path clip-path="url(#clip880)" d="M1648.47 45.1919 L1648.47 72.576 L1641.02 72.576 L1641.02 45.4349 Q1641.02 38.994 1638.51 35.7938 Q1635.99 32.5936 1630.97 32.5936 Q1624.93 32.5936 1621.45 36.4419 Q1617.97 40.2903 1617.97 46.9338 L1617.97 72.576 L1610.47 72.576 L1610.47 27.2059 L1617.97 27.2059 L1617.97 34.2544 Q1620.64 30.163 1624.25 28.1376 Q1627.89 26.1121 1632.63 26.1121 Q1640.45 26.1121 1644.46 30.9732 Q1648.47 35.7938 1648.47 45.1919 Z" fill="#000000" fill-rule="nonzero" fill-opacity="1" /><path clip-path="url(#clip880)" d="M1683.96 49.7694 Q1674.92 49.7694 1671.44 51.8354 Q1667.96 53.9013 1667.96 58.8839 Q1667.96 62.8538 1670.55 65.2034 Q1673.18 67.5124 1677.68 67.5124 Q1683.88 67.5124 1687.6 63.1374 Q1691.37 58.7219 1691.37 51.4303 L1691.37 49.7694 L1683.96 49.7694 M1698.82 46.6907 L1698.82 72.576 L1691.37 72.576 L1691.37 65.6895 Q1688.82 69.8214 1685.01 71.8063 Q1681.2 73.7508 1675.69 73.7508 Q1668.72 73.7508 1664.59 69.8619 Q1660.5 65.9325 1660.5 59.3701 Q1660.5 51.7138 1665.61 47.825 Q1670.75 43.9361 1680.92 43.9361 L1691.37 43.9361 L1691.37 43.2069 Q1691.37 38.0623 1687.97 35.2672 Q1684.6 32.4315 1678.49 32.4315 Q1674.6 32.4315 1670.91 33.3632 Q1667.23 34.295 1663.82 36.1584 L1663.82 29.2718 Q1667.91 27.692 1671.76 26.9223 Q1675.61 26.1121 1679.26 26.1121 Q1689.1 26.1121 1693.96 31.2163 Q1698.82 36.3204 1698.82 46.6907 Z" fill="#000000" fill-rule="nonzero" fill-opacity="1" /><path clip-path="url(#clip880)" d="M1721.55 14.324 L1721.55 27.2059 L1736.9 27.2059 L1736.9 32.9987 L1721.55 32.9987 L1721.55 57.6282 Q1721.55 63.1779 1723.05 64.7578 Q1724.59 66.3376 1729.25 66.3376 L1736.9 66.3376 L1736.9 72.576 L1729.25 72.576 Q1720.62 72.576 1717.34 69.3758 Q1714.05 66.1351 1714.05 57.6282 L1714.05 32.9987 L1708.59 32.9987 L1708.59 27.2059 L1714.05 27.2059 L1714.05 14.324 L1721.55 14.324 Z" fill="#000000" fill-rule="nonzero" fill-opacity="1" /><path clip-path="url(#clip880)" d="M1746.7 27.2059 L1754.16 27.2059 L1754.16 72.576 L1746.7 72.576 L1746.7 27.2059 M1746.7 9.54393 L1754.16 9.54393 L1754.16 18.9825 L1746.7 18.9825 L1746.7 9.54393 Z" fill="#000000" fill-rule="nonzero" fill-opacity="1" /><path clip-path="url(#clip880)" d="M1787.34 32.4315 Q1781.34 32.4315 1777.86 37.1306 Q1774.37 41.7891 1774.37 49.9314 Q1774.37 58.0738 1777.82 62.7728 Q1781.3 67.4314 1787.34 67.4314 Q1793.29 67.4314 1796.77 62.7323 Q1800.26 58.0333 1800.26 49.9314 Q1800.26 41.8701 1796.77 37.1711 Q1793.29 32.4315 1787.34 32.4315 M1787.34 26.1121 Q1797.06 26.1121 1802.61 32.4315 Q1808.16 38.7509 1808.16 49.9314 Q1808.16 61.0714 1802.61 67.4314 Q1797.06 73.7508 1787.34 73.7508 Q1777.57 73.7508 1772.02 67.4314 Q1766.51 61.0714 1766.51 49.9314 Q1766.51 38.7509 1772.02 32.4315 Q1777.57 26.1121 1787.34 26.1121 Z" fill="#000000" fill-rule="nonzero" fill-opacity="1" /><path clip-path="url(#clip880)" d="M1858.23 45.1919 L1858.23 72.576 L1850.77 72.576 L1850.77 45.4349 Q1850.77 38.994 1848.26 35.7938 Q1845.75 32.5936 1840.73 32.5936 Q1834.69 32.5936 1831.21 36.4419 Q1827.72 40.2903 1827.72 46.9338 L1827.72 72.576 L1820.23 72.576 L1820.23 27.2059 L1827.72 27.2059 L1827.72 34.2544 Q1830.4 30.163 1834 28.1376 Q1837.65 26.1121 1842.39 26.1121 Q1850.21 26.1121 1854.22 30.9732 Q1858.23 35.7938 1858.23 45.1919 Z" fill="#000000" fill-rule="nonzero" fill-opacity="1" /><polyline clip-path="url(#clip881)" style="stroke:#009af9; stroke-linecap:round; stroke-linejoin:round; stroke-width:8; stroke-opacity:1; fill:none" points="308.334,1638.84 313.996,1633.69 319.657,1628.02 325.318,1621.78 330.979,1614.93 336.64,1607.4 342.302,1599.13 347.963,1590.07 353.624,1580.13 359.285,1569.24 364.947,1557.34 370.608,1544.32 376.269,1530.12 381.93,1514.64 387.591,1497.78 393.253,1479.47 398.914,1459.62 404.575,1438.13 410.236,1414.91 415.897,1389.85 421.559,1362.9 427.22,1333.97 432.881,1303.04 438.542,1270.06 444.204,1235.03 449.865,1197.94 455.526,1158.82 461.187,1117.72 466.848,1074.74 472.51,1030.01 478.171,983.703 483.832,936.007 489.493,887.155 495.155,837.41 500.816,787.07 506.477,736.463 512.138,685.953 517.799,635.936 523.461,586.84 529.122,539.124 534.783,493.17 540.444,449.329 546.105,407.935 551.767,369.286 557.428,333.646 563.089,301.238 568.75,272.252 574.412,246.839 580.073,225.114 585.734,207.154 591.395,193.002 597.056,182.663 602.718,176.103 608.379,173.254 614.04,174.011 619.701,178.228 625.363,185.672 631.024,196.084 636.685,209.22 642.346,224.847 648.007,242.739 653.669,262.676 659.33,284.449 664.991,307.853 670.652,332.695 676.313,358.787 681.975,385.949 687.636,414.01 693.297,442.806 698.958,472.183 704.62,501.991 710.281,532.09 715.942,562.35 721.603,592.664 727.264,622.941 732.926,653.1 738.587,683.064 744.248,712.762 749.909,742.13 755.571,771.11 761.232,799.651 766.893,827.709 772.554,855.243 778.215,882.221 783.877,908.617 789.538,934.41 795.199,959.588 800.86,984.142 806.521,1008.07 812.183,1031.38 817.844,1054.08 823.505,1076.19 829.166,1097.73 834.828,1118.74 840.489,1139.17 846.15,1158.98 851.811,1178.19 857.472,1196.8 863.134,1214.82 868.795,1232.27 874.456,1249.15 880.117,1265.48 885.779,1281.27 891.44,1296.53 897.101,1311.27 902.762,1325.51 908.423,1339.25 914.085,1352.51 919.746,1365.31 925.407,1377.65 931.068,1389.54 936.729,1401.01 942.391,1412.06 948.052,1422.71 953.713,1432.97 959.374,1442.87 965.036,1452.41 970.697,1461.6 976.358,1470.46 982.019,1478.99 987.68,1487.21 993.342,1495.11 999.003,1502.72 1004.66,1510.04 1010.33,1517.08 1015.99,1523.85 1021.65,1530.35 1027.31,1536.6 1032.97,1542.61 1038.63,1548.38 1044.29,1553.92 1049.95,1559.25 1055.62,1564.36 1061.28,1569.27 1066.94,1573.98 1072.6,1578.51 1078.26,1582.86 1083.92,1587.04 1089.58,1591.06 1095.24,1594.92 1100.9,1598.63 1106.57,1602.21 1112.23,1605.65 1117.89,1608.97 1123.55,1612.15 1129.21,1615.21 1134.87,1618.15 1140.53,1620.97 1146.19,1623.68 1151.86,1626.29 1157.52,1628.79 1163.18,1631.19 1168.84,1633.49 1174.5,1635.7 1180.16,1637.82 1185.82,1639.85 1191.48,1641.8 1197.15,1643.68 1202.81,1645.48 1208.47,1647.2 1214.13,1648.86 1219.79,1650.45 1225.45,1651.98 1231.11,1653.45 1236.77,1654.86 1242.44,1656.22 1248.1,1657.52 1253.76,1658.78 1259.42,1659.98 1265.08,1661.14 1270.74,1662.25 1276.4,1663.32 1282.06,1664.34 1287.72,1665.32 1293.39,1666.26 1299.05,1667.16 1304.71,1668.03 1310.37,1668.86 1316.03,1669.65 1321.69,1670.42 1327.35,1671.15 1333.01,1671.85 1338.68,1672.52 1344.34,1673.17 1350,1673.79 1355.66,1674.39 1361.32,1674.96 1366.98,1675.51 1372.64,1676.04 1378.3,1676.54 1383.97,1677.03 1389.63,1677.5 1395.29,1677.95 1400.95,1678.39 1406.61,1678.8 1412.27,1679.2 1417.93,1679.58 1423.59,1679.95 1429.26,1680.3 1434.92,1680.64 1440.58,1680.96 1446.24,1681.27 1451.9,1681.57 1457.56,1681.85 1463.22,1682.13 1468.88,1682.39 1474.55,1682.64 1480.21,1682.88 1485.87,1683.11 1491.53,1683.34 1497.19,1683.55 1502.85,1683.76 1508.51,1683.95 1514.17,1684.14 1519.83,1684.33 1525.5,1684.5 1531.16,1684.67 1536.82,1684.83 1542.48,1684.99 1548.14,1685.13 1553.8,1685.28 1559.46,1685.41 1565.12,1685.54 1570.79,1685.67 1576.45,1685.79 1582.11,1685.91 1587.77,1686.02 1593.43,1686.12 1599.09,1686.22 1604.75,1686.32 1610.41,1686.42 1616.08,1686.51 1621.74,1686.59 1627.4,1686.68 1633.06,1686.76 1638.72,1686.83 1644.38,1686.91 1650.04,1686.98 1655.7,1687.04 1661.37,1687.11 1667.03,1687.17 1672.69,1687.23 1678.35,1687.29 1684.01,1687.35 1689.67,1687.4 1695.33,1687.45 1700.99,1687.5 1706.66,1687.54 1712.32,1687.59 1717.98,1687.63 1723.64,1687.67 1729.3,1687.71 1734.96,1687.75 1740.62,1687.79 1746.28,1687.82 1751.94,1687.86 1757.61,1687.89 1763.27,1687.92 1768.93,1687.95 1774.59,1687.98 1780.25,1688 1785.91,1688.03 1791.57,1688.06 1797.23,1688.08 1802.9,1688.1 1808.56,1688.13 1814.22,1688.15 1819.88,1688.17 1825.54,1688.19 1831.2,1688.21 1836.86,1688.23 1842.52,1688.24 1848.19,1688.26 1853.85,1688.28 1859.51,1688.29 1865.17,1688.31 1870.83,1688.32 1876.49,1688.33 1882.15,1688.35 1887.81,1688.36 1893.48,1688.37 1899.14,1688.38 1904.8,1688.39 1910.46,1688.4 1916.12,1688.41 1921.78,1688.42 1927.44,1688.43 1933.1,1688.44 1938.76,1688.45 1944.43,1688.46 1950.09,1688.47 1955.75,1688.47 1961.41,1688.48 1967.07,1688.49 1972.73,1688.5 1978.39,1688.5 1984.05,1688.51 1989.72,1688.51 1995.38,1688.52 2001.04,1688.53 2006.7,1688.53 2012.36,1688.54 2018.02,1688.54 2023.68,1688.55 2029.34,1688.55 2035.01,1688.55 2040.67,1688.56 2046.33,1688.56 2051.99,1688.57 2057.65,1688.57 2063.31,1688.57 2068.97,1688.58 2074.63,1688.58 2080.3,1688.58 2085.96,1688.59 2091.62,1688.59 2097.28,1688.59 2102.94,1688.59 2108.6,1688.6 2114.26,1688.6 2119.92,1688.6 2125.59,1688.6 2131.25,1688.61 2136.91,1688.61 2142.57,1688.61 2148.23,1688.61 2153.89,1688.61 2159.55,1688.61 2165.21,1688.62 2170.87,1688.62 2176.54,1688.62 2182.2,1688.62 2187.86,1688.62 2193.52,1688.62 2199.18,1688.63 2204.84,1688.63 2210.5,1688.63 2216.16,1688.63 2221.83,1688.63 2227.49,1688.63 2233.15,1688.63 2238.81,1688.63 2244.47,1688.63 2250.13,1688.63 2255.79,1688.64 2261.45,1688.64 2267.12,1688.64 2272.78,1688.64 2278.44,1688.64 2284.1,1688.64 2289.76,1688.64 2295.42,1688.64 2301.08,1688.64 2306.74,1688.64 2312.41,1688.64 2318.07,1688.64 2323.73,1688.64 2329.39,1688.64 2335.05,1688.64 2340.71,1688.65 2346.37,1688.65 2352.03,1688.65 2357.7,1688.65 2363.36,1688.65 2369.02,1688.65 2374.68,1688.65 2380.34,1688.65 2386,1688.65 2391.66,1688.65 2397.32,1688.65 2402.98,1688.65 2408.65,1688.65 2414.31,1688.65 2419.97,1688.65 2425.63,1688.65 2431.29,1688.65 2436.95,1688.65 2442.61,1688.65 2448.27,1688.65 2453.94,1688.65 2459.6,1688.65 2465.26,1688.65 2470.92,1688.65 2476.58,1688.65 2482.24,1688.65 2487.9,1688.65 2493.56,1688.65 2499.23,1688.65 2504.89,1688.65 2510.55,1688.65 2516.21,1688.65 2521.87,1688.65 2527.53,1688.65 2533.19,1688.65 2538.85,1688.65 2544.52,1688.65 2550.18,1688.65 2555.84,1688.65 2561.5,1688.65 2567.16,1688.65 2572.82,1688.65 "/>
<polyline clip-path="url(#clip881)" style="stroke:#e26f46; stroke-linecap:round; stroke-linejoin:round; stroke-width:8; stroke-opacity:1; fill:none" points="308.334,1638.84 313.996,1633.7 319.657,1628.06 325.318,1621.89 330.979,1615.15 336.64,1607.77 342.302,1599.72 347.963,1590.94 353.624,1581.38 359.285,1570.98 364.947,1559.69 370.608,1547.44 376.269,1534.16 381.93,1519.81 387.591,1504.32 393.253,1487.62 398.914,1469.68 404.575,1450.42 410.236,1429.81 415.897,1407.81 421.559,1384.38 427.22,1359.48 432.881,1333.09 438.542,1305.21 444.204,1275.87 449.865,1245.1 455.526,1212.95 461.187,1179.5 466.848,1144.85 472.51,1109.09 478.171,1072.3 483.832,1034.66 489.493,996.414 495.155,957.785 500.816,919.006 506.477,880.31 512.138,841.93 517.799,804.097 523.461,767.045 529.122,731.007 534.783,696.216 540.444,662.905 546.105,631.309 551.767,601.661 557.428,574.196 563.089,549.151 568.75,526.72 574.412,506.947 580.073,489.845 585.734,475.418 591.395,463.656 597.056,454.539 602.718,448.032 608.379,444.093 614.04,442.663 619.701,443.676 625.363,447.051 631.024,452.696 636.685,460.507 642.346,470.369 648.007,482.155 653.669,495.726 659.33,510.931 664.991,527.607 670.652,545.58 676.313,564.664 681.975,584.716 687.636,605.634 693.297,627.289 698.958,649.56 704.62,672.332 710.281,695.499 715.942,718.96 721.603,742.623 727.264,766.405 732.926,790.228 738.587,814.023 744.248,837.726 749.909,861.285 755.571,884.65 761.232,907.783 766.893,930.651 772.554,953.23 778.215,975.501 783.877,997.455 789.538,1019.07 795.199,1040.26 800.86,1061.02 806.521,1081.34 812.183,1101.21 817.844,1120.62 823.505,1139.58 829.166,1158.06 834.828,1176.08 840.489,1193.62 846.15,1210.7 851.811,1227.3 857.472,1243.43 863.134,1259.1 868.795,1274.3 874.456,1289.04 880.117,1303.33 885.779,1317.18 891.44,1330.59 897.101,1343.58 902.762,1356.15 908.423,1368.31 914.085,1380.09 919.746,1391.49 925.407,1402.51 931.068,1413.16 936.729,1423.46 942.391,1433.42 948.052,1443.03 953.713,1452.31 959.374,1461.27 965.036,1469.92 970.697,1478.26 976.358,1486.3 982.019,1494.05 987.68,1501.52 993.342,1508.72 999.003,1515.66 1004.66,1522.33 1010.33,1528.76 1015.99,1534.95 1021.65,1540.91 1027.31,1546.64 1032.97,1552.15 1038.63,1557.46 1044.29,1562.56 1049.95,1567.47 1055.62,1572.2 1061.28,1576.75 1066.94,1581.12 1072.6,1585.34 1078.26,1589.4 1083.92,1593.31 1089.58,1597.07 1095.24,1600.69 1100.9,1604.17 1106.57,1607.52 1112.23,1610.74 1117.89,1613.84 1123.55,1616.81 1129.21,1619.67 1134.87,1622.42 1140.53,1625.05 1146.19,1627.59 1151.86,1630.02 1157.52,1632.36 1163.18,1634.6 1168.84,1636.75 1174.5,1638.82 1180.16,1640.81 1185.82,1642.72 1191.48,1644.55 1197.15,1646.32 1202.81,1648.01 1208.47,1649.64 1214.13,1651.21 1219.79,1652.72 1225.45,1654.18 1231.11,1655.57 1236.77,1656.91 1242.44,1658.2 1248.1,1659.44 1253.76,1660.62 1259.42,1661.76 1265.08,1662.85 1270.74,1663.9 1276.4,1664.91 1282.06,1665.87 1287.72,1666.79 1293.39,1667.68 1299.05,1668.53 1304.71,1669.34 1310.37,1670.13 1316.03,1670.88 1321.69,1671.6 1327.35,1672.29 1333.01,1672.95 1338.68,1673.59 1344.34,1674.2 1350,1674.79 1355.66,1675.36 1361.32,1675.91 1366.98,1676.43 1372.64,1676.93 1378.3,1677.41 1383.97,1677.88 1389.63,1678.32 1395.29,1678.75 1400.95,1679.15 1406.61,1679.55 1412.27,1679.92 1417.93,1680.28 1423.59,1680.62 1429.26,1680.95 1434.92,1681.27 1440.58,1681.57 1446.24,1681.86 1451.9,1682.14 1457.56,1682.41 1463.22,1682.67 1468.88,1682.91 1474.55,1683.15 1480.21,1683.38 1485.87,1683.6 1491.53,1683.81 1497.19,1684.01 1502.85,1684.2 1508.51,1684.39 1514.17,1684.56 1519.83,1684.73 1525.5,1684.9 1531.16,1685.05 1536.82,1685.2 1542.48,1685.35 1548.14,1685.49 1553.8,1685.62 1559.46,1685.74 1565.12,1685.86 1570.79,1685.98 1576.45,1686.09 1582.11,1686.2 1587.77,1686.3 1593.43,1686.4 1599.09,1686.49 1604.75,1686.58 1610.41,1686.67 1616.08,1686.75 1621.74,1686.83 1627.4,1686.91 1633.06,1686.98 1638.72,1687.05 1644.38,1687.12 1650.04,1687.18 1655.7,1687.25 1661.37,1687.3 1667.03,1687.36 1672.69,1687.42 1678.35,1687.47 1684.01,1687.52 1689.67,1687.57 1695.33,1687.61 1700.99,1687.65 1706.66,1687.7 1712.32,1687.74 1717.98,1687.78 1723.64,1687.81 1729.3,1687.85 1734.96,1687.88 1740.62,1687.91 1746.28,1687.95 1751.94,1687.98 1757.61,1688 1763.27,1688.03 1768.93,1688.06 1774.59,1688.08 1780.25,1688.11 1785.91,1688.13 1791.57,1688.15 1797.23,1688.18 1802.9,1688.2 1808.56,1688.22 1814.22,1688.23 1819.88,1688.25 1825.54,1688.27 1831.2,1688.29 1836.86,1688.3 1842.52,1688.32 1848.19,1688.33 1853.85,1688.34 1859.51,1688.36 1865.17,1688.37 1870.83,1688.38 1876.49,1688.39 1882.15,1688.4 1887.81,1688.42 1893.48,1688.43 1899.14,1688.44 1904.8,1688.45 1910.46,1688.45 1916.12,1688.46 1921.78,1688.47 1927.44,1688.48 1933.1,1688.49 1938.76,1688.49 1944.43,1688.5 1950.09,1688.51 1955.75,1688.51 1961.41,1688.52 1967.07,1688.53 1972.73,1688.53 1978.39,1688.54 1984.05,1688.54 1989.72,1688.55 1995.38,1688.55 2001.04,1688.56 2006.7,1688.56 2012.36,1688.56 2018.02,1688.57 2023.68,1688.57 2029.34,1688.58 2035.01,1688.58 2040.67,1688.58 2046.33,1688.59 2051.99,1688.59 2057.65,1688.59 2063.31,1688.59 2068.97,1688.6 2074.63,1688.6 2080.3,1688.6 2085.96,1688.6 2091.62,1688.61 2097.28,1688.61 2102.94,1688.61 2108.6,1688.61 2114.26,1688.61 2119.92,1688.62 2125.59,1688.62 2131.25,1688.62 2136.91,1688.62 2142.57,1688.62 2148.23,1688.62 2153.89,1688.63 2159.55,1688.63 2165.21,1688.63 2170.87,1688.63 2176.54,1688.63 2182.2,1688.63 2187.86,1688.63 2193.52,1688.63 2199.18,1688.63 2204.84,1688.64 2210.5,1688.64 2216.16,1688.64 2221.83,1688.64 2227.49,1688.64 2233.15,1688.64 2238.81,1688.64 2244.47,1688.64 2250.13,1688.64 2255.79,1688.64 2261.45,1688.64 2267.12,1688.64 2272.78,1688.64 2278.44,1688.64 2284.1,1688.65 2289.76,1688.65 2295.42,1688.65 2301.08,1688.65 2306.74,1688.65 2312.41,1688.65 2318.07,1688.65 2323.73,1688.65 2329.39,1688.65 2335.05,1688.65 2340.71,1688.65 2346.37,1688.65 2352.03,1688.65 2357.7,1688.65 2363.36,1688.65 2369.02,1688.65 2374.68,1688.65 2380.34,1688.65 2386,1688.65 2391.66,1688.65 2397.32,1688.65 2402.98,1688.65 2408.65,1688.65 2414.31,1688.65 2419.97,1688.65 2425.63,1688.65 2431.29,1688.65 2436.95,1688.65 2442.61,1688.65 2448.27,1688.65 2453.94,1688.65 2459.6,1688.65 2465.26,1688.65 2470.92,1688.65 2476.58,1688.65 2482.24,1688.65 2487.9,1688.65 2493.56,1688.65 2499.23,1688.65 2504.89,1688.65 2510.55,1688.65 2516.21,1688.65 2521.87,1688.65 2527.53,1688.65 2533.19,1688.65 2538.85,1688.65 2544.52,1688.65 2550.18,1688.65 2555.84,1688.65 2561.5,1688.65 2567.16,1688.65 2572.82,1688.65 "/>
<path clip-path="url(#clip880)" d="M1977.54 336.856 L2560.74 336.856 L2560.74 181.336 L1977.54 181.336  Z" fill="#ffffff" fill-rule="evenodd" fill-opacity="1"/>
<polyline clip-path="url(#clip880)" style="stroke:#000000; stroke-linecap:round; stroke-linejoin:round; stroke-width:4; stroke-opacity:1; fill:none" points="1977.54,336.856 2560.74,336.856 2560.74,181.336 1977.54,181.336 1977.54,336.856 "/>
<polyline clip-path="url(#clip880)" style="stroke:#009af9; stroke-linecap:round; stroke-linejoin:round; stroke-width:8; stroke-opacity:1; fill:none" points="2004.21,233.176 2164.23,233.176 "/>
<path clip-path="url(#clip880)" d="M2190.9 215.896 L2197.2 215.896 L2212.52 244.808 L2212.52 215.896 L2217.06 215.896 L2217.06 250.456 L2210.76 250.456 L2195.44 221.544 L2195.44 250.456 L2190.9 250.456 L2190.9 215.896 Z" fill="#000000" fill-rule="nonzero" fill-opacity="1" /><path clip-path="url(#clip880)" d="M2236.23 227.517 Q2232.8 227.517 2230.81 230.202 Q2228.82 232.864 2228.82 237.517 Q2228.82 242.169 2230.79 244.854 Q2232.78 247.516 2236.23 247.516 Q2239.63 247.516 2241.62 244.831 Q2243.61 242.146 2243.61 237.517 Q2243.61 232.91 2241.62 230.225 Q2239.63 227.517 2236.23 227.517 M2236.23 223.906 Q2241.78 223.906 2244.95 227.517 Q2248.13 231.128 2248.13 237.517 Q2248.13 243.882 2244.95 247.516 Q2241.78 251.128 2236.23 251.128 Q2230.65 251.128 2227.48 247.516 Q2224.33 243.882 2224.33 237.517 Q2224.33 231.128 2227.48 227.517 Q2230.65 223.906 2236.23 223.906 Z" fill="#000000" fill-rule="nonzero" fill-opacity="1" /><path clip-path="url(#clip880)" d="M2267.2 224.531 L2271.71 224.531 L2279.82 246.29 L2287.92 224.531 L2292.43 224.531 L2282.71 250.456 L2276.92 250.456 L2267.2 224.531 Z" fill="#000000" fill-rule="nonzero" fill-opacity="1" /><path clip-path="url(#clip880)" d="M2310.09 237.424 Q2304.93 237.424 2302.94 238.604 Q2300.95 239.785 2300.95 242.632 Q2300.95 244.901 2302.43 246.243 Q2303.94 247.563 2306.51 247.563 Q2310.05 247.563 2312.18 245.063 Q2314.33 242.54 2314.33 238.373 L2314.33 237.424 L2310.09 237.424 M2318.59 235.665 L2318.59 250.456 L2314.33 250.456 L2314.33 246.521 Q2312.87 248.882 2310.69 250.016 Q2308.52 251.128 2305.37 251.128 Q2301.39 251.128 2299.03 248.905 Q2296.69 246.66 2296.69 242.91 Q2296.69 238.535 2299.61 236.313 Q2302.55 234.091 2308.36 234.091 L2314.33 234.091 L2314.33 233.674 Q2314.33 230.734 2312.38 229.137 Q2310.46 227.517 2306.97 227.517 Q2304.75 227.517 2302.64 228.049 Q2300.53 228.581 2298.59 229.646 L2298.59 225.711 Q2300.93 224.808 2303.13 224.368 Q2305.32 223.906 2307.41 223.906 Q2313.03 223.906 2315.81 226.822 Q2318.59 229.739 2318.59 235.665 Z" fill="#000000" fill-rule="nonzero" fill-opacity="1" /><path clip-path="url(#clip880)" d="M2346.02 225.526 L2346.02 229.507 Q2344.21 228.512 2342.38 228.026 Q2340.58 227.517 2338.73 227.517 Q2334.58 227.517 2332.29 230.155 Q2330 232.771 2330 237.517 Q2330 242.262 2332.29 244.901 Q2334.58 247.516 2338.73 247.516 Q2340.58 247.516 2342.38 247.03 Q2344.21 246.521 2346.02 245.526 L2346.02 249.461 Q2344.24 250.294 2342.32 250.711 Q2340.42 251.128 2338.26 251.128 Q2332.41 251.128 2328.96 247.447 Q2325.51 243.767 2325.51 237.517 Q2325.51 231.174 2328.98 227.54 Q2332.48 223.906 2338.54 223.906 Q2340.51 223.906 2342.38 224.322 Q2344.26 224.716 2346.02 225.526 Z" fill="#000000" fill-rule="nonzero" fill-opacity="1" /><path clip-path="url(#clip880)" d="M2372.08 225.526 L2372.08 229.507 Q2370.28 228.512 2368.45 228.026 Q2366.64 227.517 2364.79 227.517 Q2360.65 227.517 2358.36 230.155 Q2356.07 232.771 2356.07 237.517 Q2356.07 242.262 2358.36 244.901 Q2360.65 247.516 2364.79 247.516 Q2366.64 247.516 2368.45 247.03 Q2370.28 246.521 2372.08 245.526 L2372.08 249.461 Q2370.3 250.294 2368.38 250.711 Q2366.48 251.128 2364.33 251.128 Q2358.47 251.128 2355.02 247.447 Q2351.57 243.767 2351.57 237.517 Q2351.57 231.174 2355.05 227.54 Q2358.54 223.906 2364.61 223.906 Q2366.57 223.906 2368.45 224.322 Q2370.32 224.716 2372.08 225.526 Z" fill="#000000" fill-rule="nonzero" fill-opacity="1" /><path clip-path="url(#clip880)" d="M2379.49 224.531 L2383.75 224.531 L2383.75 250.456 L2379.49 250.456 L2379.49 224.531 M2379.49 214.438 L2383.75 214.438 L2383.75 219.831 L2379.49 219.831 L2379.49 214.438 Z" fill="#000000" fill-rule="nonzero" fill-opacity="1" /><path clip-path="url(#clip880)" d="M2414.21 234.808 L2414.21 250.456 L2409.95 250.456 L2409.95 234.947 Q2409.95 231.267 2408.52 229.438 Q2407.08 227.609 2404.21 227.609 Q2400.76 227.609 2398.77 229.808 Q2396.78 232.007 2396.78 235.804 L2396.78 250.456 L2392.5 250.456 L2392.5 224.531 L2396.78 224.531 L2396.78 228.558 Q2398.31 226.22 2400.37 225.063 Q2402.45 223.906 2405.16 223.906 Q2409.63 223.906 2411.92 226.683 Q2414.21 229.438 2414.21 234.808 Z" fill="#000000" fill-rule="nonzero" fill-opacity="1" /><path clip-path="url(#clip880)" d="M2434.49 237.424 Q2429.33 237.424 2427.34 238.604 Q2425.35 239.785 2425.35 242.632 Q2425.35 244.901 2426.83 246.243 Q2428.33 247.563 2430.9 247.563 Q2434.44 247.563 2436.57 245.063 Q2438.73 242.54 2438.73 238.373 L2438.73 237.424 L2434.49 237.424 M2442.99 235.665 L2442.99 250.456 L2438.73 250.456 L2438.73 246.521 Q2437.27 248.882 2435.09 250.016 Q2432.92 251.128 2429.77 251.128 Q2425.79 251.128 2423.43 248.905 Q2421.09 246.66 2421.09 242.91 Q2421.09 238.535 2424 236.313 Q2426.94 234.091 2432.75 234.091 L2438.73 234.091 L2438.73 233.674 Q2438.73 230.734 2436.78 229.137 Q2434.86 227.517 2431.37 227.517 Q2429.14 227.517 2427.04 228.049 Q2424.93 228.581 2422.99 229.646 L2422.99 225.711 Q2425.32 224.808 2427.52 224.368 Q2429.72 223.906 2431.81 223.906 Q2437.43 223.906 2440.21 226.822 Q2442.99 229.739 2442.99 235.665 Z" fill="#000000" fill-rule="nonzero" fill-opacity="1" /><path clip-path="url(#clip880)" d="M2455.97 217.169 L2455.97 224.531 L2464.75 224.531 L2464.75 227.841 L2455.97 227.841 L2455.97 241.915 Q2455.97 245.086 2456.83 245.989 Q2457.71 246.891 2460.37 246.891 L2464.75 246.891 L2464.75 250.456 L2460.37 250.456 Q2455.44 250.456 2453.56 248.628 Q2451.69 246.776 2451.69 241.915 L2451.69 227.841 L2448.56 227.841 L2448.56 224.531 L2451.69 224.531 L2451.69 217.169 L2455.97 217.169 Z" fill="#000000" fill-rule="nonzero" fill-opacity="1" /><path clip-path="url(#clip880)" d="M2470.35 224.531 L2474.61 224.531 L2474.61 250.456 L2470.35 250.456 L2470.35 224.531 M2470.35 214.438 L2474.61 214.438 L2474.61 219.831 L2470.35 219.831 L2470.35 214.438 Z" fill="#000000" fill-rule="nonzero" fill-opacity="1" /><path clip-path="url(#clip880)" d="M2493.56 227.517 Q2490.14 227.517 2488.15 230.202 Q2486.16 232.864 2486.16 237.517 Q2486.16 242.169 2488.12 244.854 Q2490.12 247.516 2493.56 247.516 Q2496.97 247.516 2498.96 244.831 Q2500.95 242.146 2500.95 237.517 Q2500.95 232.91 2498.96 230.225 Q2496.97 227.517 2493.56 227.517 M2493.56 223.906 Q2499.12 223.906 2502.29 227.517 Q2505.46 231.128 2505.46 237.517 Q2505.46 243.882 2502.29 247.516 Q2499.12 251.128 2493.56 251.128 Q2487.99 251.128 2484.81 247.516 Q2481.67 243.882 2481.67 237.517 Q2481.67 231.128 2484.81 227.517 Q2487.99 223.906 2493.56 223.906 Z" fill="#000000" fill-rule="nonzero" fill-opacity="1" /><path clip-path="url(#clip880)" d="M2534.07 234.808 L2534.07 250.456 L2529.81 250.456 L2529.81 234.947 Q2529.81 231.267 2528.38 229.438 Q2526.94 227.609 2524.07 227.609 Q2520.62 227.609 2518.63 229.808 Q2516.64 232.007 2516.64 235.804 L2516.64 250.456 L2512.36 250.456 L2512.36 224.531 L2516.64 224.531 L2516.64 228.558 Q2518.17 226.22 2520.23 225.063 Q2522.31 223.906 2525.02 223.906 Q2529.49 223.906 2531.78 226.683 Q2534.07 229.438 2534.07 234.808 Z" fill="#000000" fill-rule="nonzero" fill-opacity="1" /><polyline clip-path="url(#clip880)" style="stroke:#e26f46; stroke-linecap:round; stroke-linejoin:round; stroke-width:8; stroke-opacity:1; fill:none" points="2004.21,285.016 2164.23,285.016 "/>
<path clip-path="url(#clip880)" d="M2198.82 302.296 L2190.9 276.371 L2195.49 276.371 L2202.18 298.13 Q2204.95 295.259 2207.27 291.278 Q2209.03 288.292 2209.12 285.699 Q2209.17 284.472 2208.61 282.158 Q2207.96 279.403 2205.51 276.371 L2209.82 276.371 L2209.82 276.371 Q2211.41 278.431 2212.48 281.301 Q2213.45 283.94 2213.45 285.745 Q2213.45 290.282 2210.3 294.333 Q2206.2 299.611 2203.36 302.296 L2198.82 302.296 Z" fill="#000000" fill-rule="nonzero" fill-opacity="1" /><path clip-path="url(#clip880)" d="M2235.76 280.769 L2265.44 280.769 L2265.44 284.657 L2235.76 284.657 L2235.76 280.769 M2235.76 290.213 L2265.44 290.213 L2265.44 294.148 L2235.76 294.148 L2235.76 290.213 Z" fill="#000000" fill-rule="nonzero" fill-opacity="1" /><path clip-path="url(#clip880)" d="M2300.6 270.815 Q2296.99 270.815 2295.16 274.38 Q2293.36 277.921 2293.36 285.051 Q2293.36 292.157 2295.16 295.722 Q2296.99 299.264 2300.6 299.264 Q2304.24 299.264 2306.04 295.722 Q2307.87 292.157 2307.87 285.051 Q2307.87 277.921 2306.04 274.38 Q2304.24 270.815 2300.6 270.815 M2300.6 267.111 Q2306.41 267.111 2309.47 271.718 Q2312.55 276.301 2312.55 285.051 Q2312.55 293.778 2309.47 298.384 Q2306.41 302.968 2300.6 302.968 Q2294.79 302.968 2291.71 298.384 Q2288.66 293.778 2288.66 285.051 Q2288.66 276.301 2291.71 271.718 Q2294.79 267.111 2300.6 267.111 Z" fill="#000000" fill-rule="nonzero" fill-opacity="1" /><path clip-path="url(#clip880)" d="M2320.76 296.417 L2325.65 296.417 L2325.65 302.296 L2320.76 302.296 L2320.76 296.417 Z" fill="#000000" fill-rule="nonzero" fill-opacity="1" /><path clip-path="url(#clip880)" d="M2345.83 270.815 Q2342.22 270.815 2340.39 274.38 Q2338.59 277.921 2338.59 285.051 Q2338.59 292.157 2340.39 295.722 Q2342.22 299.264 2345.83 299.264 Q2349.47 299.264 2351.27 295.722 Q2353.1 292.157 2353.1 285.051 Q2353.1 277.921 2351.27 274.38 Q2349.47 270.815 2345.83 270.815 M2345.83 267.111 Q2351.64 267.111 2354.7 271.718 Q2357.78 276.301 2357.78 285.051 Q2357.78 293.778 2354.7 298.384 Q2351.64 302.968 2345.83 302.968 Q2340.02 302.968 2336.94 298.384 Q2333.89 293.778 2333.89 285.051 Q2333.89 276.301 2336.94 271.718 Q2340.02 267.111 2345.83 267.111 Z" fill="#000000" fill-rule="nonzero" fill-opacity="1" /><path clip-path="url(#clip880)" d="M2376 270.815 Q2372.38 270.815 2370.56 274.38 Q2368.75 277.921 2368.75 285.051 Q2368.75 292.157 2370.56 295.722 Q2372.38 299.264 2376 299.264 Q2379.63 299.264 2381.44 295.722 Q2383.26 292.157 2383.26 285.051 Q2383.26 277.921 2381.44 274.38 Q2379.63 270.815 2376 270.815 M2376 267.111 Q2381.81 267.111 2384.86 271.718 Q2387.94 276.301 2387.94 285.051 Q2387.94 293.778 2384.86 298.384 Q2381.81 302.968 2376 302.968 Q2370.19 302.968 2367.11 298.384 Q2364.05 293.778 2364.05 285.051 Q2364.05 276.301 2367.11 271.718 Q2370.19 267.111 2376 267.111 Z" fill="#000000" fill-rule="nonzero" fill-opacity="1" /><path clip-path="url(#clip880)" d="M2396.2 267.736 L2414.56 267.736 L2414.56 271.671 L2400.49 271.671 L2400.49 280.144 Q2401.5 279.796 2402.52 279.634 Q2403.54 279.449 2404.56 279.449 Q2410.35 279.449 2413.73 282.62 Q2417.11 285.792 2417.11 291.208 Q2417.11 296.787 2413.63 299.889 Q2410.16 302.968 2403.84 302.968 Q2401.67 302.968 2399.4 302.597 Q2397.15 302.227 2394.75 301.486 L2394.75 296.787 Q2396.83 297.921 2399.05 298.477 Q2401.27 299.032 2403.75 299.032 Q2407.75 299.032 2410.09 296.926 Q2412.43 294.819 2412.43 291.208 Q2412.43 287.597 2410.09 285.491 Q2407.75 283.384 2403.75 283.384 Q2401.88 283.384 2400 283.801 Q2398.15 284.218 2396.2 285.097 L2396.2 267.736 Z" fill="#000000" fill-rule="nonzero" fill-opacity="1" /><path clip-path="url(#clip880)" d="M2433.29 267.736 L2437.22 267.736 L2425.19 306.694 L2421.25 306.694 L2433.29 267.736 Z" fill="#000000" fill-rule="nonzero" fill-opacity="1" /><path clip-path="url(#clip880)" d="M2458.75 280.306 L2458.75 266.278 L2463.01 266.278 L2463.01 302.296 L2458.75 302.296 L2458.75 298.407 Q2457.41 300.722 2455.35 301.856 Q2453.31 302.968 2450.44 302.968 Q2445.74 302.968 2442.78 299.218 Q2439.84 295.468 2439.84 289.357 Q2439.84 283.245 2442.78 279.495 Q2445.74 275.746 2450.44 275.746 Q2453.31 275.746 2455.35 276.88 Q2457.41 277.991 2458.75 280.306 M2444.24 289.357 Q2444.24 294.056 2446.16 296.741 Q2448.1 299.403 2451.48 299.403 Q2454.86 299.403 2456.81 296.741 Q2458.75 294.056 2458.75 289.357 Q2458.75 284.657 2456.81 281.995 Q2454.86 279.31 2451.48 279.31 Q2448.1 279.31 2446.16 281.995 Q2444.24 284.657 2444.24 289.357 Z" fill="#000000" fill-rule="nonzero" fill-opacity="1" /><path clip-path="url(#clip880)" d="M2483.56 289.264 Q2478.4 289.264 2476.41 290.444 Q2474.42 291.625 2474.42 294.472 Q2474.42 296.741 2475.9 298.083 Q2477.41 299.403 2479.98 299.403 Q2483.52 299.403 2485.65 296.903 Q2487.8 294.38 2487.8 290.213 L2487.8 289.264 L2483.56 289.264 M2492.06 287.505 L2492.06 302.296 L2487.8 302.296 L2487.8 298.361 Q2486.34 300.722 2484.17 301.856 Q2481.99 302.968 2478.84 302.968 Q2474.86 302.968 2472.5 300.745 Q2470.16 298.5 2470.16 294.75 Q2470.16 290.375 2473.08 288.153 Q2476.02 285.931 2481.83 285.931 L2487.8 285.931 L2487.8 285.514 Q2487.8 282.574 2485.86 280.977 Q2483.93 279.357 2480.44 279.357 Q2478.22 279.357 2476.11 279.889 Q2474 280.421 2472.06 281.486 L2472.06 277.551 Q2474.4 276.648 2476.6 276.208 Q2478.8 275.746 2480.88 275.746 Q2486.5 275.746 2489.28 278.662 Q2492.06 281.579 2492.06 287.505 Z" fill="#000000" fill-rule="nonzero" fill-opacity="1" /><path clip-path="url(#clip880)" d="M2511.62 304.704 Q2509.81 309.333 2508.1 310.745 Q2506.39 312.157 2503.52 312.157 L2500.12 312.157 L2500.12 308.593 L2502.62 308.593 Q2504.37 308.593 2505.35 307.759 Q2506.32 306.926 2507.5 303.824 L2508.26 301.88 L2497.78 276.371 L2502.29 276.371 L2510.39 296.648 L2518.49 276.371 L2523.01 276.371 L2511.62 304.704 Z" fill="#000000" fill-rule="nonzero" fill-opacity="1" /></svg>
