<?xml version="1.0" encoding="utf-8"?>
<svg xmlns="http://www.w3.org/2000/svg" xmlns:xlink="http://www.w3.org/1999/xlink" width="672" height="480" viewBox="0 0 2688 1920">
<defs>
  <clipPath id="clip820">
    <rect x="0" y="0" width="2688" height="1920"/>
  </clipPath>
</defs>
<path clip-path="url(#clip820)" d="M0 1920 L2688 1920 L2688 -4.26326e-14 L0 -4.26326e-14  Z" fill="#ffffff" fill-rule="evenodd" fill-opacity="1"/>
<defs>
  <clipPath id="clip821">
    <rect x="211" y="127" width="2430" height="1607"/>
  </clipPath>
</defs>
<path clip-path="url(#clip820)" d="M211.395 1734.12 L2640.76 1734.12 L2640.76 127.792 L211.395 127.792  Z" fill="#ffffff" fill-rule="evenodd" fill-opacity="1"/>
<polyline clip-path="url(#clip821)" style="stroke:#000000; stroke-linecap:round; stroke-linejoin:round; stroke-width:2; stroke-opacity:0.1; fill:none" points="280.151,1734.12 280.151,127.792 "/>
<polyline clip-path="url(#clip821)" style="stroke:#000000; stroke-linecap:round; stroke-linejoin:round; stroke-width:2; stroke-opacity:0.1; fill:none" points="853.113,1734.12 853.113,127.792 "/>
<polyline clip-path="url(#clip821)" style="stroke:#000000; stroke-linecap:round; stroke-linejoin:round; stroke-width:2; stroke-opacity:0.1; fill:none" points="1426.08,1734.12 1426.08,127.792 "/>
<polyline clip-path="url(#clip821)" style="stroke:#000000; stroke-linecap:round; stroke-linejoin:round; stroke-width:2; stroke-opacity:0.1; fill:none" points="1999.04,1734.12 1999.04,127.792 "/>
<polyline clip-path="url(#clip821)" style="stroke:#000000; stroke-linecap:round; stroke-linejoin:round; stroke-width:2; stroke-opacity:0.1; fill:none" points="2572,1734.12 2572,127.792 "/>
<polyline clip-path="url(#clip821)" style="stroke:#000000; stroke-linecap:round; stroke-linejoin:round; stroke-width:2; stroke-opacity:0.1; fill:none" points="211.395,1689.45 2640.76,1689.45 "/>
<polyline clip-path="url(#clip821)" style="stroke:#000000; stroke-linecap:round; stroke-linejoin:round; stroke-width:2; stroke-opacity:0.1; fill:none" points="211.395,1391.88 2640.76,1391.88 "/>
<polyline clip-path="url(#clip821)" style="stroke:#000000; stroke-linecap:round; stroke-linejoin:round; stroke-width:2; stroke-opacity:0.1; fill:none" points="211.395,1094.3 2640.76,1094.3 "/>
<polyline clip-path="url(#clip821)" style="stroke:#000000; stroke-linecap:round; stroke-linejoin:round; stroke-width:2; stroke-opacity:0.1; fill:none" points="211.395,796.725 2640.76,796.725 "/>
<polyline clip-path="url(#clip821)" style="stroke:#000000; stroke-linecap:round; stroke-linejoin:round; stroke-width:2; stroke-opacity:0.1; fill:none" points="211.395,499.149 2640.76,499.149 "/>
<polyline clip-path="url(#clip821)" style="stroke:#000000; stroke-linecap:round; stroke-linejoin:round; stroke-width:2; stroke-opacity:0.1; fill:none" points="211.395,201.573 2640.76,201.573 "/>
<polyline clip-path="url(#clip820)" style="stroke:#000000; stroke-linecap:round; stroke-linejoin:round; stroke-width:4; stroke-opacity:1; fill:none" points="211.395,1734.12 2640.76,1734.12 "/>
<polyline clip-path="url(#clip820)" style="stroke:#000000; stroke-linecap:round; stroke-linejoin:round; stroke-width:4; stroke-opacity:1; fill:none" points="280.151,1734.12 280.151,1715.22 "/>
<polyline clip-path="url(#clip820)" style="stroke:#000000; stroke-linecap:round; stroke-linejoin:round; stroke-width:4; stroke-opacity:1; fill:none" points="853.113,1734.12 853.113,1715.22 "/>
<polyline clip-path="url(#clip820)" style="stroke:#000000; stroke-linecap:round; stroke-linejoin:round; stroke-width:4; stroke-opacity:1; fill:none" points="1426.08,1734.12 1426.08,1715.22 "/>
<polyline clip-path="url(#clip820)" style="stroke:#000000; stroke-linecap:round; stroke-linejoin:round; stroke-width:4; stroke-opacity:1; fill:none" points="1999.04,1734.12 1999.04,1715.22 "/>
<polyline clip-path="url(#clip820)" style="stroke:#000000; stroke-linecap:round; stroke-linejoin:round; stroke-width:4; stroke-opacity:1; fill:none" points="2572,1734.12 2572,1715.22 "/>
<path clip-path="url(#clip820)" d="M280.151 1767.34 Q276.54 1767.34 274.711 1770.9 Q272.905 1774.45 272.905 1781.58 Q272.905 1788.68 274.711 1792.25 Q276.54 1795.79 280.151 1795.79 Q283.785 1795.79 285.591 1792.25 Q287.419 1788.68 287.419 1781.58 Q287.419 1774.45 285.591 1770.9 Q283.785 1767.34 280.151 1767.34 M280.151 1763.64 Q285.961 1763.64 289.016 1768.24 Q292.095 1772.83 292.095 1781.58 Q292.095 1790.3 289.016 1794.91 Q285.961 1799.49 280.151 1799.49 Q274.341 1799.49 271.262 1794.91 Q268.206 1790.3 268.206 1781.58 Q268.206 1772.83 271.262 1768.24 Q274.341 1763.64 280.151 1763.64 Z" fill="#000000" fill-rule="nonzero" fill-opacity="1" /><path clip-path="url(#clip820)" d="M827.812 1764.26 L846.169 1764.26 L846.169 1768.2 L832.095 1768.2 L832.095 1776.67 Q833.113 1776.32 834.132 1776.16 Q835.15 1775.97 836.169 1775.97 Q841.956 1775.97 845.335 1779.15 Q848.715 1782.32 848.715 1787.73 Q848.715 1793.31 845.243 1796.41 Q841.771 1799.49 835.451 1799.49 Q833.275 1799.49 831.007 1799.12 Q828.761 1798.75 826.354 1798.01 L826.354 1793.31 Q828.437 1794.45 830.66 1795 Q832.882 1795.56 835.359 1795.56 Q839.363 1795.56 841.701 1793.45 Q844.039 1791.34 844.039 1787.73 Q844.039 1784.12 841.701 1782.02 Q839.363 1779.91 835.359 1779.91 Q833.484 1779.91 831.609 1780.33 Q829.757 1780.74 827.812 1781.62 L827.812 1764.26 Z" fill="#000000" fill-rule="nonzero" fill-opacity="1" /><path clip-path="url(#clip820)" d="M867.928 1767.34 Q864.317 1767.34 862.488 1770.9 Q860.683 1774.45 860.683 1781.58 Q860.683 1788.68 862.488 1792.25 Q864.317 1795.79 867.928 1795.79 Q871.562 1795.79 873.368 1792.25 Q875.196 1788.68 875.196 1781.58 Q875.196 1774.45 873.368 1770.9 Q871.562 1767.34 867.928 1767.34 M867.928 1763.64 Q873.738 1763.64 876.794 1768.24 Q879.872 1772.83 879.872 1781.58 Q879.872 1790.3 876.794 1794.91 Q873.738 1799.49 867.928 1799.49 Q862.118 1799.49 859.039 1794.91 Q855.984 1790.3 855.984 1781.58 Q855.984 1772.83 859.039 1768.24 Q862.118 1763.64 867.928 1763.64 Z" fill="#000000" fill-rule="nonzero" fill-opacity="1" /><path clip-path="url(#clip820)" d="M1385.68 1794.89 L1393.32 1794.89 L1393.32 1768.52 L1385.01 1770.19 L1385.01 1765.93 L1393.27 1764.26 L1397.95 1764.26 L1397.95 1794.89 L1405.59 1794.89 L1405.59 1798.82 L1385.68 1798.82 L1385.68 1794.89 Z" fill="#000000" fill-rule="nonzero" fill-opacity="1" /><path clip-path="url(#clip820)" d="M1425.03 1767.34 Q1421.42 1767.34 1419.59 1770.9 Q1417.79 1774.45 1417.79 1781.58 Q1417.79 1788.68 1419.59 1792.25 Q1421.42 1795.79 1425.03 1795.79 Q1428.67 1795.79 1430.47 1792.25 Q1432.3 1788.68 1432.3 1781.58 Q1432.3 1774.45 1430.47 1770.9 Q1428.67 1767.34 1425.03 1767.34 M1425.03 1763.64 Q1430.84 1763.64 1433.9 1768.24 Q1436.98 1772.83 1436.98 1781.58 Q1436.98 1790.3 1433.9 1794.91 Q1430.84 1799.49 1425.03 1799.49 Q1419.22 1799.49 1416.15 1794.91 Q1413.09 1790.3 1413.09 1781.58 Q1413.09 1772.83 1416.15 1768.24 Q1419.22 1763.64 1425.03 1763.64 Z" fill="#000000" fill-rule="nonzero" fill-opacity="1" /><path clip-path="url(#clip820)" d="M1455.2 1767.34 Q1451.58 1767.34 1449.76 1770.9 Q1447.95 1774.45 1447.95 1781.58 Q1447.95 1788.68 1449.76 1792.25 Q1451.58 1795.79 1455.2 1795.79 Q1458.83 1795.79 1460.64 1792.25 Q1462.46 1788.68 1462.46 1781.58 Q1462.46 1774.45 1460.64 1770.9 Q1458.83 1767.34 1455.2 1767.34 M1455.2 1763.64 Q1461.01 1763.64 1464.06 1768.24 Q1467.14 1772.83 1467.14 1781.58 Q1467.14 1790.3 1464.06 1794.91 Q1461.01 1799.49 1455.2 1799.49 Q1449.39 1799.49 1446.31 1794.91 Q1443.25 1790.3 1443.25 1781.58 Q1443.25 1772.83 1446.31 1768.24 Q1449.39 1763.64 1455.2 1763.64 Z" fill="#000000" fill-rule="nonzero" fill-opacity="1" /><path clip-path="url(#clip820)" d="M1958.64 1794.89 L1966.28 1794.89 L1966.28 1768.52 L1957.97 1770.19 L1957.97 1765.93 L1966.24 1764.26 L1970.91 1764.26 L1970.91 1794.89 L1978.55 1794.89 L1978.55 1798.82 L1958.64 1798.82 L1958.64 1794.89 Z" fill="#000000" fill-rule="nonzero" fill-opacity="1" /><path clip-path="url(#clip820)" d="M1988.04 1764.26 L2006.4 1764.26 L2006.4 1768.2 L1992.33 1768.2 L1992.33 1776.67 Q1993.34 1776.32 1994.36 1776.16 Q1995.38 1775.97 1996.4 1775.97 Q2002.19 1775.97 2005.57 1779.15 Q2008.95 1782.32 2008.95 1787.73 Q2008.95 1793.31 2005.47 1796.41 Q2002 1799.49 1995.68 1799.49 Q1993.51 1799.49 1991.24 1799.12 Q1988.99 1798.75 1986.58 1798.01 L1986.58 1793.31 Q1988.67 1794.45 1990.89 1795 Q1993.11 1795.56 1995.59 1795.56 Q1999.59 1795.56 2001.93 1793.45 Q2004.27 1791.34 2004.27 1787.73 Q2004.27 1784.12 2001.93 1782.02 Q1999.59 1779.91 1995.59 1779.91 Q1993.71 1779.91 1991.84 1780.33 Q1989.99 1780.74 1988.04 1781.62 L1988.04 1764.26 Z" fill="#000000" fill-rule="nonzero" fill-opacity="1" /><path clip-path="url(#clip820)" d="M2028.16 1767.34 Q2024.55 1767.34 2022.72 1770.9 Q2020.91 1774.45 2020.91 1781.58 Q2020.91 1788.68 2022.72 1792.25 Q2024.55 1795.79 2028.16 1795.79 Q2031.79 1795.79 2033.6 1792.25 Q2035.43 1788.68 2035.43 1781.58 Q2035.43 1774.45 2033.6 1770.9 Q2031.79 1767.34 2028.16 1767.34 M2028.16 1763.64 Q2033.97 1763.64 2037.02 1768.24 Q2040.1 1772.83 2040.1 1781.58 Q2040.1 1790.3 2037.02 1794.91 Q2033.97 1799.49 2028.16 1799.49 Q2022.35 1799.49 2019.27 1794.91 Q2016.21 1790.3 2016.21 1781.58 Q2016.21 1772.83 2019.27 1768.24 Q2022.35 1763.64 2028.16 1763.64 Z" fill="#000000" fill-rule="nonzero" fill-opacity="1" /><path clip-path="url(#clip820)" d="M2535.69 1794.89 L2552.01 1794.89 L2552.01 1798.82 L2530.07 1798.82 L2530.07 1794.89 Q2532.73 1792.13 2537.31 1787.5 Q2541.92 1782.85 2543.1 1781.51 Q2545.35 1778.98 2546.23 1777.25 Q2547.13 1775.49 2547.13 1773.8 Q2547.13 1771.04 2545.18 1769.31 Q2543.26 1767.57 2540.16 1767.57 Q2537.96 1767.57 2535.51 1768.34 Q2533.08 1769.1 2530.3 1770.65 L2530.3 1765.93 Q2533.12 1764.79 2535.58 1764.21 Q2538.03 1763.64 2540.07 1763.64 Q2545.44 1763.64 2548.63 1766.32 Q2551.83 1769.01 2551.83 1773.5 Q2551.83 1775.63 2551.02 1777.55 Q2550.23 1779.45 2548.12 1782.04 Q2547.54 1782.71 2544.44 1785.93 Q2541.34 1789.12 2535.69 1794.89 Z" fill="#000000" fill-rule="nonzero" fill-opacity="1" /><path clip-path="url(#clip820)" d="M2571.83 1767.34 Q2568.22 1767.34 2566.39 1770.9 Q2564.58 1774.45 2564.58 1781.58 Q2564.58 1788.68 2566.39 1792.25 Q2568.22 1795.79 2571.83 1795.79 Q2575.46 1795.79 2577.27 1792.25 Q2579.1 1788.68 2579.1 1781.58 Q2579.1 1774.45 2577.27 1770.9 Q2575.46 1767.34 2571.83 1767.34 M2571.83 1763.64 Q2577.64 1763.64 2580.69 1768.24 Q2583.77 1772.83 2583.77 1781.58 Q2583.77 1790.3 2580.69 1794.91 Q2577.64 1799.49 2571.83 1799.49 Q2566.02 1799.49 2562.94 1794.91 Q2559.88 1790.3 2559.88 1781.58 Q2559.88 1772.83 2562.94 1768.24 Q2566.02 1763.64 2571.83 1763.64 Z" fill="#000000" fill-rule="nonzero" fill-opacity="1" /><path clip-path="url(#clip820)" d="M2601.99 1767.34 Q2598.38 1767.34 2596.55 1770.9 Q2594.74 1774.45 2594.74 1781.58 Q2594.74 1788.68 2596.55 1792.25 Q2598.38 1795.79 2601.99 1795.79 Q2605.62 1795.79 2607.43 1792.25 Q2609.26 1788.68 2609.26 1781.58 Q2609.26 1774.45 2607.43 1770.9 Q2605.62 1767.34 2601.99 1767.34 M2601.99 1763.64 Q2607.8 1763.64 2610.85 1768.24 Q2613.93 1772.83 2613.93 1781.58 Q2613.93 1790.3 2610.85 1794.91 Q2607.8 1799.49 2601.99 1799.49 Q2596.18 1799.49 2593.1 1794.91 Q2590.04 1790.3 2590.04 1781.58 Q2590.04 1772.83 2593.1 1768.24 Q2596.18 1763.64 2601.99 1763.64 Z" fill="#000000" fill-rule="nonzero" fill-opacity="1" /><path clip-path="url(#clip820)" d="M1347.95 1835.78 L1388.15 1835.78 L1388.15 1841.19 L1371.28 1841.19 L1371.28 1883.3 L1364.82 1883.3 L1364.82 1841.19 L1347.95 1841.19 L1347.95 1835.78 Z" fill="#000000" fill-rule="nonzero" fill-opacity="1" /><path clip-path="url(#clip820)" d="M1392.1 1847.65 L1397.96 1847.65 L1397.96 1883.3 L1392.1 1883.3 L1392.1 1847.65 M1392.1 1833.78 L1397.96 1833.78 L1397.96 1841.19 L1392.1 1841.19 L1392.1 1833.78 Z" fill="#000000" fill-rule="nonzero" fill-opacity="1" /><path clip-path="url(#clip820)" d="M1437.96 1854.5 Q1440.16 1850.55 1443.22 1848.67 Q1446.27 1846.79 1450.41 1846.79 Q1455.98 1846.79 1459 1850.71 Q1462.03 1854.59 1462.03 1861.78 L1462.03 1883.3 L1456.14 1883.3 L1456.14 1861.98 Q1456.14 1856.85 1454.32 1854.37 Q1452.51 1851.89 1448.79 1851.89 Q1444.23 1851.89 1441.59 1854.91 Q1438.95 1857.93 1438.95 1863.15 L1438.95 1883.3 L1433.06 1883.3 L1433.06 1861.98 Q1433.06 1856.82 1431.25 1854.37 Q1429.43 1851.89 1425.65 1851.89 Q1421.16 1851.89 1418.52 1854.94 Q1415.87 1857.97 1415.87 1863.15 L1415.87 1883.3 L1409.99 1883.3 L1409.99 1847.65 L1415.87 1847.65 L1415.87 1853.19 Q1417.88 1849.91 1420.68 1848.35 Q1423.48 1846.79 1427.33 1846.79 Q1431.22 1846.79 1433.92 1848.77 Q1436.66 1850.74 1437.96 1854.5 Z" fill="#000000" fill-rule="nonzero" fill-opacity="1" /><path clip-path="url(#clip820)" d="M1504.2 1864.01 L1504.2 1866.88 L1477.27 1866.88 Q1477.65 1872.92 1480.9 1876.11 Q1484.18 1879.26 1490 1879.26 Q1493.38 1879.26 1496.53 1878.43 Q1499.71 1877.6 1502.83 1875.95 L1502.83 1881.49 Q1499.68 1882.82 1496.37 1883.52 Q1493.06 1884.22 1489.65 1884.22 Q1481.12 1884.22 1476.13 1879.26 Q1471.16 1874.29 1471.16 1865.83 Q1471.16 1857.07 1475.87 1851.95 Q1480.61 1846.79 1488.63 1846.79 Q1495.83 1846.79 1500 1851.44 Q1504.2 1856.06 1504.2 1864.01 M1498.34 1862.29 Q1498.28 1857.49 1495.64 1854.62 Q1493.03 1851.76 1488.7 1851.76 Q1483.8 1851.76 1480.84 1854.53 Q1477.91 1857.3 1477.46 1862.33 L1498.34 1862.29 Z" fill="#000000" fill-rule="nonzero" fill-opacity="1" /><polyline clip-path="url(#clip820)" style="stroke:#000000; stroke-linecap:round; stroke-linejoin:round; stroke-width:4; stroke-opacity:1; fill:none" points="211.395,1734.12 211.395,127.792 "/>
<polyline clip-path="url(#clip820)" style="stroke:#000000; stroke-linecap:round; stroke-linejoin:round; stroke-width:4; stroke-opacity:1; fill:none" points="211.395,1689.45 230.293,1689.45 "/>
<polyline clip-path="url(#clip820)" style="stroke:#000000; stroke-linecap:round; stroke-linejoin:round; stroke-width:4; stroke-opacity:1; fill:none" points="211.395,1391.88 230.293,1391.88 "/>
<polyline clip-path="url(#clip820)" style="stroke:#000000; stroke-linecap:round; stroke-linejoin:round; stroke-width:4; stroke-opacity:1; fill:none" points="211.395,1094.3 230.293,1094.3 "/>
<polyline clip-path="url(#clip820)" style="stroke:#000000; stroke-linecap:round; stroke-linejoin:round; stroke-width:4; stroke-opacity:1; fill:none" points="211.395,796.725 230.293,796.725 "/>
<polyline clip-path="url(#clip820)" style="stroke:#000000; stroke-linecap:round; stroke-linejoin:round; stroke-width:4; stroke-opacity:1; fill:none" points="211.395,499.149 230.293,499.149 "/>
<polyline clip-path="url(#clip820)" style="stroke:#000000; stroke-linecap:round; stroke-linejoin:round; stroke-width:4; stroke-opacity:1; fill:none" points="211.395,201.573 230.293,201.573 "/>
<path clip-path="url(#clip820)" d="M159.131 1675.25 Q155.52 1675.25 153.691 1678.82 Q151.886 1682.36 151.886 1689.49 Q151.886 1696.59 153.691 1700.16 Q155.52 1703.7 159.131 1703.7 Q162.765 1703.7 164.571 1700.16 Q166.399 1696.59 166.399 1689.49 Q166.399 1682.36 164.571 1678.82 Q162.765 1675.25 159.131 1675.25 M159.131 1671.55 Q164.941 1671.55 167.997 1676.16 Q171.075 1680.74 171.075 1689.49 Q171.075 1698.22 167.997 1702.82 Q164.941 1707.4 159.131 1707.4 Q153.321 1707.4 150.242 1702.82 Q147.186 1698.22 147.186 1689.49 Q147.186 1680.74 150.242 1676.16 Q153.321 1671.55 159.131 1671.55 Z" fill="#000000" fill-rule="nonzero" fill-opacity="1" /><path clip-path="url(#clip820)" d="M119.779 1405.22 L127.418 1405.22 L127.418 1378.86 L119.108 1380.52 L119.108 1376.26 L127.372 1374.6 L132.048 1374.6 L132.048 1405.22 L139.687 1405.22 L139.687 1409.16 L119.779 1409.16 L119.779 1405.22 Z" fill="#000000" fill-rule="nonzero" fill-opacity="1" /><path clip-path="url(#clip820)" d="M159.131 1377.68 Q155.52 1377.68 153.691 1381.24 Q151.886 1384.78 151.886 1391.91 Q151.886 1399.02 153.691 1402.58 Q155.52 1406.12 159.131 1406.12 Q162.765 1406.12 164.571 1402.58 Q166.399 1399.02 166.399 1391.91 Q166.399 1384.78 164.571 1381.24 Q162.765 1377.68 159.131 1377.68 M159.131 1373.97 Q164.941 1373.97 167.997 1378.58 Q171.075 1383.16 171.075 1391.91 Q171.075 1400.64 167.997 1405.25 Q164.941 1409.83 159.131 1409.83 Q153.321 1409.83 150.242 1405.25 Q147.186 1400.64 147.186 1391.91 Q147.186 1383.16 150.242 1378.58 Q153.321 1373.97 159.131 1373.97 Z" fill="#000000" fill-rule="nonzero" fill-opacity="1" /><path clip-path="url(#clip820)" d="M122.997 1107.65 L139.316 1107.65 L139.316 1111.58 L117.372 1111.58 L117.372 1107.65 Q120.034 1104.89 124.617 1100.26 Q129.224 1095.61 130.404 1094.27 Q132.65 1091.74 133.529 1090.01 Q134.432 1088.25 134.432 1086.56 Q134.432 1083.8 132.488 1082.07 Q130.566 1080.33 127.464 1080.33 Q125.265 1080.33 122.812 1081.1 Q120.381 1081.86 117.603 1083.41 L117.603 1078.69 Q120.427 1077.55 122.881 1076.97 Q125.335 1076.4 127.372 1076.4 Q132.742 1076.4 135.937 1079.08 Q139.131 1081.77 139.131 1086.26 Q139.131 1088.39 138.321 1090.31 Q137.534 1092.21 135.427 1094.8 Q134.849 1095.47 131.747 1098.69 Q128.645 1101.88 122.997 1107.65 Z" fill="#000000" fill-rule="nonzero" fill-opacity="1" /><path clip-path="url(#clip820)" d="M159.131 1080.1 Q155.52 1080.1 153.691 1083.66 Q151.886 1087.21 151.886 1094.34 Q151.886 1101.44 153.691 1105.01 Q155.52 1108.55 159.131 1108.55 Q162.765 1108.55 164.571 1105.01 Q166.399 1101.44 166.399 1094.34 Q166.399 1087.21 164.571 1083.66 Q162.765 1080.1 159.131 1080.1 M159.131 1076.4 Q164.941 1076.4 167.997 1081 Q171.075 1085.59 171.075 1094.34 Q171.075 1103.06 167.997 1107.67 Q164.941 1112.25 159.131 1112.25 Q153.321 1112.25 150.242 1107.67 Q147.186 1103.06 147.186 1094.34 Q147.186 1085.59 150.242 1081 Q153.321 1076.4 159.131 1076.4 Z" fill="#000000" fill-rule="nonzero" fill-opacity="1" /><path clip-path="url(#clip820)" d="M133.136 795.371 Q136.492 796.088 138.367 798.357 Q140.265 800.625 140.265 803.959 Q140.265 809.074 136.747 811.875 Q133.228 814.676 126.747 814.676 Q124.571 814.676 122.256 814.237 Q119.964 813.82 117.511 812.963 L117.511 808.449 Q119.455 809.584 121.77 810.162 Q124.085 810.741 126.608 810.741 Q131.006 810.741 133.298 809.005 Q135.612 807.269 135.612 803.959 Q135.612 800.903 133.46 799.19 Q131.33 797.454 127.511 797.454 L123.483 797.454 L123.483 793.612 L127.696 793.612 Q131.145 793.612 132.974 792.246 Q134.802 790.857 134.802 788.264 Q134.802 785.602 132.904 784.19 Q131.029 782.755 127.511 782.755 Q125.589 782.755 123.39 783.172 Q121.191 783.589 118.552 784.468 L118.552 780.301 Q121.214 779.561 123.529 779.19 Q125.867 778.82 127.927 778.82 Q133.251 778.82 136.353 781.251 Q139.455 783.658 139.455 787.778 Q139.455 790.649 137.812 792.639 Q136.168 794.607 133.136 795.371 Z" fill="#000000" fill-rule="nonzero" fill-opacity="1" /><path clip-path="url(#clip820)" d="M159.131 782.524 Q155.52 782.524 153.691 786.089 Q151.886 789.63 151.886 796.76 Q151.886 803.866 153.691 807.431 Q155.52 810.973 159.131 810.973 Q162.765 810.973 164.571 807.431 Q166.399 803.866 166.399 796.76 Q166.399 789.63 164.571 786.089 Q162.765 782.524 159.131 782.524 M159.131 778.82 Q164.941 778.82 167.997 783.426 Q171.075 788.01 171.075 796.76 Q171.075 805.487 167.997 810.093 Q164.941 814.676 159.131 814.676 Q153.321 814.676 150.242 810.093 Q147.186 805.487 147.186 796.76 Q147.186 788.01 150.242 783.426 Q153.321 778.82 159.131 778.82 Z" fill="#000000" fill-rule="nonzero" fill-opacity="1" /><path clip-path="url(#clip820)" d="M131.816 485.943 L120.011 504.392 L131.816 504.392 L131.816 485.943 M130.589 481.869 L136.469 481.869 L136.469 504.392 L141.399 504.392 L141.399 508.281 L136.469 508.281 L136.469 516.429 L131.816 516.429 L131.816 508.281 L116.214 508.281 L116.214 503.767 L130.589 481.869 Z" fill="#000000" fill-rule="nonzero" fill-opacity="1" /><path clip-path="url(#clip820)" d="M159.131 484.948 Q155.52 484.948 153.691 488.512 Q151.886 492.054 151.886 499.184 Q151.886 506.29 153.691 509.855 Q155.52 513.396 159.131 513.396 Q162.765 513.396 164.571 509.855 Q166.399 506.29 166.399 499.184 Q166.399 492.054 164.571 488.512 Q162.765 484.948 159.131 484.948 M159.131 481.244 Q164.941 481.244 167.997 485.85 Q171.075 490.434 171.075 499.184 Q171.075 507.91 167.997 512.517 Q164.941 517.1 159.131 517.1 Q153.321 517.1 150.242 512.517 Q147.186 507.91 147.186 499.184 Q147.186 490.434 150.242 485.85 Q153.321 481.244 159.131 481.244 Z" fill="#000000" fill-rule="nonzero" fill-opacity="1" /><path clip-path="url(#clip820)" d="M119.015 184.293 L137.372 184.293 L137.372 188.228 L123.298 188.228 L123.298 196.7 Q124.316 196.353 125.335 196.191 Q126.353 196.006 127.372 196.006 Q133.159 196.006 136.538 199.177 Q139.918 202.348 139.918 207.765 Q139.918 213.343 136.446 216.445 Q132.974 219.524 126.654 219.524 Q124.478 219.524 122.21 219.154 Q119.964 218.783 117.557 218.042 L117.557 213.343 Q119.64 214.478 121.863 215.033 Q124.085 215.589 126.562 215.589 Q130.566 215.589 132.904 213.482 Q135.242 211.376 135.242 207.765 Q135.242 204.154 132.904 202.047 Q130.566 199.941 126.562 199.941 Q124.687 199.941 122.812 200.357 Q120.96 200.774 119.015 201.654 L119.015 184.293 Z" fill="#000000" fill-rule="nonzero" fill-opacity="1" /><path clip-path="url(#clip820)" d="M159.131 187.371 Q155.52 187.371 153.691 190.936 Q151.886 194.478 151.886 201.607 Q151.886 208.714 153.691 212.279 Q155.52 215.82 159.131 215.82 Q162.765 215.82 164.571 212.279 Q166.399 208.714 166.399 201.607 Q166.399 194.478 164.571 190.936 Q162.765 187.371 159.131 187.371 M159.131 183.668 Q164.941 183.668 167.997 188.274 Q171.075 192.857 171.075 201.607 Q171.075 210.334 167.997 214.941 Q164.941 219.524 159.131 219.524 Q153.321 219.524 150.242 214.941 Q147.186 210.334 147.186 201.607 Q147.186 192.857 150.242 188.274 Q153.321 183.668 159.131 183.668 Z" fill="#000000" fill-rule="nonzero" fill-opacity="1" /><path clip-path="url(#clip820)" d="M14.1184 1058.03 L14.1184 1051.6 L61.6384 1051.6 L61.6384 1058.03 L14.1184 1058.03 Z" fill="#000000" fill-rule="nonzero" fill-opacity="1" /><path clip-path="url(#clip820)" d="M40.1224 1009.43 L61.6384 1009.43 L61.6384 1015.28 L40.3133 1015.28 Q35.2526 1015.28 32.7381 1017.26 Q30.2237 1019.23 30.2237 1023.18 Q30.2237 1027.92 33.2474 1030.66 Q36.2711 1033.39 41.491 1033.39 L61.6384 1033.39 L61.6384 1039.28 L25.9905 1039.28 L25.9905 1033.39 L31.5287 1033.39 Q28.314 1031.29 26.7225 1028.46 Q25.1311 1025.6 25.1311 1021.87 Q25.1311 1015.73 28.9505 1012.58 Q32.7381 1009.43 40.1224 1009.43 Z" fill="#000000" fill-rule="nonzero" fill-opacity="1" /><path clip-path="url(#clip820)" d="M12.1132 979.7 L16.983 979.7 L16.983 985.302 Q16.983 988.453 18.2562 989.694 Q19.5293 990.904 22.8395 990.904 L25.9905 990.904 L25.9905 981.26 L30.542 981.26 L30.542 990.904 L61.6384 990.904 L61.6384 996.792 L30.542 996.792 L30.542 1002.39 L25.9905 1002.39 L25.9905 996.792 L23.5079 996.792 Q17.5559 996.792 14.8505 994.023 Q12.1132 991.254 12.1132 985.238 L12.1132 979.7 Z" fill="#000000" fill-rule="nonzero" fill-opacity="1" /><path clip-path="url(#clip820)" d="M42.3504 944.307 L45.2149 944.307 L45.2149 971.234 Q51.2623 970.852 54.4452 967.605 Q57.5962 964.327 57.5962 958.502 Q57.5962 955.128 56.7687 951.977 Q55.9411 948.794 54.2861 945.675 L59.8242 945.675 Q61.161 948.826 61.8612 952.136 Q62.5615 955.447 62.5615 958.852 Q62.5615 967.382 57.5962 972.379 Q52.631 977.345 44.1646 977.345 Q35.4117 977.345 30.2873 972.634 Q25.1311 967.892 25.1311 959.871 Q25.1311 952.678 29.7781 948.508 Q34.3932 944.307 42.3504 944.307 M40.6316 950.163 Q35.8255 950.227 32.9609 952.869 Q30.0964 955.478 30.0964 959.807 Q30.0964 964.709 32.8654 967.669 Q35.6345 970.597 40.6634 971.043 L40.6316 950.163 Z" fill="#000000" fill-rule="nonzero" fill-opacity="1" /><path clip-path="url(#clip820)" d="M27.3591 909.041 L32.8336 909.041 Q31.465 911.523 30.7966 914.038 Q30.0964 916.52 30.0964 919.067 Q30.0964 924.764 33.7248 927.915 Q37.3214 931.066 43.8463 931.066 Q50.3711 931.066 53.9996 927.915 Q57.5962 924.764 57.5962 919.067 Q57.5962 916.52 56.9278 914.038 Q56.2276 911.523 54.859 909.041 L60.2698 909.041 Q61.4156 911.491 61.9886 914.133 Q62.5615 916.743 62.5615 919.703 Q62.5615 927.756 57.5007 932.498 Q52.44 937.241 43.8463 937.241 Q35.1253 937.241 30.1282 932.466 Q25.1311 927.66 25.1311 919.321 Q25.1311 916.616 25.704 914.038 Q26.2451 911.46 27.3591 909.041 Z" fill="#000000" fill-rule="nonzero" fill-opacity="1" /><path clip-path="url(#clip820)" d="M15.869 893.063 L25.9905 893.063 L25.9905 881 L30.542 881 L30.542 893.063 L49.8937 893.063 Q54.2542 893.063 55.4955 891.885 Q56.7368 890.676 56.7368 887.015 L56.7368 881 L61.6384 881 L61.6384 887.015 Q61.6384 893.795 59.124 896.373 Q56.5777 898.951 49.8937 898.951 L30.542 898.951 L30.542 903.248 L25.9905 903.248 L25.9905 898.951 L15.869 898.951 L15.869 893.063 Z" fill="#000000" fill-rule="nonzero" fill-opacity="1" /><path clip-path="url(#clip820)" d="M42.3504 842.805 L45.2149 842.805 L45.2149 869.732 Q51.2623 869.35 54.4452 866.104 Q57.5962 862.826 57.5962 857.001 Q57.5962 853.627 56.7687 850.476 Q55.9411 847.293 54.2861 844.174 L59.8242 844.174 Q61.161 847.325 61.8612 850.635 Q62.5615 853.945 62.5615 857.351 Q62.5615 865.881 57.5962 870.878 Q52.631 875.843 44.1646 875.843 Q35.4117 875.843 30.2873 871.133 Q25.1311 866.39 25.1311 858.37 Q25.1311 851.176 29.7781 847.007 Q34.3932 842.805 42.3504 842.805 M40.6316 848.662 Q35.8255 848.726 32.9609 851.367 Q30.0964 853.977 30.0964 858.306 Q30.0964 863.208 32.8654 866.168 Q35.6345 869.096 40.6634 869.541 L40.6316 848.662 Z" fill="#000000" fill-rule="nonzero" fill-opacity="1" /><path clip-path="url(#clip820)" d="M31.4013 809.736 L12.1132 809.736 L12.1132 803.879 L61.6384 803.879 L61.6384 809.736 L56.2912 809.736 Q59.4741 811.582 61.0337 814.414 Q62.5615 817.215 62.5615 821.162 Q62.5615 827.623 57.4052 831.697 Q52.249 835.739 43.8463 835.739 Q35.4436 835.739 30.2873 831.697 Q25.1311 827.623 25.1311 821.162 Q25.1311 817.215 26.6907 814.414 Q28.2185 811.582 31.4013 809.736 M43.8463 829.692 Q50.3075 829.692 53.9996 827.05 Q57.6599 824.377 57.6599 819.73 Q57.6599 815.083 53.9996 812.409 Q50.3075 809.736 43.8463 809.736 Q37.3851 809.736 33.7248 812.409 Q30.0327 815.083 30.0327 819.73 Q30.0327 824.377 33.7248 827.05 Q37.3851 829.692 43.8463 829.692 Z" fill="#000000" fill-rule="nonzero" fill-opacity="1" /><path clip-path="url(#clip820)" d="M965.893 12.096 L974.076 12.096 L974.076 72.576 L965.893 72.576 L965.893 12.096 Z" fill="#000000" fill-rule="nonzero" fill-opacity="1" /><path clip-path="url(#clip820)" d="M1027.75 45.1919 L1027.75 72.576 L1020.3 72.576 L1020.3 45.4349 Q1020.3 38.994 1017.78 35.7938 Q1015.27 32.5936 1010.25 32.5936 Q1004.21 32.5936 1000.73 36.4419 Q997.247 40.2903 997.247 46.9338 L997.247 72.576 L989.753 72.576 L989.753 27.2059 L997.247 27.2059 L997.247 34.2544 Q999.92 30.163 1003.53 28.1376 Q1007.17 26.1121 1011.91 26.1121 Q1019.73 26.1121 1023.74 30.9732 Q1027.75 35.7938 1027.75 45.1919 Z" fill="#000000" fill-rule="nonzero" fill-opacity="1" /><path clip-path="url(#clip820)" d="M1065.59 9.54393 L1065.59 15.7418 L1058.46 15.7418 Q1054.45 15.7418 1052.87 17.3622 Q1051.33 18.9825 1051.33 23.1955 L1051.33 27.2059 L1063.6 27.2059 L1063.6 32.9987 L1051.33 32.9987 L1051.33 72.576 L1043.83 72.576 L1043.83 32.9987 L1036.7 32.9987 L1036.7 27.2059 L1043.83 27.2059 L1043.83 24.0462 Q1043.83 16.471 1047.36 13.0277 Q1050.88 9.54393 1058.54 9.54393 L1065.59 9.54393 Z" fill="#000000" fill-rule="nonzero" fill-opacity="1" /><path clip-path="url(#clip820)" d="M1110.63 48.0275 L1110.63 51.6733 L1076.36 51.6733 Q1076.85 59.3701 1080.98 63.421 Q1085.15 67.4314 1092.56 67.4314 Q1096.86 67.4314 1100.87 66.3781 Q1104.92 65.3249 1108.89 63.2184 L1108.89 70.267 Q1104.88 71.9684 1100.67 72.8596 Q1096.45 73.7508 1092.12 73.7508 Q1081.26 73.7508 1074.9 67.4314 Q1068.58 61.1119 1068.58 50.3365 Q1068.58 39.1965 1074.58 32.6746 Q1080.61 26.1121 1090.82 26.1121 Q1099.98 26.1121 1105.28 32.0264 Q1110.63 37.9003 1110.63 48.0275 M1103.18 45.84 Q1103.1 39.7232 1099.73 36.0774 Q1096.41 32.4315 1090.9 32.4315 Q1084.67 32.4315 1080.9 35.9558 Q1077.17 39.4801 1076.6 45.8805 L1103.18 45.84 Z" fill="#000000" fill-rule="nonzero" fill-opacity="1" /><path clip-path="url(#clip820)" d="M1155.52 28.9478 L1155.52 35.9153 Q1152.36 34.1734 1149.16 33.3227 Q1146 32.4315 1142.76 32.4315 Q1135.5 32.4315 1131.49 37.0496 Q1127.48 41.6271 1127.48 49.9314 Q1127.48 58.2358 1131.49 62.8538 Q1135.5 67.4314 1142.76 67.4314 Q1146 67.4314 1149.16 66.5807 Q1152.36 65.6895 1155.52 63.9476 L1155.52 70.8341 Q1152.4 72.2924 1149.03 73.0216 Q1145.71 73.7508 1141.95 73.7508 Q1131.7 73.7508 1125.66 67.3098 Q1119.62 60.8689 1119.62 49.9314 Q1119.62 38.832 1125.7 32.472 Q1131.82 26.1121 1142.43 26.1121 Q1145.87 26.1121 1149.16 26.8413 Q1152.44 27.5299 1155.52 28.9478 Z" fill="#000000" fill-rule="nonzero" fill-opacity="1" /><path clip-path="url(#clip820)" d="M1175.85 14.324 L1175.85 27.2059 L1191.2 27.2059 L1191.2 32.9987 L1175.85 32.9987 L1175.85 57.6282 Q1175.85 63.1779 1177.35 64.7578 Q1178.89 66.3376 1183.55 66.3376 L1191.2 66.3376 L1191.2 72.576 L1183.55 72.576 Q1174.92 72.576 1171.64 69.3758 Q1168.36 66.1351 1168.36 57.6282 L1168.36 32.9987 L1162.89 32.9987 L1162.89 27.2059 L1168.36 27.2059 L1168.36 14.324 L1175.85 14.324 Z" fill="#000000" fill-rule="nonzero" fill-opacity="1" /><path clip-path="url(#clip820)" d="M1239.82 48.0275 L1239.82 51.6733 L1205.54 51.6733 Q1206.03 59.3701 1210.16 63.421 Q1214.33 67.4314 1221.75 67.4314 Q1226.04 67.4314 1230.05 66.3781 Q1234.1 65.3249 1238.07 63.2184 L1238.07 70.267 Q1234.06 71.9684 1229.85 72.8596 Q1225.64 73.7508 1221.3 73.7508 Q1210.45 73.7508 1204.09 67.4314 Q1197.77 61.1119 1197.77 50.3365 Q1197.77 39.1965 1203.76 32.6746 Q1209.8 26.1121 1220.01 26.1121 Q1229.16 26.1121 1234.47 32.0264 Q1239.82 37.9003 1239.82 48.0275 M1232.36 45.84 Q1232.28 39.7232 1228.92 36.0774 Q1225.6 32.4315 1220.09 32.4315 Q1213.85 32.4315 1210.08 35.9558 Q1206.35 39.4801 1205.79 45.8805 L1232.36 45.84 Z" fill="#000000" fill-rule="nonzero" fill-opacity="1" /><path clip-path="url(#clip820)" d="M1281.9 34.0924 L1281.9 9.54393 L1289.36 9.54393 L1289.36 72.576 L1281.9 72.576 L1281.9 65.7705 Q1279.55 69.8214 1275.95 71.8063 Q1272.38 73.7508 1267.36 73.7508 Q1259.14 73.7508 1253.95 67.1883 Q1248.81 60.6258 1248.81 49.9314 Q1248.81 39.2371 1253.95 32.6746 Q1259.14 26.1121 1267.36 26.1121 Q1272.38 26.1121 1275.95 28.0971 Q1279.55 30.0415 1281.9 34.0924 M1256.5 49.9314 Q1256.5 58.1548 1259.87 62.8538 Q1263.27 67.5124 1269.18 67.5124 Q1275.1 67.5124 1278.5 62.8538 Q1281.9 58.1548 1281.9 49.9314 Q1281.9 41.7081 1278.5 37.0496 Q1275.1 32.3505 1269.18 32.3505 Q1263.27 32.3505 1259.87 37.0496 Q1256.5 41.7081 1256.5 49.9314 Z" fill="#000000" fill-rule="nonzero" fill-opacity="1" /><path clip-path="url(#clip820)" d="M1363.65 49.9314 Q1363.65 41.7081 1360.25 37.0496 Q1356.89 32.3505 1350.97 32.3505 Q1345.06 32.3505 1341.65 37.0496 Q1338.29 41.7081 1338.29 49.9314 Q1338.29 58.1548 1341.65 62.8538 Q1345.06 67.5124 1350.97 67.5124 Q1356.89 67.5124 1360.25 62.8538 Q1363.65 58.1548 1363.65 49.9314 M1338.29 34.0924 Q1340.64 30.0415 1344.21 28.0971 Q1347.81 26.1121 1352.79 26.1121 Q1361.06 26.1121 1366.2 32.6746 Q1371.39 39.2371 1371.39 49.9314 Q1371.39 60.6258 1366.2 67.1883 Q1361.06 73.7508 1352.79 73.7508 Q1347.81 73.7508 1344.21 71.8063 Q1340.64 69.8214 1338.29 65.7705 L1338.29 72.576 L1330.8 72.576 L1330.8 9.54393 L1338.29 9.54393 L1338.29 34.0924 Z" fill="#000000" fill-rule="nonzero" fill-opacity="1" /><path clip-path="url(#clip820)" d="M1402.62 76.7889 Q1399.46 84.8907 1396.46 87.3618 Q1393.47 89.8329 1388.44 89.8329 L1382.49 89.8329 L1382.49 83.5945 L1386.86 83.5945 Q1389.94 83.5945 1391.64 82.1361 Q1393.34 80.6778 1395.41 75.2496 L1396.75 71.8468 L1378.4 27.2059 L1386.3 27.2059 L1400.47 62.6918 L1414.65 27.2059 L1422.55 27.2059 L1402.62 76.7889 Z" fill="#000000" fill-rule="nonzero" fill-opacity="1" /><path clip-path="url(#clip820)" d="M1479.75 20.1573 L1468.65 50.2555 L1490.89 50.2555 L1479.75 20.1573 M1475.13 12.096 L1484.41 12.096 L1507.46 72.576 L1498.95 72.576 L1493.44 57.061 L1466.18 57.061 L1460.67 72.576 L1452.04 72.576 L1475.13 12.096 Z" fill="#000000" fill-rule="nonzero" fill-opacity="1" /><path clip-path="url(#clip820)" d="M1545.82 49.3643 Q1545.82 41.2625 1542.46 36.8065 Q1539.14 32.3505 1533.1 32.3505 Q1527.11 32.3505 1523.74 36.8065 Q1520.42 41.2625 1520.42 49.3643 Q1520.42 57.4256 1523.74 61.8816 Q1527.11 66.3376 1533.1 66.3376 Q1539.14 66.3376 1542.46 61.8816 Q1545.82 57.4256 1545.82 49.3643 M1553.27 66.9452 Q1553.27 78.5308 1548.13 84.1616 Q1542.98 89.8329 1532.37 89.8329 Q1528.44 89.8329 1524.96 89.2252 Q1521.47 88.6581 1518.19 87.4428 L1518.19 80.1917 Q1521.47 81.9741 1524.67 82.8248 Q1527.87 83.6755 1531.2 83.6755 Q1538.53 83.6755 1542.17 79.8271 Q1545.82 76.0193 1545.82 68.282 L1545.82 64.5957 Q1543.51 68.6061 1539.91 70.5911 Q1536.3 72.576 1531.28 72.576 Q1522.93 72.576 1517.83 66.2161 Q1512.72 59.8562 1512.72 49.3643 Q1512.72 38.832 1517.83 32.472 Q1522.93 26.1121 1531.28 26.1121 Q1536.3 26.1121 1539.91 28.0971 Q1543.51 30.082 1545.82 34.0924 L1545.82 27.2059 L1553.27 27.2059 L1553.27 66.9452 Z" fill="#000000" fill-rule="nonzero" fill-opacity="1" /><path clip-path="url(#clip820)" d="M1607.43 48.0275 L1607.43 51.6733 L1573.16 51.6733 Q1573.65 59.3701 1577.78 63.421 Q1581.95 67.4314 1589.37 67.4314 Q1593.66 67.4314 1597.67 66.3781 Q1601.72 65.3249 1605.69 63.2184 L1605.69 70.267 Q1601.68 71.9684 1597.47 72.8596 Q1593.26 73.7508 1588.92 73.7508 Q1578.07 73.7508 1571.71 67.4314 Q1565.39 61.1119 1565.39 50.3365 Q1565.39 39.1965 1571.38 32.6746 Q1577.42 26.1121 1587.63 26.1121 Q1596.78 26.1121 1602.09 32.0264 Q1607.43 37.9003 1607.43 48.0275 M1599.98 45.84 Q1599.9 39.7232 1596.54 36.0774 Q1593.22 32.4315 1587.71 32.4315 Q1581.47 32.4315 1577.7 35.9558 Q1573.97 39.4801 1573.41 45.8805 L1599.98 45.84 Z" fill="#000000" fill-rule="nonzero" fill-opacity="1" /><path clip-path="url(#clip820)" d="M1687.6 63.9476 L1687.6 47.7034 L1674.23 47.7034 L1674.23 40.9789 L1695.7 40.9789 L1695.7 66.9452 Q1690.96 70.3075 1685.25 72.0494 Q1679.54 73.7508 1673.06 73.7508 Q1658.88 73.7508 1650.86 65.4869 Q1642.88 57.1826 1642.88 42.3968 Q1642.88 27.5705 1650.86 19.3066 Q1658.88 11.0023 1673.06 11.0023 Q1678.97 11.0023 1684.28 12.4606 Q1689.63 13.9189 1694.12 16.7545 L1694.12 25.464 Q1689.59 21.6156 1684.48 19.6712 Q1679.38 17.7268 1673.75 17.7268 Q1662.65 17.7268 1657.06 23.9246 Q1651.51 30.1225 1651.51 42.3968 Q1651.51 54.6305 1657.06 60.8284 Q1662.65 67.0263 1673.75 67.0263 Q1678.08 67.0263 1681.49 66.2971 Q1684.89 65.5274 1687.6 63.9476 Z" fill="#000000" fill-rule="nonzero" fill-opacity="1" /><path clip-path="url(#clip820)" d="M1736.62 34.1734 Q1735.36 33.4443 1733.86 33.1202 Q1732.4 32.7556 1730.62 32.7556 Q1724.3 32.7556 1720.9 36.8875 Q1717.54 40.9789 1717.54 48.6757 L1717.54 72.576 L1710.04 72.576 L1710.04 27.2059 L1717.54 27.2059 L1717.54 34.2544 Q1719.89 30.1225 1723.66 28.1376 Q1727.42 26.1121 1732.81 26.1121 Q1733.58 26.1121 1734.51 26.2337 Q1735.44 26.3147 1736.58 26.5172 L1736.62 34.1734 Z" fill="#000000" fill-rule="nonzero" fill-opacity="1" /><path clip-path="url(#clip820)" d="M1760.19 32.4315 Q1754.2 32.4315 1750.72 37.1306 Q1747.23 41.7891 1747.23 49.9314 Q1747.23 58.0738 1750.67 62.7728 Q1754.16 67.4314 1760.19 67.4314 Q1766.15 67.4314 1769.63 62.7323 Q1773.12 58.0333 1773.12 49.9314 Q1773.12 41.8701 1769.63 37.1711 Q1766.15 32.4315 1760.19 32.4315 M1760.19 26.1121 Q1769.92 26.1121 1775.47 32.4315 Q1781.02 38.7509 1781.02 49.9314 Q1781.02 61.0714 1775.47 67.4314 Q1769.92 73.7508 1760.19 73.7508 Q1750.43 73.7508 1744.88 67.4314 Q1739.37 61.0714 1739.37 49.9314 Q1739.37 38.7509 1744.88 32.4315 Q1750.43 26.1121 1760.19 26.1121 Z" fill="#000000" fill-rule="nonzero" fill-opacity="1" /><path clip-path="url(#clip820)" d="M1792.6 54.671 L1792.6 27.2059 L1800.06 27.2059 L1800.06 54.3874 Q1800.06 60.8284 1802.57 64.0691 Q1805.08 67.2693 1810.1 67.2693 Q1816.14 67.2693 1819.62 63.421 Q1823.15 59.5726 1823.15 52.9291 L1823.15 27.2059 L1830.6 27.2059 L1830.6 72.576 L1823.15 72.576 L1823.15 65.6084 Q1820.43 69.7404 1816.83 71.7658 Q1813.26 73.7508 1808.52 73.7508 Q1800.7 73.7508 1796.65 68.8897 Q1792.6 64.0286 1792.6 54.671 M1811.36 26.1121 L1811.36 26.1121 Z" fill="#000000" fill-rule="nonzero" fill-opacity="1" /><path clip-path="url(#clip820)" d="M1853.16 65.7705 L1853.16 89.8329 L1845.67 89.8329 L1845.67 27.2059 L1853.16 27.2059 L1853.16 34.0924 Q1855.51 30.0415 1859.08 28.0971 Q1862.68 26.1121 1867.66 26.1121 Q1875.93 26.1121 1881.07 32.6746 Q1886.26 39.2371 1886.26 49.9314 Q1886.26 60.6258 1881.07 67.1883 Q1875.93 73.7508 1867.66 73.7508 Q1862.68 73.7508 1859.08 71.8063 Q1855.51 69.8214 1853.16 65.7705 M1878.52 49.9314 Q1878.52 41.7081 1875.12 37.0496 Q1871.76 32.3505 1865.84 32.3505 Q1859.93 32.3505 1856.52 37.0496 Q1853.16 41.7081 1853.16 49.9314 Q1853.16 58.1548 1856.52 62.8538 Q1859.93 67.5124 1865.84 67.5124 Q1871.76 67.5124 1875.12 62.8538 Q1878.52 58.1548 1878.52 49.9314 Z" fill="#000000" fill-rule="nonzero" fill-opacity="1" /><polyline clip-path="url(#clip821)" style="stroke:#0000ff; stroke-linecap:round; stroke-linejoin:round; stroke-width:4; stroke-opacity:1; fill:none" points="280.151,1590.26 285.88,1584.06 291.61,1577.63 297.34,1570.95 303.069,1564.02 308.799,1556.83 314.528,1549.37 320.258,1541.64 325.988,1533.61 331.717,1525.29 337.447,1516.65 343.177,1507.7 348.906,1498.42 354.636,1488.8 360.365,1478.83 366.095,1468.51 371.825,1457.82 377.554,1446.74 383.284,1435.29 389.014,1423.43 394.743,1411.17 400.473,1398.5 406.202,1385.4 411.932,1371.88 417.662,1357.91 423.391,1343.49 429.121,1328.62 434.851,1313.29 440.58,1297.5 446.31,1281.24 452.039,1264.5 457.769,1247.3 463.499,1229.63 469.228,1211.48 474.958,1192.87 480.688,1173.79 486.417,1154.24 492.147,1134.24 497.876,1113.79 503.606,1092.9 509.336,1071.57 515.065,1049.84 520.795,1027.7 526.525,1005.18 532.254,982.29 537.984,959.062 543.713,935.515 549.443,911.674 555.173,887.566 560.902,863.221 566.632,838.671 572.362,813.948 578.091,789.087 583.821,764.126 589.55,739.104 595.28,714.062 601.01,689.044 606.739,664.094 612.469,639.26 618.199,614.591 623.928,590.138 629.658,565.954 635.387,542.094 641.117,518.614 646.847,495.547 652.576,472.942 658.306,450.853 664.036,429.334 669.765,408.433 675.495,388.197 681.224,368.672 686.954,349.898 692.684,331.916 698.413,314.762 704.143,298.471 709.873,283.075 715.602,268.602 721.332,255.08 727.061,242.533 732.791,230.982 738.521,220.448 744.25,210.945 749.98,202.489 755.71,195.092 761.439,188.761 767.169,183.504 772.898,179.325 778.628,176.224 784.358,174.202 790.087,173.254 795.817,173.374 801.547,174.554 807.276,176.782 813.006,180.045 818.735,184.326 824.465,189.587 830.195,195.774 835.924,202.856 841.654,210.8 847.384,219.576 853.113,229.151 858.843,239.494 864.572,250.573 870.302,262.356 876.032,274.811 881.761,287.905 887.491,301.606 893.221,315.882 898.95,330.7 904.68,346.028 910.409,361.832 916.139,378.08 921.869,394.738 927.598,411.774 933.328,429.154 939.058,446.845 944.787,464.813 950.517,483.025 956.246,501.447 961.976,520.045 967.706,538.785 973.435,557.634 979.165,576.557 984.895,595.519 990.624,614.487 996.354,633.425 1002.08,652.3 1007.81,671.077 1013.54,689.76 1019.27,708.374 1025,726.905 1030.73,745.339 1036.46,763.662 1042.19,781.86 1047.92,799.922 1053.65,817.836 1059.38,835.59 1065.11,853.174 1070.84,870.578 1076.57,887.793 1082.3,904.81 1088.03,921.622 1093.76,938.22 1099.49,954.599 1105.22,970.753 1110.95,986.674 1116.68,1002.36 1122.41,1017.81 1128.14,1033.01 1133.86,1047.96 1139.59,1062.67 1145.32,1077.13 1151.05,1091.33 1156.78,1105.28 1162.51,1118.98 1168.24,1132.43 1173.97,1145.63 1179.7,1158.58 1185.43,1171.29 1191.16,1183.76 1196.89,1195.99 1202.62,1207.99 1208.35,1219.75 1214.08,1231.27 1219.81,1242.57 1225.54,1253.63 1231.27,1264.46 1237,1275.07 1242.73,1285.45 1248.46,1295.6 1254.19,1305.53 1259.92,1315.24 1265.65,1324.73 1271.38,1334.01 1277.11,1343.07 1282.83,1351.92 1288.56,1360.57 1294.29,1369 1300.02,1377.24 1305.75,1385.27 1311.48,1393.11 1317.21,1400.75 1322.94,1408.21 1328.67,1415.48 1334.4,1422.56 1340.13,1429.47 1345.86,1436.2 1351.59,1442.76 1357.32,1449.15 1363.05,1455.38 1368.78,1461.45 1374.51,1467.37 1380.24,1473.14 1385.97,1478.76 1391.7,1484.25 1397.43,1489.59 1403.16,1494.81 1408.89,1499.91 1414.62,1504.89 1420.35,1509.75 1426.08,1514.5 1431.81,1519.14 1437.53,1523.66 1443.26,1528.07 1448.99,1532.36 1454.72,1536.55 1460.45,1540.62 1466.18,1544.6 1471.91,1548.46 1477.64,1552.23 1483.37,1555.9 1489.1,1559.47 1494.83,1562.95 1500.56,1566.33 1506.29,1569.63 1512.02,1572.83 1517.75,1575.95 1523.48,1578.99 1529.21,1581.94 1534.94,1584.81 1540.67,1587.61 1546.4,1590.33 1552.13,1592.97 1557.86,1595.54 1563.59,1598.05 1569.32,1600.48 1575.05,1602.86 1580.78,1605.16 1586.51,1607.41 1592.23,1609.6 1597.96,1611.73 1603.69,1613.81 1609.42,1615.83 1615.15,1617.8 1620.88,1619.73 1626.61,1621.6 1632.34,1623.43 1638.07,1625.21 1643.8,1626.94 1649.53,1628.62 1655.26,1630.26 1660.99,1631.86 1666.72,1633.41 1672.45,1634.92 1678.18,1636.39 1683.91,1637.82 1689.64,1639.21 1695.37,1640.57 1701.1,1641.88 1706.83,1643.16 1712.56,1644.4 1718.29,1645.61 1724.02,1646.79 1729.75,1647.93 1735.48,1649.04 1741.2,1650.12 1746.93,1651.17 1752.66,1652.19 1758.39,1653.19 1764.12,1654.15 1769.85,1655.09 1775.58,1656.01 1781.31,1656.89 1787.04,1657.76 1792.77,1658.6 1798.5,1659.42 1804.23,1660.22 1809.96,1661 1815.69,1661.76 1821.42,1662.51 1827.15,1663.23 1832.88,1663.93 1838.61,1664.62 1844.34,1665.28 1850.07,1665.93 1855.8,1666.57 1861.53,1667.18 1867.26,1667.78 1872.99,1668.36 1878.72,1668.93 1884.45,1669.48 1890.18,1670.01 1895.9,1670.53 1901.63,1671.04 1907.36,1671.53 1913.09,1672.01 1918.82,1672.48 1924.55,1672.93 1930.28,1673.37 1936.01,1673.8 1941.74,1674.22 1947.47,1674.62 1953.2,1675.02 1958.93,1675.4 1964.66,1675.77 1970.39,1676.13 1976.12,1676.49 1981.85,1676.83 1987.58,1677.16 1993.31,1677.49 1999.04,1677.81 2004.77,1678.12 2010.5,1678.42 2016.23,1678.71 2021.96,1679 2027.69,1679.28 2033.42,1679.55 2039.15,1679.81 2044.87,1680.07 2050.6,1680.32 2056.33,1680.56 2062.06,1680.8 2067.79,1681.03 2073.52,1681.26 2079.25,1681.48 2084.98,1681.69 2090.71,1681.9 2096.44,1682.1 2102.17,1682.29 2107.9,1682.48 2113.63,1682.67 2119.36,1682.85 2125.09,1683.02 2130.82,1683.19 2136.55,1683.36 2142.28,1683.52 2148.01,1683.68 2153.74,1683.83 2159.47,1683.98 2165.2,1684.12 2170.93,1684.26 2176.66,1684.4 2182.39,1684.53 2188.12,1684.66 2193.85,1684.79 2199.57,1684.91 2205.3,1685.03 2211.03,1685.15 2216.76,1685.26 2222.49,1685.37 2228.22,1685.48 2233.95,1685.59 2239.68,1685.69 2245.41,1685.79 2251.14,1685.89 2256.87,1685.98 2262.6,1686.07 2268.33,1686.16 2274.06,1686.25 2279.79,1686.34 2285.52,1686.42 2291.25,1686.5 2296.98,1686.58 2302.71,1686.65 2308.44,1686.73 2314.17,1686.8 2319.9,1686.87 2325.63,1686.94 2331.36,1687 2337.09,1687.07 2342.82,1687.13 2348.55,1687.19 2354.27,1687.25 2360,1687.31 2365.73,1687.37 2371.46,1687.42 2377.19,1687.47 2382.92,1687.53 2388.65,1687.58 2394.38,1687.63 2400.11,1687.67 2405.84,1687.72 2411.57,1687.77 2417.3,1687.81 2423.03,1687.85 2428.76,1687.9 2434.49,1687.94 2440.22,1687.98 2445.95,1688.02 2451.68,1688.05 2457.41,1688.09 2463.14,1688.13 2468.87,1688.16 2474.6,1688.2 2480.33,1688.23 2486.06,1688.26 2491.79,1688.29 2497.52,1688.32 2503.24,1688.35 2508.97,1688.38 2514.7,1688.41 2520.43,1688.44 2526.16,1688.47 2531.89,1688.49 2537.62,1688.52 2543.35,1688.54 2549.08,1688.57 2554.81,1688.59 2560.54,1688.61 2566.27,1688.63 2572,1688.65 "/>
<polyline clip-path="url(#clip821)" style="stroke:#ff0000; stroke-linecap:round; stroke-linejoin:round; stroke-width:4; stroke-opacity:1; fill:none" points="280.151,1590.26 285.88,1586.56 291.61,1582.71 297.34,1578.7 303.069,1574.54 308.799,1570.21 314.528,1565.7 320.258,1561.02 325.988,1556.15 331.717,1551.09 337.447,1545.82 343.177,1540.35 348.906,1534.66 354.636,1528.74 360.365,1522.6 366.095,1516.21 371.825,1509.58 377.554,1502.7 383.284,1495.55 389.014,1488.14 394.743,1480.45 400.473,1472.47 406.202,1464.2 411.932,1455.64 417.662,1446.76 423.391,1437.57 429.121,1428.06 434.851,1418.22 440.58,1408.05 446.31,1397.54 452.039,1386.68 457.769,1375.48 463.499,1363.93 469.228,1352.02 474.958,1339.75 480.688,1327.12 486.417,1314.13 492.147,1300.77 497.876,1287.06 503.606,1272.98 509.336,1258.55 515.065,1243.76 520.795,1228.61 526.525,1213.12 532.254,1197.29 537.984,1181.12 543.713,1164.63 549.443,1147.83 555.173,1130.72 560.902,1113.33 566.632,1095.67 572.362,1077.75 578.091,1059.6 583.821,1041.23 589.55,1022.67 595.28,1003.94 601.01,985.057 606.739,966.055 612.469,946.96 618.199,927.8 623.928,908.605 629.658,889.408 635.387,870.242 641.117,851.14 646.847,832.112 652.576,813.191 658.306,794.424 664.036,775.851 669.765,757.514 675.495,739.452 681.224,721.704 686.954,704.306 692.684,687.294 698.413,670.7 704.143,654.558 709.873,638.899 715.602,623.75 721.332,609.141 727.061,595.098 732.791,581.645 738.521,568.806 744.25,556.603 749.98,545.057 755.71,534.187 761.439,524.01 767.169,514.542 772.898,505.798 778.628,497.792 784.358,490.534 790.087,484.036 795.817,478.306 801.547,473.352 807.276,469.179 813.006,465.791 818.735,463.193 824.465,461.385 830.195,460.358 835.924,460.098 841.654,460.588 847.384,461.813 853.113,463.754 858.843,466.396 864.572,469.72 870.302,473.71 876.032,478.346 881.761,483.61 887.491,489.484 893.221,495.947 898.95,502.98 904.68,510.563 910.409,518.675 916.139,527.296 921.869,536.404 927.598,545.978 933.328,555.995 939.058,566.433 944.787,577.27 950.517,588.481 956.246,600.045 961.976,611.936 967.706,624.13 973.435,636.603 979.165,649.329 984.895,662.284 990.624,675.441 996.354,688.774 1002.08,702.256 1007.81,715.861 1013.54,729.575 1019.27,743.395 1025,757.304 1030.73,771.287 1036.46,785.328 1042.19,799.412 1047.92,813.525 1053.65,827.653 1059.38,841.783 1065.11,855.902 1070.84,869.998 1076.57,884.058 1082.3,898.071 1088.03,912.028 1093.76,925.917 1099.49,939.728 1105.22,953.452 1110.95,967.081 1116.68,980.607 1122.41,994.02 1128.14,1007.31 1133.86,1020.48 1139.59,1033.52 1145.32,1046.42 1151.05,1059.18 1156.78,1071.79 1162.51,1084.24 1168.24,1096.54 1173.97,1108.69 1179.7,1120.67 1185.43,1132.49 1191.16,1144.14 1196.89,1155.62 1202.62,1166.93 1208.35,1178.06 1214.08,1189.01 1219.81,1199.79 1225.54,1210.4 1231.27,1220.83 1237,1231.09 1242.73,1241.17 1248.46,1251.09 1254.19,1260.83 1259.92,1270.41 1265.65,1279.82 1271.38,1289.06 1277.11,1298.14 1282.83,1307.05 1288.56,1315.79 1294.29,1324.38 1300.02,1332.8 1305.75,1341.06 1311.48,1349.17 1317.21,1357.11 1322.94,1364.9 1328.67,1372.54 1334.4,1380.02 1340.13,1387.35 1345.86,1394.52 1351.59,1401.55 1357.32,1408.44 1363.05,1415.17 1368.78,1421.76 1374.51,1428.21 1380.24,1434.52 1385.97,1440.69 1391.7,1446.72 1397.43,1452.61 1403.16,1458.38 1408.89,1464.01 1414.62,1469.5 1420.35,1474.87 1426.08,1480.12 1431.81,1485.25 1437.53,1490.26 1443.26,1495.15 1448.99,1499.94 1454.72,1504.61 1460.45,1509.18 1466.18,1513.64 1471.91,1518 1477.64,1522.26 1483.37,1526.42 1489.1,1530.48 1494.83,1534.44 1500.56,1538.31 1506.29,1542.09 1512.02,1545.78 1517.75,1549.38 1523.48,1552.9 1529.21,1556.33 1534.94,1559.68 1540.67,1562.94 1546.4,1566.13 1552.13,1569.24 1557.86,1572.28 1563.59,1575.24 1569.32,1578.13 1575.05,1580.94 1580.78,1583.69 1586.51,1586.37 1592.23,1588.99 1597.96,1591.54 1603.69,1594.03 1609.42,1596.46 1615.15,1598.82 1620.88,1601.13 1626.61,1603.39 1632.34,1605.59 1638.07,1607.73 1643.8,1609.82 1649.53,1611.86 1655.26,1613.85 1660.99,1615.79 1666.72,1617.68 1672.45,1619.52 1678.18,1621.32 1683.91,1623.07 1689.64,1624.78 1695.37,1626.44 1701.1,1628.06 1706.83,1629.64 1712.56,1631.18 1718.29,1632.68 1724.02,1634.15 1729.75,1635.57 1735.48,1636.96 1741.2,1638.31 1746.93,1639.63 1752.66,1640.91 1758.39,1642.16 1764.12,1643.38 1769.85,1644.57 1775.58,1645.73 1781.31,1646.85 1787.04,1647.95 1792.77,1649.02 1798.5,1650.07 1804.23,1651.08 1809.96,1652.08 1815.69,1653.04 1821.42,1653.99 1827.15,1654.91 1832.88,1655.8 1838.61,1656.68 1844.34,1657.53 1850.07,1658.36 1855.8,1659.17 1861.53,1659.95 1867.26,1660.72 1872.99,1661.47 1878.72,1662.2 1884.45,1662.91 1890.18,1663.6 1895.9,1664.27 1901.63,1664.93 1907.36,1665.56 1913.09,1666.19 1918.82,1666.79 1924.55,1667.38 1930.28,1667.95 1936.01,1668.51 1941.74,1669.06 1947.47,1669.59 1953.2,1670.1 1958.93,1670.6 1964.66,1671.09 1970.39,1671.57 1976.12,1672.03 1981.85,1672.49 1987.58,1672.93 1993.31,1673.36 1999.04,1673.78 2004.77,1674.18 2010.5,1674.58 2016.23,1674.97 2021.96,1675.35 2027.69,1675.71 2033.42,1676.07 2039.15,1676.42 2044.87,1676.76 2050.6,1677.1 2056.33,1677.42 2062.06,1677.73 2067.79,1678.04 2073.52,1678.34 2079.25,1678.63 2084.98,1678.91 2090.71,1679.19 2096.44,1679.46 2102.17,1679.72 2107.9,1679.97 2113.63,1680.22 2119.36,1680.46 2125.09,1680.69 2130.82,1680.92 2136.55,1681.15 2142.28,1681.36 2148.01,1681.57 2153.74,1681.78 2159.47,1681.98 2165.2,1682.17 2170.93,1682.36 2176.66,1682.55 2182.39,1682.73 2188.12,1682.9 2193.85,1683.07 2199.57,1683.24 2205.3,1683.4 2211.03,1683.56 2216.76,1683.71 2222.49,1683.86 2228.22,1684.01 2233.95,1684.15 2239.68,1684.29 2245.41,1684.43 2251.14,1684.56 2256.87,1684.69 2262.6,1684.81 2268.33,1684.93 2274.06,1685.05 2279.79,1685.17 2285.52,1685.28 2291.25,1685.39 2296.98,1685.49 2302.71,1685.6 2308.44,1685.7 2314.17,1685.8 2319.9,1685.89 2325.63,1685.99 2331.36,1686.08 2337.09,1686.16 2342.82,1686.25 2348.55,1686.33 2354.27,1686.41 2360,1686.49 2365.73,1686.57 2371.46,1686.65 2377.19,1686.72 2382.92,1686.79 2388.65,1686.86 2394.38,1686.93 2400.11,1686.99 2405.84,1687.06 2411.57,1687.12 2417.3,1687.18 2423.03,1687.24 2428.76,1687.3 2434.49,1687.35 2440.22,1687.41 2445.95,1687.46 2451.68,1687.52 2457.41,1687.57 2463.14,1687.62 2468.87,1687.66 2474.6,1687.71 2480.33,1687.76 2486.06,1687.8 2491.79,1687.84 2497.52,1687.89 2503.24,1687.93 2508.97,1687.97 2514.7,1688.01 2520.43,1688.04 2526.16,1688.08 2531.89,1688.12 2537.62,1688.15 2543.35,1688.19 2549.08,1688.22 2554.81,1688.25 2560.54,1688.28 2566.27,1688.31 2572,1688.34 "/>
<polyline clip-path="url(#clip821)" style="stroke:#008000; stroke-linecap:round; stroke-linejoin:round; stroke-width:4; stroke-opacity:1; fill:none" points="280.151,1590.26 285.88,1590.25 291.61,1590.12 297.34,1589.87 303.069,1589.49 308.799,1588.99 314.528,1588.36 320.258,1587.6 325.988,1586.71 331.717,1585.69 337.447,1584.53 343.177,1583.23 348.906,1581.79 354.636,1580.2 360.365,1578.47 366.095,1576.59 371.825,1574.56 377.554,1572.37 383.284,1570.02 389.014,1567.51 394.743,1564.83 400.473,1561.99 406.202,1558.97 411.932,1555.78 417.662,1552.41 423.391,1548.85 429.121,1545.11 434.851,1541.18 440.58,1537.06 446.31,1532.74 452.039,1528.22 457.769,1523.5 463.499,1518.58 469.228,1513.45 474.958,1508.11 480.688,1502.56 486.417,1496.79 492.147,1490.81 497.876,1484.61 503.606,1478.2 509.336,1471.57 515.065,1464.72 520.795,1457.66 526.525,1450.37 532.254,1442.86 537.984,1435.14 543.713,1427.19 549.443,1419.04 555.173,1410.67 560.902,1402.1 566.632,1393.32 572.362,1384.35 578.091,1375.19 583.821,1365.84 589.55,1356.32 595.28,1346.63 601.01,1336.79 606.739,1326.79 612.469,1316.66 618.199,1306.4 623.928,1296.02 629.658,1285.55 635.387,1274.98 641.117,1264.34 646.847,1253.62 652.576,1242.83 658.306,1232.01 664.036,1221.17 669.765,1210.32 675.495,1199.5 681.224,1188.72 686.954,1178 692.684,1167.36 698.413,1156.82 704.143,1146.39 709.873,1136.09 715.602,1125.94 721.332,1115.96 727.061,1106.15 732.791,1096.55 738.521,1087.16 744.25,1077.99 749.98,1069.07 755.71,1060.4 761.439,1052 767.169,1043.89 772.898,1036.07 778.628,1028.55 784.358,1021.35 790.087,1014.48 795.817,1007.95 801.547,1001.77 807.276,995.955 813.006,990.506 818.735,985.434 824.465,980.758 830.195,976.49 835.924,972.627 841.654,969.169 847.384,966.111 853.113,963.451 858.843,961.185 864.572,959.309 870.302,957.82 876.032,956.713 881.761,955.984 887.491,955.628 893.221,955.64 898.95,956.014 904.68,956.744 910.409,957.825 916.139,959.25 921.869,961.012 927.598,963.106 933.328,965.522 939.058,968.255 944.787,971.296 950.517,974.638 956.246,978.271 961.976,982.187 967.706,986.378 973.435,990.834 979.165,995.545 984.895,1000.5 990.624,1005.7 996.354,1011.11 1002.08,1016.75 1007.81,1022.58 1013.54,1028.61 1019.27,1034.81 1025,1041.17 1030.73,1047.68 1036.46,1054.34 1042.19,1061.12 1047.92,1068.03 1053.65,1075.05 1059.38,1082.17 1065.11,1089.39 1070.84,1096.69 1076.57,1104.07 1082.3,1111.51 1088.03,1119.01 1093.76,1126.57 1099.49,1134.16 1105.22,1141.8 1110.95,1149.46 1116.68,1157.14 1122.41,1164.84 1128.14,1172.55 1133.86,1180.27 1139.59,1187.98 1145.32,1195.68 1151.05,1203.36 1156.78,1211.03 1162.51,1218.67 1168.24,1226.28 1173.97,1233.86 1179.7,1241.4 1185.43,1248.9 1191.16,1256.36 1196.89,1263.76 1202.62,1271.09 1208.35,1278.35 1214.08,1285.54 1219.81,1292.66 1225.54,1299.71 1231.27,1306.69 1237,1313.59 1242.73,1320.43 1248.46,1327.2 1254.19,1333.9 1259.92,1340.53 1265.65,1347.08 1271.38,1353.57 1277.11,1359.99 1282.83,1366.33 1288.56,1372.6 1294.29,1378.8 1300.02,1384.92 1305.75,1390.97 1311.48,1396.95 1317.21,1402.85 1322.94,1408.67 1328.67,1414.42 1334.4,1420.09 1340.13,1425.68 1345.86,1431.19 1351.59,1436.62 1357.32,1441.96 1363.05,1447.22 1368.78,1452.4 1374.51,1457.49 1380.24,1462.49 1385.97,1467.41 1391.7,1472.23 1397.43,1476.96 1403.16,1481.59 1408.89,1486.13 1414.62,1490.57 1420.35,1494.92 1426.08,1499.16 1431.81,1503.32 1437.53,1507.4 1443.26,1511.4 1448.99,1515.32 1454.72,1519.17 1460.45,1522.95 1466.18,1526.65 1471.91,1530.28 1477.64,1533.84 1483.37,1537.33 1489.1,1540.76 1494.83,1544.12 1500.56,1547.41 1506.29,1550.64 1512.02,1553.8 1517.75,1556.9 1523.48,1559.94 1529.21,1562.92 1534.94,1565.84 1540.67,1568.7 1546.4,1571.5 1552.13,1574.24 1557.86,1576.93 1563.59,1579.56 1569.32,1582.14 1575.05,1584.66 1580.78,1587.12 1586.51,1589.54 1592.23,1591.89 1597.96,1594.2 1603.69,1596.45 1609.42,1598.66 1615.15,1600.81 1620.88,1602.91 1626.61,1604.96 1632.34,1606.97 1638.07,1608.93 1643.8,1610.85 1649.53,1612.72 1655.26,1614.56 1660.99,1616.35 1666.72,1618.1 1672.45,1619.81 1678.18,1621.49 1683.91,1623.13 1689.64,1624.72 1695.37,1626.29 1701.1,1627.82 1706.83,1629.31 1712.56,1630.77 1718.29,1632.19 1724.02,1633.59 1729.75,1634.95 1735.48,1636.28 1741.2,1637.58 1746.93,1638.85 1752.66,1640.09 1758.39,1641.3 1764.12,1642.49 1769.85,1643.64 1775.58,1644.77 1781.31,1645.88 1787.04,1646.95 1792.77,1648 1798.5,1649.03 1804.23,1650.03 1809.96,1651 1815.69,1651.95 1821.42,1652.88 1827.15,1653.79 1832.88,1654.67 1838.61,1655.53 1844.34,1656.38 1850.07,1657.2 1855.8,1658 1861.53,1658.78 1867.26,1659.55 1872.99,1660.29 1878.72,1661.02 1884.45,1661.73 1890.18,1662.42 1895.9,1663.1 1901.63,1663.76 1907.36,1664.4 1913.09,1665.03 1918.82,1665.64 1924.55,1666.24 1930.28,1666.82 1936.01,1667.39 1941.74,1667.94 1947.47,1668.48 1953.2,1669.01 1958.93,1669.53 1964.66,1670.03 1970.39,1670.52 1976.12,1670.99 1981.85,1671.46 1987.58,1671.92 1993.31,1672.36 1999.04,1672.79 2004.77,1673.21 2010.5,1673.62 2016.23,1674.02 2021.96,1674.41 2027.69,1674.79 2033.42,1675.17 2039.15,1675.53 2044.87,1675.88 2050.6,1676.23 2056.33,1676.56 2062.06,1676.89 2067.79,1677.21 2073.52,1677.52 2079.25,1677.83 2084.98,1678.12 2090.71,1678.41 2096.44,1678.69 2102.17,1678.97 2107.9,1679.23 2113.63,1679.49 2119.36,1679.75 2125.09,1680 2130.82,1680.24 2136.55,1680.47 2142.28,1680.7 2148.01,1680.92 2153.74,1681.14 2159.47,1681.35 2165.2,1681.56 2170.93,1681.76 2176.66,1681.96 2182.39,1682.15 2188.12,1682.34 2193.85,1682.52 2199.57,1682.7 2205.3,1682.87 2211.03,1683.04 2216.76,1683.2 2222.49,1683.36 2228.22,1683.52 2233.95,1683.67 2239.68,1683.82 2245.41,1683.97 2251.14,1684.11 2256.87,1684.24 2262.6,1684.38 2268.33,1684.51 2274.06,1684.64 2279.79,1684.76 2285.52,1684.88 2291.25,1685 2296.98,1685.11 2302.71,1685.23 2308.44,1685.33 2314.17,1685.44 2319.9,1685.54 2325.63,1685.64 2331.36,1685.74 2337.09,1685.84 2342.82,1685.93 2348.55,1686.02 2354.27,1686.11 2360,1686.2 2365.73,1686.28 2371.46,1686.36 2377.19,1686.44 2382.92,1686.52 2388.65,1686.59 2394.38,1686.67 2400.11,1686.74 2405.84,1686.81 2411.57,1686.88 2417.3,1686.95 2423.03,1687.01 2428.76,1687.07 2434.49,1687.13 2440.22,1687.19 2445.95,1687.25 2451.68,1687.31 2457.41,1687.37 2463.14,1687.42 2468.87,1687.47 2474.6,1687.52 2480.33,1687.57 2486.06,1687.62 2491.79,1687.67 2497.52,1687.72 2503.24,1687.76 2508.97,1687.8 2514.7,1687.85 2520.43,1687.89 2526.16,1687.93 2531.89,1687.97 2537.62,1688.01 2543.35,1688.04 2549.08,1688.08 2554.81,1688.12 2560.54,1688.15 2566.27,1688.19 2572,1688.22 "/>
<path clip-path="url(#clip820)" d="M2198.37 388.696 L2559.78 388.696 L2559.78 181.336 L2198.37 181.336  Z" fill="#ffffff" fill-rule="evenodd" fill-opacity="1"/>
<polyline clip-path="url(#clip820)" style="stroke:#000000; stroke-linecap:round; stroke-linejoin:round; stroke-width:4; stroke-opacity:1; fill:none" points="2198.37,388.696 2559.78,388.696 2559.78,181.336 2198.37,181.336 2198.37,388.696 "/>
<polyline clip-path="url(#clip820)" style="stroke:#0000ff; stroke-linecap:round; stroke-linejoin:round; stroke-width:4; stroke-opacity:1; fill:none" points="2225.36,233.176 2387.32,233.176 "/>
<path clip-path="url(#clip820)" d="M2434.82 225.526 L2434.82 229.507 Q2433.02 228.512 2431.19 228.026 Q2429.38 227.517 2427.53 227.517 Q2423.39 227.517 2421.1 230.155 Q2418.8 232.771 2418.8 237.517 Q2418.8 242.262 2421.1 244.901 Q2423.39 247.516 2427.53 247.516 Q2429.38 247.516 2431.19 247.03 Q2433.02 246.521 2434.82 245.526 L2434.82 249.461 Q2433.04 250.294 2431.12 250.711 Q2429.22 251.128 2427.07 251.128 Q2421.21 251.128 2417.76 247.447 Q2414.31 243.767 2414.31 237.517 Q2414.31 231.174 2417.78 227.54 Q2421.28 223.906 2427.35 223.906 Q2429.31 223.906 2431.19 224.322 Q2433.06 224.716 2434.82 225.526 Z" fill="#000000" fill-rule="nonzero" fill-opacity="1" /><path clip-path="url(#clip820)" d="M2463.78 234.808 L2463.78 250.456 L2459.52 250.456 L2459.52 234.947 Q2459.52 231.267 2458.09 229.438 Q2456.65 227.609 2453.78 227.609 Q2450.33 227.609 2448.34 229.808 Q2446.35 232.007 2446.35 235.804 L2446.35 250.456 L2442.07 250.456 L2442.07 214.438 L2446.35 214.438 L2446.35 228.558 Q2447.88 226.22 2449.94 225.063 Q2452.02 223.906 2454.73 223.906 Q2459.2 223.906 2461.49 226.683 Q2463.78 229.438 2463.78 234.808 Z" fill="#000000" fill-rule="nonzero" fill-opacity="1" /><path clip-path="url(#clip820)" d="M2472.28 224.531 L2476.53 224.531 L2476.53 250.456 L2472.28 250.456 L2472.28 224.531 M2472.28 214.438 L2476.53 214.438 L2476.53 219.831 L2472.28 219.831 L2472.28 214.438 Z" fill="#000000" fill-rule="nonzero" fill-opacity="1" /><path clip-path="url(#clip820)" d="M2485.45 214.438 L2489.71 214.438 L2489.71 250.456 L2485.45 250.456 L2485.45 214.438 Z" fill="#000000" fill-rule="nonzero" fill-opacity="1" /><path clip-path="url(#clip820)" d="M2515.68 228.466 L2515.68 214.438 L2519.94 214.438 L2519.94 250.456 L2515.68 250.456 L2515.68 246.567 Q2514.34 248.882 2512.28 250.016 Q2510.24 251.128 2507.37 251.128 Q2502.67 251.128 2499.71 247.378 Q2496.77 243.628 2496.77 237.517 Q2496.77 231.405 2499.71 227.655 Q2502.67 223.906 2507.37 223.906 Q2510.24 223.906 2512.28 225.04 Q2514.34 226.151 2515.68 228.466 M2501.16 237.517 Q2501.16 242.216 2503.09 244.901 Q2505.03 247.563 2508.41 247.563 Q2511.79 247.563 2513.73 244.901 Q2515.68 242.216 2515.68 237.517 Q2515.68 232.817 2513.73 230.155 Q2511.79 227.47 2508.41 227.47 Q2505.03 227.47 2503.09 230.155 Q2501.16 232.817 2501.16 237.517 Z" fill="#000000" fill-rule="nonzero" fill-opacity="1" /><polyline clip-path="url(#clip820)" style="stroke:#ff0000; stroke-linecap:round; stroke-linejoin:round; stroke-width:4; stroke-opacity:1; fill:none" points="2225.36,285.016 2387.32,285.016 "/>
<path clip-path="url(#clip820)" d="M2427.72 289.264 Q2422.55 289.264 2420.56 290.444 Q2418.57 291.625 2418.57 294.472 Q2418.57 296.741 2420.05 298.083 Q2421.56 299.403 2424.13 299.403 Q2427.67 299.403 2429.8 296.903 Q2431.95 294.38 2431.95 290.213 L2431.95 289.264 L2427.72 289.264 M2436.21 287.505 L2436.21 302.296 L2431.95 302.296 L2431.95 298.361 Q2430.49 300.722 2428.32 301.856 Q2426.14 302.968 2422.99 302.968 Q2419.01 302.968 2416.65 300.745 Q2414.31 298.5 2414.31 294.75 Q2414.31 290.375 2417.23 288.153 Q2420.17 285.931 2425.98 285.931 L2431.95 285.931 L2431.95 285.514 Q2431.95 282.574 2430.01 280.977 Q2428.09 279.357 2424.59 279.357 Q2422.37 279.357 2420.26 279.889 Q2418.16 280.421 2416.21 281.486 L2416.21 277.551 Q2418.55 276.648 2420.75 276.208 Q2422.95 275.746 2425.03 275.746 Q2430.66 275.746 2433.43 278.662 Q2436.21 281.579 2436.21 287.505 Z" fill="#000000" fill-rule="nonzero" fill-opacity="1" /><path clip-path="url(#clip820)" d="M2462.04 280.306 L2462.04 266.278 L2466.3 266.278 L2466.3 302.296 L2462.04 302.296 L2462.04 298.407 Q2460.7 300.722 2458.64 301.856 Q2456.6 302.968 2453.73 302.968 Q2449.03 302.968 2446.07 299.218 Q2443.13 295.468 2443.13 289.357 Q2443.13 283.245 2446.07 279.495 Q2449.03 275.746 2453.73 275.746 Q2456.6 275.746 2458.64 276.88 Q2460.7 277.991 2462.04 280.306 M2447.53 289.357 Q2447.53 294.056 2449.45 296.741 Q2451.4 299.403 2454.78 299.403 Q2458.16 299.403 2460.1 296.741 Q2462.04 294.056 2462.04 289.357 Q2462.04 284.657 2460.1 281.995 Q2458.16 279.31 2454.78 279.31 Q2451.4 279.31 2449.45 281.995 Q2447.53 284.657 2447.53 289.357 Z" fill="#000000" fill-rule="nonzero" fill-opacity="1" /><path clip-path="url(#clip820)" d="M2474.64 292.065 L2474.64 276.371 L2478.9 276.371 L2478.9 291.903 Q2478.9 295.583 2480.33 297.435 Q2481.77 299.264 2484.64 299.264 Q2488.09 299.264 2490.08 297.065 Q2492.09 294.866 2492.09 291.069 L2492.09 276.371 L2496.35 276.371 L2496.35 302.296 L2492.09 302.296 L2492.09 298.315 Q2490.54 300.676 2488.48 301.833 Q2486.44 302.968 2483.73 302.968 Q2479.27 302.968 2476.95 300.19 Q2474.64 297.412 2474.64 292.065 M2485.35 275.746 L2485.35 275.746 Z" fill="#000000" fill-rule="nonzero" fill-opacity="1" /><path clip-path="url(#clip820)" d="M2505.12 266.278 L2509.38 266.278 L2509.38 302.296 L2505.12 302.296 L2505.12 266.278 Z" fill="#000000" fill-rule="nonzero" fill-opacity="1" /><path clip-path="url(#clip820)" d="M2522.51 269.009 L2522.51 276.371 L2531.28 276.371 L2531.28 279.681 L2522.51 279.681 L2522.51 293.755 Q2522.51 296.926 2523.36 297.829 Q2524.24 298.731 2526.9 298.731 L2531.28 298.731 L2531.28 302.296 L2526.9 302.296 Q2521.97 302.296 2520.1 300.468 Q2518.22 298.616 2518.22 293.755 L2518.22 279.681 L2515.1 279.681 L2515.1 276.371 L2518.22 276.371 L2518.22 269.009 L2522.51 269.009 Z" fill="#000000" fill-rule="nonzero" fill-opacity="1" /><polyline clip-path="url(#clip820)" style="stroke:#008000; stroke-linecap:round; stroke-linejoin:round; stroke-width:4; stroke-opacity:1; fill:none" points="2225.36,336.856 2387.32,336.856 "/>
<path clip-path="url(#clip820)" d="M2438.34 340.109 L2438.34 342.192 L2418.76 342.192 Q2419.03 346.59 2421.4 348.905 Q2423.78 351.196 2428.02 351.196 Q2430.47 351.196 2432.76 350.595 Q2435.08 349.993 2437.35 348.789 L2437.35 352.817 Q2435.05 353.789 2432.65 354.298 Q2430.24 354.808 2427.76 354.808 Q2421.56 354.808 2417.92 351.196 Q2414.31 347.585 2414.31 341.428 Q2414.31 335.062 2417.74 331.335 Q2421.19 327.586 2427.02 327.586 Q2432.25 327.586 2435.28 330.965 Q2438.34 334.322 2438.34 340.109 M2434.08 338.859 Q2434.03 335.363 2432.11 333.28 Q2430.22 331.197 2427.07 331.197 Q2423.5 331.197 2421.35 333.21 Q2419.22 335.224 2418.9 338.882 L2434.08 338.859 Z" fill="#000000" fill-rule="nonzero" fill-opacity="1" /><path clip-path="url(#clip820)" d="M2445.33 318.118 L2449.59 318.118 L2449.59 354.136 L2445.33 354.136 L2445.33 318.118 Z" fill="#000000" fill-rule="nonzero" fill-opacity="1" /><path clip-path="url(#clip820)" d="M2475.56 332.146 L2475.56 318.118 L2479.82 318.118 L2479.82 354.136 L2475.56 354.136 L2475.56 350.247 Q2474.22 352.562 2472.16 353.696 Q2470.12 354.808 2467.25 354.808 Q2462.55 354.808 2459.59 351.058 Q2456.65 347.308 2456.65 341.197 Q2456.65 335.085 2459.59 331.335 Q2462.55 327.586 2467.25 327.586 Q2470.12 327.586 2472.16 328.72 Q2474.22 329.831 2475.56 332.146 M2461.05 341.197 Q2461.05 345.896 2462.97 348.581 Q2464.91 351.243 2468.29 351.243 Q2471.67 351.243 2473.62 348.581 Q2475.56 345.896 2475.56 341.197 Q2475.56 336.497 2473.62 333.835 Q2471.67 331.15 2468.29 331.15 Q2464.91 331.15 2462.97 333.835 Q2461.05 336.497 2461.05 341.197 Z" fill="#000000" fill-rule="nonzero" fill-opacity="1" /><path clip-path="url(#clip820)" d="M2510.77 340.109 L2510.77 342.192 L2491.19 342.192 Q2491.47 346.59 2493.83 348.905 Q2496.21 351.196 2500.45 351.196 Q2502.9 351.196 2505.19 350.595 Q2507.51 349.993 2509.78 348.789 L2509.78 352.817 Q2507.48 353.789 2505.08 354.298 Q2502.67 354.808 2500.19 354.808 Q2493.99 354.808 2490.35 351.196 Q2486.74 347.585 2486.74 341.428 Q2486.74 335.062 2490.17 331.335 Q2493.62 327.586 2499.45 327.586 Q2504.68 327.586 2507.72 330.965 Q2510.77 334.322 2510.77 340.109 M2506.51 338.859 Q2506.47 335.363 2504.54 333.28 Q2502.65 331.197 2499.5 331.197 Q2495.93 331.197 2493.78 333.21 Q2491.65 335.224 2491.33 338.882 L2506.51 338.859 Z" fill="#000000" fill-rule="nonzero" fill-opacity="1" /><path clip-path="url(#clip820)" d="M2532.78 332.192 Q2532.07 331.775 2531.21 331.59 Q2530.38 331.382 2529.36 331.382 Q2525.75 331.382 2523.8 333.743 Q2521.88 336.081 2521.88 340.479 L2521.88 354.136 L2517.6 354.136 L2517.6 328.211 L2521.88 328.211 L2521.88 332.238 Q2523.22 329.877 2525.38 328.743 Q2527.53 327.586 2530.61 327.586 Q2531.05 327.586 2531.58 327.655 Q2532.11 327.701 2532.76 327.817 L2532.78 332.192 Z" fill="#000000" fill-rule="nonzero" fill-opacity="1" /></svg>
