<?xml version="1.0" encoding="utf-8"?>
<svg xmlns="http://www.w3.org/2000/svg" xmlns:xlink="http://www.w3.org/1999/xlink" width="672" height="480" viewBox="0 0 2688 1920">
<defs>
  <clipPath id="clip730">
    <rect x="0" y="0" width="2688" height="1920"/>
  </clipPath>
</defs>
<path clip-path="url(#clip730)" d="M0 1920 L2688 1920 L2688 -4.26326e-14 L0 -4.26326e-14  Z" fill="#ffffff" fill-rule="evenodd" fill-opacity="1"/>
<defs>
  <clipPath id="clip731">
    <rect x="268" y="127" width="2373" height="1607"/>
  </clipPath>
</defs>
<path clip-path="url(#clip730)" d="M268.826 1734.12 L2640.76 1734.12 L2640.76 127.792 L268.826 127.792  Z" fill="#ffffff" fill-rule="evenodd" fill-opacity="1"/>
<polyline clip-path="url(#clip731)" style="stroke:#000000; stroke-linecap:round; stroke-linejoin:round; stroke-width:2; stroke-opacity:0.1; fill:none" points="335.956,1734.12 335.956,127.792 "/>
<polyline clip-path="url(#clip731)" style="stroke:#000000; stroke-linecap:round; stroke-linejoin:round; stroke-width:2; stroke-opacity:0.1; fill:none" points="895.373,1734.12 895.373,127.792 "/>
<polyline clip-path="url(#clip731)" style="stroke:#000000; stroke-linecap:round; stroke-linejoin:round; stroke-width:2; stroke-opacity:0.1; fill:none" points="1454.79,1734.12 1454.79,127.792 "/>
<polyline clip-path="url(#clip731)" style="stroke:#000000; stroke-linecap:round; stroke-linejoin:round; stroke-width:2; stroke-opacity:0.1; fill:none" points="2014.21,1734.12 2014.21,127.792 "/>
<polyline clip-path="url(#clip731)" style="stroke:#000000; stroke-linecap:round; stroke-linejoin:round; stroke-width:2; stroke-opacity:0.1; fill:none" points="2573.63,1734.12 2573.63,127.792 "/>
<polyline clip-path="url(#clip731)" style="stroke:#000000; stroke-linecap:round; stroke-linejoin:round; stroke-width:2; stroke-opacity:0.1; fill:none" points="268.826,1688.65 2640.76,1688.65 "/>
<polyline clip-path="url(#clip731)" style="stroke:#000000; stroke-linecap:round; stroke-linejoin:round; stroke-width:2; stroke-opacity:0.1; fill:none" points="268.826,1305.98 2640.76,1305.98 "/>
<polyline clip-path="url(#clip731)" style="stroke:#000000; stroke-linecap:round; stroke-linejoin:round; stroke-width:2; stroke-opacity:0.1; fill:none" points="268.826,923.301 2640.76,923.301 "/>
<polyline clip-path="url(#clip731)" style="stroke:#000000; stroke-linecap:round; stroke-linejoin:round; stroke-width:2; stroke-opacity:0.1; fill:none" points="268.826,540.624 2640.76,540.624 "/>
<polyline clip-path="url(#clip731)" style="stroke:#000000; stroke-linecap:round; stroke-linejoin:round; stroke-width:2; stroke-opacity:0.1; fill:none" points="268.826,157.947 2640.76,157.947 "/>
<polyline clip-path="url(#clip730)" style="stroke:#000000; stroke-linecap:round; stroke-linejoin:round; stroke-width:4; stroke-opacity:1; fill:none" points="268.826,1734.12 2640.76,1734.12 "/>
<polyline clip-path="url(#clip730)" style="stroke:#000000; stroke-linecap:round; stroke-linejoin:round; stroke-width:4; stroke-opacity:1; fill:none" points="335.956,1734.12 335.956,1715.22 "/>
<polyline clip-path="url(#clip730)" style="stroke:#000000; stroke-linecap:round; stroke-linejoin:round; stroke-width:4; stroke-opacity:1; fill:none" points="895.373,1734.12 895.373,1715.22 "/>
<polyline clip-path="url(#clip730)" style="stroke:#000000; stroke-linecap:round; stroke-linejoin:round; stroke-width:4; stroke-opacity:1; fill:none" points="1454.79,1734.12 1454.79,1715.22 "/>
<polyline clip-path="url(#clip730)" style="stroke:#000000; stroke-linecap:round; stroke-linejoin:round; stroke-width:4; stroke-opacity:1; fill:none" points="2014.21,1734.12 2014.21,1715.22 "/>
<polyline clip-path="url(#clip730)" style="stroke:#000000; stroke-linecap:round; stroke-linejoin:round; stroke-width:4; stroke-opacity:1; fill:none" points="2573.63,1734.12 2573.63,1715.22 "/>
<path clip-path="url(#clip730)" d="M335.956 1767.34 Q332.345 1767.34 330.516 1770.9 Q328.71 1774.45 328.71 1781.58 Q328.71 1788.68 330.516 1792.25 Q332.345 1795.79 335.956 1795.79 Q339.59 1795.79 341.395 1792.25 Q343.224 1788.68 343.224 1781.58 Q343.224 1774.45 341.395 1770.9 Q339.59 1767.34 335.956 1767.34 M335.956 1763.64 Q341.766 1763.64 344.821 1768.24 Q347.9 1772.83 347.9 1781.58 Q347.9 1790.3 344.821 1794.91 Q341.766 1799.49 335.956 1799.49 Q330.145 1799.49 327.067 1794.91 Q324.011 1790.3 324.011 1781.58 Q324.011 1772.83 327.067 1768.24 Q330.145 1763.64 335.956 1763.64 Z" fill="#000000" fill-rule="nonzero" fill-opacity="1" /><path clip-path="url(#clip730)" d="M870.072 1764.26 L888.429 1764.26 L888.429 1768.2 L874.355 1768.2 L874.355 1776.67 Q875.373 1776.32 876.392 1776.16 Q877.41 1775.97 878.429 1775.97 Q884.216 1775.97 887.595 1779.15 Q890.975 1782.32 890.975 1787.73 Q890.975 1793.31 887.503 1796.41 Q884.031 1799.49 877.711 1799.49 Q875.535 1799.49 873.267 1799.12 Q871.021 1798.75 868.614 1798.01 L868.614 1793.31 Q870.697 1794.45 872.92 1795 Q875.142 1795.56 877.619 1795.56 Q881.623 1795.56 883.961 1793.45 Q886.299 1791.34 886.299 1787.73 Q886.299 1784.12 883.961 1782.02 Q881.623 1779.91 877.619 1779.91 Q875.744 1779.91 873.869 1780.33 Q872.017 1780.74 870.072 1781.62 L870.072 1764.26 Z" fill="#000000" fill-rule="nonzero" fill-opacity="1" /><path clip-path="url(#clip730)" d="M910.188 1767.34 Q906.577 1767.34 904.748 1770.9 Q902.943 1774.45 902.943 1781.58 Q902.943 1788.68 904.748 1792.25 Q906.577 1795.79 910.188 1795.79 Q913.822 1795.79 915.628 1792.25 Q917.456 1788.68 917.456 1781.58 Q917.456 1774.45 915.628 1770.9 Q913.822 1767.34 910.188 1767.34 M910.188 1763.64 Q915.998 1763.64 919.054 1768.24 Q922.132 1772.83 922.132 1781.58 Q922.132 1790.3 919.054 1794.91 Q915.998 1799.49 910.188 1799.49 Q904.378 1799.49 901.299 1794.91 Q898.244 1790.3 898.244 1781.58 Q898.244 1772.83 901.299 1768.24 Q904.378 1763.64 910.188 1763.64 Z" fill="#000000" fill-rule="nonzero" fill-opacity="1" /><path clip-path="url(#clip730)" d="M1414.4 1794.89 L1422.04 1794.89 L1422.04 1768.52 L1413.73 1770.19 L1413.73 1765.93 L1421.99 1764.26 L1426.67 1764.26 L1426.67 1794.89 L1434.3 1794.89 L1434.3 1798.82 L1414.4 1798.82 L1414.4 1794.89 Z" fill="#000000" fill-rule="nonzero" fill-opacity="1" /><path clip-path="url(#clip730)" d="M1453.75 1767.34 Q1450.14 1767.34 1448.31 1770.9 Q1446.5 1774.45 1446.5 1781.58 Q1446.5 1788.68 1448.31 1792.25 Q1450.14 1795.79 1453.75 1795.79 Q1457.38 1795.79 1459.19 1792.25 Q1461.02 1788.68 1461.02 1781.58 Q1461.02 1774.45 1459.19 1770.9 Q1457.38 1767.34 1453.75 1767.34 M1453.75 1763.64 Q1459.56 1763.64 1462.61 1768.24 Q1465.69 1772.83 1465.69 1781.58 Q1465.69 1790.3 1462.61 1794.91 Q1459.56 1799.49 1453.75 1799.49 Q1447.94 1799.49 1444.86 1794.91 Q1441.8 1790.3 1441.8 1781.58 Q1441.8 1772.83 1444.86 1768.24 Q1447.94 1763.64 1453.75 1763.64 Z" fill="#000000" fill-rule="nonzero" fill-opacity="1" /><path clip-path="url(#clip730)" d="M1483.91 1767.34 Q1480.3 1767.34 1478.47 1770.9 Q1476.67 1774.45 1476.67 1781.58 Q1476.67 1788.68 1478.47 1792.25 Q1480.3 1795.79 1483.91 1795.79 Q1487.55 1795.79 1489.35 1792.25 Q1491.18 1788.68 1491.18 1781.58 Q1491.18 1774.45 1489.35 1770.9 Q1487.55 1767.34 1483.91 1767.34 M1483.91 1763.64 Q1489.72 1763.64 1492.78 1768.24 Q1495.86 1772.83 1495.86 1781.58 Q1495.86 1790.3 1492.78 1794.91 Q1489.72 1799.49 1483.91 1799.49 Q1478.1 1799.49 1475.02 1794.91 Q1471.97 1790.3 1471.97 1781.58 Q1471.97 1772.83 1475.02 1768.24 Q1478.1 1763.64 1483.91 1763.64 Z" fill="#000000" fill-rule="nonzero" fill-opacity="1" /><path clip-path="url(#clip730)" d="M1973.81 1794.89 L1981.45 1794.89 L1981.45 1768.52 L1973.14 1770.19 L1973.14 1765.93 L1981.41 1764.26 L1986.08 1764.26 L1986.08 1794.89 L1993.72 1794.89 L1993.72 1798.82 L1973.81 1798.82 L1973.81 1794.89 Z" fill="#000000" fill-rule="nonzero" fill-opacity="1" /><path clip-path="url(#clip730)" d="M2003.21 1764.26 L2021.57 1764.26 L2021.57 1768.2 L2007.5 1768.2 L2007.5 1776.67 Q2008.51 1776.32 2009.53 1776.16 Q2010.55 1775.97 2011.57 1775.97 Q2017.36 1775.97 2020.74 1779.15 Q2024.12 1782.32 2024.12 1787.73 Q2024.12 1793.31 2020.64 1796.41 Q2017.17 1799.49 2010.85 1799.49 Q2008.68 1799.49 2006.41 1799.12 Q2004.16 1798.75 2001.75 1798.01 L2001.75 1793.31 Q2003.84 1794.45 2006.06 1795 Q2008.28 1795.56 2010.76 1795.56 Q2014.76 1795.56 2017.1 1793.45 Q2019.44 1791.34 2019.44 1787.73 Q2019.44 1784.12 2017.1 1782.02 Q2014.76 1779.91 2010.76 1779.91 Q2008.88 1779.91 2007.01 1780.33 Q2005.16 1780.74 2003.21 1781.62 L2003.21 1764.26 Z" fill="#000000" fill-rule="nonzero" fill-opacity="1" /><path clip-path="url(#clip730)" d="M2043.33 1767.34 Q2039.72 1767.34 2037.89 1770.9 Q2036.08 1774.45 2036.08 1781.58 Q2036.08 1788.68 2037.89 1792.25 Q2039.72 1795.79 2043.33 1795.79 Q2046.96 1795.79 2048.77 1792.25 Q2050.6 1788.68 2050.6 1781.58 Q2050.6 1774.45 2048.77 1770.9 Q2046.96 1767.34 2043.33 1767.34 M2043.33 1763.64 Q2049.14 1763.64 2052.19 1768.24 Q2055.27 1772.83 2055.27 1781.58 Q2055.27 1790.3 2052.19 1794.91 Q2049.14 1799.49 2043.33 1799.49 Q2037.52 1799.49 2034.44 1794.91 Q2031.38 1790.3 2031.38 1781.58 Q2031.38 1772.83 2034.44 1768.24 Q2037.52 1763.64 2043.33 1763.64 Z" fill="#000000" fill-rule="nonzero" fill-opacity="1" /><path clip-path="url(#clip730)" d="M2537.32 1794.89 L2553.64 1794.89 L2553.64 1798.82 L2531.69 1798.82 L2531.69 1794.89 Q2534.36 1792.13 2538.94 1787.5 Q2543.54 1782.85 2544.73 1781.51 Q2546.97 1778.98 2547.85 1777.25 Q2548.75 1775.49 2548.75 1773.8 Q2548.75 1771.04 2546.81 1769.31 Q2544.89 1767.57 2541.79 1767.57 Q2539.59 1767.57 2537.13 1768.34 Q2534.7 1769.1 2531.92 1770.65 L2531.92 1765.93 Q2534.75 1764.79 2537.2 1764.21 Q2539.66 1763.64 2541.69 1763.64 Q2547.06 1763.64 2550.26 1766.32 Q2553.45 1769.01 2553.45 1773.5 Q2553.45 1775.63 2552.64 1777.55 Q2551.86 1779.45 2549.75 1782.04 Q2549.17 1782.71 2546.07 1785.93 Q2542.97 1789.12 2537.32 1794.89 Z" fill="#000000" fill-rule="nonzero" fill-opacity="1" /><path clip-path="url(#clip730)" d="M2573.45 1767.34 Q2569.84 1767.34 2568.01 1770.9 Q2566.21 1774.45 2566.21 1781.58 Q2566.21 1788.68 2568.01 1792.25 Q2569.84 1795.79 2573.45 1795.79 Q2577.09 1795.79 2578.89 1792.25 Q2580.72 1788.68 2580.72 1781.58 Q2580.72 1774.45 2578.89 1770.9 Q2577.09 1767.34 2573.45 1767.34 M2573.45 1763.64 Q2579.26 1763.64 2582.32 1768.24 Q2585.4 1772.83 2585.4 1781.58 Q2585.4 1790.3 2582.32 1794.91 Q2579.26 1799.49 2573.45 1799.49 Q2567.64 1799.49 2564.56 1794.91 Q2561.51 1790.3 2561.51 1781.58 Q2561.51 1772.83 2564.56 1768.24 Q2567.64 1763.64 2573.45 1763.64 Z" fill="#000000" fill-rule="nonzero" fill-opacity="1" /><path clip-path="url(#clip730)" d="M2603.61 1767.34 Q2600 1767.34 2598.17 1770.9 Q2596.37 1774.45 2596.37 1781.58 Q2596.37 1788.68 2598.17 1792.25 Q2600 1795.79 2603.61 1795.79 Q2607.25 1795.79 2609.05 1792.25 Q2610.88 1788.68 2610.88 1781.58 Q2610.88 1774.45 2609.05 1770.9 Q2607.25 1767.34 2603.61 1767.34 M2603.61 1763.64 Q2609.42 1763.64 2612.48 1768.24 Q2615.56 1772.83 2615.56 1781.58 Q2615.56 1790.3 2612.48 1794.91 Q2609.42 1799.49 2603.61 1799.49 Q2597.8 1799.49 2594.73 1794.91 Q2591.67 1790.3 2591.67 1781.58 Q2591.67 1772.83 2594.73 1768.24 Q2597.8 1763.64 2603.61 1763.64 Z" fill="#000000" fill-rule="nonzero" fill-opacity="1" /><path clip-path="url(#clip730)" d="M1376.67 1835.78 L1416.87 1835.78 L1416.87 1841.19 L1400 1841.19 L1400 1883.3 L1393.54 1883.3 L1393.54 1841.19 L1376.67 1841.19 L1376.67 1835.78 Z" fill="#000000" fill-rule="nonzero" fill-opacity="1" /><path clip-path="url(#clip730)" d="M1420.81 1847.65 L1426.67 1847.65 L1426.67 1883.3 L1420.81 1883.3 L1420.81 1847.65 M1420.81 1833.78 L1426.67 1833.78 L1426.67 1841.19 L1420.81 1841.19 L1420.81 1833.78 Z" fill="#000000" fill-rule="nonzero" fill-opacity="1" /><path clip-path="url(#clip730)" d="M1466.68 1854.5 Q1468.87 1850.55 1471.93 1848.67 Q1474.99 1846.79 1479.12 1846.79 Q1484.69 1846.79 1487.72 1850.71 Q1490.74 1854.59 1490.74 1861.78 L1490.74 1883.3 L1484.85 1883.3 L1484.85 1861.98 Q1484.85 1856.85 1483.04 1854.37 Q1481.22 1851.89 1477.5 1851.89 Q1472.95 1851.89 1470.31 1854.91 Q1467.67 1857.93 1467.67 1863.15 L1467.67 1883.3 L1461.78 1883.3 L1461.78 1861.98 Q1461.78 1856.82 1459.96 1854.37 Q1458.15 1851.89 1454.36 1851.89 Q1449.87 1851.89 1447.23 1854.94 Q1444.59 1857.97 1444.59 1863.15 L1444.59 1883.3 L1438.7 1883.3 L1438.7 1847.65 L1444.59 1847.65 L1444.59 1853.19 Q1446.59 1849.91 1449.4 1848.35 Q1452.2 1846.79 1456.05 1846.79 Q1459.93 1846.79 1462.64 1848.77 Q1465.37 1850.74 1466.68 1854.5 Z" fill="#000000" fill-rule="nonzero" fill-opacity="1" /><path clip-path="url(#clip730)" d="M1532.91 1864.01 L1532.91 1866.88 L1505.99 1866.88 Q1506.37 1872.92 1509.62 1876.11 Q1512.89 1879.26 1518.72 1879.26 Q1522.09 1879.26 1525.24 1878.43 Q1528.43 1877.6 1531.55 1875.95 L1531.55 1881.49 Q1528.39 1882.82 1525.08 1883.52 Q1521.77 1884.22 1518.37 1884.22 Q1509.84 1884.22 1504.84 1879.26 Q1499.88 1874.29 1499.88 1865.83 Q1499.88 1857.07 1504.59 1851.95 Q1509.33 1846.79 1517.35 1846.79 Q1524.54 1846.79 1528.71 1851.44 Q1532.91 1856.06 1532.91 1864.01 M1527.06 1862.29 Q1526.99 1857.49 1524.35 1854.62 Q1521.74 1851.76 1517.41 1851.76 Q1512.51 1851.76 1509.55 1854.53 Q1506.62 1857.3 1506.18 1862.33 L1527.06 1862.29 Z" fill="#000000" fill-rule="nonzero" fill-opacity="1" /><polyline clip-path="url(#clip730)" style="stroke:#000000; stroke-linecap:round; stroke-linejoin:round; stroke-width:4; stroke-opacity:1; fill:none" points="268.826,1734.12 268.826,127.792 "/>
<polyline clip-path="url(#clip730)" style="stroke:#000000; stroke-linecap:round; stroke-linejoin:round; stroke-width:4; stroke-opacity:1; fill:none" points="268.826,1688.65 287.723,1688.65 "/>
<polyline clip-path="url(#clip730)" style="stroke:#000000; stroke-linecap:round; stroke-linejoin:round; stroke-width:4; stroke-opacity:1; fill:none" points="268.826,1305.98 287.723,1305.98 "/>
<polyline clip-path="url(#clip730)" style="stroke:#000000; stroke-linecap:round; stroke-linejoin:round; stroke-width:4; stroke-opacity:1; fill:none" points="268.826,923.301 287.723,923.301 "/>
<polyline clip-path="url(#clip730)" style="stroke:#000000; stroke-linecap:round; stroke-linejoin:round; stroke-width:4; stroke-opacity:1; fill:none" points="268.826,540.624 287.723,540.624 "/>
<polyline clip-path="url(#clip730)" style="stroke:#000000; stroke-linecap:round; stroke-linejoin:round; stroke-width:4; stroke-opacity:1; fill:none" points="268.826,157.947 287.723,157.947 "/>
<path clip-path="url(#clip730)" d="M216.561 1674.45 Q212.95 1674.45 211.121 1678.02 Q209.316 1681.56 209.316 1688.69 Q209.316 1695.8 211.121 1699.36 Q212.95 1702.9 216.561 1702.9 Q220.195 1702.9 222.001 1699.36 Q223.83 1695.8 223.83 1688.69 Q223.83 1681.56 222.001 1678.02 Q220.195 1674.45 216.561 1674.45 M216.561 1670.75 Q222.371 1670.75 225.427 1675.36 Q228.506 1679.94 228.506 1688.69 Q228.506 1697.42 225.427 1702.02 Q222.371 1706.61 216.561 1706.61 Q210.751 1706.61 207.672 1702.02 Q204.617 1697.42 204.617 1688.69 Q204.617 1679.94 207.672 1675.36 Q210.751 1670.75 216.561 1670.75 Z" fill="#000000" fill-rule="nonzero" fill-opacity="1" /><path clip-path="url(#clip730)" d="M150.265 1319.32 L166.585 1319.32 L166.585 1323.26 L144.64 1323.26 L144.64 1319.32 Q147.302 1316.57 151.886 1311.94 Q156.492 1307.29 157.673 1305.94 Q159.918 1303.42 160.798 1301.68 Q161.7 1299.92 161.7 1298.23 Q161.7 1295.48 159.756 1293.74 Q157.835 1292.01 154.733 1292.01 Q152.534 1292.01 150.08 1292.77 Q147.649 1293.54 144.872 1295.09 L144.872 1290.36 Q147.696 1289.23 150.149 1288.65 Q152.603 1288.07 154.64 1288.07 Q160.011 1288.07 163.205 1290.76 Q166.399 1293.44 166.399 1297.93 Q166.399 1300.06 165.589 1301.98 Q164.802 1303.88 162.696 1306.48 Q162.117 1307.15 159.015 1310.36 Q155.913 1313.56 150.265 1319.32 Z" fill="#000000" fill-rule="nonzero" fill-opacity="1" /><path clip-path="url(#clip730)" d="M176.446 1288.7 L194.802 1288.7 L194.802 1292.63 L180.728 1292.63 L180.728 1301.11 Q181.746 1300.76 182.765 1300.6 Q183.784 1300.41 184.802 1300.41 Q190.589 1300.41 193.969 1303.58 Q197.348 1306.75 197.348 1312.17 Q197.348 1317.75 193.876 1320.85 Q190.404 1323.93 184.084 1323.93 Q181.909 1323.93 179.64 1323.56 Q177.395 1323.19 174.987 1322.45 L174.987 1317.75 Q177.071 1318.88 179.293 1319.44 Q181.515 1319.99 183.992 1319.99 Q187.996 1319.99 190.334 1317.89 Q192.672 1315.78 192.672 1312.17 Q192.672 1308.56 190.334 1306.45 Q187.996 1304.35 183.992 1304.35 Q182.117 1304.35 180.242 1304.76 Q178.39 1305.18 176.446 1306.06 L176.446 1288.7 Z" fill="#000000" fill-rule="nonzero" fill-opacity="1" /><path clip-path="url(#clip730)" d="M216.561 1291.78 Q212.95 1291.78 211.121 1295.34 Q209.316 1298.88 209.316 1306.01 Q209.316 1313.12 211.121 1316.68 Q212.95 1320.23 216.561 1320.23 Q220.195 1320.23 222.001 1316.68 Q223.83 1313.12 223.83 1306.01 Q223.83 1298.88 222.001 1295.34 Q220.195 1291.78 216.561 1291.78 M216.561 1288.07 Q222.371 1288.07 225.427 1292.68 Q228.506 1297.26 228.506 1306.01 Q228.506 1314.74 225.427 1319.35 Q222.371 1323.93 216.561 1323.93 Q210.751 1323.93 207.672 1319.35 Q204.617 1314.74 204.617 1306.01 Q204.617 1297.26 207.672 1292.68 Q210.751 1288.07 216.561 1288.07 Z" fill="#000000" fill-rule="nonzero" fill-opacity="1" /><path clip-path="url(#clip730)" d="M146.284 906.021 L164.64 906.021 L164.64 909.956 L150.566 909.956 L150.566 918.428 Q151.585 918.081 152.603 917.919 Q153.622 917.734 154.64 917.734 Q160.427 917.734 163.807 920.905 Q167.186 924.076 167.186 929.493 Q167.186 935.072 163.714 938.174 Q160.242 941.252 153.923 941.252 Q151.747 941.252 149.478 940.882 Q147.233 940.512 144.825 939.771 L144.825 935.072 Q146.909 936.206 149.131 936.762 Q151.353 937.317 153.83 937.317 Q157.835 937.317 160.173 935.211 Q162.51 933.104 162.51 929.493 Q162.51 925.882 160.173 923.776 Q157.835 921.669 153.83 921.669 Q151.955 921.669 150.08 922.086 Q148.228 922.502 146.284 923.382 L146.284 906.021 Z" fill="#000000" fill-rule="nonzero" fill-opacity="1" /><path clip-path="url(#clip730)" d="M186.399 909.1 Q182.788 909.1 180.959 912.664 Q179.154 916.206 179.154 923.336 Q179.154 930.442 180.959 934.007 Q182.788 937.549 186.399 937.549 Q190.033 937.549 191.839 934.007 Q193.668 930.442 193.668 923.336 Q193.668 916.206 191.839 912.664 Q190.033 909.1 186.399 909.1 M186.399 905.396 Q192.209 905.396 195.265 910.002 Q198.344 914.586 198.344 923.336 Q198.344 932.063 195.265 936.669 Q192.209 941.252 186.399 941.252 Q180.589 941.252 177.51 936.669 Q174.455 932.063 174.455 923.336 Q174.455 914.586 177.51 910.002 Q180.589 905.396 186.399 905.396 Z" fill="#000000" fill-rule="nonzero" fill-opacity="1" /><path clip-path="url(#clip730)" d="M216.561 909.1 Q212.95 909.1 211.121 912.664 Q209.316 916.206 209.316 923.336 Q209.316 930.442 211.121 934.007 Q212.95 937.549 216.561 937.549 Q220.195 937.549 222.001 934.007 Q223.83 930.442 223.83 923.336 Q223.83 916.206 222.001 912.664 Q220.195 909.1 216.561 909.1 M216.561 905.396 Q222.371 905.396 225.427 910.002 Q228.506 914.586 228.506 923.336 Q228.506 932.063 225.427 936.669 Q222.371 941.252 216.561 941.252 Q210.751 941.252 207.672 936.669 Q204.617 932.063 204.617 923.336 Q204.617 914.586 207.672 910.002 Q210.751 905.396 216.561 905.396 Z" fill="#000000" fill-rule="nonzero" fill-opacity="1" /><path clip-path="url(#clip730)" d="M145.057 523.344 L167.279 523.344 L167.279 525.335 L154.733 557.904 L149.849 557.904 L161.654 527.279 L145.057 527.279 L145.057 523.344 Z" fill="#000000" fill-rule="nonzero" fill-opacity="1" /><path clip-path="url(#clip730)" d="M176.446 523.344 L194.802 523.344 L194.802 527.279 L180.728 527.279 L180.728 535.751 Q181.746 535.404 182.765 535.242 Q183.784 535.057 184.802 535.057 Q190.589 535.057 193.969 538.228 Q197.348 541.4 197.348 546.816 Q197.348 552.395 193.876 555.497 Q190.404 558.575 184.084 558.575 Q181.909 558.575 179.64 558.205 Q177.395 557.835 174.987 557.094 L174.987 552.395 Q177.071 553.529 179.293 554.085 Q181.515 554.64 183.992 554.64 Q187.996 554.64 190.334 552.534 Q192.672 550.427 192.672 546.816 Q192.672 543.205 190.334 541.099 Q187.996 538.992 183.992 538.992 Q182.117 538.992 180.242 539.409 Q178.39 539.825 176.446 540.705 L176.446 523.344 Z" fill="#000000" fill-rule="nonzero" fill-opacity="1" /><path clip-path="url(#clip730)" d="M216.561 526.423 Q212.95 526.423 211.121 529.988 Q209.316 533.529 209.316 540.659 Q209.316 547.765 211.121 551.33 Q212.95 554.872 216.561 554.872 Q220.195 554.872 222.001 551.33 Q223.83 547.765 223.83 540.659 Q223.83 533.529 222.001 529.988 Q220.195 526.423 216.561 526.423 M216.561 522.719 Q222.371 522.719 225.427 527.326 Q228.506 531.909 228.506 540.659 Q228.506 549.386 225.427 553.992 Q222.371 558.575 216.561 558.575 Q210.751 558.575 207.672 553.992 Q204.617 549.386 204.617 540.659 Q204.617 531.909 207.672 527.326 Q210.751 522.719 216.561 522.719 Z" fill="#000000" fill-rule="nonzero" fill-opacity="1" /><path clip-path="url(#clip730)" d="M116.886 171.292 L124.525 171.292 L124.525 144.926 L116.214 146.593 L116.214 142.334 L124.478 140.667 L129.154 140.667 L129.154 171.292 L136.793 171.292 L136.793 175.227 L116.886 175.227 L116.886 171.292 Z" fill="#000000" fill-rule="nonzero" fill-opacity="1" /><path clip-path="url(#clip730)" d="M156.237 143.746 Q152.626 143.746 150.798 147.311 Q148.992 150.852 148.992 157.982 Q148.992 165.088 150.798 168.653 Q152.626 172.195 156.237 172.195 Q159.872 172.195 161.677 168.653 Q163.506 165.088 163.506 157.982 Q163.506 150.852 161.677 147.311 Q159.872 143.746 156.237 143.746 M156.237 140.042 Q162.048 140.042 165.103 144.649 Q168.182 149.232 168.182 157.982 Q168.182 166.709 165.103 171.315 Q162.048 175.898 156.237 175.898 Q150.427 175.898 147.349 171.315 Q144.293 166.709 144.293 157.982 Q144.293 149.232 147.349 144.649 Q150.427 140.042 156.237 140.042 Z" fill="#000000" fill-rule="nonzero" fill-opacity="1" /><path clip-path="url(#clip730)" d="M186.399 143.746 Q182.788 143.746 180.959 147.311 Q179.154 150.852 179.154 157.982 Q179.154 165.088 180.959 168.653 Q182.788 172.195 186.399 172.195 Q190.033 172.195 191.839 168.653 Q193.668 165.088 193.668 157.982 Q193.668 150.852 191.839 147.311 Q190.033 143.746 186.399 143.746 M186.399 140.042 Q192.209 140.042 195.265 144.649 Q198.344 149.232 198.344 157.982 Q198.344 166.709 195.265 171.315 Q192.209 175.898 186.399 175.898 Q180.589 175.898 177.51 171.315 Q174.455 166.709 174.455 157.982 Q174.455 149.232 177.51 144.649 Q180.589 140.042 186.399 140.042 Z" fill="#000000" fill-rule="nonzero" fill-opacity="1" /><path clip-path="url(#clip730)" d="M216.561 143.746 Q212.95 143.746 211.121 147.311 Q209.316 150.852 209.316 157.982 Q209.316 165.088 211.121 168.653 Q212.95 172.195 216.561 172.195 Q220.195 172.195 222.001 168.653 Q223.83 165.088 223.83 157.982 Q223.83 150.852 222.001 147.311 Q220.195 143.746 216.561 143.746 M216.561 140.042 Q222.371 140.042 225.427 144.649 Q228.506 149.232 228.506 157.982 Q228.506 166.709 225.427 171.315 Q222.371 175.898 216.561 175.898 Q210.751 175.898 207.672 171.315 Q204.617 166.709 204.617 157.982 Q204.617 149.232 207.672 144.649 Q210.751 140.042 216.561 140.042 Z" fill="#000000" fill-rule="nonzero" fill-opacity="1" /><path clip-path="url(#clip730)" d="M19.402 1089.79 L37.2578 1089.79 L37.2578 1081.71 Q37.2578 1077.22 34.9343 1074.77 Q32.6108 1072.32 28.314 1072.32 Q24.0489 1072.32 21.7255 1074.77 Q19.402 1077.22 19.402 1081.71 L19.402 1089.79 M14.1184 1096.22 L14.1184 1081.71 Q14.1184 1073.72 17.7469 1069.65 Q21.3435 1065.54 28.314 1065.54 Q35.3481 1065.54 38.9447 1069.65 Q42.5413 1073.72 42.5413 1081.71 L42.5413 1089.79 L61.6384 1089.79 L61.6384 1096.22 L14.1184 1096.22 Z" fill="#000000" fill-rule="nonzero" fill-opacity="1" /><path clip-path="url(#clip730)" d="M30.0964 1045.68 Q30.0964 1050.39 33.7885 1053.13 Q37.4488 1055.87 43.8463 1055.87 Q50.2438 1055.87 53.9359 1053.16 Q57.5962 1050.42 57.5962 1045.68 Q57.5962 1041 53.9041 1038.26 Q50.212 1035.53 43.8463 1035.53 Q37.5124 1035.53 33.8203 1038.26 Q30.0964 1041 30.0964 1045.68 M25.1311 1045.68 Q25.1311 1038.04 30.0964 1033.68 Q35.0616 1029.32 43.8463 1029.32 Q52.5991 1029.32 57.5962 1033.68 Q62.5615 1038.04 62.5615 1045.68 Q62.5615 1053.35 57.5962 1057.71 Q52.5991 1062.04 43.8463 1062.04 Q35.0616 1062.04 30.0964 1057.71 Q25.1311 1053.35 25.1311 1045.68 Z" fill="#000000" fill-rule="nonzero" fill-opacity="1" /><path clip-path="url(#clip730)" d="M56.2912 1013.95 L75.1974 1013.95 L75.1974 1019.84 L25.9905 1019.84 L25.9905 1013.95 L31.4013 1013.95 Q28.2185 1012.1 26.6907 1009.3 Q25.1311 1006.47 25.1311 1002.55 Q25.1311 996.06 30.2873 992.018 Q35.4436 987.944 43.8463 987.944 Q52.249 987.944 57.4052 992.018 Q62.5615 996.06 62.5615 1002.55 Q62.5615 1006.47 61.0337 1009.3 Q59.4741 1012.1 56.2912 1013.95 M43.8463 994.023 Q37.3851 994.023 33.7248 996.696 Q30.0327 999.338 30.0327 1003.99 Q30.0327 1008.63 33.7248 1011.31 Q37.3851 1013.95 43.8463 1013.95 Q50.3075 1013.95 53.9996 1011.31 Q57.6599 1008.63 57.6599 1003.99 Q57.6599 999.338 53.9996 996.696 Q50.3075 994.023 43.8463 994.023 Z" fill="#000000" fill-rule="nonzero" fill-opacity="1" /><path clip-path="url(#clip730)" d="M47.5702 978.841 L25.9905 978.841 L25.9905 972.984 L47.3474 972.984 Q52.4082 972.984 54.9545 971.011 Q57.4689 969.037 57.4689 965.091 Q57.4689 960.348 54.4452 957.611 Q51.4215 954.842 46.2016 954.842 L25.9905 954.842 L25.9905 948.985 L61.6384 948.985 L61.6384 954.842 L56.1639 954.842 Q59.4104 956.974 61.0019 959.807 Q62.5615 962.608 62.5615 966.332 Q62.5615 972.475 58.742 975.658 Q54.9226 978.841 47.5702 978.841 M25.1311 964.104 L25.1311 964.104 Z" fill="#000000" fill-rule="nonzero" fill-opacity="1" /><path clip-path="url(#clip730)" d="M12.1132 936.922 L12.1132 931.066 L61.6384 931.066 L61.6384 936.922 L12.1132 936.922 Z" fill="#000000" fill-rule="nonzero" fill-opacity="1" /><path clip-path="url(#clip730)" d="M43.719 902.611 Q43.719 909.709 45.3422 912.446 Q46.9655 915.184 50.8804 915.184 Q53.9996 915.184 55.8457 913.146 Q57.6599 911.078 57.6599 907.545 Q57.6599 902.675 54.2224 899.747 Q50.7531 896.787 45.0239 896.787 L43.719 896.787 L43.719 902.611 M41.3 890.93 L61.6384 890.93 L61.6384 896.787 L56.2276 896.787 Q59.4741 898.792 61.0337 901.784 Q62.5615 904.776 62.5615 909.104 Q62.5615 914.579 59.5059 917.825 Q56.4186 921.04 51.2623 921.04 Q45.2467 921.04 42.1912 917.03 Q39.1357 912.987 39.1357 904.998 L39.1357 896.787 L38.5628 896.787 Q34.5205 896.787 32.3244 899.46 Q30.0964 902.102 30.0964 906.908 Q30.0964 909.964 30.8284 912.86 Q31.5605 915.756 33.0246 918.43 L27.6137 918.43 Q26.3724 915.215 25.7677 912.192 Q25.1311 909.168 25.1311 906.303 Q25.1311 898.569 29.1415 894.75 Q33.1519 890.93 41.3 890.93 Z" fill="#000000" fill-rule="nonzero" fill-opacity="1" /><path clip-path="url(#clip730)" d="M15.869 873.074 L25.9905 873.074 L25.9905 861.011 L30.542 861.011 L30.542 873.074 L49.8937 873.074 Q54.2542 873.074 55.4955 871.897 Q56.7368 870.687 56.7368 867.027 L56.7368 861.011 L61.6384 861.011 L61.6384 867.027 Q61.6384 873.806 59.124 876.385 Q56.5777 878.963 49.8937 878.963 L30.542 878.963 L30.542 883.259 L25.9905 883.259 L25.9905 878.963 L15.869 878.963 L15.869 873.074 Z" fill="#000000" fill-rule="nonzero" fill-opacity="1" /><path clip-path="url(#clip730)" d="M25.9905 853.309 L25.9905 847.452 L61.6384 847.452 L61.6384 853.309 L25.9905 853.309 M12.1132 853.309 L12.1132 847.452 L19.5293 847.452 L19.5293 853.309 L12.1132 853.309 Z" fill="#000000" fill-rule="nonzero" fill-opacity="1" /><path clip-path="url(#clip730)" d="M30.0964 821.385 Q30.0964 826.095 33.7885 828.833 Q37.4488 831.57 43.8463 831.57 Q50.2438 831.57 53.9359 828.865 Q57.5962 826.127 57.5962 821.385 Q57.5962 816.706 53.9041 813.969 Q50.212 811.232 43.8463 811.232 Q37.5124 811.232 33.8203 813.969 Q30.0964 816.706 30.0964 821.385 M25.1311 821.385 Q25.1311 813.746 30.0964 809.385 Q35.0616 805.025 43.8463 805.025 Q52.5991 805.025 57.5962 809.385 Q62.5615 813.746 62.5615 821.385 Q62.5615 829.056 57.5962 833.416 Q52.5991 837.745 43.8463 837.745 Q35.0616 837.745 30.0964 833.416 Q25.1311 829.056 25.1311 821.385 Z" fill="#000000" fill-rule="nonzero" fill-opacity="1" /><path clip-path="url(#clip730)" d="M40.1224 765.685 L61.6384 765.685 L61.6384 771.541 L40.3133 771.541 Q35.2526 771.541 32.7381 773.515 Q30.2237 775.488 30.2237 779.435 Q30.2237 784.177 33.2474 786.915 Q36.2711 789.652 41.491 789.652 L61.6384 789.652 L61.6384 795.54 L25.9905 795.54 L25.9905 789.652 L31.5287 789.652 Q28.314 787.551 26.7225 784.718 Q25.1311 781.854 25.1311 778.13 Q25.1311 771.987 28.9505 768.836 Q32.7381 765.685 40.1224 765.685 Z" fill="#000000" fill-rule="nonzero" fill-opacity="1" /><path clip-path="url(#clip730)" d="M993.474 14.0809 L993.474 22.0612 Q988.815 19.8332 984.683 18.7395 Q980.551 17.6457 976.703 17.6457 Q970.019 17.6457 966.373 20.2383 Q962.768 22.8309 962.768 27.611 Q962.768 31.6214 965.158 33.6873 Q967.588 35.7128 974.313 36.9686 L979.255 37.9813 Q988.41 39.7232 992.745 44.1387 Q997.12 48.5136 997.12 55.8863 Q997.12 64.6767 991.205 69.2137 Q985.331 73.7508 973.948 73.7508 Q969.654 73.7508 964.793 72.7785 Q959.973 71.8063 954.788 69.9024 L954.788 61.4765 Q959.77 64.2716 964.55 65.6895 Q969.33 67.1073 973.948 67.1073 Q980.956 67.1073 984.764 64.3527 Q988.572 61.598 988.572 56.4939 Q988.572 52.0379 985.818 49.5264 Q983.103 47.0148 976.865 45.759 L971.882 44.7868 Q962.727 42.9639 958.636 39.075 Q954.545 35.1862 954.545 28.2591 Q954.545 20.2383 960.175 15.6203 Q965.847 11.0023 975.771 11.0023 Q980.025 11.0023 984.44 11.7719 Q988.856 12.5416 993.474 14.0809 Z" fill="#000000" fill-rule="nonzero" fill-opacity="1" /><path clip-path="url(#clip730)" d="M1009.88 12.096 L1018.06 12.096 L1018.06 72.576 L1009.88 72.576 L1009.88 12.096 Z" fill="#000000" fill-rule="nonzero" fill-opacity="1" /><path clip-path="url(#clip730)" d="M1063.03 44.2197 Q1065.66 45.1109 1068.13 48.0275 Q1070.64 50.9442 1073.16 56.0483 L1081.46 72.576 L1072.67 72.576 L1064.93 57.061 Q1061.93 50.9847 1059.1 48.9997 Q1056.3 47.0148 1051.44 47.0148 L1042.53 47.0148 L1042.53 72.576 L1034.35 72.576 L1034.35 12.096 L1052.82 12.096 Q1063.19 12.096 1068.29 16.4305 Q1073.4 20.7649 1073.4 29.5149 Q1073.4 35.2267 1070.72 38.994 Q1068.09 42.7613 1063.03 44.2197 M1042.53 18.8205 L1042.53 40.2903 L1052.82 40.2903 Q1058.73 40.2903 1061.73 37.5762 Q1064.77 34.8216 1064.77 29.5149 Q1064.77 24.2082 1061.73 21.5346 Q1058.73 18.8205 1052.82 18.8205 L1042.53 18.8205 Z" fill="#000000" fill-rule="nonzero" fill-opacity="1" /><path clip-path="url(#clip730)" d="M1141.01 9.54393 L1141.01 15.7418 L1133.88 15.7418 Q1129.87 15.7418 1128.29 17.3622 Q1126.75 18.9825 1126.75 23.1955 L1126.75 27.2059 L1139.02 27.2059 L1139.02 32.9987 L1126.75 32.9987 L1126.75 72.576 L1119.25 72.576 L1119.25 32.9987 L1112.12 32.9987 L1112.12 27.2059 L1119.25 27.2059 L1119.25 24.0462 Q1119.25 16.471 1122.78 13.0277 Q1126.3 9.54393 1133.96 9.54393 L1141.01 9.54393 Z" fill="#000000" fill-rule="nonzero" fill-opacity="1" /><path clip-path="url(#clip730)" d="M1173.54 34.1734 Q1172.28 33.4443 1170.78 33.1202 Q1169.32 32.7556 1167.54 32.7556 Q1161.22 32.7556 1157.82 36.8875 Q1154.46 40.9789 1154.46 48.6757 L1154.46 72.576 L1146.96 72.576 L1146.96 27.2059 L1154.46 27.2059 L1154.46 34.2544 Q1156.81 30.1225 1160.57 28.1376 Q1164.34 26.1121 1169.73 26.1121 Q1170.5 26.1121 1171.43 26.2337 Q1172.36 26.3147 1173.5 26.5172 L1173.54 34.1734 Z" fill="#000000" fill-rule="nonzero" fill-opacity="1" /><path clip-path="url(#clip730)" d="M1197.11 32.4315 Q1191.12 32.4315 1187.63 37.1306 Q1184.15 41.7891 1184.15 49.9314 Q1184.15 58.0738 1187.59 62.7728 Q1191.08 67.4314 1197.11 67.4314 Q1203.07 67.4314 1206.55 62.7323 Q1210.04 58.0333 1210.04 49.9314 Q1210.04 41.8701 1206.55 37.1711 Q1203.07 32.4315 1197.11 32.4315 M1197.11 26.1121 Q1206.83 26.1121 1212.38 32.4315 Q1217.93 38.7509 1217.93 49.9314 Q1217.93 61.0714 1212.38 67.4314 Q1206.83 73.7508 1197.11 73.7508 Q1187.35 73.7508 1181.8 67.4314 Q1176.29 61.0714 1176.29 49.9314 Q1176.29 38.7509 1181.8 32.4315 Q1187.35 26.1121 1197.11 26.1121 Z" fill="#000000" fill-rule="nonzero" fill-opacity="1" /><path clip-path="url(#clip730)" d="M1265.61 35.9153 Q1268.41 30.8922 1272.3 28.5022 Q1276.19 26.1121 1281.45 26.1121 Q1288.54 26.1121 1292.39 31.0947 Q1296.24 36.0368 1296.24 45.1919 L1296.24 72.576 L1288.74 72.576 L1288.74 45.4349 Q1288.74 38.913 1286.44 35.7533 Q1284.13 32.5936 1279.39 32.5936 Q1273.59 32.5936 1270.23 36.4419 Q1266.87 40.2903 1266.87 46.9338 L1266.87 72.576 L1259.38 72.576 L1259.38 45.4349 Q1259.38 38.8725 1257.07 35.7533 Q1254.76 32.5936 1249.94 32.5936 Q1244.22 32.5936 1240.86 36.4824 Q1237.5 40.3308 1237.5 46.9338 L1237.5 72.576 L1230.01 72.576 L1230.01 27.2059 L1237.5 27.2059 L1237.5 34.2544 Q1240.05 30.082 1243.62 28.0971 Q1247.18 26.1121 1252.08 26.1121 Q1257.03 26.1121 1260.47 28.6237 Q1263.95 31.1352 1265.61 35.9153 Z" fill="#000000" fill-rule="nonzero" fill-opacity="1" /><path clip-path="url(#clip730)" d="M1345.98 18.8205 L1345.98 41.5461 L1356.27 41.5461 Q1361.98 41.5461 1365.1 38.5889 Q1368.22 35.6318 1368.22 30.163 Q1368.22 24.7348 1365.1 21.7777 Q1361.98 18.8205 1356.27 18.8205 L1345.98 18.8205 M1337.8 12.096 L1356.27 12.096 Q1366.44 12.096 1371.63 16.714 Q1376.85 21.2916 1376.85 30.163 Q1376.85 39.1155 1371.63 43.6931 Q1366.44 48.2706 1356.27 48.2706 L1345.98 48.2706 L1345.98 72.576 L1337.8 72.576 L1337.8 12.096 Z" fill="#000000" fill-rule="nonzero" fill-opacity="1" /><path clip-path="url(#clip730)" d="M1423.36 48.0275 L1423.36 51.6733 L1389.09 51.6733 Q1389.57 59.3701 1393.7 63.421 Q1397.88 67.4314 1405.29 67.4314 Q1409.58 67.4314 1413.59 66.3781 Q1417.64 65.3249 1421.61 63.2184 L1421.61 70.267 Q1417.6 71.9684 1413.39 72.8596 Q1409.18 73.7508 1404.84 73.7508 Q1393.99 73.7508 1387.63 67.4314 Q1381.31 61.1119 1381.31 50.3365 Q1381.31 39.1965 1387.3 32.6746 Q1393.34 26.1121 1403.55 26.1121 Q1412.7 26.1121 1418.01 32.0264 Q1423.36 37.9003 1423.36 48.0275 M1415.9 45.84 Q1415.82 39.7232 1412.46 36.0774 Q1409.14 32.4315 1403.63 32.4315 Q1397.39 32.4315 1393.62 35.9558 Q1389.9 39.4801 1389.33 45.8805 L1415.9 45.84 Z" fill="#000000" fill-rule="nonzero" fill-opacity="1" /><path clip-path="url(#clip730)" d="M1442.96 14.324 L1442.96 27.2059 L1458.31 27.2059 L1458.31 32.9987 L1442.96 32.9987 L1442.96 57.6282 Q1442.96 63.1779 1444.46 64.7578 Q1446 66.3376 1450.66 66.3376 L1458.31 66.3376 L1458.31 72.576 L1450.66 72.576 Q1442.03 72.576 1438.75 69.3758 Q1435.47 66.1351 1435.47 57.6282 L1435.47 32.9987 L1430 32.9987 L1430 27.2059 L1435.47 27.2059 L1435.47 14.324 L1442.96 14.324 Z" fill="#000000" fill-rule="nonzero" fill-opacity="1" /><path clip-path="url(#clip730)" d="M1494.41 34.1734 Q1493.15 33.4443 1491.65 33.1202 Q1490.2 32.7556 1488.41 32.7556 Q1482.09 32.7556 1478.69 36.8875 Q1475.33 40.9789 1475.33 48.6757 L1475.33 72.576 L1467.83 72.576 L1467.83 27.2059 L1475.33 27.2059 L1475.33 34.2544 Q1477.68 30.1225 1481.45 28.1376 Q1485.21 26.1121 1490.6 26.1121 Q1491.37 26.1121 1492.3 26.2337 Q1493.23 26.3147 1494.37 26.5172 L1494.41 34.1734 Z" fill="#000000" fill-rule="nonzero" fill-opacity="1" /><path clip-path="url(#clip730)" d="M1502.23 27.2059 L1509.68 27.2059 L1509.68 72.576 L1502.23 72.576 L1502.23 27.2059 M1502.23 9.54393 L1509.68 9.54393 L1509.68 18.9825 L1502.23 18.9825 L1502.23 9.54393 Z" fill="#000000" fill-rule="nonzero" fill-opacity="1" /><path clip-path="url(#clip730)" d="M1551.97 12.096 L1562.99 12.096 L1589.81 62.6918 L1589.81 12.096 L1597.75 12.096 L1597.75 72.576 L1586.73 72.576 L1559.91 21.9802 L1559.91 72.576 L1551.97 72.576 L1551.97 12.096 Z" fill="#000000" fill-rule="nonzero" fill-opacity="1" /><path clip-path="url(#clip730)" d="M1652.52 48.0275 L1652.52 51.6733 L1618.24 51.6733 Q1618.73 59.3701 1622.86 63.421 Q1627.04 67.4314 1634.45 67.4314 Q1638.74 67.4314 1642.75 66.3781 Q1646.8 65.3249 1650.77 63.2184 L1650.77 70.267 Q1646.76 71.9684 1642.55 72.8596 Q1638.34 73.7508 1634 73.7508 Q1623.15 73.7508 1616.79 67.4314 Q1610.47 61.1119 1610.47 50.3365 Q1610.47 39.1965 1616.46 32.6746 Q1622.5 26.1121 1632.71 26.1121 Q1641.86 26.1121 1647.17 32.0264 Q1652.52 37.9003 1652.52 48.0275 M1645.06 45.84 Q1644.98 39.7232 1641.62 36.0774 Q1638.3 32.4315 1632.79 32.4315 Q1626.55 32.4315 1622.78 35.9558 Q1619.05 39.4801 1618.49 45.8805 L1645.06 45.84 Z" fill="#000000" fill-rule="nonzero" fill-opacity="1" /><path clip-path="url(#clip730)" d="M1672.12 14.324 L1672.12 27.2059 L1687.47 27.2059 L1687.47 32.9987 L1672.12 32.9987 L1672.12 57.6282 Q1672.12 63.1779 1673.62 64.7578 Q1675.16 66.3376 1679.82 66.3376 L1687.47 66.3376 L1687.47 72.576 L1679.82 72.576 Q1671.19 72.576 1667.91 69.3758 Q1664.63 66.1351 1664.63 57.6282 L1664.63 32.9987 L1659.16 32.9987 L1659.16 27.2059 L1664.63 27.2059 L1664.63 14.324 L1672.12 14.324 Z" fill="#000000" fill-rule="nonzero" fill-opacity="1" /><path clip-path="url(#clip730)" d="M1741.55 9.62495 Q1736.13 18.942 1733.49 28.0566 Q1730.86 37.1711 1730.86 46.5287 Q1730.86 55.8863 1733.49 65.0818 Q1736.17 74.2369 1741.55 83.5134 L1735.07 83.5134 Q1729 73.9938 1725.96 64.7983 Q1722.96 55.6027 1722.96 46.5287 Q1722.96 37.4952 1725.96 28.3401 Q1728.96 19.1851 1735.07 9.62495 L1741.55 9.62495 Z" fill="#000000" fill-rule="nonzero" fill-opacity="1" /><path clip-path="url(#clip730)" d="M1780.89 17.6457 Q1771.98 17.6457 1766.71 24.2892 Q1761.48 30.9327 1761.48 42.3968 Q1761.48 53.8203 1766.71 60.4638 Q1771.98 67.1073 1780.89 67.1073 Q1789.8 67.1073 1794.99 60.4638 Q1800.21 53.8203 1800.21 42.3968 Q1800.21 30.9327 1794.99 24.2892 Q1789.8 17.6457 1780.89 17.6457 M1780.89 11.0023 Q1793.61 11.0023 1801.22 19.5497 Q1808.84 28.0566 1808.84 42.3968 Q1808.84 56.6965 1801.22 65.2439 Q1793.61 73.7508 1780.89 73.7508 Q1768.13 73.7508 1760.47 65.2439 Q1752.86 56.737 1752.86 42.3968 Q1752.86 28.0566 1760.47 19.5497 Q1768.13 11.0023 1780.89 11.0023 Z" fill="#000000" fill-rule="nonzero" fill-opacity="1" /><path clip-path="url(#clip730)" d="M1829.82 18.8205 L1829.82 65.8515 L1839.71 65.8515 Q1852.22 65.8515 1858.02 60.1802 Q1863.85 54.509 1863.85 42.2752 Q1863.85 30.1225 1858.02 24.4918 Q1852.22 18.8205 1839.71 18.8205 L1829.82 18.8205 M1821.64 12.096 L1838.45 12.096 Q1856.03 12.096 1864.26 19.4281 Q1872.48 26.7198 1872.48 42.2752 Q1872.48 57.9117 1864.22 65.2439 Q1855.95 72.576 1838.45 72.576 L1821.64 72.576 L1821.64 12.096 Z" fill="#000000" fill-rule="nonzero" fill-opacity="1" /><path clip-path="url(#clip730)" d="M1885.52 12.096 L1923.76 12.096 L1923.76 18.9825 L1893.71 18.9825 L1893.71 36.8875 L1922.51 36.8875 L1922.51 43.7741 L1893.71 43.7741 L1893.71 65.6895 L1924.49 65.6895 L1924.49 72.576 L1885.52 72.576 L1885.52 12.096 Z" fill="#000000" fill-rule="nonzero" fill-opacity="1" /><path clip-path="url(#clip730)" d="M1936.44 9.62495 L1942.92 9.62495 Q1949 19.1851 1952 28.3401 Q1955.04 37.4952 1955.04 46.5287 Q1955.04 55.6027 1952 64.7983 Q1949 73.9938 1942.92 83.5134 L1936.44 83.5134 Q1941.83 74.2369 1944.46 65.0818 Q1947.14 55.8863 1947.14 46.5287 Q1947.14 37.1711 1944.46 28.0566 Q1941.83 18.942 1936.44 9.62495 Z" fill="#000000" fill-rule="nonzero" fill-opacity="1" /><polyline clip-path="url(#clip731)" style="stroke:#009af9; stroke-linecap:round; stroke-linejoin:round; stroke-width:8; stroke-opacity:1; fill:none" points="335.956,173.254 341.55,175.641 347.144,178.27 352.738,181.164 358.332,184.349 363.926,187.852 369.521,191.703 375.115,195.933 380.709,200.577 386.303,205.671 391.897,211.254 397.492,217.369 403.086,224.058 408.68,231.367 414.274,239.346 419.868,248.042 425.462,257.505 431.057,267.79 436.651,278.954 442.245,291.05 447.839,304.131 453.433,318.242 459.027,333.428 464.622,349.731 470.216,367.189 475.81,385.832 481.404,405.678 486.998,426.747 492.593,449.042 498.187,472.557 503.781,497.266 509.375,523.131 514.969,550.097 520.563,578.095 526.158,607.041 531.752,636.836 537.346,667.364 542.94,698.498 548.534,730.113 554.128,762.087 559.723,794.258 565.317,826.471 570.911,858.58 576.505,890.45 582.099,921.954 587.694,952.974 593.288,983.404 598.882,1013.14 604.476,1042.11 610.07,1070.21 615.664,1097.38 621.259,1123.57 626.853,1148.72 632.447,1172.78 638.041,1195.76 643.635,1217.66 649.229,1238.52 654.824,1258.34 660.418,1277.16 666.012,1294.99 671.606,1311.87 677.2,1327.82 682.794,1342.88 688.389,1357.08 693.983,1370.45 699.577,1383.04 705.171,1394.89 710.765,1406.04 716.36,1416.53 721.954,1426.41 727.548,1435.71 733.142,1444.43 738.736,1452.61 744.33,1460.3 749.925,1467.53 755.519,1474.34 761.113,1480.76 766.707,1486.83 772.301,1492.57 777.895,1498.01 783.49,1503.17 789.084,1508.08 794.678,1512.74 800.272,1517.18 805.866,1521.41 811.461,1525.44 817.055,1529.28 822.649,1532.94 828.243,1536.4 833.837,1539.69 839.431,1542.79 845.026,1545.7 850.62,1548.41 856.214,1550.91 861.808,1553.23 867.402,1555.43 872.996,1557.51 878.591,1559.48 884.185,1561.36 889.779,1563.14 895.373,1564.83 900.967,1566.43 906.562,1567.95 912.156,1569.4 917.75,1570.78 923.344,1572.08 928.938,1573.33 934.532,1574.51 940.127,1575.64 945.721,1576.72 951.315,1577.74 956.909,1578.72 962.503,1579.65 968.097,1580.54 973.692,1581.39 979.286,1582.2 984.88,1582.98 990.474,1583.72 996.068,1584.42 1001.66,1585.1 1007.26,1585.74 1012.85,1586.36 1018.45,1586.94 1024.04,1587.5 1029.63,1588.03 1035.23,1588.54 1040.82,1589.02 1046.42,1589.48 1052.01,1589.92 1057.6,1590.34 1063.2,1590.74 1068.79,1591.12 1074.39,1591.49 1079.98,1591.84 1085.58,1592.17 1091.17,1592.49 1096.76,1592.8 1102.36,1593.1 1107.95,1593.39 1113.55,1593.66 1119.14,1593.93 1124.73,1594.18 1130.33,1594.42 1135.92,1594.65 1141.52,1594.87 1147.11,1595.08 1152.71,1595.29 1158.3,1595.48 1163.89,1595.67 1169.49,1595.84 1175.08,1596.01 1180.68,1596.18 1186.27,1596.33 1191.86,1596.48 1197.46,1596.63 1203.05,1596.76 1208.65,1596.89 1214.24,1597.02 1219.84,1597.14 1225.43,1597.26 1231.02,1597.37 1236.62,1597.48 1242.21,1597.58 1247.81,1597.68 1253.4,1597.77 1258.99,1597.86 1264.59,1597.95 1270.18,1598.03 1275.78,1598.11 1281.37,1598.19 1286.97,1598.26 1292.56,1598.33 1298.15,1598.4 1303.75,1598.46 1309.34,1598.53 1314.94,1598.59 1320.53,1598.64 1326.12,1598.7 1331.72,1598.75 1337.31,1598.8 1342.91,1598.85 1348.5,1598.89 1354.1,1598.94 1359.69,1598.98 1365.28,1599.02 1370.88,1599.06 1376.47,1599.1 1382.07,1599.13 1387.66,1599.17 1393.25,1599.2 1398.85,1599.23 1404.44,1599.26 1410.04,1599.29 1415.63,1599.32 1421.23,1599.35 1426.82,1599.37 1432.41,1599.4 1438.01,1599.42 1443.6,1599.44 1449.2,1599.47 1454.79,1599.49 1460.38,1599.51 1465.98,1599.53 1471.57,1599.55 1477.17,1599.56 1482.76,1599.58 1488.36,1599.6 1493.95,1599.61 1499.54,1599.63 1505.14,1599.64 1510.73,1599.66 1516.33,1599.67 1521.92,1599.68 1527.51,1599.69 1533.11,1599.71 1538.7,1599.72 1544.3,1599.73 1549.89,1599.74 1555.49,1599.75 1561.08,1599.76 1566.67,1599.77 1572.27,1599.78 1577.86,1599.78 1583.46,1599.79 1589.05,1599.8 1594.65,1599.81 1600.24,1599.81 1605.83,1599.82 1611.43,1599.83 1617.02,1599.83 1622.62,1599.84 1628.21,1599.85 1633.8,1599.85 1639.4,1599.86 1644.99,1599.86 1650.59,1599.87 1656.18,1599.87 1661.78,1599.88 1667.37,1599.88 1672.96,1599.89 1678.56,1599.89 1684.15,1599.89 1689.75,1599.9 1695.34,1599.9 1700.93,1599.9 1706.53,1599.91 1712.12,1599.91 1717.72,1599.91 1723.31,1599.92 1728.91,1599.92 1734.5,1599.92 1740.09,1599.92 1745.69,1599.93 1751.28,1599.93 1756.88,1599.93 1762.47,1599.93 1768.06,1599.94 1773.66,1599.94 1779.25,1599.94 1784.85,1599.94 1790.44,1599.94 1796.04,1599.94 1801.63,1599.95 1807.22,1599.95 1812.82,1599.95 1818.41,1599.95 1824.01,1599.95 1829.6,1599.95 1835.19,1599.95 1840.79,1599.96 1846.38,1599.96 1851.98,1599.96 1857.57,1599.96 1863.17,1599.96 1868.76,1599.96 1874.35,1599.96 1879.95,1599.96 1885.54,1599.96 1891.14,1599.96 1896.73,1599.97 1902.32,1599.97 1907.92,1599.97 1913.51,1599.97 1919.11,1599.97 1924.7,1599.97 1930.3,1599.97 1935.89,1599.97 1941.48,1599.97 1947.08,1599.97 1952.67,1599.97 1958.27,1599.97 1963.86,1599.97 1969.45,1599.97 1975.05,1599.97 1980.64,1599.97 1986.24,1599.97 1991.83,1599.98 1997.43,1599.98 2003.02,1599.98 2008.61,1599.98 2014.21,1599.98 2019.8,1599.98 2025.4,1599.98 2030.99,1599.98 2036.58,1599.98 2042.18,1599.98 2047.77,1599.98 2053.37,1599.98 2058.96,1599.98 2064.56,1599.98 2070.15,1599.98 2075.74,1599.98 2081.34,1599.98 2086.93,1599.98 2092.53,1599.98 2098.12,1599.98 2103.72,1599.98 2109.31,1599.98 2114.9,1599.98 2120.5,1599.98 2126.09,1599.98 2131.69,1599.98 2137.28,1599.98 2142.87,1599.98 2148.47,1599.98 2154.06,1599.98 2159.66,1599.98 2165.25,1599.98 2170.85,1599.98 2176.44,1599.98 2182.03,1599.98 2187.63,1599.98 2193.22,1599.98 2198.82,1599.98 2204.41,1599.98 2210,1599.98 2215.6,1599.98 2221.19,1599.98 2226.79,1599.98 2232.38,1599.98 2237.98,1599.98 2243.57,1599.98 2249.16,1599.98 2254.76,1599.98 2260.35,1599.98 2265.95,1599.98 2271.54,1599.98 2277.13,1599.98 2282.73,1599.98 2288.32,1599.98 2293.92,1599.98 2299.51,1599.98 2305.11,1599.98 2310.7,1599.98 2316.29,1599.98 2321.89,1599.98 2327.48,1599.98 2333.08,1599.98 2338.67,1599.98 2344.26,1599.98 2349.86,1599.98 2355.45,1599.98 2361.05,1599.98 2366.64,1599.98 2372.24,1599.98 2377.83,1599.98 2383.42,1599.98 2389.02,1599.98 2394.61,1599.98 2400.21,1599.98 2405.8,1599.98 2411.39,1599.98 2416.99,1599.98 2422.58,1599.98 2428.18,1599.98 2433.77,1599.98 2439.37,1599.98 2444.96,1599.98 2450.55,1599.98 2456.15,1599.98 2461.74,1599.98 2467.34,1599.98 2472.93,1599.98 2478.52,1599.98 2484.12,1599.98 2489.71,1599.98 2495.31,1599.98 2500.9,1599.98 2506.5,1599.98 2512.09,1599.98 2517.68,1599.98 2523.28,1599.98 2528.87,1599.98 2534.47,1599.98 2540.06,1599.98 2545.65,1599.98 2551.25,1599.98 2556.84,1599.98 2562.44,1599.98 2568.03,1599.98 2573.63,1599.98 "/>
<polyline clip-path="url(#clip731)" style="stroke:#e26f46; stroke-linecap:round; stroke-linejoin:round; stroke-width:8; stroke-opacity:1; fill:none" points="335.956,1673.35 341.55,1671.77 347.144,1670.02 352.738,1668.11 358.332,1666 363.926,1663.69 369.521,1661.15 375.115,1658.36 380.709,1655.31 386.303,1651.96 391.897,1648.31 397.492,1644.31 403.086,1639.94 408.68,1635.19 414.274,1630.01 419.868,1624.38 425.462,1618.28 431.057,1611.68 436.651,1604.54 442.245,1596.84 447.839,1588.56 453.433,1579.67 459.027,1570.17 464.622,1560.04 470.216,1549.28 475.81,1537.89 481.404,1525.87 486.998,1513.25 492.593,1500.05 498.187,1486.31 503.781,1472.07 509.375,1457.41 514.969,1442.39 520.563,1427.09 526.158,1411.61 531.752,1396.06 537.346,1380.54 542.94,1365.19 548.534,1350.14 554.128,1335.48 559.723,1321.35 565.317,1307.86 570.911,1295.12 576.505,1283.23 582.099,1272.27 587.694,1262.3 593.288,1253.4 598.882,1245.6 604.476,1238.94 610.07,1233.45 615.664,1229.15 621.259,1226.02 626.853,1224.06 632.447,1223.25 638.041,1223.54 643.635,1224.86 649.229,1227.14 654.824,1230.31 660.418,1234.32 666.012,1239.08 671.606,1244.55 677.2,1250.66 682.794,1257.33 688.389,1264.53 693.983,1272.17 699.577,1280.21 705.171,1288.58 710.765,1297.22 716.36,1306.08 721.954,1315.1 727.548,1324.23 733.142,1333.46 738.736,1342.74 744.33,1352.04 749.925,1361.33 755.519,1370.59 761.113,1379.78 766.707,1388.88 772.301,1397.87 777.895,1406.73 783.49,1415.45 789.084,1424.01 794.678,1432.4 800.272,1440.61 805.866,1448.63 811.461,1456.47 817.055,1464.12 822.649,1471.57 828.243,1478.84 833.837,1485.92 839.431,1492.84 845.026,1499.59 850.62,1506.19 856.214,1512.66 861.808,1518.98 867.402,1525.12 872.996,1531.07 878.591,1536.83 884.185,1542.41 889.779,1547.81 895.373,1553.03 900.967,1558.08 906.562,1562.96 912.156,1567.68 917.75,1572.24 923.344,1576.64 928.938,1580.89 934.532,1584.99 940.127,1588.94 945.721,1592.75 951.315,1596.43 956.909,1599.97 962.503,1603.39 968.097,1606.68 973.692,1609.85 979.286,1612.91 984.88,1615.86 990.474,1618.7 996.068,1621.43 1001.66,1624.06 1007.26,1626.59 1012.85,1629.03 1018.45,1631.37 1024.04,1633.62 1029.63,1635.79 1035.23,1637.87 1040.82,1639.88 1046.42,1641.8 1052.01,1643.65 1057.6,1645.43 1063.2,1647.14 1068.79,1648.78 1074.39,1650.36 1079.98,1651.87 1085.58,1653.33 1091.17,1654.73 1096.76,1656.08 1102.36,1657.37 1107.95,1658.62 1113.55,1659.82 1119.14,1660.97 1124.73,1662.08 1130.33,1663.14 1135.92,1664.16 1141.52,1665.14 1147.11,1666.08 1152.71,1666.99 1158.3,1667.86 1163.89,1668.69 1169.49,1669.49 1175.08,1670.26 1180.68,1670.99 1186.27,1671.7 1191.86,1672.38 1197.46,1673.03 1203.05,1673.66 1208.65,1674.26 1214.24,1674.83 1219.84,1675.39 1225.43,1675.92 1231.02,1676.43 1236.62,1676.93 1242.21,1677.4 1247.81,1677.85 1253.4,1678.29 1258.99,1678.71 1264.59,1679.11 1270.18,1679.49 1275.78,1679.86 1281.37,1680.22 1286.97,1680.56 1292.56,1680.89 1298.15,1681.2 1303.75,1681.5 1309.34,1681.79 1314.94,1682.06 1320.53,1682.33 1326.12,1682.58 1331.72,1682.82 1337.31,1683.06 1342.91,1683.28 1348.5,1683.5 1354.1,1683.71 1359.69,1683.91 1365.28,1684.1 1370.88,1684.28 1376.47,1684.46 1382.07,1684.63 1387.66,1684.79 1393.25,1684.95 1398.85,1685.1 1404.44,1685.24 1410.04,1685.38 1415.63,1685.51 1421.23,1685.64 1426.82,1685.76 1432.41,1685.88 1438.01,1685.99 1443.6,1686.1 1449.2,1686.2 1454.79,1686.3 1460.38,1686.39 1465.98,1686.49 1471.57,1686.57 1477.17,1686.66 1482.76,1686.74 1488.36,1686.82 1493.95,1686.89 1499.54,1686.96 1505.14,1687.03 1510.73,1687.1 1516.33,1687.16 1521.92,1687.22 1527.51,1687.28 1533.11,1687.33 1538.7,1687.39 1544.3,1687.44 1549.89,1687.49 1555.49,1687.53 1561.08,1687.58 1566.67,1687.62 1572.27,1687.66 1577.86,1687.7 1583.46,1687.74 1589.05,1687.78 1594.65,1687.81 1600.24,1687.85 1605.83,1687.88 1611.43,1687.91 1617.02,1687.94 1622.62,1687.97 1628.21,1688 1633.8,1688.03 1639.4,1688.05 1644.99,1688.08 1650.59,1688.1 1656.18,1688.12 1661.78,1688.14 1667.37,1688.16 1672.96,1688.18 1678.56,1688.2 1684.15,1688.22 1689.75,1688.24 1695.34,1688.26 1700.93,1688.27 1706.53,1688.29 1712.12,1688.3 1717.72,1688.32 1723.31,1688.33 1728.91,1688.34 1734.5,1688.36 1740.09,1688.37 1745.69,1688.38 1751.28,1688.39 1756.88,1688.4 1762.47,1688.41 1768.06,1688.42 1773.66,1688.43 1779.25,1688.44 1784.85,1688.45 1790.44,1688.46 1796.04,1688.47 1801.63,1688.47 1807.22,1688.48 1812.82,1688.49 1818.41,1688.49 1824.01,1688.5 1829.6,1688.51 1835.19,1688.51 1840.79,1688.52 1846.38,1688.52 1851.98,1688.53 1857.57,1688.53 1863.17,1688.54 1868.76,1688.54 1874.35,1688.55 1879.95,1688.55 1885.54,1688.56 1891.14,1688.56 1896.73,1688.56 1902.32,1688.57 1907.92,1688.57 1913.51,1688.58 1919.11,1688.58 1924.7,1688.58 1930.3,1688.58 1935.89,1688.59 1941.48,1688.59 1947.08,1688.59 1952.67,1688.6 1958.27,1688.6 1963.86,1688.6 1969.45,1688.6 1975.05,1688.6 1980.64,1688.61 1986.24,1688.61 1991.83,1688.61 1997.43,1688.61 2003.02,1688.61 2008.61,1688.62 2014.21,1688.62 2019.8,1688.62 2025.4,1688.62 2030.99,1688.62 2036.58,1688.62 2042.18,1688.62 2047.77,1688.63 2053.37,1688.63 2058.96,1688.63 2064.56,1688.63 2070.15,1688.63 2075.74,1688.63 2081.34,1688.63 2086.93,1688.63 2092.53,1688.63 2098.12,1688.63 2103.72,1688.64 2109.31,1688.64 2114.9,1688.64 2120.5,1688.64 2126.09,1688.64 2131.69,1688.64 2137.28,1688.64 2142.87,1688.64 2148.47,1688.64 2154.06,1688.64 2159.66,1688.64 2165.25,1688.64 2170.85,1688.64 2176.44,1688.64 2182.03,1688.64 2187.63,1688.64 2193.22,1688.64 2198.82,1688.65 2204.41,1688.65 2210,1688.65 2215.6,1688.65 2221.19,1688.65 2226.79,1688.65 2232.38,1688.65 2237.98,1688.65 2243.57,1688.65 2249.16,1688.65 2254.76,1688.65 2260.35,1688.65 2265.95,1688.65 2271.54,1688.65 2277.13,1688.65 2282.73,1688.65 2288.32,1688.65 2293.92,1688.65 2299.51,1688.65 2305.11,1688.65 2310.7,1688.65 2316.29,1688.65 2321.89,1688.65 2327.48,1688.65 2333.08,1688.65 2338.67,1688.65 2344.26,1688.65 2349.86,1688.65 2355.45,1688.65 2361.05,1688.65 2366.64,1688.65 2372.24,1688.65 2377.83,1688.65 2383.42,1688.65 2389.02,1688.65 2394.61,1688.65 2400.21,1688.65 2405.8,1688.65 2411.39,1688.65 2416.99,1688.65 2422.58,1688.65 2428.18,1688.65 2433.77,1688.65 2439.37,1688.65 2444.96,1688.65 2450.55,1688.65 2456.15,1688.65 2461.74,1688.65 2467.34,1688.65 2472.93,1688.65 2478.52,1688.65 2484.12,1688.65 2489.71,1688.65 2495.31,1688.65 2500.9,1688.65 2506.5,1688.65 2512.09,1688.65 2517.68,1688.65 2523.28,1688.65 2528.87,1688.65 2534.47,1688.65 2540.06,1688.65 2545.65,1688.65 2551.25,1688.65 2556.84,1688.65 2562.44,1688.65 2568.03,1688.65 2573.63,1688.65 "/>
<polyline clip-path="url(#clip731)" style="stroke:#3da44d; stroke-linecap:round; stroke-linejoin:round; stroke-width:8; stroke-opacity:1; fill:none" points="335.956,1688.65 341.55,1687.85 347.144,1686.96 352.738,1685.98 358.332,1684.91 363.926,1683.72 369.521,1682.41 375.115,1680.96 380.709,1679.37 386.303,1677.62 391.897,1675.7 397.492,1673.58 403.086,1671.26 408.68,1668.7 414.274,1665.9 419.868,1662.83 425.462,1659.47 431.057,1655.79 436.651,1651.76 442.245,1647.36 447.839,1642.57 453.433,1637.34 459.027,1631.66 464.622,1625.48 470.216,1618.79 475.81,1611.54 481.404,1603.71 486.998,1595.26 492.593,1586.17 498.187,1576.39 503.781,1565.92 509.375,1554.72 514.969,1542.77 520.563,1530.07 526.158,1516.6 531.752,1502.37 537.346,1487.35 542.94,1471.57 548.534,1455.01 554.128,1437.69 559.723,1419.65 565.317,1400.93 570.911,1381.56 576.505,1361.58 582.099,1341.04 587.694,1319.98 593.288,1298.46 598.882,1276.52 604.476,1254.21 610.07,1231.6 615.664,1208.73 621.259,1185.67 626.853,1162.48 632.447,1139.22 638.041,1115.96 643.635,1092.73 649.229,1069.6 654.824,1046.6 660.418,1023.78 666.012,1001.18 671.606,978.839 677.2,956.782 682.794,935.045 688.389,913.655 693.983,892.636 699.577,872.009 705.171,851.793 710.765,832.003 716.36,812.652 721.954,793.748 727.548,775.315 733.142,757.371 738.736,739.908 744.33,722.919 749.925,706.397 755.519,690.332 761.113,674.719 766.707,659.55 772.301,644.818 777.895,630.515 783.49,616.636 789.084,603.172 794.678,590.117 800.272,577.465 805.866,565.209 811.461,553.342 817.055,541.858 822.649,530.751 828.243,520.015 833.837,509.644 839.431,499.631 845.026,489.97 850.62,480.657 856.214,471.685 861.808,463.043 867.402,454.713 872.996,446.683 878.591,438.946 884.185,431.493 889.779,424.314 895.373,417.401 900.967,410.745 906.562,404.338 912.156,398.172 917.75,392.238 923.344,386.53 928.938,381.038 934.532,375.755 940.127,370.674 945.721,365.787 951.315,361.087 956.909,356.567 962.503,352.22 968.097,348.039 973.692,344.015 979.286,340.145 984.88,336.422 990.474,332.844 996.068,329.404 1001.66,326.099 1007.26,322.924 1012.85,319.875 1018.45,316.947 1024.04,314.136 1029.63,311.437 1035.23,308.848 1040.82,306.362 1046.42,303.977 1052.01,301.688 1057.6,299.492 1063.2,297.383 1068.79,295.36 1074.39,293.417 1079.98,291.551 1085.58,289.758 1091.17,288.035 1096.76,286.378 1102.36,284.784 1107.95,283.251 1113.55,281.778 1119.14,280.362 1124.73,279.003 1130.33,277.698 1135.92,276.446 1141.52,275.244 1147.11,274.09 1152.71,272.983 1158.3,271.921 1163.89,270.902 1169.49,269.925 1175.08,268.987 1180.68,268.087 1186.27,267.224 1191.86,266.396 1197.46,265.602 1203.05,264.839 1208.65,264.107 1214.24,263.404 1219.84,262.728 1225.43,262.078 1231.02,261.454 1236.62,260.855 1242.21,260.279 1247.81,259.726 1253.4,259.196 1258.99,258.686 1264.59,258.198 1270.18,257.729 1275.78,257.28 1281.37,256.849 1286.97,256.435 1292.56,256.039 1298.15,255.659 1303.75,255.295 1309.34,254.945 1314.94,254.61 1320.53,254.289 1326.12,253.98 1331.72,253.684 1337.31,253.4 1342.91,253.127 1348.5,252.864 1354.1,252.612 1359.69,252.37 1365.28,252.137 1370.88,251.913 1376.47,251.699 1382.07,251.493 1387.66,251.295 1393.25,251.105 1398.85,250.924 1404.44,250.749 1410.04,250.582 1415.63,250.422 1421.23,250.268 1426.82,250.121 1432.41,249.979 1438.01,249.844 1443.6,249.714 1449.2,249.589 1454.79,249.469 1460.38,249.355 1465.98,249.244 1471.57,249.138 1477.17,249.037 1482.76,248.939 1488.36,248.845 1493.95,248.754 1499.54,248.668 1505.14,248.585 1510.73,248.505 1516.33,248.428 1521.92,248.355 1527.51,248.284 1533.11,248.217 1538.7,248.152 1544.3,248.09 1549.89,248.031 1555.49,247.974 1561.08,247.919 1566.67,247.866 1572.27,247.816 1577.86,247.768 1583.46,247.722 1589.05,247.677 1594.65,247.634 1600.24,247.593 1605.83,247.554 1611.43,247.516 1617.02,247.479 1622.62,247.445 1628.21,247.411 1633.8,247.379 1639.4,247.348 1644.99,247.318 1650.59,247.29 1656.18,247.263 1661.78,247.236 1667.37,247.211 1672.96,247.187 1678.56,247.164 1684.15,247.142 1689.75,247.121 1695.34,247.101 1700.93,247.081 1706.53,247.063 1712.12,247.045 1717.72,247.028 1723.31,247.011 1728.91,246.995 1734.5,246.98 1740.09,246.965 1745.69,246.951 1751.28,246.937 1756.88,246.924 1762.47,246.912 1768.06,246.9 1773.66,246.889 1779.25,246.878 1784.85,246.867 1790.44,246.857 1796.04,246.847 1801.63,246.838 1807.22,246.829 1812.82,246.821 1818.41,246.812 1824.01,246.804 1829.6,246.797 1835.19,246.79 1840.79,246.783 1846.38,246.776 1851.98,246.77 1857.57,246.764 1863.17,246.758 1868.76,246.752 1874.35,246.746 1879.95,246.741 1885.54,246.736 1891.14,246.731 1896.73,246.727 1902.32,246.722 1907.92,246.718 1913.51,246.714 1919.11,246.71 1924.7,246.706 1930.3,246.703 1935.89,246.699 1941.48,246.696 1947.08,246.693 1952.67,246.69 1958.27,246.687 1963.86,246.684 1969.45,246.681 1975.05,246.679 1980.64,246.676 1986.24,246.674 1991.83,246.672 1997.43,246.669 2003.02,246.667 2008.61,246.665 2014.21,246.663 2019.8,246.661 2025.4,246.66 2030.99,246.658 2036.58,246.656 2042.18,246.655 2047.77,246.653 2053.37,246.652 2058.96,246.65 2064.56,246.649 2070.15,246.648 2075.74,246.647 2081.34,246.645 2086.93,246.644 2092.53,246.643 2098.12,246.642 2103.72,246.641 2109.31,246.64 2114.9,246.639 2120.5,246.638 2126.09,246.638 2131.69,246.637 2137.28,246.636 2142.87,246.635 2148.47,246.634 2154.06,246.634 2159.66,246.633 2165.25,246.632 2170.85,246.632 2176.44,246.631 2182.03,246.631 2187.63,246.63 2193.22,246.63 2198.82,246.629 2204.41,246.629 2210,246.628 2215.6,246.628 2221.19,246.627 2226.79,246.627 2232.38,246.627 2237.98,246.626 2243.57,246.626 2249.16,246.626 2254.76,246.625 2260.35,246.625 2265.95,246.625 2271.54,246.624 2277.13,246.624 2282.73,246.624 2288.32,246.623 2293.92,246.623 2299.51,246.623 2305.11,246.623 2310.7,246.623 2316.29,246.622 2321.89,246.622 2327.48,246.622 2333.08,246.622 2338.67,246.622 2344.26,246.621 2349.86,246.621 2355.45,246.621 2361.05,246.621 2366.64,246.621 2372.24,246.621 2377.83,246.621 2383.42,246.62 2389.02,246.62 2394.61,246.62 2400.21,246.62 2405.8,246.62 2411.39,246.62 2416.99,246.62 2422.58,246.62 2428.18,246.62 2433.77,246.619 2439.37,246.619 2444.96,246.619 2450.55,246.619 2456.15,246.619 2461.74,246.619 2467.34,246.619 2472.93,246.619 2478.52,246.619 2484.12,246.619 2489.71,246.619 2495.31,246.619 2500.9,246.619 2506.5,246.619 2512.09,246.619 2517.68,246.619 2523.28,246.618 2528.87,246.618 2534.47,246.618 2540.06,246.618 2545.65,246.618 2551.25,246.618 2556.84,246.618 2562.44,246.618 2568.03,246.618 2573.63,246.618 "/>
<path clip-path="url(#clip730)" d="M2297.58 1062.26 L2561.69 1062.26 L2561.69 854.899 L2297.58 854.899  Z" fill="#ffffff" fill-rule="evenodd" fill-opacity="1"/>
<polyline clip-path="url(#clip730)" style="stroke:#000000; stroke-linecap:round; stroke-linejoin:round; stroke-width:4; stroke-opacity:1; fill:none" points="2297.58,1062.26 2561.69,1062.26 2561.69,854.899 2297.58,854.899 2297.58,1062.26 "/>
<polyline clip-path="url(#clip730)" style="stroke:#009af9; stroke-linecap:round; stroke-linejoin:round; stroke-width:8; stroke-opacity:1; fill:none" points="2323.93,906.739 2482.06,906.739 "/>
<path clip-path="url(#clip730)" d="M2530.66 890.593 L2530.66 895.153 Q2528 893.88 2525.64 893.255 Q2523.28 892.63 2521.08 892.63 Q2517.26 892.63 2515.17 894.111 Q2513.11 895.593 2513.11 898.324 Q2513.11 900.616 2514.48 901.797 Q2515.87 902.954 2519.71 903.672 L2522.54 904.25 Q2527.77 905.246 2530.24 907.769 Q2532.74 910.269 2532.74 914.482 Q2532.74 919.505 2529.36 922.097 Q2526.01 924.69 2519.5 924.69 Q2517.05 924.69 2514.27 924.134 Q2511.52 923.579 2508.55 922.491 L2508.55 917.676 Q2511.4 919.273 2514.13 920.084 Q2516.86 920.894 2519.5 920.894 Q2523.51 920.894 2525.68 919.32 Q2527.86 917.746 2527.86 914.829 Q2527.86 912.283 2526.29 910.847 Q2524.73 909.412 2521.17 908.695 L2518.32 908.139 Q2513.09 907.098 2510.75 904.875 Q2508.42 902.653 2508.42 898.695 Q2508.42 894.111 2511.63 891.473 Q2514.87 888.834 2520.55 888.834 Q2522.98 888.834 2525.5 889.274 Q2528.02 889.713 2530.66 890.593 Z" fill="#000000" fill-rule="nonzero" fill-opacity="1" /><polyline clip-path="url(#clip730)" style="stroke:#e26f46; stroke-linecap:round; stroke-linejoin:round; stroke-width:8; stroke-opacity:1; fill:none" points="2323.93,958.579 2482.06,958.579 "/>
<path clip-path="url(#clip730)" d="M2508.42 941.299 L2513.09 941.299 L2513.09 975.859 L2508.42 975.859 L2508.42 941.299 Z" fill="#000000" fill-rule="nonzero" fill-opacity="1" /><polyline clip-path="url(#clip730)" style="stroke:#3da44d; stroke-linecap:round; stroke-linejoin:round; stroke-width:8; stroke-opacity:1; fill:none" points="2323.93,1010.42 2482.06,1010.42 "/>
<path clip-path="url(#clip730)" d="M2524.8 1011.5 Q2526.31 1012 2527.72 1013.67 Q2529.16 1015.34 2530.59 1018.25 L2535.34 1027.7 L2530.31 1027.7 L2525.89 1018.83 Q2524.18 1015.36 2522.56 1014.23 Q2520.96 1013.09 2518.18 1013.09 L2513.09 1013.09 L2513.09 1027.7 L2508.42 1027.7 L2508.42 993.139 L2518.97 993.139 Q2524.9 993.139 2527.81 995.616 Q2530.73 998.092 2530.73 1003.09 Q2530.73 1006.36 2529.2 1008.51 Q2527.7 1010.66 2524.8 1011.5 M2513.09 996.981 L2513.09 1009.25 L2518.97 1009.25 Q2522.35 1009.25 2524.06 1007.7 Q2525.8 1006.12 2525.8 1003.09 Q2525.8 1000.06 2524.06 998.532 Q2522.35 996.981 2518.97 996.981 L2513.09 996.981 Z" fill="#000000" fill-rule="nonzero" fill-opacity="1" /></svg>
