<?xml version="1.0" encoding="utf-8"?>
<svg xmlns="http://www.w3.org/2000/svg" xmlns:xlink="http://www.w3.org/1999/xlink" width="672" height="480" viewBox="0 0 2688 1920">
<defs>
  <clipPath id="clip760">
    <rect x="0" y="0" width="2688" height="1920"/>
  </clipPath>
</defs>
<path clip-path="url(#clip760)" d="M0 1920 L2688 1920 L2688 -4.26326e-14 L0 -4.26326e-14  Z" fill="#ffffff" fill-rule="evenodd" fill-opacity="1"/>
<defs>
  <clipPath id="clip761">
    <rect x="268" y="127" width="2373" height="1607"/>
  </clipPath>
</defs>
<path clip-path="url(#clip760)" d="M268.826 1734.12 L2640.76 1734.12 L2640.76 127.792 L268.826 127.792  Z" fill="#ffffff" fill-rule="evenodd" fill-opacity="1"/>
<polyline clip-path="url(#clip761)" style="stroke:#000000; stroke-linecap:round; stroke-linejoin:round; stroke-width:2; stroke-opacity:0.1; fill:none" points="335.956,1734.12 335.956,127.792 "/>
<polyline clip-path="url(#clip761)" style="stroke:#000000; stroke-linecap:round; stroke-linejoin:round; stroke-width:2; stroke-opacity:0.1; fill:none" points="895.373,1734.12 895.373,127.792 "/>
<polyline clip-path="url(#clip761)" style="stroke:#000000; stroke-linecap:round; stroke-linejoin:round; stroke-width:2; stroke-opacity:0.1; fill:none" points="1454.79,1734.12 1454.79,127.792 "/>
<polyline clip-path="url(#clip761)" style="stroke:#000000; stroke-linecap:round; stroke-linejoin:round; stroke-width:2; stroke-opacity:0.1; fill:none" points="2014.21,1734.12 2014.21,127.792 "/>
<polyline clip-path="url(#clip761)" style="stroke:#000000; stroke-linecap:round; stroke-linejoin:round; stroke-width:2; stroke-opacity:0.1; fill:none" points="2573.63,1734.12 2573.63,127.792 "/>
<polyline clip-path="url(#clip761)" style="stroke:#000000; stroke-linecap:round; stroke-linejoin:round; stroke-width:2; stroke-opacity:0.1; fill:none" points="268.826,1688.65 2640.76,1688.65 "/>
<polyline clip-path="url(#clip761)" style="stroke:#000000; stroke-linecap:round; stroke-linejoin:round; stroke-width:2; stroke-opacity:0.1; fill:none" points="268.826,1305.98 2640.76,1305.98 "/>
<polyline clip-path="url(#clip761)" style="stroke:#000000; stroke-linecap:round; stroke-linejoin:round; stroke-width:2; stroke-opacity:0.1; fill:none" points="268.826,923.301 2640.76,923.301 "/>
<polyline clip-path="url(#clip761)" style="stroke:#000000; stroke-linecap:round; stroke-linejoin:round; stroke-width:2; stroke-opacity:0.1; fill:none" points="268.826,540.624 2640.76,540.624 "/>
<polyline clip-path="url(#clip761)" style="stroke:#000000; stroke-linecap:round; stroke-linejoin:round; stroke-width:2; stroke-opacity:0.1; fill:none" points="268.826,157.947 2640.76,157.947 "/>
<polyline clip-path="url(#clip760)" style="stroke:#000000; stroke-linecap:round; stroke-linejoin:round; stroke-width:4; stroke-opacity:1; fill:none" points="268.826,1734.12 2640.76,1734.12 "/>
<polyline clip-path="url(#clip760)" style="stroke:#000000; stroke-linecap:round; stroke-linejoin:round; stroke-width:4; stroke-opacity:1; fill:none" points="335.956,1734.12 335.956,1715.22 "/>
<polyline clip-path="url(#clip760)" style="stroke:#000000; stroke-linecap:round; stroke-linejoin:round; stroke-width:4; stroke-opacity:1; fill:none" points="895.373,1734.12 895.373,1715.22 "/>
<polyline clip-path="url(#clip760)" style="stroke:#000000; stroke-linecap:round; stroke-linejoin:round; stroke-width:4; stroke-opacity:1; fill:none" points="1454.79,1734.12 1454.79,1715.22 "/>
<polyline clip-path="url(#clip760)" style="stroke:#000000; stroke-linecap:round; stroke-linejoin:round; stroke-width:4; stroke-opacity:1; fill:none" points="2014.21,1734.12 2014.21,1715.22 "/>
<polyline clip-path="url(#clip760)" style="stroke:#000000; stroke-linecap:round; stroke-linejoin:round; stroke-width:4; stroke-opacity:1; fill:none" points="2573.63,1734.12 2573.63,1715.22 "/>
<path clip-path="url(#clip760)" d="M335.956 1767.34 Q332.345 1767.34 330.516 1770.9 Q328.71 1774.45 328.71 1781.58 Q328.71 1788.68 330.516 1792.25 Q332.345 1795.79 335.956 1795.79 Q339.59 1795.79 341.395 1792.25 Q343.224 1788.68 343.224 1781.58 Q343.224 1774.45 341.395 1770.9 Q339.59 1767.34 335.956 1767.34 M335.956 1763.64 Q341.766 1763.64 344.821 1768.24 Q347.9 1772.83 347.9 1781.58 Q347.9 1790.3 344.821 1794.91 Q341.766 1799.49 335.956 1799.49 Q330.145 1799.49 327.067 1794.91 Q324.011 1790.3 324.011 1781.58 Q324.011 1772.83 327.067 1768.24 Q330.145 1763.64 335.956 1763.64 Z" fill="#000000" fill-rule="nonzero" fill-opacity="1" /><path clip-path="url(#clip760)" d="M859.065 1794.89 L875.385 1794.89 L875.385 1798.82 L853.441 1798.82 L853.441 1794.89 Q856.103 1792.13 860.686 1787.5 Q865.292 1782.85 866.473 1781.51 Q868.718 1778.98 869.598 1777.25 Q870.501 1775.49 870.501 1773.8 Q870.501 1771.04 868.556 1769.31 Q866.635 1767.57 863.533 1767.57 Q861.334 1767.57 858.88 1768.34 Q856.45 1769.1 853.672 1770.65 L853.672 1765.93 Q856.496 1764.79 858.95 1764.21 Q861.403 1763.64 863.44 1763.64 Q868.811 1763.64 872.005 1766.32 Q875.2 1769.01 875.2 1773.5 Q875.2 1775.63 874.389 1777.55 Q873.602 1779.45 871.496 1782.04 Q870.917 1782.71 867.815 1785.93 Q864.714 1789.12 859.065 1794.89 Z" fill="#000000" fill-rule="nonzero" fill-opacity="1" /><path clip-path="url(#clip760)" d="M885.246 1764.26 L903.602 1764.26 L903.602 1768.2 L889.528 1768.2 L889.528 1776.67 Q890.547 1776.32 891.565 1776.16 Q892.584 1775.97 893.602 1775.97 Q899.389 1775.97 902.769 1779.15 Q906.149 1782.32 906.149 1787.73 Q906.149 1793.31 902.676 1796.41 Q899.204 1799.49 892.885 1799.49 Q890.709 1799.49 888.44 1799.12 Q886.195 1798.75 883.788 1798.01 L883.788 1793.31 Q885.871 1794.45 888.093 1795 Q890.315 1795.56 892.792 1795.56 Q896.797 1795.56 899.135 1793.45 Q901.473 1791.34 901.473 1787.73 Q901.473 1784.12 899.135 1782.02 Q896.797 1779.91 892.792 1779.91 Q890.917 1779.91 889.042 1780.33 Q887.19 1780.74 885.246 1781.62 L885.246 1764.26 Z" fill="#000000" fill-rule="nonzero" fill-opacity="1" /><path clip-path="url(#clip760)" d="M925.361 1767.34 Q921.75 1767.34 919.922 1770.9 Q918.116 1774.45 918.116 1781.58 Q918.116 1788.68 919.922 1792.25 Q921.75 1795.79 925.361 1795.79 Q928.996 1795.79 930.801 1792.25 Q932.63 1788.68 932.63 1781.58 Q932.63 1774.45 930.801 1770.9 Q928.996 1767.34 925.361 1767.34 M925.361 1763.64 Q931.172 1763.64 934.227 1768.24 Q937.306 1772.83 937.306 1781.58 Q937.306 1790.3 934.227 1794.91 Q931.172 1799.49 925.361 1799.49 Q919.551 1799.49 916.473 1794.91 Q913.417 1790.3 913.417 1781.58 Q913.417 1772.83 916.473 1768.24 Q919.551 1763.64 925.361 1763.64 Z" fill="#000000" fill-rule="nonzero" fill-opacity="1" /><path clip-path="url(#clip760)" d="M1414.41 1764.26 L1432.77 1764.26 L1432.77 1768.2 L1418.69 1768.2 L1418.69 1776.67 Q1419.71 1776.32 1420.73 1776.16 Q1421.75 1775.97 1422.77 1775.97 Q1428.55 1775.97 1431.93 1779.15 Q1435.31 1782.32 1435.31 1787.73 Q1435.31 1793.31 1431.84 1796.41 Q1428.37 1799.49 1422.05 1799.49 Q1419.87 1799.49 1417.6 1799.12 Q1415.36 1798.75 1412.95 1798.01 L1412.95 1793.31 Q1415.03 1794.45 1417.26 1795 Q1419.48 1795.56 1421.96 1795.56 Q1425.96 1795.56 1428.3 1793.45 Q1430.64 1791.34 1430.64 1787.73 Q1430.64 1784.12 1428.3 1782.02 Q1425.96 1779.91 1421.96 1779.91 Q1420.08 1779.91 1418.21 1780.33 Q1416.35 1780.74 1414.41 1781.62 L1414.41 1764.26 Z" fill="#000000" fill-rule="nonzero" fill-opacity="1" /><path clip-path="url(#clip760)" d="M1454.52 1767.34 Q1450.91 1767.34 1449.08 1770.9 Q1447.28 1774.45 1447.28 1781.58 Q1447.28 1788.68 1449.08 1792.25 Q1450.91 1795.79 1454.52 1795.79 Q1458.16 1795.79 1459.96 1792.25 Q1461.79 1788.68 1461.79 1781.58 Q1461.79 1774.45 1459.96 1770.9 Q1458.16 1767.34 1454.52 1767.34 M1454.52 1763.64 Q1460.33 1763.64 1463.39 1768.24 Q1466.47 1772.83 1466.47 1781.58 Q1466.47 1790.3 1463.39 1794.91 Q1460.33 1799.49 1454.52 1799.49 Q1448.71 1799.49 1445.64 1794.91 Q1442.58 1790.3 1442.58 1781.58 Q1442.58 1772.83 1445.64 1768.24 Q1448.71 1763.64 1454.52 1763.64 Z" fill="#000000" fill-rule="nonzero" fill-opacity="1" /><path clip-path="url(#clip760)" d="M1484.69 1767.34 Q1481.08 1767.34 1479.25 1770.9 Q1477.44 1774.45 1477.44 1781.58 Q1477.44 1788.68 1479.25 1792.25 Q1481.08 1795.79 1484.69 1795.79 Q1488.32 1795.79 1490.13 1792.25 Q1491.95 1788.68 1491.95 1781.58 Q1491.95 1774.45 1490.13 1770.9 Q1488.32 1767.34 1484.69 1767.34 M1484.69 1763.64 Q1490.5 1763.64 1493.55 1768.24 Q1496.63 1772.83 1496.63 1781.58 Q1496.63 1790.3 1493.55 1794.91 Q1490.5 1799.49 1484.69 1799.49 Q1478.88 1799.49 1475.8 1794.91 Q1472.74 1790.3 1472.74 1781.58 Q1472.74 1772.83 1475.8 1768.24 Q1478.88 1763.64 1484.69 1763.64 Z" fill="#000000" fill-rule="nonzero" fill-opacity="1" /><path clip-path="url(#clip760)" d="M1972.48 1764.26 L1994.71 1764.26 L1994.71 1766.25 L1982.16 1798.82 L1977.28 1798.82 L1989.08 1768.2 L1972.48 1768.2 L1972.48 1764.26 Z" fill="#000000" fill-rule="nonzero" fill-opacity="1" /><path clip-path="url(#clip760)" d="M2003.87 1764.26 L2022.23 1764.26 L2022.23 1768.2 L2008.16 1768.2 L2008.16 1776.67 Q2009.17 1776.32 2010.19 1776.16 Q2011.21 1775.97 2012.23 1775.97 Q2018.02 1775.97 2021.4 1779.15 Q2024.78 1782.32 2024.78 1787.73 Q2024.78 1793.31 2021.3 1796.41 Q2017.83 1799.49 2011.51 1799.49 Q2009.34 1799.49 2007.07 1799.12 Q2004.82 1798.75 2002.41 1798.01 L2002.41 1793.31 Q2004.5 1794.45 2006.72 1795 Q2008.94 1795.56 2011.42 1795.56 Q2015.42 1795.56 2017.76 1793.45 Q2020.1 1791.34 2020.1 1787.73 Q2020.1 1784.12 2017.76 1782.02 Q2015.42 1779.91 2011.42 1779.91 Q2009.54 1779.91 2007.67 1780.33 Q2005.82 1780.74 2003.87 1781.62 L2003.87 1764.26 Z" fill="#000000" fill-rule="nonzero" fill-opacity="1" /><path clip-path="url(#clip760)" d="M2043.99 1767.34 Q2040.38 1767.34 2038.55 1770.9 Q2036.74 1774.45 2036.74 1781.58 Q2036.74 1788.68 2038.55 1792.25 Q2040.38 1795.79 2043.99 1795.79 Q2047.62 1795.79 2049.43 1792.25 Q2051.26 1788.68 2051.26 1781.58 Q2051.26 1774.45 2049.43 1770.9 Q2047.62 1767.34 2043.99 1767.34 M2043.99 1763.64 Q2049.8 1763.64 2052.85 1768.24 Q2055.93 1772.83 2055.93 1781.58 Q2055.93 1790.3 2052.85 1794.91 Q2049.8 1799.49 2043.99 1799.49 Q2038.18 1799.49 2035.1 1794.91 Q2032.04 1790.3 2032.04 1781.58 Q2032.04 1772.83 2035.1 1768.24 Q2038.18 1763.64 2043.99 1763.64 Z" fill="#000000" fill-rule="nonzero" fill-opacity="1" /><path clip-path="url(#clip760)" d="M2518.15 1794.89 L2525.79 1794.89 L2525.79 1768.52 L2517.48 1770.19 L2517.48 1765.93 L2525.74 1764.26 L2530.42 1764.26 L2530.42 1794.89 L2538.06 1794.89 L2538.06 1798.82 L2518.15 1798.82 L2518.15 1794.89 Z" fill="#000000" fill-rule="nonzero" fill-opacity="1" /><path clip-path="url(#clip760)" d="M2557.5 1767.34 Q2553.89 1767.34 2552.06 1770.9 Q2550.26 1774.45 2550.26 1781.58 Q2550.26 1788.68 2552.06 1792.25 Q2553.89 1795.79 2557.5 1795.79 Q2561.14 1795.79 2562.94 1792.25 Q2564.77 1788.68 2564.77 1781.58 Q2564.77 1774.45 2562.94 1770.9 Q2561.14 1767.34 2557.5 1767.34 M2557.5 1763.64 Q2563.31 1763.64 2566.37 1768.24 Q2569.45 1772.83 2569.45 1781.58 Q2569.45 1790.3 2566.37 1794.91 Q2563.31 1799.49 2557.5 1799.49 Q2551.69 1799.49 2548.61 1794.91 Q2545.56 1790.3 2545.56 1781.58 Q2545.56 1772.83 2548.61 1768.24 Q2551.69 1763.64 2557.5 1763.64 Z" fill="#000000" fill-rule="nonzero" fill-opacity="1" /><path clip-path="url(#clip760)" d="M2587.67 1767.34 Q2584.05 1767.34 2582.23 1770.9 Q2580.42 1774.45 2580.42 1781.58 Q2580.42 1788.68 2582.23 1792.25 Q2584.05 1795.79 2587.67 1795.79 Q2591.3 1795.79 2593.1 1792.25 Q2594.93 1788.68 2594.93 1781.58 Q2594.93 1774.45 2593.1 1770.9 Q2591.3 1767.34 2587.67 1767.34 M2587.67 1763.64 Q2593.48 1763.64 2596.53 1768.24 Q2599.61 1772.83 2599.61 1781.58 Q2599.61 1790.3 2596.53 1794.91 Q2593.48 1799.49 2587.67 1799.49 Q2581.85 1799.49 2578.78 1794.91 Q2575.72 1790.3 2575.72 1781.58 Q2575.72 1772.83 2578.78 1768.24 Q2581.85 1763.64 2587.67 1763.64 Z" fill="#000000" fill-rule="nonzero" fill-opacity="1" /><path clip-path="url(#clip760)" d="M2617.83 1767.34 Q2614.22 1767.34 2612.39 1770.9 Q2610.58 1774.45 2610.58 1781.58 Q2610.58 1788.68 2612.39 1792.25 Q2614.22 1795.79 2617.83 1795.79 Q2621.46 1795.79 2623.27 1792.25 Q2625.1 1788.68 2625.1 1781.58 Q2625.1 1774.45 2623.27 1770.9 Q2621.46 1767.34 2617.83 1767.34 M2617.83 1763.64 Q2623.64 1763.64 2626.69 1768.24 Q2629.77 1772.83 2629.77 1781.58 Q2629.77 1790.3 2626.69 1794.91 Q2623.64 1799.49 2617.83 1799.49 Q2612.02 1799.49 2608.94 1794.91 Q2605.88 1790.3 2605.88 1781.58 Q2605.88 1772.83 2608.94 1768.24 Q2612.02 1763.64 2617.83 1763.64 Z" fill="#000000" fill-rule="nonzero" fill-opacity="1" /><path clip-path="url(#clip760)" d="M1376.67 1835.78 L1416.87 1835.78 L1416.87 1841.19 L1400 1841.19 L1400 1883.3 L1393.54 1883.3 L1393.54 1841.19 L1376.67 1841.19 L1376.67 1835.78 Z" fill="#000000" fill-rule="nonzero" fill-opacity="1" /><path clip-path="url(#clip760)" d="M1420.81 1847.65 L1426.67 1847.65 L1426.67 1883.3 L1420.81 1883.3 L1420.81 1847.65 M1420.81 1833.78 L1426.67 1833.78 L1426.67 1841.19 L1420.81 1841.19 L1420.81 1833.78 Z" fill="#000000" fill-rule="nonzero" fill-opacity="1" /><path clip-path="url(#clip760)" d="M1466.68 1854.5 Q1468.87 1850.55 1471.93 1848.67 Q1474.99 1846.79 1479.12 1846.79 Q1484.69 1846.79 1487.72 1850.71 Q1490.74 1854.59 1490.74 1861.78 L1490.74 1883.3 L1484.85 1883.3 L1484.85 1861.98 Q1484.85 1856.85 1483.04 1854.37 Q1481.22 1851.89 1477.5 1851.89 Q1472.95 1851.89 1470.31 1854.91 Q1467.67 1857.93 1467.67 1863.15 L1467.67 1883.3 L1461.78 1883.3 L1461.78 1861.98 Q1461.78 1856.82 1459.96 1854.37 Q1458.15 1851.89 1454.36 1851.89 Q1449.87 1851.89 1447.23 1854.94 Q1444.59 1857.97 1444.59 1863.15 L1444.59 1883.3 L1438.7 1883.3 L1438.7 1847.65 L1444.59 1847.65 L1444.59 1853.19 Q1446.59 1849.91 1449.4 1848.35 Q1452.2 1846.79 1456.05 1846.79 Q1459.93 1846.79 1462.64 1848.77 Q1465.37 1850.74 1466.68 1854.5 Z" fill="#000000" fill-rule="nonzero" fill-opacity="1" /><path clip-path="url(#clip760)" d="M1532.91 1864.01 L1532.91 1866.88 L1505.99 1866.88 Q1506.37 1872.92 1509.62 1876.11 Q1512.89 1879.26 1518.72 1879.26 Q1522.09 1879.26 1525.24 1878.43 Q1528.43 1877.6 1531.55 1875.95 L1531.55 1881.49 Q1528.39 1882.82 1525.08 1883.52 Q1521.77 1884.22 1518.37 1884.22 Q1509.84 1884.22 1504.84 1879.26 Q1499.88 1874.29 1499.88 1865.83 Q1499.88 1857.07 1504.59 1851.95 Q1509.33 1846.79 1517.35 1846.79 Q1524.54 1846.79 1528.71 1851.44 Q1532.91 1856.06 1532.91 1864.01 M1527.06 1862.29 Q1526.99 1857.49 1524.35 1854.62 Q1521.74 1851.76 1517.41 1851.76 Q1512.51 1851.76 1509.55 1854.53 Q1506.62 1857.3 1506.18 1862.33 L1527.06 1862.29 Z" fill="#000000" fill-rule="nonzero" fill-opacity="1" /><polyline clip-path="url(#clip760)" style="stroke:#000000; stroke-linecap:round; stroke-linejoin:round; stroke-width:4; stroke-opacity:1; fill:none" points="268.826,1734.12 268.826,127.792 "/>
<polyline clip-path="url(#clip760)" style="stroke:#000000; stroke-linecap:round; stroke-linejoin:round; stroke-width:4; stroke-opacity:1; fill:none" points="268.826,1688.65 287.723,1688.65 "/>
<polyline clip-path="url(#clip760)" style="stroke:#000000; stroke-linecap:round; stroke-linejoin:round; stroke-width:4; stroke-opacity:1; fill:none" points="268.826,1305.98 287.723,1305.98 "/>
<polyline clip-path="url(#clip760)" style="stroke:#000000; stroke-linecap:round; stroke-linejoin:round; stroke-width:4; stroke-opacity:1; fill:none" points="268.826,923.301 287.723,923.301 "/>
<polyline clip-path="url(#clip760)" style="stroke:#000000; stroke-linecap:round; stroke-linejoin:round; stroke-width:4; stroke-opacity:1; fill:none" points="268.826,540.624 287.723,540.624 "/>
<polyline clip-path="url(#clip760)" style="stroke:#000000; stroke-linecap:round; stroke-linejoin:round; stroke-width:4; stroke-opacity:1; fill:none" points="268.826,157.947 287.723,157.947 "/>
<path clip-path="url(#clip760)" d="M216.561 1674.45 Q212.95 1674.45 211.121 1678.02 Q209.316 1681.56 209.316 1688.69 Q209.316 1695.8 211.121 1699.36 Q212.95 1702.9 216.561 1702.9 Q220.195 1702.9 222.001 1699.36 Q223.83 1695.8 223.83 1688.69 Q223.83 1681.56 222.001 1678.02 Q220.195 1674.45 216.561 1674.45 M216.561 1670.75 Q222.371 1670.75 225.427 1675.36 Q228.506 1679.94 228.506 1688.69 Q228.506 1697.42 225.427 1702.02 Q222.371 1706.61 216.561 1706.61 Q210.751 1706.61 207.672 1702.02 Q204.617 1697.42 204.617 1688.69 Q204.617 1679.94 207.672 1675.36 Q210.751 1670.75 216.561 1670.75 Z" fill="#000000" fill-rule="nonzero" fill-opacity="1" /><path clip-path="url(#clip760)" d="M150.265 1319.32 L166.585 1319.32 L166.585 1323.26 L144.64 1323.26 L144.64 1319.32 Q147.302 1316.57 151.886 1311.94 Q156.492 1307.29 157.673 1305.94 Q159.918 1303.42 160.798 1301.68 Q161.7 1299.92 161.7 1298.23 Q161.7 1295.48 159.756 1293.74 Q157.835 1292.01 154.733 1292.01 Q152.534 1292.01 150.08 1292.77 Q147.649 1293.54 144.872 1295.09 L144.872 1290.36 Q147.696 1289.23 150.149 1288.65 Q152.603 1288.07 154.64 1288.07 Q160.011 1288.07 163.205 1290.76 Q166.399 1293.44 166.399 1297.93 Q166.399 1300.06 165.589 1301.98 Q164.802 1303.88 162.696 1306.48 Q162.117 1307.15 159.015 1310.36 Q155.913 1313.56 150.265 1319.32 Z" fill="#000000" fill-rule="nonzero" fill-opacity="1" /><path clip-path="url(#clip760)" d="M176.446 1288.7 L194.802 1288.7 L194.802 1292.63 L180.728 1292.63 L180.728 1301.11 Q181.746 1300.76 182.765 1300.6 Q183.784 1300.41 184.802 1300.41 Q190.589 1300.41 193.969 1303.58 Q197.348 1306.75 197.348 1312.17 Q197.348 1317.75 193.876 1320.85 Q190.404 1323.93 184.084 1323.93 Q181.909 1323.93 179.64 1323.56 Q177.395 1323.19 174.987 1322.45 L174.987 1317.75 Q177.071 1318.88 179.293 1319.44 Q181.515 1319.99 183.992 1319.99 Q187.996 1319.99 190.334 1317.89 Q192.672 1315.78 192.672 1312.17 Q192.672 1308.56 190.334 1306.45 Q187.996 1304.35 183.992 1304.35 Q182.117 1304.35 180.242 1304.76 Q178.39 1305.18 176.446 1306.06 L176.446 1288.7 Z" fill="#000000" fill-rule="nonzero" fill-opacity="1" /><path clip-path="url(#clip760)" d="M216.561 1291.78 Q212.95 1291.78 211.121 1295.34 Q209.316 1298.88 209.316 1306.01 Q209.316 1313.12 211.121 1316.68 Q212.95 1320.23 216.561 1320.23 Q220.195 1320.23 222.001 1316.68 Q223.83 1313.12 223.83 1306.01 Q223.83 1298.88 222.001 1295.34 Q220.195 1291.78 216.561 1291.78 M216.561 1288.07 Q222.371 1288.07 225.427 1292.68 Q228.506 1297.26 228.506 1306.01 Q228.506 1314.74 225.427 1319.35 Q222.371 1323.93 216.561 1323.93 Q210.751 1323.93 207.672 1319.35 Q204.617 1314.74 204.617 1306.01 Q204.617 1297.26 207.672 1292.68 Q210.751 1288.07 216.561 1288.07 Z" fill="#000000" fill-rule="nonzero" fill-opacity="1" /><path clip-path="url(#clip760)" d="M146.284 906.021 L164.64 906.021 L164.64 909.956 L150.566 909.956 L150.566 918.428 Q151.585 918.081 152.603 917.919 Q153.622 917.734 154.64 917.734 Q160.427 917.734 163.807 920.905 Q167.186 924.076 167.186 929.493 Q167.186 935.072 163.714 938.174 Q160.242 941.252 153.923 941.252 Q151.747 941.252 149.478 940.882 Q147.233 940.512 144.825 939.771 L144.825 935.072 Q146.909 936.206 149.131 936.762 Q151.353 937.317 153.83 937.317 Q157.835 937.317 160.173 935.211 Q162.51 933.104 162.51 929.493 Q162.51 925.882 160.173 923.776 Q157.835 921.669 153.83 921.669 Q151.955 921.669 150.08 922.086 Q148.228 922.502 146.284 923.382 L146.284 906.021 Z" fill="#000000" fill-rule="nonzero" fill-opacity="1" /><path clip-path="url(#clip760)" d="M186.399 909.1 Q182.788 909.1 180.959 912.664 Q179.154 916.206 179.154 923.336 Q179.154 930.442 180.959 934.007 Q182.788 937.549 186.399 937.549 Q190.033 937.549 191.839 934.007 Q193.668 930.442 193.668 923.336 Q193.668 916.206 191.839 912.664 Q190.033 909.1 186.399 909.1 M186.399 905.396 Q192.209 905.396 195.265 910.002 Q198.344 914.586 198.344 923.336 Q198.344 932.063 195.265 936.669 Q192.209 941.252 186.399 941.252 Q180.589 941.252 177.51 936.669 Q174.455 932.063 174.455 923.336 Q174.455 914.586 177.51 910.002 Q180.589 905.396 186.399 905.396 Z" fill="#000000" fill-rule="nonzero" fill-opacity="1" /><path clip-path="url(#clip760)" d="M216.561 909.1 Q212.95 909.1 211.121 912.664 Q209.316 916.206 209.316 923.336 Q209.316 930.442 211.121 934.007 Q212.95 937.549 216.561 937.549 Q220.195 937.549 222.001 934.007 Q223.83 930.442 223.83 923.336 Q223.83 916.206 222.001 912.664 Q220.195 909.1 216.561 909.1 M216.561 905.396 Q222.371 905.396 225.427 910.002 Q228.506 914.586 228.506 923.336 Q228.506 932.063 225.427 936.669 Q222.371 941.252 216.561 941.252 Q210.751 941.252 207.672 936.669 Q204.617 932.063 204.617 923.336 Q204.617 914.586 207.672 910.002 Q210.751 905.396 216.561 905.396 Z" fill="#000000" fill-rule="nonzero" fill-opacity="1" /><path clip-path="url(#clip760)" d="M145.057 523.344 L167.279 523.344 L167.279 525.335 L154.733 557.904 L149.849 557.904 L161.654 527.279 L145.057 527.279 L145.057 523.344 Z" fill="#000000" fill-rule="nonzero" fill-opacity="1" /><path clip-path="url(#clip760)" d="M176.446 523.344 L194.802 523.344 L194.802 527.279 L180.728 527.279 L180.728 535.751 Q181.746 535.404 182.765 535.242 Q183.784 535.057 184.802 535.057 Q190.589 535.057 193.969 538.228 Q197.348 541.4 197.348 546.816 Q197.348 552.395 193.876 555.497 Q190.404 558.575 184.084 558.575 Q181.909 558.575 179.64 558.205 Q177.395 557.835 174.987 557.094 L174.987 552.395 Q177.071 553.529 179.293 554.085 Q181.515 554.64 183.992 554.64 Q187.996 554.64 190.334 552.534 Q192.672 550.427 192.672 546.816 Q192.672 543.205 190.334 541.099 Q187.996 538.992 183.992 538.992 Q182.117 538.992 180.242 539.409 Q178.39 539.825 176.446 540.705 L176.446 523.344 Z" fill="#000000" fill-rule="nonzero" fill-opacity="1" /><path clip-path="url(#clip760)" d="M216.561 526.423 Q212.95 526.423 211.121 529.988 Q209.316 533.529 209.316 540.659 Q209.316 547.765 211.121 551.33 Q212.95 554.872 216.561 554.872 Q220.195 554.872 222.001 551.33 Q223.83 547.765 223.83 540.659 Q223.83 533.529 222.001 529.988 Q220.195 526.423 216.561 526.423 M216.561 522.719 Q222.371 522.719 225.427 527.326 Q228.506 531.909 228.506 540.659 Q228.506 549.386 225.427 553.992 Q222.371 558.575 216.561 558.575 Q210.751 558.575 207.672 553.992 Q204.617 549.386 204.617 540.659 Q204.617 531.909 207.672 527.326 Q210.751 522.719 216.561 522.719 Z" fill="#000000" fill-rule="nonzero" fill-opacity="1" /><path clip-path="url(#clip760)" d="M116.886 171.292 L124.525 171.292 L124.525 144.926 L116.214 146.593 L116.214 142.334 L124.478 140.667 L129.154 140.667 L129.154 171.292 L136.793 171.292 L136.793 175.227 L116.886 175.227 L116.886 171.292 Z" fill="#000000" fill-rule="nonzero" fill-opacity="1" /><path clip-path="url(#clip760)" d="M156.237 143.746 Q152.626 143.746 150.798 147.311 Q148.992 150.852 148.992 157.982 Q148.992 165.088 150.798 168.653 Q152.626 172.195 156.237 172.195 Q159.872 172.195 161.677 168.653 Q163.506 165.088 163.506 157.982 Q163.506 150.852 161.677 147.311 Q159.872 143.746 156.237 143.746 M156.237 140.042 Q162.048 140.042 165.103 144.649 Q168.182 149.232 168.182 157.982 Q168.182 166.709 165.103 171.315 Q162.048 175.898 156.237 175.898 Q150.427 175.898 147.349 171.315 Q144.293 166.709 144.293 157.982 Q144.293 149.232 147.349 144.649 Q150.427 140.042 156.237 140.042 Z" fill="#000000" fill-rule="nonzero" fill-opacity="1" /><path clip-path="url(#clip760)" d="M186.399 143.746 Q182.788 143.746 180.959 147.311 Q179.154 150.852 179.154 157.982 Q179.154 165.088 180.959 168.653 Q182.788 172.195 186.399 172.195 Q190.033 172.195 191.839 168.653 Q193.668 165.088 193.668 157.982 Q193.668 150.852 191.839 147.311 Q190.033 143.746 186.399 143.746 M186.399 140.042 Q192.209 140.042 195.265 144.649 Q198.344 149.232 198.344 157.982 Q198.344 166.709 195.265 171.315 Q192.209 175.898 186.399 175.898 Q180.589 175.898 177.51 171.315 Q174.455 166.709 174.455 157.982 Q174.455 149.232 177.51 144.649 Q180.589 140.042 186.399 140.042 Z" fill="#000000" fill-rule="nonzero" fill-opacity="1" /><path clip-path="url(#clip760)" d="M216.561 143.746 Q212.95 143.746 211.121 147.311 Q209.316 150.852 209.316 157.982 Q209.316 165.088 211.121 168.653 Q212.95 172.195 216.561 172.195 Q220.195 172.195 222.001 168.653 Q223.83 165.088 223.83 157.982 Q223.83 150.852 222.001 147.311 Q220.195 143.746 216.561 143.746 M216.561 140.042 Q222.371 140.042 225.427 144.649 Q228.506 149.232 228.506 157.982 Q228.506 166.709 225.427 171.315 Q222.371 175.898 216.561 175.898 Q210.751 175.898 207.672 171.315 Q204.617 166.709 204.617 157.982 Q204.617 149.232 207.672 144.649 Q210.751 140.042 216.561 140.042 Z" fill="#000000" fill-rule="nonzero" fill-opacity="1" /><path clip-path="url(#clip760)" d="M19.402 1089.79 L37.2578 1089.79 L37.2578 1081.71 Q37.2578 1077.22 34.9343 1074.77 Q32.6108 1072.32 28.314 1072.32 Q24.0489 1072.32 21.7255 1074.77 Q19.402 1077.22 19.402 1081.71 L19.402 1089.79 M14.1184 1096.22 L14.1184 1081.71 Q14.1184 1073.72 17.7469 1069.65 Q21.3435 1065.54 28.314 1065.54 Q35.3481 1065.54 38.9447 1069.65 Q42.5413 1073.72 42.5413 1081.71 L42.5413 1089.79 L61.6384 1089.79 L61.6384 1096.22 L14.1184 1096.22 Z" fill="#000000" fill-rule="nonzero" fill-opacity="1" /><path clip-path="url(#clip760)" d="M30.0964 1045.68 Q30.0964 1050.39 33.7885 1053.13 Q37.4488 1055.87 43.8463 1055.87 Q50.2438 1055.87 53.9359 1053.16 Q57.5962 1050.42 57.5962 1045.68 Q57.5962 1041 53.9041 1038.26 Q50.212 1035.53 43.8463 1035.53 Q37.5124 1035.53 33.8203 1038.26 Q30.0964 1041 30.0964 1045.68 M25.1311 1045.68 Q25.1311 1038.04 30.0964 1033.68 Q35.0616 1029.32 43.8463 1029.32 Q52.5991 1029.32 57.5962 1033.68 Q62.5615 1038.04 62.5615 1045.68 Q62.5615 1053.35 57.5962 1057.71 Q52.5991 1062.04 43.8463 1062.04 Q35.0616 1062.04 30.0964 1057.71 Q25.1311 1053.35 25.1311 1045.68 Z" fill="#000000" fill-rule="nonzero" fill-opacity="1" /><path clip-path="url(#clip760)" d="M56.2912 1013.95 L75.1974 1013.95 L75.1974 1019.84 L25.9905 1019.84 L25.9905 1013.95 L31.4013 1013.95 Q28.2185 1012.1 26.6907 1009.3 Q25.1311 1006.47 25.1311 1002.55 Q25.1311 996.06 30.2873 992.018 Q35.4436 987.944 43.8463 987.944 Q52.249 987.944 57.4052 992.018 Q62.5615 996.06 62.5615 1002.55 Q62.5615 1006.47 61.0337 1009.3 Q59.4741 1012.1 56.2912 1013.95 M43.8463 994.023 Q37.3851 994.023 33.7248 996.696 Q30.0327 999.338 30.0327 1003.99 Q30.0327 1008.63 33.7248 1011.31 Q37.3851 1013.95 43.8463 1013.95 Q50.3075 1013.95 53.9996 1011.31 Q57.6599 1008.63 57.6599 1003.99 Q57.6599 999.338 53.9996 996.696 Q50.3075 994.023 43.8463 994.023 Z" fill="#000000" fill-rule="nonzero" fill-opacity="1" /><path clip-path="url(#clip760)" d="M47.5702 978.841 L25.9905 978.841 L25.9905 972.984 L47.3474 972.984 Q52.4082 972.984 54.9545 971.011 Q57.4689 969.037 57.4689 965.091 Q57.4689 960.348 54.4452 957.611 Q51.4215 954.842 46.2016 954.842 L25.9905 954.842 L25.9905 948.985 L61.6384 948.985 L61.6384 954.842 L56.1639 954.842 Q59.4104 956.974 61.0019 959.807 Q62.5615 962.608 62.5615 966.332 Q62.5615 972.475 58.742 975.658 Q54.9226 978.841 47.5702 978.841 M25.1311 964.104 L25.1311 964.104 Z" fill="#000000" fill-rule="nonzero" fill-opacity="1" /><path clip-path="url(#clip760)" d="M12.1132 936.922 L12.1132 931.066 L61.6384 931.066 L61.6384 936.922 L12.1132 936.922 Z" fill="#000000" fill-rule="nonzero" fill-opacity="1" /><path clip-path="url(#clip760)" d="M43.719 902.611 Q43.719 909.709 45.3422 912.446 Q46.9655 915.184 50.8804 915.184 Q53.9996 915.184 55.8457 913.146 Q57.6599 911.078 57.6599 907.545 Q57.6599 902.675 54.2224 899.747 Q50.7531 896.787 45.0239 896.787 L43.719 896.787 L43.719 902.611 M41.3 890.93 L61.6384 890.93 L61.6384 896.787 L56.2276 896.787 Q59.4741 898.792 61.0337 901.784 Q62.5615 904.776 62.5615 909.104 Q62.5615 914.579 59.5059 917.825 Q56.4186 921.04 51.2623 921.04 Q45.2467 921.04 42.1912 917.03 Q39.1357 912.987 39.1357 904.998 L39.1357 896.787 L38.5628 896.787 Q34.5205 896.787 32.3244 899.46 Q30.0964 902.102 30.0964 906.908 Q30.0964 909.964 30.8284 912.86 Q31.5605 915.756 33.0246 918.43 L27.6137 918.43 Q26.3724 915.215 25.7677 912.192 Q25.1311 909.168 25.1311 906.303 Q25.1311 898.569 29.1415 894.75 Q33.1519 890.93 41.3 890.93 Z" fill="#000000" fill-rule="nonzero" fill-opacity="1" /><path clip-path="url(#clip760)" d="M15.869 873.074 L25.9905 873.074 L25.9905 861.011 L30.542 861.011 L30.542 873.074 L49.8937 873.074 Q54.2542 873.074 55.4955 871.897 Q56.7368 870.687 56.7368 867.027 L56.7368 861.011 L61.6384 861.011 L61.6384 867.027 Q61.6384 873.806 59.124 876.385 Q56.5777 878.963 49.8937 878.963 L30.542 878.963 L30.542 883.259 L25.9905 883.259 L25.9905 878.963 L15.869 878.963 L15.869 873.074 Z" fill="#000000" fill-rule="nonzero" fill-opacity="1" /><path clip-path="url(#clip760)" d="M25.9905 853.309 L25.9905 847.452 L61.6384 847.452 L61.6384 853.309 L25.9905 853.309 M12.1132 853.309 L12.1132 847.452 L19.5293 847.452 L19.5293 853.309 L12.1132 853.309 Z" fill="#000000" fill-rule="nonzero" fill-opacity="1" /><path clip-path="url(#clip760)" d="M30.0964 821.385 Q30.0964 826.095 33.7885 828.833 Q37.4488 831.57 43.8463 831.57 Q50.2438 831.57 53.9359 828.865 Q57.5962 826.127 57.5962 821.385 Q57.5962 816.706 53.9041 813.969 Q50.212 811.232 43.8463 811.232 Q37.5124 811.232 33.8203 813.969 Q30.0964 816.706 30.0964 821.385 M25.1311 821.385 Q25.1311 813.746 30.0964 809.385 Q35.0616 805.025 43.8463 805.025 Q52.5991 805.025 57.5962 809.385 Q62.5615 813.746 62.5615 821.385 Q62.5615 829.056 57.5962 833.416 Q52.5991 837.745 43.8463 837.745 Q35.0616 837.745 30.0964 833.416 Q25.1311 829.056 25.1311 821.385 Z" fill="#000000" fill-rule="nonzero" fill-opacity="1" /><path clip-path="url(#clip760)" d="M40.1224 765.685 L61.6384 765.685 L61.6384 771.541 L40.3133 771.541 Q35.2526 771.541 32.7381 773.515 Q30.2237 775.488 30.2237 779.435 Q30.2237 784.177 33.2474 786.915 Q36.2711 789.652 41.491 789.652 L61.6384 789.652 L61.6384 795.54 L25.9905 795.54 L25.9905 789.652 L31.5287 789.652 Q28.314 787.551 26.7225 784.718 Q25.1311 781.854 25.1311 778.13 Q25.1311 771.987 28.9505 768.836 Q32.7381 765.685 40.1224 765.685 Z" fill="#000000" fill-rule="nonzero" fill-opacity="1" /><path clip-path="url(#clip760)" d="M645.643 14.0809 L645.643 22.0612 Q640.984 19.8332 636.852 18.7395 Q632.72 17.6457 628.872 17.6457 Q622.188 17.6457 618.542 20.2383 Q614.937 22.8309 614.937 27.611 Q614.937 31.6214 617.327 33.6873 Q619.758 35.7128 626.482 36.9686 L631.424 37.9813 Q640.579 39.7232 644.914 44.1387 Q649.289 48.5136 649.289 55.8863 Q649.289 64.6767 643.374 69.2137 Q637.501 73.7508 626.117 73.7508 Q621.824 73.7508 616.962 72.7785 Q612.142 71.8063 606.957 69.9024 L606.957 61.4765 Q611.939 64.2716 616.719 65.6895 Q621.499 67.1073 626.117 67.1073 Q633.126 67.1073 636.933 64.3527 Q640.741 61.598 640.741 56.4939 Q640.741 52.0379 637.987 49.5264 Q635.273 47.0148 629.034 45.759 L624.052 44.7868 Q614.896 42.9639 610.805 39.075 Q606.714 35.1862 606.714 28.2591 Q606.714 20.2383 612.344 15.6203 Q618.016 11.0023 627.94 11.0023 Q632.194 11.0023 636.609 11.7719 Q641.025 12.5416 645.643 14.0809 Z" fill="#000000" fill-rule="nonzero" fill-opacity="1" /><path clip-path="url(#clip760)" d="M662.049 12.096 L670.232 12.096 L670.232 72.576 L662.049 72.576 L662.049 12.096 Z" fill="#000000" fill-rule="nonzero" fill-opacity="1" /><path clip-path="url(#clip760)" d="M715.197 44.2197 Q717.83 45.1109 720.301 48.0275 Q722.813 50.9442 725.324 56.0483 L733.628 72.576 L724.838 72.576 L717.101 57.061 Q714.103 50.9847 711.267 48.9997 Q708.472 47.0148 703.611 47.0148 L694.699 47.0148 L694.699 72.576 L686.516 72.576 L686.516 12.096 L704.989 12.096 Q715.359 12.096 720.463 16.4305 Q725.567 20.7649 725.567 29.5149 Q725.567 35.2267 722.894 38.994 Q720.26 42.7613 715.197 44.2197 M694.699 18.8205 L694.699 40.2903 L704.989 40.2903 Q710.903 40.2903 713.901 37.5762 Q716.939 34.8216 716.939 29.5149 Q716.939 24.2082 713.901 21.5346 Q710.903 18.8205 704.989 18.8205 L694.699 18.8205 Z" fill="#000000" fill-rule="nonzero" fill-opacity="1" /><path clip-path="url(#clip760)" d="M780.416 14.0809 L780.416 22.0612 Q775.758 19.8332 771.626 18.7395 Q767.494 17.6457 763.646 17.6457 Q756.962 17.6457 753.316 20.2383 Q749.711 22.8309 749.711 27.611 Q749.711 31.6214 752.101 33.6873 Q754.531 35.7128 761.256 36.9686 L766.198 37.9813 Q775.353 39.7232 779.687 44.1387 Q784.062 48.5136 784.062 55.8863 Q784.062 64.6767 778.148 69.2137 Q772.274 73.7508 760.891 73.7508 Q756.597 73.7508 751.736 72.7785 Q746.915 71.8063 741.73 69.9024 L741.73 61.4765 Q746.713 64.2716 751.493 65.6895 Q756.273 67.1073 760.891 67.1073 Q767.899 67.1073 771.707 64.3527 Q775.515 61.598 775.515 56.4939 Q775.515 52.0379 772.76 49.5264 Q770.046 47.0148 763.808 45.759 L758.825 44.7868 Q749.67 42.9639 745.579 39.075 Q741.487 35.1862 741.487 28.2591 Q741.487 20.2383 747.118 15.6203 Q752.789 11.0023 762.714 11.0023 Q766.967 11.0023 771.383 11.7719 Q775.798 12.5416 780.416 14.0809 Z" fill="#000000" fill-rule="nonzero" fill-opacity="1" /><path clip-path="url(#clip760)" d="M840.775 9.62495 Q835.347 18.942 832.714 28.0566 Q830.081 37.1711 830.081 46.5287 Q830.081 55.8863 832.714 65.0818 Q835.387 74.2369 840.775 83.5134 L834.293 83.5134 Q828.217 73.9938 825.179 64.7983 Q822.181 55.6027 822.181 46.5287 Q822.181 37.4952 825.179 28.3401 Q828.177 19.1851 834.293 9.62495 L840.775 9.62495 Z" fill="#000000" fill-rule="nonzero" fill-opacity="1" /><path clip-path="url(#clip760)" d="M900.85 16.7545 L900.85 25.383 Q896.718 21.5346 892.019 19.6307 Q887.36 17.7268 882.094 17.7268 Q871.724 17.7268 866.215 24.0867 Q860.705 30.4061 860.705 42.3968 Q860.705 54.3469 866.215 60.7069 Q871.724 67.0263 882.094 67.0263 Q887.36 67.0263 892.019 65.1223 Q896.718 63.2184 900.85 59.3701 L900.85 67.9175 Q896.556 70.8341 891.735 72.2924 Q886.955 73.7508 881.608 73.7508 Q867.875 73.7508 859.976 65.3654 Q852.077 56.9395 852.077 42.3968 Q852.077 27.8135 859.976 19.4281 Q867.875 11.0023 881.608 11.0023 Q887.036 11.0023 891.816 12.4606 Q896.637 13.8784 900.85 16.7545 Z" fill="#000000" fill-rule="nonzero" fill-opacity="1" /><path clip-path="url(#clip760)" d="M930.745 32.4315 Q924.75 32.4315 921.266 37.1306 Q917.783 41.7891 917.783 49.9314 Q917.783 58.0738 921.226 62.7728 Q924.71 67.4314 930.745 67.4314 Q936.7 67.4314 940.184 62.7323 Q943.668 58.0333 943.668 49.9314 Q943.668 41.8701 940.184 37.1711 Q936.7 32.4315 930.745 32.4315 M930.745 26.1121 Q940.468 26.1121 946.017 32.4315 Q951.567 38.7509 951.567 49.9314 Q951.567 61.0714 946.017 67.4314 Q940.468 73.7508 930.745 73.7508 Q920.983 73.7508 915.433 67.4314 Q909.924 61.0714 909.924 49.9314 Q909.924 38.7509 915.433 32.4315 Q920.983 26.1121 930.745 26.1121 Z" fill="#000000" fill-rule="nonzero" fill-opacity="1" /><path clip-path="url(#clip760)" d="M999.246 35.9153 Q1002.04 30.8922 1005.93 28.5022 Q1009.82 26.1121 1015.09 26.1121 Q1022.17 26.1121 1026.02 31.0947 Q1029.87 36.0368 1029.87 45.1919 L1029.87 72.576 L1022.38 72.576 L1022.38 45.4349 Q1022.38 38.913 1020.07 35.7533 Q1017.76 32.5936 1013.02 32.5936 Q1007.23 32.5936 1003.86 36.4419 Q1000.5 40.2903 1000.5 46.9338 L1000.5 72.576 L993.008 72.576 L993.008 45.4349 Q993.008 38.8725 990.699 35.7533 Q988.39 32.5936 983.569 32.5936 Q977.857 32.5936 974.495 36.4824 Q971.133 40.3308 971.133 46.9338 L971.133 72.576 L963.639 72.576 L963.639 27.2059 L971.133 27.2059 L971.133 34.2544 Q973.685 30.082 977.25 28.0971 Q980.815 26.1121 985.716 26.1121 Q990.658 26.1121 994.102 28.6237 Q997.585 31.1352 999.246 35.9153 Z" fill="#000000" fill-rule="nonzero" fill-opacity="1" /><path clip-path="url(#clip760)" d="M1051.95 65.7705 L1051.95 89.8329 L1044.45 89.8329 L1044.45 27.2059 L1051.95 27.2059 L1051.95 34.0924 Q1054.3 30.0415 1057.86 28.0971 Q1061.47 26.1121 1066.45 26.1121 Q1074.71 26.1121 1079.86 32.6746 Q1085.04 39.2371 1085.04 49.9314 Q1085.04 60.6258 1079.86 67.1883 Q1074.71 73.7508 1066.45 73.7508 Q1061.47 73.7508 1057.86 71.8063 Q1054.3 69.8214 1051.95 65.7705 M1077.31 49.9314 Q1077.31 41.7081 1073.9 37.0496 Q1070.54 32.3505 1064.63 32.3505 Q1058.71 32.3505 1055.31 37.0496 Q1051.95 41.7081 1051.95 49.9314 Q1051.95 58.1548 1055.31 62.8538 Q1058.71 67.5124 1064.63 67.5124 Q1070.54 67.5124 1073.9 62.8538 Q1077.31 58.1548 1077.31 49.9314 Z" fill="#000000" fill-rule="nonzero" fill-opacity="1" /><path clip-path="url(#clip760)" d="M1114.98 32.4315 Q1108.99 32.4315 1105.5 37.1306 Q1102.02 41.7891 1102.02 49.9314 Q1102.02 58.0738 1105.46 62.7728 Q1108.94 67.4314 1114.98 67.4314 Q1120.94 67.4314 1124.42 62.7323 Q1127.9 58.0333 1127.9 49.9314 Q1127.9 41.8701 1124.42 37.1711 Q1120.94 32.4315 1114.98 32.4315 M1114.98 26.1121 Q1124.7 26.1121 1130.25 32.4315 Q1135.8 38.7509 1135.8 49.9314 Q1135.8 61.0714 1130.25 67.4314 Q1124.7 73.7508 1114.98 73.7508 Q1105.22 73.7508 1099.67 67.4314 Q1094.16 61.0714 1094.16 49.9314 Q1094.16 38.7509 1099.67 32.4315 Q1105.22 26.1121 1114.98 26.1121 Z" fill="#000000" fill-rule="nonzero" fill-opacity="1" /><path clip-path="url(#clip760)" d="M1177.08 28.5427 L1177.08 35.5912 Q1173.92 33.9709 1170.52 33.1607 Q1167.12 32.3505 1163.47 32.3505 Q1157.92 32.3505 1155.13 34.0519 Q1152.37 35.7533 1152.37 39.156 Q1152.37 41.7486 1154.36 43.2475 Q1156.34 44.7058 1162.34 46.0426 L1164.89 46.6097 Q1172.83 48.3111 1176.15 51.4303 Q1179.51 54.509 1179.51 60.0587 Q1179.51 66.3781 1174.49 70.0644 Q1169.51 73.7508 1160.76 73.7508 Q1157.11 73.7508 1153.14 73.0216 Q1149.21 72.3329 1144.84 70.9151 L1144.84 63.2184 Q1148.97 65.3654 1152.98 66.4591 Q1156.99 67.5124 1160.92 67.5124 Q1166.18 67.5124 1169.02 65.73 Q1171.86 63.9071 1171.86 60.6258 Q1171.86 57.5877 1169.79 55.9673 Q1167.76 54.3469 1160.84 52.8481 L1158.24 52.2405 Q1151.32 50.7821 1148.24 47.7845 Q1145.16 44.7463 1145.16 39.4801 Q1145.16 33.0797 1149.7 29.5959 Q1154.23 26.1121 1162.58 26.1121 Q1166.71 26.1121 1170.36 26.7198 Q1174 27.3274 1177.08 28.5427 Z" fill="#000000" fill-rule="nonzero" fill-opacity="1" /><path clip-path="url(#clip760)" d="M1230.19 48.0275 L1230.19 51.6733 L1195.92 51.6733 Q1196.4 59.3701 1200.54 63.421 Q1204.71 67.4314 1212.12 67.4314 Q1216.42 67.4314 1220.43 66.3781 Q1224.48 65.3249 1228.45 63.2184 L1228.45 70.267 Q1224.44 71.9684 1220.22 72.8596 Q1216.01 73.7508 1211.68 73.7508 Q1200.82 73.7508 1194.46 67.4314 Q1188.14 61.1119 1188.14 50.3365 Q1188.14 39.1965 1194.14 32.6746 Q1200.17 26.1121 1210.38 26.1121 Q1219.53 26.1121 1224.84 32.0264 Q1230.19 37.9003 1230.19 48.0275 M1222.73 45.84 Q1222.65 39.7232 1219.29 36.0774 Q1215.97 32.4315 1210.46 32.4315 Q1204.22 32.4315 1200.45 35.9558 Q1196.73 39.4801 1196.16 45.8805 L1222.73 45.84 Z" fill="#000000" fill-rule="nonzero" fill-opacity="1" /><path clip-path="url(#clip760)" d="M1272.28 34.0924 L1272.28 9.54393 L1279.73 9.54393 L1279.73 72.576 L1272.28 72.576 L1272.28 65.7705 Q1269.93 69.8214 1266.32 71.8063 Q1262.76 73.7508 1257.73 73.7508 Q1249.51 73.7508 1244.33 67.1883 Q1239.18 60.6258 1239.18 49.9314 Q1239.18 39.2371 1244.33 32.6746 Q1249.51 26.1121 1257.73 26.1121 Q1262.76 26.1121 1266.32 28.0971 Q1269.93 30.0415 1272.28 34.0924 M1246.88 49.9314 Q1246.88 58.1548 1250.24 62.8538 Q1253.64 67.5124 1259.56 67.5124 Q1265.47 67.5124 1268.87 62.8538 Q1272.28 58.1548 1272.28 49.9314 Q1272.28 41.7081 1268.87 37.0496 Q1265.47 32.3505 1259.56 32.3505 Q1253.64 32.3505 1250.24 37.0496 Q1246.88 41.7081 1246.88 49.9314 Z" fill="#000000" fill-rule="nonzero" fill-opacity="1" /><path clip-path="url(#clip760)" d="M1293.91 9.62495 L1300.39 9.62495 Q1306.47 19.1851 1309.46 28.3401 Q1312.5 37.4952 1312.5 46.5287 Q1312.5 55.6027 1309.46 64.7983 Q1306.47 73.9938 1300.39 83.5134 L1293.91 83.5134 Q1299.3 74.2369 1301.93 65.0818 Q1304.6 55.8863 1304.6 46.5287 Q1304.6 37.1711 1301.93 28.0566 Q1299.3 18.942 1293.91 9.62495 Z" fill="#000000" fill-rule="nonzero" fill-opacity="1" /><path clip-path="url(#clip760)" d="M1350.05 46.9338 L1424.92 46.9338 L1424.92 52.7671 L1350.05 52.7671 L1350.05 46.9338 Z" fill="#000000" fill-rule="nonzero" fill-opacity="1" /><path clip-path="url(#clip760)" d="M1463.48 12.096 L1501.72 12.096 L1501.72 18.9825 L1471.66 18.9825 L1471.66 36.8875 L1500.46 36.8875 L1500.46 43.7741 L1471.66 43.7741 L1471.66 65.6895 L1502.45 65.6895 L1502.45 72.576 L1463.48 72.576 L1463.48 12.096 Z" fill="#000000" fill-rule="nonzero" fill-opacity="1" /><path clip-path="url(#clip760)" d="M1553.29 45.1919 L1553.29 72.576 L1545.83 72.576 L1545.83 45.4349 Q1545.83 38.994 1543.32 35.7938 Q1540.81 32.5936 1535.79 32.5936 Q1529.75 32.5936 1526.27 36.4419 Q1522.79 40.2903 1522.79 46.9338 L1522.79 72.576 L1515.29 72.576 L1515.29 27.2059 L1522.79 27.2059 L1522.79 34.2544 Q1525.46 30.163 1529.06 28.1376 Q1532.71 26.1121 1537.45 26.1121 Q1545.27 26.1121 1549.28 30.9732 Q1553.29 35.7938 1553.29 45.1919 Z" fill="#000000" fill-rule="nonzero" fill-opacity="1" /><path clip-path="url(#clip760)" d="M1598.01 34.0924 L1598.01 9.54393 L1605.46 9.54393 L1605.46 72.576 L1598.01 72.576 L1598.01 65.7705 Q1595.66 69.8214 1592.06 71.8063 Q1588.49 73.7508 1583.47 73.7508 Q1575.24 73.7508 1570.06 67.1883 Q1564.91 60.6258 1564.91 49.9314 Q1564.91 39.2371 1570.06 32.6746 Q1575.24 26.1121 1583.47 26.1121 Q1588.49 26.1121 1592.06 28.0971 Q1595.66 30.0415 1598.01 34.0924 M1572.61 49.9314 Q1572.61 58.1548 1575.97 62.8538 Q1579.38 67.5124 1585.29 67.5124 Q1591.2 67.5124 1594.61 62.8538 Q1598.01 58.1548 1598.01 49.9314 Q1598.01 41.7081 1594.61 37.0496 Q1591.2 32.3505 1585.29 32.3505 Q1579.38 32.3505 1575.97 37.0496 Q1572.61 41.7081 1572.61 49.9314 Z" fill="#000000" fill-rule="nonzero" fill-opacity="1" /><path clip-path="url(#clip760)" d="M1659.62 48.0275 L1659.62 51.6733 L1625.35 51.6733 Q1625.84 59.3701 1629.97 63.421 Q1634.14 67.4314 1641.56 67.4314 Q1645.85 67.4314 1649.86 66.3781 Q1653.91 65.3249 1657.88 63.2184 L1657.88 70.267 Q1653.87 71.9684 1649.66 72.8596 Q1645.45 73.7508 1641.11 73.7508 Q1630.26 73.7508 1623.9 67.4314 Q1617.58 61.1119 1617.58 50.3365 Q1617.58 39.1965 1623.57 32.6746 Q1629.61 26.1121 1639.82 26.1121 Q1648.97 26.1121 1654.28 32.0264 Q1659.62 37.9003 1659.62 48.0275 M1652.17 45.84 Q1652.09 39.7232 1648.73 36.0774 Q1645.41 32.4315 1639.9 32.4315 Q1633.66 32.4315 1629.89 35.9558 Q1626.16 39.4801 1625.6 45.8805 L1652.17 45.84 Z" fill="#000000" fill-rule="nonzero" fill-opacity="1" /><path clip-path="url(#clip760)" d="M1707.18 35.9153 Q1709.98 30.8922 1713.87 28.5022 Q1717.76 26.1121 1723.02 26.1121 Q1730.11 26.1121 1733.96 31.0947 Q1737.81 36.0368 1737.81 45.1919 L1737.81 72.576 L1730.31 72.576 L1730.31 45.4349 Q1730.31 38.913 1728 35.7533 Q1725.69 32.5936 1720.96 32.5936 Q1715.16 32.5936 1711.8 36.4419 Q1708.44 40.2903 1708.44 46.9338 L1708.44 72.576 L1700.94 72.576 L1700.94 45.4349 Q1700.94 38.8725 1698.63 35.7533 Q1696.33 32.5936 1691.51 32.5936 Q1685.79 32.5936 1682.43 36.4824 Q1679.07 40.3308 1679.07 46.9338 L1679.07 72.576 L1671.57 72.576 L1671.57 27.2059 L1679.07 27.2059 L1679.07 34.2544 Q1681.62 30.082 1685.19 28.0971 Q1688.75 26.1121 1693.65 26.1121 Q1698.59 26.1121 1702.04 28.6237 Q1705.52 31.1352 1707.18 35.9153 Z" fill="#000000" fill-rule="nonzero" fill-opacity="1" /><path clip-path="url(#clip760)" d="M1752.67 27.2059 L1760.13 27.2059 L1760.13 72.576 L1752.67 72.576 L1752.67 27.2059 M1752.67 9.54393 L1760.13 9.54393 L1760.13 18.9825 L1752.67 18.9825 L1752.67 9.54393 Z" fill="#000000" fill-rule="nonzero" fill-opacity="1" /><path clip-path="url(#clip760)" d="M1808.37 28.9478 L1808.37 35.9153 Q1805.21 34.1734 1802.01 33.3227 Q1798.85 32.4315 1795.61 32.4315 Q1788.36 32.4315 1784.35 37.0496 Q1780.34 41.6271 1780.34 49.9314 Q1780.34 58.2358 1784.35 62.8538 Q1788.36 67.4314 1795.61 67.4314 Q1798.85 67.4314 1802.01 66.5807 Q1805.21 65.6895 1808.37 63.9476 L1808.37 70.8341 Q1805.25 72.2924 1801.89 73.0216 Q1798.57 73.7508 1794.8 73.7508 Q1784.55 73.7508 1778.52 67.3098 Q1772.48 60.8689 1772.48 49.9314 Q1772.48 38.832 1778.56 32.472 Q1784.68 26.1121 1795.29 26.1121 Q1798.73 26.1121 1802.01 26.8413 Q1805.3 27.5299 1808.37 28.9478 Z" fill="#000000" fill-rule="nonzero" fill-opacity="1" /><path clip-path="url(#clip760)" d="M1848.03 12.096 L1886.27 12.096 L1886.27 18.9825 L1856.22 18.9825 L1856.22 36.8875 L1885.02 36.8875 L1885.02 43.7741 L1856.22 43.7741 L1856.22 65.6895 L1887 65.6895 L1887 72.576 L1848.03 72.576 L1848.03 12.096 Z" fill="#000000" fill-rule="nonzero" fill-opacity="1" /><path clip-path="url(#clip760)" d="M1904.58 49.9314 Q1904.58 58.1548 1907.95 62.8538 Q1911.35 67.5124 1917.26 67.5124 Q1923.18 67.5124 1926.58 62.8538 Q1929.98 58.1548 1929.98 49.9314 Q1929.98 41.7081 1926.58 37.0496 Q1923.18 32.3505 1917.26 32.3505 Q1911.35 32.3505 1907.95 37.0496 Q1904.58 41.7081 1904.58 49.9314 M1929.98 65.7705 Q1927.63 69.8214 1924.03 71.8063 Q1920.46 73.7508 1915.44 73.7508 Q1907.22 73.7508 1902.03 67.1883 Q1896.89 60.6258 1896.89 49.9314 Q1896.89 39.2371 1902.03 32.6746 Q1907.22 26.1121 1915.44 26.1121 Q1920.46 26.1121 1924.03 28.0971 Q1927.63 30.0415 1929.98 34.0924 L1929.98 27.2059 L1937.44 27.2059 L1937.44 89.8329 L1929.98 89.8329 L1929.98 65.7705 Z" fill="#000000" fill-rule="nonzero" fill-opacity="1" /><path clip-path="url(#clip760)" d="M1952.02 54.671 L1952.02 27.2059 L1959.47 27.2059 L1959.47 54.3874 Q1959.47 60.8284 1961.98 64.0691 Q1964.5 67.2693 1969.52 67.2693 Q1975.55 67.2693 1979.04 63.421 Q1982.56 59.5726 1982.56 52.9291 L1982.56 27.2059 L1990.02 27.2059 L1990.02 72.576 L1982.56 72.576 L1982.56 65.6084 Q1979.85 69.7404 1976.24 71.7658 Q1972.68 73.7508 1967.94 73.7508 Q1960.12 73.7508 1956.07 68.8897 Q1952.02 64.0286 1952.02 54.671 M1970.77 26.1121 L1970.77 26.1121 Z" fill="#000000" fill-rule="nonzero" fill-opacity="1" /><path clip-path="url(#clip760)" d="M2005.37 27.2059 L2012.82 27.2059 L2012.82 72.576 L2005.37 72.576 L2005.37 27.2059 M2005.37 9.54393 L2012.82 9.54393 L2012.82 18.9825 L2005.37 18.9825 L2005.37 9.54393 Z" fill="#000000" fill-rule="nonzero" fill-opacity="1" /><path clip-path="url(#clip760)" d="M2028.42 9.54393 L2035.87 9.54393 L2035.87 72.576 L2028.42 72.576 L2028.42 9.54393 Z" fill="#000000" fill-rule="nonzero" fill-opacity="1" /><path clip-path="url(#clip760)" d="M2051.47 27.2059 L2058.92 27.2059 L2058.92 72.576 L2051.47 72.576 L2051.47 27.2059 M2051.47 9.54393 L2058.92 9.54393 L2058.92 18.9825 L2051.47 18.9825 L2051.47 9.54393 Z" fill="#000000" fill-rule="nonzero" fill-opacity="1" /><path clip-path="url(#clip760)" d="M2107.09 49.9314 Q2107.09 41.7081 2103.68 37.0496 Q2100.32 32.3505 2094.41 32.3505 Q2088.49 32.3505 2085.09 37.0496 Q2081.73 41.7081 2081.73 49.9314 Q2081.73 58.1548 2085.09 62.8538 Q2088.49 67.5124 2094.41 67.5124 Q2100.32 67.5124 2103.68 62.8538 Q2107.09 58.1548 2107.09 49.9314 M2081.73 34.0924 Q2084.08 30.0415 2087.64 28.0971 Q2091.25 26.1121 2096.23 26.1121 Q2104.49 26.1121 2109.64 32.6746 Q2114.82 39.2371 2114.82 49.9314 Q2114.82 60.6258 2109.64 67.1883 Q2104.49 73.7508 2096.23 73.7508 Q2091.25 73.7508 2087.64 71.8063 Q2084.08 69.8214 2081.73 65.7705 L2081.73 72.576 L2074.23 72.576 L2074.23 9.54393 L2081.73 9.54393 L2081.73 34.0924 Z" fill="#000000" fill-rule="nonzero" fill-opacity="1" /><path clip-path="url(#clip760)" d="M2153.47 34.1734 Q2152.21 33.4443 2150.72 33.1202 Q2149.26 32.7556 2147.48 32.7556 Q2141.16 32.7556 2137.75 36.8875 Q2134.39 40.9789 2134.39 48.6757 L2134.39 72.576 L2126.9 72.576 L2126.9 27.2059 L2134.39 27.2059 L2134.39 34.2544 Q2136.74 30.1225 2140.51 28.1376 Q2144.27 26.1121 2149.66 26.1121 Q2150.43 26.1121 2151.36 26.2337 Q2152.3 26.3147 2153.43 26.5172 L2153.47 34.1734 Z" fill="#000000" fill-rule="nonzero" fill-opacity="1" /><path clip-path="url(#clip760)" d="M2161.29 27.2059 L2168.74 27.2059 L2168.74 72.576 L2161.29 72.576 L2161.29 27.2059 M2161.29 9.54393 L2168.74 9.54393 L2168.74 18.9825 L2161.29 18.9825 L2161.29 9.54393 Z" fill="#000000" fill-rule="nonzero" fill-opacity="1" /><path clip-path="url(#clip760)" d="M2183.57 54.671 L2183.57 27.2059 L2191.02 27.2059 L2191.02 54.3874 Q2191.02 60.8284 2193.53 64.0691 Q2196.05 67.2693 2201.07 67.2693 Q2207.1 67.2693 2210.59 63.421 Q2214.11 59.5726 2214.11 52.9291 L2214.11 27.2059 L2221.57 27.2059 L2221.57 72.576 L2214.11 72.576 L2214.11 65.6084 Q2211.4 69.7404 2207.79 71.7658 Q2204.23 73.7508 2199.49 73.7508 Q2191.67 73.7508 2187.62 68.8897 Q2183.57 64.0286 2183.57 54.671 M2202.32 26.1121 L2202.32 26.1121 Z" fill="#000000" fill-rule="nonzero" fill-opacity="1" /><path clip-path="url(#clip760)" d="M2272.24 35.9153 Q2275.04 30.8922 2278.93 28.5022 Q2282.82 26.1121 2288.08 26.1121 Q2295.17 26.1121 2299.02 31.0947 Q2302.87 36.0368 2302.87 45.1919 L2302.87 72.576 L2295.37 72.576 L2295.37 45.4349 Q2295.37 38.913 2293.06 35.7533 Q2290.76 32.5936 2286.02 32.5936 Q2280.22 32.5936 2276.86 36.4419 Q2273.5 40.2903 2273.5 46.9338 L2273.5 72.576 L2266 72.576 L2266 45.4349 Q2266 38.8725 2263.7 35.7533 Q2261.39 32.5936 2256.57 32.5936 Q2250.85 32.5936 2247.49 36.4824 Q2244.13 40.3308 2244.13 46.9338 L2244.13 72.576 L2236.64 72.576 L2236.64 27.2059 L2244.13 27.2059 L2244.13 34.2544 Q2246.68 30.082 2250.25 28.0971 Q2253.81 26.1121 2258.71 26.1121 Q2263.66 26.1121 2267.1 28.6237 Q2270.58 31.1352 2272.24 35.9153 Z" fill="#000000" fill-rule="nonzero" fill-opacity="1" /><polyline clip-path="url(#clip761)" style="stroke:#009af9; stroke-linecap:round; stroke-linejoin:round; stroke-width:8; stroke-opacity:1; fill:none" points="335.956,173.254 338.193,178.262 340.431,184.315 342.669,191.62 344.906,200.419 347.144,210.989 349.382,223.649 351.619,238.751 353.857,256.674 356.095,277.827 358.332,302.644 360.57,331.512 362.808,364.766 365.045,402.667 367.283,445.353 369.521,492.811 371.758,544.792 373.996,600.806 376.234,660.125 378.471,721.788 380.709,784.768 382.947,847.854 385.184,909.897 387.422,969.904 389.66,1027.04 391.897,1080.62 394.135,1130.11 396.373,1175.17 398.61,1215.76 400.848,1252.05 403.086,1284.22 405.323,1312.51 407.561,1337.18 409.799,1358.53 412.036,1376.88 414.274,1392.57 416.512,1405.81 418.749,1416.91 420.987,1426.15 423.225,1433.79 425.462,1440.03 427.7,1445.03 429.938,1448.92 432.175,1451.76 434.413,1453.59 436.651,1454.42 438.888,1454.48 441.126,1453.86 443.364,1452.64 445.601,1450.87 447.839,1448.62 450.077,1445.94 452.314,1442.86 454.552,1439.42 456.79,1435.65 459.027,1431.6 461.265,1427.29 463.503,1422.74 465.74,1417.96 467.978,1412.99 470.216,1407.83 472.453,1402.5 474.691,1397.02 476.929,1391.4 479.167,1385.66 481.404,1379.83 483.642,1373.9 485.88,1367.9 488.117,1361.84 490.355,1355.74 492.593,1349.59 494.83,1343.4 497.068,1337.18 499.306,1330.93 501.543,1324.67 503.781,1318.39 506.019,1312.1 508.256,1305.82 510.494,1299.54 512.732,1293.28 514.969,1287.03 517.207,1280.81 519.445,1274.62 521.682,1268.46 523.92,1262.34 526.158,1256.26 528.395,1250.23 530.633,1244.26 532.871,1238.34 535.108,1232.47 537.346,1226.67 539.584,1220.94 541.821,1215.28 544.059,1209.69 546.297,1204.17 548.534,1198.74 550.772,1193.39 553.01,1188.13 555.247,1182.96 557.485,1177.88 559.723,1172.91 561.96,1168.03 564.198,1163.25 566.436,1158.59 568.673,1154.03 570.911,1149.58 573.149,1145.25 575.386,1141.03 577.624,1136.94 579.862,1132.97 582.099,1129.14 584.337,1125.43 586.575,1121.86 588.812,1118.43 591.05,1115.14 593.288,1111.99 595.525,1109 597.763,1106.15 600.001,1103.45 602.238,1100.91 604.476,1098.53 606.714,1096.31 608.951,1094.25 611.189,1092.35 613.427,1090.62 615.664,1089.06 617.902,1087.66 620.14,1086.44 622.377,1085.38 624.615,1084.5 626.853,1083.8 629.09,1083.26 631.328,1082.9 633.566,1082.72 635.803,1082.71 638.041,1082.87 640.279,1083.2 642.516,1083.71 644.754,1084.38 646.992,1085.21 649.229,1086.21 651.467,1087.37 653.705,1088.69 655.942,1090.16 658.18,1091.77 660.418,1093.53 662.655,1095.42 664.893,1097.44 667.131,1099.59 669.368,1101.86 671.606,1104.23 673.844,1106.71 676.081,1109.29 678.319,1111.96 680.557,1114.7 682.794,1117.51 685.032,1120.38 687.27,1123.31 689.508,1126.28 691.745,1129.28 693.983,1132.32 696.221,1135.38 698.458,1138.45 700.696,1141.53 702.934,1144.61 705.171,1147.67 707.409,1150.72 709.647,1153.75 711.884,1156.74 714.122,1159.7 716.36,1162.61 718.597,1165.48 720.835,1168.29 723.073,1171.04 725.31,1173.73 727.548,1176.35 729.786,1178.89 732.023,1181.35 734.261,1183.73 736.499,1186.02 738.736,1188.23 740.974,1190.34 743.212,1192.35 745.449,1194.26 747.687,1196.08 749.925,1197.78 752.162,1199.4 754.4,1200.91 756.638,1202.33 758.875,1203.65 761.113,1204.88 763.351,1206.01 765.588,1207.04 767.826,1207.98 770.064,1208.82 772.301,1209.56 774.539,1210.21 776.777,1210.77 779.014,1211.24 781.252,1211.62 783.49,1211.91 785.727,1212.12 787.965,1212.25 790.203,1212.3 792.44,1212.27 794.678,1212.17 796.916,1212 799.153,1211.76 801.391,1211.47 803.629,1211.11 805.866,1210.7 808.104,1210.25 810.342,1209.75 812.579,1209.21 814.817,1208.64 817.055,1208.03 819.292,1207.37 821.53,1206.69 823.768,1205.96 826.005,1205.2 828.243,1204.42 830.481,1203.6 832.718,1202.77 834.956,1201.91 837.194,1201.03 839.431,1200.14 841.669,1199.23 843.907,1198.31 846.144,1197.38 848.382,1196.44 850.62,1195.5 852.857,1194.55 855.095,1193.6 857.333,1192.65 859.57,1191.7 861.808,1190.75 864.046,1189.81 866.283,1188.87 868.521,1187.93 870.759,1187.01 872.996,1186.09 875.234,1185.18 877.472,1184.28 879.709,1183.39 881.947,1182.51 884.185,1181.65 886.422,1180.8 888.66,1179.97 890.898,1179.16 893.135,1178.37 895.373,1177.6 897.611,1176.85 899.849,1176.12 902.086,1175.42 904.324,1174.75 906.562,1174.1 908.799,1173.47 911.037,1172.88 913.275,1172.31 915.512,1171.77 917.75,1171.26 919.988,1170.77 922.225,1170.32 924.463,1169.89 926.701,1169.49 928.938,1169.13 931.176,1168.78 933.414,1168.47 935.651,1168.19 937.889,1167.93 940.127,1167.7 942.364,1167.49 944.602,1167.31 946.84,1167.15 949.077,1167.02 951.315,1166.91 953.553,1166.82 955.79,1166.76 958.028,1166.72 960.266,1166.71 962.503,1166.72 964.741,1166.75 966.979,1166.8 969.216,1166.88 971.454,1166.97 973.692,1167.09 975.929,1167.22 978.167,1167.38 980.405,1167.55 982.642,1167.74 984.88,1167.94 987.118,1168.16 989.355,1168.4 991.593,1168.65 993.831,1168.91 996.068,1169.19 998.306,1169.47 1000.54,1169.77 1002.78,1170.08 1005.02,1170.4 1007.26,1170.72 1009.49,1171.05 1011.73,1171.39 1013.97,1171.74 1016.21,1172.08 1018.45,1172.43 1020.68,1172.78 1022.92,1173.14 1025.16,1173.49 1027.4,1173.84 1029.63,1174.19 1031.87,1174.53 1034.11,1174.88 1036.35,1175.22 1038.58,1175.56 1040.82,1175.9 1043.06,1176.24 1045.3,1176.57 1047.53,1176.9 1049.77,1177.22 1052.01,1177.53 1054.25,1177.84 1056.49,1178.14 1058.72,1178.43 1060.96,1178.71 1063.2,1178.98 1065.44,1179.24 1067.67,1179.5 1069.91,1179.74 1072.15,1179.97 1074.39,1180.19 1076.62,1180.41 1078.86,1180.61 1081.1,1180.79 1083.34,1180.97 1085.58,1181.14 1087.81,1181.29 1090.05,1181.44 1092.29,1181.57 1094.53,1181.7 1096.76,1181.81 1099,1181.91 1101.24,1182 1103.48,1182.09 1105.71,1182.16 1107.95,1182.23 1110.19,1182.28 1112.43,1182.33 1114.66,1182.37 1116.9,1182.41 1119.14,1182.43 1121.38,1182.45 1123.62,1182.46 1125.85,1182.46 1128.09,1182.45 1130.33,1182.44 1132.57,1182.42 1134.8,1182.39 1137.04,1182.35 1139.28,1182.31 1141.52,1182.26 1143.75,1182.2 1145.99,1182.14 1148.23,1182.07 1150.47,1181.99 1152.71,1181.91 1154.94,1181.83 1157.18,1181.74 1159.42,1181.64 1161.66,1181.55 1163.89,1181.44 1166.13,1181.33 1168.37,1181.22 1170.61,1181.11 1172.84,1180.99 1175.08,1180.87 1177.32,1180.75 1179.56,1180.63 1181.79,1180.5 1184.03,1180.38 1186.27,1180.25 1188.51,1180.12 1190.75,1180 1192.98,1179.87 1195.22,1179.75 1197.46,1179.62 1199.7,1179.5 1201.93,1179.38 1204.17,1179.26 1206.41,1179.14 1208.65,1179.03 1210.88,1178.92 1213.12,1178.82 1215.36,1178.72 1217.6,1178.62 1219.84,1178.53 1222.07,1178.43 1224.31,1178.34 1226.55,1178.25 1228.79,1178.16 1231.02,1178.08 1233.26,1178 1235.5,1177.92 1237.74,1177.84 1239.97,1177.77 1242.21,1177.7 1244.45,1177.63 1246.69,1177.57 1248.93,1177.51 1251.16,1177.46 1253.4,1177.4 1255.64,1177.36 1257.88,1177.31 1260.11,1177.27 1262.35,1177.24 1264.59,1177.21 1266.83,1177.18 1269.06,1177.15 1271.3,1177.13 1273.54,1177.12 1275.78,1177.1 1278.01,1177.09 1280.25,1177.09 1282.49,1177.08 1284.73,1177.08 1286.97,1177.09 1289.2,1177.09 1291.44,1177.1 1293.68,1177.11 1295.92,1177.12 1298.15,1177.14 1300.39,1177.16 1302.63,1177.17 1304.87,1177.19 1307.1,1177.21 1309.34,1177.23 1311.58,1177.26 1313.82,1177.28 1316.06,1177.31 1318.29,1177.33 1320.53,1177.36 1322.77,1177.39 1325.01,1177.43 1327.24,1177.46 1329.48,1177.49 1331.72,1177.53 1333.96,1177.57 1336.19,1177.6 1338.43,1177.64 1340.67,1177.68 1342.91,1177.72 1345.14,1177.76 1347.38,1177.8 1349.62,1177.84 1351.86,1177.88 1354.1,1177.92 1356.33,1177.96 1358.57,1178 1360.81,1178.04 1363.05,1178.08 1365.28,1178.12 1367.52,1178.16 1369.76,1178.2 1372,1178.24 1374.23,1178.28 1376.47,1178.32 1378.71,1178.36 1380.95,1178.39 1383.19,1178.43 1385.42,1178.46 1387.66,1178.5 1389.9,1178.53 1392.14,1178.56 1394.37,1178.59 1396.61,1178.62 1398.85,1178.65 1401.09,1178.68 1403.32,1178.7 1405.56,1178.73 1407.8,1178.75 1410.04,1178.77 1412.27,1178.79 1414.51,1178.81 1416.75,1178.83 1418.99,1178.84 1421.23,1178.85 1423.46,1178.86 1425.7,1178.87 1427.94,1178.88 1430.18,1178.89 1432.41,1178.89 1434.65,1178.89 1436.89,1178.89 1439.13,1178.89 1441.36,1178.89 1443.6,1178.89 1445.84,1178.89 1448.08,1178.89 1450.32,1178.88 1452.55,1178.88 1454.79,1178.87 1457.03,1178.87 1459.27,1178.86 1461.5,1178.85 1463.74,1178.85 1465.98,1178.84 1468.22,1178.83 1470.45,1178.82 1472.69,1178.81 1474.93,1178.8 1477.17,1178.78 1479.41,1178.77 1481.64,1178.76 1483.88,1178.75 1486.12,1178.73 1488.36,1178.72 1490.59,1178.7 1492.83,1178.69 1495.07,1178.67 1497.31,1178.66 1499.54,1178.64 1501.78,1178.62 1504.02,1178.61 1506.26,1178.59 1508.49,1178.57 1510.73,1178.56 1512.97,1178.54 1515.21,1178.52 1517.45,1178.51 1519.68,1178.49 1521.92,1178.48 1524.16,1178.46 1526.4,1178.44 1528.63,1178.43 1530.87,1178.41 1533.11,1178.4 1535.35,1178.39 1537.58,1178.37 1539.82,1178.36 1542.06,1178.35 1544.3,1178.34 1546.54,1178.33 1548.77,1178.32 1551.01,1178.31 1553.25,1178.3 1555.49,1178.29 1557.72,1178.29 1559.96,1178.28 1562.2,1178.28 1564.44,1178.27 1566.67,1178.27 1568.91,1178.26 1571.15,1178.26 1573.39,1178.25 1575.62,1178.25 1577.86,1178.25 1580.1,1178.24 1582.34,1178.24 1584.58,1178.24 1586.81,1178.23 1589.05,1178.23 1591.29,1178.23 1593.53,1178.23 1595.76,1178.23 1598,1178.23 1600.24,1178.23 1602.48,1178.23 1604.71,1178.23 1606.95,1178.23 1609.19,1178.23 1611.43,1178.23 1613.67,1178.24 1615.9,1178.24 1618.14,1178.24 1620.38,1178.25 1622.62,1178.25 1624.85,1178.26 1627.09,1178.27 1629.33,1178.27 1631.57,1178.28 1633.8,1178.29 1636.04,1178.29 1638.28,1178.3 1640.52,1178.31 1642.76,1178.32 1644.99,1178.33 1647.23,1178.33 1649.47,1178.34 1651.71,1178.35 1653.94,1178.36 1656.18,1178.37 1658.42,1178.38 1660.66,1178.39 1662.89,1178.4 1665.13,1178.41 1667.37,1178.42 1669.61,1178.43 1671.84,1178.44 1674.08,1178.45 1676.32,1178.46 1678.56,1178.47 1680.8,1178.48 1683.03,1178.48 1685.27,1178.49 1687.51,1178.5 1689.75,1178.5 1691.98,1178.51 1694.22,1178.51 1696.46,1178.52 1698.7,1178.52 1700.93,1178.52 1703.17,1178.52 1705.41,1178.52 1707.65,1178.52 1709.89,1178.52 1712.12,1178.52 1714.36,1178.53 1716.6,1178.53 1718.84,1178.53 1721.07,1178.53 1723.31,1178.53 1725.55,1178.53 1727.79,1178.53 1730.02,1178.53 1732.26,1178.53 1734.5,1178.53 1736.74,1178.53 1738.97,1178.53 1741.21,1178.53 1743.45,1178.52 1745.69,1178.52 1747.93,1178.52 1750.16,1178.52 1752.4,1178.52 1754.64,1178.52 1756.88,1178.51 1759.11,1178.51 1761.35,1178.51 1763.59,1178.5 1765.83,1178.5 1768.06,1178.5 1770.3,1178.49 1772.54,1178.49 1774.78,1178.48 1777.02,1178.48 1779.25,1178.47 1781.49,1178.47 1783.73,1178.46 1785.97,1178.46 1788.2,1178.45 1790.44,1178.45 1792.68,1178.44 1794.92,1178.43 1797.15,1178.43 1799.39,1178.42 1801.63,1178.41 1803.87,1178.41 1806.1,1178.4 1808.34,1178.39 1810.58,1178.39 1812.82,1178.38 1815.06,1178.37 1817.29,1178.36 1819.53,1178.36 1821.77,1178.35 1824.01,1178.34 1826.24,1178.34 1828.48,1178.33 1830.72,1178.32 1832.96,1178.32 1835.19,1178.31 1837.43,1178.31 1839.67,1178.3 1841.91,1178.3 1844.15,1178.29 1846.38,1178.29 1848.62,1178.29 1850.86,1178.28 1853.1,1178.28 1855.33,1178.28 1857.57,1178.28 1859.81,1178.28 1862.05,1178.28 1864.28,1178.28 1866.52,1178.28 1868.76,1178.29 1871,1178.29 1873.24,1178.29 1875.47,1178.3 1877.71,1178.31 1879.95,1178.31 1882.19,1178.32 1884.42,1178.33 1886.66,1178.34 1888.9,1178.35 1891.14,1178.36 1893.37,1178.37 1895.61,1178.38 1897.85,1178.39 1900.09,1178.4 1902.32,1178.41 1904.56,1178.42 1906.8,1178.43 1909.04,1178.45 1911.28,1178.46 1913.51,1178.47 1915.75,1178.48 1917.99,1178.49 1920.23,1178.5 1922.46,1178.51 1924.7,1178.52 1926.94,1178.53 1929.18,1178.54 1931.41,1178.55 1933.65,1178.56 1935.89,1178.57 1938.13,1178.58 1940.37,1178.58 1942.6,1178.59 1944.84,1178.6 1947.08,1178.61 1949.32,1178.61 1951.55,1178.62 1953.79,1178.62 1956.03,1178.63 1958.27,1178.63 1960.5,1178.64 1962.74,1178.64 1964.98,1178.64 1967.22,1178.65 1969.45,1178.65 1971.69,1178.65 1973.93,1178.65 1976.17,1178.65 1978.41,1178.65 1980.64,1178.65 1982.88,1178.64 1985.12,1178.64 1987.36,1178.64 1989.59,1178.63 1991.83,1178.63 1994.07,1178.63 1996.31,1178.62 1998.54,1178.61 2000.78,1178.61 2003.02,1178.6 2005.26,1178.59 2007.5,1178.59 2009.73,1178.58 2011.97,1178.57 2014.21,1178.56 2016.45,1178.55 2018.68,1178.54 2020.92,1178.53 2023.16,1178.52 2025.4,1178.51 2027.63,1178.49 2029.87,1178.48 2032.11,1178.47 2034.35,1178.46 2036.58,1178.44 2038.82,1178.43 2041.06,1178.42 2043.3,1178.4 2045.54,1178.39 2047.77,1178.38 2050.01,1178.36 2052.25,1178.35 2054.49,1178.34 2056.72,1178.32 2058.96,1178.31 2061.2,1178.3 2063.44,1178.28 2065.67,1178.27 2067.91,1178.25 2070.15,1178.23 2072.39,1178.21 2074.63,1178.18 2076.86,1178.16 2079.1,1178.14 2081.34,1178.11 2083.58,1178.09 2085.81,1178.06 2088.05,1178.04 2090.29,1178.01 2092.53,1177.99 2094.76,1177.96 2097,1177.94 2099.24,1177.92 2101.48,1177.89 2103.72,1177.87 2105.95,1177.85 2108.19,1177.83 2110.43,1177.82 2112.67,1177.8 2114.9,1177.79 2117.14,1177.78 2119.38,1177.77 2121.62,1177.76 2123.85,1177.75 2126.09,1177.75 2128.33,1177.75 2130.57,1177.75 2132.8,1177.75 2135.04,1177.75 2137.28,1177.76 2139.52,1177.77 2141.76,1177.78 2143.99,1177.79 2146.23,1177.8 2148.47,1177.82 2150.71,1177.84 2152.94,1177.86 2155.18,1177.88 2157.42,1177.91 2159.66,1177.94 2161.89,1177.96 2164.13,1178 2166.37,1178.03 2168.61,1178.06 2170.85,1178.1 2173.08,1178.14 2175.32,1178.18 2177.56,1178.22 2179.8,1178.26 2182.03,1178.3 2184.27,1178.35 2186.51,1178.39 2188.75,1178.44 2190.98,1178.48 2193.22,1178.53 2195.46,1178.57 2197.7,1178.62 2199.93,1178.67 2202.17,1178.71 2204.41,1178.76 2206.65,1178.8 2208.89,1178.85 2211.12,1178.89 2213.36,1178.93 2215.6,1178.97 2217.84,1179.01 2220.07,1179.05 2222.31,1179.08 2224.55,1179.11 2226.79,1179.14 2229.02,1179.17 2231.26,1179.19 2233.5,1179.21 2235.74,1179.22 2237.98,1179.23 2240.21,1179.24 2242.45,1179.24 2244.69,1179.24 2246.93,1179.23 2249.16,1179.21 2251.4,1179.2 2253.64,1179.18 2255.88,1179.17 2258.11,1179.15 2260.35,1179.13 2262.59,1179.11 2264.83,1179.08 2267.06,1179.06 2269.3,1179.04 2271.54,1179.01 2273.78,1178.99 2276.02,1178.96 2278.25,1178.94 2280.49,1178.91 2282.73,1178.88 2284.97,1178.85 2287.2,1178.83 2289.44,1178.8 2291.68,1178.77 2293.92,1178.74 2296.15,1178.71 2298.39,1178.68 2300.63,1178.65 2302.87,1178.62 2305.11,1178.6 2307.34,1178.57 2309.58,1178.54 2311.82,1178.51 2314.06,1178.48 2316.29,1178.45 2318.53,1178.43 2320.77,1178.4 2323.01,1178.38 2325.24,1178.35 2327.48,1178.32 2329.72,1178.3 2331.96,1178.28 2334.2,1178.26 2336.43,1178.23 2338.67,1178.21 2340.91,1178.19 2343.15,1178.17 2345.38,1178.16 2347.62,1178.14 2349.86,1178.12 2352.1,1178.11 2354.33,1178.1 2356.57,1178.09 2358.81,1178.07 2361.05,1178.07 2363.28,1178.06 2365.52,1178.05 2367.76,1178.05 2370,1178.04 2372.24,1178.04 2374.47,1178.04 2376.71,1178.04 2378.95,1178.05 2381.19,1178.05 2383.42,1178.06 2385.66,1178.07 2387.9,1178.08 2390.14,1178.09 2392.37,1178.11 2394.61,1178.12 2396.85,1178.14 2399.09,1178.15 2401.33,1178.17 2403.56,1178.18 2405.8,1178.2 2408.04,1178.22 2410.28,1178.23 2412.51,1178.25 2414.75,1178.27 2416.99,1178.28 2419.23,1178.3 2421.46,1178.32 2423.7,1178.33 2425.94,1178.35 2428.18,1178.37 2430.41,1178.38 2432.65,1178.4 2434.89,1178.42 2437.13,1178.43 2439.37,1178.45 2441.6,1178.46 2443.84,1178.47 2446.08,1178.49 2448.32,1178.5 2450.55,1178.51 2452.79,1178.52 2455.03,1178.54 2457.27,1178.55 2459.5,1178.56 2461.74,1178.57 2463.98,1178.57 2466.22,1178.58 2468.46,1178.59 2470.69,1178.6 2472.93,1178.6 2475.17,1178.61 2477.41,1178.61 2479.64,1178.62 2481.88,1178.62 2484.12,1178.62 2486.36,1178.62 2488.59,1178.63 2490.83,1178.63 2493.07,1178.63 2495.31,1178.63 2497.55,1178.62 2499.78,1178.62 2502.02,1178.62 2504.26,1178.62 2506.5,1178.61 2508.73,1178.61 2510.97,1178.61 2513.21,1178.6 2515.45,1178.59 2517.68,1178.59 2519.92,1178.58 2522.16,1178.58 2524.4,1178.57 2526.63,1178.56 2528.87,1178.56 2531.11,1178.55 2533.35,1178.54 2535.59,1178.53 2537.82,1178.53 2540.06,1178.52 2542.3,1178.51 2544.54,1178.5 2546.77,1178.5 2549.01,1178.49 2551.25,1178.48 2553.49,1178.47 2555.72,1178.47 2557.96,1178.46 2560.2,1178.45 2562.44,1178.45 2564.68,1178.44 2566.91,1178.43 2569.15,1178.43 2571.39,1178.42 2573.63,1178.41 "/>
<polyline clip-path="url(#clip761)" style="stroke:#e26f46; stroke-linecap:round; stroke-linejoin:round; stroke-width:8; stroke-opacity:1; fill:none" points="335.956,1673.35 338.193,1670.02 340.431,1666 342.669,1661.15 344.906,1655.31 347.144,1648.3 349.382,1639.94 351.619,1629.99 353.857,1618.26 356.095,1604.49 358.332,1588.48 360.57,1570.03 362.808,1549.06 365.045,1525.52 367.283,1499.52 369.521,1471.3 371.758,1441.28 373.996,1410.05 376.234,1378.39 378.471,1347.25 380.709,1317.56 382.947,1290.28 385.184,1266.2 387.422,1245.96 389.66,1229.99 391.897,1218.55 394.135,1211.7 396.373,1209.33 398.61,1211.03 400.848,1216.26 403.086,1224.52 405.323,1235.31 407.561,1248.15 409.799,1262.57 412.036,1278.14 414.274,1294.43 416.512,1311.18 418.749,1328.08 420.987,1344.9 423.225,1361.44 425.462,1377.54 427.7,1393.09 429.938,1408.05 432.175,1422.38 434.413,1436.15 436.651,1449.39 438.888,1461.99 441.126,1473.91 443.364,1485.17 445.601,1495.79 447.839,1505.78 450.077,1515.18 452.314,1523.99 454.552,1532.25 456.79,1539.99 459.027,1547.24 461.265,1554.02 463.503,1560.36 465.74,1566.29 467.978,1571.84 470.216,1577.03 472.453,1581.89 474.691,1586.44 476.929,1590.7 479.167,1594.68 481.404,1598.4 483.642,1601.88 485.88,1605.12 488.117,1608.14 490.355,1610.94 492.593,1613.54 494.83,1615.97 497.068,1618.24 499.306,1620.35 501.543,1622.32 503.781,1624.15 506.019,1625.86 508.256,1627.45 510.494,1628.93 512.732,1630.3 514.969,1631.57 517.207,1632.75 519.445,1633.84 521.682,1634.85 523.92,1635.76 526.158,1636.6 528.395,1637.36 530.633,1638.04 532.871,1638.66 535.108,1639.22 537.346,1639.71 539.584,1640.14 541.821,1640.52 544.059,1640.84 546.297,1641.1 548.534,1641.32 550.772,1641.48 553.01,1641.6 555.247,1641.67 557.485,1641.69 559.723,1641.66 561.96,1641.59 564.198,1641.47 566.436,1641.31 568.673,1641.11 570.911,1640.86 573.149,1640.57 575.386,1640.24 577.624,1639.86 579.862,1639.45 582.099,1638.99 584.337,1638.49 586.575,1637.95 588.812,1637.36 591.05,1636.74 593.288,1636.07 595.525,1635.37 597.763,1634.62 600.001,1633.84 602.238,1633.01 604.476,1632.15 606.714,1631.24 608.951,1630.3 611.189,1629.32 613.427,1628.3 615.664,1627.25 617.902,1626.16 620.14,1625.03 622.377,1623.87 624.615,1622.67 626.853,1621.43 629.09,1620.16 631.328,1618.86 633.566,1617.54 635.803,1616.18 638.041,1614.8 640.279,1613.41 642.516,1611.99 644.754,1610.56 646.992,1609.12 649.229,1607.66 651.467,1606.2 653.705,1604.74 655.942,1603.27 658.18,1601.8 660.418,1600.34 662.655,1598.89 664.893,1597.45 667.131,1596.02 669.368,1594.61 671.606,1593.22 673.844,1591.85 676.081,1590.51 678.319,1589.21 680.557,1587.93 682.794,1586.7 685.032,1585.5 687.27,1584.35 689.508,1583.25 691.745,1582.21 693.983,1581.22 696.221,1580.28 698.458,1579.41 700.696,1578.59 702.934,1577.82 705.171,1577.12 707.409,1576.47 709.647,1575.89 711.884,1575.36 714.122,1574.89 716.36,1574.48 718.597,1574.13 720.835,1573.84 723.073,1573.6 725.31,1573.43 727.548,1573.31 729.786,1573.25 732.023,1573.25 734.261,1573.3 736.499,1573.41 738.736,1573.57 740.974,1573.78 743.212,1574.05 745.449,1574.36 747.687,1574.73 749.925,1575.14 752.162,1575.59 754.4,1576.07 756.638,1576.59 758.875,1577.13 761.113,1577.69 763.351,1578.28 765.588,1578.89 767.826,1579.52 770.064,1580.16 772.301,1580.82 774.539,1581.49 776.777,1582.17 779.014,1582.85 781.252,1583.54 783.49,1584.23 785.727,1584.93 787.965,1585.62 790.203,1586.31 792.44,1587 794.678,1587.68 796.916,1588.36 799.153,1589.02 801.391,1589.68 803.629,1590.33 805.866,1590.96 808.104,1591.58 810.342,1592.18 812.579,1592.77 814.817,1593.35 817.055,1593.9 819.292,1594.45 821.53,1594.98 823.768,1595.49 826.005,1595.99 828.243,1596.47 830.481,1596.94 832.718,1597.39 834.956,1597.81 837.194,1598.23 839.431,1598.62 841.669,1598.99 843.907,1599.35 846.144,1599.69 848.382,1600.01 850.62,1600.31 852.857,1600.59 855.095,1600.85 857.333,1601.1 859.57,1601.32 861.808,1601.53 864.046,1601.73 866.283,1601.9 868.521,1602.07 870.759,1602.21 872.996,1602.35 875.234,1602.47 877.472,1602.57 879.709,1602.66 881.947,1602.74 884.185,1602.8 886.422,1602.85 888.66,1602.88 890.898,1602.9 893.135,1602.91 895.373,1602.9 897.611,1602.88 899.849,1602.85 902.086,1602.81 904.324,1602.75 906.562,1602.69 908.799,1602.61 911.037,1602.52 913.275,1602.42 915.512,1602.32 917.75,1602.2 919.988,1602.08 922.225,1601.94 924.463,1601.8 926.701,1601.65 928.938,1601.5 931.176,1601.33 933.414,1601.16 935.651,1600.99 937.889,1600.81 940.127,1600.63 942.364,1600.44 944.602,1600.25 946.84,1600.05 949.077,1599.85 951.315,1599.65 953.553,1599.45 955.79,1599.25 958.028,1599.04 960.266,1598.83 962.503,1598.62 964.741,1598.41 966.979,1598.2 969.216,1597.99 971.454,1597.79 973.692,1597.58 975.929,1597.38 978.167,1597.18 980.405,1596.98 982.642,1596.78 984.88,1596.59 987.118,1596.4 989.355,1596.22 991.593,1596.04 993.831,1595.87 996.068,1595.7 998.306,1595.53 1000.54,1595.38 1002.78,1595.22 1005.02,1595.07 1007.26,1594.93 1009.49,1594.8 1011.73,1594.67 1013.97,1594.54 1016.21,1594.42 1018.45,1594.31 1020.68,1594.21 1022.92,1594.11 1025.16,1594.01 1027.4,1593.93 1029.63,1593.84 1031.87,1593.77 1034.11,1593.7 1036.35,1593.64 1038.58,1593.58 1040.82,1593.53 1043.06,1593.48 1045.3,1593.44 1047.53,1593.41 1049.77,1593.38 1052.01,1593.36 1054.25,1593.35 1056.49,1593.33 1058.72,1593.33 1060.96,1593.33 1063.2,1593.34 1065.44,1593.35 1067.67,1593.36 1069.91,1593.39 1072.15,1593.41 1074.39,1593.44 1076.62,1593.48 1078.86,1593.52 1081.1,1593.56 1083.34,1593.61 1085.58,1593.66 1087.81,1593.71 1090.05,1593.77 1092.29,1593.83 1094.53,1593.89 1096.76,1593.95 1099,1594.02 1101.24,1594.09 1103.48,1594.16 1105.71,1594.23 1107.95,1594.3 1110.19,1594.37 1112.43,1594.45 1114.66,1594.52 1116.9,1594.59 1119.14,1594.67 1121.38,1594.75 1123.62,1594.82 1125.85,1594.9 1128.09,1594.98 1130.33,1595.06 1132.57,1595.14 1134.8,1595.21 1137.04,1595.29 1139.28,1595.36 1141.52,1595.44 1143.75,1595.51 1145.99,1595.58 1148.23,1595.65 1150.47,1595.72 1152.71,1595.79 1154.94,1595.85 1157.18,1595.91 1159.42,1595.97 1161.66,1596.03 1163.89,1596.09 1166.13,1596.14 1168.37,1596.19 1170.61,1596.24 1172.84,1596.28 1175.08,1596.32 1177.32,1596.36 1179.56,1596.4 1181.79,1596.44 1184.03,1596.47 1186.27,1596.5 1188.51,1596.53 1190.75,1596.55 1192.98,1596.57 1195.22,1596.59 1197.46,1596.61 1199.7,1596.63 1201.93,1596.64 1204.17,1596.65 1206.41,1596.67 1208.65,1596.67 1210.88,1596.68 1213.12,1596.69 1215.36,1596.7 1217.6,1596.7 1219.84,1596.7 1222.07,1596.71 1224.31,1596.7 1226.55,1596.7 1228.79,1596.7 1231.02,1596.69 1233.26,1596.69 1235.5,1596.68 1237.74,1596.67 1239.97,1596.66 1242.21,1596.65 1244.45,1596.64 1246.69,1596.62 1248.93,1596.61 1251.16,1596.59 1253.4,1596.57 1255.64,1596.55 1257.88,1596.54 1260.11,1596.52 1262.35,1596.5 1264.59,1596.47 1266.83,1596.45 1269.06,1596.43 1271.3,1596.41 1273.54,1596.38 1275.78,1596.36 1278.01,1596.33 1280.25,1596.31 1282.49,1596.28 1284.73,1596.26 1286.97,1596.23 1289.2,1596.21 1291.44,1596.18 1293.68,1596.16 1295.92,1596.13 1298.15,1596.11 1300.39,1596.09 1302.63,1596.06 1304.87,1596.04 1307.1,1596.02 1309.34,1596 1311.58,1595.97 1313.82,1595.95 1316.06,1595.93 1318.29,1595.91 1320.53,1595.89 1322.77,1595.87 1325.01,1595.84 1327.24,1595.82 1329.48,1595.8 1331.72,1595.78 1333.96,1595.77 1336.19,1595.75 1338.43,1595.73 1340.67,1595.71 1342.91,1595.7 1345.14,1595.68 1347.38,1595.67 1349.62,1595.65 1351.86,1595.64 1354.1,1595.63 1356.33,1595.62 1358.57,1595.61 1360.81,1595.6 1363.05,1595.59 1365.28,1595.58 1367.52,1595.58 1369.76,1595.57 1372,1595.57 1374.23,1595.57 1376.47,1595.56 1378.71,1595.56 1380.95,1595.56 1383.19,1595.57 1385.42,1595.57 1387.66,1595.57 1389.9,1595.57 1392.14,1595.58 1394.37,1595.58 1396.61,1595.59 1398.85,1595.6 1401.09,1595.61 1403.32,1595.61 1405.56,1595.62 1407.8,1595.63 1410.04,1595.64 1412.27,1595.65 1414.51,1595.66 1416.75,1595.67 1418.99,1595.68 1421.23,1595.69 1423.46,1595.7 1425.7,1595.71 1427.94,1595.72 1430.18,1595.73 1432.41,1595.74 1434.65,1595.75 1436.89,1595.76 1439.13,1595.77 1441.36,1595.78 1443.6,1595.79 1445.84,1595.8 1448.08,1595.81 1450.32,1595.82 1452.55,1595.82 1454.79,1595.83 1457.03,1595.84 1459.27,1595.85 1461.5,1595.86 1463.74,1595.87 1465.98,1595.88 1468.22,1595.89 1470.45,1595.9 1472.69,1595.9 1474.93,1595.91 1477.17,1595.92 1479.41,1595.93 1481.64,1595.93 1483.88,1595.94 1486.12,1595.95 1488.36,1595.95 1490.59,1595.96 1492.83,1595.96 1495.07,1595.97 1497.31,1595.97 1499.54,1595.97 1501.78,1595.98 1504.02,1595.98 1506.26,1595.98 1508.49,1595.99 1510.73,1595.99 1512.97,1595.99 1515.21,1595.99 1517.45,1595.99 1519.68,1595.99 1521.92,1595.99 1524.16,1595.99 1526.4,1595.99 1528.63,1595.99 1530.87,1595.99 1533.11,1595.99 1535.35,1595.99 1537.58,1595.98 1539.82,1595.98 1542.06,1595.98 1544.3,1595.98 1546.54,1595.97 1548.77,1595.97 1551.01,1595.97 1553.25,1595.97 1555.49,1595.96 1557.72,1595.96 1559.96,1595.96 1562.2,1595.96 1564.44,1595.95 1566.67,1595.95 1568.91,1595.95 1571.15,1595.95 1573.39,1595.94 1575.62,1595.94 1577.86,1595.94 1580.1,1595.93 1582.34,1595.93 1584.58,1595.93 1586.81,1595.92 1589.05,1595.92 1591.29,1595.91 1593.53,1595.91 1595.76,1595.91 1598,1595.9 1600.24,1595.9 1602.48,1595.9 1604.71,1595.89 1606.95,1595.89 1609.19,1595.89 1611.43,1595.88 1613.67,1595.88 1615.9,1595.88 1618.14,1595.87 1620.38,1595.87 1622.62,1595.87 1624.85,1595.87 1627.09,1595.86 1629.33,1595.86 1631.57,1595.86 1633.8,1595.86 1636.04,1595.86 1638.28,1595.85 1640.52,1595.85 1642.76,1595.85 1644.99,1595.85 1647.23,1595.85 1649.47,1595.85 1651.71,1595.84 1653.94,1595.84 1656.18,1595.84 1658.42,1595.84 1660.66,1595.84 1662.89,1595.84 1665.13,1595.84 1667.37,1595.84 1669.61,1595.84 1671.84,1595.84 1674.08,1595.84 1676.32,1595.84 1678.56,1595.84 1680.8,1595.84 1683.03,1595.84 1685.27,1595.84 1687.51,1595.84 1689.75,1595.85 1691.98,1595.85 1694.22,1595.85 1696.46,1595.85 1698.7,1595.85 1700.93,1595.85 1703.17,1595.86 1705.41,1595.86 1707.65,1595.86 1709.89,1595.86 1712.12,1595.86 1714.36,1595.87 1716.6,1595.87 1718.84,1595.87 1721.07,1595.88 1723.31,1595.88 1725.55,1595.88 1727.79,1595.88 1730.02,1595.89 1732.26,1595.89 1734.5,1595.89 1736.74,1595.9 1738.97,1595.9 1741.21,1595.9 1743.45,1595.9 1745.69,1595.91 1747.93,1595.91 1750.16,1595.91 1752.4,1595.91 1754.64,1595.92 1756.88,1595.92 1759.11,1595.92 1761.35,1595.92 1763.59,1595.93 1765.83,1595.93 1768.06,1595.93 1770.3,1595.93 1772.54,1595.93 1774.78,1595.93 1777.02,1595.93 1779.25,1595.94 1781.49,1595.94 1783.73,1595.94 1785.97,1595.94 1788.2,1595.94 1790.44,1595.94 1792.68,1595.94 1794.92,1595.94 1797.15,1595.94 1799.39,1595.94 1801.63,1595.94 1803.87,1595.93 1806.1,1595.93 1808.34,1595.93 1810.58,1595.93 1812.82,1595.93 1815.06,1595.93 1817.29,1595.93 1819.53,1595.92 1821.77,1595.92 1824.01,1595.92 1826.24,1595.92 1828.48,1595.92 1830.72,1595.91 1832.96,1595.91 1835.19,1595.91 1837.43,1595.91 1839.67,1595.9 1841.91,1595.9 1844.15,1595.9 1846.38,1595.89 1848.62,1595.89 1850.86,1595.89 1853.1,1595.89 1855.33,1595.88 1857.57,1595.88 1859.81,1595.88 1862.05,1595.87 1864.28,1595.87 1866.52,1595.87 1868.76,1595.87 1871,1595.86 1873.24,1595.86 1875.47,1595.86 1877.71,1595.86 1879.95,1595.85 1882.19,1595.85 1884.42,1595.85 1886.66,1595.84 1888.9,1595.84 1891.14,1595.83 1893.37,1595.83 1895.61,1595.83 1897.85,1595.82 1900.09,1595.82 1902.32,1595.81 1904.56,1595.81 1906.8,1595.81 1909.04,1595.8 1911.28,1595.8 1913.51,1595.79 1915.75,1595.79 1917.99,1595.79 1920.23,1595.78 1922.46,1595.78 1924.7,1595.78 1926.94,1595.77 1929.18,1595.77 1931.41,1595.77 1933.65,1595.77 1935.89,1595.77 1938.13,1595.77 1940.37,1595.77 1942.6,1595.77 1944.84,1595.77 1947.08,1595.77 1949.32,1595.77 1951.55,1595.77 1953.79,1595.77 1956.03,1595.77 1958.27,1595.78 1960.5,1595.78 1962.74,1595.78 1964.98,1595.78 1967.22,1595.79 1969.45,1595.79 1971.69,1595.8 1973.93,1595.8 1976.17,1595.81 1978.41,1595.81 1980.64,1595.82 1982.88,1595.83 1985.12,1595.83 1987.36,1595.84 1989.59,1595.85 1991.83,1595.85 1994.07,1595.86 1996.31,1595.87 1998.54,1595.88 2000.78,1595.88 2003.02,1595.89 2005.26,1595.9 2007.5,1595.91 2009.73,1595.92 2011.97,1595.93 2014.21,1595.93 2016.45,1595.94 2018.68,1595.95 2020.92,1595.96 2023.16,1595.97 2025.4,1595.97 2027.63,1595.98 2029.87,1595.99 2032.11,1595.99 2034.35,1596 2036.58,1596.01 2038.82,1596.01 2041.06,1596.02 2043.3,1596.02 2045.54,1596.03 2047.77,1596.03 2050.01,1596.03 2052.25,1596.03 2054.49,1596.03 2056.72,1596.03 2058.96,1596.03 2061.2,1596.03 2063.44,1596.03 2065.67,1596.03 2067.91,1596.02 2070.15,1596.02 2072.39,1596.02 2074.63,1596.02 2076.86,1596.01 2079.1,1596.01 2081.34,1596.01 2083.58,1596 2085.81,1596 2088.05,1596 2090.29,1595.99 2092.53,1595.99 2094.76,1595.99 2097,1595.98 2099.24,1595.98 2101.48,1595.97 2103.72,1595.97 2105.95,1595.96 2108.19,1595.96 2110.43,1595.95 2112.67,1595.95 2114.9,1595.94 2117.14,1595.93 2119.38,1595.93 2121.62,1595.92 2123.85,1595.91 2126.09,1595.91 2128.33,1595.9 2130.57,1595.89 2132.8,1595.89 2135.04,1595.88 2137.28,1595.87 2139.52,1595.87 2141.76,1595.86 2143.99,1595.85 2146.23,1595.84 2148.47,1595.84 2150.71,1595.83 2152.94,1595.82 2155.18,1595.82 2157.42,1595.81 2159.66,1595.8 2161.89,1595.79 2164.13,1595.79 2166.37,1595.78 2168.61,1595.77 2170.85,1595.77 2173.08,1595.76 2175.32,1595.75 2177.56,1595.75 2179.8,1595.74 2182.03,1595.73 2184.27,1595.73 2186.51,1595.72 2188.75,1595.72 2190.98,1595.71 2193.22,1595.71 2195.46,1595.7 2197.7,1595.7 2199.93,1595.7 2202.17,1595.7 2204.41,1595.69 2206.65,1595.69 2208.89,1595.69 2211.12,1595.69 2213.36,1595.69 2215.6,1595.69 2217.84,1595.69 2220.07,1595.7 2222.31,1595.7 2224.55,1595.7 2226.79,1595.71 2229.02,1595.71 2231.26,1595.72 2233.5,1595.73 2235.74,1595.73 2237.98,1595.74 2240.21,1595.75 2242.45,1595.77 2244.69,1595.78 2246.93,1595.79 2249.16,1595.81 2251.4,1595.82 2253.64,1595.84 2255.88,1595.86 2258.11,1595.87 2260.35,1595.89 2262.59,1595.91 2264.83,1595.92 2267.06,1595.94 2269.3,1595.96 2271.54,1595.97 2273.78,1595.99 2276.02,1596 2278.25,1596.02 2280.49,1596.03 2282.73,1596.05 2284.97,1596.06 2287.2,1596.07 2289.44,1596.08 2291.68,1596.09 2293.92,1596.1 2296.15,1596.11 2298.39,1596.12 2300.63,1596.13 2302.87,1596.13 2305.11,1596.14 2307.34,1596.14 2309.58,1596.15 2311.82,1596.15 2314.06,1596.15 2316.29,1596.15 2318.53,1596.15 2320.77,1596.15 2323.01,1596.15 2325.24,1596.15 2327.48,1596.14 2329.72,1596.14 2331.96,1596.13 2334.2,1596.12 2336.43,1596.12 2338.67,1596.11 2340.91,1596.1 2343.15,1596.09 2345.38,1596.08 2347.62,1596.07 2349.86,1596.05 2352.1,1596.04 2354.33,1596.03 2356.57,1596.02 2358.81,1596 2361.05,1595.99 2363.28,1595.98 2365.52,1595.97 2367.76,1595.95 2370,1595.94 2372.24,1595.93 2374.47,1595.91 2376.71,1595.9 2378.95,1595.89 2381.19,1595.88 2383.42,1595.87 2385.66,1595.86 2387.9,1595.86 2390.14,1595.85 2392.37,1595.84 2394.61,1595.84 2396.85,1595.83 2399.09,1595.82 2401.33,1595.82 2403.56,1595.81 2405.8,1595.81 2408.04,1595.8 2410.28,1595.8 2412.51,1595.79 2414.75,1595.78 2416.99,1595.78 2419.23,1595.78 2421.46,1595.77 2423.7,1595.77 2425.94,1595.76 2428.18,1595.76 2430.41,1595.76 2432.65,1595.75 2434.89,1595.75 2437.13,1595.75 2439.37,1595.75 2441.6,1595.75 2443.84,1595.75 2446.08,1595.75 2448.32,1595.75 2450.55,1595.75 2452.79,1595.75 2455.03,1595.75 2457.27,1595.75 2459.5,1595.75 2461.74,1595.76 2463.98,1595.76 2466.22,1595.76 2468.46,1595.77 2470.69,1595.77 2472.93,1595.78 2475.17,1595.78 2477.41,1595.78 2479.64,1595.79 2481.88,1595.8 2484.12,1595.8 2486.36,1595.81 2488.59,1595.81 2490.83,1595.82 2493.07,1595.83 2495.31,1595.83 2497.55,1595.84 2499.78,1595.85 2502.02,1595.85 2504.26,1595.86 2506.5,1595.87 2508.73,1595.87 2510.97,1595.88 2513.21,1595.88 2515.45,1595.89 2517.68,1595.9 2519.92,1595.9 2522.16,1595.91 2524.4,1595.91 2526.63,1595.91 2528.87,1595.92 2531.11,1595.92 2533.35,1595.92 2535.59,1595.92 2537.82,1595.93 2540.06,1595.93 2542.3,1595.93 2544.54,1595.93 2546.77,1595.93 2549.01,1595.93 2551.25,1595.93 2553.49,1595.94 2555.72,1595.94 2557.96,1595.94 2560.2,1595.94 2562.44,1595.94 2564.68,1595.94 2566.91,1595.94 2569.15,1595.94 2571.39,1595.94 2573.63,1595.94 "/>
<polyline clip-path="url(#clip761)" style="stroke:#3da44d; stroke-linecap:round; stroke-linejoin:round; stroke-width:8; stroke-opacity:1; fill:none" points="335.956,1688.65 338.193,1686.97 340.431,1684.94 342.669,1682.49 344.906,1679.53 347.144,1675.96 349.382,1671.67 351.619,1666.51 353.857,1660.33 356.095,1652.94 358.332,1644.14 360.57,1633.71 362.808,1621.43 365.045,1607.07 367.283,1590.38 369.521,1571.15 371.758,1549.19 373.996,1524.4 376.234,1496.74 378.471,1466.22 380.709,1432.92 382.947,1397.12 385.184,1359.16 387.422,1319.39 389.66,1278.23 391.897,1236.09 394.135,1193.44 396.373,1150.75 398.61,1108.47 400.848,1066.95 403.086,1026.51 405.323,987.435 407.561,949.928 409.799,914.159 412.036,880.245 414.274,848.258 416.512,818.273 418.749,790.268 420.987,764.201 423.225,740.024 425.462,717.685 427.7,697.129 429.938,678.294 432.175,661.115 434.413,645.522 436.651,631.441 438.888,618.79 441.126,607.486 443.364,597.446 445.601,588.592 447.839,580.849 450.077,574.145 452.314,568.413 454.552,563.589 456.79,559.61 459.027,556.416 461.265,553.951 463.503,552.164 465.74,551.007 467.978,550.435 470.216,550.403 472.453,550.872 474.691,551.804 476.929,553.161 479.167,554.913 481.404,557.027 483.642,559.475 485.88,562.233 488.117,565.276 490.355,568.583 492.593,572.126 494.83,575.884 497.068,579.84 499.306,583.975 501.543,588.273 503.781,592.717 506.019,597.294 508.256,601.988 510.494,606.787 512.732,611.678 514.969,616.65 517.207,621.693 519.445,626.797 521.682,631.954 523.92,637.156 526.158,642.396 528.395,647.665 530.633,652.954 532.871,658.256 535.108,663.564 537.346,668.872 539.584,674.173 541.821,679.462 544.059,684.733 546.297,689.98 548.534,695.198 550.772,700.382 553.01,705.528 555.247,710.631 557.485,715.686 559.723,720.69 561.96,725.639 564.198,730.529 566.436,735.357 568.673,740.12 570.911,744.816 573.149,749.439 575.386,753.986 577.624,758.453 579.862,762.837 582.099,767.134 584.337,771.34 586.575,775.452 588.812,779.466 591.05,783.38 593.288,787.19 595.525,790.893 597.763,794.486 600.001,797.966 602.238,801.331 604.476,804.578 606.714,807.704 608.951,810.707 611.189,813.584 613.427,816.333 615.664,818.952 617.902,821.439 620.14,823.792 622.377,826.008 624.615,828.088 626.853,830.03 629.09,831.832 631.328,833.49 633.566,835.003 635.803,836.368 638.041,837.583 640.279,838.648 642.516,839.56 644.754,840.32 646.992,840.926 649.229,841.38 651.467,841.682 653.705,841.833 655.942,841.833 658.18,841.684 660.418,841.389 662.655,840.949 664.893,840.367 667.131,839.647 669.368,838.791 671.606,837.804 673.844,836.689 676.081,835.451 678.319,834.096 680.557,832.627 682.794,831.051 685.032,829.373 687.27,827.6 689.508,825.729 691.745,823.765 693.983,821.717 696.221,819.592 698.458,817.397 700.696,815.139 702.934,812.826 705.171,810.465 707.409,808.062 709.647,805.624 711.884,803.157 714.122,800.668 716.36,798.163 718.597,795.648 720.835,793.128 723.073,790.609 725.31,788.098 727.548,785.598 729.786,783.116 732.023,780.656 734.261,778.224 736.499,775.823 738.736,773.459 740.974,771.135 743.212,768.857 745.449,766.628 747.687,764.452 749.925,762.332 752.162,760.271 754.4,758.273 756.638,756.34 758.875,754.476 761.113,752.683 763.351,750.965 765.588,749.323 767.826,747.76 770.064,746.276 772.301,744.874 774.539,743.554 776.777,742.318 779.014,741.164 781.252,740.095 783.49,739.109 785.727,738.207 787.965,737.386 790.203,736.647 792.44,735.988 794.678,735.407 796.916,734.902 799.153,734.471 801.391,734.112 803.629,733.821 805.866,733.596 808.104,733.433 810.342,733.328 812.579,733.277 814.817,733.276 817.055,733.327 819.292,733.434 821.53,733.594 823.768,733.804 826.005,734.062 828.243,734.367 830.481,734.715 832.718,735.104 834.956,735.533 837.194,735.999 839.431,736.499 841.669,737.033 843.907,737.597 846.144,738.189 848.382,738.809 850.62,739.452 852.857,740.119 855.095,740.806 857.333,741.512 859.57,742.234 861.808,742.972 864.046,743.722 866.283,744.485 868.521,745.256 870.759,746.036 872.996,746.821 875.234,747.611 877.472,748.405 879.709,749.204 881.947,750.005 884.185,750.806 886.422,751.606 888.66,752.403 890.898,753.195 893.135,753.98 895.373,754.757 897.611,755.525 899.849,756.282 902.086,757.026 904.324,757.757 906.562,758.473 908.799,759.174 911.037,759.858 913.275,760.524 915.512,761.171 917.75,761.8 919.988,762.409 922.225,762.997 924.463,763.565 926.701,764.111 928.938,764.636 931.176,765.14 933.414,765.621 935.651,766.08 937.889,766.518 940.127,766.934 942.364,767.328 944.602,767.701 946.84,768.053 949.077,768.384 951.315,768.695 953.553,768.985 955.79,769.252 958.028,769.496 960.266,769.719 962.503,769.919 964.741,770.097 966.979,770.253 969.216,770.386 971.454,770.498 973.692,770.588 975.929,770.657 978.167,770.705 980.405,770.731 982.642,770.738 984.88,770.724 987.118,770.691 989.355,770.638 991.593,770.567 993.831,770.478 996.068,770.371 998.306,770.248 1000.54,770.109 1002.78,769.954 1005.02,769.785 1007.26,769.602 1009.49,769.406 1011.73,769.199 1013.97,768.98 1016.21,768.751 1018.45,768.513 1020.68,768.267 1022.92,768.014 1025.16,767.756 1027.4,767.493 1029.63,767.226 1031.87,766.957 1034.11,766.681 1036.35,766.4 1038.58,766.115 1040.82,765.827 1043.06,765.537 1045.3,765.244 1047.53,764.951 1049.77,764.659 1052.01,764.366 1054.25,764.076 1056.49,763.787 1058.72,763.501 1060.96,763.218 1063.2,762.94 1065.44,762.665 1067.67,762.396 1069.91,762.131 1072.15,761.873 1074.39,761.621 1076.62,761.375 1078.86,761.136 1081.1,760.904 1083.34,760.679 1085.58,760.462 1087.81,760.253 1090.05,760.051 1092.29,759.858 1094.53,759.673 1096.76,759.495 1099,759.326 1101.24,759.165 1103.48,759.012 1105.71,758.867 1107.95,758.73 1110.19,758.6 1112.43,758.478 1114.66,758.363 1116.9,758.255 1119.14,758.154 1121.38,758.06 1123.62,757.974 1125.85,757.895 1128.09,757.824 1130.33,757.761 1132.57,757.705 1134.8,757.657 1137.04,757.617 1139.28,757.585 1141.52,757.561 1143.75,757.544 1145.99,757.535 1148.23,757.534 1150.47,757.54 1152.71,757.554 1154.94,757.575 1157.18,757.603 1159.42,757.638 1161.66,757.68 1163.89,757.728 1166.13,757.782 1168.37,757.843 1170.61,757.909 1172.84,757.981 1175.08,758.058 1177.32,758.14 1179.56,758.226 1181.79,758.316 1184.03,758.41 1186.27,758.507 1188.51,758.607 1190.75,758.709 1192.98,758.813 1195.22,758.918 1197.46,759.025 1199.7,759.131 1201.93,759.238 1204.17,759.344 1206.41,759.448 1208.65,759.55 1210.88,759.65 1213.12,759.746 1215.36,759.839 1217.6,759.932 1219.84,760.025 1222.07,760.118 1224.31,760.211 1226.55,760.303 1228.79,760.394 1231.02,760.484 1233.26,760.573 1235.5,760.66 1237.74,760.746 1239.97,760.829 1242.21,760.91 1244.45,760.989 1246.69,761.066 1248.93,761.14 1251.16,761.211 1253.4,761.279 1255.64,761.345 1257.88,761.408 1260.11,761.467 1262.35,761.524 1264.59,761.577 1266.83,761.627 1269.06,761.674 1271.3,761.717 1273.54,761.758 1275.78,761.795 1278.01,761.829 1280.25,761.86 1282.49,761.888 1284.73,761.913 1286.97,761.935 1289.2,761.955 1291.44,761.971 1293.68,761.986 1295.92,761.997 1298.15,762.007 1300.39,762.014 1302.63,762.02 1304.87,762.024 1307.1,762.026 1309.34,762.027 1311.58,762.026 1313.82,762.024 1316.06,762.02 1318.29,762.014 1320.53,762.007 1322.77,761.997 1325.01,761.986 1327.24,761.974 1329.48,761.96 1331.72,761.944 1333.96,761.927 1336.19,761.908 1338.43,761.888 1340.67,761.866 1342.91,761.843 1345.14,761.819 1347.38,761.793 1349.62,761.766 1351.86,761.738 1354.1,761.709 1356.33,761.679 1358.57,761.648 1360.81,761.616 1363.05,761.583 1365.28,761.55 1367.52,761.516 1369.76,761.481 1372,761.445 1374.23,761.409 1376.47,761.373 1378.71,761.337 1380.95,761.3 1383.19,761.263 1385.42,761.226 1387.66,761.189 1389.9,761.152 1392.14,761.116 1394.37,761.079 1396.61,761.044 1398.85,761.008 1401.09,760.974 1403.32,760.94 1405.56,760.907 1407.8,760.875 1410.04,760.844 1412.27,760.815 1414.51,760.787 1416.75,760.76 1418.99,760.735 1421.23,760.711 1423.46,760.69 1425.7,760.67 1427.94,760.652 1430.18,760.637 1432.41,760.624 1434.65,760.613 1436.89,760.603 1439.13,760.594 1441.36,760.585 1443.6,760.577 1445.84,760.57 1448.08,760.563 1450.32,760.557 1452.55,760.552 1454.79,760.548 1457.03,760.544 1459.27,760.542 1461.5,760.54 1463.74,760.539 1465.98,760.539 1468.22,760.54 1470.45,760.542 1472.69,760.545 1474.93,760.548 1477.17,760.553 1479.41,760.558 1481.64,760.564 1483.88,760.571 1486.12,760.579 1488.36,760.588 1490.59,760.597 1492.83,760.607 1495.07,760.618 1497.31,760.63 1499.54,760.642 1501.78,760.655 1504.02,760.668 1506.26,760.682 1508.49,760.697 1510.73,760.711 1512.97,760.727 1515.21,760.742 1517.45,760.758 1519.68,760.774 1521.92,760.79 1524.16,760.807 1526.4,760.823 1528.63,760.839 1530.87,760.855 1533.11,760.871 1535.35,760.887 1537.58,760.902 1539.82,760.917 1542.06,760.931 1544.3,760.944 1546.54,760.957 1548.77,760.969 1551.01,760.98 1553.25,760.99 1555.49,760.999 1557.72,761.006 1559.96,761.014 1562.2,761.021 1564.44,761.029 1566.67,761.037 1568.91,761.045 1571.15,761.052 1573.39,761.06 1575.62,761.068 1577.86,761.075 1580.1,761.082 1582.34,761.089 1584.58,761.095 1586.81,761.101 1589.05,761.107 1591.29,761.112 1593.53,761.117 1595.76,761.121 1598,761.125 1600.24,761.129 1602.48,761.132 1604.71,761.134 1606.95,761.136 1609.19,761.137 1611.43,761.138 1613.67,761.138 1615.9,761.138 1618.14,761.137 1620.38,761.136 1622.62,761.134 1624.85,761.131 1627.09,761.128 1629.33,761.124 1631.57,761.12 1633.8,761.115 1636.04,761.109 1638.28,761.104 1640.52,761.097 1642.76,761.091 1644.99,761.083 1647.23,761.076 1649.47,761.068 1651.71,761.06 1653.94,761.051 1656.18,761.042 1658.42,761.033 1660.66,761.024 1662.89,761.014 1665.13,761.005 1667.37,760.995 1669.61,760.985 1671.84,760.976 1674.08,760.966 1676.32,760.957 1678.56,760.948 1680.8,760.939 1683.03,760.93 1685.27,760.922 1687.51,760.914 1689.75,760.907 1691.98,760.9 1694.22,760.894 1696.46,760.889 1698.7,760.885 1700.93,760.881 1703.17,760.879 1705.41,760.876 1707.65,760.873 1709.89,760.871 1712.12,760.868 1714.36,760.865 1716.6,760.861 1718.84,760.858 1721.07,760.855 1723.31,760.851 1725.55,760.848 1727.79,760.845 1730.02,760.842 1732.26,760.839 1734.5,760.837 1736.74,760.834 1738.97,760.832 1741.21,760.83 1743.45,760.828 1745.69,760.827 1747.93,760.825 1750.16,760.825 1752.4,760.824 1754.64,760.824 1756.88,760.824 1759.11,760.825 1761.35,760.826 1763.59,760.827 1765.83,760.829 1768.06,760.831 1770.3,760.833 1772.54,760.836 1774.78,760.839 1777.02,760.843 1779.25,760.847 1781.49,760.852 1783.73,760.857 1785.97,760.862 1788.2,760.867 1790.44,760.873 1792.68,760.88 1794.92,760.886 1797.15,760.893 1799.39,760.9 1801.63,760.908 1803.87,760.916 1806.1,760.924 1808.34,760.932 1810.58,760.94 1812.82,760.949 1815.06,760.957 1817.29,760.966 1819.53,760.975 1821.77,760.984 1824.01,760.993 1826.24,761.002 1828.48,761.01 1830.72,761.019 1832.96,761.028 1835.19,761.036 1837.43,761.044 1839.67,761.052 1841.91,761.059 1844.15,761.067 1846.38,761.073 1848.62,761.08 1850.86,761.085 1853.1,761.09 1855.33,761.095 1857.57,761.099 1859.81,761.102 1862.05,761.104 1864.28,761.106 1866.52,761.106 1868.76,761.106 1871,761.104 1873.24,761.102 1875.47,761.098 1877.71,761.094 1879.95,761.089 1882.19,761.084 1884.42,761.079 1886.66,761.074 1888.9,761.069 1891.14,761.063 1893.37,761.057 1895.61,761.051 1897.85,761.045 1900.09,761.038 1902.32,761.032 1904.56,761.025 1906.8,761.018 1909.04,761.011 1911.28,761.004 1913.51,760.997 1915.75,760.989 1917.99,760.982 1920.23,760.974 1922.46,760.967 1924.7,760.959 1926.94,760.952 1929.18,760.944 1931.41,760.936 1933.65,760.929 1935.89,760.921 1938.13,760.913 1940.37,760.906 1942.6,760.898 1944.84,760.891 1947.08,760.884 1949.32,760.876 1951.55,760.869 1953.79,760.862 1956.03,760.855 1958.27,760.848 1960.5,760.842 1962.74,760.835 1964.98,760.829 1967.22,760.823 1969.45,760.817 1971.69,760.812 1973.93,760.806 1976.17,760.801 1978.41,760.796 1980.64,760.792 1982.88,760.787 1985.12,760.783 1987.36,760.779 1989.59,760.776 1991.83,760.773 1994.07,760.77 1996.31,760.768 1998.54,760.766 2000.78,760.765 2003.02,760.763 2005.26,760.763 2007.5,760.762 2009.73,760.763 2011.97,760.763 2014.21,760.764 2016.45,760.766 2018.68,760.768 2020.92,760.771 2023.16,760.774 2025.4,760.778 2027.63,760.782 2029.87,760.787 2032.11,760.793 2034.35,760.799 2036.58,760.806 2038.82,760.813 2041.06,760.822 2043.3,760.83 2045.54,760.84 2047.77,760.85 2050.01,760.861 2052.25,760.873 2054.49,760.885 2056.72,760.898 2058.96,760.912 2061.2,760.927 2063.44,760.944 2065.67,760.963 2067.91,760.984 2070.15,761.007 2072.39,761.031 2074.63,761.056 2076.86,761.083 2079.1,761.11 2081.34,761.138 2083.58,761.167 2085.81,761.195 2088.05,761.224 2090.29,761.253 2092.53,761.282 2094.76,761.31 2097,761.338 2099.24,761.366 2101.48,761.392 2103.72,761.418 2105.95,761.442 2108.19,761.466 2110.43,761.488 2112.67,761.509 2114.9,761.528 2117.14,761.546 2119.38,761.562 2121.62,761.577 2123.85,761.59 2126.09,761.601 2128.33,761.61 2130.57,761.617 2132.8,761.622 2135.04,761.625 2137.28,761.626 2139.52,761.625 2141.76,761.622 2143.99,761.617 2146.23,761.609 2148.47,761.6 2150.71,761.588 2152.94,761.574 2155.18,761.558 2157.42,761.541 2159.66,761.521 2161.89,761.499 2164.13,761.475 2166.37,761.449 2168.61,761.422 2170.85,761.392 2173.08,761.361 2175.32,761.329 2177.56,761.295 2179.8,761.259 2182.03,761.222 2184.27,761.184 2186.51,761.145 2188.75,761.104 2190.98,761.063 2193.22,761.021 2195.46,760.979 2197.7,760.935 2199.93,760.892 2202.17,760.849 2204.41,760.805 2206.65,760.761 2208.89,760.718 2211.12,760.676 2213.36,760.634 2215.6,760.593 2217.84,760.553 2220.07,760.514 2222.31,760.477 2224.55,760.442 2226.79,760.408 2229.02,760.377 2231.26,760.348 2233.5,760.322 2235.74,760.299 2237.98,760.279 2240.21,760.263 2242.45,760.25 2244.69,760.241 2246.93,760.237 2249.16,760.235 2251.4,760.234 2253.64,760.235 2255.88,760.236 2258.11,760.238 2260.35,760.241 2262.59,760.245 2264.83,760.25 2267.06,760.256 2269.3,760.263 2271.54,760.271 2273.78,760.281 2276.02,760.291 2278.25,760.303 2280.49,760.315 2282.73,760.329 2284.97,760.344 2287.2,760.359 2289.44,760.376 2291.68,760.394 2293.92,760.413 2296.15,760.433 2298.39,760.453 2300.63,760.475 2302.87,760.498 2305.11,760.521 2307.34,760.545 2309.58,760.57 2311.82,760.596 2314.06,760.622 2316.29,760.649 2318.53,760.677 2320.77,760.705 2323.01,760.733 2325.24,760.762 2327.48,760.791 2329.72,760.82 2331.96,760.85 2334.2,760.879 2336.43,760.908 2338.67,760.937 2340.91,760.966 2343.15,760.995 2345.38,761.023 2347.62,761.051 2349.86,761.078 2352.1,761.104 2354.33,761.13 2356.57,761.154 2358.81,761.178 2361.05,761.2 2363.28,761.22 2365.52,761.24 2367.76,761.258 2370,761.274 2372.24,761.288 2374.47,761.3 2376.71,761.31 2378.95,761.317 2381.19,761.322 2383.42,761.325 2385.66,761.325 2387.9,761.321 2390.14,761.315 2392.37,761.308 2394.61,761.299 2396.85,761.291 2399.09,761.282 2401.33,761.272 2403.56,761.262 2405.8,761.251 2408.04,761.241 2410.28,761.229 2412.51,761.218 2414.75,761.206 2416.99,761.194 2419.23,761.181 2421.46,761.168 2423.7,761.156 2425.94,761.143 2428.18,761.13 2430.41,761.116 2432.65,761.103 2434.89,761.09 2437.13,761.076 2439.37,761.063 2441.6,761.049 2443.84,761.036 2446.08,761.023 2448.32,761.01 2450.55,760.997 2452.79,760.984 2455.03,760.971 2457.27,760.959 2459.5,760.947 2461.74,760.935 2463.98,760.923 2466.22,760.911 2468.46,760.9 2470.69,760.889 2472.93,760.879 2475.17,760.869 2477.41,760.859 2479.64,760.85 2481.88,760.841 2484.12,760.833 2486.36,760.825 2488.59,760.817 2490.83,760.81 2493.07,760.804 2495.31,760.798 2497.55,760.792 2499.78,760.788 2502.02,760.784 2504.26,760.78 2506.5,760.777 2508.73,760.775 2510.97,760.773 2513.21,760.772 2515.45,760.772 2517.68,760.772 2519.92,760.773 2522.16,760.775 2524.4,760.778 2526.63,760.781 2528.87,760.785 2531.11,760.79 2533.35,760.795 2535.59,760.801 2537.82,760.806 2540.06,760.812 2542.3,760.817 2544.54,760.823 2546.77,760.829 2549.01,760.835 2551.25,760.841 2553.49,760.847 2555.72,760.854 2557.96,760.86 2560.2,760.866 2562.44,760.872 2564.68,760.878 2566.91,760.885 2569.15,760.891 2571.39,760.897 2573.63,760.903 "/>
<path clip-path="url(#clip760)" d="M2297.58 1062.26 L2561.69 1062.26 L2561.69 854.899 L2297.58 854.899  Z" fill="#ffffff" fill-rule="evenodd" fill-opacity="1"/>
<polyline clip-path="url(#clip760)" style="stroke:#000000; stroke-linecap:round; stroke-linejoin:round; stroke-width:4; stroke-opacity:1; fill:none" points="2297.58,1062.26 2561.69,1062.26 2561.69,854.899 2297.58,854.899 2297.58,1062.26 "/>
<polyline clip-path="url(#clip760)" style="stroke:#009af9; stroke-linecap:round; stroke-linejoin:round; stroke-width:8; stroke-opacity:1; fill:none" points="2323.93,906.739 2482.06,906.739 "/>
<path clip-path="url(#clip760)" d="M2530.66 890.593 L2530.66 895.153 Q2528 893.88 2525.64 893.255 Q2523.28 892.63 2521.08 892.63 Q2517.26 892.63 2515.17 894.111 Q2513.11 895.593 2513.11 898.324 Q2513.11 900.616 2514.48 901.797 Q2515.87 902.954 2519.71 903.672 L2522.54 904.25 Q2527.77 905.246 2530.24 907.769 Q2532.74 910.269 2532.74 914.482 Q2532.74 919.505 2529.36 922.097 Q2526.01 924.69 2519.5 924.69 Q2517.05 924.69 2514.27 924.134 Q2511.52 923.579 2508.55 922.491 L2508.55 917.676 Q2511.4 919.273 2514.13 920.084 Q2516.86 920.894 2519.5 920.894 Q2523.51 920.894 2525.68 919.32 Q2527.86 917.746 2527.86 914.829 Q2527.86 912.283 2526.29 910.847 Q2524.73 909.412 2521.17 908.695 L2518.32 908.139 Q2513.09 907.098 2510.75 904.875 Q2508.42 902.653 2508.42 898.695 Q2508.42 894.111 2511.63 891.473 Q2514.87 888.834 2520.55 888.834 Q2522.98 888.834 2525.5 889.274 Q2528.02 889.713 2530.66 890.593 Z" fill="#000000" fill-rule="nonzero" fill-opacity="1" /><polyline clip-path="url(#clip760)" style="stroke:#e26f46; stroke-linecap:round; stroke-linejoin:round; stroke-width:8; stroke-opacity:1; fill:none" points="2323.93,958.579 2482.06,958.579 "/>
<path clip-path="url(#clip760)" d="M2508.42 941.299 L2513.09 941.299 L2513.09 975.859 L2508.42 975.859 L2508.42 941.299 Z" fill="#000000" fill-rule="nonzero" fill-opacity="1" /><polyline clip-path="url(#clip760)" style="stroke:#3da44d; stroke-linecap:round; stroke-linejoin:round; stroke-width:8; stroke-opacity:1; fill:none" points="2323.93,1010.42 2482.06,1010.42 "/>
<path clip-path="url(#clip760)" d="M2524.8 1011.5 Q2526.31 1012 2527.72 1013.67 Q2529.16 1015.34 2530.59 1018.25 L2535.34 1027.7 L2530.31 1027.7 L2525.89 1018.83 Q2524.18 1015.36 2522.56 1014.23 Q2520.96 1013.09 2518.18 1013.09 L2513.09 1013.09 L2513.09 1027.7 L2508.42 1027.7 L2508.42 993.139 L2518.97 993.139 Q2524.9 993.139 2527.81 995.616 Q2530.73 998.092 2530.73 1003.09 Q2530.73 1006.36 2529.2 1008.51 Q2527.7 1010.66 2524.8 1011.5 M2513.09 996.981 L2513.09 1009.25 L2518.97 1009.25 Q2522.35 1009.25 2524.06 1007.7 Q2525.8 1006.12 2525.8 1003.09 Q2525.8 1000.06 2524.06 998.532 Q2522.35 996.981 2518.97 996.981 L2513.09 996.981 Z" fill="#000000" fill-rule="nonzero" fill-opacity="1" /></svg>
