<?xml version="1.0" encoding="utf-8"?>
<svg xmlns="http://www.w3.org/2000/svg" xmlns:xlink="http://www.w3.org/1999/xlink" width="672" height="480" viewBox="0 0 2688 1920">
<defs>
  <clipPath id="clip030">
    <rect x="0" y="0" width="2688" height="1920"/>
  </clipPath>
</defs>
<path clip-path="url(#clip030)" d="M0 1920 L2688 1920 L2688 -4.26326e-14 L0 -4.26326e-14  Z" fill="#ffffff" fill-rule="evenodd" fill-opacity="1"/>
<defs>
  <clipPath id="clip031">
    <rect x="238" y="127" width="2403" height="1607"/>
  </clipPath>
</defs>
<path clip-path="url(#clip030)" d="M238.664 1734.12 L2640.76 1734.12 L2640.76 127.792 L238.664 127.792  Z" fill="#ffffff" fill-rule="evenodd" fill-opacity="1"/>
<polyline clip-path="url(#clip031)" style="stroke:#000000; stroke-linecap:round; stroke-linejoin:round; stroke-width:2; stroke-opacity:0.1; fill:none" points="283.757,1734.12 283.757,127.792 "/>
<polyline clip-path="url(#clip031)" style="stroke:#000000; stroke-linecap:round; stroke-linejoin:round; stroke-width:2; stroke-opacity:0.1; fill:none" points="856.011,1734.12 856.011,127.792 "/>
<polyline clip-path="url(#clip031)" style="stroke:#000000; stroke-linecap:round; stroke-linejoin:round; stroke-width:2; stroke-opacity:0.1; fill:none" points="1428.26,1734.12 1428.26,127.792 "/>
<polyline clip-path="url(#clip031)" style="stroke:#000000; stroke-linecap:round; stroke-linejoin:round; stroke-width:2; stroke-opacity:0.1; fill:none" points="2000.52,1734.12 2000.52,127.792 "/>
<polyline clip-path="url(#clip031)" style="stroke:#000000; stroke-linecap:round; stroke-linejoin:round; stroke-width:2; stroke-opacity:0.1; fill:none" points="2572.77,1734.12 2572.77,127.792 "/>
<polyline clip-path="url(#clip031)" style="stroke:#000000; stroke-linecap:round; stroke-linejoin:round; stroke-width:2; stroke-opacity:0.1; fill:none" points="238.664,1688.65 2640.76,1688.65 "/>
<polyline clip-path="url(#clip031)" style="stroke:#000000; stroke-linecap:round; stroke-linejoin:round; stroke-width:2; stroke-opacity:0.1; fill:none" points="238.664,1327.85 2640.76,1327.85 "/>
<polyline clip-path="url(#clip031)" style="stroke:#000000; stroke-linecap:round; stroke-linejoin:round; stroke-width:2; stroke-opacity:0.1; fill:none" points="238.664,967.036 2640.76,967.036 "/>
<polyline clip-path="url(#clip031)" style="stroke:#000000; stroke-linecap:round; stroke-linejoin:round; stroke-width:2; stroke-opacity:0.1; fill:none" points="238.664,606.226 2640.76,606.226 "/>
<polyline clip-path="url(#clip031)" style="stroke:#000000; stroke-linecap:round; stroke-linejoin:round; stroke-width:2; stroke-opacity:0.1; fill:none" points="238.664,245.416 2640.76,245.416 "/>
<polyline clip-path="url(#clip030)" style="stroke:#000000; stroke-linecap:round; stroke-linejoin:round; stroke-width:4; stroke-opacity:1; fill:none" points="238.664,1734.12 2640.76,1734.12 "/>
<polyline clip-path="url(#clip030)" style="stroke:#000000; stroke-linecap:round; stroke-linejoin:round; stroke-width:4; stroke-opacity:1; fill:none" points="283.757,1734.12 283.757,1715.22 "/>
<polyline clip-path="url(#clip030)" style="stroke:#000000; stroke-linecap:round; stroke-linejoin:round; stroke-width:4; stroke-opacity:1; fill:none" points="856.011,1734.12 856.011,1715.22 "/>
<polyline clip-path="url(#clip030)" style="stroke:#000000; stroke-linecap:round; stroke-linejoin:round; stroke-width:4; stroke-opacity:1; fill:none" points="1428.26,1734.12 1428.26,1715.22 "/>
<polyline clip-path="url(#clip030)" style="stroke:#000000; stroke-linecap:round; stroke-linejoin:round; stroke-width:4; stroke-opacity:1; fill:none" points="2000.52,1734.12 2000.52,1715.22 "/>
<polyline clip-path="url(#clip030)" style="stroke:#000000; stroke-linecap:round; stroke-linejoin:round; stroke-width:4; stroke-opacity:1; fill:none" points="2572.77,1734.12 2572.77,1715.22 "/>
<path clip-path="url(#clip030)" d="M283.757 1767.34 Q280.146 1767.34 278.317 1770.9 Q276.512 1774.45 276.512 1781.58 Q276.512 1788.68 278.317 1792.25 Q280.146 1795.79 283.757 1795.79 Q287.391 1795.79 289.197 1792.25 Q291.026 1788.68 291.026 1781.58 Q291.026 1774.45 289.197 1770.9 Q287.391 1767.34 283.757 1767.34 M283.757 1763.64 Q289.567 1763.64 292.623 1768.24 Q295.702 1772.83 295.702 1781.58 Q295.702 1790.3 292.623 1794.91 Q289.567 1799.49 283.757 1799.49 Q277.947 1799.49 274.868 1794.91 Q271.813 1790.3 271.813 1781.58 Q271.813 1772.83 274.868 1768.24 Q277.947 1763.64 283.757 1763.64 Z" fill="#000000" fill-rule="nonzero" fill-opacity="1" /><path clip-path="url(#clip030)" d="M835.282 1794.89 L851.601 1794.89 L851.601 1798.82 L829.657 1798.82 L829.657 1794.89 Q832.319 1792.13 836.902 1787.5 Q841.509 1782.85 842.689 1781.51 Q844.935 1778.98 845.814 1777.25 Q846.717 1775.49 846.717 1773.8 Q846.717 1771.04 844.773 1769.31 Q842.851 1767.57 839.749 1767.57 Q837.55 1767.57 835.097 1768.34 Q832.666 1769.1 829.888 1770.65 L829.888 1765.93 Q832.712 1764.79 835.166 1764.21 Q837.62 1763.64 839.657 1763.64 Q845.027 1763.64 848.222 1766.32 Q851.416 1769.01 851.416 1773.5 Q851.416 1775.63 850.606 1777.55 Q849.819 1779.45 847.712 1782.04 Q847.134 1782.71 844.032 1785.93 Q840.93 1789.12 835.282 1794.89 Z" fill="#000000" fill-rule="nonzero" fill-opacity="1" /><path clip-path="url(#clip030)" d="M861.462 1764.26 L879.819 1764.26 L879.819 1768.2 L865.745 1768.2 L865.745 1776.67 Q866.763 1776.32 867.782 1776.16 Q868.8 1775.97 869.819 1775.97 Q875.606 1775.97 878.985 1779.15 Q882.365 1782.32 882.365 1787.73 Q882.365 1793.31 878.893 1796.41 Q875.421 1799.49 869.101 1799.49 Q866.925 1799.49 864.657 1799.12 Q862.411 1798.75 860.004 1798.01 L860.004 1793.31 Q862.087 1794.45 864.31 1795 Q866.532 1795.56 869.009 1795.56 Q873.013 1795.56 875.351 1793.45 Q877.689 1791.34 877.689 1787.73 Q877.689 1784.12 875.351 1782.02 Q873.013 1779.91 869.009 1779.91 Q867.134 1779.91 865.259 1780.33 Q863.407 1780.74 861.462 1781.62 L861.462 1764.26 Z" fill="#000000" fill-rule="nonzero" fill-opacity="1" /><path clip-path="url(#clip030)" d="M1402.96 1764.26 L1421.32 1764.26 L1421.32 1768.2 L1407.25 1768.2 L1407.25 1776.67 Q1408.26 1776.32 1409.28 1776.16 Q1410.3 1775.97 1411.32 1775.97 Q1417.11 1775.97 1420.49 1779.15 Q1423.87 1782.32 1423.87 1787.73 Q1423.87 1793.31 1420.39 1796.41 Q1416.92 1799.49 1410.6 1799.49 Q1408.43 1799.49 1406.16 1799.12 Q1403.91 1798.75 1401.51 1798.01 L1401.51 1793.31 Q1403.59 1794.45 1405.81 1795 Q1408.03 1795.56 1410.51 1795.56 Q1414.51 1795.56 1416.85 1793.45 Q1419.19 1791.34 1419.19 1787.73 Q1419.19 1784.12 1416.85 1782.02 Q1414.51 1779.91 1410.51 1779.91 Q1408.64 1779.91 1406.76 1780.33 Q1404.91 1780.74 1402.96 1781.62 L1402.96 1764.26 Z" fill="#000000" fill-rule="nonzero" fill-opacity="1" /><path clip-path="url(#clip030)" d="M1443.08 1767.34 Q1439.47 1767.34 1437.64 1770.9 Q1435.83 1774.45 1435.83 1781.58 Q1435.83 1788.68 1437.64 1792.25 Q1439.47 1795.79 1443.08 1795.79 Q1446.71 1795.79 1448.52 1792.25 Q1450.35 1788.68 1450.35 1781.58 Q1450.35 1774.45 1448.52 1770.9 Q1446.71 1767.34 1443.08 1767.34 M1443.08 1763.64 Q1448.89 1763.64 1451.95 1768.24 Q1455.02 1772.83 1455.02 1781.58 Q1455.02 1790.3 1451.95 1794.91 Q1448.89 1799.49 1443.08 1799.49 Q1437.27 1799.49 1434.19 1794.91 Q1431.14 1790.3 1431.14 1781.58 Q1431.14 1772.83 1434.19 1768.24 Q1437.27 1763.64 1443.08 1763.64 Z" fill="#000000" fill-rule="nonzero" fill-opacity="1" /><path clip-path="url(#clip030)" d="M1974.37 1764.26 L1996.59 1764.26 L1996.59 1766.25 L1984.05 1798.82 L1979.16 1798.82 L1990.97 1768.2 L1974.37 1768.2 L1974.37 1764.26 Z" fill="#000000" fill-rule="nonzero" fill-opacity="1" /><path clip-path="url(#clip030)" d="M2005.76 1764.26 L2024.12 1764.26 L2024.12 1768.2 L2010.04 1768.2 L2010.04 1776.67 Q2011.06 1776.32 2012.08 1776.16 Q2013.1 1775.97 2014.12 1775.97 Q2019.9 1775.97 2023.28 1779.15 Q2026.66 1782.32 2026.66 1787.73 Q2026.66 1793.31 2023.19 1796.41 Q2019.72 1799.49 2013.4 1799.49 Q2011.22 1799.49 2008.96 1799.12 Q2006.71 1798.75 2004.3 1798.01 L2004.3 1793.31 Q2006.39 1794.45 2008.61 1795 Q2010.83 1795.56 2013.31 1795.56 Q2017.31 1795.56 2019.65 1793.45 Q2021.99 1791.34 2021.99 1787.73 Q2021.99 1784.12 2019.65 1782.02 Q2017.31 1779.91 2013.31 1779.91 Q2011.43 1779.91 2009.56 1780.33 Q2007.71 1780.74 2005.76 1781.62 L2005.76 1764.26 Z" fill="#000000" fill-rule="nonzero" fill-opacity="1" /><path clip-path="url(#clip030)" d="M2532.38 1794.89 L2540.02 1794.89 L2540.02 1768.52 L2531.71 1770.19 L2531.71 1765.93 L2539.97 1764.26 L2544.65 1764.26 L2544.65 1794.89 L2552.29 1794.89 L2552.29 1798.82 L2532.38 1798.82 L2532.38 1794.89 Z" fill="#000000" fill-rule="nonzero" fill-opacity="1" /><path clip-path="url(#clip030)" d="M2571.73 1767.34 Q2568.12 1767.34 2566.29 1770.9 Q2564.49 1774.45 2564.49 1781.58 Q2564.49 1788.68 2566.29 1792.25 Q2568.12 1795.79 2571.73 1795.79 Q2575.36 1795.79 2577.17 1792.25 Q2579 1788.68 2579 1781.58 Q2579 1774.45 2577.17 1770.9 Q2575.36 1767.34 2571.73 1767.34 M2571.73 1763.64 Q2577.54 1763.64 2580.6 1768.24 Q2583.67 1772.83 2583.67 1781.58 Q2583.67 1790.3 2580.6 1794.91 Q2577.54 1799.49 2571.73 1799.49 Q2565.92 1799.49 2562.84 1794.91 Q2559.79 1790.3 2559.79 1781.58 Q2559.79 1772.83 2562.84 1768.24 Q2565.92 1763.64 2571.73 1763.64 Z" fill="#000000" fill-rule="nonzero" fill-opacity="1" /><path clip-path="url(#clip030)" d="M2601.89 1767.34 Q2598.28 1767.34 2596.45 1770.9 Q2594.65 1774.45 2594.65 1781.58 Q2594.65 1788.68 2596.45 1792.25 Q2598.28 1795.79 2601.89 1795.79 Q2605.53 1795.79 2607.33 1792.25 Q2609.16 1788.68 2609.16 1781.58 Q2609.16 1774.45 2607.33 1770.9 Q2605.53 1767.34 2601.89 1767.34 M2601.89 1763.64 Q2607.7 1763.64 2610.76 1768.24 Q2613.84 1772.83 2613.84 1781.58 Q2613.84 1790.3 2610.76 1794.91 Q2607.7 1799.49 2601.89 1799.49 Q2596.08 1799.49 2593 1794.91 Q2589.95 1790.3 2589.95 1781.58 Q2589.95 1772.83 2593 1768.24 Q2596.08 1763.64 2601.89 1763.64 Z" fill="#000000" fill-rule="nonzero" fill-opacity="1" /><path clip-path="url(#clip030)" d="M1385.95 1841.06 L1385.95 1878.02 L1393.72 1878.02 Q1403.55 1878.02 1408.1 1873.56 Q1412.69 1869.11 1412.69 1859.49 Q1412.69 1849.94 1408.1 1845.52 Q1403.55 1841.06 1393.72 1841.06 L1385.95 1841.06 M1379.52 1835.78 L1392.73 1835.78 Q1406.54 1835.78 1413.01 1841.54 Q1419.47 1847.27 1419.47 1859.49 Q1419.47 1871.78 1412.97 1877.54 Q1406.48 1883.3 1392.73 1883.3 L1379.52 1883.3 L1379.52 1835.78 Z" fill="#000000" fill-rule="nonzero" fill-opacity="1" /><path clip-path="url(#clip030)" d="M1445.66 1865.38 Q1438.56 1865.38 1435.83 1867 Q1433.09 1868.63 1433.09 1872.54 Q1433.09 1875.66 1435.13 1877.51 Q1437.2 1879.32 1440.73 1879.32 Q1445.6 1879.32 1448.53 1875.88 Q1451.49 1872.42 1451.49 1866.69 L1451.49 1865.38 L1445.66 1865.38 M1457.34 1862.96 L1457.34 1883.3 L1451.49 1883.3 L1451.49 1877.89 Q1449.48 1881.14 1446.49 1882.7 Q1443.5 1884.22 1439.17 1884.22 Q1433.69 1884.22 1430.45 1881.17 Q1427.23 1878.08 1427.23 1872.92 Q1427.23 1866.91 1431.24 1863.85 Q1435.29 1860.8 1443.27 1860.8 L1451.49 1860.8 L1451.49 1860.23 Q1451.49 1856.18 1448.81 1853.99 Q1446.17 1851.76 1441.36 1851.76 Q1438.31 1851.76 1435.41 1852.49 Q1432.52 1853.22 1429.84 1854.69 L1429.84 1849.28 Q1433.06 1848.03 1436.08 1847.43 Q1439.11 1846.79 1441.97 1846.79 Q1449.7 1846.79 1453.52 1850.8 Q1457.34 1854.81 1457.34 1862.96 Z" fill="#000000" fill-rule="nonzero" fill-opacity="1" /><path clip-path="url(#clip030)" d="M1484.24 1886.61 Q1481.76 1892.98 1479.4 1894.92 Q1477.04 1896.86 1473.1 1896.86 L1468.42 1896.86 L1468.42 1891.96 L1471.86 1891.96 Q1474.28 1891.96 1475.61 1890.81 Q1476.95 1889.67 1478.57 1885.4 L1479.62 1882.73 L1465.2 1847.65 L1471.41 1847.65 L1482.55 1875.53 L1493.69 1847.65 L1499.9 1847.65 L1484.24 1886.61 Z" fill="#000000" fill-rule="nonzero" fill-opacity="1" /><polyline clip-path="url(#clip030)" style="stroke:#000000; stroke-linecap:round; stroke-linejoin:round; stroke-width:4; stroke-opacity:1; fill:none" points="238.664,1734.12 238.664,127.792 "/>
<polyline clip-path="url(#clip030)" style="stroke:#000000; stroke-linecap:round; stroke-linejoin:round; stroke-width:4; stroke-opacity:1; fill:none" points="238.664,1688.65 257.561,1688.65 "/>
<polyline clip-path="url(#clip030)" style="stroke:#000000; stroke-linecap:round; stroke-linejoin:round; stroke-width:4; stroke-opacity:1; fill:none" points="238.664,1327.85 257.561,1327.85 "/>
<polyline clip-path="url(#clip030)" style="stroke:#000000; stroke-linecap:round; stroke-linejoin:round; stroke-width:4; stroke-opacity:1; fill:none" points="238.664,967.036 257.561,967.036 "/>
<polyline clip-path="url(#clip030)" style="stroke:#000000; stroke-linecap:round; stroke-linejoin:round; stroke-width:4; stroke-opacity:1; fill:none" points="238.664,606.226 257.561,606.226 "/>
<polyline clip-path="url(#clip030)" style="stroke:#000000; stroke-linecap:round; stroke-linejoin:round; stroke-width:4; stroke-opacity:1; fill:none" points="238.664,245.416 257.561,245.416 "/>
<path clip-path="url(#clip030)" d="M186.399 1674.45 Q182.788 1674.45 180.959 1678.02 Q179.154 1681.56 179.154 1688.69 Q179.154 1695.8 180.959 1699.36 Q182.788 1702.9 186.399 1702.9 Q190.033 1702.9 191.839 1699.36 Q193.668 1695.8 193.668 1688.69 Q193.668 1681.56 191.839 1678.02 Q190.033 1674.45 186.399 1674.45 M186.399 1670.75 Q192.209 1670.75 195.265 1675.36 Q198.344 1679.94 198.344 1688.69 Q198.344 1697.42 195.265 1702.02 Q192.209 1706.61 186.399 1706.61 Q180.589 1706.61 177.51 1702.02 Q174.455 1697.42 174.455 1688.69 Q174.455 1679.94 177.51 1675.36 Q180.589 1670.75 186.399 1670.75 Z" fill="#000000" fill-rule="nonzero" fill-opacity="1" /><path clip-path="url(#clip030)" d="M151.261 1341.19 L167.58 1341.19 L167.58 1345.13 L145.636 1345.13 L145.636 1341.19 Q148.298 1338.44 152.881 1333.81 Q157.487 1329.15 158.668 1327.81 Q160.913 1325.29 161.793 1323.55 Q162.696 1321.79 162.696 1320.1 Q162.696 1317.35 160.751 1315.61 Q158.83 1313.88 155.728 1313.88 Q153.529 1313.88 151.075 1314.64 Q148.645 1315.4 145.867 1316.95 L145.867 1312.23 Q148.691 1311.1 151.145 1310.52 Q153.599 1309.94 155.636 1309.94 Q161.006 1309.94 164.2 1312.63 Q167.395 1315.31 167.395 1319.8 Q167.395 1321.93 166.585 1323.85 Q165.798 1325.75 163.691 1328.34 Q163.112 1329.01 160.011 1332.23 Q156.909 1335.43 151.261 1341.19 Z" fill="#000000" fill-rule="nonzero" fill-opacity="1" /><path clip-path="url(#clip030)" d="M177.441 1310.57 L195.797 1310.57 L195.797 1314.5 L181.723 1314.5 L181.723 1322.97 Q182.742 1322.63 183.76 1322.46 Q184.779 1322.28 185.797 1322.28 Q191.584 1322.28 194.964 1325.45 Q198.344 1328.62 198.344 1334.04 Q198.344 1339.62 194.871 1342.72 Q191.399 1345.8 185.08 1345.8 Q182.904 1345.8 180.635 1345.43 Q178.39 1345.06 175.983 1344.32 L175.983 1339.62 Q178.066 1340.75 180.288 1341.31 Q182.51 1341.86 184.987 1341.86 Q188.992 1341.86 191.33 1339.75 Q193.668 1337.65 193.668 1334.04 Q193.668 1330.43 191.33 1328.32 Q188.992 1326.21 184.987 1326.21 Q183.112 1326.21 181.237 1326.63 Q179.385 1327.05 177.441 1327.93 L177.441 1310.57 Z" fill="#000000" fill-rule="nonzero" fill-opacity="1" /><path clip-path="url(#clip030)" d="M146.284 949.756 L164.64 949.756 L164.64 953.691 L150.566 953.691 L150.566 962.163 Q151.585 961.816 152.603 961.654 Q153.622 961.468 154.64 961.468 Q160.427 961.468 163.807 964.64 Q167.186 967.811 167.186 973.228 Q167.186 978.806 163.714 981.908 Q160.242 984.987 153.923 984.987 Q151.747 984.987 149.478 984.616 Q147.233 984.246 144.825 983.505 L144.825 978.806 Q146.909 979.941 149.131 980.496 Q151.353 981.052 153.83 981.052 Q157.835 981.052 160.173 978.945 Q162.51 976.839 162.51 973.228 Q162.51 969.617 160.173 967.51 Q157.835 965.404 153.83 965.404 Q151.955 965.404 150.08 965.82 Q148.228 966.237 146.284 967.117 L146.284 949.756 Z" fill="#000000" fill-rule="nonzero" fill-opacity="1" /><path clip-path="url(#clip030)" d="M186.399 952.834 Q182.788 952.834 180.959 956.399 Q179.154 959.941 179.154 967.07 Q179.154 974.177 180.959 977.741 Q182.788 981.283 186.399 981.283 Q190.033 981.283 191.839 977.741 Q193.668 974.177 193.668 967.07 Q193.668 959.941 191.839 956.399 Q190.033 952.834 186.399 952.834 M186.399 949.131 Q192.209 949.131 195.265 953.737 Q198.344 958.32 198.344 967.07 Q198.344 975.797 195.265 980.404 Q192.209 984.987 186.399 984.987 Q180.589 984.987 177.51 980.404 Q174.455 975.797 174.455 967.07 Q174.455 958.32 177.51 953.737 Q180.589 949.131 186.399 949.131 Z" fill="#000000" fill-rule="nonzero" fill-opacity="1" /><path clip-path="url(#clip030)" d="M146.052 588.946 L168.274 588.946 L168.274 590.937 L155.728 623.506 L150.844 623.506 L162.649 592.881 L146.052 592.881 L146.052 588.946 Z" fill="#000000" fill-rule="nonzero" fill-opacity="1" /><path clip-path="url(#clip030)" d="M177.441 588.946 L195.797 588.946 L195.797 592.881 L181.723 592.881 L181.723 601.353 Q182.742 601.006 183.76 600.844 Q184.779 600.659 185.797 600.659 Q191.584 600.659 194.964 603.83 Q198.344 607.001 198.344 612.418 Q198.344 617.997 194.871 621.098 Q191.399 624.177 185.08 624.177 Q182.904 624.177 180.635 623.807 Q178.39 623.436 175.983 622.696 L175.983 617.997 Q178.066 619.131 180.288 619.686 Q182.51 620.242 184.987 620.242 Q188.992 620.242 191.33 618.135 Q193.668 616.029 193.668 612.418 Q193.668 608.807 191.33 606.7 Q188.992 604.594 184.987 604.594 Q183.112 604.594 181.237 605.011 Q179.385 605.427 177.441 606.307 L177.441 588.946 Z" fill="#000000" fill-rule="nonzero" fill-opacity="1" /><path clip-path="url(#clip030)" d="M116.886 258.761 L124.525 258.761 L124.525 232.395 L116.214 234.062 L116.214 229.803 L124.478 228.136 L129.154 228.136 L129.154 258.761 L136.793 258.761 L136.793 262.696 L116.886 262.696 L116.886 258.761 Z" fill="#000000" fill-rule="nonzero" fill-opacity="1" /><path clip-path="url(#clip030)" d="M156.237 231.215 Q152.626 231.215 150.798 234.78 Q148.992 238.321 148.992 245.451 Q148.992 252.557 150.798 256.122 Q152.626 259.664 156.237 259.664 Q159.872 259.664 161.677 256.122 Q163.506 252.557 163.506 245.451 Q163.506 238.321 161.677 234.78 Q159.872 231.215 156.237 231.215 M156.237 227.511 Q162.048 227.511 165.103 232.118 Q168.182 236.701 168.182 245.451 Q168.182 254.178 165.103 258.784 Q162.048 263.367 156.237 263.367 Q150.427 263.367 147.349 258.784 Q144.293 254.178 144.293 245.451 Q144.293 236.701 147.349 232.118 Q150.427 227.511 156.237 227.511 Z" fill="#000000" fill-rule="nonzero" fill-opacity="1" /><path clip-path="url(#clip030)" d="M186.399 231.215 Q182.788 231.215 180.959 234.78 Q179.154 238.321 179.154 245.451 Q179.154 252.557 180.959 256.122 Q182.788 259.664 186.399 259.664 Q190.033 259.664 191.839 256.122 Q193.668 252.557 193.668 245.451 Q193.668 238.321 191.839 234.78 Q190.033 231.215 186.399 231.215 M186.399 227.511 Q192.209 227.511 195.265 232.118 Q198.344 236.701 198.344 245.451 Q198.344 254.178 195.265 258.784 Q192.209 263.367 186.399 263.367 Q180.589 263.367 177.51 258.784 Q174.455 254.178 174.455 245.451 Q174.455 236.701 177.51 232.118 Q180.589 227.511 186.399 227.511 Z" fill="#000000" fill-rule="nonzero" fill-opacity="1" /><path clip-path="url(#clip030)" d="M18.479 1164.58 Q18.479 1171.58 23.6988 1175.72 Q28.9187 1179.82 37.9262 1179.82 Q46.9018 1179.82 52.1217 1175.72 Q57.3416 1171.58 57.3416 1164.58 Q57.3416 1157.57 52.1217 1153.5 Q46.9018 1149.39 37.9262 1149.39 Q28.9187 1149.39 23.6988 1153.5 Q18.479 1157.57 18.479 1164.58 M13.2591 1164.58 Q13.2591 1154.58 19.9749 1148.6 Q26.6589 1142.61 37.9262 1142.61 Q49.1617 1142.61 55.8775 1148.6 Q62.5615 1154.58 62.5615 1164.58 Q62.5615 1174.6 55.8775 1180.62 Q49.1935 1186.6 37.9262 1186.6 Q26.6589 1186.6 19.9749 1180.62 Q13.2591 1174.6 13.2591 1164.58 Z" fill="#000000" fill-rule="nonzero" fill-opacity="1" /><path clip-path="url(#clip030)" d="M43.8463 1107.22 Q37.3851 1107.22 33.7248 1109.89 Q30.0327 1112.54 30.0327 1117.18 Q30.0327 1121.83 33.7248 1124.5 Q37.3851 1127.15 43.8463 1127.15 Q50.3075 1127.15 53.9996 1124.5 Q57.6599 1121.83 57.6599 1117.18 Q57.6599 1112.54 53.9996 1109.89 Q50.3075 1107.22 43.8463 1107.22 M31.4013 1127.15 Q28.2185 1125.3 26.6907 1122.5 Q25.1311 1119.67 25.1311 1115.75 Q25.1311 1109.26 30.2873 1105.22 Q35.4436 1101.14 43.8463 1101.14 Q52.249 1101.14 57.4052 1105.22 Q62.5615 1109.26 62.5615 1115.75 Q62.5615 1119.67 61.0337 1122.5 Q59.4741 1125.3 56.2912 1127.15 L61.6384 1127.15 L61.6384 1133.03 L12.1132 1133.03 L12.1132 1127.15 L31.4013 1127.15 Z" fill="#000000" fill-rule="nonzero" fill-opacity="1" /><path clip-path="url(#clip030)" d="M27.0408 1068.71 L32.579 1068.71 Q31.3059 1071.19 30.6693 1073.86 Q30.0327 1076.54 30.0327 1079.4 Q30.0327 1083.76 31.3695 1085.96 Q32.7063 1088.12 35.3799 1088.12 Q37.4169 1088.12 38.5946 1086.56 Q39.7404 1085 40.7908 1080.29 L41.2364 1078.29 Q42.5732 1072.05 45.0239 1069.44 Q47.4429 1066.8 51.8034 1066.8 Q56.7687 1066.8 59.6651 1070.75 Q62.5615 1074.66 62.5615 1081.54 Q62.5615 1084.4 61.9886 1087.52 Q61.4475 1090.61 60.3335 1094.04 L54.2861 1094.04 Q55.973 1090.8 56.8323 1087.65 Q57.6599 1084.5 57.6599 1081.41 Q57.6599 1077.27 56.2594 1075.04 Q54.8271 1072.81 52.249 1072.81 Q49.8619 1072.81 48.5887 1074.44 Q47.3156 1076.03 46.1379 1081.47 L45.6605 1083.51 Q44.5147 1088.95 42.1594 1091.37 Q39.7722 1093.79 35.6345 1093.79 Q30.6056 1093.79 27.8684 1090.22 Q25.1311 1086.66 25.1311 1080.1 Q25.1311 1076.86 25.6085 1073.99 Q26.086 1071.13 27.0408 1068.71 Z" fill="#000000" fill-rule="nonzero" fill-opacity="1" /><path clip-path="url(#clip030)" d="M42.3504 1026.98 L45.2149 1026.98 L45.2149 1053.91 Q51.2623 1053.53 54.4452 1050.28 Q57.5962 1047 57.5962 1041.18 Q57.5962 1037.8 56.7687 1034.65 Q55.9411 1031.47 54.2861 1028.35 L59.8242 1028.35 Q61.161 1031.5 61.8612 1034.81 Q62.5615 1038.12 62.5615 1041.53 Q62.5615 1050.06 57.5962 1055.05 Q52.631 1060.02 44.1646 1060.02 Q35.4117 1060.02 30.2873 1055.31 Q25.1311 1050.57 25.1311 1042.55 Q25.1311 1035.35 29.7781 1031.18 Q34.3932 1026.98 42.3504 1026.98 M40.6316 1032.84 Q35.8255 1032.9 32.9609 1035.54 Q30.0964 1038.15 30.0964 1042.48 Q30.0964 1047.38 32.8654 1050.34 Q35.6345 1053.27 40.6634 1053.72 L40.6316 1032.84 Z" fill="#000000" fill-rule="nonzero" fill-opacity="1" /><path clip-path="url(#clip030)" d="M31.465 996.712 Q30.8921 997.699 30.6375 998.877 Q30.351 1000.02 30.351 1001.42 Q30.351 1006.39 33.5975 1009.06 Q36.8122 1011.7 42.8596 1011.7 L61.6384 1011.7 L61.6384 1017.59 L25.9905 1017.59 L25.9905 1011.7 L31.5287 1011.7 Q28.2821 1009.86 26.7225 1006.9 Q25.1311 1003.94 25.1311 999.704 Q25.1311 999.099 25.2266 998.367 Q25.2903 997.635 25.4494 996.744 L31.465 996.712 Z" fill="#000000" fill-rule="nonzero" fill-opacity="1" /><path clip-path="url(#clip030)" d="M25.9905 994.771 L25.9905 988.564 L55.9093 977.424 L25.9905 966.284 L25.9905 960.078 L61.6384 973.446 L61.6384 981.403 L25.9905 994.771 Z" fill="#000000" fill-rule="nonzero" fill-opacity="1" /><path clip-path="url(#clip030)" d="M42.3504 921.501 L45.2149 921.501 L45.2149 948.428 Q51.2623 948.046 54.4452 944.8 Q57.5962 941.522 57.5962 935.697 Q57.5962 932.323 56.7687 929.172 Q55.9411 925.989 54.2861 922.87 L59.8242 922.87 Q61.161 926.021 61.8612 929.331 Q62.5615 932.641 62.5615 936.047 Q62.5615 944.577 57.5962 949.574 Q52.631 954.539 44.1646 954.539 Q35.4117 954.539 30.2873 949.829 Q25.1311 945.086 25.1311 937.066 Q25.1311 929.872 29.7781 925.703 Q34.3932 921.501 42.3504 921.501 M40.6316 927.358 Q35.8255 927.422 32.9609 930.063 Q30.0964 932.673 30.0964 937.002 Q30.0964 941.904 32.8654 944.864 Q35.6345 947.792 40.6634 948.237 L40.6316 927.358 Z" fill="#000000" fill-rule="nonzero" fill-opacity="1" /><path clip-path="url(#clip030)" d="M31.4013 888.432 L12.1132 888.432 L12.1132 882.575 L61.6384 882.575 L61.6384 888.432 L56.2912 888.432 Q59.4741 890.278 61.0337 893.11 Q62.5615 895.911 62.5615 899.858 Q62.5615 906.319 57.4052 910.393 Q52.249 914.436 43.8463 914.436 Q35.4436 914.436 30.2873 910.393 Q25.1311 906.319 25.1311 899.858 Q25.1311 895.911 26.6907 893.11 Q28.2185 890.278 31.4013 888.432 M43.8463 908.388 Q50.3075 908.388 53.9996 905.746 Q57.6599 903.073 57.6599 898.426 Q57.6599 893.779 53.9996 891.105 Q50.3075 888.432 43.8463 888.432 Q37.3851 888.432 33.7248 891.105 Q30.0327 893.779 30.0327 898.426 Q30.0327 903.073 33.7248 905.746 Q37.3851 908.388 43.8463 908.388 Z" fill="#000000" fill-rule="nonzero" fill-opacity="1" /><path clip-path="url(#clip030)" d="M27.3591 824.138 L32.8336 824.138 Q31.465 826.621 30.7966 829.135 Q30.0964 831.618 30.0964 834.164 Q30.0964 839.861 33.7248 843.012 Q37.3214 846.163 43.8463 846.163 Q50.3711 846.163 53.9996 843.012 Q57.5962 839.861 57.5962 834.164 Q57.5962 831.618 56.9278 829.135 Q56.2276 826.621 54.859 824.138 L60.2698 824.138 Q61.4156 826.589 61.9886 829.231 Q62.5615 831.841 62.5615 834.801 Q62.5615 842.853 57.5007 847.596 Q52.44 852.338 43.8463 852.338 Q35.1253 852.338 30.1282 847.564 Q25.1311 842.758 25.1311 834.419 Q25.1311 831.713 25.704 829.135 Q26.2451 826.557 27.3591 824.138 Z" fill="#000000" fill-rule="nonzero" fill-opacity="1" /><path clip-path="url(#clip030)" d="M43.719 797.752 Q43.719 804.85 45.3422 807.587 Q46.9655 810.324 50.8804 810.324 Q53.9996 810.324 55.8457 808.287 Q57.6599 806.219 57.6599 802.686 Q57.6599 797.816 54.2224 794.888 Q50.7531 791.928 45.0239 791.928 L43.719 791.928 L43.719 797.752 M41.3 786.071 L61.6384 786.071 L61.6384 791.928 L56.2276 791.928 Q59.4741 793.933 61.0337 796.925 Q62.5615 799.916 62.5615 804.245 Q62.5615 809.72 59.5059 812.966 Q56.4186 816.181 51.2623 816.181 Q45.2467 816.181 42.1912 812.17 Q39.1357 808.128 39.1357 800.139 L39.1357 791.928 L38.5628 791.928 Q34.5205 791.928 32.3244 794.601 Q30.0964 797.243 30.0964 802.049 Q30.0964 805.105 30.8284 808.001 Q31.5605 810.897 33.0246 813.571 L27.6137 813.571 Q26.3724 810.356 25.7677 807.333 Q25.1311 804.309 25.1311 801.444 Q25.1311 793.71 29.1415 789.89 Q33.1519 786.071 41.3 786.071 Z" fill="#000000" fill-rule="nonzero" fill-opacity="1" /><path clip-path="url(#clip030)" d="M27.0408 751.282 L32.579 751.282 Q31.3059 753.765 30.6693 756.439 Q30.0327 759.112 30.0327 761.977 Q30.0327 766.337 31.3695 768.534 Q32.7063 770.698 35.3799 770.698 Q37.4169 770.698 38.5946 769.138 Q39.7404 767.579 40.7908 762.868 L41.2364 760.863 Q42.5732 754.624 45.0239 752.015 Q47.4429 749.373 51.8034 749.373 Q56.7687 749.373 59.6651 753.32 Q62.5615 757.234 62.5615 764.109 Q62.5615 766.974 61.9886 770.093 Q61.4475 773.181 60.3335 776.618 L54.2861 776.618 Q55.973 773.371 56.8323 770.22 Q57.6599 767.069 57.6599 763.982 Q57.6599 759.844 56.2594 757.616 Q54.8271 755.388 52.249 755.388 Q49.8619 755.388 48.5887 757.012 Q47.3156 758.603 46.1379 764.046 L45.6605 766.083 Q44.5147 771.525 42.1594 773.944 Q39.7722 776.363 35.6345 776.363 Q30.6056 776.363 27.8684 772.799 Q25.1311 769.234 25.1311 762.677 Q25.1311 759.431 25.6085 756.566 Q26.086 753.701 27.0408 751.282 Z" fill="#000000" fill-rule="nonzero" fill-opacity="1" /><path clip-path="url(#clip030)" d="M42.3504 709.555 L45.2149 709.555 L45.2149 736.482 Q51.2623 736.1 54.4452 732.854 Q57.5962 729.575 57.5962 723.751 Q57.5962 720.377 56.7687 717.226 Q55.9411 714.043 54.2861 710.924 L59.8242 710.924 Q61.161 714.075 61.8612 717.385 Q62.5615 720.695 62.5615 724.101 Q62.5615 732.631 57.5962 737.628 Q52.631 742.593 44.1646 742.593 Q35.4117 742.593 30.2873 737.883 Q25.1311 733.14 25.1311 725.119 Q25.1311 717.926 29.7781 713.757 Q34.3932 709.555 42.3504 709.555 M40.6316 715.412 Q35.8255 715.475 32.9609 718.117 Q30.0964 720.727 30.0964 725.056 Q30.0964 729.957 32.8654 732.917 Q35.6345 735.846 40.6634 736.291 L40.6316 715.412 Z" fill="#000000" fill-rule="nonzero" fill-opacity="1" /><path clip-path="url(#clip030)" d="M27.0408 677.217 L32.579 677.217 Q31.3059 679.7 30.6693 682.374 Q30.0327 685.047 30.0327 687.912 Q30.0327 692.272 31.3695 694.469 Q32.7063 696.633 35.3799 696.633 Q37.4169 696.633 38.5946 695.073 Q39.7404 693.514 40.7908 688.803 L41.2364 686.798 Q42.5732 680.559 45.0239 677.95 Q47.4429 675.308 51.8034 675.308 Q56.7687 675.308 59.6651 679.255 Q62.5615 683.169 62.5615 690.044 Q62.5615 692.909 61.9886 696.028 Q61.4475 699.116 60.3335 702.553 L54.2861 702.553 Q55.973 699.306 56.8323 696.155 Q57.6599 693.004 57.6599 689.917 Q57.6599 685.779 56.2594 683.551 Q54.8271 681.323 52.249 681.323 Q49.8619 681.323 48.5887 682.947 Q47.3156 684.538 46.1379 689.981 L45.6605 692.018 Q44.5147 697.46 42.1594 699.879 Q39.7722 702.298 35.6345 702.298 Q30.6056 702.298 27.8684 698.734 Q25.1311 695.169 25.1311 688.612 Q25.1311 685.366 25.6085 682.501 Q26.086 679.636 27.0408 677.217 Z" fill="#000000" fill-rule="nonzero" fill-opacity="1" /><path clip-path="url(#clip030)" d="M979.527 14.0809 L979.527 22.0612 Q974.869 19.8332 970.737 18.7395 Q966.605 17.6457 962.756 17.6457 Q956.072 17.6457 952.427 20.2383 Q948.821 22.8309 948.821 27.611 Q948.821 31.6214 951.211 33.6873 Q953.642 35.7128 960.366 36.9686 L965.308 37.9813 Q974.463 39.7232 978.798 44.1387 Q983.173 48.5136 983.173 55.8863 Q983.173 64.6767 977.259 69.2137 Q971.385 73.7508 960.002 73.7508 Q955.708 73.7508 950.847 72.7785 Q946.026 71.8063 940.841 69.9024 L940.841 61.4765 Q945.824 64.2716 950.604 65.6895 Q955.384 67.1073 960.002 67.1073 Q967.01 67.1073 970.818 64.3527 Q974.625 61.598 974.625 56.4939 Q974.625 52.0379 971.871 49.5264 Q969.157 47.0148 962.918 45.759 L957.936 44.7868 Q948.781 42.9639 944.689 39.075 Q940.598 35.1862 940.598 28.2591 Q940.598 20.2383 946.229 15.6203 Q951.9 11.0023 961.825 11.0023 Q966.078 11.0023 970.494 11.7719 Q974.909 12.5416 979.527 14.0809 Z" fill="#000000" fill-rule="nonzero" fill-opacity="1" /><path clip-path="url(#clip030)" d="M1014.49 76.7889 Q1011.33 84.8907 1008.33 87.3618 Q1005.33 89.8329 1000.31 89.8329 L994.353 89.8329 L994.353 83.5945 L998.728 83.5945 Q1001.81 83.5945 1003.51 82.1361 Q1005.21 80.6778 1007.28 75.2496 L1008.61 71.8468 L990.262 27.2059 L998.161 27.2059 L1012.34 62.6918 L1026.52 27.2059 L1034.42 27.2059 L1014.49 76.7889 Z" fill="#000000" fill-rule="nonzero" fill-opacity="1" /><path clip-path="url(#clip030)" d="M1082.42 45.1919 L1082.42 72.576 L1074.97 72.576 L1074.97 45.4349 Q1074.97 38.994 1072.45 35.7938 Q1069.94 32.5936 1064.92 32.5936 Q1058.88 32.5936 1055.4 36.4419 Q1051.92 40.2903 1051.92 46.9338 L1051.92 72.576 L1044.42 72.576 L1044.42 27.2059 L1051.92 27.2059 L1051.92 34.2544 Q1054.59 30.163 1058.2 28.1376 Q1061.84 26.1121 1066.58 26.1121 Q1074.4 26.1121 1078.41 30.9732 Q1082.42 35.7938 1082.42 45.1919 Z" fill="#000000" fill-rule="nonzero" fill-opacity="1" /><path clip-path="url(#clip030)" d="M1104.66 14.324 L1104.66 27.2059 L1120.01 27.2059 L1120.01 32.9987 L1104.66 32.9987 L1104.66 57.6282 Q1104.66 63.1779 1106.16 64.7578 Q1107.7 66.3376 1112.36 66.3376 L1120.01 66.3376 L1120.01 72.576 L1112.36 72.576 Q1103.73 72.576 1100.45 69.3758 Q1097.17 66.1351 1097.17 57.6282 L1097.17 32.9987 L1091.7 32.9987 L1091.7 27.2059 L1097.17 27.2059 L1097.17 14.324 L1104.66 14.324 Z" fill="#000000" fill-rule="nonzero" fill-opacity="1" /><path clip-path="url(#clip030)" d="M1167.53 45.1919 L1167.53 72.576 L1160.08 72.576 L1160.08 45.4349 Q1160.08 38.994 1157.56 35.7938 Q1155.05 32.5936 1150.03 32.5936 Q1143.99 32.5936 1140.51 36.4419 Q1137.03 40.2903 1137.03 46.9338 L1137.03 72.576 L1129.53 72.576 L1129.53 9.54393 L1137.03 9.54393 L1137.03 34.2544 Q1139.7 30.163 1143.31 28.1376 Q1146.95 26.1121 1151.69 26.1121 Q1159.51 26.1121 1163.52 30.9732 Q1167.53 35.7938 1167.53 45.1919 Z" fill="#000000" fill-rule="nonzero" fill-opacity="1" /><path clip-path="url(#clip030)" d="M1221.2 48.0275 L1221.2 51.6733 L1186.93 51.6733 Q1187.42 59.3701 1191.55 63.421 Q1195.72 67.4314 1203.14 67.4314 Q1207.43 67.4314 1211.44 66.3781 Q1215.49 65.3249 1219.46 63.2184 L1219.46 70.267 Q1215.45 71.9684 1211.24 72.8596 Q1207.03 73.7508 1202.69 73.7508 Q1191.83 73.7508 1185.48 67.4314 Q1179.16 61.1119 1179.16 50.3365 Q1179.16 39.1965 1185.15 32.6746 Q1191.19 26.1121 1201.4 26.1121 Q1210.55 26.1121 1215.86 32.0264 Q1221.2 37.9003 1221.2 48.0275 M1213.75 45.84 Q1213.67 39.7232 1210.31 36.0774 Q1206.99 32.4315 1201.48 32.4315 Q1195.24 32.4315 1191.47 35.9558 Q1187.74 39.4801 1187.18 45.8805 L1213.75 45.84 Z" fill="#000000" fill-rule="nonzero" fill-opacity="1" /><path clip-path="url(#clip030)" d="M1240.81 14.324 L1240.81 27.2059 L1256.16 27.2059 L1256.16 32.9987 L1240.81 32.9987 L1240.81 57.6282 Q1240.81 63.1779 1242.31 64.7578 Q1243.85 66.3376 1248.51 66.3376 L1256.16 66.3376 L1256.16 72.576 L1248.51 72.576 Q1239.88 72.576 1236.6 69.3758 Q1233.32 66.1351 1233.32 57.6282 L1233.32 32.9987 L1227.85 32.9987 L1227.85 27.2059 L1233.32 27.2059 L1233.32 14.324 L1240.81 14.324 Z" fill="#000000" fill-rule="nonzero" fill-opacity="1" /><path clip-path="url(#clip030)" d="M1265.97 27.2059 L1273.42 27.2059 L1273.42 72.576 L1265.97 72.576 L1265.97 27.2059 M1265.97 9.54393 L1273.42 9.54393 L1273.42 18.9825 L1265.97 18.9825 L1265.97 9.54393 Z" fill="#000000" fill-rule="nonzero" fill-opacity="1" /><path clip-path="url(#clip030)" d="M1321.67 28.9478 L1321.67 35.9153 Q1318.51 34.1734 1315.31 33.3227 Q1312.15 32.4315 1308.91 32.4315 Q1301.65 32.4315 1297.64 37.0496 Q1293.63 41.6271 1293.63 49.9314 Q1293.63 58.2358 1297.64 62.8538 Q1301.65 67.4314 1308.91 67.4314 Q1312.15 67.4314 1315.31 66.5807 Q1318.51 65.6895 1321.67 63.9476 L1321.67 70.8341 Q1318.55 72.2924 1315.18 73.0216 Q1311.86 73.7508 1308.1 73.7508 Q1297.85 73.7508 1291.81 67.3098 Q1285.78 60.8689 1285.78 49.9314 Q1285.78 38.832 1291.85 32.472 Q1297.97 26.1121 1308.58 26.1121 Q1312.03 26.1121 1315.31 26.8413 Q1318.59 27.5299 1321.67 28.9478 Z" fill="#000000" fill-rule="nonzero" fill-opacity="1" /><path clip-path="url(#clip030)" d="M1399.81 48.0275 L1399.81 51.6733 L1365.54 51.6733 Q1366.02 59.3701 1370.16 63.421 Q1374.33 67.4314 1381.74 67.4314 Q1386.04 67.4314 1390.05 66.3781 Q1394.1 65.3249 1398.07 63.2184 L1398.07 70.267 Q1394.06 71.9684 1389.84 72.8596 Q1385.63 73.7508 1381.3 73.7508 Q1370.44 73.7508 1364.08 67.4314 Q1357.76 61.1119 1357.76 50.3365 Q1357.76 39.1965 1363.76 32.6746 Q1369.79 26.1121 1380 26.1121 Q1389.15 26.1121 1394.46 32.0264 Q1399.81 37.9003 1399.81 48.0275 M1392.35 45.84 Q1392.27 39.7232 1388.91 36.0774 Q1385.59 32.4315 1380.08 32.4315 Q1373.84 32.4315 1370.07 35.9558 Q1366.35 39.4801 1365.78 45.8805 L1392.35 45.84 Z" fill="#000000" fill-rule="nonzero" fill-opacity="1" /><path clip-path="url(#clip030)" d="M1419.25 65.7705 L1419.25 89.8329 L1411.76 89.8329 L1411.76 27.2059 L1419.25 27.2059 L1419.25 34.0924 Q1421.6 30.0415 1425.17 28.0971 Q1428.77 26.1121 1433.75 26.1121 Q1442.02 26.1121 1447.16 32.6746 Q1452.35 39.2371 1452.35 49.9314 Q1452.35 60.6258 1447.16 67.1883 Q1442.02 73.7508 1433.75 73.7508 Q1428.77 73.7508 1425.17 71.8063 Q1421.6 69.8214 1419.25 65.7705 M1444.61 49.9314 Q1444.61 41.7081 1441.21 37.0496 Q1437.85 32.3505 1431.93 32.3505 Q1426.02 32.3505 1422.61 37.0496 Q1419.25 41.7081 1419.25 49.9314 Q1419.25 58.1548 1422.61 62.8538 Q1426.02 67.5124 1431.93 67.5124 Q1437.85 67.5124 1441.21 62.8538 Q1444.61 58.1548 1444.61 49.9314 Z" fill="#000000" fill-rule="nonzero" fill-opacity="1" /><path clip-path="url(#clip030)" d="M1464.7 27.2059 L1472.16 27.2059 L1472.16 72.576 L1464.7 72.576 L1464.7 27.2059 M1464.7 9.54393 L1472.16 9.54393 L1472.16 18.9825 L1464.7 18.9825 L1464.7 9.54393 Z" fill="#000000" fill-rule="nonzero" fill-opacity="1" /><path clip-path="url(#clip030)" d="M1517.61 34.0924 L1517.61 9.54393 L1525.06 9.54393 L1525.06 72.576 L1517.61 72.576 L1517.61 65.7705 Q1515.26 69.8214 1511.65 71.8063 Q1508.09 73.7508 1503.07 73.7508 Q1494.84 73.7508 1489.66 67.1883 Q1484.51 60.6258 1484.51 49.9314 Q1484.51 39.2371 1489.66 32.6746 Q1494.84 26.1121 1503.07 26.1121 Q1508.09 26.1121 1511.65 28.0971 Q1515.26 30.0415 1517.61 34.0924 M1492.21 49.9314 Q1492.21 58.1548 1495.57 62.8538 Q1498.97 67.5124 1504.89 67.5124 Q1510.8 67.5124 1514.21 62.8538 Q1517.61 58.1548 1517.61 49.9314 Q1517.61 41.7081 1514.21 37.0496 Q1510.8 32.3505 1504.89 32.3505 Q1498.97 32.3505 1495.57 37.0496 Q1492.21 41.7081 1492.21 49.9314 Z" fill="#000000" fill-rule="nonzero" fill-opacity="1" /><path clip-path="url(#clip030)" d="M1579.22 48.0275 L1579.22 51.6733 L1544.95 51.6733 Q1545.44 59.3701 1549.57 63.421 Q1553.74 67.4314 1561.16 67.4314 Q1565.45 67.4314 1569.46 66.3781 Q1573.51 65.3249 1577.48 63.2184 L1577.48 70.267 Q1573.47 71.9684 1569.26 72.8596 Q1565.04 73.7508 1560.71 73.7508 Q1549.85 73.7508 1543.49 67.4314 Q1537.17 61.1119 1537.17 50.3365 Q1537.17 39.1965 1543.17 32.6746 Q1549.21 26.1121 1559.41 26.1121 Q1568.57 26.1121 1573.88 32.0264 Q1579.22 37.9003 1579.22 48.0275 M1571.77 45.84 Q1571.69 39.7232 1568.33 36.0774 Q1565 32.4315 1559.5 32.4315 Q1553.26 32.4315 1549.49 35.9558 Q1545.76 39.4801 1545.2 45.8805 L1571.77 45.84 Z" fill="#000000" fill-rule="nonzero" fill-opacity="1" /><path clip-path="url(#clip030)" d="M1626.78 35.9153 Q1629.58 30.8922 1633.46 28.5022 Q1637.35 26.1121 1642.62 26.1121 Q1649.71 26.1121 1653.56 31.0947 Q1657.41 36.0368 1657.41 45.1919 L1657.41 72.576 L1649.91 72.576 L1649.91 45.4349 Q1649.91 38.913 1647.6 35.7533 Q1645.29 32.5936 1640.55 32.5936 Q1634.76 32.5936 1631.4 36.4419 Q1628.04 40.2903 1628.04 46.9338 L1628.04 72.576 L1620.54 72.576 L1620.54 45.4349 Q1620.54 38.8725 1618.23 35.7533 Q1615.92 32.5936 1611.1 32.5936 Q1605.39 32.5936 1602.03 36.4824 Q1598.67 40.3308 1598.67 46.9338 L1598.67 72.576 L1591.17 72.576 L1591.17 27.2059 L1598.67 27.2059 L1598.67 34.2544 Q1601.22 30.082 1604.78 28.0971 Q1608.35 26.1121 1613.25 26.1121 Q1618.19 26.1121 1621.64 28.6237 Q1625.12 31.1352 1626.78 35.9153 Z" fill="#000000" fill-rule="nonzero" fill-opacity="1" /><path clip-path="url(#clip030)" d="M1672.27 27.2059 L1679.73 27.2059 L1679.73 72.576 L1672.27 72.576 L1672.27 27.2059 M1672.27 9.54393 L1679.73 9.54393 L1679.73 18.9825 L1672.27 18.9825 L1672.27 9.54393 Z" fill="#000000" fill-rule="nonzero" fill-opacity="1" /><path clip-path="url(#clip030)" d="M1727.97 28.9478 L1727.97 35.9153 Q1724.81 34.1734 1721.61 33.3227 Q1718.45 32.4315 1715.21 32.4315 Q1707.96 32.4315 1703.95 37.0496 Q1699.94 41.6271 1699.94 49.9314 Q1699.94 58.2358 1703.95 62.8538 Q1707.96 67.4314 1715.21 67.4314 Q1718.45 67.4314 1721.61 66.5807 Q1724.81 65.6895 1727.97 63.9476 L1727.97 70.8341 Q1724.85 72.2924 1721.49 73.0216 Q1718.17 73.7508 1714.4 73.7508 Q1704.15 73.7508 1698.12 67.3098 Q1692.08 60.8689 1692.08 49.9314 Q1692.08 38.832 1698.16 32.472 Q1704.27 26.1121 1714.89 26.1121 Q1718.33 26.1121 1721.61 26.8413 Q1724.89 27.5299 1727.97 28.9478 Z" fill="#000000" fill-rule="nonzero" fill-opacity="1" /><path clip-path="url(#clip030)" d="M1797.16 34.0924 L1797.16 9.54393 L1804.62 9.54393 L1804.62 72.576 L1797.16 72.576 L1797.16 65.7705 Q1794.81 69.8214 1791.21 71.8063 Q1787.64 73.7508 1782.62 73.7508 Q1774.4 73.7508 1769.21 67.1883 Q1764.07 60.6258 1764.07 49.9314 Q1764.07 39.2371 1769.21 32.6746 Q1774.4 26.1121 1782.62 26.1121 Q1787.64 26.1121 1791.21 28.0971 Q1794.81 30.0415 1797.16 34.0924 M1771.76 49.9314 Q1771.76 58.1548 1775.12 62.8538 Q1778.53 67.5124 1784.44 67.5124 Q1790.36 67.5124 1793.76 62.8538 Q1797.16 58.1548 1797.16 49.9314 Q1797.16 41.7081 1793.76 37.0496 Q1790.36 32.3505 1784.44 32.3505 Q1778.53 32.3505 1775.12 37.0496 Q1771.76 41.7081 1771.76 49.9314 Z" fill="#000000" fill-rule="nonzero" fill-opacity="1" /><path clip-path="url(#clip030)" d="M1840.59 49.7694 Q1831.55 49.7694 1828.07 51.8354 Q1824.59 53.9013 1824.59 58.8839 Q1824.59 62.8538 1827.18 65.2034 Q1829.81 67.5124 1834.31 67.5124 Q1840.51 67.5124 1844.23 63.1374 Q1848 58.7219 1848 51.4303 L1848 49.7694 L1840.59 49.7694 M1855.45 46.6907 L1855.45 72.576 L1848 72.576 L1848 65.6895 Q1845.45 69.8214 1841.64 71.8063 Q1837.83 73.7508 1832.32 73.7508 Q1825.36 73.7508 1821.22 69.8619 Q1817.13 65.9325 1817.13 59.3701 Q1817.13 51.7138 1822.24 47.825 Q1827.38 43.9361 1837.55 43.9361 L1848 43.9361 L1848 43.2069 Q1848 38.0623 1844.6 35.2672 Q1841.24 32.4315 1835.12 32.4315 Q1831.23 32.4315 1827.54 33.3632 Q1823.86 34.295 1820.45 36.1584 L1820.45 29.2718 Q1824.55 27.692 1828.39 26.9223 Q1832.24 26.1121 1835.89 26.1121 Q1845.73 26.1121 1850.59 31.2163 Q1855.45 36.3204 1855.45 46.6907 Z" fill="#000000" fill-rule="nonzero" fill-opacity="1" /><path clip-path="url(#clip030)" d="M1878.18 14.324 L1878.18 27.2059 L1893.53 27.2059 L1893.53 32.9987 L1878.18 32.9987 L1878.18 57.6282 Q1878.18 63.1779 1879.68 64.7578 Q1881.22 66.3376 1885.88 66.3376 L1893.53 66.3376 L1893.53 72.576 L1885.88 72.576 Q1877.25 72.576 1873.97 69.3758 Q1870.69 66.1351 1870.69 57.6282 L1870.69 32.9987 L1865.22 32.9987 L1865.22 27.2059 L1870.69 27.2059 L1870.69 14.324 L1878.18 14.324 Z" fill="#000000" fill-rule="nonzero" fill-opacity="1" /><path clip-path="url(#clip030)" d="M1923.95 49.7694 Q1914.92 49.7694 1911.44 51.8354 Q1907.95 53.9013 1907.95 58.8839 Q1907.95 62.8538 1910.55 65.2034 Q1913.18 67.5124 1917.68 67.5124 Q1923.87 67.5124 1927.6 63.1374 Q1931.37 58.7219 1931.37 51.4303 L1931.37 49.7694 L1923.95 49.7694 M1938.82 46.6907 L1938.82 72.576 L1931.37 72.576 L1931.37 65.6895 Q1928.82 69.8214 1925.01 71.8063 Q1921.2 73.7508 1915.69 73.7508 Q1908.72 73.7508 1904.59 69.8619 Q1900.5 65.9325 1900.5 59.3701 Q1900.5 51.7138 1905.6 47.825 Q1910.75 43.9361 1920.92 43.9361 L1931.37 43.9361 L1931.37 43.2069 Q1931.37 38.0623 1927.97 35.2672 Q1924.6 32.4315 1918.49 32.4315 Q1914.6 32.4315 1910.91 33.3632 Q1907.22 34.295 1903.82 36.1584 L1903.82 29.2718 Q1907.91 27.692 1911.76 26.9223 Q1915.61 26.1121 1919.26 26.1121 Q1929.1 26.1121 1933.96 31.2163 Q1938.82 36.3204 1938.82 46.6907 Z" fill="#000000" fill-rule="nonzero" fill-opacity="1" /><circle clip-path="url(#clip031)" cx="306.647" cy="1587.63" r="10.8" fill="#009af9" fill-rule="evenodd" fill-opacity="0.7" stroke="#000000" stroke-opacity="0.7" stroke-width="3.84"/>
<circle clip-path="url(#clip031)" cx="329.538" cy="1587.63" r="10.8" fill="#009af9" fill-rule="evenodd" fill-opacity="0.7" stroke="#000000" stroke-opacity="0.7" stroke-width="3.84"/>
<circle clip-path="url(#clip031)" cx="352.428" cy="1515.47" r="10.8" fill="#009af9" fill-rule="evenodd" fill-opacity="0.7" stroke="#000000" stroke-opacity="0.7" stroke-width="3.84"/>
<circle clip-path="url(#clip031)" cx="375.318" cy="1515.47" r="10.8" fill="#009af9" fill-rule="evenodd" fill-opacity="0.7" stroke="#000000" stroke-opacity="0.7" stroke-width="3.84"/>
<circle clip-path="url(#clip031)" cx="398.208" cy="1400.01" r="10.8" fill="#009af9" fill-rule="evenodd" fill-opacity="0.7" stroke="#000000" stroke-opacity="0.7" stroke-width="3.84"/>
<circle clip-path="url(#clip031)" cx="421.098" cy="1226.82" r="10.8" fill="#009af9" fill-rule="evenodd" fill-opacity="0.7" stroke="#000000" stroke-opacity="0.7" stroke-width="3.84"/>
<circle clip-path="url(#clip031)" cx="443.988" cy="1212.39" r="10.8" fill="#009af9" fill-rule="evenodd" fill-opacity="0.7" stroke="#000000" stroke-opacity="0.7" stroke-width="3.84"/>
<circle clip-path="url(#clip031)" cx="466.878" cy="1010.33" r="10.8" fill="#009af9" fill-rule="evenodd" fill-opacity="0.7" stroke="#000000" stroke-opacity="0.7" stroke-width="3.84"/>
<circle clip-path="url(#clip031)" cx="489.769" cy="779.414" r="10.8" fill="#009af9" fill-rule="evenodd" fill-opacity="0.7" stroke="#000000" stroke-opacity="0.7" stroke-width="3.84"/>
<circle clip-path="url(#clip031)" cx="512.659" cy="635.091" r="10.8" fill="#009af9" fill-rule="evenodd" fill-opacity="0.7" stroke="#000000" stroke-opacity="0.7" stroke-width="3.84"/>
<circle clip-path="url(#clip031)" cx="535.549" cy="173.254" r="10.8" fill="#009af9" fill-rule="evenodd" fill-opacity="0.7" stroke="#000000" stroke-opacity="0.7" stroke-width="3.84"/>
<circle clip-path="url(#clip031)" cx="558.439" cy="606.226" r="10.8" fill="#009af9" fill-rule="evenodd" fill-opacity="0.7" stroke="#000000" stroke-opacity="0.7" stroke-width="3.84"/>
<circle clip-path="url(#clip031)" cx="581.329" cy="620.658" r="10.8" fill="#009af9" fill-rule="evenodd" fill-opacity="0.7" stroke="#000000" stroke-opacity="0.7" stroke-width="3.84"/>
<circle clip-path="url(#clip031)" cx="604.219" cy="707.253" r="10.8" fill="#009af9" fill-rule="evenodd" fill-opacity="0.7" stroke="#000000" stroke-opacity="0.7" stroke-width="3.84"/>
<circle clip-path="url(#clip031)" cx="627.109" cy="519.631" r="10.8" fill="#009af9" fill-rule="evenodd" fill-opacity="0.7" stroke="#000000" stroke-opacity="0.7" stroke-width="3.84"/>
<circle clip-path="url(#clip031)" cx="650" cy="764.982" r="10.8" fill="#009af9" fill-rule="evenodd" fill-opacity="0.7" stroke="#000000" stroke-opacity="0.7" stroke-width="3.84"/>
<circle clip-path="url(#clip031)" cx="672.89" cy="938.171" r="10.8" fill="#009af9" fill-rule="evenodd" fill-opacity="0.7" stroke="#000000" stroke-opacity="0.7" stroke-width="3.84"/>
<circle clip-path="url(#clip031)" cx="695.78" cy="1241.25" r="10.8" fill="#009af9" fill-rule="evenodd" fill-opacity="0.7" stroke="#000000" stroke-opacity="0.7" stroke-width="3.84"/>
<circle clip-path="url(#clip031)" cx="718.67" cy="1255.68" r="10.8" fill="#009af9" fill-rule="evenodd" fill-opacity="0.7" stroke="#000000" stroke-opacity="0.7" stroke-width="3.84"/>
<circle clip-path="url(#clip031)" cx="741.56" cy="1327.85" r="10.8" fill="#009af9" fill-rule="evenodd" fill-opacity="0.7" stroke="#000000" stroke-opacity="0.7" stroke-width="3.84"/>
<circle clip-path="url(#clip031)" cx="764.45" cy="1385.57" r="10.8" fill="#009af9" fill-rule="evenodd" fill-opacity="0.7" stroke="#000000" stroke-opacity="0.7" stroke-width="3.84"/>
<circle clip-path="url(#clip031)" cx="787.341" cy="1515.47" r="10.8" fill="#009af9" fill-rule="evenodd" fill-opacity="0.7" stroke="#000000" stroke-opacity="0.7" stroke-width="3.84"/>
<circle clip-path="url(#clip031)" cx="810.231" cy="1501.03" r="10.8" fill="#009af9" fill-rule="evenodd" fill-opacity="0.7" stroke="#000000" stroke-opacity="0.7" stroke-width="3.84"/>
<circle clip-path="url(#clip031)" cx="833.121" cy="1630.93" r="10.8" fill="#009af9" fill-rule="evenodd" fill-opacity="0.7" stroke="#000000" stroke-opacity="0.7" stroke-width="3.84"/>
<circle clip-path="url(#clip031)" cx="856.011" cy="1602.06" r="10.8" fill="#009af9" fill-rule="evenodd" fill-opacity="0.7" stroke="#000000" stroke-opacity="0.7" stroke-width="3.84"/>
<circle clip-path="url(#clip031)" cx="878.901" cy="1659.79" r="10.8" fill="#009af9" fill-rule="evenodd" fill-opacity="0.7" stroke="#000000" stroke-opacity="0.7" stroke-width="3.84"/>
<circle clip-path="url(#clip031)" cx="901.791" cy="1659.79" r="10.8" fill="#009af9" fill-rule="evenodd" fill-opacity="0.7" stroke="#000000" stroke-opacity="0.7" stroke-width="3.84"/>
<circle clip-path="url(#clip031)" cx="924.681" cy="1659.79" r="10.8" fill="#009af9" fill-rule="evenodd" fill-opacity="0.7" stroke="#000000" stroke-opacity="0.7" stroke-width="3.84"/>
<circle clip-path="url(#clip031)" cx="947.572" cy="1674.22" r="10.8" fill="#009af9" fill-rule="evenodd" fill-opacity="0.7" stroke="#000000" stroke-opacity="0.7" stroke-width="3.84"/>
<circle clip-path="url(#clip031)" cx="970.462" cy="1674.22" r="10.8" fill="#009af9" fill-rule="evenodd" fill-opacity="0.7" stroke="#000000" stroke-opacity="0.7" stroke-width="3.84"/>
<circle clip-path="url(#clip031)" cx="993.352" cy="1674.22" r="10.8" fill="#009af9" fill-rule="evenodd" fill-opacity="0.7" stroke="#000000" stroke-opacity="0.7" stroke-width="3.84"/>
<circle clip-path="url(#clip031)" cx="1016.24" cy="1659.79" r="10.8" fill="#009af9" fill-rule="evenodd" fill-opacity="0.7" stroke="#000000" stroke-opacity="0.7" stroke-width="3.84"/>
<circle clip-path="url(#clip031)" cx="1039.13" cy="1674.22" r="10.8" fill="#009af9" fill-rule="evenodd" fill-opacity="0.7" stroke="#000000" stroke-opacity="0.7" stroke-width="3.84"/>
<circle clip-path="url(#clip031)" cx="1062.02" cy="1674.22" r="10.8" fill="#009af9" fill-rule="evenodd" fill-opacity="0.7" stroke="#000000" stroke-opacity="0.7" stroke-width="3.84"/>
<circle clip-path="url(#clip031)" cx="1084.91" cy="1688.65" r="10.8" fill="#009af9" fill-rule="evenodd" fill-opacity="0.7" stroke="#000000" stroke-opacity="0.7" stroke-width="3.84"/>
<circle clip-path="url(#clip031)" cx="1107.8" cy="1674.22" r="10.8" fill="#009af9" fill-rule="evenodd" fill-opacity="0.7" stroke="#000000" stroke-opacity="0.7" stroke-width="3.84"/>
<circle clip-path="url(#clip031)" cx="1130.69" cy="1674.22" r="10.8" fill="#009af9" fill-rule="evenodd" fill-opacity="0.7" stroke="#000000" stroke-opacity="0.7" stroke-width="3.84"/>
<circle clip-path="url(#clip031)" cx="1153.58" cy="1688.65" r="10.8" fill="#009af9" fill-rule="evenodd" fill-opacity="0.7" stroke="#000000" stroke-opacity="0.7" stroke-width="3.84"/>
<circle clip-path="url(#clip031)" cx="1176.47" cy="1688.65" r="10.8" fill="#009af9" fill-rule="evenodd" fill-opacity="0.7" stroke="#000000" stroke-opacity="0.7" stroke-width="3.84"/>
<circle clip-path="url(#clip031)" cx="1199.36" cy="1688.65" r="10.8" fill="#009af9" fill-rule="evenodd" fill-opacity="0.7" stroke="#000000" stroke-opacity="0.7" stroke-width="3.84"/>
<circle clip-path="url(#clip031)" cx="1222.25" cy="1688.65" r="10.8" fill="#009af9" fill-rule="evenodd" fill-opacity="0.7" stroke="#000000" stroke-opacity="0.7" stroke-width="3.84"/>
<circle clip-path="url(#clip031)" cx="1245.14" cy="1688.65" r="10.8" fill="#009af9" fill-rule="evenodd" fill-opacity="0.7" stroke="#000000" stroke-opacity="0.7" stroke-width="3.84"/>
<circle clip-path="url(#clip031)" cx="1268.03" cy="1674.22" r="10.8" fill="#009af9" fill-rule="evenodd" fill-opacity="0.7" stroke="#000000" stroke-opacity="0.7" stroke-width="3.84"/>
<circle clip-path="url(#clip031)" cx="1290.92" cy="1688.65" r="10.8" fill="#009af9" fill-rule="evenodd" fill-opacity="0.7" stroke="#000000" stroke-opacity="0.7" stroke-width="3.84"/>
<circle clip-path="url(#clip031)" cx="1313.81" cy="1688.65" r="10.8" fill="#009af9" fill-rule="evenodd" fill-opacity="0.7" stroke="#000000" stroke-opacity="0.7" stroke-width="3.84"/>
<circle clip-path="url(#clip031)" cx="1336.7" cy="1688.65" r="10.8" fill="#009af9" fill-rule="evenodd" fill-opacity="0.7" stroke="#000000" stroke-opacity="0.7" stroke-width="3.84"/>
<circle clip-path="url(#clip031)" cx="1359.59" cy="1688.65" r="10.8" fill="#009af9" fill-rule="evenodd" fill-opacity="0.7" stroke="#000000" stroke-opacity="0.7" stroke-width="3.84"/>
<circle clip-path="url(#clip031)" cx="1382.48" cy="1674.22" r="10.8" fill="#009af9" fill-rule="evenodd" fill-opacity="0.7" stroke="#000000" stroke-opacity="0.7" stroke-width="3.84"/>
<circle clip-path="url(#clip031)" cx="1405.37" cy="1688.65" r="10.8" fill="#009af9" fill-rule="evenodd" fill-opacity="0.7" stroke="#000000" stroke-opacity="0.7" stroke-width="3.84"/>
<circle clip-path="url(#clip031)" cx="1428.26" cy="1688.65" r="10.8" fill="#009af9" fill-rule="evenodd" fill-opacity="0.7" stroke="#000000" stroke-opacity="0.7" stroke-width="3.84"/>
<circle clip-path="url(#clip031)" cx="1451.15" cy="1688.65" r="10.8" fill="#009af9" fill-rule="evenodd" fill-opacity="0.7" stroke="#000000" stroke-opacity="0.7" stroke-width="3.84"/>
<circle clip-path="url(#clip031)" cx="1474.04" cy="1688.65" r="10.8" fill="#009af9" fill-rule="evenodd" fill-opacity="0.7" stroke="#000000" stroke-opacity="0.7" stroke-width="3.84"/>
<circle clip-path="url(#clip031)" cx="1496.94" cy="1688.65" r="10.8" fill="#009af9" fill-rule="evenodd" fill-opacity="0.7" stroke="#000000" stroke-opacity="0.7" stroke-width="3.84"/>
<circle clip-path="url(#clip031)" cx="1519.83" cy="1688.65" r="10.8" fill="#009af9" fill-rule="evenodd" fill-opacity="0.7" stroke="#000000" stroke-opacity="0.7" stroke-width="3.84"/>
<circle clip-path="url(#clip031)" cx="1542.72" cy="1688.65" r="10.8" fill="#009af9" fill-rule="evenodd" fill-opacity="0.7" stroke="#000000" stroke-opacity="0.7" stroke-width="3.84"/>
<circle clip-path="url(#clip031)" cx="1565.61" cy="1688.65" r="10.8" fill="#009af9" fill-rule="evenodd" fill-opacity="0.7" stroke="#000000" stroke-opacity="0.7" stroke-width="3.84"/>
<circle clip-path="url(#clip031)" cx="1588.5" cy="1688.65" r="10.8" fill="#009af9" fill-rule="evenodd" fill-opacity="0.7" stroke="#000000" stroke-opacity="0.7" stroke-width="3.84"/>
<circle clip-path="url(#clip031)" cx="1611.39" cy="1688.65" r="10.8" fill="#009af9" fill-rule="evenodd" fill-opacity="0.7" stroke="#000000" stroke-opacity="0.7" stroke-width="3.84"/>
<circle clip-path="url(#clip031)" cx="1634.28" cy="1688.65" r="10.8" fill="#009af9" fill-rule="evenodd" fill-opacity="0.7" stroke="#000000" stroke-opacity="0.7" stroke-width="3.84"/>
<circle clip-path="url(#clip031)" cx="1657.17" cy="1688.65" r="10.8" fill="#009af9" fill-rule="evenodd" fill-opacity="0.7" stroke="#000000" stroke-opacity="0.7" stroke-width="3.84"/>
<circle clip-path="url(#clip031)" cx="1680.06" cy="1688.65" r="10.8" fill="#009af9" fill-rule="evenodd" fill-opacity="0.7" stroke="#000000" stroke-opacity="0.7" stroke-width="3.84"/>
<circle clip-path="url(#clip031)" cx="1702.95" cy="1688.65" r="10.8" fill="#009af9" fill-rule="evenodd" fill-opacity="0.7" stroke="#000000" stroke-opacity="0.7" stroke-width="3.84"/>
<circle clip-path="url(#clip031)" cx="1725.84" cy="1688.65" r="10.8" fill="#009af9" fill-rule="evenodd" fill-opacity="0.7" stroke="#000000" stroke-opacity="0.7" stroke-width="3.84"/>
<circle clip-path="url(#clip031)" cx="1748.73" cy="1688.65" r="10.8" fill="#009af9" fill-rule="evenodd" fill-opacity="0.7" stroke="#000000" stroke-opacity="0.7" stroke-width="3.84"/>
<circle clip-path="url(#clip031)" cx="1771.62" cy="1688.65" r="10.8" fill="#009af9" fill-rule="evenodd" fill-opacity="0.7" stroke="#000000" stroke-opacity="0.7" stroke-width="3.84"/>
<circle clip-path="url(#clip031)" cx="1794.51" cy="1688.65" r="10.8" fill="#009af9" fill-rule="evenodd" fill-opacity="0.7" stroke="#000000" stroke-opacity="0.7" stroke-width="3.84"/>
<circle clip-path="url(#clip031)" cx="1817.4" cy="1688.65" r="10.8" fill="#009af9" fill-rule="evenodd" fill-opacity="0.7" stroke="#000000" stroke-opacity="0.7" stroke-width="3.84"/>
<circle clip-path="url(#clip031)" cx="1840.29" cy="1688.65" r="10.8" fill="#009af9" fill-rule="evenodd" fill-opacity="0.7" stroke="#000000" stroke-opacity="0.7" stroke-width="3.84"/>
<circle clip-path="url(#clip031)" cx="1863.18" cy="1688.65" r="10.8" fill="#009af9" fill-rule="evenodd" fill-opacity="0.7" stroke="#000000" stroke-opacity="0.7" stroke-width="3.84"/>
<circle clip-path="url(#clip031)" cx="1886.07" cy="1688.65" r="10.8" fill="#009af9" fill-rule="evenodd" fill-opacity="0.7" stroke="#000000" stroke-opacity="0.7" stroke-width="3.84"/>
<circle clip-path="url(#clip031)" cx="1908.96" cy="1688.65" r="10.8" fill="#009af9" fill-rule="evenodd" fill-opacity="0.7" stroke="#000000" stroke-opacity="0.7" stroke-width="3.84"/>
<circle clip-path="url(#clip031)" cx="1931.85" cy="1688.65" r="10.8" fill="#009af9" fill-rule="evenodd" fill-opacity="0.7" stroke="#000000" stroke-opacity="0.7" stroke-width="3.84"/>
<circle clip-path="url(#clip031)" cx="1954.74" cy="1688.65" r="10.8" fill="#009af9" fill-rule="evenodd" fill-opacity="0.7" stroke="#000000" stroke-opacity="0.7" stroke-width="3.84"/>
<circle clip-path="url(#clip031)" cx="1977.63" cy="1688.65" r="10.8" fill="#009af9" fill-rule="evenodd" fill-opacity="0.7" stroke="#000000" stroke-opacity="0.7" stroke-width="3.84"/>
<circle clip-path="url(#clip031)" cx="2000.52" cy="1688.65" r="10.8" fill="#009af9" fill-rule="evenodd" fill-opacity="0.7" stroke="#000000" stroke-opacity="0.7" stroke-width="3.84"/>
<circle clip-path="url(#clip031)" cx="2023.41" cy="1688.65" r="10.8" fill="#009af9" fill-rule="evenodd" fill-opacity="0.7" stroke="#000000" stroke-opacity="0.7" stroke-width="3.84"/>
<circle clip-path="url(#clip031)" cx="2046.3" cy="1688.65" r="10.8" fill="#009af9" fill-rule="evenodd" fill-opacity="0.7" stroke="#000000" stroke-opacity="0.7" stroke-width="3.84"/>
<circle clip-path="url(#clip031)" cx="2069.19" cy="1688.65" r="10.8" fill="#009af9" fill-rule="evenodd" fill-opacity="0.7" stroke="#000000" stroke-opacity="0.7" stroke-width="3.84"/>
<circle clip-path="url(#clip031)" cx="2092.08" cy="1688.65" r="10.8" fill="#009af9" fill-rule="evenodd" fill-opacity="0.7" stroke="#000000" stroke-opacity="0.7" stroke-width="3.84"/>
<circle clip-path="url(#clip031)" cx="2114.97" cy="1688.65" r="10.8" fill="#009af9" fill-rule="evenodd" fill-opacity="0.7" stroke="#000000" stroke-opacity="0.7" stroke-width="3.84"/>
<circle clip-path="url(#clip031)" cx="2137.86" cy="1688.65" r="10.8" fill="#009af9" fill-rule="evenodd" fill-opacity="0.7" stroke="#000000" stroke-opacity="0.7" stroke-width="3.84"/>
<circle clip-path="url(#clip031)" cx="2160.75" cy="1688.65" r="10.8" fill="#009af9" fill-rule="evenodd" fill-opacity="0.7" stroke="#000000" stroke-opacity="0.7" stroke-width="3.84"/>
<circle clip-path="url(#clip031)" cx="2183.64" cy="1688.65" r="10.8" fill="#009af9" fill-rule="evenodd" fill-opacity="0.7" stroke="#000000" stroke-opacity="0.7" stroke-width="3.84"/>
<circle clip-path="url(#clip031)" cx="2206.53" cy="1688.65" r="10.8" fill="#009af9" fill-rule="evenodd" fill-opacity="0.7" stroke="#000000" stroke-opacity="0.7" stroke-width="3.84"/>
<circle clip-path="url(#clip031)" cx="2229.42" cy="1688.65" r="10.8" fill="#009af9" fill-rule="evenodd" fill-opacity="0.7" stroke="#000000" stroke-opacity="0.7" stroke-width="3.84"/>
<circle clip-path="url(#clip031)" cx="2252.31" cy="1688.65" r="10.8" fill="#009af9" fill-rule="evenodd" fill-opacity="0.7" stroke="#000000" stroke-opacity="0.7" stroke-width="3.84"/>
<circle clip-path="url(#clip031)" cx="2275.2" cy="1688.65" r="10.8" fill="#009af9" fill-rule="evenodd" fill-opacity="0.7" stroke="#000000" stroke-opacity="0.7" stroke-width="3.84"/>
<circle clip-path="url(#clip031)" cx="2298.09" cy="1688.65" r="10.8" fill="#009af9" fill-rule="evenodd" fill-opacity="0.7" stroke="#000000" stroke-opacity="0.7" stroke-width="3.84"/>
<circle clip-path="url(#clip031)" cx="2320.98" cy="1688.65" r="10.8" fill="#009af9" fill-rule="evenodd" fill-opacity="0.7" stroke="#000000" stroke-opacity="0.7" stroke-width="3.84"/>
<circle clip-path="url(#clip031)" cx="2343.87" cy="1688.65" r="10.8" fill="#009af9" fill-rule="evenodd" fill-opacity="0.7" stroke="#000000" stroke-opacity="0.7" stroke-width="3.84"/>
<circle clip-path="url(#clip031)" cx="2366.76" cy="1688.65" r="10.8" fill="#009af9" fill-rule="evenodd" fill-opacity="0.7" stroke="#000000" stroke-opacity="0.7" stroke-width="3.84"/>
<circle clip-path="url(#clip031)" cx="2389.65" cy="1688.65" r="10.8" fill="#009af9" fill-rule="evenodd" fill-opacity="0.7" stroke="#000000" stroke-opacity="0.7" stroke-width="3.84"/>
<circle clip-path="url(#clip031)" cx="2412.54" cy="1688.65" r="10.8" fill="#009af9" fill-rule="evenodd" fill-opacity="0.7" stroke="#000000" stroke-opacity="0.7" stroke-width="3.84"/>
<circle clip-path="url(#clip031)" cx="2435.43" cy="1688.65" r="10.8" fill="#009af9" fill-rule="evenodd" fill-opacity="0.7" stroke="#000000" stroke-opacity="0.7" stroke-width="3.84"/>
<circle clip-path="url(#clip031)" cx="2458.32" cy="1688.65" r="10.8" fill="#009af9" fill-rule="evenodd" fill-opacity="0.7" stroke="#000000" stroke-opacity="0.7" stroke-width="3.84"/>
<circle clip-path="url(#clip031)" cx="2481.21" cy="1688.65" r="10.8" fill="#009af9" fill-rule="evenodd" fill-opacity="0.7" stroke="#000000" stroke-opacity="0.7" stroke-width="3.84"/>
<circle clip-path="url(#clip031)" cx="2504.1" cy="1688.65" r="10.8" fill="#009af9" fill-rule="evenodd" fill-opacity="0.7" stroke="#000000" stroke-opacity="0.7" stroke-width="3.84"/>
<circle clip-path="url(#clip031)" cx="2526.99" cy="1688.65" r="10.8" fill="#009af9" fill-rule="evenodd" fill-opacity="0.7" stroke="#000000" stroke-opacity="0.7" stroke-width="3.84"/>
<circle clip-path="url(#clip031)" cx="2549.88" cy="1688.65" r="10.8" fill="#009af9" fill-rule="evenodd" fill-opacity="0.7" stroke="#000000" stroke-opacity="0.7" stroke-width="3.84"/>
<circle clip-path="url(#clip031)" cx="2572.77" cy="1688.65" r="10.8" fill="#009af9" fill-rule="evenodd" fill-opacity="0.7" stroke="#000000" stroke-opacity="0.7" stroke-width="3.84"/>
<path clip-path="url(#clip030)" d="M2184.74 285.016 L2560.69 285.016 L2560.69 181.336 L2184.74 181.336  Z" fill="#ffffff" fill-rule="evenodd" fill-opacity="1"/>
<polyline clip-path="url(#clip030)" style="stroke:#000000; stroke-linecap:round; stroke-linejoin:round; stroke-width:4; stroke-opacity:1; fill:none" points="2184.74,285.016 2560.69,285.016 2560.69,181.336 2184.74,181.336 2184.74,285.016 "/>
<circle clip-path="url(#clip030)" cx="2291.5" cy="233.176" r="19.7486" fill="#009af9" fill-rule="evenodd" fill-opacity="0.7" stroke="#000000" stroke-opacity="0.7" stroke-width="7.02171"/>
<path clip-path="url(#clip030)" d="M2426.13 218.558 L2426.13 223.489 Q2423.77 221.29 2421.08 220.202 Q2418.42 219.114 2415.41 219.114 Q2409.48 219.114 2406.33 222.748 Q2403.19 226.359 2403.19 233.211 Q2403.19 240.04 2406.33 243.674 Q2409.48 247.285 2415.41 247.285 Q2418.42 247.285 2421.08 246.197 Q2423.77 245.109 2426.13 242.91 L2426.13 247.794 Q2423.67 249.461 2420.92 250.294 Q2418.19 251.128 2415.13 251.128 Q2407.28 251.128 2402.77 246.336 Q2398.26 241.521 2398.26 233.211 Q2398.26 224.878 2402.77 220.086 Q2407.28 215.271 2415.13 215.271 Q2418.23 215.271 2420.96 216.105 Q2423.72 216.915 2426.13 218.558 Z" fill="#000000" fill-rule="nonzero" fill-opacity="1" /><path clip-path="url(#clip030)" d="M2444.95 237.424 Q2439.78 237.424 2437.79 238.604 Q2435.8 239.785 2435.8 242.632 Q2435.8 244.901 2437.28 246.243 Q2438.79 247.563 2441.36 247.563 Q2444.9 247.563 2447.03 245.063 Q2449.18 242.54 2449.18 238.373 L2449.18 237.424 L2444.95 237.424 M2453.44 235.665 L2453.44 250.456 L2449.18 250.456 L2449.18 246.521 Q2447.72 248.882 2445.55 250.016 Q2443.37 251.128 2440.22 251.128 Q2436.24 251.128 2433.88 248.905 Q2431.54 246.66 2431.54 242.91 Q2431.54 238.535 2434.46 236.313 Q2437.4 234.091 2443.21 234.091 L2449.18 234.091 L2449.18 233.674 Q2449.18 230.734 2447.24 229.137 Q2445.32 227.517 2441.82 227.517 Q2439.6 227.517 2437.49 228.049 Q2435.39 228.581 2433.44 229.646 L2433.44 225.711 Q2435.78 224.808 2437.98 224.368 Q2440.18 223.906 2442.26 223.906 Q2447.89 223.906 2450.66 226.822 Q2453.44 229.739 2453.44 235.665 Z" fill="#000000" fill-rule="nonzero" fill-opacity="1" /><path clip-path="url(#clip030)" d="M2478.74 225.294 L2478.74 229.322 Q2476.94 228.396 2474.99 227.933 Q2473.05 227.47 2470.96 227.47 Q2467.79 227.47 2466.2 228.443 Q2464.62 229.415 2464.62 231.359 Q2464.62 232.841 2465.76 233.697 Q2466.89 234.53 2470.32 235.294 L2471.77 235.618 Q2476.31 236.591 2478.21 238.373 Q2480.13 240.132 2480.13 243.304 Q2480.13 246.915 2477.26 249.021 Q2474.41 251.128 2469.41 251.128 Q2467.33 251.128 2465.06 250.711 Q2462.82 250.317 2460.32 249.507 L2460.32 245.109 Q2462.68 246.336 2464.97 246.961 Q2467.26 247.563 2469.51 247.563 Q2472.52 247.563 2474.14 246.544 Q2475.76 245.503 2475.76 243.628 Q2475.76 241.892 2474.58 240.966 Q2473.42 240.04 2469.46 239.183 L2467.98 238.836 Q2464.02 238.003 2462.26 236.29 Q2460.5 234.554 2460.5 231.544 Q2460.5 227.887 2463.09 225.896 Q2465.69 223.906 2470.45 223.906 Q2472.82 223.906 2474.9 224.253 Q2476.98 224.6 2478.74 225.294 Z" fill="#000000" fill-rule="nonzero" fill-opacity="1" /><path clip-path="url(#clip030)" d="M2509.09 236.429 L2509.09 238.512 L2489.51 238.512 Q2489.78 242.91 2492.14 245.225 Q2494.53 247.516 2498.76 247.516 Q2501.22 247.516 2503.51 246.915 Q2505.83 246.313 2508.09 245.109 L2508.09 249.137 Q2505.8 250.109 2503.39 250.618 Q2500.99 251.128 2498.51 251.128 Q2492.31 251.128 2488.67 247.516 Q2485.06 243.905 2485.06 237.748 Q2485.06 231.382 2488.49 227.655 Q2491.94 223.906 2497.77 223.906 Q2503 223.906 2506.03 227.285 Q2509.09 230.642 2509.09 236.429 M2504.83 235.179 Q2504.78 231.683 2502.86 229.6 Q2500.96 227.517 2497.82 227.517 Q2494.25 227.517 2492.1 229.53 Q2489.97 231.544 2489.64 235.202 L2504.83 235.179 Z" fill="#000000" fill-rule="nonzero" fill-opacity="1" /><path clip-path="url(#clip030)" d="M2532.61 225.294 L2532.61 229.322 Q2530.8 228.396 2528.86 227.933 Q2526.91 227.47 2524.83 227.47 Q2521.66 227.47 2520.06 228.443 Q2518.49 229.415 2518.49 231.359 Q2518.49 232.841 2519.62 233.697 Q2520.76 234.53 2524.18 235.294 L2525.64 235.618 Q2530.18 236.591 2532.07 238.373 Q2534 240.132 2534 243.304 Q2534 246.915 2531.13 249.021 Q2528.28 251.128 2523.28 251.128 Q2521.2 251.128 2518.93 250.711 Q2516.68 250.317 2514.18 249.507 L2514.18 245.109 Q2516.54 246.336 2518.83 246.961 Q2521.13 247.563 2523.37 247.563 Q2526.38 247.563 2528 246.544 Q2529.62 245.503 2529.62 243.628 Q2529.62 241.892 2528.44 240.966 Q2527.28 240.04 2523.33 239.183 L2521.84 238.836 Q2517.89 238.003 2516.13 236.29 Q2514.37 234.554 2514.37 231.544 Q2514.37 227.887 2516.96 225.896 Q2519.55 223.906 2524.32 223.906 Q2526.68 223.906 2528.76 224.253 Q2530.85 224.6 2532.61 225.294 Z" fill="#000000" fill-rule="nonzero" fill-opacity="1" /></svg>
