<?xml version="1.0" encoding="utf-8"?>
<svg xmlns="http://www.w3.org/2000/svg" xmlns:xlink="http://www.w3.org/1999/xlink" width="800" height="300" viewBox="0 0 3200 1200">
<defs>
  <clipPath id="clip060">
    <rect x="0" y="0" width="3200" height="1200"/>
  </clipPath>
</defs>
<path clip-path="url(#clip060)" d="M0 1200 L3200 1200 L3200 0 L0 0  Z" fill="#ffffff" fill-rule="evenodd" fill-opacity="1"/>
<defs>
  <clipPath id="clip061">
    <rect x="1834" y="97" width="1319" height="967"/>
  </clipPath>
</defs>
<path clip-path="url(#clip060)" d="M234.669 1063.09 L1552.76 1063.09 L1552.76 97.0121 L234.669 97.0121  Z" fill="#ffffff" fill-rule="evenodd" fill-opacity="1"/>
<defs>
  <clipPath id="clip062">
    <rect x="234" y="97" width="1319" height="967"/>
  </clipPath>
</defs>
<polyline clip-path="url(#clip062)" style="stroke:#000000; stroke-linecap:round; stroke-linejoin:round; stroke-width:2; stroke-opacity:0.1; fill:none" points="307.166,1063.09 307.166,97.0121 "/>
<polyline clip-path="url(#clip062)" style="stroke:#000000; stroke-linecap:round; stroke-linejoin:round; stroke-width:2; stroke-opacity:0.1; fill:none" points="573.778,1063.09 573.778,97.0121 "/>
<polyline clip-path="url(#clip062)" style="stroke:#000000; stroke-linecap:round; stroke-linejoin:round; stroke-width:2; stroke-opacity:0.1; fill:none" points="840.39,1063.09 840.39,97.0121 "/>
<polyline clip-path="url(#clip062)" style="stroke:#000000; stroke-linecap:round; stroke-linejoin:round; stroke-width:2; stroke-opacity:0.1; fill:none" points="1107,1063.09 1107,97.0121 "/>
<polyline clip-path="url(#clip062)" style="stroke:#000000; stroke-linecap:round; stroke-linejoin:round; stroke-width:2; stroke-opacity:0.1; fill:none" points="1373.61,1063.09 1373.61,97.0121 "/>
<polyline clip-path="url(#clip062)" style="stroke:#000000; stroke-linecap:round; stroke-linejoin:round; stroke-width:2; stroke-opacity:0.1; fill:none" points="234.669,1063.09 1552.76,1063.09 "/>
<polyline clip-path="url(#clip062)" style="stroke:#000000; stroke-linecap:round; stroke-linejoin:round; stroke-width:2; stroke-opacity:0.1; fill:none" points="234.669,823.566 1552.76,823.566 "/>
<polyline clip-path="url(#clip062)" style="stroke:#000000; stroke-linecap:round; stroke-linejoin:round; stroke-width:2; stroke-opacity:0.1; fill:none" points="234.669,584.043 1552.76,584.043 "/>
<polyline clip-path="url(#clip062)" style="stroke:#000000; stroke-linecap:round; stroke-linejoin:round; stroke-width:2; stroke-opacity:0.1; fill:none" points="234.669,344.52 1552.76,344.52 "/>
<polyline clip-path="url(#clip062)" style="stroke:#000000; stroke-linecap:round; stroke-linejoin:round; stroke-width:2; stroke-opacity:0.1; fill:none" points="234.669,104.996 1552.76,104.996 "/>
<polyline clip-path="url(#clip060)" style="stroke:#000000; stroke-linecap:round; stroke-linejoin:round; stroke-width:4; stroke-opacity:1; fill:none" points="234.669,1063.09 1552.76,1063.09 "/>
<polyline clip-path="url(#clip060)" style="stroke:#000000; stroke-linecap:round; stroke-linejoin:round; stroke-width:4; stroke-opacity:1; fill:none" points="307.166,1063.09 307.166,1044.19 "/>
<polyline clip-path="url(#clip060)" style="stroke:#000000; stroke-linecap:round; stroke-linejoin:round; stroke-width:4; stroke-opacity:1; fill:none" points="573.778,1063.09 573.778,1044.19 "/>
<polyline clip-path="url(#clip060)" style="stroke:#000000; stroke-linecap:round; stroke-linejoin:round; stroke-width:4; stroke-opacity:1; fill:none" points="840.39,1063.09 840.39,1044.19 "/>
<polyline clip-path="url(#clip060)" style="stroke:#000000; stroke-linecap:round; stroke-linejoin:round; stroke-width:4; stroke-opacity:1; fill:none" points="1107,1063.09 1107,1044.19 "/>
<polyline clip-path="url(#clip060)" style="stroke:#000000; stroke-linecap:round; stroke-linejoin:round; stroke-width:4; stroke-opacity:1; fill:none" points="1373.61,1063.09 1373.61,1044.19 "/>
<path clip-path="url(#clip060)" d="M269.469 1100.41 Q265.858 1100.41 264.03 1103.97 Q262.224 1107.51 262.224 1114.64 Q262.224 1121.75 264.03 1125.32 Q265.858 1128.86 269.469 1128.86 Q273.104 1128.86 274.909 1125.32 Q276.738 1121.75 276.738 1114.64 Q276.738 1107.51 274.909 1103.97 Q273.104 1100.41 269.469 1100.41 M269.469 1096.7 Q275.279 1096.7 278.335 1101.31 Q281.414 1105.89 281.414 1114.64 Q281.414 1123.37 278.335 1127.98 Q275.279 1132.56 269.469 1132.56 Q263.659 1132.56 260.58 1127.98 Q257.525 1123.37 257.525 1114.64 Q257.525 1105.89 260.58 1101.31 Q263.659 1096.7 269.469 1096.7 Z" fill="#000000" fill-rule="nonzero" fill-opacity="1" /><path clip-path="url(#clip060)" d="M289.631 1126.01 L294.515 1126.01 L294.515 1131.89 L289.631 1131.89 L289.631 1126.01 Z" fill="#000000" fill-rule="nonzero" fill-opacity="1" /><path clip-path="url(#clip060)" d="M317.548 1101.4 L305.742 1119.85 L317.548 1119.85 L317.548 1101.4 M316.321 1097.33 L322.2 1097.33 L322.2 1119.85 L327.131 1119.85 L327.131 1123.74 L322.2 1123.74 L322.2 1131.89 L317.548 1131.89 L317.548 1123.74 L301.946 1123.74 L301.946 1119.23 L316.321 1097.33 Z" fill="#000000" fill-rule="nonzero" fill-opacity="1" /><path clip-path="url(#clip060)" d="M344.862 1100.41 Q341.251 1100.41 339.423 1103.97 Q337.617 1107.51 337.617 1114.64 Q337.617 1121.75 339.423 1125.32 Q341.251 1128.86 344.862 1128.86 Q348.497 1128.86 350.302 1125.32 Q352.131 1121.75 352.131 1114.64 Q352.131 1107.51 350.302 1103.97 Q348.497 1100.41 344.862 1100.41 M344.862 1096.7 Q350.673 1096.7 353.728 1101.31 Q356.807 1105.89 356.807 1114.64 Q356.807 1123.37 353.728 1127.98 Q350.673 1132.56 344.862 1132.56 Q339.052 1132.56 335.974 1127.98 Q332.918 1123.37 332.918 1114.64 Q332.918 1105.89 335.974 1101.31 Q339.052 1096.7 344.862 1096.7 Z" fill="#000000" fill-rule="nonzero" fill-opacity="1" /><path clip-path="url(#clip060)" d="M536.579 1100.41 Q532.968 1100.41 531.139 1103.97 Q529.334 1107.51 529.334 1114.64 Q529.334 1121.75 531.139 1125.32 Q532.968 1128.86 536.579 1128.86 Q540.213 1128.86 542.019 1125.32 Q543.847 1121.75 543.847 1114.64 Q543.847 1107.51 542.019 1103.97 Q540.213 1100.41 536.579 1100.41 M536.579 1096.7 Q542.389 1096.7 545.445 1101.31 Q548.523 1105.89 548.523 1114.64 Q548.523 1123.37 545.445 1127.98 Q542.389 1132.56 536.579 1132.56 Q530.769 1132.56 527.69 1127.98 Q524.635 1123.37 524.635 1114.64 Q524.635 1105.89 527.69 1101.31 Q530.769 1096.7 536.579 1096.7 Z" fill="#000000" fill-rule="nonzero" fill-opacity="1" /><path clip-path="url(#clip060)" d="M556.741 1126.01 L561.625 1126.01 L561.625 1131.89 L556.741 1131.89 L556.741 1126.01 Z" fill="#000000" fill-rule="nonzero" fill-opacity="1" /><path clip-path="url(#clip060)" d="M584.657 1101.4 L572.852 1119.85 L584.657 1119.85 L584.657 1101.4 M583.431 1097.33 L589.31 1097.33 L589.31 1119.85 L594.241 1119.85 L594.241 1123.74 L589.31 1123.74 L589.31 1131.89 L584.657 1131.89 L584.657 1123.74 L569.056 1123.74 L569.056 1119.23 L583.431 1097.33 Z" fill="#000000" fill-rule="nonzero" fill-opacity="1" /><path clip-path="url(#clip060)" d="M602.018 1097.33 L620.375 1097.33 L620.375 1101.27 L606.301 1101.27 L606.301 1109.74 Q607.319 1109.39 608.338 1109.23 Q609.356 1109.04 610.375 1109.04 Q616.162 1109.04 619.542 1112.21 Q622.921 1115.39 622.921 1120.8 Q622.921 1126.38 619.449 1129.48 Q615.977 1132.56 609.657 1132.56 Q607.481 1132.56 605.213 1132.19 Q602.968 1131.82 600.56 1131.08 L600.56 1126.38 Q602.643 1127.51 604.866 1128.07 Q607.088 1128.63 609.565 1128.63 Q613.569 1128.63 615.907 1126.52 Q618.245 1124.41 618.245 1120.8 Q618.245 1117.19 615.907 1115.08 Q613.569 1112.98 609.565 1112.98 Q607.69 1112.98 605.815 1113.39 Q603.963 1113.81 602.018 1114.69 L602.018 1097.33 Z" fill="#000000" fill-rule="nonzero" fill-opacity="1" /><path clip-path="url(#clip060)" d="M802.693 1100.41 Q799.082 1100.41 797.254 1103.97 Q795.448 1107.51 795.448 1114.64 Q795.448 1121.75 797.254 1125.32 Q799.082 1128.86 802.693 1128.86 Q806.328 1128.86 808.133 1125.32 Q809.962 1121.75 809.962 1114.64 Q809.962 1107.51 808.133 1103.97 Q806.328 1100.41 802.693 1100.41 M802.693 1096.7 Q808.503 1096.7 811.559 1101.31 Q814.638 1105.89 814.638 1114.64 Q814.638 1123.37 811.559 1127.98 Q808.503 1132.56 802.693 1132.56 Q796.883 1132.56 793.805 1127.98 Q790.749 1123.37 790.749 1114.64 Q790.749 1105.89 793.805 1101.31 Q796.883 1096.7 802.693 1096.7 Z" fill="#000000" fill-rule="nonzero" fill-opacity="1" /><path clip-path="url(#clip060)" d="M822.855 1126.01 L827.74 1126.01 L827.74 1131.89 L822.855 1131.89 L822.855 1126.01 Z" fill="#000000" fill-rule="nonzero" fill-opacity="1" /><path clip-path="url(#clip060)" d="M837.971 1097.33 L856.327 1097.33 L856.327 1101.27 L842.253 1101.27 L842.253 1109.74 Q843.272 1109.39 844.29 1109.23 Q845.309 1109.04 846.327 1109.04 Q852.114 1109.04 855.494 1112.21 Q858.874 1115.39 858.874 1120.8 Q858.874 1126.38 855.401 1129.48 Q851.929 1132.56 845.61 1132.56 Q843.434 1132.56 841.165 1132.19 Q838.92 1131.82 836.513 1131.08 L836.513 1126.38 Q838.596 1127.51 840.818 1128.07 Q843.04 1128.63 845.517 1128.63 Q849.522 1128.63 851.86 1126.52 Q854.198 1124.41 854.198 1120.8 Q854.198 1117.19 851.86 1115.08 Q849.522 1112.98 845.517 1112.98 Q843.642 1112.98 841.767 1113.39 Q839.915 1113.81 837.971 1114.69 L837.971 1097.33 Z" fill="#000000" fill-rule="nonzero" fill-opacity="1" /><path clip-path="url(#clip060)" d="M878.086 1100.41 Q874.475 1100.41 872.647 1103.97 Q870.841 1107.51 870.841 1114.64 Q870.841 1121.75 872.647 1125.32 Q874.475 1128.86 878.086 1128.86 Q881.721 1128.86 883.526 1125.32 Q885.355 1121.75 885.355 1114.64 Q885.355 1107.51 883.526 1103.97 Q881.721 1100.41 878.086 1100.41 M878.086 1096.7 Q883.897 1096.7 886.952 1101.31 Q890.031 1105.89 890.031 1114.64 Q890.031 1123.37 886.952 1127.98 Q883.897 1132.56 878.086 1132.56 Q872.276 1132.56 869.198 1127.98 Q866.142 1123.37 866.142 1114.64 Q866.142 1105.89 869.198 1101.31 Q872.276 1096.7 878.086 1096.7 Z" fill="#000000" fill-rule="nonzero" fill-opacity="1" /><path clip-path="url(#clip060)" d="M1069.8 1100.41 Q1066.19 1100.41 1064.36 1103.97 Q1062.56 1107.51 1062.56 1114.64 Q1062.56 1121.75 1064.36 1125.32 Q1066.19 1128.86 1069.8 1128.86 Q1073.44 1128.86 1075.24 1125.32 Q1077.07 1121.75 1077.07 1114.64 Q1077.07 1107.51 1075.24 1103.97 Q1073.44 1100.41 1069.8 1100.41 M1069.8 1096.7 Q1075.61 1096.7 1078.67 1101.31 Q1081.75 1105.89 1081.75 1114.64 Q1081.75 1123.37 1078.67 1127.98 Q1075.61 1132.56 1069.8 1132.56 Q1063.99 1132.56 1060.91 1127.98 Q1057.86 1123.37 1057.86 1114.64 Q1057.86 1105.89 1060.91 1101.31 Q1063.99 1096.7 1069.8 1096.7 Z" fill="#000000" fill-rule="nonzero" fill-opacity="1" /><path clip-path="url(#clip060)" d="M1089.96 1126.01 L1094.85 1126.01 L1094.85 1131.89 L1089.96 1131.89 L1089.96 1126.01 Z" fill="#000000" fill-rule="nonzero" fill-opacity="1" /><path clip-path="url(#clip060)" d="M1105.08 1097.33 L1123.44 1097.33 L1123.44 1101.27 L1109.36 1101.27 L1109.36 1109.74 Q1110.38 1109.39 1111.4 1109.23 Q1112.42 1109.04 1113.44 1109.04 Q1119.22 1109.04 1122.6 1112.21 Q1125.98 1115.39 1125.98 1120.8 Q1125.98 1126.38 1122.51 1129.48 Q1119.04 1132.56 1112.72 1132.56 Q1110.54 1132.56 1108.28 1132.19 Q1106.03 1131.82 1103.62 1131.08 L1103.62 1126.38 Q1105.71 1127.51 1107.93 1128.07 Q1110.15 1128.63 1112.63 1128.63 Q1116.63 1128.63 1118.97 1126.52 Q1121.31 1124.41 1121.31 1120.8 Q1121.31 1117.19 1118.97 1115.08 Q1116.63 1112.98 1112.63 1112.98 Q1110.75 1112.98 1108.88 1113.39 Q1107.03 1113.81 1105.08 1114.69 L1105.08 1097.33 Z" fill="#000000" fill-rule="nonzero" fill-opacity="1" /><path clip-path="url(#clip060)" d="M1135.24 1097.33 L1153.6 1097.33 L1153.6 1101.27 L1139.52 1101.27 L1139.52 1109.74 Q1140.54 1109.39 1141.56 1109.23 Q1142.58 1109.04 1143.6 1109.04 Q1149.39 1109.04 1152.77 1112.21 Q1156.15 1115.39 1156.15 1120.8 Q1156.15 1126.38 1152.67 1129.48 Q1149.2 1132.56 1142.88 1132.56 Q1140.71 1132.56 1138.44 1132.19 Q1136.19 1131.82 1133.78 1131.08 L1133.78 1126.38 Q1135.87 1127.51 1138.09 1128.07 Q1140.31 1128.63 1142.79 1128.63 Q1146.79 1128.63 1149.13 1126.52 Q1151.47 1124.41 1151.47 1120.8 Q1151.47 1117.19 1149.13 1115.08 Q1146.79 1112.98 1142.79 1112.98 Q1140.91 1112.98 1139.04 1113.39 Q1137.19 1113.81 1135.24 1114.69 L1135.24 1097.33 Z" fill="#000000" fill-rule="nonzero" fill-opacity="1" /><path clip-path="url(#clip060)" d="M1335.92 1100.41 Q1332.31 1100.41 1330.48 1103.97 Q1328.67 1107.51 1328.67 1114.64 Q1328.67 1121.75 1330.48 1125.32 Q1332.31 1128.86 1335.92 1128.86 Q1339.55 1128.86 1341.36 1125.32 Q1343.19 1121.75 1343.19 1114.64 Q1343.19 1107.51 1341.36 1103.97 Q1339.55 1100.41 1335.92 1100.41 M1335.92 1096.7 Q1341.73 1096.7 1344.78 1101.31 Q1347.86 1105.89 1347.86 1114.64 Q1347.86 1123.37 1344.78 1127.98 Q1341.73 1132.56 1335.92 1132.56 Q1330.11 1132.56 1327.03 1127.98 Q1323.97 1123.37 1323.97 1114.64 Q1323.97 1105.89 1327.03 1101.31 Q1330.11 1096.7 1335.92 1096.7 Z" fill="#000000" fill-rule="nonzero" fill-opacity="1" /><path clip-path="url(#clip060)" d="M1356.08 1126.01 L1360.96 1126.01 L1360.96 1131.89 L1356.08 1131.89 L1356.08 1126.01 Z" fill="#000000" fill-rule="nonzero" fill-opacity="1" /><path clip-path="url(#clip060)" d="M1381.73 1112.75 Q1378.58 1112.75 1376.73 1114.9 Q1374.9 1117.05 1374.9 1120.8 Q1374.9 1124.53 1376.73 1126.7 Q1378.58 1128.86 1381.73 1128.86 Q1384.88 1128.86 1386.7 1126.7 Q1388.56 1124.53 1388.56 1120.8 Q1388.56 1117.05 1386.7 1114.9 Q1384.88 1112.75 1381.73 1112.75 M1391.01 1098.09 L1391.01 1102.35 Q1389.25 1101.52 1387.44 1101.08 Q1385.66 1100.64 1383.9 1100.64 Q1379.27 1100.64 1376.82 1103.76 Q1374.39 1106.89 1374.04 1113.21 Q1375.41 1111.2 1377.47 1110.13 Q1379.53 1109.04 1382.01 1109.04 Q1387.21 1109.04 1390.22 1112.21 Q1393.26 1115.36 1393.26 1120.8 Q1393.26 1126.13 1390.11 1129.34 Q1386.96 1132.56 1381.73 1132.56 Q1375.73 1132.56 1372.56 1127.98 Q1369.39 1123.37 1369.39 1114.64 Q1369.39 1106.45 1373.28 1101.59 Q1377.17 1096.7 1383.72 1096.7 Q1385.48 1096.7 1387.26 1097.05 Q1389.07 1097.4 1391.01 1098.09 Z" fill="#000000" fill-rule="nonzero" fill-opacity="1" /><path clip-path="url(#clip060)" d="M1411.31 1100.41 Q1407.7 1100.41 1405.87 1103.97 Q1404.07 1107.51 1404.07 1114.64 Q1404.07 1121.75 1405.87 1125.32 Q1407.7 1128.86 1411.31 1128.86 Q1414.94 1128.86 1416.75 1125.32 Q1418.58 1121.75 1418.58 1114.64 Q1418.58 1107.51 1416.75 1103.97 Q1414.94 1100.41 1411.31 1100.41 M1411.31 1096.7 Q1417.12 1096.7 1420.18 1101.31 Q1423.25 1105.89 1423.25 1114.64 Q1423.25 1123.37 1420.18 1127.98 Q1417.12 1132.56 1411.31 1132.56 Q1405.5 1132.56 1402.42 1127.98 Q1399.37 1123.37 1399.37 1114.64 Q1399.37 1105.89 1402.42 1101.31 Q1405.5 1096.7 1411.31 1096.7 Z" fill="#000000" fill-rule="nonzero" fill-opacity="1" /><path clip-path="url(#clip060)" d="M884.196 1217.76 L884.196 1233.51 L878.307 1233.51 L878.307 1184.53 Q878.307 1170.01 891.866 1170.01 Q905.68 1170.01 905.68 1182.27 Q905.68 1190.99 900.205 1194.17 Q909.117 1197.04 909.117 1205.54 Q909.117 1220.62 893.776 1220.62 Q887.028 1220.62 884.196 1217.76 M884.196 1210.12 Q887.729 1215.63 893.999 1215.63 Q903.165 1215.63 903.165 1205.63 Q903.165 1196.66 888.397 1197.36 L888.397 1191.94 Q899.951 1191.94 899.951 1181.76 Q899.951 1174.79 892.503 1174.79 Q884.196 1174.79 884.196 1184.72 L884.196 1210.12 Z" fill="#000000" fill-rule="nonzero" fill-opacity="1" /><polyline clip-path="url(#clip060)" style="stroke:#000000; stroke-linecap:round; stroke-linejoin:round; stroke-width:4; stroke-opacity:1; fill:none" points="234.669,1063.09 234.669,97.0121 "/>
<polyline clip-path="url(#clip060)" style="stroke:#000000; stroke-linecap:round; stroke-linejoin:round; stroke-width:4; stroke-opacity:1; fill:none" points="234.669,1063.09 253.566,1063.09 "/>
<polyline clip-path="url(#clip060)" style="stroke:#000000; stroke-linecap:round; stroke-linejoin:round; stroke-width:4; stroke-opacity:1; fill:none" points="234.669,823.566 253.566,823.566 "/>
<polyline clip-path="url(#clip060)" style="stroke:#000000; stroke-linecap:round; stroke-linejoin:round; stroke-width:4; stroke-opacity:1; fill:none" points="234.669,584.043 253.566,584.043 "/>
<polyline clip-path="url(#clip060)" style="stroke:#000000; stroke-linecap:round; stroke-linejoin:round; stroke-width:4; stroke-opacity:1; fill:none" points="234.669,344.52 253.566,344.52 "/>
<polyline clip-path="url(#clip060)" style="stroke:#000000; stroke-linecap:round; stroke-linejoin:round; stroke-width:4; stroke-opacity:1; fill:none" points="234.669,104.996 253.566,104.996 "/>
<path clip-path="url(#clip060)" d="M129.493 1048.89 Q125.882 1048.89 124.053 1052.45 Q122.248 1055.99 122.248 1063.12 Q122.248 1070.23 124.053 1073.8 Q125.882 1077.34 129.493 1077.34 Q133.127 1077.34 134.933 1073.8 Q136.762 1070.23 136.762 1063.12 Q136.762 1055.99 134.933 1052.45 Q133.127 1048.89 129.493 1048.89 M129.493 1045.18 Q135.303 1045.18 138.359 1049.79 Q141.437 1054.37 141.437 1063.12 Q141.437 1071.85 138.359 1076.46 Q135.303 1081.04 129.493 1081.04 Q123.683 1081.04 120.604 1076.46 Q117.549 1071.85 117.549 1063.12 Q117.549 1054.37 120.604 1049.79 Q123.683 1045.18 129.493 1045.18 Z" fill="#000000" fill-rule="nonzero" fill-opacity="1" /><path clip-path="url(#clip060)" d="M149.655 1074.49 L154.539 1074.49 L154.539 1080.37 L149.655 1080.37 L149.655 1074.49 Z" fill="#000000" fill-rule="nonzero" fill-opacity="1" /><path clip-path="url(#clip060)" d="M174.724 1048.89 Q171.113 1048.89 169.285 1052.45 Q167.479 1055.99 167.479 1063.12 Q167.479 1070.23 169.285 1073.8 Q171.113 1077.34 174.724 1077.34 Q178.359 1077.34 180.164 1073.8 Q181.993 1070.23 181.993 1063.12 Q181.993 1055.99 180.164 1052.45 Q178.359 1048.89 174.724 1048.89 M174.724 1045.18 Q180.534 1045.18 183.59 1049.79 Q186.669 1054.37 186.669 1063.12 Q186.669 1071.85 183.59 1076.46 Q180.534 1081.04 174.724 1081.04 Q168.914 1081.04 165.835 1076.46 Q162.78 1071.85 162.78 1063.12 Q162.78 1054.37 165.835 1049.79 Q168.914 1045.18 174.724 1045.18 Z" fill="#000000" fill-rule="nonzero" fill-opacity="1" /><path clip-path="url(#clip060)" d="M124.516 836.911 L140.836 836.911 L140.836 840.846 L118.891 840.846 L118.891 836.911 Q121.553 834.157 126.137 829.527 Q130.743 824.874 131.924 823.532 Q134.169 821.009 135.049 819.272 Q135.951 817.513 135.951 815.823 Q135.951 813.069 134.007 811.333 Q132.086 809.597 128.984 809.597 Q126.785 809.597 124.331 810.36 Q121.901 811.124 119.123 812.675 L119.123 807.953 Q121.947 806.819 124.401 806.24 Q126.854 805.661 128.891 805.661 Q134.262 805.661 137.456 808.347 Q140.65 811.032 140.65 815.523 Q140.65 817.652 139.84 819.573 Q139.053 821.472 136.947 824.064 Q136.368 824.735 133.266 827.953 Q130.164 831.147 124.516 836.911 Z" fill="#000000" fill-rule="nonzero" fill-opacity="1" /><path clip-path="url(#clip060)" d="M150.65 834.967 L155.535 834.967 L155.535 840.846 L150.65 840.846 L150.65 834.967 Z" fill="#000000" fill-rule="nonzero" fill-opacity="1" /><path clip-path="url(#clip060)" d="M165.766 806.286 L184.122 806.286 L184.122 810.222 L170.048 810.222 L170.048 818.694 Q171.067 818.347 172.085 818.185 Q173.104 817.999 174.122 817.999 Q179.909 817.999 183.289 821.171 Q186.669 824.342 186.669 829.759 Q186.669 835.337 183.197 838.439 Q179.724 841.518 173.405 841.518 Q171.229 841.518 168.96 841.147 Q166.715 840.777 164.308 840.036 L164.308 835.337 Q166.391 836.471 168.613 837.027 Q170.835 837.583 173.312 837.583 Q177.317 837.583 179.655 835.476 Q181.993 833.37 181.993 829.759 Q181.993 826.147 179.655 824.041 Q177.317 821.935 173.312 821.935 Q171.437 821.935 169.562 822.351 Q167.71 822.768 165.766 823.647 L165.766 806.286 Z" fill="#000000" fill-rule="nonzero" fill-opacity="1" /><path clip-path="url(#clip060)" d="M119.539 566.763 L137.896 566.763 L137.896 570.698 L123.822 570.698 L123.822 579.17 Q124.84 578.823 125.859 578.661 Q126.877 578.476 127.896 578.476 Q133.683 578.476 137.062 581.647 Q140.442 584.818 140.442 590.235 Q140.442 595.814 136.97 598.916 Q133.498 601.994 127.178 601.994 Q125.002 601.994 122.734 601.624 Q120.489 601.254 118.081 600.513 L118.081 595.814 Q120.164 596.948 122.387 597.504 Q124.609 598.059 127.086 598.059 Q131.09 598.059 133.428 595.953 Q135.766 593.846 135.766 590.235 Q135.766 586.624 133.428 584.518 Q131.09 582.411 127.086 582.411 Q125.211 582.411 123.336 582.828 Q121.484 583.244 119.539 584.124 L119.539 566.763 Z" fill="#000000" fill-rule="nonzero" fill-opacity="1" /><path clip-path="url(#clip060)" d="M149.655 595.443 L154.539 595.443 L154.539 601.323 L149.655 601.323 L149.655 595.443 Z" fill="#000000" fill-rule="nonzero" fill-opacity="1" /><path clip-path="url(#clip060)" d="M174.724 569.842 Q171.113 569.842 169.285 573.407 Q167.479 576.948 167.479 584.078 Q167.479 591.184 169.285 594.749 Q171.113 598.291 174.724 598.291 Q178.359 598.291 180.164 594.749 Q181.993 591.184 181.993 584.078 Q181.993 576.948 180.164 573.407 Q178.359 569.842 174.724 569.842 M174.724 566.138 Q180.534 566.138 183.59 570.745 Q186.669 575.328 186.669 584.078 Q186.669 592.805 183.59 597.411 Q180.534 601.994 174.724 601.994 Q168.914 601.994 165.835 597.411 Q162.78 592.805 162.78 584.078 Q162.78 575.328 165.835 570.745 Q168.914 566.138 174.724 566.138 Z" fill="#000000" fill-rule="nonzero" fill-opacity="1" /><path clip-path="url(#clip060)" d="M119.308 327.24 L141.53 327.24 L141.53 329.23 L128.984 361.8 L124.1 361.8 L135.905 331.175 L119.308 331.175 L119.308 327.24 Z" fill="#000000" fill-rule="nonzero" fill-opacity="1" /><path clip-path="url(#clip060)" d="M150.65 355.92 L155.535 355.92 L155.535 361.8 L150.65 361.8 L150.65 355.92 Z" fill="#000000" fill-rule="nonzero" fill-opacity="1" /><path clip-path="url(#clip060)" d="M165.766 327.24 L184.122 327.24 L184.122 331.175 L170.048 331.175 L170.048 339.647 Q171.067 339.3 172.085 339.138 Q173.104 338.953 174.122 338.953 Q179.909 338.953 183.289 342.124 Q186.669 345.295 186.669 350.712 Q186.669 356.29 183.197 359.392 Q179.724 362.471 173.405 362.471 Q171.229 362.471 168.96 362.101 Q166.715 361.73 164.308 360.989 L164.308 356.29 Q166.391 357.425 168.613 357.98 Q170.835 358.536 173.312 358.536 Q177.317 358.536 179.655 356.429 Q181.993 354.323 181.993 350.712 Q181.993 347.101 179.655 344.994 Q177.317 342.888 173.312 342.888 Q171.437 342.888 169.562 343.304 Q167.71 343.721 165.766 344.601 L165.766 327.24 Z" fill="#000000" fill-rule="nonzero" fill-opacity="1" /><path clip-path="url(#clip060)" d="M90.1415 118.341 L97.7803 118.341 L97.7803 91.9755 L89.4702 93.6421 L89.4702 89.3829 L97.734 87.7162 L102.41 87.7162 L102.41 118.341 L110.049 118.341 L110.049 122.276 L90.1415 122.276 L90.1415 118.341 Z" fill="#000000" fill-rule="nonzero" fill-opacity="1" /><path clip-path="url(#clip060)" d="M129.493 90.7949 Q125.882 90.7949 124.053 94.3597 Q122.248 97.9014 122.248 105.031 Q122.248 112.137 124.053 115.702 Q125.882 119.244 129.493 119.244 Q133.127 119.244 134.933 115.702 Q136.762 112.137 136.762 105.031 Q136.762 97.9014 134.933 94.3597 Q133.127 90.7949 129.493 90.7949 M129.493 87.0912 Q135.303 87.0912 138.359 91.6977 Q141.437 96.281 141.437 105.031 Q141.437 113.758 138.359 118.364 Q135.303 122.948 129.493 122.948 Q123.683 122.948 120.604 118.364 Q117.549 113.758 117.549 105.031 Q117.549 96.281 120.604 91.6977 Q123.683 87.0912 129.493 87.0912 Z" fill="#000000" fill-rule="nonzero" fill-opacity="1" /><path clip-path="url(#clip060)" d="M149.655 116.397 L154.539 116.397 L154.539 122.276 L149.655 122.276 L149.655 116.397 Z" fill="#000000" fill-rule="nonzero" fill-opacity="1" /><path clip-path="url(#clip060)" d="M174.724 90.7949 Q171.113 90.7949 169.285 94.3597 Q167.479 97.9014 167.479 105.031 Q167.479 112.137 169.285 115.702 Q171.113 119.244 174.724 119.244 Q178.359 119.244 180.164 115.702 Q181.993 112.137 181.993 105.031 Q181.993 97.9014 180.164 94.3597 Q178.359 90.7949 174.724 90.7949 M174.724 87.0912 Q180.534 87.0912 183.59 91.6977 Q186.669 96.281 186.669 105.031 Q186.669 113.758 183.59 118.364 Q180.534 122.948 174.724 122.948 Q168.914 122.948 165.835 118.364 Q162.78 113.758 162.78 105.031 Q162.78 96.281 165.835 91.6977 Q168.914 87.0912 174.724 87.0912 Z" fill="#000000" fill-rule="nonzero" fill-opacity="1" /><path clip-path="url(#clip060)" d="M-15.0223 693.361 L21.9306 693.361 L21.9306 685.594 Q21.9306 675.759 17.4746 671.208 Q13.0186 666.625 3.40641 666.625 Q-6.14215 666.625 -10.5663 671.208 Q-15.0223 675.759 -15.0223 685.594 L-15.0223 693.361 M-20.3058 699.79 L-20.3058 686.581 Q-20.3058 672.768 -14.5449 666.306 Q-8.81574 659.845 3.40641 659.845 Q15.6922 659.845 21.4532 666.338 Q27.2142 672.831 27.2142 686.581 L27.2142 699.79 L-20.3058 699.79 Z" fill="#000000" fill-rule="nonzero" fill-opacity="1" /><path clip-path="url(#clip060)" d="M7.92607 619.359 L10.7906 619.359 L10.7906 646.286 Q16.8381 645.904 20.0209 642.658 Q23.1719 639.379 23.1719 633.555 Q23.1719 630.181 22.3444 627.03 Q21.5169 623.847 19.8618 620.728 L25.3999 620.728 Q26.7367 623.879 27.437 627.189 Q28.1372 630.499 28.1372 633.905 Q28.1372 642.435 23.1719 647.432 Q18.2067 652.397 9.74029 652.397 Q0.987446 652.397 -4.13695 647.687 Q-9.29317 642.944 -9.29317 634.923 Q-9.29317 627.73 -4.6462 623.561 Q-0.0310669 619.359 7.92607 619.359 M6.20733 625.216 Q1.40122 625.279 -1.46335 627.921 Q-4.32792 630.531 -4.32792 634.86 Q-4.32792 639.761 -1.55884 642.721 Q1.21025 645.65 6.23915 646.095 L6.20733 625.216 Z" fill="#000000" fill-rule="nonzero" fill-opacity="1" /><path clip-path="url(#clip060)" d="M5.69807 580.115 L27.2142 580.115 L27.2142 585.971 L5.88904 585.971 Q0.828303 585.971 -1.68615 587.944 Q-4.2006 589.918 -4.2006 593.865 Q-4.2006 598.607 -1.17689 601.344 Q1.84682 604.082 7.0667 604.082 L27.2142 604.082 L27.2142 609.97 L-8.4338 609.97 L-8.4338 604.082 L-2.89563 604.082 Q-6.11032 601.981 -7.70174 599.148 Q-9.29317 596.284 -9.29317 592.56 Q-9.29317 586.417 -5.47375 583.266 Q-1.68615 580.115 5.69807 580.115 Z" fill="#000000" fill-rule="nonzero" fill-opacity="1" /><path clip-path="url(#clip060)" d="M-7.38346 545.708 L-1.84529 545.708 Q-3.11843 548.191 -3.75501 550.864 Q-4.39158 553.538 -4.39158 556.402 Q-4.39158 560.763 -3.05478 562.959 Q-1.71798 565.123 0.955618 565.123 Q2.99264 565.123 4.1703 563.564 Q5.31613 562.004 6.36647 557.294 L6.81207 555.288 Q8.14887 549.05 10.5997 546.44 Q13.0186 543.798 17.3791 543.798 Q22.3444 543.798 25.2408 547.745 Q28.1372 551.66 28.1372 558.535 Q28.1372 561.399 27.5643 564.519 Q27.0232 567.606 25.9092 571.044 L19.8618 571.044 Q21.5487 567.797 22.408 564.646 Q23.2356 561.495 23.2356 558.408 Q23.2356 554.27 21.8351 552.042 Q20.4029 549.814 17.8247 549.814 Q15.4376 549.814 14.1645 551.437 Q12.8913 553.029 11.7137 558.471 L11.2362 560.508 Q10.0904 565.951 7.7351 568.37 Q5.34796 570.789 1.21025 570.789 Q-3.81866 570.789 -6.55592 567.224 Q-9.29317 563.659 -9.29317 557.103 Q-9.29317 553.856 -8.81574 550.992 Q-8.33831 548.127 -7.38346 545.708 Z" fill="#000000" fill-rule="nonzero" fill-opacity="1" /><path clip-path="url(#clip060)" d="M-8.4338 534.473 L-8.4338 528.616 L27.2142 528.616 L27.2142 534.473 L-8.4338 534.473 M-22.311 534.473 L-22.311 528.616 L-14.895 528.616 L-14.895 534.473 L-22.311 534.473 Z" fill="#000000" fill-rule="nonzero" fill-opacity="1" /><path clip-path="url(#clip060)" d="M-18.5553 510.569 L-8.4338 510.569 L-8.4338 498.506 L-3.88232 498.506 L-3.88232 510.569 L15.4694 510.569 Q19.8299 510.569 21.0713 509.392 Q22.3126 508.182 22.3126 504.522 L22.3126 498.506 L27.2142 498.506 L27.2142 504.522 Q27.2142 511.301 24.6997 513.879 Q22.1534 516.458 15.4694 516.458 L-3.88232 516.458 L-3.88232 520.754 L-8.4338 520.754 L-8.4338 516.458 L-18.5553 516.458 L-18.5553 510.569 Z" fill="#000000" fill-rule="nonzero" fill-opacity="1" /><path clip-path="url(#clip060)" d="M30.5243 475.972 Q36.89 478.454 38.8316 480.81 Q40.7731 483.165 40.7731 487.112 L40.7731 491.79 L35.8715 491.79 L35.8715 488.353 Q35.8715 485.934 34.7257 484.597 Q33.5799 483.26 29.3148 481.637 L26.6412 480.587 L-8.4338 495.005 L-8.4338 488.799 L19.448 477.659 L-8.4338 466.519 L-8.4338 460.312 L30.5243 475.972 Z" fill="#000000" fill-rule="nonzero" fill-opacity="1" /><path clip-path="url(#clip060)" d="M672.715 18.8205 L672.715 41.5461 L683.005 41.5461 Q688.716 41.5461 691.835 38.5889 Q694.955 35.6318 694.955 30.163 Q694.955 24.7348 691.835 21.7777 Q688.716 18.8205 683.005 18.8205 L672.715 18.8205 M664.532 12.096 L683.005 12.096 Q693.172 12.096 698.357 16.714 Q703.583 21.2916 703.583 30.163 Q703.583 39.1155 698.357 43.6931 Q693.172 48.2706 683.005 48.2706 L672.715 48.2706 L672.715 72.576 L664.532 72.576 L664.532 12.096 Z" fill="#000000" fill-rule="nonzero" fill-opacity="1" /><path clip-path="url(#clip060)" d="M728.861 32.4315 Q722.865 32.4315 719.382 37.1306 Q715.898 41.7891 715.898 49.9314 Q715.898 58.0738 719.341 62.7728 Q722.825 67.4314 728.861 67.4314 Q734.816 67.4314 738.299 62.7323 Q741.783 58.0333 741.783 49.9314 Q741.783 41.8701 738.299 37.1711 Q734.816 32.4315 728.861 32.4315 M728.861 26.1121 Q738.583 26.1121 744.133 32.4315 Q749.682 38.7509 749.682 49.9314 Q749.682 61.0714 744.133 67.4314 Q738.583 73.7508 728.861 73.7508 Q719.098 73.7508 713.548 67.4314 Q708.039 61.0714 708.039 49.9314 Q708.039 38.7509 713.548 32.4315 Q719.098 26.1121 728.861 26.1121 Z" fill="#000000" fill-rule="nonzero" fill-opacity="1" /><path clip-path="url(#clip060)" d="M790.961 28.5427 L790.961 35.5912 Q787.801 33.9709 784.399 33.1607 Q780.996 32.3505 777.35 32.3505 Q771.8 32.3505 769.005 34.0519 Q766.251 35.7533 766.251 39.156 Q766.251 41.7486 768.236 43.2475 Q770.22 44.7058 776.216 46.0426 L778.768 46.6097 Q786.708 48.3111 790.029 51.4303 Q793.392 54.509 793.392 60.0587 Q793.392 66.3781 788.369 70.0644 Q783.386 73.7508 774.636 73.7508 Q770.99 73.7508 767.02 73.0216 Q763.091 72.3329 758.716 70.9151 L758.716 63.2184 Q762.848 65.3654 766.858 66.4591 Q770.869 67.5124 774.798 67.5124 Q780.064 67.5124 782.9 65.73 Q785.735 63.9071 785.735 60.6258 Q785.735 57.5877 783.669 55.9673 Q781.644 54.3469 774.717 52.8481 L772.124 52.2405 Q765.197 50.7821 762.119 47.7845 Q759.04 44.7463 759.04 39.4801 Q759.04 33.0797 763.577 29.5959 Q768.114 26.1121 776.459 26.1121 Q780.591 26.1121 784.237 26.7198 Q787.882 27.3274 790.961 28.5427 Z" fill="#000000" fill-rule="nonzero" fill-opacity="1" /><path clip-path="url(#clip060)" d="M812.633 14.324 L812.633 27.2059 L827.986 27.2059 L827.986 32.9987 L812.633 32.9987 L812.633 57.6282 Q812.633 63.1779 814.132 64.7578 Q815.672 66.3376 820.33 66.3376 L827.986 66.3376 L827.986 72.576 L820.33 72.576 Q811.702 72.576 808.421 69.3758 Q805.139 66.1351 805.139 57.6282 L805.139 32.9987 L799.671 32.9987 L799.671 27.2059 L805.139 27.2059 L805.139 14.324 L812.633 14.324 Z" fill="#000000" fill-rule="nonzero" fill-opacity="1" /><path clip-path="url(#clip060)" d="M876.597 48.0275 L876.597 51.6733 L842.327 51.6733 Q842.813 59.3701 846.945 63.421 Q851.117 67.4314 858.53 67.4314 Q862.824 67.4314 866.835 66.3781 Q870.885 65.3249 874.855 63.2184 L874.855 70.267 Q870.845 71.9684 866.632 72.8596 Q862.419 73.7508 858.085 73.7508 Q847.228 73.7508 840.868 67.4314 Q834.549 61.1119 834.549 50.3365 Q834.549 39.1965 840.544 32.6746 Q846.58 26.1121 856.788 26.1121 Q865.943 26.1121 871.25 32.0264 Q876.597 37.9003 876.597 48.0275 M869.144 45.84 Q869.063 39.7232 865.7 36.0774 Q862.379 32.4315 856.869 32.4315 Q850.631 32.4315 846.864 35.9558 Q843.137 39.4801 842.57 45.8805 L869.144 45.84 Z" fill="#000000" fill-rule="nonzero" fill-opacity="1" /><path clip-path="url(#clip060)" d="M915.121 34.1734 Q913.866 33.4443 912.367 33.1202 Q910.908 32.7556 909.126 32.7556 Q902.807 32.7556 899.404 36.8875 Q896.042 40.9789 896.042 48.6757 L896.042 72.576 L888.547 72.576 L888.547 27.2059 L896.042 27.2059 L896.042 34.2544 Q898.391 30.1225 902.158 28.1376 Q905.926 26.1121 911.313 26.1121 Q912.083 26.1121 913.015 26.2337 Q913.947 26.3147 915.081 26.5172 L915.121 34.1734 Z" fill="#000000" fill-rule="nonzero" fill-opacity="1" /><path clip-path="url(#clip060)" d="M922.94 27.2059 L930.393 27.2059 L930.393 72.576 L922.94 72.576 L922.94 27.2059 M922.94 9.54393 L930.393 9.54393 L930.393 18.9825 L922.94 18.9825 L922.94 9.54393 Z" fill="#000000" fill-rule="nonzero" fill-opacity="1" /><path clip-path="url(#clip060)" d="M963.57 32.4315 Q957.575 32.4315 954.091 37.1306 Q950.607 41.7891 950.607 49.9314 Q950.607 58.0738 954.051 62.7728 Q957.534 67.4314 963.57 67.4314 Q969.525 67.4314 973.009 62.7323 Q976.493 58.0333 976.493 49.9314 Q976.493 41.8701 973.009 37.1711 Q969.525 32.4315 963.57 32.4315 M963.57 26.1121 Q973.292 26.1121 978.842 32.4315 Q984.392 38.7509 984.392 49.9314 Q984.392 61.0714 978.842 67.4314 Q973.292 73.7508 963.57 73.7508 Q953.807 73.7508 948.258 67.4314 Q942.749 61.0714 942.749 49.9314 Q942.749 38.7509 948.258 32.4315 Q953.807 26.1121 963.57 26.1121 Z" fill="#000000" fill-rule="nonzero" fill-opacity="1" /><path clip-path="url(#clip060)" d="M1023.04 34.1734 Q1021.78 33.4443 1020.28 33.1202 Q1018.82 32.7556 1017.04 32.7556 Q1010.72 32.7556 1007.32 36.8875 Q1003.96 40.9789 1003.96 48.6757 L1003.96 72.576 L996.463 72.576 L996.463 27.2059 L1003.96 27.2059 L1003.96 34.2544 Q1006.31 30.1225 1010.07 28.1376 Q1013.84 26.1121 1019.23 26.1121 Q1020 26.1121 1020.93 26.2337 Q1021.86 26.3147 1023 26.5172 L1023.04 34.1734 Z" fill="#000000" fill-rule="nonzero" fill-opacity="1" /><path clip-path="url(#clip060)" d="M1031.3 62.2867 L1039.85 62.2867 L1039.85 72.576 L1031.3 72.576 L1031.3 62.2867 M1031.3 29.6769 L1039.85 29.6769 L1039.85 39.9662 L1031.3 39.9662 L1031.3 29.6769 Z" fill="#000000" fill-rule="nonzero" fill-opacity="1" /><path clip-path="url(#clip060)" d="M1091.17 69.7809 L1091.17 89.8329 L1083.68 89.8329 L1083.68 27.4894 Q1083.68 9.01731 1100.94 9.01731 Q1118.52 9.01731 1118.52 24.6133 Q1118.52 35.7128 1111.55 39.7637 Q1122.89 43.4095 1122.89 54.2254 Q1122.89 73.4267 1103.37 73.4267 Q1094.78 73.4267 1091.17 69.7809 M1091.17 60.0587 Q1095.67 67.0668 1103.65 67.0668 Q1115.32 67.0668 1115.32 54.3469 Q1115.32 42.9234 1096.52 43.8146 L1096.52 36.928 Q1111.23 36.928 1111.23 23.9651 Q1111.23 15.0937 1101.75 15.0937 Q1091.17 15.0937 1091.17 27.7325 L1091.17 60.0587 Z" fill="#000000" fill-rule="nonzero" fill-opacity="1" /><path clip-path="url(#clip062)" d="M307.166 1055.11 L307.166 1063.09 L360.488 1063.09 L360.488 1055.11 L307.166 1055.11 L307.166 1055.11  Z" fill="#009af9" fill-rule="evenodd" fill-opacity="1"/>
<polyline clip-path="url(#clip062)" style="stroke:#000000; stroke-linecap:round; stroke-linejoin:round; stroke-width:4; stroke-opacity:1; fill:none" points="307.166,1055.11 307.166,1063.09 360.488,1063.09 360.488,1055.11 307.166,1055.11 "/>
<path clip-path="url(#clip062)" d="M360.488 1039.14 L360.488 1063.09 L413.811 1063.09 L413.811 1039.14 L360.488 1039.14 L360.488 1039.14  Z" fill="#009af9" fill-rule="evenodd" fill-opacity="1"/>
<polyline clip-path="url(#clip062)" style="stroke:#000000; stroke-linecap:round; stroke-linejoin:round; stroke-width:4; stroke-opacity:1; fill:none" points="360.488,1039.14 360.488,1063.09 413.811,1063.09 413.811,1039.14 360.488,1039.14 "/>
<path clip-path="url(#clip062)" d="M413.811 1015.19 L413.811 1063.09 L467.133 1063.09 L467.133 1015.19 L413.811 1015.19 L413.811 1015.19  Z" fill="#009af9" fill-rule="evenodd" fill-opacity="1"/>
<polyline clip-path="url(#clip062)" style="stroke:#000000; stroke-linecap:round; stroke-linejoin:round; stroke-width:4; stroke-opacity:1; fill:none" points="413.811,1015.19 413.811,1063.09 467.133,1063.09 467.133,1015.19 413.811,1015.19 "/>
<path clip-path="url(#clip062)" d="M467.133 919.376 L467.133 1063.09 L520.455 1063.09 L520.455 919.376 L467.133 919.376 L467.133 919.376  Z" fill="#009af9" fill-rule="evenodd" fill-opacity="1"/>
<polyline clip-path="url(#clip062)" style="stroke:#000000; stroke-linecap:round; stroke-linejoin:round; stroke-width:4; stroke-opacity:1; fill:none" points="467.133,919.376 467.133,1063.09 520.455,1063.09 520.455,919.376 467.133,919.376 "/>
<path clip-path="url(#clip062)" d="M520.455 879.455 L520.455 1063.09 L573.778 1063.09 L573.778 879.455 L520.455 879.455 L520.455 879.455  Z" fill="#009af9" fill-rule="evenodd" fill-opacity="1"/>
<polyline clip-path="url(#clip062)" style="stroke:#000000; stroke-linecap:round; stroke-linejoin:round; stroke-width:4; stroke-opacity:1; fill:none" points="520.455,879.455 520.455,1063.09 573.778,1063.09 573.778,879.455 520.455,879.455 "/>
<path clip-path="url(#clip062)" d="M573.778 767.678 L573.778 1063.09 L627.1 1063.09 L627.1 767.678 L573.778 767.678 L573.778 767.678  Z" fill="#009af9" fill-rule="evenodd" fill-opacity="1"/>
<polyline clip-path="url(#clip062)" style="stroke:#000000; stroke-linecap:round; stroke-linejoin:round; stroke-width:4; stroke-opacity:1; fill:none" points="573.778,767.678 573.778,1063.09 627.1,1063.09 627.1,767.678 573.778,767.678 "/>
<path clip-path="url(#clip062)" d="M627.1 743.725 L627.1 1063.09 L680.423 1063.09 L680.423 743.725 L627.1 743.725 L627.1 743.725  Z" fill="#009af9" fill-rule="evenodd" fill-opacity="1"/>
<polyline clip-path="url(#clip062)" style="stroke:#000000; stroke-linecap:round; stroke-linejoin:round; stroke-width:4; stroke-opacity:1; fill:none" points="627.1,743.725 627.1,1063.09 680.423,1063.09 680.423,743.725 627.1,743.725 "/>
<path clip-path="url(#clip062)" d="M680.423 719.773 L680.423 1063.09 L733.745 1063.09 L733.745 719.773 L680.423 719.773 L680.423 719.773  Z" fill="#009af9" fill-rule="evenodd" fill-opacity="1"/>
<polyline clip-path="url(#clip062)" style="stroke:#000000; stroke-linecap:round; stroke-linejoin:round; stroke-width:4; stroke-opacity:1; fill:none" points="680.423,719.773 680.423,1063.09 733.745,1063.09 733.745,719.773 680.423,719.773 "/>
<path clip-path="url(#clip062)" d="M733.745 392.424 L733.745 1063.09 L787.067 1063.09 L787.067 392.424 L733.745 392.424 L733.745 392.424  Z" fill="#009af9" fill-rule="evenodd" fill-opacity="1"/>
<polyline clip-path="url(#clip062)" style="stroke:#000000; stroke-linecap:round; stroke-linejoin:round; stroke-width:4; stroke-opacity:1; fill:none" points="733.745,392.424 733.745,1063.09 787.067,1063.09 787.067,392.424 733.745,392.424 "/>
<path clip-path="url(#clip062)" d="M787.067 432.345 L787.067 1063.09 L840.39 1063.09 L840.39 432.345 L787.067 432.345 L787.067 432.345  Z" fill="#009af9" fill-rule="evenodd" fill-opacity="1"/>
<polyline clip-path="url(#clip062)" style="stroke:#000000; stroke-linecap:round; stroke-linejoin:round; stroke-width:4; stroke-opacity:1; fill:none" points="787.067,432.345 787.067,1063.09 840.39,1063.09 840.39,432.345 787.067,432.345 "/>
<path clip-path="url(#clip062)" d="M840.39 424.361 L840.39 1063.09 L893.712 1063.09 L893.712 424.361 L840.39 424.361 L840.39 424.361  Z" fill="#009af9" fill-rule="evenodd" fill-opacity="1"/>
<polyline clip-path="url(#clip062)" style="stroke:#000000; stroke-linecap:round; stroke-linejoin:round; stroke-width:4; stroke-opacity:1; fill:none" points="840.39,424.361 840.39,1063.09 893.712,1063.09 893.712,424.361 840.39,424.361 "/>
<path clip-path="url(#clip062)" d="M893.712 128.949 L893.712 1063.09 L947.035 1063.09 L947.035 128.949 L893.712 128.949 L893.712 128.949  Z" fill="#009af9" fill-rule="evenodd" fill-opacity="1"/>
<polyline clip-path="url(#clip062)" style="stroke:#000000; stroke-linecap:round; stroke-linejoin:round; stroke-width:4; stroke-opacity:1; fill:none" points="893.712,128.949 893.712,1063.09 947.035,1063.09 947.035,128.949 893.712,128.949 "/>
<path clip-path="url(#clip062)" d="M947.035 184.837 L947.035 1063.09 L1000.36 1063.09 L1000.36 184.837 L947.035 184.837 L947.035 184.837  Z" fill="#009af9" fill-rule="evenodd" fill-opacity="1"/>
<polyline clip-path="url(#clip062)" style="stroke:#000000; stroke-linecap:round; stroke-linejoin:round; stroke-width:4; stroke-opacity:1; fill:none" points="947.035,184.837 947.035,1063.09 1000.36,1063.09 1000.36,184.837 947.035,184.837 "/>
<path clip-path="url(#clip062)" d="M1000.36 424.361 L1000.36 1063.09 L1053.68 1063.09 L1053.68 424.361 L1000.36 424.361 L1000.36 424.361  Z" fill="#009af9" fill-rule="evenodd" fill-opacity="1"/>
<polyline clip-path="url(#clip062)" style="stroke:#000000; stroke-linecap:round; stroke-linejoin:round; stroke-width:4; stroke-opacity:1; fill:none" points="1000.36,424.361 1000.36,1063.09 1053.68,1063.09 1053.68,424.361 1000.36,424.361 "/>
<path clip-path="url(#clip062)" d="M1053.68 97.0121 L1053.68 1063.09 L1107 1063.09 L1107 97.0121 L1053.68 97.0121 L1053.68 97.0121  Z" fill="#009af9" fill-rule="evenodd" fill-opacity="1"/>
<polyline clip-path="url(#clip062)" style="stroke:#000000; stroke-linecap:round; stroke-linejoin:round; stroke-width:4; stroke-opacity:1; fill:none" points="1053.68,97.0121 1053.68,1063.09 1107,1063.09 1107,97.0121 1053.68,97.0121 "/>
<path clip-path="url(#clip062)" d="M1107 408.393 L1107 1063.09 L1160.32 1063.09 L1160.32 408.393 L1107 408.393 L1107 408.393  Z" fill="#009af9" fill-rule="evenodd" fill-opacity="1"/>
<polyline clip-path="url(#clip062)" style="stroke:#000000; stroke-linecap:round; stroke-linejoin:round; stroke-width:4; stroke-opacity:1; fill:none" points="1107,408.393 1107,1063.09 1160.32,1063.09 1160.32,408.393 1107,408.393 "/>
<path clip-path="url(#clip062)" d="M1160.32 392.424 L1160.32 1063.09 L1213.65 1063.09 L1213.65 392.424 L1160.32 392.424 L1160.32 392.424  Z" fill="#009af9" fill-rule="evenodd" fill-opacity="1"/>
<polyline clip-path="url(#clip062)" style="stroke:#000000; stroke-linecap:round; stroke-linejoin:round; stroke-width:4; stroke-opacity:1; fill:none" points="1160.32,392.424 1160.32,1063.09 1213.65,1063.09 1213.65,392.424 1160.32,392.424 "/>
<path clip-path="url(#clip062)" d="M1213.65 615.979 L1213.65 1063.09 L1266.97 1063.09 L1266.97 615.979 L1213.65 615.979 L1213.65 615.979  Z" fill="#009af9" fill-rule="evenodd" fill-opacity="1"/>
<polyline clip-path="url(#clip062)" style="stroke:#000000; stroke-linecap:round; stroke-linejoin:round; stroke-width:4; stroke-opacity:1; fill:none" points="1213.65,615.979 1213.65,1063.09 1266.97,1063.09 1266.97,615.979 1213.65,615.979 "/>
<path clip-path="url(#clip062)" d="M1266.97 528.154 L1266.97 1063.09 L1320.29 1063.09 L1320.29 528.154 L1266.97 528.154 L1266.97 528.154  Z" fill="#009af9" fill-rule="evenodd" fill-opacity="1"/>
<polyline clip-path="url(#clip062)" style="stroke:#000000; stroke-linecap:round; stroke-linejoin:round; stroke-width:4; stroke-opacity:1; fill:none" points="1266.97,528.154 1266.97,1063.09 1320.29,1063.09 1320.29,528.154 1266.97,528.154 "/>
<path clip-path="url(#clip062)" d="M1320.29 639.932 L1320.29 1063.09 L1373.61 1063.09 L1373.61 639.932 L1320.29 639.932 L1320.29 639.932  Z" fill="#009af9" fill-rule="evenodd" fill-opacity="1"/>
<polyline clip-path="url(#clip062)" style="stroke:#000000; stroke-linecap:round; stroke-linejoin:round; stroke-width:4; stroke-opacity:1; fill:none" points="1320.29,639.932 1320.29,1063.09 1373.61,1063.09 1373.61,639.932 1320.29,639.932 "/>
<path clip-path="url(#clip062)" d="M1373.61 959.296 L1373.61 1063.09 L1426.94 1063.09 L1426.94 959.296 L1373.61 959.296 L1373.61 959.296  Z" fill="#009af9" fill-rule="evenodd" fill-opacity="1"/>
<polyline clip-path="url(#clip062)" style="stroke:#000000; stroke-linecap:round; stroke-linejoin:round; stroke-width:4; stroke-opacity:1; fill:none" points="1373.61,959.296 1373.61,1063.09 1426.94,1063.09 1426.94,959.296 1373.61,959.296 "/>
<path clip-path="url(#clip062)" d="M1426.94 1039.14 L1426.94 1063.09 L1480.26 1063.09 L1480.26 1039.14 L1426.94 1039.14 L1426.94 1039.14  Z" fill="#009af9" fill-rule="evenodd" fill-opacity="1"/>
<polyline clip-path="url(#clip062)" style="stroke:#000000; stroke-linecap:round; stroke-linejoin:round; stroke-width:4; stroke-opacity:1; fill:none" points="1426.94,1039.14 1426.94,1063.09 1480.26,1063.09 1480.26,1039.14 1426.94,1039.14 "/>
<circle clip-path="url(#clip062)" style="fill:#009af9; stroke:none; fill-opacity:0" cx="333.827" cy="1055.11" r="2"/>
<circle clip-path="url(#clip062)" style="fill:#009af9; stroke:none; fill-opacity:0" cx="387.149" cy="1039.14" r="2"/>
<circle clip-path="url(#clip062)" style="fill:#009af9; stroke:none; fill-opacity:0" cx="440.472" cy="1015.19" r="2"/>
<circle clip-path="url(#clip062)" style="fill:#009af9; stroke:none; fill-opacity:0" cx="493.794" cy="919.376" r="2"/>
<circle clip-path="url(#clip062)" style="fill:#009af9; stroke:none; fill-opacity:0" cx="547.117" cy="879.455" r="2"/>
<circle clip-path="url(#clip062)" style="fill:#009af9; stroke:none; fill-opacity:0" cx="600.439" cy="767.678" r="2"/>
<circle clip-path="url(#clip062)" style="fill:#009af9; stroke:none; fill-opacity:0" cx="653.761" cy="743.725" r="2"/>
<circle clip-path="url(#clip062)" style="fill:#009af9; stroke:none; fill-opacity:0" cx="707.084" cy="719.773" r="2"/>
<circle clip-path="url(#clip062)" style="fill:#009af9; stroke:none; fill-opacity:0" cx="760.406" cy="392.424" r="2"/>
<circle clip-path="url(#clip062)" style="fill:#009af9; stroke:none; fill-opacity:0" cx="813.729" cy="432.345" r="2"/>
<circle clip-path="url(#clip062)" style="fill:#009af9; stroke:none; fill-opacity:0" cx="867.051" cy="424.361" r="2"/>
<circle clip-path="url(#clip062)" style="fill:#009af9; stroke:none; fill-opacity:0" cx="920.374" cy="128.949" r="2"/>
<circle clip-path="url(#clip062)" style="fill:#009af9; stroke:none; fill-opacity:0" cx="973.696" cy="184.837" r="2"/>
<circle clip-path="url(#clip062)" style="fill:#009af9; stroke:none; fill-opacity:0" cx="1027.02" cy="424.361" r="2"/>
<circle clip-path="url(#clip062)" style="fill:#009af9; stroke:none; fill-opacity:0" cx="1080.34" cy="97.0121" r="2"/>
<circle clip-path="url(#clip062)" style="fill:#009af9; stroke:none; fill-opacity:0" cx="1133.66" cy="408.393" r="2"/>
<circle clip-path="url(#clip062)" style="fill:#009af9; stroke:none; fill-opacity:0" cx="1186.99" cy="392.424" r="2"/>
<circle clip-path="url(#clip062)" style="fill:#009af9; stroke:none; fill-opacity:0" cx="1240.31" cy="615.979" r="2"/>
<circle clip-path="url(#clip062)" style="fill:#009af9; stroke:none; fill-opacity:0" cx="1293.63" cy="528.154" r="2"/>
<circle clip-path="url(#clip062)" style="fill:#009af9; stroke:none; fill-opacity:0" cx="1346.95" cy="639.932" r="2"/>
<circle clip-path="url(#clip062)" style="fill:#009af9; stroke:none; fill-opacity:0" cx="1400.28" cy="959.296" r="2"/>
<circle clip-path="url(#clip062)" style="fill:#009af9; stroke:none; fill-opacity:0" cx="1453.6" cy="1039.14" r="2"/>
<polyline clip-path="url(#clip062)" style="stroke:#ff0000; stroke-linecap:round; stroke-linejoin:round; stroke-width:8; stroke-opacity:1; fill:none" points="840.39,2029.17 840.39,-869.066 "/>
<path clip-path="url(#clip060)" d="M1278.7 232.895 L1508.82 232.895 L1508.82 129.215 L1278.7 129.215  Z" fill="#ffffff" fill-rule="evenodd" fill-opacity="1"/>
<polyline clip-path="url(#clip060)" style="stroke:#000000; stroke-linecap:round; stroke-linejoin:round; stroke-width:4; stroke-opacity:1; fill:none" points="1278.7,232.895 1508.82,232.895 1508.82,129.215 1278.7,129.215 1278.7,232.895 "/>
<polyline clip-path="url(#clip060)" style="stroke:#ff0000; stroke-linecap:round; stroke-linejoin:round; stroke-width:8; stroke-opacity:1; fill:none" points="1293.35,181.055 1381.22,181.055 "/>
<path clip-path="url(#clip060)" d="M1395.86 163.775 L1425.1 163.775 L1425.1 167.71 L1412.83 167.71 L1412.83 198.335 L1408.13 198.335 L1408.13 167.71 L1395.86 167.71 L1395.86 163.775 Z" fill="#000000" fill-rule="nonzero" fill-opacity="1" /><path clip-path="url(#clip060)" d="M1437.48 176.39 Q1436.77 175.974 1435.91 175.789 Q1435.08 175.58 1434.06 175.58 Q1430.45 175.58 1428.5 177.941 Q1426.58 180.279 1426.58 184.677 L1426.58 198.335 L1422.3 198.335 L1422.3 172.409 L1426.58 172.409 L1426.58 176.437 Q1427.92 174.076 1430.08 172.941 Q1432.23 171.784 1435.31 171.784 Q1435.75 171.784 1436.28 171.853 Q1436.81 171.9 1437.46 172.015 L1437.48 176.39 Z" fill="#000000" fill-rule="nonzero" fill-opacity="1" /><path clip-path="url(#clip060)" d="M1441.51 188.103 L1441.51 172.409 L1445.77 172.409 L1445.77 187.941 Q1445.77 191.622 1447.21 193.474 Q1448.64 195.302 1451.51 195.302 Q1454.96 195.302 1456.95 193.103 Q1458.97 190.904 1458.97 187.108 L1458.97 172.409 L1463.23 172.409 L1463.23 198.335 L1458.97 198.335 L1458.97 194.353 Q1457.42 196.714 1455.36 197.872 Q1453.32 199.006 1450.61 199.006 Q1446.14 199.006 1443.83 196.228 Q1441.51 193.45 1441.51 188.103 M1452.23 171.784 L1452.23 171.784 Z" fill="#000000" fill-rule="nonzero" fill-opacity="1" /><path clip-path="url(#clip060)" d="M1494.17 184.307 L1494.17 186.39 L1474.59 186.39 Q1474.87 190.788 1477.23 193.103 Q1479.61 195.395 1483.85 195.395 Q1486.3 195.395 1488.6 194.793 Q1490.91 194.191 1493.18 192.988 L1493.18 197.015 Q1490.89 197.987 1488.48 198.497 Q1486.07 199.006 1483.6 199.006 Q1477.39 199.006 1473.76 195.395 Q1470.15 191.784 1470.15 185.626 Q1470.15 179.261 1473.57 175.534 Q1477.02 171.784 1482.85 171.784 Q1488.09 171.784 1491.12 175.164 Q1494.17 178.52 1494.17 184.307 M1489.92 183.057 Q1489.87 179.562 1487.95 177.478 Q1486.05 175.395 1482.9 175.395 Q1479.34 175.395 1477.18 177.409 Q1475.05 179.423 1474.73 183.08 L1489.92 183.057 Z" fill="#000000" fill-rule="nonzero" fill-opacity="1" /><path clip-path="url(#clip060)" d="M1834.67 1063.09 L3152.76 1063.09 L3152.76 97.0121 L1834.67 97.0121  Z" fill="#ffffff" fill-rule="evenodd" fill-opacity="1"/>
<polyline clip-path="url(#clip061)" style="stroke:#000000; stroke-linecap:round; stroke-linejoin:round; stroke-width:2; stroke-opacity:0.1; fill:none" points="2037.51,1063.09 2037.51,97.0121 "/>
<polyline clip-path="url(#clip061)" style="stroke:#000000; stroke-linecap:round; stroke-linejoin:round; stroke-width:2; stroke-opacity:0.1; fill:none" points="2363.37,1063.09 2363.37,97.0121 "/>
<polyline clip-path="url(#clip061)" style="stroke:#000000; stroke-linecap:round; stroke-linejoin:round; stroke-width:2; stroke-opacity:0.1; fill:none" points="2689.23,1063.09 2689.23,97.0121 "/>
<polyline clip-path="url(#clip061)" style="stroke:#000000; stroke-linecap:round; stroke-linejoin:round; stroke-width:2; stroke-opacity:0.1; fill:none" points="3015.09,1063.09 3015.09,97.0121 "/>
<polyline clip-path="url(#clip061)" style="stroke:#000000; stroke-linecap:round; stroke-linejoin:round; stroke-width:2; stroke-opacity:0.1; fill:none" points="1834.67,1063.09 3152.76,1063.09 "/>
<polyline clip-path="url(#clip061)" style="stroke:#000000; stroke-linecap:round; stroke-linejoin:round; stroke-width:2; stroke-opacity:0.1; fill:none" points="1834.67,869.874 3152.76,869.874 "/>
<polyline clip-path="url(#clip061)" style="stroke:#000000; stroke-linecap:round; stroke-linejoin:round; stroke-width:2; stroke-opacity:0.1; fill:none" points="1834.67,676.659 3152.76,676.659 "/>
<polyline clip-path="url(#clip061)" style="stroke:#000000; stroke-linecap:round; stroke-linejoin:round; stroke-width:2; stroke-opacity:0.1; fill:none" points="1834.67,483.443 3152.76,483.443 "/>
<polyline clip-path="url(#clip061)" style="stroke:#000000; stroke-linecap:round; stroke-linejoin:round; stroke-width:2; stroke-opacity:0.1; fill:none" points="1834.67,290.228 3152.76,290.228 "/>
<polyline clip-path="url(#clip061)" style="stroke:#000000; stroke-linecap:round; stroke-linejoin:round; stroke-width:2; stroke-opacity:0.1; fill:none" points="1834.67,97.0121 3152.76,97.0121 "/>
<polyline clip-path="url(#clip060)" style="stroke:#000000; stroke-linecap:round; stroke-linejoin:round; stroke-width:4; stroke-opacity:1; fill:none" points="1834.67,1063.09 3152.76,1063.09 "/>
<polyline clip-path="url(#clip060)" style="stroke:#000000; stroke-linecap:round; stroke-linejoin:round; stroke-width:4; stroke-opacity:1; fill:none" points="2037.51,1063.09 2037.51,1044.19 "/>
<polyline clip-path="url(#clip060)" style="stroke:#000000; stroke-linecap:round; stroke-linejoin:round; stroke-width:4; stroke-opacity:1; fill:none" points="2363.37,1063.09 2363.37,1044.19 "/>
<polyline clip-path="url(#clip060)" style="stroke:#000000; stroke-linecap:round; stroke-linejoin:round; stroke-width:4; stroke-opacity:1; fill:none" points="2689.23,1063.09 2689.23,1044.19 "/>
<polyline clip-path="url(#clip060)" style="stroke:#000000; stroke-linecap:round; stroke-linejoin:round; stroke-width:4; stroke-opacity:1; fill:none" points="3015.09,1063.09 3015.09,1044.19 "/>
<path clip-path="url(#clip060)" d="M2000.31 1100.41 Q1996.7 1100.41 1994.87 1103.97 Q1993.07 1107.51 1993.07 1114.64 Q1993.07 1121.75 1994.87 1125.32 Q1996.7 1128.86 2000.31 1128.86 Q2003.94 1128.86 2005.75 1125.32 Q2007.58 1121.75 2007.58 1114.64 Q2007.58 1107.51 2005.75 1103.97 Q2003.94 1100.41 2000.31 1100.41 M2000.31 1096.7 Q2006.12 1096.7 2009.18 1101.31 Q2012.26 1105.89 2012.26 1114.64 Q2012.26 1123.37 2009.18 1127.98 Q2006.12 1132.56 2000.31 1132.56 Q1994.5 1132.56 1991.42 1127.98 Q1988.37 1123.37 1988.37 1114.64 Q1988.37 1105.89 1991.42 1101.31 Q1994.5 1096.7 2000.31 1096.7 Z" fill="#000000" fill-rule="nonzero" fill-opacity="1" /><path clip-path="url(#clip060)" d="M2020.47 1126.01 L2025.36 1126.01 L2025.36 1131.89 L2020.47 1131.89 L2020.47 1126.01 Z" fill="#000000" fill-rule="nonzero" fill-opacity="1" /><path clip-path="url(#clip060)" d="M2045.54 1100.41 Q2041.93 1100.41 2040.1 1103.97 Q2038.3 1107.51 2038.3 1114.64 Q2038.3 1121.75 2040.1 1125.32 Q2041.93 1128.86 2045.54 1128.86 Q2049.18 1128.86 2050.98 1125.32 Q2052.81 1121.75 2052.81 1114.64 Q2052.81 1107.51 2050.98 1103.97 Q2049.18 1100.41 2045.54 1100.41 M2045.54 1096.7 Q2051.35 1096.7 2054.41 1101.31 Q2057.49 1105.89 2057.49 1114.64 Q2057.49 1123.37 2054.41 1127.98 Q2051.35 1132.56 2045.54 1132.56 Q2039.73 1132.56 2036.65 1127.98 Q2033.6 1123.37 2033.6 1114.64 Q2033.6 1105.89 2036.65 1101.31 Q2039.73 1096.7 2045.54 1096.7 Z" fill="#000000" fill-rule="nonzero" fill-opacity="1" /><path clip-path="url(#clip060)" d="M2065.75 1097.33 L2084.11 1097.33 L2084.11 1101.27 L2070.03 1101.27 L2070.03 1109.74 Q2071.05 1109.39 2072.07 1109.23 Q2073.09 1109.04 2074.11 1109.04 Q2079.89 1109.04 2083.27 1112.21 Q2086.65 1115.39 2086.65 1120.8 Q2086.65 1126.38 2083.18 1129.48 Q2079.71 1132.56 2073.39 1132.56 Q2071.21 1132.56 2068.94 1132.19 Q2066.7 1131.82 2064.29 1131.08 L2064.29 1126.38 Q2066.38 1127.51 2068.6 1128.07 Q2070.82 1128.63 2073.3 1128.63 Q2077.3 1128.63 2079.64 1126.52 Q2081.98 1124.41 2081.98 1120.8 Q2081.98 1117.19 2079.64 1115.08 Q2077.3 1112.98 2073.3 1112.98 Q2071.42 1112.98 2069.55 1113.39 Q2067.69 1113.81 2065.75 1114.69 L2065.75 1097.33 Z" fill="#000000" fill-rule="nonzero" fill-opacity="1" /><path clip-path="url(#clip060)" d="M2325.67 1100.41 Q2322.06 1100.41 2320.23 1103.97 Q2318.43 1107.51 2318.43 1114.64 Q2318.43 1121.75 2320.23 1125.32 Q2322.06 1128.86 2325.67 1128.86 Q2329.31 1128.86 2331.11 1125.32 Q2332.94 1121.75 2332.94 1114.64 Q2332.94 1107.51 2331.11 1103.97 Q2329.31 1100.41 2325.67 1100.41 M2325.67 1096.7 Q2331.48 1096.7 2334.54 1101.31 Q2337.62 1105.89 2337.62 1114.64 Q2337.62 1123.37 2334.54 1127.98 Q2331.48 1132.56 2325.67 1132.56 Q2319.86 1132.56 2316.78 1127.98 Q2313.73 1123.37 2313.73 1114.64 Q2313.73 1105.89 2316.78 1101.31 Q2319.86 1096.7 2325.67 1096.7 Z" fill="#000000" fill-rule="nonzero" fill-opacity="1" /><path clip-path="url(#clip060)" d="M2345.83 1126.01 L2350.72 1126.01 L2350.72 1131.89 L2345.83 1131.89 L2345.83 1126.01 Z" fill="#000000" fill-rule="nonzero" fill-opacity="1" /><path clip-path="url(#clip060)" d="M2361.71 1127.95 L2369.35 1127.95 L2369.35 1101.59 L2361.04 1103.26 L2361.04 1099 L2369.31 1097.33 L2373.98 1097.33 L2373.98 1127.95 L2381.62 1127.95 L2381.62 1131.89 L2361.71 1131.89 L2361.71 1127.95 Z" fill="#000000" fill-rule="nonzero" fill-opacity="1" /><path clip-path="url(#clip060)" d="M2401.07 1100.41 Q2397.45 1100.41 2395.63 1103.97 Q2393.82 1107.51 2393.82 1114.64 Q2393.82 1121.75 2395.63 1125.32 Q2397.45 1128.86 2401.07 1128.86 Q2404.7 1128.86 2406.5 1125.32 Q2408.33 1121.75 2408.33 1114.64 Q2408.33 1107.51 2406.5 1103.97 Q2404.7 1100.41 2401.07 1100.41 M2401.07 1096.7 Q2406.88 1096.7 2409.93 1101.31 Q2413.01 1105.89 2413.01 1114.64 Q2413.01 1123.37 2409.93 1127.98 Q2406.88 1132.56 2401.07 1132.56 Q2395.26 1132.56 2392.18 1127.98 Q2389.12 1123.37 2389.12 1114.64 Q2389.12 1105.89 2392.18 1101.31 Q2395.26 1096.7 2401.07 1096.7 Z" fill="#000000" fill-rule="nonzero" fill-opacity="1" /><path clip-path="url(#clip060)" d="M2652.03 1100.41 Q2648.42 1100.41 2646.59 1103.97 Q2644.78 1107.51 2644.78 1114.64 Q2644.78 1121.75 2646.59 1125.32 Q2648.42 1128.86 2652.03 1128.86 Q2655.66 1128.86 2657.47 1125.32 Q2659.3 1121.75 2659.3 1114.64 Q2659.3 1107.51 2657.47 1103.97 Q2655.66 1100.41 2652.03 1100.41 M2652.03 1096.7 Q2657.84 1096.7 2660.89 1101.31 Q2663.97 1105.89 2663.97 1114.64 Q2663.97 1123.37 2660.89 1127.98 Q2657.84 1132.56 2652.03 1132.56 Q2646.22 1132.56 2643.14 1127.98 Q2640.08 1123.37 2640.08 1114.64 Q2640.08 1105.89 2643.14 1101.31 Q2646.22 1096.7 2652.03 1096.7 Z" fill="#000000" fill-rule="nonzero" fill-opacity="1" /><path clip-path="url(#clip060)" d="M2672.19 1126.01 L2677.08 1126.01 L2677.08 1131.89 L2672.19 1131.89 L2672.19 1126.01 Z" fill="#000000" fill-rule="nonzero" fill-opacity="1" /><path clip-path="url(#clip060)" d="M2688.07 1127.95 L2695.71 1127.95 L2695.71 1101.59 L2687.4 1103.26 L2687.4 1099 L2695.66 1097.33 L2700.34 1097.33 L2700.34 1127.95 L2707.98 1127.95 L2707.98 1131.89 L2688.07 1131.89 L2688.07 1127.95 Z" fill="#000000" fill-rule="nonzero" fill-opacity="1" /><path clip-path="url(#clip060)" d="M2717.47 1097.33 L2735.82 1097.33 L2735.82 1101.27 L2721.75 1101.27 L2721.75 1109.74 Q2722.77 1109.39 2723.79 1109.23 Q2724.81 1109.04 2725.82 1109.04 Q2731.61 1109.04 2734.99 1112.21 Q2738.37 1115.39 2738.37 1120.8 Q2738.37 1126.38 2734.9 1129.48 Q2731.43 1132.56 2725.11 1132.56 Q2722.93 1132.56 2720.66 1132.19 Q2718.42 1131.82 2716.01 1131.08 L2716.01 1126.38 Q2718.09 1127.51 2720.32 1128.07 Q2722.54 1128.63 2725.01 1128.63 Q2729.02 1128.63 2731.36 1126.52 Q2733.7 1124.41 2733.7 1120.8 Q2733.7 1117.19 2731.36 1115.08 Q2729.02 1112.98 2725.01 1112.98 Q2723.14 1112.98 2721.26 1113.39 Q2719.41 1113.81 2717.47 1114.69 L2717.47 1097.33 Z" fill="#000000" fill-rule="nonzero" fill-opacity="1" /><path clip-path="url(#clip060)" d="M2977.39 1100.41 Q2973.78 1100.41 2971.95 1103.97 Q2970.15 1107.51 2970.15 1114.64 Q2970.15 1121.75 2971.95 1125.32 Q2973.78 1128.86 2977.39 1128.86 Q2981.02 1128.86 2982.83 1125.32 Q2984.66 1121.75 2984.66 1114.64 Q2984.66 1107.51 2982.83 1103.97 Q2981.02 1100.41 2977.39 1100.41 M2977.39 1096.7 Q2983.2 1096.7 2986.26 1101.31 Q2989.33 1105.89 2989.33 1114.64 Q2989.33 1123.37 2986.26 1127.98 Q2983.2 1132.56 2977.39 1132.56 Q2971.58 1132.56 2968.5 1127.98 Q2965.45 1123.37 2965.45 1114.64 Q2965.45 1105.89 2968.5 1101.31 Q2971.58 1096.7 2977.39 1096.7 Z" fill="#000000" fill-rule="nonzero" fill-opacity="1" /><path clip-path="url(#clip060)" d="M2997.55 1126.01 L3002.44 1126.01 L3002.44 1131.89 L2997.55 1131.89 L2997.55 1126.01 Z" fill="#000000" fill-rule="nonzero" fill-opacity="1" /><path clip-path="url(#clip060)" d="M3016.65 1127.95 L3032.97 1127.95 L3032.97 1131.89 L3011.02 1131.89 L3011.02 1127.95 Q3013.69 1125.2 3018.27 1120.57 Q3022.88 1115.92 3024.06 1114.58 Q3026.3 1112.05 3027.18 1110.32 Q3028.08 1108.56 3028.08 1106.87 Q3028.08 1104.11 3026.14 1102.38 Q3024.22 1100.64 3021.12 1100.64 Q3018.92 1100.64 3016.46 1101.4 Q3014.03 1102.17 3011.26 1103.72 L3011.26 1099 Q3014.08 1097.86 3016.53 1097.28 Q3018.99 1096.7 3021.02 1096.7 Q3026.39 1096.7 3029.59 1099.39 Q3032.78 1102.08 3032.78 1106.57 Q3032.78 1108.7 3031.97 1110.62 Q3031.19 1112.51 3029.08 1115.11 Q3028.5 1115.78 3025.4 1119 Q3022.3 1122.19 3016.65 1127.95 Z" fill="#000000" fill-rule="nonzero" fill-opacity="1" /><path clip-path="url(#clip060)" d="M3052.78 1100.41 Q3049.17 1100.41 3047.34 1103.97 Q3045.54 1107.51 3045.54 1114.64 Q3045.54 1121.75 3047.34 1125.32 Q3049.17 1128.86 3052.78 1128.86 Q3056.42 1128.86 3058.22 1125.32 Q3060.05 1121.75 3060.05 1114.64 Q3060.05 1107.51 3058.22 1103.97 Q3056.42 1100.41 3052.78 1100.41 M3052.78 1096.7 Q3058.59 1096.7 3061.65 1101.31 Q3064.73 1105.89 3064.73 1114.64 Q3064.73 1123.37 3061.65 1127.98 Q3058.59 1132.56 3052.78 1132.56 Q3046.97 1132.56 3043.89 1127.98 Q3040.84 1123.37 3040.84 1114.64 Q3040.84 1105.89 3043.89 1101.31 Q3046.97 1096.7 3052.78 1096.7 Z" fill="#000000" fill-rule="nonzero" fill-opacity="1" /><path clip-path="url(#clip060)" d="M2486.38 1189.91 L2494.17 1211.93 L2505.31 1184.31 L2511.52 1184.31 L2497.1 1219.95 L2497.1 1233.51 L2491.25 1233.51 L2491.25 1219.95 L2481.89 1193.35 Q2480.49 1189.33 2477.46 1189.33 L2475.9 1189.33 L2475.9 1184.31 L2478.13 1184.31 Q2484.4 1184.31 2486.38 1189.91 Z" fill="#000000" fill-rule="nonzero" fill-opacity="1" /><polyline clip-path="url(#clip060)" style="stroke:#000000; stroke-linecap:round; stroke-linejoin:round; stroke-width:4; stroke-opacity:1; fill:none" points="1834.67,1063.09 1834.67,97.0121 "/>
<polyline clip-path="url(#clip060)" style="stroke:#000000; stroke-linecap:round; stroke-linejoin:round; stroke-width:4; stroke-opacity:1; fill:none" points="1834.67,1063.09 1853.57,1063.09 "/>
<polyline clip-path="url(#clip060)" style="stroke:#000000; stroke-linecap:round; stroke-linejoin:round; stroke-width:4; stroke-opacity:1; fill:none" points="1834.67,869.874 1853.57,869.874 "/>
<polyline clip-path="url(#clip060)" style="stroke:#000000; stroke-linecap:round; stroke-linejoin:round; stroke-width:4; stroke-opacity:1; fill:none" points="1834.67,676.659 1853.57,676.659 "/>
<polyline clip-path="url(#clip060)" style="stroke:#000000; stroke-linecap:round; stroke-linejoin:round; stroke-width:4; stroke-opacity:1; fill:none" points="1834.67,483.443 1853.57,483.443 "/>
<polyline clip-path="url(#clip060)" style="stroke:#000000; stroke-linecap:round; stroke-linejoin:round; stroke-width:4; stroke-opacity:1; fill:none" points="1834.67,290.228 1853.57,290.228 "/>
<polyline clip-path="url(#clip060)" style="stroke:#000000; stroke-linecap:round; stroke-linejoin:round; stroke-width:4; stroke-opacity:1; fill:none" points="1834.67,97.0121 1853.57,97.0121 "/>
<path clip-path="url(#clip060)" d="M1729.49 1048.89 Q1725.88 1048.89 1724.05 1052.45 Q1722.25 1055.99 1722.25 1063.12 Q1722.25 1070.23 1724.05 1073.8 Q1725.88 1077.34 1729.49 1077.34 Q1733.13 1077.34 1734.93 1073.8 Q1736.76 1070.23 1736.76 1063.12 Q1736.76 1055.99 1734.93 1052.45 Q1733.13 1048.89 1729.49 1048.89 M1729.49 1045.18 Q1735.3 1045.18 1738.36 1049.79 Q1741.44 1054.37 1741.44 1063.12 Q1741.44 1071.85 1738.36 1076.46 Q1735.3 1081.04 1729.49 1081.04 Q1723.68 1081.04 1720.6 1076.46 Q1717.55 1071.85 1717.55 1063.12 Q1717.55 1054.37 1720.6 1049.79 Q1723.68 1045.18 1729.49 1045.18 Z" fill="#000000" fill-rule="nonzero" fill-opacity="1" /><path clip-path="url(#clip060)" d="M1749.66 1074.49 L1754.54 1074.49 L1754.54 1080.37 L1749.66 1080.37 L1749.66 1074.49 Z" fill="#000000" fill-rule="nonzero" fill-opacity="1" /><path clip-path="url(#clip060)" d="M1774.72 1048.89 Q1771.11 1048.89 1769.28 1052.45 Q1767.48 1055.99 1767.48 1063.12 Q1767.48 1070.23 1769.28 1073.8 Q1771.11 1077.34 1774.72 1077.34 Q1778.36 1077.34 1780.16 1073.8 Q1781.99 1070.23 1781.99 1063.12 Q1781.99 1055.99 1780.16 1052.45 Q1778.36 1048.89 1774.72 1048.89 M1774.72 1045.18 Q1780.53 1045.18 1783.59 1049.79 Q1786.67 1054.37 1786.67 1063.12 Q1786.67 1071.85 1783.59 1076.46 Q1780.53 1081.04 1774.72 1081.04 Q1768.91 1081.04 1765.84 1076.46 Q1762.78 1071.85 1762.78 1063.12 Q1762.78 1054.37 1765.84 1049.79 Q1768.91 1045.18 1774.72 1045.18 Z" fill="#000000" fill-rule="nonzero" fill-opacity="1" /><path clip-path="url(#clip060)" d="M1724.52 883.219 L1740.84 883.219 L1740.84 887.154 L1718.89 887.154 L1718.89 883.219 Q1721.55 880.465 1726.14 875.835 Q1730.74 871.182 1731.92 869.84 Q1734.17 867.316 1735.05 865.58 Q1735.95 863.821 1735.95 862.131 Q1735.95 859.377 1734.01 857.641 Q1732.09 855.904 1728.98 855.904 Q1726.78 855.904 1724.33 856.668 Q1721.9 857.432 1719.12 858.983 L1719.12 854.261 Q1721.95 853.127 1724.4 852.548 Q1726.85 851.969 1728.89 851.969 Q1734.26 851.969 1737.46 854.654 Q1740.65 857.34 1740.65 861.83 Q1740.65 863.96 1739.84 865.881 Q1739.05 867.779 1736.95 870.372 Q1736.37 871.043 1733.27 874.261 Q1730.16 877.455 1724.52 883.219 Z" fill="#000000" fill-rule="nonzero" fill-opacity="1" /><path clip-path="url(#clip060)" d="M1750.65 881.275 L1755.53 881.275 L1755.53 887.154 L1750.65 887.154 L1750.65 881.275 Z" fill="#000000" fill-rule="nonzero" fill-opacity="1" /><path clip-path="url(#clip060)" d="M1765.77 852.594 L1784.12 852.594 L1784.12 856.529 L1770.05 856.529 L1770.05 865.002 Q1771.07 864.654 1772.09 864.492 Q1773.1 864.307 1774.12 864.307 Q1779.91 864.307 1783.29 867.478 Q1786.67 870.65 1786.67 876.066 Q1786.67 881.645 1783.2 884.747 Q1779.72 887.826 1773.4 887.826 Q1771.23 887.826 1768.96 887.455 Q1766.72 887.085 1764.31 886.344 L1764.31 881.645 Q1766.39 882.779 1768.61 883.335 Q1770.84 883.89 1773.31 883.89 Q1777.32 883.89 1779.65 881.784 Q1781.99 879.677 1781.99 876.066 Q1781.99 872.455 1779.65 870.349 Q1777.32 868.242 1773.31 868.242 Q1771.44 868.242 1769.56 868.659 Q1767.71 869.076 1765.77 869.955 L1765.77 852.594 Z" fill="#000000" fill-rule="nonzero" fill-opacity="1" /><path clip-path="url(#clip060)" d="M1719.54 659.379 L1737.9 659.379 L1737.9 663.314 L1723.82 663.314 L1723.82 671.786 Q1724.84 671.439 1725.86 671.277 Q1726.88 671.092 1727.9 671.092 Q1733.68 671.092 1737.06 674.263 Q1740.44 677.434 1740.44 682.851 Q1740.44 688.43 1736.97 691.531 Q1733.5 694.61 1727.18 694.61 Q1725 694.61 1722.73 694.24 Q1720.49 693.869 1718.08 693.129 L1718.08 688.43 Q1720.16 689.564 1722.39 690.119 Q1724.61 690.675 1727.09 690.675 Q1731.09 690.675 1733.43 688.568 Q1735.77 686.462 1735.77 682.851 Q1735.77 679.24 1733.43 677.133 Q1731.09 675.027 1727.09 675.027 Q1725.21 675.027 1723.34 675.443 Q1721.48 675.86 1719.54 676.74 L1719.54 659.379 Z" fill="#000000" fill-rule="nonzero" fill-opacity="1" /><path clip-path="url(#clip060)" d="M1749.66 688.059 L1754.54 688.059 L1754.54 693.939 L1749.66 693.939 L1749.66 688.059 Z" fill="#000000" fill-rule="nonzero" fill-opacity="1" /><path clip-path="url(#clip060)" d="M1774.72 662.457 Q1771.11 662.457 1769.28 666.022 Q1767.48 669.564 1767.48 676.693 Q1767.48 683.8 1769.28 687.365 Q1771.11 690.906 1774.72 690.906 Q1778.36 690.906 1780.16 687.365 Q1781.99 683.8 1781.99 676.693 Q1781.99 669.564 1780.16 666.022 Q1778.36 662.457 1774.72 662.457 M1774.72 658.754 Q1780.53 658.754 1783.59 663.36 Q1786.67 667.944 1786.67 676.693 Q1786.67 685.42 1783.59 690.027 Q1780.53 694.61 1774.72 694.61 Q1768.91 694.61 1765.84 690.027 Q1762.78 685.42 1762.78 676.693 Q1762.78 667.944 1765.84 663.36 Q1768.91 658.754 1774.72 658.754 Z" fill="#000000" fill-rule="nonzero" fill-opacity="1" /><path clip-path="url(#clip060)" d="M1719.31 466.163 L1741.53 466.163 L1741.53 468.154 L1728.98 500.723 L1724.1 500.723 L1735.91 470.098 L1719.31 470.098 L1719.31 466.163 Z" fill="#000000" fill-rule="nonzero" fill-opacity="1" /><path clip-path="url(#clip060)" d="M1750.65 494.844 L1755.53 494.844 L1755.53 500.723 L1750.65 500.723 L1750.65 494.844 Z" fill="#000000" fill-rule="nonzero" fill-opacity="1" /><path clip-path="url(#clip060)" d="M1765.77 466.163 L1784.12 466.163 L1784.12 470.098 L1770.05 470.098 L1770.05 478.571 Q1771.07 478.223 1772.09 478.061 Q1773.1 477.876 1774.12 477.876 Q1779.91 477.876 1783.29 481.047 Q1786.67 484.219 1786.67 489.635 Q1786.67 495.214 1783.2 498.316 Q1779.72 501.395 1773.4 501.395 Q1771.23 501.395 1768.96 501.024 Q1766.72 500.654 1764.31 499.913 L1764.31 495.214 Q1766.39 496.348 1768.61 496.904 Q1770.84 497.459 1773.31 497.459 Q1777.32 497.459 1779.65 495.353 Q1781.99 493.246 1781.99 489.635 Q1781.99 486.024 1779.65 483.918 Q1777.32 481.811 1773.31 481.811 Q1771.44 481.811 1769.56 482.228 Q1767.71 482.645 1765.77 483.524 L1765.77 466.163 Z" fill="#000000" fill-rule="nonzero" fill-opacity="1" /><path clip-path="url(#clip060)" d="M1690.14 303.573 L1697.78 303.573 L1697.78 277.207 L1689.47 278.874 L1689.47 274.614 L1697.73 272.948 L1702.41 272.948 L1702.41 303.573 L1710.05 303.573 L1710.05 307.508 L1690.14 307.508 L1690.14 303.573 Z" fill="#000000" fill-rule="nonzero" fill-opacity="1" /><path clip-path="url(#clip060)" d="M1729.49 276.026 Q1725.88 276.026 1724.05 279.591 Q1722.25 283.133 1722.25 290.262 Q1722.25 297.369 1724.05 300.934 Q1725.88 304.475 1729.49 304.475 Q1733.13 304.475 1734.93 300.934 Q1736.76 297.369 1736.76 290.262 Q1736.76 283.133 1734.93 279.591 Q1733.13 276.026 1729.49 276.026 M1729.49 272.323 Q1735.3 272.323 1738.36 276.929 Q1741.44 281.512 1741.44 290.262 Q1741.44 298.989 1738.36 303.596 Q1735.3 308.179 1729.49 308.179 Q1723.68 308.179 1720.6 303.596 Q1717.55 298.989 1717.55 290.262 Q1717.55 281.512 1720.6 276.929 Q1723.68 272.323 1729.49 272.323 Z" fill="#000000" fill-rule="nonzero" fill-opacity="1" /><path clip-path="url(#clip060)" d="M1749.66 301.628 L1754.54 301.628 L1754.54 307.508 L1749.66 307.508 L1749.66 301.628 Z" fill="#000000" fill-rule="nonzero" fill-opacity="1" /><path clip-path="url(#clip060)" d="M1774.72 276.026 Q1771.11 276.026 1769.28 279.591 Q1767.48 283.133 1767.48 290.262 Q1767.48 297.369 1769.28 300.934 Q1771.11 304.475 1774.72 304.475 Q1778.36 304.475 1780.16 300.934 Q1781.99 297.369 1781.99 290.262 Q1781.99 283.133 1780.16 279.591 Q1778.36 276.026 1774.72 276.026 M1774.72 272.323 Q1780.53 272.323 1783.59 276.929 Q1786.67 281.512 1786.67 290.262 Q1786.67 298.989 1783.59 303.596 Q1780.53 308.179 1774.72 308.179 Q1768.91 308.179 1765.84 303.596 Q1762.78 298.989 1762.78 290.262 Q1762.78 281.512 1765.84 276.929 Q1768.91 272.323 1774.72 272.323 Z" fill="#000000" fill-rule="nonzero" fill-opacity="1" /><path clip-path="url(#clip060)" d="M1691.14 110.357 L1698.78 110.357 L1698.78 83.9914 L1690.47 85.658 L1690.47 81.3988 L1698.73 79.7321 L1703.41 79.7321 L1703.41 110.357 L1711.04 110.357 L1711.04 114.292 L1691.14 114.292 L1691.14 110.357 Z" fill="#000000" fill-rule="nonzero" fill-opacity="1" /><path clip-path="url(#clip060)" d="M1724.52 110.357 L1740.84 110.357 L1740.84 114.292 L1718.89 114.292 L1718.89 110.357 Q1721.55 107.602 1726.14 102.973 Q1730.74 98.32 1731.92 96.9774 Q1734.17 94.4543 1735.05 92.7182 Q1735.95 90.9589 1735.95 89.2691 Q1735.95 86.5145 1734.01 84.7784 Q1732.09 83.0423 1728.98 83.0423 Q1726.78 83.0423 1724.33 83.8062 Q1721.9 84.5701 1719.12 86.121 L1719.12 81.3988 Q1721.95 80.2645 1724.4 79.6858 Q1726.85 79.1071 1728.89 79.1071 Q1734.26 79.1071 1737.46 81.7923 Q1740.65 84.4775 1740.65 88.9682 Q1740.65 91.0978 1739.84 93.0191 Q1739.05 94.9172 1736.95 97.5098 Q1736.37 98.1811 1733.27 101.399 Q1730.16 104.593 1724.52 110.357 Z" fill="#000000" fill-rule="nonzero" fill-opacity="1" /><path clip-path="url(#clip060)" d="M1750.65 108.413 L1755.53 108.413 L1755.53 114.292 L1750.65 114.292 L1750.65 108.413 Z" fill="#000000" fill-rule="nonzero" fill-opacity="1" /><path clip-path="url(#clip060)" d="M1765.77 79.7321 L1784.12 79.7321 L1784.12 83.6673 L1770.05 83.6673 L1770.05 92.1395 Q1771.07 91.7922 1772.09 91.6302 Q1773.1 91.445 1774.12 91.445 Q1779.91 91.445 1783.29 94.6163 Q1786.67 97.7876 1786.67 103.204 Q1786.67 108.783 1783.2 111.885 Q1779.72 114.963 1773.4 114.963 Q1771.23 114.963 1768.96 114.593 Q1766.72 114.223 1764.31 113.482 L1764.31 108.783 Q1766.39 109.917 1768.61 110.473 Q1770.84 111.028 1773.31 111.028 Q1777.32 111.028 1779.65 108.922 Q1781.99 106.815 1781.99 103.204 Q1781.99 99.5931 1779.65 97.4867 Q1777.32 95.3802 1773.31 95.3802 Q1771.44 95.3802 1769.56 95.7969 Q1767.71 96.2135 1765.77 97.0931 L1765.77 79.7321 Z" fill="#000000" fill-rule="nonzero" fill-opacity="1" /><path clip-path="url(#clip060)" d="M1584.98 693.361 L1621.93 693.361 L1621.93 685.594 Q1621.93 675.759 1617.47 671.208 Q1613.02 666.625 1603.41 666.625 Q1593.86 666.625 1589.43 671.208 Q1584.98 675.759 1584.98 685.594 L1584.98 693.361 M1579.69 699.79 L1579.69 686.581 Q1579.69 672.768 1585.46 666.306 Q1591.18 659.845 1603.41 659.845 Q1615.69 659.845 1621.45 666.338 Q1627.21 672.831 1627.21 686.581 L1627.21 699.79 L1579.69 699.79 Z" fill="#000000" fill-rule="nonzero" fill-opacity="1" /><path clip-path="url(#clip060)" d="M1607.93 619.359 L1610.79 619.359 L1610.79 646.286 Q1616.84 645.904 1620.02 642.658 Q1623.17 639.379 1623.17 633.555 Q1623.17 630.181 1622.34 627.03 Q1621.52 623.847 1619.86 620.728 L1625.4 620.728 Q1626.74 623.879 1627.44 627.189 Q1628.14 630.499 1628.14 633.905 Q1628.14 642.435 1623.17 647.432 Q1618.21 652.397 1609.74 652.397 Q1600.99 652.397 1595.86 647.687 Q1590.71 642.944 1590.71 634.923 Q1590.71 627.73 1595.35 623.561 Q1599.97 619.359 1607.93 619.359 M1606.21 625.216 Q1601.4 625.279 1598.54 627.921 Q1595.67 630.531 1595.67 634.86 Q1595.67 639.761 1598.44 642.721 Q1601.21 645.65 1606.24 646.095 L1606.21 625.216 Z" fill="#000000" fill-rule="nonzero" fill-opacity="1" /><path clip-path="url(#clip060)" d="M1605.7 580.115 L1627.21 580.115 L1627.21 585.971 L1605.89 585.971 Q1600.83 585.971 1598.31 587.944 Q1595.8 589.918 1595.8 593.865 Q1595.8 598.607 1598.82 601.344 Q1601.85 604.082 1607.07 604.082 L1627.21 604.082 L1627.21 609.97 L1591.57 609.97 L1591.57 604.082 L1597.1 604.082 Q1593.89 601.981 1592.3 599.148 Q1590.71 596.284 1590.71 592.56 Q1590.71 586.417 1594.53 583.266 Q1598.31 580.115 1605.7 580.115 Z" fill="#000000" fill-rule="nonzero" fill-opacity="1" /><path clip-path="url(#clip060)" d="M1592.62 545.708 L1598.15 545.708 Q1596.88 548.191 1596.24 550.864 Q1595.61 553.538 1595.61 556.402 Q1595.61 560.763 1596.95 562.959 Q1598.28 565.123 1600.96 565.123 Q1602.99 565.123 1604.17 563.564 Q1605.32 562.004 1606.37 557.294 L1606.81 555.288 Q1608.15 549.05 1610.6 546.44 Q1613.02 543.798 1617.38 543.798 Q1622.34 543.798 1625.24 547.745 Q1628.14 551.66 1628.14 558.535 Q1628.14 561.399 1627.56 564.519 Q1627.02 567.606 1625.91 571.044 L1619.86 571.044 Q1621.55 567.797 1622.41 564.646 Q1623.24 561.495 1623.24 558.408 Q1623.24 554.27 1621.84 552.042 Q1620.4 549.814 1617.82 549.814 Q1615.44 549.814 1614.16 551.437 Q1612.89 553.029 1611.71 558.471 L1611.24 560.508 Q1610.09 565.951 1607.74 568.37 Q1605.35 570.789 1601.21 570.789 Q1596.18 570.789 1593.44 567.224 Q1590.71 563.659 1590.71 557.103 Q1590.71 553.856 1591.18 550.992 Q1591.66 548.127 1592.62 545.708 Z" fill="#000000" fill-rule="nonzero" fill-opacity="1" /><path clip-path="url(#clip060)" d="M1591.57 534.473 L1591.57 528.616 L1627.21 528.616 L1627.21 534.473 L1591.57 534.473 M1577.69 534.473 L1577.69 528.616 L1585.11 528.616 L1585.11 534.473 L1577.69 534.473 Z" fill="#000000" fill-rule="nonzero" fill-opacity="1" /><path clip-path="url(#clip060)" d="M1581.44 510.569 L1591.57 510.569 L1591.57 498.506 L1596.12 498.506 L1596.12 510.569 L1615.47 510.569 Q1619.83 510.569 1621.07 509.392 Q1622.31 508.182 1622.31 504.522 L1622.31 498.506 L1627.21 498.506 L1627.21 504.522 Q1627.21 511.301 1624.7 513.879 Q1622.15 516.458 1615.47 516.458 L1596.12 516.458 L1596.12 520.754 L1591.57 520.754 L1591.57 516.458 L1581.44 516.458 L1581.44 510.569 Z" fill="#000000" fill-rule="nonzero" fill-opacity="1" /><path clip-path="url(#clip060)" d="M1630.52 475.972 Q1636.89 478.454 1638.83 480.81 Q1640.77 483.165 1640.77 487.112 L1640.77 491.79 L1635.87 491.79 L1635.87 488.353 Q1635.87 485.934 1634.73 484.597 Q1633.58 483.26 1629.31 481.637 L1626.64 480.587 L1591.57 495.005 L1591.57 488.799 L1619.45 477.659 L1591.57 466.519 L1591.57 460.312 L1630.52 475.972 Z" fill="#000000" fill-rule="nonzero" fill-opacity="1" /><path clip-path="url(#clip060)" d="M2272.9 18.8205 L2272.9 41.5461 L2283.19 41.5461 Q2288.9 41.5461 2292.02 38.5889 Q2295.14 35.6318 2295.14 30.163 Q2295.14 24.7348 2292.02 21.7777 Q2288.9 18.8205 2283.19 18.8205 L2272.9 18.8205 M2264.71 12.096 L2283.19 12.096 Q2293.35 12.096 2298.54 16.714 Q2303.77 21.2916 2303.77 30.163 Q2303.77 39.1155 2298.54 43.6931 Q2293.35 48.2706 2283.19 48.2706 L2272.9 48.2706 L2272.9 72.576 L2264.71 72.576 L2264.71 12.096 Z" fill="#000000" fill-rule="nonzero" fill-opacity="1" /><path clip-path="url(#clip060)" d="M2329.04 32.4315 Q2323.05 32.4315 2319.56 37.1306 Q2316.08 41.7891 2316.08 49.9314 Q2316.08 58.0738 2319.52 62.7728 Q2323.01 67.4314 2329.04 67.4314 Q2335 67.4314 2338.48 62.7323 Q2341.97 58.0333 2341.97 49.9314 Q2341.97 41.8701 2338.48 37.1711 Q2335 32.4315 2329.04 32.4315 M2329.04 26.1121 Q2338.77 26.1121 2344.31 32.4315 Q2349.86 38.7509 2349.86 49.9314 Q2349.86 61.0714 2344.31 67.4314 Q2338.77 73.7508 2329.04 73.7508 Q2319.28 73.7508 2313.73 67.4314 Q2308.22 61.0714 2308.22 49.9314 Q2308.22 38.7509 2313.73 32.4315 Q2319.28 26.1121 2329.04 26.1121 Z" fill="#000000" fill-rule="nonzero" fill-opacity="1" /><path clip-path="url(#clip060)" d="M2391.14 28.5427 L2391.14 35.5912 Q2387.98 33.9709 2384.58 33.1607 Q2381.18 32.3505 2377.53 32.3505 Q2371.98 32.3505 2369.19 34.0519 Q2366.43 35.7533 2366.43 39.156 Q2366.43 41.7486 2368.42 43.2475 Q2370.4 44.7058 2376.4 46.0426 L2378.95 46.6097 Q2386.89 48.3111 2390.21 51.4303 Q2393.57 54.509 2393.57 60.0587 Q2393.57 66.3781 2388.55 70.0644 Q2383.57 73.7508 2374.82 73.7508 Q2371.17 73.7508 2367.2 73.0216 Q2363.27 72.3329 2358.9 70.9151 L2358.9 63.2184 Q2363.03 65.3654 2367.04 66.4591 Q2371.05 67.5124 2374.98 67.5124 Q2380.25 67.5124 2383.08 65.73 Q2385.92 63.9071 2385.92 60.6258 Q2385.92 57.5877 2383.85 55.9673 Q2381.83 54.3469 2374.9 52.8481 L2372.31 52.2405 Q2365.38 50.7821 2362.3 47.7845 Q2359.22 44.7463 2359.22 39.4801 Q2359.22 33.0797 2363.76 29.5959 Q2368.3 26.1121 2376.64 26.1121 Q2380.77 26.1121 2384.42 26.7198 Q2388.06 27.3274 2391.14 28.5427 Z" fill="#000000" fill-rule="nonzero" fill-opacity="1" /><path clip-path="url(#clip060)" d="M2412.82 14.324 L2412.82 27.2059 L2428.17 27.2059 L2428.17 32.9987 L2412.82 32.9987 L2412.82 57.6282 Q2412.82 63.1779 2414.31 64.7578 Q2415.85 66.3376 2420.51 66.3376 L2428.17 66.3376 L2428.17 72.576 L2420.51 72.576 Q2411.88 72.576 2408.6 69.3758 Q2405.32 66.1351 2405.32 57.6282 L2405.32 32.9987 L2399.85 32.9987 L2399.85 27.2059 L2405.32 27.2059 L2405.32 14.324 L2412.82 14.324 Z" fill="#000000" fill-rule="nonzero" fill-opacity="1" /><path clip-path="url(#clip060)" d="M2476.78 48.0275 L2476.78 51.6733 L2442.51 51.6733 Q2442.99 59.3701 2447.13 63.421 Q2451.3 67.4314 2458.71 67.4314 Q2463.01 67.4314 2467.02 66.3781 Q2471.07 65.3249 2475.04 63.2184 L2475.04 70.267 Q2471.03 71.9684 2466.81 72.8596 Q2462.6 73.7508 2458.27 73.7508 Q2447.41 73.7508 2441.05 67.4314 Q2434.73 61.1119 2434.73 50.3365 Q2434.73 39.1965 2440.73 32.6746 Q2446.76 26.1121 2456.97 26.1121 Q2466.13 26.1121 2471.43 32.0264 Q2476.78 37.9003 2476.78 48.0275 M2469.33 45.84 Q2469.24 39.7232 2465.88 36.0774 Q2462.56 32.4315 2457.05 32.4315 Q2450.81 32.4315 2447.05 35.9558 Q2443.32 39.4801 2442.75 45.8805 L2469.33 45.84 Z" fill="#000000" fill-rule="nonzero" fill-opacity="1" /><path clip-path="url(#clip060)" d="M2515.3 34.1734 Q2514.05 33.4443 2512.55 33.1202 Q2511.09 32.7556 2509.31 32.7556 Q2502.99 32.7556 2499.59 36.8875 Q2496.22 40.9789 2496.22 48.6757 L2496.22 72.576 L2488.73 72.576 L2488.73 27.2059 L2496.22 27.2059 L2496.22 34.2544 Q2498.57 30.1225 2502.34 28.1376 Q2506.11 26.1121 2511.5 26.1121 Q2512.27 26.1121 2513.2 26.2337 Q2514.13 26.3147 2515.26 26.5172 L2515.3 34.1734 Z" fill="#000000" fill-rule="nonzero" fill-opacity="1" /><path clip-path="url(#clip060)" d="M2523.12 27.2059 L2530.58 27.2059 L2530.58 72.576 L2523.12 72.576 L2523.12 27.2059 M2523.12 9.54393 L2530.58 9.54393 L2530.58 18.9825 L2523.12 18.9825 L2523.12 9.54393 Z" fill="#000000" fill-rule="nonzero" fill-opacity="1" /><path clip-path="url(#clip060)" d="M2563.75 32.4315 Q2557.76 32.4315 2554.27 37.1306 Q2550.79 41.7891 2550.79 49.9314 Q2550.79 58.0738 2554.23 62.7728 Q2557.72 67.4314 2563.75 67.4314 Q2569.71 67.4314 2573.19 62.7323 Q2576.67 58.0333 2576.67 49.9314 Q2576.67 41.8701 2573.19 37.1711 Q2569.71 32.4315 2563.75 32.4315 M2563.75 26.1121 Q2573.47 26.1121 2579.02 32.4315 Q2584.57 38.7509 2584.57 49.9314 Q2584.57 61.0714 2579.02 67.4314 Q2573.47 73.7508 2563.75 73.7508 Q2553.99 73.7508 2548.44 67.4314 Q2542.93 61.0714 2542.93 49.9314 Q2542.93 38.7509 2548.44 32.4315 Q2553.99 26.1121 2563.75 26.1121 Z" fill="#000000" fill-rule="nonzero" fill-opacity="1" /><path clip-path="url(#clip060)" d="M2623.22 34.1734 Q2621.96 33.4443 2620.47 33.1202 Q2619.01 32.7556 2617.22 32.7556 Q2610.9 32.7556 2607.5 36.8875 Q2604.14 40.9789 2604.14 48.6757 L2604.14 72.576 L2596.65 72.576 L2596.65 27.2059 L2604.14 27.2059 L2604.14 34.2544 Q2606.49 30.1225 2610.26 28.1376 Q2614.02 26.1121 2619.41 26.1121 Q2620.18 26.1121 2621.11 26.2337 Q2622.04 26.3147 2623.18 26.5172 L2623.22 34.1734 Z" fill="#000000" fill-rule="nonzero" fill-opacity="1" /><path clip-path="url(#clip060)" d="M2631.48 62.2867 L2640.03 62.2867 L2640.03 72.576 L2631.48 72.576 L2631.48 62.2867 M2631.48 29.6769 L2640.03 29.6769 L2640.03 39.9662 L2631.48 39.9662 L2631.48 29.6769 Z" fill="#000000" fill-rule="nonzero" fill-opacity="1" /><path clip-path="url(#clip060)" d="M2690.71 34.3355 L2700.63 62.3677 L2714.81 27.2059 L2722.71 27.2059 L2704.36 72.576 L2704.36 89.8329 L2696.91 89.8329 L2696.91 72.576 L2685 38.7104 Q2683.21 33.6063 2679.37 33.6063 L2677.38 33.6063 L2677.38 27.2059 L2680.22 27.2059 Q2688.2 27.2059 2690.71 34.3355 Z" fill="#000000" fill-rule="nonzero" fill-opacity="1" /><path clip-path="url(#clip061)" d="M1907.17 1050.21 L1907.17 1063.09 L1972.34 1063.09 L1972.34 1050.21 L1907.17 1050.21 L1907.17 1050.21  Z" fill="#009af9" fill-rule="evenodd" fill-opacity="1"/>
<polyline clip-path="url(#clip061)" style="stroke:#000000; stroke-linecap:round; stroke-linejoin:round; stroke-width:4; stroke-opacity:1; fill:none" points="1907.17,1050.21 1907.17,1063.09 1972.34,1063.09 1972.34,1050.21 1907.17,1050.21 "/>
<path clip-path="url(#clip061)" d="M1972.34 1005.13 L1972.34 1063.09 L2037.51 1063.09 L2037.51 1005.13 L1972.34 1005.13 L1972.34 1005.13  Z" fill="#009af9" fill-rule="evenodd" fill-opacity="1"/>
<polyline clip-path="url(#clip061)" style="stroke:#000000; stroke-linecap:round; stroke-linejoin:round; stroke-width:4; stroke-opacity:1; fill:none" points="1972.34,1005.13 1972.34,1063.09 2037.51,1063.09 2037.51,1005.13 1972.34,1005.13 "/>
<path clip-path="url(#clip061)" d="M2037.51 856.993 L2037.51 1063.09 L2102.68 1063.09 L2102.68 856.993 L2037.51 856.993 L2037.51 856.993  Z" fill="#009af9" fill-rule="evenodd" fill-opacity="1"/>
<polyline clip-path="url(#clip061)" style="stroke:#000000; stroke-linecap:round; stroke-linejoin:round; stroke-width:4; stroke-opacity:1; fill:none" points="2037.51,856.993 2037.51,1063.09 2102.68,1063.09 2102.68,856.993 2037.51,856.993 "/>
<path clip-path="url(#clip061)" d="M2102.68 818.35 L2102.68 1063.09 L2167.85 1063.09 L2167.85 818.35 L2102.68 818.35 L2102.68 818.35  Z" fill="#009af9" fill-rule="evenodd" fill-opacity="1"/>
<polyline clip-path="url(#clip061)" style="stroke:#000000; stroke-linecap:round; stroke-linejoin:round; stroke-width:4; stroke-opacity:1; fill:none" points="2102.68,818.35 2102.68,1063.09 2167.85,1063.09 2167.85,818.35 2102.68,818.35 "/>
<path clip-path="url(#clip061)" d="M2167.85 515.646 L2167.85 1063.09 L2233.02 1063.09 L2233.02 515.646 L2167.85 515.646 L2167.85 515.646  Z" fill="#009af9" fill-rule="evenodd" fill-opacity="1"/>
<polyline clip-path="url(#clip061)" style="stroke:#000000; stroke-linecap:round; stroke-linejoin:round; stroke-width:4; stroke-opacity:1; fill:none" points="2167.85,515.646 2167.85,1063.09 2233.02,1063.09 2233.02,515.646 2167.85,515.646 "/>
<path clip-path="url(#clip061)" d="M2233.02 522.086 L2233.02 1063.09 L2298.2 1063.09 L2298.2 522.086 L2233.02 522.086 L2233.02 522.086  Z" fill="#009af9" fill-rule="evenodd" fill-opacity="1"/>
<polyline clip-path="url(#clip061)" style="stroke:#000000; stroke-linecap:round; stroke-linejoin:round; stroke-width:4; stroke-opacity:1; fill:none" points="2233.02,522.086 2233.02,1063.09 2298.2,1063.09 2298.2,522.086 2233.02,522.086 "/>
<path clip-path="url(#clip061)" d="M2298.2 361.073 L2298.2 1063.09 L2363.37 1063.09 L2363.37 361.073 L2298.2 361.073 L2298.2 361.073  Z" fill="#009af9" fill-rule="evenodd" fill-opacity="1"/>
<polyline clip-path="url(#clip061)" style="stroke:#000000; stroke-linecap:round; stroke-linejoin:round; stroke-width:4; stroke-opacity:1; fill:none" points="2298.2,361.073 2298.2,1063.09 2363.37,1063.09 2363.37,361.073 2298.2,361.073 "/>
<path clip-path="url(#clip061)" d="M2363.37 97.0121 L2363.37 1063.09 L2428.54 1063.09 L2428.54 97.0121 L2363.37 97.0121 L2363.37 97.0121  Z" fill="#009af9" fill-rule="evenodd" fill-opacity="1"/>
<polyline clip-path="url(#clip061)" style="stroke:#000000; stroke-linecap:round; stroke-linejoin:round; stroke-width:4; stroke-opacity:1; fill:none" points="2363.37,97.0121 2363.37,1063.09 2428.54,1063.09 2428.54,97.0121 2363.37,97.0121 "/>
<path clip-path="url(#clip061)" d="M2428.54 142.096 L2428.54 1063.09 L2493.71 1063.09 L2493.71 142.096 L2428.54 142.096 L2428.54 142.096  Z" fill="#009af9" fill-rule="evenodd" fill-opacity="1"/>
<polyline clip-path="url(#clip061)" style="stroke:#000000; stroke-linecap:round; stroke-linejoin:round; stroke-width:4; stroke-opacity:1; fill:none" points="2428.54,142.096 2428.54,1063.09 2493.71,1063.09 2493.71,142.096 2428.54,142.096 "/>
<path clip-path="url(#clip061)" d="M2493.71 200.06 L2493.71 1063.09 L2558.88 1063.09 L2558.88 200.06 L2493.71 200.06 L2493.71 200.06  Z" fill="#009af9" fill-rule="evenodd" fill-opacity="1"/>
<polyline clip-path="url(#clip061)" style="stroke:#000000; stroke-linecap:round; stroke-linejoin:round; stroke-width:4; stroke-opacity:1; fill:none" points="2493.71,200.06 2493.71,1063.09 2558.88,1063.09 2558.88,200.06 2493.71,200.06 "/>
<path clip-path="url(#clip061)" d="M2558.88 457.681 L2558.88 1063.09 L2624.06 1063.09 L2624.06 457.681 L2558.88 457.681 L2558.88 457.681  Z" fill="#009af9" fill-rule="evenodd" fill-opacity="1"/>
<polyline clip-path="url(#clip061)" style="stroke:#000000; stroke-linecap:round; stroke-linejoin:round; stroke-width:4; stroke-opacity:1; fill:none" points="2558.88,457.681 2558.88,1063.09 2624.06,1063.09 2624.06,457.681 2558.88,457.681 "/>
<path clip-path="url(#clip061)" d="M2624.06 315.99 L2624.06 1063.09 L2689.23 1063.09 L2689.23 315.99 L2624.06 315.99 L2624.06 315.99  Z" fill="#009af9" fill-rule="evenodd" fill-opacity="1"/>
<polyline clip-path="url(#clip061)" style="stroke:#000000; stroke-linecap:round; stroke-linejoin:round; stroke-width:4; stroke-opacity:1; fill:none" points="2624.06,315.99 2624.06,1063.09 2689.23,1063.09 2689.23,315.99 2624.06,315.99 "/>
<path clip-path="url(#clip061)" d="M2689.23 586.492 L2689.23 1063.09 L2754.4 1063.09 L2754.4 586.492 L2689.23 586.492 L2689.23 586.492  Z" fill="#009af9" fill-rule="evenodd" fill-opacity="1"/>
<polyline clip-path="url(#clip061)" style="stroke:#000000; stroke-linecap:round; stroke-linejoin:round; stroke-width:4; stroke-opacity:1; fill:none" points="2689.23,586.492 2689.23,1063.09 2754.4,1063.09 2754.4,586.492 2689.23,586.492 "/>
<path clip-path="url(#clip061)" d="M2754.4 741.064 L2754.4 1063.09 L2819.57 1063.09 L2819.57 741.064 L2754.4 741.064 L2754.4 741.064  Z" fill="#009af9" fill-rule="evenodd" fill-opacity="1"/>
<polyline clip-path="url(#clip061)" style="stroke:#000000; stroke-linecap:round; stroke-linejoin:round; stroke-width:4; stroke-opacity:1; fill:none" points="2754.4,741.064 2754.4,1063.09 2819.57,1063.09 2819.57,741.064 2754.4,741.064 "/>
<path clip-path="url(#clip061)" d="M2819.57 844.112 L2819.57 1063.09 L2884.74 1063.09 L2884.74 844.112 L2819.57 844.112 L2819.57 844.112  Z" fill="#009af9" fill-rule="evenodd" fill-opacity="1"/>
<polyline clip-path="url(#clip061)" style="stroke:#000000; stroke-linecap:round; stroke-linejoin:round; stroke-width:4; stroke-opacity:1; fill:none" points="2819.57,844.112 2819.57,1063.09 2884.74,1063.09 2884.74,844.112 2819.57,844.112 "/>
<path clip-path="url(#clip061)" d="M2884.74 863.434 L2884.74 1063.09 L2949.92 1063.09 L2949.92 863.434 L2884.74 863.434 L2884.74 863.434  Z" fill="#009af9" fill-rule="evenodd" fill-opacity="1"/>
<polyline clip-path="url(#clip061)" style="stroke:#000000; stroke-linecap:round; stroke-linejoin:round; stroke-width:4; stroke-opacity:1; fill:none" points="2884.74,863.434 2884.74,1063.09 2949.92,1063.09 2949.92,863.434 2884.74,863.434 "/>
<path clip-path="url(#clip061)" d="M2949.92 998.685 L2949.92 1063.09 L3015.09 1063.09 L3015.09 998.685 L2949.92 998.685 L2949.92 998.685  Z" fill="#009af9" fill-rule="evenodd" fill-opacity="1"/>
<polyline clip-path="url(#clip061)" style="stroke:#000000; stroke-linecap:round; stroke-linejoin:round; stroke-width:4; stroke-opacity:1; fill:none" points="2949.92,998.685 2949.92,1063.09 3015.09,1063.09 3015.09,998.685 2949.92,998.685 "/>
<path clip-path="url(#clip061)" d="M3015.09 1030.89 L3015.09 1063.09 L3080.26 1063.09 L3080.26 1030.89 L3015.09 1030.89 L3015.09 1030.89  Z" fill="#009af9" fill-rule="evenodd" fill-opacity="1"/>
<polyline clip-path="url(#clip061)" style="stroke:#000000; stroke-linecap:round; stroke-linejoin:round; stroke-width:4; stroke-opacity:1; fill:none" points="3015.09,1030.89 3015.09,1063.09 3080.26,1063.09 3080.26,1030.89 3015.09,1030.89 "/>
<circle clip-path="url(#clip061)" style="fill:#009af9; stroke:none; fill-opacity:0" cx="1939.75" cy="1050.21" r="2"/>
<circle clip-path="url(#clip061)" style="fill:#009af9; stroke:none; fill-opacity:0" cx="2004.92" cy="1005.13" r="2"/>
<circle clip-path="url(#clip061)" style="fill:#009af9; stroke:none; fill-opacity:0" cx="2070.1" cy="856.993" r="2"/>
<circle clip-path="url(#clip061)" style="fill:#009af9; stroke:none; fill-opacity:0" cx="2135.27" cy="818.35" r="2"/>
<circle clip-path="url(#clip061)" style="fill:#009af9; stroke:none; fill-opacity:0" cx="2200.44" cy="515.646" r="2"/>
<circle clip-path="url(#clip061)" style="fill:#009af9; stroke:none; fill-opacity:0" cx="2265.61" cy="522.086" r="2"/>
<circle clip-path="url(#clip061)" style="fill:#009af9; stroke:none; fill-opacity:0" cx="2330.78" cy="361.073" r="2"/>
<circle clip-path="url(#clip061)" style="fill:#009af9; stroke:none; fill-opacity:0" cx="2395.95" cy="97.0121" r="2"/>
<circle clip-path="url(#clip061)" style="fill:#009af9; stroke:none; fill-opacity:0" cx="2461.13" cy="142.096" r="2"/>
<circle clip-path="url(#clip061)" style="fill:#009af9; stroke:none; fill-opacity:0" cx="2526.3" cy="200.06" r="2"/>
<circle clip-path="url(#clip061)" style="fill:#009af9; stroke:none; fill-opacity:0" cx="2591.47" cy="457.681" r="2"/>
<circle clip-path="url(#clip061)" style="fill:#009af9; stroke:none; fill-opacity:0" cx="2656.64" cy="315.99" r="2"/>
<circle clip-path="url(#clip061)" style="fill:#009af9; stroke:none; fill-opacity:0" cx="2721.81" cy="586.492" r="2"/>
<circle clip-path="url(#clip061)" style="fill:#009af9; stroke:none; fill-opacity:0" cx="2786.99" cy="741.064" r="2"/>
<circle clip-path="url(#clip061)" style="fill:#009af9; stroke:none; fill-opacity:0" cx="2852.16" cy="844.112" r="2"/>
<circle clip-path="url(#clip061)" style="fill:#009af9; stroke:none; fill-opacity:0" cx="2917.33" cy="863.434" r="2"/>
<circle clip-path="url(#clip061)" style="fill:#009af9; stroke:none; fill-opacity:0" cx="2982.5" cy="998.685" r="2"/>
<circle clip-path="url(#clip061)" style="fill:#009af9; stroke:none; fill-opacity:0" cx="3047.67" cy="1030.89" r="2"/>
<polyline clip-path="url(#clip061)" style="stroke:#ff0000; stroke-linecap:round; stroke-linejoin:round; stroke-width:8; stroke-opacity:1; fill:none" points="2363.37,2029.17 2363.37,-869.066 "/>
<path clip-path="url(#clip060)" d="M2878.7 232.895 L3108.82 232.895 L3108.82 129.215 L2878.7 129.215  Z" fill="#ffffff" fill-rule="evenodd" fill-opacity="1"/>
<polyline clip-path="url(#clip060)" style="stroke:#000000; stroke-linecap:round; stroke-linejoin:round; stroke-width:4; stroke-opacity:1; fill:none" points="2878.7,232.895 3108.82,232.895 3108.82,129.215 2878.7,129.215 2878.7,232.895 "/>
<polyline clip-path="url(#clip060)" style="stroke:#ff0000; stroke-linecap:round; stroke-linejoin:round; stroke-width:8; stroke-opacity:1; fill:none" points="2893.35,181.055 2981.22,181.055 "/>
<path clip-path="url(#clip060)" d="M2995.86 163.775 L3025.1 163.775 L3025.1 167.71 L3012.83 167.71 L3012.83 198.335 L3008.13 198.335 L3008.13 167.71 L2995.86 167.71 L2995.86 163.775 Z" fill="#000000" fill-rule="nonzero" fill-opacity="1" /><path clip-path="url(#clip060)" d="M3037.48 176.39 Q3036.77 175.974 3035.91 175.789 Q3035.08 175.58 3034.06 175.58 Q3030.45 175.58 3028.5 177.941 Q3026.58 180.279 3026.58 184.677 L3026.58 198.335 L3022.3 198.335 L3022.3 172.409 L3026.58 172.409 L3026.58 176.437 Q3027.92 174.076 3030.08 172.941 Q3032.23 171.784 3035.31 171.784 Q3035.75 171.784 3036.28 171.853 Q3036.81 171.9 3037.46 172.015 L3037.48 176.39 Z" fill="#000000" fill-rule="nonzero" fill-opacity="1" /><path clip-path="url(#clip060)" d="M3041.51 188.103 L3041.51 172.409 L3045.77 172.409 L3045.77 187.941 Q3045.77 191.622 3047.21 193.474 Q3048.64 195.302 3051.51 195.302 Q3054.96 195.302 3056.95 193.103 Q3058.97 190.904 3058.97 187.108 L3058.97 172.409 L3063.23 172.409 L3063.23 198.335 L3058.97 198.335 L3058.97 194.353 Q3057.42 196.714 3055.36 197.872 Q3053.32 199.006 3050.61 199.006 Q3046.14 199.006 3043.83 196.228 Q3041.51 193.45 3041.51 188.103 M3052.23 171.784 L3052.23 171.784 Z" fill="#000000" fill-rule="nonzero" fill-opacity="1" /><path clip-path="url(#clip060)" d="M3094.17 184.307 L3094.17 186.39 L3074.59 186.39 Q3074.87 190.788 3077.23 193.103 Q3079.61 195.395 3083.85 195.395 Q3086.3 195.395 3088.6 194.793 Q3090.91 194.191 3093.18 192.988 L3093.18 197.015 Q3090.89 197.987 3088.48 198.497 Q3086.07 199.006 3083.6 199.006 Q3077.39 199.006 3073.76 195.395 Q3070.15 191.784 3070.15 185.626 Q3070.15 179.261 3073.57 175.534 Q3077.02 171.784 3082.85 171.784 Q3088.09 171.784 3091.12 175.164 Q3094.17 178.52 3094.17 184.307 M3089.92 183.057 Q3089.87 179.562 3087.95 177.478 Q3086.05 175.395 3082.9 175.395 Q3079.34 175.395 3077.18 177.409 Q3075.05 179.423 3074.73 183.08 L3089.92 183.057 Z" fill="#000000" fill-rule="nonzero" fill-opacity="1" /></svg>
