<?xml version="1.0" encoding="utf-8"?>
<svg xmlns="http://www.w3.org/2000/svg" xmlns:xlink="http://www.w3.org/1999/xlink" width="672" height="480" viewBox="0 0 2688 1920">
<defs>
  <clipPath id="clip650">
    <rect x="0" y="0" width="2688" height="1920"/>
  </clipPath>
</defs>
<path clip-path="url(#clip650)" d="M0 1920 L2688 1920 L2688 -4.26326e-14 L0 -4.26326e-14  Z" fill="#ffffff" fill-rule="evenodd" fill-opacity="1"/>
<defs>
  <clipPath id="clip651">
    <rect x="241" y="127" width="2400" height="1607"/>
  </clipPath>
</defs>
<path clip-path="url(#clip650)" d="M241.557 1734.12 L2640.76 1734.12 L2640.76 127.792 L241.557 127.792  Z" fill="#ffffff" fill-rule="evenodd" fill-opacity="1"/>
<polyline clip-path="url(#clip651)" style="stroke:#000000; stroke-linecap:round; stroke-linejoin:round; stroke-width:2; stroke-opacity:0.1; fill:none" points="309.459,1734.12 309.459,127.792 "/>
<polyline clip-path="url(#clip651)" style="stroke:#000000; stroke-linecap:round; stroke-linejoin:round; stroke-width:2; stroke-opacity:0.1; fill:none" points="875.308,1734.12 875.308,127.792 "/>
<polyline clip-path="url(#clip651)" style="stroke:#000000; stroke-linecap:round; stroke-linejoin:round; stroke-width:2; stroke-opacity:0.1; fill:none" points="1441.16,1734.12 1441.16,127.792 "/>
<polyline clip-path="url(#clip651)" style="stroke:#000000; stroke-linecap:round; stroke-linejoin:round; stroke-width:2; stroke-opacity:0.1; fill:none" points="2007.01,1734.12 2007.01,127.792 "/>
<polyline clip-path="url(#clip651)" style="stroke:#000000; stroke-linecap:round; stroke-linejoin:round; stroke-width:2; stroke-opacity:0.1; fill:none" points="2572.85,1734.12 2572.85,127.792 "/>
<polyline clip-path="url(#clip651)" style="stroke:#000000; stroke-linecap:round; stroke-linejoin:round; stroke-width:2; stroke-opacity:0.1; fill:none" points="241.557,1688.65 2640.76,1688.65 "/>
<polyline clip-path="url(#clip651)" style="stroke:#000000; stroke-linecap:round; stroke-linejoin:round; stroke-width:2; stroke-opacity:0.1; fill:none" points="241.557,1401.65 2640.76,1401.65 "/>
<polyline clip-path="url(#clip651)" style="stroke:#000000; stroke-linecap:round; stroke-linejoin:round; stroke-width:2; stroke-opacity:0.1; fill:none" points="241.557,1114.64 2640.76,1114.64 "/>
<polyline clip-path="url(#clip651)" style="stroke:#000000; stroke-linecap:round; stroke-linejoin:round; stroke-width:2; stroke-opacity:0.1; fill:none" points="241.557,827.632 2640.76,827.632 "/>
<polyline clip-path="url(#clip651)" style="stroke:#000000; stroke-linecap:round; stroke-linejoin:round; stroke-width:2; stroke-opacity:0.1; fill:none" points="241.557,540.624 2640.76,540.624 "/>
<polyline clip-path="url(#clip651)" style="stroke:#000000; stroke-linecap:round; stroke-linejoin:round; stroke-width:2; stroke-opacity:0.1; fill:none" points="241.557,253.616 2640.76,253.616 "/>
<polyline clip-path="url(#clip650)" style="stroke:#000000; stroke-linecap:round; stroke-linejoin:round; stroke-width:4; stroke-opacity:1; fill:none" points="241.557,1734.12 2640.76,1734.12 "/>
<polyline clip-path="url(#clip650)" style="stroke:#000000; stroke-linecap:round; stroke-linejoin:round; stroke-width:4; stroke-opacity:1; fill:none" points="309.459,1734.12 309.459,1715.22 "/>
<polyline clip-path="url(#clip650)" style="stroke:#000000; stroke-linecap:round; stroke-linejoin:round; stroke-width:4; stroke-opacity:1; fill:none" points="875.308,1734.12 875.308,1715.22 "/>
<polyline clip-path="url(#clip650)" style="stroke:#000000; stroke-linecap:round; stroke-linejoin:round; stroke-width:4; stroke-opacity:1; fill:none" points="1441.16,1734.12 1441.16,1715.22 "/>
<polyline clip-path="url(#clip650)" style="stroke:#000000; stroke-linecap:round; stroke-linejoin:round; stroke-width:4; stroke-opacity:1; fill:none" points="2007.01,1734.12 2007.01,1715.22 "/>
<polyline clip-path="url(#clip650)" style="stroke:#000000; stroke-linecap:round; stroke-linejoin:round; stroke-width:4; stroke-opacity:1; fill:none" points="2572.85,1734.12 2572.85,1715.22 "/>
<path clip-path="url(#clip650)" d="M309.459 1767.34 Q305.848 1767.34 304.019 1770.9 Q302.214 1774.45 302.214 1781.58 Q302.214 1788.68 304.019 1792.25 Q305.848 1795.79 309.459 1795.79 Q313.093 1795.79 314.899 1792.25 Q316.727 1788.68 316.727 1781.58 Q316.727 1774.45 314.899 1770.9 Q313.093 1767.34 309.459 1767.34 M309.459 1763.64 Q315.269 1763.64 318.325 1768.24 Q321.403 1772.83 321.403 1781.58 Q321.403 1790.3 318.325 1794.91 Q315.269 1799.49 309.459 1799.49 Q303.649 1799.49 300.57 1794.91 Q297.515 1790.3 297.515 1781.58 Q297.515 1772.83 300.57 1768.24 Q303.649 1763.64 309.459 1763.64 Z" fill="#000000" fill-rule="nonzero" fill-opacity="1" /><path clip-path="url(#clip650)" d="M854.579 1794.89 L870.898 1794.89 L870.898 1798.82 L848.954 1798.82 L848.954 1794.89 Q851.616 1792.13 856.199 1787.5 Q860.806 1782.85 861.986 1781.51 Q864.231 1778.98 865.111 1777.25 Q866.014 1775.49 866.014 1773.8 Q866.014 1771.04 864.069 1769.31 Q862.148 1767.57 859.046 1767.57 Q856.847 1767.57 854.394 1768.34 Q851.963 1769.1 849.185 1770.65 L849.185 1765.93 Q852.009 1764.79 854.463 1764.21 Q856.917 1763.64 858.954 1763.64 Q864.324 1763.64 867.518 1766.32 Q870.713 1769.01 870.713 1773.5 Q870.713 1775.63 869.903 1777.55 Q869.116 1779.45 867.009 1782.04 Q866.43 1782.71 863.329 1785.93 Q860.227 1789.12 854.579 1794.89 Z" fill="#000000" fill-rule="nonzero" fill-opacity="1" /><path clip-path="url(#clip650)" d="M880.759 1764.26 L899.115 1764.26 L899.115 1768.2 L885.041 1768.2 L885.041 1776.67 Q886.06 1776.32 887.079 1776.16 Q888.097 1775.97 889.116 1775.97 Q894.903 1775.97 898.282 1779.15 Q901.662 1782.32 901.662 1787.73 Q901.662 1793.31 898.19 1796.41 Q894.717 1799.49 888.398 1799.49 Q886.222 1799.49 883.954 1799.12 Q881.708 1798.75 879.301 1798.01 L879.301 1793.31 Q881.384 1794.45 883.606 1795 Q885.829 1795.56 888.305 1795.56 Q892.31 1795.56 894.648 1793.45 Q896.986 1791.34 896.986 1787.73 Q896.986 1784.12 894.648 1782.02 Q892.31 1779.91 888.305 1779.91 Q886.43 1779.91 884.555 1780.33 Q882.704 1780.74 880.759 1781.62 L880.759 1764.26 Z" fill="#000000" fill-rule="nonzero" fill-opacity="1" /><path clip-path="url(#clip650)" d="M1415.86 1764.26 L1434.21 1764.26 L1434.21 1768.2 L1420.14 1768.2 L1420.14 1776.67 Q1421.16 1776.32 1422.18 1776.16 Q1423.19 1775.97 1424.21 1775.97 Q1430 1775.97 1433.38 1779.15 Q1436.76 1782.32 1436.76 1787.73 Q1436.76 1793.31 1433.29 1796.41 Q1429.81 1799.49 1423.49 1799.49 Q1421.32 1799.49 1419.05 1799.12 Q1416.8 1798.75 1414.4 1798.01 L1414.4 1793.31 Q1416.48 1794.45 1418.7 1795 Q1420.93 1795.56 1423.4 1795.56 Q1427.41 1795.56 1429.74 1793.45 Q1432.08 1791.34 1432.08 1787.73 Q1432.08 1784.12 1429.74 1782.02 Q1427.41 1779.91 1423.4 1779.91 Q1421.53 1779.91 1419.65 1780.33 Q1417.8 1780.74 1415.86 1781.62 L1415.86 1764.26 Z" fill="#000000" fill-rule="nonzero" fill-opacity="1" /><path clip-path="url(#clip650)" d="M1455.97 1767.34 Q1452.36 1767.34 1450.53 1770.9 Q1448.73 1774.45 1448.73 1781.58 Q1448.73 1788.68 1450.53 1792.25 Q1452.36 1795.79 1455.97 1795.79 Q1459.61 1795.79 1461.41 1792.25 Q1463.24 1788.68 1463.24 1781.58 Q1463.24 1774.45 1461.41 1770.9 Q1459.61 1767.34 1455.97 1767.34 M1455.97 1763.64 Q1461.78 1763.64 1464.84 1768.24 Q1467.92 1772.83 1467.92 1781.58 Q1467.92 1790.3 1464.84 1794.91 Q1461.78 1799.49 1455.97 1799.49 Q1450.16 1799.49 1447.08 1794.91 Q1444.03 1790.3 1444.03 1781.58 Q1444.03 1772.83 1447.08 1768.24 Q1450.16 1763.64 1455.97 1763.64 Z" fill="#000000" fill-rule="nonzero" fill-opacity="1" /><path clip-path="url(#clip650)" d="M1980.86 1764.26 L2003.08 1764.26 L2003.08 1766.25 L1990.54 1798.82 L1985.65 1798.82 L1997.46 1768.2 L1980.86 1768.2 L1980.86 1764.26 Z" fill="#000000" fill-rule="nonzero" fill-opacity="1" /><path clip-path="url(#clip650)" d="M2012.25 1764.26 L2030.6 1764.26 L2030.6 1768.2 L2016.53 1768.2 L2016.53 1776.67 Q2017.55 1776.32 2018.57 1776.16 Q2019.59 1775.97 2020.6 1775.97 Q2026.39 1775.97 2029.77 1779.15 Q2033.15 1782.32 2033.15 1787.73 Q2033.15 1793.31 2029.68 1796.41 Q2026.21 1799.49 2019.89 1799.49 Q2017.71 1799.49 2015.44 1799.12 Q2013.2 1798.75 2010.79 1798.01 L2010.79 1793.31 Q2012.87 1794.45 2015.1 1795 Q2017.32 1795.56 2019.79 1795.56 Q2023.8 1795.56 2026.14 1793.45 Q2028.48 1791.34 2028.48 1787.73 Q2028.48 1784.12 2026.14 1782.02 Q2023.8 1779.91 2019.79 1779.91 Q2017.92 1779.91 2016.04 1780.33 Q2014.19 1780.74 2012.25 1781.62 L2012.25 1764.26 Z" fill="#000000" fill-rule="nonzero" fill-opacity="1" /><path clip-path="url(#clip650)" d="M2532.46 1794.89 L2540.1 1794.89 L2540.1 1768.52 L2531.79 1770.19 L2531.79 1765.93 L2540.05 1764.26 L2544.73 1764.26 L2544.73 1794.89 L2552.37 1794.89 L2552.37 1798.82 L2532.46 1798.82 L2532.46 1794.89 Z" fill="#000000" fill-rule="nonzero" fill-opacity="1" /><path clip-path="url(#clip650)" d="M2571.81 1767.34 Q2568.2 1767.34 2566.37 1770.9 Q2564.57 1774.45 2564.57 1781.58 Q2564.57 1788.68 2566.37 1792.25 Q2568.2 1795.79 2571.81 1795.79 Q2575.45 1795.79 2577.25 1792.25 Q2579.08 1788.68 2579.08 1781.58 Q2579.08 1774.45 2577.25 1770.9 Q2575.45 1767.34 2571.81 1767.34 M2571.81 1763.64 Q2577.62 1763.64 2580.68 1768.24 Q2583.76 1772.83 2583.76 1781.58 Q2583.76 1790.3 2580.68 1794.91 Q2577.62 1799.49 2571.81 1799.49 Q2566 1799.49 2562.92 1794.91 Q2559.87 1790.3 2559.87 1781.58 Q2559.87 1772.83 2562.92 1768.24 Q2566 1763.64 2571.81 1763.64 Z" fill="#000000" fill-rule="nonzero" fill-opacity="1" /><path clip-path="url(#clip650)" d="M2601.97 1767.34 Q2598.36 1767.34 2596.53 1770.9 Q2594.73 1774.45 2594.73 1781.58 Q2594.73 1788.68 2596.53 1792.25 Q2598.36 1795.79 2601.97 1795.79 Q2605.61 1795.79 2607.41 1792.25 Q2609.24 1788.68 2609.24 1781.58 Q2609.24 1774.45 2607.41 1770.9 Q2605.61 1767.34 2601.97 1767.34 M2601.97 1763.64 Q2607.78 1763.64 2610.84 1768.24 Q2613.92 1772.83 2613.92 1781.58 Q2613.92 1790.3 2610.84 1794.91 Q2607.78 1799.49 2601.97 1799.49 Q2596.16 1799.49 2593.09 1794.91 Q2590.03 1790.3 2590.03 1781.58 Q2590.03 1772.83 2593.09 1768.24 Q2596.16 1763.64 2601.97 1763.64 Z" fill="#000000" fill-rule="nonzero" fill-opacity="1" /><path clip-path="url(#clip650)" d="M1363.03 1835.78 L1403.23 1835.78 L1403.23 1841.19 L1386.36 1841.19 L1386.36 1883.3 L1379.9 1883.3 L1379.9 1841.19 L1363.03 1841.19 L1363.03 1835.78 Z" fill="#000000" fill-rule="nonzero" fill-opacity="1" /><path clip-path="url(#clip650)" d="M1407.18 1847.65 L1413.04 1847.65 L1413.04 1883.3 L1407.18 1883.3 L1407.18 1847.65 M1407.18 1833.78 L1413.04 1833.78 L1413.04 1841.19 L1407.18 1841.19 L1407.18 1833.78 Z" fill="#000000" fill-rule="nonzero" fill-opacity="1" /><path clip-path="url(#clip650)" d="M1453.04 1854.5 Q1455.24 1850.55 1458.3 1848.67 Q1461.35 1846.79 1465.49 1846.79 Q1471.06 1846.79 1474.08 1850.71 Q1477.11 1854.59 1477.11 1861.78 L1477.11 1883.3 L1471.22 1883.3 L1471.22 1861.98 Q1471.22 1856.85 1469.4 1854.37 Q1467.59 1851.89 1463.87 1851.89 Q1459.31 1851.89 1456.67 1854.91 Q1454.03 1857.93 1454.03 1863.15 L1454.03 1883.3 L1448.14 1883.3 L1448.14 1861.98 Q1448.14 1856.82 1446.33 1854.37 Q1444.51 1851.89 1440.73 1851.89 Q1436.24 1851.89 1433.6 1854.94 Q1430.96 1857.97 1430.96 1863.15 L1430.96 1883.3 L1425.07 1883.3 L1425.07 1847.65 L1430.96 1847.65 L1430.96 1853.19 Q1432.96 1849.91 1435.76 1848.35 Q1438.56 1846.79 1442.41 1846.79 Q1446.3 1846.79 1449 1848.77 Q1451.74 1850.74 1453.04 1854.5 Z" fill="#000000" fill-rule="nonzero" fill-opacity="1" /><path clip-path="url(#clip650)" d="M1519.28 1864.01 L1519.28 1866.88 L1492.35 1866.88 Q1492.73 1872.92 1495.98 1876.11 Q1499.26 1879.26 1505.08 1879.26 Q1508.46 1879.26 1511.61 1878.43 Q1514.79 1877.6 1517.91 1875.95 L1517.91 1881.49 Q1514.76 1882.82 1511.45 1883.52 Q1508.14 1884.22 1504.73 1884.22 Q1496.2 1884.22 1491.21 1879.26 Q1486.24 1874.29 1486.24 1865.83 Q1486.24 1857.07 1490.95 1851.95 Q1495.69 1846.79 1503.72 1846.79 Q1510.91 1846.79 1515.08 1851.44 Q1519.28 1856.06 1519.28 1864.01 M1513.42 1862.29 Q1513.36 1857.49 1510.72 1854.62 Q1508.11 1851.76 1503.78 1851.76 Q1498.88 1851.76 1495.92 1854.53 Q1492.99 1857.3 1492.54 1862.33 L1513.42 1862.29 Z" fill="#000000" fill-rule="nonzero" fill-opacity="1" /><polyline clip-path="url(#clip650)" style="stroke:#000000; stroke-linecap:round; stroke-linejoin:round; stroke-width:4; stroke-opacity:1; fill:none" points="241.557,1734.12 241.557,127.792 "/>
<polyline clip-path="url(#clip650)" style="stroke:#000000; stroke-linecap:round; stroke-linejoin:round; stroke-width:4; stroke-opacity:1; fill:none" points="241.557,1688.65 260.455,1688.65 "/>
<polyline clip-path="url(#clip650)" style="stroke:#000000; stroke-linecap:round; stroke-linejoin:round; stroke-width:4; stroke-opacity:1; fill:none" points="241.557,1401.65 260.455,1401.65 "/>
<polyline clip-path="url(#clip650)" style="stroke:#000000; stroke-linecap:round; stroke-linejoin:round; stroke-width:4; stroke-opacity:1; fill:none" points="241.557,1114.64 260.455,1114.64 "/>
<polyline clip-path="url(#clip650)" style="stroke:#000000; stroke-linecap:round; stroke-linejoin:round; stroke-width:4; stroke-opacity:1; fill:none" points="241.557,827.632 260.455,827.632 "/>
<polyline clip-path="url(#clip650)" style="stroke:#000000; stroke-linecap:round; stroke-linejoin:round; stroke-width:4; stroke-opacity:1; fill:none" points="241.557,540.624 260.455,540.624 "/>
<polyline clip-path="url(#clip650)" style="stroke:#000000; stroke-linecap:round; stroke-linejoin:round; stroke-width:4; stroke-opacity:1; fill:none" points="241.557,253.616 260.455,253.616 "/>
<path clip-path="url(#clip650)" d="M189.293 1674.45 Q185.682 1674.45 183.853 1678.02 Q182.047 1681.56 182.047 1688.69 Q182.047 1695.8 183.853 1699.36 Q185.682 1702.9 189.293 1702.9 Q192.927 1702.9 194.733 1699.36 Q196.561 1695.8 196.561 1688.69 Q196.561 1681.56 194.733 1678.02 Q192.927 1674.45 189.293 1674.45 M189.293 1670.75 Q195.103 1670.75 198.158 1675.36 Q201.237 1679.94 201.237 1688.69 Q201.237 1697.42 198.158 1702.02 Q195.103 1706.61 189.293 1706.61 Q183.483 1706.61 180.404 1702.02 Q177.348 1697.42 177.348 1688.69 Q177.348 1679.94 180.404 1675.36 Q183.483 1670.75 189.293 1670.75 Z" fill="#000000" fill-rule="nonzero" fill-opacity="1" /><path clip-path="url(#clip650)" d="M119.779 1414.99 L127.418 1414.99 L127.418 1388.63 L119.108 1390.29 L119.108 1386.03 L127.372 1384.37 L132.048 1384.37 L132.048 1414.99 L139.687 1414.99 L139.687 1418.93 L119.779 1418.93 L119.779 1414.99 Z" fill="#000000" fill-rule="nonzero" fill-opacity="1" /><path clip-path="url(#clip650)" d="M159.131 1387.45 Q155.52 1387.45 153.691 1391.01 Q151.886 1394.55 151.886 1401.68 Q151.886 1408.79 153.691 1412.35 Q155.52 1415.89 159.131 1415.89 Q162.765 1415.89 164.571 1412.35 Q166.399 1408.79 166.399 1401.68 Q166.399 1394.55 164.571 1391.01 Q162.765 1387.45 159.131 1387.45 M159.131 1383.74 Q164.941 1383.74 167.997 1388.35 Q171.075 1392.93 171.075 1401.68 Q171.075 1410.41 167.997 1415.02 Q164.941 1419.6 159.131 1419.6 Q153.321 1419.6 150.242 1415.02 Q147.186 1410.41 147.186 1401.68 Q147.186 1392.93 150.242 1388.35 Q153.321 1383.74 159.131 1383.74 Z" fill="#000000" fill-rule="nonzero" fill-opacity="1" /><path clip-path="url(#clip650)" d="M189.293 1387.45 Q185.682 1387.45 183.853 1391.01 Q182.047 1394.55 182.047 1401.68 Q182.047 1408.79 183.853 1412.35 Q185.682 1415.89 189.293 1415.89 Q192.927 1415.89 194.733 1412.35 Q196.561 1408.79 196.561 1401.68 Q196.561 1394.55 194.733 1391.01 Q192.927 1387.45 189.293 1387.45 M189.293 1383.74 Q195.103 1383.74 198.158 1388.35 Q201.237 1392.93 201.237 1401.68 Q201.237 1410.41 198.158 1415.02 Q195.103 1419.6 189.293 1419.6 Q183.483 1419.6 180.404 1415.02 Q177.348 1410.41 177.348 1401.68 Q177.348 1392.93 180.404 1388.35 Q183.483 1383.74 189.293 1383.74 Z" fill="#000000" fill-rule="nonzero" fill-opacity="1" /><path clip-path="url(#clip650)" d="M122.997 1127.98 L139.316 1127.98 L139.316 1131.92 L117.372 1131.92 L117.372 1127.98 Q120.034 1125.23 124.617 1120.6 Q129.224 1115.95 130.404 1114.6 Q132.65 1112.08 133.529 1110.35 Q134.432 1108.59 134.432 1106.9 Q134.432 1104.14 132.488 1102.41 Q130.566 1100.67 127.464 1100.67 Q125.265 1100.67 122.812 1101.43 Q120.381 1102.2 117.603 1103.75 L117.603 1099.03 Q120.427 1097.89 122.881 1097.31 Q125.335 1096.73 127.372 1096.73 Q132.742 1096.73 135.937 1099.42 Q139.131 1102.1 139.131 1106.6 Q139.131 1108.73 138.321 1110.65 Q137.534 1112.54 135.427 1115.14 Q134.849 1115.81 131.747 1119.03 Q128.645 1122.22 122.997 1127.98 Z" fill="#000000" fill-rule="nonzero" fill-opacity="1" /><path clip-path="url(#clip650)" d="M159.131 1100.44 Q155.52 1100.44 153.691 1104 Q151.886 1107.54 151.886 1114.67 Q151.886 1121.78 153.691 1125.35 Q155.52 1128.89 159.131 1128.89 Q162.765 1128.89 164.571 1125.35 Q166.399 1121.78 166.399 1114.67 Q166.399 1107.54 164.571 1104 Q162.765 1100.44 159.131 1100.44 M159.131 1096.73 Q164.941 1096.73 167.997 1101.34 Q171.075 1105.92 171.075 1114.67 Q171.075 1123.4 167.997 1128.01 Q164.941 1132.59 159.131 1132.59 Q153.321 1132.59 150.242 1128.01 Q147.186 1123.4 147.186 1114.67 Q147.186 1105.92 150.242 1101.34 Q153.321 1096.73 159.131 1096.73 Z" fill="#000000" fill-rule="nonzero" fill-opacity="1" /><path clip-path="url(#clip650)" d="M189.293 1100.44 Q185.682 1100.44 183.853 1104 Q182.047 1107.54 182.047 1114.67 Q182.047 1121.78 183.853 1125.35 Q185.682 1128.89 189.293 1128.89 Q192.927 1128.89 194.733 1125.35 Q196.561 1121.78 196.561 1114.67 Q196.561 1107.54 194.733 1104 Q192.927 1100.44 189.293 1100.44 M189.293 1096.73 Q195.103 1096.73 198.158 1101.34 Q201.237 1105.92 201.237 1114.67 Q201.237 1123.4 198.158 1128.01 Q195.103 1132.59 189.293 1132.59 Q183.483 1132.59 180.404 1128.01 Q177.348 1123.4 177.348 1114.67 Q177.348 1105.92 180.404 1101.34 Q183.483 1096.73 189.293 1096.73 Z" fill="#000000" fill-rule="nonzero" fill-opacity="1" /><path clip-path="url(#clip650)" d="M133.136 826.278 Q136.492 826.995 138.367 829.264 Q140.265 831.532 140.265 834.866 Q140.265 839.981 136.747 842.782 Q133.228 845.583 126.747 845.583 Q124.571 845.583 122.256 845.143 Q119.964 844.727 117.511 843.87 L117.511 839.356 Q119.455 840.491 121.77 841.069 Q124.085 841.648 126.608 841.648 Q131.006 841.648 133.298 839.912 Q135.612 838.176 135.612 834.866 Q135.612 831.81 133.46 830.097 Q131.33 828.361 127.511 828.361 L123.483 828.361 L123.483 824.518 L127.696 824.518 Q131.145 824.518 132.974 823.153 Q134.802 821.764 134.802 819.171 Q134.802 816.509 132.904 815.097 Q131.029 813.662 127.511 813.662 Q125.589 813.662 123.39 814.079 Q121.191 814.495 118.552 815.375 L118.552 811.208 Q121.214 810.468 123.529 810.097 Q125.867 809.727 127.927 809.727 Q133.251 809.727 136.353 812.157 Q139.455 814.565 139.455 818.685 Q139.455 821.555 137.812 823.546 Q136.168 825.514 133.136 826.278 Z" fill="#000000" fill-rule="nonzero" fill-opacity="1" /><path clip-path="url(#clip650)" d="M159.131 813.43 Q155.52 813.43 153.691 816.995 Q151.886 820.537 151.886 827.666 Q151.886 834.773 153.691 838.338 Q155.52 841.879 159.131 841.879 Q162.765 841.879 164.571 838.338 Q166.399 834.773 166.399 827.666 Q166.399 820.537 164.571 816.995 Q162.765 813.43 159.131 813.43 M159.131 809.727 Q164.941 809.727 167.997 814.333 Q171.075 818.917 171.075 827.666 Q171.075 836.393 167.997 841 Q164.941 845.583 159.131 845.583 Q153.321 845.583 150.242 841 Q147.186 836.393 147.186 827.666 Q147.186 818.917 150.242 814.333 Q153.321 809.727 159.131 809.727 Z" fill="#000000" fill-rule="nonzero" fill-opacity="1" /><path clip-path="url(#clip650)" d="M189.293 813.43 Q185.682 813.43 183.853 816.995 Q182.047 820.537 182.047 827.666 Q182.047 834.773 183.853 838.338 Q185.682 841.879 189.293 841.879 Q192.927 841.879 194.733 838.338 Q196.561 834.773 196.561 827.666 Q196.561 820.537 194.733 816.995 Q192.927 813.43 189.293 813.43 M189.293 809.727 Q195.103 809.727 198.158 814.333 Q201.237 818.917 201.237 827.666 Q201.237 836.393 198.158 841 Q195.103 845.583 189.293 845.583 Q183.483 845.583 180.404 841 Q177.348 836.393 177.348 827.666 Q177.348 818.917 180.404 814.333 Q183.483 809.727 189.293 809.727 Z" fill="#000000" fill-rule="nonzero" fill-opacity="1" /><path clip-path="url(#clip650)" d="M131.816 527.418 L120.011 545.867 L131.816 545.867 L131.816 527.418 M130.589 523.344 L136.469 523.344 L136.469 545.867 L141.399 545.867 L141.399 549.756 L136.469 549.756 L136.469 557.904 L131.816 557.904 L131.816 549.756 L116.214 549.756 L116.214 545.242 L130.589 523.344 Z" fill="#000000" fill-rule="nonzero" fill-opacity="1" /><path clip-path="url(#clip650)" d="M159.131 526.423 Q155.52 526.423 153.691 529.988 Q151.886 533.529 151.886 540.659 Q151.886 547.765 153.691 551.33 Q155.52 554.872 159.131 554.872 Q162.765 554.872 164.571 551.33 Q166.399 547.765 166.399 540.659 Q166.399 533.529 164.571 529.988 Q162.765 526.423 159.131 526.423 M159.131 522.719 Q164.941 522.719 167.997 527.326 Q171.075 531.909 171.075 540.659 Q171.075 549.386 167.997 553.992 Q164.941 558.575 159.131 558.575 Q153.321 558.575 150.242 553.992 Q147.186 549.386 147.186 540.659 Q147.186 531.909 150.242 527.326 Q153.321 522.719 159.131 522.719 Z" fill="#000000" fill-rule="nonzero" fill-opacity="1" /><path clip-path="url(#clip650)" d="M189.293 526.423 Q185.682 526.423 183.853 529.988 Q182.047 533.529 182.047 540.659 Q182.047 547.765 183.853 551.33 Q185.682 554.872 189.293 554.872 Q192.927 554.872 194.733 551.33 Q196.561 547.765 196.561 540.659 Q196.561 533.529 194.733 529.988 Q192.927 526.423 189.293 526.423 M189.293 522.719 Q195.103 522.719 198.158 527.326 Q201.237 531.909 201.237 540.659 Q201.237 549.386 198.158 553.992 Q195.103 558.575 189.293 558.575 Q183.483 558.575 180.404 553.992 Q177.348 549.386 177.348 540.659 Q177.348 531.909 180.404 527.326 Q183.483 522.719 189.293 522.719 Z" fill="#000000" fill-rule="nonzero" fill-opacity="1" /><path clip-path="url(#clip650)" d="M119.015 236.336 L137.372 236.336 L137.372 240.271 L123.298 240.271 L123.298 248.744 Q124.316 248.396 125.335 248.234 Q126.353 248.049 127.372 248.049 Q133.159 248.049 136.538 251.22 Q139.918 254.392 139.918 259.808 Q139.918 265.387 136.446 268.489 Q132.974 271.568 126.654 271.568 Q124.478 271.568 122.21 271.197 Q119.964 270.827 117.557 270.086 L117.557 265.387 Q119.64 266.521 121.863 267.077 Q124.085 267.632 126.562 267.632 Q130.566 267.632 132.904 265.526 Q135.242 263.42 135.242 259.808 Q135.242 256.197 132.904 254.091 Q130.566 251.984 126.562 251.984 Q124.687 251.984 122.812 252.401 Q120.96 252.818 119.015 253.697 L119.015 236.336 Z" fill="#000000" fill-rule="nonzero" fill-opacity="1" /><path clip-path="url(#clip650)" d="M159.131 239.415 Q155.52 239.415 153.691 242.98 Q151.886 246.521 151.886 253.651 Q151.886 260.757 153.691 264.322 Q155.52 267.864 159.131 267.864 Q162.765 267.864 164.571 264.322 Q166.399 260.757 166.399 253.651 Q166.399 246.521 164.571 242.98 Q162.765 239.415 159.131 239.415 M159.131 235.711 Q164.941 235.711 167.997 240.318 Q171.075 244.901 171.075 253.651 Q171.075 262.378 167.997 266.984 Q164.941 271.568 159.131 271.568 Q153.321 271.568 150.242 266.984 Q147.186 262.378 147.186 253.651 Q147.186 244.901 150.242 240.318 Q153.321 235.711 159.131 235.711 Z" fill="#000000" fill-rule="nonzero" fill-opacity="1" /><path clip-path="url(#clip650)" d="M189.293 239.415 Q185.682 239.415 183.853 242.98 Q182.047 246.521 182.047 253.651 Q182.047 260.757 183.853 264.322 Q185.682 267.864 189.293 267.864 Q192.927 267.864 194.733 264.322 Q196.561 260.757 196.561 253.651 Q196.561 246.521 194.733 242.98 Q192.927 239.415 189.293 239.415 M189.293 235.711 Q195.103 235.711 198.158 240.318 Q201.237 244.901 201.237 253.651 Q201.237 262.378 198.158 266.984 Q195.103 271.568 189.293 271.568 Q183.483 271.568 180.404 266.984 Q177.348 262.378 177.348 253.651 Q177.348 244.901 180.404 240.318 Q183.483 235.711 189.293 235.711 Z" fill="#000000" fill-rule="nonzero" fill-opacity="1" /><path clip-path="url(#clip650)" d="M14.1184 1058.03 L14.1184 1051.6 L61.6384 1051.6 L61.6384 1058.03 L14.1184 1058.03 Z" fill="#000000" fill-rule="nonzero" fill-opacity="1" /><path clip-path="url(#clip650)" d="M40.1224 1009.43 L61.6384 1009.43 L61.6384 1015.28 L40.3133 1015.28 Q35.2526 1015.28 32.7381 1017.26 Q30.2237 1019.23 30.2237 1023.18 Q30.2237 1027.92 33.2474 1030.66 Q36.2711 1033.39 41.491 1033.39 L61.6384 1033.39 L61.6384 1039.28 L25.9905 1039.28 L25.9905 1033.39 L31.5287 1033.39 Q28.314 1031.29 26.7225 1028.46 Q25.1311 1025.6 25.1311 1021.87 Q25.1311 1015.73 28.9505 1012.58 Q32.7381 1009.43 40.1224 1009.43 Z" fill="#000000" fill-rule="nonzero" fill-opacity="1" /><path clip-path="url(#clip650)" d="M12.1132 979.7 L16.983 979.7 L16.983 985.302 Q16.983 988.453 18.2562 989.694 Q19.5293 990.904 22.8395 990.904 L25.9905 990.904 L25.9905 981.26 L30.542 981.26 L30.542 990.904 L61.6384 990.904 L61.6384 996.792 L30.542 996.792 L30.542 1002.39 L25.9905 1002.39 L25.9905 996.792 L23.5079 996.792 Q17.5559 996.792 14.8505 994.023 Q12.1132 991.254 12.1132 985.238 L12.1132 979.7 Z" fill="#000000" fill-rule="nonzero" fill-opacity="1" /><path clip-path="url(#clip650)" d="M42.3504 944.307 L45.2149 944.307 L45.2149 971.234 Q51.2623 970.852 54.4452 967.605 Q57.5962 964.327 57.5962 958.502 Q57.5962 955.128 56.7687 951.977 Q55.9411 948.794 54.2861 945.675 L59.8242 945.675 Q61.161 948.826 61.8612 952.136 Q62.5615 955.447 62.5615 958.852 Q62.5615 967.382 57.5962 972.379 Q52.631 977.345 44.1646 977.345 Q35.4117 977.345 30.2873 972.634 Q25.1311 967.892 25.1311 959.871 Q25.1311 952.678 29.7781 948.508 Q34.3932 944.307 42.3504 944.307 M40.6316 950.163 Q35.8255 950.227 32.9609 952.869 Q30.0964 955.478 30.0964 959.807 Q30.0964 964.709 32.8654 967.669 Q35.6345 970.597 40.6634 971.043 L40.6316 950.163 Z" fill="#000000" fill-rule="nonzero" fill-opacity="1" /><path clip-path="url(#clip650)" d="M27.3591 909.041 L32.8336 909.041 Q31.465 911.523 30.7966 914.038 Q30.0964 916.52 30.0964 919.067 Q30.0964 924.764 33.7248 927.915 Q37.3214 931.066 43.8463 931.066 Q50.3711 931.066 53.9996 927.915 Q57.5962 924.764 57.5962 919.067 Q57.5962 916.52 56.9278 914.038 Q56.2276 911.523 54.859 909.041 L60.2698 909.041 Q61.4156 911.491 61.9886 914.133 Q62.5615 916.743 62.5615 919.703 Q62.5615 927.756 57.5007 932.498 Q52.44 937.241 43.8463 937.241 Q35.1253 937.241 30.1282 932.466 Q25.1311 927.66 25.1311 919.321 Q25.1311 916.616 25.704 914.038 Q26.2451 911.46 27.3591 909.041 Z" fill="#000000" fill-rule="nonzero" fill-opacity="1" /><path clip-path="url(#clip650)" d="M15.869 893.063 L25.9905 893.063 L25.9905 881 L30.542 881 L30.542 893.063 L49.8937 893.063 Q54.2542 893.063 55.4955 891.885 Q56.7368 890.676 56.7368 887.015 L56.7368 881 L61.6384 881 L61.6384 887.015 Q61.6384 893.795 59.124 896.373 Q56.5777 898.951 49.8937 898.951 L30.542 898.951 L30.542 903.248 L25.9905 903.248 L25.9905 898.951 L15.869 898.951 L15.869 893.063 Z" fill="#000000" fill-rule="nonzero" fill-opacity="1" /><path clip-path="url(#clip650)" d="M42.3504 842.805 L45.2149 842.805 L45.2149 869.732 Q51.2623 869.35 54.4452 866.104 Q57.5962 862.826 57.5962 857.001 Q57.5962 853.627 56.7687 850.476 Q55.9411 847.293 54.2861 844.174 L59.8242 844.174 Q61.161 847.325 61.8612 850.635 Q62.5615 853.945 62.5615 857.351 Q62.5615 865.881 57.5962 870.878 Q52.631 875.843 44.1646 875.843 Q35.4117 875.843 30.2873 871.133 Q25.1311 866.39 25.1311 858.37 Q25.1311 851.176 29.7781 847.007 Q34.3932 842.805 42.3504 842.805 M40.6316 848.662 Q35.8255 848.726 32.9609 851.367 Q30.0964 853.977 30.0964 858.306 Q30.0964 863.208 32.8654 866.168 Q35.6345 869.096 40.6634 869.541 L40.6316 848.662 Z" fill="#000000" fill-rule="nonzero" fill-opacity="1" /><path clip-path="url(#clip650)" d="M31.4013 809.736 L12.1132 809.736 L12.1132 803.879 L61.6384 803.879 L61.6384 809.736 L56.2912 809.736 Q59.4741 811.582 61.0337 814.414 Q62.5615 817.215 62.5615 821.162 Q62.5615 827.623 57.4052 831.697 Q52.249 835.739 43.8463 835.739 Q35.4436 835.739 30.2873 831.697 Q25.1311 827.623 25.1311 821.162 Q25.1311 817.215 26.6907 814.414 Q28.2185 811.582 31.4013 809.736 M43.8463 829.692 Q50.3075 829.692 53.9996 827.05 Q57.6599 824.377 57.6599 819.73 Q57.6599 815.083 53.9996 812.409 Q50.3075 809.736 43.8463 809.736 Q37.3851 809.736 33.7248 812.409 Q30.0327 815.083 30.0327 819.73 Q30.0327 824.377 33.7248 827.05 Q37.3851 829.692 43.8463 829.692 Z" fill="#000000" fill-rule="nonzero" fill-opacity="1" /><path clip-path="url(#clip650)" d="M443.338 14.0809 L443.338 22.0612 Q438.679 19.8332 434.547 18.7395 Q430.415 17.6457 426.567 17.6457 Q419.883 17.6457 416.237 20.2383 Q412.632 22.8309 412.632 27.611 Q412.632 31.6214 415.022 33.6873 Q417.453 35.7128 424.177 36.9686 L429.119 37.9813 Q438.274 39.7232 442.609 44.1387 Q446.984 48.5136 446.984 55.8863 Q446.984 64.6767 441.069 69.2137 Q435.195 73.7508 423.812 73.7508 Q419.518 73.7508 414.657 72.7785 Q409.837 71.8063 404.652 69.9024 L404.652 61.4765 Q409.634 64.2716 414.414 65.6895 Q419.194 67.1073 423.812 67.1073 Q430.82 67.1073 434.628 64.3527 Q438.436 61.598 438.436 56.4939 Q438.436 52.0379 435.682 49.5264 Q432.967 47.0148 426.729 45.759 L421.746 44.7868 Q412.591 42.9639 408.5 39.075 Q404.409 35.1862 404.409 28.2591 Q404.409 20.2383 410.039 15.6203 Q415.711 11.0023 425.635 11.0023 Q429.889 11.0023 434.304 11.7719 Q438.72 12.5416 443.338 14.0809 Z" fill="#000000" fill-rule="nonzero" fill-opacity="1" /><path clip-path="url(#clip650)" d="M466.793 14.324 L466.793 27.2059 L482.145 27.2059 L482.145 32.9987 L466.793 32.9987 L466.793 57.6282 Q466.793 63.1779 468.291 64.7578 Q469.831 66.3376 474.489 66.3376 L482.145 66.3376 L482.145 72.576 L474.489 72.576 Q465.861 72.576 462.58 69.3758 Q459.298 66.1351 459.298 57.6282 L459.298 32.9987 L453.83 32.9987 L453.83 27.2059 L459.298 27.2059 L459.298 14.324 L466.793 14.324 Z" fill="#000000" fill-rule="nonzero" fill-opacity="1" /><path clip-path="url(#clip650)" d="M509.53 32.4315 Q503.534 32.4315 500.05 37.1306 Q496.567 41.7891 496.567 49.9314 Q496.567 58.0738 500.01 62.7728 Q503.494 67.4314 509.53 67.4314 Q515.484 67.4314 518.968 62.7323 Q522.452 58.0333 522.452 49.9314 Q522.452 41.8701 518.968 37.1711 Q515.484 32.4315 509.53 32.4315 M509.53 26.1121 Q519.252 26.1121 524.801 32.4315 Q530.351 38.7509 530.351 49.9314 Q530.351 61.0714 524.801 67.4314 Q519.252 73.7508 509.53 73.7508 Q499.767 73.7508 494.217 67.4314 Q488.708 61.0714 488.708 49.9314 Q488.708 38.7509 494.217 32.4315 Q499.767 26.1121 509.53 26.1121 Z" fill="#000000" fill-rule="nonzero" fill-opacity="1" /><path clip-path="url(#clip650)" d="M575.357 28.9478 L575.357 35.9153 Q572.197 34.1734 568.997 33.3227 Q565.837 32.4315 562.596 32.4315 Q555.345 32.4315 551.335 37.0496 Q547.325 41.6271 547.325 49.9314 Q547.325 58.2358 551.335 62.8538 Q555.345 67.4314 562.596 67.4314 Q565.837 67.4314 568.997 66.5807 Q572.197 65.6895 575.357 63.9476 L575.357 70.8341 Q572.238 72.2924 568.875 73.0216 Q565.554 73.7508 561.786 73.7508 Q551.537 73.7508 545.502 67.3098 Q539.466 60.8689 539.466 49.9314 Q539.466 38.832 545.542 32.472 Q551.659 26.1121 562.272 26.1121 Q565.716 26.1121 568.997 26.8413 Q572.278 27.5299 575.357 28.9478 Z" fill="#000000" fill-rule="nonzero" fill-opacity="1" /><path clip-path="url(#clip650)" d="M626.034 45.1919 L626.034 72.576 L618.58 72.576 L618.58 45.4349 Q618.58 38.994 616.068 35.7938 Q613.557 32.5936 608.534 32.5936 Q602.498 32.5936 599.014 36.4419 Q595.53 40.2903 595.53 46.9338 L595.53 72.576 L588.036 72.576 L588.036 9.54393 L595.53 9.54393 L595.53 34.2544 Q598.204 30.163 601.809 28.1376 Q605.455 26.1121 610.195 26.1121 Q618.013 26.1121 622.023 30.9732 Q626.034 35.7938 626.034 45.1919 Z" fill="#000000" fill-rule="nonzero" fill-opacity="1" /><path clip-path="url(#clip650)" d="M661.519 49.7694 Q652.486 49.7694 649.002 51.8354 Q645.518 53.9013 645.518 58.8839 Q645.518 62.8538 648.111 65.2034 Q650.744 67.5124 655.241 67.5124 Q661.438 67.5124 665.165 63.1374 Q668.933 58.7219 668.933 51.4303 L668.933 49.7694 L661.519 49.7694 M676.386 46.6907 L676.386 72.576 L668.933 72.576 L668.933 65.6895 Q666.381 69.8214 662.573 71.8063 Q658.765 73.7508 653.256 73.7508 Q646.288 73.7508 642.156 69.8619 Q638.065 65.9325 638.065 59.3701 Q638.065 51.7138 643.169 47.825 Q648.314 43.9361 658.481 43.9361 L668.933 43.9361 L668.933 43.2069 Q668.933 38.0623 665.53 35.2672 Q662.168 32.4315 656.051 32.4315 Q652.162 32.4315 648.476 33.3632 Q644.789 34.295 641.387 36.1584 L641.387 29.2718 Q645.478 27.692 649.326 26.9223 Q653.175 26.1121 656.82 26.1121 Q666.664 26.1121 671.525 31.2163 Q676.386 36.3204 676.386 46.6907 Z" fill="#000000" fill-rule="nonzero" fill-opacity="1" /><path clip-path="url(#clip650)" d="M720.663 28.5427 L720.663 35.5912 Q717.503 33.9709 714.1 33.1607 Q710.697 32.3505 707.052 32.3505 Q701.502 32.3505 698.707 34.0519 Q695.952 35.7533 695.952 39.156 Q695.952 41.7486 697.937 43.2475 Q699.922 44.7058 705.917 46.0426 L708.469 46.6097 Q716.409 48.3111 719.731 51.4303 Q723.093 54.509 723.093 60.0587 Q723.093 66.3781 718.07 70.0644 Q713.088 73.7508 704.338 73.7508 Q700.692 73.7508 696.722 73.0216 Q692.792 72.3329 688.417 70.9151 L688.417 63.2184 Q692.549 65.3654 696.56 66.4591 Q700.57 67.5124 704.5 67.5124 Q709.766 67.5124 712.601 65.73 Q715.437 63.9071 715.437 60.6258 Q715.437 57.5877 713.371 55.9673 Q711.346 54.3469 704.419 52.8481 L701.826 52.2405 Q694.899 50.7821 691.82 47.7845 Q688.742 44.7463 688.742 39.4801 Q688.742 33.0797 693.279 29.5959 Q697.816 26.1121 706.16 26.1121 Q710.292 26.1121 713.938 26.7198 Q717.584 27.3274 720.663 28.5427 Z" fill="#000000" fill-rule="nonzero" fill-opacity="1" /><path clip-path="url(#clip650)" d="M742.335 14.324 L742.335 27.2059 L757.688 27.2059 L757.688 32.9987 L742.335 32.9987 L742.335 57.6282 Q742.335 63.1779 743.834 64.7578 Q745.373 66.3376 750.032 66.3376 L757.688 66.3376 L757.688 72.576 L750.032 72.576 Q741.403 72.576 738.122 69.3758 Q734.841 66.1351 734.841 57.6282 L734.841 32.9987 L729.372 32.9987 L729.372 27.2059 L734.841 27.2059 L734.841 14.324 L742.335 14.324 Z" fill="#000000" fill-rule="nonzero" fill-opacity="1" /><path clip-path="url(#clip650)" d="M767.491 27.2059 L774.945 27.2059 L774.945 72.576 L767.491 72.576 L767.491 27.2059 M767.491 9.54393 L774.945 9.54393 L774.945 18.9825 L767.491 18.9825 L767.491 9.54393 Z" fill="#000000" fill-rule="nonzero" fill-opacity="1" /><path clip-path="url(#clip650)" d="M823.191 28.9478 L823.191 35.9153 Q820.031 34.1734 816.831 33.3227 Q813.671 32.4315 810.431 32.4315 Q803.18 32.4315 799.169 37.0496 Q795.159 41.6271 795.159 49.9314 Q795.159 58.2358 799.169 62.8538 Q803.18 67.4314 810.431 67.4314 Q813.671 67.4314 816.831 66.5807 Q820.031 65.6895 823.191 63.9476 L823.191 70.8341 Q820.072 72.2924 816.71 73.0216 Q813.388 73.7508 809.621 73.7508 Q799.372 73.7508 793.336 67.3098 Q787.3 60.8689 787.3 49.9314 Q787.3 38.832 793.376 32.472 Q799.493 26.1121 810.107 26.1121 Q813.55 26.1121 816.831 26.8413 Q820.112 27.5299 823.191 28.9478 Z" fill="#000000" fill-rule="nonzero" fill-opacity="1" /><path clip-path="url(#clip650)" d="M899.105 14.0809 L899.105 22.0612 Q894.446 19.8332 890.315 18.7395 Q886.183 17.6457 882.334 17.6457 Q875.65 17.6457 872.004 20.2383 Q868.399 22.8309 868.399 27.611 Q868.399 31.6214 870.789 33.6873 Q873.22 35.7128 879.944 36.9686 L884.886 37.9813 Q894.041 39.7232 898.376 44.1387 Q902.751 48.5136 902.751 55.8863 Q902.751 64.6767 896.837 69.2137 Q890.963 73.7508 879.58 73.7508 Q875.286 73.7508 870.425 72.7785 Q865.604 71.8063 860.419 69.9024 L860.419 61.4765 Q865.402 64.2716 870.182 65.6895 Q874.962 67.1073 879.58 67.1073 Q886.588 67.1073 890.396 64.3527 Q894.203 61.598 894.203 56.4939 Q894.203 52.0379 891.449 49.5264 Q888.735 47.0148 882.496 45.759 L877.514 44.7868 Q868.359 42.9639 864.267 39.075 Q860.176 35.1862 860.176 28.2591 Q860.176 20.2383 865.807 15.6203 Q871.478 11.0023 881.403 11.0023 Q885.656 11.0023 890.072 11.7719 Q894.487 12.5416 899.105 14.0809 Z" fill="#000000" fill-rule="nonzero" fill-opacity="1" /><path clip-path="url(#clip650)" d="M915.511 12.096 L923.694 12.096 L923.694 72.576 L915.511 72.576 L915.511 12.096 Z" fill="#000000" fill-rule="nonzero" fill-opacity="1" /><path clip-path="url(#clip650)" d="M968.659 44.2197 Q971.292 45.1109 973.763 48.0275 Q976.275 50.9442 978.786 56.0483 L987.091 72.576 L978.3 72.576 L970.563 57.061 Q967.565 50.9847 964.73 48.9997 Q961.935 47.0148 957.073 47.0148 L948.161 47.0148 L948.161 72.576 L939.979 72.576 L939.979 12.096 L958.451 12.096 Q968.821 12.096 973.925 16.4305 Q979.029 20.7649 979.029 29.5149 Q979.029 35.2267 976.356 38.994 Q973.723 42.7613 968.659 44.2197 M948.161 18.8205 L948.161 40.2903 L958.451 40.2903 Q964.365 40.2903 967.363 37.5762 Q970.401 34.8216 970.401 29.5149 Q970.401 24.2082 967.363 21.5346 Q964.365 18.8205 958.451 18.8205 L948.161 18.8205 Z" fill="#000000" fill-rule="nonzero" fill-opacity="1" /><path clip-path="url(#clip650)" d="M1019.34 27.2059 L1026.79 27.2059 L1036.11 62.6108 L1045.38 27.2059 L1054.17 27.2059 L1063.49 62.6108 L1072.77 27.2059 L1080.22 27.2059 L1068.35 72.576 L1059.56 72.576 L1049.8 35.3887 L1040 72.576 L1031.21 72.576 L1019.34 27.2059 Z" fill="#000000" fill-rule="nonzero" fill-opacity="1" /><path clip-path="url(#clip650)" d="M1091.52 27.2059 L1098.98 27.2059 L1098.98 72.576 L1091.52 72.576 L1091.52 27.2059 M1091.52 9.54393 L1098.98 9.54393 L1098.98 18.9825 L1091.52 18.9825 L1091.52 9.54393 Z" fill="#000000" fill-rule="nonzero" fill-opacity="1" /><path clip-path="url(#clip650)" d="M1121.95 14.324 L1121.95 27.2059 L1137.3 27.2059 L1137.3 32.9987 L1121.95 32.9987 L1121.95 57.6282 Q1121.95 63.1779 1123.44 64.7578 Q1124.98 66.3376 1129.64 66.3376 L1137.3 66.3376 L1137.3 72.576 L1129.64 72.576 Q1121.01 72.576 1117.73 69.3758 Q1114.45 66.1351 1114.45 57.6282 L1114.45 32.9987 L1108.98 32.9987 L1108.98 27.2059 L1114.45 27.2059 L1114.45 14.324 L1121.95 14.324 Z" fill="#000000" fill-rule="nonzero" fill-opacity="1" /><path clip-path="url(#clip650)" d="M1184.82 45.1919 L1184.82 72.576 L1177.36 72.576 L1177.36 45.4349 Q1177.36 38.994 1174.85 35.7938 Q1172.34 32.5936 1167.32 32.5936 Q1161.28 32.5936 1157.8 36.4419 Q1154.31 40.2903 1154.31 46.9338 L1154.31 72.576 L1146.82 72.576 L1146.82 9.54393 L1154.31 9.54393 L1154.31 34.2544 Q1156.99 30.163 1160.59 28.1376 Q1164.24 26.1121 1168.98 26.1121 Q1176.79 26.1121 1180.8 30.9732 Q1184.82 35.7938 1184.82 45.1919 Z" fill="#000000" fill-rule="nonzero" fill-opacity="1" /><path clip-path="url(#clip650)" d="M1217.99 12.096 L1269.16 12.096 L1269.16 18.9825 L1247.69 18.9825 L1247.69 72.576 L1239.46 72.576 L1239.46 18.9825 L1217.99 18.9825 L1217.99 12.096 Z" fill="#000000" fill-rule="nonzero" fill-opacity="1" /><path clip-path="url(#clip650)" d="M1274.18 27.2059 L1281.63 27.2059 L1281.63 72.576 L1274.18 72.576 L1274.18 27.2059 M1274.18 9.54393 L1281.63 9.54393 L1281.63 18.9825 L1274.18 18.9825 L1274.18 9.54393 Z" fill="#000000" fill-rule="nonzero" fill-opacity="1" /><path clip-path="url(#clip650)" d="M1332.55 35.9153 Q1335.35 30.8922 1339.24 28.5022 Q1343.12 26.1121 1348.39 26.1121 Q1355.48 26.1121 1359.33 31.0947 Q1363.18 36.0368 1363.18 45.1919 L1363.18 72.576 L1355.68 72.576 L1355.68 45.4349 Q1355.68 38.913 1353.37 35.7533 Q1351.06 32.5936 1346.32 32.5936 Q1340.53 32.5936 1337.17 36.4419 Q1333.81 40.2903 1333.81 46.9338 L1333.81 72.576 L1326.31 72.576 L1326.31 45.4349 Q1326.31 38.8725 1324 35.7533 Q1321.7 32.5936 1316.87 32.5936 Q1311.16 32.5936 1307.8 36.4824 Q1304.44 40.3308 1304.44 46.9338 L1304.44 72.576 L1296.94 72.576 L1296.94 27.2059 L1304.44 27.2059 L1304.44 34.2544 Q1306.99 30.082 1310.56 28.0971 Q1314.12 26.1121 1319.02 26.1121 Q1323.96 26.1121 1327.41 28.6237 Q1330.89 31.1352 1332.55 35.9153 Z" fill="#000000" fill-rule="nonzero" fill-opacity="1" /><path clip-path="url(#clip650)" d="M1416.85 48.0275 L1416.85 51.6733 L1382.58 51.6733 Q1383.07 59.3701 1387.2 63.421 Q1391.37 67.4314 1398.78 67.4314 Q1403.08 67.4314 1407.09 66.3781 Q1411.14 65.3249 1415.11 63.2184 L1415.11 70.267 Q1411.1 71.9684 1406.89 72.8596 Q1402.67 73.7508 1398.34 73.7508 Q1387.48 73.7508 1381.12 67.4314 Q1374.8 61.1119 1374.8 50.3365 Q1374.8 39.1965 1380.8 32.6746 Q1386.83 26.1121 1397.04 26.1121 Q1406.2 26.1121 1411.5 32.0264 Q1416.85 37.9003 1416.85 48.0275 M1409.4 45.84 Q1409.32 39.7232 1405.95 36.0774 Q1402.63 32.4315 1397.12 32.4315 Q1390.88 32.4315 1387.12 35.9558 Q1383.39 39.4801 1382.82 45.8805 L1409.4 45.84 Z" fill="#000000" fill-rule="nonzero" fill-opacity="1" /><path clip-path="url(#clip650)" d="M1425.32 46.5287 L1447.15 46.5287 L1447.15 53.1722 L1425.32 53.1722 L1425.32 46.5287 Z" fill="#000000" fill-rule="nonzero" fill-opacity="1" /><path clip-path="url(#clip650)" d="M1470.08 72.576 L1446.99 12.096 L1455.54 12.096 L1474.7 63.0159 L1493.9 12.096 L1502.41 12.096 L1479.36 72.576 L1470.08 72.576 Z" fill="#000000" fill-rule="nonzero" fill-opacity="1" /><path clip-path="url(#clip650)" d="M1525.09 49.7694 Q1516.06 49.7694 1512.57 51.8354 Q1509.09 53.9013 1509.09 58.8839 Q1509.09 62.8538 1511.68 65.2034 Q1514.32 67.5124 1518.81 67.5124 Q1525.01 67.5124 1528.74 63.1374 Q1532.5 58.7219 1532.5 51.4303 L1532.5 49.7694 L1525.09 49.7694 M1539.96 46.6907 L1539.96 72.576 L1532.5 72.576 L1532.5 65.6895 Q1529.95 69.8214 1526.14 71.8063 Q1522.34 73.7508 1516.83 73.7508 Q1509.86 73.7508 1505.73 69.8619 Q1501.64 65.9325 1501.64 59.3701 Q1501.64 51.7138 1506.74 47.825 Q1511.89 43.9361 1522.05 43.9361 L1532.5 43.9361 L1532.5 43.2069 Q1532.5 38.0623 1529.1 35.2672 Q1525.74 32.4315 1519.62 32.4315 Q1515.73 32.4315 1512.05 33.3632 Q1508.36 34.295 1504.96 36.1584 L1504.96 29.2718 Q1509.05 27.692 1512.9 26.9223 Q1516.75 26.1121 1520.39 26.1121 Q1530.24 26.1121 1535.1 31.2163 Q1539.96 36.3204 1539.96 46.6907 Z" fill="#000000" fill-rule="nonzero" fill-opacity="1" /><path clip-path="url(#clip650)" d="M1581.6 34.1734 Q1580.35 33.4443 1578.85 33.1202 Q1577.39 32.7556 1575.61 32.7556 Q1569.29 32.7556 1565.88 36.8875 Q1562.52 40.9789 1562.52 48.6757 L1562.52 72.576 L1555.03 72.576 L1555.03 27.2059 L1562.52 27.2059 L1562.52 34.2544 Q1564.87 30.1225 1568.64 28.1376 Q1572.41 26.1121 1577.79 26.1121 Q1578.56 26.1121 1579.49 26.2337 Q1580.43 26.3147 1581.56 26.5172 L1581.6 34.1734 Z" fill="#000000" fill-rule="nonzero" fill-opacity="1" /><path clip-path="url(#clip650)" d="M1608.3 76.7889 Q1605.14 84.8907 1602.14 87.3618 Q1599.14 89.8329 1594.12 89.8329 L1588.16 89.8329 L1588.16 83.5945 L1592.54 83.5945 Q1595.62 83.5945 1597.32 82.1361 Q1599.02 80.6778 1601.09 75.2496 L1602.42 71.8468 L1584.07 27.2059 L1591.97 27.2059 L1606.15 62.6918 L1620.33 27.2059 L1628.23 27.2059 L1608.3 76.7889 Z" fill="#000000" fill-rule="nonzero" fill-opacity="1" /><path clip-path="url(#clip650)" d="M1638.52 27.2059 L1645.97 27.2059 L1645.97 72.576 L1638.52 72.576 L1638.52 27.2059 M1638.52 9.54393 L1645.97 9.54393 L1645.97 18.9825 L1638.52 18.9825 L1638.52 9.54393 Z" fill="#000000" fill-rule="nonzero" fill-opacity="1" /><path clip-path="url(#clip650)" d="M1699.28 45.1919 L1699.28 72.576 L1691.83 72.576 L1691.83 45.4349 Q1691.83 38.994 1689.31 35.7938 Q1686.8 32.5936 1681.78 32.5936 Q1675.74 32.5936 1672.26 36.4419 Q1668.78 40.2903 1668.78 46.9338 L1668.78 72.576 L1661.28 72.576 L1661.28 27.2059 L1668.78 27.2059 L1668.78 34.2544 Q1671.45 30.163 1675.06 28.1376 Q1678.7 26.1121 1683.44 26.1121 Q1691.26 26.1121 1695.27 30.9732 Q1699.28 35.7938 1699.28 45.1919 Z" fill="#000000" fill-rule="nonzero" fill-opacity="1" /><path clip-path="url(#clip650)" d="M1744 49.3643 Q1744 41.2625 1740.64 36.8065 Q1737.32 32.3505 1731.28 32.3505 Q1725.29 32.3505 1721.92 36.8065 Q1718.6 41.2625 1718.6 49.3643 Q1718.6 57.4256 1721.92 61.8816 Q1725.29 66.3376 1731.28 66.3376 Q1737.32 66.3376 1740.64 61.8816 Q1744 57.4256 1744 49.3643 M1751.46 66.9452 Q1751.46 78.5308 1746.31 84.1616 Q1741.17 89.8329 1730.55 89.8329 Q1726.62 89.8329 1723.14 89.2252 Q1719.66 88.6581 1716.37 87.4428 L1716.37 80.1917 Q1719.66 81.9741 1722.86 82.8248 Q1726.06 83.6755 1729.38 83.6755 Q1736.71 83.6755 1740.36 79.8271 Q1744 76.0193 1744 68.282 L1744 64.5957 Q1741.69 68.6061 1738.09 70.5911 Q1734.48 72.576 1729.46 72.576 Q1721.11 72.576 1716.01 66.2161 Q1710.91 59.8562 1710.91 49.3643 Q1710.91 38.832 1716.01 32.472 Q1721.11 26.1121 1729.46 26.1121 Q1734.48 26.1121 1738.09 28.0971 Q1741.69 30.082 1744 34.0924 L1744 27.2059 L1751.46 27.2059 L1751.46 66.9452 Z" fill="#000000" fill-rule="nonzero" fill-opacity="1" /><path clip-path="url(#clip650)" d="M1800.63 69.7809 L1800.63 89.8329 L1793.14 89.8329 L1793.14 27.4894 Q1793.14 9.01731 1810.4 9.01731 Q1827.98 9.01731 1827.98 24.6133 Q1827.98 35.7128 1821.01 39.7637 Q1832.35 43.4095 1832.35 54.2254 Q1832.35 73.4267 1812.83 73.4267 Q1804.24 73.4267 1800.63 69.7809 M1800.63 60.0587 Q1805.13 67.0668 1813.11 67.0668 Q1824.78 67.0668 1824.78 54.3469 Q1824.78 42.9234 1805.98 43.8146 L1805.98 36.928 Q1820.69 36.928 1820.69 23.9651 Q1820.69 15.0937 1811.21 15.0937 Q1800.63 15.0937 1800.63 27.7325 L1800.63 60.0587 Z" fill="#000000" fill-rule="nonzero" fill-opacity="1" /><path clip-path="url(#clip650)" d="M1890.4 9.62495 Q1884.97 18.942 1882.34 28.0566 Q1879.71 37.1711 1879.71 46.5287 Q1879.71 55.8863 1882.34 65.0818 Q1885.01 74.2369 1890.4 83.5134 L1883.92 83.5134 Q1877.84 73.9938 1874.81 64.7983 Q1871.81 55.6027 1871.81 46.5287 Q1871.81 37.4952 1874.81 28.3401 Q1877.8 19.1851 1883.92 9.62495 L1890.4 9.62495 Z" fill="#000000" fill-rule="nonzero" fill-opacity="1" /><path clip-path="url(#clip650)" d="M1906 12.096 L1938.12 12.096 L1938.12 18.9825 L1913.49 18.9825 L1913.49 33.8088 Q1915.27 33.2012 1917.06 32.9176 Q1918.84 32.5936 1920.62 32.5936 Q1930.75 32.5936 1936.66 38.1433 Q1942.58 43.6931 1942.58 53.1722 Q1942.58 62.9348 1936.5 68.3631 Q1930.42 73.7508 1919.37 73.7508 Q1915.56 73.7508 1911.59 73.1026 Q1907.66 72.4545 1903.45 71.1582 L1903.45 62.9348 Q1907.09 64.9198 1910.98 65.892 Q1914.87 66.8642 1919.2 66.8642 Q1926.21 66.8642 1930.3 63.1779 Q1934.39 59.4916 1934.39 53.1722 Q1934.39 46.8528 1930.3 43.1664 Q1926.21 39.4801 1919.2 39.4801 Q1915.92 39.4801 1912.64 40.2093 Q1909.4 40.9384 1906 42.4778 L1906 12.096 Z" fill="#000000" fill-rule="nonzero" fill-opacity="1" /><path clip-path="url(#clip650)" d="M2010.31 34.1734 Q2009.05 33.4443 2007.55 33.1202 Q2006.1 32.7556 2004.31 32.7556 Q1997.99 32.7556 1994.59 36.8875 Q1991.23 40.9789 1991.23 48.6757 L1991.23 72.576 L1983.73 72.576 L1983.73 27.2059 L1991.23 27.2059 L1991.23 34.2544 Q1993.58 30.1225 1997.35 28.1376 Q2001.11 26.1121 2006.5 26.1121 Q2007.27 26.1121 2008.2 26.2337 Q2009.13 26.3147 2010.27 26.5172 L2010.31 34.1734 Z" fill="#000000" fill-rule="nonzero" fill-opacity="1" /><path clip-path="url(#clip650)" d="M2055.11 48.0275 L2055.11 51.6733 L2020.84 51.6733 Q2021.33 59.3701 2025.46 63.421 Q2029.63 67.4314 2037.04 67.4314 Q2041.34 67.4314 2045.35 66.3781 Q2049.4 65.3249 2053.37 63.2184 L2053.37 70.267 Q2049.36 71.9684 2045.15 72.8596 Q2040.93 73.7508 2036.6 73.7508 Q2025.74 73.7508 2019.38 67.4314 Q2013.06 61.1119 2013.06 50.3365 Q2013.06 39.1965 2019.06 32.6746 Q2025.09 26.1121 2035.3 26.1121 Q2044.46 26.1121 2049.76 32.0264 Q2055.11 37.9003 2055.11 48.0275 M2047.66 45.84 Q2047.58 39.7232 2044.21 36.0774 Q2040.89 32.4315 2035.38 32.4315 Q2029.15 32.4315 2025.38 35.9558 Q2021.65 39.4801 2021.08 45.8805 L2047.66 45.84 Z" fill="#000000" fill-rule="nonzero" fill-opacity="1" /><path clip-path="url(#clip650)" d="M2087.96 49.7694 Q2078.93 49.7694 2075.45 51.8354 Q2071.96 53.9013 2071.96 58.8839 Q2071.96 62.8538 2074.56 65.2034 Q2077.19 67.5124 2081.69 67.5124 Q2087.88 67.5124 2091.61 63.1374 Q2095.38 58.7219 2095.38 51.4303 L2095.38 49.7694 L2087.96 49.7694 M2102.83 46.6907 L2102.83 72.576 L2095.38 72.576 L2095.38 65.6895 Q2092.83 69.8214 2089.02 71.8063 Q2085.21 73.7508 2079.7 73.7508 Q2072.73 73.7508 2068.6 69.8619 Q2064.51 65.9325 2064.51 59.3701 Q2064.51 51.7138 2069.61 47.825 Q2074.76 43.9361 2084.93 43.9361 L2095.38 43.9361 L2095.38 43.2069 Q2095.38 38.0623 2091.97 35.2672 Q2088.61 32.4315 2082.5 32.4315 Q2078.61 32.4315 2074.92 33.3632 Q2071.23 34.295 2067.83 36.1584 L2067.83 29.2718 Q2071.92 27.692 2075.77 26.9223 Q2079.62 26.1121 2083.27 26.1121 Q2093.11 26.1121 2097.97 31.2163 Q2102.83 36.3204 2102.83 46.6907 Z" fill="#000000" fill-rule="nonzero" fill-opacity="1" /><path clip-path="url(#clip650)" d="M2118.18 9.54393 L2125.64 9.54393 L2125.64 72.576 L2118.18 72.576 L2118.18 9.54393 Z" fill="#000000" fill-rule="nonzero" fill-opacity="1" /><path clip-path="url(#clip650)" d="M2141.23 27.2059 L2148.69 27.2059 L2148.69 72.576 L2141.23 72.576 L2141.23 27.2059 M2141.23 9.54393 L2148.69 9.54393 L2148.69 18.9825 L2141.23 18.9825 L2141.23 9.54393 Z" fill="#000000" fill-rule="nonzero" fill-opacity="1" /><path clip-path="url(#clip650)" d="M2193.21 28.5427 L2193.21 35.5912 Q2190.05 33.9709 2186.64 33.1607 Q2183.24 32.3505 2179.6 32.3505 Q2174.05 32.3505 2171.25 34.0519 Q2168.5 35.7533 2168.5 39.156 Q2168.5 41.7486 2170.48 43.2475 Q2172.47 44.7058 2178.46 46.0426 L2181.01 46.6097 Q2188.95 48.3111 2192.28 51.4303 Q2195.64 54.509 2195.64 60.0587 Q2195.64 66.3781 2190.61 70.0644 Q2185.63 73.7508 2176.88 73.7508 Q2173.24 73.7508 2169.27 73.0216 Q2165.34 72.3329 2160.96 70.9151 L2160.96 63.2184 Q2165.09 65.3654 2169.1 66.4591 Q2173.11 67.5124 2177.04 67.5124 Q2182.31 67.5124 2185.15 65.73 Q2187.98 63.9071 2187.98 60.6258 Q2187.98 57.5877 2185.92 55.9673 Q2183.89 54.3469 2176.96 52.8481 L2174.37 52.2405 Q2167.44 50.7821 2164.36 47.7845 Q2161.29 44.7463 2161.29 39.4801 Q2161.29 33.0797 2165.82 29.5959 Q2170.36 26.1121 2178.7 26.1121 Q2182.84 26.1121 2186.48 26.7198 Q2190.13 27.3274 2193.21 28.5427 Z" fill="#000000" fill-rule="nonzero" fill-opacity="1" /><path clip-path="url(#clip650)" d="M2228.13 49.7694 Q2219.09 49.7694 2215.61 51.8354 Q2212.12 53.9013 2212.12 58.8839 Q2212.12 62.8538 2214.72 65.2034 Q2217.35 67.5124 2221.85 67.5124 Q2228.04 67.5124 2231.77 63.1374 Q2235.54 58.7219 2235.54 51.4303 L2235.54 49.7694 L2228.13 49.7694 M2242.99 46.6907 L2242.99 72.576 L2235.54 72.576 L2235.54 65.6895 Q2232.99 69.8214 2229.18 71.8063 Q2225.37 73.7508 2219.86 73.7508 Q2212.89 73.7508 2208.76 69.8619 Q2204.67 65.9325 2204.67 59.3701 Q2204.67 51.7138 2209.78 47.825 Q2214.92 43.9361 2225.09 43.9361 L2235.54 43.9361 L2235.54 43.2069 Q2235.54 38.0623 2232.14 35.2672 Q2228.77 32.4315 2222.66 32.4315 Q2218.77 32.4315 2215.08 33.3632 Q2211.4 34.295 2207.99 36.1584 L2207.99 29.2718 Q2212.08 27.692 2215.93 26.9223 Q2219.78 26.1121 2223.43 26.1121 Q2233.27 26.1121 2238.13 31.2163 Q2242.99 36.3204 2242.99 46.6907 Z" fill="#000000" fill-rule="nonzero" fill-opacity="1" /><path clip-path="url(#clip650)" d="M2265.72 14.324 L2265.72 27.2059 L2281.07 27.2059 L2281.07 32.9987 L2265.72 32.9987 L2265.72 57.6282 Q2265.72 63.1779 2267.22 64.7578 Q2268.76 66.3376 2273.41 66.3376 L2281.07 66.3376 L2281.07 72.576 L2273.41 72.576 Q2264.79 72.576 2261.51 69.3758 Q2258.22 66.1351 2258.22 57.6282 L2258.22 32.9987 L2252.76 32.9987 L2252.76 27.2059 L2258.22 27.2059 L2258.22 14.324 L2265.72 14.324 Z" fill="#000000" fill-rule="nonzero" fill-opacity="1" /><path clip-path="url(#clip650)" d="M2290.87 27.2059 L2298.33 27.2059 L2298.33 72.576 L2290.87 72.576 L2290.87 27.2059 M2290.87 9.54393 L2298.33 9.54393 L2298.33 18.9825 L2290.87 18.9825 L2290.87 9.54393 Z" fill="#000000" fill-rule="nonzero" fill-opacity="1" /><path clip-path="url(#clip650)" d="M2331.5 32.4315 Q2325.51 32.4315 2322.03 37.1306 Q2318.54 41.7891 2318.54 49.9314 Q2318.54 58.0738 2321.99 62.7728 Q2325.47 67.4314 2331.5 67.4314 Q2337.46 67.4314 2340.94 62.7323 Q2344.43 58.0333 2344.43 49.9314 Q2344.43 41.8701 2340.94 37.1711 Q2337.46 32.4315 2331.5 32.4315 M2331.5 26.1121 Q2341.23 26.1121 2346.78 32.4315 Q2352.33 38.7509 2352.33 49.9314 Q2352.33 61.0714 2346.78 67.4314 Q2341.23 73.7508 2331.5 73.7508 Q2321.74 73.7508 2316.19 67.4314 Q2310.68 61.0714 2310.68 49.9314 Q2310.68 38.7509 2316.19 32.4315 Q2321.74 26.1121 2331.5 26.1121 Z" fill="#000000" fill-rule="nonzero" fill-opacity="1" /><path clip-path="url(#clip650)" d="M2402.4 45.1919 L2402.4 72.576 L2394.94 72.576 L2394.94 45.4349 Q2394.94 38.994 2392.43 35.7938 Q2389.92 32.5936 2384.9 32.5936 Q2378.86 32.5936 2375.38 36.4419 Q2371.89 40.2903 2371.89 46.9338 L2371.89 72.576 L2364.4 72.576 L2364.4 27.2059 L2371.89 27.2059 L2371.89 34.2544 Q2374.57 30.163 2378.17 28.1376 Q2381.82 26.1121 2386.56 26.1121 Q2394.37 26.1121 2398.39 30.9732 Q2402.4 35.7938 2402.4 45.1919 Z" fill="#000000" fill-rule="nonzero" fill-opacity="1" /><path clip-path="url(#clip650)" d="M2446.19 28.5427 L2446.19 35.5912 Q2443.03 33.9709 2439.62 33.1607 Q2436.22 32.3505 2432.57 32.3505 Q2427.03 32.3505 2424.23 34.0519 Q2421.48 35.7533 2421.48 39.156 Q2421.48 41.7486 2423.46 43.2475 Q2425.45 44.7058 2431.44 46.0426 L2433.99 46.6097 Q2441.93 48.3111 2445.25 51.4303 Q2448.62 54.509 2448.62 60.0587 Q2448.62 66.3781 2443.59 70.0644 Q2438.61 73.7508 2429.86 73.7508 Q2426.21 73.7508 2422.25 73.0216 Q2418.32 72.3329 2413.94 70.9151 L2413.94 63.2184 Q2418.07 65.3654 2422.08 66.4591 Q2426.09 67.5124 2430.02 67.5124 Q2435.29 67.5124 2438.12 65.73 Q2440.96 63.9071 2440.96 60.6258 Q2440.96 57.5877 2438.89 55.9673 Q2436.87 54.3469 2429.94 52.8481 L2427.35 52.2405 Q2420.42 50.7821 2417.34 47.7845 Q2414.26 44.7463 2414.26 39.4801 Q2414.26 33.0797 2418.8 29.5959 Q2423.34 26.1121 2431.68 26.1121 Q2435.82 26.1121 2439.46 26.7198 Q2443.11 27.3274 2446.19 28.5427 Z" fill="#000000" fill-rule="nonzero" fill-opacity="1" /><path clip-path="url(#clip650)" d="M2459.31 9.62495 L2465.79 9.62495 Q2471.87 19.1851 2474.87 28.3401 Q2477.9 37.4952 2477.9 46.5287 Q2477.9 55.6027 2474.87 64.7983 Q2471.87 73.9938 2465.79 83.5134 L2459.31 83.5134 Q2464.7 74.2369 2467.33 65.0818 Q2470.01 55.8863 2470.01 46.5287 Q2470.01 37.1711 2467.33 28.0566 Q2464.7 18.942 2459.31 9.62495 Z" fill="#000000" fill-rule="nonzero" fill-opacity="1" /><polyline clip-path="url(#clip651)" style="stroke:#009af9; stroke-linecap:round; stroke-linejoin:round; stroke-width:6; stroke-opacity:0.6; fill:none" points="309.459,1659.95 332.093,1642.73 354.727,1625.51 377.361,1616.9 399.995,1591.07 422.629,1542.28 445.263,1464.79 467.897,1378.69 490.531,1261.01 513.165,1123.25 535.798,936.695 558.432,761.62 581.066,603.766 603.7,451.652 626.334,319.628 648.968,239.266 671.602,176.124 694.236,173.254 716.87,216.305 739.504,256.486 762.138,331.108 784.772,411.471 807.406,494.703 830.04,569.325 852.674,646.817 875.308,764.49 897.942,827.632 920.576,893.644 943.21,956.785 965.844,1022.8 988.478,1091.68 1011.11,1154.82 1033.75,1197.87 1056.38,1255.27 1079.01,1295.45 1101.65,1329.9 1124.28,1361.47 1146.92,1384.43 1169.55,1418.87 1192.18,1438.96 1214.82,1479.14 1237.45,1496.36 1260.08,1502.1 1282.72,1525.06 1305.35,1530.8 1327.99,1545.15 1350.62,1562.37 1373.25,1576.72 1395.89,1593.94 1418.52,1599.68 1441.16,1605.42 1463.79,1611.16 1486.42,1622.64 1509.06,1628.38 1531.69,1636.99 1554.33,1639.86 1576.96,1639.86 1599.59,1642.73 1622.23,1651.34 1644.86,1651.34 1667.5,1654.21 1690.13,1657.08 1712.76,1657.08 1735.4,1659.95 1758.03,1662.82 1780.67,1665.69 1803.3,1668.56 1825.93,1668.56 1848.57,1668.56 1871.2,1668.56 1893.84,1668.56 1916.47,1668.56 1939.1,1665.69 1961.74,1665.69 1984.37,1668.56 2007.01,1674.3 2029.64,1677.17 2052.27,1677.17 2074.91,1677.17 2097.54,1677.17 2120.18,1677.17 2142.81,1680.04 2165.44,1682.91 2188.08,1682.91 2210.71,1682.91 2233.34,1682.91 2255.98,1682.91 2278.61,1685.78 2301.25,1685.78 2323.88,1685.78 2346.51,1685.78 2369.15,1685.78 2391.78,1685.78 2414.42,1685.78 2437.05,1685.78 2459.68,1685.78 2482.32,1685.78 2504.95,1685.78 2527.59,1685.78 2550.22,1685.78 2572.85,1685.78 "/>
<polyline clip-path="url(#clip651)" style="stroke:#e26f46; stroke-linecap:round; stroke-linejoin:round; stroke-width:6; stroke-opacity:0.6; fill:none" points="309.459,1659.95 332.093,1654.21 354.727,1622.64 377.361,1588.2 399.995,1562.37 422.629,1525.06 445.263,1484.88 467.897,1410.26 490.531,1324.16 513.165,1206.48 535.798,1022.8 558.432,844.852 581.066,767.36 603.7,595.156 626.334,471.742 648.968,374.16 671.602,339.719 694.236,305.278 716.87,279.447 739.504,311.018 762.138,365.549 784.772,428.691 807.406,517.663 830.04,583.675 852.674,632.467 875.308,704.218 897.942,807.541 920.576,899.384 943.21,985.486 965.844,1045.76 988.478,1088.81 1011.11,1151.95 1033.75,1209.35 1056.38,1266.75 1079.01,1304.06 1101.65,1341.38 1124.28,1381.56 1146.92,1421.74 1169.55,1453.31 1192.18,1482.01 1214.82,1507.84 1237.45,1519.32 1260.08,1533.67 1282.72,1550.89 1305.35,1565.24 1327.99,1582.46 1350.62,1591.07 1373.25,1596.81 1395.89,1608.29 1418.52,1611.16 1441.16,1619.77 1463.79,1625.51 1486.42,1634.12 1509.06,1634.12 1531.69,1642.73 1554.33,1645.6 1576.96,1651.34 1599.59,1657.08 1622.23,1659.95 1644.86,1662.82 1667.5,1665.69 1690.13,1671.43 1712.76,1671.43 1735.4,1671.43 1758.03,1674.3 1780.67,1674.3 1803.3,1677.17 1825.93,1677.17 1848.57,1677.17 1871.2,1680.04 1893.84,1680.04 1916.47,1680.04 1939.1,1682.91 1961.74,1682.91 1984.37,1682.91 2007.01,1682.91 2029.64,1682.91 2052.27,1685.78 2074.91,1685.78 2097.54,1685.78 2120.18,1685.78 2142.81,1685.78 2165.44,1685.78 2188.08,1688.65 2210.71,1688.65 2233.34,1688.65 2255.98,1688.65 2278.61,1688.65 2301.25,1688.65 2323.88,1688.65 2346.51,1688.65 2369.15,1688.65 2391.78,1688.65 2414.42,1688.65 2437.05,1688.65 2459.68,1688.65 2482.32,1688.65 2504.95,1688.65 2527.59,1688.65 2550.22,1688.65 2572.85,1688.65 "/>
<polyline clip-path="url(#clip651)" style="stroke:#3da44d; stroke-linecap:round; stroke-linejoin:round; stroke-width:6; stroke-opacity:0.6; fill:none" points="309.459,1659.95 332.093,1631.25 354.727,1616.9 377.361,1608.29 399.995,1570.98 422.629,1539.41 445.263,1482.01 467.897,1375.82 490.531,1304.06 513.165,1200.74 535.798,1083.07 558.432,930.955 581.066,793.191 603.7,675.518 626.334,514.793 648.968,422.951 671.602,316.758 694.236,256.486 716.87,290.927 739.504,285.187 762.138,316.758 784.772,365.549 807.406,454.522 830.04,540.624 852.674,603.766 875.308,709.959 897.942,790.321 920.576,850.592 943.21,910.864 965.844,962.525 988.478,1037.15 1011.11,1094.55 1033.75,1140.47 1056.38,1200.74 1079.01,1246.66 1101.65,1309.8 1124.28,1347.12 1146.92,1387.3 1169.55,1416 1192.18,1436.09 1214.82,1447.57 1237.45,1473.4 1260.08,1496.36 1282.72,1513.58 1305.35,1527.93 1327.99,1542.28 1350.62,1556.63 1373.25,1570.98 1395.89,1579.59 1418.52,1582.46 1441.16,1582.46 1463.79,1585.33 1486.42,1602.55 1509.06,1622.64 1531.69,1628.38 1554.33,1639.86 1576.96,1648.47 1599.59,1657.08 1622.23,1662.82 1644.86,1662.82 1667.5,1668.56 1690.13,1671.43 1712.76,1677.17 1735.4,1680.04 1758.03,1680.04 1780.67,1680.04 1803.3,1680.04 1825.93,1680.04 1848.57,1680.04 1871.2,1680.04 1893.84,1680.04 1916.47,1682.91 1939.1,1682.91 1961.74,1685.78 1984.37,1685.78 2007.01,1688.65 2029.64,1688.65 2052.27,1688.65 2074.91,1688.65 2097.54,1688.65 2120.18,1688.65 2142.81,1688.65 2165.44,1688.65 2188.08,1688.65 2210.71,1688.65 2233.34,1688.65 2255.98,1688.65 2278.61,1688.65 2301.25,1688.65 2323.88,1688.65 2346.51,1688.65 2369.15,1688.65 2391.78,1688.65 2414.42,1688.65 2437.05,1688.65 2459.68,1688.65 2482.32,1688.65 2504.95,1688.65 2527.59,1688.65 2550.22,1688.65 2572.85,1688.65 "/>
<polyline clip-path="url(#clip651)" style="stroke:#c271d2; stroke-linecap:round; stroke-linejoin:round; stroke-width:6; stroke-opacity:0.6; fill:none" points="309.459,1659.95 332.093,1651.34 354.727,1631.25 377.361,1585.33 399.995,1565.24 422.629,1553.76 445.263,1496.36 467.897,1427.48 490.531,1349.99 513.165,1275.36 535.798,1169.17 558.432,988.356 581.066,885.033 603.7,732.919 626.334,609.506 648.968,514.793 671.602,399.99 694.236,374.16 716.87,359.809 739.504,368.419 762.138,408.6 784.772,417.211 807.406,474.612 830.04,580.805 852.674,669.778 875.308,718.569 897.942,793.191 920.576,885.033 943.21,939.565 965.844,979.746 988.478,999.836 1011.11,1040.02 1033.75,1088.81 1056.38,1154.82 1079.01,1209.35 1101.65,1252.4 1124.28,1283.97 1146.92,1312.67 1169.55,1344.25 1192.18,1370.08 1214.82,1387.3 1237.45,1416 1260.08,1438.96 1282.72,1461.92 1305.35,1484.88 1327.99,1507.84 1350.62,1527.93 1373.25,1553.76 1395.89,1568.11 1418.52,1576.72 1441.16,1576.72 1463.79,1593.94 1486.42,1593.94 1509.06,1605.42 1531.69,1616.9 1554.33,1628.38 1576.96,1631.25 1599.59,1636.99 1622.23,1648.47 1644.86,1651.34 1667.5,1662.82 1690.13,1668.56 1712.76,1668.56 1735.4,1668.56 1758.03,1668.56 1780.67,1668.56 1803.3,1671.43 1825.93,1671.43 1848.57,1680.04 1871.2,1680.04 1893.84,1677.17 1916.47,1680.04 1939.1,1682.91 1961.74,1685.78 1984.37,1685.78 2007.01,1685.78 2029.64,1685.78 2052.27,1685.78 2074.91,1685.78 2097.54,1685.78 2120.18,1682.91 2142.81,1682.91 2165.44,1685.78 2188.08,1685.78 2210.71,1685.78 2233.34,1685.78 2255.98,1685.78 2278.61,1685.78 2301.25,1685.78 2323.88,1685.78 2346.51,1685.78 2369.15,1685.78 2391.78,1685.78 2414.42,1685.78 2437.05,1685.78 2459.68,1688.65 2482.32,1688.65 2504.95,1688.65 2527.59,1688.65 2550.22,1688.65 2572.85,1688.65 "/>
<polyline clip-path="url(#clip651)" style="stroke:#ac8d18; stroke-linecap:round; stroke-linejoin:round; stroke-width:6; stroke-opacity:0.6; fill:none" points="309.459,1659.95 332.093,1654.21 354.727,1636.99 377.361,1616.9 399.995,1579.59 422.629,1536.54 445.263,1479.14 467.897,1421.74 490.531,1321.29 513.165,1183.52 535.798,1034.28 558.432,893.644 581.066,712.829 603.7,549.234 626.334,428.691 648.968,348.329 671.602,290.927 694.236,348.329 716.87,342.589 739.504,374.16 762.138,431.561 784.772,483.222 807.406,572.195 830.04,638.207 852.674,704.218 875.308,767.36 897.942,816.151 920.576,879.293 943.21,933.825 965.844,999.836 988.478,1068.72 1011.11,1114.64 1033.75,1177.78 1056.38,1203.61 1079.01,1252.4 1101.65,1286.84 1124.28,1335.64 1146.92,1387.3 1169.55,1401.65 1192.18,1441.83 1214.82,1461.92 1237.45,1484.88 1260.08,1507.84 1282.72,1527.93 1305.35,1542.28 1327.99,1550.89 1350.62,1568.11 1373.25,1573.85 1395.89,1588.2 1418.52,1596.81 1441.16,1608.29 1463.79,1616.9 1486.42,1622.64 1509.06,1622.64 1531.69,1625.51 1554.33,1631.25 1576.96,1631.25 1599.59,1636.99 1622.23,1639.86 1644.86,1648.47 1667.5,1651.34 1690.13,1654.21 1712.76,1651.34 1735.4,1654.21 1758.03,1654.21 1780.67,1659.95 1803.3,1662.82 1825.93,1665.69 1848.57,1668.56 1871.2,1668.56 1893.84,1668.56 1916.47,1671.43 1939.1,1674.3 1961.74,1677.17 1984.37,1677.17 2007.01,1677.17 2029.64,1677.17 2052.27,1680.04 2074.91,1680.04 2097.54,1680.04 2120.18,1680.04 2142.81,1680.04 2165.44,1680.04 2188.08,1680.04 2210.71,1682.91 2233.34,1682.91 2255.98,1682.91 2278.61,1682.91 2301.25,1682.91 2323.88,1685.78 2346.51,1685.78 2369.15,1685.78 2391.78,1685.78 2414.42,1685.78 2437.05,1685.78 2459.68,1685.78 2482.32,1685.78 2504.95,1685.78 2527.59,1688.65 2550.22,1688.65 2572.85,1688.65 "/>
<polyline clip-path="url(#clip651)" style="stroke:#808080; stroke-linecap:round; stroke-linejoin:round; stroke-width:4; stroke-opacity:1; fill:none" stroke-dasharray="16, 10" points="988.478,3340.44 988.478,-1478.53 "/>
<polyline clip-path="url(#clip651)" style="stroke:#808080; stroke-linecap:round; stroke-linejoin:round; stroke-width:4; stroke-opacity:1; fill:none" stroke-dasharray="16, 10" points="1667.5,3340.44 1667.5,-1478.53 "/>
<path clip-path="url(#clip650)" d="M2083.13 285.016 L2560.78 285.016 L2560.78 181.336 L2083.13 181.336  Z" fill="#ffffff" fill-rule="evenodd" fill-opacity="1"/>
<polyline clip-path="url(#clip650)" style="stroke:#000000; stroke-linecap:round; stroke-linejoin:round; stroke-width:4; stroke-opacity:1; fill:none" points="2083.13,285.016 2560.78,285.016 2560.78,181.336 2083.13,181.336 2083.13,285.016 "/>
<polyline clip-path="url(#clip650)" style="stroke:#808080; stroke-linecap:round; stroke-linejoin:round; stroke-width:4; stroke-opacity:1; fill:none" stroke-dasharray="16, 10" points="2109.79,233.176 2269.74,233.176 "/>
<path clip-path="url(#clip650)" d="M2300.68 248.859 L2300.68 260.317 L2296.39 260.317 L2296.39 224.693 Q2296.39 214.137 2306.26 214.137 Q2316.3 214.137 2316.3 223.049 Q2316.3 229.392 2312.32 231.706 Q2318.8 233.79 2318.8 239.97 Q2318.8 250.942 2307.64 250.942 Q2302.74 250.942 2300.68 248.859 M2300.68 243.304 Q2303.25 247.308 2307.81 247.308 Q2314.47 247.308 2314.47 240.04 Q2314.47 233.512 2303.73 234.021 L2303.73 230.086 Q2312.14 230.086 2312.14 222.679 Q2312.14 217.609 2306.72 217.609 Q2300.68 217.609 2300.68 224.831 L2300.68 243.304 Z" fill="#000000" fill-rule="nonzero" fill-opacity="1" /><path clip-path="url(#clip650)" d="M2360.4 225.526 L2360.4 229.507 Q2358.59 228.512 2356.76 228.026 Q2354.96 227.517 2353.11 227.517 Q2348.96 227.517 2346.67 230.155 Q2344.38 232.771 2344.38 237.517 Q2344.38 242.262 2346.67 244.901 Q2348.96 247.516 2353.11 247.516 Q2354.96 247.516 2356.76 247.03 Q2358.59 246.521 2360.4 245.526 L2360.4 249.461 Q2358.62 250.294 2356.7 250.711 Q2354.8 251.128 2352.64 251.128 Q2346.79 251.128 2343.34 247.447 Q2339.89 243.767 2339.89 237.517 Q2339.89 231.174 2343.36 227.54 Q2346.86 223.906 2352.92 223.906 Q2354.89 223.906 2356.76 224.322 Q2358.64 224.716 2360.4 225.526 Z" fill="#000000" fill-rule="nonzero" fill-opacity="1" /><path clip-path="url(#clip650)" d="M2389.36 234.808 L2389.36 250.456 L2385.1 250.456 L2385.1 234.947 Q2385.1 231.267 2383.66 229.438 Q2382.23 227.609 2379.36 227.609 Q2375.91 227.609 2373.92 229.808 Q2371.93 232.007 2371.93 235.804 L2371.93 250.456 L2367.64 250.456 L2367.64 214.438 L2371.93 214.438 L2371.93 228.558 Q2373.45 226.22 2375.51 225.063 Q2377.6 223.906 2380.31 223.906 Q2384.77 223.906 2387.07 226.683 Q2389.36 229.438 2389.36 234.808 Z" fill="#000000" fill-rule="nonzero" fill-opacity="1" /><path clip-path="url(#clip650)" d="M2409.63 237.424 Q2404.47 237.424 2402.48 238.604 Q2400.49 239.785 2400.49 242.632 Q2400.49 244.901 2401.97 246.243 Q2403.48 247.563 2406.05 247.563 Q2409.59 247.563 2411.72 245.063 Q2413.87 242.54 2413.87 238.373 L2413.87 237.424 L2409.63 237.424 M2418.13 235.665 L2418.13 250.456 L2413.87 250.456 L2413.87 246.521 Q2412.41 248.882 2410.24 250.016 Q2408.06 251.128 2404.91 251.128 Q2400.93 251.128 2398.57 248.905 Q2396.23 246.66 2396.23 242.91 Q2396.23 238.535 2399.15 236.313 Q2402.09 234.091 2407.9 234.091 L2413.87 234.091 L2413.87 233.674 Q2413.87 230.734 2411.93 229.137 Q2410.01 227.517 2406.51 227.517 Q2404.29 227.517 2402.18 228.049 Q2400.07 228.581 2398.13 229.646 L2398.13 225.711 Q2400.47 224.808 2402.67 224.368 Q2404.87 223.906 2406.95 223.906 Q2412.57 223.906 2415.35 226.822 Q2418.13 229.739 2418.13 235.665 Z" fill="#000000" fill-rule="nonzero" fill-opacity="1" /><path clip-path="url(#clip650)" d="M2448.45 234.808 L2448.45 250.456 L2444.19 250.456 L2444.19 234.947 Q2444.19 231.267 2442.76 229.438 Q2441.32 227.609 2438.45 227.609 Q2435.01 227.609 2433.01 229.808 Q2431.02 232.007 2431.02 235.804 L2431.02 250.456 L2426.74 250.456 L2426.74 224.531 L2431.02 224.531 L2431.02 228.558 Q2432.55 226.22 2434.61 225.063 Q2436.69 223.906 2439.4 223.906 Q2443.87 223.906 2446.16 226.683 Q2448.45 229.438 2448.45 234.808 Z" fill="#000000" fill-rule="nonzero" fill-opacity="1" /><path clip-path="url(#clip650)" d="M2474.01 237.192 Q2474.01 232.563 2472.09 230.017 Q2470.19 227.47 2466.74 227.47 Q2463.32 227.47 2461.39 230.017 Q2459.5 232.563 2459.5 237.192 Q2459.5 241.799 2461.39 244.345 Q2463.32 246.891 2466.74 246.891 Q2470.19 246.891 2472.09 244.345 Q2474.01 241.799 2474.01 237.192 M2478.27 247.239 Q2478.27 253.859 2475.33 257.077 Q2472.39 260.317 2466.32 260.317 Q2464.08 260.317 2462.09 259.97 Q2460.1 259.646 2458.22 258.952 L2458.22 254.808 Q2460.1 255.827 2461.93 256.313 Q2463.75 256.799 2465.65 256.799 Q2469.84 256.799 2471.93 254.6 Q2474.01 252.424 2474.01 248.003 L2474.01 245.896 Q2472.69 248.188 2470.63 249.322 Q2468.57 250.456 2465.7 250.456 Q2460.93 250.456 2458.01 246.822 Q2455.1 243.188 2455.1 237.192 Q2455.1 231.174 2458.01 227.54 Q2460.93 223.906 2465.7 223.906 Q2468.57 223.906 2470.63 225.04 Q2472.69 226.174 2474.01 228.466 L2474.01 224.531 L2478.27 224.531 L2478.27 247.239 Z" fill="#000000" fill-rule="nonzero" fill-opacity="1" /><path clip-path="url(#clip650)" d="M2509.22 236.429 L2509.22 238.512 L2489.63 238.512 Q2489.91 242.91 2492.27 245.225 Q2494.66 247.516 2498.89 247.516 Q2501.35 247.516 2503.64 246.915 Q2505.95 246.313 2508.22 245.109 L2508.22 249.137 Q2505.93 250.109 2503.52 250.618 Q2501.12 251.128 2498.64 251.128 Q2492.44 251.128 2488.8 247.516 Q2485.19 243.905 2485.19 237.748 Q2485.19 231.382 2488.62 227.655 Q2492.06 223.906 2497.9 223.906 Q2503.13 223.906 2506.16 227.285 Q2509.22 230.642 2509.22 236.429 M2504.96 235.179 Q2504.91 231.683 2502.99 229.6 Q2501.09 227.517 2497.94 227.517 Q2494.38 227.517 2492.23 229.53 Q2490.1 231.544 2489.77 235.202 L2504.96 235.179 Z" fill="#000000" fill-rule="nonzero" fill-opacity="1" /><path clip-path="url(#clip650)" d="M2532.74 225.294 L2532.74 229.322 Q2530.93 228.396 2528.99 227.933 Q2527.04 227.47 2524.96 227.47 Q2521.79 227.47 2520.19 228.443 Q2518.62 229.415 2518.62 231.359 Q2518.62 232.841 2519.75 233.697 Q2520.88 234.53 2524.31 235.294 L2525.77 235.618 Q2530.31 236.591 2532.2 238.373 Q2534.12 240.132 2534.12 243.304 Q2534.12 246.915 2531.25 249.021 Q2528.41 251.128 2523.41 251.128 Q2521.32 251.128 2519.06 250.711 Q2516.81 250.317 2514.31 249.507 L2514.31 245.109 Q2516.67 246.336 2518.96 246.961 Q2521.25 247.563 2523.5 247.563 Q2526.51 247.563 2528.13 246.544 Q2529.75 245.503 2529.75 243.628 Q2529.75 241.892 2528.57 240.966 Q2527.41 240.04 2523.45 239.183 L2521.97 238.836 Q2518.01 238.003 2516.25 236.29 Q2514.5 234.554 2514.5 231.544 Q2514.5 227.887 2517.09 225.896 Q2519.68 223.906 2524.45 223.906 Q2526.81 223.906 2528.89 224.253 Q2530.98 224.6 2532.74 225.294 Z" fill="#000000" fill-rule="nonzero" fill-opacity="1" /></svg>
