<?xml version="1.0" encoding="utf-8"?>
<svg xmlns="http://www.w3.org/2000/svg" xmlns:xlink="http://www.w3.org/1999/xlink" width="900" height="350" viewBox="0 0 3600 1400">
<defs>
  <clipPath id="clip150">
    <rect x="0" y="0" width="3600" height="1400"/>
  </clipPath>
</defs>
<path clip-path="url(#clip150)" d="M0 1400 L3600 1400 L3600 -2.22045e-14 L0 -2.22045e-14  Z" fill="#ffffff" fill-rule="evenodd" fill-opacity="1"/>
<defs>
  <clipPath id="clip151">
    <rect x="241" y="98" width="3312" height="1162"/>
  </clipPath>
</defs>
<path clip-path="url(#clip150)" d="M241.742 1259.38 L3552.76 1259.38 L3552.76 98.2721 L241.742 98.2721  Z" fill="#ffffff" fill-rule="evenodd" fill-opacity="1"/>
<polyline clip-path="url(#clip151)" style="stroke:#000000; stroke-linecap:round; stroke-linejoin:round; stroke-width:2; stroke-opacity:0.1; fill:none" points="335.45,1259.38 335.45,98.2721 "/>
<polyline clip-path="url(#clip151)" style="stroke:#000000; stroke-linecap:round; stroke-linejoin:round; stroke-width:2; stroke-opacity:0.1; fill:none" points="1191.23,1259.38 1191.23,98.2721 "/>
<polyline clip-path="url(#clip151)" style="stroke:#000000; stroke-linecap:round; stroke-linejoin:round; stroke-width:2; stroke-opacity:0.1; fill:none" points="2047.01,1259.38 2047.01,98.2721 "/>
<polyline clip-path="url(#clip151)" style="stroke:#000000; stroke-linecap:round; stroke-linejoin:round; stroke-width:2; stroke-opacity:0.1; fill:none" points="2902.79,1259.38 2902.79,98.2721 "/>
<polyline clip-path="url(#clip151)" style="stroke:#000000; stroke-linecap:round; stroke-linejoin:round; stroke-width:2; stroke-opacity:0.1; fill:none" points="241.742,1226.52 3552.76,1226.52 "/>
<polyline clip-path="url(#clip151)" style="stroke:#000000; stroke-linecap:round; stroke-linejoin:round; stroke-width:2; stroke-opacity:0.1; fill:none" points="241.742,939.249 3552.76,939.249 "/>
<polyline clip-path="url(#clip151)" style="stroke:#000000; stroke-linecap:round; stroke-linejoin:round; stroke-width:2; stroke-opacity:0.1; fill:none" points="241.742,651.974 3552.76,651.974 "/>
<polyline clip-path="url(#clip151)" style="stroke:#000000; stroke-linecap:round; stroke-linejoin:round; stroke-width:2; stroke-opacity:0.1; fill:none" points="241.742,364.698 3552.76,364.698 "/>
<polyline clip-path="url(#clip150)" style="stroke:#000000; stroke-linecap:round; stroke-linejoin:round; stroke-width:4; stroke-opacity:1; fill:none" points="241.742,1259.38 3552.76,1259.38 "/>
<polyline clip-path="url(#clip150)" style="stroke:#000000; stroke-linecap:round; stroke-linejoin:round; stroke-width:4; stroke-opacity:1; fill:none" points="335.45,1259.38 335.45,1240.48 "/>
<polyline clip-path="url(#clip150)" style="stroke:#000000; stroke-linecap:round; stroke-linejoin:round; stroke-width:4; stroke-opacity:1; fill:none" points="1191.23,1259.38 1191.23,1240.48 "/>
<polyline clip-path="url(#clip150)" style="stroke:#000000; stroke-linecap:round; stroke-linejoin:round; stroke-width:4; stroke-opacity:1; fill:none" points="2047.01,1259.38 2047.01,1240.48 "/>
<polyline clip-path="url(#clip150)" style="stroke:#000000; stroke-linecap:round; stroke-linejoin:round; stroke-width:4; stroke-opacity:1; fill:none" points="2902.79,1259.38 2902.79,1240.48 "/>
<path clip-path="url(#clip150)" d="M335.45 1299.9 Q331.839 1299.9 330.01 1303.46 Q328.205 1307 328.205 1314.13 Q328.205 1321.24 330.01 1324.81 Q331.839 1328.35 335.45 1328.35 Q339.084 1328.35 340.89 1324.81 Q342.718 1321.24 342.718 1314.13 Q342.718 1307 340.89 1303.46 Q339.084 1299.9 335.45 1299.9 M335.45 1296.19 Q341.26 1296.19 344.316 1300.8 Q347.394 1305.38 347.394 1314.13 Q347.394 1322.86 344.316 1327.47 Q341.26 1332.05 335.45 1332.05 Q329.64 1332.05 326.561 1327.47 Q323.506 1322.86 323.506 1314.13 Q323.506 1305.38 326.561 1300.8 Q329.64 1296.19 335.45 1296.19 Z" fill="#000000" fill-rule="nonzero" fill-opacity="1" /><path clip-path="url(#clip150)" d="M1150.85 1296.82 L1169.2 1296.82 L1169.2 1300.76 L1155.13 1300.76 L1155.13 1309.23 Q1156.15 1308.88 1157.17 1308.72 Q1158.19 1308.53 1159.2 1308.53 Q1164.99 1308.53 1168.37 1311.7 Q1171.75 1314.88 1171.75 1320.29 Q1171.75 1325.87 1168.28 1328.97 Q1164.81 1332.05 1158.49 1332.05 Q1156.31 1332.05 1154.04 1331.68 Q1151.8 1331.31 1149.39 1330.57 L1149.39 1325.87 Q1151.47 1327 1153.7 1327.56 Q1155.92 1328.12 1158.39 1328.12 Q1162.4 1328.12 1164.74 1326.01 Q1167.08 1323.9 1167.08 1320.29 Q1167.08 1316.68 1164.74 1314.57 Q1162.4 1312.47 1158.39 1312.47 Q1156.52 1312.47 1154.64 1312.88 Q1152.79 1313.3 1150.85 1314.18 L1150.85 1296.82 Z" fill="#000000" fill-rule="nonzero" fill-opacity="1" /><path clip-path="url(#clip150)" d="M1190.96 1299.9 Q1187.35 1299.9 1185.52 1303.46 Q1183.72 1307 1183.72 1314.13 Q1183.72 1321.24 1185.52 1324.81 Q1187.35 1328.35 1190.96 1328.35 Q1194.6 1328.35 1196.4 1324.81 Q1198.23 1321.24 1198.23 1314.13 Q1198.23 1307 1196.4 1303.46 Q1194.6 1299.9 1190.96 1299.9 M1190.96 1296.19 Q1196.77 1296.19 1199.83 1300.8 Q1202.91 1305.38 1202.91 1314.13 Q1202.91 1322.86 1199.83 1327.47 Q1196.77 1332.05 1190.96 1332.05 Q1185.15 1332.05 1182.08 1327.47 Q1179.02 1322.86 1179.02 1314.13 Q1179.02 1305.38 1182.08 1300.8 Q1185.15 1296.19 1190.96 1296.19 Z" fill="#000000" fill-rule="nonzero" fill-opacity="1" /><path clip-path="url(#clip150)" d="M1221.13 1299.9 Q1217.51 1299.9 1215.69 1303.46 Q1213.88 1307 1213.88 1314.13 Q1213.88 1321.24 1215.69 1324.81 Q1217.51 1328.35 1221.13 1328.35 Q1224.76 1328.35 1226.57 1324.81 Q1228.39 1321.24 1228.39 1314.13 Q1228.39 1307 1226.57 1303.46 Q1224.76 1299.9 1221.13 1299.9 M1221.13 1296.19 Q1226.94 1296.19 1229.99 1300.8 Q1233.07 1305.38 1233.07 1314.13 Q1233.07 1322.86 1229.99 1327.47 Q1226.94 1332.05 1221.13 1332.05 Q1215.32 1332.05 1212.24 1327.47 Q1209.18 1322.86 1209.18 1314.13 Q1209.18 1305.38 1212.24 1300.8 Q1215.32 1296.19 1221.13 1296.19 Z" fill="#000000" fill-rule="nonzero" fill-opacity="1" /><path clip-path="url(#clip150)" d="M1991.54 1327.44 L1999.18 1327.44 L1999.18 1301.08 L1990.86 1302.75 L1990.86 1298.49 L1999.13 1296.82 L2003.8 1296.82 L2003.8 1327.44 L2011.44 1327.44 L2011.44 1331.38 L1991.54 1331.38 L1991.54 1327.44 Z" fill="#000000" fill-rule="nonzero" fill-opacity="1" /><path clip-path="url(#clip150)" d="M2030.89 1299.9 Q2027.28 1299.9 2025.45 1303.46 Q2023.64 1307 2023.64 1314.13 Q2023.64 1321.24 2025.45 1324.81 Q2027.28 1328.35 2030.89 1328.35 Q2034.52 1328.35 2036.33 1324.81 Q2038.16 1321.24 2038.16 1314.13 Q2038.16 1307 2036.33 1303.46 Q2034.52 1299.9 2030.89 1299.9 M2030.89 1296.19 Q2036.7 1296.19 2039.75 1300.8 Q2042.83 1305.38 2042.83 1314.13 Q2042.83 1322.86 2039.75 1327.47 Q2036.7 1332.05 2030.89 1332.05 Q2025.08 1332.05 2022 1327.47 Q2018.94 1322.86 2018.94 1314.13 Q2018.94 1305.38 2022 1300.8 Q2025.08 1296.19 2030.89 1296.19 Z" fill="#000000" fill-rule="nonzero" fill-opacity="1" /><path clip-path="url(#clip150)" d="M2061.05 1299.9 Q2057.44 1299.9 2055.61 1303.46 Q2053.8 1307 2053.8 1314.13 Q2053.8 1321.24 2055.61 1324.81 Q2057.44 1328.35 2061.05 1328.35 Q2064.68 1328.35 2066.49 1324.81 Q2068.32 1321.24 2068.32 1314.13 Q2068.32 1307 2066.49 1303.46 Q2064.68 1299.9 2061.05 1299.9 M2061.05 1296.19 Q2066.86 1296.19 2069.92 1300.8 Q2072.99 1305.38 2072.99 1314.13 Q2072.99 1322.86 2069.92 1327.47 Q2066.86 1332.05 2061.05 1332.05 Q2055.24 1332.05 2052.16 1327.47 Q2049.11 1322.86 2049.11 1314.13 Q2049.11 1305.38 2052.16 1300.8 Q2055.24 1296.19 2061.05 1296.19 Z" fill="#000000" fill-rule="nonzero" fill-opacity="1" /><path clip-path="url(#clip150)" d="M2091.21 1299.9 Q2087.6 1299.9 2085.77 1303.46 Q2083.97 1307 2083.97 1314.13 Q2083.97 1321.24 2085.77 1324.81 Q2087.6 1328.35 2091.21 1328.35 Q2094.85 1328.35 2096.65 1324.81 Q2098.48 1321.24 2098.48 1314.13 Q2098.48 1307 2096.65 1303.46 Q2094.85 1299.9 2091.21 1299.9 M2091.21 1296.19 Q2097.02 1296.19 2100.08 1300.8 Q2103.16 1305.38 2103.16 1314.13 Q2103.16 1322.86 2100.08 1327.47 Q2097.02 1332.05 2091.21 1332.05 Q2085.4 1332.05 2082.32 1327.47 Q2079.27 1322.86 2079.27 1314.13 Q2079.27 1305.38 2082.32 1300.8 Q2085.4 1296.19 2091.21 1296.19 Z" fill="#000000" fill-rule="nonzero" fill-opacity="1" /><path clip-path="url(#clip150)" d="M2847.32 1327.44 L2854.96 1327.44 L2854.96 1301.08 L2846.65 1302.75 L2846.65 1298.49 L2854.91 1296.82 L2859.59 1296.82 L2859.59 1327.44 L2867.22 1327.44 L2867.22 1331.38 L2847.32 1331.38 L2847.32 1327.44 Z" fill="#000000" fill-rule="nonzero" fill-opacity="1" /><path clip-path="url(#clip150)" d="M2876.71 1296.82 L2895.07 1296.82 L2895.07 1300.76 L2881 1300.76 L2881 1309.23 Q2882.02 1308.88 2883.03 1308.72 Q2884.05 1308.53 2885.07 1308.53 Q2890.86 1308.53 2894.24 1311.7 Q2897.62 1314.88 2897.62 1320.29 Q2897.62 1325.87 2894.15 1328.97 Q2890.67 1332.05 2884.35 1332.05 Q2882.18 1332.05 2879.91 1331.68 Q2877.66 1331.31 2875.26 1330.57 L2875.26 1325.87 Q2877.34 1327 2879.56 1327.56 Q2881.78 1328.12 2884.26 1328.12 Q2888.27 1328.12 2890.6 1326.01 Q2892.94 1323.9 2892.94 1320.29 Q2892.94 1316.68 2890.6 1314.57 Q2888.27 1312.47 2884.26 1312.47 Q2882.39 1312.47 2880.51 1312.88 Q2878.66 1313.3 2876.71 1314.18 L2876.71 1296.82 Z" fill="#000000" fill-rule="nonzero" fill-opacity="1" /><path clip-path="url(#clip150)" d="M2916.83 1299.9 Q2913.22 1299.9 2911.39 1303.46 Q2909.58 1307 2909.58 1314.13 Q2909.58 1321.24 2911.39 1324.81 Q2913.22 1328.35 2916.83 1328.35 Q2920.46 1328.35 2922.27 1324.81 Q2924.1 1321.24 2924.1 1314.13 Q2924.1 1307 2922.27 1303.46 Q2920.46 1299.9 2916.83 1299.9 M2916.83 1296.19 Q2922.64 1296.19 2925.7 1300.8 Q2928.77 1305.38 2928.77 1314.13 Q2928.77 1322.86 2925.7 1327.47 Q2922.64 1332.05 2916.83 1332.05 Q2911.02 1332.05 2907.94 1327.47 Q2904.89 1322.86 2904.89 1314.13 Q2904.89 1305.38 2907.94 1300.8 Q2911.02 1296.19 2916.83 1296.19 Z" fill="#000000" fill-rule="nonzero" fill-opacity="1" /><path clip-path="url(#clip150)" d="M2946.99 1299.9 Q2943.38 1299.9 2941.55 1303.46 Q2939.75 1307 2939.75 1314.13 Q2939.75 1321.24 2941.55 1324.81 Q2943.38 1328.35 2946.99 1328.35 Q2950.63 1328.35 2952.43 1324.81 Q2954.26 1321.24 2954.26 1314.13 Q2954.26 1307 2952.43 1303.46 Q2950.63 1299.9 2946.99 1299.9 M2946.99 1296.19 Q2952.8 1296.19 2955.86 1300.8 Q2958.94 1305.38 2958.94 1314.13 Q2958.94 1322.86 2955.86 1327.47 Q2952.8 1332.05 2946.99 1332.05 Q2941.18 1332.05 2938.1 1327.47 Q2935.05 1322.86 2935.05 1314.13 Q2935.05 1305.38 2938.1 1300.8 Q2941.18 1296.19 2946.99 1296.19 Z" fill="#000000" fill-rule="nonzero" fill-opacity="1" /><path clip-path="url(#clip150)" d="M1843.49 1380.01 L1843.49 1416.96 L1851.26 1416.96 Q1861.09 1416.96 1865.64 1412.5 Q1870.23 1408.05 1870.23 1398.44 Q1870.23 1388.89 1865.64 1384.46 Q1861.09 1380.01 1851.26 1380.01 L1843.49 1380.01 M1837.06 1374.72 L1850.27 1374.72 Q1864.08 1374.72 1870.54 1380.48 Q1877.01 1386.21 1877.01 1398.44 Q1877.01 1410.72 1870.51 1416.48 Q1864.02 1422.24 1850.27 1422.24 L1837.06 1422.24 L1837.06 1374.72 Z" fill="#000000" fill-rule="nonzero" fill-opacity="1" /><path clip-path="url(#clip150)" d="M1903.2 1404.32 Q1896.1 1404.32 1893.37 1405.95 Q1890.63 1407.57 1890.63 1411.49 Q1890.63 1414.6 1892.67 1416.45 Q1894.73 1418.27 1898.27 1418.27 Q1903.14 1418.27 1906.07 1414.83 Q1909.03 1411.36 1909.03 1405.63 L1909.03 1404.32 L1903.2 1404.32 M1914.88 1401.91 L1914.88 1422.24 L1909.03 1422.24 L1909.03 1416.83 Q1907.02 1420.08 1904.03 1421.64 Q1901.04 1423.17 1896.71 1423.17 Q1891.23 1423.17 1887.99 1420.11 Q1884.77 1417.02 1884.77 1411.87 Q1884.77 1405.85 1888.78 1402.8 Q1892.82 1399.74 1900.81 1399.74 L1909.03 1399.74 L1909.03 1399.17 Q1909.03 1395.13 1906.35 1392.93 Q1903.71 1390.7 1898.9 1390.7 Q1895.85 1390.7 1892.95 1391.43 Q1890.06 1392.17 1887.38 1393.63 L1887.38 1388.22 Q1890.6 1386.98 1893.62 1386.37 Q1896.64 1385.74 1899.51 1385.74 Q1907.24 1385.74 1911.06 1389.75 Q1914.88 1393.76 1914.88 1401.91 Z" fill="#000000" fill-rule="nonzero" fill-opacity="1" /><path clip-path="url(#clip150)" d="M1941.78 1425.55 Q1939.29 1431.92 1936.94 1433.86 Q1934.58 1435.8 1930.64 1435.8 L1925.96 1435.8 L1925.96 1430.9 L1929.4 1430.9 Q1931.81 1430.9 1933.15 1429.76 Q1934.49 1428.61 1936.11 1424.34 L1937.16 1421.67 L1922.74 1386.6 L1928.95 1386.6 L1940.09 1414.48 L1951.23 1386.6 L1957.44 1386.6 L1941.78 1425.55 Z" fill="#000000" fill-rule="nonzero" fill-opacity="1" /><polyline clip-path="url(#clip150)" style="stroke:#000000; stroke-linecap:round; stroke-linejoin:round; stroke-width:4; stroke-opacity:1; fill:none" points="241.742,1259.38 241.742,98.2721 "/>
<polyline clip-path="url(#clip150)" style="stroke:#000000; stroke-linecap:round; stroke-linejoin:round; stroke-width:4; stroke-opacity:1; fill:none" points="241.742,1226.52 260.64,1226.52 "/>
<polyline clip-path="url(#clip150)" style="stroke:#000000; stroke-linecap:round; stroke-linejoin:round; stroke-width:4; stroke-opacity:1; fill:none" points="241.742,939.249 260.64,939.249 "/>
<polyline clip-path="url(#clip150)" style="stroke:#000000; stroke-linecap:round; stroke-linejoin:round; stroke-width:4; stroke-opacity:1; fill:none" points="241.742,651.974 260.64,651.974 "/>
<polyline clip-path="url(#clip150)" style="stroke:#000000; stroke-linecap:round; stroke-linejoin:round; stroke-width:4; stroke-opacity:1; fill:none" points="241.742,364.698 260.64,364.698 "/>
<path clip-path="url(#clip150)" d="M100.405 1212.32 Q96.7934 1212.32 94.9648 1215.89 Q93.1592 1219.43 93.1592 1226.56 Q93.1592 1233.67 94.9648 1237.23 Q96.7934 1240.77 100.405 1240.77 Q104.039 1240.77 105.844 1237.23 Q107.673 1233.67 107.673 1226.56 Q107.673 1219.43 105.844 1215.89 Q104.039 1212.32 100.405 1212.32 M100.405 1208.62 Q106.215 1208.62 109.27 1213.23 Q112.349 1217.81 112.349 1226.56 Q112.349 1235.29 109.27 1239.89 Q106.215 1244.48 100.405 1244.48 Q94.5944 1244.48 91.5157 1239.89 Q88.4602 1235.29 88.4602 1226.56 Q88.4602 1217.81 91.5157 1213.23 Q94.5944 1208.62 100.405 1208.62 Z" fill="#000000" fill-rule="nonzero" fill-opacity="1" /><path clip-path="url(#clip150)" d="M120.566 1237.92 L125.451 1237.92 L125.451 1243.8 L120.566 1243.8 L120.566 1237.92 Z" fill="#000000" fill-rule="nonzero" fill-opacity="1" /><path clip-path="url(#clip150)" d="M145.636 1212.32 Q142.025 1212.32 140.196 1215.89 Q138.39 1219.43 138.39 1226.56 Q138.39 1233.67 140.196 1237.23 Q142.025 1240.77 145.636 1240.77 Q149.27 1240.77 151.076 1237.23 Q152.904 1233.67 152.904 1226.56 Q152.904 1219.43 151.076 1215.89 Q149.27 1212.32 145.636 1212.32 M145.636 1208.62 Q151.446 1208.62 154.501 1213.23 Q157.58 1217.81 157.58 1226.56 Q157.58 1235.29 154.501 1239.89 Q151.446 1244.48 145.636 1244.48 Q139.826 1244.48 136.747 1239.89 Q133.691 1235.29 133.691 1226.56 Q133.691 1217.81 136.747 1213.23 Q139.826 1208.62 145.636 1208.62 Z" fill="#000000" fill-rule="nonzero" fill-opacity="1" /><path clip-path="url(#clip150)" d="M175.798 1212.32 Q172.187 1212.32 170.358 1215.89 Q168.552 1219.43 168.552 1226.56 Q168.552 1233.67 170.358 1237.23 Q172.187 1240.77 175.798 1240.77 Q179.432 1240.77 181.237 1237.23 Q183.066 1233.67 183.066 1226.56 Q183.066 1219.43 181.237 1215.89 Q179.432 1212.32 175.798 1212.32 M175.798 1208.62 Q181.608 1208.62 184.663 1213.23 Q187.742 1217.81 187.742 1226.56 Q187.742 1235.29 184.663 1239.89 Q181.608 1244.48 175.798 1244.48 Q169.987 1244.48 166.909 1239.89 Q163.853 1235.29 163.853 1226.56 Q163.853 1217.81 166.909 1213.23 Q169.987 1208.62 175.798 1208.62 Z" fill="#000000" fill-rule="nonzero" fill-opacity="1" /><path clip-path="url(#clip150)" d="M101.4 925.048 Q97.7888 925.048 95.9601 928.612 Q94.1546 932.154 94.1546 939.284 Q94.1546 946.39 95.9601 949.955 Q97.7888 953.496 101.4 953.496 Q105.034 953.496 106.84 949.955 Q108.668 946.39 108.668 939.284 Q108.668 932.154 106.84 928.612 Q105.034 925.048 101.4 925.048 M101.4 921.344 Q107.21 921.344 110.266 925.95 Q113.344 930.534 113.344 939.284 Q113.344 948.01 110.266 952.617 Q107.21 957.2 101.4 957.2 Q95.5897 957.2 92.5111 952.617 Q89.4555 948.01 89.4555 939.284 Q89.4555 930.534 92.5111 925.95 Q95.5897 921.344 101.4 921.344 Z" fill="#000000" fill-rule="nonzero" fill-opacity="1" /><path clip-path="url(#clip150)" d="M121.562 950.649 L126.446 950.649 L126.446 956.529 L121.562 956.529 L121.562 950.649 Z" fill="#000000" fill-rule="nonzero" fill-opacity="1" /><path clip-path="url(#clip150)" d="M146.631 925.048 Q143.02 925.048 141.191 928.612 Q139.386 932.154 139.386 939.284 Q139.386 946.39 141.191 949.955 Q143.02 953.496 146.631 953.496 Q150.265 953.496 152.071 949.955 Q153.9 946.39 153.9 939.284 Q153.9 932.154 152.071 928.612 Q150.265 925.048 146.631 925.048 M146.631 921.344 Q152.441 921.344 155.497 925.95 Q158.576 930.534 158.576 939.284 Q158.576 948.01 155.497 952.617 Q152.441 957.2 146.631 957.2 Q140.821 957.2 137.742 952.617 Q134.687 948.01 134.687 939.284 Q134.687 930.534 137.742 925.95 Q140.821 921.344 146.631 921.344 Z" fill="#000000" fill-rule="nonzero" fill-opacity="1" /><path clip-path="url(#clip150)" d="M166.839 921.969 L185.196 921.969 L185.196 925.904 L171.122 925.904 L171.122 934.376 Q172.14 934.029 173.159 933.867 Q174.177 933.682 175.196 933.682 Q180.983 933.682 184.362 936.853 Q187.742 940.024 187.742 945.441 Q187.742 951.02 184.27 954.121 Q180.798 957.2 174.478 957.2 Q172.302 957.2 170.034 956.83 Q167.788 956.459 165.381 955.719 L165.381 951.02 Q167.464 952.154 169.687 952.709 Q171.909 953.265 174.386 953.265 Q178.39 953.265 180.728 951.159 Q183.066 949.052 183.066 945.441 Q183.066 941.83 180.728 939.723 Q178.39 937.617 174.386 937.617 Q172.511 937.617 170.636 938.034 Q168.784 938.45 166.839 939.33 L166.839 921.969 Z" fill="#000000" fill-rule="nonzero" fill-opacity="1" /><path clip-path="url(#clip150)" d="M100.405 637.772 Q96.7934 637.772 94.9648 641.337 Q93.1592 644.879 93.1592 652.008 Q93.1592 659.115 94.9648 662.68 Q96.7934 666.221 100.405 666.221 Q104.039 666.221 105.844 662.68 Q107.673 659.115 107.673 652.008 Q107.673 644.879 105.844 641.337 Q104.039 637.772 100.405 637.772 M100.405 634.069 Q106.215 634.069 109.27 638.675 Q112.349 643.258 112.349 652.008 Q112.349 660.735 109.27 665.342 Q106.215 669.925 100.405 669.925 Q94.5944 669.925 91.5157 665.342 Q88.4602 660.735 88.4602 652.008 Q88.4602 643.258 91.5157 638.675 Q94.5944 634.069 100.405 634.069 Z" fill="#000000" fill-rule="nonzero" fill-opacity="1" /><path clip-path="url(#clip150)" d="M120.566 663.374 L125.451 663.374 L125.451 669.254 L120.566 669.254 L120.566 663.374 Z" fill="#000000" fill-rule="nonzero" fill-opacity="1" /><path clip-path="url(#clip150)" d="M136.446 665.318 L144.085 665.318 L144.085 638.953 L135.775 640.62 L135.775 636.36 L144.039 634.694 L148.714 634.694 L148.714 665.318 L156.353 665.318 L156.353 669.254 L136.446 669.254 L136.446 665.318 Z" fill="#000000" fill-rule="nonzero" fill-opacity="1" /><path clip-path="url(#clip150)" d="M175.798 637.772 Q172.187 637.772 170.358 641.337 Q168.552 644.879 168.552 652.008 Q168.552 659.115 170.358 662.68 Q172.187 666.221 175.798 666.221 Q179.432 666.221 181.237 662.68 Q183.066 659.115 183.066 652.008 Q183.066 644.879 181.237 641.337 Q179.432 637.772 175.798 637.772 M175.798 634.069 Q181.608 634.069 184.663 638.675 Q187.742 643.258 187.742 652.008 Q187.742 660.735 184.663 665.342 Q181.608 669.925 175.798 669.925 Q169.987 669.925 166.909 665.342 Q163.853 660.735 163.853 652.008 Q163.853 643.258 166.909 638.675 Q169.987 634.069 175.798 634.069 Z" fill="#000000" fill-rule="nonzero" fill-opacity="1" /><path clip-path="url(#clip150)" d="M101.4 350.497 Q97.7888 350.497 95.9601 354.062 Q94.1546 357.604 94.1546 364.733 Q94.1546 371.84 95.9601 375.404 Q97.7888 378.946 101.4 378.946 Q105.034 378.946 106.84 375.404 Q108.668 371.84 108.668 364.733 Q108.668 357.604 106.84 354.062 Q105.034 350.497 101.4 350.497 M101.4 346.793 Q107.21 346.793 110.266 351.4 Q113.344 355.983 113.344 364.733 Q113.344 373.46 110.266 378.066 Q107.21 382.65 101.4 382.65 Q95.5897 382.65 92.5111 378.066 Q89.4555 373.46 89.4555 364.733 Q89.4555 355.983 92.5111 351.4 Q95.5897 346.793 101.4 346.793 Z" fill="#000000" fill-rule="nonzero" fill-opacity="1" /><path clip-path="url(#clip150)" d="M121.562 376.099 L126.446 376.099 L126.446 381.978 L121.562 381.978 L121.562 376.099 Z" fill="#000000" fill-rule="nonzero" fill-opacity="1" /><path clip-path="url(#clip150)" d="M137.441 378.043 L145.08 378.043 L145.08 351.678 L136.77 353.344 L136.77 349.085 L145.034 347.418 L149.71 347.418 L149.71 378.043 L157.349 378.043 L157.349 381.978 L137.441 381.978 L137.441 378.043 Z" fill="#000000" fill-rule="nonzero" fill-opacity="1" /><path clip-path="url(#clip150)" d="M166.839 347.418 L185.196 347.418 L185.196 351.354 L171.122 351.354 L171.122 359.826 Q172.14 359.479 173.159 359.317 Q174.177 359.131 175.196 359.131 Q180.983 359.131 184.362 362.303 Q187.742 365.474 187.742 370.891 Q187.742 376.469 184.27 379.571 Q180.798 382.65 174.478 382.65 Q172.302 382.65 170.034 382.279 Q167.788 381.909 165.381 381.168 L165.381 376.469 Q167.464 377.603 169.687 378.159 Q171.909 378.715 174.386 378.715 Q178.39 378.715 180.728 376.608 Q183.066 374.502 183.066 370.891 Q183.066 367.279 180.728 365.173 Q178.39 363.067 174.386 363.067 Q172.511 363.067 170.636 363.483 Q168.784 363.9 166.839 364.779 L166.839 347.418 Z" fill="#000000" fill-rule="nonzero" fill-opacity="1" /><path clip-path="url(#clip150)" d="M-27.3158 726.441 L-27.3158 699.133 L-21.905 699.133 L-21.905 720.012 L-7.90044 720.012 L-7.90044 701.17 L-2.48959 701.17 L-2.48959 720.012 L20.2042 720.012 L20.2042 726.441 L-27.3158 726.441 Z" fill="#000000" fill-rule="nonzero" fill-opacity="1" /><path clip-path="url(#clip150)" d="M-22.9553 669.659 Q-22.9553 676.662 -17.7355 680.799 Q-12.5156 684.905 -3.5081 684.905 Q5.46755 684.905 10.6874 680.799 Q15.9073 676.662 15.9073 669.659 Q15.9073 662.657 10.6874 658.583 Q5.46755 654.477 -3.5081 654.477 Q-12.5156 654.477 -17.7355 658.583 Q-22.9553 662.657 -22.9553 669.659 M-28.1752 669.659 Q-28.1752 659.665 -21.4594 653.681 Q-14.7754 647.698 -3.5081 647.698 Q7.72737 647.698 14.4432 653.681 Q21.1272 659.665 21.1272 669.659 Q21.1272 679.685 14.4432 685.701 Q7.7592 691.685 -3.5081 691.685 Q-14.7754 691.685 -21.4594 685.701 Q-28.1752 679.685 -28.1752 669.659 Z" fill="#000000" fill-rule="nonzero" fill-opacity="1" /><path clip-path="url(#clip150)" d="M-27.3158 637.64 L-27.3158 631.21 L20.2042 631.21 L20.2042 637.64 L-27.3158 637.64 Z" fill="#000000" fill-rule="nonzero" fill-opacity="1" /><path clip-path="url(#clip150)" d="M930.541 12.096 L981.704 12.096 L981.704 18.9825 L960.234 18.9825 L960.234 72.576 L952.011 72.576 L952.011 18.9825 L930.541 18.9825 L930.541 12.096 Z" fill="#000000" fill-rule="nonzero" fill-opacity="1" /><path clip-path="url(#clip150)" d="M992.763 32.4315 Q986.768 32.4315 983.284 37.1306 Q979.8 41.7891 979.8 49.9314 Q979.8 58.0738 983.243 62.7728 Q986.727 67.4314 992.763 67.4314 Q998.718 67.4314 1002.2 62.7323 Q1005.69 58.0333 1005.69 49.9314 Q1005.69 41.8701 1002.2 37.1711 Q998.718 32.4315 992.763 32.4315 M992.763 26.1121 Q1002.49 26.1121 1008.03 32.4315 Q1013.58 38.7509 1013.58 49.9314 Q1013.58 61.0714 1008.03 67.4314 Q1002.49 73.7508 992.763 73.7508 Q983 73.7508 977.451 67.4314 Q971.941 61.0714 971.941 49.9314 Q971.941 38.7509 977.451 32.4315 Q983 26.1121 992.763 26.1121 Z" fill="#000000" fill-rule="nonzero" fill-opacity="1" /><path clip-path="url(#clip150)" d="M1033.31 14.324 L1033.31 27.2059 L1048.67 27.2059 L1048.67 32.9987 L1033.31 32.9987 L1033.31 57.6282 Q1033.31 63.1779 1034.81 64.7578 Q1036.35 66.3376 1041.01 66.3376 L1048.67 66.3376 L1048.67 72.576 L1041.01 72.576 Q1032.38 72.576 1029.1 69.3758 Q1025.82 66.1351 1025.82 57.6282 L1025.82 32.9987 L1020.35 32.9987 L1020.35 27.2059 L1025.82 27.2059 L1025.82 14.324 L1033.31 14.324 Z" fill="#000000" fill-rule="nonzero" fill-opacity="1" /><path clip-path="url(#clip150)" d="M1079.09 49.7694 Q1070.05 49.7694 1066.57 51.8354 Q1063.09 53.9013 1063.09 58.8839 Q1063.09 62.8538 1065.68 65.2034 Q1068.31 67.5124 1072.81 67.5124 Q1079.01 67.5124 1082.73 63.1374 Q1086.5 58.7219 1086.5 51.4303 L1086.5 49.7694 L1079.09 49.7694 M1093.95 46.6907 L1093.95 72.576 L1086.5 72.576 L1086.5 65.6895 Q1083.95 69.8214 1080.14 71.8063 Q1076.33 73.7508 1070.82 73.7508 Q1063.86 73.7508 1059.72 69.8619 Q1055.63 65.9325 1055.63 59.3701 Q1055.63 51.7138 1060.74 47.825 Q1065.88 43.9361 1076.05 43.9361 L1086.5 43.9361 L1086.5 43.2069 Q1086.5 38.0623 1083.1 35.2672 Q1079.74 32.4315 1073.62 32.4315 Q1069.73 32.4315 1066.04 33.3632 Q1062.36 34.295 1058.95 36.1584 L1058.95 29.2718 Q1063.05 27.692 1066.89 26.9223 Q1070.74 26.1121 1074.39 26.1121 Q1084.23 26.1121 1089.09 31.2163 Q1093.95 36.3204 1093.95 46.6907 Z" fill="#000000" fill-rule="nonzero" fill-opacity="1" /><path clip-path="url(#clip150)" d="M1109.31 9.54393 L1116.76 9.54393 L1116.76 72.576 L1109.31 72.576 L1109.31 9.54393 Z" fill="#000000" fill-rule="nonzero" fill-opacity="1" /><path clip-path="url(#clip150)" d="M1159.05 12.096 L1193.81 12.096 L1193.81 18.9825 L1167.24 18.9825 L1167.24 36.8065 L1191.22 36.8065 L1191.22 43.6931 L1167.24 43.6931 L1167.24 72.576 L1159.05 72.576 L1159.05 12.096 Z" fill="#000000" fill-rule="nonzero" fill-opacity="1" /><path clip-path="url(#clip150)" d="M1221.07 32.4315 Q1215.08 32.4315 1211.59 37.1306 Q1208.11 41.7891 1208.11 49.9314 Q1208.11 58.0738 1211.55 62.7728 Q1215.04 67.4314 1221.07 67.4314 Q1227.03 67.4314 1230.51 62.7323 Q1233.99 58.0333 1233.99 49.9314 Q1233.99 41.8701 1230.51 37.1711 Q1227.03 32.4315 1221.07 32.4315 M1221.07 26.1121 Q1230.79 26.1121 1236.34 32.4315 Q1241.89 38.7509 1241.89 49.9314 Q1241.89 61.0714 1236.34 67.4314 Q1230.79 73.7508 1221.07 73.7508 Q1211.31 73.7508 1205.76 67.4314 Q1200.25 61.0714 1200.25 49.9314 Q1200.25 38.7509 1205.76 32.4315 Q1211.31 26.1121 1221.07 26.1121 Z" fill="#000000" fill-rule="nonzero" fill-opacity="1" /><path clip-path="url(#clip150)" d="M1280.54 34.1734 Q1279.28 33.4443 1277.78 33.1202 Q1276.33 32.7556 1274.54 32.7556 Q1268.22 32.7556 1264.82 36.8875 Q1261.46 40.9789 1261.46 48.6757 L1261.46 72.576 L1253.97 72.576 L1253.97 27.2059 L1261.46 27.2059 L1261.46 34.2544 Q1263.81 30.1225 1267.58 28.1376 Q1271.34 26.1121 1276.73 26.1121 Q1277.5 26.1121 1278.43 26.2337 Q1279.36 26.3147 1280.5 26.5172 L1280.54 34.1734 Z" fill="#000000" fill-rule="nonzero" fill-opacity="1" /><path clip-path="url(#clip150)" d="M1319.18 28.9478 L1319.18 35.9153 Q1316.03 34.1734 1312.83 33.3227 Q1309.67 32.4315 1306.42 32.4315 Q1299.17 32.4315 1295.16 37.0496 Q1291.15 41.6271 1291.15 49.9314 Q1291.15 58.2358 1295.16 62.8538 Q1299.17 67.4314 1306.42 67.4314 Q1309.67 67.4314 1312.83 66.5807 Q1316.03 65.6895 1319.18 63.9476 L1319.18 70.8341 Q1316.07 72.2924 1312.7 73.0216 Q1309.38 73.7508 1305.61 73.7508 Q1295.37 73.7508 1289.33 67.3098 Q1283.29 60.8689 1283.29 49.9314 Q1283.29 38.832 1289.37 32.472 Q1295.49 26.1121 1306.1 26.1121 Q1309.54 26.1121 1312.83 26.8413 Q1316.11 27.5299 1319.18 28.9478 Z" fill="#000000" fill-rule="nonzero" fill-opacity="1" /><path clip-path="url(#clip150)" d="M1370.96 48.0275 L1370.96 51.6733 L1336.68 51.6733 Q1337.17 59.3701 1341.3 63.421 Q1345.48 67.4314 1352.89 67.4314 Q1357.18 67.4314 1361.19 66.3781 Q1365.24 65.3249 1369.21 63.2184 L1369.21 70.267 Q1365.2 71.9684 1360.99 72.8596 Q1356.78 73.7508 1352.44 73.7508 Q1341.59 73.7508 1335.23 67.4314 Q1328.91 61.1119 1328.91 50.3365 Q1328.91 39.1965 1334.9 32.6746 Q1340.94 26.1121 1351.15 26.1121 Q1360.3 26.1121 1365.61 32.0264 Q1370.96 37.9003 1370.96 48.0275 M1363.5 45.84 Q1363.42 39.7232 1360.06 36.0774 Q1356.74 32.4315 1351.23 32.4315 Q1344.99 32.4315 1341.22 35.9558 Q1337.5 39.4801 1336.93 45.8805 L1363.5 45.84 Z" fill="#000000" fill-rule="nonzero" fill-opacity="1" /><path clip-path="url(#clip150)" d="M1427.14 32.4315 Q1421.15 32.4315 1417.66 37.1306 Q1414.18 41.7891 1414.18 49.9314 Q1414.18 58.0738 1417.62 62.7728 Q1421.11 67.4314 1427.14 67.4314 Q1433.1 67.4314 1436.58 62.7323 Q1440.06 58.0333 1440.06 49.9314 Q1440.06 41.8701 1436.58 37.1711 Q1433.1 32.4315 1427.14 32.4315 M1427.14 26.1121 Q1436.86 26.1121 1442.41 32.4315 Q1447.96 38.7509 1447.96 49.9314 Q1447.96 61.0714 1442.41 67.4314 Q1436.86 73.7508 1427.14 73.7508 Q1417.38 73.7508 1411.83 67.4314 Q1406.32 61.0714 1406.32 49.9314 Q1406.32 38.7509 1411.83 32.4315 Q1417.38 26.1121 1427.14 26.1121 Z" fill="#000000" fill-rule="nonzero" fill-opacity="1" /><path clip-path="url(#clip150)" d="M1483.29 9.54393 L1483.29 15.7418 L1476.16 15.7418 Q1472.15 15.7418 1470.57 17.3622 Q1469.03 18.9825 1469.03 23.1955 L1469.03 27.2059 L1481.3 27.2059 L1481.3 32.9987 L1469.03 32.9987 L1469.03 72.576 L1461.53 72.576 L1461.53 32.9987 L1454.4 32.9987 L1454.4 27.2059 L1461.53 27.2059 L1461.53 24.0462 Q1461.53 16.471 1465.06 13.0277 Q1468.58 9.54393 1476.24 9.54393 L1483.29 9.54393 Z" fill="#000000" fill-rule="nonzero" fill-opacity="1" /><path clip-path="url(#clip150)" d="M1516.22 12.096 L1524.4 12.096 L1524.4 72.576 L1516.22 72.576 L1516.22 12.096 Z" fill="#000000" fill-rule="nonzero" fill-opacity="1" /><path clip-path="url(#clip150)" d="M1578.08 45.1919 L1578.08 72.576 L1570.62 72.576 L1570.62 45.4349 Q1570.62 38.994 1568.11 35.7938 Q1565.6 32.5936 1560.58 32.5936 Q1554.54 32.5936 1551.06 36.4419 Q1547.57 40.2903 1547.57 46.9338 L1547.57 72.576 L1540.08 72.576 L1540.08 27.2059 L1547.57 27.2059 L1547.57 34.2544 Q1550.25 30.163 1553.85 28.1376 Q1557.5 26.1121 1562.24 26.1121 Q1570.06 26.1121 1574.07 30.9732 Q1578.08 35.7938 1578.08 45.1919 Z" fill="#000000" fill-rule="nonzero" fill-opacity="1" /><path clip-path="url(#clip150)" d="M1615.91 9.54393 L1615.91 15.7418 L1608.78 15.7418 Q1604.77 15.7418 1603.19 17.3622 Q1601.65 18.9825 1601.65 23.1955 L1601.65 27.2059 L1613.93 27.2059 L1613.93 32.9987 L1601.65 32.9987 L1601.65 72.576 L1594.16 72.576 L1594.16 32.9987 L1587.03 32.9987 L1587.03 27.2059 L1594.16 27.2059 L1594.16 24.0462 Q1594.16 16.471 1597.68 13.0277 Q1601.21 9.54393 1608.87 9.54393 L1615.91 9.54393 Z" fill="#000000" fill-rule="nonzero" fill-opacity="1" /><path clip-path="url(#clip150)" d="M1660.96 48.0275 L1660.96 51.6733 L1626.69 51.6733 Q1627.18 59.3701 1631.31 63.421 Q1635.48 67.4314 1642.89 67.4314 Q1647.19 67.4314 1651.2 66.3781 Q1655.25 65.3249 1659.22 63.2184 L1659.22 70.267 Q1655.21 71.9684 1650.99 72.8596 Q1646.78 73.7508 1642.45 73.7508 Q1631.59 73.7508 1625.23 67.4314 Q1618.91 61.1119 1618.91 50.3365 Q1618.91 39.1965 1624.91 32.6746 Q1630.94 26.1121 1641.15 26.1121 Q1650.31 26.1121 1655.61 32.0264 Q1660.96 37.9003 1660.96 48.0275 M1653.51 45.84 Q1653.43 39.7232 1650.06 36.0774 Q1646.74 32.4315 1641.23 32.4315 Q1634.99 32.4315 1631.23 35.9558 Q1627.5 39.4801 1626.93 45.8805 L1653.51 45.84 Z" fill="#000000" fill-rule="nonzero" fill-opacity="1" /><path clip-path="url(#clip150)" d="M1705.84 28.9478 L1705.84 35.9153 Q1702.68 34.1734 1699.48 33.3227 Q1696.32 32.4315 1693.08 32.4315 Q1685.83 32.4315 1681.82 37.0496 Q1677.81 41.6271 1677.81 49.9314 Q1677.81 58.2358 1681.82 62.8538 Q1685.83 67.4314 1693.08 67.4314 Q1696.32 67.4314 1699.48 66.5807 Q1702.68 65.6895 1705.84 63.9476 L1705.84 70.8341 Q1702.72 72.2924 1699.36 73.0216 Q1696.04 73.7508 1692.27 73.7508 Q1682.02 73.7508 1675.99 67.3098 Q1669.95 60.8689 1669.95 49.9314 Q1669.95 38.832 1676.03 32.472 Q1682.15 26.1121 1692.76 26.1121 Q1696.2 26.1121 1699.48 26.8413 Q1702.77 27.5299 1705.84 28.9478 Z" fill="#000000" fill-rule="nonzero" fill-opacity="1" /><path clip-path="url(#clip150)" d="M1726.18 14.324 L1726.18 27.2059 L1741.53 27.2059 L1741.53 32.9987 L1726.18 32.9987 L1726.18 57.6282 Q1726.18 63.1779 1727.68 64.7578 Q1729.22 66.3376 1733.88 66.3376 L1741.53 66.3376 L1741.53 72.576 L1733.88 72.576 Q1725.25 72.576 1721.97 69.3758 Q1718.69 66.1351 1718.69 57.6282 L1718.69 32.9987 L1713.22 32.9987 L1713.22 27.2059 L1718.69 27.2059 L1718.69 14.324 L1726.18 14.324 Z" fill="#000000" fill-rule="nonzero" fill-opacity="1" /><path clip-path="url(#clip150)" d="M1751.34 27.2059 L1758.79 27.2059 L1758.79 72.576 L1751.34 72.576 L1751.34 27.2059 M1751.34 9.54393 L1758.79 9.54393 L1758.79 18.9825 L1751.34 18.9825 L1751.34 9.54393 Z" fill="#000000" fill-rule="nonzero" fill-opacity="1" /><path clip-path="url(#clip150)" d="M1791.97 32.4315 Q1785.97 32.4315 1782.49 37.1306 Q1779 41.7891 1779 49.9314 Q1779 58.0738 1782.45 62.7728 Q1785.93 67.4314 1791.97 67.4314 Q1797.92 67.4314 1801.4 62.7323 Q1804.89 58.0333 1804.89 49.9314 Q1804.89 41.8701 1801.4 37.1711 Q1797.92 32.4315 1791.97 32.4315 M1791.97 26.1121 Q1801.69 26.1121 1807.24 32.4315 Q1812.79 38.7509 1812.79 49.9314 Q1812.79 61.0714 1807.24 67.4314 Q1801.69 73.7508 1791.97 73.7508 Q1782.2 73.7508 1776.65 67.4314 Q1771.14 61.0714 1771.14 49.9314 Q1771.14 38.7509 1776.65 32.4315 Q1782.2 26.1121 1791.97 26.1121 Z" fill="#000000" fill-rule="nonzero" fill-opacity="1" /><path clip-path="url(#clip150)" d="M1862.86 45.1919 L1862.86 72.576 L1855.4 72.576 L1855.4 45.4349 Q1855.4 38.994 1852.89 35.7938 Q1850.38 32.5936 1845.36 32.5936 Q1839.32 32.5936 1835.84 36.4419 Q1832.35 40.2903 1832.35 46.9338 L1832.35 72.576 L1824.86 72.576 L1824.86 27.2059 L1832.35 27.2059 L1832.35 34.2544 Q1835.03 30.163 1838.63 28.1376 Q1842.28 26.1121 1847.02 26.1121 Q1854.84 26.1121 1858.85 30.9732 Q1862.86 35.7938 1862.86 45.1919 Z" fill="#000000" fill-rule="nonzero" fill-opacity="1" /><path clip-path="url(#clip150)" d="M1922 9.62495 Q1916.57 18.942 1913.94 28.0566 Q1911.31 37.1711 1911.31 46.5287 Q1911.31 55.8863 1913.94 65.0818 Q1916.61 74.2369 1922 83.5134 L1915.52 83.5134 Q1909.44 73.9938 1906.4 64.7983 Q1903.41 55.6027 1903.41 46.5287 Q1903.41 37.4952 1906.4 28.3401 Q1909.4 19.1851 1915.52 9.62495 L1922 9.62495 Z" fill="#000000" fill-rule="nonzero" fill-opacity="1" /><path clip-path="url(#clip150)" d="M1971.79 35.9153 Q1974.58 30.8922 1978.47 28.5022 Q1982.36 26.1121 1987.62 26.1121 Q1994.71 26.1121 1998.56 31.0947 Q2002.41 36.0368 2002.41 45.1919 L2002.41 72.576 L1994.92 72.576 L1994.92 45.4349 Q1994.92 38.913 1992.61 35.7533 Q1990.3 32.5936 1985.56 32.5936 Q1979.77 32.5936 1976.4 36.4419 Q1973.04 40.2903 1973.04 46.9338 L1973.04 72.576 L1965.55 72.576 L1965.55 45.4349 Q1965.55 38.8725 1963.24 35.7533 Q1960.93 32.5936 1956.11 32.5936 Q1950.4 32.5936 1947.03 36.4824 Q1943.67 40.3308 1943.67 46.9338 L1943.67 72.576 L1936.18 72.576 L1936.18 27.2059 L1943.67 27.2059 L1943.67 34.2544 Q1946.22 30.082 1949.79 28.0971 Q1953.35 26.1121 1958.26 26.1121 Q1963.2 26.1121 1966.64 28.6237 Q1970.12 31.1352 1971.79 35.9153 Z" fill="#000000" fill-rule="nonzero" fill-opacity="1" /><path clip-path="url(#clip150)" d="M2056.08 48.0275 L2056.08 51.6733 L2021.81 51.6733 Q2022.3 59.3701 2026.43 63.421 Q2030.6 67.4314 2038.02 67.4314 Q2042.31 67.4314 2046.32 66.3781 Q2050.37 65.3249 2054.34 63.2184 L2054.34 70.267 Q2050.33 71.9684 2046.12 72.8596 Q2041.91 73.7508 2037.57 73.7508 Q2026.72 73.7508 2020.36 67.4314 Q2014.04 61.1119 2014.04 50.3365 Q2014.04 39.1965 2020.03 32.6746 Q2026.07 26.1121 2036.28 26.1121 Q2045.43 26.1121 2050.74 32.0264 Q2056.08 37.9003 2056.08 48.0275 M2048.63 45.84 Q2048.55 39.7232 2045.19 36.0774 Q2041.87 32.4315 2036.36 32.4315 Q2030.12 32.4315 2026.35 35.9558 Q2022.62 39.4801 2022.06 45.8805 L2048.63 45.84 Z" fill="#000000" fill-rule="nonzero" fill-opacity="1" /><path clip-path="url(#clip150)" d="M2088.94 49.7694 Q2079.9 49.7694 2076.42 51.8354 Q2072.94 53.9013 2072.94 58.8839 Q2072.94 62.8538 2075.53 65.2034 Q2078.16 67.5124 2082.66 67.5124 Q2088.86 67.5124 2092.58 63.1374 Q2096.35 58.7219 2096.35 51.4303 L2096.35 49.7694 L2088.94 49.7694 M2103.8 46.6907 L2103.8 72.576 L2096.35 72.576 L2096.35 65.6895 Q2093.8 69.8214 2089.99 71.8063 Q2086.18 73.7508 2080.67 73.7508 Q2073.71 73.7508 2069.57 69.8619 Q2065.48 65.9325 2065.48 59.3701 Q2065.48 51.7138 2070.59 47.825 Q2075.73 43.9361 2085.9 43.9361 L2096.35 43.9361 L2096.35 43.2069 Q2096.35 38.0623 2092.95 35.2672 Q2089.59 32.4315 2083.47 32.4315 Q2079.58 32.4315 2075.89 33.3632 Q2072.21 34.295 2068.8 36.1584 L2068.8 29.2718 Q2072.9 27.692 2076.74 26.9223 Q2080.59 26.1121 2084.24 26.1121 Q2094.08 26.1121 2098.94 31.2163 Q2103.8 36.3204 2103.8 46.6907 Z" fill="#000000" fill-rule="nonzero" fill-opacity="1" /><path clip-path="url(#clip150)" d="M2156.87 45.1919 L2156.87 72.576 L2149.42 72.576 L2149.42 45.4349 Q2149.42 38.994 2146.91 35.7938 Q2144.39 32.5936 2139.37 32.5936 Q2133.34 32.5936 2129.85 36.4419 Q2126.37 40.2903 2126.37 46.9338 L2126.37 72.576 L2118.87 72.576 L2118.87 27.2059 L2126.37 27.2059 L2126.37 34.2544 Q2129.04 30.163 2132.65 28.1376 Q2136.29 26.1121 2141.03 26.1121 Q2148.85 26.1121 2152.86 30.9732 Q2156.87 35.7938 2156.87 45.1919 Z" fill="#000000" fill-rule="nonzero" fill-opacity="1" /><path clip-path="url(#clip150)" d="M2218.73 49.7694 Q2209.7 49.7694 2206.21 51.8354 Q2202.73 53.9013 2202.73 58.8839 Q2202.73 62.8538 2205.32 65.2034 Q2207.95 67.5124 2212.45 67.5124 Q2218.65 67.5124 2222.37 63.1374 Q2226.14 58.7219 2226.14 51.4303 L2226.14 49.7694 L2218.73 49.7694 M2233.6 46.6907 L2233.6 72.576 L2226.14 72.576 L2226.14 65.6895 Q2223.59 69.8214 2219.78 71.8063 Q2215.97 73.7508 2210.46 73.7508 Q2203.5 73.7508 2199.37 69.8619 Q2195.27 65.9325 2195.27 59.3701 Q2195.27 51.7138 2200.38 47.825 Q2205.52 43.9361 2215.69 43.9361 L2226.14 43.9361 L2226.14 43.2069 Q2226.14 38.0623 2222.74 35.2672 Q2219.38 32.4315 2213.26 32.4315 Q2209.37 32.4315 2205.68 33.3632 Q2202 34.295 2198.6 36.1584 L2198.6 29.2718 Q2202.69 27.692 2206.54 26.9223 Q2210.38 26.1121 2214.03 26.1121 Q2223.87 26.1121 2228.73 31.2163 Q2233.6 36.3204 2233.6 46.6907 Z" fill="#000000" fill-rule="nonzero" fill-opacity="1" /><path clip-path="url(#clip150)" d="M2281.6 28.9478 L2281.6 35.9153 Q2278.44 34.1734 2275.24 33.3227 Q2272.08 32.4315 2268.84 32.4315 Q2261.59 32.4315 2257.58 37.0496 Q2253.57 41.6271 2253.57 49.9314 Q2253.57 58.2358 2257.58 62.8538 Q2261.59 67.4314 2268.84 67.4314 Q2272.08 67.4314 2275.24 66.5807 Q2278.44 65.6895 2281.6 63.9476 L2281.6 70.8341 Q2278.48 72.2924 2275.12 73.0216 Q2271.8 73.7508 2268.03 73.7508 Q2257.78 73.7508 2251.74 67.3098 Q2245.71 60.8689 2245.71 49.9314 Q2245.71 38.832 2251.78 32.472 Q2257.9 26.1121 2268.51 26.1121 Q2271.96 26.1121 2275.24 26.8413 Q2278.52 27.5299 2281.6 28.9478 Z" fill="#000000" fill-rule="nonzero" fill-opacity="1" /><path clip-path="url(#clip150)" d="M2320.85 34.1734 Q2319.6 33.4443 2318.1 33.1202 Q2316.64 32.7556 2314.86 32.7556 Q2308.54 32.7556 2305.13 36.8875 Q2301.77 40.9789 2301.77 48.6757 L2301.77 72.576 L2294.28 72.576 L2294.28 27.2059 L2301.77 27.2059 L2301.77 34.2544 Q2304.12 30.1225 2307.89 28.1376 Q2311.66 26.1121 2317.04 26.1121 Q2317.81 26.1121 2318.75 26.2337 Q2319.68 26.3147 2320.81 26.5172 L2320.85 34.1734 Z" fill="#000000" fill-rule="nonzero" fill-opacity="1" /><path clip-path="url(#clip150)" d="M2344.43 32.4315 Q2338.43 32.4315 2334.95 37.1306 Q2331.47 41.7891 2331.47 49.9314 Q2331.47 58.0738 2334.91 62.7728 Q2338.39 67.4314 2344.43 67.4314 Q2350.38 67.4314 2353.87 62.7323 Q2357.35 58.0333 2357.35 49.9314 Q2357.35 41.8701 2353.87 37.1711 Q2350.38 32.4315 2344.43 32.4315 M2344.43 26.1121 Q2354.15 26.1121 2359.7 32.4315 Q2365.25 38.7509 2365.25 49.9314 Q2365.25 61.0714 2359.7 67.4314 Q2354.15 73.7508 2344.43 73.7508 Q2334.67 73.7508 2329.12 67.4314 Q2323.61 61.0714 2323.61 49.9314 Q2323.61 38.7509 2329.12 32.4315 Q2334.67 26.1121 2344.43 26.1121 Z" fill="#000000" fill-rule="nonzero" fill-opacity="1" /><path clip-path="url(#clip150)" d="M2406.53 28.5427 L2406.53 35.5912 Q2403.37 33.9709 2399.97 33.1607 Q2396.56 32.3505 2392.92 32.3505 Q2387.37 32.3505 2384.57 34.0519 Q2381.82 35.7533 2381.82 39.156 Q2381.82 41.7486 2383.8 43.2475 Q2385.79 44.7058 2391.78 46.0426 L2394.34 46.6097 Q2402.28 48.3111 2405.6 51.4303 Q2408.96 54.509 2408.96 60.0587 Q2408.96 66.3781 2403.94 70.0644 Q2398.95 73.7508 2390.2 73.7508 Q2386.56 73.7508 2382.59 73.0216 Q2378.66 72.3329 2374.28 70.9151 L2374.28 63.2184 Q2378.42 65.3654 2382.43 66.4591 Q2386.44 67.5124 2390.37 67.5124 Q2395.63 67.5124 2398.47 65.73 Q2401.3 63.9071 2401.3 60.6258 Q2401.3 57.5877 2399.24 55.9673 Q2397.21 54.3469 2390.28 52.8481 L2387.69 52.2405 Q2380.76 50.7821 2377.69 47.7845 Q2374.61 44.7463 2374.61 39.4801 Q2374.61 33.0797 2379.14 29.5959 Q2383.68 26.1121 2392.03 26.1121 Q2396.16 26.1121 2399.8 26.7198 Q2403.45 27.3274 2406.53 28.5427 Z" fill="#000000" fill-rule="nonzero" fill-opacity="1" /><path clip-path="url(#clip150)" d="M2449.75 28.5427 L2449.75 35.5912 Q2446.59 33.9709 2443.19 33.1607 Q2439.79 32.3505 2436.14 32.3505 Q2430.59 32.3505 2427.8 34.0519 Q2425.04 35.7533 2425.04 39.156 Q2425.04 41.7486 2427.03 43.2475 Q2429.01 44.7058 2435.01 46.0426 L2437.56 46.6097 Q2445.5 48.3111 2448.82 51.4303 Q2452.18 54.509 2452.18 60.0587 Q2452.18 66.3781 2447.16 70.0644 Q2442.18 73.7508 2433.43 73.7508 Q2429.78 73.7508 2425.81 73.0216 Q2421.88 72.3329 2417.51 70.9151 L2417.51 63.2184 Q2421.64 65.3654 2425.65 66.4591 Q2429.66 67.5124 2433.59 67.5124 Q2438.85 67.5124 2441.69 65.73 Q2444.53 63.9071 2444.53 60.6258 Q2444.53 57.5877 2442.46 55.9673 Q2440.43 54.3469 2433.51 52.8481 L2430.92 52.2405 Q2423.99 50.7821 2420.91 47.7845 Q2417.83 44.7463 2417.83 39.4801 Q2417.83 33.0797 2422.37 29.5959 Q2426.9 26.1121 2435.25 26.1121 Q2439.38 26.1121 2443.03 26.7198 Q2446.67 27.3274 2449.75 28.5427 Z" fill="#000000" fill-rule="nonzero" fill-opacity="1" /><path clip-path="url(#clip150)" d="M2497.63 65.7705 L2497.63 89.8329 L2490.14 89.8329 L2490.14 27.2059 L2497.63 27.2059 L2497.63 34.0924 Q2499.98 30.0415 2503.55 28.0971 Q2507.15 26.1121 2512.14 26.1121 Q2520.4 26.1121 2525.54 32.6746 Q2530.73 39.2371 2530.73 49.9314 Q2530.73 60.6258 2525.54 67.1883 Q2520.4 73.7508 2512.14 73.7508 Q2507.15 73.7508 2503.55 71.8063 Q2499.98 69.8214 2497.63 65.7705 M2522.99 49.9314 Q2522.99 41.7081 2519.59 37.0496 Q2516.23 32.3505 2510.31 32.3505 Q2504.4 32.3505 2501 37.0496 Q2497.63 41.7081 2497.63 49.9314 Q2497.63 58.1548 2501 62.8538 Q2504.4 67.5124 2510.31 67.5124 Q2516.23 67.5124 2519.59 62.8538 Q2522.99 58.1548 2522.99 49.9314 Z" fill="#000000" fill-rule="nonzero" fill-opacity="1" /><path clip-path="url(#clip150)" d="M2563.7 49.7694 Q2554.67 49.7694 2551.19 51.8354 Q2547.7 53.9013 2547.7 58.8839 Q2547.7 62.8538 2550.3 65.2034 Q2552.93 67.5124 2557.42 67.5124 Q2563.62 67.5124 2567.35 63.1374 Q2571.12 58.7219 2571.12 51.4303 L2571.12 49.7694 L2563.7 49.7694 M2578.57 46.6907 L2578.57 72.576 L2571.12 72.576 L2571.12 65.6895 Q2568.56 69.8214 2564.76 71.8063 Q2560.95 73.7508 2555.44 73.7508 Q2548.47 73.7508 2544.34 69.8619 Q2540.25 65.9325 2540.25 59.3701 Q2540.25 51.7138 2545.35 47.825 Q2550.5 43.9361 2560.67 43.9361 L2571.12 43.9361 L2571.12 43.2069 Q2571.12 38.0623 2567.71 35.2672 Q2564.35 32.4315 2558.24 32.4315 Q2554.35 32.4315 2550.66 33.3632 Q2546.97 34.295 2543.57 36.1584 L2543.57 29.2718 Q2547.66 27.692 2551.51 26.9223 Q2555.36 26.1121 2559 26.1121 Q2568.85 26.1121 2573.71 31.2163 Q2578.57 36.3204 2578.57 46.6907 Z" fill="#000000" fill-rule="nonzero" fill-opacity="1" /><path clip-path="url(#clip150)" d="M2620.21 34.1734 Q2618.96 33.4443 2617.46 33.1202 Q2616 32.7556 2614.22 32.7556 Q2607.9 32.7556 2604.5 36.8875 Q2601.13 40.9789 2601.13 48.6757 L2601.13 72.576 L2593.64 72.576 L2593.64 27.2059 L2601.13 27.2059 L2601.13 34.2544 Q2603.48 30.1225 2607.25 28.1376 Q2611.02 26.1121 2616.41 26.1121 Q2617.18 26.1121 2618.11 26.2337 Q2619.04 26.3147 2620.17 26.5172 L2620.21 34.1734 Z" fill="#000000" fill-rule="nonzero" fill-opacity="1" /><path clip-path="url(#clip150)" d="M2635.4 14.324 L2635.4 27.2059 L2650.76 27.2059 L2650.76 32.9987 L2635.4 32.9987 L2635.4 57.6282 Q2635.4 63.1779 2636.9 64.7578 Q2638.44 66.3376 2643.1 66.3376 L2650.76 66.3376 L2650.76 72.576 L2643.1 72.576 Q2634.47 72.576 2631.19 69.3758 Q2627.91 66.1351 2627.91 57.6282 L2627.91 32.9987 L2622.44 32.9987 L2622.44 27.2059 L2627.91 27.2059 L2627.91 14.324 L2635.4 14.324 Z" fill="#000000" fill-rule="nonzero" fill-opacity="1" /><path clip-path="url(#clip150)" d="M2660.56 27.2059 L2668.01 27.2059 L2668.01 72.576 L2660.56 72.576 L2660.56 27.2059 M2660.56 9.54393 L2668.01 9.54393 L2668.01 18.9825 L2660.56 18.9825 L2660.56 9.54393 Z" fill="#000000" fill-rule="nonzero" fill-opacity="1" /><path clip-path="url(#clip150)" d="M2716.26 28.9478 L2716.26 35.9153 Q2713.1 34.1734 2709.9 33.3227 Q2706.74 32.4315 2703.5 32.4315 Q2696.25 32.4315 2692.24 37.0496 Q2688.23 41.6271 2688.23 49.9314 Q2688.23 58.2358 2692.24 62.8538 Q2696.25 67.4314 2703.5 67.4314 Q2706.74 67.4314 2709.9 66.5807 Q2713.1 65.6895 2716.26 63.9476 L2716.26 70.8341 Q2713.14 72.2924 2709.78 73.0216 Q2706.46 73.7508 2702.69 73.7508 Q2692.44 73.7508 2686.41 67.3098 Q2680.37 60.8689 2680.37 49.9314 Q2680.37 38.832 2686.45 32.472 Q2692.56 26.1121 2703.18 26.1121 Q2706.62 26.1121 2709.9 26.8413 Q2713.18 27.5299 2716.26 28.9478 Z" fill="#000000" fill-rule="nonzero" fill-opacity="1" /><path clip-path="url(#clip150)" d="M2729.22 9.54393 L2736.68 9.54393 L2736.68 72.576 L2729.22 72.576 L2729.22 9.54393 Z" fill="#000000" fill-rule="nonzero" fill-opacity="1" /><path clip-path="url(#clip150)" d="M2791.08 48.0275 L2791.08 51.6733 L2756.81 51.6733 Q2757.3 59.3701 2761.43 63.421 Q2765.6 67.4314 2773.01 67.4314 Q2777.31 67.4314 2781.32 66.3781 Q2785.37 65.3249 2789.34 63.2184 L2789.34 70.267 Q2785.33 71.9684 2781.12 72.8596 Q2776.9 73.7508 2772.57 73.7508 Q2761.71 73.7508 2755.35 67.4314 Q2749.03 61.1119 2749.03 50.3365 Q2749.03 39.1965 2755.03 32.6746 Q2761.06 26.1121 2771.27 26.1121 Q2780.43 26.1121 2785.73 32.0264 Q2791.08 37.9003 2791.08 48.0275 M2783.63 45.84 Q2783.55 39.7232 2780.18 36.0774 Q2776.86 32.4315 2771.35 32.4315 Q2765.11 32.4315 2761.35 35.9558 Q2757.62 39.4801 2757.05 45.8805 L2783.63 45.84 Z" fill="#000000" fill-rule="nonzero" fill-opacity="1" /><path clip-path="url(#clip150)" d="M2832.24 28.5427 L2832.24 35.5912 Q2829.08 33.9709 2825.68 33.1607 Q2822.27 32.3505 2818.63 32.3505 Q2813.08 32.3505 2810.28 34.0519 Q2807.53 35.7533 2807.53 39.156 Q2807.53 41.7486 2809.51 43.2475 Q2811.5 44.7058 2817.49 46.0426 L2820.04 46.6097 Q2827.98 48.3111 2831.31 51.4303 Q2834.67 54.509 2834.67 60.0587 Q2834.67 66.3781 2829.65 70.0644 Q2824.66 73.7508 2815.91 73.7508 Q2812.27 73.7508 2808.3 73.0216 Q2804.37 72.3329 2799.99 70.9151 L2799.99 63.2184 Q2804.12 65.3654 2808.14 66.4591 Q2812.15 67.5124 2816.08 67.5124 Q2821.34 67.5124 2824.18 65.73 Q2827.01 63.9071 2827.01 60.6258 Q2827.01 57.5877 2824.95 55.9673 Q2822.92 54.3469 2815.99 52.8481 L2813.4 52.2405 Q2806.47 50.7821 2803.4 47.7845 Q2800.32 44.7463 2800.32 39.4801 Q2800.32 33.0797 2804.85 29.5959 Q2809.39 26.1121 2817.74 26.1121 Q2821.87 26.1121 2825.51 26.7198 Q2829.16 27.3274 2832.24 28.5427 Z" fill="#000000" fill-rule="nonzero" fill-opacity="1" /><path clip-path="url(#clip150)" d="M2845.36 9.62495 L2851.84 9.62495 Q2857.92 19.1851 2860.92 28.3401 Q2863.96 37.4952 2863.96 46.5287 Q2863.96 55.6027 2860.92 64.7983 Q2857.92 73.9938 2851.84 83.5134 L2845.36 83.5134 Q2850.75 74.2369 2853.38 65.0818 Q2856.06 55.8863 2856.06 46.5287 Q2856.06 37.1711 2853.38 28.0566 Q2850.75 18.942 2845.36 9.62495 Z" fill="#000000" fill-rule="nonzero" fill-opacity="1" /><polyline clip-path="url(#clip151)" style="stroke:#8b0000; stroke-linecap:round; stroke-linejoin:round; stroke-width:6; stroke-opacity:1; fill:none" points="335.45,1226.28 337.162,1226.32 338.873,1226.35 340.585,1226.34 342.296,1226.33 344.008,1226.31 345.719,1226.29 347.431,1226.26 349.142,1226.22 350.854,1226.2 352.566,1226.15 354.277,1226.1 355.989,1226.04 357.7,1226.01 359.412,1225.92 361.123,1225.83 362.835,1225.73 364.547,1225.65 366.258,1225.52 367.97,1225.41 369.681,1225.22 371.393,1225.06 373.104,1224.85 374.816,1224.66 376.527,1224.42 378.239,1224.1 379.951,1223.77 381.662,1223.36 383.374,1222.93 385.085,1222.39 386.797,1221.74 388.508,1221.04 390.22,1220.26 391.931,1219.39 393.643,1218.29 395.355,1217.05 397.066,1215.71 398.778,1214.03 400.489,1212.25 402.201,1209.94 403.912,1207.47 405.624,1204.65 407.336,1201.29 409.047,1197.54 410.759,1193.14 412.47,1187.98 414.182,1182.08 415.893,1175.42 417.605,1167.51 419.316,1158.56 421.028,1148.14 422.74,1136.2 424.451,1122.4 426.163,1106.2 427.874,1087.63 429.586,1065.82 431.297,1040.55 433.009,1011.21 434.72,977.441 436.432,939.342 438.144,895.273 439.855,845.862 441.567,790.55 443.278,728.178 444.99,660.789 446.701,587.612 448.413,510.206 450.125,431.445 451.836,353.894 453.548,281.488 455.259,221.58 456.971,173.907 458.682,142.72 460.394,131.134 462.105,136.632 463.817,159.227 465.529,196.028 467.24,245.996 468.952,302.87 470.663,365.049 472.375,429.13 474.086,494.721 475.798,558.44 477.509,620.072 479.221,677.962 480.933,732.677 482.644,783.287 484.356,830.048 486.067,872.625 487.779,911.605 489.49,946.677 491.202,978.497 492.914,1007.51 494.625,1033.28 496.337,1056.52 498.048,1076.99 499.76,1095.01 501.471,1110.98 503.183,1125.03 504.894,1137.49 506.606,1148.62 508.318,1158.38 510.029,1166.96 511.741,1174.35 513.452,1180.78 515.164,1186.64 516.875,1191.64 518.587,1196 520.299,1199.84 522.01,1203.34 523.722,1206.36 525.433,1208.93 527.145,1211.2 528.856,1213.11 530.568,1214.83 532.279,1216.36 533.991,1217.65 535.703,1218.76 537.414,1219.71 539.126,1220.64 540.837,1221.41 542.549,1222.05 544.26,1222.61 545.972,1223.06 547.683,1223.53 549.395,1223.91 551.107,1224.22 552.818,1224.51 554.53,1224.72 556.241,1224.94 557.953,1225.12 559.664,1225.28 561.376,1225.4 563.088,1225.51 564.799,1225.62 566.511,1225.7 568.222,1225.77 569.934,1225.84 571.645,1225.89 573.357,1225.92 575.068,1225.96 576.78,1226 578.492,1226.03 580.203,1226.05 581.915,1226.07 583.626,1226.09 585.338,1226.11 587.049,1226.11 588.761,1226.12 590.472,1226.13 592.184,1226.13 593.896,1226.14 595.607,1226.16 597.319,1226.17 599.03,1226.18 600.742,1226.19 602.453,1226.19 604.165,1226.2 605.877,1226.21 607.588,1226.22 609.3,1226.22 611.011,1226.23 612.723,1226.23 614.434,1226.24 616.146,1226.24 617.857,1226.24 619.569,1226.25 621.281,1226.26 622.992,1226.26 624.704,1226.26 626.415,1226.26 628.127,1226.27 629.838,1226.27 631.55,1226.28 633.262,1226.28 634.973,1226.29 636.685,1226.29 638.396,1226.29 640.108,1226.3 641.819,1226.3 643.531,1226.3 645.242,1226.31 646.954,1226.31 648.666,1226.32 650.377,1226.33 652.089,1226.33 653.8,1226.34 655.512,1226.35 657.223,1226.35 658.935,1226.36 660.646,1226.36 662.358,1226.37 664.07,1226.37 665.781,1226.38 667.493,1226.38 669.204,1226.39 670.916,1226.39 672.627,1226.4 674.339,1226.4 676.051,1226.41 677.762,1226.41 679.474,1226.42 681.185,1226.42 682.897,1226.43 684.608,1226.43 686.32,1226.44 688.031,1226.44 689.743,1226.45 691.455,1226.45 693.166,1226.46 694.878,1226.47 696.589,1226.47 698.301,1226.47 700.012,1226.47 701.724,1226.48 703.435,1226.48 705.147,1226.48 706.859,1226.48 708.57,1226.48 710.282,1226.48 711.993,1226.48 713.705,1226.49 715.416,1226.49 717.128,1226.49 718.84,1226.49 720.551,1226.49 722.263,1226.5 723.974,1226.5 725.686,1226.5 727.397,1226.5 729.109,1226.5 730.82,1226.5 732.532,1226.5 734.244,1226.51 735.955,1226.51 737.667,1226.51 739.378,1226.51 741.09,1226.51 742.801,1226.51 744.513,1226.52 746.225,1226.52 747.936,1226.52 749.648,1226.52 751.359,1226.52 753.071,1226.52 754.782,1226.52 756.494,1226.52 758.205,1226.52 759.917,1226.52 761.629,1226.52 763.34,1226.52 765.052,1226.52 766.763,1226.52 768.475,1226.52 770.186,1226.52 771.898,1226.52 773.609,1226.52 775.321,1226.52 777.033,1226.52 778.744,1226.52 780.456,1226.52 782.167,1226.52 783.879,1226.52 785.59,1226.52 787.302,1226.52 789.014,1226.52 790.725,1226.52 792.437,1226.52 794.148,1226.52 795.86,1226.52 797.571,1226.52 799.283,1226.52 800.994,1226.52 802.706,1226.52 804.418,1226.52 806.129,1226.52 807.841,1226.52 809.552,1226.52 811.264,1226.52 812.975,1226.52 814.687,1226.52 816.398,1226.52 818.11,1226.52 819.822,1226.52 821.533,1226.52 823.245,1226.52 824.956,1226.52 826.668,1226.52 828.379,1226.52 830.091,1226.52 831.803,1226.52 833.514,1226.52 835.226,1226.52 836.937,1226.52 838.649,1226.52 840.36,1226.52 842.072,1226.52 843.783,1226.52 845.495,1226.52 847.207,1226.52 848.918,1226.52 850.63,1226.52 852.341,1226.52 854.053,1226.52 855.764,1226.52 857.476,1226.52 859.187,1226.52 860.899,1226.52 862.611,1226.52 864.322,1226.52 866.034,1226.52 867.745,1226.52 869.457,1226.52 871.168,1226.52 872.88,1226.52 874.592,1226.52 876.303,1226.52 878.015,1226.52 879.726,1226.52 881.438,1226.52 883.149,1226.52 884.861,1226.52 886.572,1226.52 888.284,1226.52 889.996,1226.52 891.707,1226.52 893.419,1226.52 895.13,1226.52 896.842,1226.52 898.553,1226.52 900.265,1226.52 901.977,1226.52 903.688,1226.52 905.4,1226.52 907.111,1226.52 908.823,1226.52 910.534,1226.52 912.246,1226.52 913.957,1226.52 915.669,1226.52 917.381,1226.52 919.092,1226.52 920.804,1226.52 922.515,1226.52 924.227,1226.52 925.938,1226.52 927.65,1226.52 929.361,1226.52 931.073,1226.52 932.785,1226.52 934.496,1226.52 936.208,1226.52 937.919,1226.52 939.631,1226.52 941.342,1226.52 943.054,1226.52 944.766,1226.52 946.477,1226.52 948.189,1226.52 949.9,1226.52 951.612,1226.52 953.323,1226.52 955.035,1226.52 956.746,1226.52 958.458,1226.52 960.17,1226.52 961.881,1226.52 963.593,1226.52 965.304,1226.52 967.016,1226.52 968.727,1226.52 970.439,1226.52 972.15,1226.52 973.862,1226.52 975.574,1226.52 977.285,1226.52 978.997,1226.52 980.708,1226.52 982.42,1226.52 984.131,1226.52 985.843,1226.52 987.555,1226.52 989.266,1226.52 990.978,1226.52 992.689,1226.52 994.401,1226.52 996.112,1226.52 997.824,1226.52 999.535,1226.52 1001.25,1226.52 1002.96,1226.52 1004.67,1226.52 1006.38,1226.52 1008.09,1226.52 1009.8,1226.52 1011.52,1226.52 1013.23,1226.52 1014.94,1226.52 1016.65,1226.52 1018.36,1226.52 1020.07,1226.52 1021.79,1226.52 1023.5,1226.52 1025.21,1226.52 1026.92,1226.52 1028.63,1226.52 1030.34,1226.52 1032.06,1226.52 1033.77,1226.52 1035.48,1226.52 1037.19,1226.52 1038.9,1226.52 1040.61,1226.52 1042.32,1226.52 1044.04,1226.52 1045.75,1226.52 1047.46,1226.52 1049.17,1226.52 1050.88,1226.52 1052.59,1226.52 1054.31,1226.52 1056.02,1226.52 1057.73,1226.52 1059.44,1226.52 1061.15,1226.52 1062.86,1226.52 1064.57,1226.51 1066.29,1226.51 1068,1226.51 1069.71,1226.51 1071.42,1226.51 1073.13,1226.51 1074.84,1226.51 1076.56,1226.51 1078.27,1226.51 1079.98,1226.51 1081.69,1226.51 1083.4,1226.51 1085.11,1226.51 1086.83,1226.5 1088.54,1226.5 1090.25,1226.5 1091.96,1226.5 1093.67,1226.5 1095.38,1226.5 1097.09,1226.5 1098.81,1226.5 1100.52,1226.5 1102.23,1226.5 1103.94,1226.5 1105.65,1226.5 1107.36,1226.49 1109.08,1226.49 1110.79,1226.49 1112.5,1226.48 1114.21,1226.48 1115.92,1226.47 1117.63,1226.47 1119.34,1226.46 1121.06,1226.46 1122.77,1226.45 1124.48,1226.45 1126.19,1226.45 1127.9,1226.44 1129.61,1226.44 1131.33,1226.43 1133.04,1226.42 1134.75,1226.42 1136.46,1226.42 1138.17,1226.41 1139.88,1226.41 1141.59,1226.4 1143.31,1226.4 1145.02,1226.39 1146.73,1226.39 1148.44,1226.39 1150.15,1226.38 1151.86,1226.37 1153.58,1226.37 1155.29,1226.37 1157,1226.36 1158.71,1226.36 1160.42,1226.35 1162.13,1226.35 1163.85,1226.34 1165.56,1226.34 1167.27,1226.33 1168.98,1226.33 1170.69,1226.32 1172.4,1226.32 1174.11,1226.32 1175.83,1226.31 1177.54,1226.3 1179.25,1226.3 1180.96,1226.29 1182.67,1226.29 1184.38,1226.28 1186.1,1226.28 1187.81,1226.28 1189.52,1226.27 1191.23,1226.27 1192.94,1226.26 1194.65,1226.26 1196.36,1226.26 1198.08,1226.25 1199.79,1226.25 1201.5,1226.24 1203.21,1226.24 1204.92,1226.23 1206.63,1226.23 1208.35,1226.22 1210.06,1226.22 1211.77,1226.22 1213.48,1226.22 1215.19,1226.23 1216.9,1226.23 1218.62,1226.23 1220.33,1226.23 1222.04,1226.24 1223.75,1226.24 1225.46,1226.24 1227.17,1226.24 1228.88,1226.24 1230.6,1226.25 1232.31,1226.25 1234.02,1226.25 1235.73,1226.25 1237.44,1226.25 1239.15,1226.26 1240.87,1226.26 1242.58,1226.25 1244.29,1226.26 1246,1226.26 1247.71,1226.26 1249.42,1226.26 1251.13,1226.27 1252.85,1226.27 1254.56,1226.27 1256.27,1226.27 1257.98,1226.28 1259.69,1226.28 1261.4,1226.29 1263.12,1226.29 1264.83,1226.3 1266.54,1226.3 1268.25,1226.31 1269.96,1226.31 1271.67,1226.32 1273.39,1226.32 1275.1,1226.33 1276.81,1226.33 1278.52,1226.34 1280.23,1226.34 1281.94,1226.35 1283.65,1226.35 1285.37,1226.36 1287.08,1226.37 1288.79,1226.37 1290.5,1226.38 1292.21,1226.38 1293.92,1226.39 1295.64,1226.4 1297.35,1226.4 1299.06,1226.41 1300.77,1226.41 1302.48,1226.42 1304.19,1226.42 1305.9,1226.43 1307.62,1226.44 1309.33,1226.44 1311.04,1226.45 1312.75,1226.45 1314.46,1226.45 1316.17,1226.45 1317.89,1226.46 1319.6,1226.46 1321.31,1226.46 1323.02,1226.46 1324.73,1226.46 1326.44,1226.47 1328.16,1226.47 1329.87,1226.47 1331.58,1226.47 1333.29,1226.48 1335,1226.48 1336.71,1226.48 1338.42,1226.48 1340.14,1226.49 1341.85,1226.49 1343.56,1226.49 1345.27,1226.49 1346.98,1226.49 1348.69,1226.5 1350.41,1226.5 1352.12,1226.5 1353.83,1226.5 1355.54,1226.51 1357.25,1226.51 1358.96,1226.51 1360.67,1226.51 1362.39,1226.52 1364.1,1226.52 1365.81,1226.52 1367.52,1226.52 1369.23,1226.52 1370.94,1226.52 1372.66,1226.52 1374.37,1226.52 1376.08,1226.52 1377.79,1226.52 1379.5,1226.52 1381.21,1226.52 1382.93,1226.52 1384.64,1226.52 1386.35,1226.52 1388.06,1226.52 1389.77,1226.52 1391.48,1226.52 1393.19,1226.52 1394.91,1226.52 1396.62,1226.52 1398.33,1226.52 1400.04,1226.52 1401.75,1226.52 1403.46,1226.52 1405.18,1226.52 1406.89,1226.52 1408.6,1226.52 1410.31,1226.52 1412.02,1226.52 1413.73,1226.52 1415.44,1226.52 1417.16,1226.52 1418.87,1226.52 1420.58,1226.52 1422.29,1226.52 1424,1226.52 1425.71,1226.52 1427.43,1226.52 1429.14,1226.52 1430.85,1226.52 1432.56,1226.52 1434.27,1226.52 1435.98,1226.52 1437.69,1226.52 1439.41,1226.52 1441.12,1226.52 1442.83,1226.52 1444.54,1226.52 1446.25,1226.52 1447.96,1226.52 1449.68,1226.52 1451.39,1226.52 1453.1,1226.52 1454.81,1226.52 1456.52,1226.52 1458.23,1226.52 1459.95,1226.52 1461.66,1226.52 1463.37,1226.52 1465.08,1226.52 1466.79,1226.52 1468.5,1226.52 1470.21,1226.52 1471.93,1226.52 1473.64,1226.52 1475.35,1226.52 1477.06,1226.52 1478.77,1226.52 1480.48,1226.52 1482.2,1226.52 1483.91,1226.52 1485.62,1226.52 1487.33,1226.52 1489.04,1226.52 1490.75,1226.52 1492.46,1226.52 1494.18,1226.52 1495.89,1226.52 1497.6,1226.52 1499.31,1226.52 1501.02,1226.52 1502.73,1226.52 1504.45,1226.52 1506.16,1226.52 1507.87,1226.52 1509.58,1226.52 1511.29,1226.52 1513,1226.52 1514.72,1226.52 1516.43,1226.52 1518.14,1226.52 1519.85,1226.52 1521.56,1226.52 1523.27,1226.52 1524.98,1226.52 1526.7,1226.52 1528.41,1226.52 1530.12,1226.52 1531.83,1226.52 1533.54,1226.52 1535.25,1226.52 1536.97,1226.52 1538.68,1226.52 1540.39,1226.52 1542.1,1226.52 1543.81,1226.52 1545.52,1226.52 1547.23,1226.52 1548.95,1226.52 1550.66,1226.52 1552.37,1226.52 1554.08,1226.52 1555.79,1226.52 1557.5,1226.52 1559.22,1226.52 1560.93,1226.52 1562.64,1226.52 1564.35,1226.52 1566.06,1226.52 1567.77,1226.52 1569.49,1226.52 1571.2,1226.52 1572.91,1226.52 1574.62,1226.52 1576.33,1226.52 1578.04,1226.52 1579.75,1226.52 1581.47,1226.52 1583.18,1226.52 1584.89,1226.52 1586.6,1226.52 1588.31,1226.52 1590.02,1226.52 1591.74,1226.52 1593.45,1226.52 1595.16,1226.52 1596.87,1226.52 1598.58,1226.52 1600.29,1226.52 1602,1226.52 1603.72,1226.52 1605.43,1226.52 1607.14,1226.52 1608.85,1226.52 1610.56,1226.52 1612.27,1226.52 1613.99,1226.52 1615.7,1226.52 1617.41,1226.52 1619.12,1226.52 1620.83,1226.52 1622.54,1226.52 1624.26,1226.52 1625.97,1226.52 1627.68,1226.52 1629.39,1226.52 1631.1,1226.52 1632.81,1226.52 1634.52,1226.52 1636.24,1226.52 1637.95,1226.52 1639.66,1226.52 1641.37,1226.52 1643.08,1226.52 1644.79,1226.52 1646.51,1226.52 1648.22,1226.52 1649.93,1226.52 1651.64,1226.52 1653.35,1226.52 1655.06,1226.52 1656.77,1226.52 1658.49,1226.52 1660.2,1226.52 1661.91,1226.52 1663.62,1226.52 1665.33,1226.52 1667.04,1226.52 1668.76,1226.52 1670.47,1226.52 1672.18,1226.52 1673.89,1226.52 1675.6,1226.52 1677.31,1226.52 1679.02,1226.52 1680.74,1226.52 1682.45,1226.51 1684.16,1226.51 1685.87,1226.51 1687.58,1226.51 1689.29,1226.51 1691.01,1226.51 1692.72,1226.51 1694.43,1226.51 1696.14,1226.51 1697.85,1226.51 1699.56,1226.51 1701.28,1226.51 1702.99,1226.51 1704.7,1226.51 1706.41,1226.51 1708.12,1226.51 1709.83,1226.51 1711.54,1226.51 1713.26,1226.51 1714.97,1226.51 1716.68,1226.51 1718.39,1226.51 1720.1,1226.51 1721.81,1226.51 1723.53,1226.5 1725.24,1226.5 1726.95,1226.5 1728.66,1226.49 1730.37,1226.49 1732.08,1226.48 1733.79,1226.48 1735.51,1226.48 1737.22,1226.47 1738.93,1226.47 1740.64,1226.46 1742.35,1226.46 1744.06,1226.46 1745.78,1226.45 1747.49,1226.45 1749.2,1226.45 1750.91,1226.44 1752.62,1226.44 1754.33,1226.43 1756.05,1226.43 1757.76,1226.43 1759.47,1226.42 1761.18,1226.42 1762.89,1226.41 1764.6,1226.41 1766.31,1226.41 1768.03,1226.41 1769.74,1226.4 1771.45,1226.4 1773.16,1226.39 1774.87,1226.39 1776.58,1226.38 1778.3,1226.38 1780.01,1226.37 1781.72,1226.37 1783.43,1226.36 1785.14,1226.35 1786.85,1226.35 1788.56,1226.34 1790.28,1226.34 1791.99,1226.33 1793.7,1226.33 1795.41,1226.32 1797.12,1226.31 1798.83,1226.31 1800.55,1226.31 1802.26,1226.31 1803.97,1226.3 1805.68,1226.29 1807.39,1226.29 1809.1,1226.29 1810.82,1226.28 1812.53,1226.27 1814.24,1226.26 1815.95,1226.26 1817.66,1226.26 1819.37,1226.25 1821.08,1226.25 1822.8,1226.24 1824.51,1226.24 1826.22,1226.24 1827.93,1226.24 1829.64,1226.24 1831.35,1226.24 1833.07,1226.24 1834.78,1226.24 1836.49,1226.24 1838.2,1226.24 1839.91,1226.24 1841.62,1226.24 1843.33,1226.24 1845.05,1226.24 1846.76,1226.24 1848.47,1226.24 1850.18,1226.24 1851.89,1226.25 1853.6,1226.24 1855.32,1226.24 1857.03,1226.25 1858.74,1226.25 1860.45,1226.25 1862.16,1226.25 1863.87,1226.25 1865.59,1226.25 1867.3,1226.25 1869.01,1226.25 1870.72,1226.26 1872.43,1226.26 1874.14,1226.26 1875.85,1226.25 1877.57,1226.26 1879.28,1226.27 1880.99,1226.27 1882.7,1226.28 1884.41,1226.28 1886.12,1226.29 1887.84,1226.3 1889.55,1226.3 1891.26,1226.31 1892.97,1226.31 1894.68,1226.32 1896.39,1226.32 1898.1,1226.33 1899.82,1226.33 1901.53,1226.34 1903.24,1226.35 1904.95,1226.35 1906.66,1226.36 1908.37,1226.36 1910.09,1226.37 1911.8,1226.37 1913.51,1226.38 1915.22,1226.38 1916.93,1226.39 1918.64,1226.39 1920.36,1226.4 1922.07,1226.4 1923.78,1226.41 1925.49,1226.41 1927.2,1226.42 1928.91,1226.42 1930.62,1226.43 1932.34,1226.43 1934.05,1226.44 1935.76,1226.44 1937.47,1226.44 1939.18,1226.44 1940.89,1226.45 1942.61,1226.45 1944.32,1226.45 1946.03,1226.46 1947.74,1226.46 1949.45,1226.46 1951.16,1226.47 1952.87,1226.47 1954.59,1226.47 1956.3,1226.48 1958.01,1226.48 1959.72,1226.48 1961.43,1226.49 1963.14,1226.49 1964.86,1226.49 1966.57,1226.49 1968.28,1226.5 1969.99,1226.5 1971.7,1226.5 1973.41,1226.5 1975.12,1226.51 1976.84,1226.51 1978.55,1226.51 1980.26,1226.51 1981.97,1226.51 1983.68,1226.51 1985.39,1226.51 1987.11,1226.51 1988.82,1226.51 1990.53,1226.51 1992.24,1226.52 1993.95,1226.52 1995.66,1226.52 1997.38,1226.52 1999.09,1226.52 2000.8,1226.52 2002.51,1226.52 2004.22,1226.52 2005.93,1226.52 2007.64,1226.52 2009.36,1226.52 2011.07,1226.52 2012.78,1226.52 2014.49,1226.52 2016.2,1226.52 2017.91,1226.52 2019.63,1226.52 2021.34,1226.52 2023.05,1226.52 2024.76,1226.52 2026.47,1226.52 2028.18,1226.52 2029.89,1226.52 2031.61,1226.52 2033.32,1226.52 2035.03,1226.52 2036.74,1226.52 2038.45,1226.52 2040.16,1226.52 2041.88,1226.52 2043.59,1226.52 2045.3,1226.52 2047.01,1226.52 2048.72,1226.52 2050.43,1226.52 2052.15,1226.52 2053.86,1226.52 2055.57,1226.52 2057.28,1226.52 2058.99,1226.52 2060.7,1226.52 2062.41,1226.52 2064.13,1226.52 2065.84,1226.52 2067.55,1226.52 2069.26,1226.52 2070.97,1226.52 2072.68,1226.52 2074.4,1226.52 2076.11,1226.52 2077.82,1226.52 2079.53,1226.52 2081.24,1226.52 2082.95,1226.52 2084.66,1226.52 2086.38,1226.52 2088.09,1226.52 2089.8,1226.52 2091.51,1226.52 2093.22,1226.52 2094.93,1226.52 2096.65,1226.52 2098.36,1226.52 2100.07,1226.52 2101.78,1226.52 2103.49,1226.52 2105.2,1226.52 2106.92,1226.52 2108.63,1226.52 2110.34,1226.52 2112.05,1226.52 2113.76,1226.52 2115.47,1226.52 2117.18,1226.52 2118.9,1226.52 2120.61,1226.52 2122.32,1226.52 2124.03,1226.52 2125.74,1226.52 2127.45,1226.52 2129.17,1226.52 2130.88,1226.52 2132.59,1226.52 2134.3,1226.52 2136.01,1226.52 2137.72,1226.52 2139.43,1226.52 2141.15,1226.52 2142.86,1226.52 2144.57,1226.52 2146.28,1226.52 2147.99,1226.52 2149.7,1226.52 2151.42,1226.52 2153.13,1226.52 2154.84,1226.52 2156.55,1226.52 2158.26,1226.52 2159.97,1226.52 2161.69,1226.52 2163.4,1226.52 2165.11,1226.52 2166.82,1226.52 2168.53,1226.52 2170.24,1226.52 2171.95,1226.52 2173.67,1226.52 2175.38,1226.52 2177.09,1226.52 2178.8,1226.52 2180.51,1226.52 2182.22,1226.52 2183.94,1226.52 2185.65,1226.52 2187.36,1226.52 2189.07,1226.52 2190.78,1226.52 2192.49,1226.52 2194.2,1226.52 2195.92,1226.52 2197.63,1226.52 2199.34,1226.52 2201.05,1226.52 2202.76,1226.52 2204.47,1226.52 2206.19,1226.52 2207.9,1226.52 2209.61,1226.52 2211.32,1226.52 2213.03,1226.52 2214.74,1226.52 2216.46,1226.52 2218.17,1226.52 2219.88,1226.52 2221.59,1226.52 2223.3,1226.52 2225.01,1226.52 2226.72,1226.52 2228.44,1226.52 2230.15,1226.52 2231.86,1226.52 2233.57,1226.52 2235.28,1226.52 2236.99,1226.52 2238.71,1226.52 2240.42,1226.52 2242.13,1226.52 2243.84,1226.52 2245.55,1226.52 2247.26,1226.52 2248.97,1226.52 2250.69,1226.52 2252.4,1226.52 2254.11,1226.52 2255.82,1226.52 2257.53,1226.52 2259.24,1226.52 2260.96,1226.52 2262.67,1226.52 2264.38,1226.52 2266.09,1226.52 2267.8,1226.52 2269.51,1226.52 2271.22,1226.52 2272.94,1226.52 2274.65,1226.52 2276.36,1226.52 2278.07,1226.52 2279.78,1226.52 2281.49,1226.52 2283.21,1226.52 2284.92,1226.52 2286.63,1226.52 2288.34,1226.52 2290.05,1226.52 2291.76,1226.52 2293.48,1226.52 2295.19,1226.52 2296.9,1226.52 2298.61,1226.52 2300.32,1226.52 2302.03,1226.52 2303.74,1226.52 2305.46,1226.52 2307.17,1226.52 2308.88,1226.52 2310.59,1226.52 2312.3,1226.51 2314.01,1226.51 2315.73,1226.51 2317.44,1226.51 2319.15,1226.51 2320.86,1226.51 2322.57,1226.51 2324.28,1226.51 2325.99,1226.51 2327.71,1226.51 2329.42,1226.51 2331.13,1226.51 2332.84,1226.51 2334.55,1226.51 2336.26,1226.51 2337.98,1226.51 2339.69,1226.51 2341.4,1226.51 2343.11,1226.5 2344.82,1226.5 2346.53,1226.5 2348.25,1226.5 2349.96,1226.49 2351.67,1226.49 2353.38,1226.49 2355.09,1226.48 2356.8,1226.48 2358.51,1226.48 2360.23,1226.47 2361.94,1226.47 2363.65,1226.47 2365.36,1226.46 2367.07,1226.46 2368.78,1226.46 2370.5,1226.45 2372.21,1226.45 2373.92,1226.45 2375.63,1226.44 2377.34,1226.44 2379.05,1226.44 2380.76,1226.43 2382.48,1226.43 2384.19,1226.43 2385.9,1226.43 2387.61,1226.42 2389.32,1226.42 2391.03,1226.41 2392.75,1226.41 2394.46,1226.4 2396.17,1226.39 2397.88,1226.39 2399.59,1226.38 2401.3,1226.38 2403.02,1226.37 2404.73,1226.37 2406.44,1226.37 2408.15,1226.36 2409.86,1226.35 2411.57,1226.35 2413.28,1226.34 2415,1226.34 2416.71,1226.33 2418.42,1226.33 2420.13,1226.32 2421.84,1226.31 2423.55,1226.31 2425.27,1226.3 2426.98,1226.3 2428.69,1226.3 2430.4,1226.29 2432.11,1226.28 2433.82,1226.28 2435.53,1226.27 2437.25,1226.27 2438.96,1226.26 2440.67,1226.25 2442.38,1226.25 2444.09,1226.25 2445.8,1226.25 2447.52,1226.25 2449.23,1226.25 2450.94,1226.25 2452.65,1226.25 2454.36,1226.25 2456.07,1226.25 2457.79,1226.25 2459.5,1226.25 2461.21,1226.25 2462.92,1226.25 2464.63,1226.25 2466.34,1226.25 2468.05,1226.24 2469.77,1226.24 2471.48,1226.25 2473.19,1226.24 2474.9,1226.24 2476.61,1226.25 2478.32,1226.24 2480.04,1226.24 2481.75,1226.24 2483.46,1226.24 2485.17,1226.24 2486.88,1226.24 2488.59,1226.24 2490.3,1226.24 2492.02,1226.23 2493.73,1226.24 2495.44,1226.25 2497.15,1226.25 2498.86,1226.26 2500.57,1226.26 2502.29,1226.27 2504,1226.27 2505.71,1226.28 2507.42,1226.28 2509.13,1226.29 2510.84,1226.29 2512.55,1226.3 2514.27,1226.3 2515.98,1226.31 2517.69,1226.32 2519.4,1226.32 2521.11,1226.33 2522.82,1226.33 2524.54,1226.34 2526.25,1226.34 2527.96,1226.35 2529.67,1226.35 2531.38,1226.36 2533.09,1226.36 2534.81,1226.37 2536.52,1226.37 2538.23,1226.37 2539.94,1226.38 2541.65,1226.39 2543.36,1226.4 2545.07,1226.4 2546.79,1226.4 2548.5,1226.41 2550.21,1226.41 2551.92,1226.41 2553.63,1226.42 2555.34,1226.42 2557.06,1226.42 2558.77,1226.43 2560.48,1226.43 2562.19,1226.44 2563.9,1226.44 2565.61,1226.45 2567.32,1226.45 2569.04,1226.45 2570.75,1226.45 2572.46,1226.46 2574.17,1226.46 2575.88,1226.47 2577.59,1226.47 2579.31,1226.48 2581.02,1226.48 2582.73,1226.48 2584.44,1226.49 2586.15,1226.49 2587.86,1226.49 2589.58,1226.5 2591.29,1226.5 2593,1226.5 2594.71,1226.51 2596.42,1226.51 2598.13,1226.51 2599.84,1226.51 2601.56,1226.51 2603.27,1226.51 2604.98,1226.51 2606.69,1226.51 2608.4,1226.51 2610.11,1226.51 2611.83,1226.51 2613.54,1226.51 2615.25,1226.51 2616.96,1226.51 2618.67,1226.51 2620.38,1226.51 2622.09,1226.51 2623.81,1226.51 2625.52,1226.51 2627.23,1226.51 2628.94,1226.51 2630.65,1226.52 2632.36,1226.52 2634.08,1226.52 2635.79,1226.52 2637.5,1226.52 2639.21,1226.52 2640.92,1226.52 2642.63,1226.52 2644.35,1226.52 2646.06,1226.52 2647.77,1226.52 2649.48,1226.52 2651.19,1226.52 2652.9,1226.52 2654.61,1226.52 2656.33,1226.52 2658.04,1226.52 2659.75,1226.52 2661.46,1226.52 2663.17,1226.52 2664.88,1226.52 2666.6,1226.52 2668.31,1226.52 2670.02,1226.52 2671.73,1226.52 2673.44,1226.52 2675.15,1226.52 2676.86,1226.52 2678.58,1226.52 2680.29,1226.52 2682,1226.52 2683.71,1226.52 2685.42,1226.52 2687.13,1226.52 2688.85,1226.52 2690.56,1226.52 2692.27,1226.52 2693.98,1226.52 2695.69,1226.52 2697.4,1226.52 2699.12,1226.52 2700.83,1226.52 2702.54,1226.52 2704.25,1226.52 2705.96,1226.52 2707.67,1226.52 2709.38,1226.52 2711.1,1226.52 2712.81,1226.52 2714.52,1226.52 2716.23,1226.52 2717.94,1226.52 2719.65,1226.52 2721.37,1226.52 2723.08,1226.52 2724.79,1226.52 2726.5,1226.52 2728.21,1226.52 2729.92,1226.52 2731.63,1226.52 2733.35,1226.52 2735.06,1226.52 2736.77,1226.52 2738.48,1226.52 2740.19,1226.52 2741.9,1226.52 2743.62,1226.52 2745.33,1226.52 2747.04,1226.52 2748.75,1226.52 2750.46,1226.52 2752.17,1226.52 2753.89,1226.52 2755.6,1226.52 2757.31,1226.52 2759.02,1226.52 2760.73,1226.52 2762.44,1226.52 2764.15,1226.52 2765.87,1226.52 2767.58,1226.52 2769.29,1226.52 2771,1226.52 2772.71,1226.52 2774.42,1226.52 2776.14,1226.52 2777.85,1226.52 2779.56,1226.52 2781.27,1226.52 2782.98,1226.52 2784.69,1226.52 2786.4,1226.52 2788.12,1226.52 2789.83,1226.52 2791.54,1226.52 2793.25,1226.52 2794.96,1226.52 2796.67,1226.52 2798.39,1226.52 2800.1,1226.52 2801.81,1226.52 2803.52,1226.52 2805.23,1226.52 2806.94,1226.52 2808.65,1226.52 2810.37,1226.52 2812.08,1226.52 2813.79,1226.52 2815.5,1226.52 2817.21,1226.52 2818.92,1226.52 2820.64,1226.52 2822.35,1226.52 2824.06,1226.52 2825.77,1226.52 2827.48,1226.52 2829.19,1226.52 2830.91,1226.52 2832.62,1226.52 2834.33,1226.52 2836.04,1226.52 2837.75,1226.52 2839.46,1226.52 2841.17,1226.52 2842.89,1226.52 2844.6,1226.52 2846.31,1226.52 2848.02,1226.52 2849.73,1226.52 2851.44,1226.52 2853.16,1226.52 2854.87,1226.52 2856.58,1226.52 2858.29,1226.52 2860,1226.52 2861.71,1226.52 2863.42,1226.52 2865.14,1226.52 2866.85,1226.52 2868.56,1226.52 2870.27,1226.52 2871.98,1226.52 2873.69,1226.52 2875.41,1226.52 2877.12,1226.52 2878.83,1226.52 2880.54,1226.52 2882.25,1226.52 2883.96,1226.52 2885.68,1226.52 2887.39,1226.52 2889.1,1226.52 2890.81,1226.52 2892.52,1226.52 2894.23,1226.52 2895.94,1226.52 2897.66,1226.52 2899.37,1226.52 2901.08,1226.52 2902.79,1226.52 2904.5,1226.52 2906.21,1226.52 2907.93,1226.52 2909.64,1226.52 2911.35,1226.52 2913.06,1226.52 2914.77,1226.52 2916.48,1226.52 2918.19,1226.52 2919.91,1226.52 2921.62,1226.52 2923.33,1226.52 2925.04,1226.52 2926.75,1226.52 2928.46,1226.52 2930.18,1226.52 2931.89,1226.52 2933.6,1226.52 2935.31,1226.52 2937.02,1226.52 2938.73,1226.52 2940.45,1226.52 2942.16,1226.52 2943.87,1226.52 2945.58,1226.52 2947.29,1226.52 2949,1226.52 2950.71,1226.52 2952.43,1226.52 2954.14,1226.52 2955.85,1226.51 2957.56,1226.51 2959.27,1226.51 2960.98,1226.51 2962.7,1226.5 2964.41,1226.5 2966.12,1226.5 2967.83,1226.5 2969.54,1226.5 2971.25,1226.49 2972.96,1226.49 2974.68,1226.49 2976.39,1226.49 2978.1,1226.48 2979.81,1226.48 2981.52,1226.48 2983.23,1226.48 2984.95,1226.47 2986.66,1226.47 2988.37,1226.47 2990.08,1226.47 2991.79,1226.46 2993.5,1226.46 2995.22,1226.46 2996.93,1226.45 2998.64,1226.45 3000.35,1226.45 3002.06,1226.45 3003.77,1226.45 3005.48,1226.45 3007.2,1226.44 3008.91,1226.43 3010.62,1226.43 3012.33,1226.42 3014.04,1226.42 3015.75,1226.41 3017.47,1226.41 3019.18,1226.4 3020.89,1226.4 3022.6,1226.39 3024.31,1226.38 3026.02,1226.38 3027.73,1226.37 3029.45,1226.37 3031.16,1226.36 3032.87,1226.36 3034.58,1226.35 3036.29,1226.35 3038,1226.34 3039.72,1226.33 3041.43,1226.33 3043.14,1226.32 3044.85,1226.31 3046.56,1226.31 3048.27,1226.3 3049.98,1226.29 3051.7,1226.29 3053.41,1226.29 3055.12,1226.28 3056.83,1226.27 3058.54,1226.27 3060.25,1226.27 3061.97,1226.27 3063.68,1226.27 3065.39,1226.27 3067.1,1226.27 3068.81,1226.27 3070.52,1226.27 3072.24,1226.26 3073.95,1226.26 3075.66,1226.25 3077.37,1226.25 3079.08,1226.25 3080.79,1226.25 3082.5,1226.24 3084.22,1226.24 3085.93,1226.24 3087.64,1226.24 3089.35,1226.24 3091.06,1226.24 3092.77,1226.24 3094.49,1226.24 3096.2,1226.23 3097.91,1226.23 3099.62,1226.23 3101.33,1226.23 3103.04,1226.23 3104.75,1226.23 3106.47,1226.22 3108.18,1226.23 3109.89,1226.23 3111.6,1226.23 3113.31,1226.24 3115.02,1226.24 3116.74,1226.24 3118.45,1226.25 3120.16,1226.25 3121.87,1226.26 3123.58,1226.27 3125.29,1226.27 3127.01,1226.27 3128.72,1226.28 3130.43,1226.28 3132.14,1226.29 3133.85,1226.29 3135.56,1226.3 3137.27,1226.3 3138.99,1226.31 3140.7,1226.31 3142.41,1226.32 3144.12,1226.32 3145.83,1226.33 3147.54,1226.33 3149.26,1226.34 3150.97,1226.34 3152.68,1226.35 3154.39,1226.35 3156.1,1226.35 3157.81,1226.36 3159.52,1226.36 3161.24,1226.37 3162.95,1226.37 3164.66,1226.37 3166.37,1226.38 3168.08,1226.38 3169.79,1226.39 3171.51,1226.39 3173.22,1226.4 3174.93,1226.41 3176.64,1226.41 3178.35,1226.42 3180.06,1226.42 3181.78,1226.43 3183.49,1226.43 3185.2,1226.43 3186.91,1226.44 3188.62,1226.44 3190.33,1226.45 3192.04,1226.45 3193.76,1226.46 3195.47,1226.46 3197.18,1226.46 3198.89,1226.47 3200.6,1226.47 3202.31,1226.48 3204.03,1226.48 3205.74,1226.48 3207.45,1226.49 3209.16,1226.49 3210.87,1226.5 3212.58,1226.5 3214.29,1226.5 3216.01,1226.5 3217.72,1226.5 3219.43,1226.5 3221.14,1226.5 3222.85,1226.5 3224.56,1226.5 3226.28,1226.5 3227.99,1226.51 3229.7,1226.51 3231.41,1226.51 3233.12,1226.51 3234.83,1226.51 3236.55,1226.51 3238.26,1226.51 3239.97,1226.51 3241.68,1226.51 3243.39,1226.51 3245.1,1226.51 3246.81,1226.51 3248.53,1226.51 3250.24,1226.51 3251.95,1226.51 3253.66,1226.52 3255.37,1226.52 3257.08,1226.52 3258.8,1226.52 3260.51,1226.52 3262.22,1226.52 3263.93,1226.52 3265.64,1226.52 3267.35,1226.52 3269.06,1226.52 3270.78,1226.52 3272.49,1226.52 3274.2,1226.52 3275.91,1226.52 3277.62,1226.52 3279.33,1226.52 3281.05,1226.52 3282.76,1226.52 3284.47,1226.52 3286.18,1226.52 3287.89,1226.52 3289.6,1226.52 3291.32,1226.52 3293.03,1226.52 3294.74,1226.52 3296.45,1226.52 3298.16,1226.52 3299.87,1226.52 3301.58,1226.52 3303.3,1226.52 3305.01,1226.52 3306.72,1226.52 3308.43,1226.52 3310.14,1226.52 3311.85,1226.52 3313.57,1226.52 3315.28,1226.52 3316.99,1226.52 3318.7,1226.52 3320.41,1226.52 3322.12,1226.52 3323.83,1226.52 3325.55,1226.52 3327.26,1226.52 3328.97,1226.52 3330.68,1226.52 3332.39,1226.52 3334.1,1226.52 3335.82,1226.52 3337.53,1226.52 3339.24,1226.52 3340.95,1226.52 3342.66,1226.52 3344.37,1226.52 3346.08,1226.52 3347.8,1226.52 3349.51,1226.52 3351.22,1226.52 3352.93,1226.52 3354.64,1226.52 3356.35,1226.52 3358.07,1226.52 3359.78,1226.52 3361.49,1226.52 3363.2,1226.52 3364.91,1226.52 3366.62,1226.52 3368.34,1226.52 3370.05,1226.52 3371.76,1226.52 3373.47,1226.52 3375.18,1226.52 3376.89,1226.52 3378.6,1226.52 3380.32,1226.52 3382.03,1226.52 3383.74,1226.52 3385.45,1226.52 3387.16,1226.52 3388.87,1226.52 3390.59,1226.52 3392.3,1226.52 3394.01,1226.52 3395.72,1226.52 3397.43,1226.52 3399.14,1226.52 3400.85,1226.52 3402.57,1226.52 3404.28,1226.52 3405.99,1226.52 3407.7,1226.52 3409.41,1226.52 3411.12,1226.52 3412.84,1226.52 3414.55,1226.52 3416.26,1226.52 3417.97,1226.52 3419.68,1226.52 3421.39,1226.52 3423.11,1226.52 3424.82,1226.52 3426.53,1226.52 3428.24,1226.52 3429.95,1226.52 3431.66,1226.52 3433.37,1226.52 3435.09,1226.52 3436.8,1226.52 3438.51,1226.52 3440.22,1226.52 3441.93,1226.52 3443.64,1226.52 3445.36,1226.52 3447.07,1226.52 3448.78,1226.52 3450.49,1226.52 3452.2,1226.52 3453.91,1226.52 3455.62,1226.52 3457.34,1226.52 3459.05,1226.52 "/>
<path clip-path="url(#clip150)" d="M3042.03 240.656 L3442.39 240.656 L3442.39 136.976 L3042.03 136.976  Z" fill="#ffffff" fill-rule="evenodd" fill-opacity="1"/>
<polyline clip-path="url(#clip150)" style="stroke:#000000; stroke-linecap:round; stroke-linejoin:round; stroke-width:4; stroke-opacity:1; fill:none" points="3042.03,240.656 3442.39,240.656 3442.39,136.976 3042.03,136.976 3042.03,240.656 "/>
<polyline clip-path="url(#clip150)" style="stroke:#8b0000; stroke-linecap:round; stroke-linejoin:round; stroke-width:6; stroke-opacity:1; fill:none" points="3078.82,188.816 3299.55,188.816 "/>
<path clip-path="url(#clip150)" d="M3336.34 171.536 L3356.2 171.536 L3356.2 175.471 L3341.02 175.471 L3341.02 185.656 L3354.72 185.656 L3354.72 189.591 L3341.02 189.591 L3341.02 206.096 L3336.34 206.096 L3336.34 171.536 Z" fill="#000000" fill-rule="nonzero" fill-opacity="1" /><path clip-path="url(#clip150)" d="M3377.64 174.707 Q3372.54 174.707 3369.54 178.503 Q3366.55 182.3 3366.55 188.85 Q3366.55 195.378 3369.54 199.174 Q3372.54 202.971 3377.64 202.971 Q3382.73 202.971 3385.69 199.174 Q3388.68 195.378 3388.68 188.85 Q3388.68 182.3 3385.69 178.503 Q3382.73 174.707 3377.64 174.707 M3377.64 170.911 Q3384.91 170.911 3389.26 175.795 Q3393.61 180.656 3393.61 188.85 Q3393.61 197.022 3389.26 201.906 Q3384.91 206.767 3377.64 206.767 Q3370.35 206.767 3365.97 201.906 Q3361.62 197.045 3361.62 188.85 Q3361.62 180.656 3365.97 175.795 Q3370.35 170.911 3377.64 170.911 Z" fill="#000000" fill-rule="nonzero" fill-opacity="1" /><path clip-path="url(#clip150)" d="M3400.92 171.536 L3405.6 171.536 L3405.6 206.096 L3400.92 206.096 L3400.92 171.536 Z" fill="#000000" fill-rule="nonzero" fill-opacity="1" /></svg>
