<?xml version="1.0" encoding="utf-8"?>
<svg xmlns="http://www.w3.org/2000/svg" xmlns:xlink="http://www.w3.org/1999/xlink" width="672" height="480" viewBox="0 0 2688 1920">
<defs>
  <clipPath id="clip030">
    <rect x="0" y="0" width="2688" height="1920"/>
  </clipPath>
</defs>
<path clip-path="url(#clip030)" d="M0 1920 L2688 1920 L2688 -4.26326e-14 L0 -4.26326e-14  Z" fill="#ffffff" fill-rule="evenodd" fill-opacity="1"/>
<defs>
  <clipPath id="clip031">
    <rect x="181" y="127" width="2460" height="1607"/>
  </clipPath>
</defs>
<path clip-path="url(#clip030)" d="M181.719 1734.12 L2640.76 1734.12 L2640.76 127.792 L181.719 127.792  Z" fill="#ffffff" fill-rule="evenodd" fill-opacity="1"/>
<polyline clip-path="url(#clip031)" style="stroke:#000000; stroke-linecap:round; stroke-linejoin:round; stroke-width:2; stroke-opacity:0.1; fill:none" points="251.315,1734.12 251.315,127.792 "/>
<polyline clip-path="url(#clip031)" style="stroke:#000000; stroke-linecap:round; stroke-linejoin:round; stroke-width:2; stroke-opacity:0.1; fill:none" points="895.716,1734.12 895.716,127.792 "/>
<polyline clip-path="url(#clip031)" style="stroke:#000000; stroke-linecap:round; stroke-linejoin:round; stroke-width:2; stroke-opacity:0.1; fill:none" points="1540.12,1734.12 1540.12,127.792 "/>
<polyline clip-path="url(#clip031)" style="stroke:#000000; stroke-linecap:round; stroke-linejoin:round; stroke-width:2; stroke-opacity:0.1; fill:none" points="2184.52,1734.12 2184.52,127.792 "/>
<polyline clip-path="url(#clip031)" style="stroke:#000000; stroke-linecap:round; stroke-linejoin:round; stroke-width:2; stroke-opacity:0.1; fill:none" points="181.719,1690.23 2640.76,1690.23 "/>
<polyline clip-path="url(#clip031)" style="stroke:#000000; stroke-linecap:round; stroke-linejoin:round; stroke-width:2; stroke-opacity:0.1; fill:none" points="181.719,1184.52 2640.76,1184.52 "/>
<polyline clip-path="url(#clip031)" style="stroke:#000000; stroke-linecap:round; stroke-linejoin:round; stroke-width:2; stroke-opacity:0.1; fill:none" points="181.719,678.797 2640.76,678.797 "/>
<polyline clip-path="url(#clip031)" style="stroke:#000000; stroke-linecap:round; stroke-linejoin:round; stroke-width:2; stroke-opacity:0.1; fill:none" points="181.719,173.079 2640.76,173.079 "/>
<polyline clip-path="url(#clip030)" style="stroke:#000000; stroke-linecap:round; stroke-linejoin:round; stroke-width:4; stroke-opacity:1; fill:none" points="181.719,1734.12 2640.76,1734.12 "/>
<polyline clip-path="url(#clip030)" style="stroke:#000000; stroke-linecap:round; stroke-linejoin:round; stroke-width:4; stroke-opacity:1; fill:none" points="251.315,1734.12 251.315,1715.22 "/>
<polyline clip-path="url(#clip030)" style="stroke:#000000; stroke-linecap:round; stroke-linejoin:round; stroke-width:4; stroke-opacity:1; fill:none" points="895.716,1734.12 895.716,1715.22 "/>
<polyline clip-path="url(#clip030)" style="stroke:#000000; stroke-linecap:round; stroke-linejoin:round; stroke-width:4; stroke-opacity:1; fill:none" points="1540.12,1734.12 1540.12,1715.22 "/>
<polyline clip-path="url(#clip030)" style="stroke:#000000; stroke-linecap:round; stroke-linejoin:round; stroke-width:4; stroke-opacity:1; fill:none" points="2184.52,1734.12 2184.52,1715.22 "/>
<path clip-path="url(#clip030)" d="M251.315 1767.34 Q247.704 1767.34 245.875 1770.9 Q244.07 1774.45 244.07 1781.58 Q244.07 1788.68 245.875 1792.25 Q247.704 1795.79 251.315 1795.79 Q254.949 1795.79 256.755 1792.25 Q258.583 1788.68 258.583 1781.58 Q258.583 1774.45 256.755 1770.9 Q254.949 1767.34 251.315 1767.34 M251.315 1763.64 Q257.125 1763.64 260.181 1768.24 Q263.259 1772.83 263.259 1781.58 Q263.259 1790.3 260.181 1794.91 Q257.125 1799.49 251.315 1799.49 Q245.505 1799.49 242.426 1794.91 Q239.37 1790.3 239.37 1781.58 Q239.37 1772.83 242.426 1768.24 Q245.505 1763.64 251.315 1763.64 Z" fill="#000000" fill-rule="nonzero" fill-opacity="1" /><path clip-path="url(#clip030)" d="M859.409 1794.89 L875.728 1794.89 L875.728 1798.82 L853.784 1798.82 L853.784 1794.89 Q856.446 1792.13 861.029 1787.5 Q865.636 1782.85 866.816 1781.51 Q869.061 1778.98 869.941 1777.25 Q870.844 1775.49 870.844 1773.8 Q870.844 1771.04 868.899 1769.31 Q866.978 1767.57 863.876 1767.57 Q861.677 1767.57 859.224 1768.34 Q856.793 1769.1 854.015 1770.65 L854.015 1765.93 Q856.839 1764.79 859.293 1764.21 Q861.747 1763.64 863.784 1763.64 Q869.154 1763.64 872.349 1766.32 Q875.543 1769.01 875.543 1773.5 Q875.543 1775.63 874.733 1777.55 Q873.946 1779.45 871.839 1782.04 Q871.261 1782.71 868.159 1785.93 Q865.057 1789.12 859.409 1794.89 Z" fill="#000000" fill-rule="nonzero" fill-opacity="1" /><path clip-path="url(#clip030)" d="M895.543 1767.34 Q891.932 1767.34 890.103 1770.9 Q888.297 1774.45 888.297 1781.58 Q888.297 1788.68 890.103 1792.25 Q891.932 1795.79 895.543 1795.79 Q899.177 1795.79 900.983 1792.25 Q902.811 1788.68 902.811 1781.58 Q902.811 1774.45 900.983 1770.9 Q899.177 1767.34 895.543 1767.34 M895.543 1763.64 Q901.353 1763.64 904.409 1768.24 Q907.487 1772.83 907.487 1781.58 Q907.487 1790.3 904.409 1794.91 Q901.353 1799.49 895.543 1799.49 Q889.733 1799.49 886.654 1794.91 Q883.598 1790.3 883.598 1781.58 Q883.598 1772.83 886.654 1768.24 Q889.733 1763.64 895.543 1763.64 Z" fill="#000000" fill-rule="nonzero" fill-opacity="1" /><path clip-path="url(#clip030)" d="M925.705 1767.34 Q922.094 1767.34 920.265 1770.9 Q918.459 1774.45 918.459 1781.58 Q918.459 1788.68 920.265 1792.25 Q922.094 1795.79 925.705 1795.79 Q929.339 1795.79 931.144 1792.25 Q932.973 1788.68 932.973 1781.58 Q932.973 1774.45 931.144 1770.9 Q929.339 1767.34 925.705 1767.34 M925.705 1763.64 Q931.515 1763.64 934.57 1768.24 Q937.649 1772.83 937.649 1781.58 Q937.649 1790.3 934.57 1794.91 Q931.515 1799.49 925.705 1799.49 Q919.895 1799.49 916.816 1794.91 Q913.76 1790.3 913.76 1781.58 Q913.76 1772.83 916.816 1768.24 Q919.895 1763.64 925.705 1763.64 Z" fill="#000000" fill-rule="nonzero" fill-opacity="1" /><path clip-path="url(#clip030)" d="M1513.21 1768.34 L1501.4 1786.78 L1513.21 1786.78 L1513.21 1768.34 M1511.98 1764.26 L1517.86 1764.26 L1517.86 1786.78 L1522.79 1786.78 L1522.79 1790.67 L1517.86 1790.67 L1517.86 1798.82 L1513.21 1798.82 L1513.21 1790.67 L1497.61 1790.67 L1497.61 1786.16 L1511.98 1764.26 Z" fill="#000000" fill-rule="nonzero" fill-opacity="1" /><path clip-path="url(#clip030)" d="M1540.52 1767.34 Q1536.91 1767.34 1535.08 1770.9 Q1533.28 1774.45 1533.28 1781.58 Q1533.28 1788.68 1535.08 1792.25 Q1536.91 1795.79 1540.52 1795.79 Q1544.16 1795.79 1545.96 1792.25 Q1547.79 1788.68 1547.79 1781.58 Q1547.79 1774.45 1545.96 1770.9 Q1544.16 1767.34 1540.52 1767.34 M1540.52 1763.64 Q1546.33 1763.64 1549.39 1768.24 Q1552.47 1772.83 1552.47 1781.58 Q1552.47 1790.3 1549.39 1794.91 Q1546.33 1799.49 1540.52 1799.49 Q1534.71 1799.49 1531.63 1794.91 Q1528.58 1790.3 1528.58 1781.58 Q1528.58 1772.83 1531.63 1768.24 Q1534.71 1763.64 1540.52 1763.64 Z" fill="#000000" fill-rule="nonzero" fill-opacity="1" /><path clip-path="url(#clip030)" d="M1570.68 1767.34 Q1567.07 1767.34 1565.25 1770.9 Q1563.44 1774.45 1563.44 1781.58 Q1563.44 1788.68 1565.25 1792.25 Q1567.07 1795.79 1570.68 1795.79 Q1574.32 1795.79 1576.12 1792.25 Q1577.95 1788.68 1577.95 1781.58 Q1577.95 1774.45 1576.12 1770.9 Q1574.32 1767.34 1570.68 1767.34 M1570.68 1763.64 Q1576.5 1763.64 1579.55 1768.24 Q1582.63 1772.83 1582.63 1781.58 Q1582.63 1790.3 1579.55 1794.91 Q1576.5 1799.49 1570.68 1799.49 Q1564.87 1799.49 1561.8 1794.91 Q1558.74 1790.3 1558.74 1781.58 Q1558.74 1772.83 1561.8 1768.24 Q1564.87 1763.64 1570.68 1763.64 Z" fill="#000000" fill-rule="nonzero" fill-opacity="1" /><path clip-path="url(#clip030)" d="M2154.84 1779.68 Q2151.7 1779.68 2149.84 1781.83 Q2148.02 1783.98 2148.02 1787.73 Q2148.02 1791.46 2149.84 1793.64 Q2151.7 1795.79 2154.84 1795.79 Q2157.99 1795.79 2159.82 1793.64 Q2161.67 1791.46 2161.67 1787.73 Q2161.67 1783.98 2159.82 1781.83 Q2157.99 1779.68 2154.84 1779.68 M2164.13 1765.02 L2164.13 1769.28 Q2162.37 1768.45 2160.56 1768.01 Q2158.78 1767.57 2157.02 1767.57 Q2152.39 1767.57 2149.94 1770.7 Q2147.51 1773.82 2147.16 1780.14 Q2148.52 1778.13 2150.58 1777.06 Q2152.64 1775.97 2155.12 1775.97 Q2160.33 1775.97 2163.34 1779.15 Q2166.37 1782.29 2166.37 1787.73 Q2166.37 1793.06 2163.22 1796.27 Q2160.08 1799.49 2154.84 1799.49 Q2148.85 1799.49 2145.68 1794.91 Q2142.51 1790.3 2142.51 1781.58 Q2142.51 1773.38 2146.39 1768.52 Q2150.28 1763.64 2156.83 1763.64 Q2158.59 1763.64 2160.38 1763.98 Q2162.18 1764.33 2164.13 1765.02 Z" fill="#000000" fill-rule="nonzero" fill-opacity="1" /><path clip-path="url(#clip030)" d="M2184.43 1767.34 Q2180.82 1767.34 2178.99 1770.9 Q2177.18 1774.45 2177.18 1781.58 Q2177.18 1788.68 2178.99 1792.25 Q2180.82 1795.79 2184.43 1795.79 Q2188.06 1795.79 2189.87 1792.25 Q2191.7 1788.68 2191.7 1781.58 Q2191.7 1774.45 2189.87 1770.9 Q2188.06 1767.34 2184.43 1767.34 M2184.43 1763.64 Q2190.24 1763.64 2193.29 1768.24 Q2196.37 1772.83 2196.37 1781.58 Q2196.37 1790.3 2193.29 1794.91 Q2190.24 1799.49 2184.43 1799.49 Q2178.62 1799.49 2175.54 1794.91 Q2172.48 1790.3 2172.48 1781.58 Q2172.48 1772.83 2175.54 1768.24 Q2178.62 1763.64 2184.43 1763.64 Z" fill="#000000" fill-rule="nonzero" fill-opacity="1" /><path clip-path="url(#clip030)" d="M2214.59 1767.34 Q2210.98 1767.34 2209.15 1770.9 Q2207.34 1774.45 2207.34 1781.58 Q2207.34 1788.68 2209.15 1792.25 Q2210.98 1795.79 2214.59 1795.79 Q2218.22 1795.79 2220.03 1792.25 Q2221.86 1788.68 2221.86 1781.58 Q2221.86 1774.45 2220.03 1770.9 Q2218.22 1767.34 2214.59 1767.34 M2214.59 1763.64 Q2220.4 1763.64 2223.45 1768.24 Q2226.53 1772.83 2226.53 1781.58 Q2226.53 1790.3 2223.45 1794.91 Q2220.4 1799.49 2214.59 1799.49 Q2208.78 1799.49 2205.7 1794.91 Q2202.64 1790.3 2202.64 1781.58 Q2202.64 1772.83 2205.7 1768.24 Q2208.78 1763.64 2214.59 1763.64 Z" fill="#000000" fill-rule="nonzero" fill-opacity="1" /><path clip-path="url(#clip030)" d="M1357.48 1841.06 L1357.48 1878.02 L1365.25 1878.02 Q1375.08 1878.02 1379.63 1873.56 Q1384.22 1869.11 1384.22 1859.49 Q1384.22 1849.94 1379.63 1845.52 Q1375.08 1841.06 1365.25 1841.06 L1357.48 1841.06 M1351.05 1835.78 L1364.26 1835.78 Q1378.07 1835.78 1384.53 1841.54 Q1390.99 1847.27 1390.99 1859.49 Q1390.99 1871.78 1384.5 1877.54 Q1378.01 1883.3 1364.26 1883.3 L1351.05 1883.3 L1351.05 1835.78 Z" fill="#000000" fill-rule="nonzero" fill-opacity="1" /><path clip-path="url(#clip030)" d="M1417.19 1865.38 Q1410.09 1865.38 1407.35 1867 Q1404.62 1868.63 1404.62 1872.54 Q1404.62 1875.66 1406.65 1877.51 Q1408.72 1879.32 1412.26 1879.32 Q1417.13 1879.32 1420.05 1875.88 Q1423.01 1872.42 1423.01 1866.69 L1423.01 1865.38 L1417.19 1865.38 M1428.87 1862.96 L1428.87 1883.3 L1423.01 1883.3 L1423.01 1877.89 Q1421.01 1881.14 1418.02 1882.7 Q1415.03 1884.22 1410.7 1884.22 Q1405.22 1884.22 1401.98 1881.17 Q1398.76 1878.08 1398.76 1872.92 Q1398.76 1866.91 1402.77 1863.85 Q1406.81 1860.8 1414.8 1860.8 L1423.01 1860.8 L1423.01 1860.23 Q1423.01 1856.18 1420.34 1853.99 Q1417.7 1851.76 1412.89 1851.76 Q1409.84 1851.76 1406.94 1852.49 Q1404.04 1853.22 1401.37 1854.69 L1401.37 1849.28 Q1404.59 1848.03 1407.61 1847.43 Q1410.63 1846.79 1413.5 1846.79 Q1421.23 1846.79 1425.05 1850.8 Q1428.87 1854.81 1428.87 1862.96 Z" fill="#000000" fill-rule="nonzero" fill-opacity="1" /><path clip-path="url(#clip030)" d="M1455.77 1886.61 Q1453.28 1892.98 1450.93 1894.92 Q1448.57 1896.86 1444.63 1896.86 L1439.95 1896.86 L1439.95 1891.96 L1443.38 1891.96 Q1445.8 1891.96 1447.14 1890.81 Q1448.48 1889.67 1450.1 1885.4 L1451.15 1882.73 L1436.73 1847.65 L1442.94 1847.65 L1454.08 1875.53 L1465.22 1847.65 L1471.43 1847.65 L1455.77 1886.61 Z" fill="#000000" fill-rule="nonzero" fill-opacity="1" /><polyline clip-path="url(#clip030)" style="stroke:#000000; stroke-linecap:round; stroke-linejoin:round; stroke-width:4; stroke-opacity:1; fill:none" points="181.719,1734.12 181.719,127.792 "/>
<polyline clip-path="url(#clip030)" style="stroke:#000000; stroke-linecap:round; stroke-linejoin:round; stroke-width:4; stroke-opacity:1; fill:none" points="181.719,1690.23 200.617,1690.23 "/>
<polyline clip-path="url(#clip030)" style="stroke:#000000; stroke-linecap:round; stroke-linejoin:round; stroke-width:4; stroke-opacity:1; fill:none" points="181.719,1184.52 200.617,1184.52 "/>
<polyline clip-path="url(#clip030)" style="stroke:#000000; stroke-linecap:round; stroke-linejoin:round; stroke-width:4; stroke-opacity:1; fill:none" points="181.719,678.797 200.617,678.797 "/>
<polyline clip-path="url(#clip030)" style="stroke:#000000; stroke-linecap:round; stroke-linejoin:round; stroke-width:4; stroke-opacity:1; fill:none" points="181.719,173.079 200.617,173.079 "/>
<path clip-path="url(#clip030)" d="M125.08 1703.58 L141.399 1703.58 L141.399 1707.51 L119.455 1707.51 L119.455 1703.58 Q122.117 1700.83 126.7 1696.2 Q131.307 1691.54 132.488 1690.2 Q134.733 1687.68 135.612 1685.94 Q136.515 1684.18 136.515 1682.49 Q136.515 1679.74 134.571 1678 Q132.65 1676.27 129.548 1676.27 Q127.349 1676.27 124.895 1677.03 Q122.464 1677.79 119.687 1679.34 L119.687 1674.62 Q122.511 1673.49 124.964 1672.91 Q127.418 1672.33 129.455 1672.33 Q134.825 1672.33 138.02 1675.02 Q141.214 1677.7 141.214 1682.19 Q141.214 1684.32 140.404 1686.24 Q139.617 1688.14 137.511 1690.73 Q136.932 1691.4 133.83 1694.62 Q130.728 1697.82 125.08 1703.58 Z" fill="#000000" fill-rule="nonzero" fill-opacity="1" /><path clip-path="url(#clip030)" d="M134.27 1183.16 Q137.626 1183.88 139.501 1186.15 Q141.399 1188.42 141.399 1191.75 Q141.399 1196.87 137.881 1199.67 Q134.362 1202.47 127.881 1202.47 Q125.705 1202.47 123.39 1202.03 Q121.099 1201.61 118.645 1200.75 L118.645 1196.24 Q120.589 1197.37 122.904 1197.95 Q125.219 1198.53 127.742 1198.53 Q132.14 1198.53 134.432 1196.8 Q136.747 1195.06 136.747 1191.75 Q136.747 1188.69 134.594 1186.98 Q132.464 1185.25 128.645 1185.25 L124.617 1185.25 L124.617 1181.4 L128.83 1181.4 Q132.279 1181.4 134.108 1180.04 Q135.937 1178.65 135.937 1176.06 Q135.937 1173.39 134.038 1171.98 Q132.163 1170.55 128.645 1170.55 Q126.724 1170.55 124.525 1170.96 Q122.326 1171.38 119.687 1172.26 L119.687 1168.09 Q122.349 1167.35 124.663 1166.98 Q127.001 1166.61 129.062 1166.61 Q134.386 1166.61 137.487 1169.04 Q140.589 1171.45 140.589 1175.57 Q140.589 1178.44 138.946 1180.43 Q137.302 1182.4 134.27 1183.16 Z" fill="#000000" fill-rule="nonzero" fill-opacity="1" /><path clip-path="url(#clip030)" d="M131.816 665.591 L120.011 684.04 L131.816 684.04 L131.816 665.591 M130.589 661.517 L136.469 661.517 L136.469 684.04 L141.399 684.04 L141.399 687.929 L136.469 687.929 L136.469 696.077 L131.816 696.077 L131.816 687.929 L116.214 687.929 L116.214 683.415 L130.589 661.517 Z" fill="#000000" fill-rule="nonzero" fill-opacity="1" /><path clip-path="url(#clip030)" d="M120.497 155.799 L138.853 155.799 L138.853 159.734 L124.779 159.734 L124.779 168.206 Q125.798 167.859 126.816 167.697 Q127.835 167.511 128.853 167.511 Q134.64 167.511 138.02 170.683 Q141.399 173.854 141.399 179.271 Q141.399 184.849 137.927 187.951 Q134.455 191.03 128.136 191.03 Q125.96 191.03 123.691 190.659 Q121.446 190.289 119.039 189.548 L119.039 184.849 Q121.122 185.984 123.344 186.539 Q125.566 187.095 128.043 187.095 Q132.048 187.095 134.386 184.988 Q136.724 182.882 136.724 179.271 Q136.724 175.66 134.386 173.553 Q132.048 171.447 128.043 171.447 Q126.168 171.447 124.293 171.863 Q122.441 172.28 120.497 173.16 L120.497 155.799 Z" fill="#000000" fill-rule="nonzero" fill-opacity="1" /><path clip-path="url(#clip030)" d="M39.3585 946.439 Q40.0587 944.37 42.3504 942.429 Q44.642 940.455 48.6524 938.482 L61.6384 931.957 L61.6384 938.864 L49.4481 944.943 Q44.6738 947.299 43.1142 949.527 Q41.5546 951.723 41.5546 955.542 L41.5546 962.544 L61.6384 962.544 L61.6384 968.974 L14.1184 968.974 L14.1184 954.46 Q14.1184 946.312 17.5241 942.301 Q20.9297 938.291 27.8047 938.291 Q32.2925 938.291 35.2526 940.392 Q38.2126 942.461 39.3585 946.439 M19.402 962.544 L36.2711 962.544 L36.2711 954.46 Q36.2711 949.813 34.1386 947.458 Q31.9743 945.071 27.8047 945.071 Q23.6352 945.071 21.5345 947.458 Q19.402 949.813 19.402 954.46 L19.402 962.544 Z" fill="#000000" fill-rule="nonzero" fill-opacity="1" /><path clip-path="url(#clip030)" d="M18.3516 909.359 Q18.3516 914.324 23.2532 916.839 Q28.123 919.321 37.9262 919.321 Q47.6975 919.321 52.5991 916.839 Q57.4689 914.324 57.4689 909.359 Q57.4689 904.362 52.5991 901.879 Q47.6975 899.365 37.9262 899.365 Q28.123 899.365 23.2532 901.879 Q18.3516 904.362 18.3516 909.359 M13.2591 909.359 Q13.2591 901.37 19.593 897.169 Q25.895 892.935 37.9262 892.935 Q49.9255 892.935 56.2594 897.169 Q62.5615 901.37 62.5615 909.359 Q62.5615 917.348 56.2594 921.581 Q49.9255 925.782 37.9262 925.782 Q25.895 925.782 19.593 921.581 Q13.2591 917.348 13.2591 909.359 Z" fill="#000000" fill-rule="nonzero" fill-opacity="1" /><path clip-path="url(#clip030)" d="M781.666 12.096 L832.829 12.096 L832.829 18.9825 L811.36 18.9825 L811.36 72.576 L803.136 72.576 L803.136 18.9825 L781.666 18.9825 L781.666 12.096 Z" fill="#000000" fill-rule="nonzero" fill-opacity="1" /><path clip-path="url(#clip030)" d="M837.852 27.2059 L845.306 27.2059 L845.306 72.576 L837.852 72.576 L837.852 27.2059 M837.852 9.54393 L845.306 9.54393 L845.306 18.9825 L837.852 18.9825 L837.852 9.54393 Z" fill="#000000" fill-rule="nonzero" fill-opacity="1" /><path clip-path="url(#clip030)" d="M896.226 35.9153 Q899.021 30.8922 902.91 28.5022 Q906.799 26.1121 912.065 26.1121 Q919.154 26.1121 923.002 31.0947 Q926.851 36.0368 926.851 45.1919 L926.851 72.576 L919.357 72.576 L919.357 45.4349 Q919.357 38.913 917.048 35.7533 Q914.739 32.5936 909.999 32.5936 Q904.206 32.5936 900.844 36.4419 Q897.482 40.2903 897.482 46.9338 L897.482 72.576 L889.988 72.576 L889.988 45.4349 Q889.988 38.8725 887.679 35.7533 Q885.37 32.5936 880.549 32.5936 Q874.837 32.5936 871.475 36.4824 Q868.113 40.3308 868.113 46.9338 L868.113 72.576 L860.619 72.576 L860.619 27.2059 L868.113 27.2059 L868.113 34.2544 Q870.665 30.082 874.23 28.0971 Q877.794 26.1121 882.696 26.1121 Q887.638 26.1121 891.081 28.6237 Q894.565 31.1352 896.226 35.9153 Z" fill="#000000" fill-rule="nonzero" fill-opacity="1" /><path clip-path="url(#clip030)" d="M980.525 48.0275 L980.525 51.6733 L946.255 51.6733 Q946.741 59.3701 950.873 63.421 Q955.045 67.4314 962.458 67.4314 Q966.752 67.4314 970.763 66.3781 Q974.814 65.3249 978.783 63.2184 L978.783 70.267 Q974.773 71.9684 970.56 72.8596 Q966.347 73.7508 962.013 73.7508 Q951.156 73.7508 944.796 67.4314 Q938.477 61.1119 938.477 50.3365 Q938.477 39.1965 944.472 32.6746 Q950.508 26.1121 960.716 26.1121 Q969.871 26.1121 975.178 32.0264 Q980.525 37.9003 980.525 48.0275 M973.072 45.84 Q972.991 39.7232 969.628 36.0774 Q966.307 32.4315 960.797 32.4315 Q954.559 32.4315 950.792 35.9558 Q947.065 39.4801 946.498 45.8805 L973.072 45.84 Z" fill="#000000" fill-rule="nonzero" fill-opacity="1" /><path clip-path="url(#clip030)" d="M988.992 46.5287 L1010.83 46.5287 L1010.83 53.1722 L988.992 53.1722 L988.992 46.5287 Z" fill="#000000" fill-rule="nonzero" fill-opacity="1" /><path clip-path="url(#clip030)" d="M1015.12 27.2059 L1023.02 27.2059 L1037.2 65.2844 L1051.38 27.2059 L1059.27 27.2059 L1042.26 72.576 L1032.13 72.576 L1015.12 27.2059 Z" fill="#000000" fill-rule="nonzero" fill-opacity="1" /><path clip-path="url(#clip030)" d="M1090.18 49.7694 Q1081.15 49.7694 1077.67 51.8354 Q1074.18 53.9013 1074.18 58.8839 Q1074.18 62.8538 1076.77 65.2034 Q1079.41 67.5124 1083.9 67.5124 Q1090.1 67.5124 1093.83 63.1374 Q1097.6 58.7219 1097.6 51.4303 L1097.6 49.7694 L1090.18 49.7694 M1105.05 46.6907 L1105.05 72.576 L1097.6 72.576 L1097.6 65.6895 Q1095.04 69.8214 1091.24 71.8063 Q1087.43 73.7508 1081.92 73.7508 Q1074.95 73.7508 1070.82 69.8619 Q1066.73 65.9325 1066.73 59.3701 Q1066.73 51.7138 1071.83 47.825 Q1076.98 43.9361 1087.15 43.9361 L1097.6 43.9361 L1097.6 43.2069 Q1097.6 38.0623 1094.19 35.2672 Q1090.83 32.4315 1084.71 32.4315 Q1080.83 32.4315 1077.14 33.3632 Q1073.45 34.295 1070.05 36.1584 L1070.05 29.2718 Q1074.14 27.692 1077.99 26.9223 Q1081.84 26.1121 1085.48 26.1121 Q1095.33 26.1121 1100.19 31.2163 Q1105.05 36.3204 1105.05 46.6907 Z" fill="#000000" fill-rule="nonzero" fill-opacity="1" /><path clip-path="url(#clip030)" d="M1146.69 34.1734 Q1145.44 33.4443 1143.94 33.1202 Q1142.48 32.7556 1140.7 32.7556 Q1134.38 32.7556 1130.98 36.8875 Q1127.61 40.9789 1127.61 48.6757 L1127.61 72.576 L1120.12 72.576 L1120.12 27.2059 L1127.61 27.2059 L1127.61 34.2544 Q1129.96 30.1225 1133.73 28.1376 Q1137.5 26.1121 1142.89 26.1121 Q1143.66 26.1121 1144.59 26.2337 Q1145.52 26.3147 1146.65 26.5172 L1146.69 34.1734 Z" fill="#000000" fill-rule="nonzero" fill-opacity="1" /><path clip-path="url(#clip030)" d="M1173.39 76.7889 Q1170.23 84.8907 1167.23 87.3618 Q1164.23 89.8329 1159.21 89.8329 L1153.26 89.8329 L1153.26 83.5945 L1157.63 83.5945 Q1160.71 83.5945 1162.41 82.1361 Q1164.11 80.6778 1166.18 75.2496 L1167.52 71.8468 L1149.16 27.2059 L1157.06 27.2059 L1171.24 62.6918 L1185.42 27.2059 L1193.32 27.2059 L1173.39 76.7889 Z" fill="#000000" fill-rule="nonzero" fill-opacity="1" /><path clip-path="url(#clip030)" d="M1203.61 27.2059 L1211.06 27.2059 L1211.06 72.576 L1203.61 72.576 L1203.61 27.2059 M1203.61 9.54393 L1211.06 9.54393 L1211.06 18.9825 L1203.61 18.9825 L1203.61 9.54393 Z" fill="#000000" fill-rule="nonzero" fill-opacity="1" /><path clip-path="url(#clip030)" d="M1264.37 45.1919 L1264.37 72.576 L1256.92 72.576 L1256.92 45.4349 Q1256.92 38.994 1254.41 35.7938 Q1251.9 32.5936 1246.87 32.5936 Q1240.84 32.5936 1237.35 36.4419 Q1233.87 40.2903 1233.87 46.9338 L1233.87 72.576 L1226.37 72.576 L1226.37 27.2059 L1233.87 27.2059 L1233.87 34.2544 Q1236.54 30.163 1240.15 28.1376 Q1243.79 26.1121 1248.53 26.1121 Q1256.35 26.1121 1260.36 30.9732 Q1264.37 35.7938 1264.37 45.1919 Z" fill="#000000" fill-rule="nonzero" fill-opacity="1" /><path clip-path="url(#clip030)" d="M1309.09 49.3643 Q1309.09 41.2625 1305.73 36.8065 Q1302.41 32.3505 1296.37 32.3505 Q1290.38 32.3505 1287.02 36.8065 Q1283.69 41.2625 1283.69 49.3643 Q1283.69 57.4256 1287.02 61.8816 Q1290.38 66.3376 1296.37 66.3376 Q1302.41 66.3376 1305.73 61.8816 Q1309.09 57.4256 1309.09 49.3643 M1316.55 66.9452 Q1316.55 78.5308 1311.4 84.1616 Q1306.26 89.8329 1295.65 89.8329 Q1291.72 89.8329 1288.23 89.2252 Q1284.75 88.6581 1281.47 87.4428 L1281.47 80.1917 Q1284.75 81.9741 1287.95 82.8248 Q1291.15 83.6755 1294.47 83.6755 Q1301.8 83.6755 1305.45 79.8271 Q1309.09 76.0193 1309.09 68.282 L1309.09 64.5957 Q1306.79 68.6061 1303.18 70.5911 Q1299.57 72.576 1294.55 72.576 Q1286.21 72.576 1281.1 66.2161 Q1276 59.8562 1276 49.3643 Q1276 38.832 1281.1 32.472 Q1286.21 26.1121 1294.55 26.1121 Q1299.57 26.1121 1303.18 28.0971 Q1306.79 30.082 1309.09 34.0924 L1309.09 27.2059 L1316.55 27.2059 L1316.55 66.9452 Z" fill="#000000" fill-rule="nonzero" fill-opacity="1" /><path clip-path="url(#clip030)" d="M1387.28 44.2197 Q1389.91 45.1109 1392.38 48.0275 Q1394.89 50.9442 1397.4 56.0483 L1405.71 72.576 L1396.92 72.576 L1389.18 57.061 Q1386.18 50.9847 1383.35 48.9997 Q1380.55 47.0148 1375.69 47.0148 L1366.78 47.0148 L1366.78 72.576 L1358.6 72.576 L1358.6 12.096 L1377.07 12.096 Q1387.44 12.096 1392.54 16.4305 Q1397.65 20.7649 1397.65 29.5149 Q1397.65 35.2267 1394.97 38.994 Q1392.34 42.7613 1387.28 44.2197 M1366.78 18.8205 L1366.78 40.2903 L1377.07 40.2903 Q1382.98 40.2903 1385.98 37.5762 Q1389.02 34.8216 1389.02 29.5149 Q1389.02 24.2082 1385.98 21.5346 Q1382.98 18.8205 1377.07 18.8205 L1366.78 18.8205 Z" fill="#000000" fill-rule="nonzero" fill-opacity="1" /><path clip-path="url(#clip030)" d="M1434.47 17.4837 Q1428.15 17.4837 1424.95 23.7221 Q1421.79 29.92 1421.79 42.3968 Q1421.79 54.833 1424.95 61.0714 Q1428.15 67.2693 1434.47 67.2693 Q1440.83 67.2693 1443.99 61.0714 Q1447.19 54.833 1447.19 42.3968 Q1447.19 29.92 1443.99 23.7221 Q1440.83 17.4837 1434.47 17.4837 M1434.47 11.0023 Q1444.64 11.0023 1449.98 19.0636 Q1455.37 27.0843 1455.37 42.3968 Q1455.37 57.6687 1449.98 65.73 Q1444.64 73.7508 1434.47 73.7508 Q1424.3 73.7508 1418.91 65.73 Q1413.57 57.6687 1413.57 42.3968 Q1413.57 27.0843 1418.91 19.0636 Q1424.3 11.0023 1434.47 11.0023 Z" fill="#000000" fill-rule="nonzero" fill-opacity="1" /><path clip-path="url(#clip030)" d="M1512.98 9.62495 Q1507.55 18.942 1504.91 28.0566 Q1502.28 37.1711 1502.28 46.5287 Q1502.28 55.8863 1504.91 65.0818 Q1507.59 74.2369 1512.98 83.5134 L1506.49 83.5134 Q1500.42 73.9938 1497.38 64.7983 Q1494.38 55.6027 1494.38 46.5287 Q1494.38 37.4952 1497.38 28.3401 Q1500.38 19.1851 1506.49 9.62495 L1512.98 9.62495 Z" fill="#000000" fill-rule="nonzero" fill-opacity="1" /><path clip-path="url(#clip030)" d="M1550.41 9.54393 L1550.41 15.7418 L1543.28 15.7418 Q1539.27 15.7418 1537.69 17.3622 Q1536.15 18.9825 1536.15 23.1955 L1536.15 27.2059 L1548.42 27.2059 L1548.42 32.9987 L1536.15 32.9987 L1536.15 72.576 L1528.65 72.576 L1528.65 32.9987 L1521.52 32.9987 L1521.52 27.2059 L1528.65 27.2059 L1528.65 24.0462 Q1528.65 16.471 1532.18 13.0277 Q1535.7 9.54393 1543.36 9.54393 L1550.41 9.54393 Z" fill="#000000" fill-rule="nonzero" fill-opacity="1" /><path clip-path="url(#clip030)" d="M1556.64 27.2059 L1564.1 27.2059 L1564.1 72.576 L1556.64 72.576 L1556.64 27.2059 M1556.64 9.54393 L1564.1 9.54393 L1564.1 18.9825 L1556.64 18.9825 L1556.64 9.54393 Z" fill="#000000" fill-rule="nonzero" fill-opacity="1" /><path clip-path="url(#clip030)" d="M1605.98 34.1734 Q1604.73 33.4443 1603.23 33.1202 Q1601.77 32.7556 1599.99 32.7556 Q1593.67 32.7556 1590.27 36.8875 Q1586.91 40.9789 1586.91 48.6757 L1586.91 72.576 L1579.41 72.576 L1579.41 27.2059 L1586.91 27.2059 L1586.91 34.2544 Q1589.25 30.1225 1593.02 28.1376 Q1596.79 26.1121 1602.18 26.1121 Q1602.95 26.1121 1603.88 26.2337 Q1604.81 26.3147 1605.94 26.5172 L1605.98 34.1734 Z" fill="#000000" fill-rule="nonzero" fill-opacity="1" /><path clip-path="url(#clip030)" d="M1642.73 28.5427 L1642.73 35.5912 Q1639.57 33.9709 1636.16 33.1607 Q1632.76 32.3505 1629.12 32.3505 Q1623.57 32.3505 1620.77 34.0519 Q1618.02 35.7533 1618.02 39.156 Q1618.02 41.7486 1620 43.2475 Q1621.99 44.7058 1627.98 46.0426 L1630.53 46.6097 Q1638.47 48.3111 1641.79 51.4303 Q1645.16 54.509 1645.16 60.0587 Q1645.16 66.3781 1640.13 70.0644 Q1635.15 73.7508 1626.4 73.7508 Q1622.76 73.7508 1618.79 73.0216 Q1614.86 72.3329 1610.48 70.9151 L1610.48 63.2184 Q1614.61 65.3654 1618.62 66.4591 Q1622.63 67.5124 1626.56 67.5124 Q1631.83 67.5124 1634.67 65.73 Q1637.5 63.9071 1637.5 60.6258 Q1637.5 57.5877 1635.43 55.9673 Q1633.41 54.3469 1626.48 52.8481 L1623.89 52.2405 Q1616.96 50.7821 1613.88 47.7845 Q1610.81 44.7463 1610.81 39.4801 Q1610.81 33.0797 1615.34 29.5959 Q1619.88 26.1121 1628.22 26.1121 Q1632.36 26.1121 1636 26.7198 Q1639.65 27.3274 1642.73 28.5427 Z" fill="#000000" fill-rule="nonzero" fill-opacity="1" /><path clip-path="url(#clip030)" d="M1664.4 14.324 L1664.4 27.2059 L1679.75 27.2059 L1679.75 32.9987 L1664.4 32.9987 L1664.4 57.6282 Q1664.4 63.1779 1665.9 64.7578 Q1667.44 66.3376 1672.1 66.3376 L1679.75 66.3376 L1679.75 72.576 L1672.1 72.576 Q1663.47 72.576 1660.19 69.3758 Q1656.9 66.1351 1656.9 57.6282 L1656.9 32.9987 L1651.44 32.9987 L1651.44 27.2059 L1656.9 27.2059 L1656.9 14.324 L1664.4 14.324 Z" fill="#000000" fill-rule="nonzero" fill-opacity="1" /><path clip-path="url(#clip030)" d="M1724.03 65.6895 L1752.59 65.6895 L1752.59 72.576 L1714.18 72.576 L1714.18 65.6895 Q1718.84 60.8689 1726.86 52.7671 Q1734.93 44.6248 1736.99 42.2752 Q1740.92 37.8598 1742.46 34.8216 Q1744.04 31.7429 1744.04 28.7857 Q1744.04 23.9651 1740.64 20.927 Q1737.27 17.8888 1731.85 17.8888 Q1728 17.8888 1723.7 19.2256 Q1719.45 20.5624 1714.59 23.2765 L1714.59 15.0127 Q1719.53 13.0277 1723.83 12.015 Q1728.12 11.0023 1731.68 11.0023 Q1741.08 11.0023 1746.67 15.7013 Q1752.26 20.4004 1752.26 28.2591 Q1752.26 31.9859 1750.85 35.3482 Q1749.47 38.6699 1745.78 43.2069 Q1744.77 44.3817 1739.34 50.0125 Q1733.91 55.6027 1724.03 65.6895 Z" fill="#000000" fill-rule="nonzero" fill-opacity="1" /><path clip-path="url(#clip030)" d="M1813.96 76.7889 Q1810.8 84.8907 1807.8 87.3618 Q1804.8 89.8329 1799.78 89.8329 L1793.83 89.8329 L1793.83 83.5945 L1798.2 83.5945 Q1801.28 83.5945 1802.98 82.1361 Q1804.68 80.6778 1806.75 75.2496 L1808.08 71.8468 L1789.73 27.2059 L1797.63 27.2059 L1811.81 62.6918 L1825.99 27.2059 L1833.89 27.2059 L1813.96 76.7889 Z" fill="#000000" fill-rule="nonzero" fill-opacity="1" /><path clip-path="url(#clip030)" d="M1882.99 48.0275 L1882.99 51.6733 L1848.72 51.6733 Q1849.2 59.3701 1853.33 63.421 Q1857.51 67.4314 1864.92 67.4314 Q1869.21 67.4314 1873.22 66.3781 Q1877.27 65.3249 1881.24 63.2184 L1881.24 70.267 Q1877.23 71.9684 1873.02 72.8596 Q1868.81 73.7508 1864.47 73.7508 Q1853.62 73.7508 1847.26 67.4314 Q1840.94 61.1119 1840.94 50.3365 Q1840.94 39.1965 1846.93 32.6746 Q1852.97 26.1121 1863.18 26.1121 Q1872.33 26.1121 1877.64 32.0264 Q1882.99 37.9003 1882.99 48.0275 M1875.53 45.84 Q1875.45 39.7232 1872.09 36.0774 Q1868.77 32.4315 1863.26 32.4315 Q1857.02 32.4315 1853.25 35.9558 Q1849.53 39.4801 1848.96 45.8805 L1875.53 45.84 Z" fill="#000000" fill-rule="nonzero" fill-opacity="1" /><path clip-path="url(#clip030)" d="M1915.84 49.7694 Q1906.81 49.7694 1903.32 51.8354 Q1899.84 53.9013 1899.84 58.8839 Q1899.84 62.8538 1902.43 65.2034 Q1905.06 67.5124 1909.56 67.5124 Q1915.76 67.5124 1919.48 63.1374 Q1923.25 58.7219 1923.25 51.4303 L1923.25 49.7694 L1915.84 49.7694 M1930.71 46.6907 L1930.71 72.576 L1923.25 72.576 L1923.25 65.6895 Q1920.7 69.8214 1916.89 71.8063 Q1913.08 73.7508 1907.57 73.7508 Q1900.61 73.7508 1896.48 69.8619 Q1892.38 65.9325 1892.38 59.3701 Q1892.38 51.7138 1897.49 47.825 Q1902.63 43.9361 1912.8 43.9361 L1923.25 43.9361 L1923.25 43.2069 Q1923.25 38.0623 1919.85 35.2672 Q1916.49 32.4315 1910.37 32.4315 Q1906.48 32.4315 1902.79 33.3632 Q1899.11 34.295 1895.71 36.1584 L1895.71 29.2718 Q1899.8 27.692 1903.65 26.9223 Q1907.49 26.1121 1911.14 26.1121 Q1920.98 26.1121 1925.84 31.2163 Q1930.71 36.3204 1930.71 46.6907 Z" fill="#000000" fill-rule="nonzero" fill-opacity="1" /><path clip-path="url(#clip030)" d="M1972.35 34.1734 Q1971.09 33.4443 1969.59 33.1202 Q1968.14 32.7556 1966.35 32.7556 Q1960.03 32.7556 1956.63 36.8875 Q1953.27 40.9789 1953.27 48.6757 L1953.27 72.576 L1945.77 72.576 L1945.77 27.2059 L1953.27 27.2059 L1953.27 34.2544 Q1955.62 30.1225 1959.39 28.1376 Q1963.15 26.1121 1968.54 26.1121 Q1969.31 26.1121 1970.24 26.2337 Q1971.17 26.3147 1972.31 26.5172 L1972.35 34.1734 Z" fill="#000000" fill-rule="nonzero" fill-opacity="1" /><path clip-path="url(#clip030)" d="M2009.09 28.5427 L2009.09 35.5912 Q2005.93 33.9709 2002.53 33.1607 Q1999.13 32.3505 1995.48 32.3505 Q1989.93 32.3505 1987.13 34.0519 Q1984.38 35.7533 1984.38 39.156 Q1984.38 41.7486 1986.36 43.2475 Q1988.35 44.7058 1994.35 46.0426 L1996.9 46.6097 Q2004.84 48.3111 2008.16 51.4303 Q2011.52 54.509 2011.52 60.0587 Q2011.52 66.3781 2006.5 70.0644 Q2001.52 73.7508 1992.77 73.7508 Q1989.12 73.7508 1985.15 73.0216 Q1981.22 72.3329 1976.85 70.9151 L1976.85 63.2184 Q1980.98 65.3654 1984.99 66.4591 Q1989 67.5124 1992.93 67.5124 Q1998.19 67.5124 2001.03 65.73 Q2003.86 63.9071 2003.86 60.6258 Q2003.86 57.5877 2001.8 55.9673 Q1999.77 54.3469 1992.85 52.8481 L1990.25 52.2405 Q1983.33 50.7821 1980.25 47.7845 Q1977.17 44.7463 1977.17 39.4801 Q1977.17 33.0797 1981.71 29.5959 Q1986.24 26.1121 1994.59 26.1121 Q1998.72 26.1121 2002.37 26.7198 Q2006.01 27.3274 2009.09 28.5427 Z" fill="#000000" fill-rule="nonzero" fill-opacity="1" /><path clip-path="url(#clip030)" d="M2022.22 9.62495 L2028.7 9.62495 Q2034.77 19.1851 2037.77 28.3401 Q2040.81 37.4952 2040.81 46.5287 Q2040.81 55.6027 2037.77 64.7983 Q2034.77 73.9938 2028.7 83.5134 L2022.22 83.5134 Q2027.6 74.2369 2030.24 65.0818 Q2032.91 55.8863 2032.91 46.5287 Q2032.91 37.1711 2030.24 28.0566 Q2027.6 18.942 2022.22 9.62495 Z" fill="#000000" fill-rule="nonzero" fill-opacity="1" /><polyline clip-path="url(#clip031)" style="stroke:#4682b4; stroke-linecap:round; stroke-linejoin:round; stroke-width:8; stroke-opacity:1; fill:none" points="251.315,931.657 347.975,557.089 444.635,280.217 541.296,173.254 637.956,264.099 734.616,529.057 831.276,899.021 927.937,1277.5 1024.6,1565.77 1121.26,1688.65 1217.92,1614.1 1314.58,1361.54 1411.24,996.868 1507.9,615.183 1604.56,316.041 1701.22,177.465 1797.88,235.598 1894.54,475.278 1991.2,833.991 2087.86,1218.18 2184.52,1527.63 2281.18,1681.65 2377.84,1640.05 2474.5,1413.68 2571.16,1061.6 "/>
<path clip-path="url(#clip030)" d="M2257.58 285.016 L2558.79 285.016 L2558.79 181.336 L2257.58 181.336  Z" fill="#ffffff" fill-rule="evenodd" fill-opacity="1"/>
<polyline clip-path="url(#clip030)" style="stroke:#000000; stroke-linecap:round; stroke-linejoin:round; stroke-width:4; stroke-opacity:1; fill:none" points="2257.58,285.016 2558.79,285.016 2558.79,181.336 2257.58,181.336 2257.58,285.016 "/>
<polyline clip-path="url(#clip030)" style="stroke:#4682b4; stroke-linecap:round; stroke-linejoin:round; stroke-width:8; stroke-opacity:1; fill:none" points="2284.91,233.176 2448.84,233.176 "/>
<path clip-path="url(#clip030)" d="M2492.55 234.253 Q2494.06 234.762 2495.47 236.429 Q2496.91 238.095 2498.34 241.012 L2503.09 250.456 L2498.06 250.456 L2493.64 241.591 Q2491.93 238.118 2490.31 236.984 Q2488.71 235.85 2485.93 235.85 L2480.84 235.85 L2480.84 250.456 L2476.16 250.456 L2476.16 215.896 L2486.72 215.896 Q2492.65 215.896 2495.56 218.373 Q2498.48 220.85 2498.48 225.85 Q2498.48 229.114 2496.95 231.267 Q2495.45 233.419 2492.55 234.253 M2480.84 219.739 L2480.84 232.007 L2486.72 232.007 Q2490.1 232.007 2491.81 230.456 Q2493.55 228.882 2493.55 225.85 Q2493.55 222.818 2491.81 221.29 Q2490.1 219.739 2486.72 219.739 L2480.84 219.739 Z" fill="#000000" fill-rule="nonzero" fill-opacity="1" /><path clip-path="url(#clip030)" d="M2519.52 218.975 Q2515.91 218.975 2514.08 222.54 Q2512.28 226.081 2512.28 233.211 Q2512.28 240.317 2514.08 243.882 Q2515.91 247.424 2519.52 247.424 Q2523.16 247.424 2524.96 243.882 Q2526.79 240.317 2526.79 233.211 Q2526.79 226.081 2524.96 222.54 Q2523.16 218.975 2519.52 218.975 M2519.52 215.271 Q2525.33 215.271 2528.39 219.878 Q2531.47 224.461 2531.47 233.211 Q2531.47 241.938 2528.39 246.544 Q2525.33 251.128 2519.52 251.128 Q2513.71 251.128 2510.63 246.544 Q2507.58 241.938 2507.58 233.211 Q2507.58 224.461 2510.63 219.878 Q2513.71 215.271 2519.52 215.271 Z" fill="#000000" fill-rule="nonzero" fill-opacity="1" /></svg>
