<?xml version="1.0" encoding="utf-8"?>
<svg xmlns="http://www.w3.org/2000/svg" xmlns:xlink="http://www.w3.org/1999/xlink" width="672" height="480" viewBox="0 0 2688 1920">
<defs>
  <clipPath id="clip380">
    <rect x="0" y="0" width="2688" height="1920"/>
  </clipPath>
</defs>
<path clip-path="url(#clip380)" d="M0 1920 L2688 1920 L2688 -4.26326e-14 L0 -4.26326e-14  Z" fill="#ffffff" fill-rule="evenodd" fill-opacity="1"/>
<defs>
  <clipPath id="clip381">
    <rect x="241" y="127" width="2400" height="1607"/>
  </clipPath>
</defs>
<path clip-path="url(#clip380)" d="M241.557 1734.12 L2640.76 1734.12 L2640.76 127.792 L241.557 127.792  Z" fill="#ffffff" fill-rule="evenodd" fill-opacity="1"/>
<polyline clip-path="url(#clip381)" style="stroke:#000000; stroke-linecap:round; stroke-linejoin:round; stroke-width:2; stroke-opacity:0.1; fill:none" points="309.459,1734.12 309.459,127.792 "/>
<polyline clip-path="url(#clip381)" style="stroke:#000000; stroke-linecap:round; stroke-linejoin:round; stroke-width:2; stroke-opacity:0.1; fill:none" points="781,1734.12 781,127.792 "/>
<polyline clip-path="url(#clip381)" style="stroke:#000000; stroke-linecap:round; stroke-linejoin:round; stroke-width:2; stroke-opacity:0.1; fill:none" points="1252.54,1734.12 1252.54,127.792 "/>
<polyline clip-path="url(#clip381)" style="stroke:#000000; stroke-linecap:round; stroke-linejoin:round; stroke-width:2; stroke-opacity:0.1; fill:none" points="1724.08,1734.12 1724.08,127.792 "/>
<polyline clip-path="url(#clip381)" style="stroke:#000000; stroke-linecap:round; stroke-linejoin:round; stroke-width:2; stroke-opacity:0.1; fill:none" points="2195.62,1734.12 2195.62,127.792 "/>
<polyline clip-path="url(#clip381)" style="stroke:#000000; stroke-linecap:round; stroke-linejoin:round; stroke-width:2; stroke-opacity:0.1; fill:none" points="241.557,1688.78 2640.76,1688.78 "/>
<polyline clip-path="url(#clip381)" style="stroke:#000000; stroke-linecap:round; stroke-linejoin:round; stroke-width:2; stroke-opacity:0.1; fill:none" points="241.557,1343.39 2640.76,1343.39 "/>
<polyline clip-path="url(#clip381)" style="stroke:#000000; stroke-linecap:round; stroke-linejoin:round; stroke-width:2; stroke-opacity:0.1; fill:none" points="241.557,997.995 2640.76,997.995 "/>
<polyline clip-path="url(#clip381)" style="stroke:#000000; stroke-linecap:round; stroke-linejoin:round; stroke-width:2; stroke-opacity:0.1; fill:none" points="241.557,652.603 2640.76,652.603 "/>
<polyline clip-path="url(#clip381)" style="stroke:#000000; stroke-linecap:round; stroke-linejoin:round; stroke-width:2; stroke-opacity:0.1; fill:none" points="241.557,307.21 2640.76,307.21 "/>
<polyline clip-path="url(#clip380)" style="stroke:#000000; stroke-linecap:round; stroke-linejoin:round; stroke-width:4; stroke-opacity:1; fill:none" points="241.557,1734.12 2640.76,1734.12 "/>
<polyline clip-path="url(#clip380)" style="stroke:#000000; stroke-linecap:round; stroke-linejoin:round; stroke-width:4; stroke-opacity:1; fill:none" points="309.459,1734.12 309.459,1715.22 "/>
<polyline clip-path="url(#clip380)" style="stroke:#000000; stroke-linecap:round; stroke-linejoin:round; stroke-width:4; stroke-opacity:1; fill:none" points="781,1734.12 781,1715.22 "/>
<polyline clip-path="url(#clip380)" style="stroke:#000000; stroke-linecap:round; stroke-linejoin:round; stroke-width:4; stroke-opacity:1; fill:none" points="1252.54,1734.12 1252.54,1715.22 "/>
<polyline clip-path="url(#clip380)" style="stroke:#000000; stroke-linecap:round; stroke-linejoin:round; stroke-width:4; stroke-opacity:1; fill:none" points="1724.08,1734.12 1724.08,1715.22 "/>
<polyline clip-path="url(#clip380)" style="stroke:#000000; stroke-linecap:round; stroke-linejoin:round; stroke-width:4; stroke-opacity:1; fill:none" points="2195.62,1734.12 2195.62,1715.22 "/>
<path clip-path="url(#clip380)" d="M309.459 1767.34 Q305.848 1767.34 304.019 1770.9 Q302.214 1774.45 302.214 1781.58 Q302.214 1788.68 304.019 1792.25 Q305.848 1795.79 309.459 1795.79 Q313.093 1795.79 314.899 1792.25 Q316.727 1788.68 316.727 1781.58 Q316.727 1774.45 314.899 1770.9 Q313.093 1767.34 309.459 1767.34 M309.459 1763.64 Q315.269 1763.64 318.325 1768.24 Q321.403 1772.83 321.403 1781.58 Q321.403 1790.3 318.325 1794.91 Q315.269 1799.49 309.459 1799.49 Q303.649 1799.49 300.57 1794.91 Q297.515 1790.3 297.515 1781.58 Q297.515 1772.83 300.57 1768.24 Q303.649 1763.64 309.459 1763.64 Z" fill="#000000" fill-rule="nonzero" fill-opacity="1" /><path clip-path="url(#clip380)" d="M760.271 1794.89 L776.59 1794.89 L776.59 1798.82 L754.646 1798.82 L754.646 1794.89 Q757.308 1792.13 761.891 1787.5 Q766.497 1782.85 767.678 1781.51 Q769.923 1778.98 770.803 1777.25 Q771.706 1775.49 771.706 1773.8 Q771.706 1771.04 769.761 1769.31 Q767.84 1767.57 764.738 1767.57 Q762.539 1767.57 760.085 1768.34 Q757.655 1769.1 754.877 1770.65 L754.877 1765.93 Q757.701 1764.79 760.155 1764.21 Q762.609 1763.64 764.646 1763.64 Q770.016 1763.64 773.21 1766.32 Q776.405 1769.01 776.405 1773.5 Q776.405 1775.63 775.595 1777.55 Q774.808 1779.45 772.701 1782.04 Q772.122 1782.71 769.021 1785.93 Q765.919 1789.12 760.271 1794.89 Z" fill="#000000" fill-rule="nonzero" fill-opacity="1" /><path clip-path="url(#clip380)" d="M786.451 1764.26 L804.807 1764.26 L804.807 1768.2 L790.733 1768.2 L790.733 1776.67 Q791.752 1776.32 792.77 1776.16 Q793.789 1775.97 794.807 1775.97 Q800.594 1775.97 803.974 1779.15 Q807.354 1782.32 807.354 1787.73 Q807.354 1793.31 803.881 1796.41 Q800.409 1799.49 794.09 1799.49 Q791.914 1799.49 789.645 1799.12 Q787.4 1798.75 784.993 1798.01 L784.993 1793.31 Q787.076 1794.45 789.298 1795 Q791.52 1795.56 793.997 1795.56 Q798.002 1795.56 800.34 1793.45 Q802.678 1791.34 802.678 1787.73 Q802.678 1784.12 800.34 1782.02 Q798.002 1779.91 793.997 1779.91 Q792.122 1779.91 790.247 1780.33 Q788.395 1780.74 786.451 1781.62 L786.451 1764.26 Z" fill="#000000" fill-rule="nonzero" fill-opacity="1" /><path clip-path="url(#clip380)" d="M1227.24 1764.26 L1245.6 1764.26 L1245.6 1768.2 L1231.52 1768.2 L1231.52 1776.67 Q1232.54 1776.32 1233.56 1776.16 Q1234.58 1775.97 1235.6 1775.97 Q1241.38 1775.97 1244.76 1779.15 Q1248.14 1782.32 1248.14 1787.73 Q1248.14 1793.31 1244.67 1796.41 Q1241.2 1799.49 1234.88 1799.49 Q1232.7 1799.49 1230.43 1799.12 Q1228.19 1798.75 1225.78 1798.01 L1225.78 1793.31 Q1227.86 1794.45 1230.09 1795 Q1232.31 1795.56 1234.79 1795.56 Q1238.79 1795.56 1241.13 1793.45 Q1243.47 1791.34 1243.47 1787.73 Q1243.47 1784.12 1241.13 1782.02 Q1238.79 1779.91 1234.79 1779.91 Q1232.91 1779.91 1231.04 1780.33 Q1229.18 1780.74 1227.24 1781.62 L1227.24 1764.26 Z" fill="#000000" fill-rule="nonzero" fill-opacity="1" /><path clip-path="url(#clip380)" d="M1267.36 1767.34 Q1263.74 1767.34 1261.92 1770.9 Q1260.11 1774.45 1260.11 1781.58 Q1260.11 1788.68 1261.92 1792.25 Q1263.74 1795.79 1267.36 1795.79 Q1270.99 1795.79 1272.79 1792.25 Q1274.62 1788.68 1274.62 1781.58 Q1274.62 1774.45 1272.79 1770.9 Q1270.99 1767.34 1267.36 1767.34 M1267.36 1763.64 Q1273.17 1763.64 1276.22 1768.24 Q1279.3 1772.83 1279.3 1781.58 Q1279.3 1790.3 1276.22 1794.91 Q1273.17 1799.49 1267.36 1799.49 Q1261.54 1799.49 1258.47 1794.91 Q1255.41 1790.3 1255.41 1781.58 Q1255.41 1772.83 1258.47 1768.24 Q1261.54 1763.64 1267.36 1763.64 Z" fill="#000000" fill-rule="nonzero" fill-opacity="1" /><path clip-path="url(#clip380)" d="M1697.94 1764.26 L1720.16 1764.26 L1720.16 1766.25 L1707.61 1798.82 L1702.73 1798.82 L1714.53 1768.2 L1697.94 1768.2 L1697.94 1764.26 Z" fill="#000000" fill-rule="nonzero" fill-opacity="1" /><path clip-path="url(#clip380)" d="M1729.32 1764.26 L1747.68 1764.26 L1747.68 1768.2 L1733.61 1768.2 L1733.61 1776.67 Q1734.62 1776.32 1735.64 1776.16 Q1736.66 1775.97 1737.68 1775.97 Q1743.47 1775.97 1746.85 1779.15 Q1750.23 1782.32 1750.23 1787.73 Q1750.23 1793.31 1746.75 1796.41 Q1743.28 1799.49 1736.96 1799.49 Q1734.79 1799.49 1732.52 1799.12 Q1730.27 1798.75 1727.87 1798.01 L1727.87 1793.31 Q1729.95 1794.45 1732.17 1795 Q1734.39 1795.56 1736.87 1795.56 Q1740.87 1795.56 1743.21 1793.45 Q1745.55 1791.34 1745.55 1787.73 Q1745.55 1784.12 1743.21 1782.02 Q1740.87 1779.91 1736.87 1779.91 Q1735 1779.91 1733.12 1780.33 Q1731.27 1780.74 1729.32 1781.62 L1729.32 1764.26 Z" fill="#000000" fill-rule="nonzero" fill-opacity="1" /><path clip-path="url(#clip380)" d="M2155.23 1794.89 L2162.87 1794.89 L2162.87 1768.52 L2154.56 1770.19 L2154.56 1765.93 L2162.82 1764.26 L2167.5 1764.26 L2167.5 1794.89 L2175.14 1794.89 L2175.14 1798.82 L2155.23 1798.82 L2155.23 1794.89 Z" fill="#000000" fill-rule="nonzero" fill-opacity="1" /><path clip-path="url(#clip380)" d="M2194.58 1767.34 Q2190.97 1767.34 2189.14 1770.9 Q2187.33 1774.45 2187.33 1781.58 Q2187.33 1788.68 2189.14 1792.25 Q2190.97 1795.79 2194.58 1795.79 Q2198.21 1795.79 2200.02 1792.25 Q2201.85 1788.68 2201.85 1781.58 Q2201.85 1774.45 2200.02 1770.9 Q2198.21 1767.34 2194.58 1767.34 M2194.58 1763.64 Q2200.39 1763.64 2203.45 1768.24 Q2206.52 1772.83 2206.52 1781.58 Q2206.52 1790.3 2203.45 1794.91 Q2200.39 1799.49 2194.58 1799.49 Q2188.77 1799.49 2185.69 1794.91 Q2182.64 1790.3 2182.64 1781.58 Q2182.64 1772.83 2185.69 1768.24 Q2188.77 1763.64 2194.58 1763.64 Z" fill="#000000" fill-rule="nonzero" fill-opacity="1" /><path clip-path="url(#clip380)" d="M2224.74 1767.34 Q2221.13 1767.34 2219.3 1770.9 Q2217.5 1774.45 2217.5 1781.58 Q2217.5 1788.68 2219.3 1792.25 Q2221.13 1795.79 2224.74 1795.79 Q2228.38 1795.79 2230.18 1792.25 Q2232.01 1788.68 2232.01 1781.58 Q2232.01 1774.45 2230.18 1770.9 Q2228.38 1767.34 2224.74 1767.34 M2224.74 1763.64 Q2230.55 1763.64 2233.61 1768.24 Q2236.69 1772.83 2236.69 1781.58 Q2236.69 1790.3 2233.61 1794.91 Q2230.55 1799.49 2224.74 1799.49 Q2218.93 1799.49 2215.85 1794.91 Q2212.8 1790.3 2212.8 1781.58 Q2212.8 1772.83 2215.85 1768.24 Q2218.93 1763.64 2224.74 1763.64 Z" fill="#000000" fill-rule="nonzero" fill-opacity="1" /><path clip-path="url(#clip380)" d="M1363.03 1835.78 L1403.23 1835.78 L1403.23 1841.19 L1386.36 1841.19 L1386.36 1883.3 L1379.9 1883.3 L1379.9 1841.19 L1363.03 1841.19 L1363.03 1835.78 Z" fill="#000000" fill-rule="nonzero" fill-opacity="1" /><path clip-path="url(#clip380)" d="M1407.18 1847.65 L1413.04 1847.65 L1413.04 1883.3 L1407.18 1883.3 L1407.18 1847.65 M1407.18 1833.78 L1413.04 1833.78 L1413.04 1841.19 L1407.18 1841.19 L1407.18 1833.78 Z" fill="#000000" fill-rule="nonzero" fill-opacity="1" /><path clip-path="url(#clip380)" d="M1453.04 1854.5 Q1455.24 1850.55 1458.3 1848.67 Q1461.35 1846.79 1465.49 1846.79 Q1471.06 1846.79 1474.08 1850.71 Q1477.11 1854.59 1477.11 1861.78 L1477.11 1883.3 L1471.22 1883.3 L1471.22 1861.98 Q1471.22 1856.85 1469.4 1854.37 Q1467.59 1851.89 1463.87 1851.89 Q1459.31 1851.89 1456.67 1854.91 Q1454.03 1857.93 1454.03 1863.15 L1454.03 1883.3 L1448.14 1883.3 L1448.14 1861.98 Q1448.14 1856.82 1446.33 1854.37 Q1444.51 1851.89 1440.73 1851.89 Q1436.24 1851.89 1433.6 1854.94 Q1430.96 1857.97 1430.96 1863.15 L1430.96 1883.3 L1425.07 1883.3 L1425.07 1847.65 L1430.96 1847.65 L1430.96 1853.19 Q1432.96 1849.91 1435.76 1848.35 Q1438.56 1846.79 1442.41 1846.79 Q1446.3 1846.79 1449 1848.77 Q1451.74 1850.74 1453.04 1854.5 Z" fill="#000000" fill-rule="nonzero" fill-opacity="1" /><path clip-path="url(#clip380)" d="M1519.28 1864.01 L1519.28 1866.88 L1492.35 1866.88 Q1492.73 1872.92 1495.98 1876.11 Q1499.26 1879.26 1505.08 1879.26 Q1508.46 1879.26 1511.61 1878.43 Q1514.79 1877.6 1517.91 1875.95 L1517.91 1881.49 Q1514.76 1882.82 1511.45 1883.52 Q1508.14 1884.22 1504.73 1884.22 Q1496.2 1884.22 1491.21 1879.26 Q1486.24 1874.29 1486.24 1865.83 Q1486.24 1857.07 1490.95 1851.95 Q1495.69 1846.79 1503.72 1846.79 Q1510.91 1846.79 1515.08 1851.44 Q1519.28 1856.06 1519.28 1864.01 M1513.42 1862.29 Q1513.36 1857.49 1510.72 1854.62 Q1508.11 1851.76 1503.78 1851.76 Q1498.88 1851.76 1495.92 1854.53 Q1492.99 1857.3 1492.54 1862.33 L1513.42 1862.29 Z" fill="#000000" fill-rule="nonzero" fill-opacity="1" /><polyline clip-path="url(#clip380)" style="stroke:#000000; stroke-linecap:round; stroke-linejoin:round; stroke-width:4; stroke-opacity:1; fill:none" points="241.557,1734.12 241.557,127.792 "/>
<polyline clip-path="url(#clip380)" style="stroke:#000000; stroke-linecap:round; stroke-linejoin:round; stroke-width:4; stroke-opacity:1; fill:none" points="241.557,1688.78 260.455,1688.78 "/>
<polyline clip-path="url(#clip380)" style="stroke:#000000; stroke-linecap:round; stroke-linejoin:round; stroke-width:4; stroke-opacity:1; fill:none" points="241.557,1343.39 260.455,1343.39 "/>
<polyline clip-path="url(#clip380)" style="stroke:#000000; stroke-linecap:round; stroke-linejoin:round; stroke-width:4; stroke-opacity:1; fill:none" points="241.557,997.995 260.455,997.995 "/>
<polyline clip-path="url(#clip380)" style="stroke:#000000; stroke-linecap:round; stroke-linejoin:round; stroke-width:4; stroke-opacity:1; fill:none" points="241.557,652.603 260.455,652.603 "/>
<polyline clip-path="url(#clip380)" style="stroke:#000000; stroke-linecap:round; stroke-linejoin:round; stroke-width:4; stroke-opacity:1; fill:none" points="241.557,307.21 260.455,307.21 "/>
<path clip-path="url(#clip380)" d="M189.293 1674.58 Q185.682 1674.58 183.853 1678.14 Q182.047 1681.68 182.047 1688.81 Q182.047 1695.92 183.853 1699.48 Q185.682 1703.03 189.293 1703.03 Q192.927 1703.03 194.733 1699.48 Q196.561 1695.92 196.561 1688.81 Q196.561 1681.68 194.733 1678.14 Q192.927 1674.58 189.293 1674.58 M189.293 1670.87 Q195.103 1670.87 198.158 1675.48 Q201.237 1680.06 201.237 1688.81 Q201.237 1697.54 198.158 1702.15 Q195.103 1706.73 189.293 1706.73 Q183.483 1706.73 180.404 1702.15 Q177.348 1697.54 177.348 1688.81 Q177.348 1680.06 180.404 1675.48 Q183.483 1670.87 189.293 1670.87 Z" fill="#000000" fill-rule="nonzero" fill-opacity="1" /><path clip-path="url(#clip380)" d="M119.779 1356.73 L127.418 1356.73 L127.418 1330.37 L119.108 1332.03 L119.108 1327.77 L127.372 1326.11 L132.048 1326.11 L132.048 1356.73 L139.687 1356.73 L139.687 1360.67 L119.779 1360.67 L119.779 1356.73 Z" fill="#000000" fill-rule="nonzero" fill-opacity="1" /><path clip-path="url(#clip380)" d="M159.131 1329.19 Q155.52 1329.19 153.691 1332.75 Q151.886 1336.29 151.886 1343.42 Q151.886 1350.53 153.691 1354.09 Q155.52 1357.63 159.131 1357.63 Q162.765 1357.63 164.571 1354.09 Q166.399 1350.53 166.399 1343.42 Q166.399 1336.29 164.571 1332.75 Q162.765 1329.19 159.131 1329.19 M159.131 1325.48 Q164.941 1325.48 167.997 1330.09 Q171.075 1334.67 171.075 1343.42 Q171.075 1352.15 167.997 1356.75 Q164.941 1361.34 159.131 1361.34 Q153.321 1361.34 150.242 1356.75 Q147.186 1352.15 147.186 1343.42 Q147.186 1334.67 150.242 1330.09 Q153.321 1325.48 159.131 1325.48 Z" fill="#000000" fill-rule="nonzero" fill-opacity="1" /><path clip-path="url(#clip380)" d="M189.293 1329.19 Q185.682 1329.19 183.853 1332.75 Q182.047 1336.29 182.047 1343.42 Q182.047 1350.53 183.853 1354.09 Q185.682 1357.63 189.293 1357.63 Q192.927 1357.63 194.733 1354.09 Q196.561 1350.53 196.561 1343.42 Q196.561 1336.29 194.733 1332.75 Q192.927 1329.19 189.293 1329.19 M189.293 1325.48 Q195.103 1325.48 198.158 1330.09 Q201.237 1334.67 201.237 1343.42 Q201.237 1352.15 198.158 1356.75 Q195.103 1361.34 189.293 1361.34 Q183.483 1361.34 180.404 1356.75 Q177.348 1352.15 177.348 1343.42 Q177.348 1334.67 180.404 1330.09 Q183.483 1325.48 189.293 1325.48 Z" fill="#000000" fill-rule="nonzero" fill-opacity="1" /><path clip-path="url(#clip380)" d="M122.997 1011.34 L139.316 1011.34 L139.316 1015.27 L117.372 1015.27 L117.372 1011.34 Q120.034 1008.58 124.617 1003.96 Q129.224 999.302 130.404 997.96 Q132.65 995.437 133.529 993.701 Q134.432 991.941 134.432 990.252 Q134.432 987.497 132.488 985.761 Q130.566 984.025 127.464 984.025 Q125.265 984.025 122.812 984.789 Q120.381 985.552 117.603 987.103 L117.603 982.381 Q120.427 981.247 122.881 980.668 Q125.335 980.09 127.372 980.09 Q132.742 980.09 135.937 982.775 Q139.131 985.46 139.131 989.951 Q139.131 992.08 138.321 994.002 Q137.534 995.9 135.427 998.492 Q134.849 999.164 131.747 1002.38 Q128.645 1005.58 122.997 1011.34 Z" fill="#000000" fill-rule="nonzero" fill-opacity="1" /><path clip-path="url(#clip380)" d="M159.131 983.793 Q155.52 983.793 153.691 987.358 Q151.886 990.9 151.886 998.029 Q151.886 1005.14 153.691 1008.7 Q155.52 1012.24 159.131 1012.24 Q162.765 1012.24 164.571 1008.7 Q166.399 1005.14 166.399 998.029 Q166.399 990.9 164.571 987.358 Q162.765 983.793 159.131 983.793 M159.131 980.09 Q164.941 980.09 167.997 984.696 Q171.075 989.279 171.075 998.029 Q171.075 1006.76 167.997 1011.36 Q164.941 1015.95 159.131 1015.95 Q153.321 1015.95 150.242 1011.36 Q147.186 1006.76 147.186 998.029 Q147.186 989.279 150.242 984.696 Q153.321 980.09 159.131 980.09 Z" fill="#000000" fill-rule="nonzero" fill-opacity="1" /><path clip-path="url(#clip380)" d="M189.293 983.793 Q185.682 983.793 183.853 987.358 Q182.047 990.9 182.047 998.029 Q182.047 1005.14 183.853 1008.7 Q185.682 1012.24 189.293 1012.24 Q192.927 1012.24 194.733 1008.7 Q196.561 1005.14 196.561 998.029 Q196.561 990.9 194.733 987.358 Q192.927 983.793 189.293 983.793 M189.293 980.09 Q195.103 980.09 198.158 984.696 Q201.237 989.279 201.237 998.029 Q201.237 1006.76 198.158 1011.36 Q195.103 1015.95 189.293 1015.95 Q183.483 1015.95 180.404 1011.36 Q177.348 1006.76 177.348 998.029 Q177.348 989.279 180.404 984.696 Q183.483 980.09 189.293 980.09 Z" fill="#000000" fill-rule="nonzero" fill-opacity="1" /><path clip-path="url(#clip380)" d="M133.136 651.248 Q136.492 651.966 138.367 654.234 Q140.265 656.503 140.265 659.836 Q140.265 664.952 136.747 667.753 Q133.228 670.554 126.747 670.554 Q124.571 670.554 122.256 670.114 Q119.964 669.697 117.511 668.841 L117.511 664.327 Q119.455 665.461 121.77 666.04 Q124.085 666.619 126.608 666.619 Q131.006 666.619 133.298 664.883 Q135.612 663.146 135.612 659.836 Q135.612 656.781 133.46 655.068 Q131.33 653.332 127.511 653.332 L123.483 653.332 L123.483 649.489 L127.696 649.489 Q131.145 649.489 132.974 648.123 Q134.802 646.734 134.802 644.142 Q134.802 641.48 132.904 640.068 Q131.029 638.633 127.511 638.633 Q125.589 638.633 123.39 639.049 Q121.191 639.466 118.552 640.346 L118.552 636.179 Q121.214 635.438 123.529 635.068 Q125.867 634.698 127.927 634.698 Q133.251 634.698 136.353 637.128 Q139.455 639.535 139.455 643.656 Q139.455 646.526 137.812 648.517 Q136.168 650.484 133.136 651.248 Z" fill="#000000" fill-rule="nonzero" fill-opacity="1" /><path clip-path="url(#clip380)" d="M159.131 638.401 Q155.52 638.401 153.691 641.966 Q151.886 645.508 151.886 652.637 Q151.886 659.744 153.691 663.308 Q155.52 666.85 159.131 666.85 Q162.765 666.85 164.571 663.308 Q166.399 659.744 166.399 652.637 Q166.399 645.508 164.571 641.966 Q162.765 638.401 159.131 638.401 M159.131 634.698 Q164.941 634.698 167.997 639.304 Q171.075 643.887 171.075 652.637 Q171.075 661.364 167.997 665.97 Q164.941 670.554 159.131 670.554 Q153.321 670.554 150.242 665.97 Q147.186 661.364 147.186 652.637 Q147.186 643.887 150.242 639.304 Q153.321 634.698 159.131 634.698 Z" fill="#000000" fill-rule="nonzero" fill-opacity="1" /><path clip-path="url(#clip380)" d="M189.293 638.401 Q185.682 638.401 183.853 641.966 Q182.047 645.508 182.047 652.637 Q182.047 659.744 183.853 663.308 Q185.682 666.85 189.293 666.85 Q192.927 666.85 194.733 663.308 Q196.561 659.744 196.561 652.637 Q196.561 645.508 194.733 641.966 Q192.927 638.401 189.293 638.401 M189.293 634.698 Q195.103 634.698 198.158 639.304 Q201.237 643.887 201.237 652.637 Q201.237 661.364 198.158 665.97 Q195.103 670.554 189.293 670.554 Q183.483 670.554 180.404 665.97 Q177.348 661.364 177.348 652.637 Q177.348 643.887 180.404 639.304 Q183.483 634.698 189.293 634.698 Z" fill="#000000" fill-rule="nonzero" fill-opacity="1" /><path clip-path="url(#clip380)" d="M131.816 294.005 L120.011 312.453 L131.816 312.453 L131.816 294.005 M130.589 289.93 L136.469 289.93 L136.469 312.453 L141.399 312.453 L141.399 316.342 L136.469 316.342 L136.469 324.49 L131.816 324.49 L131.816 316.342 L116.214 316.342 L116.214 311.828 L130.589 289.93 Z" fill="#000000" fill-rule="nonzero" fill-opacity="1" /><path clip-path="url(#clip380)" d="M159.131 293.009 Q155.52 293.009 153.691 296.574 Q151.886 300.116 151.886 307.245 Q151.886 314.352 153.691 317.916 Q155.52 321.458 159.131 321.458 Q162.765 321.458 164.571 317.916 Q166.399 314.352 166.399 307.245 Q166.399 300.116 164.571 296.574 Q162.765 293.009 159.131 293.009 M159.131 289.305 Q164.941 289.305 167.997 293.912 Q171.075 298.495 171.075 307.245 Q171.075 315.972 167.997 320.578 Q164.941 325.162 159.131 325.162 Q153.321 325.162 150.242 320.578 Q147.186 315.972 147.186 307.245 Q147.186 298.495 150.242 293.912 Q153.321 289.305 159.131 289.305 Z" fill="#000000" fill-rule="nonzero" fill-opacity="1" /><path clip-path="url(#clip380)" d="M189.293 293.009 Q185.682 293.009 183.853 296.574 Q182.047 300.116 182.047 307.245 Q182.047 314.352 183.853 317.916 Q185.682 321.458 189.293 321.458 Q192.927 321.458 194.733 317.916 Q196.561 314.352 196.561 307.245 Q196.561 300.116 194.733 296.574 Q192.927 293.009 189.293 293.009 M189.293 289.305 Q195.103 289.305 198.158 293.912 Q201.237 298.495 201.237 307.245 Q201.237 315.972 198.158 320.578 Q195.103 325.162 189.293 325.162 Q183.483 325.162 180.404 320.578 Q177.348 315.972 177.348 307.245 Q177.348 298.495 180.404 293.912 Q183.483 289.305 189.293 289.305 Z" fill="#000000" fill-rule="nonzero" fill-opacity="1" /><path clip-path="url(#clip380)" d="M14.1184 1058.03 L14.1184 1051.6 L61.6384 1051.6 L61.6384 1058.03 L14.1184 1058.03 Z" fill="#000000" fill-rule="nonzero" fill-opacity="1" /><path clip-path="url(#clip380)" d="M40.1224 1009.43 L61.6384 1009.43 L61.6384 1015.28 L40.3133 1015.28 Q35.2526 1015.28 32.7381 1017.26 Q30.2237 1019.23 30.2237 1023.18 Q30.2237 1027.92 33.2474 1030.66 Q36.2711 1033.39 41.491 1033.39 L61.6384 1033.39 L61.6384 1039.28 L25.9905 1039.28 L25.9905 1033.39 L31.5287 1033.39 Q28.314 1031.29 26.7225 1028.46 Q25.1311 1025.6 25.1311 1021.87 Q25.1311 1015.73 28.9505 1012.58 Q32.7381 1009.43 40.1224 1009.43 Z" fill="#000000" fill-rule="nonzero" fill-opacity="1" /><path clip-path="url(#clip380)" d="M12.1132 979.7 L16.983 979.7 L16.983 985.302 Q16.983 988.453 18.2562 989.694 Q19.5293 990.904 22.8395 990.904 L25.9905 990.904 L25.9905 981.26 L30.542 981.26 L30.542 990.904 L61.6384 990.904 L61.6384 996.792 L30.542 996.792 L30.542 1002.39 L25.9905 1002.39 L25.9905 996.792 L23.5079 996.792 Q17.5559 996.792 14.8505 994.023 Q12.1132 991.254 12.1132 985.238 L12.1132 979.7 Z" fill="#000000" fill-rule="nonzero" fill-opacity="1" /><path clip-path="url(#clip380)" d="M42.3504 944.307 L45.2149 944.307 L45.2149 971.234 Q51.2623 970.852 54.4452 967.605 Q57.5962 964.327 57.5962 958.502 Q57.5962 955.128 56.7687 951.977 Q55.9411 948.794 54.2861 945.675 L59.8242 945.675 Q61.161 948.826 61.8612 952.136 Q62.5615 955.447 62.5615 958.852 Q62.5615 967.382 57.5962 972.379 Q52.631 977.345 44.1646 977.345 Q35.4117 977.345 30.2873 972.634 Q25.1311 967.892 25.1311 959.871 Q25.1311 952.678 29.7781 948.508 Q34.3932 944.307 42.3504 944.307 M40.6316 950.163 Q35.8255 950.227 32.9609 952.869 Q30.0964 955.478 30.0964 959.807 Q30.0964 964.709 32.8654 967.669 Q35.6345 970.597 40.6634 971.043 L40.6316 950.163 Z" fill="#000000" fill-rule="nonzero" fill-opacity="1" /><path clip-path="url(#clip380)" d="M27.3591 909.041 L32.8336 909.041 Q31.465 911.523 30.7966 914.038 Q30.0964 916.52 30.0964 919.067 Q30.0964 924.764 33.7248 927.915 Q37.3214 931.066 43.8463 931.066 Q50.3711 931.066 53.9996 927.915 Q57.5962 924.764 57.5962 919.067 Q57.5962 916.52 56.9278 914.038 Q56.2276 911.523 54.859 909.041 L60.2698 909.041 Q61.4156 911.491 61.9886 914.133 Q62.5615 916.743 62.5615 919.703 Q62.5615 927.756 57.5007 932.498 Q52.44 937.241 43.8463 937.241 Q35.1253 937.241 30.1282 932.466 Q25.1311 927.66 25.1311 919.321 Q25.1311 916.616 25.704 914.038 Q26.2451 911.46 27.3591 909.041 Z" fill="#000000" fill-rule="nonzero" fill-opacity="1" /><path clip-path="url(#clip380)" d="M15.869 893.063 L25.9905 893.063 L25.9905 881 L30.542 881 L30.542 893.063 L49.8937 893.063 Q54.2542 893.063 55.4955 891.885 Q56.7368 890.676 56.7368 887.015 L56.7368 881 L61.6384 881 L61.6384 887.015 Q61.6384 893.795 59.124 896.373 Q56.5777 898.951 49.8937 898.951 L30.542 898.951 L30.542 903.248 L25.9905 903.248 L25.9905 898.951 L15.869 898.951 L15.869 893.063 Z" fill="#000000" fill-rule="nonzero" fill-opacity="1" /><path clip-path="url(#clip380)" d="M42.3504 842.805 L45.2149 842.805 L45.2149 869.732 Q51.2623 869.35 54.4452 866.104 Q57.5962 862.826 57.5962 857.001 Q57.5962 853.627 56.7687 850.476 Q55.9411 847.293 54.2861 844.174 L59.8242 844.174 Q61.161 847.325 61.8612 850.635 Q62.5615 853.945 62.5615 857.351 Q62.5615 865.881 57.5962 870.878 Q52.631 875.843 44.1646 875.843 Q35.4117 875.843 30.2873 871.133 Q25.1311 866.39 25.1311 858.37 Q25.1311 851.176 29.7781 847.007 Q34.3932 842.805 42.3504 842.805 M40.6316 848.662 Q35.8255 848.726 32.9609 851.367 Q30.0964 853.977 30.0964 858.306 Q30.0964 863.208 32.8654 866.168 Q35.6345 869.096 40.6634 869.541 L40.6316 848.662 Z" fill="#000000" fill-rule="nonzero" fill-opacity="1" /><path clip-path="url(#clip380)" d="M31.4013 809.736 L12.1132 809.736 L12.1132 803.879 L61.6384 803.879 L61.6384 809.736 L56.2912 809.736 Q59.4741 811.582 61.0337 814.414 Q62.5615 817.215 62.5615 821.162 Q62.5615 827.623 57.4052 831.697 Q52.249 835.739 43.8463 835.739 Q35.4436 835.739 30.2873 831.697 Q25.1311 827.623 25.1311 821.162 Q25.1311 817.215 26.6907 814.414 Q28.2185 811.582 31.4013 809.736 M43.8463 829.692 Q50.3075 829.692 53.9996 827.05 Q57.6599 824.377 57.6599 819.73 Q57.6599 815.083 53.9996 812.409 Q50.3075 809.736 43.8463 809.736 Q37.3851 809.736 33.7248 812.409 Q30.0327 815.083 30.0327 819.73 Q30.0327 824.377 33.7248 827.05 Q37.3851 829.692 43.8463 829.692 Z" fill="#000000" fill-rule="nonzero" fill-opacity="1" /><path clip-path="url(#clip380)" d="M929.872 14.0809 L929.872 22.0612 Q925.213 19.8332 921.081 18.7395 Q916.949 17.6457 913.101 17.6457 Q906.417 17.6457 902.771 20.2383 Q899.166 22.8309 899.166 27.611 Q899.166 31.6214 901.556 33.6873 Q903.986 35.7128 910.711 36.9686 L915.653 37.9813 Q924.808 39.7232 929.142 44.1387 Q933.517 48.5136 933.517 55.8863 Q933.517 64.6767 927.603 69.2137 Q921.729 73.7508 910.346 73.7508 Q906.052 73.7508 901.191 72.7785 Q896.371 71.8063 891.186 69.9024 L891.186 61.4765 Q896.168 64.2716 900.948 65.6895 Q905.728 67.1073 910.346 67.1073 Q917.354 67.1073 921.162 64.3527 Q924.97 61.598 924.97 56.4939 Q924.97 52.0379 922.215 49.5264 Q919.501 47.0148 913.263 45.759 L908.28 44.7868 Q899.125 42.9639 895.034 39.075 Q890.942 35.1862 890.942 28.2591 Q890.942 20.2383 896.573 15.6203 Q902.244 11.0023 912.169 11.0023 Q916.423 11.0023 920.838 11.7719 Q925.254 12.5416 929.872 14.0809 Z" fill="#000000" fill-rule="nonzero" fill-opacity="1" /><path clip-path="url(#clip380)" d="M946.278 12.096 L954.461 12.096 L954.461 72.576 L946.278 72.576 L946.278 12.096 Z" fill="#000000" fill-rule="nonzero" fill-opacity="1" /><path clip-path="url(#clip380)" d="M999.426 44.2197 Q1002.06 45.1109 1004.53 48.0275 Q1007.04 50.9442 1009.55 56.0483 L1017.86 72.576 L1009.07 72.576 L1001.33 57.061 Q998.332 50.9847 995.496 48.9997 Q992.701 47.0148 987.84 47.0148 L978.928 47.0148 L978.928 72.576 L970.745 72.576 L970.745 12.096 L989.217 12.096 Q999.588 12.096 1004.69 16.4305 Q1009.8 20.7649 1009.8 29.5149 Q1009.8 35.2267 1007.12 38.994 Q1004.49 42.7613 999.426 44.2197 M978.928 18.8205 L978.928 40.2903 L989.217 40.2903 Q995.132 40.2903 998.129 37.5762 Q1001.17 34.8216 1001.17 29.5149 Q1001.17 24.2082 998.129 21.5346 Q995.132 18.8205 989.217 18.8205 L978.928 18.8205 Z" fill="#000000" fill-rule="nonzero" fill-opacity="1" /><path clip-path="url(#clip380)" d="M1050.1 27.2059 L1057.56 27.2059 L1066.87 62.6108 L1076.15 27.2059 L1084.94 27.2059 L1094.26 62.6108 L1103.53 27.2059 L1110.99 27.2059 L1099.12 72.576 L1090.33 72.576 L1080.57 35.3887 L1070.76 72.576 L1061.97 72.576 L1050.1 27.2059 Z" fill="#000000" fill-rule="nonzero" fill-opacity="1" /><path clip-path="url(#clip380)" d="M1122.29 27.2059 L1129.74 27.2059 L1129.74 72.576 L1122.29 72.576 L1122.29 27.2059 M1122.29 9.54393 L1129.74 9.54393 L1129.74 18.9825 L1122.29 18.9825 L1122.29 9.54393 Z" fill="#000000" fill-rule="nonzero" fill-opacity="1" /><path clip-path="url(#clip380)" d="M1152.71 14.324 L1152.71 27.2059 L1168.06 27.2059 L1168.06 32.9987 L1152.71 32.9987 L1152.71 57.6282 Q1152.71 63.1779 1154.21 64.7578 Q1155.75 66.3376 1160.41 66.3376 L1168.06 66.3376 L1168.06 72.576 L1160.41 72.576 Q1151.78 72.576 1148.5 69.3758 Q1145.22 66.1351 1145.22 57.6282 L1145.22 32.9987 L1139.75 32.9987 L1139.75 27.2059 L1145.22 27.2059 L1145.22 14.324 L1152.71 14.324 Z" fill="#000000" fill-rule="nonzero" fill-opacity="1" /><path clip-path="url(#clip380)" d="M1215.58 45.1919 L1215.58 72.576 L1208.13 72.576 L1208.13 45.4349 Q1208.13 38.994 1205.62 35.7938 Q1203.11 32.5936 1198.08 32.5936 Q1192.05 32.5936 1188.56 36.4419 Q1185.08 40.2903 1185.08 46.9338 L1185.08 72.576 L1177.58 72.576 L1177.58 9.54393 L1185.08 9.54393 L1185.08 34.2544 Q1187.75 30.163 1191.36 28.1376 Q1195 26.1121 1199.74 26.1121 Q1207.56 26.1121 1211.57 30.9732 Q1215.58 35.7938 1215.58 45.1919 Z" fill="#000000" fill-rule="nonzero" fill-opacity="1" /><path clip-path="url(#clip380)" d="M1257.14 12.096 L1265.33 12.096 L1265.33 65.6895 L1294.78 65.6895 L1294.78 72.576 L1257.14 72.576 L1257.14 12.096 Z" fill="#000000" fill-rule="nonzero" fill-opacity="1" /><path clip-path="url(#clip380)" d="M1303.04 27.2059 L1310.49 27.2059 L1310.49 72.576 L1303.04 72.576 L1303.04 27.2059 M1303.04 9.54393 L1310.49 9.54393 L1310.49 18.9825 L1303.04 18.9825 L1303.04 9.54393 Z" fill="#000000" fill-rule="nonzero" fill-opacity="1" /><path clip-path="url(#clip380)" d="M1363.8 45.1919 L1363.8 72.576 L1356.35 72.576 L1356.35 45.4349 Q1356.35 38.994 1353.84 35.7938 Q1351.33 32.5936 1346.3 32.5936 Q1340.27 32.5936 1336.78 36.4419 Q1333.3 40.2903 1333.3 46.9338 L1333.3 72.576 L1325.81 72.576 L1325.81 27.2059 L1333.3 27.2059 L1333.3 34.2544 Q1335.97 30.163 1339.58 28.1376 Q1343.23 26.1121 1347.97 26.1121 Q1355.78 26.1121 1359.79 30.9732 Q1363.8 35.7938 1363.8 45.1919 Z" fill="#000000" fill-rule="nonzero" fill-opacity="1" /><path clip-path="url(#clip380)" d="M1417.48 48.0275 L1417.48 51.6733 L1383.21 51.6733 Q1383.69 59.3701 1387.83 63.421 Q1392 67.4314 1399.41 67.4314 Q1403.71 67.4314 1407.72 66.3781 Q1411.77 65.3249 1415.74 63.2184 L1415.74 70.267 Q1411.73 71.9684 1407.51 72.8596 Q1403.3 73.7508 1398.97 73.7508 Q1388.11 73.7508 1381.75 67.4314 Q1375.43 61.1119 1375.43 50.3365 Q1375.43 39.1965 1381.43 32.6746 Q1387.46 26.1121 1397.67 26.1121 Q1406.83 26.1121 1412.13 32.0264 Q1417.48 37.9003 1417.48 48.0275 M1410.03 45.84 Q1409.94 39.7232 1406.58 36.0774 Q1403.26 32.4315 1397.75 32.4315 Q1391.51 32.4315 1387.75 35.9558 Q1384.02 39.4801 1383.45 45.8805 L1410.03 45.84 Z" fill="#000000" fill-rule="nonzero" fill-opacity="1" /><path clip-path="url(#clip380)" d="M1450.33 49.7694 Q1441.3 49.7694 1437.81 51.8354 Q1434.33 53.9013 1434.33 58.8839 Q1434.33 62.8538 1436.92 65.2034 Q1439.56 67.5124 1444.05 67.5124 Q1450.25 67.5124 1453.98 63.1374 Q1457.74 58.7219 1457.74 51.4303 L1457.74 49.7694 L1450.33 49.7694 M1465.2 46.6907 L1465.2 72.576 L1457.74 72.576 L1457.74 65.6895 Q1455.19 69.8214 1451.39 71.8063 Q1447.58 73.7508 1442.07 73.7508 Q1435.1 73.7508 1430.97 69.8619 Q1426.88 65.9325 1426.88 59.3701 Q1426.88 51.7138 1431.98 47.825 Q1437.13 43.9361 1447.29 43.9361 L1457.74 43.9361 L1457.74 43.2069 Q1457.74 38.0623 1454.34 35.2672 Q1450.98 32.4315 1444.86 32.4315 Q1440.97 32.4315 1437.29 33.3632 Q1433.6 34.295 1430.2 36.1584 L1430.2 29.2718 Q1434.29 27.692 1438.14 26.9223 Q1441.99 26.1121 1445.63 26.1121 Q1455.48 26.1121 1460.34 31.2163 Q1465.2 36.3204 1465.2 46.6907 Z" fill="#000000" fill-rule="nonzero" fill-opacity="1" /><path clip-path="url(#clip380)" d="M1506.84 34.1734 Q1505.59 33.4443 1504.09 33.1202 Q1502.63 32.7556 1500.85 32.7556 Q1494.53 32.7556 1491.12 36.8875 Q1487.76 40.9789 1487.76 48.6757 L1487.76 72.576 L1480.27 72.576 L1480.27 27.2059 L1487.76 27.2059 L1487.76 34.2544 Q1490.11 30.1225 1493.88 28.1376 Q1497.65 26.1121 1503.03 26.1121 Q1503.8 26.1121 1504.74 26.2337 Q1505.67 26.3147 1506.8 26.5172 L1506.84 34.1734 Z" fill="#000000" fill-rule="nonzero" fill-opacity="1" /><path clip-path="url(#clip380)" d="M1514.66 9.54393 L1522.11 9.54393 L1522.11 72.576 L1514.66 72.576 L1514.66 9.54393 Z" fill="#000000" fill-rule="nonzero" fill-opacity="1" /><path clip-path="url(#clip380)" d="M1556.59 76.7889 Q1553.43 84.8907 1550.43 87.3618 Q1547.43 89.8329 1542.41 89.8329 L1536.45 89.8329 L1536.45 83.5945 L1540.83 83.5945 Q1543.91 83.5945 1545.61 82.1361 Q1547.31 80.6778 1549.38 75.2496 L1550.71 71.8468 L1532.36 27.2059 L1540.26 27.2059 L1554.44 62.6918 L1568.62 27.2059 L1576.52 27.2059 L1556.59 76.7889 Z" fill="#000000" fill-rule="nonzero" fill-opacity="1" /><path clip-path="url(#clip380)" d="M1629.1 72.576 L1606.01 12.096 L1614.56 12.096 L1633.72 63.0159 L1652.92 12.096 L1661.42 12.096 L1638.37 72.576 L1629.1 72.576 Z" fill="#000000" fill-rule="nonzero" fill-opacity="1" /><path clip-path="url(#clip380)" d="M1684.11 49.7694 Q1675.08 49.7694 1671.59 51.8354 Q1668.11 53.9013 1668.11 58.8839 Q1668.11 62.8538 1670.7 65.2034 Q1673.33 67.5124 1677.83 67.5124 Q1684.03 67.5124 1687.76 63.1374 Q1691.52 58.7219 1691.52 51.4303 L1691.52 49.7694 L1684.11 49.7694 M1698.98 46.6907 L1698.98 72.576 L1691.52 72.576 L1691.52 65.6895 Q1688.97 69.8214 1685.16 71.8063 Q1681.35 73.7508 1675.85 73.7508 Q1668.88 73.7508 1664.75 69.8619 Q1660.65 65.9325 1660.65 59.3701 Q1660.65 51.7138 1665.76 47.825 Q1670.9 43.9361 1681.07 43.9361 L1691.52 43.9361 L1691.52 43.2069 Q1691.52 38.0623 1688.12 35.2672 Q1684.76 32.4315 1678.64 32.4315 Q1674.75 32.4315 1671.07 33.3632 Q1667.38 34.295 1663.98 36.1584 L1663.98 29.2718 Q1668.07 27.692 1671.92 26.9223 Q1675.76 26.1121 1679.41 26.1121 Q1689.25 26.1121 1694.12 31.2163 Q1698.98 36.3204 1698.98 46.6907 Z" fill="#000000" fill-rule="nonzero" fill-opacity="1" /><path clip-path="url(#clip380)" d="M1740.62 34.1734 Q1739.36 33.4443 1737.87 33.1202 Q1736.41 32.7556 1734.62 32.7556 Q1728.3 32.7556 1724.9 36.8875 Q1721.54 40.9789 1721.54 48.6757 L1721.54 72.576 L1714.05 72.576 L1714.05 27.2059 L1721.54 27.2059 L1721.54 34.2544 Q1723.89 30.1225 1727.66 28.1376 Q1731.42 26.1121 1736.81 26.1121 Q1737.58 26.1121 1738.51 26.2337 Q1739.44 26.3147 1740.58 26.5172 L1740.62 34.1734 Z" fill="#000000" fill-rule="nonzero" fill-opacity="1" /><path clip-path="url(#clip380)" d="M1767.32 76.7889 Q1764.16 84.8907 1761.16 87.3618 Q1758.16 89.8329 1753.14 89.8329 L1747.18 89.8329 L1747.18 83.5945 L1751.56 83.5945 Q1754.64 83.5945 1756.34 82.1361 Q1758.04 80.6778 1760.1 75.2496 L1761.44 71.8468 L1743.09 27.2059 L1750.99 27.2059 L1765.17 62.6918 L1779.35 27.2059 L1787.25 27.2059 L1767.32 76.7889 Z" fill="#000000" fill-rule="nonzero" fill-opacity="1" /><path clip-path="url(#clip380)" d="M1797.53 27.2059 L1804.99 27.2059 L1804.99 72.576 L1797.53 72.576 L1797.53 27.2059 M1797.53 9.54393 L1804.99 9.54393 L1804.99 18.9825 L1797.53 18.9825 L1797.53 9.54393 Z" fill="#000000" fill-rule="nonzero" fill-opacity="1" /><path clip-path="url(#clip380)" d="M1858.3 45.1919 L1858.3 72.576 L1850.84 72.576 L1850.84 45.4349 Q1850.84 38.994 1848.33 35.7938 Q1845.82 32.5936 1840.8 32.5936 Q1834.76 32.5936 1831.28 36.4419 Q1827.8 40.2903 1827.8 46.9338 L1827.8 72.576 L1820.3 72.576 L1820.3 27.2059 L1827.8 27.2059 L1827.8 34.2544 Q1830.47 30.163 1834.07 28.1376 Q1837.72 26.1121 1842.46 26.1121 Q1850.28 26.1121 1854.29 30.9732 Q1858.3 35.7938 1858.3 45.1919 Z" fill="#000000" fill-rule="nonzero" fill-opacity="1" /><path clip-path="url(#clip380)" d="M1903.02 49.3643 Q1903.02 41.2625 1899.66 36.8065 Q1896.34 32.3505 1890.3 32.3505 Q1884.31 32.3505 1880.94 36.8065 Q1877.62 41.2625 1877.62 49.3643 Q1877.62 57.4256 1880.94 61.8816 Q1884.31 66.3376 1890.3 66.3376 Q1896.34 66.3376 1899.66 61.8816 Q1903.02 57.4256 1903.02 49.3643 M1910.47 66.9452 Q1910.47 78.5308 1905.33 84.1616 Q1900.18 89.8329 1889.57 89.8329 Q1885.64 89.8329 1882.16 89.2252 Q1878.67 88.6581 1875.39 87.4428 L1875.39 80.1917 Q1878.67 81.9741 1881.87 82.8248 Q1885.07 83.6755 1888.4 83.6755 Q1895.73 83.6755 1899.37 79.8271 Q1903.02 76.0193 1903.02 68.282 L1903.02 64.5957 Q1900.71 68.6061 1897.11 70.5911 Q1893.5 72.576 1888.48 72.576 Q1880.13 72.576 1875.03 66.2161 Q1869.92 59.8562 1869.92 49.3643 Q1869.92 38.832 1875.03 32.472 Q1880.13 26.1121 1888.48 26.1121 Q1893.5 26.1121 1897.11 28.0971 Q1900.71 30.082 1903.02 34.0924 L1903.02 27.2059 L1910.47 27.2059 L1910.47 66.9452 Z" fill="#000000" fill-rule="nonzero" fill-opacity="1" /><path clip-path="url(#clip380)" d="M1959.65 69.7809 L1959.65 89.8329 L1952.16 89.8329 L1952.16 27.4894 Q1952.16 9.01731 1969.41 9.01731 Q1987 9.01731 1987 24.6133 Q1987 35.7128 1980.03 39.7637 Q1991.37 43.4095 1991.37 54.2254 Q1991.37 73.4267 1971.85 73.4267 Q1963.26 73.4267 1959.65 69.7809 M1959.65 60.0587 Q1964.15 67.0668 1972.13 67.0668 Q1983.8 67.0668 1983.8 54.3469 Q1983.8 42.9234 1965 43.8146 L1965 36.928 Q1979.7 36.928 1979.7 23.9651 Q1979.7 15.0937 1970.22 15.0937 Q1959.65 15.0937 1959.65 27.7325 L1959.65 60.0587 Z" fill="#000000" fill-rule="nonzero" fill-opacity="1" /><polyline clip-path="url(#clip381)" style="stroke:#ff0000; stroke-linecap:round; stroke-linejoin:round; stroke-width:8; stroke-opacity:1; fill:none" points="309.459,1654.24 318.89,1646.74 328.321,1637.71 337.751,1626.87 347.182,1613.9 356.613,1598.45 366.044,1580.1 375.475,1558.41 384.905,1532.9 394.336,1503.1 403.767,1468.48 413.198,1428.55 422.629,1382.9 432.06,1331.21 441.49,1273.31 450.921,1209.22 460.352,1139.14 469.783,1063.6 479.214,983.447 488.644,899.837 498.075,814.254 507.506,728.331 516.937,643.824 526.368,562.685 535.798,486.605 545.229,417.011 554.66,355.059 564.091,301.64 573.522,257.379 582.953,222.631 592.383,197.434 601.814,181.256 611.245,173.425 620.676,173.254 630.107,180.039 639.537,193.06 648.968,211.582 658.399,234.853 667.83,262.105 677.261,292.568 686.691,325.695 696.122,360.912 705.553,397.649 714.984,435.4 724.415,473.731 733.846,512.271 743.276,550.721 752.707,588.845 762.138,626.479 771.569,663.522 781,699.945 790.43,735.784 799.861,771.143 809.292,806.193 818.723,841.083 828.154,875.146 837.585,908.178 847.015,940.172 856.446,971.121 865.877,1001.03 875.308,1029.89 884.739,1057.72 894.169,1084.53 903.6,1110.34 913.031,1135.17 922.462,1159.04 931.893,1181.98 941.323,1204.02 950.754,1225.19 960.185,1245.51 969.616,1265.01 979.047,1283.71 988.478,1301.63 997.908,1318.82 1007.34,1335.28 1016.77,1351.04 1026.2,1366.13 1035.63,1380.57 1045.06,1394.39 1054.49,1407.61 1063.92,1420.26 1073.35,1432.35 1082.79,1443.91 1092.22,1454.96 1101.65,1465.53 1111.08,1475.63 1120.51,1485.3 1129.94,1494.54 1139.37,1503.38 1148.8,1511.84 1158.23,1519.92 1167.66,1527.63 1177.09,1535.01 1186.52,1542.05 1195.96,1548.77 1205.39,1555.18 1214.82,1561.31 1224.25,1567.15 1233.68,1572.73 1243.11,1578.06 1252.54,1583.14 1261.97,1587.99 1271.4,1592.62 1280.83,1597.05 1290.26,1601.27 1299.69,1605.32 1309.13,1609.18 1318.56,1612.87 1327.99,1616.39 1337.42,1619.75 1346.85,1622.96 1356.28,1626.02 1365.71,1628.94 1375.14,1631.72 1384.57,1634.38 1394,1636.91 1403.43,1639.32 1412.86,1641.62 1422.29,1643.81 1431.73,1645.9 1441.16,1647.89 1450.59,1649.79 1460.02,1651.6 1469.45,1653.34 1478.88,1654.99 1488.31,1656.57 1497.74,1658.08 1507.17,1659.52 1516.6,1660.9 1526.03,1662.21 1535.46,1663.46 1544.9,1664.65 1554.33,1665.79 1563.76,1666.87 1573.19,1667.9 1582.62,1668.88 1592.05,1669.82 1601.48,1670.71 1610.91,1671.56 1620.34,1672.37 1629.77,1673.14 1639.2,1673.87 1648.63,1674.58 1658.07,1675.25 1667.5,1675.89 1676.93,1676.5 1686.36,1677.08 1695.79,1677.64 1705.22,1678.17 1714.65,1678.67 1724.08,1679.15 1733.51,1679.61 1742.94,1680.05 1752.37,1680.46 1761.8,1680.86 1771.23,1681.23 1780.67,1681.59 1790.1,1681.93 1799.53,1682.26 1808.96,1682.57 1818.39,1682.86 1827.82,1683.14 1837.25,1683.41 1846.68,1683.67 1856.11,1683.91 1865.54,1684.14 1874.97,1684.37 1884.4,1684.58 1893.84,1684.78 1903.27,1684.97 1912.7,1685.15 1922.13,1685.32 1931.56,1685.49 1940.99,1685.64 1950.42,1685.79 1959.85,1685.93 1969.28,1686.07 1978.71,1686.2 1988.14,1686.32 1997.57,1686.44 2007.01,1686.55 2016.44,1686.65 2025.87,1686.75 2035.3,1686.85 2044.73,1686.94 2054.16,1687.03 2063.59,1687.11 2073.02,1687.19 2082.45,1687.27 2091.88,1687.34 2101.31,1687.41 2110.74,1687.47 2120.18,1687.53 2129.61,1687.59 2139.04,1687.65 2148.47,1687.7 2157.9,1687.75 2167.33,1687.8 2176.76,1687.85 2186.19,1687.89 2195.62,1687.93 2205.05,1687.97 2214.48,1688.01 2223.91,1688.05 2233.34,1688.08 2242.78,1688.11 2252.21,1688.15 2261.64,1688.18 2271.07,1688.2 2280.5,1688.23 2289.93,1688.26 2299.36,1688.28 2308.79,1688.3 2318.22,1688.33 2327.65,1688.35 2337.08,1688.37 2346.51,1688.39 2355.95,1688.41 2365.38,1688.42 2374.81,1688.44 2384.24,1688.46 2393.67,1688.47 2403.1,1688.49 2412.53,1688.5 2421.96,1688.51 2431.39,1688.53 2440.82,1688.54 2450.25,1688.55 2459.68,1688.56 2469.12,1688.57 2478.55,1688.58 2487.98,1688.59 2497.41,1688.6 2506.84,1688.61 2516.27,1688.61 2525.7,1688.62 2535.13,1688.63 2544.56,1688.64 2553.99,1688.64 2563.42,1688.65 2572.85,1688.65 "/>
<path clip-path="url(#clip380)" d="M2084.13 285.016 L2560.78 285.016 L2560.78 181.336 L2084.13 181.336  Z" fill="#ffffff" fill-rule="evenodd" fill-opacity="1"/>
<polyline clip-path="url(#clip380)" style="stroke:#000000; stroke-linecap:round; stroke-linejoin:round; stroke-width:4; stroke-opacity:1; fill:none" points="2084.13,285.016 2560.78,285.016 2560.78,181.336 2084.13,181.336 2084.13,285.016 "/>
<polyline clip-path="url(#clip380)" style="stroke:#ff0000; stroke-linecap:round; stroke-linejoin:round; stroke-width:8; stroke-opacity:1; fill:none" points="2110.79,233.176 2270.73,233.176 "/>
<path clip-path="url(#clip380)" d="M2297.39 215.896 L2302.07 215.896 L2302.07 250.456 L2297.39 250.456 L2297.39 215.896 Z" fill="#000000" fill-rule="nonzero" fill-opacity="1" /><path clip-path="url(#clip380)" d="M2336.49 214.484 Q2333.39 219.808 2331.88 225.017 Q2330.38 230.225 2330.38 235.572 Q2330.38 240.919 2331.88 246.174 Q2333.41 251.405 2336.49 256.706 L2332.78 256.706 Q2329.31 251.266 2327.58 246.012 Q2325.86 240.757 2325.86 235.572 Q2325.86 230.41 2327.58 225.179 Q2329.29 219.947 2332.78 214.484 L2336.49 214.484 Z" fill="#000000" fill-rule="nonzero" fill-opacity="1" /><path clip-path="url(#clip380)" d="M2344.75 214.438 L2349.01 214.438 L2349.01 250.456 L2344.75 250.456 L2344.75 214.438 Z" fill="#000000" fill-rule="nonzero" fill-opacity="1" /><path clip-path="url(#clip380)" d="M2357.92 224.531 L2362.18 224.531 L2362.18 250.456 L2357.92 250.456 L2357.92 224.531 M2357.92 214.438 L2362.18 214.438 L2362.18 219.831 L2357.92 219.831 L2357.92 214.438 Z" fill="#000000" fill-rule="nonzero" fill-opacity="1" /><path clip-path="url(#clip380)" d="M2392.64 234.808 L2392.64 250.456 L2388.38 250.456 L2388.38 234.947 Q2388.38 231.267 2386.95 229.438 Q2385.51 227.609 2382.64 227.609 Q2379.2 227.609 2377.2 229.808 Q2375.21 232.007 2375.21 235.804 L2375.21 250.456 L2370.93 250.456 L2370.93 224.531 L2375.21 224.531 L2375.21 228.558 Q2376.74 226.22 2378.8 225.063 Q2380.88 223.906 2383.59 223.906 Q2388.06 223.906 2390.35 226.683 Q2392.64 229.438 2392.64 234.808 Z" fill="#000000" fill-rule="nonzero" fill-opacity="1" /><path clip-path="url(#clip380)" d="M2423.32 236.429 L2423.32 238.512 L2403.73 238.512 Q2404.01 242.91 2406.37 245.225 Q2408.76 247.516 2412.99 247.516 Q2415.44 247.516 2417.74 246.915 Q2420.05 246.313 2422.32 245.109 L2422.32 249.137 Q2420.03 250.109 2417.62 250.618 Q2415.21 251.128 2412.74 251.128 Q2406.53 251.128 2402.9 247.516 Q2399.29 243.905 2399.29 237.748 Q2399.29 231.382 2402.71 227.655 Q2406.16 223.906 2412 223.906 Q2417.23 223.906 2420.26 227.285 Q2423.32 230.642 2423.32 236.429 M2419.06 235.179 Q2419.01 231.683 2417.09 229.6 Q2415.19 227.517 2412.04 227.517 Q2408.48 227.517 2406.32 229.53 Q2404.19 231.544 2403.87 235.202 L2419.06 235.179 Z" fill="#000000" fill-rule="nonzero" fill-opacity="1" /><path clip-path="url(#clip380)" d="M2442.09 237.424 Q2436.93 237.424 2434.94 238.604 Q2432.94 239.785 2432.94 242.632 Q2432.94 244.901 2434.43 246.243 Q2435.93 247.563 2438.5 247.563 Q2442.04 247.563 2444.17 245.063 Q2446.32 242.54 2446.32 238.373 L2446.32 237.424 L2442.09 237.424 M2450.58 235.665 L2450.58 250.456 L2446.32 250.456 L2446.32 246.521 Q2444.87 248.882 2442.69 250.016 Q2440.51 251.128 2437.37 251.128 Q2433.38 251.128 2431.02 248.905 Q2428.69 246.66 2428.69 242.91 Q2428.69 238.535 2431.6 236.313 Q2434.54 234.091 2440.35 234.091 L2446.32 234.091 L2446.32 233.674 Q2446.32 230.734 2444.38 229.137 Q2442.46 227.517 2438.96 227.517 Q2436.74 227.517 2434.63 228.049 Q2432.53 228.581 2430.58 229.646 L2430.58 225.711 Q2432.92 224.808 2435.12 224.368 Q2437.32 223.906 2439.4 223.906 Q2445.03 223.906 2447.81 226.822 Q2450.58 229.739 2450.58 235.665 Z" fill="#000000" fill-rule="nonzero" fill-opacity="1" /><path clip-path="url(#clip380)" d="M2474.38 228.512 Q2473.66 228.095 2472.81 227.91 Q2471.97 227.702 2470.95 227.702 Q2467.34 227.702 2465.4 230.063 Q2463.48 232.401 2463.48 236.799 L2463.48 250.456 L2459.19 250.456 L2459.19 224.531 L2463.48 224.531 L2463.48 228.558 Q2464.82 226.197 2466.97 225.063 Q2469.13 223.906 2472.2 223.906 Q2472.64 223.906 2473.18 223.975 Q2473.71 224.021 2474.36 224.137 L2474.38 228.512 Z" fill="#000000" fill-rule="nonzero" fill-opacity="1" /><path clip-path="url(#clip380)" d="M2498.18 248.859 L2498.18 260.317 L2493.89 260.317 L2493.89 224.693 Q2493.89 214.137 2503.75 214.137 Q2513.8 214.137 2513.8 223.049 Q2513.8 229.392 2509.82 231.706 Q2516.3 233.79 2516.3 239.97 Q2516.3 250.942 2505.14 250.942 Q2500.24 250.942 2498.18 248.859 M2498.18 243.304 Q2500.75 247.308 2505.31 247.308 Q2511.97 247.308 2511.97 240.04 Q2511.97 233.512 2501.23 234.021 L2501.23 230.086 Q2509.63 230.086 2509.63 222.679 Q2509.63 217.609 2504.22 217.609 Q2498.18 217.609 2498.18 224.831 L2498.18 243.304 Z" fill="#000000" fill-rule="nonzero" fill-opacity="1" /><path clip-path="url(#clip380)" d="M2523.5 214.484 L2527.2 214.484 Q2530.68 219.947 2532.39 225.179 Q2534.12 230.41 2534.12 235.572 Q2534.12 240.757 2532.39 246.012 Q2530.68 251.266 2527.2 256.706 L2523.5 256.706 Q2526.58 251.405 2528.08 246.174 Q2529.61 240.919 2529.61 235.572 Q2529.61 230.225 2528.08 225.017 Q2526.58 219.808 2523.5 214.484 Z" fill="#000000" fill-rule="nonzero" fill-opacity="1" /></svg>
