<?xml version="1.0" encoding="utf-8"?>
<svg xmlns="http://www.w3.org/2000/svg" xmlns:xlink="http://www.w3.org/1999/xlink" width="672" height="480" viewBox="0 0 2688 1920">
<defs>
  <clipPath id="clip440">
    <rect x="0" y="0" width="2688" height="1920"/>
  </clipPath>
</defs>
<path clip-path="url(#clip440)" d="M0 1920 L2688 1920 L2688 -4.26326e-14 L0 -4.26326e-14  Z" fill="#ffffff" fill-rule="evenodd" fill-opacity="1"/>
<defs>
  <clipPath id="clip441">
    <rect x="241" y="127" width="2400" height="1607"/>
  </clipPath>
</defs>
<path clip-path="url(#clip440)" d="M241.557 1734.12 L2640.76 1734.12 L2640.76 127.792 L241.557 127.792  Z" fill="#ffffff" fill-rule="evenodd" fill-opacity="1"/>
<polyline clip-path="url(#clip441)" style="stroke:#000000; stroke-linecap:round; stroke-linejoin:round; stroke-width:2; stroke-opacity:0.1; fill:none" points="309.459,1734.12 309.459,127.792 "/>
<polyline clip-path="url(#clip441)" style="stroke:#000000; stroke-linecap:round; stroke-linejoin:round; stroke-width:2; stroke-opacity:0.1; fill:none" points="781,1734.12 781,127.792 "/>
<polyline clip-path="url(#clip441)" style="stroke:#000000; stroke-linecap:round; stroke-linejoin:round; stroke-width:2; stroke-opacity:0.1; fill:none" points="1252.54,1734.12 1252.54,127.792 "/>
<polyline clip-path="url(#clip441)" style="stroke:#000000; stroke-linecap:round; stroke-linejoin:round; stroke-width:2; stroke-opacity:0.1; fill:none" points="1724.08,1734.12 1724.08,127.792 "/>
<polyline clip-path="url(#clip441)" style="stroke:#000000; stroke-linecap:round; stroke-linejoin:round; stroke-width:2; stroke-opacity:0.1; fill:none" points="2195.62,1734.12 2195.62,127.792 "/>
<polyline clip-path="url(#clip441)" style="stroke:#000000; stroke-linecap:round; stroke-linejoin:round; stroke-width:2; stroke-opacity:0.1; fill:none" points="241.557,1688.73 2640.76,1688.73 "/>
<polyline clip-path="url(#clip441)" style="stroke:#000000; stroke-linecap:round; stroke-linejoin:round; stroke-width:2; stroke-opacity:0.1; fill:none" points="241.557,1391.41 2640.76,1391.41 "/>
<polyline clip-path="url(#clip441)" style="stroke:#000000; stroke-linecap:round; stroke-linejoin:round; stroke-width:2; stroke-opacity:0.1; fill:none" points="241.557,1094.08 2640.76,1094.08 "/>
<polyline clip-path="url(#clip441)" style="stroke:#000000; stroke-linecap:round; stroke-linejoin:round; stroke-width:2; stroke-opacity:0.1; fill:none" points="241.557,796.755 2640.76,796.755 "/>
<polyline clip-path="url(#clip441)" style="stroke:#000000; stroke-linecap:round; stroke-linejoin:round; stroke-width:2; stroke-opacity:0.1; fill:none" points="241.557,499.429 2640.76,499.429 "/>
<polyline clip-path="url(#clip441)" style="stroke:#000000; stroke-linecap:round; stroke-linejoin:round; stroke-width:2; stroke-opacity:0.1; fill:none" points="241.557,202.104 2640.76,202.104 "/>
<polyline clip-path="url(#clip440)" style="stroke:#000000; stroke-linecap:round; stroke-linejoin:round; stroke-width:4; stroke-opacity:1; fill:none" points="241.557,1734.12 2640.76,1734.12 "/>
<polyline clip-path="url(#clip440)" style="stroke:#000000; stroke-linecap:round; stroke-linejoin:round; stroke-width:4; stroke-opacity:1; fill:none" points="309.459,1734.12 309.459,1715.22 "/>
<polyline clip-path="url(#clip440)" style="stroke:#000000; stroke-linecap:round; stroke-linejoin:round; stroke-width:4; stroke-opacity:1; fill:none" points="781,1734.12 781,1715.22 "/>
<polyline clip-path="url(#clip440)" style="stroke:#000000; stroke-linecap:round; stroke-linejoin:round; stroke-width:4; stroke-opacity:1; fill:none" points="1252.54,1734.12 1252.54,1715.22 "/>
<polyline clip-path="url(#clip440)" style="stroke:#000000; stroke-linecap:round; stroke-linejoin:round; stroke-width:4; stroke-opacity:1; fill:none" points="1724.08,1734.12 1724.08,1715.22 "/>
<polyline clip-path="url(#clip440)" style="stroke:#000000; stroke-linecap:round; stroke-linejoin:round; stroke-width:4; stroke-opacity:1; fill:none" points="2195.62,1734.12 2195.62,1715.22 "/>
<path clip-path="url(#clip440)" d="M309.459 1767.34 Q305.848 1767.34 304.019 1770.9 Q302.214 1774.45 302.214 1781.58 Q302.214 1788.68 304.019 1792.25 Q305.848 1795.79 309.459 1795.79 Q313.093 1795.79 314.899 1792.25 Q316.727 1788.68 316.727 1781.58 Q316.727 1774.45 314.899 1770.9 Q313.093 1767.34 309.459 1767.34 M309.459 1763.64 Q315.269 1763.64 318.325 1768.24 Q321.403 1772.83 321.403 1781.58 Q321.403 1790.3 318.325 1794.91 Q315.269 1799.49 309.459 1799.49 Q303.649 1799.49 300.57 1794.91 Q297.515 1790.3 297.515 1781.58 Q297.515 1772.83 300.57 1768.24 Q303.649 1763.64 309.459 1763.64 Z" fill="#000000" fill-rule="nonzero" fill-opacity="1" /><path clip-path="url(#clip440)" d="M760.271 1794.89 L776.59 1794.89 L776.59 1798.82 L754.646 1798.82 L754.646 1794.89 Q757.308 1792.13 761.891 1787.5 Q766.497 1782.85 767.678 1781.51 Q769.923 1778.98 770.803 1777.25 Q771.706 1775.49 771.706 1773.8 Q771.706 1771.04 769.761 1769.31 Q767.84 1767.57 764.738 1767.57 Q762.539 1767.57 760.085 1768.34 Q757.655 1769.1 754.877 1770.65 L754.877 1765.93 Q757.701 1764.79 760.155 1764.21 Q762.609 1763.64 764.646 1763.64 Q770.016 1763.64 773.21 1766.32 Q776.405 1769.01 776.405 1773.5 Q776.405 1775.63 775.595 1777.55 Q774.808 1779.45 772.701 1782.04 Q772.122 1782.71 769.021 1785.93 Q765.919 1789.12 760.271 1794.89 Z" fill="#000000" fill-rule="nonzero" fill-opacity="1" /><path clip-path="url(#clip440)" d="M786.451 1764.26 L804.807 1764.26 L804.807 1768.2 L790.733 1768.2 L790.733 1776.67 Q791.752 1776.32 792.77 1776.16 Q793.789 1775.97 794.807 1775.97 Q800.594 1775.97 803.974 1779.15 Q807.354 1782.32 807.354 1787.73 Q807.354 1793.31 803.881 1796.41 Q800.409 1799.49 794.09 1799.49 Q791.914 1799.49 789.645 1799.12 Q787.4 1798.75 784.993 1798.01 L784.993 1793.31 Q787.076 1794.45 789.298 1795 Q791.52 1795.56 793.997 1795.56 Q798.002 1795.56 800.34 1793.45 Q802.678 1791.34 802.678 1787.73 Q802.678 1784.12 800.34 1782.02 Q798.002 1779.91 793.997 1779.91 Q792.122 1779.91 790.247 1780.33 Q788.395 1780.74 786.451 1781.62 L786.451 1764.26 Z" fill="#000000" fill-rule="nonzero" fill-opacity="1" /><path clip-path="url(#clip440)" d="M1227.24 1764.26 L1245.6 1764.26 L1245.6 1768.2 L1231.52 1768.2 L1231.52 1776.67 Q1232.54 1776.32 1233.56 1776.16 Q1234.58 1775.97 1235.6 1775.97 Q1241.38 1775.97 1244.76 1779.15 Q1248.14 1782.32 1248.14 1787.73 Q1248.14 1793.31 1244.67 1796.41 Q1241.2 1799.49 1234.88 1799.49 Q1232.7 1799.49 1230.43 1799.12 Q1228.19 1798.75 1225.78 1798.01 L1225.78 1793.31 Q1227.86 1794.45 1230.09 1795 Q1232.31 1795.56 1234.79 1795.56 Q1238.79 1795.56 1241.13 1793.45 Q1243.47 1791.34 1243.47 1787.73 Q1243.47 1784.12 1241.13 1782.02 Q1238.79 1779.91 1234.79 1779.91 Q1232.91 1779.91 1231.04 1780.33 Q1229.18 1780.74 1227.24 1781.62 L1227.24 1764.26 Z" fill="#000000" fill-rule="nonzero" fill-opacity="1" /><path clip-path="url(#clip440)" d="M1267.36 1767.34 Q1263.74 1767.34 1261.92 1770.9 Q1260.11 1774.45 1260.11 1781.58 Q1260.11 1788.68 1261.92 1792.25 Q1263.74 1795.79 1267.36 1795.79 Q1270.99 1795.79 1272.79 1792.25 Q1274.62 1788.68 1274.62 1781.58 Q1274.62 1774.45 1272.79 1770.9 Q1270.99 1767.34 1267.36 1767.34 M1267.36 1763.64 Q1273.17 1763.64 1276.22 1768.24 Q1279.3 1772.83 1279.3 1781.58 Q1279.3 1790.3 1276.22 1794.91 Q1273.17 1799.49 1267.36 1799.49 Q1261.54 1799.49 1258.47 1794.91 Q1255.41 1790.3 1255.41 1781.58 Q1255.41 1772.83 1258.47 1768.24 Q1261.54 1763.64 1267.36 1763.64 Z" fill="#000000" fill-rule="nonzero" fill-opacity="1" /><path clip-path="url(#clip440)" d="M1697.94 1764.26 L1720.16 1764.26 L1720.16 1766.25 L1707.61 1798.82 L1702.73 1798.82 L1714.53 1768.2 L1697.94 1768.2 L1697.94 1764.26 Z" fill="#000000" fill-rule="nonzero" fill-opacity="1" /><path clip-path="url(#clip440)" d="M1729.32 1764.26 L1747.68 1764.26 L1747.68 1768.2 L1733.61 1768.2 L1733.61 1776.67 Q1734.62 1776.32 1735.64 1776.16 Q1736.66 1775.97 1737.68 1775.97 Q1743.47 1775.97 1746.85 1779.15 Q1750.23 1782.32 1750.23 1787.73 Q1750.23 1793.31 1746.75 1796.41 Q1743.28 1799.49 1736.96 1799.49 Q1734.79 1799.49 1732.52 1799.12 Q1730.27 1798.75 1727.87 1798.01 L1727.87 1793.31 Q1729.95 1794.45 1732.17 1795 Q1734.39 1795.56 1736.87 1795.56 Q1740.87 1795.56 1743.21 1793.45 Q1745.55 1791.34 1745.55 1787.73 Q1745.55 1784.12 1743.21 1782.02 Q1740.87 1779.91 1736.87 1779.91 Q1735 1779.91 1733.12 1780.33 Q1731.27 1780.74 1729.32 1781.62 L1729.32 1764.26 Z" fill="#000000" fill-rule="nonzero" fill-opacity="1" /><path clip-path="url(#clip440)" d="M2155.23 1794.89 L2162.87 1794.89 L2162.87 1768.52 L2154.56 1770.19 L2154.56 1765.93 L2162.82 1764.26 L2167.5 1764.26 L2167.5 1794.89 L2175.14 1794.89 L2175.14 1798.82 L2155.23 1798.82 L2155.23 1794.89 Z" fill="#000000" fill-rule="nonzero" fill-opacity="1" /><path clip-path="url(#clip440)" d="M2194.58 1767.34 Q2190.97 1767.34 2189.14 1770.9 Q2187.33 1774.45 2187.33 1781.58 Q2187.33 1788.68 2189.14 1792.25 Q2190.97 1795.79 2194.58 1795.79 Q2198.21 1795.79 2200.02 1792.25 Q2201.85 1788.68 2201.85 1781.58 Q2201.85 1774.45 2200.02 1770.9 Q2198.21 1767.34 2194.58 1767.34 M2194.58 1763.64 Q2200.39 1763.64 2203.45 1768.24 Q2206.52 1772.83 2206.52 1781.58 Q2206.52 1790.3 2203.45 1794.91 Q2200.39 1799.49 2194.58 1799.49 Q2188.77 1799.49 2185.69 1794.91 Q2182.64 1790.3 2182.64 1781.58 Q2182.64 1772.83 2185.69 1768.24 Q2188.77 1763.64 2194.58 1763.64 Z" fill="#000000" fill-rule="nonzero" fill-opacity="1" /><path clip-path="url(#clip440)" d="M2224.74 1767.34 Q2221.13 1767.34 2219.3 1770.9 Q2217.5 1774.45 2217.5 1781.58 Q2217.5 1788.68 2219.3 1792.25 Q2221.13 1795.79 2224.74 1795.79 Q2228.38 1795.79 2230.18 1792.25 Q2232.01 1788.68 2232.01 1781.58 Q2232.01 1774.45 2230.18 1770.9 Q2228.38 1767.34 2224.74 1767.34 M2224.74 1763.64 Q2230.55 1763.64 2233.61 1768.24 Q2236.69 1772.83 2236.69 1781.58 Q2236.69 1790.3 2233.61 1794.91 Q2230.55 1799.49 2224.74 1799.49 Q2218.93 1799.49 2215.85 1794.91 Q2212.8 1790.3 2212.8 1781.58 Q2212.8 1772.83 2215.85 1768.24 Q2218.93 1763.64 2224.74 1763.64 Z" fill="#000000" fill-rule="nonzero" fill-opacity="1" /><path clip-path="url(#clip440)" d="M1363.03 1835.78 L1403.23 1835.78 L1403.23 1841.19 L1386.36 1841.19 L1386.36 1883.3 L1379.9 1883.3 L1379.9 1841.19 L1363.03 1841.19 L1363.03 1835.78 Z" fill="#000000" fill-rule="nonzero" fill-opacity="1" /><path clip-path="url(#clip440)" d="M1407.18 1847.65 L1413.04 1847.65 L1413.04 1883.3 L1407.18 1883.3 L1407.18 1847.65 M1407.18 1833.78 L1413.04 1833.78 L1413.04 1841.19 L1407.18 1841.19 L1407.18 1833.78 Z" fill="#000000" fill-rule="nonzero" fill-opacity="1" /><path clip-path="url(#clip440)" d="M1453.04 1854.5 Q1455.24 1850.55 1458.3 1848.67 Q1461.35 1846.79 1465.49 1846.79 Q1471.06 1846.79 1474.08 1850.71 Q1477.11 1854.59 1477.11 1861.78 L1477.11 1883.3 L1471.22 1883.3 L1471.22 1861.98 Q1471.22 1856.85 1469.4 1854.37 Q1467.59 1851.89 1463.87 1851.89 Q1459.31 1851.89 1456.67 1854.91 Q1454.03 1857.93 1454.03 1863.15 L1454.03 1883.3 L1448.14 1883.3 L1448.14 1861.98 Q1448.14 1856.82 1446.33 1854.37 Q1444.51 1851.89 1440.73 1851.89 Q1436.24 1851.89 1433.6 1854.94 Q1430.96 1857.97 1430.96 1863.15 L1430.96 1883.3 L1425.07 1883.3 L1425.07 1847.65 L1430.96 1847.65 L1430.96 1853.19 Q1432.96 1849.91 1435.76 1848.35 Q1438.56 1846.79 1442.41 1846.79 Q1446.3 1846.79 1449 1848.77 Q1451.74 1850.74 1453.04 1854.5 Z" fill="#000000" fill-rule="nonzero" fill-opacity="1" /><path clip-path="url(#clip440)" d="M1519.28 1864.01 L1519.28 1866.88 L1492.35 1866.88 Q1492.73 1872.92 1495.98 1876.11 Q1499.26 1879.26 1505.08 1879.26 Q1508.46 1879.26 1511.61 1878.43 Q1514.79 1877.6 1517.91 1875.95 L1517.91 1881.49 Q1514.76 1882.82 1511.45 1883.52 Q1508.14 1884.22 1504.73 1884.22 Q1496.2 1884.22 1491.21 1879.26 Q1486.24 1874.29 1486.24 1865.83 Q1486.24 1857.07 1490.95 1851.95 Q1495.69 1846.79 1503.72 1846.79 Q1510.91 1846.79 1515.08 1851.44 Q1519.28 1856.06 1519.28 1864.01 M1513.42 1862.29 Q1513.36 1857.49 1510.72 1854.62 Q1508.11 1851.76 1503.78 1851.76 Q1498.88 1851.76 1495.92 1854.53 Q1492.99 1857.3 1492.54 1862.33 L1513.42 1862.29 Z" fill="#000000" fill-rule="nonzero" fill-opacity="1" /><polyline clip-path="url(#clip440)" style="stroke:#000000; stroke-linecap:round; stroke-linejoin:round; stroke-width:4; stroke-opacity:1; fill:none" points="241.557,1734.12 241.557,127.792 "/>
<polyline clip-path="url(#clip440)" style="stroke:#000000; stroke-linecap:round; stroke-linejoin:round; stroke-width:4; stroke-opacity:1; fill:none" points="241.557,1688.73 260.455,1688.73 "/>
<polyline clip-path="url(#clip440)" style="stroke:#000000; stroke-linecap:round; stroke-linejoin:round; stroke-width:4; stroke-opacity:1; fill:none" points="241.557,1391.41 260.455,1391.41 "/>
<polyline clip-path="url(#clip440)" style="stroke:#000000; stroke-linecap:round; stroke-linejoin:round; stroke-width:4; stroke-opacity:1; fill:none" points="241.557,1094.08 260.455,1094.08 "/>
<polyline clip-path="url(#clip440)" style="stroke:#000000; stroke-linecap:round; stroke-linejoin:round; stroke-width:4; stroke-opacity:1; fill:none" points="241.557,796.755 260.455,796.755 "/>
<polyline clip-path="url(#clip440)" style="stroke:#000000; stroke-linecap:round; stroke-linejoin:round; stroke-width:4; stroke-opacity:1; fill:none" points="241.557,499.429 260.455,499.429 "/>
<polyline clip-path="url(#clip440)" style="stroke:#000000; stroke-linecap:round; stroke-linejoin:round; stroke-width:4; stroke-opacity:1; fill:none" points="241.557,202.104 260.455,202.104 "/>
<path clip-path="url(#clip440)" d="M189.293 1674.53 Q185.682 1674.53 183.853 1678.09 Q182.047 1681.64 182.047 1688.77 Q182.047 1695.87 183.853 1699.44 Q185.682 1702.98 189.293 1702.98 Q192.927 1702.98 194.733 1699.44 Q196.561 1695.87 196.561 1688.77 Q196.561 1681.64 194.733 1678.09 Q192.927 1674.53 189.293 1674.53 M189.293 1670.83 Q195.103 1670.83 198.158 1675.43 Q201.237 1680.02 201.237 1688.77 Q201.237 1697.49 198.158 1702.1 Q195.103 1706.68 189.293 1706.68 Q183.483 1706.68 180.404 1702.1 Q177.348 1697.49 177.348 1688.77 Q177.348 1680.02 180.404 1675.43 Q183.483 1670.83 189.293 1670.83 Z" fill="#000000" fill-rule="nonzero" fill-opacity="1" /><path clip-path="url(#clip440)" d="M119.779 1404.75 L127.418 1404.75 L127.418 1378.39 L119.108 1380.05 L119.108 1375.79 L127.372 1374.13 L132.048 1374.13 L132.048 1404.75 L139.687 1404.75 L139.687 1408.69 L119.779 1408.69 L119.779 1404.75 Z" fill="#000000" fill-rule="nonzero" fill-opacity="1" /><path clip-path="url(#clip440)" d="M159.131 1377.2 Q155.52 1377.2 153.691 1380.77 Q151.886 1384.31 151.886 1391.44 Q151.886 1398.55 153.691 1402.11 Q155.52 1405.65 159.131 1405.65 Q162.765 1405.65 164.571 1402.11 Q166.399 1398.55 166.399 1391.44 Q166.399 1384.31 164.571 1380.77 Q162.765 1377.2 159.131 1377.2 M159.131 1373.5 Q164.941 1373.5 167.997 1378.11 Q171.075 1382.69 171.075 1391.44 Q171.075 1400.17 167.997 1404.77 Q164.941 1409.36 159.131 1409.36 Q153.321 1409.36 150.242 1404.77 Q147.186 1400.17 147.186 1391.44 Q147.186 1382.69 150.242 1378.11 Q153.321 1373.5 159.131 1373.5 Z" fill="#000000" fill-rule="nonzero" fill-opacity="1" /><path clip-path="url(#clip440)" d="M189.293 1377.2 Q185.682 1377.2 183.853 1380.77 Q182.047 1384.31 182.047 1391.44 Q182.047 1398.55 183.853 1402.11 Q185.682 1405.65 189.293 1405.65 Q192.927 1405.65 194.733 1402.11 Q196.561 1398.55 196.561 1391.44 Q196.561 1384.31 194.733 1380.77 Q192.927 1377.2 189.293 1377.2 M189.293 1373.5 Q195.103 1373.5 198.158 1378.11 Q201.237 1382.69 201.237 1391.44 Q201.237 1400.17 198.158 1404.77 Q195.103 1409.36 189.293 1409.36 Q183.483 1409.36 180.404 1404.77 Q177.348 1400.17 177.348 1391.44 Q177.348 1382.69 180.404 1378.11 Q183.483 1373.5 189.293 1373.5 Z" fill="#000000" fill-rule="nonzero" fill-opacity="1" /><path clip-path="url(#clip440)" d="M122.997 1107.43 L139.316 1107.43 L139.316 1111.36 L117.372 1111.36 L117.372 1107.43 Q120.034 1104.67 124.617 1100.04 Q129.224 1095.39 130.404 1094.05 Q132.65 1091.52 133.529 1089.79 Q134.432 1088.03 134.432 1086.34 Q134.432 1083.58 132.488 1081.85 Q130.566 1080.11 127.464 1080.11 Q125.265 1080.11 122.812 1080.87 Q120.381 1081.64 117.603 1083.19 L117.603 1078.47 Q120.427 1077.33 122.881 1076.75 Q125.335 1076.18 127.372 1076.18 Q132.742 1076.18 135.937 1078.86 Q139.131 1081.55 139.131 1086.04 Q139.131 1088.17 138.321 1090.09 Q137.534 1091.99 135.427 1094.58 Q134.849 1095.25 131.747 1098.47 Q128.645 1101.66 122.997 1107.43 Z" fill="#000000" fill-rule="nonzero" fill-opacity="1" /><path clip-path="url(#clip440)" d="M159.131 1079.88 Q155.52 1079.88 153.691 1083.44 Q151.886 1086.99 151.886 1094.12 Q151.886 1101.22 153.691 1104.79 Q155.52 1108.33 159.131 1108.33 Q162.765 1108.33 164.571 1104.79 Q166.399 1101.22 166.399 1094.12 Q166.399 1086.99 164.571 1083.44 Q162.765 1079.88 159.131 1079.88 M159.131 1076.18 Q164.941 1076.18 167.997 1080.78 Q171.075 1085.37 171.075 1094.12 Q171.075 1102.84 167.997 1107.45 Q164.941 1112.03 159.131 1112.03 Q153.321 1112.03 150.242 1107.45 Q147.186 1102.84 147.186 1094.12 Q147.186 1085.37 150.242 1080.78 Q153.321 1076.18 159.131 1076.18 Z" fill="#000000" fill-rule="nonzero" fill-opacity="1" /><path clip-path="url(#clip440)" d="M189.293 1079.88 Q185.682 1079.88 183.853 1083.44 Q182.047 1086.99 182.047 1094.12 Q182.047 1101.22 183.853 1104.79 Q185.682 1108.33 189.293 1108.33 Q192.927 1108.33 194.733 1104.79 Q196.561 1101.22 196.561 1094.12 Q196.561 1086.99 194.733 1083.44 Q192.927 1079.88 189.293 1079.88 M189.293 1076.18 Q195.103 1076.18 198.158 1080.78 Q201.237 1085.37 201.237 1094.12 Q201.237 1102.84 198.158 1107.45 Q195.103 1112.03 189.293 1112.03 Q183.483 1112.03 180.404 1107.45 Q177.348 1102.84 177.348 1094.12 Q177.348 1085.37 180.404 1080.78 Q183.483 1076.18 189.293 1076.18 Z" fill="#000000" fill-rule="nonzero" fill-opacity="1" /><path clip-path="url(#clip440)" d="M133.136 795.401 Q136.492 796.118 138.367 798.387 Q140.265 800.655 140.265 803.989 Q140.265 809.104 136.747 811.905 Q133.228 814.706 126.747 814.706 Q124.571 814.706 122.256 814.266 Q119.964 813.85 117.511 812.993 L117.511 808.479 Q119.455 809.614 121.77 810.192 Q124.085 810.771 126.608 810.771 Q131.006 810.771 133.298 809.035 Q135.612 807.299 135.612 803.989 Q135.612 800.933 133.46 799.22 Q131.33 797.484 127.511 797.484 L123.483 797.484 L123.483 793.641 L127.696 793.641 Q131.145 793.641 132.974 792.276 Q134.802 790.887 134.802 788.294 Q134.802 785.632 132.904 784.22 Q131.029 782.785 127.511 782.785 Q125.589 782.785 123.39 783.202 Q121.191 783.618 118.552 784.498 L118.552 780.331 Q121.214 779.591 123.529 779.22 Q125.867 778.85 127.927 778.85 Q133.251 778.85 136.353 781.28 Q139.455 783.688 139.455 787.808 Q139.455 790.679 137.812 792.669 Q136.168 794.637 133.136 795.401 Z" fill="#000000" fill-rule="nonzero" fill-opacity="1" /><path clip-path="url(#clip440)" d="M159.131 782.554 Q155.52 782.554 153.691 786.118 Q151.886 789.66 151.886 796.79 Q151.886 803.896 153.691 807.461 Q155.52 811.002 159.131 811.002 Q162.765 811.002 164.571 807.461 Q166.399 803.896 166.399 796.79 Q166.399 789.66 164.571 786.118 Q162.765 782.554 159.131 782.554 M159.131 778.85 Q164.941 778.85 167.997 783.456 Q171.075 788.04 171.075 796.79 Q171.075 805.516 167.997 810.123 Q164.941 814.706 159.131 814.706 Q153.321 814.706 150.242 810.123 Q147.186 805.516 147.186 796.79 Q147.186 788.04 150.242 783.456 Q153.321 778.85 159.131 778.85 Z" fill="#000000" fill-rule="nonzero" fill-opacity="1" /><path clip-path="url(#clip440)" d="M189.293 782.554 Q185.682 782.554 183.853 786.118 Q182.047 789.66 182.047 796.79 Q182.047 803.896 183.853 807.461 Q185.682 811.002 189.293 811.002 Q192.927 811.002 194.733 807.461 Q196.561 803.896 196.561 796.79 Q196.561 789.66 194.733 786.118 Q192.927 782.554 189.293 782.554 M189.293 778.85 Q195.103 778.85 198.158 783.456 Q201.237 788.04 201.237 796.79 Q201.237 805.516 198.158 810.123 Q195.103 814.706 189.293 814.706 Q183.483 814.706 180.404 810.123 Q177.348 805.516 177.348 796.79 Q177.348 788.04 180.404 783.456 Q183.483 778.85 189.293 778.85 Z" fill="#000000" fill-rule="nonzero" fill-opacity="1" /><path clip-path="url(#clip440)" d="M131.816 486.223 L120.011 504.672 L131.816 504.672 L131.816 486.223 M130.589 482.149 L136.469 482.149 L136.469 504.672 L141.399 504.672 L141.399 508.561 L136.469 508.561 L136.469 516.709 L131.816 516.709 L131.816 508.561 L116.214 508.561 L116.214 504.047 L130.589 482.149 Z" fill="#000000" fill-rule="nonzero" fill-opacity="1" /><path clip-path="url(#clip440)" d="M159.131 485.228 Q155.52 485.228 153.691 488.793 Q151.886 492.334 151.886 499.464 Q151.886 506.571 153.691 510.135 Q155.52 513.677 159.131 513.677 Q162.765 513.677 164.571 510.135 Q166.399 506.571 166.399 499.464 Q166.399 492.334 164.571 488.793 Q162.765 485.228 159.131 485.228 M159.131 481.524 Q164.941 481.524 167.997 486.131 Q171.075 490.714 171.075 499.464 Q171.075 508.191 167.997 512.797 Q164.941 517.381 159.131 517.381 Q153.321 517.381 150.242 512.797 Q147.186 508.191 147.186 499.464 Q147.186 490.714 150.242 486.131 Q153.321 481.524 159.131 481.524 Z" fill="#000000" fill-rule="nonzero" fill-opacity="1" /><path clip-path="url(#clip440)" d="M189.293 485.228 Q185.682 485.228 183.853 488.793 Q182.047 492.334 182.047 499.464 Q182.047 506.571 183.853 510.135 Q185.682 513.677 189.293 513.677 Q192.927 513.677 194.733 510.135 Q196.561 506.571 196.561 499.464 Q196.561 492.334 194.733 488.793 Q192.927 485.228 189.293 485.228 M189.293 481.524 Q195.103 481.524 198.158 486.131 Q201.237 490.714 201.237 499.464 Q201.237 508.191 198.158 512.797 Q195.103 517.381 189.293 517.381 Q183.483 517.381 180.404 512.797 Q177.348 508.191 177.348 499.464 Q177.348 490.714 180.404 486.131 Q183.483 481.524 189.293 481.524 Z" fill="#000000" fill-rule="nonzero" fill-opacity="1" /><path clip-path="url(#clip440)" d="M119.015 184.824 L137.372 184.824 L137.372 188.759 L123.298 188.759 L123.298 197.231 Q124.316 196.884 125.335 196.722 Q126.353 196.537 127.372 196.537 Q133.159 196.537 136.538 199.708 Q139.918 202.879 139.918 208.296 Q139.918 213.875 136.446 216.976 Q132.974 220.055 126.654 220.055 Q124.478 220.055 122.21 219.685 Q119.964 219.314 117.557 218.574 L117.557 213.875 Q119.64 215.009 121.863 215.564 Q124.085 216.12 126.562 216.12 Q130.566 216.12 132.904 214.013 Q135.242 211.907 135.242 208.296 Q135.242 204.685 132.904 202.578 Q130.566 200.472 126.562 200.472 Q124.687 200.472 122.812 200.889 Q120.96 201.305 119.015 202.185 L119.015 184.824 Z" fill="#000000" fill-rule="nonzero" fill-opacity="1" /><path clip-path="url(#clip440)" d="M159.131 187.902 Q155.52 187.902 153.691 191.467 Q151.886 195.009 151.886 202.139 Q151.886 209.245 153.691 212.81 Q155.52 216.351 159.131 216.351 Q162.765 216.351 164.571 212.81 Q166.399 209.245 166.399 202.139 Q166.399 195.009 164.571 191.467 Q162.765 187.902 159.131 187.902 M159.131 184.199 Q164.941 184.199 167.997 188.805 Q171.075 193.389 171.075 202.139 Q171.075 210.865 167.997 215.472 Q164.941 220.055 159.131 220.055 Q153.321 220.055 150.242 215.472 Q147.186 210.865 147.186 202.139 Q147.186 193.389 150.242 188.805 Q153.321 184.199 159.131 184.199 Z" fill="#000000" fill-rule="nonzero" fill-opacity="1" /><path clip-path="url(#clip440)" d="M189.293 187.902 Q185.682 187.902 183.853 191.467 Q182.047 195.009 182.047 202.139 Q182.047 209.245 183.853 212.81 Q185.682 216.351 189.293 216.351 Q192.927 216.351 194.733 212.81 Q196.561 209.245 196.561 202.139 Q196.561 195.009 194.733 191.467 Q192.927 187.902 189.293 187.902 M189.293 184.199 Q195.103 184.199 198.158 188.805 Q201.237 193.389 201.237 202.139 Q201.237 210.865 198.158 215.472 Q195.103 220.055 189.293 220.055 Q183.483 220.055 180.404 215.472 Q177.348 210.865 177.348 202.139 Q177.348 193.389 180.404 188.805 Q183.483 184.199 189.293 184.199 Z" fill="#000000" fill-rule="nonzero" fill-opacity="1" /><path clip-path="url(#clip440)" d="M14.1184 1058.03 L14.1184 1051.6 L61.6384 1051.6 L61.6384 1058.03 L14.1184 1058.03 Z" fill="#000000" fill-rule="nonzero" fill-opacity="1" /><path clip-path="url(#clip440)" d="M40.1224 1009.43 L61.6384 1009.43 L61.6384 1015.28 L40.3133 1015.28 Q35.2526 1015.28 32.7381 1017.26 Q30.2237 1019.23 30.2237 1023.18 Q30.2237 1027.92 33.2474 1030.66 Q36.2711 1033.39 41.491 1033.39 L61.6384 1033.39 L61.6384 1039.28 L25.9905 1039.28 L25.9905 1033.39 L31.5287 1033.39 Q28.314 1031.29 26.7225 1028.46 Q25.1311 1025.6 25.1311 1021.87 Q25.1311 1015.73 28.9505 1012.58 Q32.7381 1009.43 40.1224 1009.43 Z" fill="#000000" fill-rule="nonzero" fill-opacity="1" /><path clip-path="url(#clip440)" d="M12.1132 979.7 L16.983 979.7 L16.983 985.302 Q16.983 988.453 18.2562 989.694 Q19.5293 990.904 22.8395 990.904 L25.9905 990.904 L25.9905 981.26 L30.542 981.26 L30.542 990.904 L61.6384 990.904 L61.6384 996.792 L30.542 996.792 L30.542 1002.39 L25.9905 1002.39 L25.9905 996.792 L23.5079 996.792 Q17.5559 996.792 14.8505 994.023 Q12.1132 991.254 12.1132 985.238 L12.1132 979.7 Z" fill="#000000" fill-rule="nonzero" fill-opacity="1" /><path clip-path="url(#clip440)" d="M42.3504 944.307 L45.2149 944.307 L45.2149 971.234 Q51.2623 970.852 54.4452 967.605 Q57.5962 964.327 57.5962 958.502 Q57.5962 955.128 56.7687 951.977 Q55.9411 948.794 54.2861 945.675 L59.8242 945.675 Q61.161 948.826 61.8612 952.136 Q62.5615 955.447 62.5615 958.852 Q62.5615 967.382 57.5962 972.379 Q52.631 977.345 44.1646 977.345 Q35.4117 977.345 30.2873 972.634 Q25.1311 967.892 25.1311 959.871 Q25.1311 952.678 29.7781 948.508 Q34.3932 944.307 42.3504 944.307 M40.6316 950.163 Q35.8255 950.227 32.9609 952.869 Q30.0964 955.478 30.0964 959.807 Q30.0964 964.709 32.8654 967.669 Q35.6345 970.597 40.6634 971.043 L40.6316 950.163 Z" fill="#000000" fill-rule="nonzero" fill-opacity="1" /><path clip-path="url(#clip440)" d="M27.3591 909.041 L32.8336 909.041 Q31.465 911.523 30.7966 914.038 Q30.0964 916.52 30.0964 919.067 Q30.0964 924.764 33.7248 927.915 Q37.3214 931.066 43.8463 931.066 Q50.3711 931.066 53.9996 927.915 Q57.5962 924.764 57.5962 919.067 Q57.5962 916.52 56.9278 914.038 Q56.2276 911.523 54.859 909.041 L60.2698 909.041 Q61.4156 911.491 61.9886 914.133 Q62.5615 916.743 62.5615 919.703 Q62.5615 927.756 57.5007 932.498 Q52.44 937.241 43.8463 937.241 Q35.1253 937.241 30.1282 932.466 Q25.1311 927.66 25.1311 919.321 Q25.1311 916.616 25.704 914.038 Q26.2451 911.46 27.3591 909.041 Z" fill="#000000" fill-rule="nonzero" fill-opacity="1" /><path clip-path="url(#clip440)" d="M15.869 893.063 L25.9905 893.063 L25.9905 881 L30.542 881 L30.542 893.063 L49.8937 893.063 Q54.2542 893.063 55.4955 891.885 Q56.7368 890.676 56.7368 887.015 L56.7368 881 L61.6384 881 L61.6384 887.015 Q61.6384 893.795 59.124 896.373 Q56.5777 898.951 49.8937 898.951 L30.542 898.951 L30.542 903.248 L25.9905 903.248 L25.9905 898.951 L15.869 898.951 L15.869 893.063 Z" fill="#000000" fill-rule="nonzero" fill-opacity="1" /><path clip-path="url(#clip440)" d="M42.3504 842.805 L45.2149 842.805 L45.2149 869.732 Q51.2623 869.35 54.4452 866.104 Q57.5962 862.826 57.5962 857.001 Q57.5962 853.627 56.7687 850.476 Q55.9411 847.293 54.2861 844.174 L59.8242 844.174 Q61.161 847.325 61.8612 850.635 Q62.5615 853.945 62.5615 857.351 Q62.5615 865.881 57.5962 870.878 Q52.631 875.843 44.1646 875.843 Q35.4117 875.843 30.2873 871.133 Q25.1311 866.39 25.1311 858.37 Q25.1311 851.176 29.7781 847.007 Q34.3932 842.805 42.3504 842.805 M40.6316 848.662 Q35.8255 848.726 32.9609 851.367 Q30.0964 853.977 30.0964 858.306 Q30.0964 863.208 32.8654 866.168 Q35.6345 869.096 40.6634 869.541 L40.6316 848.662 Z" fill="#000000" fill-rule="nonzero" fill-opacity="1" /><path clip-path="url(#clip440)" d="M31.4013 809.736 L12.1132 809.736 L12.1132 803.879 L61.6384 803.879 L61.6384 809.736 L56.2912 809.736 Q59.4741 811.582 61.0337 814.414 Q62.5615 817.215 62.5615 821.162 Q62.5615 827.623 57.4052 831.697 Q52.249 835.739 43.8463 835.739 Q35.4436 835.739 30.2873 831.697 Q25.1311 827.623 25.1311 821.162 Q25.1311 817.215 26.6907 814.414 Q28.2185 811.582 31.4013 809.736 M43.8463 829.692 Q50.3075 829.692 53.9996 827.05 Q57.6599 824.377 57.6599 819.73 Q57.6599 815.083 53.9996 812.409 Q50.3075 809.736 43.8463 809.736 Q37.3851 809.736 33.7248 812.409 Q30.0327 815.083 30.0327 819.73 Q30.0327 824.377 33.7248 827.05 Q37.3851 829.692 43.8463 829.692 Z" fill="#000000" fill-rule="nonzero" fill-opacity="1" /><path clip-path="url(#clip440)" d="M382.777 12.096 L421.017 12.096 L421.017 18.9825 L390.96 18.9825 L390.96 36.8875 L419.762 36.8875 L419.762 43.7741 L390.96 43.7741 L390.96 65.6895 L421.746 65.6895 L421.746 72.576 L382.777 72.576 L382.777 12.096 Z" fill="#000000" fill-rule="nonzero" fill-opacity="1" /><path clip-path="url(#clip440)" d="M457.84 9.54393 L457.84 15.7418 L450.71 15.7418 Q446.7 15.7418 445.12 17.3622 Q443.581 18.9825 443.581 23.1955 L443.581 27.2059 L455.855 27.2059 L455.855 32.9987 L443.581 32.9987 L443.581 72.576 L436.087 72.576 L436.087 32.9987 L428.957 32.9987 L428.957 27.2059 L436.087 27.2059 L436.087 24.0462 Q436.087 16.471 439.611 13.0277 Q443.135 9.54393 450.791 9.54393 L457.84 9.54393 Z" fill="#000000" fill-rule="nonzero" fill-opacity="1" /><path clip-path="url(#clip440)" d="M487.047 9.54393 L487.047 15.7418 L479.917 15.7418 Q475.907 15.7418 474.327 17.3622 Q472.788 18.9825 472.788 23.1955 L472.788 27.2059 L485.062 27.2059 L485.062 32.9987 L472.788 32.9987 L472.788 72.576 L465.294 72.576 L465.294 32.9987 L458.164 32.9987 L458.164 27.2059 L465.294 27.2059 L465.294 24.0462 Q465.294 16.471 468.818 13.0277 Q472.342 9.54393 479.998 9.54393 L487.047 9.54393 Z" fill="#000000" fill-rule="nonzero" fill-opacity="1" /><path clip-path="url(#clip440)" d="M532.093 48.0275 L532.093 51.6733 L497.822 51.6733 Q498.309 59.3701 502.44 63.421 Q506.613 67.4314 514.026 67.4314 Q518.32 67.4314 522.33 66.3781 Q526.381 65.3249 530.351 63.2184 L530.351 70.267 Q526.341 71.9684 522.128 72.8596 Q517.915 73.7508 513.58 73.7508 Q502.724 73.7508 496.364 67.4314 Q490.045 61.1119 490.045 50.3365 Q490.045 39.1965 496.04 32.6746 Q502.076 26.1121 512.284 26.1121 Q521.439 26.1121 526.746 32.0264 Q532.093 37.9003 532.093 48.0275 M524.639 45.84 Q524.558 39.7232 521.196 36.0774 Q517.874 32.4315 512.365 32.4315 Q506.127 32.4315 502.359 35.9558 Q498.633 39.4801 498.066 45.8805 L524.639 45.84 Z" fill="#000000" fill-rule="nonzero" fill-opacity="1" /><path clip-path="url(#clip440)" d="M576.977 28.9478 L576.977 35.9153 Q573.817 34.1734 570.617 33.3227 Q567.457 32.4315 564.217 32.4315 Q556.966 32.4315 552.955 37.0496 Q548.945 41.6271 548.945 49.9314 Q548.945 58.2358 552.955 62.8538 Q556.966 67.4314 564.217 67.4314 Q567.457 67.4314 570.617 66.5807 Q573.817 65.6895 576.977 63.9476 L576.977 70.8341 Q573.858 72.2924 570.496 73.0216 Q567.174 73.7508 563.407 73.7508 Q553.158 73.7508 547.122 67.3098 Q541.086 60.8689 541.086 49.9314 Q541.086 38.832 547.162 32.472 Q553.279 26.1121 563.893 26.1121 Q567.336 26.1121 570.617 26.8413 Q573.898 27.5299 576.977 28.9478 Z" fill="#000000" fill-rule="nonzero" fill-opacity="1" /><path clip-path="url(#clip440)" d="M597.313 14.324 L597.313 27.2059 L612.666 27.2059 L612.666 32.9987 L597.313 32.9987 L597.313 57.6282 Q597.313 63.1779 598.811 64.7578 Q600.351 66.3376 605.009 66.3376 L612.666 66.3376 L612.666 72.576 L605.009 72.576 Q596.381 72.576 593.1 69.3758 Q589.818 66.1351 589.818 57.6282 L589.818 32.9987 L584.35 32.9987 L584.35 27.2059 L589.818 27.2059 L589.818 14.324 L597.313 14.324 Z" fill="#000000" fill-rule="nonzero" fill-opacity="1" /><path clip-path="url(#clip440)" d="M666.421 32.4315 Q660.426 32.4315 656.942 37.1306 Q653.458 41.7891 653.458 49.9314 Q653.458 58.0738 656.901 62.7728 Q660.385 67.4314 666.421 67.4314 Q672.376 67.4314 675.86 62.7323 Q679.343 58.0333 679.343 49.9314 Q679.343 41.8701 675.86 37.1711 Q672.376 32.4315 666.421 32.4315 M666.421 26.1121 Q676.143 26.1121 681.693 32.4315 Q687.243 38.7509 687.243 49.9314 Q687.243 61.0714 681.693 67.4314 Q676.143 73.7508 666.421 73.7508 Q656.658 73.7508 651.109 67.4314 Q645.599 61.0714 645.599 49.9314 Q645.599 38.7509 651.109 32.4315 Q656.658 26.1121 666.421 26.1121 Z" fill="#000000" fill-rule="nonzero" fill-opacity="1" /><path clip-path="url(#clip440)" d="M722.567 9.54393 L722.567 15.7418 L715.437 15.7418 Q711.427 15.7418 709.847 17.3622 Q708.307 18.9825 708.307 23.1955 L708.307 27.2059 L720.582 27.2059 L720.582 32.9987 L708.307 32.9987 L708.307 72.576 L700.813 72.576 L700.813 32.9987 L693.684 32.9987 L693.684 27.2059 L700.813 27.2059 L700.813 24.0462 Q700.813 16.471 704.338 13.0277 Q707.862 9.54393 715.518 9.54393 L722.567 9.54393 Z" fill="#000000" fill-rule="nonzero" fill-opacity="1" /><path clip-path="url(#clip440)" d="M755.5 12.096 L763.683 12.096 L763.683 72.576 L755.5 72.576 L755.5 12.096 Z" fill="#000000" fill-rule="nonzero" fill-opacity="1" /><path clip-path="url(#clip440)" d="M817.358 45.1919 L817.358 72.576 L809.904 72.576 L809.904 45.4349 Q809.904 38.994 807.393 35.7938 Q804.881 32.5936 799.858 32.5936 Q793.822 32.5936 790.338 36.4419 Q786.854 40.2903 786.854 46.9338 L786.854 72.576 L779.36 72.576 L779.36 27.2059 L786.854 27.2059 L786.854 34.2544 Q789.528 30.163 793.133 28.1376 Q796.779 26.1121 801.519 26.1121 Q809.337 26.1121 813.347 30.9732 Q817.358 35.7938 817.358 45.1919 Z" fill="#000000" fill-rule="nonzero" fill-opacity="1" /><path clip-path="url(#clip440)" d="M839.597 14.324 L839.597 27.2059 L854.95 27.2059 L854.95 32.9987 L839.597 32.9987 L839.597 57.6282 Q839.597 63.1779 841.096 64.7578 Q842.635 66.3376 847.294 66.3376 L854.95 66.3376 L854.95 72.576 L847.294 72.576 Q838.666 72.576 835.384 69.3758 Q832.103 66.1351 832.103 57.6282 L832.103 32.9987 L826.634 32.9987 L826.634 27.2059 L832.103 27.2059 L832.103 14.324 L839.597 14.324 Z" fill="#000000" fill-rule="nonzero" fill-opacity="1" /><path clip-path="url(#clip440)" d="M903.561 48.0275 L903.561 51.6733 L869.29 51.6733 Q869.776 59.3701 873.908 63.421 Q878.081 67.4314 885.494 67.4314 Q889.788 67.4314 893.798 66.3781 Q897.849 65.3249 901.819 63.2184 L901.819 70.267 Q897.809 71.9684 893.596 72.8596 Q889.383 73.7508 885.048 73.7508 Q874.192 73.7508 867.832 67.4314 Q861.513 61.1119 861.513 50.3365 Q861.513 39.1965 867.508 32.6746 Q873.544 26.1121 883.752 26.1121 Q892.907 26.1121 898.214 32.0264 Q903.561 37.9003 903.561 48.0275 M896.107 45.84 Q896.026 39.7232 892.664 36.0774 Q889.342 32.4315 883.833 32.4315 Q877.595 32.4315 873.827 35.9558 Q870.101 39.4801 869.533 45.8805 L896.107 45.84 Z" fill="#000000" fill-rule="nonzero" fill-opacity="1" /><path clip-path="url(#clip440)" d="M942.085 34.1734 Q940.829 33.4443 939.331 33.1202 Q937.872 32.7556 936.09 32.7556 Q929.77 32.7556 926.368 36.8875 Q923.005 40.9789 923.005 48.6757 L923.005 72.576 L915.511 72.576 L915.511 27.2059 L923.005 27.2059 L923.005 34.2544 Q925.355 30.1225 929.122 28.1376 Q932.89 26.1121 938.277 26.1121 Q939.047 26.1121 939.979 26.2337 Q940.91 26.3147 942.045 26.5172 L942.085 34.1734 Z" fill="#000000" fill-rule="nonzero" fill-opacity="1" /><path clip-path="url(#clip440)" d="M957.114 65.7705 L957.114 89.8329 L949.62 89.8329 L949.62 27.2059 L957.114 27.2059 L957.114 34.0924 Q959.463 30.0415 963.028 28.0971 Q966.634 26.1121 971.616 26.1121 Q979.88 26.1121 985.025 32.6746 Q990.21 39.2371 990.21 49.9314 Q990.21 60.6258 985.025 67.1883 Q979.88 73.7508 971.616 73.7508 Q966.634 73.7508 963.028 71.8063 Q959.463 69.8214 957.114 65.7705 M982.473 49.9314 Q982.473 41.7081 979.07 37.0496 Q975.708 32.3505 969.793 32.3505 Q963.879 32.3505 960.476 37.0496 Q957.114 41.7081 957.114 49.9314 Q957.114 58.1548 960.476 62.8538 Q963.879 67.5124 969.793 67.5124 Q975.708 67.5124 979.07 62.8538 Q982.473 58.1548 982.473 49.9314 Z" fill="#000000" fill-rule="nonzero" fill-opacity="1" /><path clip-path="url(#clip440)" d="M1020.15 32.4315 Q1014.15 32.4315 1010.67 37.1306 Q1007.18 41.7891 1007.18 49.9314 Q1007.18 58.0738 1010.63 62.7728 Q1014.11 67.4314 1020.15 67.4314 Q1026.1 67.4314 1029.58 62.7323 Q1033.07 58.0333 1033.07 49.9314 Q1033.07 41.8701 1029.58 37.1711 Q1026.1 32.4315 1020.15 32.4315 M1020.15 26.1121 Q1029.87 26.1121 1035.42 32.4315 Q1040.97 38.7509 1040.97 49.9314 Q1040.97 61.0714 1035.42 67.4314 Q1029.87 73.7508 1020.15 73.7508 Q1010.38 73.7508 1004.83 67.4314 Q999.324 61.0714 999.324 49.9314 Q999.324 38.7509 1004.83 32.4315 Q1010.38 26.1121 1020.15 26.1121 Z" fill="#000000" fill-rule="nonzero" fill-opacity="1" /><path clip-path="url(#clip440)" d="M1053.32 9.54393 L1060.78 9.54393 L1060.78 72.576 L1053.32 72.576 L1053.32 9.54393 Z" fill="#000000" fill-rule="nonzero" fill-opacity="1" /><path clip-path="url(#clip440)" d="M1096.99 49.7694 Q1087.96 49.7694 1084.47 51.8354 Q1080.99 53.9013 1080.99 58.8839 Q1080.99 62.8538 1083.58 65.2034 Q1086.22 67.5124 1090.71 67.5124 Q1096.91 67.5124 1100.64 63.1374 Q1104.4 58.7219 1104.4 51.4303 L1104.4 49.7694 L1096.99 49.7694 M1111.86 46.6907 L1111.86 72.576 L1104.4 72.576 L1104.4 65.6895 Q1101.85 69.8214 1098.04 71.8063 Q1094.24 73.7508 1088.73 73.7508 Q1081.76 73.7508 1077.63 69.8619 Q1073.54 65.9325 1073.54 59.3701 Q1073.54 51.7138 1078.64 47.825 Q1083.79 43.9361 1093.95 43.9361 L1104.4 43.9361 L1104.4 43.2069 Q1104.4 38.0623 1101 35.2672 Q1097.64 32.4315 1091.52 32.4315 Q1087.63 32.4315 1083.95 33.3632 Q1080.26 34.295 1076.86 36.1584 L1076.86 29.2718 Q1080.95 27.692 1084.8 26.9223 Q1088.65 26.1121 1092.29 26.1121 Q1102.14 26.1121 1107 31.2163 Q1111.86 36.3204 1111.86 46.6907 Z" fill="#000000" fill-rule="nonzero" fill-opacity="1" /><path clip-path="url(#clip440)" d="M1134.58 14.324 L1134.58 27.2059 L1149.94 27.2059 L1149.94 32.9987 L1134.58 32.9987 L1134.58 57.6282 Q1134.58 63.1779 1136.08 64.7578 Q1137.62 66.3376 1142.28 66.3376 L1149.94 66.3376 L1149.94 72.576 L1142.28 72.576 Q1133.65 72.576 1130.37 69.3758 Q1127.09 66.1351 1127.09 57.6282 L1127.09 32.9987 L1121.62 32.9987 L1121.62 27.2059 L1127.09 27.2059 L1127.09 14.324 L1134.58 14.324 Z" fill="#000000" fill-rule="nonzero" fill-opacity="1" /><path clip-path="url(#clip440)" d="M1159.74 27.2059 L1167.19 27.2059 L1167.19 72.576 L1159.74 72.576 L1159.74 27.2059 M1159.74 9.54393 L1167.19 9.54393 L1167.19 18.9825 L1159.74 18.9825 L1159.74 9.54393 Z" fill="#000000" fill-rule="nonzero" fill-opacity="1" /><path clip-path="url(#clip440)" d="M1200.37 32.4315 Q1194.38 32.4315 1190.89 37.1306 Q1187.41 41.7891 1187.41 49.9314 Q1187.41 58.0738 1190.85 62.7728 Q1194.33 67.4314 1200.37 67.4314 Q1206.33 67.4314 1209.81 62.7323 Q1213.29 58.0333 1213.29 49.9314 Q1213.29 41.8701 1209.81 37.1711 Q1206.33 32.4315 1200.37 32.4315 M1200.37 26.1121 Q1210.09 26.1121 1215.64 32.4315 Q1221.19 38.7509 1221.19 49.9314 Q1221.19 61.0714 1215.64 67.4314 Q1210.09 73.7508 1200.37 73.7508 Q1190.61 73.7508 1185.06 67.4314 Q1179.55 61.0714 1179.55 49.9314 Q1179.55 38.7509 1185.06 32.4315 Q1190.61 26.1121 1200.37 26.1121 Z" fill="#000000" fill-rule="nonzero" fill-opacity="1" /><path clip-path="url(#clip440)" d="M1271.26 45.1919 L1271.26 72.576 L1263.81 72.576 L1263.81 45.4349 Q1263.81 38.994 1261.3 35.7938 Q1258.78 32.5936 1253.76 32.5936 Q1247.73 32.5936 1244.24 36.4419 Q1240.76 40.2903 1240.76 46.9338 L1240.76 72.576 L1233.26 72.576 L1233.26 27.2059 L1240.76 27.2059 L1240.76 34.2544 Q1243.43 30.163 1247.04 28.1376 Q1250.68 26.1121 1255.42 26.1121 Q1263.24 26.1121 1267.25 30.9732 Q1271.26 35.7938 1271.26 45.1919 Z" fill="#000000" fill-rule="nonzero" fill-opacity="1" /><path clip-path="url(#clip440)" d="M1312.82 12.096 L1325.02 12.096 L1340.45 53.2532 L1355.97 12.096 L1368.16 12.096 L1368.16 72.576 L1360.18 72.576 L1360.18 19.4686 L1344.58 60.9499 L1336.36 60.9499 L1320.76 19.4686 L1320.76 72.576 L1312.82 72.576 L1312.82 12.096 Z" fill="#000000" fill-rule="nonzero" fill-opacity="1" /><path clip-path="url(#clip440)" d="M1401.66 32.4315 Q1395.66 32.4315 1392.18 37.1306 Q1388.7 41.7891 1388.7 49.9314 Q1388.7 58.0738 1392.14 62.7728 Q1395.62 67.4314 1401.66 67.4314 Q1407.62 67.4314 1411.1 62.7323 Q1414.58 58.0333 1414.58 49.9314 Q1414.58 41.8701 1411.1 37.1711 Q1407.62 32.4315 1401.66 32.4315 M1401.66 26.1121 Q1411.38 26.1121 1416.93 32.4315 Q1422.48 38.7509 1422.48 49.9314 Q1422.48 61.0714 1416.93 67.4314 Q1411.38 73.7508 1401.66 73.7508 Q1391.9 73.7508 1386.35 67.4314 Q1380.84 61.0714 1380.84 49.9314 Q1380.84 38.7509 1386.35 32.4315 Q1391.9 26.1121 1401.66 26.1121 Z" fill="#000000" fill-rule="nonzero" fill-opacity="1" /><path clip-path="url(#clip440)" d="M1464.69 34.0924 L1464.69 9.54393 L1472.15 9.54393 L1472.15 72.576 L1464.69 72.576 L1464.69 65.7705 Q1462.34 69.8214 1458.74 71.8063 Q1455.17 73.7508 1450.15 73.7508 Q1441.93 73.7508 1436.74 67.1883 Q1431.6 60.6258 1431.6 49.9314 Q1431.6 39.2371 1436.74 32.6746 Q1441.93 26.1121 1450.15 26.1121 Q1455.17 26.1121 1458.74 28.0971 Q1462.34 30.0415 1464.69 34.0924 M1439.29 49.9314 Q1439.29 58.1548 1442.66 62.8538 Q1446.06 67.5124 1451.97 67.5124 Q1457.89 67.5124 1461.29 62.8538 Q1464.69 58.1548 1464.69 49.9314 Q1464.69 41.7081 1461.29 37.0496 Q1457.89 32.3505 1451.97 32.3505 Q1446.06 32.3505 1442.66 37.0496 Q1439.29 41.7081 1439.29 49.9314 Z" fill="#000000" fill-rule="nonzero" fill-opacity="1" /><path clip-path="url(#clip440)" d="M1526.31 48.0275 L1526.31 51.6733 L1492.04 51.6733 Q1492.52 59.3701 1496.65 63.421 Q1500.83 67.4314 1508.24 67.4314 Q1512.53 67.4314 1516.54 66.3781 Q1520.59 65.3249 1524.56 63.2184 L1524.56 70.267 Q1520.55 71.9684 1516.34 72.8596 Q1512.13 73.7508 1507.79 73.7508 Q1496.94 73.7508 1490.58 67.4314 Q1484.26 61.1119 1484.26 50.3365 Q1484.26 39.1965 1490.25 32.6746 Q1496.29 26.1121 1506.5 26.1121 Q1515.65 26.1121 1520.96 32.0264 Q1526.31 37.9003 1526.31 48.0275 M1518.85 45.84 Q1518.77 39.7232 1515.41 36.0774 Q1512.09 32.4315 1506.58 32.4315 Q1500.34 32.4315 1496.57 35.9558 Q1492.85 39.4801 1492.28 45.8805 L1518.85 45.84 Z" fill="#000000" fill-rule="nonzero" fill-opacity="1" /><path clip-path="url(#clip440)" d="M1582.49 32.4315 Q1576.5 32.4315 1573.01 37.1306 Q1569.53 41.7891 1569.53 49.9314 Q1569.53 58.0738 1572.97 62.7728 Q1576.46 67.4314 1582.49 67.4314 Q1588.45 67.4314 1591.93 62.7323 Q1595.41 58.0333 1595.41 49.9314 Q1595.41 41.8701 1591.93 37.1711 Q1588.45 32.4315 1582.49 32.4315 M1582.49 26.1121 Q1592.21 26.1121 1597.76 32.4315 Q1603.31 38.7509 1603.31 49.9314 Q1603.31 61.0714 1597.76 67.4314 Q1592.21 73.7508 1582.49 73.7508 Q1572.73 73.7508 1567.18 67.4314 Q1561.67 61.0714 1561.67 49.9314 Q1561.67 38.7509 1567.18 32.4315 Q1572.73 26.1121 1582.49 26.1121 Z" fill="#000000" fill-rule="nonzero" fill-opacity="1" /><path clip-path="url(#clip440)" d="M1653.38 45.1919 L1653.38 72.576 L1645.93 72.576 L1645.93 45.4349 Q1645.93 38.994 1643.42 35.7938 Q1640.91 32.5936 1635.88 32.5936 Q1629.85 32.5936 1626.36 36.4419 Q1622.88 40.2903 1622.88 46.9338 L1622.88 72.576 L1615.39 72.576 L1615.39 27.2059 L1622.88 27.2059 L1622.88 34.2544 Q1625.55 30.163 1629.16 28.1376 Q1632.8 26.1121 1637.54 26.1121 Q1645.36 26.1121 1649.37 30.9732 Q1653.38 35.7938 1653.38 45.1919 Z" fill="#000000" fill-rule="nonzero" fill-opacity="1" /><path clip-path="url(#clip440)" d="M1694.95 12.096 L1733.19 12.096 L1733.19 18.9825 L1703.13 18.9825 L1703.13 36.8875 L1731.93 36.8875 L1731.93 43.7741 L1703.13 43.7741 L1703.13 65.6895 L1733.92 65.6895 L1733.92 72.576 L1694.95 72.576 L1694.95 12.096 Z" fill="#000000" fill-rule="nonzero" fill-opacity="1" /><path clip-path="url(#clip440)" d="M1754.25 65.7705 L1754.25 89.8329 L1746.76 89.8329 L1746.76 27.2059 L1754.25 27.2059 L1754.25 34.0924 Q1756.6 30.0415 1760.17 28.0971 Q1763.77 26.1121 1768.75 26.1121 Q1777.02 26.1121 1782.16 32.6746 Q1787.35 39.2371 1787.35 49.9314 Q1787.35 60.6258 1782.16 67.1883 Q1777.02 73.7508 1768.75 73.7508 Q1763.77 73.7508 1760.17 71.8063 Q1756.6 69.8214 1754.25 65.7705 M1779.61 49.9314 Q1779.61 41.7081 1776.21 37.0496 Q1772.84 32.3505 1766.93 32.3505 Q1761.02 32.3505 1757.61 37.0496 Q1754.25 41.7081 1754.25 49.9314 Q1754.25 58.1548 1757.61 62.8538 Q1761.02 67.5124 1766.93 67.5124 Q1772.84 67.5124 1776.21 62.8538 Q1779.61 58.1548 1779.61 49.9314 Z" fill="#000000" fill-rule="nonzero" fill-opacity="1" /><path clip-path="url(#clip440)" d="M1799.7 27.2059 L1807.16 27.2059 L1807.16 72.576 L1799.7 72.576 L1799.7 27.2059 M1799.7 9.54393 L1807.16 9.54393 L1807.16 18.9825 L1799.7 18.9825 L1799.7 9.54393 Z" fill="#000000" fill-rule="nonzero" fill-opacity="1" /><path clip-path="url(#clip440)" d="M1852.61 34.0924 L1852.61 9.54393 L1860.06 9.54393 L1860.06 72.576 L1852.61 72.576 L1852.61 65.7705 Q1850.26 69.8214 1846.65 71.8063 Q1843.09 73.7508 1838.06 73.7508 Q1829.84 73.7508 1824.66 67.1883 Q1819.51 60.6258 1819.51 49.9314 Q1819.51 39.2371 1824.66 32.6746 Q1829.84 26.1121 1838.06 26.1121 Q1843.09 26.1121 1846.65 28.0971 Q1850.26 30.0415 1852.61 34.0924 M1827.21 49.9314 Q1827.21 58.1548 1830.57 62.8538 Q1833.97 67.5124 1839.89 67.5124 Q1845.8 67.5124 1849.2 62.8538 Q1852.61 58.1548 1852.61 49.9314 Q1852.61 41.7081 1849.2 37.0496 Q1845.8 32.3505 1839.89 32.3505 Q1833.97 32.3505 1830.57 37.0496 Q1827.21 41.7081 1827.21 49.9314 Z" fill="#000000" fill-rule="nonzero" fill-opacity="1" /><path clip-path="url(#clip440)" d="M1914.22 48.0275 L1914.22 51.6733 L1879.95 51.6733 Q1880.44 59.3701 1884.57 63.421 Q1888.74 67.4314 1896.15 67.4314 Q1900.45 67.4314 1904.46 66.3781 Q1908.51 65.3249 1912.48 63.2184 L1912.48 70.267 Q1908.47 71.9684 1904.26 72.8596 Q1900.04 73.7508 1895.71 73.7508 Q1884.85 73.7508 1878.49 67.4314 Q1872.17 61.1119 1872.17 50.3365 Q1872.17 39.1965 1878.17 32.6746 Q1884.2 26.1121 1894.41 26.1121 Q1903.57 26.1121 1908.87 32.0264 Q1914.22 37.9003 1914.22 48.0275 M1906.77 45.84 Q1906.69 39.7232 1903.32 36.0774 Q1900 32.4315 1894.49 32.4315 Q1888.25 32.4315 1884.49 35.9558 Q1880.76 39.4801 1880.19 45.8805 L1906.77 45.84 Z" fill="#000000" fill-rule="nonzero" fill-opacity="1" /><path clip-path="url(#clip440)" d="M1961.78 35.9153 Q1964.57 30.8922 1968.46 28.5022 Q1972.35 26.1121 1977.62 26.1121 Q1984.71 26.1121 1988.56 31.0947 Q1992.4 36.0368 1992.4 45.1919 L1992.4 72.576 L1984.91 72.576 L1984.91 45.4349 Q1984.91 38.913 1982.6 35.7533 Q1980.29 32.5936 1975.55 32.5936 Q1969.76 32.5936 1966.4 36.4419 Q1963.03 40.2903 1963.03 46.9338 L1963.03 72.576 L1955.54 72.576 L1955.54 45.4349 Q1955.54 38.8725 1953.23 35.7533 Q1950.92 32.5936 1946.1 32.5936 Q1940.39 32.5936 1937.03 36.4824 Q1933.67 40.3308 1933.67 46.9338 L1933.67 72.576 L1926.17 72.576 L1926.17 27.2059 L1933.67 27.2059 L1933.67 34.2544 Q1936.22 30.082 1939.78 28.0971 Q1943.35 26.1121 1948.25 26.1121 Q1953.19 26.1121 1956.63 28.6237 Q1960.12 31.1352 1961.78 35.9153 Z" fill="#000000" fill-rule="nonzero" fill-opacity="1" /><path clip-path="url(#clip440)" d="M2007.27 27.2059 L2014.72 27.2059 L2014.72 72.576 L2007.27 72.576 L2007.27 27.2059 M2007.27 9.54393 L2014.72 9.54393 L2014.72 18.9825 L2007.27 18.9825 L2007.27 9.54393 Z" fill="#000000" fill-rule="nonzero" fill-opacity="1" /><path clip-path="url(#clip440)" d="M2062.97 28.9478 L2062.97 35.9153 Q2059.81 34.1734 2056.61 33.3227 Q2053.45 32.4315 2050.21 32.4315 Q2042.96 32.4315 2038.95 37.0496 Q2034.94 41.6271 2034.94 49.9314 Q2034.94 58.2358 2038.95 62.8538 Q2042.96 67.4314 2050.21 67.4314 Q2053.45 67.4314 2056.61 66.5807 Q2059.81 65.6895 2062.97 63.9476 L2062.97 70.8341 Q2059.85 72.2924 2056.49 73.0216 Q2053.17 73.7508 2049.4 73.7508 Q2039.15 73.7508 2033.12 67.3098 Q2027.08 60.8689 2027.08 49.9314 Q2027.08 38.832 2033.16 32.472 Q2039.27 26.1121 2049.89 26.1121 Q2053.33 26.1121 2056.61 26.8413 Q2059.89 27.5299 2062.97 28.9478 Z" fill="#000000" fill-rule="nonzero" fill-opacity="1" /><path clip-path="url(#clip440)" d="M2110.81 18.8205 L2110.81 65.8515 L2120.7 65.8515 Q2133.21 65.8515 2139.01 60.1802 Q2144.84 54.509 2144.84 42.2752 Q2144.84 30.1225 2139.01 24.4918 Q2133.21 18.8205 2120.7 18.8205 L2110.81 18.8205 M2102.63 12.096 L2119.44 12.096 Q2137.02 12.096 2145.24 19.4281 Q2153.47 26.7198 2153.47 42.2752 Q2153.47 57.9117 2145.2 65.2439 Q2136.94 72.576 2119.44 72.576 L2102.63 72.576 L2102.63 12.096 Z" fill="#000000" fill-rule="nonzero" fill-opacity="1" /><path clip-path="url(#clip440)" d="M2185.06 76.7889 Q2181.9 84.8907 2178.91 87.3618 Q2175.91 89.8329 2170.89 89.8329 L2164.93 89.8329 L2164.93 83.5945 L2169.31 83.5945 Q2172.39 83.5945 2174.09 82.1361 Q2175.79 80.6778 2177.85 75.2496 L2179.19 71.8468 L2160.84 27.2059 L2168.74 27.2059 L2182.92 62.6918 L2197.1 27.2059 L2205 27.2059 L2185.06 76.7889 Z" fill="#000000" fill-rule="nonzero" fill-opacity="1" /><path clip-path="url(#clip440)" d="M2253 45.1919 L2253 72.576 L2245.54 72.576 L2245.54 45.4349 Q2245.54 38.994 2243.03 35.7938 Q2240.52 32.5936 2235.5 32.5936 Q2229.46 32.5936 2225.98 36.4419 Q2222.49 40.2903 2222.49 46.9338 L2222.49 72.576 L2215 72.576 L2215 27.2059 L2222.49 27.2059 L2222.49 34.2544 Q2225.17 30.163 2228.77 28.1376 Q2232.42 26.1121 2237.16 26.1121 Q2244.98 26.1121 2248.99 30.9732 Q2253 35.7938 2253 45.1919 Z" fill="#000000" fill-rule="nonzero" fill-opacity="1" /><path clip-path="url(#clip440)" d="M2288.48 49.7694 Q2279.45 49.7694 2275.97 51.8354 Q2272.48 53.9013 2272.48 58.8839 Q2272.48 62.8538 2275.08 65.2034 Q2277.71 67.5124 2282.21 67.5124 Q2288.4 67.5124 2292.13 63.1374 Q2295.9 58.7219 2295.9 51.4303 L2295.9 49.7694 L2288.48 49.7694 M2303.35 46.6907 L2303.35 72.576 L2295.9 72.576 L2295.9 65.6895 Q2293.35 69.8214 2289.54 71.8063 Q2285.73 73.7508 2280.22 73.7508 Q2273.25 73.7508 2269.12 69.8619 Q2265.03 65.9325 2265.03 59.3701 Q2265.03 51.7138 2270.13 47.825 Q2275.28 43.9361 2285.45 43.9361 L2295.9 43.9361 L2295.9 43.2069 Q2295.9 38.0623 2292.49 35.2672 Q2289.13 32.4315 2283.02 32.4315 Q2279.13 32.4315 2275.44 33.3632 Q2271.75 34.295 2268.35 36.1584 L2268.35 29.2718 Q2272.44 27.692 2276.29 26.9223 Q2280.14 26.1121 2283.79 26.1121 Q2293.63 26.1121 2298.49 31.2163 Q2303.35 36.3204 2303.35 46.6907 Z" fill="#000000" fill-rule="nonzero" fill-opacity="1" /><path clip-path="url(#clip440)" d="M2354.03 35.9153 Q2356.82 30.8922 2360.71 28.5022 Q2364.6 26.1121 2369.87 26.1121 Q2376.96 26.1121 2380.8 31.0947 Q2384.65 36.0368 2384.65 45.1919 L2384.65 72.576 L2377.16 72.576 L2377.16 45.4349 Q2377.16 38.913 2374.85 35.7533 Q2372.54 32.5936 2367.8 32.5936 Q2362.01 32.5936 2358.65 36.4419 Q2355.28 40.2903 2355.28 46.9338 L2355.28 72.576 L2347.79 72.576 L2347.79 45.4349 Q2347.79 38.8725 2345.48 35.7533 Q2343.17 32.5936 2338.35 32.5936 Q2332.64 32.5936 2329.28 36.4824 Q2325.91 40.3308 2325.91 46.9338 L2325.91 72.576 L2318.42 72.576 L2318.42 27.2059 L2325.91 27.2059 L2325.91 34.2544 Q2328.47 30.082 2332.03 28.0971 Q2335.6 26.1121 2340.5 26.1121 Q2345.44 26.1121 2348.88 28.6237 Q2352.37 31.1352 2354.03 35.9153 Z" fill="#000000" fill-rule="nonzero" fill-opacity="1" /><path clip-path="url(#clip440)" d="M2399.52 27.2059 L2406.97 27.2059 L2406.97 72.576 L2399.52 72.576 L2399.52 27.2059 M2399.52 9.54393 L2406.97 9.54393 L2406.97 18.9825 L2399.52 18.9825 L2399.52 9.54393 Z" fill="#000000" fill-rule="nonzero" fill-opacity="1" /><path clip-path="url(#clip440)" d="M2455.22 28.9478 L2455.22 35.9153 Q2452.06 34.1734 2448.86 33.3227 Q2445.7 32.4315 2442.46 32.4315 Q2435.21 32.4315 2431.2 37.0496 Q2427.19 41.6271 2427.19 49.9314 Q2427.19 58.2358 2431.2 62.8538 Q2435.21 67.4314 2442.46 67.4314 Q2445.7 67.4314 2448.86 66.5807 Q2452.06 65.6895 2455.22 63.9476 L2455.22 70.8341 Q2452.1 72.2924 2448.74 73.0216 Q2445.42 73.7508 2441.65 73.7508 Q2431.4 73.7508 2425.36 67.3098 Q2419.33 60.8689 2419.33 49.9314 Q2419.33 38.832 2425.4 32.472 Q2431.52 26.1121 2442.13 26.1121 Q2445.58 26.1121 2448.86 26.8413 Q2452.14 27.5299 2455.22 28.9478 Z" fill="#000000" fill-rule="nonzero" fill-opacity="1" /><path clip-path="url(#clip440)" d="M2497.11 28.5427 L2497.11 35.5912 Q2493.95 33.9709 2490.54 33.1607 Q2487.14 32.3505 2483.49 32.3505 Q2477.94 32.3505 2475.15 34.0519 Q2472.4 35.7533 2472.4 39.156 Q2472.4 41.7486 2474.38 43.2475 Q2476.37 44.7058 2482.36 46.0426 L2484.91 46.6097 Q2492.85 48.3111 2496.17 51.4303 Q2499.54 54.509 2499.54 60.0587 Q2499.54 66.3781 2494.51 70.0644 Q2489.53 73.7508 2480.78 73.7508 Q2477.13 73.7508 2473.16 73.0216 Q2469.24 72.3329 2464.86 70.9151 L2464.86 63.2184 Q2468.99 65.3654 2473 66.4591 Q2477.01 67.5124 2480.94 67.5124 Q2486.21 67.5124 2489.04 65.73 Q2491.88 63.9071 2491.88 60.6258 Q2491.88 57.5877 2489.81 55.9673 Q2487.79 54.3469 2480.86 52.8481 L2478.27 52.2405 Q2471.34 50.7821 2468.26 47.7845 Q2465.18 44.7463 2465.18 39.4801 Q2465.18 33.0797 2469.72 29.5959 Q2474.26 26.1121 2482.6 26.1121 Q2486.74 26.1121 2490.38 26.7198 Q2494.03 27.3274 2497.11 28.5427 Z" fill="#000000" fill-rule="nonzero" fill-opacity="1" /><polyline clip-path="url(#clip441)" style="stroke:#009af9; stroke-linecap:round; stroke-linejoin:round; stroke-width:8; stroke-opacity:1; fill:none" points="309.459,1659 318.89,1652.52 328.321,1644.66 337.751,1635.14 347.182,1623.64 356.613,1609.78 366.044,1593.13 375.475,1573.18 384.905,1549.39 394.336,1521.18 403.767,1487.92 413.198,1448.95 422.629,1403.73 432.06,1351.78 441.49,1292.82 450.921,1226.75 460.352,1153.77 469.783,1074.55 479.214,990.21 488.644,902.374 498.075,813.024 507.506,724.295 516.937,638.773 526.368,558.744 535.798,486.118 545.229,422.428 554.66,368.829 564.091,326.103 573.522,294.634 582.953,274.011 592.383,263.323 601.814,261.644 611.245,268.042 620.676,281.576 630.107,301.298 639.537,326.254 648.968,355.484 658.399,388.055 667.83,423.162 677.261,460.095 686.691,498.247 696.122,537.113 705.553,576.289 714.984,615.474 724.415,654.468 733.846,693.173 743.276,731.591 752.707,769.473 762.138,806.483 771.569,842.547 781,877.603 790.43,911.605 799.861,944.519 809.292,976.325 818.723,1007.02 828.154,1036.6 837.585,1065.07 847.015,1092.35 856.446,1118.55 865.877,1143.75 875.308,1168.02 884.739,1191.41 894.169,1213.97 903.6,1235.75 913.031,1256.75 922.462,1277.01 931.893,1296.51 941.323,1315.24 950.754,1333.19 960.185,1350.31 969.616,1366.56 979.047,1381.96 988.478,1396.63 997.908,1410.59 1007.34,1423.9 1016.77,1436.56 1026.2,1448.62 1035.63,1460.1 1045.06,1471.03 1054.49,1481.44 1063.92,1491.35 1073.35,1500.79 1082.79,1509.78 1092.22,1518.33 1101.65,1526.49 1111.08,1534.26 1120.51,1541.66 1129.94,1548.72 1139.37,1555.43 1148.8,1561.83 1158.23,1567.91 1167.66,1573.7 1177.09,1579.21 1186.52,1584.45 1195.96,1589.44 1205.39,1594.19 1214.82,1598.7 1224.25,1603 1233.68,1607.09 1243.11,1610.99 1252.54,1614.7 1261.97,1618.24 1271.4,1621.61 1280.83,1624.83 1290.26,1627.89 1299.69,1630.81 1309.13,1633.59 1318.56,1636.24 1327.99,1638.76 1337.42,1641.15 1346.85,1643.43 1356.28,1645.6 1365.71,1647.67 1375.14,1649.63 1384.57,1651.5 1394,1653.28 1403.43,1654.97 1412.86,1656.59 1422.29,1658.12 1431.73,1659.59 1441.16,1660.98 1450.59,1662.31 1460.02,1663.56 1469.45,1664.76 1478.88,1665.89 1488.31,1666.97 1497.74,1668 1507.17,1668.97 1516.6,1669.9 1526.03,1670.78 1535.46,1671.62 1544.9,1672.42 1554.33,1673.19 1563.76,1673.92 1573.19,1674.61 1582.62,1675.27 1592.05,1675.9 1601.48,1676.51 1610.91,1677.08 1620.34,1677.63 1629.77,1678.15 1639.2,1678.65 1648.63,1679.13 1658.07,1679.58 1667.5,1680.01 1676.93,1680.42 1686.36,1680.82 1695.79,1681.19 1705.22,1681.54 1714.65,1681.88 1724.08,1682.2 1733.51,1682.51 1742.94,1682.8 1752.37,1683.08 1761.8,1683.35 1771.23,1683.6 1780.67,1683.84 1790.1,1684.07 1799.53,1684.29 1808.96,1684.5 1818.39,1684.7 1827.82,1684.89 1837.25,1685.07 1846.68,1685.24 1856.11,1685.41 1865.54,1685.57 1874.97,1685.71 1884.4,1685.86 1893.84,1685.99 1903.27,1686.12 1912.7,1686.24 1922.13,1686.36 1931.56,1686.47 1940.99,1686.58 1950.42,1686.68 1959.85,1686.77 1969.28,1686.87 1978.71,1686.95 1988.14,1687.04 1997.57,1687.12 2007.01,1687.19 2016.44,1687.27 2025.87,1687.34 2035.3,1687.4 2044.73,1687.46 2054.16,1687.52 2063.59,1687.58 2073.02,1687.64 2082.45,1687.69 2091.88,1687.74 2101.31,1687.78 2110.74,1687.83 2120.18,1687.87 2129.61,1687.91 2139.04,1687.95 2148.47,1687.99 2157.9,1688.02 2167.33,1688.05 2176.76,1688.09 2186.19,1688.12 2195.62,1688.15 2205.05,1688.17 2214.48,1688.2 2223.91,1688.22 2233.34,1688.25 2242.78,1688.27 2252.21,1688.29 2261.64,1688.31 2271.07,1688.33 2280.5,1688.35 2289.93,1688.37 2299.36,1688.39 2308.79,1688.4 2318.22,1688.42 2327.65,1688.43 2337.08,1688.45 2346.51,1688.46 2355.95,1688.47 2365.38,1688.49 2374.81,1688.5 2384.24,1688.51 2393.67,1688.52 2403.1,1688.53 2412.53,1688.54 2421.96,1688.55 2431.39,1688.56 2440.82,1688.56 2450.25,1688.57 2459.68,1688.58 2469.12,1688.59 2478.55,1688.59 2487.98,1688.6 2497.41,1688.61 2506.84,1688.61 2516.27,1688.62 2525.7,1688.62 2535.13,1688.63 2544.56,1688.63 2553.99,1688.64 2563.42,1688.64 2572.85,1688.65 "/>
<polyline clip-path="url(#clip441)" style="stroke:#e26f46; stroke-linecap:round; stroke-linejoin:round; stroke-width:8; stroke-opacity:1; fill:none" stroke-dasharray="32, 20" points="309.459,1659 318.89,1652.54 328.321,1644.77 337.751,1635.44 347.182,1624.28 356.613,1610.97 366.044,1595.17 375.475,1576.5 384.905,1554.55 394.336,1528.89 403.767,1499.09 413.198,1464.72 422.629,1425.42 432.06,1380.92 441.49,1331.08 450.921,1275.91 460.352,1215.58 469.783,1150.56 479.214,1081.56 488.644,1009.58 498.075,935.91 507.506,861.945 516.937,789.198 526.368,719.351 535.798,653.859 545.229,593.949 554.66,540.619 564.091,494.634 573.522,456.532 582.953,426.621 592.383,404.93 601.814,391.003 611.245,384.262 620.676,384.115 630.107,389.956 639.537,401.165 648.968,417.109 658.399,437.142 667.83,460.601 677.261,486.824 686.691,515.341 696.122,545.658 705.553,577.282 714.984,609.78 724.415,642.776 733.846,675.953 743.276,709.052 752.707,741.87 762.138,774.266 771.569,806.155 781,837.509 790.43,868.36 799.861,898.798 809.292,928.971 818.723,959.005 828.154,988.328 837.585,1016.76 847.015,1044.3 856.446,1070.95 865.877,1096.69 875.308,1121.54 884.739,1145.49 894.169,1168.57 903.6,1190.79 913.031,1212.16 922.462,1232.71 931.893,1252.46 941.323,1271.44 950.754,1289.66 960.185,1307.15 969.616,1323.93 979.047,1340.03 988.478,1355.46 997.908,1370.25 1007.34,1384.42 1016.77,1397.99 1026.2,1410.99 1035.63,1423.42 1045.06,1435.31 1054.49,1446.69 1063.92,1457.58 1073.35,1467.99 1082.79,1477.94 1092.22,1487.45 1101.65,1496.55 1111.08,1505.25 1120.51,1513.57 1129.94,1521.53 1139.37,1529.14 1148.8,1536.41 1158.23,1543.37 1167.66,1550.01 1177.09,1556.36 1186.52,1562.42 1195.96,1568.21 1205.39,1573.73 1214.82,1579 1224.25,1584.03 1233.68,1588.84 1243.11,1593.42 1252.54,1597.79 1261.97,1601.97 1271.4,1605.96 1280.83,1609.77 1290.26,1613.4 1299.69,1616.88 1309.13,1620.21 1318.56,1623.38 1327.99,1626.42 1337.42,1629.31 1346.85,1632.07 1356.28,1634.71 1365.71,1637.22 1375.14,1639.62 1384.57,1641.9 1394,1644.08 1403.43,1646.15 1412.86,1648.13 1422.29,1650.02 1431.73,1651.82 1441.16,1653.53 1450.59,1655.17 1460.02,1656.73 1469.45,1658.22 1478.88,1659.65 1488.31,1661.01 1497.74,1662.31 1507.17,1663.55 1516.6,1664.73 1526.03,1665.86 1535.46,1666.94 1544.9,1667.96 1554.33,1668.94 1563.76,1669.87 1573.19,1670.76 1582.62,1671.6 1592.05,1672.41 1601.48,1673.18 1610.91,1673.91 1620.34,1674.6 1629.77,1675.27 1639.2,1675.9 1648.63,1676.5 1658.07,1677.08 1667.5,1677.63 1676.93,1678.16 1686.36,1678.66 1695.79,1679.14 1705.22,1679.59 1714.65,1680.03 1724.08,1680.44 1733.51,1680.84 1742.94,1681.21 1752.37,1681.57 1761.8,1681.91 1771.23,1682.24 1780.67,1682.54 1790.1,1682.84 1799.53,1683.12 1808.96,1683.38 1818.39,1683.64 1827.82,1683.88 1837.25,1684.11 1846.68,1684.33 1856.11,1684.54 1865.54,1684.74 1874.97,1684.93 1884.4,1685.11 1893.84,1685.29 1903.27,1685.45 1912.7,1685.61 1922.13,1685.76 1931.56,1685.9 1940.99,1686.03 1950.42,1686.16 1959.85,1686.28 1969.28,1686.4 1978.71,1686.51 1988.14,1686.61 1997.57,1686.71 2007.01,1686.81 2016.44,1686.9 2025.87,1686.99 2035.3,1687.07 2044.73,1687.15 2054.16,1687.22 2063.59,1687.3 2073.02,1687.36 2082.45,1687.43 2091.88,1687.49 2101.31,1687.55 2110.74,1687.61 2120.18,1687.66 2129.61,1687.71 2139.04,1687.76 2148.47,1687.8 2157.9,1687.85 2167.33,1687.89 2176.76,1687.93 2186.19,1687.97 2195.62,1688 2205.05,1688.04 2214.48,1688.07 2223.91,1688.1 2233.34,1688.13 2242.78,1688.16 2252.21,1688.19 2261.64,1688.21 2271.07,1688.24 2280.5,1688.26 2289.93,1688.28 2299.36,1688.3 2308.79,1688.32 2318.22,1688.34 2327.65,1688.36 2337.08,1688.38 2346.51,1688.39 2355.95,1688.41 2365.38,1688.43 2374.81,1688.44 2384.24,1688.45 2393.67,1688.47 2403.1,1688.48 2412.53,1688.49 2421.96,1688.5 2431.39,1688.51 2440.82,1688.52 2450.25,1688.53 2459.68,1688.54 2469.12,1688.55 2478.55,1688.56 2487.98,1688.57 2497.41,1688.58 2506.84,1688.58 2516.27,1688.59 2525.7,1688.6 2535.13,1688.6 2544.56,1688.61 2553.99,1688.61 2563.42,1688.62 2572.85,1688.63 "/>
<polyline clip-path="url(#clip441)" style="stroke:#3da44d; stroke-linecap:round; stroke-linejoin:round; stroke-width:8; stroke-opacity:1; fill:none" stroke-dasharray="4, 8" points="309.459,1659 318.89,1654.2 328.321,1648.52 337.751,1641.76 347.182,1633.71 356.613,1624.12 366.044,1612.68 375.475,1599.02 384.905,1582.72 394.336,1563.27 403.767,1540.1 413.198,1512.57 422.629,1479.92 432.06,1441.36 441.49,1396.15 450.921,1343.59 460.352,1283.09 469.783,1214.25 479.214,1136.84 488.644,1051.31 498.075,958.765 507.506,861.009 516.937,760.514 526.368,660.098 535.798,562.987 545.229,472.476 554.66,391.265 564.091,321.458 573.522,264.565 582.953,221.497 592.383,192.559 601.814,177.003 611.245,173.254 620.676,179.791 630.107,195.194 639.537,218.153 648.968,247.461 658.399,282.017 667.83,320.697 677.261,362.078 686.691,405.263 696.122,449.535 705.553,494.313 714.984,539.152 724.415,583.741 733.846,627.902 743.276,671.352 752.707,713.82 762.138,755.187 771.569,795.358 781,834.263 790.43,871.856 799.861,908.118 809.292,943.048 818.723,976.644 828.154,1008.92 837.585,1039.91 847.015,1069.63 856.446,1098.11 865.877,1125.39 875.308,1151.5 884.739,1176.47 894.169,1200.35 903.6,1223.17 913.031,1244.98 922.462,1265.84 931.893,1285.76 941.323,1304.79 950.754,1322.95 960.185,1340.29 969.616,1356.82 979.047,1372.6 988.478,1387.64 997.908,1401.97 1007.34,1415.63 1016.77,1428.65 1026.2,1441.05 1035.63,1452.86 1045.06,1464.11 1054.49,1474.83 1063.92,1485.04 1073.35,1494.76 1082.79,1504.02 1092.22,1512.85 1101.65,1521.27 1111.08,1529.29 1120.51,1536.94 1129.94,1544.23 1139.37,1551.17 1148.8,1557.78 1158.23,1564.08 1167.66,1570.07 1177.09,1575.77 1186.52,1581.21 1195.96,1586.38 1205.39,1591.3 1214.82,1595.98 1224.25,1600.44 1233.68,1604.69 1243.11,1608.74 1252.54,1612.59 1261.97,1616.27 1271.4,1619.77 1280.83,1623.11 1290.26,1626.28 1299.69,1629.31 1309.13,1632.18 1318.56,1634.92 1327.99,1637.53 1337.42,1640 1346.85,1642.36 1356.28,1644.6 1365.71,1646.73 1375.14,1648.75 1384.57,1650.68 1394,1652.51 1403.43,1654.26 1412.86,1655.92 1422.29,1657.5 1431.73,1659.01 1441.16,1660.45 1450.59,1661.82 1460.02,1663.13 1469.45,1664.37 1478.88,1665.55 1488.31,1666.68 1497.74,1667.75 1507.17,1668.76 1516.6,1669.73 1526.03,1670.65 1535.46,1671.52 1544.9,1672.35 1554.33,1673.14 1563.76,1673.9 1573.19,1674.61 1582.62,1675.29 1592.05,1675.94 1601.48,1676.56 1610.91,1677.15 1620.34,1677.71 1629.77,1678.24 1639.2,1678.75 1648.63,1679.23 1658.07,1679.69 1667.5,1680.13 1676.93,1680.55 1686.36,1680.94 1695.79,1681.32 1705.22,1681.67 1714.65,1682.01 1724.08,1682.34 1733.51,1682.64 1742.94,1682.94 1752.37,1683.21 1761.8,1683.48 1771.23,1683.73 1780.67,1683.97 1790.1,1684.2 1799.53,1684.42 1808.96,1684.63 1818.39,1684.83 1827.82,1685.01 1837.25,1685.19 1846.68,1685.36 1856.11,1685.53 1865.54,1685.68 1874.97,1685.83 1884.4,1685.97 1893.84,1686.1 1903.27,1686.22 1912.7,1686.34 1922.13,1686.46 1931.56,1686.57 1940.99,1686.67 1950.42,1686.77 1959.85,1686.86 1969.28,1686.95 1978.71,1687.04 1988.14,1687.12 1997.57,1687.2 2007.01,1687.27 2016.44,1687.34 2025.87,1687.41 2035.3,1687.47 2044.73,1687.53 2054.16,1687.59 2063.59,1687.64 2073.02,1687.7 2082.45,1687.74 2091.88,1687.79 2101.31,1687.84 2110.74,1687.88 2120.18,1687.92 2129.61,1687.96 2139.04,1688 2148.47,1688.03 2157.9,1688.06 2167.33,1688.1 2176.76,1688.13 2186.19,1688.16 2195.62,1688.18 2205.05,1688.21 2214.48,1688.24 2223.91,1688.26 2233.34,1688.28 2242.78,1688.3 2252.21,1688.32 2261.64,1688.34 2271.07,1688.36 2280.5,1688.38 2289.93,1688.4 2299.36,1688.41 2308.79,1688.43 2318.22,1688.44 2327.65,1688.46 2337.08,1688.47 2346.51,1688.48 2355.95,1688.49 2365.38,1688.51 2374.81,1688.52 2384.24,1688.53 2393.67,1688.54 2403.1,1688.55 2412.53,1688.55 2421.96,1688.56 2431.39,1688.57 2440.82,1688.58 2450.25,1688.59 2459.68,1688.59 2469.12,1688.6 2478.55,1688.61 2487.98,1688.61 2497.41,1688.62 2506.84,1688.62 2516.27,1688.63 2525.7,1688.63 2535.13,1688.64 2544.56,1688.64 2553.99,1688.65 2563.42,1688.65 2572.85,1688.65 "/>
<path clip-path="url(#clip440)" d="M2178.18 388.696 L2560.78 388.696 L2560.78 181.336 L2178.18 181.336  Z" fill="#ffffff" fill-rule="evenodd" fill-opacity="1"/>
<polyline clip-path="url(#clip440)" style="stroke:#000000; stroke-linecap:round; stroke-linejoin:round; stroke-width:4; stroke-opacity:1; fill:none" points="2178.18,388.696 2560.78,388.696 2560.78,181.336 2178.18,181.336 2178.18,388.696 "/>
<polyline clip-path="url(#clip440)" style="stroke:#009af9; stroke-linecap:round; stroke-linejoin:round; stroke-width:8; stroke-opacity:1; fill:none" points="2204.84,233.176 2364.78,233.176 "/>
<path clip-path="url(#clip440)" d="M2413.69 217.031 L2413.69 221.591 Q2411.02 220.318 2408.66 219.693 Q2406.3 219.068 2404.1 219.068 Q2400.28 219.068 2398.2 220.549 Q2396.14 222.031 2396.14 224.762 Q2396.14 227.054 2397.51 228.234 Q2398.89 229.392 2402.74 230.109 L2405.56 230.688 Q2410.79 231.683 2413.27 234.206 Q2415.77 236.706 2415.77 240.919 Q2415.77 245.942 2412.39 248.535 Q2409.03 251.128 2402.53 251.128 Q2400.07 251.128 2397.3 250.572 Q2394.54 250.016 2391.58 248.929 L2391.58 244.114 Q2394.43 245.711 2397.16 246.521 Q2399.89 247.331 2402.53 247.331 Q2406.53 247.331 2408.71 245.757 Q2410.88 244.183 2410.88 241.267 Q2410.88 238.72 2409.31 237.285 Q2407.76 235.85 2404.19 235.132 L2401.35 234.577 Q2396.12 233.535 2393.78 231.313 Q2391.44 229.091 2391.44 225.132 Q2391.44 220.549 2394.66 217.91 Q2397.9 215.271 2403.57 215.271 Q2406 215.271 2408.52 215.711 Q2411.05 216.151 2413.69 217.031 Z" fill="#000000" fill-rule="nonzero" fill-opacity="1" /><path clip-path="url(#clip440)" d="M2427.09 217.169 L2427.09 224.531 L2435.86 224.531 L2435.86 227.841 L2427.09 227.841 L2427.09 241.915 Q2427.09 245.086 2427.94 245.989 Q2428.82 246.891 2431.49 246.891 L2435.86 246.891 L2435.86 250.456 L2431.49 250.456 Q2426.56 250.456 2424.68 248.628 Q2422.81 246.776 2422.81 241.915 L2422.81 227.841 L2419.68 227.841 L2419.68 224.531 L2422.81 224.531 L2422.81 217.169 L2427.09 217.169 Z" fill="#000000" fill-rule="nonzero" fill-opacity="1" /><path clip-path="url(#clip440)" d="M2463.64 236.429 L2463.64 238.512 L2444.06 238.512 Q2444.33 242.91 2446.69 245.225 Q2449.08 247.516 2453.32 247.516 Q2455.77 247.516 2458.06 246.915 Q2460.38 246.313 2462.64 245.109 L2462.64 249.137 Q2460.35 250.109 2457.94 250.618 Q2455.54 251.128 2453.06 251.128 Q2446.86 251.128 2443.22 247.516 Q2439.61 243.905 2439.61 237.748 Q2439.61 231.382 2443.04 227.655 Q2446.49 223.906 2452.32 223.906 Q2457.55 223.906 2460.58 227.285 Q2463.64 230.642 2463.64 236.429 M2459.38 235.179 Q2459.33 231.683 2457.41 229.6 Q2455.51 227.517 2452.37 227.517 Q2448.8 227.517 2446.65 229.53 Q2444.52 231.544 2444.19 235.202 L2459.38 235.179 Z" fill="#000000" fill-rule="nonzero" fill-opacity="1" /><path clip-path="url(#clip440)" d="M2474.75 246.567 L2474.75 260.317 L2470.47 260.317 L2470.47 224.531 L2474.75 224.531 L2474.75 228.466 Q2476.09 226.151 2478.13 225.04 Q2480.19 223.906 2483.04 223.906 Q2487.76 223.906 2490.7 227.655 Q2493.66 231.405 2493.66 237.517 Q2493.66 243.628 2490.7 247.378 Q2487.76 251.128 2483.04 251.128 Q2480.19 251.128 2478.13 250.016 Q2476.09 248.882 2474.75 246.567 M2489.24 237.517 Q2489.24 232.817 2487.3 230.155 Q2485.38 227.47 2482 227.47 Q2478.62 227.47 2476.67 230.155 Q2474.75 232.817 2474.75 237.517 Q2474.75 242.216 2476.67 244.901 Q2478.62 247.563 2482 247.563 Q2485.38 247.563 2487.3 244.901 Q2489.24 242.216 2489.24 237.517 Z" fill="#000000" fill-rule="nonzero" fill-opacity="1" /><polyline clip-path="url(#clip440)" style="stroke:#e26f46; stroke-linecap:round; stroke-linejoin:round; stroke-width:8; stroke-opacity:1; fill:none" stroke-dasharray="32, 20" points="2204.84,285.016 2364.78,285.016 "/>
<path clip-path="url(#clip440)" d="M2391.44 267.736 L2396.12 267.736 L2396.12 298.361 L2412.94 298.361 L2412.94 302.296 L2391.44 302.296 L2391.44 267.736 Z" fill="#000000" fill-rule="nonzero" fill-opacity="1" /><path clip-path="url(#clip440)" d="M2417.67 276.371 L2421.93 276.371 L2421.93 302.296 L2417.67 302.296 L2417.67 276.371 M2417.67 266.278 L2421.93 266.278 L2421.93 271.671 L2417.67 271.671 L2417.67 266.278 Z" fill="#000000" fill-rule="nonzero" fill-opacity="1" /><path clip-path="url(#clip440)" d="M2452.39 286.648 L2452.39 302.296 L2448.13 302.296 L2448.13 286.787 Q2448.13 283.107 2446.69 281.278 Q2445.26 279.449 2442.39 279.449 Q2438.94 279.449 2436.95 281.648 Q2434.96 283.847 2434.96 287.644 L2434.96 302.296 L2430.68 302.296 L2430.68 276.371 L2434.96 276.371 L2434.96 280.398 Q2436.49 278.06 2438.55 276.903 Q2440.63 275.746 2443.34 275.746 Q2447.81 275.746 2450.1 278.523 Q2452.39 281.278 2452.39 286.648 Z" fill="#000000" fill-rule="nonzero" fill-opacity="1" /><path clip-path="url(#clip440)" d="M2483.06 288.269 L2483.06 290.352 L2463.48 290.352 Q2463.75 294.75 2466.12 297.065 Q2468.5 299.356 2472.74 299.356 Q2475.19 299.356 2477.48 298.755 Q2479.8 298.153 2482.06 296.949 L2482.06 300.977 Q2479.77 301.949 2477.37 302.458 Q2474.96 302.968 2472.48 302.968 Q2466.28 302.968 2462.64 299.356 Q2459.03 295.745 2459.03 289.588 Q2459.03 283.222 2462.46 279.495 Q2465.91 275.746 2471.74 275.746 Q2476.97 275.746 2480 279.125 Q2483.06 282.482 2483.06 288.269 M2478.8 287.019 Q2478.75 283.523 2476.83 281.44 Q2474.94 279.357 2471.79 279.357 Q2468.22 279.357 2466.07 281.37 Q2463.94 283.384 2463.62 287.042 L2478.8 287.019 Z" fill="#000000" fill-rule="nonzero" fill-opacity="1" /><path clip-path="url(#clip440)" d="M2501.83 289.264 Q2496.67 289.264 2494.68 290.444 Q2492.69 291.625 2492.69 294.472 Q2492.69 296.741 2494.17 298.083 Q2495.68 299.403 2498.25 299.403 Q2501.79 299.403 2503.92 296.903 Q2506.07 294.38 2506.07 290.213 L2506.07 289.264 L2501.83 289.264 M2510.33 287.505 L2510.33 302.296 L2506.07 302.296 L2506.07 298.361 Q2504.61 300.722 2502.44 301.856 Q2500.26 302.968 2497.11 302.968 Q2493.13 302.968 2490.77 300.745 Q2488.43 298.5 2488.43 294.75 Q2488.43 290.375 2491.35 288.153 Q2494.29 285.931 2500.1 285.931 L2506.07 285.931 L2506.07 285.514 Q2506.07 282.574 2504.13 280.977 Q2502.2 279.357 2498.71 279.357 Q2496.49 279.357 2494.38 279.889 Q2492.27 280.421 2490.33 281.486 L2490.33 277.551 Q2492.67 276.648 2494.87 276.208 Q2497.06 275.746 2499.15 275.746 Q2504.77 275.746 2507.55 278.662 Q2510.33 281.579 2510.33 287.505 Z" fill="#000000" fill-rule="nonzero" fill-opacity="1" /><path clip-path="url(#clip440)" d="M2534.12 280.352 Q2533.41 279.935 2532.55 279.75 Q2531.72 279.542 2530.7 279.542 Q2527.09 279.542 2525.14 281.903 Q2523.22 284.241 2523.22 288.639 L2523.22 302.296 L2518.94 302.296 L2518.94 276.371 L2523.22 276.371 L2523.22 280.398 Q2524.56 278.037 2526.72 276.903 Q2528.87 275.746 2531.95 275.746 Q2532.39 275.746 2532.92 275.815 Q2533.45 275.861 2534.1 275.977 L2534.12 280.352 Z" fill="#000000" fill-rule="nonzero" fill-opacity="1" /><polyline clip-path="url(#clip440)" style="stroke:#3da44d; stroke-linecap:round; stroke-linejoin:round; stroke-width:8; stroke-opacity:1; fill:none" stroke-dasharray="4, 8" points="2204.84,336.856 2364.78,336.856 "/>
<path clip-path="url(#clip440)" d="M2413.69 320.711 L2413.69 325.271 Q2411.02 323.998 2408.66 323.373 Q2406.3 322.748 2404.1 322.748 Q2400.28 322.748 2398.2 324.229 Q2396.14 325.711 2396.14 328.442 Q2396.14 330.734 2397.51 331.914 Q2398.89 333.072 2402.74 333.789 L2405.56 334.368 Q2410.79 335.363 2413.27 337.886 Q2415.77 340.386 2415.77 344.599 Q2415.77 349.622 2412.39 352.215 Q2409.03 354.808 2402.53 354.808 Q2400.07 354.808 2397.3 354.252 Q2394.54 353.696 2391.58 352.609 L2391.58 347.794 Q2394.43 349.391 2397.16 350.201 Q2399.89 351.011 2402.53 351.011 Q2406.53 351.011 2408.71 349.437 Q2410.88 347.863 2410.88 344.947 Q2410.88 342.4 2409.31 340.965 Q2407.76 339.53 2404.19 338.812 L2401.35 338.257 Q2396.12 337.215 2393.78 334.993 Q2391.44 332.771 2391.44 328.812 Q2391.44 324.229 2394.66 321.59 Q2397.9 318.951 2403.57 318.951 Q2406 318.951 2408.52 319.391 Q2411.05 319.831 2413.69 320.711 Z" fill="#000000" fill-rule="nonzero" fill-opacity="1" /><path clip-path="url(#clip440)" d="M2427 350.247 L2427 363.997 L2422.71 363.997 L2422.71 328.211 L2427 328.211 L2427 332.146 Q2428.34 329.831 2430.38 328.72 Q2432.44 327.586 2435.28 327.586 Q2440 327.586 2442.94 331.335 Q2445.91 335.085 2445.91 341.197 Q2445.91 347.308 2442.94 351.058 Q2440 354.808 2435.28 354.808 Q2432.44 354.808 2430.38 353.696 Q2428.34 352.562 2427 350.247 M2441.49 341.197 Q2441.49 336.497 2439.54 333.835 Q2437.62 331.15 2434.24 331.15 Q2430.86 331.15 2428.92 333.835 Q2427 336.497 2427 341.197 Q2427 345.896 2428.92 348.581 Q2430.86 351.243 2434.24 351.243 Q2437.62 351.243 2439.54 348.581 Q2441.49 345.896 2441.49 341.197 Z" fill="#000000" fill-rule="nonzero" fill-opacity="1" /><path clip-path="url(#clip440)" d="M2452.97 318.118 L2457.23 318.118 L2457.23 354.136 L2452.97 354.136 L2452.97 318.118 Z" fill="#000000" fill-rule="nonzero" fill-opacity="1" /><path clip-path="url(#clip440)" d="M2466.14 328.211 L2470.4 328.211 L2470.4 354.136 L2466.14 354.136 L2466.14 328.211 M2466.14 318.118 L2470.4 318.118 L2470.4 323.511 L2466.14 323.511 L2466.14 318.118 Z" fill="#000000" fill-rule="nonzero" fill-opacity="1" /><path clip-path="url(#clip440)" d="M2500.86 338.488 L2500.86 354.136 L2496.6 354.136 L2496.6 338.627 Q2496.6 334.947 2495.17 333.118 Q2493.73 331.289 2490.86 331.289 Q2487.41 331.289 2485.42 333.488 Q2483.43 335.687 2483.43 339.484 L2483.43 354.136 L2479.15 354.136 L2479.15 328.211 L2483.43 328.211 L2483.43 332.238 Q2484.96 329.9 2487.02 328.743 Q2489.1 327.586 2491.81 327.586 Q2496.28 327.586 2498.57 330.363 Q2500.86 333.118 2500.86 338.488 Z" fill="#000000" fill-rule="nonzero" fill-opacity="1" /><path clip-path="url(#clip440)" d="M2531.53 340.109 L2531.53 342.192 L2511.95 342.192 Q2512.23 346.59 2514.59 348.905 Q2516.97 351.196 2521.21 351.196 Q2523.66 351.196 2525.95 350.595 Q2528.27 349.993 2530.54 348.789 L2530.54 352.817 Q2528.25 353.789 2525.84 354.298 Q2523.43 354.808 2520.95 354.808 Q2514.75 354.808 2511.12 351.196 Q2507.5 347.585 2507.5 341.428 Q2507.5 335.062 2510.93 331.335 Q2514.38 327.586 2520.21 327.586 Q2525.44 327.586 2528.48 330.965 Q2531.53 334.322 2531.53 340.109 M2527.27 338.859 Q2527.23 335.363 2525.31 333.28 Q2523.41 331.197 2520.26 331.197 Q2516.69 331.197 2514.54 333.21 Q2512.41 335.224 2512.09 338.882 L2527.27 338.859 Z" fill="#000000" fill-rule="nonzero" fill-opacity="1" /></svg>
