<?xml version="1.0" encoding="utf-8"?>
<svg xmlns="http://www.w3.org/2000/svg" xmlns:xlink="http://www.w3.org/1999/xlink" width="672" height="480" viewBox="0 0 2688 1920">
<defs>
  <clipPath id="clip410">
    <rect x="0" y="0" width="2688" height="1920"/>
  </clipPath>
</defs>
<path clip-path="url(#clip410)" d="M0 1920 L2688 1920 L2688 -4.26326e-14 L0 -4.26326e-14  Z" fill="#ffffff" fill-rule="evenodd" fill-opacity="1"/>
<defs>
  <clipPath id="clip411">
    <rect x="241" y="127" width="2400" height="1607"/>
  </clipPath>
</defs>
<path clip-path="url(#clip410)" d="M241.557 1734.12 L2640.76 1734.12 L2640.76 127.792 L241.557 127.792  Z" fill="#ffffff" fill-rule="evenodd" fill-opacity="1"/>
<polyline clip-path="url(#clip411)" style="stroke:#000000; stroke-linecap:round; stroke-linejoin:round; stroke-width:2; stroke-opacity:0.1; fill:none" points="309.459,1734.12 309.459,127.792 "/>
<polyline clip-path="url(#clip411)" style="stroke:#000000; stroke-linecap:round; stroke-linejoin:round; stroke-width:2; stroke-opacity:0.1; fill:none" points="781,1734.12 781,127.792 "/>
<polyline clip-path="url(#clip411)" style="stroke:#000000; stroke-linecap:round; stroke-linejoin:round; stroke-width:2; stroke-opacity:0.1; fill:none" points="1252.54,1734.12 1252.54,127.792 "/>
<polyline clip-path="url(#clip411)" style="stroke:#000000; stroke-linecap:round; stroke-linejoin:round; stroke-width:2; stroke-opacity:0.1; fill:none" points="1724.08,1734.12 1724.08,127.792 "/>
<polyline clip-path="url(#clip411)" style="stroke:#000000; stroke-linecap:round; stroke-linejoin:round; stroke-width:2; stroke-opacity:0.1; fill:none" points="2195.62,1734.12 2195.62,127.792 "/>
<polyline clip-path="url(#clip411)" style="stroke:#000000; stroke-linecap:round; stroke-linejoin:round; stroke-width:2; stroke-opacity:0.1; fill:none" points="241.557,1688.73 2640.76,1688.73 "/>
<polyline clip-path="url(#clip411)" style="stroke:#000000; stroke-linecap:round; stroke-linejoin:round; stroke-width:2; stroke-opacity:0.1; fill:none" points="241.557,1391.41 2640.76,1391.41 "/>
<polyline clip-path="url(#clip411)" style="stroke:#000000; stroke-linecap:round; stroke-linejoin:round; stroke-width:2; stroke-opacity:0.1; fill:none" points="241.557,1094.08 2640.76,1094.08 "/>
<polyline clip-path="url(#clip411)" style="stroke:#000000; stroke-linecap:round; stroke-linejoin:round; stroke-width:2; stroke-opacity:0.1; fill:none" points="241.557,796.755 2640.76,796.755 "/>
<polyline clip-path="url(#clip411)" style="stroke:#000000; stroke-linecap:round; stroke-linejoin:round; stroke-width:2; stroke-opacity:0.1; fill:none" points="241.557,499.429 2640.76,499.429 "/>
<polyline clip-path="url(#clip411)" style="stroke:#000000; stroke-linecap:round; stroke-linejoin:round; stroke-width:2; stroke-opacity:0.1; fill:none" points="241.557,202.104 2640.76,202.104 "/>
<polyline clip-path="url(#clip410)" style="stroke:#000000; stroke-linecap:round; stroke-linejoin:round; stroke-width:4; stroke-opacity:1; fill:none" points="241.557,1734.12 2640.76,1734.12 "/>
<polyline clip-path="url(#clip410)" style="stroke:#000000; stroke-linecap:round; stroke-linejoin:round; stroke-width:4; stroke-opacity:1; fill:none" points="309.459,1734.12 309.459,1715.22 "/>
<polyline clip-path="url(#clip410)" style="stroke:#000000; stroke-linecap:round; stroke-linejoin:round; stroke-width:4; stroke-opacity:1; fill:none" points="781,1734.12 781,1715.22 "/>
<polyline clip-path="url(#clip410)" style="stroke:#000000; stroke-linecap:round; stroke-linejoin:round; stroke-width:4; stroke-opacity:1; fill:none" points="1252.54,1734.12 1252.54,1715.22 "/>
<polyline clip-path="url(#clip410)" style="stroke:#000000; stroke-linecap:round; stroke-linejoin:round; stroke-width:4; stroke-opacity:1; fill:none" points="1724.08,1734.12 1724.08,1715.22 "/>
<polyline clip-path="url(#clip410)" style="stroke:#000000; stroke-linecap:round; stroke-linejoin:round; stroke-width:4; stroke-opacity:1; fill:none" points="2195.62,1734.12 2195.62,1715.22 "/>
<path clip-path="url(#clip410)" d="M309.459 1767.34 Q305.848 1767.34 304.019 1770.9 Q302.214 1774.45 302.214 1781.58 Q302.214 1788.68 304.019 1792.25 Q305.848 1795.79 309.459 1795.79 Q313.093 1795.79 314.899 1792.25 Q316.727 1788.68 316.727 1781.58 Q316.727 1774.45 314.899 1770.9 Q313.093 1767.34 309.459 1767.34 M309.459 1763.64 Q315.269 1763.64 318.325 1768.24 Q321.403 1772.83 321.403 1781.58 Q321.403 1790.3 318.325 1794.91 Q315.269 1799.49 309.459 1799.49 Q303.649 1799.49 300.57 1794.91 Q297.515 1790.3 297.515 1781.58 Q297.515 1772.83 300.57 1768.24 Q303.649 1763.64 309.459 1763.64 Z" fill="#000000" fill-rule="nonzero" fill-opacity="1" /><path clip-path="url(#clip410)" d="M760.271 1794.89 L776.59 1794.89 L776.59 1798.82 L754.646 1798.82 L754.646 1794.89 Q757.308 1792.13 761.891 1787.5 Q766.497 1782.85 767.678 1781.51 Q769.923 1778.98 770.803 1777.25 Q771.706 1775.49 771.706 1773.8 Q771.706 1771.04 769.761 1769.31 Q767.84 1767.57 764.738 1767.57 Q762.539 1767.57 760.085 1768.34 Q757.655 1769.1 754.877 1770.65 L754.877 1765.93 Q757.701 1764.79 760.155 1764.21 Q762.609 1763.64 764.646 1763.64 Q770.016 1763.64 773.21 1766.32 Q776.405 1769.01 776.405 1773.5 Q776.405 1775.63 775.595 1777.55 Q774.808 1779.45 772.701 1782.04 Q772.122 1782.71 769.021 1785.93 Q765.919 1789.12 760.271 1794.89 Z" fill="#000000" fill-rule="nonzero" fill-opacity="1" /><path clip-path="url(#clip410)" d="M786.451 1764.26 L804.807 1764.26 L804.807 1768.2 L790.733 1768.2 L790.733 1776.67 Q791.752 1776.32 792.77 1776.16 Q793.789 1775.97 794.807 1775.97 Q800.594 1775.97 803.974 1779.15 Q807.354 1782.32 807.354 1787.73 Q807.354 1793.31 803.881 1796.41 Q800.409 1799.49 794.09 1799.49 Q791.914 1799.49 789.645 1799.12 Q787.4 1798.75 784.993 1798.01 L784.993 1793.31 Q787.076 1794.45 789.298 1795 Q791.52 1795.56 793.997 1795.56 Q798.002 1795.56 800.34 1793.45 Q802.678 1791.34 802.678 1787.73 Q802.678 1784.12 800.34 1782.02 Q798.002 1779.91 793.997 1779.91 Q792.122 1779.91 790.247 1780.33 Q788.395 1780.74 786.451 1781.62 L786.451 1764.26 Z" fill="#000000" fill-rule="nonzero" fill-opacity="1" /><path clip-path="url(#clip410)" d="M1227.24 1764.26 L1245.6 1764.26 L1245.6 1768.2 L1231.52 1768.2 L1231.52 1776.67 Q1232.54 1776.32 1233.56 1776.16 Q1234.58 1775.97 1235.6 1775.97 Q1241.38 1775.97 1244.76 1779.15 Q1248.14 1782.32 1248.14 1787.73 Q1248.14 1793.31 1244.67 1796.41 Q1241.2 1799.49 1234.88 1799.49 Q1232.7 1799.49 1230.43 1799.12 Q1228.19 1798.75 1225.78 1798.01 L1225.78 1793.31 Q1227.86 1794.45 1230.09 1795 Q1232.31 1795.56 1234.79 1795.56 Q1238.79 1795.56 1241.13 1793.45 Q1243.47 1791.34 1243.47 1787.73 Q1243.47 1784.12 1241.13 1782.02 Q1238.79 1779.91 1234.79 1779.91 Q1232.91 1779.91 1231.04 1780.33 Q1229.18 1780.74 1227.24 1781.62 L1227.24 1764.26 Z" fill="#000000" fill-rule="nonzero" fill-opacity="1" /><path clip-path="url(#clip410)" d="M1267.36 1767.34 Q1263.74 1767.34 1261.92 1770.9 Q1260.11 1774.45 1260.11 1781.58 Q1260.11 1788.68 1261.92 1792.25 Q1263.74 1795.79 1267.36 1795.79 Q1270.99 1795.79 1272.79 1792.25 Q1274.62 1788.68 1274.62 1781.58 Q1274.62 1774.45 1272.79 1770.9 Q1270.99 1767.34 1267.36 1767.34 M1267.36 1763.64 Q1273.17 1763.64 1276.22 1768.24 Q1279.3 1772.83 1279.3 1781.58 Q1279.3 1790.3 1276.22 1794.91 Q1273.17 1799.49 1267.36 1799.49 Q1261.54 1799.49 1258.47 1794.91 Q1255.41 1790.3 1255.41 1781.58 Q1255.41 1772.83 1258.47 1768.24 Q1261.54 1763.64 1267.36 1763.64 Z" fill="#000000" fill-rule="nonzero" fill-opacity="1" /><path clip-path="url(#clip410)" d="M1697.94 1764.26 L1720.16 1764.26 L1720.16 1766.25 L1707.61 1798.82 L1702.73 1798.82 L1714.53 1768.2 L1697.94 1768.2 L1697.94 1764.26 Z" fill="#000000" fill-rule="nonzero" fill-opacity="1" /><path clip-path="url(#clip410)" d="M1729.32 1764.26 L1747.68 1764.26 L1747.68 1768.2 L1733.61 1768.2 L1733.61 1776.67 Q1734.62 1776.32 1735.64 1776.16 Q1736.66 1775.97 1737.68 1775.97 Q1743.47 1775.97 1746.85 1779.15 Q1750.23 1782.32 1750.23 1787.73 Q1750.23 1793.31 1746.75 1796.41 Q1743.28 1799.49 1736.96 1799.49 Q1734.79 1799.49 1732.52 1799.12 Q1730.27 1798.75 1727.87 1798.01 L1727.87 1793.31 Q1729.95 1794.45 1732.17 1795 Q1734.39 1795.56 1736.87 1795.56 Q1740.87 1795.56 1743.21 1793.45 Q1745.55 1791.34 1745.55 1787.73 Q1745.55 1784.12 1743.21 1782.02 Q1740.87 1779.91 1736.87 1779.91 Q1735 1779.91 1733.12 1780.33 Q1731.27 1780.74 1729.32 1781.62 L1729.32 1764.26 Z" fill="#000000" fill-rule="nonzero" fill-opacity="1" /><path clip-path="url(#clip410)" d="M2155.23 1794.89 L2162.87 1794.89 L2162.87 1768.52 L2154.56 1770.19 L2154.56 1765.93 L2162.82 1764.26 L2167.5 1764.26 L2167.5 1794.89 L2175.14 1794.89 L2175.14 1798.82 L2155.23 1798.82 L2155.23 1794.89 Z" fill="#000000" fill-rule="nonzero" fill-opacity="1" /><path clip-path="url(#clip410)" d="M2194.58 1767.34 Q2190.97 1767.34 2189.14 1770.9 Q2187.33 1774.45 2187.33 1781.58 Q2187.33 1788.68 2189.14 1792.25 Q2190.97 1795.79 2194.58 1795.79 Q2198.21 1795.79 2200.02 1792.25 Q2201.85 1788.68 2201.85 1781.58 Q2201.85 1774.45 2200.02 1770.9 Q2198.21 1767.34 2194.58 1767.34 M2194.58 1763.64 Q2200.39 1763.64 2203.45 1768.24 Q2206.52 1772.83 2206.52 1781.58 Q2206.52 1790.3 2203.45 1794.91 Q2200.39 1799.49 2194.58 1799.49 Q2188.77 1799.49 2185.69 1794.91 Q2182.64 1790.3 2182.64 1781.58 Q2182.64 1772.83 2185.69 1768.24 Q2188.77 1763.64 2194.58 1763.64 Z" fill="#000000" fill-rule="nonzero" fill-opacity="1" /><path clip-path="url(#clip410)" d="M2224.74 1767.34 Q2221.13 1767.34 2219.3 1770.9 Q2217.5 1774.45 2217.5 1781.58 Q2217.5 1788.68 2219.3 1792.25 Q2221.13 1795.79 2224.74 1795.79 Q2228.38 1795.79 2230.18 1792.25 Q2232.01 1788.68 2232.01 1781.58 Q2232.01 1774.45 2230.18 1770.9 Q2228.38 1767.34 2224.74 1767.34 M2224.74 1763.64 Q2230.55 1763.64 2233.61 1768.24 Q2236.69 1772.83 2236.69 1781.58 Q2236.69 1790.3 2233.61 1794.91 Q2230.55 1799.49 2224.74 1799.49 Q2218.93 1799.49 2215.85 1794.91 Q2212.8 1790.3 2212.8 1781.58 Q2212.8 1772.83 2215.85 1768.24 Q2218.93 1763.64 2224.74 1763.64 Z" fill="#000000" fill-rule="nonzero" fill-opacity="1" /><path clip-path="url(#clip410)" d="M1363.03 1835.78 L1403.23 1835.78 L1403.23 1841.19 L1386.36 1841.19 L1386.36 1883.3 L1379.9 1883.3 L1379.9 1841.19 L1363.03 1841.19 L1363.03 1835.78 Z" fill="#000000" fill-rule="nonzero" fill-opacity="1" /><path clip-path="url(#clip410)" d="M1407.18 1847.65 L1413.04 1847.65 L1413.04 1883.3 L1407.18 1883.3 L1407.18 1847.65 M1407.18 1833.78 L1413.04 1833.78 L1413.04 1841.19 L1407.18 1841.19 L1407.18 1833.78 Z" fill="#000000" fill-rule="nonzero" fill-opacity="1" /><path clip-path="url(#clip410)" d="M1453.04 1854.5 Q1455.24 1850.55 1458.3 1848.67 Q1461.35 1846.79 1465.49 1846.79 Q1471.06 1846.79 1474.08 1850.71 Q1477.11 1854.59 1477.11 1861.78 L1477.11 1883.3 L1471.22 1883.3 L1471.22 1861.98 Q1471.22 1856.85 1469.4 1854.37 Q1467.59 1851.89 1463.87 1851.89 Q1459.31 1851.89 1456.67 1854.91 Q1454.03 1857.93 1454.03 1863.15 L1454.03 1883.3 L1448.14 1883.3 L1448.14 1861.98 Q1448.14 1856.82 1446.33 1854.37 Q1444.51 1851.89 1440.73 1851.89 Q1436.24 1851.89 1433.6 1854.94 Q1430.96 1857.97 1430.96 1863.15 L1430.96 1883.3 L1425.07 1883.3 L1425.07 1847.65 L1430.96 1847.65 L1430.96 1853.19 Q1432.96 1849.91 1435.76 1848.35 Q1438.56 1846.79 1442.41 1846.79 Q1446.3 1846.79 1449 1848.77 Q1451.74 1850.74 1453.04 1854.5 Z" fill="#000000" fill-rule="nonzero" fill-opacity="1" /><path clip-path="url(#clip410)" d="M1519.28 1864.01 L1519.28 1866.88 L1492.35 1866.88 Q1492.73 1872.92 1495.98 1876.11 Q1499.26 1879.26 1505.08 1879.26 Q1508.46 1879.26 1511.61 1878.43 Q1514.79 1877.6 1517.91 1875.95 L1517.91 1881.49 Q1514.76 1882.82 1511.45 1883.52 Q1508.14 1884.22 1504.73 1884.22 Q1496.2 1884.22 1491.21 1879.26 Q1486.24 1874.29 1486.24 1865.83 Q1486.24 1857.07 1490.95 1851.95 Q1495.69 1846.79 1503.72 1846.79 Q1510.91 1846.79 1515.08 1851.44 Q1519.28 1856.06 1519.28 1864.01 M1513.42 1862.29 Q1513.36 1857.49 1510.72 1854.62 Q1508.11 1851.76 1503.78 1851.76 Q1498.88 1851.76 1495.92 1854.53 Q1492.99 1857.3 1492.54 1862.33 L1513.42 1862.29 Z" fill="#000000" fill-rule="nonzero" fill-opacity="1" /><polyline clip-path="url(#clip410)" style="stroke:#000000; stroke-linecap:round; stroke-linejoin:round; stroke-width:4; stroke-opacity:1; fill:none" points="241.557,1734.12 241.557,127.792 "/>
<polyline clip-path="url(#clip410)" style="stroke:#000000; stroke-linecap:round; stroke-linejoin:round; stroke-width:4; stroke-opacity:1; fill:none" points="241.557,1688.73 260.455,1688.73 "/>
<polyline clip-path="url(#clip410)" style="stroke:#000000; stroke-linecap:round; stroke-linejoin:round; stroke-width:4; stroke-opacity:1; fill:none" points="241.557,1391.41 260.455,1391.41 "/>
<polyline clip-path="url(#clip410)" style="stroke:#000000; stroke-linecap:round; stroke-linejoin:round; stroke-width:4; stroke-opacity:1; fill:none" points="241.557,1094.08 260.455,1094.08 "/>
<polyline clip-path="url(#clip410)" style="stroke:#000000; stroke-linecap:round; stroke-linejoin:round; stroke-width:4; stroke-opacity:1; fill:none" points="241.557,796.755 260.455,796.755 "/>
<polyline clip-path="url(#clip410)" style="stroke:#000000; stroke-linecap:round; stroke-linejoin:round; stroke-width:4; stroke-opacity:1; fill:none" points="241.557,499.429 260.455,499.429 "/>
<polyline clip-path="url(#clip410)" style="stroke:#000000; stroke-linecap:round; stroke-linejoin:round; stroke-width:4; stroke-opacity:1; fill:none" points="241.557,202.104 260.455,202.104 "/>
<path clip-path="url(#clip410)" d="M189.293 1674.53 Q185.682 1674.53 183.853 1678.09 Q182.047 1681.64 182.047 1688.77 Q182.047 1695.87 183.853 1699.44 Q185.682 1702.98 189.293 1702.98 Q192.927 1702.98 194.733 1699.44 Q196.561 1695.87 196.561 1688.77 Q196.561 1681.64 194.733 1678.09 Q192.927 1674.53 189.293 1674.53 M189.293 1670.83 Q195.103 1670.83 198.158 1675.43 Q201.237 1680.02 201.237 1688.77 Q201.237 1697.49 198.158 1702.1 Q195.103 1706.68 189.293 1706.68 Q183.483 1706.68 180.404 1702.1 Q177.348 1697.49 177.348 1688.77 Q177.348 1680.02 180.404 1675.43 Q183.483 1670.83 189.293 1670.83 Z" fill="#000000" fill-rule="nonzero" fill-opacity="1" /><path clip-path="url(#clip410)" d="M119.779 1404.75 L127.418 1404.75 L127.418 1378.39 L119.108 1380.05 L119.108 1375.79 L127.372 1374.13 L132.048 1374.13 L132.048 1404.75 L139.687 1404.75 L139.687 1408.69 L119.779 1408.69 L119.779 1404.75 Z" fill="#000000" fill-rule="nonzero" fill-opacity="1" /><path clip-path="url(#clip410)" d="M159.131 1377.2 Q155.52 1377.2 153.691 1380.77 Q151.886 1384.31 151.886 1391.44 Q151.886 1398.55 153.691 1402.11 Q155.52 1405.65 159.131 1405.65 Q162.765 1405.65 164.571 1402.11 Q166.399 1398.55 166.399 1391.44 Q166.399 1384.31 164.571 1380.77 Q162.765 1377.2 159.131 1377.2 M159.131 1373.5 Q164.941 1373.5 167.997 1378.11 Q171.075 1382.69 171.075 1391.44 Q171.075 1400.17 167.997 1404.77 Q164.941 1409.36 159.131 1409.36 Q153.321 1409.36 150.242 1404.77 Q147.186 1400.17 147.186 1391.44 Q147.186 1382.69 150.242 1378.11 Q153.321 1373.5 159.131 1373.5 Z" fill="#000000" fill-rule="nonzero" fill-opacity="1" /><path clip-path="url(#clip410)" d="M189.293 1377.2 Q185.682 1377.2 183.853 1380.77 Q182.047 1384.31 182.047 1391.44 Q182.047 1398.55 183.853 1402.11 Q185.682 1405.65 189.293 1405.65 Q192.927 1405.65 194.733 1402.11 Q196.561 1398.55 196.561 1391.44 Q196.561 1384.31 194.733 1380.77 Q192.927 1377.2 189.293 1377.2 M189.293 1373.5 Q195.103 1373.5 198.158 1378.11 Q201.237 1382.69 201.237 1391.44 Q201.237 1400.17 198.158 1404.77 Q195.103 1409.36 189.293 1409.36 Q183.483 1409.36 180.404 1404.77 Q177.348 1400.17 177.348 1391.44 Q177.348 1382.69 180.404 1378.11 Q183.483 1373.5 189.293 1373.5 Z" fill="#000000" fill-rule="nonzero" fill-opacity="1" /><path clip-path="url(#clip410)" d="M122.997 1107.43 L139.316 1107.43 L139.316 1111.36 L117.372 1111.36 L117.372 1107.43 Q120.034 1104.67 124.617 1100.04 Q129.224 1095.39 130.404 1094.05 Q132.65 1091.52 133.529 1089.79 Q134.432 1088.03 134.432 1086.34 Q134.432 1083.58 132.488 1081.85 Q130.566 1080.11 127.464 1080.11 Q125.265 1080.11 122.812 1080.87 Q120.381 1081.64 117.603 1083.19 L117.603 1078.47 Q120.427 1077.33 122.881 1076.75 Q125.335 1076.18 127.372 1076.18 Q132.742 1076.18 135.937 1078.86 Q139.131 1081.55 139.131 1086.04 Q139.131 1088.17 138.321 1090.09 Q137.534 1091.99 135.427 1094.58 Q134.849 1095.25 131.747 1098.47 Q128.645 1101.66 122.997 1107.43 Z" fill="#000000" fill-rule="nonzero" fill-opacity="1" /><path clip-path="url(#clip410)" d="M159.131 1079.88 Q155.52 1079.88 153.691 1083.44 Q151.886 1086.99 151.886 1094.12 Q151.886 1101.22 153.691 1104.79 Q155.52 1108.33 159.131 1108.33 Q162.765 1108.33 164.571 1104.79 Q166.399 1101.22 166.399 1094.12 Q166.399 1086.99 164.571 1083.44 Q162.765 1079.88 159.131 1079.88 M159.131 1076.18 Q164.941 1076.18 167.997 1080.78 Q171.075 1085.37 171.075 1094.12 Q171.075 1102.84 167.997 1107.45 Q164.941 1112.03 159.131 1112.03 Q153.321 1112.03 150.242 1107.45 Q147.186 1102.84 147.186 1094.12 Q147.186 1085.37 150.242 1080.78 Q153.321 1076.18 159.131 1076.18 Z" fill="#000000" fill-rule="nonzero" fill-opacity="1" /><path clip-path="url(#clip410)" d="M189.293 1079.88 Q185.682 1079.88 183.853 1083.44 Q182.047 1086.99 182.047 1094.12 Q182.047 1101.22 183.853 1104.79 Q185.682 1108.33 189.293 1108.33 Q192.927 1108.33 194.733 1104.79 Q196.561 1101.22 196.561 1094.12 Q196.561 1086.99 194.733 1083.44 Q192.927 1079.88 189.293 1079.88 M189.293 1076.18 Q195.103 1076.18 198.158 1080.78 Q201.237 1085.37 201.237 1094.12 Q201.237 1102.84 198.158 1107.45 Q195.103 1112.03 189.293 1112.03 Q183.483 1112.03 180.404 1107.45 Q177.348 1102.84 177.348 1094.12 Q177.348 1085.37 180.404 1080.78 Q183.483 1076.18 189.293 1076.18 Z" fill="#000000" fill-rule="nonzero" fill-opacity="1" /><path clip-path="url(#clip410)" d="M133.136 795.401 Q136.492 796.118 138.367 798.387 Q140.265 800.655 140.265 803.989 Q140.265 809.104 136.747 811.905 Q133.228 814.706 126.747 814.706 Q124.571 814.706 122.256 814.266 Q119.964 813.85 117.511 812.993 L117.511 808.479 Q119.455 809.614 121.77 810.192 Q124.085 810.771 126.608 810.771 Q131.006 810.771 133.298 809.035 Q135.612 807.299 135.612 803.989 Q135.612 800.933 133.46 799.22 Q131.33 797.484 127.511 797.484 L123.483 797.484 L123.483 793.641 L127.696 793.641 Q131.145 793.641 132.974 792.276 Q134.802 790.887 134.802 788.294 Q134.802 785.632 132.904 784.22 Q131.029 782.785 127.511 782.785 Q125.589 782.785 123.39 783.202 Q121.191 783.618 118.552 784.498 L118.552 780.331 Q121.214 779.591 123.529 779.22 Q125.867 778.85 127.927 778.85 Q133.251 778.85 136.353 781.28 Q139.455 783.688 139.455 787.808 Q139.455 790.679 137.812 792.669 Q136.168 794.637 133.136 795.401 Z" fill="#000000" fill-rule="nonzero" fill-opacity="1" /><path clip-path="url(#clip410)" d="M159.131 782.554 Q155.52 782.554 153.691 786.118 Q151.886 789.66 151.886 796.79 Q151.886 803.896 153.691 807.461 Q155.52 811.002 159.131 811.002 Q162.765 811.002 164.571 807.461 Q166.399 803.896 166.399 796.79 Q166.399 789.66 164.571 786.118 Q162.765 782.554 159.131 782.554 M159.131 778.85 Q164.941 778.85 167.997 783.456 Q171.075 788.04 171.075 796.79 Q171.075 805.516 167.997 810.123 Q164.941 814.706 159.131 814.706 Q153.321 814.706 150.242 810.123 Q147.186 805.516 147.186 796.79 Q147.186 788.04 150.242 783.456 Q153.321 778.85 159.131 778.85 Z" fill="#000000" fill-rule="nonzero" fill-opacity="1" /><path clip-path="url(#clip410)" d="M189.293 782.554 Q185.682 782.554 183.853 786.118 Q182.047 789.66 182.047 796.79 Q182.047 803.896 183.853 807.461 Q185.682 811.002 189.293 811.002 Q192.927 811.002 194.733 807.461 Q196.561 803.896 196.561 796.79 Q196.561 789.66 194.733 786.118 Q192.927 782.554 189.293 782.554 M189.293 778.85 Q195.103 778.85 198.158 783.456 Q201.237 788.04 201.237 796.79 Q201.237 805.516 198.158 810.123 Q195.103 814.706 189.293 814.706 Q183.483 814.706 180.404 810.123 Q177.348 805.516 177.348 796.79 Q177.348 788.04 180.404 783.456 Q183.483 778.85 189.293 778.85 Z" fill="#000000" fill-rule="nonzero" fill-opacity="1" /><path clip-path="url(#clip410)" d="M131.816 486.223 L120.011 504.672 L131.816 504.672 L131.816 486.223 M130.589 482.149 L136.469 482.149 L136.469 504.672 L141.399 504.672 L141.399 508.561 L136.469 508.561 L136.469 516.709 L131.816 516.709 L131.816 508.561 L116.214 508.561 L116.214 504.047 L130.589 482.149 Z" fill="#000000" fill-rule="nonzero" fill-opacity="1" /><path clip-path="url(#clip410)" d="M159.131 485.228 Q155.52 485.228 153.691 488.793 Q151.886 492.334 151.886 499.464 Q151.886 506.571 153.691 510.135 Q155.52 513.677 159.131 513.677 Q162.765 513.677 164.571 510.135 Q166.399 506.571 166.399 499.464 Q166.399 492.334 164.571 488.793 Q162.765 485.228 159.131 485.228 M159.131 481.524 Q164.941 481.524 167.997 486.131 Q171.075 490.714 171.075 499.464 Q171.075 508.191 167.997 512.797 Q164.941 517.381 159.131 517.381 Q153.321 517.381 150.242 512.797 Q147.186 508.191 147.186 499.464 Q147.186 490.714 150.242 486.131 Q153.321 481.524 159.131 481.524 Z" fill="#000000" fill-rule="nonzero" fill-opacity="1" /><path clip-path="url(#clip410)" d="M189.293 485.228 Q185.682 485.228 183.853 488.793 Q182.047 492.334 182.047 499.464 Q182.047 506.571 183.853 510.135 Q185.682 513.677 189.293 513.677 Q192.927 513.677 194.733 510.135 Q196.561 506.571 196.561 499.464 Q196.561 492.334 194.733 488.793 Q192.927 485.228 189.293 485.228 M189.293 481.524 Q195.103 481.524 198.158 486.131 Q201.237 490.714 201.237 499.464 Q201.237 508.191 198.158 512.797 Q195.103 517.381 189.293 517.381 Q183.483 517.381 180.404 512.797 Q177.348 508.191 177.348 499.464 Q177.348 490.714 180.404 486.131 Q183.483 481.524 189.293 481.524 Z" fill="#000000" fill-rule="nonzero" fill-opacity="1" /><path clip-path="url(#clip410)" d="M119.015 184.824 L137.372 184.824 L137.372 188.759 L123.298 188.759 L123.298 197.231 Q124.316 196.884 125.335 196.722 Q126.353 196.537 127.372 196.537 Q133.159 196.537 136.538 199.708 Q139.918 202.879 139.918 208.296 Q139.918 213.875 136.446 216.976 Q132.974 220.055 126.654 220.055 Q124.478 220.055 122.21 219.685 Q119.964 219.314 117.557 218.574 L117.557 213.875 Q119.64 215.009 121.863 215.564 Q124.085 216.12 126.562 216.12 Q130.566 216.12 132.904 214.013 Q135.242 211.907 135.242 208.296 Q135.242 204.685 132.904 202.578 Q130.566 200.472 126.562 200.472 Q124.687 200.472 122.812 200.889 Q120.96 201.305 119.015 202.185 L119.015 184.824 Z" fill="#000000" fill-rule="nonzero" fill-opacity="1" /><path clip-path="url(#clip410)" d="M159.131 187.902 Q155.52 187.902 153.691 191.467 Q151.886 195.009 151.886 202.139 Q151.886 209.245 153.691 212.81 Q155.52 216.351 159.131 216.351 Q162.765 216.351 164.571 212.81 Q166.399 209.245 166.399 202.139 Q166.399 195.009 164.571 191.467 Q162.765 187.902 159.131 187.902 M159.131 184.199 Q164.941 184.199 167.997 188.805 Q171.075 193.389 171.075 202.139 Q171.075 210.865 167.997 215.472 Q164.941 220.055 159.131 220.055 Q153.321 220.055 150.242 215.472 Q147.186 210.865 147.186 202.139 Q147.186 193.389 150.242 188.805 Q153.321 184.199 159.131 184.199 Z" fill="#000000" fill-rule="nonzero" fill-opacity="1" /><path clip-path="url(#clip410)" d="M189.293 187.902 Q185.682 187.902 183.853 191.467 Q182.047 195.009 182.047 202.139 Q182.047 209.245 183.853 212.81 Q185.682 216.351 189.293 216.351 Q192.927 216.351 194.733 212.81 Q196.561 209.245 196.561 202.139 Q196.561 195.009 194.733 191.467 Q192.927 187.902 189.293 187.902 M189.293 184.199 Q195.103 184.199 198.158 188.805 Q201.237 193.389 201.237 202.139 Q201.237 210.865 198.158 215.472 Q195.103 220.055 189.293 220.055 Q183.483 220.055 180.404 215.472 Q177.348 210.865 177.348 202.139 Q177.348 193.389 180.404 188.805 Q183.483 184.199 189.293 184.199 Z" fill="#000000" fill-rule="nonzero" fill-opacity="1" /><path clip-path="url(#clip410)" d="M14.1184 1058.03 L14.1184 1051.6 L61.6384 1051.6 L61.6384 1058.03 L14.1184 1058.03 Z" fill="#000000" fill-rule="nonzero" fill-opacity="1" /><path clip-path="url(#clip410)" d="M40.1224 1009.43 L61.6384 1009.43 L61.6384 1015.28 L40.3133 1015.28 Q35.2526 1015.28 32.7381 1017.26 Q30.2237 1019.23 30.2237 1023.18 Q30.2237 1027.92 33.2474 1030.66 Q36.2711 1033.39 41.491 1033.39 L61.6384 1033.39 L61.6384 1039.28 L25.9905 1039.28 L25.9905 1033.39 L31.5287 1033.39 Q28.314 1031.29 26.7225 1028.46 Q25.1311 1025.6 25.1311 1021.87 Q25.1311 1015.73 28.9505 1012.58 Q32.7381 1009.43 40.1224 1009.43 Z" fill="#000000" fill-rule="nonzero" fill-opacity="1" /><path clip-path="url(#clip410)" d="M12.1132 979.7 L16.983 979.7 L16.983 985.302 Q16.983 988.453 18.2562 989.694 Q19.5293 990.904 22.8395 990.904 L25.9905 990.904 L25.9905 981.26 L30.542 981.26 L30.542 990.904 L61.6384 990.904 L61.6384 996.792 L30.542 996.792 L30.542 1002.39 L25.9905 1002.39 L25.9905 996.792 L23.5079 996.792 Q17.5559 996.792 14.8505 994.023 Q12.1132 991.254 12.1132 985.238 L12.1132 979.7 Z" fill="#000000" fill-rule="nonzero" fill-opacity="1" /><path clip-path="url(#clip410)" d="M42.3504 944.307 L45.2149 944.307 L45.2149 971.234 Q51.2623 970.852 54.4452 967.605 Q57.5962 964.327 57.5962 958.502 Q57.5962 955.128 56.7687 951.977 Q55.9411 948.794 54.2861 945.675 L59.8242 945.675 Q61.161 948.826 61.8612 952.136 Q62.5615 955.447 62.5615 958.852 Q62.5615 967.382 57.5962 972.379 Q52.631 977.345 44.1646 977.345 Q35.4117 977.345 30.2873 972.634 Q25.1311 967.892 25.1311 959.871 Q25.1311 952.678 29.7781 948.508 Q34.3932 944.307 42.3504 944.307 M40.6316 950.163 Q35.8255 950.227 32.9609 952.869 Q30.0964 955.478 30.0964 959.807 Q30.0964 964.709 32.8654 967.669 Q35.6345 970.597 40.6634 971.043 L40.6316 950.163 Z" fill="#000000" fill-rule="nonzero" fill-opacity="1" /><path clip-path="url(#clip410)" d="M27.3591 909.041 L32.8336 909.041 Q31.465 911.523 30.7966 914.038 Q30.0964 916.52 30.0964 919.067 Q30.0964 924.764 33.7248 927.915 Q37.3214 931.066 43.8463 931.066 Q50.3711 931.066 53.9996 927.915 Q57.5962 924.764 57.5962 919.067 Q57.5962 916.52 56.9278 914.038 Q56.2276 911.523 54.859 909.041 L60.2698 909.041 Q61.4156 911.491 61.9886 914.133 Q62.5615 916.743 62.5615 919.703 Q62.5615 927.756 57.5007 932.498 Q52.44 937.241 43.8463 937.241 Q35.1253 937.241 30.1282 932.466 Q25.1311 927.66 25.1311 919.321 Q25.1311 916.616 25.704 914.038 Q26.2451 911.46 27.3591 909.041 Z" fill="#000000" fill-rule="nonzero" fill-opacity="1" /><path clip-path="url(#clip410)" d="M15.869 893.063 L25.9905 893.063 L25.9905 881 L30.542 881 L30.542 893.063 L49.8937 893.063 Q54.2542 893.063 55.4955 891.885 Q56.7368 890.676 56.7368 887.015 L56.7368 881 L61.6384 881 L61.6384 887.015 Q61.6384 893.795 59.124 896.373 Q56.5777 898.951 49.8937 898.951 L30.542 898.951 L30.542 903.248 L25.9905 903.248 L25.9905 898.951 L15.869 898.951 L15.869 893.063 Z" fill="#000000" fill-rule="nonzero" fill-opacity="1" /><path clip-path="url(#clip410)" d="M42.3504 842.805 L45.2149 842.805 L45.2149 869.732 Q51.2623 869.35 54.4452 866.104 Q57.5962 862.826 57.5962 857.001 Q57.5962 853.627 56.7687 850.476 Q55.9411 847.293 54.2861 844.174 L59.8242 844.174 Q61.161 847.325 61.8612 850.635 Q62.5615 853.945 62.5615 857.351 Q62.5615 865.881 57.5962 870.878 Q52.631 875.843 44.1646 875.843 Q35.4117 875.843 30.2873 871.133 Q25.1311 866.39 25.1311 858.37 Q25.1311 851.176 29.7781 847.007 Q34.3932 842.805 42.3504 842.805 M40.6316 848.662 Q35.8255 848.726 32.9609 851.367 Q30.0964 853.977 30.0964 858.306 Q30.0964 863.208 32.8654 866.168 Q35.6345 869.096 40.6634 869.541 L40.6316 848.662 Z" fill="#000000" fill-rule="nonzero" fill-opacity="1" /><path clip-path="url(#clip410)" d="M31.4013 809.736 L12.1132 809.736 L12.1132 803.879 L61.6384 803.879 L61.6384 809.736 L56.2912 809.736 Q59.4741 811.582 61.0337 814.414 Q62.5615 817.215 62.5615 821.162 Q62.5615 827.623 57.4052 831.697 Q52.249 835.739 43.8463 835.739 Q35.4436 835.739 30.2873 831.697 Q25.1311 827.623 25.1311 821.162 Q25.1311 817.215 26.6907 814.414 Q28.2185 811.582 31.4013 809.736 M43.8463 829.692 Q50.3075 829.692 53.9996 827.05 Q57.6599 824.377 57.6599 819.73 Q57.6599 815.083 53.9996 812.409 Q50.3075 809.736 43.8463 809.736 Q37.3851 809.736 33.7248 812.409 Q30.0327 815.083 30.0327 819.73 Q30.0327 824.377 33.7248 827.05 Q37.3851 829.692 43.8463 829.692 Z" fill="#000000" fill-rule="nonzero" fill-opacity="1" /><path clip-path="url(#clip410)" d="M867.751 14.0809 L867.751 22.0612 Q863.092 19.8332 858.961 18.7395 Q854.829 17.6457 850.98 17.6457 Q844.296 17.6457 840.65 20.2383 Q837.045 22.8309 837.045 27.611 Q837.045 31.6214 839.435 33.6873 Q841.866 35.7128 848.59 36.9686 L853.532 37.9813 Q862.687 39.7232 867.022 44.1387 Q871.397 48.5136 871.397 55.8863 Q871.397 64.6767 865.483 69.2137 Q859.609 73.7508 848.226 73.7508 Q843.932 73.7508 839.071 72.7785 Q834.25 71.8063 829.065 69.9024 L829.065 61.4765 Q834.048 64.2716 838.828 65.6895 Q843.608 67.1073 848.226 67.1073 Q855.234 67.1073 859.042 64.3527 Q862.849 61.598 862.849 56.4939 Q862.849 52.0379 860.095 49.5264 Q857.381 47.0148 851.142 45.759 L846.16 44.7868 Q837.005 42.9639 832.913 39.075 Q828.822 35.1862 828.822 28.2591 Q828.822 20.2383 834.453 15.6203 Q840.124 11.0023 850.049 11.0023 Q854.302 11.0023 858.718 11.7719 Q863.133 12.5416 867.751 14.0809 Z" fill="#000000" fill-rule="nonzero" fill-opacity="1" /><path clip-path="url(#clip410)" d="M884.157 12.096 L892.34 12.096 L892.34 72.576 L884.157 72.576 L884.157 12.096 Z" fill="#000000" fill-rule="nonzero" fill-opacity="1" /><path clip-path="url(#clip410)" d="M937.305 44.2197 Q939.938 45.1109 942.409 48.0275 Q944.921 50.9442 947.432 56.0483 L955.737 72.576 L946.946 72.576 L939.209 57.061 Q936.211 50.9847 933.376 48.9997 Q930.581 47.0148 925.719 47.0148 L916.807 47.0148 L916.807 72.576 L908.625 72.576 L908.625 12.096 L927.097 12.096 Q937.467 12.096 942.571 16.4305 Q947.675 20.7649 947.675 29.5149 Q947.675 35.2267 945.002 38.994 Q942.369 42.7613 937.305 44.2197 M916.807 18.8205 L916.807 40.2903 L927.097 40.2903 Q933.011 40.2903 936.009 37.5762 Q939.047 34.8216 939.047 29.5149 Q939.047 24.2082 936.009 21.5346 Q933.011 18.8205 927.097 18.8205 L916.807 18.8205 Z" fill="#000000" fill-rule="nonzero" fill-opacity="1" /><path clip-path="url(#clip410)" d="M987.982 27.2059 L995.436 27.2059 L1004.75 62.6108 L1014.03 27.2059 L1022.82 27.2059 L1032.14 62.6108 L1041.41 27.2059 L1048.87 27.2059 L1037 72.576 L1028.21 72.576 L1018.44 35.3887 L1008.64 72.576 L999.851 72.576 L987.982 27.2059 Z" fill="#000000" fill-rule="nonzero" fill-opacity="1" /><path clip-path="url(#clip410)" d="M1060.17 27.2059 L1067.62 27.2059 L1067.62 72.576 L1060.17 72.576 L1060.17 27.2059 M1060.17 9.54393 L1067.62 9.54393 L1067.62 18.9825 L1060.17 18.9825 L1060.17 9.54393 Z" fill="#000000" fill-rule="nonzero" fill-opacity="1" /><path clip-path="url(#clip410)" d="M1090.59 14.324 L1090.59 27.2059 L1105.94 27.2059 L1105.94 32.9987 L1090.59 32.9987 L1090.59 57.6282 Q1090.59 63.1779 1092.09 64.7578 Q1093.63 66.3376 1098.29 66.3376 L1105.94 66.3376 L1105.94 72.576 L1098.29 72.576 Q1089.66 72.576 1086.38 69.3758 Q1083.1 66.1351 1083.1 57.6282 L1083.1 32.9987 L1077.63 32.9987 L1077.63 27.2059 L1083.1 27.2059 L1083.1 14.324 L1090.59 14.324 Z" fill="#000000" fill-rule="nonzero" fill-opacity="1" /><path clip-path="url(#clip410)" d="M1153.46 45.1919 L1153.46 72.576 L1146.01 72.576 L1146.01 45.4349 Q1146.01 38.994 1143.5 35.7938 Q1140.98 32.5936 1135.96 32.5936 Q1129.93 32.5936 1126.44 36.4419 Q1122.96 40.2903 1122.96 46.9338 L1122.96 72.576 L1115.46 72.576 L1115.46 9.54393 L1122.96 9.54393 L1122.96 34.2544 Q1125.63 30.163 1129.24 28.1376 Q1132.88 26.1121 1137.62 26.1121 Q1145.44 26.1121 1149.45 30.9732 Q1153.46 35.7938 1153.46 45.1919 Z" fill="#000000" fill-rule="nonzero" fill-opacity="1" /><path clip-path="url(#clip410)" d="M1231.28 14.0809 L1231.28 22.0612 Q1226.62 19.8332 1222.49 18.7395 Q1218.36 17.6457 1214.51 17.6457 Q1207.82 17.6457 1204.18 20.2383 Q1200.57 22.8309 1200.57 27.611 Q1200.57 31.6214 1202.96 33.6873 Q1205.39 35.7128 1212.12 36.9686 L1217.06 37.9813 Q1226.22 39.7232 1230.55 44.1387 Q1234.92 48.5136 1234.92 55.8863 Q1234.92 64.6767 1229.01 69.2137 Q1223.14 73.7508 1211.75 73.7508 Q1207.46 73.7508 1202.6 72.7785 Q1197.78 71.8063 1192.59 69.9024 L1192.59 61.4765 Q1197.58 64.2716 1202.36 65.6895 Q1207.14 67.1073 1211.75 67.1073 Q1218.76 67.1073 1222.57 64.3527 Q1226.38 61.598 1226.38 56.4939 Q1226.38 52.0379 1223.62 49.5264 Q1220.91 47.0148 1214.67 45.759 L1209.69 44.7868 Q1200.53 42.9639 1196.44 39.075 Q1192.35 35.1862 1192.35 28.2591 Q1192.35 20.2383 1197.98 15.6203 Q1203.65 11.0023 1213.58 11.0023 Q1217.83 11.0023 1222.25 11.7719 Q1226.66 12.5416 1231.28 14.0809 Z" fill="#000000" fill-rule="nonzero" fill-opacity="1" /><path clip-path="url(#clip410)" d="M1254.57 65.7705 L1254.57 89.8329 L1247.08 89.8329 L1247.08 27.2059 L1254.57 27.2059 L1254.57 34.0924 Q1256.92 30.0415 1260.49 28.0971 Q1264.09 26.1121 1269.07 26.1121 Q1277.34 26.1121 1282.48 32.6746 Q1287.67 39.2371 1287.67 49.9314 Q1287.67 60.6258 1282.48 67.1883 Q1277.34 73.7508 1269.07 73.7508 Q1264.09 73.7508 1260.49 71.8063 Q1256.92 69.8214 1254.57 65.7705 M1279.93 49.9314 Q1279.93 41.7081 1276.53 37.0496 Q1273.17 32.3505 1267.25 32.3505 Q1261.34 32.3505 1257.93 37.0496 Q1254.57 41.7081 1254.57 49.9314 Q1254.57 58.1548 1257.93 62.8538 Q1261.34 67.5124 1267.25 67.5124 Q1273.17 67.5124 1276.53 62.8538 Q1279.93 58.1548 1279.93 49.9314 Z" fill="#000000" fill-rule="nonzero" fill-opacity="1" /><path clip-path="url(#clip410)" d="M1300.02 9.54393 L1307.48 9.54393 L1307.48 72.576 L1300.02 72.576 L1300.02 9.54393 Z" fill="#000000" fill-rule="nonzero" fill-opacity="1" /><path clip-path="url(#clip410)" d="M1323.07 27.2059 L1330.53 27.2059 L1330.53 72.576 L1323.07 72.576 L1323.07 27.2059 M1323.07 9.54393 L1330.53 9.54393 L1330.53 18.9825 L1323.07 18.9825 L1323.07 9.54393 Z" fill="#000000" fill-rule="nonzero" fill-opacity="1" /><path clip-path="url(#clip410)" d="M1383.84 45.1919 L1383.84 72.576 L1376.38 72.576 L1376.38 45.4349 Q1376.38 38.994 1373.87 35.7938 Q1371.36 32.5936 1366.34 32.5936 Q1360.3 32.5936 1356.82 36.4419 Q1353.33 40.2903 1353.33 46.9338 L1353.33 72.576 L1345.84 72.576 L1345.84 27.2059 L1353.33 27.2059 L1353.33 34.2544 Q1356.01 30.163 1359.61 28.1376 Q1363.26 26.1121 1368 26.1121 Q1375.82 26.1121 1379.83 30.9732 Q1383.84 35.7938 1383.84 45.1919 Z" fill="#000000" fill-rule="nonzero" fill-opacity="1" /><path clip-path="url(#clip410)" d="M1437.51 48.0275 L1437.51 51.6733 L1403.24 51.6733 Q1403.73 59.3701 1407.86 63.421 Q1412.03 67.4314 1419.44 67.4314 Q1423.74 67.4314 1427.75 66.3781 Q1431.8 65.3249 1435.77 63.2184 L1435.77 70.267 Q1431.76 71.9684 1427.55 72.8596 Q1423.33 73.7508 1419 73.7508 Q1408.14 73.7508 1401.78 67.4314 Q1395.46 61.1119 1395.46 50.3365 Q1395.46 39.1965 1401.46 32.6746 Q1407.49 26.1121 1417.7 26.1121 Q1426.86 26.1121 1432.16 32.0264 Q1437.51 37.9003 1437.51 48.0275 M1430.06 45.84 Q1429.98 39.7232 1426.61 36.0774 Q1423.29 32.4315 1417.78 32.4315 Q1411.54 32.4315 1407.78 35.9558 Q1404.05 39.4801 1403.48 45.8805 L1430.06 45.84 Z" fill="#000000" fill-rule="nonzero" fill-opacity="1" /><path clip-path="url(#clip410)" d="M1445.98 46.5287 L1467.81 46.5287 L1467.81 53.1722 L1445.98 53.1722 L1445.98 46.5287 Z" fill="#000000" fill-rule="nonzero" fill-opacity="1" /><path clip-path="url(#clip410)" d="M1480 12.096 L1488.19 12.096 L1488.19 72.576 L1480 72.576 L1480 12.096 Z" fill="#000000" fill-rule="nonzero" fill-opacity="1" /><path clip-path="url(#clip410)" d="M1541.86 45.1919 L1541.86 72.576 L1534.41 72.576 L1534.41 45.4349 Q1534.41 38.994 1531.9 35.7938 Q1529.39 32.5936 1524.36 32.5936 Q1518.33 32.5936 1514.84 36.4419 Q1511.36 40.2903 1511.36 46.9338 L1511.36 72.576 L1503.86 72.576 L1503.86 27.2059 L1511.36 27.2059 L1511.36 34.2544 Q1514.03 30.163 1517.64 28.1376 Q1521.28 26.1121 1526.02 26.1121 Q1533.84 26.1121 1537.85 30.9732 Q1541.86 35.7938 1541.86 45.1919 Z" fill="#000000" fill-rule="nonzero" fill-opacity="1" /><path clip-path="url(#clip410)" d="M1564.1 14.324 L1564.1 27.2059 L1579.45 27.2059 L1579.45 32.9987 L1564.1 32.9987 L1564.1 57.6282 Q1564.1 63.1779 1565.6 64.7578 Q1567.14 66.3376 1571.8 66.3376 L1579.45 66.3376 L1579.45 72.576 L1571.8 72.576 Q1563.17 72.576 1559.89 69.3758 Q1556.61 66.1351 1556.61 57.6282 L1556.61 32.9987 L1551.14 32.9987 L1551.14 27.2059 L1556.61 27.2059 L1556.61 14.324 L1564.1 14.324 Z" fill="#000000" fill-rule="nonzero" fill-opacity="1" /><path clip-path="url(#clip410)" d="M1628.07 48.0275 L1628.07 51.6733 L1593.79 51.6733 Q1594.28 59.3701 1598.41 63.421 Q1602.59 67.4314 1610 67.4314 Q1614.29 67.4314 1618.3 66.3781 Q1622.35 65.3249 1626.32 63.2184 L1626.32 70.267 Q1622.31 71.9684 1618.1 72.8596 Q1613.89 73.7508 1609.55 73.7508 Q1598.7 73.7508 1592.34 67.4314 Q1586.02 61.1119 1586.02 50.3365 Q1586.02 39.1965 1592.01 32.6746 Q1598.05 26.1121 1608.26 26.1121 Q1617.41 26.1121 1622.72 32.0264 Q1628.07 37.9003 1628.07 48.0275 M1620.61 45.84 Q1620.53 39.7232 1617.17 36.0774 Q1613.85 32.4315 1608.34 32.4315 Q1602.1 32.4315 1598.33 35.9558 Q1594.6 39.4801 1594.04 45.8805 L1620.61 45.84 Z" fill="#000000" fill-rule="nonzero" fill-opacity="1" /><path clip-path="url(#clip410)" d="M1666.59 34.1734 Q1665.33 33.4443 1663.83 33.1202 Q1662.38 32.7556 1660.59 32.7556 Q1654.27 32.7556 1650.87 36.8875 Q1647.51 40.9789 1647.51 48.6757 L1647.51 72.576 L1640.02 72.576 L1640.02 27.2059 L1647.51 27.2059 L1647.51 34.2544 Q1649.86 30.1225 1653.63 28.1376 Q1657.39 26.1121 1662.78 26.1121 Q1663.55 26.1121 1664.48 26.2337 Q1665.41 26.3147 1666.55 26.5172 L1666.59 34.1734 Z" fill="#000000" fill-rule="nonzero" fill-opacity="1" /><path clip-path="url(#clip410)" d="M1681.62 65.7705 L1681.62 89.8329 L1674.12 89.8329 L1674.12 27.2059 L1681.62 27.2059 L1681.62 34.0924 Q1683.97 30.0415 1687.53 28.0971 Q1691.14 26.1121 1696.12 26.1121 Q1704.38 26.1121 1709.53 32.6746 Q1714.71 39.2371 1714.71 49.9314 Q1714.71 60.6258 1709.53 67.1883 Q1704.38 73.7508 1696.12 73.7508 Q1691.14 73.7508 1687.53 71.8063 Q1683.97 69.8214 1681.62 65.7705 M1706.98 49.9314 Q1706.98 41.7081 1703.57 37.0496 Q1700.21 32.3505 1694.3 32.3505 Q1688.38 32.3505 1684.98 37.0496 Q1681.62 41.7081 1681.62 49.9314 Q1681.62 58.1548 1684.98 62.8538 Q1688.38 67.5124 1694.3 67.5124 Q1700.21 67.5124 1703.57 62.8538 Q1706.98 58.1548 1706.98 49.9314 Z" fill="#000000" fill-rule="nonzero" fill-opacity="1" /><path clip-path="url(#clip410)" d="M1744.65 32.4315 Q1738.65 32.4315 1735.17 37.1306 Q1731.69 41.7891 1731.69 49.9314 Q1731.69 58.0738 1735.13 62.7728 Q1738.61 67.4314 1744.65 67.4314 Q1750.61 67.4314 1754.09 62.7323 Q1757.57 58.0333 1757.57 49.9314 Q1757.57 41.8701 1754.09 37.1711 Q1750.61 32.4315 1744.65 32.4315 M1744.65 26.1121 Q1754.37 26.1121 1759.92 32.4315 Q1765.47 38.7509 1765.47 49.9314 Q1765.47 61.0714 1759.92 67.4314 Q1754.37 73.7508 1744.65 73.7508 Q1734.89 73.7508 1729.34 67.4314 Q1723.83 61.0714 1723.83 49.9314 Q1723.83 38.7509 1729.34 32.4315 Q1734.89 26.1121 1744.65 26.1121 Z" fill="#000000" fill-rule="nonzero" fill-opacity="1" /><path clip-path="url(#clip410)" d="M1777.83 9.54393 L1785.28 9.54393 L1785.28 72.576 L1777.83 72.576 L1777.83 9.54393 Z" fill="#000000" fill-rule="nonzero" fill-opacity="1" /><path clip-path="url(#clip410)" d="M1821.5 49.7694 Q1812.46 49.7694 1808.98 51.8354 Q1805.49 53.9013 1805.49 58.8839 Q1805.49 62.8538 1808.09 65.2034 Q1810.72 67.5124 1815.22 67.5124 Q1821.41 67.5124 1825.14 63.1374 Q1828.91 58.7219 1828.91 51.4303 L1828.91 49.7694 L1821.5 49.7694 M1836.36 46.6907 L1836.36 72.576 L1828.91 72.576 L1828.91 65.6895 Q1826.36 69.8214 1822.55 71.8063 Q1818.74 73.7508 1813.23 73.7508 Q1806.26 73.7508 1802.13 69.8619 Q1798.04 65.9325 1798.04 59.3701 Q1798.04 51.7138 1803.15 47.825 Q1808.29 43.9361 1818.46 43.9361 L1828.91 43.9361 L1828.91 43.2069 Q1828.91 38.0623 1825.51 35.2672 Q1822.14 32.4315 1816.03 32.4315 Q1812.14 32.4315 1808.45 33.3632 Q1804.77 34.295 1801.36 36.1584 L1801.36 29.2718 Q1805.45 27.692 1809.3 26.9223 Q1813.15 26.1121 1816.8 26.1121 Q1826.64 26.1121 1831.5 31.2163 Q1836.36 36.3204 1836.36 46.6907 Z" fill="#000000" fill-rule="nonzero" fill-opacity="1" /><path clip-path="url(#clip410)" d="M1859.09 14.324 L1859.09 27.2059 L1874.44 27.2059 L1874.44 32.9987 L1859.09 32.9987 L1859.09 57.6282 Q1859.09 63.1779 1860.59 64.7578 Q1862.13 66.3376 1866.79 66.3376 L1874.44 66.3376 L1874.44 72.576 L1866.79 72.576 Q1858.16 72.576 1854.88 69.3758 Q1851.59 66.1351 1851.59 57.6282 L1851.59 32.9987 L1846.13 32.9987 L1846.13 27.2059 L1851.59 27.2059 L1851.59 14.324 L1859.09 14.324 Z" fill="#000000" fill-rule="nonzero" fill-opacity="1" /><path clip-path="url(#clip410)" d="M1923.05 48.0275 L1923.05 51.6733 L1888.78 51.6733 Q1889.27 59.3701 1893.4 63.421 Q1897.57 67.4314 1904.99 67.4314 Q1909.28 67.4314 1913.29 66.3781 Q1917.34 65.3249 1921.31 63.2184 L1921.31 70.267 Q1917.3 71.9684 1913.09 72.8596 Q1908.87 73.7508 1904.54 73.7508 Q1893.68 73.7508 1887.32 67.4314 Q1881 61.1119 1881 50.3365 Q1881 39.1965 1887 32.6746 Q1893.03 26.1121 1903.24 26.1121 Q1912.4 26.1121 1917.7 32.0264 Q1923.05 37.9003 1923.05 48.0275 M1915.6 45.84 Q1915.52 39.7232 1912.16 36.0774 Q1908.83 32.4315 1903.32 32.4315 Q1897.09 32.4315 1893.32 35.9558 Q1889.59 39.4801 1889.02 45.8805 L1915.6 45.84 Z" fill="#000000" fill-rule="nonzero" fill-opacity="1" /><path clip-path="url(#clip410)" d="M1965.14 34.0924 L1965.14 9.54393 L1972.59 9.54393 L1972.59 72.576 L1965.14 72.576 L1965.14 65.7705 Q1962.79 69.8214 1959.19 71.8063 Q1955.62 73.7508 1950.6 73.7508 Q1942.37 73.7508 1937.19 67.1883 Q1932.05 60.6258 1932.05 49.9314 Q1932.05 39.2371 1937.19 32.6746 Q1942.37 26.1121 1950.6 26.1121 Q1955.62 26.1121 1959.19 28.0971 Q1962.79 30.0415 1965.14 34.0924 M1939.74 49.9314 Q1939.74 58.1548 1943.1 62.8538 Q1946.51 67.5124 1952.42 67.5124 Q1958.34 67.5124 1961.74 62.8538 Q1965.14 58.1548 1965.14 49.9314 Q1965.14 41.7081 1961.74 37.0496 Q1958.34 32.3505 1952.42 32.3505 Q1946.51 32.3505 1943.1 37.0496 Q1939.74 41.7081 1939.74 49.9314 Z" fill="#000000" fill-rule="nonzero" fill-opacity="1" /><path clip-path="url(#clip410)" d="M2021.77 69.7809 L2021.77 89.8329 L2014.28 89.8329 L2014.28 27.4894 Q2014.28 9.01731 2031.54 9.01731 Q2049.12 9.01731 2049.12 24.6133 Q2049.12 35.7128 2042.15 39.7637 Q2053.49 43.4095 2053.49 54.2254 Q2053.49 73.4267 2033.97 73.4267 Q2025.38 73.4267 2021.77 69.7809 M2021.77 60.0587 Q2026.27 67.0668 2034.25 67.0668 Q2045.92 67.0668 2045.92 54.3469 Q2045.92 42.9234 2027.12 43.8146 L2027.12 36.928 Q2041.82 36.928 2041.82 23.9651 Q2041.82 15.0937 2032.35 15.0937 Q2021.77 15.0937 2021.77 27.7325 L2021.77 60.0587 Z" fill="#000000" fill-rule="nonzero" fill-opacity="1" /><polyline clip-path="url(#clip411)" style="stroke:#800080; stroke-linecap:round; stroke-linejoin:round; stroke-width:8; stroke-opacity:1; fill:none" points="309.459,1659 318.89,1654.2 328.321,1648.52 337.751,1641.76 347.182,1633.71 356.613,1624.12 366.044,1612.68 375.475,1599.02 384.905,1582.72 394.336,1563.27 403.767,1540.1 413.198,1512.57 422.629,1479.92 432.06,1441.36 441.49,1396.15 450.921,1343.59 460.352,1283.09 469.783,1214.25 479.214,1136.84 488.644,1051.31 498.075,958.765 507.506,861.009 516.937,760.514 526.368,660.098 535.798,562.987 545.229,472.476 554.66,391.265 564.091,321.458 573.522,264.565 582.953,221.497 592.383,192.559 601.814,177.003 611.245,173.254 620.676,179.791 630.107,195.194 639.537,218.153 648.968,247.461 658.399,282.017 667.83,320.697 677.261,362.078 686.691,405.263 696.122,449.535 705.553,494.313 714.984,539.152 724.415,583.741 733.846,627.902 743.276,671.352 752.707,713.82 762.138,755.187 771.569,795.358 781,834.263 790.43,871.856 799.861,908.118 809.292,943.048 818.723,976.644 828.154,1008.92 837.585,1039.91 847.015,1069.63 856.446,1098.11 865.877,1125.39 875.308,1151.5 884.739,1176.47 894.169,1200.35 903.6,1223.17 913.031,1244.98 922.462,1265.84 931.893,1285.76 941.323,1304.79 950.754,1322.95 960.185,1340.29 969.616,1356.82 979.047,1372.6 988.478,1387.64 997.908,1401.97 1007.34,1415.63 1016.77,1428.65 1026.2,1441.05 1035.63,1452.86 1045.06,1464.11 1054.49,1474.83 1063.92,1485.04 1073.35,1494.76 1082.79,1504.02 1092.22,1512.85 1101.65,1521.27 1111.08,1529.29 1120.51,1536.94 1129.94,1544.23 1139.37,1551.17 1148.8,1557.78 1158.23,1564.08 1167.66,1570.07 1177.09,1575.77 1186.52,1581.21 1195.96,1586.38 1205.39,1591.3 1214.82,1595.98 1224.25,1600.44 1233.68,1604.69 1243.11,1608.74 1252.54,1612.59 1261.97,1616.27 1271.4,1619.77 1280.83,1623.11 1290.26,1626.28 1299.69,1629.31 1309.13,1632.18 1318.56,1634.92 1327.99,1637.53 1337.42,1640 1346.85,1642.36 1356.28,1644.6 1365.71,1646.73 1375.14,1648.75 1384.57,1650.68 1394,1652.51 1403.43,1654.26 1412.86,1655.92 1422.29,1657.5 1431.73,1659.01 1441.16,1660.45 1450.59,1661.82 1460.02,1663.13 1469.45,1664.37 1478.88,1665.55 1488.31,1666.68 1497.74,1667.75 1507.17,1668.76 1516.6,1669.73 1526.03,1670.65 1535.46,1671.52 1544.9,1672.35 1554.33,1673.14 1563.76,1673.9 1573.19,1674.61 1582.62,1675.29 1592.05,1675.94 1601.48,1676.56 1610.91,1677.15 1620.34,1677.71 1629.77,1678.24 1639.2,1678.75 1648.63,1679.23 1658.07,1679.69 1667.5,1680.13 1676.93,1680.55 1686.36,1680.94 1695.79,1681.32 1705.22,1681.67 1714.65,1682.01 1724.08,1682.34 1733.51,1682.64 1742.94,1682.94 1752.37,1683.21 1761.8,1683.48 1771.23,1683.73 1780.67,1683.97 1790.1,1684.2 1799.53,1684.42 1808.96,1684.63 1818.39,1684.83 1827.82,1685.01 1837.25,1685.19 1846.68,1685.36 1856.11,1685.53 1865.54,1685.68 1874.97,1685.83 1884.4,1685.97 1893.84,1686.1 1903.27,1686.22 1912.7,1686.34 1922.13,1686.46 1931.56,1686.57 1940.99,1686.67 1950.42,1686.77 1959.85,1686.86 1969.28,1686.95 1978.71,1687.04 1988.14,1687.12 1997.57,1687.2 2007.01,1687.27 2016.44,1687.34 2025.87,1687.41 2035.3,1687.47 2044.73,1687.53 2054.16,1687.59 2063.59,1687.64 2073.02,1687.7 2082.45,1687.74 2091.88,1687.79 2101.31,1687.84 2110.74,1687.88 2120.18,1687.92 2129.61,1687.96 2139.04,1688 2148.47,1688.03 2157.9,1688.06 2167.33,1688.1 2176.76,1688.13 2186.19,1688.16 2195.62,1688.18 2205.05,1688.21 2214.48,1688.24 2223.91,1688.26 2233.34,1688.28 2242.78,1688.3 2252.21,1688.32 2261.64,1688.34 2271.07,1688.36 2280.5,1688.38 2289.93,1688.4 2299.36,1688.41 2308.79,1688.43 2318.22,1688.44 2327.65,1688.46 2337.08,1688.47 2346.51,1688.48 2355.95,1688.49 2365.38,1688.51 2374.81,1688.52 2384.24,1688.53 2393.67,1688.54 2403.1,1688.55 2412.53,1688.55 2421.96,1688.56 2431.39,1688.57 2440.82,1688.58 2450.25,1688.59 2459.68,1688.59 2469.12,1688.6 2478.55,1688.61 2487.98,1688.61 2497.41,1688.62 2506.84,1688.62 2516.27,1688.63 2525.7,1688.63 2535.13,1688.64 2544.56,1688.64 2553.99,1688.65 2563.42,1688.65 2572.85,1688.65 "/>
<path clip-path="url(#clip410)" d="M2077.88 285.016 L2560.78 285.016 L2560.78 181.336 L2077.88 181.336  Z" fill="#ffffff" fill-rule="evenodd" fill-opacity="1"/>
<polyline clip-path="url(#clip410)" style="stroke:#000000; stroke-linecap:round; stroke-linejoin:round; stroke-width:4; stroke-opacity:1; fill:none" points="2077.88,285.016 2560.78,285.016 2560.78,181.336 2077.88,181.336 2077.88,285.016 "/>
<polyline clip-path="url(#clip410)" style="stroke:#800080; stroke-linecap:round; stroke-linejoin:round; stroke-width:8; stroke-opacity:1; fill:none" points="2104.54,233.176 2264.48,233.176 "/>
<path clip-path="url(#clip410)" d="M2291.14 215.896 L2295.82 215.896 L2295.82 250.456 L2291.14 250.456 L2291.14 215.896 Z" fill="#000000" fill-rule="nonzero" fill-opacity="1" /><path clip-path="url(#clip410)" d="M2330.24 214.484 Q2327.14 219.808 2325.63 225.017 Q2324.13 230.225 2324.13 235.572 Q2324.13 240.919 2325.63 246.174 Q2327.16 251.405 2330.24 256.706 L2326.53 256.706 Q2323.06 251.266 2321.33 246.012 Q2319.61 240.757 2319.61 235.572 Q2319.61 230.41 2321.33 225.179 Q2323.04 219.947 2326.53 214.484 L2330.24 214.484 Z" fill="#000000" fill-rule="nonzero" fill-opacity="1" /><path clip-path="url(#clip410)" d="M2355.03 225.294 L2355.03 229.322 Q2353.22 228.396 2351.28 227.933 Q2349.33 227.47 2347.25 227.47 Q2344.08 227.47 2342.48 228.443 Q2340.91 229.415 2340.91 231.359 Q2340.91 232.841 2342.04 233.697 Q2343.18 234.53 2346.6 235.294 L2348.06 235.618 Q2352.6 236.591 2354.5 238.373 Q2356.42 240.132 2356.42 243.304 Q2356.42 246.915 2353.55 249.021 Q2350.7 251.128 2345.7 251.128 Q2343.62 251.128 2341.35 250.711 Q2339.1 250.317 2336.6 249.507 L2336.6 245.109 Q2338.96 246.336 2341.26 246.961 Q2343.55 247.563 2345.79 247.563 Q2348.8 247.563 2350.42 246.544 Q2352.04 245.503 2352.04 243.628 Q2352.04 241.892 2350.86 240.966 Q2349.7 240.04 2345.75 239.183 L2344.26 238.836 Q2340.31 238.003 2338.55 236.29 Q2336.79 234.554 2336.79 231.544 Q2336.79 227.887 2339.38 225.896 Q2341.97 223.906 2346.74 223.906 Q2349.1 223.906 2351.19 224.253 Q2353.27 224.6 2355.03 225.294 Z" fill="#000000" fill-rule="nonzero" fill-opacity="1" /><path clip-path="url(#clip410)" d="M2367.32 246.567 L2367.32 260.317 L2363.04 260.317 L2363.04 224.531 L2367.32 224.531 L2367.32 228.466 Q2368.66 226.151 2370.7 225.04 Q2372.76 223.906 2375.61 223.906 Q2380.33 223.906 2383.27 227.655 Q2386.23 231.405 2386.23 237.517 Q2386.23 243.628 2383.27 247.378 Q2380.33 251.128 2375.61 251.128 Q2372.76 251.128 2370.7 250.016 Q2368.66 248.882 2367.32 246.567 M2381.81 237.517 Q2381.81 232.817 2379.87 230.155 Q2377.95 227.47 2374.57 227.47 Q2371.19 227.47 2369.24 230.155 Q2367.32 232.817 2367.32 237.517 Q2367.32 242.216 2369.24 244.901 Q2371.19 247.563 2374.57 247.563 Q2377.95 247.563 2379.87 244.901 Q2381.81 242.216 2381.81 237.517 Z" fill="#000000" fill-rule="nonzero" fill-opacity="1" /><path clip-path="url(#clip410)" d="M2393.29 214.438 L2397.55 214.438 L2397.55 250.456 L2393.29 250.456 L2393.29 214.438 Z" fill="#000000" fill-rule="nonzero" fill-opacity="1" /><path clip-path="url(#clip410)" d="M2406.46 224.531 L2410.72 224.531 L2410.72 250.456 L2406.46 250.456 L2406.46 224.531 M2406.46 214.438 L2410.72 214.438 L2410.72 219.831 L2406.46 219.831 L2406.46 214.438 Z" fill="#000000" fill-rule="nonzero" fill-opacity="1" /><path clip-path="url(#clip410)" d="M2441.19 234.808 L2441.19 250.456 L2436.93 250.456 L2436.93 234.947 Q2436.93 231.267 2435.49 229.438 Q2434.06 227.609 2431.19 227.609 Q2427.74 227.609 2425.75 229.808 Q2423.76 232.007 2423.76 235.804 L2423.76 250.456 L2419.47 250.456 L2419.47 224.531 L2423.76 224.531 L2423.76 228.558 Q2425.28 226.22 2427.34 225.063 Q2429.43 223.906 2432.13 223.906 Q2436.6 223.906 2438.89 226.683 Q2441.19 229.438 2441.19 234.808 Z" fill="#000000" fill-rule="nonzero" fill-opacity="1" /><path clip-path="url(#clip410)" d="M2471.86 236.429 L2471.86 238.512 L2452.27 238.512 Q2452.55 242.91 2454.91 245.225 Q2457.3 247.516 2461.53 247.516 Q2463.99 247.516 2466.28 246.915 Q2468.59 246.313 2470.86 245.109 L2470.86 249.137 Q2468.57 250.109 2466.16 250.618 Q2463.75 251.128 2461.28 251.128 Q2455.07 251.128 2451.44 247.516 Q2447.83 243.905 2447.83 237.748 Q2447.83 231.382 2451.25 227.655 Q2454.7 223.906 2460.54 223.906 Q2465.77 223.906 2468.8 227.285 Q2471.86 230.642 2471.86 236.429 M2467.6 235.179 Q2467.55 231.683 2465.63 229.6 Q2463.73 227.517 2460.58 227.517 Q2457.02 227.517 2454.87 229.53 Q2452.74 231.544 2452.41 235.202 L2467.6 235.179 Z" fill="#000000" fill-rule="nonzero" fill-opacity="1" /><path clip-path="url(#clip410)" d="M2498.18 248.859 L2498.18 260.317 L2493.89 260.317 L2493.89 224.693 Q2493.89 214.137 2503.75 214.137 Q2513.8 214.137 2513.8 223.049 Q2513.8 229.392 2509.82 231.706 Q2516.3 233.79 2516.3 239.97 Q2516.3 250.942 2505.14 250.942 Q2500.24 250.942 2498.18 248.859 M2498.18 243.304 Q2500.75 247.308 2505.31 247.308 Q2511.97 247.308 2511.97 240.04 Q2511.97 233.512 2501.23 234.021 L2501.23 230.086 Q2509.63 230.086 2509.63 222.679 Q2509.63 217.609 2504.22 217.609 Q2498.18 217.609 2498.18 224.831 L2498.18 243.304 Z" fill="#000000" fill-rule="nonzero" fill-opacity="1" /><path clip-path="url(#clip410)" d="M2523.5 214.484 L2527.2 214.484 Q2530.68 219.947 2532.39 225.179 Q2534.12 230.41 2534.12 235.572 Q2534.12 240.757 2532.39 246.012 Q2530.68 251.266 2527.2 256.706 L2523.5 256.706 Q2526.58 251.405 2528.08 246.174 Q2529.61 240.919 2529.61 235.572 Q2529.61 230.225 2528.08 225.017 Q2526.58 219.808 2523.5 214.484 Z" fill="#000000" fill-rule="nonzero" fill-opacity="1" /></svg>
