<?xml version="1.0" encoding="utf-8"?>
<svg xmlns="http://www.w3.org/2000/svg" xmlns:xlink="http://www.w3.org/1999/xlink" width="672" height="480" viewBox="0 0 2688 1920">
<defs>
  <clipPath id="clip350">
    <rect x="0" y="0" width="2688" height="1920"/>
  </clipPath>
</defs>
<path clip-path="url(#clip350)" d="M0 1920 L2688 1920 L2688 -4.26326e-14 L0 -4.26326e-14  Z" fill="#ffffff" fill-rule="evenodd" fill-opacity="1"/>
<defs>
  <clipPath id="clip351">
    <rect x="268" y="127" width="2373" height="1607"/>
  </clipPath>
</defs>
<path clip-path="url(#clip350)" d="M268.826 1734.12 L2640.76 1734.12 L2640.76 127.792 L268.826 127.792  Z" fill="#ffffff" fill-rule="evenodd" fill-opacity="1"/>
<polyline clip-path="url(#clip351)" style="stroke:#000000; stroke-linecap:round; stroke-linejoin:round; stroke-width:2; stroke-opacity:0.1; fill:none" points="335.956,1734.12 335.956,127.792 "/>
<polyline clip-path="url(#clip351)" style="stroke:#000000; stroke-linecap:round; stroke-linejoin:round; stroke-width:2; stroke-opacity:0.1; fill:none" points="802.137,1734.12 802.137,127.792 "/>
<polyline clip-path="url(#clip351)" style="stroke:#000000; stroke-linecap:round; stroke-linejoin:round; stroke-width:2; stroke-opacity:0.1; fill:none" points="1268.32,1734.12 1268.32,127.792 "/>
<polyline clip-path="url(#clip351)" style="stroke:#000000; stroke-linecap:round; stroke-linejoin:round; stroke-width:2; stroke-opacity:0.1; fill:none" points="1734.5,1734.12 1734.5,127.792 "/>
<polyline clip-path="url(#clip351)" style="stroke:#000000; stroke-linecap:round; stroke-linejoin:round; stroke-width:2; stroke-opacity:0.1; fill:none" points="2200.68,1734.12 2200.68,127.792 "/>
<polyline clip-path="url(#clip351)" style="stroke:#000000; stroke-linecap:round; stroke-linejoin:round; stroke-width:2; stroke-opacity:0.1; fill:none" points="268.826,1688.65 2640.76,1688.65 "/>
<polyline clip-path="url(#clip351)" style="stroke:#000000; stroke-linecap:round; stroke-linejoin:round; stroke-width:2; stroke-opacity:0.1; fill:none" points="268.826,1305.98 2640.76,1305.98 "/>
<polyline clip-path="url(#clip351)" style="stroke:#000000; stroke-linecap:round; stroke-linejoin:round; stroke-width:2; stroke-opacity:0.1; fill:none" points="268.826,923.301 2640.76,923.301 "/>
<polyline clip-path="url(#clip351)" style="stroke:#000000; stroke-linecap:round; stroke-linejoin:round; stroke-width:2; stroke-opacity:0.1; fill:none" points="268.826,540.624 2640.76,540.624 "/>
<polyline clip-path="url(#clip351)" style="stroke:#000000; stroke-linecap:round; stroke-linejoin:round; stroke-width:2; stroke-opacity:0.1; fill:none" points="268.826,157.947 2640.76,157.947 "/>
<polyline clip-path="url(#clip350)" style="stroke:#000000; stroke-linecap:round; stroke-linejoin:round; stroke-width:4; stroke-opacity:1; fill:none" points="268.826,1734.12 2640.76,1734.12 "/>
<polyline clip-path="url(#clip350)" style="stroke:#000000; stroke-linecap:round; stroke-linejoin:round; stroke-width:4; stroke-opacity:1; fill:none" points="335.956,1734.12 335.956,1715.22 "/>
<polyline clip-path="url(#clip350)" style="stroke:#000000; stroke-linecap:round; stroke-linejoin:round; stroke-width:4; stroke-opacity:1; fill:none" points="802.137,1734.12 802.137,1715.22 "/>
<polyline clip-path="url(#clip350)" style="stroke:#000000; stroke-linecap:round; stroke-linejoin:round; stroke-width:4; stroke-opacity:1; fill:none" points="1268.32,1734.12 1268.32,1715.22 "/>
<polyline clip-path="url(#clip350)" style="stroke:#000000; stroke-linecap:round; stroke-linejoin:round; stroke-width:4; stroke-opacity:1; fill:none" points="1734.5,1734.12 1734.5,1715.22 "/>
<polyline clip-path="url(#clip350)" style="stroke:#000000; stroke-linecap:round; stroke-linejoin:round; stroke-width:4; stroke-opacity:1; fill:none" points="2200.68,1734.12 2200.68,1715.22 "/>
<path clip-path="url(#clip350)" d="M335.956 1767.34 Q332.345 1767.34 330.516 1770.9 Q328.71 1774.45 328.71 1781.58 Q328.71 1788.68 330.516 1792.25 Q332.345 1795.79 335.956 1795.79 Q339.59 1795.79 341.395 1792.25 Q343.224 1788.68 343.224 1781.58 Q343.224 1774.45 341.395 1770.9 Q339.59 1767.34 335.956 1767.34 M335.956 1763.64 Q341.766 1763.64 344.821 1768.24 Q347.9 1772.83 347.9 1781.58 Q347.9 1790.3 344.821 1794.91 Q341.766 1799.49 335.956 1799.49 Q330.145 1799.49 327.067 1794.91 Q324.011 1790.3 324.011 1781.58 Q324.011 1772.83 327.067 1768.24 Q330.145 1763.64 335.956 1763.64 Z" fill="#000000" fill-rule="nonzero" fill-opacity="1" /><path clip-path="url(#clip350)" d="M781.408 1794.89 L797.727 1794.89 L797.727 1798.82 L775.783 1798.82 L775.783 1794.89 Q778.445 1792.13 783.028 1787.5 Q787.635 1782.85 788.815 1781.51 Q791.061 1778.98 791.94 1777.25 Q792.843 1775.49 792.843 1773.8 Q792.843 1771.04 790.899 1769.31 Q788.977 1767.57 785.875 1767.57 Q783.676 1767.57 781.223 1768.34 Q778.792 1769.1 776.014 1770.65 L776.014 1765.93 Q778.838 1764.79 781.292 1764.21 Q783.746 1763.64 785.783 1763.64 Q791.153 1763.64 794.348 1766.32 Q797.542 1769.01 797.542 1773.5 Q797.542 1775.63 796.732 1777.55 Q795.945 1779.45 793.838 1782.04 Q793.26 1782.71 790.158 1785.93 Q787.056 1789.12 781.408 1794.89 Z" fill="#000000" fill-rule="nonzero" fill-opacity="1" /><path clip-path="url(#clip350)" d="M807.588 1764.26 L825.945 1764.26 L825.945 1768.2 L811.871 1768.2 L811.871 1776.67 Q812.889 1776.32 813.908 1776.16 Q814.926 1775.97 815.945 1775.97 Q821.732 1775.97 825.111 1779.15 Q828.491 1782.32 828.491 1787.73 Q828.491 1793.31 825.019 1796.41 Q821.547 1799.49 815.227 1799.49 Q813.051 1799.49 810.783 1799.12 Q808.537 1798.75 806.13 1798.01 L806.13 1793.31 Q808.213 1794.45 810.435 1795 Q812.658 1795.56 815.135 1795.56 Q819.139 1795.56 821.477 1793.45 Q823.815 1791.34 823.815 1787.73 Q823.815 1784.12 821.477 1782.02 Q819.139 1779.91 815.135 1779.91 Q813.26 1779.91 811.385 1780.33 Q809.533 1780.74 807.588 1781.62 L807.588 1764.26 Z" fill="#000000" fill-rule="nonzero" fill-opacity="1" /><path clip-path="url(#clip350)" d="M1243.02 1764.26 L1261.37 1764.26 L1261.37 1768.2 L1247.3 1768.2 L1247.3 1776.67 Q1248.32 1776.32 1249.34 1776.16 Q1250.36 1775.97 1251.37 1775.97 Q1257.16 1775.97 1260.54 1779.15 Q1263.92 1782.32 1263.92 1787.73 Q1263.92 1793.31 1260.45 1796.41 Q1256.98 1799.49 1250.66 1799.49 Q1248.48 1799.49 1246.21 1799.12 Q1243.97 1798.75 1241.56 1798.01 L1241.56 1793.31 Q1243.64 1794.45 1245.86 1795 Q1248.09 1795.56 1250.56 1795.56 Q1254.57 1795.56 1256.91 1793.45 Q1259.24 1791.34 1259.24 1787.73 Q1259.24 1784.12 1256.91 1782.02 Q1254.57 1779.91 1250.56 1779.91 Q1248.69 1779.91 1246.81 1780.33 Q1244.96 1780.74 1243.02 1781.62 L1243.02 1764.26 Z" fill="#000000" fill-rule="nonzero" fill-opacity="1" /><path clip-path="url(#clip350)" d="M1283.13 1767.34 Q1279.52 1767.34 1277.69 1770.9 Q1275.89 1774.45 1275.89 1781.58 Q1275.89 1788.68 1277.69 1792.25 Q1279.52 1795.79 1283.13 1795.79 Q1286.77 1795.79 1288.57 1792.25 Q1290.4 1788.68 1290.4 1781.58 Q1290.4 1774.45 1288.57 1770.9 Q1286.77 1767.34 1283.13 1767.34 M1283.13 1763.64 Q1288.94 1763.64 1292 1768.24 Q1295.08 1772.83 1295.08 1781.58 Q1295.08 1790.3 1292 1794.91 Q1288.94 1799.49 1283.13 1799.49 Q1277.32 1799.49 1274.24 1794.91 Q1271.19 1790.3 1271.19 1781.58 Q1271.19 1772.83 1274.24 1768.24 Q1277.32 1763.64 1283.13 1763.64 Z" fill="#000000" fill-rule="nonzero" fill-opacity="1" /><path clip-path="url(#clip350)" d="M1708.35 1764.26 L1730.58 1764.26 L1730.58 1766.25 L1718.03 1798.82 L1713.15 1798.82 L1724.95 1768.2 L1708.35 1768.2 L1708.35 1764.26 Z" fill="#000000" fill-rule="nonzero" fill-opacity="1" /><path clip-path="url(#clip350)" d="M1739.74 1764.26 L1758.1 1764.26 L1758.1 1768.2 L1744.02 1768.2 L1744.02 1776.67 Q1745.04 1776.32 1746.06 1776.16 Q1747.08 1775.97 1748.1 1775.97 Q1753.89 1775.97 1757.27 1779.15 Q1760.65 1782.32 1760.65 1787.73 Q1760.65 1793.31 1757.17 1796.41 Q1753.7 1799.49 1747.38 1799.49 Q1745.21 1799.49 1742.94 1799.12 Q1740.69 1798.75 1738.28 1798.01 L1738.28 1793.31 Q1740.37 1794.45 1742.59 1795 Q1744.81 1795.56 1747.29 1795.56 Q1751.29 1795.56 1753.63 1793.45 Q1755.97 1791.34 1755.97 1787.73 Q1755.97 1784.12 1753.63 1782.02 Q1751.29 1779.91 1747.29 1779.91 Q1745.41 1779.91 1743.54 1780.33 Q1741.69 1780.74 1739.74 1781.62 L1739.74 1764.26 Z" fill="#000000" fill-rule="nonzero" fill-opacity="1" /><path clip-path="url(#clip350)" d="M2160.29 1794.89 L2167.93 1794.89 L2167.93 1768.52 L2159.62 1770.19 L2159.62 1765.93 L2167.88 1764.26 L2172.56 1764.26 L2172.56 1794.89 L2180.19 1794.89 L2180.19 1798.82 L2160.29 1798.82 L2160.29 1794.89 Z" fill="#000000" fill-rule="nonzero" fill-opacity="1" /><path clip-path="url(#clip350)" d="M2199.64 1767.34 Q2196.03 1767.34 2194.2 1770.9 Q2192.39 1774.45 2192.39 1781.58 Q2192.39 1788.68 2194.2 1792.25 Q2196.03 1795.79 2199.64 1795.79 Q2203.27 1795.79 2205.08 1792.25 Q2206.91 1788.68 2206.91 1781.58 Q2206.91 1774.45 2205.08 1770.9 Q2203.27 1767.34 2199.64 1767.34 M2199.64 1763.64 Q2205.45 1763.64 2208.5 1768.24 Q2211.58 1772.83 2211.58 1781.58 Q2211.58 1790.3 2208.5 1794.91 Q2205.45 1799.49 2199.64 1799.49 Q2193.83 1799.49 2190.75 1794.91 Q2187.69 1790.3 2187.69 1781.58 Q2187.69 1772.83 2190.75 1768.24 Q2193.83 1763.64 2199.64 1763.64 Z" fill="#000000" fill-rule="nonzero" fill-opacity="1" /><path clip-path="url(#clip350)" d="M2229.8 1767.34 Q2226.19 1767.34 2224.36 1770.9 Q2222.56 1774.45 2222.56 1781.58 Q2222.56 1788.68 2224.36 1792.25 Q2226.19 1795.79 2229.8 1795.79 Q2233.44 1795.79 2235.24 1792.25 Q2237.07 1788.68 2237.07 1781.58 Q2237.07 1774.45 2235.24 1770.9 Q2233.44 1767.34 2229.8 1767.34 M2229.8 1763.64 Q2235.61 1763.64 2238.67 1768.24 Q2241.75 1772.83 2241.75 1781.58 Q2241.75 1790.3 2238.67 1794.91 Q2235.61 1799.49 2229.8 1799.49 Q2223.99 1799.49 2220.91 1794.91 Q2217.86 1790.3 2217.86 1781.58 Q2217.86 1772.83 2220.91 1768.24 Q2223.99 1763.64 2229.8 1763.64 Z" fill="#000000" fill-rule="nonzero" fill-opacity="1" /><path clip-path="url(#clip350)" d="M1376.67 1835.78 L1416.87 1835.78 L1416.87 1841.19 L1400 1841.19 L1400 1883.3 L1393.54 1883.3 L1393.54 1841.19 L1376.67 1841.19 L1376.67 1835.78 Z" fill="#000000" fill-rule="nonzero" fill-opacity="1" /><path clip-path="url(#clip350)" d="M1420.81 1847.65 L1426.67 1847.65 L1426.67 1883.3 L1420.81 1883.3 L1420.81 1847.65 M1420.81 1833.78 L1426.67 1833.78 L1426.67 1841.19 L1420.81 1841.19 L1420.81 1833.78 Z" fill="#000000" fill-rule="nonzero" fill-opacity="1" /><path clip-path="url(#clip350)" d="M1466.68 1854.5 Q1468.87 1850.55 1471.93 1848.67 Q1474.99 1846.79 1479.12 1846.79 Q1484.69 1846.79 1487.72 1850.71 Q1490.74 1854.59 1490.74 1861.78 L1490.74 1883.3 L1484.85 1883.3 L1484.85 1861.98 Q1484.85 1856.85 1483.04 1854.37 Q1481.22 1851.89 1477.5 1851.89 Q1472.95 1851.89 1470.31 1854.91 Q1467.67 1857.93 1467.67 1863.15 L1467.67 1883.3 L1461.78 1883.3 L1461.78 1861.98 Q1461.78 1856.82 1459.96 1854.37 Q1458.15 1851.89 1454.36 1851.89 Q1449.87 1851.89 1447.23 1854.94 Q1444.59 1857.97 1444.59 1863.15 L1444.59 1883.3 L1438.7 1883.3 L1438.7 1847.65 L1444.59 1847.65 L1444.59 1853.19 Q1446.59 1849.91 1449.4 1848.35 Q1452.2 1846.79 1456.05 1846.79 Q1459.93 1846.79 1462.64 1848.77 Q1465.37 1850.74 1466.68 1854.5 Z" fill="#000000" fill-rule="nonzero" fill-opacity="1" /><path clip-path="url(#clip350)" d="M1532.91 1864.01 L1532.91 1866.88 L1505.99 1866.88 Q1506.37 1872.92 1509.62 1876.11 Q1512.89 1879.26 1518.72 1879.26 Q1522.09 1879.26 1525.24 1878.43 Q1528.43 1877.6 1531.55 1875.95 L1531.55 1881.49 Q1528.39 1882.82 1525.08 1883.52 Q1521.77 1884.22 1518.37 1884.22 Q1509.84 1884.22 1504.84 1879.26 Q1499.88 1874.29 1499.88 1865.83 Q1499.88 1857.07 1504.59 1851.95 Q1509.33 1846.79 1517.35 1846.79 Q1524.54 1846.79 1528.71 1851.44 Q1532.91 1856.06 1532.91 1864.01 M1527.06 1862.29 Q1526.99 1857.49 1524.35 1854.62 Q1521.74 1851.76 1517.41 1851.76 Q1512.51 1851.76 1509.55 1854.53 Q1506.62 1857.3 1506.18 1862.33 L1527.06 1862.29 Z" fill="#000000" fill-rule="nonzero" fill-opacity="1" /><polyline clip-path="url(#clip350)" style="stroke:#000000; stroke-linecap:round; stroke-linejoin:round; stroke-width:4; stroke-opacity:1; fill:none" points="268.826,1734.12 268.826,127.792 "/>
<polyline clip-path="url(#clip350)" style="stroke:#000000; stroke-linecap:round; stroke-linejoin:round; stroke-width:4; stroke-opacity:1; fill:none" points="268.826,1688.65 287.723,1688.65 "/>
<polyline clip-path="url(#clip350)" style="stroke:#000000; stroke-linecap:round; stroke-linejoin:round; stroke-width:4; stroke-opacity:1; fill:none" points="268.826,1305.98 287.723,1305.98 "/>
<polyline clip-path="url(#clip350)" style="stroke:#000000; stroke-linecap:round; stroke-linejoin:round; stroke-width:4; stroke-opacity:1; fill:none" points="268.826,923.301 287.723,923.301 "/>
<polyline clip-path="url(#clip350)" style="stroke:#000000; stroke-linecap:round; stroke-linejoin:round; stroke-width:4; stroke-opacity:1; fill:none" points="268.826,540.624 287.723,540.624 "/>
<polyline clip-path="url(#clip350)" style="stroke:#000000; stroke-linecap:round; stroke-linejoin:round; stroke-width:4; stroke-opacity:1; fill:none" points="268.826,157.947 287.723,157.947 "/>
<path clip-path="url(#clip350)" d="M216.561 1674.45 Q212.95 1674.45 211.121 1678.02 Q209.316 1681.56 209.316 1688.69 Q209.316 1695.8 211.121 1699.36 Q212.95 1702.9 216.561 1702.9 Q220.195 1702.9 222.001 1699.36 Q223.83 1695.8 223.83 1688.69 Q223.83 1681.56 222.001 1678.02 Q220.195 1674.45 216.561 1674.45 M216.561 1670.75 Q222.371 1670.75 225.427 1675.36 Q228.506 1679.94 228.506 1688.69 Q228.506 1697.42 225.427 1702.02 Q222.371 1706.61 216.561 1706.61 Q210.751 1706.61 207.672 1702.02 Q204.617 1697.42 204.617 1688.69 Q204.617 1679.94 207.672 1675.36 Q210.751 1670.75 216.561 1670.75 Z" fill="#000000" fill-rule="nonzero" fill-opacity="1" /><path clip-path="url(#clip350)" d="M150.265 1319.32 L166.585 1319.32 L166.585 1323.26 L144.64 1323.26 L144.64 1319.32 Q147.302 1316.57 151.886 1311.94 Q156.492 1307.29 157.673 1305.94 Q159.918 1303.42 160.798 1301.68 Q161.7 1299.92 161.7 1298.23 Q161.7 1295.48 159.756 1293.74 Q157.835 1292.01 154.733 1292.01 Q152.534 1292.01 150.08 1292.77 Q147.649 1293.54 144.872 1295.09 L144.872 1290.36 Q147.696 1289.23 150.149 1288.65 Q152.603 1288.07 154.64 1288.07 Q160.011 1288.07 163.205 1290.76 Q166.399 1293.44 166.399 1297.93 Q166.399 1300.06 165.589 1301.98 Q164.802 1303.88 162.696 1306.48 Q162.117 1307.15 159.015 1310.36 Q155.913 1313.56 150.265 1319.32 Z" fill="#000000" fill-rule="nonzero" fill-opacity="1" /><path clip-path="url(#clip350)" d="M176.446 1288.7 L194.802 1288.7 L194.802 1292.63 L180.728 1292.63 L180.728 1301.11 Q181.746 1300.76 182.765 1300.6 Q183.784 1300.41 184.802 1300.41 Q190.589 1300.41 193.969 1303.58 Q197.348 1306.75 197.348 1312.17 Q197.348 1317.75 193.876 1320.85 Q190.404 1323.93 184.084 1323.93 Q181.909 1323.93 179.64 1323.56 Q177.395 1323.19 174.987 1322.45 L174.987 1317.75 Q177.071 1318.88 179.293 1319.44 Q181.515 1319.99 183.992 1319.99 Q187.996 1319.99 190.334 1317.89 Q192.672 1315.78 192.672 1312.17 Q192.672 1308.56 190.334 1306.45 Q187.996 1304.35 183.992 1304.35 Q182.117 1304.35 180.242 1304.76 Q178.39 1305.18 176.446 1306.06 L176.446 1288.7 Z" fill="#000000" fill-rule="nonzero" fill-opacity="1" /><path clip-path="url(#clip350)" d="M216.561 1291.78 Q212.95 1291.78 211.121 1295.34 Q209.316 1298.88 209.316 1306.01 Q209.316 1313.12 211.121 1316.68 Q212.95 1320.23 216.561 1320.23 Q220.195 1320.23 222.001 1316.68 Q223.83 1313.12 223.83 1306.01 Q223.83 1298.88 222.001 1295.34 Q220.195 1291.78 216.561 1291.78 M216.561 1288.07 Q222.371 1288.07 225.427 1292.68 Q228.506 1297.26 228.506 1306.01 Q228.506 1314.74 225.427 1319.35 Q222.371 1323.93 216.561 1323.93 Q210.751 1323.93 207.672 1319.35 Q204.617 1314.74 204.617 1306.01 Q204.617 1297.26 207.672 1292.68 Q210.751 1288.07 216.561 1288.07 Z" fill="#000000" fill-rule="nonzero" fill-opacity="1" /><path clip-path="url(#clip350)" d="M146.284 906.021 L164.64 906.021 L164.64 909.956 L150.566 909.956 L150.566 918.428 Q151.585 918.081 152.603 917.919 Q153.622 917.734 154.64 917.734 Q160.427 917.734 163.807 920.905 Q167.186 924.076 167.186 929.493 Q167.186 935.072 163.714 938.174 Q160.242 941.252 153.923 941.252 Q151.747 941.252 149.478 940.882 Q147.233 940.512 144.825 939.771 L144.825 935.072 Q146.909 936.206 149.131 936.762 Q151.353 937.317 153.83 937.317 Q157.835 937.317 160.173 935.211 Q162.51 933.104 162.51 929.493 Q162.51 925.882 160.173 923.776 Q157.835 921.669 153.83 921.669 Q151.955 921.669 150.08 922.086 Q148.228 922.502 146.284 923.382 L146.284 906.021 Z" fill="#000000" fill-rule="nonzero" fill-opacity="1" /><path clip-path="url(#clip350)" d="M186.399 909.1 Q182.788 909.1 180.959 912.664 Q179.154 916.206 179.154 923.336 Q179.154 930.442 180.959 934.007 Q182.788 937.549 186.399 937.549 Q190.033 937.549 191.839 934.007 Q193.668 930.442 193.668 923.336 Q193.668 916.206 191.839 912.664 Q190.033 909.1 186.399 909.1 M186.399 905.396 Q192.209 905.396 195.265 910.002 Q198.344 914.586 198.344 923.336 Q198.344 932.063 195.265 936.669 Q192.209 941.252 186.399 941.252 Q180.589 941.252 177.51 936.669 Q174.455 932.063 174.455 923.336 Q174.455 914.586 177.51 910.002 Q180.589 905.396 186.399 905.396 Z" fill="#000000" fill-rule="nonzero" fill-opacity="1" /><path clip-path="url(#clip350)" d="M216.561 909.1 Q212.95 909.1 211.121 912.664 Q209.316 916.206 209.316 923.336 Q209.316 930.442 211.121 934.007 Q212.95 937.549 216.561 937.549 Q220.195 937.549 222.001 934.007 Q223.83 930.442 223.83 923.336 Q223.83 916.206 222.001 912.664 Q220.195 909.1 216.561 909.1 M216.561 905.396 Q222.371 905.396 225.427 910.002 Q228.506 914.586 228.506 923.336 Q228.506 932.063 225.427 936.669 Q222.371 941.252 216.561 941.252 Q210.751 941.252 207.672 936.669 Q204.617 932.063 204.617 923.336 Q204.617 914.586 207.672 910.002 Q210.751 905.396 216.561 905.396 Z" fill="#000000" fill-rule="nonzero" fill-opacity="1" /><path clip-path="url(#clip350)" d="M145.057 523.344 L167.279 523.344 L167.279 525.335 L154.733 557.904 L149.849 557.904 L161.654 527.279 L145.057 527.279 L145.057 523.344 Z" fill="#000000" fill-rule="nonzero" fill-opacity="1" /><path clip-path="url(#clip350)" d="M176.446 523.344 L194.802 523.344 L194.802 527.279 L180.728 527.279 L180.728 535.751 Q181.746 535.404 182.765 535.242 Q183.784 535.057 184.802 535.057 Q190.589 535.057 193.969 538.228 Q197.348 541.4 197.348 546.816 Q197.348 552.395 193.876 555.497 Q190.404 558.575 184.084 558.575 Q181.909 558.575 179.64 558.205 Q177.395 557.835 174.987 557.094 L174.987 552.395 Q177.071 553.529 179.293 554.085 Q181.515 554.64 183.992 554.64 Q187.996 554.64 190.334 552.534 Q192.672 550.427 192.672 546.816 Q192.672 543.205 190.334 541.099 Q187.996 538.992 183.992 538.992 Q182.117 538.992 180.242 539.409 Q178.39 539.825 176.446 540.705 L176.446 523.344 Z" fill="#000000" fill-rule="nonzero" fill-opacity="1" /><path clip-path="url(#clip350)" d="M216.561 526.423 Q212.95 526.423 211.121 529.988 Q209.316 533.529 209.316 540.659 Q209.316 547.765 211.121 551.33 Q212.95 554.872 216.561 554.872 Q220.195 554.872 222.001 551.33 Q223.83 547.765 223.83 540.659 Q223.83 533.529 222.001 529.988 Q220.195 526.423 216.561 526.423 M216.561 522.719 Q222.371 522.719 225.427 527.326 Q228.506 531.909 228.506 540.659 Q228.506 549.386 225.427 553.992 Q222.371 558.575 216.561 558.575 Q210.751 558.575 207.672 553.992 Q204.617 549.386 204.617 540.659 Q204.617 531.909 207.672 527.326 Q210.751 522.719 216.561 522.719 Z" fill="#000000" fill-rule="nonzero" fill-opacity="1" /><path clip-path="url(#clip350)" d="M116.886 171.292 L124.525 171.292 L124.525 144.926 L116.214 146.593 L116.214 142.334 L124.478 140.667 L129.154 140.667 L129.154 171.292 L136.793 171.292 L136.793 175.227 L116.886 175.227 L116.886 171.292 Z" fill="#000000" fill-rule="nonzero" fill-opacity="1" /><path clip-path="url(#clip350)" d="M156.237 143.746 Q152.626 143.746 150.798 147.311 Q148.992 150.852 148.992 157.982 Q148.992 165.088 150.798 168.653 Q152.626 172.195 156.237 172.195 Q159.872 172.195 161.677 168.653 Q163.506 165.088 163.506 157.982 Q163.506 150.852 161.677 147.311 Q159.872 143.746 156.237 143.746 M156.237 140.042 Q162.048 140.042 165.103 144.649 Q168.182 149.232 168.182 157.982 Q168.182 166.709 165.103 171.315 Q162.048 175.898 156.237 175.898 Q150.427 175.898 147.349 171.315 Q144.293 166.709 144.293 157.982 Q144.293 149.232 147.349 144.649 Q150.427 140.042 156.237 140.042 Z" fill="#000000" fill-rule="nonzero" fill-opacity="1" /><path clip-path="url(#clip350)" d="M186.399 143.746 Q182.788 143.746 180.959 147.311 Q179.154 150.852 179.154 157.982 Q179.154 165.088 180.959 168.653 Q182.788 172.195 186.399 172.195 Q190.033 172.195 191.839 168.653 Q193.668 165.088 193.668 157.982 Q193.668 150.852 191.839 147.311 Q190.033 143.746 186.399 143.746 M186.399 140.042 Q192.209 140.042 195.265 144.649 Q198.344 149.232 198.344 157.982 Q198.344 166.709 195.265 171.315 Q192.209 175.898 186.399 175.898 Q180.589 175.898 177.51 171.315 Q174.455 166.709 174.455 157.982 Q174.455 149.232 177.51 144.649 Q180.589 140.042 186.399 140.042 Z" fill="#000000" fill-rule="nonzero" fill-opacity="1" /><path clip-path="url(#clip350)" d="M216.561 143.746 Q212.95 143.746 211.121 147.311 Q209.316 150.852 209.316 157.982 Q209.316 165.088 211.121 168.653 Q212.95 172.195 216.561 172.195 Q220.195 172.195 222.001 168.653 Q223.83 165.088 223.83 157.982 Q223.83 150.852 222.001 147.311 Q220.195 143.746 216.561 143.746 M216.561 140.042 Q222.371 140.042 225.427 144.649 Q228.506 149.232 228.506 157.982 Q228.506 166.709 225.427 171.315 Q222.371 175.898 216.561 175.898 Q210.751 175.898 207.672 171.315 Q204.617 166.709 204.617 157.982 Q204.617 149.232 207.672 144.649 Q210.751 140.042 216.561 140.042 Z" fill="#000000" fill-rule="nonzero" fill-opacity="1" /><path clip-path="url(#clip350)" d="M19.402 1089.79 L37.2578 1089.79 L37.2578 1081.71 Q37.2578 1077.22 34.9343 1074.77 Q32.6108 1072.32 28.314 1072.32 Q24.0489 1072.32 21.7255 1074.77 Q19.402 1077.22 19.402 1081.71 L19.402 1089.79 M14.1184 1096.22 L14.1184 1081.71 Q14.1184 1073.72 17.7469 1069.65 Q21.3435 1065.54 28.314 1065.54 Q35.3481 1065.54 38.9447 1069.65 Q42.5413 1073.72 42.5413 1081.71 L42.5413 1089.79 L61.6384 1089.79 L61.6384 1096.22 L14.1184 1096.22 Z" fill="#000000" fill-rule="nonzero" fill-opacity="1" /><path clip-path="url(#clip350)" d="M30.0964 1045.68 Q30.0964 1050.39 33.7885 1053.13 Q37.4488 1055.87 43.8463 1055.87 Q50.2438 1055.87 53.9359 1053.16 Q57.5962 1050.42 57.5962 1045.68 Q57.5962 1041 53.9041 1038.26 Q50.212 1035.53 43.8463 1035.53 Q37.5124 1035.53 33.8203 1038.26 Q30.0964 1041 30.0964 1045.68 M25.1311 1045.68 Q25.1311 1038.04 30.0964 1033.68 Q35.0616 1029.32 43.8463 1029.32 Q52.5991 1029.32 57.5962 1033.68 Q62.5615 1038.04 62.5615 1045.68 Q62.5615 1053.35 57.5962 1057.71 Q52.5991 1062.04 43.8463 1062.04 Q35.0616 1062.04 30.0964 1057.71 Q25.1311 1053.35 25.1311 1045.68 Z" fill="#000000" fill-rule="nonzero" fill-opacity="1" /><path clip-path="url(#clip350)" d="M56.2912 1013.95 L75.1974 1013.95 L75.1974 1019.84 L25.9905 1019.84 L25.9905 1013.95 L31.4013 1013.95 Q28.2185 1012.1 26.6907 1009.3 Q25.1311 1006.47 25.1311 1002.55 Q25.1311 996.06 30.2873 992.018 Q35.4436 987.944 43.8463 987.944 Q52.249 987.944 57.4052 992.018 Q62.5615 996.06 62.5615 1002.55 Q62.5615 1006.47 61.0337 1009.3 Q59.4741 1012.1 56.2912 1013.95 M43.8463 994.023 Q37.3851 994.023 33.7248 996.696 Q30.0327 999.338 30.0327 1003.99 Q30.0327 1008.63 33.7248 1011.31 Q37.3851 1013.95 43.8463 1013.95 Q50.3075 1013.95 53.9996 1011.31 Q57.6599 1008.63 57.6599 1003.99 Q57.6599 999.338 53.9996 996.696 Q50.3075 994.023 43.8463 994.023 Z" fill="#000000" fill-rule="nonzero" fill-opacity="1" /><path clip-path="url(#clip350)" d="M47.5702 978.841 L25.9905 978.841 L25.9905 972.984 L47.3474 972.984 Q52.4082 972.984 54.9545 971.011 Q57.4689 969.037 57.4689 965.091 Q57.4689 960.348 54.4452 957.611 Q51.4215 954.842 46.2016 954.842 L25.9905 954.842 L25.9905 948.985 L61.6384 948.985 L61.6384 954.842 L56.1639 954.842 Q59.4104 956.974 61.0019 959.807 Q62.5615 962.608 62.5615 966.332 Q62.5615 972.475 58.742 975.658 Q54.9226 978.841 47.5702 978.841 M25.1311 964.104 L25.1311 964.104 Z" fill="#000000" fill-rule="nonzero" fill-opacity="1" /><path clip-path="url(#clip350)" d="M12.1132 936.922 L12.1132 931.066 L61.6384 931.066 L61.6384 936.922 L12.1132 936.922 Z" fill="#000000" fill-rule="nonzero" fill-opacity="1" /><path clip-path="url(#clip350)" d="M43.719 902.611 Q43.719 909.709 45.3422 912.446 Q46.9655 915.184 50.8804 915.184 Q53.9996 915.184 55.8457 913.146 Q57.6599 911.078 57.6599 907.545 Q57.6599 902.675 54.2224 899.747 Q50.7531 896.787 45.0239 896.787 L43.719 896.787 L43.719 902.611 M41.3 890.93 L61.6384 890.93 L61.6384 896.787 L56.2276 896.787 Q59.4741 898.792 61.0337 901.784 Q62.5615 904.776 62.5615 909.104 Q62.5615 914.579 59.5059 917.825 Q56.4186 921.04 51.2623 921.04 Q45.2467 921.04 42.1912 917.03 Q39.1357 912.987 39.1357 904.998 L39.1357 896.787 L38.5628 896.787 Q34.5205 896.787 32.3244 899.46 Q30.0964 902.102 30.0964 906.908 Q30.0964 909.964 30.8284 912.86 Q31.5605 915.756 33.0246 918.43 L27.6137 918.43 Q26.3724 915.215 25.7677 912.192 Q25.1311 909.168 25.1311 906.303 Q25.1311 898.569 29.1415 894.75 Q33.1519 890.93 41.3 890.93 Z" fill="#000000" fill-rule="nonzero" fill-opacity="1" /><path clip-path="url(#clip350)" d="M15.869 873.074 L25.9905 873.074 L25.9905 861.011 L30.542 861.011 L30.542 873.074 L49.8937 873.074 Q54.2542 873.074 55.4955 871.897 Q56.7368 870.687 56.7368 867.027 L56.7368 861.011 L61.6384 861.011 L61.6384 867.027 Q61.6384 873.806 59.124 876.385 Q56.5777 878.963 49.8937 878.963 L30.542 878.963 L30.542 883.259 L25.9905 883.259 L25.9905 878.963 L15.869 878.963 L15.869 873.074 Z" fill="#000000" fill-rule="nonzero" fill-opacity="1" /><path clip-path="url(#clip350)" d="M25.9905 853.309 L25.9905 847.452 L61.6384 847.452 L61.6384 853.309 L25.9905 853.309 M12.1132 853.309 L12.1132 847.452 L19.5293 847.452 L19.5293 853.309 L12.1132 853.309 Z" fill="#000000" fill-rule="nonzero" fill-opacity="1" /><path clip-path="url(#clip350)" d="M30.0964 821.385 Q30.0964 826.095 33.7885 828.833 Q37.4488 831.57 43.8463 831.57 Q50.2438 831.57 53.9359 828.865 Q57.5962 826.127 57.5962 821.385 Q57.5962 816.706 53.9041 813.969 Q50.212 811.232 43.8463 811.232 Q37.5124 811.232 33.8203 813.969 Q30.0964 816.706 30.0964 821.385 M25.1311 821.385 Q25.1311 813.746 30.0964 809.385 Q35.0616 805.025 43.8463 805.025 Q52.5991 805.025 57.5962 809.385 Q62.5615 813.746 62.5615 821.385 Q62.5615 829.056 57.5962 833.416 Q52.5991 837.745 43.8463 837.745 Q35.0616 837.745 30.0964 833.416 Q25.1311 829.056 25.1311 821.385 Z" fill="#000000" fill-rule="nonzero" fill-opacity="1" /><path clip-path="url(#clip350)" d="M40.1224 765.685 L61.6384 765.685 L61.6384 771.541 L40.3133 771.541 Q35.2526 771.541 32.7381 773.515 Q30.2237 775.488 30.2237 779.435 Q30.2237 784.177 33.2474 786.915 Q36.2711 789.652 41.491 789.652 L61.6384 789.652 L61.6384 795.54 L25.9905 795.54 L25.9905 789.652 L31.5287 789.652 Q28.314 787.551 26.7225 784.718 Q25.1311 781.854 25.1311 778.13 Q25.1311 771.987 28.9505 768.836 Q32.7381 765.685 40.1224 765.685 Z" fill="#000000" fill-rule="nonzero" fill-opacity="1" /><path clip-path="url(#clip350)" d="M992.157 14.0809 L992.157 22.0612 Q987.499 19.8332 983.367 18.7395 Q979.235 17.6457 975.386 17.6457 Q968.702 17.6457 965.057 20.2383 Q961.451 22.8309 961.451 27.611 Q961.451 31.6214 963.841 33.6873 Q966.272 35.7128 972.996 36.9686 L977.939 37.9813 Q987.094 39.7232 991.428 44.1387 Q995.803 48.5136 995.803 55.8863 Q995.803 64.6767 989.889 69.2137 Q984.015 73.7508 972.632 73.7508 Q968.338 73.7508 963.477 72.7785 Q958.656 71.8063 953.471 69.9024 L953.471 61.4765 Q958.454 64.2716 963.234 65.6895 Q968.014 67.1073 972.632 67.1073 Q979.64 67.1073 983.448 64.3527 Q987.256 61.598 987.256 56.4939 Q987.256 52.0379 984.501 49.5264 Q981.787 47.0148 975.548 45.759 L970.566 44.7868 Q961.411 42.9639 957.319 39.075 Q953.228 35.1862 953.228 28.2591 Q953.228 20.2383 958.859 15.6203 Q964.53 11.0023 974.455 11.0023 Q978.708 11.0023 983.124 11.7719 Q987.539 12.5416 992.157 14.0809 Z" fill="#000000" fill-rule="nonzero" fill-opacity="1" /><path clip-path="url(#clip350)" d="M1008.56 12.096 L1016.75 12.096 L1016.75 72.576 L1008.56 72.576 L1008.56 12.096 Z" fill="#000000" fill-rule="nonzero" fill-opacity="1" /><path clip-path="url(#clip350)" d="M1061.71 44.2197 Q1064.34 45.1109 1066.82 48.0275 Q1069.33 50.9442 1071.84 56.0483 L1080.14 72.576 L1071.35 72.576 L1063.62 57.061 Q1060.62 50.9847 1057.78 48.9997 Q1054.99 47.0148 1050.13 47.0148 L1041.21 47.0148 L1041.21 72.576 L1033.03 72.576 L1033.03 12.096 L1051.5 12.096 Q1061.87 12.096 1066.98 16.4305 Q1072.08 20.7649 1072.08 29.5149 Q1072.08 35.2267 1069.41 38.994 Q1066.77 42.7613 1061.71 44.2197 M1041.21 18.8205 L1041.21 40.2903 L1051.5 40.2903 Q1057.42 40.2903 1060.41 37.5762 Q1063.45 34.8216 1063.45 29.5149 Q1063.45 24.2082 1060.41 21.5346 Q1057.42 18.8205 1051.5 18.8205 L1041.21 18.8205 Z" fill="#000000" fill-rule="nonzero" fill-opacity="1" /><path clip-path="url(#clip350)" d="M1112.39 27.2059 L1119.84 27.2059 L1129.16 62.6108 L1138.44 27.2059 L1147.23 27.2059 L1156.54 62.6108 L1165.82 27.2059 L1173.27 27.2059 L1161.4 72.576 L1152.61 72.576 L1142.85 35.3887 L1133.05 72.576 L1124.26 72.576 L1112.39 27.2059 Z" fill="#000000" fill-rule="nonzero" fill-opacity="1" /><path clip-path="url(#clip350)" d="M1184.58 27.2059 L1192.03 27.2059 L1192.03 72.576 L1184.58 72.576 L1184.58 27.2059 M1184.58 9.54393 L1192.03 9.54393 L1192.03 18.9825 L1184.58 18.9825 L1184.58 9.54393 Z" fill="#000000" fill-rule="nonzero" fill-opacity="1" /><path clip-path="url(#clip350)" d="M1215 14.324 L1215 27.2059 L1230.35 27.2059 L1230.35 32.9987 L1215 32.9987 L1215 57.6282 Q1215 63.1779 1216.5 64.7578 Q1218.04 66.3376 1222.69 66.3376 L1230.35 66.3376 L1230.35 72.576 L1222.69 72.576 Q1214.07 72.576 1210.78 69.3758 Q1207.5 66.1351 1207.5 57.6282 L1207.5 32.9987 L1202.03 32.9987 L1202.03 27.2059 L1207.5 27.2059 L1207.5 14.324 L1215 14.324 Z" fill="#000000" fill-rule="nonzero" fill-opacity="1" /><path clip-path="url(#clip350)" d="M1277.87 45.1919 L1277.87 72.576 L1270.41 72.576 L1270.41 45.4349 Q1270.41 38.994 1267.9 35.7938 Q1265.39 32.5936 1260.37 32.5936 Q1254.33 32.5936 1250.85 36.4419 Q1247.36 40.2903 1247.36 46.9338 L1247.36 72.576 L1239.87 72.576 L1239.87 9.54393 L1247.36 9.54393 L1247.36 34.2544 Q1250.04 30.163 1253.64 28.1376 Q1257.29 26.1121 1262.03 26.1121 Q1269.85 26.1121 1273.86 30.9732 Q1277.87 35.7938 1277.87 45.1919 Z" fill="#000000" fill-rule="nonzero" fill-opacity="1" /><path clip-path="url(#clip350)" d="M1355.69 14.0809 L1355.69 22.0612 Q1351.03 19.8332 1346.89 18.7395 Q1342.76 17.6457 1338.91 17.6457 Q1332.23 17.6457 1328.58 20.2383 Q1324.98 22.8309 1324.98 27.611 Q1324.98 31.6214 1327.37 33.6873 Q1329.8 35.7128 1336.52 36.9686 L1341.47 37.9813 Q1350.62 39.7232 1354.96 44.1387 Q1359.33 48.5136 1359.33 55.8863 Q1359.33 64.6767 1353.42 69.2137 Q1347.54 73.7508 1336.16 73.7508 Q1331.87 73.7508 1327 72.7785 Q1322.18 71.8063 1317 69.9024 L1317 61.4765 Q1321.98 64.2716 1326.76 65.6895 Q1331.54 67.1073 1336.16 67.1073 Q1343.17 67.1073 1346.98 64.3527 Q1350.78 61.598 1350.78 56.4939 Q1350.78 52.0379 1348.03 49.5264 Q1345.32 47.0148 1339.08 45.759 L1334.09 44.7868 Q1324.94 42.9639 1320.85 39.075 Q1316.76 35.1862 1316.76 28.2591 Q1316.76 20.2383 1322.39 15.6203 Q1328.06 11.0023 1337.98 11.0023 Q1342.24 11.0023 1346.65 11.7719 Q1351.07 12.5416 1355.69 14.0809 Z" fill="#000000" fill-rule="nonzero" fill-opacity="1" /><path clip-path="url(#clip350)" d="M1379.14 14.324 L1379.14 27.2059 L1394.49 27.2059 L1394.49 32.9987 L1379.14 32.9987 L1379.14 57.6282 Q1379.14 63.1779 1380.64 64.7578 Q1382.18 66.3376 1386.84 66.3376 L1394.49 66.3376 L1394.49 72.576 L1386.84 72.576 Q1378.21 72.576 1374.93 69.3758 Q1371.65 66.1351 1371.65 57.6282 L1371.65 32.9987 L1366.18 32.9987 L1366.18 27.2059 L1371.65 27.2059 L1371.65 14.324 L1379.14 14.324 Z" fill="#000000" fill-rule="nonzero" fill-opacity="1" /><path clip-path="url(#clip350)" d="M1443.1 48.0275 L1443.1 51.6733 L1408.83 51.6733 Q1409.32 59.3701 1413.45 63.421 Q1417.62 67.4314 1425.04 67.4314 Q1429.33 67.4314 1433.34 66.3781 Q1437.39 65.3249 1441.36 63.2184 L1441.36 70.267 Q1437.35 71.9684 1433.14 72.8596 Q1428.93 73.7508 1424.59 73.7508 Q1413.73 73.7508 1407.37 67.4314 Q1401.06 61.1119 1401.06 50.3365 Q1401.06 39.1965 1407.05 32.6746 Q1413.09 26.1121 1423.29 26.1121 Q1432.45 26.1121 1437.76 32.0264 Q1443.1 37.9003 1443.1 48.0275 M1435.65 45.84 Q1435.57 39.7232 1432.21 36.0774 Q1428.89 32.4315 1423.38 32.4315 Q1417.14 32.4315 1413.37 35.9558 Q1409.64 39.4801 1409.08 45.8805 L1435.65 45.84 Z" fill="#000000" fill-rule="nonzero" fill-opacity="1" /><path clip-path="url(#clip350)" d="M1462.55 65.7705 L1462.55 89.8329 L1455.05 89.8329 L1455.05 27.2059 L1462.55 27.2059 L1462.55 34.0924 Q1464.9 30.0415 1468.46 28.0971 Q1472.07 26.1121 1477.05 26.1121 Q1485.31 26.1121 1490.46 32.6746 Q1495.64 39.2371 1495.64 49.9314 Q1495.64 60.6258 1490.46 67.1883 Q1485.31 73.7508 1477.05 73.7508 Q1472.07 73.7508 1468.46 71.8063 Q1464.9 69.8214 1462.55 65.7705 M1487.91 49.9314 Q1487.91 41.7081 1484.5 37.0496 Q1481.14 32.3505 1475.23 32.3505 Q1469.31 32.3505 1465.91 37.0496 Q1462.55 41.7081 1462.55 49.9314 Q1462.55 58.1548 1465.91 62.8538 Q1469.31 67.5124 1475.23 67.5124 Q1481.14 67.5124 1484.5 62.8538 Q1487.91 58.1548 1487.91 49.9314 Z" fill="#000000" fill-rule="nonzero" fill-opacity="1" /><path clip-path="url(#clip350)" d="M1504.23 46.5287 L1526.07 46.5287 L1526.07 53.1722 L1504.23 53.1722 L1504.23 46.5287 Z" fill="#000000" fill-rule="nonzero" fill-opacity="1" /><path clip-path="url(#clip350)" d="M1538.26 12.096 L1573.02 12.096 L1573.02 18.9825 L1546.44 18.9825 L1546.44 36.8065 L1570.42 36.8065 L1570.42 43.6931 L1546.44 43.6931 L1546.44 72.576 L1538.26 72.576 L1538.26 12.096 Z" fill="#000000" fill-rule="nonzero" fill-opacity="1" /><path clip-path="url(#clip350)" d="M1580.35 54.671 L1580.35 27.2059 L1587.8 27.2059 L1587.8 54.3874 Q1587.8 60.8284 1590.31 64.0691 Q1592.83 67.2693 1597.85 67.2693 Q1603.88 67.2693 1607.37 63.421 Q1610.89 59.5726 1610.89 52.9291 L1610.89 27.2059 L1618.35 27.2059 L1618.35 72.576 L1610.89 72.576 L1610.89 65.6084 Q1608.18 69.7404 1604.57 71.7658 Q1601.01 73.7508 1596.27 73.7508 Q1588.45 73.7508 1584.4 68.8897 Q1580.35 64.0286 1580.35 54.671 M1599.1 26.1121 L1599.1 26.1121 Z" fill="#000000" fill-rule="nonzero" fill-opacity="1" /><path clip-path="url(#clip350)" d="M1671.41 45.1919 L1671.41 72.576 L1663.96 72.576 L1663.96 45.4349 Q1663.96 38.994 1661.45 35.7938 Q1658.94 32.5936 1653.91 32.5936 Q1647.88 32.5936 1644.39 36.4419 Q1640.91 40.2903 1640.91 46.9338 L1640.91 72.576 L1633.42 72.576 L1633.42 27.2059 L1640.91 27.2059 L1640.91 34.2544 Q1643.58 30.163 1647.19 28.1376 Q1650.83 26.1121 1655.57 26.1121 Q1663.39 26.1121 1667.4 30.9732 Q1671.41 35.7938 1671.41 45.1919 Z" fill="#000000" fill-rule="nonzero" fill-opacity="1" /><path clip-path="url(#clip350)" d="M1718.93 28.9478 L1718.93 35.9153 Q1715.77 34.1734 1712.57 33.3227 Q1709.41 32.4315 1706.17 32.4315 Q1698.92 32.4315 1694.91 37.0496 Q1690.9 41.6271 1690.9 49.9314 Q1690.9 58.2358 1694.91 62.8538 Q1698.92 67.4314 1706.17 67.4314 Q1709.41 67.4314 1712.57 66.5807 Q1715.77 65.6895 1718.93 63.9476 L1718.93 70.8341 Q1715.81 72.2924 1712.45 73.0216 Q1709.13 73.7508 1705.36 73.7508 Q1695.11 73.7508 1689.07 67.3098 Q1683.04 60.8689 1683.04 49.9314 Q1683.04 38.832 1689.12 32.472 Q1695.23 26.1121 1705.85 26.1121 Q1709.29 26.1121 1712.57 26.8413 Q1715.85 27.5299 1718.93 28.9478 Z" fill="#000000" fill-rule="nonzero" fill-opacity="1" /><path clip-path="url(#clip350)" d="M1739.27 14.324 L1739.27 27.2059 L1754.62 27.2059 L1754.62 32.9987 L1739.27 32.9987 L1739.27 57.6282 Q1739.27 63.1779 1740.76 64.7578 Q1742.3 66.3376 1746.96 66.3376 L1754.62 66.3376 L1754.62 72.576 L1746.96 72.576 Q1738.33 72.576 1735.05 69.3758 Q1731.77 66.1351 1731.77 57.6282 L1731.77 32.9987 L1726.3 32.9987 L1726.3 27.2059 L1731.77 27.2059 L1731.77 14.324 L1739.27 14.324 Z" fill="#000000" fill-rule="nonzero" fill-opacity="1" /><path clip-path="url(#clip350)" d="M1764.42 27.2059 L1771.88 27.2059 L1771.88 72.576 L1764.42 72.576 L1764.42 27.2059 M1764.42 9.54393 L1771.88 9.54393 L1771.88 18.9825 L1764.42 18.9825 L1764.42 9.54393 Z" fill="#000000" fill-rule="nonzero" fill-opacity="1" /><path clip-path="url(#clip350)" d="M1805.05 32.4315 Q1799.06 32.4315 1795.57 37.1306 Q1792.09 41.7891 1792.09 49.9314 Q1792.09 58.0738 1795.53 62.7728 Q1799.02 67.4314 1805.05 67.4314 Q1811.01 67.4314 1814.49 62.7323 Q1817.97 58.0333 1817.97 49.9314 Q1817.97 41.8701 1814.49 37.1711 Q1811.01 32.4315 1805.05 32.4315 M1805.05 26.1121 Q1814.77 26.1121 1820.32 32.4315 Q1825.87 38.7509 1825.87 49.9314 Q1825.87 61.0714 1820.32 67.4314 Q1814.77 73.7508 1805.05 73.7508 Q1795.29 73.7508 1789.74 67.4314 Q1784.23 61.0714 1784.23 49.9314 Q1784.23 38.7509 1789.74 32.4315 Q1795.29 26.1121 1805.05 26.1121 Z" fill="#000000" fill-rule="nonzero" fill-opacity="1" /><path clip-path="url(#clip350)" d="M1875.94 45.1919 L1875.94 72.576 L1868.49 72.576 L1868.49 45.4349 Q1868.49 38.994 1865.98 35.7938 Q1863.47 32.5936 1858.44 32.5936 Q1852.41 32.5936 1848.92 36.4419 Q1845.44 40.2903 1845.44 46.9338 L1845.44 72.576 L1837.95 72.576 L1837.95 27.2059 L1845.44 27.2059 L1845.44 34.2544 Q1848.11 30.163 1851.72 28.1376 Q1855.36 26.1121 1860.1 26.1121 Q1867.92 26.1121 1871.93 30.9732 Q1875.94 35.7938 1875.94 45.1919 Z" fill="#000000" fill-rule="nonzero" fill-opacity="1" /><path clip-path="url(#clip350)" d="M1924.63 69.7809 L1924.63 89.8329 L1917.14 89.8329 L1917.14 27.4894 Q1917.14 9.01731 1934.4 9.01731 Q1951.98 9.01731 1951.98 24.6133 Q1951.98 35.7128 1945.01 39.7637 Q1956.35 43.4095 1956.35 54.2254 Q1956.35 73.4267 1936.83 73.4267 Q1928.24 73.4267 1924.63 69.7809 M1924.63 60.0587 Q1929.13 67.0668 1937.11 67.0668 Q1948.78 67.0668 1948.78 54.3469 Q1948.78 42.9234 1929.98 43.8146 L1929.98 36.928 Q1944.69 36.928 1944.69 23.9651 Q1944.69 15.0937 1935.21 15.0937 Q1924.63 15.0937 1924.63 27.7325 L1924.63 60.0587 Z" fill="#000000" fill-rule="nonzero" fill-opacity="1" /><polyline clip-path="url(#clip351)" style="stroke:#0000ff; stroke-linecap:round; stroke-linejoin:round; stroke-width:8; stroke-opacity:1; fill:none" points="335.956,173.254 345.279,177.436 354.603,182.513 363.926,188.665 373.25,196.108 382.574,205.091 391.897,215.907 401.221,228.888 410.545,244.406 419.868,262.867 429.192,284.72 438.515,310.441 447.839,340.466 457.163,375.198 466.486,414.964 475.81,460 485.134,510.395 494.457,565.97 503.781,626.278 513.105,690.599 522.428,757.993 531.752,827.384 541.075,897.359 550.399,966.623 559.723,1034.03 569.046,1098.6 578.37,1159.5 587.694,1216.05 597.017,1267.75 606.341,1314.53 615.664,1356.59 624.988,1394.18 634.312,1427.55 643.635,1457 652.959,1482.85 662.283,1505.42 671.606,1525.08 680.93,1542.19 690.253,1557.11 699.577,1570.15 708.901,1581.63 718.224,1591.77 727.548,1600.77 736.872,1608.77 746.195,1615.86 755.519,1622.09 764.842,1627.46 774.166,1632.1 783.49,1636.23 792.813,1639.9 802.137,1643.18 811.461,1646.12 820.784,1648.75 830.108,1651.13 839.431,1653.27 848.755,1655.2 858.079,1656.97 867.402,1658.63 876.726,1660.16 886.05,1661.54 895.373,1662.77 904.697,1663.82 914.02,1664.71 923.344,1665.43 932.668,1665.99 941.991,1666.42 951.315,1666.72 960.639,1666.93 969.962,1667.08 979.286,1667.19 988.609,1667.33 997.933,1667.5 1007.26,1667.66 1016.58,1667.81 1025.9,1667.95 1035.23,1668.08 1044.55,1668.21 1053.87,1668.33 1063.2,1668.45 1072.52,1668.55 1081.85,1668.66 1091.17,1668.75 1100.49,1668.84 1109.82,1668.93 1119.14,1669.01 1128.46,1669.09 1137.79,1669.17 1147.11,1669.24 1156.43,1669.3 1165.76,1669.37 1175.08,1669.43 1184.41,1669.49 1193.73,1669.54 1203.05,1669.59 1212.38,1669.64 1221.7,1669.69 1231.02,1669.73 1240.35,1669.77 1249.67,1669.81 1258.99,1669.85 1268.32,1669.88 1277.64,1669.92 1286.97,1669.95 1296.29,1669.98 1305.61,1670.01 1314.94,1670.04 1324.26,1670.07 1333.58,1670.09 1342.91,1670.12 1352.23,1670.14 1361.55,1670.16 1370.88,1670.18 1380.2,1670.2 1389.53,1670.22 1398.85,1670.24 1408.17,1670.25 1417.5,1670.27 1426.82,1670.28 1436.14,1670.3 1445.47,1670.31 1454.79,1670.33 1464.11,1670.34 1473.44,1670.36 1482.76,1670.38 1492.09,1670.4 1501.41,1670.42 1510.73,1670.44 1520.06,1670.46 1529.38,1670.48 1538.7,1670.5 1548.03,1670.52 1557.35,1670.53 1566.67,1670.55 1576,1670.56 1585.32,1670.57 1594.65,1670.59 1603.97,1670.6 1613.29,1670.61 1622.62,1670.62 1631.94,1670.63 1641.26,1670.64 1650.59,1670.65 1659.91,1670.66 1669.23,1670.67 1678.56,1670.67 1687.88,1670.68 1697.2,1670.69 1706.53,1670.7 1715.85,1670.7 1725.18,1670.71 1734.5,1670.72 1743.82,1670.72 1753.15,1670.73 1762.47,1670.73 1771.79,1670.74 1781.12,1670.74 1790.44,1670.75 1799.76,1670.75 1809.09,1670.76 1818.41,1670.76 1827.74,1670.76 1837.06,1670.77 1846.38,1670.77 1855.71,1670.77 1865.03,1670.78 1874.35,1670.78 1883.68,1670.78 1893,1670.78 1902.32,1670.79 1911.65,1670.79 1920.97,1670.79 1930.3,1670.79 1939.62,1670.8 1948.94,1670.8 1958.27,1670.8 1967.59,1670.8 1976.91,1670.8 1986.24,1670.8 1995.56,1670.81 2004.88,1670.81 2014.21,1670.81 2023.53,1670.81 2032.86,1670.81 2042.18,1670.81 2051.5,1670.81 2060.83,1670.82 2070.15,1670.82 2079.47,1670.82 2088.8,1670.82 2098.12,1670.82 2107.44,1670.82 2116.77,1670.82 2126.09,1670.82 2135.42,1670.82 2144.74,1670.82 2154.06,1670.82 2163.39,1670.82 2172.71,1670.83 2182.03,1670.83 2191.36,1670.83 2200.68,1670.83 2210,1670.83 2219.33,1670.83 2228.65,1670.83 2237.98,1670.83 2247.3,1670.83 2256.62,1670.83 2265.95,1670.83 2275.27,1670.83 2284.59,1670.83 2293.92,1670.83 2303.24,1670.83 2312.56,1670.83 2321.89,1670.83 2331.21,1670.83 2340.54,1670.83 2349.86,1670.83 2359.18,1670.83 2368.51,1670.83 2377.83,1670.83 2387.15,1670.83 2396.48,1670.83 2405.8,1670.83 2415.12,1670.83 2424.45,1670.83 2433.77,1670.83 2443.1,1670.83 2452.42,1670.83 2461.74,1670.84 2471.07,1670.84 2480.39,1670.84 2489.71,1670.84 2499.04,1670.84 2508.36,1670.84 2517.68,1670.84 2527.01,1670.84 2536.33,1670.84 2545.65,1670.84 2554.98,1670.84 2564.3,1670.84 2573.63,1670.84 "/>
<polyline clip-path="url(#clip351)" style="stroke:#ff0000; stroke-linecap:round; stroke-linejoin:round; stroke-width:8; stroke-opacity:1; fill:none" points="335.956,1673.35 345.279,1670.01 354.603,1665.97 363.926,1661.07 373.25,1655.15 382.574,1648.01 391.897,1639.44 401.221,1629.16 410.545,1616.92 419.868,1602.4 429.192,1585.27 438.515,1565.21 447.839,1541.93 457.163,1515.18 466.486,1484.83 475.81,1450.82 485.134,1413.24 494.457,1372.46 503.781,1329.04 513.105,1283.82 522.428,1237.82 531.752,1192.14 541.075,1148.11 550.399,1106.91 559.723,1069.52 569.046,1036.73 578.37,1009.14 587.694,987.139 597.017,970.938 606.341,960.321 615.664,954.818 624.988,953.954 634.312,957.248 643.635,964.215 652.959,974.369 662.283,987.217 671.606,1002.26 680.93,1019.03 690.253,1037.11 699.577,1056.12 708.901,1075.76 718.224,1095.77 727.548,1115.94 736.872,1136.11 746.195,1156.19 755.519,1176.12 764.842,1195.89 774.166,1215.4 783.49,1234.45 792.813,1253.02 802.137,1271.07 811.461,1288.57 820.784,1305.52 830.108,1321.89 839.431,1337.69 848.755,1352.92 858.079,1367.58 867.402,1381.62 876.726,1395.11 886.05,1408.08 895.373,1420.58 904.697,1432.62 914.02,1444.24 923.344,1455.45 932.668,1466.26 941.991,1476.69 951.315,1486.73 960.639,1496.37 969.962,1505.61 979.286,1514.43 988.609,1522.8 997.933,1530.72 1007.26,1538.27 1016.58,1545.46 1025.9,1552.31 1035.23,1558.83 1044.55,1565.04 1053.87,1570.95 1063.2,1576.58 1072.52,1581.94 1081.85,1587.04 1091.17,1591.9 1100.49,1596.52 1109.82,1600.93 1119.14,1605.13 1128.46,1609.13 1137.79,1612.94 1147.11,1616.57 1156.43,1620.03 1165.76,1623.32 1175.08,1626.45 1184.41,1629.43 1193.73,1632.27 1203.05,1634.97 1212.38,1637.54 1221.7,1639.98 1231.02,1642.31 1240.35,1644.52 1249.67,1646.63 1258.99,1648.63 1268.32,1650.54 1277.64,1652.36 1286.97,1654.1 1296.29,1655.76 1305.61,1657.33 1314.94,1658.84 1324.26,1660.27 1333.58,1661.63 1342.91,1662.93 1352.23,1664.16 1361.55,1665.33 1370.88,1666.45 1380.2,1667.51 1389.53,1668.52 1398.85,1669.49 1408.17,1670.4 1417.5,1671.27 1426.82,1672.11 1436.14,1672.9 1445.47,1673.65 1454.79,1674.37 1464.11,1675.05 1473.44,1675.7 1482.76,1676.31 1492.09,1676.9 1501.41,1677.45 1510.73,1677.98 1520.06,1678.48 1529.38,1678.96 1538.7,1679.41 1548.03,1679.85 1557.35,1680.26 1566.67,1680.65 1576,1681.03 1585.32,1681.38 1594.65,1681.73 1603.97,1682.05 1613.29,1682.36 1622.62,1682.66 1631.94,1682.94 1641.26,1683.21 1650.59,1683.47 1659.91,1683.71 1669.23,1683.94 1678.56,1684.17 1687.88,1684.38 1697.2,1684.58 1706.53,1684.77 1715.85,1684.95 1725.18,1685.13 1734.5,1685.29 1743.82,1685.45 1753.15,1685.6 1762.47,1685.75 1771.79,1685.88 1781.12,1686.01 1790.44,1686.14 1799.76,1686.26 1809.09,1686.37 1818.41,1686.48 1827.74,1686.58 1837.06,1686.68 1846.38,1686.77 1855.71,1686.86 1865.03,1686.94 1874.35,1687.03 1883.68,1687.1 1893,1687.17 1902.32,1687.24 1911.65,1687.31 1920.97,1687.37 1930.3,1687.43 1939.62,1687.49 1948.94,1687.55 1958.27,1687.6 1967.59,1687.65 1976.91,1687.7 1986.24,1687.74 1995.56,1687.78 2004.88,1687.82 2014.21,1687.86 2023.53,1687.9 2032.86,1687.94 2042.18,1687.97 2051.5,1688 2060.83,1688.03 2070.15,1688.06 2079.47,1688.09 2088.8,1688.12 2098.12,1688.14 2107.44,1688.17 2116.77,1688.19 2126.09,1688.21 2135.42,1688.23 2144.74,1688.25 2154.06,1688.27 2163.39,1688.29 2172.71,1688.31 2182.03,1688.32 2191.36,1688.34 2200.68,1688.35 2210,1688.37 2219.33,1688.38 2228.65,1688.39 2237.98,1688.41 2247.3,1688.42 2256.62,1688.43 2265.95,1688.44 2275.27,1688.45 2284.59,1688.46 2293.92,1688.47 2303.24,1688.48 2312.56,1688.49 2321.89,1688.49 2331.21,1688.5 2340.54,1688.51 2349.86,1688.52 2359.18,1688.52 2368.51,1688.53 2377.83,1688.53 2387.15,1688.54 2396.48,1688.55 2405.8,1688.55 2415.12,1688.56 2424.45,1688.56 2433.77,1688.56 2443.1,1688.57 2452.42,1688.57 2461.74,1688.58 2471.07,1688.58 2480.39,1688.58 2489.71,1688.59 2499.04,1688.59 2508.36,1688.59 2517.68,1688.6 2527.01,1688.6 2536.33,1688.6 2545.65,1688.6 2554.98,1688.61 2564.3,1688.61 2573.63,1688.61 "/>
<polyline clip-path="url(#clip351)" style="stroke:#008000; stroke-linecap:round; stroke-linejoin:round; stroke-width:8; stroke-opacity:1; fill:none" points="335.956,1688.65 345.279,1687.81 354.603,1686.78 363.926,1685.53 373.25,1684 382.574,1682.15 391.897,1679.91 401.221,1677.2 410.545,1673.93 419.868,1669.99 429.192,1665.26 438.515,1659.6 447.839,1652.86 457.163,1644.87 466.486,1635.46 475.81,1624.44 485.134,1611.62 494.457,1596.83 503.781,1579.94 513.105,1560.84 522.428,1539.45 531.752,1515.74 541.075,1489.79 550.399,1461.73 559.723,1431.71 569.046,1399.93 578.37,1366.62 587.694,1332.07 597.017,1296.57 606.341,1260.41 615.664,1223.85 624.988,1187.12 634.312,1150.46 643.635,1114.04 652.959,1078.04 662.283,1042.62 671.606,1007.91 680.93,974.03 690.253,941.045 699.577,908.983 708.901,877.867 718.224,847.717 727.548,818.55 736.872,790.377 746.195,763.209 755.519,737.051 764.842,711.907 774.166,687.761 783.49,664.58 792.813,642.339 802.137,621.011 811.461,600.57 820.784,580.989 830.108,562.241 839.431,544.297 848.755,527.131 858.079,510.711 867.402,495.004 876.726,479.985 886.05,465.63 895.373,451.915 904.697,438.817 914.02,426.314 923.344,414.382 932.668,403.002 941.991,392.15 951.315,381.808 960.639,371.954 969.962,362.57 979.286,353.635 988.609,345.132 997.933,337.037 1007.26,329.328 1016.58,321.987 1025.9,314.997 1035.23,308.341 1044.55,302.005 1053.87,295.974 1063.2,290.232 1072.52,284.766 1081.85,279.562 1091.17,274.607 1100.49,269.888 1109.82,265.395 1119.14,261.114 1128.46,257.035 1137.79,253.149 1147.11,249.448 1156.43,245.923 1165.76,242.568 1175.08,239.375 1184.41,236.337 1193.73,233.446 1203.05,230.695 1212.38,228.079 1221.7,225.589 1231.02,223.22 1240.35,220.966 1249.67,218.82 1258.99,216.777 1268.32,214.83 1277.64,212.975 1286.97,211.205 1296.29,209.518 1305.61,207.911 1314.94,206.38 1324.26,204.923 1333.58,203.536 1342.91,202.215 1352.23,200.959 1361.55,199.763 1370.88,198.626 1380.2,197.544 1389.53,196.514 1398.85,195.534 1408.17,194.601 1417.5,193.713 1426.82,192.868 1436.14,192.062 1445.47,191.294 1454.79,190.561 1464.11,189.863 1473.44,189.198 1482.76,188.563 1492.09,187.959 1501.41,187.384 1510.73,186.836 1520.06,186.314 1529.38,185.817 1538.7,185.344 1548.03,184.894 1557.35,184.465 1566.67,184.057 1576,183.669 1585.32,183.298 1594.65,182.945 1603.97,182.608 1613.29,182.287 1622.62,181.98 1631.94,181.687 1641.26,181.408 1650.59,181.141 1659.91,180.888 1669.23,180.646 1678.56,180.416 1687.88,180.196 1697.2,179.988 1706.53,179.789 1715.85,179.599 1725.18,179.419 1734.5,179.247 1743.82,179.084 1753.15,178.928 1762.47,178.779 1771.79,178.637 1781.12,178.502 1790.44,178.373 1799.76,178.25 1809.09,178.133 1818.41,178.021 1827.74,177.914 1837.06,177.813 1846.38,177.716 1855.71,177.624 1865.03,177.536 1874.35,177.453 1883.68,177.373 1893,177.298 1902.32,177.226 1911.65,177.157 1920.97,177.092 1930.3,177.029 1939.62,176.97 1948.94,176.914 1958.27,176.86 1967.59,176.808 1976.91,176.759 1986.24,176.712 1995.56,176.667 2004.88,176.624 2014.21,176.584 2023.53,176.545 2032.86,176.508 2042.18,176.473 2051.5,176.44 2060.83,176.408 2070.15,176.378 2079.47,176.349 2088.8,176.321 2098.12,176.295 2107.44,176.27 2116.77,176.247 2126.09,176.224 2135.42,176.202 2144.74,176.182 2154.06,176.162 2163.39,176.143 2172.71,176.125 2182.03,176.108 2191.36,176.092 2200.68,176.077 2210,176.062 2219.33,176.048 2228.65,176.034 2237.98,176.022 2247.3,176.01 2256.62,175.998 2265.95,175.987 2275.27,175.977 2284.59,175.967 2293.92,175.957 2303.24,175.948 2312.56,175.939 2321.89,175.931 2331.21,175.923 2340.54,175.916 2349.86,175.909 2359.18,175.902 2368.51,175.895 2377.83,175.889 2387.15,175.883 2396.48,175.878 2405.8,175.872 2415.12,175.867 2424.45,175.862 2433.77,175.858 2443.1,175.853 2452.42,175.849 2461.74,175.845 2471.07,175.841 2480.39,175.838 2489.71,175.834 2499.04,175.831 2508.36,175.828 2517.68,175.825 2527.01,175.822 2536.33,175.819 2545.65,175.817 2554.98,175.814 2564.3,175.812 2573.63,175.81 "/>
<polyline clip-path="url(#clip351)" style="stroke:#808080; stroke-linecap:round; stroke-linejoin:round; stroke-width:4; stroke-opacity:1; fill:none" stroke-dasharray="16, 10" points="895.373,3340.44 895.373,-1478.53 "/>
<polyline clip-path="url(#clip351)" style="stroke:#808080; stroke-linecap:round; stroke-linejoin:round; stroke-width:4; stroke-opacity:1; fill:none" stroke-dasharray="16, 10" points="1454.79,3340.44 1454.79,-1478.53 "/>
<path clip-path="url(#clip350)" d="M347.89 440.536 L822.813 440.536 L822.813 181.336 L347.89 181.336  Z" fill="#ffffff" fill-rule="evenodd" fill-opacity="1"/>
<polyline clip-path="url(#clip350)" style="stroke:#000000; stroke-linecap:round; stroke-linejoin:round; stroke-width:4; stroke-opacity:1; fill:none" points="347.89,440.536 822.813,440.536 822.813,181.336 347.89,181.336 347.89,440.536 "/>
<polyline clip-path="url(#clip350)" style="stroke:#0000ff; stroke-linecap:round; stroke-linejoin:round; stroke-width:8; stroke-opacity:1; fill:none" points="374.245,233.176 532.373,233.176 "/>
<path clip-path="url(#clip350)" d="M580.973 217.031 L580.973 221.591 Q578.311 220.318 575.95 219.693 Q573.589 219.068 571.39 219.068 Q567.571 219.068 565.487 220.549 Q563.427 222.031 563.427 224.762 Q563.427 227.054 564.793 228.234 Q566.182 229.392 570.024 230.109 L572.848 230.688 Q578.08 231.683 580.557 234.206 Q583.057 236.706 583.057 240.919 Q583.057 245.942 579.677 248.535 Q576.321 251.128 569.816 251.128 Q567.362 251.128 564.585 250.572 Q561.83 250.016 558.867 248.929 L558.867 244.114 Q561.714 245.711 564.446 246.521 Q567.177 247.331 569.816 247.331 Q573.821 247.331 575.997 245.757 Q578.172 244.183 578.172 241.267 Q578.172 238.72 576.598 237.285 Q575.047 235.85 571.483 235.132 L568.635 234.577 Q563.404 233.535 561.066 231.313 Q558.728 229.091 558.728 225.132 Q558.728 220.549 561.946 217.91 Q565.186 215.271 570.858 215.271 Q573.288 215.271 575.811 215.711 Q578.334 216.151 580.973 217.031 Z" fill="#000000" fill-rule="nonzero" fill-opacity="1" /><polyline clip-path="url(#clip350)" style="stroke:#ff0000; stroke-linecap:round; stroke-linejoin:round; stroke-width:8; stroke-opacity:1; fill:none" points="374.245,285.016 532.373,285.016 "/>
<path clip-path="url(#clip350)" d="M558.728 267.736 L563.404 267.736 L563.404 302.296 L558.728 302.296 L558.728 267.736 Z" fill="#000000" fill-rule="nonzero" fill-opacity="1" /><polyline clip-path="url(#clip350)" style="stroke:#008000; stroke-linecap:round; stroke-linejoin:round; stroke-width:8; stroke-opacity:1; fill:none" points="374.245,336.856 532.373,336.856 "/>
<path clip-path="url(#clip350)" d="M575.117 337.933 Q576.622 338.442 578.034 340.109 Q579.469 341.775 580.904 344.692 L585.649 354.136 L580.626 354.136 L576.205 345.271 Q574.492 341.798 572.872 340.664 Q571.274 339.53 568.497 339.53 L563.404 339.53 L563.404 354.136 L558.728 354.136 L558.728 319.576 L569.284 319.576 Q575.21 319.576 578.126 322.053 Q581.043 324.53 581.043 329.53 Q581.043 332.794 579.515 334.947 Q578.01 337.099 575.117 337.933 M563.404 323.419 L563.404 335.687 L569.284 335.687 Q572.663 335.687 574.376 334.136 Q576.112 332.562 576.112 329.53 Q576.112 326.498 574.376 324.97 Q572.663 323.419 569.284 323.419 L563.404 323.419 Z" fill="#000000" fill-rule="nonzero" fill-opacity="1" /><polyline clip-path="url(#clip350)" style="stroke:#808080; stroke-linecap:round; stroke-linejoin:round; stroke-width:4; stroke-opacity:1; fill:none" stroke-dasharray="16, 10" points="374.245,388.696 532.373,388.696 "/>
<path clip-path="url(#clip350)" d="M563.01 404.379 L563.01 415.837 L558.728 415.837 L558.728 380.213 Q558.728 369.657 568.589 369.657 Q578.635 369.657 578.635 378.569 Q578.635 384.912 574.654 387.226 Q581.135 389.31 581.135 395.49 Q581.135 406.462 569.978 406.462 Q565.071 406.462 563.01 404.379 M563.01 398.824 Q565.58 402.828 570.14 402.828 Q576.807 402.828 576.807 395.56 Q576.807 389.032 566.066 389.541 L566.066 385.606 Q574.469 385.606 574.469 378.199 Q574.469 373.129 569.052 373.129 Q563.01 373.129 563.01 380.351 L563.01 398.824 Z" fill="#000000" fill-rule="nonzero" fill-opacity="1" /><path clip-path="url(#clip350)" d="M622.732 381.046 L622.732 385.027 Q620.927 384.032 619.098 383.546 Q617.293 383.037 615.441 383.037 Q611.297 383.037 609.006 385.675 Q606.714 388.291 606.714 393.037 Q606.714 397.782 609.006 400.421 Q611.297 403.036 615.441 403.036 Q617.293 403.036 619.098 402.55 Q620.927 402.041 622.732 401.046 L622.732 404.981 Q620.95 405.814 619.029 406.231 Q617.131 406.648 614.978 406.648 Q609.121 406.648 605.672 402.967 Q602.223 399.287 602.223 393.037 Q602.223 386.694 605.695 383.06 Q609.191 379.426 615.256 379.426 Q617.223 379.426 619.098 379.842 Q620.973 380.236 622.732 381.046 Z" fill="#000000" fill-rule="nonzero" fill-opacity="1" /><path clip-path="url(#clip350)" d="M651.691 390.328 L651.691 405.976 L647.431 405.976 L647.431 390.467 Q647.431 386.787 645.996 384.958 Q644.561 383.129 641.691 383.129 Q638.242 383.129 636.251 385.328 Q634.26 387.527 634.26 391.324 L634.26 405.976 L629.978 405.976 L629.978 369.958 L634.26 369.958 L634.26 384.078 Q635.788 381.74 637.848 380.583 Q639.931 379.426 642.64 379.426 Q647.107 379.426 649.399 382.203 Q651.691 384.958 651.691 390.328 Z" fill="#000000" fill-rule="nonzero" fill-opacity="1" /><path clip-path="url(#clip350)" d="M671.968 392.944 Q666.806 392.944 664.816 394.124 Q662.825 395.305 662.825 398.152 Q662.825 400.421 664.306 401.763 Q665.811 403.083 668.38 403.083 Q671.922 403.083 674.052 400.583 Q676.204 398.06 676.204 393.893 L676.204 392.944 L671.968 392.944 M680.464 391.185 L680.464 405.976 L676.204 405.976 L676.204 402.041 Q674.746 404.402 672.57 405.536 Q670.394 406.648 667.246 406.648 Q663.265 406.648 660.903 404.425 Q658.566 402.18 658.566 398.43 Q658.566 394.055 661.482 391.833 Q664.422 389.611 670.232 389.611 L676.204 389.611 L676.204 389.194 Q676.204 386.254 674.26 384.657 Q672.339 383.037 668.843 383.037 Q666.621 383.037 664.515 383.569 Q662.408 384.101 660.464 385.166 L660.464 381.231 Q662.802 380.328 665.001 379.888 Q667.2 379.426 669.283 379.426 Q674.908 379.426 677.686 382.342 Q680.464 385.259 680.464 391.185 Z" fill="#000000" fill-rule="nonzero" fill-opacity="1" /><path clip-path="url(#clip350)" d="M710.787 390.328 L710.787 405.976 L706.528 405.976 L706.528 390.467 Q706.528 386.787 705.093 384.958 Q703.658 383.129 700.788 383.129 Q697.338 383.129 695.348 385.328 Q693.357 387.527 693.357 391.324 L693.357 405.976 L689.075 405.976 L689.075 380.051 L693.357 380.051 L693.357 384.078 Q694.885 381.74 696.945 380.583 Q699.028 379.426 701.737 379.426 Q706.204 379.426 708.496 382.203 Q710.787 384.958 710.787 390.328 Z" fill="#000000" fill-rule="nonzero" fill-opacity="1" /><path clip-path="url(#clip350)" d="M736.343 392.712 Q736.343 388.083 734.422 385.537 Q732.523 382.99 729.074 382.99 Q725.649 382.99 723.727 385.537 Q721.829 388.083 721.829 392.712 Q721.829 397.319 723.727 399.865 Q725.649 402.411 729.074 402.411 Q732.523 402.411 734.422 399.865 Q736.343 397.319 736.343 392.712 M740.602 402.759 Q740.602 409.379 737.662 412.597 Q734.723 415.837 728.658 415.837 Q726.412 415.837 724.422 415.49 Q722.431 415.166 720.556 414.472 L720.556 410.328 Q722.431 411.347 724.26 411.833 Q726.088 412.319 727.986 412.319 Q732.176 412.319 734.26 410.12 Q736.343 407.944 736.343 403.523 L736.343 401.416 Q735.023 403.708 732.963 404.842 Q730.903 405.976 728.033 405.976 Q723.264 405.976 720.348 402.342 Q717.431 398.708 717.431 392.712 Q717.431 386.694 720.348 383.06 Q723.264 379.426 728.033 379.426 Q730.903 379.426 732.963 380.56 Q735.023 381.694 736.343 383.986 L736.343 380.051 L740.602 380.051 L740.602 402.759 Z" fill="#000000" fill-rule="nonzero" fill-opacity="1" /><path clip-path="url(#clip350)" d="M771.551 391.949 L771.551 394.032 L751.968 394.032 Q752.246 398.43 754.607 400.745 Q756.991 403.036 761.227 403.036 Q763.681 403.036 765.972 402.435 Q768.287 401.833 770.556 400.629 L770.556 404.657 Q768.264 405.629 765.857 406.138 Q763.449 406.648 760.972 406.648 Q754.769 406.648 751.134 403.036 Q747.523 399.425 747.523 393.268 Q747.523 386.902 750.949 383.175 Q754.398 379.426 760.232 379.426 Q765.463 379.426 768.496 382.805 Q771.551 386.162 771.551 391.949 M767.292 390.699 Q767.246 387.203 765.324 385.12 Q763.426 383.037 760.278 383.037 Q756.713 383.037 754.56 385.05 Q752.431 387.064 752.107 390.722 L767.292 390.699 Z" fill="#000000" fill-rule="nonzero" fill-opacity="1" /><path clip-path="url(#clip350)" d="M795.069 380.814 L795.069 384.842 Q793.264 383.916 791.319 383.453 Q789.375 382.99 787.292 382.99 Q784.12 382.99 782.523 383.963 Q780.949 384.935 780.949 386.879 Q780.949 388.361 782.083 389.217 Q783.218 390.05 786.644 390.814 L788.102 391.138 Q792.639 392.111 794.537 393.893 Q796.458 395.652 796.458 398.824 Q796.458 402.435 793.588 404.541 Q790.741 406.648 785.741 406.648 Q783.657 406.648 781.389 406.231 Q779.144 405.837 776.644 405.027 L776.644 400.629 Q779.005 401.856 781.296 402.481 Q783.588 403.083 785.833 403.083 Q788.843 403.083 790.463 402.064 Q792.083 401.023 792.083 399.148 Q792.083 397.412 790.903 396.486 Q789.745 395.56 785.787 394.703 L784.306 394.356 Q780.347 393.523 778.588 391.81 Q776.829 390.074 776.829 387.064 Q776.829 383.407 779.421 381.416 Q782.014 379.426 786.782 379.426 Q789.144 379.426 791.227 379.773 Q793.31 380.12 795.069 380.814 Z" fill="#000000" fill-rule="nonzero" fill-opacity="1" /></svg>
