<?xml version="1.0" encoding="utf-8"?>
<svg xmlns="http://www.w3.org/2000/svg" xmlns:xlink="http://www.w3.org/1999/xlink" width="672" height="480" viewBox="0 0 2688 1920">
<defs>
  <clipPath id="clip150">
    <rect x="0" y="0" width="2688" height="1920"/>
  </clipPath>
</defs>
<path clip-path="url(#clip150)" d="M0 1920 L2688 1920 L2688 -4.26326e-14 L0 -4.26326e-14  Z" fill="#ffffff" fill-rule="evenodd" fill-opacity="1"/>
<defs>
  <clipPath id="clip151">
    <rect x="271" y="127" width="2370" height="1607"/>
  </clipPath>
</defs>
<path clip-path="url(#clip150)" d="M271.719 1734.12 L2640.76 1734.12 L2640.76 127.792 L271.719 127.792  Z" fill="#ffffff" fill-rule="evenodd" fill-opacity="1"/>
<polyline clip-path="url(#clip151)" style="stroke:#000000; stroke-linecap:round; stroke-linejoin:round; stroke-width:2; stroke-opacity:0.1; fill:none" points="389.344,1734.12 389.344,127.792 "/>
<polyline clip-path="url(#clip151)" style="stroke:#000000; stroke-linecap:round; stroke-linejoin:round; stroke-width:2; stroke-opacity:0.1; fill:none" points="917.509,1734.12 917.509,127.792 "/>
<polyline clip-path="url(#clip151)" style="stroke:#000000; stroke-linecap:round; stroke-linejoin:round; stroke-width:2; stroke-opacity:0.1; fill:none" points="1445.67,1734.12 1445.67,127.792 "/>
<polyline clip-path="url(#clip151)" style="stroke:#000000; stroke-linecap:round; stroke-linejoin:round; stroke-width:2; stroke-opacity:0.1; fill:none" points="1973.84,1734.12 1973.84,127.792 "/>
<polyline clip-path="url(#clip151)" style="stroke:#000000; stroke-linecap:round; stroke-linejoin:round; stroke-width:2; stroke-opacity:0.1; fill:none" points="2502,1734.12 2502,127.792 "/>
<polyline clip-path="url(#clip151)" style="stroke:#000000; stroke-linecap:round; stroke-linejoin:round; stroke-width:2; stroke-opacity:0.1; fill:none" points="271.719,1734.12 2640.76,1734.12 "/>
<polyline clip-path="url(#clip151)" style="stroke:#000000; stroke-linecap:round; stroke-linejoin:round; stroke-width:2; stroke-opacity:0.1; fill:none" points="271.719,1412.82 2640.76,1412.82 "/>
<polyline clip-path="url(#clip151)" style="stroke:#000000; stroke-linecap:round; stroke-linejoin:round; stroke-width:2; stroke-opacity:0.1; fill:none" points="271.719,1091.52 2640.76,1091.52 "/>
<polyline clip-path="url(#clip151)" style="stroke:#000000; stroke-linecap:round; stroke-linejoin:round; stroke-width:2; stroke-opacity:0.1; fill:none" points="271.719,770.226 2640.76,770.226 "/>
<polyline clip-path="url(#clip151)" style="stroke:#000000; stroke-linecap:round; stroke-linejoin:round; stroke-width:2; stroke-opacity:0.1; fill:none" points="271.719,448.929 2640.76,448.929 "/>
<polyline clip-path="url(#clip150)" style="stroke:#000000; stroke-linecap:round; stroke-linejoin:round; stroke-width:4; stroke-opacity:1; fill:none" points="271.719,1734.12 2640.76,1734.12 "/>
<polyline clip-path="url(#clip150)" style="stroke:#000000; stroke-linecap:round; stroke-linejoin:round; stroke-width:4; stroke-opacity:1; fill:none" points="389.344,1734.12 389.344,1715.22 "/>
<polyline clip-path="url(#clip150)" style="stroke:#000000; stroke-linecap:round; stroke-linejoin:round; stroke-width:4; stroke-opacity:1; fill:none" points="917.509,1734.12 917.509,1715.22 "/>
<polyline clip-path="url(#clip150)" style="stroke:#000000; stroke-linecap:round; stroke-linejoin:round; stroke-width:4; stroke-opacity:1; fill:none" points="1445.67,1734.12 1445.67,1715.22 "/>
<polyline clip-path="url(#clip150)" style="stroke:#000000; stroke-linecap:round; stroke-linejoin:round; stroke-width:4; stroke-opacity:1; fill:none" points="1973.84,1734.12 1973.84,1715.22 "/>
<polyline clip-path="url(#clip150)" style="stroke:#000000; stroke-linecap:round; stroke-linejoin:round; stroke-width:4; stroke-opacity:1; fill:none" points="2502,1734.12 2502,1715.22 "/>
<path clip-path="url(#clip150)" d="M389.344 1767.34 Q385.733 1767.34 383.905 1770.9 Q382.099 1774.45 382.099 1781.58 Q382.099 1788.68 383.905 1792.25 Q385.733 1795.79 389.344 1795.79 Q392.979 1795.79 394.784 1792.25 Q396.613 1788.68 396.613 1781.58 Q396.613 1774.45 394.784 1770.9 Q392.979 1767.34 389.344 1767.34 M389.344 1763.64 Q395.154 1763.64 398.21 1768.24 Q401.289 1772.83 401.289 1781.58 Q401.289 1790.3 398.21 1794.91 Q395.154 1799.49 389.344 1799.49 Q383.534 1799.49 380.455 1794.91 Q377.4 1790.3 377.4 1781.58 Q377.4 1772.83 380.455 1768.24 Q383.534 1763.64 389.344 1763.64 Z" fill="#000000" fill-rule="nonzero" fill-opacity="1" /><path clip-path="url(#clip150)" d="M896.78 1794.89 L913.1 1794.89 L913.1 1798.82 L891.155 1798.82 L891.155 1794.89 Q893.817 1792.13 898.401 1787.5 Q903.007 1782.85 904.188 1781.51 Q906.433 1778.98 907.313 1777.25 Q908.215 1775.49 908.215 1773.8 Q908.215 1771.04 906.271 1769.31 Q904.35 1767.57 901.248 1767.57 Q899.049 1767.57 896.595 1768.34 Q894.164 1769.1 891.387 1770.65 L891.387 1765.93 Q894.211 1764.79 896.664 1764.21 Q899.118 1763.64 901.155 1763.64 Q906.525 1763.64 909.72 1766.32 Q912.914 1769.01 912.914 1773.5 Q912.914 1775.63 912.104 1777.55 Q911.317 1779.45 909.211 1782.04 Q908.632 1782.71 905.53 1785.93 Q902.428 1789.12 896.78 1794.89 Z" fill="#000000" fill-rule="nonzero" fill-opacity="1" /><path clip-path="url(#clip150)" d="M922.961 1764.26 L941.317 1764.26 L941.317 1768.2 L927.243 1768.2 L927.243 1776.67 Q928.261 1776.32 929.28 1776.16 Q930.299 1775.97 931.317 1775.97 Q937.104 1775.97 940.484 1779.15 Q943.863 1782.32 943.863 1787.73 Q943.863 1793.31 940.391 1796.41 Q936.919 1799.49 930.599 1799.49 Q928.424 1799.49 926.155 1799.12 Q923.91 1798.75 921.502 1798.01 L921.502 1793.31 Q923.586 1794.45 925.808 1795 Q928.03 1795.56 930.507 1795.56 Q934.511 1795.56 936.849 1793.45 Q939.187 1791.34 939.187 1787.73 Q939.187 1784.12 936.849 1782.02 Q934.511 1779.91 930.507 1779.91 Q928.632 1779.91 926.757 1780.33 Q924.905 1780.74 922.961 1781.62 L922.961 1764.26 Z" fill="#000000" fill-rule="nonzero" fill-opacity="1" /><path clip-path="url(#clip150)" d="M1420.37 1764.26 L1438.73 1764.26 L1438.73 1768.2 L1424.66 1768.2 L1424.66 1776.67 Q1425.67 1776.32 1426.69 1776.16 Q1427.71 1775.97 1428.73 1775.97 Q1434.52 1775.97 1437.9 1779.15 Q1441.28 1782.32 1441.28 1787.73 Q1441.28 1793.31 1437.8 1796.41 Q1434.33 1799.49 1428.01 1799.49 Q1425.84 1799.49 1423.57 1799.12 Q1421.32 1798.75 1418.92 1798.01 L1418.92 1793.31 Q1421 1794.45 1423.22 1795 Q1425.44 1795.56 1427.92 1795.56 Q1431.92 1795.56 1434.26 1793.45 Q1436.6 1791.34 1436.6 1787.73 Q1436.6 1784.12 1434.26 1782.02 Q1431.92 1779.91 1427.92 1779.91 Q1426.04 1779.91 1424.17 1780.33 Q1422.32 1780.74 1420.37 1781.62 L1420.37 1764.26 Z" fill="#000000" fill-rule="nonzero" fill-opacity="1" /><path clip-path="url(#clip150)" d="M1460.49 1767.34 Q1456.88 1767.34 1455.05 1770.9 Q1453.24 1774.45 1453.24 1781.58 Q1453.24 1788.68 1455.05 1792.25 Q1456.88 1795.79 1460.49 1795.79 Q1464.12 1795.79 1465.93 1792.25 Q1467.76 1788.68 1467.76 1781.58 Q1467.76 1774.45 1465.93 1770.9 Q1464.12 1767.34 1460.49 1767.34 M1460.49 1763.64 Q1466.3 1763.64 1469.35 1768.24 Q1472.43 1772.83 1472.43 1781.58 Q1472.43 1790.3 1469.35 1794.91 Q1466.3 1799.49 1460.49 1799.49 Q1454.68 1799.49 1451.6 1794.91 Q1448.54 1790.3 1448.54 1781.58 Q1448.54 1772.83 1451.6 1768.24 Q1454.68 1763.64 1460.49 1763.64 Z" fill="#000000" fill-rule="nonzero" fill-opacity="1" /><path clip-path="url(#clip150)" d="M1947.69 1764.26 L1969.92 1764.26 L1969.92 1766.25 L1957.37 1798.82 L1952.49 1798.82 L1964.29 1768.2 L1947.69 1768.2 L1947.69 1764.26 Z" fill="#000000" fill-rule="nonzero" fill-opacity="1" /><path clip-path="url(#clip150)" d="M1979.08 1764.26 L1997.44 1764.26 L1997.44 1768.2 L1983.36 1768.2 L1983.36 1776.67 Q1984.38 1776.32 1985.4 1776.16 Q1986.42 1775.97 1987.44 1775.97 Q1993.23 1775.97 1996.61 1779.15 Q1999.98 1782.32 1999.98 1787.73 Q1999.98 1793.31 1996.51 1796.41 Q1993.04 1799.49 1986.72 1799.49 Q1984.55 1799.49 1982.28 1799.12 Q1980.03 1798.75 1977.62 1798.01 L1977.62 1793.31 Q1979.71 1794.45 1981.93 1795 Q1984.15 1795.56 1986.63 1795.56 Q1990.63 1795.56 1992.97 1793.45 Q1995.31 1791.34 1995.31 1787.73 Q1995.31 1784.12 1992.97 1782.02 Q1990.63 1779.91 1986.63 1779.91 Q1984.75 1779.91 1982.88 1780.33 Q1981.03 1780.74 1979.08 1781.62 L1979.08 1764.26 Z" fill="#000000" fill-rule="nonzero" fill-opacity="1" /><path clip-path="url(#clip150)" d="M2461.61 1794.89 L2469.25 1794.89 L2469.25 1768.52 L2460.94 1770.19 L2460.94 1765.93 L2469.2 1764.26 L2473.88 1764.26 L2473.88 1794.89 L2481.52 1794.89 L2481.52 1798.82 L2461.61 1798.82 L2461.61 1794.89 Z" fill="#000000" fill-rule="nonzero" fill-opacity="1" /><path clip-path="url(#clip150)" d="M2500.96 1767.34 Q2497.35 1767.34 2495.52 1770.9 Q2493.72 1774.45 2493.72 1781.58 Q2493.72 1788.68 2495.52 1792.25 Q2497.35 1795.79 2500.96 1795.79 Q2504.6 1795.79 2506.4 1792.25 Q2508.23 1788.68 2508.23 1781.58 Q2508.23 1774.45 2506.4 1770.9 Q2504.6 1767.34 2500.96 1767.34 M2500.96 1763.64 Q2506.77 1763.64 2509.83 1768.24 Q2512.91 1772.83 2512.91 1781.58 Q2512.91 1790.3 2509.83 1794.91 Q2506.77 1799.49 2500.96 1799.49 Q2495.15 1799.49 2492.07 1794.91 Q2489.02 1790.3 2489.02 1781.58 Q2489.02 1772.83 2492.07 1768.24 Q2495.15 1763.64 2500.96 1763.64 Z" fill="#000000" fill-rule="nonzero" fill-opacity="1" /><path clip-path="url(#clip150)" d="M2531.12 1767.34 Q2527.51 1767.34 2525.68 1770.9 Q2523.88 1774.45 2523.88 1781.58 Q2523.88 1788.68 2525.68 1792.25 Q2527.51 1795.79 2531.12 1795.79 Q2534.76 1795.79 2536.56 1792.25 Q2538.39 1788.68 2538.39 1781.58 Q2538.39 1774.45 2536.56 1770.9 Q2534.76 1767.34 2531.12 1767.34 M2531.12 1763.64 Q2536.93 1763.64 2539.99 1768.24 Q2543.07 1772.83 2543.07 1781.58 Q2543.07 1790.3 2539.99 1794.91 Q2536.93 1799.49 2531.12 1799.49 Q2525.31 1799.49 2522.24 1794.91 Q2519.18 1790.3 2519.18 1781.58 Q2519.18 1772.83 2522.24 1768.24 Q2525.31 1763.64 2531.12 1763.64 Z" fill="#000000" fill-rule="nonzero" fill-opacity="1" /><path clip-path="url(#clip150)" d="M1402.48 1841.06 L1402.48 1878.02 L1410.25 1878.02 Q1420.08 1878.02 1424.63 1873.56 Q1429.22 1869.11 1429.22 1859.49 Q1429.22 1849.94 1424.63 1845.52 Q1420.08 1841.06 1410.25 1841.06 L1402.48 1841.06 M1396.05 1835.78 L1409.26 1835.78 Q1423.07 1835.78 1429.53 1841.54 Q1435.99 1847.27 1435.99 1859.49 Q1435.99 1871.78 1429.5 1877.54 Q1423.01 1883.3 1409.26 1883.3 L1396.05 1883.3 L1396.05 1835.78 Z" fill="#000000" fill-rule="nonzero" fill-opacity="1" /><path clip-path="url(#clip150)" d="M1462.19 1865.38 Q1455.09 1865.38 1452.35 1867 Q1449.62 1868.63 1449.62 1872.54 Q1449.62 1875.66 1451.65 1877.51 Q1453.72 1879.32 1457.26 1879.32 Q1462.13 1879.32 1465.05 1875.88 Q1468.01 1872.42 1468.01 1866.69 L1468.01 1865.38 L1462.19 1865.38 M1473.87 1862.96 L1473.87 1883.3 L1468.01 1883.3 L1468.01 1877.89 Q1466.01 1881.14 1463.02 1882.7 Q1460.03 1884.22 1455.7 1884.22 Q1450.22 1884.22 1446.98 1881.17 Q1443.76 1878.08 1443.76 1872.92 Q1443.76 1866.91 1447.77 1863.85 Q1451.81 1860.8 1459.8 1860.8 L1468.01 1860.8 L1468.01 1860.23 Q1468.01 1856.18 1465.34 1853.99 Q1462.7 1851.76 1457.89 1851.76 Q1454.84 1851.76 1451.94 1852.49 Q1449.04 1853.22 1446.37 1854.69 L1446.37 1849.28 Q1449.59 1848.03 1452.61 1847.43 Q1455.63 1846.79 1458.5 1846.79 Q1466.23 1846.79 1470.05 1850.8 Q1473.87 1854.81 1473.87 1862.96 Z" fill="#000000" fill-rule="nonzero" fill-opacity="1" /><path clip-path="url(#clip150)" d="M1500.77 1886.61 Q1498.28 1892.98 1495.93 1894.92 Q1493.57 1896.86 1489.63 1896.86 L1484.95 1896.86 L1484.95 1891.96 L1488.38 1891.96 Q1490.8 1891.96 1492.14 1890.81 Q1493.48 1889.67 1495.1 1885.4 L1496.15 1882.73 L1481.73 1847.65 L1487.94 1847.65 L1499.08 1875.53 L1510.22 1847.65 L1516.43 1847.65 L1500.77 1886.61 Z" fill="#000000" fill-rule="nonzero" fill-opacity="1" /><polyline clip-path="url(#clip150)" style="stroke:#000000; stroke-linecap:round; stroke-linejoin:round; stroke-width:4; stroke-opacity:1; fill:none" points="271.719,1734.12 271.719,127.792 "/>
<polyline clip-path="url(#clip150)" style="stroke:#000000; stroke-linecap:round; stroke-linejoin:round; stroke-width:4; stroke-opacity:1; fill:none" points="271.719,1734.12 290.617,1734.12 "/>
<polyline clip-path="url(#clip150)" style="stroke:#000000; stroke-linecap:round; stroke-linejoin:round; stroke-width:4; stroke-opacity:1; fill:none" points="271.719,1412.82 290.617,1412.82 "/>
<polyline clip-path="url(#clip150)" style="stroke:#000000; stroke-linecap:round; stroke-linejoin:round; stroke-width:4; stroke-opacity:1; fill:none" points="271.719,1091.52 290.617,1091.52 "/>
<polyline clip-path="url(#clip150)" style="stroke:#000000; stroke-linecap:round; stroke-linejoin:round; stroke-width:4; stroke-opacity:1; fill:none" points="271.719,770.226 290.617,770.226 "/>
<polyline clip-path="url(#clip150)" style="stroke:#000000; stroke-linecap:round; stroke-linejoin:round; stroke-width:4; stroke-opacity:1; fill:none" points="271.719,448.929 290.617,448.929 "/>
<path clip-path="url(#clip150)" d="M219.455 1719.92 Q215.844 1719.92 214.015 1723.48 Q212.209 1727.02 212.209 1734.15 Q212.209 1741.26 214.015 1744.82 Q215.844 1748.36 219.455 1748.36 Q223.089 1748.36 224.894 1744.82 Q226.723 1741.26 226.723 1734.15 Q226.723 1727.02 224.894 1723.48 Q223.089 1719.92 219.455 1719.92 M219.455 1716.21 Q225.265 1716.21 228.32 1720.82 Q231.399 1725.4 231.399 1734.15 Q231.399 1742.88 228.32 1747.48 Q225.265 1752.07 219.455 1752.07 Q213.644 1752.07 210.566 1747.48 Q207.51 1742.88 207.51 1734.15 Q207.51 1725.4 210.566 1720.82 Q213.644 1716.21 219.455 1716.21 Z" fill="#000000" fill-rule="nonzero" fill-opacity="1" /><path clip-path="url(#clip150)" d="M122.997 1426.16 L139.316 1426.16 L139.316 1430.1 L117.372 1430.1 L117.372 1426.16 Q120.034 1423.41 124.617 1418.78 Q129.224 1414.13 130.404 1412.79 Q132.65 1410.26 133.529 1408.53 Q134.432 1406.77 134.432 1405.08 Q134.432 1402.32 132.488 1400.59 Q130.566 1398.85 127.464 1398.85 Q125.265 1398.85 122.812 1399.61 Q120.381 1400.38 117.603 1401.93 L117.603 1397.21 Q120.427 1396.07 122.881 1395.49 Q125.335 1394.91 127.372 1394.91 Q132.742 1394.91 135.937 1397.6 Q139.131 1400.29 139.131 1404.78 Q139.131 1406.91 138.321 1408.83 Q137.534 1410.72 135.427 1413.32 Q134.849 1413.99 131.747 1417.21 Q128.645 1420.4 122.997 1426.16 Z" fill="#000000" fill-rule="nonzero" fill-opacity="1" /><path clip-path="url(#clip150)" d="M159.131 1398.62 Q155.52 1398.62 153.691 1402.18 Q151.886 1405.73 151.886 1412.85 Q151.886 1419.96 153.691 1423.53 Q155.52 1427.07 159.131 1427.07 Q162.765 1427.07 164.571 1423.53 Q166.399 1419.96 166.399 1412.85 Q166.399 1405.73 164.571 1402.18 Q162.765 1398.62 159.131 1398.62 M159.131 1394.91 Q164.941 1394.91 167.997 1399.52 Q171.075 1404.1 171.075 1412.85 Q171.075 1421.58 167.997 1426.19 Q164.941 1430.77 159.131 1430.77 Q153.321 1430.77 150.242 1426.19 Q147.186 1421.58 147.186 1412.85 Q147.186 1404.1 150.242 1399.52 Q153.321 1394.91 159.131 1394.91 Z" fill="#000000" fill-rule="nonzero" fill-opacity="1" /><path clip-path="url(#clip150)" d="M189.293 1398.62 Q185.682 1398.62 183.853 1402.18 Q182.047 1405.73 182.047 1412.85 Q182.047 1419.96 183.853 1423.53 Q185.682 1427.07 189.293 1427.07 Q192.927 1427.07 194.733 1423.53 Q196.561 1419.96 196.561 1412.85 Q196.561 1405.73 194.733 1402.18 Q192.927 1398.62 189.293 1398.62 M189.293 1394.91 Q195.103 1394.91 198.158 1399.52 Q201.237 1404.1 201.237 1412.85 Q201.237 1421.58 198.158 1426.19 Q195.103 1430.77 189.293 1430.77 Q183.483 1430.77 180.404 1426.19 Q177.348 1421.58 177.348 1412.85 Q177.348 1404.1 180.404 1399.52 Q183.483 1394.91 189.293 1394.91 Z" fill="#000000" fill-rule="nonzero" fill-opacity="1" /><path clip-path="url(#clip150)" d="M219.455 1398.62 Q215.844 1398.62 214.015 1402.18 Q212.209 1405.73 212.209 1412.85 Q212.209 1419.96 214.015 1423.53 Q215.844 1427.07 219.455 1427.07 Q223.089 1427.07 224.894 1423.53 Q226.723 1419.96 226.723 1412.85 Q226.723 1405.73 224.894 1402.18 Q223.089 1398.62 219.455 1398.62 M219.455 1394.91 Q225.265 1394.91 228.32 1399.52 Q231.399 1404.1 231.399 1412.85 Q231.399 1421.58 228.32 1426.19 Q225.265 1430.77 219.455 1430.77 Q213.644 1430.77 210.566 1426.19 Q207.51 1421.58 207.51 1412.85 Q207.51 1404.1 210.566 1399.52 Q213.644 1394.91 219.455 1394.91 Z" fill="#000000" fill-rule="nonzero" fill-opacity="1" /><path clip-path="url(#clip150)" d="M131.816 1078.32 L120.011 1096.77 L131.816 1096.77 L131.816 1078.32 M130.589 1074.24 L136.469 1074.24 L136.469 1096.77 L141.399 1096.77 L141.399 1100.65 L136.469 1100.65 L136.469 1108.8 L131.816 1108.8 L131.816 1100.65 L116.214 1100.65 L116.214 1096.14 L130.589 1074.24 Z" fill="#000000" fill-rule="nonzero" fill-opacity="1" /><path clip-path="url(#clip150)" d="M159.131 1077.32 Q155.52 1077.32 153.691 1080.89 Q151.886 1084.43 151.886 1091.56 Q151.886 1098.66 153.691 1102.23 Q155.52 1105.77 159.131 1105.77 Q162.765 1105.77 164.571 1102.23 Q166.399 1098.66 166.399 1091.56 Q166.399 1084.43 164.571 1080.89 Q162.765 1077.32 159.131 1077.32 M159.131 1073.62 Q164.941 1073.62 167.997 1078.22 Q171.075 1082.81 171.075 1091.56 Q171.075 1100.28 167.997 1104.89 Q164.941 1109.47 159.131 1109.47 Q153.321 1109.47 150.242 1104.89 Q147.186 1100.28 147.186 1091.56 Q147.186 1082.81 150.242 1078.22 Q153.321 1073.62 159.131 1073.62 Z" fill="#000000" fill-rule="nonzero" fill-opacity="1" /><path clip-path="url(#clip150)" d="M189.293 1077.32 Q185.682 1077.32 183.853 1080.89 Q182.047 1084.43 182.047 1091.56 Q182.047 1098.66 183.853 1102.23 Q185.682 1105.77 189.293 1105.77 Q192.927 1105.77 194.733 1102.23 Q196.561 1098.66 196.561 1091.56 Q196.561 1084.43 194.733 1080.89 Q192.927 1077.32 189.293 1077.32 M189.293 1073.62 Q195.103 1073.62 198.158 1078.22 Q201.237 1082.81 201.237 1091.56 Q201.237 1100.28 198.158 1104.89 Q195.103 1109.47 189.293 1109.47 Q183.483 1109.47 180.404 1104.89 Q177.348 1100.28 177.348 1091.56 Q177.348 1082.81 180.404 1078.22 Q183.483 1073.62 189.293 1073.62 Z" fill="#000000" fill-rule="nonzero" fill-opacity="1" /><path clip-path="url(#clip150)" d="M219.455 1077.32 Q215.844 1077.32 214.015 1080.89 Q212.209 1084.43 212.209 1091.56 Q212.209 1098.66 214.015 1102.23 Q215.844 1105.77 219.455 1105.77 Q223.089 1105.77 224.894 1102.23 Q226.723 1098.66 226.723 1091.56 Q226.723 1084.43 224.894 1080.89 Q223.089 1077.32 219.455 1077.32 M219.455 1073.62 Q225.265 1073.62 228.32 1078.22 Q231.399 1082.81 231.399 1091.56 Q231.399 1100.28 228.32 1104.89 Q225.265 1109.47 219.455 1109.47 Q213.644 1109.47 210.566 1104.89 Q207.51 1100.28 207.51 1091.56 Q207.51 1082.81 210.566 1078.22 Q213.644 1073.62 219.455 1073.62 Z" fill="#000000" fill-rule="nonzero" fill-opacity="1" /><path clip-path="url(#clip150)" d="M129.548 768.362 Q126.4 768.362 124.548 770.515 Q122.719 772.668 122.719 776.418 Q122.719 780.145 124.548 782.321 Q126.4 784.473 129.548 784.473 Q132.696 784.473 134.525 782.321 Q136.376 780.145 136.376 776.418 Q136.376 772.668 134.525 770.515 Q132.696 768.362 129.548 768.362 M138.83 753.71 L138.83 757.969 Q137.071 757.135 135.265 756.696 Q133.483 756.256 131.724 756.256 Q127.094 756.256 124.64 759.381 Q122.21 762.506 121.863 768.825 Q123.228 766.811 125.288 765.747 Q127.349 764.659 129.825 764.659 Q135.034 764.659 138.043 767.83 Q141.075 770.978 141.075 776.418 Q141.075 781.742 137.927 784.959 Q134.779 788.177 129.548 788.177 Q123.552 788.177 120.381 783.594 Q117.21 778.987 117.21 770.26 Q117.21 762.066 121.099 757.205 Q124.988 752.321 131.538 752.321 Q133.298 752.321 135.08 752.668 Q136.886 753.015 138.83 753.71 Z" fill="#000000" fill-rule="nonzero" fill-opacity="1" /><path clip-path="url(#clip150)" d="M159.131 756.024 Q155.52 756.024 153.691 759.589 Q151.886 763.131 151.886 770.26 Q151.886 777.367 153.691 780.932 Q155.52 784.473 159.131 784.473 Q162.765 784.473 164.571 780.932 Q166.399 777.367 166.399 770.26 Q166.399 763.131 164.571 759.589 Q162.765 756.024 159.131 756.024 M159.131 752.321 Q164.941 752.321 167.997 756.927 Q171.075 761.51 171.075 770.26 Q171.075 778.987 167.997 783.594 Q164.941 788.177 159.131 788.177 Q153.321 788.177 150.242 783.594 Q147.186 778.987 147.186 770.26 Q147.186 761.51 150.242 756.927 Q153.321 752.321 159.131 752.321 Z" fill="#000000" fill-rule="nonzero" fill-opacity="1" /><path clip-path="url(#clip150)" d="M189.293 756.024 Q185.682 756.024 183.853 759.589 Q182.047 763.131 182.047 770.26 Q182.047 777.367 183.853 780.932 Q185.682 784.473 189.293 784.473 Q192.927 784.473 194.733 780.932 Q196.561 777.367 196.561 770.26 Q196.561 763.131 194.733 759.589 Q192.927 756.024 189.293 756.024 M189.293 752.321 Q195.103 752.321 198.158 756.927 Q201.237 761.51 201.237 770.26 Q201.237 778.987 198.158 783.594 Q195.103 788.177 189.293 788.177 Q183.483 788.177 180.404 783.594 Q177.348 778.987 177.348 770.26 Q177.348 761.51 180.404 756.927 Q183.483 752.321 189.293 752.321 Z" fill="#000000" fill-rule="nonzero" fill-opacity="1" /><path clip-path="url(#clip150)" d="M219.455 756.024 Q215.844 756.024 214.015 759.589 Q212.209 763.131 212.209 770.26 Q212.209 777.367 214.015 780.932 Q215.844 784.473 219.455 784.473 Q223.089 784.473 224.894 780.932 Q226.723 777.367 226.723 770.26 Q226.723 763.131 224.894 759.589 Q223.089 756.024 219.455 756.024 M219.455 752.321 Q225.265 752.321 228.32 756.927 Q231.399 761.51 231.399 770.26 Q231.399 778.987 228.32 783.594 Q225.265 788.177 219.455 788.177 Q213.644 788.177 210.566 783.594 Q207.51 778.987 207.51 770.26 Q207.51 761.51 210.566 756.927 Q213.644 752.321 219.455 752.321 Z" fill="#000000" fill-rule="nonzero" fill-opacity="1" /><path clip-path="url(#clip150)" d="M128.969 449.797 Q125.636 449.797 123.714 451.579 Q121.816 453.361 121.816 456.486 Q121.816 459.611 123.714 461.394 Q125.636 463.176 128.969 463.176 Q132.302 463.176 134.224 461.394 Q136.145 459.588 136.145 456.486 Q136.145 453.361 134.224 451.579 Q132.325 449.797 128.969 449.797 M124.293 447.806 Q121.284 447.065 119.594 445.005 Q117.927 442.945 117.927 439.982 Q117.927 435.838 120.867 433.431 Q123.83 431.024 128.969 431.024 Q134.131 431.024 137.071 433.431 Q140.011 435.838 140.011 439.982 Q140.011 442.945 138.321 445.005 Q136.654 447.065 133.668 447.806 Q137.048 448.593 138.923 450.885 Q140.821 453.176 140.821 456.486 Q140.821 461.51 137.742 464.195 Q134.687 466.88 128.969 466.88 Q123.251 466.88 120.173 464.195 Q117.117 461.51 117.117 456.486 Q117.117 453.176 119.015 450.885 Q120.913 448.593 124.293 447.806 M122.58 440.422 Q122.58 443.107 124.247 444.611 Q125.937 446.116 128.969 446.116 Q131.978 446.116 133.668 444.611 Q135.381 443.107 135.381 440.422 Q135.381 437.737 133.668 436.232 Q131.978 434.727 128.969 434.727 Q125.937 434.727 124.247 436.232 Q122.58 437.737 122.58 440.422 Z" fill="#000000" fill-rule="nonzero" fill-opacity="1" /><path clip-path="url(#clip150)" d="M159.131 434.727 Q155.52 434.727 153.691 438.292 Q151.886 441.834 151.886 448.963 Q151.886 456.07 153.691 459.635 Q155.52 463.176 159.131 463.176 Q162.765 463.176 164.571 459.635 Q166.399 456.07 166.399 448.963 Q166.399 441.834 164.571 438.292 Q162.765 434.727 159.131 434.727 M159.131 431.024 Q164.941 431.024 167.997 435.63 Q171.075 440.213 171.075 448.963 Q171.075 457.69 167.997 462.297 Q164.941 466.88 159.131 466.88 Q153.321 466.88 150.242 462.297 Q147.186 457.69 147.186 448.963 Q147.186 440.213 150.242 435.63 Q153.321 431.024 159.131 431.024 Z" fill="#000000" fill-rule="nonzero" fill-opacity="1" /><path clip-path="url(#clip150)" d="M189.293 434.727 Q185.682 434.727 183.853 438.292 Q182.047 441.834 182.047 448.963 Q182.047 456.07 183.853 459.635 Q185.682 463.176 189.293 463.176 Q192.927 463.176 194.733 459.635 Q196.561 456.07 196.561 448.963 Q196.561 441.834 194.733 438.292 Q192.927 434.727 189.293 434.727 M189.293 431.024 Q195.103 431.024 198.158 435.63 Q201.237 440.213 201.237 448.963 Q201.237 457.69 198.158 462.297 Q195.103 466.88 189.293 466.88 Q183.483 466.88 180.404 462.297 Q177.348 457.69 177.348 448.963 Q177.348 440.213 180.404 435.63 Q183.483 431.024 189.293 431.024 Z" fill="#000000" fill-rule="nonzero" fill-opacity="1" /><path clip-path="url(#clip150)" d="M219.455 434.727 Q215.844 434.727 214.015 438.292 Q212.209 441.834 212.209 448.963 Q212.209 456.07 214.015 459.635 Q215.844 463.176 219.455 463.176 Q223.089 463.176 224.894 459.635 Q226.723 456.07 226.723 448.963 Q226.723 441.834 224.894 438.292 Q223.089 434.727 219.455 434.727 M219.455 431.024 Q225.265 431.024 228.32 435.63 Q231.399 440.213 231.399 448.963 Q231.399 457.69 228.32 462.297 Q225.265 466.88 219.455 466.88 Q213.644 466.88 210.566 462.297 Q207.51 457.69 207.51 448.963 Q207.51 440.213 210.566 435.63 Q213.644 431.024 219.455 431.024 Z" fill="#000000" fill-rule="nonzero" fill-opacity="1" /><path clip-path="url(#clip150)" d="M17.7787 985.954 L24.5582 985.954 Q21.5345 989.201 20.0386 992.893 Q18.5426 996.553 18.5426 1000.69 Q18.5426 1008.84 23.5397 1013.17 Q28.5049 1017.5 37.9262 1017.5 Q47.3156 1017.5 52.3127 1013.17 Q57.2779 1008.84 57.2779 1000.69 Q57.2779 996.553 55.782 992.893 Q54.2861 989.201 51.2623 985.954 L57.9782 985.954 Q60.2698 989.328 61.4156 993.116 Q62.5615 996.871 62.5615 1001.07 Q62.5615 1011.86 55.973 1018.07 Q49.3526 1024.28 37.9262 1024.28 Q26.4679 1024.28 19.8794 1018.07 Q13.2591 1011.86 13.2591 1001.07 Q13.2591 996.808 14.4049 993.052 Q15.5189 989.264 17.7787 985.954 Z" fill="#000000" fill-rule="nonzero" fill-opacity="1" /><path clip-path="url(#clip150)" d="M43.719 960.078 Q43.719 967.175 45.3422 969.913 Q46.9655 972.65 50.8804 972.65 Q53.9996 972.65 55.8457 970.613 Q57.6599 968.544 57.6599 965.011 Q57.6599 960.141 54.2224 957.213 Q50.7531 954.253 45.0239 954.253 L43.719 954.253 L43.719 960.078 M41.3 948.397 L61.6384 948.397 L61.6384 954.253 L56.2276 954.253 Q59.4741 956.258 61.0337 959.25 Q62.5615 962.242 62.5615 966.571 Q62.5615 972.045 59.5059 975.292 Q56.4186 978.506 51.2623 978.506 Q45.2467 978.506 42.1912 974.496 Q39.1357 970.454 39.1357 962.465 L39.1357 954.253 L38.5628 954.253 Q34.5205 954.253 32.3244 956.927 Q30.0964 959.568 30.0964 964.375 Q30.0964 967.43 30.8284 970.326 Q31.5605 973.223 33.0246 975.896 L27.6137 975.896 Q26.3724 972.682 25.7677 969.658 Q25.1311 966.634 25.1311 963.77 Q25.1311 956.035 29.1415 952.216 Q33.1519 948.397 41.3 948.397 Z" fill="#000000" fill-rule="nonzero" fill-opacity="1" /><path clip-path="url(#clip150)" d="M27.0408 913.608 L32.579 913.608 Q31.3059 916.091 30.6693 918.764 Q30.0327 921.438 30.0327 924.302 Q30.0327 928.663 31.3695 930.859 Q32.7063 933.023 35.3799 933.023 Q37.4169 933.023 38.5946 931.464 Q39.7404 929.904 40.7908 925.194 L41.2364 923.188 Q42.5732 916.95 45.0239 914.34 Q47.4429 911.698 51.8034 911.698 Q56.7687 911.698 59.6651 915.645 Q62.5615 919.56 62.5615 926.435 Q62.5615 929.299 61.9886 932.419 Q61.4475 935.506 60.3335 938.944 L54.2861 938.944 Q55.973 935.697 56.8323 932.546 Q57.6599 929.395 57.6599 926.308 Q57.6599 922.17 56.2594 919.942 Q54.8271 917.714 52.249 917.714 Q49.8619 917.714 48.5887 919.337 Q47.3156 920.929 46.1379 926.371 L45.6605 928.408 Q44.5147 933.851 42.1594 936.27 Q39.7722 938.689 35.6345 938.689 Q30.6056 938.689 27.8684 935.124 Q25.1311 931.559 25.1311 925.003 Q25.1311 921.756 25.6085 918.892 Q26.086 916.027 27.0408 913.608 Z" fill="#000000" fill-rule="nonzero" fill-opacity="1" /><path clip-path="url(#clip150)" d="M42.3504 871.881 L45.2149 871.881 L45.2149 898.808 Q51.2623 898.426 54.4452 895.179 Q57.5962 891.901 57.5962 886.076 Q57.5962 882.702 56.7687 879.551 Q55.9411 876.369 54.2861 873.249 L59.8242 873.249 Q61.161 876.4 61.8612 879.711 Q62.5615 883.021 62.5615 886.426 Q62.5615 894.956 57.5962 899.954 Q52.631 904.919 44.1646 904.919 Q35.4117 904.919 30.2873 900.208 Q25.1311 895.466 25.1311 887.445 Q25.1311 880.252 29.7781 876.082 Q34.3932 871.881 42.3504 871.881 M40.6316 877.737 Q35.8255 877.801 32.9609 880.443 Q30.0964 883.053 30.0964 887.381 Q30.0964 892.283 32.8654 895.243 Q35.6345 898.171 40.6634 898.617 L40.6316 877.737 Z" fill="#000000" fill-rule="nonzero" fill-opacity="1" /><path clip-path="url(#clip150)" d="M27.0408 839.543 L32.579 839.543 Q31.3059 842.026 30.6693 844.699 Q30.0327 847.373 30.0327 850.237 Q30.0327 854.598 31.3695 856.794 Q32.7063 858.958 35.3799 858.958 Q37.4169 858.958 38.5946 857.399 Q39.7404 855.839 40.7908 851.129 L41.2364 849.123 Q42.5732 842.885 45.0239 840.275 Q47.4429 837.633 51.8034 837.633 Q56.7687 837.633 59.6651 841.58 Q62.5615 845.495 62.5615 852.37 Q62.5615 855.234 61.9886 858.354 Q61.4475 861.441 60.3335 864.879 L54.2861 864.879 Q55.973 861.632 56.8323 858.481 Q57.6599 855.33 57.6599 852.243 Q57.6599 848.105 56.2594 845.877 Q54.8271 843.649 52.249 843.649 Q49.8619 843.649 48.5887 845.272 Q47.3156 846.864 46.1379 852.306 L45.6605 854.343 Q44.5147 859.786 42.1594 862.205 Q39.7722 864.624 35.6345 864.624 Q30.6056 864.624 27.8684 861.059 Q25.1311 857.494 25.1311 850.938 Q25.1311 847.691 25.6085 844.827 Q26.086 841.962 27.0408 839.543 Z" fill="#000000" fill-rule="nonzero" fill-opacity="1" /><path clip-path="url(#clip150)" d="M980.844 14.0809 L980.844 22.0612 Q976.185 19.8332 972.053 18.7395 Q967.921 17.6457 964.073 17.6457 Q957.389 17.6457 953.743 20.2383 Q950.138 22.8309 950.138 27.611 Q950.138 31.6214 952.528 33.6873 Q954.958 35.7128 961.683 36.9686 L966.625 37.9813 Q975.78 39.7232 980.114 44.1387 Q984.489 48.5136 984.489 55.8863 Q984.489 64.6767 978.575 69.2137 Q972.701 73.7508 961.318 73.7508 Q957.024 73.7508 952.163 72.7785 Q947.343 71.8063 942.157 69.9024 L942.157 61.4765 Q947.14 64.2716 951.92 65.6895 Q956.7 67.1073 961.318 67.1073 Q968.326 67.1073 972.134 64.3527 Q975.942 61.598 975.942 56.4939 Q975.942 52.0379 973.187 49.5264 Q970.473 47.0148 964.235 45.759 L959.252 44.7868 Q950.097 42.9639 946.006 39.075 Q941.914 35.1862 941.914 28.2591 Q941.914 20.2383 947.545 15.6203 Q953.216 11.0023 963.141 11.0023 Q967.395 11.0023 971.81 11.7719 Q976.226 12.5416 980.844 14.0809 Z" fill="#000000" fill-rule="nonzero" fill-opacity="1" /><path clip-path="url(#clip150)" d="M1015.8 76.7889 Q1012.64 84.8907 1009.65 87.3618 Q1006.65 89.8329 1001.62 89.8329 L995.67 89.8329 L995.67 83.5945 L1000.04 83.5945 Q1003.12 83.5945 1004.82 82.1361 Q1006.53 80.6778 1008.59 75.2496 L1009.93 71.8468 L991.578 27.2059 L999.478 27.2059 L1013.66 62.6918 L1027.83 27.2059 L1035.73 27.2059 L1015.8 76.7889 Z" fill="#000000" fill-rule="nonzero" fill-opacity="1" /><path clip-path="url(#clip150)" d="M1083.74 45.1919 L1083.74 72.576 L1076.28 72.576 L1076.28 45.4349 Q1076.28 38.994 1073.77 35.7938 Q1071.26 32.5936 1066.24 32.5936 Q1060.2 32.5936 1056.72 36.4419 Q1053.23 40.2903 1053.23 46.9338 L1053.23 72.576 L1045.74 72.576 L1045.74 27.2059 L1053.23 27.2059 L1053.23 34.2544 Q1055.91 30.163 1059.51 28.1376 Q1063.16 26.1121 1067.9 26.1121 Q1075.72 26.1121 1079.73 30.9732 Q1083.74 35.7938 1083.74 45.1919 Z" fill="#000000" fill-rule="nonzero" fill-opacity="1" /><path clip-path="url(#clip150)" d="M1105.98 14.324 L1105.98 27.2059 L1121.33 27.2059 L1121.33 32.9987 L1105.98 32.9987 L1105.98 57.6282 Q1105.98 63.1779 1107.47 64.7578 Q1109.01 66.3376 1113.67 66.3376 L1121.33 66.3376 L1121.33 72.576 L1113.67 72.576 Q1105.04 72.576 1101.76 69.3758 Q1098.48 66.1351 1098.48 57.6282 L1098.48 32.9987 L1093.01 32.9987 L1093.01 27.2059 L1098.48 27.2059 L1098.48 14.324 L1105.98 14.324 Z" fill="#000000" fill-rule="nonzero" fill-opacity="1" /><path clip-path="url(#clip150)" d="M1168.85 45.1919 L1168.85 72.576 L1161.39 72.576 L1161.39 45.4349 Q1161.39 38.994 1158.88 35.7938 Q1156.37 32.5936 1151.35 32.5936 Q1145.31 32.5936 1141.83 36.4419 Q1138.34 40.2903 1138.34 46.9338 L1138.34 72.576 L1130.85 72.576 L1130.85 9.54393 L1138.34 9.54393 L1138.34 34.2544 Q1141.02 30.163 1144.62 28.1376 Q1148.27 26.1121 1153.01 26.1121 Q1160.83 26.1121 1164.84 30.9732 Q1168.85 35.7938 1168.85 45.1919 Z" fill="#000000" fill-rule="nonzero" fill-opacity="1" /><path clip-path="url(#clip150)" d="M1222.52 48.0275 L1222.52 51.6733 L1188.25 51.6733 Q1188.74 59.3701 1192.87 63.421 Q1197.04 67.4314 1204.45 67.4314 Q1208.75 67.4314 1212.76 66.3781 Q1216.81 65.3249 1220.78 63.2184 L1220.78 70.267 Q1216.77 71.9684 1212.56 72.8596 Q1208.34 73.7508 1204.01 73.7508 Q1193.15 73.7508 1186.79 67.4314 Q1180.47 61.1119 1180.47 50.3365 Q1180.47 39.1965 1186.47 32.6746 Q1192.5 26.1121 1202.71 26.1121 Q1211.87 26.1121 1217.17 32.0264 Q1222.52 37.9003 1222.52 48.0275 M1215.07 45.84 Q1214.99 39.7232 1211.62 36.0774 Q1208.3 32.4315 1202.79 32.4315 Q1196.55 32.4315 1192.79 35.9558 Q1189.06 39.4801 1188.49 45.8805 L1215.07 45.84 Z" fill="#000000" fill-rule="nonzero" fill-opacity="1" /><path clip-path="url(#clip150)" d="M1242.13 14.324 L1242.13 27.2059 L1257.48 27.2059 L1257.48 32.9987 L1242.13 32.9987 L1242.13 57.6282 Q1242.13 63.1779 1243.63 64.7578 Q1245.17 66.3376 1249.82 66.3376 L1257.48 66.3376 L1257.48 72.576 L1249.82 72.576 Q1241.2 72.576 1237.91 69.3758 Q1234.63 66.1351 1234.63 57.6282 L1234.63 32.9987 L1229.16 32.9987 L1229.16 27.2059 L1234.63 27.2059 L1234.63 14.324 L1242.13 14.324 Z" fill="#000000" fill-rule="nonzero" fill-opacity="1" /><path clip-path="url(#clip150)" d="M1267.28 27.2059 L1274.74 27.2059 L1274.74 72.576 L1267.28 72.576 L1267.28 27.2059 M1267.28 9.54393 L1274.74 9.54393 L1274.74 18.9825 L1267.28 18.9825 L1267.28 9.54393 Z" fill="#000000" fill-rule="nonzero" fill-opacity="1" /><path clip-path="url(#clip150)" d="M1322.98 28.9478 L1322.98 35.9153 Q1319.82 34.1734 1316.62 33.3227 Q1313.46 32.4315 1310.22 32.4315 Q1302.97 32.4315 1298.96 37.0496 Q1294.95 41.6271 1294.95 49.9314 Q1294.95 58.2358 1298.96 62.8538 Q1302.97 67.4314 1310.22 67.4314 Q1313.46 67.4314 1316.62 66.5807 Q1319.82 65.6895 1322.98 63.9476 L1322.98 70.8341 Q1319.86 72.2924 1316.5 73.0216 Q1313.18 73.7508 1309.41 73.7508 Q1299.16 73.7508 1293.13 67.3098 Q1287.09 60.8689 1287.09 49.9314 Q1287.09 38.832 1293.17 32.472 Q1299.29 26.1121 1309.9 26.1121 Q1313.34 26.1121 1316.62 26.8413 Q1319.9 27.5299 1322.98 28.9478 Z" fill="#000000" fill-rule="nonzero" fill-opacity="1" /><path clip-path="url(#clip150)" d="M1387.19 17.6457 Q1378.28 17.6457 1373.01 24.2892 Q1367.79 30.9327 1367.79 42.3968 Q1367.79 53.8203 1373.01 60.4638 Q1378.28 67.1073 1387.19 67.1073 Q1396.1 67.1073 1401.29 60.4638 Q1406.51 53.8203 1406.51 42.3968 Q1406.51 30.9327 1401.29 24.2892 Q1396.1 17.6457 1387.19 17.6457 M1387.19 11.0023 Q1399.91 11.0023 1407.53 19.5497 Q1415.14 28.0566 1415.14 42.3968 Q1415.14 56.6965 1407.53 65.2439 Q1399.91 73.7508 1387.19 73.7508 Q1374.43 73.7508 1366.77 65.2439 Q1359.16 56.737 1359.16 42.3968 Q1359.16 28.0566 1366.77 19.5497 Q1374.43 11.0023 1387.19 11.0023 Z" fill="#000000" fill-rule="nonzero" fill-opacity="1" /><path clip-path="url(#clip150)" d="M1460.19 49.9314 Q1460.19 41.7081 1456.78 37.0496 Q1453.42 32.3505 1447.51 32.3505 Q1441.59 32.3505 1438.19 37.0496 Q1434.83 41.7081 1434.83 49.9314 Q1434.83 58.1548 1438.19 62.8538 Q1441.59 67.5124 1447.51 67.5124 Q1453.42 67.5124 1456.78 62.8538 Q1460.19 58.1548 1460.19 49.9314 M1434.83 34.0924 Q1437.18 30.0415 1440.74 28.0971 Q1444.35 26.1121 1449.33 26.1121 Q1457.59 26.1121 1462.74 32.6746 Q1467.92 39.2371 1467.92 49.9314 Q1467.92 60.6258 1462.74 67.1883 Q1457.59 73.7508 1449.33 73.7508 Q1444.35 73.7508 1440.74 71.8063 Q1437.18 69.8214 1434.83 65.7705 L1434.83 72.576 L1427.33 72.576 L1427.33 9.54393 L1434.83 9.54393 L1434.83 34.0924 Z" fill="#000000" fill-rule="nonzero" fill-opacity="1" /><path clip-path="url(#clip150)" d="M1509.2 28.5427 L1509.2 35.5912 Q1506.04 33.9709 1502.64 33.1607 Q1499.24 32.3505 1495.59 32.3505 Q1490.04 32.3505 1487.25 34.0519 Q1484.49 35.7533 1484.49 39.156 Q1484.49 41.7486 1486.48 43.2475 Q1488.46 44.7058 1494.46 46.0426 L1497.01 46.6097 Q1504.95 48.3111 1508.27 51.4303 Q1511.63 54.509 1511.63 60.0587 Q1511.63 66.3781 1506.61 70.0644 Q1501.63 73.7508 1492.88 73.7508 Q1489.23 73.7508 1485.26 73.0216 Q1481.33 72.3329 1476.96 70.9151 L1476.96 63.2184 Q1481.09 65.3654 1485.1 66.4591 Q1489.11 67.5124 1493.04 67.5124 Q1498.31 67.5124 1501.14 65.73 Q1503.98 63.9071 1503.98 60.6258 Q1503.98 57.5877 1501.91 55.9673 Q1499.89 54.3469 1492.96 52.8481 L1490.37 52.2405 Q1483.44 50.7821 1480.36 47.7845 Q1477.28 44.7463 1477.28 39.4801 Q1477.28 33.0797 1481.82 29.5959 Q1486.36 26.1121 1494.7 26.1121 Q1498.83 26.1121 1502.48 26.7198 Q1506.12 27.3274 1509.2 28.5427 Z" fill="#000000" fill-rule="nonzero" fill-opacity="1" /><path clip-path="url(#clip150)" d="M1562.31 48.0275 L1562.31 51.6733 L1528.04 51.6733 Q1528.53 59.3701 1532.66 63.421 Q1536.83 67.4314 1544.24 67.4314 Q1548.54 67.4314 1552.55 66.3781 Q1556.6 65.3249 1560.57 63.2184 L1560.57 70.267 Q1556.56 71.9684 1552.35 72.8596 Q1548.13 73.7508 1543.8 73.7508 Q1532.94 73.7508 1526.58 67.4314 Q1520.26 61.1119 1520.26 50.3365 Q1520.26 39.1965 1526.26 32.6746 Q1532.29 26.1121 1542.5 26.1121 Q1551.66 26.1121 1556.96 32.0264 Q1562.31 37.9003 1562.31 48.0275 M1554.86 45.84 Q1554.78 39.7232 1551.41 36.0774 Q1548.09 32.4315 1542.58 32.4315 Q1536.34 32.4315 1532.58 35.9558 Q1528.85 39.4801 1528.28 45.8805 L1554.86 45.84 Z" fill="#000000" fill-rule="nonzero" fill-opacity="1" /><path clip-path="url(#clip150)" d="M1600.83 34.1734 Q1599.58 33.4443 1598.08 33.1202 Q1596.62 32.7556 1594.84 32.7556 Q1588.52 32.7556 1585.12 36.8875 Q1581.75 40.9789 1581.75 48.6757 L1581.75 72.576 L1574.26 72.576 L1574.26 27.2059 L1581.75 27.2059 L1581.75 34.2544 Q1584.1 30.1225 1587.87 28.1376 Q1591.64 26.1121 1597.03 26.1121 Q1597.8 26.1121 1598.73 26.2337 Q1599.66 26.3147 1600.79 26.5172 L1600.83 34.1734 Z" fill="#000000" fill-rule="nonzero" fill-opacity="1" /><path clip-path="url(#clip150)" d="M1603.31 27.2059 L1611.2 27.2059 L1625.38 65.2844 L1639.56 27.2059 L1647.46 27.2059 L1630.45 72.576 L1620.32 72.576 L1603.31 27.2059 Z" fill="#000000" fill-rule="nonzero" fill-opacity="1" /><path clip-path="url(#clip150)" d="M1696.56 48.0275 L1696.56 51.6733 L1662.29 51.6733 Q1662.77 59.3701 1666.9 63.421 Q1671.08 67.4314 1678.49 67.4314 Q1682.78 67.4314 1686.79 66.3781 Q1690.85 65.3249 1694.82 63.2184 L1694.82 70.267 Q1690.81 71.9684 1686.59 72.8596 Q1682.38 73.7508 1678.04 73.7508 Q1667.19 73.7508 1660.83 67.4314 Q1654.51 61.1119 1654.51 50.3365 Q1654.51 39.1965 1660.5 32.6746 Q1666.54 26.1121 1676.75 26.1121 Q1685.9 26.1121 1691.21 32.0264 Q1696.56 37.9003 1696.56 48.0275 M1689.1 45.84 Q1689.02 39.7232 1685.66 36.0774 Q1682.34 32.4315 1676.83 32.4315 Q1670.59 32.4315 1666.82 35.9558 Q1663.1 39.4801 1662.53 45.8805 L1689.1 45.84 Z" fill="#000000" fill-rule="nonzero" fill-opacity="1" /><path clip-path="url(#clip150)" d="M1738.65 34.0924 L1738.65 9.54393 L1746.1 9.54393 L1746.1 72.576 L1738.65 72.576 L1738.65 65.7705 Q1736.3 69.8214 1732.69 71.8063 Q1729.13 73.7508 1724.1 73.7508 Q1715.88 73.7508 1710.7 67.1883 Q1705.55 60.6258 1705.55 49.9314 Q1705.55 39.2371 1710.7 32.6746 Q1715.88 26.1121 1724.1 26.1121 Q1729.13 26.1121 1732.69 28.0971 Q1736.3 30.0415 1738.65 34.0924 M1713.25 49.9314 Q1713.25 58.1548 1716.61 62.8538 Q1720.01 67.5124 1725.93 67.5124 Q1731.84 67.5124 1735.24 62.8538 Q1738.65 58.1548 1738.65 49.9314 Q1738.65 41.7081 1735.24 37.0496 Q1731.84 32.3505 1725.93 32.3505 Q1720.01 32.3505 1716.61 37.0496 Q1713.25 41.7081 1713.25 49.9314 Z" fill="#000000" fill-rule="nonzero" fill-opacity="1" /><path clip-path="url(#clip150)" d="M1796.33 18.8205 L1796.33 65.8515 L1806.22 65.8515 Q1818.73 65.8515 1824.53 60.1802 Q1830.36 54.509 1830.36 42.2752 Q1830.36 30.1225 1824.53 24.4918 Q1818.73 18.8205 1806.22 18.8205 L1796.33 18.8205 M1788.15 12.096 L1804.96 12.096 Q1822.54 12.096 1830.76 19.4281 Q1838.99 26.7198 1838.99 42.2752 Q1838.99 57.9117 1830.72 65.2439 Q1822.46 72.576 1804.96 72.576 L1788.15 72.576 L1788.15 12.096 Z" fill="#000000" fill-rule="nonzero" fill-opacity="1" /><path clip-path="url(#clip150)" d="M1872.33 49.7694 Q1863.29 49.7694 1859.81 51.8354 Q1856.33 53.9013 1856.33 58.8839 Q1856.33 62.8538 1858.92 65.2034 Q1861.55 67.5124 1866.05 67.5124 Q1872.25 67.5124 1875.97 63.1374 Q1879.74 58.7219 1879.74 51.4303 L1879.74 49.7694 L1872.33 49.7694 M1887.19 46.6907 L1887.19 72.576 L1879.74 72.576 L1879.74 65.6895 Q1877.19 69.8214 1873.38 71.8063 Q1869.57 73.7508 1864.06 73.7508 Q1857.09 73.7508 1852.96 69.8619 Q1848.87 65.9325 1848.87 59.3701 Q1848.87 51.7138 1853.98 47.825 Q1859.12 43.9361 1869.29 43.9361 L1879.74 43.9361 L1879.74 43.2069 Q1879.74 38.0623 1876.34 35.2672 Q1872.97 32.4315 1866.86 32.4315 Q1862.97 32.4315 1859.28 33.3632 Q1855.6 34.295 1852.19 36.1584 L1852.19 29.2718 Q1856.28 27.692 1860.13 26.9223 Q1863.98 26.1121 1867.63 26.1121 Q1877.47 26.1121 1882.33 31.2163 Q1887.19 36.3204 1887.19 46.6907 Z" fill="#000000" fill-rule="nonzero" fill-opacity="1" /><path clip-path="url(#clip150)" d="M1909.92 14.324 L1909.92 27.2059 L1925.27 27.2059 L1925.27 32.9987 L1909.92 32.9987 L1909.92 57.6282 Q1909.92 63.1779 1911.42 64.7578 Q1912.96 66.3376 1917.62 66.3376 L1925.27 66.3376 L1925.27 72.576 L1917.62 72.576 Q1908.99 72.576 1905.71 69.3758 Q1902.42 66.1351 1902.42 57.6282 L1902.42 32.9987 L1896.96 32.9987 L1896.96 27.2059 L1902.42 27.2059 L1902.42 14.324 L1909.92 14.324 Z" fill="#000000" fill-rule="nonzero" fill-opacity="1" /><path clip-path="url(#clip150)" d="M1955.69 49.7694 Q1946.66 49.7694 1943.18 51.8354 Q1939.69 53.9013 1939.69 58.8839 Q1939.69 62.8538 1942.29 65.2034 Q1944.92 67.5124 1949.41 67.5124 Q1955.61 67.5124 1959.34 63.1374 Q1963.11 58.7219 1963.11 51.4303 L1963.11 49.7694 L1955.69 49.7694 M1970.56 46.6907 L1970.56 72.576 L1963.11 72.576 L1963.11 65.6895 Q1960.55 69.8214 1956.75 71.8063 Q1952.94 73.7508 1947.43 73.7508 Q1940.46 73.7508 1936.33 69.8619 Q1932.24 65.9325 1932.24 59.3701 Q1932.24 51.7138 1937.34 47.825 Q1942.49 43.9361 1952.66 43.9361 L1963.11 43.9361 L1963.11 43.2069 Q1963.11 38.0623 1959.7 35.2672 Q1956.34 32.4315 1950.22 32.4315 Q1946.34 32.4315 1942.65 33.3632 Q1938.96 34.295 1935.56 36.1584 L1935.56 29.2718 Q1939.65 27.692 1943.5 26.9223 Q1947.35 26.1121 1950.99 26.1121 Q1960.84 26.1121 1965.7 31.2163 Q1970.56 36.3204 1970.56 46.6907 Z" fill="#000000" fill-rule="nonzero" fill-opacity="1" /><path clip-path="url(#clip151)" d="M402.02 1733.96 L402.02 1734.12 L418.922 1734.12 L418.922 1733.96 L402.02 1733.96 L402.02 1733.96  Z" fill="#4682b4" fill-rule="evenodd" fill-opacity="0.7"/>
<polyline clip-path="url(#clip151)" style="stroke:#000000; stroke-linecap:round; stroke-linejoin:round; stroke-width:4; stroke-opacity:0.7; fill:none" points="402.02,1733.96 402.02,1734.12 418.922,1734.12 418.922,1733.96 402.02,1733.96 "/>
<path clip-path="url(#clip151)" d="M423.147 1733.96 L423.147 1734.12 L440.048 1734.12 L440.048 1733.96 L423.147 1733.96 L423.147 1733.96  Z" fill="#4682b4" fill-rule="evenodd" fill-opacity="0.7"/>
<polyline clip-path="url(#clip151)" style="stroke:#000000; stroke-linecap:round; stroke-linejoin:round; stroke-width:4; stroke-opacity:0.7; fill:none" points="423.147,1733.96 423.147,1734.12 440.048,1734.12 440.048,1733.96 423.147,1733.96 "/>
<path clip-path="url(#clip151)" d="M444.273 1733.96 L444.273 1734.12 L461.175 1734.12 L461.175 1733.96 L444.273 1733.96 L444.273 1733.96  Z" fill="#4682b4" fill-rule="evenodd" fill-opacity="0.7"/>
<polyline clip-path="url(#clip151)" style="stroke:#000000; stroke-linecap:round; stroke-linejoin:round; stroke-width:4; stroke-opacity:0.7; fill:none" points="444.273,1733.96 444.273,1734.12 461.175,1734.12 461.175,1733.96 444.273,1733.96 "/>
<path clip-path="url(#clip151)" d="M465.4 1733.96 L465.4 1734.12 L482.301 1734.12 L482.301 1733.96 L465.4 1733.96 L465.4 1733.96  Z" fill="#4682b4" fill-rule="evenodd" fill-opacity="0.7"/>
<polyline clip-path="url(#clip151)" style="stroke:#000000; stroke-linecap:round; stroke-linejoin:round; stroke-width:4; stroke-opacity:0.7; fill:none" points="465.4,1733.96 465.4,1734.12 482.301,1734.12 482.301,1733.96 465.4,1733.96 "/>
<path clip-path="url(#clip151)" d="M486.527 1733.96 L486.527 1734.12 L503.428 1734.12 L503.428 1733.96 L486.527 1733.96 L486.527 1733.96  Z" fill="#4682b4" fill-rule="evenodd" fill-opacity="0.7"/>
<polyline clip-path="url(#clip151)" style="stroke:#000000; stroke-linecap:round; stroke-linejoin:round; stroke-width:4; stroke-opacity:0.7; fill:none" points="486.527,1733.96 486.527,1734.12 503.428,1734.12 503.428,1733.96 486.527,1733.96 "/>
<path clip-path="url(#clip151)" d="M507.653 1733.96 L507.653 1734.12 L524.555 1734.12 L524.555 1733.96 L507.653 1733.96 L507.653 1733.96  Z" fill="#4682b4" fill-rule="evenodd" fill-opacity="0.7"/>
<polyline clip-path="url(#clip151)" style="stroke:#000000; stroke-linecap:round; stroke-linejoin:round; stroke-width:4; stroke-opacity:0.7; fill:none" points="507.653,1733.96 507.653,1734.12 524.555,1734.12 524.555,1733.96 507.653,1733.96 "/>
<path clip-path="url(#clip151)" d="M528.78 1733.96 L528.78 1734.12 L545.681 1734.12 L545.681 1733.96 L528.78 1733.96 L528.78 1733.96  Z" fill="#4682b4" fill-rule="evenodd" fill-opacity="0.7"/>
<polyline clip-path="url(#clip151)" style="stroke:#000000; stroke-linecap:round; stroke-linejoin:round; stroke-width:4; stroke-opacity:0.7; fill:none" points="528.78,1733.96 528.78,1734.12 545.681,1734.12 545.681,1733.96 528.78,1733.96 "/>
<path clip-path="url(#clip151)" d="M549.906 1733.96 L549.906 1734.12 L566.808 1734.12 L566.808 1733.96 L549.906 1733.96 L549.906 1733.96  Z" fill="#4682b4" fill-rule="evenodd" fill-opacity="0.7"/>
<polyline clip-path="url(#clip151)" style="stroke:#000000; stroke-linecap:round; stroke-linejoin:round; stroke-width:4; stroke-opacity:0.7; fill:none" points="549.906,1733.96 549.906,1734.12 566.808,1734.12 566.808,1733.96 549.906,1733.96 "/>
<path clip-path="url(#clip151)" d="M571.033 1733.96 L571.033 1734.12 L587.934 1734.12 L587.934 1733.96 L571.033 1733.96 L571.033 1733.96  Z" fill="#4682b4" fill-rule="evenodd" fill-opacity="0.7"/>
<polyline clip-path="url(#clip151)" style="stroke:#000000; stroke-linecap:round; stroke-linejoin:round; stroke-width:4; stroke-opacity:0.7; fill:none" points="571.033,1733.96 571.033,1734.12 587.934,1734.12 587.934,1733.96 571.033,1733.96 "/>
<path clip-path="url(#clip151)" d="M592.16 1733.96 L592.16 1734.12 L609.061 1734.12 L609.061 1733.96 L592.16 1733.96 L592.16 1733.96  Z" fill="#4682b4" fill-rule="evenodd" fill-opacity="0.7"/>
<polyline clip-path="url(#clip151)" style="stroke:#000000; stroke-linecap:round; stroke-linejoin:round; stroke-width:4; stroke-opacity:0.7; fill:none" points="592.16,1733.96 592.16,1734.12 609.061,1734.12 609.061,1733.96 592.16,1733.96 "/>
<path clip-path="url(#clip151)" d="M613.286 1733.96 L613.286 1734.12 L630.188 1734.12 L630.188 1733.96 L613.286 1733.96 L613.286 1733.96  Z" fill="#4682b4" fill-rule="evenodd" fill-opacity="0.7"/>
<polyline clip-path="url(#clip151)" style="stroke:#000000; stroke-linecap:round; stroke-linejoin:round; stroke-width:4; stroke-opacity:0.7; fill:none" points="613.286,1733.96 613.286,1734.12 630.188,1734.12 630.188,1733.96 613.286,1733.96 "/>
<path clip-path="url(#clip151)" d="M634.413 1733.47 L634.413 1734.12 L651.314 1734.12 L651.314 1733.47 L634.413 1733.47 L634.413 1733.47  Z" fill="#4682b4" fill-rule="evenodd" fill-opacity="0.7"/>
<polyline clip-path="url(#clip151)" style="stroke:#000000; stroke-linecap:round; stroke-linejoin:round; stroke-width:4; stroke-opacity:0.7; fill:none" points="634.413,1733.47 634.413,1734.12 651.314,1734.12 651.314,1733.47 634.413,1733.47 "/>
<path clip-path="url(#clip151)" d="M655.539 1733.31 L655.539 1734.12 L672.441 1734.12 L672.441 1733.31 L655.539 1733.31 L655.539 1733.31  Z" fill="#4682b4" fill-rule="evenodd" fill-opacity="0.7"/>
<polyline clip-path="url(#clip151)" style="stroke:#000000; stroke-linecap:round; stroke-linejoin:round; stroke-width:4; stroke-opacity:0.7; fill:none" points="655.539,1733.31 655.539,1734.12 672.441,1734.12 672.441,1733.31 655.539,1733.31 "/>
<path clip-path="url(#clip151)" d="M676.666 1733.15 L676.666 1734.12 L693.567 1734.12 L693.567 1733.15 L676.666 1733.15 L676.666 1733.15  Z" fill="#4682b4" fill-rule="evenodd" fill-opacity="0.7"/>
<polyline clip-path="url(#clip151)" style="stroke:#000000; stroke-linecap:round; stroke-linejoin:round; stroke-width:4; stroke-opacity:0.7; fill:none" points="676.666,1733.15 676.666,1734.12 693.567,1734.12 693.567,1733.15 676.666,1733.15 "/>
<path clip-path="url(#clip151)" d="M697.793 1732.83 L697.793 1734.12 L714.694 1734.12 L714.694 1732.83 L697.793 1732.83 L697.793 1732.83  Z" fill="#4682b4" fill-rule="evenodd" fill-opacity="0.7"/>
<polyline clip-path="url(#clip151)" style="stroke:#000000; stroke-linecap:round; stroke-linejoin:round; stroke-width:4; stroke-opacity:0.7; fill:none" points="697.793,1732.83 697.793,1734.12 714.694,1734.12 714.694,1732.83 697.793,1732.83 "/>
<path clip-path="url(#clip151)" d="M718.919 1732.83 L718.919 1734.12 L735.82 1734.12 L735.82 1732.83 L718.919 1732.83 L718.919 1732.83  Z" fill="#4682b4" fill-rule="evenodd" fill-opacity="0.7"/>
<polyline clip-path="url(#clip151)" style="stroke:#000000; stroke-linecap:round; stroke-linejoin:round; stroke-width:4; stroke-opacity:0.7; fill:none" points="718.919,1732.83 718.919,1734.12 735.82,1734.12 735.82,1732.83 718.919,1732.83 "/>
<path clip-path="url(#clip151)" d="M740.046 1732.51 L740.046 1734.12 L756.947 1734.12 L756.947 1732.51 L740.046 1732.51 L740.046 1732.51  Z" fill="#4682b4" fill-rule="evenodd" fill-opacity="0.7"/>
<polyline clip-path="url(#clip151)" style="stroke:#000000; stroke-linecap:round; stroke-linejoin:round; stroke-width:4; stroke-opacity:0.7; fill:none" points="740.046,1732.51 740.046,1734.12 756.947,1734.12 756.947,1732.51 740.046,1732.51 "/>
<path clip-path="url(#clip151)" d="M761.172 1732.19 L761.172 1734.12 L778.074 1734.12 L778.074 1732.19 L761.172 1732.19 L761.172 1732.19  Z" fill="#4682b4" fill-rule="evenodd" fill-opacity="0.7"/>
<polyline clip-path="url(#clip151)" style="stroke:#000000; stroke-linecap:round; stroke-linejoin:round; stroke-width:4; stroke-opacity:0.7; fill:none" points="761.172,1732.19 761.172,1734.12 778.074,1734.12 778.074,1732.19 761.172,1732.19 "/>
<path clip-path="url(#clip151)" d="M782.299 1731.87 L782.299 1734.12 L799.2 1734.12 L799.2 1731.87 L782.299 1731.87 L782.299 1731.87  Z" fill="#4682b4" fill-rule="evenodd" fill-opacity="0.7"/>
<polyline clip-path="url(#clip151)" style="stroke:#000000; stroke-linecap:round; stroke-linejoin:round; stroke-width:4; stroke-opacity:0.7; fill:none" points="782.299,1731.87 782.299,1734.12 799.2,1734.12 799.2,1731.87 782.299,1731.87 "/>
<path clip-path="url(#clip151)" d="M803.426 1731.71 L803.426 1734.12 L820.327 1734.12 L820.327 1731.71 L803.426 1731.71 L803.426 1731.71  Z" fill="#4682b4" fill-rule="evenodd" fill-opacity="0.7"/>
<polyline clip-path="url(#clip151)" style="stroke:#000000; stroke-linecap:round; stroke-linejoin:round; stroke-width:4; stroke-opacity:0.7; fill:none" points="803.426,1731.71 803.426,1734.12 820.327,1734.12 820.327,1731.71 803.426,1731.71 "/>
<path clip-path="url(#clip151)" d="M824.552 1731.06 L824.552 1734.12 L841.453 1734.12 L841.453 1731.06 L824.552 1731.06 L824.552 1731.06  Z" fill="#4682b4" fill-rule="evenodd" fill-opacity="0.7"/>
<polyline clip-path="url(#clip151)" style="stroke:#000000; stroke-linecap:round; stroke-linejoin:round; stroke-width:4; stroke-opacity:0.7; fill:none" points="824.552,1731.06 824.552,1734.12 841.453,1734.12 841.453,1731.06 824.552,1731.06 "/>
<path clip-path="url(#clip151)" d="M845.679 1730.58 L845.679 1734.12 L862.58 1734.12 L862.58 1730.58 L845.679 1730.58 L845.679 1730.58  Z" fill="#4682b4" fill-rule="evenodd" fill-opacity="0.7"/>
<polyline clip-path="url(#clip151)" style="stroke:#000000; stroke-linecap:round; stroke-linejoin:round; stroke-width:4; stroke-opacity:0.7; fill:none" points="845.679,1730.58 845.679,1734.12 862.58,1734.12 862.58,1730.58 845.679,1730.58 "/>
<path clip-path="url(#clip151)" d="M866.805 1729.3 L866.805 1734.12 L883.707 1734.12 L883.707 1729.3 L866.805 1729.3 L866.805 1729.3  Z" fill="#4682b4" fill-rule="evenodd" fill-opacity="0.7"/>
<polyline clip-path="url(#clip151)" style="stroke:#000000; stroke-linecap:round; stroke-linejoin:round; stroke-width:4; stroke-opacity:0.7; fill:none" points="866.805,1729.3 866.805,1734.12 883.707,1734.12 883.707,1729.3 866.805,1729.3 "/>
<path clip-path="url(#clip151)" d="M887.932 1728.17 L887.932 1734.12 L904.833 1734.12 L904.833 1728.17 L887.932 1728.17 L887.932 1728.17  Z" fill="#4682b4" fill-rule="evenodd" fill-opacity="0.7"/>
<polyline clip-path="url(#clip151)" style="stroke:#000000; stroke-linecap:round; stroke-linejoin:round; stroke-width:4; stroke-opacity:0.7; fill:none" points="887.932,1728.17 887.932,1734.12 904.833,1734.12 904.833,1728.17 887.932,1728.17 "/>
<path clip-path="url(#clip151)" d="M909.059 1727.37 L909.059 1734.12 L925.96 1734.12 L925.96 1727.37 L909.059 1727.37 L909.059 1727.37  Z" fill="#4682b4" fill-rule="evenodd" fill-opacity="0.7"/>
<polyline clip-path="url(#clip151)" style="stroke:#000000; stroke-linecap:round; stroke-linejoin:round; stroke-width:4; stroke-opacity:0.7; fill:none" points="909.059,1727.37 909.059,1734.12 925.96,1734.12 925.96,1727.37 909.059,1727.37 "/>
<path clip-path="url(#clip151)" d="M930.185 1726.73 L930.185 1734.12 L947.086 1734.12 L947.086 1726.73 L930.185 1726.73 L930.185 1726.73  Z" fill="#4682b4" fill-rule="evenodd" fill-opacity="0.7"/>
<polyline clip-path="url(#clip151)" style="stroke:#000000; stroke-linecap:round; stroke-linejoin:round; stroke-width:4; stroke-opacity:0.7; fill:none" points="930.185,1726.73 930.185,1734.12 947.086,1734.12 947.086,1726.73 930.185,1726.73 "/>
<path clip-path="url(#clip151)" d="M951.312 1725.28 L951.312 1734.12 L968.213 1734.12 L968.213 1725.28 L951.312 1725.28 L951.312 1725.28  Z" fill="#4682b4" fill-rule="evenodd" fill-opacity="0.7"/>
<polyline clip-path="url(#clip151)" style="stroke:#000000; stroke-linecap:round; stroke-linejoin:round; stroke-width:4; stroke-opacity:0.7; fill:none" points="951.312,1725.28 951.312,1734.12 968.213,1734.12 968.213,1725.28 951.312,1725.28 "/>
<path clip-path="url(#clip151)" d="M972.438 1723.84 L972.438 1734.12 L989.34 1734.12 L989.34 1723.84 L972.438 1723.84 L972.438 1723.84  Z" fill="#4682b4" fill-rule="evenodd" fill-opacity="0.7"/>
<polyline clip-path="url(#clip151)" style="stroke:#000000; stroke-linecap:round; stroke-linejoin:round; stroke-width:4; stroke-opacity:0.7; fill:none" points="972.438,1723.84 972.438,1734.12 989.34,1734.12 989.34,1723.84 972.438,1723.84 "/>
<path clip-path="url(#clip151)" d="M993.565 1722.23 L993.565 1734.12 L1010.47 1734.12 L1010.47 1722.23 L993.565 1722.23 L993.565 1722.23  Z" fill="#4682b4" fill-rule="evenodd" fill-opacity="0.7"/>
<polyline clip-path="url(#clip151)" style="stroke:#000000; stroke-linecap:round; stroke-linejoin:round; stroke-width:4; stroke-opacity:0.7; fill:none" points="993.565,1722.23 993.565,1734.12 1010.47,1734.12 1010.47,1722.23 993.565,1722.23 "/>
<path clip-path="url(#clip151)" d="M1014.69 1720.46 L1014.69 1734.12 L1031.59 1734.12 L1031.59 1720.46 L1014.69 1720.46 L1014.69 1720.46  Z" fill="#4682b4" fill-rule="evenodd" fill-opacity="0.7"/>
<polyline clip-path="url(#clip151)" style="stroke:#000000; stroke-linecap:round; stroke-linejoin:round; stroke-width:4; stroke-opacity:0.7; fill:none" points="1014.69,1720.46 1014.69,1734.12 1031.59,1734.12 1031.59,1720.46 1014.69,1720.46 "/>
<path clip-path="url(#clip151)" d="M1035.82 1717.09 L1035.82 1734.12 L1052.72 1734.12 L1052.72 1717.09 L1035.82 1717.09 L1035.82 1717.09  Z" fill="#4682b4" fill-rule="evenodd" fill-opacity="0.7"/>
<polyline clip-path="url(#clip151)" style="stroke:#000000; stroke-linecap:round; stroke-linejoin:round; stroke-width:4; stroke-opacity:0.7; fill:none" points="1035.82,1717.09 1035.82,1734.12 1052.72,1734.12 1052.72,1717.09 1035.82,1717.09 "/>
<path clip-path="url(#clip151)" d="M1056.94 1713.55 L1056.94 1734.12 L1073.85 1734.12 L1073.85 1713.55 L1056.94 1713.55 L1056.94 1713.55  Z" fill="#4682b4" fill-rule="evenodd" fill-opacity="0.7"/>
<polyline clip-path="url(#clip151)" style="stroke:#000000; stroke-linecap:round; stroke-linejoin:round; stroke-width:4; stroke-opacity:0.7; fill:none" points="1056.94,1713.55 1056.94,1734.12 1073.85,1734.12 1073.85,1713.55 1056.94,1713.55 "/>
<path clip-path="url(#clip151)" d="M1078.07 1708.57 L1078.07 1734.12 L1094.97 1734.12 L1094.97 1708.57 L1078.07 1708.57 L1078.07 1708.57  Z" fill="#4682b4" fill-rule="evenodd" fill-opacity="0.7"/>
<polyline clip-path="url(#clip151)" style="stroke:#000000; stroke-linecap:round; stroke-linejoin:round; stroke-width:4; stroke-opacity:0.7; fill:none" points="1078.07,1708.57 1078.07,1734.12 1094.97,1734.12 1094.97,1708.57 1078.07,1708.57 "/>
<path clip-path="url(#clip151)" d="M1099.2 1702.47 L1099.2 1734.12 L1116.1 1734.12 L1116.1 1702.47 L1099.2 1702.47 L1099.2 1702.47  Z" fill="#4682b4" fill-rule="evenodd" fill-opacity="0.7"/>
<polyline clip-path="url(#clip151)" style="stroke:#000000; stroke-linecap:round; stroke-linejoin:round; stroke-width:4; stroke-opacity:0.7; fill:none" points="1099.2,1702.47 1099.2,1734.12 1116.1,1734.12 1116.1,1702.47 1099.2,1702.47 "/>
<path clip-path="url(#clip151)" d="M1120.32 1695.88 L1120.32 1734.12 L1137.23 1734.12 L1137.23 1695.88 L1120.32 1695.88 L1120.32 1695.88  Z" fill="#4682b4" fill-rule="evenodd" fill-opacity="0.7"/>
<polyline clip-path="url(#clip151)" style="stroke:#000000; stroke-linecap:round; stroke-linejoin:round; stroke-width:4; stroke-opacity:0.7; fill:none" points="1120.32,1695.88 1120.32,1734.12 1137.23,1734.12 1137.23,1695.88 1120.32,1695.88 "/>
<path clip-path="url(#clip151)" d="M1141.45 1687.85 L1141.45 1734.12 L1158.35 1734.12 L1158.35 1687.85 L1141.45 1687.85 L1141.45 1687.85  Z" fill="#4682b4" fill-rule="evenodd" fill-opacity="0.7"/>
<polyline clip-path="url(#clip151)" style="stroke:#000000; stroke-linecap:round; stroke-linejoin:round; stroke-width:4; stroke-opacity:0.7; fill:none" points="1141.45,1687.85 1141.45,1734.12 1158.35,1734.12 1158.35,1687.85 1141.45,1687.85 "/>
<path clip-path="url(#clip151)" d="M1162.58 1679.18 L1162.58 1734.12 L1179.48 1734.12 L1179.48 1679.18 L1162.58 1679.18 L1162.58 1679.18  Z" fill="#4682b4" fill-rule="evenodd" fill-opacity="0.7"/>
<polyline clip-path="url(#clip151)" style="stroke:#000000; stroke-linecap:round; stroke-linejoin:round; stroke-width:4; stroke-opacity:0.7; fill:none" points="1162.58,1679.18 1162.58,1734.12 1179.48,1734.12 1179.48,1679.18 1162.58,1679.18 "/>
<path clip-path="url(#clip151)" d="M1183.7 1668.09 L1183.7 1734.12 L1200.61 1734.12 L1200.61 1668.09 L1183.7 1668.09 L1183.7 1668.09  Z" fill="#4682b4" fill-rule="evenodd" fill-opacity="0.7"/>
<polyline clip-path="url(#clip151)" style="stroke:#000000; stroke-linecap:round; stroke-linejoin:round; stroke-width:4; stroke-opacity:0.7; fill:none" points="1183.7,1668.09 1183.7,1734.12 1200.61,1734.12 1200.61,1668.09 1183.7,1668.09 "/>
<path clip-path="url(#clip151)" d="M1204.83 1655.88 L1204.83 1734.12 L1221.73 1734.12 L1221.73 1655.88 L1204.83 1655.88 L1204.83 1655.88  Z" fill="#4682b4" fill-rule="evenodd" fill-opacity="0.7"/>
<polyline clip-path="url(#clip151)" style="stroke:#000000; stroke-linecap:round; stroke-linejoin:round; stroke-width:4; stroke-opacity:0.7; fill:none" points="1204.83,1655.88 1204.83,1734.12 1221.73,1734.12 1221.73,1655.88 1204.83,1655.88 "/>
<path clip-path="url(#clip151)" d="M1225.96 1642.71 L1225.96 1734.12 L1242.86 1734.12 L1242.86 1642.71 L1225.96 1642.71 L1225.96 1642.71  Z" fill="#4682b4" fill-rule="evenodd" fill-opacity="0.7"/>
<polyline clip-path="url(#clip151)" style="stroke:#000000; stroke-linecap:round; stroke-linejoin:round; stroke-width:4; stroke-opacity:0.7; fill:none" points="1225.96,1642.71 1225.96,1734.12 1242.86,1734.12 1242.86,1642.71 1225.96,1642.71 "/>
<path clip-path="url(#clip151)" d="M1247.08 1624.07 L1247.08 1734.12 L1263.99 1734.12 L1263.99 1624.07 L1247.08 1624.07 L1247.08 1624.07  Z" fill="#4682b4" fill-rule="evenodd" fill-opacity="0.7"/>
<polyline clip-path="url(#clip151)" style="stroke:#000000; stroke-linecap:round; stroke-linejoin:round; stroke-width:4; stroke-opacity:0.7; fill:none" points="1247.08,1624.07 1247.08,1734.12 1263.99,1734.12 1263.99,1624.07 1247.08,1624.07 "/>
<path clip-path="url(#clip151)" d="M1268.21 1604.47 L1268.21 1734.12 L1285.11 1734.12 L1285.11 1604.47 L1268.21 1604.47 L1268.21 1604.47  Z" fill="#4682b4" fill-rule="evenodd" fill-opacity="0.7"/>
<polyline clip-path="url(#clip151)" style="stroke:#000000; stroke-linecap:round; stroke-linejoin:round; stroke-width:4; stroke-opacity:0.7; fill:none" points="1268.21,1604.47 1268.21,1734.12 1285.11,1734.12 1285.11,1604.47 1268.21,1604.47 "/>
<path clip-path="url(#clip151)" d="M1289.34 1582.79 L1289.34 1734.12 L1306.24 1734.12 L1306.24 1582.79 L1289.34 1582.79 L1289.34 1582.79  Z" fill="#4682b4" fill-rule="evenodd" fill-opacity="0.7"/>
<polyline clip-path="url(#clip151)" style="stroke:#000000; stroke-linecap:round; stroke-linejoin:round; stroke-width:4; stroke-opacity:0.7; fill:none" points="1289.34,1582.79 1289.34,1734.12 1306.24,1734.12 1306.24,1582.79 1289.34,1582.79 "/>
<path clip-path="url(#clip151)" d="M1310.46 1556.28 L1310.46 1734.12 L1327.37 1734.12 L1327.37 1556.28 L1310.46 1556.28 L1310.46 1556.28  Z" fill="#4682b4" fill-rule="evenodd" fill-opacity="0.7"/>
<polyline clip-path="url(#clip151)" style="stroke:#000000; stroke-linecap:round; stroke-linejoin:round; stroke-width:4; stroke-opacity:0.7; fill:none" points="1310.46,1556.28 1310.46,1734.12 1327.37,1734.12 1327.37,1556.28 1310.46,1556.28 "/>
<path clip-path="url(#clip151)" d="M1331.59 1522.06 L1331.59 1734.12 L1348.49 1734.12 L1348.49 1522.06 L1331.59 1522.06 L1331.59 1522.06  Z" fill="#4682b4" fill-rule="evenodd" fill-opacity="0.7"/>
<polyline clip-path="url(#clip151)" style="stroke:#000000; stroke-linecap:round; stroke-linejoin:round; stroke-width:4; stroke-opacity:0.7; fill:none" points="1331.59,1522.06 1331.59,1734.12 1348.49,1734.12 1348.49,1522.06 1331.59,1522.06 "/>
<path clip-path="url(#clip151)" d="M1352.72 1485.27 L1352.72 1734.12 L1369.62 1734.12 L1369.62 1485.27 L1352.72 1485.27 L1352.72 1485.27  Z" fill="#4682b4" fill-rule="evenodd" fill-opacity="0.7"/>
<polyline clip-path="url(#clip151)" style="stroke:#000000; stroke-linecap:round; stroke-linejoin:round; stroke-width:4; stroke-opacity:0.7; fill:none" points="1352.72,1485.27 1352.72,1734.12 1369.62,1734.12 1369.62,1485.27 1352.72,1485.27 "/>
<path clip-path="url(#clip151)" d="M1373.84 1444.31 L1373.84 1734.12 L1390.75 1734.12 L1390.75 1444.31 L1373.84 1444.31 L1373.84 1444.31  Z" fill="#4682b4" fill-rule="evenodd" fill-opacity="0.7"/>
<polyline clip-path="url(#clip151)" style="stroke:#000000; stroke-linecap:round; stroke-linejoin:round; stroke-width:4; stroke-opacity:0.7; fill:none" points="1373.84,1444.31 1373.84,1734.12 1390.75,1734.12 1390.75,1444.31 1373.84,1444.31 "/>
<path clip-path="url(#clip151)" d="M1394.97 1394.83 L1394.97 1734.12 L1411.87 1734.12 L1411.87 1394.83 L1394.97 1394.83 L1394.97 1394.83  Z" fill="#4682b4" fill-rule="evenodd" fill-opacity="0.7"/>
<polyline clip-path="url(#clip151)" style="stroke:#000000; stroke-linecap:round; stroke-linejoin:round; stroke-width:4; stroke-opacity:0.7; fill:none" points="1394.97,1394.83 1394.97,1734.12 1411.87,1734.12 1411.87,1394.83 1394.97,1394.83 "/>
<path clip-path="url(#clip151)" d="M1416.1 1340.69 L1416.1 1734.12 L1433 1734.12 L1433 1340.69 L1416.1 1340.69 L1416.1 1340.69  Z" fill="#4682b4" fill-rule="evenodd" fill-opacity="0.7"/>
<polyline clip-path="url(#clip151)" style="stroke:#000000; stroke-linecap:round; stroke-linejoin:round; stroke-width:4; stroke-opacity:0.7; fill:none" points="1416.1,1340.69 1416.1,1734.12 1433,1734.12 1433,1340.69 1416.1,1340.69 "/>
<path clip-path="url(#clip151)" d="M1437.22 1287.35 L1437.22 1734.12 L1454.12 1734.12 L1454.12 1287.35 L1437.22 1287.35 L1437.22 1287.35  Z" fill="#4682b4" fill-rule="evenodd" fill-opacity="0.7"/>
<polyline clip-path="url(#clip151)" style="stroke:#000000; stroke-linecap:round; stroke-linejoin:round; stroke-width:4; stroke-opacity:0.7; fill:none" points="1437.22,1287.35 1437.22,1734.12 1454.12,1734.12 1454.12,1287.35 1437.22,1287.35 "/>
<path clip-path="url(#clip151)" d="M1458.35 1219.72 L1458.35 1734.12 L1475.25 1734.12 L1475.25 1219.72 L1458.35 1219.72 L1458.35 1219.72  Z" fill="#4682b4" fill-rule="evenodd" fill-opacity="0.7"/>
<polyline clip-path="url(#clip151)" style="stroke:#000000; stroke-linecap:round; stroke-linejoin:round; stroke-width:4; stroke-opacity:0.7; fill:none" points="1458.35,1219.72 1458.35,1734.12 1475.25,1734.12 1475.25,1219.72 1458.35,1219.72 "/>
<path clip-path="url(#clip151)" d="M1479.48 1151.77 L1479.48 1734.12 L1496.38 1734.12 L1496.38 1151.77 L1479.48 1151.77 L1479.48 1151.77  Z" fill="#4682b4" fill-rule="evenodd" fill-opacity="0.7"/>
<polyline clip-path="url(#clip151)" style="stroke:#000000; stroke-linecap:round; stroke-linejoin:round; stroke-width:4; stroke-opacity:0.7; fill:none" points="1479.48,1151.77 1479.48,1734.12 1496.38,1734.12 1496.38,1151.77 1479.48,1151.77 "/>
<path clip-path="url(#clip151)" d="M1500.6 1084.13 L1500.6 1734.12 L1517.5 1734.12 L1517.5 1084.13 L1500.6 1084.13 L1500.6 1084.13  Z" fill="#4682b4" fill-rule="evenodd" fill-opacity="0.7"/>
<polyline clip-path="url(#clip151)" style="stroke:#000000; stroke-linecap:round; stroke-linejoin:round; stroke-width:4; stroke-opacity:0.7; fill:none" points="1500.6,1084.13 1500.6,1734.12 1517.5,1734.12 1517.5,1084.13 1500.6,1084.13 "/>
<path clip-path="url(#clip151)" d="M1521.73 1013.13 L1521.73 1734.12 L1538.63 1734.12 L1538.63 1013.13 L1521.73 1013.13 L1521.73 1013.13  Z" fill="#4682b4" fill-rule="evenodd" fill-opacity="0.7"/>
<polyline clip-path="url(#clip151)" style="stroke:#000000; stroke-linecap:round; stroke-linejoin:round; stroke-width:4; stroke-opacity:0.7; fill:none" points="1521.73,1013.13 1521.73,1734.12 1538.63,1734.12 1538.63,1013.13 1521.73,1013.13 "/>
<path clip-path="url(#clip151)" d="M1542.86 941.959 L1542.86 1734.12 L1559.76 1734.12 L1559.76 941.959 L1542.86 941.959 L1542.86 941.959  Z" fill="#4682b4" fill-rule="evenodd" fill-opacity="0.7"/>
<polyline clip-path="url(#clip151)" style="stroke:#000000; stroke-linecap:round; stroke-linejoin:round; stroke-width:4; stroke-opacity:0.7; fill:none" points="1542.86,941.959 1542.86,1734.12 1559.76,1734.12 1559.76,941.959 1542.86,941.959 "/>
<path clip-path="url(#clip151)" d="M1563.98 869.667 L1563.98 1734.12 L1580.88 1734.12 L1580.88 869.667 L1563.98 869.667 L1563.98 869.667  Z" fill="#4682b4" fill-rule="evenodd" fill-opacity="0.7"/>
<polyline clip-path="url(#clip151)" style="stroke:#000000; stroke-linecap:round; stroke-linejoin:round; stroke-width:4; stroke-opacity:0.7; fill:none" points="1563.98,869.667 1563.98,1734.12 1580.88,1734.12 1580.88,869.667 1563.98,869.667 "/>
<path clip-path="url(#clip151)" d="M1585.11 794.002 L1585.11 1734.12 L1602.01 1734.12 L1602.01 794.002 L1585.11 794.002 L1585.11 794.002  Z" fill="#4682b4" fill-rule="evenodd" fill-opacity="0.7"/>
<polyline clip-path="url(#clip151)" style="stroke:#000000; stroke-linecap:round; stroke-linejoin:round; stroke-width:4; stroke-opacity:0.7; fill:none" points="1585.11,794.002 1585.11,1734.12 1602.01,1734.12 1602.01,794.002 1585.11,794.002 "/>
<path clip-path="url(#clip151)" d="M1606.24 719.621 L1606.24 1734.12 L1623.14 1734.12 L1623.14 719.621 L1606.24 719.621 L1606.24 719.621  Z" fill="#4682b4" fill-rule="evenodd" fill-opacity="0.7"/>
<polyline clip-path="url(#clip151)" style="stroke:#000000; stroke-linecap:round; stroke-linejoin:round; stroke-width:4; stroke-opacity:0.7; fill:none" points="1606.24,719.621 1606.24,1734.12 1623.14,1734.12 1623.14,719.621 1606.24,719.621 "/>
<path clip-path="url(#clip151)" d="M1627.36 653.916 L1627.36 1734.12 L1644.26 1734.12 L1644.26 653.916 L1627.36 653.916 L1627.36 653.916  Z" fill="#4682b4" fill-rule="evenodd" fill-opacity="0.7"/>
<polyline clip-path="url(#clip151)" style="stroke:#000000; stroke-linecap:round; stroke-linejoin:round; stroke-width:4; stroke-opacity:0.7; fill:none" points="1627.36,653.916 1627.36,1734.12 1644.26,1734.12 1644.26,653.916 1627.36,653.916 "/>
<path clip-path="url(#clip151)" d="M1648.49 591.906 L1648.49 1734.12 L1665.39 1734.12 L1665.39 591.906 L1648.49 591.906 L1648.49 591.906  Z" fill="#4682b4" fill-rule="evenodd" fill-opacity="0.7"/>
<polyline clip-path="url(#clip151)" style="stroke:#000000; stroke-linecap:round; stroke-linejoin:round; stroke-width:4; stroke-opacity:0.7; fill:none" points="1648.49,591.906 1648.49,1734.12 1665.39,1734.12 1665.39,591.906 1648.49,591.906 "/>
<path clip-path="url(#clip151)" d="M1669.62 526.361 L1669.62 1734.12 L1686.52 1734.12 L1686.52 526.361 L1669.62 526.361 L1669.62 526.361  Z" fill="#4682b4" fill-rule="evenodd" fill-opacity="0.7"/>
<polyline clip-path="url(#clip151)" style="stroke:#000000; stroke-linecap:round; stroke-linejoin:round; stroke-width:4; stroke-opacity:0.7; fill:none" points="1669.62,526.361 1669.62,1734.12 1686.52,1734.12 1686.52,526.361 1669.62,526.361 "/>
<path clip-path="url(#clip151)" d="M1690.74 467.885 L1690.74 1734.12 L1707.64 1734.12 L1707.64 467.885 L1690.74 467.885 L1690.74 467.885  Z" fill="#4682b4" fill-rule="evenodd" fill-opacity="0.7"/>
<polyline clip-path="url(#clip151)" style="stroke:#000000; stroke-linecap:round; stroke-linejoin:round; stroke-width:4; stroke-opacity:0.7; fill:none" points="1690.74,467.885 1690.74,1734.12 1707.64,1734.12 1707.64,467.885 1690.74,467.885 "/>
<path clip-path="url(#clip151)" d="M1711.87 415.353 L1711.87 1734.12 L1728.77 1734.12 L1728.77 415.353 L1711.87 415.353 L1711.87 415.353  Z" fill="#4682b4" fill-rule="evenodd" fill-opacity="0.7"/>
<polyline clip-path="url(#clip151)" style="stroke:#000000; stroke-linecap:round; stroke-linejoin:round; stroke-width:4; stroke-opacity:0.7; fill:none" points="1711.87,415.353 1711.87,1734.12 1728.77,1734.12 1728.77,415.353 1711.87,415.353 "/>
<path clip-path="url(#clip151)" d="M1733 371.657 L1733 1734.12 L1749.9 1734.12 L1749.9 371.657 L1733 371.657 L1733 371.657  Z" fill="#4682b4" fill-rule="evenodd" fill-opacity="0.7"/>
<polyline clip-path="url(#clip151)" style="stroke:#000000; stroke-linecap:round; stroke-linejoin:round; stroke-width:4; stroke-opacity:0.7; fill:none" points="1733,371.657 1733,1734.12 1749.9,1734.12 1749.9,371.657 1733,371.657 "/>
<path clip-path="url(#clip151)" d="M1754.12 333.262 L1754.12 1734.12 L1771.02 1734.12 L1771.02 333.262 L1754.12 333.262 L1754.12 333.262  Z" fill="#4682b4" fill-rule="evenodd" fill-opacity="0.7"/>
<polyline clip-path="url(#clip151)" style="stroke:#000000; stroke-linecap:round; stroke-linejoin:round; stroke-width:4; stroke-opacity:0.7; fill:none" points="1754.12,333.262 1754.12,1734.12 1771.02,1734.12 1771.02,333.262 1754.12,333.262 "/>
<path clip-path="url(#clip151)" d="M1775.25 299.365 L1775.25 1734.12 L1792.15 1734.12 L1792.15 299.365 L1775.25 299.365 L1775.25 299.365  Z" fill="#4682b4" fill-rule="evenodd" fill-opacity="0.7"/>
<polyline clip-path="url(#clip151)" style="stroke:#000000; stroke-linecap:round; stroke-linejoin:round; stroke-width:4; stroke-opacity:0.7; fill:none" points="1775.25,299.365 1775.25,1734.12 1792.15,1734.12 1792.15,299.365 1775.25,299.365 "/>
<path clip-path="url(#clip151)" d="M1796.38 272.536 L1796.38 1734.12 L1813.28 1734.12 L1813.28 272.536 L1796.38 272.536 L1796.38 272.536  Z" fill="#4682b4" fill-rule="evenodd" fill-opacity="0.7"/>
<polyline clip-path="url(#clip151)" style="stroke:#000000; stroke-linecap:round; stroke-linejoin:round; stroke-width:4; stroke-opacity:0.7; fill:none" points="1796.38,272.536 1796.38,1734.12 1813.28,1734.12 1813.28,272.536 1796.38,272.536 "/>
<path clip-path="url(#clip151)" d="M1817.5 245.226 L1817.5 1734.12 L1834.4 1734.12 L1834.4 245.226 L1817.5 245.226 L1817.5 245.226  Z" fill="#4682b4" fill-rule="evenodd" fill-opacity="0.7"/>
<polyline clip-path="url(#clip151)" style="stroke:#000000; stroke-linecap:round; stroke-linejoin:round; stroke-width:4; stroke-opacity:0.7; fill:none" points="1817.5,245.226 1817.5,1734.12 1834.4,1734.12 1834.4,245.226 1817.5,245.226 "/>
<path clip-path="url(#clip151)" d="M1838.63 224.663 L1838.63 1734.12 L1855.53 1734.12 L1855.53 224.663 L1838.63 224.663 L1838.63 224.663  Z" fill="#4682b4" fill-rule="evenodd" fill-opacity="0.7"/>
<polyline clip-path="url(#clip151)" style="stroke:#000000; stroke-linecap:round; stroke-linejoin:round; stroke-width:4; stroke-opacity:0.7; fill:none" points="1838.63,224.663 1838.63,1734.12 1855.53,1734.12 1855.53,224.663 1838.63,224.663 "/>
<path clip-path="url(#clip151)" d="M1859.76 206.189 L1859.76 1734.12 L1876.66 1734.12 L1876.66 206.189 L1859.76 206.189 L1859.76 206.189  Z" fill="#4682b4" fill-rule="evenodd" fill-opacity="0.7"/>
<polyline clip-path="url(#clip151)" style="stroke:#000000; stroke-linecap:round; stroke-linejoin:round; stroke-width:4; stroke-opacity:0.7; fill:none" points="1859.76,206.189 1859.76,1734.12 1876.66,1734.12 1876.66,206.189 1859.76,206.189 "/>
<path clip-path="url(#clip151)" d="M1880.88 191.248 L1880.88 1734.12 L1897.78 1734.12 L1897.78 191.248 L1880.88 191.248 L1880.88 191.248  Z" fill="#4682b4" fill-rule="evenodd" fill-opacity="0.7"/>
<polyline clip-path="url(#clip151)" style="stroke:#000000; stroke-linecap:round; stroke-linejoin:round; stroke-width:4; stroke-opacity:0.7; fill:none" points="1880.88,191.248 1880.88,1734.12 1897.78,1734.12 1897.78,191.248 1880.88,191.248 "/>
<path clip-path="url(#clip151)" d="M1902.01 177.111 L1902.01 1734.12 L1918.91 1734.12 L1918.91 177.111 L1902.01 177.111 L1902.01 177.111  Z" fill="#4682b4" fill-rule="evenodd" fill-opacity="0.7"/>
<polyline clip-path="url(#clip151)" style="stroke:#000000; stroke-linecap:round; stroke-linejoin:round; stroke-width:4; stroke-opacity:0.7; fill:none" points="1902.01,177.111 1902.01,1734.12 1918.91,1734.12 1918.91,177.111 1902.01,177.111 "/>
<path clip-path="url(#clip151)" d="M1923.14 165.705 L1923.14 1734.12 L1940.04 1734.12 L1940.04 165.705 L1923.14 165.705 L1923.14 165.705  Z" fill="#4682b4" fill-rule="evenodd" fill-opacity="0.7"/>
<polyline clip-path="url(#clip151)" style="stroke:#000000; stroke-linecap:round; stroke-linejoin:round; stroke-width:4; stroke-opacity:0.7; fill:none" points="1923.14,165.705 1923.14,1734.12 1940.04,1734.12 1940.04,165.705 1923.14,165.705 "/>
<path clip-path="url(#clip151)" d="M1944.26 155.745 L1944.26 1734.12 L1961.16 1734.12 L1961.16 155.745 L1944.26 155.745 L1944.26 155.745  Z" fill="#4682b4" fill-rule="evenodd" fill-opacity="0.7"/>
<polyline clip-path="url(#clip151)" style="stroke:#000000; stroke-linecap:round; stroke-linejoin:round; stroke-width:4; stroke-opacity:0.7; fill:none" points="1944.26,155.745 1944.26,1734.12 1961.16,1734.12 1961.16,155.745 1944.26,155.745 "/>
<path clip-path="url(#clip151)" d="M1965.39 150.444 L1965.39 1734.12 L1982.29 1734.12 L1982.29 150.444 L1965.39 150.444 L1965.39 150.444  Z" fill="#4682b4" fill-rule="evenodd" fill-opacity="0.7"/>
<polyline clip-path="url(#clip151)" style="stroke:#000000; stroke-linecap:round; stroke-linejoin:round; stroke-width:4; stroke-opacity:0.7; fill:none" points="1965.39,150.444 1965.39,1734.12 1982.29,1734.12 1982.29,150.444 1965.39,150.444 "/>
<path clip-path="url(#clip151)" d="M1986.52 145.463 L1986.52 1734.12 L2003.42 1734.12 L2003.42 145.463 L1986.52 145.463 L1986.52 145.463  Z" fill="#4682b4" fill-rule="evenodd" fill-opacity="0.7"/>
<polyline clip-path="url(#clip151)" style="stroke:#000000; stroke-linecap:round; stroke-linejoin:round; stroke-width:4; stroke-opacity:0.7; fill:none" points="1986.52,145.463 1986.52,1734.12 2003.42,1734.12 2003.42,145.463 1986.52,145.463 "/>
<path clip-path="url(#clip151)" d="M2007.64 140.162 L2007.64 1734.12 L2024.54 1734.12 L2024.54 140.162 L2007.64 140.162 L2007.64 140.162  Z" fill="#4682b4" fill-rule="evenodd" fill-opacity="0.7"/>
<polyline clip-path="url(#clip151)" style="stroke:#000000; stroke-linecap:round; stroke-linejoin:round; stroke-width:4; stroke-opacity:0.7; fill:none" points="2007.64,140.162 2007.64,1734.12 2024.54,1734.12 2024.54,140.162 2007.64,140.162 "/>
<path clip-path="url(#clip151)" d="M2028.77 137.431 L2028.77 1734.12 L2045.67 1734.12 L2045.67 137.431 L2028.77 137.431 L2028.77 137.431  Z" fill="#4682b4" fill-rule="evenodd" fill-opacity="0.7"/>
<polyline clip-path="url(#clip151)" style="stroke:#000000; stroke-linecap:round; stroke-linejoin:round; stroke-width:4; stroke-opacity:0.7; fill:none" points="2028.77,137.431 2028.77,1734.12 2045.67,1734.12 2045.67,137.431 2028.77,137.431 "/>
<path clip-path="url(#clip151)" d="M2049.89 135.021 L2049.89 1734.12 L2066.8 1734.12 L2066.8 135.021 L2049.89 135.021 L2049.89 135.021  Z" fill="#4682b4" fill-rule="evenodd" fill-opacity="0.7"/>
<polyline clip-path="url(#clip151)" style="stroke:#000000; stroke-linecap:round; stroke-linejoin:round; stroke-width:4; stroke-opacity:0.7; fill:none" points="2049.89,135.021 2049.89,1734.12 2066.8,1734.12 2066.8,135.021 2049.89,135.021 "/>
<path clip-path="url(#clip151)" d="M2071.02 133.897 L2071.02 1734.12 L2087.92 1734.12 L2087.92 133.897 L2071.02 133.897 L2071.02 133.897  Z" fill="#4682b4" fill-rule="evenodd" fill-opacity="0.7"/>
<polyline clip-path="url(#clip151)" style="stroke:#000000; stroke-linecap:round; stroke-linejoin:round; stroke-width:4; stroke-opacity:0.7; fill:none" points="2071.02,133.897 2071.02,1734.12 2087.92,1734.12 2087.92,133.897 2071.02,133.897 "/>
<path clip-path="url(#clip151)" d="M2092.15 132.13 L2092.15 1734.12 L2109.05 1734.12 L2109.05 132.13 L2092.15 132.13 L2092.15 132.13  Z" fill="#4682b4" fill-rule="evenodd" fill-opacity="0.7"/>
<polyline clip-path="url(#clip151)" style="stroke:#000000; stroke-linecap:round; stroke-linejoin:round; stroke-width:4; stroke-opacity:0.7; fill:none" points="2092.15,132.13 2092.15,1734.12 2109.05,1734.12 2109.05,132.13 2092.15,132.13 "/>
<path clip-path="url(#clip151)" d="M2113.27 130.844 L2113.27 1734.12 L2130.18 1734.12 L2130.18 130.844 L2113.27 130.844 L2113.27 130.844  Z" fill="#4682b4" fill-rule="evenodd" fill-opacity="0.7"/>
<polyline clip-path="url(#clip151)" style="stroke:#000000; stroke-linecap:round; stroke-linejoin:round; stroke-width:4; stroke-opacity:0.7; fill:none" points="2113.27,130.844 2113.27,1734.12 2130.18,1734.12 2130.18,130.844 2113.27,130.844 "/>
<path clip-path="url(#clip151)" d="M2134.4 130.523 L2134.4 1734.12 L2151.3 1734.12 L2151.3 130.523 L2134.4 130.523 L2134.4 130.523  Z" fill="#4682b4" fill-rule="evenodd" fill-opacity="0.7"/>
<polyline clip-path="url(#clip151)" style="stroke:#000000; stroke-linecap:round; stroke-linejoin:round; stroke-width:4; stroke-opacity:0.7; fill:none" points="2134.4,130.523 2134.4,1734.12 2151.3,1734.12 2151.3,130.523 2134.4,130.523 "/>
<path clip-path="url(#clip151)" d="M2155.53 129.399 L2155.53 1734.12 L2172.43 1734.12 L2172.43 129.399 L2155.53 129.399 L2155.53 129.399  Z" fill="#4682b4" fill-rule="evenodd" fill-opacity="0.7"/>
<polyline clip-path="url(#clip151)" style="stroke:#000000; stroke-linecap:round; stroke-linejoin:round; stroke-width:4; stroke-opacity:0.7; fill:none" points="2155.53,129.399 2155.53,1734.12 2172.43,1734.12 2172.43,129.399 2155.53,129.399 "/>
<path clip-path="url(#clip151)" d="M2176.65 128.917 L2176.65 1734.12 L2193.56 1734.12 L2193.56 128.917 L2176.65 128.917 L2176.65 128.917  Z" fill="#4682b4" fill-rule="evenodd" fill-opacity="0.7"/>
<polyline clip-path="url(#clip151)" style="stroke:#000000; stroke-linecap:round; stroke-linejoin:round; stroke-width:4; stroke-opacity:0.7; fill:none" points="2176.65,128.917 2176.65,1734.12 2193.56,1734.12 2193.56,128.917 2176.65,128.917 "/>
<path clip-path="url(#clip151)" d="M2197.78 128.595 L2197.78 1734.12 L2214.68 1734.12 L2214.68 128.595 L2197.78 128.595 L2197.78 128.595  Z" fill="#4682b4" fill-rule="evenodd" fill-opacity="0.7"/>
<polyline clip-path="url(#clip151)" style="stroke:#000000; stroke-linecap:round; stroke-linejoin:round; stroke-width:4; stroke-opacity:0.7; fill:none" points="2197.78,128.595 2197.78,1734.12 2214.68,1734.12 2214.68,128.595 2197.78,128.595 "/>
<path clip-path="url(#clip151)" d="M2218.91 128.274 L2218.91 1734.12 L2235.81 1734.12 L2235.81 128.274 L2218.91 128.274 L2218.91 128.274  Z" fill="#4682b4" fill-rule="evenodd" fill-opacity="0.7"/>
<polyline clip-path="url(#clip151)" style="stroke:#000000; stroke-linecap:round; stroke-linejoin:round; stroke-width:4; stroke-opacity:0.7; fill:none" points="2218.91,128.274 2218.91,1734.12 2235.81,1734.12 2235.81,128.274 2218.91,128.274 "/>
<path clip-path="url(#clip151)" d="M2240.03 127.953 L2240.03 1734.12 L2256.94 1734.12 L2256.94 127.953 L2240.03 127.953 L2240.03 127.953  Z" fill="#4682b4" fill-rule="evenodd" fill-opacity="0.7"/>
<polyline clip-path="url(#clip151)" style="stroke:#000000; stroke-linecap:round; stroke-linejoin:round; stroke-width:4; stroke-opacity:0.7; fill:none" points="2240.03,127.953 2240.03,1734.12 2256.94,1734.12 2256.94,127.953 2240.03,127.953 "/>
<path clip-path="url(#clip151)" d="M2261.16 127.792 L2261.16 1734.12 L2278.06 1734.12 L2278.06 127.792 L2261.16 127.792 L2261.16 127.792  Z" fill="#4682b4" fill-rule="evenodd" fill-opacity="0.7"/>
<polyline clip-path="url(#clip151)" style="stroke:#000000; stroke-linecap:round; stroke-linejoin:round; stroke-width:4; stroke-opacity:0.7; fill:none" points="2261.16,127.792 2261.16,1734.12 2278.06,1734.12 2278.06,127.792 2261.16,127.792 "/>
<path clip-path="url(#clip151)" d="M2282.29 127.792 L2282.29 1734.12 L2299.19 1734.12 L2299.19 127.792 L2282.29 127.792 L2282.29 127.792  Z" fill="#4682b4" fill-rule="evenodd" fill-opacity="0.7"/>
<polyline clip-path="url(#clip151)" style="stroke:#000000; stroke-linecap:round; stroke-linejoin:round; stroke-width:4; stroke-opacity:0.7; fill:none" points="2282.29,127.792 2282.29,1734.12 2299.19,1734.12 2299.19,127.792 2282.29,127.792 "/>
<path clip-path="url(#clip151)" d="M2303.41 127.792 L2303.41 1734.12 L2320.32 1734.12 L2320.32 127.792 L2303.41 127.792 L2303.41 127.792  Z" fill="#4682b4" fill-rule="evenodd" fill-opacity="0.7"/>
<polyline clip-path="url(#clip151)" style="stroke:#000000; stroke-linecap:round; stroke-linejoin:round; stroke-width:4; stroke-opacity:0.7; fill:none" points="2303.41,127.792 2303.41,1734.12 2320.32,1734.12 2320.32,127.792 2303.41,127.792 "/>
<path clip-path="url(#clip151)" d="M2324.54 127.792 L2324.54 1734.12 L2341.44 1734.12 L2341.44 127.792 L2324.54 127.792 L2324.54 127.792  Z" fill="#4682b4" fill-rule="evenodd" fill-opacity="0.7"/>
<polyline clip-path="url(#clip151)" style="stroke:#000000; stroke-linecap:round; stroke-linejoin:round; stroke-width:4; stroke-opacity:0.7; fill:none" points="2324.54,127.792 2324.54,1734.12 2341.44,1734.12 2341.44,127.792 2324.54,127.792 "/>
<path clip-path="url(#clip151)" d="M2345.67 127.792 L2345.67 1734.12 L2362.57 1734.12 L2362.57 127.792 L2345.67 127.792 L2345.67 127.792  Z" fill="#4682b4" fill-rule="evenodd" fill-opacity="0.7"/>
<polyline clip-path="url(#clip151)" style="stroke:#000000; stroke-linecap:round; stroke-linejoin:round; stroke-width:4; stroke-opacity:0.7; fill:none" points="2345.67,127.792 2345.67,1734.12 2362.57,1734.12 2362.57,127.792 2345.67,127.792 "/>
<path clip-path="url(#clip151)" d="M2366.79 127.792 L2366.79 1734.12 L2383.7 1734.12 L2383.7 127.792 L2366.79 127.792 L2366.79 127.792  Z" fill="#4682b4" fill-rule="evenodd" fill-opacity="0.7"/>
<polyline clip-path="url(#clip151)" style="stroke:#000000; stroke-linecap:round; stroke-linejoin:round; stroke-width:4; stroke-opacity:0.7; fill:none" points="2366.79,127.792 2366.79,1734.12 2383.7,1734.12 2383.7,127.792 2366.79,127.792 "/>
<path clip-path="url(#clip151)" d="M2387.92 127.792 L2387.92 1734.12 L2404.82 1734.12 L2404.82 127.792 L2387.92 127.792 L2387.92 127.792  Z" fill="#4682b4" fill-rule="evenodd" fill-opacity="0.7"/>
<polyline clip-path="url(#clip151)" style="stroke:#000000; stroke-linecap:round; stroke-linejoin:round; stroke-width:4; stroke-opacity:0.7; fill:none" points="2387.92,127.792 2387.92,1734.12 2404.82,1734.12 2404.82,127.792 2387.92,127.792 "/>
<path clip-path="url(#clip151)" d="M2409.05 127.792 L2409.05 1734.12 L2425.95 1734.12 L2425.95 127.792 L2409.05 127.792 L2409.05 127.792  Z" fill="#4682b4" fill-rule="evenodd" fill-opacity="0.7"/>
<polyline clip-path="url(#clip151)" style="stroke:#000000; stroke-linecap:round; stroke-linejoin:round; stroke-width:4; stroke-opacity:0.7; fill:none" points="2409.05,127.792 2409.05,1734.12 2425.95,1734.12 2425.95,127.792 2409.05,127.792 "/>
<path clip-path="url(#clip151)" d="M2430.17 127.792 L2430.17 1734.12 L2447.07 1734.12 L2447.07 127.792 L2430.17 127.792 L2430.17 127.792  Z" fill="#4682b4" fill-rule="evenodd" fill-opacity="0.7"/>
<polyline clip-path="url(#clip151)" style="stroke:#000000; stroke-linecap:round; stroke-linejoin:round; stroke-width:4; stroke-opacity:0.7; fill:none" points="2430.17,127.792 2430.17,1734.12 2447.07,1734.12 2447.07,127.792 2430.17,127.792 "/>
<path clip-path="url(#clip151)" d="M2451.3 127.792 L2451.3 1734.12 L2468.2 1734.12 L2468.2 127.792 L2451.3 127.792 L2451.3 127.792  Z" fill="#4682b4" fill-rule="evenodd" fill-opacity="0.7"/>
<polyline clip-path="url(#clip151)" style="stroke:#000000; stroke-linecap:round; stroke-linejoin:round; stroke-width:4; stroke-opacity:0.7; fill:none" points="2451.3,127.792 2451.3,1734.12 2468.2,1734.12 2468.2,127.792 2451.3,127.792 "/>
<path clip-path="url(#clip151)" d="M2472.43 127.792 L2472.43 1734.12 L2489.33 1734.12 L2489.33 127.792 L2472.43 127.792 L2472.43 127.792  Z" fill="#4682b4" fill-rule="evenodd" fill-opacity="0.7"/>
<polyline clip-path="url(#clip151)" style="stroke:#000000; stroke-linecap:round; stroke-linejoin:round; stroke-width:4; stroke-opacity:0.7; fill:none" points="2472.43,127.792 2472.43,1734.12 2489.33,1734.12 2489.33,127.792 2472.43,127.792 "/>
<path clip-path="url(#clip151)" d="M2493.55 127.792 L2493.55 1734.12 L2510.45 1734.12 L2510.45 127.792 L2493.55 127.792 L2493.55 127.792  Z" fill="#4682b4" fill-rule="evenodd" fill-opacity="0.7"/>
<polyline clip-path="url(#clip151)" style="stroke:#000000; stroke-linecap:round; stroke-linejoin:round; stroke-width:4; stroke-opacity:0.7; fill:none" points="2493.55,127.792 2493.55,1734.12 2510.45,1734.12 2510.45,127.792 2493.55,127.792 "/>
<circle clip-path="url(#clip151)" style="fill:#4682b4; stroke:none; fill-opacity:0" cx="410.471" cy="1733.96" r="2"/>
<circle clip-path="url(#clip151)" style="fill:#4682b4; stroke:none; fill-opacity:0" cx="431.597" cy="1733.96" r="2"/>
<circle clip-path="url(#clip151)" style="fill:#4682b4; stroke:none; fill-opacity:0" cx="452.724" cy="1733.96" r="2"/>
<circle clip-path="url(#clip151)" style="fill:#4682b4; stroke:none; fill-opacity:0" cx="473.851" cy="1733.96" r="2"/>
<circle clip-path="url(#clip151)" style="fill:#4682b4; stroke:none; fill-opacity:0" cx="494.977" cy="1733.96" r="2"/>
<circle clip-path="url(#clip151)" style="fill:#4682b4; stroke:none; fill-opacity:0" cx="516.104" cy="1733.96" r="2"/>
<circle clip-path="url(#clip151)" style="fill:#4682b4; stroke:none; fill-opacity:0" cx="537.23" cy="1733.96" r="2"/>
<circle clip-path="url(#clip151)" style="fill:#4682b4; stroke:none; fill-opacity:0" cx="558.357" cy="1733.96" r="2"/>
<circle clip-path="url(#clip151)" style="fill:#4682b4; stroke:none; fill-opacity:0" cx="579.484" cy="1733.96" r="2"/>
<circle clip-path="url(#clip151)" style="fill:#4682b4; stroke:none; fill-opacity:0" cx="600.61" cy="1733.96" r="2"/>
<circle clip-path="url(#clip151)" style="fill:#4682b4; stroke:none; fill-opacity:0" cx="621.737" cy="1733.96" r="2"/>
<circle clip-path="url(#clip151)" style="fill:#4682b4; stroke:none; fill-opacity:0" cx="642.863" cy="1733.47" r="2"/>
<circle clip-path="url(#clip151)" style="fill:#4682b4; stroke:none; fill-opacity:0" cx="663.99" cy="1733.31" r="2"/>
<circle clip-path="url(#clip151)" style="fill:#4682b4; stroke:none; fill-opacity:0" cx="685.117" cy="1733.15" r="2"/>
<circle clip-path="url(#clip151)" style="fill:#4682b4; stroke:none; fill-opacity:0" cx="706.243" cy="1732.83" r="2"/>
<circle clip-path="url(#clip151)" style="fill:#4682b4; stroke:none; fill-opacity:0" cx="727.37" cy="1732.83" r="2"/>
<circle clip-path="url(#clip151)" style="fill:#4682b4; stroke:none; fill-opacity:0" cx="748.496" cy="1732.51" r="2"/>
<circle clip-path="url(#clip151)" style="fill:#4682b4; stroke:none; fill-opacity:0" cx="769.623" cy="1732.19" r="2"/>
<circle clip-path="url(#clip151)" style="fill:#4682b4; stroke:none; fill-opacity:0" cx="790.75" cy="1731.87" r="2"/>
<circle clip-path="url(#clip151)" style="fill:#4682b4; stroke:none; fill-opacity:0" cx="811.876" cy="1731.71" r="2"/>
<circle clip-path="url(#clip151)" style="fill:#4682b4; stroke:none; fill-opacity:0" cx="833.003" cy="1731.06" r="2"/>
<circle clip-path="url(#clip151)" style="fill:#4682b4; stroke:none; fill-opacity:0" cx="854.129" cy="1730.58" r="2"/>
<circle clip-path="url(#clip151)" style="fill:#4682b4; stroke:none; fill-opacity:0" cx="875.256" cy="1729.3" r="2"/>
<circle clip-path="url(#clip151)" style="fill:#4682b4; stroke:none; fill-opacity:0" cx="896.383" cy="1728.17" r="2"/>
<circle clip-path="url(#clip151)" style="fill:#4682b4; stroke:none; fill-opacity:0" cx="917.509" cy="1727.37" r="2"/>
<circle clip-path="url(#clip151)" style="fill:#4682b4; stroke:none; fill-opacity:0" cx="938.636" cy="1726.73" r="2"/>
<circle clip-path="url(#clip151)" style="fill:#4682b4; stroke:none; fill-opacity:0" cx="959.762" cy="1725.28" r="2"/>
<circle clip-path="url(#clip151)" style="fill:#4682b4; stroke:none; fill-opacity:0" cx="980.889" cy="1723.84" r="2"/>
<circle clip-path="url(#clip151)" style="fill:#4682b4; stroke:none; fill-opacity:0" cx="1002.02" cy="1722.23" r="2"/>
<circle clip-path="url(#clip151)" style="fill:#4682b4; stroke:none; fill-opacity:0" cx="1023.14" cy="1720.46" r="2"/>
<circle clip-path="url(#clip151)" style="fill:#4682b4; stroke:none; fill-opacity:0" cx="1044.27" cy="1717.09" r="2"/>
<circle clip-path="url(#clip151)" style="fill:#4682b4; stroke:none; fill-opacity:0" cx="1065.4" cy="1713.55" r="2"/>
<circle clip-path="url(#clip151)" style="fill:#4682b4; stroke:none; fill-opacity:0" cx="1086.52" cy="1708.57" r="2"/>
<circle clip-path="url(#clip151)" style="fill:#4682b4; stroke:none; fill-opacity:0" cx="1107.65" cy="1702.47" r="2"/>
<circle clip-path="url(#clip151)" style="fill:#4682b4; stroke:none; fill-opacity:0" cx="1128.78" cy="1695.88" r="2"/>
<circle clip-path="url(#clip151)" style="fill:#4682b4; stroke:none; fill-opacity:0" cx="1149.9" cy="1687.85" r="2"/>
<circle clip-path="url(#clip151)" style="fill:#4682b4; stroke:none; fill-opacity:0" cx="1171.03" cy="1679.18" r="2"/>
<circle clip-path="url(#clip151)" style="fill:#4682b4; stroke:none; fill-opacity:0" cx="1192.15" cy="1668.09" r="2"/>
<circle clip-path="url(#clip151)" style="fill:#4682b4; stroke:none; fill-opacity:0" cx="1213.28" cy="1655.88" r="2"/>
<circle clip-path="url(#clip151)" style="fill:#4682b4; stroke:none; fill-opacity:0" cx="1234.41" cy="1642.71" r="2"/>
<circle clip-path="url(#clip151)" style="fill:#4682b4; stroke:none; fill-opacity:0" cx="1255.53" cy="1624.07" r="2"/>
<circle clip-path="url(#clip151)" style="fill:#4682b4; stroke:none; fill-opacity:0" cx="1276.66" cy="1604.47" r="2"/>
<circle clip-path="url(#clip151)" style="fill:#4682b4; stroke:none; fill-opacity:0" cx="1297.79" cy="1582.79" r="2"/>
<circle clip-path="url(#clip151)" style="fill:#4682b4; stroke:none; fill-opacity:0" cx="1318.91" cy="1556.28" r="2"/>
<circle clip-path="url(#clip151)" style="fill:#4682b4; stroke:none; fill-opacity:0" cx="1340.04" cy="1522.06" r="2"/>
<circle clip-path="url(#clip151)" style="fill:#4682b4; stroke:none; fill-opacity:0" cx="1361.17" cy="1485.27" r="2"/>
<circle clip-path="url(#clip151)" style="fill:#4682b4; stroke:none; fill-opacity:0" cx="1382.29" cy="1444.31" r="2"/>
<circle clip-path="url(#clip151)" style="fill:#4682b4; stroke:none; fill-opacity:0" cx="1403.42" cy="1394.83" r="2"/>
<circle clip-path="url(#clip151)" style="fill:#4682b4; stroke:none; fill-opacity:0" cx="1424.55" cy="1340.69" r="2"/>
<circle clip-path="url(#clip151)" style="fill:#4682b4; stroke:none; fill-opacity:0" cx="1445.67" cy="1287.35" r="2"/>
<circle clip-path="url(#clip151)" style="fill:#4682b4; stroke:none; fill-opacity:0" cx="1466.8" cy="1219.72" r="2"/>
<circle clip-path="url(#clip151)" style="fill:#4682b4; stroke:none; fill-opacity:0" cx="1487.93" cy="1151.77" r="2"/>
<circle clip-path="url(#clip151)" style="fill:#4682b4; stroke:none; fill-opacity:0" cx="1509.05" cy="1084.13" r="2"/>
<circle clip-path="url(#clip151)" style="fill:#4682b4; stroke:none; fill-opacity:0" cx="1530.18" cy="1013.13" r="2"/>
<circle clip-path="url(#clip151)" style="fill:#4682b4; stroke:none; fill-opacity:0" cx="1551.31" cy="941.959" r="2"/>
<circle clip-path="url(#clip151)" style="fill:#4682b4; stroke:none; fill-opacity:0" cx="1572.43" cy="869.667" r="2"/>
<circle clip-path="url(#clip151)" style="fill:#4682b4; stroke:none; fill-opacity:0" cx="1593.56" cy="794.002" r="2"/>
<circle clip-path="url(#clip151)" style="fill:#4682b4; stroke:none; fill-opacity:0" cx="1614.69" cy="719.621" r="2"/>
<circle clip-path="url(#clip151)" style="fill:#4682b4; stroke:none; fill-opacity:0" cx="1635.81" cy="653.916" r="2"/>
<circle clip-path="url(#clip151)" style="fill:#4682b4; stroke:none; fill-opacity:0" cx="1656.94" cy="591.906" r="2"/>
<circle clip-path="url(#clip151)" style="fill:#4682b4; stroke:none; fill-opacity:0" cx="1678.07" cy="526.361" r="2"/>
<circle clip-path="url(#clip151)" style="fill:#4682b4; stroke:none; fill-opacity:0" cx="1699.19" cy="467.885" r="2"/>
<circle clip-path="url(#clip151)" style="fill:#4682b4; stroke:none; fill-opacity:0" cx="1720.32" cy="415.353" r="2"/>
<circle clip-path="url(#clip151)" style="fill:#4682b4; stroke:none; fill-opacity:0" cx="1741.45" cy="371.657" r="2"/>
<circle clip-path="url(#clip151)" style="fill:#4682b4; stroke:none; fill-opacity:0" cx="1762.57" cy="333.262" r="2"/>
<circle clip-path="url(#clip151)" style="fill:#4682b4; stroke:none; fill-opacity:0" cx="1783.7" cy="299.365" r="2"/>
<circle clip-path="url(#clip151)" style="fill:#4682b4; stroke:none; fill-opacity:0" cx="1804.83" cy="272.536" r="2"/>
<circle clip-path="url(#clip151)" style="fill:#4682b4; stroke:none; fill-opacity:0" cx="1825.95" cy="245.226" r="2"/>
<circle clip-path="url(#clip151)" style="fill:#4682b4; stroke:none; fill-opacity:0" cx="1847.08" cy="224.663" r="2"/>
<circle clip-path="url(#clip151)" style="fill:#4682b4; stroke:none; fill-opacity:0" cx="1868.21" cy="206.189" r="2"/>
<circle clip-path="url(#clip151)" style="fill:#4682b4; stroke:none; fill-opacity:0" cx="1889.33" cy="191.248" r="2"/>
<circle clip-path="url(#clip151)" style="fill:#4682b4; stroke:none; fill-opacity:0" cx="1910.46" cy="177.111" r="2"/>
<circle clip-path="url(#clip151)" style="fill:#4682b4; stroke:none; fill-opacity:0" cx="1931.59" cy="165.705" r="2"/>
<circle clip-path="url(#clip151)" style="fill:#4682b4; stroke:none; fill-opacity:0" cx="1952.71" cy="155.745" r="2"/>
<circle clip-path="url(#clip151)" style="fill:#4682b4; stroke:none; fill-opacity:0" cx="1973.84" cy="150.444" r="2"/>
<circle clip-path="url(#clip151)" style="fill:#4682b4; stroke:none; fill-opacity:0" cx="1994.97" cy="145.463" r="2"/>
<circle clip-path="url(#clip151)" style="fill:#4682b4; stroke:none; fill-opacity:0" cx="2016.09" cy="140.162" r="2"/>
<circle clip-path="url(#clip151)" style="fill:#4682b4; stroke:none; fill-opacity:0" cx="2037.22" cy="137.431" r="2"/>
<circle clip-path="url(#clip151)" style="fill:#4682b4; stroke:none; fill-opacity:0" cx="2058.35" cy="135.021" r="2"/>
<circle clip-path="url(#clip151)" style="fill:#4682b4; stroke:none; fill-opacity:0" cx="2079.47" cy="133.897" r="2"/>
<circle clip-path="url(#clip151)" style="fill:#4682b4; stroke:none; fill-opacity:0" cx="2100.6" cy="132.13" r="2"/>
<circle clip-path="url(#clip151)" style="fill:#4682b4; stroke:none; fill-opacity:0" cx="2121.73" cy="130.844" r="2"/>
<circle clip-path="url(#clip151)" style="fill:#4682b4; stroke:none; fill-opacity:0" cx="2142.85" cy="130.523" r="2"/>
<circle clip-path="url(#clip151)" style="fill:#4682b4; stroke:none; fill-opacity:0" cx="2163.98" cy="129.399" r="2"/>
<circle clip-path="url(#clip151)" style="fill:#4682b4; stroke:none; fill-opacity:0" cx="2185.11" cy="128.917" r="2"/>
<circle clip-path="url(#clip151)" style="fill:#4682b4; stroke:none; fill-opacity:0" cx="2206.23" cy="128.595" r="2"/>
<circle clip-path="url(#clip151)" style="fill:#4682b4; stroke:none; fill-opacity:0" cx="2227.36" cy="128.274" r="2"/>
<circle clip-path="url(#clip151)" style="fill:#4682b4; stroke:none; fill-opacity:0" cx="2248.48" cy="127.953" r="2"/>
</svg>
