<?xml version="1.0" encoding="utf-8"?>
<svg xmlns="http://www.w3.org/2000/svg" xmlns:xlink="http://www.w3.org/1999/xlink" width="672" height="480" viewBox="0 0 2688 1920">
<defs>
  <clipPath id="clip090">
    <rect x="0" y="0" width="2688" height="1920"/>
  </clipPath>
</defs>
<path clip-path="url(#clip090)" d="M0 1920 L2688 1920 L2688 -4.26326e-14 L0 -4.26326e-14  Z" fill="#ffffff" fill-rule="evenodd" fill-opacity="1"/>
<defs>
  <clipPath id="clip091">
    <rect x="271" y="127" width="2370" height="1607"/>
  </clipPath>
</defs>
<path clip-path="url(#clip090)" d="M271.719 1734.12 L2640.76 1734.12 L2640.76 127.792 L271.719 127.792  Z" fill="#ffffff" fill-rule="evenodd" fill-opacity="1"/>
<polyline clip-path="url(#clip091)" style="stroke:#000000; stroke-linecap:round; stroke-linejoin:round; stroke-width:2; stroke-opacity:0.1; fill:none" points="338.767,1734.12 338.767,127.792 "/>
<polyline clip-path="url(#clip091)" style="stroke:#000000; stroke-linecap:round; stroke-linejoin:round; stroke-width:2; stroke-opacity:0.1; fill:none" points="1083.75,1734.12 1083.75,127.792 "/>
<polyline clip-path="url(#clip091)" style="stroke:#000000; stroke-linecap:round; stroke-linejoin:round; stroke-width:2; stroke-opacity:0.1; fill:none" points="1828.73,1734.12 1828.73,127.792 "/>
<polyline clip-path="url(#clip091)" style="stroke:#000000; stroke-linecap:round; stroke-linejoin:round; stroke-width:2; stroke-opacity:0.1; fill:none" points="2573.71,1734.12 2573.71,127.792 "/>
<polyline clip-path="url(#clip091)" style="stroke:#000000; stroke-linecap:round; stroke-linejoin:round; stroke-width:2; stroke-opacity:0.1; fill:none" points="271.719,1688.65 2640.76,1688.65 "/>
<polyline clip-path="url(#clip091)" style="stroke:#000000; stroke-linecap:round; stroke-linejoin:round; stroke-width:2; stroke-opacity:0.1; fill:none" points="271.719,1437.27 2640.76,1437.27 "/>
<polyline clip-path="url(#clip091)" style="stroke:#000000; stroke-linecap:round; stroke-linejoin:round; stroke-width:2; stroke-opacity:0.1; fill:none" points="271.719,1185.88 2640.76,1185.88 "/>
<polyline clip-path="url(#clip091)" style="stroke:#000000; stroke-linecap:round; stroke-linejoin:round; stroke-width:2; stroke-opacity:0.1; fill:none" points="271.719,934.499 2640.76,934.499 "/>
<polyline clip-path="url(#clip091)" style="stroke:#000000; stroke-linecap:round; stroke-linejoin:round; stroke-width:2; stroke-opacity:0.1; fill:none" points="271.719,683.114 2640.76,683.114 "/>
<polyline clip-path="url(#clip091)" style="stroke:#000000; stroke-linecap:round; stroke-linejoin:round; stroke-width:2; stroke-opacity:0.1; fill:none" points="271.719,431.729 2640.76,431.729 "/>
<polyline clip-path="url(#clip091)" style="stroke:#000000; stroke-linecap:round; stroke-linejoin:round; stroke-width:2; stroke-opacity:0.1; fill:none" points="271.719,180.343 2640.76,180.343 "/>
<polyline clip-path="url(#clip090)" style="stroke:#000000; stroke-linecap:round; stroke-linejoin:round; stroke-width:4; stroke-opacity:1; fill:none" points="271.719,1734.12 2640.76,1734.12 "/>
<polyline clip-path="url(#clip090)" style="stroke:#000000; stroke-linecap:round; stroke-linejoin:round; stroke-width:4; stroke-opacity:1; fill:none" points="338.767,1734.12 338.767,1715.22 "/>
<polyline clip-path="url(#clip090)" style="stroke:#000000; stroke-linecap:round; stroke-linejoin:round; stroke-width:4; stroke-opacity:1; fill:none" points="1083.75,1734.12 1083.75,1715.22 "/>
<polyline clip-path="url(#clip090)" style="stroke:#000000; stroke-linecap:round; stroke-linejoin:round; stroke-width:4; stroke-opacity:1; fill:none" points="1828.73,1734.12 1828.73,1715.22 "/>
<polyline clip-path="url(#clip090)" style="stroke:#000000; stroke-linecap:round; stroke-linejoin:round; stroke-width:4; stroke-opacity:1; fill:none" points="2573.71,1734.12 2573.71,1715.22 "/>
<path clip-path="url(#clip090)" d="M338.767 1767.34 Q335.156 1767.34 333.327 1770.9 Q331.522 1774.45 331.522 1781.58 Q331.522 1788.68 333.327 1792.25 Q335.156 1795.79 338.767 1795.79 Q342.401 1795.79 344.207 1792.25 Q346.036 1788.68 346.036 1781.58 Q346.036 1774.45 344.207 1770.9 Q342.401 1767.34 338.767 1767.34 M338.767 1763.64 Q344.577 1763.64 347.633 1768.24 Q350.712 1772.83 350.712 1781.58 Q350.712 1790.3 347.633 1794.91 Q344.577 1799.49 338.767 1799.49 Q332.957 1799.49 329.878 1794.91 Q326.823 1790.3 326.823 1781.58 Q326.823 1772.83 329.878 1768.24 Q332.957 1763.64 338.767 1763.64 Z" fill="#000000" fill-rule="nonzero" fill-opacity="1" /><path clip-path="url(#clip090)" d="M1058.45 1764.26 L1076.8 1764.26 L1076.8 1768.2 L1062.73 1768.2 L1062.73 1776.67 Q1063.75 1776.32 1064.77 1776.16 Q1065.78 1775.97 1066.8 1775.97 Q1072.59 1775.97 1075.97 1779.15 Q1079.35 1782.32 1079.35 1787.73 Q1079.35 1793.31 1075.88 1796.41 Q1072.4 1799.49 1066.09 1799.49 Q1063.91 1799.49 1061.64 1799.12 Q1059.4 1798.75 1056.99 1798.01 L1056.99 1793.31 Q1059.07 1794.45 1061.29 1795 Q1063.52 1795.56 1065.99 1795.56 Q1070 1795.56 1072.34 1793.45 Q1074.67 1791.34 1074.67 1787.73 Q1074.67 1784.12 1072.34 1782.02 Q1070 1779.91 1065.99 1779.91 Q1064.12 1779.91 1062.24 1780.33 Q1060.39 1780.74 1058.45 1781.62 L1058.45 1764.26 Z" fill="#000000" fill-rule="nonzero" fill-opacity="1" /><path clip-path="url(#clip090)" d="M1098.56 1767.34 Q1094.95 1767.34 1093.12 1770.9 Q1091.32 1774.45 1091.32 1781.58 Q1091.32 1788.68 1093.12 1792.25 Q1094.95 1795.79 1098.56 1795.79 Q1102.2 1795.79 1104 1792.25 Q1105.83 1788.68 1105.83 1781.58 Q1105.83 1774.45 1104 1770.9 Q1102.2 1767.34 1098.56 1767.34 M1098.56 1763.64 Q1104.37 1763.64 1107.43 1768.24 Q1110.51 1772.83 1110.51 1781.58 Q1110.51 1790.3 1107.43 1794.91 Q1104.37 1799.49 1098.56 1799.49 Q1092.75 1799.49 1089.67 1794.91 Q1086.62 1790.3 1086.62 1781.58 Q1086.62 1772.83 1089.67 1768.24 Q1092.75 1763.64 1098.56 1763.64 Z" fill="#000000" fill-rule="nonzero" fill-opacity="1" /><path clip-path="url(#clip090)" d="M1788.33 1794.89 L1795.97 1794.89 L1795.97 1768.52 L1787.66 1770.19 L1787.66 1765.93 L1795.93 1764.26 L1800.6 1764.26 L1800.6 1794.89 L1808.24 1794.89 L1808.24 1798.82 L1788.33 1798.82 L1788.33 1794.89 Z" fill="#000000" fill-rule="nonzero" fill-opacity="1" /><path clip-path="url(#clip090)" d="M1827.69 1767.34 Q1824.07 1767.34 1822.25 1770.9 Q1820.44 1774.45 1820.44 1781.58 Q1820.44 1788.68 1822.25 1792.25 Q1824.07 1795.79 1827.69 1795.79 Q1831.32 1795.79 1833.13 1792.25 Q1834.95 1788.68 1834.95 1781.58 Q1834.95 1774.45 1833.13 1770.9 Q1831.32 1767.34 1827.69 1767.34 M1827.69 1763.64 Q1833.5 1763.64 1836.55 1768.24 Q1839.63 1772.83 1839.63 1781.58 Q1839.63 1790.3 1836.55 1794.91 Q1833.5 1799.49 1827.69 1799.49 Q1821.88 1799.49 1818.8 1794.91 Q1815.74 1790.3 1815.74 1781.58 Q1815.74 1772.83 1818.8 1768.24 Q1821.88 1763.64 1827.69 1763.64 Z" fill="#000000" fill-rule="nonzero" fill-opacity="1" /><path clip-path="url(#clip090)" d="M1857.85 1767.34 Q1854.24 1767.34 1852.41 1770.9 Q1850.6 1774.45 1850.6 1781.58 Q1850.6 1788.68 1852.41 1792.25 Q1854.24 1795.79 1857.85 1795.79 Q1861.48 1795.79 1863.29 1792.25 Q1865.12 1788.68 1865.12 1781.58 Q1865.12 1774.45 1863.29 1770.9 Q1861.48 1767.34 1857.85 1767.34 M1857.85 1763.64 Q1863.66 1763.64 1866.71 1768.24 Q1869.79 1772.83 1869.79 1781.58 Q1869.79 1790.3 1866.71 1794.91 Q1863.66 1799.49 1857.85 1799.49 Q1852.04 1799.49 1848.96 1794.91 Q1845.9 1790.3 1845.9 1781.58 Q1845.9 1772.83 1848.96 1768.24 Q1852.04 1763.64 1857.85 1763.64 Z" fill="#000000" fill-rule="nonzero" fill-opacity="1" /><path clip-path="url(#clip090)" d="M2533.31 1794.89 L2540.95 1794.89 L2540.95 1768.52 L2532.64 1770.19 L2532.64 1765.93 L2540.91 1764.26 L2545.58 1764.26 L2545.58 1794.89 L2553.22 1794.89 L2553.22 1798.82 L2533.31 1798.82 L2533.31 1794.89 Z" fill="#000000" fill-rule="nonzero" fill-opacity="1" /><path clip-path="url(#clip090)" d="M2562.71 1764.26 L2581.07 1764.26 L2581.07 1768.2 L2566.99 1768.2 L2566.99 1776.67 Q2568.01 1776.32 2569.03 1776.16 Q2570.05 1775.97 2571.07 1775.97 Q2576.86 1775.97 2580.24 1779.15 Q2583.62 1782.32 2583.62 1787.73 Q2583.62 1793.31 2580.14 1796.41 Q2576.67 1799.49 2570.35 1799.49 Q2568.18 1799.49 2565.91 1799.12 Q2563.66 1798.75 2561.25 1798.01 L2561.25 1793.31 Q2563.34 1794.45 2565.56 1795 Q2567.78 1795.56 2570.26 1795.56 Q2574.26 1795.56 2576.6 1793.45 Q2578.94 1791.34 2578.94 1787.73 Q2578.94 1784.12 2576.6 1782.02 Q2574.26 1779.91 2570.26 1779.91 Q2568.38 1779.91 2566.51 1780.33 Q2564.66 1780.74 2562.71 1781.62 L2562.71 1764.26 Z" fill="#000000" fill-rule="nonzero" fill-opacity="1" /><path clip-path="url(#clip090)" d="M2602.83 1767.34 Q2599.22 1767.34 2597.39 1770.9 Q2595.58 1774.45 2595.58 1781.58 Q2595.58 1788.68 2597.39 1792.25 Q2599.22 1795.79 2602.83 1795.79 Q2606.46 1795.79 2608.27 1792.25 Q2610.1 1788.68 2610.1 1781.58 Q2610.1 1774.45 2608.27 1770.9 Q2606.46 1767.34 2602.83 1767.34 M2602.83 1763.64 Q2608.64 1763.64 2611.69 1768.24 Q2614.77 1772.83 2614.77 1781.58 Q2614.77 1790.3 2611.69 1794.91 Q2608.64 1799.49 2602.83 1799.49 Q2597.02 1799.49 2593.94 1794.91 Q2590.88 1790.3 2590.88 1781.58 Q2590.88 1772.83 2593.94 1768.24 Q2597.02 1763.64 2602.83 1763.64 Z" fill="#000000" fill-rule="nonzero" fill-opacity="1" /><path clip-path="url(#clip090)" d="M1402.48 1841.06 L1402.48 1878.02 L1410.25 1878.02 Q1420.08 1878.02 1424.63 1873.56 Q1429.22 1869.11 1429.22 1859.49 Q1429.22 1849.94 1424.63 1845.52 Q1420.08 1841.06 1410.25 1841.06 L1402.48 1841.06 M1396.05 1835.78 L1409.26 1835.78 Q1423.07 1835.78 1429.53 1841.54 Q1435.99 1847.27 1435.99 1859.49 Q1435.99 1871.78 1429.5 1877.54 Q1423.01 1883.3 1409.26 1883.3 L1396.05 1883.3 L1396.05 1835.78 Z" fill="#000000" fill-rule="nonzero" fill-opacity="1" /><path clip-path="url(#clip090)" d="M1462.19 1865.38 Q1455.09 1865.38 1452.35 1867 Q1449.62 1868.63 1449.62 1872.54 Q1449.62 1875.66 1451.65 1877.51 Q1453.72 1879.32 1457.26 1879.32 Q1462.13 1879.32 1465.05 1875.88 Q1468.01 1872.42 1468.01 1866.69 L1468.01 1865.38 L1462.19 1865.38 M1473.87 1862.96 L1473.87 1883.3 L1468.01 1883.3 L1468.01 1877.89 Q1466.01 1881.14 1463.02 1882.7 Q1460.03 1884.22 1455.7 1884.22 Q1450.22 1884.22 1446.98 1881.17 Q1443.76 1878.08 1443.76 1872.92 Q1443.76 1866.91 1447.77 1863.85 Q1451.81 1860.8 1459.8 1860.8 L1468.01 1860.8 L1468.01 1860.23 Q1468.01 1856.18 1465.34 1853.99 Q1462.7 1851.76 1457.89 1851.76 Q1454.84 1851.76 1451.94 1852.49 Q1449.04 1853.22 1446.37 1854.69 L1446.37 1849.28 Q1449.59 1848.03 1452.61 1847.43 Q1455.63 1846.79 1458.5 1846.79 Q1466.23 1846.79 1470.05 1850.8 Q1473.87 1854.81 1473.87 1862.96 Z" fill="#000000" fill-rule="nonzero" fill-opacity="1" /><path clip-path="url(#clip090)" d="M1500.77 1886.61 Q1498.28 1892.98 1495.93 1894.92 Q1493.57 1896.86 1489.63 1896.86 L1484.95 1896.86 L1484.95 1891.96 L1488.38 1891.96 Q1490.8 1891.96 1492.14 1890.81 Q1493.48 1889.67 1495.1 1885.4 L1496.15 1882.73 L1481.73 1847.65 L1487.94 1847.65 L1499.08 1875.53 L1510.22 1847.65 L1516.43 1847.65 L1500.77 1886.61 Z" fill="#000000" fill-rule="nonzero" fill-opacity="1" /><polyline clip-path="url(#clip090)" style="stroke:#000000; stroke-linecap:round; stroke-linejoin:round; stroke-width:4; stroke-opacity:1; fill:none" points="271.719,1734.12 271.719,127.792 "/>
<polyline clip-path="url(#clip090)" style="stroke:#000000; stroke-linecap:round; stroke-linejoin:round; stroke-width:4; stroke-opacity:1; fill:none" points="271.719,1688.65 290.617,1688.65 "/>
<polyline clip-path="url(#clip090)" style="stroke:#000000; stroke-linecap:round; stroke-linejoin:round; stroke-width:4; stroke-opacity:1; fill:none" points="271.719,1437.27 290.617,1437.27 "/>
<polyline clip-path="url(#clip090)" style="stroke:#000000; stroke-linecap:round; stroke-linejoin:round; stroke-width:4; stroke-opacity:1; fill:none" points="271.719,1185.88 290.617,1185.88 "/>
<polyline clip-path="url(#clip090)" style="stroke:#000000; stroke-linecap:round; stroke-linejoin:round; stroke-width:4; stroke-opacity:1; fill:none" points="271.719,934.499 290.617,934.499 "/>
<polyline clip-path="url(#clip090)" style="stroke:#000000; stroke-linecap:round; stroke-linejoin:round; stroke-width:4; stroke-opacity:1; fill:none" points="271.719,683.114 290.617,683.114 "/>
<polyline clip-path="url(#clip090)" style="stroke:#000000; stroke-linecap:round; stroke-linejoin:round; stroke-width:4; stroke-opacity:1; fill:none" points="271.719,431.729 290.617,431.729 "/>
<polyline clip-path="url(#clip090)" style="stroke:#000000; stroke-linecap:round; stroke-linejoin:round; stroke-width:4; stroke-opacity:1; fill:none" points="271.719,180.343 290.617,180.343 "/>
<path clip-path="url(#clip090)" d="M219.455 1674.45 Q215.844 1674.45 214.015 1678.02 Q212.209 1681.56 212.209 1688.69 Q212.209 1695.8 214.015 1699.36 Q215.844 1702.9 219.455 1702.9 Q223.089 1702.9 224.894 1699.36 Q226.723 1695.8 226.723 1688.69 Q226.723 1681.56 224.894 1678.02 Q223.089 1674.45 219.455 1674.45 M219.455 1670.75 Q225.265 1670.75 228.32 1675.36 Q231.399 1679.94 231.399 1688.69 Q231.399 1697.42 228.32 1702.02 Q225.265 1706.61 219.455 1706.61 Q213.644 1706.61 210.566 1702.02 Q207.51 1697.42 207.51 1688.69 Q207.51 1679.94 210.566 1675.36 Q213.644 1670.75 219.455 1670.75 Z" fill="#000000" fill-rule="nonzero" fill-opacity="1" /><path clip-path="url(#clip090)" d="M119.779 1450.61 L127.418 1450.61 L127.418 1424.25 L119.108 1425.92 L119.108 1421.66 L127.372 1419.99 L132.048 1419.99 L132.048 1450.61 L139.687 1450.61 L139.687 1454.55 L119.779 1454.55 L119.779 1450.61 Z" fill="#000000" fill-rule="nonzero" fill-opacity="1" /><path clip-path="url(#clip090)" d="M159.131 1423.07 Q155.52 1423.07 153.691 1426.63 Q151.886 1430.17 151.886 1437.3 Q151.886 1444.41 153.691 1447.98 Q155.52 1451.52 159.131 1451.52 Q162.765 1451.52 164.571 1447.98 Q166.399 1444.41 166.399 1437.3 Q166.399 1430.17 164.571 1426.63 Q162.765 1423.07 159.131 1423.07 M159.131 1419.36 Q164.941 1419.36 167.997 1423.97 Q171.075 1428.55 171.075 1437.3 Q171.075 1446.03 167.997 1450.64 Q164.941 1455.22 159.131 1455.22 Q153.321 1455.22 150.242 1450.64 Q147.186 1446.03 147.186 1437.3 Q147.186 1428.55 150.242 1423.97 Q153.321 1419.36 159.131 1419.36 Z" fill="#000000" fill-rule="nonzero" fill-opacity="1" /><path clip-path="url(#clip090)" d="M189.293 1423.07 Q185.682 1423.07 183.853 1426.63 Q182.047 1430.17 182.047 1437.3 Q182.047 1444.41 183.853 1447.98 Q185.682 1451.52 189.293 1451.52 Q192.927 1451.52 194.733 1447.98 Q196.561 1444.41 196.561 1437.3 Q196.561 1430.17 194.733 1426.63 Q192.927 1423.07 189.293 1423.07 M189.293 1419.36 Q195.103 1419.36 198.158 1423.97 Q201.237 1428.55 201.237 1437.3 Q201.237 1446.03 198.158 1450.64 Q195.103 1455.22 189.293 1455.22 Q183.483 1455.22 180.404 1450.64 Q177.348 1446.03 177.348 1437.3 Q177.348 1428.55 180.404 1423.97 Q183.483 1419.36 189.293 1419.36 Z" fill="#000000" fill-rule="nonzero" fill-opacity="1" /><path clip-path="url(#clip090)" d="M219.455 1423.07 Q215.844 1423.07 214.015 1426.63 Q212.209 1430.17 212.209 1437.3 Q212.209 1444.41 214.015 1447.98 Q215.844 1451.52 219.455 1451.52 Q223.089 1451.52 224.894 1447.98 Q226.723 1444.41 226.723 1437.3 Q226.723 1430.17 224.894 1426.63 Q223.089 1423.07 219.455 1423.07 M219.455 1419.36 Q225.265 1419.36 228.32 1423.97 Q231.399 1428.55 231.399 1437.3 Q231.399 1446.03 228.32 1450.64 Q225.265 1455.22 219.455 1455.22 Q213.644 1455.22 210.566 1450.64 Q207.51 1446.03 207.51 1437.3 Q207.51 1428.55 210.566 1423.97 Q213.644 1419.36 219.455 1419.36 Z" fill="#000000" fill-rule="nonzero" fill-opacity="1" /><path clip-path="url(#clip090)" d="M122.997 1199.23 L139.316 1199.23 L139.316 1203.16 L117.372 1203.16 L117.372 1199.23 Q120.034 1196.47 124.617 1191.84 Q129.224 1187.19 130.404 1185.85 Q132.65 1183.33 133.529 1181.59 Q134.432 1179.83 134.432 1178.14 Q134.432 1175.39 132.488 1173.65 Q130.566 1171.91 127.464 1171.91 Q125.265 1171.91 122.812 1172.68 Q120.381 1173.44 117.603 1174.99 L117.603 1170.27 Q120.427 1169.14 122.881 1168.56 Q125.335 1167.98 127.372 1167.98 Q132.742 1167.98 135.937 1170.66 Q139.131 1173.35 139.131 1177.84 Q139.131 1179.97 138.321 1181.89 Q137.534 1183.79 135.427 1186.38 Q134.849 1187.05 131.747 1190.27 Q128.645 1193.47 122.997 1199.23 Z" fill="#000000" fill-rule="nonzero" fill-opacity="1" /><path clip-path="url(#clip090)" d="M159.131 1171.68 Q155.52 1171.68 153.691 1175.25 Q151.886 1178.79 151.886 1185.92 Q151.886 1193.03 153.691 1196.59 Q155.52 1200.13 159.131 1200.13 Q162.765 1200.13 164.571 1196.59 Q166.399 1193.03 166.399 1185.92 Q166.399 1178.79 164.571 1175.25 Q162.765 1171.68 159.131 1171.68 M159.131 1167.98 Q164.941 1167.98 167.997 1172.59 Q171.075 1177.17 171.075 1185.92 Q171.075 1194.65 167.997 1199.25 Q164.941 1203.84 159.131 1203.84 Q153.321 1203.84 150.242 1199.25 Q147.186 1194.65 147.186 1185.92 Q147.186 1177.17 150.242 1172.59 Q153.321 1167.98 159.131 1167.98 Z" fill="#000000" fill-rule="nonzero" fill-opacity="1" /><path clip-path="url(#clip090)" d="M189.293 1171.68 Q185.682 1171.68 183.853 1175.25 Q182.047 1178.79 182.047 1185.92 Q182.047 1193.03 183.853 1196.59 Q185.682 1200.13 189.293 1200.13 Q192.927 1200.13 194.733 1196.59 Q196.561 1193.03 196.561 1185.92 Q196.561 1178.79 194.733 1175.25 Q192.927 1171.68 189.293 1171.68 M189.293 1167.98 Q195.103 1167.98 198.158 1172.59 Q201.237 1177.17 201.237 1185.92 Q201.237 1194.65 198.158 1199.25 Q195.103 1203.84 189.293 1203.84 Q183.483 1203.84 180.404 1199.25 Q177.348 1194.65 177.348 1185.92 Q177.348 1177.17 180.404 1172.59 Q183.483 1167.98 189.293 1167.98 Z" fill="#000000" fill-rule="nonzero" fill-opacity="1" /><path clip-path="url(#clip090)" d="M219.455 1171.68 Q215.844 1171.68 214.015 1175.25 Q212.209 1178.79 212.209 1185.92 Q212.209 1193.03 214.015 1196.59 Q215.844 1200.13 219.455 1200.13 Q223.089 1200.13 224.894 1196.59 Q226.723 1193.03 226.723 1185.92 Q226.723 1178.79 224.894 1175.25 Q223.089 1171.68 219.455 1171.68 M219.455 1167.98 Q225.265 1167.98 228.32 1172.59 Q231.399 1177.17 231.399 1185.92 Q231.399 1194.65 228.32 1199.25 Q225.265 1203.84 219.455 1203.84 Q213.644 1203.84 210.566 1199.25 Q207.51 1194.65 207.51 1185.92 Q207.51 1177.17 210.566 1172.59 Q213.644 1167.98 219.455 1167.98 Z" fill="#000000" fill-rule="nonzero" fill-opacity="1" /><path clip-path="url(#clip090)" d="M133.136 933.145 Q136.492 933.863 138.367 936.131 Q140.265 938.4 140.265 941.733 Q140.265 946.849 136.747 949.649 Q133.228 952.45 126.747 952.45 Q124.571 952.45 122.256 952.011 Q119.964 951.594 117.511 950.737 L117.511 946.224 Q119.455 947.358 121.77 947.937 Q124.085 948.515 126.608 948.515 Q131.006 948.515 133.298 946.779 Q135.612 945.043 135.612 941.733 Q135.612 938.677 133.46 936.964 Q131.33 935.228 127.511 935.228 L123.483 935.228 L123.483 931.386 L127.696 931.386 Q131.145 931.386 132.974 930.02 Q134.802 928.631 134.802 926.038 Q134.802 923.376 132.904 921.964 Q131.029 920.529 127.511 920.529 Q125.589 920.529 123.39 920.946 Q121.191 921.363 118.552 922.242 L118.552 918.076 Q121.214 917.335 123.529 916.964 Q125.867 916.594 127.927 916.594 Q133.251 916.594 136.353 919.025 Q139.455 921.432 139.455 925.552 Q139.455 928.423 137.812 930.413 Q136.168 932.381 133.136 933.145 Z" fill="#000000" fill-rule="nonzero" fill-opacity="1" /><path clip-path="url(#clip090)" d="M159.131 920.298 Q155.52 920.298 153.691 923.863 Q151.886 927.404 151.886 934.534 Q151.886 941.64 153.691 945.205 Q155.52 948.747 159.131 948.747 Q162.765 948.747 164.571 945.205 Q166.399 941.64 166.399 934.534 Q166.399 927.404 164.571 923.863 Q162.765 920.298 159.131 920.298 M159.131 916.594 Q164.941 916.594 167.997 921.201 Q171.075 925.784 171.075 934.534 Q171.075 943.261 167.997 947.867 Q164.941 952.45 159.131 952.45 Q153.321 952.45 150.242 947.867 Q147.186 943.261 147.186 934.534 Q147.186 925.784 150.242 921.201 Q153.321 916.594 159.131 916.594 Z" fill="#000000" fill-rule="nonzero" fill-opacity="1" /><path clip-path="url(#clip090)" d="M189.293 920.298 Q185.682 920.298 183.853 923.863 Q182.047 927.404 182.047 934.534 Q182.047 941.64 183.853 945.205 Q185.682 948.747 189.293 948.747 Q192.927 948.747 194.733 945.205 Q196.561 941.64 196.561 934.534 Q196.561 927.404 194.733 923.863 Q192.927 920.298 189.293 920.298 M189.293 916.594 Q195.103 916.594 198.158 921.201 Q201.237 925.784 201.237 934.534 Q201.237 943.261 198.158 947.867 Q195.103 952.45 189.293 952.45 Q183.483 952.45 180.404 947.867 Q177.348 943.261 177.348 934.534 Q177.348 925.784 180.404 921.201 Q183.483 916.594 189.293 916.594 Z" fill="#000000" fill-rule="nonzero" fill-opacity="1" /><path clip-path="url(#clip090)" d="M219.455 920.298 Q215.844 920.298 214.015 923.863 Q212.209 927.404 212.209 934.534 Q212.209 941.64 214.015 945.205 Q215.844 948.747 219.455 948.747 Q223.089 948.747 224.894 945.205 Q226.723 941.64 226.723 934.534 Q226.723 927.404 224.894 923.863 Q223.089 920.298 219.455 920.298 M219.455 916.594 Q225.265 916.594 228.32 921.201 Q231.399 925.784 231.399 934.534 Q231.399 943.261 228.32 947.867 Q225.265 952.45 219.455 952.45 Q213.644 952.45 210.566 947.867 Q207.51 943.261 207.51 934.534 Q207.51 925.784 210.566 921.201 Q213.644 916.594 219.455 916.594 Z" fill="#000000" fill-rule="nonzero" fill-opacity="1" /><path clip-path="url(#clip090)" d="M131.816 669.908 L120.011 688.357 L131.816 688.357 L131.816 669.908 M130.589 665.834 L136.469 665.834 L136.469 688.357 L141.399 688.357 L141.399 692.246 L136.469 692.246 L136.469 700.394 L131.816 700.394 L131.816 692.246 L116.214 692.246 L116.214 687.732 L130.589 665.834 Z" fill="#000000" fill-rule="nonzero" fill-opacity="1" /><path clip-path="url(#clip090)" d="M159.131 668.912 Q155.52 668.912 153.691 672.477 Q151.886 676.019 151.886 683.149 Q151.886 690.255 153.691 693.82 Q155.52 697.361 159.131 697.361 Q162.765 697.361 164.571 693.82 Q166.399 690.255 166.399 683.149 Q166.399 676.019 164.571 672.477 Q162.765 668.912 159.131 668.912 M159.131 665.209 Q164.941 665.209 167.997 669.815 Q171.075 674.399 171.075 683.149 Q171.075 691.875 167.997 696.482 Q164.941 701.065 159.131 701.065 Q153.321 701.065 150.242 696.482 Q147.186 691.875 147.186 683.149 Q147.186 674.399 150.242 669.815 Q153.321 665.209 159.131 665.209 Z" fill="#000000" fill-rule="nonzero" fill-opacity="1" /><path clip-path="url(#clip090)" d="M189.293 668.912 Q185.682 668.912 183.853 672.477 Q182.047 676.019 182.047 683.149 Q182.047 690.255 183.853 693.82 Q185.682 697.361 189.293 697.361 Q192.927 697.361 194.733 693.82 Q196.561 690.255 196.561 683.149 Q196.561 676.019 194.733 672.477 Q192.927 668.912 189.293 668.912 M189.293 665.209 Q195.103 665.209 198.158 669.815 Q201.237 674.399 201.237 683.149 Q201.237 691.875 198.158 696.482 Q195.103 701.065 189.293 701.065 Q183.483 701.065 180.404 696.482 Q177.348 691.875 177.348 683.149 Q177.348 674.399 180.404 669.815 Q183.483 665.209 189.293 665.209 Z" fill="#000000" fill-rule="nonzero" fill-opacity="1" /><path clip-path="url(#clip090)" d="M219.455 668.912 Q215.844 668.912 214.015 672.477 Q212.209 676.019 212.209 683.149 Q212.209 690.255 214.015 693.82 Q215.844 697.361 219.455 697.361 Q223.089 697.361 224.894 693.82 Q226.723 690.255 226.723 683.149 Q226.723 676.019 224.894 672.477 Q223.089 668.912 219.455 668.912 M219.455 665.209 Q225.265 665.209 228.32 669.815 Q231.399 674.399 231.399 683.149 Q231.399 691.875 228.32 696.482 Q225.265 701.065 219.455 701.065 Q213.644 701.065 210.566 696.482 Q207.51 691.875 207.51 683.149 Q207.51 674.399 210.566 669.815 Q213.644 665.209 219.455 665.209 Z" fill="#000000" fill-rule="nonzero" fill-opacity="1" /><path clip-path="url(#clip090)" d="M119.015 414.449 L137.372 414.449 L137.372 418.384 L123.298 418.384 L123.298 426.856 Q124.316 426.509 125.335 426.347 Q126.353 426.161 127.372 426.161 Q133.159 426.161 136.538 429.333 Q139.918 432.504 139.918 437.921 Q139.918 443.499 136.446 446.601 Q132.974 449.68 126.654 449.68 Q124.478 449.68 122.21 449.309 Q119.964 448.939 117.557 448.198 L117.557 443.499 Q119.64 444.634 121.863 445.189 Q124.085 445.745 126.562 445.745 Q130.566 445.745 132.904 443.638 Q135.242 441.532 135.242 437.921 Q135.242 434.31 132.904 432.203 Q130.566 430.097 126.562 430.097 Q124.687 430.097 122.812 430.513 Q120.96 430.93 119.015 431.81 L119.015 414.449 Z" fill="#000000" fill-rule="nonzero" fill-opacity="1" /><path clip-path="url(#clip090)" d="M159.131 417.527 Q155.52 417.527 153.691 421.092 Q151.886 424.634 151.886 431.763 Q151.886 438.87 153.691 442.434 Q155.52 445.976 159.131 445.976 Q162.765 445.976 164.571 442.434 Q166.399 438.87 166.399 431.763 Q166.399 424.634 164.571 421.092 Q162.765 417.527 159.131 417.527 M159.131 413.824 Q164.941 413.824 167.997 418.43 Q171.075 423.013 171.075 431.763 Q171.075 440.49 167.997 445.096 Q164.941 449.68 159.131 449.68 Q153.321 449.68 150.242 445.096 Q147.186 440.49 147.186 431.763 Q147.186 423.013 150.242 418.43 Q153.321 413.824 159.131 413.824 Z" fill="#000000" fill-rule="nonzero" fill-opacity="1" /><path clip-path="url(#clip090)" d="M189.293 417.527 Q185.682 417.527 183.853 421.092 Q182.047 424.634 182.047 431.763 Q182.047 438.87 183.853 442.434 Q185.682 445.976 189.293 445.976 Q192.927 445.976 194.733 442.434 Q196.561 438.87 196.561 431.763 Q196.561 424.634 194.733 421.092 Q192.927 417.527 189.293 417.527 M189.293 413.824 Q195.103 413.824 198.158 418.43 Q201.237 423.013 201.237 431.763 Q201.237 440.49 198.158 445.096 Q195.103 449.68 189.293 449.68 Q183.483 449.68 180.404 445.096 Q177.348 440.49 177.348 431.763 Q177.348 423.013 180.404 418.43 Q183.483 413.824 189.293 413.824 Z" fill="#000000" fill-rule="nonzero" fill-opacity="1" /><path clip-path="url(#clip090)" d="M219.455 417.527 Q215.844 417.527 214.015 421.092 Q212.209 424.634 212.209 431.763 Q212.209 438.87 214.015 442.434 Q215.844 445.976 219.455 445.976 Q223.089 445.976 224.894 442.434 Q226.723 438.87 226.723 431.763 Q226.723 424.634 224.894 421.092 Q223.089 417.527 219.455 417.527 M219.455 413.824 Q225.265 413.824 228.32 418.43 Q231.399 423.013 231.399 431.763 Q231.399 440.49 228.32 445.096 Q225.265 449.68 219.455 449.68 Q213.644 449.68 210.566 445.096 Q207.51 440.49 207.51 431.763 Q207.51 423.013 210.566 418.43 Q213.644 413.824 219.455 413.824 Z" fill="#000000" fill-rule="nonzero" fill-opacity="1" /><path clip-path="url(#clip090)" d="M129.548 178.48 Q126.4 178.48 124.548 180.633 Q122.719 182.785 122.719 186.535 Q122.719 190.262 124.548 192.438 Q126.4 194.591 129.548 194.591 Q132.696 194.591 134.525 192.438 Q136.376 190.262 136.376 186.535 Q136.376 182.785 134.525 180.633 Q132.696 178.48 129.548 178.48 M138.83 163.827 L138.83 168.086 Q137.071 167.253 135.265 166.813 Q133.483 166.373 131.724 166.373 Q127.094 166.373 124.64 169.498 Q122.21 172.623 121.863 178.943 Q123.228 176.929 125.288 175.864 Q127.349 174.776 129.825 174.776 Q135.034 174.776 138.043 177.947 Q141.075 181.096 141.075 186.535 Q141.075 191.859 137.927 195.077 Q134.779 198.295 129.548 198.295 Q123.552 198.295 120.381 193.711 Q117.21 189.105 117.21 180.378 Q117.21 172.184 121.099 167.322 Q124.988 162.438 131.538 162.438 Q133.298 162.438 135.08 162.785 Q136.886 163.133 138.83 163.827 Z" fill="#000000" fill-rule="nonzero" fill-opacity="1" /><path clip-path="url(#clip090)" d="M159.131 166.142 Q155.52 166.142 153.691 169.707 Q151.886 173.248 151.886 180.378 Q151.886 187.484 153.691 191.049 Q155.52 194.591 159.131 194.591 Q162.765 194.591 164.571 191.049 Q166.399 187.484 166.399 180.378 Q166.399 173.248 164.571 169.707 Q162.765 166.142 159.131 166.142 M159.131 162.438 Q164.941 162.438 167.997 167.045 Q171.075 171.628 171.075 180.378 Q171.075 189.105 167.997 193.711 Q164.941 198.295 159.131 198.295 Q153.321 198.295 150.242 193.711 Q147.186 189.105 147.186 180.378 Q147.186 171.628 150.242 167.045 Q153.321 162.438 159.131 162.438 Z" fill="#000000" fill-rule="nonzero" fill-opacity="1" /><path clip-path="url(#clip090)" d="M189.293 166.142 Q185.682 166.142 183.853 169.707 Q182.047 173.248 182.047 180.378 Q182.047 187.484 183.853 191.049 Q185.682 194.591 189.293 194.591 Q192.927 194.591 194.733 191.049 Q196.561 187.484 196.561 180.378 Q196.561 173.248 194.733 169.707 Q192.927 166.142 189.293 166.142 M189.293 162.438 Q195.103 162.438 198.158 167.045 Q201.237 171.628 201.237 180.378 Q201.237 189.105 198.158 193.711 Q195.103 198.295 189.293 198.295 Q183.483 198.295 180.404 193.711 Q177.348 189.105 177.348 180.378 Q177.348 171.628 180.404 167.045 Q183.483 162.438 189.293 162.438 Z" fill="#000000" fill-rule="nonzero" fill-opacity="1" /><path clip-path="url(#clip090)" d="M219.455 166.142 Q215.844 166.142 214.015 169.707 Q212.209 173.248 212.209 180.378 Q212.209 187.484 214.015 191.049 Q215.844 194.591 219.455 194.591 Q223.089 194.591 224.894 191.049 Q226.723 187.484 226.723 180.378 Q226.723 173.248 224.894 169.707 Q223.089 166.142 219.455 166.142 M219.455 162.438 Q225.265 162.438 228.32 167.045 Q231.399 171.628 231.399 180.378 Q231.399 189.105 228.32 193.711 Q225.265 198.295 219.455 198.295 Q213.644 198.295 210.566 193.711 Q207.51 189.105 207.51 180.378 Q207.51 171.628 210.566 167.045 Q213.644 162.438 219.455 162.438 Z" fill="#000000" fill-rule="nonzero" fill-opacity="1" /><path clip-path="url(#clip090)" d="M14.1184 1243.67 L14.1184 1234.09 L46.4562 1221.96 L14.1184 1209.77 L14.1184 1200.19 L61.6384 1200.19 L61.6384 1206.46 L19.9112 1206.46 L52.5037 1218.72 L52.5037 1225.18 L19.9112 1237.43 L61.6384 1237.43 L61.6384 1243.67 L14.1184 1243.67 Z" fill="#000000" fill-rule="nonzero" fill-opacity="1" /><path clip-path="url(#clip090)" d="M42.3504 1157.19 L45.2149 1157.19 L45.2149 1184.12 Q51.2623 1183.74 54.4452 1180.49 Q57.5962 1177.21 57.5962 1171.39 Q57.5962 1168.01 56.7687 1164.86 Q55.9411 1161.68 54.2861 1158.56 L59.8242 1158.56 Q61.161 1161.71 61.8612 1165.02 Q62.5615 1168.33 62.5615 1171.74 Q62.5615 1180.27 57.5962 1185.26 Q52.631 1190.23 44.1646 1190.23 Q35.4117 1190.23 30.2873 1185.52 Q25.1311 1180.78 25.1311 1172.76 Q25.1311 1165.56 29.7781 1161.39 Q34.3932 1157.19 42.3504 1157.19 M40.6316 1163.05 Q35.8255 1163.11 32.9609 1165.75 Q30.0964 1168.36 30.0964 1172.69 Q30.0964 1177.59 32.8654 1180.55 Q35.6345 1183.48 40.6634 1183.93 L40.6316 1163.05 Z" fill="#000000" fill-rule="nonzero" fill-opacity="1" /><path clip-path="url(#clip090)" d="M43.719 1131.38 Q43.719 1138.48 45.3422 1141.21 Q46.9655 1143.95 50.8804 1143.95 Q53.9996 1143.95 55.8457 1141.91 Q57.6599 1139.85 57.6599 1136.31 Q57.6599 1131.44 54.2224 1128.51 Q50.7531 1125.55 45.0239 1125.55 L43.719 1125.55 L43.719 1131.38 M41.3 1119.7 L61.6384 1119.7 L61.6384 1125.55 L56.2276 1125.55 Q59.4741 1127.56 61.0337 1130.55 Q62.5615 1133.54 62.5615 1137.87 Q62.5615 1143.35 59.5059 1146.59 Q56.4186 1149.81 51.2623 1149.81 Q45.2467 1149.81 42.1912 1145.8 Q39.1357 1141.75 39.1357 1133.77 L39.1357 1125.55 L38.5628 1125.55 Q34.5205 1125.55 32.3244 1128.23 Q30.0964 1130.87 30.0964 1135.68 Q30.0964 1138.73 30.8284 1141.63 Q31.5605 1144.52 33.0246 1147.2 L27.6137 1147.2 Q26.3724 1143.98 25.7677 1140.96 Q25.1311 1137.94 25.1311 1135.07 Q25.1311 1127.34 29.1415 1123.52 Q33.1519 1119.7 41.3 1119.7 Z" fill="#000000" fill-rule="nonzero" fill-opacity="1" /><path clip-path="url(#clip090)" d="M40.1224 1078 L61.6384 1078 L61.6384 1083.86 L40.3133 1083.86 Q35.2526 1083.86 32.7381 1085.83 Q30.2237 1087.81 30.2237 1091.75 Q30.2237 1096.49 33.2474 1099.23 Q36.2711 1101.97 41.491 1101.97 L61.6384 1101.97 L61.6384 1107.86 L25.9905 1107.86 L25.9905 1101.97 L31.5287 1101.97 Q28.314 1099.87 26.7225 1097.04 Q25.1311 1094.17 25.1311 1090.45 Q25.1311 1084.3 28.9505 1081.15 Q32.7381 1078 40.1224 1078 Z" fill="#000000" fill-rule="nonzero" fill-opacity="1" /><path clip-path="url(#clip090)" d="M14.1184 1051.93 L14.1184 1011.74 L19.5293 1011.74 L19.5293 1028.6 L61.6384 1028.6 L61.6384 1035.07 L19.5293 1035.07 L19.5293 1051.93 L14.1184 1051.93 Z" fill="#000000" fill-rule="nonzero" fill-opacity="1" /><path clip-path="url(#clip090)" d="M30.0964 1003.05 Q30.0964 1007.76 33.7885 1010.49 Q37.4488 1013.23 43.8463 1013.23 Q50.2438 1013.23 53.9359 1010.53 Q57.5962 1007.79 57.5962 1003.05 Q57.5962 998.367 53.9041 995.63 Q50.212 992.893 43.8463 992.893 Q37.5124 992.893 33.8203 995.63 Q30.0964 998.367 30.0964 1003.05 M25.1311 1003.05 Q25.1311 995.407 30.0964 991.047 Q35.0616 986.686 43.8463 986.686 Q52.5991 986.686 57.5962 991.047 Q62.5615 995.407 62.5615 1003.05 Q62.5615 1010.72 57.5962 1015.08 Q52.5991 1019.41 43.8463 1019.41 Q35.0616 1019.41 30.0964 1015.08 Q25.1311 1010.72 25.1311 1003.05 Z" fill="#000000" fill-rule="nonzero" fill-opacity="1" /><path clip-path="url(#clip090)" d="M15.869 971.186 L25.9905 971.186 L25.9905 959.123 L30.542 959.123 L30.542 971.186 L49.8937 971.186 Q54.2542 971.186 55.4955 970.008 Q56.7368 968.799 56.7368 965.138 L56.7368 959.123 L61.6384 959.123 L61.6384 965.138 Q61.6384 971.918 59.124 974.496 Q56.5777 977.074 49.8937 977.074 L30.542 977.074 L30.542 981.371 L25.9905 981.371 L25.9905 977.074 L15.869 977.074 L15.869 971.186 Z" fill="#000000" fill-rule="nonzero" fill-opacity="1" /><path clip-path="url(#clip090)" d="M43.719 935.22 Q43.719 942.317 45.3422 945.055 Q46.9655 947.792 50.8804 947.792 Q53.9996 947.792 55.8457 945.755 Q57.6599 943.686 57.6599 940.153 Q57.6599 935.283 54.2224 932.355 Q50.7531 929.395 45.0239 929.395 L43.719 929.395 L43.719 935.22 M41.3 923.539 L61.6384 923.539 L61.6384 929.395 L56.2276 929.395 Q59.4741 931.4 61.0337 934.392 Q62.5615 937.384 62.5615 941.713 Q62.5615 947.187 59.5059 950.434 Q56.4186 953.648 51.2623 953.648 Q45.2467 953.648 42.1912 949.638 Q39.1357 945.596 39.1357 937.607 L39.1357 929.395 L38.5628 929.395 Q34.5205 929.395 32.3244 932.069 Q30.0964 934.71 30.0964 939.516 Q30.0964 942.572 30.8284 945.468 Q31.5605 948.365 33.0246 951.038 L27.6137 951.038 Q26.3724 947.824 25.7677 944.8 Q25.1311 941.776 25.1311 938.912 Q25.1311 931.177 29.1415 927.358 Q33.1519 923.539 41.3 923.539 Z" fill="#000000" fill-rule="nonzero" fill-opacity="1" /><path clip-path="url(#clip090)" d="M12.1132 911.475 L12.1132 905.619 L61.6384 905.619 L61.6384 911.475 L12.1132 911.475 Z" fill="#000000" fill-rule="nonzero" fill-opacity="1" /><path clip-path="url(#clip090)" d="M14.1184 872.39 L14.1184 865.961 L61.6384 865.961 L61.6384 872.39 L14.1184 872.39 Z" fill="#000000" fill-rule="nonzero" fill-opacity="1" /><path clip-path="url(#clip090)" d="M40.1224 823.788 L61.6384 823.788 L61.6384 829.644 L40.3133 829.644 Q35.2526 829.644 32.7381 831.618 Q30.2237 833.591 30.2237 837.538 Q30.2237 842.28 33.2474 845.018 Q36.2711 847.755 41.491 847.755 L61.6384 847.755 L61.6384 853.643 L25.9905 853.643 L25.9905 847.755 L31.5287 847.755 Q28.314 845.654 26.7225 842.821 Q25.1311 839.957 25.1311 836.233 Q25.1311 830.09 28.9505 826.939 Q32.7381 823.788 40.1224 823.788 Z" fill="#000000" fill-rule="nonzero" fill-opacity="1" /><path clip-path="url(#clip090)" d="M12.1132 794.06 L16.983 794.06 L16.983 799.662 Q16.983 802.813 18.2562 804.054 Q19.5293 805.264 22.8395 805.264 L25.9905 805.264 L25.9905 795.62 L30.542 795.62 L30.542 805.264 L61.6384 805.264 L61.6384 811.152 L30.542 811.152 L30.542 816.754 L25.9905 816.754 L25.9905 811.152 L23.5079 811.152 Q17.5559 811.152 14.8505 808.383 Q12.1132 805.614 12.1132 799.598 L12.1132 794.06 Z" fill="#000000" fill-rule="nonzero" fill-opacity="1" /><path clip-path="url(#clip090)" d="M42.3504 758.667 L45.2149 758.667 L45.2149 785.594 Q51.2623 785.212 54.4452 781.965 Q57.5962 778.687 57.5962 772.862 Q57.5962 769.488 56.7687 766.337 Q55.9411 763.155 54.2861 760.035 L59.8242 760.035 Q61.161 763.186 61.8612 766.497 Q62.5615 769.807 62.5615 773.212 Q62.5615 781.742 57.5962 786.739 Q52.631 791.705 44.1646 791.705 Q35.4117 791.705 30.2873 786.994 Q25.1311 782.252 25.1311 774.231 Q25.1311 767.038 29.7781 762.868 Q34.3932 758.667 42.3504 758.667 M40.6316 764.523 Q35.8255 764.587 32.9609 767.229 Q30.0964 769.839 30.0964 774.167 Q30.0964 779.069 32.8654 782.029 Q35.6345 784.957 40.6634 785.403 L40.6316 764.523 Z" fill="#000000" fill-rule="nonzero" fill-opacity="1" /><path clip-path="url(#clip090)" d="M27.3591 723.401 L32.8336 723.401 Q31.465 725.883 30.7966 728.398 Q30.0964 730.88 30.0964 733.427 Q30.0964 739.124 33.7248 742.275 Q37.3214 745.426 43.8463 745.426 Q50.3711 745.426 53.9996 742.275 Q57.5962 739.124 57.5962 733.427 Q57.5962 730.88 56.9278 728.398 Q56.2276 725.883 54.859 723.401 L60.2698 723.401 Q61.4156 725.851 61.9886 728.493 Q62.5615 731.103 62.5615 734.063 Q62.5615 742.116 57.5007 746.858 Q52.44 751.601 43.8463 751.601 Q35.1253 751.601 30.1282 746.826 Q25.1311 742.02 25.1311 733.681 Q25.1311 730.976 25.704 728.398 Q26.2451 725.82 27.3591 723.401 Z" fill="#000000" fill-rule="nonzero" fill-opacity="1" /><path clip-path="url(#clip090)" d="M15.869 707.423 L25.9905 707.423 L25.9905 695.36 L30.542 695.36 L30.542 707.423 L49.8937 707.423 Q54.2542 707.423 55.4955 706.245 Q56.7368 705.036 56.7368 701.375 L56.7368 695.36 L61.6384 695.36 L61.6384 701.375 Q61.6384 708.155 59.124 710.733 Q56.5777 713.311 49.8937 713.311 L30.542 713.311 L30.542 717.608 L25.9905 717.608 L25.9905 713.311 L15.869 713.311 L15.869 707.423 Z" fill="#000000" fill-rule="nonzero" fill-opacity="1" /><path clip-path="url(#clip090)" d="M42.3504 657.166 L45.2149 657.166 L45.2149 684.092 Q51.2623 683.711 54.4452 680.464 Q57.5962 677.186 57.5962 671.361 Q57.5962 667.987 56.7687 664.836 Q55.9411 661.653 54.2861 658.534 L59.8242 658.534 Q61.161 661.685 61.8612 664.995 Q62.5615 668.306 62.5615 671.711 Q62.5615 680.241 57.5962 685.238 Q52.631 690.204 44.1646 690.204 Q35.4117 690.204 30.2873 685.493 Q25.1311 680.75 25.1311 672.73 Q25.1311 665.536 29.7781 661.367 Q34.3932 657.166 42.3504 657.166 M40.6316 663.022 Q35.8255 663.086 32.9609 665.727 Q30.0964 668.337 30.0964 672.666 Q30.0964 677.568 32.8654 680.528 Q35.6345 683.456 40.6634 683.901 L40.6316 663.022 Z" fill="#000000" fill-rule="nonzero" fill-opacity="1" /><path clip-path="url(#clip090)" d="M31.4013 624.096 L12.1132 624.096 L12.1132 618.239 L61.6384 618.239 L61.6384 624.096 L56.2912 624.096 Q59.4741 625.942 61.0337 628.774 Q62.5615 631.575 62.5615 635.522 Q62.5615 641.983 57.4052 646.057 Q52.249 650.1 43.8463 650.1 Q35.4436 650.1 30.2873 646.057 Q25.1311 641.983 25.1311 635.522 Q25.1311 631.575 26.6907 628.774 Q28.2185 625.942 31.4013 624.096 M43.8463 644.052 Q50.3075 644.052 53.9996 641.41 Q57.6599 638.737 57.6599 634.09 Q57.6599 629.443 53.9996 626.769 Q50.3075 624.096 43.8463 624.096 Q37.3851 624.096 33.7248 626.769 Q30.0327 629.443 30.0327 634.09 Q30.0327 638.737 33.7248 641.41 Q37.3851 644.052 43.8463 644.052 Z" fill="#000000" fill-rule="nonzero" fill-opacity="1" /><path clip-path="url(#clip090)" d="M429.84 12.096 L468.08 12.096 L468.08 18.9825 L438.022 18.9825 L438.022 36.8875 L466.824 36.8875 L466.824 43.7741 L438.022 43.7741 L438.022 65.6895 L468.809 65.6895 L468.809 72.576 L429.84 72.576 L429.84 12.096 Z" fill="#000000" fill-rule="nonzero" fill-opacity="1" /><path clip-path="url(#clip090)" d="M504.903 9.54393 L504.903 15.7418 L497.773 15.7418 Q493.763 15.7418 492.183 17.3622 Q490.644 18.9825 490.644 23.1955 L490.644 27.2059 L502.918 27.2059 L502.918 32.9987 L490.644 32.9987 L490.644 72.576 L483.15 72.576 L483.15 32.9987 L476.02 32.9987 L476.02 27.2059 L483.15 27.2059 L483.15 24.0462 Q483.15 16.471 486.674 13.0277 Q490.198 9.54393 497.854 9.54393 L504.903 9.54393 Z" fill="#000000" fill-rule="nonzero" fill-opacity="1" /><path clip-path="url(#clip090)" d="M534.11 9.54393 L534.11 15.7418 L526.98 15.7418 Q522.97 15.7418 521.39 17.3622 Q519.851 18.9825 519.851 23.1955 L519.851 27.2059 L532.125 27.2059 L532.125 32.9987 L519.851 32.9987 L519.851 72.576 L512.357 72.576 L512.357 32.9987 L505.227 32.9987 L505.227 27.2059 L512.357 27.2059 L512.357 24.0462 Q512.357 16.471 515.881 13.0277 Q519.405 9.54393 527.061 9.54393 L534.11 9.54393 Z" fill="#000000" fill-rule="nonzero" fill-opacity="1" /><path clip-path="url(#clip090)" d="M579.156 48.0275 L579.156 51.6733 L544.885 51.6733 Q545.371 59.3701 549.503 63.421 Q553.676 67.4314 561.089 67.4314 Q565.383 67.4314 569.393 66.3781 Q573.444 65.3249 577.414 63.2184 L577.414 70.267 Q573.404 71.9684 569.191 72.8596 Q564.978 73.7508 560.643 73.7508 Q549.787 73.7508 543.427 67.4314 Q537.108 61.1119 537.108 50.3365 Q537.108 39.1965 543.103 32.6746 Q549.139 26.1121 559.347 26.1121 Q568.502 26.1121 573.809 32.0264 Q579.156 37.9003 579.156 48.0275 M571.702 45.84 Q571.621 39.7232 568.259 36.0774 Q564.937 32.4315 559.428 32.4315 Q553.19 32.4315 549.422 35.9558 Q545.695 39.4801 545.128 45.8805 L571.702 45.84 Z" fill="#000000" fill-rule="nonzero" fill-opacity="1" /><path clip-path="url(#clip090)" d="M624.04 28.9478 L624.04 35.9153 Q620.88 34.1734 617.68 33.3227 Q614.52 32.4315 611.28 32.4315 Q604.028 32.4315 600.018 37.0496 Q596.008 41.6271 596.008 49.9314 Q596.008 58.2358 600.018 62.8538 Q604.028 67.4314 611.28 67.4314 Q614.52 67.4314 617.68 66.5807 Q620.88 65.6895 624.04 63.9476 L624.04 70.8341 Q620.921 72.2924 617.559 73.0216 Q614.237 73.7508 610.469 73.7508 Q600.221 73.7508 594.185 67.3098 Q588.149 60.8689 588.149 49.9314 Q588.149 38.832 594.225 32.472 Q600.342 26.1121 610.956 26.1121 Q614.399 26.1121 617.68 26.8413 Q620.961 27.5299 624.04 28.9478 Z" fill="#000000" fill-rule="nonzero" fill-opacity="1" /><path clip-path="url(#clip090)" d="M644.375 14.324 L644.375 27.2059 L659.728 27.2059 L659.728 32.9987 L644.375 32.9987 L644.375 57.6282 Q644.375 63.1779 645.874 64.7578 Q647.414 66.3376 652.072 66.3376 L659.728 66.3376 L659.728 72.576 L652.072 72.576 Q643.444 72.576 640.163 69.3758 Q636.881 66.1351 636.881 57.6282 L636.881 32.9987 L631.413 32.9987 L631.413 27.2059 L636.881 27.2059 L636.881 14.324 L644.375 14.324 Z" fill="#000000" fill-rule="nonzero" fill-opacity="1" /><path clip-path="url(#clip090)" d="M713.484 32.4315 Q707.489 32.4315 704.005 37.1306 Q700.521 41.7891 700.521 49.9314 Q700.521 58.0738 703.964 62.7728 Q707.448 67.4314 713.484 67.4314 Q719.439 67.4314 722.923 62.7323 Q726.406 58.0333 726.406 49.9314 Q726.406 41.8701 722.923 37.1711 Q719.439 32.4315 713.484 32.4315 M713.484 26.1121 Q723.206 26.1121 728.756 32.4315 Q734.306 38.7509 734.306 49.9314 Q734.306 61.0714 728.756 67.4314 Q723.206 73.7508 713.484 73.7508 Q703.721 73.7508 698.171 67.4314 Q692.662 61.0714 692.662 49.9314 Q692.662 38.7509 698.171 32.4315 Q703.721 26.1121 713.484 26.1121 Z" fill="#000000" fill-rule="nonzero" fill-opacity="1" /><path clip-path="url(#clip090)" d="M769.629 9.54393 L769.629 15.7418 L762.5 15.7418 Q758.489 15.7418 756.91 17.3622 Q755.37 18.9825 755.37 23.1955 L755.37 27.2059 L767.645 27.2059 L767.645 32.9987 L755.37 32.9987 L755.37 72.576 L747.876 72.576 L747.876 32.9987 L740.747 32.9987 L740.747 27.2059 L747.876 27.2059 L747.876 24.0462 Q747.876 16.471 751.4 13.0277 Q754.925 9.54393 762.581 9.54393 L769.629 9.54393 Z" fill="#000000" fill-rule="nonzero" fill-opacity="1" /><path clip-path="url(#clip090)" d="M810.746 18.8205 L810.746 65.8515 L820.63 65.8515 Q833.148 65.8515 838.94 60.1802 Q844.774 54.509 844.774 42.2752 Q844.774 30.1225 838.94 24.4918 Q833.148 18.8205 820.63 18.8205 L810.746 18.8205 M802.563 12.096 L819.375 12.096 Q836.955 12.096 845.179 19.4281 Q853.402 26.7198 853.402 42.2752 Q853.402 57.9117 845.138 65.2439 Q836.874 72.576 819.375 72.576 L802.563 72.576 L802.563 12.096 Z" fill="#000000" fill-rule="nonzero" fill-opacity="1" /><path clip-path="url(#clip090)" d="M904.93 48.0275 L904.93 51.6733 L870.659 51.6733 Q871.145 59.3701 875.277 63.421 Q879.449 67.4314 886.863 67.4314 Q891.157 67.4314 895.167 66.3781 Q899.218 65.3249 903.188 63.2184 L903.188 70.267 Q899.177 71.9684 894.964 72.8596 Q890.751 73.7508 886.417 73.7508 Q875.561 73.7508 869.201 67.4314 Q862.881 61.1119 862.881 50.3365 Q862.881 39.1965 868.877 32.6746 Q874.912 26.1121 885.121 26.1121 Q894.276 26.1121 899.582 32.0264 Q904.93 37.9003 904.93 48.0275 M897.476 45.84 Q897.395 39.7232 894.033 36.0774 Q890.711 32.4315 885.202 32.4315 Q878.963 32.4315 875.196 35.9558 Q871.469 39.4801 870.902 45.8805 L897.476 45.84 Z" fill="#000000" fill-rule="nonzero" fill-opacity="1" /><path clip-path="url(#clip090)" d="M917.163 9.54393 L924.617 9.54393 L924.617 72.576 L917.163 72.576 L917.163 9.54393 Z" fill="#000000" fill-rule="nonzero" fill-opacity="1" /><path clip-path="url(#clip090)" d="M960.832 49.7694 Q951.799 49.7694 948.315 51.8354 Q944.831 53.9013 944.831 58.8839 Q944.831 62.8538 947.424 65.2034 Q950.057 67.5124 954.553 67.5124 Q960.751 67.5124 964.478 63.1374 Q968.245 58.7219 968.245 51.4303 L968.245 49.7694 L960.832 49.7694 M975.699 46.6907 L975.699 72.576 L968.245 72.576 L968.245 65.6895 Q965.693 69.8214 961.885 71.8063 Q958.078 73.7508 952.568 73.7508 Q945.601 73.7508 941.469 69.8619 Q937.377 65.9325 937.377 59.3701 Q937.377 51.7138 942.482 47.825 Q947.626 43.9361 957.794 43.9361 L968.245 43.9361 L968.245 43.2069 Q968.245 38.0623 964.843 35.2672 Q961.48 32.4315 955.363 32.4315 Q951.475 32.4315 947.788 33.3632 Q944.102 34.295 940.699 36.1584 L940.699 29.2718 Q944.791 27.692 948.639 26.9223 Q952.487 26.1121 956.133 26.1121 Q965.977 26.1121 970.838 31.2163 Q975.699 36.3204 975.699 46.6907 Z" fill="#000000" fill-rule="nonzero" fill-opacity="1" /><path clip-path="url(#clip090)" d="M1009.93 76.7889 Q1006.77 84.8907 1003.77 87.3618 Q1000.77 89.8329 995.751 89.8329 L989.796 89.8329 L989.796 83.5945 L994.171 83.5945 Q997.25 83.5945 998.951 82.1361 Q1000.65 80.6778 1002.72 75.2496 L1004.06 71.8468 L985.705 27.2059 L993.604 27.2059 L1007.78 62.6918 L1021.96 27.2059 L1029.86 27.2059 L1009.93 76.7889 Z" fill="#000000" fill-rule="nonzero" fill-opacity="1" /><path clip-path="url(#clip090)" d="M1112.13 16.7545 L1112.13 25.383 Q1108 21.5346 1103.3 19.6307 Q1098.64 17.7268 1093.38 17.7268 Q1083.01 17.7268 1077.5 24.0867 Q1071.99 30.4061 1071.99 42.3968 Q1071.99 54.3469 1077.5 60.7069 Q1083.01 67.0263 1093.38 67.0263 Q1098.64 67.0263 1103.3 65.1223 Q1108 63.2184 1112.13 59.3701 L1112.13 67.9175 Q1107.84 70.8341 1103.02 72.2924 Q1098.24 73.7508 1092.89 73.7508 Q1079.16 73.7508 1071.26 65.3654 Q1063.36 56.9395 1063.36 42.3968 Q1063.36 27.8135 1071.26 19.4281 Q1079.16 11.0023 1092.89 11.0023 Q1098.32 11.0023 1103.1 12.4606 Q1107.92 13.8784 1112.13 16.7545 Z" fill="#000000" fill-rule="nonzero" fill-opacity="1" /><path clip-path="url(#clip090)" d="M1142.03 32.4315 Q1136.03 32.4315 1132.55 37.1306 Q1129.07 41.7891 1129.07 49.9314 Q1129.07 58.0738 1132.51 62.7728 Q1135.99 67.4314 1142.03 67.4314 Q1147.98 67.4314 1151.47 62.7323 Q1154.95 58.0333 1154.95 49.9314 Q1154.95 41.8701 1151.47 37.1711 Q1147.98 32.4315 1142.03 32.4315 M1142.03 26.1121 Q1151.75 26.1121 1157.3 32.4315 Q1162.85 38.7509 1162.85 49.9314 Q1162.85 61.0714 1157.3 67.4314 Q1151.75 73.7508 1142.03 73.7508 Q1132.27 73.7508 1126.72 67.4314 Q1121.21 61.0714 1121.21 49.9314 Q1121.21 38.7509 1126.72 32.4315 Q1132.27 26.1121 1142.03 26.1121 Z" fill="#000000" fill-rule="nonzero" fill-opacity="1" /><path clip-path="url(#clip090)" d="M1210.53 35.9153 Q1213.32 30.8922 1217.21 28.5022 Q1221.1 26.1121 1226.37 26.1121 Q1233.46 26.1121 1237.31 31.0947 Q1241.15 36.0368 1241.15 45.1919 L1241.15 72.576 L1233.66 72.576 L1233.66 45.4349 Q1233.66 38.913 1231.35 35.7533 Q1229.04 32.5936 1224.3 32.5936 Q1218.51 32.5936 1215.15 36.4419 Q1211.79 40.2903 1211.79 46.9338 L1211.79 72.576 L1204.29 72.576 L1204.29 45.4349 Q1204.29 38.8725 1201.98 35.7533 Q1199.67 32.5936 1194.85 32.5936 Q1189.14 32.5936 1185.78 36.4824 Q1182.42 40.3308 1182.42 46.9338 L1182.42 72.576 L1174.92 72.576 L1174.92 27.2059 L1182.42 27.2059 L1182.42 34.2544 Q1184.97 30.082 1188.53 28.0971 Q1192.1 26.1121 1197 26.1121 Q1201.94 26.1121 1205.39 28.6237 Q1208.87 31.1352 1210.53 35.9153 Z" fill="#000000" fill-rule="nonzero" fill-opacity="1" /><path clip-path="url(#clip090)" d="M1263.23 65.7705 L1263.23 89.8329 L1255.74 89.8329 L1255.74 27.2059 L1263.23 27.2059 L1263.23 34.0924 Q1265.58 30.0415 1269.15 28.0971 Q1272.75 26.1121 1277.73 26.1121 Q1286 26.1121 1291.14 32.6746 Q1296.33 39.2371 1296.33 49.9314 Q1296.33 60.6258 1291.14 67.1883 Q1286 73.7508 1277.73 73.7508 Q1272.75 73.7508 1269.15 71.8063 Q1265.58 69.8214 1263.23 65.7705 M1288.59 49.9314 Q1288.59 41.7081 1285.19 37.0496 Q1281.83 32.3505 1275.91 32.3505 Q1270 32.3505 1266.59 37.0496 Q1263.23 41.7081 1263.23 49.9314 Q1263.23 58.1548 1266.59 62.8538 Q1270 67.5124 1275.91 67.5124 Q1281.83 67.5124 1285.19 62.8538 Q1288.59 58.1548 1288.59 49.9314 Z" fill="#000000" fill-rule="nonzero" fill-opacity="1" /><path clip-path="url(#clip090)" d="M1329.3 49.7694 Q1320.27 49.7694 1316.79 51.8354 Q1313.3 53.9013 1313.3 58.8839 Q1313.3 62.8538 1315.89 65.2034 Q1318.53 67.5124 1323.02 67.5124 Q1329.22 67.5124 1332.95 63.1374 Q1336.72 58.7219 1336.72 51.4303 L1336.72 49.7694 L1329.3 49.7694 M1344.17 46.6907 L1344.17 72.576 L1336.72 72.576 L1336.72 65.6895 Q1334.16 69.8214 1330.36 71.8063 Q1326.55 73.7508 1321.04 73.7508 Q1314.07 73.7508 1309.94 69.8619 Q1305.85 65.9325 1305.85 59.3701 Q1305.85 51.7138 1310.95 47.825 Q1316.1 43.9361 1326.26 43.9361 L1336.72 43.9361 L1336.72 43.2069 Q1336.72 38.0623 1333.31 35.2672 Q1329.95 32.4315 1323.83 32.4315 Q1319.94 32.4315 1316.26 33.3632 Q1312.57 34.295 1309.17 36.1584 L1309.17 29.2718 Q1313.26 27.692 1317.11 26.9223 Q1320.96 26.1121 1324.6 26.1121 Q1334.45 26.1121 1339.31 31.2163 Q1344.17 36.3204 1344.17 46.6907 Z" fill="#000000" fill-rule="nonzero" fill-opacity="1" /><path clip-path="url(#clip090)" d="M1385.81 34.1734 Q1384.56 33.4443 1383.06 33.1202 Q1381.6 32.7556 1379.82 32.7556 Q1373.5 32.7556 1370.09 36.8875 Q1366.73 40.9789 1366.73 48.6757 L1366.73 72.576 L1359.24 72.576 L1359.24 27.2059 L1366.73 27.2059 L1366.73 34.2544 Q1369.08 30.1225 1372.85 28.1376 Q1376.62 26.1121 1382 26.1121 Q1382.77 26.1121 1383.71 26.2337 Q1384.64 26.3147 1385.77 26.5172 L1385.81 34.1734 Z" fill="#000000" fill-rule="nonzero" fill-opacity="1" /><path clip-path="url(#clip090)" d="M1401 14.324 L1401 27.2059 L1416.36 27.2059 L1416.36 32.9987 L1401 32.9987 L1401 57.6282 Q1401 63.1779 1402.5 64.7578 Q1404.04 66.3376 1408.7 66.3376 L1416.36 66.3376 L1416.36 72.576 L1408.7 72.576 Q1400.07 72.576 1396.79 69.3758 Q1393.51 66.1351 1393.51 57.6282 L1393.51 32.9987 L1388.04 32.9987 L1388.04 27.2059 L1393.51 27.2059 L1393.51 14.324 L1401 14.324 Z" fill="#000000" fill-rule="nonzero" fill-opacity="1" /><path clip-path="url(#clip090)" d="M1461.48 35.9153 Q1464.28 30.8922 1468.17 28.5022 Q1472.06 26.1121 1477.32 26.1121 Q1484.41 26.1121 1488.26 31.0947 Q1492.11 36.0368 1492.11 45.1919 L1492.11 72.576 L1484.61 72.576 L1484.61 45.4349 Q1484.61 38.913 1482.31 35.7533 Q1480 32.5936 1475.26 32.5936 Q1469.46 32.5936 1466.1 36.4419 Q1462.74 40.2903 1462.74 46.9338 L1462.74 72.576 L1455.24 72.576 L1455.24 45.4349 Q1455.24 38.8725 1452.94 35.7533 Q1450.63 32.5936 1445.81 32.5936 Q1440.09 32.5936 1436.73 36.4824 Q1433.37 40.3308 1433.37 46.9338 L1433.37 72.576 L1425.88 72.576 L1425.88 27.2059 L1433.37 27.2059 L1433.37 34.2544 Q1435.92 30.082 1439.49 28.0971 Q1443.05 26.1121 1447.95 26.1121 Q1452.9 26.1121 1456.34 28.6237 Q1459.82 31.1352 1461.48 35.9153 Z" fill="#000000" fill-rule="nonzero" fill-opacity="1" /><path clip-path="url(#clip090)" d="M1545.78 48.0275 L1545.78 51.6733 L1511.51 51.6733 Q1512 59.3701 1516.13 63.421 Q1520.3 67.4314 1527.72 67.4314 Q1532.01 67.4314 1536.02 66.3781 Q1540.07 65.3249 1544.04 63.2184 L1544.04 70.267 Q1540.03 71.9684 1535.82 72.8596 Q1531.6 73.7508 1527.27 73.7508 Q1516.41 73.7508 1510.05 67.4314 Q1503.73 61.1119 1503.73 50.3365 Q1503.73 39.1965 1509.73 32.6746 Q1515.77 26.1121 1525.97 26.1121 Q1535.13 26.1121 1540.44 32.0264 Q1545.78 37.9003 1545.78 48.0275 M1538.33 45.84 Q1538.25 39.7232 1534.89 36.0774 Q1531.56 32.4315 1526.05 32.4315 Q1519.82 32.4315 1516.05 35.9558 Q1512.32 39.4801 1511.76 45.8805 L1538.33 45.84 Z" fill="#000000" fill-rule="nonzero" fill-opacity="1" /><path clip-path="url(#clip090)" d="M1595.73 45.1919 L1595.73 72.576 L1588.28 72.576 L1588.28 45.4349 Q1588.28 38.994 1585.77 35.7938 Q1583.25 32.5936 1578.23 32.5936 Q1572.19 32.5936 1568.71 36.4419 Q1565.23 40.2903 1565.23 46.9338 L1565.23 72.576 L1557.73 72.576 L1557.73 27.2059 L1565.23 27.2059 L1565.23 34.2544 Q1567.9 30.163 1571.51 28.1376 Q1575.15 26.1121 1579.89 26.1121 Q1587.71 26.1121 1591.72 30.9732 Q1595.73 35.7938 1595.73 45.1919 Z" fill="#000000" fill-rule="nonzero" fill-opacity="1" /><path clip-path="url(#clip090)" d="M1617.97 14.324 L1617.97 27.2059 L1633.32 27.2059 L1633.32 32.9987 L1617.97 32.9987 L1617.97 57.6282 Q1617.97 63.1779 1619.47 64.7578 Q1621.01 66.3376 1625.67 66.3376 L1633.32 66.3376 L1633.32 72.576 L1625.67 72.576 Q1617.04 72.576 1613.76 69.3758 Q1610.48 66.1351 1610.48 57.6282 L1610.48 32.9987 L1605.01 32.9987 L1605.01 27.2059 L1610.48 27.2059 L1610.48 14.324 L1617.97 14.324 Z" fill="#000000" fill-rule="nonzero" fill-opacity="1" /><path clip-path="url(#clip090)" d="M1672.05 28.5427 L1672.05 35.5912 Q1668.89 33.9709 1665.49 33.1607 Q1662.08 32.3505 1658.44 32.3505 Q1652.89 32.3505 1650.09 34.0519 Q1647.34 35.7533 1647.34 39.156 Q1647.34 41.7486 1649.32 43.2475 Q1651.31 44.7058 1657.3 46.0426 L1659.86 46.6097 Q1667.8 48.3111 1671.12 51.4303 Q1674.48 54.509 1674.48 60.0587 Q1674.48 66.3781 1669.46 70.0644 Q1664.47 73.7508 1655.72 73.7508 Q1652.08 73.7508 1648.11 73.0216 Q1644.18 72.3329 1639.8 70.9151 L1639.8 63.2184 Q1643.94 65.3654 1647.95 66.4591 Q1651.96 67.5124 1655.89 67.5124 Q1661.15 67.5124 1663.99 65.73 Q1666.82 63.9071 1666.82 60.6258 Q1666.82 57.5877 1664.76 55.9673 Q1662.73 54.3469 1655.81 52.8481 L1653.21 52.2405 Q1646.29 50.7821 1643.21 47.7845 Q1640.13 44.7463 1640.13 39.4801 Q1640.13 33.0797 1644.67 29.5959 Q1649.2 26.1121 1657.55 26.1121 Q1661.68 26.1121 1665.32 26.7198 Q1668.97 27.3274 1672.05 28.5427 Z" fill="#000000" fill-rule="nonzero" fill-opacity="1" /><path clip-path="url(#clip090)" d="M1730.3 32.4315 Q1724.31 32.4315 1720.82 37.1306 Q1717.34 41.7891 1717.34 49.9314 Q1717.34 58.0738 1720.78 62.7728 Q1724.27 67.4314 1730.3 67.4314 Q1736.26 67.4314 1739.74 62.7323 Q1743.22 58.0333 1743.22 49.9314 Q1743.22 41.8701 1739.74 37.1711 Q1736.26 32.4315 1730.3 32.4315 M1730.3 26.1121 Q1740.02 26.1121 1745.57 32.4315 Q1751.12 38.7509 1751.12 49.9314 Q1751.12 61.0714 1745.57 67.4314 Q1740.02 73.7508 1730.3 73.7508 Q1720.54 73.7508 1714.99 67.4314 Q1709.48 61.0714 1709.48 49.9314 Q1709.48 38.7509 1714.99 32.4315 Q1720.54 26.1121 1730.3 26.1121 Z" fill="#000000" fill-rule="nonzero" fill-opacity="1" /><path clip-path="url(#clip090)" d="M1801.19 45.1919 L1801.19 72.576 L1793.74 72.576 L1793.74 45.4349 Q1793.74 38.994 1791.23 35.7938 Q1788.72 32.5936 1783.69 32.5936 Q1777.66 32.5936 1774.17 36.4419 Q1770.69 40.2903 1770.69 46.9338 L1770.69 72.576 L1763.19 72.576 L1763.19 27.2059 L1770.69 27.2059 L1770.69 34.2544 Q1773.36 30.163 1776.97 28.1376 Q1780.61 26.1121 1785.35 26.1121 Q1793.17 26.1121 1797.18 30.9732 Q1801.19 35.7938 1801.19 45.1919 Z" fill="#000000" fill-rule="nonzero" fill-opacity="1" /><path clip-path="url(#clip090)" d="M1842.75 12.096 L1881 12.096 L1881 18.9825 L1850.94 18.9825 L1850.94 36.8875 L1879.74 36.8875 L1879.74 43.7741 L1850.94 43.7741 L1850.94 65.6895 L1881.72 65.6895 L1881.72 72.576 L1842.75 72.576 L1842.75 12.096 Z" fill="#000000" fill-rule="nonzero" fill-opacity="1" /><path clip-path="url(#clip090)" d="M1902.06 65.7705 L1902.06 89.8329 L1894.57 89.8329 L1894.57 27.2059 L1902.06 27.2059 L1902.06 34.0924 Q1904.41 30.0415 1907.97 28.0971 Q1911.58 26.1121 1916.56 26.1121 Q1924.83 26.1121 1929.97 32.6746 Q1935.16 39.2371 1935.16 49.9314 Q1935.16 60.6258 1929.97 67.1883 Q1924.83 73.7508 1916.56 73.7508 Q1911.58 73.7508 1907.97 71.8063 Q1904.41 69.8214 1902.06 65.7705 M1927.42 49.9314 Q1927.42 41.7081 1924.02 37.0496 Q1920.65 32.3505 1914.74 32.3505 Q1908.82 32.3505 1905.42 37.0496 Q1902.06 41.7081 1902.06 49.9314 Q1902.06 58.1548 1905.42 62.8538 Q1908.82 67.5124 1914.74 67.5124 Q1920.65 67.5124 1924.02 62.8538 Q1927.42 58.1548 1927.42 49.9314 Z" fill="#000000" fill-rule="nonzero" fill-opacity="1" /><path clip-path="url(#clip090)" d="M1947.51 27.2059 L1954.96 27.2059 L1954.96 72.576 L1947.51 72.576 L1947.51 27.2059 M1947.51 9.54393 L1954.96 9.54393 L1954.96 18.9825 L1947.51 18.9825 L1947.51 9.54393 Z" fill="#000000" fill-rule="nonzero" fill-opacity="1" /><path clip-path="url(#clip090)" d="M2000.42 34.0924 L2000.42 9.54393 L2007.87 9.54393 L2007.87 72.576 L2000.42 72.576 L2000.42 65.7705 Q1998.07 69.8214 1994.46 71.8063 Q1990.9 73.7508 1985.87 73.7508 Q1977.65 73.7508 1972.46 67.1883 Q1967.32 60.6258 1967.32 49.9314 Q1967.32 39.2371 1972.46 32.6746 Q1977.65 26.1121 1985.87 26.1121 Q1990.9 26.1121 1994.46 28.0971 Q1998.07 30.0415 2000.42 34.0924 M1975.02 49.9314 Q1975.02 58.1548 1978.38 62.8538 Q1981.78 67.5124 1987.7 67.5124 Q1993.61 67.5124 1997.01 62.8538 Q2000.42 58.1548 2000.42 49.9314 Q2000.42 41.7081 1997.01 37.0496 Q1993.61 32.3505 1987.7 32.3505 Q1981.78 32.3505 1978.38 37.0496 Q1975.02 41.7081 1975.02 49.9314 Z" fill="#000000" fill-rule="nonzero" fill-opacity="1" /><path clip-path="url(#clip090)" d="M2062.03 48.0275 L2062.03 51.6733 L2027.76 51.6733 Q2028.25 59.3701 2032.38 63.421 Q2036.55 67.4314 2043.96 67.4314 Q2048.26 67.4314 2052.27 66.3781 Q2056.32 65.3249 2060.29 63.2184 L2060.29 70.267 Q2056.28 71.9684 2052.06 72.8596 Q2047.85 73.7508 2043.52 73.7508 Q2032.66 73.7508 2026.3 67.4314 Q2019.98 61.1119 2019.98 50.3365 Q2019.98 39.1965 2025.98 32.6746 Q2032.01 26.1121 2042.22 26.1121 Q2051.38 26.1121 2056.68 32.0264 Q2062.03 37.9003 2062.03 48.0275 M2054.58 45.84 Q2054.5 39.7232 2051.13 36.0774 Q2047.81 32.4315 2042.3 32.4315 Q2036.06 32.4315 2032.3 35.9558 Q2028.57 39.4801 2028 45.8805 L2054.58 45.84 Z" fill="#000000" fill-rule="nonzero" fill-opacity="1" /><path clip-path="url(#clip090)" d="M2109.59 35.9153 Q2112.38 30.8922 2116.27 28.5022 Q2120.16 26.1121 2125.43 26.1121 Q2132.52 26.1121 2136.36 31.0947 Q2140.21 36.0368 2140.21 45.1919 L2140.21 72.576 L2132.72 72.576 L2132.72 45.4349 Q2132.72 38.913 2130.41 35.7533 Q2128.1 32.5936 2123.36 32.5936 Q2117.57 32.5936 2114.21 36.4419 Q2110.84 40.2903 2110.84 46.9338 L2110.84 72.576 L2103.35 72.576 L2103.35 45.4349 Q2103.35 38.8725 2101.04 35.7533 Q2098.73 32.5936 2093.91 32.5936 Q2088.2 32.5936 2084.84 36.4824 Q2081.47 40.3308 2081.47 46.9338 L2081.47 72.576 L2073.98 72.576 L2073.98 27.2059 L2081.47 27.2059 L2081.47 34.2544 Q2084.03 30.082 2087.59 28.0971 Q2091.16 26.1121 2096.06 26.1121 Q2101 26.1121 2104.44 28.6237 Q2107.93 31.1352 2109.59 35.9153 Z" fill="#000000" fill-rule="nonzero" fill-opacity="1" /><path clip-path="url(#clip090)" d="M2155.08 27.2059 L2162.53 27.2059 L2162.53 72.576 L2155.08 72.576 L2155.08 27.2059 M2155.08 9.54393 L2162.53 9.54393 L2162.53 18.9825 L2155.08 18.9825 L2155.08 9.54393 Z" fill="#000000" fill-rule="nonzero" fill-opacity="1" /><path clip-path="url(#clip090)" d="M2210.78 28.9478 L2210.78 35.9153 Q2207.62 34.1734 2204.42 33.3227 Q2201.26 32.4315 2198.02 32.4315 Q2190.77 32.4315 2186.76 37.0496 Q2182.75 41.6271 2182.75 49.9314 Q2182.75 58.2358 2186.76 62.8538 Q2190.77 67.4314 2198.02 67.4314 Q2201.26 67.4314 2204.42 66.5807 Q2207.62 65.6895 2210.78 63.9476 L2210.78 70.8341 Q2207.66 72.2924 2204.3 73.0216 Q2200.98 73.7508 2197.21 73.7508 Q2186.96 73.7508 2180.92 67.3098 Q2174.89 60.8689 2174.89 49.9314 Q2174.89 38.832 2180.96 32.472 Q2187.08 26.1121 2197.69 26.1121 Q2201.14 26.1121 2204.42 26.8413 Q2207.7 27.5299 2210.78 28.9478 Z" fill="#000000" fill-rule="nonzero" fill-opacity="1" /><path clip-path="url(#clip090)" d="M2295.73 16.7545 L2295.73 25.383 Q2291.59 21.5346 2286.9 19.6307 Q2282.24 17.7268 2276.97 17.7268 Q2266.6 17.7268 2261.09 24.0867 Q2255.58 30.4061 2255.58 42.3968 Q2255.58 54.3469 2261.09 60.7069 Q2266.6 67.0263 2276.97 67.0263 Q2282.24 67.0263 2286.9 65.1223 Q2291.59 63.2184 2295.73 59.3701 L2295.73 67.9175 Q2291.43 70.8341 2286.61 72.2924 Q2281.83 73.7508 2276.48 73.7508 Q2262.75 73.7508 2254.85 65.3654 Q2246.95 56.9395 2246.95 42.3968 Q2246.95 27.8135 2254.85 19.4281 Q2262.75 11.0023 2276.48 11.0023 Q2281.91 11.0023 2286.69 12.4606 Q2291.51 13.8784 2295.73 16.7545 Z" fill="#000000" fill-rule="nonzero" fill-opacity="1" /><path clip-path="url(#clip090)" d="M2307.27 54.671 L2307.27 27.2059 L2314.73 27.2059 L2314.73 54.3874 Q2314.73 60.8284 2317.24 64.0691 Q2319.75 67.2693 2324.77 67.2693 Q2330.81 67.2693 2334.29 63.421 Q2337.82 59.5726 2337.82 52.9291 L2337.82 27.2059 L2345.27 27.2059 L2345.27 72.576 L2337.82 72.576 L2337.82 65.6084 Q2335.1 69.7404 2331.5 71.7658 Q2327.93 73.7508 2323.19 73.7508 Q2315.37 73.7508 2311.32 68.8897 Q2307.27 64.0286 2307.27 54.671 M2326.03 26.1121 L2326.03 26.1121 Z" fill="#000000" fill-rule="nonzero" fill-opacity="1" /><path clip-path="url(#clip090)" d="M2386.91 34.1734 Q2385.66 33.4443 2384.16 33.1202 Q2382.7 32.7556 2380.92 32.7556 Q2374.6 32.7556 2371.19 36.8875 Q2367.83 40.9789 2367.83 48.6757 L2367.83 72.576 L2360.34 72.576 L2360.34 27.2059 L2367.83 27.2059 L2367.83 34.2544 Q2370.18 30.1225 2373.95 28.1376 Q2377.72 26.1121 2383.1 26.1121 Q2383.87 26.1121 2384.81 26.2337 Q2385.74 26.3147 2386.87 26.5172 L2386.91 34.1734 Z" fill="#000000" fill-rule="nonzero" fill-opacity="1" /><path clip-path="url(#clip090)" d="M2389.38 27.2059 L2397.28 27.2059 L2411.46 65.2844 L2425.64 27.2059 L2433.54 27.2059 L2416.52 72.576 L2406.4 72.576 L2389.38 27.2059 Z" fill="#000000" fill-rule="nonzero" fill-opacity="1" /><path clip-path="url(#clip090)" d="M2482.64 48.0275 L2482.64 51.6733 L2448.36 51.6733 Q2448.85 59.3701 2452.98 63.421 Q2457.16 67.4314 2464.57 67.4314 Q2468.86 67.4314 2472.87 66.3781 Q2476.92 65.3249 2480.89 63.2184 L2480.89 70.267 Q2476.88 71.9684 2472.67 72.8596 Q2468.46 73.7508 2464.12 73.7508 Q2453.27 73.7508 2446.91 67.4314 Q2440.59 61.1119 2440.59 50.3365 Q2440.59 39.1965 2446.58 32.6746 Q2452.62 26.1121 2462.83 26.1121 Q2471.98 26.1121 2477.29 32.0264 Q2482.64 37.9003 2482.64 48.0275 M2475.18 45.84 Q2475.1 39.7232 2471.74 36.0774 Q2468.42 32.4315 2462.91 32.4315 Q2456.67 32.4315 2452.9 35.9558 Q2449.17 39.4801 2448.61 45.8805 L2475.18 45.84 Z" fill="#000000" fill-rule="nonzero" fill-opacity="1" /><polyline clip-path="url(#clip091)" style="stroke:#0000ff; stroke-linecap:round; stroke-linejoin:round; stroke-width:8; stroke-opacity:1; fill:none" points="338.767,1688.65 353.667,1687.56 368.566,1687.01 383.466,1686.31 398.366,1685.69 413.265,1684.86 428.165,1683.94 443.064,1682.74 457.964,1681.15 472.864,1679.28 487.763,1676.87 502.663,1674.07 517.562,1670.44 532.462,1666.54 547.362,1661.27 562.261,1654.79 577.161,1646.34 592.06,1636.43 606.96,1624.35 621.86,1609.1 636.759,1590.2 651.659,1568.97 666.558,1543.36 681.458,1511.84 696.358,1476.88 711.257,1434.73 726.157,1386.97 741.057,1335.04 755.956,1279.6 770.856,1220.4 785.755,1161.61 800.655,1103.27 815.555,1052.66 830.454,1013.43 845.354,982.921 860.253,970.462 875.153,970.598 890.053,985.289 904.952,1013.74 919.852,1056.2 934.751,1106.75 949.651,1161.69 964.551,1217.14 979.45,1272.36 994.35,1325.59 1009.25,1375.85 1024.15,1420.21 1039.05,1460.21 1053.95,1495.23 1068.85,1525.79 1083.75,1552.49 1098.65,1574.96 1113.55,1593.23 1128.45,1609.14 1143.35,1622.52 1158.25,1633.93 1173.14,1643.44 1188.04,1650.95 1202.94,1657.37 1217.84,1662.72 1232.74,1667.16 1247.64,1670.87 1262.54,1673.76 1277.44,1676.55 1292.34,1678.78 1307.24,1680.49 1322.14,1681.89 1337.04,1683.12 1351.94,1684.02 1366.84,1684.74 1381.74,1685.42 1396.64,1685.97 1411.54,1686.41 1426.44,1686.75 1441.34,1687 1456.24,1687.24 1471.14,1687.4 1486.04,1687.56 1500.94,1687.78 1515.84,1687.91 1530.74,1688 1545.64,1688.12 1560.53,1688.17 1575.43,1688.25 1590.33,1688.33 1605.23,1688.38 1620.13,1688.41 1635.03,1688.46 1649.93,1688.48 1664.83,1688.5 1679.73,1688.52 1694.63,1688.55 1709.53,1688.57 1724.43,1688.58 1739.33,1688.62 1754.23,1688.62 1769.13,1688.62 1784.03,1688.63 1798.93,1688.64 1813.83,1688.65 1828.73,1688.65 1843.63,1688.64 1858.53,1688.64 1873.43,1688.64 1888.33,1688.64 1903.23,1688.63 1918.13,1688.63 1933.02,1688.64 1947.92,1688.64 1962.82,1688.64 1977.72,1688.64 1992.62,1688.63 2007.52,1688.64 2022.42,1688.64 2037.32,1688.64 2052.22,1688.64 2067.12,1688.64 2082.02,1688.64 2096.92,1688.64 2111.82,1688.64 2126.72,1688.64 2141.62,1688.64 2156.52,1688.64 2171.42,1688.64 2186.32,1688.64 2201.22,1688.64 2216.12,1688.64 2231.02,1688.65 2245.92,1688.65 2260.82,1688.65 2275.72,1688.65 2290.62,1688.65 2305.51,1688.65 2320.41,1688.65 2335.31,1688.65 2350.21,1688.65 2365.11,1688.65 2380.01,1688.65 2394.91,1688.65 2409.81,1688.65 2424.71,1688.65 2439.61,1688.65 2454.51,1688.65 2469.41,1688.65 2484.31,1688.65 2499.21,1688.65 2514.11,1688.65 2529.01,1688.65 2543.91,1688.65 2558.81,1688.65 2573.71,1688.65 "/>
<polyline clip-path="url(#clip091)" style="stroke:#ff0000; stroke-linecap:round; stroke-linejoin:round; stroke-width:8; stroke-opacity:1; fill:none" points="338.767,1687.4 353.667,1687.4 368.566,1687.4 383.466,1687.42 398.366,1687.33 413.265,1687.02 428.165,1686.54 443.064,1685.83 457.964,1685.05 472.864,1684.14 487.763,1683.29 502.663,1682.43 517.562,1681.4 532.462,1680.14 547.362,1678.59 562.261,1676.8 577.161,1674.25 592.06,1671.23 606.96,1667.67 621.86,1663.39 636.759,1658.27 651.659,1652.23 666.558,1645.04 681.458,1636.65 696.358,1627.07 711.257,1614.78 726.157,1600.22 741.057,1582.92 755.956,1562.97 770.856,1540.27 785.755,1513 800.655,1481.66 815.555,1444.78 830.454,1402.37 845.354,1352.91 860.253,1296.76 875.153,1234.43 890.053,1163.64 904.952,1086.41 919.852,1004.02 934.751,916.565 949.651,826.077 964.551,736.061 979.45,649.81 994.35,570.166 1009.25,500.261 1024.15,445.665 1039.05,411.497 1053.95,395.016 1068.85,398.752 1083.75,424.428 1098.65,470.507 1113.55,534.228 1128.45,611.811 1143.35,699.559 1158.25,794.231 1173.14,891.226 1188.04,986.943 1202.94,1078.61 1217.84,1166.42 1232.74,1246.73 1247.64,1318.25 1262.54,1382.36 1277.44,1437.08 1292.34,1484.14 1307.24,1523.67 1322.14,1556.86 1337.04,1584.31 1351.94,1606.26 1366.84,1624.03 1381.74,1638.52 1396.64,1650.08 1411.54,1659.14 1426.44,1665.9 1441.34,1671.39 1456.24,1675.4 1471.14,1678.62 1486.04,1681.21 1500.94,1683.15 1515.84,1684.55 1530.74,1685.47 1545.64,1686.16 1560.53,1686.8 1575.43,1687.23 1590.33,1687.68 1605.23,1687.92 1620.13,1688.11 1635.03,1688.25 1649.93,1688.36 1664.83,1688.44 1679.73,1688.48 1694.63,1688.51 1709.53,1688.52 1724.43,1688.56 1739.33,1688.58 1754.23,1688.6 1769.13,1688.61 1784.03,1688.62 1798.93,1688.62 1813.83,1688.63 1828.73,1688.63 1843.63,1688.63 1858.53,1688.64 1873.43,1688.65 1888.33,1688.65 1903.23,1688.65 1918.13,1688.65 1933.02,1688.65 1947.92,1688.65 1962.82,1688.65 1977.72,1688.65 1992.62,1688.65 2007.52,1688.65 2022.42,1688.65 2037.32,1688.65 2052.22,1688.65 2067.12,1688.65 2082.02,1688.65 2096.92,1688.65 2111.82,1688.65 2126.72,1688.65 2141.62,1688.65 2156.52,1688.65 2171.42,1688.65 2186.32,1688.65 2201.22,1688.65 2216.12,1688.65 2231.02,1688.65 2245.92,1688.65 2260.82,1688.65 2275.72,1688.65 2290.62,1688.65 2305.51,1688.65 2320.41,1688.65 2335.31,1688.65 2350.21,1688.65 2365.11,1688.65 2380.01,1688.65 2394.91,1688.65 2409.81,1688.65 2424.71,1688.65 2439.61,1688.65 2454.51,1688.65 2469.41,1688.65 2484.31,1688.65 2499.21,1688.65 2514.11,1688.65 2529.01,1688.65 2543.91,1688.65 2558.81,1688.65 2573.71,1688.65 "/>
<polyline clip-path="url(#clip091)" style="stroke:#008000; stroke-linecap:round; stroke-linejoin:round; stroke-width:8; stroke-opacity:1; fill:none" points="338.767,1687.4 353.667,1687.4 368.566,1687.4 383.466,1687.4 398.366,1687.4 413.265,1687.4 428.165,1687.4 443.064,1687.4 457.964,1687.4 472.864,1687.43 487.763,1687.23 502.663,1686.67 517.562,1685.99 532.462,1685.11 547.362,1684.28 562.261,1683.52 577.161,1682.63 592.06,1681.77 606.96,1680.98 621.86,1680.09 636.759,1679 651.659,1678.04 666.558,1676.78 681.458,1675.37 696.358,1673.75 711.257,1671.64 726.157,1669.04 741.057,1665.99 755.956,1662.22 770.856,1657.81 785.755,1652.91 800.655,1647.26 815.555,1641.16 830.454,1634.58 845.354,1626.88 860.253,1618.39 875.153,1608.99 890.053,1598.34 904.952,1585.45 919.852,1571.5 934.751,1555.68 949.651,1537.7 964.551,1516.96 979.45,1492.65 994.35,1465.63 1009.25,1434.58 1024.15,1400.63 1039.05,1361.79 1053.95,1319.2 1068.85,1272.89 1083.75,1220.91 1098.65,1165.26 1113.55,1104.04 1128.45,1038.72 1143.35,968.245 1158.25,894.393 1173.14,817.243 1188.04,737.081 1202.94,655.487 1217.84,573.837 1232.74,495.998 1247.64,419.285 1262.54,348.962 1277.44,289.158 1292.34,240.148 1307.24,203.627 1322.14,180.283 1337.04,173.254 1351.94,184.964 1366.84,210.861 1381.74,253.667 1396.64,310.37 1411.54,381.291 1426.44,463.091 1441.34,554.314 1456.24,651.671 1471.14,751.596 1486.04,853.131 1500.94,954.836 1515.84,1051.99 1530.74,1144.46 1545.64,1230.75 1560.53,1309.34 1575.43,1378.31 1590.33,1437.81 1605.23,1490.76 1620.13,1534.63 1635.03,1571.07 1649.93,1600.1 1664.83,1623.89 1679.73,1641.44 1694.63,1654.94 1709.53,1664.94 1724.43,1672.01 1739.33,1677.29 1754.23,1681.09 1769.13,1683.53 1784.03,1685.27 1798.93,1686.45 1813.83,1687.26 1828.73,1687.73 1843.63,1688.1 1858.53,1688.3 1873.43,1688.4 1888.33,1688.52 1903.23,1688.57 1918.13,1688.59 1933.02,1688.62 1947.92,1688.63 1962.82,1688.65 1977.72,1688.65 1992.62,1688.65 2007.52,1688.65 2022.42,1688.65 2037.32,1688.65 2052.22,1688.65 2067.12,1688.65 2082.02,1688.65 2096.92,1688.65 2111.82,1688.65 2126.72,1688.65 2141.62,1688.65 2156.52,1688.65 2171.42,1688.65 2186.32,1688.65 2201.22,1688.65 2216.12,1688.65 2231.02,1688.65 2245.92,1688.65 2260.82,1688.65 2275.72,1688.65 2290.62,1688.65 2305.51,1688.65 2320.41,1688.65 2335.31,1688.65 2350.21,1688.65 2365.11,1688.65 2380.01,1688.65 2394.91,1688.65 2409.81,1688.65 2424.71,1688.65 2439.61,1688.65 2454.51,1688.65 2469.41,1688.65 2484.31,1688.65 2499.21,1688.65 2514.11,1688.65 2529.01,1688.65 2543.91,1688.65 2558.81,1688.65 2573.71,1688.65 "/>
<path clip-path="url(#clip090)" d="M2174.7 388.696 L2561.79 388.696 L2561.79 181.336 L2174.7 181.336  Z" fill="#ffffff" fill-rule="evenodd" fill-opacity="1"/>
<polyline clip-path="url(#clip090)" style="stroke:#000000; stroke-linecap:round; stroke-linejoin:round; stroke-width:4; stroke-opacity:1; fill:none" points="2174.7,388.696 2561.79,388.696 2561.79,181.336 2174.7,181.336 2174.7,388.696 "/>
<polyline clip-path="url(#clip090)" style="stroke:#0000ff; stroke-linecap:round; stroke-linejoin:round; stroke-width:8; stroke-opacity:1; fill:none" points="2201.02,233.176 2358.96,233.176 "/>
<path clip-path="url(#clip090)" d="M2385.28 214.438 L2389.56 214.438 L2389.56 235.711 L2402.27 224.531 L2407.71 224.531 L2393.96 236.66 L2408.29 250.456 L2402.73 250.456 L2389.56 237.794 L2389.56 250.456 L2385.28 250.456 L2385.28 214.438 Z" fill="#000000" fill-rule="nonzero" fill-opacity="1" /><path clip-path="url(#clip090)" d="M2428.52 228.929 L2458.2 228.929 L2458.2 232.817 L2428.52 232.817 L2428.52 228.929 M2428.52 238.373 L2458.2 238.373 L2458.2 242.308 L2428.52 242.308 L2428.52 238.373 Z" fill="#000000" fill-rule="nonzero" fill-opacity="1" /><path clip-path="url(#clip090)" d="M2484.17 246.521 L2491.81 246.521 L2491.81 220.156 L2483.5 221.822 L2483.5 217.563 L2491.76 215.896 L2496.44 215.896 L2496.44 246.521 L2504.08 246.521 L2504.08 250.456 L2484.17 250.456 L2484.17 246.521 Z" fill="#000000" fill-rule="nonzero" fill-opacity="1" /><polyline clip-path="url(#clip090)" style="stroke:#ff0000; stroke-linecap:round; stroke-linejoin:round; stroke-width:8; stroke-opacity:1; fill:none" points="2201.02,285.016 2358.96,285.016 "/>
<path clip-path="url(#clip090)" d="M2385.28 266.278 L2389.56 266.278 L2389.56 287.551 L2402.27 276.371 L2407.71 276.371 L2393.96 288.5 L2408.29 302.296 L2402.73 302.296 L2389.56 289.634 L2389.56 302.296 L2385.28 302.296 L2385.28 266.278 Z" fill="#000000" fill-rule="nonzero" fill-opacity="1" /><path clip-path="url(#clip090)" d="M2428.52 280.769 L2458.2 280.769 L2458.2 284.657 L2428.52 284.657 L2428.52 280.769 M2428.52 290.213 L2458.2 290.213 L2458.2 294.148 L2428.52 294.148 L2428.52 290.213 Z" fill="#000000" fill-rule="nonzero" fill-opacity="1" /><path clip-path="url(#clip090)" d="M2496.21 271.81 L2484.4 290.259 L2496.21 290.259 L2496.21 271.81 M2494.98 267.736 L2500.86 267.736 L2500.86 290.259 L2505.79 290.259 L2505.79 294.148 L2500.86 294.148 L2500.86 302.296 L2496.21 302.296 L2496.21 294.148 L2480.6 294.148 L2480.6 289.634 L2494.98 267.736 Z" fill="#000000" fill-rule="nonzero" fill-opacity="1" /><polyline clip-path="url(#clip090)" style="stroke:#008000; stroke-linecap:round; stroke-linejoin:round; stroke-width:8; stroke-opacity:1; fill:none" points="2201.02,336.856 2358.96,336.856 "/>
<path clip-path="url(#clip090)" d="M2385.28 318.118 L2389.56 318.118 L2389.56 339.391 L2402.27 328.211 L2407.71 328.211 L2393.96 340.34 L2408.29 354.136 L2402.73 354.136 L2389.56 341.474 L2389.56 354.136 L2385.28 354.136 L2385.28 318.118 Z" fill="#000000" fill-rule="nonzero" fill-opacity="1" /><path clip-path="url(#clip090)" d="M2428.52 332.609 L2458.2 332.609 L2458.2 336.497 L2428.52 336.497 L2428.52 332.609 M2428.52 342.053 L2458.2 342.053 L2458.2 345.988 L2428.52 345.988 L2428.52 342.053 Z" fill="#000000" fill-rule="nonzero" fill-opacity="1" /><path clip-path="url(#clip090)" d="M2484.17 350.201 L2491.81 350.201 L2491.81 323.836 L2483.5 325.502 L2483.5 321.243 L2491.76 319.576 L2496.44 319.576 L2496.44 350.201 L2504.08 350.201 L2504.08 354.136 L2484.17 354.136 L2484.17 350.201 Z" fill="#000000" fill-rule="nonzero" fill-opacity="1" /><path clip-path="url(#clip090)" d="M2523.52 322.655 Q2519.91 322.655 2518.08 326.22 Q2516.28 329.761 2516.28 336.891 Q2516.28 343.997 2518.08 347.562 Q2519.91 351.104 2523.52 351.104 Q2527.16 351.104 2528.96 347.562 Q2530.79 343.997 2530.79 336.891 Q2530.79 329.761 2528.96 326.22 Q2527.16 322.655 2523.52 322.655 M2523.52 318.951 Q2529.33 318.951 2532.39 323.558 Q2535.47 328.141 2535.47 336.891 Q2535.47 345.618 2532.39 350.224 Q2529.33 354.808 2523.52 354.808 Q2517.71 354.808 2514.63 350.224 Q2511.58 345.618 2511.58 336.891 Q2511.58 328.141 2514.63 323.558 Q2517.71 318.951 2523.52 318.951 Z" fill="#000000" fill-rule="nonzero" fill-opacity="1" /></svg>
