<?xml version="1.0" encoding="utf-8"?>
<svg xmlns="http://www.w3.org/2000/svg" xmlns:xlink="http://www.w3.org/1999/xlink" width="672" height="480" viewBox="0 0 2688 1920">
<defs>
  <clipPath id="clip310">
    <rect x="0" y="0" width="2688" height="1920"/>
  </clipPath>
</defs>
<path clip-path="url(#clip310)" d="M0 1920 L2688 1920 L2688 -4.26326e-14 L0 -4.26326e-14  Z" fill="#ffffff" fill-rule="evenodd" fill-opacity="1"/>
<defs>
  <clipPath id="clip311">
    <rect x="271" y="127" width="2370" height="1607"/>
  </clipPath>
</defs>
<path clip-path="url(#clip310)" d="M271.719 1734.12 L2640.76 1734.12 L2640.76 127.792 L271.719 127.792  Z" fill="#ffffff" fill-rule="evenodd" fill-opacity="1"/>
<polyline clip-path="url(#clip311)" style="stroke:#000000; stroke-linecap:round; stroke-linejoin:round; stroke-width:2; stroke-opacity:0.1; fill:none" points="338.767,1734.12 338.767,127.792 "/>
<polyline clip-path="url(#clip311)" style="stroke:#000000; stroke-linecap:round; stroke-linejoin:round; stroke-width:2; stroke-opacity:0.1; fill:none" points="897.502,1734.12 897.502,127.792 "/>
<polyline clip-path="url(#clip311)" style="stroke:#000000; stroke-linecap:round; stroke-linejoin:round; stroke-width:2; stroke-opacity:0.1; fill:none" points="1456.24,1734.12 1456.24,127.792 "/>
<polyline clip-path="url(#clip311)" style="stroke:#000000; stroke-linecap:round; stroke-linejoin:round; stroke-width:2; stroke-opacity:0.1; fill:none" points="2014.97,1734.12 2014.97,127.792 "/>
<polyline clip-path="url(#clip311)" style="stroke:#000000; stroke-linecap:round; stroke-linejoin:round; stroke-width:2; stroke-opacity:0.1; fill:none" points="2573.71,1734.12 2573.71,127.792 "/>
<polyline clip-path="url(#clip311)" style="stroke:#000000; stroke-linecap:round; stroke-linejoin:round; stroke-width:2; stroke-opacity:0.1; fill:none" points="271.719,1688.65 2640.76,1688.65 "/>
<polyline clip-path="url(#clip311)" style="stroke:#000000; stroke-linecap:round; stroke-linejoin:round; stroke-width:2; stroke-opacity:0.1; fill:none" points="271.719,1308.7 2640.76,1308.7 "/>
<polyline clip-path="url(#clip311)" style="stroke:#000000; stroke-linecap:round; stroke-linejoin:round; stroke-width:2; stroke-opacity:0.1; fill:none" points="271.719,928.747 2640.76,928.747 "/>
<polyline clip-path="url(#clip311)" style="stroke:#000000; stroke-linecap:round; stroke-linejoin:round; stroke-width:2; stroke-opacity:0.1; fill:none" points="271.719,548.793 2640.76,548.793 "/>
<polyline clip-path="url(#clip311)" style="stroke:#000000; stroke-linecap:round; stroke-linejoin:round; stroke-width:2; stroke-opacity:0.1; fill:none" points="271.719,168.839 2640.76,168.839 "/>
<polyline clip-path="url(#clip310)" style="stroke:#000000; stroke-linecap:round; stroke-linejoin:round; stroke-width:4; stroke-opacity:1; fill:none" points="271.719,1734.12 2640.76,1734.12 "/>
<polyline clip-path="url(#clip310)" style="stroke:#000000; stroke-linecap:round; stroke-linejoin:round; stroke-width:4; stroke-opacity:1; fill:none" points="338.767,1734.12 338.767,1715.22 "/>
<polyline clip-path="url(#clip310)" style="stroke:#000000; stroke-linecap:round; stroke-linejoin:round; stroke-width:4; stroke-opacity:1; fill:none" points="897.502,1734.12 897.502,1715.22 "/>
<polyline clip-path="url(#clip310)" style="stroke:#000000; stroke-linecap:round; stroke-linejoin:round; stroke-width:4; stroke-opacity:1; fill:none" points="1456.24,1734.12 1456.24,1715.22 "/>
<polyline clip-path="url(#clip310)" style="stroke:#000000; stroke-linecap:round; stroke-linejoin:round; stroke-width:4; stroke-opacity:1; fill:none" points="2014.97,1734.12 2014.97,1715.22 "/>
<polyline clip-path="url(#clip310)" style="stroke:#000000; stroke-linecap:round; stroke-linejoin:round; stroke-width:4; stroke-opacity:1; fill:none" points="2573.71,1734.12 2573.71,1715.22 "/>
<path clip-path="url(#clip310)" d="M338.767 1767.34 Q335.156 1767.34 333.327 1770.9 Q331.522 1774.45 331.522 1781.58 Q331.522 1788.68 333.327 1792.25 Q335.156 1795.79 338.767 1795.79 Q342.401 1795.79 344.207 1792.25 Q346.036 1788.68 346.036 1781.58 Q346.036 1774.45 344.207 1770.9 Q342.401 1767.34 338.767 1767.34 M338.767 1763.64 Q344.577 1763.64 347.633 1768.24 Q350.712 1772.83 350.712 1781.58 Q350.712 1790.3 347.633 1794.91 Q344.577 1799.49 338.767 1799.49 Q332.957 1799.49 329.878 1794.91 Q326.823 1790.3 326.823 1781.58 Q326.823 1772.83 329.878 1768.24 Q332.957 1763.64 338.767 1763.64 Z" fill="#000000" fill-rule="nonzero" fill-opacity="1" /><path clip-path="url(#clip310)" d="M872.202 1764.26 L890.558 1764.26 L890.558 1768.2 L876.484 1768.2 L876.484 1776.67 Q877.502 1776.32 878.521 1776.16 Q879.539 1775.97 880.558 1775.97 Q886.345 1775.97 889.725 1779.15 Q893.104 1782.32 893.104 1787.73 Q893.104 1793.31 889.632 1796.41 Q886.16 1799.49 879.84 1799.49 Q877.664 1799.49 875.396 1799.12 Q873.151 1798.75 870.743 1798.01 L870.743 1793.31 Q872.827 1794.45 875.049 1795 Q877.271 1795.56 879.748 1795.56 Q883.752 1795.56 886.09 1793.45 Q888.428 1791.34 888.428 1787.73 Q888.428 1784.12 886.09 1782.02 Q883.752 1779.91 879.748 1779.91 Q877.873 1779.91 875.998 1780.33 Q874.146 1780.74 872.202 1781.62 L872.202 1764.26 Z" fill="#000000" fill-rule="nonzero" fill-opacity="1" /><path clip-path="url(#clip310)" d="M912.317 1767.34 Q908.706 1767.34 906.877 1770.9 Q905.072 1774.45 905.072 1781.58 Q905.072 1788.68 906.877 1792.25 Q908.706 1795.79 912.317 1795.79 Q915.951 1795.79 917.757 1792.25 Q919.586 1788.68 919.586 1781.58 Q919.586 1774.45 917.757 1770.9 Q915.951 1767.34 912.317 1767.34 M912.317 1763.64 Q918.127 1763.64 921.183 1768.24 Q924.261 1772.83 924.261 1781.58 Q924.261 1790.3 921.183 1794.91 Q918.127 1799.49 912.317 1799.49 Q906.507 1799.49 903.428 1794.91 Q900.373 1790.3 900.373 1781.58 Q900.373 1772.83 903.428 1768.24 Q906.507 1763.64 912.317 1763.64 Z" fill="#000000" fill-rule="nonzero" fill-opacity="1" /><path clip-path="url(#clip310)" d="M1415.84 1794.89 L1423.48 1794.89 L1423.48 1768.52 L1415.17 1770.19 L1415.17 1765.93 L1423.44 1764.26 L1428.11 1764.26 L1428.11 1794.89 L1435.75 1794.89 L1435.75 1798.82 L1415.84 1798.82 L1415.84 1794.89 Z" fill="#000000" fill-rule="nonzero" fill-opacity="1" /><path clip-path="url(#clip310)" d="M1455.2 1767.34 Q1451.58 1767.34 1449.76 1770.9 Q1447.95 1774.45 1447.95 1781.58 Q1447.95 1788.68 1449.76 1792.25 Q1451.58 1795.79 1455.2 1795.79 Q1458.83 1795.79 1460.64 1792.25 Q1462.46 1788.68 1462.46 1781.58 Q1462.46 1774.45 1460.64 1770.9 Q1458.83 1767.34 1455.2 1767.34 M1455.2 1763.64 Q1461.01 1763.64 1464.06 1768.24 Q1467.14 1772.83 1467.14 1781.58 Q1467.14 1790.3 1464.06 1794.91 Q1461.01 1799.49 1455.2 1799.49 Q1449.39 1799.49 1446.31 1794.91 Q1443.25 1790.3 1443.25 1781.58 Q1443.25 1772.83 1446.31 1768.24 Q1449.39 1763.64 1455.2 1763.64 Z" fill="#000000" fill-rule="nonzero" fill-opacity="1" /><path clip-path="url(#clip310)" d="M1485.36 1767.34 Q1481.75 1767.34 1479.92 1770.9 Q1478.11 1774.45 1478.11 1781.58 Q1478.11 1788.68 1479.92 1792.25 Q1481.75 1795.79 1485.36 1795.79 Q1488.99 1795.79 1490.8 1792.25 Q1492.63 1788.68 1492.63 1781.58 Q1492.63 1774.45 1490.8 1770.9 Q1488.99 1767.34 1485.36 1767.34 M1485.36 1763.64 Q1491.17 1763.64 1494.22 1768.24 Q1497.3 1772.83 1497.3 1781.58 Q1497.3 1790.3 1494.22 1794.91 Q1491.17 1799.49 1485.36 1799.49 Q1479.55 1799.49 1476.47 1794.91 Q1473.41 1790.3 1473.41 1781.58 Q1473.41 1772.83 1476.47 1768.24 Q1479.55 1763.64 1485.36 1763.64 Z" fill="#000000" fill-rule="nonzero" fill-opacity="1" /><path clip-path="url(#clip310)" d="M1974.58 1794.89 L1982.22 1794.89 L1982.22 1768.52 L1973.91 1770.19 L1973.91 1765.93 L1982.17 1764.26 L1986.85 1764.26 L1986.85 1794.89 L1994.49 1794.89 L1994.49 1798.82 L1974.58 1798.82 L1974.58 1794.89 Z" fill="#000000" fill-rule="nonzero" fill-opacity="1" /><path clip-path="url(#clip310)" d="M2003.98 1764.26 L2022.33 1764.26 L2022.33 1768.2 L2008.26 1768.2 L2008.26 1776.67 Q2009.28 1776.32 2010.3 1776.16 Q2011.32 1775.97 2012.33 1775.97 Q2018.12 1775.97 2021.5 1779.15 Q2024.88 1782.32 2024.88 1787.73 Q2024.88 1793.31 2021.41 1796.41 Q2017.94 1799.49 2011.62 1799.49 Q2009.44 1799.49 2007.17 1799.12 Q2004.93 1798.75 2002.52 1798.01 L2002.52 1793.31 Q2004.6 1794.45 2006.82 1795 Q2009.05 1795.56 2011.52 1795.56 Q2015.53 1795.56 2017.87 1793.45 Q2020.2 1791.34 2020.2 1787.73 Q2020.2 1784.12 2017.87 1782.02 Q2015.53 1779.91 2011.52 1779.91 Q2009.65 1779.91 2007.77 1780.33 Q2005.92 1780.74 2003.98 1781.62 L2003.98 1764.26 Z" fill="#000000" fill-rule="nonzero" fill-opacity="1" /><path clip-path="url(#clip310)" d="M2044.09 1767.34 Q2040.48 1767.34 2038.65 1770.9 Q2036.85 1774.45 2036.85 1781.58 Q2036.85 1788.68 2038.65 1792.25 Q2040.48 1795.79 2044.09 1795.79 Q2047.73 1795.79 2049.53 1792.25 Q2051.36 1788.68 2051.36 1781.58 Q2051.36 1774.45 2049.53 1770.9 Q2047.73 1767.34 2044.09 1767.34 M2044.09 1763.64 Q2049.9 1763.64 2052.96 1768.24 Q2056.04 1772.83 2056.04 1781.58 Q2056.04 1790.3 2052.96 1794.91 Q2049.9 1799.49 2044.09 1799.49 Q2038.28 1799.49 2035.2 1794.91 Q2032.15 1790.3 2032.15 1781.58 Q2032.15 1772.83 2035.2 1768.24 Q2038.28 1763.64 2044.09 1763.64 Z" fill="#000000" fill-rule="nonzero" fill-opacity="1" /><path clip-path="url(#clip310)" d="M2537.4 1794.89 L2553.72 1794.89 L2553.72 1798.82 L2531.78 1798.82 L2531.78 1794.89 Q2534.44 1792.13 2539.02 1787.5 Q2543.63 1782.85 2544.81 1781.51 Q2547.05 1778.98 2547.93 1777.25 Q2548.84 1775.49 2548.84 1773.8 Q2548.84 1771.04 2546.89 1769.31 Q2544.97 1767.57 2541.87 1767.57 Q2539.67 1767.57 2537.21 1768.34 Q2534.78 1769.1 2532.01 1770.65 L2532.01 1765.93 Q2534.83 1764.79 2537.28 1764.21 Q2539.74 1763.64 2541.77 1763.64 Q2547.15 1763.64 2550.34 1766.32 Q2553.53 1769.01 2553.53 1773.5 Q2553.53 1775.63 2552.72 1777.55 Q2551.94 1779.45 2549.83 1782.04 Q2549.25 1782.71 2546.15 1785.93 Q2543.05 1789.12 2537.4 1794.89 Z" fill="#000000" fill-rule="nonzero" fill-opacity="1" /><path clip-path="url(#clip310)" d="M2573.53 1767.34 Q2569.92 1767.34 2568.09 1770.9 Q2566.29 1774.45 2566.29 1781.58 Q2566.29 1788.68 2568.09 1792.25 Q2569.92 1795.79 2573.53 1795.79 Q2577.17 1795.79 2578.97 1792.25 Q2580.8 1788.68 2580.8 1781.58 Q2580.8 1774.45 2578.97 1770.9 Q2577.17 1767.34 2573.53 1767.34 M2573.53 1763.64 Q2579.34 1763.64 2582.4 1768.24 Q2585.48 1772.83 2585.48 1781.58 Q2585.48 1790.3 2582.4 1794.91 Q2579.34 1799.49 2573.53 1799.49 Q2567.72 1799.49 2564.65 1794.91 Q2561.59 1790.3 2561.59 1781.58 Q2561.59 1772.83 2564.65 1768.24 Q2567.72 1763.64 2573.53 1763.64 Z" fill="#000000" fill-rule="nonzero" fill-opacity="1" /><path clip-path="url(#clip310)" d="M2603.7 1767.34 Q2600.08 1767.34 2598.26 1770.9 Q2596.45 1774.45 2596.45 1781.58 Q2596.45 1788.68 2598.26 1792.25 Q2600.08 1795.79 2603.7 1795.79 Q2607.33 1795.79 2609.14 1792.25 Q2610.96 1788.68 2610.96 1781.58 Q2610.96 1774.45 2609.14 1770.9 Q2607.33 1767.34 2603.7 1767.34 M2603.7 1763.64 Q2609.51 1763.64 2612.56 1768.24 Q2615.64 1772.83 2615.64 1781.58 Q2615.64 1790.3 2612.56 1794.91 Q2609.51 1799.49 2603.7 1799.49 Q2597.89 1799.49 2594.81 1794.91 Q2591.75 1790.3 2591.75 1781.58 Q2591.75 1772.83 2594.81 1768.24 Q2597.89 1763.64 2603.7 1763.64 Z" fill="#000000" fill-rule="nonzero" fill-opacity="1" /><path clip-path="url(#clip310)" d="M1402.48 1841.06 L1402.48 1878.02 L1410.25 1878.02 Q1420.08 1878.02 1424.63 1873.56 Q1429.22 1869.11 1429.22 1859.49 Q1429.22 1849.94 1424.63 1845.52 Q1420.08 1841.06 1410.25 1841.06 L1402.48 1841.06 M1396.05 1835.78 L1409.26 1835.78 Q1423.07 1835.78 1429.53 1841.54 Q1435.99 1847.27 1435.99 1859.49 Q1435.99 1871.78 1429.5 1877.54 Q1423.01 1883.3 1409.26 1883.3 L1396.05 1883.3 L1396.05 1835.78 Z" fill="#000000" fill-rule="nonzero" fill-opacity="1" /><path clip-path="url(#clip310)" d="M1462.19 1865.38 Q1455.09 1865.38 1452.35 1867 Q1449.62 1868.63 1449.62 1872.54 Q1449.62 1875.66 1451.65 1877.51 Q1453.72 1879.32 1457.26 1879.32 Q1462.13 1879.32 1465.05 1875.88 Q1468.01 1872.42 1468.01 1866.69 L1468.01 1865.38 L1462.19 1865.38 M1473.87 1862.96 L1473.87 1883.3 L1468.01 1883.3 L1468.01 1877.89 Q1466.01 1881.14 1463.02 1882.7 Q1460.03 1884.22 1455.7 1884.22 Q1450.22 1884.22 1446.98 1881.17 Q1443.76 1878.08 1443.76 1872.92 Q1443.76 1866.91 1447.77 1863.85 Q1451.81 1860.8 1459.8 1860.8 L1468.01 1860.8 L1468.01 1860.23 Q1468.01 1856.18 1465.34 1853.99 Q1462.7 1851.76 1457.89 1851.76 Q1454.84 1851.76 1451.94 1852.49 Q1449.04 1853.22 1446.37 1854.69 L1446.37 1849.28 Q1449.59 1848.03 1452.61 1847.43 Q1455.63 1846.79 1458.5 1846.79 Q1466.23 1846.79 1470.05 1850.8 Q1473.87 1854.81 1473.87 1862.96 Z" fill="#000000" fill-rule="nonzero" fill-opacity="1" /><path clip-path="url(#clip310)" d="M1500.77 1886.61 Q1498.28 1892.98 1495.93 1894.92 Q1493.57 1896.86 1489.63 1896.86 L1484.95 1896.86 L1484.95 1891.96 L1488.38 1891.96 Q1490.8 1891.96 1492.14 1890.81 Q1493.48 1889.67 1495.1 1885.4 L1496.15 1882.73 L1481.73 1847.65 L1487.94 1847.65 L1499.08 1875.53 L1510.22 1847.65 L1516.43 1847.65 L1500.77 1886.61 Z" fill="#000000" fill-rule="nonzero" fill-opacity="1" /><polyline clip-path="url(#clip310)" style="stroke:#000000; stroke-linecap:round; stroke-linejoin:round; stroke-width:4; stroke-opacity:1; fill:none" points="271.719,1734.12 271.719,127.792 "/>
<polyline clip-path="url(#clip310)" style="stroke:#000000; stroke-linecap:round; stroke-linejoin:round; stroke-width:4; stroke-opacity:1; fill:none" points="271.719,1688.65 290.617,1688.65 "/>
<polyline clip-path="url(#clip310)" style="stroke:#000000; stroke-linecap:round; stroke-linejoin:round; stroke-width:4; stroke-opacity:1; fill:none" points="271.719,1308.7 290.617,1308.7 "/>
<polyline clip-path="url(#clip310)" style="stroke:#000000; stroke-linecap:round; stroke-linejoin:round; stroke-width:4; stroke-opacity:1; fill:none" points="271.719,928.747 290.617,928.747 "/>
<polyline clip-path="url(#clip310)" style="stroke:#000000; stroke-linecap:round; stroke-linejoin:round; stroke-width:4; stroke-opacity:1; fill:none" points="271.719,548.793 290.617,548.793 "/>
<polyline clip-path="url(#clip310)" style="stroke:#000000; stroke-linecap:round; stroke-linejoin:round; stroke-width:4; stroke-opacity:1; fill:none" points="271.719,168.839 290.617,168.839 "/>
<path clip-path="url(#clip310)" d="M219.455 1674.45 Q215.844 1674.45 214.015 1678.02 Q212.209 1681.56 212.209 1688.69 Q212.209 1695.8 214.015 1699.36 Q215.844 1702.9 219.455 1702.9 Q223.089 1702.9 224.894 1699.36 Q226.723 1695.8 226.723 1688.69 Q226.723 1681.56 224.894 1678.02 Q223.089 1674.45 219.455 1674.45 M219.455 1670.75 Q225.265 1670.75 228.32 1675.36 Q231.399 1679.94 231.399 1688.69 Q231.399 1697.42 228.32 1702.02 Q225.265 1706.61 219.455 1706.61 Q213.644 1706.61 210.566 1702.02 Q207.51 1697.42 207.51 1688.69 Q207.51 1679.94 210.566 1675.36 Q213.644 1670.75 219.455 1670.75 Z" fill="#000000" fill-rule="nonzero" fill-opacity="1" /><path clip-path="url(#clip310)" d="M122.997 1322.05 L139.316 1322.05 L139.316 1325.98 L117.372 1325.98 L117.372 1322.05 Q120.034 1319.29 124.617 1314.66 Q129.224 1310.01 130.404 1308.67 Q132.65 1306.14 133.529 1304.41 Q134.432 1302.65 134.432 1300.96 Q134.432 1298.2 132.488 1296.47 Q130.566 1294.73 127.464 1294.73 Q125.265 1294.73 122.812 1295.5 Q120.381 1296.26 117.603 1297.81 L117.603 1293.09 Q120.427 1291.95 122.881 1291.37 Q125.335 1290.8 127.372 1290.8 Q132.742 1290.8 135.937 1293.48 Q139.131 1296.17 139.131 1300.66 Q139.131 1302.79 138.321 1304.71 Q137.534 1306.61 135.427 1309.2 Q134.849 1309.87 131.747 1313.09 Q128.645 1316.28 122.997 1322.05 Z" fill="#000000" fill-rule="nonzero" fill-opacity="1" /><path clip-path="url(#clip310)" d="M159.131 1294.5 Q155.52 1294.5 153.691 1298.06 Q151.886 1301.61 151.886 1308.74 Q151.886 1315.84 153.691 1319.41 Q155.52 1322.95 159.131 1322.95 Q162.765 1322.95 164.571 1319.41 Q166.399 1315.84 166.399 1308.74 Q166.399 1301.61 164.571 1298.06 Q162.765 1294.5 159.131 1294.5 M159.131 1290.8 Q164.941 1290.8 167.997 1295.4 Q171.075 1299.99 171.075 1308.74 Q171.075 1317.46 167.997 1322.07 Q164.941 1326.65 159.131 1326.65 Q153.321 1326.65 150.242 1322.07 Q147.186 1317.46 147.186 1308.74 Q147.186 1299.99 150.242 1295.4 Q153.321 1290.8 159.131 1290.8 Z" fill="#000000" fill-rule="nonzero" fill-opacity="1" /><path clip-path="url(#clip310)" d="M189.293 1294.5 Q185.682 1294.5 183.853 1298.06 Q182.047 1301.61 182.047 1308.74 Q182.047 1315.84 183.853 1319.41 Q185.682 1322.95 189.293 1322.95 Q192.927 1322.95 194.733 1319.41 Q196.561 1315.84 196.561 1308.74 Q196.561 1301.61 194.733 1298.06 Q192.927 1294.5 189.293 1294.5 M189.293 1290.8 Q195.103 1290.8 198.158 1295.4 Q201.237 1299.99 201.237 1308.74 Q201.237 1317.46 198.158 1322.07 Q195.103 1326.65 189.293 1326.65 Q183.483 1326.65 180.404 1322.07 Q177.348 1317.46 177.348 1308.74 Q177.348 1299.99 180.404 1295.4 Q183.483 1290.8 189.293 1290.8 Z" fill="#000000" fill-rule="nonzero" fill-opacity="1" /><path clip-path="url(#clip310)" d="M219.455 1294.5 Q215.844 1294.5 214.015 1298.06 Q212.209 1301.61 212.209 1308.74 Q212.209 1315.84 214.015 1319.41 Q215.844 1322.95 219.455 1322.95 Q223.089 1322.95 224.894 1319.41 Q226.723 1315.84 226.723 1308.74 Q226.723 1301.61 224.894 1298.06 Q223.089 1294.5 219.455 1294.5 M219.455 1290.8 Q225.265 1290.8 228.32 1295.4 Q231.399 1299.99 231.399 1308.74 Q231.399 1317.46 228.32 1322.07 Q225.265 1326.65 219.455 1326.65 Q213.644 1326.65 210.566 1322.07 Q207.51 1317.46 207.51 1308.74 Q207.51 1299.99 210.566 1295.4 Q213.644 1290.8 219.455 1290.8 Z" fill="#000000" fill-rule="nonzero" fill-opacity="1" /><path clip-path="url(#clip310)" d="M131.816 915.541 L120.011 933.99 L131.816 933.99 L131.816 915.541 M130.589 911.467 L136.469 911.467 L136.469 933.99 L141.399 933.99 L141.399 937.879 L136.469 937.879 L136.469 946.027 L131.816 946.027 L131.816 937.879 L116.214 937.879 L116.214 933.365 L130.589 911.467 Z" fill="#000000" fill-rule="nonzero" fill-opacity="1" /><path clip-path="url(#clip310)" d="M159.131 914.546 Q155.52 914.546 153.691 918.111 Q151.886 921.652 151.886 928.782 Q151.886 935.888 153.691 939.453 Q155.52 942.995 159.131 942.995 Q162.765 942.995 164.571 939.453 Q166.399 935.888 166.399 928.782 Q166.399 921.652 164.571 918.111 Q162.765 914.546 159.131 914.546 M159.131 910.842 Q164.941 910.842 167.997 915.448 Q171.075 920.032 171.075 928.782 Q171.075 937.509 167.997 942.115 Q164.941 946.698 159.131 946.698 Q153.321 946.698 150.242 942.115 Q147.186 937.509 147.186 928.782 Q147.186 920.032 150.242 915.448 Q153.321 910.842 159.131 910.842 Z" fill="#000000" fill-rule="nonzero" fill-opacity="1" /><path clip-path="url(#clip310)" d="M189.293 914.546 Q185.682 914.546 183.853 918.111 Q182.047 921.652 182.047 928.782 Q182.047 935.888 183.853 939.453 Q185.682 942.995 189.293 942.995 Q192.927 942.995 194.733 939.453 Q196.561 935.888 196.561 928.782 Q196.561 921.652 194.733 918.111 Q192.927 914.546 189.293 914.546 M189.293 910.842 Q195.103 910.842 198.158 915.448 Q201.237 920.032 201.237 928.782 Q201.237 937.509 198.158 942.115 Q195.103 946.698 189.293 946.698 Q183.483 946.698 180.404 942.115 Q177.348 937.509 177.348 928.782 Q177.348 920.032 180.404 915.448 Q183.483 910.842 189.293 910.842 Z" fill="#000000" fill-rule="nonzero" fill-opacity="1" /><path clip-path="url(#clip310)" d="M219.455 914.546 Q215.844 914.546 214.015 918.111 Q212.209 921.652 212.209 928.782 Q212.209 935.888 214.015 939.453 Q215.844 942.995 219.455 942.995 Q223.089 942.995 224.894 939.453 Q226.723 935.888 226.723 928.782 Q226.723 921.652 224.894 918.111 Q223.089 914.546 219.455 914.546 M219.455 910.842 Q225.265 910.842 228.32 915.448 Q231.399 920.032 231.399 928.782 Q231.399 937.509 228.32 942.115 Q225.265 946.698 219.455 946.698 Q213.644 946.698 210.566 942.115 Q207.51 937.509 207.51 928.782 Q207.51 920.032 210.566 915.448 Q213.644 910.842 219.455 910.842 Z" fill="#000000" fill-rule="nonzero" fill-opacity="1" /><path clip-path="url(#clip310)" d="M129.548 546.93 Q126.4 546.93 124.548 549.082 Q122.719 551.235 122.719 554.985 Q122.719 558.712 124.548 560.888 Q126.4 563.041 129.548 563.041 Q132.696 563.041 134.525 560.888 Q136.376 558.712 136.376 554.985 Q136.376 551.235 134.525 549.082 Q132.696 546.93 129.548 546.93 M138.83 532.277 L138.83 536.536 Q137.071 535.703 135.265 535.263 Q133.483 534.823 131.724 534.823 Q127.094 534.823 124.64 537.948 Q122.21 541.073 121.863 547.393 Q123.228 545.379 125.288 544.314 Q127.349 543.226 129.825 543.226 Q135.034 543.226 138.043 546.397 Q141.075 549.545 141.075 554.985 Q141.075 560.309 137.927 563.527 Q134.779 566.744 129.548 566.744 Q123.552 566.744 120.381 562.161 Q117.21 557.555 117.21 548.828 Q117.21 540.633 121.099 535.772 Q124.988 530.888 131.538 530.888 Q133.298 530.888 135.08 531.235 Q136.886 531.582 138.83 532.277 Z" fill="#000000" fill-rule="nonzero" fill-opacity="1" /><path clip-path="url(#clip310)" d="M159.131 534.592 Q155.52 534.592 153.691 538.157 Q151.886 541.698 151.886 548.828 Q151.886 555.934 153.691 559.499 Q155.52 563.041 159.131 563.041 Q162.765 563.041 164.571 559.499 Q166.399 555.934 166.399 548.828 Q166.399 541.698 164.571 538.157 Q162.765 534.592 159.131 534.592 M159.131 530.888 Q164.941 530.888 167.997 535.495 Q171.075 540.078 171.075 548.828 Q171.075 557.555 167.997 562.161 Q164.941 566.744 159.131 566.744 Q153.321 566.744 150.242 562.161 Q147.186 557.555 147.186 548.828 Q147.186 540.078 150.242 535.495 Q153.321 530.888 159.131 530.888 Z" fill="#000000" fill-rule="nonzero" fill-opacity="1" /><path clip-path="url(#clip310)" d="M189.293 534.592 Q185.682 534.592 183.853 538.157 Q182.047 541.698 182.047 548.828 Q182.047 555.934 183.853 559.499 Q185.682 563.041 189.293 563.041 Q192.927 563.041 194.733 559.499 Q196.561 555.934 196.561 548.828 Q196.561 541.698 194.733 538.157 Q192.927 534.592 189.293 534.592 M189.293 530.888 Q195.103 530.888 198.158 535.495 Q201.237 540.078 201.237 548.828 Q201.237 557.555 198.158 562.161 Q195.103 566.744 189.293 566.744 Q183.483 566.744 180.404 562.161 Q177.348 557.555 177.348 548.828 Q177.348 540.078 180.404 535.495 Q183.483 530.888 189.293 530.888 Z" fill="#000000" fill-rule="nonzero" fill-opacity="1" /><path clip-path="url(#clip310)" d="M219.455 534.592 Q215.844 534.592 214.015 538.157 Q212.209 541.698 212.209 548.828 Q212.209 555.934 214.015 559.499 Q215.844 563.041 219.455 563.041 Q223.089 563.041 224.894 559.499 Q226.723 555.934 226.723 548.828 Q226.723 541.698 224.894 538.157 Q223.089 534.592 219.455 534.592 M219.455 530.888 Q225.265 530.888 228.32 535.495 Q231.399 540.078 231.399 548.828 Q231.399 557.555 228.32 562.161 Q225.265 566.744 219.455 566.744 Q213.644 566.744 210.566 562.161 Q207.51 557.555 207.51 548.828 Q207.51 540.078 210.566 535.495 Q213.644 530.888 219.455 530.888 Z" fill="#000000" fill-rule="nonzero" fill-opacity="1" /><path clip-path="url(#clip310)" d="M128.969 169.707 Q125.636 169.707 123.714 171.49 Q121.816 173.272 121.816 176.397 Q121.816 179.522 123.714 181.304 Q125.636 183.087 128.969 183.087 Q132.302 183.087 134.224 181.304 Q136.145 179.499 136.145 176.397 Q136.145 173.272 134.224 171.49 Q132.325 169.707 128.969 169.707 M124.293 167.716 Q121.284 166.976 119.594 164.915 Q117.927 162.855 117.927 159.892 Q117.927 155.749 120.867 153.341 Q123.83 150.934 128.969 150.934 Q134.131 150.934 137.071 153.341 Q140.011 155.749 140.011 159.892 Q140.011 162.855 138.321 164.915 Q136.654 166.976 133.668 167.716 Q137.048 168.503 138.923 170.795 Q140.821 173.087 140.821 176.397 Q140.821 181.42 137.742 184.105 Q134.687 186.79 128.969 186.79 Q123.251 186.79 120.173 184.105 Q117.117 181.42 117.117 176.397 Q117.117 173.087 119.015 170.795 Q120.913 168.503 124.293 167.716 M122.58 160.332 Q122.58 163.017 124.247 164.522 Q125.937 166.027 128.969 166.027 Q131.978 166.027 133.668 164.522 Q135.381 163.017 135.381 160.332 Q135.381 157.647 133.668 156.142 Q131.978 154.638 128.969 154.638 Q125.937 154.638 124.247 156.142 Q122.58 157.647 122.58 160.332 Z" fill="#000000" fill-rule="nonzero" fill-opacity="1" /><path clip-path="url(#clip310)" d="M159.131 154.638 Q155.52 154.638 153.691 158.203 Q151.886 161.744 151.886 168.874 Q151.886 175.98 153.691 179.545 Q155.52 183.087 159.131 183.087 Q162.765 183.087 164.571 179.545 Q166.399 175.98 166.399 168.874 Q166.399 161.744 164.571 158.203 Q162.765 154.638 159.131 154.638 M159.131 150.934 Q164.941 150.934 167.997 155.541 Q171.075 160.124 171.075 168.874 Q171.075 177.601 167.997 182.207 Q164.941 186.79 159.131 186.79 Q153.321 186.79 150.242 182.207 Q147.186 177.601 147.186 168.874 Q147.186 160.124 150.242 155.541 Q153.321 150.934 159.131 150.934 Z" fill="#000000" fill-rule="nonzero" fill-opacity="1" /><path clip-path="url(#clip310)" d="M189.293 154.638 Q185.682 154.638 183.853 158.203 Q182.047 161.744 182.047 168.874 Q182.047 175.98 183.853 179.545 Q185.682 183.087 189.293 183.087 Q192.927 183.087 194.733 179.545 Q196.561 175.98 196.561 168.874 Q196.561 161.744 194.733 158.203 Q192.927 154.638 189.293 154.638 M189.293 150.934 Q195.103 150.934 198.158 155.541 Q201.237 160.124 201.237 168.874 Q201.237 177.601 198.158 182.207 Q195.103 186.79 189.293 186.79 Q183.483 186.79 180.404 182.207 Q177.348 177.601 177.348 168.874 Q177.348 160.124 180.404 155.541 Q183.483 150.934 189.293 150.934 Z" fill="#000000" fill-rule="nonzero" fill-opacity="1" /><path clip-path="url(#clip310)" d="M219.455 154.638 Q215.844 154.638 214.015 158.203 Q212.209 161.744 212.209 168.874 Q212.209 175.98 214.015 179.545 Q215.844 183.087 219.455 183.087 Q223.089 183.087 224.894 179.545 Q226.723 175.98 226.723 168.874 Q226.723 161.744 224.894 158.203 Q223.089 154.638 219.455 154.638 M219.455 150.934 Q225.265 150.934 228.32 155.541 Q231.399 160.124 231.399 168.874 Q231.399 177.601 228.32 182.207 Q225.265 186.79 219.455 186.79 Q213.644 186.79 210.566 182.207 Q207.51 177.601 207.51 168.874 Q207.51 160.124 210.566 155.541 Q213.644 150.934 219.455 150.934 Z" fill="#000000" fill-rule="nonzero" fill-opacity="1" /><path clip-path="url(#clip310)" d="M14.1184 1157.19 L14.1184 1147.61 L46.4562 1135.48 L14.1184 1123.29 L14.1184 1113.71 L61.6384 1113.71 L61.6384 1119.98 L19.9112 1119.98 L52.5037 1132.24 L52.5037 1138.7 L19.9112 1150.95 L61.6384 1150.95 L61.6384 1157.19 L14.1184 1157.19 Z" fill="#000000" fill-rule="nonzero" fill-opacity="1" /><path clip-path="url(#clip310)" d="M42.3504 1070.71 L45.2149 1070.71 L45.2149 1097.64 Q51.2623 1097.26 54.4452 1094.01 Q57.5962 1090.73 57.5962 1084.91 Q57.5962 1081.54 56.7687 1078.38 Q55.9411 1075.2 54.2861 1072.08 L59.8242 1072.08 Q61.161 1075.23 61.8612 1078.54 Q62.5615 1081.85 62.5615 1085.26 Q62.5615 1093.79 57.5962 1098.79 Q52.631 1103.75 44.1646 1103.75 Q35.4117 1103.75 30.2873 1099.04 Q25.1311 1094.3 25.1311 1086.28 Q25.1311 1079.08 29.7781 1074.92 Q34.3932 1070.71 42.3504 1070.71 M40.6316 1076.57 Q35.8255 1076.63 32.9609 1079.28 Q30.0964 1081.89 30.0964 1086.21 Q30.0964 1091.12 32.8654 1094.08 Q35.6345 1097 40.6634 1097.45 L40.6316 1076.57 Z" fill="#000000" fill-rule="nonzero" fill-opacity="1" /><path clip-path="url(#clip310)" d="M43.719 1044.9 Q43.719 1052 45.3422 1054.74 Q46.9655 1057.47 50.8804 1057.47 Q53.9996 1057.47 55.8457 1055.44 Q57.6599 1053.37 57.6599 1049.83 Q57.6599 1044.96 54.2224 1042.04 Q50.7531 1039.08 45.0239 1039.08 L43.719 1039.08 L43.719 1044.9 M41.3 1033.22 L61.6384 1033.22 L61.6384 1039.08 L56.2276 1039.08 Q59.4741 1041.08 61.0337 1044.07 Q62.5615 1047.07 62.5615 1051.39 Q62.5615 1056.87 59.5059 1060.11 Q56.4186 1063.33 51.2623 1063.33 Q45.2467 1063.33 42.1912 1059.32 Q39.1357 1055.28 39.1357 1047.29 L39.1357 1039.08 L38.5628 1039.08 Q34.5205 1039.08 32.3244 1041.75 Q30.0964 1044.39 30.0964 1049.2 Q30.0964 1052.25 30.8284 1055.15 Q31.5605 1058.05 33.0246 1060.72 L27.6137 1060.72 Q26.3724 1057.5 25.7677 1054.48 Q25.1311 1051.46 25.1311 1048.59 Q25.1311 1040.86 29.1415 1037.04 Q33.1519 1033.22 41.3 1033.22 Z" fill="#000000" fill-rule="nonzero" fill-opacity="1" /><path clip-path="url(#clip310)" d="M40.1224 991.524 L61.6384 991.524 L61.6384 997.381 L40.3133 997.381 Q35.2526 997.381 32.7381 999.354 Q30.2237 1001.33 30.2237 1005.27 Q30.2237 1010.02 33.2474 1012.75 Q36.2711 1015.49 41.491 1015.49 L61.6384 1015.49 L61.6384 1021.38 L25.9905 1021.38 L25.9905 1015.49 L31.5287 1015.49 Q28.314 1013.39 26.7225 1010.56 Q25.1311 1007.69 25.1311 1003.97 Q25.1311 997.826 28.9505 994.675 Q32.7381 991.524 40.1224 991.524 Z" fill="#000000" fill-rule="nonzero" fill-opacity="1" /><path clip-path="url(#clip310)" d="M14.1184 958.868 L14.1184 952.439 L61.6384 952.439 L61.6384 958.868 L14.1184 958.868 Z" fill="#000000" fill-rule="nonzero" fill-opacity="1" /><path clip-path="url(#clip310)" d="M40.1224 910.266 L61.6384 910.266 L61.6384 916.122 L40.3133 916.122 Q35.2526 916.122 32.7381 918.096 Q30.2237 920.069 30.2237 924.016 Q30.2237 928.758 33.2474 931.496 Q36.2711 934.233 41.491 934.233 L61.6384 934.233 L61.6384 940.121 L25.9905 940.121 L25.9905 934.233 L31.5287 934.233 Q28.314 932.132 26.7225 929.299 Q25.1311 926.435 25.1311 922.711 Q25.1311 916.568 28.9505 913.417 Q32.7381 910.266 40.1224 910.266 Z" fill="#000000" fill-rule="nonzero" fill-opacity="1" /><path clip-path="url(#clip310)" d="M12.1132 880.538 L16.983 880.538 L16.983 886.14 Q16.983 889.291 18.2562 890.532 Q19.5293 891.742 22.8395 891.742 L25.9905 891.742 L25.9905 882.098 L30.542 882.098 L30.542 891.742 L61.6384 891.742 L61.6384 897.63 L30.542 897.63 L30.542 903.232 L25.9905 903.232 L25.9905 897.63 L23.5079 897.63 Q17.5559 897.63 14.8505 894.861 Q12.1132 892.092 12.1132 886.076 L12.1132 880.538 Z" fill="#000000" fill-rule="nonzero" fill-opacity="1" /><path clip-path="url(#clip310)" d="M42.3504 845.145 L45.2149 845.145 L45.2149 872.072 Q51.2623 871.69 54.4452 868.443 Q57.5962 865.165 57.5962 859.34 Q57.5962 855.967 56.7687 852.816 Q55.9411 849.633 54.2861 846.513 L59.8242 846.513 Q61.161 849.664 61.8612 852.975 Q62.5615 856.285 62.5615 859.69 Q62.5615 868.221 57.5962 873.218 Q52.631 878.183 44.1646 878.183 Q35.4117 878.183 30.2873 873.472 Q25.1311 868.73 25.1311 860.709 Q25.1311 853.516 29.7781 849.346 Q34.3932 845.145 42.3504 845.145 M40.6316 851.001 Q35.8255 851.065 32.9609 853.707 Q30.0964 856.317 30.0964 860.645 Q30.0964 865.547 32.8654 868.507 Q35.6345 871.435 40.6634 871.881 L40.6316 851.001 Z" fill="#000000" fill-rule="nonzero" fill-opacity="1" /><path clip-path="url(#clip310)" d="M27.3591 809.879 L32.8336 809.879 Q31.465 812.361 30.7966 814.876 Q30.0964 817.359 30.0964 819.905 Q30.0964 825.602 33.7248 828.753 Q37.3214 831.904 43.8463 831.904 Q50.3711 831.904 53.9996 828.753 Q57.5962 825.602 57.5962 819.905 Q57.5962 817.359 56.9278 814.876 Q56.2276 812.361 54.859 809.879 L60.2698 809.879 Q61.4156 812.33 61.9886 814.971 Q62.5615 817.581 62.5615 820.541 Q62.5615 828.594 57.5007 833.336 Q52.44 838.079 43.8463 838.079 Q35.1253 838.079 30.1282 833.305 Q25.1311 828.499 25.1311 820.159 Q25.1311 817.454 25.704 814.876 Q26.2451 812.298 27.3591 809.879 Z" fill="#000000" fill-rule="nonzero" fill-opacity="1" /><path clip-path="url(#clip310)" d="M15.869 793.901 L25.9905 793.901 L25.9905 781.838 L30.542 781.838 L30.542 793.901 L49.8937 793.901 Q54.2542 793.901 55.4955 792.723 Q56.7368 791.514 56.7368 787.853 L56.7368 781.838 L61.6384 781.838 L61.6384 787.853 Q61.6384 794.633 59.124 797.211 Q56.5777 799.789 49.8937 799.789 L30.542 799.789 L30.542 804.086 L25.9905 804.086 L25.9905 799.789 L15.869 799.789 L15.869 793.901 Z" fill="#000000" fill-rule="nonzero" fill-opacity="1" /><path clip-path="url(#clip310)" d="M42.3504 743.644 L45.2149 743.644 L45.2149 770.571 Q51.2623 770.189 54.4452 766.942 Q57.5962 763.664 57.5962 757.839 Q57.5962 754.465 56.7687 751.314 Q55.9411 748.131 54.2861 745.012 L59.8242 745.012 Q61.161 748.163 61.8612 751.473 Q62.5615 754.784 62.5615 758.189 Q62.5615 766.719 57.5962 771.716 Q52.631 776.682 44.1646 776.682 Q35.4117 776.682 30.2873 771.971 Q25.1311 767.229 25.1311 759.208 Q25.1311 752.015 29.7781 747.845 Q34.3932 743.644 42.3504 743.644 M40.6316 749.5 Q35.8255 749.564 32.9609 752.206 Q30.0964 754.815 30.0964 759.144 Q30.0964 764.046 32.8654 767.006 Q35.6345 769.934 40.6634 770.38 L40.6316 749.5 Z" fill="#000000" fill-rule="nonzero" fill-opacity="1" /><path clip-path="url(#clip310)" d="M31.4013 710.574 L12.1132 710.574 L12.1132 704.717 L61.6384 704.717 L61.6384 710.574 L56.2912 710.574 Q59.4741 712.42 61.0337 715.253 Q62.5615 718.053 62.5615 722 Q62.5615 728.461 57.4052 732.535 Q52.249 736.578 43.8463 736.578 Q35.4436 736.578 30.2873 732.535 Q25.1311 728.461 25.1311 722 Q25.1311 718.053 26.6907 715.253 Q28.2185 712.42 31.4013 710.574 M43.8463 730.53 Q50.3075 730.53 53.9996 727.889 Q57.6599 725.215 57.6599 720.568 Q57.6599 715.921 53.9996 713.247 Q50.3075 710.574 43.8463 710.574 Q37.3851 710.574 33.7248 713.247 Q30.0327 715.921 30.0327 720.568 Q30.0327 725.215 33.7248 727.889 Q37.3851 730.53 43.8463 730.53 Z" fill="#000000" fill-rule="nonzero" fill-opacity="1" /><path clip-path="url(#clip310)" d="M920.364 12.096 L928.546 12.096 L928.546 72.576 L920.364 72.576 L920.364 12.096 Z" fill="#000000" fill-rule="nonzero" fill-opacity="1" /><path clip-path="url(#clip310)" d="M979.831 35.9153 Q982.626 30.8922 986.515 28.5022 Q990.404 26.1121 995.67 26.1121 Q1002.76 26.1121 1006.61 31.0947 Q1010.46 36.0368 1010.46 45.1919 L1010.46 72.576 L1002.96 72.576 L1002.96 45.4349 Q1002.96 38.913 1000.65 35.7533 Q998.343 32.5936 993.604 32.5936 Q987.811 32.5936 984.449 36.4419 Q981.087 40.2903 981.087 46.9338 L981.087 72.576 L973.592 72.576 L973.592 45.4349 Q973.592 38.8725 971.283 35.7533 Q968.974 32.5936 964.154 32.5936 Q958.442 32.5936 955.08 36.4824 Q951.718 40.3308 951.718 46.9338 L951.718 72.576 L944.223 72.576 L944.223 27.2059 L951.718 27.2059 L951.718 34.2544 Q954.27 30.082 957.834 28.0971 Q961.399 26.1121 966.301 26.1121 Q971.243 26.1121 974.686 28.6237 Q978.17 31.1352 979.831 35.9153 Z" fill="#000000" fill-rule="nonzero" fill-opacity="1" /><path clip-path="url(#clip310)" d="M1032.53 65.7705 L1032.53 89.8329 L1025.04 89.8329 L1025.04 27.2059 L1032.53 27.2059 L1032.53 34.0924 Q1034.88 30.0415 1038.45 28.0971 Q1042.05 26.1121 1047.04 26.1121 Q1055.3 26.1121 1060.44 32.6746 Q1065.63 39.2371 1065.63 49.9314 Q1065.63 60.6258 1060.44 67.1883 Q1055.3 73.7508 1047.04 73.7508 Q1042.05 73.7508 1038.45 71.8063 Q1034.88 69.8214 1032.53 65.7705 M1057.89 49.9314 Q1057.89 41.7081 1054.49 37.0496 Q1051.13 32.3505 1045.21 32.3505 Q1039.3 32.3505 1035.9 37.0496 Q1032.53 41.7081 1032.53 49.9314 Q1032.53 58.1548 1035.9 62.8538 Q1039.3 67.5124 1045.21 67.5124 Q1051.13 67.5124 1054.49 62.8538 Q1057.89 58.1548 1057.89 49.9314 Z" fill="#000000" fill-rule="nonzero" fill-opacity="1" /><path clip-path="url(#clip310)" d="M1098.6 49.7694 Q1089.57 49.7694 1086.09 51.8354 Q1082.6 53.9013 1082.6 58.8839 Q1082.6 62.8538 1085.19 65.2034 Q1087.83 67.5124 1092.32 67.5124 Q1098.52 67.5124 1102.25 63.1374 Q1106.02 58.7219 1106.02 51.4303 L1106.02 49.7694 L1098.6 49.7694 M1113.47 46.6907 L1113.47 72.576 L1106.02 72.576 L1106.02 65.6895 Q1103.46 69.8214 1099.66 71.8063 Q1095.85 73.7508 1090.34 73.7508 Q1083.37 73.7508 1079.24 69.8619 Q1075.15 65.9325 1075.15 59.3701 Q1075.15 51.7138 1080.25 47.825 Q1085.4 43.9361 1095.57 43.9361 L1106.02 43.9361 L1106.02 43.2069 Q1106.02 38.0623 1102.61 35.2672 Q1099.25 32.4315 1093.13 32.4315 Q1089.25 32.4315 1085.56 33.3632 Q1081.87 34.295 1078.47 36.1584 L1078.47 29.2718 Q1082.56 27.692 1086.41 26.9223 Q1090.26 26.1121 1093.9 26.1121 Q1103.75 26.1121 1108.61 31.2163 Q1113.47 36.3204 1113.47 46.6907 Z" fill="#000000" fill-rule="nonzero" fill-opacity="1" /><path clip-path="url(#clip310)" d="M1161.47 28.9478 L1161.47 35.9153 Q1158.31 34.1734 1155.11 33.3227 Q1151.95 32.4315 1148.71 32.4315 Q1141.46 32.4315 1137.45 37.0496 Q1133.44 41.6271 1133.44 49.9314 Q1133.44 58.2358 1137.45 62.8538 Q1141.46 67.4314 1148.71 67.4314 Q1151.95 67.4314 1155.11 66.5807 Q1158.31 65.6895 1161.47 63.9476 L1161.47 70.8341 Q1158.35 72.2924 1154.99 73.0216 Q1151.67 73.7508 1147.9 73.7508 Q1137.65 73.7508 1131.62 67.3098 Q1125.58 60.8689 1125.58 49.9314 Q1125.58 38.832 1131.66 32.472 Q1137.78 26.1121 1148.39 26.1121 Q1151.83 26.1121 1155.11 26.8413 Q1158.39 27.5299 1161.47 28.9478 Z" fill="#000000" fill-rule="nonzero" fill-opacity="1" /><path clip-path="url(#clip310)" d="M1181.81 14.324 L1181.81 27.2059 L1197.16 27.2059 L1197.16 32.9987 L1181.81 32.9987 L1181.81 57.6282 Q1181.81 63.1779 1183.31 64.7578 Q1184.85 66.3376 1189.51 66.3376 L1197.16 66.3376 L1197.16 72.576 L1189.51 72.576 Q1180.88 72.576 1177.6 69.3758 Q1174.31 66.1351 1174.31 57.6282 L1174.31 32.9987 L1168.85 32.9987 L1168.85 27.2059 L1174.31 27.2059 L1174.31 14.324 L1181.81 14.324 Z" fill="#000000" fill-rule="nonzero" fill-opacity="1" /><path clip-path="url(#clip310)" d="M1250.92 32.4315 Q1244.92 32.4315 1241.44 37.1306 Q1237.95 41.7891 1237.95 49.9314 Q1237.95 58.0738 1241.4 62.7728 Q1244.88 67.4314 1250.92 67.4314 Q1256.87 67.4314 1260.36 62.7323 Q1263.84 58.0333 1263.84 49.9314 Q1263.84 41.8701 1260.36 37.1711 Q1256.87 32.4315 1250.92 32.4315 M1250.92 26.1121 Q1260.64 26.1121 1266.19 32.4315 Q1271.74 38.7509 1271.74 49.9314 Q1271.74 61.0714 1266.19 67.4314 Q1260.64 73.7508 1250.92 73.7508 Q1241.15 73.7508 1235.6 67.4314 Q1230.1 61.0714 1230.1 49.9314 Q1230.1 38.7509 1235.6 32.4315 Q1241.15 26.1121 1250.92 26.1121 Z" fill="#000000" fill-rule="nonzero" fill-opacity="1" /><path clip-path="url(#clip310)" d="M1307.06 9.54393 L1307.06 15.7418 L1299.93 15.7418 Q1295.92 15.7418 1294.34 17.3622 Q1292.8 18.9825 1292.8 23.1955 L1292.8 27.2059 L1305.08 27.2059 L1305.08 32.9987 L1292.8 32.9987 L1292.8 72.576 L1285.31 72.576 L1285.31 32.9987 L1278.18 32.9987 L1278.18 27.2059 L1285.31 27.2059 L1285.31 24.0462 Q1285.31 16.471 1288.83 13.0277 Q1292.36 9.54393 1300.01 9.54393 L1307.06 9.54393 Z" fill="#000000" fill-rule="nonzero" fill-opacity="1" /><path clip-path="url(#clip310)" d="M1368.68 44.2197 Q1371.31 45.1109 1373.78 48.0275 Q1376.29 50.9442 1378.8 56.0483 L1387.11 72.576 L1378.32 72.576 L1370.58 57.061 Q1367.58 50.9847 1364.75 48.9997 Q1361.95 47.0148 1357.09 47.0148 L1348.18 47.0148 L1348.18 72.576 L1340 72.576 L1340 12.096 L1358.47 12.096 Q1368.84 12.096 1373.94 16.4305 Q1379.05 20.7649 1379.05 29.5149 Q1379.05 35.2267 1376.37 38.994 Q1373.74 42.7613 1368.68 44.2197 M1348.18 18.8205 L1348.18 40.2903 L1358.47 40.2903 Q1364.38 40.2903 1367.38 37.5762 Q1370.42 34.8216 1370.42 29.5149 Q1370.42 24.2082 1367.38 21.5346 Q1364.38 18.8205 1358.47 18.8205 L1348.18 18.8205 Z" fill="#000000" fill-rule="nonzero" fill-opacity="1" /><path clip-path="url(#clip310)" d="M1432.4 48.0275 L1432.4 51.6733 L1398.13 51.6733 Q1398.61 59.3701 1402.75 63.421 Q1406.92 67.4314 1414.33 67.4314 Q1418.62 67.4314 1422.64 66.3781 Q1426.69 65.3249 1430.66 63.2184 L1430.66 70.267 Q1426.65 71.9684 1422.43 72.8596 Q1418.22 73.7508 1413.89 73.7508 Q1403.03 73.7508 1396.67 67.4314 Q1390.35 61.1119 1390.35 50.3365 Q1390.35 39.1965 1396.34 32.6746 Q1402.38 26.1121 1412.59 26.1121 Q1421.74 26.1121 1427.05 32.0264 Q1432.4 37.9003 1432.4 48.0275 M1424.94 45.84 Q1424.86 39.7232 1421.5 36.0774 Q1418.18 32.4315 1412.67 32.4315 Q1406.43 32.4315 1402.66 35.9558 Q1398.94 39.4801 1398.37 45.8805 L1424.94 45.84 Z" fill="#000000" fill-rule="nonzero" fill-opacity="1" /><path clip-path="url(#clip310)" d="M1473.56 28.5427 L1473.56 35.5912 Q1470.4 33.9709 1466.99 33.1607 Q1463.59 32.3505 1459.94 32.3505 Q1454.39 32.3505 1451.6 34.0519 Q1448.84 35.7533 1448.84 39.156 Q1448.84 41.7486 1450.83 43.2475 Q1452.81 44.7058 1458.81 46.0426 L1461.36 46.6097 Q1469.3 48.3111 1472.62 51.4303 Q1475.99 54.509 1475.99 60.0587 Q1475.99 66.3781 1470.96 70.0644 Q1465.98 73.7508 1457.23 73.7508 Q1453.58 73.7508 1449.61 73.0216 Q1445.68 72.3329 1441.31 70.9151 L1441.31 63.2184 Q1445.44 65.3654 1449.45 66.4591 Q1453.46 67.5124 1457.39 67.5124 Q1462.66 67.5124 1465.49 65.73 Q1468.33 63.9071 1468.33 60.6258 Q1468.33 57.5877 1466.26 55.9673 Q1464.24 54.3469 1457.31 52.8481 L1454.72 52.2405 Q1447.79 50.7821 1444.71 47.7845 Q1441.63 44.7463 1441.63 39.4801 Q1441.63 33.0797 1446.17 29.5959 Q1450.71 26.1121 1459.05 26.1121 Q1463.18 26.1121 1466.83 26.7198 Q1470.48 27.3274 1473.56 28.5427 Z" fill="#000000" fill-rule="nonzero" fill-opacity="1" /><path clip-path="url(#clip310)" d="M1495.07 65.7705 L1495.07 89.8329 L1487.57 89.8329 L1487.57 27.2059 L1495.07 27.2059 L1495.07 34.0924 Q1497.41 30.0415 1500.98 28.0971 Q1504.59 26.1121 1509.57 26.1121 Q1517.83 26.1121 1522.98 32.6746 Q1528.16 39.2371 1528.16 49.9314 Q1528.16 60.6258 1522.98 67.1883 Q1517.83 73.7508 1509.57 73.7508 Q1504.59 73.7508 1500.98 71.8063 Q1497.41 69.8214 1495.07 65.7705 M1520.42 49.9314 Q1520.42 41.7081 1517.02 37.0496 Q1513.66 32.3505 1507.74 32.3505 Q1501.83 32.3505 1498.43 37.0496 Q1495.07 41.7081 1495.07 49.9314 Q1495.07 58.1548 1498.43 62.8538 Q1501.83 67.5124 1507.74 67.5124 Q1513.66 67.5124 1517.02 62.8538 Q1520.42 58.1548 1520.42 49.9314 Z" fill="#000000" fill-rule="nonzero" fill-opacity="1" /><path clip-path="url(#clip310)" d="M1558.1 32.4315 Q1552.1 32.4315 1548.62 37.1306 Q1545.13 41.7891 1545.13 49.9314 Q1545.13 58.0738 1548.58 62.7728 Q1552.06 67.4314 1558.1 67.4314 Q1564.05 67.4314 1567.54 62.7323 Q1571.02 58.0333 1571.02 49.9314 Q1571.02 41.8701 1567.54 37.1711 Q1564.05 32.4315 1558.1 32.4315 M1558.1 26.1121 Q1567.82 26.1121 1573.37 32.4315 Q1578.92 38.7509 1578.92 49.9314 Q1578.92 61.0714 1573.37 67.4314 Q1567.82 73.7508 1558.1 73.7508 Q1548.33 73.7508 1542.79 67.4314 Q1537.28 61.0714 1537.28 49.9314 Q1537.28 38.7509 1542.79 32.4315 Q1548.33 26.1121 1558.1 26.1121 Z" fill="#000000" fill-rule="nonzero" fill-opacity="1" /><path clip-path="url(#clip310)" d="M1628.99 45.1919 L1628.99 72.576 L1621.53 72.576 L1621.53 45.4349 Q1621.53 38.994 1619.02 35.7938 Q1616.51 32.5936 1611.49 32.5936 Q1605.45 32.5936 1601.97 36.4419 Q1598.48 40.2903 1598.48 46.9338 L1598.48 72.576 L1590.99 72.576 L1590.99 27.2059 L1598.48 27.2059 L1598.48 34.2544 Q1601.16 30.163 1604.76 28.1376 Q1608.41 26.1121 1613.15 26.1121 Q1620.97 26.1121 1624.98 30.9732 Q1628.99 35.7938 1628.99 45.1919 Z" fill="#000000" fill-rule="nonzero" fill-opacity="1" /><path clip-path="url(#clip310)" d="M1672.78 28.5427 L1672.78 35.5912 Q1669.62 33.9709 1666.22 33.1607 Q1662.81 32.3505 1659.17 32.3505 Q1653.62 32.3505 1650.82 34.0519 Q1648.07 35.7533 1648.07 39.156 Q1648.07 41.7486 1650.05 43.2475 Q1652.04 44.7058 1658.03 46.0426 L1660.59 46.6097 Q1668.53 48.3111 1671.85 51.4303 Q1675.21 54.509 1675.21 60.0587 Q1675.21 66.3781 1670.19 70.0644 Q1665.2 73.7508 1656.45 73.7508 Q1652.81 73.7508 1648.84 73.0216 Q1644.91 72.3329 1640.53 70.9151 L1640.53 63.2184 Q1644.67 65.3654 1648.68 66.4591 Q1652.69 67.5124 1656.62 67.5124 Q1661.88 67.5124 1664.72 65.73 Q1667.55 63.9071 1667.55 60.6258 Q1667.55 57.5877 1665.49 55.9673 Q1663.46 54.3469 1656.53 52.8481 L1653.94 52.2405 Q1647.01 50.7821 1643.94 47.7845 Q1640.86 44.7463 1640.86 39.4801 Q1640.86 33.0797 1645.39 29.5959 Q1649.93 26.1121 1658.28 26.1121 Q1662.41 26.1121 1666.05 26.7198 Q1669.7 27.3274 1672.78 28.5427 Z" fill="#000000" fill-rule="nonzero" fill-opacity="1" /><path clip-path="url(#clip310)" d="M1725.89 48.0275 L1725.89 51.6733 L1691.62 51.6733 Q1692.1 59.3701 1696.23 63.421 Q1700.41 67.4314 1707.82 67.4314 Q1712.11 67.4314 1716.12 66.3781 Q1720.17 65.3249 1724.14 63.2184 L1724.14 70.267 Q1720.13 71.9684 1715.92 72.8596 Q1711.71 73.7508 1707.37 73.7508 Q1696.52 73.7508 1690.16 67.4314 Q1683.84 61.1119 1683.84 50.3365 Q1683.84 39.1965 1689.83 32.6746 Q1695.87 26.1121 1706.08 26.1121 Q1715.23 26.1121 1720.54 32.0264 Q1725.89 37.9003 1725.89 48.0275 M1718.43 45.84 Q1718.35 39.7232 1714.99 36.0774 Q1711.67 32.4315 1706.16 32.4315 Q1699.92 32.4315 1696.15 35.9558 Q1692.43 39.4801 1691.86 45.8805 L1718.43 45.84 Z" fill="#000000" fill-rule="nonzero" fill-opacity="1" /><path clip-path="url(#clip310)" d="M1773 18.8205 L1773 65.8515 L1782.88 65.8515 Q1795.4 65.8515 1801.19 60.1802 Q1807.03 54.509 1807.03 42.2752 Q1807.03 30.1225 1801.19 24.4918 Q1795.4 18.8205 1782.88 18.8205 L1773 18.8205 M1764.82 12.096 L1781.63 12.096 Q1799.21 12.096 1807.43 19.4281 Q1815.65 26.7198 1815.65 42.2752 Q1815.65 57.9117 1807.39 65.2439 Q1799.13 72.576 1781.63 72.576 L1764.82 72.576 L1764.82 12.096 Z" fill="#000000" fill-rule="nonzero" fill-opacity="1" /><path clip-path="url(#clip310)" d="M1867.18 48.0275 L1867.18 51.6733 L1832.91 51.6733 Q1833.4 59.3701 1837.53 63.421 Q1841.7 67.4314 1849.11 67.4314 Q1853.41 67.4314 1857.42 66.3781 Q1861.47 65.3249 1865.44 63.2184 L1865.44 70.267 Q1861.43 71.9684 1857.22 72.8596 Q1853 73.7508 1848.67 73.7508 Q1837.81 73.7508 1831.45 67.4314 Q1825.13 61.1119 1825.13 50.3365 Q1825.13 39.1965 1831.13 32.6746 Q1837.16 26.1121 1847.37 26.1121 Q1856.53 26.1121 1861.83 32.0264 Q1867.18 37.9003 1867.18 48.0275 M1859.73 45.84 Q1859.65 39.7232 1856.28 36.0774 Q1852.96 32.4315 1847.45 32.4315 Q1841.22 32.4315 1837.45 35.9558 Q1833.72 39.4801 1833.15 45.8805 L1859.73 45.84 Z" fill="#000000" fill-rule="nonzero" fill-opacity="1" /><path clip-path="url(#clip310)" d="M1879.42 9.54393 L1886.87 9.54393 L1886.87 72.576 L1879.42 72.576 L1879.42 9.54393 Z" fill="#000000" fill-rule="nonzero" fill-opacity="1" /><path clip-path="url(#clip310)" d="M1923.08 49.7694 Q1914.05 49.7694 1910.57 51.8354 Q1907.08 53.9013 1907.08 58.8839 Q1907.08 62.8538 1909.68 65.2034 Q1912.31 67.5124 1916.81 67.5124 Q1923 67.5124 1926.73 63.1374 Q1930.5 58.7219 1930.5 51.4303 L1930.5 49.7694 L1923.08 49.7694 M1937.95 46.6907 L1937.95 72.576 L1930.5 72.576 L1930.5 65.6895 Q1927.95 69.8214 1924.14 71.8063 Q1920.33 73.7508 1914.82 73.7508 Q1907.85 73.7508 1903.72 69.8619 Q1899.63 65.9325 1899.63 59.3701 Q1899.63 51.7138 1904.73 47.825 Q1909.88 43.9361 1920.05 43.9361 L1930.5 43.9361 L1930.5 43.2069 Q1930.5 38.0623 1927.09 35.2672 Q1923.73 32.4315 1917.62 32.4315 Q1913.73 32.4315 1910.04 33.3632 Q1906.35 34.295 1902.95 36.1584 L1902.95 29.2718 Q1907.04 27.692 1910.89 26.9223 Q1914.74 26.1121 1918.38 26.1121 Q1928.23 26.1121 1933.09 31.2163 Q1937.95 36.3204 1937.95 46.6907 Z" fill="#000000" fill-rule="nonzero" fill-opacity="1" /><path clip-path="url(#clip310)" d="M1972.18 76.7889 Q1969.02 84.8907 1966.02 87.3618 Q1963.03 89.8329 1958 89.8329 L1952.05 89.8329 L1952.05 83.5945 L1956.42 83.5945 Q1959.5 83.5945 1961.2 82.1361 Q1962.9 80.6778 1964.97 75.2496 L1966.31 71.8468 L1947.96 27.2059 L1955.86 27.2059 L1970.03 62.6918 L1984.21 27.2059 L1992.11 27.2059 L1972.18 76.7889 Z" fill="#000000" fill-rule="nonzero" fill-opacity="1" /><polyline clip-path="url(#clip311)" style="stroke:#008000; stroke-linecap:round; stroke-linejoin:round; stroke-width:8; stroke-opacity:1; fill:none" points="338.767,1687.71 349.942,1687.83 361.117,1687.78 372.291,1687.69 383.466,1687.56 394.641,1687.34 405.815,1687.15 416.99,1686.82 428.165,1686.47 439.34,1686.11 450.514,1685.61 461.689,1685.01 472.864,1684.36 484.038,1683.53 495.213,1682.59 506.388,1681.39 517.562,1680.14 528.737,1678.45 539.912,1676.63 551.087,1674.24 562.261,1671.51 573.436,1668.86 584.611,1665.24 595.785,1661.53 606.96,1657.05 618.135,1652.43 629.309,1646.95 640.484,1641.32 651.659,1635.02 662.834,1628.37 674.008,1621.18 685.183,1613.34 696.358,1605.55 707.532,1596.77 718.707,1588.23 729.882,1579.39 741.057,1569.25 752.231,1559.35 763.406,1549.32 774.581,1539.99 785.755,1530.11 796.93,1521.21 808.105,1512.66 819.279,1504.71 830.454,1496.91 841.629,1489.79 852.804,1482.78 863.978,1477.02 875.153,1472.39 886.328,1468.23 897.502,1465.02 908.677,1462.5 919.852,1460.6 931.026,1459.78 942.201,1460.12 953.376,1460.54 964.551,1462.52 975.725,1465.93 986.9,1469.33 998.075,1473.05 1009.25,1476.79 1020.42,1482.07 1031.6,1486.98 1042.77,1492.56 1053.95,1498.72 1065.12,1505.79 1076.3,1512.47 1087.47,1519.48 1098.65,1525.94 1109.82,1532.95 1121,1540.12 1132.17,1547.18 1143.35,1554.21 1154.52,1560.67 1165.7,1567.59 1176.87,1573.86 1188.04,1580.79 1199.22,1587.07 1210.39,1593.22 1221.57,1598.98 1232.74,1604.92 1243.92,1610.39 1255.09,1615.56 1266.27,1620.18 1277.44,1624.86 1288.62,1629.14 1299.79,1633.36 1310.97,1637.24 1322.14,1640.77 1333.32,1644.11 1344.49,1647.26 1355.67,1650.1 1366.84,1653.19 1378.01,1656.02 1389.19,1658.62 1400.36,1661.07 1411.54,1663.27 1422.71,1665.3 1433.89,1667.13 1445.06,1668.75 1456.24,1670.4 1467.41,1671.95 1478.59,1673.19 1489.76,1674.55 1500.94,1675.84 1512.11,1676.88 1523.29,1677.94 1534.46,1678.9 1545.64,1679.77 1556.81,1680.47 1567.98,1681.15 1579.16,1681.75 1590.33,1682.33 1601.51,1682.85 1612.68,1683.4 1623.86,1683.94 1635.03,1684.47 1646.21,1684.86 1657.38,1685.18 1668.56,1685.53 1679.73,1685.84 1690.91,1686.03 1702.08,1686.25 1713.26,1686.5 1724.43,1686.7 1735.61,1686.9 1746.78,1687.07 1757.95,1687.2 1769.13,1687.36 1780.3,1687.46 1791.48,1687.57 1802.65,1687.65 1813.83,1687.73 1825,1687.82 1836.18,1687.88 1847.35,1687.97 1858.53,1688.02 1869.7,1688.07 1880.88,1688.13 1892.05,1688.19 1903.23,1688.23 1914.4,1688.25 1925.57,1688.28 1936.75,1688.32 1947.92,1688.35 1959.1,1688.37 1970.27,1688.4 1981.45,1688.44 1992.62,1688.46 2003.8,1688.5 2014.97,1688.52 2026.15,1688.53 2037.32,1688.55 2048.5,1688.56 2059.67,1688.56 2070.85,1688.56 2082.02,1688.57 2093.2,1688.58 2104.37,1688.58 2115.54,1688.59 2126.72,1688.6 2137.89,1688.61 2149.07,1688.61 2160.24,1688.62 2171.42,1688.62 2182.59,1688.62 2193.77,1688.62 2204.94,1688.62 2216.12,1688.62 2227.29,1688.62 2238.47,1688.62 2249.64,1688.63 2260.82,1688.63 2271.99,1688.63 2283.17,1688.63 2294.34,1688.64 2305.51,1688.64 2316.69,1688.64 2327.86,1688.64 2339.04,1688.64 2350.21,1688.64 2361.39,1688.64 2372.56,1688.64 2383.74,1688.65 2394.91,1688.65 2406.09,1688.65 2417.26,1688.65 2428.44,1688.65 2439.61,1688.65 2450.79,1688.65 2461.96,1688.65 2473.14,1688.65 2484.31,1688.65 2495.48,1688.65 2506.66,1688.65 2517.83,1688.65 2529.01,1688.65 2540.18,1688.65 2551.36,1688.65 2562.53,1688.65 2573.71,1688.65 "/>
<polyline clip-path="url(#clip311)" style="stroke:#0000ff; stroke-linecap:round; stroke-linejoin:round; stroke-width:8; stroke-opacity:1; fill:none" points="338.767,1687.71 349.942,1687.83 361.117,1687.78 372.291,1687.69 383.466,1687.56 394.641,1687.34 405.815,1687.15 416.99,1686.82 428.165,1686.47 439.34,1686.12 450.514,1685.64 461.689,1685.05 472.864,1684.38 484.038,1683.53 495.213,1682.65 506.388,1681.45 517.562,1680 528.737,1678.35 539.912,1676.5 551.087,1674.05 562.261,1671.28 573.436,1668.33 584.611,1664.8 595.785,1660.23 606.96,1655.38 618.135,1649.75 629.309,1643.24 640.484,1635.95 651.659,1628.06 662.834,1619.04 674.008,1609.35 685.183,1598.41 696.358,1586.63 707.532,1574.05 718.707,1560.82 729.882,1546.05 741.057,1530.54 752.231,1515.37 763.406,1498.83 774.581,1482.33 785.755,1465.34 796.93,1448.57 808.105,1433.04 819.279,1416.72 830.454,1399.97 841.629,1384.58 852.804,1370.36 863.978,1356.56 875.153,1344.12 886.328,1332.78 897.502,1324.18 908.677,1316.1 919.852,1310.11 931.026,1305.68 942.201,1302.4 953.376,1301.42 964.551,1302.63 975.725,1304.05 986.9,1308.18 998.075,1313.42 1009.25,1319.37 1020.42,1326.97 1031.6,1334.91 1042.77,1344.11 1053.95,1354.63 1065.12,1365.93 1076.3,1378.08 1087.47,1390.12 1098.65,1402.76 1109.82,1415.37 1121,1428.39 1132.17,1441.16 1143.35,1452.76 1154.52,1465.12 1165.7,1477.31 1176.87,1488.52 1188.04,1499.65 1199.22,1511.14 1210.39,1521.54 1221.57,1532.19 1232.74,1542.27 1243.92,1551.77 1255.09,1561.02 1266.27,1569.62 1277.44,1577.9 1288.62,1585.65 1299.79,1593.13 1310.97,1600.19 1322.14,1606.65 1333.32,1612.48 1344.49,1618.25 1355.67,1623.64 1366.84,1628.67 1378.01,1633.46 1389.19,1637.44 1400.36,1641.54 1411.54,1645.32 1422.71,1648.92 1433.89,1652.09 1445.06,1654.99 1456.24,1657.8 1467.41,1660.59 1478.59,1662.95 1489.76,1665.08 1500.94,1667.07 1512.11,1668.94 1523.29,1670.66 1534.46,1672.19 1545.64,1673.65 1556.81,1675.06 1567.98,1676.32 1579.16,1677.41 1590.33,1678.34 1601.51,1679.14 1612.68,1680.06 1623.86,1680.78 1635.03,1681.44 1646.21,1681.99 1657.38,1682.51 1668.56,1683.01 1679.73,1683.54 1690.91,1684.01 1702.08,1684.46 1713.26,1684.82 1724.43,1685.23 1735.61,1685.52 1746.78,1685.79 1757.95,1686.04 1769.13,1686.33 1780.3,1686.57 1791.48,1686.77 1802.65,1686.9 1813.83,1687.09 1825,1687.24 1836.18,1687.37 1847.35,1687.52 1858.53,1687.61 1869.7,1687.7 1880.88,1687.78 1892.05,1687.85 1903.23,1687.93 1914.4,1688 1925.57,1688.07 1936.75,1688.13 1947.92,1688.18 1959.1,1688.24 1970.27,1688.29 1981.45,1688.34 1992.62,1688.37 2003.8,1688.39 2014.97,1688.4 2026.15,1688.41 2037.32,1688.42 2048.5,1688.44 2059.67,1688.46 2070.85,1688.49 2082.02,1688.5 2093.2,1688.51 2104.37,1688.53 2115.54,1688.55 2126.72,1688.56 2137.89,1688.56 2149.07,1688.57 2160.24,1688.58 2171.42,1688.58 2182.59,1688.58 2193.77,1688.58 2204.94,1688.58 2216.12,1688.58 2227.29,1688.59 2238.47,1688.6 2249.64,1688.6 2260.82,1688.61 2271.99,1688.62 2283.17,1688.62 2294.34,1688.63 2305.51,1688.63 2316.69,1688.63 2327.86,1688.64 2339.04,1688.64 2350.21,1688.64 2361.39,1688.64 2372.56,1688.64 2383.74,1688.64 2394.91,1688.64 2406.09,1688.65 2417.26,1688.65 2428.44,1688.65 2439.61,1688.65 2450.79,1688.65 2461.96,1688.65 2473.14,1688.65 2484.31,1688.65 2495.48,1688.65 2506.66,1688.65 2517.83,1688.65 2529.01,1688.65 2540.18,1688.65 2551.36,1688.65 2562.53,1688.65 2573.71,1688.65 "/>
<polyline clip-path="url(#clip311)" style="stroke:#ffa500; stroke-linecap:round; stroke-linejoin:round; stroke-width:8; stroke-opacity:1; fill:none" points="338.767,1687.71 349.942,1687.83 361.117,1687.78 372.291,1687.69 383.466,1687.56 394.641,1687.34 405.815,1687.15 416.99,1686.82 428.165,1686.47 439.34,1686.12 450.514,1685.63 461.689,1685 472.864,1684.36 484.038,1683.53 495.213,1682.64 506.388,1681.48 517.562,1680.17 528.737,1678.42 539.912,1676.58 551.087,1674.19 562.261,1671.44 573.436,1668.46 584.611,1664.82 595.785,1660.5 606.96,1655.48 618.135,1649.52 629.309,1642.48 640.484,1634.52 651.659,1625.16 662.834,1614.71 674.008,1603 685.183,1589.41 696.358,1573.79 707.532,1556.84 718.707,1537.63 729.882,1516.36 741.057,1492.89 752.231,1466.76 763.406,1438.55 774.581,1408.31 785.755,1376.37 796.93,1342.81 808.105,1307.83 819.279,1270.59 830.454,1233.11 841.629,1193.35 852.804,1154.76 863.978,1119.01 875.153,1082.87 886.328,1049.44 897.502,1017.13 908.677,989.285 919.852,962.966 931.026,941.966 942.201,923.401 953.376,909.229 964.551,900.771 975.725,895.596 986.9,895.908 998.075,898.351 1009.25,905.718 1020.42,917.698 1031.6,932.604 1042.77,949.675 1053.95,969.208 1065.12,992.287 1076.3,1015.99 1087.47,1042.51 1098.65,1068.23 1109.82,1095.79 1121,1124.23 1132.17,1152.75 1143.35,1181.32 1154.52,1209.12 1165.7,1236.62 1176.87,1263.55 1188.04,1289.75 1199.22,1315.57 1210.39,1338.78 1221.57,1362.01 1232.74,1384.39 1243.92,1406.31 1255.09,1425.78 1266.27,1444.93 1277.44,1462.5 1288.62,1478.92 1299.79,1495.19 1310.97,1510.18 1322.14,1523.86 1333.32,1536.64 1344.49,1548.72 1355.67,1560.34 1366.84,1570.42 1378.01,1579.94 1389.19,1588.89 1400.36,1597.36 1411.54,1605.11 1422.71,1612.11 1433.89,1618.58 1445.06,1624.58 1456.24,1630.04 1467.41,1635.12 1478.59,1639.66 1489.76,1643.79 1500.94,1647.79 1512.11,1651.37 1523.29,1654.55 1534.46,1657.31 1545.64,1660.05 1556.81,1662.56 1567.98,1664.87 1579.16,1666.91 1590.33,1668.95 1601.51,1670.69 1612.68,1672.41 1623.86,1673.79 1635.03,1675.03 1646.21,1676.24 1657.38,1677.21 1668.56,1678.27 1679.73,1679.23 1690.91,1680.02 1702.08,1680.82 1713.26,1681.53 1724.43,1682.24 1735.61,1682.83 1746.78,1683.3 1757.95,1683.79 1769.13,1684.22 1780.3,1684.63 1791.48,1685.02 1802.65,1685.3 1813.83,1685.58 1825,1685.93 1836.18,1686.21 1847.35,1686.46 1858.53,1686.64 1869.7,1686.8 1880.88,1686.96 1892.05,1687.13 1903.23,1687.29 1914.4,1687.44 1925.57,1687.56 1936.75,1687.66 1947.92,1687.74 1959.1,1687.81 1970.27,1687.89 1981.45,1687.95 1992.62,1688 2003.8,1688.07 2014.97,1688.12 2026.15,1688.18 2037.32,1688.24 2048.5,1688.29 2059.67,1688.32 2070.85,1688.34 2082.02,1688.38 2093.2,1688.4 2104.37,1688.44 2115.54,1688.49 2126.72,1688.49 2137.89,1688.51 2149.07,1688.51 2160.24,1688.52 2171.42,1688.53 2182.59,1688.54 2193.77,1688.55 2204.94,1688.57 2216.12,1688.58 2227.29,1688.59 2238.47,1688.6 2249.64,1688.6 2260.82,1688.61 2271.99,1688.61 2283.17,1688.61 2294.34,1688.62 2305.51,1688.62 2316.69,1688.62 2327.86,1688.62 2339.04,1688.63 2350.21,1688.63 2361.39,1688.63 2372.56,1688.63 2383.74,1688.63 2394.91,1688.63 2406.09,1688.63 2417.26,1688.64 2428.44,1688.64 2439.61,1688.64 2450.79,1688.64 2461.96,1688.64 2473.14,1688.64 2484.31,1688.64 2495.48,1688.64 2506.66,1688.64 2517.83,1688.64 2529.01,1688.64 2540.18,1688.64 2551.36,1688.64 2562.53,1688.64 2573.71,1688.64 "/>
<polyline clip-path="url(#clip311)" style="stroke:#ff0000; stroke-linecap:round; stroke-linejoin:round; stroke-width:8; stroke-opacity:1; fill:none" points="338.767,1687.71 349.942,1687.83 361.117,1687.78 372.291,1687.69 383.466,1687.56 394.641,1687.34 405.815,1687.15 416.99,1686.82 428.165,1686.47 439.34,1686.12 450.514,1685.63 461.689,1685 472.864,1684.36 484.038,1683.51 495.213,1682.64 506.388,1681.44 517.562,1680.03 528.737,1678.35 539.912,1676.47 551.087,1674.06 562.261,1671.42 573.436,1668.38 584.611,1664.65 595.785,1660.17 606.96,1654.61 618.135,1648.51 629.309,1641.26 640.484,1632.74 651.659,1622.34 662.834,1610.64 674.008,1597.41 685.183,1581.26 696.358,1563.29 707.532,1542.35 718.707,1517.96 729.882,1491.09 741.057,1460.91 752.231,1426.08 763.406,1387.39 774.581,1343.38 785.755,1296.91 796.93,1243.35 808.105,1186.87 819.279,1125.12 830.454,1058.79 841.629,989.661 852.804,917.459 863.978,843.246 875.153,769.261 886.328,692.066 897.502,616.953 908.677,543.903 919.852,474.425 931.026,409.643 942.201,349.91 953.376,298.821 964.551,253.766 975.725,219.118 986.9,194.425 998.075,178.053 1009.25,173.254 1020.42,178.076 1031.6,191.264 1042.77,212.644 1053.95,241.589 1065.12,277.194 1076.3,319.935 1087.47,368.668 1098.65,417.975 1109.82,470.808 1121,528.724 1132.17,585.535 1143.35,644.044 1154.52,702.56 1165.7,759.861 1176.87,816.938 1188.04,872.502 1199.22,926.471 1210.39,978.209 1221.57,1027.42 1232.74,1074.51 1243.92,1119.23 1255.09,1161.06 1266.27,1200.76 1277.44,1237.79 1288.62,1272.93 1299.79,1305.8 1310.97,1336.3 1322.14,1365.57 1333.32,1391.81 1344.49,1416.4 1355.67,1439.14 1366.84,1459.94 1378.01,1479.44 1389.19,1497.49 1400.36,1514.28 1411.54,1529.11 1422.71,1542.86 1433.89,1555.65 1445.06,1567.59 1456.24,1578.21 1467.41,1588.04 1478.59,1597.05 1489.76,1605.38 1500.94,1612.65 1512.11,1619.64 1523.29,1626.03 1534.46,1631.59 1545.64,1637.04 1556.81,1641.83 1567.98,1645.97 1579.16,1649.79 1590.33,1653.4 1601.51,1656.66 1612.68,1659.66 1623.86,1662.42 1635.03,1664.87 1646.21,1667.08 1657.38,1669.17 1668.56,1671 1679.73,1672.58 1690.91,1673.94 1702.08,1675.33 1713.26,1676.57 1724.43,1677.64 1735.61,1678.8 1746.78,1679.67 1757.95,1680.46 1769.13,1681.16 1780.3,1681.91 1791.48,1682.58 1802.65,1683.12 1813.83,1683.56 1825,1684.03 1836.18,1684.46 1847.35,1684.82 1858.53,1685.22 1869.7,1685.54 1880.88,1685.82 1892.05,1686.05 1903.23,1686.28 1914.4,1686.54 1925.57,1686.77 1936.75,1686.93 1947.92,1687.11 1959.1,1687.26 1970.27,1687.39 1981.45,1687.51 1992.62,1687.6 2003.8,1687.67 2014.97,1687.77 2026.15,1687.85 2037.32,1687.93 2048.5,1687.98 2059.67,1688.05 2070.85,1688.09 2082.02,1688.17 2093.2,1688.22 2104.37,1688.25 2115.54,1688.29 2126.72,1688.32 2137.89,1688.34 2149.07,1688.38 2160.24,1688.4 2171.42,1688.45 2182.59,1688.48 2193.77,1688.49 2204.94,1688.5 2216.12,1688.51 2227.29,1688.53 2238.47,1688.54 2249.64,1688.55 2260.82,1688.56 2271.99,1688.56 2283.17,1688.58 2294.34,1688.59 2305.51,1688.6 2316.69,1688.61 2327.86,1688.61 2339.04,1688.62 2350.21,1688.62 2361.39,1688.62 2372.56,1688.62 2383.74,1688.62 2394.91,1688.63 2406.09,1688.63 2417.26,1688.63 2428.44,1688.63 2439.61,1688.63 2450.79,1688.63 2461.96,1688.64 2473.14,1688.64 2484.31,1688.65 2495.48,1688.65 2506.66,1688.65 2517.83,1688.65 2529.01,1688.65 2540.18,1688.65 2551.36,1688.65 2562.53,1688.65 2573.71,1688.65 "/>
<path clip-path="url(#clip310)" d="M2143.38 440.536 L2561.79 440.536 L2561.79 181.336 L2143.38 181.336  Z" fill="#ffffff" fill-rule="evenodd" fill-opacity="1"/>
<polyline clip-path="url(#clip310)" style="stroke:#000000; stroke-linecap:round; stroke-linejoin:round; stroke-width:4; stroke-opacity:1; fill:none" points="2143.38,440.536 2561.79,440.536 2561.79,181.336 2143.38,181.336 2143.38,440.536 "/>
<polyline clip-path="url(#clip310)" style="stroke:#008000; stroke-linecap:round; stroke-linejoin:round; stroke-width:8; stroke-opacity:1; fill:none" points="2169.7,233.176 2327.64,233.176 "/>
<path clip-path="url(#clip310)" d="M2353.96 215.896 L2376.18 215.896 L2376.18 217.887 L2363.64 250.456 L2358.75 250.456 L2370.56 219.831 L2353.96 219.831 L2353.96 215.896 Z" fill="#000000" fill-rule="nonzero" fill-opacity="1" /><path clip-path="url(#clip310)" d="M2416.83 228.466 L2416.83 214.438 L2421.09 214.438 L2421.09 250.456 L2416.83 250.456 L2416.83 246.567 Q2415.49 248.882 2413.43 250.016 Q2411.39 251.128 2408.52 251.128 Q2403.82 251.128 2400.86 247.378 Q2397.92 243.628 2397.92 237.517 Q2397.92 231.405 2400.86 227.655 Q2403.82 223.906 2408.52 223.906 Q2411.39 223.906 2413.43 225.04 Q2415.49 226.151 2416.83 228.466 M2402.32 237.517 Q2402.32 242.216 2404.24 244.901 Q2406.18 247.563 2409.56 247.563 Q2412.94 247.563 2414.89 244.901 Q2416.83 242.216 2416.83 237.517 Q2416.83 232.817 2414.89 230.155 Q2412.94 227.47 2409.56 227.47 Q2406.18 227.47 2404.24 230.155 Q2402.32 232.817 2402.32 237.517 Z" fill="#000000" fill-rule="nonzero" fill-opacity="1" /><path clip-path="url(#clip310)" d="M2441.65 237.424 Q2436.48 237.424 2434.49 238.604 Q2432.5 239.785 2432.5 242.632 Q2432.5 244.901 2433.98 246.243 Q2435.49 247.563 2438.06 247.563 Q2441.6 247.563 2443.73 245.063 Q2445.88 242.54 2445.88 238.373 L2445.88 237.424 L2441.65 237.424 M2450.14 235.665 L2450.14 250.456 L2445.88 250.456 L2445.88 246.521 Q2444.42 248.882 2442.25 250.016 Q2440.07 251.128 2436.92 251.128 Q2432.94 251.128 2430.58 248.905 Q2428.24 246.66 2428.24 242.91 Q2428.24 238.535 2431.16 236.313 Q2434.1 234.091 2439.91 234.091 L2445.88 234.091 L2445.88 233.674 Q2445.88 230.734 2443.94 229.137 Q2442.02 227.517 2438.52 227.517 Q2436.3 227.517 2434.19 228.049 Q2432.09 228.581 2430.14 229.646 L2430.14 225.711 Q2432.48 224.808 2434.68 224.368 Q2436.88 223.906 2438.96 223.906 Q2444.59 223.906 2447.36 226.822 Q2450.14 229.739 2450.14 235.665 Z" fill="#000000" fill-rule="nonzero" fill-opacity="1" /><path clip-path="url(#clip310)" d="M2469.7 252.864 Q2467.9 257.493 2466.18 258.905 Q2464.47 260.317 2461.6 260.317 L2458.2 260.317 L2458.2 256.753 L2460.7 256.753 Q2462.46 256.753 2463.43 255.919 Q2464.4 255.086 2465.58 251.984 L2466.35 250.04 L2455.86 224.531 L2460.37 224.531 L2468.47 244.808 L2476.58 224.531 L2481.09 224.531 L2469.7 252.864 Z" fill="#000000" fill-rule="nonzero" fill-opacity="1" /><path clip-path="url(#clip310)" d="M2503.5 225.294 L2503.5 229.322 Q2501.69 228.396 2499.75 227.933 Q2497.8 227.47 2495.72 227.47 Q2492.55 227.47 2490.95 228.443 Q2489.38 229.415 2489.38 231.359 Q2489.38 232.841 2490.51 233.697 Q2491.65 234.53 2495.07 235.294 L2496.53 235.618 Q2501.07 236.591 2502.97 238.373 Q2504.89 240.132 2504.89 243.304 Q2504.89 246.915 2502.02 249.021 Q2499.17 251.128 2494.17 251.128 Q2492.09 251.128 2489.82 250.711 Q2487.57 250.317 2485.07 249.507 L2485.07 245.109 Q2487.43 246.336 2489.72 246.961 Q2492.02 247.563 2494.26 247.563 Q2497.27 247.563 2498.89 246.544 Q2500.51 245.503 2500.51 243.628 Q2500.51 241.892 2499.33 240.966 Q2498.17 240.04 2494.22 239.183 L2492.73 238.836 Q2488.78 238.003 2487.02 236.29 Q2485.26 234.554 2485.26 231.544 Q2485.26 227.887 2487.85 225.896 Q2490.44 223.906 2495.21 223.906 Q2497.57 223.906 2499.66 224.253 Q2501.74 224.6 2503.5 225.294 Z" fill="#000000" fill-rule="nonzero" fill-opacity="1" /><polyline clip-path="url(#clip310)" style="stroke:#0000ff; stroke-linecap:round; stroke-linejoin:round; stroke-width:8; stroke-opacity:1; fill:none" points="2169.7,285.016 2327.64,285.016 "/>
<path clip-path="url(#clip310)" d="M2354.63 298.361 L2362.27 298.361 L2362.27 271.996 L2353.96 273.662 L2353.96 269.403 L2362.23 267.736 L2366.9 267.736 L2366.9 298.361 L2374.54 298.361 L2374.54 302.296 L2354.63 302.296 L2354.63 298.361 Z" fill="#000000" fill-rule="nonzero" fill-opacity="1" /><path clip-path="url(#clip310)" d="M2396.83 271.81 L2385.03 290.259 L2396.83 290.259 L2396.83 271.81 M2395.61 267.736 L2401.48 267.736 L2401.48 290.259 L2406.42 290.259 L2406.42 294.148 L2401.48 294.148 L2401.48 302.296 L2396.83 302.296 L2396.83 294.148 L2381.23 294.148 L2381.23 289.634 L2395.61 267.736 Z" fill="#000000" fill-rule="nonzero" fill-opacity="1" /><path clip-path="url(#clip310)" d="M2445.67 280.306 L2445.67 266.278 L2449.93 266.278 L2449.93 302.296 L2445.67 302.296 L2445.67 298.407 Q2444.33 300.722 2442.27 301.856 Q2440.23 302.968 2437.36 302.968 Q2432.67 302.968 2429.7 299.218 Q2426.76 295.468 2426.76 289.357 Q2426.76 283.245 2429.7 279.495 Q2432.67 275.746 2437.36 275.746 Q2440.23 275.746 2442.27 276.88 Q2444.33 277.991 2445.67 280.306 M2431.16 289.357 Q2431.16 294.056 2433.08 296.741 Q2435.03 299.403 2438.41 299.403 Q2441.79 299.403 2443.73 296.741 Q2445.67 294.056 2445.67 289.357 Q2445.67 284.657 2443.73 281.995 Q2441.79 279.31 2438.41 279.31 Q2435.03 279.31 2433.08 281.995 Q2431.16 284.657 2431.16 289.357 Z" fill="#000000" fill-rule="nonzero" fill-opacity="1" /><path clip-path="url(#clip310)" d="M2470.49 289.264 Q2465.33 289.264 2463.34 290.444 Q2461.35 291.625 2461.35 294.472 Q2461.35 296.741 2462.83 298.083 Q2464.33 299.403 2466.9 299.403 Q2470.44 299.403 2472.57 296.903 Q2474.72 294.38 2474.72 290.213 L2474.72 289.264 L2470.49 289.264 M2478.98 287.505 L2478.98 302.296 L2474.72 302.296 L2474.72 298.361 Q2473.27 300.722 2471.09 301.856 Q2468.91 302.968 2465.77 302.968 Q2461.79 302.968 2459.42 300.745 Q2457.09 298.5 2457.09 294.75 Q2457.09 290.375 2460 288.153 Q2462.94 285.931 2468.75 285.931 L2474.72 285.931 L2474.72 285.514 Q2474.72 282.574 2472.78 280.977 Q2470.86 279.357 2467.36 279.357 Q2465.14 279.357 2463.04 279.889 Q2460.93 280.421 2458.98 281.486 L2458.98 277.551 Q2461.32 276.648 2463.52 276.208 Q2465.72 275.746 2467.8 275.746 Q2473.43 275.746 2476.21 278.662 Q2478.98 281.579 2478.98 287.505 Z" fill="#000000" fill-rule="nonzero" fill-opacity="1" /><path clip-path="url(#clip310)" d="M2498.54 304.704 Q2496.74 309.333 2495.03 310.745 Q2493.31 312.157 2490.44 312.157 L2487.04 312.157 L2487.04 308.593 L2489.54 308.593 Q2491.3 308.593 2492.27 307.759 Q2493.24 306.926 2494.42 303.824 L2495.19 301.88 L2484.7 276.371 L2489.22 276.371 L2497.32 296.648 L2505.42 276.371 L2509.93 276.371 L2498.54 304.704 Z" fill="#000000" fill-rule="nonzero" fill-opacity="1" /><path clip-path="url(#clip310)" d="M2532.34 277.134 L2532.34 281.162 Q2530.53 280.236 2528.59 279.773 Q2526.65 279.31 2524.56 279.31 Q2521.39 279.31 2519.79 280.283 Q2518.22 281.255 2518.22 283.199 Q2518.22 284.681 2519.35 285.537 Q2520.49 286.37 2523.91 287.134 L2525.37 287.458 Q2529.91 288.431 2531.81 290.213 Q2533.73 291.972 2533.73 295.144 Q2533.73 298.755 2530.86 300.861 Q2528.01 302.968 2523.01 302.968 Q2520.93 302.968 2518.66 302.551 Q2516.41 302.157 2513.91 301.347 L2513.91 296.949 Q2516.28 298.176 2518.57 298.801 Q2520.86 299.403 2523.1 299.403 Q2526.11 299.403 2527.73 298.384 Q2529.35 297.343 2529.35 295.468 Q2529.35 293.732 2528.17 292.806 Q2527.02 291.88 2523.06 291.023 L2521.58 290.676 Q2517.62 289.843 2515.86 288.13 Q2514.1 286.394 2514.1 283.384 Q2514.1 279.727 2516.69 277.736 Q2519.28 275.746 2524.05 275.746 Q2526.41 275.746 2528.5 276.093 Q2530.58 276.44 2532.34 277.134 Z" fill="#000000" fill-rule="nonzero" fill-opacity="1" /><polyline clip-path="url(#clip310)" style="stroke:#ffa500; stroke-linecap:round; stroke-linejoin:round; stroke-width:8; stroke-opacity:1; fill:none" points="2169.7,336.856 2327.64,336.856 "/>
<path clip-path="url(#clip310)" d="M2359.59 350.201 L2375.91 350.201 L2375.91 354.136 L2353.96 354.136 L2353.96 350.201 Q2356.62 347.447 2361.21 342.817 Q2365.81 338.164 2366.99 336.822 Q2369.24 334.298 2370.12 332.562 Q2371.02 330.803 2371.02 329.113 Q2371.02 326.359 2369.08 324.623 Q2367.16 322.886 2364.05 322.886 Q2361.86 322.886 2359.4 323.65 Q2356.97 324.414 2354.19 325.965 L2354.19 321.243 Q2357.02 320.109 2359.47 319.53 Q2361.92 318.951 2363.96 318.951 Q2369.33 318.951 2372.53 321.636 Q2375.72 324.322 2375.72 328.812 Q2375.72 330.942 2374.91 332.863 Q2374.12 334.761 2372.02 337.354 Q2371.44 338.025 2368.34 341.243 Q2365.23 344.437 2359.59 350.201 Z" fill="#000000" fill-rule="nonzero" fill-opacity="1" /><path clip-path="url(#clip310)" d="M2395.72 337.724 Q2392.39 337.724 2390.47 339.507 Q2388.57 341.289 2388.57 344.414 Q2388.57 347.539 2390.47 349.321 Q2392.39 351.104 2395.72 351.104 Q2399.05 351.104 2400.98 349.321 Q2402.9 347.516 2402.9 344.414 Q2402.9 341.289 2400.98 339.507 Q2399.08 337.724 2395.72 337.724 M2391.04 335.734 Q2388.04 334.993 2386.35 332.933 Q2384.68 330.873 2384.68 327.91 Q2384.68 323.766 2387.62 321.359 Q2390.58 318.951 2395.72 318.951 Q2400.88 318.951 2403.82 321.359 Q2406.76 323.766 2406.76 327.91 Q2406.76 330.873 2405.07 332.933 Q2403.41 334.993 2400.42 335.734 Q2403.8 336.521 2405.67 338.812 Q2407.57 341.104 2407.57 344.414 Q2407.57 349.437 2404.49 352.122 Q2401.44 354.808 2395.72 354.808 Q2390 354.808 2386.92 352.122 Q2383.87 349.437 2383.87 344.414 Q2383.87 341.104 2385.77 338.812 Q2387.67 336.521 2391.04 335.734 M2389.33 328.349 Q2389.33 331.035 2391 332.539 Q2392.69 334.044 2395.72 334.044 Q2398.73 334.044 2400.42 332.539 Q2402.13 331.035 2402.13 328.349 Q2402.13 325.664 2400.42 324.16 Q2398.73 322.655 2395.72 322.655 Q2392.69 322.655 2391 324.16 Q2389.33 325.664 2389.33 328.349 Z" fill="#000000" fill-rule="nonzero" fill-opacity="1" /><path clip-path="url(#clip310)" d="M2447.41 332.146 L2447.41 318.118 L2451.67 318.118 L2451.67 354.136 L2447.41 354.136 L2447.41 350.247 Q2446.07 352.562 2444.01 353.696 Q2441.97 354.808 2439.1 354.808 Q2434.4 354.808 2431.44 351.058 Q2428.5 347.308 2428.5 341.197 Q2428.5 335.085 2431.44 331.335 Q2434.4 327.586 2439.1 327.586 Q2441.97 327.586 2444.01 328.72 Q2446.07 329.831 2447.41 332.146 M2432.9 341.197 Q2432.9 345.896 2434.82 348.581 Q2436.76 351.243 2440.14 351.243 Q2443.52 351.243 2445.47 348.581 Q2447.41 345.896 2447.41 341.197 Q2447.41 336.497 2445.47 333.835 Q2443.52 331.15 2440.14 331.15 Q2436.76 331.15 2434.82 333.835 Q2432.9 336.497 2432.9 341.197 Z" fill="#000000" fill-rule="nonzero" fill-opacity="1" /><path clip-path="url(#clip310)" d="M2472.22 341.104 Q2467.06 341.104 2465.07 342.284 Q2463.08 343.465 2463.08 346.312 Q2463.08 348.581 2464.56 349.923 Q2466.07 351.243 2468.64 351.243 Q2472.18 351.243 2474.31 348.743 Q2476.46 346.22 2476.46 342.053 L2476.46 341.104 L2472.22 341.104 M2480.72 339.345 L2480.72 354.136 L2476.46 354.136 L2476.46 350.201 Q2475 352.562 2472.83 353.696 Q2470.65 354.808 2467.5 354.808 Q2463.52 354.808 2461.16 352.585 Q2458.82 350.34 2458.82 346.59 Q2458.82 342.215 2461.74 339.993 Q2464.68 337.771 2470.49 337.771 L2476.46 337.771 L2476.46 337.354 Q2476.46 334.414 2474.52 332.817 Q2472.6 331.197 2469.1 331.197 Q2466.88 331.197 2464.77 331.729 Q2462.66 332.261 2460.72 333.326 L2460.72 329.391 Q2463.06 328.488 2465.26 328.048 Q2467.46 327.586 2469.54 327.586 Q2475.16 327.586 2477.94 330.502 Q2480.72 333.419 2480.72 339.345 Z" fill="#000000" fill-rule="nonzero" fill-opacity="1" /><path clip-path="url(#clip310)" d="M2500.28 356.544 Q2498.47 361.173 2496.76 362.585 Q2495.05 363.997 2492.18 363.997 L2488.78 363.997 L2488.78 360.433 L2491.28 360.433 Q2493.04 360.433 2494.01 359.599 Q2494.98 358.766 2496.16 355.664 L2496.92 353.72 L2486.44 328.211 L2490.95 328.211 L2499.05 348.488 L2507.16 328.211 L2511.67 328.211 L2500.28 356.544 Z" fill="#000000" fill-rule="nonzero" fill-opacity="1" /><path clip-path="url(#clip310)" d="M2534.08 328.974 L2534.08 333.002 Q2532.27 332.076 2530.33 331.613 Q2528.38 331.15 2526.3 331.15 Q2523.13 331.15 2521.53 332.123 Q2519.96 333.095 2519.96 335.039 Q2519.96 336.521 2521.09 337.377 Q2522.22 338.21 2525.65 338.974 L2527.11 339.298 Q2531.65 340.271 2533.54 342.053 Q2535.47 343.812 2535.47 346.984 Q2535.47 350.595 2532.6 352.701 Q2529.75 354.808 2524.75 354.808 Q2522.66 354.808 2520.4 354.391 Q2518.15 353.997 2515.65 353.187 L2515.65 348.789 Q2518.01 350.016 2520.3 350.641 Q2522.6 351.243 2524.84 351.243 Q2527.85 351.243 2529.47 350.224 Q2531.09 349.183 2531.09 347.308 Q2531.09 345.572 2529.91 344.646 Q2528.75 343.72 2524.79 342.863 L2523.31 342.516 Q2519.35 341.683 2517.6 339.97 Q2515.84 338.234 2515.84 335.224 Q2515.84 331.567 2518.43 329.576 Q2521.02 327.586 2525.79 327.586 Q2528.15 327.586 2530.23 327.933 Q2532.32 328.28 2534.08 328.974 Z" fill="#000000" fill-rule="nonzero" fill-opacity="1" /><polyline clip-path="url(#clip310)" style="stroke:#ff0000; stroke-linecap:round; stroke-linejoin:round; stroke-width:8; stroke-opacity:1; fill:none" points="2169.7,388.696 2327.64,388.696 "/>
<path clip-path="url(#clip310)" d="M2355.42 371.416 L2373.78 371.416 L2373.78 375.351 L2359.7 375.351 L2359.7 383.824 Q2360.72 383.476 2361.74 383.314 Q2362.76 383.129 2363.78 383.129 Q2369.56 383.129 2372.94 386.3 Q2376.32 389.472 2376.32 394.888 Q2376.32 400.467 2372.85 403.569 Q2369.38 406.648 2363.06 406.648 Q2360.88 406.648 2358.61 406.277 Q2356.37 405.907 2353.96 405.166 L2353.96 400.467 Q2356.05 401.601 2358.27 402.157 Q2360.49 402.712 2362.97 402.712 Q2366.97 402.712 2369.31 400.606 Q2371.65 398.499 2371.65 394.888 Q2371.65 391.277 2369.31 389.171 Q2366.97 387.064 2362.97 387.064 Q2361.09 387.064 2359.22 387.481 Q2357.36 387.898 2355.42 388.777 L2355.42 371.416 Z" fill="#000000" fill-rule="nonzero" fill-opacity="1" /><path clip-path="url(#clip310)" d="M2396.11 386.833 Q2392.97 386.833 2391.11 388.986 Q2389.29 391.138 2389.29 394.888 Q2389.29 398.615 2391.11 400.791 Q2392.97 402.944 2396.11 402.944 Q2399.26 402.944 2401.09 400.791 Q2402.94 398.615 2402.94 394.888 Q2402.94 391.138 2401.09 388.986 Q2399.26 386.833 2396.11 386.833 M2405.4 372.18 L2405.4 376.439 Q2403.64 375.606 2401.83 375.166 Q2400.05 374.726 2398.29 374.726 Q2393.66 374.726 2391.21 377.851 Q2388.78 380.976 2388.43 387.296 Q2389.79 385.282 2391.86 384.217 Q2393.92 383.129 2396.39 383.129 Q2401.6 383.129 2404.61 386.3 Q2407.64 389.449 2407.64 394.888 Q2407.64 400.212 2404.49 403.43 Q2401.35 406.648 2396.11 406.648 Q2390.12 406.648 2386.95 402.064 Q2383.78 397.458 2383.78 388.731 Q2383.78 380.537 2387.67 375.676 Q2391.55 370.791 2398.11 370.791 Q2399.86 370.791 2401.65 371.139 Q2403.45 371.486 2405.4 372.18 Z" fill="#000000" fill-rule="nonzero" fill-opacity="1" /><path clip-path="url(#clip310)" d="M2447.23 383.986 L2447.23 369.958 L2451.48 369.958 L2451.48 405.976 L2447.23 405.976 L2447.23 402.087 Q2445.88 404.402 2443.82 405.536 Q2441.79 406.648 2438.91 406.648 Q2434.22 406.648 2431.25 402.898 Q2428.31 399.148 2428.31 393.037 Q2428.31 386.925 2431.25 383.175 Q2434.22 379.426 2438.91 379.426 Q2441.79 379.426 2443.82 380.56 Q2445.88 381.671 2447.23 383.986 M2432.71 393.037 Q2432.71 397.736 2434.63 400.421 Q2436.58 403.083 2439.96 403.083 Q2443.34 403.083 2445.28 400.421 Q2447.23 397.736 2447.23 393.037 Q2447.23 388.337 2445.28 385.675 Q2443.34 382.99 2439.96 382.99 Q2436.58 382.99 2434.63 385.675 Q2432.71 388.337 2432.71 393.037 Z" fill="#000000" fill-rule="nonzero" fill-opacity="1" /><path clip-path="url(#clip310)" d="M2472.04 392.944 Q2466.88 392.944 2464.89 394.124 Q2462.9 395.305 2462.9 398.152 Q2462.9 400.421 2464.38 401.763 Q2465.88 403.083 2468.45 403.083 Q2471.99 403.083 2474.12 400.583 Q2476.28 398.06 2476.28 393.893 L2476.28 392.944 L2472.04 392.944 M2480.54 391.185 L2480.54 405.976 L2476.28 405.976 L2476.28 402.041 Q2474.82 404.402 2472.64 405.536 Q2470.47 406.648 2467.32 406.648 Q2463.34 406.648 2460.98 404.425 Q2458.64 402.18 2458.64 398.43 Q2458.64 394.055 2461.55 391.833 Q2464.49 389.611 2470.3 389.611 L2476.28 389.611 L2476.28 389.194 Q2476.28 386.254 2474.33 384.657 Q2472.41 383.037 2468.91 383.037 Q2466.69 383.037 2464.59 383.569 Q2462.48 384.101 2460.54 385.166 L2460.54 381.231 Q2462.87 380.328 2465.07 379.888 Q2467.27 379.426 2469.35 379.426 Q2474.98 379.426 2477.76 382.342 Q2480.54 385.259 2480.54 391.185 Z" fill="#000000" fill-rule="nonzero" fill-opacity="1" /><path clip-path="url(#clip310)" d="M2500.1 408.384 Q2498.29 413.013 2496.58 414.425 Q2494.86 415.837 2491.99 415.837 L2488.59 415.837 L2488.59 412.273 L2491.09 412.273 Q2492.85 412.273 2493.82 411.439 Q2494.79 410.606 2495.97 407.504 L2496.74 405.56 L2486.25 380.051 L2490.77 380.051 L2498.87 400.328 L2506.97 380.051 L2511.48 380.051 L2500.1 408.384 Z" fill="#000000" fill-rule="nonzero" fill-opacity="1" /><path clip-path="url(#clip310)" d="M2533.89 380.814 L2533.89 384.842 Q2532.09 383.916 2530.14 383.453 Q2528.2 382.99 2526.11 382.99 Q2522.94 382.99 2521.35 383.963 Q2519.77 384.935 2519.77 386.879 Q2519.77 388.361 2520.91 389.217 Q2522.04 390.05 2525.47 390.814 L2526.92 391.138 Q2531.46 392.111 2533.36 393.893 Q2535.28 395.652 2535.28 398.824 Q2535.28 402.435 2532.41 404.541 Q2529.56 406.648 2524.56 406.648 Q2522.48 406.648 2520.21 406.231 Q2517.97 405.837 2515.47 405.027 L2515.47 400.629 Q2517.83 401.856 2520.12 402.481 Q2522.41 403.083 2524.66 403.083 Q2527.66 403.083 2529.28 402.064 Q2530.91 401.023 2530.91 399.148 Q2530.91 397.412 2529.72 396.486 Q2528.57 395.56 2524.61 394.703 L2523.13 394.356 Q2519.17 393.523 2517.41 391.81 Q2515.65 390.074 2515.65 387.064 Q2515.65 383.407 2518.24 381.416 Q2520.84 379.426 2525.6 379.426 Q2527.97 379.426 2530.05 379.773 Q2532.13 380.12 2533.89 380.814 Z" fill="#000000" fill-rule="nonzero" fill-opacity="1" /></svg>
