<?xml version="1.0" encoding="utf-8"?>
<svg xmlns="http://www.w3.org/2000/svg" xmlns:xlink="http://www.w3.org/1999/xlink" width="672" height="480" viewBox="0 0 2688 1920">
<defs>
  <clipPath id="clip340">
    <rect x="0" y="0" width="2688" height="1920"/>
  </clipPath>
</defs>
<path clip-path="url(#clip340)" d="M0 1920 L2688 1920 L2688 -4.26326e-14 L0 -4.26326e-14  Z" fill="#ffffff" fill-rule="evenodd" fill-opacity="1"/>
<defs>
  <clipPath id="clip341">
    <rect x="271" y="127" width="2370" height="1607"/>
  </clipPath>
</defs>
<path clip-path="url(#clip340)" d="M271.719 1734.12 L2640.76 1734.12 L2640.76 127.792 L271.719 127.792  Z" fill="#ffffff" fill-rule="evenodd" fill-opacity="1"/>
<polyline clip-path="url(#clip341)" style="stroke:#000000; stroke-linecap:round; stroke-linejoin:round; stroke-width:2; stroke-opacity:0.1; fill:none" points="338.767,1734.12 338.767,127.792 "/>
<polyline clip-path="url(#clip341)" style="stroke:#000000; stroke-linecap:round; stroke-linejoin:round; stroke-width:2; stroke-opacity:0.1; fill:none" points="897.502,1734.12 897.502,127.792 "/>
<polyline clip-path="url(#clip341)" style="stroke:#000000; stroke-linecap:round; stroke-linejoin:round; stroke-width:2; stroke-opacity:0.1; fill:none" points="1456.24,1734.12 1456.24,127.792 "/>
<polyline clip-path="url(#clip341)" style="stroke:#000000; stroke-linecap:round; stroke-linejoin:round; stroke-width:2; stroke-opacity:0.1; fill:none" points="2014.97,1734.12 2014.97,127.792 "/>
<polyline clip-path="url(#clip341)" style="stroke:#000000; stroke-linecap:round; stroke-linejoin:round; stroke-width:2; stroke-opacity:0.1; fill:none" points="2573.71,1734.12 2573.71,127.792 "/>
<polyline clip-path="url(#clip341)" style="stroke:#000000; stroke-linecap:round; stroke-linejoin:round; stroke-width:2; stroke-opacity:0.1; fill:none" points="271.719,1688.65 2640.76,1688.65 "/>
<polyline clip-path="url(#clip341)" style="stroke:#000000; stroke-linecap:round; stroke-linejoin:round; stroke-width:2; stroke-opacity:0.1; fill:none" points="271.719,1426.67 2640.76,1426.67 "/>
<polyline clip-path="url(#clip341)" style="stroke:#000000; stroke-linecap:round; stroke-linejoin:round; stroke-width:2; stroke-opacity:0.1; fill:none" points="271.719,1164.69 2640.76,1164.69 "/>
<polyline clip-path="url(#clip341)" style="stroke:#000000; stroke-linecap:round; stroke-linejoin:round; stroke-width:2; stroke-opacity:0.1; fill:none" points="271.719,902.708 2640.76,902.708 "/>
<polyline clip-path="url(#clip341)" style="stroke:#000000; stroke-linecap:round; stroke-linejoin:round; stroke-width:2; stroke-opacity:0.1; fill:none" points="271.719,640.725 2640.76,640.725 "/>
<polyline clip-path="url(#clip341)" style="stroke:#000000; stroke-linecap:round; stroke-linejoin:round; stroke-width:2; stroke-opacity:0.1; fill:none" points="271.719,378.743 2640.76,378.743 "/>
<polyline clip-path="url(#clip340)" style="stroke:#000000; stroke-linecap:round; stroke-linejoin:round; stroke-width:4; stroke-opacity:1; fill:none" points="271.719,1734.12 2640.76,1734.12 "/>
<polyline clip-path="url(#clip340)" style="stroke:#000000; stroke-linecap:round; stroke-linejoin:round; stroke-width:4; stroke-opacity:1; fill:none" points="338.767,1734.12 338.767,1715.22 "/>
<polyline clip-path="url(#clip340)" style="stroke:#000000; stroke-linecap:round; stroke-linejoin:round; stroke-width:4; stroke-opacity:1; fill:none" points="897.502,1734.12 897.502,1715.22 "/>
<polyline clip-path="url(#clip340)" style="stroke:#000000; stroke-linecap:round; stroke-linejoin:round; stroke-width:4; stroke-opacity:1; fill:none" points="1456.24,1734.12 1456.24,1715.22 "/>
<polyline clip-path="url(#clip340)" style="stroke:#000000; stroke-linecap:round; stroke-linejoin:round; stroke-width:4; stroke-opacity:1; fill:none" points="2014.97,1734.12 2014.97,1715.22 "/>
<polyline clip-path="url(#clip340)" style="stroke:#000000; stroke-linecap:round; stroke-linejoin:round; stroke-width:4; stroke-opacity:1; fill:none" points="2573.71,1734.12 2573.71,1715.22 "/>
<path clip-path="url(#clip340)" d="M338.767 1767.34 Q335.156 1767.34 333.327 1770.9 Q331.522 1774.45 331.522 1781.58 Q331.522 1788.68 333.327 1792.25 Q335.156 1795.79 338.767 1795.79 Q342.401 1795.79 344.207 1792.25 Q346.036 1788.68 346.036 1781.58 Q346.036 1774.45 344.207 1770.9 Q342.401 1767.34 338.767 1767.34 M338.767 1763.64 Q344.577 1763.64 347.633 1768.24 Q350.712 1772.83 350.712 1781.58 Q350.712 1790.3 347.633 1794.91 Q344.577 1799.49 338.767 1799.49 Q332.957 1799.49 329.878 1794.91 Q326.823 1790.3 326.823 1781.58 Q326.823 1772.83 329.878 1768.24 Q332.957 1763.64 338.767 1763.64 Z" fill="#000000" fill-rule="nonzero" fill-opacity="1" /><path clip-path="url(#clip340)" d="M872.202 1764.26 L890.558 1764.26 L890.558 1768.2 L876.484 1768.2 L876.484 1776.67 Q877.502 1776.32 878.521 1776.16 Q879.539 1775.97 880.558 1775.97 Q886.345 1775.97 889.725 1779.15 Q893.104 1782.32 893.104 1787.73 Q893.104 1793.31 889.632 1796.41 Q886.16 1799.49 879.84 1799.49 Q877.664 1799.49 875.396 1799.12 Q873.151 1798.75 870.743 1798.01 L870.743 1793.31 Q872.827 1794.45 875.049 1795 Q877.271 1795.56 879.748 1795.56 Q883.752 1795.56 886.09 1793.45 Q888.428 1791.34 888.428 1787.73 Q888.428 1784.12 886.09 1782.02 Q883.752 1779.91 879.748 1779.91 Q877.873 1779.91 875.998 1780.33 Q874.146 1780.74 872.202 1781.62 L872.202 1764.26 Z" fill="#000000" fill-rule="nonzero" fill-opacity="1" /><path clip-path="url(#clip340)" d="M912.317 1767.34 Q908.706 1767.34 906.877 1770.9 Q905.072 1774.45 905.072 1781.58 Q905.072 1788.68 906.877 1792.25 Q908.706 1795.79 912.317 1795.79 Q915.951 1795.79 917.757 1792.25 Q919.586 1788.68 919.586 1781.58 Q919.586 1774.45 917.757 1770.9 Q915.951 1767.34 912.317 1767.34 M912.317 1763.64 Q918.127 1763.64 921.183 1768.24 Q924.261 1772.83 924.261 1781.58 Q924.261 1790.3 921.183 1794.91 Q918.127 1799.49 912.317 1799.49 Q906.507 1799.49 903.428 1794.91 Q900.373 1790.3 900.373 1781.58 Q900.373 1772.83 903.428 1768.24 Q906.507 1763.64 912.317 1763.64 Z" fill="#000000" fill-rule="nonzero" fill-opacity="1" /><path clip-path="url(#clip340)" d="M1415.84 1794.89 L1423.48 1794.89 L1423.48 1768.52 L1415.17 1770.19 L1415.17 1765.93 L1423.44 1764.26 L1428.11 1764.26 L1428.11 1794.89 L1435.75 1794.89 L1435.75 1798.82 L1415.84 1798.82 L1415.84 1794.89 Z" fill="#000000" fill-rule="nonzero" fill-opacity="1" /><path clip-path="url(#clip340)" d="M1455.2 1767.34 Q1451.58 1767.34 1449.76 1770.9 Q1447.95 1774.45 1447.95 1781.58 Q1447.95 1788.68 1449.76 1792.25 Q1451.58 1795.79 1455.2 1795.79 Q1458.83 1795.79 1460.64 1792.25 Q1462.46 1788.68 1462.46 1781.58 Q1462.46 1774.45 1460.64 1770.9 Q1458.83 1767.34 1455.2 1767.34 M1455.2 1763.64 Q1461.01 1763.64 1464.06 1768.24 Q1467.14 1772.83 1467.14 1781.58 Q1467.14 1790.3 1464.06 1794.91 Q1461.01 1799.49 1455.2 1799.49 Q1449.39 1799.49 1446.31 1794.91 Q1443.25 1790.3 1443.25 1781.58 Q1443.25 1772.83 1446.31 1768.24 Q1449.39 1763.64 1455.2 1763.64 Z" fill="#000000" fill-rule="nonzero" fill-opacity="1" /><path clip-path="url(#clip340)" d="M1485.36 1767.34 Q1481.75 1767.34 1479.92 1770.9 Q1478.11 1774.45 1478.11 1781.58 Q1478.11 1788.68 1479.92 1792.25 Q1481.75 1795.79 1485.36 1795.79 Q1488.99 1795.79 1490.8 1792.25 Q1492.63 1788.68 1492.63 1781.58 Q1492.63 1774.45 1490.8 1770.9 Q1488.99 1767.34 1485.36 1767.34 M1485.36 1763.64 Q1491.17 1763.64 1494.22 1768.24 Q1497.3 1772.83 1497.3 1781.58 Q1497.3 1790.3 1494.22 1794.91 Q1491.17 1799.49 1485.36 1799.49 Q1479.55 1799.49 1476.47 1794.91 Q1473.41 1790.3 1473.41 1781.58 Q1473.41 1772.83 1476.47 1768.24 Q1479.55 1763.64 1485.36 1763.64 Z" fill="#000000" fill-rule="nonzero" fill-opacity="1" /><path clip-path="url(#clip340)" d="M1974.58 1794.89 L1982.22 1794.89 L1982.22 1768.52 L1973.91 1770.19 L1973.91 1765.93 L1982.17 1764.26 L1986.85 1764.26 L1986.85 1794.89 L1994.49 1794.89 L1994.49 1798.82 L1974.58 1798.82 L1974.58 1794.89 Z" fill="#000000" fill-rule="nonzero" fill-opacity="1" /><path clip-path="url(#clip340)" d="M2003.98 1764.26 L2022.33 1764.26 L2022.33 1768.2 L2008.26 1768.2 L2008.26 1776.67 Q2009.28 1776.32 2010.3 1776.16 Q2011.32 1775.97 2012.33 1775.97 Q2018.12 1775.97 2021.5 1779.15 Q2024.88 1782.32 2024.88 1787.73 Q2024.88 1793.31 2021.41 1796.41 Q2017.94 1799.49 2011.62 1799.49 Q2009.44 1799.49 2007.17 1799.12 Q2004.93 1798.75 2002.52 1798.01 L2002.52 1793.31 Q2004.6 1794.45 2006.82 1795 Q2009.05 1795.56 2011.52 1795.56 Q2015.53 1795.56 2017.87 1793.45 Q2020.2 1791.34 2020.2 1787.73 Q2020.2 1784.12 2017.87 1782.02 Q2015.53 1779.91 2011.52 1779.91 Q2009.65 1779.91 2007.77 1780.33 Q2005.92 1780.74 2003.98 1781.62 L2003.98 1764.26 Z" fill="#000000" fill-rule="nonzero" fill-opacity="1" /><path clip-path="url(#clip340)" d="M2044.09 1767.34 Q2040.48 1767.34 2038.65 1770.9 Q2036.85 1774.45 2036.85 1781.58 Q2036.85 1788.68 2038.65 1792.25 Q2040.48 1795.79 2044.09 1795.79 Q2047.73 1795.79 2049.53 1792.25 Q2051.36 1788.68 2051.36 1781.58 Q2051.36 1774.45 2049.53 1770.9 Q2047.73 1767.34 2044.09 1767.34 M2044.09 1763.64 Q2049.9 1763.64 2052.96 1768.24 Q2056.04 1772.83 2056.04 1781.58 Q2056.04 1790.3 2052.96 1794.91 Q2049.9 1799.49 2044.09 1799.49 Q2038.28 1799.49 2035.2 1794.91 Q2032.15 1790.3 2032.15 1781.58 Q2032.15 1772.83 2035.2 1768.24 Q2038.28 1763.64 2044.09 1763.64 Z" fill="#000000" fill-rule="nonzero" fill-opacity="1" /><path clip-path="url(#clip340)" d="M2537.4 1794.89 L2553.72 1794.89 L2553.72 1798.82 L2531.78 1798.82 L2531.78 1794.89 Q2534.44 1792.13 2539.02 1787.5 Q2543.63 1782.85 2544.81 1781.51 Q2547.05 1778.98 2547.93 1777.25 Q2548.84 1775.49 2548.84 1773.8 Q2548.84 1771.04 2546.89 1769.31 Q2544.97 1767.57 2541.87 1767.57 Q2539.67 1767.57 2537.21 1768.34 Q2534.78 1769.1 2532.01 1770.65 L2532.01 1765.93 Q2534.83 1764.79 2537.28 1764.21 Q2539.74 1763.64 2541.77 1763.64 Q2547.15 1763.64 2550.34 1766.32 Q2553.53 1769.01 2553.53 1773.5 Q2553.53 1775.63 2552.72 1777.55 Q2551.94 1779.45 2549.83 1782.04 Q2549.25 1782.71 2546.15 1785.93 Q2543.05 1789.12 2537.4 1794.89 Z" fill="#000000" fill-rule="nonzero" fill-opacity="1" /><path clip-path="url(#clip340)" d="M2573.53 1767.34 Q2569.92 1767.34 2568.09 1770.9 Q2566.29 1774.45 2566.29 1781.58 Q2566.29 1788.68 2568.09 1792.25 Q2569.92 1795.79 2573.53 1795.79 Q2577.17 1795.79 2578.97 1792.25 Q2580.8 1788.68 2580.8 1781.58 Q2580.8 1774.45 2578.97 1770.9 Q2577.17 1767.34 2573.53 1767.34 M2573.53 1763.64 Q2579.34 1763.64 2582.4 1768.24 Q2585.48 1772.83 2585.48 1781.58 Q2585.48 1790.3 2582.4 1794.91 Q2579.34 1799.49 2573.53 1799.49 Q2567.72 1799.49 2564.65 1794.91 Q2561.59 1790.3 2561.59 1781.58 Q2561.59 1772.83 2564.65 1768.24 Q2567.72 1763.64 2573.53 1763.64 Z" fill="#000000" fill-rule="nonzero" fill-opacity="1" /><path clip-path="url(#clip340)" d="M2603.7 1767.34 Q2600.08 1767.34 2598.26 1770.9 Q2596.45 1774.45 2596.45 1781.58 Q2596.45 1788.68 2598.26 1792.25 Q2600.08 1795.79 2603.7 1795.79 Q2607.33 1795.79 2609.14 1792.25 Q2610.96 1788.68 2610.96 1781.58 Q2610.96 1774.45 2609.14 1770.9 Q2607.33 1767.34 2603.7 1767.34 M2603.7 1763.64 Q2609.51 1763.64 2612.56 1768.24 Q2615.64 1772.83 2615.64 1781.58 Q2615.64 1790.3 2612.56 1794.91 Q2609.51 1799.49 2603.7 1799.49 Q2597.89 1799.49 2594.81 1794.91 Q2591.75 1790.3 2591.75 1781.58 Q2591.75 1772.83 2594.81 1768.24 Q2597.89 1763.64 2603.7 1763.64 Z" fill="#000000" fill-rule="nonzero" fill-opacity="1" /><path clip-path="url(#clip340)" d="M1402.48 1841.06 L1402.48 1878.02 L1410.25 1878.02 Q1420.08 1878.02 1424.63 1873.56 Q1429.22 1869.11 1429.22 1859.49 Q1429.22 1849.94 1424.63 1845.52 Q1420.08 1841.06 1410.25 1841.06 L1402.48 1841.06 M1396.05 1835.78 L1409.26 1835.78 Q1423.07 1835.78 1429.53 1841.54 Q1435.99 1847.27 1435.99 1859.49 Q1435.99 1871.78 1429.5 1877.54 Q1423.01 1883.3 1409.26 1883.3 L1396.05 1883.3 L1396.05 1835.78 Z" fill="#000000" fill-rule="nonzero" fill-opacity="1" /><path clip-path="url(#clip340)" d="M1462.19 1865.38 Q1455.09 1865.38 1452.35 1867 Q1449.62 1868.63 1449.62 1872.54 Q1449.62 1875.66 1451.65 1877.51 Q1453.72 1879.32 1457.26 1879.32 Q1462.13 1879.32 1465.05 1875.88 Q1468.01 1872.42 1468.01 1866.69 L1468.01 1865.38 L1462.19 1865.38 M1473.87 1862.96 L1473.87 1883.3 L1468.01 1883.3 L1468.01 1877.89 Q1466.01 1881.14 1463.02 1882.7 Q1460.03 1884.22 1455.7 1884.22 Q1450.22 1884.22 1446.98 1881.17 Q1443.76 1878.08 1443.76 1872.92 Q1443.76 1866.91 1447.77 1863.85 Q1451.81 1860.8 1459.8 1860.8 L1468.01 1860.8 L1468.01 1860.23 Q1468.01 1856.18 1465.34 1853.99 Q1462.7 1851.76 1457.89 1851.76 Q1454.84 1851.76 1451.94 1852.49 Q1449.04 1853.22 1446.37 1854.69 L1446.37 1849.28 Q1449.59 1848.03 1452.61 1847.43 Q1455.63 1846.79 1458.5 1846.79 Q1466.23 1846.79 1470.05 1850.8 Q1473.87 1854.81 1473.87 1862.96 Z" fill="#000000" fill-rule="nonzero" fill-opacity="1" /><path clip-path="url(#clip340)" d="M1500.77 1886.61 Q1498.28 1892.98 1495.93 1894.92 Q1493.57 1896.86 1489.63 1896.86 L1484.95 1896.86 L1484.95 1891.96 L1488.38 1891.96 Q1490.8 1891.96 1492.14 1890.81 Q1493.48 1889.67 1495.1 1885.4 L1496.15 1882.73 L1481.73 1847.65 L1487.94 1847.65 L1499.08 1875.53 L1510.22 1847.65 L1516.43 1847.65 L1500.77 1886.61 Z" fill="#000000" fill-rule="nonzero" fill-opacity="1" /><polyline clip-path="url(#clip340)" style="stroke:#000000; stroke-linecap:round; stroke-linejoin:round; stroke-width:4; stroke-opacity:1; fill:none" points="271.719,1734.12 271.719,127.792 "/>
<polyline clip-path="url(#clip340)" style="stroke:#000000; stroke-linecap:round; stroke-linejoin:round; stroke-width:4; stroke-opacity:1; fill:none" points="271.719,1688.65 290.617,1688.65 "/>
<polyline clip-path="url(#clip340)" style="stroke:#000000; stroke-linecap:round; stroke-linejoin:round; stroke-width:4; stroke-opacity:1; fill:none" points="271.719,1426.67 290.617,1426.67 "/>
<polyline clip-path="url(#clip340)" style="stroke:#000000; stroke-linecap:round; stroke-linejoin:round; stroke-width:4; stroke-opacity:1; fill:none" points="271.719,1164.69 290.617,1164.69 "/>
<polyline clip-path="url(#clip340)" style="stroke:#000000; stroke-linecap:round; stroke-linejoin:round; stroke-width:4; stroke-opacity:1; fill:none" points="271.719,902.708 290.617,902.708 "/>
<polyline clip-path="url(#clip340)" style="stroke:#000000; stroke-linecap:round; stroke-linejoin:round; stroke-width:4; stroke-opacity:1; fill:none" points="271.719,640.725 290.617,640.725 "/>
<polyline clip-path="url(#clip340)" style="stroke:#000000; stroke-linecap:round; stroke-linejoin:round; stroke-width:4; stroke-opacity:1; fill:none" points="271.719,378.743 290.617,378.743 "/>
<path clip-path="url(#clip340)" d="M219.455 1674.45 Q215.844 1674.45 214.015 1678.02 Q212.209 1681.56 212.209 1688.69 Q212.209 1695.8 214.015 1699.36 Q215.844 1702.9 219.455 1702.9 Q223.089 1702.9 224.894 1699.36 Q226.723 1695.8 226.723 1688.69 Q226.723 1681.56 224.894 1678.02 Q223.089 1674.45 219.455 1674.45 M219.455 1670.75 Q225.265 1670.75 228.32 1675.36 Q231.399 1679.94 231.399 1688.69 Q231.399 1697.42 228.32 1702.02 Q225.265 1706.61 219.455 1706.61 Q213.644 1706.61 210.566 1702.02 Q207.51 1697.42 207.51 1688.69 Q207.51 1679.94 210.566 1675.36 Q213.644 1670.75 219.455 1670.75 Z" fill="#000000" fill-rule="nonzero" fill-opacity="1" /><path clip-path="url(#clip340)" d="M119.779 1440.02 L127.418 1440.02 L127.418 1413.65 L119.108 1415.32 L119.108 1411.06 L127.372 1409.39 L132.048 1409.39 L132.048 1440.02 L139.687 1440.02 L139.687 1443.95 L119.779 1443.95 L119.779 1440.02 Z" fill="#000000" fill-rule="nonzero" fill-opacity="1" /><path clip-path="url(#clip340)" d="M159.131 1412.47 Q155.52 1412.47 153.691 1416.04 Q151.886 1419.58 151.886 1426.71 Q151.886 1433.81 153.691 1437.38 Q155.52 1440.92 159.131 1440.92 Q162.765 1440.92 164.571 1437.38 Q166.399 1433.81 166.399 1426.71 Q166.399 1419.58 164.571 1416.04 Q162.765 1412.47 159.131 1412.47 M159.131 1408.77 Q164.941 1408.77 167.997 1413.37 Q171.075 1417.96 171.075 1426.71 Q171.075 1435.43 167.997 1440.04 Q164.941 1444.62 159.131 1444.62 Q153.321 1444.62 150.242 1440.04 Q147.186 1435.43 147.186 1426.71 Q147.186 1417.96 150.242 1413.37 Q153.321 1408.77 159.131 1408.77 Z" fill="#000000" fill-rule="nonzero" fill-opacity="1" /><path clip-path="url(#clip340)" d="M189.293 1412.47 Q185.682 1412.47 183.853 1416.04 Q182.047 1419.58 182.047 1426.71 Q182.047 1433.81 183.853 1437.38 Q185.682 1440.92 189.293 1440.92 Q192.927 1440.92 194.733 1437.38 Q196.561 1433.81 196.561 1426.71 Q196.561 1419.58 194.733 1416.04 Q192.927 1412.47 189.293 1412.47 M189.293 1408.77 Q195.103 1408.77 198.158 1413.37 Q201.237 1417.96 201.237 1426.71 Q201.237 1435.43 198.158 1440.04 Q195.103 1444.62 189.293 1444.62 Q183.483 1444.62 180.404 1440.04 Q177.348 1435.43 177.348 1426.71 Q177.348 1417.96 180.404 1413.37 Q183.483 1408.77 189.293 1408.77 Z" fill="#000000" fill-rule="nonzero" fill-opacity="1" /><path clip-path="url(#clip340)" d="M219.455 1412.47 Q215.844 1412.47 214.015 1416.04 Q212.209 1419.58 212.209 1426.71 Q212.209 1433.81 214.015 1437.38 Q215.844 1440.92 219.455 1440.92 Q223.089 1440.92 224.894 1437.38 Q226.723 1433.81 226.723 1426.71 Q226.723 1419.58 224.894 1416.04 Q223.089 1412.47 219.455 1412.47 M219.455 1408.77 Q225.265 1408.77 228.32 1413.37 Q231.399 1417.96 231.399 1426.71 Q231.399 1435.43 228.32 1440.04 Q225.265 1444.62 219.455 1444.62 Q213.644 1444.62 210.566 1440.04 Q207.51 1435.43 207.51 1426.71 Q207.51 1417.96 210.566 1413.37 Q213.644 1408.77 219.455 1408.77 Z" fill="#000000" fill-rule="nonzero" fill-opacity="1" /><path clip-path="url(#clip340)" d="M122.997 1178.03 L139.316 1178.03 L139.316 1181.97 L117.372 1181.97 L117.372 1178.03 Q120.034 1175.28 124.617 1170.65 Q129.224 1166 130.404 1164.66 Q132.65 1162.13 133.529 1160.4 Q134.432 1158.64 134.432 1156.95 Q134.432 1154.19 132.488 1152.46 Q130.566 1150.72 127.464 1150.72 Q125.265 1150.72 122.812 1151.48 Q120.381 1152.25 117.603 1153.8 L117.603 1149.08 Q120.427 1147.94 122.881 1147.36 Q125.335 1146.79 127.372 1146.79 Q132.742 1146.79 135.937 1149.47 Q139.131 1152.16 139.131 1156.65 Q139.131 1158.78 138.321 1160.7 Q137.534 1162.6 135.427 1165.19 Q134.849 1165.86 131.747 1169.08 Q128.645 1172.27 122.997 1178.03 Z" fill="#000000" fill-rule="nonzero" fill-opacity="1" /><path clip-path="url(#clip340)" d="M159.131 1150.49 Q155.52 1150.49 153.691 1154.05 Q151.886 1157.6 151.886 1164.72 Q151.886 1171.83 153.691 1175.4 Q155.52 1178.94 159.131 1178.94 Q162.765 1178.94 164.571 1175.4 Q166.399 1171.83 166.399 1164.72 Q166.399 1157.6 164.571 1154.05 Q162.765 1150.49 159.131 1150.49 M159.131 1146.79 Q164.941 1146.79 167.997 1151.39 Q171.075 1155.97 171.075 1164.72 Q171.075 1173.45 167.997 1178.06 Q164.941 1182.64 159.131 1182.64 Q153.321 1182.64 150.242 1178.06 Q147.186 1173.45 147.186 1164.72 Q147.186 1155.97 150.242 1151.39 Q153.321 1146.79 159.131 1146.79 Z" fill="#000000" fill-rule="nonzero" fill-opacity="1" /><path clip-path="url(#clip340)" d="M189.293 1150.49 Q185.682 1150.49 183.853 1154.05 Q182.047 1157.6 182.047 1164.72 Q182.047 1171.83 183.853 1175.4 Q185.682 1178.94 189.293 1178.94 Q192.927 1178.94 194.733 1175.4 Q196.561 1171.83 196.561 1164.72 Q196.561 1157.6 194.733 1154.05 Q192.927 1150.49 189.293 1150.49 M189.293 1146.79 Q195.103 1146.79 198.158 1151.39 Q201.237 1155.97 201.237 1164.72 Q201.237 1173.45 198.158 1178.06 Q195.103 1182.64 189.293 1182.64 Q183.483 1182.64 180.404 1178.06 Q177.348 1173.45 177.348 1164.72 Q177.348 1155.97 180.404 1151.39 Q183.483 1146.79 189.293 1146.79 Z" fill="#000000" fill-rule="nonzero" fill-opacity="1" /><path clip-path="url(#clip340)" d="M219.455 1150.49 Q215.844 1150.49 214.015 1154.05 Q212.209 1157.6 212.209 1164.72 Q212.209 1171.83 214.015 1175.4 Q215.844 1178.94 219.455 1178.94 Q223.089 1178.94 224.894 1175.4 Q226.723 1171.83 226.723 1164.72 Q226.723 1157.6 224.894 1154.05 Q223.089 1150.49 219.455 1150.49 M219.455 1146.79 Q225.265 1146.79 228.32 1151.39 Q231.399 1155.97 231.399 1164.72 Q231.399 1173.45 228.32 1178.06 Q225.265 1182.64 219.455 1182.64 Q213.644 1182.64 210.566 1178.06 Q207.51 1173.45 207.51 1164.72 Q207.51 1155.97 210.566 1151.39 Q213.644 1146.79 219.455 1146.79 Z" fill="#000000" fill-rule="nonzero" fill-opacity="1" /><path clip-path="url(#clip340)" d="M133.136 901.353 Q136.492 902.071 138.367 904.34 Q140.265 906.608 140.265 909.941 Q140.265 915.057 136.747 917.858 Q133.228 920.659 126.747 920.659 Q124.571 920.659 122.256 920.219 Q119.964 919.802 117.511 918.946 L117.511 914.432 Q119.455 915.566 121.77 916.145 Q124.085 916.724 126.608 916.724 Q131.006 916.724 133.298 914.988 Q135.612 913.252 135.612 909.941 Q135.612 906.886 133.46 905.173 Q131.33 903.437 127.511 903.437 L123.483 903.437 L123.483 899.594 L127.696 899.594 Q131.145 899.594 132.974 898.228 Q134.802 896.84 134.802 894.247 Q134.802 891.585 132.904 890.173 Q131.029 888.738 127.511 888.738 Q125.589 888.738 123.39 889.154 Q121.191 889.571 118.552 890.451 L118.552 886.284 Q121.214 885.543 123.529 885.173 Q125.867 884.803 127.927 884.803 Q133.251 884.803 136.353 887.233 Q139.455 889.641 139.455 893.761 Q139.455 896.631 137.812 898.622 Q136.168 900.59 133.136 901.353 Z" fill="#000000" fill-rule="nonzero" fill-opacity="1" /><path clip-path="url(#clip340)" d="M159.131 888.506 Q155.52 888.506 153.691 892.071 Q151.886 895.613 151.886 902.742 Q151.886 909.849 153.691 913.414 Q155.52 916.955 159.131 916.955 Q162.765 916.955 164.571 913.414 Q166.399 909.849 166.399 902.742 Q166.399 895.613 164.571 892.071 Q162.765 888.506 159.131 888.506 M159.131 884.803 Q164.941 884.803 167.997 889.409 Q171.075 893.992 171.075 902.742 Q171.075 911.469 167.997 916.076 Q164.941 920.659 159.131 920.659 Q153.321 920.659 150.242 916.076 Q147.186 911.469 147.186 902.742 Q147.186 893.992 150.242 889.409 Q153.321 884.803 159.131 884.803 Z" fill="#000000" fill-rule="nonzero" fill-opacity="1" /><path clip-path="url(#clip340)" d="M189.293 888.506 Q185.682 888.506 183.853 892.071 Q182.047 895.613 182.047 902.742 Q182.047 909.849 183.853 913.414 Q185.682 916.955 189.293 916.955 Q192.927 916.955 194.733 913.414 Q196.561 909.849 196.561 902.742 Q196.561 895.613 194.733 892.071 Q192.927 888.506 189.293 888.506 M189.293 884.803 Q195.103 884.803 198.158 889.409 Q201.237 893.992 201.237 902.742 Q201.237 911.469 198.158 916.076 Q195.103 920.659 189.293 920.659 Q183.483 920.659 180.404 916.076 Q177.348 911.469 177.348 902.742 Q177.348 893.992 180.404 889.409 Q183.483 884.803 189.293 884.803 Z" fill="#000000" fill-rule="nonzero" fill-opacity="1" /><path clip-path="url(#clip340)" d="M219.455 888.506 Q215.844 888.506 214.015 892.071 Q212.209 895.613 212.209 902.742 Q212.209 909.849 214.015 913.414 Q215.844 916.955 219.455 916.955 Q223.089 916.955 224.894 913.414 Q226.723 909.849 226.723 902.742 Q226.723 895.613 224.894 892.071 Q223.089 888.506 219.455 888.506 M219.455 884.803 Q225.265 884.803 228.32 889.409 Q231.399 893.992 231.399 902.742 Q231.399 911.469 228.32 916.076 Q225.265 920.659 219.455 920.659 Q213.644 920.659 210.566 916.076 Q207.51 911.469 207.51 902.742 Q207.51 893.992 210.566 889.409 Q213.644 884.803 219.455 884.803 Z" fill="#000000" fill-rule="nonzero" fill-opacity="1" /><path clip-path="url(#clip340)" d="M131.816 627.519 L120.011 645.968 L131.816 645.968 L131.816 627.519 M130.589 623.445 L136.469 623.445 L136.469 645.968 L141.399 645.968 L141.399 649.857 L136.469 649.857 L136.469 658.005 L131.816 658.005 L131.816 649.857 L116.214 649.857 L116.214 645.343 L130.589 623.445 Z" fill="#000000" fill-rule="nonzero" fill-opacity="1" /><path clip-path="url(#clip340)" d="M159.131 626.524 Q155.52 626.524 153.691 630.089 Q151.886 633.63 151.886 640.76 Q151.886 647.866 153.691 651.431 Q155.52 654.973 159.131 654.973 Q162.765 654.973 164.571 651.431 Q166.399 647.866 166.399 640.76 Q166.399 633.63 164.571 630.089 Q162.765 626.524 159.131 626.524 M159.131 622.82 Q164.941 622.82 167.997 627.427 Q171.075 632.01 171.075 640.76 Q171.075 649.487 167.997 654.093 Q164.941 658.676 159.131 658.676 Q153.321 658.676 150.242 654.093 Q147.186 649.487 147.186 640.76 Q147.186 632.01 150.242 627.427 Q153.321 622.82 159.131 622.82 Z" fill="#000000" fill-rule="nonzero" fill-opacity="1" /><path clip-path="url(#clip340)" d="M189.293 626.524 Q185.682 626.524 183.853 630.089 Q182.047 633.63 182.047 640.76 Q182.047 647.866 183.853 651.431 Q185.682 654.973 189.293 654.973 Q192.927 654.973 194.733 651.431 Q196.561 647.866 196.561 640.76 Q196.561 633.63 194.733 630.089 Q192.927 626.524 189.293 626.524 M189.293 622.82 Q195.103 622.82 198.158 627.427 Q201.237 632.01 201.237 640.76 Q201.237 649.487 198.158 654.093 Q195.103 658.676 189.293 658.676 Q183.483 658.676 180.404 654.093 Q177.348 649.487 177.348 640.76 Q177.348 632.01 180.404 627.427 Q183.483 622.82 189.293 622.82 Z" fill="#000000" fill-rule="nonzero" fill-opacity="1" /><path clip-path="url(#clip340)" d="M219.455 626.524 Q215.844 626.524 214.015 630.089 Q212.209 633.63 212.209 640.76 Q212.209 647.866 214.015 651.431 Q215.844 654.973 219.455 654.973 Q223.089 654.973 224.894 651.431 Q226.723 647.866 226.723 640.76 Q226.723 633.63 224.894 630.089 Q223.089 626.524 219.455 626.524 M219.455 622.82 Q225.265 622.82 228.32 627.427 Q231.399 632.01 231.399 640.76 Q231.399 649.487 228.32 654.093 Q225.265 658.676 219.455 658.676 Q213.644 658.676 210.566 654.093 Q207.51 649.487 207.51 640.76 Q207.51 632.01 210.566 627.427 Q213.644 622.82 219.455 622.82 Z" fill="#000000" fill-rule="nonzero" fill-opacity="1" /><path clip-path="url(#clip340)" d="M119.015 361.463 L137.372 361.463 L137.372 365.398 L123.298 365.398 L123.298 373.87 Q124.316 373.523 125.335 373.361 Q126.353 373.176 127.372 373.176 Q133.159 373.176 136.538 376.347 Q139.918 379.518 139.918 384.935 Q139.918 390.513 136.446 393.615 Q132.974 396.694 126.654 396.694 Q124.478 396.694 122.21 396.324 Q119.964 395.953 117.557 395.213 L117.557 390.513 Q119.64 391.648 121.863 392.203 Q124.085 392.759 126.562 392.759 Q130.566 392.759 132.904 390.652 Q135.242 388.546 135.242 384.935 Q135.242 381.324 132.904 379.217 Q130.566 377.111 126.562 377.111 Q124.687 377.111 122.812 377.527 Q120.96 377.944 119.015 378.824 L119.015 361.463 Z" fill="#000000" fill-rule="nonzero" fill-opacity="1" /><path clip-path="url(#clip340)" d="M159.131 364.541 Q155.52 364.541 153.691 368.106 Q151.886 371.648 151.886 378.777 Q151.886 385.884 153.691 389.449 Q155.52 392.99 159.131 392.99 Q162.765 392.99 164.571 389.449 Q166.399 385.884 166.399 378.777 Q166.399 371.648 164.571 368.106 Q162.765 364.541 159.131 364.541 M159.131 360.838 Q164.941 360.838 167.997 365.444 Q171.075 370.027 171.075 378.777 Q171.075 387.504 167.997 392.111 Q164.941 396.694 159.131 396.694 Q153.321 396.694 150.242 392.111 Q147.186 387.504 147.186 378.777 Q147.186 370.027 150.242 365.444 Q153.321 360.838 159.131 360.838 Z" fill="#000000" fill-rule="nonzero" fill-opacity="1" /><path clip-path="url(#clip340)" d="M189.293 364.541 Q185.682 364.541 183.853 368.106 Q182.047 371.648 182.047 378.777 Q182.047 385.884 183.853 389.449 Q185.682 392.99 189.293 392.99 Q192.927 392.99 194.733 389.449 Q196.561 385.884 196.561 378.777 Q196.561 371.648 194.733 368.106 Q192.927 364.541 189.293 364.541 M189.293 360.838 Q195.103 360.838 198.158 365.444 Q201.237 370.027 201.237 378.777 Q201.237 387.504 198.158 392.111 Q195.103 396.694 189.293 396.694 Q183.483 396.694 180.404 392.111 Q177.348 387.504 177.348 378.777 Q177.348 370.027 180.404 365.444 Q183.483 360.838 189.293 360.838 Z" fill="#000000" fill-rule="nonzero" fill-opacity="1" /><path clip-path="url(#clip340)" d="M219.455 364.541 Q215.844 364.541 214.015 368.106 Q212.209 371.648 212.209 378.777 Q212.209 385.884 214.015 389.449 Q215.844 392.99 219.455 392.99 Q223.089 392.99 224.894 389.449 Q226.723 385.884 226.723 378.777 Q226.723 371.648 224.894 368.106 Q223.089 364.541 219.455 364.541 M219.455 360.838 Q225.265 360.838 228.32 365.444 Q231.399 370.027 231.399 378.777 Q231.399 387.504 228.32 392.111 Q225.265 396.694 219.455 396.694 Q213.644 396.694 210.566 392.111 Q207.51 387.504 207.51 378.777 Q207.51 370.027 210.566 365.444 Q213.644 360.838 219.455 360.838 Z" fill="#000000" fill-rule="nonzero" fill-opacity="1" /><path clip-path="url(#clip340)" d="M14.1184 1157.19 L14.1184 1147.61 L46.4562 1135.48 L14.1184 1123.29 L14.1184 1113.71 L61.6384 1113.71 L61.6384 1119.98 L19.9112 1119.98 L52.5037 1132.24 L52.5037 1138.7 L19.9112 1150.95 L61.6384 1150.95 L61.6384 1157.19 L14.1184 1157.19 Z" fill="#000000" fill-rule="nonzero" fill-opacity="1" /><path clip-path="url(#clip340)" d="M42.3504 1070.71 L45.2149 1070.71 L45.2149 1097.64 Q51.2623 1097.26 54.4452 1094.01 Q57.5962 1090.73 57.5962 1084.91 Q57.5962 1081.54 56.7687 1078.38 Q55.9411 1075.2 54.2861 1072.08 L59.8242 1072.08 Q61.161 1075.23 61.8612 1078.54 Q62.5615 1081.85 62.5615 1085.26 Q62.5615 1093.79 57.5962 1098.79 Q52.631 1103.75 44.1646 1103.75 Q35.4117 1103.75 30.2873 1099.04 Q25.1311 1094.3 25.1311 1086.28 Q25.1311 1079.08 29.7781 1074.92 Q34.3932 1070.71 42.3504 1070.71 M40.6316 1076.57 Q35.8255 1076.63 32.9609 1079.28 Q30.0964 1081.89 30.0964 1086.21 Q30.0964 1091.12 32.8654 1094.08 Q35.6345 1097 40.6634 1097.45 L40.6316 1076.57 Z" fill="#000000" fill-rule="nonzero" fill-opacity="1" /><path clip-path="url(#clip340)" d="M43.719 1044.9 Q43.719 1052 45.3422 1054.74 Q46.9655 1057.47 50.8804 1057.47 Q53.9996 1057.47 55.8457 1055.44 Q57.6599 1053.37 57.6599 1049.83 Q57.6599 1044.96 54.2224 1042.04 Q50.7531 1039.08 45.0239 1039.08 L43.719 1039.08 L43.719 1044.9 M41.3 1033.22 L61.6384 1033.22 L61.6384 1039.08 L56.2276 1039.08 Q59.4741 1041.08 61.0337 1044.07 Q62.5615 1047.07 62.5615 1051.39 Q62.5615 1056.87 59.5059 1060.11 Q56.4186 1063.33 51.2623 1063.33 Q45.2467 1063.33 42.1912 1059.32 Q39.1357 1055.28 39.1357 1047.29 L39.1357 1039.08 L38.5628 1039.08 Q34.5205 1039.08 32.3244 1041.75 Q30.0964 1044.39 30.0964 1049.2 Q30.0964 1052.25 30.8284 1055.15 Q31.5605 1058.05 33.0246 1060.72 L27.6137 1060.72 Q26.3724 1057.5 25.7677 1054.48 Q25.1311 1051.46 25.1311 1048.59 Q25.1311 1040.86 29.1415 1037.04 Q33.1519 1033.22 41.3 1033.22 Z" fill="#000000" fill-rule="nonzero" fill-opacity="1" /><path clip-path="url(#clip340)" d="M40.1224 991.524 L61.6384 991.524 L61.6384 997.381 L40.3133 997.381 Q35.2526 997.381 32.7381 999.354 Q30.2237 1001.33 30.2237 1005.27 Q30.2237 1010.02 33.2474 1012.75 Q36.2711 1015.49 41.491 1015.49 L61.6384 1015.49 L61.6384 1021.38 L25.9905 1021.38 L25.9905 1015.49 L31.5287 1015.49 Q28.314 1013.39 26.7225 1010.56 Q25.1311 1007.69 25.1311 1003.97 Q25.1311 997.826 28.9505 994.675 Q32.7381 991.524 40.1224 991.524 Z" fill="#000000" fill-rule="nonzero" fill-opacity="1" /><path clip-path="url(#clip340)" d="M14.1184 958.868 L14.1184 952.439 L61.6384 952.439 L61.6384 958.868 L14.1184 958.868 Z" fill="#000000" fill-rule="nonzero" fill-opacity="1" /><path clip-path="url(#clip340)" d="M40.1224 910.266 L61.6384 910.266 L61.6384 916.122 L40.3133 916.122 Q35.2526 916.122 32.7381 918.096 Q30.2237 920.069 30.2237 924.016 Q30.2237 928.758 33.2474 931.496 Q36.2711 934.233 41.491 934.233 L61.6384 934.233 L61.6384 940.121 L25.9905 940.121 L25.9905 934.233 L31.5287 934.233 Q28.314 932.132 26.7225 929.299 Q25.1311 926.435 25.1311 922.711 Q25.1311 916.568 28.9505 913.417 Q32.7381 910.266 40.1224 910.266 Z" fill="#000000" fill-rule="nonzero" fill-opacity="1" /><path clip-path="url(#clip340)" d="M12.1132 880.538 L16.983 880.538 L16.983 886.14 Q16.983 889.291 18.2562 890.532 Q19.5293 891.742 22.8395 891.742 L25.9905 891.742 L25.9905 882.098 L30.542 882.098 L30.542 891.742 L61.6384 891.742 L61.6384 897.63 L30.542 897.63 L30.542 903.232 L25.9905 903.232 L25.9905 897.63 L23.5079 897.63 Q17.5559 897.63 14.8505 894.861 Q12.1132 892.092 12.1132 886.076 L12.1132 880.538 Z" fill="#000000" fill-rule="nonzero" fill-opacity="1" /><path clip-path="url(#clip340)" d="M42.3504 845.145 L45.2149 845.145 L45.2149 872.072 Q51.2623 871.69 54.4452 868.443 Q57.5962 865.165 57.5962 859.34 Q57.5962 855.967 56.7687 852.816 Q55.9411 849.633 54.2861 846.513 L59.8242 846.513 Q61.161 849.664 61.8612 852.975 Q62.5615 856.285 62.5615 859.69 Q62.5615 868.221 57.5962 873.218 Q52.631 878.183 44.1646 878.183 Q35.4117 878.183 30.2873 873.472 Q25.1311 868.73 25.1311 860.709 Q25.1311 853.516 29.7781 849.346 Q34.3932 845.145 42.3504 845.145 M40.6316 851.001 Q35.8255 851.065 32.9609 853.707 Q30.0964 856.317 30.0964 860.645 Q30.0964 865.547 32.8654 868.507 Q35.6345 871.435 40.6634 871.881 L40.6316 851.001 Z" fill="#000000" fill-rule="nonzero" fill-opacity="1" /><path clip-path="url(#clip340)" d="M27.3591 809.879 L32.8336 809.879 Q31.465 812.361 30.7966 814.876 Q30.0964 817.359 30.0964 819.905 Q30.0964 825.602 33.7248 828.753 Q37.3214 831.904 43.8463 831.904 Q50.3711 831.904 53.9996 828.753 Q57.5962 825.602 57.5962 819.905 Q57.5962 817.359 56.9278 814.876 Q56.2276 812.361 54.859 809.879 L60.2698 809.879 Q61.4156 812.33 61.9886 814.971 Q62.5615 817.581 62.5615 820.541 Q62.5615 828.594 57.5007 833.336 Q52.44 838.079 43.8463 838.079 Q35.1253 838.079 30.1282 833.305 Q25.1311 828.499 25.1311 820.159 Q25.1311 817.454 25.704 814.876 Q26.2451 812.298 27.3591 809.879 Z" fill="#000000" fill-rule="nonzero" fill-opacity="1" /><path clip-path="url(#clip340)" d="M15.869 793.901 L25.9905 793.901 L25.9905 781.838 L30.542 781.838 L30.542 793.901 L49.8937 793.901 Q54.2542 793.901 55.4955 792.723 Q56.7368 791.514 56.7368 787.853 L56.7368 781.838 L61.6384 781.838 L61.6384 787.853 Q61.6384 794.633 59.124 797.211 Q56.5777 799.789 49.8937 799.789 L30.542 799.789 L30.542 804.086 L25.9905 804.086 L25.9905 799.789 L15.869 799.789 L15.869 793.901 Z" fill="#000000" fill-rule="nonzero" fill-opacity="1" /><path clip-path="url(#clip340)" d="M42.3504 743.644 L45.2149 743.644 L45.2149 770.571 Q51.2623 770.189 54.4452 766.942 Q57.5962 763.664 57.5962 757.839 Q57.5962 754.465 56.7687 751.314 Q55.9411 748.131 54.2861 745.012 L59.8242 745.012 Q61.161 748.163 61.8612 751.473 Q62.5615 754.784 62.5615 758.189 Q62.5615 766.719 57.5962 771.716 Q52.631 776.682 44.1646 776.682 Q35.4117 776.682 30.2873 771.971 Q25.1311 767.229 25.1311 759.208 Q25.1311 752.015 29.7781 747.845 Q34.3932 743.644 42.3504 743.644 M40.6316 749.5 Q35.8255 749.564 32.9609 752.206 Q30.0964 754.815 30.0964 759.144 Q30.0964 764.046 32.8654 767.006 Q35.6345 769.934 40.6634 770.38 L40.6316 749.5 Z" fill="#000000" fill-rule="nonzero" fill-opacity="1" /><path clip-path="url(#clip340)" d="M31.4013 710.574 L12.1132 710.574 L12.1132 704.717 L61.6384 704.717 L61.6384 710.574 L56.2912 710.574 Q59.4741 712.42 61.0337 715.253 Q62.5615 718.053 62.5615 722 Q62.5615 728.461 57.4052 732.535 Q52.249 736.578 43.8463 736.578 Q35.4436 736.578 30.2873 732.535 Q25.1311 728.461 25.1311 722 Q25.1311 718.053 26.6907 715.253 Q28.2185 712.42 31.4013 710.574 M43.8463 730.53 Q50.3075 730.53 53.9996 727.889 Q57.6599 725.215 57.6599 720.568 Q57.6599 715.921 53.9996 713.247 Q50.3075 710.574 43.8463 710.574 Q37.3851 710.574 33.7248 713.247 Q30.0327 715.921 30.0327 720.568 Q30.0327 725.215 33.7248 727.889 Q37.3851 730.53 43.8463 730.53 Z" fill="#000000" fill-rule="nonzero" fill-opacity="1" /><path clip-path="url(#clip340)" d="M835.133 12.096 L843.315 12.096 L843.315 72.576 L835.133 72.576 L835.133 12.096 Z" fill="#000000" fill-rule="nonzero" fill-opacity="1" /><path clip-path="url(#clip340)" d="M894.6 35.9153 Q897.395 30.8922 901.284 28.5022 Q905.173 26.1121 910.439 26.1121 Q917.528 26.1121 921.376 31.0947 Q925.225 36.0368 925.225 45.1919 L925.225 72.576 L917.731 72.576 L917.731 45.4349 Q917.731 38.913 915.421 35.7533 Q913.112 32.5936 908.373 32.5936 Q902.58 32.5936 899.218 36.4419 Q895.856 40.2903 895.856 46.9338 L895.856 72.576 L888.361 72.576 L888.361 45.4349 Q888.361 38.8725 886.052 35.7533 Q883.743 32.5936 878.923 32.5936 Q873.211 32.5936 869.849 36.4824 Q866.487 40.3308 866.487 46.9338 L866.487 72.576 L858.992 72.576 L858.992 27.2059 L866.487 27.2059 L866.487 34.2544 Q869.039 30.082 872.603 28.0971 Q876.168 26.1121 881.07 26.1121 Q886.012 26.1121 889.455 28.6237 Q892.939 31.1352 894.6 35.9153 Z" fill="#000000" fill-rule="nonzero" fill-opacity="1" /><path clip-path="url(#clip340)" d="M947.302 65.7705 L947.302 89.8329 L939.808 89.8329 L939.808 27.2059 L947.302 27.2059 L947.302 34.0924 Q949.652 30.0415 953.216 28.0971 Q956.822 26.1121 961.804 26.1121 Q970.068 26.1121 975.213 32.6746 Q980.398 39.2371 980.398 49.9314 Q980.398 60.6258 975.213 67.1883 Q970.068 73.7508 961.804 73.7508 Q956.822 73.7508 953.216 71.8063 Q949.652 69.8214 947.302 65.7705 M972.661 49.9314 Q972.661 41.7081 969.258 37.0496 Q965.896 32.3505 959.981 32.3505 Q954.067 32.3505 950.664 37.0496 Q947.302 41.7081 947.302 49.9314 Q947.302 58.1548 950.664 62.8538 Q954.067 67.5124 959.981 67.5124 Q965.896 67.5124 969.258 62.8538 Q972.661 58.1548 972.661 49.9314 Z" fill="#000000" fill-rule="nonzero" fill-opacity="1" /><path clip-path="url(#clip340)" d="M1013.37 49.7694 Q1004.34 49.7694 1000.86 51.8354 Q997.371 53.9013 997.371 58.8839 Q997.371 62.8538 999.964 65.2034 Q1002.6 67.5124 1007.09 67.5124 Q1013.29 67.5124 1017.02 63.1374 Q1020.79 58.7219 1020.79 51.4303 L1020.79 49.7694 L1013.37 49.7694 M1028.24 46.6907 L1028.24 72.576 L1020.79 72.576 L1020.79 65.6895 Q1018.23 69.8214 1014.43 71.8063 Q1010.62 73.7508 1005.11 73.7508 Q998.141 73.7508 994.009 69.8619 Q989.918 65.9325 989.918 59.3701 Q989.918 51.7138 995.022 47.825 Q1000.17 43.9361 1010.33 43.9361 L1020.79 43.9361 L1020.79 43.2069 Q1020.79 38.0623 1017.38 35.2672 Q1014.02 32.4315 1007.9 32.4315 Q1004.01 32.4315 1000.33 33.3632 Q996.642 34.295 993.239 36.1584 L993.239 29.2718 Q997.331 27.692 1001.18 26.9223 Q1005.03 26.1121 1008.67 26.1121 Q1018.52 26.1121 1023.38 31.2163 Q1028.24 36.3204 1028.24 46.6907 Z" fill="#000000" fill-rule="nonzero" fill-opacity="1" /><path clip-path="url(#clip340)" d="M1076.24 28.9478 L1076.24 35.9153 Q1073.08 34.1734 1069.88 33.3227 Q1066.72 32.4315 1063.48 32.4315 Q1056.23 32.4315 1052.22 37.0496 Q1048.21 41.6271 1048.21 49.9314 Q1048.21 58.2358 1052.22 62.8538 Q1056.23 67.4314 1063.48 67.4314 Q1066.72 67.4314 1069.88 66.5807 Q1073.08 65.6895 1076.24 63.9476 L1076.24 70.8341 Q1073.12 72.2924 1069.76 73.0216 Q1066.44 73.7508 1062.67 73.7508 Q1052.42 73.7508 1046.39 67.3098 Q1040.35 60.8689 1040.35 49.9314 Q1040.35 38.832 1046.43 32.472 Q1052.54 26.1121 1063.16 26.1121 Q1066.6 26.1121 1069.88 26.8413 Q1073.16 27.5299 1076.24 28.9478 Z" fill="#000000" fill-rule="nonzero" fill-opacity="1" /><path clip-path="url(#clip340)" d="M1096.58 14.324 L1096.58 27.2059 L1111.93 27.2059 L1111.93 32.9987 L1096.58 32.9987 L1096.58 57.6282 Q1096.58 63.1779 1098.08 64.7578 Q1099.62 66.3376 1104.27 66.3376 L1111.93 66.3376 L1111.93 72.576 L1104.27 72.576 Q1095.65 72.576 1092.36 69.3758 Q1089.08 66.1351 1089.08 57.6282 L1089.08 32.9987 L1083.62 32.9987 L1083.62 27.2059 L1089.08 27.2059 L1089.08 14.324 L1096.58 14.324 Z" fill="#000000" fill-rule="nonzero" fill-opacity="1" /><path clip-path="url(#clip340)" d="M1165.69 32.4315 Q1159.69 32.4315 1156.21 37.1306 Q1152.72 41.7891 1152.72 49.9314 Q1152.72 58.0738 1156.17 62.7728 Q1159.65 67.4314 1165.69 67.4314 Q1171.64 67.4314 1175.12 62.7323 Q1178.61 58.0333 1178.61 49.9314 Q1178.61 41.8701 1175.12 37.1711 Q1171.64 32.4315 1165.69 32.4315 M1165.69 26.1121 Q1175.41 26.1121 1180.96 32.4315 Q1186.51 38.7509 1186.51 49.9314 Q1186.51 61.0714 1180.96 67.4314 Q1175.41 73.7508 1165.69 73.7508 Q1155.92 73.7508 1150.37 67.4314 Q1144.86 61.0714 1144.86 49.9314 Q1144.86 38.7509 1150.37 32.4315 Q1155.92 26.1121 1165.69 26.1121 Z" fill="#000000" fill-rule="nonzero" fill-opacity="1" /><path clip-path="url(#clip340)" d="M1221.83 9.54393 L1221.83 15.7418 L1214.7 15.7418 Q1210.69 15.7418 1209.11 17.3622 Q1207.57 18.9825 1207.57 23.1955 L1207.57 27.2059 L1219.85 27.2059 L1219.85 32.9987 L1207.57 32.9987 L1207.57 72.576 L1200.08 72.576 L1200.08 32.9987 L1192.95 32.9987 L1192.95 27.2059 L1200.08 27.2059 L1200.08 24.0462 Q1200.08 16.471 1203.6 13.0277 Q1207.13 9.54393 1214.78 9.54393 L1221.83 9.54393 Z" fill="#000000" fill-rule="nonzero" fill-opacity="1" /><path clip-path="url(#clip340)" d="M1262.95 18.8205 L1262.95 65.8515 L1272.83 65.8515 Q1285.35 65.8515 1291.14 60.1802 Q1296.98 54.509 1296.98 42.2752 Q1296.98 30.1225 1291.14 24.4918 Q1285.35 18.8205 1272.83 18.8205 L1262.95 18.8205 M1254.77 12.096 L1271.58 12.096 Q1289.16 12.096 1297.38 19.4281 Q1305.6 26.7198 1305.6 42.2752 Q1305.6 57.9117 1297.34 65.2439 Q1289.08 72.576 1271.58 72.576 L1254.77 72.576 L1254.77 12.096 Z" fill="#000000" fill-rule="nonzero" fill-opacity="1" /><path clip-path="url(#clip340)" d="M1357.13 48.0275 L1357.13 51.6733 L1322.86 51.6733 Q1323.35 59.3701 1327.48 63.421 Q1331.65 67.4314 1339.07 67.4314 Q1343.36 67.4314 1347.37 66.3781 Q1351.42 65.3249 1355.39 63.2184 L1355.39 70.267 Q1351.38 71.9684 1347.17 72.8596 Q1342.95 73.7508 1338.62 73.7508 Q1327.76 73.7508 1321.4 67.4314 Q1315.08 61.1119 1315.08 50.3365 Q1315.08 39.1965 1321.08 32.6746 Q1327.11 26.1121 1337.32 26.1121 Q1346.48 26.1121 1351.78 32.0264 Q1357.13 37.9003 1357.13 48.0275 M1349.68 45.84 Q1349.6 39.7232 1346.24 36.0774 Q1342.91 32.4315 1337.4 32.4315 Q1331.17 32.4315 1327.4 35.9558 Q1323.67 39.4801 1323.1 45.8805 L1349.68 45.84 Z" fill="#000000" fill-rule="nonzero" fill-opacity="1" /><path clip-path="url(#clip340)" d="M1376.74 14.324 L1376.74 27.2059 L1392.09 27.2059 L1392.09 32.9987 L1376.74 32.9987 L1376.74 57.6282 Q1376.74 63.1779 1378.24 64.7578 Q1379.78 66.3376 1384.44 66.3376 L1392.09 66.3376 L1392.09 72.576 L1384.44 72.576 Q1375.81 72.576 1372.53 69.3758 Q1369.24 66.1351 1369.24 57.6282 L1369.24 32.9987 L1363.78 32.9987 L1363.78 27.2059 L1369.24 27.2059 L1369.24 14.324 L1376.74 14.324 Z" fill="#000000" fill-rule="nonzero" fill-opacity="1" /><path clip-path="url(#clip340)" d="M1440.7 48.0275 L1440.7 51.6733 L1406.43 51.6733 Q1406.92 59.3701 1411.05 63.421 Q1415.22 67.4314 1422.64 67.4314 Q1426.93 67.4314 1430.94 66.3781 Q1434.99 65.3249 1438.96 63.2184 L1438.96 70.267 Q1434.95 71.9684 1430.74 72.8596 Q1426.52 73.7508 1422.19 73.7508 Q1411.33 73.7508 1404.97 67.4314 Q1398.65 61.1119 1398.65 50.3365 Q1398.65 39.1965 1404.65 32.6746 Q1410.69 26.1121 1420.89 26.1121 Q1430.05 26.1121 1435.36 32.0264 Q1440.7 37.9003 1440.7 48.0275 M1433.25 45.84 Q1433.17 39.7232 1429.81 36.0774 Q1426.48 32.4315 1420.97 32.4315 Q1414.74 32.4315 1410.97 35.9558 Q1407.24 39.4801 1406.67 45.8805 L1433.25 45.84 Z" fill="#000000" fill-rule="nonzero" fill-opacity="1" /><path clip-path="url(#clip340)" d="M1485.59 28.9478 L1485.59 35.9153 Q1482.43 34.1734 1479.23 33.3227 Q1476.07 32.4315 1472.83 32.4315 Q1465.57 32.4315 1461.56 37.0496 Q1457.55 41.6271 1457.55 49.9314 Q1457.55 58.2358 1461.56 62.8538 Q1465.57 67.4314 1472.83 67.4314 Q1476.07 67.4314 1479.23 66.5807 Q1482.43 65.6895 1485.59 63.9476 L1485.59 70.8341 Q1482.47 72.2924 1479.1 73.0216 Q1475.78 73.7508 1472.02 73.7508 Q1461.77 73.7508 1455.73 67.3098 Q1449.7 60.8689 1449.7 49.9314 Q1449.7 38.832 1455.77 32.472 Q1461.89 26.1121 1472.5 26.1121 Q1475.95 26.1121 1479.23 26.8413 Q1482.51 27.5299 1485.59 28.9478 Z" fill="#000000" fill-rule="nonzero" fill-opacity="1" /><path clip-path="url(#clip340)" d="M1505.92 14.324 L1505.92 27.2059 L1521.27 27.2059 L1521.27 32.9987 L1505.92 32.9987 L1505.92 57.6282 Q1505.92 63.1779 1507.42 64.7578 Q1508.96 66.3376 1513.62 66.3376 L1521.27 66.3376 L1521.27 72.576 L1513.62 72.576 Q1504.99 72.576 1501.71 69.3758 Q1498.43 66.1351 1498.43 57.6282 L1498.43 32.9987 L1492.96 32.9987 L1492.96 27.2059 L1498.43 27.2059 L1498.43 14.324 L1505.92 14.324 Z" fill="#000000" fill-rule="nonzero" fill-opacity="1" /><path clip-path="url(#clip340)" d="M1531.08 27.2059 L1538.53 27.2059 L1538.53 72.576 L1531.08 72.576 L1531.08 27.2059 M1531.08 9.54393 L1538.53 9.54393 L1538.53 18.9825 L1531.08 18.9825 L1531.08 9.54393 Z" fill="#000000" fill-rule="nonzero" fill-opacity="1" /><path clip-path="url(#clip340)" d="M1571.71 32.4315 Q1565.71 32.4315 1562.23 37.1306 Q1558.75 41.7891 1558.75 49.9314 Q1558.75 58.0738 1562.19 62.7728 Q1565.67 67.4314 1571.71 67.4314 Q1577.66 67.4314 1581.15 62.7323 Q1584.63 58.0333 1584.63 49.9314 Q1584.63 41.8701 1581.15 37.1711 Q1577.66 32.4315 1571.71 32.4315 M1571.71 26.1121 Q1581.43 26.1121 1586.98 32.4315 Q1592.53 38.7509 1592.53 49.9314 Q1592.53 61.0714 1586.98 67.4314 Q1581.43 73.7508 1571.71 73.7508 Q1561.95 73.7508 1556.4 67.4314 Q1550.89 61.0714 1550.89 49.9314 Q1550.89 38.7509 1556.4 32.4315 Q1561.95 26.1121 1571.71 26.1121 Z" fill="#000000" fill-rule="nonzero" fill-opacity="1" /><path clip-path="url(#clip340)" d="M1642.6 45.1919 L1642.6 72.576 L1635.15 72.576 L1635.15 45.4349 Q1635.15 38.994 1632.63 35.7938 Q1630.12 32.5936 1625.1 32.5936 Q1619.06 32.5936 1615.58 36.4419 Q1612.1 40.2903 1612.1 46.9338 L1612.1 72.576 L1604.6 72.576 L1604.6 27.2059 L1612.1 27.2059 L1612.1 34.2544 Q1614.77 30.163 1618.37 28.1376 Q1622.02 26.1121 1626.76 26.1121 Q1634.58 26.1121 1638.59 30.9732 Q1642.6 35.7938 1642.6 45.1919 Z" fill="#000000" fill-rule="nonzero" fill-opacity="1" /><path clip-path="url(#clip340)" d="M1675.78 12.096 L1726.94 12.096 L1726.94 18.9825 L1705.47 18.9825 L1705.47 72.576 L1697.25 72.576 L1697.25 18.9825 L1675.78 18.9825 L1675.78 12.096 Z" fill="#000000" fill-rule="nonzero" fill-opacity="1" /><path clip-path="url(#clip340)" d="M1772.23 45.1919 L1772.23 72.576 L1764.77 72.576 L1764.77 45.4349 Q1764.77 38.994 1762.26 35.7938 Q1759.75 32.5936 1754.73 32.5936 Q1748.69 32.5936 1745.21 36.4419 Q1741.72 40.2903 1741.72 46.9338 L1741.72 72.576 L1734.23 72.576 L1734.23 9.54393 L1741.72 9.54393 L1741.72 34.2544 Q1744.4 30.163 1748 28.1376 Q1751.65 26.1121 1756.39 26.1121 Q1764.21 26.1121 1768.22 30.9732 Q1772.23 35.7938 1772.23 45.1919 Z" fill="#000000" fill-rule="nonzero" fill-opacity="1" /><path clip-path="url(#clip340)" d="M1813.39 34.1734 Q1812.13 33.4443 1810.63 33.1202 Q1809.17 32.7556 1807.39 32.7556 Q1801.07 32.7556 1797.67 36.8875 Q1794.31 40.9789 1794.31 48.6757 L1794.31 72.576 L1786.81 72.576 L1786.81 27.2059 L1794.31 27.2059 L1794.31 34.2544 Q1796.66 30.1225 1800.42 28.1376 Q1804.19 26.1121 1809.58 26.1121 Q1810.35 26.1121 1811.28 26.2337 Q1812.21 26.3147 1813.34 26.5172 L1813.39 34.1734 Z" fill="#000000" fill-rule="nonzero" fill-opacity="1" /><path clip-path="url(#clip340)" d="M1858.19 48.0275 L1858.19 51.6733 L1823.92 51.6733 Q1824.4 59.3701 1828.54 63.421 Q1832.71 67.4314 1840.12 67.4314 Q1844.42 67.4314 1848.43 66.3781 Q1852.48 65.3249 1856.45 63.2184 L1856.45 70.267 Q1852.44 71.9684 1848.22 72.8596 Q1844.01 73.7508 1839.68 73.7508 Q1828.82 73.7508 1822.46 67.4314 Q1816.14 61.1119 1816.14 50.3365 Q1816.14 39.1965 1822.14 32.6746 Q1828.17 26.1121 1838.38 26.1121 Q1847.53 26.1121 1852.84 32.0264 Q1858.19 37.9003 1858.19 48.0275 M1850.73 45.84 Q1850.65 39.7232 1847.29 36.0774 Q1843.97 32.4315 1838.46 32.4315 Q1832.22 32.4315 1828.45 35.9558 Q1824.73 39.4801 1824.16 45.8805 L1850.73 45.84 Z" fill="#000000" fill-rule="nonzero" fill-opacity="1" /><path clip-path="url(#clip340)" d="M1899.35 28.5427 L1899.35 35.5912 Q1896.19 33.9709 1892.78 33.1607 Q1889.38 32.3505 1885.73 32.3505 Q1880.18 32.3505 1877.39 34.0519 Q1874.64 35.7533 1874.64 39.156 Q1874.64 41.7486 1876.62 43.2475 Q1878.6 44.7058 1884.6 46.0426 L1887.15 46.6097 Q1895.09 48.3111 1898.41 51.4303 Q1901.78 54.509 1901.78 60.0587 Q1901.78 66.3781 1896.75 70.0644 Q1891.77 73.7508 1883.02 73.7508 Q1879.37 73.7508 1875.4 73.0216 Q1871.48 72.3329 1867.1 70.9151 L1867.1 63.2184 Q1871.23 65.3654 1875.24 66.4591 Q1879.25 67.5124 1883.18 67.5124 Q1888.45 67.5124 1891.28 65.73 Q1894.12 63.9071 1894.12 60.6258 Q1894.12 57.5877 1892.05 55.9673 Q1890.03 54.3469 1883.1 52.8481 L1880.51 52.2405 Q1873.58 50.7821 1870.5 47.7845 Q1867.42 44.7463 1867.42 39.4801 Q1867.42 33.0797 1871.96 29.5959 Q1876.5 26.1121 1884.84 26.1121 Q1888.98 26.1121 1892.62 26.7198 Q1896.27 27.3274 1899.35 28.5427 Z" fill="#000000" fill-rule="nonzero" fill-opacity="1" /><path clip-path="url(#clip340)" d="M1951.36 45.1919 L1951.36 72.576 L1943.91 72.576 L1943.91 45.4349 Q1943.91 38.994 1941.39 35.7938 Q1938.88 32.5936 1933.86 32.5936 Q1927.82 32.5936 1924.34 36.4419 Q1920.86 40.2903 1920.86 46.9338 L1920.86 72.576 L1913.36 72.576 L1913.36 9.54393 L1920.86 9.54393 L1920.86 34.2544 Q1923.53 30.163 1927.13 28.1376 Q1930.78 26.1121 1935.52 26.1121 Q1943.34 26.1121 1947.35 30.9732 Q1951.36 35.7938 1951.36 45.1919 Z" fill="#000000" fill-rule="nonzero" fill-opacity="1" /><path clip-path="url(#clip340)" d="M1983.81 32.4315 Q1977.81 32.4315 1974.33 37.1306 Q1970.84 41.7891 1970.84 49.9314 Q1970.84 58.0738 1974.29 62.7728 Q1977.77 67.4314 1983.81 67.4314 Q1989.76 67.4314 1993.25 62.7323 Q1996.73 58.0333 1996.73 49.9314 Q1996.73 41.8701 1993.25 37.1711 Q1989.76 32.4315 1983.81 32.4315 M1983.81 26.1121 Q1993.53 26.1121 1999.08 32.4315 Q2004.63 38.7509 2004.63 49.9314 Q2004.63 61.0714 1999.08 67.4314 Q1993.53 73.7508 1983.81 73.7508 Q1974.04 73.7508 1968.49 67.4314 Q1962.99 61.0714 1962.99 49.9314 Q1962.99 38.7509 1968.49 32.4315 Q1974.04 26.1121 1983.81 26.1121 Z" fill="#000000" fill-rule="nonzero" fill-opacity="1" /><path clip-path="url(#clip340)" d="M2016.98 9.54393 L2024.44 9.54393 L2024.44 72.576 L2016.98 72.576 L2016.98 9.54393 Z" fill="#000000" fill-rule="nonzero" fill-opacity="1" /><path clip-path="url(#clip340)" d="M2069.89 34.0924 L2069.89 9.54393 L2077.34 9.54393 L2077.34 72.576 L2069.89 72.576 L2069.89 65.7705 Q2067.54 69.8214 2063.93 71.8063 Q2060.37 73.7508 2055.35 73.7508 Q2047.12 73.7508 2041.94 67.1883 Q2036.79 60.6258 2036.79 49.9314 Q2036.79 39.2371 2041.94 32.6746 Q2047.12 26.1121 2055.35 26.1121 Q2060.37 26.1121 2063.93 28.0971 Q2067.54 30.0415 2069.89 34.0924 M2044.49 49.9314 Q2044.49 58.1548 2047.85 62.8538 Q2051.25 67.5124 2057.17 67.5124 Q2063.08 67.5124 2066.49 62.8538 Q2069.89 58.1548 2069.89 49.9314 Q2069.89 41.7081 2066.49 37.0496 Q2063.08 32.3505 2057.17 32.3505 Q2051.25 32.3505 2047.85 37.0496 Q2044.49 41.7081 2044.49 49.9314 Z" fill="#000000" fill-rule="nonzero" fill-opacity="1" /><polyline clip-path="url(#clip341)" style="stroke:#008000; stroke-linecap:round; stroke-linejoin:round; stroke-width:8; stroke-opacity:1; fill:none" points="338.767,1687.35 349.942,1687.51 361.117,1687.44 372.291,1687.32 383.466,1687.15 394.641,1686.85 405.815,1686.6 416.99,1686.08 428.165,1685.61 439.34,1685.07 450.514,1684.4 461.689,1683.55 472.864,1682.58 484.038,1681.57 495.213,1680.29 506.388,1678.9 517.562,1677.36 528.737,1675.13 539.912,1672.6 551.087,1669.86 562.261,1666.67 573.436,1663.26 584.611,1659.09 595.785,1654.72 606.96,1649.54 618.135,1644.05 629.309,1638.02 640.484,1631.33 651.659,1623.99 662.834,1616.67 674.008,1607.93 685.183,1599.35 696.358,1589.48 707.532,1579.3 718.707,1569.63 729.882,1559.41 741.057,1548.02 752.231,1537.96 763.406,1527.74 774.581,1517.34 785.755,1507.64 796.93,1497.58 808.105,1487.41 819.279,1478 830.454,1469.09 841.629,1460.75 852.804,1452.88 863.978,1445.73 875.153,1440.31 886.328,1435.64 897.502,1431.55 908.677,1429.79 919.852,1427.95 931.026,1426.21 942.201,1425.34 953.376,1426.7 964.551,1429.51 975.725,1431.6 986.9,1435.01 998.075,1439.66 1009.25,1444.5 1020.42,1448.87 1031.6,1454.44 1042.77,1461.73 1053.95,1469.08 1065.12,1476.17 1076.3,1483.46 1087.47,1491.37 1098.65,1498.8 1109.82,1506.77 1121,1514.96 1132.17,1522.9 1143.35,1530.43 1154.52,1538.7 1165.7,1546.3 1176.87,1554.48 1188.04,1562.15 1199.22,1568.93 1210.39,1576.27 1221.57,1582.63 1232.74,1589.21 1243.92,1595.59 1255.09,1601.46 1266.27,1606.92 1277.44,1612.66 1288.62,1617.84 1299.79,1622.83 1310.97,1627.13 1322.14,1631.23 1333.32,1635.52 1344.49,1639.43 1355.67,1643.2 1366.84,1646.59 1378.01,1649.63 1389.19,1652.64 1400.36,1655.41 1411.54,1657.93 1422.71,1660.08 1433.89,1662.33 1445.06,1664.5 1456.24,1666.37 1467.41,1668.25 1478.59,1669.61 1489.76,1671.13 1500.94,1672.45 1512.11,1673.86 1523.29,1674.92 1534.46,1676.15 1545.64,1677.17 1556.81,1678.2 1567.98,1679.18 1579.16,1679.96 1590.33,1680.65 1601.51,1681.37 1612.68,1681.97 1623.86,1682.46 1635.03,1682.96 1646.21,1683.5 1657.38,1683.92 1668.56,1684.44 1679.73,1684.84 1690.91,1685.23 1702.08,1685.57 1713.26,1685.84 1724.43,1686.07 1735.61,1686.31 1746.78,1686.46 1757.95,1686.67 1769.13,1686.83 1780.3,1686.98 1791.48,1687.1 1802.65,1687.18 1813.83,1687.32 1825,1687.44 1836.18,1687.58 1847.35,1687.64 1858.53,1687.71 1869.7,1687.77 1880.88,1687.87 1892.05,1687.96 1903.23,1688.05 1914.4,1688.11 1925.57,1688.16 1936.75,1688.21 1947.92,1688.22 1959.1,1688.26 1970.27,1688.29 1981.45,1688.36 1992.62,1688.38 2003.8,1688.4 2014.97,1688.43 2026.15,1688.46 2037.32,1688.48 2048.5,1688.49 2059.67,1688.51 2070.85,1688.51 2082.02,1688.52 2093.2,1688.53 2104.37,1688.54 2115.54,1688.54 2126.72,1688.54 2137.89,1688.56 2149.07,1688.57 2160.24,1688.57 2171.42,1688.57 2182.59,1688.58 2193.77,1688.58 2204.94,1688.59 2216.12,1688.6 2227.29,1688.61 2238.47,1688.61 2249.64,1688.61 2260.82,1688.61 2271.99,1688.62 2283.17,1688.62 2294.34,1688.62 2305.51,1688.62 2316.69,1688.63 2327.86,1688.63 2339.04,1688.63 2350.21,1688.64 2361.39,1688.64 2372.56,1688.64 2383.74,1688.64 2394.91,1688.64 2406.09,1688.64 2417.26,1688.64 2428.44,1688.64 2439.61,1688.64 2450.79,1688.64 2461.96,1688.64 2473.14,1688.64 2484.31,1688.64 2495.48,1688.64 2506.66,1688.64 2517.83,1688.64 2529.01,1688.64 2540.18,1688.64 2551.36,1688.64 2562.53,1688.64 2573.71,1688.64 "/>
<polyline clip-path="url(#clip341)" style="stroke:#0000ff; stroke-linecap:round; stroke-linejoin:round; stroke-width:8; stroke-opacity:1; fill:none" points="338.767,1687.35 349.942,1687.51 361.117,1687.44 372.291,1687.32 383.466,1687.15 394.641,1686.85 405.815,1686.59 416.99,1686.12 428.165,1685.65 439.34,1685.16 450.514,1684.49 461.689,1683.68 472.864,1682.76 484.038,1681.59 495.213,1680.37 506.388,1678.72 517.562,1676.71 528.737,1674.45 539.912,1671.89 551.087,1668.51 562.261,1664.69 573.436,1660.63 584.611,1655.76 595.785,1649.46 606.96,1642.77 618.135,1635.01 629.309,1626.02 640.484,1615.98 651.659,1605.09 662.834,1592.66 674.008,1579.3 685.183,1564.2 696.358,1547.97 707.532,1530.61 718.707,1512.37 729.882,1492 741.057,1470.62 752.231,1449.69 763.406,1426.88 774.581,1404.13 785.755,1380.7 796.93,1357.57 808.105,1336.15 819.279,1313.65 830.454,1290.56 841.629,1269.33 852.804,1249.72 863.978,1230.69 875.153,1213.53 886.328,1197.89 897.502,1186.04 908.677,1174.89 919.852,1166.63 931.026,1160.53 942.201,1156 953.376,1154.65 964.551,1156.32 975.725,1158.28 986.9,1163.97 998.075,1171.2 1009.25,1179.4 1020.42,1189.88 1031.6,1200.83 1042.77,1213.52 1053.95,1228.03 1065.12,1243.61 1076.3,1260.36 1087.47,1276.97 1098.65,1294.4 1109.82,1311.78 1121,1329.74 1132.17,1347.35 1143.35,1363.36 1154.52,1380.4 1165.7,1397.2 1176.87,1412.67 1188.04,1428.01 1199.22,1443.86 1210.39,1458.19 1221.57,1472.89 1232.74,1486.78 1243.92,1499.89 1255.09,1512.64 1266.27,1524.5 1277.44,1535.92 1288.62,1546.61 1299.79,1556.92 1310.97,1566.67 1322.14,1575.56 1333.32,1583.61 1344.49,1591.57 1355.67,1599 1366.84,1605.93 1378.01,1612.54 1389.19,1618.03 1400.36,1623.69 1411.54,1628.89 1422.71,1633.85 1433.89,1638.23 1445.06,1642.23 1456.24,1646.11 1467.41,1649.95 1478.59,1653.21 1489.76,1656.15 1500.94,1658.89 1512.11,1661.46 1523.29,1663.83 1534.46,1665.95 1545.64,1667.96 1556.81,1669.91 1567.98,1671.65 1579.16,1673.15 1590.33,1674.43 1601.51,1675.53 1612.68,1676.8 1623.86,1677.8 1635.03,1678.7 1646.21,1679.46 1657.38,1680.19 1668.56,1680.87 1679.73,1681.61 1690.91,1682.25 1702.08,1682.87 1713.26,1683.37 1724.43,1683.93 1735.61,1684.33 1746.78,1684.7 1757.95,1685.06 1769.13,1685.45 1780.3,1685.78 1791.48,1686.06 1802.65,1686.24 1813.83,1686.49 1825,1686.7 1836.18,1686.88 1847.35,1687.08 1858.53,1687.21 1869.7,1687.33 1880.88,1687.45 1892.05,1687.54 1903.23,1687.65 1914.4,1687.75 1925.57,1687.85 1936.75,1687.93 1947.92,1688.01 1959.1,1688.08 1970.27,1688.15 1981.45,1688.21 1992.62,1688.26 2003.8,1688.28 2014.97,1688.3 2026.15,1688.31 2037.32,1688.34 2048.5,1688.36 2059.67,1688.39 2070.85,1688.42 2082.02,1688.45 2093.2,1688.46 2104.37,1688.49 2115.54,1688.51 2126.72,1688.52 2137.89,1688.53 2149.07,1688.54 2160.24,1688.54 2171.42,1688.55 2182.59,1688.55 2193.77,1688.55 2204.94,1688.55 2216.12,1688.56 2227.29,1688.56 2238.47,1688.58 2249.64,1688.58 2260.82,1688.59 2271.99,1688.61 2283.17,1688.61 2294.34,1688.62 2305.51,1688.62 2316.69,1688.62 2327.86,1688.63 2339.04,1688.63 2350.21,1688.63 2361.39,1688.63 2372.56,1688.63 2383.74,1688.63 2394.91,1688.64 2406.09,1688.64 2417.26,1688.64 2428.44,1688.64 2439.61,1688.64 2450.79,1688.65 2461.96,1688.65 2473.14,1688.65 2484.31,1688.65 2495.48,1688.65 2506.66,1688.65 2517.83,1688.65 2529.01,1688.65 2540.18,1688.65 2551.36,1688.65 2562.53,1688.65 2573.71,1688.65 "/>
<polyline clip-path="url(#clip341)" style="stroke:#ffa500; stroke-linecap:round; stroke-linejoin:round; stroke-width:8; stroke-opacity:1; fill:none" points="338.767,1687.35 349.942,1687.51 361.117,1687.44 372.291,1687.32 383.466,1687.15 394.641,1686.85 405.815,1686.59 416.99,1686.12 428.165,1685.65 439.34,1685.15 450.514,1684.46 461.689,1683.64 472.864,1682.74 484.038,1681.51 495.213,1680.21 506.388,1678.48 517.562,1676.53 528.737,1674.24 539.912,1671.57 551.087,1668.29 562.261,1664.66 573.436,1660.27 584.611,1654.79 595.785,1648.5 606.96,1640.5 618.135,1631.86 629.309,1621.25 640.484,1609.49 651.659,1595.04 662.834,1578.88 674.008,1560.71 685.183,1540.15 696.358,1515.77 707.532,1489.23 718.707,1459.07 729.882,1425.79 741.057,1389.45 752.231,1349.07 763.406,1305.56 774.581,1260.62 785.755,1214.04 796.93,1165.31 808.105,1115.95 819.279,1065.52 830.454,1015.55 841.629,964.467 852.804,915.932 863.978,867.906 875.153,824.024 886.328,781.986 897.502,745.628 908.677,713.724 919.852,686.09 931.026,664.188 942.201,650.612 953.376,641.019 964.551,634.679 975.725,635.994 986.9,644.43 998.075,655.978 1009.25,671.508 1020.42,690.256 1031.6,713.944 1042.77,741.169 1053.95,769.814 1065.12,801.844 1076.3,834.728 1087.47,871.306 1098.65,908.34 1109.82,945.426 1121,983.414 1132.17,1020.96 1143.35,1058.28 1154.52,1093.06 1165.7,1130.02 1176.87,1165.27 1188.04,1198.4 1199.22,1229.25 1210.39,1259.71 1221.57,1287.93 1232.74,1315.56 1243.92,1341.6 1255.09,1366.66 1266.27,1390.82 1277.44,1413.31 1288.62,1433.96 1299.79,1453.45 1310.97,1471.8 1322.14,1488.57 1333.32,1504.14 1344.49,1518.71 1355.67,1532.37 1366.84,1545.41 1378.01,1557.07 1389.19,1567.95 1400.36,1577.97 1411.54,1587.02 1422.71,1595.77 1433.89,1603.48 1445.06,1610.78 1456.24,1617.22 1467.41,1623.37 1478.59,1629.07 1489.76,1633.9 1500.94,1638.85 1512.11,1643.36 1523.29,1647.65 1534.46,1651.36 1545.64,1654.55 1556.81,1657.49 1567.98,1660.38 1579.16,1662.82 1590.33,1665.1 1601.51,1667.15 1612.68,1669.17 1623.86,1670.93 1635.03,1672.58 1646.21,1674.21 1657.38,1675.49 1668.56,1676.59 1679.73,1677.66 1690.91,1678.56 1702.08,1679.54 1713.26,1680.34 1724.43,1681.09 1735.61,1681.71 1746.78,1682.3 1757.95,1682.92 1769.13,1683.38 1780.3,1683.86 1791.48,1684.31 1802.65,1684.73 1813.83,1685.1 1825,1685.43 1836.18,1685.79 1847.35,1686.09 1858.53,1686.26 1869.7,1686.46 1880.88,1686.72 1892.05,1686.87 1903.23,1687.05 1914.4,1687.21 1925.57,1687.32 1936.75,1687.44 1947.92,1687.53 1959.1,1687.64 1970.27,1687.74 1981.45,1687.84 1992.62,1687.92 2003.8,1688.01 2014.97,1688.06 2026.15,1688.14 2037.32,1688.19 2048.5,1688.23 2059.67,1688.25 2070.85,1688.28 2082.02,1688.32 2093.2,1688.35 2104.37,1688.37 2115.54,1688.41 2126.72,1688.43 2137.89,1688.46 2149.07,1688.47 2160.24,1688.49 2171.42,1688.51 2182.59,1688.55 2193.77,1688.56 2204.94,1688.57 2216.12,1688.57 2227.29,1688.57 2238.47,1688.59 2249.64,1688.6 2260.82,1688.6 2271.99,1688.61 2283.17,1688.62 2294.34,1688.63 2305.51,1688.64 2316.69,1688.64 2327.86,1688.64 2339.04,1688.64 2350.21,1688.64 2361.39,1688.64 2372.56,1688.65 2383.74,1688.65 2394.91,1688.65 2406.09,1688.65 2417.26,1688.65 2428.44,1688.65 2439.61,1688.65 2450.79,1688.65 2461.96,1688.65 2473.14,1688.65 2484.31,1688.65 2495.48,1688.65 2506.66,1688.65 2517.83,1688.65 2529.01,1688.65 2540.18,1688.65 2551.36,1688.65 2562.53,1688.65 2573.71,1688.65 "/>
<polyline clip-path="url(#clip341)" style="stroke:#ff0000; stroke-linecap:round; stroke-linejoin:round; stroke-width:8; stroke-opacity:1; fill:none" points="338.767,1687.35 349.942,1687.51 361.117,1687.44 372.291,1687.32 383.466,1687.15 394.641,1686.85 405.815,1686.59 416.99,1686.12 428.165,1685.65 439.34,1685.15 450.514,1684.46 461.689,1683.64 472.864,1682.74 484.038,1681.51 495.213,1680.21 506.388,1678.48 517.562,1676.53 528.737,1674.28 539.912,1671.61 551.087,1668.28 562.261,1664.76 573.436,1660.32 584.611,1654.67 595.785,1648.2 606.96,1640.71 618.135,1631.43 629.309,1620.42 640.484,1607.77 651.659,1593.11 662.834,1575.69 674.008,1555.02 685.183,1531.39 696.358,1503.55 707.532,1472.26 718.707,1435.68 729.882,1395.03 741.057,1350.16 752.231,1298.95 763.406,1242.72 774.581,1182.63 785.755,1116.4 796.93,1046.26 808.105,973.621 819.279,895.765 830.454,816.248 841.629,738.497 852.804,658.571 863.978,583.021 875.153,510.997 886.328,441.404 897.502,378.711 908.677,320.881 919.852,273.971 931.026,236.313 942.201,207.92 953.376,187.93 964.551,174.957 975.725,173.254 986.9,181.129 998.075,197.262 1009.25,220.793 1020.42,252.383 1031.6,290.685 1042.77,332.66 1053.95,380.849 1065.12,431.815 1076.3,485.621 1087.47,541.188 1098.65,598.577 1109.82,654.967 1121,712.362 1132.17,769.233 1143.35,824.333 1154.52,877.563 1165.7,928.46 1176.87,979.578 1188.04,1027.42 1199.22,1074.23 1210.39,1117.74 1221.57,1158.54 1232.74,1197.02 1243.92,1233.4 1255.09,1268.37 1266.27,1301.62 1277.44,1331.74 1288.62,1361.37 1299.79,1387.98 1310.97,1412.59 1322.14,1435.3 1333.32,1456.07 1344.49,1475.81 1355.67,1493.37 1366.84,1509.99 1378.01,1525.27 1389.19,1539.05 1400.36,1552.24 1411.54,1564.02 1422.71,1574.52 1433.89,1584.73 1445.06,1593.6 1456.24,1601.72 1467.41,1609.71 1478.59,1616.39 1489.76,1623.16 1500.94,1628.77 1512.11,1634.37 1523.29,1639.17 1534.46,1643.65 1545.64,1647.72 1556.81,1651.73 1567.98,1655.08 1579.16,1658.35 1590.33,1661.13 1601.51,1663.54 1612.68,1665.87 1623.86,1667.87 1635.03,1669.8 1646.21,1671.52 1657.38,1673.14 1668.56,1674.56 1679.73,1675.84 1690.91,1676.93 1702.08,1678 1713.26,1678.96 1724.43,1679.8 1735.61,1680.52 1746.78,1681.28 1757.95,1681.91 1769.13,1682.55 1780.3,1683.07 1791.48,1683.6 1802.65,1684.09 1813.83,1684.53 1825,1684.96 1836.18,1685.24 1847.35,1685.49 1858.53,1685.83 1869.7,1686.08 1880.88,1686.31 1892.05,1686.59 1903.23,1686.77 1914.4,1686.95 1925.57,1687.12 1936.75,1687.28 1947.92,1687.38 1959.1,1687.49 1970.27,1687.6 1981.45,1687.71 1992.62,1687.77 2003.8,1687.84 2014.97,1687.94 2026.15,1687.99 2037.32,1688.07 2048.5,1688.15 2059.67,1688.2 2070.85,1688.23 2082.02,1688.29 2093.2,1688.35 2104.37,1688.37 2115.54,1688.39 2126.72,1688.41 2137.89,1688.43 2149.07,1688.46 2160.24,1688.47 2171.42,1688.47 2182.59,1688.5 2193.77,1688.52 2204.94,1688.53 2216.12,1688.56 2227.29,1688.57 2238.47,1688.58 2249.64,1688.58 2260.82,1688.58 2271.99,1688.59 2283.17,1688.59 2294.34,1688.6 2305.51,1688.6 2316.69,1688.61 2327.86,1688.63 2339.04,1688.63 2350.21,1688.63 2361.39,1688.63 2372.56,1688.63 2383.74,1688.63 2394.91,1688.64 2406.09,1688.64 2417.26,1688.64 2428.44,1688.64 2439.61,1688.64 2450.79,1688.64 2461.96,1688.65 2473.14,1688.65 2484.31,1688.65 2495.48,1688.65 2506.66,1688.65 2517.83,1688.65 2529.01,1688.65 2540.18,1688.65 2551.36,1688.65 2562.53,1688.65 2573.71,1688.65 "/>
<path clip-path="url(#clip340)" d="M1975.86 440.536 L2561.79 440.536 L2561.79 181.336 L1975.86 181.336  Z" fill="#ffffff" fill-rule="evenodd" fill-opacity="1"/>
<polyline clip-path="url(#clip340)" style="stroke:#000000; stroke-linecap:round; stroke-linejoin:round; stroke-width:4; stroke-opacity:1; fill:none" points="1975.86,440.536 2561.79,440.536 2561.79,181.336 1975.86,181.336 1975.86,440.536 "/>
<polyline clip-path="url(#clip340)" style="stroke:#008000; stroke-linecap:round; stroke-linejoin:round; stroke-width:8; stroke-opacity:1; fill:none" points="2002.18,233.176 2160.12,233.176 "/>
<path clip-path="url(#clip340)" d="M2193.85 217.169 L2193.85 224.531 L2202.62 224.531 L2202.62 227.841 L2193.85 227.841 L2193.85 241.915 Q2193.85 245.086 2194.7 245.989 Q2195.58 246.891 2198.24 246.891 L2202.62 246.891 L2202.62 250.456 L2198.24 250.456 Q2193.31 250.456 2191.44 248.628 Q2189.56 246.776 2189.56 241.915 L2189.56 227.841 L2186.44 227.841 L2186.44 224.531 L2189.56 224.531 L2189.56 217.169 L2193.85 217.169 Z" fill="#000000" fill-rule="nonzero" fill-opacity="1" /><path clip-path="url(#clip340)" d="M2229.77 234.808 L2229.77 250.456 L2225.51 250.456 L2225.51 234.947 Q2225.51 231.267 2224.08 229.438 Q2222.64 227.609 2219.77 227.609 Q2216.32 227.609 2214.33 229.808 Q2212.34 232.007 2212.34 235.804 L2212.34 250.456 L2208.06 250.456 L2208.06 214.438 L2212.34 214.438 L2212.34 228.558 Q2213.87 226.22 2215.93 225.063 Q2218.01 223.906 2220.72 223.906 Q2225.19 223.906 2227.48 226.683 Q2229.77 229.438 2229.77 234.808 Z" fill="#000000" fill-rule="nonzero" fill-opacity="1" /><path clip-path="url(#clip340)" d="M2253.29 228.512 Q2252.57 228.095 2251.72 227.91 Q2250.88 227.702 2249.87 227.702 Q2246.25 227.702 2244.31 230.063 Q2242.39 232.401 2242.39 236.799 L2242.39 250.456 L2238.11 250.456 L2238.11 224.531 L2242.39 224.531 L2242.39 228.558 Q2243.73 226.197 2245.88 225.063 Q2248.04 223.906 2251.12 223.906 Q2251.55 223.906 2252.09 223.975 Q2252.62 224.021 2253.27 224.137 L2253.29 228.512 Z" fill="#000000" fill-rule="nonzero" fill-opacity="1" /><path clip-path="url(#clip340)" d="M2278.89 236.429 L2278.89 238.512 L2259.31 238.512 Q2259.59 242.91 2261.95 245.225 Q2264.33 247.516 2268.57 247.516 Q2271.02 247.516 2273.31 246.915 Q2275.63 246.313 2277.9 245.109 L2277.9 249.137 Q2275.61 250.109 2273.2 250.618 Q2270.79 251.128 2268.31 251.128 Q2262.11 251.128 2258.48 247.516 Q2254.87 243.905 2254.87 237.748 Q2254.87 231.382 2258.29 227.655 Q2261.74 223.906 2267.57 223.906 Q2272.8 223.906 2275.84 227.285 Q2278.89 230.642 2278.89 236.429 M2274.63 235.179 Q2274.59 231.683 2272.67 229.6 Q2270.77 227.517 2267.62 227.517 Q2264.05 227.517 2261.9 229.53 Q2259.77 231.544 2259.45 235.202 L2274.63 235.179 Z" fill="#000000" fill-rule="nonzero" fill-opacity="1" /><path clip-path="url(#clip340)" d="M2302.41 225.294 L2302.41 229.322 Q2300.61 228.396 2298.66 227.933 Q2296.72 227.47 2294.63 227.47 Q2291.46 227.47 2289.86 228.443 Q2288.29 229.415 2288.29 231.359 Q2288.29 232.841 2289.43 233.697 Q2290.56 234.53 2293.99 235.294 L2295.44 235.618 Q2299.98 236.591 2301.88 238.373 Q2303.8 240.132 2303.8 243.304 Q2303.8 246.915 2300.93 249.021 Q2298.08 251.128 2293.08 251.128 Q2291 251.128 2288.73 250.711 Q2286.49 250.317 2283.99 249.507 L2283.99 245.109 Q2286.35 246.336 2288.64 246.961 Q2290.93 247.563 2293.18 247.563 Q2296.18 247.563 2297.8 246.544 Q2299.42 245.503 2299.42 243.628 Q2299.42 241.892 2298.24 240.966 Q2297.09 240.04 2293.13 239.183 L2291.65 238.836 Q2287.69 238.003 2285.93 236.29 Q2284.17 234.554 2284.17 231.544 Q2284.17 227.887 2286.76 225.896 Q2289.36 223.906 2294.12 223.906 Q2296.49 223.906 2298.57 224.253 Q2300.65 224.6 2302.41 225.294 Z" fill="#000000" fill-rule="nonzero" fill-opacity="1" /><path clip-path="url(#clip340)" d="M2332.13 234.808 L2332.13 250.456 L2327.87 250.456 L2327.87 234.947 Q2327.87 231.267 2326.44 229.438 Q2325 227.609 2322.13 227.609 Q2318.68 227.609 2316.69 229.808 Q2314.7 232.007 2314.7 235.804 L2314.7 250.456 L2310.42 250.456 L2310.42 214.438 L2314.7 214.438 L2314.7 228.558 Q2316.23 226.22 2318.29 225.063 Q2320.37 223.906 2323.08 223.906 Q2327.55 223.906 2329.84 226.683 Q2332.13 229.438 2332.13 234.808 Z" fill="#000000" fill-rule="nonzero" fill-opacity="1" /><path clip-path="url(#clip340)" d="M2350.67 227.517 Q2347.25 227.517 2345.26 230.202 Q2343.27 232.864 2343.27 237.517 Q2343.27 242.169 2345.23 244.854 Q2347.23 247.516 2350.67 247.516 Q2354.08 247.516 2356.07 244.831 Q2358.06 242.146 2358.06 237.517 Q2358.06 232.91 2356.07 230.225 Q2354.08 227.517 2350.67 227.517 M2350.67 223.906 Q2356.23 223.906 2359.4 227.517 Q2362.57 231.128 2362.57 237.517 Q2362.57 243.882 2359.4 247.516 Q2356.23 251.128 2350.67 251.128 Q2345.1 251.128 2341.92 247.516 Q2338.78 243.882 2338.78 237.517 Q2338.78 231.128 2341.92 227.517 Q2345.1 223.906 2350.67 223.906 Z" fill="#000000" fill-rule="nonzero" fill-opacity="1" /><path clip-path="url(#clip340)" d="M2369.63 214.438 L2373.89 214.438 L2373.89 250.456 L2369.63 250.456 L2369.63 214.438 Z" fill="#000000" fill-rule="nonzero" fill-opacity="1" /><path clip-path="url(#clip340)" d="M2399.86 228.466 L2399.86 214.438 L2404.12 214.438 L2404.12 250.456 L2399.86 250.456 L2399.86 246.567 Q2398.52 248.882 2396.46 250.016 Q2394.42 251.128 2391.55 251.128 Q2386.86 251.128 2383.89 247.378 Q2380.95 243.628 2380.95 237.517 Q2380.95 231.405 2383.89 227.655 Q2386.86 223.906 2391.55 223.906 Q2394.42 223.906 2396.46 225.04 Q2398.52 226.151 2399.86 228.466 M2385.35 237.517 Q2385.35 242.216 2387.27 244.901 Q2389.22 247.563 2392.6 247.563 Q2395.98 247.563 2397.92 244.901 Q2399.86 242.216 2399.86 237.517 Q2399.86 232.817 2397.92 230.155 Q2395.98 227.47 2392.6 227.47 Q2389.22 227.47 2387.27 230.155 Q2385.35 232.817 2385.35 237.517 Z" fill="#000000" fill-rule="nonzero" fill-opacity="1" /><path clip-path="url(#clip340)" d="M2428.52 228.929 L2458.2 228.929 L2458.2 232.817 L2428.52 232.817 L2428.52 228.929 M2428.52 238.373 L2458.2 238.373 L2458.2 242.308 L2428.52 242.308 L2428.52 238.373 Z" fill="#000000" fill-rule="nonzero" fill-opacity="1" /><path clip-path="url(#clip340)" d="M2487.39 246.521 L2503.71 246.521 L2503.71 250.456 L2481.76 250.456 L2481.76 246.521 Q2484.42 243.767 2489.01 239.137 Q2493.61 234.484 2494.79 233.142 Q2497.04 230.618 2497.92 228.882 Q2498.82 227.123 2498.82 225.433 Q2498.82 222.679 2496.88 220.943 Q2494.96 219.206 2491.85 219.206 Q2489.66 219.206 2487.2 219.97 Q2484.77 220.734 2481.99 222.285 L2481.99 217.563 Q2484.82 216.429 2487.27 215.85 Q2489.72 215.271 2491.76 215.271 Q2497.13 215.271 2500.33 217.956 Q2503.52 220.642 2503.52 225.132 Q2503.52 227.262 2502.71 229.183 Q2501.92 231.081 2499.82 233.674 Q2499.24 234.345 2496.14 237.563 Q2493.04 240.757 2487.39 246.521 Z" fill="#000000" fill-rule="nonzero" fill-opacity="1" /><polyline clip-path="url(#clip340)" style="stroke:#0000ff; stroke-linecap:round; stroke-linejoin:round; stroke-width:8; stroke-opacity:1; fill:none" points="2002.18,285.016 2160.12,285.016 "/>
<path clip-path="url(#clip340)" d="M2193.85 269.009 L2193.85 276.371 L2202.62 276.371 L2202.62 279.681 L2193.85 279.681 L2193.85 293.755 Q2193.85 296.926 2194.7 297.829 Q2195.58 298.731 2198.24 298.731 L2202.62 298.731 L2202.62 302.296 L2198.24 302.296 Q2193.31 302.296 2191.44 300.468 Q2189.56 298.616 2189.56 293.755 L2189.56 279.681 L2186.44 279.681 L2186.44 276.371 L2189.56 276.371 L2189.56 269.009 L2193.85 269.009 Z" fill="#000000" fill-rule="nonzero" fill-opacity="1" /><path clip-path="url(#clip340)" d="M2229.77 286.648 L2229.77 302.296 L2225.51 302.296 L2225.51 286.787 Q2225.51 283.107 2224.08 281.278 Q2222.64 279.449 2219.77 279.449 Q2216.32 279.449 2214.33 281.648 Q2212.34 283.847 2212.34 287.644 L2212.34 302.296 L2208.06 302.296 L2208.06 266.278 L2212.34 266.278 L2212.34 280.398 Q2213.87 278.06 2215.93 276.903 Q2218.01 275.746 2220.72 275.746 Q2225.19 275.746 2227.48 278.523 Q2229.77 281.278 2229.77 286.648 Z" fill="#000000" fill-rule="nonzero" fill-opacity="1" /><path clip-path="url(#clip340)" d="M2253.29 280.352 Q2252.57 279.935 2251.72 279.75 Q2250.88 279.542 2249.87 279.542 Q2246.25 279.542 2244.31 281.903 Q2242.39 284.241 2242.39 288.639 L2242.39 302.296 L2238.11 302.296 L2238.11 276.371 L2242.39 276.371 L2242.39 280.398 Q2243.73 278.037 2245.88 276.903 Q2248.04 275.746 2251.12 275.746 Q2251.55 275.746 2252.09 275.815 Q2252.62 275.861 2253.27 275.977 L2253.29 280.352 Z" fill="#000000" fill-rule="nonzero" fill-opacity="1" /><path clip-path="url(#clip340)" d="M2278.89 288.269 L2278.89 290.352 L2259.31 290.352 Q2259.59 294.75 2261.95 297.065 Q2264.33 299.356 2268.57 299.356 Q2271.02 299.356 2273.31 298.755 Q2275.63 298.153 2277.9 296.949 L2277.9 300.977 Q2275.61 301.949 2273.2 302.458 Q2270.79 302.968 2268.31 302.968 Q2262.11 302.968 2258.48 299.356 Q2254.87 295.745 2254.87 289.588 Q2254.87 283.222 2258.29 279.495 Q2261.74 275.746 2267.57 275.746 Q2272.8 275.746 2275.84 279.125 Q2278.89 282.482 2278.89 288.269 M2274.63 287.019 Q2274.59 283.523 2272.67 281.44 Q2270.77 279.357 2267.62 279.357 Q2264.05 279.357 2261.9 281.37 Q2259.77 283.384 2259.45 287.042 L2274.63 287.019 Z" fill="#000000" fill-rule="nonzero" fill-opacity="1" /><path clip-path="url(#clip340)" d="M2302.41 277.134 L2302.41 281.162 Q2300.61 280.236 2298.66 279.773 Q2296.72 279.31 2294.63 279.31 Q2291.46 279.31 2289.86 280.283 Q2288.29 281.255 2288.29 283.199 Q2288.29 284.681 2289.43 285.537 Q2290.56 286.37 2293.99 287.134 L2295.44 287.458 Q2299.98 288.431 2301.88 290.213 Q2303.8 291.972 2303.8 295.144 Q2303.8 298.755 2300.93 300.861 Q2298.08 302.968 2293.08 302.968 Q2291 302.968 2288.73 302.551 Q2286.49 302.157 2283.99 301.347 L2283.99 296.949 Q2286.35 298.176 2288.64 298.801 Q2290.93 299.403 2293.18 299.403 Q2296.18 299.403 2297.8 298.384 Q2299.42 297.343 2299.42 295.468 Q2299.42 293.732 2298.24 292.806 Q2297.09 291.88 2293.13 291.023 L2291.65 290.676 Q2287.69 289.843 2285.93 288.13 Q2284.17 286.394 2284.17 283.384 Q2284.17 279.727 2286.76 277.736 Q2289.36 275.746 2294.12 275.746 Q2296.49 275.746 2298.57 276.093 Q2300.65 276.44 2302.41 277.134 Z" fill="#000000" fill-rule="nonzero" fill-opacity="1" /><path clip-path="url(#clip340)" d="M2332.13 286.648 L2332.13 302.296 L2327.87 302.296 L2327.87 286.787 Q2327.87 283.107 2326.44 281.278 Q2325 279.449 2322.13 279.449 Q2318.68 279.449 2316.69 281.648 Q2314.7 283.847 2314.7 287.644 L2314.7 302.296 L2310.42 302.296 L2310.42 266.278 L2314.7 266.278 L2314.7 280.398 Q2316.23 278.06 2318.29 276.903 Q2320.37 275.746 2323.08 275.746 Q2327.55 275.746 2329.84 278.523 Q2332.13 281.278 2332.13 286.648 Z" fill="#000000" fill-rule="nonzero" fill-opacity="1" /><path clip-path="url(#clip340)" d="M2350.67 279.357 Q2347.25 279.357 2345.26 282.042 Q2343.27 284.704 2343.27 289.357 Q2343.27 294.009 2345.23 296.694 Q2347.23 299.356 2350.67 299.356 Q2354.08 299.356 2356.07 296.671 Q2358.06 293.986 2358.06 289.357 Q2358.06 284.75 2356.07 282.065 Q2354.08 279.357 2350.67 279.357 M2350.67 275.746 Q2356.23 275.746 2359.4 279.357 Q2362.57 282.968 2362.57 289.357 Q2362.57 295.722 2359.4 299.356 Q2356.23 302.968 2350.67 302.968 Q2345.1 302.968 2341.92 299.356 Q2338.78 295.722 2338.78 289.357 Q2338.78 282.968 2341.92 279.357 Q2345.1 275.746 2350.67 275.746 Z" fill="#000000" fill-rule="nonzero" fill-opacity="1" /><path clip-path="url(#clip340)" d="M2369.63 266.278 L2373.89 266.278 L2373.89 302.296 L2369.63 302.296 L2369.63 266.278 Z" fill="#000000" fill-rule="nonzero" fill-opacity="1" /><path clip-path="url(#clip340)" d="M2399.86 280.306 L2399.86 266.278 L2404.12 266.278 L2404.12 302.296 L2399.86 302.296 L2399.86 298.407 Q2398.52 300.722 2396.46 301.856 Q2394.42 302.968 2391.55 302.968 Q2386.86 302.968 2383.89 299.218 Q2380.95 295.468 2380.95 289.357 Q2380.95 283.245 2383.89 279.495 Q2386.86 275.746 2391.55 275.746 Q2394.42 275.746 2396.46 276.88 Q2398.52 277.991 2399.86 280.306 M2385.35 289.357 Q2385.35 294.056 2387.27 296.741 Q2389.22 299.403 2392.6 299.403 Q2395.98 299.403 2397.92 296.741 Q2399.86 294.056 2399.86 289.357 Q2399.86 284.657 2397.92 281.995 Q2395.98 279.31 2392.6 279.31 Q2389.22 279.31 2387.27 281.995 Q2385.35 284.657 2385.35 289.357 Z" fill="#000000" fill-rule="nonzero" fill-opacity="1" /><path clip-path="url(#clip340)" d="M2428.52 280.769 L2458.2 280.769 L2458.2 284.657 L2428.52 284.657 L2428.52 280.769 M2428.52 290.213 L2458.2 290.213 L2458.2 294.148 L2428.52 294.148 L2428.52 290.213 Z" fill="#000000" fill-rule="nonzero" fill-opacity="1" /><path clip-path="url(#clip340)" d="M2483.41 267.736 L2501.76 267.736 L2501.76 271.671 L2487.69 271.671 L2487.69 280.144 Q2488.71 279.796 2489.72 279.634 Q2490.74 279.449 2491.76 279.449 Q2497.55 279.449 2500.93 282.62 Q2504.31 285.792 2504.31 291.208 Q2504.31 296.787 2500.84 299.889 Q2497.36 302.968 2491.04 302.968 Q2488.87 302.968 2486.6 302.597 Q2484.35 302.227 2481.95 301.486 L2481.95 296.787 Q2484.03 297.921 2486.25 298.477 Q2488.47 299.032 2490.95 299.032 Q2494.96 299.032 2497.29 296.926 Q2499.63 294.819 2499.63 291.208 Q2499.63 287.597 2497.29 285.491 Q2494.96 283.384 2490.95 283.384 Q2489.08 283.384 2487.2 283.801 Q2485.35 284.218 2483.41 285.097 L2483.41 267.736 Z" fill="#000000" fill-rule="nonzero" fill-opacity="1" /><polyline clip-path="url(#clip340)" style="stroke:#ffa500; stroke-linecap:round; stroke-linejoin:round; stroke-width:8; stroke-opacity:1; fill:none" points="2002.18,336.856 2160.12,336.856 "/>
<path clip-path="url(#clip340)" d="M2193.85 320.849 L2193.85 328.211 L2202.62 328.211 L2202.62 331.521 L2193.85 331.521 L2193.85 345.595 Q2193.85 348.766 2194.7 349.669 Q2195.58 350.571 2198.24 350.571 L2202.62 350.571 L2202.62 354.136 L2198.24 354.136 Q2193.31 354.136 2191.44 352.308 Q2189.56 350.456 2189.56 345.595 L2189.56 331.521 L2186.44 331.521 L2186.44 328.211 L2189.56 328.211 L2189.56 320.849 L2193.85 320.849 Z" fill="#000000" fill-rule="nonzero" fill-opacity="1" /><path clip-path="url(#clip340)" d="M2229.77 338.488 L2229.77 354.136 L2225.51 354.136 L2225.51 338.627 Q2225.51 334.947 2224.08 333.118 Q2222.64 331.289 2219.77 331.289 Q2216.32 331.289 2214.33 333.488 Q2212.34 335.687 2212.34 339.484 L2212.34 354.136 L2208.06 354.136 L2208.06 318.118 L2212.34 318.118 L2212.34 332.238 Q2213.87 329.9 2215.93 328.743 Q2218.01 327.586 2220.72 327.586 Q2225.19 327.586 2227.48 330.363 Q2229.77 333.118 2229.77 338.488 Z" fill="#000000" fill-rule="nonzero" fill-opacity="1" /><path clip-path="url(#clip340)" d="M2253.29 332.192 Q2252.57 331.775 2251.72 331.59 Q2250.88 331.382 2249.87 331.382 Q2246.25 331.382 2244.31 333.743 Q2242.39 336.081 2242.39 340.479 L2242.39 354.136 L2238.11 354.136 L2238.11 328.211 L2242.39 328.211 L2242.39 332.238 Q2243.73 329.877 2245.88 328.743 Q2248.04 327.586 2251.12 327.586 Q2251.55 327.586 2252.09 327.655 Q2252.62 327.701 2253.27 327.817 L2253.29 332.192 Z" fill="#000000" fill-rule="nonzero" fill-opacity="1" /><path clip-path="url(#clip340)" d="M2278.89 340.109 L2278.89 342.192 L2259.31 342.192 Q2259.59 346.59 2261.95 348.905 Q2264.33 351.196 2268.57 351.196 Q2271.02 351.196 2273.31 350.595 Q2275.63 349.993 2277.9 348.789 L2277.9 352.817 Q2275.61 353.789 2273.2 354.298 Q2270.79 354.808 2268.31 354.808 Q2262.11 354.808 2258.48 351.196 Q2254.87 347.585 2254.87 341.428 Q2254.87 335.062 2258.29 331.335 Q2261.74 327.586 2267.57 327.586 Q2272.8 327.586 2275.84 330.965 Q2278.89 334.322 2278.89 340.109 M2274.63 338.859 Q2274.59 335.363 2272.67 333.28 Q2270.77 331.197 2267.62 331.197 Q2264.05 331.197 2261.9 333.21 Q2259.77 335.224 2259.45 338.882 L2274.63 338.859 Z" fill="#000000" fill-rule="nonzero" fill-opacity="1" /><path clip-path="url(#clip340)" d="M2302.41 328.974 L2302.41 333.002 Q2300.61 332.076 2298.66 331.613 Q2296.72 331.15 2294.63 331.15 Q2291.46 331.15 2289.86 332.123 Q2288.29 333.095 2288.29 335.039 Q2288.29 336.521 2289.43 337.377 Q2290.56 338.21 2293.99 338.974 L2295.44 339.298 Q2299.98 340.271 2301.88 342.053 Q2303.8 343.812 2303.8 346.984 Q2303.8 350.595 2300.93 352.701 Q2298.08 354.808 2293.08 354.808 Q2291 354.808 2288.73 354.391 Q2286.49 353.997 2283.99 353.187 L2283.99 348.789 Q2286.35 350.016 2288.64 350.641 Q2290.93 351.243 2293.18 351.243 Q2296.18 351.243 2297.8 350.224 Q2299.42 349.183 2299.42 347.308 Q2299.42 345.572 2298.24 344.646 Q2297.09 343.72 2293.13 342.863 L2291.65 342.516 Q2287.69 341.683 2285.93 339.97 Q2284.17 338.234 2284.17 335.224 Q2284.17 331.567 2286.76 329.576 Q2289.36 327.586 2294.12 327.586 Q2296.49 327.586 2298.57 327.933 Q2300.65 328.28 2302.41 328.974 Z" fill="#000000" fill-rule="nonzero" fill-opacity="1" /><path clip-path="url(#clip340)" d="M2332.13 338.488 L2332.13 354.136 L2327.87 354.136 L2327.87 338.627 Q2327.87 334.947 2326.44 333.118 Q2325 331.289 2322.13 331.289 Q2318.68 331.289 2316.69 333.488 Q2314.7 335.687 2314.7 339.484 L2314.7 354.136 L2310.42 354.136 L2310.42 318.118 L2314.7 318.118 L2314.7 332.238 Q2316.23 329.9 2318.29 328.743 Q2320.37 327.586 2323.08 327.586 Q2327.55 327.586 2329.84 330.363 Q2332.13 333.118 2332.13 338.488 Z" fill="#000000" fill-rule="nonzero" fill-opacity="1" /><path clip-path="url(#clip340)" d="M2350.67 331.197 Q2347.25 331.197 2345.26 333.882 Q2343.27 336.544 2343.27 341.197 Q2343.27 345.849 2345.23 348.534 Q2347.23 351.196 2350.67 351.196 Q2354.08 351.196 2356.07 348.511 Q2358.06 345.826 2358.06 341.197 Q2358.06 336.59 2356.07 333.905 Q2354.08 331.197 2350.67 331.197 M2350.67 327.586 Q2356.23 327.586 2359.4 331.197 Q2362.57 334.808 2362.57 341.197 Q2362.57 347.562 2359.4 351.196 Q2356.23 354.808 2350.67 354.808 Q2345.1 354.808 2341.92 351.196 Q2338.78 347.562 2338.78 341.197 Q2338.78 334.808 2341.92 331.197 Q2345.1 327.586 2350.67 327.586 Z" fill="#000000" fill-rule="nonzero" fill-opacity="1" /><path clip-path="url(#clip340)" d="M2369.63 318.118 L2373.89 318.118 L2373.89 354.136 L2369.63 354.136 L2369.63 318.118 Z" fill="#000000" fill-rule="nonzero" fill-opacity="1" /><path clip-path="url(#clip340)" d="M2399.86 332.146 L2399.86 318.118 L2404.12 318.118 L2404.12 354.136 L2399.86 354.136 L2399.86 350.247 Q2398.52 352.562 2396.46 353.696 Q2394.42 354.808 2391.55 354.808 Q2386.86 354.808 2383.89 351.058 Q2380.95 347.308 2380.95 341.197 Q2380.95 335.085 2383.89 331.335 Q2386.86 327.586 2391.55 327.586 Q2394.42 327.586 2396.46 328.72 Q2398.52 329.831 2399.86 332.146 M2385.35 341.197 Q2385.35 345.896 2387.27 348.581 Q2389.22 351.243 2392.6 351.243 Q2395.98 351.243 2397.92 348.581 Q2399.86 345.896 2399.86 341.197 Q2399.86 336.497 2397.92 333.835 Q2395.98 331.15 2392.6 331.15 Q2389.22 331.15 2387.27 333.835 Q2385.35 336.497 2385.35 341.197 Z" fill="#000000" fill-rule="nonzero" fill-opacity="1" /><path clip-path="url(#clip340)" d="M2428.52 332.609 L2458.2 332.609 L2458.2 336.497 L2428.52 336.497 L2428.52 332.609 M2428.52 342.053 L2458.2 342.053 L2458.2 345.988 L2428.52 345.988 L2428.52 342.053 Z" fill="#000000" fill-rule="nonzero" fill-opacity="1" /><path clip-path="url(#clip340)" d="M2484.17 350.201 L2491.81 350.201 L2491.81 323.836 L2483.5 325.502 L2483.5 321.243 L2491.76 319.576 L2496.44 319.576 L2496.44 350.201 L2504.08 350.201 L2504.08 354.136 L2484.17 354.136 L2484.17 350.201 Z" fill="#000000" fill-rule="nonzero" fill-opacity="1" /><path clip-path="url(#clip340)" d="M2513.57 319.576 L2531.92 319.576 L2531.92 323.511 L2517.85 323.511 L2517.85 331.984 Q2518.87 331.636 2519.89 331.474 Q2520.91 331.289 2521.92 331.289 Q2527.71 331.289 2531.09 334.46 Q2534.47 337.632 2534.47 343.048 Q2534.47 348.627 2531 351.729 Q2527.53 354.808 2521.21 354.808 Q2519.03 354.808 2516.76 354.437 Q2514.52 354.067 2512.11 353.326 L2512.11 348.627 Q2514.19 349.761 2516.41 350.317 Q2518.64 350.872 2521.11 350.872 Q2525.12 350.872 2527.46 348.766 Q2529.79 346.659 2529.79 343.048 Q2529.79 339.437 2527.46 337.331 Q2525.12 335.224 2521.11 335.224 Q2519.24 335.224 2517.36 335.641 Q2515.51 336.058 2513.57 336.937 L2513.57 319.576 Z" fill="#000000" fill-rule="nonzero" fill-opacity="1" /><polyline clip-path="url(#clip340)" style="stroke:#ff0000; stroke-linecap:round; stroke-linejoin:round; stroke-width:8; stroke-opacity:1; fill:none" points="2002.18,388.696 2160.12,388.696 "/>
<path clip-path="url(#clip340)" d="M2193.85 372.689 L2193.85 380.051 L2202.62 380.051 L2202.62 383.361 L2193.85 383.361 L2193.85 397.435 Q2193.85 400.606 2194.7 401.509 Q2195.58 402.411 2198.24 402.411 L2202.62 402.411 L2202.62 405.976 L2198.24 405.976 Q2193.31 405.976 2191.44 404.148 Q2189.56 402.296 2189.56 397.435 L2189.56 383.361 L2186.44 383.361 L2186.44 380.051 L2189.56 380.051 L2189.56 372.689 L2193.85 372.689 Z" fill="#000000" fill-rule="nonzero" fill-opacity="1" /><path clip-path="url(#clip340)" d="M2229.77 390.328 L2229.77 405.976 L2225.51 405.976 L2225.51 390.467 Q2225.51 386.787 2224.08 384.958 Q2222.64 383.129 2219.77 383.129 Q2216.32 383.129 2214.33 385.328 Q2212.34 387.527 2212.34 391.324 L2212.34 405.976 L2208.06 405.976 L2208.06 369.958 L2212.34 369.958 L2212.34 384.078 Q2213.87 381.74 2215.93 380.583 Q2218.01 379.426 2220.72 379.426 Q2225.19 379.426 2227.48 382.203 Q2229.77 384.958 2229.77 390.328 Z" fill="#000000" fill-rule="nonzero" fill-opacity="1" /><path clip-path="url(#clip340)" d="M2253.29 384.032 Q2252.57 383.615 2251.72 383.43 Q2250.88 383.222 2249.87 383.222 Q2246.25 383.222 2244.31 385.583 Q2242.39 387.921 2242.39 392.319 L2242.39 405.976 L2238.11 405.976 L2238.11 380.051 L2242.39 380.051 L2242.39 384.078 Q2243.73 381.717 2245.88 380.583 Q2248.04 379.426 2251.12 379.426 Q2251.55 379.426 2252.09 379.495 Q2252.62 379.541 2253.27 379.657 L2253.29 384.032 Z" fill="#000000" fill-rule="nonzero" fill-opacity="1" /><path clip-path="url(#clip340)" d="M2278.89 391.949 L2278.89 394.032 L2259.31 394.032 Q2259.59 398.43 2261.95 400.745 Q2264.33 403.036 2268.57 403.036 Q2271.02 403.036 2273.31 402.435 Q2275.63 401.833 2277.9 400.629 L2277.9 404.657 Q2275.61 405.629 2273.2 406.138 Q2270.79 406.648 2268.31 406.648 Q2262.11 406.648 2258.48 403.036 Q2254.87 399.425 2254.87 393.268 Q2254.87 386.902 2258.29 383.175 Q2261.74 379.426 2267.57 379.426 Q2272.8 379.426 2275.84 382.805 Q2278.89 386.162 2278.89 391.949 M2274.63 390.699 Q2274.59 387.203 2272.67 385.12 Q2270.77 383.037 2267.62 383.037 Q2264.05 383.037 2261.9 385.05 Q2259.77 387.064 2259.45 390.722 L2274.63 390.699 Z" fill="#000000" fill-rule="nonzero" fill-opacity="1" /><path clip-path="url(#clip340)" d="M2302.41 380.814 L2302.41 384.842 Q2300.61 383.916 2298.66 383.453 Q2296.72 382.99 2294.63 382.99 Q2291.46 382.99 2289.86 383.963 Q2288.29 384.935 2288.29 386.879 Q2288.29 388.361 2289.43 389.217 Q2290.56 390.05 2293.99 390.814 L2295.44 391.138 Q2299.98 392.111 2301.88 393.893 Q2303.8 395.652 2303.8 398.824 Q2303.8 402.435 2300.93 404.541 Q2298.08 406.648 2293.08 406.648 Q2291 406.648 2288.73 406.231 Q2286.49 405.837 2283.99 405.027 L2283.99 400.629 Q2286.35 401.856 2288.64 402.481 Q2290.93 403.083 2293.18 403.083 Q2296.18 403.083 2297.8 402.064 Q2299.42 401.023 2299.42 399.148 Q2299.42 397.412 2298.24 396.486 Q2297.09 395.56 2293.13 394.703 L2291.65 394.356 Q2287.69 393.523 2285.93 391.81 Q2284.17 390.074 2284.17 387.064 Q2284.17 383.407 2286.76 381.416 Q2289.36 379.426 2294.12 379.426 Q2296.49 379.426 2298.57 379.773 Q2300.65 380.12 2302.41 380.814 Z" fill="#000000" fill-rule="nonzero" fill-opacity="1" /><path clip-path="url(#clip340)" d="M2332.13 390.328 L2332.13 405.976 L2327.87 405.976 L2327.87 390.467 Q2327.87 386.787 2326.44 384.958 Q2325 383.129 2322.13 383.129 Q2318.68 383.129 2316.69 385.328 Q2314.7 387.527 2314.7 391.324 L2314.7 405.976 L2310.42 405.976 L2310.42 369.958 L2314.7 369.958 L2314.7 384.078 Q2316.23 381.74 2318.29 380.583 Q2320.37 379.426 2323.08 379.426 Q2327.55 379.426 2329.84 382.203 Q2332.13 384.958 2332.13 390.328 Z" fill="#000000" fill-rule="nonzero" fill-opacity="1" /><path clip-path="url(#clip340)" d="M2350.67 383.037 Q2347.25 383.037 2345.26 385.722 Q2343.27 388.384 2343.27 393.037 Q2343.27 397.689 2345.23 400.374 Q2347.23 403.036 2350.67 403.036 Q2354.08 403.036 2356.07 400.351 Q2358.06 397.666 2358.06 393.037 Q2358.06 388.43 2356.07 385.745 Q2354.08 383.037 2350.67 383.037 M2350.67 379.426 Q2356.23 379.426 2359.4 383.037 Q2362.57 386.648 2362.57 393.037 Q2362.57 399.402 2359.4 403.036 Q2356.23 406.648 2350.67 406.648 Q2345.1 406.648 2341.92 403.036 Q2338.78 399.402 2338.78 393.037 Q2338.78 386.648 2341.92 383.037 Q2345.1 379.426 2350.67 379.426 Z" fill="#000000" fill-rule="nonzero" fill-opacity="1" /><path clip-path="url(#clip340)" d="M2369.63 369.958 L2373.89 369.958 L2373.89 405.976 L2369.63 405.976 L2369.63 369.958 Z" fill="#000000" fill-rule="nonzero" fill-opacity="1" /><path clip-path="url(#clip340)" d="M2399.86 383.986 L2399.86 369.958 L2404.12 369.958 L2404.12 405.976 L2399.86 405.976 L2399.86 402.087 Q2398.52 404.402 2396.46 405.536 Q2394.42 406.648 2391.55 406.648 Q2386.86 406.648 2383.89 402.898 Q2380.95 399.148 2380.95 393.037 Q2380.95 386.925 2383.89 383.175 Q2386.86 379.426 2391.55 379.426 Q2394.42 379.426 2396.46 380.56 Q2398.52 381.671 2399.86 383.986 M2385.35 393.037 Q2385.35 397.736 2387.27 400.421 Q2389.22 403.083 2392.6 403.083 Q2395.98 403.083 2397.92 400.421 Q2399.86 397.736 2399.86 393.037 Q2399.86 388.337 2397.92 385.675 Q2395.98 382.99 2392.6 382.99 Q2389.22 382.99 2387.27 385.675 Q2385.35 388.337 2385.35 393.037 Z" fill="#000000" fill-rule="nonzero" fill-opacity="1" /><path clip-path="url(#clip340)" d="M2428.52 384.449 L2458.2 384.449 L2458.2 388.337 L2428.52 388.337 L2428.52 384.449 M2428.52 393.893 L2458.2 393.893 L2458.2 397.828 L2428.52 397.828 L2428.52 393.893 Z" fill="#000000" fill-rule="nonzero" fill-opacity="1" /><path clip-path="url(#clip340)" d="M2497.53 387.342 Q2500.88 388.06 2502.76 390.328 Q2504.66 392.597 2504.66 395.93 Q2504.66 401.046 2501.14 403.847 Q2497.62 406.648 2491.14 406.648 Q2488.96 406.648 2486.65 406.208 Q2484.35 405.791 2481.9 404.935 L2481.9 400.421 Q2483.85 401.555 2486.16 402.134 Q2488.47 402.712 2491 402.712 Q2495.4 402.712 2497.69 400.976 Q2500 399.24 2500 395.93 Q2500 392.875 2497.85 391.162 Q2495.72 389.425 2491.9 389.425 L2487.87 389.425 L2487.87 385.583 L2492.09 385.583 Q2495.54 385.583 2497.36 384.217 Q2499.19 382.828 2499.19 380.236 Q2499.19 377.574 2497.29 376.162 Q2495.42 374.726 2491.9 374.726 Q2489.98 374.726 2487.78 375.143 Q2485.58 375.56 2482.94 376.439 L2482.94 372.273 Q2485.6 371.532 2487.92 371.162 Q2490.26 370.791 2492.32 370.791 Q2497.64 370.791 2500.74 373.222 Q2503.85 375.629 2503.85 379.75 Q2503.85 382.62 2502.2 384.611 Q2500.56 386.578 2497.53 387.342 Z" fill="#000000" fill-rule="nonzero" fill-opacity="1" /><path clip-path="url(#clip340)" d="M2523.52 374.495 Q2519.91 374.495 2518.08 378.06 Q2516.28 381.601 2516.28 388.731 Q2516.28 395.837 2518.08 399.402 Q2519.91 402.944 2523.52 402.944 Q2527.16 402.944 2528.96 399.402 Q2530.79 395.837 2530.79 388.731 Q2530.79 381.601 2528.96 378.06 Q2527.16 374.495 2523.52 374.495 M2523.52 370.791 Q2529.33 370.791 2532.39 375.398 Q2535.47 379.981 2535.47 388.731 Q2535.47 397.458 2532.39 402.064 Q2529.33 406.648 2523.52 406.648 Q2517.71 406.648 2514.63 402.064 Q2511.58 397.458 2511.58 388.731 Q2511.58 379.981 2514.63 375.398 Q2517.71 370.791 2523.52 370.791 Z" fill="#000000" fill-rule="nonzero" fill-opacity="1" /></svg>
