<?xml version="1.0" encoding="utf-8"?>
<svg xmlns="http://www.w3.org/2000/svg" xmlns:xlink="http://www.w3.org/1999/xlink" width="672" height="480" viewBox="0 0 2688 1920">
<defs>
  <clipPath id="clip050">
    <rect x="0" y="0" width="2688" height="1920"/>
  </clipPath>
</defs>
<path clip-path="url(#clip050)" d="M0 1920 L2688 1920 L2688 -4.26326e-14 L0 -4.26326e-14  Z" fill="#ffffff" fill-rule="evenodd" fill-opacity="1"/>
<defs>
  <clipPath id="clip051">
    <rect x="308" y="127" width="2333" height="1607"/>
  </clipPath>
</defs>
<path clip-path="url(#clip050)" d="M308.733 1734.12 L2640.76 1734.12 L2640.76 127.792 L308.733 127.792  Z" fill="#ffffff" fill-rule="evenodd" fill-opacity="1"/>
<polyline clip-path="url(#clip051)" style="stroke:#000000; stroke-linecap:round; stroke-linejoin:round; stroke-width:2; stroke-opacity:0.1; fill:none" points="624.736,1734.12 624.736,127.792 "/>
<polyline clip-path="url(#clip051)" style="stroke:#000000; stroke-linecap:round; stroke-linejoin:round; stroke-width:2; stroke-opacity:0.1; fill:none" points="1124.74,1734.12 1124.74,127.792 "/>
<polyline clip-path="url(#clip051)" style="stroke:#000000; stroke-linecap:round; stroke-linejoin:round; stroke-width:2; stroke-opacity:0.1; fill:none" points="1624.75,1734.12 1624.75,127.792 "/>
<polyline clip-path="url(#clip051)" style="stroke:#000000; stroke-linecap:round; stroke-linejoin:round; stroke-width:2; stroke-opacity:0.1; fill:none" points="2124.75,1734.12 2124.75,127.792 "/>
<polyline clip-path="url(#clip051)" style="stroke:#000000; stroke-linecap:round; stroke-linejoin:round; stroke-width:2; stroke-opacity:0.1; fill:none" points="2624.76,1734.12 2624.76,127.792 "/>
<polyline clip-path="url(#clip051)" style="stroke:#000000; stroke-linecap:round; stroke-linejoin:round; stroke-width:2; stroke-opacity:0.1; fill:none" points="308.733,1642.68 2640.76,1642.68 "/>
<polyline clip-path="url(#clip051)" style="stroke:#000000; stroke-linecap:round; stroke-linejoin:round; stroke-width:2; stroke-opacity:0.1; fill:none" points="308.733,1366.79 2640.76,1366.79 "/>
<polyline clip-path="url(#clip051)" style="stroke:#000000; stroke-linecap:round; stroke-linejoin:round; stroke-width:2; stroke-opacity:0.1; fill:none" points="308.733,1090.9 2640.76,1090.9 "/>
<polyline clip-path="url(#clip051)" style="stroke:#000000; stroke-linecap:round; stroke-linejoin:round; stroke-width:2; stroke-opacity:0.1; fill:none" points="308.733,815.011 2640.76,815.011 "/>
<polyline clip-path="url(#clip051)" style="stroke:#000000; stroke-linecap:round; stroke-linejoin:round; stroke-width:2; stroke-opacity:0.1; fill:none" points="308.733,539.12 2640.76,539.12 "/>
<polyline clip-path="url(#clip051)" style="stroke:#000000; stroke-linecap:round; stroke-linejoin:round; stroke-width:2; stroke-opacity:0.1; fill:none" points="308.733,263.229 2640.76,263.229 "/>
<polyline clip-path="url(#clip050)" style="stroke:#000000; stroke-linecap:round; stroke-linejoin:round; stroke-width:4; stroke-opacity:1; fill:none" points="308.733,1734.12 2640.76,1734.12 "/>
<polyline clip-path="url(#clip050)" style="stroke:#000000; stroke-linecap:round; stroke-linejoin:round; stroke-width:4; stroke-opacity:1; fill:none" points="624.736,1734.12 624.736,1715.22 "/>
<polyline clip-path="url(#clip050)" style="stroke:#000000; stroke-linecap:round; stroke-linejoin:round; stroke-width:4; stroke-opacity:1; fill:none" points="1124.74,1734.12 1124.74,1715.22 "/>
<polyline clip-path="url(#clip050)" style="stroke:#000000; stroke-linecap:round; stroke-linejoin:round; stroke-width:4; stroke-opacity:1; fill:none" points="1624.75,1734.12 1624.75,1715.22 "/>
<polyline clip-path="url(#clip050)" style="stroke:#000000; stroke-linecap:round; stroke-linejoin:round; stroke-width:4; stroke-opacity:1; fill:none" points="2124.75,1734.12 2124.75,1715.22 "/>
<polyline clip-path="url(#clip050)" style="stroke:#000000; stroke-linecap:round; stroke-linejoin:round; stroke-width:4; stroke-opacity:1; fill:none" points="2624.76,1734.12 2624.76,1715.22 "/>
<path clip-path="url(#clip050)" d="M602.734 1767.34 Q599.123 1767.34 597.294 1770.9 Q595.488 1774.45 595.488 1781.58 Q595.488 1788.68 597.294 1792.25 Q599.123 1795.79 602.734 1795.79 Q606.368 1795.79 608.173 1792.25 Q610.002 1788.68 610.002 1781.58 Q610.002 1774.45 608.173 1770.9 Q606.368 1767.34 602.734 1767.34 M602.734 1763.64 Q608.544 1763.64 611.599 1768.24 Q614.678 1772.83 614.678 1781.58 Q614.678 1790.3 611.599 1794.91 Q608.544 1799.49 602.734 1799.49 Q596.923 1799.49 593.845 1794.91 Q590.789 1790.3 590.789 1781.58 Q590.789 1772.83 593.845 1768.24 Q596.923 1763.64 602.734 1763.64 Z" fill="#000000" fill-rule="nonzero" fill-opacity="1" /><path clip-path="url(#clip050)" d="M622.896 1792.94 L627.78 1792.94 L627.78 1798.82 L622.896 1798.82 L622.896 1792.94 Z" fill="#000000" fill-rule="nonzero" fill-opacity="1" /><path clip-path="url(#clip050)" d="M638.775 1794.89 L646.414 1794.89 L646.414 1768.52 L638.104 1770.19 L638.104 1765.93 L646.368 1764.26 L651.044 1764.26 L651.044 1794.89 L658.682 1794.89 L658.682 1798.82 L638.775 1798.82 L638.775 1794.89 Z" fill="#000000" fill-rule="nonzero" fill-opacity="1" /><path clip-path="url(#clip050)" d="M1102.92 1767.34 Q1099.31 1767.34 1097.48 1770.9 Q1095.68 1774.45 1095.68 1781.58 Q1095.68 1788.68 1097.48 1792.25 Q1099.31 1795.79 1102.92 1795.79 Q1106.56 1795.79 1108.36 1792.25 Q1110.19 1788.68 1110.19 1781.58 Q1110.19 1774.45 1108.36 1770.9 Q1106.56 1767.34 1102.92 1767.34 M1102.92 1763.64 Q1108.73 1763.64 1111.79 1768.24 Q1114.87 1772.83 1114.87 1781.58 Q1114.87 1790.3 1111.79 1794.91 Q1108.73 1799.49 1102.92 1799.49 Q1097.11 1799.49 1094.03 1794.91 Q1090.98 1790.3 1090.98 1781.58 Q1090.98 1772.83 1094.03 1768.24 Q1097.11 1763.64 1102.92 1763.64 Z" fill="#000000" fill-rule="nonzero" fill-opacity="1" /><path clip-path="url(#clip050)" d="M1123.09 1792.94 L1127.97 1792.94 L1127.97 1798.82 L1123.09 1798.82 L1123.09 1792.94 Z" fill="#000000" fill-rule="nonzero" fill-opacity="1" /><path clip-path="url(#clip050)" d="M1142.18 1794.89 L1158.5 1794.89 L1158.5 1798.82 L1136.56 1798.82 L1136.56 1794.89 Q1139.22 1792.13 1143.8 1787.5 Q1148.41 1782.85 1149.59 1781.51 Q1151.84 1778.98 1152.72 1777.25 Q1153.62 1775.49 1153.62 1773.8 Q1153.62 1771.04 1151.67 1769.31 Q1149.75 1767.57 1146.65 1767.57 Q1144.45 1767.57 1142 1768.34 Q1139.57 1769.1 1136.79 1770.65 L1136.79 1765.93 Q1139.61 1764.79 1142.07 1764.21 Q1144.52 1763.64 1146.56 1763.64 Q1151.93 1763.64 1155.12 1766.32 Q1158.32 1769.01 1158.32 1773.5 Q1158.32 1775.63 1157.51 1777.55 Q1156.72 1779.45 1154.61 1782.04 Q1154.03 1782.71 1150.93 1785.93 Q1147.83 1789.12 1142.18 1794.89 Z" fill="#000000" fill-rule="nonzero" fill-opacity="1" /><path clip-path="url(#clip050)" d="M1602.45 1767.34 Q1598.84 1767.34 1597.01 1770.9 Q1595.21 1774.45 1595.21 1781.58 Q1595.21 1788.68 1597.01 1792.25 Q1598.84 1795.79 1602.45 1795.79 Q1606.09 1795.79 1607.89 1792.25 Q1609.72 1788.68 1609.72 1781.58 Q1609.72 1774.45 1607.89 1770.9 Q1606.09 1767.34 1602.45 1767.34 M1602.45 1763.64 Q1608.26 1763.64 1611.32 1768.24 Q1614.4 1772.83 1614.4 1781.58 Q1614.4 1790.3 1611.32 1794.91 Q1608.26 1799.49 1602.45 1799.49 Q1596.64 1799.49 1593.57 1794.91 Q1590.51 1790.3 1590.51 1781.58 Q1590.51 1772.83 1593.57 1768.24 Q1596.64 1763.64 1602.45 1763.64 Z" fill="#000000" fill-rule="nonzero" fill-opacity="1" /><path clip-path="url(#clip050)" d="M1622.62 1792.94 L1627.5 1792.94 L1627.5 1798.82 L1622.62 1798.82 L1622.62 1792.94 Z" fill="#000000" fill-rule="nonzero" fill-opacity="1" /><path clip-path="url(#clip050)" d="M1651.85 1780.19 Q1655.21 1780.9 1657.08 1783.17 Q1658.98 1785.44 1658.98 1788.77 Q1658.98 1793.89 1655.46 1796.69 Q1651.94 1799.49 1645.46 1799.49 Q1643.29 1799.49 1640.97 1799.05 Q1638.68 1798.64 1636.23 1797.78 L1636.23 1793.27 Q1638.17 1794.4 1640.49 1794.98 Q1642.8 1795.56 1645.32 1795.56 Q1649.72 1795.56 1652.01 1793.82 Q1654.33 1792.08 1654.33 1788.77 Q1654.33 1785.72 1652.18 1784.01 Q1650.05 1782.27 1646.23 1782.27 L1642.2 1782.27 L1642.2 1778.43 L1646.41 1778.43 Q1649.86 1778.43 1651.69 1777.06 Q1653.52 1775.67 1653.52 1773.08 Q1653.52 1770.42 1651.62 1769.01 Q1649.75 1767.57 1646.23 1767.57 Q1644.31 1767.57 1642.11 1767.99 Q1639.91 1768.4 1637.27 1769.28 L1637.27 1765.12 Q1639.93 1764.38 1642.25 1764.01 Q1644.58 1763.64 1646.64 1763.64 Q1651.97 1763.64 1655.07 1766.07 Q1658.17 1768.47 1658.17 1772.59 Q1658.17 1775.46 1656.53 1777.46 Q1654.88 1779.42 1651.85 1780.19 Z" fill="#000000" fill-rule="nonzero" fill-opacity="1" /><path clip-path="url(#clip050)" d="M2101.89 1767.34 Q2098.28 1767.34 2096.45 1770.9 Q2094.65 1774.45 2094.65 1781.58 Q2094.65 1788.68 2096.45 1792.25 Q2098.28 1795.79 2101.89 1795.79 Q2105.53 1795.79 2107.33 1792.25 Q2109.16 1788.68 2109.16 1781.58 Q2109.16 1774.45 2107.33 1770.9 Q2105.53 1767.34 2101.89 1767.34 M2101.89 1763.64 Q2107.7 1763.64 2110.76 1768.24 Q2113.84 1772.83 2113.84 1781.58 Q2113.84 1790.3 2110.76 1794.91 Q2107.7 1799.49 2101.89 1799.49 Q2096.08 1799.49 2093 1794.91 Q2089.95 1790.3 2089.95 1781.58 Q2089.95 1772.83 2093 1768.24 Q2096.08 1763.64 2101.89 1763.64 Z" fill="#000000" fill-rule="nonzero" fill-opacity="1" /><path clip-path="url(#clip050)" d="M2122.05 1792.94 L2126.94 1792.94 L2126.94 1798.82 L2122.05 1798.82 L2122.05 1792.94 Z" fill="#000000" fill-rule="nonzero" fill-opacity="1" /><path clip-path="url(#clip050)" d="M2149.97 1768.34 L2138.17 1786.78 L2149.97 1786.78 L2149.97 1768.34 M2148.74 1764.26 L2154.62 1764.26 L2154.62 1786.78 L2159.55 1786.78 L2159.55 1790.67 L2154.62 1790.67 L2154.62 1798.82 L2149.97 1798.82 L2149.97 1790.67 L2134.37 1790.67 L2134.37 1786.16 L2148.74 1764.26 Z" fill="#000000" fill-rule="nonzero" fill-opacity="1" /><path clip-path="url(#clip050)" d="M2602.64 1767.34 Q2599.03 1767.34 2597.2 1770.9 Q2595.39 1774.45 2595.39 1781.58 Q2595.39 1788.68 2597.2 1792.25 Q2599.03 1795.79 2602.64 1795.79 Q2606.27 1795.79 2608.08 1792.25 Q2609.91 1788.68 2609.91 1781.58 Q2609.91 1774.45 2608.08 1770.9 Q2606.27 1767.34 2602.64 1767.34 M2602.64 1763.64 Q2608.45 1763.64 2611.5 1768.24 Q2614.58 1772.83 2614.58 1781.58 Q2614.58 1790.3 2611.5 1794.91 Q2608.45 1799.49 2602.64 1799.49 Q2596.83 1799.49 2593.75 1794.91 Q2590.69 1790.3 2590.69 1781.58 Q2590.69 1772.83 2593.75 1768.24 Q2596.83 1763.64 2602.64 1763.64 Z" fill="#000000" fill-rule="nonzero" fill-opacity="1" /><path clip-path="url(#clip050)" d="M2622.8 1792.94 L2627.68 1792.94 L2627.68 1798.82 L2622.8 1798.82 L2622.8 1792.94 Z" fill="#000000" fill-rule="nonzero" fill-opacity="1" /><path clip-path="url(#clip050)" d="M2637.92 1764.26 L2656.27 1764.26 L2656.27 1768.2 L2642.2 1768.2 L2642.2 1776.67 Q2643.22 1776.32 2644.23 1776.16 Q2645.25 1775.97 2646.27 1775.97 Q2652.06 1775.97 2655.44 1779.15 Q2658.82 1782.32 2658.82 1787.73 Q2658.82 1793.31 2655.35 1796.41 Q2651.87 1799.49 2645.55 1799.49 Q2643.38 1799.49 2641.11 1799.12 Q2638.86 1798.75 2636.46 1798.01 L2636.46 1793.31 Q2638.54 1794.45 2640.76 1795 Q2642.98 1795.56 2645.46 1795.56 Q2649.47 1795.56 2651.8 1793.45 Q2654.14 1791.34 2654.14 1787.73 Q2654.14 1784.12 2651.8 1782.02 Q2649.47 1779.91 2645.46 1779.91 Q2643.59 1779.91 2641.71 1780.33 Q2639.86 1780.74 2637.92 1781.62 L2637.92 1764.26 Z" fill="#000000" fill-rule="nonzero" fill-opacity="1" /><path clip-path="url(#clip050)" d="M1450.95 1881.1 L1450.95 1896.86 L1445.06 1896.86 L1445.06 1847.88 Q1445.06 1833.36 1458.62 1833.36 Q1472.44 1833.36 1472.44 1845.62 Q1472.44 1854.34 1466.96 1857.52 Q1475.87 1860.38 1475.87 1868.88 Q1475.87 1883.97 1460.53 1883.97 Q1453.79 1883.97 1450.95 1881.1 M1450.95 1873.47 Q1454.49 1878.97 1460.76 1878.97 Q1469.92 1878.97 1469.92 1868.98 Q1469.92 1860 1455.15 1860.7 L1455.15 1855.29 Q1466.71 1855.29 1466.71 1845.11 Q1466.71 1838.14 1459.26 1838.14 Q1450.95 1838.14 1450.95 1848.07 L1450.95 1873.47 Z" fill="#000000" fill-rule="nonzero" fill-opacity="1" /><path clip-path="url(#clip050)" d="M1498.7 1861.75 Q1497.1 1859.02 1493.89 1859.02 Q1490.67 1859.02 1489.08 1861.75 Q1487.46 1864.49 1487.46 1869.96 Q1487.46 1875.47 1489.08 1878.21 Q1490.67 1880.95 1493.89 1880.95 Q1497.1 1880.95 1498.7 1878.21 Q1500.32 1875.47 1500.32 1869.96 Q1500.32 1864.49 1498.7 1861.75 M1493.89 1856.18 Q1499.01 1856.18 1501.72 1859.72 Q1504.42 1863.25 1504.42 1869.96 Q1504.42 1876.71 1501.72 1880.25 Q1499.01 1883.78 1493.89 1883.78 Q1488.73 1883.78 1486.03 1880.25 Q1483.32 1876.71 1483.32 1869.96 Q1483.32 1863.25 1486.03 1859.72 Q1488.73 1856.18 1493.89 1856.18 Z" fill="#000000" fill-rule="nonzero" fill-opacity="1" /><polyline clip-path="url(#clip050)" style="stroke:#000000; stroke-linecap:round; stroke-linejoin:round; stroke-width:4; stroke-opacity:1; fill:none" points="308.733,1734.12 308.733,127.792 "/>
<polyline clip-path="url(#clip050)" style="stroke:#000000; stroke-linecap:round; stroke-linejoin:round; stroke-width:4; stroke-opacity:1; fill:none" points="308.733,1642.68 327.63,1642.68 "/>
<polyline clip-path="url(#clip050)" style="stroke:#000000; stroke-linecap:round; stroke-linejoin:round; stroke-width:4; stroke-opacity:1; fill:none" points="308.733,1366.79 327.63,1366.79 "/>
<polyline clip-path="url(#clip050)" style="stroke:#000000; stroke-linecap:round; stroke-linejoin:round; stroke-width:4; stroke-opacity:1; fill:none" points="308.733,1090.9 327.63,1090.9 "/>
<polyline clip-path="url(#clip050)" style="stroke:#000000; stroke-linecap:round; stroke-linejoin:round; stroke-width:4; stroke-opacity:1; fill:none" points="308.733,815.011 327.63,815.011 "/>
<polyline clip-path="url(#clip050)" style="stroke:#000000; stroke-linecap:round; stroke-linejoin:round; stroke-width:4; stroke-opacity:1; fill:none" points="308.733,539.12 327.63,539.12 "/>
<polyline clip-path="url(#clip050)" style="stroke:#000000; stroke-linecap:round; stroke-linejoin:round; stroke-width:4; stroke-opacity:1; fill:none" points="308.733,263.229 327.63,263.229 "/>
<path clip-path="url(#clip050)" d="M116.214 1643.13 L145.89 1643.13 L145.89 1647.07 L116.214 1647.07 L116.214 1643.13 Z" fill="#000000" fill-rule="nonzero" fill-opacity="1" /><path clip-path="url(#clip050)" d="M166.561 1640.82 Q163.413 1640.82 161.561 1642.97 Q159.733 1645.12 159.733 1648.87 Q159.733 1652.6 161.561 1654.78 Q163.413 1656.93 166.561 1656.93 Q169.71 1656.93 171.538 1654.78 Q173.39 1652.6 173.39 1648.87 Q173.39 1645.12 171.538 1642.97 Q169.71 1640.82 166.561 1640.82 M175.844 1626.17 L175.844 1630.43 Q174.085 1629.59 172.279 1629.15 Q170.497 1628.71 168.737 1628.71 Q164.108 1628.71 161.654 1631.84 Q159.223 1634.96 158.876 1641.28 Q160.242 1639.27 162.302 1638.2 Q164.362 1637.12 166.839 1637.12 Q172.047 1637.12 175.057 1640.29 Q178.089 1643.43 178.089 1648.87 Q178.089 1654.2 174.941 1657.42 Q171.793 1660.63 166.561 1660.63 Q160.566 1660.63 157.395 1656.05 Q154.223 1651.44 154.223 1642.72 Q154.223 1634.52 158.112 1629.66 Q162.001 1624.78 168.552 1624.78 Q170.311 1624.78 172.094 1625.12 Q173.899 1625.47 175.844 1626.17 Z" fill="#000000" fill-rule="nonzero" fill-opacity="1" /><path clip-path="url(#clip050)" d="M196.145 1628.48 Q192.533 1628.48 190.705 1632.05 Q188.899 1635.59 188.899 1642.72 Q188.899 1649.82 190.705 1653.39 Q192.533 1656.93 196.145 1656.93 Q199.779 1656.93 201.584 1653.39 Q203.413 1649.82 203.413 1642.72 Q203.413 1635.59 201.584 1632.05 Q199.779 1628.48 196.145 1628.48 M196.145 1624.78 Q201.955 1624.78 205.01 1629.38 Q208.089 1633.97 208.089 1642.72 Q208.089 1651.44 205.01 1656.05 Q201.955 1660.63 196.145 1660.63 Q190.334 1660.63 187.256 1656.05 Q184.2 1651.44 184.2 1642.72 Q184.2 1633.97 187.256 1629.38 Q190.334 1624.78 196.145 1624.78 Z" fill="#000000" fill-rule="nonzero" fill-opacity="1" /><path clip-path="url(#clip050)" d="M226.306 1628.48 Q222.695 1628.48 220.867 1632.05 Q219.061 1635.59 219.061 1642.72 Q219.061 1649.82 220.867 1653.39 Q222.695 1656.93 226.306 1656.93 Q229.941 1656.93 231.746 1653.39 Q233.575 1649.82 233.575 1642.72 Q233.575 1635.59 231.746 1632.05 Q229.941 1628.48 226.306 1628.48 M226.306 1624.78 Q232.117 1624.78 235.172 1629.38 Q238.251 1633.97 238.251 1642.72 Q238.251 1651.44 235.172 1656.05 Q232.117 1660.63 226.306 1660.63 Q220.496 1660.63 217.418 1656.05 Q214.362 1651.44 214.362 1642.72 Q214.362 1633.97 217.418 1629.38 Q220.496 1624.78 226.306 1624.78 Z" fill="#000000" fill-rule="nonzero" fill-opacity="1" /><path clip-path="url(#clip050)" d="M256.468 1628.48 Q252.857 1628.48 251.029 1632.05 Q249.223 1635.59 249.223 1642.72 Q249.223 1649.82 251.029 1653.39 Q252.857 1656.93 256.468 1656.93 Q260.103 1656.93 261.908 1653.39 Q263.737 1649.82 263.737 1642.72 Q263.737 1635.59 261.908 1632.05 Q260.103 1628.48 256.468 1628.48 M256.468 1624.78 Q262.278 1624.78 265.334 1629.38 Q268.413 1633.97 268.413 1642.72 Q268.413 1651.44 265.334 1656.05 Q262.278 1660.63 256.468 1660.63 Q250.658 1660.63 247.579 1656.05 Q244.524 1651.44 244.524 1642.72 Q244.524 1633.97 247.579 1629.38 Q250.658 1624.78 256.468 1624.78 Z" fill="#000000" fill-rule="nonzero" fill-opacity="1" /><path clip-path="url(#clip050)" d="M116.214 1367.24 L145.89 1367.24 L145.89 1371.18 L116.214 1371.18 L116.214 1367.24 Z" fill="#000000" fill-rule="nonzero" fill-opacity="1" /><path clip-path="url(#clip050)" d="M156.029 1349.51 L174.385 1349.51 L174.385 1353.45 L160.311 1353.45 L160.311 1361.92 Q161.33 1361.57 162.348 1361.41 Q163.367 1361.22 164.385 1361.22 Q170.172 1361.22 173.552 1364.4 Q176.932 1367.57 176.932 1372.98 Q176.932 1378.56 173.46 1381.66 Q169.987 1384.74 163.668 1384.74 Q161.492 1384.74 159.223 1384.37 Q156.978 1384 154.571 1383.26 L154.571 1378.56 Q156.654 1379.7 158.876 1380.25 Q161.098 1380.81 163.575 1380.81 Q167.58 1380.81 169.918 1378.7 Q172.256 1376.59 172.256 1372.98 Q172.256 1369.37 169.918 1367.27 Q167.58 1365.16 163.575 1365.16 Q161.7 1365.16 159.825 1365.58 Q157.973 1365.99 156.029 1366.87 L156.029 1349.51 Z" fill="#000000" fill-rule="nonzero" fill-opacity="1" /><path clip-path="url(#clip050)" d="M196.145 1352.59 Q192.533 1352.59 190.705 1356.16 Q188.899 1359.7 188.899 1366.83 Q188.899 1373.93 190.705 1377.5 Q192.533 1381.04 196.145 1381.04 Q199.779 1381.04 201.584 1377.5 Q203.413 1373.93 203.413 1366.83 Q203.413 1359.7 201.584 1356.16 Q199.779 1352.59 196.145 1352.59 M196.145 1348.89 Q201.955 1348.89 205.01 1353.49 Q208.089 1358.08 208.089 1366.83 Q208.089 1375.55 205.01 1380.16 Q201.955 1384.74 196.145 1384.74 Q190.334 1384.74 187.256 1380.16 Q184.2 1375.55 184.2 1366.83 Q184.2 1358.08 187.256 1353.49 Q190.334 1348.89 196.145 1348.89 Z" fill="#000000" fill-rule="nonzero" fill-opacity="1" /><path clip-path="url(#clip050)" d="M226.306 1352.59 Q222.695 1352.59 220.867 1356.16 Q219.061 1359.7 219.061 1366.83 Q219.061 1373.93 220.867 1377.5 Q222.695 1381.04 226.306 1381.04 Q229.941 1381.04 231.746 1377.5 Q233.575 1373.93 233.575 1366.83 Q233.575 1359.7 231.746 1356.16 Q229.941 1352.59 226.306 1352.59 M226.306 1348.89 Q232.117 1348.89 235.172 1353.49 Q238.251 1358.08 238.251 1366.83 Q238.251 1375.55 235.172 1380.16 Q232.117 1384.74 226.306 1384.74 Q220.496 1384.74 217.418 1380.16 Q214.362 1375.55 214.362 1366.83 Q214.362 1358.08 217.418 1353.49 Q220.496 1348.89 226.306 1348.89 Z" fill="#000000" fill-rule="nonzero" fill-opacity="1" /><path clip-path="url(#clip050)" d="M256.468 1352.59 Q252.857 1352.59 251.029 1356.16 Q249.223 1359.7 249.223 1366.83 Q249.223 1373.93 251.029 1377.5 Q252.857 1381.04 256.468 1381.04 Q260.103 1381.04 261.908 1377.5 Q263.737 1373.93 263.737 1366.83 Q263.737 1359.7 261.908 1356.16 Q260.103 1352.59 256.468 1352.59 M256.468 1348.89 Q262.278 1348.89 265.334 1353.49 Q268.413 1358.08 268.413 1366.83 Q268.413 1375.55 265.334 1380.16 Q262.278 1384.74 256.468 1384.74 Q250.658 1384.74 247.579 1380.16 Q244.524 1375.55 244.524 1366.83 Q244.524 1358.08 247.579 1353.49 Q250.658 1348.89 256.468 1348.89 Z" fill="#000000" fill-rule="nonzero" fill-opacity="1" /><path clip-path="url(#clip050)" d="M116.214 1091.35 L145.89 1091.35 L145.89 1095.29 L116.214 1095.29 L116.214 1091.35 Z" fill="#000000" fill-rule="nonzero" fill-opacity="1" /><path clip-path="url(#clip050)" d="M168.83 1077.7 L157.024 1096.14 L168.83 1096.14 L168.83 1077.7 M167.603 1073.62 L173.483 1073.62 L173.483 1096.14 L178.413 1096.14 L178.413 1100.03 L173.483 1100.03 L173.483 1108.18 L168.83 1108.18 L168.83 1100.03 L153.228 1100.03 L153.228 1095.52 L167.603 1073.62 Z" fill="#000000" fill-rule="nonzero" fill-opacity="1" /><path clip-path="url(#clip050)" d="M196.145 1076.7 Q192.533 1076.7 190.705 1080.26 Q188.899 1083.81 188.899 1090.94 Q188.899 1098.04 190.705 1101.61 Q192.533 1105.15 196.145 1105.15 Q199.779 1105.15 201.584 1101.61 Q203.413 1098.04 203.413 1090.94 Q203.413 1083.81 201.584 1080.26 Q199.779 1076.7 196.145 1076.7 M196.145 1073 Q201.955 1073 205.01 1077.6 Q208.089 1082.19 208.089 1090.94 Q208.089 1099.66 205.01 1104.27 Q201.955 1108.85 196.145 1108.85 Q190.334 1108.85 187.256 1104.27 Q184.2 1099.66 184.2 1090.94 Q184.2 1082.19 187.256 1077.6 Q190.334 1073 196.145 1073 Z" fill="#000000" fill-rule="nonzero" fill-opacity="1" /><path clip-path="url(#clip050)" d="M226.306 1076.7 Q222.695 1076.7 220.867 1080.26 Q219.061 1083.81 219.061 1090.94 Q219.061 1098.04 220.867 1101.61 Q222.695 1105.15 226.306 1105.15 Q229.941 1105.15 231.746 1101.61 Q233.575 1098.04 233.575 1090.94 Q233.575 1083.81 231.746 1080.26 Q229.941 1076.7 226.306 1076.7 M226.306 1073 Q232.117 1073 235.172 1077.6 Q238.251 1082.19 238.251 1090.94 Q238.251 1099.66 235.172 1104.27 Q232.117 1108.85 226.306 1108.85 Q220.496 1108.85 217.418 1104.27 Q214.362 1099.66 214.362 1090.94 Q214.362 1082.19 217.418 1077.6 Q220.496 1073 226.306 1073 Z" fill="#000000" fill-rule="nonzero" fill-opacity="1" /><path clip-path="url(#clip050)" d="M256.468 1076.7 Q252.857 1076.7 251.029 1080.26 Q249.223 1083.81 249.223 1090.94 Q249.223 1098.04 251.029 1101.61 Q252.857 1105.15 256.468 1105.15 Q260.103 1105.15 261.908 1101.61 Q263.737 1098.04 263.737 1090.94 Q263.737 1083.81 261.908 1080.26 Q260.103 1076.7 256.468 1076.7 M256.468 1073 Q262.278 1073 265.334 1077.6 Q268.413 1082.19 268.413 1090.94 Q268.413 1099.66 265.334 1104.27 Q262.278 1108.85 256.468 1108.85 Q250.658 1108.85 247.579 1104.27 Q244.524 1099.66 244.524 1090.94 Q244.524 1082.19 247.579 1077.6 Q250.658 1073 256.468 1073 Z" fill="#000000" fill-rule="nonzero" fill-opacity="1" /><path clip-path="url(#clip050)" d="M116.214 815.462 L145.89 815.462 L145.89 819.397 L116.214 819.397 L116.214 815.462 Z" fill="#000000" fill-rule="nonzero" fill-opacity="1" /><path clip-path="url(#clip050)" d="M170.149 813.656 Q173.506 814.374 175.381 816.642 Q177.279 818.911 177.279 822.244 Q177.279 827.36 173.76 830.161 Q170.242 832.962 163.76 832.962 Q161.585 832.962 159.27 832.522 Q156.978 832.105 154.524 831.249 L154.524 826.735 Q156.469 827.869 158.784 828.448 Q161.098 829.027 163.622 829.027 Q168.02 829.027 170.311 827.291 Q172.626 825.554 172.626 822.244 Q172.626 819.189 170.473 817.476 Q168.344 815.74 164.524 815.74 L160.497 815.74 L160.497 811.897 L164.71 811.897 Q168.159 811.897 169.987 810.531 Q171.816 809.142 171.816 806.55 Q171.816 803.888 169.918 802.476 Q168.043 801.041 164.524 801.041 Q162.603 801.041 160.404 801.457 Q158.205 801.874 155.566 802.754 L155.566 798.587 Q158.228 797.846 160.543 797.476 Q162.881 797.106 164.941 797.106 Q170.265 797.106 173.367 799.536 Q176.469 801.943 176.469 806.064 Q176.469 808.934 174.825 810.925 Q173.182 812.892 170.149 813.656 Z" fill="#000000" fill-rule="nonzero" fill-opacity="1" /><path clip-path="url(#clip050)" d="M196.145 800.809 Q192.533 800.809 190.705 804.374 Q188.899 807.916 188.899 815.045 Q188.899 822.152 190.705 825.716 Q192.533 829.258 196.145 829.258 Q199.779 829.258 201.584 825.716 Q203.413 822.152 203.413 815.045 Q203.413 807.916 201.584 804.374 Q199.779 800.809 196.145 800.809 M196.145 797.106 Q201.955 797.106 205.01 801.712 Q208.089 806.295 208.089 815.045 Q208.089 823.772 205.01 828.378 Q201.955 832.962 196.145 832.962 Q190.334 832.962 187.256 828.378 Q184.2 823.772 184.2 815.045 Q184.2 806.295 187.256 801.712 Q190.334 797.106 196.145 797.106 Z" fill="#000000" fill-rule="nonzero" fill-opacity="1" /><path clip-path="url(#clip050)" d="M226.306 800.809 Q222.695 800.809 220.867 804.374 Q219.061 807.916 219.061 815.045 Q219.061 822.152 220.867 825.716 Q222.695 829.258 226.306 829.258 Q229.941 829.258 231.746 825.716 Q233.575 822.152 233.575 815.045 Q233.575 807.916 231.746 804.374 Q229.941 800.809 226.306 800.809 M226.306 797.106 Q232.117 797.106 235.172 801.712 Q238.251 806.295 238.251 815.045 Q238.251 823.772 235.172 828.378 Q232.117 832.962 226.306 832.962 Q220.496 832.962 217.418 828.378 Q214.362 823.772 214.362 815.045 Q214.362 806.295 217.418 801.712 Q220.496 797.106 226.306 797.106 Z" fill="#000000" fill-rule="nonzero" fill-opacity="1" /><path clip-path="url(#clip050)" d="M256.468 800.809 Q252.857 800.809 251.029 804.374 Q249.223 807.916 249.223 815.045 Q249.223 822.152 251.029 825.716 Q252.857 829.258 256.468 829.258 Q260.103 829.258 261.908 825.716 Q263.737 822.152 263.737 815.045 Q263.737 807.916 261.908 804.374 Q260.103 800.809 256.468 800.809 M256.468 797.106 Q262.278 797.106 265.334 801.712 Q268.413 806.295 268.413 815.045 Q268.413 823.772 265.334 828.378 Q262.278 832.962 256.468 832.962 Q250.658 832.962 247.579 828.378 Q244.524 823.772 244.524 815.045 Q244.524 806.295 247.579 801.712 Q250.658 797.106 256.468 797.106 Z" fill="#000000" fill-rule="nonzero" fill-opacity="1" /><path clip-path="url(#clip050)" d="M116.214 539.571 L145.89 539.571 L145.89 543.506 L116.214 543.506 L116.214 539.571 Z" fill="#000000" fill-rule="nonzero" fill-opacity="1" /><path clip-path="url(#clip050)" d="M160.011 552.465 L176.33 552.465 L176.33 556.4 L154.386 556.4 L154.386 552.465 Q157.048 549.71 161.631 545.081 Q166.237 540.428 167.418 539.085 Q169.663 536.562 170.543 534.826 Q171.446 533.067 171.446 531.377 Q171.446 528.622 169.501 526.886 Q167.58 525.15 164.478 525.15 Q162.279 525.15 159.825 525.914 Q157.395 526.678 154.617 528.229 L154.617 523.507 Q157.441 522.372 159.895 521.794 Q162.348 521.215 164.385 521.215 Q169.756 521.215 172.95 523.9 Q176.145 526.585 176.145 531.076 Q176.145 533.206 175.334 535.127 Q174.547 537.025 172.441 539.618 Q171.862 540.289 168.76 543.506 Q165.659 546.701 160.011 552.465 Z" fill="#000000" fill-rule="nonzero" fill-opacity="1" /><path clip-path="url(#clip050)" d="M196.145 524.919 Q192.533 524.919 190.705 528.483 Q188.899 532.025 188.899 539.155 Q188.899 546.261 190.705 549.826 Q192.533 553.368 196.145 553.368 Q199.779 553.368 201.584 549.826 Q203.413 546.261 203.413 539.155 Q203.413 532.025 201.584 528.483 Q199.779 524.919 196.145 524.919 M196.145 521.215 Q201.955 521.215 205.01 525.821 Q208.089 530.405 208.089 539.155 Q208.089 547.881 205.01 552.488 Q201.955 557.071 196.145 557.071 Q190.334 557.071 187.256 552.488 Q184.2 547.881 184.2 539.155 Q184.2 530.405 187.256 525.821 Q190.334 521.215 196.145 521.215 Z" fill="#000000" fill-rule="nonzero" fill-opacity="1" /><path clip-path="url(#clip050)" d="M226.306 524.919 Q222.695 524.919 220.867 528.483 Q219.061 532.025 219.061 539.155 Q219.061 546.261 220.867 549.826 Q222.695 553.368 226.306 553.368 Q229.941 553.368 231.746 549.826 Q233.575 546.261 233.575 539.155 Q233.575 532.025 231.746 528.483 Q229.941 524.919 226.306 524.919 M226.306 521.215 Q232.117 521.215 235.172 525.821 Q238.251 530.405 238.251 539.155 Q238.251 547.881 235.172 552.488 Q232.117 557.071 226.306 557.071 Q220.496 557.071 217.418 552.488 Q214.362 547.881 214.362 539.155 Q214.362 530.405 217.418 525.821 Q220.496 521.215 226.306 521.215 Z" fill="#000000" fill-rule="nonzero" fill-opacity="1" /><path clip-path="url(#clip050)" d="M256.468 524.919 Q252.857 524.919 251.029 528.483 Q249.223 532.025 249.223 539.155 Q249.223 546.261 251.029 549.826 Q252.857 553.368 256.468 553.368 Q260.103 553.368 261.908 549.826 Q263.737 546.261 263.737 539.155 Q263.737 532.025 261.908 528.483 Q260.103 524.919 256.468 524.919 M256.468 521.215 Q262.278 521.215 265.334 525.821 Q268.413 530.405 268.413 539.155 Q268.413 547.881 265.334 552.488 Q262.278 557.071 256.468 557.071 Q250.658 557.071 247.579 552.488 Q244.524 547.881 244.524 539.155 Q244.524 530.405 247.579 525.821 Q250.658 521.215 256.468 521.215 Z" fill="#000000" fill-rule="nonzero" fill-opacity="1" /><path clip-path="url(#clip050)" d="M116.214 263.681 L145.89 263.681 L145.89 267.616 L116.214 267.616 L116.214 263.681 Z" fill="#000000" fill-rule="nonzero" fill-opacity="1" /><path clip-path="url(#clip050)" d="M156.793 276.574 L164.432 276.574 L164.432 250.209 L156.122 251.875 L156.122 247.616 L164.385 245.949 L169.061 245.949 L169.061 276.574 L176.7 276.574 L176.7 280.509 L156.793 280.509 L156.793 276.574 Z" fill="#000000" fill-rule="nonzero" fill-opacity="1" /><path clip-path="url(#clip050)" d="M196.145 249.028 Q192.533 249.028 190.705 252.593 Q188.899 256.134 188.899 263.264 Q188.899 270.371 190.705 273.935 Q192.533 277.477 196.145 277.477 Q199.779 277.477 201.584 273.935 Q203.413 270.371 203.413 263.264 Q203.413 256.134 201.584 252.593 Q199.779 249.028 196.145 249.028 M196.145 245.324 Q201.955 245.324 205.01 249.931 Q208.089 254.514 208.089 263.264 Q208.089 271.991 205.01 276.597 Q201.955 281.181 196.145 281.181 Q190.334 281.181 187.256 276.597 Q184.2 271.991 184.2 263.264 Q184.2 254.514 187.256 249.931 Q190.334 245.324 196.145 245.324 Z" fill="#000000" fill-rule="nonzero" fill-opacity="1" /><path clip-path="url(#clip050)" d="M226.306 249.028 Q222.695 249.028 220.867 252.593 Q219.061 256.134 219.061 263.264 Q219.061 270.371 220.867 273.935 Q222.695 277.477 226.306 277.477 Q229.941 277.477 231.746 273.935 Q233.575 270.371 233.575 263.264 Q233.575 256.134 231.746 252.593 Q229.941 249.028 226.306 249.028 M226.306 245.324 Q232.117 245.324 235.172 249.931 Q238.251 254.514 238.251 263.264 Q238.251 271.991 235.172 276.597 Q232.117 281.181 226.306 281.181 Q220.496 281.181 217.418 276.597 Q214.362 271.991 214.362 263.264 Q214.362 254.514 217.418 249.931 Q220.496 245.324 226.306 245.324 Z" fill="#000000" fill-rule="nonzero" fill-opacity="1" /><path clip-path="url(#clip050)" d="M256.468 249.028 Q252.857 249.028 251.029 252.593 Q249.223 256.134 249.223 263.264 Q249.223 270.371 251.029 273.935 Q252.857 277.477 256.468 277.477 Q260.103 277.477 261.908 273.935 Q263.737 270.371 263.737 263.264 Q263.737 256.134 261.908 252.593 Q260.103 249.028 256.468 249.028 M256.468 245.324 Q262.278 245.324 265.334 249.931 Q268.413 254.514 268.413 263.264 Q268.413 271.991 265.334 276.597 Q262.278 281.181 256.468 281.181 Q250.658 281.181 247.579 276.597 Q244.524 271.991 244.524 263.264 Q244.524 254.514 247.579 249.931 Q250.658 245.324 256.468 245.324 Z" fill="#000000" fill-rule="nonzero" fill-opacity="1" /><path clip-path="url(#clip050)" d="M14.1184 1149.98 L14.1184 1143.55 L56.2276 1143.55 L56.2276 1120.41 L61.6384 1120.41 L61.6384 1149.98 L14.1184 1149.98 Z" fill="#000000" fill-rule="nonzero" fill-opacity="1" /><path clip-path="url(#clip050)" d="M30.0964 1101.25 Q30.0964 1105.96 33.7885 1108.7 Q37.4488 1111.44 43.8463 1111.44 Q50.2438 1111.44 53.9359 1108.73 Q57.5962 1106 57.5962 1101.25 Q57.5962 1096.57 53.9041 1093.84 Q50.212 1091.1 43.8463 1091.1 Q37.5124 1091.1 33.8203 1093.84 Q30.0964 1096.57 30.0964 1101.25 M25.1311 1101.25 Q25.1311 1093.61 30.0964 1089.25 Q35.0616 1084.89 43.8463 1084.89 Q52.5991 1084.89 57.5962 1089.25 Q62.5615 1093.61 62.5615 1101.25 Q62.5615 1108.92 57.5962 1113.28 Q52.5991 1117.61 43.8463 1117.61 Q35.0616 1117.61 30.0964 1113.28 Q25.1311 1108.92 25.1311 1101.25 Z" fill="#000000" fill-rule="nonzero" fill-opacity="1" /><path clip-path="url(#clip050)" d="M43.4007 1051.73 Q37.035 1051.73 33.5338 1054.37 Q30.0327 1056.98 30.0327 1061.72 Q30.0327 1066.43 33.5338 1069.07 Q37.035 1071.68 43.4007 1071.68 Q49.7346 1071.68 53.2357 1069.07 Q56.7368 1066.43 56.7368 1061.72 Q56.7368 1056.98 53.2357 1054.37 Q49.7346 1051.73 43.4007 1051.73 M57.2143 1045.87 Q66.3172 1045.87 70.7414 1049.91 Q75.1974 1053.96 75.1974 1062.29 Q75.1974 1065.38 74.72 1068.12 Q74.2744 1070.86 73.3195 1073.43 L67.6222 1073.43 Q69.0227 1070.86 69.6911 1068.34 Q70.3595 1065.83 70.3595 1063.22 Q70.3595 1057.46 67.3358 1054.59 Q64.3439 1051.73 58.2646 1051.73 L55.3682 1051.73 Q58.5192 1053.54 60.0788 1056.37 Q61.6384 1059.21 61.6384 1063.15 Q61.6384 1069.71 56.6414 1073.72 Q51.6443 1077.73 43.4007 1077.73 Q35.1253 1077.73 30.1282 1073.72 Q25.1311 1069.71 25.1311 1063.15 Q25.1311 1059.21 26.6907 1056.37 Q28.2503 1053.54 31.4013 1051.73 L25.9905 1051.73 L25.9905 1045.87 L57.2143 1045.87 Z" fill="#000000" fill-rule="nonzero" fill-opacity="1" /><path clip-path="url(#clip050)" d="M41.1727 1036.77 L41.1727 1019.61 L46.3926 1019.61 L46.3926 1036.77 L41.1727 1036.77 Z" fill="#000000" fill-rule="nonzero" fill-opacity="1" /><path clip-path="url(#clip050)" d="M12.1132 1010.29 L12.1132 1004.43 L61.6384 1004.43 L61.6384 1010.29 L12.1132 1010.29 Z" fill="#000000" fill-rule="nonzero" fill-opacity="1" /><path clip-path="url(#clip050)" d="M25.9905 992.177 L25.9905 986.32 L61.6384 986.32 L61.6384 992.177 L25.9905 992.177 M12.1132 992.177 L12.1132 986.32 L19.5293 986.32 L19.5293 992.177 L12.1132 992.177 Z" fill="#000000" fill-rule="nonzero" fill-opacity="1" /><path clip-path="url(#clip050)" d="M12.1132 974.289 L12.1132 968.401 L41.3637 968.401 L25.9905 950.927 L25.9905 943.447 L42.6686 962.353 L61.6384 942.652 L61.6384 950.29 L44.2282 968.401 L61.6384 968.401 L61.6384 974.289 L12.1132 974.289 Z" fill="#000000" fill-rule="nonzero" fill-opacity="1" /><path clip-path="url(#clip050)" d="M42.3504 908.149 L45.2149 908.149 L45.2149 935.076 Q51.2623 934.694 54.4452 931.448 Q57.5962 928.17 57.5962 922.345 Q57.5962 918.971 56.7687 915.82 Q55.9411 912.637 54.2861 909.518 L59.8242 909.518 Q61.161 912.669 61.8612 915.979 Q62.5615 919.289 62.5615 922.695 Q62.5615 931.225 57.5962 936.222 Q52.631 941.187 44.1646 941.187 Q35.4117 941.187 30.2873 936.477 Q25.1311 931.734 25.1311 923.714 Q25.1311 916.52 29.7781 912.351 Q34.3932 908.149 42.3504 908.149 M40.6316 914.006 Q35.8255 914.07 32.9609 916.711 Q30.0964 919.321 30.0964 923.65 Q30.0964 928.552 32.8654 931.512 Q35.6345 934.44 40.6634 934.885 L40.6316 914.006 Z" fill="#000000" fill-rule="nonzero" fill-opacity="1" /><path clip-path="url(#clip050)" d="M12.1132 898.537 L12.1132 892.681 L61.6384 892.681 L61.6384 898.537 L12.1132 898.537 Z" fill="#000000" fill-rule="nonzero" fill-opacity="1" /><path clip-path="url(#clip050)" d="M25.9905 880.427 L25.9905 874.57 L61.6384 874.57 L61.6384 880.427 L25.9905 880.427 M12.1132 880.427 L12.1132 874.57 L19.5293 874.57 L19.5293 880.427 L12.1132 880.427 Z" fill="#000000" fill-rule="nonzero" fill-opacity="1" /><path clip-path="url(#clip050)" d="M40.1224 832.684 L61.6384 832.684 L61.6384 838.54 L40.3133 838.54 Q35.2526 838.54 32.7381 840.514 Q30.2237 842.487 30.2237 846.434 Q30.2237 851.176 33.2474 853.914 Q36.2711 856.651 41.491 856.651 L61.6384 856.651 L61.6384 862.539 L12.1132 862.539 L12.1132 856.651 L31.5287 856.651 Q28.314 854.55 26.7225 851.717 Q25.1311 848.853 25.1311 845.129 Q25.1311 838.986 28.9505 835.835 Q32.7381 832.684 40.1224 832.684 Z" fill="#000000" fill-rule="nonzero" fill-opacity="1" /><path clip-path="url(#clip050)" d="M30.0964 807.189 Q30.0964 811.9 33.7885 814.637 Q37.4488 817.374 43.8463 817.374 Q50.2438 817.374 53.9359 814.669 Q57.5962 811.932 57.5962 807.189 Q57.5962 802.511 53.9041 799.773 Q50.212 797.036 43.8463 797.036 Q37.5124 797.036 33.8203 799.773 Q30.0964 802.511 30.0964 807.189 M25.1311 807.189 Q25.1311 799.55 30.0964 795.19 Q35.0616 790.829 43.8463 790.829 Q52.5991 790.829 57.5962 795.19 Q62.5615 799.55 62.5615 807.189 Q62.5615 814.86 57.5962 819.22 Q52.5991 823.549 43.8463 823.549 Q35.0616 823.549 30.0964 819.22 Q25.1311 814.86 25.1311 807.189 Z" fill="#000000" fill-rule="nonzero" fill-opacity="1" /><path clip-path="url(#clip050)" d="M30.0964 767.308 Q30.0964 772.019 33.7885 774.756 Q37.4488 777.493 43.8463 777.493 Q50.2438 777.493 53.9359 774.788 Q57.5962 772.051 57.5962 767.308 Q57.5962 762.629 53.9041 759.892 Q50.212 757.155 43.8463 757.155 Q37.5124 757.155 33.8203 759.892 Q30.0964 762.629 30.0964 767.308 M25.1311 767.308 Q25.1311 759.669 30.0964 755.309 Q35.0616 750.948 43.8463 750.948 Q52.5991 750.948 57.5962 755.309 Q62.5615 759.669 62.5615 767.308 Q62.5615 774.979 57.5962 779.339 Q52.5991 783.668 43.8463 783.668 Q35.0616 783.668 30.0964 779.339 Q25.1311 774.979 25.1311 767.308 Z" fill="#000000" fill-rule="nonzero" fill-opacity="1" /><path clip-path="url(#clip050)" d="M31.4013 717.783 L12.1132 717.783 L12.1132 711.927 L61.6384 711.927 L61.6384 717.783 L56.2912 717.783 Q59.4741 719.629 61.0337 722.462 Q62.5615 725.263 62.5615 729.209 Q62.5615 735.671 57.4052 739.745 Q52.249 743.787 43.8463 743.787 Q35.4436 743.787 30.2873 739.745 Q25.1311 735.671 25.1311 729.209 Q25.1311 725.263 26.6907 722.462 Q28.2185 719.629 31.4013 717.783 M43.8463 737.739 Q50.3075 737.739 53.9996 735.098 Q57.6599 732.424 57.6599 727.777 Q57.6599 723.13 53.9996 720.457 Q50.3075 717.783 43.8463 717.783 Q37.3851 717.783 33.7248 720.457 Q30.0327 723.13 30.0327 727.777 Q30.0327 732.424 33.7248 735.098 Q37.3851 737.739 43.8463 737.739 Z" fill="#000000" fill-rule="nonzero" fill-opacity="1" /><path clip-path="url(#clip050)" d="M1002.45 12.096 L1010.63 12.096 L1010.63 65.6895 L1040.08 65.6895 L1040.08 72.576 L1002.45 72.576 L1002.45 12.096 Z" fill="#000000" fill-rule="nonzero" fill-opacity="1" /><path clip-path="url(#clip050)" d="M1048.35 27.2059 L1055.8 27.2059 L1055.8 72.576 L1048.35 72.576 L1048.35 27.2059 M1048.35 9.54393 L1055.8 9.54393 L1055.8 18.9825 L1048.35 18.9825 L1048.35 9.54393 Z" fill="#000000" fill-rule="nonzero" fill-opacity="1" /><path clip-path="url(#clip050)" d="M1071.11 9.54393 L1078.61 9.54393 L1078.61 46.7717 L1100.85 27.2059 L1110.37 27.2059 L1086.3 48.4326 L1111.38 72.576 L1101.66 72.576 L1078.61 50.4176 L1078.61 72.576 L1071.11 72.576 L1071.11 9.54393 Z" fill="#000000" fill-rule="nonzero" fill-opacity="1" /><path clip-path="url(#clip050)" d="M1155.29 48.0275 L1155.29 51.6733 L1121.02 51.6733 Q1121.51 59.3701 1125.64 63.421 Q1129.81 67.4314 1137.22 67.4314 Q1141.52 67.4314 1145.53 66.3781 Q1149.58 65.3249 1153.55 63.2184 L1153.55 70.267 Q1149.54 71.9684 1145.32 72.8596 Q1141.11 73.7508 1136.78 73.7508 Q1125.92 73.7508 1119.56 67.4314 Q1113.24 61.1119 1113.24 50.3365 Q1113.24 39.1965 1119.24 32.6746 Q1125.27 26.1121 1135.48 26.1121 Q1144.64 26.1121 1149.94 32.0264 Q1155.29 37.9003 1155.29 48.0275 M1147.84 45.84 Q1147.76 39.7232 1144.39 36.0774 Q1141.07 32.4315 1135.56 32.4315 Q1129.32 32.4315 1125.56 35.9558 Q1121.83 39.4801 1121.26 45.8805 L1147.84 45.84 Z" fill="#000000" fill-rule="nonzero" fill-opacity="1" /><path clip-path="url(#clip050)" d="M1167.52 9.54393 L1174.98 9.54393 L1174.98 72.576 L1167.52 72.576 L1167.52 9.54393 Z" fill="#000000" fill-rule="nonzero" fill-opacity="1" /><path clip-path="url(#clip050)" d="M1190.57 27.2059 L1198.03 27.2059 L1198.03 72.576 L1190.57 72.576 L1190.57 27.2059 M1190.57 9.54393 L1198.03 9.54393 L1198.03 18.9825 L1190.57 18.9825 L1190.57 9.54393 Z" fill="#000000" fill-rule="nonzero" fill-opacity="1" /><path clip-path="url(#clip050)" d="M1251.34 45.1919 L1251.34 72.576 L1243.88 72.576 L1243.88 45.4349 Q1243.88 38.994 1241.37 35.7938 Q1238.86 32.5936 1233.84 32.5936 Q1227.8 32.5936 1224.32 36.4419 Q1220.83 40.2903 1220.83 46.9338 L1220.83 72.576 L1213.34 72.576 L1213.34 9.54393 L1220.83 9.54393 L1220.83 34.2544 Q1223.51 30.163 1227.11 28.1376 Q1230.76 26.1121 1235.5 26.1121 Q1243.32 26.1121 1247.33 30.9732 Q1251.34 35.7938 1251.34 45.1919 Z" fill="#000000" fill-rule="nonzero" fill-opacity="1" /><path clip-path="url(#clip050)" d="M1283.78 32.4315 Q1277.79 32.4315 1274.31 37.1306 Q1270.82 41.7891 1270.82 49.9314 Q1270.82 58.0738 1274.27 62.7728 Q1277.75 67.4314 1283.78 67.4314 Q1289.74 67.4314 1293.22 62.7323 Q1296.71 58.0333 1296.71 49.9314 Q1296.71 41.8701 1293.22 37.1711 Q1289.74 32.4315 1283.78 32.4315 M1283.78 26.1121 Q1293.51 26.1121 1299.06 32.4315 Q1304.61 38.7509 1304.61 49.9314 Q1304.61 61.0714 1299.06 67.4314 Q1293.51 73.7508 1283.78 73.7508 Q1274.02 73.7508 1268.47 67.4314 Q1262.96 61.0714 1262.96 49.9314 Q1262.96 38.7509 1268.47 32.4315 Q1274.02 26.1121 1283.78 26.1121 Z" fill="#000000" fill-rule="nonzero" fill-opacity="1" /><path clip-path="url(#clip050)" d="M1334.54 32.4315 Q1328.55 32.4315 1325.06 37.1306 Q1321.58 41.7891 1321.58 49.9314 Q1321.58 58.0738 1325.02 62.7728 Q1328.51 67.4314 1334.54 67.4314 Q1340.5 67.4314 1343.98 62.7323 Q1347.46 58.0333 1347.46 49.9314 Q1347.46 41.8701 1343.98 37.1711 Q1340.5 32.4315 1334.54 32.4315 M1334.54 26.1121 Q1344.26 26.1121 1349.81 32.4315 Q1355.36 38.7509 1355.36 49.9314 Q1355.36 61.0714 1349.81 67.4314 Q1344.26 73.7508 1334.54 73.7508 Q1324.78 73.7508 1319.23 67.4314 Q1313.72 61.0714 1313.72 49.9314 Q1313.72 38.7509 1319.23 32.4315 Q1324.78 26.1121 1334.54 26.1121 Z" fill="#000000" fill-rule="nonzero" fill-opacity="1" /><path clip-path="url(#clip050)" d="M1397.57 34.0924 L1397.57 9.54393 L1405.03 9.54393 L1405.03 72.576 L1397.57 72.576 L1397.57 65.7705 Q1395.23 69.8214 1391.62 71.8063 Q1388.05 73.7508 1383.03 73.7508 Q1374.81 73.7508 1369.62 67.1883 Q1364.48 60.6258 1364.48 49.9314 Q1364.48 39.2371 1369.62 32.6746 Q1374.81 26.1121 1383.03 26.1121 Q1388.05 26.1121 1391.62 28.0971 Q1395.23 30.0415 1397.57 34.0924 M1372.18 49.9314 Q1372.18 58.1548 1375.54 62.8538 Q1378.94 67.5124 1384.85 67.5124 Q1390.77 67.5124 1394.17 62.8538 Q1397.57 58.1548 1397.57 49.9314 Q1397.57 41.7081 1394.17 37.0496 Q1390.77 32.3505 1384.85 32.3505 Q1378.94 32.3505 1375.54 37.0496 Q1372.18 41.7081 1372.18 49.9314 Z" fill="#000000" fill-rule="nonzero" fill-opacity="1" /><path clip-path="url(#clip050)" d="M1455.26 18.8205 L1455.26 41.5461 L1465.55 41.5461 Q1471.26 41.5461 1474.38 38.5889 Q1477.5 35.6318 1477.5 30.163 Q1477.5 24.7348 1474.38 21.7777 Q1471.26 18.8205 1465.55 18.8205 L1455.26 18.8205 M1447.08 12.096 L1465.55 12.096 Q1475.72 12.096 1480.9 16.714 Q1486.13 21.2916 1486.13 30.163 Q1486.13 39.1155 1480.9 43.6931 Q1475.72 48.2706 1465.55 48.2706 L1455.26 48.2706 L1455.26 72.576 L1447.08 72.576 L1447.08 12.096 Z" fill="#000000" fill-rule="nonzero" fill-opacity="1" /><path clip-path="url(#clip050)" d="M1521.61 34.1734 Q1520.36 33.4443 1518.86 33.1202 Q1517.4 32.7556 1515.62 32.7556 Q1509.3 32.7556 1505.9 36.8875 Q1502.53 40.9789 1502.53 48.6757 L1502.53 72.576 L1495.04 72.576 L1495.04 27.2059 L1502.53 27.2059 L1502.53 34.2544 Q1504.88 30.1225 1508.65 28.1376 Q1512.42 26.1121 1517.81 26.1121 Q1518.58 26.1121 1519.51 26.2337 Q1520.44 26.3147 1521.57 26.5172 L1521.61 34.1734 Z" fill="#000000" fill-rule="nonzero" fill-opacity="1" /><path clip-path="url(#clip050)" d="M1545.19 32.4315 Q1539.19 32.4315 1535.71 37.1306 Q1532.23 41.7891 1532.23 49.9314 Q1532.23 58.0738 1535.67 62.7728 Q1539.15 67.4314 1545.19 67.4314 Q1551.14 67.4314 1554.63 62.7323 Q1558.11 58.0333 1558.11 49.9314 Q1558.11 41.8701 1554.63 37.1711 Q1551.14 32.4315 1545.19 32.4315 M1545.19 26.1121 Q1554.91 26.1121 1560.46 32.4315 Q1566.01 38.7509 1566.01 49.9314 Q1566.01 61.0714 1560.46 67.4314 Q1554.91 73.7508 1545.19 73.7508 Q1535.43 73.7508 1529.88 67.4314 Q1524.37 61.0714 1524.37 49.9314 Q1524.37 38.7509 1529.88 32.4315 Q1535.43 26.1121 1545.19 26.1121 Z" fill="#000000" fill-rule="nonzero" fill-opacity="1" /><path clip-path="url(#clip050)" d="M1601.34 9.54393 L1601.34 15.7418 L1594.21 15.7418 Q1590.2 15.7418 1588.62 17.3622 Q1587.08 18.9825 1587.08 23.1955 L1587.08 27.2059 L1599.35 27.2059 L1599.35 32.9987 L1587.08 32.9987 L1587.08 72.576 L1579.58 72.576 L1579.58 32.9987 L1572.45 32.9987 L1572.45 27.2059 L1579.58 27.2059 L1579.58 24.0462 Q1579.58 16.471 1583.11 13.0277 Q1586.63 9.54393 1594.29 9.54393 L1601.34 9.54393 Z" fill="#000000" fill-rule="nonzero" fill-opacity="1" /><path clip-path="url(#clip050)" d="M1607.57 27.2059 L1615.03 27.2059 L1615.03 72.576 L1607.57 72.576 L1607.57 27.2059 M1607.57 9.54393 L1615.03 9.54393 L1615.03 18.9825 L1607.57 18.9825 L1607.57 9.54393 Z" fill="#000000" fill-rule="nonzero" fill-opacity="1" /><path clip-path="url(#clip050)" d="M1630.62 9.54393 L1638.08 9.54393 L1638.08 72.576 L1630.62 72.576 L1630.62 9.54393 Z" fill="#000000" fill-rule="nonzero" fill-opacity="1" /><path clip-path="url(#clip050)" d="M1692.48 48.0275 L1692.48 51.6733 L1658.21 51.6733 Q1658.7 59.3701 1662.83 63.421 Q1667 67.4314 1674.41 67.4314 Q1678.71 67.4314 1682.72 66.3781 Q1686.77 65.3249 1690.74 63.2184 L1690.74 70.267 Q1686.73 71.9684 1682.52 72.8596 Q1678.3 73.7508 1673.97 73.7508 Q1663.11 73.7508 1656.75 67.4314 Q1650.43 61.1119 1650.43 50.3365 Q1650.43 39.1965 1656.43 32.6746 Q1662.46 26.1121 1672.67 26.1121 Q1681.83 26.1121 1687.13 32.0264 Q1692.48 37.9003 1692.48 48.0275 M1685.03 45.84 Q1684.95 39.7232 1681.58 36.0774 Q1678.26 32.4315 1672.75 32.4315 Q1666.51 32.4315 1662.75 35.9558 Q1659.02 39.4801 1658.45 45.8805 L1685.03 45.84 Z" fill="#000000" fill-rule="nonzero" fill-opacity="1" /><path clip-path="url(#clip050)" d="M1754.05 9.54393 L1754.05 15.7418 L1746.92 15.7418 Q1742.91 15.7418 1741.33 17.3622 Q1739.79 18.9825 1739.79 23.1955 L1739.79 27.2059 L1752.07 27.2059 L1752.07 32.9987 L1739.79 32.9987 L1739.79 72.576 L1732.3 72.576 L1732.3 32.9987 L1725.17 32.9987 L1725.17 27.2059 L1732.3 27.2059 L1732.3 24.0462 Q1732.3 16.471 1735.83 13.0277 Q1739.35 9.54393 1747.01 9.54393 L1754.05 9.54393 Z" fill="#000000" fill-rule="nonzero" fill-opacity="1" /><path clip-path="url(#clip050)" d="M1777.87 32.4315 Q1771.88 32.4315 1768.39 37.1306 Q1764.91 41.7891 1764.91 49.9314 Q1764.91 58.0738 1768.35 62.7728 Q1771.84 67.4314 1777.87 67.4314 Q1783.83 67.4314 1787.31 62.7323 Q1790.8 58.0333 1790.8 49.9314 Q1790.8 41.8701 1787.31 37.1711 Q1783.83 32.4315 1777.87 32.4315 M1777.87 26.1121 Q1787.6 26.1121 1793.15 32.4315 Q1798.7 38.7509 1798.7 49.9314 Q1798.7 61.0714 1793.15 67.4314 Q1787.6 73.7508 1777.87 73.7508 Q1768.11 73.7508 1762.56 67.4314 Q1757.05 61.0714 1757.05 49.9314 Q1757.05 38.7509 1762.56 32.4315 Q1768.11 26.1121 1777.87 26.1121 Z" fill="#000000" fill-rule="nonzero" fill-opacity="1" /><path clip-path="url(#clip050)" d="M1837.34 34.1734 Q1836.08 33.4443 1834.59 33.1202 Q1833.13 32.7556 1831.35 32.7556 Q1825.03 32.7556 1821.62 36.8875 Q1818.26 40.9789 1818.26 48.6757 L1818.26 72.576 L1810.77 72.576 L1810.77 27.2059 L1818.26 27.2059 L1818.26 34.2544 Q1820.61 30.1225 1824.38 28.1376 Q1828.15 26.1121 1833.53 26.1121 Q1834.3 26.1121 1835.23 26.2337 Q1836.17 26.3147 1837.3 26.5172 L1837.34 34.1734 Z" fill="#000000" fill-rule="nonzero" fill-opacity="1" /><path clip-path="url(#clip050)" d="M1878.98 69.7809 L1878.98 89.8329 L1871.49 89.8329 L1871.49 27.4894 Q1871.49 9.01731 1888.75 9.01731 Q1906.33 9.01731 1906.33 24.6133 Q1906.33 35.7128 1899.36 39.7637 Q1910.7 43.4095 1910.7 54.2254 Q1910.7 73.4267 1891.18 73.4267 Q1882.59 73.4267 1878.98 69.7809 M1878.98 60.0587 Q1883.48 67.0668 1891.46 67.0668 Q1903.13 67.0668 1903.13 54.3469 Q1903.13 42.9234 1884.33 43.8146 L1884.33 36.928 Q1899.04 36.928 1899.04 23.9651 Q1899.04 15.0937 1889.56 15.0937 Q1878.98 15.0937 1878.98 27.7325 L1878.98 60.0587 Z" fill="#000000" fill-rule="nonzero" fill-opacity="1" /><path clip-path="url(#clip050)" d="M1939.75 45.1514 Q1937.72 41.6676 1933.63 41.6676 Q1929.54 41.6676 1927.51 45.1514 Q1925.45 48.6352 1925.45 55.6027 Q1925.45 62.6108 1927.51 66.0946 Q1929.54 69.5783 1933.63 69.5783 Q1937.72 69.5783 1939.75 66.0946 Q1941.81 62.6108 1941.81 55.6027 Q1941.81 48.6352 1939.75 45.1514 M1933.63 38.0623 Q1940.15 38.0623 1943.6 42.5588 Q1947.04 47.0553 1947.04 55.6027 Q1947.04 64.1906 1943.6 68.6871 Q1940.15 73.1836 1933.63 73.1836 Q1927.07 73.1836 1923.63 68.6871 Q1920.18 64.1906 1920.18 55.6027 Q1920.18 47.0553 1923.63 42.5588 Q1927.07 38.0623 1933.63 38.0623 Z" fill="#000000" fill-rule="nonzero" fill-opacity="1" /><polyline clip-path="url(#clip051)" style="stroke:#009af9; stroke-linecap:round; stroke-linejoin:round; stroke-width:8; stroke-opacity:1; fill:none" points="374.733,1688.65 474.734,991.868 574.735,583.416 674.736,380.211 774.737,284.896 874.738,220.713 974.739,188.967 1074.74,174.253 1174.74,173.254 1274.74,181.84 1374.74,197.218 1474.74,218.284 1574.75,247.826 1674.75,271.414 1774.75,316.666 1874.75,345.102 1974.75,396.198 2074.75,427.569 2174.75,457.262 2274.75,521.196 2374.75,532.712 2474.75,603.11 2574.76,616.013 "/>
<circle clip-path="url(#clip051)" cx="374.733" cy="1688.65" r="10.8" fill="#009af9" fill-rule="evenodd" fill-opacity="1" stroke="#000000" stroke-opacity="1" stroke-width="3.84"/>
<circle clip-path="url(#clip051)" cx="474.734" cy="991.868" r="10.8" fill="#009af9" fill-rule="evenodd" fill-opacity="1" stroke="#000000" stroke-opacity="1" stroke-width="3.84"/>
<circle clip-path="url(#clip051)" cx="574.735" cy="583.416" r="10.8" fill="#009af9" fill-rule="evenodd" fill-opacity="1" stroke="#000000" stroke-opacity="1" stroke-width="3.84"/>
<circle clip-path="url(#clip051)" cx="674.736" cy="380.211" r="10.8" fill="#009af9" fill-rule="evenodd" fill-opacity="1" stroke="#000000" stroke-opacity="1" stroke-width="3.84"/>
<circle clip-path="url(#clip051)" cx="774.737" cy="284.896" r="10.8" fill="#009af9" fill-rule="evenodd" fill-opacity="1" stroke="#000000" stroke-opacity="1" stroke-width="3.84"/>
<circle clip-path="url(#clip051)" cx="874.738" cy="220.713" r="10.8" fill="#009af9" fill-rule="evenodd" fill-opacity="1" stroke="#000000" stroke-opacity="1" stroke-width="3.84"/>
<circle clip-path="url(#clip051)" cx="974.739" cy="188.967" r="10.8" fill="#009af9" fill-rule="evenodd" fill-opacity="1" stroke="#000000" stroke-opacity="1" stroke-width="3.84"/>
<circle clip-path="url(#clip051)" cx="1074.74" cy="174.253" r="10.8" fill="#009af9" fill-rule="evenodd" fill-opacity="1" stroke="#000000" stroke-opacity="1" stroke-width="3.84"/>
<circle clip-path="url(#clip051)" cx="1174.74" cy="173.254" r="10.8" fill="#009af9" fill-rule="evenodd" fill-opacity="1" stroke="#000000" stroke-opacity="1" stroke-width="3.84"/>
<circle clip-path="url(#clip051)" cx="1274.74" cy="181.84" r="10.8" fill="#009af9" fill-rule="evenodd" fill-opacity="1" stroke="#000000" stroke-opacity="1" stroke-width="3.84"/>
<circle clip-path="url(#clip051)" cx="1374.74" cy="197.218" r="10.8" fill="#009af9" fill-rule="evenodd" fill-opacity="1" stroke="#000000" stroke-opacity="1" stroke-width="3.84"/>
<circle clip-path="url(#clip051)" cx="1474.74" cy="218.284" r="10.8" fill="#009af9" fill-rule="evenodd" fill-opacity="1" stroke="#000000" stroke-opacity="1" stroke-width="3.84"/>
<circle clip-path="url(#clip051)" cx="1574.75" cy="247.826" r="10.8" fill="#009af9" fill-rule="evenodd" fill-opacity="1" stroke="#000000" stroke-opacity="1" stroke-width="3.84"/>
<circle clip-path="url(#clip051)" cx="1674.75" cy="271.414" r="10.8" fill="#009af9" fill-rule="evenodd" fill-opacity="1" stroke="#000000" stroke-opacity="1" stroke-width="3.84"/>
<circle clip-path="url(#clip051)" cx="1774.75" cy="316.666" r="10.8" fill="#009af9" fill-rule="evenodd" fill-opacity="1" stroke="#000000" stroke-opacity="1" stroke-width="3.84"/>
<circle clip-path="url(#clip051)" cx="1874.75" cy="345.102" r="10.8" fill="#009af9" fill-rule="evenodd" fill-opacity="1" stroke="#000000" stroke-opacity="1" stroke-width="3.84"/>
<circle clip-path="url(#clip051)" cx="1974.75" cy="396.198" r="10.8" fill="#009af9" fill-rule="evenodd" fill-opacity="1" stroke="#000000" stroke-opacity="1" stroke-width="3.84"/>
<circle clip-path="url(#clip051)" cx="2074.75" cy="427.569" r="10.8" fill="#009af9" fill-rule="evenodd" fill-opacity="1" stroke="#000000" stroke-opacity="1" stroke-width="3.84"/>
<circle clip-path="url(#clip051)" cx="2174.75" cy="457.262" r="10.8" fill="#009af9" fill-rule="evenodd" fill-opacity="1" stroke="#000000" stroke-opacity="1" stroke-width="3.84"/>
<circle clip-path="url(#clip051)" cx="2274.75" cy="521.196" r="10.8" fill="#009af9" fill-rule="evenodd" fill-opacity="1" stroke="#000000" stroke-opacity="1" stroke-width="3.84"/>
<circle clip-path="url(#clip051)" cx="2374.75" cy="532.712" r="10.8" fill="#009af9" fill-rule="evenodd" fill-opacity="1" stroke="#000000" stroke-opacity="1" stroke-width="3.84"/>
<circle clip-path="url(#clip051)" cx="2474.75" cy="603.11" r="10.8" fill="#009af9" fill-rule="evenodd" fill-opacity="1" stroke="#000000" stroke-opacity="1" stroke-width="3.84"/>
<circle clip-path="url(#clip051)" cx="2574.76" cy="616.013" r="10.8" fill="#009af9" fill-rule="evenodd" fill-opacity="1" stroke="#000000" stroke-opacity="1" stroke-width="3.84"/>
<polyline clip-path="url(#clip051)" style="stroke:#ff0000; stroke-linecap:round; stroke-linejoin:round; stroke-width:4; stroke-opacity:1; fill:none" stroke-dasharray="16, 10" points="1124.74,3340.44 1124.74,-1478.53 "/>
<path clip-path="url(#clip050)" d="M2166.3 1680.57 L2563.02 1680.57 L2563.02 1576.89 L2166.3 1576.89  Z" fill="#ffffff" fill-rule="evenodd" fill-opacity="1"/>
<polyline clip-path="url(#clip050)" style="stroke:#000000; stroke-linecap:round; stroke-linejoin:round; stroke-width:4; stroke-opacity:1; fill:none" points="2166.3,1680.57 2563.02,1680.57 2563.02,1576.89 2166.3,1576.89 2166.3,1680.57 "/>
<polyline clip-path="url(#clip050)" style="stroke:#ff0000; stroke-linecap:round; stroke-linejoin:round; stroke-width:4; stroke-opacity:1; fill:none" stroke-dasharray="16, 10" points="2192.21,1628.73 2347.68,1628.73 "/>
<path clip-path="url(#clip050)" d="M2373.59 1611.45 L2402.83 1611.45 L2402.83 1615.39 L2390.56 1615.39 L2390.56 1646.01 L2385.86 1646.01 L2385.86 1615.39 L2373.59 1615.39 L2373.59 1611.45 Z" fill="#000000" fill-rule="nonzero" fill-opacity="1" /><path clip-path="url(#clip050)" d="M2415.21 1624.07 Q2414.5 1623.65 2413.64 1623.47 Q2412.81 1623.26 2411.79 1623.26 Q2408.18 1623.26 2406.23 1625.62 Q2404.31 1627.96 2404.31 1632.36 L2404.31 1646.01 L2400.03 1646.01 L2400.03 1620.09 L2404.31 1620.09 L2404.31 1624.11 Q2405.65 1621.75 2407.81 1620.62 Q2409.96 1619.46 2413.04 1619.46 Q2413.48 1619.46 2414.01 1619.53 Q2414.54 1619.58 2415.19 1619.69 L2415.21 1624.07 Z" fill="#000000" fill-rule="nonzero" fill-opacity="1" /><path clip-path="url(#clip050)" d="M2419.24 1635.78 L2419.24 1620.09 L2423.5 1620.09 L2423.5 1635.62 Q2423.5 1639.3 2424.94 1641.15 Q2426.37 1642.98 2429.24 1642.98 Q2432.69 1642.98 2434.68 1640.78 Q2436.69 1638.58 2436.69 1634.79 L2436.69 1620.09 L2440.95 1620.09 L2440.95 1646.01 L2436.69 1646.01 L2436.69 1642.03 Q2435.14 1644.39 2433.08 1645.55 Q2431.05 1646.68 2428.34 1646.68 Q2423.87 1646.68 2421.56 1643.91 Q2419.24 1641.13 2419.24 1635.78 M2429.96 1619.46 L2429.96 1619.46 Z" fill="#000000" fill-rule="nonzero" fill-opacity="1" /><path clip-path="url(#clip050)" d="M2471.9 1631.99 L2471.9 1634.07 L2452.32 1634.07 Q2452.6 1638.47 2454.96 1640.78 Q2457.34 1643.07 2461.58 1643.07 Q2464.03 1643.07 2466.32 1642.47 Q2468.64 1641.87 2470.91 1640.67 L2470.91 1644.69 Q2468.62 1645.67 2466.21 1646.17 Q2463.8 1646.68 2461.32 1646.68 Q2455.12 1646.68 2451.49 1643.07 Q2447.87 1639.46 2447.87 1633.3 Q2447.87 1626.94 2451.3 1623.21 Q2454.75 1619.46 2460.58 1619.46 Q2465.81 1619.46 2468.85 1622.84 Q2471.9 1626.2 2471.9 1631.99 M2467.64 1630.74 Q2467.6 1627.24 2465.68 1625.16 Q2463.78 1623.07 2460.63 1623.07 Q2457.06 1623.07 2454.91 1625.09 Q2452.78 1627.1 2452.46 1630.76 L2467.64 1630.74 Z" fill="#000000" fill-rule="nonzero" fill-opacity="1" /><path clip-path="url(#clip050)" d="M2498.22 1644.42 L2498.22 1655.87 L2493.94 1655.87 L2493.94 1620.25 Q2493.94 1609.69 2503.8 1609.69 Q2513.85 1609.69 2513.85 1618.61 Q2513.85 1624.95 2509.87 1627.26 Q2516.35 1629.35 2516.35 1635.53 Q2516.35 1646.5 2505.19 1646.5 Q2500.28 1646.5 2498.22 1644.42 M2498.22 1638.86 Q2500.79 1642.86 2505.35 1642.86 Q2512.02 1642.86 2512.02 1635.6 Q2512.02 1629.07 2501.28 1629.58 L2501.28 1625.64 Q2509.68 1625.64 2509.68 1618.24 Q2509.68 1613.17 2504.26 1613.17 Q2498.22 1613.17 2498.22 1620.39 L2498.22 1638.86 Z" fill="#000000" fill-rule="nonzero" fill-opacity="1" /><path clip-path="url(#clip050)" d="M2532.94 1630.34 Q2531.79 1628.35 2529.45 1628.35 Q2527.11 1628.35 2525.95 1630.34 Q2524.77 1632.33 2524.77 1636.31 Q2524.77 1640.32 2525.95 1642.31 Q2527.11 1644.3 2529.45 1644.3 Q2531.79 1644.3 2532.94 1642.31 Q2534.12 1640.32 2534.12 1636.31 Q2534.12 1632.33 2532.94 1630.34 M2529.45 1626.29 Q2533.18 1626.29 2535.14 1628.86 Q2537.11 1631.43 2537.11 1636.31 Q2537.11 1641.22 2535.14 1643.79 Q2533.18 1646.36 2529.45 1646.36 Q2525.7 1646.36 2523.73 1643.79 Q2521.76 1641.22 2521.76 1636.31 Q2521.76 1631.43 2523.73 1628.86 Q2525.7 1626.29 2529.45 1626.29 Z" fill="#000000" fill-rule="nonzero" fill-opacity="1" /></svg>
