<?xml version="1.0" encoding="utf-8"?>
<svg xmlns="http://www.w3.org/2000/svg" xmlns:xlink="http://www.w3.org/1999/xlink" width="672" height="480" viewBox="0 0 2688 1920">
<defs>
  <clipPath id="clip360">
    <rect x="0" y="0" width="2688" height="1920"/>
  </clipPath>
</defs>
<path clip-path="url(#clip360)" d="M0 1920 L2688 1920 L2688 -4.26326e-14 L0 -4.26326e-14  Z" fill="#ffffff" fill-rule="evenodd" fill-opacity="1"/>
<defs>
  <clipPath id="clip361">
    <rect x="181" y="127" width="2460" height="1607"/>
  </clipPath>
</defs>
<path clip-path="url(#clip360)" d="M181.719 1734.12 L2640.76 1734.12 L2640.76 127.792 L181.719 127.792  Z" fill="#ffffff" fill-rule="evenodd" fill-opacity="1"/>
<polyline clip-path="url(#clip361)" style="stroke:#000000; stroke-linecap:round; stroke-linejoin:round; stroke-width:2; stroke-opacity:0.1; fill:none" points="251.315,1734.12 251.315,127.792 "/>
<polyline clip-path="url(#clip361)" style="stroke:#000000; stroke-linecap:round; stroke-linejoin:round; stroke-width:2; stroke-opacity:0.1; fill:none" points="784.613,1734.12 784.613,127.792 "/>
<polyline clip-path="url(#clip361)" style="stroke:#000000; stroke-linecap:round; stroke-linejoin:round; stroke-width:2; stroke-opacity:0.1; fill:none" points="1317.91,1734.12 1317.91,127.792 "/>
<polyline clip-path="url(#clip361)" style="stroke:#000000; stroke-linecap:round; stroke-linejoin:round; stroke-width:2; stroke-opacity:0.1; fill:none" points="1851.21,1734.12 1851.21,127.792 "/>
<polyline clip-path="url(#clip361)" style="stroke:#000000; stroke-linecap:round; stroke-linejoin:round; stroke-width:2; stroke-opacity:0.1; fill:none" points="2384.51,1734.12 2384.51,127.792 "/>
<polyline clip-path="url(#clip361)" style="stroke:#000000; stroke-linecap:round; stroke-linejoin:round; stroke-width:2; stroke-opacity:0.1; fill:none" points="181.719,1690.23 2640.76,1690.23 "/>
<polyline clip-path="url(#clip361)" style="stroke:#000000; stroke-linecap:round; stroke-linejoin:round; stroke-width:2; stroke-opacity:0.1; fill:none" points="181.719,1184.52 2640.76,1184.52 "/>
<polyline clip-path="url(#clip361)" style="stroke:#000000; stroke-linecap:round; stroke-linejoin:round; stroke-width:2; stroke-opacity:0.1; fill:none" points="181.719,678.797 2640.76,678.797 "/>
<polyline clip-path="url(#clip361)" style="stroke:#000000; stroke-linecap:round; stroke-linejoin:round; stroke-width:2; stroke-opacity:0.1; fill:none" points="181.719,173.079 2640.76,173.079 "/>
<polyline clip-path="url(#clip360)" style="stroke:#000000; stroke-linecap:round; stroke-linejoin:round; stroke-width:4; stroke-opacity:1; fill:none" points="181.719,1734.12 2640.76,1734.12 "/>
<polyline clip-path="url(#clip360)" style="stroke:#000000; stroke-linecap:round; stroke-linejoin:round; stroke-width:4; stroke-opacity:1; fill:none" points="251.315,1734.12 251.315,1715.22 "/>
<polyline clip-path="url(#clip360)" style="stroke:#000000; stroke-linecap:round; stroke-linejoin:round; stroke-width:4; stroke-opacity:1; fill:none" points="784.613,1734.12 784.613,1715.22 "/>
<polyline clip-path="url(#clip360)" style="stroke:#000000; stroke-linecap:round; stroke-linejoin:round; stroke-width:4; stroke-opacity:1; fill:none" points="1317.91,1734.12 1317.91,1715.22 "/>
<polyline clip-path="url(#clip360)" style="stroke:#000000; stroke-linecap:round; stroke-linejoin:round; stroke-width:4; stroke-opacity:1; fill:none" points="1851.21,1734.12 1851.21,1715.22 "/>
<polyline clip-path="url(#clip360)" style="stroke:#000000; stroke-linecap:round; stroke-linejoin:round; stroke-width:4; stroke-opacity:1; fill:none" points="2384.51,1734.12 2384.51,1715.22 "/>
<path clip-path="url(#clip360)" d="M251.315 1767.34 Q247.704 1767.34 245.875 1770.9 Q244.07 1774.45 244.07 1781.58 Q244.07 1788.68 245.875 1792.25 Q247.704 1795.79 251.315 1795.79 Q254.949 1795.79 256.755 1792.25 Q258.583 1788.68 258.583 1781.58 Q258.583 1774.45 256.755 1770.9 Q254.949 1767.34 251.315 1767.34 M251.315 1763.64 Q257.125 1763.64 260.181 1768.24 Q263.259 1772.83 263.259 1781.58 Q263.259 1790.3 260.181 1794.91 Q257.125 1799.49 251.315 1799.49 Q245.505 1799.49 242.426 1794.91 Q239.37 1790.3 239.37 1781.58 Q239.37 1772.83 242.426 1768.24 Q245.505 1763.64 251.315 1763.64 Z" fill="#000000" fill-rule="nonzero" fill-opacity="1" /><path clip-path="url(#clip360)" d="M748.305 1794.89 L764.624 1794.89 L764.624 1798.82 L742.68 1798.82 L742.68 1794.89 Q745.342 1792.13 749.925 1787.5 Q754.532 1782.85 755.712 1781.51 Q757.958 1778.98 758.837 1777.25 Q759.74 1775.49 759.74 1773.8 Q759.74 1771.04 757.796 1769.31 Q755.874 1767.57 752.773 1767.57 Q750.574 1767.57 748.12 1768.34 Q745.689 1769.1 742.912 1770.65 L742.912 1765.93 Q745.736 1764.79 748.189 1764.21 Q750.643 1763.64 752.68 1763.64 Q758.05 1763.64 761.245 1766.32 Q764.439 1769.01 764.439 1773.5 Q764.439 1775.63 763.629 1777.55 Q762.842 1779.45 760.736 1782.04 Q760.157 1782.71 757.055 1785.93 Q753.953 1789.12 748.305 1794.89 Z" fill="#000000" fill-rule="nonzero" fill-opacity="1" /><path clip-path="url(#clip360)" d="M784.439 1767.34 Q780.828 1767.34 778.999 1770.9 Q777.194 1774.45 777.194 1781.58 Q777.194 1788.68 778.999 1792.25 Q780.828 1795.79 784.439 1795.79 Q788.073 1795.79 789.879 1792.25 Q791.708 1788.68 791.708 1781.58 Q791.708 1774.45 789.879 1770.9 Q788.073 1767.34 784.439 1767.34 M784.439 1763.64 Q790.249 1763.64 793.305 1768.24 Q796.383 1772.83 796.383 1781.58 Q796.383 1790.3 793.305 1794.91 Q790.249 1799.49 784.439 1799.49 Q778.629 1799.49 775.55 1794.91 Q772.495 1790.3 772.495 1781.58 Q772.495 1772.83 775.55 1768.24 Q778.629 1763.64 784.439 1763.64 Z" fill="#000000" fill-rule="nonzero" fill-opacity="1" /><path clip-path="url(#clip360)" d="M814.601 1767.34 Q810.99 1767.34 809.161 1770.9 Q807.356 1774.45 807.356 1781.58 Q807.356 1788.68 809.161 1792.25 Q810.99 1795.79 814.601 1795.79 Q818.235 1795.79 820.041 1792.25 Q821.869 1788.68 821.869 1781.58 Q821.869 1774.45 820.041 1770.9 Q818.235 1767.34 814.601 1767.34 M814.601 1763.64 Q820.411 1763.64 823.467 1768.24 Q826.545 1772.83 826.545 1781.58 Q826.545 1790.3 823.467 1794.91 Q820.411 1799.49 814.601 1799.49 Q808.791 1799.49 805.712 1794.91 Q802.657 1790.3 802.657 1781.58 Q802.657 1772.83 805.712 1768.24 Q808.791 1763.64 814.601 1763.64 Z" fill="#000000" fill-rule="nonzero" fill-opacity="1" /><path clip-path="url(#clip360)" d="M1291 1768.34 L1279.2 1786.78 L1291 1786.78 L1291 1768.34 M1289.77 1764.26 L1295.65 1764.26 L1295.65 1786.78 L1300.58 1786.78 L1300.58 1790.67 L1295.65 1790.67 L1295.65 1798.82 L1291 1798.82 L1291 1790.67 L1275.4 1790.67 L1275.4 1786.16 L1289.77 1764.26 Z" fill="#000000" fill-rule="nonzero" fill-opacity="1" /><path clip-path="url(#clip360)" d="M1318.32 1767.34 Q1314.7 1767.34 1312.88 1770.9 Q1311.07 1774.45 1311.07 1781.58 Q1311.07 1788.68 1312.88 1792.25 Q1314.7 1795.79 1318.32 1795.79 Q1321.95 1795.79 1323.76 1792.25 Q1325.58 1788.68 1325.58 1781.58 Q1325.58 1774.45 1323.76 1770.9 Q1321.95 1767.34 1318.32 1767.34 M1318.32 1763.64 Q1324.13 1763.64 1327.18 1768.24 Q1330.26 1772.83 1330.26 1781.58 Q1330.26 1790.3 1327.18 1794.91 Q1324.13 1799.49 1318.32 1799.49 Q1312.51 1799.49 1309.43 1794.91 Q1306.37 1790.3 1306.37 1781.58 Q1306.37 1772.83 1309.43 1768.24 Q1312.51 1763.64 1318.32 1763.64 Z" fill="#000000" fill-rule="nonzero" fill-opacity="1" /><path clip-path="url(#clip360)" d="M1348.48 1767.34 Q1344.87 1767.34 1343.04 1770.9 Q1341.23 1774.45 1341.23 1781.58 Q1341.23 1788.68 1343.04 1792.25 Q1344.87 1795.79 1348.48 1795.79 Q1352.11 1795.79 1353.92 1792.25 Q1355.75 1788.68 1355.75 1781.58 Q1355.75 1774.45 1353.92 1770.9 Q1352.11 1767.34 1348.48 1767.34 M1348.48 1763.64 Q1354.29 1763.64 1357.34 1768.24 Q1360.42 1772.83 1360.42 1781.58 Q1360.42 1790.3 1357.34 1794.91 Q1354.29 1799.49 1348.48 1799.49 Q1342.67 1799.49 1339.59 1794.91 Q1336.53 1790.3 1336.53 1781.58 Q1336.53 1772.83 1339.59 1768.24 Q1342.67 1763.64 1348.48 1763.64 Z" fill="#000000" fill-rule="nonzero" fill-opacity="1" /><path clip-path="url(#clip360)" d="M1821.53 1779.68 Q1818.38 1779.68 1816.53 1781.83 Q1814.7 1783.98 1814.7 1787.73 Q1814.7 1791.46 1816.53 1793.64 Q1818.38 1795.79 1821.53 1795.79 Q1824.68 1795.79 1826.51 1793.64 Q1828.36 1791.46 1828.36 1787.73 Q1828.36 1783.98 1826.51 1781.83 Q1824.68 1779.68 1821.53 1779.68 M1830.82 1765.02 L1830.82 1769.28 Q1829.06 1768.45 1827.25 1768.01 Q1825.47 1767.57 1823.71 1767.57 Q1819.08 1767.57 1816.63 1770.7 Q1814.19 1773.82 1813.85 1780.14 Q1815.21 1778.13 1817.27 1777.06 Q1819.33 1775.97 1821.81 1775.97 Q1827.02 1775.97 1830.03 1779.15 Q1833.06 1782.29 1833.06 1787.73 Q1833.06 1793.06 1829.91 1796.27 Q1826.76 1799.49 1821.53 1799.49 Q1815.54 1799.49 1812.37 1794.91 Q1809.19 1790.3 1809.19 1781.58 Q1809.19 1773.38 1813.08 1768.52 Q1816.97 1763.64 1823.52 1763.64 Q1825.28 1763.64 1827.07 1763.98 Q1828.87 1764.33 1830.82 1765.02 Z" fill="#000000" fill-rule="nonzero" fill-opacity="1" /><path clip-path="url(#clip360)" d="M1851.12 1767.34 Q1847.5 1767.34 1845.68 1770.9 Q1843.87 1774.45 1843.87 1781.58 Q1843.87 1788.68 1845.68 1792.25 Q1847.5 1795.79 1851.12 1795.79 Q1854.75 1795.79 1856.56 1792.25 Q1858.38 1788.68 1858.38 1781.58 Q1858.38 1774.45 1856.56 1770.9 Q1854.75 1767.34 1851.12 1767.34 M1851.12 1763.64 Q1856.93 1763.64 1859.98 1768.24 Q1863.06 1772.83 1863.06 1781.58 Q1863.06 1790.3 1859.98 1794.91 Q1856.93 1799.49 1851.12 1799.49 Q1845.31 1799.49 1842.23 1794.91 Q1839.17 1790.3 1839.17 1781.58 Q1839.17 1772.83 1842.23 1768.24 Q1845.31 1763.64 1851.12 1763.64 Z" fill="#000000" fill-rule="nonzero" fill-opacity="1" /><path clip-path="url(#clip360)" d="M1881.28 1767.34 Q1877.67 1767.34 1875.84 1770.9 Q1874.03 1774.45 1874.03 1781.58 Q1874.03 1788.68 1875.84 1792.25 Q1877.67 1795.79 1881.28 1795.79 Q1884.91 1795.79 1886.72 1792.25 Q1888.55 1788.68 1888.55 1781.58 Q1888.55 1774.45 1886.72 1770.9 Q1884.91 1767.34 1881.28 1767.34 M1881.28 1763.64 Q1887.09 1763.64 1890.14 1768.24 Q1893.22 1772.83 1893.22 1781.58 Q1893.22 1790.3 1890.14 1794.91 Q1887.09 1799.49 1881.28 1799.49 Q1875.47 1799.49 1872.39 1794.91 Q1869.33 1790.3 1869.33 1781.58 Q1869.33 1772.83 1872.39 1768.24 Q1875.47 1763.64 1881.28 1763.64 Z" fill="#000000" fill-rule="nonzero" fill-opacity="1" /><path clip-path="url(#clip360)" d="M2354.3 1782.41 Q2350.96 1782.41 2349.04 1784.19 Q2347.15 1785.97 2347.15 1789.1 Q2347.15 1792.22 2349.04 1794.01 Q2350.96 1795.79 2354.3 1795.79 Q2357.63 1795.79 2359.55 1794.01 Q2361.47 1792.2 2361.47 1789.1 Q2361.47 1785.97 2359.55 1784.19 Q2357.65 1782.41 2354.3 1782.41 M2349.62 1780.42 Q2346.61 1779.68 2344.92 1777.62 Q2343.26 1775.56 2343.26 1772.59 Q2343.26 1768.45 2346.2 1766.04 Q2349.16 1763.64 2354.3 1763.64 Q2359.46 1763.64 2362.4 1766.04 Q2365.34 1768.45 2365.34 1772.59 Q2365.34 1775.56 2363.65 1777.62 Q2361.98 1779.68 2359 1780.42 Q2362.38 1781.21 2364.25 1783.5 Q2366.15 1785.79 2366.15 1789.1 Q2366.15 1794.12 2363.07 1796.81 Q2360.02 1799.49 2354.3 1799.49 Q2348.58 1799.49 2345.5 1796.81 Q2342.45 1794.12 2342.45 1789.1 Q2342.45 1785.79 2344.34 1783.5 Q2346.24 1781.21 2349.62 1780.42 M2347.91 1773.03 Q2347.91 1775.72 2349.58 1777.22 Q2351.27 1778.73 2354.3 1778.73 Q2357.31 1778.73 2359 1777.22 Q2360.71 1775.72 2360.71 1773.03 Q2360.71 1770.35 2359 1768.84 Q2357.31 1767.34 2354.3 1767.34 Q2351.27 1767.34 2349.58 1768.84 Q2347.91 1770.35 2347.91 1773.03 Z" fill="#000000" fill-rule="nonzero" fill-opacity="1" /><path clip-path="url(#clip360)" d="M2384.46 1767.34 Q2380.85 1767.34 2379.02 1770.9 Q2377.21 1774.45 2377.21 1781.58 Q2377.21 1788.68 2379.02 1792.25 Q2380.85 1795.79 2384.46 1795.79 Q2388.09 1795.79 2389.9 1792.25 Q2391.73 1788.68 2391.73 1781.58 Q2391.73 1774.45 2389.9 1770.9 Q2388.09 1767.34 2384.46 1767.34 M2384.46 1763.64 Q2390.27 1763.64 2393.33 1768.24 Q2396.4 1772.83 2396.4 1781.58 Q2396.4 1790.3 2393.33 1794.91 Q2390.27 1799.49 2384.46 1799.49 Q2378.65 1799.49 2375.57 1794.91 Q2372.52 1790.3 2372.52 1781.58 Q2372.52 1772.83 2375.57 1768.24 Q2378.65 1763.64 2384.46 1763.64 Z" fill="#000000" fill-rule="nonzero" fill-opacity="1" /><path clip-path="url(#clip360)" d="M2414.62 1767.34 Q2411.01 1767.34 2409.18 1770.9 Q2407.38 1774.45 2407.38 1781.58 Q2407.38 1788.68 2409.18 1792.25 Q2411.01 1795.79 2414.62 1795.79 Q2418.26 1795.79 2420.06 1792.25 Q2421.89 1788.68 2421.89 1781.58 Q2421.89 1774.45 2420.06 1770.9 Q2418.26 1767.34 2414.62 1767.34 M2414.62 1763.64 Q2420.43 1763.64 2423.49 1768.24 Q2426.57 1772.83 2426.57 1781.58 Q2426.57 1790.3 2423.49 1794.91 Q2420.43 1799.49 2414.62 1799.49 Q2408.81 1799.49 2405.73 1794.91 Q2402.68 1790.3 2402.68 1781.58 Q2402.68 1772.83 2405.73 1768.24 Q2408.81 1763.64 2414.62 1763.64 Z" fill="#000000" fill-rule="nonzero" fill-opacity="1" /><path clip-path="url(#clip360)" d="M1357.48 1841.06 L1357.48 1878.02 L1365.25 1878.02 Q1375.08 1878.02 1379.63 1873.56 Q1384.22 1869.11 1384.22 1859.49 Q1384.22 1849.94 1379.63 1845.52 Q1375.08 1841.06 1365.25 1841.06 L1357.48 1841.06 M1351.05 1835.78 L1364.26 1835.78 Q1378.07 1835.78 1384.53 1841.54 Q1390.99 1847.27 1390.99 1859.49 Q1390.99 1871.78 1384.5 1877.54 Q1378.01 1883.3 1364.26 1883.3 L1351.05 1883.3 L1351.05 1835.78 Z" fill="#000000" fill-rule="nonzero" fill-opacity="1" /><path clip-path="url(#clip360)" d="M1417.19 1865.38 Q1410.09 1865.38 1407.35 1867 Q1404.62 1868.63 1404.62 1872.54 Q1404.62 1875.66 1406.65 1877.51 Q1408.72 1879.32 1412.26 1879.32 Q1417.13 1879.32 1420.05 1875.88 Q1423.01 1872.42 1423.01 1866.69 L1423.01 1865.38 L1417.19 1865.38 M1428.87 1862.96 L1428.87 1883.3 L1423.01 1883.3 L1423.01 1877.89 Q1421.01 1881.14 1418.02 1882.7 Q1415.03 1884.22 1410.7 1884.22 Q1405.22 1884.22 1401.98 1881.17 Q1398.76 1878.08 1398.76 1872.92 Q1398.76 1866.91 1402.77 1863.85 Q1406.81 1860.8 1414.8 1860.8 L1423.01 1860.8 L1423.01 1860.23 Q1423.01 1856.18 1420.34 1853.99 Q1417.7 1851.76 1412.89 1851.76 Q1409.84 1851.76 1406.94 1852.49 Q1404.04 1853.22 1401.37 1854.69 L1401.37 1849.28 Q1404.59 1848.03 1407.61 1847.43 Q1410.63 1846.79 1413.5 1846.79 Q1421.23 1846.79 1425.05 1850.8 Q1428.87 1854.81 1428.87 1862.96 Z" fill="#000000" fill-rule="nonzero" fill-opacity="1" /><path clip-path="url(#clip360)" d="M1455.77 1886.61 Q1453.28 1892.98 1450.93 1894.92 Q1448.57 1896.86 1444.63 1896.86 L1439.95 1896.86 L1439.95 1891.96 L1443.38 1891.96 Q1445.8 1891.96 1447.14 1890.81 Q1448.48 1889.67 1450.1 1885.4 L1451.15 1882.73 L1436.73 1847.65 L1442.94 1847.65 L1454.08 1875.53 L1465.22 1847.65 L1471.43 1847.65 L1455.77 1886.61 Z" fill="#000000" fill-rule="nonzero" fill-opacity="1" /><polyline clip-path="url(#clip360)" style="stroke:#000000; stroke-linecap:round; stroke-linejoin:round; stroke-width:4; stroke-opacity:1; fill:none" points="181.719,1734.12 181.719,127.792 "/>
<polyline clip-path="url(#clip360)" style="stroke:#000000; stroke-linecap:round; stroke-linejoin:round; stroke-width:4; stroke-opacity:1; fill:none" points="181.719,1690.23 200.617,1690.23 "/>
<polyline clip-path="url(#clip360)" style="stroke:#000000; stroke-linecap:round; stroke-linejoin:round; stroke-width:4; stroke-opacity:1; fill:none" points="181.719,1184.52 200.617,1184.52 "/>
<polyline clip-path="url(#clip360)" style="stroke:#000000; stroke-linecap:round; stroke-linejoin:round; stroke-width:4; stroke-opacity:1; fill:none" points="181.719,678.797 200.617,678.797 "/>
<polyline clip-path="url(#clip360)" style="stroke:#000000; stroke-linecap:round; stroke-linejoin:round; stroke-width:4; stroke-opacity:1; fill:none" points="181.719,173.079 200.617,173.079 "/>
<path clip-path="url(#clip360)" d="M125.08 1703.58 L141.399 1703.58 L141.399 1707.51 L119.455 1707.51 L119.455 1703.58 Q122.117 1700.83 126.7 1696.2 Q131.307 1691.54 132.488 1690.2 Q134.733 1687.68 135.612 1685.94 Q136.515 1684.18 136.515 1682.49 Q136.515 1679.74 134.571 1678 Q132.65 1676.27 129.548 1676.27 Q127.349 1676.27 124.895 1677.03 Q122.464 1677.79 119.687 1679.34 L119.687 1674.62 Q122.511 1673.49 124.964 1672.91 Q127.418 1672.33 129.455 1672.33 Q134.825 1672.33 138.02 1675.02 Q141.214 1677.7 141.214 1682.19 Q141.214 1684.32 140.404 1686.24 Q139.617 1688.14 137.511 1690.73 Q136.932 1691.4 133.83 1694.62 Q130.728 1697.82 125.08 1703.58 Z" fill="#000000" fill-rule="nonzero" fill-opacity="1" /><path clip-path="url(#clip360)" d="M134.27 1183.16 Q137.626 1183.88 139.501 1186.15 Q141.399 1188.42 141.399 1191.75 Q141.399 1196.87 137.881 1199.67 Q134.362 1202.47 127.881 1202.47 Q125.705 1202.47 123.39 1202.03 Q121.099 1201.61 118.645 1200.75 L118.645 1196.24 Q120.589 1197.37 122.904 1197.95 Q125.219 1198.53 127.742 1198.53 Q132.14 1198.53 134.432 1196.8 Q136.747 1195.06 136.747 1191.75 Q136.747 1188.69 134.594 1186.98 Q132.464 1185.25 128.645 1185.25 L124.617 1185.25 L124.617 1181.4 L128.83 1181.4 Q132.279 1181.4 134.108 1180.04 Q135.937 1178.65 135.937 1176.06 Q135.937 1173.39 134.038 1171.98 Q132.163 1170.55 128.645 1170.55 Q126.724 1170.55 124.525 1170.96 Q122.326 1171.38 119.687 1172.26 L119.687 1168.09 Q122.349 1167.35 124.663 1166.98 Q127.001 1166.61 129.062 1166.61 Q134.386 1166.61 137.487 1169.04 Q140.589 1171.45 140.589 1175.57 Q140.589 1178.44 138.946 1180.43 Q137.302 1182.4 134.27 1183.16 Z" fill="#000000" fill-rule="nonzero" fill-opacity="1" /><path clip-path="url(#clip360)" d="M131.816 665.591 L120.011 684.04 L131.816 684.04 L131.816 665.591 M130.589 661.517 L136.469 661.517 L136.469 684.04 L141.399 684.04 L141.399 687.929 L136.469 687.929 L136.469 696.077 L131.816 696.077 L131.816 687.929 L116.214 687.929 L116.214 683.415 L130.589 661.517 Z" fill="#000000" fill-rule="nonzero" fill-opacity="1" /><path clip-path="url(#clip360)" d="M120.497 155.799 L138.853 155.799 L138.853 159.734 L124.779 159.734 L124.779 168.206 Q125.798 167.859 126.816 167.697 Q127.835 167.511 128.853 167.511 Q134.64 167.511 138.02 170.683 Q141.399 173.854 141.399 179.271 Q141.399 184.849 137.927 187.951 Q134.455 191.03 128.136 191.03 Q125.96 191.03 123.691 190.659 Q121.446 190.289 119.039 189.548 L119.039 184.849 Q121.122 185.984 123.344 186.539 Q125.566 187.095 128.043 187.095 Q132.048 187.095 134.386 184.988 Q136.724 182.882 136.724 179.271 Q136.724 175.66 134.386 173.553 Q132.048 171.447 128.043 171.447 Q126.168 171.447 124.293 171.863 Q122.441 172.28 120.497 173.16 L120.497 155.799 Z" fill="#000000" fill-rule="nonzero" fill-opacity="1" /><path clip-path="url(#clip360)" d="M39.3585 946.439 Q40.0587 944.37 42.3504 942.429 Q44.642 940.455 48.6524 938.482 L61.6384 931.957 L61.6384 938.864 L49.4481 944.943 Q44.6738 947.299 43.1142 949.527 Q41.5546 951.723 41.5546 955.542 L41.5546 962.544 L61.6384 962.544 L61.6384 968.974 L14.1184 968.974 L14.1184 954.46 Q14.1184 946.312 17.5241 942.301 Q20.9297 938.291 27.8047 938.291 Q32.2925 938.291 35.2526 940.392 Q38.2126 942.461 39.3585 946.439 M19.402 962.544 L36.2711 962.544 L36.2711 954.46 Q36.2711 949.813 34.1386 947.458 Q31.9743 945.071 27.8047 945.071 Q23.6352 945.071 21.5345 947.458 Q19.402 949.813 19.402 954.46 L19.402 962.544 Z" fill="#000000" fill-rule="nonzero" fill-opacity="1" /><path clip-path="url(#clip360)" d="M18.3516 909.359 Q18.3516 914.324 23.2532 916.839 Q28.123 919.321 37.9262 919.321 Q47.6975 919.321 52.5991 916.839 Q57.4689 914.324 57.4689 909.359 Q57.4689 904.362 52.5991 901.879 Q47.6975 899.365 37.9262 899.365 Q28.123 899.365 23.2532 901.879 Q18.3516 904.362 18.3516 909.359 M13.2591 909.359 Q13.2591 901.37 19.593 897.169 Q25.895 892.935 37.9262 892.935 Q49.9255 892.935 56.2594 897.169 Q62.5615 901.37 62.5615 909.359 Q62.5615 917.348 56.2594 921.581 Q49.9255 925.782 37.9262 925.782 Q25.895 925.782 19.593 921.581 Q13.2591 917.348 13.2591 909.359 Z" fill="#000000" fill-rule="nonzero" fill-opacity="1" /><path clip-path="url(#clip360)" d="M742.089 12.096 L793.252 12.096 L793.252 18.9825 L771.782 18.9825 L771.782 72.576 L763.559 72.576 L763.559 18.9825 L742.089 18.9825 L742.089 12.096 Z" fill="#000000" fill-rule="nonzero" fill-opacity="1" /><path clip-path="url(#clip360)" d="M798.275 27.2059 L805.729 27.2059 L805.729 72.576 L798.275 72.576 L798.275 27.2059 M798.275 9.54393 L805.729 9.54393 L805.729 18.9825 L798.275 18.9825 L798.275 9.54393 Z" fill="#000000" fill-rule="nonzero" fill-opacity="1" /><path clip-path="url(#clip360)" d="M856.649 35.9153 Q859.444 30.8922 863.333 28.5022 Q867.222 26.1121 872.488 26.1121 Q879.577 26.1121 883.425 31.0947 Q887.273 36.0368 887.273 45.1919 L887.273 72.576 L879.779 72.576 L879.779 45.4349 Q879.779 38.913 877.47 35.7533 Q875.161 32.5936 870.422 32.5936 Q864.629 32.5936 861.267 36.4419 Q857.904 40.2903 857.904 46.9338 L857.904 72.576 L850.41 72.576 L850.41 45.4349 Q850.41 38.8725 848.101 35.7533 Q845.792 32.5936 840.972 32.5936 Q835.26 32.5936 831.898 36.4824 Q828.535 40.3308 828.535 46.9338 L828.535 72.576 L821.041 72.576 L821.041 27.2059 L828.535 27.2059 L828.535 34.2544 Q831.087 30.082 834.652 28.0971 Q838.217 26.1121 843.119 26.1121 Q848.061 26.1121 851.504 28.6237 Q854.988 31.1352 856.649 35.9153 Z" fill="#000000" fill-rule="nonzero" fill-opacity="1" /><path clip-path="url(#clip360)" d="M940.948 48.0275 L940.948 51.6733 L906.677 51.6733 Q907.163 59.3701 911.295 63.421 Q915.468 67.4314 922.881 67.4314 Q927.175 67.4314 931.185 66.3781 Q935.236 65.3249 939.206 63.2184 L939.206 70.267 Q935.196 71.9684 930.983 72.8596 Q926.77 73.7508 922.435 73.7508 Q911.579 73.7508 905.219 67.4314 Q898.9 61.1119 898.9 50.3365 Q898.9 39.1965 904.895 32.6746 Q910.931 26.1121 921.139 26.1121 Q930.294 26.1121 935.601 32.0264 Q940.948 37.9003 940.948 48.0275 M933.494 45.84 Q933.413 39.7232 930.051 36.0774 Q926.729 32.4315 921.22 32.4315 Q914.982 32.4315 911.214 35.9558 Q907.488 39.4801 906.92 45.8805 L933.494 45.84 Z" fill="#000000" fill-rule="nonzero" fill-opacity="1" /><path clip-path="url(#clip360)" d="M949.414 46.5287 L971.249 46.5287 L971.249 53.1722 L949.414 53.1722 L949.414 46.5287 Z" fill="#000000" fill-rule="nonzero" fill-opacity="1" /><path clip-path="url(#clip360)" d="M975.543 27.2059 L983.442 27.2059 L997.62 65.2844 L1011.8 27.2059 L1019.7 27.2059 L1002.68 72.576 L992.556 72.576 L975.543 27.2059 Z" fill="#000000" fill-rule="nonzero" fill-opacity="1" /><path clip-path="url(#clip360)" d="M1050.61 49.7694 Q1041.57 49.7694 1038.09 51.8354 Q1034.6 53.9013 1034.6 58.8839 Q1034.6 62.8538 1037.2 65.2034 Q1039.83 67.5124 1044.33 67.5124 Q1050.52 67.5124 1054.25 63.1374 Q1058.02 58.7219 1058.02 51.4303 L1058.02 49.7694 L1050.61 49.7694 M1065.47 46.6907 L1065.47 72.576 L1058.02 72.576 L1058.02 65.6895 Q1055.47 69.8214 1051.66 71.8063 Q1047.85 73.7508 1042.34 73.7508 Q1035.37 73.7508 1031.24 69.8619 Q1027.15 65.9325 1027.15 59.3701 Q1027.15 51.7138 1032.26 47.825 Q1037.4 43.9361 1047.57 43.9361 L1058.02 43.9361 L1058.02 43.2069 Q1058.02 38.0623 1054.62 35.2672 Q1051.25 32.4315 1045.14 32.4315 Q1041.25 32.4315 1037.56 33.3632 Q1033.88 34.295 1030.47 36.1584 L1030.47 29.2718 Q1034.56 27.692 1038.41 26.9223 Q1042.26 26.1121 1045.91 26.1121 Q1055.75 26.1121 1060.61 31.2163 Q1065.47 36.3204 1065.47 46.6907 Z" fill="#000000" fill-rule="nonzero" fill-opacity="1" /><path clip-path="url(#clip360)" d="M1107.12 34.1734 Q1105.86 33.4443 1104.36 33.1202 Q1102.9 32.7556 1101.12 32.7556 Q1094.8 32.7556 1091.4 36.8875 Q1088.04 40.9789 1088.04 48.6757 L1088.04 72.576 L1080.54 72.576 L1080.54 27.2059 L1088.04 27.2059 L1088.04 34.2544 Q1090.39 30.1225 1094.15 28.1376 Q1097.92 26.1121 1103.31 26.1121 Q1104.08 26.1121 1105.01 26.2337 Q1105.94 26.3147 1107.08 26.5172 L1107.12 34.1734 Z" fill="#000000" fill-rule="nonzero" fill-opacity="1" /><path clip-path="url(#clip360)" d="M1133.81 76.7889 Q1130.65 84.8907 1127.65 87.3618 Q1124.66 89.8329 1119.63 89.8329 L1113.68 89.8329 L1113.68 83.5945 L1118.05 83.5945 Q1121.13 83.5945 1122.83 82.1361 Q1124.53 80.6778 1126.6 75.2496 L1127.94 71.8468 L1109.59 27.2059 L1117.49 27.2059 L1131.66 62.6918 L1145.84 27.2059 L1153.74 27.2059 L1133.81 76.7889 Z" fill="#000000" fill-rule="nonzero" fill-opacity="1" /><path clip-path="url(#clip360)" d="M1164.03 27.2059 L1171.48 27.2059 L1171.48 72.576 L1164.03 72.576 L1164.03 27.2059 M1164.03 9.54393 L1171.48 9.54393 L1171.48 18.9825 L1164.03 18.9825 L1164.03 9.54393 Z" fill="#000000" fill-rule="nonzero" fill-opacity="1" /><path clip-path="url(#clip360)" d="M1224.79 45.1919 L1224.79 72.576 L1217.34 72.576 L1217.34 45.4349 Q1217.34 38.994 1214.83 35.7938 Q1212.32 32.5936 1207.29 32.5936 Q1201.26 32.5936 1197.78 36.4419 Q1194.29 40.2903 1194.29 46.9338 L1194.29 72.576 L1186.8 72.576 L1186.8 27.2059 L1194.29 27.2059 L1194.29 34.2544 Q1196.97 30.163 1200.57 28.1376 Q1204.22 26.1121 1208.96 26.1121 Q1216.77 26.1121 1220.78 30.9732 Q1224.79 35.7938 1224.79 45.1919 Z" fill="#000000" fill-rule="nonzero" fill-opacity="1" /><path clip-path="url(#clip360)" d="M1269.52 49.3643 Q1269.52 41.2625 1266.15 36.8065 Q1262.83 32.3505 1256.8 32.3505 Q1250.8 32.3505 1247.44 36.8065 Q1244.12 41.2625 1244.12 49.3643 Q1244.12 57.4256 1247.44 61.8816 Q1250.8 66.3376 1256.8 66.3376 Q1262.83 66.3376 1266.15 61.8816 Q1269.52 57.4256 1269.52 49.3643 M1276.97 66.9452 Q1276.97 78.5308 1271.83 84.1616 Q1266.68 89.8329 1256.07 89.8329 Q1252.14 89.8329 1248.65 89.2252 Q1245.17 88.6581 1241.89 87.4428 L1241.89 80.1917 Q1245.17 81.9741 1248.37 82.8248 Q1251.57 83.6755 1254.89 83.6755 Q1262.23 83.6755 1265.87 79.8271 Q1269.52 76.0193 1269.52 68.282 L1269.52 64.5957 Q1267.21 68.6061 1263.6 70.5911 Q1260 72.576 1254.97 72.576 Q1246.63 72.576 1241.53 66.2161 Q1236.42 59.8562 1236.42 49.3643 Q1236.42 38.832 1241.53 32.472 Q1246.63 26.1121 1254.97 26.1121 Q1260 26.1121 1263.6 28.0971 Q1267.21 30.082 1269.52 34.0924 L1269.52 27.2059 L1276.97 27.2059 L1276.97 66.9452 Z" fill="#000000" fill-rule="nonzero" fill-opacity="1" /><path clip-path="url(#clip360)" d="M1347.7 44.2197 Q1350.33 45.1109 1352.8 48.0275 Q1355.31 50.9442 1357.83 56.0483 L1366.13 72.576 L1357.34 72.576 L1349.6 57.061 Q1346.61 50.9847 1343.77 48.9997 Q1340.97 47.0148 1336.11 47.0148 L1327.2 47.0148 L1327.2 72.576 L1319.02 72.576 L1319.02 12.096 L1337.49 12.096 Q1347.86 12.096 1352.97 16.4305 Q1358.07 20.7649 1358.07 29.5149 Q1358.07 35.2267 1355.4 38.994 Q1352.76 42.7613 1347.7 44.2197 M1327.2 18.8205 L1327.2 40.2903 L1337.49 40.2903 Q1343.41 40.2903 1346.4 37.5762 Q1349.44 34.8216 1349.44 29.5149 Q1349.44 24.2082 1346.4 21.5346 Q1343.41 18.8205 1337.49 18.8205 L1327.2 18.8205 Z" fill="#000000" fill-rule="nonzero" fill-opacity="1" /><path clip-path="url(#clip360)" d="M1394.89 17.4837 Q1388.57 17.4837 1385.37 23.7221 Q1382.21 29.92 1382.21 42.3968 Q1382.21 54.833 1385.37 61.0714 Q1388.57 67.2693 1394.89 67.2693 Q1401.25 67.2693 1404.41 61.0714 Q1407.61 54.833 1407.61 42.3968 Q1407.61 29.92 1404.41 23.7221 Q1401.25 17.4837 1394.89 17.4837 M1394.89 11.0023 Q1405.06 11.0023 1410.41 19.0636 Q1415.79 27.0843 1415.79 42.3968 Q1415.79 57.6687 1410.41 65.73 Q1405.06 73.7508 1394.89 73.7508 Q1384.72 73.7508 1379.34 65.73 Q1373.99 57.6687 1373.99 42.3968 Q1373.99 27.0843 1379.34 19.0636 Q1384.72 11.0023 1394.89 11.0023 Z" fill="#000000" fill-rule="nonzero" fill-opacity="1" /><path clip-path="url(#clip360)" d="M1473.4 9.62495 Q1467.97 18.942 1465.34 28.0566 Q1462.7 37.1711 1462.7 46.5287 Q1462.7 55.8863 1465.34 65.0818 Q1468.01 74.2369 1473.4 83.5134 L1466.92 83.5134 Q1460.84 73.9938 1457.8 64.7983 Q1454.81 55.6027 1454.81 46.5287 Q1454.81 37.4952 1457.8 28.3401 Q1460.8 19.1851 1466.92 9.62495 L1473.4 9.62495 Z" fill="#000000" fill-rule="nonzero" fill-opacity="1" /><path clip-path="url(#clip360)" d="M1510.83 9.54393 L1510.83 15.7418 L1503.7 15.7418 Q1499.69 15.7418 1498.11 17.3622 Q1496.57 18.9825 1496.57 23.1955 L1496.57 27.2059 L1508.84 27.2059 L1508.84 32.9987 L1496.57 32.9987 L1496.57 72.576 L1489.08 72.576 L1489.08 32.9987 L1481.95 32.9987 L1481.95 27.2059 L1489.08 27.2059 L1489.08 24.0462 Q1489.08 16.471 1492.6 13.0277 Q1496.12 9.54393 1503.78 9.54393 L1510.83 9.54393 Z" fill="#000000" fill-rule="nonzero" fill-opacity="1" /><path clip-path="url(#clip360)" d="M1517.07 27.2059 L1524.52 27.2059 L1524.52 72.576 L1517.07 72.576 L1517.07 27.2059 M1517.07 9.54393 L1524.52 9.54393 L1524.52 18.9825 L1517.07 18.9825 L1517.07 9.54393 Z" fill="#000000" fill-rule="nonzero" fill-opacity="1" /><path clip-path="url(#clip360)" d="M1566.41 34.1734 Q1565.15 33.4443 1563.65 33.1202 Q1562.19 32.7556 1560.41 32.7556 Q1554.09 32.7556 1550.69 36.8875 Q1547.33 40.9789 1547.33 48.6757 L1547.33 72.576 L1539.83 72.576 L1539.83 27.2059 L1547.33 27.2059 L1547.33 34.2544 Q1549.68 30.1225 1553.44 28.1376 Q1557.21 26.1121 1562.6 26.1121 Q1563.37 26.1121 1564.3 26.2337 Q1565.23 26.3147 1566.37 26.5172 L1566.41 34.1734 Z" fill="#000000" fill-rule="nonzero" fill-opacity="1" /><path clip-path="url(#clip360)" d="M1603.15 28.5427 L1603.15 35.5912 Q1599.99 33.9709 1596.59 33.1607 Q1593.18 32.3505 1589.54 32.3505 Q1583.99 32.3505 1581.19 34.0519 Q1578.44 35.7533 1578.44 39.156 Q1578.44 41.7486 1580.42 43.2475 Q1582.41 44.7058 1588.4 46.0426 L1590.96 46.6097 Q1598.9 48.3111 1602.22 51.4303 Q1605.58 54.509 1605.58 60.0587 Q1605.58 66.3781 1600.56 70.0644 Q1595.57 73.7508 1586.82 73.7508 Q1583.18 73.7508 1579.21 73.0216 Q1575.28 72.3329 1570.9 70.9151 L1570.9 63.2184 Q1575.04 65.3654 1579.05 66.4591 Q1583.06 67.5124 1586.99 67.5124 Q1592.25 67.5124 1595.09 65.73 Q1597.92 63.9071 1597.92 60.6258 Q1597.92 57.5877 1595.86 55.9673 Q1593.83 54.3469 1586.91 52.8481 L1584.31 52.2405 Q1577.39 50.7821 1574.31 47.7845 Q1571.23 44.7463 1571.23 39.4801 Q1571.23 33.0797 1575.77 29.5959 Q1580.3 26.1121 1588.65 26.1121 Q1592.78 26.1121 1596.42 26.7198 Q1600.07 27.3274 1603.15 28.5427 Z" fill="#000000" fill-rule="nonzero" fill-opacity="1" /><path clip-path="url(#clip360)" d="M1624.82 14.324 L1624.82 27.2059 L1640.17 27.2059 L1640.17 32.9987 L1624.82 32.9987 L1624.82 57.6282 Q1624.82 63.1779 1626.32 64.7578 Q1627.86 66.3376 1632.52 66.3376 L1640.17 66.3376 L1640.17 72.576 L1632.52 72.576 Q1623.89 72.576 1620.61 69.3758 Q1617.33 66.1351 1617.33 57.6282 L1617.33 32.9987 L1611.86 32.9987 L1611.86 27.2059 L1617.33 27.2059 L1617.33 14.324 L1624.82 14.324 Z" fill="#000000" fill-rule="nonzero" fill-opacity="1" /><path clip-path="url(#clip360)" d="M1684.45 65.6895 L1713.01 65.6895 L1713.01 72.576 L1674.61 72.576 L1674.61 65.6895 Q1679.27 60.8689 1687.29 52.7671 Q1695.35 44.6248 1697.41 42.2752 Q1701.34 37.8598 1702.88 34.8216 Q1704.46 31.7429 1704.46 28.7857 Q1704.46 23.9651 1701.06 20.927 Q1697.7 17.8888 1692.27 17.8888 Q1688.42 17.8888 1684.13 19.2256 Q1679.87 20.5624 1675.01 23.2765 L1675.01 15.0127 Q1679.95 13.0277 1684.25 12.015 Q1688.54 11.0023 1692.11 11.0023 Q1701.51 11.0023 1707.1 15.7013 Q1712.69 20.4004 1712.69 28.2591 Q1712.69 31.9859 1711.27 35.3482 Q1709.89 38.6699 1706.2 43.2069 Q1705.19 44.3817 1699.76 50.0125 Q1694.34 55.6027 1684.45 65.6895 Z" fill="#000000" fill-rule="nonzero" fill-opacity="1" /><path clip-path="url(#clip360)" d="M1730.19 62.2867 L1738.73 62.2867 L1738.73 72.576 L1730.19 72.576 L1730.19 62.2867 Z" fill="#000000" fill-rule="nonzero" fill-opacity="1" /><path clip-path="url(#clip360)" d="M1756.64 12.096 L1788.76 12.096 L1788.76 18.9825 L1764.13 18.9825 L1764.13 33.8088 Q1765.91 33.2012 1767.7 32.9176 Q1769.48 32.5936 1771.26 32.5936 Q1781.39 32.5936 1787.3 38.1433 Q1793.22 43.6931 1793.22 53.1722 Q1793.22 62.9348 1787.14 68.3631 Q1781.07 73.7508 1770.01 73.7508 Q1766.2 73.7508 1762.23 73.1026 Q1758.3 72.4545 1754.09 71.1582 L1754.09 62.9348 Q1757.73 64.9198 1761.62 65.892 Q1765.51 66.8642 1769.84 66.8642 Q1776.85 66.8642 1780.94 63.1779 Q1785.03 59.4916 1785.03 53.1722 Q1785.03 46.8528 1780.94 43.1664 Q1776.85 39.4801 1769.84 39.4801 Q1766.56 39.4801 1763.28 40.2093 Q1760.04 40.9384 1756.64 42.4778 L1756.64 12.096 Z" fill="#000000" fill-rule="nonzero" fill-opacity="1" /><path clip-path="url(#clip360)" d="M1853.54 76.7889 Q1850.38 84.8907 1847.38 87.3618 Q1844.38 89.8329 1839.36 89.8329 L1833.4 89.8329 L1833.4 83.5945 L1837.78 83.5945 Q1840.86 83.5945 1842.56 82.1361 Q1844.26 80.6778 1846.33 75.2496 L1847.66 71.8468 L1829.31 27.2059 L1837.21 27.2059 L1851.39 62.6918 L1865.57 27.2059 L1873.47 27.2059 L1853.54 76.7889 Z" fill="#000000" fill-rule="nonzero" fill-opacity="1" /><path clip-path="url(#clip360)" d="M1922.56 48.0275 L1922.56 51.6733 L1888.29 51.6733 Q1888.78 59.3701 1892.91 63.421 Q1897.08 67.4314 1904.5 67.4314 Q1908.79 67.4314 1912.8 66.3781 Q1916.85 65.3249 1920.82 63.2184 L1920.82 70.267 Q1916.81 71.9684 1912.6 72.8596 Q1908.38 73.7508 1904.05 73.7508 Q1893.19 73.7508 1886.83 67.4314 Q1880.51 61.1119 1880.51 50.3365 Q1880.51 39.1965 1886.51 32.6746 Q1892.55 26.1121 1902.75 26.1121 Q1911.91 26.1121 1917.22 32.0264 Q1922.56 37.9003 1922.56 48.0275 M1915.11 45.84 Q1915.03 39.7232 1911.67 36.0774 Q1908.34 32.4315 1902.84 32.4315 Q1896.6 32.4315 1892.83 35.9558 Q1889.1 39.4801 1888.54 45.8805 L1915.11 45.84 Z" fill="#000000" fill-rule="nonzero" fill-opacity="1" /><path clip-path="url(#clip360)" d="M1955.42 49.7694 Q1946.38 49.7694 1942.9 51.8354 Q1939.41 53.9013 1939.41 58.8839 Q1939.41 62.8538 1942.01 65.2034 Q1944.64 67.5124 1949.14 67.5124 Q1955.33 67.5124 1959.06 63.1374 Q1962.83 58.7219 1962.83 51.4303 L1962.83 49.7694 L1955.42 49.7694 M1970.28 46.6907 L1970.28 72.576 L1962.83 72.576 L1962.83 65.6895 Q1960.28 69.8214 1956.47 71.8063 Q1952.66 73.7508 1947.15 73.7508 Q1940.18 73.7508 1936.05 69.8619 Q1931.96 65.9325 1931.96 59.3701 Q1931.96 51.7138 1937.07 47.825 Q1942.21 43.9361 1952.38 43.9361 L1962.83 43.9361 L1962.83 43.2069 Q1962.83 38.0623 1959.43 35.2672 Q1956.06 32.4315 1949.95 32.4315 Q1946.06 32.4315 1942.37 33.3632 Q1938.69 34.295 1935.28 36.1584 L1935.28 29.2718 Q1939.37 27.692 1943.22 26.9223 Q1947.07 26.1121 1950.72 26.1121 Q1960.56 26.1121 1965.42 31.2163 Q1970.28 36.3204 1970.28 46.6907 Z" fill="#000000" fill-rule="nonzero" fill-opacity="1" /><path clip-path="url(#clip360)" d="M2011.93 34.1734 Q2010.67 33.4443 2009.17 33.1202 Q2007.71 32.7556 2005.93 32.7556 Q1999.61 32.7556 1996.21 36.8875 Q1992.85 40.9789 1992.85 48.6757 L1992.85 72.576 L1985.35 72.576 L1985.35 27.2059 L1992.85 27.2059 L1992.85 34.2544 Q1995.2 30.1225 1998.96 28.1376 Q2002.73 26.1121 2008.12 26.1121 Q2008.89 26.1121 2009.82 26.2337 Q2010.75 26.3147 2011.89 26.5172 L2011.93 34.1734 Z" fill="#000000" fill-rule="nonzero" fill-opacity="1" /><path clip-path="url(#clip360)" d="M2048.67 28.5427 L2048.67 35.5912 Q2045.51 33.9709 2042.11 33.1607 Q2038.7 32.3505 2035.06 32.3505 Q2029.51 32.3505 2026.71 34.0519 Q2023.96 35.7533 2023.96 39.156 Q2023.96 41.7486 2025.94 43.2475 Q2027.93 44.7058 2033.92 46.0426 L2036.47 46.6097 Q2044.41 48.3111 2047.74 51.4303 Q2051.1 54.509 2051.1 60.0587 Q2051.1 66.3781 2046.08 70.0644 Q2041.09 73.7508 2032.34 73.7508 Q2028.7 73.7508 2024.73 73.0216 Q2020.8 72.3329 2016.42 70.9151 L2016.42 63.2184 Q2020.55 65.3654 2024.56 66.4591 Q2028.58 67.5124 2032.5 67.5124 Q2037.77 67.5124 2040.61 65.73 Q2043.44 63.9071 2043.44 60.6258 Q2043.44 57.5877 2041.38 55.9673 Q2039.35 54.3469 2032.42 52.8481 L2029.83 52.2405 Q2022.9 50.7821 2019.83 47.7845 Q2016.75 44.7463 2016.75 39.4801 Q2016.75 33.0797 2021.28 29.5959 Q2025.82 26.1121 2034.17 26.1121 Q2038.3 26.1121 2041.94 26.7198 Q2045.59 27.3274 2048.67 28.5427 Z" fill="#000000" fill-rule="nonzero" fill-opacity="1" /><path clip-path="url(#clip360)" d="M2061.79 9.62495 L2068.27 9.62495 Q2074.35 19.1851 2077.35 28.3401 Q2080.39 37.4952 2080.39 46.5287 Q2080.39 55.6027 2077.35 64.7983 Q2074.35 73.9938 2068.27 83.5134 L2061.79 83.5134 Q2067.18 74.2369 2069.81 65.0818 Q2072.49 55.8863 2072.49 46.5287 Q2072.49 37.1711 2069.81 28.0566 Q2067.18 18.942 2061.79 9.62495 Z" fill="#000000" fill-rule="nonzero" fill-opacity="1" /><polyline clip-path="url(#clip361)" style="stroke:#4682b4; stroke-linecap:round; stroke-linejoin:round; stroke-width:8; stroke-opacity:1; fill:none" points="251.315,931.657 331.31,557.089 411.304,280.217 491.299,173.254 571.294,264.099 651.288,529.057 731.283,899.021 811.278,1277.5 891.272,1565.77 971.267,1688.65 1051.26,1614.1 1131.26,1361.54 1211.25,996.868 1291.25,615.183 1371.24,316.041 1451.24,177.465 1531.23,235.598 1611.22,475.278 1691.22,833.991 1771.21,1218.18 1851.21,1527.63 1931.2,1681.65 2011.2,1640.05 2091.19,1413.68 2171.19,1061.6 2251.18,675.619 2331.18,356.422 2411.17,187.259 2491.17,212.25 2571.16,424.878 "/>
<path clip-path="url(#clip360)" d="M2257.58 285.016 L2558.79 285.016 L2558.79 181.336 L2257.58 181.336  Z" fill="#ffffff" fill-rule="evenodd" fill-opacity="1"/>
<polyline clip-path="url(#clip360)" style="stroke:#000000; stroke-linecap:round; stroke-linejoin:round; stroke-width:4; stroke-opacity:1; fill:none" points="2257.58,285.016 2558.79,285.016 2558.79,181.336 2257.58,181.336 2257.58,285.016 "/>
<polyline clip-path="url(#clip360)" style="stroke:#4682b4; stroke-linecap:round; stroke-linejoin:round; stroke-width:8; stroke-opacity:1; fill:none" points="2284.91,233.176 2448.84,233.176 "/>
<path clip-path="url(#clip360)" d="M2492.55 234.253 Q2494.06 234.762 2495.47 236.429 Q2496.91 238.095 2498.34 241.012 L2503.09 250.456 L2498.06 250.456 L2493.64 241.591 Q2491.93 238.118 2490.31 236.984 Q2488.71 235.85 2485.93 235.85 L2480.84 235.85 L2480.84 250.456 L2476.16 250.456 L2476.16 215.896 L2486.72 215.896 Q2492.65 215.896 2495.56 218.373 Q2498.48 220.85 2498.48 225.85 Q2498.48 229.114 2496.95 231.267 Q2495.45 233.419 2492.55 234.253 M2480.84 219.739 L2480.84 232.007 L2486.72 232.007 Q2490.1 232.007 2491.81 230.456 Q2493.55 228.882 2493.55 225.85 Q2493.55 222.818 2491.81 221.29 Q2490.1 219.739 2486.72 219.739 L2480.84 219.739 Z" fill="#000000" fill-rule="nonzero" fill-opacity="1" /><path clip-path="url(#clip360)" d="M2519.52 218.975 Q2515.91 218.975 2514.08 222.54 Q2512.28 226.081 2512.28 233.211 Q2512.28 240.317 2514.08 243.882 Q2515.91 247.424 2519.52 247.424 Q2523.16 247.424 2524.96 243.882 Q2526.79 240.317 2526.79 233.211 Q2526.79 226.081 2524.96 222.54 Q2523.16 218.975 2519.52 218.975 M2519.52 215.271 Q2525.33 215.271 2528.39 219.878 Q2531.47 224.461 2531.47 233.211 Q2531.47 241.938 2528.39 246.544 Q2525.33 251.128 2519.52 251.128 Q2513.71 251.128 2510.63 246.544 Q2507.58 241.938 2507.58 233.211 Q2507.58 224.461 2510.63 219.878 Q2513.71 215.271 2519.52 215.271 Z" fill="#000000" fill-rule="nonzero" fill-opacity="1" /></svg>
