<?xml version="1.0" encoding="utf-8"?>
<svg xmlns="http://www.w3.org/2000/svg" xmlns:xlink="http://www.w3.org/1999/xlink" width="672" height="480" viewBox="0 0 2688 1920">
<defs>
  <clipPath id="clip610">
    <rect x="0" y="0" width="2688" height="1920"/>
  </clipPath>
</defs>
<path clip-path="url(#clip610)" d="M0 1920 L2688 1920 L2688 -4.26326e-14 L0 -4.26326e-14  Z" fill="#ffffff" fill-rule="evenodd" fill-opacity="1"/>
<defs>
  <clipPath id="clip611">
    <rect x="268" y="127" width="2373" height="1607"/>
  </clipPath>
</defs>
<path clip-path="url(#clip610)" d="M268.826 1734.12 L2640.76 1734.12 L2640.76 127.792 L268.826 127.792  Z" fill="#ffffff" fill-rule="evenodd" fill-opacity="1"/>
<polyline clip-path="url(#clip611)" style="stroke:#000000; stroke-linecap:round; stroke-linejoin:round; stroke-width:2; stroke-opacity:0.1; fill:none" points="335.956,1734.12 335.956,127.792 "/>
<polyline clip-path="url(#clip611)" style="stroke:#000000; stroke-linecap:round; stroke-linejoin:round; stroke-width:2; stroke-opacity:0.1; fill:none" points="949.016,1734.12 949.016,127.792 "/>
<polyline clip-path="url(#clip611)" style="stroke:#000000; stroke-linecap:round; stroke-linejoin:round; stroke-width:2; stroke-opacity:0.1; fill:none" points="1562.08,1734.12 1562.08,127.792 "/>
<polyline clip-path="url(#clip611)" style="stroke:#000000; stroke-linecap:round; stroke-linejoin:round; stroke-width:2; stroke-opacity:0.1; fill:none" points="2175.14,1734.12 2175.14,127.792 "/>
<polyline clip-path="url(#clip611)" style="stroke:#000000; stroke-linecap:round; stroke-linejoin:round; stroke-width:2; stroke-opacity:0.1; fill:none" points="268.826,1693.1 2640.76,1693.1 "/>
<polyline clip-path="url(#clip611)" style="stroke:#000000; stroke-linecap:round; stroke-linejoin:round; stroke-width:2; stroke-opacity:0.1; fill:none" points="268.826,1248.65 2640.76,1248.65 "/>
<polyline clip-path="url(#clip611)" style="stroke:#000000; stroke-linecap:round; stroke-linejoin:round; stroke-width:2; stroke-opacity:0.1; fill:none" points="268.826,804.197 2640.76,804.197 "/>
<polyline clip-path="url(#clip611)" style="stroke:#000000; stroke-linecap:round; stroke-linejoin:round; stroke-width:2; stroke-opacity:0.1; fill:none" points="268.826,359.746 2640.76,359.746 "/>
<polyline clip-path="url(#clip610)" style="stroke:#000000; stroke-linecap:round; stroke-linejoin:round; stroke-width:4; stroke-opacity:1; fill:none" points="268.826,1734.12 2640.76,1734.12 "/>
<polyline clip-path="url(#clip610)" style="stroke:#000000; stroke-linecap:round; stroke-linejoin:round; stroke-width:4; stroke-opacity:1; fill:none" points="335.956,1734.12 335.956,1715.22 "/>
<polyline clip-path="url(#clip610)" style="stroke:#000000; stroke-linecap:round; stroke-linejoin:round; stroke-width:4; stroke-opacity:1; fill:none" points="949.016,1734.12 949.016,1715.22 "/>
<polyline clip-path="url(#clip610)" style="stroke:#000000; stroke-linecap:round; stroke-linejoin:round; stroke-width:4; stroke-opacity:1; fill:none" points="1562.08,1734.12 1562.08,1715.22 "/>
<polyline clip-path="url(#clip610)" style="stroke:#000000; stroke-linecap:round; stroke-linejoin:round; stroke-width:4; stroke-opacity:1; fill:none" points="2175.14,1734.12 2175.14,1715.22 "/>
<path clip-path="url(#clip610)" d="M335.956 1767.34 Q332.345 1767.34 330.516 1770.9 Q328.71 1774.45 328.71 1781.58 Q328.71 1788.68 330.516 1792.25 Q332.345 1795.79 335.956 1795.79 Q339.59 1795.79 341.395 1792.25 Q343.224 1788.68 343.224 1781.58 Q343.224 1774.45 341.395 1770.9 Q339.59 1767.34 335.956 1767.34 M335.956 1763.64 Q341.766 1763.64 344.821 1768.24 Q347.9 1772.83 347.9 1781.58 Q347.9 1790.3 344.821 1794.91 Q341.766 1799.49 335.956 1799.49 Q330.145 1799.49 327.067 1794.91 Q324.011 1790.3 324.011 1781.58 Q324.011 1772.83 327.067 1768.24 Q330.145 1763.64 335.956 1763.64 Z" fill="#000000" fill-rule="nonzero" fill-opacity="1" /><path clip-path="url(#clip610)" d="M908.623 1794.89 L916.261 1794.89 L916.261 1768.52 L907.951 1770.19 L907.951 1765.93 L916.215 1764.26 L920.891 1764.26 L920.891 1794.89 L928.53 1794.89 L928.53 1798.82 L908.623 1798.82 L908.623 1794.89 Z" fill="#000000" fill-rule="nonzero" fill-opacity="1" /><path clip-path="url(#clip610)" d="M947.974 1767.34 Q944.363 1767.34 942.534 1770.9 Q940.729 1774.45 940.729 1781.58 Q940.729 1788.68 942.534 1792.25 Q944.363 1795.79 947.974 1795.79 Q951.609 1795.79 953.414 1792.25 Q955.243 1788.68 955.243 1781.58 Q955.243 1774.45 953.414 1770.9 Q951.609 1767.34 947.974 1767.34 M947.974 1763.64 Q953.784 1763.64 956.84 1768.24 Q959.919 1772.83 959.919 1781.58 Q959.919 1790.3 956.84 1794.91 Q953.784 1799.49 947.974 1799.49 Q942.164 1799.49 939.085 1794.91 Q936.03 1790.3 936.03 1781.58 Q936.03 1772.83 939.085 1768.24 Q942.164 1763.64 947.974 1763.64 Z" fill="#000000" fill-rule="nonzero" fill-opacity="1" /><path clip-path="url(#clip610)" d="M978.136 1767.34 Q974.525 1767.34 972.696 1770.9 Q970.891 1774.45 970.891 1781.58 Q970.891 1788.68 972.696 1792.25 Q974.525 1795.79 978.136 1795.79 Q981.77 1795.79 983.576 1792.25 Q985.405 1788.68 985.405 1781.58 Q985.405 1774.45 983.576 1770.9 Q981.77 1767.34 978.136 1767.34 M978.136 1763.64 Q983.946 1763.64 987.002 1768.24 Q990.081 1772.83 990.081 1781.58 Q990.081 1790.3 987.002 1794.91 Q983.946 1799.49 978.136 1799.49 Q972.326 1799.49 969.247 1794.91 Q966.192 1790.3 966.192 1781.58 Q966.192 1772.83 969.247 1768.24 Q972.326 1763.64 978.136 1763.64 Z" fill="#000000" fill-rule="nonzero" fill-opacity="1" /><path clip-path="url(#clip610)" d="M1525.77 1794.89 L1542.09 1794.89 L1542.09 1798.82 L1520.14 1798.82 L1520.14 1794.89 Q1522.81 1792.13 1527.39 1787.5 Q1532 1782.85 1533.18 1781.51 Q1535.42 1778.98 1536.3 1777.25 Q1537.2 1775.49 1537.2 1773.8 Q1537.2 1771.04 1535.26 1769.31 Q1533.34 1767.57 1530.24 1767.57 Q1528.04 1767.57 1525.58 1768.34 Q1523.15 1769.1 1520.38 1770.65 L1520.38 1765.93 Q1523.2 1764.79 1525.65 1764.21 Q1528.11 1763.64 1530.14 1763.64 Q1535.51 1763.64 1538.71 1766.32 Q1541.9 1769.01 1541.9 1773.5 Q1541.9 1775.63 1541.09 1777.55 Q1540.31 1779.45 1538.2 1782.04 Q1537.62 1782.71 1534.52 1785.93 Q1531.42 1789.12 1525.77 1794.89 Z" fill="#000000" fill-rule="nonzero" fill-opacity="1" /><path clip-path="url(#clip610)" d="M1561.9 1767.34 Q1558.29 1767.34 1556.46 1770.9 Q1554.66 1774.45 1554.66 1781.58 Q1554.66 1788.68 1556.46 1792.25 Q1558.29 1795.79 1561.9 1795.79 Q1565.54 1795.79 1567.34 1792.25 Q1569.17 1788.68 1569.17 1781.58 Q1569.17 1774.45 1567.34 1770.9 Q1565.54 1767.34 1561.9 1767.34 M1561.9 1763.64 Q1567.71 1763.64 1570.77 1768.24 Q1573.85 1772.83 1573.85 1781.58 Q1573.85 1790.3 1570.77 1794.91 Q1567.71 1799.49 1561.9 1799.49 Q1556.09 1799.49 1553.01 1794.91 Q1549.96 1790.3 1549.96 1781.58 Q1549.96 1772.83 1553.01 1768.24 Q1556.09 1763.64 1561.9 1763.64 Z" fill="#000000" fill-rule="nonzero" fill-opacity="1" /><path clip-path="url(#clip610)" d="M1592.06 1767.34 Q1588.45 1767.34 1586.62 1770.9 Q1584.82 1774.45 1584.82 1781.58 Q1584.82 1788.68 1586.62 1792.25 Q1588.45 1795.79 1592.06 1795.79 Q1595.7 1795.79 1597.5 1792.25 Q1599.33 1788.68 1599.33 1781.58 Q1599.33 1774.45 1597.5 1770.9 Q1595.7 1767.34 1592.06 1767.34 M1592.06 1763.64 Q1597.87 1763.64 1600.93 1768.24 Q1604.01 1772.83 1604.01 1781.58 Q1604.01 1790.3 1600.93 1794.91 Q1597.87 1799.49 1592.06 1799.49 Q1586.25 1799.49 1583.18 1794.91 Q1580.12 1790.3 1580.12 1781.58 Q1580.12 1772.83 1583.18 1768.24 Q1586.25 1763.64 1592.06 1763.64 Z" fill="#000000" fill-rule="nonzero" fill-opacity="1" /><path clip-path="url(#clip610)" d="M2148.9 1780.19 Q2152.25 1780.9 2154.13 1783.17 Q2156.03 1785.44 2156.03 1788.77 Q2156.03 1793.89 2152.51 1796.69 Q2148.99 1799.49 2142.51 1799.49 Q2140.33 1799.49 2138.02 1799.05 Q2135.73 1798.64 2133.27 1797.78 L2133.27 1793.27 Q2135.22 1794.4 2137.53 1794.98 Q2139.85 1795.56 2142.37 1795.56 Q2146.77 1795.56 2149.06 1793.82 Q2151.38 1792.08 2151.38 1788.77 Q2151.38 1785.72 2149.22 1784.01 Q2147.09 1782.27 2143.27 1782.27 L2139.25 1782.27 L2139.25 1778.43 L2143.46 1778.43 Q2146.91 1778.43 2148.74 1777.06 Q2150.56 1775.67 2150.56 1773.08 Q2150.56 1770.42 2148.67 1769.01 Q2146.79 1767.57 2143.27 1767.57 Q2141.35 1767.57 2139.15 1767.99 Q2136.95 1768.4 2134.32 1769.28 L2134.32 1765.12 Q2136.98 1764.38 2139.29 1764.01 Q2141.63 1763.64 2143.69 1763.64 Q2149.01 1763.64 2152.12 1766.07 Q2155.22 1768.47 2155.22 1772.59 Q2155.22 1775.46 2153.57 1777.46 Q2151.93 1779.42 2148.9 1780.19 Z" fill="#000000" fill-rule="nonzero" fill-opacity="1" /><path clip-path="url(#clip610)" d="M2174.89 1767.34 Q2171.28 1767.34 2169.45 1770.9 Q2167.65 1774.45 2167.65 1781.58 Q2167.65 1788.68 2169.45 1792.25 Q2171.28 1795.79 2174.89 1795.79 Q2178.53 1795.79 2180.33 1792.25 Q2182.16 1788.68 2182.16 1781.58 Q2182.16 1774.45 2180.33 1770.9 Q2178.53 1767.34 2174.89 1767.34 M2174.89 1763.64 Q2180.7 1763.64 2183.76 1768.24 Q2186.84 1772.83 2186.84 1781.58 Q2186.84 1790.3 2183.76 1794.91 Q2180.7 1799.49 2174.89 1799.49 Q2169.08 1799.49 2166 1794.91 Q2162.95 1790.3 2162.95 1781.58 Q2162.95 1772.83 2166 1768.24 Q2169.08 1763.64 2174.89 1763.64 Z" fill="#000000" fill-rule="nonzero" fill-opacity="1" /><path clip-path="url(#clip610)" d="M2205.06 1767.34 Q2201.44 1767.34 2199.62 1770.9 Q2197.81 1774.45 2197.81 1781.58 Q2197.81 1788.68 2199.62 1792.25 Q2201.44 1795.79 2205.06 1795.79 Q2208.69 1795.79 2210.5 1792.25 Q2212.32 1788.68 2212.32 1781.58 Q2212.32 1774.45 2210.5 1770.9 Q2208.69 1767.34 2205.06 1767.34 M2205.06 1763.64 Q2210.87 1763.64 2213.92 1768.24 Q2217 1772.83 2217 1781.58 Q2217 1790.3 2213.92 1794.91 Q2210.87 1799.49 2205.06 1799.49 Q2199.25 1799.49 2196.17 1794.91 Q2193.11 1790.3 2193.11 1781.58 Q2193.11 1772.83 2196.17 1768.24 Q2199.25 1763.64 2205.06 1763.64 Z" fill="#000000" fill-rule="nonzero" fill-opacity="1" /><path clip-path="url(#clip610)" d="M1401.03 1841.06 L1401.03 1878.02 L1408.8 1878.02 Q1418.63 1878.02 1423.18 1873.56 Q1427.77 1869.11 1427.77 1859.49 Q1427.77 1849.94 1423.18 1845.52 Q1418.63 1841.06 1408.8 1841.06 L1401.03 1841.06 M1394.6 1835.78 L1407.81 1835.78 Q1421.63 1835.78 1428.09 1841.54 Q1434.55 1847.27 1434.55 1859.49 Q1434.55 1871.78 1428.05 1877.54 Q1421.56 1883.3 1407.81 1883.3 L1394.6 1883.3 L1394.6 1835.78 Z" fill="#000000" fill-rule="nonzero" fill-opacity="1" /><path clip-path="url(#clip610)" d="M1460.74 1865.38 Q1453.64 1865.38 1450.91 1867 Q1448.17 1868.63 1448.17 1872.54 Q1448.17 1875.66 1450.21 1877.51 Q1452.28 1879.32 1455.81 1879.32 Q1460.68 1879.32 1463.61 1875.88 Q1466.57 1872.42 1466.57 1866.69 L1466.57 1865.38 L1460.74 1865.38 M1472.42 1862.96 L1472.42 1883.3 L1466.57 1883.3 L1466.57 1877.89 Q1464.56 1881.14 1461.57 1882.7 Q1458.58 1884.22 1454.25 1884.22 Q1448.78 1884.22 1445.53 1881.17 Q1442.31 1878.08 1442.31 1872.92 Q1442.31 1866.91 1446.32 1863.85 Q1450.37 1860.8 1458.36 1860.8 L1466.57 1860.8 L1466.57 1860.23 Q1466.57 1856.18 1463.89 1853.99 Q1461.25 1851.76 1456.45 1851.76 Q1453.39 1851.76 1450.49 1852.49 Q1447.6 1853.22 1444.92 1854.69 L1444.92 1849.28 Q1448.14 1848.03 1451.16 1847.43 Q1454.19 1846.79 1457.05 1846.79 Q1464.78 1846.79 1468.6 1850.8 Q1472.42 1854.81 1472.42 1862.96 Z" fill="#000000" fill-rule="nonzero" fill-opacity="1" /><path clip-path="url(#clip610)" d="M1499.32 1886.61 Q1496.84 1892.98 1494.48 1894.92 Q1492.13 1896.86 1488.18 1896.86 L1483.5 1896.86 L1483.5 1891.96 L1486.94 1891.96 Q1489.36 1891.96 1490.69 1890.81 Q1492.03 1889.67 1493.65 1885.4 L1494.7 1882.73 L1480.29 1847.65 L1486.49 1847.65 L1497.63 1875.53 L1508.77 1847.65 L1514.98 1847.65 L1499.32 1886.61 Z" fill="#000000" fill-rule="nonzero" fill-opacity="1" /><polyline clip-path="url(#clip610)" style="stroke:#000000; stroke-linecap:round; stroke-linejoin:round; stroke-width:4; stroke-opacity:1; fill:none" points="268.826,1734.12 268.826,127.792 "/>
<polyline clip-path="url(#clip610)" style="stroke:#000000; stroke-linecap:round; stroke-linejoin:round; stroke-width:4; stroke-opacity:1; fill:none" points="268.826,1693.1 287.723,1693.1 "/>
<polyline clip-path="url(#clip610)" style="stroke:#000000; stroke-linecap:round; stroke-linejoin:round; stroke-width:4; stroke-opacity:1; fill:none" points="268.826,1248.65 287.723,1248.65 "/>
<polyline clip-path="url(#clip610)" style="stroke:#000000; stroke-linecap:round; stroke-linejoin:round; stroke-width:4; stroke-opacity:1; fill:none" points="268.826,804.197 287.723,804.197 "/>
<polyline clip-path="url(#clip610)" style="stroke:#000000; stroke-linecap:round; stroke-linejoin:round; stroke-width:4; stroke-opacity:1; fill:none" points="268.826,359.746 287.723,359.746 "/>
<path clip-path="url(#clip610)" d="M216.561 1678.9 Q212.95 1678.9 211.121 1682.46 Q209.316 1686 209.316 1693.13 Q209.316 1700.24 211.121 1703.81 Q212.95 1707.35 216.561 1707.35 Q220.195 1707.35 222.001 1703.81 Q223.83 1700.24 223.83 1693.13 Q223.83 1686 222.001 1682.46 Q220.195 1678.9 216.561 1678.9 M216.561 1675.19 Q222.371 1675.19 225.427 1679.8 Q228.506 1684.38 228.506 1693.13 Q228.506 1701.86 225.427 1706.47 Q222.371 1711.05 216.561 1711.05 Q210.751 1711.05 207.672 1706.47 Q204.617 1701.86 204.617 1693.13 Q204.617 1684.38 207.672 1679.8 Q210.751 1675.19 216.561 1675.19 Z" fill="#000000" fill-rule="nonzero" fill-opacity="1" /><path clip-path="url(#clip610)" d="M146.284 1231.37 L164.64 1231.37 L164.64 1235.3 L150.566 1235.3 L150.566 1243.78 Q151.585 1243.43 152.603 1243.27 Q153.622 1243.08 154.64 1243.08 Q160.427 1243.08 163.807 1246.25 Q167.186 1249.42 167.186 1254.84 Q167.186 1260.42 163.714 1263.52 Q160.242 1266.6 153.923 1266.6 Q151.747 1266.6 149.478 1266.23 Q147.233 1265.86 144.825 1265.12 L144.825 1260.42 Q146.909 1261.55 149.131 1262.11 Q151.353 1262.66 153.83 1262.66 Q157.835 1262.66 160.173 1260.56 Q162.51 1258.45 162.51 1254.84 Q162.51 1251.23 160.173 1249.12 Q157.835 1247.02 153.83 1247.02 Q151.955 1247.02 150.08 1247.43 Q148.228 1247.85 146.284 1248.73 L146.284 1231.37 Z" fill="#000000" fill-rule="nonzero" fill-opacity="1" /><path clip-path="url(#clip610)" d="M186.399 1234.45 Q182.788 1234.45 180.959 1238.01 Q179.154 1241.55 179.154 1248.68 Q179.154 1255.79 180.959 1259.35 Q182.788 1262.9 186.399 1262.9 Q190.033 1262.9 191.839 1259.35 Q193.668 1255.79 193.668 1248.68 Q193.668 1241.55 191.839 1238.01 Q190.033 1234.45 186.399 1234.45 M186.399 1230.74 Q192.209 1230.74 195.265 1235.35 Q198.344 1239.93 198.344 1248.68 Q198.344 1257.41 195.265 1262.02 Q192.209 1266.6 186.399 1266.6 Q180.589 1266.6 177.51 1262.02 Q174.455 1257.41 174.455 1248.68 Q174.455 1239.93 177.51 1235.35 Q180.589 1230.74 186.399 1230.74 Z" fill="#000000" fill-rule="nonzero" fill-opacity="1" /><path clip-path="url(#clip610)" d="M216.561 1234.45 Q212.95 1234.45 211.121 1238.01 Q209.316 1241.55 209.316 1248.68 Q209.316 1255.79 211.121 1259.35 Q212.95 1262.9 216.561 1262.9 Q220.195 1262.9 222.001 1259.35 Q223.83 1255.79 223.83 1248.68 Q223.83 1241.55 222.001 1238.01 Q220.195 1234.45 216.561 1234.45 M216.561 1230.74 Q222.371 1230.74 225.427 1235.35 Q228.506 1239.93 228.506 1248.68 Q228.506 1257.41 225.427 1262.02 Q222.371 1266.6 216.561 1266.6 Q210.751 1266.6 207.672 1262.02 Q204.617 1257.41 204.617 1248.68 Q204.617 1239.93 207.672 1235.35 Q210.751 1230.74 216.561 1230.74 Z" fill="#000000" fill-rule="nonzero" fill-opacity="1" /><path clip-path="url(#clip610)" d="M116.886 817.542 L124.525 817.542 L124.525 791.176 L116.214 792.843 L116.214 788.584 L124.478 786.917 L129.154 786.917 L129.154 817.542 L136.793 817.542 L136.793 821.477 L116.886 821.477 L116.886 817.542 Z" fill="#000000" fill-rule="nonzero" fill-opacity="1" /><path clip-path="url(#clip610)" d="M156.237 789.996 Q152.626 789.996 150.798 793.561 Q148.992 797.102 148.992 804.232 Q148.992 811.338 150.798 814.903 Q152.626 818.445 156.237 818.445 Q159.872 818.445 161.677 814.903 Q163.506 811.338 163.506 804.232 Q163.506 797.102 161.677 793.561 Q159.872 789.996 156.237 789.996 M156.237 786.292 Q162.048 786.292 165.103 790.899 Q168.182 795.482 168.182 804.232 Q168.182 812.959 165.103 817.565 Q162.048 822.148 156.237 822.148 Q150.427 822.148 147.349 817.565 Q144.293 812.959 144.293 804.232 Q144.293 795.482 147.349 790.899 Q150.427 786.292 156.237 786.292 Z" fill="#000000" fill-rule="nonzero" fill-opacity="1" /><path clip-path="url(#clip610)" d="M186.399 789.996 Q182.788 789.996 180.959 793.561 Q179.154 797.102 179.154 804.232 Q179.154 811.338 180.959 814.903 Q182.788 818.445 186.399 818.445 Q190.033 818.445 191.839 814.903 Q193.668 811.338 193.668 804.232 Q193.668 797.102 191.839 793.561 Q190.033 789.996 186.399 789.996 M186.399 786.292 Q192.209 786.292 195.265 790.899 Q198.344 795.482 198.344 804.232 Q198.344 812.959 195.265 817.565 Q192.209 822.148 186.399 822.148 Q180.589 822.148 177.51 817.565 Q174.455 812.959 174.455 804.232 Q174.455 795.482 177.51 790.899 Q180.589 786.292 186.399 786.292 Z" fill="#000000" fill-rule="nonzero" fill-opacity="1" /><path clip-path="url(#clip610)" d="M216.561 789.996 Q212.95 789.996 211.121 793.561 Q209.316 797.102 209.316 804.232 Q209.316 811.338 211.121 814.903 Q212.95 818.445 216.561 818.445 Q220.195 818.445 222.001 814.903 Q223.83 811.338 223.83 804.232 Q223.83 797.102 222.001 793.561 Q220.195 789.996 216.561 789.996 M216.561 786.292 Q222.371 786.292 225.427 790.899 Q228.506 795.482 228.506 804.232 Q228.506 812.959 225.427 817.565 Q222.371 822.148 216.561 822.148 Q210.751 822.148 207.672 817.565 Q204.617 812.959 204.617 804.232 Q204.617 795.482 207.672 790.899 Q210.751 786.292 216.561 786.292 Z" fill="#000000" fill-rule="nonzero" fill-opacity="1" /><path clip-path="url(#clip610)" d="M116.886 373.091 L124.525 373.091 L124.525 346.725 L116.214 348.392 L116.214 344.133 L124.478 342.466 L129.154 342.466 L129.154 373.091 L136.793 373.091 L136.793 377.026 L116.886 377.026 L116.886 373.091 Z" fill="#000000" fill-rule="nonzero" fill-opacity="1" /><path clip-path="url(#clip610)" d="M146.284 342.466 L164.64 342.466 L164.64 346.401 L150.566 346.401 L150.566 354.873 Q151.585 354.526 152.603 354.364 Q153.622 354.179 154.64 354.179 Q160.427 354.179 163.807 357.35 Q167.186 360.521 167.186 365.938 Q167.186 371.517 163.714 374.618 Q160.242 377.697 153.923 377.697 Q151.747 377.697 149.478 377.327 Q147.233 376.956 144.825 376.216 L144.825 371.517 Q146.909 372.651 149.131 373.206 Q151.353 373.762 153.83 373.762 Q157.835 373.762 160.173 371.656 Q162.51 369.549 162.51 365.938 Q162.51 362.327 160.173 360.22 Q157.835 358.114 153.83 358.114 Q151.955 358.114 150.08 358.531 Q148.228 358.947 146.284 359.827 L146.284 342.466 Z" fill="#000000" fill-rule="nonzero" fill-opacity="1" /><path clip-path="url(#clip610)" d="M186.399 345.545 Q182.788 345.545 180.959 349.109 Q179.154 352.651 179.154 359.781 Q179.154 366.887 180.959 370.452 Q182.788 373.993 186.399 373.993 Q190.033 373.993 191.839 370.452 Q193.668 366.887 193.668 359.781 Q193.668 352.651 191.839 349.109 Q190.033 345.545 186.399 345.545 M186.399 341.841 Q192.209 341.841 195.265 346.447 Q198.344 351.031 198.344 359.781 Q198.344 368.507 195.265 373.114 Q192.209 377.697 186.399 377.697 Q180.589 377.697 177.51 373.114 Q174.455 368.507 174.455 359.781 Q174.455 351.031 177.51 346.447 Q180.589 341.841 186.399 341.841 Z" fill="#000000" fill-rule="nonzero" fill-opacity="1" /><path clip-path="url(#clip610)" d="M216.561 345.545 Q212.95 345.545 211.121 349.109 Q209.316 352.651 209.316 359.781 Q209.316 366.887 211.121 370.452 Q212.95 373.993 216.561 373.993 Q220.195 373.993 222.001 370.452 Q223.83 366.887 223.83 359.781 Q223.83 352.651 222.001 349.109 Q220.195 345.545 216.561 345.545 M216.561 341.841 Q222.371 341.841 225.427 346.447 Q228.506 351.031 228.506 359.781 Q228.506 368.507 225.427 373.114 Q222.371 377.697 216.561 377.697 Q210.751 377.697 207.672 373.114 Q204.617 368.507 204.617 359.781 Q204.617 351.031 207.672 346.447 Q210.751 341.841 216.561 341.841 Z" fill="#000000" fill-rule="nonzero" fill-opacity="1" /><path clip-path="url(#clip610)" d="M14.1184 1156.63 L14.1184 1147.05 L46.4562 1134.93 L14.1184 1122.74 L14.1184 1113.16 L61.6384 1113.16 L61.6384 1119.43 L19.9112 1119.43 L52.5037 1131.68 L52.5037 1138.14 L19.9112 1150.4 L61.6384 1150.4 L61.6384 1156.63 L14.1184 1156.63 Z" fill="#000000" fill-rule="nonzero" fill-opacity="1" /><path clip-path="url(#clip610)" d="M42.3504 1070.16 L45.2149 1070.16 L45.2149 1097.08 Q51.2623 1096.7 54.4452 1093.46 Q57.5962 1090.18 57.5962 1084.35 Q57.5962 1080.98 56.7687 1077.83 Q55.9411 1074.64 54.2861 1071.53 L59.8242 1071.53 Q61.161 1074.68 61.8612 1077.99 Q62.5615 1081.3 62.5615 1084.7 Q62.5615 1093.23 57.5962 1098.23 Q52.631 1103.19 44.1646 1103.19 Q35.4117 1103.19 30.2873 1098.48 Q25.1311 1093.74 25.1311 1085.72 Q25.1311 1078.53 29.7781 1074.36 Q34.3932 1070.16 42.3504 1070.16 M40.6316 1076.01 Q35.8255 1076.08 32.9609 1078.72 Q30.0964 1081.33 30.0964 1085.66 Q30.0964 1090.56 32.8654 1093.52 Q35.6345 1096.45 40.6634 1096.89 L40.6316 1076.01 Z" fill="#000000" fill-rule="nonzero" fill-opacity="1" /><path clip-path="url(#clip610)" d="M43.719 1044.34 Q43.719 1051.44 45.3422 1054.18 Q46.9655 1056.92 50.8804 1056.92 Q53.9996 1056.92 55.8457 1054.88 Q57.6599 1052.81 57.6599 1049.28 Q57.6599 1044.41 54.2224 1041.48 Q50.7531 1038.52 45.0239 1038.52 L43.719 1038.52 L43.719 1044.34 M41.3 1032.66 L61.6384 1032.66 L61.6384 1038.52 L56.2276 1038.52 Q59.4741 1040.52 61.0337 1043.52 Q62.5615 1046.51 62.5615 1050.84 Q62.5615 1056.31 59.5059 1059.56 Q56.4186 1062.77 51.2623 1062.77 Q45.2467 1062.77 42.1912 1058.76 Q39.1357 1054.72 39.1357 1046.73 L39.1357 1038.52 L38.5628 1038.52 Q34.5205 1038.52 32.3244 1041.19 Q30.0964 1043.83 30.0964 1048.64 Q30.0964 1051.7 30.8284 1054.59 Q31.5605 1057.49 33.0246 1060.16 L27.6137 1060.16 Q26.3724 1056.95 25.7677 1053.92 Q25.1311 1050.9 25.1311 1048.04 Q25.1311 1040.3 29.1415 1036.48 Q33.1519 1032.66 41.3 1032.66 Z" fill="#000000" fill-rule="nonzero" fill-opacity="1" /><path clip-path="url(#clip610)" d="M40.1224 990.967 L61.6384 990.967 L61.6384 996.824 L40.3133 996.824 Q35.2526 996.824 32.7381 998.797 Q30.2237 1000.77 30.2237 1004.72 Q30.2237 1009.46 33.2474 1012.2 Q36.2711 1014.93 41.491 1014.93 L61.6384 1014.93 L61.6384 1020.82 L25.9905 1020.82 L25.9905 1014.93 L31.5287 1014.93 Q28.314 1012.83 26.7225 1010 Q25.1311 1007.14 25.1311 1003.41 Q25.1311 997.269 28.9505 994.118 Q32.7381 990.967 40.1224 990.967 Z" fill="#000000" fill-rule="nonzero" fill-opacity="1" /><path clip-path="url(#clip610)" d="M25.9905 958.566 L25.9905 952.709 L61.6384 952.709 L61.6384 958.566 L25.9905 958.566 M12.1132 958.566 L12.1132 952.709 L19.5293 952.709 L19.5293 958.566 L12.1132 958.566 Z" fill="#000000" fill-rule="nonzero" fill-opacity="1" /><path clip-path="url(#clip610)" d="M40.1224 910.823 L61.6384 910.823 L61.6384 916.679 L40.3133 916.679 Q35.2526 916.679 32.7381 918.653 Q30.2237 920.626 30.2237 924.573 Q30.2237 929.315 33.2474 932.053 Q36.2711 934.79 41.491 934.79 L61.6384 934.79 L61.6384 940.678 L25.9905 940.678 L25.9905 934.79 L31.5287 934.79 Q28.314 932.689 26.7225 929.856 Q25.1311 926.992 25.1311 923.268 Q25.1311 917.125 28.9505 913.974 Q32.7381 910.823 40.1224 910.823 Z" fill="#000000" fill-rule="nonzero" fill-opacity="1" /><path clip-path="url(#clip610)" d="M12.1132 881.095 L16.983 881.095 L16.983 886.697 Q16.983 889.848 18.2562 891.089 Q19.5293 892.299 22.8395 892.299 L25.9905 892.299 L25.9905 882.655 L30.542 882.655 L30.542 892.299 L61.6384 892.299 L61.6384 898.187 L30.542 898.187 L30.542 903.789 L25.9905 903.789 L25.9905 898.187 L23.5079 898.187 Q17.5559 898.187 14.8505 895.418 Q12.1132 892.649 12.1132 886.633 L12.1132 881.095 Z" fill="#000000" fill-rule="nonzero" fill-opacity="1" /><path clip-path="url(#clip610)" d="M42.3504 845.702 L45.2149 845.702 L45.2149 872.629 Q51.2623 872.247 54.4452 869 Q57.5962 865.722 57.5962 859.897 Q57.5962 856.524 56.7687 853.373 Q55.9411 850.19 54.2861 847.07 L59.8242 847.07 Q61.161 850.221 61.8612 853.532 Q62.5615 856.842 62.5615 860.247 Q62.5615 868.778 57.5962 873.775 Q52.631 878.74 44.1646 878.74 Q35.4117 878.74 30.2873 874.029 Q25.1311 869.287 25.1311 861.266 Q25.1311 854.073 29.7781 849.903 Q34.3932 845.702 42.3504 845.702 M40.6316 851.558 Q35.8255 851.622 32.9609 854.264 Q30.0964 856.874 30.0964 861.202 Q30.0964 866.104 32.8654 869.064 Q35.6345 871.992 40.6634 872.438 L40.6316 851.558 Z" fill="#000000" fill-rule="nonzero" fill-opacity="1" /><path clip-path="url(#clip610)" d="M27.3591 810.436 L32.8336 810.436 Q31.465 812.918 30.7966 815.433 Q30.0964 817.916 30.0964 820.462 Q30.0964 826.159 33.7248 829.31 Q37.3214 832.461 43.8463 832.461 Q50.3711 832.461 53.9996 829.31 Q57.5962 826.159 57.5962 820.462 Q57.5962 817.916 56.9278 815.433 Q56.2276 812.918 54.859 810.436 L60.2698 810.436 Q61.4156 812.887 61.9886 815.528 Q62.5615 818.138 62.5615 821.098 Q62.5615 829.151 57.5007 833.893 Q52.44 838.636 43.8463 838.636 Q35.1253 838.636 30.1282 833.862 Q25.1311 829.056 25.1311 820.716 Q25.1311 818.011 25.704 815.433 Q26.2451 812.855 27.3591 810.436 Z" fill="#000000" fill-rule="nonzero" fill-opacity="1" /><path clip-path="url(#clip610)" d="M15.869 794.458 L25.9905 794.458 L25.9905 782.395 L30.542 782.395 L30.542 794.458 L49.8937 794.458 Q54.2542 794.458 55.4955 793.28 Q56.7368 792.071 56.7368 788.41 L56.7368 782.395 L61.6384 782.395 L61.6384 788.41 Q61.6384 795.19 59.124 797.768 Q56.5777 800.346 49.8937 800.346 L30.542 800.346 L30.542 804.643 L25.9905 804.643 L25.9905 800.346 L15.869 800.346 L15.869 794.458 Z" fill="#000000" fill-rule="nonzero" fill-opacity="1" /><path clip-path="url(#clip610)" d="M42.3504 744.201 L45.2149 744.201 L45.2149 771.128 Q51.2623 770.746 54.4452 767.499 Q57.5962 764.221 57.5962 758.396 Q57.5962 755.022 56.7687 751.871 Q55.9411 748.688 54.2861 745.569 L59.8242 745.569 Q61.161 748.72 61.8612 752.03 Q62.5615 755.341 62.5615 758.746 Q62.5615 767.276 57.5962 772.273 Q52.631 777.239 44.1646 777.239 Q35.4117 777.239 30.2873 772.528 Q25.1311 767.786 25.1311 759.765 Q25.1311 752.572 29.7781 748.402 Q34.3932 744.201 42.3504 744.201 M40.6316 750.057 Q35.8255 750.121 32.9609 752.763 Q30.0964 755.372 30.0964 759.701 Q30.0964 764.603 32.8654 767.563 Q35.6345 770.491 40.6634 770.937 L40.6316 750.057 Z" fill="#000000" fill-rule="nonzero" fill-opacity="1" /><path clip-path="url(#clip610)" d="M31.4013 711.131 L12.1132 711.131 L12.1132 705.274 L61.6384 705.274 L61.6384 711.131 L56.2912 711.131 Q59.4741 712.977 61.0337 715.81 Q62.5615 718.61 62.5615 722.557 Q62.5615 729.018 57.4052 733.092 Q52.249 737.135 43.8463 737.135 Q35.4436 737.135 30.2873 733.092 Q25.1311 729.018 25.1311 722.557 Q25.1311 718.61 26.6907 715.81 Q28.2185 712.977 31.4013 711.131 M43.8463 731.087 Q50.3075 731.087 53.9996 728.446 Q57.6599 725.772 57.6599 721.125 Q57.6599 716.478 53.9996 713.804 Q50.3075 711.131 43.8463 711.131 Q37.3851 711.131 33.7248 713.804 Q30.0327 716.478 30.0327 721.125 Q30.0327 725.772 33.7248 728.446 Q37.3851 731.087 43.8463 731.087 Z" fill="#000000" fill-rule="nonzero" fill-opacity="1" /><path clip-path="url(#clip610)" d="M904.07 12.096 L912.253 12.096 L912.253 72.576 L904.07 72.576 L904.07 12.096 Z" fill="#000000" fill-rule="nonzero" fill-opacity="1" /><path clip-path="url(#clip610)" d="M963.538 35.9153 Q966.333 30.8922 970.222 28.5022 Q974.11 26.1121 979.377 26.1121 Q986.466 26.1121 990.314 31.0947 Q994.162 36.0368 994.162 45.1919 L994.162 72.576 L986.668 72.576 L986.668 45.4349 Q986.668 38.913 984.359 35.7533 Q982.05 32.5936 977.311 32.5936 Q971.518 32.5936 968.156 36.4419 Q964.793 40.2903 964.793 46.9338 L964.793 72.576 L957.299 72.576 L957.299 45.4349 Q957.299 38.8725 954.99 35.7533 Q952.681 32.5936 947.861 32.5936 Q942.149 32.5936 938.787 36.4824 Q935.424 40.3308 935.424 46.9338 L935.424 72.576 L927.93 72.576 L927.93 27.2059 L935.424 27.2059 L935.424 34.2544 Q937.976 30.082 941.541 28.0971 Q945.106 26.1121 950.008 26.1121 Q954.95 26.1121 958.393 28.6237 Q961.877 31.1352 963.538 35.9153 Z" fill="#000000" fill-rule="nonzero" fill-opacity="1" /><path clip-path="url(#clip610)" d="M1016.24 65.7705 L1016.24 89.8329 L1008.75 89.8329 L1008.75 27.2059 L1016.24 27.2059 L1016.24 34.0924 Q1018.59 30.0415 1022.15 28.0971 Q1025.76 26.1121 1030.74 26.1121 Q1039.01 26.1121 1044.15 32.6746 Q1049.34 39.2371 1049.34 49.9314 Q1049.34 60.6258 1044.15 67.1883 Q1039.01 73.7508 1030.74 73.7508 Q1025.76 73.7508 1022.15 71.8063 Q1018.59 69.8214 1016.24 65.7705 M1041.6 49.9314 Q1041.6 41.7081 1038.2 37.0496 Q1034.83 32.3505 1028.92 32.3505 Q1023 32.3505 1019.6 37.0496 Q1016.24 41.7081 1016.24 49.9314 Q1016.24 58.1548 1019.6 62.8538 Q1023 67.5124 1028.92 67.5124 Q1034.83 67.5124 1038.2 62.8538 Q1041.6 58.1548 1041.6 49.9314 Z" fill="#000000" fill-rule="nonzero" fill-opacity="1" /><path clip-path="url(#clip610)" d="M1082.31 49.7694 Q1073.28 49.7694 1069.79 51.8354 Q1066.31 53.9013 1066.31 58.8839 Q1066.31 62.8538 1068.9 65.2034 Q1071.53 67.5124 1076.03 67.5124 Q1082.23 67.5124 1085.96 63.1374 Q1089.72 58.7219 1089.72 51.4303 L1089.72 49.7694 L1082.31 49.7694 M1097.18 46.6907 L1097.18 72.576 L1089.72 72.576 L1089.72 65.6895 Q1087.17 69.8214 1083.36 71.8063 Q1079.56 73.7508 1074.05 73.7508 Q1067.08 73.7508 1062.95 69.8619 Q1058.86 65.9325 1058.86 59.3701 Q1058.86 51.7138 1063.96 47.825 Q1069.1 43.9361 1079.27 43.9361 L1089.72 43.9361 L1089.72 43.2069 Q1089.72 38.0623 1086.32 35.2672 Q1082.96 32.4315 1076.84 32.4315 Q1072.95 32.4315 1069.27 33.3632 Q1065.58 34.295 1062.18 36.1584 L1062.18 29.2718 Q1066.27 27.692 1070.12 26.9223 Q1073.97 26.1121 1077.61 26.1121 Q1087.45 26.1121 1092.32 31.2163 Q1097.18 36.3204 1097.18 46.6907 Z" fill="#000000" fill-rule="nonzero" fill-opacity="1" /><path clip-path="url(#clip610)" d="M1145.18 28.9478 L1145.18 35.9153 Q1142.02 34.1734 1138.82 33.3227 Q1135.66 32.4315 1132.42 32.4315 Q1125.17 32.4315 1121.16 37.0496 Q1117.15 41.6271 1117.15 49.9314 Q1117.15 58.2358 1121.16 62.8538 Q1125.17 67.4314 1132.42 67.4314 Q1135.66 67.4314 1138.82 66.5807 Q1142.02 65.6895 1145.18 63.9476 L1145.18 70.8341 Q1142.06 72.2924 1138.7 73.0216 Q1135.38 73.7508 1131.61 73.7508 Q1121.36 73.7508 1115.32 67.3098 Q1109.29 60.8689 1109.29 49.9314 Q1109.29 38.832 1115.37 32.472 Q1121.48 26.1121 1132.1 26.1121 Q1135.54 26.1121 1138.82 26.8413 Q1142.1 27.5299 1145.18 28.9478 Z" fill="#000000" fill-rule="nonzero" fill-opacity="1" /><path clip-path="url(#clip610)" d="M1165.52 14.324 L1165.52 27.2059 L1180.87 27.2059 L1180.87 32.9987 L1165.52 32.9987 L1165.52 57.6282 Q1165.52 63.1779 1167.01 64.7578 Q1168.55 66.3376 1173.21 66.3376 L1180.87 66.3376 L1180.87 72.576 L1173.21 72.576 Q1164.58 72.576 1161.3 69.3758 Q1158.02 66.1351 1158.02 57.6282 L1158.02 32.9987 L1152.55 32.9987 L1152.55 27.2059 L1158.02 27.2059 L1158.02 14.324 L1165.52 14.324 Z" fill="#000000" fill-rule="nonzero" fill-opacity="1" /><path clip-path="url(#clip610)" d="M1234.62 32.4315 Q1228.63 32.4315 1225.14 37.1306 Q1221.66 41.7891 1221.66 49.9314 Q1221.66 58.0738 1225.1 62.7728 Q1228.59 67.4314 1234.62 67.4314 Q1240.58 67.4314 1244.06 62.7323 Q1247.55 58.0333 1247.55 49.9314 Q1247.55 41.8701 1244.06 37.1711 Q1240.58 32.4315 1234.62 32.4315 M1234.62 26.1121 Q1244.35 26.1121 1249.9 32.4315 Q1255.45 38.7509 1255.45 49.9314 Q1255.45 61.0714 1249.9 67.4314 Q1244.35 73.7508 1234.62 73.7508 Q1224.86 73.7508 1219.31 67.4314 Q1213.8 61.0714 1213.8 49.9314 Q1213.8 38.7509 1219.31 32.4315 Q1224.86 26.1121 1234.62 26.1121 Z" fill="#000000" fill-rule="nonzero" fill-opacity="1" /><path clip-path="url(#clip610)" d="M1290.77 9.54393 L1290.77 15.7418 L1283.64 15.7418 Q1279.63 15.7418 1278.05 17.3622 Q1276.51 18.9825 1276.51 23.1955 L1276.51 27.2059 L1288.78 27.2059 L1288.78 32.9987 L1276.51 32.9987 L1276.51 72.576 L1269.02 72.576 L1269.02 32.9987 L1261.89 32.9987 L1261.89 27.2059 L1269.02 27.2059 L1269.02 24.0462 Q1269.02 16.471 1272.54 13.0277 Q1276.06 9.54393 1283.72 9.54393 L1290.77 9.54393 Z" fill="#000000" fill-rule="nonzero" fill-opacity="1" /><path clip-path="url(#clip610)" d="M1339.3 72.576 L1316.21 12.096 L1324.76 12.096 L1343.92 63.0159 L1363.12 12.096 L1371.63 12.096 L1348.58 72.576 L1339.3 72.576 Z" fill="#000000" fill-rule="nonzero" fill-opacity="1" /><path clip-path="url(#clip610)" d="M1394.31 49.7694 Q1385.28 49.7694 1381.79 51.8354 Q1378.31 53.9013 1378.31 58.8839 Q1378.31 62.8538 1380.9 65.2034 Q1383.54 67.5124 1388.03 67.5124 Q1394.23 67.5124 1397.96 63.1374 Q1401.72 58.7219 1401.72 51.4303 L1401.72 49.7694 L1394.31 49.7694 M1409.18 46.6907 L1409.18 72.576 L1401.72 72.576 L1401.72 65.6895 Q1399.17 69.8214 1395.36 71.8063 Q1391.56 73.7508 1386.05 73.7508 Q1379.08 73.7508 1374.95 69.8619 Q1370.86 65.9325 1370.86 59.3701 Q1370.86 51.7138 1375.96 47.825 Q1381.1 43.9361 1391.27 43.9361 L1401.72 43.9361 L1401.72 43.2069 Q1401.72 38.0623 1398.32 35.2672 Q1394.96 32.4315 1388.84 32.4315 Q1384.95 32.4315 1381.27 33.3632 Q1377.58 34.295 1374.18 36.1584 L1374.18 29.2718 Q1378.27 27.692 1382.12 26.9223 Q1385.97 26.1121 1389.61 26.1121 Q1399.46 26.1121 1404.32 31.2163 Q1409.18 36.3204 1409.18 46.6907 Z" fill="#000000" fill-rule="nonzero" fill-opacity="1" /><path clip-path="url(#clip610)" d="M1457.18 28.9478 L1457.18 35.9153 Q1454.02 34.1734 1450.82 33.3227 Q1447.66 32.4315 1444.42 32.4315 Q1437.17 32.4315 1433.16 37.0496 Q1429.15 41.6271 1429.15 49.9314 Q1429.15 58.2358 1433.16 62.8538 Q1437.17 67.4314 1444.42 67.4314 Q1447.66 67.4314 1450.82 66.5807 Q1454.02 65.6895 1457.18 63.9476 L1457.18 70.8341 Q1454.06 72.2924 1450.7 73.0216 Q1447.38 73.7508 1443.61 73.7508 Q1433.36 73.7508 1427.33 67.3098 Q1421.29 60.8689 1421.29 49.9314 Q1421.29 38.832 1427.37 32.472 Q1433.48 26.1121 1444.1 26.1121 Q1447.54 26.1121 1450.82 26.8413 Q1454.1 27.5299 1457.18 28.9478 Z" fill="#000000" fill-rule="nonzero" fill-opacity="1" /><path clip-path="url(#clip610)" d="M1502.79 28.9478 L1502.79 35.9153 Q1499.63 34.1734 1496.43 33.3227 Q1493.27 32.4315 1490.03 32.4315 Q1482.78 32.4315 1478.77 37.0496 Q1474.76 41.6271 1474.76 49.9314 Q1474.76 58.2358 1478.77 62.8538 Q1482.78 67.4314 1490.03 67.4314 Q1493.27 67.4314 1496.43 66.5807 Q1499.63 65.6895 1502.79 63.9476 L1502.79 70.8341 Q1499.67 72.2924 1496.31 73.0216 Q1492.99 73.7508 1489.22 73.7508 Q1478.97 73.7508 1472.94 67.3098 Q1466.9 60.8689 1466.9 49.9314 Q1466.9 38.832 1472.98 32.472 Q1479.1 26.1121 1489.71 26.1121 Q1493.15 26.1121 1496.43 26.8413 Q1499.72 27.5299 1502.79 28.9478 Z" fill="#000000" fill-rule="nonzero" fill-opacity="1" /><path clip-path="url(#clip610)" d="M1515.76 27.2059 L1523.21 27.2059 L1523.21 72.576 L1515.76 72.576 L1515.76 27.2059 M1515.76 9.54393 L1523.21 9.54393 L1523.21 18.9825 L1515.76 18.9825 L1515.76 9.54393 Z" fill="#000000" fill-rule="nonzero" fill-opacity="1" /><path clip-path="url(#clip610)" d="M1576.52 45.1919 L1576.52 72.576 L1569.07 72.576 L1569.07 45.4349 Q1569.07 38.994 1566.56 35.7938 Q1564.04 32.5936 1559.02 32.5936 Q1552.98 32.5936 1549.5 36.4419 Q1546.02 40.2903 1546.02 46.9338 L1546.02 72.576 L1538.52 72.576 L1538.52 27.2059 L1546.02 27.2059 L1546.02 34.2544 Q1548.69 30.163 1552.3 28.1376 Q1555.94 26.1121 1560.68 26.1121 Q1568.5 26.1121 1572.51 30.9732 Q1576.52 35.7938 1576.52 45.1919 Z" fill="#000000" fill-rule="nonzero" fill-opacity="1" /><path clip-path="url(#clip610)" d="M1612.01 49.7694 Q1602.97 49.7694 1599.49 51.8354 Q1596.01 53.9013 1596.01 58.8839 Q1596.01 62.8538 1598.6 65.2034 Q1601.23 67.5124 1605.73 67.5124 Q1611.93 67.5124 1615.65 63.1374 Q1619.42 58.7219 1619.42 51.4303 L1619.42 49.7694 L1612.01 49.7694 M1626.87 46.6907 L1626.87 72.576 L1619.42 72.576 L1619.42 65.6895 Q1616.87 69.8214 1613.06 71.8063 Q1609.25 73.7508 1603.74 73.7508 Q1596.77 73.7508 1592.64 69.8619 Q1588.55 65.9325 1588.55 59.3701 Q1588.55 51.7138 1593.66 47.825 Q1598.8 43.9361 1608.97 43.9361 L1619.42 43.9361 L1619.42 43.2069 Q1619.42 38.0623 1616.02 35.2672 Q1612.65 32.4315 1606.54 32.4315 Q1602.65 32.4315 1598.96 33.3632 Q1595.28 34.295 1591.87 36.1584 L1591.87 29.2718 Q1595.96 27.692 1599.81 26.9223 Q1603.66 26.1121 1607.31 26.1121 Q1617.15 26.1121 1622.01 31.2163 Q1626.87 36.3204 1626.87 46.6907 Z" fill="#000000" fill-rule="nonzero" fill-opacity="1" /><path clip-path="url(#clip610)" d="M1649.6 14.324 L1649.6 27.2059 L1664.95 27.2059 L1664.95 32.9987 L1649.6 32.9987 L1649.6 57.6282 Q1649.6 63.1779 1651.1 64.7578 Q1652.64 66.3376 1657.3 66.3376 L1664.95 66.3376 L1664.95 72.576 L1657.3 72.576 Q1648.67 72.576 1645.39 69.3758 Q1642.1 66.1351 1642.1 57.6282 L1642.1 32.9987 L1636.64 32.9987 L1636.64 27.2059 L1642.1 27.2059 L1642.1 14.324 L1649.6 14.324 Z" fill="#000000" fill-rule="nonzero" fill-opacity="1" /><path clip-path="url(#clip610)" d="M1674.75 27.2059 L1682.21 27.2059 L1682.21 72.576 L1674.75 72.576 L1674.75 27.2059 M1674.75 9.54393 L1682.21 9.54393 L1682.21 18.9825 L1674.75 18.9825 L1674.75 9.54393 Z" fill="#000000" fill-rule="nonzero" fill-opacity="1" /><path clip-path="url(#clip610)" d="M1715.39 32.4315 Q1709.39 32.4315 1705.91 37.1306 Q1702.42 41.7891 1702.42 49.9314 Q1702.42 58.0738 1705.87 62.7728 Q1709.35 67.4314 1715.39 67.4314 Q1721.34 67.4314 1724.82 62.7323 Q1728.31 58.0333 1728.31 49.9314 Q1728.31 41.8701 1724.82 37.1711 Q1721.34 32.4315 1715.39 32.4315 M1715.39 26.1121 Q1725.11 26.1121 1730.66 32.4315 Q1736.21 38.7509 1736.21 49.9314 Q1736.21 61.0714 1730.66 67.4314 Q1725.11 73.7508 1715.39 73.7508 Q1705.62 73.7508 1700.07 67.4314 Q1694.56 61.0714 1694.56 49.9314 Q1694.56 38.7509 1700.07 32.4315 Q1705.62 26.1121 1715.39 26.1121 Z" fill="#000000" fill-rule="nonzero" fill-opacity="1" /><path clip-path="url(#clip610)" d="M1786.28 45.1919 L1786.28 72.576 L1778.82 72.576 L1778.82 45.4349 Q1778.82 38.994 1776.31 35.7938 Q1773.8 32.5936 1768.78 32.5936 Q1762.74 32.5936 1759.26 36.4419 Q1755.77 40.2903 1755.77 46.9338 L1755.77 72.576 L1748.28 72.576 L1748.28 27.2059 L1755.77 27.2059 L1755.77 34.2544 Q1758.45 30.163 1762.05 28.1376 Q1765.7 26.1121 1770.44 26.1121 Q1778.26 26.1121 1782.27 30.9732 Q1786.28 35.7938 1786.28 45.1919 Z" fill="#000000" fill-rule="nonzero" fill-opacity="1" /><path clip-path="url(#clip610)" d="M1856.52 44.2197 Q1859.15 45.1109 1861.62 48.0275 Q1864.13 50.9442 1866.65 56.0483 L1874.95 72.576 L1866.16 72.576 L1858.42 57.061 Q1855.43 50.9847 1852.59 48.9997 Q1849.79 47.0148 1844.93 47.0148 L1836.02 47.0148 L1836.02 72.576 L1827.84 72.576 L1827.84 12.096 L1846.31 12.096 Q1856.68 12.096 1861.79 16.4305 Q1866.89 20.7649 1866.89 29.5149 Q1866.89 35.2267 1864.22 38.994 Q1861.58 42.7613 1856.52 44.2197 M1836.02 18.8205 L1836.02 40.2903 L1846.31 40.2903 Q1852.22 40.2903 1855.22 37.5762 Q1858.26 34.8216 1858.26 29.5149 Q1858.26 24.2082 1855.22 21.5346 Q1852.22 18.8205 1846.31 18.8205 L1836.02 18.8205 Z" fill="#000000" fill-rule="nonzero" fill-opacity="1" /><path clip-path="url(#clip610)" d="M1903.95 49.7694 Q1894.92 49.7694 1891.44 51.8354 Q1887.95 53.9013 1887.95 58.8839 Q1887.95 62.8538 1890.55 65.2034 Q1893.18 67.5124 1897.68 67.5124 Q1903.87 67.5124 1907.6 63.1374 Q1911.37 58.7219 1911.37 51.4303 L1911.37 49.7694 L1903.95 49.7694 M1918.82 46.6907 L1918.82 72.576 L1911.37 72.576 L1911.37 65.6895 Q1908.82 69.8214 1905.01 71.8063 Q1901.2 73.7508 1895.69 73.7508 Q1888.72 73.7508 1884.59 69.8619 Q1880.5 65.9325 1880.5 59.3701 Q1880.5 51.7138 1885.6 47.825 Q1890.75 43.9361 1900.92 43.9361 L1911.37 43.9361 L1911.37 43.2069 Q1911.37 38.0623 1907.97 35.2672 Q1904.6 32.4315 1898.49 32.4315 Q1894.6 32.4315 1890.91 33.3632 Q1887.22 34.295 1883.82 36.1584 L1883.82 29.2718 Q1887.91 27.692 1891.76 26.9223 Q1895.61 26.1121 1899.26 26.1121 Q1909.1 26.1121 1913.96 31.2163 Q1918.82 36.3204 1918.82 46.6907 Z" fill="#000000" fill-rule="nonzero" fill-opacity="1" /><path clip-path="url(#clip610)" d="M1941.55 14.324 L1941.55 27.2059 L1956.9 27.2059 L1956.9 32.9987 L1941.55 32.9987 L1941.55 57.6282 Q1941.55 63.1779 1943.05 64.7578 Q1944.59 66.3376 1949.24 66.3376 L1956.9 66.3376 L1956.9 72.576 L1949.24 72.576 Q1940.62 72.576 1937.33 69.3758 Q1934.05 66.1351 1934.05 57.6282 L1934.05 32.9987 L1928.58 32.9987 L1928.58 27.2059 L1934.05 27.2059 L1934.05 14.324 L1941.55 14.324 Z" fill="#000000" fill-rule="nonzero" fill-opacity="1" /><path clip-path="url(#clip610)" d="M2005.51 48.0275 L2005.51 51.6733 L1971.24 51.6733 Q1971.73 59.3701 1975.86 63.421 Q1980.03 67.4314 1987.44 67.4314 Q1991.74 67.4314 1995.75 66.3781 Q1999.8 65.3249 2003.77 63.2184 L2003.77 70.267 Q1999.76 71.9684 1995.55 72.8596 Q1991.33 73.7508 1987 73.7508 Q1976.14 73.7508 1969.78 67.4314 Q1963.46 61.1119 1963.46 50.3365 Q1963.46 39.1965 1969.46 32.6746 Q1975.49 26.1121 1985.7 26.1121 Q1994.86 26.1121 2000.16 32.0264 Q2005.51 37.9003 2005.51 48.0275 M1998.06 45.84 Q1997.98 39.7232 1994.61 36.0774 Q1991.29 32.4315 1985.78 32.4315 Q1979.54 32.4315 1975.78 35.9558 Q1972.05 39.4801 1971.48 45.8805 L1998.06 45.84 Z" fill="#000000" fill-rule="nonzero" fill-opacity="1" /><polyline clip-path="url(#clip611)" style="stroke:#009af9; stroke-linecap:round; stroke-linejoin:round; stroke-width:8; stroke-opacity:1; fill:none" points="335.956,1688.65 342.086,1687.45 348.217,1686.48 354.347,1685.14 360.478,1684.08 366.609,1682.43 372.739,1680.3 378.87,1678.61 385,1676.97 391.131,1674.61 397.262,1671.59 403.392,1668.74 409.523,1665.59 415.653,1662.65 421.784,1658.79 427.915,1652.97 434.045,1647.41 440.176,1639.99 446.306,1634.03 452.437,1626.21 458.568,1619.5 464.698,1609.59 470.829,1600.39 476.959,1589.05 483.09,1575.32 489.221,1559.05 495.351,1545.19 501.482,1521.59 507.613,1502.34 513.743,1479.05 519.874,1451.5 526.004,1422.61 532.135,1389.49 538.266,1351.89 544.396,1312.56 550.527,1267.72 556.657,1222.65 562.788,1176.2 568.919,1119.49 575.049,1055.31 581.18,993.533 587.31,927.355 593.441,856.242 599.572,790.819 605.702,716.951 611.833,639.661 617.963,569.394 624.094,502.015 630.225,431.347 636.355,376.279 642.486,318.59 648.616,263.967 654.747,225.344 660.878,198.321 667.008,179.121 673.139,173.254 679.269,179.299 685.4,185.699 691.531,208.366 697.661,249.478 703.792,292.989 709.922,344.19 716.053,407.08 722.184,466.37 728.314,527.126 734.445,595.661 740.575,662.684 746.706,728.729 752.837,797.264 758.967,860.953 765.098,925.977 771.228,983 777.359,1035.67 783.49,1086.65 789.62,1135.05 795.751,1178.42 801.881,1220.07 808.012,1259.14 814.143,1292.6 820.273,1324.56 826.404,1352.65 832.534,1376.74 838.665,1401.32 844.796,1423.45 850.926,1443.32 857.057,1460.12 863.187,1473.5 869.318,1487.94 875.449,1502.61 881.579,1512.39 887.71,1521.05 893.841,1530.34 899.971,1540.7 906.102,1548.03 912.232,1553.5 918.363,1562.03 924.494,1568.65 930.624,1572.12 936.755,1576.12 942.885,1579.85 949.016,1586.12 955.147,1589.72 961.277,1591.9 967.408,1596.21 973.538,1598.7 979.669,1601.54 985.8,1604.39 991.93,1605.81 998.061,1608.48 1004.19,1610.34 1010.32,1612.96 1016.45,1616.52 1022.58,1618.43 1028.71,1619.72 1034.84,1621.45 1040.97,1623.01 1047.11,1626.52 1053.24,1628.52 1059.37,1631.5 1065.5,1630.61 1071.63,1631.23 1077.76,1631.41 1083.89,1633.54 1090.02,1633.59 1096.15,1633.63 1102.28,1634.74 1108.41,1635.9 1114.54,1635.23 1120.67,1636.65 1126.8,1636.48 1132.93,1635.85 1139.06,1635.77 1145.2,1635.41 1151.33,1636.08 1157.46,1638.21 1163.59,1639.9 1169.72,1639.85 1175.85,1639.54 1181.98,1639.45 1188.11,1639.94 1194.24,1639.28 1200.37,1639.1 1206.5,1639.32 1212.63,1639.81 1218.76,1640.25 1224.89,1640.7 1231.02,1641.14 1237.15,1640.43 1243.28,1639.77 1249.42,1641.1 1255.55,1641.54 1261.68,1640.52 1267.81,1641.9 1273.94,1640.25 1280.07,1640.3 1286.2,1641.32 1292.33,1639.54 1298.46,1638.08 1304.59,1638.92 1310.72,1638.83 1316.85,1637.68 1322.98,1636.74 1329.11,1636.61 1335.24,1634.83 1341.37,1633.99 1347.51,1633.81 1353.64,1632.52 1359.77,1632.12 1365.9,1632.12 1372.03,1631.81 1378.16,1630.25 1384.29,1630.97 1390.42,1629.14 1396.55,1628.83 1402.68,1627.81 1408.81,1625.37 1414.94,1623.99 1421.07,1621.81 1427.2,1618.25 1433.33,1617.19 1439.46,1615.28 1445.59,1615.41 1451.73,1616.12 1457.86,1614.16 1463.99,1611.05 1470.12,1610.34 1476.25,1610.16 1482.38,1608.65 1488.51,1608.03 1494.64,1605.1 1500.77,1604.25 1506.9,1602.25 1513.03,1601.54 1519.16,1600.56 1525.29,1595.36 1531.42,1593.01 1537.55,1590.39 1543.68,1587.63 1549.82,1585.85 1555.95,1584.39 1562.08,1584.34 1568.21,1581.54 1574.34,1580.79 1580.47,1580.21 1586.6,1577.41 1592.73,1575.9 1598.86,1574.16 1604.99,1571.05 1611.12,1566.92 1617.25,1560.92 1623.38,1558.25 1629.51,1553.41 1635.64,1549.5 1641.77,1545.41 1647.9,1544.12 1654.04,1544.3 1660.17,1541.9 1666.3,1537.67 1672.43,1533.76 1678.56,1529.85 1684.69,1527.36 1690.82,1525.5 1696.95,1520.52 1703.08,1516.56 1709.21,1513.72 1715.34,1507.72 1721.47,1503.9 1727.6,1503.19 1733.73,1502.65 1739.86,1499.5 1745.99,1496.61 1752.12,1493.23 1758.26,1488.21 1764.39,1481.76 1770.52,1480.74 1776.65,1478.7 1782.78,1473.19 1788.91,1472.12 1795.04,1465.32 1801.17,1462.12 1807.3,1458.96 1813.43,1457.27 1819.56,1451.67 1825.69,1448.47 1831.82,1449.63 1837.95,1447.05 1844.08,1450.56 1850.21,1443.32 1856.35,1437.72 1862.48,1436.78 1868.61,1435.63 1874.74,1435.1 1880.87,1432.56 1887,1436.61 1893.13,1435.18 1899.26,1431.32 1905.39,1429.98 1911.52,1427.94 1917.65,1428.21 1923.78,1426.3 1929.91,1421.81 1936.04,1422.25 1942.17,1424.16 1948.3,1427.27 1954.43,1428.74 1960.57,1428.16 1966.7,1428.38 1972.83,1429.54 1978.96,1431.67 1985.09,1434.52 1991.22,1436.78 1997.35,1432.74 2003.48,1431.58 2009.61,1432.16 2015.74,1436.12 2021.87,1437.63 2028,1441.41 2034.13,1446.65 2040.26,1448.25 2046.39,1452.56 2052.52,1453.58 2058.66,1453.05 2064.79,1456.03 2070.92,1456.87 2077.05,1458.74 2083.18,1463.98 2089.31,1463.14 2095.44,1462.47 2101.57,1462.96 2107.7,1466.34 2113.83,1466.47 2119.96,1470.7 2126.09,1472.16 2132.22,1473.85 2138.35,1477.14 2144.48,1479.85 2150.61,1479.94 2156.74,1481.81 2162.88,1486.56 2169.01,1490.21 2175.14,1489.72 2181.27,1492.21 2187.4,1495.67 2193.53,1499.85 2199.66,1505.72 2205.79,1507.94 2211.92,1506.56 2218.05,1506.96 2224.18,1508.25 2230.31,1513.05 2236.44,1513.63 2242.57,1514.56 2248.7,1516.52 2254.83,1519.54 2260.97,1520.74 2267.1,1521.72 2273.23,1521.72 2279.36,1522.52 2285.49,1523.85 2291.62,1527.05 2297.75,1529.19 2303.88,1530.61 2310.01,1531.32 2316.14,1534.79 2322.27,1532.74 2328.4,1530.61 2334.53,1529.23 2340.66,1534.61 2346.79,1533.23 2352.92,1535.1 2359.05,1538.74 2365.19,1541.01 2371.32,1541.63 2377.45,1542.96 2383.58,1543.27 2389.71,1543.76 2395.84,1545.28 2401.97,1545.68 2408.1,1547.41 2414.23,1547.45 2420.36,1550.16 2426.49,1549.68 2432.62,1547.05 2438.75,1548.74 2444.88,1549.63 2451.01,1547.94 2457.14,1546.21 2463.27,1546.03 2469.41,1547.36 2475.54,1549.72 2481.67,1550.08 2487.8,1551.5 2493.93,1551.28 2500.06,1548.52 2506.19,1549.76 2512.32,1549.68 2518.45,1548.96 2524.58,1550.61 2530.71,1553.63 2536.84,1554.56 2542.97,1554.25 2549.1,1551.72 2555.23,1550.48 2561.36,1551.63 2567.5,1551.54 2573.63,1549.9 "/>
<polyline clip-path="url(#clip611)" style="stroke:#e26f46; stroke-linecap:round; stroke-linejoin:round; stroke-width:8; stroke-opacity:1; fill:none" points="335.956,1688.65 342.086,1687.45 348.217,1686.48 354.347,1685.14 360.478,1684.08 366.609,1682.43 372.739,1680.3 378.87,1678.61 385,1676.97 391.131,1674.61 397.262,1671.59 403.392,1668.74 409.523,1665.59 415.653,1662.65 421.784,1658.79 427.915,1652.97 434.045,1647.41 440.176,1639.99 446.306,1634.03 452.437,1626.21 458.568,1619.5 464.698,1609.59 470.829,1600.39 476.959,1589.05 483.09,1575.32 489.221,1559.05 495.351,1545.19 501.482,1521.59 507.613,1502.34 513.743,1479.05 519.874,1451.5 526.004,1419.85 532.135,1386.56 538.266,1351.18 544.396,1310.74 550.527,1266.69 556.657,1222.47 562.788,1167.8 568.919,1115.31 575.049,1060.11 581.18,996.244 587.31,935.177 593.441,870.465 599.572,806.375 605.702,737.841 611.833,670.639 617.963,604.505 624.094,538.415 630.225,475.392 636.355,420.458 642.486,374.235 648.616,327.434 654.747,291.345 660.878,268.056 667.008,252.944 673.139,243.833 679.269,245.433 685.4,263.344 691.531,296.412 697.661,339.39 703.792,377.879 709.922,420.369 716.053,473.392 722.184,531.704 728.314,596.594 734.445,660.506 740.575,730.418 746.706,795.664 752.837,854.465 758.967,912.065 765.098,966.244 771.228,1015.44 777.359,1067.27 783.49,1112.25 789.62,1164.11 795.751,1204.2 801.881,1240.6 808.012,1274.52 814.143,1304.96 820.273,1333.41 826.404,1358.38 832.534,1384.16 838.665,1407.72 844.796,1425.36 850.926,1440.65 857.057,1456.7 863.187,1474.7 869.318,1488.3 875.449,1499.9 881.579,1510.39 887.71,1519.5 893.841,1528.83 899.971,1536.83 906.102,1542.07 912.232,1550.43 918.363,1554.56 924.494,1558.39 930.624,1563.76 936.755,1568.96 942.885,1574.34 949.016,1576.74 955.147,1581.59 961.277,1582.3 967.408,1586.56 973.538,1589.63 979.669,1592.92 985.8,1594.92 991.93,1595.85 998.061,1600.88 1004.19,1602.96 1010.32,1606.48 1016.45,1609.63 1022.58,1610.34 1028.71,1610.52 1034.84,1611.99 1040.97,1614.3 1047.11,1617.63 1053.24,1617.81 1059.37,1620.21 1065.5,1620.3 1071.63,1622.03 1077.76,1622.83 1083.89,1624.7 1090.02,1627.41 1096.15,1628.48 1102.28,1627.68 1108.41,1630.57 1114.54,1630.17 1120.67,1630.65 1126.8,1631.32 1132.93,1633.1 1139.06,1631.99 1145.2,1633.32 1151.33,1632.43 1157.46,1632.92 1163.59,1634.08 1169.72,1634.39 1175.85,1634.34 1181.98,1633.37 1188.11,1633.23 1194.24,1633.45 1200.37,1634.88 1206.5,1635.32 1212.63,1635.5 1218.76,1634.7 1224.89,1634.57 1231.02,1634.52 1237.15,1634.61 1243.28,1633.23 1249.42,1633.63 1255.55,1634.21 1261.68,1633.81 1267.81,1634.92 1273.94,1636.97 1280.07,1635.32 1286.2,1635.54 1292.33,1634.17 1298.46,1634.03 1304.59,1633.19 1310.72,1634.17 1316.85,1635.77 1322.98,1634.48 1329.11,1635.5 1335.24,1634.17 1341.37,1634.3 1347.51,1634.57 1353.64,1633.85 1359.77,1632.25 1365.9,1632.7 1372.03,1632.57 1378.16,1632.57 1384.29,1632.88 1390.42,1631.45 1396.55,1631.59 1402.68,1628.88 1408.81,1628.12 1414.94,1627.01 1421.07,1626.79 1427.2,1624.97 1433.33,1623.77 1439.46,1622.97 1445.59,1624.65 1451.73,1621.45 1457.86,1621.32 1463.99,1618.34 1470.12,1616.92 1476.25,1615.28 1482.38,1616.08 1488.51,1615.05 1494.64,1615.05 1500.77,1612.21 1506.9,1611.85 1513.03,1611.32 1519.16,1612.79 1525.29,1609.19 1531.42,1607.81 1537.55,1604.74 1543.68,1604.83 1549.82,1603.36 1555.95,1599.81 1562.08,1595.45 1568.21,1594.7 1574.34,1593.36 1580.47,1593.99 1586.6,1590.43 1592.73,1588.83 1598.86,1587.19 1604.99,1585.94 1611.12,1586.03 1617.25,1583.81 1623.38,1582.92 1629.51,1580.92 1635.64,1576.79 1641.77,1574.43 1647.9,1572.88 1654.04,1569.81 1660.17,1565.85 1666.3,1565.36 1672.43,1564.3 1678.56,1563.45 1684.69,1561.63 1690.82,1558.88 1696.95,1556.34 1703.08,1550.25 1709.21,1549.99 1715.34,1546.25 1721.47,1542.47 1727.6,1541.5 1733.73,1539.94 1739.86,1536.16 1745.99,1533.41 1752.12,1530.07 1758.26,1529.36 1764.39,1527.9 1770.52,1526.52 1776.65,1521.01 1782.78,1516.43 1788.91,1514.7 1795.04,1509.41 1801.17,1509.27 1807.3,1507.41 1813.43,1501.5 1819.56,1501.63 1825.69,1500.96 1831.82,1499.72 1837.95,1496.65 1844.08,1492.7 1850.21,1489.36 1856.35,1490.7 1862.48,1488.25 1868.61,1483.94 1874.74,1484.03 1880.87,1481.59 1887,1477.67 1893.13,1479.01 1899.26,1474.21 1905.39,1472.7 1911.52,1472.34 1917.65,1471.27 1923.78,1469.85 1929.91,1468.78 1936.04,1468.56 1942.17,1470.16 1948.3,1470.87 1954.43,1468.12 1960.57,1469.45 1966.7,1467.76 1972.83,1468.43 1978.96,1466.92 1985.09,1467.41 1991.22,1468.65 1997.35,1466.65 2003.48,1468.07 2009.61,1466.38 2015.74,1468.16 2021.87,1466.83 2028,1465.9 2034.13,1465.58 2040.26,1463.81 2046.39,1463.14 2052.52,1463.72 2058.66,1465.14 2064.79,1467.9 2070.92,1468.03 2077.05,1467.98 2083.18,1472.74 2089.31,1472.65 2095.44,1474.83 2101.57,1474.74 2107.7,1474.47 2113.83,1475.14 2119.96,1473.81 2126.09,1475.05 2132.22,1476.92 2138.35,1479.85 2144.48,1482.87 2150.61,1483.23 2156.74,1483.76 2162.88,1483.45 2169.01,1483.1 2175.14,1483.5 2181.27,1486.43 2187.4,1490.21 2193.53,1492.61 2199.66,1494.3 2205.79,1496.07 2211.92,1497.59 2218.05,1498.96 2224.18,1502.56 2230.31,1502.16 2236.44,1506.3 2242.57,1506.83 2248.7,1509.72 2254.83,1509.94 2260.97,1508.03 2267.1,1510.03 2273.23,1513.81 2279.36,1516.83 2285.49,1518.12 2291.62,1518.12 2297.75,1516.92 2303.88,1518.92 2310.01,1519.99 2316.14,1520.87 2322.27,1523.99 2328.4,1524.25 2334.53,1526.25 2340.66,1528.56 2346.79,1529.36 2352.92,1529.32 2359.05,1530.65 2365.19,1529.99 2371.32,1531.63 2377.45,1532.92 2383.58,1535.81 2389.71,1536.87 2395.84,1537.32 2401.97,1537.54 2408.1,1537.14 2414.23,1539.59 2420.36,1541.41 2426.49,1541.9 2432.62,1546.21 2438.75,1548.16 2444.88,1550.3 2451.01,1551.1 2457.14,1550.79 2463.27,1550.43 2469.41,1549.72 2475.54,1550.03 2481.67,1549.9 2487.8,1548.61 2493.93,1547.81 2500.06,1551.14 2506.19,1552.21 2512.32,1553.59 2518.45,1551.05 2524.58,1551.76 2530.71,1552.92 2536.84,1551.68 2542.97,1552.83 2549.1,1553.1 2555.23,1555.72 2561.36,1554.08 2567.5,1555.9 2573.63,1556.61 "/>
<polyline clip-path="url(#clip611)" style="stroke:#3da44d; stroke-linecap:round; stroke-linejoin:round; stroke-width:8; stroke-opacity:1; fill:none" points="335.956,1688.65 342.086,1687.45 348.217,1686.48 354.347,1685.14 360.478,1684.08 366.609,1682.43 372.739,1680.3 378.87,1678.61 385,1676.97 391.131,1674.61 397.262,1671.59 403.392,1668.74 409.523,1665.59 415.653,1662.65 421.784,1658.79 427.915,1652.97 434.045,1647.41 440.176,1639.99 446.306,1634.03 452.437,1626.21 458.568,1619.5 464.698,1609.59 470.829,1600.39 476.959,1589.05 483.09,1575.32 489.221,1559.05 495.351,1545.19 501.482,1521.59 507.613,1502.34 513.743,1479.05 519.874,1451.5 526.004,1419.5 532.135,1385.89 538.266,1355.18 544.396,1314.34 550.527,1273.76 556.657,1231.76 562.788,1179.09 568.919,1127.05 575.049,1075.18 581.18,1014.96 587.31,953.266 593.441,902.554 599.572,827.931 605.702,776.774 611.833,716.996 617.963,654.15 624.094,596.905 630.225,542.06 636.355,489.615 642.486,455.57 648.616,418.725 654.747,385.702 660.878,367.346 667.008,358.813 673.139,357.835 679.269,371.924 685.4,388.813 691.531,413.747 697.661,450.369 703.792,483.881 709.922,532.371 716.053,577.527 722.184,626.728 728.314,678.151 734.445,733.663 740.575,787.797 746.706,845.753 752.837,901.043 758.967,955.577 765.098,1008.11 771.228,1053.71 777.359,1103.49 783.49,1146.69 789.62,1184.16 795.751,1222.78 801.881,1256.78 808.012,1286.38 814.143,1315.27 820.273,1341.98 826.404,1365.94 832.534,1387.76 838.665,1409.05 844.796,1427.41 850.926,1442.43 857.057,1458.56 863.187,1472.74 869.318,1486.12 875.449,1497.72 881.579,1507.99 887.71,1517.67 893.841,1525.45 899.971,1532.34 906.102,1539.81 912.232,1546.12 918.363,1552.56 924.494,1559.94 930.624,1565.54 936.755,1568.08 942.885,1571.59 949.016,1576.61 955.147,1580.21 961.277,1584.96 967.408,1588.65 973.538,1592.08 979.669,1596.92 985.8,1598.43 991.93,1601.41 998.061,1605.9 1004.19,1607.76 1010.32,1608.96 1016.45,1609.41 1022.58,1609.99 1028.71,1613.63 1034.84,1612.65 1040.97,1613.36 1047.11,1615.45 1053.24,1616.92 1059.37,1619.01 1065.5,1621.72 1071.63,1624.52 1077.76,1625.9 1083.89,1628.12 1090.02,1629.5 1096.15,1631.72 1102.28,1631.9 1108.41,1633.23 1114.54,1634.61 1120.67,1635.23 1126.8,1637.5 1132.93,1638.17 1139.06,1637.81 1145.2,1638.25 1151.33,1636.88 1157.46,1637.54 1163.59,1638.88 1169.72,1639.94 1175.85,1641.41 1181.98,1641.01 1188.11,1640.74 1194.24,1640.25 1200.37,1641.45 1206.5,1641.05 1212.63,1641.94 1218.76,1643.05 1224.89,1643.59 1231.02,1644.25 1237.15,1643.54 1243.28,1643.05 1249.42,1642.43 1255.55,1643.77 1261.68,1643.81 1267.81,1643.01 1273.94,1643.5 1280.07,1644.21 1286.2,1643.94 1292.33,1643.99 1298.46,1643.77 1304.59,1645.23 1310.72,1643.41 1316.85,1642.52 1322.98,1643.59 1329.11,1644.3 1335.24,1643.81 1341.37,1643.77 1347.51,1642.57 1353.64,1643.14 1359.77,1640.48 1365.9,1641.45 1372.03,1640.08 1378.16,1640.88 1384.29,1640.65 1390.42,1639.94 1396.55,1639.45 1402.68,1638.7 1408.81,1638.83 1414.94,1639.05 1421.07,1639.28 1427.2,1639.59 1433.33,1637.99 1439.46,1637.63 1445.59,1639.01 1451.73,1637.14 1457.86,1635.72 1463.99,1635.68 1470.12,1634.17 1476.25,1632.57 1482.38,1633.23 1488.51,1631.23 1494.64,1630.7 1500.77,1630.83 1506.9,1629.63 1513.03,1629.05 1519.16,1628.7 1525.29,1627.85 1531.42,1625.05 1537.55,1624.25 1543.68,1622.61 1549.82,1622.03 1555.95,1623.63 1562.08,1620.34 1568.21,1621.5 1574.34,1618.61 1580.47,1618.92 1586.6,1617.41 1592.73,1614.88 1598.86,1615.36 1604.99,1614.7 1611.12,1611.5 1617.25,1611.72 1623.38,1610.03 1629.51,1608.3 1635.64,1606.16 1641.77,1605.23 1647.9,1604.7 1654.04,1603.85 1660.17,1602.16 1666.3,1600.83 1672.43,1597.01 1678.56,1595.68 1684.69,1595.72 1690.82,1593.81 1696.95,1592.74 1703.08,1588.43 1709.21,1587.1 1715.34,1585.32 1721.47,1583.63 1727.6,1580.48 1733.73,1577.19 1739.86,1575.63 1745.99,1573.99 1752.12,1572.74 1758.26,1571.32 1764.39,1572.3 1770.52,1569.94 1776.65,1570.61 1782.78,1568.88 1788.91,1567.99 1795.04,1565.01 1801.17,1562.79 1807.3,1559.5 1813.43,1559.1 1819.56,1557.23 1825.69,1553.36 1831.82,1553.59 1837.95,1554.43 1844.08,1553.28 1850.21,1549.19 1856.35,1546.08 1862.48,1544.74 1868.61,1541.59 1874.74,1538.52 1880.87,1537.14 1887,1537.14 1893.13,1532.07 1899.26,1530.52 1905.39,1526.96 1911.52,1527.94 1917.65,1527.54 1923.78,1521.01 1929.91,1521.19 1936.04,1518.25 1942.17,1516.83 1948.3,1513.99 1954.43,1516.03 1960.57,1515.01 1966.7,1513.05 1972.83,1511.72 1978.96,1510.52 1985.09,1508.7 1991.22,1507.99 1997.35,1503.14 2003.48,1500.87 2009.61,1500.56 2015.74,1499.14 2021.87,1498.47 2028,1496.79 2034.13,1496.21 2040.26,1497.32 2046.39,1499.85 2052.52,1497.1 2058.66,1494.3 2064.79,1496.07 2070.92,1496.96 2077.05,1494.12 2083.18,1492.03 2089.31,1492.87 2095.44,1493.32 2101.57,1491.76 2107.7,1489.32 2113.83,1489.94 2119.96,1492.61 2126.09,1494.56 2132.22,1491.01 2138.35,1490.25 2144.48,1490.83 2150.61,1490.3 2156.74,1492.21 2162.88,1491.67 2169.01,1493.94 2175.14,1495.32 2181.27,1498.12 2187.4,1499.63 2193.53,1498.12 2199.66,1499.45 2205.79,1499.05 2211.92,1494.74 2218.05,1496.43 2224.18,1498.3 2230.31,1501.19 2236.44,1504.74 2242.57,1503.54 2248.7,1504.65 2254.83,1504.56 2260.97,1505.45 2267.1,1505.27 2273.23,1506.61 2279.36,1509.54 2285.49,1508.74 2291.62,1510.47 2297.75,1512.07 2303.88,1510.96 2310.01,1512.92 2316.14,1515.27 2322.27,1517.85 2328.4,1517.41 2334.53,1518.12 2340.66,1522.92 2346.79,1524.03 2352.92,1525.05 2359.05,1525.76 2365.19,1523.85 2371.32,1526.92 2377.45,1524.79 2383.58,1524.56 2389.71,1526.52 2395.84,1527.67 2401.97,1530.96 2408.1,1528.96 2414.23,1530.3 2420.36,1534.61 2426.49,1533.32 2432.62,1535.99 2438.75,1539.1 2444.88,1538.47 2451.01,1539.19 2457.14,1540.92 2463.27,1542.74 2469.41,1544.7 2475.54,1546.43 2481.67,1548.52 2487.8,1550.61 2493.93,1550.16 2500.06,1552.3 2506.19,1553.1 2512.32,1556.16 2518.45,1558.43 2524.58,1552.79 2530.71,1552.83 2536.84,1554.39 2542.97,1554.08 2549.1,1553.28 2555.23,1550.56 2561.36,1552.3 2567.5,1554.88 2573.63,1554.12 "/>
<polyline clip-path="url(#clip611)" style="stroke:#c271d2; stroke-linecap:round; stroke-linejoin:round; stroke-width:8; stroke-opacity:1; fill:none" points="335.956,1688.65 342.086,1687.45 348.217,1686.48 354.347,1685.14 360.478,1684.08 366.609,1682.43 372.739,1680.3 378.87,1678.61 385,1676.97 391.131,1674.61 397.262,1671.59 403.392,1668.74 409.523,1665.59 415.653,1662.65 421.784,1658.79 427.915,1652.97 434.045,1647.41 440.176,1639.99 446.306,1634.03 452.437,1626.21 458.568,1619.5 464.698,1609.59 470.829,1600.39 476.959,1589.05 483.09,1575.32 489.221,1559.05 495.351,1545.19 501.482,1521.59 507.613,1502.34 513.743,1479.05 519.874,1451.5 526.004,1419.67 532.135,1388.56 538.266,1355.94 544.396,1319.09 550.527,1279.27 556.657,1232.65 562.788,1183.8 568.919,1135.36 575.049,1082.73 581.18,1032.07 587.31,983.489 593.441,932.643 599.572,884.198 605.702,832.953 611.833,779.041 617.963,726.196 624.094,680.506 630.225,636.639 636.355,600.816 642.486,562.86 648.616,542.638 654.747,531.126 660.878,522.904 667.008,518.059 673.139,519.837 679.269,533.26 685.4,553.482 691.531,586.149 697.661,617.705 703.792,652.906 709.922,694.507 716.053,737.218 722.184,782.152 728.314,820.064 734.445,864.731 740.575,910.821 746.706,954.644 752.837,999.844 758.967,1043.22 765.098,1083.31 771.228,1124.91 777.359,1164.82 783.49,1201.71 789.62,1234.78 795.751,1266.12 801.881,1297.09 808.012,1321.76 814.143,1347.09 820.273,1368.47 826.404,1389.32 832.534,1408.65 838.665,1425.54 844.796,1442.52 850.926,1459.81 857.057,1471.58 863.187,1482.96 869.318,1493.94 875.449,1505.32 881.579,1512.83 887.71,1522.03 893.841,1530.34 899.971,1536.39 906.102,1542.79 912.232,1546.61 918.363,1551.94 924.494,1557.72 930.624,1562.61 936.755,1567.45 942.885,1571.05 949.016,1576.92 955.147,1579.99 961.277,1583.85 967.408,1586.65 973.538,1590.88 979.669,1593.81 985.8,1597.01 991.93,1598.83 998.061,1602.3 1004.19,1604.52 1010.32,1605.63 1016.45,1608.52 1022.58,1612.03 1028.71,1611.45 1034.84,1613.32 1040.97,1616.52 1047.11,1616.34 1053.24,1619.14 1059.37,1618.48 1065.5,1620.97 1071.63,1624.79 1077.76,1625.37 1083.89,1628.3 1090.02,1629.72 1096.15,1631.94 1102.28,1632.52 1108.41,1633.54 1114.54,1633.63 1120.67,1632.34 1126.8,1632.92 1132.93,1633.81 1139.06,1635.32 1145.2,1637.1 1151.33,1638.39 1157.46,1639.1 1163.59,1639.14 1169.72,1640.61 1175.85,1641.77 1181.98,1642.61 1188.11,1642.97 1194.24,1644.25 1200.37,1644.7 1206.5,1644.74 1212.63,1645.23 1218.76,1645.37 1224.89,1644.88 1231.02,1646.17 1237.15,1645.9 1243.28,1647.37 1249.42,1647.81 1255.55,1647.19 1261.68,1646.97 1267.81,1646.74 1273.94,1646.92 1280.07,1647.59 1286.2,1647.1 1292.33,1647.9 1298.46,1647.94 1304.59,1647.85 1310.72,1647.41 1316.85,1648.3 1322.98,1648.61 1329.11,1647.94 1335.24,1647.63 1341.37,1648.03 1347.51,1647.9 1353.64,1648.83 1359.77,1649.99 1365.9,1649.54 1372.03,1649.23 1378.16,1648.92 1384.29,1649.05 1390.42,1649.1 1396.55,1649.23 1402.68,1649.32 1408.81,1648.25 1414.94,1647.5 1421.07,1649.77 1427.2,1649.28 1433.33,1650.21 1439.46,1649.81 1445.59,1650.21 1451.73,1650.25 1457.86,1649.63 1463.99,1648.74 1470.12,1648.12 1476.25,1649.19 1482.38,1649.5 1488.51,1649.85 1494.64,1650.7 1500.77,1649.77 1506.9,1649.77 1513.03,1648.34 1519.16,1647.99 1525.29,1647.85 1531.42,1646.88 1537.55,1647.63 1543.68,1645.41 1549.82,1644.57 1555.95,1643.99 1562.08,1643.9 1568.21,1643.32 1574.34,1642.34 1580.47,1642.17 1586.6,1641.05 1592.73,1641.28 1598.86,1640.61 1604.99,1639.32 1611.12,1639.28 1617.25,1638.74 1623.38,1638.12 1629.51,1640.08 1635.64,1639.28 1641.77,1639.99 1647.9,1639.19 1654.04,1637.19 1660.17,1635.54 1666.3,1636.08 1672.43,1637.23 1678.56,1637.59 1684.69,1636.43 1690.82,1634.3 1696.95,1634.08 1703.08,1632.61 1709.21,1631.54 1715.34,1632.43 1721.47,1630.48 1727.6,1629.14 1733.73,1629.05 1739.86,1629.45 1745.99,1629.63 1752.12,1628.21 1758.26,1625.72 1764.39,1625.28 1770.52,1623.68 1776.65,1624.74 1782.78,1623.99 1788.91,1625.14 1795.04,1622.48 1801.17,1622.43 1807.3,1622.52 1813.43,1621.19 1819.56,1620.83 1825.69,1620.21 1831.82,1618.25 1837.95,1615.76 1844.08,1616.21 1850.21,1614.43 1856.35,1611.81 1862.48,1611.9 1868.61,1609.23 1874.74,1607.54 1880.87,1608.56 1887,1607.76 1893.13,1604.39 1899.26,1604.92 1905.39,1605.23 1911.52,1605.23 1917.65,1601.54 1923.78,1600.43 1929.91,1597.76 1936.04,1595.94 1942.17,1593.05 1948.3,1592.56 1954.43,1593.28 1960.57,1592.43 1966.7,1592.25 1972.83,1590.34 1978.96,1590.61 1985.09,1590.92 1991.22,1588.65 1997.35,1588.52 2003.48,1587.54 2009.61,1586.16 2015.74,1584.83 2021.87,1584.39 2028,1583.19 2034.13,1582.12 2040.26,1581.9 2046.39,1582.12 2052.52,1579.94 2058.66,1579.1 2064.79,1579.19 2070.92,1576.52 2077.05,1576.56 2083.18,1573.23 2089.31,1573.85 2095.44,1572.48 2101.57,1574.48 2107.7,1572.83 2113.83,1571.23 2119.96,1569.59 2126.09,1571.81 2132.22,1571.01 2138.35,1571.19 2144.48,1569.59 2150.61,1572.12 2156.74,1570.43 2162.88,1567.99 2169.01,1571.32 2175.14,1567.19 2181.27,1567.76 2187.4,1568.52 2193.53,1569.45 2199.66,1569.36 2205.79,1568.65 2211.92,1566.79 2218.05,1564.79 2224.18,1564.25 2230.31,1566.21 2236.44,1565.72 2242.57,1564.56 2248.7,1564.74 2254.83,1564.7 2260.97,1565.45 2267.1,1566.39 2273.23,1565.54 2279.36,1564.25 2285.49,1563.76 2291.62,1564.48 2297.75,1562.79 2303.88,1562.56 2310.01,1563.41 2316.14,1562.52 2322.27,1561.94 2328.4,1560.88 2334.53,1563.41 2340.66,1564.7 2346.79,1563.9 2352.92,1563.94 2359.05,1562.7 2365.19,1559.45 2371.32,1561.5 2377.45,1559.36 2383.58,1560.21 2389.71,1561.32 2395.84,1562.16 2401.97,1560.08 2408.1,1558.21 2414.23,1561.63 2420.36,1561.94 2426.49,1561.72 2432.62,1564.12 2438.75,1563.5 2444.88,1564.48 2451.01,1564.34 2457.14,1563.72 2463.27,1563.36 2469.41,1564.08 2475.54,1563.05 2481.67,1562.65 2487.8,1565.1 2493.93,1564.3 2500.06,1564.74 2506.19,1564.12 2512.32,1563.05 2518.45,1562.52 2524.58,1561.9 2530.71,1563.94 2536.84,1563.14 2542.97,1563.68 2549.1,1564.56 2555.23,1565.72 2561.36,1567.72 2567.5,1564.74 2573.63,1562.92 "/>
<path clip-path="url(#clip610)" d="M1981.33 440.536 L2561.69 440.536 L2561.69 181.336 L1981.33 181.336  Z" fill="#ffffff" fill-rule="evenodd" fill-opacity="1"/>
<polyline clip-path="url(#clip610)" style="stroke:#000000; stroke-linecap:round; stroke-linejoin:round; stroke-width:4; stroke-opacity:1; fill:none" points="1981.33,440.536 2561.69,440.536 2561.69,181.336 1981.33,181.336 1981.33,440.536 "/>
<polyline clip-path="url(#clip610)" style="stroke:#009af9; stroke-linecap:round; stroke-linejoin:round; stroke-width:8; stroke-opacity:1; fill:none" points="2007.68,233.176 2165.81,233.176 "/>
<path clip-path="url(#clip610)" d="M2192.17 215.896 L2198.46 215.896 L2213.79 244.808 L2213.79 215.896 L2218.32 215.896 L2218.32 250.456 L2212.03 250.456 L2196.7 221.544 L2196.7 250.456 L2192.17 250.456 L2192.17 215.896 Z" fill="#000000" fill-rule="nonzero" fill-opacity="1" /><path clip-path="url(#clip610)" d="M2237.49 227.517 Q2234.07 227.517 2232.07 230.202 Q2230.08 232.864 2230.08 237.517 Q2230.08 242.169 2232.05 244.854 Q2234.04 247.516 2237.49 247.516 Q2240.89 247.516 2242.88 244.831 Q2244.88 242.146 2244.88 237.517 Q2244.88 232.91 2242.88 230.225 Q2240.89 227.517 2237.49 227.517 M2237.49 223.906 Q2243.05 223.906 2246.22 227.517 Q2249.39 231.128 2249.39 237.517 Q2249.39 243.882 2246.22 247.516 Q2243.05 251.128 2237.49 251.128 Q2231.91 251.128 2228.74 247.516 Q2225.59 243.882 2225.59 237.517 Q2225.59 231.128 2228.74 227.517 Q2231.91 223.906 2237.49 223.906 Z" fill="#000000" fill-rule="nonzero" fill-opacity="1" /><path clip-path="url(#clip610)" d="M2268.46 224.531 L2272.98 224.531 L2281.08 246.29 L2289.18 224.531 L2293.69 224.531 L2283.97 250.456 L2278.19 250.456 L2268.46 224.531 Z" fill="#000000" fill-rule="nonzero" fill-opacity="1" /><path clip-path="url(#clip610)" d="M2311.36 237.424 Q2306.19 237.424 2304.2 238.604 Q2302.21 239.785 2302.21 242.632 Q2302.21 244.901 2303.69 246.243 Q2305.2 247.563 2307.77 247.563 Q2311.31 247.563 2313.44 245.063 Q2315.59 242.54 2315.59 238.373 L2315.59 237.424 L2311.36 237.424 M2319.85 235.665 L2319.85 250.456 L2315.59 250.456 L2315.59 246.521 Q2314.13 248.882 2311.96 250.016 Q2309.78 251.128 2306.63 251.128 Q2302.65 251.128 2300.29 248.905 Q2297.95 246.66 2297.95 242.91 Q2297.95 238.535 2300.87 236.313 Q2303.81 234.091 2309.62 234.091 L2315.59 234.091 L2315.59 233.674 Q2315.59 230.734 2313.65 229.137 Q2311.73 227.517 2308.23 227.517 Q2306.01 227.517 2303.9 228.049 Q2301.8 228.581 2299.85 229.646 L2299.85 225.711 Q2302.19 224.808 2304.39 224.368 Q2306.59 223.906 2308.67 223.906 Q2314.3 223.906 2317.07 226.822 Q2319.85 229.739 2319.85 235.665 Z" fill="#000000" fill-rule="nonzero" fill-opacity="1" /><path clip-path="url(#clip610)" d="M2347.28 225.526 L2347.28 229.507 Q2345.48 228.512 2343.65 228.026 Q2341.84 227.517 2339.99 227.517 Q2335.85 227.517 2333.56 230.155 Q2331.26 232.771 2331.26 237.517 Q2331.26 242.262 2333.56 244.901 Q2335.85 247.516 2339.99 247.516 Q2341.84 247.516 2343.65 247.03 Q2345.48 246.521 2347.28 245.526 L2347.28 249.461 Q2345.5 250.294 2343.58 250.711 Q2341.68 251.128 2339.53 251.128 Q2333.67 251.128 2330.22 247.447 Q2326.77 243.767 2326.77 237.517 Q2326.77 231.174 2330.25 227.54 Q2333.74 223.906 2339.81 223.906 Q2341.77 223.906 2343.65 224.322 Q2345.52 224.716 2347.28 225.526 Z" fill="#000000" fill-rule="nonzero" fill-opacity="1" /><path clip-path="url(#clip610)" d="M2373.35 225.526 L2373.35 229.507 Q2371.54 228.512 2369.71 228.026 Q2367.91 227.517 2366.06 227.517 Q2361.91 227.517 2359.62 230.155 Q2357.33 232.771 2357.33 237.517 Q2357.33 242.262 2359.62 244.901 Q2361.91 247.516 2366.06 247.516 Q2367.91 247.516 2369.71 247.03 Q2371.54 246.521 2373.35 245.526 L2373.35 249.461 Q2371.56 250.294 2369.64 250.711 Q2367.75 251.128 2365.59 251.128 Q2359.74 251.128 2356.29 247.447 Q2352.84 243.767 2352.84 237.517 Q2352.84 231.174 2356.31 227.54 Q2359.81 223.906 2365.87 223.906 Q2367.84 223.906 2369.71 224.322 Q2371.59 224.716 2373.35 225.526 Z" fill="#000000" fill-rule="nonzero" fill-opacity="1" /><path clip-path="url(#clip610)" d="M2380.75 224.531 L2385.01 224.531 L2385.01 250.456 L2380.75 250.456 L2380.75 224.531 M2380.75 214.438 L2385.01 214.438 L2385.01 219.831 L2380.75 219.831 L2380.75 214.438 Z" fill="#000000" fill-rule="nonzero" fill-opacity="1" /><path clip-path="url(#clip610)" d="M2415.48 234.808 L2415.48 250.456 L2411.22 250.456 L2411.22 234.947 Q2411.22 231.267 2409.78 229.438 Q2408.35 227.609 2405.48 227.609 Q2402.03 227.609 2400.04 229.808 Q2398.05 232.007 2398.05 235.804 L2398.05 250.456 L2393.76 250.456 L2393.76 224.531 L2398.05 224.531 L2398.05 228.558 Q2399.57 226.22 2401.63 225.063 Q2403.72 223.906 2406.43 223.906 Q2410.89 223.906 2413.18 226.683 Q2415.48 229.438 2415.48 234.808 Z" fill="#000000" fill-rule="nonzero" fill-opacity="1" /><path clip-path="url(#clip610)" d="M2435.75 237.424 Q2430.59 237.424 2428.6 238.604 Q2426.61 239.785 2426.61 242.632 Q2426.61 244.901 2428.09 246.243 Q2429.6 247.563 2432.17 247.563 Q2435.71 247.563 2437.84 245.063 Q2439.99 242.54 2439.99 238.373 L2439.99 237.424 L2435.75 237.424 M2444.25 235.665 L2444.25 250.456 L2439.99 250.456 L2439.99 246.521 Q2438.53 248.882 2436.36 250.016 Q2434.18 251.128 2431.03 251.128 Q2427.05 251.128 2424.69 248.905 Q2422.35 246.66 2422.35 242.91 Q2422.35 238.535 2425.27 236.313 Q2428.21 234.091 2434.02 234.091 L2439.99 234.091 L2439.99 233.674 Q2439.99 230.734 2438.05 229.137 Q2436.12 227.517 2432.63 227.517 Q2430.41 227.517 2428.3 228.049 Q2426.19 228.581 2424.25 229.646 L2424.25 225.711 Q2426.59 224.808 2428.79 224.368 Q2430.99 223.906 2433.07 223.906 Q2438.69 223.906 2441.47 226.822 Q2444.25 229.739 2444.25 235.665 Z" fill="#000000" fill-rule="nonzero" fill-opacity="1" /><path clip-path="url(#clip610)" d="M2457.24 217.169 L2457.24 224.531 L2466.01 224.531 L2466.01 227.841 L2457.24 227.841 L2457.24 241.915 Q2457.24 245.086 2458.09 245.989 Q2458.97 246.891 2461.63 246.891 L2466.01 246.891 L2466.01 250.456 L2461.63 250.456 Q2456.7 250.456 2454.83 248.628 Q2452.95 246.776 2452.95 241.915 L2452.95 227.841 L2449.83 227.841 L2449.83 224.531 L2452.95 224.531 L2452.95 217.169 L2457.24 217.169 Z" fill="#000000" fill-rule="nonzero" fill-opacity="1" /><path clip-path="url(#clip610)" d="M2471.61 224.531 L2475.87 224.531 L2475.87 250.456 L2471.61 250.456 L2471.61 224.531 M2471.61 214.438 L2475.87 214.438 L2475.87 219.831 L2471.61 219.831 L2471.61 214.438 Z" fill="#000000" fill-rule="nonzero" fill-opacity="1" /><path clip-path="url(#clip610)" d="M2494.83 227.517 Q2491.4 227.517 2489.41 230.202 Q2487.42 232.864 2487.42 237.517 Q2487.42 242.169 2489.39 244.854 Q2491.38 247.516 2494.83 247.516 Q2498.23 247.516 2500.22 244.831 Q2502.21 242.146 2502.21 237.517 Q2502.21 232.91 2500.22 230.225 Q2498.23 227.517 2494.83 227.517 M2494.83 223.906 Q2500.38 223.906 2503.55 227.517 Q2506.73 231.128 2506.73 237.517 Q2506.73 243.882 2503.55 247.516 Q2500.38 251.128 2494.83 251.128 Q2489.25 251.128 2486.08 247.516 Q2482.93 243.882 2482.93 237.517 Q2482.93 231.128 2486.08 227.517 Q2489.25 223.906 2494.83 223.906 Z" fill="#000000" fill-rule="nonzero" fill-opacity="1" /><path clip-path="url(#clip610)" d="M2535.34 234.808 L2535.34 250.456 L2531.08 250.456 L2531.08 234.947 Q2531.08 231.267 2529.64 229.438 Q2528.21 227.609 2525.34 227.609 Q2521.89 227.609 2519.9 229.808 Q2517.91 232.007 2517.91 235.804 L2517.91 250.456 L2513.62 250.456 L2513.62 224.531 L2517.91 224.531 L2517.91 228.558 Q2519.43 226.22 2521.49 225.063 Q2523.58 223.906 2526.29 223.906 Q2530.75 223.906 2533.05 226.683 Q2535.34 229.438 2535.34 234.808 Z" fill="#000000" fill-rule="nonzero" fill-opacity="1" /><polyline clip-path="url(#clip610)" style="stroke:#e26f46; stroke-linecap:round; stroke-linejoin:round; stroke-width:8; stroke-opacity:1; fill:none" points="2007.68,285.016 2165.81,285.016 "/>
<path clip-path="url(#clip610)" d="M2200.08 302.296 L2192.17 276.371 L2196.75 276.371 L2203.44 298.13 Q2206.22 295.259 2208.53 291.278 Q2210.29 288.292 2210.38 285.699 Q2210.43 284.472 2209.88 282.158 Q2209.23 279.403 2206.77 276.371 L2211.08 276.371 L2211.08 276.371 Q2212.68 278.431 2213.74 281.301 Q2214.71 283.94 2214.71 285.745 Q2214.71 290.282 2211.57 294.333 Q2207.47 299.611 2204.62 302.296 L2200.08 302.296 Z" fill="#000000" fill-rule="nonzero" fill-opacity="1" /><path clip-path="url(#clip610)" d="M2237.03 280.769 L2266.7 280.769 L2266.7 284.657 L2237.03 284.657 L2237.03 280.769 M2237.03 290.213 L2266.7 290.213 L2266.7 294.148 L2237.03 294.148 L2237.03 290.213 Z" fill="#000000" fill-rule="nonzero" fill-opacity="1" /><path clip-path="url(#clip610)" d="M2301.87 270.815 Q2298.25 270.815 2296.43 274.38 Q2294.62 277.921 2294.62 285.051 Q2294.62 292.157 2296.43 295.722 Q2298.25 299.264 2301.87 299.264 Q2305.5 299.264 2307.31 295.722 Q2309.13 292.157 2309.13 285.051 Q2309.13 277.921 2307.31 274.38 Q2305.5 270.815 2301.87 270.815 M2301.87 267.111 Q2307.68 267.111 2310.73 271.718 Q2313.81 276.301 2313.81 285.051 Q2313.81 293.778 2310.73 298.384 Q2307.68 302.968 2301.87 302.968 Q2296.06 302.968 2292.98 298.384 Q2289.92 293.778 2289.92 285.051 Q2289.92 276.301 2292.98 271.718 Q2296.06 267.111 2301.87 267.111 Z" fill="#000000" fill-rule="nonzero" fill-opacity="1" /><path clip-path="url(#clip610)" d="M2322.03 296.417 L2326.91 296.417 L2326.91 302.296 L2322.03 302.296 L2322.03 296.417 Z" fill="#000000" fill-rule="nonzero" fill-opacity="1" /><path clip-path="url(#clip610)" d="M2347.1 270.815 Q2343.49 270.815 2341.66 274.38 Q2339.85 277.921 2339.85 285.051 Q2339.85 292.157 2341.66 295.722 Q2343.49 299.264 2347.1 299.264 Q2350.73 299.264 2352.54 295.722 Q2354.37 292.157 2354.37 285.051 Q2354.37 277.921 2352.54 274.38 Q2350.73 270.815 2347.1 270.815 M2347.1 267.111 Q2352.91 267.111 2355.96 271.718 Q2359.04 276.301 2359.04 285.051 Q2359.04 293.778 2355.96 298.384 Q2352.91 302.968 2347.1 302.968 Q2341.29 302.968 2338.21 298.384 Q2335.15 293.778 2335.15 285.051 Q2335.15 276.301 2338.21 271.718 Q2341.29 267.111 2347.1 267.111 Z" fill="#000000" fill-rule="nonzero" fill-opacity="1" /><path clip-path="url(#clip610)" d="M2377.26 270.815 Q2373.65 270.815 2371.82 274.38 Q2370.01 277.921 2370.01 285.051 Q2370.01 292.157 2371.82 295.722 Q2373.65 299.264 2377.26 299.264 Q2380.89 299.264 2382.7 295.722 Q2384.53 292.157 2384.53 285.051 Q2384.53 277.921 2382.7 274.38 Q2380.89 270.815 2377.26 270.815 M2377.26 267.111 Q2383.07 267.111 2386.12 271.718 Q2389.2 276.301 2389.2 285.051 Q2389.2 293.778 2386.12 298.384 Q2383.07 302.968 2377.26 302.968 Q2371.45 302.968 2368.37 298.384 Q2365.31 293.778 2365.31 285.051 Q2365.31 276.301 2368.37 271.718 Q2371.45 267.111 2377.26 267.111 Z" fill="#000000" fill-rule="nonzero" fill-opacity="1" /><path clip-path="url(#clip610)" d="M2401.45 298.361 L2417.77 298.361 L2417.77 302.296 L2395.82 302.296 L2395.82 298.361 Q2398.49 295.607 2403.07 290.977 Q2407.68 286.324 2408.86 284.982 Q2411.1 282.458 2411.98 280.722 Q2412.88 278.963 2412.88 277.273 Q2412.88 274.519 2410.94 272.783 Q2409.02 271.046 2405.92 271.046 Q2403.72 271.046 2401.26 271.81 Q2398.83 272.574 2396.06 274.125 L2396.06 269.403 Q2398.88 268.269 2401.33 267.69 Q2403.79 267.111 2405.82 267.111 Q2411.19 267.111 2414.39 269.796 Q2417.58 272.482 2417.58 276.972 Q2417.58 279.102 2416.77 281.023 Q2415.99 282.921 2413.88 285.514 Q2413.3 286.185 2410.2 289.403 Q2407.1 292.597 2401.45 298.361 Z" fill="#000000" fill-rule="nonzero" fill-opacity="1" /><path clip-path="url(#clip610)" d="M2434.55 267.736 L2438.49 267.736 L2426.45 306.694 L2422.51 306.694 L2434.55 267.736 Z" fill="#000000" fill-rule="nonzero" fill-opacity="1" /><path clip-path="url(#clip610)" d="M2460.01 280.306 L2460.01 266.278 L2464.27 266.278 L2464.27 302.296 L2460.01 302.296 L2460.01 298.407 Q2458.67 300.722 2456.61 301.856 Q2454.57 302.968 2451.7 302.968 Q2447 302.968 2444.04 299.218 Q2441.1 295.468 2441.1 289.357 Q2441.1 283.245 2444.04 279.495 Q2447 275.746 2451.7 275.746 Q2454.57 275.746 2456.61 276.88 Q2458.67 277.991 2460.01 280.306 M2445.5 289.357 Q2445.5 294.056 2447.42 296.741 Q2449.37 299.403 2452.74 299.403 Q2456.12 299.403 2458.07 296.741 Q2460.01 294.056 2460.01 289.357 Q2460.01 284.657 2458.07 281.995 Q2456.12 279.31 2452.74 279.31 Q2449.37 279.31 2447.42 281.995 Q2445.5 284.657 2445.5 289.357 Z" fill="#000000" fill-rule="nonzero" fill-opacity="1" /><path clip-path="url(#clip610)" d="M2484.83 289.264 Q2479.67 289.264 2477.68 290.444 Q2475.68 291.625 2475.68 294.472 Q2475.68 296.741 2477.17 298.083 Q2478.67 299.403 2481.24 299.403 Q2484.78 299.403 2486.91 296.903 Q2489.06 294.38 2489.06 290.213 L2489.06 289.264 L2484.83 289.264 M2493.32 287.505 L2493.32 302.296 L2489.06 302.296 L2489.06 298.361 Q2487.61 300.722 2485.43 301.856 Q2483.25 302.968 2480.11 302.968 Q2476.12 302.968 2473.76 300.745 Q2471.43 298.5 2471.43 294.75 Q2471.43 290.375 2474.34 288.153 Q2477.28 285.931 2483.09 285.931 L2489.06 285.931 L2489.06 285.514 Q2489.06 282.574 2487.12 280.977 Q2485.2 279.357 2481.7 279.357 Q2479.48 279.357 2477.37 279.889 Q2475.27 280.421 2473.32 281.486 L2473.32 277.551 Q2475.66 276.648 2477.86 276.208 Q2480.06 275.746 2482.14 275.746 Q2487.77 275.746 2490.55 278.662 Q2493.32 281.579 2493.32 287.505 Z" fill="#000000" fill-rule="nonzero" fill-opacity="1" /><path clip-path="url(#clip610)" d="M2512.88 304.704 Q2511.08 309.333 2509.36 310.745 Q2507.65 312.157 2504.78 312.157 L2501.38 312.157 L2501.38 308.593 L2503.88 308.593 Q2505.64 308.593 2506.61 307.759 Q2507.58 306.926 2508.76 303.824 L2509.53 301.88 L2499.04 276.371 L2503.55 276.371 L2511.66 296.648 L2519.76 276.371 L2524.27 276.371 L2512.88 304.704 Z" fill="#000000" fill-rule="nonzero" fill-opacity="1" /><polyline clip-path="url(#clip610)" style="stroke:#3da44d; stroke-linecap:round; stroke-linejoin:round; stroke-width:8; stroke-opacity:1; fill:none" points="2007.68,336.856 2165.81,336.856 "/>
<path clip-path="url(#clip610)" d="M2200.08 354.136 L2192.17 328.211 L2196.75 328.211 L2203.44 349.97 Q2206.22 347.099 2208.53 343.118 Q2210.29 340.132 2210.38 337.539 Q2210.43 336.312 2209.88 333.998 Q2209.23 331.243 2206.77 328.211 L2211.08 328.211 L2211.08 328.211 Q2212.68 330.271 2213.74 333.141 Q2214.71 335.78 2214.71 337.585 Q2214.71 342.122 2211.57 346.173 Q2207.47 351.451 2204.62 354.136 L2200.08 354.136 Z" fill="#000000" fill-rule="nonzero" fill-opacity="1" /><path clip-path="url(#clip610)" d="M2237.03 332.609 L2266.7 332.609 L2266.7 336.497 L2237.03 336.497 L2237.03 332.609 M2237.03 342.053 L2266.7 342.053 L2266.7 345.988 L2237.03 345.988 L2237.03 342.053 Z" fill="#000000" fill-rule="nonzero" fill-opacity="1" /><path clip-path="url(#clip610)" d="M2301.87 322.655 Q2298.25 322.655 2296.43 326.22 Q2294.62 329.761 2294.62 336.891 Q2294.62 343.997 2296.43 347.562 Q2298.25 351.104 2301.87 351.104 Q2305.5 351.104 2307.31 347.562 Q2309.13 343.997 2309.13 336.891 Q2309.13 329.761 2307.31 326.22 Q2305.5 322.655 2301.87 322.655 M2301.87 318.951 Q2307.68 318.951 2310.73 323.558 Q2313.81 328.141 2313.81 336.891 Q2313.81 345.618 2310.73 350.224 Q2307.68 354.808 2301.87 354.808 Q2296.06 354.808 2292.98 350.224 Q2289.92 345.618 2289.92 336.891 Q2289.92 328.141 2292.98 323.558 Q2296.06 318.951 2301.87 318.951 Z" fill="#000000" fill-rule="nonzero" fill-opacity="1" /><path clip-path="url(#clip610)" d="M2322.03 348.257 L2326.91 348.257 L2326.91 354.136 L2322.03 354.136 L2322.03 348.257 Z" fill="#000000" fill-rule="nonzero" fill-opacity="1" /><path clip-path="url(#clip610)" d="M2347.1 322.655 Q2343.49 322.655 2341.66 326.22 Q2339.85 329.761 2339.85 336.891 Q2339.85 343.997 2341.66 347.562 Q2343.49 351.104 2347.1 351.104 Q2350.73 351.104 2352.54 347.562 Q2354.37 343.997 2354.37 336.891 Q2354.37 329.761 2352.54 326.22 Q2350.73 322.655 2347.1 322.655 M2347.1 318.951 Q2352.91 318.951 2355.96 323.558 Q2359.04 328.141 2359.04 336.891 Q2359.04 345.618 2355.96 350.224 Q2352.91 354.808 2347.1 354.808 Q2341.29 354.808 2338.21 350.224 Q2335.15 345.618 2335.15 336.891 Q2335.15 328.141 2338.21 323.558 Q2341.29 318.951 2347.1 318.951 Z" fill="#000000" fill-rule="nonzero" fill-opacity="1" /><path clip-path="url(#clip610)" d="M2377.26 322.655 Q2373.65 322.655 2371.82 326.22 Q2370.01 329.761 2370.01 336.891 Q2370.01 343.997 2371.82 347.562 Q2373.65 351.104 2377.26 351.104 Q2380.89 351.104 2382.7 347.562 Q2384.53 343.997 2384.53 336.891 Q2384.53 329.761 2382.7 326.22 Q2380.89 322.655 2377.26 322.655 M2377.26 318.951 Q2383.07 318.951 2386.12 323.558 Q2389.2 328.141 2389.2 336.891 Q2389.2 345.618 2386.12 350.224 Q2383.07 354.808 2377.26 354.808 Q2371.45 354.808 2368.37 350.224 Q2365.31 345.618 2365.31 336.891 Q2365.31 328.141 2368.37 323.558 Q2371.45 318.951 2377.26 318.951 Z" fill="#000000" fill-rule="nonzero" fill-opacity="1" /><path clip-path="url(#clip610)" d="M2397.47 319.576 L2415.82 319.576 L2415.82 323.511 L2401.75 323.511 L2401.75 331.984 Q2402.77 331.636 2403.79 331.474 Q2404.81 331.289 2405.82 331.289 Q2411.61 331.289 2414.99 334.46 Q2418.37 337.632 2418.37 343.048 Q2418.37 348.627 2414.9 351.729 Q2411.43 354.808 2405.11 354.808 Q2402.93 354.808 2400.66 354.437 Q2398.42 354.067 2396.01 353.326 L2396.01 348.627 Q2398.09 349.761 2400.31 350.317 Q2402.54 350.872 2405.01 350.872 Q2409.02 350.872 2411.36 348.766 Q2413.69 346.659 2413.69 343.048 Q2413.69 339.437 2411.36 337.331 Q2409.02 335.224 2405.01 335.224 Q2403.14 335.224 2401.26 335.641 Q2399.41 336.058 2397.47 336.937 L2397.47 319.576 Z" fill="#000000" fill-rule="nonzero" fill-opacity="1" /><path clip-path="url(#clip610)" d="M2434.55 319.576 L2438.49 319.576 L2426.45 358.534 L2422.51 358.534 L2434.55 319.576 Z" fill="#000000" fill-rule="nonzero" fill-opacity="1" /><path clip-path="url(#clip610)" d="M2460.01 332.146 L2460.01 318.118 L2464.27 318.118 L2464.27 354.136 L2460.01 354.136 L2460.01 350.247 Q2458.67 352.562 2456.61 353.696 Q2454.57 354.808 2451.7 354.808 Q2447 354.808 2444.04 351.058 Q2441.1 347.308 2441.1 341.197 Q2441.1 335.085 2444.04 331.335 Q2447 327.586 2451.7 327.586 Q2454.57 327.586 2456.61 328.72 Q2458.67 329.831 2460.01 332.146 M2445.5 341.197 Q2445.5 345.896 2447.42 348.581 Q2449.37 351.243 2452.74 351.243 Q2456.12 351.243 2458.07 348.581 Q2460.01 345.896 2460.01 341.197 Q2460.01 336.497 2458.07 333.835 Q2456.12 331.15 2452.74 331.15 Q2449.37 331.15 2447.42 333.835 Q2445.5 336.497 2445.5 341.197 Z" fill="#000000" fill-rule="nonzero" fill-opacity="1" /><path clip-path="url(#clip610)" d="M2484.83 341.104 Q2479.67 341.104 2477.68 342.284 Q2475.68 343.465 2475.68 346.312 Q2475.68 348.581 2477.17 349.923 Q2478.67 351.243 2481.24 351.243 Q2484.78 351.243 2486.91 348.743 Q2489.06 346.22 2489.06 342.053 L2489.06 341.104 L2484.83 341.104 M2493.32 339.345 L2493.32 354.136 L2489.06 354.136 L2489.06 350.201 Q2487.61 352.562 2485.43 353.696 Q2483.25 354.808 2480.11 354.808 Q2476.12 354.808 2473.76 352.585 Q2471.43 350.34 2471.43 346.59 Q2471.43 342.215 2474.34 339.993 Q2477.28 337.771 2483.09 337.771 L2489.06 337.771 L2489.06 337.354 Q2489.06 334.414 2487.12 332.817 Q2485.2 331.197 2481.7 331.197 Q2479.48 331.197 2477.37 331.729 Q2475.27 332.261 2473.32 333.326 L2473.32 329.391 Q2475.66 328.488 2477.86 328.048 Q2480.06 327.586 2482.14 327.586 Q2487.77 327.586 2490.55 330.502 Q2493.32 333.419 2493.32 339.345 Z" fill="#000000" fill-rule="nonzero" fill-opacity="1" /><path clip-path="url(#clip610)" d="M2512.88 356.544 Q2511.08 361.173 2509.36 362.585 Q2507.65 363.997 2504.78 363.997 L2501.38 363.997 L2501.38 360.433 L2503.88 360.433 Q2505.64 360.433 2506.61 359.599 Q2507.58 358.766 2508.76 355.664 L2509.53 353.72 L2499.04 328.211 L2503.55 328.211 L2511.66 348.488 L2519.76 328.211 L2524.27 328.211 L2512.88 356.544 Z" fill="#000000" fill-rule="nonzero" fill-opacity="1" /><polyline clip-path="url(#clip610)" style="stroke:#c271d2; stroke-linecap:round; stroke-linejoin:round; stroke-width:8; stroke-opacity:1; fill:none" points="2007.68,388.696 2165.81,388.696 "/>
<path clip-path="url(#clip610)" d="M2200.08 405.976 L2192.17 380.051 L2196.75 380.051 L2203.44 401.81 Q2206.22 398.939 2208.53 394.958 Q2210.29 391.972 2210.38 389.379 Q2210.43 388.152 2209.88 385.838 Q2209.23 383.083 2206.77 380.051 L2211.08 380.051 L2211.08 380.051 Q2212.68 382.111 2213.74 384.981 Q2214.71 387.62 2214.71 389.425 Q2214.71 393.962 2211.57 398.013 Q2207.47 403.291 2204.62 405.976 L2200.08 405.976 Z" fill="#000000" fill-rule="nonzero" fill-opacity="1" /><path clip-path="url(#clip610)" d="M2237.03 384.449 L2266.7 384.449 L2266.7 388.337 L2237.03 388.337 L2237.03 384.449 M2237.03 393.893 L2266.7 393.893 L2266.7 397.828 L2237.03 397.828 L2237.03 393.893 Z" fill="#000000" fill-rule="nonzero" fill-opacity="1" /><path clip-path="url(#clip610)" d="M2301.87 374.495 Q2298.25 374.495 2296.43 378.06 Q2294.62 381.601 2294.62 388.731 Q2294.62 395.837 2296.43 399.402 Q2298.25 402.944 2301.87 402.944 Q2305.5 402.944 2307.31 399.402 Q2309.13 395.837 2309.13 388.731 Q2309.13 381.601 2307.31 378.06 Q2305.5 374.495 2301.87 374.495 M2301.87 370.791 Q2307.68 370.791 2310.73 375.398 Q2313.81 379.981 2313.81 388.731 Q2313.81 397.458 2310.73 402.064 Q2307.68 406.648 2301.87 406.648 Q2296.06 406.648 2292.98 402.064 Q2289.92 397.458 2289.92 388.731 Q2289.92 379.981 2292.98 375.398 Q2296.06 370.791 2301.87 370.791 Z" fill="#000000" fill-rule="nonzero" fill-opacity="1" /><path clip-path="url(#clip610)" d="M2322.03 400.097 L2326.91 400.097 L2326.91 405.976 L2322.03 405.976 L2322.03 400.097 Z" fill="#000000" fill-rule="nonzero" fill-opacity="1" /><path clip-path="url(#clip610)" d="M2347.1 374.495 Q2343.49 374.495 2341.66 378.06 Q2339.85 381.601 2339.85 388.731 Q2339.85 395.837 2341.66 399.402 Q2343.49 402.944 2347.1 402.944 Q2350.73 402.944 2352.54 399.402 Q2354.37 395.837 2354.37 388.731 Q2354.37 381.601 2352.54 378.06 Q2350.73 374.495 2347.1 374.495 M2347.1 370.791 Q2352.91 370.791 2355.96 375.398 Q2359.04 379.981 2359.04 388.731 Q2359.04 397.458 2355.96 402.064 Q2352.91 406.648 2347.1 406.648 Q2341.29 406.648 2338.21 402.064 Q2335.15 397.458 2335.15 388.731 Q2335.15 379.981 2338.21 375.398 Q2341.29 370.791 2347.1 370.791 Z" fill="#000000" fill-rule="nonzero" fill-opacity="1" /><path clip-path="url(#clip610)" d="M2368.07 402.041 L2375.71 402.041 L2375.71 375.676 L2367.4 377.342 L2367.4 373.083 L2375.66 371.416 L2380.34 371.416 L2380.34 402.041 L2387.98 402.041 L2387.98 405.976 L2368.07 405.976 L2368.07 402.041 Z" fill="#000000" fill-rule="nonzero" fill-opacity="1" /><path clip-path="url(#clip610)" d="M2404.39 371.416 L2408.32 371.416 L2396.29 410.374 L2392.35 410.374 L2404.39 371.416 Z" fill="#000000" fill-rule="nonzero" fill-opacity="1" /><path clip-path="url(#clip610)" d="M2429.85 383.986 L2429.85 369.958 L2434.11 369.958 L2434.11 405.976 L2429.85 405.976 L2429.85 402.087 Q2428.51 404.402 2426.45 405.536 Q2424.41 406.648 2421.54 406.648 Q2416.84 406.648 2413.88 402.898 Q2410.94 399.148 2410.94 393.037 Q2410.94 386.925 2413.88 383.175 Q2416.84 379.426 2421.54 379.426 Q2424.41 379.426 2426.45 380.56 Q2428.51 381.671 2429.85 383.986 M2415.34 393.037 Q2415.34 397.736 2417.26 400.421 Q2419.2 403.083 2422.58 403.083 Q2425.96 403.083 2427.91 400.421 Q2429.85 397.736 2429.85 393.037 Q2429.85 388.337 2427.91 385.675 Q2425.96 382.99 2422.58 382.99 Q2419.2 382.99 2417.26 385.675 Q2415.34 388.337 2415.34 393.037 Z" fill="#000000" fill-rule="nonzero" fill-opacity="1" /><path clip-path="url(#clip610)" d="M2454.67 392.944 Q2449.5 392.944 2447.51 394.124 Q2445.52 395.305 2445.52 398.152 Q2445.52 400.421 2447 401.763 Q2448.51 403.083 2451.08 403.083 Q2454.62 403.083 2456.75 400.583 Q2458.9 398.06 2458.9 393.893 L2458.9 392.944 L2454.67 392.944 M2463.16 391.185 L2463.16 405.976 L2458.9 405.976 L2458.9 402.041 Q2457.44 404.402 2455.27 405.536 Q2453.09 406.648 2449.94 406.648 Q2445.96 406.648 2443.6 404.425 Q2441.26 402.18 2441.26 398.43 Q2441.26 394.055 2444.18 391.833 Q2447.12 389.611 2452.93 389.611 L2458.9 389.611 L2458.9 389.194 Q2458.9 386.254 2456.96 384.657 Q2455.04 383.037 2451.54 383.037 Q2449.32 383.037 2447.21 383.569 Q2445.11 384.101 2443.16 385.166 L2443.16 381.231 Q2445.5 380.328 2447.7 379.888 Q2449.9 379.426 2451.98 379.426 Q2457.61 379.426 2460.38 382.342 Q2463.16 385.259 2463.16 391.185 Z" fill="#000000" fill-rule="nonzero" fill-opacity="1" /><path clip-path="url(#clip610)" d="M2482.72 408.384 Q2480.92 413.013 2479.2 414.425 Q2477.49 415.837 2474.62 415.837 L2471.22 415.837 L2471.22 412.273 L2473.72 412.273 Q2475.48 412.273 2476.45 411.439 Q2477.42 410.606 2478.6 407.504 L2479.36 405.56 L2468.88 380.051 L2473.39 380.051 L2481.49 400.328 L2489.6 380.051 L2494.11 380.051 L2482.72 408.384 Z" fill="#000000" fill-rule="nonzero" fill-opacity="1" /></svg>
