<?xml version="1.0" encoding="utf-8"?>
<svg xmlns="http://www.w3.org/2000/svg" xmlns:xlink="http://www.w3.org/1999/xlink" width="800" height="300" viewBox="0 0 3200 1200">
<defs>
  <clipPath id="clip420">
    <rect x="0" y="0" width="3200" height="1200"/>
  </clipPath>
</defs>
<path clip-path="url(#clip420)" d="M0 1200 L3200 1200 L3200 0 L0 0  Z" fill="#ffffff" fill-rule="evenodd" fill-opacity="1"/>
<defs>
  <clipPath id="clip421">
    <rect x="1812" y="97" width="1342" height="967"/>
  </clipPath>
</defs>
<path clip-path="url(#clip420)" d="M189.437 1063.09 L1530.14 1063.09 L1530.14 97.0121 L189.437 97.0121  Z" fill="#ffffff" fill-rule="evenodd" fill-opacity="1"/>
<defs>
  <clipPath id="clip422">
    <rect x="189" y="97" width="1342" height="967"/>
  </clipPath>
</defs>
<polyline clip-path="url(#clip422)" style="stroke:#000000; stroke-linecap:round; stroke-linejoin:round; stroke-width:2; stroke-opacity:0.1; fill:none" points="217.285,1063.09 217.285,97.0121 "/>
<polyline clip-path="url(#clip422)" style="stroke:#000000; stroke-linecap:round; stroke-linejoin:round; stroke-width:2; stroke-opacity:0.1; fill:none" points="446.751,1063.09 446.751,97.0121 "/>
<polyline clip-path="url(#clip422)" style="stroke:#000000; stroke-linecap:round; stroke-linejoin:round; stroke-width:2; stroke-opacity:0.1; fill:none" points="676.216,1063.09 676.216,97.0121 "/>
<polyline clip-path="url(#clip422)" style="stroke:#000000; stroke-linecap:round; stroke-linejoin:round; stroke-width:2; stroke-opacity:0.1; fill:none" points="905.682,1063.09 905.682,97.0121 "/>
<polyline clip-path="url(#clip422)" style="stroke:#000000; stroke-linecap:round; stroke-linejoin:round; stroke-width:2; stroke-opacity:0.1; fill:none" points="1135.15,1063.09 1135.15,97.0121 "/>
<polyline clip-path="url(#clip422)" style="stroke:#000000; stroke-linecap:round; stroke-linejoin:round; stroke-width:2; stroke-opacity:0.1; fill:none" points="1364.61,1063.09 1364.61,97.0121 "/>
<polyline clip-path="url(#clip422)" style="stroke:#000000; stroke-linecap:round; stroke-linejoin:round; stroke-width:2; stroke-opacity:0.1; fill:none" points="189.437,1063.09 1530.14,1063.09 "/>
<polyline clip-path="url(#clip422)" style="stroke:#000000; stroke-linecap:round; stroke-linejoin:round; stroke-width:2; stroke-opacity:0.1; fill:none" points="189.437,914.463 1530.14,914.463 "/>
<polyline clip-path="url(#clip422)" style="stroke:#000000; stroke-linecap:round; stroke-linejoin:round; stroke-width:2; stroke-opacity:0.1; fill:none" points="189.437,765.835 1530.14,765.835 "/>
<polyline clip-path="url(#clip422)" style="stroke:#000000; stroke-linecap:round; stroke-linejoin:round; stroke-width:2; stroke-opacity:0.1; fill:none" points="189.437,617.208 1530.14,617.208 "/>
<polyline clip-path="url(#clip422)" style="stroke:#000000; stroke-linecap:round; stroke-linejoin:round; stroke-width:2; stroke-opacity:0.1; fill:none" points="189.437,468.58 1530.14,468.58 "/>
<polyline clip-path="url(#clip422)" style="stroke:#000000; stroke-linecap:round; stroke-linejoin:round; stroke-width:2; stroke-opacity:0.1; fill:none" points="189.437,319.953 1530.14,319.953 "/>
<polyline clip-path="url(#clip422)" style="stroke:#000000; stroke-linecap:round; stroke-linejoin:round; stroke-width:2; stroke-opacity:0.1; fill:none" points="189.437,171.326 1530.14,171.326 "/>
<polyline clip-path="url(#clip420)" style="stroke:#000000; stroke-linecap:round; stroke-linejoin:round; stroke-width:4; stroke-opacity:1; fill:none" points="189.437,1063.09 1530.14,1063.09 "/>
<polyline clip-path="url(#clip420)" style="stroke:#000000; stroke-linecap:round; stroke-linejoin:round; stroke-width:4; stroke-opacity:1; fill:none" points="217.285,1063.09 217.285,1044.19 "/>
<polyline clip-path="url(#clip420)" style="stroke:#000000; stroke-linecap:round; stroke-linejoin:round; stroke-width:4; stroke-opacity:1; fill:none" points="446.751,1063.09 446.751,1044.19 "/>
<polyline clip-path="url(#clip420)" style="stroke:#000000; stroke-linecap:round; stroke-linejoin:round; stroke-width:4; stroke-opacity:1; fill:none" points="676.216,1063.09 676.216,1044.19 "/>
<polyline clip-path="url(#clip420)" style="stroke:#000000; stroke-linecap:round; stroke-linejoin:round; stroke-width:4; stroke-opacity:1; fill:none" points="905.682,1063.09 905.682,1044.19 "/>
<polyline clip-path="url(#clip420)" style="stroke:#000000; stroke-linecap:round; stroke-linejoin:round; stroke-width:4; stroke-opacity:1; fill:none" points="1135.15,1063.09 1135.15,1044.19 "/>
<polyline clip-path="url(#clip420)" style="stroke:#000000; stroke-linecap:round; stroke-linejoin:round; stroke-width:4; stroke-opacity:1; fill:none" points="1364.61,1063.09 1364.61,1044.19 "/>
<path clip-path="url(#clip420)" d="M179.589 1100.41 Q175.978 1100.41 174.149 1103.97 Q172.344 1107.51 172.344 1114.64 Q172.344 1121.75 174.149 1125.32 Q175.978 1128.86 179.589 1128.86 Q183.223 1128.86 185.029 1125.32 Q186.857 1121.75 186.857 1114.64 Q186.857 1107.51 185.029 1103.97 Q183.223 1100.41 179.589 1100.41 M179.589 1096.7 Q185.399 1096.7 188.455 1101.31 Q191.533 1105.89 191.533 1114.64 Q191.533 1123.37 188.455 1127.98 Q185.399 1132.56 179.589 1132.56 Q173.779 1132.56 170.7 1127.98 Q167.644 1123.37 167.644 1114.64 Q167.644 1105.89 170.7 1101.31 Q173.779 1096.7 179.589 1096.7 Z" fill="#000000" fill-rule="nonzero" fill-opacity="1" /><path clip-path="url(#clip420)" d="M199.751 1126.01 L204.635 1126.01 L204.635 1131.89 L199.751 1131.89 L199.751 1126.01 Z" fill="#000000" fill-rule="nonzero" fill-opacity="1" /><path clip-path="url(#clip420)" d="M227.667 1101.4 L215.862 1119.85 L227.667 1119.85 L227.667 1101.4 M226.44 1097.33 L232.32 1097.33 L232.32 1119.85 L237.251 1119.85 L237.251 1123.74 L232.32 1123.74 L232.32 1131.89 L227.667 1131.89 L227.667 1123.74 L212.066 1123.74 L212.066 1119.23 L226.44 1097.33 Z" fill="#000000" fill-rule="nonzero" fill-opacity="1" /><path clip-path="url(#clip420)" d="M254.982 1100.41 Q251.371 1100.41 249.542 1103.97 Q247.737 1107.51 247.737 1114.64 Q247.737 1121.75 249.542 1125.32 Q251.371 1128.86 254.982 1128.86 Q258.616 1128.86 260.422 1125.32 Q262.25 1121.75 262.25 1114.64 Q262.25 1107.51 260.422 1103.97 Q258.616 1100.41 254.982 1100.41 M254.982 1096.7 Q260.792 1096.7 263.848 1101.31 Q266.926 1105.89 266.926 1114.64 Q266.926 1123.37 263.848 1127.98 Q260.792 1132.56 254.982 1132.56 Q249.172 1132.56 246.093 1127.98 Q243.038 1123.37 243.038 1114.64 Q243.038 1105.89 246.093 1101.31 Q249.172 1096.7 254.982 1096.7 Z" fill="#000000" fill-rule="nonzero" fill-opacity="1" /><path clip-path="url(#clip420)" d="M409.552 1100.41 Q405.941 1100.41 404.112 1103.97 Q402.307 1107.51 402.307 1114.64 Q402.307 1121.75 404.112 1125.32 Q405.941 1128.86 409.552 1128.86 Q413.186 1128.86 414.992 1125.32 Q416.821 1121.75 416.821 1114.64 Q416.821 1107.51 414.992 1103.97 Q413.186 1100.41 409.552 1100.41 M409.552 1096.7 Q415.362 1096.7 418.418 1101.31 Q421.496 1105.89 421.496 1114.64 Q421.496 1123.37 418.418 1127.98 Q415.362 1132.56 409.552 1132.56 Q403.742 1132.56 400.663 1127.98 Q397.608 1123.37 397.608 1114.64 Q397.608 1105.89 400.663 1101.31 Q403.742 1096.7 409.552 1096.7 Z" fill="#000000" fill-rule="nonzero" fill-opacity="1" /><path clip-path="url(#clip420)" d="M429.714 1126.01 L434.598 1126.01 L434.598 1131.89 L429.714 1131.89 L429.714 1126.01 Z" fill="#000000" fill-rule="nonzero" fill-opacity="1" /><path clip-path="url(#clip420)" d="M457.631 1101.4 L445.825 1119.85 L457.631 1119.85 L457.631 1101.4 M456.404 1097.33 L462.283 1097.33 L462.283 1119.85 L467.214 1119.85 L467.214 1123.74 L462.283 1123.74 L462.283 1131.89 L457.631 1131.89 L457.631 1123.74 L442.029 1123.74 L442.029 1119.23 L456.404 1097.33 Z" fill="#000000" fill-rule="nonzero" fill-opacity="1" /><path clip-path="url(#clip420)" d="M474.992 1097.33 L493.348 1097.33 L493.348 1101.27 L479.274 1101.27 L479.274 1109.74 Q480.292 1109.39 481.311 1109.23 Q482.329 1109.04 483.348 1109.04 Q489.135 1109.04 492.515 1112.21 Q495.894 1115.39 495.894 1120.8 Q495.894 1126.38 492.422 1129.48 Q488.95 1132.56 482.63 1132.56 Q480.454 1132.56 478.186 1132.19 Q475.941 1131.82 473.533 1131.08 L473.533 1126.38 Q475.617 1127.51 477.839 1128.07 Q480.061 1128.63 482.538 1128.63 Q486.542 1128.63 488.88 1126.52 Q491.218 1124.41 491.218 1120.8 Q491.218 1117.19 488.88 1115.08 Q486.542 1112.98 482.538 1112.98 Q480.663 1112.98 478.788 1113.39 Q476.936 1113.81 474.992 1114.69 L474.992 1097.33 Z" fill="#000000" fill-rule="nonzero" fill-opacity="1" /><path clip-path="url(#clip420)" d="M638.52 1100.41 Q634.909 1100.41 633.08 1103.97 Q631.275 1107.51 631.275 1114.64 Q631.275 1121.75 633.08 1125.32 Q634.909 1128.86 638.52 1128.86 Q642.154 1128.86 643.96 1125.32 Q645.788 1121.75 645.788 1114.64 Q645.788 1107.51 643.96 1103.97 Q642.154 1100.41 638.52 1100.41 M638.52 1096.7 Q644.33 1096.7 647.386 1101.31 Q650.464 1105.89 650.464 1114.64 Q650.464 1123.37 647.386 1127.98 Q644.33 1132.56 638.52 1132.56 Q632.71 1132.56 629.631 1127.98 Q626.576 1123.37 626.576 1114.64 Q626.576 1105.89 629.631 1101.31 Q632.71 1096.7 638.52 1096.7 Z" fill="#000000" fill-rule="nonzero" fill-opacity="1" /><path clip-path="url(#clip420)" d="M658.682 1126.01 L663.566 1126.01 L663.566 1131.89 L658.682 1131.89 L658.682 1126.01 Z" fill="#000000" fill-rule="nonzero" fill-opacity="1" /><path clip-path="url(#clip420)" d="M673.797 1097.33 L692.154 1097.33 L692.154 1101.27 L678.08 1101.27 L678.08 1109.74 Q679.098 1109.39 680.117 1109.23 Q681.135 1109.04 682.154 1109.04 Q687.941 1109.04 691.321 1112.21 Q694.7 1115.39 694.7 1120.8 Q694.7 1126.38 691.228 1129.48 Q687.756 1132.56 681.436 1132.56 Q679.26 1132.56 676.992 1132.19 Q674.747 1131.82 672.339 1131.08 L672.339 1126.38 Q674.422 1127.51 676.645 1128.07 Q678.867 1128.63 681.344 1128.63 Q685.348 1128.63 687.686 1126.52 Q690.024 1124.41 690.024 1120.8 Q690.024 1117.19 687.686 1115.08 Q685.348 1112.98 681.344 1112.98 Q679.469 1112.98 677.594 1113.39 Q675.742 1113.81 673.797 1114.69 L673.797 1097.33 Z" fill="#000000" fill-rule="nonzero" fill-opacity="1" /><path clip-path="url(#clip420)" d="M713.913 1100.41 Q710.302 1100.41 708.473 1103.97 Q706.668 1107.51 706.668 1114.64 Q706.668 1121.75 708.473 1125.32 Q710.302 1128.86 713.913 1128.86 Q717.547 1128.86 719.353 1125.32 Q721.181 1121.75 721.181 1114.64 Q721.181 1107.51 719.353 1103.97 Q717.547 1100.41 713.913 1100.41 M713.913 1096.7 Q719.723 1096.7 722.779 1101.31 Q725.857 1105.89 725.857 1114.64 Q725.857 1123.37 722.779 1127.98 Q719.723 1132.56 713.913 1132.56 Q708.103 1132.56 705.024 1127.98 Q701.969 1123.37 701.969 1114.64 Q701.969 1105.89 705.024 1101.31 Q708.103 1096.7 713.913 1096.7 Z" fill="#000000" fill-rule="nonzero" fill-opacity="1" /><path clip-path="url(#clip420)" d="M868.483 1100.41 Q864.872 1100.41 863.043 1103.97 Q861.238 1107.51 861.238 1114.64 Q861.238 1121.75 863.043 1125.32 Q864.872 1128.86 868.483 1128.86 Q872.117 1128.86 873.923 1125.32 Q875.752 1121.75 875.752 1114.64 Q875.752 1107.51 873.923 1103.97 Q872.117 1100.41 868.483 1100.41 M868.483 1096.7 Q874.293 1096.7 877.349 1101.31 Q880.427 1105.89 880.427 1114.64 Q880.427 1123.37 877.349 1127.98 Q874.293 1132.56 868.483 1132.56 Q862.673 1132.56 859.594 1127.98 Q856.539 1123.37 856.539 1114.64 Q856.539 1105.89 859.594 1101.31 Q862.673 1096.7 868.483 1096.7 Z" fill="#000000" fill-rule="nonzero" fill-opacity="1" /><path clip-path="url(#clip420)" d="M888.645 1126.01 L893.529 1126.01 L893.529 1131.89 L888.645 1131.89 L888.645 1126.01 Z" fill="#000000" fill-rule="nonzero" fill-opacity="1" /><path clip-path="url(#clip420)" d="M903.761 1097.33 L922.117 1097.33 L922.117 1101.27 L908.043 1101.27 L908.043 1109.74 Q909.062 1109.39 910.08 1109.23 Q911.099 1109.04 912.117 1109.04 Q917.904 1109.04 921.284 1112.21 Q924.663 1115.39 924.663 1120.8 Q924.663 1126.38 921.191 1129.48 Q917.719 1132.56 911.4 1132.56 Q909.224 1132.56 906.955 1132.19 Q904.71 1131.82 902.302 1131.08 L902.302 1126.38 Q904.386 1127.51 906.608 1128.07 Q908.83 1128.63 911.307 1128.63 Q915.312 1128.63 917.65 1126.52 Q919.987 1124.41 919.987 1120.8 Q919.987 1117.19 917.65 1115.08 Q915.312 1112.98 911.307 1112.98 Q909.432 1112.98 907.557 1113.39 Q905.705 1113.81 903.761 1114.69 L903.761 1097.33 Z" fill="#000000" fill-rule="nonzero" fill-opacity="1" /><path clip-path="url(#clip420)" d="M933.923 1097.33 L952.279 1097.33 L952.279 1101.27 L938.205 1101.27 L938.205 1109.74 Q939.223 1109.39 940.242 1109.23 Q941.26 1109.04 942.279 1109.04 Q948.066 1109.04 951.446 1112.21 Q954.825 1115.39 954.825 1120.8 Q954.825 1126.38 951.353 1129.48 Q947.881 1132.56 941.561 1132.56 Q939.386 1132.56 937.117 1132.19 Q934.872 1131.82 932.464 1131.08 L932.464 1126.38 Q934.548 1127.51 936.77 1128.07 Q938.992 1128.63 941.469 1128.63 Q945.473 1128.63 947.811 1126.52 Q950.149 1124.41 950.149 1120.8 Q950.149 1117.19 947.811 1115.08 Q945.473 1112.98 941.469 1112.98 Q939.594 1112.98 937.719 1113.39 Q935.867 1113.81 933.923 1114.69 L933.923 1097.33 Z" fill="#000000" fill-rule="nonzero" fill-opacity="1" /><path clip-path="url(#clip420)" d="M1097.45 1100.41 Q1093.84 1100.41 1092.01 1103.97 Q1090.21 1107.51 1090.21 1114.64 Q1090.21 1121.75 1092.01 1125.32 Q1093.84 1128.86 1097.45 1128.86 Q1101.09 1128.86 1102.89 1125.32 Q1104.72 1121.75 1104.72 1114.64 Q1104.72 1107.51 1102.89 1103.97 Q1101.09 1100.41 1097.45 1100.41 M1097.45 1096.7 Q1103.26 1096.7 1106.32 1101.31 Q1109.4 1105.89 1109.4 1114.64 Q1109.4 1123.37 1106.32 1127.98 Q1103.26 1132.56 1097.45 1132.56 Q1091.64 1132.56 1088.56 1127.98 Q1085.51 1123.37 1085.51 1114.64 Q1085.51 1105.89 1088.56 1101.31 Q1091.64 1096.7 1097.45 1096.7 Z" fill="#000000" fill-rule="nonzero" fill-opacity="1" /><path clip-path="url(#clip420)" d="M1117.61 1126.01 L1122.5 1126.01 L1122.5 1131.89 L1117.61 1131.89 L1117.61 1126.01 Z" fill="#000000" fill-rule="nonzero" fill-opacity="1" /><path clip-path="url(#clip420)" d="M1143.26 1112.75 Q1140.11 1112.75 1138.26 1114.9 Q1136.43 1117.05 1136.43 1120.8 Q1136.43 1124.53 1138.26 1126.7 Q1140.11 1128.86 1143.26 1128.86 Q1146.41 1128.86 1148.24 1126.7 Q1150.09 1124.53 1150.09 1120.8 Q1150.09 1117.05 1148.24 1114.9 Q1146.41 1112.75 1143.26 1112.75 M1152.54 1098.09 L1152.54 1102.35 Q1150.78 1101.52 1148.98 1101.08 Q1147.2 1100.64 1145.44 1100.64 Q1140.81 1100.64 1138.35 1103.76 Q1135.92 1106.89 1135.58 1113.21 Q1136.94 1111.2 1139 1110.13 Q1141.06 1109.04 1143.54 1109.04 Q1148.75 1109.04 1151.76 1112.21 Q1154.79 1115.36 1154.79 1120.8 Q1154.79 1126.13 1151.64 1129.34 Q1148.49 1132.56 1143.26 1132.56 Q1137.27 1132.56 1134.09 1127.98 Q1130.92 1123.37 1130.92 1114.64 Q1130.92 1106.45 1134.81 1101.59 Q1138.7 1096.7 1145.25 1096.7 Q1147.01 1096.7 1148.79 1097.05 Q1150.6 1097.4 1152.54 1098.09 Z" fill="#000000" fill-rule="nonzero" fill-opacity="1" /><path clip-path="url(#clip420)" d="M1172.84 1100.41 Q1169.23 1100.41 1167.4 1103.97 Q1165.6 1107.51 1165.6 1114.64 Q1165.6 1121.75 1167.4 1125.32 Q1169.23 1128.86 1172.84 1128.86 Q1176.48 1128.86 1178.28 1125.32 Q1180.11 1121.75 1180.11 1114.64 Q1180.11 1107.51 1178.28 1103.97 Q1176.48 1100.41 1172.84 1100.41 M1172.84 1096.7 Q1178.65 1096.7 1181.71 1101.31 Q1184.79 1105.89 1184.79 1114.64 Q1184.79 1123.37 1181.71 1127.98 Q1178.65 1132.56 1172.84 1132.56 Q1167.03 1132.56 1163.96 1127.98 Q1160.9 1123.37 1160.9 1114.64 Q1160.9 1105.89 1163.96 1101.31 Q1167.03 1096.7 1172.84 1096.7 Z" fill="#000000" fill-rule="nonzero" fill-opacity="1" /><path clip-path="url(#clip420)" d="M1327.41 1100.41 Q1323.8 1100.41 1321.97 1103.97 Q1320.17 1107.51 1320.17 1114.64 Q1320.17 1121.75 1321.97 1125.32 Q1323.8 1128.86 1327.41 1128.86 Q1331.05 1128.86 1332.85 1125.32 Q1334.68 1121.75 1334.68 1114.64 Q1334.68 1107.51 1332.85 1103.97 Q1331.05 1100.41 1327.41 1100.41 M1327.41 1096.7 Q1333.22 1096.7 1336.28 1101.31 Q1339.36 1105.89 1339.36 1114.64 Q1339.36 1123.37 1336.28 1127.98 Q1333.22 1132.56 1327.41 1132.56 Q1321.6 1132.56 1318.53 1127.98 Q1315.47 1123.37 1315.47 1114.64 Q1315.47 1105.89 1318.53 1101.31 Q1321.6 1096.7 1327.41 1096.7 Z" fill="#000000" fill-rule="nonzero" fill-opacity="1" /><path clip-path="url(#clip420)" d="M1347.58 1126.01 L1352.46 1126.01 L1352.46 1131.89 L1347.58 1131.89 L1347.58 1126.01 Z" fill="#000000" fill-rule="nonzero" fill-opacity="1" /><path clip-path="url(#clip420)" d="M1373.22 1112.75 Q1370.08 1112.75 1368.22 1114.9 Q1366.4 1117.05 1366.4 1120.8 Q1366.4 1124.53 1368.22 1126.7 Q1370.08 1128.86 1373.22 1128.86 Q1376.37 1128.86 1378.2 1126.7 Q1380.05 1124.53 1380.05 1120.8 Q1380.05 1117.05 1378.2 1114.9 Q1376.37 1112.75 1373.22 1112.75 M1382.51 1098.09 L1382.51 1102.35 Q1380.75 1101.52 1378.94 1101.08 Q1377.16 1100.64 1375.4 1100.64 Q1370.77 1100.64 1368.32 1103.76 Q1365.89 1106.89 1365.54 1113.21 Q1366.9 1111.2 1368.96 1110.13 Q1371.03 1109.04 1373.5 1109.04 Q1378.71 1109.04 1381.72 1112.21 Q1384.75 1115.36 1384.75 1120.8 Q1384.75 1126.13 1381.6 1129.34 Q1378.46 1132.56 1373.22 1132.56 Q1367.23 1132.56 1364.06 1127.98 Q1360.89 1123.37 1360.89 1114.64 Q1360.89 1106.45 1364.78 1101.59 Q1368.66 1096.7 1375.21 1096.7 Q1376.97 1096.7 1378.76 1097.05 Q1380.56 1097.4 1382.51 1098.09 Z" fill="#000000" fill-rule="nonzero" fill-opacity="1" /><path clip-path="url(#clip420)" d="M1392.85 1097.33 L1411.21 1097.33 L1411.21 1101.27 L1397.14 1101.27 L1397.14 1109.74 Q1398.15 1109.39 1399.17 1109.23 Q1400.19 1109.04 1401.21 1109.04 Q1407 1109.04 1410.38 1112.21 Q1413.76 1115.39 1413.76 1120.8 Q1413.76 1126.38 1410.28 1129.48 Q1406.81 1132.56 1400.49 1132.56 Q1398.32 1132.56 1396.05 1132.19 Q1393.8 1131.82 1391.4 1131.08 L1391.4 1126.38 Q1393.48 1127.51 1395.7 1128.07 Q1397.92 1128.63 1400.4 1128.63 Q1404.4 1128.63 1406.74 1126.52 Q1409.08 1124.41 1409.08 1120.8 Q1409.08 1117.19 1406.74 1115.08 Q1404.4 1112.98 1400.4 1112.98 Q1398.52 1112.98 1396.65 1113.39 Q1394.8 1113.81 1392.85 1114.69 L1392.85 1097.33 Z" fill="#000000" fill-rule="nonzero" fill-opacity="1" /><path clip-path="url(#clip420)" d="M850.272 1217.76 L850.272 1233.51 L844.384 1233.51 L844.384 1184.53 Q844.384 1170.01 857.943 1170.01 Q871.756 1170.01 871.756 1182.27 Q871.756 1190.99 866.282 1194.17 Q875.194 1197.04 875.194 1205.54 Q875.194 1220.62 859.853 1220.62 Q853.105 1220.62 850.272 1217.76 M850.272 1210.12 Q853.805 1215.63 860.075 1215.63 Q869.242 1215.63 869.242 1205.63 Q869.242 1196.66 854.474 1197.36 L854.474 1191.94 Q866.027 1191.94 866.027 1181.76 Q866.027 1174.79 858.579 1174.79 Q850.272 1174.79 850.272 1184.72 L850.272 1210.12 Z" fill="#000000" fill-rule="nonzero" fill-opacity="1" /><polyline clip-path="url(#clip420)" style="stroke:#000000; stroke-linecap:round; stroke-linejoin:round; stroke-width:4; stroke-opacity:1; fill:none" points="189.437,1063.09 189.437,97.0121 "/>
<polyline clip-path="url(#clip420)" style="stroke:#000000; stroke-linecap:round; stroke-linejoin:round; stroke-width:4; stroke-opacity:1; fill:none" points="189.437,1063.09 208.335,1063.09 "/>
<polyline clip-path="url(#clip420)" style="stroke:#000000; stroke-linecap:round; stroke-linejoin:round; stroke-width:4; stroke-opacity:1; fill:none" points="189.437,914.463 208.335,914.463 "/>
<polyline clip-path="url(#clip420)" style="stroke:#000000; stroke-linecap:round; stroke-linejoin:round; stroke-width:4; stroke-opacity:1; fill:none" points="189.437,765.835 208.335,765.835 "/>
<polyline clip-path="url(#clip420)" style="stroke:#000000; stroke-linecap:round; stroke-linejoin:round; stroke-width:4; stroke-opacity:1; fill:none" points="189.437,617.208 208.335,617.208 "/>
<polyline clip-path="url(#clip420)" style="stroke:#000000; stroke-linecap:round; stroke-linejoin:round; stroke-width:4; stroke-opacity:1; fill:none" points="189.437,468.58 208.335,468.58 "/>
<polyline clip-path="url(#clip420)" style="stroke:#000000; stroke-linecap:round; stroke-linejoin:round; stroke-width:4; stroke-opacity:1; fill:none" points="189.437,319.953 208.335,319.953 "/>
<polyline clip-path="url(#clip420)" style="stroke:#000000; stroke-linecap:round; stroke-linejoin:round; stroke-width:4; stroke-opacity:1; fill:none" points="189.437,171.326 208.335,171.326 "/>
<path clip-path="url(#clip420)" d="M129.493 1048.89 Q125.882 1048.89 124.053 1052.45 Q122.248 1055.99 122.248 1063.12 Q122.248 1070.23 124.053 1073.8 Q125.882 1077.34 129.493 1077.34 Q133.127 1077.34 134.933 1073.8 Q136.762 1070.23 136.762 1063.12 Q136.762 1055.99 134.933 1052.45 Q133.127 1048.89 129.493 1048.89 M129.493 1045.18 Q135.303 1045.18 138.359 1049.79 Q141.437 1054.37 141.437 1063.12 Q141.437 1071.85 138.359 1076.46 Q135.303 1081.04 129.493 1081.04 Q123.683 1081.04 120.604 1076.46 Q117.549 1071.85 117.549 1063.12 Q117.549 1054.37 120.604 1049.79 Q123.683 1045.18 129.493 1045.18 Z" fill="#000000" fill-rule="nonzero" fill-opacity="1" /><path clip-path="url(#clip420)" d="M125.118 927.807 L141.437 927.807 L141.437 931.743 L119.493 931.743 L119.493 927.807 Q122.155 925.053 126.738 920.423 Q131.345 915.77 132.525 914.428 Q134.771 911.905 135.65 910.169 Q136.553 908.409 136.553 906.719 Q136.553 903.965 134.609 902.229 Q132.688 900.493 129.586 900.493 Q127.387 900.493 124.933 901.257 Q122.502 902.02 119.725 903.571 L119.725 898.849 Q122.549 897.715 125.002 897.136 Q127.456 896.558 129.493 896.558 Q134.863 896.558 138.058 899.243 Q141.252 901.928 141.252 906.419 Q141.252 908.548 140.442 910.469 Q139.655 912.368 137.549 914.96 Q136.97 915.631 133.868 918.849 Q130.766 922.043 125.118 927.807 Z" fill="#000000" fill-rule="nonzero" fill-opacity="1" /><path clip-path="url(#clip420)" d="M131.854 752.629 L120.049 771.078 L131.854 771.078 L131.854 752.629 M130.627 748.555 L136.507 748.555 L136.507 771.078 L141.437 771.078 L141.437 774.967 L136.507 774.967 L136.507 783.115 L131.854 783.115 L131.854 774.967 L116.252 774.967 L116.252 770.453 L130.627 748.555 Z" fill="#000000" fill-rule="nonzero" fill-opacity="1" /><path clip-path="url(#clip420)" d="M129.91 615.344 Q126.762 615.344 124.91 617.497 Q123.081 619.65 123.081 623.4 Q123.081 627.127 124.91 629.303 Q126.762 631.455 129.91 631.455 Q133.058 631.455 134.887 629.303 Q136.738 627.127 136.738 623.4 Q136.738 619.65 134.887 617.497 Q133.058 615.344 129.91 615.344 M139.192 600.692 L139.192 604.951 Q137.433 604.118 135.627 603.678 Q133.845 603.238 132.086 603.238 Q127.456 603.238 125.002 606.363 Q122.572 609.488 122.225 615.807 Q123.59 613.793 125.651 612.729 Q127.711 611.641 130.188 611.641 Q135.396 611.641 138.405 614.812 Q141.437 617.96 141.437 623.4 Q141.437 628.724 138.289 631.942 Q135.141 635.159 129.91 635.159 Q123.914 635.159 120.743 630.576 Q117.572 625.969 117.572 617.243 Q117.572 609.048 121.461 604.187 Q125.35 599.303 131.9 599.303 Q133.66 599.303 135.442 599.65 Q137.248 599.997 139.192 600.692 Z" fill="#000000" fill-rule="nonzero" fill-opacity="1" /><path clip-path="url(#clip420)" d="M129.586 469.449 Q126.252 469.449 124.331 471.231 Q122.433 473.013 122.433 476.138 Q122.433 479.263 124.331 481.046 Q126.252 482.828 129.586 482.828 Q132.919 482.828 134.84 481.046 Q136.762 479.24 136.762 476.138 Q136.762 473.013 134.84 471.231 Q132.942 469.449 129.586 469.449 M124.91 467.458 Q121.901 466.717 120.211 464.657 Q118.544 462.597 118.544 459.634 Q118.544 455.49 121.484 453.083 Q124.447 450.675 129.586 450.675 Q134.748 450.675 137.687 453.083 Q140.627 455.49 140.627 459.634 Q140.627 462.597 138.937 464.657 Q137.271 466.717 134.285 467.458 Q137.664 468.245 139.539 470.536 Q141.437 472.828 141.437 476.138 Q141.437 481.161 138.359 483.847 Q135.303 486.532 129.586 486.532 Q123.868 486.532 120.789 483.847 Q117.734 481.161 117.734 476.138 Q117.734 472.828 119.632 470.536 Q121.53 468.245 124.91 467.458 M123.197 460.074 Q123.197 462.759 124.863 464.263 Q126.553 465.768 129.586 465.768 Q132.595 465.768 134.285 464.263 Q135.998 462.759 135.998 460.074 Q135.998 457.388 134.285 455.884 Q132.595 454.379 129.586 454.379 Q126.553 454.379 124.863 455.884 Q123.197 457.388 123.197 460.074 Z" fill="#000000" fill-rule="nonzero" fill-opacity="1" /><path clip-path="url(#clip420)" d="M90.1415 333.298 L97.7803 333.298 L97.7803 306.932 L89.4702 308.599 L89.4702 304.34 L97.734 302.673 L102.41 302.673 L102.41 333.298 L110.049 333.298 L110.049 337.233 L90.1415 337.233 L90.1415 333.298 Z" fill="#000000" fill-rule="nonzero" fill-opacity="1" /><path clip-path="url(#clip420)" d="M129.493 305.752 Q125.882 305.752 124.053 309.317 Q122.248 312.858 122.248 319.988 Q122.248 327.094 124.053 330.659 Q125.882 334.201 129.493 334.201 Q133.127 334.201 134.933 330.659 Q136.762 327.094 136.762 319.988 Q136.762 312.858 134.933 309.317 Q133.127 305.752 129.493 305.752 M129.493 302.048 Q135.303 302.048 138.359 306.655 Q141.437 311.238 141.437 319.988 Q141.437 328.715 138.359 333.321 Q135.303 337.904 129.493 337.904 Q123.683 337.904 120.604 333.321 Q117.549 328.715 117.549 319.988 Q117.549 311.238 120.604 306.655 Q123.683 302.048 129.493 302.048 Z" fill="#000000" fill-rule="nonzero" fill-opacity="1" /><path clip-path="url(#clip420)" d="M91.7387 184.671 L99.3775 184.671 L99.3775 158.305 L91.0674 159.972 L91.0674 155.712 L99.3312 154.046 L104.007 154.046 L104.007 184.671 L111.646 184.671 L111.646 188.606 L91.7387 188.606 L91.7387 184.671 Z" fill="#000000" fill-rule="nonzero" fill-opacity="1" /><path clip-path="url(#clip420)" d="M125.118 184.671 L141.437 184.671 L141.437 188.606 L119.493 188.606 L119.493 184.671 Q122.155 181.916 126.738 177.286 Q131.345 172.634 132.525 171.291 Q134.771 168.768 135.65 167.032 Q136.553 165.273 136.553 163.583 Q136.553 160.828 134.609 159.092 Q132.688 157.356 129.586 157.356 Q127.387 157.356 124.933 158.12 Q122.502 158.884 119.725 160.435 L119.725 155.712 Q122.549 154.578 125.002 154 Q127.456 153.421 129.493 153.421 Q134.863 153.421 138.058 156.106 Q141.252 158.791 141.252 163.282 Q141.252 165.411 140.442 167.333 Q139.655 169.231 137.549 171.823 Q136.97 172.495 133.868 175.712 Q130.766 178.907 125.118 184.671 Z" fill="#000000" fill-rule="nonzero" fill-opacity="1" /><path clip-path="url(#clip420)" d="M-15.0223 693.361 L21.9306 693.361 L21.9306 685.594 Q21.9306 675.759 17.4746 671.208 Q13.0186 666.625 3.40641 666.625 Q-6.14215 666.625 -10.5663 671.208 Q-15.0223 675.759 -15.0223 685.594 L-15.0223 693.361 M-20.3058 699.79 L-20.3058 686.581 Q-20.3058 672.768 -14.5449 666.306 Q-8.81574 659.845 3.40641 659.845 Q15.6922 659.845 21.4532 666.338 Q27.2142 672.831 27.2142 686.581 L27.2142 699.79 L-20.3058 699.79 Z" fill="#000000" fill-rule="nonzero" fill-opacity="1" /><path clip-path="url(#clip420)" d="M7.92607 619.359 L10.7906 619.359 L10.7906 646.286 Q16.8381 645.904 20.0209 642.658 Q23.1719 639.379 23.1719 633.555 Q23.1719 630.181 22.3444 627.03 Q21.5169 623.847 19.8618 620.728 L25.3999 620.728 Q26.7367 623.879 27.437 627.189 Q28.1372 630.499 28.1372 633.905 Q28.1372 642.435 23.1719 647.432 Q18.2067 652.397 9.74029 652.397 Q0.987446 652.397 -4.13695 647.687 Q-9.29317 642.944 -9.29317 634.923 Q-9.29317 627.73 -4.6462 623.561 Q-0.0310669 619.359 7.92607 619.359 M6.20733 625.216 Q1.40122 625.279 -1.46335 627.921 Q-4.32792 630.531 -4.32792 634.86 Q-4.32792 639.761 -1.55884 642.721 Q1.21025 645.65 6.23915 646.095 L6.20733 625.216 Z" fill="#000000" fill-rule="nonzero" fill-opacity="1" /><path clip-path="url(#clip420)" d="M5.69807 580.115 L27.2142 580.115 L27.2142 585.971 L5.88904 585.971 Q0.828303 585.971 -1.68615 587.944 Q-4.2006 589.918 -4.2006 593.865 Q-4.2006 598.607 -1.17689 601.344 Q1.84682 604.082 7.0667 604.082 L27.2142 604.082 L27.2142 609.97 L-8.4338 609.97 L-8.4338 604.082 L-2.89563 604.082 Q-6.11032 601.981 -7.70174 599.148 Q-9.29317 596.284 -9.29317 592.56 Q-9.29317 586.417 -5.47375 583.266 Q-1.68615 580.115 5.69807 580.115 Z" fill="#000000" fill-rule="nonzero" fill-opacity="1" /><path clip-path="url(#clip420)" d="M-7.38346 545.708 L-1.84529 545.708 Q-3.11843 548.191 -3.75501 550.864 Q-4.39158 553.538 -4.39158 556.402 Q-4.39158 560.763 -3.05478 562.959 Q-1.71798 565.123 0.955618 565.123 Q2.99264 565.123 4.1703 563.564 Q5.31613 562.004 6.36647 557.294 L6.81207 555.288 Q8.14887 549.05 10.5997 546.44 Q13.0186 543.798 17.3791 543.798 Q22.3444 543.798 25.2408 547.745 Q28.1372 551.66 28.1372 558.535 Q28.1372 561.399 27.5643 564.519 Q27.0232 567.606 25.9092 571.044 L19.8618 571.044 Q21.5487 567.797 22.408 564.646 Q23.2356 561.495 23.2356 558.408 Q23.2356 554.27 21.8351 552.042 Q20.4029 549.814 17.8247 549.814 Q15.4376 549.814 14.1645 551.437 Q12.8913 553.029 11.7137 558.471 L11.2362 560.508 Q10.0904 565.951 7.7351 568.37 Q5.34796 570.789 1.21025 570.789 Q-3.81866 570.789 -6.55592 567.224 Q-9.29317 563.659 -9.29317 557.103 Q-9.29317 553.856 -8.81574 550.992 Q-8.33831 548.127 -7.38346 545.708 Z" fill="#000000" fill-rule="nonzero" fill-opacity="1" /><path clip-path="url(#clip420)" d="M-8.4338 534.473 L-8.4338 528.616 L27.2142 528.616 L27.2142 534.473 L-8.4338 534.473 M-22.311 534.473 L-22.311 528.616 L-14.895 528.616 L-14.895 534.473 L-22.311 534.473 Z" fill="#000000" fill-rule="nonzero" fill-opacity="1" /><path clip-path="url(#clip420)" d="M-18.5553 510.569 L-8.4338 510.569 L-8.4338 498.506 L-3.88232 498.506 L-3.88232 510.569 L15.4694 510.569 Q19.8299 510.569 21.0713 509.392 Q22.3126 508.182 22.3126 504.522 L22.3126 498.506 L27.2142 498.506 L27.2142 504.522 Q27.2142 511.301 24.6997 513.879 Q22.1534 516.458 15.4694 516.458 L-3.88232 516.458 L-3.88232 520.754 L-8.4338 520.754 L-8.4338 516.458 L-18.5553 516.458 L-18.5553 510.569 Z" fill="#000000" fill-rule="nonzero" fill-opacity="1" /><path clip-path="url(#clip420)" d="M30.5243 475.972 Q36.89 478.454 38.8316 480.81 Q40.7731 483.165 40.7731 487.112 L40.7731 491.79 L35.8715 491.79 L35.8715 488.353 Q35.8715 485.934 34.7257 484.597 Q33.5799 483.26 29.3148 481.637 L26.6412 480.587 L-8.4338 495.005 L-8.4338 488.799 L19.448 477.659 L-8.4338 466.519 L-8.4338 460.312 L30.5243 475.972 Z" fill="#000000" fill-rule="nonzero" fill-opacity="1" /><path clip-path="url(#clip420)" d="M638.792 18.8205 L638.792 41.5461 L649.081 41.5461 Q654.793 41.5461 657.912 38.5889 Q661.031 35.6318 661.031 30.163 Q661.031 24.7348 657.912 21.7777 Q654.793 18.8205 649.081 18.8205 L638.792 18.8205 M630.609 12.096 L649.081 12.096 Q659.249 12.096 664.434 16.714 Q669.66 21.2916 669.66 30.163 Q669.66 39.1155 664.434 43.6931 Q659.249 48.2706 649.081 48.2706 L638.792 48.2706 L638.792 72.576 L630.609 72.576 L630.609 12.096 Z" fill="#000000" fill-rule="nonzero" fill-opacity="1" /><path clip-path="url(#clip420)" d="M694.937 32.4315 Q688.942 32.4315 685.458 37.1306 Q681.974 41.7891 681.974 49.9314 Q681.974 58.0738 685.418 62.7728 Q688.901 67.4314 694.937 67.4314 Q700.892 67.4314 704.376 62.7323 Q707.86 58.0333 707.86 49.9314 Q707.86 41.8701 704.376 37.1711 Q700.892 32.4315 694.937 32.4315 M694.937 26.1121 Q704.66 26.1121 710.209 32.4315 Q715.759 38.7509 715.759 49.9314 Q715.759 61.0714 710.209 67.4314 Q704.66 73.7508 694.937 73.7508 Q685.175 73.7508 679.625 67.4314 Q674.116 61.0714 674.116 49.9314 Q674.116 38.7509 679.625 32.4315 Q685.175 26.1121 694.937 26.1121 Z" fill="#000000" fill-rule="nonzero" fill-opacity="1" /><path clip-path="url(#clip420)" d="M757.038 28.5427 L757.038 35.5912 Q753.878 33.9709 750.475 33.1607 Q747.072 32.3505 743.427 32.3505 Q737.877 32.3505 735.082 34.0519 Q732.327 35.7533 732.327 39.156 Q732.327 41.7486 734.312 43.2475 Q736.297 44.7058 742.292 46.0426 L744.844 46.6097 Q752.784 48.3111 756.106 51.4303 Q759.468 54.509 759.468 60.0587 Q759.468 66.3781 754.445 70.0644 Q749.463 73.7508 740.713 73.7508 Q737.067 73.7508 733.097 73.0216 Q729.167 72.3329 724.792 70.9151 L724.792 63.2184 Q728.924 65.3654 732.935 66.4591 Q736.945 67.5124 740.875 67.5124 Q746.141 67.5124 748.976 65.73 Q751.812 63.9071 751.812 60.6258 Q751.812 57.5877 749.746 55.9673 Q747.721 54.3469 740.794 52.8481 L738.201 52.2405 Q731.274 50.7821 728.195 47.7845 Q725.117 44.7463 725.117 39.4801 Q725.117 33.0797 729.654 29.5959 Q734.191 26.1121 742.535 26.1121 Q746.667 26.1121 750.313 26.7198 Q753.959 27.3274 757.038 28.5427 Z" fill="#000000" fill-rule="nonzero" fill-opacity="1" /><path clip-path="url(#clip420)" d="M778.71 14.324 L778.71 27.2059 L794.063 27.2059 L794.063 32.9987 L778.71 32.9987 L778.71 57.6282 Q778.71 63.1779 780.209 64.7578 Q781.748 66.3376 786.407 66.3376 L794.063 66.3376 L794.063 72.576 L786.407 72.576 Q777.778 72.576 774.497 69.3758 Q771.216 66.1351 771.216 57.6282 L771.216 32.9987 L765.747 32.9987 L765.747 27.2059 L771.216 27.2059 L771.216 14.324 L778.71 14.324 Z" fill="#000000" fill-rule="nonzero" fill-opacity="1" /><path clip-path="url(#clip420)" d="M842.674 48.0275 L842.674 51.6733 L808.403 51.6733 Q808.889 59.3701 813.021 63.421 Q817.194 67.4314 824.607 67.4314 Q828.901 67.4314 832.911 66.3781 Q836.962 65.3249 840.932 63.2184 L840.932 70.267 Q836.922 71.9684 832.709 72.8596 Q828.496 73.7508 824.161 73.7508 Q813.305 73.7508 806.945 67.4314 Q800.625 61.1119 800.625 50.3365 Q800.625 39.1965 806.621 32.6746 Q812.657 26.1121 822.865 26.1121 Q832.02 26.1121 837.327 32.0264 Q842.674 37.9003 842.674 48.0275 M835.22 45.84 Q835.139 39.7232 831.777 36.0774 Q828.455 32.4315 822.946 32.4315 Q816.708 32.4315 812.94 35.9558 Q809.213 39.4801 808.646 45.8805 L835.22 45.84 Z" fill="#000000" fill-rule="nonzero" fill-opacity="1" /><path clip-path="url(#clip420)" d="M881.198 34.1734 Q879.942 33.4443 878.443 33.1202 Q876.985 32.7556 875.203 32.7556 Q868.883 32.7556 865.48 36.8875 Q862.118 40.9789 862.118 48.6757 L862.118 72.576 L854.624 72.576 L854.624 27.2059 L862.118 27.2059 L862.118 34.2544 Q864.468 30.1225 868.235 28.1376 Q872.002 26.1121 877.39 26.1121 Q878.16 26.1121 879.091 26.2337 Q880.023 26.3147 881.157 26.5172 L881.198 34.1734 Z" fill="#000000" fill-rule="nonzero" fill-opacity="1" /><path clip-path="url(#clip420)" d="M889.016 27.2059 L896.47 27.2059 L896.47 72.576 L889.016 72.576 L889.016 27.2059 M889.016 9.54393 L896.47 9.54393 L896.47 18.9825 L889.016 18.9825 L889.016 9.54393 Z" fill="#000000" fill-rule="nonzero" fill-opacity="1" /><path clip-path="url(#clip420)" d="M929.647 32.4315 Q923.651 32.4315 920.168 37.1306 Q916.684 41.7891 916.684 49.9314 Q916.684 58.0738 920.127 62.7728 Q923.611 67.4314 929.647 67.4314 Q935.602 67.4314 939.085 62.7323 Q942.569 58.0333 942.569 49.9314 Q942.569 41.8701 939.085 37.1711 Q935.602 32.4315 929.647 32.4315 M929.647 26.1121 Q939.369 26.1121 944.919 32.4315 Q950.468 38.7509 950.468 49.9314 Q950.468 61.0714 944.919 67.4314 Q939.369 73.7508 929.647 73.7508 Q919.884 73.7508 914.334 67.4314 Q908.825 61.0714 908.825 49.9314 Q908.825 38.7509 914.334 32.4315 Q919.884 26.1121 929.647 26.1121 Z" fill="#000000" fill-rule="nonzero" fill-opacity="1" /><path clip-path="url(#clip420)" d="M989.114 34.1734 Q987.858 33.4443 986.359 33.1202 Q984.901 32.7556 983.119 32.7556 Q976.799 32.7556 973.396 36.8875 Q970.034 40.9789 970.034 48.6757 L970.034 72.576 L962.54 72.576 L962.54 27.2059 L970.034 27.2059 L970.034 34.2544 Q972.384 30.1225 976.151 28.1376 Q979.918 26.1121 985.306 26.1121 Q986.076 26.1121 987.008 26.2337 Q987.939 26.3147 989.073 26.5172 L989.114 34.1734 Z" fill="#000000" fill-rule="nonzero" fill-opacity="1" /><path clip-path="url(#clip420)" d="M997.378 62.2867 L1005.93 62.2867 L1005.93 72.576 L997.378 72.576 L997.378 62.2867 M997.378 29.6769 L1005.93 29.6769 L1005.93 39.9662 L997.378 39.9662 L997.378 29.6769 Z" fill="#000000" fill-rule="nonzero" fill-opacity="1" /><path clip-path="url(#clip420)" d="M1057.25 69.7809 L1057.25 89.8329 L1049.76 89.8329 L1049.76 27.4894 Q1049.76 9.01731 1067.01 9.01731 Q1084.59 9.01731 1084.59 24.6133 Q1084.59 35.7128 1077.63 39.7637 Q1088.97 43.4095 1088.97 54.2254 Q1088.97 73.4267 1069.44 73.4267 Q1060.86 73.4267 1057.25 69.7809 M1057.25 60.0587 Q1061.75 67.0668 1069.73 67.0668 Q1081.39 67.0668 1081.39 54.3469 Q1081.39 42.9234 1062.6 43.8146 L1062.6 36.928 Q1077.3 36.928 1077.3 23.9651 Q1077.3 15.0937 1067.82 15.0937 Q1057.25 15.0937 1057.25 27.7325 L1057.25 60.0587 Z" fill="#000000" fill-rule="nonzero" fill-opacity="1" /><path clip-path="url(#clip422)" d="M263.179 1038.32 L263.179 1063.09 L309.072 1063.09 L309.072 1038.32 L263.179 1038.32 L263.179 1038.32  Z" fill="#009af9" fill-rule="evenodd" fill-opacity="1"/>
<polyline clip-path="url(#clip422)" style="stroke:#000000; stroke-linecap:round; stroke-linejoin:round; stroke-width:4; stroke-opacity:1; fill:none" points="263.179,1038.32 263.179,1063.09 309.072,1063.09 309.072,1038.32 263.179,1038.32 "/>
<path clip-path="url(#clip422)" d="M309.072 1032.13 L309.072 1063.09 L354.965 1063.09 L354.965 1032.13 L309.072 1032.13 L309.072 1032.13  Z" fill="#009af9" fill-rule="evenodd" fill-opacity="1"/>
<polyline clip-path="url(#clip422)" style="stroke:#000000; stroke-linecap:round; stroke-linejoin:round; stroke-width:4; stroke-opacity:1; fill:none" points="309.072,1032.13 309.072,1063.09 354.965,1063.09 354.965,1032.13 309.072,1032.13 "/>
<path clip-path="url(#clip422)" d="M354.965 945.427 L354.965 1063.09 L400.858 1063.09 L400.858 945.427 L354.965 945.427 L354.965 945.427  Z" fill="#009af9" fill-rule="evenodd" fill-opacity="1"/>
<polyline clip-path="url(#clip422)" style="stroke:#000000; stroke-linecap:round; stroke-linejoin:round; stroke-width:4; stroke-opacity:1; fill:none" points="354.965,945.427 354.965,1063.09 400.858,1063.09 400.858,945.427 354.965,945.427 "/>
<path clip-path="url(#clip422)" d="M400.858 920.655 L400.858 1063.09 L446.751 1063.09 L446.751 920.655 L400.858 920.655 L400.858 920.655  Z" fill="#009af9" fill-rule="evenodd" fill-opacity="1"/>
<polyline clip-path="url(#clip422)" style="stroke:#000000; stroke-linecap:round; stroke-linejoin:round; stroke-width:4; stroke-opacity:1; fill:none" points="400.858,920.655 400.858,1063.09 446.751,1063.09 446.751,920.655 400.858,920.655 "/>
<path clip-path="url(#clip422)" d="M446.751 920.655 L446.751 1063.09 L492.644 1063.09 L492.644 920.655 L446.751 920.655 L446.751 920.655  Z" fill="#009af9" fill-rule="evenodd" fill-opacity="1"/>
<polyline clip-path="url(#clip422)" style="stroke:#000000; stroke-linecap:round; stroke-linejoin:round; stroke-width:4; stroke-opacity:1; fill:none" points="446.751,920.655 446.751,1063.09 492.644,1063.09 492.644,920.655 446.751,920.655 "/>
<path clip-path="url(#clip422)" d="M492.644 759.642 L492.644 1063.09 L538.537 1063.09 L538.537 759.642 L492.644 759.642 L492.644 759.642  Z" fill="#009af9" fill-rule="evenodd" fill-opacity="1"/>
<polyline clip-path="url(#clip422)" style="stroke:#000000; stroke-linecap:round; stroke-linejoin:round; stroke-width:4; stroke-opacity:1; fill:none" points="492.644,759.642 492.644,1063.09 538.537,1063.09 538.537,759.642 492.644,759.642 "/>
<path clip-path="url(#clip422)" d="M538.537 549.087 L538.537 1063.09 L584.43 1063.09 L584.43 549.087 L538.537 549.087 L538.537 549.087  Z" fill="#009af9" fill-rule="evenodd" fill-opacity="1"/>
<polyline clip-path="url(#clip422)" style="stroke:#000000; stroke-linecap:round; stroke-linejoin:round; stroke-width:4; stroke-opacity:1; fill:none" points="538.537,549.087 538.537,1063.09 584.43,1063.09 584.43,549.087 538.537,549.087 "/>
<path clip-path="url(#clip422)" d="M584.43 450.002 L584.43 1063.09 L630.323 1063.09 L630.323 450.002 L584.43 450.002 L584.43 450.002  Z" fill="#009af9" fill-rule="evenodd" fill-opacity="1"/>
<polyline clip-path="url(#clip422)" style="stroke:#000000; stroke-linecap:round; stroke-linejoin:round; stroke-width:4; stroke-opacity:1; fill:none" points="584.43,450.002 584.43,1063.09 630.323,1063.09 630.323,450.002 584.43,450.002 "/>
<path clip-path="url(#clip422)" d="M630.323 258.025 L630.323 1063.09 L676.216 1063.09 L676.216 258.025 L630.323 258.025 L630.323 258.025  Z" fill="#009af9" fill-rule="evenodd" fill-opacity="1"/>
<polyline clip-path="url(#clip422)" style="stroke:#000000; stroke-linecap:round; stroke-linejoin:round; stroke-width:4; stroke-opacity:1; fill:none" points="630.323,258.025 630.323,1063.09 676.216,1063.09 676.216,258.025 630.323,258.025 "/>
<path clip-path="url(#clip422)" d="M676.216 97.0121 L676.216 1063.09 L722.11 1063.09 L722.11 97.0121 L676.216 97.0121 L676.216 97.0121  Z" fill="#009af9" fill-rule="evenodd" fill-opacity="1"/>
<polyline clip-path="url(#clip422)" style="stroke:#000000; stroke-linecap:round; stroke-linejoin:round; stroke-width:4; stroke-opacity:1; fill:none" points="676.216,97.0121 676.216,1063.09 722.11,1063.09 722.11,97.0121 676.216,97.0121 "/>
<path clip-path="url(#clip422)" d="M722.11 456.195 L722.11 1063.09 L768.003 1063.09 L768.003 456.195 L722.11 456.195 L722.11 456.195  Z" fill="#009af9" fill-rule="evenodd" fill-opacity="1"/>
<polyline clip-path="url(#clip422)" style="stroke:#000000; stroke-linecap:round; stroke-linejoin:round; stroke-width:4; stroke-opacity:1; fill:none" points="722.11,456.195 722.11,1063.09 768.003,1063.09 768.003,456.195 722.11,456.195 "/>
<path clip-path="url(#clip422)" d="M768.003 480.966 L768.003 1063.09 L813.896 1063.09 L813.896 480.966 L768.003 480.966 L768.003 480.966  Z" fill="#009af9" fill-rule="evenodd" fill-opacity="1"/>
<polyline clip-path="url(#clip422)" style="stroke:#000000; stroke-linecap:round; stroke-linejoin:round; stroke-width:4; stroke-opacity:1; fill:none" points="768.003,480.966 768.003,1063.09 813.896,1063.09 813.896,480.966 768.003,480.966 "/>
<path clip-path="url(#clip422)" d="M813.896 524.316 L813.896 1063.09 L859.789 1063.09 L859.789 524.316 L813.896 524.316 L813.896 524.316  Z" fill="#009af9" fill-rule="evenodd" fill-opacity="1"/>
<polyline clip-path="url(#clip422)" style="stroke:#000000; stroke-linecap:round; stroke-linejoin:round; stroke-width:4; stroke-opacity:1; fill:none" points="813.896,524.316 813.896,1063.09 859.789,1063.09 859.789,524.316 813.896,524.316 "/>
<path clip-path="url(#clip422)" d="M859.789 505.737 L859.789 1063.09 L905.682 1063.09 L905.682 505.737 L859.789 505.737 L859.789 505.737  Z" fill="#009af9" fill-rule="evenodd" fill-opacity="1"/>
<polyline clip-path="url(#clip422)" style="stroke:#000000; stroke-linecap:round; stroke-linejoin:round; stroke-width:4; stroke-opacity:1; fill:none" points="859.789,505.737 859.789,1063.09 905.682,1063.09 905.682,505.737 859.789,505.737 "/>
<path clip-path="url(#clip422)" d="M905.682 635.786 L905.682 1063.09 L951.575 1063.09 L951.575 635.786 L905.682 635.786 L905.682 635.786  Z" fill="#009af9" fill-rule="evenodd" fill-opacity="1"/>
<polyline clip-path="url(#clip422)" style="stroke:#000000; stroke-linecap:round; stroke-linejoin:round; stroke-width:4; stroke-opacity:1; fill:none" points="905.682,635.786 905.682,1063.09 951.575,1063.09 951.575,635.786 905.682,635.786 "/>
<path clip-path="url(#clip422)" d="M951.575 778.221 L951.575 1063.09 L997.468 1063.09 L997.468 778.221 L951.575 778.221 L951.575 778.221  Z" fill="#009af9" fill-rule="evenodd" fill-opacity="1"/>
<polyline clip-path="url(#clip422)" style="stroke:#000000; stroke-linecap:round; stroke-linejoin:round; stroke-width:4; stroke-opacity:1; fill:none" points="951.575,778.221 951.575,1063.09 997.468,1063.09 997.468,778.221 951.575,778.221 "/>
<path clip-path="url(#clip422)" d="M997.468 908.27 L997.468 1063.09 L1043.36 1063.09 L1043.36 908.27 L997.468 908.27 L997.468 908.27  Z" fill="#009af9" fill-rule="evenodd" fill-opacity="1"/>
<polyline clip-path="url(#clip422)" style="stroke:#000000; stroke-linecap:round; stroke-linejoin:round; stroke-width:4; stroke-opacity:1; fill:none" points="997.468,908.27 997.468,1063.09 1043.36,1063.09 1043.36,908.27 997.468,908.27 "/>
<path clip-path="url(#clip422)" d="M1043.36 1007.35 L1043.36 1063.09 L1089.25 1063.09 L1089.25 1007.35 L1043.36 1007.35 L1043.36 1007.35  Z" fill="#009af9" fill-rule="evenodd" fill-opacity="1"/>
<polyline clip-path="url(#clip422)" style="stroke:#000000; stroke-linecap:round; stroke-linejoin:round; stroke-width:4; stroke-opacity:1; fill:none" points="1043.36,1007.35 1043.36,1063.09 1089.25,1063.09 1089.25,1007.35 1043.36,1007.35 "/>
<path clip-path="url(#clip422)" d="M1089.25 920.655 L1089.25 1063.09 L1135.15 1063.09 L1135.15 920.655 L1089.25 920.655 L1089.25 920.655  Z" fill="#009af9" fill-rule="evenodd" fill-opacity="1"/>
<polyline clip-path="url(#clip422)" style="stroke:#000000; stroke-linecap:round; stroke-linejoin:round; stroke-width:4; stroke-opacity:1; fill:none" points="1089.25,920.655 1089.25,1063.09 1135.15,1063.09 1135.15,920.655 1089.25,920.655 "/>
<path clip-path="url(#clip422)" d="M1135.15 939.234 L1135.15 1063.09 L1181.04 1063.09 L1181.04 939.234 L1135.15 939.234 L1135.15 939.234  Z" fill="#009af9" fill-rule="evenodd" fill-opacity="1"/>
<polyline clip-path="url(#clip422)" style="stroke:#000000; stroke-linecap:round; stroke-linejoin:round; stroke-width:4; stroke-opacity:1; fill:none" points="1135.15,939.234 1135.15,1063.09 1181.04,1063.09 1181.04,939.234 1135.15,939.234 "/>
<path clip-path="url(#clip422)" d="M1181.04 939.234 L1181.04 1063.09 L1226.93 1063.09 L1226.93 939.234 L1181.04 939.234 L1181.04 939.234  Z" fill="#009af9" fill-rule="evenodd" fill-opacity="1"/>
<polyline clip-path="url(#clip422)" style="stroke:#000000; stroke-linecap:round; stroke-linejoin:round; stroke-width:4; stroke-opacity:1; fill:none" points="1181.04,939.234 1181.04,1063.09 1226.93,1063.09 1226.93,939.234 1181.04,939.234 "/>
<path clip-path="url(#clip422)" d="M1226.93 945.427 L1226.93 1063.09 L1272.83 1063.09 L1272.83 945.427 L1226.93 945.427 L1226.93 945.427  Z" fill="#009af9" fill-rule="evenodd" fill-opacity="1"/>
<polyline clip-path="url(#clip422)" style="stroke:#000000; stroke-linecap:round; stroke-linejoin:round; stroke-width:4; stroke-opacity:1; fill:none" points="1226.93,945.427 1226.93,1063.09 1272.83,1063.09 1272.83,945.427 1226.93,945.427 "/>
<path clip-path="url(#clip422)" d="M1272.83 1019.74 L1272.83 1063.09 L1318.72 1063.09 L1318.72 1019.74 L1272.83 1019.74 L1272.83 1019.74  Z" fill="#009af9" fill-rule="evenodd" fill-opacity="1"/>
<polyline clip-path="url(#clip422)" style="stroke:#000000; stroke-linecap:round; stroke-linejoin:round; stroke-width:4; stroke-opacity:1; fill:none" points="1272.83,1019.74 1272.83,1063.09 1318.72,1063.09 1318.72,1019.74 1272.83,1019.74 "/>
<path clip-path="url(#clip422)" d="M1318.72 1063.09 L1318.72 1063.09 L1364.61 1063.09 L1364.61 1063.09 L1318.72 1063.09 L1318.72 1063.09  Z" fill="#009af9" fill-rule="evenodd" fill-opacity="1"/>
<polyline clip-path="url(#clip422)" style="stroke:#000000; stroke-linecap:round; stroke-linejoin:round; stroke-width:4; stroke-opacity:1; fill:none" points="1318.72,1063.09 1318.72,1063.09 1364.61,1063.09 1318.72,1063.09 "/>
<path clip-path="url(#clip422)" d="M1364.61 1063.09 L1364.61 1063.09 L1410.51 1063.09 L1410.51 1063.09 L1364.61 1063.09 L1364.61 1063.09  Z" fill="#009af9" fill-rule="evenodd" fill-opacity="1"/>
<polyline clip-path="url(#clip422)" style="stroke:#000000; stroke-linecap:round; stroke-linejoin:round; stroke-width:4; stroke-opacity:1; fill:none" points="1364.61,1063.09 1364.61,1063.09 1410.51,1063.09 1364.61,1063.09 "/>
<path clip-path="url(#clip422)" d="M1410.51 1050.7 L1410.51 1063.09 L1456.4 1063.09 L1456.4 1050.7 L1410.51 1050.7 L1410.51 1050.7  Z" fill="#009af9" fill-rule="evenodd" fill-opacity="1"/>
<polyline clip-path="url(#clip422)" style="stroke:#000000; stroke-linecap:round; stroke-linejoin:round; stroke-width:4; stroke-opacity:1; fill:none" points="1410.51,1050.7 1410.51,1063.09 1456.4,1063.09 1456.4,1050.7 1410.51,1050.7 "/>
<circle clip-path="url(#clip422)" style="fill:#009af9; stroke:none; fill-opacity:0" cx="286.125" cy="1038.32" r="2"/>
<circle clip-path="url(#clip422)" style="fill:#009af9; stroke:none; fill-opacity:0" cx="332.018" cy="1032.13" r="2"/>
<circle clip-path="url(#clip422)" style="fill:#009af9; stroke:none; fill-opacity:0" cx="377.911" cy="945.427" r="2"/>
<circle clip-path="url(#clip422)" style="fill:#009af9; stroke:none; fill-opacity:0" cx="423.804" cy="920.655" r="2"/>
<circle clip-path="url(#clip422)" style="fill:#009af9; stroke:none; fill-opacity:0" cx="469.697" cy="920.655" r="2"/>
<circle clip-path="url(#clip422)" style="fill:#009af9; stroke:none; fill-opacity:0" cx="515.591" cy="759.642" r="2"/>
<circle clip-path="url(#clip422)" style="fill:#009af9; stroke:none; fill-opacity:0" cx="561.484" cy="549.087" r="2"/>
<circle clip-path="url(#clip422)" style="fill:#009af9; stroke:none; fill-opacity:0" cx="607.377" cy="450.002" r="2"/>
<circle clip-path="url(#clip422)" style="fill:#009af9; stroke:none; fill-opacity:0" cx="653.27" cy="258.025" r="2"/>
<circle clip-path="url(#clip422)" style="fill:#009af9; stroke:none; fill-opacity:0" cx="745.056" cy="456.195" r="2"/>
<circle clip-path="url(#clip422)" style="fill:#009af9; stroke:none; fill-opacity:0" cx="790.949" cy="480.966" r="2"/>
<circle clip-path="url(#clip422)" style="fill:#009af9; stroke:none; fill-opacity:0" cx="836.842" cy="524.316" r="2"/>
<circle clip-path="url(#clip422)" style="fill:#009af9; stroke:none; fill-opacity:0" cx="882.735" cy="505.737" r="2"/>
<circle clip-path="url(#clip422)" style="fill:#009af9; stroke:none; fill-opacity:0" cx="928.629" cy="635.786" r="2"/>
<circle clip-path="url(#clip422)" style="fill:#009af9; stroke:none; fill-opacity:0" cx="974.522" cy="778.221" r="2"/>
<circle clip-path="url(#clip422)" style="fill:#009af9; stroke:none; fill-opacity:0" cx="1020.41" cy="908.27" r="2"/>
<circle clip-path="url(#clip422)" style="fill:#009af9; stroke:none; fill-opacity:0" cx="1066.31" cy="1007.35" r="2"/>
<circle clip-path="url(#clip422)" style="fill:#009af9; stroke:none; fill-opacity:0" cx="1112.2" cy="920.655" r="2"/>
<circle clip-path="url(#clip422)" style="fill:#009af9; stroke:none; fill-opacity:0" cx="1158.09" cy="939.234" r="2"/>
<circle clip-path="url(#clip422)" style="fill:#009af9; stroke:none; fill-opacity:0" cx="1203.99" cy="939.234" r="2"/>
<circle clip-path="url(#clip422)" style="fill:#009af9; stroke:none; fill-opacity:0" cx="1249.88" cy="945.427" r="2"/>
<circle clip-path="url(#clip422)" style="fill:#009af9; stroke:none; fill-opacity:0" cx="1295.77" cy="1019.74" r="2"/>
<circle clip-path="url(#clip422)" style="fill:#009af9; stroke:none; fill-opacity:0" cx="1341.67" cy="1063.09" r="2"/>
<circle clip-path="url(#clip422)" style="fill:#009af9; stroke:none; fill-opacity:0" cx="1387.56" cy="1063.09" r="2"/>
<circle clip-path="url(#clip422)" style="fill:#009af9; stroke:none; fill-opacity:0" cx="1433.45" cy="1050.7" r="2"/>
<polyline clip-path="url(#clip422)" style="stroke:#ff0000; stroke-linecap:round; stroke-linejoin:round; stroke-width:8; stroke-opacity:1; fill:none" points="676.216,2029.17 676.216,-869.066 "/>
<path clip-path="url(#clip420)" d="M1253.07 232.895 L1485.45 232.895 L1485.45 129.215 L1253.07 129.215  Z" fill="#ffffff" fill-rule="evenodd" fill-opacity="1"/>
<polyline clip-path="url(#clip420)" style="stroke:#000000; stroke-linecap:round; stroke-linejoin:round; stroke-width:4; stroke-opacity:1; fill:none" points="1253.07,232.895 1485.45,232.895 1485.45,129.215 1253.07,129.215 1253.07,232.895 "/>
<polyline clip-path="url(#clip420)" style="stroke:#ff0000; stroke-linecap:round; stroke-linejoin:round; stroke-width:8; stroke-opacity:1; fill:none" points="1267.97,181.055 1357.35,181.055 "/>
<path clip-path="url(#clip420)" d="M1372.24 163.775 L1401.48 163.775 L1401.48 167.71 L1389.21 167.71 L1389.21 198.335 L1384.51 198.335 L1384.51 167.71 L1372.24 167.71 L1372.24 163.775 Z" fill="#000000" fill-rule="nonzero" fill-opacity="1" /><path clip-path="url(#clip420)" d="M1413.86 176.39 Q1413.15 175.974 1412.29 175.789 Q1411.46 175.58 1410.44 175.58 Q1406.83 175.58 1404.88 177.941 Q1402.96 180.279 1402.96 184.677 L1402.96 198.335 L1398.68 198.335 L1398.68 172.409 L1402.96 172.409 L1402.96 176.437 Q1404.3 174.076 1406.46 172.941 Q1408.61 171.784 1411.69 171.784 Q1412.13 171.784 1412.66 171.853 Q1413.19 171.9 1413.84 172.015 L1413.86 176.39 Z" fill="#000000" fill-rule="nonzero" fill-opacity="1" /><path clip-path="url(#clip420)" d="M1417.89 188.103 L1417.89 172.409 L1422.15 172.409 L1422.15 187.941 Q1422.15 191.622 1423.59 193.474 Q1425.02 195.302 1427.89 195.302 Q1431.34 195.302 1433.33 193.103 Q1435.35 190.904 1435.35 187.108 L1435.35 172.409 L1439.6 172.409 L1439.6 198.335 L1435.35 198.335 L1435.35 194.353 Q1433.79 196.714 1431.73 197.872 Q1429.7 199.006 1426.99 199.006 Q1422.52 199.006 1420.21 196.228 Q1417.89 193.45 1417.89 188.103 M1428.61 171.784 L1428.61 171.784 Z" fill="#000000" fill-rule="nonzero" fill-opacity="1" /><path clip-path="url(#clip420)" d="M1470.55 184.307 L1470.55 186.39 L1450.97 186.39 Q1451.25 190.788 1453.61 193.103 Q1455.99 195.395 1460.23 195.395 Q1462.68 195.395 1464.97 194.793 Q1467.29 194.191 1469.56 192.988 L1469.56 197.015 Q1467.27 197.987 1464.86 198.497 Q1462.45 199.006 1459.97 199.006 Q1453.77 199.006 1450.14 195.395 Q1446.53 191.784 1446.53 185.626 Q1446.53 179.261 1449.95 175.534 Q1453.4 171.784 1459.23 171.784 Q1464.47 171.784 1467.5 175.164 Q1470.55 178.52 1470.55 184.307 M1466.29 183.057 Q1466.25 179.562 1464.33 177.478 Q1462.43 175.395 1459.28 175.395 Q1455.72 175.395 1453.56 177.409 Q1451.43 179.423 1451.11 183.08 L1466.29 183.057 Z" fill="#000000" fill-rule="nonzero" fill-opacity="1" /><path clip-path="url(#clip420)" d="M1812.05 1063.09 L3152.76 1063.09 L3152.76 97.0121 L1812.05 97.0121  Z" fill="#ffffff" fill-rule="evenodd" fill-opacity="1"/>
<polyline clip-path="url(#clip421)" style="stroke:#000000; stroke-linecap:round; stroke-linejoin:round; stroke-width:2; stroke-opacity:0.1; fill:none" points="1948.6,1063.09 1948.6,97.0121 "/>
<polyline clip-path="url(#clip421)" style="stroke:#000000; stroke-linecap:round; stroke-linejoin:round; stroke-width:2; stroke-opacity:0.1; fill:none" points="2262.6,1063.09 2262.6,97.0121 "/>
<polyline clip-path="url(#clip421)" style="stroke:#000000; stroke-linecap:round; stroke-linejoin:round; stroke-width:2; stroke-opacity:0.1; fill:none" points="2576.61,1063.09 2576.61,97.0121 "/>
<polyline clip-path="url(#clip421)" style="stroke:#000000; stroke-linecap:round; stroke-linejoin:round; stroke-width:2; stroke-opacity:0.1; fill:none" points="2890.61,1063.09 2890.61,97.0121 "/>
<polyline clip-path="url(#clip421)" style="stroke:#000000; stroke-linecap:round; stroke-linejoin:round; stroke-width:2; stroke-opacity:0.1; fill:none" points="1812.05,1063.09 3152.76,1063.09 "/>
<polyline clip-path="url(#clip421)" style="stroke:#000000; stroke-linecap:round; stroke-linejoin:round; stroke-width:2; stroke-opacity:0.1; fill:none" points="1812.05,894.588 3152.76,894.588 "/>
<polyline clip-path="url(#clip421)" style="stroke:#000000; stroke-linecap:round; stroke-linejoin:round; stroke-width:2; stroke-opacity:0.1; fill:none" points="1812.05,726.086 3152.76,726.086 "/>
<polyline clip-path="url(#clip421)" style="stroke:#000000; stroke-linecap:round; stroke-linejoin:round; stroke-width:2; stroke-opacity:0.1; fill:none" points="1812.05,557.584 3152.76,557.584 "/>
<polyline clip-path="url(#clip421)" style="stroke:#000000; stroke-linecap:round; stroke-linejoin:round; stroke-width:2; stroke-opacity:0.1; fill:none" points="1812.05,389.082 3152.76,389.082 "/>
<polyline clip-path="url(#clip421)" style="stroke:#000000; stroke-linecap:round; stroke-linejoin:round; stroke-width:2; stroke-opacity:0.1; fill:none" points="1812.05,220.58 3152.76,220.58 "/>
<polyline clip-path="url(#clip420)" style="stroke:#000000; stroke-linecap:round; stroke-linejoin:round; stroke-width:4; stroke-opacity:1; fill:none" points="1812.05,1063.09 3152.76,1063.09 "/>
<polyline clip-path="url(#clip420)" style="stroke:#000000; stroke-linecap:round; stroke-linejoin:round; stroke-width:4; stroke-opacity:1; fill:none" points="1948.6,1063.09 1948.6,1044.19 "/>
<polyline clip-path="url(#clip420)" style="stroke:#000000; stroke-linecap:round; stroke-linejoin:round; stroke-width:4; stroke-opacity:1; fill:none" points="2262.6,1063.09 2262.6,1044.19 "/>
<polyline clip-path="url(#clip420)" style="stroke:#000000; stroke-linecap:round; stroke-linejoin:round; stroke-width:4; stroke-opacity:1; fill:none" points="2576.61,1063.09 2576.61,1044.19 "/>
<polyline clip-path="url(#clip420)" style="stroke:#000000; stroke-linecap:round; stroke-linejoin:round; stroke-width:4; stroke-opacity:1; fill:none" points="2890.61,1063.09 2890.61,1044.19 "/>
<path clip-path="url(#clip420)" d="M1911.4 1100.41 Q1907.79 1100.41 1905.96 1103.97 Q1904.15 1107.51 1904.15 1114.64 Q1904.15 1121.75 1905.96 1125.32 Q1907.79 1128.86 1911.4 1128.86 Q1915.03 1128.86 1916.84 1125.32 Q1918.66 1121.75 1918.66 1114.64 Q1918.66 1107.51 1916.84 1103.97 Q1915.03 1100.41 1911.4 1100.41 M1911.4 1096.7 Q1917.21 1096.7 1920.26 1101.31 Q1923.34 1105.89 1923.34 1114.64 Q1923.34 1123.37 1920.26 1127.98 Q1917.21 1132.56 1911.4 1132.56 Q1905.59 1132.56 1902.51 1127.98 Q1899.45 1123.37 1899.45 1114.64 Q1899.45 1105.89 1902.51 1101.31 Q1905.59 1096.7 1911.4 1096.7 Z" fill="#000000" fill-rule="nonzero" fill-opacity="1" /><path clip-path="url(#clip420)" d="M1931.56 1126.01 L1936.44 1126.01 L1936.44 1131.89 L1931.56 1131.89 L1931.56 1126.01 Z" fill="#000000" fill-rule="nonzero" fill-opacity="1" /><path clip-path="url(#clip420)" d="M1956.63 1100.41 Q1953.02 1100.41 1951.19 1103.97 Q1949.38 1107.51 1949.38 1114.64 Q1949.38 1121.75 1951.19 1125.32 Q1953.02 1128.86 1956.63 1128.86 Q1960.26 1128.86 1962.07 1125.32 Q1963.9 1121.75 1963.9 1114.64 Q1963.9 1107.51 1962.07 1103.97 Q1960.26 1100.41 1956.63 1100.41 M1956.63 1096.7 Q1962.44 1096.7 1965.49 1101.31 Q1968.57 1105.89 1968.57 1114.64 Q1968.57 1123.37 1965.49 1127.98 Q1962.44 1132.56 1956.63 1132.56 Q1950.82 1132.56 1947.74 1127.98 Q1944.68 1123.37 1944.68 1114.64 Q1944.68 1105.89 1947.74 1101.31 Q1950.82 1096.7 1956.63 1096.7 Z" fill="#000000" fill-rule="nonzero" fill-opacity="1" /><path clip-path="url(#clip420)" d="M1976.84 1097.33 L1995.19 1097.33 L1995.19 1101.27 L1981.12 1101.27 L1981.12 1109.74 Q1982.14 1109.39 1983.16 1109.23 Q1984.17 1109.04 1985.19 1109.04 Q1990.98 1109.04 1994.36 1112.21 Q1997.74 1115.39 1997.74 1120.8 Q1997.74 1126.38 1994.27 1129.48 Q1990.79 1132.56 1984.47 1132.56 Q1982.3 1132.56 1980.03 1132.19 Q1977.78 1131.82 1975.38 1131.08 L1975.38 1126.38 Q1977.46 1127.51 1979.68 1128.07 Q1981.91 1128.63 1984.38 1128.63 Q1988.39 1128.63 1990.72 1126.52 Q1993.06 1124.41 1993.06 1120.8 Q1993.06 1117.19 1990.72 1115.08 Q1988.39 1112.98 1984.38 1112.98 Q1982.51 1112.98 1980.63 1113.39 Q1978.78 1113.81 1976.84 1114.69 L1976.84 1097.33 Z" fill="#000000" fill-rule="nonzero" fill-opacity="1" /><path clip-path="url(#clip420)" d="M2224.9 1100.41 Q2221.29 1100.41 2219.46 1103.97 Q2217.66 1107.51 2217.66 1114.64 Q2217.66 1121.75 2219.46 1125.32 Q2221.29 1128.86 2224.9 1128.86 Q2228.54 1128.86 2230.34 1125.32 Q2232.17 1121.75 2232.17 1114.64 Q2232.17 1107.51 2230.34 1103.97 Q2228.54 1100.41 2224.9 1100.41 M2224.9 1096.7 Q2230.71 1096.7 2233.77 1101.31 Q2236.85 1105.89 2236.85 1114.64 Q2236.85 1123.37 2233.77 1127.98 Q2230.71 1132.56 2224.9 1132.56 Q2219.09 1132.56 2216.02 1127.98 Q2212.96 1123.37 2212.96 1114.64 Q2212.96 1105.89 2216.02 1101.31 Q2219.09 1096.7 2224.9 1096.7 Z" fill="#000000" fill-rule="nonzero" fill-opacity="1" /><path clip-path="url(#clip420)" d="M2245.07 1126.01 L2249.95 1126.01 L2249.95 1131.89 L2245.07 1131.89 L2245.07 1126.01 Z" fill="#000000" fill-rule="nonzero" fill-opacity="1" /><path clip-path="url(#clip420)" d="M2260.95 1127.95 L2268.58 1127.95 L2268.58 1101.59 L2260.27 1103.26 L2260.27 1099 L2268.54 1097.33 L2273.21 1097.33 L2273.21 1127.95 L2280.85 1127.95 L2280.85 1131.89 L2260.95 1131.89 L2260.95 1127.95 Z" fill="#000000" fill-rule="nonzero" fill-opacity="1" /><path clip-path="url(#clip420)" d="M2300.3 1100.41 Q2296.69 1100.41 2294.86 1103.97 Q2293.05 1107.51 2293.05 1114.64 Q2293.05 1121.75 2294.86 1125.32 Q2296.69 1128.86 2300.3 1128.86 Q2303.93 1128.86 2305.74 1125.32 Q2307.57 1121.75 2307.57 1114.64 Q2307.57 1107.51 2305.74 1103.97 Q2303.93 1100.41 2300.3 1100.41 M2300.3 1096.7 Q2306.11 1096.7 2309.16 1101.31 Q2312.24 1105.89 2312.24 1114.64 Q2312.24 1123.37 2309.16 1127.98 Q2306.11 1132.56 2300.3 1132.56 Q2294.49 1132.56 2291.41 1127.98 Q2288.35 1123.37 2288.35 1114.64 Q2288.35 1105.89 2291.41 1101.31 Q2294.49 1096.7 2300.3 1096.7 Z" fill="#000000" fill-rule="nonzero" fill-opacity="1" /><path clip-path="url(#clip420)" d="M2539.41 1100.41 Q2535.8 1100.41 2533.97 1103.97 Q2532.16 1107.51 2532.16 1114.64 Q2532.16 1121.75 2533.97 1125.32 Q2535.8 1128.86 2539.41 1128.86 Q2543.04 1128.86 2544.85 1125.32 Q2546.68 1121.75 2546.68 1114.64 Q2546.68 1107.51 2544.85 1103.97 Q2543.04 1100.41 2539.41 1100.41 M2539.41 1096.7 Q2545.22 1096.7 2548.27 1101.31 Q2551.35 1105.89 2551.35 1114.64 Q2551.35 1123.37 2548.27 1127.98 Q2545.22 1132.56 2539.41 1132.56 Q2533.6 1132.56 2530.52 1127.98 Q2527.46 1123.37 2527.46 1114.64 Q2527.46 1105.89 2530.52 1101.31 Q2533.6 1096.7 2539.41 1096.7 Z" fill="#000000" fill-rule="nonzero" fill-opacity="1" /><path clip-path="url(#clip420)" d="M2559.57 1126.01 L2564.45 1126.01 L2564.45 1131.89 L2559.57 1131.89 L2559.57 1126.01 Z" fill="#000000" fill-rule="nonzero" fill-opacity="1" /><path clip-path="url(#clip420)" d="M2575.45 1127.95 L2583.09 1127.95 L2583.09 1101.59 L2574.78 1103.26 L2574.78 1099 L2583.04 1097.33 L2587.72 1097.33 L2587.72 1127.95 L2595.36 1127.95 L2595.36 1131.89 L2575.45 1131.89 L2575.45 1127.95 Z" fill="#000000" fill-rule="nonzero" fill-opacity="1" /><path clip-path="url(#clip420)" d="M2604.85 1097.33 L2623.2 1097.33 L2623.2 1101.27 L2609.13 1101.27 L2609.13 1109.74 Q2610.15 1109.39 2611.17 1109.23 Q2612.18 1109.04 2613.2 1109.04 Q2618.99 1109.04 2622.37 1112.21 Q2625.75 1115.39 2625.75 1120.8 Q2625.75 1126.38 2622.28 1129.48 Q2618.8 1132.56 2612.49 1132.56 Q2610.31 1132.56 2608.04 1132.19 Q2605.8 1131.82 2603.39 1131.08 L2603.39 1126.38 Q2605.47 1127.51 2607.69 1128.07 Q2609.92 1128.63 2612.39 1128.63 Q2616.4 1128.63 2618.74 1126.52 Q2621.07 1124.41 2621.07 1120.8 Q2621.07 1117.19 2618.74 1115.08 Q2616.4 1112.98 2612.39 1112.98 Q2610.52 1112.98 2608.64 1113.39 Q2606.79 1113.81 2604.85 1114.69 L2604.85 1097.33 Z" fill="#000000" fill-rule="nonzero" fill-opacity="1" /><path clip-path="url(#clip420)" d="M2852.92 1100.41 Q2849.3 1100.41 2847.48 1103.97 Q2845.67 1107.51 2845.67 1114.64 Q2845.67 1121.75 2847.48 1125.32 Q2849.3 1128.86 2852.92 1128.86 Q2856.55 1128.86 2858.35 1125.32 Q2860.18 1121.75 2860.18 1114.64 Q2860.18 1107.51 2858.35 1103.97 Q2856.55 1100.41 2852.92 1100.41 M2852.92 1096.7 Q2858.73 1096.7 2861.78 1101.31 Q2864.86 1105.89 2864.86 1114.64 Q2864.86 1123.37 2861.78 1127.98 Q2858.73 1132.56 2852.92 1132.56 Q2847.1 1132.56 2844.03 1127.98 Q2840.97 1123.37 2840.97 1114.64 Q2840.97 1105.89 2844.03 1101.31 Q2847.1 1096.7 2852.92 1096.7 Z" fill="#000000" fill-rule="nonzero" fill-opacity="1" /><path clip-path="url(#clip420)" d="M2873.08 1126.01 L2877.96 1126.01 L2877.96 1131.89 L2873.08 1131.89 L2873.08 1126.01 Z" fill="#000000" fill-rule="nonzero" fill-opacity="1" /><path clip-path="url(#clip420)" d="M2892.17 1127.95 L2908.49 1127.95 L2908.49 1131.89 L2886.55 1131.89 L2886.55 1127.95 Q2889.21 1125.2 2893.79 1120.57 Q2898.4 1115.92 2899.58 1114.58 Q2901.83 1112.05 2902.71 1110.32 Q2903.61 1108.56 2903.61 1106.87 Q2903.61 1104.11 2901.66 1102.38 Q2899.74 1100.64 2896.64 1100.64 Q2894.44 1100.64 2891.99 1101.4 Q2889.56 1102.17 2886.78 1103.72 L2886.78 1099 Q2889.6 1097.86 2892.06 1097.28 Q2894.51 1096.7 2896.55 1096.7 Q2901.92 1096.7 2905.11 1099.39 Q2908.31 1102.08 2908.31 1106.57 Q2908.31 1108.7 2907.5 1110.62 Q2906.71 1112.51 2904.6 1115.11 Q2904.03 1115.78 2900.92 1119 Q2897.82 1122.19 2892.17 1127.95 Z" fill="#000000" fill-rule="nonzero" fill-opacity="1" /><path clip-path="url(#clip420)" d="M2928.31 1100.41 Q2924.7 1100.41 2922.87 1103.97 Q2921.06 1107.51 2921.06 1114.64 Q2921.06 1121.75 2922.87 1125.32 Q2924.7 1128.86 2928.31 1128.86 Q2931.94 1128.86 2933.75 1125.32 Q2935.58 1121.75 2935.58 1114.64 Q2935.58 1107.51 2933.75 1103.97 Q2931.94 1100.41 2928.31 1100.41 M2928.31 1096.7 Q2934.12 1096.7 2937.17 1101.31 Q2940.25 1105.89 2940.25 1114.64 Q2940.25 1123.37 2937.17 1127.98 Q2934.12 1132.56 2928.31 1132.56 Q2922.5 1132.56 2919.42 1127.98 Q2916.36 1123.37 2916.36 1114.64 Q2916.36 1105.89 2919.42 1101.31 Q2922.5 1096.7 2928.31 1096.7 Z" fill="#000000" fill-rule="nonzero" fill-opacity="1" /><path clip-path="url(#clip420)" d="M2475.07 1189.91 L2482.87 1211.93 L2494.01 1184.31 L2500.21 1184.31 L2485.79 1219.95 L2485.79 1233.51 L2479.94 1233.51 L2479.94 1219.95 L2470.58 1193.35 Q2469.18 1189.33 2466.16 1189.33 L2464.6 1189.33 L2464.6 1184.31 L2466.82 1184.31 Q2473.09 1184.31 2475.07 1189.91 Z" fill="#000000" fill-rule="nonzero" fill-opacity="1" /><polyline clip-path="url(#clip420)" style="stroke:#000000; stroke-linecap:round; stroke-linejoin:round; stroke-width:4; stroke-opacity:1; fill:none" points="1812.05,1063.09 1812.05,97.0121 "/>
<polyline clip-path="url(#clip420)" style="stroke:#000000; stroke-linecap:round; stroke-linejoin:round; stroke-width:4; stroke-opacity:1; fill:none" points="1812.05,1063.09 1830.95,1063.09 "/>
<polyline clip-path="url(#clip420)" style="stroke:#000000; stroke-linecap:round; stroke-linejoin:round; stroke-width:4; stroke-opacity:1; fill:none" points="1812.05,894.588 1830.95,894.588 "/>
<polyline clip-path="url(#clip420)" style="stroke:#000000; stroke-linecap:round; stroke-linejoin:round; stroke-width:4; stroke-opacity:1; fill:none" points="1812.05,726.086 1830.95,726.086 "/>
<polyline clip-path="url(#clip420)" style="stroke:#000000; stroke-linecap:round; stroke-linejoin:round; stroke-width:4; stroke-opacity:1; fill:none" points="1812.05,557.584 1830.95,557.584 "/>
<polyline clip-path="url(#clip420)" style="stroke:#000000; stroke-linecap:round; stroke-linejoin:round; stroke-width:4; stroke-opacity:1; fill:none" points="1812.05,389.082 1830.95,389.082 "/>
<polyline clip-path="url(#clip420)" style="stroke:#000000; stroke-linecap:round; stroke-linejoin:round; stroke-width:4; stroke-opacity:1; fill:none" points="1812.05,220.58 1830.95,220.58 "/>
<path clip-path="url(#clip420)" d="M1706.88 1048.89 Q1703.27 1048.89 1701.44 1052.45 Q1699.63 1055.99 1699.63 1063.12 Q1699.63 1070.23 1701.44 1073.8 Q1703.27 1077.34 1706.88 1077.34 Q1710.51 1077.34 1712.32 1073.8 Q1714.15 1070.23 1714.15 1063.12 Q1714.15 1055.99 1712.32 1052.45 Q1710.51 1048.89 1706.88 1048.89 M1706.88 1045.18 Q1712.69 1045.18 1715.74 1049.79 Q1718.82 1054.37 1718.82 1063.12 Q1718.82 1071.85 1715.74 1076.46 Q1712.69 1081.04 1706.88 1081.04 Q1701.07 1081.04 1697.99 1076.46 Q1694.93 1071.85 1694.93 1063.12 Q1694.93 1054.37 1697.99 1049.79 Q1701.07 1045.18 1706.88 1045.18 Z" fill="#000000" fill-rule="nonzero" fill-opacity="1" /><path clip-path="url(#clip420)" d="M1727.04 1074.49 L1731.92 1074.49 L1731.92 1080.37 L1727.04 1080.37 L1727.04 1074.49 Z" fill="#000000" fill-rule="nonzero" fill-opacity="1" /><path clip-path="url(#clip420)" d="M1752.11 1048.89 Q1748.5 1048.89 1746.67 1052.45 Q1744.86 1055.99 1744.86 1063.12 Q1744.86 1070.23 1746.67 1073.8 Q1748.5 1077.34 1752.11 1077.34 Q1755.74 1077.34 1757.55 1073.8 Q1759.38 1070.23 1759.38 1063.12 Q1759.38 1055.99 1757.55 1052.45 Q1755.74 1048.89 1752.11 1048.89 M1752.11 1045.18 Q1757.92 1045.18 1760.97 1049.79 Q1764.05 1054.37 1764.05 1063.12 Q1764.05 1071.85 1760.97 1076.46 Q1757.92 1081.04 1752.11 1081.04 Q1746.3 1081.04 1743.22 1076.46 Q1740.16 1071.85 1740.16 1063.12 Q1740.16 1054.37 1743.22 1049.79 Q1746.3 1045.18 1752.11 1045.18 Z" fill="#000000" fill-rule="nonzero" fill-opacity="1" /><path clip-path="url(#clip420)" d="M1701.9 907.933 L1718.22 907.933 L1718.22 911.868 L1696.28 911.868 L1696.28 907.933 Q1698.94 905.178 1703.52 900.549 Q1708.13 895.896 1709.31 894.553 Q1711.55 892.03 1712.43 890.294 Q1713.34 888.535 1713.34 886.845 Q1713.34 884.09 1711.39 882.354 Q1709.47 880.618 1706.37 880.618 Q1704.17 880.618 1701.72 881.382 Q1699.28 882.146 1696.51 883.697 L1696.51 878.975 Q1699.33 877.84 1701.78 877.262 Q1704.24 876.683 1706.28 876.683 Q1711.65 876.683 1714.84 879.368 Q1718.03 882.053 1718.03 886.544 Q1718.03 888.674 1717.22 890.595 Q1716.44 892.493 1714.33 895.086 Q1713.75 895.757 1710.65 898.974 Q1707.55 902.169 1701.9 907.933 Z" fill="#000000" fill-rule="nonzero" fill-opacity="1" /><path clip-path="url(#clip420)" d="M1728.03 905.988 L1732.92 905.988 L1732.92 911.868 L1728.03 911.868 L1728.03 905.988 Z" fill="#000000" fill-rule="nonzero" fill-opacity="1" /><path clip-path="url(#clip420)" d="M1743.15 877.308 L1761.51 877.308 L1761.51 881.243 L1747.43 881.243 L1747.43 889.715 Q1748.45 889.368 1749.47 889.206 Q1750.49 889.021 1751.51 889.021 Q1757.29 889.021 1760.67 892.192 Q1764.05 895.363 1764.05 900.78 Q1764.05 906.359 1760.58 909.461 Q1757.11 912.539 1750.79 912.539 Q1748.61 912.539 1746.34 912.169 Q1744.1 911.798 1741.69 911.058 L1741.69 906.359 Q1743.78 907.493 1746 908.048 Q1748.22 908.604 1750.7 908.604 Q1754.7 908.604 1757.04 906.498 Q1759.38 904.391 1759.38 900.78 Q1759.38 897.169 1757.04 895.062 Q1754.7 892.956 1750.7 892.956 Q1748.82 892.956 1746.95 893.373 Q1745.09 893.789 1743.15 894.669 L1743.15 877.308 Z" fill="#000000" fill-rule="nonzero" fill-opacity="1" /><path clip-path="url(#clip420)" d="M1696.92 708.806 L1715.28 708.806 L1715.28 712.741 L1701.21 712.741 L1701.21 721.213 Q1702.22 720.866 1703.24 720.704 Q1704.26 720.519 1705.28 720.519 Q1711.07 720.519 1714.45 723.69 Q1717.83 726.861 1717.83 732.278 Q1717.83 737.857 1714.35 740.959 Q1710.88 744.037 1704.56 744.037 Q1702.39 744.037 1700.12 743.667 Q1697.87 743.297 1695.47 742.556 L1695.47 737.857 Q1697.55 738.991 1699.77 739.547 Q1701.99 740.102 1704.47 740.102 Q1708.47 740.102 1710.81 737.996 Q1713.15 735.889 1713.15 732.278 Q1713.15 728.667 1710.81 726.561 Q1708.47 724.454 1704.47 724.454 Q1702.6 724.454 1700.72 724.871 Q1698.87 725.287 1696.92 726.167 L1696.92 708.806 Z" fill="#000000" fill-rule="nonzero" fill-opacity="1" /><path clip-path="url(#clip420)" d="M1727.04 737.486 L1731.92 737.486 L1731.92 743.366 L1727.04 743.366 L1727.04 737.486 Z" fill="#000000" fill-rule="nonzero" fill-opacity="1" /><path clip-path="url(#clip420)" d="M1752.11 711.885 Q1748.5 711.885 1746.67 715.449 Q1744.86 718.991 1744.86 726.121 Q1744.86 733.227 1746.67 736.792 Q1748.5 740.334 1752.11 740.334 Q1755.74 740.334 1757.55 736.792 Q1759.38 733.227 1759.38 726.121 Q1759.38 718.991 1757.55 715.449 Q1755.74 711.885 1752.11 711.885 M1752.11 708.181 Q1757.92 708.181 1760.97 712.787 Q1764.05 717.371 1764.05 726.121 Q1764.05 734.848 1760.97 739.454 Q1757.92 744.037 1752.11 744.037 Q1746.3 744.037 1743.22 739.454 Q1740.16 734.848 1740.16 726.121 Q1740.16 717.371 1743.22 712.787 Q1746.3 708.181 1752.11 708.181 Z" fill="#000000" fill-rule="nonzero" fill-opacity="1" /><path clip-path="url(#clip420)" d="M1696.69 540.304 L1718.91 540.304 L1718.91 542.295 L1706.37 574.864 L1701.48 574.864 L1713.29 544.239 L1696.69 544.239 L1696.69 540.304 Z" fill="#000000" fill-rule="nonzero" fill-opacity="1" /><path clip-path="url(#clip420)" d="M1728.03 568.984 L1732.92 568.984 L1732.92 574.864 L1728.03 574.864 L1728.03 568.984 Z" fill="#000000" fill-rule="nonzero" fill-opacity="1" /><path clip-path="url(#clip420)" d="M1743.15 540.304 L1761.51 540.304 L1761.51 544.239 L1747.43 544.239 L1747.43 552.711 Q1748.45 552.364 1749.47 552.202 Q1750.49 552.017 1751.51 552.017 Q1757.29 552.017 1760.67 555.188 Q1764.05 558.36 1764.05 563.776 Q1764.05 569.355 1760.58 572.457 Q1757.11 575.535 1750.79 575.535 Q1748.61 575.535 1746.34 575.165 Q1744.1 574.795 1741.69 574.054 L1741.69 569.355 Q1743.78 570.489 1746 571.045 Q1748.22 571.6 1750.7 571.6 Q1754.7 571.6 1757.04 569.494 Q1759.38 567.387 1759.38 563.776 Q1759.38 560.165 1757.04 558.059 Q1754.7 555.952 1750.7 555.952 Q1748.82 555.952 1746.95 556.369 Q1745.09 556.785 1743.15 557.665 L1743.15 540.304 Z" fill="#000000" fill-rule="nonzero" fill-opacity="1" /><path clip-path="url(#clip420)" d="M1667.53 402.427 L1675.16 402.427 L1675.16 376.061 L1666.85 377.728 L1666.85 373.469 L1675.12 371.802 L1679.79 371.802 L1679.79 402.427 L1687.43 402.427 L1687.43 406.362 L1667.53 406.362 L1667.53 402.427 Z" fill="#000000" fill-rule="nonzero" fill-opacity="1" /><path clip-path="url(#clip420)" d="M1706.88 374.881 Q1703.27 374.881 1701.44 378.446 Q1699.63 381.987 1699.63 389.117 Q1699.63 396.223 1701.44 399.788 Q1703.27 403.33 1706.88 403.33 Q1710.51 403.33 1712.32 399.788 Q1714.15 396.223 1714.15 389.117 Q1714.15 381.987 1712.32 378.446 Q1710.51 374.881 1706.88 374.881 M1706.88 371.177 Q1712.69 371.177 1715.74 375.784 Q1718.82 380.367 1718.82 389.117 Q1718.82 397.844 1715.74 402.45 Q1712.69 407.033 1706.88 407.033 Q1701.07 407.033 1697.99 402.45 Q1694.93 397.844 1694.93 389.117 Q1694.93 380.367 1697.99 375.784 Q1701.07 371.177 1706.88 371.177 Z" fill="#000000" fill-rule="nonzero" fill-opacity="1" /><path clip-path="url(#clip420)" d="M1727.04 400.483 L1731.92 400.483 L1731.92 406.362 L1727.04 406.362 L1727.04 400.483 Z" fill="#000000" fill-rule="nonzero" fill-opacity="1" /><path clip-path="url(#clip420)" d="M1752.11 374.881 Q1748.5 374.881 1746.67 378.446 Q1744.86 381.987 1744.86 389.117 Q1744.86 396.223 1746.67 399.788 Q1748.5 403.33 1752.11 403.33 Q1755.74 403.33 1757.55 399.788 Q1759.38 396.223 1759.38 389.117 Q1759.38 381.987 1757.55 378.446 Q1755.74 374.881 1752.11 374.881 M1752.11 371.177 Q1757.92 371.177 1760.97 375.784 Q1764.05 380.367 1764.05 389.117 Q1764.05 397.844 1760.97 402.45 Q1757.92 407.033 1752.11 407.033 Q1746.3 407.033 1743.22 402.45 Q1740.16 397.844 1740.16 389.117 Q1740.16 380.367 1743.22 375.784 Q1746.3 371.177 1752.11 371.177 Z" fill="#000000" fill-rule="nonzero" fill-opacity="1" /><path clip-path="url(#clip420)" d="M1668.52 233.925 L1676.16 233.925 L1676.16 207.559 L1667.85 209.226 L1667.85 204.967 L1676.11 203.3 L1680.79 203.3 L1680.79 233.925 L1688.43 233.925 L1688.43 237.86 L1668.52 237.86 L1668.52 233.925 Z" fill="#000000" fill-rule="nonzero" fill-opacity="1" /><path clip-path="url(#clip420)" d="M1701.9 233.925 L1718.22 233.925 L1718.22 237.86 L1696.28 237.86 L1696.28 233.925 Q1698.94 231.17 1703.52 226.541 Q1708.13 221.888 1709.31 220.545 Q1711.55 218.022 1712.43 216.286 Q1713.34 214.527 1713.34 212.837 Q1713.34 210.083 1711.39 208.346 Q1709.47 206.61 1706.37 206.61 Q1704.17 206.61 1701.72 207.374 Q1699.28 208.138 1696.51 209.689 L1696.51 204.967 Q1699.33 203.833 1701.78 203.254 Q1704.24 202.675 1706.28 202.675 Q1711.65 202.675 1714.84 205.36 Q1718.03 208.046 1718.03 212.536 Q1718.03 214.666 1717.22 216.587 Q1716.44 218.485 1714.33 221.078 Q1713.75 221.749 1710.65 224.967 Q1707.55 228.161 1701.9 233.925 Z" fill="#000000" fill-rule="nonzero" fill-opacity="1" /><path clip-path="url(#clip420)" d="M1728.03 231.981 L1732.92 231.981 L1732.92 237.86 L1728.03 237.86 L1728.03 231.981 Z" fill="#000000" fill-rule="nonzero" fill-opacity="1" /><path clip-path="url(#clip420)" d="M1743.15 203.3 L1761.51 203.3 L1761.51 207.235 L1747.43 207.235 L1747.43 215.708 Q1748.45 215.36 1749.47 215.198 Q1750.49 215.013 1751.51 215.013 Q1757.29 215.013 1760.67 218.184 Q1764.05 221.356 1764.05 226.772 Q1764.05 232.351 1760.58 235.453 Q1757.11 238.531 1750.79 238.531 Q1748.61 238.531 1746.34 238.161 Q1744.1 237.791 1741.69 237.05 L1741.69 232.351 Q1743.78 233.485 1746 234.041 Q1748.22 234.596 1750.7 234.596 Q1754.7 234.596 1757.04 232.49 Q1759.38 230.383 1759.38 226.772 Q1759.38 223.161 1757.04 221.055 Q1754.7 218.948 1750.7 218.948 Q1748.82 218.948 1746.95 219.365 Q1745.09 219.782 1743.15 220.661 L1743.15 203.3 Z" fill="#000000" fill-rule="nonzero" fill-opacity="1" /><path clip-path="url(#clip420)" d="M1562.36 693.361 L1599.32 693.361 L1599.32 685.594 Q1599.32 675.759 1594.86 671.208 Q1590.4 666.625 1580.79 666.625 Q1571.24 666.625 1566.82 671.208 Q1562.36 675.759 1562.36 685.594 L1562.36 693.361 M1557.08 699.79 L1557.08 686.581 Q1557.08 672.768 1562.84 666.306 Q1568.57 659.845 1580.79 659.845 Q1593.08 659.845 1598.84 666.338 Q1604.6 672.831 1604.6 686.581 L1604.6 699.79 L1557.08 699.79 Z" fill="#000000" fill-rule="nonzero" fill-opacity="1" /><path clip-path="url(#clip420)" d="M1585.31 619.359 L1588.18 619.359 L1588.18 646.286 Q1594.22 645.904 1597.41 642.658 Q1600.56 639.379 1600.56 633.555 Q1600.56 630.181 1599.73 627.03 Q1598.9 623.847 1597.25 620.728 L1602.78 620.728 Q1604.12 623.879 1604.82 627.189 Q1605.52 630.499 1605.52 633.905 Q1605.52 642.435 1600.56 647.432 Q1595.59 652.397 1587.12 652.397 Q1578.37 652.397 1573.25 647.687 Q1568.09 642.944 1568.09 634.923 Q1568.09 627.73 1572.74 623.561 Q1577.35 619.359 1585.31 619.359 M1583.59 625.216 Q1578.79 625.279 1575.92 627.921 Q1573.06 630.531 1573.06 634.86 Q1573.06 639.761 1575.83 642.721 Q1578.59 645.65 1583.62 646.095 L1583.59 625.216 Z" fill="#000000" fill-rule="nonzero" fill-opacity="1" /><path clip-path="url(#clip420)" d="M1583.08 580.115 L1604.6 580.115 L1604.6 585.971 L1583.27 585.971 Q1578.21 585.971 1575.7 587.944 Q1573.18 589.918 1573.18 593.865 Q1573.18 598.607 1576.21 601.344 Q1579.23 604.082 1584.45 604.082 L1604.6 604.082 L1604.6 609.97 L1568.95 609.97 L1568.95 604.082 L1574.49 604.082 Q1571.27 601.981 1569.68 599.148 Q1568.09 596.284 1568.09 592.56 Q1568.09 586.417 1571.91 583.266 Q1575.7 580.115 1583.08 580.115 Z" fill="#000000" fill-rule="nonzero" fill-opacity="1" /><path clip-path="url(#clip420)" d="M1570 545.708 L1575.54 545.708 Q1574.27 548.191 1573.63 550.864 Q1572.99 553.538 1572.99 556.402 Q1572.99 560.763 1574.33 562.959 Q1575.67 565.123 1578.34 565.123 Q1580.38 565.123 1581.55 563.564 Q1582.7 562.004 1583.75 557.294 L1584.2 555.288 Q1585.53 549.05 1587.98 546.44 Q1590.4 543.798 1594.76 543.798 Q1599.73 543.798 1602.63 547.745 Q1605.52 551.66 1605.52 558.535 Q1605.52 561.399 1604.95 564.519 Q1604.41 567.606 1603.29 571.044 L1597.25 571.044 Q1598.93 567.797 1599.79 564.646 Q1600.62 561.495 1600.62 558.408 Q1600.62 554.27 1599.22 552.042 Q1597.79 549.814 1595.21 549.814 Q1592.82 549.814 1591.55 551.437 Q1590.28 553.029 1589.1 558.471 L1588.62 560.508 Q1587.47 565.951 1585.12 568.37 Q1582.73 570.789 1578.59 570.789 Q1573.57 570.789 1570.83 567.224 Q1568.09 563.659 1568.09 557.103 Q1568.09 553.856 1568.57 550.992 Q1569.05 548.127 1570 545.708 Z" fill="#000000" fill-rule="nonzero" fill-opacity="1" /><path clip-path="url(#clip420)" d="M1568.95 534.473 L1568.95 528.616 L1604.6 528.616 L1604.6 534.473 L1568.95 534.473 M1555.07 534.473 L1555.07 528.616 L1562.49 528.616 L1562.49 534.473 L1555.07 534.473 Z" fill="#000000" fill-rule="nonzero" fill-opacity="1" /><path clip-path="url(#clip420)" d="M1558.83 510.569 L1568.95 510.569 L1568.95 498.506 L1573.5 498.506 L1573.5 510.569 L1592.85 510.569 Q1597.21 510.569 1598.46 509.392 Q1599.7 508.182 1599.7 504.522 L1599.7 498.506 L1604.6 498.506 L1604.6 504.522 Q1604.6 511.301 1602.08 513.879 Q1599.54 516.458 1592.85 516.458 L1573.5 516.458 L1573.5 520.754 L1568.95 520.754 L1568.95 516.458 L1558.83 516.458 L1558.83 510.569 Z" fill="#000000" fill-rule="nonzero" fill-opacity="1" /><path clip-path="url(#clip420)" d="M1607.91 475.972 Q1614.27 478.454 1616.22 480.81 Q1618.16 483.165 1618.16 487.112 L1618.16 491.79 L1613.26 491.79 L1613.26 488.353 Q1613.26 485.934 1612.11 484.597 Q1610.96 483.26 1606.7 481.637 L1604.03 480.587 L1568.95 495.005 L1568.95 488.799 L1596.83 477.659 L1568.95 466.519 L1568.95 460.312 L1607.91 475.972 Z" fill="#000000" fill-rule="nonzero" fill-opacity="1" /><path clip-path="url(#clip420)" d="M2261.59 18.8205 L2261.59 41.5461 L2271.88 41.5461 Q2277.59 41.5461 2280.71 38.5889 Q2283.83 35.6318 2283.83 30.163 Q2283.83 24.7348 2280.71 21.7777 Q2277.59 18.8205 2271.88 18.8205 L2261.59 18.8205 M2253.41 12.096 L2271.88 12.096 Q2282.05 12.096 2287.23 16.714 Q2292.46 21.2916 2292.46 30.163 Q2292.46 39.1155 2287.23 43.6931 Q2282.05 48.2706 2271.88 48.2706 L2261.59 48.2706 L2261.59 72.576 L2253.41 72.576 L2253.41 12.096 Z" fill="#000000" fill-rule="nonzero" fill-opacity="1" /><path clip-path="url(#clip420)" d="M2317.74 32.4315 Q2311.74 32.4315 2308.26 37.1306 Q2304.77 41.7891 2304.77 49.9314 Q2304.77 58.0738 2308.22 62.7728 Q2311.7 67.4314 2317.74 67.4314 Q2323.69 67.4314 2327.17 62.7323 Q2330.66 58.0333 2330.66 49.9314 Q2330.66 41.8701 2327.17 37.1711 Q2323.69 32.4315 2317.74 32.4315 M2317.74 26.1121 Q2327.46 26.1121 2333.01 32.4315 Q2338.56 38.7509 2338.56 49.9314 Q2338.56 61.0714 2333.01 67.4314 Q2327.46 73.7508 2317.74 73.7508 Q2307.97 73.7508 2302.42 67.4314 Q2296.91 61.0714 2296.91 49.9314 Q2296.91 38.7509 2302.42 32.4315 Q2307.97 26.1121 2317.74 26.1121 Z" fill="#000000" fill-rule="nonzero" fill-opacity="1" /><path clip-path="url(#clip420)" d="M2379.84 28.5427 L2379.84 35.5912 Q2376.68 33.9709 2373.27 33.1607 Q2369.87 32.3505 2366.22 32.3505 Q2360.67 32.3505 2357.88 34.0519 Q2355.13 35.7533 2355.13 39.156 Q2355.13 41.7486 2357.11 43.2475 Q2359.09 44.7058 2365.09 46.0426 L2367.64 46.6097 Q2375.58 48.3111 2378.9 51.4303 Q2382.27 54.509 2382.27 60.0587 Q2382.27 66.3781 2377.24 70.0644 Q2372.26 73.7508 2363.51 73.7508 Q2359.86 73.7508 2355.89 73.0216 Q2351.97 72.3329 2347.59 70.9151 L2347.59 63.2184 Q2351.72 65.3654 2355.73 66.4591 Q2359.74 67.5124 2363.67 67.5124 Q2368.94 67.5124 2371.77 65.73 Q2374.61 63.9071 2374.61 60.6258 Q2374.61 57.5877 2372.54 55.9673 Q2370.52 54.3469 2363.59 52.8481 L2361 52.2405 Q2354.07 50.7821 2350.99 47.7845 Q2347.91 44.7463 2347.91 39.4801 Q2347.91 33.0797 2352.45 29.5959 Q2356.99 26.1121 2365.33 26.1121 Q2369.47 26.1121 2373.11 26.7198 Q2376.76 27.3274 2379.84 28.5427 Z" fill="#000000" fill-rule="nonzero" fill-opacity="1" /><path clip-path="url(#clip420)" d="M2401.51 14.324 L2401.51 27.2059 L2416.86 27.2059 L2416.86 32.9987 L2401.51 32.9987 L2401.51 57.6282 Q2401.51 63.1779 2403.01 64.7578 Q2404.55 66.3376 2409.2 66.3376 L2416.86 66.3376 L2416.86 72.576 L2409.2 72.576 Q2400.58 72.576 2397.3 69.3758 Q2394.01 66.1351 2394.01 57.6282 L2394.01 32.9987 L2388.55 32.9987 L2388.55 27.2059 L2394.01 27.2059 L2394.01 14.324 L2401.51 14.324 Z" fill="#000000" fill-rule="nonzero" fill-opacity="1" /><path clip-path="url(#clip420)" d="M2465.47 48.0275 L2465.47 51.6733 L2431.2 51.6733 Q2431.69 59.3701 2435.82 63.421 Q2439.99 67.4314 2447.4 67.4314 Q2451.7 67.4314 2455.71 66.3781 Q2459.76 65.3249 2463.73 63.2184 L2463.73 70.267 Q2459.72 71.9684 2455.51 72.8596 Q2451.29 73.7508 2446.96 73.7508 Q2436.1 73.7508 2429.74 67.4314 Q2423.42 61.1119 2423.42 50.3365 Q2423.42 39.1965 2429.42 32.6746 Q2435.45 26.1121 2445.66 26.1121 Q2454.82 26.1121 2460.12 32.0264 Q2465.47 37.9003 2465.47 48.0275 M2458.02 45.84 Q2457.94 39.7232 2454.57 36.0774 Q2451.25 32.4315 2445.74 32.4315 Q2439.51 32.4315 2435.74 35.9558 Q2432.01 39.4801 2431.44 45.8805 L2458.02 45.84 Z" fill="#000000" fill-rule="nonzero" fill-opacity="1" /><path clip-path="url(#clip420)" d="M2504 34.1734 Q2502.74 33.4443 2501.24 33.1202 Q2499.78 32.7556 2498 32.7556 Q2491.68 32.7556 2488.28 36.8875 Q2484.92 40.9789 2484.92 48.6757 L2484.92 72.576 L2477.42 72.576 L2477.42 27.2059 L2484.92 27.2059 L2484.92 34.2544 Q2487.27 30.1225 2491.03 28.1376 Q2494.8 26.1121 2500.19 26.1121 Q2500.96 26.1121 2501.89 26.2337 Q2502.82 26.3147 2503.96 26.5172 L2504 34.1734 Z" fill="#000000" fill-rule="nonzero" fill-opacity="1" /><path clip-path="url(#clip420)" d="M2511.81 27.2059 L2519.27 27.2059 L2519.27 72.576 L2511.81 72.576 L2511.81 27.2059 M2511.81 9.54393 L2519.27 9.54393 L2519.27 18.9825 L2511.81 18.9825 L2511.81 9.54393 Z" fill="#000000" fill-rule="nonzero" fill-opacity="1" /><path clip-path="url(#clip420)" d="M2552.44 32.4315 Q2546.45 32.4315 2542.97 37.1306 Q2539.48 41.7891 2539.48 49.9314 Q2539.48 58.0738 2542.93 62.7728 Q2546.41 67.4314 2552.44 67.4314 Q2558.4 67.4314 2561.88 62.7323 Q2565.37 58.0333 2565.37 49.9314 Q2565.37 41.8701 2561.88 37.1711 Q2558.4 32.4315 2552.44 32.4315 M2552.44 26.1121 Q2562.17 26.1121 2567.72 32.4315 Q2573.27 38.7509 2573.27 49.9314 Q2573.27 61.0714 2567.72 67.4314 Q2562.17 73.7508 2552.44 73.7508 Q2542.68 73.7508 2537.13 67.4314 Q2531.62 61.0714 2531.62 49.9314 Q2531.62 38.7509 2537.13 32.4315 Q2542.68 26.1121 2552.44 26.1121 Z" fill="#000000" fill-rule="nonzero" fill-opacity="1" /><path clip-path="url(#clip420)" d="M2611.91 34.1734 Q2610.66 33.4443 2609.16 33.1202 Q2607.7 32.7556 2605.92 32.7556 Q2599.6 32.7556 2596.19 36.8875 Q2592.83 40.9789 2592.83 48.6757 L2592.83 72.576 L2585.34 72.576 L2585.34 27.2059 L2592.83 27.2059 L2592.83 34.2544 Q2595.18 30.1225 2598.95 28.1376 Q2602.72 26.1121 2608.1 26.1121 Q2608.87 26.1121 2609.81 26.2337 Q2610.74 26.3147 2611.87 26.5172 L2611.91 34.1734 Z" fill="#000000" fill-rule="nonzero" fill-opacity="1" /><path clip-path="url(#clip420)" d="M2620.18 62.2867 L2628.72 62.2867 L2628.72 72.576 L2620.18 72.576 L2620.18 62.2867 M2620.18 29.6769 L2628.72 29.6769 L2628.72 39.9662 L2620.18 39.9662 L2620.18 29.6769 Z" fill="#000000" fill-rule="nonzero" fill-opacity="1" /><path clip-path="url(#clip420)" d="M2679.4 34.3355 L2689.32 62.3677 L2703.5 27.2059 L2711.4 27.2059 L2693.05 72.576 L2693.05 89.8329 L2685.6 89.8329 L2685.6 72.576 L2673.69 38.7104 Q2671.91 33.6063 2668.06 33.6063 L2666.07 33.6063 L2666.07 27.2059 L2668.91 27.2059 Q2676.89 27.2059 2679.4 34.3355 Z" fill="#000000" fill-rule="nonzero" fill-opacity="1" /><path clip-path="url(#clip421)" d="M1885.79 1029.39 L1885.79 1063.09 L1948.6 1063.09 L1948.6 1029.39 L1885.79 1029.39 L1885.79 1029.39  Z" fill="#009af9" fill-rule="evenodd" fill-opacity="1"/>
<polyline clip-path="url(#clip421)" style="stroke:#000000; stroke-linecap:round; stroke-linejoin:round; stroke-width:4; stroke-opacity:1; fill:none" points="1885.79,1029.39 1885.79,1063.09 1948.6,1063.09 1948.6,1029.39 1885.79,1029.39 "/>
<path clip-path="url(#clip421)" d="M1948.6 961.989 L1948.6 1063.09 L2011.4 1063.09 L2011.4 961.989 L1948.6 961.989 L1948.6 961.989  Z" fill="#009af9" fill-rule="evenodd" fill-opacity="1"/>
<polyline clip-path="url(#clip421)" style="stroke:#000000; stroke-linecap:round; stroke-linejoin:round; stroke-width:4; stroke-opacity:1; fill:none" points="1948.6,961.989 1948.6,1063.09 2011.4,1063.09 2011.4,961.989 1948.6,961.989 "/>
<path clip-path="url(#clip421)" d="M2011.4 653.068 L2011.4 1063.09 L2074.2 1063.09 L2074.2 653.068 L2011.4 653.068 L2011.4 653.068  Z" fill="#009af9" fill-rule="evenodd" fill-opacity="1"/>
<polyline clip-path="url(#clip421)" style="stroke:#000000; stroke-linecap:round; stroke-linejoin:round; stroke-width:4; stroke-opacity:1; fill:none" points="2011.4,653.068 2011.4,1063.09 2074.2,1063.09 2074.2,653.068 2011.4,653.068 "/>
<path clip-path="url(#clip421)" d="M2074.2 664.302 L2074.2 1063.09 L2137 1063.09 L2137 664.302 L2074.2 664.302 L2074.2 664.302  Z" fill="#009af9" fill-rule="evenodd" fill-opacity="1"/>
<polyline clip-path="url(#clip421)" style="stroke:#000000; stroke-linecap:round; stroke-linejoin:round; stroke-width:4; stroke-opacity:1; fill:none" points="2074.2,664.302 2074.2,1063.09 2137,1063.09 2137,664.302 2074.2,664.302 "/>
<path clip-path="url(#clip421)" d="M2137 276.748 L2137 1063.09 L2199.8 1063.09 L2199.8 276.748 L2137 276.748 L2137 276.748  Z" fill="#009af9" fill-rule="evenodd" fill-opacity="1"/>
<polyline clip-path="url(#clip421)" style="stroke:#000000; stroke-linecap:round; stroke-linejoin:round; stroke-width:4; stroke-opacity:1; fill:none" points="2137,276.748 2137,1063.09 2199.8,1063.09 2199.8,276.748 2137,276.748 "/>
<path clip-path="url(#clip421)" d="M2199.8 355.382 L2199.8 1063.09 L2262.6 1063.09 L2262.6 355.382 L2199.8 355.382 L2199.8 355.382  Z" fill="#009af9" fill-rule="evenodd" fill-opacity="1"/>
<polyline clip-path="url(#clip421)" style="stroke:#000000; stroke-linecap:round; stroke-linejoin:round; stroke-width:4; stroke-opacity:1; fill:none" points="2199.8,355.382 2199.8,1063.09 2262.6,1063.09 2262.6,355.382 2199.8,355.382 "/>
<path clip-path="url(#clip421)" d="M2262.6 97.0121 L2262.6 1063.09 L2325.4 1063.09 L2325.4 97.0121 L2262.6 97.0121 L2262.6 97.0121  Z" fill="#009af9" fill-rule="evenodd" fill-opacity="1"/>
<polyline clip-path="url(#clip421)" style="stroke:#000000; stroke-linecap:round; stroke-linejoin:round; stroke-width:4; stroke-opacity:1; fill:none" points="2262.6,97.0121 2262.6,1063.09 2325.4,1063.09 2325.4,97.0121 2262.6,97.0121 "/>
<path clip-path="url(#clip421)" d="M2325.4 299.214 L2325.4 1063.09 L2388.2 1063.09 L2388.2 299.214 L2325.4 299.214 L2325.4 299.214  Z" fill="#009af9" fill-rule="evenodd" fill-opacity="1"/>
<polyline clip-path="url(#clip421)" style="stroke:#000000; stroke-linecap:round; stroke-linejoin:round; stroke-width:4; stroke-opacity:1; fill:none" points="2325.4,299.214 2325.4,1063.09 2388.2,1063.09 2388.2,299.214 2325.4,299.214 "/>
<path clip-path="url(#clip421)" d="M2388.2 153.179 L2388.2 1063.09 L2451 1063.09 L2451 153.179 L2388.2 153.179 L2388.2 153.179  Z" fill="#009af9" fill-rule="evenodd" fill-opacity="1"/>
<polyline clip-path="url(#clip421)" style="stroke:#000000; stroke-linecap:round; stroke-linejoin:round; stroke-width:4; stroke-opacity:1; fill:none" points="2388.2,153.179 2388.2,1063.09 2451,1063.09 2451,153.179 2388.2,153.179 "/>
<path clip-path="url(#clip421)" d="M2451 698.002 L2451 1063.09 L2513.81 1063.09 L2513.81 698.002 L2451 698.002 L2451 698.002  Z" fill="#009af9" fill-rule="evenodd" fill-opacity="1"/>
<polyline clip-path="url(#clip421)" style="stroke:#000000; stroke-linecap:round; stroke-linejoin:round; stroke-width:4; stroke-opacity:1; fill:none" points="2451,698.002 2451,1063.09 2513.81,1063.09 2513.81,698.002 2451,698.002 "/>
<path clip-path="url(#clip421)" d="M2513.81 501.417 L2513.81 1063.09 L2576.61 1063.09 L2576.61 501.417 L2513.81 501.417 L2513.81 501.417  Z" fill="#009af9" fill-rule="evenodd" fill-opacity="1"/>
<polyline clip-path="url(#clip421)" style="stroke:#000000; stroke-linecap:round; stroke-linejoin:round; stroke-width:4; stroke-opacity:1; fill:none" points="2513.81,501.417 2513.81,1063.09 2576.61,1063.09 2576.61,501.417 2513.81,501.417 "/>
<path clip-path="url(#clip421)" d="M2576.61 928.288 L2576.61 1063.09 L2639.41 1063.09 L2639.41 928.288 L2576.61 928.288 L2576.61 928.288  Z" fill="#009af9" fill-rule="evenodd" fill-opacity="1"/>
<polyline clip-path="url(#clip421)" style="stroke:#000000; stroke-linecap:round; stroke-linejoin:round; stroke-width:4; stroke-opacity:1; fill:none" points="2576.61,928.288 2576.61,1063.09 2639.41,1063.09 2639.41,928.288 2576.61,928.288 "/>
<path clip-path="url(#clip421)" d="M2639.41 900.205 L2639.41 1063.09 L2702.21 1063.09 L2702.21 900.205 L2639.41 900.205 L2639.41 900.205  Z" fill="#009af9" fill-rule="evenodd" fill-opacity="1"/>
<polyline clip-path="url(#clip421)" style="stroke:#000000; stroke-linecap:round; stroke-linejoin:round; stroke-width:4; stroke-opacity:1; fill:none" points="2639.41,900.205 2639.41,1063.09 2702.21,1063.09 2702.21,900.205 2639.41,900.205 "/>
<path clip-path="url(#clip421)" d="M2702.21 888.971 L2702.21 1063.09 L2765.01 1063.09 L2765.01 888.971 L2702.21 888.971 L2702.21 888.971  Z" fill="#009af9" fill-rule="evenodd" fill-opacity="1"/>
<polyline clip-path="url(#clip421)" style="stroke:#000000; stroke-linecap:round; stroke-linejoin:round; stroke-width:4; stroke-opacity:1; fill:none" points="2702.21,888.971 2702.21,1063.09 2765.01,1063.09 2765.01,888.971 2702.21,888.971 "/>
<path clip-path="url(#clip421)" d="M2765.01 1035.01 L2765.01 1063.09 L2827.81 1063.09 L2827.81 1035.01 L2765.01 1035.01 L2765.01 1035.01  Z" fill="#009af9" fill-rule="evenodd" fill-opacity="1"/>
<polyline clip-path="url(#clip421)" style="stroke:#000000; stroke-linecap:round; stroke-linejoin:round; stroke-width:4; stroke-opacity:1; fill:none" points="2765.01,1035.01 2765.01,1063.09 2827.81,1063.09 2827.81,1035.01 2765.01,1035.01 "/>
<path clip-path="url(#clip421)" d="M2827.81 922.672 L2827.81 1063.09 L2890.61 1063.09 L2890.61 922.672 L2827.81 922.672 L2827.81 922.672  Z" fill="#009af9" fill-rule="evenodd" fill-opacity="1"/>
<polyline clip-path="url(#clip421)" style="stroke:#000000; stroke-linecap:round; stroke-linejoin:round; stroke-width:4; stroke-opacity:1; fill:none" points="2827.81,922.672 2827.81,1063.09 2890.61,1063.09 2890.61,922.672 2827.81,922.672 "/>
<path clip-path="url(#clip421)" d="M2890.61 995.689 L2890.61 1063.09 L2953.41 1063.09 L2953.41 995.689 L2890.61 995.689 L2890.61 995.689  Z" fill="#009af9" fill-rule="evenodd" fill-opacity="1"/>
<polyline clip-path="url(#clip421)" style="stroke:#000000; stroke-linecap:round; stroke-linejoin:round; stroke-width:4; stroke-opacity:1; fill:none" points="2890.61,995.689 2890.61,1063.09 2953.41,1063.09 2953.41,995.689 2890.61,995.689 "/>
<path clip-path="url(#clip421)" d="M2953.41 1051.86 L2953.41 1063.09 L3016.21 1063.09 L3016.21 1051.86 L2953.41 1051.86 L2953.41 1051.86  Z" fill="#009af9" fill-rule="evenodd" fill-opacity="1"/>
<polyline clip-path="url(#clip421)" style="stroke:#000000; stroke-linecap:round; stroke-linejoin:round; stroke-width:4; stroke-opacity:1; fill:none" points="2953.41,1051.86 2953.41,1063.09 3016.21,1063.09 3016.21,1051.86 2953.41,1051.86 "/>
<path clip-path="url(#clip421)" d="M3016.21 1046.24 L3016.21 1063.09 L3079.01 1063.09 L3079.01 1046.24 L3016.21 1046.24 L3016.21 1046.24  Z" fill="#009af9" fill-rule="evenodd" fill-opacity="1"/>
<polyline clip-path="url(#clip421)" style="stroke:#000000; stroke-linecap:round; stroke-linejoin:round; stroke-width:4; stroke-opacity:1; fill:none" points="3016.21,1046.24 3016.21,1063.09 3079.01,1063.09 3079.01,1046.24 3016.21,1046.24 "/>
<circle clip-path="url(#clip421)" style="fill:#009af9; stroke:none; fill-opacity:0" cx="1917.19" cy="1029.39" r="2"/>
<circle clip-path="url(#clip421)" style="fill:#009af9; stroke:none; fill-opacity:0" cx="1980" cy="961.989" r="2"/>
<circle clip-path="url(#clip421)" style="fill:#009af9; stroke:none; fill-opacity:0" cx="2042.8" cy="653.068" r="2"/>
<circle clip-path="url(#clip421)" style="fill:#009af9; stroke:none; fill-opacity:0" cx="2105.6" cy="664.302" r="2"/>
<circle clip-path="url(#clip421)" style="fill:#009af9; stroke:none; fill-opacity:0" cx="2168.4" cy="276.748" r="2"/>
<circle clip-path="url(#clip421)" style="fill:#009af9; stroke:none; fill-opacity:0" cx="2231.2" cy="355.382" r="2"/>
<circle clip-path="url(#clip421)" style="fill:#009af9; stroke:none; fill-opacity:0" cx="2294" cy="97.0121" r="2"/>
<circle clip-path="url(#clip421)" style="fill:#009af9; stroke:none; fill-opacity:0" cx="2356.8" cy="299.214" r="2"/>
<circle clip-path="url(#clip421)" style="fill:#009af9; stroke:none; fill-opacity:0" cx="2419.6" cy="153.179" r="2"/>
<circle clip-path="url(#clip421)" style="fill:#009af9; stroke:none; fill-opacity:0" cx="2482.4" cy="698.002" r="2"/>
<circle clip-path="url(#clip421)" style="fill:#009af9; stroke:none; fill-opacity:0" cx="2545.21" cy="501.417" r="2"/>
<circle clip-path="url(#clip421)" style="fill:#009af9; stroke:none; fill-opacity:0" cx="2608.01" cy="928.288" r="2"/>
<circle clip-path="url(#clip421)" style="fill:#009af9; stroke:none; fill-opacity:0" cx="2670.81" cy="900.205" r="2"/>
<circle clip-path="url(#clip421)" style="fill:#009af9; stroke:none; fill-opacity:0" cx="2733.61" cy="888.971" r="2"/>
<circle clip-path="url(#clip421)" style="fill:#009af9; stroke:none; fill-opacity:0" cx="2796.41" cy="1035.01" r="2"/>
<circle clip-path="url(#clip421)" style="fill:#009af9; stroke:none; fill-opacity:0" cx="2859.21" cy="922.672" r="2"/>
<circle clip-path="url(#clip421)" style="fill:#009af9; stroke:none; fill-opacity:0" cx="2922.01" cy="995.689" r="2"/>
<circle clip-path="url(#clip421)" style="fill:#009af9; stroke:none; fill-opacity:0" cx="2984.81" cy="1051.86" r="2"/>
<circle clip-path="url(#clip421)" style="fill:#009af9; stroke:none; fill-opacity:0" cx="3047.61" cy="1046.24" r="2"/>
<polyline clip-path="url(#clip421)" style="stroke:#ff0000; stroke-linecap:round; stroke-linejoin:round; stroke-width:8; stroke-opacity:1; fill:none" points="2262.6,2029.17 2262.6,-869.066 "/>
<path clip-path="url(#clip420)" d="M2875.69 232.895 L3108.07 232.895 L3108.07 129.215 L2875.69 129.215  Z" fill="#ffffff" fill-rule="evenodd" fill-opacity="1"/>
<polyline clip-path="url(#clip420)" style="stroke:#000000; stroke-linecap:round; stroke-linejoin:round; stroke-width:4; stroke-opacity:1; fill:none" points="2875.69,232.895 3108.07,232.895 3108.07,129.215 2875.69,129.215 2875.69,232.895 "/>
<polyline clip-path="url(#clip420)" style="stroke:#ff0000; stroke-linecap:round; stroke-linejoin:round; stroke-width:8; stroke-opacity:1; fill:none" points="2890.58,181.055 2979.96,181.055 "/>
<path clip-path="url(#clip420)" d="M2994.86 163.775 L3024.1 163.775 L3024.1 167.71 L3011.83 167.71 L3011.83 198.335 L3007.13 198.335 L3007.13 167.71 L2994.86 167.71 L2994.86 163.775 Z" fill="#000000" fill-rule="nonzero" fill-opacity="1" /><path clip-path="url(#clip420)" d="M3036.48 176.39 Q3035.76 175.974 3034.91 175.789 Q3034.07 175.58 3033.05 175.58 Q3029.44 175.58 3027.5 177.941 Q3025.58 180.279 3025.58 184.677 L3025.58 198.335 L3021.29 198.335 L3021.29 172.409 L3025.58 172.409 L3025.58 176.437 Q3026.92 174.076 3029.07 172.941 Q3031.23 171.784 3034.3 171.784 Q3034.74 171.784 3035.28 171.853 Q3035.81 171.9 3036.46 172.015 L3036.48 176.39 Z" fill="#000000" fill-rule="nonzero" fill-opacity="1" /><path clip-path="url(#clip420)" d="M3040.51 188.103 L3040.51 172.409 L3044.77 172.409 L3044.77 187.941 Q3044.77 191.622 3046.2 193.474 Q3047.64 195.302 3050.51 195.302 Q3053.96 195.302 3055.95 193.103 Q3057.96 190.904 3057.96 187.108 L3057.96 172.409 L3062.22 172.409 L3062.22 198.335 L3057.96 198.335 L3057.96 194.353 Q3056.41 196.714 3054.35 197.872 Q3052.31 199.006 3049.6 199.006 Q3045.14 199.006 3042.82 196.228 Q3040.51 193.45 3040.51 188.103 M3051.22 171.784 L3051.22 171.784 Z" fill="#000000" fill-rule="nonzero" fill-opacity="1" /><path clip-path="url(#clip420)" d="M3093.17 184.307 L3093.17 186.39 L3073.59 186.39 Q3073.86 190.788 3076.22 193.103 Q3078.61 195.395 3082.85 195.395 Q3085.3 195.395 3087.59 194.793 Q3089.91 194.191 3092.17 192.988 L3092.17 197.015 Q3089.88 197.987 3087.47 198.497 Q3085.07 199.006 3082.59 199.006 Q3076.39 199.006 3072.75 195.395 Q3069.14 191.784 3069.14 185.626 Q3069.14 179.261 3072.57 175.534 Q3076.02 171.784 3081.85 171.784 Q3087.08 171.784 3090.11 175.164 Q3093.17 178.52 3093.17 184.307 M3088.91 183.057 Q3088.86 179.562 3086.94 177.478 Q3085.04 175.395 3081.9 175.395 Q3078.33 175.395 3076.18 177.409 Q3074.05 179.423 3073.72 183.08 L3088.91 183.057 Z" fill="#000000" fill-rule="nonzero" fill-opacity="1" /></svg>
