<?xml version="1.0" encoding="utf-8"?>
<svg xmlns="http://www.w3.org/2000/svg" xmlns:xlink="http://www.w3.org/1999/xlink" width="672" height="480" viewBox="0 0 2688 1920">
<defs>
  <clipPath id="clip990">
    <rect x="0" y="0" width="2688" height="1920"/>
  </clipPath>
</defs>
<path clip-path="url(#clip990)" d="M0 1920 L2688 1920 L2688 -4.26326e-14 L0 -4.26326e-14  Z" fill="#ffffff" fill-rule="evenodd" fill-opacity="1"/>
<defs>
  <clipPath id="clip991">
    <rect x="181" y="127" width="2460" height="1607"/>
  </clipPath>
</defs>
<path clip-path="url(#clip990)" d="M181.719 1734.12 L2640.76 1734.12 L2640.76 127.792 L181.719 127.792  Z" fill="#ffffff" fill-rule="evenodd" fill-opacity="1"/>
<polyline clip-path="url(#clip991)" style="stroke:#000000; stroke-linecap:round; stroke-linejoin:round; stroke-width:2; stroke-opacity:0.1; fill:none" points="251.315,1734.12 251.315,127.792 "/>
<polyline clip-path="url(#clip991)" style="stroke:#000000; stroke-linecap:round; stroke-linejoin:round; stroke-width:2; stroke-opacity:0.1; fill:none" points="1040.38,1734.12 1040.38,127.792 "/>
<polyline clip-path="url(#clip991)" style="stroke:#000000; stroke-linecap:round; stroke-linejoin:round; stroke-width:2; stroke-opacity:0.1; fill:none" points="1829.44,1734.12 1829.44,127.792 "/>
<polyline clip-path="url(#clip991)" style="stroke:#000000; stroke-linecap:round; stroke-linejoin:round; stroke-width:2; stroke-opacity:0.1; fill:none" points="2618.5,1734.12 2618.5,127.792 "/>
<polyline clip-path="url(#clip991)" style="stroke:#000000; stroke-linecap:round; stroke-linejoin:round; stroke-width:2; stroke-opacity:0.1; fill:none" points="181.719,1719.02 2640.76,1719.02 "/>
<polyline clip-path="url(#clip991)" style="stroke:#000000; stroke-linecap:round; stroke-linejoin:round; stroke-width:2; stroke-opacity:0.1; fill:none" points="181.719,1415.36 2640.76,1415.36 "/>
<polyline clip-path="url(#clip991)" style="stroke:#000000; stroke-linecap:round; stroke-linejoin:round; stroke-width:2; stroke-opacity:0.1; fill:none" points="181.719,1111.69 2640.76,1111.69 "/>
<polyline clip-path="url(#clip991)" style="stroke:#000000; stroke-linecap:round; stroke-linejoin:round; stroke-width:2; stroke-opacity:0.1; fill:none" points="181.719,808.025 2640.76,808.025 "/>
<polyline clip-path="url(#clip991)" style="stroke:#000000; stroke-linecap:round; stroke-linejoin:round; stroke-width:2; stroke-opacity:0.1; fill:none" points="181.719,504.359 2640.76,504.359 "/>
<polyline clip-path="url(#clip991)" style="stroke:#000000; stroke-linecap:round; stroke-linejoin:round; stroke-width:2; stroke-opacity:0.1; fill:none" points="181.719,200.694 2640.76,200.694 "/>
<polyline clip-path="url(#clip990)" style="stroke:#000000; stroke-linecap:round; stroke-linejoin:round; stroke-width:4; stroke-opacity:1; fill:none" points="181.719,1734.12 2640.76,1734.12 "/>
<polyline clip-path="url(#clip990)" style="stroke:#000000; stroke-linecap:round; stroke-linejoin:round; stroke-width:4; stroke-opacity:1; fill:none" points="251.315,1734.12 251.315,1715.22 "/>
<polyline clip-path="url(#clip990)" style="stroke:#000000; stroke-linecap:round; stroke-linejoin:round; stroke-width:4; stroke-opacity:1; fill:none" points="1040.38,1734.12 1040.38,1715.22 "/>
<polyline clip-path="url(#clip990)" style="stroke:#000000; stroke-linecap:round; stroke-linejoin:round; stroke-width:4; stroke-opacity:1; fill:none" points="1829.44,1734.12 1829.44,1715.22 "/>
<polyline clip-path="url(#clip990)" style="stroke:#000000; stroke-linecap:round; stroke-linejoin:round; stroke-width:4; stroke-opacity:1; fill:none" points="2618.5,1734.12 2618.5,1715.22 "/>
<path clip-path="url(#clip990)" d="M251.315 1767.34 Q247.704 1767.34 245.875 1770.9 Q244.07 1774.45 244.07 1781.58 Q244.07 1788.68 245.875 1792.25 Q247.704 1795.79 251.315 1795.79 Q254.949 1795.79 256.755 1792.25 Q258.583 1788.68 258.583 1781.58 Q258.583 1774.45 256.755 1770.9 Q254.949 1767.34 251.315 1767.34 M251.315 1763.64 Q257.125 1763.64 260.181 1768.24 Q263.259 1772.83 263.259 1781.58 Q263.259 1790.3 260.181 1794.91 Q257.125 1799.49 251.315 1799.49 Q245.505 1799.49 242.426 1794.91 Q239.37 1790.3 239.37 1781.58 Q239.37 1772.83 242.426 1768.24 Q245.505 1763.64 251.315 1763.64 Z" fill="#000000" fill-rule="nonzero" fill-opacity="1" /><path clip-path="url(#clip990)" d="M999.996 1764.26 L1018.35 1764.26 L1018.35 1768.2 L1004.28 1768.2 L1004.28 1776.67 Q1005.3 1776.32 1006.32 1776.16 Q1007.33 1775.97 1008.35 1775.97 Q1014.14 1775.97 1017.52 1779.15 Q1020.9 1782.32 1020.9 1787.73 Q1020.9 1793.31 1017.43 1796.41 Q1013.95 1799.49 1007.64 1799.49 Q1005.46 1799.49 1003.19 1799.12 Q1000.95 1798.75 998.538 1798.01 L998.538 1793.31 Q1000.62 1794.45 1002.84 1795 Q1005.07 1795.56 1007.54 1795.56 Q1011.55 1795.56 1013.89 1793.45 Q1016.22 1791.34 1016.22 1787.73 Q1016.22 1784.12 1013.89 1782.02 Q1011.55 1779.91 1007.54 1779.91 Q1005.67 1779.91 1003.79 1780.33 Q1001.94 1780.74 999.996 1781.62 L999.996 1764.26 Z" fill="#000000" fill-rule="nonzero" fill-opacity="1" /><path clip-path="url(#clip990)" d="M1040.11 1767.34 Q1036.5 1767.34 1034.67 1770.9 Q1032.87 1774.45 1032.87 1781.58 Q1032.87 1788.68 1034.67 1792.25 Q1036.5 1795.79 1040.11 1795.79 Q1043.75 1795.79 1045.55 1792.25 Q1047.38 1788.68 1047.38 1781.58 Q1047.38 1774.45 1045.55 1770.9 Q1043.75 1767.34 1040.11 1767.34 M1040.11 1763.64 Q1045.92 1763.64 1048.98 1768.24 Q1052.06 1772.83 1052.06 1781.58 Q1052.06 1790.3 1048.98 1794.91 Q1045.92 1799.49 1040.11 1799.49 Q1034.3 1799.49 1031.22 1794.91 Q1028.17 1790.3 1028.17 1781.58 Q1028.17 1772.83 1031.22 1768.24 Q1034.3 1763.64 1040.11 1763.64 Z" fill="#000000" fill-rule="nonzero" fill-opacity="1" /><path clip-path="url(#clip990)" d="M1070.27 1767.34 Q1066.66 1767.34 1064.83 1770.9 Q1063.03 1774.45 1063.03 1781.58 Q1063.03 1788.68 1064.83 1792.25 Q1066.66 1795.79 1070.27 1795.79 Q1073.91 1795.79 1075.71 1792.25 Q1077.54 1788.68 1077.54 1781.58 Q1077.54 1774.45 1075.71 1770.9 Q1073.91 1767.34 1070.27 1767.34 M1070.27 1763.64 Q1076.08 1763.64 1079.14 1768.24 Q1082.22 1772.83 1082.22 1781.58 Q1082.22 1790.3 1079.14 1794.91 Q1076.08 1799.49 1070.27 1799.49 Q1064.46 1799.49 1061.38 1794.91 Q1058.33 1790.3 1058.33 1781.58 Q1058.33 1772.83 1061.38 1768.24 Q1064.46 1763.64 1070.27 1763.64 Z" fill="#000000" fill-rule="nonzero" fill-opacity="1" /><path clip-path="url(#clip990)" d="M1773.97 1794.89 L1781.61 1794.89 L1781.61 1768.52 L1773.3 1770.19 L1773.3 1765.93 L1781.56 1764.26 L1786.24 1764.26 L1786.24 1794.89 L1793.87 1794.89 L1793.87 1798.82 L1773.97 1798.82 L1773.97 1794.89 Z" fill="#000000" fill-rule="nonzero" fill-opacity="1" /><path clip-path="url(#clip990)" d="M1813.32 1767.34 Q1809.71 1767.34 1807.88 1770.9 Q1806.07 1774.45 1806.07 1781.58 Q1806.07 1788.68 1807.88 1792.25 Q1809.71 1795.79 1813.32 1795.79 Q1816.95 1795.79 1818.76 1792.25 Q1820.59 1788.68 1820.59 1781.58 Q1820.59 1774.45 1818.76 1770.9 Q1816.95 1767.34 1813.32 1767.34 M1813.32 1763.64 Q1819.13 1763.64 1822.18 1768.24 Q1825.26 1772.83 1825.26 1781.58 Q1825.26 1790.3 1822.18 1794.91 Q1819.13 1799.49 1813.32 1799.49 Q1807.51 1799.49 1804.43 1794.91 Q1801.37 1790.3 1801.37 1781.58 Q1801.37 1772.83 1804.43 1768.24 Q1807.51 1763.64 1813.32 1763.64 Z" fill="#000000" fill-rule="nonzero" fill-opacity="1" /><path clip-path="url(#clip990)" d="M1843.48 1767.34 Q1839.87 1767.34 1838.04 1770.9 Q1836.24 1774.45 1836.24 1781.58 Q1836.24 1788.68 1838.04 1792.25 Q1839.87 1795.79 1843.48 1795.79 Q1847.11 1795.79 1848.92 1792.25 Q1850.75 1788.68 1850.75 1781.58 Q1850.75 1774.45 1848.92 1770.9 Q1847.11 1767.34 1843.48 1767.34 M1843.48 1763.64 Q1849.29 1763.64 1852.35 1768.24 Q1855.42 1772.83 1855.42 1781.58 Q1855.42 1790.3 1852.35 1794.91 Q1849.29 1799.49 1843.48 1799.49 Q1837.67 1799.49 1834.59 1794.91 Q1831.54 1790.3 1831.54 1781.58 Q1831.54 1772.83 1834.59 1768.24 Q1837.67 1763.64 1843.48 1763.64 Z" fill="#000000" fill-rule="nonzero" fill-opacity="1" /><path clip-path="url(#clip990)" d="M1873.64 1767.34 Q1870.03 1767.34 1868.2 1770.9 Q1866.4 1774.45 1866.4 1781.58 Q1866.4 1788.68 1868.2 1792.25 Q1870.03 1795.79 1873.64 1795.79 Q1877.28 1795.79 1879.08 1792.25 Q1880.91 1788.68 1880.91 1781.58 Q1880.91 1774.45 1879.08 1770.9 Q1877.28 1767.34 1873.64 1767.34 M1873.64 1763.64 Q1879.45 1763.64 1882.51 1768.24 Q1885.59 1772.83 1885.59 1781.58 Q1885.59 1790.3 1882.51 1794.91 Q1879.45 1799.49 1873.64 1799.49 Q1867.83 1799.49 1864.75 1794.91 Q1861.7 1790.3 1861.7 1781.58 Q1861.7 1772.83 1864.75 1768.24 Q1867.83 1763.64 1873.64 1763.64 Z" fill="#000000" fill-rule="nonzero" fill-opacity="1" /><path clip-path="url(#clip990)" d="M2563.03 1794.89 L2570.67 1794.89 L2570.67 1768.52 L2562.36 1770.19 L2562.36 1765.93 L2570.62 1764.26 L2575.3 1764.26 L2575.3 1794.89 L2582.94 1794.89 L2582.94 1798.82 L2563.03 1798.82 L2563.03 1794.89 Z" fill="#000000" fill-rule="nonzero" fill-opacity="1" /><path clip-path="url(#clip990)" d="M2592.43 1764.26 L2610.78 1764.26 L2610.78 1768.2 L2596.71 1768.2 L2596.71 1776.67 Q2597.73 1776.32 2598.75 1776.16 Q2599.77 1775.97 2600.78 1775.97 Q2606.57 1775.97 2609.95 1779.15 Q2613.33 1782.32 2613.33 1787.73 Q2613.33 1793.31 2609.86 1796.41 Q2606.39 1799.49 2600.07 1799.49 Q2597.89 1799.49 2595.62 1799.12 Q2593.38 1798.75 2590.97 1798.01 L2590.97 1793.31 Q2593.05 1794.45 2595.28 1795 Q2597.5 1795.56 2599.97 1795.56 Q2603.98 1795.56 2606.32 1793.45 Q2608.65 1791.34 2608.65 1787.73 Q2608.65 1784.12 2606.32 1782.02 Q2603.98 1779.91 2599.97 1779.91 Q2598.1 1779.91 2596.22 1780.33 Q2594.37 1780.74 2592.43 1781.62 L2592.43 1764.26 Z" fill="#000000" fill-rule="nonzero" fill-opacity="1" /><path clip-path="url(#clip990)" d="M2632.54 1767.34 Q2628.93 1767.34 2627.1 1770.9 Q2625.3 1774.45 2625.3 1781.58 Q2625.3 1788.68 2627.1 1792.25 Q2628.93 1795.79 2632.54 1795.79 Q2636.18 1795.79 2637.98 1792.25 Q2639.81 1788.68 2639.81 1781.58 Q2639.81 1774.45 2637.98 1770.9 Q2636.18 1767.34 2632.54 1767.34 M2632.54 1763.64 Q2638.35 1763.64 2641.41 1768.24 Q2644.49 1772.83 2644.49 1781.58 Q2644.49 1790.3 2641.41 1794.91 Q2638.35 1799.49 2632.54 1799.49 Q2626.73 1799.49 2623.65 1794.91 Q2620.6 1790.3 2620.6 1781.58 Q2620.6 1772.83 2623.65 1768.24 Q2626.73 1763.64 2632.54 1763.64 Z" fill="#000000" fill-rule="nonzero" fill-opacity="1" /><path clip-path="url(#clip990)" d="M2662.71 1767.34 Q2659.09 1767.34 2657.27 1770.9 Q2655.46 1774.45 2655.46 1781.58 Q2655.46 1788.68 2657.27 1792.25 Q2659.09 1795.79 2662.71 1795.79 Q2666.34 1795.79 2668.15 1792.25 Q2669.97 1788.68 2669.97 1781.58 Q2669.97 1774.45 2668.15 1770.9 Q2666.34 1767.34 2662.71 1767.34 M2662.71 1763.64 Q2668.52 1763.64 2671.57 1768.24 Q2674.65 1772.83 2674.65 1781.58 Q2674.65 1790.3 2671.57 1794.91 Q2668.52 1799.49 2662.71 1799.49 Q2656.9 1799.49 2653.82 1794.91 Q2650.76 1790.3 2650.76 1781.58 Q2650.76 1772.83 2653.82 1768.24 Q2656.9 1763.64 2662.71 1763.64 Z" fill="#000000" fill-rule="nonzero" fill-opacity="1" /><path clip-path="url(#clip990)" d="M1357.48 1841.06 L1357.48 1878.02 L1365.25 1878.02 Q1375.08 1878.02 1379.63 1873.56 Q1384.22 1869.11 1384.22 1859.49 Q1384.22 1849.94 1379.63 1845.52 Q1375.08 1841.06 1365.25 1841.06 L1357.48 1841.06 M1351.05 1835.78 L1364.26 1835.78 Q1378.07 1835.78 1384.53 1841.54 Q1390.99 1847.27 1390.99 1859.49 Q1390.99 1871.78 1384.5 1877.54 Q1378.01 1883.3 1364.26 1883.3 L1351.05 1883.3 L1351.05 1835.78 Z" fill="#000000" fill-rule="nonzero" fill-opacity="1" /><path clip-path="url(#clip990)" d="M1417.19 1865.38 Q1410.09 1865.38 1407.35 1867 Q1404.62 1868.63 1404.62 1872.54 Q1404.62 1875.66 1406.65 1877.51 Q1408.72 1879.32 1412.26 1879.32 Q1417.13 1879.32 1420.05 1875.88 Q1423.01 1872.42 1423.01 1866.69 L1423.01 1865.38 L1417.19 1865.38 M1428.87 1862.96 L1428.87 1883.3 L1423.01 1883.3 L1423.01 1877.89 Q1421.01 1881.14 1418.02 1882.7 Q1415.03 1884.22 1410.7 1884.22 Q1405.22 1884.22 1401.98 1881.17 Q1398.76 1878.08 1398.76 1872.92 Q1398.76 1866.91 1402.77 1863.85 Q1406.81 1860.8 1414.8 1860.8 L1423.01 1860.8 L1423.01 1860.23 Q1423.01 1856.18 1420.34 1853.99 Q1417.7 1851.76 1412.89 1851.76 Q1409.84 1851.76 1406.94 1852.49 Q1404.04 1853.22 1401.37 1854.69 L1401.37 1849.28 Q1404.59 1848.03 1407.61 1847.43 Q1410.63 1846.79 1413.5 1846.79 Q1421.23 1846.79 1425.05 1850.8 Q1428.87 1854.81 1428.87 1862.96 Z" fill="#000000" fill-rule="nonzero" fill-opacity="1" /><path clip-path="url(#clip990)" d="M1455.77 1886.61 Q1453.28 1892.98 1450.93 1894.92 Q1448.57 1896.86 1444.63 1896.86 L1439.95 1896.86 L1439.95 1891.96 L1443.38 1891.96 Q1445.8 1891.96 1447.14 1890.81 Q1448.48 1889.67 1450.1 1885.4 L1451.15 1882.73 L1436.73 1847.65 L1442.94 1847.65 L1454.08 1875.53 L1465.22 1847.65 L1471.43 1847.65 L1455.77 1886.61 Z" fill="#000000" fill-rule="nonzero" fill-opacity="1" /><polyline clip-path="url(#clip990)" style="stroke:#000000; stroke-linecap:round; stroke-linejoin:round; stroke-width:4; stroke-opacity:1; fill:none" points="181.719,1734.12 181.719,127.792 "/>
<polyline clip-path="url(#clip990)" style="stroke:#000000; stroke-linecap:round; stroke-linejoin:round; stroke-width:4; stroke-opacity:1; fill:none" points="181.719,1719.02 200.617,1719.02 "/>
<polyline clip-path="url(#clip990)" style="stroke:#000000; stroke-linecap:round; stroke-linejoin:round; stroke-width:4; stroke-opacity:1; fill:none" points="181.719,1415.36 200.617,1415.36 "/>
<polyline clip-path="url(#clip990)" style="stroke:#000000; stroke-linecap:round; stroke-linejoin:round; stroke-width:4; stroke-opacity:1; fill:none" points="181.719,1111.69 200.617,1111.69 "/>
<polyline clip-path="url(#clip990)" style="stroke:#000000; stroke-linecap:round; stroke-linejoin:round; stroke-width:4; stroke-opacity:1; fill:none" points="181.719,808.025 200.617,808.025 "/>
<polyline clip-path="url(#clip990)" style="stroke:#000000; stroke-linecap:round; stroke-linejoin:round; stroke-width:4; stroke-opacity:1; fill:none" points="181.719,504.359 200.617,504.359 "/>
<polyline clip-path="url(#clip990)" style="stroke:#000000; stroke-linecap:round; stroke-linejoin:round; stroke-width:4; stroke-opacity:1; fill:none" points="181.719,200.694 200.617,200.694 "/>
<path clip-path="url(#clip990)" d="M129.455 1704.82 Q125.844 1704.82 124.015 1708.39 Q122.21 1711.93 122.21 1719.06 Q122.21 1726.16 124.015 1729.73 Q125.844 1733.27 129.455 1733.27 Q133.089 1733.27 134.895 1729.73 Q136.724 1726.16 136.724 1719.06 Q136.724 1711.93 134.895 1708.39 Q133.089 1704.82 129.455 1704.82 M129.455 1701.12 Q135.265 1701.12 138.321 1705.72 Q141.399 1710.31 141.399 1719.06 Q141.399 1727.78 138.321 1732.39 Q135.265 1736.97 129.455 1736.97 Q123.645 1736.97 120.566 1732.39 Q117.511 1727.78 117.511 1719.06 Q117.511 1710.31 120.566 1705.72 Q123.645 1701.12 129.455 1701.12 Z" fill="#000000" fill-rule="nonzero" fill-opacity="1" /><path clip-path="url(#clip990)" d="M121.492 1428.7 L129.131 1428.7 L129.131 1402.34 L120.821 1404 L120.821 1399.74 L129.085 1398.08 L133.761 1398.08 L133.761 1428.7 L141.399 1428.7 L141.399 1432.64 L121.492 1432.64 L121.492 1428.7 Z" fill="#000000" fill-rule="nonzero" fill-opacity="1" /><path clip-path="url(#clip990)" d="M125.08 1125.04 L141.399 1125.04 L141.399 1128.97 L119.455 1128.97 L119.455 1125.04 Q122.117 1122.28 126.7 1117.65 Q131.307 1113 132.488 1111.66 Q134.733 1109.13 135.612 1107.4 Q136.515 1105.64 136.515 1103.95 Q136.515 1101.19 134.571 1099.46 Q132.65 1097.72 129.548 1097.72 Q127.349 1097.72 124.895 1098.48 Q122.464 1099.25 119.687 1100.8 L119.687 1096.08 Q122.511 1094.94 124.964 1094.36 Q127.418 1093.79 129.455 1093.79 Q134.825 1093.79 138.02 1096.47 Q141.214 1099.16 141.214 1103.65 Q141.214 1105.78 140.404 1107.7 Q139.617 1109.6 137.511 1112.19 Q136.932 1112.86 133.83 1116.08 Q130.728 1119.27 125.08 1125.04 Z" fill="#000000" fill-rule="nonzero" fill-opacity="1" /><path clip-path="url(#clip990)" d="M134.27 806.671 Q137.626 807.388 139.501 809.657 Q141.399 811.925 141.399 815.259 Q141.399 820.374 137.881 823.175 Q134.362 825.976 127.881 825.976 Q125.705 825.976 123.39 825.536 Q121.099 825.12 118.645 824.263 L118.645 819.749 Q120.589 820.884 122.904 821.462 Q125.219 822.041 127.742 822.041 Q132.14 822.041 134.432 820.305 Q136.747 818.569 136.747 815.259 Q136.747 812.203 134.594 810.49 Q132.464 808.754 128.645 808.754 L124.617 808.754 L124.617 804.911 L128.83 804.911 Q132.279 804.911 134.108 803.546 Q135.937 802.157 135.937 799.564 Q135.937 796.902 134.038 795.49 Q132.163 794.055 128.645 794.055 Q126.724 794.055 124.525 794.472 Q122.326 794.888 119.687 795.768 L119.687 791.601 Q122.349 790.861 124.663 790.49 Q127.001 790.12 129.062 790.12 Q134.386 790.12 137.487 792.55 Q140.589 794.958 140.589 799.078 Q140.589 801.948 138.946 803.939 Q137.302 805.907 134.27 806.671 Z" fill="#000000" fill-rule="nonzero" fill-opacity="1" /><path clip-path="url(#clip990)" d="M131.816 491.153 L120.011 509.602 L131.816 509.602 L131.816 491.153 M130.589 487.079 L136.469 487.079 L136.469 509.602 L141.399 509.602 L141.399 513.491 L136.469 513.491 L136.469 521.639 L131.816 521.639 L131.816 513.491 L116.214 513.491 L116.214 508.977 L130.589 487.079 Z" fill="#000000" fill-rule="nonzero" fill-opacity="1" /><path clip-path="url(#clip990)" d="M120.497 183.414 L138.853 183.414 L138.853 187.349 L124.779 187.349 L124.779 195.821 Q125.798 195.474 126.816 195.312 Q127.835 195.127 128.853 195.127 Q134.64 195.127 138.02 198.298 Q141.399 201.469 141.399 206.886 Q141.399 212.464 137.927 215.566 Q134.455 218.645 128.136 218.645 Q125.96 218.645 123.691 218.275 Q121.446 217.904 119.039 217.164 L119.039 212.464 Q121.122 213.599 123.344 214.154 Q125.566 214.71 128.043 214.71 Q132.048 214.71 134.386 212.603 Q136.724 210.497 136.724 206.886 Q136.724 203.275 134.386 201.168 Q132.048 199.062 128.043 199.062 Q126.168 199.062 124.293 199.478 Q122.441 199.895 120.497 200.775 L120.497 183.414 Z" fill="#000000" fill-rule="nonzero" fill-opacity="1" /><path clip-path="url(#clip990)" d="M14.1184 1082.78 L14.1184 1055.47 L19.5293 1055.47 L19.5293 1076.35 L33.5338 1076.35 L33.5338 1057.5 L38.9447 1057.5 L38.9447 1076.35 L61.6384 1076.35 L61.6384 1082.78 L14.1184 1082.78 Z" fill="#000000" fill-rule="nonzero" fill-opacity="1" /><path clip-path="url(#clip990)" d="M18.479 1025.99 Q18.479 1033 23.6988 1037.13 Q28.9187 1041.24 37.9262 1041.24 Q46.9018 1041.24 52.1217 1037.13 Q57.3416 1033 57.3416 1025.99 Q57.3416 1018.99 52.1217 1014.92 Q46.9018 1010.81 37.9262 1010.81 Q28.9187 1010.81 23.6988 1014.92 Q18.479 1018.99 18.479 1025.99 M13.2591 1025.99 Q13.2591 1016 19.9749 1010.02 Q26.6589 1004.03 37.9262 1004.03 Q49.1617 1004.03 55.8775 1010.02 Q62.5615 1016 62.5615 1025.99 Q62.5615 1036.02 55.8775 1042.04 Q49.1935 1048.02 37.9262 1048.02 Q26.6589 1048.02 19.9749 1042.04 Q13.2591 1036.02 13.2591 1025.99 Z" fill="#000000" fill-rule="nonzero" fill-opacity="1" /><path clip-path="url(#clip990)" d="M14.1184 993.975 L14.1184 987.546 L61.6384 987.546 L61.6384 993.975 L14.1184 993.975 Z" fill="#000000" fill-rule="nonzero" fill-opacity="1" /><path clip-path="url(#clip990)" d="M26.6271 914.722 L41.2364 929.268 L55.782 914.722 L59.6332 918.51 L45.0239 933.119 L59.6332 947.728 L55.782 951.484 L41.2364 936.97 L26.6271 951.484 L22.7758 947.728 L37.3851 933.119 L22.7758 918.51 L26.6271 914.722 Z" fill="#000000" fill-rule="nonzero" fill-opacity="1" /><path clip-path="url(#clip990)" d="M56.2276 877.005 L56.2276 866.502 L19.9749 866.502 L22.2665 877.928 L16.4101 877.928 L14.1184 866.565 L14.1184 860.136 L56.2276 860.136 L56.2276 849.633 L61.6384 849.633 L61.6384 877.005 L56.2276 877.005 Z" fill="#000000" fill-rule="nonzero" fill-opacity="1" /><path clip-path="url(#clip990)" d="M18.3516 822.897 Q18.3516 827.862 23.2532 830.376 Q28.123 832.859 37.9262 832.859 Q47.6975 832.859 52.5991 830.376 Q57.4689 827.862 57.4689 822.897 Q57.4689 817.9 52.5991 815.417 Q47.6975 812.903 37.9262 812.903 Q28.123 812.903 23.2532 815.417 Q18.3516 817.9 18.3516 822.897 M13.2591 822.897 Q13.2591 814.908 19.593 810.706 Q25.895 806.473 37.9262 806.473 Q49.9255 806.473 56.2594 810.706 Q62.5615 814.908 62.5615 822.897 Q62.5615 830.886 56.2594 835.119 Q49.9255 839.32 37.9262 839.32 Q25.895 839.32 19.593 835.119 Q13.2591 830.886 13.2591 822.897 Z" fill="#000000" fill-rule="nonzero" fill-opacity="1" /><path clip-path="url(#clip990)" d="M13.8002 797.625 L13.8002 781.392 L16.8239 781.392 L16.8239 793.837 L23.3169 793.837 Q23.0304 792.946 22.9031 792.023 Q22.7758 791.132 22.7758 790.241 Q22.7758 785.116 25.2266 782.124 Q27.6456 779.132 31.8151 779.132 Q36.112 779.132 38.4991 782.22 Q40.8544 785.275 40.8544 790.877 Q40.8544 792.787 40.568 794.792 Q40.2815 796.797 39.7086 798.898 L36.112 798.898 Q36.9713 797.084 37.4169 795.11 Q37.8307 793.137 37.8307 790.941 Q37.8307 787.408 36.2074 785.339 Q34.5842 783.27 31.8151 783.27 Q29.046 783.27 27.4228 785.339 Q25.7995 787.408 25.7995 790.941 Q25.7995 792.596 26.1178 794.251 Q26.4361 795.906 27.1045 797.625 L13.8002 797.625 Z" fill="#000000" fill-rule="nonzero" fill-opacity="1" /><path clip-path="url(#clip990)" d="M901.269 14.0809 L901.269 22.0612 Q896.611 19.8332 892.479 18.7395 Q888.347 17.6457 884.499 17.6457 Q877.815 17.6457 874.169 20.2383 Q870.564 22.8309 870.564 27.611 Q870.564 31.6214 872.954 33.6873 Q875.384 35.7128 882.109 36.9686 L887.051 37.9813 Q896.206 39.7232 900.54 44.1387 Q904.915 48.5136 904.915 55.8863 Q904.915 64.6767 899.001 69.2137 Q893.127 73.7508 881.744 73.7508 Q877.45 73.7508 872.589 72.7785 Q867.768 71.8063 862.583 69.9024 L862.583 61.4765 Q867.566 64.2716 872.346 65.6895 Q877.126 67.1073 881.744 67.1073 Q888.752 67.1073 892.56 64.3527 Q896.368 61.598 896.368 56.4939 Q896.368 52.0379 893.613 49.5264 Q890.899 47.0148 884.661 45.759 L879.678 44.7868 Q870.523 42.9639 866.432 39.075 Q862.34 35.1862 862.34 28.2591 Q862.34 20.2383 867.971 15.6203 Q873.642 11.0023 883.567 11.0023 Q887.82 11.0023 892.236 11.7719 Q896.651 12.5416 901.269 14.0809 Z" fill="#000000" fill-rule="nonzero" fill-opacity="1" /><path clip-path="url(#clip990)" d="M924.562 65.7705 L924.562 89.8329 L917.068 89.8329 L917.068 27.2059 L924.562 27.2059 L924.562 34.0924 Q926.912 30.0415 930.476 28.0971 Q934.082 26.1121 939.064 26.1121 Q947.328 26.1121 952.473 32.6746 Q957.658 39.2371 957.658 49.9314 Q957.658 60.6258 952.473 67.1883 Q947.328 73.7508 939.064 73.7508 Q934.082 73.7508 930.476 71.8063 Q926.912 69.8214 924.562 65.7705 M949.921 49.9314 Q949.921 41.7081 946.518 37.0496 Q943.156 32.3505 937.241 32.3505 Q931.327 32.3505 927.924 37.0496 Q924.562 41.7081 924.562 49.9314 Q924.562 58.1548 927.924 62.8538 Q931.327 67.5124 937.241 67.5124 Q943.156 67.5124 946.518 62.8538 Q949.921 58.1548 949.921 49.9314 Z" fill="#000000" fill-rule="nonzero" fill-opacity="1" /><path clip-path="url(#clip990)" d="M970.013 27.2059 L977.467 27.2059 L977.467 72.576 L970.013 72.576 L970.013 27.2059 M970.013 9.54393 L977.467 9.54393 L977.467 18.9825 L970.013 18.9825 L970.013 9.54393 Z" fill="#000000" fill-rule="nonzero" fill-opacity="1" /><path clip-path="url(#clip990)" d="M993.063 9.54393 L1000.52 9.54393 L1000.52 72.576 L993.063 72.576 L993.063 9.54393 Z" fill="#000000" fill-rule="nonzero" fill-opacity="1" /><path clip-path="url(#clip990)" d="M1016.11 9.54393 L1023.57 9.54393 L1023.57 72.576 L1016.11 72.576 L1016.11 9.54393 Z" fill="#000000" fill-rule="nonzero" fill-opacity="1" /><path clip-path="url(#clip990)" d="M1056.74 32.4315 Q1050.75 32.4315 1047.26 37.1306 Q1043.78 41.7891 1043.78 49.9314 Q1043.78 58.0738 1047.22 62.7728 Q1050.71 67.4314 1056.74 67.4314 Q1062.7 67.4314 1066.18 62.7323 Q1069.67 58.0333 1069.67 49.9314 Q1069.67 41.8701 1066.18 37.1711 Q1062.7 32.4315 1056.74 32.4315 M1056.74 26.1121 Q1066.47 26.1121 1072.01 32.4315 Q1077.56 38.7509 1077.56 49.9314 Q1077.56 61.0714 1072.01 67.4314 Q1066.47 73.7508 1056.74 73.7508 Q1046.98 73.7508 1041.43 67.4314 Q1035.92 61.0714 1035.92 49.9314 Q1035.92 38.7509 1041.43 32.4315 Q1046.98 26.1121 1056.74 26.1121 Z" fill="#000000" fill-rule="nonzero" fill-opacity="1" /><path clip-path="url(#clip990)" d="M1084.57 27.2059 L1092.47 27.2059 L1106.65 65.2844 L1120.83 27.2059 L1128.73 27.2059 L1111.71 72.576 L1101.59 72.576 L1084.57 27.2059 Z" fill="#000000" fill-rule="nonzero" fill-opacity="1" /><path clip-path="url(#clip990)" d="M1177.82 48.0275 L1177.82 51.6733 L1143.55 51.6733 Q1144.04 59.3701 1148.17 63.421 Q1152.34 67.4314 1159.76 67.4314 Q1164.05 67.4314 1168.06 66.3781 Q1172.11 65.3249 1176.08 63.2184 L1176.08 70.267 Q1172.07 71.9684 1167.86 72.8596 Q1163.65 73.7508 1159.31 73.7508 Q1148.46 73.7508 1142.1 67.4314 Q1135.78 61.1119 1135.78 50.3365 Q1135.78 39.1965 1141.77 32.6746 Q1147.81 26.1121 1158.02 26.1121 Q1167.17 26.1121 1172.48 32.0264 Q1177.82 37.9003 1177.82 48.0275 M1170.37 45.84 Q1170.29 39.7232 1166.93 36.0774 Q1163.61 32.4315 1158.1 32.4315 Q1151.86 32.4315 1148.09 35.9558 Q1144.36 39.4801 1143.8 45.8805 L1170.37 45.84 Z" fill="#000000" fill-rule="nonzero" fill-opacity="1" /><path clip-path="url(#clip990)" d="M1216.35 34.1734 Q1215.09 33.4443 1213.59 33.1202 Q1212.14 32.7556 1210.35 32.7556 Q1204.03 32.7556 1200.63 36.8875 Q1197.27 40.9789 1197.27 48.6757 L1197.27 72.576 L1189.77 72.576 L1189.77 27.2059 L1197.27 27.2059 L1197.27 34.2544 Q1199.62 30.1225 1203.39 28.1376 Q1207.15 26.1121 1212.54 26.1121 Q1213.31 26.1121 1214.24 26.2337 Q1215.17 26.3147 1216.31 26.5172 L1216.35 34.1734 Z" fill="#000000" fill-rule="nonzero" fill-opacity="1" /><path clip-path="url(#clip990)" d="M1250.86 12.096 L1285.62 12.096 L1285.62 18.9825 L1259.05 18.9825 L1259.05 36.8065 L1283.03 36.8065 L1283.03 43.6931 L1259.05 43.6931 L1259.05 72.576 L1250.86 72.576 L1250.86 12.096 Z" fill="#000000" fill-rule="nonzero" fill-opacity="1" /><path clip-path="url(#clip990)" d="M1323.13 17.6457 Q1314.22 17.6457 1308.95 24.2892 Q1303.73 30.9327 1303.73 42.3968 Q1303.73 53.8203 1308.95 60.4638 Q1314.22 67.1073 1323.13 67.1073 Q1332.04 67.1073 1337.23 60.4638 Q1342.45 53.8203 1342.45 42.3968 Q1342.45 30.9327 1337.23 24.2892 Q1332.04 17.6457 1323.13 17.6457 M1323.13 11.0023 Q1335.85 11.0023 1343.47 19.5497 Q1351.08 28.0566 1351.08 42.3968 Q1351.08 56.6965 1343.47 65.2439 Q1335.85 73.7508 1323.13 73.7508 Q1310.37 73.7508 1302.71 65.2439 Q1295.1 56.737 1295.1 42.3968 Q1295.1 28.0566 1302.71 19.5497 Q1310.37 11.0023 1323.13 11.0023 Z" fill="#000000" fill-rule="nonzero" fill-opacity="1" /><path clip-path="url(#clip990)" d="M1363.88 12.096 L1372.07 12.096 L1372.07 72.576 L1363.88 72.576 L1363.88 12.096 Z" fill="#000000" fill-rule="nonzero" fill-opacity="1" /><path clip-path="url(#clip990)" d="M1432.3 9.62495 Q1426.87 18.942 1424.24 28.0566 Q1421.61 37.1711 1421.61 46.5287 Q1421.61 55.8863 1424.24 65.0818 Q1426.91 74.2369 1432.3 83.5134 L1425.82 83.5134 Q1419.74 73.9938 1416.71 64.7983 Q1413.71 55.6027 1413.71 46.5287 Q1413.71 37.4952 1416.71 28.3401 Q1419.7 19.1851 1425.82 9.62495 L1432.3 9.62495 Z" fill="#000000" fill-rule="nonzero" fill-opacity="1" /><path clip-path="url(#clip990)" d="M1469.73 9.54393 L1469.73 15.7418 L1462.6 15.7418 Q1458.59 15.7418 1457.01 17.3622 Q1455.47 18.9825 1455.47 23.1955 L1455.47 27.2059 L1467.75 27.2059 L1467.75 32.9987 L1455.47 32.9987 L1455.47 72.576 L1447.98 72.576 L1447.98 32.9987 L1440.85 32.9987 L1440.85 27.2059 L1447.98 27.2059 L1447.98 24.0462 Q1447.98 16.471 1451.5 13.0277 Q1455.03 9.54393 1462.68 9.54393 L1469.73 9.54393 Z" fill="#000000" fill-rule="nonzero" fill-opacity="1" /><path clip-path="url(#clip990)" d="M1475.97 27.2059 L1483.42 27.2059 L1483.42 72.576 L1475.97 72.576 L1475.97 27.2059 M1475.97 9.54393 L1483.42 9.54393 L1483.42 18.9825 L1475.97 18.9825 L1475.97 9.54393 Z" fill="#000000" fill-rule="nonzero" fill-opacity="1" /><path clip-path="url(#clip990)" d="M1525.31 34.1734 Q1524.06 33.4443 1522.56 33.1202 Q1521.1 32.7556 1519.32 32.7556 Q1513 32.7556 1509.59 36.8875 Q1506.23 40.9789 1506.23 48.6757 L1506.23 72.576 L1498.74 72.576 L1498.74 27.2059 L1506.23 27.2059 L1506.23 34.2544 Q1508.58 30.1225 1512.35 28.1376 Q1516.12 26.1121 1521.5 26.1121 Q1522.27 26.1121 1523.2 26.2337 Q1524.14 26.3147 1525.27 26.5172 L1525.31 34.1734 Z" fill="#000000" fill-rule="nonzero" fill-opacity="1" /><path clip-path="url(#clip990)" d="M1562.05 28.5427 L1562.05 35.5912 Q1558.89 33.9709 1555.49 33.1607 Q1552.09 32.3505 1548.44 32.3505 Q1542.89 32.3505 1540.1 34.0519 Q1537.34 35.7533 1537.34 39.156 Q1537.34 41.7486 1539.33 43.2475 Q1541.31 44.7058 1547.31 46.0426 L1549.86 46.6097 Q1557.8 48.3111 1561.12 51.4303 Q1564.48 54.509 1564.48 60.0587 Q1564.48 66.3781 1559.46 70.0644 Q1554.48 73.7508 1545.73 73.7508 Q1542.08 73.7508 1538.11 73.0216 Q1534.18 72.3329 1529.81 70.9151 L1529.81 63.2184 Q1533.94 65.3654 1537.95 66.4591 Q1541.96 67.5124 1545.89 67.5124 Q1551.16 67.5124 1553.99 65.73 Q1556.83 63.9071 1556.83 60.6258 Q1556.83 57.5877 1554.76 55.9673 Q1552.74 54.3469 1545.81 52.8481 L1543.22 52.2405 Q1536.29 50.7821 1533.21 47.7845 Q1530.13 44.7463 1530.13 39.4801 Q1530.13 33.0797 1534.67 29.5959 Q1539.21 26.1121 1547.55 26.1121 Q1551.68 26.1121 1555.33 26.7198 Q1558.97 27.3274 1562.05 28.5427 Z" fill="#000000" fill-rule="nonzero" fill-opacity="1" /><path clip-path="url(#clip990)" d="M1583.73 14.324 L1583.73 27.2059 L1599.08 27.2059 L1599.08 32.9987 L1583.73 32.9987 L1583.73 57.6282 Q1583.73 63.1779 1585.22 64.7578 Q1586.76 66.3376 1591.42 66.3376 L1599.08 66.3376 L1599.08 72.576 L1591.42 72.576 Q1582.79 72.576 1579.51 69.3758 Q1576.23 66.1351 1576.23 57.6282 L1576.23 32.9987 L1570.76 32.9987 L1570.76 27.2059 L1576.23 27.2059 L1576.23 14.324 L1583.73 14.324 Z" fill="#000000" fill-rule="nonzero" fill-opacity="1" /><path clip-path="url(#clip990)" d="M1658.79 19.2256 L1638.13 51.5113 L1658.79 51.5113 L1658.79 19.2256 M1656.64 12.096 L1666.93 12.096 L1666.93 51.5113 L1675.56 51.5113 L1675.56 58.3168 L1666.93 58.3168 L1666.93 72.576 L1658.79 72.576 L1658.79 58.3168 L1631.49 58.3168 L1631.49 50.4176 L1656.64 12.096 Z" fill="#000000" fill-rule="nonzero" fill-opacity="1" /><path clip-path="url(#clip990)" d="M1733.28 76.7889 Q1730.12 84.8907 1727.13 87.3618 Q1724.13 89.8329 1719.11 89.8329 L1713.15 89.8329 L1713.15 83.5945 L1717.53 83.5945 Q1720.61 83.5945 1722.31 82.1361 Q1724.01 80.6778 1726.07 75.2496 L1727.41 71.8468 L1709.06 27.2059 L1716.96 27.2059 L1731.14 62.6918 L1745.32 27.2059 L1753.22 27.2059 L1733.28 76.7889 Z" fill="#000000" fill-rule="nonzero" fill-opacity="1" /><path clip-path="url(#clip990)" d="M1802.31 48.0275 L1802.31 51.6733 L1768.04 51.6733 Q1768.53 59.3701 1772.66 63.421 Q1776.83 67.4314 1784.24 67.4314 Q1788.54 67.4314 1792.55 66.3781 Q1796.6 65.3249 1800.57 63.2184 L1800.57 70.267 Q1796.56 71.9684 1792.35 72.8596 Q1788.13 73.7508 1783.8 73.7508 Q1772.94 73.7508 1766.58 67.4314 Q1760.26 61.1119 1760.26 50.3365 Q1760.26 39.1965 1766.26 32.6746 Q1772.29 26.1121 1782.5 26.1121 Q1791.66 26.1121 1796.96 32.0264 Q1802.31 37.9003 1802.31 48.0275 M1794.86 45.84 Q1794.78 39.7232 1791.42 36.0774 Q1788.09 32.4315 1782.58 32.4315 Q1776.35 32.4315 1772.58 35.9558 Q1768.85 39.4801 1768.28 45.8805 L1794.86 45.84 Z" fill="#000000" fill-rule="nonzero" fill-opacity="1" /><path clip-path="url(#clip990)" d="M1835.16 49.7694 Q1826.13 49.7694 1822.65 51.8354 Q1819.16 53.9013 1819.16 58.8839 Q1819.16 62.8538 1821.76 65.2034 Q1824.39 67.5124 1828.89 67.5124 Q1835.08 67.5124 1838.81 63.1374 Q1842.58 58.7219 1842.58 51.4303 L1842.58 49.7694 L1835.16 49.7694 M1850.03 46.6907 L1850.03 72.576 L1842.58 72.576 L1842.58 65.6895 Q1840.03 69.8214 1836.22 71.8063 Q1832.41 73.7508 1826.9 73.7508 Q1819.93 73.7508 1815.8 69.8619 Q1811.71 65.9325 1811.71 59.3701 Q1811.71 51.7138 1816.81 47.825 Q1821.96 43.9361 1832.13 43.9361 L1842.58 43.9361 L1842.58 43.2069 Q1842.58 38.0623 1839.18 35.2672 Q1835.81 32.4315 1829.7 32.4315 Q1825.81 32.4315 1822.12 33.3632 Q1818.43 34.295 1815.03 36.1584 L1815.03 29.2718 Q1819.12 27.692 1822.97 26.9223 Q1826.82 26.1121 1830.47 26.1121 Q1840.31 26.1121 1845.17 31.2163 Q1850.03 36.3204 1850.03 46.6907 Z" fill="#000000" fill-rule="nonzero" fill-opacity="1" /><path clip-path="url(#clip990)" d="M1891.67 34.1734 Q1890.42 33.4443 1888.92 33.1202 Q1887.46 32.7556 1885.68 32.7556 Q1879.36 32.7556 1875.96 36.8875 Q1872.6 40.9789 1872.6 48.6757 L1872.6 72.576 L1865.1 72.576 L1865.1 27.2059 L1872.6 27.2059 L1872.6 34.2544 Q1874.94 30.1225 1878.71 28.1376 Q1882.48 26.1121 1887.87 26.1121 Q1888.64 26.1121 1889.57 26.2337 Q1890.5 26.3147 1891.63 26.5172 L1891.67 34.1734 Z" fill="#000000" fill-rule="nonzero" fill-opacity="1" /><path clip-path="url(#clip990)" d="M1928.42 28.5427 L1928.42 35.5912 Q1925.26 33.9709 1921.85 33.1607 Q1918.45 32.3505 1914.81 32.3505 Q1909.26 32.3505 1906.46 34.0519 Q1903.71 35.7533 1903.71 39.156 Q1903.71 41.7486 1905.69 43.2475 Q1907.68 44.7058 1913.67 46.0426 L1916.22 46.6097 Q1924.16 48.3111 1927.48 51.4303 Q1930.85 54.509 1930.85 60.0587 Q1930.85 66.3781 1925.82 70.0644 Q1920.84 73.7508 1912.09 73.7508 Q1908.45 73.7508 1904.48 73.0216 Q1900.55 72.3329 1896.17 70.9151 L1896.17 63.2184 Q1900.3 65.3654 1904.31 66.4591 Q1908.32 67.5124 1912.25 67.5124 Q1917.52 67.5124 1920.36 65.73 Q1923.19 63.9071 1923.19 60.6258 Q1923.19 57.5877 1921.13 55.9673 Q1919.1 54.3469 1912.17 52.8481 L1909.58 52.2405 Q1902.65 50.7821 1899.57 47.7845 Q1896.5 44.7463 1896.5 39.4801 Q1896.5 33.0797 1901.03 29.5959 Q1905.57 26.1121 1913.91 26.1121 Q1918.05 26.1121 1921.69 26.7198 Q1925.34 27.3274 1928.42 28.5427 Z" fill="#000000" fill-rule="nonzero" fill-opacity="1" /><path clip-path="url(#clip990)" d="M1941.54 9.62495 L1948.02 9.62495 Q1954.1 19.1851 1957.1 28.3401 Q1960.14 37.4952 1960.14 46.5287 Q1960.14 55.6027 1957.1 64.7983 Q1954.1 73.9938 1948.02 83.5134 L1941.54 83.5134 Q1946.93 74.2369 1949.56 65.0818 Q1952.24 55.8863 1952.24 46.5287 Q1952.24 37.1711 1949.56 28.0566 Q1946.93 18.942 1941.54 9.62495 Z" fill="#000000" fill-rule="nonzero" fill-opacity="1" /><polyline clip-path="url(#clip991)" style="stroke:#8b0000; stroke-linecap:round; stroke-linejoin:round; stroke-width:8; stroke-opacity:1; fill:none" points="251.315,1688.65 298.659,1688.65 346.002,1688.65 393.346,1519.42 440.69,751.842 488.034,173.254 535.378,630.019 582.721,1445.79 630.065,1688.37 677.409,1688.65 724.753,1688.65 772.097,1688.65 819.44,1688.65 866.784,1688.65 914.128,1688.65 961.472,1588.45 1008.82,902.275 1056.16,203.896 1103.5,494.003 1150.85,1338.88 1198.19,1684.22 1245.53,1688.65 1292.88,1688.65 1340.22,1688.65 1387.57,1688.65 1434.91,1688.65 1482.25,1688.65 1529.6,1637.02 1576.94,1050.98 1624.28,266.409 1671.63,375.276 1718.97,1214.04 1766.32,1670.77 1813.66,1688.65 1861,1688.65 1908.35,1688.65 1955.69,1688.65 2003.04,1688.65 2050.38,1688.65 2097.72,1667.28 2145.07,1191.74 2192.41,357.596 2239.75,279.724 2287.1,1075.15 2334.44,1643.26 2381.79,1688.65 2429.13,1688.65 2476.47,1688.65 2523.82,1688.65 2571.16,1688.65 "/>
<path clip-path="url(#clip990)" d="M2110.59 285.016 L2558.79 285.016 L2558.79 181.336 L2110.59 181.336  Z" fill="#ffffff" fill-rule="evenodd" fill-opacity="1"/>
<polyline clip-path="url(#clip990)" style="stroke:#000000; stroke-linecap:round; stroke-linejoin:round; stroke-width:4; stroke-opacity:1; fill:none" points="2110.59,285.016 2558.79,285.016 2558.79,181.336 2110.59,181.336 2110.59,285.016 "/>
<polyline clip-path="url(#clip990)" style="stroke:#8b0000; stroke-linecap:round; stroke-linejoin:round; stroke-width:8; stroke-opacity:1; fill:none" points="2137.92,233.176 2301.85,233.176 "/>
<path clip-path="url(#clip990)" d="M2351.42 217.031 L2351.42 221.591 Q2348.76 220.318 2346.4 219.693 Q2344.04 219.068 2341.84 219.068 Q2338.02 219.068 2335.93 220.549 Q2333.87 222.031 2333.87 224.762 Q2333.87 227.054 2335.24 228.234 Q2336.63 229.392 2340.47 230.109 L2343.3 230.688 Q2348.53 231.683 2351 234.206 Q2353.5 236.706 2353.5 240.919 Q2353.5 245.942 2350.12 248.535 Q2346.77 251.128 2340.26 251.128 Q2337.81 251.128 2335.03 250.572 Q2332.28 250.016 2329.31 248.929 L2329.31 244.114 Q2332.16 245.711 2334.89 246.521 Q2337.62 247.331 2340.26 247.331 Q2344.27 247.331 2346.44 245.757 Q2348.62 244.183 2348.62 241.267 Q2348.62 238.72 2347.05 237.285 Q2345.49 235.85 2341.93 235.132 L2339.08 234.577 Q2333.85 233.535 2331.51 231.313 Q2329.17 229.091 2329.17 225.132 Q2329.17 220.549 2332.39 217.91 Q2335.63 215.271 2341.3 215.271 Q2343.73 215.271 2346.26 215.711 Q2348.78 216.151 2351.42 217.031 Z" fill="#000000" fill-rule="nonzero" fill-opacity="1" /><path clip-path="url(#clip990)" d="M2364.73 246.567 L2364.73 260.317 L2360.45 260.317 L2360.45 224.531 L2364.73 224.531 L2364.73 228.466 Q2366.07 226.151 2368.11 225.04 Q2370.17 223.906 2373.02 223.906 Q2377.74 223.906 2380.68 227.655 Q2383.64 231.405 2383.64 237.517 Q2383.64 243.628 2380.68 247.378 Q2377.74 251.128 2373.02 251.128 Q2370.17 251.128 2368.11 250.016 Q2366.07 248.882 2364.73 246.567 M2379.22 237.517 Q2379.22 232.817 2377.28 230.155 Q2375.36 227.47 2371.98 227.47 Q2368.6 227.47 2366.65 230.155 Q2364.73 232.817 2364.73 237.517 Q2364.73 242.216 2366.65 244.901 Q2368.6 247.563 2371.98 247.563 Q2375.36 247.563 2377.28 244.901 Q2379.22 242.216 2379.22 237.517 Z" fill="#000000" fill-rule="nonzero" fill-opacity="1" /><path clip-path="url(#clip990)" d="M2390.7 224.531 L2394.96 224.531 L2394.96 250.456 L2390.7 250.456 L2390.7 224.531 M2390.7 214.438 L2394.96 214.438 L2394.96 219.831 L2390.7 219.831 L2390.7 214.438 Z" fill="#000000" fill-rule="nonzero" fill-opacity="1" /><path clip-path="url(#clip990)" d="M2403.87 214.438 L2408.13 214.438 L2408.13 250.456 L2403.87 250.456 L2403.87 214.438 Z" fill="#000000" fill-rule="nonzero" fill-opacity="1" /><path clip-path="url(#clip990)" d="M2417.04 214.438 L2421.3 214.438 L2421.3 250.456 L2417.04 250.456 L2417.04 214.438 Z" fill="#000000" fill-rule="nonzero" fill-opacity="1" /><path clip-path="url(#clip990)" d="M2440.26 227.517 Q2436.84 227.517 2434.85 230.202 Q2432.85 232.864 2432.85 237.517 Q2432.85 242.169 2434.82 244.854 Q2436.81 247.516 2440.26 247.516 Q2443.66 247.516 2445.66 244.831 Q2447.65 242.146 2447.65 237.517 Q2447.65 232.91 2445.66 230.225 Q2443.66 227.517 2440.26 227.517 M2440.26 223.906 Q2445.82 223.906 2448.99 227.517 Q2452.16 231.128 2452.16 237.517 Q2452.16 243.882 2448.99 247.516 Q2445.82 251.128 2440.26 251.128 Q2434.68 251.128 2431.51 247.516 Q2428.36 243.882 2428.36 237.517 Q2428.36 231.128 2431.51 227.517 Q2434.68 223.906 2440.26 223.906 Z" fill="#000000" fill-rule="nonzero" fill-opacity="1" /><path clip-path="url(#clip990)" d="M2456.16 224.531 L2460.68 224.531 L2468.78 246.29 L2476.88 224.531 L2481.4 224.531 L2471.67 250.456 L2465.89 250.456 L2456.16 224.531 Z" fill="#000000" fill-rule="nonzero" fill-opacity="1" /><path clip-path="url(#clip990)" d="M2509.45 236.429 L2509.45 238.512 L2489.87 238.512 Q2490.15 242.91 2492.51 245.225 Q2494.89 247.516 2499.13 247.516 Q2501.58 247.516 2503.87 246.915 Q2506.19 246.313 2508.46 245.109 L2508.46 249.137 Q2506.16 250.109 2503.76 250.618 Q2501.35 251.128 2498.87 251.128 Q2492.67 251.128 2489.04 247.516 Q2485.42 243.905 2485.42 237.748 Q2485.42 231.382 2488.85 227.655 Q2492.3 223.906 2498.13 223.906 Q2503.36 223.906 2506.4 227.285 Q2509.45 230.642 2509.45 236.429 M2505.19 235.179 Q2505.15 231.683 2503.22 229.6 Q2501.33 227.517 2498.18 227.517 Q2494.61 227.517 2492.46 229.53 Q2490.33 231.544 2490.01 235.202 L2505.19 235.179 Z" fill="#000000" fill-rule="nonzero" fill-opacity="1" /><path clip-path="url(#clip990)" d="M2531.47 228.512 Q2530.75 228.095 2529.89 227.91 Q2529.06 227.702 2528.04 227.702 Q2524.43 227.702 2522.48 230.063 Q2520.56 232.401 2520.56 236.799 L2520.56 250.456 L2516.28 250.456 L2516.28 224.531 L2520.56 224.531 L2520.56 228.558 Q2521.91 226.197 2524.06 225.063 Q2526.21 223.906 2529.29 223.906 Q2529.73 223.906 2530.26 223.975 Q2530.79 224.021 2531.44 224.137 L2531.47 228.512 Z" fill="#000000" fill-rule="nonzero" fill-opacity="1" /></svg>
