<?xml version="1.0" encoding="utf-8"?>
<svg xmlns="http://www.w3.org/2000/svg" xmlns:xlink="http://www.w3.org/1999/xlink" width="900" height="350" viewBox="0 0 3600 1400">
<defs>
  <clipPath id="clip540">
    <rect x="0" y="0" width="3600" height="1400"/>
  </clipPath>
</defs>
<path clip-path="url(#clip540)" d="M0 1400 L3600 1400 L3600 -2.22045e-14 L0 -2.22045e-14  Z" fill="#ffffff" fill-rule="evenodd" fill-opacity="1"/>
<defs>
  <clipPath id="clip541">
    <rect x="361" y="98" width="3192" height="1162"/>
  </clipPath>
</defs>
<path clip-path="url(#clip540)" d="M361.903 1259.38 L3552.76 1259.38 L3552.76 98.2721 L361.903 98.2721  Z" fill="#ffffff" fill-rule="evenodd" fill-opacity="1"/>
<polyline clip-path="url(#clip541)" style="stroke:#000000; stroke-linecap:round; stroke-linejoin:round; stroke-width:2; stroke-opacity:0.1; fill:none" points="504.512,1259.38 504.512,98.2721 "/>
<polyline clip-path="url(#clip541)" style="stroke:#000000; stroke-linecap:round; stroke-linejoin:round; stroke-width:2; stroke-opacity:0.1; fill:none" points="1287.7,1259.38 1287.7,98.2721 "/>
<polyline clip-path="url(#clip541)" style="stroke:#000000; stroke-linecap:round; stroke-linejoin:round; stroke-width:2; stroke-opacity:0.1; fill:none" points="2070.89,1259.38 2070.89,98.2721 "/>
<polyline clip-path="url(#clip541)" style="stroke:#000000; stroke-linecap:round; stroke-linejoin:round; stroke-width:2; stroke-opacity:0.1; fill:none" points="2854.08,1259.38 2854.08,98.2721 "/>
<polyline clip-path="url(#clip541)" style="stroke:#000000; stroke-linecap:round; stroke-linejoin:round; stroke-width:2; stroke-opacity:0.1; fill:none" points="361.903,1259.38 3552.76,1259.38 "/>
<polyline clip-path="url(#clip541)" style="stroke:#000000; stroke-linecap:round; stroke-linejoin:round; stroke-width:2; stroke-opacity:0.1; fill:none" points="361.903,1017.2 3552.76,1017.2 "/>
<polyline clip-path="url(#clip541)" style="stroke:#000000; stroke-linecap:round; stroke-linejoin:round; stroke-width:2; stroke-opacity:0.1; fill:none" points="361.903,775.02 3552.76,775.02 "/>
<polyline clip-path="url(#clip541)" style="stroke:#000000; stroke-linecap:round; stroke-linejoin:round; stroke-width:2; stroke-opacity:0.1; fill:none" points="361.903,532.84 3552.76,532.84 "/>
<polyline clip-path="url(#clip541)" style="stroke:#000000; stroke-linecap:round; stroke-linejoin:round; stroke-width:2; stroke-opacity:0.1; fill:none" points="361.903,290.66 3552.76,290.66 "/>
<polyline clip-path="url(#clip540)" style="stroke:#000000; stroke-linecap:round; stroke-linejoin:round; stroke-width:4; stroke-opacity:1; fill:none" points="361.903,1259.38 3552.76,1259.38 "/>
<polyline clip-path="url(#clip540)" style="stroke:#000000; stroke-linecap:round; stroke-linejoin:round; stroke-width:4; stroke-opacity:1; fill:none" points="504.512,1259.38 504.512,1240.48 "/>
<polyline clip-path="url(#clip540)" style="stroke:#000000; stroke-linecap:round; stroke-linejoin:round; stroke-width:4; stroke-opacity:1; fill:none" points="1287.7,1259.38 1287.7,1240.48 "/>
<polyline clip-path="url(#clip540)" style="stroke:#000000; stroke-linecap:round; stroke-linejoin:round; stroke-width:4; stroke-opacity:1; fill:none" points="2070.89,1259.38 2070.89,1240.48 "/>
<polyline clip-path="url(#clip540)" style="stroke:#000000; stroke-linecap:round; stroke-linejoin:round; stroke-width:4; stroke-opacity:1; fill:none" points="2854.08,1259.38 2854.08,1240.48 "/>
<path clip-path="url(#clip540)" d="M504.512 1299.9 Q500.901 1299.9 499.072 1303.46 Q497.267 1307 497.267 1314.13 Q497.267 1321.24 499.072 1324.81 Q500.901 1328.35 504.512 1328.35 Q508.146 1328.35 509.952 1324.81 Q511.78 1321.24 511.78 1314.13 Q511.78 1307 509.952 1303.46 Q508.146 1299.9 504.512 1299.9 M504.512 1296.19 Q510.322 1296.19 513.378 1300.8 Q516.456 1305.38 516.456 1314.13 Q516.456 1322.86 513.378 1327.47 Q510.322 1332.05 504.512 1332.05 Q498.702 1332.05 495.623 1327.47 Q492.568 1322.86 492.568 1314.13 Q492.568 1305.38 495.623 1300.8 Q498.702 1296.19 504.512 1296.19 Z" fill="#000000" fill-rule="nonzero" fill-opacity="1" /><path clip-path="url(#clip540)" d="M1247.31 1327.44 L1254.95 1327.44 L1254.95 1301.08 L1246.64 1302.75 L1246.64 1298.49 L1254.9 1296.82 L1259.58 1296.82 L1259.58 1327.44 L1267.22 1327.44 L1267.22 1331.38 L1247.31 1331.38 L1247.31 1327.44 Z" fill="#000000" fill-rule="nonzero" fill-opacity="1" /><path clip-path="url(#clip540)" d="M1286.66 1299.9 Q1283.05 1299.9 1281.22 1303.46 Q1279.42 1307 1279.42 1314.13 Q1279.42 1321.24 1281.22 1324.81 Q1283.05 1328.35 1286.66 1328.35 Q1290.29 1328.35 1292.1 1324.81 Q1293.93 1321.24 1293.93 1314.13 Q1293.93 1307 1292.1 1303.46 Q1290.29 1299.9 1286.66 1299.9 M1286.66 1296.19 Q1292.47 1296.19 1295.53 1300.8 Q1298.6 1305.38 1298.6 1314.13 Q1298.6 1322.86 1295.53 1327.47 Q1292.47 1332.05 1286.66 1332.05 Q1280.85 1332.05 1277.77 1327.47 Q1274.72 1322.86 1274.72 1314.13 Q1274.72 1305.38 1277.77 1300.8 Q1280.85 1296.19 1286.66 1296.19 Z" fill="#000000" fill-rule="nonzero" fill-opacity="1" /><path clip-path="url(#clip540)" d="M1316.82 1299.9 Q1313.21 1299.9 1311.38 1303.46 Q1309.58 1307 1309.58 1314.13 Q1309.58 1321.24 1311.38 1324.81 Q1313.21 1328.35 1316.82 1328.35 Q1320.46 1328.35 1322.26 1324.81 Q1324.09 1321.24 1324.09 1314.13 Q1324.09 1307 1322.26 1303.46 Q1320.46 1299.9 1316.82 1299.9 M1316.82 1296.19 Q1322.63 1296.19 1325.69 1300.8 Q1328.77 1305.38 1328.77 1314.13 Q1328.77 1322.86 1325.69 1327.47 Q1322.63 1332.05 1316.82 1332.05 Q1311.01 1332.05 1307.93 1327.47 Q1304.88 1322.86 1304.88 1314.13 Q1304.88 1305.38 1307.93 1300.8 Q1311.01 1296.19 1316.82 1296.19 Z" fill="#000000" fill-rule="nonzero" fill-opacity="1" /><path clip-path="url(#clip540)" d="M2034.58 1327.44 L2050.9 1327.44 L2050.9 1331.38 L2028.96 1331.38 L2028.96 1327.44 Q2031.62 1324.69 2036.2 1320.06 Q2040.81 1315.41 2041.99 1314.07 Q2044.24 1311.54 2045.12 1309.81 Q2046.02 1308.05 2046.02 1306.36 Q2046.02 1303.6 2044.08 1301.87 Q2042.15 1300.13 2039.05 1300.13 Q2036.85 1300.13 2034.4 1300.89 Q2031.97 1301.66 2029.19 1303.21 L2029.19 1298.49 Q2032.02 1297.35 2034.47 1296.77 Q2036.92 1296.19 2038.96 1296.19 Q2044.33 1296.19 2047.52 1298.88 Q2050.72 1301.57 2050.72 1306.06 Q2050.72 1308.19 2049.91 1310.11 Q2049.12 1312 2047.02 1314.6 Q2046.44 1315.27 2043.33 1318.49 Q2040.23 1321.68 2034.58 1327.44 Z" fill="#000000" fill-rule="nonzero" fill-opacity="1" /><path clip-path="url(#clip540)" d="M2070.72 1299.9 Q2067.11 1299.9 2065.28 1303.46 Q2063.47 1307 2063.47 1314.13 Q2063.47 1321.24 2065.28 1324.81 Q2067.11 1328.35 2070.72 1328.35 Q2074.35 1328.35 2076.16 1324.81 Q2077.99 1321.24 2077.99 1314.13 Q2077.99 1307 2076.16 1303.46 Q2074.35 1299.9 2070.72 1299.9 M2070.72 1296.19 Q2076.53 1296.19 2079.58 1300.8 Q2082.66 1305.38 2082.66 1314.13 Q2082.66 1322.86 2079.58 1327.47 Q2076.53 1332.05 2070.72 1332.05 Q2064.91 1332.05 2061.83 1327.47 Q2058.77 1322.86 2058.77 1314.13 Q2058.77 1305.38 2061.83 1300.8 Q2064.91 1296.19 2070.72 1296.19 Z" fill="#000000" fill-rule="nonzero" fill-opacity="1" /><path clip-path="url(#clip540)" d="M2100.88 1299.9 Q2097.27 1299.9 2095.44 1303.46 Q2093.64 1307 2093.64 1314.13 Q2093.64 1321.24 2095.44 1324.81 Q2097.27 1328.35 2100.88 1328.35 Q2104.51 1328.35 2106.32 1324.81 Q2108.15 1321.24 2108.15 1314.13 Q2108.15 1307 2106.32 1303.46 Q2104.51 1299.9 2100.88 1299.9 M2100.88 1296.19 Q2106.69 1296.19 2109.75 1300.8 Q2112.82 1305.38 2112.82 1314.13 Q2112.82 1322.86 2109.75 1327.47 Q2106.69 1332.05 2100.88 1332.05 Q2095.07 1332.05 2091.99 1327.47 Q2088.94 1322.86 2088.94 1314.13 Q2088.94 1305.38 2091.99 1300.8 Q2095.07 1296.19 2100.88 1296.19 Z" fill="#000000" fill-rule="nonzero" fill-opacity="1" /><path clip-path="url(#clip540)" d="M2827.84 1312.75 Q2831.2 1313.46 2833.08 1315.73 Q2834.97 1318 2834.97 1321.33 Q2834.97 1326.45 2831.46 1329.25 Q2827.94 1332.05 2821.46 1332.05 Q2819.28 1332.05 2816.96 1331.61 Q2814.67 1331.19 2812.22 1330.34 L2812.22 1325.82 Q2814.16 1326.96 2816.48 1327.54 Q2818.79 1328.12 2821.32 1328.12 Q2825.71 1328.12 2828.01 1326.38 Q2830.32 1324.64 2830.32 1321.33 Q2830.32 1318.28 2828.17 1316.57 Q2826.04 1314.83 2822.22 1314.83 L2818.19 1314.83 L2818.19 1310.99 L2822.4 1310.99 Q2825.85 1310.99 2827.68 1309.62 Q2829.51 1308.23 2829.51 1305.64 Q2829.51 1302.98 2827.61 1301.57 Q2825.74 1300.13 2822.22 1300.13 Q2820.3 1300.13 2818.1 1300.55 Q2815.9 1300.96 2813.26 1301.84 L2813.26 1297.68 Q2815.92 1296.94 2818.24 1296.57 Q2820.58 1296.19 2822.64 1296.19 Q2827.96 1296.19 2831.06 1298.63 Q2834.16 1301.03 2834.16 1305.15 Q2834.16 1308.02 2832.52 1310.01 Q2830.88 1311.98 2827.84 1312.75 Z" fill="#000000" fill-rule="nonzero" fill-opacity="1" /><path clip-path="url(#clip540)" d="M2853.84 1299.9 Q2850.23 1299.9 2848.4 1303.46 Q2846.59 1307 2846.59 1314.13 Q2846.59 1321.24 2848.4 1324.81 Q2850.23 1328.35 2853.84 1328.35 Q2857.47 1328.35 2859.28 1324.81 Q2861.11 1321.24 2861.11 1314.13 Q2861.11 1307 2859.28 1303.46 Q2857.47 1299.9 2853.84 1299.9 M2853.84 1296.19 Q2859.65 1296.19 2862.7 1300.8 Q2865.78 1305.38 2865.78 1314.13 Q2865.78 1322.86 2862.7 1327.47 Q2859.65 1332.05 2853.84 1332.05 Q2848.03 1332.05 2844.95 1327.47 Q2841.89 1322.86 2841.89 1314.13 Q2841.89 1305.38 2844.95 1300.8 Q2848.03 1296.19 2853.84 1296.19 Z" fill="#000000" fill-rule="nonzero" fill-opacity="1" /><path clip-path="url(#clip540)" d="M2884 1299.9 Q2880.39 1299.9 2878.56 1303.46 Q2876.76 1307 2876.76 1314.13 Q2876.76 1321.24 2878.56 1324.81 Q2880.39 1328.35 2884 1328.35 Q2887.64 1328.35 2889.44 1324.81 Q2891.27 1321.24 2891.27 1314.13 Q2891.27 1307 2889.44 1303.46 Q2887.64 1299.9 2884 1299.9 M2884 1296.19 Q2889.81 1296.19 2892.87 1300.8 Q2895.95 1305.38 2895.95 1314.13 Q2895.95 1322.86 2892.87 1327.47 Q2889.81 1332.05 2884 1332.05 Q2878.19 1332.05 2875.11 1327.47 Q2872.06 1322.86 2872.06 1314.13 Q2872.06 1305.38 2875.11 1300.8 Q2878.19 1296.19 2884 1296.19 Z" fill="#000000" fill-rule="nonzero" fill-opacity="1" /><path clip-path="url(#clip540)" d="M1903.57 1380.01 L1903.57 1416.96 L1911.34 1416.96 Q1921.17 1416.96 1925.72 1412.5 Q1930.31 1408.05 1930.31 1398.44 Q1930.31 1388.89 1925.72 1384.46 Q1921.17 1380.01 1911.34 1380.01 L1903.57 1380.01 M1897.14 1374.72 L1910.35 1374.72 Q1924.16 1374.72 1930.63 1380.48 Q1937.09 1386.21 1937.09 1398.44 Q1937.09 1410.72 1930.59 1416.48 Q1924.1 1422.24 1910.35 1422.24 L1897.14 1422.24 L1897.14 1374.72 Z" fill="#000000" fill-rule="nonzero" fill-opacity="1" /><path clip-path="url(#clip540)" d="M1963.28 1404.32 Q1956.18 1404.32 1953.45 1405.95 Q1950.71 1407.57 1950.71 1411.49 Q1950.71 1414.6 1952.75 1416.45 Q1954.82 1418.27 1958.35 1418.27 Q1963.22 1418.27 1966.15 1414.83 Q1969.11 1411.36 1969.11 1405.63 L1969.11 1404.32 L1963.28 1404.32 M1974.96 1401.91 L1974.96 1422.24 L1969.11 1422.24 L1969.11 1416.83 Q1967.1 1420.08 1964.11 1421.64 Q1961.12 1423.17 1956.79 1423.17 Q1951.31 1423.17 1948.07 1420.11 Q1944.85 1417.02 1944.85 1411.87 Q1944.85 1405.85 1948.86 1402.8 Q1952.91 1399.74 1960.89 1399.74 L1969.11 1399.74 L1969.11 1399.17 Q1969.11 1395.13 1966.43 1392.93 Q1963.79 1390.7 1958.98 1390.7 Q1955.93 1390.7 1953.03 1391.43 Q1950.14 1392.17 1947.46 1393.63 L1947.46 1388.22 Q1950.68 1386.98 1953.7 1386.37 Q1956.72 1385.74 1959.59 1385.74 Q1967.32 1385.74 1971.14 1389.75 Q1974.96 1393.76 1974.96 1401.91 Z" fill="#000000" fill-rule="nonzero" fill-opacity="1" /><path clip-path="url(#clip540)" d="M2001.86 1425.55 Q1999.38 1431.92 1997.02 1433.86 Q1994.66 1435.8 1990.72 1435.8 L1986.04 1435.8 L1986.04 1430.9 L1989.48 1430.9 Q1991.9 1430.9 1993.23 1429.76 Q1994.57 1428.61 1996.19 1424.34 L1997.24 1421.67 L1982.82 1386.6 L1989.03 1386.6 L2000.17 1414.48 L2011.31 1386.6 L2017.52 1386.6 L2001.86 1425.55 Z" fill="#000000" fill-rule="nonzero" fill-opacity="1" /><polyline clip-path="url(#clip540)" style="stroke:#000000; stroke-linecap:round; stroke-linejoin:round; stroke-width:4; stroke-opacity:1; fill:none" points="361.903,1259.38 361.903,98.2721 "/>
<polyline clip-path="url(#clip540)" style="stroke:#000000; stroke-linecap:round; stroke-linejoin:round; stroke-width:4; stroke-opacity:1; fill:none" points="361.903,1259.38 380.801,1259.38 "/>
<polyline clip-path="url(#clip540)" style="stroke:#000000; stroke-linecap:round; stroke-linejoin:round; stroke-width:4; stroke-opacity:1; fill:none" points="361.903,1017.2 380.801,1017.2 "/>
<polyline clip-path="url(#clip540)" style="stroke:#000000; stroke-linecap:round; stroke-linejoin:round; stroke-width:4; stroke-opacity:1; fill:none" points="361.903,775.02 380.801,775.02 "/>
<polyline clip-path="url(#clip540)" style="stroke:#000000; stroke-linecap:round; stroke-linejoin:round; stroke-width:4; stroke-opacity:1; fill:none" points="361.903,532.84 380.801,532.84 "/>
<polyline clip-path="url(#clip540)" style="stroke:#000000; stroke-linecap:round; stroke-linejoin:round; stroke-width:4; stroke-opacity:1; fill:none" points="361.903,290.66 380.801,290.66 "/>
<path clip-path="url(#clip540)" d="M295.959 1245.18 Q292.348 1245.18 290.519 1248.74 Q288.714 1252.28 288.714 1259.41 Q288.714 1266.52 290.519 1270.09 Q292.348 1273.63 295.959 1273.63 Q299.593 1273.63 301.399 1270.09 Q303.228 1266.52 303.228 1259.41 Q303.228 1252.28 301.399 1248.74 Q299.593 1245.18 295.959 1245.18 M295.959 1241.47 Q301.769 1241.47 304.825 1246.08 Q307.903 1250.66 307.903 1259.41 Q307.903 1268.14 304.825 1272.75 Q301.769 1277.33 295.959 1277.33 Q290.149 1277.33 287.07 1272.75 Q284.015 1268.14 284.015 1259.41 Q284.015 1250.66 287.07 1246.08 Q290.149 1241.47 295.959 1241.47 Z" fill="#000000" fill-rule="nonzero" fill-opacity="1" /><path clip-path="url(#clip540)" d="M92.0785 1006.37 L110.435 1006.37 L110.435 1010.3 L96.3609 1010.3 L96.3609 1018.77 Q97.3794 1018.43 98.3979 1018.27 Q99.4164 1018.08 100.435 1018.08 Q106.222 1018.08 109.602 1021.25 Q112.981 1024.42 112.981 1029.84 Q112.981 1035.42 109.509 1038.52 Q106.037 1041.6 99.7173 1041.6 Q97.5414 1041.6 95.2729 1041.23 Q93.0276 1040.86 90.6202 1040.12 L90.6202 1035.42 Q92.7035 1036.55 94.9257 1037.11 Q97.1479 1037.66 99.6247 1037.66 Q103.629 1037.66 105.967 1035.56 Q108.305 1033.45 108.305 1029.84 Q108.305 1026.23 105.967 1024.12 Q103.629 1022.02 99.6247 1022.02 Q97.7497 1022.02 95.8748 1022.43 Q94.0229 1022.85 92.0785 1023.73 L92.0785 1006.37 Z" fill="#000000" fill-rule="nonzero" fill-opacity="1" /><path clip-path="url(#clip540)" d="M122.194 1035.05 L127.078 1035.05 L127.078 1040.93 L122.194 1040.93 L122.194 1035.05 Z" fill="#000000" fill-rule="nonzero" fill-opacity="1" /><path clip-path="url(#clip540)" d="M147.263 1009.45 Q143.652 1009.45 141.824 1013.01 Q140.018 1016.55 140.018 1023.68 Q140.018 1030.79 141.824 1034.35 Q143.652 1037.9 147.263 1037.9 Q150.898 1037.9 152.703 1034.35 Q154.532 1030.79 154.532 1023.68 Q154.532 1016.55 152.703 1013.01 Q150.898 1009.45 147.263 1009.45 M147.263 1005.74 Q153.074 1005.74 156.129 1010.35 Q159.208 1014.93 159.208 1023.68 Q159.208 1032.41 156.129 1037.02 Q153.074 1041.6 147.263 1041.6 Q141.453 1041.6 138.375 1037.02 Q135.319 1032.41 135.319 1023.68 Q135.319 1014.93 138.375 1010.35 Q141.453 1005.74 147.263 1005.74 Z" fill="#000000" fill-rule="nonzero" fill-opacity="1" /><path clip-path="url(#clip540)" d="M177.425 1009.45 Q173.814 1009.45 171.985 1013.01 Q170.18 1016.55 170.18 1023.68 Q170.18 1030.79 171.985 1034.35 Q173.814 1037.9 177.425 1037.9 Q181.059 1037.9 182.865 1034.35 Q184.694 1030.79 184.694 1023.68 Q184.694 1016.55 182.865 1013.01 Q181.059 1009.45 177.425 1009.45 M177.425 1005.74 Q183.235 1005.74 186.291 1010.35 Q189.37 1014.93 189.37 1023.68 Q189.37 1032.41 186.291 1037.02 Q183.235 1041.6 177.425 1041.6 Q171.615 1041.6 168.536 1037.02 Q165.481 1032.41 165.481 1023.68 Q165.481 1014.93 168.536 1010.35 Q171.615 1005.74 177.425 1005.74 Z" fill="#000000" fill-rule="nonzero" fill-opacity="1" /><path clip-path="url(#clip540)" d="M225.758 1015.46 L215.18 1026.09 L225.758 1036.67 L223.004 1039.47 L212.379 1028.84 L201.754 1039.47 L199.022 1036.67 L209.578 1026.09 L199.022 1015.46 L201.754 1012.66 L212.379 1023.29 L223.004 1012.66 L225.758 1015.46 Z" fill="#000000" fill-rule="nonzero" fill-opacity="1" /><path clip-path="url(#clip540)" d="M238.119 1036.99 L245.758 1036.99 L245.758 1010.63 L237.448 1012.29 L237.448 1008.03 L245.712 1006.37 L250.388 1006.37 L250.388 1036.99 L258.027 1036.99 L258.027 1040.93 L238.119 1040.93 L238.119 1036.99 Z" fill="#000000" fill-rule="nonzero" fill-opacity="1" /><path clip-path="url(#clip540)" d="M277.471 1009.45 Q273.86 1009.45 272.031 1013.01 Q270.226 1016.55 270.226 1023.68 Q270.226 1030.79 272.031 1034.35 Q273.86 1037.9 277.471 1037.9 Q281.105 1037.9 282.911 1034.35 Q284.739 1030.79 284.739 1023.68 Q284.739 1016.55 282.911 1013.01 Q281.105 1009.45 277.471 1009.45 M277.471 1005.74 Q283.281 1005.74 286.337 1010.35 Q289.415 1014.93 289.415 1023.68 Q289.415 1032.41 286.337 1037.02 Q283.281 1041.6 277.471 1041.6 Q271.661 1041.6 268.582 1037.02 Q265.527 1032.41 265.527 1023.68 Q265.527 1014.93 268.582 1010.35 Q271.661 1005.74 277.471 1005.74 Z" fill="#000000" fill-rule="nonzero" fill-opacity="1" /><path clip-path="url(#clip540)" d="M302.111 998.377 Q304.838 998.96 306.361 1000.8 Q307.903 1002.65 307.903 1005.35 Q307.903 1009.51 305.045 1011.79 Q302.186 1014.06 296.92 1014.06 Q295.152 1014.06 293.271 1013.71 Q291.409 1013.37 289.415 1012.67 L289.415 1009 Q290.995 1009.92 292.876 1010.39 Q294.757 1010.87 296.807 1010.87 Q300.38 1010.87 302.242 1009.45 Q304.123 1008.04 304.123 1005.35 Q304.123 1002.87 302.374 1001.48 Q300.644 1000.07 297.54 1000.07 L294.268 1000.07 L294.268 996.947 L297.691 996.947 Q300.493 996.947 301.979 995.838 Q303.465 994.709 303.465 992.603 Q303.465 990.44 301.923 989.293 Q300.399 988.127 297.54 988.127 Q295.979 988.127 294.193 988.465 Q292.406 988.804 290.262 989.518 L290.262 986.133 Q292.425 985.531 294.305 985.23 Q296.205 984.929 297.879 984.929 Q302.205 984.929 304.725 986.904 Q307.245 988.86 307.245 992.208 Q307.245 994.54 305.91 996.157 Q304.574 997.756 302.111 998.377 Z" fill="#000000" fill-rule="nonzero" fill-opacity="1" /><path clip-path="url(#clip540)" d="M90.8676 794.812 L98.5064 794.812 L98.5064 768.447 L90.1963 770.113 L90.1963 765.854 L98.4601 764.187 L103.136 764.187 L103.136 794.812 L110.775 794.812 L110.775 798.747 L90.8676 798.747 L90.8676 794.812 Z" fill="#000000" fill-rule="nonzero" fill-opacity="1" /><path clip-path="url(#clip540)" d="M120.219 792.868 L125.103 792.868 L125.103 798.747 L120.219 798.747 L120.219 792.868 Z" fill="#000000" fill-rule="nonzero" fill-opacity="1" /><path clip-path="url(#clip540)" d="M145.289 767.266 Q141.677 767.266 139.849 770.831 Q138.043 774.373 138.043 781.502 Q138.043 788.609 139.849 792.173 Q141.677 795.715 145.289 795.715 Q148.923 795.715 150.728 792.173 Q152.557 788.609 152.557 781.502 Q152.557 774.373 150.728 770.831 Q148.923 767.266 145.289 767.266 M145.289 763.562 Q151.099 763.562 154.154 768.169 Q157.233 772.752 157.233 781.502 Q157.233 790.229 154.154 794.835 Q151.099 799.419 145.289 799.419 Q139.478 799.419 136.4 794.835 Q133.344 790.229 133.344 781.502 Q133.344 772.752 136.4 768.169 Q139.478 763.562 145.289 763.562 Z" fill="#000000" fill-rule="nonzero" fill-opacity="1" /><path clip-path="url(#clip540)" d="M175.45 767.266 Q171.839 767.266 170.011 770.831 Q168.205 774.373 168.205 781.502 Q168.205 788.609 170.011 792.173 Q171.839 795.715 175.45 795.715 Q179.085 795.715 180.89 792.173 Q182.719 788.609 182.719 781.502 Q182.719 774.373 180.89 770.831 Q179.085 767.266 175.45 767.266 M175.45 763.562 Q181.261 763.562 184.316 768.169 Q187.395 772.752 187.395 781.502 Q187.395 790.229 184.316 794.835 Q181.261 799.419 175.45 799.419 Q169.64 799.419 166.562 794.835 Q163.506 790.229 163.506 781.502 Q163.506 772.752 166.562 768.169 Q169.64 763.562 175.45 763.562 Z" fill="#000000" fill-rule="nonzero" fill-opacity="1" /><path clip-path="url(#clip540)" d="M223.784 773.285 L213.205 783.91 L223.784 794.488 L221.029 797.289 L210.404 786.664 L199.779 797.289 L197.048 794.488 L207.603 783.91 L197.048 773.285 L199.779 770.484 L210.404 781.109 L221.029 770.484 L223.784 773.285 Z" fill="#000000" fill-rule="nonzero" fill-opacity="1" /><path clip-path="url(#clip540)" d="M236.145 794.812 L243.783 794.812 L243.783 768.447 L235.473 770.113 L235.473 765.854 L243.737 764.187 L248.413 764.187 L248.413 794.812 L256.052 794.812 L256.052 798.747 L236.145 798.747 L236.145 794.812 Z" fill="#000000" fill-rule="nonzero" fill-opacity="1" /><path clip-path="url(#clip540)" d="M275.496 767.266 Q271.885 767.266 270.056 770.831 Q268.251 774.373 268.251 781.502 Q268.251 788.609 270.056 792.173 Q271.885 795.715 275.496 795.715 Q279.13 795.715 280.936 792.173 Q282.765 788.609 282.765 781.502 Q282.765 774.373 280.936 770.831 Q279.13 767.266 275.496 767.266 M275.496 763.562 Q281.306 763.562 284.362 768.169 Q287.441 772.752 287.441 781.502 Q287.441 790.229 284.362 794.835 Q281.306 799.419 275.496 799.419 Q269.686 799.419 266.607 794.835 Q263.552 790.229 263.552 781.502 Q263.552 772.752 266.607 768.169 Q269.686 763.562 275.496 763.562 Z" fill="#000000" fill-rule="nonzero" fill-opacity="1" /><path clip-path="url(#clip540)" d="M300.117 746.567 L290.525 761.557 L300.117 761.557 L300.117 746.567 M299.12 743.257 L303.897 743.257 L303.897 761.557 L307.903 761.557 L307.903 764.717 L303.897 764.717 L303.897 771.337 L300.117 771.337 L300.117 764.717 L287.441 764.717 L287.441 761.049 L299.12 743.257 Z" fill="#000000" fill-rule="nonzero" fill-opacity="1" /><path clip-path="url(#clip540)" d="M90.8676 552.632 L98.5064 552.632 L98.5064 526.267 L90.1963 527.933 L90.1963 523.674 L98.4601 522.007 L103.136 522.007 L103.136 552.632 L110.775 552.632 L110.775 556.567 L90.8676 556.567 L90.8676 552.632 Z" fill="#000000" fill-rule="nonzero" fill-opacity="1" /><path clip-path="url(#clip540)" d="M120.219 550.688 L125.103 550.688 L125.103 556.567 L120.219 556.567 L120.219 550.688 Z" fill="#000000" fill-rule="nonzero" fill-opacity="1" /><path clip-path="url(#clip540)" d="M135.335 522.007 L153.691 522.007 L153.691 525.943 L139.617 525.943 L139.617 534.415 Q140.636 534.068 141.654 533.906 Q142.673 533.72 143.691 533.72 Q149.478 533.72 152.858 536.892 Q156.238 540.063 156.238 545.48 Q156.238 551.058 152.765 554.16 Q149.293 557.239 142.974 557.239 Q140.798 557.239 138.529 556.868 Q136.284 556.498 133.877 555.757 L133.877 551.058 Q135.96 552.193 138.182 552.748 Q140.404 553.304 142.881 553.304 Q146.886 553.304 149.224 551.197 Q151.562 549.091 151.562 545.48 Q151.562 541.868 149.224 539.762 Q146.886 537.656 142.881 537.656 Q141.006 537.656 139.131 538.072 Q137.279 538.489 135.335 539.369 L135.335 522.007 Z" fill="#000000" fill-rule="nonzero" fill-opacity="1" /><path clip-path="url(#clip540)" d="M175.45 525.086 Q171.839 525.086 170.011 528.651 Q168.205 532.193 168.205 539.322 Q168.205 546.429 170.011 549.993 Q171.839 553.535 175.45 553.535 Q179.085 553.535 180.89 549.993 Q182.719 546.429 182.719 539.322 Q182.719 532.193 180.89 528.651 Q179.085 525.086 175.45 525.086 M175.45 521.382 Q181.261 521.382 184.316 525.989 Q187.395 530.572 187.395 539.322 Q187.395 548.049 184.316 552.655 Q181.261 557.239 175.45 557.239 Q169.64 557.239 166.562 552.655 Q163.506 548.049 163.506 539.322 Q163.506 530.572 166.562 525.989 Q169.64 521.382 175.45 521.382 Z" fill="#000000" fill-rule="nonzero" fill-opacity="1" /><path clip-path="url(#clip540)" d="M223.784 531.105 L213.205 541.73 L223.784 552.308 L221.029 555.109 L210.404 544.484 L199.779 555.109 L197.048 552.308 L207.603 541.73 L197.048 531.105 L199.779 528.304 L210.404 538.929 L221.029 528.304 L223.784 531.105 Z" fill="#000000" fill-rule="nonzero" fill-opacity="1" /><path clip-path="url(#clip540)" d="M236.145 552.632 L243.783 552.632 L243.783 526.267 L235.473 527.933 L235.473 523.674 L243.737 522.007 L248.413 522.007 L248.413 552.632 L256.052 552.632 L256.052 556.567 L236.145 556.567 L236.145 552.632 Z" fill="#000000" fill-rule="nonzero" fill-opacity="1" /><path clip-path="url(#clip540)" d="M275.496 525.086 Q271.885 525.086 270.056 528.651 Q268.251 532.193 268.251 539.322 Q268.251 546.429 270.056 549.993 Q271.885 553.535 275.496 553.535 Q279.13 553.535 280.936 549.993 Q282.765 546.429 282.765 539.322 Q282.765 532.193 280.936 528.651 Q279.13 525.086 275.496 525.086 M275.496 521.382 Q281.306 521.382 284.362 525.989 Q287.441 530.572 287.441 539.322 Q287.441 548.049 284.362 552.655 Q281.306 557.239 275.496 557.239 Q269.686 557.239 266.607 552.655 Q263.552 548.049 263.552 539.322 Q263.552 530.572 266.607 525.989 Q269.686 521.382 275.496 521.382 Z" fill="#000000" fill-rule="nonzero" fill-opacity="1" /><path clip-path="url(#clip540)" d="M300.117 504.387 L290.525 519.377 L300.117 519.377 L300.117 504.387 M299.12 501.077 L303.897 501.077 L303.897 519.377 L307.903 519.377 L307.903 522.537 L303.897 522.537 L303.897 529.157 L300.117 529.157 L300.117 522.537 L287.441 522.537 L287.441 518.869 L299.12 501.077 Z" fill="#000000" fill-rule="nonzero" fill-opacity="1" /><path clip-path="url(#clip540)" d="M94.0851 310.452 L110.404 310.452 L110.404 314.388 L88.4602 314.388 L88.4602 310.452 Q91.1222 307.698 95.7055 303.068 Q100.312 298.415 101.492 297.073 Q103.738 294.55 104.617 292.814 Q105.52 291.054 105.52 289.364 Q105.52 286.61 103.576 284.874 Q101.655 283.138 98.5527 283.138 Q96.3536 283.138 93.8999 283.902 Q91.4694 284.665 88.6916 286.216 L88.6916 281.494 Q91.5157 280.36 93.9694 279.781 Q96.4231 279.203 98.4601 279.203 Q103.83 279.203 107.025 281.888 Q110.219 284.573 110.219 289.064 Q110.219 291.193 109.409 293.114 Q108.622 295.013 106.516 297.605 Q105.937 298.276 102.835 301.494 Q99.7332 304.688 94.0851 310.452 Z" fill="#000000" fill-rule="nonzero" fill-opacity="1" /><path clip-path="url(#clip540)" d="M120.219 308.508 L125.103 308.508 L125.103 314.388 L120.219 314.388 L120.219 308.508 Z" fill="#000000" fill-rule="nonzero" fill-opacity="1" /><path clip-path="url(#clip540)" d="M145.289 282.906 Q141.677 282.906 139.849 286.471 Q138.043 290.013 138.043 297.142 Q138.043 304.249 139.849 307.813 Q141.677 311.355 145.289 311.355 Q148.923 311.355 150.728 307.813 Q152.557 304.249 152.557 297.142 Q152.557 290.013 150.728 286.471 Q148.923 282.906 145.289 282.906 M145.289 279.203 Q151.099 279.203 154.154 283.809 Q157.233 288.392 157.233 297.142 Q157.233 305.869 154.154 310.475 Q151.099 315.059 145.289 315.059 Q139.478 315.059 136.4 310.475 Q133.344 305.869 133.344 297.142 Q133.344 288.392 136.4 283.809 Q139.478 279.203 145.289 279.203 Z" fill="#000000" fill-rule="nonzero" fill-opacity="1" /><path clip-path="url(#clip540)" d="M175.45 282.906 Q171.839 282.906 170.011 286.471 Q168.205 290.013 168.205 297.142 Q168.205 304.249 170.011 307.813 Q171.839 311.355 175.45 311.355 Q179.085 311.355 180.89 307.813 Q182.719 304.249 182.719 297.142 Q182.719 290.013 180.89 286.471 Q179.085 282.906 175.45 282.906 M175.45 279.203 Q181.261 279.203 184.316 283.809 Q187.395 288.392 187.395 297.142 Q187.395 305.869 184.316 310.475 Q181.261 315.059 175.45 315.059 Q169.64 315.059 166.562 310.475 Q163.506 305.869 163.506 297.142 Q163.506 288.392 166.562 283.809 Q169.64 279.203 175.45 279.203 Z" fill="#000000" fill-rule="nonzero" fill-opacity="1" /><path clip-path="url(#clip540)" d="M223.784 288.925 L213.205 299.55 L223.784 310.128 L221.029 312.929 L210.404 302.304 L199.779 312.929 L197.048 310.128 L207.603 299.55 L197.048 288.925 L199.779 286.124 L210.404 296.749 L221.029 286.124 L223.784 288.925 Z" fill="#000000" fill-rule="nonzero" fill-opacity="1" /><path clip-path="url(#clip540)" d="M236.145 310.452 L243.783 310.452 L243.783 284.087 L235.473 285.753 L235.473 281.494 L243.737 279.828 L248.413 279.828 L248.413 310.452 L256.052 310.452 L256.052 314.388 L236.145 314.388 L236.145 310.452 Z" fill="#000000" fill-rule="nonzero" fill-opacity="1" /><path clip-path="url(#clip540)" d="M275.496 282.906 Q271.885 282.906 270.056 286.471 Q268.251 290.013 268.251 297.142 Q268.251 304.249 270.056 307.813 Q271.885 311.355 275.496 311.355 Q279.13 311.355 280.936 307.813 Q282.765 304.249 282.765 297.142 Q282.765 290.013 280.936 286.471 Q279.13 282.906 275.496 282.906 M275.496 279.203 Q281.306 279.203 284.362 283.809 Q287.441 288.392 287.441 297.142 Q287.441 305.869 284.362 310.475 Q281.306 315.059 275.496 315.059 Q269.686 315.059 266.607 310.475 Q263.552 305.869 263.552 297.142 Q263.552 288.392 266.607 283.809 Q269.686 279.203 275.496 279.203 Z" fill="#000000" fill-rule="nonzero" fill-opacity="1" /><path clip-path="url(#clip540)" d="M300.117 262.207 L290.525 277.197 L300.117 277.197 L300.117 262.207 M299.12 258.897 L303.897 258.897 L303.897 277.197 L307.903 277.197 L307.903 280.357 L303.897 280.357 L303.897 286.977 L300.117 286.977 L300.117 280.357 L287.441 280.357 L287.441 276.689 L299.12 258.897 Z" fill="#000000" fill-rule="nonzero" fill-opacity="1" /><path clip-path="url(#clip540)" d="M-23.6556 733.826 L-16.8761 733.826 Q-19.8998 737.072 -21.3957 740.764 Q-22.8917 744.425 -22.8917 748.562 Q-22.8917 756.71 -17.8946 761.039 Q-12.9293 765.368 -3.5081 765.368 Q5.88132 765.368 10.8784 761.039 Q15.8436 756.71 15.8436 748.562 Q15.8436 744.425 14.3477 740.764 Q12.8518 737.072 9.82806 733.826 L16.5439 733.826 Q18.8355 737.2 19.9814 740.987 Q21.1272 744.743 21.1272 748.944 Q21.1272 759.734 14.5387 765.941 Q7.91834 772.147 -3.5081 772.147 Q-14.9664 772.147 -21.5549 765.941 Q-28.1752 759.734 -28.1752 748.944 Q-28.1752 744.679 -27.0294 740.923 Q-25.9154 737.136 -23.6556 733.826 Z" fill="#000000" fill-rule="nonzero" fill-opacity="1" /><path clip-path="url(#clip540)" d="M2.28469 707.949 Q2.28469 715.047 3.90795 717.784 Q5.5312 720.521 9.44611 720.521 Q12.5653 720.521 14.4114 718.484 Q16.2256 716.415 16.2256 712.883 Q16.2256 708.013 12.7881 705.085 Q9.3188 702.124 3.58966 702.124 L2.28469 702.124 L2.28469 707.949 M-0.134275 696.268 L20.2042 696.268 L20.2042 702.124 L14.7933 702.124 Q18.0398 704.13 19.5994 707.122 Q21.1272 710.113 21.1272 714.442 Q21.1272 719.917 18.0716 723.163 Q14.9843 726.378 9.82806 726.378 Q3.81246 726.378 0.756924 722.367 Q-2.29862 718.325 -2.29862 710.336 L-2.29862 702.124 L-2.87153 702.124 Q-6.91375 702.124 -9.10992 704.798 Q-11.3379 707.44 -11.3379 712.246 Q-11.3379 715.301 -10.6059 718.198 Q-9.87381 721.094 -8.40969 723.768 L-13.8205 723.768 Q-15.0619 720.553 -15.6666 717.529 Q-16.3032 714.506 -16.3032 711.641 Q-16.3032 703.907 -12.2928 700.087 Q-8.28238 696.268 -0.134275 696.268 Z" fill="#000000" fill-rule="nonzero" fill-opacity="1" /><path clip-path="url(#clip540)" d="M-14.3935 661.479 L-8.85529 661.479 Q-10.1284 663.962 -10.765 666.636 Q-11.4016 669.309 -11.4016 672.174 Q-11.4016 676.534 -10.0648 678.73 Q-8.72798 680.895 -6.05438 680.895 Q-4.01736 680.895 -2.8397 679.335 Q-1.69387 677.776 -0.643532 673.065 L-0.197932 671.06 Q1.13887 664.821 3.58966 662.211 Q6.00863 659.57 10.3691 659.57 Q15.3344 659.57 18.2308 663.516 Q21.1272 667.431 21.1272 674.306 Q21.1272 677.171 20.5543 680.29 Q20.0132 683.377 18.8992 686.815 L12.8518 686.815 Q14.5387 683.568 15.398 680.417 Q16.2256 677.266 16.2256 674.179 Q16.2256 670.041 14.8251 667.813 Q13.3929 665.585 10.8147 665.585 Q8.4276 665.585 7.15446 667.209 Q5.88132 668.8 4.70366 674.243 L4.22623 676.28 Q3.08041 681.722 0.725095 684.141 Q-1.66204 686.56 -5.79975 686.56 Q-10.8287 686.56 -13.5659 682.996 Q-16.3032 679.431 -16.3032 672.874 Q-16.3032 669.628 -15.8257 666.763 Q-15.3483 663.898 -14.3935 661.479 Z" fill="#000000" fill-rule="nonzero" fill-opacity="1" /><path clip-path="url(#clip540)" d="M0.916066 619.752 L3.78063 619.752 L3.78063 646.679 Q9.82806 646.297 13.0109 643.051 Q16.1619 639.772 16.1619 633.948 Q16.1619 630.574 15.3344 627.423 Q14.5069 624.24 12.8518 621.121 L18.3899 621.121 Q19.7267 624.272 20.427 627.582 Q21.1272 630.892 21.1272 634.298 Q21.1272 642.828 16.1619 647.825 Q11.1967 652.79 2.73029 652.79 Q-6.02255 652.79 -11.1469 648.08 Q-16.3032 643.337 -16.3032 635.316 Q-16.3032 628.123 -11.6562 623.954 Q-7.04107 619.752 0.916066 619.752 M-0.802674 625.609 Q-5.60878 625.672 -8.47335 628.314 Q-11.3379 630.924 -11.3379 635.253 Q-11.3379 640.154 -8.56884 643.114 Q-5.79975 646.043 -0.770846 646.488 L-0.802674 625.609 Z" fill="#000000" fill-rule="nonzero" fill-opacity="1" /><path clip-path="url(#clip540)" d="M-14.3935 587.414 L-8.85529 587.414 Q-10.1284 589.897 -10.765 592.571 Q-11.4016 595.244 -11.4016 598.109 Q-11.4016 602.469 -10.0648 604.666 Q-8.72798 606.83 -6.05438 606.83 Q-4.01736 606.83 -2.8397 605.27 Q-1.69387 603.711 -0.643532 599 L-0.197932 596.995 Q1.13887 590.756 3.58966 588.146 Q6.00863 585.505 10.3691 585.505 Q15.3344 585.505 18.2308 589.451 Q21.1272 593.366 21.1272 600.241 Q21.1272 603.106 20.5543 606.225 Q20.0132 609.312 18.8992 612.75 L12.8518 612.75 Q14.5387 609.503 15.398 606.352 Q16.2256 603.201 16.2256 600.114 Q16.2256 595.976 14.8251 593.748 Q13.3929 591.52 10.8147 591.52 Q8.4276 591.52 7.15446 593.144 Q5.88132 594.735 4.70366 600.178 L4.22623 602.215 Q3.08041 607.657 0.725095 610.076 Q-1.66204 612.495 -5.79975 612.495 Q-10.8287 612.495 -13.5659 608.931 Q-16.3032 605.366 -16.3032 598.809 Q-16.3032 595.563 -15.8257 592.698 Q-15.3483 589.833 -14.3935 587.414 Z" fill="#000000" fill-rule="nonzero" fill-opacity="1" /><path clip-path="url(#clip540)" d="M1417.08 14.0809 L1417.08 22.0612 Q1412.42 19.8332 1408.29 18.7395 Q1404.16 17.6457 1400.31 17.6457 Q1393.63 17.6457 1389.98 20.2383 Q1386.37 22.8309 1386.37 27.611 Q1386.37 31.6214 1388.77 33.6873 Q1391.2 35.7128 1397.92 36.9686 L1402.86 37.9813 Q1412.02 39.7232 1416.35 44.1387 Q1420.73 48.5136 1420.73 55.8863 Q1420.73 64.6767 1414.81 69.2137 Q1408.94 73.7508 1397.56 73.7508 Q1393.26 73.7508 1388.4 72.7785 Q1383.58 71.8063 1378.39 69.9024 L1378.39 61.4765 Q1383.38 64.2716 1388.16 65.6895 Q1392.94 67.1073 1397.56 67.1073 Q1404.56 67.1073 1408.37 64.3527 Q1412.18 61.598 1412.18 56.4939 Q1412.18 52.0379 1409.42 49.5264 Q1406.71 47.0148 1400.47 45.759 L1395.49 44.7868 Q1386.33 42.9639 1382.24 39.075 Q1378.15 35.1862 1378.15 28.2591 Q1378.15 20.2383 1383.78 15.6203 Q1389.45 11.0023 1399.38 11.0023 Q1403.63 11.0023 1408.05 11.7719 Q1412.46 12.5416 1417.08 14.0809 Z" fill="#000000" fill-rule="nonzero" fill-opacity="1" /><path clip-path="url(#clip540)" d="M1452.04 76.7889 Q1448.88 84.8907 1445.88 87.3618 Q1442.89 89.8329 1437.86 89.8329 L1431.91 89.8329 L1431.91 83.5945 L1436.28 83.5945 Q1439.36 83.5945 1441.06 82.1361 Q1442.76 80.6778 1444.83 75.2496 L1446.17 71.8468 L1427.82 27.2059 L1435.71 27.2059 L1449.89 62.6918 L1464.07 27.2059 L1471.97 27.2059 L1452.04 76.7889 Z" fill="#000000" fill-rule="nonzero" fill-opacity="1" /><path clip-path="url(#clip540)" d="M1519.97 45.1919 L1519.97 72.576 L1512.52 72.576 L1512.52 45.4349 Q1512.52 38.994 1510.01 35.7938 Q1507.5 32.5936 1502.47 32.5936 Q1496.44 32.5936 1492.95 36.4419 Q1489.47 40.2903 1489.47 46.9338 L1489.47 72.576 L1481.98 72.576 L1481.98 27.2059 L1489.47 27.2059 L1489.47 34.2544 Q1492.14 30.163 1495.75 28.1376 Q1499.4 26.1121 1504.13 26.1121 Q1511.95 26.1121 1515.96 30.9732 Q1519.97 35.7938 1519.97 45.1919 Z" fill="#000000" fill-rule="nonzero" fill-opacity="1" /><path clip-path="url(#clip540)" d="M1542.21 14.324 L1542.21 27.2059 L1557.57 27.2059 L1557.57 32.9987 L1542.21 32.9987 L1542.21 57.6282 Q1542.21 63.1779 1543.71 64.7578 Q1545.25 66.3376 1549.91 66.3376 L1557.57 66.3376 L1557.57 72.576 L1549.91 72.576 Q1541.28 72.576 1538 69.3758 Q1534.72 66.1351 1534.72 57.6282 L1534.72 32.9987 L1529.25 32.9987 L1529.25 27.2059 L1534.72 27.2059 L1534.72 14.324 L1542.21 14.324 Z" fill="#000000" fill-rule="nonzero" fill-opacity="1" /><path clip-path="url(#clip540)" d="M1605.08 45.1919 L1605.08 72.576 L1597.63 72.576 L1597.63 45.4349 Q1597.63 38.994 1595.12 35.7938 Q1592.61 32.5936 1587.58 32.5936 Q1581.55 32.5936 1578.06 36.4419 Q1574.58 40.2903 1574.58 46.9338 L1574.58 72.576 L1567.09 72.576 L1567.09 9.54393 L1574.58 9.54393 L1574.58 34.2544 Q1577.25 30.163 1580.86 28.1376 Q1584.5 26.1121 1589.24 26.1121 Q1597.06 26.1121 1601.07 30.9732 Q1605.08 35.7938 1605.08 45.1919 Z" fill="#000000" fill-rule="nonzero" fill-opacity="1" /><path clip-path="url(#clip540)" d="M1658.76 48.0275 L1658.76 51.6733 L1624.49 51.6733 Q1624.97 59.3701 1629.11 63.421 Q1633.28 67.4314 1640.69 67.4314 Q1644.98 67.4314 1649 66.3781 Q1653.05 65.3249 1657.02 63.2184 L1657.02 70.267 Q1653.01 71.9684 1648.79 72.8596 Q1644.58 73.7508 1640.25 73.7508 Q1629.39 73.7508 1623.03 67.4314 Q1616.71 61.1119 1616.71 50.3365 Q1616.71 39.1965 1622.7 32.6746 Q1628.74 26.1121 1638.95 26.1121 Q1648.1 26.1121 1653.41 32.0264 Q1658.76 37.9003 1658.76 48.0275 M1651.3 45.84 Q1651.22 39.7232 1647.86 36.0774 Q1644.54 32.4315 1639.03 32.4315 Q1632.79 32.4315 1629.02 35.9558 Q1625.3 39.4801 1624.73 45.8805 L1651.3 45.84 Z" fill="#000000" fill-rule="nonzero" fill-opacity="1" /><path clip-path="url(#clip540)" d="M1678.36 14.324 L1678.36 27.2059 L1693.72 27.2059 L1693.72 32.9987 L1678.36 32.9987 L1678.36 57.6282 Q1678.36 63.1779 1679.86 64.7578 Q1681.4 66.3376 1686.06 66.3376 L1693.72 66.3376 L1693.72 72.576 L1686.06 72.576 Q1677.43 72.576 1674.15 69.3758 Q1670.87 66.1351 1670.87 57.6282 L1670.87 32.9987 L1665.4 32.9987 L1665.4 27.2059 L1670.87 27.2059 L1670.87 14.324 L1678.36 14.324 Z" fill="#000000" fill-rule="nonzero" fill-opacity="1" /><path clip-path="url(#clip540)" d="M1703.52 27.2059 L1710.97 27.2059 L1710.97 72.576 L1703.52 72.576 L1703.52 27.2059 M1703.52 9.54393 L1710.97 9.54393 L1710.97 18.9825 L1703.52 18.9825 L1703.52 9.54393 Z" fill="#000000" fill-rule="nonzero" fill-opacity="1" /><path clip-path="url(#clip540)" d="M1759.22 28.9478 L1759.22 35.9153 Q1756.06 34.1734 1752.86 33.3227 Q1749.7 32.4315 1746.46 32.4315 Q1739.21 32.4315 1735.2 37.0496 Q1731.19 41.6271 1731.19 49.9314 Q1731.19 58.2358 1735.2 62.8538 Q1739.21 67.4314 1746.46 67.4314 Q1749.7 67.4314 1752.86 66.5807 Q1756.06 65.6895 1759.22 63.9476 L1759.22 70.8341 Q1756.1 72.2924 1752.74 73.0216 Q1749.42 73.7508 1745.65 73.7508 Q1735.4 73.7508 1729.37 67.3098 Q1723.33 60.8689 1723.33 49.9314 Q1723.33 38.832 1729.41 32.472 Q1735.52 26.1121 1746.14 26.1121 Q1749.58 26.1121 1752.86 26.8413 Q1756.14 27.5299 1759.22 28.9478 Z" fill="#000000" fill-rule="nonzero" fill-opacity="1" /><path clip-path="url(#clip540)" d="M1793.49 12.096 L1801.75 12.096 L1814.47 63.2184 L1827.15 12.096 L1836.35 12.096 L1849.07 63.2184 L1861.75 12.096 L1870.05 12.096 L1854.86 72.576 L1844.57 72.576 L1831.81 20.0763 L1818.93 72.576 L1808.64 72.576 L1793.49 12.096 Z" fill="#000000" fill-rule="nonzero" fill-opacity="1" /><path clip-path="url(#clip540)" d="M1914.53 48.0275 L1914.53 51.6733 L1880.26 51.6733 Q1880.75 59.3701 1884.88 63.421 Q1889.05 67.4314 1896.46 67.4314 Q1900.76 67.4314 1904.77 66.3781 Q1908.82 65.3249 1912.79 63.2184 L1912.79 70.267 Q1908.78 71.9684 1904.57 72.8596 Q1900.35 73.7508 1896.02 73.7508 Q1885.16 73.7508 1878.8 67.4314 Q1872.48 61.1119 1872.48 50.3365 Q1872.48 39.1965 1878.48 32.6746 Q1884.51 26.1121 1894.72 26.1121 Q1903.88 26.1121 1909.18 32.0264 Q1914.53 37.9003 1914.53 48.0275 M1907.08 45.84 Q1907 39.7232 1903.63 36.0774 Q1900.31 32.4315 1894.8 32.4315 Q1888.57 32.4315 1884.8 35.9558 Q1881.07 39.4801 1880.5 45.8805 L1907.08 45.84 Z" fill="#000000" fill-rule="nonzero" fill-opacity="1" /><path clip-path="url(#clip540)" d="M1965.57 48.0275 L1965.57 51.6733 L1931.3 51.6733 Q1931.79 59.3701 1935.92 63.421 Q1940.09 67.4314 1947.51 67.4314 Q1951.8 67.4314 1955.81 66.3781 Q1959.86 65.3249 1963.83 63.2184 L1963.83 70.267 Q1959.82 71.9684 1955.61 72.8596 Q1951.4 73.7508 1947.06 73.7508 Q1936.2 73.7508 1929.84 67.4314 Q1923.52 61.1119 1923.52 50.3365 Q1923.52 39.1965 1929.52 32.6746 Q1935.56 26.1121 1945.76 26.1121 Q1954.92 26.1121 1960.23 32.0264 Q1965.57 37.9003 1965.57 48.0275 M1958.12 45.84 Q1958.04 39.7232 1954.68 36.0774 Q1951.35 32.4315 1945.85 32.4315 Q1939.61 32.4315 1935.84 35.9558 Q1932.11 39.4801 1931.55 45.8805 L1958.12 45.84 Z" fill="#000000" fill-rule="nonzero" fill-opacity="1" /><path clip-path="url(#clip540)" d="M1977.52 9.54393 L1985.02 9.54393 L1985.02 46.7717 L2007.26 27.2059 L2016.78 27.2059 L1992.71 48.4326 L2017.79 72.576 L2008.07 72.576 L1985.02 50.4176 L1985.02 72.576 L1977.52 72.576 L1977.52 9.54393 Z" fill="#000000" fill-rule="nonzero" fill-opacity="1" /><path clip-path="url(#clip540)" d="M2025.85 9.54393 L2033.3 9.54393 L2033.3 72.576 L2025.85 72.576 L2025.85 9.54393 Z" fill="#000000" fill-rule="nonzero" fill-opacity="1" /><path clip-path="url(#clip540)" d="M2067.78 76.7889 Q2064.62 84.8907 2061.62 87.3618 Q2058.62 89.8329 2053.6 89.8329 L2047.64 89.8329 L2047.64 83.5945 L2052.02 83.5945 Q2055.1 83.5945 2056.8 82.1361 Q2058.5 80.6778 2060.57 75.2496 L2061.9 71.8468 L2043.55 27.2059 L2051.45 27.2059 L2065.63 62.6918 L2079.81 27.2059 L2087.71 27.2059 L2067.78 76.7889 Z" fill="#000000" fill-rule="nonzero" fill-opacity="1" /><path clip-path="url(#clip540)" d="M2169.98 16.7545 L2169.98 25.383 Q2165.85 21.5346 2161.15 19.6307 Q2156.49 17.7268 2151.23 17.7268 Q2140.86 17.7268 2135.35 24.0867 Q2129.84 30.4061 2129.84 42.3968 Q2129.84 54.3469 2135.35 60.7069 Q2140.86 67.0263 2151.23 67.0263 Q2156.49 67.0263 2161.15 65.1223 Q2165.85 63.2184 2169.98 59.3701 L2169.98 67.9175 Q2165.69 70.8341 2160.87 72.2924 Q2156.09 73.7508 2150.74 73.7508 Q2137.01 73.7508 2129.11 65.3654 Q2121.21 56.9395 2121.21 42.3968 Q2121.21 27.8135 2129.11 19.4281 Q2137.01 11.0023 2150.74 11.0023 Q2156.17 11.0023 2160.95 12.4606 Q2165.77 13.8784 2169.98 16.7545 Z" fill="#000000" fill-rule="nonzero" fill-opacity="1" /><path clip-path="url(#clip540)" d="M2202.92 49.7694 Q2193.88 49.7694 2190.4 51.8354 Q2186.91 53.9013 2186.91 58.8839 Q2186.91 62.8538 2189.51 65.2034 Q2192.14 67.5124 2196.64 67.5124 Q2202.83 67.5124 2206.56 63.1374 Q2210.33 58.7219 2210.33 51.4303 L2210.33 49.7694 L2202.92 49.7694 M2217.78 46.6907 L2217.78 72.576 L2210.33 72.576 L2210.33 65.6895 Q2207.78 69.8214 2203.97 71.8063 Q2200.16 73.7508 2194.65 73.7508 Q2187.68 73.7508 2183.55 69.8619 Q2179.46 65.9325 2179.46 59.3701 Q2179.46 51.7138 2184.57 47.825 Q2189.71 43.9361 2199.88 43.9361 L2210.33 43.9361 L2210.33 43.2069 Q2210.33 38.0623 2206.93 35.2672 Q2203.56 32.4315 2197.45 32.4315 Q2193.56 32.4315 2189.87 33.3632 Q2186.19 34.295 2182.78 36.1584 L2182.78 29.2718 Q2186.87 27.692 2190.72 26.9223 Q2194.57 26.1121 2198.22 26.1121 Q2208.06 26.1121 2212.92 31.2163 Q2217.78 36.3204 2217.78 46.6907 Z" fill="#000000" fill-rule="nonzero" fill-opacity="1" /><path clip-path="url(#clip540)" d="M2262.06 28.5427 L2262.06 35.5912 Q2258.9 33.9709 2255.5 33.1607 Q2252.09 32.3505 2248.45 32.3505 Q2242.9 32.3505 2240.1 34.0519 Q2237.35 35.7533 2237.35 39.156 Q2237.35 41.7486 2239.33 43.2475 Q2241.32 44.7058 2247.31 46.0426 L2249.87 46.6097 Q2257.81 48.3111 2261.13 51.4303 Q2264.49 54.509 2264.49 60.0587 Q2264.49 66.3781 2259.47 70.0644 Q2254.48 73.7508 2245.73 73.7508 Q2242.09 73.7508 2238.12 73.0216 Q2234.19 72.3329 2229.81 70.9151 L2229.81 63.2184 Q2233.95 65.3654 2237.96 66.4591 Q2241.97 67.5124 2245.9 67.5124 Q2251.16 67.5124 2254 65.73 Q2256.83 63.9071 2256.83 60.6258 Q2256.83 57.5877 2254.77 55.9673 Q2252.74 54.3469 2245.81 52.8481 L2243.22 52.2405 Q2236.3 50.7821 2233.22 47.7845 Q2230.14 44.7463 2230.14 39.4801 Q2230.14 33.0797 2234.67 29.5959 Q2239.21 26.1121 2247.56 26.1121 Q2251.69 26.1121 2255.33 26.7198 Q2258.98 27.3274 2262.06 28.5427 Z" fill="#000000" fill-rule="nonzero" fill-opacity="1" /><path clip-path="url(#clip540)" d="M2315.17 48.0275 L2315.17 51.6733 L2280.9 51.6733 Q2281.38 59.3701 2285.51 63.421 Q2289.69 67.4314 2297.1 67.4314 Q2301.39 67.4314 2305.4 66.3781 Q2309.45 65.3249 2313.42 63.2184 L2313.42 70.267 Q2309.41 71.9684 2305.2 72.8596 Q2300.99 73.7508 2296.65 73.7508 Q2285.8 73.7508 2279.44 67.4314 Q2273.12 61.1119 2273.12 50.3365 Q2273.12 39.1965 2279.11 32.6746 Q2285.15 26.1121 2295.36 26.1121 Q2304.51 26.1121 2309.82 32.0264 Q2315.17 37.9003 2315.17 48.0275 M2307.71 45.84 Q2307.63 39.7232 2304.27 36.0774 Q2300.95 32.4315 2295.44 32.4315 Q2289.2 32.4315 2285.43 35.9558 Q2281.71 39.4801 2281.14 45.8805 L2307.71 45.84 Z" fill="#000000" fill-rule="nonzero" fill-opacity="1" /><path clip-path="url(#clip540)" d="M2362.28 18.8205 L2362.28 65.8515 L2372.16 65.8515 Q2384.68 65.8515 2390.47 60.1802 Q2396.31 54.509 2396.31 42.2752 Q2396.31 30.1225 2390.47 24.4918 Q2384.68 18.8205 2372.16 18.8205 L2362.28 18.8205 M2354.1 12.096 L2370.91 12.096 Q2388.49 12.096 2396.71 19.4281 Q2404.93 26.7198 2404.93 42.2752 Q2404.93 57.9117 2396.67 65.2439 Q2388.41 72.576 2370.91 72.576 L2354.1 72.576 L2354.1 12.096 Z" fill="#000000" fill-rule="nonzero" fill-opacity="1" /><path clip-path="url(#clip540)" d="M2438.27 49.7694 Q2429.24 49.7694 2425.76 51.8354 Q2422.27 53.9013 2422.27 58.8839 Q2422.27 62.8538 2424.86 65.2034 Q2427.5 67.5124 2431.99 67.5124 Q2438.19 67.5124 2441.92 63.1374 Q2445.69 58.7219 2445.69 51.4303 L2445.69 49.7694 L2438.27 49.7694 M2453.14 46.6907 L2453.14 72.576 L2445.69 72.576 L2445.69 65.6895 Q2443.13 69.8214 2439.33 71.8063 Q2435.52 73.7508 2430.01 73.7508 Q2423.04 73.7508 2418.91 69.8619 Q2414.82 65.9325 2414.82 59.3701 Q2414.82 51.7138 2419.92 47.825 Q2425.07 43.9361 2435.24 43.9361 L2445.69 43.9361 L2445.69 43.2069 Q2445.69 38.0623 2442.28 35.2672 Q2438.92 32.4315 2432.8 32.4315 Q2428.92 32.4315 2425.23 33.3632 Q2421.54 34.295 2418.14 36.1584 L2418.14 29.2718 Q2422.23 27.692 2426.08 26.9223 Q2429.93 26.1121 2433.57 26.1121 Q2443.42 26.1121 2448.28 31.2163 Q2453.14 36.3204 2453.14 46.6907 Z" fill="#000000" fill-rule="nonzero" fill-opacity="1" /><path clip-path="url(#clip540)" d="M2475.87 14.324 L2475.87 27.2059 L2491.22 27.2059 L2491.22 32.9987 L2475.87 32.9987 L2475.87 57.6282 Q2475.87 63.1779 2477.36 64.7578 Q2478.9 66.3376 2483.56 66.3376 L2491.22 66.3376 L2491.22 72.576 L2483.56 72.576 Q2474.93 72.576 2471.65 69.3758 Q2468.37 66.1351 2468.37 57.6282 L2468.37 32.9987 L2462.9 32.9987 L2462.9 27.2059 L2468.37 27.2059 L2468.37 14.324 L2475.87 14.324 Z" fill="#000000" fill-rule="nonzero" fill-opacity="1" /><path clip-path="url(#clip540)" d="M2521.64 49.7694 Q2512.61 49.7694 2509.12 51.8354 Q2505.64 53.9013 2505.64 58.8839 Q2505.64 62.8538 2508.23 65.2034 Q2510.87 67.5124 2515.36 67.5124 Q2521.56 67.5124 2525.29 63.1374 Q2529.05 58.7219 2529.05 51.4303 L2529.05 49.7694 L2521.64 49.7694 M2536.51 46.6907 L2536.51 72.576 L2529.05 72.576 L2529.05 65.6895 Q2526.5 69.8214 2522.69 71.8063 Q2518.89 73.7508 2513.38 73.7508 Q2506.41 73.7508 2502.28 69.8619 Q2498.19 65.9325 2498.19 59.3701 Q2498.19 51.7138 2503.29 47.825 Q2508.43 43.9361 2518.6 43.9361 L2529.05 43.9361 L2529.05 43.2069 Q2529.05 38.0623 2525.65 35.2672 Q2522.29 32.4315 2516.17 32.4315 Q2512.28 32.4315 2508.6 33.3632 Q2504.91 34.295 2501.51 36.1584 L2501.51 29.2718 Q2505.6 27.692 2509.45 26.9223 Q2513.3 26.1121 2516.94 26.1121 Q2526.79 26.1121 2531.65 31.2163 Q2536.51 36.3204 2536.51 46.6907 Z" fill="#000000" fill-rule="nonzero" fill-opacity="1" /><path clip-path="url(#clip541)" d="M537.406 1258.75 L537.406 1259.38 L581.265 1259.38 L581.265 1258.75 L537.406 1258.75 L537.406 1258.75  Z" fill="#4682b4" fill-rule="evenodd" fill-opacity="0.7"/>
<polyline clip-path="url(#clip541)" style="stroke:#000000; stroke-linecap:round; stroke-linejoin:round; stroke-width:4; stroke-opacity:0.7; fill:none" points="537.406,1258.75 537.406,1259.38 581.265,1259.38 581.265,1258.75 537.406,1258.75 "/>
<path clip-path="url(#clip541)" d="M592.229 1257.2 L592.229 1259.38 L636.088 1259.38 L636.088 1257.2 L592.229 1257.2 L592.229 1257.2  Z" fill="#4682b4" fill-rule="evenodd" fill-opacity="0.7"/>
<polyline clip-path="url(#clip541)" style="stroke:#000000; stroke-linecap:round; stroke-linejoin:round; stroke-width:4; stroke-opacity:0.7; fill:none" points="592.229,1257.2 592.229,1259.38 636.088,1259.38 636.088,1257.2 592.229,1257.2 "/>
<path clip-path="url(#clip541)" d="M647.053 1254.58 L647.053 1259.38 L690.911 1259.38 L690.911 1254.58 L647.053 1254.58 L647.053 1254.58  Z" fill="#4682b4" fill-rule="evenodd" fill-opacity="0.7"/>
<polyline clip-path="url(#clip541)" style="stroke:#000000; stroke-linecap:round; stroke-linejoin:round; stroke-width:4; stroke-opacity:0.7; fill:none" points="647.053,1254.58 647.053,1259.38 690.911,1259.38 690.911,1254.58 647.053,1254.58 "/>
<path clip-path="url(#clip541)" d="M701.876 1247.9 L701.876 1259.38 L745.735 1259.38 L745.735 1247.9 L701.876 1247.9 L701.876 1247.9  Z" fill="#4682b4" fill-rule="evenodd" fill-opacity="0.7"/>
<polyline clip-path="url(#clip541)" style="stroke:#000000; stroke-linecap:round; stroke-linejoin:round; stroke-width:4; stroke-opacity:0.7; fill:none" points="701.876,1247.9 701.876,1259.38 745.735,1259.38 745.735,1247.9 701.876,1247.9 "/>
<path clip-path="url(#clip541)" d="M756.699 1228.48 L756.699 1259.38 L800.558 1259.38 L800.558 1228.48 L756.699 1228.48 L756.699 1228.48  Z" fill="#4682b4" fill-rule="evenodd" fill-opacity="0.7"/>
<polyline clip-path="url(#clip541)" style="stroke:#000000; stroke-linecap:round; stroke-linejoin:round; stroke-width:4; stroke-opacity:0.7; fill:none" points="756.699,1228.48 756.699,1259.38 800.558,1259.38 800.558,1228.48 756.699,1228.48 "/>
<path clip-path="url(#clip541)" d="M811.523 1182.95 L811.523 1259.38 L855.381 1259.38 L855.381 1182.95 L811.523 1182.95 L811.523 1182.95  Z" fill="#4682b4" fill-rule="evenodd" fill-opacity="0.7"/>
<polyline clip-path="url(#clip541)" style="stroke:#000000; stroke-linecap:round; stroke-linejoin:round; stroke-width:4; stroke-opacity:0.7; fill:none" points="811.523,1182.95 811.523,1259.38 855.381,1259.38 855.381,1182.95 811.523,1182.95 "/>
<path clip-path="url(#clip541)" d="M866.346 1061.28 L866.346 1259.38 L910.204 1259.38 L910.204 1061.28 L866.346 1061.28 L866.346 1061.28  Z" fill="#4682b4" fill-rule="evenodd" fill-opacity="0.7"/>
<polyline clip-path="url(#clip541)" style="stroke:#000000; stroke-linecap:round; stroke-linejoin:round; stroke-width:4; stroke-opacity:0.7; fill:none" points="866.346,1061.28 866.346,1259.38 910.204,1259.38 910.204,1061.28 866.346,1061.28 "/>
<path clip-path="url(#clip541)" d="M921.169 780.057 L921.169 1259.38 L965.028 1259.38 L965.028 780.057 L921.169 780.057 L921.169 780.057  Z" fill="#4682b4" fill-rule="evenodd" fill-opacity="0.7"/>
<polyline clip-path="url(#clip541)" style="stroke:#000000; stroke-linecap:round; stroke-linejoin:round; stroke-width:4; stroke-opacity:0.7; fill:none" points="921.169,780.057 921.169,1259.38 965.028,1259.38 965.028,780.057 921.169,780.057 "/>
<path clip-path="url(#clip541)" d="M975.992 289.352 L975.992 1259.38 L1019.85 1259.38 L1019.85 289.352 L975.992 289.352 L975.992 289.352  Z" fill="#4682b4" fill-rule="evenodd" fill-opacity="0.7"/>
<polyline clip-path="url(#clip541)" style="stroke:#000000; stroke-linecap:round; stroke-linejoin:round; stroke-width:4; stroke-opacity:0.7; fill:none" points="975.992,289.352 975.992,1259.38 1019.85,1259.38 1019.85,289.352 975.992,289.352 "/>
<path clip-path="url(#clip541)" d="M1030.82 98.2721 L1030.82 1259.38 L1074.67 1259.38 L1074.67 98.2721 L1030.82 98.2721 L1030.82 98.2721  Z" fill="#4682b4" fill-rule="evenodd" fill-opacity="0.7"/>
<polyline clip-path="url(#clip541)" style="stroke:#000000; stroke-linecap:round; stroke-linejoin:round; stroke-width:4; stroke-opacity:0.7; fill:none" points="1030.82,98.2721 1030.82,1259.38 1074.67,1259.38 1074.67,98.2721 1030.82,98.2721 "/>
<path clip-path="url(#clip541)" d="M1085.64 587.96 L1085.64 1259.38 L1129.5 1259.38 L1129.5 587.96 L1085.64 587.96 L1085.64 587.96  Z" fill="#4682b4" fill-rule="evenodd" fill-opacity="0.7"/>
<polyline clip-path="url(#clip541)" style="stroke:#000000; stroke-linecap:round; stroke-linejoin:round; stroke-width:4; stroke-opacity:0.7; fill:none" points="1085.64,587.96 1085.64,1259.38 1129.5,1259.38 1129.5,587.96 1085.64,587.96 "/>
<path clip-path="url(#clip541)" d="M1140.46 983.004 L1140.46 1259.38 L1184.32 1259.38 L1184.32 983.004 L1140.46 983.004 L1140.46 983.004  Z" fill="#4682b4" fill-rule="evenodd" fill-opacity="0.7"/>
<polyline clip-path="url(#clip541)" style="stroke:#000000; stroke-linecap:round; stroke-linejoin:round; stroke-width:4; stroke-opacity:0.7; fill:none" points="1140.46,983.004 1140.46,1259.38 1184.32,1259.38 1184.32,983.004 1140.46,983.004 "/>
<path clip-path="url(#clip541)" d="M1195.29 1160.72 L1195.29 1259.38 L1239.14 1259.38 L1239.14 1160.72 L1195.29 1160.72 L1195.29 1160.72  Z" fill="#4682b4" fill-rule="evenodd" fill-opacity="0.7"/>
<polyline clip-path="url(#clip541)" style="stroke:#000000; stroke-linecap:round; stroke-linejoin:round; stroke-width:4; stroke-opacity:0.7; fill:none" points="1195.29,1160.72 1195.29,1259.38 1239.14,1259.38 1239.14,1160.72 1195.29,1160.72 "/>
<path clip-path="url(#clip541)" d="M1250.11 1223.39 L1250.11 1259.38 L1293.97 1259.38 L1293.97 1223.39 L1250.11 1223.39 L1250.11 1223.39  Z" fill="#4682b4" fill-rule="evenodd" fill-opacity="0.7"/>
<polyline clip-path="url(#clip541)" style="stroke:#000000; stroke-linecap:round; stroke-linejoin:round; stroke-width:4; stroke-opacity:0.7; fill:none" points="1250.11,1223.39 1250.11,1259.38 1293.97,1259.38 1293.97,1223.39 1250.11,1223.39 "/>
<path clip-path="url(#clip541)" d="M1304.93 1244.61 L1304.93 1259.38 L1348.79 1259.38 L1348.79 1244.61 L1304.93 1244.61 L1304.93 1244.61  Z" fill="#4682b4" fill-rule="evenodd" fill-opacity="0.7"/>
<polyline clip-path="url(#clip541)" style="stroke:#000000; stroke-linecap:round; stroke-linejoin:round; stroke-width:4; stroke-opacity:0.7; fill:none" points="1304.93,1244.61 1304.93,1259.38 1348.79,1259.38 1348.79,1244.61 1304.93,1244.61 "/>
<path clip-path="url(#clip541)" d="M1359.76 1253.86 L1359.76 1259.38 L1403.61 1259.38 L1403.61 1253.86 L1359.76 1253.86 L1359.76 1253.86  Z" fill="#4682b4" fill-rule="evenodd" fill-opacity="0.7"/>
<polyline clip-path="url(#clip541)" style="stroke:#000000; stroke-linecap:round; stroke-linejoin:round; stroke-width:4; stroke-opacity:0.7; fill:none" points="1359.76,1253.86 1359.76,1259.38 1403.61,1259.38 1403.61,1253.86 1359.76,1253.86 "/>
<path clip-path="url(#clip541)" d="M1414.58 1257.3 L1414.58 1259.38 L1458.44 1259.38 L1458.44 1257.3 L1414.58 1257.3 L1414.58 1257.3  Z" fill="#4682b4" fill-rule="evenodd" fill-opacity="0.7"/>
<polyline clip-path="url(#clip541)" style="stroke:#000000; stroke-linecap:round; stroke-linejoin:round; stroke-width:4; stroke-opacity:0.7; fill:none" points="1414.58,1257.3 1414.58,1259.38 1458.44,1259.38 1458.44,1257.3 1414.58,1257.3 "/>
<path clip-path="url(#clip541)" d="M1469.4 1258.65 L1469.4 1259.38 L1513.26 1259.38 L1513.26 1258.65 L1469.4 1258.65 L1469.4 1258.65  Z" fill="#4682b4" fill-rule="evenodd" fill-opacity="0.7"/>
<polyline clip-path="url(#clip541)" style="stroke:#000000; stroke-linecap:round; stroke-linejoin:round; stroke-width:4; stroke-opacity:0.7; fill:none" points="1469.4,1258.65 1469.4,1259.38 1513.26,1259.38 1513.26,1258.65 1469.4,1258.65 "/>
<path clip-path="url(#clip541)" d="M1524.23 1259.23 L1524.23 1259.38 L1568.08 1259.38 L1568.08 1259.23 L1524.23 1259.23 L1524.23 1259.23  Z" fill="#4682b4" fill-rule="evenodd" fill-opacity="0.7"/>
<polyline clip-path="url(#clip541)" style="stroke:#000000; stroke-linecap:round; stroke-linejoin:round; stroke-width:4; stroke-opacity:0.7; fill:none" points="1524.23,1259.23 1524.23,1259.38 1568.08,1259.38 1568.08,1259.23 1524.23,1259.23 "/>
<path clip-path="url(#clip541)" d="M1579.05 1259.33 L1579.05 1259.38 L1622.91 1259.38 L1622.91 1259.33 L1579.05 1259.33 L1579.05 1259.33  Z" fill="#4682b4" fill-rule="evenodd" fill-opacity="0.7"/>
<polyline clip-path="url(#clip541)" style="stroke:#000000; stroke-linecap:round; stroke-linejoin:round; stroke-width:4; stroke-opacity:0.7; fill:none" points="1579.05,1259.33 1579.05,1259.38 1622.91,1259.38 1622.91,1259.33 1579.05,1259.33 "/>
<path clip-path="url(#clip541)" d="M1633.87 1259.33 L1633.87 1259.38 L1677.73 1259.38 L1677.73 1259.33 L1633.87 1259.33 L1633.87 1259.33  Z" fill="#4682b4" fill-rule="evenodd" fill-opacity="0.7"/>
<polyline clip-path="url(#clip541)" style="stroke:#000000; stroke-linecap:round; stroke-linejoin:round; stroke-width:4; stroke-opacity:0.7; fill:none" points="1633.87,1259.33 1633.87,1259.38 1677.73,1259.38 1677.73,1259.33 1633.87,1259.33 "/>
<path clip-path="url(#clip541)" d="M1688.7 1259.28 L1688.7 1259.38 L1732.55 1259.38 L1732.55 1259.28 L1688.7 1259.28 L1688.7 1259.28  Z" fill="#4682b4" fill-rule="evenodd" fill-opacity="0.7"/>
<polyline clip-path="url(#clip541)" style="stroke:#000000; stroke-linecap:round; stroke-linejoin:round; stroke-width:4; stroke-opacity:0.7; fill:none" points="1688.7,1259.28 1688.7,1259.38 1732.55,1259.38 1732.55,1259.28 1688.7,1259.28 "/>
<path clip-path="url(#clip541)" d="M1743.52 1259.33 L1743.52 1259.38 L1787.38 1259.38 L1787.38 1259.33 L1743.52 1259.33 L1743.52 1259.33  Z" fill="#4682b4" fill-rule="evenodd" fill-opacity="0.7"/>
<polyline clip-path="url(#clip541)" style="stroke:#000000; stroke-linecap:round; stroke-linejoin:round; stroke-width:4; stroke-opacity:0.7; fill:none" points="1743.52,1259.33 1743.52,1259.38 1787.38,1259.38 1787.38,1259.33 1743.52,1259.33 "/>
<path clip-path="url(#clip541)" d="M1798.34 1259.33 L1798.34 1259.38 L1842.2 1259.38 L1842.2 1259.33 L1798.34 1259.33 L1798.34 1259.33  Z" fill="#4682b4" fill-rule="evenodd" fill-opacity="0.7"/>
<polyline clip-path="url(#clip541)" style="stroke:#000000; stroke-linecap:round; stroke-linejoin:round; stroke-width:4; stroke-opacity:0.7; fill:none" points="1798.34,1259.33 1798.34,1259.38 1842.2,1259.38 1842.2,1259.33 1798.34,1259.33 "/>
<path clip-path="url(#clip541)" d="M1853.17 1259.33 L1853.17 1259.38 L1897.02 1259.38 L1897.02 1259.33 L1853.17 1259.33 L1853.17 1259.33  Z" fill="#4682b4" fill-rule="evenodd" fill-opacity="0.7"/>
<polyline clip-path="url(#clip541)" style="stroke:#000000; stroke-linecap:round; stroke-linejoin:round; stroke-width:4; stroke-opacity:0.7; fill:none" points="1853.17,1259.33 1853.17,1259.38 1897.02,1259.38 1897.02,1259.33 1853.17,1259.33 "/>
<path clip-path="url(#clip541)" d="M1907.99 1259.33 L1907.99 1259.38 L1951.85 1259.38 L1951.85 1259.33 L1907.99 1259.33 L1907.99 1259.33  Z" fill="#4682b4" fill-rule="evenodd" fill-opacity="0.7"/>
<polyline clip-path="url(#clip541)" style="stroke:#000000; stroke-linecap:round; stroke-linejoin:round; stroke-width:4; stroke-opacity:0.7; fill:none" points="1907.99,1259.33 1907.99,1259.38 1951.85,1259.38 1951.85,1259.33 1907.99,1259.33 "/>
<path clip-path="url(#clip541)" d="M1962.81 1259.33 L1962.81 1259.38 L2006.67 1259.38 L2006.67 1259.33 L1962.81 1259.33 L1962.81 1259.33  Z" fill="#4682b4" fill-rule="evenodd" fill-opacity="0.7"/>
<polyline clip-path="url(#clip541)" style="stroke:#000000; stroke-linecap:round; stroke-linejoin:round; stroke-width:4; stroke-opacity:0.7; fill:none" points="1962.81,1259.33 1962.81,1259.38 2006.67,1259.38 2006.67,1259.33 1962.81,1259.33 "/>
<path clip-path="url(#clip541)" d="M2017.64 1259.33 L2017.64 1259.38 L2061.49 1259.38 L2061.49 1259.33 L2017.64 1259.33 L2017.64 1259.33  Z" fill="#4682b4" fill-rule="evenodd" fill-opacity="0.7"/>
<polyline clip-path="url(#clip541)" style="stroke:#000000; stroke-linecap:round; stroke-linejoin:round; stroke-width:4; stroke-opacity:0.7; fill:none" points="2017.64,1259.33 2017.64,1259.38 2061.49,1259.38 2061.49,1259.33 2017.64,1259.33 "/>
<path clip-path="url(#clip541)" d="M2072.46 1259.33 L2072.46 1259.38 L2116.32 1259.38 L2116.32 1259.33 L2072.46 1259.33 L2072.46 1259.33  Z" fill="#4682b4" fill-rule="evenodd" fill-opacity="0.7"/>
<polyline clip-path="url(#clip541)" style="stroke:#000000; stroke-linecap:round; stroke-linejoin:round; stroke-width:4; stroke-opacity:0.7; fill:none" points="2072.46,1259.33 2072.46,1259.38 2116.32,1259.38 2116.32,1259.33 2072.46,1259.33 "/>
<path clip-path="url(#clip541)" d="M2127.28 1259.33 L2127.28 1259.38 L2171.14 1259.38 L2171.14 1259.33 L2127.28 1259.33 L2127.28 1259.33  Z" fill="#4682b4" fill-rule="evenodd" fill-opacity="0.7"/>
<polyline clip-path="url(#clip541)" style="stroke:#000000; stroke-linecap:round; stroke-linejoin:round; stroke-width:4; stroke-opacity:0.7; fill:none" points="2127.28,1259.33 2127.28,1259.38 2171.14,1259.38 2171.14,1259.33 2127.28,1259.33 "/>
<path clip-path="url(#clip541)" d="M2182.11 1259.33 L2182.11 1259.38 L2225.96 1259.38 L2225.96 1259.33 L2182.11 1259.33 L2182.11 1259.33  Z" fill="#4682b4" fill-rule="evenodd" fill-opacity="0.7"/>
<polyline clip-path="url(#clip541)" style="stroke:#000000; stroke-linecap:round; stroke-linejoin:round; stroke-width:4; stroke-opacity:0.7; fill:none" points="2182.11,1259.33 2182.11,1259.38 2225.96,1259.38 2225.96,1259.33 2182.11,1259.33 "/>
<path clip-path="url(#clip541)" d="M2236.93 1259.33 L2236.93 1259.38 L2280.79 1259.38 L2280.79 1259.33 L2236.93 1259.33 L2236.93 1259.33  Z" fill="#4682b4" fill-rule="evenodd" fill-opacity="0.7"/>
<polyline clip-path="url(#clip541)" style="stroke:#000000; stroke-linecap:round; stroke-linejoin:round; stroke-width:4; stroke-opacity:0.7; fill:none" points="2236.93,1259.33 2236.93,1259.38 2280.79,1259.38 2280.79,1259.33 2236.93,1259.33 "/>
<path clip-path="url(#clip541)" d="M2291.75 1259.33 L2291.75 1259.38 L2335.61 1259.38 L2335.61 1259.33 L2291.75 1259.33 L2291.75 1259.33  Z" fill="#4682b4" fill-rule="evenodd" fill-opacity="0.7"/>
<polyline clip-path="url(#clip541)" style="stroke:#000000; stroke-linecap:round; stroke-linejoin:round; stroke-width:4; stroke-opacity:0.7; fill:none" points="2291.75,1259.33 2291.75,1259.38 2335.61,1259.38 2335.61,1259.33 2291.75,1259.33 "/>
<path clip-path="url(#clip541)" d="M2346.58 1259.33 L2346.58 1259.38 L2390.43 1259.38 L2390.43 1259.33 L2346.58 1259.33 L2346.58 1259.33  Z" fill="#4682b4" fill-rule="evenodd" fill-opacity="0.7"/>
<polyline clip-path="url(#clip541)" style="stroke:#000000; stroke-linecap:round; stroke-linejoin:round; stroke-width:4; stroke-opacity:0.7; fill:none" points="2346.58,1259.33 2346.58,1259.38 2390.43,1259.38 2390.43,1259.33 2346.58,1259.33 "/>
<path clip-path="url(#clip541)" d="M2401.4 1259.33 L2401.4 1259.38 L2445.26 1259.38 L2445.26 1259.33 L2401.4 1259.33 L2401.4 1259.33  Z" fill="#4682b4" fill-rule="evenodd" fill-opacity="0.7"/>
<polyline clip-path="url(#clip541)" style="stroke:#000000; stroke-linecap:round; stroke-linejoin:round; stroke-width:4; stroke-opacity:0.7; fill:none" points="2401.4,1259.33 2401.4,1259.38 2445.26,1259.38 2445.26,1259.33 2401.4,1259.33 "/>
<path clip-path="url(#clip541)" d="M2456.22 1259.33 L2456.22 1259.38 L2500.08 1259.38 L2500.08 1259.33 L2456.22 1259.33 L2456.22 1259.33  Z" fill="#4682b4" fill-rule="evenodd" fill-opacity="0.7"/>
<polyline clip-path="url(#clip541)" style="stroke:#000000; stroke-linecap:round; stroke-linejoin:round; stroke-width:4; stroke-opacity:0.7; fill:none" points="2456.22,1259.33 2456.22,1259.38 2500.08,1259.38 2500.08,1259.33 2456.22,1259.33 "/>
<path clip-path="url(#clip541)" d="M2511.05 1259.33 L2511.05 1259.38 L2554.9 1259.38 L2554.9 1259.33 L2511.05 1259.33 L2511.05 1259.33  Z" fill="#4682b4" fill-rule="evenodd" fill-opacity="0.7"/>
<polyline clip-path="url(#clip541)" style="stroke:#000000; stroke-linecap:round; stroke-linejoin:round; stroke-width:4; stroke-opacity:0.7; fill:none" points="2511.05,1259.33 2511.05,1259.38 2554.9,1259.38 2554.9,1259.33 2511.05,1259.33 "/>
<path clip-path="url(#clip541)" d="M2565.87 1259.33 L2565.87 1259.38 L2609.73 1259.38 L2609.73 1259.33 L2565.87 1259.33 L2565.87 1259.33  Z" fill="#4682b4" fill-rule="evenodd" fill-opacity="0.7"/>
<polyline clip-path="url(#clip541)" style="stroke:#000000; stroke-linecap:round; stroke-linejoin:round; stroke-width:4; stroke-opacity:0.7; fill:none" points="2565.87,1259.33 2565.87,1259.38 2609.73,1259.38 2609.73,1259.33 2565.87,1259.33 "/>
<path clip-path="url(#clip541)" d="M2620.69 1259.33 L2620.69 1259.38 L2664.55 1259.38 L2664.55 1259.33 L2620.69 1259.33 L2620.69 1259.33  Z" fill="#4682b4" fill-rule="evenodd" fill-opacity="0.7"/>
<polyline clip-path="url(#clip541)" style="stroke:#000000; stroke-linecap:round; stroke-linejoin:round; stroke-width:4; stroke-opacity:0.7; fill:none" points="2620.69,1259.33 2620.69,1259.38 2664.55,1259.38 2664.55,1259.33 2620.69,1259.33 "/>
<path clip-path="url(#clip541)" d="M2675.51 1259.33 L2675.51 1259.38 L2719.37 1259.38 L2719.37 1259.33 L2675.51 1259.33 L2675.51 1259.33  Z" fill="#4682b4" fill-rule="evenodd" fill-opacity="0.7"/>
<polyline clip-path="url(#clip541)" style="stroke:#000000; stroke-linecap:round; stroke-linejoin:round; stroke-width:4; stroke-opacity:0.7; fill:none" points="2675.51,1259.33 2675.51,1259.38 2719.37,1259.38 2719.37,1259.33 2675.51,1259.33 "/>
<path clip-path="url(#clip541)" d="M2730.34 1259.33 L2730.34 1259.38 L2774.2 1259.38 L2774.2 1259.33 L2730.34 1259.33 L2730.34 1259.33  Z" fill="#4682b4" fill-rule="evenodd" fill-opacity="0.7"/>
<polyline clip-path="url(#clip541)" style="stroke:#000000; stroke-linecap:round; stroke-linejoin:round; stroke-width:4; stroke-opacity:0.7; fill:none" points="2730.34,1259.33 2730.34,1259.38 2774.2,1259.38 2774.2,1259.33 2730.34,1259.33 "/>
<path clip-path="url(#clip541)" d="M2785.16 1259.33 L2785.16 1259.38 L2829.02 1259.38 L2829.02 1259.33 L2785.16 1259.33 L2785.16 1259.33  Z" fill="#4682b4" fill-rule="evenodd" fill-opacity="0.7"/>
<polyline clip-path="url(#clip541)" style="stroke:#000000; stroke-linecap:round; stroke-linejoin:round; stroke-width:4; stroke-opacity:0.7; fill:none" points="2785.16,1259.33 2785.16,1259.38 2829.02,1259.38 2829.02,1259.33 2785.16,1259.33 "/>
<path clip-path="url(#clip541)" d="M2839.98 1259.33 L2839.98 1259.38 L2883.84 1259.38 L2883.84 1259.33 L2839.98 1259.33 L2839.98 1259.33  Z" fill="#4682b4" fill-rule="evenodd" fill-opacity="0.7"/>
<polyline clip-path="url(#clip541)" style="stroke:#000000; stroke-linecap:round; stroke-linejoin:round; stroke-width:4; stroke-opacity:0.7; fill:none" points="2839.98,1259.33 2839.98,1259.38 2883.84,1259.38 2883.84,1259.33 2839.98,1259.33 "/>
<path clip-path="url(#clip541)" d="M2894.81 1259.33 L2894.81 1259.38 L2938.67 1259.38 L2938.67 1259.33 L2894.81 1259.33 L2894.81 1259.33  Z" fill="#4682b4" fill-rule="evenodd" fill-opacity="0.7"/>
<polyline clip-path="url(#clip541)" style="stroke:#000000; stroke-linecap:round; stroke-linejoin:round; stroke-width:4; stroke-opacity:0.7; fill:none" points="2894.81,1259.33 2894.81,1259.38 2938.67,1259.38 2938.67,1259.33 2894.81,1259.33 "/>
<path clip-path="url(#clip541)" d="M2949.63 1259.33 L2949.63 1259.38 L2993.49 1259.38 L2993.49 1259.33 L2949.63 1259.33 L2949.63 1259.33  Z" fill="#4682b4" fill-rule="evenodd" fill-opacity="0.7"/>
<polyline clip-path="url(#clip541)" style="stroke:#000000; stroke-linecap:round; stroke-linejoin:round; stroke-width:4; stroke-opacity:0.7; fill:none" points="2949.63,1259.33 2949.63,1259.38 2993.49,1259.38 2993.49,1259.33 2949.63,1259.33 "/>
<path clip-path="url(#clip541)" d="M3004.45 1259.33 L3004.45 1259.38 L3048.31 1259.38 L3048.31 1259.33 L3004.45 1259.33 L3004.45 1259.33  Z" fill="#4682b4" fill-rule="evenodd" fill-opacity="0.7"/>
<polyline clip-path="url(#clip541)" style="stroke:#000000; stroke-linecap:round; stroke-linejoin:round; stroke-width:4; stroke-opacity:0.7; fill:none" points="3004.45,1259.33 3004.45,1259.38 3048.31,1259.38 3048.31,1259.33 3004.45,1259.33 "/>
<path clip-path="url(#clip541)" d="M3059.28 1259.33 L3059.28 1259.38 L3103.14 1259.38 L3103.14 1259.33 L3059.28 1259.33 L3059.28 1259.33  Z" fill="#4682b4" fill-rule="evenodd" fill-opacity="0.7"/>
<polyline clip-path="url(#clip541)" style="stroke:#000000; stroke-linecap:round; stroke-linejoin:round; stroke-width:4; stroke-opacity:0.7; fill:none" points="3059.28,1259.33 3059.28,1259.38 3103.14,1259.38 3103.14,1259.33 3059.28,1259.33 "/>
<path clip-path="url(#clip541)" d="M3114.1 1259.33 L3114.1 1259.38 L3157.96 1259.38 L3157.96 1259.33 L3114.1 1259.33 L3114.1 1259.33  Z" fill="#4682b4" fill-rule="evenodd" fill-opacity="0.7"/>
<polyline clip-path="url(#clip541)" style="stroke:#000000; stroke-linecap:round; stroke-linejoin:round; stroke-width:4; stroke-opacity:0.7; fill:none" points="3114.1,1259.33 3114.1,1259.38 3157.96,1259.38 3157.96,1259.33 3114.1,1259.33 "/>
<path clip-path="url(#clip541)" d="M3168.92 1259.33 L3168.92 1259.38 L3212.78 1259.38 L3212.78 1259.33 L3168.92 1259.33 L3168.92 1259.33  Z" fill="#4682b4" fill-rule="evenodd" fill-opacity="0.7"/>
<polyline clip-path="url(#clip541)" style="stroke:#000000; stroke-linecap:round; stroke-linejoin:round; stroke-width:4; stroke-opacity:0.7; fill:none" points="3168.92,1259.33 3168.92,1259.38 3212.78,1259.38 3212.78,1259.33 3168.92,1259.33 "/>
<path clip-path="url(#clip541)" d="M3223.75 1259.33 L3223.75 1259.38 L3267.61 1259.38 L3267.61 1259.33 L3223.75 1259.33 L3223.75 1259.33  Z" fill="#4682b4" fill-rule="evenodd" fill-opacity="0.7"/>
<polyline clip-path="url(#clip541)" style="stroke:#000000; stroke-linecap:round; stroke-linejoin:round; stroke-width:4; stroke-opacity:0.7; fill:none" points="3223.75,1259.33 3223.75,1259.38 3267.61,1259.38 3267.61,1259.33 3223.75,1259.33 "/>
<path clip-path="url(#clip541)" d="M3278.57 1259.33 L3278.57 1259.38 L3322.43 1259.38 L3322.43 1259.33 L3278.57 1259.33 L3278.57 1259.33  Z" fill="#4682b4" fill-rule="evenodd" fill-opacity="0.7"/>
<polyline clip-path="url(#clip541)" style="stroke:#000000; stroke-linecap:round; stroke-linejoin:round; stroke-width:4; stroke-opacity:0.7; fill:none" points="3278.57,1259.33 3278.57,1259.38 3322.43,1259.38 3322.43,1259.33 3278.57,1259.33 "/>
<path clip-path="url(#clip541)" d="M3333.39 1259.33 L3333.39 1259.38 L3377.25 1259.38 L3377.25 1259.33 L3333.39 1259.33 L3333.39 1259.33  Z" fill="#4682b4" fill-rule="evenodd" fill-opacity="0.7"/>
<polyline clip-path="url(#clip541)" style="stroke:#000000; stroke-linecap:round; stroke-linejoin:round; stroke-width:4; stroke-opacity:0.7; fill:none" points="3333.39,1259.33 3333.39,1259.38 3377.25,1259.38 3377.25,1259.33 3333.39,1259.33 "/>
<circle clip-path="url(#clip541)" style="fill:#4682b4; stroke:none; fill-opacity:0" cx="559.335" cy="1258.75" r="2"/>
<circle clip-path="url(#clip541)" style="fill:#4682b4; stroke:none; fill-opacity:0" cx="614.159" cy="1257.2" r="2"/>
<circle clip-path="url(#clip541)" style="fill:#4682b4; stroke:none; fill-opacity:0" cx="668.982" cy="1254.58" r="2"/>
<circle clip-path="url(#clip541)" style="fill:#4682b4; stroke:none; fill-opacity:0" cx="723.805" cy="1247.9" r="2"/>
<circle clip-path="url(#clip541)" style="fill:#4682b4; stroke:none; fill-opacity:0" cx="778.629" cy="1228.48" r="2"/>
<circle clip-path="url(#clip541)" style="fill:#4682b4; stroke:none; fill-opacity:0" cx="833.452" cy="1182.95" r="2"/>
<circle clip-path="url(#clip541)" style="fill:#4682b4; stroke:none; fill-opacity:0" cx="888.275" cy="1061.28" r="2"/>
<circle clip-path="url(#clip541)" style="fill:#4682b4; stroke:none; fill-opacity:0" cx="943.098" cy="780.057" r="2"/>
<circle clip-path="url(#clip541)" style="fill:#4682b4; stroke:none; fill-opacity:0" cx="997.922" cy="289.352" r="2"/>
<circle clip-path="url(#clip541)" style="fill:#4682b4; stroke:none; fill-opacity:0" cx="1107.57" cy="587.96" r="2"/>
<circle clip-path="url(#clip541)" style="fill:#4682b4; stroke:none; fill-opacity:0" cx="1162.39" cy="983.004" r="2"/>
<circle clip-path="url(#clip541)" style="fill:#4682b4; stroke:none; fill-opacity:0" cx="1217.22" cy="1160.72" r="2"/>
<circle clip-path="url(#clip541)" style="fill:#4682b4; stroke:none; fill-opacity:0" cx="1272.04" cy="1223.39" r="2"/>
<circle clip-path="url(#clip541)" style="fill:#4682b4; stroke:none; fill-opacity:0" cx="1326.86" cy="1244.61" r="2"/>
<circle clip-path="url(#clip541)" style="fill:#4682b4; stroke:none; fill-opacity:0" cx="1381.68" cy="1253.86" r="2"/>
<circle clip-path="url(#clip541)" style="fill:#4682b4; stroke:none; fill-opacity:0" cx="1436.51" cy="1257.3" r="2"/>
<circle clip-path="url(#clip541)" style="fill:#4682b4; stroke:none; fill-opacity:0" cx="1491.33" cy="1258.65" r="2"/>
<circle clip-path="url(#clip541)" style="fill:#4682b4; stroke:none; fill-opacity:0" cx="1546.15" cy="1259.23" r="2"/>
<circle clip-path="url(#clip541)" style="fill:#4682b4; stroke:none; fill-opacity:0" cx="1600.98" cy="1259.33" r="2"/>
<circle clip-path="url(#clip541)" style="fill:#4682b4; stroke:none; fill-opacity:0" cx="1655.8" cy="1259.33" r="2"/>
<circle clip-path="url(#clip541)" style="fill:#4682b4; stroke:none; fill-opacity:0" cx="1710.62" cy="1259.28" r="2"/>
<circle clip-path="url(#clip541)" style="fill:#4682b4; stroke:none; fill-opacity:0" cx="1765.45" cy="1259.33" r="2"/>
<circle clip-path="url(#clip541)" style="fill:#4682b4; stroke:none; fill-opacity:0" cx="1820.27" cy="1259.33" r="2"/>
<circle clip-path="url(#clip541)" style="fill:#4682b4; stroke:none; fill-opacity:0" cx="1875.09" cy="1259.33" r="2"/>
<circle clip-path="url(#clip541)" style="fill:#4682b4; stroke:none; fill-opacity:0" cx="1929.92" cy="1259.33" r="2"/>
<circle clip-path="url(#clip541)" style="fill:#4682b4; stroke:none; fill-opacity:0" cx="1984.74" cy="1259.33" r="2"/>
<circle clip-path="url(#clip541)" style="fill:#4682b4; stroke:none; fill-opacity:0" cx="2039.56" cy="1259.33" r="2"/>
<circle clip-path="url(#clip541)" style="fill:#4682b4; stroke:none; fill-opacity:0" cx="2094.39" cy="1259.33" r="2"/>
<circle clip-path="url(#clip541)" style="fill:#4682b4; stroke:none; fill-opacity:0" cx="2149.21" cy="1259.33" r="2"/>
<circle clip-path="url(#clip541)" style="fill:#4682b4; stroke:none; fill-opacity:0" cx="2204.03" cy="1259.33" r="2"/>
<circle clip-path="url(#clip541)" style="fill:#4682b4; stroke:none; fill-opacity:0" cx="2258.86" cy="1259.33" r="2"/>
<circle clip-path="url(#clip541)" style="fill:#4682b4; stroke:none; fill-opacity:0" cx="2313.68" cy="1259.33" r="2"/>
<circle clip-path="url(#clip541)" style="fill:#4682b4; stroke:none; fill-opacity:0" cx="2368.5" cy="1259.33" r="2"/>
<circle clip-path="url(#clip541)" style="fill:#4682b4; stroke:none; fill-opacity:0" cx="2423.33" cy="1259.33" r="2"/>
<circle clip-path="url(#clip541)" style="fill:#4682b4; stroke:none; fill-opacity:0" cx="2478.15" cy="1259.33" r="2"/>
<circle clip-path="url(#clip541)" style="fill:#4682b4; stroke:none; fill-opacity:0" cx="2532.97" cy="1259.33" r="2"/>
<circle clip-path="url(#clip541)" style="fill:#4682b4; stroke:none; fill-opacity:0" cx="2587.8" cy="1259.33" r="2"/>
<circle clip-path="url(#clip541)" style="fill:#4682b4; stroke:none; fill-opacity:0" cx="2642.62" cy="1259.33" r="2"/>
<circle clip-path="url(#clip541)" style="fill:#4682b4; stroke:none; fill-opacity:0" cx="2697.44" cy="1259.33" r="2"/>
<circle clip-path="url(#clip541)" style="fill:#4682b4; stroke:none; fill-opacity:0" cx="2752.27" cy="1259.33" r="2"/>
<circle clip-path="url(#clip541)" style="fill:#4682b4; stroke:none; fill-opacity:0" cx="2807.09" cy="1259.33" r="2"/>
<circle clip-path="url(#clip541)" style="fill:#4682b4; stroke:none; fill-opacity:0" cx="2861.91" cy="1259.33" r="2"/>
<circle clip-path="url(#clip541)" style="fill:#4682b4; stroke:none; fill-opacity:0" cx="2916.74" cy="1259.33" r="2"/>
<circle clip-path="url(#clip541)" style="fill:#4682b4; stroke:none; fill-opacity:0" cx="2971.56" cy="1259.33" r="2"/>
<circle clip-path="url(#clip541)" style="fill:#4682b4; stroke:none; fill-opacity:0" cx="3026.38" cy="1259.33" r="2"/>
<circle clip-path="url(#clip541)" style="fill:#4682b4; stroke:none; fill-opacity:0" cx="3081.21" cy="1259.33" r="2"/>
<circle clip-path="url(#clip541)" style="fill:#4682b4; stroke:none; fill-opacity:0" cx="3136.03" cy="1259.33" r="2"/>
<circle clip-path="url(#clip541)" style="fill:#4682b4; stroke:none; fill-opacity:0" cx="3190.85" cy="1259.33" r="2"/>
<circle clip-path="url(#clip541)" style="fill:#4682b4; stroke:none; fill-opacity:0" cx="3245.68" cy="1259.33" r="2"/>
<circle clip-path="url(#clip541)" style="fill:#4682b4; stroke:none; fill-opacity:0" cx="3300.5" cy="1259.33" r="2"/>
<circle clip-path="url(#clip541)" style="fill:#4682b4; stroke:none; fill-opacity:0" cx="3355.32" cy="1259.33" r="2"/>
<path clip-path="url(#clip540)" d="M2755.46 240.656 L3446.39 240.656 L3446.39 136.976 L2755.46 136.976  Z" fill="#ffffff" fill-rule="evenodd" fill-opacity="1"/>
<polyline clip-path="url(#clip540)" style="stroke:#000000; stroke-linecap:round; stroke-linejoin:round; stroke-width:4; stroke-opacity:1; fill:none" points="2755.46,240.656 3446.39,240.656 3446.39,136.976 2755.46,136.976 2755.46,240.656 "/>
<path clip-path="url(#clip540)" d="M2790.91 209.552 L3003.64 209.552 L3003.64 168.08 L2790.91 168.08 L2790.91 209.552  Z" fill="#4682b4" fill-rule="evenodd" fill-opacity="0.7"/>
<polyline clip-path="url(#clip540)" style="stroke:#000000; stroke-linecap:round; stroke-linejoin:round; stroke-width:4; stroke-opacity:1; fill:none" points="2790.91,209.552 3003.64,209.552 3003.64,168.08 2790.91,168.08 2790.91,209.552 "/>
<path clip-path="url(#clip540)" d="M3055.11 174.707 Q3050.02 174.707 3047.01 178.503 Q3044.02 182.3 3044.02 188.85 Q3044.02 195.378 3047.01 199.174 Q3050.02 202.971 3055.11 202.971 Q3060.2 202.971 3063.16 199.174 Q3066.15 195.378 3066.15 188.85 Q3066.15 182.3 3063.16 178.503 Q3060.2 174.707 3055.11 174.707 M3055.11 170.911 Q3062.38 170.911 3066.73 175.795 Q3071.08 180.656 3071.08 188.85 Q3071.08 197.022 3066.73 201.906 Q3062.38 206.767 3055.11 206.767 Q3047.82 206.767 3043.44 201.906 Q3039.09 197.045 3039.09 188.85 Q3039.09 180.656 3043.44 175.795 Q3047.82 170.911 3055.11 170.911 Z" fill="#000000" fill-rule="nonzero" fill-opacity="1" /><path clip-path="url(#clip540)" d="M3096.82 193.156 Q3096.82 188.457 3094.88 185.795 Q3092.96 183.11 3089.58 183.11 Q3086.2 183.11 3084.25 185.795 Q3082.33 188.457 3082.33 193.156 Q3082.33 197.855 3084.25 200.54 Q3086.2 203.202 3089.58 203.202 Q3092.96 203.202 3094.88 200.54 Q3096.82 197.855 3096.82 193.156 M3082.33 184.105 Q3083.67 181.79 3085.71 180.679 Q3087.77 179.545 3090.62 179.545 Q3095.34 179.545 3098.28 183.295 Q3101.24 187.045 3101.24 193.156 Q3101.24 199.267 3098.28 203.017 Q3095.34 206.767 3090.62 206.767 Q3087.77 206.767 3085.71 205.656 Q3083.67 204.522 3082.33 202.207 L3082.33 206.096 L3078.05 206.096 L3078.05 170.077 L3082.33 170.077 L3082.33 184.105 Z" fill="#000000" fill-rule="nonzero" fill-opacity="1" /><path clip-path="url(#clip540)" d="M3124.83 180.934 L3124.83 184.962 Q3123.03 184.036 3121.08 183.573 Q3119.14 183.11 3117.05 183.11 Q3113.88 183.11 3112.28 184.082 Q3110.71 185.054 3110.71 186.999 Q3110.71 188.48 3111.84 189.337 Q3112.98 190.17 3116.4 190.934 L3117.86 191.258 Q3122.4 192.23 3124.3 194.012 Q3126.22 195.772 3126.22 198.943 Q3126.22 202.554 3123.35 204.661 Q3120.5 206.767 3115.5 206.767 Q3113.42 206.767 3111.15 206.35 Q3108.9 205.957 3106.4 205.147 L3106.4 200.749 Q3108.77 201.975 3111.06 202.6 Q3113.35 203.202 3115.59 203.202 Q3118.6 203.202 3120.22 202.184 Q3121.84 201.142 3121.84 199.267 Q3121.84 197.531 3120.66 196.605 Q3119.51 195.679 3115.55 194.823 L3114.07 194.475 Q3110.11 193.642 3108.35 191.929 Q3106.59 190.193 3106.59 187.184 Q3106.59 183.526 3109.18 181.536 Q3111.78 179.545 3116.54 179.545 Q3118.9 179.545 3120.99 179.892 Q3123.07 180.239 3124.83 180.934 Z" fill="#000000" fill-rule="nonzero" fill-opacity="1" /><path clip-path="url(#clip540)" d="M3155.18 192.068 L3155.18 194.151 L3135.59 194.151 Q3135.87 198.549 3138.23 200.864 Q3140.62 203.156 3144.85 203.156 Q3147.31 203.156 3149.6 202.554 Q3151.91 201.952 3154.18 200.749 L3154.18 204.776 Q3151.89 205.748 3149.48 206.258 Q3147.08 206.767 3144.6 206.767 Q3138.4 206.767 3134.76 203.156 Q3131.15 199.545 3131.15 193.387 Q3131.15 187.022 3134.58 183.295 Q3138.03 179.545 3143.86 179.545 Q3149.09 179.545 3152.12 182.925 Q3155.18 186.281 3155.18 192.068 M3150.92 190.818 Q3150.87 187.323 3148.95 185.239 Q3147.05 183.156 3143.9 183.156 Q3140.34 183.156 3138.19 185.17 Q3136.06 187.184 3135.73 190.841 L3150.92 190.818 Z" fill="#000000" fill-rule="nonzero" fill-opacity="1" /><path clip-path="url(#clip540)" d="M3177.19 184.151 Q3176.47 183.735 3175.62 183.55 Q3174.78 183.341 3173.77 183.341 Q3170.15 183.341 3168.21 185.702 Q3166.29 188.04 3166.29 192.438 L3166.29 206.096 L3162.01 206.096 L3162.01 180.17 L3166.29 180.17 L3166.29 184.198 Q3167.63 181.837 3169.78 180.702 Q3171.94 179.545 3175.02 179.545 Q3175.46 179.545 3175.99 179.614 Q3176.52 179.661 3177.17 179.776 L3177.19 184.151 Z" fill="#000000" fill-rule="nonzero" fill-opacity="1" /><path clip-path="url(#clip540)" d="M3178.6 180.17 L3183.12 180.17 L3191.22 201.929 L3199.32 180.17 L3203.83 180.17 L3194.11 206.096 L3188.33 206.096 L3178.6 180.17 Z" fill="#000000" fill-rule="nonzero" fill-opacity="1" /><path clip-path="url(#clip540)" d="M3231.89 192.068 L3231.89 194.151 L3212.31 194.151 Q3212.58 198.549 3214.95 200.864 Q3217.33 203.156 3221.57 203.156 Q3224.02 203.156 3226.31 202.554 Q3228.63 201.952 3230.89 200.749 L3230.89 204.776 Q3228.6 205.748 3226.2 206.258 Q3223.79 206.767 3221.31 206.767 Q3215.11 206.767 3211.47 203.156 Q3207.86 199.545 3207.86 193.387 Q3207.86 187.022 3211.29 183.295 Q3214.74 179.545 3220.57 179.545 Q3225.8 179.545 3228.83 182.925 Q3231.89 186.281 3231.89 192.068 M3227.63 190.818 Q3227.58 187.323 3225.66 185.239 Q3223.77 183.156 3220.62 183.156 Q3217.05 183.156 3214.9 185.17 Q3212.77 187.184 3212.45 190.841 L3227.63 190.818 Z" fill="#000000" fill-rule="nonzero" fill-opacity="1" /><path clip-path="url(#clip540)" d="M3255.94 184.105 L3255.94 170.077 L3260.2 170.077 L3260.2 206.096 L3255.94 206.096 L3255.94 202.207 Q3254.6 204.522 3252.54 205.656 Q3250.5 206.767 3247.63 206.767 Q3242.93 206.767 3239.97 203.017 Q3237.03 199.267 3237.03 193.156 Q3237.03 187.045 3239.97 183.295 Q3242.93 179.545 3247.63 179.545 Q3250.5 179.545 3252.54 180.679 Q3254.6 181.79 3255.94 184.105 M3241.43 193.156 Q3241.43 197.855 3243.35 200.54 Q3245.29 203.202 3248.67 203.202 Q3252.05 203.202 3254 200.54 Q3255.94 197.855 3255.94 193.156 Q3255.94 188.457 3254 185.795 Q3252.05 183.11 3248.67 183.11 Q3245.29 183.11 3243.35 185.795 Q3241.43 188.457 3241.43 193.156 Z" fill="#000000" fill-rule="nonzero" fill-opacity="1" /><path clip-path="url(#clip540)" d="M3302.7 181.165 L3302.7 185.147 Q3300.89 184.151 3299.07 183.665 Q3297.26 183.156 3295.41 183.156 Q3291.26 183.156 3288.97 185.795 Q3286.68 188.411 3286.68 193.156 Q3286.68 197.901 3288.97 200.54 Q3291.26 203.156 3295.41 203.156 Q3297.26 203.156 3299.07 202.67 Q3300.89 202.161 3302.7 201.165 L3302.7 205.1 Q3300.92 205.934 3299 206.35 Q3297.1 206.767 3294.95 206.767 Q3289.09 206.767 3285.64 203.086 Q3282.19 199.406 3282.19 193.156 Q3282.19 186.813 3285.66 183.179 Q3289.16 179.545 3295.22 179.545 Q3297.19 179.545 3299.07 179.962 Q3300.94 180.355 3302.7 181.165 Z" fill="#000000" fill-rule="nonzero" fill-opacity="1" /><path clip-path="url(#clip540)" d="M3321.89 193.063 Q3316.73 193.063 3314.74 194.244 Q3312.75 195.424 3312.75 198.272 Q3312.75 200.54 3314.23 201.883 Q3315.73 203.202 3318.3 203.202 Q3321.84 203.202 3323.97 200.702 Q3326.13 198.179 3326.13 194.012 L3326.13 193.063 L3321.89 193.063 M3330.39 191.304 L3330.39 206.096 L3326.13 206.096 L3326.13 202.161 Q3324.67 204.522 3322.49 205.656 Q3320.32 206.767 3317.17 206.767 Q3313.19 206.767 3310.83 204.545 Q3308.49 202.299 3308.49 198.549 Q3308.49 194.174 3311.4 191.952 Q3314.34 189.73 3320.15 189.73 L3326.13 189.73 L3326.13 189.313 Q3326.13 186.374 3324.18 184.776 Q3322.26 183.156 3318.76 183.156 Q3316.54 183.156 3314.44 183.688 Q3312.33 184.221 3310.39 185.286 L3310.39 181.35 Q3312.72 180.448 3314.92 180.008 Q3317.12 179.545 3319.2 179.545 Q3324.83 179.545 3327.61 182.462 Q3330.39 185.378 3330.39 191.304 Z" fill="#000000" fill-rule="nonzero" fill-opacity="1" /><path clip-path="url(#clip540)" d="M3355.69 180.934 L3355.69 184.962 Q3353.88 184.036 3351.94 183.573 Q3349.99 183.11 3347.91 183.11 Q3344.74 183.11 3343.14 184.082 Q3341.57 185.054 3341.57 186.999 Q3341.57 188.48 3342.7 189.337 Q3343.83 190.17 3347.26 190.934 L3348.72 191.258 Q3353.26 192.23 3355.15 194.012 Q3357.07 195.772 3357.07 198.943 Q3357.07 202.554 3354.2 204.661 Q3351.36 206.767 3346.36 206.767 Q3344.27 206.767 3342.01 206.35 Q3339.76 205.957 3337.26 205.147 L3337.26 200.749 Q3339.62 201.975 3341.91 202.6 Q3344.2 203.202 3346.45 203.202 Q3349.46 203.202 3351.08 202.184 Q3352.7 201.142 3352.7 199.267 Q3352.7 197.531 3351.52 196.605 Q3350.36 195.679 3346.4 194.823 L3344.92 194.475 Q3340.96 193.642 3339.2 191.929 Q3337.45 190.193 3337.45 187.184 Q3337.45 183.526 3340.04 181.536 Q3342.63 179.545 3347.4 179.545 Q3349.76 179.545 3351.84 179.892 Q3353.93 180.239 3355.69 180.934 Z" fill="#000000" fill-rule="nonzero" fill-opacity="1" /><path clip-path="url(#clip540)" d="M3386.03 192.068 L3386.03 194.151 L3366.45 194.151 Q3366.73 198.549 3369.09 200.864 Q3371.47 203.156 3375.71 203.156 Q3378.16 203.156 3380.45 202.554 Q3382.77 201.952 3385.04 200.749 L3385.04 204.776 Q3382.75 205.748 3380.34 206.258 Q3377.93 206.767 3375.45 206.767 Q3369.25 206.767 3365.62 203.156 Q3362.01 199.545 3362.01 193.387 Q3362.01 187.022 3365.43 183.295 Q3368.88 179.545 3374.71 179.545 Q3379.95 179.545 3382.98 182.925 Q3386.03 186.281 3386.03 192.068 M3381.77 190.818 Q3381.73 187.323 3379.81 185.239 Q3377.91 183.156 3374.76 183.156 Q3371.2 183.156 3369.04 185.17 Q3366.91 187.184 3366.59 190.841 L3381.77 190.818 Z" fill="#000000" fill-rule="nonzero" fill-opacity="1" /><path clip-path="url(#clip540)" d="M3409.55 180.934 L3409.55 184.962 Q3407.75 184.036 3405.8 183.573 Q3403.86 183.11 3401.77 183.11 Q3398.6 183.11 3397.01 184.082 Q3395.43 185.054 3395.43 186.999 Q3395.43 188.48 3396.57 189.337 Q3397.7 190.17 3401.13 190.934 L3402.58 191.258 Q3407.12 192.23 3409.02 194.012 Q3410.94 195.772 3410.94 198.943 Q3410.94 202.554 3408.07 204.661 Q3405.22 206.767 3400.22 206.767 Q3398.14 206.767 3395.87 206.35 Q3393.63 205.957 3391.13 205.147 L3391.13 200.749 Q3393.49 201.975 3395.78 202.6 Q3398.07 203.202 3400.32 203.202 Q3403.32 203.202 3404.94 202.184 Q3406.57 201.142 3406.57 199.267 Q3406.57 197.531 3405.38 196.605 Q3404.23 195.679 3400.27 194.823 L3398.79 194.475 Q3394.83 193.642 3393.07 191.929 Q3391.31 190.193 3391.31 187.184 Q3391.31 183.526 3393.9 181.536 Q3396.5 179.545 3401.26 179.545 Q3403.63 179.545 3405.71 179.892 Q3407.79 180.239 3409.55 180.934 Z" fill="#000000" fill-rule="nonzero" fill-opacity="1" /></svg>
