<?xml version="1.0" encoding="utf-8"?>
<svg xmlns="http://www.w3.org/2000/svg" xmlns:xlink="http://www.w3.org/1999/xlink" width="672" height="480" viewBox="0 0 2688 1920">
<defs>
  <clipPath id="clip120">
    <rect x="0" y="0" width="2688" height="1920"/>
  </clipPath>
</defs>
<path clip-path="url(#clip120)" d="M0 1920 L2688 1920 L2688 -4.26326e-14 L0 -4.26326e-14  Z" fill="#ffffff" fill-rule="evenodd" fill-opacity="1"/>
<defs>
  <clipPath id="clip121">
    <rect x="308" y="127" width="2333" height="1607"/>
  </clipPath>
</defs>
<path clip-path="url(#clip120)" d="M308.733 1734.12 L2640.76 1734.12 L2640.76 127.792 L308.733 127.792  Z" fill="#ffffff" fill-rule="evenodd" fill-opacity="1"/>
<polyline clip-path="url(#clip121)" style="stroke:#000000; stroke-linecap:round; stroke-linejoin:round; stroke-width:2; stroke-opacity:0.1; fill:none" points="619.18,1734.12 619.18,127.792 "/>
<polyline clip-path="url(#clip121)" style="stroke:#000000; stroke-linecap:round; stroke-linejoin:round; stroke-width:2; stroke-opacity:0.1; fill:none" points="1108.07,1734.12 1108.07,127.792 "/>
<polyline clip-path="url(#clip121)" style="stroke:#000000; stroke-linecap:round; stroke-linejoin:round; stroke-width:2; stroke-opacity:0.1; fill:none" points="1596.97,1734.12 1596.97,127.792 "/>
<polyline clip-path="url(#clip121)" style="stroke:#000000; stroke-linecap:round; stroke-linejoin:round; stroke-width:2; stroke-opacity:0.1; fill:none" points="2085.86,1734.12 2085.86,127.792 "/>
<polyline clip-path="url(#clip121)" style="stroke:#000000; stroke-linecap:round; stroke-linejoin:round; stroke-width:2; stroke-opacity:0.1; fill:none" points="2574.76,1734.12 2574.76,127.792 "/>
<polyline clip-path="url(#clip121)" style="stroke:#000000; stroke-linecap:round; stroke-linejoin:round; stroke-width:2; stroke-opacity:0.1; fill:none" points="308.733,1726.22 2640.76,1726.22 "/>
<polyline clip-path="url(#clip121)" style="stroke:#000000; stroke-linecap:round; stroke-linejoin:round; stroke-width:2; stroke-opacity:0.1; fill:none" points="308.733,1318.08 2640.76,1318.08 "/>
<polyline clip-path="url(#clip121)" style="stroke:#000000; stroke-linecap:round; stroke-linejoin:round; stroke-width:2; stroke-opacity:0.1; fill:none" points="308.733,909.94 2640.76,909.94 "/>
<polyline clip-path="url(#clip121)" style="stroke:#000000; stroke-linecap:round; stroke-linejoin:round; stroke-width:2; stroke-opacity:0.1; fill:none" points="308.733,501.801 2640.76,501.801 "/>
<polyline clip-path="url(#clip120)" style="stroke:#000000; stroke-linecap:round; stroke-linejoin:round; stroke-width:4; stroke-opacity:1; fill:none" points="308.733,1734.12 2640.76,1734.12 "/>
<polyline clip-path="url(#clip120)" style="stroke:#000000; stroke-linecap:round; stroke-linejoin:round; stroke-width:4; stroke-opacity:1; fill:none" points="619.18,1734.12 619.18,1715.22 "/>
<polyline clip-path="url(#clip120)" style="stroke:#000000; stroke-linecap:round; stroke-linejoin:round; stroke-width:4; stroke-opacity:1; fill:none" points="1108.07,1734.12 1108.07,1715.22 "/>
<polyline clip-path="url(#clip120)" style="stroke:#000000; stroke-linecap:round; stroke-linejoin:round; stroke-width:4; stroke-opacity:1; fill:none" points="1596.97,1734.12 1596.97,1715.22 "/>
<polyline clip-path="url(#clip120)" style="stroke:#000000; stroke-linecap:round; stroke-linejoin:round; stroke-width:4; stroke-opacity:1; fill:none" points="2085.86,1734.12 2085.86,1715.22 "/>
<polyline clip-path="url(#clip120)" style="stroke:#000000; stroke-linecap:round; stroke-linejoin:round; stroke-width:4; stroke-opacity:1; fill:none" points="2574.76,1734.12 2574.76,1715.22 "/>
<path clip-path="url(#clip120)" d="M597.363 1767.34 Q593.752 1767.34 591.923 1770.9 Q590.118 1774.45 590.118 1781.58 Q590.118 1788.68 591.923 1792.25 Q593.752 1795.79 597.363 1795.79 Q600.997 1795.79 602.803 1792.25 Q604.632 1788.68 604.632 1781.58 Q604.632 1774.45 602.803 1770.9 Q600.997 1767.34 597.363 1767.34 M597.363 1763.64 Q603.173 1763.64 606.229 1768.24 Q609.308 1772.83 609.308 1781.58 Q609.308 1790.3 606.229 1794.91 Q603.173 1799.49 597.363 1799.49 Q591.553 1799.49 588.474 1794.91 Q585.419 1790.3 585.419 1781.58 Q585.419 1772.83 588.474 1768.24 Q591.553 1763.64 597.363 1763.64 Z" fill="#000000" fill-rule="nonzero" fill-opacity="1" /><path clip-path="url(#clip120)" d="M617.525 1792.94 L622.409 1792.94 L622.409 1798.82 L617.525 1798.82 L617.525 1792.94 Z" fill="#000000" fill-rule="nonzero" fill-opacity="1" /><path clip-path="url(#clip120)" d="M636.622 1794.89 L652.942 1794.89 L652.942 1798.82 L630.997 1798.82 L630.997 1794.89 Q633.659 1792.13 638.243 1787.5 Q642.849 1782.85 644.03 1781.51 Q646.275 1778.98 647.155 1777.25 Q648.057 1775.49 648.057 1773.8 Q648.057 1771.04 646.113 1769.31 Q644.192 1767.57 641.09 1767.57 Q638.891 1767.57 636.437 1768.34 Q634.007 1769.1 631.229 1770.65 L631.229 1765.93 Q634.053 1764.79 636.507 1764.21 Q638.96 1763.64 640.997 1763.64 Q646.368 1763.64 649.562 1766.32 Q652.756 1769.01 652.756 1773.5 Q652.756 1775.63 651.946 1777.55 Q651.159 1779.45 649.053 1782.04 Q648.474 1782.71 645.372 1785.93 Q642.27 1789.12 636.622 1794.89 Z" fill="#000000" fill-rule="nonzero" fill-opacity="1" /><path clip-path="url(#clip120)" d="M1085.22 1767.34 Q1081.6 1767.34 1079.78 1770.9 Q1077.97 1774.45 1077.97 1781.58 Q1077.97 1788.68 1079.78 1792.25 Q1081.6 1795.79 1085.22 1795.79 Q1088.85 1795.79 1090.66 1792.25 Q1092.48 1788.68 1092.48 1781.58 Q1092.48 1774.45 1090.66 1770.9 Q1088.85 1767.34 1085.22 1767.34 M1085.22 1763.64 Q1091.03 1763.64 1094.08 1768.24 Q1097.16 1772.83 1097.16 1781.58 Q1097.16 1790.3 1094.08 1794.91 Q1091.03 1799.49 1085.22 1799.49 Q1079.41 1799.49 1076.33 1794.91 Q1073.27 1790.3 1073.27 1781.58 Q1073.27 1772.83 1076.33 1768.24 Q1079.41 1763.64 1085.22 1763.64 Z" fill="#000000" fill-rule="nonzero" fill-opacity="1" /><path clip-path="url(#clip120)" d="M1105.38 1792.94 L1110.26 1792.94 L1110.26 1798.82 L1105.38 1798.82 L1105.38 1792.94 Z" fill="#000000" fill-rule="nonzero" fill-opacity="1" /><path clip-path="url(#clip120)" d="M1133.29 1768.34 L1121.49 1786.78 L1133.29 1786.78 L1133.29 1768.34 M1132.07 1764.26 L1137.95 1764.26 L1137.95 1786.78 L1142.88 1786.78 L1142.88 1790.67 L1137.95 1790.67 L1137.95 1798.82 L1133.29 1798.82 L1133.29 1790.67 L1117.69 1790.67 L1117.69 1786.16 L1132.07 1764.26 Z" fill="#000000" fill-rule="nonzero" fill-opacity="1" /><path clip-path="url(#clip120)" d="M1574.27 1767.34 Q1570.66 1767.34 1568.83 1770.9 Q1567.03 1774.45 1567.03 1781.58 Q1567.03 1788.68 1568.83 1792.25 Q1570.66 1795.79 1574.27 1795.79 Q1577.91 1795.79 1579.71 1792.25 Q1581.54 1788.68 1581.54 1781.58 Q1581.54 1774.45 1579.71 1770.9 Q1577.91 1767.34 1574.27 1767.34 M1574.27 1763.64 Q1580.08 1763.64 1583.14 1768.24 Q1586.22 1772.83 1586.22 1781.58 Q1586.22 1790.3 1583.14 1794.91 Q1580.08 1799.49 1574.27 1799.49 Q1568.46 1799.49 1565.38 1794.91 Q1562.33 1790.3 1562.33 1781.58 Q1562.33 1772.83 1565.38 1768.24 Q1568.46 1763.64 1574.27 1763.64 Z" fill="#000000" fill-rule="nonzero" fill-opacity="1" /><path clip-path="url(#clip120)" d="M1594.43 1792.94 L1599.32 1792.94 L1599.32 1798.82 L1594.43 1798.82 L1594.43 1792.94 Z" fill="#000000" fill-rule="nonzero" fill-opacity="1" /><path clip-path="url(#clip120)" d="M1620.08 1779.68 Q1616.93 1779.68 1615.08 1781.83 Q1613.25 1783.98 1613.25 1787.73 Q1613.25 1791.46 1615.08 1793.64 Q1616.93 1795.79 1620.08 1795.79 Q1623.23 1795.79 1625.06 1793.64 Q1626.91 1791.46 1626.91 1787.73 Q1626.91 1783.98 1625.06 1781.83 Q1623.23 1779.68 1620.08 1779.68 M1629.36 1765.02 L1629.36 1769.28 Q1627.6 1768.45 1625.8 1768.01 Q1624.02 1767.57 1622.26 1767.57 Q1617.63 1767.57 1615.17 1770.7 Q1612.74 1773.82 1612.4 1780.14 Q1613.76 1778.13 1615.82 1777.06 Q1617.88 1775.97 1620.36 1775.97 Q1625.57 1775.97 1628.58 1779.15 Q1631.61 1782.29 1631.61 1787.73 Q1631.61 1793.06 1628.46 1796.27 Q1625.31 1799.49 1620.08 1799.49 Q1614.09 1799.49 1610.91 1794.91 Q1607.74 1790.3 1607.74 1781.58 Q1607.74 1773.38 1611.63 1768.52 Q1615.52 1763.64 1622.07 1763.64 Q1623.83 1763.64 1625.61 1763.98 Q1627.42 1764.33 1629.36 1765.02 Z" fill="#000000" fill-rule="nonzero" fill-opacity="1" /><path clip-path="url(#clip120)" d="M2063.29 1767.34 Q2059.68 1767.34 2057.85 1770.9 Q2056.05 1774.45 2056.05 1781.58 Q2056.05 1788.68 2057.85 1792.25 Q2059.68 1795.79 2063.29 1795.79 Q2066.93 1795.79 2068.73 1792.25 Q2070.56 1788.68 2070.56 1781.58 Q2070.56 1774.45 2068.73 1770.9 Q2066.93 1767.34 2063.29 1767.34 M2063.29 1763.64 Q2069.1 1763.64 2072.16 1768.24 Q2075.24 1772.83 2075.24 1781.58 Q2075.24 1790.3 2072.16 1794.91 Q2069.1 1799.49 2063.29 1799.49 Q2057.48 1799.49 2054.4 1794.91 Q2051.35 1790.3 2051.35 1781.58 Q2051.35 1772.83 2054.4 1768.24 Q2057.48 1763.64 2063.29 1763.64 Z" fill="#000000" fill-rule="nonzero" fill-opacity="1" /><path clip-path="url(#clip120)" d="M2083.45 1792.94 L2088.34 1792.94 L2088.34 1798.82 L2083.45 1798.82 L2083.45 1792.94 Z" fill="#000000" fill-rule="nonzero" fill-opacity="1" /><path clip-path="url(#clip120)" d="M2108.52 1782.41 Q2105.19 1782.41 2103.27 1784.19 Q2101.37 1785.97 2101.37 1789.1 Q2101.37 1792.22 2103.27 1794.01 Q2105.19 1795.79 2108.52 1795.79 Q2111.86 1795.79 2113.78 1794.01 Q2115.7 1792.2 2115.7 1789.1 Q2115.7 1785.97 2113.78 1784.19 Q2111.88 1782.41 2108.52 1782.41 M2103.85 1780.42 Q2100.84 1779.68 2099.15 1777.62 Q2097.48 1775.56 2097.48 1772.59 Q2097.48 1768.45 2100.42 1766.04 Q2103.38 1763.64 2108.52 1763.64 Q2113.69 1763.64 2116.63 1766.04 Q2119.57 1768.45 2119.57 1772.59 Q2119.57 1775.56 2117.88 1777.62 Q2116.21 1779.68 2113.22 1780.42 Q2116.6 1781.21 2118.48 1783.5 Q2120.38 1785.79 2120.38 1789.1 Q2120.38 1794.12 2117.3 1796.81 Q2114.24 1799.49 2108.52 1799.49 Q2102.81 1799.49 2099.73 1796.81 Q2096.67 1794.12 2096.67 1789.1 Q2096.67 1785.79 2098.57 1783.5 Q2100.47 1781.21 2103.85 1780.42 M2102.13 1773.03 Q2102.13 1775.72 2103.8 1777.22 Q2105.49 1778.73 2108.52 1778.73 Q2111.53 1778.73 2113.22 1777.22 Q2114.94 1775.72 2114.94 1773.03 Q2114.94 1770.35 2113.22 1768.84 Q2111.53 1767.34 2108.52 1767.34 Q2105.49 1767.34 2103.8 1768.84 Q2102.13 1770.35 2102.13 1773.03 Z" fill="#000000" fill-rule="nonzero" fill-opacity="1" /><path clip-path="url(#clip120)" d="M2541.91 1794.89 L2549.55 1794.89 L2549.55 1768.52 L2541.24 1770.19 L2541.24 1765.93 L2549.5 1764.26 L2554.18 1764.26 L2554.18 1794.89 L2561.82 1794.89 L2561.82 1798.82 L2541.91 1798.82 L2541.91 1794.89 Z" fill="#000000" fill-rule="nonzero" fill-opacity="1" /><path clip-path="url(#clip120)" d="M2571.26 1792.94 L2576.14 1792.94 L2576.14 1798.82 L2571.26 1798.82 L2571.26 1792.94 Z" fill="#000000" fill-rule="nonzero" fill-opacity="1" /><path clip-path="url(#clip120)" d="M2596.33 1767.34 Q2592.72 1767.34 2590.89 1770.9 Q2589.08 1774.45 2589.08 1781.58 Q2589.08 1788.68 2590.89 1792.25 Q2592.72 1795.79 2596.33 1795.79 Q2599.96 1795.79 2601.77 1792.25 Q2603.6 1788.68 2603.6 1781.58 Q2603.6 1774.45 2601.77 1770.9 Q2599.96 1767.34 2596.33 1767.34 M2596.33 1763.64 Q2602.14 1763.64 2605.19 1768.24 Q2608.27 1772.83 2608.27 1781.58 Q2608.27 1790.3 2605.19 1794.91 Q2602.14 1799.49 2596.33 1799.49 Q2590.52 1799.49 2587.44 1794.91 Q2584.38 1790.3 2584.38 1781.58 Q2584.38 1772.83 2587.44 1768.24 Q2590.52 1763.64 2596.33 1763.64 Z" fill="#000000" fill-rule="nonzero" fill-opacity="1" /><path clip-path="url(#clip120)" d="M1465.23 1881.1 L1465.23 1896.86 L1459.34 1896.86 L1459.34 1847.88 Q1459.34 1833.36 1472.9 1833.36 Q1486.71 1833.36 1486.71 1845.62 Q1486.71 1854.34 1481.24 1857.52 Q1490.15 1860.38 1490.15 1868.88 Q1490.15 1883.97 1474.81 1883.97 Q1468.06 1883.97 1465.23 1881.1 M1465.23 1873.47 Q1468.76 1878.97 1475.03 1878.97 Q1484.2 1878.97 1484.2 1868.98 Q1484.2 1860 1469.43 1860.7 L1469.43 1855.29 Q1480.98 1855.29 1480.98 1845.11 Q1480.98 1838.14 1473.53 1838.14 Q1465.23 1838.14 1465.23 1848.07 L1465.23 1873.47 Z" fill="#000000" fill-rule="nonzero" fill-opacity="1" /><polyline clip-path="url(#clip120)" style="stroke:#000000; stroke-linecap:round; stroke-linejoin:round; stroke-width:4; stroke-opacity:1; fill:none" points="308.733,1734.12 308.733,127.792 "/>
<polyline clip-path="url(#clip120)" style="stroke:#000000; stroke-linecap:round; stroke-linejoin:round; stroke-width:4; stroke-opacity:1; fill:none" points="308.733,1726.22 327.63,1726.22 "/>
<polyline clip-path="url(#clip120)" style="stroke:#000000; stroke-linecap:round; stroke-linejoin:round; stroke-width:4; stroke-opacity:1; fill:none" points="308.733,1318.08 327.63,1318.08 "/>
<polyline clip-path="url(#clip120)" style="stroke:#000000; stroke-linecap:round; stroke-linejoin:round; stroke-width:4; stroke-opacity:1; fill:none" points="308.733,909.94 327.63,909.94 "/>
<polyline clip-path="url(#clip120)" style="stroke:#000000; stroke-linecap:round; stroke-linejoin:round; stroke-width:4; stroke-opacity:1; fill:none" points="308.733,501.801 327.63,501.801 "/>
<path clip-path="url(#clip120)" d="M116.214 1726.67 L145.89 1726.67 L145.89 1730.6 L116.214 1730.6 L116.214 1726.67 Z" fill="#000000" fill-rule="nonzero" fill-opacity="1" /><path clip-path="url(#clip120)" d="M160.011 1739.56 L176.33 1739.56 L176.33 1743.5 L154.386 1743.5 L154.386 1739.56 Q157.048 1736.81 161.631 1732.18 Q166.237 1727.53 167.418 1726.18 Q169.663 1723.66 170.543 1721.92 Q171.446 1720.16 171.446 1718.48 Q171.446 1715.72 169.501 1713.98 Q167.58 1712.25 164.478 1712.25 Q162.279 1712.25 159.825 1713.01 Q157.395 1713.78 154.617 1715.33 L154.617 1710.6 Q157.441 1709.47 159.895 1708.89 Q162.348 1708.31 164.385 1708.31 Q169.756 1708.31 172.95 1711 Q176.145 1713.68 176.145 1718.17 Q176.145 1720.3 175.334 1722.23 Q174.547 1724.12 172.441 1726.72 Q171.862 1727.39 168.76 1730.6 Q165.659 1733.8 160.011 1739.56 Z" fill="#000000" fill-rule="nonzero" fill-opacity="1" /><path clip-path="url(#clip120)" d="M196.145 1712.02 Q192.533 1712.02 190.705 1715.58 Q188.899 1719.12 188.899 1726.25 Q188.899 1733.36 190.705 1736.92 Q192.533 1740.47 196.145 1740.47 Q199.779 1740.47 201.584 1736.92 Q203.413 1733.36 203.413 1726.25 Q203.413 1719.12 201.584 1715.58 Q199.779 1712.02 196.145 1712.02 M196.145 1708.31 Q201.955 1708.31 205.01 1712.92 Q208.089 1717.5 208.089 1726.25 Q208.089 1734.98 205.01 1739.59 Q201.955 1744.17 196.145 1744.17 Q190.334 1744.17 187.256 1739.59 Q184.2 1734.98 184.2 1726.25 Q184.2 1717.5 187.256 1712.92 Q190.334 1708.31 196.145 1708.31 Z" fill="#000000" fill-rule="nonzero" fill-opacity="1" /><path clip-path="url(#clip120)" d="M226.306 1712.02 Q222.695 1712.02 220.867 1715.58 Q219.061 1719.12 219.061 1726.25 Q219.061 1733.36 220.867 1736.92 Q222.695 1740.47 226.306 1740.47 Q229.941 1740.47 231.746 1736.92 Q233.575 1733.36 233.575 1726.25 Q233.575 1719.12 231.746 1715.58 Q229.941 1712.02 226.306 1712.02 M226.306 1708.31 Q232.117 1708.31 235.172 1712.92 Q238.251 1717.5 238.251 1726.25 Q238.251 1734.98 235.172 1739.59 Q232.117 1744.17 226.306 1744.17 Q220.496 1744.17 217.418 1739.59 Q214.362 1734.98 214.362 1726.25 Q214.362 1717.5 217.418 1712.92 Q220.496 1708.31 226.306 1708.31 Z" fill="#000000" fill-rule="nonzero" fill-opacity="1" /><path clip-path="url(#clip120)" d="M256.468 1712.02 Q252.857 1712.02 251.029 1715.58 Q249.223 1719.12 249.223 1726.25 Q249.223 1733.36 251.029 1736.92 Q252.857 1740.47 256.468 1740.47 Q260.103 1740.47 261.908 1736.92 Q263.737 1733.36 263.737 1726.25 Q263.737 1719.12 261.908 1715.58 Q260.103 1712.02 256.468 1712.02 M256.468 1708.31 Q262.278 1708.31 265.334 1712.92 Q268.413 1717.5 268.413 1726.25 Q268.413 1734.98 265.334 1739.59 Q262.278 1744.17 256.468 1744.17 Q250.658 1744.17 247.579 1739.59 Q244.524 1734.98 244.524 1726.25 Q244.524 1717.5 247.579 1712.92 Q250.658 1708.31 256.468 1708.31 Z" fill="#000000" fill-rule="nonzero" fill-opacity="1" /><path clip-path="url(#clip120)" d="M116.214 1318.53 L145.89 1318.53 L145.89 1322.47 L116.214 1322.47 L116.214 1318.53 Z" fill="#000000" fill-rule="nonzero" fill-opacity="1" /><path clip-path="url(#clip120)" d="M156.793 1331.42 L164.432 1331.42 L164.432 1305.06 L156.122 1306.72 L156.122 1302.47 L164.385 1300.8 L169.061 1300.8 L169.061 1331.42 L176.7 1331.42 L176.7 1335.36 L156.793 1335.36 L156.793 1331.42 Z" fill="#000000" fill-rule="nonzero" fill-opacity="1" /><path clip-path="url(#clip120)" d="M186.191 1300.8 L204.547 1300.8 L204.547 1304.73 L190.473 1304.73 L190.473 1313.21 Q191.492 1312.86 192.51 1312.7 Q193.529 1312.51 194.547 1312.51 Q200.334 1312.51 203.714 1315.68 Q207.094 1318.85 207.094 1324.27 Q207.094 1329.85 203.621 1332.95 Q200.149 1336.03 193.83 1336.03 Q191.654 1336.03 189.385 1335.66 Q187.14 1335.29 184.733 1334.55 L184.733 1329.85 Q186.816 1330.98 189.038 1331.54 Q191.26 1332.1 193.737 1332.1 Q197.742 1332.1 200.08 1329.99 Q202.418 1327.88 202.418 1324.27 Q202.418 1320.66 200.08 1318.55 Q197.742 1316.45 193.737 1316.45 Q191.862 1316.45 189.987 1316.86 Q188.135 1317.28 186.191 1318.16 L186.191 1300.8 Z" fill="#000000" fill-rule="nonzero" fill-opacity="1" /><path clip-path="url(#clip120)" d="M226.306 1303.88 Q222.695 1303.88 220.867 1307.44 Q219.061 1310.98 219.061 1318.11 Q219.061 1325.22 220.867 1328.78 Q222.695 1332.33 226.306 1332.33 Q229.941 1332.33 231.746 1328.78 Q233.575 1325.22 233.575 1318.11 Q233.575 1310.98 231.746 1307.44 Q229.941 1303.88 226.306 1303.88 M226.306 1300.17 Q232.117 1300.17 235.172 1304.78 Q238.251 1309.36 238.251 1318.11 Q238.251 1326.84 235.172 1331.45 Q232.117 1336.03 226.306 1336.03 Q220.496 1336.03 217.418 1331.45 Q214.362 1326.84 214.362 1318.11 Q214.362 1309.36 217.418 1304.78 Q220.496 1300.17 226.306 1300.17 Z" fill="#000000" fill-rule="nonzero" fill-opacity="1" /><path clip-path="url(#clip120)" d="M256.468 1303.88 Q252.857 1303.88 251.029 1307.44 Q249.223 1310.98 249.223 1318.11 Q249.223 1325.22 251.029 1328.78 Q252.857 1332.33 256.468 1332.33 Q260.103 1332.33 261.908 1328.78 Q263.737 1325.22 263.737 1318.11 Q263.737 1310.98 261.908 1307.44 Q260.103 1303.88 256.468 1303.88 M256.468 1300.17 Q262.278 1300.17 265.334 1304.78 Q268.413 1309.36 268.413 1318.11 Q268.413 1326.84 265.334 1331.45 Q262.278 1336.03 256.468 1336.03 Q250.658 1336.03 247.579 1331.45 Q244.524 1326.84 244.524 1318.11 Q244.524 1309.36 247.579 1304.78 Q250.658 1300.17 256.468 1300.17 Z" fill="#000000" fill-rule="nonzero" fill-opacity="1" /><path clip-path="url(#clip120)" d="M116.214 910.391 L145.89 910.391 L145.89 914.326 L116.214 914.326 L116.214 910.391 Z" fill="#000000" fill-rule="nonzero" fill-opacity="1" /><path clip-path="url(#clip120)" d="M156.793 923.285 L164.432 923.285 L164.432 896.919 L156.122 898.586 L156.122 894.327 L164.385 892.66 L169.061 892.66 L169.061 923.285 L176.7 923.285 L176.7 927.22 L156.793 927.22 L156.793 923.285 Z" fill="#000000" fill-rule="nonzero" fill-opacity="1" /><path clip-path="url(#clip120)" d="M196.145 895.739 Q192.533 895.739 190.705 899.303 Q188.899 902.845 188.899 909.975 Q188.899 917.081 190.705 920.646 Q192.533 924.188 196.145 924.188 Q199.779 924.188 201.584 920.646 Q203.413 917.081 203.413 909.975 Q203.413 902.845 201.584 899.303 Q199.779 895.739 196.145 895.739 M196.145 892.035 Q201.955 892.035 205.01 896.641 Q208.089 901.225 208.089 909.975 Q208.089 918.701 205.01 923.308 Q201.955 927.891 196.145 927.891 Q190.334 927.891 187.256 923.308 Q184.2 918.701 184.2 909.975 Q184.2 901.225 187.256 896.641 Q190.334 892.035 196.145 892.035 Z" fill="#000000" fill-rule="nonzero" fill-opacity="1" /><path clip-path="url(#clip120)" d="M226.306 895.739 Q222.695 895.739 220.867 899.303 Q219.061 902.845 219.061 909.975 Q219.061 917.081 220.867 920.646 Q222.695 924.188 226.306 924.188 Q229.941 924.188 231.746 920.646 Q233.575 917.081 233.575 909.975 Q233.575 902.845 231.746 899.303 Q229.941 895.739 226.306 895.739 M226.306 892.035 Q232.117 892.035 235.172 896.641 Q238.251 901.225 238.251 909.975 Q238.251 918.701 235.172 923.308 Q232.117 927.891 226.306 927.891 Q220.496 927.891 217.418 923.308 Q214.362 918.701 214.362 909.975 Q214.362 901.225 217.418 896.641 Q220.496 892.035 226.306 892.035 Z" fill="#000000" fill-rule="nonzero" fill-opacity="1" /><path clip-path="url(#clip120)" d="M256.468 895.739 Q252.857 895.739 251.029 899.303 Q249.223 902.845 249.223 909.975 Q249.223 917.081 251.029 920.646 Q252.857 924.188 256.468 924.188 Q260.103 924.188 261.908 920.646 Q263.737 917.081 263.737 909.975 Q263.737 902.845 261.908 899.303 Q260.103 895.739 256.468 895.739 M256.468 892.035 Q262.278 892.035 265.334 896.641 Q268.413 901.225 268.413 909.975 Q268.413 918.701 265.334 923.308 Q262.278 927.891 256.468 927.891 Q250.658 927.891 247.579 923.308 Q244.524 918.701 244.524 909.975 Q244.524 901.225 247.579 896.641 Q250.658 892.035 256.468 892.035 Z" fill="#000000" fill-rule="nonzero" fill-opacity="1" /><path clip-path="url(#clip120)" d="M146.376 502.252 L176.052 502.252 L176.052 506.187 L146.376 506.187 L146.376 502.252 Z" fill="#000000" fill-rule="nonzero" fill-opacity="1" /><path clip-path="url(#clip120)" d="M186.191 484.521 L204.547 484.521 L204.547 488.456 L190.473 488.456 L190.473 496.928 Q191.492 496.581 192.51 496.419 Q193.529 496.234 194.547 496.234 Q200.334 496.234 203.714 499.405 Q207.094 502.576 207.094 507.993 Q207.094 513.572 203.621 516.673 Q200.149 519.752 193.83 519.752 Q191.654 519.752 189.385 519.382 Q187.14 519.011 184.733 518.271 L184.733 513.572 Q186.816 514.706 189.038 515.261 Q191.26 515.817 193.737 515.817 Q197.742 515.817 200.08 513.711 Q202.418 511.604 202.418 507.993 Q202.418 504.382 200.08 502.275 Q197.742 500.169 193.737 500.169 Q191.862 500.169 189.987 500.586 Q188.135 501.002 186.191 501.882 L186.191 484.521 Z" fill="#000000" fill-rule="nonzero" fill-opacity="1" /><path clip-path="url(#clip120)" d="M226.306 487.6 Q222.695 487.6 220.867 491.164 Q219.061 494.706 219.061 501.836 Q219.061 508.942 220.867 512.507 Q222.695 516.048 226.306 516.048 Q229.941 516.048 231.746 512.507 Q233.575 508.942 233.575 501.836 Q233.575 494.706 231.746 491.164 Q229.941 487.6 226.306 487.6 M226.306 483.896 Q232.117 483.896 235.172 488.502 Q238.251 493.086 238.251 501.836 Q238.251 510.562 235.172 515.169 Q232.117 519.752 226.306 519.752 Q220.496 519.752 217.418 515.169 Q214.362 510.562 214.362 501.836 Q214.362 493.086 217.418 488.502 Q220.496 483.896 226.306 483.896 Z" fill="#000000" fill-rule="nonzero" fill-opacity="1" /><path clip-path="url(#clip120)" d="M256.468 487.6 Q252.857 487.6 251.029 491.164 Q249.223 494.706 249.223 501.836 Q249.223 508.942 251.029 512.507 Q252.857 516.048 256.468 516.048 Q260.103 516.048 261.908 512.507 Q263.737 508.942 263.737 501.836 Q263.737 494.706 261.908 491.164 Q260.103 487.6 256.468 487.6 M256.468 483.896 Q262.278 483.896 265.334 488.502 Q268.413 493.086 268.413 501.836 Q268.413 510.562 265.334 515.169 Q262.278 519.752 256.468 519.752 Q250.658 519.752 247.579 515.169 Q244.524 510.562 244.524 501.836 Q244.524 493.086 247.579 488.502 Q250.658 483.896 256.468 483.896 Z" fill="#000000" fill-rule="nonzero" fill-opacity="1" /><path clip-path="url(#clip120)" d="M14.1184 1149.98 L14.1184 1143.55 L56.2276 1143.55 L56.2276 1120.41 L61.6384 1120.41 L61.6384 1149.98 L14.1184 1149.98 Z" fill="#000000" fill-rule="nonzero" fill-opacity="1" /><path clip-path="url(#clip120)" d="M30.0964 1101.25 Q30.0964 1105.96 33.7885 1108.7 Q37.4488 1111.44 43.8463 1111.44 Q50.2438 1111.44 53.9359 1108.73 Q57.5962 1106 57.5962 1101.25 Q57.5962 1096.57 53.9041 1093.84 Q50.212 1091.1 43.8463 1091.1 Q37.5124 1091.1 33.8203 1093.84 Q30.0964 1096.57 30.0964 1101.25 M25.1311 1101.25 Q25.1311 1093.61 30.0964 1089.25 Q35.0616 1084.89 43.8463 1084.89 Q52.5991 1084.89 57.5962 1089.25 Q62.5615 1093.61 62.5615 1101.25 Q62.5615 1108.92 57.5962 1113.28 Q52.5991 1117.61 43.8463 1117.61 Q35.0616 1117.61 30.0964 1113.28 Q25.1311 1108.92 25.1311 1101.25 Z" fill="#000000" fill-rule="nonzero" fill-opacity="1" /><path clip-path="url(#clip120)" d="M43.4007 1051.73 Q37.035 1051.73 33.5338 1054.37 Q30.0327 1056.98 30.0327 1061.72 Q30.0327 1066.43 33.5338 1069.07 Q37.035 1071.68 43.4007 1071.68 Q49.7346 1071.68 53.2357 1069.07 Q56.7368 1066.43 56.7368 1061.72 Q56.7368 1056.98 53.2357 1054.37 Q49.7346 1051.73 43.4007 1051.73 M57.2143 1045.87 Q66.3172 1045.87 70.7414 1049.91 Q75.1974 1053.96 75.1974 1062.29 Q75.1974 1065.38 74.72 1068.12 Q74.2744 1070.86 73.3195 1073.43 L67.6222 1073.43 Q69.0227 1070.86 69.6911 1068.34 Q70.3595 1065.83 70.3595 1063.22 Q70.3595 1057.46 67.3358 1054.59 Q64.3439 1051.73 58.2646 1051.73 L55.3682 1051.73 Q58.5192 1053.54 60.0788 1056.37 Q61.6384 1059.21 61.6384 1063.15 Q61.6384 1069.71 56.6414 1073.72 Q51.6443 1077.73 43.4007 1077.73 Q35.1253 1077.73 30.1282 1073.72 Q25.1311 1069.71 25.1311 1063.15 Q25.1311 1059.21 26.6907 1056.37 Q28.2503 1053.54 31.4013 1051.73 L25.9905 1051.73 L25.9905 1045.87 L57.2143 1045.87 Z" fill="#000000" fill-rule="nonzero" fill-opacity="1" /><path clip-path="url(#clip120)" d="M41.1727 1036.77 L41.1727 1019.61 L46.3926 1019.61 L46.3926 1036.77 L41.1727 1036.77 Z" fill="#000000" fill-rule="nonzero" fill-opacity="1" /><path clip-path="url(#clip120)" d="M12.1132 1010.29 L12.1132 1004.43 L61.6384 1004.43 L61.6384 1010.29 L12.1132 1010.29 Z" fill="#000000" fill-rule="nonzero" fill-opacity="1" /><path clip-path="url(#clip120)" d="M25.9905 992.177 L25.9905 986.32 L61.6384 986.32 L61.6384 992.177 L25.9905 992.177 M12.1132 992.177 L12.1132 986.32 L19.5293 986.32 L19.5293 992.177 L12.1132 992.177 Z" fill="#000000" fill-rule="nonzero" fill-opacity="1" /><path clip-path="url(#clip120)" d="M12.1132 974.289 L12.1132 968.401 L41.3637 968.401 L25.9905 950.927 L25.9905 943.447 L42.6686 962.353 L61.6384 942.652 L61.6384 950.29 L44.2282 968.401 L61.6384 968.401 L61.6384 974.289 L12.1132 974.289 Z" fill="#000000" fill-rule="nonzero" fill-opacity="1" /><path clip-path="url(#clip120)" d="M42.3504 908.149 L45.2149 908.149 L45.2149 935.076 Q51.2623 934.694 54.4452 931.448 Q57.5962 928.17 57.5962 922.345 Q57.5962 918.971 56.7687 915.82 Q55.9411 912.637 54.2861 909.518 L59.8242 909.518 Q61.161 912.669 61.8612 915.979 Q62.5615 919.289 62.5615 922.695 Q62.5615 931.225 57.5962 936.222 Q52.631 941.187 44.1646 941.187 Q35.4117 941.187 30.2873 936.477 Q25.1311 931.734 25.1311 923.714 Q25.1311 916.52 29.7781 912.351 Q34.3932 908.149 42.3504 908.149 M40.6316 914.006 Q35.8255 914.07 32.9609 916.711 Q30.0964 919.321 30.0964 923.65 Q30.0964 928.552 32.8654 931.512 Q35.6345 934.44 40.6634 934.885 L40.6316 914.006 Z" fill="#000000" fill-rule="nonzero" fill-opacity="1" /><path clip-path="url(#clip120)" d="M12.1132 898.537 L12.1132 892.681 L61.6384 892.681 L61.6384 898.537 L12.1132 898.537 Z" fill="#000000" fill-rule="nonzero" fill-opacity="1" /><path clip-path="url(#clip120)" d="M25.9905 880.427 L25.9905 874.57 L61.6384 874.57 L61.6384 880.427 L25.9905 880.427 M12.1132 880.427 L12.1132 874.57 L19.5293 874.57 L19.5293 880.427 L12.1132 880.427 Z" fill="#000000" fill-rule="nonzero" fill-opacity="1" /><path clip-path="url(#clip120)" d="M40.1224 832.684 L61.6384 832.684 L61.6384 838.54 L40.3133 838.54 Q35.2526 838.54 32.7381 840.514 Q30.2237 842.487 30.2237 846.434 Q30.2237 851.176 33.2474 853.914 Q36.2711 856.651 41.491 856.651 L61.6384 856.651 L61.6384 862.539 L12.1132 862.539 L12.1132 856.651 L31.5287 856.651 Q28.314 854.55 26.7225 851.717 Q25.1311 848.853 25.1311 845.129 Q25.1311 838.986 28.9505 835.835 Q32.7381 832.684 40.1224 832.684 Z" fill="#000000" fill-rule="nonzero" fill-opacity="1" /><path clip-path="url(#clip120)" d="M30.0964 807.189 Q30.0964 811.9 33.7885 814.637 Q37.4488 817.374 43.8463 817.374 Q50.2438 817.374 53.9359 814.669 Q57.5962 811.932 57.5962 807.189 Q57.5962 802.511 53.9041 799.773 Q50.212 797.036 43.8463 797.036 Q37.5124 797.036 33.8203 799.773 Q30.0964 802.511 30.0964 807.189 M25.1311 807.189 Q25.1311 799.55 30.0964 795.19 Q35.0616 790.829 43.8463 790.829 Q52.5991 790.829 57.5962 795.19 Q62.5615 799.55 62.5615 807.189 Q62.5615 814.86 57.5962 819.22 Q52.5991 823.549 43.8463 823.549 Q35.0616 823.549 30.0964 819.22 Q25.1311 814.86 25.1311 807.189 Z" fill="#000000" fill-rule="nonzero" fill-opacity="1" /><path clip-path="url(#clip120)" d="M30.0964 767.308 Q30.0964 772.019 33.7885 774.756 Q37.4488 777.493 43.8463 777.493 Q50.2438 777.493 53.9359 774.788 Q57.5962 772.051 57.5962 767.308 Q57.5962 762.629 53.9041 759.892 Q50.212 757.155 43.8463 757.155 Q37.5124 757.155 33.8203 759.892 Q30.0964 762.629 30.0964 767.308 M25.1311 767.308 Q25.1311 759.669 30.0964 755.309 Q35.0616 750.948 43.8463 750.948 Q52.5991 750.948 57.5962 755.309 Q62.5615 759.669 62.5615 767.308 Q62.5615 774.979 57.5962 779.339 Q52.5991 783.668 43.8463 783.668 Q35.0616 783.668 30.0964 779.339 Q25.1311 774.979 25.1311 767.308 Z" fill="#000000" fill-rule="nonzero" fill-opacity="1" /><path clip-path="url(#clip120)" d="M31.4013 717.783 L12.1132 717.783 L12.1132 711.927 L61.6384 711.927 L61.6384 717.783 L56.2912 717.783 Q59.4741 719.629 61.0337 722.462 Q62.5615 725.263 62.5615 729.209 Q62.5615 735.671 57.4052 739.745 Q52.249 743.787 43.8463 743.787 Q35.4436 743.787 30.2873 739.745 Q25.1311 735.671 25.1311 729.209 Q25.1311 725.263 26.6907 722.462 Q28.2185 719.629 31.4013 717.783 M43.8463 737.739 Q50.3075 737.739 53.9996 735.098 Q57.6599 732.424 57.6599 727.777 Q57.6599 723.13 53.9996 720.457 Q50.3075 717.783 43.8463 717.783 Q37.3851 717.783 33.7248 720.457 Q30.0327 723.13 30.0327 727.777 Q30.0327 732.424 33.7248 735.098 Q37.3851 737.739 43.8463 737.739 Z" fill="#000000" fill-rule="nonzero" fill-opacity="1" /><path clip-path="url(#clip120)" d="M1020.62 12.096 L1028.8 12.096 L1028.8 65.6895 L1058.25 65.6895 L1058.25 72.576 L1020.62 72.576 L1020.62 12.096 Z" fill="#000000" fill-rule="nonzero" fill-opacity="1" /><path clip-path="url(#clip120)" d="M1066.51 27.2059 L1073.97 27.2059 L1073.97 72.576 L1066.51 72.576 L1066.51 27.2059 M1066.51 9.54393 L1073.97 9.54393 L1073.97 18.9825 L1066.51 18.9825 L1066.51 9.54393 Z" fill="#000000" fill-rule="nonzero" fill-opacity="1" /><path clip-path="url(#clip120)" d="M1089.28 9.54393 L1096.77 9.54393 L1096.77 46.7717 L1119.01 27.2059 L1128.53 27.2059 L1104.47 48.4326 L1129.55 72.576 L1119.82 72.576 L1096.77 50.4176 L1096.77 72.576 L1089.28 72.576 L1089.28 9.54393 Z" fill="#000000" fill-rule="nonzero" fill-opacity="1" /><path clip-path="url(#clip120)" d="M1173.46 48.0275 L1173.46 51.6733 L1139.19 51.6733 Q1139.67 59.3701 1143.81 63.421 Q1147.98 67.4314 1155.39 67.4314 Q1159.69 67.4314 1163.7 66.3781 Q1167.75 65.3249 1171.72 63.2184 L1171.72 70.267 Q1167.71 71.9684 1163.49 72.8596 Q1159.28 73.7508 1154.95 73.7508 Q1144.09 73.7508 1137.73 67.4314 Q1131.41 61.1119 1131.41 50.3365 Q1131.41 39.1965 1137.41 32.6746 Q1143.44 26.1121 1153.65 26.1121 Q1162.8 26.1121 1168.11 32.0264 Q1173.46 37.9003 1173.46 48.0275 M1166 45.84 Q1165.92 39.7232 1162.56 36.0774 Q1159.24 32.4315 1153.73 32.4315 Q1147.49 32.4315 1143.72 35.9558 Q1140 39.4801 1139.43 45.8805 L1166 45.84 Z" fill="#000000" fill-rule="nonzero" fill-opacity="1" /><path clip-path="url(#clip120)" d="M1185.69 9.54393 L1193.15 9.54393 L1193.15 72.576 L1185.69 72.576 L1185.69 9.54393 Z" fill="#000000" fill-rule="nonzero" fill-opacity="1" /><path clip-path="url(#clip120)" d="M1208.74 27.2059 L1216.2 27.2059 L1216.2 72.576 L1208.74 72.576 L1208.74 27.2059 M1208.74 9.54393 L1216.2 9.54393 L1216.2 18.9825 L1208.74 18.9825 L1208.74 9.54393 Z" fill="#000000" fill-rule="nonzero" fill-opacity="1" /><path clip-path="url(#clip120)" d="M1269.51 45.1919 L1269.51 72.576 L1262.05 72.576 L1262.05 45.4349 Q1262.05 38.994 1259.54 35.7938 Q1257.03 32.5936 1252.01 32.5936 Q1245.97 32.5936 1242.49 36.4419 Q1239 40.2903 1239 46.9338 L1239 72.576 L1231.51 72.576 L1231.51 9.54393 L1239 9.54393 L1239 34.2544 Q1241.68 30.163 1245.28 28.1376 Q1248.93 26.1121 1253.67 26.1121 Q1261.48 26.1121 1265.49 30.9732 Q1269.51 35.7938 1269.51 45.1919 Z" fill="#000000" fill-rule="nonzero" fill-opacity="1" /><path clip-path="url(#clip120)" d="M1301.95 32.4315 Q1295.96 32.4315 1292.47 37.1306 Q1288.99 41.7891 1288.99 49.9314 Q1288.99 58.0738 1292.43 62.7728 Q1295.92 67.4314 1301.95 67.4314 Q1307.91 67.4314 1311.39 62.7323 Q1314.88 58.0333 1314.88 49.9314 Q1314.88 41.8701 1311.39 37.1711 Q1307.91 32.4315 1301.95 32.4315 M1301.95 26.1121 Q1311.68 26.1121 1317.22 32.4315 Q1322.77 38.7509 1322.77 49.9314 Q1322.77 61.0714 1317.22 67.4314 Q1311.68 73.7508 1301.95 73.7508 Q1292.19 73.7508 1286.64 67.4314 Q1281.13 61.0714 1281.13 49.9314 Q1281.13 38.7509 1286.64 32.4315 Q1292.19 26.1121 1301.95 26.1121 Z" fill="#000000" fill-rule="nonzero" fill-opacity="1" /><path clip-path="url(#clip120)" d="M1352.71 32.4315 Q1346.72 32.4315 1343.23 37.1306 Q1339.75 41.7891 1339.75 49.9314 Q1339.75 58.0738 1343.19 62.7728 Q1346.67 67.4314 1352.71 67.4314 Q1358.67 67.4314 1362.15 62.7323 Q1365.63 58.0333 1365.63 49.9314 Q1365.63 41.8701 1362.15 37.1711 Q1358.67 32.4315 1352.71 32.4315 M1352.71 26.1121 Q1362.43 26.1121 1367.98 32.4315 Q1373.53 38.7509 1373.53 49.9314 Q1373.53 61.0714 1367.98 67.4314 Q1362.43 73.7508 1352.71 73.7508 Q1342.95 73.7508 1337.4 67.4314 Q1331.89 61.0714 1331.89 49.9314 Q1331.89 38.7509 1337.4 32.4315 Q1342.95 26.1121 1352.71 26.1121 Z" fill="#000000" fill-rule="nonzero" fill-opacity="1" /><path clip-path="url(#clip120)" d="M1415.74 34.0924 L1415.74 9.54393 L1423.2 9.54393 L1423.2 72.576 L1415.74 72.576 L1415.74 65.7705 Q1413.39 69.8214 1409.79 71.8063 Q1406.22 73.7508 1401.2 73.7508 Q1392.98 73.7508 1387.79 67.1883 Q1382.65 60.6258 1382.65 49.9314 Q1382.65 39.2371 1387.79 32.6746 Q1392.98 26.1121 1401.2 26.1121 Q1406.22 26.1121 1409.79 28.0971 Q1413.39 30.0415 1415.74 34.0924 M1390.34 49.9314 Q1390.34 58.1548 1393.71 62.8538 Q1397.11 67.5124 1403.02 67.5124 Q1408.94 67.5124 1412.34 62.8538 Q1415.74 58.1548 1415.74 49.9314 Q1415.74 41.7081 1412.34 37.0496 Q1408.94 32.3505 1403.02 32.3505 Q1397.11 32.3505 1393.71 37.0496 Q1390.34 41.7081 1390.34 49.9314 Z" fill="#000000" fill-rule="nonzero" fill-opacity="1" /><path clip-path="url(#clip120)" d="M1473.43 18.8205 L1473.43 41.5461 L1483.72 41.5461 Q1489.43 41.5461 1492.55 38.5889 Q1495.67 35.6318 1495.67 30.163 Q1495.67 24.7348 1492.55 21.7777 Q1489.43 18.8205 1483.72 18.8205 L1473.43 18.8205 M1465.24 12.096 L1483.72 12.096 Q1493.88 12.096 1499.07 16.714 Q1504.3 21.2916 1504.3 30.163 Q1504.3 39.1155 1499.07 43.6931 Q1493.88 48.2706 1483.72 48.2706 L1473.43 48.2706 L1473.43 72.576 L1465.24 72.576 L1465.24 12.096 Z" fill="#000000" fill-rule="nonzero" fill-opacity="1" /><path clip-path="url(#clip120)" d="M1539.78 34.1734 Q1538.53 33.4443 1537.03 33.1202 Q1535.57 32.7556 1533.79 32.7556 Q1527.47 32.7556 1524.06 36.8875 Q1520.7 40.9789 1520.7 48.6757 L1520.7 72.576 L1513.21 72.576 L1513.21 27.2059 L1520.7 27.2059 L1520.7 34.2544 Q1523.05 30.1225 1526.82 28.1376 Q1530.59 26.1121 1535.97 26.1121 Q1536.74 26.1121 1537.68 26.2337 Q1538.61 26.3147 1539.74 26.5172 L1539.78 34.1734 Z" fill="#000000" fill-rule="nonzero" fill-opacity="1" /><path clip-path="url(#clip120)" d="M1563.36 32.4315 Q1557.36 32.4315 1553.88 37.1306 Q1550.39 41.7891 1550.39 49.9314 Q1550.39 58.0738 1553.84 62.7728 Q1557.32 67.4314 1563.36 67.4314 Q1569.31 67.4314 1572.8 62.7323 Q1576.28 58.0333 1576.28 49.9314 Q1576.28 41.8701 1572.8 37.1711 Q1569.31 32.4315 1563.36 32.4315 M1563.36 26.1121 Q1573.08 26.1121 1578.63 32.4315 Q1584.18 38.7509 1584.18 49.9314 Q1584.18 61.0714 1578.63 67.4314 Q1573.08 73.7508 1563.36 73.7508 Q1553.6 73.7508 1548.05 67.4314 Q1542.54 61.0714 1542.54 49.9314 Q1542.54 38.7509 1548.05 32.4315 Q1553.6 26.1121 1563.36 26.1121 Z" fill="#000000" fill-rule="nonzero" fill-opacity="1" /><path clip-path="url(#clip120)" d="M1619.5 9.54393 L1619.5 15.7418 L1612.37 15.7418 Q1608.36 15.7418 1606.78 17.3622 Q1605.24 18.9825 1605.24 23.1955 L1605.24 27.2059 L1617.52 27.2059 L1617.52 32.9987 L1605.24 32.9987 L1605.24 72.576 L1597.75 72.576 L1597.75 32.9987 L1590.62 32.9987 L1590.62 27.2059 L1597.75 27.2059 L1597.75 24.0462 Q1597.75 16.471 1601.27 13.0277 Q1604.8 9.54393 1612.45 9.54393 L1619.5 9.54393 Z" fill="#000000" fill-rule="nonzero" fill-opacity="1" /><path clip-path="url(#clip120)" d="M1625.74 27.2059 L1633.2 27.2059 L1633.2 72.576 L1625.74 72.576 L1625.74 27.2059 M1625.74 9.54393 L1633.2 9.54393 L1633.2 18.9825 L1625.74 18.9825 L1625.74 9.54393 Z" fill="#000000" fill-rule="nonzero" fill-opacity="1" /><path clip-path="url(#clip120)" d="M1648.79 9.54393 L1656.25 9.54393 L1656.25 72.576 L1648.79 72.576 L1648.79 9.54393 Z" fill="#000000" fill-rule="nonzero" fill-opacity="1" /><path clip-path="url(#clip120)" d="M1710.65 48.0275 L1710.65 51.6733 L1676.38 51.6733 Q1676.86 59.3701 1681 63.421 Q1685.17 67.4314 1692.58 67.4314 Q1696.88 67.4314 1700.89 66.3781 Q1704.94 65.3249 1708.91 63.2184 L1708.91 70.267 Q1704.9 71.9684 1700.68 72.8596 Q1696.47 73.7508 1692.14 73.7508 Q1681.28 73.7508 1674.92 67.4314 Q1668.6 61.1119 1668.6 50.3365 Q1668.6 39.1965 1674.6 32.6746 Q1680.63 26.1121 1690.84 26.1121 Q1699.99 26.1121 1705.3 32.0264 Q1710.65 37.9003 1710.65 48.0275 M1703.2 45.84 Q1703.11 39.7232 1699.75 36.0774 Q1696.43 32.4315 1690.92 32.4315 Q1684.68 32.4315 1680.92 35.9558 Q1677.19 39.4801 1676.62 45.8805 L1703.2 45.84 Z" fill="#000000" fill-rule="nonzero" fill-opacity="1" /><path clip-path="url(#clip120)" d="M1772.22 9.54393 L1772.22 15.7418 L1765.09 15.7418 Q1761.08 15.7418 1759.5 17.3622 Q1757.96 18.9825 1757.96 23.1955 L1757.96 27.2059 L1770.24 27.2059 L1770.24 32.9987 L1757.96 32.9987 L1757.96 72.576 L1750.47 72.576 L1750.47 32.9987 L1743.34 32.9987 L1743.34 27.2059 L1750.47 27.2059 L1750.47 24.0462 Q1750.47 16.471 1753.99 13.0277 Q1757.52 9.54393 1765.17 9.54393 L1772.22 9.54393 Z" fill="#000000" fill-rule="nonzero" fill-opacity="1" /><path clip-path="url(#clip120)" d="M1796.04 32.4315 Q1790.05 32.4315 1786.56 37.1306 Q1783.08 41.7891 1783.08 49.9314 Q1783.08 58.0738 1786.52 62.7728 Q1790.01 67.4314 1796.04 67.4314 Q1802 67.4314 1805.48 62.7323 Q1808.96 58.0333 1808.96 49.9314 Q1808.96 41.8701 1805.48 37.1711 Q1802 32.4315 1796.04 32.4315 M1796.04 26.1121 Q1805.76 26.1121 1811.31 32.4315 Q1816.86 38.7509 1816.86 49.9314 Q1816.86 61.0714 1811.31 67.4314 Q1805.76 73.7508 1796.04 73.7508 Q1786.28 73.7508 1780.73 67.4314 Q1775.22 61.0714 1775.22 49.9314 Q1775.22 38.7509 1780.73 32.4315 Q1786.28 26.1121 1796.04 26.1121 Z" fill="#000000" fill-rule="nonzero" fill-opacity="1" /><path clip-path="url(#clip120)" d="M1855.51 34.1734 Q1854.25 33.4443 1852.75 33.1202 Q1851.3 32.7556 1849.51 32.7556 Q1843.19 32.7556 1839.79 36.8875 Q1836.43 40.9789 1836.43 48.6757 L1836.43 72.576 L1828.94 72.576 L1828.94 27.2059 L1836.43 27.2059 L1836.43 34.2544 Q1838.78 30.1225 1842.55 28.1376 Q1846.31 26.1121 1851.7 26.1121 Q1852.47 26.1121 1853.4 26.2337 Q1854.33 26.3147 1855.47 26.5172 L1855.51 34.1734 Z" fill="#000000" fill-rule="nonzero" fill-opacity="1" /><path clip-path="url(#clip120)" d="M1897.15 69.7809 L1897.15 89.8329 L1889.66 89.8329 L1889.66 27.4894 Q1889.66 9.01731 1906.92 9.01731 Q1924.5 9.01731 1924.5 24.6133 Q1924.5 35.7128 1917.53 39.7637 Q1928.87 43.4095 1928.87 54.2254 Q1928.87 73.4267 1909.35 73.4267 Q1900.76 73.4267 1897.15 69.7809 M1897.15 60.0587 Q1901.65 67.0668 1909.63 67.0668 Q1921.3 67.0668 1921.3 54.3469 Q1921.3 42.9234 1902.5 43.8146 L1902.5 36.928 Q1917.2 36.928 1917.2 23.9651 Q1917.2 15.0937 1907.73 15.0937 Q1897.15 15.0937 1897.15 27.7325 L1897.15 60.0587 Z" fill="#000000" fill-rule="nonzero" fill-opacity="1" /><polyline clip-path="url(#clip121)" style="stroke:#009af9; stroke-linecap:round; stroke-linejoin:round; stroke-width:8; stroke-opacity:1; fill:none" points="374.733,905.929 496.957,630.128 619.18,475.109 741.404,340.855 863.627,270.109 985.851,230.839 1108.07,195.759 1230.3,179.134 1352.52,173.284 1474.74,173.254 1596.97,174.791 1719.19,180.88 1841.41,203.001 1963.64,269.088 2085.86,424.668 2208.08,501.786 2330.31,1263.8 2452.53,1202.63 2574.76,1688.65 "/>
<circle clip-path="url(#clip121)" cx="374.733" cy="905.929" r="10.8" fill="#009af9" fill-rule="evenodd" fill-opacity="1" stroke="#000000" stroke-opacity="1" stroke-width="3.84"/>
<circle clip-path="url(#clip121)" cx="496.957" cy="630.128" r="10.8" fill="#009af9" fill-rule="evenodd" fill-opacity="1" stroke="#000000" stroke-opacity="1" stroke-width="3.84"/>
<circle clip-path="url(#clip121)" cx="619.18" cy="475.109" r="10.8" fill="#009af9" fill-rule="evenodd" fill-opacity="1" stroke="#000000" stroke-opacity="1" stroke-width="3.84"/>
<circle clip-path="url(#clip121)" cx="741.404" cy="340.855" r="10.8" fill="#009af9" fill-rule="evenodd" fill-opacity="1" stroke="#000000" stroke-opacity="1" stroke-width="3.84"/>
<circle clip-path="url(#clip121)" cx="863.627" cy="270.109" r="10.8" fill="#009af9" fill-rule="evenodd" fill-opacity="1" stroke="#000000" stroke-opacity="1" stroke-width="3.84"/>
<circle clip-path="url(#clip121)" cx="985.851" cy="230.839" r="10.8" fill="#009af9" fill-rule="evenodd" fill-opacity="1" stroke="#000000" stroke-opacity="1" stroke-width="3.84"/>
<circle clip-path="url(#clip121)" cx="1108.07" cy="195.759" r="10.8" fill="#009af9" fill-rule="evenodd" fill-opacity="1" stroke="#000000" stroke-opacity="1" stroke-width="3.84"/>
<circle clip-path="url(#clip121)" cx="1230.3" cy="179.134" r="10.8" fill="#009af9" fill-rule="evenodd" fill-opacity="1" stroke="#000000" stroke-opacity="1" stroke-width="3.84"/>
<circle clip-path="url(#clip121)" cx="1352.52" cy="173.284" r="10.8" fill="#009af9" fill-rule="evenodd" fill-opacity="1" stroke="#000000" stroke-opacity="1" stroke-width="3.84"/>
<circle clip-path="url(#clip121)" cx="1474.74" cy="173.254" r="10.8" fill="#009af9" fill-rule="evenodd" fill-opacity="1" stroke="#000000" stroke-opacity="1" stroke-width="3.84"/>
<circle clip-path="url(#clip121)" cx="1596.97" cy="174.791" r="10.8" fill="#009af9" fill-rule="evenodd" fill-opacity="1" stroke="#000000" stroke-opacity="1" stroke-width="3.84"/>
<circle clip-path="url(#clip121)" cx="1719.19" cy="180.88" r="10.8" fill="#009af9" fill-rule="evenodd" fill-opacity="1" stroke="#000000" stroke-opacity="1" stroke-width="3.84"/>
<circle clip-path="url(#clip121)" cx="1841.41" cy="203.001" r="10.8" fill="#009af9" fill-rule="evenodd" fill-opacity="1" stroke="#000000" stroke-opacity="1" stroke-width="3.84"/>
<circle clip-path="url(#clip121)" cx="1963.64" cy="269.088" r="10.8" fill="#009af9" fill-rule="evenodd" fill-opacity="1" stroke="#000000" stroke-opacity="1" stroke-width="3.84"/>
<circle clip-path="url(#clip121)" cx="2085.86" cy="424.668" r="10.8" fill="#009af9" fill-rule="evenodd" fill-opacity="1" stroke="#000000" stroke-opacity="1" stroke-width="3.84"/>
<circle clip-path="url(#clip121)" cx="2208.08" cy="501.786" r="10.8" fill="#009af9" fill-rule="evenodd" fill-opacity="1" stroke="#000000" stroke-opacity="1" stroke-width="3.84"/>
<circle clip-path="url(#clip121)" cx="2330.31" cy="1263.8" r="10.8" fill="#009af9" fill-rule="evenodd" fill-opacity="1" stroke="#000000" stroke-opacity="1" stroke-width="3.84"/>
<circle clip-path="url(#clip121)" cx="2452.53" cy="1202.63" r="10.8" fill="#009af9" fill-rule="evenodd" fill-opacity="1" stroke="#000000" stroke-opacity="1" stroke-width="3.84"/>
<circle clip-path="url(#clip121)" cx="2574.76" cy="1688.65" r="10.8" fill="#009af9" fill-rule="evenodd" fill-opacity="1" stroke="#000000" stroke-opacity="1" stroke-width="3.84"/>
<polyline clip-path="url(#clip121)" style="stroke:#ff0000; stroke-linecap:round; stroke-linejoin:round; stroke-width:4; stroke-opacity:1; fill:none" stroke-dasharray="16, 10" points="1352.52,3340.44 1352.52,-1478.53 "/>
<path clip-path="url(#clip120)" d="M386.467 1680.57 L762.423 1680.57 L762.423 1576.89 L386.467 1576.89  Z" fill="#ffffff" fill-rule="evenodd" fill-opacity="1"/>
<polyline clip-path="url(#clip120)" style="stroke:#000000; stroke-linecap:round; stroke-linejoin:round; stroke-width:4; stroke-opacity:1; fill:none" points="386.467,1680.57 762.423,1680.57 762.423,1576.89 386.467,1576.89 386.467,1680.57 "/>
<polyline clip-path="url(#clip120)" style="stroke:#ff0000; stroke-linecap:round; stroke-linejoin:round; stroke-width:4; stroke-opacity:1; fill:none" stroke-dasharray="16, 10" points="412.378,1628.73 567.846,1628.73 "/>
<path clip-path="url(#clip120)" d="M593.758 1611.45 L622.994 1611.45 L622.994 1615.39 L610.725 1615.39 L610.725 1646.01 L606.026 1646.01 L606.026 1615.39 L593.758 1615.39 L593.758 1611.45 Z" fill="#000000" fill-rule="nonzero" fill-opacity="1" /><path clip-path="url(#clip120)" d="M635.378 1624.07 Q634.66 1623.65 633.804 1623.47 Q632.971 1623.26 631.952 1623.26 Q628.341 1623.26 626.396 1625.62 Q624.475 1627.96 624.475 1632.36 L624.475 1646.01 L620.193 1646.01 L620.193 1620.09 L624.475 1620.09 L624.475 1624.11 Q625.818 1621.75 627.971 1620.62 Q630.123 1619.46 633.202 1619.46 Q633.642 1619.46 634.174 1619.53 Q634.707 1619.58 635.355 1619.69 L635.378 1624.07 Z" fill="#000000" fill-rule="nonzero" fill-opacity="1" /><path clip-path="url(#clip120)" d="M639.406 1635.78 L639.406 1620.09 L643.665 1620.09 L643.665 1635.62 Q643.665 1639.3 645.1 1641.15 Q646.535 1642.98 649.406 1642.98 Q652.855 1642.98 654.845 1640.78 Q656.859 1638.58 656.859 1634.79 L656.859 1620.09 L661.119 1620.09 L661.119 1646.01 L656.859 1646.01 L656.859 1642.03 Q655.308 1644.39 653.248 1645.55 Q651.211 1646.68 648.503 1646.68 Q644.035 1646.68 641.72 1643.91 Q639.406 1641.13 639.406 1635.78 M650.123 1619.46 L650.123 1619.46 Z" fill="#000000" fill-rule="nonzero" fill-opacity="1" /><path clip-path="url(#clip120)" d="M692.067 1631.99 L692.067 1634.07 L672.484 1634.07 Q672.762 1638.47 675.123 1640.78 Q677.507 1643.07 681.743 1643.07 Q684.197 1643.07 686.489 1642.47 Q688.804 1641.87 691.072 1640.67 L691.072 1644.69 Q688.78 1645.67 686.373 1646.17 Q683.966 1646.68 681.489 1646.68 Q675.285 1646.68 671.651 1643.07 Q668.04 1639.46 668.04 1633.3 Q668.04 1626.94 671.466 1623.21 Q674.915 1619.46 680.748 1619.46 Q685.979 1619.46 689.012 1622.84 Q692.067 1626.2 692.067 1631.99 M687.808 1630.74 Q687.762 1627.24 685.841 1625.16 Q683.942 1623.07 680.794 1623.07 Q677.23 1623.07 675.077 1625.09 Q672.947 1627.1 672.623 1630.76 L687.808 1630.74 Z" fill="#000000" fill-rule="nonzero" fill-opacity="1" /><path clip-path="url(#clip120)" d="M718.387 1644.42 L718.387 1655.87 L714.104 1655.87 L714.104 1620.25 Q714.104 1609.69 723.965 1609.69 Q734.012 1609.69 734.012 1618.61 Q734.012 1624.95 730.03 1627.26 Q736.512 1629.35 736.512 1635.53 Q736.512 1646.5 725.354 1646.5 Q720.447 1646.5 718.387 1644.42 M718.387 1638.86 Q720.956 1642.86 725.516 1642.86 Q732.183 1642.86 732.183 1635.6 Q732.183 1629.07 721.442 1629.58 L721.442 1625.64 Q729.845 1625.64 729.845 1618.24 Q729.845 1613.17 724.428 1613.17 Q718.387 1613.17 718.387 1620.39 L718.387 1638.86 Z" fill="#000000" fill-rule="nonzero" fill-opacity="1" /></svg>
