<?xml version="1.0" encoding="utf-8"?>
<svg xmlns="http://www.w3.org/2000/svg" xmlns:xlink="http://www.w3.org/1999/xlink" width="672" height="480" viewBox="0 0 2688 1920">
<defs>
  <clipPath id="clip440">
    <rect x="0" y="0" width="2688" height="1920"/>
  </clipPath>
</defs>
<path clip-path="url(#clip440)" d="M0 1920 L2688 1920 L2688 -4.26326e-14 L0 -4.26326e-14  Z" fill="#ffffff" fill-rule="evenodd" fill-opacity="1"/>
<defs>
  <clipPath id="clip441">
    <rect x="210" y="127" width="2432" height="1607"/>
  </clipPath>
</defs>
<path clip-path="url(#clip440)" d="M210.238 1734.12 L2640.76 1734.12 L2640.76 127.792 L210.238 127.792  Z" fill="#ffffff" fill-rule="evenodd" fill-opacity="1"/>
<polyline clip-path="url(#clip441)" style="stroke:#000000; stroke-linecap:round; stroke-linejoin:round; stroke-width:2; stroke-opacity:0.1; fill:none" points="279.026,1734.12 279.026,127.792 "/>
<polyline clip-path="url(#clip441)" style="stroke:#000000; stroke-linecap:round; stroke-linejoin:round; stroke-width:2; stroke-opacity:0.1; fill:none" points="852.261,1734.12 852.261,127.792 "/>
<polyline clip-path="url(#clip441)" style="stroke:#000000; stroke-linecap:round; stroke-linejoin:round; stroke-width:2; stroke-opacity:0.1; fill:none" points="1425.5,1734.12 1425.5,127.792 "/>
<polyline clip-path="url(#clip441)" style="stroke:#000000; stroke-linecap:round; stroke-linejoin:round; stroke-width:2; stroke-opacity:0.1; fill:none" points="1998.73,1734.12 1998.73,127.792 "/>
<polyline clip-path="url(#clip441)" style="stroke:#000000; stroke-linecap:round; stroke-linejoin:round; stroke-width:2; stroke-opacity:0.1; fill:none" points="2571.97,1734.12 2571.97,127.792 "/>
<polyline clip-path="url(#clip441)" style="stroke:#000000; stroke-linecap:round; stroke-linejoin:round; stroke-width:2; stroke-opacity:0.1; fill:none" points="210.238,1697.96 2640.76,1697.96 "/>
<polyline clip-path="url(#clip441)" style="stroke:#000000; stroke-linecap:round; stroke-linejoin:round; stroke-width:2; stroke-opacity:0.1; fill:none" points="210.238,1186.57 2640.76,1186.57 "/>
<polyline clip-path="url(#clip441)" style="stroke:#000000; stroke-linecap:round; stroke-linejoin:round; stroke-width:2; stroke-opacity:0.1; fill:none" points="210.238,675.193 2640.76,675.193 "/>
<polyline clip-path="url(#clip441)" style="stroke:#000000; stroke-linecap:round; stroke-linejoin:round; stroke-width:2; stroke-opacity:0.1; fill:none" points="210.238,163.811 2640.76,163.811 "/>
<polyline clip-path="url(#clip440)" style="stroke:#000000; stroke-linecap:round; stroke-linejoin:round; stroke-width:4; stroke-opacity:1; fill:none" points="210.238,1734.12 2640.76,1734.12 "/>
<polyline clip-path="url(#clip440)" style="stroke:#000000; stroke-linecap:round; stroke-linejoin:round; stroke-width:4; stroke-opacity:1; fill:none" points="279.026,1734.12 279.026,1715.22 "/>
<polyline clip-path="url(#clip440)" style="stroke:#000000; stroke-linecap:round; stroke-linejoin:round; stroke-width:4; stroke-opacity:1; fill:none" points="852.261,1734.12 852.261,1715.22 "/>
<polyline clip-path="url(#clip440)" style="stroke:#000000; stroke-linecap:round; stroke-linejoin:round; stroke-width:4; stroke-opacity:1; fill:none" points="1425.5,1734.12 1425.5,1715.22 "/>
<polyline clip-path="url(#clip440)" style="stroke:#000000; stroke-linecap:round; stroke-linejoin:round; stroke-width:4; stroke-opacity:1; fill:none" points="1998.73,1734.12 1998.73,1715.22 "/>
<polyline clip-path="url(#clip440)" style="stroke:#000000; stroke-linecap:round; stroke-linejoin:round; stroke-width:4; stroke-opacity:1; fill:none" points="2571.97,1734.12 2571.97,1715.22 "/>
<path clip-path="url(#clip440)" d="M279.026 1767.34 Q275.415 1767.34 273.586 1770.9 Q271.781 1774.45 271.781 1781.58 Q271.781 1788.68 273.586 1792.25 Q275.415 1795.79 279.026 1795.79 Q282.66 1795.79 284.466 1792.25 Q286.295 1788.68 286.295 1781.58 Q286.295 1774.45 284.466 1770.9 Q282.66 1767.34 279.026 1767.34 M279.026 1763.64 Q284.836 1763.64 287.892 1768.24 Q290.97 1772.83 290.97 1781.58 Q290.97 1790.3 287.892 1794.91 Q284.836 1799.49 279.026 1799.49 Q273.216 1799.49 270.137 1794.91 Q267.082 1790.3 267.082 1781.58 Q267.082 1772.83 270.137 1768.24 Q273.216 1763.64 279.026 1763.64 Z" fill="#000000" fill-rule="nonzero" fill-opacity="1" /><path clip-path="url(#clip440)" d="M826.961 1764.26 L845.317 1764.26 L845.317 1768.2 L831.243 1768.2 L831.243 1776.67 Q832.262 1776.32 833.28 1776.16 Q834.299 1775.97 835.317 1775.97 Q841.104 1775.97 844.484 1779.15 Q847.863 1782.32 847.863 1787.73 Q847.863 1793.31 844.391 1796.41 Q840.919 1799.49 834.6 1799.49 Q832.424 1799.49 830.155 1799.12 Q827.91 1798.75 825.502 1798.01 L825.502 1793.31 Q827.586 1794.45 829.808 1795 Q832.03 1795.56 834.507 1795.56 Q838.512 1795.56 840.85 1793.45 Q843.187 1791.34 843.187 1787.73 Q843.187 1784.12 840.85 1782.02 Q838.512 1779.91 834.507 1779.91 Q832.632 1779.91 830.757 1780.33 Q828.905 1780.74 826.961 1781.62 L826.961 1764.26 Z" fill="#000000" fill-rule="nonzero" fill-opacity="1" /><path clip-path="url(#clip440)" d="M867.076 1767.34 Q863.465 1767.34 861.636 1770.9 Q859.831 1774.45 859.831 1781.58 Q859.831 1788.68 861.636 1792.25 Q863.465 1795.79 867.076 1795.79 Q870.71 1795.79 872.516 1792.25 Q874.345 1788.68 874.345 1781.58 Q874.345 1774.45 872.516 1770.9 Q870.71 1767.34 867.076 1767.34 M867.076 1763.64 Q872.886 1763.64 875.942 1768.24 Q879.021 1772.83 879.021 1781.58 Q879.021 1790.3 875.942 1794.91 Q872.886 1799.49 867.076 1799.49 Q861.266 1799.49 858.187 1794.91 Q855.132 1790.3 855.132 1781.58 Q855.132 1772.83 858.187 1768.24 Q861.266 1763.64 867.076 1763.64 Z" fill="#000000" fill-rule="nonzero" fill-opacity="1" /><path clip-path="url(#clip440)" d="M1385.1 1794.89 L1392.74 1794.89 L1392.74 1768.52 L1384.43 1770.19 L1384.43 1765.93 L1392.7 1764.26 L1397.37 1764.26 L1397.37 1794.89 L1405.01 1794.89 L1405.01 1798.82 L1385.1 1798.82 L1385.1 1794.89 Z" fill="#000000" fill-rule="nonzero" fill-opacity="1" /><path clip-path="url(#clip440)" d="M1424.46 1767.34 Q1420.84 1767.34 1419.02 1770.9 Q1417.21 1774.45 1417.21 1781.58 Q1417.21 1788.68 1419.02 1792.25 Q1420.84 1795.79 1424.46 1795.79 Q1428.09 1795.79 1429.9 1792.25 Q1431.72 1788.68 1431.72 1781.58 Q1431.72 1774.45 1429.9 1770.9 Q1428.09 1767.34 1424.46 1767.34 M1424.46 1763.64 Q1430.27 1763.64 1433.32 1768.24 Q1436.4 1772.83 1436.4 1781.58 Q1436.4 1790.3 1433.32 1794.91 Q1430.27 1799.49 1424.46 1799.49 Q1418.65 1799.49 1415.57 1794.91 Q1412.51 1790.3 1412.51 1781.58 Q1412.51 1772.83 1415.57 1768.24 Q1418.65 1763.64 1424.46 1763.64 Z" fill="#000000" fill-rule="nonzero" fill-opacity="1" /><path clip-path="url(#clip440)" d="M1454.62 1767.34 Q1451.01 1767.34 1449.18 1770.9 Q1447.37 1774.45 1447.37 1781.58 Q1447.37 1788.68 1449.18 1792.25 Q1451.01 1795.79 1454.62 1795.79 Q1458.25 1795.79 1460.06 1792.25 Q1461.89 1788.68 1461.89 1781.58 Q1461.89 1774.45 1460.06 1770.9 Q1458.25 1767.34 1454.62 1767.34 M1454.62 1763.64 Q1460.43 1763.64 1463.48 1768.24 Q1466.56 1772.83 1466.56 1781.58 Q1466.56 1790.3 1463.48 1794.91 Q1460.43 1799.49 1454.62 1799.49 Q1448.81 1799.49 1445.73 1794.91 Q1442.67 1790.3 1442.67 1781.58 Q1442.67 1772.83 1445.73 1768.24 Q1448.81 1763.64 1454.62 1763.64 Z" fill="#000000" fill-rule="nonzero" fill-opacity="1" /><path clip-path="url(#clip440)" d="M1958.34 1794.89 L1965.98 1794.89 L1965.98 1768.52 L1957.67 1770.19 L1957.67 1765.93 L1965.93 1764.26 L1970.61 1764.26 L1970.61 1794.89 L1978.25 1794.89 L1978.25 1798.82 L1958.34 1798.82 L1958.34 1794.89 Z" fill="#000000" fill-rule="nonzero" fill-opacity="1" /><path clip-path="url(#clip440)" d="M1987.74 1764.26 L2006.09 1764.26 L2006.09 1768.2 L1992.02 1768.2 L1992.02 1776.67 Q1993.04 1776.32 1994.06 1776.16 Q1995.07 1775.97 1996.09 1775.97 Q2001.88 1775.97 2005.26 1779.15 Q2008.64 1782.32 2008.64 1787.73 Q2008.64 1793.31 2005.17 1796.41 Q2001.7 1799.49 1995.38 1799.49 Q1993.2 1799.49 1990.93 1799.12 Q1988.69 1798.75 1986.28 1798.01 L1986.28 1793.31 Q1988.36 1794.45 1990.58 1795 Q1992.81 1795.56 1995.28 1795.56 Q1999.29 1795.56 2001.63 1793.45 Q2003.96 1791.34 2003.96 1787.73 Q2003.96 1784.12 2001.63 1782.02 Q1999.29 1779.91 1995.28 1779.91 Q1993.41 1779.91 1991.53 1780.33 Q1989.68 1780.74 1987.74 1781.62 L1987.74 1764.26 Z" fill="#000000" fill-rule="nonzero" fill-opacity="1" /><path clip-path="url(#clip440)" d="M2027.85 1767.34 Q2024.24 1767.34 2022.41 1770.9 Q2020.61 1774.45 2020.61 1781.58 Q2020.61 1788.68 2022.41 1792.25 Q2024.24 1795.79 2027.85 1795.79 Q2031.49 1795.79 2033.29 1792.25 Q2035.12 1788.68 2035.12 1781.58 Q2035.12 1774.45 2033.29 1770.9 Q2031.49 1767.34 2027.85 1767.34 M2027.85 1763.64 Q2033.66 1763.64 2036.72 1768.24 Q2039.8 1772.83 2039.8 1781.58 Q2039.8 1790.3 2036.72 1794.91 Q2033.66 1799.49 2027.85 1799.49 Q2022.04 1799.49 2018.96 1794.91 Q2015.91 1790.3 2015.91 1781.58 Q2015.91 1772.83 2018.96 1768.24 Q2022.04 1763.64 2027.85 1763.64 Z" fill="#000000" fill-rule="nonzero" fill-opacity="1" /><path clip-path="url(#clip440)" d="M2535.66 1794.89 L2551.98 1794.89 L2551.98 1798.82 L2530.04 1798.82 L2530.04 1794.89 Q2532.7 1792.13 2537.28 1787.5 Q2541.89 1782.85 2543.07 1781.51 Q2545.31 1778.98 2546.19 1777.25 Q2547.1 1775.49 2547.1 1773.8 Q2547.1 1771.04 2545.15 1769.31 Q2543.23 1767.57 2540.13 1767.57 Q2537.93 1767.57 2535.47 1768.34 Q2533.04 1769.1 2530.27 1770.65 L2530.27 1765.93 Q2533.09 1764.79 2535.54 1764.21 Q2538 1763.64 2540.03 1763.64 Q2545.41 1763.64 2548.6 1766.32 Q2551.79 1769.01 2551.79 1773.5 Q2551.79 1775.63 2550.98 1777.55 Q2550.2 1779.45 2548.09 1782.04 Q2547.51 1782.71 2544.41 1785.93 Q2541.31 1789.12 2535.66 1794.89 Z" fill="#000000" fill-rule="nonzero" fill-opacity="1" /><path clip-path="url(#clip440)" d="M2571.79 1767.34 Q2568.18 1767.34 2566.35 1770.9 Q2564.55 1774.45 2564.55 1781.58 Q2564.55 1788.68 2566.35 1792.25 Q2568.18 1795.79 2571.79 1795.79 Q2575.43 1795.79 2577.23 1792.25 Q2579.06 1788.68 2579.06 1781.58 Q2579.06 1774.45 2577.23 1770.9 Q2575.43 1767.34 2571.79 1767.34 M2571.79 1763.64 Q2577.6 1763.64 2580.66 1768.24 Q2583.74 1772.83 2583.74 1781.58 Q2583.74 1790.3 2580.66 1794.91 Q2577.6 1799.49 2571.79 1799.49 Q2565.98 1799.49 2562.91 1794.91 Q2559.85 1790.3 2559.85 1781.58 Q2559.85 1772.83 2562.91 1768.24 Q2565.98 1763.64 2571.79 1763.64 Z" fill="#000000" fill-rule="nonzero" fill-opacity="1" /><path clip-path="url(#clip440)" d="M2601.96 1767.34 Q2598.34 1767.34 2596.52 1770.9 Q2594.71 1774.45 2594.71 1781.58 Q2594.71 1788.68 2596.52 1792.25 Q2598.34 1795.79 2601.96 1795.79 Q2605.59 1795.79 2607.4 1792.25 Q2609.22 1788.68 2609.22 1781.58 Q2609.22 1774.45 2607.4 1770.9 Q2605.59 1767.34 2601.96 1767.34 M2601.96 1763.64 Q2607.77 1763.64 2610.82 1768.24 Q2613.9 1772.83 2613.9 1781.58 Q2613.9 1790.3 2610.82 1794.91 Q2607.77 1799.49 2601.96 1799.49 Q2596.15 1799.49 2593.07 1794.91 Q2590.01 1790.3 2590.01 1781.58 Q2590.01 1772.83 2593.07 1768.24 Q2596.15 1763.64 2601.96 1763.64 Z" fill="#000000" fill-rule="nonzero" fill-opacity="1" /><path clip-path="url(#clip440)" d="M1235.72 1835.78 L1275.92 1835.78 L1275.92 1841.19 L1259.05 1841.19 L1259.05 1883.3 L1252.59 1883.3 L1252.59 1841.19 L1235.72 1841.19 L1235.72 1835.78 Z" fill="#000000" fill-rule="nonzero" fill-opacity="1" /><path clip-path="url(#clip440)" d="M1279.87 1847.65 L1285.72 1847.65 L1285.72 1883.3 L1279.87 1883.3 L1279.87 1847.65 M1279.87 1833.78 L1285.72 1833.78 L1285.72 1841.19 L1279.87 1841.19 L1279.87 1833.78 Z" fill="#000000" fill-rule="nonzero" fill-opacity="1" /><path clip-path="url(#clip440)" d="M1325.73 1854.5 Q1327.93 1850.55 1330.98 1848.67 Q1334.04 1846.79 1338.18 1846.79 Q1343.75 1846.79 1346.77 1850.71 Q1349.79 1854.59 1349.79 1861.78 L1349.79 1883.3 L1343.9 1883.3 L1343.9 1861.98 Q1343.9 1856.85 1342.09 1854.37 Q1340.28 1851.89 1336.55 1851.89 Q1332 1851.89 1329.36 1854.91 Q1326.72 1857.93 1326.72 1863.15 L1326.72 1883.3 L1320.83 1883.3 L1320.83 1861.98 Q1320.83 1856.82 1319.01 1854.37 Q1317.2 1851.89 1313.41 1851.89 Q1308.92 1851.89 1306.28 1854.94 Q1303.64 1857.97 1303.64 1863.15 L1303.64 1883.3 L1297.75 1883.3 L1297.75 1847.65 L1303.64 1847.65 L1303.64 1853.19 Q1305.65 1849.91 1308.45 1848.35 Q1311.25 1846.79 1315.1 1846.79 Q1318.98 1846.79 1321.69 1848.77 Q1324.43 1850.74 1325.73 1854.5 Z" fill="#000000" fill-rule="nonzero" fill-opacity="1" /><path clip-path="url(#clip440)" d="M1391.97 1864.01 L1391.97 1866.88 L1365.04 1866.88 Q1365.42 1872.92 1368.67 1876.11 Q1371.95 1879.26 1377.77 1879.26 Q1381.14 1879.26 1384.29 1878.43 Q1387.48 1877.6 1390.6 1875.95 L1390.6 1881.49 Q1387.45 1882.82 1384.14 1883.52 Q1380.83 1884.22 1377.42 1884.22 Q1368.89 1884.22 1363.89 1879.26 Q1358.93 1874.29 1358.93 1865.83 Q1358.93 1857.07 1363.64 1851.95 Q1368.38 1846.79 1376.4 1846.79 Q1383.59 1846.79 1387.76 1851.44 Q1391.97 1856.06 1391.97 1864.01 M1386.11 1862.29 Q1386.05 1857.49 1383.4 1854.62 Q1380.79 1851.76 1376.47 1851.76 Q1371.56 1851.76 1368.6 1854.53 Q1365.68 1857.3 1365.23 1862.33 L1386.11 1862.29 Z" fill="#000000" fill-rule="nonzero" fill-opacity="1" /><path clip-path="url(#clip440)" d="M1436.37 1833.84 Q1432.1 1841.16 1430.03 1848.32 Q1427.96 1855.48 1427.96 1862.84 Q1427.96 1870.19 1430.03 1877.41 Q1432.13 1884.61 1436.37 1891.89 L1431.27 1891.89 Q1426.5 1884.41 1424.11 1877.19 Q1421.76 1869.96 1421.76 1862.84 Q1421.76 1855.74 1424.11 1848.54 Q1426.47 1841.35 1431.27 1833.84 L1436.37 1833.84 Z" fill="#000000" fill-rule="nonzero" fill-opacity="1" /><path clip-path="url(#clip440)" d="M1471.19 1853.06 L1471.19 1833.78 L1477.04 1833.78 L1477.04 1883.3 L1471.19 1883.3 L1471.19 1877.95 Q1469.34 1881.14 1466.51 1882.7 Q1463.71 1884.22 1459.76 1884.22 Q1453.3 1884.22 1449.23 1879.07 Q1445.18 1873.91 1445.18 1865.51 Q1445.18 1857.11 1449.23 1851.95 Q1453.3 1846.79 1459.76 1846.79 Q1463.71 1846.79 1466.51 1848.35 Q1469.34 1849.88 1471.19 1853.06 M1451.23 1865.51 Q1451.23 1871.97 1453.87 1875.66 Q1456.55 1879.32 1461.19 1879.32 Q1465.84 1879.32 1468.51 1875.66 Q1471.19 1871.97 1471.19 1865.51 Q1471.19 1859.05 1468.51 1855.39 Q1465.84 1851.7 1461.19 1851.7 Q1456.55 1851.7 1453.87 1855.39 Q1451.23 1859.05 1451.23 1865.51 Z" fill="#000000" fill-rule="nonzero" fill-opacity="1" /><path clip-path="url(#clip440)" d="M1505.31 1865.38 Q1498.21 1865.38 1495.47 1867 Q1492.73 1868.63 1492.73 1872.54 Q1492.73 1875.66 1494.77 1877.51 Q1496.84 1879.32 1500.37 1879.32 Q1505.24 1879.32 1508.17 1875.88 Q1511.13 1872.42 1511.13 1866.69 L1511.13 1865.38 L1505.31 1865.38 M1516.99 1862.96 L1516.99 1883.3 L1511.13 1883.3 L1511.13 1877.89 Q1509.13 1881.14 1506.13 1882.7 Q1503.14 1884.22 1498.81 1884.22 Q1493.34 1884.22 1490.09 1881.17 Q1486.88 1878.08 1486.88 1872.92 Q1486.88 1866.91 1490.89 1863.85 Q1494.93 1860.8 1502.92 1860.8 L1511.13 1860.8 L1511.13 1860.23 Q1511.13 1856.18 1508.46 1853.99 Q1505.82 1851.76 1501.01 1851.76 Q1497.95 1851.76 1495.06 1852.49 Q1492.16 1853.22 1489.49 1854.69 L1489.49 1849.28 Q1492.7 1848.03 1495.73 1847.43 Q1498.75 1846.79 1501.61 1846.79 Q1509.35 1846.79 1513.17 1850.8 Q1516.99 1854.81 1516.99 1862.96 Z" fill="#000000" fill-rule="nonzero" fill-opacity="1" /><path clip-path="url(#clip440)" d="M1543.88 1886.61 Q1541.4 1892.98 1539.05 1894.92 Q1536.69 1896.86 1532.74 1896.86 L1528.06 1896.86 L1528.06 1891.96 L1531.5 1891.96 Q1533.92 1891.96 1535.26 1890.81 Q1536.59 1889.67 1538.22 1885.4 L1539.27 1882.73 L1524.85 1847.65 L1531.06 1847.65 L1542.2 1875.53 L1553.34 1847.65 L1559.54 1847.65 L1543.88 1886.61 Z" fill="#000000" fill-rule="nonzero" fill-opacity="1" /><path clip-path="url(#clip440)" d="M1590.35 1848.7 L1590.35 1854.24 Q1587.87 1852.97 1585.2 1852.33 Q1582.52 1851.7 1579.66 1851.7 Q1575.3 1851.7 1573.1 1853.03 Q1570.94 1854.37 1570.94 1857.04 Q1570.94 1859.08 1572.5 1860.26 Q1574.06 1861.4 1578.77 1862.45 L1580.77 1862.9 Q1587.01 1864.24 1589.62 1866.69 Q1592.26 1869.11 1592.26 1873.47 Q1592.26 1878.43 1588.32 1881.33 Q1584.4 1884.22 1577.53 1884.22 Q1574.66 1884.22 1571.54 1883.65 Q1568.45 1883.11 1565.02 1882 L1565.02 1875.95 Q1568.26 1877.64 1571.41 1878.49 Q1574.57 1879.32 1577.65 1879.32 Q1581.79 1879.32 1584.02 1877.92 Q1586.25 1876.49 1586.25 1873.91 Q1586.25 1871.52 1584.62 1870.25 Q1583.03 1868.98 1577.59 1867.8 L1575.55 1867.32 Q1570.11 1866.18 1567.69 1863.82 Q1565.27 1861.43 1565.27 1857.3 Q1565.27 1852.27 1568.84 1849.53 Q1572.4 1846.79 1578.96 1846.79 Q1582.2 1846.79 1585.07 1847.27 Q1587.93 1847.75 1590.35 1848.7 Z" fill="#000000" fill-rule="nonzero" fill-opacity="1" /><path clip-path="url(#clip440)" d="M1600.67 1833.84 L1605.76 1833.84 Q1610.53 1841.35 1612.89 1848.54 Q1615.27 1855.74 1615.27 1862.84 Q1615.27 1869.96 1612.89 1877.19 Q1610.53 1884.41 1605.76 1891.89 L1600.67 1891.89 Q1604.9 1884.61 1606.97 1877.41 Q1609.07 1870.19 1609.07 1862.84 Q1609.07 1855.48 1606.97 1848.32 Q1604.9 1841.16 1600.67 1833.84 Z" fill="#000000" fill-rule="nonzero" fill-opacity="1" /><polyline clip-path="url(#clip440)" style="stroke:#000000; stroke-linecap:round; stroke-linejoin:round; stroke-width:4; stroke-opacity:1; fill:none" points="210.238,1734.12 210.238,127.792 "/>
<polyline clip-path="url(#clip440)" style="stroke:#000000; stroke-linecap:round; stroke-linejoin:round; stroke-width:4; stroke-opacity:1; fill:none" points="210.238,1697.96 229.135,1697.96 "/>
<polyline clip-path="url(#clip440)" style="stroke:#000000; stroke-linecap:round; stroke-linejoin:round; stroke-width:4; stroke-opacity:1; fill:none" points="210.238,1186.57 229.135,1186.57 "/>
<polyline clip-path="url(#clip440)" style="stroke:#000000; stroke-linecap:round; stroke-linejoin:round; stroke-width:4; stroke-opacity:1; fill:none" points="210.238,675.193 229.135,675.193 "/>
<polyline clip-path="url(#clip440)" style="stroke:#000000; stroke-linecap:round; stroke-linejoin:round; stroke-width:4; stroke-opacity:1; fill:none" points="210.238,163.811 229.135,163.811 "/>
<path clip-path="url(#clip440)" d="M157.973 1683.75 Q154.362 1683.75 152.534 1687.32 Q150.728 1690.86 150.728 1697.99 Q150.728 1705.1 152.534 1708.66 Q154.362 1712.2 157.973 1712.2 Q161.608 1712.2 163.413 1708.66 Q165.242 1705.1 165.242 1697.99 Q165.242 1690.86 163.413 1687.32 Q161.608 1683.75 157.973 1683.75 M157.973 1680.05 Q163.784 1680.05 166.839 1684.66 Q169.918 1689.24 169.918 1697.99 Q169.918 1706.72 166.839 1711.32 Q163.784 1715.91 157.973 1715.91 Q152.163 1715.91 149.085 1711.32 Q146.029 1706.72 146.029 1697.99 Q146.029 1689.24 149.085 1684.66 Q152.163 1680.05 157.973 1680.05 Z" fill="#000000" fill-rule="nonzero" fill-opacity="1" /><path clip-path="url(#clip440)" d="M118.622 1199.92 L126.261 1199.92 L126.261 1173.55 L117.951 1175.22 L117.951 1170.96 L126.214 1169.29 L130.89 1169.29 L130.89 1199.92 L138.529 1199.92 L138.529 1203.85 L118.622 1203.85 L118.622 1199.92 Z" fill="#000000" fill-rule="nonzero" fill-opacity="1" /><path clip-path="url(#clip440)" d="M157.973 1172.37 Q154.362 1172.37 152.534 1175.94 Q150.728 1179.48 150.728 1186.61 Q150.728 1193.72 152.534 1197.28 Q154.362 1200.82 157.973 1200.82 Q161.608 1200.82 163.413 1197.28 Q165.242 1193.72 165.242 1186.61 Q165.242 1179.48 163.413 1175.94 Q161.608 1172.37 157.973 1172.37 M157.973 1168.67 Q163.784 1168.67 166.839 1173.28 Q169.918 1177.86 169.918 1186.61 Q169.918 1195.34 166.839 1199.94 Q163.784 1204.53 157.973 1204.53 Q152.163 1204.53 149.085 1199.94 Q146.029 1195.34 146.029 1186.61 Q146.029 1177.86 149.085 1173.28 Q152.163 1168.67 157.973 1168.67 Z" fill="#000000" fill-rule="nonzero" fill-opacity="1" /><path clip-path="url(#clip440)" d="M121.839 688.538 L138.159 688.538 L138.159 692.473 L116.214 692.473 L116.214 688.538 Q118.876 685.783 123.46 681.153 Q128.066 676.501 129.247 675.158 Q131.492 672.635 132.372 670.899 Q133.275 669.139 133.275 667.45 Q133.275 664.695 131.33 662.959 Q129.409 661.223 126.307 661.223 Q124.108 661.223 121.654 661.987 Q119.224 662.751 116.446 664.302 L116.446 659.579 Q119.27 658.445 121.724 657.866 Q124.177 657.288 126.214 657.288 Q131.585 657.288 134.779 659.973 Q137.974 662.658 137.974 667.149 Q137.974 669.278 137.163 671.2 Q136.376 673.098 134.27 675.69 Q133.691 676.362 130.589 679.579 Q127.488 682.774 121.839 688.538 Z" fill="#000000" fill-rule="nonzero" fill-opacity="1" /><path clip-path="url(#clip440)" d="M157.973 660.991 Q154.362 660.991 152.534 664.556 Q150.728 668.098 150.728 675.227 Q150.728 682.334 152.534 685.899 Q154.362 689.44 157.973 689.44 Q161.608 689.44 163.413 685.899 Q165.242 682.334 165.242 675.227 Q165.242 668.098 163.413 664.556 Q161.608 660.991 157.973 660.991 M157.973 657.288 Q163.784 657.288 166.839 661.894 Q169.918 666.477 169.918 675.227 Q169.918 683.954 166.839 688.561 Q163.784 693.144 157.973 693.144 Q152.163 693.144 149.085 688.561 Q146.029 683.954 146.029 675.227 Q146.029 666.477 149.085 661.894 Q152.163 657.288 157.973 657.288 Z" fill="#000000" fill-rule="nonzero" fill-opacity="1" /><path clip-path="url(#clip440)" d="M131.978 162.457 Q135.335 163.174 137.21 165.443 Q139.108 167.711 139.108 171.045 Q139.108 176.16 135.589 178.961 Q132.071 181.762 125.589 181.762 Q123.413 181.762 121.099 181.322 Q118.807 180.906 116.353 180.049 L116.353 175.535 Q118.298 176.67 120.613 177.248 Q122.927 177.827 125.451 177.827 Q129.849 177.827 132.14 176.091 Q134.455 174.355 134.455 171.045 Q134.455 167.989 132.302 166.276 Q130.173 164.54 126.353 164.54 L122.326 164.54 L122.326 160.698 L126.538 160.698 Q129.988 160.698 131.816 159.332 Q133.645 157.943 133.645 155.35 Q133.645 152.688 131.747 151.276 Q129.872 149.841 126.353 149.841 Q124.432 149.841 122.233 150.258 Q120.034 150.674 117.395 151.554 L117.395 147.387 Q120.057 146.647 122.372 146.276 Q124.71 145.906 126.77 145.906 Q132.094 145.906 135.196 148.337 Q138.298 150.744 138.298 154.864 Q138.298 157.735 136.654 159.725 Q135.011 161.693 131.978 162.457 Z" fill="#000000" fill-rule="nonzero" fill-opacity="1" /><path clip-path="url(#clip440)" d="M157.973 149.61 Q154.362 149.61 152.534 153.174 Q150.728 156.716 150.728 163.846 Q150.728 170.952 152.534 174.517 Q154.362 178.059 157.973 178.059 Q161.608 178.059 163.413 174.517 Q165.242 170.952 165.242 163.846 Q165.242 156.716 163.413 153.174 Q161.608 149.61 157.973 149.61 M157.973 145.906 Q163.784 145.906 166.839 150.512 Q169.918 155.096 169.918 163.846 Q169.918 172.573 166.839 177.179 Q163.784 181.762 157.973 181.762 Q152.163 181.762 149.085 177.179 Q146.029 172.573 146.029 163.846 Q146.029 155.096 149.085 150.512 Q152.163 145.906 157.973 145.906 Z" fill="#000000" fill-rule="nonzero" fill-opacity="1" /><path clip-path="url(#clip440)" d="M14.1184 1058.03 L14.1184 1051.6 L61.6384 1051.6 L61.6384 1058.03 L14.1184 1058.03 Z" fill="#000000" fill-rule="nonzero" fill-opacity="1" /><path clip-path="url(#clip440)" d="M40.1224 1009.43 L61.6384 1009.43 L61.6384 1015.28 L40.3133 1015.28 Q35.2526 1015.28 32.7381 1017.26 Q30.2237 1019.23 30.2237 1023.18 Q30.2237 1027.92 33.2474 1030.66 Q36.2711 1033.39 41.491 1033.39 L61.6384 1033.39 L61.6384 1039.28 L25.9905 1039.28 L25.9905 1033.39 L31.5287 1033.39 Q28.314 1031.29 26.7225 1028.46 Q25.1311 1025.6 25.1311 1021.87 Q25.1311 1015.73 28.9505 1012.58 Q32.7381 1009.43 40.1224 1009.43 Z" fill="#000000" fill-rule="nonzero" fill-opacity="1" /><path clip-path="url(#clip440)" d="M12.1132 979.7 L16.983 979.7 L16.983 985.302 Q16.983 988.453 18.2562 989.694 Q19.5293 990.904 22.8395 990.904 L25.9905 990.904 L25.9905 981.26 L30.542 981.26 L30.542 990.904 L61.6384 990.904 L61.6384 996.792 L30.542 996.792 L30.542 1002.39 L25.9905 1002.39 L25.9905 996.792 L23.5079 996.792 Q17.5559 996.792 14.8505 994.023 Q12.1132 991.254 12.1132 985.238 L12.1132 979.7 Z" fill="#000000" fill-rule="nonzero" fill-opacity="1" /><path clip-path="url(#clip440)" d="M42.3504 944.307 L45.2149 944.307 L45.2149 971.234 Q51.2623 970.852 54.4452 967.605 Q57.5962 964.327 57.5962 958.502 Q57.5962 955.128 56.7687 951.977 Q55.9411 948.794 54.2861 945.675 L59.8242 945.675 Q61.161 948.826 61.8612 952.136 Q62.5615 955.447 62.5615 958.852 Q62.5615 967.382 57.5962 972.379 Q52.631 977.345 44.1646 977.345 Q35.4117 977.345 30.2873 972.634 Q25.1311 967.892 25.1311 959.871 Q25.1311 952.678 29.7781 948.508 Q34.3932 944.307 42.3504 944.307 M40.6316 950.163 Q35.8255 950.227 32.9609 952.869 Q30.0964 955.478 30.0964 959.807 Q30.0964 964.709 32.8654 967.669 Q35.6345 970.597 40.6634 971.043 L40.6316 950.163 Z" fill="#000000" fill-rule="nonzero" fill-opacity="1" /><path clip-path="url(#clip440)" d="M27.3591 909.041 L32.8336 909.041 Q31.465 911.523 30.7966 914.038 Q30.0964 916.52 30.0964 919.067 Q30.0964 924.764 33.7248 927.915 Q37.3214 931.066 43.8463 931.066 Q50.3711 931.066 53.9996 927.915 Q57.5962 924.764 57.5962 919.067 Q57.5962 916.52 56.9278 914.038 Q56.2276 911.523 54.859 909.041 L60.2698 909.041 Q61.4156 911.491 61.9886 914.133 Q62.5615 916.743 62.5615 919.703 Q62.5615 927.756 57.5007 932.498 Q52.44 937.241 43.8463 937.241 Q35.1253 937.241 30.1282 932.466 Q25.1311 927.66 25.1311 919.321 Q25.1311 916.616 25.704 914.038 Q26.2451 911.46 27.3591 909.041 Z" fill="#000000" fill-rule="nonzero" fill-opacity="1" /><path clip-path="url(#clip440)" d="M15.869 893.063 L25.9905 893.063 L25.9905 881 L30.542 881 L30.542 893.063 L49.8937 893.063 Q54.2542 893.063 55.4955 891.885 Q56.7368 890.676 56.7368 887.015 L56.7368 881 L61.6384 881 L61.6384 887.015 Q61.6384 893.795 59.124 896.373 Q56.5777 898.951 49.8937 898.951 L30.542 898.951 L30.542 903.248 L25.9905 903.248 L25.9905 898.951 L15.869 898.951 L15.869 893.063 Z" fill="#000000" fill-rule="nonzero" fill-opacity="1" /><path clip-path="url(#clip440)" d="M42.3504 842.805 L45.2149 842.805 L45.2149 869.732 Q51.2623 869.35 54.4452 866.104 Q57.5962 862.826 57.5962 857.001 Q57.5962 853.627 56.7687 850.476 Q55.9411 847.293 54.2861 844.174 L59.8242 844.174 Q61.161 847.325 61.8612 850.635 Q62.5615 853.945 62.5615 857.351 Q62.5615 865.881 57.5962 870.878 Q52.631 875.843 44.1646 875.843 Q35.4117 875.843 30.2873 871.133 Q25.1311 866.39 25.1311 858.37 Q25.1311 851.176 29.7781 847.007 Q34.3932 842.805 42.3504 842.805 M40.6316 848.662 Q35.8255 848.726 32.9609 851.367 Q30.0964 853.977 30.0964 858.306 Q30.0964 863.208 32.8654 866.168 Q35.6345 869.096 40.6634 869.541 L40.6316 848.662 Z" fill="#000000" fill-rule="nonzero" fill-opacity="1" /><path clip-path="url(#clip440)" d="M31.4013 809.736 L12.1132 809.736 L12.1132 803.879 L61.6384 803.879 L61.6384 809.736 L56.2912 809.736 Q59.4741 811.582 61.0337 814.414 Q62.5615 817.215 62.5615 821.162 Q62.5615 827.623 57.4052 831.697 Q52.249 835.739 43.8463 835.739 Q35.4436 835.739 30.2873 831.697 Q25.1311 827.623 25.1311 821.162 Q25.1311 817.215 26.6907 814.414 Q28.2185 811.582 31.4013 809.736 M43.8463 829.692 Q50.3075 829.692 53.9996 827.05 Q57.6599 824.377 57.6599 819.73 Q57.6599 815.083 53.9996 812.409 Q50.3075 809.736 43.8463 809.736 Q37.3851 809.736 33.7248 812.409 Q30.0327 815.083 30.0327 819.73 Q30.0327 824.377 33.7248 827.05 Q37.3851 829.692 43.8463 829.692 Z" fill="#000000" fill-rule="nonzero" fill-opacity="1" /><path clip-path="url(#clip440)" d="M614.627 18.8205 L614.627 41.5461 L624.917 41.5461 Q630.628 41.5461 633.748 38.5889 Q636.867 35.6318 636.867 30.163 Q636.867 24.7348 633.748 21.7777 Q630.628 18.8205 624.917 18.8205 L614.627 18.8205 M606.445 12.096 L624.917 12.096 Q635.084 12.096 640.27 16.714 Q645.495 21.2916 645.495 30.163 Q645.495 39.1155 640.27 43.6931 Q635.084 48.2706 624.917 48.2706 L614.627 48.2706 L614.627 72.576 L606.445 72.576 L606.445 12.096 Z" fill="#000000" fill-rule="nonzero" fill-opacity="1" /><path clip-path="url(#clip440)" d="M680.981 34.1734 Q679.725 33.4443 678.227 33.1202 Q676.768 32.7556 674.986 32.7556 Q668.666 32.7556 665.264 36.8875 Q661.901 40.9789 661.901 48.6757 L661.901 72.576 L654.407 72.576 L654.407 27.2059 L661.901 27.2059 L661.901 34.2544 Q664.251 30.1225 668.018 28.1376 Q671.786 26.1121 677.173 26.1121 Q677.943 26.1121 678.875 26.2337 Q679.806 26.3147 680.941 26.5172 L680.981 34.1734 Z" fill="#000000" fill-rule="nonzero" fill-opacity="1" /><path clip-path="url(#clip440)" d="M704.557 32.4315 Q698.562 32.4315 695.078 37.1306 Q691.595 41.7891 691.595 49.9314 Q691.595 58.0738 695.038 62.7728 Q698.522 67.4314 704.557 67.4314 Q710.512 67.4314 713.996 62.7323 Q717.48 58.0333 717.48 49.9314 Q717.48 41.8701 713.996 37.1711 Q710.512 32.4315 704.557 32.4315 M704.557 26.1121 Q714.28 26.1121 719.829 32.4315 Q725.379 38.7509 725.379 49.9314 Q725.379 61.0714 719.829 67.4314 Q714.28 73.7508 704.557 73.7508 Q694.795 73.7508 689.245 67.4314 Q683.736 61.0714 683.736 49.9314 Q683.736 38.7509 689.245 32.4315 Q694.795 26.1121 704.557 26.1121 Z" fill="#000000" fill-rule="nonzero" fill-opacity="1" /><path clip-path="url(#clip440)" d="M744.945 65.7705 L744.945 89.8329 L737.451 89.8329 L737.451 27.2059 L744.945 27.2059 L744.945 34.0924 Q747.294 30.0415 750.859 28.0971 Q754.465 26.1121 759.447 26.1121 Q767.711 26.1121 772.856 32.6746 Q778.041 39.2371 778.041 49.9314 Q778.041 60.6258 772.856 67.1883 Q767.711 73.7508 759.447 73.7508 Q754.465 73.7508 750.859 71.8063 Q747.294 69.8214 744.945 65.7705 M770.304 49.9314 Q770.304 41.7081 766.901 37.0496 Q763.539 32.3505 757.624 32.3505 Q751.71 32.3505 748.307 37.0496 Q744.945 41.7081 744.945 49.9314 Q744.945 58.1548 748.307 62.8538 Q751.71 67.5124 757.624 67.5124 Q763.539 67.5124 766.901 62.8538 Q770.304 58.1548 770.304 49.9314 Z" fill="#000000" fill-rule="nonzero" fill-opacity="1" /><path clip-path="url(#clip440)" d="M807.977 32.4315 Q801.982 32.4315 798.498 37.1306 Q795.014 41.7891 795.014 49.9314 Q795.014 58.0738 798.457 62.7728 Q801.941 67.4314 807.977 67.4314 Q813.932 67.4314 817.416 62.7323 Q820.899 58.0333 820.899 49.9314 Q820.899 41.8701 817.416 37.1711 Q813.932 32.4315 807.977 32.4315 M807.977 26.1121 Q817.699 26.1121 823.249 32.4315 Q828.799 38.7509 828.799 49.9314 Q828.799 61.0714 823.249 67.4314 Q817.699 73.7508 807.977 73.7508 Q798.214 73.7508 792.665 67.4314 Q787.155 61.0714 787.155 49.9314 Q787.155 38.7509 792.665 32.4315 Q798.214 26.1121 807.977 26.1121 Z" fill="#000000" fill-rule="nonzero" fill-opacity="1" /><path clip-path="url(#clip440)" d="M867.444 34.1734 Q866.189 33.4443 864.69 33.1202 Q863.231 32.7556 861.449 32.7556 Q855.13 32.7556 851.727 36.8875 Q848.365 40.9789 848.365 48.6757 L848.365 72.576 L840.87 72.576 L840.87 27.2059 L848.365 27.2059 L848.365 34.2544 Q850.714 30.1225 854.481 28.1376 Q858.249 26.1121 863.636 26.1121 Q864.406 26.1121 865.338 26.2337 Q866.27 26.3147 867.404 26.5172 L867.444 34.1734 Z" fill="#000000" fill-rule="nonzero" fill-opacity="1" /><path clip-path="url(#clip440)" d="M882.635 14.324 L882.635 27.2059 L897.988 27.2059 L897.988 32.9987 L882.635 32.9987 L882.635 57.6282 Q882.635 63.1779 884.134 64.7578 Q885.673 66.3376 890.332 66.3376 L897.988 66.3376 L897.988 72.576 L890.332 72.576 Q881.703 72.576 878.422 69.3758 Q875.141 66.1351 875.141 57.6282 L875.141 32.9987 L869.672 32.9987 L869.672 27.2059 L875.141 27.2059 L875.141 14.324 L882.635 14.324 Z" fill="#000000" fill-rule="nonzero" fill-opacity="1" /><path clip-path="url(#clip440)" d="M907.791 27.2059 L915.245 27.2059 L915.245 72.576 L907.791 72.576 L907.791 27.2059 M907.791 9.54393 L915.245 9.54393 L915.245 18.9825 L907.791 18.9825 L907.791 9.54393 Z" fill="#000000" fill-rule="nonzero" fill-opacity="1" /><path clip-path="url(#clip440)" d="M948.422 32.4315 Q942.427 32.4315 938.943 37.1306 Q935.459 41.7891 935.459 49.9314 Q935.459 58.0738 938.902 62.7728 Q942.386 67.4314 948.422 67.4314 Q954.377 67.4314 957.86 62.7323 Q961.344 58.0333 961.344 49.9314 Q961.344 41.8701 957.86 37.1711 Q954.377 32.4315 948.422 32.4315 M948.422 26.1121 Q958.144 26.1121 963.694 32.4315 Q969.244 38.7509 969.244 49.9314 Q969.244 61.0714 963.694 67.4314 Q958.144 73.7508 948.422 73.7508 Q938.659 73.7508 933.109 67.4314 Q927.6 61.0714 927.6 49.9314 Q927.6 38.7509 933.109 32.4315 Q938.659 26.1121 948.422 26.1121 Z" fill="#000000" fill-rule="nonzero" fill-opacity="1" /><path clip-path="url(#clip440)" d="M1019.31 45.1919 L1019.31 72.576 L1011.86 72.576 L1011.86 45.4349 Q1011.86 38.994 1009.35 35.7938 Q1006.84 32.5936 1001.81 32.5936 Q995.777 32.5936 992.293 36.4419 Q988.809 40.2903 988.809 46.9338 L988.809 72.576 L981.315 72.576 L981.315 27.2059 L988.809 27.2059 L988.809 34.2544 Q991.483 30.163 995.088 28.1376 Q998.734 26.1121 1003.47 26.1121 Q1011.29 26.1121 1015.3 30.9732 Q1019.31 35.7938 1019.31 45.1919 Z" fill="#000000" fill-rule="nonzero" fill-opacity="1" /><path clip-path="url(#clip440)" d="M1054.8 49.7694 Q1045.77 49.7694 1042.28 51.8354 Q1038.8 53.9013 1038.8 58.8839 Q1038.8 62.8538 1041.39 65.2034 Q1044.02 67.5124 1048.52 67.5124 Q1054.72 67.5124 1058.44 63.1374 Q1062.21 58.7219 1062.21 51.4303 L1062.21 49.7694 L1054.8 49.7694 M1069.67 46.6907 L1069.67 72.576 L1062.21 72.576 L1062.21 65.6895 Q1059.66 69.8214 1055.85 71.8063 Q1052.04 73.7508 1046.53 73.7508 Q1039.57 73.7508 1035.44 69.8619 Q1031.34 65.9325 1031.34 59.3701 Q1031.34 51.7138 1036.45 47.825 Q1041.59 43.9361 1051.76 43.9361 L1062.21 43.9361 L1062.21 43.2069 Q1062.21 38.0623 1058.81 35.2672 Q1055.45 32.4315 1049.33 32.4315 Q1045.44 32.4315 1041.75 33.3632 Q1038.07 34.295 1034.67 36.1584 L1034.67 29.2718 Q1038.76 27.692 1042.61 26.9223 Q1046.45 26.1121 1050.1 26.1121 Q1059.94 26.1121 1064.8 31.2163 Q1069.67 36.3204 1069.67 46.6907 Z" fill="#000000" fill-rule="nonzero" fill-opacity="1" /><path clip-path="url(#clip440)" d="M1092.39 14.324 L1092.39 27.2059 L1107.74 27.2059 L1107.74 32.9987 L1092.39 32.9987 L1092.39 57.6282 Q1092.39 63.1779 1093.89 64.7578 Q1095.43 66.3376 1100.09 66.3376 L1107.74 66.3376 L1107.74 72.576 L1100.09 72.576 Q1091.46 72.576 1088.18 69.3758 Q1084.9 66.1351 1084.9 57.6282 L1084.9 32.9987 L1079.43 32.9987 L1079.43 27.2059 L1084.9 27.2059 L1084.9 14.324 L1092.39 14.324 Z" fill="#000000" fill-rule="nonzero" fill-opacity="1" /><path clip-path="url(#clip440)" d="M1156.35 48.0275 L1156.35 51.6733 L1122.08 51.6733 Q1122.57 59.3701 1126.7 63.421 Q1130.87 67.4314 1138.29 67.4314 Q1142.58 67.4314 1146.59 66.3781 Q1150.64 65.3249 1154.61 63.2184 L1154.61 70.267 Q1150.6 71.9684 1146.39 72.8596 Q1142.18 73.7508 1137.84 73.7508 Q1126.99 73.7508 1120.63 67.4314 Q1114.31 61.1119 1114.31 50.3365 Q1114.31 39.1965 1120.3 32.6746 Q1126.34 26.1121 1136.55 26.1121 Q1145.7 26.1121 1151.01 32.0264 Q1156.35 37.9003 1156.35 48.0275 M1148.9 45.84 Q1148.82 39.7232 1145.46 36.0774 Q1142.14 32.4315 1136.63 32.4315 Q1130.39 32.4315 1126.62 35.9558 Q1122.89 39.4801 1122.33 45.8805 L1148.9 45.84 Z" fill="#000000" fill-rule="nonzero" fill-opacity="1" /><path clip-path="url(#clip440)" d="M1195.28 12.096 L1207.48 12.096 L1222.91 53.2532 L1238.43 12.096 L1250.62 12.096 L1250.62 72.576 L1242.64 72.576 L1242.64 19.4686 L1227.04 60.9499 L1218.82 60.9499 L1203.22 19.4686 L1203.22 72.576 L1195.28 72.576 L1195.28 12.096 Z" fill="#000000" fill-rule="nonzero" fill-opacity="1" /><path clip-path="url(#clip440)" d="M1266.54 27.2059 L1273.99 27.2059 L1273.99 72.576 L1266.54 72.576 L1266.54 27.2059 M1266.54 9.54393 L1273.99 9.54393 L1273.99 18.9825 L1266.54 18.9825 L1266.54 9.54393 Z" fill="#000000" fill-rule="nonzero" fill-opacity="1" /><path clip-path="url(#clip440)" d="M1327.3 27.2059 L1310.9 49.2833 L1328.15 72.576 L1319.36 72.576 L1306.16 54.752 L1292.95 72.576 L1284.16 72.576 L1301.78 48.8377 L1285.66 27.2059 L1294.45 27.2059 L1306.48 43.369 L1318.51 27.2059 L1327.3 27.2059 Z" fill="#000000" fill-rule="nonzero" fill-opacity="1" /><path clip-path="url(#clip440)" d="M1338.69 27.2059 L1346.14 27.2059 L1346.14 72.576 L1338.69 72.576 L1338.69 27.2059 M1338.69 9.54393 L1346.14 9.54393 L1346.14 18.9825 L1338.69 18.9825 L1338.69 9.54393 Z" fill="#000000" fill-rule="nonzero" fill-opacity="1" /><path clip-path="url(#clip440)" d="M1399.45 45.1919 L1399.45 72.576 L1392 72.576 L1392 45.4349 Q1392 38.994 1389.48 35.7938 Q1386.97 32.5936 1381.95 32.5936 Q1375.91 32.5936 1372.43 36.4419 Q1368.95 40.2903 1368.95 46.9338 L1368.95 72.576 L1361.45 72.576 L1361.45 27.2059 L1368.95 27.2059 L1368.95 34.2544 Q1371.62 30.163 1375.23 28.1376 Q1378.87 26.1121 1383.61 26.1121 Q1391.43 26.1121 1395.44 30.9732 Q1399.45 35.7938 1399.45 45.1919 Z" fill="#000000" fill-rule="nonzero" fill-opacity="1" /><path clip-path="url(#clip440)" d="M1444.17 49.3643 Q1444.17 41.2625 1440.81 36.8065 Q1437.49 32.3505 1431.45 32.3505 Q1425.46 32.3505 1422.09 36.8065 Q1418.77 41.2625 1418.77 49.3643 Q1418.77 57.4256 1422.09 61.8816 Q1425.46 66.3376 1431.45 66.3376 Q1437.49 66.3376 1440.81 61.8816 Q1444.17 57.4256 1444.17 49.3643 M1451.63 66.9452 Q1451.63 78.5308 1446.48 84.1616 Q1441.34 89.8329 1430.72 89.8329 Q1426.79 89.8329 1423.31 89.2252 Q1419.83 88.6581 1416.54 87.4428 L1416.54 80.1917 Q1419.83 81.9741 1423.03 82.8248 Q1426.23 83.6755 1429.55 83.6755 Q1436.88 83.6755 1440.53 79.8271 Q1444.17 76.0193 1444.17 68.282 L1444.17 64.5957 Q1441.86 68.6061 1438.26 70.5911 Q1434.65 72.576 1429.63 72.576 Q1421.28 72.576 1416.18 66.2161 Q1411.08 59.8562 1411.08 49.3643 Q1411.08 38.832 1416.18 32.472 Q1421.28 26.1121 1429.63 26.1121 Q1434.65 26.1121 1438.26 28.0971 Q1441.86 30.082 1444.17 34.0924 L1444.17 27.2059 L1451.63 27.2059 L1451.63 66.9452 Z" fill="#000000" fill-rule="nonzero" fill-opacity="1" /><path clip-path="url(#clip440)" d="M1489.58 46.9338 L1564.44 46.9338 L1564.44 52.7671 L1489.58 52.7671 L1489.58 46.9338 Z" fill="#000000" fill-rule="nonzero" fill-opacity="1" /><path clip-path="url(#clip440)" d="M1603.01 12.096 L1611.19 12.096 L1611.19 72.576 L1603.01 72.576 L1603.01 12.096 Z" fill="#000000" fill-rule="nonzero" fill-opacity="1" /><path clip-path="url(#clip440)" d="M1664.86 45.1919 L1664.86 72.576 L1657.41 72.576 L1657.41 45.4349 Q1657.41 38.994 1654.9 35.7938 Q1652.39 32.5936 1647.36 32.5936 Q1641.33 32.5936 1637.85 36.4419 Q1634.36 40.2903 1634.36 46.9338 L1634.36 72.576 L1626.87 72.576 L1626.87 27.2059 L1634.36 27.2059 L1634.36 34.2544 Q1637.04 30.163 1640.64 28.1376 Q1644.29 26.1121 1649.03 26.1121 Q1656.84 26.1121 1660.85 30.9732 Q1664.86 35.7938 1664.86 45.1919 Z" fill="#000000" fill-rule="nonzero" fill-opacity="1" /><path clip-path="url(#clip440)" d="M1702.7 9.54393 L1702.7 15.7418 L1695.57 15.7418 Q1691.56 15.7418 1689.98 17.3622 Q1688.44 18.9825 1688.44 23.1955 L1688.44 27.2059 L1700.72 27.2059 L1700.72 32.9987 L1688.44 32.9987 L1688.44 72.576 L1680.95 72.576 L1680.95 32.9987 L1673.82 32.9987 L1673.82 27.2059 L1680.95 27.2059 L1680.95 24.0462 Q1680.95 16.471 1684.47 13.0277 Q1688 9.54393 1695.65 9.54393 L1702.7 9.54393 Z" fill="#000000" fill-rule="nonzero" fill-opacity="1" /><path clip-path="url(#clip440)" d="M1747.75 48.0275 L1747.75 51.6733 L1713.48 51.6733 Q1713.96 59.3701 1718.09 63.421 Q1722.27 67.4314 1729.68 67.4314 Q1733.97 67.4314 1737.98 66.3781 Q1742.03 65.3249 1746 63.2184 L1746 70.267 Q1741.99 71.9684 1737.78 72.8596 Q1733.57 73.7508 1729.23 73.7508 Q1718.38 73.7508 1712.02 67.4314 Q1705.7 61.1119 1705.7 50.3365 Q1705.7 39.1965 1711.69 32.6746 Q1717.73 26.1121 1727.94 26.1121 Q1737.09 26.1121 1742.4 32.0264 Q1747.75 37.9003 1747.75 48.0275 M1740.29 45.84 Q1740.21 39.7232 1736.85 36.0774 Q1733.53 32.4315 1728.02 32.4315 Q1721.78 32.4315 1718.01 35.9558 Q1714.29 39.4801 1713.72 45.8805 L1740.29 45.84 Z" fill="#000000" fill-rule="nonzero" fill-opacity="1" /><path clip-path="url(#clip440)" d="M1792.63 28.9478 L1792.63 35.9153 Q1789.47 34.1734 1786.27 33.3227 Q1783.11 32.4315 1779.87 32.4315 Q1772.62 32.4315 1768.61 37.0496 Q1764.6 41.6271 1764.6 49.9314 Q1764.6 58.2358 1768.61 62.8538 Q1772.62 67.4314 1779.87 67.4314 Q1783.11 67.4314 1786.27 66.5807 Q1789.47 65.6895 1792.63 63.9476 L1792.63 70.8341 Q1789.51 72.2924 1786.15 73.0216 Q1782.83 73.7508 1779.06 73.7508 Q1768.81 73.7508 1762.78 67.3098 Q1756.74 60.8689 1756.74 49.9314 Q1756.74 38.832 1762.82 32.472 Q1768.93 26.1121 1779.55 26.1121 Q1782.99 26.1121 1786.27 26.8413 Q1789.55 27.5299 1792.63 28.9478 Z" fill="#000000" fill-rule="nonzero" fill-opacity="1" /><path clip-path="url(#clip440)" d="M1812.97 14.324 L1812.97 27.2059 L1828.32 27.2059 L1828.32 32.9987 L1812.97 32.9987 L1812.97 57.6282 Q1812.97 63.1779 1814.46 64.7578 Q1816 66.3376 1820.66 66.3376 L1828.32 66.3376 L1828.32 72.576 L1820.66 72.576 Q1812.03 72.576 1808.75 69.3758 Q1805.47 66.1351 1805.47 57.6282 L1805.47 32.9987 L1800 32.9987 L1800 27.2059 L1805.47 27.2059 L1805.47 14.324 L1812.97 14.324 Z" fill="#000000" fill-rule="nonzero" fill-opacity="1" /><path clip-path="url(#clip440)" d="M1876.93 48.0275 L1876.93 51.6733 L1842.66 51.6733 Q1843.15 59.3701 1847.28 63.421 Q1851.45 67.4314 1858.86 67.4314 Q1863.16 67.4314 1867.17 66.3781 Q1871.22 65.3249 1875.19 63.2184 L1875.19 70.267 Q1871.18 71.9684 1866.96 72.8596 Q1862.75 73.7508 1858.42 73.7508 Q1847.56 73.7508 1841.2 67.4314 Q1834.88 61.1119 1834.88 50.3365 Q1834.88 39.1965 1840.88 32.6746 Q1846.91 26.1121 1857.12 26.1121 Q1866.28 26.1121 1871.58 32.0264 Q1876.93 37.9003 1876.93 48.0275 M1869.48 45.84 Q1869.39 39.7232 1866.03 36.0774 Q1862.71 32.4315 1857.2 32.4315 Q1850.96 32.4315 1847.2 35.9558 Q1843.47 39.4801 1842.9 45.8805 L1869.48 45.84 Z" fill="#000000" fill-rule="nonzero" fill-opacity="1" /><path clip-path="url(#clip440)" d="M1919.02 34.0924 L1919.02 9.54393 L1926.47 9.54393 L1926.47 72.576 L1919.02 72.576 L1919.02 65.7705 Q1916.67 69.8214 1913.06 71.8063 Q1909.5 73.7508 1904.48 73.7508 Q1896.25 73.7508 1891.07 67.1883 Q1885.92 60.6258 1885.92 49.9314 Q1885.92 39.2371 1891.07 32.6746 Q1896.25 26.1121 1904.48 26.1121 Q1909.5 26.1121 1913.06 28.0971 Q1916.67 30.0415 1919.02 34.0924 M1893.62 49.9314 Q1893.62 58.1548 1896.98 62.8538 Q1900.38 67.5124 1906.3 67.5124 Q1912.21 67.5124 1915.62 62.8538 Q1919.02 58.1548 1919.02 49.9314 Q1919.02 41.7081 1915.62 37.0496 Q1912.21 32.3505 1906.3 32.3505 Q1900.38 32.3505 1896.98 37.0496 Q1893.62 41.7081 1893.62 49.9314 Z" fill="#000000" fill-rule="nonzero" fill-opacity="1" /><path clip-path="url(#clip440)" d="M2000.77 49.9314 Q2000.77 41.7081 1997.36 37.0496 Q1994 32.3505 1988.09 32.3505 Q1982.17 32.3505 1978.77 37.0496 Q1975.41 41.7081 1975.41 49.9314 Q1975.41 58.1548 1978.77 62.8538 Q1982.17 67.5124 1988.09 67.5124 Q1994 67.5124 1997.36 62.8538 Q2000.77 58.1548 2000.77 49.9314 M1975.41 34.0924 Q1977.76 30.0415 1981.32 28.0971 Q1984.93 26.1121 1989.91 26.1121 Q1998.17 26.1121 2003.32 32.6746 Q2008.5 39.2371 2008.5 49.9314 Q2008.5 60.6258 2003.32 67.1883 Q1998.17 73.7508 1989.91 73.7508 Q1984.93 73.7508 1981.32 71.8063 Q1977.76 69.8214 1975.41 65.7705 L1975.41 72.576 L1967.91 72.576 L1967.91 9.54393 L1975.41 9.54393 L1975.41 34.0924 Z" fill="#000000" fill-rule="nonzero" fill-opacity="1" /><path clip-path="url(#clip440)" d="M2039.74 76.7889 Q2036.58 84.8907 2033.58 87.3618 Q2030.58 89.8329 2025.56 89.8329 L2019.6 89.8329 L2019.6 83.5945 L2023.98 83.5945 Q2027.06 83.5945 2028.76 82.1361 Q2030.46 80.6778 2032.52 75.2496 L2033.86 71.8468 L2015.51 27.2059 L2023.41 27.2059 L2037.59 62.6918 L2051.77 27.2059 L2059.67 27.2059 L2039.74 76.7889 Z" fill="#000000" fill-rule="nonzero" fill-opacity="1" /><path clip-path="url(#clip440)" d="M2116.86 20.1573 L2105.77 50.2555 L2128 50.2555 L2116.86 20.1573 M2112.25 12.096 L2121.52 12.096 L2144.57 72.576 L2136.07 72.576 L2130.56 57.061 L2103.29 57.061 L2097.78 72.576 L2089.16 72.576 L2112.25 12.096 Z" fill="#000000" fill-rule="nonzero" fill-opacity="1" /><path clip-path="url(#clip440)" d="M2182.93 49.3643 Q2182.93 41.2625 2179.57 36.8065 Q2176.25 32.3505 2170.22 32.3505 Q2164.22 32.3505 2160.86 36.8065 Q2157.54 41.2625 2157.54 49.3643 Q2157.54 57.4256 2160.86 61.8816 Q2164.22 66.3376 2170.22 66.3376 Q2176.25 66.3376 2179.57 61.8816 Q2182.93 57.4256 2182.93 49.3643 M2190.39 66.9452 Q2190.39 78.5308 2185.24 84.1616 Q2180.1 89.8329 2169.49 89.8329 Q2165.56 89.8329 2162.07 89.2252 Q2158.59 88.6581 2155.31 87.4428 L2155.31 80.1917 Q2158.59 81.9741 2161.79 82.8248 Q2164.99 83.6755 2168.31 83.6755 Q2175.64 83.6755 2179.29 79.8271 Q2182.93 76.0193 2182.93 68.282 L2182.93 64.5957 Q2180.63 68.6061 2177.02 70.5911 Q2173.42 72.576 2168.39 72.576 Q2160.05 72.576 2154.94 66.2161 Q2149.84 59.8562 2149.84 49.3643 Q2149.84 38.832 2154.94 32.472 Q2160.05 26.1121 2168.39 26.1121 Q2173.42 26.1121 2177.02 28.0971 Q2180.63 30.082 2182.93 34.0924 L2182.93 27.2059 L2190.39 27.2059 L2190.39 66.9452 Z" fill="#000000" fill-rule="nonzero" fill-opacity="1" /><path clip-path="url(#clip440)" d="M2244.55 48.0275 L2244.55 51.6733 L2210.28 51.6733 Q2210.76 59.3701 2214.9 63.421 Q2219.07 67.4314 2226.48 67.4314 Q2230.78 67.4314 2234.79 66.3781 Q2238.84 65.3249 2242.81 63.2184 L2242.81 70.267 Q2238.8 71.9684 2234.58 72.8596 Q2230.37 73.7508 2226.04 73.7508 Q2215.18 73.7508 2208.82 67.4314 Q2202.5 61.1119 2202.5 50.3365 Q2202.5 39.1965 2208.5 32.6746 Q2214.53 26.1121 2224.74 26.1121 Q2233.9 26.1121 2239.2 32.0264 Q2244.55 37.9003 2244.55 48.0275 M2237.1 45.84 Q2237.01 39.7232 2233.65 36.0774 Q2230.33 32.4315 2224.82 32.4315 Q2218.58 32.4315 2214.82 35.9558 Q2211.09 39.4801 2210.52 45.8805 L2237.1 45.84 Z" fill="#000000" fill-rule="nonzero" fill-opacity="1" /><polyline clip-path="url(#clip441)" style="stroke:#0000ff; stroke-linecap:round; stroke-linejoin:round; stroke-width:4; stroke-opacity:1; fill:none" points="279.026,1527.5 284.758,1519.13 290.491,1510.74 296.223,1502.3 301.956,1493.83 307.688,1485.29 313.42,1476.7 319.153,1468.04 324.885,1459.3 330.617,1450.48 336.35,1441.57 342.082,1432.56 347.814,1423.46 353.547,1414.24 359.279,1404.92 365.011,1395.47 370.744,1385.9 376.476,1376.21 382.208,1366.38 387.941,1356.41 393.673,1346.3 399.406,1336.05 405.138,1325.64 410.87,1315.09 416.603,1304.37 422.335,1293.5 428.067,1282.46 433.8,1271.26 439.532,1259.89 445.264,1248.35 450.997,1236.63 456.729,1224.75 462.461,1212.69 468.194,1200.45 473.926,1188.04 479.658,1175.45 485.391,1162.69 491.123,1149.75 496.856,1136.63 502.588,1123.33 508.32,1109.86 514.053,1096.22 519.785,1082.41 525.517,1068.43 531.25,1054.28 536.982,1039.97 542.714,1025.5 548.447,1010.88 554.179,996.102 559.911,981.178 565.644,966.112 571.376,950.909 577.109,935.576 582.841,920.117 588.573,904.541 594.306,888.853 600.038,873.062 605.77,857.175 611.503,841.201 617.235,825.149 622.967,809.027 628.7,792.844 634.432,776.612 640.164,760.34 645.897,744.039 651.629,727.72 657.361,711.394 663.094,695.074 668.826,678.771 674.559,662.498 680.291,646.267 686.023,630.092 691.756,613.986 697.488,597.961 703.22,582.032 708.953,566.213 714.685,550.518 720.417,534.961 726.15,519.557 731.882,504.319 737.614,489.262 743.347,474.401 749.079,459.749 754.811,445.322 760.544,431.134 766.276,417.198 772.009,403.529 777.741,390.141 783.473,377.048 789.206,364.263 794.938,351.8 800.67,339.671 806.403,327.89 812.135,316.467 817.867,305.415 823.6,294.746 829.332,284.47 835.064,274.598 840.797,265.14 846.529,256.106 852.261,247.504 857.994,239.344 863.726,231.632 869.459,224.377 875.191,217.585 880.923,211.262 886.656,205.413 892.388,200.042 898.12,195.155 903.853,190.754 909.585,186.842 915.317,183.422 921.05,180.495 926.782,178.061 932.514,176.121 938.247,174.674 943.979,173.719 949.712,173.254 955.444,173.277 961.176,173.785 966.909,174.774 972.641,176.24 978.373,178.178 984.106,180.582 989.838,183.447 995.57,186.767 1001.3,190.534 1007.04,194.742 1012.77,199.382 1018.5,204.447 1024.23,209.928 1029.96,215.815 1035.7,222.1 1041.43,228.774 1047.16,235.825 1052.89,243.244 1058.63,251.021 1064.36,259.145 1070.09,267.604 1075.82,276.39 1081.56,285.489 1087.29,294.891 1093.02,304.585 1098.75,314.559 1104.49,324.801 1110.22,335.301 1115.95,346.046 1121.68,357.025 1127.41,368.227 1133.15,379.639 1138.88,391.252 1144.61,403.053 1150.34,415.031 1156.08,427.176 1161.81,439.476 1167.54,451.921 1173.27,464.499 1179.01,477.201 1184.74,490.015 1190.47,502.933 1196.2,515.943 1201.94,529.036 1207.67,542.203 1213.4,555.433 1219.13,568.719 1224.86,582.051 1230.6,595.421 1236.33,608.819 1242.06,622.239 1247.79,635.672 1253.53,649.109 1259.26,662.545 1264.99,675.971 1270.72,689.38 1276.46,702.767 1282.19,716.124 1287.92,729.444 1293.65,742.723 1299.39,755.954 1305.12,769.132 1310.85,782.251 1316.58,795.307 1322.31,808.294 1328.05,821.208 1333.78,834.044 1339.51,846.799 1345.24,859.469 1350.98,872.049 1356.71,884.536 1362.44,896.927 1368.17,909.219 1373.91,921.408 1379.64,933.492 1385.37,945.468 1391.1,957.333 1396.84,969.087 1402.57,980.726 1408.3,992.249 1414.03,1003.65 1419.76,1014.94 1425.5,1026.1 1431.23,1037.14 1436.96,1048.06 1442.69,1058.85 1448.43,1069.52 1454.16,1080.06 1459.89,1090.48 1465.62,1100.76 1471.36,1110.92 1477.09,1120.95 1482.82,1130.85 1488.55,1140.62 1494.29,1150.26 1500.02,1159.78 1505.75,1169.16 1511.48,1178.42 1517.21,1187.55 1522.95,1196.55 1528.68,1205.42 1534.41,1214.17 1540.14,1222.79 1545.88,1231.28 1551.61,1239.65 1557.34,1247.9 1563.07,1256.02 1568.81,1264.02 1574.54,1271.89 1580.27,1279.65 1586,1287.28 1591.74,1294.8 1597.47,1302.19 1603.2,1309.47 1608.93,1316.64 1614.66,1323.69 1620.4,1330.62 1626.13,1337.45 1631.86,1344.16 1637.59,1350.76 1643.33,1357.25 1649.06,1363.63 1654.79,1369.91 1660.52,1376.08 1666.26,1382.15 1671.99,1388.11 1677.72,1393.97 1683.45,1399.73 1689.19,1405.4 1694.92,1410.96 1700.65,1416.43 1706.38,1421.8 1712.11,1427.08 1717.85,1432.27 1723.58,1437.36 1729.31,1442.36 1735.04,1447.28 1740.78,1452.11 1746.51,1456.85 1752.24,1461.5 1757.97,1466.08 1763.71,1470.57 1769.44,1474.97 1775.17,1479.3 1780.9,1483.55 1786.64,1487.72 1792.37,1491.82 1798.1,1495.84 1803.83,1499.78 1809.56,1503.66 1815.3,1507.46 1821.03,1511.19 1826.76,1514.85 1832.49,1518.44 1838.23,1521.97 1843.96,1525.43 1849.69,1528.82 1855.42,1532.15 1861.16,1535.42 1866.89,1538.63 1872.62,1541.77 1878.35,1544.86 1884.09,1547.88 1889.82,1550.85 1895.55,1553.77 1901.28,1556.63 1907.01,1559.43 1912.75,1562.18 1918.48,1564.87 1924.21,1567.52 1929.94,1570.11 1935.68,1572.66 1941.41,1575.15 1947.14,1577.6 1952.87,1580 1958.61,1582.35 1964.34,1584.66 1970.07,1586.92 1975.8,1589.14 1981.54,1591.31 1987.27,1593.45 1993,1595.54 1998.73,1597.59 2004.46,1599.6 2010.2,1601.57 2015.93,1603.5 2021.66,1605.39 2027.39,1607.25 2033.13,1609.07 2038.86,1610.86 2044.59,1612.61 2050.32,1614.32 2056.06,1616 2061.79,1617.65 2067.52,1619.27 2073.25,1620.85 2078.99,1622.4 2084.72,1623.93 2090.45,1625.42 2096.18,1626.88 2101.91,1628.31 2107.65,1629.72 2113.38,1631.09 2119.11,1632.44 2124.84,1633.76 2130.58,1635.06 2136.31,1636.33 2142.04,1637.57 2147.77,1638.8 2153.51,1639.99 2159.24,1641.16 2164.97,1642.31 2170.7,1643.44 2176.44,1644.54 2182.17,1645.62 2187.9,1646.68 2193.63,1647.72 2199.36,1648.73 2205.1,1649.73 2210.83,1650.71 2216.56,1651.67 2222.29,1652.6 2228.03,1653.52 2233.76,1654.42 2239.49,1655.31 2245.22,1656.17 2250.96,1657.02 2256.69,1657.85 2262.42,1658.66 2268.15,1659.46 2273.89,1660.24 2279.62,1661.01 2285.35,1661.76 2291.08,1662.49 2296.81,1663.21 2302.55,1663.92 2308.28,1664.61 2314.01,1665.29 2319.74,1665.95 2325.48,1666.6 2331.21,1667.24 2336.94,1667.86 2342.67,1668.48 2348.41,1669.07 2354.14,1669.66 2359.87,1670.24 2365.6,1670.8 2371.34,1671.35 2377.07,1671.89 2382.8,1672.42 2388.53,1672.94 2394.26,1673.45 2400,1673.95 2405.73,1674.44 2411.46,1674.92 2417.19,1675.39 2422.93,1675.85 2428.66,1676.3 2434.39,1676.74 2440.12,1677.17 2445.86,1677.59 2451.59,1678.01 2457.32,1678.41 2463.05,1678.81 2468.79,1679.2 2474.52,1679.58 2480.25,1679.96 2485.98,1680.33 2491.71,1680.68 2497.45,1681.04 2503.18,1681.38 2508.91,1681.72 2514.64,1682.05 2520.38,1682.37 2526.11,1682.69 2531.84,1683 2537.57,1683.31 2543.31,1683.61 2549.04,1683.9 2554.77,1684.19 2560.5,1684.47 2566.24,1684.74 2571.97,1685.01 "/>
<polyline clip-path="url(#clip441)" style="stroke:#ff0000; stroke-linecap:round; stroke-linejoin:round; stroke-width:4; stroke-opacity:1; fill:none" points="279.026,1527.5 284.758,1524.69 290.491,1521.72 296.223,1518.6 301.956,1515.32 307.688,1511.88 313.42,1508.29 319.153,1504.54 324.885,1500.63 330.617,1496.57 336.35,1492.36 342.082,1487.99 347.814,1483.46 353.547,1478.78 359.279,1473.94 365.011,1468.95 370.744,1463.8 376.476,1458.5 382.208,1453.03 387.941,1447.41 393.673,1441.64 399.406,1435.7 405.138,1429.61 410.87,1423.35 416.603,1416.94 422.335,1410.37 428.067,1403.63 433.8,1396.74 439.532,1389.69 445.264,1382.47 450.997,1375.1 456.729,1367.56 462.461,1359.87 468.194,1352.01 473.926,1343.99 479.658,1335.81 485.391,1327.48 491.123,1318.98 496.856,1310.33 502.588,1301.51 508.32,1292.55 514.053,1283.42 519.785,1274.15 525.517,1264.72 531.25,1255.15 536.982,1245.42 542.714,1235.55 548.447,1225.53 554.179,1215.38 559.911,1205.09 565.644,1194.66 571.376,1184.1 577.109,1173.41 582.841,1162.6 588.573,1151.67 594.306,1140.62 600.038,1129.46 605.77,1118.2 611.503,1106.83 617.235,1095.37 622.967,1083.82 628.7,1072.18 634.432,1060.47 640.164,1048.68 645.897,1036.83 651.629,1024.93 657.361,1012.97 663.094,1000.97 668.826,988.936 674.559,976.875 680.291,964.794 686.023,952.704 691.756,940.612 697.488,928.528 703.22,916.461 708.953,904.42 714.685,892.414 720.417,880.454 726.15,868.549 731.882,856.709 737.614,844.944 743.347,833.264 749.079,821.679 754.811,810.2 760.544,798.838 766.276,787.601 772.009,776.501 777.741,765.548 783.473,754.753 789.206,744.125 794.938,733.675 800.67,723.413 806.403,713.348 812.135,703.49 817.867,693.849 823.6,684.434 829.332,675.255 835.064,666.32 840.797,657.638 846.529,649.218 852.261,641.067 857.994,633.195 863.726,625.607 869.459,618.311 875.191,611.314 880.923,604.622 886.656,598.242 892.388,592.179 898.12,586.438 903.853,581.025 909.585,575.944 915.317,571.198 921.05,566.792 926.782,562.728 932.514,559.01 938.247,555.638 943.979,552.616 949.712,549.945 955.444,547.625 961.176,545.656 966.909,544.04 972.641,542.776 978.373,541.863 984.106,541.299 989.838,541.083 995.57,541.212 1001.3,541.685 1007.04,542.498 1012.77,543.648 1018.5,545.132 1024.23,546.946 1029.96,549.085 1035.7,551.545 1041.43,554.321 1047.16,557.409 1052.89,560.801 1058.63,564.493 1064.36,568.478 1070.09,572.751 1075.82,577.305 1081.56,582.133 1087.29,587.229 1093.02,592.586 1098.75,598.197 1104.49,604.054 1110.22,610.149 1115.95,616.477 1121.68,623.028 1127.41,629.796 1133.15,636.772 1138.88,643.949 1144.61,651.319 1150.34,658.874 1156.08,666.607 1161.81,674.51 1167.54,682.575 1173.27,690.794 1179.01,699.16 1184.74,707.665 1190.47,716.301 1196.2,725.06 1201.94,733.936 1207.67,742.92 1213.4,752.007 1219.13,761.187 1224.86,770.455 1230.6,779.804 1236.33,789.226 1242.06,798.716 1247.79,808.265 1253.53,817.869 1259.26,827.519 1264.99,837.212 1270.72,846.939 1276.46,856.697 1282.19,866.478 1287.92,876.277 1293.65,886.089 1299.39,895.908 1305.12,905.731 1310.85,915.55 1316.58,925.362 1322.31,935.163 1328.05,944.946 1333.78,954.709 1339.51,964.447 1345.24,974.156 1350.98,983.832 1356.71,993.471 1362.44,1003.07 1368.17,1012.63 1373.91,1022.14 1379.64,1031.59 1385.37,1041 1391.1,1050.35 1396.84,1059.64 1402.57,1068.87 1408.3,1078.04 1414.03,1087.14 1419.76,1096.17 1425.5,1105.14 1431.23,1114.03 1436.96,1122.84 1442.69,1131.58 1448.43,1140.25 1454.16,1148.83 1459.89,1157.34 1465.62,1165.76 1471.36,1174.1 1477.09,1182.36 1482.82,1190.53 1488.55,1198.61 1494.29,1206.61 1500.02,1214.53 1505.75,1222.35 1511.48,1230.09 1517.21,1237.73 1522.95,1245.29 1528.68,1252.76 1534.41,1260.14 1540.14,1267.43 1545.88,1274.62 1551.61,1281.73 1557.34,1288.75 1563.07,1295.67 1568.81,1302.51 1574.54,1309.25 1580.27,1315.91 1586,1322.47 1591.74,1328.95 1597.47,1335.34 1603.2,1341.64 1608.93,1347.84 1614.66,1353.97 1620.4,1360 1626.13,1365.95 1631.86,1371.81 1637.59,1377.58 1643.33,1383.27 1649.06,1388.87 1654.79,1394.39 1660.52,1399.83 1666.26,1405.18 1671.99,1410.45 1677.72,1415.64 1683.45,1420.75 1689.19,1425.78 1694.92,1430.73 1700.65,1435.6 1706.38,1440.39 1712.11,1445.11 1717.85,1449.75 1723.58,1454.31 1729.31,1458.8 1735.04,1463.22 1740.78,1467.57 1746.51,1471.84 1752.24,1476.04 1757.97,1480.17 1763.71,1484.23 1769.44,1488.23 1775.17,1492.15 1780.9,1496.01 1786.64,1499.81 1792.37,1503.54 1798.1,1507.2 1803.83,1510.8 1809.56,1514.34 1815.3,1517.82 1821.03,1521.24 1826.76,1524.59 1832.49,1527.89 1838.23,1531.13 1843.96,1534.32 1849.69,1537.44 1855.42,1540.51 1861.16,1543.53 1866.89,1546.49 1872.62,1549.4 1878.35,1552.26 1884.09,1555.06 1889.82,1557.82 1895.55,1560.52 1901.28,1563.18 1907.01,1565.78 1912.75,1568.34 1918.48,1570.86 1924.21,1573.32 1929.94,1575.74 1935.68,1578.12 1941.41,1580.45 1947.14,1582.74 1952.87,1584.99 1958.61,1587.19 1964.34,1589.36 1970.07,1591.48 1975.8,1593.57 1981.54,1595.61 1987.27,1597.62 1993,1599.59 1998.73,1601.52 2004.46,1603.41 2010.2,1605.27 2015.93,1607.1 2021.66,1608.89 2027.39,1610.64 2033.13,1612.37 2038.86,1614.06 2044.59,1615.71 2050.32,1617.34 2056.06,1618.93 2061.79,1620.5 2067.52,1622.03 2073.25,1623.54 2078.99,1625.01 2084.72,1626.46 2090.45,1627.88 2096.18,1629.27 2101.91,1630.64 2107.65,1631.97 2113.38,1633.29 2119.11,1634.58 2124.84,1635.84 2130.58,1637.08 2136.31,1638.29 2142.04,1639.48 2147.77,1640.65 2153.51,1641.79 2159.24,1642.91 2164.97,1644.01 2170.7,1645.09 2176.44,1646.15 2182.17,1647.19 2187.9,1648.2 2193.63,1649.2 2199.36,1650.18 2205.1,1651.13 2210.83,1652.07 2216.56,1652.99 2222.29,1653.9 2228.03,1654.78 2233.76,1655.65 2239.49,1656.5 2245.22,1657.33 2250.96,1658.15 2256.69,1658.95 2262.42,1659.73 2268.15,1660.5 2273.89,1661.25 2279.62,1661.99 2285.35,1662.72 2291.08,1663.43 2296.81,1664.12 2302.55,1664.81 2308.28,1665.47 2314.01,1666.13 2319.74,1666.77 2325.48,1667.4 2331.21,1668.02 2336.94,1668.62 2342.67,1669.21 2348.41,1669.79 2354.14,1670.36 2359.87,1670.92 2365.6,1671.47 2371.34,1672 2377.07,1672.53 2382.8,1673.04 2388.53,1673.55 2394.26,1674.04 2400,1674.52 2405.73,1675 2411.46,1675.46 2417.19,1675.92 2422.93,1676.36 2428.66,1676.8 2434.39,1677.23 2440.12,1677.65 2445.86,1678.06 2451.59,1678.47 2457.32,1678.86 2463.05,1679.25 2468.79,1679.63 2474.52,1680 2480.25,1680.36 2485.98,1680.72 2491.71,1681.07 2497.45,1681.41 2503.18,1681.75 2508.91,1682.08 2514.64,1682.4 2520.38,1682.72 2526.11,1683.02 2531.84,1683.33 2537.57,1683.63 2543.31,1683.92 2549.04,1684.2 2554.77,1684.48 2560.5,1684.75 2566.24,1685.02 2571.97,1685.29 "/>
<polyline clip-path="url(#clip441)" style="stroke:#008000; stroke-linecap:round; stroke-linejoin:round; stroke-width:4; stroke-opacity:1; fill:none" points="279.026,1527.5 284.758,1530.25 290.491,1532.72 296.223,1534.91 301.956,1536.84 307.688,1538.52 313.42,1539.94 319.153,1541.14 324.885,1542.1 330.617,1542.83 336.35,1543.36 342.082,1543.67 347.814,1543.78 353.547,1543.69 359.279,1543.41 365.011,1542.94 370.744,1542.29 376.476,1541.46 382.208,1540.46 387.941,1539.28 393.673,1537.95 399.406,1536.45 405.138,1534.79 410.87,1532.98 416.603,1531.01 422.335,1528.9 428.067,1526.64 433.8,1524.23 439.532,1521.69 445.264,1519 450.997,1516.18 456.729,1513.22 462.461,1510.13 468.194,1506.91 473.926,1503.56 479.658,1500.08 485.391,1496.47 491.123,1492.75 496.856,1488.9 502.588,1484.93 508.32,1480.84 514.053,1476.63 519.785,1472.31 525.517,1467.88 531.25,1463.33 536.982,1458.67 542.714,1453.91 548.447,1449.04 554.179,1444.06 559.911,1438.98 565.644,1433.8 571.376,1428.53 577.109,1423.15 582.841,1417.68 588.573,1412.12 594.306,1406.47 600.038,1400.73 605.77,1394.91 611.503,1389.01 617.235,1383.02 622.967,1376.96 628.7,1370.83 634.432,1364.63 640.164,1358.36 645.897,1352.03 651.629,1345.63 657.361,1339.19 663.094,1332.69 668.826,1326.14 674.559,1319.54 680.291,1312.91 686.023,1306.24 691.756,1299.53 697.488,1292.8 703.22,1286.05 708.953,1279.28 714.685,1272.5 720.417,1265.71 726.15,1258.91 731.882,1252.12 737.614,1245.34 743.347,1238.56 749.079,1231.81 754.811,1225.08 760.544,1218.37 766.276,1211.71 772.009,1205.08 777.741,1198.5 783.473,1191.97 789.206,1185.49 794.938,1179.08 800.67,1172.74 806.403,1166.47 812.135,1160.28 817.867,1154.17 823.6,1148.16 829.332,1142.24 835.064,1136.43 840.797,1130.72 846.529,1125.12 852.261,1119.65 857.994,1114.29 863.726,1109.06 869.459,1103.97 875.191,1099.01 880.923,1094.19 886.656,1089.52 892.388,1085 898.12,1080.63 903.853,1076.42 909.585,1072.38 915.317,1068.49 921.05,1064.78 926.782,1061.24 932.514,1057.87 938.247,1054.68 943.979,1051.67 949.712,1048.84 955.444,1046.2 961.176,1043.74 966.909,1041.47 972.641,1039.38 978.373,1037.49 984.106,1035.78 989.838,1034.27 995.57,1032.95 1001.3,1031.82 1007.04,1030.88 1012.77,1030.14 1018.5,1029.58 1024.23,1029.21 1029.96,1029.04 1035.7,1029.05 1041.43,1029.25 1047.16,1029.63 1052.89,1030.2 1058.63,1030.95 1064.36,1031.88 1070.09,1032.98 1075.82,1034.26 1081.56,1035.72 1087.29,1037.34 1093.02,1039.14 1098.75,1041.09 1104.49,1043.21 1110.22,1045.48 1115.95,1047.91 1121.68,1050.5 1127.41,1053.22 1133.15,1056.1 1138.88,1059.11 1144.61,1062.26 1150.34,1065.55 1156.08,1068.96 1161.81,1072.5 1167.54,1076.16 1173.27,1079.94 1179.01,1083.83 1184.74,1087.83 1190.47,1091.94 1196.2,1096.14 1201.94,1100.45 1207.67,1104.85 1213.4,1109.33 1219.13,1113.91 1224.86,1118.56 1230.6,1123.29 1236.33,1128.09 1242.06,1132.97 1247.79,1137.91 1253.53,1142.91 1259.26,1147.96 1264.99,1153.08 1270.72,1158.24 1276.46,1163.45 1282.19,1168.7 1287.92,1173.99 1293.65,1179.32 1299.39,1184.68 1305.12,1190.07 1310.85,1195.48 1316.58,1200.92 1322.31,1206.38 1328.05,1211.85 1333.78,1217.34 1339.51,1222.84 1345.24,1228.34 1350.98,1233.85 1356.71,1239.36 1362.44,1244.88 1368.17,1250.39 1373.91,1255.89 1379.64,1261.39 1385.37,1266.88 1391.1,1272.35 1396.84,1277.81 1402.57,1283.26 1408.3,1288.68 1414.03,1294.09 1419.76,1299.47 1425.5,1304.83 1431.23,1310.17 1436.96,1315.47 1442.69,1320.75 1448.43,1326 1454.16,1331.22 1459.89,1336.4 1465.62,1341.55 1471.36,1346.66 1477.09,1351.74 1482.82,1356.77 1488.55,1361.77 1494.29,1366.73 1500.02,1371.65 1505.75,1376.53 1511.48,1381.36 1517.21,1386.15 1522.95,1390.9 1528.68,1395.6 1534.41,1400.26 1540.14,1404.87 1545.88,1409.43 1551.61,1413.95 1557.34,1418.42 1563.07,1422.85 1568.81,1427.22 1574.54,1431.55 1580.27,1435.83 1586,1440.06 1591.74,1444.24 1597.47,1448.37 1603.2,1452.45 1608.93,1456.49 1614.66,1460.47 1620.4,1464.4 1626.13,1468.29 1631.86,1472.12 1637.59,1475.91 1643.33,1479.65 1649.06,1483.34 1654.79,1486.98 1660.52,1490.57 1666.26,1494.11 1671.99,1497.6 1677.72,1501.05 1683.45,1504.45 1689.19,1507.8 1694.92,1511.1 1700.65,1514.35 1706.38,1517.56 1712.11,1520.72 1717.85,1523.84 1723.58,1526.91 1729.31,1529.93 1735.04,1532.91 1740.78,1535.84 1746.51,1538.73 1752.24,1541.58 1757.97,1544.38 1763.71,1547.14 1769.44,1549.85 1775.17,1552.53 1780.9,1555.16 1786.64,1557.75 1792.37,1560.3 1798.1,1562.8 1803.83,1565.27 1809.56,1567.7 1815.3,1570.09 1821.03,1572.44 1826.76,1574.75 1832.49,1577.02 1838.23,1579.25 1843.96,1581.45 1849.69,1583.61 1855.42,1585.74 1861.16,1587.83 1866.89,1589.88 1872.62,1591.9 1878.35,1593.89 1884.09,1595.84 1889.82,1597.75 1895.55,1599.64 1901.28,1601.49 1907.01,1603.31 1912.75,1605.1 1918.48,1606.86 1924.21,1608.58 1929.94,1610.28 1935.68,1611.94 1941.41,1613.58 1947.14,1615.19 1952.87,1616.77 1958.61,1618.32 1964.34,1619.84 1970.07,1621.34 1975.8,1622.81 1981.54,1624.25 1987.27,1625.67 1993,1627.06 1998.73,1628.43 2004.46,1629.77 2010.2,1631.08 2015.93,1632.38 2021.66,1633.65 2027.39,1634.89 2033.13,1636.11 2038.86,1637.31 2044.59,1638.49 2050.32,1639.65 2056.06,1640.78 2061.79,1641.9 2067.52,1642.99 2073.25,1644.06 2078.99,1645.12 2084.72,1646.15 2090.45,1647.16 2096.18,1648.16 2101.91,1649.13 2107.65,1650.09 2113.38,1651.03 2119.11,1651.95 2124.84,1652.86 2130.58,1653.75 2136.31,1654.62 2142.04,1655.47 2147.77,1656.31 2153.51,1657.13 2159.24,1657.94 2164.97,1658.73 2170.7,1659.5 2176.44,1660.26 2182.17,1661.01 2187.9,1661.74 2193.63,1662.46 2199.36,1663.16 2205.1,1663.85 2210.83,1664.53 2216.56,1665.19 2222.29,1665.85 2228.03,1666.48 2233.76,1667.11 2239.49,1667.72 2245.22,1668.33 2250.96,1668.92 2256.69,1669.5 2262.42,1670.06 2268.15,1670.62 2273.89,1671.17 2279.62,1671.7 2285.35,1672.22 2291.08,1672.74 2296.81,1673.24 2302.55,1673.74 2308.28,1674.22 2314.01,1674.7 2319.74,1675.16 2325.48,1675.62 2331.21,1676.07 2336.94,1676.51 2342.67,1676.94 2348.41,1677.36 2354.14,1677.77 2359.87,1678.18 2365.6,1678.57 2371.34,1678.96 2377.07,1679.35 2382.8,1679.72 2388.53,1680.09 2394.26,1680.45 2400,1680.8 2405.73,1681.14 2411.46,1681.48 2417.19,1681.81 2422.93,1682.14 2428.66,1682.46 2434.39,1682.77 2440.12,1683.08 2445.86,1683.38 2451.59,1683.67 2457.32,1683.96 2463.05,1684.24 2468.79,1684.52 2474.52,1684.79 2480.25,1685.06 2485.98,1685.32 2491.71,1685.57 2497.45,1685.82 2503.18,1686.07 2508.91,1686.31 2514.64,1686.54 2520.38,1686.77 2526.11,1687 2531.84,1687.22 2537.57,1687.44 2543.31,1687.65 2549.04,1687.86 2554.77,1688.07 2560.5,1688.27 2566.24,1688.46 2571.97,1688.65 "/>
<path clip-path="url(#clip440)" d="M2198.22 388.696 L2559.74 388.696 L2559.74 181.336 L2198.22 181.336  Z" fill="#ffffff" fill-rule="evenodd" fill-opacity="1"/>
<polyline clip-path="url(#clip440)" style="stroke:#000000; stroke-linecap:round; stroke-linejoin:round; stroke-width:4; stroke-opacity:1; fill:none" points="2198.22,388.696 2559.74,388.696 2559.74,181.336 2198.22,181.336 2198.22,388.696 "/>
<polyline clip-path="url(#clip440)" style="stroke:#0000ff; stroke-linecap:round; stroke-linejoin:round; stroke-width:4; stroke-opacity:1; fill:none" points="2225.22,233.176 2387.26,233.176 "/>
<path clip-path="url(#clip440)" d="M2434.77 225.526 L2434.77 229.507 Q2432.96 228.512 2431.14 228.026 Q2429.33 227.517 2427.48 227.517 Q2423.34 227.517 2421.04 230.155 Q2418.75 232.771 2418.75 237.517 Q2418.75 242.262 2421.04 244.901 Q2423.34 247.516 2427.48 247.516 Q2429.33 247.516 2431.14 247.03 Q2432.96 246.521 2434.77 245.526 L2434.77 249.461 Q2432.99 250.294 2431.07 250.711 Q2429.17 251.128 2427.02 251.128 Q2421.16 251.128 2417.71 247.447 Q2414.26 243.767 2414.26 237.517 Q2414.26 231.174 2417.73 227.54 Q2421.23 223.906 2427.29 223.906 Q2429.26 223.906 2431.14 224.322 Q2433.01 224.716 2434.77 225.526 Z" fill="#000000" fill-rule="nonzero" fill-opacity="1" /><path clip-path="url(#clip440)" d="M2463.73 234.808 L2463.73 250.456 L2459.47 250.456 L2459.47 234.947 Q2459.47 231.267 2458.03 229.438 Q2456.6 227.609 2453.73 227.609 Q2450.28 227.609 2448.29 229.808 Q2446.3 232.007 2446.3 235.804 L2446.3 250.456 L2442.02 250.456 L2442.02 214.438 L2446.3 214.438 L2446.3 228.558 Q2447.83 226.22 2449.89 225.063 Q2451.97 223.906 2454.68 223.906 Q2459.15 223.906 2461.44 226.683 Q2463.73 229.438 2463.73 234.808 Z" fill="#000000" fill-rule="nonzero" fill-opacity="1" /><path clip-path="url(#clip440)" d="M2472.22 224.531 L2476.48 224.531 L2476.48 250.456 L2472.22 250.456 L2472.22 224.531 M2472.22 214.438 L2476.48 214.438 L2476.48 219.831 L2472.22 219.831 L2472.22 214.438 Z" fill="#000000" fill-rule="nonzero" fill-opacity="1" /><path clip-path="url(#clip440)" d="M2485.4 214.438 L2489.65 214.438 L2489.65 250.456 L2485.4 250.456 L2485.4 214.438 Z" fill="#000000" fill-rule="nonzero" fill-opacity="1" /><path clip-path="url(#clip440)" d="M2515.63 228.466 L2515.63 214.438 L2519.89 214.438 L2519.89 250.456 L2515.63 250.456 L2515.63 246.567 Q2514.28 248.882 2512.22 250.016 Q2510.19 251.128 2507.32 251.128 Q2502.62 251.128 2499.65 247.378 Q2496.71 243.628 2496.71 237.517 Q2496.71 231.405 2499.65 227.655 Q2502.62 223.906 2507.32 223.906 Q2510.19 223.906 2512.22 225.04 Q2514.28 226.151 2515.63 228.466 M2501.11 237.517 Q2501.11 242.216 2503.03 244.901 Q2504.98 247.563 2508.36 247.563 Q2511.74 247.563 2513.68 244.901 Q2515.63 242.216 2515.63 237.517 Q2515.63 232.817 2513.68 230.155 Q2511.74 227.47 2508.36 227.47 Q2504.98 227.47 2503.03 230.155 Q2501.11 232.817 2501.11 237.517 Z" fill="#000000" fill-rule="nonzero" fill-opacity="1" /><polyline clip-path="url(#clip440)" style="stroke:#ff0000; stroke-linecap:round; stroke-linejoin:round; stroke-width:4; stroke-opacity:1; fill:none" points="2225.22,285.016 2387.26,285.016 "/>
<path clip-path="url(#clip440)" d="M2427.66 289.264 Q2422.5 289.264 2420.51 290.444 Q2418.52 291.625 2418.52 294.472 Q2418.52 296.741 2420 298.083 Q2421.51 299.403 2424.08 299.403 Q2427.62 299.403 2429.75 296.903 Q2431.9 294.38 2431.9 290.213 L2431.9 289.264 L2427.66 289.264 M2436.16 287.505 L2436.16 302.296 L2431.9 302.296 L2431.9 298.361 Q2430.44 300.722 2428.27 301.856 Q2426.09 302.968 2422.94 302.968 Q2418.96 302.968 2416.6 300.745 Q2414.26 298.5 2414.26 294.75 Q2414.26 290.375 2417.18 288.153 Q2420.12 285.931 2425.93 285.931 L2431.9 285.931 L2431.9 285.514 Q2431.9 282.574 2429.96 280.977 Q2428.03 279.357 2424.54 279.357 Q2422.32 279.357 2420.21 279.889 Q2418.1 280.421 2416.16 281.486 L2416.16 277.551 Q2418.5 276.648 2420.7 276.208 Q2422.9 275.746 2424.98 275.746 Q2430.6 275.746 2433.38 278.662 Q2436.16 281.579 2436.16 287.505 Z" fill="#000000" fill-rule="nonzero" fill-opacity="1" /><path clip-path="url(#clip440)" d="M2461.99 280.306 L2461.99 266.278 L2466.25 266.278 L2466.25 302.296 L2461.99 302.296 L2461.99 298.407 Q2460.65 300.722 2458.59 301.856 Q2456.55 302.968 2453.68 302.968 Q2448.98 302.968 2446.02 299.218 Q2443.08 295.468 2443.08 289.357 Q2443.08 283.245 2446.02 279.495 Q2448.98 275.746 2453.68 275.746 Q2456.55 275.746 2458.59 276.88 Q2460.65 277.991 2461.99 280.306 M2447.48 289.357 Q2447.48 294.056 2449.4 296.741 Q2451.34 299.403 2454.72 299.403 Q2458.1 299.403 2460.05 296.741 Q2461.99 294.056 2461.99 289.357 Q2461.99 284.657 2460.05 281.995 Q2458.1 279.31 2454.72 279.31 Q2451.34 279.31 2449.4 281.995 Q2447.48 284.657 2447.48 289.357 Z" fill="#000000" fill-rule="nonzero" fill-opacity="1" /><path clip-path="url(#clip440)" d="M2474.59 292.065 L2474.59 276.371 L2478.84 276.371 L2478.84 291.903 Q2478.84 295.583 2480.28 297.435 Q2481.71 299.264 2484.58 299.264 Q2488.03 299.264 2490.02 297.065 Q2492.04 294.866 2492.04 291.069 L2492.04 276.371 L2496.3 276.371 L2496.3 302.296 L2492.04 302.296 L2492.04 298.315 Q2490.49 300.676 2488.43 301.833 Q2486.39 302.968 2483.68 302.968 Q2479.21 302.968 2476.9 300.19 Q2474.59 297.412 2474.59 292.065 M2485.3 275.746 L2485.3 275.746 Z" fill="#000000" fill-rule="nonzero" fill-opacity="1" /><path clip-path="url(#clip440)" d="M2505.07 266.278 L2509.33 266.278 L2509.33 302.296 L2505.07 302.296 L2505.07 266.278 Z" fill="#000000" fill-rule="nonzero" fill-opacity="1" /><path clip-path="url(#clip440)" d="M2522.46 269.009 L2522.46 276.371 L2531.23 276.371 L2531.23 279.681 L2522.46 279.681 L2522.46 293.755 Q2522.46 296.926 2523.31 297.829 Q2524.19 298.731 2526.85 298.731 L2531.23 298.731 L2531.23 302.296 L2526.85 302.296 Q2521.92 302.296 2520.05 300.468 Q2518.17 298.616 2518.17 293.755 L2518.17 279.681 L2515.05 279.681 L2515.05 276.371 L2518.17 276.371 L2518.17 269.009 L2522.46 269.009 Z" fill="#000000" fill-rule="nonzero" fill-opacity="1" /><polyline clip-path="url(#clip440)" style="stroke:#008000; stroke-linecap:round; stroke-linejoin:round; stroke-width:4; stroke-opacity:1; fill:none" points="2225.22,336.856 2387.26,336.856 "/>
<path clip-path="url(#clip440)" d="M2438.29 340.109 L2438.29 342.192 L2418.71 342.192 Q2418.98 346.59 2421.34 348.905 Q2423.73 351.196 2427.96 351.196 Q2430.42 351.196 2432.71 350.595 Q2435.03 349.993 2437.29 348.789 L2437.29 352.817 Q2435 353.789 2432.59 354.298 Q2430.19 354.808 2427.71 354.808 Q2421.51 354.808 2417.87 351.196 Q2414.26 347.585 2414.26 341.428 Q2414.26 335.062 2417.69 331.335 Q2421.14 327.586 2426.97 327.586 Q2432.2 327.586 2435.23 330.965 Q2438.29 334.322 2438.29 340.109 M2434.03 338.859 Q2433.98 335.363 2432.06 333.28 Q2430.16 331.197 2427.02 331.197 Q2423.45 331.197 2421.3 333.21 Q2419.17 335.224 2418.84 338.882 L2434.03 338.859 Z" fill="#000000" fill-rule="nonzero" fill-opacity="1" /><path clip-path="url(#clip440)" d="M2445.28 318.118 L2449.54 318.118 L2449.54 354.136 L2445.28 354.136 L2445.28 318.118 Z" fill="#000000" fill-rule="nonzero" fill-opacity="1" /><path clip-path="url(#clip440)" d="M2475.51 332.146 L2475.51 318.118 L2479.77 318.118 L2479.77 354.136 L2475.51 354.136 L2475.51 350.247 Q2474.17 352.562 2472.11 353.696 Q2470.07 354.808 2467.2 354.808 Q2462.5 354.808 2459.54 351.058 Q2456.6 347.308 2456.6 341.197 Q2456.6 335.085 2459.54 331.335 Q2462.5 327.586 2467.2 327.586 Q2470.07 327.586 2472.11 328.72 Q2474.17 329.831 2475.51 332.146 M2461 341.197 Q2461 345.896 2462.92 348.581 Q2464.86 351.243 2468.24 351.243 Q2471.62 351.243 2473.57 348.581 Q2475.51 345.896 2475.51 341.197 Q2475.51 336.497 2473.57 333.835 Q2471.62 331.15 2468.24 331.15 Q2464.86 331.15 2462.92 333.835 Q2461 336.497 2461 341.197 Z" fill="#000000" fill-rule="nonzero" fill-opacity="1" /><path clip-path="url(#clip440)" d="M2510.72 340.109 L2510.72 342.192 L2491.14 342.192 Q2491.41 346.59 2493.77 348.905 Q2496.16 351.196 2500.4 351.196 Q2502.85 351.196 2505.14 350.595 Q2507.46 349.993 2509.72 348.789 L2509.72 352.817 Q2507.43 353.789 2505.02 354.298 Q2502.62 354.808 2500.14 354.808 Q2493.94 354.808 2490.3 351.196 Q2486.69 347.585 2486.69 341.428 Q2486.69 335.062 2490.12 331.335 Q2493.57 327.586 2499.4 327.586 Q2504.63 327.586 2507.66 330.965 Q2510.72 334.322 2510.72 340.109 M2506.46 338.859 Q2506.41 335.363 2504.49 333.28 Q2502.59 331.197 2499.45 331.197 Q2495.88 331.197 2493.73 333.21 Q2491.6 335.224 2491.27 338.882 L2506.46 338.859 Z" fill="#000000" fill-rule="nonzero" fill-opacity="1" /><path clip-path="url(#clip440)" d="M2532.73 332.192 Q2532.02 331.775 2531.16 331.59 Q2530.33 331.382 2529.31 331.382 Q2525.7 331.382 2523.75 333.743 Q2521.83 336.081 2521.83 340.479 L2521.83 354.136 L2517.55 354.136 L2517.55 328.211 L2521.83 328.211 L2521.83 332.238 Q2523.17 329.877 2525.33 328.743 Q2527.48 327.586 2530.56 327.586 Q2531 327.586 2531.53 327.655 Q2532.06 327.701 2532.71 327.817 L2532.73 332.192 Z" fill="#000000" fill-rule="nonzero" fill-opacity="1" /></svg>
