<?xml version="1.0" encoding="utf-8"?>
<svg xmlns="http://www.w3.org/2000/svg" xmlns:xlink="http://www.w3.org/1999/xlink" width="672" height="480" viewBox="0 0 2688 1920">
<defs>
  <clipPath id="clip470">
    <rect x="0" y="0" width="2688" height="1920"/>
  </clipPath>
</defs>
<path clip-path="url(#clip470)" d="M0 1920 L2688 1920 L2688 -4.26326e-14 L0 -4.26326e-14  Z" fill="#ffffff" fill-rule="evenodd" fill-opacity="1"/>
<defs>
  <clipPath id="clip471">
    <rect x="211" y="127" width="2430" height="1607"/>
  </clipPath>
</defs>
<path clip-path="url(#clip470)" d="M211.395 1734.12 L2640.76 1734.12 L2640.76 127.792 L211.395 127.792  Z" fill="#ffffff" fill-rule="evenodd" fill-opacity="1"/>
<polyline clip-path="url(#clip471)" style="stroke:#000000; stroke-linecap:round; stroke-linejoin:round; stroke-width:2; stroke-opacity:0.1; fill:none" points="280.151,1734.12 280.151,127.792 "/>
<polyline clip-path="url(#clip471)" style="stroke:#000000; stroke-linecap:round; stroke-linejoin:round; stroke-width:2; stroke-opacity:0.1; fill:none" points="853.113,1734.12 853.113,127.792 "/>
<polyline clip-path="url(#clip471)" style="stroke:#000000; stroke-linecap:round; stroke-linejoin:round; stroke-width:2; stroke-opacity:0.1; fill:none" points="1426.08,1734.12 1426.08,127.792 "/>
<polyline clip-path="url(#clip471)" style="stroke:#000000; stroke-linecap:round; stroke-linejoin:round; stroke-width:2; stroke-opacity:0.1; fill:none" points="1999.04,1734.12 1999.04,127.792 "/>
<polyline clip-path="url(#clip471)" style="stroke:#000000; stroke-linecap:round; stroke-linejoin:round; stroke-width:2; stroke-opacity:0.1; fill:none" points="2572,1734.12 2572,127.792 "/>
<polyline clip-path="url(#clip471)" style="stroke:#000000; stroke-linecap:round; stroke-linejoin:round; stroke-width:2; stroke-opacity:0.1; fill:none" points="211.395,1689.67 2640.76,1689.67 "/>
<polyline clip-path="url(#clip471)" style="stroke:#000000; stroke-linecap:round; stroke-linejoin:round; stroke-width:2; stroke-opacity:0.1; fill:none" points="211.395,1381.73 2640.76,1381.73 "/>
<polyline clip-path="url(#clip471)" style="stroke:#000000; stroke-linecap:round; stroke-linejoin:round; stroke-width:2; stroke-opacity:0.1; fill:none" points="211.395,1073.8 2640.76,1073.8 "/>
<polyline clip-path="url(#clip471)" style="stroke:#000000; stroke-linecap:round; stroke-linejoin:round; stroke-width:2; stroke-opacity:0.1; fill:none" points="211.395,765.865 2640.76,765.865 "/>
<polyline clip-path="url(#clip471)" style="stroke:#000000; stroke-linecap:round; stroke-linejoin:round; stroke-width:2; stroke-opacity:0.1; fill:none" points="211.395,457.93 2640.76,457.93 "/>
<polyline clip-path="url(#clip471)" style="stroke:#000000; stroke-linecap:round; stroke-linejoin:round; stroke-width:2; stroke-opacity:0.1; fill:none" points="211.395,149.995 2640.76,149.995 "/>
<polyline clip-path="url(#clip470)" style="stroke:#000000; stroke-linecap:round; stroke-linejoin:round; stroke-width:4; stroke-opacity:1; fill:none" points="211.395,1734.12 2640.76,1734.12 "/>
<polyline clip-path="url(#clip470)" style="stroke:#000000; stroke-linecap:round; stroke-linejoin:round; stroke-width:4; stroke-opacity:1; fill:none" points="280.151,1734.12 280.151,1715.22 "/>
<polyline clip-path="url(#clip470)" style="stroke:#000000; stroke-linecap:round; stroke-linejoin:round; stroke-width:4; stroke-opacity:1; fill:none" points="853.113,1734.12 853.113,1715.22 "/>
<polyline clip-path="url(#clip470)" style="stroke:#000000; stroke-linecap:round; stroke-linejoin:round; stroke-width:4; stroke-opacity:1; fill:none" points="1426.08,1734.12 1426.08,1715.22 "/>
<polyline clip-path="url(#clip470)" style="stroke:#000000; stroke-linecap:round; stroke-linejoin:round; stroke-width:4; stroke-opacity:1; fill:none" points="1999.04,1734.12 1999.04,1715.22 "/>
<polyline clip-path="url(#clip470)" style="stroke:#000000; stroke-linecap:round; stroke-linejoin:round; stroke-width:4; stroke-opacity:1; fill:none" points="2572,1734.12 2572,1715.22 "/>
<path clip-path="url(#clip470)" d="M280.151 1767.34 Q276.54 1767.34 274.711 1770.9 Q272.905 1774.45 272.905 1781.58 Q272.905 1788.68 274.711 1792.25 Q276.54 1795.79 280.151 1795.79 Q283.785 1795.79 285.591 1792.25 Q287.419 1788.68 287.419 1781.58 Q287.419 1774.45 285.591 1770.9 Q283.785 1767.34 280.151 1767.34 M280.151 1763.64 Q285.961 1763.64 289.016 1768.24 Q292.095 1772.83 292.095 1781.58 Q292.095 1790.3 289.016 1794.91 Q285.961 1799.49 280.151 1799.49 Q274.341 1799.49 271.262 1794.91 Q268.206 1790.3 268.206 1781.58 Q268.206 1772.83 271.262 1768.24 Q274.341 1763.64 280.151 1763.64 Z" fill="#000000" fill-rule="nonzero" fill-opacity="1" /><path clip-path="url(#clip470)" d="M827.812 1764.26 L846.169 1764.26 L846.169 1768.2 L832.095 1768.2 L832.095 1776.67 Q833.113 1776.32 834.132 1776.16 Q835.15 1775.97 836.169 1775.97 Q841.956 1775.97 845.335 1779.15 Q848.715 1782.32 848.715 1787.73 Q848.715 1793.31 845.243 1796.41 Q841.771 1799.49 835.451 1799.49 Q833.275 1799.49 831.007 1799.12 Q828.761 1798.75 826.354 1798.01 L826.354 1793.31 Q828.437 1794.45 830.66 1795 Q832.882 1795.56 835.359 1795.56 Q839.363 1795.56 841.701 1793.45 Q844.039 1791.34 844.039 1787.73 Q844.039 1784.12 841.701 1782.02 Q839.363 1779.91 835.359 1779.91 Q833.484 1779.91 831.609 1780.33 Q829.757 1780.74 827.812 1781.62 L827.812 1764.26 Z" fill="#000000" fill-rule="nonzero" fill-opacity="1" /><path clip-path="url(#clip470)" d="M867.928 1767.34 Q864.317 1767.34 862.488 1770.9 Q860.683 1774.45 860.683 1781.58 Q860.683 1788.68 862.488 1792.25 Q864.317 1795.79 867.928 1795.79 Q871.562 1795.79 873.368 1792.25 Q875.196 1788.68 875.196 1781.58 Q875.196 1774.45 873.368 1770.9 Q871.562 1767.34 867.928 1767.34 M867.928 1763.64 Q873.738 1763.64 876.794 1768.24 Q879.872 1772.83 879.872 1781.58 Q879.872 1790.3 876.794 1794.91 Q873.738 1799.49 867.928 1799.49 Q862.118 1799.49 859.039 1794.91 Q855.984 1790.3 855.984 1781.58 Q855.984 1772.83 859.039 1768.24 Q862.118 1763.64 867.928 1763.64 Z" fill="#000000" fill-rule="nonzero" fill-opacity="1" /><path clip-path="url(#clip470)" d="M1385.68 1794.89 L1393.32 1794.89 L1393.32 1768.52 L1385.01 1770.19 L1385.01 1765.93 L1393.27 1764.26 L1397.95 1764.26 L1397.95 1794.89 L1405.59 1794.89 L1405.59 1798.82 L1385.68 1798.82 L1385.68 1794.89 Z" fill="#000000" fill-rule="nonzero" fill-opacity="1" /><path clip-path="url(#clip470)" d="M1425.03 1767.34 Q1421.42 1767.34 1419.59 1770.9 Q1417.79 1774.45 1417.79 1781.58 Q1417.79 1788.68 1419.59 1792.25 Q1421.42 1795.79 1425.03 1795.79 Q1428.67 1795.79 1430.47 1792.25 Q1432.3 1788.68 1432.3 1781.58 Q1432.3 1774.45 1430.47 1770.9 Q1428.67 1767.34 1425.03 1767.34 M1425.03 1763.64 Q1430.84 1763.64 1433.9 1768.24 Q1436.98 1772.83 1436.98 1781.58 Q1436.98 1790.3 1433.9 1794.91 Q1430.84 1799.49 1425.03 1799.49 Q1419.22 1799.49 1416.15 1794.91 Q1413.09 1790.3 1413.09 1781.58 Q1413.09 1772.83 1416.15 1768.24 Q1419.22 1763.64 1425.03 1763.64 Z" fill="#000000" fill-rule="nonzero" fill-opacity="1" /><path clip-path="url(#clip470)" d="M1455.2 1767.34 Q1451.58 1767.34 1449.76 1770.9 Q1447.95 1774.45 1447.95 1781.58 Q1447.95 1788.68 1449.76 1792.25 Q1451.58 1795.79 1455.2 1795.79 Q1458.83 1795.79 1460.64 1792.25 Q1462.46 1788.68 1462.46 1781.58 Q1462.46 1774.45 1460.64 1770.9 Q1458.83 1767.34 1455.2 1767.34 M1455.2 1763.64 Q1461.01 1763.64 1464.06 1768.24 Q1467.14 1772.83 1467.14 1781.58 Q1467.14 1790.3 1464.06 1794.91 Q1461.01 1799.49 1455.2 1799.49 Q1449.39 1799.49 1446.31 1794.91 Q1443.25 1790.3 1443.25 1781.58 Q1443.25 1772.83 1446.31 1768.24 Q1449.39 1763.64 1455.2 1763.64 Z" fill="#000000" fill-rule="nonzero" fill-opacity="1" /><path clip-path="url(#clip470)" d="M1958.64 1794.89 L1966.28 1794.89 L1966.28 1768.52 L1957.97 1770.19 L1957.97 1765.93 L1966.24 1764.26 L1970.91 1764.26 L1970.91 1794.89 L1978.55 1794.89 L1978.55 1798.82 L1958.64 1798.82 L1958.64 1794.89 Z" fill="#000000" fill-rule="nonzero" fill-opacity="1" /><path clip-path="url(#clip470)" d="M1988.04 1764.26 L2006.4 1764.26 L2006.4 1768.2 L1992.33 1768.2 L1992.33 1776.67 Q1993.34 1776.32 1994.36 1776.16 Q1995.38 1775.97 1996.4 1775.97 Q2002.19 1775.97 2005.57 1779.15 Q2008.95 1782.32 2008.95 1787.73 Q2008.95 1793.31 2005.47 1796.41 Q2002 1799.49 1995.68 1799.49 Q1993.51 1799.49 1991.24 1799.12 Q1988.99 1798.75 1986.58 1798.01 L1986.58 1793.31 Q1988.67 1794.45 1990.89 1795 Q1993.11 1795.56 1995.59 1795.56 Q1999.59 1795.56 2001.93 1793.45 Q2004.27 1791.34 2004.27 1787.73 Q2004.27 1784.12 2001.93 1782.02 Q1999.59 1779.91 1995.59 1779.91 Q1993.71 1779.91 1991.84 1780.33 Q1989.99 1780.74 1988.04 1781.62 L1988.04 1764.26 Z" fill="#000000" fill-rule="nonzero" fill-opacity="1" /><path clip-path="url(#clip470)" d="M2028.16 1767.34 Q2024.55 1767.34 2022.72 1770.9 Q2020.91 1774.45 2020.91 1781.58 Q2020.91 1788.68 2022.72 1792.25 Q2024.55 1795.79 2028.16 1795.79 Q2031.79 1795.79 2033.6 1792.25 Q2035.43 1788.68 2035.43 1781.58 Q2035.43 1774.45 2033.6 1770.9 Q2031.79 1767.34 2028.16 1767.34 M2028.16 1763.64 Q2033.97 1763.64 2037.02 1768.24 Q2040.1 1772.83 2040.1 1781.58 Q2040.1 1790.3 2037.02 1794.91 Q2033.97 1799.49 2028.16 1799.49 Q2022.35 1799.49 2019.27 1794.91 Q2016.21 1790.3 2016.21 1781.58 Q2016.21 1772.83 2019.27 1768.24 Q2022.35 1763.64 2028.16 1763.64 Z" fill="#000000" fill-rule="nonzero" fill-opacity="1" /><path clip-path="url(#clip470)" d="M2535.69 1794.89 L2552.01 1794.89 L2552.01 1798.82 L2530.07 1798.82 L2530.07 1794.89 Q2532.73 1792.13 2537.31 1787.5 Q2541.92 1782.85 2543.1 1781.51 Q2545.35 1778.98 2546.23 1777.25 Q2547.13 1775.49 2547.13 1773.8 Q2547.13 1771.04 2545.18 1769.31 Q2543.26 1767.57 2540.16 1767.57 Q2537.96 1767.57 2535.51 1768.34 Q2533.08 1769.1 2530.3 1770.65 L2530.3 1765.93 Q2533.12 1764.79 2535.58 1764.21 Q2538.03 1763.64 2540.07 1763.64 Q2545.44 1763.64 2548.63 1766.32 Q2551.83 1769.01 2551.83 1773.5 Q2551.83 1775.63 2551.02 1777.55 Q2550.23 1779.45 2548.12 1782.04 Q2547.54 1782.71 2544.44 1785.93 Q2541.34 1789.12 2535.69 1794.89 Z" fill="#000000" fill-rule="nonzero" fill-opacity="1" /><path clip-path="url(#clip470)" d="M2571.83 1767.34 Q2568.22 1767.34 2566.39 1770.9 Q2564.58 1774.45 2564.58 1781.58 Q2564.58 1788.68 2566.39 1792.25 Q2568.22 1795.79 2571.83 1795.79 Q2575.46 1795.79 2577.27 1792.25 Q2579.1 1788.68 2579.1 1781.58 Q2579.1 1774.45 2577.27 1770.9 Q2575.46 1767.34 2571.83 1767.34 M2571.83 1763.64 Q2577.64 1763.64 2580.69 1768.24 Q2583.77 1772.83 2583.77 1781.58 Q2583.77 1790.3 2580.69 1794.91 Q2577.64 1799.49 2571.83 1799.49 Q2566.02 1799.49 2562.94 1794.91 Q2559.88 1790.3 2559.88 1781.58 Q2559.88 1772.83 2562.94 1768.24 Q2566.02 1763.64 2571.83 1763.64 Z" fill="#000000" fill-rule="nonzero" fill-opacity="1" /><path clip-path="url(#clip470)" d="M2601.99 1767.34 Q2598.38 1767.34 2596.55 1770.9 Q2594.74 1774.45 2594.74 1781.58 Q2594.74 1788.68 2596.55 1792.25 Q2598.38 1795.79 2601.99 1795.79 Q2605.62 1795.79 2607.43 1792.25 Q2609.26 1788.68 2609.26 1781.58 Q2609.26 1774.45 2607.43 1770.9 Q2605.62 1767.34 2601.99 1767.34 M2601.99 1763.64 Q2607.8 1763.64 2610.85 1768.24 Q2613.93 1772.83 2613.93 1781.58 Q2613.93 1790.3 2610.85 1794.91 Q2607.8 1799.49 2601.99 1799.49 Q2596.18 1799.49 2593.1 1794.91 Q2590.04 1790.3 2590.04 1781.58 Q2590.04 1772.83 2593.1 1768.24 Q2596.18 1763.64 2601.99 1763.64 Z" fill="#000000" fill-rule="nonzero" fill-opacity="1" /><path clip-path="url(#clip470)" d="M1236.3 1835.78 L1276.5 1835.78 L1276.5 1841.19 L1259.63 1841.19 L1259.63 1883.3 L1253.17 1883.3 L1253.17 1841.19 L1236.3 1841.19 L1236.3 1835.78 Z" fill="#000000" fill-rule="nonzero" fill-opacity="1" /><path clip-path="url(#clip470)" d="M1280.44 1847.65 L1286.3 1847.65 L1286.3 1883.3 L1280.44 1883.3 L1280.44 1847.65 M1280.44 1833.78 L1286.3 1833.78 L1286.3 1841.19 L1280.44 1841.19 L1280.44 1833.78 Z" fill="#000000" fill-rule="nonzero" fill-opacity="1" /><path clip-path="url(#clip470)" d="M1326.31 1854.5 Q1328.51 1850.55 1331.56 1848.67 Q1334.62 1846.79 1338.75 1846.79 Q1344.32 1846.79 1347.35 1850.71 Q1350.37 1854.59 1350.37 1861.78 L1350.37 1883.3 L1344.48 1883.3 L1344.48 1861.98 Q1344.48 1856.85 1342.67 1854.37 Q1340.85 1851.89 1337.13 1851.89 Q1332.58 1851.89 1329.94 1854.91 Q1327.3 1857.93 1327.3 1863.15 L1327.3 1883.3 L1321.41 1883.3 L1321.41 1861.98 Q1321.41 1856.82 1319.59 1854.37 Q1317.78 1851.89 1313.99 1851.89 Q1309.5 1851.89 1306.86 1854.94 Q1304.22 1857.97 1304.22 1863.15 L1304.22 1883.3 L1298.33 1883.3 L1298.33 1847.65 L1304.22 1847.65 L1304.22 1853.19 Q1306.23 1849.91 1309.03 1848.35 Q1311.83 1846.79 1315.68 1846.79 Q1319.56 1846.79 1322.27 1848.77 Q1325 1850.74 1326.31 1854.5 Z" fill="#000000" fill-rule="nonzero" fill-opacity="1" /><path clip-path="url(#clip470)" d="M1392.54 1864.01 L1392.54 1866.88 L1365.62 1866.88 Q1366 1872.92 1369.25 1876.11 Q1372.52 1879.26 1378.35 1879.26 Q1381.72 1879.26 1384.87 1878.43 Q1388.06 1877.6 1391.18 1875.95 L1391.18 1881.49 Q1388.02 1882.82 1384.71 1883.52 Q1381.4 1884.22 1378 1884.22 Q1369.47 1884.22 1364.47 1879.26 Q1359.51 1874.29 1359.51 1865.83 Q1359.51 1857.07 1364.22 1851.95 Q1368.96 1846.79 1376.98 1846.79 Q1384.17 1846.79 1388.34 1851.44 Q1392.54 1856.06 1392.54 1864.01 M1386.69 1862.29 Q1386.62 1857.49 1383.98 1854.62 Q1381.37 1851.76 1377.04 1851.76 Q1372.14 1851.76 1369.18 1854.53 Q1366.25 1857.3 1365.81 1862.33 L1386.69 1862.29 Z" fill="#000000" fill-rule="nonzero" fill-opacity="1" /><path clip-path="url(#clip470)" d="M1436.95 1833.84 Q1432.68 1841.16 1430.61 1848.32 Q1428.54 1855.48 1428.54 1862.84 Q1428.54 1870.19 1430.61 1877.41 Q1432.71 1884.61 1436.95 1891.89 L1431.85 1891.89 Q1427.08 1884.41 1424.69 1877.19 Q1422.34 1869.96 1422.34 1862.84 Q1422.34 1855.74 1424.69 1848.54 Q1427.05 1841.35 1431.85 1833.84 L1436.95 1833.84 Z" fill="#000000" fill-rule="nonzero" fill-opacity="1" /><path clip-path="url(#clip470)" d="M1471.77 1853.06 L1471.77 1833.78 L1477.62 1833.78 L1477.62 1883.3 L1471.77 1883.3 L1471.77 1877.95 Q1469.92 1881.14 1467.09 1882.7 Q1464.29 1884.22 1460.34 1884.22 Q1453.88 1884.22 1449.8 1879.07 Q1445.76 1873.91 1445.76 1865.51 Q1445.76 1857.11 1449.8 1851.95 Q1453.88 1846.79 1460.34 1846.79 Q1464.29 1846.79 1467.09 1848.35 Q1469.92 1849.88 1471.77 1853.06 M1451.81 1865.51 Q1451.81 1871.97 1454.45 1875.66 Q1457.12 1879.32 1461.77 1879.32 Q1466.42 1879.32 1469.09 1875.66 Q1471.77 1871.97 1471.77 1865.51 Q1471.77 1859.05 1469.09 1855.39 Q1466.42 1851.7 1461.77 1851.7 Q1457.12 1851.7 1454.45 1855.39 Q1451.81 1859.05 1451.81 1865.51 Z" fill="#000000" fill-rule="nonzero" fill-opacity="1" /><path clip-path="url(#clip470)" d="M1505.89 1865.38 Q1498.79 1865.38 1496.05 1867 Q1493.31 1868.63 1493.31 1872.54 Q1493.31 1875.66 1495.35 1877.51 Q1497.42 1879.32 1500.95 1879.32 Q1505.82 1879.32 1508.75 1875.88 Q1511.71 1872.42 1511.71 1866.69 L1511.71 1865.38 L1505.89 1865.38 M1517.57 1862.96 L1517.57 1883.3 L1511.71 1883.3 L1511.71 1877.89 Q1509.71 1881.14 1506.71 1882.7 Q1503.72 1884.22 1499.39 1884.22 Q1493.92 1884.22 1490.67 1881.17 Q1487.46 1878.08 1487.46 1872.92 Q1487.46 1866.91 1491.47 1863.85 Q1495.51 1860.8 1503.5 1860.8 L1511.71 1860.8 L1511.71 1860.23 Q1511.71 1856.18 1509.04 1853.99 Q1506.39 1851.76 1501.59 1851.76 Q1498.53 1851.76 1495.64 1852.49 Q1492.74 1853.22 1490.07 1854.69 L1490.07 1849.28 Q1493.28 1848.03 1496.31 1847.43 Q1499.33 1846.79 1502.19 1846.79 Q1509.93 1846.79 1513.75 1850.8 Q1517.57 1854.81 1517.57 1862.96 Z" fill="#000000" fill-rule="nonzero" fill-opacity="1" /><path clip-path="url(#clip470)" d="M1544.46 1886.61 Q1541.98 1892.98 1539.62 1894.92 Q1537.27 1896.86 1533.32 1896.86 L1528.64 1896.86 L1528.64 1891.96 L1532.08 1891.96 Q1534.5 1891.96 1535.84 1890.81 Q1537.17 1889.67 1538.8 1885.4 L1539.85 1882.73 L1525.43 1847.65 L1531.63 1847.65 L1542.77 1875.53 L1553.91 1847.65 L1560.12 1847.65 L1544.46 1886.61 Z" fill="#000000" fill-rule="nonzero" fill-opacity="1" /><path clip-path="url(#clip470)" d="M1590.93 1848.7 L1590.93 1854.24 Q1588.45 1852.97 1585.78 1852.33 Q1583.1 1851.7 1580.24 1851.7 Q1575.88 1851.7 1573.68 1853.03 Q1571.52 1854.37 1571.52 1857.04 Q1571.52 1859.08 1573.08 1860.26 Q1574.64 1861.4 1579.35 1862.45 L1581.35 1862.9 Q1587.59 1864.24 1590.2 1866.69 Q1592.84 1869.11 1592.84 1873.47 Q1592.84 1878.43 1588.89 1881.33 Q1584.98 1884.22 1578.1 1884.22 Q1575.24 1884.22 1572.12 1883.65 Q1569.03 1883.11 1565.6 1882 L1565.6 1875.95 Q1568.84 1877.64 1571.99 1878.49 Q1575.14 1879.32 1578.23 1879.32 Q1582.37 1879.32 1584.6 1877.92 Q1586.83 1876.49 1586.83 1873.91 Q1586.83 1871.52 1585.2 1870.25 Q1583.61 1868.98 1578.17 1867.8 L1576.13 1867.32 Q1570.69 1866.18 1568.27 1863.82 Q1565.85 1861.43 1565.85 1857.3 Q1565.85 1852.27 1569.42 1849.53 Q1572.98 1846.79 1579.54 1846.79 Q1582.78 1846.79 1585.65 1847.27 Q1588.51 1847.75 1590.93 1848.7 Z" fill="#000000" fill-rule="nonzero" fill-opacity="1" /><path clip-path="url(#clip470)" d="M1601.24 1833.84 L1606.34 1833.84 Q1611.11 1841.35 1613.47 1848.54 Q1615.85 1855.74 1615.85 1862.84 Q1615.85 1869.96 1613.47 1877.19 Q1611.11 1884.41 1606.34 1891.89 L1601.24 1891.89 Q1605.48 1884.61 1607.55 1877.41 Q1609.65 1870.19 1609.65 1862.84 Q1609.65 1855.48 1607.55 1848.32 Q1605.48 1841.16 1601.24 1833.84 Z" fill="#000000" fill-rule="nonzero" fill-opacity="1" /><polyline clip-path="url(#clip470)" style="stroke:#000000; stroke-linecap:round; stroke-linejoin:round; stroke-width:4; stroke-opacity:1; fill:none" points="211.395,1734.12 211.395,127.792 "/>
<polyline clip-path="url(#clip470)" style="stroke:#000000; stroke-linecap:round; stroke-linejoin:round; stroke-width:4; stroke-opacity:1; fill:none" points="211.395,1689.67 230.293,1689.67 "/>
<polyline clip-path="url(#clip470)" style="stroke:#000000; stroke-linecap:round; stroke-linejoin:round; stroke-width:4; stroke-opacity:1; fill:none" points="211.395,1381.73 230.293,1381.73 "/>
<polyline clip-path="url(#clip470)" style="stroke:#000000; stroke-linecap:round; stroke-linejoin:round; stroke-width:4; stroke-opacity:1; fill:none" points="211.395,1073.8 230.293,1073.8 "/>
<polyline clip-path="url(#clip470)" style="stroke:#000000; stroke-linecap:round; stroke-linejoin:round; stroke-width:4; stroke-opacity:1; fill:none" points="211.395,765.865 230.293,765.865 "/>
<polyline clip-path="url(#clip470)" style="stroke:#000000; stroke-linecap:round; stroke-linejoin:round; stroke-width:4; stroke-opacity:1; fill:none" points="211.395,457.93 230.293,457.93 "/>
<polyline clip-path="url(#clip470)" style="stroke:#000000; stroke-linecap:round; stroke-linejoin:round; stroke-width:4; stroke-opacity:1; fill:none" points="211.395,149.995 230.293,149.995 "/>
<path clip-path="url(#clip470)" d="M159.131 1675.47 Q155.52 1675.47 153.691 1679.03 Q151.886 1682.57 151.886 1689.7 Q151.886 1696.81 153.691 1700.38 Q155.52 1703.92 159.131 1703.92 Q162.765 1703.92 164.571 1700.38 Q166.399 1696.81 166.399 1689.7 Q166.399 1682.57 164.571 1679.03 Q162.765 1675.47 159.131 1675.47 M159.131 1671.76 Q164.941 1671.76 167.997 1676.37 Q171.075 1680.95 171.075 1689.7 Q171.075 1698.43 167.997 1703.04 Q164.941 1707.62 159.131 1707.62 Q153.321 1707.62 150.242 1703.04 Q147.186 1698.43 147.186 1689.7 Q147.186 1680.95 150.242 1676.37 Q153.321 1671.76 159.131 1671.76 Z" fill="#000000" fill-rule="nonzero" fill-opacity="1" /><path clip-path="url(#clip470)" d="M119.779 1395.08 L127.418 1395.08 L127.418 1368.71 L119.108 1370.38 L119.108 1366.12 L127.372 1364.45 L132.048 1364.45 L132.048 1395.08 L139.687 1395.08 L139.687 1399.01 L119.779 1399.01 L119.779 1395.08 Z" fill="#000000" fill-rule="nonzero" fill-opacity="1" /><path clip-path="url(#clip470)" d="M159.131 1367.53 Q155.52 1367.53 153.691 1371.1 Q151.886 1374.64 151.886 1381.77 Q151.886 1388.88 153.691 1392.44 Q155.52 1395.98 159.131 1395.98 Q162.765 1395.98 164.571 1392.44 Q166.399 1388.88 166.399 1381.77 Q166.399 1374.64 164.571 1371.1 Q162.765 1367.53 159.131 1367.53 M159.131 1363.83 Q164.941 1363.83 167.997 1368.44 Q171.075 1373.02 171.075 1381.77 Q171.075 1390.5 167.997 1395.1 Q164.941 1399.69 159.131 1399.69 Q153.321 1399.69 150.242 1395.1 Q147.186 1390.5 147.186 1381.77 Q147.186 1373.02 150.242 1368.44 Q153.321 1363.83 159.131 1363.83 Z" fill="#000000" fill-rule="nonzero" fill-opacity="1" /><path clip-path="url(#clip470)" d="M122.997 1087.14 L139.316 1087.14 L139.316 1091.08 L117.372 1091.08 L117.372 1087.14 Q120.034 1084.39 124.617 1079.76 Q129.224 1075.11 130.404 1073.76 Q132.65 1071.24 133.529 1069.51 Q134.432 1067.75 134.432 1066.06 Q134.432 1063.3 132.488 1061.57 Q130.566 1059.83 127.464 1059.83 Q125.265 1059.83 122.812 1060.59 Q120.381 1061.36 117.603 1062.91 L117.603 1058.19 Q120.427 1057.05 122.881 1056.47 Q125.335 1055.89 127.372 1055.89 Q132.742 1055.89 135.937 1058.58 Q139.131 1061.26 139.131 1065.76 Q139.131 1067.89 138.321 1069.81 Q137.534 1071.7 135.427 1074.3 Q134.849 1074.97 131.747 1078.19 Q128.645 1081.38 122.997 1087.14 Z" fill="#000000" fill-rule="nonzero" fill-opacity="1" /><path clip-path="url(#clip470)" d="M159.131 1059.6 Q155.52 1059.6 153.691 1063.16 Q151.886 1066.7 151.886 1073.83 Q151.886 1080.94 153.691 1084.51 Q155.52 1088.05 159.131 1088.05 Q162.765 1088.05 164.571 1084.51 Q166.399 1080.94 166.399 1073.83 Q166.399 1066.7 164.571 1063.16 Q162.765 1059.6 159.131 1059.6 M159.131 1055.89 Q164.941 1055.89 167.997 1060.5 Q171.075 1065.08 171.075 1073.83 Q171.075 1082.56 167.997 1087.17 Q164.941 1091.75 159.131 1091.75 Q153.321 1091.75 150.242 1087.17 Q147.186 1082.56 147.186 1073.83 Q147.186 1065.08 150.242 1060.5 Q153.321 1055.89 159.131 1055.89 Z" fill="#000000" fill-rule="nonzero" fill-opacity="1" /><path clip-path="url(#clip470)" d="M133.136 764.511 Q136.492 765.228 138.367 767.497 Q140.265 769.765 140.265 773.099 Q140.265 778.214 136.747 781.015 Q133.228 783.816 126.747 783.816 Q124.571 783.816 122.256 783.376 Q119.964 782.96 117.511 782.103 L117.511 777.589 Q119.455 778.724 121.77 779.302 Q124.085 779.881 126.608 779.881 Q131.006 779.881 133.298 778.145 Q135.612 776.409 135.612 773.099 Q135.612 770.043 133.46 768.33 Q131.33 766.594 127.511 766.594 L123.483 766.594 L123.483 762.751 L127.696 762.751 Q131.145 762.751 132.974 761.386 Q134.802 759.997 134.802 757.404 Q134.802 754.742 132.904 753.33 Q131.029 751.895 127.511 751.895 Q125.589 751.895 123.39 752.312 Q121.191 752.728 118.552 753.608 L118.552 749.441 Q121.214 748.701 123.529 748.33 Q125.867 747.96 127.927 747.96 Q133.251 747.96 136.353 750.39 Q139.455 752.798 139.455 756.918 Q139.455 759.788 137.812 761.779 Q136.168 763.747 133.136 764.511 Z" fill="#000000" fill-rule="nonzero" fill-opacity="1" /><path clip-path="url(#clip470)" d="M159.131 751.664 Q155.52 751.664 153.691 755.228 Q151.886 758.77 151.886 765.9 Q151.886 773.006 153.691 776.571 Q155.52 780.112 159.131 780.112 Q162.765 780.112 164.571 776.571 Q166.399 773.006 166.399 765.9 Q166.399 758.77 164.571 755.228 Q162.765 751.664 159.131 751.664 M159.131 747.96 Q164.941 747.96 167.997 752.566 Q171.075 757.15 171.075 765.9 Q171.075 774.626 167.997 779.233 Q164.941 783.816 159.131 783.816 Q153.321 783.816 150.242 779.233 Q147.186 774.626 147.186 765.9 Q147.186 757.15 150.242 752.566 Q153.321 747.96 159.131 747.96 Z" fill="#000000" fill-rule="nonzero" fill-opacity="1" /><path clip-path="url(#clip470)" d="M131.816 444.724 L120.011 463.173 L131.816 463.173 L131.816 444.724 M130.589 440.65 L136.469 440.65 L136.469 463.173 L141.399 463.173 L141.399 467.062 L136.469 467.062 L136.469 475.21 L131.816 475.21 L131.816 467.062 L116.214 467.062 L116.214 462.548 L130.589 440.65 Z" fill="#000000" fill-rule="nonzero" fill-opacity="1" /><path clip-path="url(#clip470)" d="M159.131 443.729 Q155.52 443.729 153.691 447.294 Q151.886 450.835 151.886 457.965 Q151.886 465.071 153.691 468.636 Q155.52 472.178 159.131 472.178 Q162.765 472.178 164.571 468.636 Q166.399 465.071 166.399 457.965 Q166.399 450.835 164.571 447.294 Q162.765 443.729 159.131 443.729 M159.131 440.025 Q164.941 440.025 167.997 444.632 Q171.075 449.215 171.075 457.965 Q171.075 466.692 167.997 471.298 Q164.941 475.881 159.131 475.881 Q153.321 475.881 150.242 471.298 Q147.186 466.692 147.186 457.965 Q147.186 449.215 150.242 444.632 Q153.321 440.025 159.131 440.025 Z" fill="#000000" fill-rule="nonzero" fill-opacity="1" /><path clip-path="url(#clip470)" d="M119.015 132.715 L137.372 132.715 L137.372 136.651 L123.298 136.651 L123.298 145.123 Q124.316 144.775 125.335 144.613 Q126.353 144.428 127.372 144.428 Q133.159 144.428 136.538 147.6 Q139.918 150.771 139.918 156.187 Q139.918 161.766 136.446 164.868 Q132.974 167.947 126.654 167.947 Q124.478 167.947 122.21 167.576 Q119.964 167.206 117.557 166.465 L117.557 161.766 Q119.64 162.9 121.863 163.456 Q124.085 164.011 126.562 164.011 Q130.566 164.011 132.904 161.905 Q135.242 159.799 135.242 156.187 Q135.242 152.576 132.904 150.47 Q130.566 148.363 126.562 148.363 Q124.687 148.363 122.812 148.78 Q120.96 149.197 119.015 150.076 L119.015 132.715 Z" fill="#000000" fill-rule="nonzero" fill-opacity="1" /><path clip-path="url(#clip470)" d="M159.131 135.794 Q155.52 135.794 153.691 139.359 Q151.886 142.9 151.886 150.03 Q151.886 157.137 153.691 160.701 Q155.52 164.243 159.131 164.243 Q162.765 164.243 164.571 160.701 Q166.399 157.137 166.399 150.03 Q166.399 142.9 164.571 139.359 Q162.765 135.794 159.131 135.794 M159.131 132.09 Q164.941 132.09 167.997 136.697 Q171.075 141.28 171.075 150.03 Q171.075 158.757 167.997 163.363 Q164.941 167.947 159.131 167.947 Q153.321 167.947 150.242 163.363 Q147.186 158.757 147.186 150.03 Q147.186 141.28 150.242 136.697 Q153.321 132.09 159.131 132.09 Z" fill="#000000" fill-rule="nonzero" fill-opacity="1" /><path clip-path="url(#clip470)" d="M14.1184 1058.03 L14.1184 1051.6 L61.6384 1051.6 L61.6384 1058.03 L14.1184 1058.03 Z" fill="#000000" fill-rule="nonzero" fill-opacity="1" /><path clip-path="url(#clip470)" d="M40.1224 1009.43 L61.6384 1009.43 L61.6384 1015.28 L40.3133 1015.28 Q35.2526 1015.28 32.7381 1017.26 Q30.2237 1019.23 30.2237 1023.18 Q30.2237 1027.92 33.2474 1030.66 Q36.2711 1033.39 41.491 1033.39 L61.6384 1033.39 L61.6384 1039.28 L25.9905 1039.28 L25.9905 1033.39 L31.5287 1033.39 Q28.314 1031.29 26.7225 1028.46 Q25.1311 1025.6 25.1311 1021.87 Q25.1311 1015.73 28.9505 1012.58 Q32.7381 1009.43 40.1224 1009.43 Z" fill="#000000" fill-rule="nonzero" fill-opacity="1" /><path clip-path="url(#clip470)" d="M12.1132 979.7 L16.983 979.7 L16.983 985.302 Q16.983 988.453 18.2562 989.694 Q19.5293 990.904 22.8395 990.904 L25.9905 990.904 L25.9905 981.26 L30.542 981.26 L30.542 990.904 L61.6384 990.904 L61.6384 996.792 L30.542 996.792 L30.542 1002.39 L25.9905 1002.39 L25.9905 996.792 L23.5079 996.792 Q17.5559 996.792 14.8505 994.023 Q12.1132 991.254 12.1132 985.238 L12.1132 979.7 Z" fill="#000000" fill-rule="nonzero" fill-opacity="1" /><path clip-path="url(#clip470)" d="M42.3504 944.307 L45.2149 944.307 L45.2149 971.234 Q51.2623 970.852 54.4452 967.605 Q57.5962 964.327 57.5962 958.502 Q57.5962 955.128 56.7687 951.977 Q55.9411 948.794 54.2861 945.675 L59.8242 945.675 Q61.161 948.826 61.8612 952.136 Q62.5615 955.447 62.5615 958.852 Q62.5615 967.382 57.5962 972.379 Q52.631 977.345 44.1646 977.345 Q35.4117 977.345 30.2873 972.634 Q25.1311 967.892 25.1311 959.871 Q25.1311 952.678 29.7781 948.508 Q34.3932 944.307 42.3504 944.307 M40.6316 950.163 Q35.8255 950.227 32.9609 952.869 Q30.0964 955.478 30.0964 959.807 Q30.0964 964.709 32.8654 967.669 Q35.6345 970.597 40.6634 971.043 L40.6316 950.163 Z" fill="#000000" fill-rule="nonzero" fill-opacity="1" /><path clip-path="url(#clip470)" d="M27.3591 909.041 L32.8336 909.041 Q31.465 911.523 30.7966 914.038 Q30.0964 916.52 30.0964 919.067 Q30.0964 924.764 33.7248 927.915 Q37.3214 931.066 43.8463 931.066 Q50.3711 931.066 53.9996 927.915 Q57.5962 924.764 57.5962 919.067 Q57.5962 916.52 56.9278 914.038 Q56.2276 911.523 54.859 909.041 L60.2698 909.041 Q61.4156 911.491 61.9886 914.133 Q62.5615 916.743 62.5615 919.703 Q62.5615 927.756 57.5007 932.498 Q52.44 937.241 43.8463 937.241 Q35.1253 937.241 30.1282 932.466 Q25.1311 927.66 25.1311 919.321 Q25.1311 916.616 25.704 914.038 Q26.2451 911.46 27.3591 909.041 Z" fill="#000000" fill-rule="nonzero" fill-opacity="1" /><path clip-path="url(#clip470)" d="M15.869 893.063 L25.9905 893.063 L25.9905 881 L30.542 881 L30.542 893.063 L49.8937 893.063 Q54.2542 893.063 55.4955 891.885 Q56.7368 890.676 56.7368 887.015 L56.7368 881 L61.6384 881 L61.6384 887.015 Q61.6384 893.795 59.124 896.373 Q56.5777 898.951 49.8937 898.951 L30.542 898.951 L30.542 903.248 L25.9905 903.248 L25.9905 898.951 L15.869 898.951 L15.869 893.063 Z" fill="#000000" fill-rule="nonzero" fill-opacity="1" /><path clip-path="url(#clip470)" d="M42.3504 842.805 L45.2149 842.805 L45.2149 869.732 Q51.2623 869.35 54.4452 866.104 Q57.5962 862.826 57.5962 857.001 Q57.5962 853.627 56.7687 850.476 Q55.9411 847.293 54.2861 844.174 L59.8242 844.174 Q61.161 847.325 61.8612 850.635 Q62.5615 853.945 62.5615 857.351 Q62.5615 865.881 57.5962 870.878 Q52.631 875.843 44.1646 875.843 Q35.4117 875.843 30.2873 871.133 Q25.1311 866.39 25.1311 858.37 Q25.1311 851.176 29.7781 847.007 Q34.3932 842.805 42.3504 842.805 M40.6316 848.662 Q35.8255 848.726 32.9609 851.367 Q30.0964 853.977 30.0964 858.306 Q30.0964 863.208 32.8654 866.168 Q35.6345 869.096 40.6634 869.541 L40.6316 848.662 Z" fill="#000000" fill-rule="nonzero" fill-opacity="1" /><path clip-path="url(#clip470)" d="M31.4013 809.736 L12.1132 809.736 L12.1132 803.879 L61.6384 803.879 L61.6384 809.736 L56.2912 809.736 Q59.4741 811.582 61.0337 814.414 Q62.5615 817.215 62.5615 821.162 Q62.5615 827.623 57.4052 831.697 Q52.249 835.739 43.8463 835.739 Q35.4436 835.739 30.2873 831.697 Q25.1311 827.623 25.1311 821.162 Q25.1311 817.215 26.6907 814.414 Q28.2185 811.582 31.4013 809.736 M43.8463 829.692 Q50.3075 829.692 53.9996 827.05 Q57.6599 824.377 57.6599 819.73 Q57.6599 815.083 53.9996 812.409 Q50.3075 809.736 43.8463 809.736 Q37.3851 809.736 33.7248 812.409 Q30.0327 815.083 30.0327 819.73 Q30.0327 824.377 33.7248 827.05 Q37.3851 829.692 43.8463 829.692 Z" fill="#000000" fill-rule="nonzero" fill-opacity="1" /><path clip-path="url(#clip470)" d="M718.403 44.2197 Q721.036 45.1109 723.507 48.0275 Q726.019 50.9442 728.53 56.0483 L736.834 72.576 L728.044 72.576 L720.307 57.061 Q717.309 50.9847 714.473 48.9997 Q711.678 47.0148 706.817 47.0148 L697.905 47.0148 L697.905 72.576 L689.722 72.576 L689.722 12.096 L708.195 12.096 Q718.565 12.096 723.669 16.4305 Q728.773 20.7649 728.773 29.5149 Q728.773 35.2267 726.1 38.994 Q723.467 42.7613 718.403 44.2197 M697.905 18.8205 L697.905 40.2903 L708.195 40.2903 Q714.109 40.2903 717.107 37.5762 Q720.145 34.8216 720.145 29.5149 Q720.145 24.2082 717.107 21.5346 Q714.109 18.8205 708.195 18.8205 L697.905 18.8205 Z" fill="#000000" fill-rule="nonzero" fill-opacity="1" /><path clip-path="url(#clip470)" d="M782.124 48.0275 L782.124 51.6733 L747.853 51.6733 Q748.339 59.3701 752.471 63.421 Q756.643 67.4314 764.057 67.4314 Q768.351 67.4314 772.361 66.3781 Q776.412 65.3249 780.382 63.2184 L780.382 70.267 Q776.371 71.9684 772.158 72.8596 Q767.945 73.7508 763.611 73.7508 Q752.755 73.7508 746.395 67.4314 Q740.075 61.1119 740.075 50.3365 Q740.075 39.1965 746.071 32.6746 Q752.106 26.1121 762.315 26.1121 Q771.47 26.1121 776.776 32.0264 Q782.124 37.9003 782.124 48.0275 M774.67 45.84 Q774.589 39.7232 771.227 36.0774 Q767.905 32.4315 762.396 32.4315 Q756.157 32.4315 752.39 35.9558 Q748.663 39.4801 748.096 45.8805 L774.67 45.84 Z" fill="#000000" fill-rule="nonzero" fill-opacity="1" /><path clip-path="url(#clip470)" d="M814.976 49.7694 Q805.943 49.7694 802.459 51.8354 Q798.975 53.9013 798.975 58.8839 Q798.975 62.8538 801.568 65.2034 Q804.201 67.5124 808.698 67.5124 Q814.895 67.5124 818.622 63.1374 Q822.39 58.7219 822.39 51.4303 L822.39 49.7694 L814.976 49.7694 M829.843 46.6907 L829.843 72.576 L822.39 72.576 L822.39 65.6895 Q819.838 69.8214 816.03 71.8063 Q812.222 73.7508 806.713 73.7508 Q799.745 73.7508 795.613 69.8619 Q791.522 65.9325 791.522 59.3701 Q791.522 51.7138 796.626 47.825 Q801.77 43.9361 811.938 43.9361 L822.39 43.9361 L822.39 43.2069 Q822.39 38.0623 818.987 35.2672 Q815.625 32.4315 809.508 32.4315 Q805.619 32.4315 801.933 33.3632 Q798.246 34.295 794.843 36.1584 L794.843 29.2718 Q798.935 27.692 802.783 26.9223 Q806.632 26.1121 810.277 26.1121 Q820.121 26.1121 824.982 31.2163 Q829.843 36.3204 829.843 46.6907 Z" fill="#000000" fill-rule="nonzero" fill-opacity="1" /><path clip-path="url(#clip470)" d="M845.196 9.54393 L852.65 9.54393 L852.65 72.576 L845.196 72.576 L845.196 9.54393 Z" fill="#000000" fill-rule="nonzero" fill-opacity="1" /><path clip-path="url(#clip470)" d="M868.246 27.2059 L875.699 27.2059 L875.699 72.576 L868.246 72.576 L868.246 27.2059 M868.246 9.54393 L875.699 9.54393 L875.699 18.9825 L868.246 18.9825 L868.246 9.54393 Z" fill="#000000" fill-rule="nonzero" fill-opacity="1" /><path clip-path="url(#clip470)" d="M920.219 28.5427 L920.219 35.5912 Q917.059 33.9709 913.656 33.1607 Q910.254 32.3505 906.608 32.3505 Q901.058 32.3505 898.263 34.0519 Q895.508 35.7533 895.508 39.156 Q895.508 41.7486 897.493 43.2475 Q899.478 44.7058 905.474 46.0426 L908.026 46.6097 Q915.965 48.3111 919.287 51.4303 Q922.649 54.509 922.649 60.0587 Q922.649 66.3781 917.626 70.0644 Q912.644 73.7508 903.894 73.7508 Q900.248 73.7508 896.278 73.0216 Q892.349 72.3329 887.974 70.9151 L887.974 63.2184 Q892.106 65.3654 896.116 66.4591 Q900.126 67.5124 904.056 67.5124 Q909.322 67.5124 912.158 65.73 Q914.993 63.9071 914.993 60.6258 Q914.993 57.5877 912.927 55.9673 Q910.902 54.3469 903.975 52.8481 L901.382 52.2405 Q894.455 50.7821 891.376 47.7845 Q888.298 44.7463 888.298 39.4801 Q888.298 33.0797 892.835 29.5959 Q897.372 26.1121 905.717 26.1121 Q909.849 26.1121 913.494 26.7198 Q917.14 27.3274 920.219 28.5427 Z" fill="#000000" fill-rule="nonzero" fill-opacity="1" /><path clip-path="url(#clip470)" d="M941.891 14.324 L941.891 27.2059 L957.244 27.2059 L957.244 32.9987 L941.891 32.9987 L941.891 57.6282 Q941.891 63.1779 943.39 64.7578 Q944.929 66.3376 949.588 66.3376 L957.244 66.3376 L957.244 72.576 L949.588 72.576 Q940.96 72.576 937.678 69.3758 Q934.397 66.1351 934.397 57.6282 L934.397 32.9987 L928.928 32.9987 L928.928 27.2059 L934.397 27.2059 L934.397 14.324 L941.891 14.324 Z" fill="#000000" fill-rule="nonzero" fill-opacity="1" /><path clip-path="url(#clip470)" d="M967.047 27.2059 L974.501 27.2059 L974.501 72.576 L967.047 72.576 L967.047 27.2059 M967.047 9.54393 L974.501 9.54393 L974.501 18.9825 L967.047 18.9825 L967.047 9.54393 Z" fill="#000000" fill-rule="nonzero" fill-opacity="1" /><path clip-path="url(#clip470)" d="M1022.75 28.9478 L1022.75 35.9153 Q1019.59 34.1734 1016.39 33.3227 Q1013.23 32.4315 1009.99 32.4315 Q1002.74 32.4315 998.725 37.0496 Q994.715 41.6271 994.715 49.9314 Q994.715 58.2358 998.725 62.8538 Q1002.74 67.4314 1009.99 67.4314 Q1013.23 67.4314 1016.39 66.5807 Q1019.59 65.6895 1022.75 63.9476 L1022.75 70.8341 Q1019.63 72.2924 1016.27 73.0216 Q1012.94 73.7508 1009.18 73.7508 Q998.928 73.7508 992.892 67.3098 Q986.856 60.8689 986.856 49.9314 Q986.856 38.832 992.933 32.472 Q999.05 26.1121 1009.66 26.1121 Q1013.11 26.1121 1016.39 26.8413 Q1019.67 27.5299 1022.75 28.9478 Z" fill="#000000" fill-rule="nonzero" fill-opacity="1" /><path clip-path="url(#clip470)" d="M1107.69 16.7545 L1107.69 25.383 Q1103.56 21.5346 1098.86 19.6307 Q1094.21 17.7268 1088.94 17.7268 Q1078.57 17.7268 1073.06 24.0867 Q1067.55 30.4061 1067.55 42.3968 Q1067.55 54.3469 1073.06 60.7069 Q1078.57 67.0263 1088.94 67.0263 Q1094.21 67.0263 1098.86 65.1223 Q1103.56 63.2184 1107.69 59.3701 L1107.69 67.9175 Q1103.4 70.8341 1098.58 72.2924 Q1093.8 73.7508 1088.45 73.7508 Q1074.72 73.7508 1066.82 65.3654 Q1058.92 56.9395 1058.92 42.3968 Q1058.92 27.8135 1066.82 19.4281 Q1074.72 11.0023 1088.45 11.0023 Q1093.88 11.0023 1098.66 12.4606 Q1103.48 13.8784 1107.69 16.7545 Z" fill="#000000" fill-rule="nonzero" fill-opacity="1" /><path clip-path="url(#clip470)" d="M1137.59 32.4315 Q1131.6 32.4315 1128.11 37.1306 Q1124.63 41.7891 1124.63 49.9314 Q1124.63 58.0738 1128.07 62.7728 Q1131.55 67.4314 1137.59 67.4314 Q1143.55 67.4314 1147.03 62.7323 Q1150.51 58.0333 1150.51 49.9314 Q1150.51 41.8701 1147.03 37.1711 Q1143.55 32.4315 1137.59 32.4315 M1137.59 26.1121 Q1147.31 26.1121 1152.86 32.4315 Q1158.41 38.7509 1158.41 49.9314 Q1158.41 61.0714 1152.86 67.4314 Q1147.31 73.7508 1137.59 73.7508 Q1127.83 73.7508 1122.28 67.4314 Q1116.77 61.0714 1116.77 49.9314 Q1116.77 38.7509 1122.28 32.4315 Q1127.83 26.1121 1137.59 26.1121 Z" fill="#000000" fill-rule="nonzero" fill-opacity="1" /><path clip-path="url(#clip470)" d="M1208.48 45.1919 L1208.48 72.576 L1201.03 72.576 L1201.03 45.4349 Q1201.03 38.994 1198.52 35.7938 Q1196 32.5936 1190.98 32.5936 Q1184.95 32.5936 1181.46 36.4419 Q1177.98 40.2903 1177.98 46.9338 L1177.98 72.576 L1170.48 72.576 L1170.48 27.2059 L1177.98 27.2059 L1177.98 34.2544 Q1180.65 30.163 1184.26 28.1376 Q1187.9 26.1121 1192.64 26.1121 Q1200.46 26.1121 1204.47 30.9732 Q1208.48 35.7938 1208.48 45.1919 Z" fill="#000000" fill-rule="nonzero" fill-opacity="1" /><path clip-path="url(#clip470)" d="M1230.72 14.324 L1230.72 27.2059 L1246.07 27.2059 L1246.07 32.9987 L1230.72 32.9987 L1230.72 57.6282 Q1230.72 63.1779 1232.22 64.7578 Q1233.76 66.3376 1238.42 66.3376 L1246.07 66.3376 L1246.07 72.576 L1238.42 72.576 Q1229.79 72.576 1226.51 69.3758 Q1223.23 66.1351 1223.23 57.6282 L1223.23 32.9987 L1217.76 32.9987 L1217.76 27.2059 L1223.23 27.2059 L1223.23 14.324 L1230.72 14.324 Z" fill="#000000" fill-rule="nonzero" fill-opacity="1" /><path clip-path="url(#clip470)" d="M1276.5 49.7694 Q1267.46 49.7694 1263.98 51.8354 Q1260.49 53.9013 1260.49 58.8839 Q1260.49 62.8538 1263.09 65.2034 Q1265.72 67.5124 1270.22 67.5124 Q1276.41 67.5124 1280.14 63.1374 Q1283.91 58.7219 1283.91 51.4303 L1283.91 49.7694 L1276.5 49.7694 M1291.36 46.6907 L1291.36 72.576 L1283.91 72.576 L1283.91 65.6895 Q1281.36 69.8214 1277.55 71.8063 Q1273.74 73.7508 1268.23 73.7508 Q1261.26 73.7508 1257.13 69.8619 Q1253.04 65.9325 1253.04 59.3701 Q1253.04 51.7138 1258.15 47.825 Q1263.29 43.9361 1273.46 43.9361 L1283.91 43.9361 L1283.91 43.2069 Q1283.91 38.0623 1280.51 35.2672 Q1277.14 32.4315 1271.03 32.4315 Q1267.14 32.4315 1263.45 33.3632 Q1259.77 34.295 1256.36 36.1584 L1256.36 29.2718 Q1260.45 27.692 1264.3 26.9223 Q1268.15 26.1121 1271.8 26.1121 Q1281.64 26.1121 1286.5 31.2163 Q1291.36 36.3204 1291.36 46.6907 Z" fill="#000000" fill-rule="nonzero" fill-opacity="1" /><path clip-path="url(#clip470)" d="M1339.37 28.9478 L1339.37 35.9153 Q1336.21 34.1734 1333.01 33.3227 Q1329.85 32.4315 1326.61 32.4315 Q1319.35 32.4315 1315.34 37.0496 Q1311.33 41.6271 1311.33 49.9314 Q1311.33 58.2358 1315.34 62.8538 Q1319.35 67.4314 1326.61 67.4314 Q1329.85 67.4314 1333.01 66.5807 Q1336.21 65.6895 1339.37 63.9476 L1339.37 70.8341 Q1336.25 72.2924 1332.88 73.0216 Q1329.56 73.7508 1325.8 73.7508 Q1315.55 73.7508 1309.51 67.3098 Q1303.47 60.8689 1303.47 49.9314 Q1303.47 38.832 1309.55 32.472 Q1315.67 26.1121 1326.28 26.1121 Q1329.72 26.1121 1333.01 26.8413 Q1336.29 27.5299 1339.37 28.9478 Z" fill="#000000" fill-rule="nonzero" fill-opacity="1" /><path clip-path="url(#clip470)" d="M1359.7 14.324 L1359.7 27.2059 L1375.05 27.2059 L1375.05 32.9987 L1359.7 32.9987 L1359.7 57.6282 Q1359.7 63.1779 1361.2 64.7578 Q1362.74 66.3376 1367.4 66.3376 L1375.05 66.3376 L1375.05 72.576 L1367.4 72.576 Q1358.77 72.576 1355.49 69.3758 Q1352.21 66.1351 1352.21 57.6282 L1352.21 32.9987 L1346.74 32.9987 L1346.74 27.2059 L1352.21 27.2059 L1352.21 14.324 L1359.7 14.324 Z" fill="#000000" fill-rule="nonzero" fill-opacity="1" /><path clip-path="url(#clip470)" d="M1407.46 46.9338 L1482.32 46.9338 L1482.32 52.7671 L1407.46 52.7671 L1407.46 46.9338 Z" fill="#000000" fill-rule="nonzero" fill-opacity="1" /><path clip-path="url(#clip470)" d="M1520.89 12.096 L1529.07 12.096 L1529.07 72.576 L1520.89 72.576 L1520.89 12.096 Z" fill="#000000" fill-rule="nonzero" fill-opacity="1" /><path clip-path="url(#clip470)" d="M1582.74 45.1919 L1582.74 72.576 L1575.29 72.576 L1575.29 45.4349 Q1575.29 38.994 1572.78 35.7938 Q1570.27 32.5936 1565.24 32.5936 Q1559.21 32.5936 1555.72 36.4419 Q1552.24 40.2903 1552.24 46.9338 L1552.24 72.576 L1544.75 72.576 L1544.75 27.2059 L1552.24 27.2059 L1552.24 34.2544 Q1554.91 30.163 1558.52 28.1376 Q1562.17 26.1121 1566.91 26.1121 Q1574.72 26.1121 1578.73 30.9732 Q1582.74 35.7938 1582.74 45.1919 Z" fill="#000000" fill-rule="nonzero" fill-opacity="1" /><path clip-path="url(#clip470)" d="M1620.58 9.54393 L1620.58 15.7418 L1613.45 15.7418 Q1609.44 15.7418 1607.86 17.3622 Q1606.32 18.9825 1606.32 23.1955 L1606.32 27.2059 L1618.59 27.2059 L1618.59 32.9987 L1606.32 32.9987 L1606.32 72.576 L1598.83 72.576 L1598.83 32.9987 L1591.7 32.9987 L1591.7 27.2059 L1598.83 27.2059 L1598.83 24.0462 Q1598.83 16.471 1602.35 13.0277 Q1605.87 9.54393 1613.53 9.54393 L1620.58 9.54393 Z" fill="#000000" fill-rule="nonzero" fill-opacity="1" /><path clip-path="url(#clip470)" d="M1665.63 48.0275 L1665.63 51.6733 L1631.36 51.6733 Q1631.84 59.3701 1635.97 63.421 Q1640.15 67.4314 1647.56 67.4314 Q1651.85 67.4314 1655.86 66.3781 Q1659.91 65.3249 1663.88 63.2184 L1663.88 70.267 Q1659.87 71.9684 1655.66 72.8596 Q1651.45 73.7508 1647.11 73.7508 Q1636.26 73.7508 1629.9 67.4314 Q1623.58 61.1119 1623.58 50.3365 Q1623.58 39.1965 1629.57 32.6746 Q1635.61 26.1121 1645.82 26.1121 Q1654.97 26.1121 1660.28 32.0264 Q1665.63 37.9003 1665.63 48.0275 M1658.17 45.84 Q1658.09 39.7232 1654.73 36.0774 Q1651.41 32.4315 1645.9 32.4315 Q1639.66 32.4315 1635.89 35.9558 Q1632.17 39.4801 1631.6 45.8805 L1658.17 45.84 Z" fill="#000000" fill-rule="nonzero" fill-opacity="1" /><path clip-path="url(#clip470)" d="M1710.51 28.9478 L1710.51 35.9153 Q1707.35 34.1734 1704.15 33.3227 Q1700.99 32.4315 1697.75 32.4315 Q1690.5 32.4315 1686.49 37.0496 Q1682.48 41.6271 1682.48 49.9314 Q1682.48 58.2358 1686.49 62.8538 Q1690.5 67.4314 1697.75 67.4314 Q1700.99 67.4314 1704.15 66.5807 Q1707.35 65.6895 1710.51 63.9476 L1710.51 70.8341 Q1707.39 72.2924 1704.03 73.0216 Q1700.71 73.7508 1696.94 73.7508 Q1686.69 73.7508 1680.65 67.3098 Q1674.62 60.8689 1674.62 49.9314 Q1674.62 38.832 1680.7 32.472 Q1686.81 26.1121 1697.43 26.1121 Q1700.87 26.1121 1704.15 26.8413 Q1707.43 27.5299 1710.51 28.9478 Z" fill="#000000" fill-rule="nonzero" fill-opacity="1" /><path clip-path="url(#clip470)" d="M1730.85 14.324 L1730.85 27.2059 L1746.2 27.2059 L1746.2 32.9987 L1730.85 32.9987 L1730.85 57.6282 Q1730.85 63.1779 1732.34 64.7578 Q1733.88 66.3376 1738.54 66.3376 L1746.2 66.3376 L1746.2 72.576 L1738.54 72.576 Q1729.91 72.576 1726.63 69.3758 Q1723.35 66.1351 1723.35 57.6282 L1723.35 32.9987 L1717.88 32.9987 L1717.88 27.2059 L1723.35 27.2059 L1723.35 14.324 L1730.85 14.324 Z" fill="#000000" fill-rule="nonzero" fill-opacity="1" /><path clip-path="url(#clip470)" d="M1794.81 48.0275 L1794.81 51.6733 L1760.54 51.6733 Q1761.02 59.3701 1765.16 63.421 Q1769.33 67.4314 1776.74 67.4314 Q1781.04 67.4314 1785.05 66.3781 Q1789.1 65.3249 1793.07 63.2184 L1793.07 70.267 Q1789.06 71.9684 1784.84 72.8596 Q1780.63 73.7508 1776.3 73.7508 Q1765.44 73.7508 1759.08 67.4314 Q1752.76 61.1119 1752.76 50.3365 Q1752.76 39.1965 1758.76 32.6746 Q1764.79 26.1121 1775 26.1121 Q1784.16 26.1121 1789.46 32.0264 Q1794.81 37.9003 1794.81 48.0275 M1787.36 45.84 Q1787.27 39.7232 1783.91 36.0774 Q1780.59 32.4315 1775.08 32.4315 Q1768.84 32.4315 1765.08 35.9558 Q1761.35 39.4801 1760.78 45.8805 L1787.36 45.84 Z" fill="#000000" fill-rule="nonzero" fill-opacity="1" /><path clip-path="url(#clip470)" d="M1836.9 34.0924 L1836.9 9.54393 L1844.35 9.54393 L1844.35 72.576 L1836.9 72.576 L1836.9 65.7705 Q1834.55 69.8214 1830.94 71.8063 Q1827.38 73.7508 1822.36 73.7508 Q1814.13 73.7508 1808.95 67.1883 Q1803.8 60.6258 1803.8 49.9314 Q1803.8 39.2371 1808.95 32.6746 Q1814.13 26.1121 1822.36 26.1121 Q1827.38 26.1121 1830.94 28.0971 Q1834.55 30.0415 1836.9 34.0924 M1811.5 49.9314 Q1811.5 58.1548 1814.86 62.8538 Q1818.26 67.5124 1824.18 67.5124 Q1830.09 67.5124 1833.5 62.8538 Q1836.9 58.1548 1836.9 49.9314 Q1836.9 41.7081 1833.5 37.0496 Q1830.09 32.3505 1824.18 32.3505 Q1818.26 32.3505 1814.86 37.0496 Q1811.5 41.7081 1811.5 49.9314 Z" fill="#000000" fill-rule="nonzero" fill-opacity="1" /><path clip-path="url(#clip470)" d="M1918.65 49.9314 Q1918.65 41.7081 1915.24 37.0496 Q1911.88 32.3505 1905.97 32.3505 Q1900.05 32.3505 1896.65 37.0496 Q1893.29 41.7081 1893.29 49.9314 Q1893.29 58.1548 1896.65 62.8538 Q1900.05 67.5124 1905.97 67.5124 Q1911.88 67.5124 1915.24 62.8538 Q1918.65 58.1548 1918.65 49.9314 M1893.29 34.0924 Q1895.64 30.0415 1899.2 28.0971 Q1902.81 26.1121 1907.79 26.1121 Q1916.05 26.1121 1921.2 32.6746 Q1926.38 39.2371 1926.38 49.9314 Q1926.38 60.6258 1921.2 67.1883 Q1916.05 73.7508 1907.79 73.7508 Q1902.81 73.7508 1899.2 71.8063 Q1895.64 69.8214 1893.29 65.7705 L1893.29 72.576 L1885.79 72.576 L1885.79 9.54393 L1893.29 9.54393 L1893.29 34.0924 Z" fill="#000000" fill-rule="nonzero" fill-opacity="1" /><path clip-path="url(#clip470)" d="M1957.61 76.7889 Q1954.46 84.8907 1951.46 87.3618 Q1948.46 89.8329 1943.44 89.8329 L1937.48 89.8329 L1937.48 83.5945 L1941.86 83.5945 Q1944.94 83.5945 1946.64 82.1361 Q1948.34 80.6778 1950.4 75.2496 L1951.74 71.8468 L1933.39 27.2059 L1941.29 27.2059 L1955.47 62.6918 L1969.65 27.2059 L1977.55 27.2059 L1957.61 76.7889 Z" fill="#000000" fill-rule="nonzero" fill-opacity="1" /><path clip-path="url(#clip470)" d="M2034.74 20.1573 L2023.64 50.2555 L2045.88 50.2555 L2034.74 20.1573 M2030.13 12.096 L2039.4 12.096 L2062.45 72.576 L2053.95 72.576 L2048.44 57.061 L2021.17 57.061 L2015.66 72.576 L2007.04 72.576 L2030.13 12.096 Z" fill="#000000" fill-rule="nonzero" fill-opacity="1" /><path clip-path="url(#clip470)" d="M2100.81 49.3643 Q2100.81 41.2625 2097.45 36.8065 Q2094.13 32.3505 2088.09 32.3505 Q2082.1 32.3505 2078.74 36.8065 Q2075.42 41.2625 2075.42 49.3643 Q2075.42 57.4256 2078.74 61.8816 Q2082.1 66.3376 2088.09 66.3376 Q2094.13 66.3376 2097.45 61.8816 Q2100.81 57.4256 2100.81 49.3643 M2108.27 66.9452 Q2108.27 78.5308 2103.12 84.1616 Q2097.98 89.8329 2087.37 89.8329 Q2083.44 89.8329 2079.95 89.2252 Q2076.47 88.6581 2073.19 87.4428 L2073.19 80.1917 Q2076.47 81.9741 2079.67 82.8248 Q2082.87 83.6755 2086.19 83.6755 Q2093.52 83.6755 2097.17 79.8271 Q2100.81 76.0193 2100.81 68.282 L2100.81 64.5957 Q2098.51 68.6061 2094.9 70.5911 Q2091.29 72.576 2086.27 72.576 Q2077.93 72.576 2072.82 66.2161 Q2067.72 59.8562 2067.72 49.3643 Q2067.72 38.832 2072.82 32.472 Q2077.93 26.1121 2086.27 26.1121 Q2091.29 26.1121 2094.9 28.0971 Q2098.51 30.082 2100.81 34.0924 L2100.81 27.2059 L2108.27 27.2059 L2108.27 66.9452 Z" fill="#000000" fill-rule="nonzero" fill-opacity="1" /><path clip-path="url(#clip470)" d="M2162.43 48.0275 L2162.43 51.6733 L2128.16 51.6733 Q2128.64 59.3701 2132.78 63.421 Q2136.95 67.4314 2144.36 67.4314 Q2148.66 67.4314 2152.67 66.3781 Q2156.72 65.3249 2160.69 63.2184 L2160.69 70.267 Q2156.68 71.9684 2152.46 72.8596 Q2148.25 73.7508 2143.92 73.7508 Q2133.06 73.7508 2126.7 67.4314 Q2120.38 61.1119 2120.38 50.3365 Q2120.38 39.1965 2126.38 32.6746 Q2132.41 26.1121 2142.62 26.1121 Q2151.77 26.1121 2157.08 32.0264 Q2162.43 37.9003 2162.43 48.0275 M2154.98 45.84 Q2154.89 39.7232 2151.53 36.0774 Q2148.21 32.4315 2142.7 32.4315 Q2136.46 32.4315 2132.7 35.9558 Q2128.97 39.4801 2128.4 45.8805 L2154.98 45.84 Z" fill="#000000" fill-rule="nonzero" fill-opacity="1" /><polyline clip-path="url(#clip471)" style="stroke:#0000ff; stroke-linecap:round; stroke-linejoin:round; stroke-width:4; stroke-opacity:1; fill:none" points="280.151,1587.02 285.88,1581.12 291.61,1574.98 297.34,1568.59 303.069,1561.95 308.799,1555.06 314.528,1547.89 320.258,1540.45 325.988,1532.72 331.717,1524.7 337.447,1516.37 343.177,1507.73 348.906,1498.76 354.636,1489.46 360.365,1479.83 366.095,1469.84 371.825,1459.49 377.554,1448.77 383.284,1437.68 389.014,1426.2 394.743,1414.33 400.473,1402.05 406.202,1389.37 411.932,1376.26 417.662,1362.74 423.391,1348.78 429.121,1334.38 434.851,1319.54 440.58,1304.25 446.31,1288.52 452.039,1272.33 457.769,1255.68 463.499,1238.58 469.228,1221.01 474.958,1203 480.688,1184.53 486.417,1165.61 492.147,1146.24 497.876,1126.44 503.606,1106.21 509.336,1085.55 515.065,1064.49 520.795,1043.03 526.525,1021.19 532.254,998.99 537.984,976.442 543.713,953.57 549.443,930.396 555.173,906.945 560.902,883.244 566.632,859.321 572.362,835.206 578.091,810.933 583.821,786.535 589.55,762.049 595.28,737.512 601.01,712.963 606.739,688.444 612.469,663.998 618.199,639.669 623.928,615.499 629.658,591.536 635.387,567.824 641.117,544.409 646.847,521.34 652.576,498.664 658.306,476.426 664.036,454.675 669.765,433.457 675.495,412.817 681.224,392.8 686.954,373.447 692.684,354.801 698.413,336.899 704.143,319.781 709.873,303.481 715.602,288.036 721.332,273.475 727.061,259.827 732.791,247.118 738.521,235.371 744.25,224.606 749.98,214.84 755.71,206.088 761.439,198.359 767.169,191.664 772.898,186.006 778.628,181.389 784.358,177.81 790.087,175.267 795.817,173.751 801.547,173.254 807.276,173.764 813.006,175.268 818.735,177.747 824.465,181.183 830.195,185.555 835.924,190.84 841.654,197.013 847.384,204.046 853.113,211.913 858.843,220.584 864.572,230.028 870.302,240.217 876.032,251.116 881.761,262.695 887.491,274.918 893.221,287.754 898.95,301.168 904.68,315.125 910.409,329.593 916.139,344.538 921.869,359.927 927.598,375.727 933.328,391.906 939.058,408.432 944.787,425.272 950.517,442.397 956.246,459.776 961.976,477.381 967.706,495.182 973.435,513.153 979.165,531.267 984.895,549.499 990.624,567.824 996.354,586.217 1002.08,604.658 1007.81,623.123 1013.54,641.593 1019.27,660.047 1025,678.467 1030.73,696.835 1036.46,715.134 1042.19,733.349 1047.92,751.464 1053.65,769.466 1059.38,787.341 1065.11,805.077 1070.84,822.663 1076.57,840.089 1082.3,857.343 1088.03,874.418 1093.76,891.306 1099.49,907.998 1105.22,924.488 1110.95,940.769 1116.68,956.836 1122.41,972.684 1128.14,988.308 1133.86,1003.7 1139.59,1018.87 1145.32,1033.8 1151.05,1048.5 1156.78,1062.96 1162.51,1077.18 1168.24,1091.15 1173.97,1104.89 1179.7,1118.39 1185.43,1131.64 1191.16,1144.65 1196.89,1157.42 1202.62,1169.95 1208.35,1182.24 1214.08,1194.29 1219.81,1206.1 1225.54,1217.68 1231.27,1229.03 1237,1240.15 1242.73,1251.04 1248.46,1261.7 1254.19,1272.13 1259.92,1282.35 1265.65,1292.35 1271.38,1302.13 1277.11,1311.7 1282.83,1321.05 1288.56,1330.21 1294.29,1339.15 1300.02,1347.9 1305.75,1356.45 1311.48,1364.8 1317.21,1372.97 1322.94,1380.94 1328.67,1388.73 1334.4,1396.34 1340.13,1403.77 1345.86,1411.03 1351.59,1418.11 1357.32,1425.03 1363.05,1431.78 1368.78,1438.37 1374.51,1444.8 1380.24,1451.07 1385.97,1457.19 1391.7,1463.17 1397.43,1468.99 1403.16,1474.68 1408.89,1480.22 1414.62,1485.63 1420.35,1490.91 1426.08,1496.05 1431.81,1501.06 1437.53,1505.95 1443.26,1510.72 1448.99,1515.37 1454.72,1519.9 1460.45,1524.31 1466.18,1528.62 1471.91,1532.81 1477.64,1536.9 1483.37,1540.89 1489.1,1544.77 1494.83,1548.55 1500.56,1552.24 1506.29,1555.83 1512.02,1559.33 1517.75,1562.74 1523.48,1566.07 1529.21,1569.3 1534.94,1572.46 1540.67,1575.53 1546.4,1578.52 1552.13,1581.44 1557.86,1584.28 1563.59,1587.04 1569.32,1589.74 1575.05,1592.36 1580.78,1594.91 1586.51,1597.4 1592.23,1599.83 1597.96,1602.19 1603.69,1604.49 1609.42,1606.72 1615.15,1608.9 1620.88,1611.03 1626.61,1613.09 1632.34,1615.11 1638.07,1617.07 1643.8,1618.98 1649.53,1620.83 1655.26,1622.64 1660.99,1624.41 1666.72,1626.12 1672.45,1627.79 1678.18,1629.42 1683.91,1631 1689.64,1632.54 1695.37,1634.05 1701.1,1635.51 1706.83,1636.93 1712.56,1638.32 1718.29,1639.67 1724.02,1640.98 1729.75,1642.26 1735.48,1643.5 1741.2,1644.72 1746.93,1645.9 1752.66,1647.04 1758.39,1648.16 1764.12,1649.25 1769.85,1650.31 1775.58,1651.35 1781.31,1652.35 1787.04,1653.33 1792.77,1654.28 1798.5,1655.21 1804.23,1656.11 1809.96,1656.99 1815.69,1657.85 1821.42,1658.68 1827.15,1659.49 1832.88,1660.28 1838.61,1661.05 1844.34,1661.8 1850.07,1662.53 1855.8,1663.24 1861.53,1663.93 1867.26,1664.6 1872.99,1665.26 1878.72,1665.9 1884.45,1666.52 1890.18,1667.12 1895.9,1667.71 1901.63,1668.28 1907.36,1668.84 1913.09,1669.39 1918.82,1669.92 1924.55,1670.43 1930.28,1670.93 1936.01,1671.42 1941.74,1671.9 1947.47,1672.36 1953.2,1672.81 1958.93,1673.25 1964.66,1673.68 1970.39,1674.09 1976.12,1674.5 1981.85,1674.89 1987.58,1675.28 1993.31,1675.65 1999.04,1676.01 2004.77,1676.37 2010.5,1676.71 2016.23,1677.05 2021.96,1677.38 2027.69,1677.7 2033.42,1678.01 2039.15,1678.31 2044.87,1678.61 2050.6,1678.89 2056.33,1679.17 2062.06,1679.44 2067.79,1679.71 2073.52,1679.97 2079.25,1680.22 2084.98,1680.46 2090.71,1680.7 2096.44,1680.93 2102.17,1681.16 2107.9,1681.38 2113.63,1681.59 2119.36,1681.8 2125.09,1682 2130.82,1682.2 2136.55,1682.4 2142.28,1682.58 2148.01,1682.77 2153.74,1682.94 2159.47,1683.12 2165.2,1683.29 2170.93,1683.45 2176.66,1683.61 2182.39,1683.77 2188.12,1683.92 2193.85,1684.07 2199.57,1684.21 2205.3,1684.35 2211.03,1684.49 2216.76,1684.62 2222.49,1684.75 2228.22,1684.88 2233.95,1685 2239.68,1685.12 2245.41,1685.24 2251.14,1685.35 2256.87,1685.46 2262.6,1685.57 2268.33,1685.68 2274.06,1685.78 2279.79,1685.88 2285.52,1685.98 2291.25,1686.07 2296.98,1686.16 2302.71,1686.25 2308.44,1686.34 2314.17,1686.43 2319.9,1686.51 2325.63,1686.59 2331.36,1686.67 2337.09,1686.75 2342.82,1686.82 2348.55,1686.89 2354.27,1686.96 2360,1687.03 2365.73,1687.1 2371.46,1687.17 2377.19,1687.23 2382.92,1687.29 2388.65,1687.35 2394.38,1687.41 2400.11,1687.47 2405.84,1687.53 2411.57,1687.58 2417.3,1687.63 2423.03,1687.69 2428.76,1687.74 2434.49,1687.79 2440.22,1687.83 2445.95,1687.88 2451.68,1687.93 2457.41,1687.97 2463.14,1688.01 2468.87,1688.06 2474.6,1688.1 2480.33,1688.14 2486.06,1688.18 2491.79,1688.21 2497.52,1688.25 2503.24,1688.29 2508.97,1688.32 2514.7,1688.36 2520.43,1688.39 2526.16,1688.42 2531.89,1688.45 2537.62,1688.49 2543.35,1688.52 2549.08,1688.54 2554.81,1688.57 2560.54,1688.6 2566.27,1688.63 2572,1688.65 "/>
<polyline clip-path="url(#clip471)" style="stroke:#ff0000; stroke-linecap:round; stroke-linejoin:round; stroke-width:4; stroke-opacity:1; fill:none" points="280.151,1587.02 285.88,1583.19 291.61,1579.21 297.34,1575.08 303.069,1570.79 308.799,1566.33 314.528,1561.69 320.258,1556.88 325.988,1551.89 331.717,1546.7 337.447,1541.31 343.177,1535.72 348.906,1529.92 354.636,1523.9 360.365,1517.65 366.095,1511.16 371.825,1504.44 377.554,1497.47 383.284,1490.25 389.014,1482.76 394.743,1475.01 400.473,1466.98 406.202,1458.66 411.932,1450.06 417.662,1441.16 423.391,1431.96 429.121,1422.45 434.851,1412.62 440.58,1402.48 446.31,1392.01 452.039,1381.21 457.769,1370.07 463.499,1358.6 469.228,1346.78 474.958,1334.62 480.688,1322.11 486.417,1309.25 492.147,1296.05 497.876,1282.49 503.606,1268.59 509.336,1254.34 515.065,1239.74 520.795,1224.81 526.525,1209.54 532.254,1193.94 537.984,1178.02 543.713,1161.79 549.443,1145.25 555.173,1128.42 560.902,1111.32 566.632,1093.94 572.362,1076.32 578.091,1058.46 583.821,1040.38 589.55,1022.11 595.28,1003.66 601.01,985.061 606.739,966.328 612.469,947.49 618.199,928.571 623.928,909.6 629.658,890.604 635.387,871.613 641.117,852.656 646.847,833.765 652.576,814.971 658.306,796.307 664.036,777.806 669.765,759.501 675.495,741.426 681.224,723.615 686.954,706.101 692.684,688.916 698.413,672.093 704.143,655.665 709.873,639.663 715.602,624.119 721.332,609.063 727.061,594.523 732.791,580.528 738.521,567.103 744.25,554.274 749.98,542.064 755.71,530.494 761.439,519.584 767.169,509.353 772.898,499.816 778.628,490.989 784.358,482.884 790.087,475.511 795.817,468.878 801.547,462.992 807.276,457.857 813.006,453.476 818.735,449.849 824.465,446.975 830.195,444.852 835.924,443.473 841.654,442.832 847.384,442.92 853.113,443.727 858.843,445.243 864.572,447.453 870.302,450.345 876.032,453.903 881.761,458.11 887.491,462.948 893.221,468.4 898.95,474.446 904.68,481.065 910.409,488.238 916.139,495.942 921.869,504.156 927.598,512.859 933.328,522.029 939.058,531.643 944.787,541.678 950.517,552.112 956.246,562.922 961.976,574.085 967.706,585.58 973.435,597.384 979.165,609.476 984.895,621.834 990.624,634.437 996.354,647.264 1002.08,660.296 1007.81,673.512 1013.54,686.892 1019.27,700.419 1025,714.074 1030.73,727.839 1036.46,741.697 1042.19,755.632 1047.92,769.628 1053.65,783.669 1059.38,797.741 1065.11,811.83 1070.84,825.921 1076.57,840.003 1082.3,854.064 1088.03,868.09 1093.76,882.072 1099.49,895.999 1105.22,909.86 1110.95,923.647 1116.68,937.351 1122.41,950.963 1128.14,964.475 1133.86,977.88 1139.59,991.171 1145.32,1004.34 1151.05,1017.39 1156.78,1030.3 1162.51,1043.08 1168.24,1055.72 1173.97,1068.21 1179.7,1080.55 1185.43,1092.74 1191.16,1104.78 1196.89,1116.66 1202.62,1128.37 1208.35,1139.92 1214.08,1151.31 1219.81,1162.54 1225.54,1173.59 1231.27,1184.48 1237,1195.19 1242.73,1205.74 1248.46,1216.12 1254.19,1226.33 1259.92,1236.36 1265.65,1246.23 1271.38,1255.92 1277.11,1265.45 1282.83,1274.81 1288.56,1284 1294.29,1293.03 1300.02,1301.88 1305.75,1310.58 1311.48,1319.11 1317.21,1327.48 1322.94,1335.69 1328.67,1343.74 1334.4,1351.63 1340.13,1359.37 1345.86,1366.95 1351.59,1374.38 1357.32,1381.66 1363.05,1388.8 1368.78,1395.78 1374.51,1402.63 1380.24,1409.33 1385.97,1415.89 1391.7,1422.31 1397.43,1428.6 1403.16,1434.75 1408.89,1440.77 1414.62,1446.67 1420.35,1452.43 1426.08,1458.07 1431.81,1463.59 1437.53,1468.98 1443.26,1474.25 1448.99,1479.41 1454.72,1484.46 1460.45,1489.39 1466.18,1494.21 1471.91,1498.92 1477.64,1503.53 1483.37,1508.03 1489.1,1512.42 1494.83,1516.72 1500.56,1520.92 1506.29,1525.02 1512.02,1529.03 1517.75,1532.95 1523.48,1536.77 1529.21,1540.51 1534.94,1544.16 1540.67,1547.72 1546.4,1551.2 1552.13,1554.6 1557.86,1557.91 1563.59,1561.15 1569.32,1564.31 1575.05,1567.4 1580.78,1570.42 1586.51,1573.36 1592.23,1576.23 1597.96,1579.03 1603.69,1581.77 1609.42,1584.44 1615.15,1587.05 1620.88,1589.59 1626.61,1592.07 1632.34,1594.5 1638.07,1596.86 1643.8,1599.17 1649.53,1601.42 1655.26,1603.61 1660.99,1605.75 1666.72,1607.84 1672.45,1609.88 1678.18,1611.87 1683.91,1613.81 1689.64,1615.71 1695.37,1617.55 1701.1,1619.35 1706.83,1621.11 1712.56,1622.83 1718.29,1624.5 1724.02,1626.13 1729.75,1627.72 1735.48,1629.27 1741.2,1630.78 1746.93,1632.26 1752.66,1633.7 1758.39,1635.1 1764.12,1636.47 1769.85,1637.8 1775.58,1639.11 1781.31,1640.37 1787.04,1641.61 1792.77,1642.82 1798.5,1644 1804.23,1645.14 1809.96,1646.26 1815.69,1647.35 1821.42,1648.42 1827.15,1649.45 1832.88,1650.47 1838.61,1651.45 1844.34,1652.41 1850.07,1653.35 1855.8,1654.27 1861.53,1655.16 1867.26,1656.03 1872.99,1656.87 1878.72,1657.7 1884.45,1658.5 1890.18,1659.29 1895.9,1660.05 1901.63,1660.8 1907.36,1661.53 1913.09,1662.24 1918.82,1662.93 1924.55,1663.6 1930.28,1664.26 1936.01,1664.9 1941.74,1665.52 1947.47,1666.13 1953.2,1666.73 1958.93,1667.3 1964.66,1667.87 1970.39,1668.42 1976.12,1668.95 1981.85,1669.48 1987.58,1669.99 1993.31,1670.48 1999.04,1670.97 2004.77,1671.44 2010.5,1671.9 2016.23,1672.35 2021.96,1672.78 2027.69,1673.21 2033.42,1673.62 2039.15,1674.03 2044.87,1674.42 2050.6,1674.81 2056.33,1675.18 2062.06,1675.55 2067.79,1675.9 2073.52,1676.25 2079.25,1676.59 2084.98,1676.92 2090.71,1677.24 2096.44,1677.55 2102.17,1677.86 2107.9,1678.16 2113.63,1678.45 2119.36,1678.73 2125.09,1679.01 2130.82,1679.28 2136.55,1679.54 2142.28,1679.79 2148.01,1680.04 2153.74,1680.29 2159.47,1680.52 2165.2,1680.75 2170.93,1680.98 2176.66,1681.2 2182.39,1681.41 2188.12,1681.62 2193.85,1681.82 2199.57,1682.02 2205.3,1682.21 2211.03,1682.4 2216.76,1682.58 2222.49,1682.76 2228.22,1682.94 2233.95,1683.11 2239.68,1683.27 2245.41,1683.43 2251.14,1683.59 2256.87,1683.74 2262.6,1683.89 2268.33,1684.04 2274.06,1684.18 2279.79,1684.32 2285.52,1684.45 2291.25,1684.58 2296.98,1684.71 2302.71,1684.84 2308.44,1684.96 2314.17,1685.08 2319.9,1685.19 2325.63,1685.31 2331.36,1685.42 2337.09,1685.52 2342.82,1685.63 2348.55,1685.73 2354.27,1685.83 2360,1685.93 2365.73,1686.02 2371.46,1686.11 2377.19,1686.2 2382.92,1686.29 2388.65,1686.37 2394.38,1686.46 2400.11,1686.54 2405.84,1686.62 2411.57,1686.69 2417.3,1686.77 2423.03,1686.84 2428.76,1686.91 2434.49,1686.98 2440.22,1687.05 2445.95,1687.12 2451.68,1687.18 2457.41,1687.24 2463.14,1687.3 2468.87,1687.36 2474.6,1687.42 2480.33,1687.48 2486.06,1687.53 2491.79,1687.59 2497.52,1687.64 2503.24,1687.69 2508.97,1687.74 2514.7,1687.79 2520.43,1687.84 2526.16,1687.88 2531.89,1687.93 2537.62,1687.97 2543.35,1688.01 2549.08,1688.05 2554.81,1688.09 2560.54,1688.13 2566.27,1688.17 2572,1688.21 "/>
<polyline clip-path="url(#clip471)" style="stroke:#008000; stroke-linecap:round; stroke-linejoin:round; stroke-width:4; stroke-opacity:1; fill:none" points="280.151,1587.02 285.88,1586.27 291.61,1585.45 297.34,1584.53 303.069,1583.54 308.799,1582.46 314.528,1581.29 320.258,1580.02 325.988,1578.67 331.717,1577.21 337.447,1575.65 343.177,1573.99 348.906,1572.23 354.636,1570.35 360.365,1568.36 366.095,1566.25 371.825,1564.03 377.554,1561.68 383.284,1559.2 389.014,1556.59 394.743,1553.85 400.473,1550.97 406.202,1547.95 411.932,1544.79 417.662,1541.48 423.391,1538.01 429.121,1534.39 434.851,1530.61 440.58,1526.66 446.31,1522.55 452.039,1518.27 457.769,1513.81 463.499,1509.18 469.228,1504.36 474.958,1499.37 480.688,1494.19 486.417,1488.81 492.147,1483.25 497.876,1477.5 503.606,1471.54 509.336,1465.39 515.065,1459.05 520.795,1452.5 526.525,1445.75 532.254,1438.8 537.984,1431.65 543.713,1424.3 549.443,1416.75 555.173,1409 560.902,1401.06 566.632,1392.92 572.362,1384.59 578.091,1376.08 583.821,1367.38 589.55,1358.5 595.28,1349.45 601.01,1340.23 606.739,1330.85 612.469,1321.32 618.199,1311.64 623.928,1301.83 629.658,1291.89 635.387,1281.84 641.117,1271.67 646.847,1261.41 652.576,1251.07 658.306,1240.66 664.036,1230.19 669.765,1219.67 675.495,1209.12 681.224,1198.56 686.954,1187.99 692.684,1177.44 698.413,1166.92 704.143,1156.44 709.873,1146.02 715.602,1135.67 721.332,1125.42 727.061,1115.28 732.791,1105.26 738.521,1095.38 744.25,1085.66 749.98,1076.11 755.71,1066.74 761.439,1057.58 767.169,1048.64 772.898,1039.93 778.628,1031.46 784.358,1023.25 790.087,1015.31 795.817,1007.66 801.547,1000.3 807.276,993.243 813.006,986.502 818.735,980.085 824.465,974 830.195,968.255 835.924,962.858 841.654,957.813 847.384,953.126 853.113,948.801 858.843,944.842 864.572,941.252 870.302,938.032 876.032,935.184 881.761,932.709 887.491,930.605 893.221,928.871 898.95,927.507 904.68,926.508 910.409,925.872 916.139,925.596 921.869,925.674 927.598,926.102 933.328,926.874 939.058,927.984 944.787,929.427 950.517,931.194 956.246,933.279 961.976,935.673 967.706,938.37 973.435,941.359 979.165,944.634 984.895,948.185 990.624,952.003 996.354,956.079 1002.08,960.403 1007.81,964.967 1013.54,969.761 1019.27,974.775 1025,979.999 1030.73,985.425 1036.46,991.041 1042.19,996.839 1047.92,1002.81 1053.65,1008.94 1059.38,1015.23 1065.11,1021.66 1070.84,1028.23 1076.57,1034.92 1082.3,1041.73 1088.03,1048.65 1093.76,1055.67 1099.49,1062.78 1105.22,1069.97 1110.95,1077.24 1116.68,1084.58 1122.41,1091.98 1128.14,1099.43 1133.86,1106.93 1139.59,1114.46 1145.32,1122.03 1151.05,1129.62 1156.78,1137.24 1162.51,1144.87 1168.24,1152.5 1173.97,1160.14 1179.7,1167.78 1185.43,1175.4 1191.16,1183.02 1196.89,1190.61 1202.62,1198.18 1208.35,1205.73 1214.08,1213.25 1219.81,1220.73 1225.54,1228.17 1231.27,1235.57 1237,1242.93 1242.73,1250.23 1248.46,1257.49 1254.19,1264.69 1259.92,1271.83 1265.65,1278.92 1271.38,1285.94 1277.11,1292.9 1282.83,1299.8 1288.56,1306.63 1294.29,1313.38 1300.02,1320.07 1305.75,1326.68 1311.48,1333.23 1317.21,1339.69 1322.94,1346.08 1328.67,1352.4 1334.4,1358.63 1340.13,1364.79 1345.86,1370.87 1351.59,1376.87 1357.32,1382.79 1363.05,1388.62 1368.78,1394.38 1374.51,1400.06 1380.24,1405.65 1385.97,1411.17 1391.7,1416.6 1397.43,1421.95 1403.16,1427.22 1408.89,1432.41 1414.62,1437.52 1420.35,1442.55 1426.08,1447.5 1431.81,1452.37 1437.53,1457.16 1443.26,1461.87 1448.99,1466.51 1454.72,1471.06 1460.45,1475.54 1466.18,1479.95 1471.91,1484.27 1477.64,1488.53 1483.37,1492.7 1489.1,1496.81 1494.83,1500.84 1500.56,1504.8 1506.29,1508.68 1512.02,1512.5 1517.75,1516.25 1523.48,1519.93 1529.21,1523.54 1534.94,1527.08 1540.67,1530.55 1546.4,1533.97 1552.13,1537.31 1557.86,1540.59 1563.59,1543.81 1569.32,1546.97 1575.05,1550.06 1580.78,1553.1 1586.51,1556.08 1592.23,1558.99 1597.96,1561.85 1603.69,1564.66 1609.42,1567.4 1615.15,1570.1 1620.88,1572.74 1626.61,1575.32 1632.34,1577.85 1638.07,1580.33 1643.8,1582.76 1649.53,1585.15 1655.26,1587.48 1660.99,1589.76 1666.72,1592 1672.45,1594.19 1678.18,1596.33 1683.91,1598.43 1689.64,1600.49 1695.37,1602.5 1701.1,1604.47 1706.83,1606.4 1712.56,1608.28 1718.29,1610.13 1724.02,1611.94 1729.75,1613.71 1735.48,1615.44 1741.2,1617.13 1746.93,1618.79 1752.66,1620.41 1758.39,1622 1764.12,1623.55 1769.85,1625.07 1775.58,1626.55 1781.31,1628 1787.04,1629.42 1792.77,1630.81 1798.5,1632.17 1804.23,1633.5 1809.96,1634.8 1815.69,1636.07 1821.42,1637.32 1827.15,1638.53 1832.88,1639.72 1838.61,1640.88 1844.34,1642.02 1850.07,1643.13 1855.8,1644.21 1861.53,1645.27 1867.26,1646.31 1872.99,1647.33 1878.72,1648.32 1884.45,1649.29 1890.18,1650.23 1895.9,1651.16 1901.63,1652.06 1907.36,1652.95 1913.09,1653.81 1918.82,1654.65 1924.55,1655.48 1930.28,1656.29 1936.01,1657.07 1941.74,1657.84 1947.47,1658.6 1953.2,1659.33 1958.93,1660.05 1964.66,1660.75 1970.39,1661.43 1976.12,1662.1 1981.85,1662.76 1987.58,1663.4 1993.31,1664.02 1999.04,1664.63 2004.77,1665.23 2010.5,1665.81 2016.23,1666.38 2021.96,1666.93 2027.69,1667.47 2033.42,1668 2039.15,1668.52 2044.87,1669.02 2050.6,1669.52 2056.33,1670 2062.06,1670.47 2067.79,1670.93 2073.52,1671.38 2079.25,1671.82 2084.98,1672.24 2090.71,1672.66 2096.44,1673.07 2102.17,1673.47 2107.9,1673.86 2113.63,1674.24 2119.36,1674.61 2125.09,1674.97 2130.82,1675.32 2136.55,1675.67 2142.28,1676.01 2148.01,1676.34 2153.74,1676.66 2159.47,1676.97 2165.2,1677.28 2170.93,1677.58 2176.66,1677.87 2182.39,1678.15 2188.12,1678.43 2193.85,1678.7 2199.57,1678.97 2205.3,1679.23 2211.03,1679.48 2216.76,1679.73 2222.49,1679.97 2228.22,1680.2 2233.95,1680.43 2239.68,1680.66 2245.41,1680.87 2251.14,1681.09 2256.87,1681.3 2262.6,1681.5 2268.33,1681.7 2274.06,1681.89 2279.79,1682.08 2285.52,1682.26 2291.25,1682.44 2296.98,1682.62 2302.71,1682.79 2308.44,1682.96 2314.17,1683.12 2319.9,1683.28 2325.63,1683.44 2331.36,1683.59 2337.09,1683.74 2342.82,1683.88 2348.55,1684.02 2354.27,1684.16 2360,1684.29 2365.73,1684.43 2371.46,1684.55 2377.19,1684.68 2382.92,1684.8 2388.65,1684.92 2394.38,1685.04 2400.11,1685.15 2405.84,1685.26 2411.57,1685.37 2417.3,1685.47 2423.03,1685.57 2428.76,1685.67 2434.49,1685.77 2440.22,1685.87 2445.95,1685.96 2451.68,1686.05 2457.41,1686.14 2463.14,1686.23 2468.87,1686.31 2474.6,1686.39 2480.33,1686.47 2486.06,1686.55 2491.79,1686.63 2497.52,1686.7 2503.24,1686.78 2508.97,1686.85 2514.7,1686.92 2520.43,1686.98 2526.16,1687.05 2531.89,1687.11 2537.62,1687.18 2543.35,1687.24 2549.08,1687.3 2554.81,1687.36 2560.54,1687.41 2566.27,1687.47 2572,1687.52 "/>
<path clip-path="url(#clip470)" d="M2198.37 388.696 L2559.78 388.696 L2559.78 181.336 L2198.37 181.336  Z" fill="#ffffff" fill-rule="evenodd" fill-opacity="1"/>
<polyline clip-path="url(#clip470)" style="stroke:#000000; stroke-linecap:round; stroke-linejoin:round; stroke-width:4; stroke-opacity:1; fill:none" points="2198.37,388.696 2559.78,388.696 2559.78,181.336 2198.37,181.336 2198.37,388.696 "/>
<polyline clip-path="url(#clip470)" style="stroke:#0000ff; stroke-linecap:round; stroke-linejoin:round; stroke-width:4; stroke-opacity:1; fill:none" points="2225.36,233.176 2387.32,233.176 "/>
<path clip-path="url(#clip470)" d="M2434.82 225.526 L2434.82 229.507 Q2433.02 228.512 2431.19 228.026 Q2429.38 227.517 2427.53 227.517 Q2423.39 227.517 2421.1 230.155 Q2418.8 232.771 2418.8 237.517 Q2418.8 242.262 2421.1 244.901 Q2423.39 247.516 2427.53 247.516 Q2429.38 247.516 2431.19 247.03 Q2433.02 246.521 2434.82 245.526 L2434.82 249.461 Q2433.04 250.294 2431.12 250.711 Q2429.22 251.128 2427.07 251.128 Q2421.21 251.128 2417.76 247.447 Q2414.31 243.767 2414.31 237.517 Q2414.31 231.174 2417.78 227.54 Q2421.28 223.906 2427.35 223.906 Q2429.31 223.906 2431.19 224.322 Q2433.06 224.716 2434.82 225.526 Z" fill="#000000" fill-rule="nonzero" fill-opacity="1" /><path clip-path="url(#clip470)" d="M2463.78 234.808 L2463.78 250.456 L2459.52 250.456 L2459.52 234.947 Q2459.52 231.267 2458.09 229.438 Q2456.65 227.609 2453.78 227.609 Q2450.33 227.609 2448.34 229.808 Q2446.35 232.007 2446.35 235.804 L2446.35 250.456 L2442.07 250.456 L2442.07 214.438 L2446.35 214.438 L2446.35 228.558 Q2447.88 226.22 2449.94 225.063 Q2452.02 223.906 2454.73 223.906 Q2459.2 223.906 2461.49 226.683 Q2463.78 229.438 2463.78 234.808 Z" fill="#000000" fill-rule="nonzero" fill-opacity="1" /><path clip-path="url(#clip470)" d="M2472.28 224.531 L2476.53 224.531 L2476.53 250.456 L2472.28 250.456 L2472.28 224.531 M2472.28 214.438 L2476.53 214.438 L2476.53 219.831 L2472.28 219.831 L2472.28 214.438 Z" fill="#000000" fill-rule="nonzero" fill-opacity="1" /><path clip-path="url(#clip470)" d="M2485.45 214.438 L2489.71 214.438 L2489.71 250.456 L2485.45 250.456 L2485.45 214.438 Z" fill="#000000" fill-rule="nonzero" fill-opacity="1" /><path clip-path="url(#clip470)" d="M2515.68 228.466 L2515.68 214.438 L2519.94 214.438 L2519.94 250.456 L2515.68 250.456 L2515.68 246.567 Q2514.34 248.882 2512.28 250.016 Q2510.24 251.128 2507.37 251.128 Q2502.67 251.128 2499.71 247.378 Q2496.77 243.628 2496.77 237.517 Q2496.77 231.405 2499.71 227.655 Q2502.67 223.906 2507.37 223.906 Q2510.24 223.906 2512.28 225.04 Q2514.34 226.151 2515.68 228.466 M2501.16 237.517 Q2501.16 242.216 2503.09 244.901 Q2505.03 247.563 2508.41 247.563 Q2511.79 247.563 2513.73 244.901 Q2515.68 242.216 2515.68 237.517 Q2515.68 232.817 2513.73 230.155 Q2511.79 227.47 2508.41 227.47 Q2505.03 227.47 2503.09 230.155 Q2501.16 232.817 2501.16 237.517 Z" fill="#000000" fill-rule="nonzero" fill-opacity="1" /><polyline clip-path="url(#clip470)" style="stroke:#ff0000; stroke-linecap:round; stroke-linejoin:round; stroke-width:4; stroke-opacity:1; fill:none" points="2225.36,285.016 2387.32,285.016 "/>
<path clip-path="url(#clip470)" d="M2427.72 289.264 Q2422.55 289.264 2420.56 290.444 Q2418.57 291.625 2418.57 294.472 Q2418.57 296.741 2420.05 298.083 Q2421.56 299.403 2424.13 299.403 Q2427.67 299.403 2429.8 296.903 Q2431.95 294.38 2431.95 290.213 L2431.95 289.264 L2427.72 289.264 M2436.21 287.505 L2436.21 302.296 L2431.95 302.296 L2431.95 298.361 Q2430.49 300.722 2428.32 301.856 Q2426.14 302.968 2422.99 302.968 Q2419.01 302.968 2416.65 300.745 Q2414.31 298.5 2414.31 294.75 Q2414.31 290.375 2417.23 288.153 Q2420.17 285.931 2425.98 285.931 L2431.95 285.931 L2431.95 285.514 Q2431.95 282.574 2430.01 280.977 Q2428.09 279.357 2424.59 279.357 Q2422.37 279.357 2420.26 279.889 Q2418.16 280.421 2416.21 281.486 L2416.21 277.551 Q2418.55 276.648 2420.75 276.208 Q2422.95 275.746 2425.03 275.746 Q2430.66 275.746 2433.43 278.662 Q2436.21 281.579 2436.21 287.505 Z" fill="#000000" fill-rule="nonzero" fill-opacity="1" /><path clip-path="url(#clip470)" d="M2462.04 280.306 L2462.04 266.278 L2466.3 266.278 L2466.3 302.296 L2462.04 302.296 L2462.04 298.407 Q2460.7 300.722 2458.64 301.856 Q2456.6 302.968 2453.73 302.968 Q2449.03 302.968 2446.07 299.218 Q2443.13 295.468 2443.13 289.357 Q2443.13 283.245 2446.07 279.495 Q2449.03 275.746 2453.73 275.746 Q2456.6 275.746 2458.64 276.88 Q2460.7 277.991 2462.04 280.306 M2447.53 289.357 Q2447.53 294.056 2449.45 296.741 Q2451.4 299.403 2454.78 299.403 Q2458.16 299.403 2460.1 296.741 Q2462.04 294.056 2462.04 289.357 Q2462.04 284.657 2460.1 281.995 Q2458.16 279.31 2454.78 279.31 Q2451.4 279.31 2449.45 281.995 Q2447.53 284.657 2447.53 289.357 Z" fill="#000000" fill-rule="nonzero" fill-opacity="1" /><path clip-path="url(#clip470)" d="M2474.64 292.065 L2474.64 276.371 L2478.9 276.371 L2478.9 291.903 Q2478.9 295.583 2480.33 297.435 Q2481.77 299.264 2484.64 299.264 Q2488.09 299.264 2490.08 297.065 Q2492.09 294.866 2492.09 291.069 L2492.09 276.371 L2496.35 276.371 L2496.35 302.296 L2492.09 302.296 L2492.09 298.315 Q2490.54 300.676 2488.48 301.833 Q2486.44 302.968 2483.73 302.968 Q2479.27 302.968 2476.95 300.19 Q2474.64 297.412 2474.64 292.065 M2485.35 275.746 L2485.35 275.746 Z" fill="#000000" fill-rule="nonzero" fill-opacity="1" /><path clip-path="url(#clip470)" d="M2505.12 266.278 L2509.38 266.278 L2509.38 302.296 L2505.12 302.296 L2505.12 266.278 Z" fill="#000000" fill-rule="nonzero" fill-opacity="1" /><path clip-path="url(#clip470)" d="M2522.51 269.009 L2522.51 276.371 L2531.28 276.371 L2531.28 279.681 L2522.51 279.681 L2522.51 293.755 Q2522.51 296.926 2523.36 297.829 Q2524.24 298.731 2526.9 298.731 L2531.28 298.731 L2531.28 302.296 L2526.9 302.296 Q2521.97 302.296 2520.1 300.468 Q2518.22 298.616 2518.22 293.755 L2518.22 279.681 L2515.1 279.681 L2515.1 276.371 L2518.22 276.371 L2518.22 269.009 L2522.51 269.009 Z" fill="#000000" fill-rule="nonzero" fill-opacity="1" /><polyline clip-path="url(#clip470)" style="stroke:#008000; stroke-linecap:round; stroke-linejoin:round; stroke-width:4; stroke-opacity:1; fill:none" points="2225.36,336.856 2387.32,336.856 "/>
<path clip-path="url(#clip470)" d="M2438.34 340.109 L2438.34 342.192 L2418.76 342.192 Q2419.03 346.59 2421.4 348.905 Q2423.78 351.196 2428.02 351.196 Q2430.47 351.196 2432.76 350.595 Q2435.08 349.993 2437.35 348.789 L2437.35 352.817 Q2435.05 353.789 2432.65 354.298 Q2430.24 354.808 2427.76 354.808 Q2421.56 354.808 2417.92 351.196 Q2414.31 347.585 2414.31 341.428 Q2414.31 335.062 2417.74 331.335 Q2421.19 327.586 2427.02 327.586 Q2432.25 327.586 2435.28 330.965 Q2438.34 334.322 2438.34 340.109 M2434.08 338.859 Q2434.03 335.363 2432.11 333.28 Q2430.22 331.197 2427.07 331.197 Q2423.5 331.197 2421.35 333.21 Q2419.22 335.224 2418.9 338.882 L2434.08 338.859 Z" fill="#000000" fill-rule="nonzero" fill-opacity="1" /><path clip-path="url(#clip470)" d="M2445.33 318.118 L2449.59 318.118 L2449.59 354.136 L2445.33 354.136 L2445.33 318.118 Z" fill="#000000" fill-rule="nonzero" fill-opacity="1" /><path clip-path="url(#clip470)" d="M2475.56 332.146 L2475.56 318.118 L2479.82 318.118 L2479.82 354.136 L2475.56 354.136 L2475.56 350.247 Q2474.22 352.562 2472.16 353.696 Q2470.12 354.808 2467.25 354.808 Q2462.55 354.808 2459.59 351.058 Q2456.65 347.308 2456.65 341.197 Q2456.65 335.085 2459.59 331.335 Q2462.55 327.586 2467.25 327.586 Q2470.12 327.586 2472.16 328.72 Q2474.22 329.831 2475.56 332.146 M2461.05 341.197 Q2461.05 345.896 2462.97 348.581 Q2464.91 351.243 2468.29 351.243 Q2471.67 351.243 2473.62 348.581 Q2475.56 345.896 2475.56 341.197 Q2475.56 336.497 2473.62 333.835 Q2471.67 331.15 2468.29 331.15 Q2464.91 331.15 2462.97 333.835 Q2461.05 336.497 2461.05 341.197 Z" fill="#000000" fill-rule="nonzero" fill-opacity="1" /><path clip-path="url(#clip470)" d="M2510.77 340.109 L2510.77 342.192 L2491.19 342.192 Q2491.47 346.59 2493.83 348.905 Q2496.21 351.196 2500.45 351.196 Q2502.9 351.196 2505.19 350.595 Q2507.51 349.993 2509.78 348.789 L2509.78 352.817 Q2507.48 353.789 2505.08 354.298 Q2502.67 354.808 2500.19 354.808 Q2493.99 354.808 2490.35 351.196 Q2486.74 347.585 2486.74 341.428 Q2486.74 335.062 2490.17 331.335 Q2493.62 327.586 2499.45 327.586 Q2504.68 327.586 2507.72 330.965 Q2510.77 334.322 2510.77 340.109 M2506.51 338.859 Q2506.47 335.363 2504.54 333.28 Q2502.65 331.197 2499.5 331.197 Q2495.93 331.197 2493.78 333.21 Q2491.65 335.224 2491.33 338.882 L2506.51 338.859 Z" fill="#000000" fill-rule="nonzero" fill-opacity="1" /><path clip-path="url(#clip470)" d="M2532.78 332.192 Q2532.07 331.775 2531.21 331.59 Q2530.38 331.382 2529.36 331.382 Q2525.75 331.382 2523.8 333.743 Q2521.88 336.081 2521.88 340.479 L2521.88 354.136 L2517.6 354.136 L2517.6 328.211 L2521.88 328.211 L2521.88 332.238 Q2523.22 329.877 2525.38 328.743 Q2527.53 327.586 2530.61 327.586 Q2531.05 327.586 2531.58 327.655 Q2532.11 327.701 2532.76 327.817 L2532.78 332.192 Z" fill="#000000" fill-rule="nonzero" fill-opacity="1" /></svg>
