<?xml version="1.0" encoding="utf-8"?>
<svg xmlns="http://www.w3.org/2000/svg" xmlns:xlink="http://www.w3.org/1999/xlink" width="800" height="300" viewBox="0 0 3200 1200">
<defs>
  <clipPath id="clip480">
    <rect x="0" y="0" width="3200" height="1200"/>
  </clipPath>
</defs>
<path clip-path="url(#clip480)" d="M0 1200 L3200 1200 L3200 0 L0 0  Z" fill="#ffffff" fill-rule="evenodd" fill-opacity="1"/>
<defs>
  <clipPath id="clip481">
    <rect x="1812" y="97" width="1342" height="967"/>
  </clipPath>
</defs>
<path clip-path="url(#clip480)" d="M234.669 1063.09 L1575.37 1063.09 L1575.37 97.0121 L234.669 97.0121  Z" fill="#ffffff" fill-rule="evenodd" fill-opacity="1"/>
<defs>
  <clipPath id="clip482">
    <rect x="234" y="97" width="1342" height="967"/>
  </clipPath>
</defs>
<polyline clip-path="url(#clip482)" style="stroke:#000000; stroke-linecap:round; stroke-linejoin:round; stroke-width:2; stroke-opacity:0.1; fill:none" points="400.196,1063.09 400.196,97.0121 "/>
<polyline clip-path="url(#clip482)" style="stroke:#000000; stroke-linecap:round; stroke-linejoin:round; stroke-width:2; stroke-opacity:0.1; fill:none" points="629.661,1063.09 629.661,97.0121 "/>
<polyline clip-path="url(#clip482)" style="stroke:#000000; stroke-linecap:round; stroke-linejoin:round; stroke-width:2; stroke-opacity:0.1; fill:none" points="859.127,1063.09 859.127,97.0121 "/>
<polyline clip-path="url(#clip482)" style="stroke:#000000; stroke-linecap:round; stroke-linejoin:round; stroke-width:2; stroke-opacity:0.1; fill:none" points="1088.59,1063.09 1088.59,97.0121 "/>
<polyline clip-path="url(#clip482)" style="stroke:#000000; stroke-linecap:round; stroke-linejoin:round; stroke-width:2; stroke-opacity:0.1; fill:none" points="1318.06,1063.09 1318.06,97.0121 "/>
<polyline clip-path="url(#clip482)" style="stroke:#000000; stroke-linecap:round; stroke-linejoin:round; stroke-width:2; stroke-opacity:0.1; fill:none" points="1547.52,1063.09 1547.52,97.0121 "/>
<polyline clip-path="url(#clip482)" style="stroke:#000000; stroke-linecap:round; stroke-linejoin:round; stroke-width:2; stroke-opacity:0.1; fill:none" points="234.669,1063.09 1575.37,1063.09 "/>
<polyline clip-path="url(#clip482)" style="stroke:#000000; stroke-linecap:round; stroke-linejoin:round; stroke-width:2; stroke-opacity:0.1; fill:none" points="234.669,893.688 1575.37,893.688 "/>
<polyline clip-path="url(#clip482)" style="stroke:#000000; stroke-linecap:round; stroke-linejoin:round; stroke-width:2; stroke-opacity:0.1; fill:none" points="234.669,724.285 1575.37,724.285 "/>
<polyline clip-path="url(#clip482)" style="stroke:#000000; stroke-linecap:round; stroke-linejoin:round; stroke-width:2; stroke-opacity:0.1; fill:none" points="234.669,554.883 1575.37,554.883 "/>
<polyline clip-path="url(#clip482)" style="stroke:#000000; stroke-linecap:round; stroke-linejoin:round; stroke-width:2; stroke-opacity:0.1; fill:none" points="234.669,385.481 1575.37,385.481 "/>
<polyline clip-path="url(#clip482)" style="stroke:#000000; stroke-linecap:round; stroke-linejoin:round; stroke-width:2; stroke-opacity:0.1; fill:none" points="234.669,216.079 1575.37,216.079 "/>
<polyline clip-path="url(#clip480)" style="stroke:#000000; stroke-linecap:round; stroke-linejoin:round; stroke-width:4; stroke-opacity:1; fill:none" points="234.669,1063.09 1575.37,1063.09 "/>
<polyline clip-path="url(#clip480)" style="stroke:#000000; stroke-linecap:round; stroke-linejoin:round; stroke-width:4; stroke-opacity:1; fill:none" points="400.196,1063.09 400.196,1044.19 "/>
<polyline clip-path="url(#clip480)" style="stroke:#000000; stroke-linecap:round; stroke-linejoin:round; stroke-width:4; stroke-opacity:1; fill:none" points="629.661,1063.09 629.661,1044.19 "/>
<polyline clip-path="url(#clip480)" style="stroke:#000000; stroke-linecap:round; stroke-linejoin:round; stroke-width:4; stroke-opacity:1; fill:none" points="859.127,1063.09 859.127,1044.19 "/>
<polyline clip-path="url(#clip480)" style="stroke:#000000; stroke-linecap:round; stroke-linejoin:round; stroke-width:4; stroke-opacity:1; fill:none" points="1088.59,1063.09 1088.59,1044.19 "/>
<polyline clip-path="url(#clip480)" style="stroke:#000000; stroke-linecap:round; stroke-linejoin:round; stroke-width:4; stroke-opacity:1; fill:none" points="1318.06,1063.09 1318.06,1044.19 "/>
<polyline clip-path="url(#clip480)" style="stroke:#000000; stroke-linecap:round; stroke-linejoin:round; stroke-width:4; stroke-opacity:1; fill:none" points="1547.52,1063.09 1547.52,1044.19 "/>
<path clip-path="url(#clip480)" d="M362.997 1100.41 Q359.386 1100.41 357.557 1103.97 Q355.752 1107.51 355.752 1114.64 Q355.752 1121.75 357.557 1125.32 Q359.386 1128.86 362.997 1128.86 Q366.631 1128.86 368.437 1125.32 Q370.266 1121.75 370.266 1114.64 Q370.266 1107.51 368.437 1103.97 Q366.631 1100.41 362.997 1100.41 M362.997 1096.7 Q368.807 1096.7 371.863 1101.31 Q374.941 1105.89 374.941 1114.64 Q374.941 1123.37 371.863 1127.98 Q368.807 1132.56 362.997 1132.56 Q357.187 1132.56 354.108 1127.98 Q351.053 1123.37 351.053 1114.64 Q351.053 1105.89 354.108 1101.31 Q357.187 1096.7 362.997 1096.7 Z" fill="#000000" fill-rule="nonzero" fill-opacity="1" /><path clip-path="url(#clip480)" d="M383.159 1126.01 L388.043 1126.01 L388.043 1131.89 L383.159 1131.89 L383.159 1126.01 Z" fill="#000000" fill-rule="nonzero" fill-opacity="1" /><path clip-path="url(#clip480)" d="M411.076 1101.4 L399.27 1119.85 L411.076 1119.85 L411.076 1101.4 M409.849 1097.33 L415.728 1097.33 L415.728 1119.85 L420.659 1119.85 L420.659 1123.74 L415.728 1123.74 L415.728 1131.89 L411.076 1131.89 L411.076 1123.74 L395.474 1123.74 L395.474 1119.23 L409.849 1097.33 Z" fill="#000000" fill-rule="nonzero" fill-opacity="1" /><path clip-path="url(#clip480)" d="M428.437 1097.33 L446.793 1097.33 L446.793 1101.27 L432.719 1101.27 L432.719 1109.74 Q433.737 1109.39 434.756 1109.23 Q435.774 1109.04 436.793 1109.04 Q442.58 1109.04 445.96 1112.21 Q449.339 1115.39 449.339 1120.8 Q449.339 1126.38 445.867 1129.48 Q442.395 1132.56 436.075 1132.56 Q433.899 1132.56 431.631 1132.19 Q429.386 1131.82 426.978 1131.08 L426.978 1126.38 Q429.062 1127.51 431.284 1128.07 Q433.506 1128.63 435.983 1128.63 Q439.987 1128.63 442.325 1126.52 Q444.663 1124.41 444.663 1120.8 Q444.663 1117.19 442.325 1115.08 Q439.987 1112.98 435.983 1112.98 Q434.108 1112.98 432.233 1113.39 Q430.381 1113.81 428.437 1114.69 L428.437 1097.33 Z" fill="#000000" fill-rule="nonzero" fill-opacity="1" /><path clip-path="url(#clip480)" d="M591.965 1100.41 Q588.354 1100.41 586.525 1103.97 Q584.72 1107.51 584.72 1114.64 Q584.72 1121.75 586.525 1125.32 Q588.354 1128.86 591.965 1128.86 Q595.599 1128.86 597.405 1125.32 Q599.233 1121.75 599.233 1114.64 Q599.233 1107.51 597.405 1103.97 Q595.599 1100.41 591.965 1100.41 M591.965 1096.7 Q597.775 1096.7 600.831 1101.31 Q603.909 1105.89 603.909 1114.64 Q603.909 1123.37 600.831 1127.98 Q597.775 1132.56 591.965 1132.56 Q586.155 1132.56 583.076 1127.98 Q580.021 1123.37 580.021 1114.64 Q580.021 1105.89 583.076 1101.31 Q586.155 1096.7 591.965 1096.7 Z" fill="#000000" fill-rule="nonzero" fill-opacity="1" /><path clip-path="url(#clip480)" d="M612.127 1126.01 L617.011 1126.01 L617.011 1131.89 L612.127 1131.89 L612.127 1126.01 Z" fill="#000000" fill-rule="nonzero" fill-opacity="1" /><path clip-path="url(#clip480)" d="M627.243 1097.33 L645.599 1097.33 L645.599 1101.27 L631.525 1101.27 L631.525 1109.74 Q632.543 1109.39 633.562 1109.23 Q634.58 1109.04 635.599 1109.04 Q641.386 1109.04 644.766 1112.21 Q648.145 1115.39 648.145 1120.8 Q648.145 1126.38 644.673 1129.48 Q641.201 1132.56 634.881 1132.56 Q632.705 1132.56 630.437 1132.19 Q628.192 1131.82 625.784 1131.08 L625.784 1126.38 Q627.868 1127.51 630.09 1128.07 Q632.312 1128.63 634.789 1128.63 Q638.793 1128.63 641.131 1126.52 Q643.469 1124.41 643.469 1120.8 Q643.469 1117.19 641.131 1115.08 Q638.793 1112.98 634.789 1112.98 Q632.914 1112.98 631.039 1113.39 Q629.187 1113.81 627.243 1114.69 L627.243 1097.33 Z" fill="#000000" fill-rule="nonzero" fill-opacity="1" /><path clip-path="url(#clip480)" d="M667.358 1100.41 Q663.747 1100.41 661.918 1103.97 Q660.113 1107.51 660.113 1114.64 Q660.113 1121.75 661.918 1125.32 Q663.747 1128.86 667.358 1128.86 Q670.992 1128.86 672.798 1125.32 Q674.627 1121.75 674.627 1114.64 Q674.627 1107.51 672.798 1103.97 Q670.992 1100.41 667.358 1100.41 M667.358 1096.7 Q673.168 1096.7 676.224 1101.31 Q679.302 1105.89 679.302 1114.64 Q679.302 1123.37 676.224 1127.98 Q673.168 1132.56 667.358 1132.56 Q661.548 1132.56 658.469 1127.98 Q655.414 1123.37 655.414 1114.64 Q655.414 1105.89 658.469 1101.31 Q661.548 1096.7 667.358 1096.7 Z" fill="#000000" fill-rule="nonzero" fill-opacity="1" /><path clip-path="url(#clip480)" d="M821.928 1100.41 Q818.317 1100.41 816.488 1103.97 Q814.683 1107.51 814.683 1114.64 Q814.683 1121.75 816.488 1125.32 Q818.317 1128.86 821.928 1128.86 Q825.562 1128.86 827.368 1125.32 Q829.197 1121.75 829.197 1114.64 Q829.197 1107.51 827.368 1103.97 Q825.562 1100.41 821.928 1100.41 M821.928 1096.7 Q827.738 1096.7 830.794 1101.31 Q833.873 1105.89 833.873 1114.64 Q833.873 1123.37 830.794 1127.98 Q827.738 1132.56 821.928 1132.56 Q816.118 1132.56 813.039 1127.98 Q809.984 1123.37 809.984 1114.64 Q809.984 1105.89 813.039 1101.31 Q816.118 1096.7 821.928 1096.7 Z" fill="#000000" fill-rule="nonzero" fill-opacity="1" /><path clip-path="url(#clip480)" d="M842.09 1126.01 L846.974 1126.01 L846.974 1131.89 L842.09 1131.89 L842.09 1126.01 Z" fill="#000000" fill-rule="nonzero" fill-opacity="1" /><path clip-path="url(#clip480)" d="M857.206 1097.33 L875.562 1097.33 L875.562 1101.27 L861.488 1101.27 L861.488 1109.74 Q862.507 1109.39 863.525 1109.23 Q864.544 1109.04 865.562 1109.04 Q871.349 1109.04 874.729 1112.21 Q878.108 1115.39 878.108 1120.8 Q878.108 1126.38 874.636 1129.48 Q871.164 1132.56 864.845 1132.56 Q862.669 1132.56 860.4 1132.19 Q858.155 1131.82 855.747 1131.08 L855.747 1126.38 Q857.831 1127.51 860.053 1128.07 Q862.275 1128.63 864.752 1128.63 Q868.757 1128.63 871.095 1126.52 Q873.432 1124.41 873.432 1120.8 Q873.432 1117.19 871.095 1115.08 Q868.757 1112.98 864.752 1112.98 Q862.877 1112.98 861.002 1113.39 Q859.15 1113.81 857.206 1114.69 L857.206 1097.33 Z" fill="#000000" fill-rule="nonzero" fill-opacity="1" /><path clip-path="url(#clip480)" d="M887.368 1097.33 L905.724 1097.33 L905.724 1101.27 L891.65 1101.27 L891.65 1109.74 Q892.668 1109.39 893.687 1109.23 Q894.706 1109.04 895.724 1109.04 Q901.511 1109.04 904.891 1112.21 Q908.27 1115.39 908.27 1120.8 Q908.27 1126.38 904.798 1129.48 Q901.326 1132.56 895.006 1132.56 Q892.831 1132.56 890.562 1132.19 Q888.317 1131.82 885.909 1131.08 L885.909 1126.38 Q887.993 1127.51 890.215 1128.07 Q892.437 1128.63 894.914 1128.63 Q898.918 1128.63 901.256 1126.52 Q903.594 1124.41 903.594 1120.8 Q903.594 1117.19 901.256 1115.08 Q898.918 1112.98 894.914 1112.98 Q893.039 1112.98 891.164 1113.39 Q889.312 1113.81 887.368 1114.69 L887.368 1097.33 Z" fill="#000000" fill-rule="nonzero" fill-opacity="1" /><path clip-path="url(#clip480)" d="M1050.9 1100.41 Q1047.28 1100.41 1045.46 1103.97 Q1043.65 1107.51 1043.65 1114.64 Q1043.65 1121.75 1045.46 1125.32 Q1047.28 1128.86 1050.9 1128.86 Q1054.53 1128.86 1056.34 1125.32 Q1058.16 1121.75 1058.16 1114.64 Q1058.16 1107.51 1056.34 1103.97 Q1054.53 1100.41 1050.9 1100.41 M1050.9 1096.7 Q1056.71 1096.7 1059.76 1101.31 Q1062.84 1105.89 1062.84 1114.64 Q1062.84 1123.37 1059.76 1127.98 Q1056.71 1132.56 1050.9 1132.56 Q1045.09 1132.56 1042.01 1127.98 Q1038.95 1123.37 1038.95 1114.64 Q1038.95 1105.89 1042.01 1101.31 Q1045.09 1096.7 1050.9 1096.7 Z" fill="#000000" fill-rule="nonzero" fill-opacity="1" /><path clip-path="url(#clip480)" d="M1071.06 1126.01 L1075.94 1126.01 L1075.94 1131.89 L1071.06 1131.89 L1071.06 1126.01 Z" fill="#000000" fill-rule="nonzero" fill-opacity="1" /><path clip-path="url(#clip480)" d="M1096.71 1112.75 Q1093.56 1112.75 1091.71 1114.9 Q1089.88 1117.05 1089.88 1120.8 Q1089.88 1124.53 1091.71 1126.7 Q1093.56 1128.86 1096.71 1128.86 Q1099.85 1128.86 1101.68 1126.7 Q1103.53 1124.53 1103.53 1120.8 Q1103.53 1117.05 1101.68 1114.9 Q1099.85 1112.75 1096.71 1112.75 M1105.99 1098.09 L1105.99 1102.35 Q1104.23 1101.52 1102.42 1101.08 Q1100.64 1100.64 1098.88 1100.64 Q1094.25 1100.64 1091.8 1103.76 Q1089.37 1106.89 1089.02 1113.21 Q1090.39 1111.2 1092.45 1110.13 Q1094.51 1109.04 1096.98 1109.04 Q1102.19 1109.04 1105.2 1112.21 Q1108.23 1115.36 1108.23 1120.8 Q1108.23 1126.13 1105.09 1129.34 Q1101.94 1132.56 1096.71 1132.56 Q1090.71 1132.56 1087.54 1127.98 Q1084.37 1123.37 1084.37 1114.64 Q1084.37 1106.45 1088.26 1101.59 Q1092.15 1096.7 1098.7 1096.7 Q1100.46 1096.7 1102.24 1097.05 Q1104.04 1097.4 1105.99 1098.09 Z" fill="#000000" fill-rule="nonzero" fill-opacity="1" /><path clip-path="url(#clip480)" d="M1126.29 1100.41 Q1122.68 1100.41 1120.85 1103.97 Q1119.04 1107.51 1119.04 1114.64 Q1119.04 1121.75 1120.85 1125.32 Q1122.68 1128.86 1126.29 1128.86 Q1129.92 1128.86 1131.73 1125.32 Q1133.56 1121.75 1133.56 1114.64 Q1133.56 1107.51 1131.73 1103.97 Q1129.92 1100.41 1126.29 1100.41 M1126.29 1096.7 Q1132.1 1096.7 1135.15 1101.31 Q1138.23 1105.89 1138.23 1114.64 Q1138.23 1123.37 1135.15 1127.98 Q1132.1 1132.56 1126.29 1132.56 Q1120.48 1132.56 1117.4 1127.98 Q1114.34 1123.37 1114.34 1114.64 Q1114.34 1105.89 1117.4 1101.31 Q1120.48 1096.7 1126.29 1096.7 Z" fill="#000000" fill-rule="nonzero" fill-opacity="1" /><path clip-path="url(#clip480)" d="M1280.86 1100.41 Q1277.25 1100.41 1275.42 1103.97 Q1273.61 1107.51 1273.61 1114.64 Q1273.61 1121.75 1275.42 1125.32 Q1277.25 1128.86 1280.86 1128.86 Q1284.49 1128.86 1286.3 1125.32 Q1288.13 1121.75 1288.13 1114.64 Q1288.13 1107.51 1286.3 1103.97 Q1284.49 1100.41 1280.86 1100.41 M1280.86 1096.7 Q1286.67 1096.7 1289.72 1101.31 Q1292.8 1105.89 1292.8 1114.64 Q1292.8 1123.37 1289.72 1127.98 Q1286.67 1132.56 1280.86 1132.56 Q1275.05 1132.56 1271.97 1127.98 Q1268.91 1123.37 1268.91 1114.64 Q1268.91 1105.89 1271.97 1101.31 Q1275.05 1096.7 1280.86 1096.7 Z" fill="#000000" fill-rule="nonzero" fill-opacity="1" /><path clip-path="url(#clip480)" d="M1301.02 1126.01 L1305.91 1126.01 L1305.91 1131.89 L1301.02 1131.89 L1301.02 1126.01 Z" fill="#000000" fill-rule="nonzero" fill-opacity="1" /><path clip-path="url(#clip480)" d="M1326.67 1112.75 Q1323.52 1112.75 1321.67 1114.9 Q1319.84 1117.05 1319.84 1120.8 Q1319.84 1124.53 1321.67 1126.7 Q1323.52 1128.86 1326.67 1128.86 Q1329.82 1128.86 1331.65 1126.7 Q1333.5 1124.53 1333.5 1120.8 Q1333.5 1117.05 1331.65 1114.9 Q1329.82 1112.75 1326.67 1112.75 M1335.95 1098.09 L1335.95 1102.35 Q1334.19 1101.52 1332.39 1101.08 Q1330.6 1100.64 1328.85 1100.64 Q1324.22 1100.64 1321.76 1103.76 Q1319.33 1106.89 1318.98 1113.21 Q1320.35 1111.2 1322.41 1110.13 Q1324.47 1109.04 1326.95 1109.04 Q1332.16 1109.04 1335.16 1112.21 Q1338.2 1115.36 1338.2 1120.8 Q1338.2 1126.13 1335.05 1129.34 Q1331.9 1132.56 1326.67 1132.56 Q1320.67 1132.56 1317.5 1127.98 Q1314.33 1123.37 1314.33 1114.64 Q1314.33 1106.45 1318.22 1101.59 Q1322.11 1096.7 1328.66 1096.7 Q1330.42 1096.7 1332.2 1097.05 Q1334.01 1097.4 1335.95 1098.09 Z" fill="#000000" fill-rule="nonzero" fill-opacity="1" /><path clip-path="url(#clip480)" d="M1346.3 1097.33 L1364.66 1097.33 L1364.66 1101.27 L1350.58 1101.27 L1350.58 1109.74 Q1351.6 1109.39 1352.62 1109.23 Q1353.64 1109.04 1354.66 1109.04 Q1360.44 1109.04 1363.82 1112.21 Q1367.2 1115.39 1367.2 1120.8 Q1367.2 1126.38 1363.73 1129.48 Q1360.26 1132.56 1353.94 1132.56 Q1351.76 1132.56 1349.49 1132.19 Q1347.25 1131.82 1344.84 1131.08 L1344.84 1126.38 Q1346.92 1127.51 1349.15 1128.07 Q1351.37 1128.63 1353.84 1128.63 Q1357.85 1128.63 1360.19 1126.52 Q1362.53 1124.41 1362.53 1120.8 Q1362.53 1117.19 1360.19 1115.08 Q1357.85 1112.98 1353.84 1112.98 Q1351.97 1112.98 1350.09 1113.39 Q1348.24 1113.81 1346.3 1114.69 L1346.3 1097.33 Z" fill="#000000" fill-rule="nonzero" fill-opacity="1" /><path clip-path="url(#clip480)" d="M1509.83 1100.41 Q1506.22 1100.41 1504.39 1103.97 Q1502.58 1107.51 1502.58 1114.64 Q1502.58 1121.75 1504.39 1125.32 Q1506.22 1128.86 1509.83 1128.86 Q1513.46 1128.86 1515.27 1125.32 Q1517.1 1121.75 1517.1 1114.64 Q1517.1 1107.51 1515.27 1103.97 Q1513.46 1100.41 1509.83 1100.41 M1509.83 1096.7 Q1515.64 1096.7 1518.69 1101.31 Q1521.77 1105.89 1521.77 1114.64 Q1521.77 1123.37 1518.69 1127.98 Q1515.64 1132.56 1509.83 1132.56 Q1504.02 1132.56 1500.94 1127.98 Q1497.88 1123.37 1497.88 1114.64 Q1497.88 1105.89 1500.94 1101.31 Q1504.02 1096.7 1509.83 1096.7 Z" fill="#000000" fill-rule="nonzero" fill-opacity="1" /><path clip-path="url(#clip480)" d="M1529.99 1126.01 L1534.87 1126.01 L1534.87 1131.89 L1529.99 1131.89 L1529.99 1126.01 Z" fill="#000000" fill-rule="nonzero" fill-opacity="1" /><path clip-path="url(#clip480)" d="M1543.88 1097.33 L1566.1 1097.33 L1566.1 1099.32 L1553.55 1131.89 L1548.67 1131.89 L1560.47 1101.27 L1543.88 1101.27 L1543.88 1097.33 Z" fill="#000000" fill-rule="nonzero" fill-opacity="1" /><path clip-path="url(#clip480)" d="M1585.22 1100.41 Q1581.61 1100.41 1579.78 1103.97 Q1577.97 1107.51 1577.97 1114.64 Q1577.97 1121.75 1579.78 1125.32 Q1581.61 1128.86 1585.22 1128.86 Q1588.85 1128.86 1590.66 1125.32 Q1592.49 1121.75 1592.49 1114.64 Q1592.49 1107.51 1590.66 1103.97 Q1588.85 1100.41 1585.22 1100.41 M1585.22 1096.7 Q1591.03 1096.7 1594.09 1101.31 Q1597.16 1105.89 1597.16 1114.64 Q1597.16 1123.37 1594.09 1127.98 Q1591.03 1132.56 1585.22 1132.56 Q1579.41 1132.56 1576.33 1127.98 Q1573.28 1123.37 1573.28 1114.64 Q1573.28 1105.89 1576.33 1101.31 Q1579.41 1096.7 1585.22 1096.7 Z" fill="#000000" fill-rule="nonzero" fill-opacity="1" /><path clip-path="url(#clip480)" d="M895.503 1217.76 L895.503 1233.51 L889.615 1233.51 L889.615 1184.53 Q889.615 1170.01 903.174 1170.01 Q916.988 1170.01 916.988 1182.27 Q916.988 1190.99 911.513 1194.17 Q920.425 1197.04 920.425 1205.54 Q920.425 1220.62 905.084 1220.62 Q898.336 1220.62 895.503 1217.76 M895.503 1210.12 Q899.036 1215.63 905.307 1215.63 Q914.473 1215.63 914.473 1205.63 Q914.473 1196.66 899.705 1197.36 L899.705 1191.94 Q911.259 1191.94 911.259 1181.76 Q911.259 1174.79 903.811 1174.79 Q895.503 1174.79 895.503 1184.72 L895.503 1210.12 Z" fill="#000000" fill-rule="nonzero" fill-opacity="1" /><polyline clip-path="url(#clip480)" style="stroke:#000000; stroke-linecap:round; stroke-linejoin:round; stroke-width:4; stroke-opacity:1; fill:none" points="234.669,1063.09 234.669,97.0121 "/>
<polyline clip-path="url(#clip480)" style="stroke:#000000; stroke-linecap:round; stroke-linejoin:round; stroke-width:4; stroke-opacity:1; fill:none" points="234.669,1063.09 253.566,1063.09 "/>
<polyline clip-path="url(#clip480)" style="stroke:#000000; stroke-linecap:round; stroke-linejoin:round; stroke-width:4; stroke-opacity:1; fill:none" points="234.669,893.688 253.566,893.688 "/>
<polyline clip-path="url(#clip480)" style="stroke:#000000; stroke-linecap:round; stroke-linejoin:round; stroke-width:4; stroke-opacity:1; fill:none" points="234.669,724.285 253.566,724.285 "/>
<polyline clip-path="url(#clip480)" style="stroke:#000000; stroke-linecap:round; stroke-linejoin:round; stroke-width:4; stroke-opacity:1; fill:none" points="234.669,554.883 253.566,554.883 "/>
<polyline clip-path="url(#clip480)" style="stroke:#000000; stroke-linecap:round; stroke-linejoin:round; stroke-width:4; stroke-opacity:1; fill:none" points="234.669,385.481 253.566,385.481 "/>
<polyline clip-path="url(#clip480)" style="stroke:#000000; stroke-linecap:round; stroke-linejoin:round; stroke-width:4; stroke-opacity:1; fill:none" points="234.669,216.079 253.566,216.079 "/>
<path clip-path="url(#clip480)" d="M129.493 1048.89 Q125.882 1048.89 124.053 1052.45 Q122.248 1055.99 122.248 1063.12 Q122.248 1070.23 124.053 1073.8 Q125.882 1077.34 129.493 1077.34 Q133.127 1077.34 134.933 1073.8 Q136.762 1070.23 136.762 1063.12 Q136.762 1055.99 134.933 1052.45 Q133.127 1048.89 129.493 1048.89 M129.493 1045.18 Q135.303 1045.18 138.359 1049.79 Q141.437 1054.37 141.437 1063.12 Q141.437 1071.85 138.359 1076.46 Q135.303 1081.04 129.493 1081.04 Q123.683 1081.04 120.604 1076.46 Q117.549 1071.85 117.549 1063.12 Q117.549 1054.37 120.604 1049.79 Q123.683 1045.18 129.493 1045.18 Z" fill="#000000" fill-rule="nonzero" fill-opacity="1" /><path clip-path="url(#clip480)" d="M149.655 1074.49 L154.539 1074.49 L154.539 1080.37 L149.655 1080.37 L149.655 1074.49 Z" fill="#000000" fill-rule="nonzero" fill-opacity="1" /><path clip-path="url(#clip480)" d="M174.724 1048.89 Q171.113 1048.89 169.285 1052.45 Q167.479 1055.99 167.479 1063.12 Q167.479 1070.23 169.285 1073.8 Q171.113 1077.34 174.724 1077.34 Q178.359 1077.34 180.164 1073.8 Q181.993 1070.23 181.993 1063.12 Q181.993 1055.99 180.164 1052.45 Q178.359 1048.89 174.724 1048.89 M174.724 1045.18 Q180.534 1045.18 183.59 1049.79 Q186.669 1054.37 186.669 1063.12 Q186.669 1071.85 183.59 1076.46 Q180.534 1081.04 174.724 1081.04 Q168.914 1081.04 165.835 1076.46 Q162.78 1071.85 162.78 1063.12 Q162.78 1054.37 165.835 1049.79 Q168.914 1045.18 174.724 1045.18 Z" fill="#000000" fill-rule="nonzero" fill-opacity="1" /><path clip-path="url(#clip480)" d="M124.516 907.032 L140.836 907.032 L140.836 910.968 L118.891 910.968 L118.891 907.032 Q121.553 904.278 126.137 899.648 Q130.743 894.996 131.924 893.653 Q134.169 891.13 135.049 889.394 Q135.951 887.634 135.951 885.945 Q135.951 883.19 134.007 881.454 Q132.086 879.718 128.984 879.718 Q126.785 879.718 124.331 880.482 Q121.901 881.246 119.123 882.797 L119.123 878.074 Q121.947 876.94 124.401 876.361 Q126.854 875.783 128.891 875.783 Q134.262 875.783 137.456 878.468 Q140.65 881.153 140.65 885.644 Q140.65 887.773 139.84 889.695 Q139.053 891.593 136.947 894.185 Q136.368 894.857 133.266 898.074 Q130.164 901.269 124.516 907.032 Z" fill="#000000" fill-rule="nonzero" fill-opacity="1" /><path clip-path="url(#clip480)" d="M150.65 905.088 L155.535 905.088 L155.535 910.968 L150.65 910.968 L150.65 905.088 Z" fill="#000000" fill-rule="nonzero" fill-opacity="1" /><path clip-path="url(#clip480)" d="M165.766 876.408 L184.122 876.408 L184.122 880.343 L170.048 880.343 L170.048 888.815 Q171.067 888.468 172.085 888.306 Q173.104 888.121 174.122 888.121 Q179.909 888.121 183.289 891.292 Q186.669 894.463 186.669 899.88 Q186.669 905.458 183.197 908.56 Q179.724 911.639 173.405 911.639 Q171.229 911.639 168.96 911.269 Q166.715 910.898 164.308 910.157 L164.308 905.458 Q166.391 906.593 168.613 907.148 Q170.835 907.704 173.312 907.704 Q177.317 907.704 179.655 905.597 Q181.993 903.491 181.993 899.88 Q181.993 896.269 179.655 894.162 Q177.317 892.056 173.312 892.056 Q171.437 892.056 169.562 892.472 Q167.71 892.889 165.766 893.769 L165.766 876.408 Z" fill="#000000" fill-rule="nonzero" fill-opacity="1" /><path clip-path="url(#clip480)" d="M119.539 707.005 L137.896 707.005 L137.896 710.941 L123.822 710.941 L123.822 719.413 Q124.84 719.066 125.859 718.904 Q126.877 718.718 127.896 718.718 Q133.683 718.718 137.062 721.89 Q140.442 725.061 140.442 730.478 Q140.442 736.056 136.97 739.158 Q133.498 742.237 127.178 742.237 Q125.002 742.237 122.734 741.866 Q120.489 741.496 118.081 740.755 L118.081 736.056 Q120.164 737.191 122.387 737.746 Q124.609 738.302 127.086 738.302 Q131.09 738.302 133.428 736.195 Q135.766 734.089 135.766 730.478 Q135.766 726.866 133.428 724.76 Q131.09 722.654 127.086 722.654 Q125.211 722.654 123.336 723.07 Q121.484 723.487 119.539 724.367 L119.539 707.005 Z" fill="#000000" fill-rule="nonzero" fill-opacity="1" /><path clip-path="url(#clip480)" d="M149.655 735.686 L154.539 735.686 L154.539 741.565 L149.655 741.565 L149.655 735.686 Z" fill="#000000" fill-rule="nonzero" fill-opacity="1" /><path clip-path="url(#clip480)" d="M174.724 710.084 Q171.113 710.084 169.285 713.649 Q167.479 717.191 167.479 724.32 Q167.479 731.427 169.285 734.991 Q171.113 738.533 174.724 738.533 Q178.359 738.533 180.164 734.991 Q181.993 731.427 181.993 724.32 Q181.993 717.191 180.164 713.649 Q178.359 710.084 174.724 710.084 M174.724 706.38 Q180.534 706.38 183.59 710.987 Q186.669 715.57 186.669 724.32 Q186.669 733.047 183.59 737.653 Q180.534 742.237 174.724 742.237 Q168.914 742.237 165.835 737.653 Q162.78 733.047 162.78 724.32 Q162.78 715.57 165.835 710.987 Q168.914 706.38 174.724 706.38 Z" fill="#000000" fill-rule="nonzero" fill-opacity="1" /><path clip-path="url(#clip480)" d="M119.308 537.603 L141.53 537.603 L141.53 539.594 L128.984 572.163 L124.1 572.163 L135.905 541.538 L119.308 541.538 L119.308 537.603 Z" fill="#000000" fill-rule="nonzero" fill-opacity="1" /><path clip-path="url(#clip480)" d="M150.65 566.284 L155.535 566.284 L155.535 572.163 L150.65 572.163 L150.65 566.284 Z" fill="#000000" fill-rule="nonzero" fill-opacity="1" /><path clip-path="url(#clip480)" d="M165.766 537.603 L184.122 537.603 L184.122 541.538 L170.048 541.538 L170.048 550.011 Q171.067 549.663 172.085 549.501 Q173.104 549.316 174.122 549.316 Q179.909 549.316 183.289 552.487 Q186.669 555.659 186.669 561.075 Q186.669 566.654 183.197 569.756 Q179.724 572.835 173.405 572.835 Q171.229 572.835 168.96 572.464 Q166.715 572.094 164.308 571.353 L164.308 566.654 Q166.391 567.788 168.613 568.344 Q170.835 568.899 173.312 568.899 Q177.317 568.899 179.655 566.793 Q181.993 564.686 181.993 561.075 Q181.993 557.464 179.655 555.358 Q177.317 553.251 173.312 553.251 Q171.437 553.251 169.562 553.668 Q167.71 554.085 165.766 554.964 L165.766 537.603 Z" fill="#000000" fill-rule="nonzero" fill-opacity="1" /><path clip-path="url(#clip480)" d="M90.1415 398.826 L97.7803 398.826 L97.7803 372.46 L89.4702 374.127 L89.4702 369.868 L97.734 368.201 L102.41 368.201 L102.41 398.826 L110.049 398.826 L110.049 402.761 L90.1415 402.761 L90.1415 398.826 Z" fill="#000000" fill-rule="nonzero" fill-opacity="1" /><path clip-path="url(#clip480)" d="M129.493 371.28 Q125.882 371.28 124.053 374.845 Q122.248 378.386 122.248 385.516 Q122.248 392.622 124.053 396.187 Q125.882 399.729 129.493 399.729 Q133.127 399.729 134.933 396.187 Q136.762 392.622 136.762 385.516 Q136.762 378.386 134.933 374.845 Q133.127 371.28 129.493 371.28 M129.493 367.576 Q135.303 367.576 138.359 372.183 Q141.437 376.766 141.437 385.516 Q141.437 394.243 138.359 398.849 Q135.303 403.432 129.493 403.432 Q123.683 403.432 120.604 398.849 Q117.549 394.243 117.549 385.516 Q117.549 376.766 120.604 372.183 Q123.683 367.576 129.493 367.576 Z" fill="#000000" fill-rule="nonzero" fill-opacity="1" /><path clip-path="url(#clip480)" d="M149.655 396.882 L154.539 396.882 L154.539 402.761 L149.655 402.761 L149.655 396.882 Z" fill="#000000" fill-rule="nonzero" fill-opacity="1" /><path clip-path="url(#clip480)" d="M174.724 371.28 Q171.113 371.28 169.285 374.845 Q167.479 378.386 167.479 385.516 Q167.479 392.622 169.285 396.187 Q171.113 399.729 174.724 399.729 Q178.359 399.729 180.164 396.187 Q181.993 392.622 181.993 385.516 Q181.993 378.386 180.164 374.845 Q178.359 371.28 174.724 371.28 M174.724 367.576 Q180.534 367.576 183.59 372.183 Q186.669 376.766 186.669 385.516 Q186.669 394.243 183.59 398.849 Q180.534 403.432 174.724 403.432 Q168.914 403.432 165.835 398.849 Q162.78 394.243 162.78 385.516 Q162.78 376.766 165.835 372.183 Q168.914 367.576 174.724 367.576 Z" fill="#000000" fill-rule="nonzero" fill-opacity="1" /><path clip-path="url(#clip480)" d="M91.1368 229.424 L98.7757 229.424 L98.7757 203.058 L90.4655 204.725 L90.4655 200.466 L98.7294 198.799 L103.405 198.799 L103.405 229.424 L111.044 229.424 L111.044 233.359 L91.1368 233.359 L91.1368 229.424 Z" fill="#000000" fill-rule="nonzero" fill-opacity="1" /><path clip-path="url(#clip480)" d="M124.516 229.424 L140.836 229.424 L140.836 233.359 L118.891 233.359 L118.891 229.424 Q121.553 226.669 126.137 222.04 Q130.743 217.387 131.924 216.044 Q134.169 213.521 135.049 211.785 Q135.951 210.026 135.951 208.336 Q135.951 205.581 134.007 203.845 Q132.086 202.109 128.984 202.109 Q126.785 202.109 124.331 202.873 Q121.901 203.637 119.123 205.188 L119.123 200.466 Q121.947 199.331 124.401 198.753 Q126.854 198.174 128.891 198.174 Q134.262 198.174 137.456 200.859 Q140.65 203.544 140.65 208.035 Q140.65 210.165 139.84 212.086 Q139.053 213.984 136.947 216.577 Q136.368 217.248 133.266 220.465 Q130.164 223.66 124.516 229.424 Z" fill="#000000" fill-rule="nonzero" fill-opacity="1" /><path clip-path="url(#clip480)" d="M150.65 227.479 L155.535 227.479 L155.535 233.359 L150.65 233.359 L150.65 227.479 Z" fill="#000000" fill-rule="nonzero" fill-opacity="1" /><path clip-path="url(#clip480)" d="M165.766 198.799 L184.122 198.799 L184.122 202.734 L170.048 202.734 L170.048 211.206 Q171.067 210.859 172.085 210.697 Q173.104 210.512 174.122 210.512 Q179.909 210.512 183.289 213.683 Q186.669 216.854 186.669 222.271 Q186.669 227.85 183.197 230.952 Q179.724 234.03 173.405 234.03 Q171.229 234.03 168.96 233.66 Q166.715 233.29 164.308 232.549 L164.308 227.85 Q166.391 228.984 168.613 229.54 Q170.835 230.095 173.312 230.095 Q177.317 230.095 179.655 227.989 Q181.993 225.882 181.993 222.271 Q181.993 218.66 179.655 216.553 Q177.317 214.447 173.312 214.447 Q171.437 214.447 169.562 214.864 Q167.71 215.28 165.766 216.16 L165.766 198.799 Z" fill="#000000" fill-rule="nonzero" fill-opacity="1" /><path clip-path="url(#clip480)" d="M-15.0223 693.361 L21.9306 693.361 L21.9306 685.594 Q21.9306 675.759 17.4746 671.208 Q13.0186 666.625 3.40641 666.625 Q-6.14215 666.625 -10.5663 671.208 Q-15.0223 675.759 -15.0223 685.594 L-15.0223 693.361 M-20.3058 699.79 L-20.3058 686.581 Q-20.3058 672.768 -14.5449 666.306 Q-8.81574 659.845 3.40641 659.845 Q15.6922 659.845 21.4532 666.338 Q27.2142 672.831 27.2142 686.581 L27.2142 699.79 L-20.3058 699.79 Z" fill="#000000" fill-rule="nonzero" fill-opacity="1" /><path clip-path="url(#clip480)" d="M7.92607 619.359 L10.7906 619.359 L10.7906 646.286 Q16.8381 645.904 20.0209 642.658 Q23.1719 639.379 23.1719 633.555 Q23.1719 630.181 22.3444 627.03 Q21.5169 623.847 19.8618 620.728 L25.3999 620.728 Q26.7367 623.879 27.437 627.189 Q28.1372 630.499 28.1372 633.905 Q28.1372 642.435 23.1719 647.432 Q18.2067 652.397 9.74029 652.397 Q0.987446 652.397 -4.13695 647.687 Q-9.29317 642.944 -9.29317 634.923 Q-9.29317 627.73 -4.6462 623.561 Q-0.0310669 619.359 7.92607 619.359 M6.20733 625.216 Q1.40122 625.279 -1.46335 627.921 Q-4.32792 630.531 -4.32792 634.86 Q-4.32792 639.761 -1.55884 642.721 Q1.21025 645.65 6.23915 646.095 L6.20733 625.216 Z" fill="#000000" fill-rule="nonzero" fill-opacity="1" /><path clip-path="url(#clip480)" d="M5.69807 580.115 L27.2142 580.115 L27.2142 585.971 L5.88904 585.971 Q0.828303 585.971 -1.68615 587.944 Q-4.2006 589.918 -4.2006 593.865 Q-4.2006 598.607 -1.17689 601.344 Q1.84682 604.082 7.0667 604.082 L27.2142 604.082 L27.2142 609.97 L-8.4338 609.97 L-8.4338 604.082 L-2.89563 604.082 Q-6.11032 601.981 -7.70174 599.148 Q-9.29317 596.284 -9.29317 592.56 Q-9.29317 586.417 -5.47375 583.266 Q-1.68615 580.115 5.69807 580.115 Z" fill="#000000" fill-rule="nonzero" fill-opacity="1" /><path clip-path="url(#clip480)" d="M-7.38346 545.708 L-1.84529 545.708 Q-3.11843 548.191 -3.75501 550.864 Q-4.39158 553.538 -4.39158 556.402 Q-4.39158 560.763 -3.05478 562.959 Q-1.71798 565.123 0.955618 565.123 Q2.99264 565.123 4.1703 563.564 Q5.31613 562.004 6.36647 557.294 L6.81207 555.288 Q8.14887 549.05 10.5997 546.44 Q13.0186 543.798 17.3791 543.798 Q22.3444 543.798 25.2408 547.745 Q28.1372 551.66 28.1372 558.535 Q28.1372 561.399 27.5643 564.519 Q27.0232 567.606 25.9092 571.044 L19.8618 571.044 Q21.5487 567.797 22.408 564.646 Q23.2356 561.495 23.2356 558.408 Q23.2356 554.27 21.8351 552.042 Q20.4029 549.814 17.8247 549.814 Q15.4376 549.814 14.1645 551.437 Q12.8913 553.029 11.7137 558.471 L11.2362 560.508 Q10.0904 565.951 7.7351 568.37 Q5.34796 570.789 1.21025 570.789 Q-3.81866 570.789 -6.55592 567.224 Q-9.29317 563.659 -9.29317 557.103 Q-9.29317 553.856 -8.81574 550.992 Q-8.33831 548.127 -7.38346 545.708 Z" fill="#000000" fill-rule="nonzero" fill-opacity="1" /><path clip-path="url(#clip480)" d="M-8.4338 534.473 L-8.4338 528.616 L27.2142 528.616 L27.2142 534.473 L-8.4338 534.473 M-22.311 534.473 L-22.311 528.616 L-14.895 528.616 L-14.895 534.473 L-22.311 534.473 Z" fill="#000000" fill-rule="nonzero" fill-opacity="1" /><path clip-path="url(#clip480)" d="M-18.5553 510.569 L-8.4338 510.569 L-8.4338 498.506 L-3.88232 498.506 L-3.88232 510.569 L15.4694 510.569 Q19.8299 510.569 21.0713 509.392 Q22.3126 508.182 22.3126 504.522 L22.3126 498.506 L27.2142 498.506 L27.2142 504.522 Q27.2142 511.301 24.6997 513.879 Q22.1534 516.458 15.4694 516.458 L-3.88232 516.458 L-3.88232 520.754 L-8.4338 520.754 L-8.4338 516.458 L-18.5553 516.458 L-18.5553 510.569 Z" fill="#000000" fill-rule="nonzero" fill-opacity="1" /><path clip-path="url(#clip480)" d="M30.5243 475.972 Q36.89 478.454 38.8316 480.81 Q40.7731 483.165 40.7731 487.112 L40.7731 491.79 L35.8715 491.79 L35.8715 488.353 Q35.8715 485.934 34.7257 484.597 Q33.5799 483.26 29.3148 481.637 L26.6412 480.587 L-8.4338 495.005 L-8.4338 488.799 L19.448 477.659 L-8.4338 466.519 L-8.4338 460.312 L30.5243 475.972 Z" fill="#000000" fill-rule="nonzero" fill-opacity="1" /><path clip-path="url(#clip480)" d="M684.023 18.8205 L684.023 41.5461 L694.312 41.5461 Q700.024 41.5461 703.143 38.5889 Q706.263 35.6318 706.263 30.163 Q706.263 24.7348 703.143 21.7777 Q700.024 18.8205 694.312 18.8205 L684.023 18.8205 M675.84 12.096 L694.312 12.096 Q704.48 12.096 709.665 16.714 Q714.891 21.2916 714.891 30.163 Q714.891 39.1155 709.665 43.6931 Q704.48 48.2706 694.312 48.2706 L684.023 48.2706 L684.023 72.576 L675.84 72.576 L675.84 12.096 Z" fill="#000000" fill-rule="nonzero" fill-opacity="1" /><path clip-path="url(#clip480)" d="M740.169 32.4315 Q734.173 32.4315 730.689 37.1306 Q727.206 41.7891 727.206 49.9314 Q727.206 58.0738 730.649 62.7728 Q734.133 67.4314 740.169 67.4314 Q746.123 67.4314 749.607 62.7323 Q753.091 58.0333 753.091 49.9314 Q753.091 41.8701 749.607 37.1711 Q746.123 32.4315 740.169 32.4315 M740.169 26.1121 Q749.891 26.1121 755.44 32.4315 Q760.99 38.7509 760.99 49.9314 Q760.99 61.0714 755.44 67.4314 Q749.891 73.7508 740.169 73.7508 Q730.406 73.7508 724.856 67.4314 Q719.347 61.0714 719.347 49.9314 Q719.347 38.7509 724.856 32.4315 Q730.406 26.1121 740.169 26.1121 Z" fill="#000000" fill-rule="nonzero" fill-opacity="1" /><path clip-path="url(#clip480)" d="M802.269 28.5427 L802.269 35.5912 Q799.109 33.9709 795.706 33.1607 Q792.304 32.3505 788.658 32.3505 Q783.108 32.3505 780.313 34.0519 Q777.558 35.7533 777.558 39.156 Q777.558 41.7486 779.543 43.2475 Q781.528 44.7058 787.524 46.0426 L790.076 46.6097 Q798.015 48.3111 801.337 51.4303 Q804.699 54.509 804.699 60.0587 Q804.699 66.3781 799.676 70.0644 Q794.694 73.7508 785.944 73.7508 Q782.298 73.7508 778.328 73.0216 Q774.399 72.3329 770.024 70.9151 L770.024 63.2184 Q774.156 65.3654 778.166 66.4591 Q782.176 67.5124 786.106 67.5124 Q791.372 67.5124 794.208 65.73 Q797.043 63.9071 797.043 60.6258 Q797.043 57.5877 794.977 55.9673 Q792.952 54.3469 786.025 52.8481 L783.432 52.2405 Q776.505 50.7821 773.426 47.7845 Q770.348 44.7463 770.348 39.4801 Q770.348 33.0797 774.885 29.5959 Q779.422 26.1121 787.767 26.1121 Q791.899 26.1121 795.544 26.7198 Q799.19 27.3274 802.269 28.5427 Z" fill="#000000" fill-rule="nonzero" fill-opacity="1" /><path clip-path="url(#clip480)" d="M823.941 14.324 L823.941 27.2059 L839.294 27.2059 L839.294 32.9987 L823.941 32.9987 L823.941 57.6282 Q823.941 63.1779 825.44 64.7578 Q826.979 66.3376 831.638 66.3376 L839.294 66.3376 L839.294 72.576 L831.638 72.576 Q823.01 72.576 819.728 69.3758 Q816.447 66.1351 816.447 57.6282 L816.447 32.9987 L810.978 32.9987 L810.978 27.2059 L816.447 27.2059 L816.447 14.324 L823.941 14.324 Z" fill="#000000" fill-rule="nonzero" fill-opacity="1" /><path clip-path="url(#clip480)" d="M887.905 48.0275 L887.905 51.6733 L853.634 51.6733 Q854.121 59.3701 858.252 63.421 Q862.425 67.4314 869.838 67.4314 Q874.132 67.4314 878.142 66.3781 Q882.193 65.3249 886.163 63.2184 L886.163 70.267 Q882.153 71.9684 877.94 72.8596 Q873.727 73.7508 869.392 73.7508 Q858.536 73.7508 852.176 67.4314 Q845.857 61.1119 845.857 50.3365 Q845.857 39.1965 851.852 32.6746 Q857.888 26.1121 868.096 26.1121 Q877.251 26.1121 882.558 32.0264 Q887.905 37.9003 887.905 48.0275 M880.451 45.84 Q880.37 39.7232 877.008 36.0774 Q873.686 32.4315 868.177 32.4315 Q861.939 32.4315 858.171 35.9558 Q854.445 39.4801 853.877 45.8805 L880.451 45.84 Z" fill="#000000" fill-rule="nonzero" fill-opacity="1" /><path clip-path="url(#clip480)" d="M926.429 34.1734 Q925.173 33.4443 923.675 33.1202 Q922.216 32.7556 920.434 32.7556 Q914.114 32.7556 910.712 36.8875 Q907.349 40.9789 907.349 48.6757 L907.349 72.576 L899.855 72.576 L899.855 27.2059 L907.349 27.2059 L907.349 34.2544 Q909.699 30.1225 913.466 28.1376 Q917.234 26.1121 922.621 26.1121 Q923.391 26.1121 924.323 26.2337 Q925.254 26.3147 926.389 26.5172 L926.429 34.1734 Z" fill="#000000" fill-rule="nonzero" fill-opacity="1" /><path clip-path="url(#clip480)" d="M934.247 27.2059 L941.701 27.2059 L941.701 72.576 L934.247 72.576 L934.247 27.2059 M934.247 9.54393 L941.701 9.54393 L941.701 18.9825 L934.247 18.9825 L934.247 9.54393 Z" fill="#000000" fill-rule="nonzero" fill-opacity="1" /><path clip-path="url(#clip480)" d="M974.878 32.4315 Q968.883 32.4315 965.399 37.1306 Q961.915 41.7891 961.915 49.9314 Q961.915 58.0738 965.358 62.7728 Q968.842 67.4314 974.878 67.4314 Q980.833 67.4314 984.317 62.7323 Q987.8 58.0333 987.8 49.9314 Q987.8 41.8701 984.317 37.1711 Q980.833 32.4315 974.878 32.4315 M974.878 26.1121 Q984.6 26.1121 990.15 32.4315 Q995.7 38.7509 995.7 49.9314 Q995.7 61.0714 990.15 67.4314 Q984.6 73.7508 974.878 73.7508 Q965.115 73.7508 959.566 67.4314 Q954.056 61.0714 954.056 49.9314 Q954.056 38.7509 959.566 32.4315 Q965.115 26.1121 974.878 26.1121 Z" fill="#000000" fill-rule="nonzero" fill-opacity="1" /><path clip-path="url(#clip480)" d="M1034.35 34.1734 Q1033.09 33.4443 1031.59 33.1202 Q1030.13 32.7556 1028.35 32.7556 Q1022.03 32.7556 1018.63 36.8875 Q1015.27 40.9789 1015.27 48.6757 L1015.27 72.576 L1007.77 72.576 L1007.77 27.2059 L1015.27 27.2059 L1015.27 34.2544 Q1017.62 30.1225 1021.38 28.1376 Q1025.15 26.1121 1030.54 26.1121 Q1031.31 26.1121 1032.24 26.2337 Q1033.17 26.3147 1034.3 26.5172 L1034.35 34.1734 Z" fill="#000000" fill-rule="nonzero" fill-opacity="1" /><path clip-path="url(#clip480)" d="M1042.61 62.2867 L1051.16 62.2867 L1051.16 72.576 L1042.61 72.576 L1042.61 62.2867 M1042.61 29.6769 L1051.16 29.6769 L1051.16 39.9662 L1042.61 39.9662 L1042.61 29.6769 Z" fill="#000000" fill-rule="nonzero" fill-opacity="1" /><path clip-path="url(#clip480)" d="M1102.48 69.7809 L1102.48 89.8329 L1094.99 89.8329 L1094.99 27.4894 Q1094.99 9.01731 1112.24 9.01731 Q1129.83 9.01731 1129.83 24.6133 Q1129.83 35.7128 1122.86 39.7637 Q1134.2 43.4095 1134.2 54.2254 Q1134.2 73.4267 1114.67 73.4267 Q1106.09 73.4267 1102.48 69.7809 M1102.48 60.0587 Q1106.98 67.0668 1114.96 67.0668 Q1126.62 67.0668 1126.62 54.3469 Q1126.62 42.9234 1107.83 43.8146 L1107.83 36.928 Q1122.53 36.928 1122.53 23.9651 Q1122.53 15.0937 1113.05 15.0937 Q1102.48 15.0937 1102.48 27.7325 L1102.48 60.0587 Z" fill="#000000" fill-rule="nonzero" fill-opacity="1" /><path clip-path="url(#clip482)" d="M308.41 1049.55 L308.41 1063.09 L354.303 1063.09 L354.303 1049.55 L308.41 1049.55 L308.41 1049.55  Z" fill="#009af9" fill-rule="evenodd" fill-opacity="1"/>
<polyline clip-path="url(#clip482)" style="stroke:#000000; stroke-linecap:round; stroke-linejoin:round; stroke-width:4; stroke-opacity:1; fill:none" points="308.41,1049.55 308.41,1063.09 354.303,1063.09 354.303,1049.55 308.41,1049.55 "/>
<path clip-path="url(#clip482)" d="M354.303 1022.46 L354.303 1063.09 L400.196 1063.09 L400.196 1022.46 L354.303 1022.46 L354.303 1022.46  Z" fill="#009af9" fill-rule="evenodd" fill-opacity="1"/>
<polyline clip-path="url(#clip482)" style="stroke:#000000; stroke-linecap:round; stroke-linejoin:round; stroke-width:4; stroke-opacity:1; fill:none" points="354.303,1022.46 354.303,1063.09 400.196,1063.09 400.196,1022.46 354.303,1022.46 "/>
<path clip-path="url(#clip482)" d="M400.196 995.374 L400.196 1063.09 L446.089 1063.09 L446.089 995.374 L400.196 995.374 L400.196 995.374  Z" fill="#009af9" fill-rule="evenodd" fill-opacity="1"/>
<polyline clip-path="url(#clip482)" style="stroke:#000000; stroke-linecap:round; stroke-linejoin:round; stroke-width:4; stroke-opacity:1; fill:none" points="400.196,995.374 400.196,1063.09 446.089,1063.09 446.089,995.374 400.196,995.374 "/>
<path clip-path="url(#clip482)" d="M446.089 832.856 L446.089 1063.09 L491.982 1063.09 L491.982 832.856 L446.089 832.856 L446.089 832.856  Z" fill="#009af9" fill-rule="evenodd" fill-opacity="1"/>
<polyline clip-path="url(#clip482)" style="stroke:#000000; stroke-linecap:round; stroke-linejoin:round; stroke-width:4; stroke-opacity:1; fill:none" points="446.089,832.856 446.089,1063.09 491.982,1063.09 491.982,832.856 446.089,832.856 "/>
<path clip-path="url(#clip482)" d="M491.982 561.993 L491.982 1063.09 L537.875 1063.09 L537.875 561.993 L491.982 561.993 L491.982 561.993  Z" fill="#009af9" fill-rule="evenodd" fill-opacity="1"/>
<polyline clip-path="url(#clip482)" style="stroke:#000000; stroke-linecap:round; stroke-linejoin:round; stroke-width:4; stroke-opacity:1; fill:none" points="491.982,561.993 491.982,1063.09 537.875,1063.09 537.875,561.993 491.982,561.993 "/>
<path clip-path="url(#clip482)" d="M537.875 516.85 L537.875 1063.09 L583.768 1063.09 L583.768 516.85 L537.875 516.85 L537.875 516.85  Z" fill="#009af9" fill-rule="evenodd" fill-opacity="1"/>
<polyline clip-path="url(#clip482)" style="stroke:#000000; stroke-linecap:round; stroke-linejoin:round; stroke-width:4; stroke-opacity:1; fill:none" points="537.875,516.85 537.875,1063.09 583.768,1063.09 583.768,516.85 537.875,516.85 "/>
<path clip-path="url(#clip482)" d="M583.768 575.537 L583.768 1063.09 L629.661 1063.09 L629.661 575.537 L583.768 575.537 L583.768 575.537  Z" fill="#009af9" fill-rule="evenodd" fill-opacity="1"/>
<polyline clip-path="url(#clip482)" style="stroke:#000000; stroke-linecap:round; stroke-linejoin:round; stroke-width:4; stroke-opacity:1; fill:none" points="583.768,575.537 583.768,1063.09 629.661,1063.09 629.661,575.537 583.768,575.537 "/>
<path clip-path="url(#clip482)" d="M629.661 598.109 L629.661 1063.09 L675.555 1063.09 L675.555 598.109 L629.661 598.109 L629.661 598.109  Z" fill="#009af9" fill-rule="evenodd" fill-opacity="1"/>
<polyline clip-path="url(#clip482)" style="stroke:#000000; stroke-linecap:round; stroke-linejoin:round; stroke-width:4; stroke-opacity:1; fill:none" points="629.661,598.109 629.661,1063.09 675.555,1063.09 675.555,598.109 629.661,598.109 "/>
<path clip-path="url(#clip482)" d="M675.555 97.0121 L675.555 1063.09 L721.448 1063.09 L721.448 97.0121 L675.555 97.0121 L675.555 97.0121  Z" fill="#009af9" fill-rule="evenodd" fill-opacity="1"/>
<polyline clip-path="url(#clip482)" style="stroke:#000000; stroke-linecap:round; stroke-linejoin:round; stroke-width:4; stroke-opacity:1; fill:none" points="675.555,97.0121 675.555,1063.09 721.448,1063.09 721.448,97.0121 675.555,97.0121 "/>
<path clip-path="url(#clip482)" d="M721.448 494.278 L721.448 1063.09 L767.341 1063.09 L767.341 494.278 L721.448 494.278 L721.448 494.278  Z" fill="#009af9" fill-rule="evenodd" fill-opacity="1"/>
<polyline clip-path="url(#clip482)" style="stroke:#000000; stroke-linecap:round; stroke-linejoin:round; stroke-width:4; stroke-opacity:1; fill:none" points="721.448,494.278 721.448,1063.09 767.341,1063.09 767.341,494.278 721.448,494.278 "/>
<path clip-path="url(#clip482)" d="M767.341 652.281 L767.341 1063.09 L813.234 1063.09 L813.234 652.281 L767.341 652.281 L767.341 652.281  Z" fill="#009af9" fill-rule="evenodd" fill-opacity="1"/>
<polyline clip-path="url(#clip482)" style="stroke:#000000; stroke-linecap:round; stroke-linejoin:round; stroke-width:4; stroke-opacity:1; fill:none" points="767.341,652.281 767.341,1063.09 813.234,1063.09 813.234,652.281 767.341,652.281 "/>
<path clip-path="url(#clip482)" d="M813.234 394.961 L813.234 1063.09 L859.127 1063.09 L859.127 394.961 L813.234 394.961 L813.234 394.961  Z" fill="#009af9" fill-rule="evenodd" fill-opacity="1"/>
<polyline clip-path="url(#clip482)" style="stroke:#000000; stroke-linecap:round; stroke-linejoin:round; stroke-width:4; stroke-opacity:1; fill:none" points="813.234,394.961 813.234,1063.09 859.127,1063.09 859.127,394.961 813.234,394.961 "/>
<path clip-path="url(#clip482)" d="M859.127 539.422 L859.127 1063.09 L905.02 1063.09 L905.02 539.422 L859.127 539.422 L859.127 539.422  Z" fill="#009af9" fill-rule="evenodd" fill-opacity="1"/>
<polyline clip-path="url(#clip482)" style="stroke:#000000; stroke-linecap:round; stroke-linejoin:round; stroke-width:4; stroke-opacity:1; fill:none" points="859.127,539.422 859.127,1063.09 905.02,1063.09 905.02,539.422 859.127,539.422 "/>
<path clip-path="url(#clip482)" d="M905.02 783.198 L905.02 1063.09 L950.913 1063.09 L950.913 783.198 L905.02 783.198 L905.02 783.198  Z" fill="#009af9" fill-rule="evenodd" fill-opacity="1"/>
<polyline clip-path="url(#clip482)" style="stroke:#000000; stroke-linecap:round; stroke-linejoin:round; stroke-width:4; stroke-opacity:1; fill:none" points="905.02,783.198 905.02,1063.09 950.913,1063.09 950.913,783.198 905.02,783.198 "/>
<path clip-path="url(#clip482)" d="M950.913 733.54 L950.913 1063.09 L996.806 1063.09 L996.806 733.54 L950.913 733.54 L950.913 733.54  Z" fill="#009af9" fill-rule="evenodd" fill-opacity="1"/>
<polyline clip-path="url(#clip482)" style="stroke:#000000; stroke-linecap:round; stroke-linejoin:round; stroke-width:4; stroke-opacity:1; fill:none" points="950.913,733.54 950.913,1063.09 996.806,1063.09 996.806,733.54 950.913,733.54 "/>
<path clip-path="url(#clip482)" d="M996.806 918.63 L996.806 1063.09 L1042.7 1063.09 L1042.7 918.63 L996.806 918.63 L996.806 918.63  Z" fill="#009af9" fill-rule="evenodd" fill-opacity="1"/>
<polyline clip-path="url(#clip482)" style="stroke:#000000; stroke-linecap:round; stroke-linejoin:round; stroke-width:4; stroke-opacity:1; fill:none" points="996.806,918.63 996.806,1063.09 1042.7,1063.09 1042.7,918.63 996.806,918.63 "/>
<path clip-path="url(#clip482)" d="M1042.7 986.345 L1042.7 1063.09 L1088.59 1063.09 L1088.59 986.345 L1042.7 986.345 L1042.7 986.345  Z" fill="#009af9" fill-rule="evenodd" fill-opacity="1"/>
<polyline clip-path="url(#clip482)" style="stroke:#000000; stroke-linecap:round; stroke-linejoin:round; stroke-width:4; stroke-opacity:1; fill:none" points="1042.7,986.345 1042.7,1063.09 1088.59,1063.09 1088.59,986.345 1042.7,986.345 "/>
<path clip-path="url(#clip482)" d="M1088.59 868.971 L1088.59 1063.09 L1134.49 1063.09 L1134.49 868.971 L1088.59 868.971 L1088.59 868.971  Z" fill="#009af9" fill-rule="evenodd" fill-opacity="1"/>
<polyline clip-path="url(#clip482)" style="stroke:#000000; stroke-linecap:round; stroke-linejoin:round; stroke-width:4; stroke-opacity:1; fill:none" points="1088.59,868.971 1088.59,1063.09 1134.49,1063.09 1134.49,868.971 1088.59,868.971 "/>
<path clip-path="url(#clip482)" d="M1134.49 990.86 L1134.49 1063.09 L1180.38 1063.09 L1180.38 990.86 L1134.49 990.86 L1134.49 990.86  Z" fill="#009af9" fill-rule="evenodd" fill-opacity="1"/>
<polyline clip-path="url(#clip482)" style="stroke:#000000; stroke-linecap:round; stroke-linejoin:round; stroke-width:4; stroke-opacity:1; fill:none" points="1134.49,990.86 1134.49,1063.09 1180.38,1063.09 1180.38,990.86 1134.49,990.86 "/>
<path clip-path="url(#clip482)" d="M1180.38 1022.46 L1180.38 1063.09 L1226.27 1063.09 L1226.27 1022.46 L1180.38 1022.46 L1180.38 1022.46  Z" fill="#009af9" fill-rule="evenodd" fill-opacity="1"/>
<polyline clip-path="url(#clip482)" style="stroke:#000000; stroke-linecap:round; stroke-linejoin:round; stroke-width:4; stroke-opacity:1; fill:none" points="1180.38,1022.46 1180.38,1063.09 1226.27,1063.09 1226.27,1022.46 1180.38,1022.46 "/>
<path clip-path="url(#clip482)" d="M1226.27 1013.43 L1226.27 1063.09 L1272.16 1063.09 L1272.16 1013.43 L1226.27 1013.43 L1226.27 1013.43  Z" fill="#009af9" fill-rule="evenodd" fill-opacity="1"/>
<polyline clip-path="url(#clip482)" style="stroke:#000000; stroke-linecap:round; stroke-linejoin:round; stroke-width:4; stroke-opacity:1; fill:none" points="1226.27,1013.43 1226.27,1063.09 1272.16,1063.09 1272.16,1013.43 1226.27,1013.43 "/>
<path clip-path="url(#clip482)" d="M1272.16 1026.97 L1272.16 1063.09 L1318.06 1063.09 L1318.06 1026.97 L1272.16 1026.97 L1272.16 1026.97  Z" fill="#009af9" fill-rule="evenodd" fill-opacity="1"/>
<polyline clip-path="url(#clip482)" style="stroke:#000000; stroke-linecap:round; stroke-linejoin:round; stroke-width:4; stroke-opacity:1; fill:none" points="1272.16,1026.97 1272.16,1063.09 1318.06,1063.09 1318.06,1026.97 1272.16,1026.97 "/>
<path clip-path="url(#clip482)" d="M1318.06 1040.52 L1318.06 1063.09 L1363.95 1063.09 L1363.95 1040.52 L1318.06 1040.52 L1318.06 1040.52  Z" fill="#009af9" fill-rule="evenodd" fill-opacity="1"/>
<polyline clip-path="url(#clip482)" style="stroke:#000000; stroke-linecap:round; stroke-linejoin:round; stroke-width:4; stroke-opacity:1; fill:none" points="1318.06,1040.52 1318.06,1063.09 1363.95,1063.09 1363.95,1040.52 1318.06,1040.52 "/>
<path clip-path="url(#clip482)" d="M1363.95 1040.52 L1363.95 1063.09 L1409.84 1063.09 L1409.84 1040.52 L1363.95 1040.52 L1363.95 1040.52  Z" fill="#009af9" fill-rule="evenodd" fill-opacity="1"/>
<polyline clip-path="url(#clip482)" style="stroke:#000000; stroke-linecap:round; stroke-linejoin:round; stroke-width:4; stroke-opacity:1; fill:none" points="1363.95,1040.52 1363.95,1063.09 1409.84,1063.09 1409.84,1040.52 1363.95,1040.52 "/>
<path clip-path="url(#clip482)" d="M1409.84 1063.09 L1409.84 1063.09 L1455.74 1063.09 L1455.74 1063.09 L1409.84 1063.09 L1409.84 1063.09  Z" fill="#009af9" fill-rule="evenodd" fill-opacity="1"/>
<polyline clip-path="url(#clip482)" style="stroke:#000000; stroke-linecap:round; stroke-linejoin:round; stroke-width:4; stroke-opacity:1; fill:none" points="1409.84,1063.09 1409.84,1063.09 1455.74,1063.09 1409.84,1063.09 "/>
<path clip-path="url(#clip482)" d="M1455.74 1045.03 L1455.74 1063.09 L1501.63 1063.09 L1501.63 1045.03 L1455.74 1045.03 L1455.74 1045.03  Z" fill="#009af9" fill-rule="evenodd" fill-opacity="1"/>
<polyline clip-path="url(#clip482)" style="stroke:#000000; stroke-linecap:round; stroke-linejoin:round; stroke-width:4; stroke-opacity:1; fill:none" points="1455.74,1045.03 1455.74,1063.09 1501.63,1063.09 1501.63,1045.03 1455.74,1045.03 "/>
<circle clip-path="url(#clip482)" style="fill:#009af9; stroke:none; fill-opacity:0" cx="331.356" cy="1049.55" r="2"/>
<circle clip-path="url(#clip482)" style="fill:#009af9; stroke:none; fill-opacity:0" cx="377.249" cy="1022.46" r="2"/>
<circle clip-path="url(#clip482)" style="fill:#009af9; stroke:none; fill-opacity:0" cx="423.143" cy="995.374" r="2"/>
<circle clip-path="url(#clip482)" style="fill:#009af9; stroke:none; fill-opacity:0" cx="469.036" cy="832.856" r="2"/>
<circle clip-path="url(#clip482)" style="fill:#009af9; stroke:none; fill-opacity:0" cx="514.929" cy="561.993" r="2"/>
<circle clip-path="url(#clip482)" style="fill:#009af9; stroke:none; fill-opacity:0" cx="560.822" cy="516.85" r="2"/>
<circle clip-path="url(#clip482)" style="fill:#009af9; stroke:none; fill-opacity:0" cx="606.715" cy="575.537" r="2"/>
<circle clip-path="url(#clip482)" style="fill:#009af9; stroke:none; fill-opacity:0" cx="652.608" cy="598.109" r="2"/>
<circle clip-path="url(#clip482)" style="fill:#009af9; stroke:none; fill-opacity:0" cx="698.501" cy="97.0121" r="2"/>
<circle clip-path="url(#clip482)" style="fill:#009af9; stroke:none; fill-opacity:0" cx="744.394" cy="494.278" r="2"/>
<circle clip-path="url(#clip482)" style="fill:#009af9; stroke:none; fill-opacity:0" cx="790.287" cy="652.281" r="2"/>
<circle clip-path="url(#clip482)" style="fill:#009af9; stroke:none; fill-opacity:0" cx="836.18" cy="394.961" r="2"/>
<circle clip-path="url(#clip482)" style="fill:#009af9; stroke:none; fill-opacity:0" cx="882.074" cy="539.422" r="2"/>
<circle clip-path="url(#clip482)" style="fill:#009af9; stroke:none; fill-opacity:0" cx="927.967" cy="783.198" r="2"/>
<circle clip-path="url(#clip482)" style="fill:#009af9; stroke:none; fill-opacity:0" cx="973.86" cy="733.54" r="2"/>
<circle clip-path="url(#clip482)" style="fill:#009af9; stroke:none; fill-opacity:0" cx="1019.75" cy="918.63" r="2"/>
<circle clip-path="url(#clip482)" style="fill:#009af9; stroke:none; fill-opacity:0" cx="1065.65" cy="986.345" r="2"/>
<circle clip-path="url(#clip482)" style="fill:#009af9; stroke:none; fill-opacity:0" cx="1111.54" cy="868.971" r="2"/>
<circle clip-path="url(#clip482)" style="fill:#009af9; stroke:none; fill-opacity:0" cx="1157.43" cy="990.86" r="2"/>
<circle clip-path="url(#clip482)" style="fill:#009af9; stroke:none; fill-opacity:0" cx="1203.33" cy="1022.46" r="2"/>
<circle clip-path="url(#clip482)" style="fill:#009af9; stroke:none; fill-opacity:0" cx="1249.22" cy="1013.43" r="2"/>
<circle clip-path="url(#clip482)" style="fill:#009af9; stroke:none; fill-opacity:0" cx="1295.11" cy="1026.97" r="2"/>
<circle clip-path="url(#clip482)" style="fill:#009af9; stroke:none; fill-opacity:0" cx="1341" cy="1040.52" r="2"/>
<circle clip-path="url(#clip482)" style="fill:#009af9; stroke:none; fill-opacity:0" cx="1386.9" cy="1040.52" r="2"/>
<circle clip-path="url(#clip482)" style="fill:#009af9; stroke:none; fill-opacity:0" cx="1432.79" cy="1063.09" r="2"/>
<circle clip-path="url(#clip482)" style="fill:#009af9; stroke:none; fill-opacity:0" cx="1478.68" cy="1045.03" r="2"/>
<polyline clip-path="url(#clip482)" style="stroke:#ff0000; stroke-linecap:round; stroke-linejoin:round; stroke-width:8; stroke-opacity:1; fill:none" points="629.661,2029.17 629.661,-869.066 "/>
<path clip-path="url(#clip480)" d="M1298.3 232.895 L1530.68 232.895 L1530.68 129.215 L1298.3 129.215  Z" fill="#ffffff" fill-rule="evenodd" fill-opacity="1"/>
<polyline clip-path="url(#clip480)" style="stroke:#000000; stroke-linecap:round; stroke-linejoin:round; stroke-width:4; stroke-opacity:1; fill:none" points="1298.3,232.895 1530.68,232.895 1530.68,129.215 1298.3,129.215 1298.3,232.895 "/>
<polyline clip-path="url(#clip480)" style="stroke:#ff0000; stroke-linecap:round; stroke-linejoin:round; stroke-width:8; stroke-opacity:1; fill:none" points="1313.2,181.055 1402.58,181.055 "/>
<path clip-path="url(#clip480)" d="M1417.48 163.775 L1446.71 163.775 L1446.71 167.71 L1434.44 167.71 L1434.44 198.335 L1429.74 198.335 L1429.74 167.71 L1417.48 167.71 L1417.48 163.775 Z" fill="#000000" fill-rule="nonzero" fill-opacity="1" /><path clip-path="url(#clip480)" d="M1459.1 176.39 Q1458.38 175.974 1457.52 175.789 Q1456.69 175.58 1455.67 175.58 Q1452.06 175.58 1450.11 177.941 Q1448.19 180.279 1448.19 184.677 L1448.19 198.335 L1443.91 198.335 L1443.91 172.409 L1448.19 172.409 L1448.19 176.437 Q1449.54 174.076 1451.69 172.941 Q1453.84 171.784 1456.92 171.784 Q1457.36 171.784 1457.89 171.853 Q1458.42 171.9 1459.07 172.015 L1459.1 176.39 Z" fill="#000000" fill-rule="nonzero" fill-opacity="1" /><path clip-path="url(#clip480)" d="M1463.12 188.103 L1463.12 172.409 L1467.38 172.409 L1467.38 187.941 Q1467.38 191.622 1468.82 193.474 Q1470.25 195.302 1473.12 195.302 Q1476.57 195.302 1478.56 193.103 Q1480.58 190.904 1480.58 187.108 L1480.58 172.409 L1484.84 172.409 L1484.84 198.335 L1480.58 198.335 L1480.58 194.353 Q1479.03 196.714 1476.97 197.872 Q1474.93 199.006 1472.22 199.006 Q1467.75 199.006 1465.44 196.228 Q1463.12 193.45 1463.12 188.103 M1473.84 171.784 L1473.84 171.784 Z" fill="#000000" fill-rule="nonzero" fill-opacity="1" /><path clip-path="url(#clip480)" d="M1515.78 184.307 L1515.78 186.39 L1496.2 186.39 Q1496.48 190.788 1498.84 193.103 Q1501.22 195.395 1505.46 195.395 Q1507.91 195.395 1510.21 194.793 Q1512.52 194.191 1514.79 192.988 L1514.79 197.015 Q1512.5 197.987 1510.09 198.497 Q1507.68 199.006 1505.21 199.006 Q1499 199.006 1495.37 195.395 Q1491.76 191.784 1491.76 185.626 Q1491.76 179.261 1495.18 175.534 Q1498.63 171.784 1504.47 171.784 Q1509.7 171.784 1512.73 175.164 Q1515.78 178.52 1515.78 184.307 M1511.53 183.057 Q1511.48 179.562 1509.56 177.478 Q1507.66 175.395 1504.51 175.395 Q1500.95 175.395 1498.79 177.409 Q1496.66 179.423 1496.34 183.08 L1511.53 183.057 Z" fill="#000000" fill-rule="nonzero" fill-opacity="1" /><path clip-path="url(#clip480)" d="M1812.05 1063.09 L3152.76 1063.09 L3152.76 97.0121 L1812.05 97.0121  Z" fill="#ffffff" fill-rule="evenodd" fill-opacity="1"/>
<polyline clip-path="url(#clip481)" style="stroke:#000000; stroke-linecap:round; stroke-linejoin:round; stroke-width:2; stroke-opacity:0.1; fill:none" points="2048.51,1063.09 2048.51,97.0121 "/>
<polyline clip-path="url(#clip481)" style="stroke:#000000; stroke-linecap:round; stroke-linejoin:round; stroke-width:2; stroke-opacity:0.1; fill:none" points="2319.69,1063.09 2319.69,97.0121 "/>
<polyline clip-path="url(#clip481)" style="stroke:#000000; stroke-linecap:round; stroke-linejoin:round; stroke-width:2; stroke-opacity:0.1; fill:none" points="2590.88,1063.09 2590.88,97.0121 "/>
<polyline clip-path="url(#clip481)" style="stroke:#000000; stroke-linecap:round; stroke-linejoin:round; stroke-width:2; stroke-opacity:0.1; fill:none" points="2862.07,1063.09 2862.07,97.0121 "/>
<polyline clip-path="url(#clip481)" style="stroke:#000000; stroke-linecap:round; stroke-linejoin:round; stroke-width:2; stroke-opacity:0.1; fill:none" points="3133.25,1063.09 3133.25,97.0121 "/>
<polyline clip-path="url(#clip481)" style="stroke:#000000; stroke-linecap:round; stroke-linejoin:round; stroke-width:2; stroke-opacity:0.1; fill:none" points="1812.05,1063.09 3152.76,1063.09 "/>
<polyline clip-path="url(#clip481)" style="stroke:#000000; stroke-linecap:round; stroke-linejoin:round; stroke-width:2; stroke-opacity:0.1; fill:none" points="1812.05,775.375 3152.76,775.375 "/>
<polyline clip-path="url(#clip481)" style="stroke:#000000; stroke-linecap:round; stroke-linejoin:round; stroke-width:2; stroke-opacity:0.1; fill:none" points="1812.05,487.66 3152.76,487.66 "/>
<polyline clip-path="url(#clip481)" style="stroke:#000000; stroke-linecap:round; stroke-linejoin:round; stroke-width:2; stroke-opacity:0.1; fill:none" points="1812.05,199.945 3152.76,199.945 "/>
<polyline clip-path="url(#clip480)" style="stroke:#000000; stroke-linecap:round; stroke-linejoin:round; stroke-width:4; stroke-opacity:1; fill:none" points="1812.05,1063.09 3152.76,1063.09 "/>
<polyline clip-path="url(#clip480)" style="stroke:#000000; stroke-linecap:round; stroke-linejoin:round; stroke-width:4; stroke-opacity:1; fill:none" points="2048.51,1063.09 2048.51,1044.19 "/>
<polyline clip-path="url(#clip480)" style="stroke:#000000; stroke-linecap:round; stroke-linejoin:round; stroke-width:4; stroke-opacity:1; fill:none" points="2319.69,1063.09 2319.69,1044.19 "/>
<polyline clip-path="url(#clip480)" style="stroke:#000000; stroke-linecap:round; stroke-linejoin:round; stroke-width:4; stroke-opacity:1; fill:none" points="2590.88,1063.09 2590.88,1044.19 "/>
<polyline clip-path="url(#clip480)" style="stroke:#000000; stroke-linecap:round; stroke-linejoin:round; stroke-width:4; stroke-opacity:1; fill:none" points="2862.07,1063.09 2862.07,1044.19 "/>
<polyline clip-path="url(#clip480)" style="stroke:#000000; stroke-linecap:round; stroke-linejoin:round; stroke-width:4; stroke-opacity:1; fill:none" points="3133.25,1063.09 3133.25,1044.19 "/>
<path clip-path="url(#clip480)" d="M2011.31 1100.41 Q2007.7 1100.41 2005.87 1103.97 Q2004.06 1107.51 2004.06 1114.64 Q2004.06 1121.75 2005.87 1125.32 Q2007.7 1128.86 2011.31 1128.86 Q2014.94 1128.86 2016.75 1125.32 Q2018.58 1121.75 2018.58 1114.64 Q2018.58 1107.51 2016.75 1103.97 Q2014.94 1100.41 2011.31 1100.41 M2011.31 1096.7 Q2017.12 1096.7 2020.17 1101.31 Q2023.25 1105.89 2023.25 1114.64 Q2023.25 1123.37 2020.17 1127.98 Q2017.12 1132.56 2011.31 1132.56 Q2005.5 1132.56 2002.42 1127.98 Q1999.36 1123.37 1999.36 1114.64 Q1999.36 1105.89 2002.42 1101.31 Q2005.5 1096.7 2011.31 1096.7 Z" fill="#000000" fill-rule="nonzero" fill-opacity="1" /><path clip-path="url(#clip480)" d="M2031.47 1126.01 L2036.35 1126.01 L2036.35 1131.89 L2031.47 1131.89 L2031.47 1126.01 Z" fill="#000000" fill-rule="nonzero" fill-opacity="1" /><path clip-path="url(#clip480)" d="M2056.54 1100.41 Q2052.93 1100.41 2051.1 1103.97 Q2049.29 1107.51 2049.29 1114.64 Q2049.29 1121.75 2051.1 1125.32 Q2052.93 1128.86 2056.54 1128.86 Q2060.17 1128.86 2061.98 1125.32 Q2063.81 1121.75 2063.81 1114.64 Q2063.81 1107.51 2061.98 1103.97 Q2060.17 1100.41 2056.54 1100.41 M2056.54 1096.7 Q2062.35 1096.7 2065.4 1101.31 Q2068.48 1105.89 2068.48 1114.64 Q2068.48 1123.37 2065.4 1127.98 Q2062.35 1132.56 2056.54 1132.56 Q2050.73 1132.56 2047.65 1127.98 Q2044.59 1123.37 2044.59 1114.64 Q2044.59 1105.89 2047.65 1101.31 Q2050.73 1096.7 2056.54 1096.7 Z" fill="#000000" fill-rule="nonzero" fill-opacity="1" /><path clip-path="url(#clip480)" d="M2076.75 1097.33 L2095.1 1097.33 L2095.1 1101.27 L2081.03 1101.27 L2081.03 1109.74 Q2082.05 1109.39 2083.07 1109.23 Q2084.08 1109.04 2085.1 1109.04 Q2090.89 1109.04 2094.27 1112.21 Q2097.65 1115.39 2097.65 1120.8 Q2097.65 1126.38 2094.18 1129.48 Q2090.7 1132.56 2084.39 1132.56 Q2082.21 1132.56 2079.94 1132.19 Q2077.7 1131.82 2075.29 1131.08 L2075.29 1126.38 Q2077.37 1127.51 2079.59 1128.07 Q2081.82 1128.63 2084.29 1128.63 Q2088.3 1128.63 2090.64 1126.52 Q2092.97 1124.41 2092.97 1120.8 Q2092.97 1117.19 2090.64 1115.08 Q2088.3 1112.98 2084.29 1112.98 Q2082.42 1112.98 2080.54 1113.39 Q2078.69 1113.81 2076.75 1114.69 L2076.75 1097.33 Z" fill="#000000" fill-rule="nonzero" fill-opacity="1" /><path clip-path="url(#clip480)" d="M2282 1100.41 Q2278.38 1100.41 2276.56 1103.97 Q2274.75 1107.51 2274.75 1114.64 Q2274.75 1121.75 2276.56 1125.32 Q2278.38 1128.86 2282 1128.86 Q2285.63 1128.86 2287.44 1125.32 Q2289.26 1121.75 2289.26 1114.64 Q2289.26 1107.51 2287.44 1103.97 Q2285.63 1100.41 2282 1100.41 M2282 1096.7 Q2287.81 1096.7 2290.86 1101.31 Q2293.94 1105.89 2293.94 1114.64 Q2293.94 1123.37 2290.86 1127.98 Q2287.81 1132.56 2282 1132.56 Q2276.19 1132.56 2273.11 1127.98 Q2270.05 1123.37 2270.05 1114.64 Q2270.05 1105.89 2273.11 1101.31 Q2276.19 1096.7 2282 1096.7 Z" fill="#000000" fill-rule="nonzero" fill-opacity="1" /><path clip-path="url(#clip480)" d="M2302.16 1126.01 L2307.04 1126.01 L2307.04 1131.89 L2302.16 1131.89 L2302.16 1126.01 Z" fill="#000000" fill-rule="nonzero" fill-opacity="1" /><path clip-path="url(#clip480)" d="M2318.04 1127.95 L2325.68 1127.95 L2325.68 1101.59 L2317.37 1103.26 L2317.37 1099 L2325.63 1097.33 L2330.31 1097.33 L2330.31 1127.95 L2337.94 1127.95 L2337.94 1131.89 L2318.04 1131.89 L2318.04 1127.95 Z" fill="#000000" fill-rule="nonzero" fill-opacity="1" /><path clip-path="url(#clip480)" d="M2357.39 1100.41 Q2353.78 1100.41 2351.95 1103.97 Q2350.14 1107.51 2350.14 1114.64 Q2350.14 1121.75 2351.95 1125.32 Q2353.78 1128.86 2357.39 1128.86 Q2361.02 1128.86 2362.83 1125.32 Q2364.66 1121.75 2364.66 1114.64 Q2364.66 1107.51 2362.83 1103.97 Q2361.02 1100.41 2357.39 1100.41 M2357.39 1096.7 Q2363.2 1096.7 2366.25 1101.31 Q2369.33 1105.89 2369.33 1114.64 Q2369.33 1123.37 2366.25 1127.98 Q2363.2 1132.56 2357.39 1132.56 Q2351.58 1132.56 2348.5 1127.98 Q2345.44 1123.37 2345.44 1114.64 Q2345.44 1105.89 2348.5 1101.31 Q2351.58 1096.7 2357.39 1096.7 Z" fill="#000000" fill-rule="nonzero" fill-opacity="1" /><path clip-path="url(#clip480)" d="M2553.68 1100.41 Q2550.07 1100.41 2548.24 1103.97 Q2546.43 1107.51 2546.43 1114.64 Q2546.43 1121.75 2548.24 1125.32 Q2550.07 1128.86 2553.68 1128.86 Q2557.31 1128.86 2559.12 1125.32 Q2560.95 1121.75 2560.95 1114.64 Q2560.95 1107.51 2559.12 1103.97 Q2557.31 1100.41 2553.68 1100.41 M2553.68 1096.7 Q2559.49 1096.7 2562.55 1101.31 Q2565.62 1105.89 2565.62 1114.64 Q2565.62 1123.37 2562.55 1127.98 Q2559.49 1132.56 2553.68 1132.56 Q2547.87 1132.56 2544.79 1127.98 Q2541.74 1123.37 2541.74 1114.64 Q2541.74 1105.89 2544.79 1101.31 Q2547.87 1096.7 2553.68 1096.7 Z" fill="#000000" fill-rule="nonzero" fill-opacity="1" /><path clip-path="url(#clip480)" d="M2573.84 1126.01 L2578.73 1126.01 L2578.73 1131.89 L2573.84 1131.89 L2573.84 1126.01 Z" fill="#000000" fill-rule="nonzero" fill-opacity="1" /><path clip-path="url(#clip480)" d="M2589.72 1127.95 L2597.36 1127.95 L2597.36 1101.59 L2589.05 1103.26 L2589.05 1099 L2597.31 1097.33 L2601.99 1097.33 L2601.99 1127.95 L2609.63 1127.95 L2609.63 1131.89 L2589.72 1131.89 L2589.72 1127.95 Z" fill="#000000" fill-rule="nonzero" fill-opacity="1" /><path clip-path="url(#clip480)" d="M2619.12 1097.33 L2637.48 1097.33 L2637.48 1101.27 L2623.4 1101.27 L2623.4 1109.74 Q2624.42 1109.39 2625.44 1109.23 Q2626.46 1109.04 2627.48 1109.04 Q2633.26 1109.04 2636.64 1112.21 Q2640.02 1115.39 2640.02 1120.8 Q2640.02 1126.38 2636.55 1129.48 Q2633.08 1132.56 2626.76 1132.56 Q2624.58 1132.56 2622.31 1132.19 Q2620.07 1131.82 2617.66 1131.08 L2617.66 1126.38 Q2619.74 1127.51 2621.97 1128.07 Q2624.19 1128.63 2626.67 1128.63 Q2630.67 1128.63 2633.01 1126.52 Q2635.35 1124.41 2635.35 1120.8 Q2635.35 1117.19 2633.01 1115.08 Q2630.67 1112.98 2626.67 1112.98 Q2624.79 1112.98 2622.92 1113.39 Q2621.06 1113.81 2619.12 1114.69 L2619.12 1097.33 Z" fill="#000000" fill-rule="nonzero" fill-opacity="1" /><path clip-path="url(#clip480)" d="M2824.37 1100.41 Q2820.76 1100.41 2818.93 1103.97 Q2817.12 1107.51 2817.12 1114.64 Q2817.12 1121.75 2818.93 1125.32 Q2820.76 1128.86 2824.37 1128.86 Q2828 1128.86 2829.81 1125.32 Q2831.64 1121.75 2831.64 1114.64 Q2831.64 1107.51 2829.81 1103.97 Q2828 1100.41 2824.37 1100.41 M2824.37 1096.7 Q2830.18 1096.7 2833.23 1101.31 Q2836.31 1105.89 2836.31 1114.64 Q2836.31 1123.37 2833.23 1127.98 Q2830.18 1132.56 2824.37 1132.56 Q2818.56 1132.56 2815.48 1127.98 Q2812.42 1123.37 2812.42 1114.64 Q2812.42 1105.89 2815.48 1101.31 Q2818.56 1096.7 2824.37 1096.7 Z" fill="#000000" fill-rule="nonzero" fill-opacity="1" /><path clip-path="url(#clip480)" d="M2844.53 1126.01 L2849.42 1126.01 L2849.42 1131.89 L2844.53 1131.89 L2844.53 1126.01 Z" fill="#000000" fill-rule="nonzero" fill-opacity="1" /><path clip-path="url(#clip480)" d="M2863.63 1127.95 L2879.95 1127.95 L2879.95 1131.89 L2858 1131.89 L2858 1127.95 Q2860.67 1125.2 2865.25 1120.57 Q2869.85 1115.92 2871.04 1114.58 Q2873.28 1112.05 2874.16 1110.32 Q2875.06 1108.56 2875.06 1106.87 Q2875.06 1104.11 2873.12 1102.38 Q2871.2 1100.64 2868.1 1100.64 Q2865.9 1100.64 2863.44 1101.4 Q2861.01 1102.17 2858.23 1103.72 L2858.23 1099 Q2861.06 1097.86 2863.51 1097.28 Q2865.97 1096.7 2868 1096.7 Q2873.37 1096.7 2876.57 1099.39 Q2879.76 1102.08 2879.76 1106.57 Q2879.76 1108.7 2878.95 1110.62 Q2878.17 1112.51 2876.06 1115.11 Q2875.48 1115.78 2872.38 1119 Q2869.28 1122.19 2863.63 1127.95 Z" fill="#000000" fill-rule="nonzero" fill-opacity="1" /><path clip-path="url(#clip480)" d="M2899.76 1100.41 Q2896.15 1100.41 2894.32 1103.97 Q2892.52 1107.51 2892.52 1114.64 Q2892.52 1121.75 2894.32 1125.32 Q2896.15 1128.86 2899.76 1128.86 Q2903.4 1128.86 2905.2 1125.32 Q2907.03 1121.75 2907.03 1114.64 Q2907.03 1107.51 2905.2 1103.97 Q2903.4 1100.41 2899.76 1100.41 M2899.76 1096.7 Q2905.57 1096.7 2908.63 1101.31 Q2911.71 1105.89 2911.71 1114.64 Q2911.71 1123.37 2908.63 1127.98 Q2905.57 1132.56 2899.76 1132.56 Q2893.95 1132.56 2890.87 1127.98 Q2887.82 1123.37 2887.82 1114.64 Q2887.82 1105.89 2890.87 1101.31 Q2893.95 1096.7 2899.76 1096.7 Z" fill="#000000" fill-rule="nonzero" fill-opacity="1" /><path clip-path="url(#clip480)" d="M3096.05 1100.41 Q3092.44 1100.41 3090.61 1103.97 Q3088.81 1107.51 3088.81 1114.64 Q3088.81 1121.75 3090.61 1125.32 Q3092.44 1128.86 3096.05 1128.86 Q3099.69 1128.86 3101.49 1125.32 Q3103.32 1121.75 3103.32 1114.64 Q3103.32 1107.51 3101.49 1103.97 Q3099.69 1100.41 3096.05 1100.41 M3096.05 1096.7 Q3101.86 1096.7 3104.92 1101.31 Q3108 1105.89 3108 1114.64 Q3108 1123.37 3104.92 1127.98 Q3101.86 1132.56 3096.05 1132.56 Q3090.24 1132.56 3087.16 1127.98 Q3084.11 1123.37 3084.11 1114.64 Q3084.11 1105.89 3087.16 1101.31 Q3090.24 1096.7 3096.05 1096.7 Z" fill="#000000" fill-rule="nonzero" fill-opacity="1" /><path clip-path="url(#clip480)" d="M3116.22 1126.01 L3121.1 1126.01 L3121.1 1131.89 L3116.22 1131.89 L3116.22 1126.01 Z" fill="#000000" fill-rule="nonzero" fill-opacity="1" /><path clip-path="url(#clip480)" d="M3135.31 1127.95 L3151.63 1127.95 L3151.63 1131.89 L3129.69 1131.89 L3129.69 1127.95 Q3132.35 1125.2 3136.93 1120.57 Q3141.54 1115.92 3142.72 1114.58 Q3144.97 1112.05 3145.84 1110.32 Q3146.75 1108.56 3146.75 1106.87 Q3146.75 1104.11 3144.8 1102.38 Q3142.88 1100.64 3139.78 1100.64 Q3137.58 1100.64 3135.13 1101.4 Q3132.7 1102.17 3129.92 1103.72 L3129.92 1099 Q3132.74 1097.86 3135.2 1097.28 Q3137.65 1096.7 3139.69 1096.7 Q3145.06 1096.7 3148.25 1099.39 Q3151.45 1102.08 3151.45 1106.57 Q3151.45 1108.7 3150.64 1110.62 Q3149.85 1112.51 3147.74 1115.11 Q3147.16 1115.78 3144.06 1119 Q3140.96 1122.19 3135.31 1127.95 Z" fill="#000000" fill-rule="nonzero" fill-opacity="1" /><path clip-path="url(#clip480)" d="M3161.49 1097.33 L3179.85 1097.33 L3179.85 1101.27 L3165.78 1101.27 L3165.78 1109.74 Q3166.79 1109.39 3167.81 1109.23 Q3168.83 1109.04 3169.85 1109.04 Q3175.64 1109.04 3179.02 1112.21 Q3182.4 1115.39 3182.4 1120.8 Q3182.4 1126.38 3178.92 1129.48 Q3175.45 1132.56 3169.13 1132.56 Q3166.96 1132.56 3164.69 1132.19 Q3162.44 1131.82 3160.03 1131.08 L3160.03 1126.38 Q3162.12 1127.51 3164.34 1128.07 Q3166.56 1128.63 3169.04 1128.63 Q3173.04 1128.63 3175.38 1126.52 Q3177.72 1124.41 3177.72 1120.8 Q3177.72 1117.19 3175.38 1115.08 Q3173.04 1112.98 3169.04 1112.98 Q3167.16 1112.98 3165.29 1113.39 Q3163.44 1113.81 3161.49 1114.69 L3161.49 1097.33 Z" fill="#000000" fill-rule="nonzero" fill-opacity="1" /><path clip-path="url(#clip480)" d="M2475.07 1189.91 L2482.87 1211.93 L2494.01 1184.31 L2500.21 1184.31 L2485.79 1219.95 L2485.79 1233.51 L2479.94 1233.51 L2479.94 1219.95 L2470.58 1193.35 Q2469.18 1189.33 2466.16 1189.33 L2464.6 1189.33 L2464.6 1184.31 L2466.82 1184.31 Q2473.09 1184.31 2475.07 1189.91 Z" fill="#000000" fill-rule="nonzero" fill-opacity="1" /><polyline clip-path="url(#clip480)" style="stroke:#000000; stroke-linecap:round; stroke-linejoin:round; stroke-width:4; stroke-opacity:1; fill:none" points="1812.05,1063.09 1812.05,97.0121 "/>
<polyline clip-path="url(#clip480)" style="stroke:#000000; stroke-linecap:round; stroke-linejoin:round; stroke-width:4; stroke-opacity:1; fill:none" points="1812.05,1063.09 1830.95,1063.09 "/>
<polyline clip-path="url(#clip480)" style="stroke:#000000; stroke-linecap:round; stroke-linejoin:round; stroke-width:4; stroke-opacity:1; fill:none" points="1812.05,775.375 1830.95,775.375 "/>
<polyline clip-path="url(#clip480)" style="stroke:#000000; stroke-linecap:round; stroke-linejoin:round; stroke-width:4; stroke-opacity:1; fill:none" points="1812.05,487.66 1830.95,487.66 "/>
<polyline clip-path="url(#clip480)" style="stroke:#000000; stroke-linecap:round; stroke-linejoin:round; stroke-width:4; stroke-opacity:1; fill:none" points="1812.05,199.945 1830.95,199.945 "/>
<path clip-path="url(#clip480)" d="M1752.11 1048.89 Q1748.5 1048.89 1746.67 1052.45 Q1744.86 1055.99 1744.86 1063.12 Q1744.86 1070.23 1746.67 1073.8 Q1748.5 1077.34 1752.11 1077.34 Q1755.74 1077.34 1757.55 1073.8 Q1759.38 1070.23 1759.38 1063.12 Q1759.38 1055.99 1757.55 1052.45 Q1755.74 1048.89 1752.11 1048.89 M1752.11 1045.18 Q1757.92 1045.18 1760.97 1049.79 Q1764.05 1054.37 1764.05 1063.12 Q1764.05 1071.85 1760.97 1076.46 Q1757.92 1081.04 1752.11 1081.04 Q1746.3 1081.04 1743.22 1076.46 Q1740.16 1071.85 1740.16 1063.12 Q1740.16 1054.37 1743.22 1049.79 Q1746.3 1045.18 1752.11 1045.18 Z" fill="#000000" fill-rule="nonzero" fill-opacity="1" /><path clip-path="url(#clip480)" d="M1743.15 758.095 L1761.51 758.095 L1761.51 762.03 L1747.43 762.03 L1747.43 770.502 Q1748.45 770.155 1749.47 769.993 Q1750.49 769.808 1751.51 769.808 Q1757.29 769.808 1760.67 772.979 Q1764.05 776.15 1764.05 781.567 Q1764.05 787.146 1760.58 790.248 Q1757.11 793.326 1750.79 793.326 Q1748.61 793.326 1746.34 792.956 Q1744.1 792.586 1741.69 791.845 L1741.69 787.146 Q1743.78 788.28 1746 788.836 Q1748.22 789.391 1750.7 789.391 Q1754.7 789.391 1757.04 787.285 Q1759.38 785.178 1759.38 781.567 Q1759.38 777.956 1757.04 775.85 Q1754.7 773.743 1750.7 773.743 Q1748.82 773.743 1746.95 774.16 Q1745.09 774.576 1743.15 775.456 L1743.15 758.095 Z" fill="#000000" fill-rule="nonzero" fill-opacity="1" /><path clip-path="url(#clip480)" d="M1712.76 501.005 L1720.4 501.005 L1720.4 474.639 L1712.09 476.306 L1712.09 472.047 L1720.35 470.38 L1725.03 470.38 L1725.03 501.005 L1732.66 501.005 L1732.66 504.94 L1712.76 504.94 L1712.76 501.005 Z" fill="#000000" fill-rule="nonzero" fill-opacity="1" /><path clip-path="url(#clip480)" d="M1752.11 473.459 Q1748.5 473.459 1746.67 477.024 Q1744.86 480.565 1744.86 487.695 Q1744.86 494.801 1746.67 498.366 Q1748.5 501.908 1752.11 501.908 Q1755.74 501.908 1757.55 498.366 Q1759.38 494.801 1759.38 487.695 Q1759.38 480.565 1757.55 477.024 Q1755.74 473.459 1752.11 473.459 M1752.11 469.755 Q1757.92 469.755 1760.97 474.362 Q1764.05 478.945 1764.05 487.695 Q1764.05 496.422 1760.97 501.028 Q1757.92 505.612 1752.11 505.612 Q1746.3 505.612 1743.22 501.028 Q1740.16 496.422 1740.16 487.695 Q1740.16 478.945 1743.22 474.362 Q1746.3 469.755 1752.11 469.755 Z" fill="#000000" fill-rule="nonzero" fill-opacity="1" /><path clip-path="url(#clip480)" d="M1713.75 213.29 L1721.39 213.29 L1721.39 186.925 L1713.08 188.591 L1713.08 184.332 L1721.34 182.665 L1726.02 182.665 L1726.02 213.29 L1733.66 213.29 L1733.66 217.225 L1713.75 217.225 L1713.75 213.29 Z" fill="#000000" fill-rule="nonzero" fill-opacity="1" /><path clip-path="url(#clip480)" d="M1743.15 182.665 L1761.51 182.665 L1761.51 186.601 L1747.43 186.601 L1747.43 195.073 Q1748.45 194.726 1749.47 194.563 Q1750.49 194.378 1751.51 194.378 Q1757.29 194.378 1760.67 197.55 Q1764.05 200.721 1764.05 206.138 Q1764.05 211.716 1760.58 214.818 Q1757.11 217.897 1750.79 217.897 Q1748.61 217.897 1746.34 217.526 Q1744.1 217.156 1741.69 216.415 L1741.69 211.716 Q1743.78 212.85 1746 213.406 Q1748.22 213.962 1750.7 213.962 Q1754.7 213.962 1757.04 211.855 Q1759.38 209.749 1759.38 206.138 Q1759.38 202.526 1757.04 200.42 Q1754.7 198.313 1750.7 198.313 Q1748.82 198.313 1746.95 198.73 Q1745.09 199.147 1743.15 200.026 L1743.15 182.665 Z" fill="#000000" fill-rule="nonzero" fill-opacity="1" /><path clip-path="url(#clip480)" d="M1607.59 693.361 L1644.55 693.361 L1644.55 685.594 Q1644.55 675.759 1640.09 671.208 Q1635.63 666.625 1626.02 666.625 Q1616.47 666.625 1612.05 671.208 Q1607.59 675.759 1607.59 685.594 L1607.59 693.361 M1602.31 699.79 L1602.31 686.581 Q1602.31 672.768 1608.07 666.306 Q1613.8 659.845 1626.02 659.845 Q1638.31 659.845 1644.07 666.338 Q1649.83 672.831 1649.83 686.581 L1649.83 699.79 L1602.31 699.79 Z" fill="#000000" fill-rule="nonzero" fill-opacity="1" /><path clip-path="url(#clip480)" d="M1630.54 619.359 L1633.41 619.359 L1633.41 646.286 Q1639.45 645.904 1642.64 642.658 Q1645.79 639.379 1645.79 633.555 Q1645.79 630.181 1644.96 627.03 Q1644.13 623.847 1642.48 620.728 L1648.02 620.728 Q1649.35 623.879 1650.05 627.189 Q1650.75 630.499 1650.75 633.905 Q1650.75 642.435 1645.79 647.432 Q1640.82 652.397 1632.36 652.397 Q1623.6 652.397 1618.48 647.687 Q1613.32 642.944 1613.32 634.923 Q1613.32 627.73 1617.97 623.561 Q1622.58 619.359 1630.54 619.359 M1628.82 625.216 Q1624.02 625.279 1621.15 627.921 Q1618.29 630.531 1618.29 634.86 Q1618.29 639.761 1621.06 642.721 Q1623.83 645.65 1628.85 646.095 L1628.82 625.216 Z" fill="#000000" fill-rule="nonzero" fill-opacity="1" /><path clip-path="url(#clip480)" d="M1628.31 580.115 L1649.83 580.115 L1649.83 585.971 L1628.5 585.971 Q1623.44 585.971 1620.93 587.944 Q1618.42 589.918 1618.42 593.865 Q1618.42 598.607 1621.44 601.344 Q1624.46 604.082 1629.68 604.082 L1649.83 604.082 L1649.83 609.97 L1614.18 609.97 L1614.18 604.082 L1619.72 604.082 Q1616.51 601.981 1614.91 599.148 Q1613.32 596.284 1613.32 592.56 Q1613.32 586.417 1617.14 583.266 Q1620.93 580.115 1628.31 580.115 Z" fill="#000000" fill-rule="nonzero" fill-opacity="1" /><path clip-path="url(#clip480)" d="M1615.23 545.708 L1620.77 545.708 Q1619.5 548.191 1618.86 550.864 Q1618.22 553.538 1618.22 556.402 Q1618.22 560.763 1619.56 562.959 Q1620.9 565.123 1623.57 565.123 Q1625.61 565.123 1626.79 563.564 Q1627.93 562.004 1628.98 557.294 L1629.43 555.288 Q1630.76 549.05 1633.22 546.44 Q1635.63 543.798 1639.99 543.798 Q1644.96 543.798 1647.86 547.745 Q1650.75 551.66 1650.75 558.535 Q1650.75 561.399 1650.18 564.519 Q1649.64 567.606 1648.52 571.044 L1642.48 571.044 Q1644.16 567.797 1645.02 564.646 Q1645.85 561.495 1645.85 558.408 Q1645.85 554.27 1644.45 552.042 Q1643.02 549.814 1640.44 549.814 Q1638.05 549.814 1636.78 551.437 Q1635.51 553.029 1634.33 558.471 L1633.85 560.508 Q1632.71 565.951 1630.35 568.37 Q1627.96 570.789 1623.83 570.789 Q1618.8 570.789 1616.06 567.224 Q1613.32 563.659 1613.32 557.103 Q1613.32 553.856 1613.8 550.992 Q1614.28 548.127 1615.23 545.708 Z" fill="#000000" fill-rule="nonzero" fill-opacity="1" /><path clip-path="url(#clip480)" d="M1614.18 534.473 L1614.18 528.616 L1649.83 528.616 L1649.83 534.473 L1614.18 534.473 M1600.3 534.473 L1600.3 528.616 L1607.72 528.616 L1607.72 534.473 L1600.3 534.473 Z" fill="#000000" fill-rule="nonzero" fill-opacity="1" /><path clip-path="url(#clip480)" d="M1604.06 510.569 L1614.18 510.569 L1614.18 498.506 L1618.73 498.506 L1618.73 510.569 L1638.09 510.569 Q1642.45 510.569 1643.69 509.392 Q1644.93 508.182 1644.93 504.522 L1644.93 498.506 L1649.83 498.506 L1649.83 504.522 Q1649.83 511.301 1647.32 513.879 Q1644.77 516.458 1638.09 516.458 L1618.73 516.458 L1618.73 520.754 L1614.18 520.754 L1614.18 516.458 L1604.06 516.458 L1604.06 510.569 Z" fill="#000000" fill-rule="nonzero" fill-opacity="1" /><path clip-path="url(#clip480)" d="M1653.14 475.972 Q1659.51 478.454 1661.45 480.81 Q1663.39 483.165 1663.39 487.112 L1663.39 491.79 L1658.49 491.79 L1658.49 488.353 Q1658.49 485.934 1657.34 484.597 Q1656.2 483.26 1651.93 481.637 L1649.26 480.587 L1614.18 495.005 L1614.18 488.799 L1642.06 477.659 L1614.18 466.519 L1614.18 460.312 L1653.14 475.972 Z" fill="#000000" fill-rule="nonzero" fill-opacity="1" /><path clip-path="url(#clip480)" d="M2261.59 18.8205 L2261.59 41.5461 L2271.88 41.5461 Q2277.59 41.5461 2280.71 38.5889 Q2283.83 35.6318 2283.83 30.163 Q2283.83 24.7348 2280.71 21.7777 Q2277.59 18.8205 2271.88 18.8205 L2261.59 18.8205 M2253.41 12.096 L2271.88 12.096 Q2282.05 12.096 2287.23 16.714 Q2292.46 21.2916 2292.46 30.163 Q2292.46 39.1155 2287.23 43.6931 Q2282.05 48.2706 2271.88 48.2706 L2261.59 48.2706 L2261.59 72.576 L2253.41 72.576 L2253.41 12.096 Z" fill="#000000" fill-rule="nonzero" fill-opacity="1" /><path clip-path="url(#clip480)" d="M2317.74 32.4315 Q2311.74 32.4315 2308.26 37.1306 Q2304.77 41.7891 2304.77 49.9314 Q2304.77 58.0738 2308.22 62.7728 Q2311.7 67.4314 2317.74 67.4314 Q2323.69 67.4314 2327.17 62.7323 Q2330.66 58.0333 2330.66 49.9314 Q2330.66 41.8701 2327.17 37.1711 Q2323.69 32.4315 2317.74 32.4315 M2317.74 26.1121 Q2327.46 26.1121 2333.01 32.4315 Q2338.56 38.7509 2338.56 49.9314 Q2338.56 61.0714 2333.01 67.4314 Q2327.46 73.7508 2317.74 73.7508 Q2307.97 73.7508 2302.42 67.4314 Q2296.91 61.0714 2296.91 49.9314 Q2296.91 38.7509 2302.42 32.4315 Q2307.97 26.1121 2317.74 26.1121 Z" fill="#000000" fill-rule="nonzero" fill-opacity="1" /><path clip-path="url(#clip480)" d="M2379.84 28.5427 L2379.84 35.5912 Q2376.68 33.9709 2373.27 33.1607 Q2369.87 32.3505 2366.22 32.3505 Q2360.67 32.3505 2357.88 34.0519 Q2355.13 35.7533 2355.13 39.156 Q2355.13 41.7486 2357.11 43.2475 Q2359.09 44.7058 2365.09 46.0426 L2367.64 46.6097 Q2375.58 48.3111 2378.9 51.4303 Q2382.27 54.509 2382.27 60.0587 Q2382.27 66.3781 2377.24 70.0644 Q2372.26 73.7508 2363.51 73.7508 Q2359.86 73.7508 2355.89 73.0216 Q2351.97 72.3329 2347.59 70.9151 L2347.59 63.2184 Q2351.72 65.3654 2355.73 66.4591 Q2359.74 67.5124 2363.67 67.5124 Q2368.94 67.5124 2371.77 65.73 Q2374.61 63.9071 2374.61 60.6258 Q2374.61 57.5877 2372.54 55.9673 Q2370.52 54.3469 2363.59 52.8481 L2361 52.2405 Q2354.07 50.7821 2350.99 47.7845 Q2347.91 44.7463 2347.91 39.4801 Q2347.91 33.0797 2352.45 29.5959 Q2356.99 26.1121 2365.33 26.1121 Q2369.47 26.1121 2373.11 26.7198 Q2376.76 27.3274 2379.84 28.5427 Z" fill="#000000" fill-rule="nonzero" fill-opacity="1" /><path clip-path="url(#clip480)" d="M2401.51 14.324 L2401.51 27.2059 L2416.86 27.2059 L2416.86 32.9987 L2401.51 32.9987 L2401.51 57.6282 Q2401.51 63.1779 2403.01 64.7578 Q2404.55 66.3376 2409.2 66.3376 L2416.86 66.3376 L2416.86 72.576 L2409.2 72.576 Q2400.58 72.576 2397.3 69.3758 Q2394.01 66.1351 2394.01 57.6282 L2394.01 32.9987 L2388.55 32.9987 L2388.55 27.2059 L2394.01 27.2059 L2394.01 14.324 L2401.51 14.324 Z" fill="#000000" fill-rule="nonzero" fill-opacity="1" /><path clip-path="url(#clip480)" d="M2465.47 48.0275 L2465.47 51.6733 L2431.2 51.6733 Q2431.69 59.3701 2435.82 63.421 Q2439.99 67.4314 2447.4 67.4314 Q2451.7 67.4314 2455.71 66.3781 Q2459.76 65.3249 2463.73 63.2184 L2463.73 70.267 Q2459.72 71.9684 2455.51 72.8596 Q2451.29 73.7508 2446.96 73.7508 Q2436.1 73.7508 2429.74 67.4314 Q2423.42 61.1119 2423.42 50.3365 Q2423.42 39.1965 2429.42 32.6746 Q2435.45 26.1121 2445.66 26.1121 Q2454.82 26.1121 2460.12 32.0264 Q2465.47 37.9003 2465.47 48.0275 M2458.02 45.84 Q2457.94 39.7232 2454.57 36.0774 Q2451.25 32.4315 2445.74 32.4315 Q2439.51 32.4315 2435.74 35.9558 Q2432.01 39.4801 2431.44 45.8805 L2458.02 45.84 Z" fill="#000000" fill-rule="nonzero" fill-opacity="1" /><path clip-path="url(#clip480)" d="M2504 34.1734 Q2502.74 33.4443 2501.24 33.1202 Q2499.78 32.7556 2498 32.7556 Q2491.68 32.7556 2488.28 36.8875 Q2484.92 40.9789 2484.92 48.6757 L2484.92 72.576 L2477.42 72.576 L2477.42 27.2059 L2484.92 27.2059 L2484.92 34.2544 Q2487.27 30.1225 2491.03 28.1376 Q2494.8 26.1121 2500.19 26.1121 Q2500.96 26.1121 2501.89 26.2337 Q2502.82 26.3147 2503.96 26.5172 L2504 34.1734 Z" fill="#000000" fill-rule="nonzero" fill-opacity="1" /><path clip-path="url(#clip480)" d="M2511.81 27.2059 L2519.27 27.2059 L2519.27 72.576 L2511.81 72.576 L2511.81 27.2059 M2511.81 9.54393 L2519.27 9.54393 L2519.27 18.9825 L2511.81 18.9825 L2511.81 9.54393 Z" fill="#000000" fill-rule="nonzero" fill-opacity="1" /><path clip-path="url(#clip480)" d="M2552.44 32.4315 Q2546.45 32.4315 2542.97 37.1306 Q2539.48 41.7891 2539.48 49.9314 Q2539.48 58.0738 2542.93 62.7728 Q2546.41 67.4314 2552.44 67.4314 Q2558.4 67.4314 2561.88 62.7323 Q2565.37 58.0333 2565.37 49.9314 Q2565.37 41.8701 2561.88 37.1711 Q2558.4 32.4315 2552.44 32.4315 M2552.44 26.1121 Q2562.17 26.1121 2567.72 32.4315 Q2573.27 38.7509 2573.27 49.9314 Q2573.27 61.0714 2567.72 67.4314 Q2562.17 73.7508 2552.44 73.7508 Q2542.68 73.7508 2537.13 67.4314 Q2531.62 61.0714 2531.62 49.9314 Q2531.62 38.7509 2537.13 32.4315 Q2542.68 26.1121 2552.44 26.1121 Z" fill="#000000" fill-rule="nonzero" fill-opacity="1" /><path clip-path="url(#clip480)" d="M2611.91 34.1734 Q2610.66 33.4443 2609.16 33.1202 Q2607.7 32.7556 2605.92 32.7556 Q2599.6 32.7556 2596.19 36.8875 Q2592.83 40.9789 2592.83 48.6757 L2592.83 72.576 L2585.34 72.576 L2585.34 27.2059 L2592.83 27.2059 L2592.83 34.2544 Q2595.18 30.1225 2598.95 28.1376 Q2602.72 26.1121 2608.1 26.1121 Q2608.87 26.1121 2609.81 26.2337 Q2610.74 26.3147 2611.87 26.5172 L2611.91 34.1734 Z" fill="#000000" fill-rule="nonzero" fill-opacity="1" /><path clip-path="url(#clip480)" d="M2620.18 62.2867 L2628.72 62.2867 L2628.72 72.576 L2620.18 72.576 L2620.18 62.2867 M2620.18 29.6769 L2628.72 29.6769 L2628.72 39.9662 L2620.18 39.9662 L2620.18 29.6769 Z" fill="#000000" fill-rule="nonzero" fill-opacity="1" /><path clip-path="url(#clip480)" d="M2679.4 34.3355 L2689.32 62.3677 L2703.5 27.2059 L2711.4 27.2059 L2693.05 72.576 L2693.05 89.8329 L2685.6 89.8329 L2685.6 72.576 L2673.69 38.7104 Q2671.91 33.6063 2668.06 33.6063 L2666.07 33.6063 L2666.07 27.2059 L2668.91 27.2059 Q2676.89 27.2059 2679.4 34.3355 Z" fill="#000000" fill-rule="nonzero" fill-opacity="1" /><path clip-path="url(#clip481)" d="M1885.79 1059.26 L1885.79 1063.09 L1940.03 1063.09 L1940.03 1059.26 L1885.79 1059.26 L1885.79 1059.26  Z" fill="#009af9" fill-rule="evenodd" fill-opacity="1"/>
<polyline clip-path="url(#clip481)" style="stroke:#000000; stroke-linecap:round; stroke-linejoin:round; stroke-width:4; stroke-opacity:1; fill:none" points="1885.79,1059.26 1885.79,1063.09 1940.03,1063.09 1940.03,1059.26 1885.79,1059.26 "/>
<path clip-path="url(#clip481)" d="M1940.03 1017.09 L1940.03 1063.09 L1994.27 1063.09 L1994.27 1017.09 L1940.03 1017.09 L1940.03 1017.09  Z" fill="#009af9" fill-rule="evenodd" fill-opacity="1"/>
<polyline clip-path="url(#clip481)" style="stroke:#000000; stroke-linecap:round; stroke-linejoin:round; stroke-width:4; stroke-opacity:1; fill:none" points="1940.03,1017.09 1940.03,1063.09 1994.27,1063.09 1994.27,1017.09 1940.03,1017.09 "/>
<path clip-path="url(#clip481)" d="M1994.27 698.894 L1994.27 1063.09 L2048.51 1063.09 L2048.51 698.894 L1994.27 698.894 L1994.27 698.894  Z" fill="#009af9" fill-rule="evenodd" fill-opacity="1"/>
<polyline clip-path="url(#clip481)" style="stroke:#000000; stroke-linecap:round; stroke-linejoin:round; stroke-width:4; stroke-opacity:1; fill:none" points="1994.27,698.894 1994.27,1063.09 2048.51,1063.09 2048.51,698.894 1994.27,698.894 "/>
<path clip-path="url(#clip481)" d="M2048.51 683.559 L2048.51 1063.09 L2102.74 1063.09 L2102.74 683.559 L2048.51 683.559 L2048.51 683.559  Z" fill="#009af9" fill-rule="evenodd" fill-opacity="1"/>
<polyline clip-path="url(#clip481)" style="stroke:#000000; stroke-linecap:round; stroke-linejoin:round; stroke-width:4; stroke-opacity:1; fill:none" points="2048.51,683.559 2048.51,1063.09 2102.74,1063.09 2102.74,683.559 2048.51,683.559 "/>
<path clip-path="url(#clip481)" d="M2102.74 258.025 L2102.74 1063.09 L2156.98 1063.09 L2156.98 258.025 L2102.74 258.025 L2102.74 258.025  Z" fill="#009af9" fill-rule="evenodd" fill-opacity="1"/>
<polyline clip-path="url(#clip481)" style="stroke:#000000; stroke-linecap:round; stroke-linejoin:round; stroke-width:4; stroke-opacity:1; fill:none" points="2102.74,258.025 2102.74,1063.09 2156.98,1063.09 2156.98,258.025 2102.74,258.025 "/>
<path clip-path="url(#clip481)" d="M2156.98 307.862 L2156.98 1063.09 L2211.22 1063.09 L2211.22 307.862 L2156.98 307.862 L2156.98 307.862  Z" fill="#009af9" fill-rule="evenodd" fill-opacity="1"/>
<polyline clip-path="url(#clip481)" style="stroke:#000000; stroke-linecap:round; stroke-linejoin:round; stroke-width:4; stroke-opacity:1; fill:none" points="2156.98,307.862 2156.98,1063.09 2211.22,1063.09 2211.22,307.862 2156.98,307.862 "/>
<path clip-path="url(#clip481)" d="M2211.22 97.0121 L2211.22 1063.09 L2265.46 1063.09 L2265.46 97.0121 L2211.22 97.0121 L2211.22 97.0121  Z" fill="#009af9" fill-rule="evenodd" fill-opacity="1"/>
<polyline clip-path="url(#clip481)" style="stroke:#000000; stroke-linecap:round; stroke-linejoin:round; stroke-width:4; stroke-opacity:1; fill:none" points="2211.22,97.0121 2211.22,1063.09 2265.46,1063.09 2265.46,97.0121 2211.22,97.0121 "/>
<path clip-path="url(#clip481)" d="M2265.46 518.713 L2265.46 1063.09 L2319.69 1063.09 L2319.69 518.713 L2265.46 518.713 L2265.46 518.713  Z" fill="#009af9" fill-rule="evenodd" fill-opacity="1"/>
<polyline clip-path="url(#clip481)" style="stroke:#000000; stroke-linecap:round; stroke-linejoin:round; stroke-width:4; stroke-opacity:1; fill:none" points="2265.46,518.713 2265.46,1063.09 2319.69,1063.09 2319.69,518.713 2265.46,518.713 "/>
<path clip-path="url(#clip481)" d="M2319.69 537.881 L2319.69 1063.09 L2373.93 1063.09 L2373.93 537.881 L2319.69 537.881 L2319.69 537.881  Z" fill="#009af9" fill-rule="evenodd" fill-opacity="1"/>
<polyline clip-path="url(#clip481)" style="stroke:#000000; stroke-linecap:round; stroke-linejoin:round; stroke-width:4; stroke-opacity:1; fill:none" points="2319.69,537.881 2319.69,1063.09 2373.93,1063.09 2373.93,537.881 2319.69,537.881 "/>
<path clip-path="url(#clip481)" d="M2373.93 668.225 L2373.93 1063.09 L2428.17 1063.09 L2428.17 668.225 L2373.93 668.225 L2373.93 668.225  Z" fill="#009af9" fill-rule="evenodd" fill-opacity="1"/>
<polyline clip-path="url(#clip481)" style="stroke:#000000; stroke-linecap:round; stroke-linejoin:round; stroke-width:4; stroke-opacity:1; fill:none" points="2373.93,668.225 2373.93,1063.09 2428.17,1063.09 2428.17,668.225 2373.93,668.225 "/>
<path clip-path="url(#clip481)" d="M2428.17 656.724 L2428.17 1063.09 L2482.4 1063.09 L2482.4 656.724 L2428.17 656.724 L2428.17 656.724  Z" fill="#009af9" fill-rule="evenodd" fill-opacity="1"/>
<polyline clip-path="url(#clip481)" style="stroke:#000000; stroke-linecap:round; stroke-linejoin:round; stroke-width:4; stroke-opacity:1; fill:none" points="2428.17,656.724 2428.17,1063.09 2482.4,1063.09 2482.4,656.724 2428.17,656.724 "/>
<path clip-path="url(#clip481)" d="M2482.4 909.744 L2482.4 1063.09 L2536.64 1063.09 L2536.64 909.744 L2482.4 909.744 L2482.4 909.744  Z" fill="#009af9" fill-rule="evenodd" fill-opacity="1"/>
<polyline clip-path="url(#clip481)" style="stroke:#000000; stroke-linecap:round; stroke-linejoin:round; stroke-width:4; stroke-opacity:1; fill:none" points="2482.4,909.744 2482.4,1063.09 2536.64,1063.09 2536.64,909.744 2482.4,909.744 "/>
<path clip-path="url(#clip481)" d="M2536.64 905.911 L2536.64 1063.09 L2590.88 1063.09 L2590.88 905.911 L2536.64 905.911 L2536.64 905.911  Z" fill="#009af9" fill-rule="evenodd" fill-opacity="1"/>
<polyline clip-path="url(#clip481)" style="stroke:#000000; stroke-linecap:round; stroke-linejoin:round; stroke-width:4; stroke-opacity:1; fill:none" points="2536.64,905.911 2536.64,1063.09 2590.88,1063.09 2590.88,905.911 2536.64,905.911 "/>
<path clip-path="url(#clip481)" d="M2590.88 997.918 L2590.88 1063.09 L2645.12 1063.09 L2645.12 997.918 L2590.88 997.918 L2590.88 997.918  Z" fill="#009af9" fill-rule="evenodd" fill-opacity="1"/>
<polyline clip-path="url(#clip481)" style="stroke:#000000; stroke-linecap:round; stroke-linejoin:round; stroke-width:4; stroke-opacity:1; fill:none" points="2590.88,997.918 2590.88,1063.09 2645.12,1063.09 2645.12,997.918 2590.88,997.918 "/>
<path clip-path="url(#clip481)" d="M2645.12 1017.09 L2645.12 1063.09 L2699.35 1063.09 L2699.35 1017.09 L2645.12 1017.09 L2645.12 1017.09  Z" fill="#009af9" fill-rule="evenodd" fill-opacity="1"/>
<polyline clip-path="url(#clip481)" style="stroke:#000000; stroke-linecap:round; stroke-linejoin:round; stroke-width:4; stroke-opacity:1; fill:none" points="2645.12,1017.09 2645.12,1063.09 2699.35,1063.09 2699.35,1017.09 2645.12,1017.09 "/>
<path clip-path="url(#clip481)" d="M2699.35 1036.25 L2699.35 1063.09 L2753.59 1063.09 L2753.59 1036.25 L2699.35 1036.25 L2699.35 1036.25  Z" fill="#009af9" fill-rule="evenodd" fill-opacity="1"/>
<polyline clip-path="url(#clip481)" style="stroke:#000000; stroke-linecap:round; stroke-linejoin:round; stroke-width:4; stroke-opacity:1; fill:none" points="2699.35,1036.25 2699.35,1063.09 2753.59,1063.09 2753.59,1036.25 2699.35,1036.25 "/>
<path clip-path="url(#clip481)" d="M2753.59 1017.09 L2753.59 1063.09 L2807.83 1063.09 L2807.83 1017.09 L2753.59 1017.09 L2753.59 1017.09  Z" fill="#009af9" fill-rule="evenodd" fill-opacity="1"/>
<polyline clip-path="url(#clip481)" style="stroke:#000000; stroke-linecap:round; stroke-linejoin:round; stroke-width:4; stroke-opacity:1; fill:none" points="2753.59,1017.09 2753.59,1063.09 2807.83,1063.09 2807.83,1017.09 2753.59,1017.09 "/>
<path clip-path="url(#clip481)" d="M2807.83 1051.59 L2807.83 1063.09 L2862.07 1063.09 L2862.07 1051.59 L2807.83 1051.59 L2807.83 1051.59  Z" fill="#009af9" fill-rule="evenodd" fill-opacity="1"/>
<polyline clip-path="url(#clip481)" style="stroke:#000000; stroke-linecap:round; stroke-linejoin:round; stroke-width:4; stroke-opacity:1; fill:none" points="2807.83,1051.59 2807.83,1063.09 2862.07,1063.09 2862.07,1051.59 2807.83,1051.59 "/>
<path clip-path="url(#clip481)" d="M2862.07 1051.59 L2862.07 1063.09 L2916.3 1063.09 L2916.3 1051.59 L2862.07 1051.59 L2862.07 1051.59  Z" fill="#009af9" fill-rule="evenodd" fill-opacity="1"/>
<polyline clip-path="url(#clip481)" style="stroke:#000000; stroke-linecap:round; stroke-linejoin:round; stroke-width:4; stroke-opacity:1; fill:none" points="2862.07,1051.59 2862.07,1063.09 2916.3,1063.09 2916.3,1051.59 2862.07,1051.59 "/>
<path clip-path="url(#clip481)" d="M2916.3 1032.42 L2916.3 1063.09 L2970.54 1063.09 L2970.54 1032.42 L2916.3 1032.42 L2916.3 1032.42  Z" fill="#009af9" fill-rule="evenodd" fill-opacity="1"/>
<polyline clip-path="url(#clip481)" style="stroke:#000000; stroke-linecap:round; stroke-linejoin:round; stroke-width:4; stroke-opacity:1; fill:none" points="2916.3,1032.42 2916.3,1063.09 2970.54,1063.09 2970.54,1032.42 2916.3,1032.42 "/>
<path clip-path="url(#clip481)" d="M2970.54 1055.42 L2970.54 1063.09 L3024.78 1063.09 L3024.78 1055.42 L2970.54 1055.42 L2970.54 1055.42  Z" fill="#009af9" fill-rule="evenodd" fill-opacity="1"/>
<polyline clip-path="url(#clip481)" style="stroke:#000000; stroke-linecap:round; stroke-linejoin:round; stroke-width:4; stroke-opacity:1; fill:none" points="2970.54,1055.42 2970.54,1063.09 3024.78,1063.09 3024.78,1055.42 2970.54,1055.42 "/>
<path clip-path="url(#clip481)" d="M3024.78 1055.42 L3024.78 1063.09 L3079.01 1063.09 L3079.01 1055.42 L3024.78 1055.42 L3024.78 1055.42  Z" fill="#009af9" fill-rule="evenodd" fill-opacity="1"/>
<polyline clip-path="url(#clip481)" style="stroke:#000000; stroke-linecap:round; stroke-linejoin:round; stroke-width:4; stroke-opacity:1; fill:none" points="3024.78,1055.42 3024.78,1063.09 3079.01,1063.09 3079.01,1055.42 3024.78,1055.42 "/>
<circle clip-path="url(#clip481)" style="fill:#009af9; stroke:none; fill-opacity:0" cx="1912.91" cy="1059.26" r="2"/>
<circle clip-path="url(#clip481)" style="fill:#009af9; stroke:none; fill-opacity:0" cx="1967.15" cy="1017.09" r="2"/>
<circle clip-path="url(#clip481)" style="fill:#009af9; stroke:none; fill-opacity:0" cx="2021.39" cy="698.894" r="2"/>
<circle clip-path="url(#clip481)" style="fill:#009af9; stroke:none; fill-opacity:0" cx="2075.62" cy="683.559" r="2"/>
<circle clip-path="url(#clip481)" style="fill:#009af9; stroke:none; fill-opacity:0" cx="2129.86" cy="258.025" r="2"/>
<circle clip-path="url(#clip481)" style="fill:#009af9; stroke:none; fill-opacity:0" cx="2184.1" cy="307.862" r="2"/>
<circle clip-path="url(#clip481)" style="fill:#009af9; stroke:none; fill-opacity:0" cx="2238.34" cy="97.0121" r="2"/>
<circle clip-path="url(#clip481)" style="fill:#009af9; stroke:none; fill-opacity:0" cx="2292.57" cy="518.713" r="2"/>
<circle clip-path="url(#clip481)" style="fill:#009af9; stroke:none; fill-opacity:0" cx="2346.81" cy="537.881" r="2"/>
<circle clip-path="url(#clip481)" style="fill:#009af9; stroke:none; fill-opacity:0" cx="2401.05" cy="668.225" r="2"/>
<circle clip-path="url(#clip481)" style="fill:#009af9; stroke:none; fill-opacity:0" cx="2455.29" cy="656.724" r="2"/>
<circle clip-path="url(#clip481)" style="fill:#009af9; stroke:none; fill-opacity:0" cx="2509.52" cy="909.744" r="2"/>
<circle clip-path="url(#clip481)" style="fill:#009af9; stroke:none; fill-opacity:0" cx="2563.76" cy="905.911" r="2"/>
<circle clip-path="url(#clip481)" style="fill:#009af9; stroke:none; fill-opacity:0" cx="2618" cy="997.918" r="2"/>
<circle clip-path="url(#clip481)" style="fill:#009af9; stroke:none; fill-opacity:0" cx="2672.24" cy="1017.09" r="2"/>
<circle clip-path="url(#clip481)" style="fill:#009af9; stroke:none; fill-opacity:0" cx="2726.47" cy="1036.25" r="2"/>
<circle clip-path="url(#clip481)" style="fill:#009af9; stroke:none; fill-opacity:0" cx="2780.71" cy="1017.09" r="2"/>
<circle clip-path="url(#clip481)" style="fill:#009af9; stroke:none; fill-opacity:0" cx="2834.95" cy="1051.59" r="2"/>
<circle clip-path="url(#clip481)" style="fill:#009af9; stroke:none; fill-opacity:0" cx="2889.18" cy="1051.59" r="2"/>
<circle clip-path="url(#clip481)" style="fill:#009af9; stroke:none; fill-opacity:0" cx="2943.42" cy="1032.42" r="2"/>
<circle clip-path="url(#clip481)" style="fill:#009af9; stroke:none; fill-opacity:0" cx="2997.66" cy="1055.42" r="2"/>
<circle clip-path="url(#clip481)" style="fill:#009af9; stroke:none; fill-opacity:0" cx="3051.9" cy="1055.42" r="2"/>
<polyline clip-path="url(#clip481)" style="stroke:#ff0000; stroke-linecap:round; stroke-linejoin:round; stroke-width:8; stroke-opacity:1; fill:none" points="2319.69,2029.17 2319.69,-869.066 "/>
<path clip-path="url(#clip480)" d="M2875.69 232.895 L3108.07 232.895 L3108.07 129.215 L2875.69 129.215  Z" fill="#ffffff" fill-rule="evenodd" fill-opacity="1"/>
<polyline clip-path="url(#clip480)" style="stroke:#000000; stroke-linecap:round; stroke-linejoin:round; stroke-width:4; stroke-opacity:1; fill:none" points="2875.69,232.895 3108.07,232.895 3108.07,129.215 2875.69,129.215 2875.69,232.895 "/>
<polyline clip-path="url(#clip480)" style="stroke:#ff0000; stroke-linecap:round; stroke-linejoin:round; stroke-width:8; stroke-opacity:1; fill:none" points="2890.58,181.055 2979.96,181.055 "/>
<path clip-path="url(#clip480)" d="M2994.86 163.775 L3024.1 163.775 L3024.1 167.71 L3011.83 167.71 L3011.83 198.335 L3007.13 198.335 L3007.13 167.71 L2994.86 167.71 L2994.86 163.775 Z" fill="#000000" fill-rule="nonzero" fill-opacity="1" /><path clip-path="url(#clip480)" d="M3036.48 176.39 Q3035.76 175.974 3034.91 175.789 Q3034.07 175.58 3033.05 175.58 Q3029.44 175.58 3027.5 177.941 Q3025.58 180.279 3025.58 184.677 L3025.58 198.335 L3021.29 198.335 L3021.29 172.409 L3025.58 172.409 L3025.58 176.437 Q3026.92 174.076 3029.07 172.941 Q3031.23 171.784 3034.3 171.784 Q3034.74 171.784 3035.28 171.853 Q3035.81 171.9 3036.46 172.015 L3036.48 176.39 Z" fill="#000000" fill-rule="nonzero" fill-opacity="1" /><path clip-path="url(#clip480)" d="M3040.51 188.103 L3040.51 172.409 L3044.77 172.409 L3044.77 187.941 Q3044.77 191.622 3046.2 193.474 Q3047.64 195.302 3050.51 195.302 Q3053.96 195.302 3055.95 193.103 Q3057.96 190.904 3057.96 187.108 L3057.96 172.409 L3062.22 172.409 L3062.22 198.335 L3057.96 198.335 L3057.96 194.353 Q3056.41 196.714 3054.35 197.872 Q3052.31 199.006 3049.6 199.006 Q3045.14 199.006 3042.82 196.228 Q3040.51 193.45 3040.51 188.103 M3051.22 171.784 L3051.22 171.784 Z" fill="#000000" fill-rule="nonzero" fill-opacity="1" /><path clip-path="url(#clip480)" d="M3093.17 184.307 L3093.17 186.39 L3073.59 186.39 Q3073.86 190.788 3076.22 193.103 Q3078.61 195.395 3082.85 195.395 Q3085.3 195.395 3087.59 194.793 Q3089.91 194.191 3092.17 192.988 L3092.17 197.015 Q3089.88 197.987 3087.47 198.497 Q3085.07 199.006 3082.59 199.006 Q3076.39 199.006 3072.75 195.395 Q3069.14 191.784 3069.14 185.626 Q3069.14 179.261 3072.57 175.534 Q3076.02 171.784 3081.85 171.784 Q3087.08 171.784 3090.11 175.164 Q3093.17 178.52 3093.17 184.307 M3088.91 183.057 Q3088.86 179.562 3086.94 177.478 Q3085.04 175.395 3081.9 175.395 Q3078.33 175.395 3076.18 177.409 Q3074.05 179.423 3073.72 183.08 L3088.91 183.057 Z" fill="#000000" fill-rule="nonzero" fill-opacity="1" /></svg>
