<?xml version="1.0" encoding="utf-8"?>
<svg xmlns="http://www.w3.org/2000/svg" xmlns:xlink="http://www.w3.org/1999/xlink" width="700" height="350" viewBox="0 0 2800 1400">
<defs>
  <clipPath id="clip350">
    <rect x="0" y="0" width="2800" height="1400"/>
  </clipPath>
</defs>
<path clip-path="url(#clip350)" d="M0 1400 L2800 1400 L2800 0 L0 0  Z" fill="#ffffff" fill-rule="evenodd" fill-opacity="1"/>
<defs>
  <clipPath id="clip351">
    <rect x="257" y="108" width="2496" height="1138"/>
  </clipPath>
</defs>
<path clip-path="url(#clip350)" d="M257.565 1245.7 L2752.76 1245.7 L2752.76 108.352 L257.565 108.352  Z" fill="#ffffff" fill-rule="evenodd" fill-opacity="1"/>
<polyline clip-path="url(#clip351)" style="stroke:#000000; stroke-linecap:round; stroke-linejoin:round; stroke-width:2; stroke-opacity:0.1; fill:none" points="328.183,1245.7 328.183,108.352 "/>
<polyline clip-path="url(#clip351)" style="stroke:#000000; stroke-linecap:round; stroke-linejoin:round; stroke-width:2; stroke-opacity:0.1; fill:none" points="973.102,1245.7 973.102,108.352 "/>
<polyline clip-path="url(#clip351)" style="stroke:#000000; stroke-linecap:round; stroke-linejoin:round; stroke-width:2; stroke-opacity:0.1; fill:none" points="1618.02,1245.7 1618.02,108.352 "/>
<polyline clip-path="url(#clip351)" style="stroke:#000000; stroke-linecap:round; stroke-linejoin:round; stroke-width:2; stroke-opacity:0.1; fill:none" points="2262.94,1245.7 2262.94,108.352 "/>
<polyline clip-path="url(#clip351)" style="stroke:#000000; stroke-linecap:round; stroke-linejoin:round; stroke-width:2; stroke-opacity:0.1; fill:none" points="257.565,1213.51 2752.76,1213.51 "/>
<polyline clip-path="url(#clip351)" style="stroke:#000000; stroke-linecap:round; stroke-linejoin:round; stroke-width:2; stroke-opacity:0.1; fill:none" points="257.565,995.121 2752.76,995.121 "/>
<polyline clip-path="url(#clip351)" style="stroke:#000000; stroke-linecap:round; stroke-linejoin:round; stroke-width:2; stroke-opacity:0.1; fill:none" points="257.565,776.732 2752.76,776.732 "/>
<polyline clip-path="url(#clip351)" style="stroke:#000000; stroke-linecap:round; stroke-linejoin:round; stroke-width:2; stroke-opacity:0.1; fill:none" points="257.565,558.343 2752.76,558.343 "/>
<polyline clip-path="url(#clip351)" style="stroke:#000000; stroke-linecap:round; stroke-linejoin:round; stroke-width:2; stroke-opacity:0.1; fill:none" points="257.565,339.953 2752.76,339.953 "/>
<polyline clip-path="url(#clip351)" style="stroke:#000000; stroke-linecap:round; stroke-linejoin:round; stroke-width:2; stroke-opacity:0.1; fill:none" points="257.565,121.564 2752.76,121.564 "/>
<polyline clip-path="url(#clip350)" style="stroke:#000000; stroke-linecap:round; stroke-linejoin:round; stroke-width:4; stroke-opacity:1; fill:none" points="257.565,1245.7 2752.76,1245.7 "/>
<polyline clip-path="url(#clip350)" style="stroke:#000000; stroke-linecap:round; stroke-linejoin:round; stroke-width:4; stroke-opacity:1; fill:none" points="328.183,1245.7 328.183,1226.8 "/>
<polyline clip-path="url(#clip350)" style="stroke:#000000; stroke-linecap:round; stroke-linejoin:round; stroke-width:4; stroke-opacity:1; fill:none" points="973.102,1245.7 973.102,1226.8 "/>
<polyline clip-path="url(#clip350)" style="stroke:#000000; stroke-linecap:round; stroke-linejoin:round; stroke-width:4; stroke-opacity:1; fill:none" points="1618.02,1245.7 1618.02,1226.8 "/>
<polyline clip-path="url(#clip350)" style="stroke:#000000; stroke-linecap:round; stroke-linejoin:round; stroke-width:4; stroke-opacity:1; fill:none" points="2262.94,1245.7 2262.94,1226.8 "/>
<path clip-path="url(#clip350)" d="M328.183 1279.82 Q324.572 1279.82 322.744 1283.38 Q320.938 1286.92 320.938 1294.05 Q320.938 1301.16 322.744 1304.73 Q324.572 1308.27 328.183 1308.27 Q331.818 1308.27 333.623 1304.73 Q335.452 1301.16 335.452 1294.05 Q335.452 1286.92 333.623 1283.38 Q331.818 1279.82 328.183 1279.82 M328.183 1276.11 Q333.993 1276.11 337.049 1280.72 Q340.128 1285.3 340.128 1294.05 Q340.128 1302.78 337.049 1307.39 Q333.993 1311.97 328.183 1311.97 Q322.373 1311.97 319.295 1307.39 Q316.239 1302.78 316.239 1294.05 Q316.239 1285.3 319.295 1280.72 Q322.373 1276.11 328.183 1276.11 Z" fill="#000000" fill-rule="nonzero" fill-opacity="1" /><path clip-path="url(#clip350)" d="M932.709 1307.36 L940.348 1307.36 L940.348 1281 L932.038 1282.67 L932.038 1278.41 L940.301 1276.74 L944.977 1276.74 L944.977 1307.36 L952.616 1307.36 L952.616 1311.3 L932.709 1311.3 L932.709 1307.36 Z" fill="#000000" fill-rule="nonzero" fill-opacity="1" /><path clip-path="url(#clip350)" d="M972.061 1279.82 Q968.449 1279.82 966.621 1283.38 Q964.815 1286.92 964.815 1294.05 Q964.815 1301.16 966.621 1304.73 Q968.449 1308.27 972.061 1308.27 Q975.695 1308.27 977.5 1304.73 Q979.329 1301.16 979.329 1294.05 Q979.329 1286.92 977.5 1283.38 Q975.695 1279.82 972.061 1279.82 M972.061 1276.11 Q977.871 1276.11 980.926 1280.72 Q984.005 1285.3 984.005 1294.05 Q984.005 1302.78 980.926 1307.39 Q977.871 1311.97 972.061 1311.97 Q966.25 1311.97 963.172 1307.39 Q960.116 1302.78 960.116 1294.05 Q960.116 1285.3 963.172 1280.72 Q966.25 1276.11 972.061 1276.11 Z" fill="#000000" fill-rule="nonzero" fill-opacity="1" /><path clip-path="url(#clip350)" d="M1002.22 1279.82 Q998.611 1279.82 996.783 1283.38 Q994.977 1286.92 994.977 1294.05 Q994.977 1301.16 996.783 1304.73 Q998.611 1308.27 1002.22 1308.27 Q1005.86 1308.27 1007.66 1304.73 Q1009.49 1301.16 1009.49 1294.05 Q1009.49 1286.92 1007.66 1283.38 Q1005.86 1279.82 1002.22 1279.82 M1002.22 1276.11 Q1008.03 1276.11 1011.09 1280.72 Q1014.17 1285.3 1014.17 1294.05 Q1014.17 1302.78 1011.09 1307.39 Q1008.03 1311.97 1002.22 1311.97 Q996.412 1311.97 993.334 1307.39 Q990.278 1302.78 990.278 1294.05 Q990.278 1285.3 993.334 1280.72 Q996.412 1276.11 1002.22 1276.11 Z" fill="#000000" fill-rule="nonzero" fill-opacity="1" /><path clip-path="url(#clip350)" d="M1581.71 1307.36 L1598.03 1307.36 L1598.03 1311.3 L1576.09 1311.3 L1576.09 1307.36 Q1578.75 1304.61 1583.33 1299.98 Q1587.94 1295.33 1589.12 1293.99 Q1591.37 1291.46 1592.25 1289.73 Q1593.15 1287.97 1593.15 1286.28 Q1593.15 1283.52 1591.2 1281.79 Q1589.28 1280.05 1586.18 1280.05 Q1583.98 1280.05 1581.53 1280.81 Q1579.1 1281.58 1576.32 1283.13 L1576.32 1278.41 Q1579.14 1277.27 1581.6 1276.69 Q1584.05 1276.11 1586.09 1276.11 Q1591.46 1276.11 1594.65 1278.8 Q1597.85 1281.49 1597.85 1285.98 Q1597.85 1288.11 1597.04 1290.03 Q1596.25 1291.92 1594.14 1294.52 Q1593.57 1295.19 1590.46 1298.41 Q1587.36 1301.6 1581.71 1307.36 Z" fill="#000000" fill-rule="nonzero" fill-opacity="1" /><path clip-path="url(#clip350)" d="M1617.85 1279.82 Q1614.24 1279.82 1612.41 1283.38 Q1610.6 1286.92 1610.6 1294.05 Q1610.6 1301.16 1612.41 1304.73 Q1614.24 1308.27 1617.85 1308.27 Q1621.48 1308.27 1623.29 1304.73 Q1625.12 1301.16 1625.12 1294.05 Q1625.12 1286.92 1623.29 1283.38 Q1621.48 1279.82 1617.85 1279.82 M1617.85 1276.11 Q1623.66 1276.11 1626.71 1280.72 Q1629.79 1285.3 1629.79 1294.05 Q1629.79 1302.78 1626.71 1307.39 Q1623.66 1311.97 1617.85 1311.97 Q1612.04 1311.97 1608.96 1307.39 Q1605.9 1302.78 1605.9 1294.05 Q1605.9 1285.3 1608.96 1280.72 Q1612.04 1276.11 1617.85 1276.11 Z" fill="#000000" fill-rule="nonzero" fill-opacity="1" /><path clip-path="url(#clip350)" d="M1648.01 1279.82 Q1644.4 1279.82 1642.57 1283.38 Q1640.76 1286.92 1640.76 1294.05 Q1640.76 1301.16 1642.57 1304.73 Q1644.4 1308.27 1648.01 1308.27 Q1651.64 1308.27 1653.45 1304.73 Q1655.28 1301.16 1655.28 1294.05 Q1655.28 1286.92 1653.45 1283.38 Q1651.64 1279.82 1648.01 1279.82 M1648.01 1276.11 Q1653.82 1276.11 1656.88 1280.72 Q1659.95 1285.3 1659.95 1294.05 Q1659.95 1302.78 1656.88 1307.39 Q1653.82 1311.97 1648.01 1311.97 Q1642.2 1311.97 1639.12 1307.39 Q1636.07 1302.78 1636.07 1294.05 Q1636.07 1285.3 1639.12 1280.72 Q1642.2 1276.11 1648.01 1276.11 Z" fill="#000000" fill-rule="nonzero" fill-opacity="1" /><path clip-path="url(#clip350)" d="M2236.7 1292.67 Q2240.06 1293.38 2241.93 1295.65 Q2243.83 1297.92 2243.83 1301.25 Q2243.83 1306.37 2240.31 1309.17 Q2236.79 1311.97 2230.31 1311.97 Q2228.14 1311.97 2225.82 1311.53 Q2223.53 1311.11 2221.08 1310.26 L2221.08 1305.74 Q2223.02 1306.88 2225.34 1307.46 Q2227.65 1308.04 2230.17 1308.04 Q2234.57 1308.04 2236.86 1306.3 Q2239.18 1304.56 2239.18 1301.25 Q2239.18 1298.2 2237.03 1296.49 Q2234.9 1294.75 2231.08 1294.75 L2227.05 1294.75 L2227.05 1290.91 L2231.26 1290.91 Q2234.71 1290.91 2236.54 1289.54 Q2238.37 1288.15 2238.37 1285.56 Q2238.37 1282.9 2236.47 1281.49 Q2234.6 1280.05 2231.08 1280.05 Q2229.16 1280.05 2226.96 1280.47 Q2224.76 1280.88 2222.12 1281.76 L2222.12 1277.6 Q2224.78 1276.86 2227.1 1276.49 Q2229.43 1276.11 2231.49 1276.11 Q2236.82 1276.11 2239.92 1278.55 Q2243.02 1280.95 2243.02 1285.07 Q2243.02 1287.94 2241.38 1289.93 Q2239.73 1291.9 2236.7 1292.67 Z" fill="#000000" fill-rule="nonzero" fill-opacity="1" /><path clip-path="url(#clip350)" d="M2262.7 1279.82 Q2259.09 1279.82 2257.26 1283.38 Q2255.45 1286.92 2255.45 1294.05 Q2255.45 1301.16 2257.26 1304.73 Q2259.09 1308.27 2262.7 1308.27 Q2266.33 1308.27 2268.14 1304.73 Q2269.97 1301.16 2269.97 1294.05 Q2269.97 1286.92 2268.14 1283.38 Q2266.33 1279.82 2262.7 1279.82 M2262.7 1276.11 Q2268.51 1276.11 2271.56 1280.72 Q2274.64 1285.3 2274.64 1294.05 Q2274.64 1302.78 2271.56 1307.39 Q2268.51 1311.97 2262.7 1311.97 Q2256.89 1311.97 2253.81 1307.39 Q2250.75 1302.78 2250.75 1294.05 Q2250.75 1285.3 2253.81 1280.72 Q2256.89 1276.11 2262.7 1276.11 Z" fill="#000000" fill-rule="nonzero" fill-opacity="1" /><path clip-path="url(#clip350)" d="M2292.86 1279.82 Q2289.25 1279.82 2287.42 1283.38 Q2285.61 1286.92 2285.61 1294.05 Q2285.61 1301.16 2287.42 1304.73 Q2289.25 1308.27 2292.86 1308.27 Q2296.49 1308.27 2298.3 1304.73 Q2300.13 1301.16 2300.13 1294.05 Q2300.13 1286.92 2298.3 1283.38 Q2296.49 1279.82 2292.86 1279.82 M2292.86 1276.11 Q2298.67 1276.11 2301.72 1280.72 Q2304.8 1285.3 2304.8 1294.05 Q2304.8 1302.78 2301.72 1307.39 Q2298.67 1311.97 2292.86 1311.97 Q2287.05 1311.97 2283.97 1307.39 Q2280.91 1302.78 2280.91 1294.05 Q2280.91 1285.3 2283.97 1280.72 Q2287.05 1276.11 2292.86 1276.11 Z" fill="#000000" fill-rule="nonzero" fill-opacity="1" /><path clip-path="url(#clip350)" d="M1451.4 1354.33 L1451.4 1391.28 L1459.17 1391.28 Q1469 1391.28 1473.55 1386.82 Q1478.14 1382.37 1478.14 1372.76 Q1478.14 1363.21 1473.55 1358.78 Q1469 1354.33 1459.17 1354.33 L1451.4 1354.33 M1444.97 1349.04 L1458.18 1349.04 Q1471.99 1349.04 1478.46 1354.8 Q1484.92 1360.53 1484.92 1372.76 Q1484.92 1385.04 1478.42 1390.8 Q1471.93 1396.56 1458.18 1396.56 L1444.97 1396.56 L1444.97 1349.04 Z" fill="#000000" fill-rule="nonzero" fill-opacity="1" /><path clip-path="url(#clip350)" d="M1511.11 1378.64 Q1504.01 1378.64 1501.28 1380.27 Q1498.54 1381.89 1498.54 1385.81 Q1498.54 1388.92 1500.58 1390.77 Q1502.65 1392.59 1506.18 1392.59 Q1511.05 1392.59 1513.98 1389.15 Q1516.94 1385.68 1516.94 1379.95 L1516.94 1378.64 L1511.11 1378.64 M1522.79 1376.23 L1522.79 1396.56 L1516.94 1396.56 L1516.94 1391.15 Q1514.93 1394.4 1511.94 1395.96 Q1508.95 1397.49 1504.62 1397.49 Q1499.14 1397.49 1495.9 1394.43 Q1492.68 1391.34 1492.68 1386.19 Q1492.68 1380.17 1496.69 1377.12 Q1500.74 1374.06 1508.73 1374.06 L1516.94 1374.06 L1516.94 1373.49 Q1516.94 1369.45 1514.26 1367.25 Q1511.62 1365.02 1506.82 1365.02 Q1503.76 1365.02 1500.86 1365.75 Q1497.97 1366.49 1495.29 1367.95 L1495.29 1362.54 Q1498.51 1361.3 1501.53 1360.69 Q1504.56 1360.06 1507.42 1360.06 Q1515.15 1360.06 1518.97 1364.07 Q1522.79 1368.08 1522.79 1376.23 Z" fill="#000000" fill-rule="nonzero" fill-opacity="1" /><path clip-path="url(#clip350)" d="M1549.69 1399.87 Q1547.21 1406.24 1544.85 1408.18 Q1542.5 1410.12 1538.55 1410.12 L1533.87 1410.12 L1533.87 1405.22 L1537.31 1405.22 Q1539.73 1405.22 1541.06 1404.08 Q1542.4 1402.93 1544.02 1398.66 L1545.07 1395.99 L1530.65 1360.92 L1536.86 1360.92 L1548 1388.8 L1559.14 1360.92 L1565.35 1360.92 L1549.69 1399.87 Z" fill="#000000" fill-rule="nonzero" fill-opacity="1" /><polyline clip-path="url(#clip350)" style="stroke:#000000; stroke-linecap:round; stroke-linejoin:round; stroke-width:4; stroke-opacity:1; fill:none" points="257.565,1245.7 257.565,108.352 "/>
<polyline clip-path="url(#clip350)" style="stroke:#000000; stroke-linecap:round; stroke-linejoin:round; stroke-width:4; stroke-opacity:1; fill:none" points="257.565,1213.51 276.462,1213.51 "/>
<polyline clip-path="url(#clip350)" style="stroke:#000000; stroke-linecap:round; stroke-linejoin:round; stroke-width:4; stroke-opacity:1; fill:none" points="257.565,995.121 276.462,995.121 "/>
<polyline clip-path="url(#clip350)" style="stroke:#000000; stroke-linecap:round; stroke-linejoin:round; stroke-width:4; stroke-opacity:1; fill:none" points="257.565,776.732 276.462,776.732 "/>
<polyline clip-path="url(#clip350)" style="stroke:#000000; stroke-linecap:round; stroke-linejoin:round; stroke-width:4; stroke-opacity:1; fill:none" points="257.565,558.343 276.462,558.343 "/>
<polyline clip-path="url(#clip350)" style="stroke:#000000; stroke-linecap:round; stroke-linejoin:round; stroke-width:4; stroke-opacity:1; fill:none" points="257.565,339.953 276.462,339.953 "/>
<polyline clip-path="url(#clip350)" style="stroke:#000000; stroke-linecap:round; stroke-linejoin:round; stroke-width:4; stroke-opacity:1; fill:none" points="257.565,121.564 276.462,121.564 "/>
<path clip-path="url(#clip350)" d="M203.62 1199.31 Q200.009 1199.31 198.181 1202.87 Q196.375 1206.42 196.375 1213.55 Q196.375 1220.65 198.181 1224.22 Q200.009 1227.76 203.62 1227.76 Q207.255 1227.76 209.06 1224.22 Q210.889 1220.65 210.889 1213.55 Q210.889 1206.42 209.06 1202.87 Q207.255 1199.31 203.62 1199.31 M203.62 1195.61 Q209.43 1195.61 212.486 1200.21 Q215.565 1204.8 215.565 1213.55 Q215.565 1222.27 212.486 1226.88 Q209.43 1231.46 203.62 1231.46 Q197.81 1231.46 194.732 1226.88 Q191.676 1222.27 191.676 1213.55 Q191.676 1204.8 194.732 1200.21 Q197.81 1195.61 203.62 1195.61 Z" fill="#000000" fill-rule="nonzero" fill-opacity="1" /><path clip-path="url(#clip350)" d="M103.945 1008.47 L111.584 1008.47 L111.584 982.101 L103.274 983.767 L103.274 979.508 L111.538 977.841 L116.213 977.841 L116.213 1008.47 L123.852 1008.47 L123.852 1012.4 L103.945 1012.4 L103.945 1008.47 Z" fill="#000000" fill-rule="nonzero" fill-opacity="1" /><path clip-path="url(#clip350)" d="M143.297 980.92 Q139.686 980.92 137.857 984.485 Q136.051 988.026 136.051 995.156 Q136.051 1002.26 137.857 1005.83 Q139.686 1009.37 143.297 1009.37 Q146.931 1009.37 148.736 1005.83 Q150.565 1002.26 150.565 995.156 Q150.565 988.026 148.736 984.485 Q146.931 980.92 143.297 980.92 M143.297 977.216 Q149.107 977.216 152.162 981.823 Q155.241 986.406 155.241 995.156 Q155.241 1003.88 152.162 1008.49 Q149.107 1013.07 143.297 1013.07 Q137.486 1013.07 134.408 1008.49 Q131.352 1003.88 131.352 995.156 Q131.352 986.406 134.408 981.823 Q137.486 977.216 143.297 977.216 Z" fill="#000000" fill-rule="nonzero" fill-opacity="1" /><path clip-path="url(#clip350)" d="M173.458 980.92 Q169.847 980.92 168.019 984.485 Q166.213 988.026 166.213 995.156 Q166.213 1002.26 168.019 1005.83 Q169.847 1009.37 173.458 1009.37 Q177.093 1009.37 178.898 1005.83 Q180.727 1002.26 180.727 995.156 Q180.727 988.026 178.898 984.485 Q177.093 980.92 173.458 980.92 M173.458 977.216 Q179.269 977.216 182.324 981.823 Q185.403 986.406 185.403 995.156 Q185.403 1003.88 182.324 1008.49 Q179.269 1013.07 173.458 1013.07 Q167.648 1013.07 164.57 1008.49 Q161.514 1003.88 161.514 995.156 Q161.514 986.406 164.57 981.823 Q167.648 977.216 173.458 977.216 Z" fill="#000000" fill-rule="nonzero" fill-opacity="1" /><path clip-path="url(#clip350)" d="M203.62 980.92 Q200.009 980.92 198.181 984.485 Q196.375 988.026 196.375 995.156 Q196.375 1002.26 198.181 1005.83 Q200.009 1009.37 203.62 1009.37 Q207.255 1009.37 209.06 1005.83 Q210.889 1002.26 210.889 995.156 Q210.889 988.026 209.06 984.485 Q207.255 980.92 203.62 980.92 M203.62 977.216 Q209.43 977.216 212.486 981.823 Q215.565 986.406 215.565 995.156 Q215.565 1003.88 212.486 1008.49 Q209.43 1013.07 203.62 1013.07 Q197.81 1013.07 194.732 1008.49 Q191.676 1003.88 191.676 995.156 Q191.676 986.406 194.732 981.823 Q197.81 977.216 203.62 977.216 Z" fill="#000000" fill-rule="nonzero" fill-opacity="1" /><path clip-path="url(#clip350)" d="M107.163 790.077 L123.482 790.077 L123.482 794.012 L101.538 794.012 L101.538 790.077 Q104.2 787.322 108.783 782.693 Q113.389 778.04 114.57 776.697 Q116.815 774.174 117.695 772.438 Q118.598 770.679 118.598 768.989 Q118.598 766.234 116.653 764.498 Q114.732 762.762 111.63 762.762 Q109.431 762.762 106.977 763.526 Q104.547 764.29 101.769 765.841 L101.769 761.119 Q104.593 759.984 107.047 759.406 Q109.5 758.827 111.538 758.827 Q116.908 758.827 120.102 761.512 Q123.297 764.197 123.297 768.688 Q123.297 770.818 122.487 772.739 Q121.699 774.637 119.593 777.23 Q119.014 777.901 115.912 781.118 Q112.811 784.313 107.163 790.077 Z" fill="#000000" fill-rule="nonzero" fill-opacity="1" /><path clip-path="url(#clip350)" d="M143.297 762.531 Q139.686 762.531 137.857 766.095 Q136.051 769.637 136.051 776.767 Q136.051 783.873 137.857 787.438 Q139.686 790.98 143.297 790.98 Q146.931 790.98 148.736 787.438 Q150.565 783.873 150.565 776.767 Q150.565 769.637 148.736 766.095 Q146.931 762.531 143.297 762.531 M143.297 758.827 Q149.107 758.827 152.162 763.433 Q155.241 768.017 155.241 776.767 Q155.241 785.493 152.162 790.1 Q149.107 794.683 143.297 794.683 Q137.486 794.683 134.408 790.1 Q131.352 785.493 131.352 776.767 Q131.352 768.017 134.408 763.433 Q137.486 758.827 143.297 758.827 Z" fill="#000000" fill-rule="nonzero" fill-opacity="1" /><path clip-path="url(#clip350)" d="M173.458 762.531 Q169.847 762.531 168.019 766.095 Q166.213 769.637 166.213 776.767 Q166.213 783.873 168.019 787.438 Q169.847 790.98 173.458 790.98 Q177.093 790.98 178.898 787.438 Q180.727 783.873 180.727 776.767 Q180.727 769.637 178.898 766.095 Q177.093 762.531 173.458 762.531 M173.458 758.827 Q179.269 758.827 182.324 763.433 Q185.403 768.017 185.403 776.767 Q185.403 785.493 182.324 790.1 Q179.269 794.683 173.458 794.683 Q167.648 794.683 164.57 790.1 Q161.514 785.493 161.514 776.767 Q161.514 768.017 164.57 763.433 Q167.648 758.827 173.458 758.827 Z" fill="#000000" fill-rule="nonzero" fill-opacity="1" /><path clip-path="url(#clip350)" d="M203.62 762.531 Q200.009 762.531 198.181 766.095 Q196.375 769.637 196.375 776.767 Q196.375 783.873 198.181 787.438 Q200.009 790.98 203.62 790.98 Q207.255 790.98 209.06 787.438 Q210.889 783.873 210.889 776.767 Q210.889 769.637 209.06 766.095 Q207.255 762.531 203.62 762.531 M203.62 758.827 Q209.43 758.827 212.486 763.433 Q215.565 768.017 215.565 776.767 Q215.565 785.493 212.486 790.1 Q209.43 794.683 203.62 794.683 Q197.81 794.683 194.732 790.1 Q191.676 785.493 191.676 776.767 Q191.676 768.017 194.732 763.433 Q197.81 758.827 203.62 758.827 Z" fill="#000000" fill-rule="nonzero" fill-opacity="1" /><path clip-path="url(#clip350)" d="M117.301 556.988 Q120.658 557.706 122.533 559.974 Q124.431 562.243 124.431 565.576 Q124.431 570.692 120.912 573.493 Q117.394 576.294 110.913 576.294 Q108.737 576.294 106.422 575.854 Q104.13 575.437 101.676 574.581 L101.676 570.067 Q103.621 571.201 105.936 571.78 Q108.25 572.359 110.774 572.359 Q115.172 572.359 117.463 570.623 Q119.778 568.886 119.778 565.576 Q119.778 562.521 117.625 560.808 Q115.496 559.072 111.676 559.072 L107.649 559.072 L107.649 555.229 L111.862 555.229 Q115.311 555.229 117.139 553.863 Q118.968 552.474 118.968 549.882 Q118.968 547.22 117.07 545.808 Q115.195 544.373 111.676 544.373 Q109.755 544.373 107.556 544.789 Q105.357 545.206 102.718 546.086 L102.718 541.919 Q105.38 541.178 107.695 540.808 Q110.033 540.438 112.093 540.438 Q117.417 540.438 120.519 542.868 Q123.621 545.275 123.621 549.396 Q123.621 552.266 121.977 554.257 Q120.334 556.224 117.301 556.988 Z" fill="#000000" fill-rule="nonzero" fill-opacity="1" /><path clip-path="url(#clip350)" d="M143.297 544.141 Q139.686 544.141 137.857 547.706 Q136.051 551.248 136.051 558.377 Q136.051 565.484 137.857 569.048 Q139.686 572.59 143.297 572.59 Q146.931 572.59 148.736 569.048 Q150.565 565.484 150.565 558.377 Q150.565 551.248 148.736 547.706 Q146.931 544.141 143.297 544.141 M143.297 540.438 Q149.107 540.438 152.162 545.044 Q155.241 549.627 155.241 558.377 Q155.241 567.104 152.162 571.711 Q149.107 576.294 143.297 576.294 Q137.486 576.294 134.408 571.711 Q131.352 567.104 131.352 558.377 Q131.352 549.627 134.408 545.044 Q137.486 540.438 143.297 540.438 Z" fill="#000000" fill-rule="nonzero" fill-opacity="1" /><path clip-path="url(#clip350)" d="M173.458 544.141 Q169.847 544.141 168.019 547.706 Q166.213 551.248 166.213 558.377 Q166.213 565.484 168.019 569.048 Q169.847 572.59 173.458 572.59 Q177.093 572.59 178.898 569.048 Q180.727 565.484 180.727 558.377 Q180.727 551.248 178.898 547.706 Q177.093 544.141 173.458 544.141 M173.458 540.438 Q179.269 540.438 182.324 545.044 Q185.403 549.627 185.403 558.377 Q185.403 567.104 182.324 571.711 Q179.269 576.294 173.458 576.294 Q167.648 576.294 164.57 571.711 Q161.514 567.104 161.514 558.377 Q161.514 549.627 164.57 545.044 Q167.648 540.438 173.458 540.438 Z" fill="#000000" fill-rule="nonzero" fill-opacity="1" /><path clip-path="url(#clip350)" d="M203.62 544.141 Q200.009 544.141 198.181 547.706 Q196.375 551.248 196.375 558.377 Q196.375 565.484 198.181 569.048 Q200.009 572.59 203.62 572.59 Q207.255 572.59 209.06 569.048 Q210.889 565.484 210.889 558.377 Q210.889 551.248 209.06 547.706 Q207.255 544.141 203.62 544.141 M203.62 540.438 Q209.43 540.438 212.486 545.044 Q215.565 549.627 215.565 558.377 Q215.565 567.104 212.486 571.711 Q209.43 576.294 203.62 576.294 Q197.81 576.294 194.732 571.711 Q191.676 567.104 191.676 558.377 Q191.676 549.627 194.732 545.044 Q197.81 540.438 203.62 540.438 Z" fill="#000000" fill-rule="nonzero" fill-opacity="1" /><path clip-path="url(#clip350)" d="M115.982 326.747 L104.176 345.196 L115.982 345.196 L115.982 326.747 M114.755 322.673 L120.635 322.673 L120.635 345.196 L125.565 345.196 L125.565 349.085 L120.635 349.085 L120.635 357.233 L115.982 357.233 L115.982 349.085 L100.38 349.085 L100.38 344.571 L114.755 322.673 Z" fill="#000000" fill-rule="nonzero" fill-opacity="1" /><path clip-path="url(#clip350)" d="M143.297 325.752 Q139.686 325.752 137.857 329.317 Q136.051 332.858 136.051 339.988 Q136.051 347.094 137.857 350.659 Q139.686 354.201 143.297 354.201 Q146.931 354.201 148.736 350.659 Q150.565 347.094 150.565 339.988 Q150.565 332.858 148.736 329.317 Q146.931 325.752 143.297 325.752 M143.297 322.048 Q149.107 322.048 152.162 326.655 Q155.241 331.238 155.241 339.988 Q155.241 348.715 152.162 353.321 Q149.107 357.904 143.297 357.904 Q137.486 357.904 134.408 353.321 Q131.352 348.715 131.352 339.988 Q131.352 331.238 134.408 326.655 Q137.486 322.048 143.297 322.048 Z" fill="#000000" fill-rule="nonzero" fill-opacity="1" /><path clip-path="url(#clip350)" d="M173.458 325.752 Q169.847 325.752 168.019 329.317 Q166.213 332.858 166.213 339.988 Q166.213 347.094 168.019 350.659 Q169.847 354.201 173.458 354.201 Q177.093 354.201 178.898 350.659 Q180.727 347.094 180.727 339.988 Q180.727 332.858 178.898 329.317 Q177.093 325.752 173.458 325.752 M173.458 322.048 Q179.269 322.048 182.324 326.655 Q185.403 331.238 185.403 339.988 Q185.403 348.715 182.324 353.321 Q179.269 357.904 173.458 357.904 Q167.648 357.904 164.57 353.321 Q161.514 348.715 161.514 339.988 Q161.514 331.238 164.57 326.655 Q167.648 322.048 173.458 322.048 Z" fill="#000000" fill-rule="nonzero" fill-opacity="1" /><path clip-path="url(#clip350)" d="M203.62 325.752 Q200.009 325.752 198.181 329.317 Q196.375 332.858 196.375 339.988 Q196.375 347.094 198.181 350.659 Q200.009 354.201 203.62 354.201 Q207.255 354.201 209.06 350.659 Q210.889 347.094 210.889 339.988 Q210.889 332.858 209.06 329.317 Q207.255 325.752 203.62 325.752 M203.62 322.048 Q209.43 322.048 212.486 326.655 Q215.565 331.238 215.565 339.988 Q215.565 348.715 212.486 353.321 Q209.43 357.904 203.62 357.904 Q197.81 357.904 194.732 353.321 Q191.676 348.715 191.676 339.988 Q191.676 331.238 194.732 326.655 Q197.81 322.048 203.62 322.048 Z" fill="#000000" fill-rule="nonzero" fill-opacity="1" /><path clip-path="url(#clip350)" d="M103.181 104.284 L121.537 104.284 L121.537 108.219 L107.463 108.219 L107.463 116.691 Q108.482 116.344 109.5 116.182 Q110.519 115.997 111.538 115.997 Q117.325 115.997 120.704 119.168 Q124.084 122.339 124.084 127.756 Q124.084 133.334 120.612 136.436 Q117.139 139.515 110.82 139.515 Q108.644 139.515 106.375 139.145 Q104.13 138.774 101.723 138.034 L101.723 133.334 Q103.806 134.469 106.028 135.024 Q108.25 135.58 110.727 135.58 Q114.732 135.58 117.07 133.473 Q119.408 131.367 119.408 127.756 Q119.408 124.145 117.07 122.038 Q114.732 119.932 110.727 119.932 Q108.852 119.932 106.977 120.348 Q105.126 120.765 103.181 121.645 L103.181 104.284 Z" fill="#000000" fill-rule="nonzero" fill-opacity="1" /><path clip-path="url(#clip350)" d="M143.297 107.362 Q139.686 107.362 137.857 110.927 Q136.051 114.469 136.051 121.598 Q136.051 128.705 137.857 132.27 Q139.686 135.811 143.297 135.811 Q146.931 135.811 148.736 132.27 Q150.565 128.705 150.565 121.598 Q150.565 114.469 148.736 110.927 Q146.931 107.362 143.297 107.362 M143.297 103.659 Q149.107 103.659 152.162 108.265 Q155.241 112.848 155.241 121.598 Q155.241 130.325 152.162 134.932 Q149.107 139.515 143.297 139.515 Q137.486 139.515 134.408 134.932 Q131.352 130.325 131.352 121.598 Q131.352 112.848 134.408 108.265 Q137.486 103.659 143.297 103.659 Z" fill="#000000" fill-rule="nonzero" fill-opacity="1" /><path clip-path="url(#clip350)" d="M173.458 107.362 Q169.847 107.362 168.019 110.927 Q166.213 114.469 166.213 121.598 Q166.213 128.705 168.019 132.27 Q169.847 135.811 173.458 135.811 Q177.093 135.811 178.898 132.27 Q180.727 128.705 180.727 121.598 Q180.727 114.469 178.898 110.927 Q177.093 107.362 173.458 107.362 M173.458 103.659 Q179.269 103.659 182.324 108.265 Q185.403 112.848 185.403 121.598 Q185.403 130.325 182.324 134.932 Q179.269 139.515 173.458 139.515 Q167.648 139.515 164.57 134.932 Q161.514 130.325 161.514 121.598 Q161.514 112.848 164.57 108.265 Q167.648 103.659 173.458 103.659 Z" fill="#000000" fill-rule="nonzero" fill-opacity="1" /><path clip-path="url(#clip350)" d="M203.62 107.362 Q200.009 107.362 198.181 110.927 Q196.375 114.469 196.375 121.598 Q196.375 128.705 198.181 132.27 Q200.009 135.811 203.62 135.811 Q207.255 135.811 209.06 132.27 Q210.889 128.705 210.889 121.598 Q210.889 114.469 209.06 110.927 Q207.255 107.362 203.62 107.362 M203.62 103.659 Q209.43 103.659 212.486 108.265 Q215.565 112.848 215.565 121.598 Q215.565 130.325 212.486 134.932 Q209.43 139.515 203.62 139.515 Q197.81 139.515 194.732 134.932 Q191.676 130.325 191.676 121.598 Q191.676 112.848 194.732 108.265 Q197.81 103.659 203.62 103.659 Z" fill="#000000" fill-rule="nonzero" fill-opacity="1" /><path clip-path="url(#clip350)" d="M1.88769 1014.52 L38.8406 1014.52 L38.8406 1006.75 Q38.8406 996.919 34.3846 992.367 Q29.9286 987.784 20.3164 987.784 Q10.7679 987.784 6.34369 992.367 Q1.88769 996.919 1.88769 1006.75 L1.88769 1014.52 M-3.39584 1020.95 L-3.39584 1007.74 Q-3.39584 993.927 2.36512 987.466 Q8.09426 981.004 20.3164 981.004 Q32.6022 981.004 38.3632 987.497 Q44.1242 993.99 44.1242 1007.74 L44.1242 1020.95 L-3.39584 1020.95 Z" fill="#000000" fill-rule="nonzero" fill-opacity="1" /><path clip-path="url(#clip350)" d="M26.2047 954.81 Q26.2047 961.907 27.8279 964.645 Q29.4512 967.382 33.3661 967.382 Q36.4853 967.382 38.3314 965.345 Q40.1456 963.276 40.1456 959.743 Q40.1456 954.873 36.7081 951.945 Q33.2388 948.985 27.5097 948.985 L26.2047 948.985 L26.2047 954.81 M23.7857 943.128 L44.1242 943.128 L44.1242 948.985 L38.7133 948.985 Q41.9598 950.99 43.5194 953.982 Q45.0472 956.974 45.0472 961.303 Q45.0472 966.777 41.9916 970.024 Q38.9043 973.238 33.7481 973.238 Q27.7325 973.238 24.6769 969.228 Q21.6214 965.186 21.6214 957.197 L21.6214 948.985 L21.0485 948.985 Q17.0062 948.985 14.8101 951.658 Q12.5821 954.3 12.5821 959.106 Q12.5821 962.162 13.3141 965.058 Q14.0462 967.955 15.5103 970.628 L10.0995 970.628 Q8.85814 967.414 8.2534 964.39 Q7.61683 961.366 7.61683 958.502 Q7.61683 950.767 11.6272 946.948 Q15.6376 943.128 23.7857 943.128 Z" fill="#000000" fill-rule="nonzero" fill-opacity="1" /><path clip-path="url(#clip350)" d="M8.4762 931.065 L8.4762 925.209 L44.1242 925.209 L44.1242 931.065 L8.4762 931.065 M-5.40104 931.065 L-5.40104 925.209 L2.01501 925.209 L2.01501 931.065 L-5.40104 931.065 Z" fill="#000000" fill-rule="nonzero" fill-opacity="1" /><path clip-path="url(#clip350)" d="M-5.40104 912.955 L-5.40104 907.099 L44.1242 907.099 L44.1242 912.955 L-5.40104 912.955 Z" fill="#000000" fill-rule="nonzero" fill-opacity="1" /><path clip-path="url(#clip350)" d="M47.4343 880.012 Q53.8 882.495 55.7416 884.85 Q57.6831 887.206 57.6831 891.152 L57.6831 895.831 L52.7815 895.831 L52.7815 892.394 Q52.7815 889.975 51.6357 888.638 Q50.4899 887.301 46.2248 885.678 L43.5512 884.628 L8.4762 899.046 L8.4762 892.839 L36.358 881.699 L8.4762 870.559 L8.4762 864.353 L47.4343 880.012 Z" fill="#000000" fill-rule="nonzero" fill-opacity="1" /><path clip-path="url(#clip350)" d="M21.8442 812.759 Q22.5444 810.69 24.8361 808.748 Q27.1277 806.775 31.1381 804.802 L44.1242 798.277 L44.1242 805.184 L31.9338 811.263 Q27.1595 813.618 25.6 815.846 Q24.0404 818.042 24.0404 821.862 L24.0404 828.864 L44.1242 828.864 L44.1242 835.293 L-3.39584 835.293 L-3.39584 820.78 Q-3.39584 812.631 0.00981053 808.621 Q3.41546 804.611 10.2904 804.611 Q14.7782 804.611 17.7383 806.711 Q20.6984 808.78 21.8442 812.759 M1.88769 828.864 L18.7568 828.864 L18.7568 820.78 Q18.7568 816.133 16.6243 813.777 Q14.46 811.39 10.2904 811.39 Q6.12089 811.39 4.02021 813.777 Q1.88769 816.133 1.88769 820.78 L1.88769 828.864 Z" fill="#000000" fill-rule="nonzero" fill-opacity="1" /><path clip-path="url(#clip350)" d="M24.8361 762.692 L27.7006 762.692 L27.7006 789.619 Q33.7481 789.237 36.9309 785.991 Q40.0819 782.713 40.0819 776.888 Q40.0819 773.514 39.2544 770.363 Q38.4269 767.18 36.7718 764.061 L42.3099 764.061 Q43.6467 767.212 44.347 770.522 Q45.0472 773.832 45.0472 777.238 Q45.0472 785.768 40.0819 790.765 Q35.1167 795.73 26.6503 795.73 Q17.8974 795.73 12.7731 791.02 Q7.61683 786.277 7.61683 778.257 Q7.61683 771.063 12.2638 766.894 Q16.8789 762.692 24.8361 762.692 M23.1173 768.549 Q18.3112 768.613 15.4466 771.254 Q12.5821 773.864 12.5821 778.193 Q12.5821 783.095 15.3512 786.055 Q18.1202 788.983 23.1492 789.428 L23.1173 768.549 Z" fill="#000000" fill-rule="nonzero" fill-opacity="1" /><path clip-path="url(#clip350)" d="M38.777 747.415 L57.6831 747.415 L57.6831 753.303 L8.4762 753.303 L8.4762 747.415 L13.8871 747.415 Q10.7042 745.569 9.17643 742.768 Q7.61683 739.935 7.61683 736.02 Q7.61683 729.527 12.7731 725.485 Q17.9293 721.411 26.332 721.411 Q34.7347 721.411 39.891 725.485 Q45.0472 729.527 45.0472 736.02 Q45.0472 739.935 43.5194 742.768 Q41.9598 745.569 38.777 747.415 M26.332 727.49 Q19.8708 727.49 16.2105 730.164 Q12.5184 732.805 12.5184 737.452 Q12.5184 742.099 16.2105 744.773 Q19.8708 747.415 26.332 747.415 Q32.7932 747.415 36.4853 744.773 Q40.1456 742.099 40.1456 737.452 Q40.1456 732.805 36.4853 730.164 Q32.7932 727.49 26.332 727.49 Z" fill="#000000" fill-rule="nonzero" fill-opacity="1" /><path clip-path="url(#clip350)" d="M12.5821 697.89 Q12.5821 702.6 16.2742 705.337 Q19.9345 708.075 26.332 708.075 Q32.7295 708.075 36.4217 705.369 Q40.0819 702.632 40.0819 697.89 Q40.0819 693.211 36.3898 690.474 Q32.6977 687.736 26.332 687.736 Q19.9981 687.736 16.306 690.474 Q12.5821 693.211 12.5821 697.89 M7.61683 697.89 Q7.61683 690.251 12.5821 685.89 Q17.5473 681.53 26.332 681.53 Q35.0849 681.53 40.0819 685.89 Q45.0472 690.251 45.0472 697.89 Q45.0472 705.56 40.0819 709.921 Q35.0849 714.249 26.332 714.249 Q17.5473 714.249 12.5821 709.921 Q7.61683 705.56 7.61683 697.89 Z" fill="#000000" fill-rule="nonzero" fill-opacity="1" /><path clip-path="url(#clip350)" d="M13.9507 651.165 Q13.3778 652.152 13.1232 653.33 Q12.8367 654.475 12.8367 655.876 Q12.8367 660.841 16.0832 663.515 Q19.2979 666.157 25.3453 666.157 L44.1242 666.157 L44.1242 672.045 L8.4762 672.045 L8.4762 666.157 L14.0144 666.157 Q10.7679 664.31 9.20826 661.35 Q7.61683 658.39 7.61683 654.157 Q7.61683 653.552 7.71232 652.82 Q7.77597 652.088 7.93512 651.197 L13.9507 651.165 Z" fill="#000000" fill-rule="nonzero" fill-opacity="1" /><path clip-path="url(#clip350)" d="M-1.64527 639.23 L8.4762 639.23 L8.4762 627.167 L13.0277 627.167 L13.0277 639.23 L32.3794 639.23 Q36.7399 639.23 37.9813 638.052 Q39.2226 636.842 39.2226 633.182 L39.2226 627.167 L44.1242 627.167 L44.1242 633.182 Q44.1242 639.962 41.6097 642.54 Q39.0634 645.118 32.3794 645.118 L13.0277 645.118 L13.0277 649.415 L8.4762 649.415 L8.4762 645.118 L-1.64527 645.118 L-1.64527 639.23 Z" fill="#000000" fill-rule="nonzero" fill-opacity="1" /><path clip-path="url(#clip350)" d="M24.8361 588.972 L27.7006 588.972 L27.7006 615.899 Q33.7481 615.517 36.9309 612.271 Q40.0819 608.992 40.0819 603.168 Q40.0819 599.794 39.2544 596.643 Q38.4269 593.46 36.7718 590.341 L42.3099 590.341 Q43.6467 593.492 44.347 596.802 Q45.0472 600.112 45.0472 603.518 Q45.0472 612.048 40.0819 617.045 Q35.1167 622.01 26.6503 622.01 Q17.8974 622.01 12.7731 617.3 Q7.61683 612.557 7.61683 604.536 Q7.61683 597.343 12.2638 593.174 Q16.8789 588.972 24.8361 588.972 M23.1173 594.829 Q18.3112 594.892 15.4466 597.534 Q12.5821 600.144 12.5821 604.473 Q12.5821 609.374 15.3512 612.334 Q18.1202 615.263 23.1492 615.708 L23.1173 594.829 Z" fill="#000000" fill-rule="nonzero" fill-opacity="1" /><path clip-path="url(#clip350)" d="M13.8871 555.903 L-5.40104 555.903 L-5.40104 550.046 L44.1242 550.046 L44.1242 555.903 L38.777 555.903 Q41.9598 557.749 43.5194 560.581 Q45.0472 563.382 45.0472 567.329 Q45.0472 573.79 39.891 577.864 Q34.7347 581.906 26.332 581.906 Q17.9293 581.906 12.7731 577.864 Q7.61683 573.79 7.61683 567.329 Q7.61683 563.382 9.17643 560.581 Q10.7042 557.749 13.8871 555.903 M26.332 575.859 Q32.7932 575.859 36.4853 573.217 Q40.1456 570.544 40.1456 565.897 Q40.1456 561.25 36.4853 558.576 Q32.7932 555.903 26.332 555.903 Q19.8708 555.903 16.2105 558.576 Q12.5184 561.25 12.5184 565.897 Q12.5184 570.544 16.2105 573.217 Q19.8708 575.859 26.332 575.859 Z" fill="#000000" fill-rule="nonzero" fill-opacity="1" /><path clip-path="url(#clip350)" d="M0.264439 481.424 L7.04392 481.424 Q4.02021 484.67 2.52426 488.362 Q1.02832 492.023 1.02832 496.16 Q1.02832 504.308 6.0254 508.637 Q10.9907 512.966 20.4119 512.966 Q29.8013 512.966 34.7984 508.637 Q39.7636 504.308 39.7636 496.16 Q39.7636 492.023 38.2677 488.362 Q36.7718 484.67 33.7481 481.424 L40.4639 481.424 Q42.7555 484.798 43.9014 488.585 Q45.0472 492.341 45.0472 496.542 Q45.0472 507.332 38.4587 513.539 Q31.8383 519.745 20.4119 519.745 Q8.95363 519.745 2.36512 513.539 Q-4.25521 507.332 -4.25521 496.542 Q-4.25521 492.277 -3.10939 488.521 Q-1.99539 484.734 0.264439 481.424 Z" fill="#000000" fill-rule="nonzero" fill-opacity="1" /><path clip-path="url(#clip350)" d="M26.2047 455.547 Q26.2047 462.645 27.8279 465.382 Q29.4512 468.119 33.3661 468.119 Q36.4853 468.119 38.3314 466.082 Q40.1456 464.014 40.1456 460.481 Q40.1456 455.611 36.7081 452.683 Q33.2388 449.723 27.5097 449.723 L26.2047 449.723 L26.2047 455.547 M23.7857 443.866 L44.1242 443.866 L44.1242 449.723 L38.7133 449.723 Q41.9598 451.728 43.5194 454.72 Q45.0472 457.711 45.0472 462.04 Q45.0472 467.515 41.9916 470.761 Q38.9043 473.976 33.7481 473.976 Q27.7325 473.976 24.6769 469.965 Q21.6214 465.923 21.6214 457.934 L21.6214 449.723 L21.0485 449.723 Q17.0062 449.723 14.8101 452.396 Q12.5821 455.038 12.5821 459.844 Q12.5821 462.9 13.3141 465.796 Q14.0462 468.692 15.5103 471.366 L10.0995 471.366 Q8.85814 468.151 8.2534 465.128 Q7.61683 462.104 7.61683 459.239 Q7.61683 451.505 11.6272 447.685 Q15.6376 443.866 23.7857 443.866 Z" fill="#000000" fill-rule="nonzero" fill-opacity="1" /><path clip-path="url(#clip350)" d="M9.52654 409.077 L15.0647 409.077 Q13.7916 411.56 13.155 414.234 Q12.5184 416.907 12.5184 419.772 Q12.5184 424.132 13.8552 426.329 Q15.192 428.493 17.8656 428.493 Q19.9026 428.493 21.0803 426.933 Q22.2261 425.374 23.2765 420.663 L23.7221 418.658 Q25.0589 412.419 27.5097 409.81 Q29.9286 407.168 34.2891 407.168 Q39.2544 407.168 42.1508 411.115 Q45.0472 415.029 45.0472 421.904 Q45.0472 424.769 44.4743 427.888 Q43.9332 430.976 42.8192 434.413 L36.7718 434.413 Q38.4587 431.166 39.318 428.015 Q40.1456 424.864 40.1456 421.777 Q40.1456 417.639 38.7451 415.411 Q37.3129 413.183 34.7347 413.183 Q32.3476 413.183 31.0745 414.807 Q29.8013 416.398 28.6237 421.841 L28.1462 423.878 Q27.0004 429.32 24.6451 431.739 Q22.258 434.158 18.1202 434.158 Q13.0913 434.158 10.3541 430.594 Q7.61683 427.029 7.61683 420.472 Q7.61683 417.226 8.09426 414.361 Q8.57169 411.496 9.52654 409.077 Z" fill="#000000" fill-rule="nonzero" fill-opacity="1" /><path clip-path="url(#clip350)" d="M24.8361 367.35 L27.7006 367.35 L27.7006 394.277 Q33.7481 393.895 36.9309 390.649 Q40.0819 387.37 40.0819 381.546 Q40.0819 378.172 39.2544 375.021 Q38.4269 371.838 36.7718 368.719 L42.3099 368.719 Q43.6467 371.87 44.347 375.18 Q45.0472 378.49 45.0472 381.896 Q45.0472 390.426 40.0819 395.423 Q35.1167 400.388 26.6503 400.388 Q17.8974 400.388 12.7731 395.678 Q7.61683 390.935 7.61683 382.914 Q7.61683 375.721 12.2638 371.552 Q16.8789 367.35 24.8361 367.35 M23.1173 373.207 Q18.3112 373.27 15.4466 375.912 Q12.5821 378.522 12.5821 382.851 Q12.5821 387.752 15.3512 390.712 Q18.1202 393.641 23.1492 394.086 L23.1173 373.207 Z" fill="#000000" fill-rule="nonzero" fill-opacity="1" /><path clip-path="url(#clip350)" d="M9.52654 335.012 L15.0647 335.012 Q13.7916 337.495 13.155 340.169 Q12.5184 342.842 12.5184 345.707 Q12.5184 350.067 13.8552 352.264 Q15.192 354.428 17.8656 354.428 Q19.9026 354.428 21.0803 352.868 Q22.2261 351.309 23.2765 346.598 L23.7221 344.593 Q25.0589 338.354 27.5097 335.745 Q29.9286 333.103 34.2891 333.103 Q39.2544 333.103 42.1508 337.05 Q45.0472 340.964 45.0472 347.839 Q45.0472 350.704 44.4743 353.823 Q43.9332 356.911 42.8192 360.348 L36.7718 360.348 Q38.4587 357.101 39.318 353.95 Q40.1456 350.799 40.1456 347.712 Q40.1456 343.574 38.7451 341.346 Q37.3129 339.118 34.7347 339.118 Q32.3476 339.118 31.0745 340.742 Q29.8013 342.333 28.6237 347.776 L28.1462 349.813 Q27.0004 355.255 24.6451 357.674 Q22.258 360.093 18.1202 360.093 Q13.0913 360.093 10.3541 356.529 Q7.61683 352.964 7.61683 346.407 Q7.61683 343.161 8.09426 340.296 Q8.57169 337.431 9.52654 335.012 Z" fill="#000000" fill-rule="nonzero" fill-opacity="1" /><path clip-path="url(#clip350)" d="M845.511 12.096 L883.752 12.096 L883.752 18.9825 L853.694 18.9825 L853.694 36.8875 L882.496 36.8875 L882.496 43.7741 L853.694 43.7741 L853.694 65.6895 L884.481 65.6895 L884.481 72.576 L845.511 72.576 L845.511 12.096 Z" fill="#000000" fill-rule="nonzero" fill-opacity="1" /><path clip-path="url(#clip350)" d="M935.32 27.2059 L918.913 49.2833 L936.17 72.576 L927.38 72.576 L914.174 54.752 L900.968 72.576 L892.177 72.576 L909.799 48.8377 L893.676 27.2059 L902.467 27.2059 L914.498 43.369 L926.529 27.2059 L935.32 27.2059 Z" fill="#000000" fill-rule="nonzero" fill-opacity="1" /><path clip-path="url(#clip350)" d="M953.913 65.7705 L953.913 89.8329 L946.419 89.8329 L946.419 27.2059 L953.913 27.2059 L953.913 34.0924 Q956.263 30.0415 959.828 28.0971 Q963.433 26.1121 968.416 26.1121 Q976.679 26.1121 981.824 32.6746 Q987.009 39.2371 987.009 49.9314 Q987.009 60.6258 981.824 67.1883 Q976.679 73.7508 968.416 73.7508 Q963.433 73.7508 959.828 71.8063 Q956.263 69.8214 953.913 65.7705 M979.272 49.9314 Q979.272 41.7081 975.869 37.0496 Q972.507 32.3505 966.593 32.3505 Q960.678 32.3505 957.276 37.0496 Q953.913 41.7081 953.913 49.9314 Q953.913 58.1548 957.276 62.8538 Q960.678 67.5124 966.593 67.5124 Q972.507 67.5124 975.869 62.8538 Q979.272 58.1548 979.272 49.9314 Z" fill="#000000" fill-rule="nonzero" fill-opacity="1" /><path clip-path="url(#clip350)" d="M1038.17 48.0275 L1038.17 51.6733 L1003.9 51.6733 Q1004.39 59.3701 1008.52 63.421 Q1012.69 67.4314 1020.11 67.4314 Q1024.4 67.4314 1028.41 66.3781 Q1032.46 65.3249 1036.43 63.2184 L1036.43 70.267 Q1032.42 71.9684 1028.21 72.8596 Q1023.99 73.7508 1019.66 73.7508 Q1008.8 73.7508 1002.44 67.4314 Q996.124 61.1119 996.124 50.3365 Q996.124 39.1965 1002.12 32.6746 Q1008.15 26.1121 1018.36 26.1121 Q1027.52 26.1121 1032.82 32.0264 Q1038.17 37.9003 1038.17 48.0275 M1030.72 45.84 Q1030.64 39.7232 1027.28 36.0774 Q1023.95 32.4315 1018.44 32.4315 Q1012.21 32.4315 1008.44 35.9558 Q1004.71 39.4801 1004.14 45.8805 L1030.72 45.84 Z" fill="#000000" fill-rule="nonzero" fill-opacity="1" /><path clip-path="url(#clip350)" d="M1083.06 28.9478 L1083.06 35.9153 Q1079.9 34.1734 1076.7 33.3227 Q1073.54 32.4315 1070.3 32.4315 Q1063.04 32.4315 1059.03 37.0496 Q1055.02 41.6271 1055.02 49.9314 Q1055.02 58.2358 1059.03 62.8538 Q1063.04 67.4314 1070.3 67.4314 Q1073.54 67.4314 1076.7 66.5807 Q1079.9 65.6895 1083.06 63.9476 L1083.06 70.8341 Q1079.94 72.2924 1076.57 73.0216 Q1073.25 73.7508 1069.49 73.7508 Q1059.24 73.7508 1053.2 67.3098 Q1047.17 60.8689 1047.17 49.9314 Q1047.17 38.832 1053.24 32.472 Q1059.36 26.1121 1069.97 26.1121 Q1073.41 26.1121 1076.7 26.8413 Q1079.98 27.5299 1083.06 28.9478 Z" fill="#000000" fill-rule="nonzero" fill-opacity="1" /><path clip-path="url(#clip350)" d="M1103.39 14.324 L1103.39 27.2059 L1118.74 27.2059 L1118.74 32.9987 L1103.39 32.9987 L1103.39 57.6282 Q1103.39 63.1779 1104.89 64.7578 Q1106.43 66.3376 1111.09 66.3376 L1118.74 66.3376 L1118.74 72.576 L1111.09 72.576 Q1102.46 72.576 1099.18 69.3758 Q1095.9 66.1351 1095.9 57.6282 L1095.9 32.9987 L1090.43 32.9987 L1090.43 27.2059 L1095.9 27.2059 L1095.9 14.324 L1103.39 14.324 Z" fill="#000000" fill-rule="nonzero" fill-opacity="1" /><path clip-path="url(#clip350)" d="M1167.36 48.0275 L1167.36 51.6733 L1133.08 51.6733 Q1133.57 59.3701 1137.7 63.421 Q1141.88 67.4314 1149.29 67.4314 Q1153.58 67.4314 1157.59 66.3781 Q1161.64 65.3249 1165.61 63.2184 L1165.61 70.267 Q1161.6 71.9684 1157.39 72.8596 Q1153.18 73.7508 1148.84 73.7508 Q1137.99 73.7508 1131.63 67.4314 Q1125.31 61.1119 1125.31 50.3365 Q1125.31 39.1965 1131.3 32.6746 Q1137.34 26.1121 1147.55 26.1121 Q1156.7 26.1121 1162.01 32.0264 Q1167.36 37.9003 1167.36 48.0275 M1159.9 45.84 Q1159.82 39.7232 1156.46 36.0774 Q1153.14 32.4315 1147.63 32.4315 Q1141.39 32.4315 1137.62 35.9558 Q1133.89 39.4801 1133.33 45.8805 L1159.9 45.84 Z" fill="#000000" fill-rule="nonzero" fill-opacity="1" /><path clip-path="url(#clip350)" d="M1209.44 34.0924 L1209.44 9.54393 L1216.9 9.54393 L1216.9 72.576 L1209.44 72.576 L1209.44 65.7705 Q1207.09 69.8214 1203.49 71.8063 Q1199.92 73.7508 1194.9 73.7508 Q1186.68 73.7508 1181.49 67.1883 Q1176.35 60.6258 1176.35 49.9314 Q1176.35 39.2371 1181.49 32.6746 Q1186.68 26.1121 1194.9 26.1121 Q1199.92 26.1121 1203.49 28.0971 Q1207.09 30.0415 1209.44 34.0924 M1184.05 49.9314 Q1184.05 58.1548 1187.41 62.8538 Q1190.81 67.5124 1196.72 67.5124 Q1202.64 67.5124 1206.04 62.8538 Q1209.44 58.1548 1209.44 49.9314 Q1209.44 41.7081 1206.04 37.0496 Q1202.64 32.3505 1196.72 32.3505 Q1190.81 32.3505 1187.41 37.0496 Q1184.05 41.7081 1184.05 49.9314 Z" fill="#000000" fill-rule="nonzero" fill-opacity="1" /><path clip-path="url(#clip350)" d="M1267.13 18.8205 L1267.13 65.8515 L1277.01 65.8515 Q1289.53 65.8515 1295.32 60.1802 Q1301.16 54.509 1301.16 42.2752 Q1301.16 30.1225 1295.32 24.4918 Q1289.53 18.8205 1277.01 18.8205 L1267.13 18.8205 M1258.95 12.096 L1275.76 12.096 Q1293.34 12.096 1301.56 19.4281 Q1309.79 26.7198 1309.79 42.2752 Q1309.79 57.9117 1301.52 65.2439 Q1293.26 72.576 1275.76 72.576 L1258.95 72.576 L1258.95 12.096 Z" fill="#000000" fill-rule="nonzero" fill-opacity="1" /><path clip-path="url(#clip350)" d="M1343.12 49.7694 Q1334.09 49.7694 1330.61 51.8354 Q1327.12 53.9013 1327.12 58.8839 Q1327.12 62.8538 1329.72 65.2034 Q1332.35 67.5124 1336.85 67.5124 Q1343.04 67.5124 1346.77 63.1374 Q1350.54 58.7219 1350.54 51.4303 L1350.54 49.7694 L1343.12 49.7694 M1357.99 46.6907 L1357.99 72.576 L1350.54 72.576 L1350.54 65.6895 Q1347.99 69.8214 1344.18 71.8063 Q1340.37 73.7508 1334.86 73.7508 Q1327.89 73.7508 1323.76 69.8619 Q1319.67 65.9325 1319.67 59.3701 Q1319.67 51.7138 1324.77 47.825 Q1329.92 43.9361 1340.09 43.9361 L1350.54 43.9361 L1350.54 43.2069 Q1350.54 38.0623 1347.13 35.2672 Q1343.77 32.4315 1337.66 32.4315 Q1333.77 32.4315 1330.08 33.3632 Q1326.39 34.295 1322.99 36.1584 L1322.99 29.2718 Q1327.08 27.692 1330.93 26.9223 Q1334.78 26.1121 1338.43 26.1121 Q1348.27 26.1121 1353.13 31.2163 Q1357.99 36.3204 1357.99 46.6907 Z" fill="#000000" fill-rule="nonzero" fill-opacity="1" /><path clip-path="url(#clip350)" d="M1373.34 27.2059 L1380.8 27.2059 L1380.8 72.576 L1373.34 72.576 L1373.34 27.2059 M1373.34 9.54393 L1380.8 9.54393 L1380.8 18.9825 L1373.34 18.9825 L1373.34 9.54393 Z" fill="#000000" fill-rule="nonzero" fill-opacity="1" /><path clip-path="url(#clip350)" d="M1396.39 9.54393 L1403.85 9.54393 L1403.85 72.576 L1396.39 72.576 L1396.39 9.54393 Z" fill="#000000" fill-rule="nonzero" fill-opacity="1" /><path clip-path="url(#clip350)" d="M1438.32 76.7889 Q1435.16 84.8907 1432.16 87.3618 Q1429.17 89.8329 1424.14 89.8329 L1418.19 89.8329 L1418.19 83.5945 L1422.56 83.5945 Q1425.64 83.5945 1427.34 82.1361 Q1429.04 80.6778 1431.11 75.2496 L1432.45 71.8468 L1414.1 27.2059 L1422 27.2059 L1436.17 62.6918 L1450.35 27.2059 L1458.25 27.2059 L1438.32 76.7889 Z" fill="#000000" fill-rule="nonzero" fill-opacity="1" /><path clip-path="url(#clip350)" d="M1540.52 16.7545 L1540.52 25.383 Q1536.39 21.5346 1531.69 19.6307 Q1527.04 17.7268 1521.77 17.7268 Q1511.4 17.7268 1505.89 24.0867 Q1500.38 30.4061 1500.38 42.3968 Q1500.38 54.3469 1505.89 60.7069 Q1511.4 67.0263 1521.77 67.0263 Q1527.04 67.0263 1531.69 65.1223 Q1536.39 63.2184 1540.52 59.3701 L1540.52 67.9175 Q1536.23 70.8341 1531.41 72.2924 Q1526.63 73.7508 1521.28 73.7508 Q1507.55 73.7508 1499.65 65.3654 Q1491.75 56.9395 1491.75 42.3968 Q1491.75 27.8135 1499.65 19.4281 Q1507.55 11.0023 1521.28 11.0023 Q1526.71 11.0023 1531.49 12.4606 Q1536.31 13.8784 1540.52 16.7545 Z" fill="#000000" fill-rule="nonzero" fill-opacity="1" /><path clip-path="url(#clip350)" d="M1573.46 49.7694 Q1564.43 49.7694 1560.94 51.8354 Q1557.46 53.9013 1557.46 58.8839 Q1557.46 62.8538 1560.05 65.2034 Q1562.68 67.5124 1567.18 67.5124 Q1573.38 67.5124 1577.1 63.1374 Q1580.87 58.7219 1580.87 51.4303 L1580.87 49.7694 L1573.46 49.7694 M1588.33 46.6907 L1588.33 72.576 L1580.87 72.576 L1580.87 65.6895 Q1578.32 69.8214 1574.51 71.8063 Q1570.7 73.7508 1565.19 73.7508 Q1558.23 73.7508 1554.1 69.8619 Q1550 65.9325 1550 59.3701 Q1550 51.7138 1555.11 47.825 Q1560.25 43.9361 1570.42 43.9361 L1580.87 43.9361 L1580.87 43.2069 Q1580.87 38.0623 1577.47 35.2672 Q1574.11 32.4315 1567.99 32.4315 Q1564.1 32.4315 1560.41 33.3632 Q1556.73 34.295 1553.33 36.1584 L1553.33 29.2718 Q1557.42 27.692 1561.27 26.9223 Q1565.11 26.1121 1568.76 26.1121 Q1578.6 26.1121 1583.46 31.2163 Q1588.33 36.3204 1588.33 46.6907 Z" fill="#000000" fill-rule="nonzero" fill-opacity="1" /><path clip-path="url(#clip350)" d="M1632.6 28.5427 L1632.6 35.5912 Q1629.44 33.9709 1626.04 33.1607 Q1622.64 32.3505 1618.99 32.3505 Q1613.44 32.3505 1610.65 34.0519 Q1607.89 35.7533 1607.89 39.156 Q1607.89 41.7486 1609.88 43.2475 Q1611.86 44.7058 1617.86 46.0426 L1620.41 46.6097 Q1628.35 48.3111 1631.67 51.4303 Q1635.03 54.509 1635.03 60.0587 Q1635.03 66.3781 1630.01 70.0644 Q1625.03 73.7508 1616.28 73.7508 Q1612.63 73.7508 1608.66 73.0216 Q1604.73 72.3329 1600.36 70.9151 L1600.36 63.2184 Q1604.49 65.3654 1608.5 66.4591 Q1612.51 67.5124 1616.44 67.5124 Q1621.7 67.5124 1624.54 65.73 Q1627.38 63.9071 1627.38 60.6258 Q1627.38 57.5877 1625.31 55.9673 Q1623.28 54.3469 1616.36 52.8481 L1613.77 52.2405 Q1606.84 50.7821 1603.76 47.7845 Q1600.68 44.7463 1600.68 39.4801 Q1600.68 33.0797 1605.22 29.5959 Q1609.75 26.1121 1618.1 26.1121 Q1622.23 26.1121 1625.88 26.7198 Q1629.52 27.3274 1632.6 28.5427 Z" fill="#000000" fill-rule="nonzero" fill-opacity="1" /><path clip-path="url(#clip350)" d="M1685.71 48.0275 L1685.71 51.6733 L1651.44 51.6733 Q1651.92 59.3701 1656.06 63.421 Q1660.23 67.4314 1667.64 67.4314 Q1671.94 67.4314 1675.95 66.3781 Q1680 65.3249 1683.97 63.2184 L1683.97 70.267 Q1679.96 71.9684 1675.74 72.8596 Q1671.53 73.7508 1667.2 73.7508 Q1656.34 73.7508 1649.98 67.4314 Q1643.66 61.1119 1643.66 50.3365 Q1643.66 39.1965 1649.66 32.6746 Q1655.69 26.1121 1665.9 26.1121 Q1675.06 26.1121 1680.36 32.0264 Q1685.71 37.9003 1685.71 48.0275 M1678.26 45.84 Q1678.17 39.7232 1674.81 36.0774 Q1671.49 32.4315 1665.98 32.4315 Q1659.74 32.4315 1655.98 35.9558 Q1652.25 39.4801 1651.68 45.8805 L1678.26 45.84 Z" fill="#000000" fill-rule="nonzero" fill-opacity="1" /><path clip-path="url(#clip350)" d="M1726.87 28.5427 L1726.87 35.5912 Q1723.71 33.9709 1720.3 33.1607 Q1716.9 32.3505 1713.26 32.3505 Q1707.71 32.3505 1704.91 34.0519 Q1702.16 35.7533 1702.16 39.156 Q1702.16 41.7486 1704.14 43.2475 Q1706.13 44.7058 1712.12 46.0426 L1714.67 46.6097 Q1722.61 48.3111 1725.93 51.4303 Q1729.3 54.509 1729.3 60.0587 Q1729.3 66.3781 1724.27 70.0644 Q1719.29 73.7508 1710.54 73.7508 Q1706.9 73.7508 1702.93 73.0216 Q1699 72.3329 1694.62 70.9151 L1694.62 63.2184 Q1698.75 65.3654 1702.76 66.4591 Q1706.77 67.5124 1710.7 67.5124 Q1715.97 67.5124 1718.81 65.73 Q1721.64 63.9071 1721.64 60.6258 Q1721.64 57.5877 1719.57 55.9673 Q1717.55 54.3469 1710.62 52.8481 L1708.03 52.2405 Q1701.1 50.7821 1698.02 47.7845 Q1694.95 44.7463 1694.95 39.4801 Q1694.95 33.0797 1699.48 29.5959 Q1704.02 26.1121 1712.36 26.1121 Q1716.5 26.1121 1720.14 26.7198 Q1723.79 27.3274 1726.87 28.5427 Z" fill="#000000" fill-rule="nonzero" fill-opacity="1" /><path clip-path="url(#clip350)" d="M1800.11 49.9314 Q1800.11 41.7081 1796.7 37.0496 Q1793.34 32.3505 1787.43 32.3505 Q1781.51 32.3505 1778.11 37.0496 Q1774.75 41.7081 1774.75 49.9314 Q1774.75 58.1548 1778.11 62.8538 Q1781.51 67.5124 1787.43 67.5124 Q1793.34 67.5124 1796.7 62.8538 Q1800.11 58.1548 1800.11 49.9314 M1774.75 34.0924 Q1777.1 30.0415 1780.66 28.0971 Q1784.27 26.1121 1789.25 26.1121 Q1797.51 26.1121 1802.66 32.6746 Q1807.84 39.2371 1807.84 49.9314 Q1807.84 60.6258 1802.66 67.1883 Q1797.51 73.7508 1789.25 73.7508 Q1784.27 73.7508 1780.66 71.8063 Q1777.1 69.8214 1774.75 65.7705 L1774.75 72.576 L1767.25 72.576 L1767.25 9.54393 L1774.75 9.54393 L1774.75 34.0924 Z" fill="#000000" fill-rule="nonzero" fill-opacity="1" /><path clip-path="url(#clip350)" d="M1839.08 76.7889 Q1835.92 84.8907 1832.92 87.3618 Q1829.92 89.8329 1824.9 89.8329 L1818.94 89.8329 L1818.94 83.5945 L1823.32 83.5945 Q1826.4 83.5945 1828.1 82.1361 Q1829.8 80.6778 1831.87 75.2496 L1833.2 71.8468 L1814.85 27.2059 L1822.75 27.2059 L1836.93 62.6918 L1851.11 27.2059 L1859.01 27.2059 L1839.08 76.7889 Z" fill="#000000" fill-rule="nonzero" fill-opacity="1" /><path clip-path="url(#clip350)" d="M1924.67 44.2197 Q1927.31 45.1109 1929.78 48.0275 Q1932.29 50.9442 1934.8 56.0483 L1943.1 72.576 L1934.31 72.576 L1926.58 57.061 Q1923.58 50.9847 1920.74 48.9997 Q1917.95 47.0148 1913.09 47.0148 L1904.17 47.0148 L1904.17 72.576 L1895.99 72.576 L1895.99 12.096 L1914.46 12.096 Q1924.83 12.096 1929.94 16.4305 Q1935.04 20.7649 1935.04 29.5149 Q1935.04 35.2267 1932.37 38.994 Q1929.74 42.7613 1924.67 44.2197 M1904.17 18.8205 L1904.17 40.2903 L1914.46 40.2903 Q1920.38 40.2903 1923.38 37.5762 Q1926.41 34.8216 1926.41 29.5149 Q1926.41 24.2082 1923.38 21.5346 Q1920.38 18.8205 1914.46 18.8205 L1904.17 18.8205 Z" fill="#000000" fill-rule="nonzero" fill-opacity="1" /><path clip-path="url(#clip350)" d="M1988.39 48.0275 L1988.39 51.6733 L1954.12 51.6733 Q1954.61 59.3701 1958.74 63.421 Q1962.91 67.4314 1970.33 67.4314 Q1974.62 67.4314 1978.63 66.3781 Q1982.68 65.3249 1986.65 63.2184 L1986.65 70.267 Q1982.64 71.9684 1978.43 72.8596 Q1974.21 73.7508 1969.88 73.7508 Q1959.02 73.7508 1952.66 67.4314 Q1946.34 61.1119 1946.34 50.3365 Q1946.34 39.1965 1952.34 32.6746 Q1958.38 26.1121 1968.58 26.1121 Q1977.74 26.1121 1983.05 32.0264 Q1988.39 37.9003 1988.39 48.0275 M1980.94 45.84 Q1980.86 39.7232 1977.5 36.0774 Q1974.17 32.4315 1968.66 32.4315 Q1962.43 32.4315 1958.66 35.9558 Q1954.93 39.4801 1954.37 45.8805 L1980.94 45.84 Z" fill="#000000" fill-rule="nonzero" fill-opacity="1" /><path clip-path="url(#clip350)" d="M2030.48 49.3643 Q2030.48 41.2625 2027.12 36.8065 Q2023.8 32.3505 2017.76 32.3505 Q2011.77 32.3505 2008.4 36.8065 Q2005.08 41.2625 2005.08 49.3643 Q2005.08 57.4256 2008.4 61.8816 Q2011.77 66.3376 2017.76 66.3376 Q2023.8 66.3376 2027.12 61.8816 Q2030.48 57.4256 2030.48 49.3643 M2037.94 66.9452 Q2037.94 78.5308 2032.79 84.1616 Q2027.65 89.8329 2017.03 89.8329 Q2013.1 89.8329 2009.62 89.2252 Q2006.14 88.6581 2002.85 87.4428 L2002.85 80.1917 Q2006.14 81.9741 2009.34 82.8248 Q2012.54 83.6755 2015.86 83.6755 Q2023.19 83.6755 2026.84 79.8271 Q2030.48 76.0193 2030.48 68.282 L2030.48 64.5957 Q2028.17 68.6061 2024.57 70.5911 Q2020.96 72.576 2015.94 72.576 Q2007.59 72.576 2002.49 66.2161 Q1997.39 59.8562 1997.39 49.3643 Q1997.39 38.832 2002.49 32.472 Q2007.59 26.1121 2015.94 26.1121 Q2020.96 26.1121 2024.57 28.0971 Q2028.17 30.082 2030.48 34.0924 L2030.48 27.2059 L2037.94 27.2059 L2037.94 66.9452 Z" fill="#000000" fill-rule="nonzero" fill-opacity="1" /><path clip-path="url(#clip350)" d="M2053.29 27.2059 L2060.74 27.2059 L2060.74 72.576 L2053.29 72.576 L2053.29 27.2059 M2053.29 9.54393 L2060.74 9.54393 L2060.74 18.9825 L2053.29 18.9825 L2053.29 9.54393 Z" fill="#000000" fill-rule="nonzero" fill-opacity="1" /><path clip-path="url(#clip350)" d="M2093.92 32.4315 Q2087.92 32.4315 2084.44 37.1306 Q2080.96 41.7891 2080.96 49.9314 Q2080.96 58.0738 2084.4 62.7728 Q2087.88 67.4314 2093.92 67.4314 Q2099.87 67.4314 2103.36 62.7323 Q2106.84 58.0333 2106.84 49.9314 Q2106.84 41.8701 2103.36 37.1711 Q2099.87 32.4315 2093.92 32.4315 M2093.92 26.1121 Q2103.64 26.1121 2109.19 32.4315 Q2114.74 38.7509 2114.74 49.9314 Q2114.74 61.0714 2109.19 67.4314 Q2103.64 73.7508 2093.92 73.7508 Q2084.16 73.7508 2078.61 67.4314 Q2073.1 61.0714 2073.1 49.9314 Q2073.1 38.7509 2078.61 32.4315 Q2084.16 26.1121 2093.92 26.1121 Z" fill="#000000" fill-rule="nonzero" fill-opacity="1" /><path clip-path="url(#clip350)" d="M2164.81 45.1919 L2164.81 72.576 L2157.36 72.576 L2157.36 45.4349 Q2157.36 38.994 2154.84 35.7938 Q2152.33 32.5936 2147.31 32.5936 Q2141.27 32.5936 2137.79 36.4419 Q2134.31 40.2903 2134.31 46.9338 L2134.31 72.576 L2126.81 72.576 L2126.81 27.2059 L2134.31 27.2059 L2134.31 34.2544 Q2136.98 30.163 2140.59 28.1376 Q2144.23 26.1121 2148.97 26.1121 Q2156.79 26.1121 2160.8 30.9732 Q2164.81 35.7938 2164.81 45.1919 Z" fill="#000000" fill-rule="nonzero" fill-opacity="1" /><polyline clip-path="url(#clip351)" style="stroke:#4682b4; stroke-linecap:round; stroke-linejoin:round; stroke-width:8; stroke-opacity:1; fill:none" points="328.183,1213.51 334.633,1212.65 341.082,1212.08 347.531,1211.63 353.98,1211.22 360.429,1210.8 366.878,1210.34 373.328,1209.82 379.777,1209.23 386.226,1208.55 392.675,1207.77 399.124,1206.85 405.574,1205.8 412.023,1204.58 418.472,1203.17 424.921,1201.53 431.37,1199.63 437.82,1197.43 444.269,1194.89 450.718,1191.95 457.167,1188.53 463.616,1184.58 470.065,1180.01 476.515,1174.72 482.964,1168.59 489.413,1161.49 495.862,1153.27 502.311,1143.77 508.761,1132.77 515.21,1120.05 521.659,1105.39 528.108,1088.89 534.557,1070.56 541.007,1050.32 547.456,1028.1 553.905,1003.57 560.354,976.646 566.803,947.886 573.253,917.225 579.702,883.947 586.151,847.362 592.6,808.853 599.049,769.394 605.498,728.706 611.948,685.333 618.397,639.628 624.846,593.853 631.295,548.794 637.744,503.703 644.194,457.315 650.643,411.941 657.092,369.46 663.541,330.058 669.99,292.315 676.44,256.559 682.889,225.52 689.338,200.313 695.787,180.361 702.236,164.183 708.685,153.342 715.135,147.495 721.584,145.04 728.033,143.44 734.482,141.257 740.931,140.541 747.381,140.699 753.83,141.871 760.279,145.097 766.728,151.668 773.177,160.304 779.627,170.688 786.076,182.842 792.525,196.925 798.974,212.884 805.423,230.499 811.873,249.651 818.322,270.271 824.771,292.325 831.22,315.676 837.669,340.092 844.118,365.423 850.568,391.616 857.017,418.69 863.466,446.427 869.915,474.524 876.364,502.835 882.814,531.383 889.263,560.202 895.712,589.109 902.161,617.995 908.61,646.182 915.06,672.385 921.509,695.239 927.958,715.654 934.407,733.559 940.856,749.305 947.305,763.962 953.755,778.248 960.204,791.465 966.653,803.693 973.102,815.064 979.551,825.717 986.001,835.612 992.45,844.905 998.899,853.705 1005.35,862.019 1011.8,869.752 1018.25,876.751 1024.7,883.181 1031.14,889.302 1037.59,895.217 1044.04,900.868 1050.49,906.031 1056.94,910.443 1063.39,914.402 1069.84,918.197 1076.29,921.927 1082.74,925.505 1089.19,928.667 1095.64,931.083 1102.09,933.137 1108.54,935.334 1114.98,937.892 1121.43,940.737 1127.88,943.509 1134.33,945.784 1140.78,947.914 1147.23,950.164 1153.68,952.608 1160.13,955.142 1166.58,957.487 1173.03,959.336 1179.48,961.025 1185.93,962.803 1192.37,964.748 1198.82,966.784 1205.27,968.688 1211.72,970.155 1218.17,971.411 1224.62,972.733 1231.07,974.228 1237.52,975.857 1243.97,977.433 1250.42,978.63 1256.87,979.467 1263.32,980.313 1269.76,981.349 1276.21,982.59 1282.66,983.884 1289.11,984.913 1295.56,985.423 1302.01,985.83 1308.46,986.408 1314.91,987.238 1321.36,988.213 1327.81,989.037 1334.26,989.324 1340.71,989.388 1347.16,989.577 1353.6,990.012 1360.05,990.623 1366.5,991.154 1372.95,991.208 1379.4,991.001 1385.85,990.879 1392.3,990.968 1398.75,991.222 1405.2,991.425 1411.65,991.219 1418.1,990.748 1424.55,990.336 1430.99,990.108 1437.44,990.033 1443.89,989.929 1450.34,989.473 1456.79,988.715 1463.24,987.986 1469.69,987.431 1476.14,987.042 1482.59,986.667 1489.04,985.999 1495.49,984.926 1501.94,983.841 1508.38,982.974 1514.83,982.363 1521.28,981.861 1527.73,981.13 1534.18,979.878 1540.63,978.545 1547.08,977.382 1553.53,976.445 1559.98,975.608 1566.43,974.566 1572.88,973.106 1579.33,971.604 1585.78,970.235 1592.22,969.026 1598.67,967.865 1605.12,966.497 1611.57,964.802 1618.02,963.077 1624.47,961.465 1630.92,959.989 1637.37,958.552 1643.82,956.935 1650.27,954.972 1656.72,952.936 1663.17,951.011 1669.61,949.248 1676.06,947.57 1682.51,945.773 1688.96,943.574 1695.41,941.162 1701.86,938.838 1708.31,936.728 1714.76,934.794 1721.21,932.835 1727.66,930.49 1734.11,927.72 1740.56,924.962 1747,922.442 1753.45,920.177 1759.9,917.984 1766.35,915.475 1772.8,912.407 1779.25,909.279 1785.7,906.367 1792.15,903.726 1798.6,901.193 1805.05,898.39 1811.5,895.032 1817.95,891.599 1824.4,888.353 1830.84,885.346 1837.29,882.432 1843.74,879.264 1850.19,875.593 1856.64,871.854 1863.09,868.283 1869.54,864.927 1875.99,861.654 1882.44,858.145 1888.89,854.147 1895.34,850.058 1901.79,846.13 1908.23,842.429 1914.68,838.838 1921.13,835.057 1927.58,830.704 1934.03,826.121 1940.48,821.85 1946.93,818.139 1953.38,814.939 1959.83,811.906 1966.28,808.475 1972.73,804.914 1979.18,801.798 1985.62,799.345 1992.07,797.445 1998.52,795.654 2004.97,793.341 2011.42,790.996 2017.87,789.081 2024.32,787.708 2030.77,786.743 2037.22,785.802 2043.67,784.609 2050.12,783.626 2056.57,783.043 2063.02,782.883 2069.46,783.009 2075.91,783.123 2082.36,783.169 2088.81,783.455 2095.26,784.116 2101.71,785.159 2108.16,786.467 2114.61,787.796 2121.06,789.024 2127.51,790.441 2133.96,792.211 2140.41,794.374 2146.85,796.842 2153.3,799.403 2159.75,801.785 2166.2,804.192 2172.65,806.892 2179.1,809.99 2185.55,813.453 2192,817.103 2198.45,820.621 2204.9,823.931 2211.35,827.406 2217.8,831.229 2224.24,835.429 2230.69,839.882 2237.14,844.314 2243.59,848.442 2250.04,852.593 2256.49,856.992 2262.94,861.705 2269.39,866.664 2275.84,871.665 2282.29,876.416 2288.74,881.1 2295.19,885.934 2301.64,890.989 2308.08,896.231 2314.53,901.529 2320.98,906.658 2327.43,911.673 2333.88,916.76 2340.33,921.979 2346.78,927.324 2353.23,932.718 2359.68,938.016 2366.13,943.161 2372.58,948.311 2379.03,953.521 2385.47,958.802 2391.92,964.117 2398.37,969.385 2404.82,974.507 2411.27,979.567 2417.72,984.628 2424.17,989.707 2430.62,994.793 2437.07,999.848 2443.52,1004.8 2449.97,1009.66 2456.42,1014.48 2462.86,1019.26 2469.31,1024.02 2475.76,1028.73 2482.21,1033.37 2488.66,1037.93 2495.11,1042.42 2501.56,1046.86 2508.01,1051.23 2514.46,1055.53 2520.91,1059.77 2527.36,1063.94 2533.81,1068.06 2540.26,1072.1 2546.7,1076.05 2553.15,1079.92 2559.6,1083.72 2566.05,1087.47 2572.5,1091.17 2578.95,1094.78 2585.4,1098.3 2591.85,1101.73 2598.3,1105.07 2604.75,1108.38 2611.2,1111.65 2617.65,1114.84 2624.09,1117.93 2630.54,1120.92 2636.99,1123.82 2643.44,1126.69 2649.89,1129.53 2656.34,1132.3 2662.79,1134.97 2669.24,1137.56 2675.69,1140.06 2682.14,1142.52 "/>
<polyline clip-path="url(#clip351)" style="stroke:#ffa500; stroke-linecap:round; stroke-linejoin:round; stroke-width:8; stroke-opacity:1; fill:none" points="328.183,1213.51 334.633,1213.48 341.082,1213.45 347.531,1213.44 353.98,1213.43 360.429,1213.42 366.878,1213.42 373.328,1213.41 379.777,1213.41 386.226,1213.4 392.675,1213.39 399.124,1213.39 405.574,1213.38 412.023,1213.37 418.472,1213.36 424.921,1213.35 431.37,1213.33 437.82,1213.31 444.269,1213.29 450.718,1213.27 457.167,1213.25 463.616,1213.22 470.065,1213.18 476.515,1213.14 482.964,1213.09 489.413,1213.04 495.862,1212.97 502.311,1212.89 508.761,1212.8 515.21,1212.69 521.659,1212.57 528.108,1212.42 534.557,1212.26 541.007,1212.06 547.456,1211.83 553.905,1211.57 560.354,1211.28 566.803,1210.93 573.253,1210.54 579.702,1210.08 586.151,1209.56 592.6,1208.96 599.049,1208.28 605.498,1207.51 611.948,1206.63 618.397,1205.62 624.846,1204.48 631.295,1203.2 637.744,1201.74 644.194,1200.09 650.643,1198.24 657.092,1196.15 663.541,1193.8 669.99,1191.16 676.44,1188.2 682.889,1184.88 689.338,1181.16 695.787,1176.99 702.236,1172.32 708.685,1167.09 715.135,1161.35 721.584,1155.17 728.033,1148.59 734.482,1141.56 740.931,1134.11 747.381,1126.56 753.83,1118.92 760.279,1110.96 766.728,1102.29 773.177,1093.36 779.627,1084.47 786.076,1075.66 792.525,1066.66 798.974,1057.43 805.423,1048.43 811.873,1039.85 818.322,1031.61 824.771,1023.44 831.22,1015.56 837.669,1008.41 844.118,1002.14 850.568,996.58 857.017,991.412 863.466,987.009 869.915,983.741 876.364,981.677 882.814,980.606 889.263,980.151 895.712,980.694 902.161,982.613 908.61,985.647 915.06,988.895 921.509,991.217 927.958,993.252 934.407,994.96 940.856,996.407 947.305,997.978 953.755,999.934 960.204,1001.93 966.653,1003.93 973.102,1005.98 979.551,1008.17 986.001,1010.47 992.45,1012.83 998.899,1015.24 1005.35,1017.68 1011.8,1020.22 1018.25,1022.89 1024.7,1025.64 1031.14,1028.42 1037.59,1031.21 1044.04,1034.03 1050.49,1036.92 1056.94,1039.92 1063.39,1042.96 1069.84,1046.02 1076.29,1049.07 1082.74,1052.11 1089.19,1055.2 1095.64,1058.4 1102.09,1061.64 1108.54,1064.66 1114.98,1067.36 1121.43,1069.74 1127.88,1071.91 1134.33,1074.04 1140.78,1076.08 1147.23,1077.96 1153.68,1079.68 1160.13,1081.27 1166.58,1082.79 1173.03,1084.31 1179.48,1085.75 1185.93,1087.08 1192.37,1088.31 1198.82,1089.43 1205.27,1090.48 1211.72,1091.5 1218.17,1092.46 1224.62,1093.34 1231.07,1094.13 1237.52,1094.85 1243.97,1095.5 1250.42,1096.1 1256.87,1096.65 1263.32,1097.13 1269.76,1097.55 1276.21,1097.91 1282.66,1098.2 1289.11,1098.44 1295.56,1098.62 1302.01,1098.74 1308.46,1098.8 1314.91,1098.82 1321.36,1098.78 1327.81,1098.68 1334.26,1098.52 1340.71,1098.29 1347.16,1098.02 1353.6,1097.7 1360.05,1097.32 1366.5,1096.89 1372.95,1096.39 1379.4,1095.83 1385.85,1095.21 1392.3,1094.54 1398.75,1093.82 1405.2,1093.04 1411.65,1092.18 1418.1,1091.26 1424.55,1090.28 1430.99,1089.24 1437.44,1088.14 1443.89,1086.98 1450.34,1085.75 1456.79,1084.43 1463.24,1083.05 1469.69,1081.6 1476.14,1080.08 1482.59,1078.49 1489.04,1076.82 1495.49,1075.03 1501.94,1073.2 1508.38,1071.44 1514.83,1069.76 1521.28,1068.1 1527.73,1066.3 1534.18,1064.24 1540.63,1062.1 1547.08,1060.01 1553.53,1057.99 1559.98,1055.99 1566.43,1053.85 1572.88,1051.46 1579.33,1049.02 1585.78,1046.61 1592.22,1044.24 1598.67,1041.85 1605.12,1039.32 1611.57,1036.57 1618.02,1033.76 1624.47,1030.97 1630.92,1028.21 1637.37,1025.43 1643.82,1022.5 1650.27,1019.33 1656.72,1016.07 1663.17,1012.83 1669.61,1009.63 1676.06,1006.44 1682.51,1003.12 1688.96,999.513 1695.41,995.721 1701.86,991.932 1708.31,988.225 1714.76,984.575 1721.21,980.855 1727.66,976.832 1734.11,972.474 1740.56,968.068 1747,963.769 1753.45,959.59 1759.9,955.403 1766.35,950.939 1772.8,946.02 1779.25,940.999 1785.7,936.084 1792.15,931.316 1798.6,926.573 1805.05,921.568 1811.5,916.077 1817.95,910.468 1824.4,904.959 1830.84,899.596 1837.29,894.257 1843.74,888.653 1850.19,882.57 1856.64,876.375 1863.09,870.287 1869.54,864.353 1875.99,858.449 1882.44,852.288 1888.89,845.625 1895.34,838.833 1901.79,832.171 1908.23,825.711 1914.68,819.335 1921.13,812.739 1927.58,805.519 1934.03,798.019 1940.48,790.868 1946.93,784.36 1953.38,778.449 1959.83,772.746 1966.28,766.603 1972.73,760.311 1979.18,754.595 1985.62,749.745 1992.07,745.626 1998.52,741.682 2004.97,737.11 2011.42,732.531 2017.87,728.57 2024.32,725.394 2030.77,722.822 2037.22,720.327 2043.67,717.524 2050.12,715.059 2056.57,713.222 2063.02,712.053 2069.46,711.347 2075.91,710.664 2082.36,709.914 2088.81,709.565 2095.26,709.834 2101.71,710.735 2108.16,712.082 2114.61,713.489 2121.06,714.758 2127.51,716.352 2133.96,718.536 2140.41,721.372 2146.85,724.717 2153.3,728.226 2159.75,731.459 2166.2,734.747 2172.65,738.512 2179.1,742.923 2185.55,747.921 2192,753.221 2198.45,758.311 2204.9,763.081 2211.35,768.111 2217.8,773.672 2224.24,779.804 2230.69,786.317 2237.14,792.791 2243.59,798.798 2250.04,804.838 2256.49,811.223 2262.94,818.042 2269.39,825.194 2275.84,832.388 2282.29,839.213 2288.74,845.936 2295.19,852.835 2301.64,859.993 2308.08,867.364 2314.53,874.778 2320.98,881.951 2327.43,888.965 2333.88,896.031 2340.33,903.205 2346.78,910.474 2353.23,917.757 2359.68,924.898 2366.13,931.852 2372.58,938.77 2379.03,945.686 2385.47,952.6 2391.92,959.482 2398.37,966.273 2404.82,972.906 2411.27,979.451 2417.72,985.921 2424.17,992.311 2430.62,998.613 2437.07,1004.82 2443.52,1010.92 2449.97,1016.93 2456.42,1022.84 2462.86,1028.62 2469.31,1034.26 2475.76,1039.78 2482.21,1045.2 2488.66,1050.56 2495.11,1055.83 2501.56,1060.95 2508.01,1065.91 2514.46,1070.73 2520.91,1075.43 2527.36,1080.1 2533.81,1084.69 2540.26,1089.13 2546.7,1093.42 2553.15,1097.55 2559.6,1101.57 2566.05,1105.55 2572.5,1109.47 2578.95,1113.25 2585.4,1116.89 2591.85,1120.37 2598.3,1123.75 2604.75,1127.09 2611.2,1130.38 2617.65,1133.56 2624.09,1136.59 2630.54,1139.5 2636.99,1142.29 2643.44,1145.04 2649.89,1147.75 2656.34,1150.37 2662.79,1152.88 2669.24,1155.27 2675.69,1157.56 2682.14,1159.81 "/>
<polyline clip-path="url(#clip351)" style="stroke:#008000; stroke-linecap:round; stroke-linejoin:round; stroke-width:8; stroke-opacity:1; fill:none" points="328.183,1213.51 334.633,1213.51 341.082,1213.5 347.531,1213.5 353.98,1213.5 360.429,1213.5 366.878,1213.5 373.328,1213.5 379.777,1213.5 386.226,1213.5 392.675,1213.5 399.124,1213.5 405.574,1213.5 412.023,1213.5 418.472,1213.5 424.921,1213.5 431.37,1213.5 437.82,1213.49 444.269,1213.49 450.718,1213.49 457.167,1213.49 463.616,1213.49 470.065,1213.49 476.515,1213.48 482.964,1213.48 489.413,1213.48 495.862,1213.47 502.311,1213.47 508.761,1213.46 515.21,1213.46 521.659,1213.45 528.108,1213.44 534.557,1213.43 541.007,1213.42 547.456,1213.41 553.905,1213.39 560.354,1213.37 566.803,1213.35 573.253,1213.33 579.702,1213.3 586.151,1213.27 592.6,1213.23 599.049,1213.19 605.498,1213.15 611.948,1213.09 618.397,1213.04 624.846,1212.97 631.295,1212.9 637.744,1212.82 644.194,1212.73 650.643,1212.63 657.092,1212.52 663.541,1212.4 669.99,1212.27 676.44,1212.12 682.889,1211.96 689.338,1211.79 695.787,1211.6 702.236,1211.39 708.685,1211.16 715.135,1210.92 721.584,1210.67 728.033,1210.4 734.482,1210.12 740.931,1209.82 747.381,1209.51 753.83,1209.19 760.279,1208.86 766.728,1208.5 773.177,1208.13 779.627,1207.75 786.076,1207.35 792.525,1206.93 798.974,1206.5 805.423,1206.05 811.873,1205.59 818.322,1205.11 824.771,1204.62 831.22,1204.11 837.669,1203.58 844.118,1203.05 850.568,1202.5 857.017,1201.94 863.466,1201.36 869.915,1200.77 876.364,1200.18 882.814,1199.57 889.263,1198.95 895.712,1198.32 902.161,1197.69 908.61,1197.06 915.06,1196.44 921.509,1195.83 927.958,1195.23 934.407,1194.67 940.856,1194.13 947.305,1193.62 953.755,1193.12 960.204,1192.64 966.653,1192.2 973.102,1191.79 979.551,1191.41 986.001,1191.05 992.45,1190.73 998.899,1190.47 1005.35,1190.25 1011.8,1190.06 1018.25,1189.89 1024.7,1189.76 1031.14,1189.68 1037.59,1189.67 1044.04,1189.71 1050.49,1189.78 1056.94,1189.87 1063.39,1189.99 1069.84,1190.17 1076.29,1190.41 1082.74,1190.7 1089.19,1191.02 1095.64,1191.36 1102.09,1191.73 1108.54,1192.1 1114.98,1192.43 1121.43,1192.72 1127.88,1192.97 1134.33,1193.2 1140.78,1193.43 1147.23,1193.64 1153.68,1193.85 1160.13,1194.05 1166.58,1194.24 1173.03,1194.44 1179.48,1194.63 1185.93,1194.81 1192.37,1194.99 1198.82,1195.15 1205.27,1195.32 1211.72,1195.48 1218.17,1195.64 1224.62,1195.79 1231.07,1195.94 1237.52,1196.08 1243.97,1196.22 1250.42,1196.35 1256.87,1196.48 1263.32,1196.61 1269.76,1196.73 1276.21,1196.85 1282.66,1196.96 1289.11,1197.07 1295.56,1197.18 1302.01,1197.28 1308.46,1197.38 1314.91,1197.48 1321.36,1197.57 1327.81,1197.65 1334.26,1197.74 1340.71,1197.82 1347.16,1197.9 1353.6,1197.97 1360.05,1198.04 1366.5,1198.11 1372.95,1198.17 1379.4,1198.23 1385.85,1198.29 1392.3,1198.34 1398.75,1198.4 1405.2,1198.45 1411.65,1198.49 1418.1,1198.53 1424.55,1198.57 1430.99,1198.6 1437.44,1198.64 1443.89,1198.67 1450.34,1198.7 1456.79,1198.72 1463.24,1198.74 1469.69,1198.75 1476.14,1198.77 1482.59,1198.78 1489.04,1198.79 1495.49,1198.8 1501.94,1198.8 1508.38,1198.8 1514.83,1198.8 1521.28,1198.8 1527.73,1198.8 1534.18,1198.79 1540.63,1198.77 1547.08,1198.76 1553.53,1198.74 1559.98,1198.73 1566.43,1198.71 1572.88,1198.68 1579.33,1198.65 1585.78,1198.62 1592.22,1198.59 1598.67,1198.56 1605.12,1198.52 1611.57,1198.48 1618.02,1198.43 1624.47,1198.39 1630.92,1198.34 1637.37,1198.29 1643.82,1198.24 1650.27,1198.18 1656.72,1198.11 1663.17,1198.05 1669.61,1197.98 1676.06,1197.92 1682.51,1197.85 1688.96,1197.77 1695.41,1197.69 1701.86,1197.6 1708.31,1197.52 1714.76,1197.44 1721.21,1197.35 1727.66,1197.26 1734.11,1197.15 1740.56,1197.04 1747,1196.94 1753.45,1196.83 1759.9,1196.73 1766.35,1196.61 1772.8,1196.49 1779.25,1196.36 1785.7,1196.23 1792.15,1196.1 1798.6,1195.97 1805.05,1195.84 1811.5,1195.69 1817.95,1195.53 1824.4,1195.38 1830.84,1195.23 1837.29,1195.07 1843.74,1194.91 1850.19,1194.73 1856.64,1194.55 1863.09,1194.37 1869.54,1194.19 1875.99,1194.01 1882.44,1193.82 1888.89,1193.61 1895.34,1193.4 1901.79,1193.19 1908.23,1192.98 1914.68,1192.77 1921.13,1192.55 1927.58,1192.31 1934.03,1192.06 1940.48,1191.82 1946.93,1191.58 1953.38,1191.36 1959.83,1191.13 1966.28,1190.9 1972.73,1190.66 1979.18,1190.42 1985.62,1190.2 1992.07,1190 1998.52,1189.79 2004.97,1189.56 2011.42,1189.33 2017.87,1189.11 2024.32,1188.9 2030.77,1188.7 2037.22,1188.5 2043.67,1188.29 2050.12,1188.08 2056.57,1187.88 2063.02,1187.68 2069.46,1187.5 2075.91,1187.31 2082.36,1187.12 2088.81,1186.93 2095.26,1186.75 2101.71,1186.58 2108.16,1186.42 2114.61,1186.26 2121.06,1186.09 2127.51,1185.92 2133.96,1185.76 2140.41,1185.62 2146.85,1185.5 2153.3,1185.37 2159.75,1185.23 2166.2,1185.09 2172.65,1184.96 2179.1,1184.85 2185.55,1184.76 2192,1184.67 2198.45,1184.58 2204.9,1184.47 2211.35,1184.36 2217.8,1184.28 2224.24,1184.22 2230.69,1184.18 2237.14,1184.14 2243.59,1184.07 2250.04,1184 2256.49,1183.94 2262.94,1183.92 2269.39,1183.92 2275.84,1183.93 2282.29,1183.9 2288.74,1183.87 2295.19,1183.85 2301.64,1183.86 2308.08,1183.9 2314.53,1183.95 2320.98,1183.97 2327.43,1183.97 2333.88,1183.99 2340.33,1184.04 2346.78,1184.11 2353.23,1184.2 2359.68,1184.28 2366.13,1184.32 2372.58,1184.37 2379.03,1184.44 2385.47,1184.55 2391.92,1184.68 2398.37,1184.81 2404.82,1184.89 2411.27,1184.97 2417.72,1185.06 2424.17,1185.19 2430.62,1185.36 2437.07,1185.53 2443.52,1185.68 2449.97,1185.78 2456.42,1185.89 2462.86,1186.03 2469.31,1186.22 2475.76,1186.43 2482.21,1186.63 2488.66,1186.77 2495.11,1186.9 2501.56,1187.06 2508.01,1187.26 2514.46,1187.48 2520.91,1187.71 2527.36,1187.88 2533.81,1188.04 2540.26,1188.22 2546.7,1188.44 2553.15,1188.67 2559.6,1188.91 2566.05,1189.11 2572.5,1189.3 2578.95,1189.5 2585.4,1189.72 2591.85,1189.97 2598.3,1190.21 2604.75,1190.44 2611.2,1190.64 2617.65,1190.85 2624.09,1191.08 2630.54,1191.33 2636.99,1191.59 2643.44,1191.83 2649.89,1192.05 2656.34,1192.27 2662.79,1192.5 2669.24,1192.75 2675.69,1193.01 2682.14,1193.25 "/>
<path clip-path="url(#clip350)" d="M2075.18 353.624 L2669.58 353.624 L2669.58 146.264 L2075.18 146.264  Z" fill="#ffffff" fill-rule="evenodd" fill-opacity="1"/>
<polyline clip-path="url(#clip350)" style="stroke:#000000; stroke-linecap:round; stroke-linejoin:round; stroke-width:4; stroke-opacity:1; fill:none" points="2075.18,353.624 2669.58,353.624 2669.58,146.264 2075.18,146.264 2075.18,353.624 "/>
<polyline clip-path="url(#clip350)" style="stroke:#4682b4; stroke-linecap:round; stroke-linejoin:round; stroke-width:8; stroke-opacity:1; fill:none" points="2102.91,198.104 2269.25,198.104 "/>
<path clip-path="url(#clip350)" d="M2296.98 180.824 L2301.68 180.824 L2301.68 201.819 Q2301.68 207.375 2303.69 209.828 Q2305.7 212.259 2310.22 212.259 Q2314.71 212.259 2316.72 209.828 Q2318.74 207.375 2318.74 201.819 L2318.74 180.824 L2323.43 180.824 L2323.43 202.398 Q2323.43 209.157 2320.08 212.606 Q2316.74 216.055 2310.22 216.055 Q2303.67 216.055 2300.31 212.606 Q2296.98 209.157 2296.98 202.398 L2296.98 180.824 Z" fill="#000000" fill-rule="nonzero" fill-opacity="1" /><path clip-path="url(#clip350)" d="M2347.05 193.439 Q2346.33 193.023 2345.47 192.838 Q2344.64 192.629 2343.62 192.629 Q2340.01 192.629 2338.06 194.99 Q2336.14 197.328 2336.14 201.726 L2336.14 215.384 L2331.86 215.384 L2331.86 189.458 L2336.14 189.458 L2336.14 193.486 Q2337.49 191.125 2339.64 189.99 Q2341.79 188.833 2344.87 188.833 Q2345.31 188.833 2345.84 188.902 Q2346.37 188.949 2347.02 189.064 L2347.05 193.439 Z" fill="#000000" fill-rule="nonzero" fill-opacity="1" /><path clip-path="url(#clip350)" d="M2370.12 202.444 Q2370.12 197.745 2368.18 195.083 Q2366.26 192.398 2362.88 192.398 Q2359.5 192.398 2357.55 195.083 Q2355.63 197.745 2355.63 202.444 Q2355.63 207.143 2357.55 209.828 Q2359.5 212.49 2362.88 212.49 Q2366.26 212.49 2368.18 209.828 Q2370.12 207.143 2370.12 202.444 M2355.63 193.393 Q2356.98 191.078 2359.01 189.967 Q2361.07 188.833 2363.92 188.833 Q2368.64 188.833 2371.58 192.583 Q2374.55 196.333 2374.55 202.444 Q2374.55 208.555 2371.58 212.305 Q2368.64 216.055 2363.92 216.055 Q2361.07 216.055 2359.01 214.944 Q2356.98 213.81 2355.63 211.495 L2355.63 215.384 L2351.35 215.384 L2351.35 179.365 L2355.63 179.365 L2355.63 193.393 Z" fill="#000000" fill-rule="nonzero" fill-opacity="1" /><path clip-path="url(#clip350)" d="M2393.39 202.351 Q2388.23 202.351 2386.23 203.532 Q2384.24 204.712 2384.24 207.56 Q2384.24 209.828 2385.73 211.171 Q2387.23 212.49 2389.8 212.49 Q2393.34 212.49 2395.47 209.99 Q2397.62 207.467 2397.62 203.3 L2397.62 202.351 L2393.39 202.351 M2401.88 200.592 L2401.88 215.384 L2397.62 215.384 L2397.62 211.449 Q2396.17 213.81 2393.99 214.944 Q2391.81 216.055 2388.67 216.055 Q2384.68 216.055 2382.32 213.833 Q2379.98 211.587 2379.98 207.837 Q2379.98 203.462 2382.9 201.24 Q2385.84 199.018 2391.65 199.018 L2397.62 199.018 L2397.62 198.601 Q2397.62 195.662 2395.68 194.064 Q2393.76 192.444 2390.26 192.444 Q2388.04 192.444 2385.93 192.976 Q2383.83 193.509 2381.88 194.574 L2381.88 190.638 Q2384.22 189.736 2386.42 189.296 Q2388.62 188.833 2390.7 188.833 Q2396.33 188.833 2399.11 191.75 Q2401.88 194.666 2401.88 200.592 Z" fill="#000000" fill-rule="nonzero" fill-opacity="1" /><path clip-path="url(#clip350)" d="M2432.21 199.736 L2432.21 215.384 L2427.95 215.384 L2427.95 199.875 Q2427.95 196.194 2426.51 194.365 Q2425.08 192.537 2422.21 192.537 Q2418.76 192.537 2416.77 194.736 Q2414.78 196.935 2414.78 200.731 L2414.78 215.384 L2410.49 215.384 L2410.49 189.458 L2414.78 189.458 L2414.78 193.486 Q2416.3 191.148 2418.36 189.99 Q2420.45 188.833 2423.16 188.833 Q2427.62 188.833 2429.92 191.611 Q2432.21 194.365 2432.21 199.736 Z" fill="#000000" fill-rule="nonzero" fill-opacity="1" /><path clip-path="url(#clip350)" d="M2466 179.412 Q2462.9 184.736 2461.4 189.944 Q2459.89 195.152 2459.89 200.5 Q2459.89 205.847 2461.4 211.101 Q2462.92 216.333 2466 221.634 L2462.3 221.634 Q2458.83 216.194 2457.09 210.939 Q2455.38 205.685 2455.38 200.5 Q2455.38 195.338 2457.09 190.106 Q2458.8 184.875 2462.3 179.412 L2466 179.412 Z" fill="#000000" fill-rule="nonzero" fill-opacity="1" /><path clip-path="url(#clip350)" d="M2474.91 180.824 L2493.27 180.824 L2493.27 184.759 L2479.2 184.759 L2479.2 193.231 Q2480.22 192.884 2481.23 192.722 Q2482.25 192.537 2483.27 192.537 Q2489.06 192.537 2492.44 195.708 Q2495.82 198.879 2495.82 204.296 Q2495.82 209.874 2492.35 212.976 Q2488.87 216.055 2482.55 216.055 Q2480.38 216.055 2478.11 215.685 Q2475.86 215.314 2473.46 214.574 L2473.46 209.874 Q2475.54 211.009 2477.76 211.564 Q2479.98 212.12 2482.46 212.12 Q2486.47 212.12 2488.8 210.013 Q2491.14 207.907 2491.14 204.296 Q2491.14 200.685 2488.8 198.578 Q2486.47 196.472 2482.46 196.472 Q2480.59 196.472 2478.71 196.888 Q2476.86 197.305 2474.91 198.185 L2474.91 180.824 Z" fill="#000000" fill-rule="nonzero" fill-opacity="1" /><path clip-path="url(#clip350)" d="M2504.61 180.824 L2511.58 180.824 L2520.4 204.342 L2529.27 180.824 L2536.23 180.824 L2536.23 215.384 L2531.67 215.384 L2531.67 185.037 L2522.76 208.74 L2518.06 208.74 L2509.15 185.037 L2509.15 215.384 L2504.61 215.384 L2504.61 180.824 Z" fill="#000000" fill-rule="nonzero" fill-opacity="1" /><path clip-path="url(#clip350)" d="M2544.66 179.412 L2548.36 179.412 Q2551.84 184.875 2553.55 190.106 Q2555.28 195.338 2555.28 200.5 Q2555.28 205.685 2553.55 210.939 Q2551.84 216.194 2548.36 221.634 L2544.66 221.634 Q2547.74 216.333 2549.24 211.101 Q2550.77 205.847 2550.77 200.5 Q2550.77 195.152 2549.24 189.944 Q2547.74 184.736 2544.66 179.412 Z" fill="#000000" fill-rule="nonzero" fill-opacity="1" /><polyline clip-path="url(#clip350)" style="stroke:#ffa500; stroke-linecap:round; stroke-linejoin:round; stroke-width:8; stroke-opacity:1; fill:none" points="2102.91,249.944 2269.25,249.944 "/>
<path clip-path="url(#clip350)" d="M2319.22 233.798 L2319.22 238.358 Q2316.56 237.085 2314.2 236.46 Q2311.84 235.835 2309.64 235.835 Q2305.82 235.835 2303.74 237.316 Q2301.68 238.798 2301.68 241.529 Q2301.68 243.821 2303.04 245.002 Q2304.43 246.159 2308.27 246.877 L2311.1 247.455 Q2316.33 248.451 2318.8 250.974 Q2321.3 253.474 2321.3 257.687 Q2321.3 262.71 2317.93 265.302 Q2314.57 267.895 2308.06 267.895 Q2305.61 267.895 2302.83 267.339 Q2300.08 266.784 2297.11 265.696 L2297.11 260.881 Q2299.96 262.478 2302.69 263.289 Q2305.43 264.099 2308.06 264.099 Q2312.07 264.099 2314.24 262.525 Q2316.42 260.951 2316.42 258.034 Q2316.42 255.488 2314.85 254.052 Q2313.3 252.617 2309.73 251.9 L2306.88 251.344 Q2301.65 250.303 2299.31 248.08 Q2296.98 245.858 2296.98 241.9 Q2296.98 237.316 2300.19 234.678 Q2303.43 232.039 2309.11 232.039 Q2311.54 232.039 2314.06 232.479 Q2316.58 232.918 2319.22 233.798 Z" fill="#000000" fill-rule="nonzero" fill-opacity="1" /><path clip-path="url(#clip350)" d="M2327.97 256.992 L2327.97 241.298 L2332.23 241.298 L2332.23 256.83 Q2332.23 260.511 2333.67 262.363 Q2335.1 264.191 2337.97 264.191 Q2341.42 264.191 2343.41 261.992 Q2345.42 259.793 2345.42 255.997 L2345.42 241.298 L2349.68 241.298 L2349.68 267.224 L2345.42 267.224 L2345.42 263.242 Q2343.87 265.603 2341.81 266.761 Q2339.78 267.895 2337.07 267.895 Q2332.6 267.895 2330.29 265.117 Q2327.97 262.339 2327.97 256.992 M2338.69 240.673 L2338.69 240.673 Z" fill="#000000" fill-rule="nonzero" fill-opacity="1" /><path clip-path="url(#clip350)" d="M2377.07 254.284 Q2377.07 249.585 2375.12 246.923 Q2373.2 244.238 2369.82 244.238 Q2366.44 244.238 2364.5 246.923 Q2362.58 249.585 2362.58 254.284 Q2362.58 258.983 2364.5 261.668 Q2366.44 264.33 2369.82 264.33 Q2373.2 264.33 2375.12 261.668 Q2377.07 258.983 2377.07 254.284 M2362.58 245.233 Q2363.92 242.918 2365.96 241.807 Q2368.02 240.673 2370.86 240.673 Q2375.59 240.673 2378.53 244.423 Q2381.49 248.173 2381.49 254.284 Q2381.49 260.395 2378.53 264.145 Q2375.59 267.895 2370.86 267.895 Q2368.02 267.895 2365.96 266.784 Q2363.92 265.65 2362.58 263.335 L2362.58 267.224 L2358.3 267.224 L2358.3 231.205 L2362.58 231.205 L2362.58 245.233 Z" fill="#000000" fill-rule="nonzero" fill-opacity="1" /><path clip-path="url(#clip350)" d="M2388.11 256.992 L2388.11 241.298 L2392.37 241.298 L2392.37 256.83 Q2392.37 260.511 2393.8 262.363 Q2395.24 264.191 2398.11 264.191 Q2401.56 264.191 2403.55 261.992 Q2405.56 259.793 2405.56 255.997 L2405.56 241.298 L2409.82 241.298 L2409.82 267.224 L2405.56 267.224 L2405.56 263.242 Q2404.01 265.603 2401.95 266.761 Q2399.92 267.895 2397.21 267.895 Q2392.74 267.895 2390.42 265.117 Q2388.11 262.339 2388.11 256.992 M2398.83 240.673 L2398.83 240.673 Z" fill="#000000" fill-rule="nonzero" fill-opacity="1" /><path clip-path="url(#clip350)" d="M2433.62 245.279 Q2432.9 244.863 2432.04 244.678 Q2431.21 244.469 2430.19 244.469 Q2426.58 244.469 2424.64 246.83 Q2422.72 249.168 2422.72 253.566 L2422.72 267.224 L2418.43 267.224 L2418.43 241.298 L2422.72 241.298 L2422.72 245.326 Q2424.06 242.965 2426.21 241.83 Q2428.36 240.673 2431.44 240.673 Q2431.88 240.673 2432.42 240.742 Q2432.95 240.789 2433.6 240.904 L2433.62 245.279 Z" fill="#000000" fill-rule="nonzero" fill-opacity="1" /><path clip-path="url(#clip350)" d="M2456.7 254.284 Q2456.7 249.585 2454.75 246.923 Q2452.83 244.238 2449.45 244.238 Q2446.07 244.238 2444.13 246.923 Q2442.21 249.585 2442.21 254.284 Q2442.21 258.983 2444.13 261.668 Q2446.07 264.33 2449.45 264.33 Q2452.83 264.33 2454.75 261.668 Q2456.7 258.983 2456.7 254.284 M2442.21 245.233 Q2443.55 242.918 2445.59 241.807 Q2447.65 240.673 2450.49 240.673 Q2455.22 240.673 2458.16 244.423 Q2461.12 248.173 2461.12 254.284 Q2461.12 260.395 2458.16 264.145 Q2455.22 267.895 2450.49 267.895 Q2447.65 267.895 2445.59 266.784 Q2443.55 265.65 2442.21 263.335 L2442.21 267.224 L2437.92 267.224 L2437.92 231.205 L2442.21 231.205 L2442.21 245.233 Z" fill="#000000" fill-rule="nonzero" fill-opacity="1" /><path clip-path="url(#clip350)" d="M2479.96 254.191 Q2474.8 254.191 2472.81 255.372 Q2470.82 256.552 2470.82 259.4 Q2470.82 261.668 2472.3 263.011 Q2473.8 264.33 2476.37 264.33 Q2479.91 264.33 2482.04 261.83 Q2484.2 259.307 2484.2 255.14 L2484.2 254.191 L2479.96 254.191 M2488.46 252.432 L2488.46 267.224 L2484.2 267.224 L2484.2 263.289 Q2482.74 265.65 2480.56 266.784 Q2478.39 267.895 2475.24 267.895 Q2471.26 267.895 2468.9 265.673 Q2466.56 263.427 2466.56 259.677 Q2466.56 255.302 2469.48 253.08 Q2472.41 250.858 2478.23 250.858 L2484.2 250.858 L2484.2 250.441 Q2484.2 247.502 2482.25 245.904 Q2480.33 244.284 2476.84 244.284 Q2474.61 244.284 2472.51 244.816 Q2470.4 245.349 2468.46 246.414 L2468.46 242.478 Q2470.79 241.576 2472.99 241.136 Q2475.19 240.673 2477.28 240.673 Q2482.9 240.673 2485.68 243.59 Q2488.46 246.506 2488.46 252.432 Z" fill="#000000" fill-rule="nonzero" fill-opacity="1" /><path clip-path="url(#clip350)" d="M2518.78 251.576 L2518.78 267.224 L2514.52 267.224 L2514.52 251.715 Q2514.52 248.034 2513.09 246.205 Q2511.65 244.377 2508.78 244.377 Q2505.33 244.377 2503.34 246.576 Q2501.35 248.775 2501.35 252.571 L2501.35 267.224 L2497.07 267.224 L2497.07 241.298 L2501.35 241.298 L2501.35 245.326 Q2502.88 242.988 2504.94 241.83 Q2507.02 240.673 2509.73 240.673 Q2514.2 240.673 2516.49 243.451 Q2518.78 246.205 2518.78 251.576 Z" fill="#000000" fill-rule="nonzero" fill-opacity="1" /><path clip-path="url(#clip350)" d="M2552.58 231.252 Q2549.47 236.576 2547.97 241.784 Q2546.47 246.992 2546.47 252.34 Q2546.47 257.687 2547.97 262.941 Q2549.5 268.173 2552.58 273.474 L2548.87 273.474 Q2545.4 268.034 2543.66 262.779 Q2541.95 257.525 2541.95 252.34 Q2541.95 247.178 2543.66 241.946 Q2545.38 236.715 2548.87 231.252 L2552.58 231.252 Z" fill="#000000" fill-rule="nonzero" fill-opacity="1" /><path clip-path="url(#clip350)" d="M2575.61 248.59 Q2578.97 249.307 2580.84 251.576 Q2582.74 253.844 2582.74 257.177 Q2582.74 262.293 2579.22 265.094 Q2575.7 267.895 2569.22 267.895 Q2567.04 267.895 2564.73 267.455 Q2562.44 267.039 2559.98 266.182 L2559.98 261.668 Q2561.93 262.802 2564.24 263.381 Q2566.56 263.96 2569.08 263.96 Q2573.48 263.96 2575.77 262.224 Q2578.09 260.488 2578.09 257.177 Q2578.09 254.122 2575.93 252.409 Q2573.8 250.673 2569.98 250.673 L2565.96 250.673 L2565.96 246.83 L2570.17 246.83 Q2573.62 246.83 2575.45 245.465 Q2577.28 244.076 2577.28 241.483 Q2577.28 238.821 2575.38 237.409 Q2573.5 235.974 2569.98 235.974 Q2568.06 235.974 2565.86 236.391 Q2563.66 236.807 2561.03 237.687 L2561.03 233.52 Q2563.69 232.779 2566 232.409 Q2568.34 232.039 2570.4 232.039 Q2575.72 232.039 2578.83 234.469 Q2581.93 236.877 2581.93 240.997 Q2581.93 243.867 2580.28 245.858 Q2578.64 247.826 2575.61 248.59 Z" fill="#000000" fill-rule="nonzero" fill-opacity="1" /><path clip-path="url(#clip350)" d="M2591.19 232.664 L2598.16 232.664 L2606.97 256.182 L2615.84 232.664 L2622.81 232.664 L2622.81 267.224 L2618.25 267.224 L2618.25 236.877 L2609.34 260.58 L2604.64 260.58 L2595.72 236.877 L2595.72 267.224 L2591.19 267.224 L2591.19 232.664 Z" fill="#000000" fill-rule="nonzero" fill-opacity="1" /><path clip-path="url(#clip350)" d="M2631.23 231.252 L2634.94 231.252 Q2638.41 236.715 2640.12 241.946 Q2641.86 247.178 2641.86 252.34 Q2641.86 257.525 2640.12 262.779 Q2638.41 268.034 2634.94 273.474 L2631.23 273.474 Q2634.31 268.173 2635.82 262.941 Q2637.34 257.687 2637.34 252.34 Q2637.34 246.992 2635.82 241.784 Q2634.31 236.576 2631.23 231.252 Z" fill="#000000" fill-rule="nonzero" fill-opacity="1" /><polyline clip-path="url(#clip350)" style="stroke:#008000; stroke-linecap:round; stroke-linejoin:round; stroke-width:8; stroke-opacity:1; fill:none" points="2102.91,301.784 2269.25,301.784 "/>
<path clip-path="url(#clip350)" d="M2313.36 302.86 Q2314.87 303.369 2316.28 305.036 Q2317.72 306.703 2319.15 309.619 L2323.9 319.064 L2318.87 319.064 L2314.45 310.198 Q2312.74 306.726 2311.12 305.592 Q2309.52 304.457 2306.74 304.457 L2301.65 304.457 L2301.65 319.064 L2296.98 319.064 L2296.98 284.504 L2307.53 284.504 Q2313.46 284.504 2316.37 286.981 Q2319.29 289.457 2319.29 294.457 Q2319.29 297.721 2317.76 299.874 Q2316.26 302.027 2313.36 302.86 M2301.65 288.346 L2301.65 300.615 L2307.53 300.615 Q2310.91 300.615 2312.62 299.064 Q2314.36 297.49 2314.36 294.457 Q2314.36 291.425 2312.62 289.897 Q2310.91 288.346 2307.53 288.346 L2301.65 288.346 Z" fill="#000000" fill-rule="nonzero" fill-opacity="1" /><path clip-path="url(#clip350)" d="M2327.16 308.832 L2327.16 293.138 L2331.42 293.138 L2331.42 308.67 Q2331.42 312.351 2332.86 314.203 Q2334.29 316.031 2337.16 316.031 Q2340.61 316.031 2342.6 313.832 Q2344.61 311.633 2344.61 307.837 L2344.61 293.138 L2348.87 293.138 L2348.87 319.064 L2344.61 319.064 L2344.61 315.082 Q2343.06 317.443 2341 318.601 Q2338.97 319.735 2336.26 319.735 Q2331.79 319.735 2329.48 316.957 Q2327.16 314.179 2327.16 308.832 M2337.88 292.513 L2337.88 292.513 Z" fill="#000000" fill-rule="nonzero" fill-opacity="1" /><path clip-path="url(#clip350)" d="M2372.67 297.119 Q2371.95 296.703 2371.1 296.518 Q2370.26 296.309 2369.24 296.309 Q2365.63 296.309 2363.69 298.67 Q2361.77 301.008 2361.77 305.406 L2361.77 319.064 L2357.49 319.064 L2357.49 293.138 L2361.77 293.138 L2361.77 297.166 Q2363.11 294.805 2365.26 293.67 Q2367.42 292.513 2370.49 292.513 Q2370.93 292.513 2371.47 292.582 Q2372 292.629 2372.65 292.744 L2372.67 297.119 Z" fill="#000000" fill-rule="nonzero" fill-opacity="1" /><path clip-path="url(#clip350)" d="M2388.92 306.031 Q2383.76 306.031 2381.77 307.212 Q2379.78 308.392 2379.78 311.24 Q2379.78 313.508 2381.26 314.851 Q2382.76 316.17 2385.33 316.17 Q2388.87 316.17 2391 313.67 Q2393.16 311.147 2393.16 306.98 L2393.16 306.031 L2388.92 306.031 M2397.42 304.272 L2397.42 319.064 L2393.16 319.064 L2393.16 315.129 Q2391.7 317.49 2389.52 318.624 Q2387.35 319.735 2384.2 319.735 Q2380.22 319.735 2377.86 317.513 Q2375.52 315.267 2375.52 311.517 Q2375.52 307.142 2378.43 304.92 Q2381.37 302.698 2387.18 302.698 L2393.16 302.698 L2393.16 302.281 Q2393.16 299.342 2391.21 297.744 Q2389.29 296.124 2385.8 296.124 Q2383.57 296.124 2381.47 296.656 Q2379.36 297.189 2377.42 298.254 L2377.42 294.318 Q2379.75 293.416 2381.95 292.976 Q2384.15 292.513 2386.23 292.513 Q2391.86 292.513 2394.64 295.43 Q2397.42 298.346 2397.42 304.272 Z" fill="#000000" fill-rule="nonzero" fill-opacity="1" /><path clip-path="url(#clip350)" d="M2406.19 283.045 L2410.45 283.045 L2410.45 319.064 L2406.19 319.064 L2406.19 283.045 Z" fill="#000000" fill-rule="nonzero" fill-opacity="1" /><path clip-path="url(#clip350)" d="M2444.66 283.092 Q2441.56 288.416 2440.05 293.624 Q2438.55 298.832 2438.55 304.18 Q2438.55 309.527 2440.05 314.781 Q2441.58 320.013 2444.66 325.314 L2440.96 325.314 Q2437.48 319.874 2435.75 314.619 Q2434.04 309.365 2434.04 304.18 Q2434.04 299.018 2435.75 293.786 Q2437.46 288.555 2440.96 283.092 L2444.66 283.092 Z" fill="#000000" fill-rule="nonzero" fill-opacity="1" /><path clip-path="url(#clip350)" d="M2454.34 315.129 L2461.98 315.129 L2461.98 288.763 L2453.67 290.43 L2453.67 286.17 L2461.93 284.504 L2466.6 284.504 L2466.6 315.129 L2474.24 315.129 L2474.24 319.064 L2454.34 319.064 L2454.34 315.129 Z" fill="#000000" fill-rule="nonzero" fill-opacity="1" /><path clip-path="url(#clip350)" d="M2483.27 284.504 L2490.24 284.504 L2499.06 308.022 L2507.92 284.504 L2514.89 284.504 L2514.89 319.064 L2510.33 319.064 L2510.33 288.717 L2501.42 312.42 L2496.72 312.42 L2487.81 288.717 L2487.81 319.064 L2483.27 319.064 L2483.27 284.504 Z" fill="#000000" fill-rule="nonzero" fill-opacity="1" /><path clip-path="url(#clip350)" d="M2523.32 283.092 L2527.02 283.092 Q2530.49 288.555 2532.21 293.786 Q2533.94 299.018 2533.94 304.18 Q2533.94 309.365 2532.21 314.619 Q2530.49 319.874 2527.02 325.314 L2523.32 325.314 Q2526.4 320.013 2527.9 314.781 Q2529.43 309.527 2529.43 304.18 Q2529.43 298.832 2527.9 293.624 Q2526.4 288.416 2523.32 283.092 Z" fill="#000000" fill-rule="nonzero" fill-opacity="1" /></svg>
