<?xml version="1.0" encoding="utf-8"?>
<svg xmlns="http://www.w3.org/2000/svg" xmlns:xlink="http://www.w3.org/1999/xlink" width="700" height="400" viewBox="0 0 2800 1600">
<defs>
  <clipPath id="clip410">
    <rect x="0" y="0" width="2800" height="1600"/>
  </clipPath>
</defs>
<path clip-path="url(#clip410)" d="M0 1600 L2800 1600 L2800 8.88178e-14 L0 8.88178e-14  Z" fill="#ffffff" fill-rule="evenodd" fill-opacity="1"/>
<defs>
  <clipPath id="clip411">
    <rect x="336" y="114" width="2417" height="1321"/>
  </clipPath>
</defs>
<path clip-path="url(#clip410)" d="M336.753 1434.91 L2752.76 1434.91 L2752.76 114.832 L336.753 114.832  Z" fill="#ffffff" fill-rule="evenodd" fill-opacity="1"/>
<polyline clip-path="url(#clip411)" style="stroke:#000000; stroke-linecap:round; stroke-linejoin:round; stroke-width:2; stroke-opacity:0.1; fill:none" points="360.439,1434.91 360.439,114.832 "/>
<polyline clip-path="url(#clip411)" style="stroke:#000000; stroke-linecap:round; stroke-linejoin:round; stroke-width:2; stroke-opacity:0.1; fill:none" points="998.884,1434.91 998.884,114.832 "/>
<polyline clip-path="url(#clip411)" style="stroke:#000000; stroke-linecap:round; stroke-linejoin:round; stroke-width:2; stroke-opacity:0.1; fill:none" points="1637.33,1434.91 1637.33,114.832 "/>
<polyline clip-path="url(#clip411)" style="stroke:#000000; stroke-linecap:round; stroke-linejoin:round; stroke-width:2; stroke-opacity:0.1; fill:none" points="2275.77,1434.91 2275.77,114.832 "/>
<polyline clip-path="url(#clip411)" style="stroke:#000000; stroke-linecap:round; stroke-linejoin:round; stroke-width:2; stroke-opacity:0.1; fill:none" points="336.753,1397.58 2752.76,1397.58 "/>
<polyline clip-path="url(#clip411)" style="stroke:#000000; stroke-linecap:round; stroke-linejoin:round; stroke-width:2; stroke-opacity:0.1; fill:none" points="336.753,1034.72 2752.76,1034.72 "/>
<polyline clip-path="url(#clip411)" style="stroke:#000000; stroke-linecap:round; stroke-linejoin:round; stroke-width:2; stroke-opacity:0.1; fill:none" points="336.753,671.851 2752.76,671.851 "/>
<polyline clip-path="url(#clip411)" style="stroke:#000000; stroke-linecap:round; stroke-linejoin:round; stroke-width:2; stroke-opacity:0.1; fill:none" points="336.753,308.987 2752.76,308.987 "/>
<polyline clip-path="url(#clip410)" style="stroke:#000000; stroke-linecap:round; stroke-linejoin:round; stroke-width:4; stroke-opacity:1; fill:none" points="336.753,1434.91 2752.76,1434.91 "/>
<polyline clip-path="url(#clip410)" style="stroke:#000000; stroke-linecap:round; stroke-linejoin:round; stroke-width:4; stroke-opacity:1; fill:none" points="360.439,1434.91 360.439,1416.01 "/>
<polyline clip-path="url(#clip410)" style="stroke:#000000; stroke-linecap:round; stroke-linejoin:round; stroke-width:4; stroke-opacity:1; fill:none" points="998.884,1434.91 998.884,1416.01 "/>
<polyline clip-path="url(#clip410)" style="stroke:#000000; stroke-linecap:round; stroke-linejoin:round; stroke-width:4; stroke-opacity:1; fill:none" points="1637.33,1434.91 1637.33,1416.01 "/>
<polyline clip-path="url(#clip410)" style="stroke:#000000; stroke-linecap:round; stroke-linejoin:round; stroke-width:4; stroke-opacity:1; fill:none" points="2275.77,1434.91 2275.77,1416.01 "/>
<path clip-path="url(#clip410)" d="M360.439 1469.02 Q356.828 1469.02 354.999 1472.59 Q353.194 1476.13 353.194 1483.26 Q353.194 1490.37 354.999 1493.93 Q356.828 1497.47 360.439 1497.47 Q364.074 1497.47 365.879 1493.93 Q367.708 1490.37 367.708 1483.26 Q367.708 1476.13 365.879 1472.59 Q364.074 1469.02 360.439 1469.02 M360.439 1465.32 Q366.249 1465.32 369.305 1469.93 Q372.384 1474.51 372.384 1483.26 Q372.384 1491.99 369.305 1496.59 Q366.249 1501.18 360.439 1501.18 Q354.629 1501.18 351.55 1496.59 Q348.495 1491.99 348.495 1483.26 Q348.495 1474.51 351.55 1469.93 Q354.629 1465.32 360.439 1465.32 Z" fill="#000000" fill-rule="nonzero" fill-opacity="1" /><path clip-path="url(#clip410)" d="M958.491 1496.57 L966.13 1496.57 L966.13 1470.2 L957.82 1471.87 L957.82 1467.61 L966.083 1465.95 L970.759 1465.95 L970.759 1496.57 L978.398 1496.57 L978.398 1500.51 L958.491 1500.51 L958.491 1496.57 Z" fill="#000000" fill-rule="nonzero" fill-opacity="1" /><path clip-path="url(#clip410)" d="M997.842 1469.02 Q994.231 1469.02 992.403 1472.59 Q990.597 1476.13 990.597 1483.26 Q990.597 1490.37 992.403 1493.93 Q994.231 1497.47 997.842 1497.47 Q1001.48 1497.47 1003.28 1493.93 Q1005.11 1490.37 1005.11 1483.26 Q1005.11 1476.13 1003.28 1472.59 Q1001.48 1469.02 997.842 1469.02 M997.842 1465.32 Q1003.65 1465.32 1006.71 1469.93 Q1009.79 1474.51 1009.79 1483.26 Q1009.79 1491.99 1006.71 1496.59 Q1003.65 1501.18 997.842 1501.18 Q992.032 1501.18 988.954 1496.59 Q985.898 1491.99 985.898 1483.26 Q985.898 1474.51 988.954 1469.93 Q992.032 1465.32 997.842 1465.32 Z" fill="#000000" fill-rule="nonzero" fill-opacity="1" /><path clip-path="url(#clip410)" d="M1028 1469.02 Q1024.39 1469.02 1022.56 1472.59 Q1020.76 1476.13 1020.76 1483.26 Q1020.76 1490.37 1022.56 1493.93 Q1024.39 1497.47 1028 1497.47 Q1031.64 1497.47 1033.44 1493.93 Q1035.27 1490.37 1035.27 1483.26 Q1035.27 1476.13 1033.44 1472.59 Q1031.64 1469.02 1028 1469.02 M1028 1465.32 Q1033.81 1465.32 1036.87 1469.93 Q1039.95 1474.51 1039.95 1483.26 Q1039.95 1491.99 1036.87 1496.59 Q1033.81 1501.18 1028 1501.18 Q1022.19 1501.18 1019.12 1496.59 Q1016.06 1491.99 1016.06 1483.26 Q1016.06 1474.51 1019.12 1469.93 Q1022.19 1465.32 1028 1465.32 Z" fill="#000000" fill-rule="nonzero" fill-opacity="1" /><path clip-path="url(#clip410)" d="M1601.02 1496.57 L1617.34 1496.57 L1617.34 1500.51 L1595.4 1500.51 L1595.4 1496.57 Q1598.06 1493.82 1602.64 1489.19 Q1607.25 1484.53 1608.43 1483.19 Q1610.67 1480.67 1611.55 1478.93 Q1612.46 1477.17 1612.46 1475.48 Q1612.46 1472.73 1610.51 1470.99 Q1608.59 1469.26 1605.49 1469.26 Q1603.29 1469.26 1600.84 1470.02 Q1598.41 1470.78 1595.63 1472.33 L1595.63 1467.61 Q1598.45 1466.48 1600.91 1465.9 Q1603.36 1465.32 1605.4 1465.32 Q1610.77 1465.32 1613.96 1468.01 Q1617.16 1470.69 1617.16 1475.18 Q1617.16 1477.31 1616.35 1479.23 Q1615.56 1481.13 1613.45 1483.72 Q1612.87 1484.39 1609.77 1487.61 Q1606.67 1490.81 1601.02 1496.57 Z" fill="#000000" fill-rule="nonzero" fill-opacity="1" /><path clip-path="url(#clip410)" d="M1637.16 1469.02 Q1633.54 1469.02 1631.72 1472.59 Q1629.91 1476.13 1629.91 1483.26 Q1629.91 1490.37 1631.72 1493.93 Q1633.54 1497.47 1637.16 1497.47 Q1640.79 1497.47 1642.6 1493.93 Q1644.42 1490.37 1644.42 1483.26 Q1644.42 1476.13 1642.6 1472.59 Q1640.79 1469.02 1637.16 1469.02 M1637.16 1465.32 Q1642.97 1465.32 1646.02 1469.93 Q1649.1 1474.51 1649.1 1483.26 Q1649.1 1491.99 1646.02 1496.59 Q1642.97 1501.18 1637.16 1501.18 Q1631.35 1501.18 1628.27 1496.59 Q1625.21 1491.99 1625.21 1483.26 Q1625.21 1474.51 1628.27 1469.93 Q1631.35 1465.32 1637.16 1465.32 Z" fill="#000000" fill-rule="nonzero" fill-opacity="1" /><path clip-path="url(#clip410)" d="M1667.32 1469.02 Q1663.71 1469.02 1661.88 1472.59 Q1660.07 1476.13 1660.07 1483.26 Q1660.07 1490.37 1661.88 1493.93 Q1663.71 1497.47 1667.32 1497.47 Q1670.95 1497.47 1672.76 1493.93 Q1674.59 1490.37 1674.59 1483.26 Q1674.59 1476.13 1672.76 1472.59 Q1670.95 1469.02 1667.32 1469.02 M1667.32 1465.32 Q1673.13 1465.32 1676.18 1469.93 Q1679.26 1474.51 1679.26 1483.26 Q1679.26 1491.99 1676.18 1496.59 Q1673.13 1501.18 1667.32 1501.18 Q1661.51 1501.18 1658.43 1496.59 Q1655.37 1491.99 1655.37 1483.26 Q1655.37 1474.51 1658.43 1469.93 Q1661.51 1465.32 1667.32 1465.32 Z" fill="#000000" fill-rule="nonzero" fill-opacity="1" /><path clip-path="url(#clip410)" d="M2249.54 1481.87 Q2252.89 1482.59 2254.77 1484.86 Q2256.67 1487.13 2256.67 1490.46 Q2256.67 1495.58 2253.15 1498.38 Q2249.63 1501.18 2243.15 1501.18 Q2240.97 1501.18 2238.66 1500.74 Q2236.36 1500.32 2233.91 1499.46 L2233.91 1494.95 Q2235.86 1496.08 2238.17 1496.66 Q2240.48 1497.24 2243.01 1497.24 Q2247.41 1497.24 2249.7 1495.51 Q2252.01 1493.77 2252.01 1490.46 Q2252.01 1487.4 2249.86 1485.69 Q2247.73 1483.95 2243.91 1483.95 L2239.88 1483.95 L2239.88 1480.11 L2244.1 1480.11 Q2247.54 1480.11 2249.37 1478.75 Q2251.2 1477.36 2251.2 1474.76 Q2251.2 1472.1 2249.3 1470.69 Q2247.43 1469.26 2243.91 1469.26 Q2241.99 1469.26 2239.79 1469.67 Q2237.59 1470.09 2234.95 1470.97 L2234.95 1466.8 Q2237.61 1466.06 2239.93 1465.69 Q2242.27 1465.32 2244.33 1465.32 Q2249.65 1465.32 2252.75 1467.75 Q2255.85 1470.16 2255.85 1474.28 Q2255.85 1477.15 2254.21 1479.14 Q2252.57 1481.11 2249.54 1481.87 Z" fill="#000000" fill-rule="nonzero" fill-opacity="1" /><path clip-path="url(#clip410)" d="M2275.53 1469.02 Q2271.92 1469.02 2270.09 1472.59 Q2268.29 1476.13 2268.29 1483.26 Q2268.29 1490.37 2270.09 1493.93 Q2271.92 1497.47 2275.53 1497.47 Q2279.16 1497.47 2280.97 1493.93 Q2282.8 1490.37 2282.8 1483.26 Q2282.8 1476.13 2280.97 1472.59 Q2279.16 1469.02 2275.53 1469.02 M2275.53 1465.32 Q2281.34 1465.32 2284.4 1469.93 Q2287.48 1474.51 2287.48 1483.26 Q2287.48 1491.99 2284.4 1496.59 Q2281.34 1501.18 2275.53 1501.18 Q2269.72 1501.18 2266.64 1496.59 Q2263.59 1491.99 2263.59 1483.26 Q2263.59 1474.51 2266.64 1469.93 Q2269.72 1465.32 2275.53 1465.32 Z" fill="#000000" fill-rule="nonzero" fill-opacity="1" /><path clip-path="url(#clip410)" d="M2305.69 1469.02 Q2302.08 1469.02 2300.25 1472.59 Q2298.45 1476.13 2298.45 1483.26 Q2298.45 1490.37 2300.25 1493.93 Q2302.08 1497.47 2305.69 1497.47 Q2309.33 1497.47 2311.13 1493.93 Q2312.96 1490.37 2312.96 1483.26 Q2312.96 1476.13 2311.13 1472.59 Q2309.33 1469.02 2305.69 1469.02 M2305.69 1465.32 Q2311.5 1465.32 2314.56 1469.93 Q2317.64 1474.51 2317.64 1483.26 Q2317.64 1491.99 2314.56 1496.59 Q2311.5 1501.18 2305.69 1501.18 Q2299.88 1501.18 2296.8 1496.59 Q2293.75 1491.99 2293.75 1483.26 Q2293.75 1474.51 2296.8 1469.93 Q2299.88 1465.32 2305.69 1465.32 Z" fill="#000000" fill-rule="nonzero" fill-opacity="1" /><path clip-path="url(#clip410)" d="M1491 1543.53 L1491 1580.49 L1498.76 1580.49 Q1508.6 1580.49 1513.15 1576.03 Q1517.73 1571.57 1517.73 1561.96 Q1517.73 1552.41 1513.15 1547.99 Q1508.6 1543.53 1498.76 1543.53 L1491 1543.53 M1484.57 1538.25 L1497.78 1538.25 Q1511.59 1538.25 1518.05 1544.01 Q1524.51 1549.74 1524.51 1561.96 Q1524.51 1574.25 1518.02 1580.01 Q1511.53 1585.77 1497.78 1585.77 L1484.57 1585.77 L1484.57 1538.25 Z" fill="#000000" fill-rule="nonzero" fill-opacity="1" /><path clip-path="url(#clip410)" d="M1550.71 1567.85 Q1543.61 1567.85 1540.87 1569.47 Q1538.13 1571.1 1538.13 1575.01 Q1538.13 1578.13 1540.17 1579.98 Q1542.24 1581.79 1545.77 1581.79 Q1550.64 1581.79 1553.57 1578.35 Q1556.53 1574.88 1556.53 1569.16 L1556.53 1567.85 L1550.71 1567.85 M1562.39 1565.43 L1562.39 1585.77 L1556.53 1585.77 L1556.53 1580.36 Q1554.53 1583.61 1551.53 1585.16 Q1548.54 1586.69 1544.21 1586.69 Q1538.74 1586.69 1535.49 1583.64 Q1532.28 1580.55 1532.28 1575.39 Q1532.28 1569.38 1536.29 1566.32 Q1540.33 1563.27 1548.32 1563.27 L1556.53 1563.27 L1556.53 1562.69 Q1556.53 1558.65 1553.86 1556.46 Q1551.22 1554.23 1546.41 1554.23 Q1543.35 1554.23 1540.46 1554.96 Q1537.56 1555.69 1534.89 1557.16 L1534.89 1551.74 Q1538.1 1550.5 1541.13 1549.9 Q1544.15 1549.26 1547.01 1549.26 Q1554.75 1549.26 1558.57 1553.27 Q1562.39 1557.28 1562.39 1565.43 Z" fill="#000000" fill-rule="nonzero" fill-opacity="1" /><path clip-path="url(#clip410)" d="M1589.28 1589.08 Q1586.8 1595.45 1584.44 1597.39 Q1582.09 1599.33 1578.14 1599.33 L1573.46 1599.33 L1573.46 1594.43 L1576.9 1594.43 Q1579.32 1594.43 1580.66 1593.28 Q1581.99 1592.14 1583.62 1587.87 L1584.67 1585.2 L1570.25 1550.12 L1576.46 1550.12 L1587.6 1578 L1598.74 1550.12 L1604.94 1550.12 L1589.28 1589.08 Z" fill="#000000" fill-rule="nonzero" fill-opacity="1" /><polyline clip-path="url(#clip410)" style="stroke:#000000; stroke-linecap:round; stroke-linejoin:round; stroke-width:4; stroke-opacity:1; fill:none" points="336.753,1434.91 336.753,114.832 "/>
<polyline clip-path="url(#clip410)" style="stroke:#000000; stroke-linecap:round; stroke-linejoin:round; stroke-width:4; stroke-opacity:1; fill:none" points="336.753,1397.58 355.651,1397.58 "/>
<polyline clip-path="url(#clip410)" style="stroke:#000000; stroke-linecap:round; stroke-linejoin:round; stroke-width:4; stroke-opacity:1; fill:none" points="336.753,1034.72 355.651,1034.72 "/>
<polyline clip-path="url(#clip410)" style="stroke:#000000; stroke-linecap:round; stroke-linejoin:round; stroke-width:4; stroke-opacity:1; fill:none" points="336.753,671.851 355.651,671.851 "/>
<polyline clip-path="url(#clip410)" style="stroke:#000000; stroke-linecap:round; stroke-linejoin:round; stroke-width:4; stroke-opacity:1; fill:none" points="336.753,308.987 355.651,308.987 "/>
<path clip-path="url(#clip410)" d="M282.809 1383.38 Q279.198 1383.38 277.369 1386.94 Q275.563 1390.49 275.563 1397.62 Q275.563 1404.72 277.369 1408.29 Q279.198 1411.83 282.809 1411.83 Q286.443 1411.83 288.248 1408.29 Q290.077 1404.72 290.077 1397.62 Q290.077 1390.49 288.248 1386.94 Q286.443 1383.38 282.809 1383.38 M282.809 1379.68 Q288.619 1379.68 291.674 1384.28 Q294.753 1388.87 294.753 1397.62 Q294.753 1406.34 291.674 1410.95 Q288.619 1415.53 282.809 1415.53 Q276.998 1415.53 273.92 1410.95 Q270.864 1406.34 270.864 1397.62 Q270.864 1388.87 273.92 1384.28 Q276.998 1379.68 282.809 1379.68 Z" fill="#000000" fill-rule="nonzero" fill-opacity="1" /><path clip-path="url(#clip410)" d="M107.879 1054.51 L115.518 1054.51 L115.518 1028.14 L107.208 1029.81 L107.208 1025.55 L115.472 1023.88 L120.147 1023.88 L120.147 1054.51 L127.786 1054.51 L127.786 1058.44 L107.879 1058.44 L107.879 1054.51 Z" fill="#000000" fill-rule="nonzero" fill-opacity="1" /><path clip-path="url(#clip410)" d="M137.231 1052.56 L142.115 1052.56 L142.115 1058.44 L137.231 1058.44 L137.231 1052.56 Z" fill="#000000" fill-rule="nonzero" fill-opacity="1" /><path clip-path="url(#clip410)" d="M162.3 1026.96 Q158.689 1026.96 156.86 1030.53 Q155.055 1034.07 155.055 1041.2 Q155.055 1048.31 156.86 1051.87 Q158.689 1055.41 162.3 1055.41 Q165.934 1055.41 167.74 1051.87 Q169.568 1048.31 169.568 1041.2 Q169.568 1034.07 167.74 1030.53 Q165.934 1026.96 162.3 1026.96 M162.3 1023.26 Q168.11 1023.26 171.166 1027.87 Q174.244 1032.45 174.244 1041.2 Q174.244 1049.93 171.166 1054.53 Q168.11 1059.12 162.3 1059.12 Q156.49 1059.12 153.411 1054.53 Q150.356 1049.93 150.356 1041.2 Q150.356 1032.45 153.411 1027.87 Q156.49 1023.26 162.3 1023.26 Z" fill="#000000" fill-rule="nonzero" fill-opacity="1" /><path clip-path="url(#clip410)" d="M210.633 1032.98 L200.054 1043.61 L210.633 1054.18 L207.878 1056.99 L197.254 1046.36 L186.629 1056.99 L183.897 1054.18 L194.453 1043.61 L183.897 1032.98 L186.629 1030.18 L197.254 1040.81 L207.878 1030.18 L210.633 1032.98 Z" fill="#000000" fill-rule="nonzero" fill-opacity="1" /><path clip-path="url(#clip410)" d="M222.994 1054.51 L230.633 1054.51 L230.633 1028.14 L222.323 1029.81 L222.323 1025.55 L230.587 1023.88 L235.263 1023.88 L235.263 1054.51 L242.901 1054.51 L242.901 1058.44 L222.994 1058.44 L222.994 1054.51 Z" fill="#000000" fill-rule="nonzero" fill-opacity="1" /><path clip-path="url(#clip410)" d="M262.346 1026.96 Q258.735 1026.96 256.906 1030.53 Q255.1 1034.07 255.1 1041.2 Q255.1 1048.31 256.906 1051.87 Q258.735 1055.41 262.346 1055.41 Q265.98 1055.41 267.786 1051.87 Q269.614 1048.31 269.614 1041.2 Q269.614 1034.07 267.786 1030.53 Q265.98 1026.96 262.346 1026.96 M262.346 1023.26 Q268.156 1023.26 271.211 1027.87 Q274.29 1032.45 274.29 1041.2 Q274.29 1049.93 271.211 1054.53 Q268.156 1059.12 262.346 1059.12 Q256.536 1059.12 253.457 1054.53 Q250.401 1049.93 250.401 1041.2 Q250.401 1032.45 253.457 1027.87 Q256.536 1023.26 262.346 1023.26 Z" fill="#000000" fill-rule="nonzero" fill-opacity="1" /><path clip-path="url(#clip410)" d="M286.967 1006.26 L277.375 1021.25 L286.967 1021.25 L286.967 1006.26 M285.97 1002.95 L290.747 1002.95 L290.747 1021.25 L294.753 1021.25 L294.753 1024.41 L290.747 1024.41 L290.747 1031.03 L286.967 1031.03 L286.967 1024.41 L274.29 1024.41 L274.29 1020.75 L285.97 1002.95 Z" fill="#000000" fill-rule="nonzero" fill-opacity="1" /><path clip-path="url(#clip410)" d="M111.097 691.644 L127.416 691.644 L127.416 695.579 L105.472 695.579 L105.472 691.644 Q108.134 688.889 112.717 684.26 Q117.323 679.607 118.504 678.264 Q120.749 675.741 121.629 674.005 Q122.532 672.246 122.532 670.556 Q122.532 667.801 120.587 666.065 Q118.666 664.329 115.564 664.329 Q113.365 664.329 110.911 665.093 Q108.481 665.857 105.703 667.408 L105.703 662.686 Q108.527 661.552 110.981 660.973 Q113.435 660.394 115.472 660.394 Q120.842 660.394 124.036 663.079 Q127.231 665.764 127.231 670.255 Q127.231 672.385 126.421 674.306 Q125.634 676.204 123.527 678.797 Q122.948 679.468 119.847 682.686 Q116.745 685.88 111.097 691.644 Z" fill="#000000" fill-rule="nonzero" fill-opacity="1" /><path clip-path="url(#clip410)" d="M137.231 689.7 L142.115 689.7 L142.115 695.579 L137.231 695.579 L137.231 689.7 Z" fill="#000000" fill-rule="nonzero" fill-opacity="1" /><path clip-path="url(#clip410)" d="M162.3 664.098 Q158.689 664.098 156.86 667.663 Q155.055 671.204 155.055 678.334 Q155.055 685.44 156.86 689.005 Q158.689 692.547 162.3 692.547 Q165.934 692.547 167.74 689.005 Q169.568 685.44 169.568 678.334 Q169.568 671.204 167.74 667.663 Q165.934 664.098 162.3 664.098 M162.3 660.394 Q168.11 660.394 171.166 665.001 Q174.244 669.584 174.244 678.334 Q174.244 687.061 171.166 691.667 Q168.11 696.25 162.3 696.25 Q156.49 696.25 153.411 691.667 Q150.356 687.061 150.356 678.334 Q150.356 669.584 153.411 665.001 Q156.49 660.394 162.3 660.394 Z" fill="#000000" fill-rule="nonzero" fill-opacity="1" /><path clip-path="url(#clip410)" d="M210.633 670.116 L200.054 680.741 L210.633 691.32 L207.878 694.121 L197.254 683.496 L186.629 694.121 L183.897 691.32 L194.453 680.741 L183.897 670.116 L186.629 667.315 L197.254 677.94 L207.878 667.315 L210.633 670.116 Z" fill="#000000" fill-rule="nonzero" fill-opacity="1" /><path clip-path="url(#clip410)" d="M222.994 691.644 L230.633 691.644 L230.633 665.278 L222.323 666.945 L222.323 662.686 L230.587 661.019 L235.263 661.019 L235.263 691.644 L242.901 691.644 L242.901 695.579 L222.994 695.579 L222.994 691.644 Z" fill="#000000" fill-rule="nonzero" fill-opacity="1" /><path clip-path="url(#clip410)" d="M262.346 664.098 Q258.735 664.098 256.906 667.663 Q255.1 671.204 255.1 678.334 Q255.1 685.44 256.906 689.005 Q258.735 692.547 262.346 692.547 Q265.98 692.547 267.786 689.005 Q269.614 685.44 269.614 678.334 Q269.614 671.204 267.786 667.663 Q265.98 664.098 262.346 664.098 M262.346 660.394 Q268.156 660.394 271.211 665.001 Q274.29 669.584 274.29 678.334 Q274.29 687.061 271.211 691.667 Q268.156 696.25 262.346 696.25 Q256.536 696.25 253.457 691.667 Q250.401 687.061 250.401 678.334 Q250.401 669.584 253.457 665.001 Q256.536 660.394 262.346 660.394 Z" fill="#000000" fill-rule="nonzero" fill-opacity="1" /><path clip-path="url(#clip410)" d="M286.967 643.399 L277.375 658.389 L286.967 658.389 L286.967 643.399 M285.97 640.089 L290.747 640.089 L290.747 658.389 L294.753 658.389 L294.753 661.548 L290.747 661.548 L290.747 668.169 L286.967 668.169 L286.967 661.548 L274.29 661.548 L274.29 657.881 L285.97 640.089 Z" fill="#000000" fill-rule="nonzero" fill-opacity="1" /><path clip-path="url(#clip410)" d="M121.235 314.08 Q124.592 314.798 126.467 317.066 Q128.365 319.335 128.365 322.668 Q128.365 327.784 124.846 330.585 Q121.328 333.386 114.847 333.386 Q112.671 333.386 110.356 332.946 Q108.064 332.529 105.61 331.673 L105.61 327.159 Q107.555 328.293 109.87 328.872 Q112.185 329.45 114.708 329.45 Q119.106 329.45 121.397 327.714 Q123.712 325.978 123.712 322.668 Q123.712 319.612 121.559 317.899 Q119.43 316.163 115.61 316.163 L111.583 316.163 L111.583 312.321 L115.796 312.321 Q119.245 312.321 121.073 310.955 Q122.902 309.566 122.902 306.974 Q122.902 304.312 121.004 302.9 Q119.129 301.464 115.61 301.464 Q113.689 301.464 111.49 301.881 Q109.291 302.298 106.652 303.177 L106.652 299.011 Q109.314 298.27 111.629 297.9 Q113.967 297.529 116.027 297.529 Q121.351 297.529 124.453 299.96 Q127.555 302.367 127.555 306.488 Q127.555 309.358 125.911 311.349 Q124.268 313.316 121.235 314.08 Z" fill="#000000" fill-rule="nonzero" fill-opacity="1" /><path clip-path="url(#clip410)" d="M137.231 326.835 L142.115 326.835 L142.115 332.714 L137.231 332.714 L137.231 326.835 Z" fill="#000000" fill-rule="nonzero" fill-opacity="1" /><path clip-path="url(#clip410)" d="M162.3 301.233 Q158.689 301.233 156.86 304.798 Q155.055 308.339 155.055 315.469 Q155.055 322.575 156.86 326.14 Q158.689 329.682 162.3 329.682 Q165.934 329.682 167.74 326.14 Q169.568 322.575 169.568 315.469 Q169.568 308.339 167.74 304.798 Q165.934 301.233 162.3 301.233 M162.3 297.529 Q168.11 297.529 171.166 302.136 Q174.244 306.719 174.244 315.469 Q174.244 324.196 171.166 328.802 Q168.11 333.386 162.3 333.386 Q156.49 333.386 153.411 328.802 Q150.356 324.196 150.356 315.469 Q150.356 306.719 153.411 302.136 Q156.49 297.529 162.3 297.529 Z" fill="#000000" fill-rule="nonzero" fill-opacity="1" /><path clip-path="url(#clip410)" d="M210.633 307.251 L200.054 317.876 L210.633 328.455 L207.878 331.256 L197.254 320.631 L186.629 331.256 L183.897 328.455 L194.453 317.876 L183.897 307.251 L186.629 304.45 L197.254 315.075 L207.878 304.45 L210.633 307.251 Z" fill="#000000" fill-rule="nonzero" fill-opacity="1" /><path clip-path="url(#clip410)" d="M222.994 328.779 L230.633 328.779 L230.633 302.413 L222.323 304.08 L222.323 299.821 L230.587 298.154 L235.263 298.154 L235.263 328.779 L242.901 328.779 L242.901 332.714 L222.994 332.714 L222.994 328.779 Z" fill="#000000" fill-rule="nonzero" fill-opacity="1" /><path clip-path="url(#clip410)" d="M262.346 301.233 Q258.735 301.233 256.906 304.798 Q255.1 308.339 255.1 315.469 Q255.1 322.575 256.906 326.14 Q258.735 329.682 262.346 329.682 Q265.98 329.682 267.786 326.14 Q269.614 322.575 269.614 315.469 Q269.614 308.339 267.786 304.798 Q265.98 301.233 262.346 301.233 M262.346 297.529 Q268.156 297.529 271.211 302.136 Q274.29 306.719 274.29 315.469 Q274.29 324.196 271.211 328.802 Q268.156 333.386 262.346 333.386 Q256.536 333.386 253.457 328.802 Q250.401 324.196 250.401 315.469 Q250.401 306.719 253.457 302.136 Q256.536 297.529 262.346 297.529 Z" fill="#000000" fill-rule="nonzero" fill-opacity="1" /><path clip-path="url(#clip410)" d="M286.967 280.534 L277.375 295.524 L286.967 295.524 L286.967 280.534 M285.97 277.224 L290.747 277.224 L290.747 295.524 L294.753 295.524 L294.753 298.683 L290.747 298.683 L290.747 305.304 L286.967 305.304 L286.967 298.683 L274.29 298.683 L274.29 295.016 L285.97 277.224 Z" fill="#000000" fill-rule="nonzero" fill-opacity="1" /><path clip-path="url(#clip410)" d="M1.69559 1156.08 L1.69559 1149.59 L41.8632 1139.59 L1.69559 1129.63 L1.69559 1122.4 L41.8632 1112.41 L1.69559 1102.45 L1.69559 1095.92 L49.2156 1107.86 L49.2156 1115.94 L7.96581 1125.97 L49.2156 1136.09 L49.2156 1144.18 L1.69559 1156.08 Z" fill="#000000" fill-rule="nonzero" fill-opacity="1" /><path clip-path="url(#clip410)" d="M29.9275 1060.98 L32.7921 1060.98 L32.7921 1087.9 Q38.8395 1087.52 42.0223 1084.27 Q45.1734 1081 45.1734 1075.17 Q45.1734 1071.8 44.3458 1068.65 Q43.5183 1065.46 41.8632 1062.34 L47.4014 1062.34 Q48.7382 1065.5 49.4384 1068.81 Q50.1386 1072.12 50.1386 1075.52 Q50.1386 1084.05 45.1734 1089.05 Q40.2081 1094.01 31.7417 1094.01 Q22.9889 1094.01 17.8645 1089.3 Q12.7083 1084.56 12.7083 1076.54 Q12.7083 1069.35 17.3552 1065.18 Q21.9704 1060.98 29.9275 1060.98 M28.2088 1066.83 Q23.4026 1066.9 20.5381 1069.54 Q17.6735 1072.15 17.6735 1076.48 Q17.6735 1081.38 20.4426 1084.34 Q23.2117 1087.27 28.2406 1087.71 L28.2088 1066.83 Z" fill="#000000" fill-rule="nonzero" fill-opacity="1" /><path clip-path="url(#clip410)" d="M29.9275 1020.87 L32.7921 1020.87 L32.7921 1047.8 Q38.8395 1047.42 42.0223 1044.17 Q45.1734 1040.89 45.1734 1035.07 Q45.1734 1031.69 44.3458 1028.54 Q43.5183 1025.36 41.8632 1022.24 L47.4014 1022.24 Q48.7382 1025.39 49.4384 1028.7 Q50.1386 1032.01 50.1386 1035.42 Q50.1386 1043.95 45.1734 1048.94 Q40.2081 1053.91 31.7417 1053.91 Q22.9889 1053.91 17.8645 1049.2 Q12.7083 1044.46 12.7083 1036.44 Q12.7083 1029.24 17.3552 1025.07 Q21.9704 1020.87 29.9275 1020.87 M28.2088 1026.73 Q23.4026 1026.79 20.5381 1029.43 Q17.6735 1032.04 17.6735 1036.37 Q17.6735 1041.27 20.4426 1044.23 Q23.2117 1047.16 28.2406 1047.61 L28.2088 1026.73 Z" fill="#000000" fill-rule="nonzero" fill-opacity="1" /><path clip-path="url(#clip410)" d="M-0.309612 1011.48 L-0.309612 1005.59 L28.9408 1005.59 L13.5676 988.12 L13.5676 980.64 L30.2458 999.546 L49.2156 979.845 L49.2156 987.483 L31.8054 1005.59 L49.2156 1005.59 L49.2156 1011.48 L-0.309612 1011.48 Z" fill="#000000" fill-rule="nonzero" fill-opacity="1" /><path clip-path="url(#clip410)" d="M-0.309612 973.511 L-0.309612 967.654 L49.2156 967.654 L49.2156 973.511 L-0.309612 973.511 Z" fill="#000000" fill-rule="nonzero" fill-opacity="1" /><path clip-path="url(#clip410)" d="M52.5258 940.568 Q58.8915 943.051 60.833 945.406 Q62.7745 947.761 62.7745 951.708 L62.7745 956.387 L57.8729 956.387 L57.8729 952.949 Q57.8729 950.531 56.7271 949.194 Q55.5813 947.857 51.3163 946.234 L48.6427 945.183 L13.5676 959.602 L13.5676 953.395 L41.4494 942.255 L13.5676 931.115 L13.5676 924.909 L52.5258 940.568 Z" fill="#000000" fill-rule="nonzero" fill-opacity="1" /><path clip-path="url(#clip410)" d="M26.9356 873.314 Q27.6358 871.246 29.9275 869.304 Q32.2191 867.331 36.2295 865.357 L49.2156 858.833 L49.2156 865.739 L37.0253 871.819 Q32.251 874.174 30.6914 876.402 Q29.1318 878.598 29.1318 882.417 L29.1318 889.42 L49.2156 889.42 L49.2156 895.849 L1.69559 895.849 L1.69559 881.335 Q1.69559 873.187 5.10124 869.177 Q8.50689 865.166 15.3819 865.166 Q19.8697 865.166 22.8297 867.267 Q25.7898 869.336 26.9356 873.314 M6.97912 889.42 L23.8482 889.42 L23.8482 881.335 Q23.8482 876.688 21.7157 874.333 Q19.5514 871.946 15.3819 871.946 Q11.2123 871.946 9.11163 874.333 Q6.97912 876.688 6.97912 881.335 L6.97912 889.42 Z" fill="#000000" fill-rule="nonzero" fill-opacity="1" /><path clip-path="url(#clip410)" d="M29.9275 823.248 L32.7921 823.248 L32.7921 850.175 Q38.8395 849.793 42.0223 846.547 Q45.1734 843.268 45.1734 837.444 Q45.1734 834.07 44.3458 830.919 Q43.5183 827.736 41.8632 824.617 L47.4014 824.617 Q48.7382 827.768 49.4384 831.078 Q50.1386 834.388 50.1386 837.794 Q50.1386 846.324 45.1734 851.321 Q40.2081 856.286 31.7417 856.286 Q22.9889 856.286 17.8645 851.576 Q12.7083 846.833 12.7083 838.812 Q12.7083 831.619 17.3552 827.45 Q21.9704 823.248 29.9275 823.248 M28.2088 829.105 Q23.4026 829.168 20.5381 831.81 Q17.6735 834.42 17.6735 838.749 Q17.6735 843.65 20.4426 846.61 Q23.2117 849.539 28.2406 849.984 L28.2088 829.105 Z" fill="#000000" fill-rule="nonzero" fill-opacity="1" /><path clip-path="url(#clip410)" d="M43.8684 807.971 L62.7745 807.971 L62.7745 813.859 L13.5676 813.859 L13.5676 807.971 L18.9785 807.971 Q15.7956 806.124 14.2679 803.324 Q12.7083 800.491 12.7083 796.576 Q12.7083 790.083 17.8645 786.041 Q23.0207 781.967 31.4234 781.967 Q39.8262 781.967 44.9824 786.041 Q50.1386 790.083 50.1386 796.576 Q50.1386 800.491 48.6108 803.324 Q47.0512 806.124 43.8684 807.971 M31.4234 788.046 Q24.9622 788.046 21.302 790.719 Q17.6099 793.361 17.6099 798.008 Q17.6099 802.655 21.302 805.329 Q24.9622 807.971 31.4234 807.971 Q37.8846 807.971 41.5767 805.329 Q45.237 802.655 45.237 798.008 Q45.237 793.361 41.5767 790.719 Q37.8846 788.046 31.4234 788.046 Z" fill="#000000" fill-rule="nonzero" fill-opacity="1" /><path clip-path="url(#clip410)" d="M17.6735 758.445 Q17.6735 763.156 21.3656 765.893 Q25.0259 768.63 31.4234 768.63 Q37.821 768.63 41.5131 765.925 Q45.1734 763.188 45.1734 758.445 Q45.1734 753.767 41.4813 751.029 Q37.7891 748.292 31.4234 748.292 Q25.0896 748.292 21.3974 751.029 Q17.6735 753.767 17.6735 758.445 M12.7083 758.445 Q12.7083 750.806 17.6735 746.446 Q22.6388 742.085 31.4234 742.085 Q40.1763 742.085 45.1734 746.446 Q50.1386 750.806 50.1386 758.445 Q50.1386 766.116 45.1734 770.477 Q40.1763 774.805 31.4234 774.805 Q22.6388 774.805 17.6735 770.477 Q12.7083 766.116 12.7083 758.445 Z" fill="#000000" fill-rule="nonzero" fill-opacity="1" /><path clip-path="url(#clip410)" d="M19.0421 711.721 Q18.4692 712.708 18.2146 713.885 Q17.9281 715.031 17.9281 716.432 Q17.9281 721.397 21.1746 724.071 Q24.3893 726.712 30.4368 726.712 L49.2156 726.712 L49.2156 732.601 L13.5676 732.601 L13.5676 726.712 L19.1058 726.712 Q15.8593 724.866 14.2997 721.906 Q12.7083 718.946 12.7083 714.713 Q12.7083 714.108 12.8037 713.376 Q12.8674 712.644 13.0265 711.753 L19.0421 711.721 Z" fill="#000000" fill-rule="nonzero" fill-opacity="1" /><path clip-path="url(#clip410)" d="M3.44616 699.785 L13.5676 699.785 L13.5676 687.722 L18.1191 687.722 L18.1191 699.785 L37.4709 699.785 Q41.8314 699.785 43.0727 698.608 Q44.314 697.398 44.314 693.738 L44.314 687.722 L49.2156 687.722 L49.2156 693.738 Q49.2156 700.517 46.7011 703.095 Q44.1548 705.674 37.4709 705.674 L18.1191 705.674 L18.1191 709.97 L13.5676 709.97 L13.5676 705.674 L3.44616 705.674 L3.44616 699.785 Z" fill="#000000" fill-rule="nonzero" fill-opacity="1" /><path clip-path="url(#clip410)" d="M29.9275 649.528 L32.7921 649.528 L32.7921 676.455 Q38.8395 676.073 42.0223 672.827 Q45.1734 669.548 45.1734 663.724 Q45.1734 660.35 44.3458 657.199 Q43.5183 654.016 41.8632 650.897 L47.4014 650.897 Q48.7382 654.048 49.4384 657.358 Q50.1386 660.668 50.1386 664.074 Q50.1386 672.604 45.1734 677.601 Q40.2081 682.566 31.7417 682.566 Q22.9889 682.566 17.8645 677.855 Q12.7083 673.113 12.7083 665.092 Q12.7083 657.899 17.3552 653.729 Q21.9704 649.528 29.9275 649.528 M28.2088 655.385 Q23.4026 655.448 20.5381 658.09 Q17.6735 660.7 17.6735 665.029 Q17.6735 669.93 20.4426 672.89 Q23.2117 675.818 28.2406 676.264 L28.2088 655.385 Z" fill="#000000" fill-rule="nonzero" fill-opacity="1" /><path clip-path="url(#clip410)" d="M18.9785 616.458 L-0.309612 616.458 L-0.309612 610.602 L49.2156 610.602 L49.2156 616.458 L43.8684 616.458 Q47.0512 618.304 48.6108 621.137 Q50.1386 623.938 50.1386 627.885 Q50.1386 634.346 44.9824 638.42 Q39.8262 642.462 31.4234 642.462 Q23.0207 642.462 17.8645 638.42 Q12.7083 634.346 12.7083 627.885 Q12.7083 623.938 14.2679 621.137 Q15.7956 618.304 18.9785 616.458 M31.4234 636.415 Q37.8846 636.415 41.5767 633.773 Q45.237 631.099 45.237 626.452 Q45.237 621.805 41.5767 619.132 Q37.8846 616.458 31.4234 616.458 Q24.9622 616.458 21.302 619.132 Q17.6099 621.805 17.6099 626.452 Q17.6099 631.099 21.302 633.773 Q24.9622 636.415 31.4234 636.415 Z" fill="#000000" fill-rule="nonzero" fill-opacity="1" /><path clip-path="url(#clip410)" d="M5.35587 541.979 L12.1353 541.979 Q9.11163 545.226 7.61569 548.918 Q6.11975 552.578 6.11975 556.716 Q6.11975 564.864 11.1168 569.193 Q16.0821 573.522 25.5033 573.522 Q34.8927 573.522 39.8898 569.193 Q44.8551 564.864 44.8551 556.716 Q44.8551 552.578 43.3591 548.918 Q41.8632 545.226 38.8395 541.979 L45.5553 541.979 Q47.847 545.353 48.9928 549.141 Q50.1386 552.897 50.1386 557.098 Q50.1386 567.888 43.5501 574.094 Q36.9298 580.301 25.5033 580.301 Q14.0451 580.301 7.45655 574.094 Q0.836216 567.888 0.836216 557.098 Q0.836216 552.833 1.98204 549.077 Q3.09604 545.29 5.35587 541.979 Z" fill="#000000" fill-rule="nonzero" fill-opacity="1" /><path clip-path="url(#clip410)" d="M31.2961 516.103 Q31.2961 523.201 32.9194 525.938 Q34.5426 528.675 38.4575 528.675 Q41.5767 528.675 43.4228 526.638 Q45.237 524.569 45.237 521.036 Q45.237 516.167 41.7995 513.238 Q38.3302 510.278 32.6011 510.278 L31.2961 510.278 L31.2961 516.103 M28.8772 504.422 L49.2156 504.422 L49.2156 510.278 L43.8047 510.278 Q47.0512 512.283 48.6108 515.275 Q50.1386 518.267 50.1386 522.596 Q50.1386 528.07 47.0831 531.317 Q43.9957 534.532 38.8395 534.532 Q32.8239 534.532 29.7684 530.521 Q26.7128 526.479 26.7128 518.49 L26.7128 510.278 L26.1399 510.278 Q22.0977 510.278 19.9015 512.952 Q17.6735 515.594 17.6735 520.4 Q17.6735 523.455 18.4056 526.352 Q19.1376 529.248 20.6017 531.922 L15.1909 531.922 Q13.9496 528.707 13.3448 525.683 Q12.7083 522.66 12.7083 519.795 Q12.7083 512.061 16.7187 508.241 Q20.729 504.422 28.8772 504.422 Z" fill="#000000" fill-rule="nonzero" fill-opacity="1" /><path clip-path="url(#clip410)" d="M14.618 469.633 L20.1561 469.633 Q18.883 472.116 18.2464 474.789 Q17.6099 477.463 17.6099 480.328 Q17.6099 484.688 18.9467 486.884 Q20.2834 489.049 22.957 489.049 Q24.9941 489.049 26.1717 487.489 Q27.3176 485.929 28.3679 481.219 L28.8135 479.214 Q30.1503 472.975 32.6011 470.365 Q35.0201 467.723 39.3806 467.723 Q44.3458 467.723 47.2422 471.67 Q50.1386 475.585 50.1386 482.46 Q50.1386 485.325 49.5657 488.444 Q49.0246 491.531 47.9106 494.969 L41.8632 494.969 Q43.5501 491.722 44.4095 488.571 Q45.237 485.42 45.237 482.333 Q45.237 478.195 43.8366 475.967 Q42.4043 473.739 39.8262 473.739 Q37.439 473.739 36.1659 475.362 Q34.8927 476.954 33.7151 482.396 L33.2377 484.433 Q32.0918 489.876 29.7365 492.295 Q27.3494 494.714 23.2117 494.714 Q18.1828 494.714 15.4455 491.149 Q12.7083 487.585 12.7083 481.028 Q12.7083 477.781 13.1857 474.917 Q13.6631 472.052 14.618 469.633 Z" fill="#000000" fill-rule="nonzero" fill-opacity="1" /><path clip-path="url(#clip410)" d="M29.9275 427.906 L32.7921 427.906 L32.7921 454.833 Q38.8395 454.451 42.0223 451.204 Q45.1734 447.926 45.1734 442.102 Q45.1734 438.728 44.3458 435.577 Q43.5183 432.394 41.8632 429.275 L47.4014 429.275 Q48.7382 432.426 49.4384 435.736 Q50.1386 439.046 50.1386 442.452 Q50.1386 450.982 45.1734 455.979 Q40.2081 460.944 31.7417 460.944 Q22.9889 460.944 17.8645 456.233 Q12.7083 451.491 12.7083 443.47 Q12.7083 436.277 17.3552 432.107 Q21.9704 427.906 29.9275 427.906 M28.2088 433.762 Q23.4026 433.826 20.5381 436.468 Q17.6735 439.078 17.6735 443.406 Q17.6735 448.308 20.4426 451.268 Q23.2117 454.196 28.2406 454.642 L28.2088 433.762 Z" fill="#000000" fill-rule="nonzero" fill-opacity="1" /><path clip-path="url(#clip410)" d="M14.618 395.568 L20.1561 395.568 Q18.883 398.051 18.2464 400.724 Q17.6099 403.398 17.6099 406.263 Q17.6099 410.623 18.9467 412.819 Q20.2834 414.984 22.957 414.984 Q24.9941 414.984 26.1717 413.424 Q27.3176 411.864 28.3679 407.154 L28.8135 405.149 Q30.1503 398.91 32.6011 396.3 Q35.0201 393.658 39.3806 393.658 Q44.3458 393.658 47.2422 397.605 Q50.1386 401.52 50.1386 408.395 Q50.1386 411.26 49.5657 414.379 Q49.0246 417.466 47.9106 420.904 L41.8632 420.904 Q43.5501 417.657 44.4095 414.506 Q45.237 411.355 45.237 408.268 Q45.237 404.13 43.8366 401.902 Q42.4043 399.674 39.8262 399.674 Q37.439 399.674 36.1659 401.297 Q34.8927 402.889 33.7151 408.331 L33.2377 410.368 Q32.0918 415.811 29.7365 418.23 Q27.3494 420.649 23.2117 420.649 Q18.1828 420.649 15.4455 417.084 Q12.7083 413.52 12.7083 406.963 Q12.7083 403.716 13.1857 400.852 Q13.6631 397.987 14.618 395.568 Z" fill="#000000" fill-rule="nonzero" fill-opacity="1" /><path clip-path="url(#clip410)" d="M1004.51 14.0809 L1004.51 22.0612 Q999.847 19.8332 995.715 18.7395 Q991.583 17.6457 987.735 17.6457 Q981.051 17.6457 977.405 20.2383 Q973.8 22.8309 973.8 27.611 Q973.8 31.6214 976.19 33.6873 Q978.62 35.7128 985.345 36.9686 L990.287 37.9813 Q999.442 39.7232 1003.78 44.1387 Q1008.15 48.5136 1008.15 55.8863 Q1008.15 64.6767 1002.24 69.2137 Q996.363 73.7508 984.98 73.7508 Q980.686 73.7508 975.825 72.7785 Q971.005 71.8063 965.819 69.9024 L965.819 61.4765 Q970.802 64.2716 975.582 65.6895 Q980.362 67.1073 984.98 67.1073 Q991.988 67.1073 995.796 64.3527 Q999.604 61.598 999.604 56.4939 Q999.604 52.0379 996.849 49.5264 Q994.135 47.0148 987.897 45.759 L982.914 44.7868 Q973.759 42.9639 969.668 39.075 Q965.576 35.1862 965.576 28.2591 Q965.576 20.2383 971.207 15.6203 Q976.878 11.0023 986.803 11.0023 Q991.057 11.0023 995.472 11.7719 Q999.888 12.5416 1004.51 14.0809 Z" fill="#000000" fill-rule="nonzero" fill-opacity="1" /><path clip-path="url(#clip410)" d="M1039.46 76.7889 Q1036.31 84.8907 1033.31 87.3618 Q1030.31 89.8329 1025.29 89.8329 L1019.33 89.8329 L1019.33 83.5945 L1023.71 83.5945 Q1026.79 83.5945 1028.49 82.1361 Q1030.19 80.6778 1032.25 75.2496 L1033.59 71.8468 L1015.24 27.2059 L1023.14 27.2059 L1037.32 62.6918 L1051.5 27.2059 L1059.4 27.2059 L1039.46 76.7889 Z" fill="#000000" fill-rule="nonzero" fill-opacity="1" /><path clip-path="url(#clip410)" d="M1107.4 45.1919 L1107.4 72.576 L1099.94 72.576 L1099.94 45.4349 Q1099.94 38.994 1097.43 35.7938 Q1094.92 32.5936 1089.9 32.5936 Q1083.86 32.5936 1080.38 36.4419 Q1076.9 40.2903 1076.9 46.9338 L1076.9 72.576 L1069.4 72.576 L1069.4 27.2059 L1076.9 27.2059 L1076.9 34.2544 Q1079.57 30.163 1083.17 28.1376 Q1086.82 26.1121 1091.56 26.1121 Q1099.38 26.1121 1103.39 30.9732 Q1107.4 35.7938 1107.4 45.1919 Z" fill="#000000" fill-rule="nonzero" fill-opacity="1" /><path clip-path="url(#clip410)" d="M1129.64 14.324 L1129.64 27.2059 L1144.99 27.2059 L1144.99 32.9987 L1129.64 32.9987 L1129.64 57.6282 Q1129.64 63.1779 1131.14 64.7578 Q1132.68 66.3376 1137.33 66.3376 L1144.99 66.3376 L1144.99 72.576 L1137.33 72.576 Q1128.71 72.576 1125.43 69.3758 Q1122.14 66.1351 1122.14 57.6282 L1122.14 32.9987 L1116.68 32.9987 L1116.68 27.2059 L1122.14 27.2059 L1122.14 14.324 L1129.64 14.324 Z" fill="#000000" fill-rule="nonzero" fill-opacity="1" /><path clip-path="url(#clip410)" d="M1192.51 45.1919 L1192.51 72.576 L1185.05 72.576 L1185.05 45.4349 Q1185.05 38.994 1182.54 35.7938 Q1180.03 32.5936 1175.01 32.5936 Q1168.97 32.5936 1165.49 36.4419 Q1162 40.2903 1162 46.9338 L1162 72.576 L1154.51 72.576 L1154.51 9.54393 L1162 9.54393 L1162 34.2544 Q1164.68 30.163 1168.28 28.1376 Q1171.93 26.1121 1176.67 26.1121 Q1184.49 26.1121 1188.5 30.9732 Q1192.51 35.7938 1192.51 45.1919 Z" fill="#000000" fill-rule="nonzero" fill-opacity="1" /><path clip-path="url(#clip410)" d="M1246.18 48.0275 L1246.18 51.6733 L1211.91 51.6733 Q1212.4 59.3701 1216.53 63.421 Q1220.7 67.4314 1228.12 67.4314 Q1232.41 67.4314 1236.42 66.3781 Q1240.47 65.3249 1244.44 63.2184 L1244.44 70.267 Q1240.43 71.9684 1236.22 72.8596 Q1232 73.7508 1227.67 73.7508 Q1216.81 73.7508 1210.45 67.4314 Q1204.13 61.1119 1204.13 50.3365 Q1204.13 39.1965 1210.13 32.6746 Q1216.17 26.1121 1226.37 26.1121 Q1235.53 26.1121 1240.84 32.0264 Q1246.18 37.9003 1246.18 48.0275 M1238.73 45.84 Q1238.65 39.7232 1235.29 36.0774 Q1231.96 32.4315 1226.45 32.4315 Q1220.22 32.4315 1216.45 35.9558 Q1212.72 39.4801 1212.15 45.8805 L1238.73 45.84 Z" fill="#000000" fill-rule="nonzero" fill-opacity="1" /><path clip-path="url(#clip410)" d="M1265.79 14.324 L1265.79 27.2059 L1281.14 27.2059 L1281.14 32.9987 L1265.79 32.9987 L1265.79 57.6282 Q1265.79 63.1779 1267.29 64.7578 Q1268.83 66.3376 1273.49 66.3376 L1281.14 66.3376 L1281.14 72.576 L1273.49 72.576 Q1264.86 72.576 1261.58 69.3758 Q1258.29 66.1351 1258.29 57.6282 L1258.29 32.9987 L1252.83 32.9987 L1252.83 27.2059 L1258.29 27.2059 L1258.29 14.324 L1265.79 14.324 Z" fill="#000000" fill-rule="nonzero" fill-opacity="1" /><path clip-path="url(#clip410)" d="M1290.95 27.2059 L1298.4 27.2059 L1298.4 72.576 L1290.95 72.576 L1290.95 27.2059 M1290.95 9.54393 L1298.4 9.54393 L1298.4 18.9825 L1290.95 18.9825 L1290.95 9.54393 Z" fill="#000000" fill-rule="nonzero" fill-opacity="1" /><path clip-path="url(#clip410)" d="M1346.64 28.9478 L1346.64 35.9153 Q1343.49 34.1734 1340.29 33.3227 Q1337.13 32.4315 1333.88 32.4315 Q1326.63 32.4315 1322.62 37.0496 Q1318.61 41.6271 1318.61 49.9314 Q1318.61 58.2358 1322.62 62.8538 Q1326.63 67.4314 1333.88 67.4314 Q1337.13 67.4314 1340.29 66.5807 Q1343.49 65.6895 1346.64 63.9476 L1346.64 70.8341 Q1343.53 72.2924 1340.16 73.0216 Q1336.84 73.7508 1333.07 73.7508 Q1322.83 73.7508 1316.79 67.3098 Q1310.75 60.8689 1310.75 49.9314 Q1310.75 38.832 1316.83 32.472 Q1322.95 26.1121 1333.56 26.1121 Q1337 26.1121 1340.29 26.8413 Q1343.57 27.5299 1346.64 28.9478 Z" fill="#000000" fill-rule="nonzero" fill-opacity="1" /><path clip-path="url(#clip410)" d="M1380.92 12.096 L1389.18 12.096 L1401.9 63.2184 L1414.58 12.096 L1423.77 12.096 L1436.49 63.2184 L1449.17 12.096 L1457.48 12.096 L1442.29 72.576 L1432 72.576 L1419.24 20.0763 L1406.36 72.576 L1396.07 72.576 L1380.92 12.096 Z" fill="#000000" fill-rule="nonzero" fill-opacity="1" /><path clip-path="url(#clip410)" d="M1501.96 48.0275 L1501.96 51.6733 L1467.69 51.6733 Q1468.17 59.3701 1472.3 63.421 Q1476.48 67.4314 1483.89 67.4314 Q1488.18 67.4314 1492.19 66.3781 Q1496.24 65.3249 1500.21 63.2184 L1500.21 70.267 Q1496.2 71.9684 1491.99 72.8596 Q1487.78 73.7508 1483.44 73.7508 Q1472.59 73.7508 1466.23 67.4314 Q1459.91 61.1119 1459.91 50.3365 Q1459.91 39.1965 1465.9 32.6746 Q1471.94 26.1121 1482.15 26.1121 Q1491.3 26.1121 1496.61 32.0264 Q1501.96 37.9003 1501.96 48.0275 M1494.5 45.84 Q1494.42 39.7232 1491.06 36.0774 Q1487.74 32.4315 1482.23 32.4315 Q1475.99 32.4315 1472.22 35.9558 Q1468.5 39.4801 1467.93 45.8805 L1494.5 45.84 Z" fill="#000000" fill-rule="nonzero" fill-opacity="1" /><path clip-path="url(#clip410)" d="M1553 48.0275 L1553 51.6733 L1518.73 51.6733 Q1519.21 59.3701 1523.35 63.421 Q1527.52 67.4314 1534.93 67.4314 Q1539.22 67.4314 1543.24 66.3781 Q1547.29 65.3249 1551.26 63.2184 L1551.26 70.267 Q1547.25 71.9684 1543.03 72.8596 Q1538.82 73.7508 1534.49 73.7508 Q1523.63 73.7508 1517.27 67.4314 Q1510.95 61.1119 1510.95 50.3365 Q1510.95 39.1965 1516.94 32.6746 Q1522.98 26.1121 1533.19 26.1121 Q1542.34 26.1121 1547.65 32.0264 Q1553 37.9003 1553 48.0275 M1545.54 45.84 Q1545.46 39.7232 1542.1 36.0774 Q1538.78 32.4315 1533.27 32.4315 Q1527.03 32.4315 1523.26 35.9558 Q1519.54 39.4801 1518.97 45.8805 L1545.54 45.84 Z" fill="#000000" fill-rule="nonzero" fill-opacity="1" /><path clip-path="url(#clip410)" d="M1564.95 9.54393 L1572.44 9.54393 L1572.44 46.7717 L1594.68 27.2059 L1604.2 27.2059 L1580.14 48.4326 L1605.21 72.576 L1595.49 72.576 L1572.44 50.4176 L1572.44 72.576 L1564.95 72.576 L1564.95 9.54393 Z" fill="#000000" fill-rule="nonzero" fill-opacity="1" /><path clip-path="url(#clip410)" d="M1613.28 9.54393 L1620.73 9.54393 L1620.73 72.576 L1613.28 72.576 L1613.28 9.54393 Z" fill="#000000" fill-rule="nonzero" fill-opacity="1" /><path clip-path="url(#clip410)" d="M1655.2 76.7889 Q1652.04 84.8907 1649.04 87.3618 Q1646.05 89.8329 1641.02 89.8329 L1635.07 89.8329 L1635.07 83.5945 L1639.44 83.5945 Q1642.52 83.5945 1644.22 82.1361 Q1645.93 80.6778 1647.99 75.2496 L1649.33 71.8468 L1630.98 27.2059 L1638.88 27.2059 L1653.06 62.6918 L1667.23 27.2059 L1675.13 27.2059 L1655.2 76.7889 Z" fill="#000000" fill-rule="nonzero" fill-opacity="1" /><path clip-path="url(#clip410)" d="M1757.41 16.7545 L1757.41 25.383 Q1753.27 21.5346 1748.58 19.6307 Q1743.92 17.7268 1738.65 17.7268 Q1728.28 17.7268 1722.77 24.0867 Q1717.26 30.4061 1717.26 42.3968 Q1717.26 54.3469 1722.77 60.7069 Q1728.28 67.0263 1738.65 67.0263 Q1743.92 67.0263 1748.58 65.1223 Q1753.27 63.2184 1757.41 59.3701 L1757.41 67.9175 Q1753.11 70.8341 1748.29 72.2924 Q1743.51 73.7508 1738.16 73.7508 Q1724.43 73.7508 1716.53 65.3654 Q1708.63 56.9395 1708.63 42.3968 Q1708.63 27.8135 1716.53 19.4281 Q1724.43 11.0023 1738.16 11.0023 Q1743.59 11.0023 1748.37 12.4606 Q1753.19 13.8784 1757.41 16.7545 Z" fill="#000000" fill-rule="nonzero" fill-opacity="1" /><path clip-path="url(#clip410)" d="M1790.34 49.7694 Q1781.31 49.7694 1777.82 51.8354 Q1774.34 53.9013 1774.34 58.8839 Q1774.34 62.8538 1776.93 65.2034 Q1779.57 67.5124 1784.06 67.5124 Q1790.26 67.5124 1793.99 63.1374 Q1797.75 58.7219 1797.75 51.4303 L1797.75 49.7694 L1790.34 49.7694 M1805.21 46.6907 L1805.21 72.576 L1797.75 72.576 L1797.75 65.6895 Q1795.2 69.8214 1791.39 71.8063 Q1787.59 73.7508 1782.08 73.7508 Q1775.11 73.7508 1770.98 69.8619 Q1766.89 65.9325 1766.89 59.3701 Q1766.89 51.7138 1771.99 47.825 Q1777.13 43.9361 1787.3 43.9361 L1797.75 43.9361 L1797.75 43.2069 Q1797.75 38.0623 1794.35 35.2672 Q1790.99 32.4315 1784.87 32.4315 Q1780.98 32.4315 1777.3 33.3632 Q1773.61 34.295 1770.21 36.1584 L1770.21 29.2718 Q1774.3 27.692 1778.15 26.9223 Q1782 26.1121 1785.64 26.1121 Q1795.49 26.1121 1800.35 31.2163 Q1805.21 36.3204 1805.21 46.6907 Z" fill="#000000" fill-rule="nonzero" fill-opacity="1" /><path clip-path="url(#clip410)" d="M1849.48 28.5427 L1849.48 35.5912 Q1846.32 33.9709 1842.92 33.1607 Q1839.52 32.3505 1835.87 32.3505 Q1830.32 32.3505 1827.53 34.0519 Q1824.77 35.7533 1824.77 39.156 Q1824.77 41.7486 1826.76 43.2475 Q1828.74 44.7058 1834.74 46.0426 L1837.29 46.6097 Q1845.23 48.3111 1848.55 51.4303 Q1851.91 54.509 1851.91 60.0587 Q1851.91 66.3781 1846.89 70.0644 Q1841.91 73.7508 1833.16 73.7508 Q1829.51 73.7508 1825.54 73.0216 Q1821.61 72.3329 1817.24 70.9151 L1817.24 63.2184 Q1821.37 65.3654 1825.38 66.4591 Q1829.39 67.5124 1833.32 67.5124 Q1838.59 67.5124 1841.42 65.73 Q1844.26 63.9071 1844.26 60.6258 Q1844.26 57.5877 1842.19 55.9673 Q1840.17 54.3469 1833.24 52.8481 L1830.65 52.2405 Q1823.72 50.7821 1820.64 47.7845 Q1817.56 44.7463 1817.56 39.4801 Q1817.56 33.0797 1822.1 29.5959 Q1826.64 26.1121 1834.98 26.1121 Q1839.11 26.1121 1842.76 26.7198 Q1846.41 27.3274 1849.48 28.5427 Z" fill="#000000" fill-rule="nonzero" fill-opacity="1" /><path clip-path="url(#clip410)" d="M1902.59 48.0275 L1902.59 51.6733 L1868.32 51.6733 Q1868.81 59.3701 1872.94 63.421 Q1877.11 67.4314 1884.52 67.4314 Q1888.82 67.4314 1892.83 66.3781 Q1896.88 65.3249 1900.85 63.2184 L1900.85 70.267 Q1896.84 71.9684 1892.63 72.8596 Q1888.41 73.7508 1884.08 73.7508 Q1873.22 73.7508 1866.86 67.4314 Q1860.54 61.1119 1860.54 50.3365 Q1860.54 39.1965 1866.54 32.6746 Q1872.57 26.1121 1882.78 26.1121 Q1891.94 26.1121 1897.24 32.0264 Q1902.59 37.9003 1902.59 48.0275 M1895.14 45.84 Q1895.06 39.7232 1891.69 36.0774 Q1888.37 32.4315 1882.86 32.4315 Q1876.62 32.4315 1872.86 35.9558 Q1869.13 39.4801 1868.56 45.8805 L1895.14 45.84 Z" fill="#000000" fill-rule="nonzero" fill-opacity="1" /><path clip-path="url(#clip410)" d="M1949.7 18.8205 L1949.7 65.8515 L1959.59 65.8515 Q1972.1 65.8515 1977.9 60.1802 Q1983.73 54.509 1983.73 42.2752 Q1983.73 30.1225 1977.9 24.4918 Q1972.1 18.8205 1959.59 18.8205 L1949.7 18.8205 M1941.52 12.096 L1958.33 12.096 Q1975.91 12.096 1984.14 19.4281 Q1992.36 26.7198 1992.36 42.2752 Q1992.36 57.9117 1984.1 65.2439 Q1975.83 72.576 1958.33 72.576 L1941.52 72.576 L1941.52 12.096 Z" fill="#000000" fill-rule="nonzero" fill-opacity="1" /><path clip-path="url(#clip410)" d="M2025.7 49.7694 Q2016.66 49.7694 2013.18 51.8354 Q2009.7 53.9013 2009.7 58.8839 Q2009.7 62.8538 2012.29 65.2034 Q2014.92 67.5124 2019.42 67.5124 Q2025.62 67.5124 2029.34 63.1374 Q2033.11 58.7219 2033.11 51.4303 L2033.11 49.7694 L2025.7 49.7694 M2040.56 46.6907 L2040.56 72.576 L2033.11 72.576 L2033.11 65.6895 Q2030.56 69.8214 2026.75 71.8063 Q2022.94 73.7508 2017.43 73.7508 Q2010.47 73.7508 2006.33 69.8619 Q2002.24 65.9325 2002.24 59.3701 Q2002.24 51.7138 2007.35 47.825 Q2012.49 43.9361 2022.66 43.9361 L2033.11 43.9361 L2033.11 43.2069 Q2033.11 38.0623 2029.71 35.2672 Q2026.35 32.4315 2020.23 32.4315 Q2016.34 32.4315 2012.65 33.3632 Q2008.97 34.295 2005.57 36.1584 L2005.57 29.2718 Q2009.66 27.692 2013.5 26.9223 Q2017.35 26.1121 2021 26.1121 Q2030.84 26.1121 2035.7 31.2163 Q2040.56 36.3204 2040.56 46.6907 Z" fill="#000000" fill-rule="nonzero" fill-opacity="1" /><path clip-path="url(#clip410)" d="M2063.29 14.324 L2063.29 27.2059 L2078.64 27.2059 L2078.64 32.9987 L2063.29 32.9987 L2063.29 57.6282 Q2063.29 63.1779 2064.79 64.7578 Q2066.33 66.3376 2070.99 66.3376 L2078.64 66.3376 L2078.64 72.576 L2070.99 72.576 Q2062.36 72.576 2059.08 69.3758 Q2055.8 66.1351 2055.8 57.6282 L2055.8 32.9987 L2050.33 32.9987 L2050.33 27.2059 L2055.8 27.2059 L2055.8 14.324 L2063.29 14.324 Z" fill="#000000" fill-rule="nonzero" fill-opacity="1" /><path clip-path="url(#clip410)" d="M2109.07 49.7694 Q2100.03 49.7694 2096.55 51.8354 Q2093.06 53.9013 2093.06 58.8839 Q2093.06 62.8538 2095.66 65.2034 Q2098.29 67.5124 2102.79 67.5124 Q2108.98 67.5124 2112.71 63.1374 Q2116.48 58.7219 2116.48 51.4303 L2116.48 49.7694 L2109.07 49.7694 M2123.93 46.6907 L2123.93 72.576 L2116.48 72.576 L2116.48 65.6895 Q2113.93 69.8214 2110.12 71.8063 Q2106.31 73.7508 2100.8 73.7508 Q2093.83 73.7508 2089.7 69.8619 Q2085.61 65.9325 2085.61 59.3701 Q2085.61 51.7138 2090.72 47.825 Q2095.86 43.9361 2106.03 43.9361 L2116.48 43.9361 L2116.48 43.2069 Q2116.48 38.0623 2113.08 35.2672 Q2109.71 32.4315 2103.6 32.4315 Q2099.71 32.4315 2096.02 33.3632 Q2092.34 34.295 2088.93 36.1584 L2088.93 29.2718 Q2093.02 27.692 2096.87 26.9223 Q2100.72 26.1121 2104.37 26.1121 Q2114.21 26.1121 2119.07 31.2163 Q2123.93 36.3204 2123.93 46.6907 Z" fill="#000000" fill-rule="nonzero" fill-opacity="1" /><circle clip-path="url(#clip411)" cx="405.13" cy="1393.01" r="10.8" fill="#4682b4" fill-rule="evenodd" fill-opacity="0.7" stroke="#000000" stroke-opacity="0.7" stroke-width="3.2"/>
<circle clip-path="url(#clip411)" cx="449.822" cy="1385.14" r="10.8" fill="#4682b4" fill-rule="evenodd" fill-opacity="0.7" stroke="#000000" stroke-opacity="0.7" stroke-width="3.2"/>
<circle clip-path="url(#clip411)" cx="494.513" cy="1363.8" r="10.8" fill="#4682b4" fill-rule="evenodd" fill-opacity="0.7" stroke="#000000" stroke-opacity="0.7" stroke-width="3.2"/>
<circle clip-path="url(#clip411)" cx="539.204" cy="1303.2" r="10.8" fill="#4682b4" fill-rule="evenodd" fill-opacity="0.7" stroke="#000000" stroke-opacity="0.7" stroke-width="3.2"/>
<circle clip-path="url(#clip411)" cx="583.895" cy="1157.98" r="10.8" fill="#4682b4" fill-rule="evenodd" fill-opacity="0.7" stroke="#000000" stroke-opacity="0.7" stroke-width="3.2"/>
<circle clip-path="url(#clip411)" cx="628.586" cy="876.87" r="10.8" fill="#4682b4" fill-rule="evenodd" fill-opacity="0.7" stroke="#000000" stroke-opacity="0.7" stroke-width="3.2"/>
<circle clip-path="url(#clip411)" cx="673.277" cy="511.32" r="10.8" fill="#4682b4" fill-rule="evenodd" fill-opacity="0.7" stroke="#000000" stroke-opacity="0.7" stroke-width="3.2"/>
<circle clip-path="url(#clip411)" cx="717.968" cy="223.859" r="10.8" fill="#4682b4" fill-rule="evenodd" fill-opacity="0.7" stroke="#000000" stroke-opacity="0.7" stroke-width="3.2"/>
<circle clip-path="url(#clip411)" cx="762.66" cy="152.193" r="10.8" fill="#4682b4" fill-rule="evenodd" fill-opacity="0.7" stroke="#000000" stroke-opacity="0.7" stroke-width="3.2"/>
<circle clip-path="url(#clip411)" cx="807.351" cy="185.322" r="10.8" fill="#4682b4" fill-rule="evenodd" fill-opacity="0.7" stroke="#000000" stroke-opacity="0.7" stroke-width="3.2"/>
<circle clip-path="url(#clip411)" cx="852.042" cy="327.638" r="10.8" fill="#4682b4" fill-rule="evenodd" fill-opacity="0.7" stroke="#000000" stroke-opacity="0.7" stroke-width="3.2"/>
<circle clip-path="url(#clip411)" cx="896.733" cy="538.753" r="10.8" fill="#4682b4" fill-rule="evenodd" fill-opacity="0.7" stroke="#000000" stroke-opacity="0.7" stroke-width="3.2"/>
<circle clip-path="url(#clip411)" cx="941.424" cy="759.411" r="10.8" fill="#4682b4" fill-rule="evenodd" fill-opacity="0.7" stroke="#000000" stroke-opacity="0.7" stroke-width="3.2"/>
<circle clip-path="url(#clip411)" cx="986.115" cy="907.496" r="10.8" fill="#4682b4" fill-rule="evenodd" fill-opacity="0.7" stroke="#000000" stroke-opacity="0.7" stroke-width="3.2"/>
<circle clip-path="url(#clip411)" cx="1030.81" cy="981.956" r="10.8" fill="#4682b4" fill-rule="evenodd" fill-opacity="0.7" stroke="#000000" stroke-opacity="0.7" stroke-width="3.2"/>
<circle clip-path="url(#clip411)" cx="1075.5" cy="1037.76" r="10.8" fill="#4682b4" fill-rule="evenodd" fill-opacity="0.7" stroke="#000000" stroke-opacity="0.7" stroke-width="3.2"/>
<circle clip-path="url(#clip411)" cx="1120.19" cy="1071.44" r="10.8" fill="#4682b4" fill-rule="evenodd" fill-opacity="0.7" stroke="#000000" stroke-opacity="0.7" stroke-width="3.2"/>
<circle clip-path="url(#clip411)" cx="1164.88" cy="1088.67" r="10.8" fill="#4682b4" fill-rule="evenodd" fill-opacity="0.7" stroke="#000000" stroke-opacity="0.7" stroke-width="3.2"/>
<circle clip-path="url(#clip411)" cx="1209.57" cy="1105.26" r="10.8" fill="#4682b4" fill-rule="evenodd" fill-opacity="0.7" stroke="#000000" stroke-opacity="0.7" stroke-width="3.2"/>
<circle clip-path="url(#clip411)" cx="1254.26" cy="1121.44" r="10.8" fill="#4682b4" fill-rule="evenodd" fill-opacity="0.7" stroke="#000000" stroke-opacity="0.7" stroke-width="3.2"/>
<circle clip-path="url(#clip411)" cx="1298.95" cy="1128.23" r="10.8" fill="#4682b4" fill-rule="evenodd" fill-opacity="0.7" stroke="#000000" stroke-opacity="0.7" stroke-width="3.2"/>
<circle clip-path="url(#clip411)" cx="1343.64" cy="1137.08" r="10.8" fill="#4682b4" fill-rule="evenodd" fill-opacity="0.7" stroke="#000000" stroke-opacity="0.7" stroke-width="3.2"/>
<circle clip-path="url(#clip411)" cx="1388.34" cy="1142.09" r="10.8" fill="#4682b4" fill-rule="evenodd" fill-opacity="0.7" stroke="#000000" stroke-opacity="0.7" stroke-width="3.2"/>
<circle clip-path="url(#clip411)" cx="1433.03" cy="1140.35" r="10.8" fill="#4682b4" fill-rule="evenodd" fill-opacity="0.7" stroke="#000000" stroke-opacity="0.7" stroke-width="3.2"/>
<circle clip-path="url(#clip411)" cx="1477.72" cy="1136.79" r="10.8" fill="#4682b4" fill-rule="evenodd" fill-opacity="0.7" stroke="#000000" stroke-opacity="0.7" stroke-width="3.2"/>
<circle clip-path="url(#clip411)" cx="1522.41" cy="1128.41" r="10.8" fill="#4682b4" fill-rule="evenodd" fill-opacity="0.7" stroke="#000000" stroke-opacity="0.7" stroke-width="3.2"/>
<circle clip-path="url(#clip411)" cx="1567.1" cy="1127.83" r="10.8" fill="#4682b4" fill-rule="evenodd" fill-opacity="0.7" stroke="#000000" stroke-opacity="0.7" stroke-width="3.2"/>
<circle clip-path="url(#clip411)" cx="1611.79" cy="1114.51" r="10.8" fill="#4682b4" fill-rule="evenodd" fill-opacity="0.7" stroke="#000000" stroke-opacity="0.7" stroke-width="3.2"/>
<circle clip-path="url(#clip411)" cx="1656.48" cy="1100.69" r="10.8" fill="#4682b4" fill-rule="evenodd" fill-opacity="0.7" stroke="#000000" stroke-opacity="0.7" stroke-width="3.2"/>
<circle clip-path="url(#clip411)" cx="1701.17" cy="1083.2" r="10.8" fill="#4682b4" fill-rule="evenodd" fill-opacity="0.7" stroke="#000000" stroke-opacity="0.7" stroke-width="3.2"/>
<circle clip-path="url(#clip411)" cx="1745.86" cy="1071.98" r="10.8" fill="#4682b4" fill-rule="evenodd" fill-opacity="0.7" stroke="#000000" stroke-opacity="0.7" stroke-width="3.2"/>
<circle clip-path="url(#clip411)" cx="1790.56" cy="1046.98" r="10.8" fill="#4682b4" fill-rule="evenodd" fill-opacity="0.7" stroke="#000000" stroke-opacity="0.7" stroke-width="3.2"/>
<circle clip-path="url(#clip411)" cx="1835.25" cy="1021.94" r="10.8" fill="#4682b4" fill-rule="evenodd" fill-opacity="0.7" stroke="#000000" stroke-opacity="0.7" stroke-width="3.2"/>
<circle clip-path="url(#clip411)" cx="1879.94" cy="996.652" r="10.8" fill="#4682b4" fill-rule="evenodd" fill-opacity="0.7" stroke="#000000" stroke-opacity="0.7" stroke-width="3.2"/>
<circle clip-path="url(#clip411)" cx="1924.63" cy="964.248" r="10.8" fill="#4682b4" fill-rule="evenodd" fill-opacity="0.7" stroke="#000000" stroke-opacity="0.7" stroke-width="3.2"/>
<circle clip-path="url(#clip411)" cx="1969.32" cy="935.291" r="10.8" fill="#4682b4" fill-rule="evenodd" fill-opacity="0.7" stroke="#000000" stroke-opacity="0.7" stroke-width="3.2"/>
<circle clip-path="url(#clip411)" cx="2014.01" cy="906.734" r="10.8" fill="#4682b4" fill-rule="evenodd" fill-opacity="0.7" stroke="#000000" stroke-opacity="0.7" stroke-width="3.2"/>
<circle clip-path="url(#clip411)" cx="2058.7" cy="904.121" r="10.8" fill="#4682b4" fill-rule="evenodd" fill-opacity="0.7" stroke="#000000" stroke-opacity="0.7" stroke-width="3.2"/>
<circle clip-path="url(#clip411)" cx="2103.39" cy="900.529" r="10.8" fill="#4682b4" fill-rule="evenodd" fill-opacity="0.7" stroke="#000000" stroke-opacity="0.7" stroke-width="3.2"/>
<circle clip-path="url(#clip411)" cx="2148.08" cy="900.783" r="10.8" fill="#4682b4" fill-rule="evenodd" fill-opacity="0.7" stroke="#000000" stroke-opacity="0.7" stroke-width="3.2"/>
<circle clip-path="url(#clip411)" cx="2192.78" cy="923.462" r="10.8" fill="#4682b4" fill-rule="evenodd" fill-opacity="0.7" stroke="#000000" stroke-opacity="0.7" stroke-width="3.2"/>
<circle clip-path="url(#clip411)" cx="2237.47" cy="956.156" r="10.8" fill="#4682b4" fill-rule="evenodd" fill-opacity="0.7" stroke="#000000" stroke-opacity="0.7" stroke-width="3.2"/>
<circle clip-path="url(#clip411)" cx="2282.16" cy="997.74" r="10.8" fill="#4682b4" fill-rule="evenodd" fill-opacity="0.7" stroke="#000000" stroke-opacity="0.7" stroke-width="3.2"/>
<circle clip-path="url(#clip411)" cx="2326.85" cy="1031.99" r="10.8" fill="#4682b4" fill-rule="evenodd" fill-opacity="0.7" stroke="#000000" stroke-opacity="0.7" stroke-width="3.2"/>
<circle clip-path="url(#clip411)" cx="2371.54" cy="1081.16" r="10.8" fill="#4682b4" fill-rule="evenodd" fill-opacity="0.7" stroke="#000000" stroke-opacity="0.7" stroke-width="3.2"/>
<circle clip-path="url(#clip411)" cx="2416.23" cy="1117.41" r="10.8" fill="#4682b4" fill-rule="evenodd" fill-opacity="0.7" stroke="#000000" stroke-opacity="0.7" stroke-width="3.2"/>
<circle clip-path="url(#clip411)" cx="2460.92" cy="1153.34" r="10.8" fill="#4682b4" fill-rule="evenodd" fill-opacity="0.7" stroke="#000000" stroke-opacity="0.7" stroke-width="3.2"/>
<circle clip-path="url(#clip411)" cx="2505.61" cy="1200.47" r="10.8" fill="#4682b4" fill-rule="evenodd" fill-opacity="0.7" stroke="#000000" stroke-opacity="0.7" stroke-width="3.2"/>
<circle clip-path="url(#clip411)" cx="2550.31" cy="1232.01" r="10.8" fill="#4682b4" fill-rule="evenodd" fill-opacity="0.7" stroke="#000000" stroke-opacity="0.7" stroke-width="3.2"/>
<circle clip-path="url(#clip411)" cx="2595" cy="1262.2" r="10.8" fill="#4682b4" fill-rule="evenodd" fill-opacity="0.7" stroke="#000000" stroke-opacity="0.7" stroke-width="3.2"/>
<circle clip-path="url(#clip411)" cx="2639.69" cy="1288.14" r="10.8" fill="#4682b4" fill-rule="evenodd" fill-opacity="0.7" stroke="#000000" stroke-opacity="0.7" stroke-width="3.2"/>
<circle clip-path="url(#clip411)" cx="2684.38" cy="1310.28" r="10.8" fill="#4682b4" fill-rule="evenodd" fill-opacity="0.7" stroke="#000000" stroke-opacity="0.7" stroke-width="3.2"/>
<polyline clip-path="url(#clip411)" style="stroke:#4682b4; stroke-linecap:round; stroke-linejoin:round; stroke-width:4; stroke-opacity:0.3; fill:none" points="405.13,1393.01 449.822,1385.14 494.513,1363.8 539.204,1303.2 583.895,1157.98 628.586,876.87 673.277,511.32 717.968,223.859 762.66,152.193 807.351,185.322 852.042,327.638 896.733,538.753 941.424,759.411 986.115,907.496 1030.81,981.956 1075.5,1037.76 1120.19,1071.44 1164.88,1088.67 1209.57,1105.26 1254.26,1121.44 1298.95,1128.23 1343.64,1137.08 1388.34,1142.09 1433.03,1140.35 1477.72,1136.79 1522.41,1128.41 1567.1,1127.83 1611.79,1114.51 1656.48,1100.69 1701.17,1083.2 1745.86,1071.98 1790.56,1046.98 1835.25,1021.94 1879.94,996.652 1924.63,964.248 1969.32,935.291 2014.01,906.734 2058.7,904.121 2103.39,900.529 2148.08,900.783 2192.78,923.462 2237.47,956.156 2282.16,997.74 2326.85,1031.99 2371.54,1081.16 2416.23,1117.41 2460.92,1153.34 2505.61,1200.47 2550.31,1232.01 2595,1262.2 2639.69,1288.14 2684.38,1310.28 "/>
<circle clip-path="url(#clip411)" cx="405.13" cy="1397.47" r="10.8" fill="#ffa500" fill-rule="evenodd" fill-opacity="0.7" stroke="#000000" stroke-opacity="0.7" stroke-width="3.2"/>
<circle clip-path="url(#clip411)" cx="449.822" cy="1397.47" r="10.8" fill="#ffa500" fill-rule="evenodd" fill-opacity="0.7" stroke="#000000" stroke-opacity="0.7" stroke-width="3.2"/>
<circle clip-path="url(#clip411)" cx="494.513" cy="1397.29" r="10.8" fill="#ffa500" fill-rule="evenodd" fill-opacity="0.7" stroke="#000000" stroke-opacity="0.7" stroke-width="3.2"/>
<circle clip-path="url(#clip411)" cx="539.204" cy="1396.75" r="10.8" fill="#ffa500" fill-rule="evenodd" fill-opacity="0.7" stroke="#000000" stroke-opacity="0.7" stroke-width="3.2"/>
<circle clip-path="url(#clip411)" cx="583.895" cy="1395.51" r="10.8" fill="#ffa500" fill-rule="evenodd" fill-opacity="0.7" stroke="#000000" stroke-opacity="0.7" stroke-width="3.2"/>
<circle clip-path="url(#clip411)" cx="628.586" cy="1390.9" r="10.8" fill="#ffa500" fill-rule="evenodd" fill-opacity="0.7" stroke="#000000" stroke-opacity="0.7" stroke-width="3.2"/>
<circle clip-path="url(#clip411)" cx="673.277" cy="1382.92" r="10.8" fill="#ffa500" fill-rule="evenodd" fill-opacity="0.7" stroke="#000000" stroke-opacity="0.7" stroke-width="3.2"/>
<circle clip-path="url(#clip411)" cx="717.968" cy="1358.86" r="10.8" fill="#ffa500" fill-rule="evenodd" fill-opacity="0.7" stroke="#000000" stroke-opacity="0.7" stroke-width="3.2"/>
<circle clip-path="url(#clip411)" cx="762.66" cy="1312.31" r="10.8" fill="#ffa500" fill-rule="evenodd" fill-opacity="0.7" stroke="#000000" stroke-opacity="0.7" stroke-width="3.2"/>
<circle clip-path="url(#clip411)" cx="807.351" cy="1248.19" r="10.8" fill="#ffa500" fill-rule="evenodd" fill-opacity="0.7" stroke="#000000" stroke-opacity="0.7" stroke-width="3.2"/>
<circle clip-path="url(#clip411)" cx="852.042" cy="1179.79" r="10.8" fill="#ffa500" fill-rule="evenodd" fill-opacity="0.7" stroke="#000000" stroke-opacity="0.7" stroke-width="3.2"/>
<circle clip-path="url(#clip411)" cx="896.733" cy="1126.05" r="10.8" fill="#ffa500" fill-rule="evenodd" fill-opacity="0.7" stroke="#000000" stroke-opacity="0.7" stroke-width="3.2"/>
<circle clip-path="url(#clip411)" cx="941.424" cy="1137.77" r="10.8" fill="#ffa500" fill-rule="evenodd" fill-opacity="0.7" stroke="#000000" stroke-opacity="0.7" stroke-width="3.2"/>
<circle clip-path="url(#clip411)" cx="986.115" cy="1155.88" r="10.8" fill="#ffa500" fill-rule="evenodd" fill-opacity="0.7" stroke="#000000" stroke-opacity="0.7" stroke-width="3.2"/>
<circle clip-path="url(#clip411)" cx="1030.81" cy="1167.67" r="10.8" fill="#ffa500" fill-rule="evenodd" fill-opacity="0.7" stroke="#000000" stroke-opacity="0.7" stroke-width="3.2"/>
<circle clip-path="url(#clip411)" cx="1075.5" cy="1193.07" r="10.8" fill="#ffa500" fill-rule="evenodd" fill-opacity="0.7" stroke="#000000" stroke-opacity="0.7" stroke-width="3.2"/>
<circle clip-path="url(#clip411)" cx="1120.19" cy="1218.58" r="10.8" fill="#ffa500" fill-rule="evenodd" fill-opacity="0.7" stroke="#000000" stroke-opacity="0.7" stroke-width="3.2"/>
<circle clip-path="url(#clip411)" cx="1164.88" cy="1235.27" r="10.8" fill="#ffa500" fill-rule="evenodd" fill-opacity="0.7" stroke="#000000" stroke-opacity="0.7" stroke-width="3.2"/>
<circle clip-path="url(#clip411)" cx="1209.57" cy="1245.32" r="10.8" fill="#ffa500" fill-rule="evenodd" fill-opacity="0.7" stroke="#000000" stroke-opacity="0.7" stroke-width="3.2"/>
<circle clip-path="url(#clip411)" cx="1254.26" cy="1255.96" r="10.8" fill="#ffa500" fill-rule="evenodd" fill-opacity="0.7" stroke="#000000" stroke-opacity="0.7" stroke-width="3.2"/>
<circle clip-path="url(#clip411)" cx="1298.95" cy="1263.28" r="10.8" fill="#ffa500" fill-rule="evenodd" fill-opacity="0.7" stroke="#000000" stroke-opacity="0.7" stroke-width="3.2"/>
<circle clip-path="url(#clip411)" cx="1343.64" cy="1260.45" r="10.8" fill="#ffa500" fill-rule="evenodd" fill-opacity="0.7" stroke="#000000" stroke-opacity="0.7" stroke-width="3.2"/>
<circle clip-path="url(#clip411)" cx="1388.34" cy="1263.97" r="10.8" fill="#ffa500" fill-rule="evenodd" fill-opacity="0.7" stroke="#000000" stroke-opacity="0.7" stroke-width="3.2"/>
<circle clip-path="url(#clip411)" cx="1433.03" cy="1258.17" r="10.8" fill="#ffa500" fill-rule="evenodd" fill-opacity="0.7" stroke="#000000" stroke-opacity="0.7" stroke-width="3.2"/>
<circle clip-path="url(#clip411)" cx="1477.72" cy="1249.28" r="10.8" fill="#ffa500" fill-rule="evenodd" fill-opacity="0.7" stroke="#000000" stroke-opacity="0.7" stroke-width="3.2"/>
<circle clip-path="url(#clip411)" cx="1522.41" cy="1234.95" r="10.8" fill="#ffa500" fill-rule="evenodd" fill-opacity="0.7" stroke="#000000" stroke-opacity="0.7" stroke-width="3.2"/>
<circle clip-path="url(#clip411)" cx="1567.1" cy="1220.14" r="10.8" fill="#ffa500" fill-rule="evenodd" fill-opacity="0.7" stroke="#000000" stroke-opacity="0.7" stroke-width="3.2"/>
<circle clip-path="url(#clip411)" cx="1611.79" cy="1199.53" r="10.8" fill="#ffa500" fill-rule="evenodd" fill-opacity="0.7" stroke="#000000" stroke-opacity="0.7" stroke-width="3.2"/>
<circle clip-path="url(#clip411)" cx="1656.48" cy="1176.31" r="10.8" fill="#ffa500" fill-rule="evenodd" fill-opacity="0.7" stroke="#000000" stroke-opacity="0.7" stroke-width="3.2"/>
<circle clip-path="url(#clip411)" cx="1701.17" cy="1148.15" r="10.8" fill="#ffa500" fill-rule="evenodd" fill-opacity="0.7" stroke="#000000" stroke-opacity="0.7" stroke-width="3.2"/>
<circle clip-path="url(#clip411)" cx="1745.86" cy="1121.22" r="10.8" fill="#ffa500" fill-rule="evenodd" fill-opacity="0.7" stroke="#000000" stroke-opacity="0.7" stroke-width="3.2"/>
<circle clip-path="url(#clip411)" cx="1790.56" cy="1093.03" r="10.8" fill="#ffa500" fill-rule="evenodd" fill-opacity="0.7" stroke="#000000" stroke-opacity="0.7" stroke-width="3.2"/>
<circle clip-path="url(#clip411)" cx="1835.25" cy="1046.94" r="10.8" fill="#ffa500" fill-rule="evenodd" fill-opacity="0.7" stroke="#000000" stroke-opacity="0.7" stroke-width="3.2"/>
<circle clip-path="url(#clip411)" cx="1879.94" cy="994.402" r="10.8" fill="#ffa500" fill-rule="evenodd" fill-opacity="0.7" stroke="#000000" stroke-opacity="0.7" stroke-width="3.2"/>
<circle clip-path="url(#clip411)" cx="1924.63" cy="951.185" r="10.8" fill="#ffa500" fill-rule="evenodd" fill-opacity="0.7" stroke="#000000" stroke-opacity="0.7" stroke-width="3.2"/>
<circle clip-path="url(#clip411)" cx="1969.32" cy="896.102" r="10.8" fill="#ffa500" fill-rule="evenodd" fill-opacity="0.7" stroke="#000000" stroke-opacity="0.7" stroke-width="3.2"/>
<circle clip-path="url(#clip411)" cx="2014.01" cy="850.272" r="10.8" fill="#ffa500" fill-rule="evenodd" fill-opacity="0.7" stroke="#000000" stroke-opacity="0.7" stroke-width="3.2"/>
<circle clip-path="url(#clip411)" cx="2058.7" cy="820.771" r="10.8" fill="#ffa500" fill-rule="evenodd" fill-opacity="0.7" stroke="#000000" stroke-opacity="0.7" stroke-width="3.2"/>
<circle clip-path="url(#clip411)" cx="2103.39" cy="813.151" r="10.8" fill="#ffa500" fill-rule="evenodd" fill-opacity="0.7" stroke="#000000" stroke-opacity="0.7" stroke-width="3.2"/>
<circle clip-path="url(#clip411)" cx="2148.08" cy="827.702" r="10.8" fill="#ffa500" fill-rule="evenodd" fill-opacity="0.7" stroke="#000000" stroke-opacity="0.7" stroke-width="3.2"/>
<circle clip-path="url(#clip411)" cx="2192.78" cy="853.248" r="10.8" fill="#ffa500" fill-rule="evenodd" fill-opacity="0.7" stroke="#000000" stroke-opacity="0.7" stroke-width="3.2"/>
<circle clip-path="url(#clip411)" cx="2237.47" cy="883.946" r="10.8" fill="#ffa500" fill-rule="evenodd" fill-opacity="0.7" stroke="#000000" stroke-opacity="0.7" stroke-width="3.2"/>
<circle clip-path="url(#clip411)" cx="2282.16" cy="949.189" r="10.8" fill="#ffa500" fill-rule="evenodd" fill-opacity="0.7" stroke="#000000" stroke-opacity="0.7" stroke-width="3.2"/>
<circle clip-path="url(#clip411)" cx="2326.85" cy="1006.7" r="10.8" fill="#ffa500" fill-rule="evenodd" fill-opacity="0.7" stroke="#000000" stroke-opacity="0.7" stroke-width="3.2"/>
<circle clip-path="url(#clip411)" cx="2371.54" cy="1062.19" r="10.8" fill="#ffa500" fill-rule="evenodd" fill-opacity="0.7" stroke="#000000" stroke-opacity="0.7" stroke-width="3.2"/>
<circle clip-path="url(#clip411)" cx="2416.23" cy="1109.54" r="10.8" fill="#ffa500" fill-rule="evenodd" fill-opacity="0.7" stroke="#000000" stroke-opacity="0.7" stroke-width="3.2"/>
<circle clip-path="url(#clip411)" cx="2460.92" cy="1168.9" r="10.8" fill="#ffa500" fill-rule="evenodd" fill-opacity="0.7" stroke="#000000" stroke-opacity="0.7" stroke-width="3.2"/>
<circle clip-path="url(#clip411)" cx="2505.61" cy="1212.01" r="10.8" fill="#ffa500" fill-rule="evenodd" fill-opacity="0.7" stroke="#000000" stroke-opacity="0.7" stroke-width="3.2"/>
<circle clip-path="url(#clip411)" cx="2550.31" cy="1255.12" r="10.8" fill="#ffa500" fill-rule="evenodd" fill-opacity="0.7" stroke="#000000" stroke-opacity="0.7" stroke-width="3.2"/>
<circle clip-path="url(#clip411)" cx="2595" cy="1284.8" r="10.8" fill="#ffa500" fill-rule="evenodd" fill-opacity="0.7" stroke="#000000" stroke-opacity="0.7" stroke-width="3.2"/>
<circle clip-path="url(#clip411)" cx="2639.69" cy="1311.47" r="10.8" fill="#ffa500" fill-rule="evenodd" fill-opacity="0.7" stroke="#000000" stroke-opacity="0.7" stroke-width="3.2"/>
<circle clip-path="url(#clip411)" cx="2684.38" cy="1332.96" r="10.8" fill="#ffa500" fill-rule="evenodd" fill-opacity="0.7" stroke="#000000" stroke-opacity="0.7" stroke-width="3.2"/>
<polyline clip-path="url(#clip411)" style="stroke:#ffa500; stroke-linecap:round; stroke-linejoin:round; stroke-width:4; stroke-opacity:0.3; fill:none" points="405.13,1397.47 449.822,1397.47 494.513,1397.29 539.204,1396.75 583.895,1395.51 628.586,1390.9 673.277,1382.92 717.968,1358.86 762.66,1312.31 807.351,1248.19 852.042,1179.79 896.733,1126.05 941.424,1137.77 986.115,1155.88 1030.81,1167.67 1075.5,1193.07 1120.19,1218.58 1164.88,1235.27 1209.57,1245.32 1254.26,1255.96 1298.95,1263.28 1343.64,1260.45 1388.34,1263.97 1433.03,1258.17 1477.72,1249.28 1522.41,1234.95 1567.1,1220.14 1611.79,1199.53 1656.48,1176.31 1701.17,1148.15 1745.86,1121.22 1790.56,1093.03 1835.25,1046.94 1879.94,994.402 1924.63,951.185 1969.32,896.102 2014.01,850.272 2058.7,820.771 2103.39,813.151 2148.08,827.702 2192.78,853.248 2237.47,883.946 2282.16,949.189 2326.85,1006.7 2371.54,1062.19 2416.23,1109.54 2460.92,1168.9 2505.61,1212.01 2550.31,1255.12 2595,1284.8 2639.69,1311.47 2684.38,1332.96 "/>
<circle clip-path="url(#clip411)" cx="405.13" cy="1397.54" r="10.8" fill="#008000" fill-rule="evenodd" fill-opacity="0.7" stroke="#000000" stroke-opacity="0.7" stroke-width="3.2"/>
<circle clip-path="url(#clip411)" cx="449.822" cy="1397.51" r="10.8" fill="#008000" fill-rule="evenodd" fill-opacity="0.7" stroke="#000000" stroke-opacity="0.7" stroke-width="3.2"/>
<circle clip-path="url(#clip411)" cx="494.513" cy="1397.54" r="10.8" fill="#008000" fill-rule="evenodd" fill-opacity="0.7" stroke="#000000" stroke-opacity="0.7" stroke-width="3.2"/>
<circle clip-path="url(#clip411)" cx="539.204" cy="1397.54" r="10.8" fill="#008000" fill-rule="evenodd" fill-opacity="0.7" stroke="#000000" stroke-opacity="0.7" stroke-width="3.2"/>
<circle clip-path="url(#clip411)" cx="583.895" cy="1397.25" r="10.8" fill="#008000" fill-rule="evenodd" fill-opacity="0.7" stroke="#000000" stroke-opacity="0.7" stroke-width="3.2"/>
<circle clip-path="url(#clip411)" cx="628.586" cy="1397.18" r="10.8" fill="#008000" fill-rule="evenodd" fill-opacity="0.7" stroke="#000000" stroke-opacity="0.7" stroke-width="3.2"/>
<circle clip-path="url(#clip411)" cx="673.277" cy="1396.71" r="10.8" fill="#008000" fill-rule="evenodd" fill-opacity="0.7" stroke="#000000" stroke-opacity="0.7" stroke-width="3.2"/>
<circle clip-path="url(#clip411)" cx="717.968" cy="1395.48" r="10.8" fill="#008000" fill-rule="evenodd" fill-opacity="0.7" stroke="#000000" stroke-opacity="0.7" stroke-width="3.2"/>
<circle clip-path="url(#clip411)" cx="762.66" cy="1393.44" r="10.8" fill="#008000" fill-rule="evenodd" fill-opacity="0.7" stroke="#000000" stroke-opacity="0.7" stroke-width="3.2"/>
<circle clip-path="url(#clip411)" cx="807.351" cy="1391.01" r="10.8" fill="#008000" fill-rule="evenodd" fill-opacity="0.7" stroke="#000000" stroke-opacity="0.7" stroke-width="3.2"/>
<circle clip-path="url(#clip411)" cx="852.042" cy="1387.93" r="10.8" fill="#008000" fill-rule="evenodd" fill-opacity="0.7" stroke="#000000" stroke-opacity="0.7" stroke-width="3.2"/>
<circle clip-path="url(#clip411)" cx="896.733" cy="1383.14" r="10.8" fill="#008000" fill-rule="evenodd" fill-opacity="0.7" stroke="#000000" stroke-opacity="0.7" stroke-width="3.2"/>
<circle clip-path="url(#clip411)" cx="941.424" cy="1377.12" r="10.8" fill="#008000" fill-rule="evenodd" fill-opacity="0.7" stroke="#000000" stroke-opacity="0.7" stroke-width="3.2"/>
<circle clip-path="url(#clip411)" cx="986.115" cy="1374.76" r="10.8" fill="#008000" fill-rule="evenodd" fill-opacity="0.7" stroke="#000000" stroke-opacity="0.7" stroke-width="3.2"/>
<circle clip-path="url(#clip411)" cx="1030.81" cy="1371.82" r="10.8" fill="#008000" fill-rule="evenodd" fill-opacity="0.7" stroke="#000000" stroke-opacity="0.7" stroke-width="3.2"/>
<circle clip-path="url(#clip411)" cx="1075.5" cy="1370.51" r="10.8" fill="#008000" fill-rule="evenodd" fill-opacity="0.7" stroke="#000000" stroke-opacity="0.7" stroke-width="3.2"/>
<circle clip-path="url(#clip411)" cx="1120.19" cy="1371.27" r="10.8" fill="#008000" fill-rule="evenodd" fill-opacity="0.7" stroke="#000000" stroke-opacity="0.7" stroke-width="3.2"/>
<circle clip-path="url(#clip411)" cx="1164.88" cy="1375.27" r="10.8" fill="#008000" fill-rule="evenodd" fill-opacity="0.7" stroke="#000000" stroke-opacity="0.7" stroke-width="3.2"/>
<circle clip-path="url(#clip411)" cx="1209.57" cy="1375.41" r="10.8" fill="#008000" fill-rule="evenodd" fill-opacity="0.7" stroke="#000000" stroke-opacity="0.7" stroke-width="3.2"/>
<circle clip-path="url(#clip411)" cx="1254.26" cy="1377.37" r="10.8" fill="#008000" fill-rule="evenodd" fill-opacity="0.7" stroke="#000000" stroke-opacity="0.7" stroke-width="3.2"/>
<circle clip-path="url(#clip411)" cx="1298.95" cy="1379.37" r="10.8" fill="#008000" fill-rule="evenodd" fill-opacity="0.7" stroke="#000000" stroke-opacity="0.7" stroke-width="3.2"/>
<circle clip-path="url(#clip411)" cx="1343.64" cy="1378.6" r="10.8" fill="#008000" fill-rule="evenodd" fill-opacity="0.7" stroke="#000000" stroke-opacity="0.7" stroke-width="3.2"/>
<circle clip-path="url(#clip411)" cx="1388.34" cy="1380.35" r="10.8" fill="#008000" fill-rule="evenodd" fill-opacity="0.7" stroke="#000000" stroke-opacity="0.7" stroke-width="3.2"/>
<circle clip-path="url(#clip411)" cx="1433.03" cy="1378.75" r="10.8" fill="#008000" fill-rule="evenodd" fill-opacity="0.7" stroke="#000000" stroke-opacity="0.7" stroke-width="3.2"/>
<circle clip-path="url(#clip411)" cx="1477.72" cy="1381.36" r="10.8" fill="#008000" fill-rule="evenodd" fill-opacity="0.7" stroke="#000000" stroke-opacity="0.7" stroke-width="3.2"/>
<circle clip-path="url(#clip411)" cx="1522.41" cy="1380.31" r="10.8" fill="#008000" fill-rule="evenodd" fill-opacity="0.7" stroke="#000000" stroke-opacity="0.7" stroke-width="3.2"/>
<circle clip-path="url(#clip411)" cx="1567.1" cy="1380.35" r="10.8" fill="#008000" fill-rule="evenodd" fill-opacity="0.7" stroke="#000000" stroke-opacity="0.7" stroke-width="3.2"/>
<circle clip-path="url(#clip411)" cx="1611.79" cy="1380.78" r="10.8" fill="#008000" fill-rule="evenodd" fill-opacity="0.7" stroke="#000000" stroke-opacity="0.7" stroke-width="3.2"/>
<circle clip-path="url(#clip411)" cx="1656.48" cy="1379.76" r="10.8" fill="#008000" fill-rule="evenodd" fill-opacity="0.7" stroke="#000000" stroke-opacity="0.7" stroke-width="3.2"/>
<circle clip-path="url(#clip411)" cx="1701.17" cy="1379.22" r="10.8" fill="#008000" fill-rule="evenodd" fill-opacity="0.7" stroke="#000000" stroke-opacity="0.7" stroke-width="3.2"/>
<circle clip-path="url(#clip411)" cx="1745.86" cy="1379" r="10.8" fill="#008000" fill-rule="evenodd" fill-opacity="0.7" stroke="#000000" stroke-opacity="0.7" stroke-width="3.2"/>
<circle clip-path="url(#clip411)" cx="1790.56" cy="1377.91" r="10.8" fill="#008000" fill-rule="evenodd" fill-opacity="0.7" stroke="#000000" stroke-opacity="0.7" stroke-width="3.2"/>
<circle clip-path="url(#clip411)" cx="1835.25" cy="1378.39" r="10.8" fill="#008000" fill-rule="evenodd" fill-opacity="0.7" stroke="#000000" stroke-opacity="0.7" stroke-width="3.2"/>
<circle clip-path="url(#clip411)" cx="1879.94" cy="1376.5" r="10.8" fill="#008000" fill-rule="evenodd" fill-opacity="0.7" stroke="#000000" stroke-opacity="0.7" stroke-width="3.2"/>
<circle clip-path="url(#clip411)" cx="1924.63" cy="1372.94" r="10.8" fill="#008000" fill-rule="evenodd" fill-opacity="0.7" stroke="#000000" stroke-opacity="0.7" stroke-width="3.2"/>
<circle clip-path="url(#clip411)" cx="1969.32" cy="1374.9" r="10.8" fill="#008000" fill-rule="evenodd" fill-opacity="0.7" stroke="#000000" stroke-opacity="0.7" stroke-width="3.2"/>
<circle clip-path="url(#clip411)" cx="2014.01" cy="1369.24" r="10.8" fill="#008000" fill-rule="evenodd" fill-opacity="0.7" stroke="#000000" stroke-opacity="0.7" stroke-width="3.2"/>
<circle clip-path="url(#clip411)" cx="2058.7" cy="1369.1" r="10.8" fill="#008000" fill-rule="evenodd" fill-opacity="0.7" stroke="#000000" stroke-opacity="0.7" stroke-width="3.2"/>
<circle clip-path="url(#clip411)" cx="2103.39" cy="1366.19" r="10.8" fill="#008000" fill-rule="evenodd" fill-opacity="0.7" stroke="#000000" stroke-opacity="0.7" stroke-width="3.2"/>
<circle clip-path="url(#clip411)" cx="2148.08" cy="1364.23" r="10.8" fill="#008000" fill-rule="evenodd" fill-opacity="0.7" stroke="#000000" stroke-opacity="0.7" stroke-width="3.2"/>
<circle clip-path="url(#clip411)" cx="2192.78" cy="1365.98" r="10.8" fill="#008000" fill-rule="evenodd" fill-opacity="0.7" stroke="#000000" stroke-opacity="0.7" stroke-width="3.2"/>
<circle clip-path="url(#clip411)" cx="2237.47" cy="1361.84" r="10.8" fill="#008000" fill-rule="evenodd" fill-opacity="0.7" stroke="#000000" stroke-opacity="0.7" stroke-width="3.2"/>
<circle clip-path="url(#clip411)" cx="2282.16" cy="1364.49" r="10.8" fill="#008000" fill-rule="evenodd" fill-opacity="0.7" stroke="#000000" stroke-opacity="0.7" stroke-width="3.2"/>
<circle clip-path="url(#clip411)" cx="2326.85" cy="1362.71" r="10.8" fill="#008000" fill-rule="evenodd" fill-opacity="0.7" stroke="#000000" stroke-opacity="0.7" stroke-width="3.2"/>
<circle clip-path="url(#clip411)" cx="2371.54" cy="1363.18" r="10.8" fill="#008000" fill-rule="evenodd" fill-opacity="0.7" stroke="#000000" stroke-opacity="0.7" stroke-width="3.2"/>
<circle clip-path="url(#clip411)" cx="2416.23" cy="1364.63" r="10.8" fill="#008000" fill-rule="evenodd" fill-opacity="0.7" stroke="#000000" stroke-opacity="0.7" stroke-width="3.2"/>
<circle clip-path="url(#clip411)" cx="2460.92" cy="1365.76" r="10.8" fill="#008000" fill-rule="evenodd" fill-opacity="0.7" stroke="#000000" stroke-opacity="0.7" stroke-width="3.2"/>
<circle clip-path="url(#clip411)" cx="2505.61" cy="1366.45" r="10.8" fill="#008000" fill-rule="evenodd" fill-opacity="0.7" stroke="#000000" stroke-opacity="0.7" stroke-width="3.2"/>
<circle clip-path="url(#clip411)" cx="2550.31" cy="1367.75" r="10.8" fill="#008000" fill-rule="evenodd" fill-opacity="0.7" stroke="#000000" stroke-opacity="0.7" stroke-width="3.2"/>
<circle clip-path="url(#clip411)" cx="2595" cy="1370.15" r="10.8" fill="#008000" fill-rule="evenodd" fill-opacity="0.7" stroke="#000000" stroke-opacity="0.7" stroke-width="3.2"/>
<circle clip-path="url(#clip411)" cx="2639.69" cy="1371.35" r="10.8" fill="#008000" fill-rule="evenodd" fill-opacity="0.7" stroke="#000000" stroke-opacity="0.7" stroke-width="3.2"/>
<circle clip-path="url(#clip411)" cx="2684.38" cy="1371.96" r="10.8" fill="#008000" fill-rule="evenodd" fill-opacity="0.7" stroke="#000000" stroke-opacity="0.7" stroke-width="3.2"/>
<polyline clip-path="url(#clip411)" style="stroke:#008000; stroke-linecap:round; stroke-linejoin:round; stroke-width:4; stroke-opacity:0.3; fill:none" points="405.13,1397.54 449.822,1397.51 494.513,1397.54 539.204,1397.54 583.895,1397.25 628.586,1397.18 673.277,1396.71 717.968,1395.48 762.66,1393.44 807.351,1391.01 852.042,1387.93 896.733,1383.14 941.424,1377.12 986.115,1374.76 1030.81,1371.82 1075.5,1370.51 1120.19,1371.27 1164.88,1375.27 1209.57,1375.41 1254.26,1377.37 1298.95,1379.37 1343.64,1378.6 1388.34,1380.35 1433.03,1378.75 1477.72,1381.36 1522.41,1380.31 1567.1,1380.35 1611.79,1380.78 1656.48,1379.76 1701.17,1379.22 1745.86,1379 1790.56,1377.91 1835.25,1378.39 1879.94,1376.5 1924.63,1372.94 1969.32,1374.9 2014.01,1369.24 2058.7,1369.1 2103.39,1366.19 2148.08,1364.23 2192.78,1365.98 2237.47,1361.84 2282.16,1364.49 2326.85,1362.71 2371.54,1363.18 2416.23,1364.63 2460.92,1365.76 2505.61,1366.45 2550.31,1367.75 2595,1370.15 2639.69,1371.35 2684.38,1371.96 "/>
<path clip-path="url(#clip410)" d="M2085.74 366.195 L2672.22 366.195 L2672.22 158.835 L2085.74 158.835  Z" fill="#ffffff" fill-rule="evenodd" fill-opacity="1"/>
<polyline clip-path="url(#clip410)" style="stroke:#000000; stroke-linecap:round; stroke-linejoin:round; stroke-width:4; stroke-opacity:1; fill:none" points="2085.74,366.195 2672.22,366.195 2672.22,158.835 2085.74,158.835 2085.74,366.195 "/>
<circle clip-path="url(#clip410)" cx="2193.12" cy="210.675" r="19.7486" fill="#4682b4" fill-rule="evenodd" fill-opacity="0.7" stroke="#000000" stroke-opacity="0.7" stroke-width="5.85143"/>
<path clip-path="url(#clip410)" d="M2300.5 193.395 L2305.19 193.395 L2305.19 214.39 Q2305.19 219.945 2307.21 222.399 Q2309.22 224.83 2313.74 224.83 Q2318.23 224.83 2320.24 222.399 Q2322.25 219.945 2322.25 214.39 L2322.25 193.395 L2326.95 193.395 L2326.95 214.969 Q2326.95 221.728 2323.6 225.177 Q2320.26 228.626 2313.74 228.626 Q2307.19 228.626 2303.83 225.177 Q2300.5 221.728 2300.5 214.969 L2300.5 193.395 Z" fill="#000000" fill-rule="nonzero" fill-opacity="1" /><path clip-path="url(#clip410)" d="M2350.56 206.01 Q2349.85 205.594 2348.99 205.408 Q2348.16 205.2 2347.14 205.2 Q2343.53 205.2 2341.58 207.561 Q2339.66 209.899 2339.66 214.297 L2339.66 227.955 L2335.38 227.955 L2335.38 202.029 L2339.66 202.029 L2339.66 206.057 Q2341 203.695 2343.16 202.561 Q2345.31 201.404 2348.39 201.404 Q2348.83 201.404 2349.36 201.473 Q2349.89 201.52 2350.54 201.635 L2350.56 206.01 Z" fill="#000000" fill-rule="nonzero" fill-opacity="1" /><path clip-path="url(#clip410)" d="M2373.64 215.015 Q2373.64 210.316 2371.7 207.654 Q2369.78 204.969 2366.4 204.969 Q2363.02 204.969 2361.07 207.654 Q2359.15 210.316 2359.15 215.015 Q2359.15 219.714 2361.07 222.399 Q2363.02 225.061 2366.4 225.061 Q2369.78 225.061 2371.7 222.399 Q2373.64 219.714 2373.64 215.015 M2359.15 205.964 Q2360.5 203.649 2362.53 202.538 Q2364.59 201.404 2367.44 201.404 Q2372.16 201.404 2375.1 205.154 Q2378.06 208.904 2378.06 215.015 Q2378.06 221.126 2375.1 224.876 Q2372.16 228.626 2367.44 228.626 Q2364.59 228.626 2362.53 227.515 Q2360.5 226.381 2359.15 224.066 L2359.15 227.955 L2354.87 227.955 L2354.87 191.936 L2359.15 191.936 L2359.15 205.964 Z" fill="#000000" fill-rule="nonzero" fill-opacity="1" /><path clip-path="url(#clip410)" d="M2396.91 214.922 Q2391.75 214.922 2389.75 216.103 Q2387.76 217.283 2387.76 220.131 Q2387.76 222.399 2389.25 223.742 Q2390.75 225.061 2393.32 225.061 Q2396.86 225.061 2398.99 222.561 Q2401.14 220.038 2401.14 215.871 L2401.14 214.922 L2396.91 214.922 M2405.4 213.163 L2405.4 227.955 L2401.14 227.955 L2401.14 224.019 Q2399.68 226.381 2397.51 227.515 Q2395.33 228.626 2392.18 228.626 Q2388.2 228.626 2385.84 226.404 Q2383.5 224.158 2383.5 220.408 Q2383.5 216.033 2386.42 213.811 Q2389.36 211.589 2395.17 211.589 L2401.14 211.589 L2401.14 211.172 Q2401.14 208.232 2399.2 206.635 Q2397.28 205.015 2393.78 205.015 Q2391.56 205.015 2389.45 205.547 Q2387.35 206.08 2385.4 207.145 L2385.4 203.209 Q2387.74 202.307 2389.94 201.867 Q2392.14 201.404 2394.22 201.404 Q2399.85 201.404 2402.62 204.32 Q2405.4 207.237 2405.4 213.163 Z" fill="#000000" fill-rule="nonzero" fill-opacity="1" /><path clip-path="url(#clip410)" d="M2435.73 212.307 L2435.73 227.955 L2431.47 227.955 L2431.47 212.445 Q2431.47 208.765 2430.03 206.936 Q2428.6 205.107 2425.73 205.107 Q2422.28 205.107 2420.29 207.307 Q2418.3 209.506 2418.3 213.302 L2418.3 227.955 L2414.01 227.955 L2414.01 202.029 L2418.3 202.029 L2418.3 206.057 Q2419.82 203.719 2421.88 202.561 Q2423.97 201.404 2426.68 201.404 Q2431.14 201.404 2433.43 204.182 Q2435.73 206.936 2435.73 212.307 Z" fill="#000000" fill-rule="nonzero" fill-opacity="1" /><path clip-path="url(#clip410)" d="M2469.52 191.983 Q2466.42 197.307 2464.92 202.515 Q2463.41 207.723 2463.41 213.07 Q2463.41 218.418 2464.92 223.672 Q2466.44 228.904 2469.52 234.205 L2465.82 234.205 Q2462.35 228.765 2460.61 223.51 Q2458.9 218.256 2458.9 213.07 Q2458.9 207.908 2460.61 202.677 Q2462.32 197.445 2465.82 191.983 L2469.52 191.983 Z" fill="#000000" fill-rule="nonzero" fill-opacity="1" /><path clip-path="url(#clip410)" d="M2478.43 193.395 L2496.79 193.395 L2496.79 197.33 L2482.72 197.33 L2482.72 205.802 Q2483.74 205.455 2484.75 205.293 Q2485.77 205.107 2486.79 205.107 Q2492.58 205.107 2495.96 208.279 Q2499.34 211.45 2499.34 216.867 Q2499.34 222.445 2495.86 225.547 Q2492.39 228.626 2486.07 228.626 Q2483.9 228.626 2481.63 228.255 Q2479.38 227.885 2476.98 227.144 L2476.98 222.445 Q2479.06 223.58 2481.28 224.135 Q2483.5 224.691 2485.98 224.691 Q2489.99 224.691 2492.32 222.584 Q2494.66 220.478 2494.66 216.867 Q2494.66 213.256 2492.32 211.149 Q2489.99 209.043 2485.98 209.043 Q2484.11 209.043 2482.23 209.459 Q2480.38 209.876 2478.43 210.756 L2478.43 193.395 Z" fill="#000000" fill-rule="nonzero" fill-opacity="1" /><path clip-path="url(#clip410)" d="M2508.13 193.395 L2515.1 193.395 L2523.92 216.913 L2532.79 193.395 L2539.75 193.395 L2539.75 227.955 L2535.19 227.955 L2535.19 197.608 L2526.28 221.311 L2521.58 221.311 L2512.67 197.608 L2512.67 227.955 L2508.13 227.955 L2508.13 193.395 Z" fill="#000000" fill-rule="nonzero" fill-opacity="1" /><path clip-path="url(#clip410)" d="M2548.18 191.983 L2551.88 191.983 Q2555.36 197.445 2557.07 202.677 Q2558.8 207.908 2558.8 213.07 Q2558.8 218.256 2557.07 223.51 Q2555.36 228.765 2551.88 234.205 L2548.18 234.205 Q2551.26 228.904 2552.76 223.672 Q2554.29 218.418 2554.29 213.07 Q2554.29 207.723 2552.76 202.515 Q2551.26 197.307 2548.18 191.983 Z" fill="#000000" fill-rule="nonzero" fill-opacity="1" /><circle clip-path="url(#clip410)" cx="2193.12" cy="262.515" r="19.7486" fill="#ffa500" fill-rule="evenodd" fill-opacity="0.7" stroke="#000000" stroke-opacity="0.7" stroke-width="5.85143"/>
<path clip-path="url(#clip410)" d="M2322.74 246.369 L2322.74 250.929 Q2320.08 249.656 2317.72 249.031 Q2315.36 248.406 2313.16 248.406 Q2309.34 248.406 2307.25 249.887 Q2305.19 251.369 2305.19 254.1 Q2305.19 256.392 2306.56 257.572 Q2307.95 258.73 2311.79 259.447 L2314.62 260.026 Q2319.85 261.022 2322.32 263.545 Q2324.82 266.045 2324.82 270.258 Q2324.82 275.281 2321.44 277.873 Q2318.09 280.466 2311.58 280.466 Q2309.13 280.466 2306.35 279.91 Q2303.6 279.355 2300.63 278.267 L2300.63 273.452 Q2303.48 275.049 2306.21 275.859 Q2308.94 276.67 2311.58 276.67 Q2315.59 276.67 2317.76 275.096 Q2319.94 273.521 2319.94 270.605 Q2319.94 268.059 2318.37 266.623 Q2316.81 265.188 2313.25 264.471 L2310.4 263.915 Q2305.17 262.873 2302.83 260.651 Q2300.5 258.429 2300.5 254.471 Q2300.5 249.887 2303.71 247.248 Q2306.95 244.61 2312.63 244.61 Q2315.06 244.61 2317.58 245.049 Q2320.1 245.489 2322.74 246.369 Z" fill="#000000" fill-rule="nonzero" fill-opacity="1" /><path clip-path="url(#clip410)" d="M2331.49 269.563 L2331.49 253.869 L2335.75 253.869 L2335.75 269.401 Q2335.75 273.082 2337.19 274.933 Q2338.62 276.762 2341.49 276.762 Q2344.94 276.762 2346.93 274.563 Q2348.94 272.364 2348.94 268.568 L2348.94 253.869 L2353.2 253.869 L2353.2 279.795 L2348.94 279.795 L2348.94 275.813 Q2347.39 278.174 2345.33 279.332 Q2343.3 280.466 2340.59 280.466 Q2336.12 280.466 2333.81 277.688 Q2331.49 274.91 2331.49 269.563 M2342.21 253.244 L2342.21 253.244 Z" fill="#000000" fill-rule="nonzero" fill-opacity="1" /><path clip-path="url(#clip410)" d="M2380.59 266.855 Q2380.59 262.156 2378.64 259.494 Q2376.72 256.809 2373.34 256.809 Q2369.96 256.809 2368.02 259.494 Q2366.1 262.156 2366.1 266.855 Q2366.1 271.554 2368.02 274.239 Q2369.96 276.901 2373.34 276.901 Q2376.72 276.901 2378.64 274.239 Q2380.59 271.554 2380.59 266.855 M2366.1 257.804 Q2367.44 255.489 2369.48 254.378 Q2371.54 253.244 2374.38 253.244 Q2379.11 253.244 2382.05 256.994 Q2385.01 260.744 2385.01 266.855 Q2385.01 272.966 2382.05 276.716 Q2379.11 280.466 2374.38 280.466 Q2371.54 280.466 2369.48 279.355 Q2367.44 278.221 2366.1 275.906 L2366.1 279.795 L2361.81 279.795 L2361.81 243.776 L2366.1 243.776 L2366.1 257.804 Z" fill="#000000" fill-rule="nonzero" fill-opacity="1" /><path clip-path="url(#clip410)" d="M2391.63 269.563 L2391.63 253.869 L2395.89 253.869 L2395.89 269.401 Q2395.89 273.082 2397.32 274.933 Q2398.76 276.762 2401.63 276.762 Q2405.08 276.762 2407.07 274.563 Q2409.08 272.364 2409.08 268.568 L2409.08 253.869 L2413.34 253.869 L2413.34 279.795 L2409.08 279.795 L2409.08 275.813 Q2407.53 278.174 2405.47 279.332 Q2403.43 280.466 2400.73 280.466 Q2396.26 280.466 2393.94 277.688 Q2391.63 274.91 2391.63 269.563 M2402.35 253.244 L2402.35 253.244 Z" fill="#000000" fill-rule="nonzero" fill-opacity="1" /><path clip-path="url(#clip410)" d="M2437.14 257.85 Q2436.42 257.434 2435.56 257.248 Q2434.73 257.04 2433.71 257.04 Q2430.1 257.04 2428.16 259.401 Q2426.24 261.739 2426.24 266.137 L2426.24 279.795 L2421.95 279.795 L2421.95 253.869 L2426.24 253.869 L2426.24 257.897 Q2427.58 255.535 2429.73 254.401 Q2431.88 253.244 2434.96 253.244 Q2435.4 253.244 2435.93 253.313 Q2436.47 253.36 2437.12 253.475 L2437.14 257.85 Z" fill="#000000" fill-rule="nonzero" fill-opacity="1" /><path clip-path="url(#clip410)" d="M2460.22 266.855 Q2460.22 262.156 2458.27 259.494 Q2456.35 256.809 2452.97 256.809 Q2449.59 256.809 2447.65 259.494 Q2445.73 262.156 2445.73 266.855 Q2445.73 271.554 2447.65 274.239 Q2449.59 276.901 2452.97 276.901 Q2456.35 276.901 2458.27 274.239 Q2460.22 271.554 2460.22 266.855 M2445.73 257.804 Q2447.07 255.489 2449.11 254.378 Q2451.17 253.244 2454.01 253.244 Q2458.74 253.244 2461.68 256.994 Q2464.64 260.744 2464.64 266.855 Q2464.64 272.966 2461.68 276.716 Q2458.74 280.466 2454.01 280.466 Q2451.17 280.466 2449.11 279.355 Q2447.07 278.221 2445.73 275.906 L2445.73 279.795 L2441.44 279.795 L2441.44 243.776 L2445.73 243.776 L2445.73 257.804 Z" fill="#000000" fill-rule="nonzero" fill-opacity="1" /><path clip-path="url(#clip410)" d="M2483.48 266.762 Q2478.32 266.762 2476.33 267.943 Q2474.34 269.123 2474.34 271.971 Q2474.34 274.239 2475.82 275.582 Q2477.32 276.901 2479.89 276.901 Q2483.43 276.901 2485.56 274.401 Q2487.72 271.878 2487.72 267.711 L2487.72 266.762 L2483.48 266.762 M2491.98 265.003 L2491.98 279.795 L2487.72 279.795 L2487.72 275.859 Q2486.26 278.221 2484.08 279.355 Q2481.91 280.466 2478.76 280.466 Q2474.78 280.466 2472.42 278.244 Q2470.08 275.998 2470.08 272.248 Q2470.08 267.873 2472.99 265.651 Q2475.93 263.429 2481.74 263.429 L2487.72 263.429 L2487.72 263.012 Q2487.72 260.072 2485.77 258.475 Q2483.85 256.855 2480.36 256.855 Q2478.13 256.855 2476.03 257.387 Q2473.92 257.92 2471.98 258.985 L2471.98 255.049 Q2474.31 254.147 2476.51 253.707 Q2478.71 253.244 2480.8 253.244 Q2486.42 253.244 2489.2 256.16 Q2491.98 259.077 2491.98 265.003 Z" fill="#000000" fill-rule="nonzero" fill-opacity="1" /><path clip-path="url(#clip410)" d="M2522.3 264.147 L2522.3 279.795 L2518.04 279.795 L2518.04 264.285 Q2518.04 260.605 2516.61 258.776 Q2515.17 256.947 2512.3 256.947 Q2508.85 256.947 2506.86 259.147 Q2504.87 261.346 2504.87 265.142 L2504.87 279.795 L2500.59 279.795 L2500.59 253.869 L2504.87 253.869 L2504.87 257.897 Q2506.4 255.559 2508.46 254.401 Q2510.54 253.244 2513.25 253.244 Q2517.72 253.244 2520.01 256.022 Q2522.3 258.776 2522.3 264.147 Z" fill="#000000" fill-rule="nonzero" fill-opacity="1" /><path clip-path="url(#clip410)" d="M2556.1 243.823 Q2552.99 249.147 2551.49 254.355 Q2549.98 259.563 2549.98 264.91 Q2549.98 270.258 2551.49 275.512 Q2553.02 280.744 2556.1 286.045 L2552.39 286.045 Q2548.92 280.605 2547.18 275.35 Q2545.47 270.096 2545.47 264.91 Q2545.47 259.748 2547.18 254.517 Q2548.9 249.285 2552.39 243.823 L2556.1 243.823 Z" fill="#000000" fill-rule="nonzero" fill-opacity="1" /><path clip-path="url(#clip410)" d="M2579.13 261.16 Q2582.48 261.878 2584.36 264.147 Q2586.26 266.415 2586.26 269.748 Q2586.26 274.864 2582.74 277.665 Q2579.22 280.466 2572.74 280.466 Q2570.56 280.466 2568.25 280.026 Q2565.96 279.609 2563.5 278.753 L2563.5 274.239 Q2565.45 275.373 2567.76 275.952 Q2570.08 276.531 2572.6 276.531 Q2577 276.531 2579.29 274.795 Q2581.61 273.058 2581.61 269.748 Q2581.61 266.693 2579.45 264.98 Q2577.32 263.244 2573.5 263.244 L2569.48 263.244 L2569.48 259.401 L2573.69 259.401 Q2577.14 259.401 2578.97 258.035 Q2580.8 256.647 2580.8 254.054 Q2580.8 251.392 2578.9 249.98 Q2577.02 248.545 2573.5 248.545 Q2571.58 248.545 2569.38 248.961 Q2567.18 249.378 2564.55 250.258 L2564.55 246.091 Q2567.21 245.35 2569.52 244.98 Q2571.86 244.61 2573.92 244.61 Q2579.24 244.61 2582.35 247.04 Q2585.45 249.448 2585.45 253.568 Q2585.45 256.438 2583.8 258.429 Q2582.16 260.397 2579.13 261.16 Z" fill="#000000" fill-rule="nonzero" fill-opacity="1" /><path clip-path="url(#clip410)" d="M2594.71 245.235 L2601.67 245.235 L2610.49 268.753 L2619.36 245.235 L2626.33 245.235 L2626.33 279.795 L2621.77 279.795 L2621.77 249.448 L2612.86 273.151 L2608.16 273.151 L2599.24 249.448 L2599.24 279.795 L2594.71 279.795 L2594.71 245.235 Z" fill="#000000" fill-rule="nonzero" fill-opacity="1" /><path clip-path="url(#clip410)" d="M2634.75 243.823 L2638.46 243.823 Q2641.93 249.285 2643.64 254.517 Q2645.38 259.748 2645.38 264.91 Q2645.38 270.096 2643.64 275.35 Q2641.93 280.605 2638.46 286.045 L2634.75 286.045 Q2637.83 280.744 2639.34 275.512 Q2640.86 270.258 2640.86 264.91 Q2640.86 259.563 2639.34 254.355 Q2637.83 249.147 2634.75 243.823 Z" fill="#000000" fill-rule="nonzero" fill-opacity="1" /><circle clip-path="url(#clip410)" cx="2193.12" cy="314.355" r="19.7486" fill="#008000" fill-rule="evenodd" fill-opacity="0.7" stroke="#000000" stroke-opacity="0.7" stroke-width="5.85143"/>
<path clip-path="url(#clip410)" d="M2316.88 315.431 Q2318.39 315.94 2319.8 317.607 Q2321.24 319.274 2322.67 322.19 L2327.42 331.635 L2322.39 331.635 L2317.97 322.769 Q2316.26 319.297 2314.64 318.162 Q2313.04 317.028 2310.26 317.028 L2305.17 317.028 L2305.17 331.635 L2300.5 331.635 L2300.5 297.075 L2311.05 297.075 Q2316.98 297.075 2319.89 299.551 Q2322.81 302.028 2322.81 307.028 Q2322.81 310.292 2321.28 312.445 Q2319.78 314.598 2316.88 315.431 M2305.17 300.917 L2305.17 313.186 L2311.05 313.186 Q2314.43 313.186 2316.14 311.635 Q2317.88 310.061 2317.88 307.028 Q2317.88 303.996 2316.14 302.468 Q2314.43 300.917 2311.05 300.917 L2305.17 300.917 Z" fill="#000000" fill-rule="nonzero" fill-opacity="1" /><path clip-path="url(#clip410)" d="M2330.68 321.403 L2330.68 305.709 L2334.94 305.709 L2334.94 321.241 Q2334.94 324.922 2336.38 326.773 Q2337.81 328.602 2340.68 328.602 Q2344.13 328.602 2346.12 326.403 Q2348.13 324.204 2348.13 320.408 L2348.13 305.709 L2352.39 305.709 L2352.39 331.635 L2348.13 331.635 L2348.13 327.653 Q2346.58 330.014 2344.52 331.172 Q2342.49 332.306 2339.78 332.306 Q2335.31 332.306 2333 329.528 Q2330.68 326.75 2330.68 321.403 M2341.4 305.084 L2341.4 305.084 Z" fill="#000000" fill-rule="nonzero" fill-opacity="1" /><path clip-path="url(#clip410)" d="M2376.19 309.69 Q2375.47 309.274 2374.62 309.088 Q2373.78 308.88 2372.76 308.88 Q2369.15 308.88 2367.21 311.241 Q2365.29 313.579 2365.29 317.977 L2365.29 331.635 L2361 331.635 L2361 305.709 L2365.29 305.709 L2365.29 309.737 Q2366.63 307.375 2368.78 306.241 Q2370.94 305.084 2374.01 305.084 Q2374.45 305.084 2374.99 305.153 Q2375.52 305.2 2376.17 305.315 L2376.19 309.69 Z" fill="#000000" fill-rule="nonzero" fill-opacity="1" /><path clip-path="url(#clip410)" d="M2392.44 318.602 Q2387.28 318.602 2385.29 319.783 Q2383.3 320.963 2383.3 323.811 Q2383.3 326.079 2384.78 327.422 Q2386.28 328.741 2388.85 328.741 Q2392.39 328.741 2394.52 326.241 Q2396.68 323.718 2396.68 319.551 L2396.68 318.602 L2392.44 318.602 M2400.93 316.843 L2400.93 331.635 L2396.68 331.635 L2396.68 327.699 Q2395.22 330.061 2393.04 331.195 Q2390.87 332.306 2387.72 332.306 Q2383.74 332.306 2381.37 330.084 Q2379.04 327.838 2379.04 324.088 Q2379.04 319.713 2381.95 317.491 Q2384.89 315.269 2390.7 315.269 L2396.68 315.269 L2396.68 314.852 Q2396.68 311.912 2394.73 310.315 Q2392.81 308.695 2389.31 308.695 Q2387.09 308.695 2384.99 309.227 Q2382.88 309.76 2380.93 310.825 L2380.93 306.889 Q2383.27 305.987 2385.47 305.547 Q2387.67 305.084 2389.75 305.084 Q2395.38 305.084 2398.16 308 Q2400.93 310.917 2400.93 316.843 Z" fill="#000000" fill-rule="nonzero" fill-opacity="1" /><path clip-path="url(#clip410)" d="M2409.71 295.616 L2413.97 295.616 L2413.97 331.635 L2409.71 331.635 L2409.71 295.616 Z" fill="#000000" fill-rule="nonzero" fill-opacity="1" /><path clip-path="url(#clip410)" d="M2448.18 295.663 Q2445.08 300.987 2443.57 306.195 Q2442.07 311.403 2442.07 316.75 Q2442.07 322.098 2443.57 327.352 Q2445.1 332.584 2448.18 337.885 L2444.48 337.885 Q2441 332.445 2439.27 327.19 Q2437.56 321.936 2437.56 316.75 Q2437.56 311.588 2439.27 306.357 Q2440.98 301.125 2444.48 295.663 L2448.18 295.663 Z" fill="#000000" fill-rule="nonzero" fill-opacity="1" /><path clip-path="url(#clip410)" d="M2457.86 327.699 L2465.49 327.699 L2465.49 301.334 L2457.18 303 L2457.18 298.741 L2465.45 297.075 L2470.12 297.075 L2470.12 327.699 L2477.76 327.699 L2477.76 331.635 L2457.86 331.635 L2457.86 327.699 Z" fill="#000000" fill-rule="nonzero" fill-opacity="1" /><path clip-path="url(#clip410)" d="M2486.79 297.075 L2493.76 297.075 L2502.58 320.593 L2511.44 297.075 L2518.41 297.075 L2518.41 331.635 L2513.85 331.635 L2513.85 301.288 L2504.94 324.991 L2500.24 324.991 L2491.33 301.288 L2491.33 331.635 L2486.79 331.635 L2486.79 297.075 Z" fill="#000000" fill-rule="nonzero" fill-opacity="1" /><path clip-path="url(#clip410)" d="M2526.84 295.663 L2530.54 295.663 Q2534.01 301.125 2535.73 306.357 Q2537.46 311.588 2537.46 316.75 Q2537.46 321.936 2535.73 327.19 Q2534.01 332.445 2530.54 337.885 L2526.84 337.885 Q2529.92 332.584 2531.42 327.352 Q2532.95 322.098 2532.95 316.75 Q2532.95 311.403 2531.42 306.195 Q2529.92 300.987 2526.84 295.663 Z" fill="#000000" fill-rule="nonzero" fill-opacity="1" /></svg>
