<?xml version="1.0" encoding="utf-8"?>
<svg xmlns="http://www.w3.org/2000/svg" xmlns:xlink="http://www.w3.org/1999/xlink" width="700" height="350" viewBox="0 0 2800 1400">
<defs>
  <clipPath id="clip380">
    <rect x="0" y="0" width="2800" height="1400"/>
  </clipPath>
</defs>
<path clip-path="url(#clip380)" d="M0 1400 L2800 1400 L2800 0 L0 0  Z" fill="#ffffff" fill-rule="evenodd" fill-opacity="1"/>
<defs>
  <clipPath id="clip381">
    <rect x="211" y="108" width="2542" height="1138"/>
  </clipPath>
</defs>
<path clip-path="url(#clip380)" d="M211.5 1245.7 L2752.76 1245.7 L2752.76 108.352 L211.5 108.352  Z" fill="#ffffff" fill-rule="evenodd" fill-opacity="1"/>
<polyline clip-path="url(#clip381)" style="stroke:#000000; stroke-linecap:round; stroke-linejoin:round; stroke-width:2; stroke-opacity:0.1; fill:none" points="283.422,1245.7 283.422,108.352 "/>
<polyline clip-path="url(#clip381)" style="stroke:#000000; stroke-linecap:round; stroke-linejoin:round; stroke-width:2; stroke-opacity:0.1; fill:none" points="940.247,1245.7 940.247,108.352 "/>
<polyline clip-path="url(#clip381)" style="stroke:#000000; stroke-linecap:round; stroke-linejoin:round; stroke-width:2; stroke-opacity:0.1; fill:none" points="1597.07,1245.7 1597.07,108.352 "/>
<polyline clip-path="url(#clip381)" style="stroke:#000000; stroke-linecap:round; stroke-linejoin:round; stroke-width:2; stroke-opacity:0.1; fill:none" points="2253.9,1245.7 2253.9,108.352 "/>
<polyline clip-path="url(#clip381)" style="stroke:#000000; stroke-linecap:round; stroke-linejoin:round; stroke-width:2; stroke-opacity:0.1; fill:none" points="211.5,1213.51 2752.76,1213.51 "/>
<polyline clip-path="url(#clip381)" style="stroke:#000000; stroke-linecap:round; stroke-linejoin:round; stroke-width:2; stroke-opacity:0.1; fill:none" points="211.5,931.795 2752.76,931.795 "/>
<polyline clip-path="url(#clip381)" style="stroke:#000000; stroke-linecap:round; stroke-linejoin:round; stroke-width:2; stroke-opacity:0.1; fill:none" points="211.5,650.08 2752.76,650.08 "/>
<polyline clip-path="url(#clip381)" style="stroke:#000000; stroke-linecap:round; stroke-linejoin:round; stroke-width:2; stroke-opacity:0.1; fill:none" points="211.5,368.364 2752.76,368.364 "/>
<polyline clip-path="url(#clip380)" style="stroke:#000000; stroke-linecap:round; stroke-linejoin:round; stroke-width:4; stroke-opacity:1; fill:none" points="211.5,1245.7 2752.76,1245.7 "/>
<polyline clip-path="url(#clip380)" style="stroke:#000000; stroke-linecap:round; stroke-linejoin:round; stroke-width:4; stroke-opacity:1; fill:none" points="283.422,1245.7 283.422,1226.8 "/>
<polyline clip-path="url(#clip380)" style="stroke:#000000; stroke-linecap:round; stroke-linejoin:round; stroke-width:4; stroke-opacity:1; fill:none" points="940.247,1245.7 940.247,1226.8 "/>
<polyline clip-path="url(#clip380)" style="stroke:#000000; stroke-linecap:round; stroke-linejoin:round; stroke-width:4; stroke-opacity:1; fill:none" points="1597.07,1245.7 1597.07,1226.8 "/>
<polyline clip-path="url(#clip380)" style="stroke:#000000; stroke-linecap:round; stroke-linejoin:round; stroke-width:4; stroke-opacity:1; fill:none" points="2253.9,1245.7 2253.9,1226.8 "/>
<path clip-path="url(#clip380)" d="M283.422 1279.82 Q279.811 1279.82 277.983 1283.38 Q276.177 1286.92 276.177 1294.05 Q276.177 1301.16 277.983 1304.73 Q279.811 1308.27 283.422 1308.27 Q287.057 1308.27 288.862 1304.73 Q290.691 1301.16 290.691 1294.05 Q290.691 1286.92 288.862 1283.38 Q287.057 1279.82 283.422 1279.82 M283.422 1276.11 Q289.233 1276.11 292.288 1280.72 Q295.367 1285.3 295.367 1294.05 Q295.367 1302.78 292.288 1307.39 Q289.233 1311.97 283.422 1311.97 Q277.612 1311.97 274.534 1307.39 Q271.478 1302.78 271.478 1294.05 Q271.478 1285.3 274.534 1280.72 Q277.612 1276.11 283.422 1276.11 Z" fill="#000000" fill-rule="nonzero" fill-opacity="1" /><path clip-path="url(#clip380)" d="M899.854 1307.36 L907.493 1307.36 L907.493 1281 L899.183 1282.67 L899.183 1278.41 L907.447 1276.74 L912.123 1276.74 L912.123 1307.36 L919.761 1307.36 L919.761 1311.3 L899.854 1311.3 L899.854 1307.36 Z" fill="#000000" fill-rule="nonzero" fill-opacity="1" /><path clip-path="url(#clip380)" d="M939.206 1279.82 Q935.595 1279.82 933.766 1283.38 Q931.96 1286.92 931.96 1294.05 Q931.96 1301.16 933.766 1304.73 Q935.595 1308.27 939.206 1308.27 Q942.84 1308.27 944.646 1304.73 Q946.474 1301.16 946.474 1294.05 Q946.474 1286.92 944.646 1283.38 Q942.84 1279.82 939.206 1279.82 M939.206 1276.11 Q945.016 1276.11 948.071 1280.72 Q951.15 1285.3 951.15 1294.05 Q951.15 1302.78 948.071 1307.39 Q945.016 1311.97 939.206 1311.97 Q933.396 1311.97 930.317 1307.39 Q927.261 1302.78 927.261 1294.05 Q927.261 1285.3 930.317 1280.72 Q933.396 1276.11 939.206 1276.11 Z" fill="#000000" fill-rule="nonzero" fill-opacity="1" /><path clip-path="url(#clip380)" d="M969.368 1279.82 Q965.757 1279.82 963.928 1283.38 Q962.122 1286.92 962.122 1294.05 Q962.122 1301.16 963.928 1304.73 Q965.757 1308.27 969.368 1308.27 Q973.002 1308.27 974.807 1304.73 Q976.636 1301.16 976.636 1294.05 Q976.636 1286.92 974.807 1283.38 Q973.002 1279.82 969.368 1279.82 M969.368 1276.11 Q975.178 1276.11 978.233 1280.72 Q981.312 1285.3 981.312 1294.05 Q981.312 1302.78 978.233 1307.39 Q975.178 1311.97 969.368 1311.97 Q963.558 1311.97 960.479 1307.39 Q957.423 1302.78 957.423 1294.05 Q957.423 1285.3 960.479 1280.72 Q963.558 1276.11 969.368 1276.11 Z" fill="#000000" fill-rule="nonzero" fill-opacity="1" /><path clip-path="url(#clip380)" d="M1560.76 1307.36 L1577.08 1307.36 L1577.08 1311.3 L1555.14 1311.3 L1555.14 1307.36 Q1557.8 1304.61 1562.39 1299.98 Q1566.99 1295.33 1568.17 1293.99 Q1570.42 1291.46 1571.3 1289.73 Q1572.2 1287.97 1572.2 1286.28 Q1572.2 1283.52 1570.26 1281.79 Q1568.33 1280.05 1565.23 1280.05 Q1563.03 1280.05 1560.58 1280.81 Q1558.15 1281.58 1555.37 1283.13 L1555.37 1278.41 Q1558.2 1277.27 1560.65 1276.69 Q1563.1 1276.11 1565.14 1276.11 Q1570.51 1276.11 1573.7 1278.8 Q1576.9 1281.49 1576.9 1285.98 Q1576.9 1288.11 1576.09 1290.03 Q1575.3 1291.92 1573.2 1294.52 Q1572.62 1295.19 1569.51 1298.41 Q1566.41 1301.6 1560.76 1307.36 Z" fill="#000000" fill-rule="nonzero" fill-opacity="1" /><path clip-path="url(#clip380)" d="M1596.9 1279.82 Q1593.29 1279.82 1591.46 1283.38 Q1589.65 1286.92 1589.65 1294.05 Q1589.65 1301.16 1591.46 1304.73 Q1593.29 1308.27 1596.9 1308.27 Q1600.53 1308.27 1602.34 1304.73 Q1604.17 1301.16 1604.17 1294.05 Q1604.17 1286.92 1602.34 1283.38 Q1600.53 1279.82 1596.9 1279.82 M1596.9 1276.11 Q1602.71 1276.11 1605.76 1280.72 Q1608.84 1285.3 1608.84 1294.05 Q1608.84 1302.78 1605.76 1307.39 Q1602.71 1311.97 1596.9 1311.97 Q1591.09 1311.97 1588.01 1307.39 Q1584.95 1302.78 1584.95 1294.05 Q1584.95 1285.3 1588.01 1280.72 Q1591.09 1276.11 1596.9 1276.11 Z" fill="#000000" fill-rule="nonzero" fill-opacity="1" /><path clip-path="url(#clip380)" d="M1627.06 1279.82 Q1623.45 1279.82 1621.62 1283.38 Q1619.82 1286.92 1619.82 1294.05 Q1619.82 1301.16 1621.62 1304.73 Q1623.45 1308.27 1627.06 1308.27 Q1630.69 1308.27 1632.5 1304.73 Q1634.33 1301.16 1634.33 1294.05 Q1634.33 1286.92 1632.5 1283.38 Q1630.69 1279.82 1627.06 1279.82 M1627.06 1276.11 Q1632.87 1276.11 1635.93 1280.72 Q1639.01 1285.3 1639.01 1294.05 Q1639.01 1302.78 1635.93 1307.39 Q1632.87 1311.97 1627.06 1311.97 Q1621.25 1311.97 1618.17 1307.39 Q1615.12 1302.78 1615.12 1294.05 Q1615.12 1285.3 1618.17 1280.72 Q1621.25 1276.11 1627.06 1276.11 Z" fill="#000000" fill-rule="nonzero" fill-opacity="1" /><path clip-path="url(#clip380)" d="M2227.66 1292.67 Q2231.02 1293.38 2232.89 1295.65 Q2234.79 1297.92 2234.79 1301.25 Q2234.79 1306.37 2231.27 1309.17 Q2227.75 1311.97 2221.27 1311.97 Q2219.09 1311.97 2216.78 1311.53 Q2214.49 1311.11 2212.03 1310.26 L2212.03 1305.74 Q2213.98 1306.88 2216.29 1307.46 Q2218.61 1308.04 2221.13 1308.04 Q2225.53 1308.04 2227.82 1306.3 Q2230.14 1304.56 2230.14 1301.25 Q2230.14 1298.2 2227.98 1296.49 Q2225.85 1294.75 2222.03 1294.75 L2218.01 1294.75 L2218.01 1290.91 L2222.22 1290.91 Q2225.67 1290.91 2227.5 1289.54 Q2229.33 1288.15 2229.33 1285.56 Q2229.33 1282.9 2227.43 1281.49 Q2225.55 1280.05 2222.03 1280.05 Q2220.11 1280.05 2217.91 1280.47 Q2215.71 1280.88 2213.08 1281.76 L2213.08 1277.6 Q2215.74 1276.86 2218.05 1276.49 Q2220.39 1276.11 2222.45 1276.11 Q2227.77 1276.11 2230.88 1278.55 Q2233.98 1280.95 2233.98 1285.07 Q2233.98 1287.94 2232.33 1289.93 Q2230.69 1291.9 2227.66 1292.67 Z" fill="#000000" fill-rule="nonzero" fill-opacity="1" /><path clip-path="url(#clip380)" d="M2253.65 1279.82 Q2250.04 1279.82 2248.21 1283.38 Q2246.41 1286.92 2246.41 1294.05 Q2246.41 1301.16 2248.21 1304.73 Q2250.04 1308.27 2253.65 1308.27 Q2257.29 1308.27 2259.09 1304.73 Q2260.92 1301.16 2260.92 1294.05 Q2260.92 1286.92 2259.09 1283.38 Q2257.29 1279.82 2253.65 1279.82 M2253.65 1276.11 Q2259.46 1276.11 2262.52 1280.72 Q2265.6 1285.3 2265.6 1294.05 Q2265.6 1302.78 2262.52 1307.39 Q2259.46 1311.97 2253.65 1311.97 Q2247.84 1311.97 2244.77 1307.39 Q2241.71 1302.78 2241.71 1294.05 Q2241.71 1285.3 2244.77 1280.72 Q2247.84 1276.11 2253.65 1276.11 Z" fill="#000000" fill-rule="nonzero" fill-opacity="1" /><path clip-path="url(#clip380)" d="M2283.82 1279.82 Q2280.21 1279.82 2278.38 1283.38 Q2276.57 1286.92 2276.57 1294.05 Q2276.57 1301.16 2278.38 1304.73 Q2280.21 1308.27 2283.82 1308.27 Q2287.45 1308.27 2289.26 1304.73 Q2291.08 1301.16 2291.08 1294.05 Q2291.08 1286.92 2289.26 1283.38 Q2287.45 1279.82 2283.82 1279.82 M2283.82 1276.11 Q2289.63 1276.11 2292.68 1280.72 Q2295.76 1285.3 2295.76 1294.05 Q2295.76 1302.78 2292.68 1307.39 Q2289.63 1311.97 2283.82 1311.97 Q2278.01 1311.97 2274.93 1307.39 Q2271.87 1302.78 2271.87 1294.05 Q2271.87 1285.3 2274.93 1280.72 Q2278.01 1276.11 2283.82 1276.11 Z" fill="#000000" fill-rule="nonzero" fill-opacity="1" /><path clip-path="url(#clip380)" d="M1428.37 1354.33 L1428.37 1391.28 L1436.14 1391.28 Q1445.97 1391.28 1450.52 1386.82 Q1455.11 1382.37 1455.11 1372.76 Q1455.11 1363.21 1450.52 1358.78 Q1445.97 1354.33 1436.14 1354.33 L1428.37 1354.33 M1421.94 1349.04 L1435.15 1349.04 Q1448.96 1349.04 1455.42 1354.8 Q1461.89 1360.53 1461.89 1372.76 Q1461.89 1385.04 1455.39 1390.8 Q1448.9 1396.56 1435.15 1396.56 L1421.94 1396.56 L1421.94 1349.04 Z" fill="#000000" fill-rule="nonzero" fill-opacity="1" /><path clip-path="url(#clip380)" d="M1488.08 1378.64 Q1480.98 1378.64 1478.24 1380.27 Q1475.51 1381.89 1475.51 1385.81 Q1475.51 1388.92 1477.54 1390.77 Q1479.61 1392.59 1483.15 1392.59 Q1488.02 1392.59 1490.94 1389.15 Q1493.9 1385.68 1493.9 1379.95 L1493.9 1378.64 L1488.08 1378.64 M1499.76 1376.23 L1499.76 1396.56 L1493.9 1396.56 L1493.9 1391.15 Q1491.9 1394.4 1488.91 1395.96 Q1485.92 1397.49 1481.59 1397.49 Q1476.11 1397.49 1472.87 1394.43 Q1469.65 1391.34 1469.65 1386.19 Q1469.65 1380.17 1473.66 1377.12 Q1477.7 1374.06 1485.69 1374.06 L1493.9 1374.06 L1493.9 1373.49 Q1493.9 1369.45 1491.23 1367.25 Q1488.59 1365.02 1483.78 1365.02 Q1480.73 1365.02 1477.83 1365.75 Q1474.93 1366.49 1472.26 1367.95 L1472.26 1362.54 Q1475.48 1361.3 1478.5 1360.69 Q1481.52 1360.06 1484.39 1360.06 Q1492.12 1360.06 1495.94 1364.07 Q1499.76 1368.08 1499.76 1376.23 Z" fill="#000000" fill-rule="nonzero" fill-opacity="1" /><path clip-path="url(#clip380)" d="M1526.66 1399.87 Q1524.17 1406.24 1521.82 1408.18 Q1519.46 1410.12 1515.52 1410.12 L1510.84 1410.12 L1510.84 1405.22 L1514.27 1405.22 Q1516.69 1405.22 1518.03 1404.08 Q1519.37 1402.93 1520.99 1398.66 L1522.04 1395.99 L1507.62 1360.92 L1513.83 1360.92 L1524.97 1388.8 L1536.11 1360.92 L1542.32 1360.92 L1526.66 1399.87 Z" fill="#000000" fill-rule="nonzero" fill-opacity="1" /><polyline clip-path="url(#clip380)" style="stroke:#000000; stroke-linecap:round; stroke-linejoin:round; stroke-width:4; stroke-opacity:1; fill:none" points="211.5,1245.7 211.5,108.352 "/>
<polyline clip-path="url(#clip380)" style="stroke:#000000; stroke-linecap:round; stroke-linejoin:round; stroke-width:4; stroke-opacity:1; fill:none" points="211.5,1213.51 230.398,1213.51 "/>
<polyline clip-path="url(#clip380)" style="stroke:#000000; stroke-linecap:round; stroke-linejoin:round; stroke-width:4; stroke-opacity:1; fill:none" points="211.5,931.795 230.398,931.795 "/>
<polyline clip-path="url(#clip380)" style="stroke:#000000; stroke-linecap:round; stroke-linejoin:round; stroke-width:4; stroke-opacity:1; fill:none" points="211.5,650.08 230.398,650.08 "/>
<polyline clip-path="url(#clip380)" style="stroke:#000000; stroke-linecap:round; stroke-linejoin:round; stroke-width:4; stroke-opacity:1; fill:none" points="211.5,368.364 230.398,368.364 "/>
<path clip-path="url(#clip380)" d="M112.325 1199.31 Q108.713 1199.31 106.885 1202.87 Q105.079 1206.42 105.079 1213.55 Q105.079 1220.65 106.885 1224.22 Q108.713 1227.76 112.325 1227.76 Q115.959 1227.76 117.764 1224.22 Q119.593 1220.65 119.593 1213.55 Q119.593 1206.42 117.764 1202.87 Q115.959 1199.31 112.325 1199.31 M112.325 1195.61 Q118.135 1195.61 121.19 1200.21 Q124.269 1204.8 124.269 1213.55 Q124.269 1222.27 121.19 1226.88 Q118.135 1231.46 112.325 1231.46 Q106.514 1231.46 103.436 1226.88 Q100.38 1222.27 100.38 1213.55 Q100.38 1204.8 103.436 1200.21 Q106.514 1195.61 112.325 1195.61 Z" fill="#000000" fill-rule="nonzero" fill-opacity="1" /><path clip-path="url(#clip380)" d="M132.486 1224.91 L137.371 1224.91 L137.371 1230.79 L132.486 1230.79 L132.486 1224.91 Z" fill="#000000" fill-rule="nonzero" fill-opacity="1" /><path clip-path="url(#clip380)" d="M157.556 1199.31 Q153.945 1199.31 152.116 1202.87 Q150.31 1206.42 150.31 1213.55 Q150.31 1220.65 152.116 1224.22 Q153.945 1227.76 157.556 1227.76 Q161.19 1227.76 162.996 1224.22 Q164.824 1220.65 164.824 1213.55 Q164.824 1206.42 162.996 1202.87 Q161.19 1199.31 157.556 1199.31 M157.556 1195.61 Q163.366 1195.61 166.421 1200.21 Q169.5 1204.8 169.5 1213.55 Q169.5 1222.27 166.421 1226.88 Q163.366 1231.46 157.556 1231.46 Q151.746 1231.46 148.667 1226.88 Q145.611 1222.27 145.611 1213.55 Q145.611 1204.8 148.667 1200.21 Q151.746 1195.61 157.556 1195.61 Z" fill="#000000" fill-rule="nonzero" fill-opacity="1" /><path clip-path="url(#clip380)" d="M113.551 917.594 Q109.94 917.594 108.112 921.159 Q106.306 924.7 106.306 931.83 Q106.306 938.936 108.112 942.501 Q109.94 946.043 113.551 946.043 Q117.186 946.043 118.991 942.501 Q120.82 938.936 120.82 931.83 Q120.82 924.7 118.991 921.159 Q117.186 917.594 113.551 917.594 M113.551 913.89 Q119.362 913.89 122.417 918.497 Q125.496 923.08 125.496 931.83 Q125.496 940.557 122.417 945.163 Q119.362 949.747 113.551 949.747 Q107.741 949.747 104.663 945.163 Q101.607 940.557 101.607 931.83 Q101.607 923.08 104.663 918.497 Q107.741 913.89 113.551 913.89 Z" fill="#000000" fill-rule="nonzero" fill-opacity="1" /><path clip-path="url(#clip380)" d="M133.713 943.196 L138.598 943.196 L138.598 949.075 L133.713 949.075 L133.713 943.196 Z" fill="#000000" fill-rule="nonzero" fill-opacity="1" /><path clip-path="url(#clip380)" d="M149.593 945.14 L157.232 945.14 L157.232 918.775 L148.922 920.441 L148.922 916.182 L157.185 914.515 L161.861 914.515 L161.861 945.14 L169.5 945.14 L169.5 949.075 L149.593 949.075 L149.593 945.14 Z" fill="#000000" fill-rule="nonzero" fill-opacity="1" /><path clip-path="url(#clip380)" d="M113.922 635.879 Q110.311 635.879 108.482 639.443 Q106.676 642.985 106.676 650.115 Q106.676 657.221 108.482 660.786 Q110.311 664.328 113.922 664.328 Q117.556 664.328 119.362 660.786 Q121.19 657.221 121.19 650.115 Q121.19 642.985 119.362 639.443 Q117.556 635.879 113.922 635.879 M113.922 632.175 Q119.732 632.175 122.787 636.781 Q125.866 641.365 125.866 650.115 Q125.866 658.841 122.787 663.448 Q119.732 668.031 113.922 668.031 Q108.112 668.031 105.033 663.448 Q101.977 658.841 101.977 650.115 Q101.977 641.365 105.033 636.781 Q108.112 632.175 113.922 632.175 Z" fill="#000000" fill-rule="nonzero" fill-opacity="1" /><path clip-path="url(#clip380)" d="M134.084 661.48 L138.968 661.48 L138.968 667.36 L134.084 667.36 L134.084 661.48 Z" fill="#000000" fill-rule="nonzero" fill-opacity="1" /><path clip-path="url(#clip380)" d="M153.181 663.425 L169.5 663.425 L169.5 667.36 L147.556 667.36 L147.556 663.425 Q150.218 660.67 154.801 656.041 Q159.408 651.388 160.588 650.045 Q162.834 647.522 163.713 645.786 Q164.616 644.027 164.616 642.337 Q164.616 639.582 162.671 637.846 Q160.75 636.11 157.648 636.11 Q155.449 636.11 152.996 636.874 Q150.565 637.638 147.787 639.189 L147.787 634.467 Q150.611 633.332 153.065 632.754 Q155.519 632.175 157.556 632.175 Q162.926 632.175 166.121 634.86 Q169.315 637.545 169.315 642.036 Q169.315 644.166 168.505 646.087 Q167.718 647.985 165.611 650.578 Q165.033 651.249 161.931 654.466 Q158.829 657.661 153.181 663.425 Z" fill="#000000" fill-rule="nonzero" fill-opacity="1" /><path clip-path="url(#clip380)" d="M112.973 354.163 Q109.362 354.163 107.533 357.728 Q105.727 361.27 105.727 368.399 Q105.727 375.506 107.533 379.07 Q109.362 382.612 112.973 382.612 Q116.607 382.612 118.412 379.07 Q120.241 375.506 120.241 368.399 Q120.241 361.27 118.412 357.728 Q116.607 354.163 112.973 354.163 M112.973 350.459 Q118.783 350.459 121.838 355.066 Q124.917 359.649 124.917 368.399 Q124.917 377.126 121.838 381.732 Q118.783 386.316 112.973 386.316 Q107.163 386.316 104.084 381.732 Q101.028 377.126 101.028 368.399 Q101.028 359.649 104.084 355.066 Q107.163 350.459 112.973 350.459 Z" fill="#000000" fill-rule="nonzero" fill-opacity="1" /><path clip-path="url(#clip380)" d="M133.135 379.765 L138.019 379.765 L138.019 385.644 L133.135 385.644 L133.135 379.765 Z" fill="#000000" fill-rule="nonzero" fill-opacity="1" /><path clip-path="url(#clip380)" d="M162.371 367.01 Q165.727 367.728 167.602 369.996 Q169.5 372.265 169.5 375.598 Q169.5 380.714 165.982 383.515 Q162.463 386.316 155.982 386.316 Q153.806 386.316 151.491 385.876 Q149.199 385.459 146.746 384.603 L146.746 380.089 Q148.69 381.223 151.005 381.802 Q153.32 382.381 155.843 382.381 Q160.241 382.381 162.533 380.644 Q164.847 378.908 164.847 375.598 Q164.847 372.543 162.695 370.83 Q160.565 369.094 156.746 369.094 L152.718 369.094 L152.718 365.251 L156.931 365.251 Q160.38 365.251 162.209 363.885 Q164.037 362.496 164.037 359.904 Q164.037 357.242 162.139 355.83 Q160.264 354.395 156.746 354.395 Q154.824 354.395 152.625 354.811 Q150.426 355.228 147.787 356.108 L147.787 351.941 Q150.449 351.2 152.764 350.83 Q155.102 350.459 157.162 350.459 Q162.486 350.459 165.588 352.89 Q168.69 355.297 168.69 359.418 Q168.69 362.288 167.046 364.279 Q165.403 366.246 162.371 367.01 Z" fill="#000000" fill-rule="nonzero" fill-opacity="1" /><path clip-path="url(#clip380)" d="M-1.83624 896.34 L4.43398 896.34 Q2.68341 900.001 1.82404 903.247 Q0.964667 906.494 0.964667 909.518 Q0.964667 914.769 3.00169 917.634 Q5.03872 920.467 8.79449 920.467 Q11.9455 920.467 13.5688 918.589 Q15.1602 916.679 16.1469 911.395 L16.9426 907.512 Q18.3112 900.319 21.7805 896.913 Q25.218 893.476 31.0108 893.476 Q37.9176 893.476 41.4824 898.123 Q45.0472 902.738 45.0472 911.682 Q45.0472 915.056 44.2833 918.875 Q43.5194 922.663 42.0235 926.737 L35.4031 926.737 Q37.5993 922.822 38.7133 919.066 Q39.8273 915.31 39.8273 911.682 Q39.8273 906.176 37.663 903.184 Q35.4986 900.192 31.4882 900.192 Q27.9871 900.192 26.0137 902.356 Q24.0404 904.489 23.0537 909.39 L22.2898 913.305 Q20.8575 920.498 17.802 923.713 Q14.7464 926.928 9.30374 926.928 Q3.00169 926.928 -0.62676 922.504 Q-4.25521 918.048 -4.25521 910.25 Q-4.25521 906.908 -3.65047 903.438 Q-3.04573 899.969 -1.83624 896.34 Z" fill="#000000" fill-rule="nonzero" fill-opacity="1" /><path clip-path="url(#clip380)" d="M24.8361 853.213 L27.7006 853.213 L27.7006 880.14 Q33.7481 879.758 36.9309 876.511 Q40.0819 873.233 40.0819 867.408 Q40.0819 864.035 39.2544 860.884 Q38.4269 857.701 36.7718 854.581 L42.3099 854.581 Q43.6467 857.732 44.347 861.043 Q45.0472 864.353 45.0472 867.758 Q45.0472 876.289 40.0819 881.286 Q35.1167 886.251 26.6503 886.251 Q17.8974 886.251 12.7731 881.54 Q7.61683 876.798 7.61683 868.777 Q7.61683 861.584 12.2638 857.414 Q16.8789 853.213 24.8361 853.213 M23.1173 859.069 Q18.3112 859.133 15.4466 861.775 Q12.5821 864.385 12.5821 868.713 Q12.5821 873.615 15.3512 876.575 Q18.1202 879.503 23.1492 879.949 L23.1173 859.069 Z" fill="#000000" fill-rule="nonzero" fill-opacity="1" /><path clip-path="url(#clip380)" d="M13.9507 822.944 Q13.3778 823.931 13.1232 825.108 Q12.8367 826.254 12.8367 827.655 Q12.8367 832.62 16.0832 835.293 Q19.2979 837.935 25.3453 837.935 L44.1242 837.935 L44.1242 843.823 L8.4762 843.823 L8.4762 837.935 L14.0144 837.935 Q10.7679 836.089 9.20826 833.129 Q7.61683 830.169 7.61683 825.936 Q7.61683 825.331 7.71232 824.599 Q7.77597 823.867 7.93512 822.976 L13.9507 822.944 Z" fill="#000000" fill-rule="nonzero" fill-opacity="1" /><path clip-path="url(#clip380)" d="M12.5821 804.42 Q12.5821 809.13 16.2742 811.868 Q19.9345 814.605 26.332 814.605 Q32.7295 814.605 36.4217 811.899 Q40.0819 809.162 40.0819 804.42 Q40.0819 799.741 36.3898 797.004 Q32.6977 794.266 26.332 794.266 Q19.9981 794.266 16.306 797.004 Q12.5821 799.741 12.5821 804.42 M7.61683 804.42 Q7.61683 796.781 12.5821 792.42 Q17.5473 788.06 26.332 788.06 Q35.0849 788.06 40.0819 792.42 Q45.0472 796.781 45.0472 804.42 Q45.0472 812.09 40.0819 816.451 Q35.0849 820.78 26.332 820.78 Q17.5473 820.78 12.5821 816.451 Q7.61683 812.09 7.61683 804.42 Z" fill="#000000" fill-rule="nonzero" fill-opacity="1" /><path clip-path="url(#clip380)" d="M38.777 772.687 L57.6831 772.687 L57.6831 778.575 L8.4762 778.575 L8.4762 772.687 L13.8871 772.687 Q10.7042 770.841 9.17643 768.04 Q7.61683 765.207 7.61683 761.292 Q7.61683 754.799 12.7731 750.757 Q17.9293 746.683 26.332 746.683 Q34.7347 746.683 39.891 750.757 Q45.0472 754.799 45.0472 761.292 Q45.0472 765.207 43.5194 768.04 Q41.9598 770.841 38.777 772.687 M26.332 752.762 Q19.8708 752.762 16.2105 755.436 Q12.5184 758.077 12.5184 762.724 Q12.5184 767.371 16.2105 770.045 Q19.8708 772.687 26.332 772.687 Q32.7932 772.687 36.4853 770.045 Q40.1456 767.371 40.1456 762.724 Q40.1456 758.077 36.4853 755.436 Q32.7932 752.762 26.332 752.762 Z" fill="#000000" fill-rule="nonzero" fill-opacity="1" /><path clip-path="url(#clip380)" d="M13.9507 716.318 Q13.3778 717.305 13.1232 718.483 Q12.8367 719.628 12.8367 721.029 Q12.8367 725.994 16.0832 728.668 Q19.2979 731.31 25.3453 731.31 L44.1242 731.31 L44.1242 737.198 L8.4762 737.198 L8.4762 731.31 L14.0144 731.31 Q10.7679 729.463 9.20826 726.503 Q7.61683 723.543 7.61683 719.31 Q7.61683 718.705 7.71232 717.973 Q7.77597 717.241 7.93512 716.35 L13.9507 716.318 Z" fill="#000000" fill-rule="nonzero" fill-opacity="1" /><path clip-path="url(#clip380)" d="M24.8361 681.116 L27.7006 681.116 L27.7006 708.043 Q33.7481 707.661 36.9309 704.414 Q40.0819 701.136 40.0819 695.311 Q40.0819 691.938 39.2544 688.787 Q38.4269 685.604 36.7718 682.485 L42.3099 682.485 Q43.6467 685.636 44.347 688.946 Q45.0472 692.256 45.0472 695.662 Q45.0472 704.192 40.0819 709.189 Q35.1167 714.154 26.6503 714.154 Q17.8974 714.154 12.7731 709.443 Q7.61683 704.701 7.61683 696.68 Q7.61683 689.487 12.2638 685.317 Q16.8789 681.116 24.8361 681.116 M23.1173 686.972 Q18.3112 687.036 15.4466 689.678 Q12.5821 692.288 12.5821 696.616 Q12.5821 701.518 15.3512 704.478 Q18.1202 707.406 23.1492 707.852 L23.1173 686.972 Z" fill="#000000" fill-rule="nonzero" fill-opacity="1" /><path clip-path="url(#clip380)" d="M8.4762 675.705 L8.4762 669.499 L38.395 658.359 L8.4762 647.219 L8.4762 641.012 L44.1242 654.38 L44.1242 662.337 L8.4762 675.705 Z" fill="#000000" fill-rule="nonzero" fill-opacity="1" /><path clip-path="url(#clip380)" d="M26.2047 616.727 Q26.2047 623.825 27.8279 626.562 Q29.4512 629.299 33.3661 629.299 Q36.4853 629.299 38.3314 627.262 Q40.1456 625.193 40.1456 621.66 Q40.1456 616.79 36.7081 613.862 Q33.2388 610.902 27.5097 610.902 L26.2047 610.902 L26.2047 616.727 M23.7857 605.046 L44.1242 605.046 L44.1242 610.902 L38.7133 610.902 Q41.9598 612.907 43.5194 615.899 Q45.0472 618.891 45.0472 623.22 Q45.0472 628.694 41.9916 631.941 Q38.9043 635.156 33.7481 635.156 Q27.7325 635.156 24.6769 631.145 Q21.6214 627.103 21.6214 619.114 L21.6214 610.902 L21.0485 610.902 Q17.0062 610.902 14.8101 613.576 Q12.5821 616.218 12.5821 621.024 Q12.5821 624.079 13.3141 626.976 Q14.0462 629.872 15.5103 632.546 L10.0995 632.546 Q8.85814 629.331 8.2534 626.307 Q7.61683 623.284 7.61683 620.419 Q7.61683 612.685 11.6272 608.865 Q15.6376 605.046 23.7857 605.046 Z" fill="#000000" fill-rule="nonzero" fill-opacity="1" /><path clip-path="url(#clip380)" d="M-5.40104 592.983 L-5.40104 587.126 L44.1242 587.126 L44.1242 592.983 L-5.40104 592.983 Z" fill="#000000" fill-rule="nonzero" fill-opacity="1" /><path clip-path="url(#clip380)" d="M24.8361 544.381 L27.7006 544.381 L27.7006 571.308 Q33.7481 570.926 36.9309 567.679 Q40.0819 564.401 40.0819 558.576 Q40.0819 555.202 39.2544 552.051 Q38.4269 548.868 36.7718 545.749 L42.3099 545.749 Q43.6467 548.9 44.347 552.21 Q45.0472 555.521 45.0472 558.926 Q45.0472 567.456 40.0819 572.453 Q35.1167 577.419 26.6503 577.419 Q17.8974 577.419 12.7731 572.708 Q7.61683 567.966 7.61683 559.945 Q7.61683 552.751 12.2638 548.582 Q16.8789 544.381 24.8361 544.381 M23.1173 550.237 Q18.3112 550.301 15.4466 552.942 Q12.5821 555.552 12.5821 559.881 Q12.5821 564.783 15.3512 567.743 Q18.1202 570.671 23.1492 571.117 L23.1173 550.237 Z" fill="#000000" fill-rule="nonzero" fill-opacity="1" /><path clip-path="url(#clip380)" d="M22.6081 505.136 L44.1242 505.136 L44.1242 510.992 L22.799 510.992 Q17.7383 510.992 15.2238 512.966 Q12.7094 514.939 12.7094 518.886 Q12.7094 523.628 15.7331 526.366 Q18.7568 529.103 23.9767 529.103 L44.1242 529.103 L44.1242 534.991 L8.4762 534.991 L8.4762 529.103 L14.0144 529.103 Q10.7997 527.002 9.20826 524.169 Q7.61683 521.305 7.61683 517.581 Q7.61683 511.438 11.4363 508.287 Q15.2238 505.136 22.6081 505.136 Z" fill="#000000" fill-rule="nonzero" fill-opacity="1" /><path clip-path="url(#clip380)" d="M9.84483 467.801 L15.3193 467.801 Q13.9507 470.284 13.2823 472.798 Q12.5821 475.281 12.5821 477.827 Q12.5821 483.524 16.2105 486.675 Q19.8072 489.826 26.332 489.826 Q32.8569 489.826 36.4853 486.675 Q40.0819 483.524 40.0819 477.827 Q40.0819 475.281 39.4135 472.798 Q38.7133 470.284 37.3447 467.801 L42.7555 467.801 Q43.9014 470.252 44.4743 472.894 Q45.0472 475.504 45.0472 478.464 Q45.0472 486.516 39.9864 491.259 Q34.9257 496.001 26.332 496.001 Q17.611 496.001 12.6139 491.227 Q7.61683 486.421 7.61683 478.082 Q7.61683 475.376 8.18974 472.798 Q8.73083 470.22 9.84483 467.801 Z" fill="#000000" fill-rule="nonzero" fill-opacity="1" /><path clip-path="url(#clip380)" d="M24.8361 427.124 L27.7006 427.124 L27.7006 454.051 Q33.7481 453.669 36.9309 450.423 Q40.0819 447.144 40.0819 441.32 Q40.0819 437.946 39.2544 434.795 Q38.4269 431.612 36.7718 428.493 L42.3099 428.493 Q43.6467 431.644 44.347 434.954 Q45.0472 438.264 45.0472 441.67 Q45.0472 450.2 40.0819 455.197 Q35.1167 460.162 26.6503 460.162 Q17.8974 460.162 12.7731 455.452 Q7.61683 450.709 7.61683 442.688 Q7.61683 435.495 12.2638 431.326 Q16.8789 427.124 24.8361 427.124 M23.1173 432.981 Q18.3112 433.044 15.4466 435.686 Q12.5821 438.296 12.5821 442.625 Q12.5821 447.526 15.3512 450.486 Q18.1202 453.415 23.1492 453.86 L23.1173 432.981 Z" fill="#000000" fill-rule="nonzero" fill-opacity="1" /><path clip-path="url(#clip380)" d="M744.56 16.7545 L744.56 25.383 Q740.428 21.5346 735.729 19.6307 Q731.07 17.7268 725.804 17.7268 Q715.434 17.7268 709.924 24.0867 Q704.415 30.4061 704.415 42.3968 Q704.415 54.3469 709.924 60.7069 Q715.434 67.0263 725.804 67.0263 Q731.07 67.0263 735.729 65.1223 Q740.428 63.2184 744.56 59.3701 L744.56 67.9175 Q740.266 70.8341 735.445 72.2924 Q730.665 73.7508 725.318 73.7508 Q711.585 73.7508 703.686 65.3654 Q695.787 56.9395 695.787 42.3968 Q695.787 27.8135 703.686 19.4281 Q711.585 11.0023 725.318 11.0023 Q730.746 11.0023 735.526 12.4606 Q740.347 13.8784 744.56 16.7545 Z" fill="#000000" fill-rule="nonzero" fill-opacity="1" /><path clip-path="url(#clip380)" d="M756.105 54.671 L756.105 27.2059 L763.558 27.2059 L763.558 54.3874 Q763.558 60.8284 766.07 64.0691 Q768.582 67.2693 773.605 67.2693 Q779.64 67.2693 783.124 63.421 Q786.649 59.5726 786.649 52.9291 L786.649 27.2059 L794.102 27.2059 L794.102 72.576 L786.649 72.576 L786.649 65.6084 Q783.934 69.7404 780.329 71.7658 Q776.764 73.7508 772.025 73.7508 Q764.207 73.7508 760.156 68.8897 Q756.105 64.0286 756.105 54.671 M774.86 26.1121 L774.86 26.1121 Z" fill="#000000" fill-rule="nonzero" fill-opacity="1" /><path clip-path="url(#clip380)" d="M844.779 35.9153 Q847.574 30.8922 851.463 28.5022 Q855.352 26.1121 860.618 26.1121 Q867.707 26.1121 871.555 31.0947 Q875.404 36.0368 875.404 45.1919 L875.404 72.576 L867.91 72.576 L867.91 45.4349 Q867.91 38.913 865.601 35.7533 Q863.292 32.5936 858.552 32.5936 Q852.759 32.5936 849.397 36.4419 Q846.035 40.2903 846.035 46.9338 L846.035 72.576 L838.541 72.576 L838.541 45.4349 Q838.541 38.8725 836.232 35.7533 Q833.923 32.5936 829.102 32.5936 Q823.39 32.5936 820.028 36.4824 Q816.666 40.3308 816.666 46.9338 L816.666 72.576 L809.172 72.576 L809.172 27.2059 L816.666 27.2059 L816.666 34.2544 Q819.218 30.082 822.783 28.0971 Q826.347 26.1121 831.249 26.1121 Q836.191 26.1121 839.634 28.6237 Q843.118 31.1352 844.779 35.9153 Z" fill="#000000" fill-rule="nonzero" fill-opacity="1" /><path clip-path="url(#clip380)" d="M889.501 54.671 L889.501 27.2059 L896.955 27.2059 L896.955 54.3874 Q896.955 60.8284 899.466 64.0691 Q901.978 67.2693 907.001 67.2693 Q913.037 67.2693 916.521 63.421 Q920.045 59.5726 920.045 52.9291 L920.045 27.2059 L927.498 27.2059 L927.498 72.576 L920.045 72.576 L920.045 65.6084 Q917.331 69.7404 913.725 71.7658 Q910.161 73.7508 905.421 73.7508 Q897.603 73.7508 893.552 68.8897 Q889.501 64.0286 889.501 54.671 M908.257 26.1121 L908.257 26.1121 Z" fill="#000000" fill-rule="nonzero" fill-opacity="1" /><path clip-path="url(#clip380)" d="M942.851 9.54393 L950.305 9.54393 L950.305 72.576 L942.851 72.576 L942.851 9.54393 Z" fill="#000000" fill-rule="nonzero" fill-opacity="1" /><path clip-path="url(#clip380)" d="M986.52 49.7694 Q977.487 49.7694 974.003 51.8354 Q970.519 53.9013 970.519 58.8839 Q970.519 62.8538 973.112 65.2034 Q975.745 67.5124 980.241 67.5124 Q986.439 67.5124 990.166 63.1374 Q993.933 58.7219 993.933 51.4303 L993.933 49.7694 L986.52 49.7694 M1001.39 46.6907 L1001.39 72.576 L993.933 72.576 L993.933 65.6895 Q991.381 69.8214 987.573 71.8063 Q983.766 73.7508 978.256 73.7508 Q971.289 73.7508 967.157 69.8619 Q963.065 65.9325 963.065 59.3701 Q963.065 51.7138 968.17 47.825 Q973.314 43.9361 983.482 43.9361 L993.933 43.9361 L993.933 43.2069 Q993.933 38.0623 990.531 35.2672 Q987.168 32.4315 981.051 32.4315 Q977.163 32.4315 973.476 33.3632 Q969.79 34.295 966.387 36.1584 L966.387 29.2718 Q970.479 27.692 974.327 26.9223 Q978.175 26.1121 981.821 26.1121 Q991.665 26.1121 996.526 31.2163 Q1001.39 36.3204 1001.39 46.6907 Z" fill="#000000" fill-rule="nonzero" fill-opacity="1" /><path clip-path="url(#clip380)" d="M1024.11 14.324 L1024.11 27.2059 L1039.47 27.2059 L1039.47 32.9987 L1024.11 32.9987 L1024.11 57.6282 Q1024.11 63.1779 1025.61 64.7578 Q1027.15 66.3376 1031.81 66.3376 L1039.47 66.3376 L1039.47 72.576 L1031.81 72.576 Q1023.18 72.576 1019.9 69.3758 Q1016.62 66.1351 1016.62 57.6282 L1016.62 32.9987 L1011.15 32.9987 L1011.15 27.2059 L1016.62 27.2059 L1016.62 14.324 L1024.11 14.324 Z" fill="#000000" fill-rule="nonzero" fill-opacity="1" /><path clip-path="url(#clip380)" d="M1049.27 27.2059 L1056.72 27.2059 L1056.72 72.576 L1049.27 72.576 L1049.27 27.2059 M1049.27 9.54393 L1056.72 9.54393 L1056.72 18.9825 L1049.27 18.9825 L1049.27 9.54393 Z" fill="#000000" fill-rule="nonzero" fill-opacity="1" /><path clip-path="url(#clip380)" d="M1066.97 27.2059 L1074.87 27.2059 L1089.05 65.2844 L1103.23 27.2059 L1111.13 27.2059 L1094.11 72.576 L1083.98 72.576 L1066.97 27.2059 Z" fill="#000000" fill-rule="nonzero" fill-opacity="1" /><path clip-path="url(#clip380)" d="M1160.22 48.0275 L1160.22 51.6733 L1125.95 51.6733 Q1126.44 59.3701 1130.57 63.421 Q1134.74 67.4314 1142.16 67.4314 Q1146.45 67.4314 1150.46 66.3781 Q1154.51 65.3249 1158.48 63.2184 L1158.48 70.267 Q1154.47 71.9684 1150.26 72.8596 Q1146.04 73.7508 1141.71 73.7508 Q1130.85 73.7508 1124.49 67.4314 Q1118.17 61.1119 1118.17 50.3365 Q1118.17 39.1965 1124.17 32.6746 Q1130.21 26.1121 1140.41 26.1121 Q1149.57 26.1121 1154.88 32.0264 Q1160.22 37.9003 1160.22 48.0275 M1152.77 45.84 Q1152.69 39.7232 1149.33 36.0774 Q1146 32.4315 1140.5 32.4315 Q1134.26 32.4315 1130.49 35.9558 Q1126.76 39.4801 1126.2 45.8805 L1152.77 45.84 Z" fill="#000000" fill-rule="nonzero" fill-opacity="1" /><path clip-path="url(#clip380)" d="M1235.41 14.0809 L1235.41 22.0612 Q1230.75 19.8332 1226.62 18.7395 Q1222.49 17.6457 1218.64 17.6457 Q1211.95 17.6457 1208.31 20.2383 Q1204.7 22.8309 1204.7 27.611 Q1204.7 31.6214 1207.09 33.6873 Q1209.52 35.7128 1216.25 36.9686 L1221.19 37.9813 Q1230.34 39.7232 1234.68 44.1387 Q1239.05 48.5136 1239.05 55.8863 Q1239.05 64.6767 1233.14 69.2137 Q1227.27 73.7508 1215.88 73.7508 Q1211.59 73.7508 1206.73 72.7785 Q1201.91 71.8063 1196.72 69.9024 L1196.72 61.4765 Q1201.7 64.2716 1206.48 65.6895 Q1211.26 67.1073 1215.88 67.1073 Q1222.89 67.1073 1226.7 64.3527 Q1230.51 61.598 1230.51 56.4939 Q1230.51 52.0379 1227.75 49.5264 Q1225.04 47.0148 1218.8 45.759 L1213.82 44.7868 Q1204.66 42.9639 1200.57 39.075 Q1196.48 35.1862 1196.48 28.2591 Q1196.48 20.2383 1202.11 15.6203 Q1207.78 11.0023 1217.71 11.0023 Q1221.96 11.0023 1226.37 11.7719 Q1230.79 12.5416 1235.41 14.0809 Z" fill="#000000" fill-rule="nonzero" fill-opacity="1" /><path clip-path="url(#clip380)" d="M1290.3 48.0275 L1290.3 51.6733 L1256.03 51.6733 Q1256.51 59.3701 1260.64 63.421 Q1264.82 67.4314 1272.23 67.4314 Q1276.52 67.4314 1280.53 66.3781 Q1284.59 65.3249 1288.56 63.2184 L1288.56 70.267 Q1284.55 71.9684 1280.33 72.8596 Q1276.12 73.7508 1271.78 73.7508 Q1260.93 73.7508 1254.57 67.4314 Q1248.25 61.1119 1248.25 50.3365 Q1248.25 39.1965 1254.24 32.6746 Q1260.28 26.1121 1270.49 26.1121 Q1279.64 26.1121 1284.95 32.0264 Q1290.3 37.9003 1290.3 48.0275 M1282.84 45.84 Q1282.76 39.7232 1279.4 36.0774 Q1276.08 32.4315 1270.57 32.4315 Q1264.33 32.4315 1260.56 35.9558 Q1256.84 39.4801 1256.27 45.8805 L1282.84 45.84 Z" fill="#000000" fill-rule="nonzero" fill-opacity="1" /><path clip-path="url(#clip380)" d="M1328.82 34.1734 Q1327.57 33.4443 1326.07 33.1202 Q1324.61 32.7556 1322.83 32.7556 Q1316.51 32.7556 1313.1 36.8875 Q1309.74 40.9789 1309.74 48.6757 L1309.74 72.576 L1302.25 72.576 L1302.25 27.2059 L1309.74 27.2059 L1309.74 34.2544 Q1312.09 30.1225 1315.86 28.1376 Q1319.63 26.1121 1325.01 26.1121 Q1325.78 26.1121 1326.72 26.2337 Q1327.65 26.3147 1328.78 26.5172 L1328.82 34.1734 Z" fill="#000000" fill-rule="nonzero" fill-opacity="1" /><path clip-path="url(#clip380)" d="M1352.4 32.4315 Q1346.4 32.4315 1342.92 37.1306 Q1339.43 41.7891 1339.43 49.9314 Q1339.43 58.0738 1342.88 62.7728 Q1346.36 67.4314 1352.4 67.4314 Q1358.35 67.4314 1361.84 62.7323 Q1365.32 58.0333 1365.32 49.9314 Q1365.32 41.8701 1361.84 37.1711 Q1358.35 32.4315 1352.4 32.4315 M1352.4 26.1121 Q1362.12 26.1121 1367.67 32.4315 Q1373.22 38.7509 1373.22 49.9314 Q1373.22 61.0714 1367.67 67.4314 Q1362.12 73.7508 1352.4 73.7508 Q1342.64 73.7508 1337.09 67.4314 Q1331.58 61.0714 1331.58 49.9314 Q1331.58 38.7509 1337.09 32.4315 Q1342.64 26.1121 1352.4 26.1121 Z" fill="#000000" fill-rule="nonzero" fill-opacity="1" /><path clip-path="url(#clip380)" d="M1392.79 65.7705 L1392.79 89.8329 L1385.29 89.8329 L1385.29 27.2059 L1392.79 27.2059 L1392.79 34.0924 Q1395.13 30.0415 1398.7 28.0971 Q1402.3 26.1121 1407.29 26.1121 Q1415.55 26.1121 1420.7 32.6746 Q1425.88 39.2371 1425.88 49.9314 Q1425.88 60.6258 1420.7 67.1883 Q1415.55 73.7508 1407.29 73.7508 Q1402.3 73.7508 1398.7 71.8063 Q1395.13 69.8214 1392.79 65.7705 M1418.14 49.9314 Q1418.14 41.7081 1414.74 37.0496 Q1411.38 32.3505 1405.46 32.3505 Q1399.55 32.3505 1396.15 37.0496 Q1392.79 41.7081 1392.79 49.9314 Q1392.79 58.1548 1396.15 62.8538 Q1399.55 67.5124 1405.46 67.5124 Q1411.38 67.5124 1414.74 62.8538 Q1418.14 58.1548 1418.14 49.9314 Z" fill="#000000" fill-rule="nonzero" fill-opacity="1" /><path clip-path="url(#clip380)" d="M1464.53 34.1734 Q1463.27 33.4443 1461.77 33.1202 Q1460.31 32.7556 1458.53 32.7556 Q1452.21 32.7556 1448.81 36.8875 Q1445.45 40.9789 1445.45 48.6757 L1445.45 72.576 L1437.95 72.576 L1437.95 27.2059 L1445.45 27.2059 L1445.45 34.2544 Q1447.8 30.1225 1451.56 28.1376 Q1455.33 26.1121 1460.72 26.1121 Q1461.49 26.1121 1462.42 26.2337 Q1463.35 26.3147 1464.49 26.5172 L1464.53 34.1734 Z" fill="#000000" fill-rule="nonzero" fill-opacity="1" /><path clip-path="url(#clip380)" d="M1509.33 48.0275 L1509.33 51.6733 L1475.06 51.6733 Q1475.55 59.3701 1479.68 63.421 Q1483.85 67.4314 1491.26 67.4314 Q1495.56 67.4314 1499.57 66.3781 Q1503.62 65.3249 1507.59 63.2184 L1507.59 70.267 Q1503.58 71.9684 1499.36 72.8596 Q1495.15 73.7508 1490.82 73.7508 Q1479.96 73.7508 1473.6 67.4314 Q1467.28 61.1119 1467.28 50.3365 Q1467.28 39.1965 1473.28 32.6746 Q1479.31 26.1121 1489.52 26.1121 Q1498.68 26.1121 1503.98 32.0264 Q1509.33 37.9003 1509.33 48.0275 M1501.88 45.84 Q1501.8 39.7232 1498.43 36.0774 Q1495.11 32.4315 1489.6 32.4315 Q1483.36 32.4315 1479.6 35.9558 Q1475.87 39.4801 1475.3 45.8805 L1501.88 45.84 Z" fill="#000000" fill-rule="nonzero" fill-opacity="1" /><path clip-path="url(#clip380)" d="M1516.22 27.2059 L1524.12 27.2059 L1538.29 65.2844 L1552.47 27.2059 L1560.37 27.2059 L1543.36 72.576 L1533.23 72.576 L1516.22 27.2059 Z" fill="#000000" fill-rule="nonzero" fill-opacity="1" /><path clip-path="url(#clip380)" d="M1591.28 49.7694 Q1582.25 49.7694 1578.76 51.8354 Q1575.28 53.9013 1575.28 58.8839 Q1575.28 62.8538 1577.87 65.2034 Q1580.5 67.5124 1585 67.5124 Q1591.2 67.5124 1594.93 63.1374 Q1598.69 58.7219 1598.69 51.4303 L1598.69 49.7694 L1591.28 49.7694 M1606.15 46.6907 L1606.15 72.576 L1598.69 72.576 L1598.69 65.6895 Q1596.14 69.8214 1592.33 71.8063 Q1588.53 73.7508 1583.02 73.7508 Q1576.05 73.7508 1571.92 69.8619 Q1567.82 65.9325 1567.82 59.3701 Q1567.82 51.7138 1572.93 47.825 Q1578.07 43.9361 1588.24 43.9361 L1598.69 43.9361 L1598.69 43.2069 Q1598.69 38.0623 1595.29 35.2672 Q1591.93 32.4315 1585.81 32.4315 Q1581.92 32.4315 1578.24 33.3632 Q1574.55 34.295 1571.15 36.1584 L1571.15 29.2718 Q1575.24 27.692 1579.09 26.9223 Q1582.93 26.1121 1586.58 26.1121 Q1596.42 26.1121 1601.29 31.2163 Q1606.15 36.3204 1606.15 46.6907 Z" fill="#000000" fill-rule="nonzero" fill-opacity="1" /><path clip-path="url(#clip380)" d="M1621.5 9.54393 L1628.95 9.54393 L1628.95 72.576 L1621.5 72.576 L1621.5 9.54393 Z" fill="#000000" fill-rule="nonzero" fill-opacity="1" /><path clip-path="url(#clip380)" d="M1683.36 48.0275 L1683.36 51.6733 L1649.09 51.6733 Q1649.57 59.3701 1653.7 63.421 Q1657.88 67.4314 1665.29 67.4314 Q1669.58 67.4314 1673.59 66.3781 Q1677.64 65.3249 1681.61 63.2184 L1681.61 70.267 Q1677.6 71.9684 1673.39 72.8596 Q1669.18 73.7508 1664.84 73.7508 Q1653.99 73.7508 1647.63 67.4314 Q1641.31 61.1119 1641.31 50.3365 Q1641.31 39.1965 1647.3 32.6746 Q1653.34 26.1121 1663.55 26.1121 Q1672.7 26.1121 1678.01 32.0264 Q1683.36 37.9003 1683.36 48.0275 M1675.9 45.84 Q1675.82 39.7232 1672.46 36.0774 Q1669.14 32.4315 1663.63 32.4315 Q1657.39 32.4315 1653.62 35.9558 Q1649.9 39.4801 1649.33 45.8805 L1675.9 45.84 Z" fill="#000000" fill-rule="nonzero" fill-opacity="1" /><path clip-path="url(#clip380)" d="M1733.3 45.1919 L1733.3 72.576 L1725.85 72.576 L1725.85 45.4349 Q1725.85 38.994 1723.34 35.7938 Q1720.83 32.5936 1715.8 32.5936 Q1709.77 32.5936 1706.28 36.4419 Q1702.8 40.2903 1702.8 46.9338 L1702.8 72.576 L1695.31 72.576 L1695.31 27.2059 L1702.8 27.2059 L1702.8 34.2544 Q1705.47 30.163 1709.08 28.1376 Q1712.73 26.1121 1717.47 26.1121 Q1725.28 26.1121 1729.29 30.9732 Q1733.3 35.7938 1733.3 45.1919 Z" fill="#000000" fill-rule="nonzero" fill-opacity="1" /><path clip-path="url(#clip380)" d="M1780.82 28.9478 L1780.82 35.9153 Q1777.66 34.1734 1774.46 33.3227 Q1771.3 32.4315 1768.06 32.4315 Q1760.81 32.4315 1756.8 37.0496 Q1752.79 41.6271 1752.79 49.9314 Q1752.79 58.2358 1756.8 62.8538 Q1760.81 67.4314 1768.06 67.4314 Q1771.3 67.4314 1774.46 66.5807 Q1777.66 65.6895 1780.82 63.9476 L1780.82 70.8341 Q1777.7 72.2924 1774.34 73.0216 Q1771.02 73.7508 1767.25 73.7508 Q1757 73.7508 1750.97 67.3098 Q1744.93 60.8689 1744.93 49.9314 Q1744.93 38.832 1751.01 32.472 Q1757.12 26.1121 1767.74 26.1121 Q1771.18 26.1121 1774.46 26.8413 Q1777.74 27.5299 1780.82 28.9478 Z" fill="#000000" fill-rule="nonzero" fill-opacity="1" /><path clip-path="url(#clip380)" d="M1832.59 48.0275 L1832.59 51.6733 L1798.32 51.6733 Q1798.81 59.3701 1802.94 63.421 Q1807.11 67.4314 1814.52 67.4314 Q1818.82 67.4314 1822.83 66.3781 Q1826.88 65.3249 1830.85 63.2184 L1830.85 70.267 Q1826.84 71.9684 1822.63 72.8596 Q1818.41 73.7508 1814.08 73.7508 Q1803.22 73.7508 1796.86 67.4314 Q1790.54 61.1119 1790.54 50.3365 Q1790.54 39.1965 1796.54 32.6746 Q1802.57 26.1121 1812.78 26.1121 Q1821.94 26.1121 1827.24 32.0264 Q1832.59 37.9003 1832.59 48.0275 M1825.14 45.84 Q1825.06 39.7232 1821.7 36.0774 Q1818.37 32.4315 1812.86 32.4315 Q1806.63 32.4315 1802.86 35.9558 Q1799.13 39.4801 1798.56 45.8805 L1825.14 45.84 Z" fill="#000000" fill-rule="nonzero" fill-opacity="1" /><path clip-path="url(#clip380)" d="M1903.77 49.9314 Q1903.77 41.7081 1900.36 37.0496 Q1897 32.3505 1891.09 32.3505 Q1885.17 32.3505 1881.77 37.0496 Q1878.41 41.7081 1878.41 49.9314 Q1878.41 58.1548 1881.77 62.8538 Q1885.17 67.5124 1891.09 67.5124 Q1897 67.5124 1900.36 62.8538 Q1903.77 58.1548 1903.77 49.9314 M1878.41 34.0924 Q1880.76 30.0415 1884.32 28.0971 Q1887.93 26.1121 1892.91 26.1121 Q1901.17 26.1121 1906.32 32.6746 Q1911.5 39.2371 1911.5 49.9314 Q1911.5 60.6258 1906.32 67.1883 Q1901.17 73.7508 1892.91 73.7508 Q1887.93 73.7508 1884.32 71.8063 Q1880.76 69.8214 1878.41 65.7705 L1878.41 72.576 L1870.91 72.576 L1870.91 9.54393 L1878.41 9.54393 L1878.41 34.0924 Z" fill="#000000" fill-rule="nonzero" fill-opacity="1" /><path clip-path="url(#clip380)" d="M1942.74 76.7889 Q1939.58 84.8907 1936.58 87.3618 Q1933.58 89.8329 1928.56 89.8329 L1922.6 89.8329 L1922.6 83.5945 L1926.98 83.5945 Q1930.06 83.5945 1931.76 82.1361 Q1933.46 80.6778 1935.53 75.2496 L1936.86 71.8468 L1918.51 27.2059 L1926.41 27.2059 L1940.59 62.6918 L1954.77 27.2059 L1962.67 27.2059 L1942.74 76.7889 Z" fill="#000000" fill-rule="nonzero" fill-opacity="1" /><path clip-path="url(#clip380)" d="M2028.33 44.2197 Q2030.96 45.1109 2033.44 48.0275 Q2035.95 50.9442 2038.46 56.0483 L2046.76 72.576 L2037.97 72.576 L2030.24 57.061 Q2027.24 50.9847 2024.4 48.9997 Q2021.61 47.0148 2016.75 47.0148 L2007.83 47.0148 L2007.83 72.576 L1999.65 72.576 L1999.65 12.096 L2018.12 12.096 Q2028.49 12.096 2033.6 16.4305 Q2038.7 20.7649 2038.7 29.5149 Q2038.7 35.2267 2036.03 38.994 Q2033.4 42.7613 2028.33 44.2197 M2007.83 18.8205 L2007.83 40.2903 L2018.12 40.2903 Q2024.04 40.2903 2027.04 37.5762 Q2030.07 34.8216 2030.07 29.5149 Q2030.07 24.2082 2027.04 21.5346 Q2024.04 18.8205 2018.12 18.8205 L2007.83 18.8205 Z" fill="#000000" fill-rule="nonzero" fill-opacity="1" /><path clip-path="url(#clip380)" d="M2092.05 48.0275 L2092.05 51.6733 L2057.78 51.6733 Q2058.27 59.3701 2062.4 63.421 Q2066.57 67.4314 2073.99 67.4314 Q2078.28 67.4314 2082.29 66.3781 Q2086.34 65.3249 2090.31 63.2184 L2090.31 70.267 Q2086.3 71.9684 2082.09 72.8596 Q2077.87 73.7508 2073.54 73.7508 Q2062.68 73.7508 2056.32 67.4314 Q2050 61.1119 2050 50.3365 Q2050 39.1965 2056 32.6746 Q2062.04 26.1121 2072.24 26.1121 Q2081.4 26.1121 2086.71 32.0264 Q2092.05 37.9003 2092.05 48.0275 M2084.6 45.84 Q2084.52 39.7232 2081.16 36.0774 Q2077.83 32.4315 2072.32 32.4315 Q2066.09 32.4315 2062.32 35.9558 Q2058.59 39.4801 2058.02 45.8805 L2084.6 45.84 Z" fill="#000000" fill-rule="nonzero" fill-opacity="1" /><path clip-path="url(#clip380)" d="M2134.14 49.3643 Q2134.14 41.2625 2130.78 36.8065 Q2127.46 32.3505 2121.42 32.3505 Q2115.43 32.3505 2112.06 36.8065 Q2108.74 41.2625 2108.74 49.3643 Q2108.74 57.4256 2112.06 61.8816 Q2115.43 66.3376 2121.42 66.3376 Q2127.46 66.3376 2130.78 61.8816 Q2134.14 57.4256 2134.14 49.3643 M2141.59 66.9452 Q2141.59 78.5308 2136.45 84.1616 Q2131.31 89.8329 2120.69 89.8329 Q2116.76 89.8329 2113.28 89.2252 Q2109.8 88.6581 2106.51 87.4428 L2106.51 80.1917 Q2109.8 81.9741 2113 82.8248 Q2116.2 83.6755 2119.52 83.6755 Q2126.85 83.6755 2130.5 79.8271 Q2134.14 76.0193 2134.14 68.282 L2134.14 64.5957 Q2131.83 68.6061 2128.23 70.5911 Q2124.62 72.576 2119.6 72.576 Q2111.25 72.576 2106.15 66.2161 Q2101.05 59.8562 2101.05 49.3643 Q2101.05 38.832 2106.15 32.472 Q2111.25 26.1121 2119.6 26.1121 Q2124.62 26.1121 2128.23 28.0971 Q2131.83 30.082 2134.14 34.0924 L2134.14 27.2059 L2141.59 27.2059 L2141.59 66.9452 Z" fill="#000000" fill-rule="nonzero" fill-opacity="1" /><path clip-path="url(#clip380)" d="M2156.95 27.2059 L2164.4 27.2059 L2164.4 72.576 L2156.95 72.576 L2156.95 27.2059 M2156.95 9.54393 L2164.4 9.54393 L2164.4 18.9825 L2156.95 18.9825 L2156.95 9.54393 Z" fill="#000000" fill-rule="nonzero" fill-opacity="1" /><path clip-path="url(#clip380)" d="M2197.58 32.4315 Q2191.58 32.4315 2188.1 37.1306 Q2184.62 41.7891 2184.62 49.9314 Q2184.62 58.0738 2188.06 62.7728 Q2191.54 67.4314 2197.58 67.4314 Q2203.53 67.4314 2207.02 62.7323 Q2210.5 58.0333 2210.5 49.9314 Q2210.5 41.8701 2207.02 37.1711 Q2203.53 32.4315 2197.58 32.4315 M2197.58 26.1121 Q2207.3 26.1121 2212.85 32.4315 Q2218.4 38.7509 2218.4 49.9314 Q2218.4 61.0714 2212.85 67.4314 Q2207.3 73.7508 2197.58 73.7508 Q2187.82 73.7508 2182.27 67.4314 Q2176.76 61.0714 2176.76 49.9314 Q2176.76 38.7509 2182.27 32.4315 Q2187.82 26.1121 2197.58 26.1121 Z" fill="#000000" fill-rule="nonzero" fill-opacity="1" /><path clip-path="url(#clip380)" d="M2268.47 45.1919 L2268.47 72.576 L2261.02 72.576 L2261.02 45.4349 Q2261.02 38.994 2258.5 35.7938 Q2255.99 32.5936 2250.97 32.5936 Q2244.93 32.5936 2241.45 36.4419 Q2237.97 40.2903 2237.97 46.9338 L2237.97 72.576 L2230.47 72.576 L2230.47 27.2059 L2237.97 27.2059 L2237.97 34.2544 Q2240.64 30.163 2244.24 28.1376 Q2247.89 26.1121 2252.63 26.1121 Q2260.45 26.1121 2264.46 30.9732 Q2268.47 35.7938 2268.47 45.1919 Z" fill="#000000" fill-rule="nonzero" fill-opacity="1" /><polyline clip-path="url(#clip381)" style="stroke:#4682b4; stroke-linecap:round; stroke-linejoin:round; stroke-width:8; stroke-opacity:1; fill:none" points="283.422,1213.51 289.991,1213.48 296.559,1213.46 303.127,1213.43 309.695,1213.41 316.264,1213.37 322.832,1213.34 329.4,1213.29 335.968,1213.24 342.537,1213.19 349.105,1213.12 355.673,1213.04 362.241,1212.95 368.81,1212.85 375.378,1212.73 381.946,1212.59 388.514,1212.43 395.083,1212.25 401.651,1212.03 408.219,1211.79 414.787,1211.5 421.356,1211.17 427.924,1210.78 434.492,1210.33 441.06,1209.81 447.629,1209.22 454.197,1208.52 460.765,1207.72 467.333,1206.79 473.902,1205.71 480.47,1204.47 487.038,1203.04 493.606,1201.42 500.175,1199.58 506.743,1197.51 513.311,1195.19 519.879,1192.58 526.448,1189.68 533.016,1186.47 539.584,1182.91 546.152,1178.99 552.721,1174.69 559.289,1170.02 565.857,1164.96 572.425,1159.48 578.994,1153.58 585.562,1147.28 592.13,1140.58 598.698,1133.49 605.267,1125.99 611.835,1118.14 618.403,1109.97 624.971,1101.5 631.54,1092.75 638.108,1083.77 644.676,1074.62 651.244,1065.35 657.813,1056.01 664.381,1046.63 670.949,1037.29 677.517,1028 684.086,1018.74 690.654,1009.49 697.222,1000.21 703.79,990.954 710.359,981.724 716.927,972.546 723.495,963.447 730.063,954.457 736.632,945.582 743.2,936.836 749.768,928.234 756.336,919.795 762.905,911.531 769.473,903.454 776.041,895.576 782.609,887.908 789.178,880.459 795.746,873.237 802.314,866.25 808.882,859.501 815.451,852.998 822.019,846.743 828.587,840.74 835.155,834.988 841.724,829.486 848.292,824.237 854.86,819.236 861.428,814.481 867.997,809.981 874.565,805.715 881.133,801.632 887.701,797.666 894.27,793.814 900.838,790.07 907.406,786.428 913.974,782.889 920.543,779.453 927.111,776.108 933.679,772.848 940.247,769.667 946.816,766.562 953.384,763.528 959.952,760.56 966.52,757.655 973.089,754.809 979.657,752.017 986.225,749.273 992.793,746.575 999.362,743.922 1005.93,741.311 1012.5,738.739 1019.07,736.201 1025.63,733.691 1032.2,731.209 1038.77,728.755 1045.34,726.327 1051.91,723.921 1058.48,721.534 1065.04,719.158 1071.61,716.796 1078.18,714.454 1084.75,712.139 1091.32,709.849 1097.89,707.581 1104.45,705.329 1111.02,703.095 1117.59,700.883 1124.16,698.691 1130.73,696.517 1137.29,694.36 1143.86,692.215 1150.43,690.084 1157,687.97 1163.57,685.872 1170.14,683.789 1176.7,681.719 1183.27,679.658 1189.84,677.607 1196.41,675.569 1202.98,673.544 1209.55,671.532 1216.11,669.529 1222.68,667.532 1229.25,665.542 1235.82,663.56 1242.39,661.588 1248.96,659.626 1255.52,657.672 1262.09,655.723 1268.66,653.775 1275.23,651.831 1281.8,649.895 1288.36,647.966 1294.93,646.043 1301.5,644.123 1308.07,642.201 1314.64,640.28 1321.21,638.363 1327.77,636.451 1334.34,634.542 1340.91,632.633 1347.48,630.722 1354.05,628.808 1360.62,626.895 1367.18,624.984 1373.75,623.073 1380.32,621.161 1386.89,619.244 1393.46,617.322 1400.02,615.398 1406.59,613.473 1413.16,611.546 1419.73,609.615 1426.3,607.676 1432.87,605.73 1439.43,603.78 1446,601.825 1452.57,599.866 1459.14,597.901 1465.71,595.927 1472.28,593.942 1478.84,591.949 1485.41,589.951 1491.98,587.948 1498.55,585.938 1505.12,583.917 1511.69,581.883 1518.25,579.838 1524.82,577.785 1531.39,575.725 1537.96,573.655 1544.53,571.573 1551.09,569.476 1557.66,567.367 1564.23,565.248 1570.8,563.118 1577.37,560.976 1583.94,558.819 1590.5,556.645 1597.07,554.458 1603.64,552.258 1610.21,550.044 1616.78,547.817 1623.35,545.572 1629.91,543.308 1636.48,541.027 1643.05,538.732 1649.62,536.42 1656.19,534.093 1662.75,531.746 1669.32,529.378 1675.89,526.989 1682.46,524.581 1689.03,522.157 1695.6,519.714 1702.16,517.251 1708.73,514.763 1715.3,512.25 1721.87,509.716 1728.44,507.162 1735.01,504.587 1741.57,501.991 1748.14,499.368 1754.71,496.715 1761.28,494.037 1767.85,491.337 1774.42,488.614 1780.98,485.866 1787.55,483.09 1794.12,480.281 1800.69,477.444 1807.26,474.581 1813.82,471.693 1820.39,468.776 1826.96,465.828 1833.53,462.846 1840.1,459.832 1846.67,456.789 1853.23,453.718 1859.8,450.616 1866.37,447.479 1872.94,444.304 1879.51,441.096 1886.08,437.856 1892.64,434.584 1899.21,431.279 1905.78,427.936 1912.35,424.552 1918.92,421.129 1925.48,417.675 1932.05,414.195 1938.62,410.691 1945.19,407.162 1951.76,403.604 1958.33,400.022 1964.89,396.421 1971.46,392.807 1978.03,389.18 1984.6,385.536 1991.17,381.871 1997.74,378.192 2004.3,374.505 2010.87,370.813 2017.44,367.115 2024.01,363.411 2030.58,359.698 2037.15,355.984 2043.71,352.271 2050.28,348.562 2056.85,344.858 2063.42,341.156 2069.99,337.458 2076.55,333.77 2083.12,330.093 2089.69,326.429 2096.26,322.78 2102.83,319.144 2109.4,315.522 2115.96,311.918 2122.53,308.336 2129.1,304.777 2135.67,301.242 2142.24,297.73 2148.81,294.241 2155.37,290.777 2161.94,287.342 2168.51,283.94 2175.08,280.57 2181.65,277.233 2188.21,273.925 2194.78,270.649 2201.35,267.409 2207.92,264.206 2214.49,261.043 2221.06,257.92 2227.62,254.834 2234.19,251.784 2240.76,248.773 2247.33,245.805 2253.9,242.881 2260.47,240 2267.03,237.162 2273.6,234.364 2280.17,231.609 2286.74,228.899 2293.31,226.234 2299.88,223.616 2306.44,221.043 2313.01,218.512 2319.58,216.026 2326.15,213.586 2332.72,211.192 2339.28,208.844 2345.85,206.542 2352.42,204.285 2358.99,202.071 2365.56,199.903 2372.13,197.78 2378.69,195.703 2385.26,193.671 2391.83,191.683 2398.4,189.737 2404.97,187.835 2411.54,185.977 2418.1,184.161 2424.67,182.389 2431.24,180.659 2437.81,178.97 2444.38,177.321 2450.94,175.714 2457.51,174.146 2464.08,172.619 2470.65,171.131 2477.22,169.681 2483.79,168.269 2490.35,166.894 2496.92,165.556 2503.49,164.255 2510.06,162.989 2516.63,161.758 2523.2,160.561 2529.76,159.399 2536.33,158.269 2542.9,157.172 2549.47,156.107 2556.04,155.073 2562.61,154.07 2569.17,153.097 2575.74,152.153 2582.31,151.238 2588.88,150.35 2595.45,149.491 2602.01,148.658 2608.58,147.852 2615.15,147.071 2621.72,146.316 2628.29,145.584 2634.86,144.876 2641.42,144.192 2647.99,143.53 2654.56,142.891 2661.13,142.273 2667.7,141.675 2674.27,141.098 2680.83,140.541 "/>
<polyline clip-path="url(#clip381)" style="stroke:#ffa500; stroke-linecap:round; stroke-linejoin:round; stroke-width:8; stroke-opacity:1; fill:none" points="283.422,1213.51 289.991,1213.51 296.559,1213.51 303.127,1213.51 309.695,1213.5 316.264,1213.5 322.832,1213.5 329.4,1213.5 335.968,1213.5 342.537,1213.5 349.105,1213.49 355.673,1213.49 362.241,1213.49 368.81,1213.49 375.378,1213.49 381.946,1213.48 388.514,1213.48 395.083,1213.48 401.651,1213.47 408.219,1213.47 414.787,1213.46 421.356,1213.46 427.924,1213.45 434.492,1213.44 441.06,1213.44 447.629,1213.43 454.197,1213.42 460.765,1213.41 467.333,1213.39 473.902,1213.38 480.47,1213.36 487.038,1213.34 493.606,1213.31 500.175,1213.29 506.743,1213.25 513.311,1213.22 519.879,1213.18 526.448,1213.13 533.016,1213.07 539.584,1213 546.152,1212.93 552.721,1212.84 559.289,1212.74 565.857,1212.63 572.425,1212.5 578.994,1212.35 585.562,1212.18 592.13,1211.99 598.698,1211.77 605.267,1211.51 611.835,1211.23 618.403,1210.91 624.971,1210.54 631.54,1210.13 638.108,1209.66 644.676,1209.13 651.244,1208.53 657.813,1207.86 664.381,1207.1 670.949,1206.25 677.517,1205.3 684.086,1204.24 690.654,1203.07 697.222,1201.79 703.79,1200.4 710.359,1198.88 716.927,1197.25 723.495,1195.48 730.063,1193.58 736.632,1191.54 743.2,1189.38 749.768,1187.08 756.336,1184.65 762.905,1182.08 769.473,1179.4 776.041,1176.6 782.609,1173.69 789.178,1170.67 795.746,1167.56 802.314,1164.37 808.882,1161.11 815.451,1157.79 822.019,1154.42 828.587,1151.02 835.155,1147.61 841.724,1144.21 848.292,1140.82 854.86,1137.46 861.428,1134.15 867.997,1130.91 874.565,1127.75 881.133,1124.64 887.701,1121.53 894.27,1118.44 900.838,1115.37 907.406,1112.31 913.974,1109.29 920.543,1106.3 927.111,1103.34 933.679,1100.4 940.247,1097.5 946.816,1094.64 953.384,1091.81 959.952,1089.02 966.52,1086.26 973.089,1083.54 979.657,1080.87 986.225,1078.23 992.793,1075.63 999.362,1073.08 1005.93,1070.57 1012.5,1068.1 1019.07,1065.67 1025.63,1063.29 1032.2,1060.95 1038.77,1058.66 1045.34,1056.41 1051.91,1054.21 1058.48,1052.05 1065.04,1049.94 1071.61,1047.88 1078.18,1045.86 1084.75,1043.86 1091.32,1041.88 1097.89,1039.94 1104.45,1038.01 1111.02,1036.11 1117.59,1034.24 1124.16,1032.38 1130.73,1030.55 1137.29,1028.73 1143.86,1026.93 1150.43,1025.15 1157,1023.39 1163.57,1021.63 1170.14,1019.9 1176.7,1018.17 1183.27,1016.46 1189.84,1014.76 1196.41,1013.07 1202.98,1011.39 1209.55,1009.71 1216.11,1008.04 1222.68,1006.38 1229.25,1004.73 1235.82,1003.08 1242.39,1001.43 1248.96,999.787 1255.52,998.145 1262.09,996.504 1268.66,994.864 1275.23,993.223 1281.8,991.582 1288.36,989.938 1294.93,988.292 1301.5,986.643 1308.07,984.989 1314.64,983.33 1321.21,981.665 1327.77,979.994 1334.34,978.315 1340.91,976.628 1347.48,974.931 1354.05,973.224 1360.62,971.507 1367.18,969.778 1373.75,968.036 1380.32,966.281 1386.89,964.511 1393.46,962.726 1400.02,960.925 1406.59,959.107 1413.16,957.271 1419.73,955.415 1426.3,953.54 1432.87,951.643 1439.43,949.723 1446,947.781 1452.57,945.814 1459.14,943.822 1465.71,941.803 1472.28,939.756 1478.84,937.684 1485.41,935.587 1491.98,933.465 1498.55,931.316 1505.12,929.137 1511.69,926.924 1518.25,924.681 1524.82,922.409 1531.39,920.106 1537.96,917.772 1544.53,915.403 1551.09,912.997 1557.66,910.555 1564.23,908.078 1570.8,905.565 1577.37,903.016 1583.94,900.425 1590.5,897.793 1597.07,895.119 1603.64,892.404 1610.21,889.648 1616.78,886.849 1623.35,884.003 1629.91,881.108 1636.48,878.166 1643.05,875.176 1649.62,872.139 1656.19,869.052 1662.75,865.913 1669.32,862.716 1675.89,859.464 1682.46,856.158 1689.03,852.797 1695.6,849.381 1702.16,845.905 1708.73,842.365 1715.3,838.759 1721.87,835.09 1728.44,831.36 1735.01,827.568 1741.57,823.709 1748.14,819.779 1754.71,815.772 1761.28,811.694 1767.85,807.546 1774.42,803.328 1780.98,799.037 1787.55,794.665 1794.12,790.208 1800.69,785.671 1807.26,781.056 1813.82,776.362 1820.39,771.586 1826.96,766.721 1833.53,761.763 1840.1,756.717 1846.67,751.584 1853.23,746.364 1859.8,741.055 1866.37,735.648 1872.94,730.141 1879.51,724.536 1886.08,718.838 1892.64,713.046 1899.21,707.157 1905.78,701.166 1912.35,695.063 1918.92,688.852 1925.48,682.549 1932.05,676.165 1938.62,669.703 1945.19,663.162 1951.76,656.535 1958.33,649.83 1964.89,643.063 1971.46,636.243 1978.03,629.371 1984.6,622.442 1991.17,615.447 1997.74,608.4 2004.3,601.317 2010.87,594.205 2017.44,587.064 2024.01,579.892 2030.58,572.686 2037.15,565.463 2043.71,558.231 2050.28,550.996 2056.85,543.761 2063.42,536.522 2069.99,529.282 2076.55,522.056 2083.12,514.851 2089.69,507.671 2096.26,500.519 2102.83,493.394 2109.4,486.297 2115.96,479.239 2122.53,472.23 2129.1,465.275 2135.67,458.376 2142.24,451.531 2148.81,444.737 2155.37,438.005 2161.94,431.343 2168.51,424.759 2175.08,418.255 2181.65,411.829 2188.21,405.476 2194.78,399.199 2201.35,393.008 2207.92,386.911 2214.49,380.91 2221.06,375.004 2227.62,369.19 2234.19,363.463 2240.76,357.831 2247.33,352.302 2253.9,346.877 2260.47,341.558 2267.03,336.339 2273.6,331.217 2280.17,326.195 2286.74,321.279 2293.31,316.469 2299.88,311.767 2306.44,307.168 2313.01,302.67 2319.58,298.272 2326.15,293.979 2332.72,289.79 2339.28,285.705 2345.85,281.721 2352.42,277.837 2358.99,274.05 2365.56,270.362 2372.13,266.773 2378.69,263.281 2385.26,259.884 2391.83,256.581 2398.4,253.37 2404.97,250.25 2411.54,247.22 2418.1,244.279 2424.67,241.425 2431.24,238.656 2437.81,235.97 2444.38,233.368 2450.94,230.845 2457.51,228.402 2464.08,226.036 2470.65,223.744 2477.22,221.528 2483.79,219.384 2490.35,217.311 2496.92,215.307 2503.49,213.37 2510.06,211.497 2516.63,209.689 2523.2,207.944 2529.76,206.261 2536.33,204.636 2542.9,203.069 2549.47,201.556 2556.04,200.098 2562.61,198.694 2569.17,197.342 2575.74,196.039 2582.31,194.784 2588.88,193.576 2595.45,192.413 2602.01,191.294 2608.58,190.22 2615.15,189.186 2621.72,188.192 2628.29,187.236 2634.86,186.318 2641.42,185.436 2647.99,184.59 2654.56,183.778 2661.13,182.998 2667.7,182.25 2674.27,181.532 2680.83,180.843 "/>
<polyline clip-path="url(#clip381)" style="stroke:#008000; stroke-linecap:round; stroke-linejoin:round; stroke-width:8; stroke-opacity:1; fill:none" points="283.422,1213.51 289.991,1213.51 296.559,1213.51 303.127,1213.51 309.695,1213.51 316.264,1213.51 322.832,1213.51 329.4,1213.51 335.968,1213.51 342.537,1213.51 349.105,1213.51 355.673,1213.51 362.241,1213.5 368.81,1213.5 375.378,1213.5 381.946,1213.5 388.514,1213.5 395.083,1213.5 401.651,1213.5 408.219,1213.5 414.787,1213.5 421.356,1213.5 427.924,1213.5 434.492,1213.49 441.06,1213.49 447.629,1213.49 454.197,1213.49 460.765,1213.49 467.333,1213.48 473.902,1213.48 480.47,1213.48 487.038,1213.47 493.606,1213.47 500.175,1213.46 506.743,1213.46 513.311,1213.45 519.879,1213.44 526.448,1213.43 533.016,1213.42 539.584,1213.41 546.152,1213.4 552.721,1213.38 559.289,1213.36 565.857,1213.34 572.425,1213.32 578.994,1213.29 585.562,1213.26 592.13,1213.23 598.698,1213.19 605.267,1213.15 611.835,1213.1 618.403,1213.04 624.971,1212.98 631.54,1212.92 638.108,1212.84 644.676,1212.76 651.244,1212.66 657.813,1212.56 664.381,1212.45 670.949,1212.32 677.517,1212.19 684.086,1212.04 690.654,1211.87 697.222,1211.7 703.79,1211.51 710.359,1211.3 716.927,1211.08 723.495,1210.85 730.063,1210.59 736.632,1210.32 743.2,1210.03 749.768,1209.72 756.336,1209.4 762.905,1209.05 769.473,1208.68 776.041,1208.29 782.609,1207.88 789.178,1207.44 795.746,1206.98 802.314,1206.5 808.882,1205.99 815.451,1205.46 822.019,1204.9 828.587,1204.32 835.155,1203.71 841.724,1203.07 848.292,1202.4 854.86,1201.71 861.428,1200.99 867.997,1200.24 874.565,1199.47 881.133,1198.67 887.701,1197.84 894.27,1196.99 900.838,1196.12 907.406,1195.23 913.974,1194.32 920.543,1193.39 927.111,1192.44 933.679,1191.47 940.247,1190.49 946.816,1189.5 953.384,1188.5 959.952,1187.49 966.52,1186.47 973.089,1185.44 979.657,1184.41 986.225,1183.38 992.793,1182.35 999.362,1181.31 1005.93,1180.29 1012.5,1179.27 1019.07,1178.25 1025.63,1177.24 1032.2,1176.25 1038.77,1175.26 1045.34,1174.3 1051.91,1173.34 1058.48,1172.41 1065.04,1171.49 1071.61,1170.6 1078.18,1169.72 1084.75,1168.85 1091.32,1167.98 1097.89,1167.13 1104.45,1166.28 1111.02,1165.44 1117.59,1164.61 1124.16,1163.78 1130.73,1162.97 1137.29,1162.16 1143.86,1161.36 1150.43,1160.57 1157,1159.79 1163.57,1159.01 1170.14,1158.24 1176.7,1157.47 1183.27,1156.71 1189.84,1155.96 1196.41,1155.22 1202.98,1154.48 1209.55,1153.74 1216.11,1153.02 1222.68,1152.29 1229.25,1151.57 1235.82,1150.86 1242.39,1150.15 1248.96,1149.45 1255.52,1148.75 1262.09,1148.05 1268.66,1147.36 1275.23,1146.68 1281.8,1145.99 1288.36,1145.31 1294.93,1144.64 1301.5,1143.97 1308.07,1143.3 1314.64,1142.63 1321.21,1141.97 1327.77,1141.31 1334.34,1140.65 1340.91,1140 1347.48,1139.34 1354.05,1138.69 1360.62,1138.04 1367.18,1137.4 1373.75,1136.75 1380.32,1136.11 1386.89,1135.47 1393.46,1134.83 1400.02,1134.19 1406.59,1133.55 1413.16,1132.92 1419.73,1132.28 1426.3,1131.65 1432.87,1131.02 1439.43,1130.38 1446,1129.75 1452.57,1129.12 1459.14,1128.49 1465.71,1127.85 1472.28,1127.22 1478.84,1126.59 1485.41,1125.96 1491.98,1125.32 1498.55,1124.69 1505.12,1124.06 1511.69,1123.42 1518.25,1122.79 1524.82,1122.15 1531.39,1121.52 1537.96,1120.88 1544.53,1120.24 1551.09,1119.6 1557.66,1118.96 1564.23,1118.31 1570.8,1117.67 1577.37,1117.02 1583.94,1116.37 1590.5,1115.72 1597.07,1115.07 1603.64,1114.41 1610.21,1113.76 1616.78,1113.1 1623.35,1112.43 1629.91,1111.77 1636.48,1111.1 1643.05,1110.43 1649.62,1109.75 1656.19,1109.08 1662.75,1108.39 1669.32,1107.71 1675.89,1107.02 1682.46,1106.33 1689.03,1105.63 1695.6,1104.93 1702.16,1104.23 1708.73,1103.52 1715.3,1102.8 1721.87,1102.08 1728.44,1101.36 1735.01,1100.63 1741.57,1099.9 1748.14,1099.16 1754.71,1098.41 1761.28,1097.66 1767.85,1096.91 1774.42,1096.14 1780.98,1095.37 1787.55,1094.6 1794.12,1093.82 1800.69,1093.03 1807.26,1092.23 1813.82,1091.43 1820.39,1090.62 1826.96,1089.8 1833.53,1088.98 1840.1,1088.14 1846.67,1087.3 1853.23,1086.45 1859.8,1085.59 1866.37,1084.72 1872.94,1083.85 1879.51,1082.96 1886.08,1082.06 1892.64,1081.16 1899.21,1080.24 1905.78,1079.32 1912.35,1078.38 1918.92,1077.43 1925.48,1076.47 1932.05,1075.5 1938.62,1074.53 1945.19,1073.54 1951.76,1072.54 1958.33,1071.53 1964.89,1070.52 1971.46,1069.49 1978.03,1068.46 1984.6,1067.41 1991.17,1066.36 1997.74,1065.3 2004.3,1064.22 2010.87,1063.14 2017.44,1062.05 2024.01,1060.96 2030.58,1059.85 2037.15,1058.73 2043.71,1057.61 2050.28,1056.48 2056.85,1055.34 2063.42,1054.19 2069.99,1053.04 2076.55,1051.87 2083.12,1050.7 2089.69,1049.53 2096.26,1048.34 2102.83,1047.15 2109.4,1045.96 2115.96,1044.75 2122.53,1043.54 2129.1,1042.33 2135.67,1041.11 2142.24,1039.89 2148.81,1038.65 2155.37,1037.42 2161.94,1036.18 2168.51,1034.93 2175.08,1033.69 2181.65,1032.44 2188.21,1031.18 2194.78,1029.92 2201.35,1028.66 2207.92,1027.39 2214.49,1026.13 2221.06,1024.86 2227.62,1023.59 2234.19,1022.32 2240.76,1021.04 2247.33,1019.77 2253.9,1018.49 2260.47,1017.22 2267.03,1015.94 2273.6,1014.67 2280.17,1013.39 2286.74,1012.11 2293.31,1010.84 2299.88,1009.57 2306.44,1008.3 2313.01,1007.03 2319.58,1005.76 2326.15,1004.5 2332.72,1003.24 2339.28,1001.98 2345.85,1000.73 2352.42,999.476 2358.99,998.227 2365.56,996.981 2372.13,995.741 2378.69,994.507 2385.26,993.278 2391.83,992.054 2398.4,990.833 2404.97,989.616 2411.54,988.406 2418.1,987.203 2424.67,986.008 2431.24,984.819 2437.81,983.636 2444.38,982.456 2450.94,981.284 2457.51,980.12 2464.08,978.966 2470.65,977.819 2477.22,976.68 2483.79,975.545 2490.35,974.418 2496.92,973.301 2503.49,972.193 2510.06,971.095 2516.63,970.005 2523.2,968.922 2529.76,967.846 2536.33,966.781 2542.9,965.725 2549.47,964.68 2556.04,963.645 2562.61,962.617 2569.17,961.597 2575.74,960.588 2582.31,959.589 2588.88,958.602 2595.45,957.624 2602.01,956.655 2608.58,955.694 2615.15,954.744 2621.72,953.805 2628.29,952.878 2634.86,951.96 2641.42,951.052 2647.99,950.153 2654.56,949.265 2661.13,948.388 2667.7,947.521 2674.27,946.665 2680.83,945.819 "/>
<path clip-path="url(#clip380)" d="M296.209 353.624 L895.217 353.624 L895.217 146.264 L296.209 146.264  Z" fill="#ffffff" fill-rule="evenodd" fill-opacity="1"/>
<polyline clip-path="url(#clip380)" style="stroke:#000000; stroke-linecap:round; stroke-linejoin:round; stroke-width:4; stroke-opacity:1; fill:none" points="296.209,353.624 895.217,353.624 895.217,146.264 296.209,146.264 296.209,353.624 "/>
<polyline clip-path="url(#clip380)" style="stroke:#4682b4; stroke-linecap:round; stroke-linejoin:round; stroke-width:8; stroke-opacity:1; fill:none" points="324.445,198.104 493.862,198.104 "/>
<path clip-path="url(#clip380)" d="M522.098 180.824 L526.797 180.824 L526.797 201.819 Q526.797 207.375 528.811 209.828 Q530.825 212.259 535.339 212.259 Q539.829 212.259 541.843 209.828 Q543.857 207.375 543.857 201.819 L543.857 180.824 L548.556 180.824 L548.556 202.398 Q548.556 209.157 545.2 212.606 Q541.866 216.055 535.339 216.055 Q528.788 216.055 525.431 212.606 Q522.098 209.157 522.098 202.398 L522.098 180.824 Z" fill="#000000" fill-rule="nonzero" fill-opacity="1" /><path clip-path="url(#clip380)" d="M572.167 193.439 Q571.45 193.023 570.593 192.838 Q569.76 192.629 568.741 192.629 Q565.13 192.629 563.186 194.99 Q561.265 197.328 561.265 201.726 L561.265 215.384 L556.982 215.384 L556.982 189.458 L561.265 189.458 L561.265 193.486 Q562.607 191.125 564.76 189.99 Q566.913 188.833 569.991 188.833 Q570.431 188.833 570.964 188.902 Q571.496 188.949 572.144 189.064 L572.167 193.439 Z" fill="#000000" fill-rule="nonzero" fill-opacity="1" /><path clip-path="url(#clip380)" d="M595.246 202.444 Q595.246 197.745 593.301 195.083 Q591.38 192.398 588.001 192.398 Q584.621 192.398 582.676 195.083 Q580.755 197.745 580.755 202.444 Q580.755 207.143 582.676 209.828 Q584.621 212.49 588.001 212.49 Q591.38 212.49 593.301 209.828 Q595.246 207.143 595.246 202.444 M580.755 193.393 Q582.098 191.078 584.135 189.967 Q586.195 188.833 589.042 188.833 Q593.764 188.833 596.704 192.583 Q599.667 196.333 599.667 202.444 Q599.667 208.555 596.704 212.305 Q593.764 216.055 589.042 216.055 Q586.195 216.055 584.135 214.944 Q582.098 213.81 580.755 211.495 L580.755 215.384 L576.473 215.384 L576.473 179.365 L580.755 179.365 L580.755 193.393 Z" fill="#000000" fill-rule="nonzero" fill-opacity="1" /><path clip-path="url(#clip380)" d="M618.51 202.351 Q613.348 202.351 611.357 203.532 Q609.366 204.712 609.366 207.56 Q609.366 209.828 610.848 211.171 Q612.352 212.49 614.922 212.49 Q618.463 212.49 620.593 209.99 Q622.746 207.467 622.746 203.3 L622.746 202.351 L618.51 202.351 M627.005 200.592 L627.005 215.384 L622.746 215.384 L622.746 211.449 Q621.287 213.81 619.111 214.944 Q616.936 216.055 613.787 216.055 Q609.806 216.055 607.445 213.833 Q605.107 211.587 605.107 207.837 Q605.107 203.462 608.024 201.24 Q610.963 199.018 616.774 199.018 L622.746 199.018 L622.746 198.601 Q622.746 195.662 620.801 194.064 Q618.88 192.444 615.385 192.444 Q613.162 192.444 611.056 192.976 Q608.949 193.509 607.005 194.574 L607.005 190.638 Q609.343 189.736 611.542 189.296 Q613.741 188.833 615.824 188.833 Q621.449 188.833 624.227 191.75 Q627.005 194.666 627.005 200.592 Z" fill="#000000" fill-rule="nonzero" fill-opacity="1" /><path clip-path="url(#clip380)" d="M657.329 199.736 L657.329 215.384 L653.07 215.384 L653.07 199.875 Q653.07 196.194 651.634 194.365 Q650.199 192.537 647.329 192.537 Q643.88 192.537 641.889 194.736 Q639.898 196.935 639.898 200.731 L639.898 215.384 L635.616 215.384 L635.616 189.458 L639.898 189.458 L639.898 193.486 Q641.426 191.148 643.486 189.99 Q645.57 188.833 648.278 188.833 Q652.746 188.833 655.037 191.611 Q657.329 194.365 657.329 199.736 Z" fill="#000000" fill-rule="nonzero" fill-opacity="1" /><path clip-path="url(#clip380)" d="M691.125 179.412 Q688.023 184.736 686.518 189.944 Q685.014 195.152 685.014 200.5 Q685.014 205.847 686.518 211.101 Q688.046 216.333 691.125 221.634 L687.421 221.634 Q683.949 216.194 682.213 210.939 Q680.5 205.685 680.5 200.5 Q680.5 195.338 682.213 190.106 Q683.926 184.875 687.421 179.412 L691.125 179.412 Z" fill="#000000" fill-rule="nonzero" fill-opacity="1" /><path clip-path="url(#clip380)" d="M700.037 180.824 L718.393 180.824 L718.393 184.759 L704.319 184.759 L704.319 193.231 Q705.338 192.884 706.356 192.722 Q707.375 192.537 708.393 192.537 Q714.18 192.537 717.56 195.708 Q720.94 198.879 720.94 204.296 Q720.94 209.874 717.467 212.976 Q713.995 216.055 707.676 216.055 Q705.5 216.055 703.231 215.685 Q700.986 215.314 698.579 214.574 L698.579 209.874 Q700.662 211.009 702.884 211.564 Q705.106 212.12 707.583 212.12 Q711.588 212.12 713.926 210.013 Q716.264 207.907 716.264 204.296 Q716.264 200.685 713.926 198.578 Q711.588 196.472 707.583 196.472 Q705.708 196.472 703.833 196.888 Q701.981 197.305 700.037 198.185 L700.037 180.824 Z" fill="#000000" fill-rule="nonzero" fill-opacity="1" /><path clip-path="url(#clip380)" d="M729.736 180.824 L736.703 180.824 L745.523 204.342 L754.389 180.824 L761.356 180.824 L761.356 215.384 L756.796 215.384 L756.796 185.037 L747.884 208.74 L743.185 208.74 L734.273 185.037 L734.273 215.384 L729.736 215.384 L729.736 180.824 Z" fill="#000000" fill-rule="nonzero" fill-opacity="1" /><path clip-path="url(#clip380)" d="M769.782 179.412 L773.486 179.412 Q776.958 184.875 778.671 190.106 Q780.407 195.338 780.407 200.5 Q780.407 205.685 778.671 210.939 Q776.958 216.194 773.486 221.634 L769.782 221.634 Q772.861 216.333 774.365 211.101 Q775.893 205.847 775.893 200.5 Q775.893 195.152 774.365 189.944 Q772.861 184.736 769.782 179.412 Z" fill="#000000" fill-rule="nonzero" fill-opacity="1" /><polyline clip-path="url(#clip380)" style="stroke:#ffa500; stroke-linecap:round; stroke-linejoin:round; stroke-width:8; stroke-opacity:1; fill:none" points="324.445,249.944 493.862,249.944 "/>
<path clip-path="url(#clip380)" d="M544.343 233.798 L544.343 238.358 Q541.681 237.085 539.32 236.46 Q536.959 235.835 534.76 235.835 Q530.941 235.835 528.857 237.316 Q526.797 238.798 526.797 241.529 Q526.797 243.821 528.163 245.002 Q529.552 246.159 533.394 246.877 L536.218 247.455 Q541.45 248.451 543.927 250.974 Q546.427 253.474 546.427 257.687 Q546.427 262.71 543.047 265.302 Q539.691 267.895 533.186 267.895 Q530.732 267.895 527.955 267.339 Q525.2 266.784 522.237 265.696 L522.237 260.881 Q525.084 262.478 527.816 263.289 Q530.547 264.099 533.186 264.099 Q537.191 264.099 539.367 262.525 Q541.542 260.951 541.542 258.034 Q541.542 255.488 539.968 254.052 Q538.417 252.617 534.853 251.9 L532.005 251.344 Q526.774 250.303 524.436 248.08 Q522.098 245.858 522.098 241.9 Q522.098 237.316 525.316 234.678 Q528.556 232.039 534.228 232.039 Q536.658 232.039 539.181 232.479 Q541.704 232.918 544.343 233.798 Z" fill="#000000" fill-rule="nonzero" fill-opacity="1" /><path clip-path="url(#clip380)" d="M553.093 256.992 L553.093 241.298 L557.353 241.298 L557.353 256.83 Q557.353 260.511 558.788 262.363 Q560.223 264.191 563.093 264.191 Q566.542 264.191 568.533 261.992 Q570.547 259.793 570.547 255.997 L570.547 241.298 L574.806 241.298 L574.806 267.224 L570.547 267.224 L570.547 263.242 Q568.996 265.603 566.936 266.761 Q564.899 267.895 562.19 267.895 Q557.723 267.895 555.408 265.117 Q553.093 262.339 553.093 256.992 M563.811 240.673 L563.811 240.673 Z" fill="#000000" fill-rule="nonzero" fill-opacity="1" /><path clip-path="url(#clip380)" d="M602.19 254.284 Q602.19 249.585 600.246 246.923 Q598.325 244.238 594.945 244.238 Q591.565 244.238 589.621 246.923 Q587.7 249.585 587.7 254.284 Q587.7 258.983 589.621 261.668 Q591.565 264.33 594.945 264.33 Q598.325 264.33 600.246 261.668 Q602.19 258.983 602.19 254.284 M587.7 245.233 Q589.042 242.918 591.079 241.807 Q593.139 240.673 595.987 240.673 Q600.709 240.673 603.649 244.423 Q606.612 248.173 606.612 254.284 Q606.612 260.395 603.649 264.145 Q600.709 267.895 595.987 267.895 Q593.139 267.895 591.079 266.784 Q589.042 265.65 587.7 263.335 L587.7 267.224 L583.417 267.224 L583.417 231.205 L587.7 231.205 L587.7 245.233 Z" fill="#000000" fill-rule="nonzero" fill-opacity="1" /><path clip-path="url(#clip380)" d="M613.232 256.992 L613.232 241.298 L617.491 241.298 L617.491 256.83 Q617.491 260.511 618.926 262.363 Q620.361 264.191 623.232 264.191 Q626.681 264.191 628.672 261.992 Q630.685 259.793 630.685 255.997 L630.685 241.298 L634.945 241.298 L634.945 267.224 L630.685 267.224 L630.685 263.242 Q629.135 265.603 627.074 266.761 Q625.037 267.895 622.329 267.895 Q617.861 267.895 615.547 265.117 Q613.232 262.339 613.232 256.992 M623.949 240.673 L623.949 240.673 Z" fill="#000000" fill-rule="nonzero" fill-opacity="1" /><path clip-path="url(#clip380)" d="M658.741 245.279 Q658.023 244.863 657.167 244.678 Q656.333 244.469 655.315 244.469 Q651.704 244.469 649.759 246.83 Q647.838 249.168 647.838 253.566 L647.838 267.224 L643.556 267.224 L643.556 241.298 L647.838 241.298 L647.838 245.326 Q649.181 242.965 651.334 241.83 Q653.486 240.673 656.565 240.673 Q657.005 240.673 657.537 240.742 Q658.07 240.789 658.718 240.904 L658.741 245.279 Z" fill="#000000" fill-rule="nonzero" fill-opacity="1" /><path clip-path="url(#clip380)" d="M681.819 254.284 Q681.819 249.585 679.875 246.923 Q677.954 244.238 674.574 244.238 Q671.195 244.238 669.25 246.923 Q667.329 249.585 667.329 254.284 Q667.329 258.983 669.25 261.668 Q671.195 264.33 674.574 264.33 Q677.954 264.33 679.875 261.668 Q681.819 258.983 681.819 254.284 M667.329 245.233 Q668.671 242.918 670.708 241.807 Q672.769 240.673 675.616 240.673 Q680.338 240.673 683.278 244.423 Q686.241 248.173 686.241 254.284 Q686.241 260.395 683.278 264.145 Q680.338 267.895 675.616 267.895 Q672.769 267.895 670.708 266.784 Q668.671 265.65 667.329 263.335 L667.329 267.224 L663.046 267.224 L663.046 231.205 L667.329 231.205 L667.329 245.233 Z" fill="#000000" fill-rule="nonzero" fill-opacity="1" /><path clip-path="url(#clip380)" d="M705.083 254.191 Q699.921 254.191 697.93 255.372 Q695.94 256.552 695.94 259.4 Q695.94 261.668 697.421 263.011 Q698.926 264.33 701.495 264.33 Q705.037 264.33 707.167 261.83 Q709.319 259.307 709.319 255.14 L709.319 254.191 L705.083 254.191 M713.579 252.432 L713.579 267.224 L709.319 267.224 L709.319 263.289 Q707.861 265.65 705.685 266.784 Q703.509 267.895 700.361 267.895 Q696.38 267.895 694.018 265.673 Q691.681 263.427 691.681 259.677 Q691.681 255.302 694.597 253.08 Q697.537 250.858 703.347 250.858 L709.319 250.858 L709.319 250.441 Q709.319 247.502 707.375 245.904 Q705.454 244.284 701.958 244.284 Q699.736 244.284 697.63 244.816 Q695.523 245.349 693.579 246.414 L693.579 242.478 Q695.917 241.576 698.116 241.136 Q700.315 240.673 702.398 240.673 Q708.023 240.673 710.801 243.59 Q713.579 246.506 713.579 252.432 Z" fill="#000000" fill-rule="nonzero" fill-opacity="1" /><path clip-path="url(#clip380)" d="M743.902 251.576 L743.902 267.224 L739.643 267.224 L739.643 251.715 Q739.643 248.034 738.208 246.205 Q736.773 244.377 733.903 244.377 Q730.453 244.377 728.463 246.576 Q726.472 248.775 726.472 252.571 L726.472 267.224 L722.19 267.224 L722.19 241.298 L726.472 241.298 L726.472 245.326 Q728 242.988 730.06 241.83 Q732.143 240.673 734.852 240.673 Q739.319 240.673 741.611 243.451 Q743.902 246.205 743.902 251.576 Z" fill="#000000" fill-rule="nonzero" fill-opacity="1" /><path clip-path="url(#clip380)" d="M777.699 231.252 Q774.597 236.576 773.092 241.784 Q771.587 246.992 771.587 252.34 Q771.587 257.687 773.092 262.941 Q774.62 268.173 777.699 273.474 L773.995 273.474 Q770.523 268.034 768.787 262.779 Q767.074 257.525 767.074 252.34 Q767.074 247.178 768.787 241.946 Q770.5 236.715 773.995 231.252 L777.699 231.252 Z" fill="#000000" fill-rule="nonzero" fill-opacity="1" /><path clip-path="url(#clip380)" d="M800.731 248.59 Q804.087 249.307 805.962 251.576 Q807.86 253.844 807.86 257.177 Q807.86 262.293 804.342 265.094 Q800.823 267.895 794.342 267.895 Q792.166 267.895 789.851 267.455 Q787.56 267.039 785.106 266.182 L785.106 261.668 Q787.05 262.802 789.365 263.381 Q791.68 263.96 794.203 263.96 Q798.601 263.96 800.893 262.224 Q803.208 260.488 803.208 257.177 Q803.208 254.122 801.055 252.409 Q798.925 250.673 795.106 250.673 L791.078 250.673 L791.078 246.83 L795.291 246.83 Q798.74 246.83 800.569 245.465 Q802.398 244.076 802.398 241.483 Q802.398 238.821 800.499 237.409 Q798.624 235.974 795.106 235.974 Q793.185 235.974 790.986 236.391 Q788.786 236.807 786.148 237.687 L786.148 233.52 Q788.81 232.779 791.124 232.409 Q793.462 232.039 795.523 232.039 Q800.847 232.039 803.948 234.469 Q807.05 236.877 807.05 240.997 Q807.05 243.867 805.407 245.858 Q803.763 247.826 800.731 248.59 Z" fill="#000000" fill-rule="nonzero" fill-opacity="1" /><path clip-path="url(#clip380)" d="M816.309 232.664 L823.277 232.664 L832.096 256.182 L840.962 232.664 L847.93 232.664 L847.93 267.224 L843.37 267.224 L843.37 236.877 L834.458 260.58 L829.758 260.58 L820.846 236.877 L820.846 267.224 L816.309 267.224 L816.309 232.664 Z" fill="#000000" fill-rule="nonzero" fill-opacity="1" /><path clip-path="url(#clip380)" d="M856.356 231.252 L860.059 231.252 Q863.531 236.715 865.244 241.946 Q866.98 247.178 866.98 252.34 Q866.98 257.525 865.244 262.779 Q863.531 268.034 860.059 273.474 L856.356 273.474 Q859.434 268.173 860.939 262.941 Q862.467 257.687 862.467 252.34 Q862.467 246.992 860.939 241.784 Q859.434 236.576 856.356 231.252 Z" fill="#000000" fill-rule="nonzero" fill-opacity="1" /><polyline clip-path="url(#clip380)" style="stroke:#008000; stroke-linecap:round; stroke-linejoin:round; stroke-width:8; stroke-opacity:1; fill:none" points="324.445,301.784 493.862,301.784 "/>
<path clip-path="url(#clip380)" d="M538.487 302.86 Q539.992 303.369 541.404 305.036 Q542.839 306.703 544.274 309.619 L549.019 319.064 L543.996 319.064 L539.575 310.198 Q537.862 306.726 536.242 305.592 Q534.644 304.457 531.867 304.457 L526.774 304.457 L526.774 319.064 L522.098 319.064 L522.098 284.504 L532.654 284.504 Q538.579 284.504 541.496 286.981 Q544.413 289.457 544.413 294.457 Q544.413 297.721 542.885 299.874 Q541.38 302.027 538.487 302.86 M526.774 288.346 L526.774 300.615 L532.654 300.615 Q536.033 300.615 537.746 299.064 Q539.482 297.49 539.482 294.457 Q539.482 291.425 537.746 289.897 Q536.033 288.346 532.654 288.346 L526.774 288.346 Z" fill="#000000" fill-rule="nonzero" fill-opacity="1" /><path clip-path="url(#clip380)" d="M552.283 308.832 L552.283 293.138 L556.542 293.138 L556.542 308.67 Q556.542 312.351 557.978 314.203 Q559.413 316.031 562.283 316.031 Q565.732 316.031 567.723 313.832 Q569.737 311.633 569.737 307.837 L569.737 293.138 L573.996 293.138 L573.996 319.064 L569.737 319.064 L569.737 315.082 Q568.186 317.443 566.126 318.601 Q564.089 319.735 561.38 319.735 Q556.913 319.735 554.598 316.957 Q552.283 314.179 552.283 308.832 M563.001 292.513 L563.001 292.513 Z" fill="#000000" fill-rule="nonzero" fill-opacity="1" /><path clip-path="url(#clip380)" d="M597.792 297.119 Q597.075 296.703 596.218 296.518 Q595.385 296.309 594.366 296.309 Q590.755 296.309 588.811 298.67 Q586.889 301.008 586.889 305.406 L586.889 319.064 L582.607 319.064 L582.607 293.138 L586.889 293.138 L586.889 297.166 Q588.232 294.805 590.385 293.67 Q592.538 292.513 595.616 292.513 Q596.056 292.513 596.588 292.582 Q597.121 292.629 597.769 292.744 L597.792 297.119 Z" fill="#000000" fill-rule="nonzero" fill-opacity="1" /><path clip-path="url(#clip380)" d="M614.042 306.031 Q608.88 306.031 606.889 307.212 Q604.899 308.392 604.899 311.24 Q604.899 313.508 606.38 314.851 Q607.885 316.17 610.454 316.17 Q613.996 316.17 616.125 313.67 Q618.278 311.147 618.278 306.98 L618.278 306.031 L614.042 306.031 M622.537 304.272 L622.537 319.064 L618.278 319.064 L618.278 315.129 Q616.82 317.49 614.644 318.624 Q612.468 319.735 609.32 319.735 Q605.338 319.735 602.977 317.513 Q600.639 315.267 600.639 311.517 Q600.639 307.142 603.556 304.92 Q606.496 302.698 612.306 302.698 L618.278 302.698 L618.278 302.281 Q618.278 299.342 616.334 297.744 Q614.412 296.124 610.917 296.124 Q608.695 296.124 606.588 296.656 Q604.482 297.189 602.537 298.254 L602.537 294.318 Q604.875 293.416 607.074 292.976 Q609.274 292.513 611.357 292.513 Q616.982 292.513 619.76 295.43 Q622.537 298.346 622.537 304.272 Z" fill="#000000" fill-rule="nonzero" fill-opacity="1" /><path clip-path="url(#clip380)" d="M631.31 283.045 L635.57 283.045 L635.57 319.064 L631.31 319.064 L631.31 283.045 Z" fill="#000000" fill-rule="nonzero" fill-opacity="1" /><path clip-path="url(#clip380)" d="M669.782 283.092 Q666.681 288.416 665.176 293.624 Q663.671 298.832 663.671 304.18 Q663.671 309.527 665.176 314.781 Q666.704 320.013 669.782 325.314 L666.079 325.314 Q662.607 319.874 660.87 314.619 Q659.158 309.365 659.158 304.18 Q659.158 299.018 660.87 293.786 Q662.583 288.555 666.079 283.092 L669.782 283.092 Z" fill="#000000" fill-rule="nonzero" fill-opacity="1" /><path clip-path="url(#clip380)" d="M679.458 315.129 L687.097 315.129 L687.097 288.763 L678.787 290.43 L678.787 286.17 L687.051 284.504 L691.727 284.504 L691.727 315.129 L699.366 315.129 L699.366 319.064 L679.458 319.064 L679.458 315.129 Z" fill="#000000" fill-rule="nonzero" fill-opacity="1" /><path clip-path="url(#clip380)" d="M708.393 284.504 L715.361 284.504 L724.18 308.022 L733.046 284.504 L740.014 284.504 L740.014 319.064 L735.453 319.064 L735.453 288.717 L726.541 312.42 L721.842 312.42 L712.93 288.717 L712.93 319.064 L708.393 319.064 L708.393 284.504 Z" fill="#000000" fill-rule="nonzero" fill-opacity="1" /><path clip-path="url(#clip380)" d="M748.439 283.092 L752.143 283.092 Q755.615 288.555 757.328 293.786 Q759.064 299.018 759.064 304.18 Q759.064 309.365 757.328 314.619 Q755.615 319.874 752.143 325.314 L748.439 325.314 Q751.518 320.013 753.023 314.781 Q754.551 309.527 754.551 304.18 Q754.551 298.832 753.023 293.624 Q751.518 288.416 748.439 283.092 Z" fill="#000000" fill-rule="nonzero" fill-opacity="1" /></svg>
