<?xml version="1.0" encoding="utf-8"?>
<svg xmlns="http://www.w3.org/2000/svg" xmlns:xlink="http://www.w3.org/1999/xlink" width="672" height="480" viewBox="0 0 2688 1920">
<defs>
  <clipPath id="clip260">
    <rect x="0" y="0" width="2688" height="1920"/>
  </clipPath>
</defs>
<path clip-path="url(#clip260)" d="M0 1920 L2688 1920 L2688 -4.26326e-14 L0 -4.26326e-14  Z" fill="#ffffff" fill-rule="evenodd" fill-opacity="1"/>
<defs>
  <clipPath id="clip261">
    <rect x="225" y="127" width="2416" height="1607"/>
  </clipPath>
</defs>
<path clip-path="url(#clip260)" d="M225.307 1734.12 L2640.76 1734.12 L2640.76 127.792 L225.307 127.792  Z" fill="#ffffff" fill-rule="evenodd" fill-opacity="1"/>
<polyline clip-path="url(#clip261)" style="stroke:#000000; stroke-linecap:round; stroke-linejoin:round; stroke-width:2; stroke-opacity:0.1; fill:none" points="293.669,1734.12 293.669,127.792 "/>
<polyline clip-path="url(#clip261)" style="stroke:#000000; stroke-linecap:round; stroke-linejoin:round; stroke-width:2; stroke-opacity:0.1; fill:none" points="917.977,1734.12 917.977,127.792 "/>
<polyline clip-path="url(#clip261)" style="stroke:#000000; stroke-linecap:round; stroke-linejoin:round; stroke-width:2; stroke-opacity:0.1; fill:none" points="1542.29,1734.12 1542.29,127.792 "/>
<polyline clip-path="url(#clip261)" style="stroke:#000000; stroke-linecap:round; stroke-linejoin:round; stroke-width:2; stroke-opacity:0.1; fill:none" points="2166.59,1734.12 2166.59,127.792 "/>
<polyline clip-path="url(#clip261)" style="stroke:#000000; stroke-linecap:round; stroke-linejoin:round; stroke-width:2; stroke-opacity:0.1; fill:none" points="225.307,1510.37 2640.76,1510.37 "/>
<polyline clip-path="url(#clip261)" style="stroke:#000000; stroke-linecap:round; stroke-linejoin:round; stroke-width:2; stroke-opacity:0.1; fill:none" points="225.307,1064.67 2640.76,1064.67 "/>
<polyline clip-path="url(#clip261)" style="stroke:#000000; stroke-linecap:round; stroke-linejoin:round; stroke-width:2; stroke-opacity:0.1; fill:none" points="225.307,618.96 2640.76,618.96 "/>
<polyline clip-path="url(#clip261)" style="stroke:#000000; stroke-linecap:round; stroke-linejoin:round; stroke-width:2; stroke-opacity:0.1; fill:none" points="225.307,173.254 2640.76,173.254 "/>
<polyline clip-path="url(#clip260)" style="stroke:#000000; stroke-linecap:round; stroke-linejoin:round; stroke-width:4; stroke-opacity:1; fill:none" points="225.307,1734.12 2640.76,1734.12 "/>
<polyline clip-path="url(#clip260)" style="stroke:#000000; stroke-linecap:round; stroke-linejoin:round; stroke-width:4; stroke-opacity:1; fill:none" points="293.669,1734.12 293.669,1715.22 "/>
<polyline clip-path="url(#clip260)" style="stroke:#000000; stroke-linecap:round; stroke-linejoin:round; stroke-width:4; stroke-opacity:1; fill:none" points="917.977,1734.12 917.977,1715.22 "/>
<polyline clip-path="url(#clip260)" style="stroke:#000000; stroke-linecap:round; stroke-linejoin:round; stroke-width:4; stroke-opacity:1; fill:none" points="1542.29,1734.12 1542.29,1715.22 "/>
<polyline clip-path="url(#clip260)" style="stroke:#000000; stroke-linecap:round; stroke-linejoin:round; stroke-width:4; stroke-opacity:1; fill:none" points="2166.59,1734.12 2166.59,1715.22 "/>
<path clip-path="url(#clip260)" d="M293.669 1767.34 Q290.058 1767.34 288.229 1770.9 Q286.424 1774.45 286.424 1781.58 Q286.424 1788.68 288.229 1792.25 Q290.058 1795.79 293.669 1795.79 Q297.303 1795.79 299.109 1792.25 Q300.937 1788.68 300.937 1781.58 Q300.937 1774.45 299.109 1770.9 Q297.303 1767.34 293.669 1767.34 M293.669 1763.64 Q299.479 1763.64 302.535 1768.24 Q305.613 1772.83 305.613 1781.58 Q305.613 1790.3 302.535 1794.91 Q299.479 1799.49 293.669 1799.49 Q287.859 1799.49 284.78 1794.91 Q281.725 1790.3 281.725 1781.58 Q281.725 1772.83 284.78 1768.24 Q287.859 1763.64 293.669 1763.64 Z" fill="#000000" fill-rule="nonzero" fill-opacity="1" /><path clip-path="url(#clip260)" d="M877.584 1794.89 L885.223 1794.89 L885.223 1768.52 L876.913 1770.19 L876.913 1765.93 L885.176 1764.26 L889.852 1764.26 L889.852 1794.89 L897.491 1794.89 L897.491 1798.82 L877.584 1798.82 L877.584 1794.89 Z" fill="#000000" fill-rule="nonzero" fill-opacity="1" /><path clip-path="url(#clip260)" d="M916.936 1767.34 Q913.324 1767.34 911.496 1770.9 Q909.69 1774.45 909.69 1781.58 Q909.69 1788.68 911.496 1792.25 Q913.324 1795.79 916.936 1795.79 Q920.57 1795.79 922.375 1792.25 Q924.204 1788.68 924.204 1781.58 Q924.204 1774.45 922.375 1770.9 Q920.57 1767.34 916.936 1767.34 M916.936 1763.64 Q922.746 1763.64 925.801 1768.24 Q928.88 1772.83 928.88 1781.58 Q928.88 1790.3 925.801 1794.91 Q922.746 1799.49 916.936 1799.49 Q911.125 1799.49 908.047 1794.91 Q904.991 1790.3 904.991 1781.58 Q904.991 1772.83 908.047 1768.24 Q911.125 1763.64 916.936 1763.64 Z" fill="#000000" fill-rule="nonzero" fill-opacity="1" /><path clip-path="url(#clip260)" d="M947.097 1767.34 Q943.486 1767.34 941.658 1770.9 Q939.852 1774.45 939.852 1781.58 Q939.852 1788.68 941.658 1792.25 Q943.486 1795.79 947.097 1795.79 Q950.732 1795.79 952.537 1792.25 Q954.366 1788.68 954.366 1781.58 Q954.366 1774.45 952.537 1770.9 Q950.732 1767.34 947.097 1767.34 M947.097 1763.64 Q952.908 1763.64 955.963 1768.24 Q959.042 1772.83 959.042 1781.58 Q959.042 1790.3 955.963 1794.91 Q952.908 1799.49 947.097 1799.49 Q941.287 1799.49 938.209 1794.91 Q935.153 1790.3 935.153 1781.58 Q935.153 1772.83 938.209 1768.24 Q941.287 1763.64 947.097 1763.64 Z" fill="#000000" fill-rule="nonzero" fill-opacity="1" /><path clip-path="url(#clip260)" d="M1505.98 1794.89 L1522.3 1794.89 L1522.3 1798.82 L1500.35 1798.82 L1500.35 1794.89 Q1503.01 1792.13 1507.6 1787.5 Q1512.2 1782.85 1513.39 1781.51 Q1515.63 1778.98 1516.51 1777.25 Q1517.41 1775.49 1517.41 1773.8 Q1517.41 1771.04 1515.47 1769.31 Q1513.55 1767.57 1510.45 1767.57 Q1508.25 1767.57 1505.79 1768.34 Q1503.36 1769.1 1500.58 1770.65 L1500.58 1765.93 Q1503.41 1764.79 1505.86 1764.21 Q1508.32 1763.64 1510.35 1763.64 Q1515.72 1763.64 1518.92 1766.32 Q1522.11 1769.01 1522.11 1773.5 Q1522.11 1775.63 1521.3 1777.55 Q1520.51 1779.45 1518.41 1782.04 Q1517.83 1782.71 1514.73 1785.93 Q1511.63 1789.12 1505.98 1794.89 Z" fill="#000000" fill-rule="nonzero" fill-opacity="1" /><path clip-path="url(#clip260)" d="M1542.11 1767.34 Q1538.5 1767.34 1536.67 1770.9 Q1534.87 1774.45 1534.87 1781.58 Q1534.87 1788.68 1536.67 1792.25 Q1538.5 1795.79 1542.11 1795.79 Q1545.75 1795.79 1547.55 1792.25 Q1549.38 1788.68 1549.38 1781.58 Q1549.38 1774.45 1547.55 1770.9 Q1545.75 1767.34 1542.11 1767.34 M1542.11 1763.64 Q1547.92 1763.64 1550.98 1768.24 Q1554.06 1772.83 1554.06 1781.58 Q1554.06 1790.3 1550.98 1794.91 Q1547.92 1799.49 1542.11 1799.49 Q1536.3 1799.49 1533.22 1794.91 Q1530.17 1790.3 1530.17 1781.58 Q1530.17 1772.83 1533.22 1768.24 Q1536.3 1763.64 1542.11 1763.64 Z" fill="#000000" fill-rule="nonzero" fill-opacity="1" /><path clip-path="url(#clip260)" d="M1572.27 1767.34 Q1568.66 1767.34 1566.83 1770.9 Q1565.03 1774.45 1565.03 1781.58 Q1565.03 1788.68 1566.83 1792.25 Q1568.66 1795.79 1572.27 1795.79 Q1575.91 1795.79 1577.71 1792.25 Q1579.54 1788.68 1579.54 1781.58 Q1579.54 1774.45 1577.71 1770.9 Q1575.91 1767.34 1572.27 1767.34 M1572.27 1763.64 Q1578.08 1763.64 1581.14 1768.24 Q1584.22 1772.83 1584.22 1781.58 Q1584.22 1790.3 1581.14 1794.91 Q1578.08 1799.49 1572.27 1799.49 Q1566.46 1799.49 1563.38 1794.91 Q1560.33 1790.3 1560.33 1781.58 Q1560.33 1772.83 1563.38 1768.24 Q1566.46 1763.64 1572.27 1763.64 Z" fill="#000000" fill-rule="nonzero" fill-opacity="1" /><path clip-path="url(#clip260)" d="M2140.36 1780.19 Q2143.71 1780.9 2145.59 1783.17 Q2147.49 1785.44 2147.49 1788.77 Q2147.49 1793.89 2143.97 1796.69 Q2140.45 1799.49 2133.97 1799.49 Q2131.79 1799.49 2129.48 1799.05 Q2127.18 1798.64 2124.73 1797.78 L2124.73 1793.27 Q2126.68 1794.4 2128.99 1794.98 Q2131.3 1795.56 2133.83 1795.56 Q2138.23 1795.56 2140.52 1793.82 Q2142.83 1792.08 2142.83 1788.77 Q2142.83 1785.72 2140.68 1784.01 Q2138.55 1782.27 2134.73 1782.27 L2130.7 1782.27 L2130.7 1778.43 L2134.92 1778.43 Q2138.36 1778.43 2140.19 1777.06 Q2142.02 1775.67 2142.02 1773.08 Q2142.02 1770.42 2140.12 1769.01 Q2138.25 1767.57 2134.73 1767.57 Q2132.81 1767.57 2130.61 1767.99 Q2128.41 1768.4 2125.77 1769.28 L2125.77 1765.12 Q2128.43 1764.38 2130.75 1764.01 Q2133.09 1763.64 2135.15 1763.64 Q2140.47 1763.64 2143.57 1766.07 Q2146.67 1768.47 2146.67 1772.59 Q2146.67 1775.46 2145.03 1777.46 Q2143.39 1779.42 2140.36 1780.19 Z" fill="#000000" fill-rule="nonzero" fill-opacity="1" /><path clip-path="url(#clip260)" d="M2166.35 1767.34 Q2162.74 1767.34 2160.91 1770.9 Q2159.11 1774.45 2159.11 1781.58 Q2159.11 1788.68 2160.91 1792.25 Q2162.74 1795.79 2166.35 1795.79 Q2169.98 1795.79 2171.79 1792.25 Q2173.62 1788.68 2173.62 1781.58 Q2173.62 1774.45 2171.79 1770.9 Q2169.98 1767.34 2166.35 1767.34 M2166.35 1763.64 Q2172.16 1763.64 2175.22 1768.24 Q2178.3 1772.83 2178.3 1781.58 Q2178.3 1790.3 2175.22 1794.91 Q2172.16 1799.49 2166.35 1799.49 Q2160.54 1799.49 2157.46 1794.91 Q2154.41 1790.3 2154.41 1781.58 Q2154.41 1772.83 2157.46 1768.24 Q2160.54 1763.64 2166.35 1763.64 Z" fill="#000000" fill-rule="nonzero" fill-opacity="1" /><path clip-path="url(#clip260)" d="M2196.51 1767.34 Q2192.9 1767.34 2191.07 1770.9 Q2189.27 1774.45 2189.27 1781.58 Q2189.27 1788.68 2191.07 1792.25 Q2192.9 1795.79 2196.51 1795.79 Q2200.15 1795.79 2201.95 1792.25 Q2203.78 1788.68 2203.78 1781.58 Q2203.78 1774.45 2201.95 1770.9 Q2200.15 1767.34 2196.51 1767.34 M2196.51 1763.64 Q2202.32 1763.64 2205.38 1768.24 Q2208.46 1772.83 2208.46 1781.58 Q2208.46 1790.3 2205.38 1794.91 Q2202.32 1799.49 2196.51 1799.49 Q2190.7 1799.49 2187.62 1794.91 Q2184.57 1790.3 2184.57 1781.58 Q2184.57 1772.83 2187.62 1768.24 Q2190.7 1763.64 2196.51 1763.64 Z" fill="#000000" fill-rule="nonzero" fill-opacity="1" /><path clip-path="url(#clip260)" d="M1379.27 1841.06 L1379.27 1878.02 L1387.04 1878.02 Q1396.87 1878.02 1401.43 1873.56 Q1406.01 1869.11 1406.01 1859.49 Q1406.01 1849.94 1401.43 1845.52 Q1396.87 1841.06 1387.04 1841.06 L1379.27 1841.06 M1372.84 1835.78 L1386.05 1835.78 Q1399.87 1835.78 1406.33 1841.54 Q1412.79 1847.27 1412.79 1859.49 Q1412.79 1871.78 1406.3 1877.54 Q1399.8 1883.3 1386.05 1883.3 L1372.84 1883.3 L1372.84 1835.78 Z" fill="#000000" fill-rule="nonzero" fill-opacity="1" /><path clip-path="url(#clip260)" d="M1438.98 1865.38 Q1431.89 1865.38 1429.15 1867 Q1426.41 1868.63 1426.41 1872.54 Q1426.41 1875.66 1428.45 1877.51 Q1430.52 1879.32 1434.05 1879.32 Q1438.92 1879.32 1441.85 1875.88 Q1444.81 1872.42 1444.81 1866.69 L1444.81 1865.38 L1438.98 1865.38 M1450.66 1862.96 L1450.66 1883.3 L1444.81 1883.3 L1444.81 1877.89 Q1442.8 1881.14 1439.81 1882.7 Q1436.82 1884.22 1432.49 1884.22 Q1427.02 1884.22 1423.77 1881.17 Q1420.55 1878.08 1420.55 1872.92 Q1420.55 1866.91 1424.57 1863.85 Q1428.61 1860.8 1436.6 1860.8 L1444.81 1860.8 L1444.81 1860.23 Q1444.81 1856.18 1442.13 1853.99 Q1439.49 1851.76 1434.69 1851.76 Q1431.63 1851.76 1428.73 1852.49 Q1425.84 1853.22 1423.16 1854.69 L1423.16 1849.28 Q1426.38 1848.03 1429.4 1847.43 Q1432.43 1846.79 1435.29 1846.79 Q1443.03 1846.79 1446.85 1850.8 Q1450.66 1854.81 1450.66 1862.96 Z" fill="#000000" fill-rule="nonzero" fill-opacity="1" /><path clip-path="url(#clip260)" d="M1477.56 1886.61 Q1475.08 1892.98 1472.72 1894.92 Q1470.37 1896.86 1466.42 1896.86 L1461.74 1896.86 L1461.74 1891.96 L1465.18 1891.96 Q1467.6 1891.96 1468.93 1890.81 Q1470.27 1889.67 1471.89 1885.4 L1472.94 1882.73 L1458.53 1847.65 L1464.73 1847.65 L1475.87 1875.53 L1487.01 1847.65 L1493.22 1847.65 L1477.56 1886.61 Z" fill="#000000" fill-rule="nonzero" fill-opacity="1" /><polyline clip-path="url(#clip260)" style="stroke:#000000; stroke-linecap:round; stroke-linejoin:round; stroke-width:4; stroke-opacity:1; fill:none" points="225.307,1734.12 225.307,127.792 "/>
<polyline clip-path="url(#clip260)" style="stroke:#000000; stroke-linecap:round; stroke-linejoin:round; stroke-width:4; stroke-opacity:1; fill:none" points="225.307,1510.37 244.205,1510.37 "/>
<polyline clip-path="url(#clip260)" style="stroke:#000000; stroke-linecap:round; stroke-linejoin:round; stroke-width:4; stroke-opacity:1; fill:none" points="225.307,1064.67 244.205,1064.67 "/>
<polyline clip-path="url(#clip260)" style="stroke:#000000; stroke-linecap:round; stroke-linejoin:round; stroke-width:4; stroke-opacity:1; fill:none" points="225.307,618.96 244.205,618.96 "/>
<polyline clip-path="url(#clip260)" style="stroke:#000000; stroke-linecap:round; stroke-linejoin:round; stroke-width:4; stroke-opacity:1; fill:none" points="225.307,173.254 244.205,173.254 "/>
<path clip-path="url(#clip260)" d="M118.622 1523.72 L126.261 1523.72 L126.261 1497.35 L117.951 1499.02 L117.951 1494.76 L126.214 1493.09 L130.89 1493.09 L130.89 1523.72 L138.529 1523.72 L138.529 1527.65 L118.622 1527.65 L118.622 1523.72 Z" fill="#000000" fill-rule="nonzero" fill-opacity="1" /><path clip-path="url(#clip260)" d="M147.974 1521.77 L152.858 1521.77 L152.858 1527.65 L147.974 1527.65 L147.974 1521.77 Z" fill="#000000" fill-rule="nonzero" fill-opacity="1" /><path clip-path="url(#clip260)" d="M173.043 1496.17 Q169.432 1496.17 167.603 1499.74 Q165.798 1503.28 165.798 1510.41 Q165.798 1517.51 167.603 1521.08 Q169.432 1524.62 173.043 1524.62 Q176.677 1524.62 178.483 1521.08 Q180.311 1517.51 180.311 1510.41 Q180.311 1503.28 178.483 1499.74 Q176.677 1496.17 173.043 1496.17 M173.043 1492.47 Q178.853 1492.47 181.909 1497.07 Q184.987 1501.66 184.987 1510.41 Q184.987 1519.13 181.909 1523.74 Q178.853 1528.32 173.043 1528.32 Q167.233 1528.32 164.154 1523.74 Q161.098 1519.13 161.098 1510.41 Q161.098 1501.66 164.154 1497.07 Q167.233 1492.47 173.043 1492.47 Z" fill="#000000" fill-rule="nonzero" fill-opacity="1" /><path clip-path="url(#clip260)" d="M119.617 1078.01 L127.256 1078.01 L127.256 1051.65 L118.946 1053.31 L118.946 1049.05 L127.21 1047.39 L131.886 1047.39 L131.886 1078.01 L139.525 1078.01 L139.525 1081.95 L119.617 1081.95 L119.617 1078.01 Z" fill="#000000" fill-rule="nonzero" fill-opacity="1" /><path clip-path="url(#clip260)" d="M148.969 1076.07 L153.853 1076.07 L153.853 1081.95 L148.969 1081.95 L148.969 1076.07 Z" fill="#000000" fill-rule="nonzero" fill-opacity="1" /><path clip-path="url(#clip260)" d="M164.085 1047.39 L182.441 1047.39 L182.441 1051.32 L168.367 1051.32 L168.367 1059.79 Q169.385 1059.45 170.404 1059.28 Q171.422 1059.1 172.441 1059.1 Q178.228 1059.1 181.608 1062.27 Q184.987 1065.44 184.987 1070.86 Q184.987 1076.44 181.515 1079.54 Q178.043 1082.62 171.723 1082.62 Q169.547 1082.62 167.279 1082.25 Q165.034 1081.88 162.626 1081.14 L162.626 1076.44 Q164.71 1077.57 166.932 1078.13 Q169.154 1078.68 171.631 1078.68 Q175.635 1078.68 177.973 1076.58 Q180.311 1074.47 180.311 1070.86 Q180.311 1067.25 177.973 1065.14 Q175.635 1063.03 171.631 1063.03 Q169.756 1063.03 167.881 1063.45 Q166.029 1063.87 164.085 1064.75 L164.085 1047.39 Z" fill="#000000" fill-rule="nonzero" fill-opacity="1" /><path clip-path="url(#clip260)" d="M121.839 632.305 L138.159 632.305 L138.159 636.24 L116.214 636.24 L116.214 632.305 Q118.876 629.55 123.46 624.921 Q128.066 620.268 129.247 618.926 Q131.492 616.402 132.372 614.666 Q133.275 612.907 133.275 611.217 Q133.275 608.463 131.33 606.727 Q129.409 604.99 126.307 604.99 Q124.108 604.99 121.654 605.754 Q119.224 606.518 116.446 608.069 L116.446 603.347 Q119.27 602.213 121.724 601.634 Q124.177 601.055 126.214 601.055 Q131.585 601.055 134.779 603.74 Q137.974 606.426 137.974 610.916 Q137.974 613.046 137.163 614.967 Q136.376 616.865 134.27 619.458 Q133.691 620.129 130.589 623.347 Q127.488 626.541 121.839 632.305 Z" fill="#000000" fill-rule="nonzero" fill-opacity="1" /><path clip-path="url(#clip260)" d="M147.974 630.361 L152.858 630.361 L152.858 636.24 L147.974 636.24 L147.974 630.361 Z" fill="#000000" fill-rule="nonzero" fill-opacity="1" /><path clip-path="url(#clip260)" d="M173.043 604.759 Q169.432 604.759 167.603 608.324 Q165.798 611.865 165.798 618.995 Q165.798 626.101 167.603 629.666 Q169.432 633.208 173.043 633.208 Q176.677 633.208 178.483 629.666 Q180.311 626.101 180.311 618.995 Q180.311 611.865 178.483 608.324 Q176.677 604.759 173.043 604.759 M173.043 601.055 Q178.853 601.055 181.909 605.662 Q184.987 610.245 184.987 618.995 Q184.987 627.722 181.909 632.328 Q178.853 636.912 173.043 636.912 Q167.233 636.912 164.154 632.328 Q161.098 627.722 161.098 618.995 Q161.098 610.245 164.154 605.662 Q167.233 601.055 173.043 601.055 Z" fill="#000000" fill-rule="nonzero" fill-opacity="1" /><path clip-path="url(#clip260)" d="M122.835 186.599 L139.154 186.599 L139.154 190.534 L117.21 190.534 L117.21 186.599 Q119.872 183.844 124.455 179.215 Q129.062 174.562 130.242 173.219 Q132.488 170.696 133.367 168.96 Q134.27 167.201 134.27 165.511 Q134.27 162.757 132.325 161.02 Q130.404 159.284 127.302 159.284 Q125.103 159.284 122.65 160.048 Q120.219 160.812 117.441 162.363 L117.441 157.641 Q120.265 156.507 122.719 155.928 Q125.173 155.349 127.21 155.349 Q132.58 155.349 135.775 158.034 Q138.969 160.719 138.969 165.21 Q138.969 167.34 138.159 169.261 Q137.372 171.159 135.265 173.752 Q134.687 174.423 131.585 177.641 Q128.483 180.835 122.835 186.599 Z" fill="#000000" fill-rule="nonzero" fill-opacity="1" /><path clip-path="url(#clip260)" d="M148.969 184.655 L153.853 184.655 L153.853 190.534 L148.969 190.534 L148.969 184.655 Z" fill="#000000" fill-rule="nonzero" fill-opacity="1" /><path clip-path="url(#clip260)" d="M164.085 155.974 L182.441 155.974 L182.441 159.909 L168.367 159.909 L168.367 168.381 Q169.385 168.034 170.404 167.872 Q171.422 167.687 172.441 167.687 Q178.228 167.687 181.608 170.858 Q184.987 174.03 184.987 179.446 Q184.987 185.025 181.515 188.127 Q178.043 191.205 171.723 191.205 Q169.547 191.205 167.279 190.835 Q165.034 190.465 162.626 189.724 L162.626 185.025 Q164.71 186.159 166.932 186.715 Q169.154 187.27 171.631 187.27 Q175.635 187.27 177.973 185.164 Q180.311 183.057 180.311 179.446 Q180.311 175.835 177.973 173.729 Q175.635 171.622 171.631 171.622 Q169.756 171.622 167.881 172.039 Q166.029 172.456 164.085 173.335 L164.085 155.974 Z" fill="#000000" fill-rule="nonzero" fill-opacity="1" /><path clip-path="url(#clip260)" d="M39.3585 939.867 Q40.0587 937.798 42.3504 935.856 Q44.642 933.883 48.6524 931.909 L61.6384 925.385 L61.6384 932.291 L49.4481 938.371 Q44.6738 940.726 43.1142 942.954 Q41.5546 945.15 41.5546 948.97 L41.5546 955.972 L61.6384 955.972 L61.6384 962.401 L14.1184 962.401 L14.1184 947.887 Q14.1184 939.739 17.5241 935.729 Q20.9297 931.718 27.8047 931.718 Q32.2925 931.718 35.2526 933.819 Q38.2126 935.888 39.3585 939.867 M19.402 955.972 L36.2711 955.972 L36.2711 947.887 Q36.2711 943.24 34.1386 940.885 Q31.9743 938.498 27.8047 938.498 Q23.6352 938.498 21.5345 940.885 Q19.402 943.24 19.402 947.887 L19.402 955.972 Z" fill="#000000" fill-rule="nonzero" fill-opacity="1" /><path clip-path="url(#clip260)" d="M15.869 911.571 L25.9905 911.571 L25.9905 899.508 L30.542 899.508 L30.542 911.571 L49.8937 911.571 Q54.2542 911.571 55.4955 910.393 Q56.7368 909.184 56.7368 905.524 L56.7368 899.508 L61.6384 899.508 L61.6384 905.524 Q61.6384 912.303 59.124 914.881 Q56.5777 917.459 49.8937 917.459 L30.542 917.459 L30.542 921.756 L25.9905 921.756 L25.9905 917.459 L15.869 917.459 L15.869 911.571 Z" fill="#000000" fill-rule="nonzero" fill-opacity="1" /><path clip-path="url(#clip260)" d="M919.802 18.8205 L919.802 41.5461 L930.092 41.5461 Q935.803 41.5461 938.923 38.5889 Q942.042 35.6318 942.042 30.163 Q942.042 24.7348 938.923 21.7777 Q935.803 18.8205 930.092 18.8205 L919.802 18.8205 M911.619 12.096 L930.092 12.096 Q940.259 12.096 945.444 16.714 Q950.67 21.2916 950.67 30.163 Q950.67 39.1155 945.444 43.6931 Q940.259 48.2706 930.092 48.2706 L919.802 48.2706 L919.802 72.576 L911.619 72.576 L911.619 12.096 Z" fill="#000000" fill-rule="nonzero" fill-opacity="1" /><path clip-path="url(#clip260)" d="M986.156 34.1734 Q984.9 33.4443 983.401 33.1202 Q981.943 32.7556 980.161 32.7556 Q973.841 32.7556 970.439 36.8875 Q967.076 40.9789 967.076 48.6757 L967.076 72.576 L959.582 72.576 L959.582 27.2059 L967.076 27.2059 L967.076 34.2544 Q969.426 30.1225 973.193 28.1376 Q976.961 26.1121 982.348 26.1121 Q983.118 26.1121 984.05 26.2337 Q984.981 26.3147 986.116 26.5172 L986.156 34.1734 Z" fill="#000000" fill-rule="nonzero" fill-opacity="1" /><path clip-path="url(#clip260)" d="M1030.96 48.0275 L1030.96 51.6733 L996.688 51.6733 Q997.175 59.3701 1001.31 63.421 Q1005.48 67.4314 1012.89 67.4314 Q1017.19 67.4314 1021.2 66.3781 Q1025.25 65.3249 1029.22 63.2184 L1029.22 70.267 Q1025.21 71.9684 1020.99 72.8596 Q1016.78 73.7508 1012.45 73.7508 Q1001.59 73.7508 995.23 67.4314 Q988.911 61.1119 988.911 50.3365 Q988.911 39.1965 994.906 32.6746 Q1000.94 26.1121 1011.15 26.1121 Q1020.31 26.1121 1025.61 32.0264 Q1030.96 37.9003 1030.96 48.0275 M1023.51 45.84 Q1023.42 39.7232 1020.06 36.0774 Q1016.74 32.4315 1011.23 32.4315 Q1004.99 32.4315 1001.23 35.9558 Q997.499 39.4801 996.931 45.8805 L1023.51 45.84 Z" fill="#000000" fill-rule="nonzero" fill-opacity="1" /><path clip-path="url(#clip260)" d="M1072.12 28.5427 L1072.12 35.5912 Q1068.96 33.9709 1065.55 33.1607 Q1062.15 32.3505 1058.51 32.3505 Q1052.96 32.3505 1050.16 34.0519 Q1047.41 35.7533 1047.41 39.156 Q1047.41 41.7486 1049.39 43.2475 Q1051.38 44.7058 1057.37 46.0426 L1059.92 46.6097 Q1067.86 48.3111 1071.18 51.4303 Q1074.55 54.509 1074.55 60.0587 Q1074.55 66.3781 1069.52 70.0644 Q1064.54 73.7508 1055.79 73.7508 Q1052.15 73.7508 1048.18 73.0216 Q1044.25 72.3329 1039.87 70.9151 L1039.87 63.2184 Q1044 65.3654 1048.01 66.4591 Q1052.02 67.5124 1055.95 67.5124 Q1061.22 67.5124 1064.05 65.73 Q1066.89 63.9071 1066.89 60.6258 Q1066.89 57.5877 1064.82 55.9673 Q1062.8 54.3469 1055.87 52.8481 L1053.28 52.2405 Q1046.35 50.7821 1043.27 47.7845 Q1040.2 44.7463 1040.2 39.4801 Q1040.2 33.0797 1044.73 29.5959 Q1049.27 26.1121 1057.61 26.1121 Q1061.75 26.1121 1065.39 26.7198 Q1069.04 27.3274 1072.12 28.5427 Z" fill="#000000" fill-rule="nonzero" fill-opacity="1" /><path clip-path="url(#clip260)" d="M1119.07 28.9478 L1119.07 35.9153 Q1115.91 34.1734 1112.71 33.3227 Q1109.55 32.4315 1106.31 32.4315 Q1099.05 32.4315 1095.04 37.0496 Q1091.03 41.6271 1091.03 49.9314 Q1091.03 58.2358 1095.04 62.8538 Q1099.05 67.4314 1106.31 67.4314 Q1109.55 67.4314 1112.71 66.5807 Q1115.91 65.6895 1119.07 63.9476 L1119.07 70.8341 Q1115.95 72.2924 1112.58 73.0216 Q1109.26 73.7508 1105.5 73.7508 Q1095.25 73.7508 1089.21 67.3098 Q1083.18 60.8689 1083.18 49.9314 Q1083.18 38.832 1089.25 32.472 Q1095.37 26.1121 1105.98 26.1121 Q1109.43 26.1121 1112.71 26.8413 Q1115.99 27.5299 1119.07 28.9478 Z" fill="#000000" fill-rule="nonzero" fill-opacity="1" /><path clip-path="url(#clip260)" d="M1158.32 34.1734 Q1157.06 33.4443 1155.56 33.1202 Q1154.11 32.7556 1152.32 32.7556 Q1146 32.7556 1142.6 36.8875 Q1139.24 40.9789 1139.24 48.6757 L1139.24 72.576 L1131.75 72.576 L1131.75 27.2059 L1139.24 27.2059 L1139.24 34.2544 Q1141.59 30.1225 1145.36 28.1376 Q1149.12 26.1121 1154.51 26.1121 Q1155.28 26.1121 1156.21 26.2337 Q1157.14 26.3147 1158.28 26.5172 L1158.32 34.1734 Z" fill="#000000" fill-rule="nonzero" fill-opacity="1" /><path clip-path="url(#clip260)" d="M1166.14 27.2059 L1173.59 27.2059 L1173.59 72.576 L1166.14 72.576 L1166.14 27.2059 M1166.14 9.54393 L1173.59 9.54393 L1173.59 18.9825 L1166.14 18.9825 L1166.14 9.54393 Z" fill="#000000" fill-rule="nonzero" fill-opacity="1" /><path clip-path="url(#clip260)" d="M1221.76 49.9314 Q1221.76 41.7081 1218.35 37.0496 Q1214.99 32.3505 1209.08 32.3505 Q1203.16 32.3505 1199.76 37.0496 Q1196.4 41.7081 1196.4 49.9314 Q1196.4 58.1548 1199.76 62.8538 Q1203.16 67.5124 1209.08 67.5124 Q1214.99 67.5124 1218.35 62.8538 Q1221.76 58.1548 1221.76 49.9314 M1196.4 34.0924 Q1198.75 30.0415 1202.31 28.0971 Q1205.92 26.1121 1210.9 26.1121 Q1219.16 26.1121 1224.31 32.6746 Q1229.49 39.2371 1229.49 49.9314 Q1229.49 60.6258 1224.31 67.1883 Q1219.16 73.7508 1210.9 73.7508 Q1205.92 73.7508 1202.31 71.8063 Q1198.75 69.8214 1196.4 65.7705 L1196.4 72.576 L1188.9 72.576 L1188.9 9.54393 L1196.4 9.54393 L1196.4 34.0924 Z" fill="#000000" fill-rule="nonzero" fill-opacity="1" /><path clip-path="url(#clip260)" d="M1280.66 48.0275 L1280.66 51.6733 L1246.39 51.6733 Q1246.87 59.3701 1251 63.421 Q1255.18 67.4314 1262.59 67.4314 Q1266.88 67.4314 1270.89 66.3781 Q1274.95 65.3249 1278.91 63.2184 L1278.91 70.267 Q1274.9 71.9684 1270.69 72.8596 Q1266.48 73.7508 1262.14 73.7508 Q1251.29 73.7508 1244.93 67.4314 Q1238.61 61.1119 1238.61 50.3365 Q1238.61 39.1965 1244.6 32.6746 Q1250.64 26.1121 1260.85 26.1121 Q1270 26.1121 1275.31 32.0264 Q1280.66 37.9003 1280.66 48.0275 M1273.2 45.84 Q1273.12 39.7232 1269.76 36.0774 Q1266.44 32.4315 1260.93 32.4315 Q1254.69 32.4315 1250.92 35.9558 Q1247.2 39.4801 1246.63 45.8805 L1273.2 45.84 Z" fill="#000000" fill-rule="nonzero" fill-opacity="1" /><path clip-path="url(#clip260)" d="M1322.75 34.0924 L1322.75 9.54393 L1330.2 9.54393 L1330.2 72.576 L1322.75 72.576 L1322.75 65.7705 Q1320.4 69.8214 1316.79 71.8063 Q1313.23 73.7508 1308.2 73.7508 Q1299.98 73.7508 1294.79 67.1883 Q1289.65 60.6258 1289.65 49.9314 Q1289.65 39.2371 1294.79 32.6746 Q1299.98 26.1121 1308.2 26.1121 Q1313.23 26.1121 1316.79 28.0971 Q1320.4 30.0415 1322.75 34.0924 M1297.35 49.9314 Q1297.35 58.1548 1300.71 62.8538 Q1304.11 67.5124 1310.03 67.5124 Q1315.94 67.5124 1319.34 62.8538 Q1322.75 58.1548 1322.75 49.9314 Q1322.75 41.7081 1319.34 37.0496 Q1315.94 32.3505 1310.03 32.3505 Q1304.11 32.3505 1300.71 37.0496 Q1297.35 41.7081 1297.35 49.9314 Z" fill="#000000" fill-rule="nonzero" fill-opacity="1" /><path clip-path="url(#clip260)" d="M1400.93 44.2197 Q1403.56 45.1109 1406.03 48.0275 Q1408.54 50.9442 1411.06 56.0483 L1419.36 72.576 L1410.57 72.576 L1402.83 57.061 Q1399.83 50.9847 1397 48.9997 Q1394.2 47.0148 1389.34 47.0148 L1380.43 47.0148 L1380.43 72.576 L1372.25 72.576 L1372.25 12.096 L1390.72 12.096 Q1401.09 12.096 1406.19 16.4305 Q1411.3 20.7649 1411.3 29.5149 Q1411.3 35.2267 1408.62 38.994 Q1405.99 42.7613 1400.93 44.2197 M1380.43 18.8205 L1380.43 40.2903 L1390.72 40.2903 Q1396.63 40.2903 1399.63 37.5762 Q1402.67 34.8216 1402.67 29.5149 Q1402.67 24.2082 1399.63 21.5346 Q1396.63 18.8205 1390.72 18.8205 L1380.43 18.8205 Z" fill="#000000" fill-rule="nonzero" fill-opacity="1" /><path clip-path="url(#clip260)" d="M1436.94 14.324 L1436.94 27.2059 L1452.29 27.2059 L1452.29 32.9987 L1436.94 32.9987 L1436.94 57.6282 Q1436.94 63.1779 1438.44 64.7578 Q1439.98 66.3376 1444.64 66.3376 L1452.29 66.3376 L1452.29 72.576 L1444.64 72.576 Q1436.01 72.576 1432.73 69.3758 Q1429.45 66.1351 1429.45 57.6282 L1429.45 32.9987 L1423.98 32.9987 L1423.98 27.2059 L1429.45 27.2059 L1429.45 14.324 L1436.94 14.324 Z" fill="#000000" fill-rule="nonzero" fill-opacity="1" /><path clip-path="url(#clip260)" d="M1480.41 12.096 L1531.57 12.096 L1531.57 18.9825 L1510.1 18.9825 L1510.1 72.576 L1501.88 72.576 L1501.88 18.9825 L1480.41 18.9825 L1480.41 12.096 Z" fill="#000000" fill-rule="nonzero" fill-opacity="1" /><path clip-path="url(#clip260)" d="M1553.24 34.1734 Q1551.99 33.4443 1550.49 33.1202 Q1549.03 32.7556 1547.25 32.7556 Q1540.93 32.7556 1537.52 36.8875 Q1534.16 40.9789 1534.16 48.6757 L1534.16 72.576 L1526.67 72.576 L1526.67 27.2059 L1534.16 27.2059 L1534.16 34.2544 Q1536.51 30.1225 1540.28 28.1376 Q1544.05 26.1121 1549.43 26.1121 Q1550.2 26.1121 1551.14 26.2337 Q1552.07 26.3147 1553.2 26.5172 L1553.24 34.1734 Z" fill="#000000" fill-rule="nonzero" fill-opacity="1" /><path clip-path="url(#clip260)" d="M1581.68 49.7694 Q1572.65 49.7694 1569.16 51.8354 Q1565.68 53.9013 1565.68 58.8839 Q1565.68 62.8538 1568.27 65.2034 Q1570.9 67.5124 1575.4 67.5124 Q1581.6 67.5124 1585.33 63.1374 Q1589.09 58.7219 1589.09 51.4303 L1589.09 49.7694 L1581.68 49.7694 M1596.55 46.6907 L1596.55 72.576 L1589.09 72.576 L1589.09 65.6895 Q1586.54 69.8214 1582.73 71.8063 Q1578.92 73.7508 1573.42 73.7508 Q1566.45 73.7508 1562.32 69.8619 Q1558.22 65.9325 1558.22 59.3701 Q1558.22 51.7138 1563.33 47.825 Q1568.47 43.9361 1578.64 43.9361 L1589.09 43.9361 L1589.09 43.2069 Q1589.09 38.0623 1585.69 35.2672 Q1582.33 32.4315 1576.21 32.4315 Q1572.32 32.4315 1568.64 33.3632 Q1564.95 34.295 1561.55 36.1584 L1561.55 29.2718 Q1565.64 27.692 1569.49 26.9223 Q1573.33 26.1121 1576.98 26.1121 Q1586.82 26.1121 1591.69 31.2163 Q1596.55 36.3204 1596.55 46.6907 Z" fill="#000000" fill-rule="nonzero" fill-opacity="1" /><path clip-path="url(#clip260)" d="M1611.9 27.2059 L1619.35 27.2059 L1619.35 73.3862 Q1619.35 82.0551 1616.03 85.944 Q1612.75 89.8329 1605.42 89.8329 L1602.58 89.8329 L1602.58 83.5134 L1604.57 83.5134 Q1608.82 83.5134 1610.36 81.5285 Q1611.9 79.5841 1611.9 73.3862 L1611.9 27.2059 M1611.9 9.54393 L1619.35 9.54393 L1619.35 18.9825 L1611.9 18.9825 L1611.9 9.54393 Z" fill="#000000" fill-rule="nonzero" fill-opacity="1" /><path clip-path="url(#clip260)" d="M1673.76 48.0275 L1673.76 51.6733 L1639.49 51.6733 Q1639.97 59.3701 1644.1 63.421 Q1648.28 67.4314 1655.69 67.4314 Q1659.98 67.4314 1663.99 66.3781 Q1668.04 65.3249 1672.01 63.2184 L1672.01 70.267 Q1668 71.9684 1663.79 72.8596 Q1659.58 73.7508 1655.24 73.7508 Q1644.39 73.7508 1638.03 67.4314 Q1631.71 61.1119 1631.71 50.3365 Q1631.71 39.1965 1637.7 32.6746 Q1643.74 26.1121 1653.95 26.1121 Q1663.1 26.1121 1668.41 32.0264 Q1673.76 37.9003 1673.76 48.0275 M1666.3 45.84 Q1666.22 39.7232 1662.86 36.0774 Q1659.54 32.4315 1654.03 32.4315 Q1647.79 32.4315 1644.02 35.9558 Q1640.3 39.4801 1639.73 45.8805 L1666.3 45.84 Z" fill="#000000" fill-rule="nonzero" fill-opacity="1" /><path clip-path="url(#clip260)" d="M1718.64 28.9478 L1718.64 35.9153 Q1715.48 34.1734 1712.28 33.3227 Q1709.12 32.4315 1705.88 32.4315 Q1698.63 32.4315 1694.62 37.0496 Q1690.61 41.6271 1690.61 49.9314 Q1690.61 58.2358 1694.62 62.8538 Q1698.63 67.4314 1705.88 67.4314 Q1709.12 67.4314 1712.28 66.5807 Q1715.48 65.6895 1718.64 63.9476 L1718.64 70.8341 Q1715.52 72.2924 1712.16 73.0216 Q1708.84 73.7508 1705.07 73.7508 Q1694.82 73.7508 1688.79 67.3098 Q1682.75 60.8689 1682.75 49.9314 Q1682.75 38.832 1688.83 32.472 Q1694.94 26.1121 1705.56 26.1121 Q1709 26.1121 1712.28 26.8413 Q1715.56 27.5299 1718.64 28.9478 Z" fill="#000000" fill-rule="nonzero" fill-opacity="1" /><path clip-path="url(#clip260)" d="M1738.98 14.324 L1738.98 27.2059 L1754.33 27.2059 L1754.33 32.9987 L1738.98 32.9987 L1738.98 57.6282 Q1738.98 63.1779 1740.47 64.7578 Q1742.01 66.3376 1746.67 66.3376 L1754.33 66.3376 L1754.33 72.576 L1746.67 72.576 Q1738.04 72.576 1734.76 69.3758 Q1731.48 66.1351 1731.48 57.6282 L1731.48 32.9987 L1726.01 32.9987 L1726.01 27.2059 L1731.48 27.2059 L1731.48 14.324 L1738.98 14.324 Z" fill="#000000" fill-rule="nonzero" fill-opacity="1" /><path clip-path="url(#clip260)" d="M1781.71 32.4315 Q1775.72 32.4315 1772.23 37.1306 Q1768.75 41.7891 1768.75 49.9314 Q1768.75 58.0738 1772.19 62.7728 Q1775.68 67.4314 1781.71 67.4314 Q1787.67 67.4314 1791.15 62.7323 Q1794.64 58.0333 1794.64 49.9314 Q1794.64 41.8701 1791.15 37.1711 Q1787.67 32.4315 1781.71 32.4315 M1781.71 26.1121 Q1791.44 26.1121 1796.99 32.4315 Q1802.53 38.7509 1802.53 49.9314 Q1802.53 61.0714 1796.99 67.4314 Q1791.44 73.7508 1781.71 73.7508 Q1771.95 73.7508 1766.4 67.4314 Q1760.89 61.0714 1760.89 49.9314 Q1760.89 38.7509 1766.4 32.4315 Q1771.95 26.1121 1781.71 26.1121 Z" fill="#000000" fill-rule="nonzero" fill-opacity="1" /><path clip-path="url(#clip260)" d="M1841.18 34.1734 Q1839.92 33.4443 1838.43 33.1202 Q1836.97 32.7556 1835.19 32.7556 Q1828.87 32.7556 1825.46 36.8875 Q1822.1 40.9789 1822.1 48.6757 L1822.1 72.576 L1814.61 72.576 L1814.61 27.2059 L1822.1 27.2059 L1822.1 34.2544 Q1824.45 30.1225 1828.22 28.1376 Q1831.98 26.1121 1837.37 26.1121 Q1838.14 26.1121 1839.07 26.2337 Q1840.01 26.3147 1841.14 26.5172 L1841.18 34.1734 Z" fill="#000000" fill-rule="nonzero" fill-opacity="1" /><path clip-path="url(#clip260)" d="M1849 27.2059 L1856.45 27.2059 L1856.45 72.576 L1849 72.576 L1849 27.2059 M1849 9.54393 L1856.45 9.54393 L1856.45 18.9825 L1849 18.9825 L1849 9.54393 Z" fill="#000000" fill-rule="nonzero" fill-opacity="1" /><path clip-path="url(#clip260)" d="M1910.86 48.0275 L1910.86 51.6733 L1876.59 51.6733 Q1877.07 59.3701 1881.2 63.421 Q1885.38 67.4314 1892.79 67.4314 Q1897.08 67.4314 1901.09 66.3781 Q1905.14 65.3249 1909.11 63.2184 L1909.11 70.267 Q1905.1 71.9684 1900.89 72.8596 Q1896.68 73.7508 1892.34 73.7508 Q1881.49 73.7508 1875.13 67.4314 Q1868.81 61.1119 1868.81 50.3365 Q1868.81 39.1965 1874.8 32.6746 Q1880.84 26.1121 1891.05 26.1121 Q1900.2 26.1121 1905.51 32.0264 Q1910.86 37.9003 1910.86 48.0275 M1903.4 45.84 Q1903.32 39.7232 1899.96 36.0774 Q1896.64 32.4315 1891.13 32.4315 Q1884.89 32.4315 1881.12 35.9558 Q1877.4 39.4801 1876.83 45.8805 L1903.4 45.84 Z" fill="#000000" fill-rule="nonzero" fill-opacity="1" /><path clip-path="url(#clip260)" d="M1952.01 28.5427 L1952.01 35.5912 Q1948.85 33.9709 1945.45 33.1607 Q1942.05 32.3505 1938.4 32.3505 Q1932.85 32.3505 1930.06 34.0519 Q1927.3 35.7533 1927.3 39.156 Q1927.3 41.7486 1929.29 43.2475 Q1931.27 44.7058 1937.27 46.0426 L1939.82 46.6097 Q1947.76 48.3111 1951.08 51.4303 Q1954.44 54.509 1954.44 60.0587 Q1954.44 66.3781 1949.42 70.0644 Q1944.44 73.7508 1935.69 73.7508 Q1932.04 73.7508 1928.07 73.0216 Q1924.14 72.3329 1919.77 70.9151 L1919.77 63.2184 Q1923.9 65.3654 1927.91 66.4591 Q1931.92 67.5124 1935.85 67.5124 Q1941.12 67.5124 1943.95 65.73 Q1946.79 63.9071 1946.79 60.6258 Q1946.79 57.5877 1944.72 55.9673 Q1942.7 54.3469 1935.77 52.8481 L1933.18 52.2405 Q1926.25 50.7821 1923.17 47.7845 Q1920.09 44.7463 1920.09 39.4801 Q1920.09 33.0797 1924.63 29.5959 Q1929.17 26.1121 1937.51 26.1121 Q1941.64 26.1121 1945.29 26.7198 Q1948.93 27.3274 1952.01 28.5427 Z" fill="#000000" fill-rule="nonzero" fill-opacity="1" /><polyline clip-path="url(#clip261)" style="stroke:#009af9; stroke-linecap:round; stroke-linejoin:round; stroke-width:8; stroke-opacity:1; fill:none" points="293.669,173.254 480.961,173.254 668.254,1332.09 855.546,1688.65 1042.84,1421.23 1417.42,1242.95 1854.44,1064.67 2572.39,1332.09 "/>
<circle clip-path="url(#clip261)" cx="293.669" cy="173.254" r="14.4" fill="#009af9" fill-rule="evenodd" fill-opacity="1" stroke="#000000" stroke-opacity="1" stroke-width="3.84"/>
<circle clip-path="url(#clip261)" cx="480.961" cy="173.254" r="14.4" fill="#009af9" fill-rule="evenodd" fill-opacity="1" stroke="#000000" stroke-opacity="1" stroke-width="3.84"/>
<circle clip-path="url(#clip261)" cx="668.254" cy="1332.09" r="14.4" fill="#009af9" fill-rule="evenodd" fill-opacity="1" stroke="#000000" stroke-opacity="1" stroke-width="3.84"/>
<circle clip-path="url(#clip261)" cx="855.546" cy="1688.65" r="14.4" fill="#009af9" fill-rule="evenodd" fill-opacity="1" stroke="#000000" stroke-opacity="1" stroke-width="3.84"/>
<circle clip-path="url(#clip261)" cx="1042.84" cy="1421.23" r="14.4" fill="#009af9" fill-rule="evenodd" fill-opacity="1" stroke="#000000" stroke-opacity="1" stroke-width="3.84"/>
<circle clip-path="url(#clip261)" cx="1417.42" cy="1242.95" r="14.4" fill="#009af9" fill-rule="evenodd" fill-opacity="1" stroke="#000000" stroke-opacity="1" stroke-width="3.84"/>
<circle clip-path="url(#clip261)" cx="1854.44" cy="1064.67" r="14.4" fill="#009af9" fill-rule="evenodd" fill-opacity="1" stroke="#000000" stroke-opacity="1" stroke-width="3.84"/>
<circle clip-path="url(#clip261)" cx="2572.39" cy="1332.09" r="14.4" fill="#009af9" fill-rule="evenodd" fill-opacity="1" stroke="#000000" stroke-opacity="1" stroke-width="3.84"/>
<polyline clip-path="url(#clip261)" style="stroke:#e26f46; stroke-linecap:round; stroke-linejoin:round; stroke-width:8; stroke-opacity:1; fill:none" points="293.669,1510.37 480.961,797.243 668.254,618.96 855.546,1510.37 1042.84,1599.51 1417.42,1332.09 1854.44,1153.81 2572.39,1421.23 "/>
<path clip-path="url(#clip261)" d="M277.669 1494.37 L277.669 1526.37 L309.669 1526.37 L309.669 1494.37 L277.669 1494.37 Z" fill="#e26f46" fill-rule="evenodd" fill-opacity="1" stroke="#000000" stroke-opacity="1" stroke-width="3.84"/>
<path clip-path="url(#clip261)" d="M464.961 781.243 L464.961 813.243 L496.961 813.243 L496.961 781.243 L464.961 781.243 Z" fill="#e26f46" fill-rule="evenodd" fill-opacity="1" stroke="#000000" stroke-opacity="1" stroke-width="3.84"/>
<path clip-path="url(#clip261)" d="M652.254 602.96 L652.254 634.96 L684.254 634.96 L684.254 602.96 L652.254 602.96 Z" fill="#e26f46" fill-rule="evenodd" fill-opacity="1" stroke="#000000" stroke-opacity="1" stroke-width="3.84"/>
<path clip-path="url(#clip261)" d="M839.546 1494.37 L839.546 1526.37 L871.546 1526.37 L871.546 1494.37 L839.546 1494.37 Z" fill="#e26f46" fill-rule="evenodd" fill-opacity="1" stroke="#000000" stroke-opacity="1" stroke-width="3.84"/>
<path clip-path="url(#clip261)" d="M1026.84 1583.51 L1026.84 1615.51 L1058.84 1615.51 L1058.84 1583.51 L1026.84 1583.51 Z" fill="#e26f46" fill-rule="evenodd" fill-opacity="1" stroke="#000000" stroke-opacity="1" stroke-width="3.84"/>
<path clip-path="url(#clip261)" d="M1401.42 1316.09 L1401.42 1348.09 L1433.42 1348.09 L1433.42 1316.09 L1401.42 1316.09 Z" fill="#e26f46" fill-rule="evenodd" fill-opacity="1" stroke="#000000" stroke-opacity="1" stroke-width="3.84"/>
<path clip-path="url(#clip261)" d="M1838.44 1137.81 L1838.44 1169.81 L1870.44 1169.81 L1870.44 1137.81 L1838.44 1137.81 Z" fill="#e26f46" fill-rule="evenodd" fill-opacity="1" stroke="#000000" stroke-opacity="1" stroke-width="3.84"/>
<path clip-path="url(#clip261)" d="M2556.39 1405.23 L2556.39 1437.23 L2588.39 1437.23 L2588.39 1405.23 L2556.39 1405.23 Z" fill="#e26f46" fill-rule="evenodd" fill-opacity="1" stroke="#000000" stroke-opacity="1" stroke-width="3.84"/>
<polyline clip-path="url(#clip261)" style="stroke:#3da44d; stroke-linecap:round; stroke-linejoin:round; stroke-width:8; stroke-opacity:1; fill:none" points="293.669,1510.37 480.961,1332.09 668.254,1064.67 855.546,1242.95 1042.84,1599.51 1417.42,1510.37 1854.44,1421.23 2572.39,1510.37 "/>
<path clip-path="url(#clip261)" d="M293.669 1494.37 L277.669 1510.37 L293.669 1526.37 L309.669 1510.37 L293.669 1494.37 Z" fill="#3da44d" fill-rule="evenodd" fill-opacity="1" stroke="#000000" stroke-opacity="1" stroke-width="3.84"/>
<path clip-path="url(#clip261)" d="M480.961 1316.09 L464.961 1332.09 L480.961 1348.09 L496.961 1332.09 L480.961 1316.09 Z" fill="#3da44d" fill-rule="evenodd" fill-opacity="1" stroke="#000000" stroke-opacity="1" stroke-width="3.84"/>
<path clip-path="url(#clip261)" d="M668.254 1048.67 L652.254 1064.67 L668.254 1080.67 L684.254 1064.67 L668.254 1048.67 Z" fill="#3da44d" fill-rule="evenodd" fill-opacity="1" stroke="#000000" stroke-opacity="1" stroke-width="3.84"/>
<path clip-path="url(#clip261)" d="M855.546 1226.95 L839.546 1242.95 L855.546 1258.95 L871.546 1242.95 L855.546 1226.95 Z" fill="#3da44d" fill-rule="evenodd" fill-opacity="1" stroke="#000000" stroke-opacity="1" stroke-width="3.84"/>
<path clip-path="url(#clip261)" d="M1042.84 1583.51 L1026.84 1599.51 L1042.84 1615.51 L1058.84 1599.51 L1042.84 1583.51 Z" fill="#3da44d" fill-rule="evenodd" fill-opacity="1" stroke="#000000" stroke-opacity="1" stroke-width="3.84"/>
<path clip-path="url(#clip261)" d="M1417.42 1494.37 L1401.42 1510.37 L1417.42 1526.37 L1433.42 1510.37 L1417.42 1494.37 Z" fill="#3da44d" fill-rule="evenodd" fill-opacity="1" stroke="#000000" stroke-opacity="1" stroke-width="3.84"/>
<path clip-path="url(#clip261)" d="M1854.44 1405.23 L1838.44 1421.23 L1854.44 1437.23 L1870.44 1421.23 L1854.44 1405.23 Z" fill="#3da44d" fill-rule="evenodd" fill-opacity="1" stroke="#000000" stroke-opacity="1" stroke-width="3.84"/>
<path clip-path="url(#clip261)" d="M2572.39 1494.37 L2556.39 1510.37 L2572.39 1526.37 L2588.39 1510.37 L2572.39 1494.37 Z" fill="#3da44d" fill-rule="evenodd" fill-opacity="1" stroke="#000000" stroke-opacity="1" stroke-width="3.84"/>
<polyline clip-path="url(#clip261)" style="stroke:#808080; stroke-linecap:round; stroke-linejoin:round; stroke-width:4; stroke-opacity:1; fill:none" stroke-dasharray="16, 10" points="-2190.14,1510.37 5056.2,1510.37 "/>
<path clip-path="url(#clip260)" d="M1838.88 440.536 L2560.24 440.536 L2560.24 181.336 L1838.88 181.336  Z" fill="#ffffff" fill-rule="evenodd" fill-opacity="1"/>
<polyline clip-path="url(#clip260)" style="stroke:#000000; stroke-linecap:round; stroke-linejoin:round; stroke-width:4; stroke-opacity:1; fill:none" points="1838.88,440.536 2560.24,440.536 2560.24,181.336 1838.88,181.336 1838.88,440.536 "/>
<polyline clip-path="url(#clip260)" style="stroke:#009af9; stroke-linecap:round; stroke-linejoin:round; stroke-width:8; stroke-opacity:1; fill:none" points="1865.72,233.176 2026.75,233.176 "/>
<circle clip-path="url(#clip260)" cx="1946.24" cy="233.176" r="20.48" fill="#009af9" fill-rule="evenodd" fill-opacity="1" stroke="#000000" stroke-opacity="1" stroke-width="5.46133"/>
<path clip-path="url(#clip260)" d="M2069.98 234.253 Q2071.48 234.762 2072.9 236.429 Q2074.33 238.095 2075.77 241.012 L2080.51 250.456 L2075.49 250.456 L2071.07 241.591 Q2069.35 238.118 2067.73 236.984 Q2066.14 235.85 2063.36 235.85 L2058.27 235.85 L2058.27 250.456 L2053.59 250.456 L2053.59 215.896 L2064.15 215.896 Q2070.07 215.896 2072.99 218.373 Q2075.91 220.85 2075.91 225.85 Q2075.91 229.114 2074.38 231.267 Q2072.87 233.419 2069.98 234.253 M2058.27 219.739 L2058.27 232.007 L2064.15 232.007 Q2067.53 232.007 2069.24 230.456 Q2070.97 228.882 2070.97 225.85 Q2070.97 222.818 2069.24 221.29 Q2067.53 219.739 2064.15 219.739 L2058.27 219.739 Z" fill="#000000" fill-rule="nonzero" fill-opacity="1" /><path clip-path="url(#clip260)" d="M2106.39 236.429 L2106.39 238.512 L2086.81 238.512 Q2087.09 242.91 2089.45 245.225 Q2091.83 247.516 2096.07 247.516 Q2098.52 247.516 2100.81 246.915 Q2103.13 246.313 2105.4 245.109 L2105.4 249.137 Q2103.1 250.109 2100.7 250.618 Q2098.29 251.128 2095.81 251.128 Q2089.61 251.128 2085.97 247.516 Q2082.36 243.905 2082.36 237.748 Q2082.36 231.382 2085.79 227.655 Q2089.24 223.906 2095.07 223.906 Q2100.3 223.906 2103.34 227.285 Q2106.39 230.642 2106.39 236.429 M2102.13 235.179 Q2102.09 231.683 2100.16 229.6 Q2098.27 227.517 2095.12 227.517 Q2091.55 227.517 2089.4 229.53 Q2087.27 231.544 2086.95 235.202 L2102.13 235.179 Z" fill="#000000" fill-rule="nonzero" fill-opacity="1" /><path clip-path="url(#clip260)" d="M2130.44 237.192 Q2130.44 232.563 2128.52 230.017 Q2126.62 227.47 2123.17 227.47 Q2119.75 227.47 2117.83 230.017 Q2115.93 232.563 2115.93 237.192 Q2115.93 241.799 2117.83 244.345 Q2119.75 246.891 2123.17 246.891 Q2126.62 246.891 2128.52 244.345 Q2130.44 241.799 2130.44 237.192 M2134.7 247.239 Q2134.7 253.859 2131.76 257.077 Q2128.82 260.317 2122.76 260.317 Q2120.51 260.317 2118.52 259.97 Q2116.53 259.646 2114.65 258.952 L2114.65 254.808 Q2116.53 255.827 2118.36 256.313 Q2120.19 256.799 2122.09 256.799 Q2126.28 256.799 2128.36 254.6 Q2130.44 252.424 2130.44 248.003 L2130.44 245.896 Q2129.12 248.188 2127.06 249.322 Q2125 250.456 2122.13 250.456 Q2117.36 250.456 2114.45 246.822 Q2111.53 243.188 2111.53 237.192 Q2111.53 231.174 2114.45 227.54 Q2117.36 223.906 2122.13 223.906 Q2125 223.906 2127.06 225.04 Q2129.12 226.174 2130.44 228.466 L2130.44 224.531 L2134.7 224.531 L2134.7 247.239 Z" fill="#000000" fill-rule="nonzero" fill-opacity="1" /><path clip-path="url(#clip260)" d="M2143.47 224.531 L2147.73 224.531 L2147.73 250.456 L2143.47 250.456 L2143.47 224.531 M2143.47 214.438 L2147.73 214.438 L2147.73 219.831 L2143.47 219.831 L2143.47 214.438 Z" fill="#000000" fill-rule="nonzero" fill-opacity="1" /><path clip-path="url(#clip260)" d="M2166.69 227.517 Q2163.27 227.517 2161.27 230.202 Q2159.28 232.864 2159.28 237.517 Q2159.28 242.169 2161.25 244.854 Q2163.24 247.516 2166.69 247.516 Q2170.09 247.516 2172.09 244.831 Q2174.08 242.146 2174.08 237.517 Q2174.08 232.91 2172.09 230.225 Q2170.09 227.517 2166.69 227.517 M2166.69 223.906 Q2172.25 223.906 2175.42 227.517 Q2178.59 231.128 2178.59 237.517 Q2178.59 243.882 2175.42 247.516 Q2172.25 251.128 2166.69 251.128 Q2161.11 251.128 2157.94 247.516 Q2154.79 243.882 2154.79 237.517 Q2154.79 231.128 2157.94 227.517 Q2161.11 223.906 2166.69 223.906 Z" fill="#000000" fill-rule="nonzero" fill-opacity="1" /><path clip-path="url(#clip260)" d="M2207.2 234.808 L2207.2 250.456 L2202.94 250.456 L2202.94 234.947 Q2202.94 231.267 2201.51 229.438 Q2200.07 227.609 2197.2 227.609 Q2193.75 227.609 2191.76 229.808 Q2189.77 232.007 2189.77 235.804 L2189.77 250.456 L2185.49 250.456 L2185.49 224.531 L2189.77 224.531 L2189.77 228.558 Q2191.3 226.22 2193.36 225.063 Q2195.44 223.906 2198.15 223.906 Q2202.62 223.906 2204.91 226.683 Q2207.2 229.438 2207.2 234.808 Z" fill="#000000" fill-rule="nonzero" fill-opacity="1" /><path clip-path="url(#clip260)" d="M2232.18 246.521 L2239.82 246.521 L2239.82 220.156 L2231.51 221.822 L2231.51 217.563 L2239.77 215.896 L2244.45 215.896 L2244.45 246.521 L2252.08 246.521 L2252.08 250.456 L2232.18 250.456 L2232.18 246.521 Z" fill="#000000" fill-rule="nonzero" fill-opacity="1" /><path clip-path="url(#clip260)" d="M2286.23 214.484 Q2283.13 219.808 2281.62 225.017 Q2280.12 230.225 2280.12 235.572 Q2280.12 240.919 2281.62 246.174 Q2283.15 251.405 2286.23 256.706 L2282.52 256.706 Q2279.05 251.266 2277.32 246.012 Q2275.6 240.757 2275.6 235.572 Q2275.6 230.41 2277.32 225.179 Q2279.03 219.947 2282.52 214.484 L2286.23 214.484 Z" fill="#000000" fill-rule="nonzero" fill-opacity="1" /><path clip-path="url(#clip260)" d="M2294.14 215.896 L2298.84 215.896 L2298.84 236.892 Q2298.84 242.447 2300.86 244.901 Q2302.87 247.331 2307.39 247.331 Q2311.88 247.331 2313.89 244.901 Q2315.9 242.447 2315.9 236.892 L2315.9 215.896 L2320.6 215.896 L2320.6 237.47 Q2320.6 244.229 2317.25 247.679 Q2313.91 251.128 2307.39 251.128 Q2300.83 251.128 2297.48 247.679 Q2294.14 244.229 2294.14 237.47 L2294.14 215.896 Z" fill="#000000" fill-rule="nonzero" fill-opacity="1" /><path clip-path="url(#clip260)" d="M2344.21 228.512 Q2343.5 228.095 2342.64 227.91 Q2341.81 227.702 2340.79 227.702 Q2337.18 227.702 2335.23 230.063 Q2333.31 232.401 2333.31 236.799 L2333.31 250.456 L2329.03 250.456 L2329.03 224.531 L2333.31 224.531 L2333.31 228.558 Q2334.65 226.197 2336.81 225.063 Q2338.96 223.906 2342.04 223.906 Q2342.48 223.906 2343.01 223.975 Q2343.54 224.021 2344.19 224.137 L2344.21 228.512 Z" fill="#000000" fill-rule="nonzero" fill-opacity="1" /><path clip-path="url(#clip260)" d="M2367.29 237.517 Q2367.29 232.817 2365.35 230.155 Q2363.43 227.47 2360.05 227.47 Q2356.67 227.47 2354.72 230.155 Q2352.8 232.817 2352.8 237.517 Q2352.8 242.216 2354.72 244.901 Q2356.67 247.563 2360.05 247.563 Q2363.43 247.563 2365.35 244.901 Q2367.29 242.216 2367.29 237.517 M2352.8 228.466 Q2354.14 226.151 2356.18 225.04 Q2358.24 223.906 2361.09 223.906 Q2365.81 223.906 2368.75 227.655 Q2371.71 231.405 2371.71 237.517 Q2371.71 243.628 2368.75 247.378 Q2365.81 251.128 2361.09 251.128 Q2358.24 251.128 2356.18 250.016 Q2354.14 248.882 2352.8 246.567 L2352.8 250.456 L2348.52 250.456 L2348.52 214.438 L2352.8 214.438 L2352.8 228.466 Z" fill="#000000" fill-rule="nonzero" fill-opacity="1" /><path clip-path="url(#clip260)" d="M2390.56 237.424 Q2385.39 237.424 2383.4 238.604 Q2381.41 239.785 2381.41 242.632 Q2381.41 244.901 2382.89 246.243 Q2384.4 247.563 2386.97 247.563 Q2390.51 247.563 2392.64 245.063 Q2394.79 242.54 2394.79 238.373 L2394.79 237.424 L2390.56 237.424 M2399.05 235.665 L2399.05 250.456 L2394.79 250.456 L2394.79 246.521 Q2393.33 248.882 2391.16 250.016 Q2388.98 251.128 2385.83 251.128 Q2381.85 251.128 2379.49 248.905 Q2377.15 246.66 2377.15 242.91 Q2377.15 238.535 2380.07 236.313 Q2383.01 234.091 2388.82 234.091 L2394.79 234.091 L2394.79 233.674 Q2394.79 230.734 2392.85 229.137 Q2390.93 227.517 2387.43 227.517 Q2385.21 227.517 2383.1 228.049 Q2381 228.581 2379.05 229.646 L2379.05 225.711 Q2381.39 224.808 2383.59 224.368 Q2385.79 223.906 2387.87 223.906 Q2393.5 223.906 2396.27 226.822 Q2399.05 229.739 2399.05 235.665 Z" fill="#000000" fill-rule="nonzero" fill-opacity="1" /><path clip-path="url(#clip260)" d="M2429.38 234.808 L2429.38 250.456 L2425.12 250.456 L2425.12 234.947 Q2425.12 231.267 2423.68 229.438 Q2422.25 227.609 2419.38 227.609 Q2415.93 227.609 2413.94 229.808 Q2411.94 232.007 2411.94 235.804 L2411.94 250.456 L2407.66 250.456 L2407.66 224.531 L2411.94 224.531 L2411.94 228.558 Q2413.47 226.22 2415.53 225.063 Q2417.62 223.906 2420.32 223.906 Q2424.79 223.906 2427.08 226.683 Q2429.38 229.438 2429.38 234.808 Z" fill="#000000" fill-rule="nonzero" fill-opacity="1" /><path clip-path="url(#clip260)" d="M2437.2 214.484 L2440.9 214.484 Q2444.38 219.947 2446.09 225.179 Q2447.82 230.41 2447.82 235.572 Q2447.82 240.757 2446.09 246.012 Q2444.38 251.266 2440.9 256.706 L2437.2 256.706 Q2440.28 251.405 2441.78 246.174 Q2443.31 240.919 2443.31 235.572 Q2443.31 230.225 2441.78 225.017 Q2440.28 219.808 2437.2 214.484 Z" fill="#000000" fill-rule="nonzero" fill-opacity="1" /><polyline clip-path="url(#clip260)" style="stroke:#e26f46; stroke-linecap:round; stroke-linejoin:round; stroke-width:8; stroke-opacity:1; fill:none" points="1865.72,285.016 2026.75,285.016 "/>
<path clip-path="url(#clip260)" d="M1923.48 262.261 L1923.48 307.772 L1968.99 307.772 L1968.99 262.261 L1923.48 262.261 Z" fill="#e26f46" fill-rule="evenodd" fill-opacity="1" stroke="#000000" stroke-opacity="1" stroke-width="5.46133"/>
<path clip-path="url(#clip260)" d="M2069.98 286.093 Q2071.48 286.602 2072.9 288.269 Q2074.33 289.935 2075.77 292.852 L2080.51 302.296 L2075.49 302.296 L2071.07 293.431 Q2069.35 289.958 2067.73 288.824 Q2066.14 287.69 2063.36 287.69 L2058.27 287.69 L2058.27 302.296 L2053.59 302.296 L2053.59 267.736 L2064.15 267.736 Q2070.07 267.736 2072.99 270.213 Q2075.91 272.69 2075.91 277.69 Q2075.91 280.954 2074.38 283.107 Q2072.87 285.259 2069.98 286.093 M2058.27 271.579 L2058.27 283.847 L2064.15 283.847 Q2067.53 283.847 2069.24 282.296 Q2070.97 280.722 2070.97 277.69 Q2070.97 274.658 2069.24 273.13 Q2067.53 271.579 2064.15 271.579 L2058.27 271.579 Z" fill="#000000" fill-rule="nonzero" fill-opacity="1" /><path clip-path="url(#clip260)" d="M2106.39 288.269 L2106.39 290.352 L2086.81 290.352 Q2087.09 294.75 2089.45 297.065 Q2091.83 299.356 2096.07 299.356 Q2098.52 299.356 2100.81 298.755 Q2103.13 298.153 2105.4 296.949 L2105.4 300.977 Q2103.1 301.949 2100.7 302.458 Q2098.29 302.968 2095.81 302.968 Q2089.61 302.968 2085.97 299.356 Q2082.36 295.745 2082.36 289.588 Q2082.36 283.222 2085.79 279.495 Q2089.24 275.746 2095.07 275.746 Q2100.3 275.746 2103.34 279.125 Q2106.39 282.482 2106.39 288.269 M2102.13 287.019 Q2102.09 283.523 2100.16 281.44 Q2098.27 279.357 2095.12 279.357 Q2091.55 279.357 2089.4 281.37 Q2087.27 283.384 2086.95 287.042 L2102.13 287.019 Z" fill="#000000" fill-rule="nonzero" fill-opacity="1" /><path clip-path="url(#clip260)" d="M2130.44 289.032 Q2130.44 284.403 2128.52 281.857 Q2126.62 279.31 2123.17 279.31 Q2119.75 279.31 2117.83 281.857 Q2115.93 284.403 2115.93 289.032 Q2115.93 293.639 2117.83 296.185 Q2119.75 298.731 2123.17 298.731 Q2126.62 298.731 2128.52 296.185 Q2130.44 293.639 2130.44 289.032 M2134.7 299.079 Q2134.7 305.699 2131.76 308.917 Q2128.82 312.157 2122.76 312.157 Q2120.51 312.157 2118.52 311.81 Q2116.53 311.486 2114.65 310.792 L2114.65 306.648 Q2116.53 307.667 2118.36 308.153 Q2120.19 308.639 2122.09 308.639 Q2126.28 308.639 2128.36 306.44 Q2130.44 304.264 2130.44 299.843 L2130.44 297.736 Q2129.12 300.028 2127.06 301.162 Q2125 302.296 2122.13 302.296 Q2117.36 302.296 2114.45 298.662 Q2111.53 295.028 2111.53 289.032 Q2111.53 283.014 2114.45 279.38 Q2117.36 275.746 2122.13 275.746 Q2125 275.746 2127.06 276.88 Q2129.12 278.014 2130.44 280.306 L2130.44 276.371 L2134.7 276.371 L2134.7 299.079 Z" fill="#000000" fill-rule="nonzero" fill-opacity="1" /><path clip-path="url(#clip260)" d="M2143.47 276.371 L2147.73 276.371 L2147.73 302.296 L2143.47 302.296 L2143.47 276.371 M2143.47 266.278 L2147.73 266.278 L2147.73 271.671 L2143.47 271.671 L2143.47 266.278 Z" fill="#000000" fill-rule="nonzero" fill-opacity="1" /><path clip-path="url(#clip260)" d="M2166.69 279.357 Q2163.27 279.357 2161.27 282.042 Q2159.28 284.704 2159.28 289.357 Q2159.28 294.009 2161.25 296.694 Q2163.24 299.356 2166.69 299.356 Q2170.09 299.356 2172.09 296.671 Q2174.08 293.986 2174.08 289.357 Q2174.08 284.75 2172.09 282.065 Q2170.09 279.357 2166.69 279.357 M2166.69 275.746 Q2172.25 275.746 2175.42 279.357 Q2178.59 282.968 2178.59 289.357 Q2178.59 295.722 2175.42 299.356 Q2172.25 302.968 2166.69 302.968 Q2161.11 302.968 2157.94 299.356 Q2154.79 295.722 2154.79 289.357 Q2154.79 282.968 2157.94 279.357 Q2161.11 275.746 2166.69 275.746 Z" fill="#000000" fill-rule="nonzero" fill-opacity="1" /><path clip-path="url(#clip260)" d="M2207.2 286.648 L2207.2 302.296 L2202.94 302.296 L2202.94 286.787 Q2202.94 283.107 2201.51 281.278 Q2200.07 279.449 2197.2 279.449 Q2193.75 279.449 2191.76 281.648 Q2189.77 283.847 2189.77 287.644 L2189.77 302.296 L2185.49 302.296 L2185.49 276.371 L2189.77 276.371 L2189.77 280.398 Q2191.3 278.06 2193.36 276.903 Q2195.44 275.746 2198.15 275.746 Q2202.62 275.746 2204.91 278.523 Q2207.2 281.278 2207.2 286.648 Z" fill="#000000" fill-rule="nonzero" fill-opacity="1" /><path clip-path="url(#clip260)" d="M2235.39 298.361 L2251.71 298.361 L2251.71 302.296 L2229.77 302.296 L2229.77 298.361 Q2232.43 295.607 2237.02 290.977 Q2241.62 286.324 2242.8 284.982 Q2245.05 282.458 2245.93 280.722 Q2246.83 278.963 2246.83 277.273 Q2246.83 274.519 2244.89 272.783 Q2242.96 271.046 2239.86 271.046 Q2237.66 271.046 2235.21 271.81 Q2232.78 272.574 2230 274.125 L2230 269.403 Q2232.83 268.269 2235.28 267.69 Q2237.73 267.111 2239.77 267.111 Q2245.14 267.111 2248.33 269.796 Q2251.53 272.482 2251.53 276.972 Q2251.53 279.102 2250.72 281.023 Q2249.93 282.921 2247.83 285.514 Q2247.25 286.185 2244.14 289.403 Q2241.04 292.597 2235.39 298.361 Z" fill="#000000" fill-rule="nonzero" fill-opacity="1" /><path clip-path="url(#clip260)" d="M2286.23 266.324 Q2283.13 271.648 2281.62 276.857 Q2280.12 282.065 2280.12 287.412 Q2280.12 292.759 2281.62 298.014 Q2283.15 303.245 2286.23 308.546 L2282.52 308.546 Q2279.05 303.106 2277.32 297.852 Q2275.6 292.597 2275.6 287.412 Q2275.6 282.25 2277.32 277.019 Q2279.03 271.787 2282.52 266.324 L2286.23 266.324 Z" fill="#000000" fill-rule="nonzero" fill-opacity="1" /><path clip-path="url(#clip260)" d="M2315.39 268.871 L2315.39 273.431 Q2312.73 272.158 2310.37 271.533 Q2308.01 270.908 2305.81 270.908 Q2301.99 270.908 2299.91 272.389 Q2297.85 273.871 2297.85 276.602 Q2297.85 278.894 2299.21 280.074 Q2300.6 281.232 2304.45 281.949 L2307.27 282.528 Q2312.5 283.523 2314.98 286.046 Q2317.48 288.546 2317.48 292.759 Q2317.48 297.782 2314.1 300.375 Q2310.74 302.968 2304.24 302.968 Q2301.78 302.968 2299.01 302.412 Q2296.25 301.856 2293.29 300.769 L2293.29 295.954 Q2296.14 297.551 2298.87 298.361 Q2301.6 299.171 2304.24 299.171 Q2308.24 299.171 2310.42 297.597 Q2312.59 296.023 2312.59 293.107 Q2312.59 290.56 2311.02 289.125 Q2309.47 287.69 2305.9 286.972 L2303.06 286.417 Q2297.83 285.375 2295.49 283.153 Q2293.15 280.931 2293.15 276.972 Q2293.15 272.389 2296.37 269.75 Q2299.61 267.111 2305.28 267.111 Q2307.71 267.111 2310.23 267.551 Q2312.76 267.991 2315.39 268.871 Z" fill="#000000" fill-rule="nonzero" fill-opacity="1" /><path clip-path="url(#clip260)" d="M2324.14 292.065 L2324.14 276.371 L2328.4 276.371 L2328.4 291.903 Q2328.4 295.583 2329.84 297.435 Q2331.27 299.264 2334.14 299.264 Q2337.59 299.264 2339.58 297.065 Q2341.6 294.866 2341.6 291.069 L2341.6 276.371 L2345.86 276.371 L2345.86 302.296 L2341.6 302.296 L2341.6 298.315 Q2340.05 300.676 2337.99 301.833 Q2335.95 302.968 2333.24 302.968 Q2328.77 302.968 2326.46 300.19 Q2324.14 297.412 2324.14 292.065 M2334.86 275.746 L2334.86 275.746 Z" fill="#000000" fill-rule="nonzero" fill-opacity="1" /><path clip-path="url(#clip260)" d="M2373.24 289.357 Q2373.24 284.657 2371.3 281.995 Q2369.38 279.31 2366 279.31 Q2362.62 279.31 2360.67 281.995 Q2358.75 284.657 2358.75 289.357 Q2358.75 294.056 2360.67 296.741 Q2362.62 299.403 2366 299.403 Q2369.38 299.403 2371.3 296.741 Q2373.24 294.056 2373.24 289.357 M2358.75 280.306 Q2360.09 277.991 2362.13 276.88 Q2364.19 275.746 2367.04 275.746 Q2371.76 275.746 2374.7 279.495 Q2377.66 283.245 2377.66 289.357 Q2377.66 295.468 2374.7 299.218 Q2371.76 302.968 2367.04 302.968 Q2364.19 302.968 2362.13 301.856 Q2360.09 300.722 2358.75 298.407 L2358.75 302.296 L2354.47 302.296 L2354.47 266.278 L2358.75 266.278 L2358.75 280.306 Z" fill="#000000" fill-rule="nonzero" fill-opacity="1" /><path clip-path="url(#clip260)" d="M2384.28 292.065 L2384.28 276.371 L2388.54 276.371 L2388.54 291.903 Q2388.54 295.583 2389.98 297.435 Q2391.41 299.264 2394.28 299.264 Q2397.73 299.264 2399.72 297.065 Q2401.74 294.866 2401.74 291.069 L2401.74 276.371 L2406 276.371 L2406 302.296 L2401.74 302.296 L2401.74 298.315 Q2400.19 300.676 2398.13 301.833 Q2396.09 302.968 2393.38 302.968 Q2388.91 302.968 2386.6 300.19 Q2384.28 297.412 2384.28 292.065 M2395 275.746 L2395 275.746 Z" fill="#000000" fill-rule="nonzero" fill-opacity="1" /><path clip-path="url(#clip260)" d="M2429.79 280.352 Q2429.07 279.935 2428.22 279.75 Q2427.38 279.542 2426.37 279.542 Q2422.76 279.542 2420.81 281.903 Q2418.89 284.241 2418.89 288.639 L2418.89 302.296 L2414.61 302.296 L2414.61 276.371 L2418.89 276.371 L2418.89 280.398 Q2420.23 278.037 2422.38 276.903 Q2424.54 275.746 2427.62 275.746 Q2428.06 275.746 2428.59 275.815 Q2429.12 275.861 2429.77 275.977 L2429.79 280.352 Z" fill="#000000" fill-rule="nonzero" fill-opacity="1" /><path clip-path="url(#clip260)" d="M2452.87 289.357 Q2452.87 284.657 2450.93 281.995 Q2449 279.31 2445.63 279.31 Q2442.25 279.31 2440.3 281.995 Q2438.38 284.657 2438.38 289.357 Q2438.38 294.056 2440.3 296.741 Q2442.25 299.403 2445.63 299.403 Q2449 299.403 2450.93 296.741 Q2452.87 294.056 2452.87 289.357 M2438.38 280.306 Q2439.72 277.991 2441.76 276.88 Q2443.82 275.746 2446.67 275.746 Q2451.39 275.746 2454.33 279.495 Q2457.29 283.245 2457.29 289.357 Q2457.29 295.468 2454.33 299.218 Q2451.39 302.968 2446.67 302.968 Q2443.82 302.968 2441.76 301.856 Q2439.72 300.722 2438.38 298.407 L2438.38 302.296 L2434.1 302.296 L2434.1 266.278 L2438.38 266.278 L2438.38 280.306 Z" fill="#000000" fill-rule="nonzero" fill-opacity="1" /><path clip-path="url(#clip260)" d="M2476.13 289.264 Q2470.97 289.264 2468.98 290.444 Q2466.99 291.625 2466.99 294.472 Q2466.99 296.741 2468.47 298.083 Q2469.98 299.403 2472.55 299.403 Q2476.09 299.403 2478.22 296.903 Q2480.37 294.38 2480.37 290.213 L2480.37 289.264 L2476.13 289.264 M2484.63 287.505 L2484.63 302.296 L2480.37 302.296 L2480.37 298.361 Q2478.91 300.722 2476.74 301.856 Q2474.56 302.968 2471.41 302.968 Q2467.43 302.968 2465.07 300.745 Q2462.73 298.5 2462.73 294.75 Q2462.73 290.375 2465.65 288.153 Q2468.59 285.931 2474.4 285.931 L2480.37 285.931 L2480.37 285.514 Q2480.37 282.574 2478.43 280.977 Q2476.5 279.357 2473.01 279.357 Q2470.79 279.357 2468.68 279.889 Q2466.57 280.421 2464.63 281.486 L2464.63 277.551 Q2466.97 276.648 2469.17 276.208 Q2471.37 275.746 2473.45 275.746 Q2479.07 275.746 2481.85 278.662 Q2484.63 281.579 2484.63 287.505 Z" fill="#000000" fill-rule="nonzero" fill-opacity="1" /><path clip-path="url(#clip260)" d="M2514.95 286.648 L2514.95 302.296 L2510.69 302.296 L2510.69 286.787 Q2510.69 283.107 2509.26 281.278 Q2507.82 279.449 2504.95 279.449 Q2501.5 279.449 2499.51 281.648 Q2497.52 283.847 2497.52 287.644 L2497.52 302.296 L2493.24 302.296 L2493.24 276.371 L2497.52 276.371 L2497.52 280.398 Q2499.05 278.06 2501.11 276.903 Q2503.19 275.746 2505.9 275.746 Q2510.37 275.746 2512.66 278.523 Q2514.95 281.278 2514.95 286.648 Z" fill="#000000" fill-rule="nonzero" fill-opacity="1" /><path clip-path="url(#clip260)" d="M2522.78 266.324 L2526.48 266.324 Q2529.95 271.787 2531.67 277.019 Q2533.4 282.25 2533.4 287.412 Q2533.4 292.597 2531.67 297.852 Q2529.95 303.106 2526.48 308.546 L2522.78 308.546 Q2525.86 303.245 2527.36 298.014 Q2528.89 292.759 2528.89 287.412 Q2528.89 282.065 2527.36 276.857 Q2525.86 271.648 2522.78 266.324 Z" fill="#000000" fill-rule="nonzero" fill-opacity="1" /><polyline clip-path="url(#clip260)" style="stroke:#3da44d; stroke-linecap:round; stroke-linejoin:round; stroke-width:8; stroke-opacity:1; fill:none" points="1865.72,336.856 2026.75,336.856 "/>
<path clip-path="url(#clip260)" d="M1946.24 314.101 L1923.48 336.856 L1946.24 359.612 L1968.99 336.856 L1946.24 314.101 Z" fill="#3da44d" fill-rule="evenodd" fill-opacity="1" stroke="#000000" stroke-opacity="1" stroke-width="5.46133"/>
<path clip-path="url(#clip260)" d="M2069.98 337.933 Q2071.48 338.442 2072.9 340.109 Q2074.33 341.775 2075.77 344.692 L2080.51 354.136 L2075.49 354.136 L2071.07 345.271 Q2069.35 341.798 2067.73 340.664 Q2066.14 339.53 2063.36 339.53 L2058.27 339.53 L2058.27 354.136 L2053.59 354.136 L2053.59 319.576 L2064.15 319.576 Q2070.07 319.576 2072.99 322.053 Q2075.91 324.53 2075.91 329.53 Q2075.91 332.794 2074.38 334.947 Q2072.87 337.099 2069.98 337.933 M2058.27 323.419 L2058.27 335.687 L2064.15 335.687 Q2067.53 335.687 2069.24 334.136 Q2070.97 332.562 2070.97 329.53 Q2070.97 326.498 2069.24 324.97 Q2067.53 323.419 2064.15 323.419 L2058.27 323.419 Z" fill="#000000" fill-rule="nonzero" fill-opacity="1" /><path clip-path="url(#clip260)" d="M2106.39 340.109 L2106.39 342.192 L2086.81 342.192 Q2087.09 346.59 2089.45 348.905 Q2091.83 351.196 2096.07 351.196 Q2098.52 351.196 2100.81 350.595 Q2103.13 349.993 2105.4 348.789 L2105.4 352.817 Q2103.1 353.789 2100.7 354.298 Q2098.29 354.808 2095.81 354.808 Q2089.61 354.808 2085.97 351.196 Q2082.36 347.585 2082.36 341.428 Q2082.36 335.062 2085.79 331.335 Q2089.24 327.586 2095.07 327.586 Q2100.3 327.586 2103.34 330.965 Q2106.39 334.322 2106.39 340.109 M2102.13 338.859 Q2102.09 335.363 2100.16 333.28 Q2098.27 331.197 2095.12 331.197 Q2091.55 331.197 2089.4 333.21 Q2087.27 335.224 2086.95 338.882 L2102.13 338.859 Z" fill="#000000" fill-rule="nonzero" fill-opacity="1" /><path clip-path="url(#clip260)" d="M2130.44 340.872 Q2130.44 336.243 2128.52 333.697 Q2126.62 331.15 2123.17 331.15 Q2119.75 331.15 2117.83 333.697 Q2115.93 336.243 2115.93 340.872 Q2115.93 345.479 2117.83 348.025 Q2119.75 350.571 2123.17 350.571 Q2126.62 350.571 2128.52 348.025 Q2130.44 345.479 2130.44 340.872 M2134.7 350.919 Q2134.7 357.539 2131.76 360.757 Q2128.82 363.997 2122.76 363.997 Q2120.51 363.997 2118.52 363.65 Q2116.53 363.326 2114.65 362.632 L2114.65 358.488 Q2116.53 359.507 2118.36 359.993 Q2120.19 360.479 2122.09 360.479 Q2126.28 360.479 2128.36 358.28 Q2130.44 356.104 2130.44 351.683 L2130.44 349.576 Q2129.12 351.868 2127.06 353.002 Q2125 354.136 2122.13 354.136 Q2117.36 354.136 2114.45 350.502 Q2111.53 346.868 2111.53 340.872 Q2111.53 334.854 2114.45 331.22 Q2117.36 327.586 2122.13 327.586 Q2125 327.586 2127.06 328.72 Q2129.12 329.854 2130.44 332.146 L2130.44 328.211 L2134.7 328.211 L2134.7 350.919 Z" fill="#000000" fill-rule="nonzero" fill-opacity="1" /><path clip-path="url(#clip260)" d="M2143.47 328.211 L2147.73 328.211 L2147.73 354.136 L2143.47 354.136 L2143.47 328.211 M2143.47 318.118 L2147.73 318.118 L2147.73 323.511 L2143.47 323.511 L2143.47 318.118 Z" fill="#000000" fill-rule="nonzero" fill-opacity="1" /><path clip-path="url(#clip260)" d="M2166.69 331.197 Q2163.27 331.197 2161.27 333.882 Q2159.28 336.544 2159.28 341.197 Q2159.28 345.849 2161.25 348.534 Q2163.24 351.196 2166.69 351.196 Q2170.09 351.196 2172.09 348.511 Q2174.08 345.826 2174.08 341.197 Q2174.08 336.59 2172.09 333.905 Q2170.09 331.197 2166.69 331.197 M2166.69 327.586 Q2172.25 327.586 2175.42 331.197 Q2178.59 334.808 2178.59 341.197 Q2178.59 347.562 2175.42 351.196 Q2172.25 354.808 2166.69 354.808 Q2161.11 354.808 2157.94 351.196 Q2154.79 347.562 2154.79 341.197 Q2154.79 334.808 2157.94 331.197 Q2161.11 327.586 2166.69 327.586 Z" fill="#000000" fill-rule="nonzero" fill-opacity="1" /><path clip-path="url(#clip260)" d="M2207.2 338.488 L2207.2 354.136 L2202.94 354.136 L2202.94 338.627 Q2202.94 334.947 2201.51 333.118 Q2200.07 331.289 2197.2 331.289 Q2193.75 331.289 2191.76 333.488 Q2189.77 335.687 2189.77 339.484 L2189.77 354.136 L2185.49 354.136 L2185.49 328.211 L2189.77 328.211 L2189.77 332.238 Q2191.3 329.9 2193.36 328.743 Q2195.44 327.586 2198.15 327.586 Q2202.62 327.586 2204.91 330.363 Q2207.2 333.118 2207.2 338.488 Z" fill="#000000" fill-rule="nonzero" fill-opacity="1" /><path clip-path="url(#clip260)" d="M2245.53 335.502 Q2248.89 336.22 2250.77 338.488 Q2252.66 340.757 2252.66 344.09 Q2252.66 349.206 2249.14 352.007 Q2245.63 354.808 2239.14 354.808 Q2236.97 354.808 2234.65 354.368 Q2232.36 353.951 2229.91 353.095 L2229.91 348.581 Q2231.85 349.715 2234.17 350.294 Q2236.48 350.872 2239.01 350.872 Q2243.4 350.872 2245.7 349.136 Q2248.01 347.4 2248.01 344.09 Q2248.01 341.035 2245.86 339.322 Q2243.73 337.585 2239.91 337.585 L2235.88 337.585 L2235.88 333.743 L2240.09 333.743 Q2243.54 333.743 2245.37 332.377 Q2247.2 330.988 2247.2 328.396 Q2247.2 325.734 2245.3 324.322 Q2243.43 322.886 2239.91 322.886 Q2237.99 322.886 2235.79 323.303 Q2233.59 323.72 2230.95 324.599 L2230.95 320.433 Q2233.61 319.692 2235.93 319.322 Q2238.27 318.951 2240.33 318.951 Q2245.65 318.951 2248.75 321.382 Q2251.85 323.789 2251.85 327.91 Q2251.85 330.78 2250.21 332.771 Q2248.57 334.738 2245.53 335.502 Z" fill="#000000" fill-rule="nonzero" fill-opacity="1" /><path clip-path="url(#clip260)" d="M2286.23 318.164 Q2283.13 323.488 2281.62 328.697 Q2280.12 333.905 2280.12 339.252 Q2280.12 344.599 2281.62 349.854 Q2283.15 355.085 2286.23 360.386 L2282.52 360.386 Q2279.05 354.946 2277.32 349.692 Q2275.6 344.437 2275.6 339.252 Q2275.6 334.09 2277.32 328.859 Q2279.03 323.627 2282.52 318.164 L2286.23 318.164 Z" fill="#000000" fill-rule="nonzero" fill-opacity="1" /><path clip-path="url(#clip260)" d="M2311.07 337.933 Q2312.57 338.442 2313.98 340.109 Q2315.42 341.775 2316.85 344.692 L2321.6 354.136 L2316.58 354.136 L2312.15 345.271 Q2310.44 341.798 2308.82 340.664 Q2307.22 339.53 2304.45 339.53 L2299.35 339.53 L2299.35 354.136 L2294.68 354.136 L2294.68 319.576 L2305.23 319.576 Q2311.16 319.576 2314.08 322.053 Q2316.99 324.53 2316.99 329.53 Q2316.99 332.794 2315.46 334.947 Q2313.96 337.099 2311.07 337.933 M2299.35 323.419 L2299.35 335.687 L2305.23 335.687 Q2308.61 335.687 2310.33 334.136 Q2312.06 332.562 2312.06 329.53 Q2312.06 326.498 2310.33 324.97 Q2308.61 323.419 2305.23 323.419 L2299.35 323.419 Z" fill="#000000" fill-rule="nonzero" fill-opacity="1" /><path clip-path="url(#clip260)" d="M2324.86 343.905 L2324.86 328.211 L2329.12 328.211 L2329.12 343.743 Q2329.12 347.423 2330.56 349.275 Q2331.99 351.104 2334.86 351.104 Q2338.31 351.104 2340.3 348.905 Q2342.32 346.706 2342.32 342.909 L2342.32 328.211 L2346.57 328.211 L2346.57 354.136 L2342.32 354.136 L2342.32 350.155 Q2340.76 352.516 2338.7 353.673 Q2336.67 354.808 2333.96 354.808 Q2329.49 354.808 2327.18 352.03 Q2324.86 349.252 2324.86 343.905 M2335.58 327.586 L2335.58 327.586 Z" fill="#000000" fill-rule="nonzero" fill-opacity="1" /><path clip-path="url(#clip260)" d="M2370.37 332.192 Q2369.65 331.775 2368.8 331.59 Q2367.96 331.382 2366.95 331.382 Q2363.33 331.382 2361.39 333.743 Q2359.47 336.081 2359.47 340.479 L2359.47 354.136 L2355.19 354.136 L2355.19 328.211 L2359.47 328.211 L2359.47 332.238 Q2360.81 329.877 2362.96 328.743 Q2365.12 327.586 2368.2 327.586 Q2368.63 327.586 2369.17 327.655 Q2369.7 327.701 2370.35 327.817 L2370.37 332.192 Z" fill="#000000" fill-rule="nonzero" fill-opacity="1" /><path clip-path="url(#clip260)" d="M2386.62 341.104 Q2381.46 341.104 2379.47 342.284 Q2377.48 343.465 2377.48 346.312 Q2377.48 348.581 2378.96 349.923 Q2380.46 351.243 2383.03 351.243 Q2386.57 351.243 2388.7 348.743 Q2390.86 346.22 2390.86 342.053 L2390.86 341.104 L2386.62 341.104 M2395.12 339.345 L2395.12 354.136 L2390.86 354.136 L2390.86 350.201 Q2389.4 352.562 2387.22 353.696 Q2385.05 354.808 2381.9 354.808 Q2377.92 354.808 2375.56 352.585 Q2373.22 350.34 2373.22 346.59 Q2373.22 342.215 2376.13 339.993 Q2379.07 337.771 2384.88 337.771 L2390.86 337.771 L2390.86 337.354 Q2390.86 334.414 2388.91 332.817 Q2386.99 331.197 2383.5 331.197 Q2381.27 331.197 2379.17 331.729 Q2377.06 332.261 2375.12 333.326 L2375.12 329.391 Q2377.45 328.488 2379.65 328.048 Q2381.85 327.586 2383.94 327.586 Q2389.56 327.586 2392.34 330.502 Q2395.12 333.419 2395.12 339.345 Z" fill="#000000" fill-rule="nonzero" fill-opacity="1" /><path clip-path="url(#clip260)" d="M2403.89 318.118 L2408.15 318.118 L2408.15 354.136 L2403.89 354.136 L2403.89 318.118 Z" fill="#000000" fill-rule="nonzero" fill-opacity="1" /><path clip-path="url(#clip260)" d="M2416.39 318.164 L2420.09 318.164 Q2423.57 323.627 2425.28 328.859 Q2427.01 334.09 2427.01 339.252 Q2427.01 344.437 2425.28 349.692 Q2423.57 354.946 2420.09 360.386 L2416.39 360.386 Q2419.47 355.085 2420.97 349.854 Q2422.5 344.599 2422.5 339.252 Q2422.5 333.905 2420.97 328.697 Q2419.47 323.488 2416.39 318.164 Z" fill="#000000" fill-rule="nonzero" fill-opacity="1" /><polyline clip-path="url(#clip260)" style="stroke:#808080; stroke-linecap:round; stroke-linejoin:round; stroke-width:4; stroke-opacity:1; fill:none" stroke-dasharray="16, 10" points="1865.72,388.696 2026.75,388.696 "/>
<path clip-path="url(#clip260)" d="M2069.98 389.773 Q2071.48 390.282 2072.9 391.949 Q2074.33 393.615 2075.77 396.532 L2080.51 405.976 L2075.49 405.976 L2071.07 397.111 Q2069.35 393.638 2067.73 392.504 Q2066.14 391.37 2063.36 391.37 L2058.27 391.37 L2058.27 405.976 L2053.59 405.976 L2053.59 371.416 L2064.15 371.416 Q2070.07 371.416 2072.99 373.893 Q2075.91 376.37 2075.91 381.37 Q2075.91 384.634 2074.38 386.787 Q2072.87 388.939 2069.98 389.773 M2058.27 375.259 L2058.27 387.527 L2064.15 387.527 Q2067.53 387.527 2069.24 385.976 Q2070.97 384.402 2070.97 381.37 Q2070.97 378.338 2069.24 376.81 Q2067.53 375.259 2064.15 375.259 L2058.27 375.259 Z" fill="#000000" fill-rule="nonzero" fill-opacity="1" /><path clip-path="url(#clip260)" d="M2090.56 372.689 L2090.56 380.051 L2099.33 380.051 L2099.33 383.361 L2090.56 383.361 L2090.56 397.435 Q2090.56 400.606 2091.41 401.509 Q2092.29 402.411 2094.96 402.411 L2099.33 402.411 L2099.33 405.976 L2094.96 405.976 Q2090.03 405.976 2088.15 404.148 Q2086.28 402.296 2086.28 397.435 L2086.28 383.361 L2083.15 383.361 L2083.15 380.051 L2086.28 380.051 L2086.28 372.689 L2090.56 372.689 Z" fill="#000000" fill-rule="nonzero" fill-opacity="1" /><path clip-path="url(#clip260)" d="M2120.56 384.449 L2150.23 384.449 L2150.23 388.337 L2120.56 388.337 L2120.56 384.449 M2120.56 393.893 L2150.23 393.893 L2150.23 397.828 L2120.56 397.828 L2120.56 393.893 Z" fill="#000000" fill-rule="nonzero" fill-opacity="1" /><path clip-path="url(#clip260)" d="M2176.21 402.041 L2183.84 402.041 L2183.84 375.676 L2175.53 377.342 L2175.53 373.083 L2183.8 371.416 L2188.47 371.416 L2188.47 402.041 L2196.11 402.041 L2196.11 405.976 L2176.21 405.976 L2176.21 402.041 Z" fill="#000000" fill-rule="nonzero" fill-opacity="1" /></svg>
