<?xml version="1.0" encoding="utf-8"?>
<svg xmlns="http://www.w3.org/2000/svg" xmlns:xlink="http://www.w3.org/1999/xlink" width="700" height="350" viewBox="0 0 2800 1400">
<defs>
  <clipPath id="clip320">
    <rect x="0" y="0" width="2800" height="1400"/>
  </clipPath>
</defs>
<path clip-path="url(#clip320)" d="M0 1400 L2800 1400 L2800 0 L0 0  Z" fill="#ffffff" fill-rule="evenodd" fill-opacity="1"/>
<defs>
  <clipPath id="clip321">
    <rect x="257" y="108" width="2496" height="1138"/>
  </clipPath>
</defs>
<path clip-path="url(#clip320)" d="M257.565 1245.7 L2752.76 1245.7 L2752.76 108.352 L257.565 108.352  Z" fill="#ffffff" fill-rule="evenodd" fill-opacity="1"/>
<polyline clip-path="url(#clip321)" style="stroke:#000000; stroke-linecap:round; stroke-linejoin:round; stroke-width:2; stroke-opacity:0.1; fill:none" points="328.183,1245.7 328.183,108.352 "/>
<polyline clip-path="url(#clip321)" style="stroke:#000000; stroke-linecap:round; stroke-linejoin:round; stroke-width:2; stroke-opacity:0.1; fill:none" points="973.102,1245.7 973.102,108.352 "/>
<polyline clip-path="url(#clip321)" style="stroke:#000000; stroke-linecap:round; stroke-linejoin:round; stroke-width:2; stroke-opacity:0.1; fill:none" points="1618.02,1245.7 1618.02,108.352 "/>
<polyline clip-path="url(#clip321)" style="stroke:#000000; stroke-linecap:round; stroke-linejoin:round; stroke-width:2; stroke-opacity:0.1; fill:none" points="2262.94,1245.7 2262.94,108.352 "/>
<polyline clip-path="url(#clip321)" style="stroke:#000000; stroke-linecap:round; stroke-linejoin:round; stroke-width:2; stroke-opacity:0.1; fill:none" points="257.565,1213.51 2752.76,1213.51 "/>
<polyline clip-path="url(#clip321)" style="stroke:#000000; stroke-linecap:round; stroke-linejoin:round; stroke-width:2; stroke-opacity:0.1; fill:none" points="257.565,986.994 2752.76,986.994 "/>
<polyline clip-path="url(#clip321)" style="stroke:#000000; stroke-linecap:round; stroke-linejoin:round; stroke-width:2; stroke-opacity:0.1; fill:none" points="257.565,760.477 2752.76,760.477 "/>
<polyline clip-path="url(#clip321)" style="stroke:#000000; stroke-linecap:round; stroke-linejoin:round; stroke-width:2; stroke-opacity:0.1; fill:none" points="257.565,533.96 2752.76,533.96 "/>
<polyline clip-path="url(#clip321)" style="stroke:#000000; stroke-linecap:round; stroke-linejoin:round; stroke-width:2; stroke-opacity:0.1; fill:none" points="257.565,307.443 2752.76,307.443 "/>
<polyline clip-path="url(#clip320)" style="stroke:#000000; stroke-linecap:round; stroke-linejoin:round; stroke-width:4; stroke-opacity:1; fill:none" points="257.565,1245.7 2752.76,1245.7 "/>
<polyline clip-path="url(#clip320)" style="stroke:#000000; stroke-linecap:round; stroke-linejoin:round; stroke-width:4; stroke-opacity:1; fill:none" points="328.183,1245.7 328.183,1226.8 "/>
<polyline clip-path="url(#clip320)" style="stroke:#000000; stroke-linecap:round; stroke-linejoin:round; stroke-width:4; stroke-opacity:1; fill:none" points="973.102,1245.7 973.102,1226.8 "/>
<polyline clip-path="url(#clip320)" style="stroke:#000000; stroke-linecap:round; stroke-linejoin:round; stroke-width:4; stroke-opacity:1; fill:none" points="1618.02,1245.7 1618.02,1226.8 "/>
<polyline clip-path="url(#clip320)" style="stroke:#000000; stroke-linecap:round; stroke-linejoin:round; stroke-width:4; stroke-opacity:1; fill:none" points="2262.94,1245.7 2262.94,1226.8 "/>
<path clip-path="url(#clip320)" d="M328.183 1279.82 Q324.572 1279.82 322.744 1283.38 Q320.938 1286.92 320.938 1294.05 Q320.938 1301.16 322.744 1304.73 Q324.572 1308.27 328.183 1308.27 Q331.818 1308.27 333.623 1304.73 Q335.452 1301.16 335.452 1294.05 Q335.452 1286.92 333.623 1283.38 Q331.818 1279.82 328.183 1279.82 M328.183 1276.11 Q333.993 1276.11 337.049 1280.72 Q340.128 1285.3 340.128 1294.05 Q340.128 1302.78 337.049 1307.39 Q333.993 1311.97 328.183 1311.97 Q322.373 1311.97 319.295 1307.39 Q316.239 1302.78 316.239 1294.05 Q316.239 1285.3 319.295 1280.72 Q322.373 1276.11 328.183 1276.11 Z" fill="#000000" fill-rule="nonzero" fill-opacity="1" /><path clip-path="url(#clip320)" d="M932.709 1307.36 L940.348 1307.36 L940.348 1281 L932.038 1282.67 L932.038 1278.41 L940.301 1276.74 L944.977 1276.74 L944.977 1307.36 L952.616 1307.36 L952.616 1311.3 L932.709 1311.3 L932.709 1307.36 Z" fill="#000000" fill-rule="nonzero" fill-opacity="1" /><path clip-path="url(#clip320)" d="M972.061 1279.82 Q968.449 1279.82 966.621 1283.38 Q964.815 1286.92 964.815 1294.05 Q964.815 1301.16 966.621 1304.73 Q968.449 1308.27 972.061 1308.27 Q975.695 1308.27 977.5 1304.73 Q979.329 1301.16 979.329 1294.05 Q979.329 1286.92 977.5 1283.38 Q975.695 1279.82 972.061 1279.82 M972.061 1276.11 Q977.871 1276.11 980.926 1280.72 Q984.005 1285.3 984.005 1294.05 Q984.005 1302.78 980.926 1307.39 Q977.871 1311.97 972.061 1311.97 Q966.25 1311.97 963.172 1307.39 Q960.116 1302.78 960.116 1294.05 Q960.116 1285.3 963.172 1280.72 Q966.25 1276.11 972.061 1276.11 Z" fill="#000000" fill-rule="nonzero" fill-opacity="1" /><path clip-path="url(#clip320)" d="M1002.22 1279.82 Q998.611 1279.82 996.783 1283.38 Q994.977 1286.92 994.977 1294.05 Q994.977 1301.16 996.783 1304.73 Q998.611 1308.27 1002.22 1308.27 Q1005.86 1308.27 1007.66 1304.73 Q1009.49 1301.16 1009.49 1294.05 Q1009.49 1286.92 1007.66 1283.38 Q1005.86 1279.82 1002.22 1279.82 M1002.22 1276.11 Q1008.03 1276.11 1011.09 1280.72 Q1014.17 1285.3 1014.17 1294.05 Q1014.17 1302.78 1011.09 1307.39 Q1008.03 1311.97 1002.22 1311.97 Q996.412 1311.97 993.334 1307.39 Q990.278 1302.78 990.278 1294.05 Q990.278 1285.3 993.334 1280.72 Q996.412 1276.11 1002.22 1276.11 Z" fill="#000000" fill-rule="nonzero" fill-opacity="1" /><path clip-path="url(#clip320)" d="M1581.71 1307.36 L1598.03 1307.36 L1598.03 1311.3 L1576.09 1311.3 L1576.09 1307.36 Q1578.75 1304.61 1583.33 1299.98 Q1587.94 1295.33 1589.12 1293.99 Q1591.37 1291.46 1592.25 1289.73 Q1593.15 1287.97 1593.15 1286.28 Q1593.15 1283.52 1591.2 1281.79 Q1589.28 1280.05 1586.18 1280.05 Q1583.98 1280.05 1581.53 1280.81 Q1579.1 1281.58 1576.32 1283.13 L1576.32 1278.41 Q1579.14 1277.27 1581.6 1276.69 Q1584.05 1276.11 1586.09 1276.11 Q1591.46 1276.11 1594.65 1278.8 Q1597.85 1281.49 1597.85 1285.98 Q1597.85 1288.11 1597.04 1290.03 Q1596.25 1291.92 1594.14 1294.52 Q1593.57 1295.19 1590.46 1298.41 Q1587.36 1301.6 1581.71 1307.36 Z" fill="#000000" fill-rule="nonzero" fill-opacity="1" /><path clip-path="url(#clip320)" d="M1617.85 1279.82 Q1614.24 1279.82 1612.41 1283.38 Q1610.6 1286.92 1610.6 1294.05 Q1610.6 1301.16 1612.41 1304.73 Q1614.24 1308.27 1617.85 1308.27 Q1621.48 1308.27 1623.29 1304.73 Q1625.12 1301.16 1625.12 1294.05 Q1625.12 1286.92 1623.29 1283.38 Q1621.48 1279.82 1617.85 1279.82 M1617.85 1276.11 Q1623.66 1276.11 1626.71 1280.72 Q1629.79 1285.3 1629.79 1294.05 Q1629.79 1302.78 1626.71 1307.39 Q1623.66 1311.97 1617.85 1311.97 Q1612.04 1311.97 1608.96 1307.39 Q1605.9 1302.78 1605.9 1294.05 Q1605.9 1285.3 1608.96 1280.72 Q1612.04 1276.11 1617.85 1276.11 Z" fill="#000000" fill-rule="nonzero" fill-opacity="1" /><path clip-path="url(#clip320)" d="M1648.01 1279.82 Q1644.4 1279.82 1642.57 1283.38 Q1640.76 1286.92 1640.76 1294.05 Q1640.76 1301.16 1642.57 1304.73 Q1644.4 1308.27 1648.01 1308.27 Q1651.64 1308.27 1653.45 1304.73 Q1655.28 1301.16 1655.28 1294.05 Q1655.28 1286.92 1653.45 1283.38 Q1651.64 1279.82 1648.01 1279.82 M1648.01 1276.11 Q1653.82 1276.11 1656.88 1280.72 Q1659.95 1285.3 1659.95 1294.05 Q1659.95 1302.78 1656.88 1307.39 Q1653.82 1311.97 1648.01 1311.97 Q1642.2 1311.97 1639.12 1307.39 Q1636.07 1302.78 1636.07 1294.05 Q1636.07 1285.3 1639.12 1280.72 Q1642.2 1276.11 1648.01 1276.11 Z" fill="#000000" fill-rule="nonzero" fill-opacity="1" /><path clip-path="url(#clip320)" d="M2236.7 1292.67 Q2240.06 1293.38 2241.93 1295.65 Q2243.83 1297.92 2243.83 1301.25 Q2243.83 1306.37 2240.31 1309.17 Q2236.79 1311.97 2230.31 1311.97 Q2228.14 1311.97 2225.82 1311.53 Q2223.53 1311.11 2221.08 1310.26 L2221.08 1305.74 Q2223.02 1306.88 2225.34 1307.46 Q2227.65 1308.04 2230.17 1308.04 Q2234.57 1308.04 2236.86 1306.3 Q2239.18 1304.56 2239.18 1301.25 Q2239.18 1298.2 2237.03 1296.49 Q2234.9 1294.75 2231.08 1294.75 L2227.05 1294.75 L2227.05 1290.91 L2231.26 1290.91 Q2234.71 1290.91 2236.54 1289.54 Q2238.37 1288.15 2238.37 1285.56 Q2238.37 1282.9 2236.47 1281.49 Q2234.6 1280.05 2231.08 1280.05 Q2229.16 1280.05 2226.96 1280.47 Q2224.76 1280.88 2222.12 1281.76 L2222.12 1277.6 Q2224.78 1276.86 2227.1 1276.49 Q2229.43 1276.11 2231.49 1276.11 Q2236.82 1276.11 2239.92 1278.55 Q2243.02 1280.95 2243.02 1285.07 Q2243.02 1287.94 2241.38 1289.93 Q2239.73 1291.9 2236.7 1292.67 Z" fill="#000000" fill-rule="nonzero" fill-opacity="1" /><path clip-path="url(#clip320)" d="M2262.7 1279.82 Q2259.09 1279.82 2257.26 1283.38 Q2255.45 1286.92 2255.45 1294.05 Q2255.45 1301.16 2257.26 1304.73 Q2259.09 1308.27 2262.7 1308.27 Q2266.33 1308.27 2268.14 1304.73 Q2269.97 1301.16 2269.97 1294.05 Q2269.97 1286.92 2268.14 1283.38 Q2266.33 1279.82 2262.7 1279.82 M2262.7 1276.11 Q2268.51 1276.11 2271.56 1280.72 Q2274.64 1285.3 2274.64 1294.05 Q2274.64 1302.78 2271.56 1307.39 Q2268.51 1311.97 2262.7 1311.97 Q2256.89 1311.97 2253.81 1307.39 Q2250.75 1302.78 2250.75 1294.05 Q2250.75 1285.3 2253.81 1280.72 Q2256.89 1276.11 2262.7 1276.11 Z" fill="#000000" fill-rule="nonzero" fill-opacity="1" /><path clip-path="url(#clip320)" d="M2292.86 1279.82 Q2289.25 1279.82 2287.42 1283.38 Q2285.61 1286.92 2285.61 1294.05 Q2285.61 1301.16 2287.42 1304.73 Q2289.25 1308.27 2292.86 1308.27 Q2296.49 1308.27 2298.3 1304.73 Q2300.13 1301.16 2300.13 1294.05 Q2300.13 1286.92 2298.3 1283.38 Q2296.49 1279.82 2292.86 1279.82 M2292.86 1276.11 Q2298.67 1276.11 2301.72 1280.72 Q2304.8 1285.3 2304.8 1294.05 Q2304.8 1302.78 2301.72 1307.39 Q2298.67 1311.97 2292.86 1311.97 Q2287.05 1311.97 2283.97 1307.39 Q2280.91 1302.78 2280.91 1294.05 Q2280.91 1285.3 2283.97 1280.72 Q2287.05 1276.11 2292.86 1276.11 Z" fill="#000000" fill-rule="nonzero" fill-opacity="1" /><path clip-path="url(#clip320)" d="M1451.4 1354.33 L1451.4 1391.28 L1459.17 1391.28 Q1469 1391.28 1473.55 1386.82 Q1478.14 1382.37 1478.14 1372.76 Q1478.14 1363.21 1473.55 1358.78 Q1469 1354.33 1459.17 1354.33 L1451.4 1354.33 M1444.97 1349.04 L1458.18 1349.04 Q1471.99 1349.04 1478.46 1354.8 Q1484.92 1360.53 1484.92 1372.76 Q1484.92 1385.04 1478.42 1390.8 Q1471.93 1396.56 1458.18 1396.56 L1444.97 1396.56 L1444.97 1349.04 Z" fill="#000000" fill-rule="nonzero" fill-opacity="1" /><path clip-path="url(#clip320)" d="M1511.11 1378.64 Q1504.01 1378.64 1501.28 1380.27 Q1498.54 1381.89 1498.54 1385.81 Q1498.54 1388.92 1500.58 1390.77 Q1502.65 1392.59 1506.18 1392.59 Q1511.05 1392.59 1513.98 1389.15 Q1516.94 1385.68 1516.94 1379.95 L1516.94 1378.64 L1511.11 1378.64 M1522.79 1376.23 L1522.79 1396.56 L1516.94 1396.56 L1516.94 1391.15 Q1514.93 1394.4 1511.94 1395.96 Q1508.95 1397.49 1504.62 1397.49 Q1499.14 1397.49 1495.9 1394.43 Q1492.68 1391.34 1492.68 1386.19 Q1492.68 1380.17 1496.69 1377.12 Q1500.74 1374.06 1508.73 1374.06 L1516.94 1374.06 L1516.94 1373.49 Q1516.94 1369.45 1514.26 1367.25 Q1511.62 1365.02 1506.82 1365.02 Q1503.76 1365.02 1500.86 1365.75 Q1497.97 1366.49 1495.29 1367.95 L1495.29 1362.54 Q1498.51 1361.3 1501.53 1360.69 Q1504.56 1360.06 1507.42 1360.06 Q1515.15 1360.06 1518.97 1364.07 Q1522.79 1368.08 1522.79 1376.23 Z" fill="#000000" fill-rule="nonzero" fill-opacity="1" /><path clip-path="url(#clip320)" d="M1549.69 1399.87 Q1547.21 1406.24 1544.85 1408.18 Q1542.5 1410.12 1538.55 1410.12 L1533.87 1410.12 L1533.87 1405.22 L1537.31 1405.22 Q1539.73 1405.22 1541.06 1404.08 Q1542.4 1402.93 1544.02 1398.66 L1545.07 1395.99 L1530.65 1360.92 L1536.86 1360.92 L1548 1388.8 L1559.14 1360.92 L1565.35 1360.92 L1549.69 1399.87 Z" fill="#000000" fill-rule="nonzero" fill-opacity="1" /><polyline clip-path="url(#clip320)" style="stroke:#000000; stroke-linecap:round; stroke-linejoin:round; stroke-width:4; stroke-opacity:1; fill:none" points="257.565,1245.7 257.565,108.352 "/>
<polyline clip-path="url(#clip320)" style="stroke:#000000; stroke-linecap:round; stroke-linejoin:round; stroke-width:4; stroke-opacity:1; fill:none" points="257.565,1213.51 276.462,1213.51 "/>
<polyline clip-path="url(#clip320)" style="stroke:#000000; stroke-linecap:round; stroke-linejoin:round; stroke-width:4; stroke-opacity:1; fill:none" points="257.565,986.994 276.462,986.994 "/>
<polyline clip-path="url(#clip320)" style="stroke:#000000; stroke-linecap:round; stroke-linejoin:round; stroke-width:4; stroke-opacity:1; fill:none" points="257.565,760.477 276.462,760.477 "/>
<polyline clip-path="url(#clip320)" style="stroke:#000000; stroke-linecap:round; stroke-linejoin:round; stroke-width:4; stroke-opacity:1; fill:none" points="257.565,533.96 276.462,533.96 "/>
<polyline clip-path="url(#clip320)" style="stroke:#000000; stroke-linecap:round; stroke-linejoin:round; stroke-width:4; stroke-opacity:1; fill:none" points="257.565,307.443 276.462,307.443 "/>
<path clip-path="url(#clip320)" d="M203.62 1199.31 Q200.009 1199.31 198.181 1202.87 Q196.375 1206.42 196.375 1213.55 Q196.375 1220.65 198.181 1224.22 Q200.009 1227.76 203.62 1227.76 Q207.255 1227.76 209.06 1224.22 Q210.889 1220.65 210.889 1213.55 Q210.889 1206.42 209.06 1202.87 Q207.255 1199.31 203.62 1199.31 M203.62 1195.61 Q209.43 1195.61 212.486 1200.21 Q215.565 1204.8 215.565 1213.55 Q215.565 1222.27 212.486 1226.88 Q209.43 1231.46 203.62 1231.46 Q197.81 1231.46 194.732 1226.88 Q191.676 1222.27 191.676 1213.55 Q191.676 1204.8 194.732 1200.21 Q197.81 1195.61 203.62 1195.61 Z" fill="#000000" fill-rule="nonzero" fill-opacity="1" /><path clip-path="url(#clip320)" d="M107.163 1000.34 L123.482 1000.34 L123.482 1004.27 L101.538 1004.27 L101.538 1000.34 Q104.2 997.584 108.783 992.954 Q113.389 988.302 114.57 986.959 Q116.815 984.436 117.695 982.7 Q118.598 980.941 118.598 979.251 Q118.598 976.496 116.653 974.76 Q114.732 973.024 111.63 973.024 Q109.431 973.024 106.977 973.788 Q104.547 974.552 101.769 976.103 L101.769 971.38 Q104.593 970.246 107.047 969.667 Q109.5 969.089 111.538 969.089 Q116.908 969.089 120.102 971.774 Q123.297 974.459 123.297 978.95 Q123.297 981.079 122.487 983.001 Q121.699 984.899 119.593 987.491 Q119.014 988.163 115.912 991.38 Q112.811 994.575 107.163 1000.34 Z" fill="#000000" fill-rule="nonzero" fill-opacity="1" /><path clip-path="url(#clip320)" d="M143.297 972.792 Q139.686 972.792 137.857 976.357 Q136.051 979.899 136.051 987.028 Q136.051 994.135 137.857 997.7 Q139.686 1001.24 143.297 1001.24 Q146.931 1001.24 148.736 997.7 Q150.565 994.135 150.565 987.028 Q150.565 979.899 148.736 976.357 Q146.931 972.792 143.297 972.792 M143.297 969.089 Q149.107 969.089 152.162 973.695 Q155.241 978.278 155.241 987.028 Q155.241 995.755 152.162 1000.36 Q149.107 1004.95 143.297 1004.95 Q137.486 1004.95 134.408 1000.36 Q131.352 995.755 131.352 987.028 Q131.352 978.278 134.408 973.695 Q137.486 969.089 143.297 969.089 Z" fill="#000000" fill-rule="nonzero" fill-opacity="1" /><path clip-path="url(#clip320)" d="M173.458 972.792 Q169.847 972.792 168.019 976.357 Q166.213 979.899 166.213 987.028 Q166.213 994.135 168.019 997.7 Q169.847 1001.24 173.458 1001.24 Q177.093 1001.24 178.898 997.7 Q180.727 994.135 180.727 987.028 Q180.727 979.899 178.898 976.357 Q177.093 972.792 173.458 972.792 M173.458 969.089 Q179.269 969.089 182.324 973.695 Q185.403 978.278 185.403 987.028 Q185.403 995.755 182.324 1000.36 Q179.269 1004.95 173.458 1004.95 Q167.648 1004.95 164.57 1000.36 Q161.514 995.755 161.514 987.028 Q161.514 978.278 164.57 973.695 Q167.648 969.089 173.458 969.089 Z" fill="#000000" fill-rule="nonzero" fill-opacity="1" /><path clip-path="url(#clip320)" d="M203.62 972.792 Q200.009 972.792 198.181 976.357 Q196.375 979.899 196.375 987.028 Q196.375 994.135 198.181 997.7 Q200.009 1001.24 203.62 1001.24 Q207.255 1001.24 209.06 997.7 Q210.889 994.135 210.889 987.028 Q210.889 979.899 209.06 976.357 Q207.255 972.792 203.62 972.792 M203.62 969.089 Q209.43 969.089 212.486 973.695 Q215.565 978.278 215.565 987.028 Q215.565 995.755 212.486 1000.36 Q209.43 1004.95 203.62 1004.95 Q197.81 1004.95 194.732 1000.36 Q191.676 995.755 191.676 987.028 Q191.676 978.278 194.732 973.695 Q197.81 969.089 203.62 969.089 Z" fill="#000000" fill-rule="nonzero" fill-opacity="1" /><path clip-path="url(#clip320)" d="M115.982 747.271 L104.176 765.72 L115.982 765.72 L115.982 747.271 M114.755 743.197 L120.635 743.197 L120.635 765.72 L125.565 765.72 L125.565 769.609 L120.635 769.609 L120.635 777.757 L115.982 777.757 L115.982 769.609 L100.38 769.609 L100.38 765.095 L114.755 743.197 Z" fill="#000000" fill-rule="nonzero" fill-opacity="1" /><path clip-path="url(#clip320)" d="M143.297 746.275 Q139.686 746.275 137.857 749.84 Q136.051 753.382 136.051 760.511 Q136.051 767.618 137.857 771.183 Q139.686 774.724 143.297 774.724 Q146.931 774.724 148.736 771.183 Q150.565 767.618 150.565 760.511 Q150.565 753.382 148.736 749.84 Q146.931 746.275 143.297 746.275 M143.297 742.572 Q149.107 742.572 152.162 747.178 Q155.241 751.761 155.241 760.511 Q155.241 769.238 152.162 773.845 Q149.107 778.428 143.297 778.428 Q137.486 778.428 134.408 773.845 Q131.352 769.238 131.352 760.511 Q131.352 751.761 134.408 747.178 Q137.486 742.572 143.297 742.572 Z" fill="#000000" fill-rule="nonzero" fill-opacity="1" /><path clip-path="url(#clip320)" d="M173.458 746.275 Q169.847 746.275 168.019 749.84 Q166.213 753.382 166.213 760.511 Q166.213 767.618 168.019 771.183 Q169.847 774.724 173.458 774.724 Q177.093 774.724 178.898 771.183 Q180.727 767.618 180.727 760.511 Q180.727 753.382 178.898 749.84 Q177.093 746.275 173.458 746.275 M173.458 742.572 Q179.269 742.572 182.324 747.178 Q185.403 751.761 185.403 760.511 Q185.403 769.238 182.324 773.845 Q179.269 778.428 173.458 778.428 Q167.648 778.428 164.57 773.845 Q161.514 769.238 161.514 760.511 Q161.514 751.761 164.57 747.178 Q167.648 742.572 173.458 742.572 Z" fill="#000000" fill-rule="nonzero" fill-opacity="1" /><path clip-path="url(#clip320)" d="M203.62 746.275 Q200.009 746.275 198.181 749.84 Q196.375 753.382 196.375 760.511 Q196.375 767.618 198.181 771.183 Q200.009 774.724 203.62 774.724 Q207.255 774.724 209.06 771.183 Q210.889 767.618 210.889 760.511 Q210.889 753.382 209.06 749.84 Q207.255 746.275 203.62 746.275 M203.62 742.572 Q209.43 742.572 212.486 747.178 Q215.565 751.761 215.565 760.511 Q215.565 769.238 212.486 773.845 Q209.43 778.428 203.62 778.428 Q197.81 778.428 194.732 773.845 Q191.676 769.238 191.676 760.511 Q191.676 751.761 194.732 747.178 Q197.81 742.572 203.62 742.572 Z" fill="#000000" fill-rule="nonzero" fill-opacity="1" /><path clip-path="url(#clip320)" d="M113.713 532.096 Q110.565 532.096 108.713 534.249 Q106.885 536.402 106.885 540.152 Q106.885 543.879 108.713 546.055 Q110.565 548.207 113.713 548.207 Q116.862 548.207 118.69 546.055 Q120.542 543.879 120.542 540.152 Q120.542 536.402 118.69 534.249 Q116.862 532.096 113.713 532.096 M122.996 517.444 L122.996 521.703 Q121.237 520.869 119.431 520.43 Q117.649 519.99 115.889 519.99 Q111.26 519.99 108.806 523.115 Q106.375 526.24 106.028 532.559 Q107.394 530.545 109.454 529.481 Q111.514 528.393 113.991 528.393 Q119.2 528.393 122.209 531.564 Q125.241 534.712 125.241 540.152 Q125.241 545.476 122.093 548.693 Q118.945 551.911 113.713 551.911 Q107.718 551.911 104.547 547.328 Q101.376 542.721 101.376 533.994 Q101.376 525.8 105.264 520.939 Q109.153 516.055 115.704 516.055 Q117.463 516.055 119.246 516.402 Q121.051 516.749 122.996 517.444 Z" fill="#000000" fill-rule="nonzero" fill-opacity="1" /><path clip-path="url(#clip320)" d="M143.297 519.758 Q139.686 519.758 137.857 523.323 Q136.051 526.865 136.051 533.994 Q136.051 541.101 137.857 544.666 Q139.686 548.207 143.297 548.207 Q146.931 548.207 148.736 544.666 Q150.565 541.101 150.565 533.994 Q150.565 526.865 148.736 523.323 Q146.931 519.758 143.297 519.758 M143.297 516.055 Q149.107 516.055 152.162 520.661 Q155.241 525.244 155.241 533.994 Q155.241 542.721 152.162 547.328 Q149.107 551.911 143.297 551.911 Q137.486 551.911 134.408 547.328 Q131.352 542.721 131.352 533.994 Q131.352 525.244 134.408 520.661 Q137.486 516.055 143.297 516.055 Z" fill="#000000" fill-rule="nonzero" fill-opacity="1" /><path clip-path="url(#clip320)" d="M173.458 519.758 Q169.847 519.758 168.019 523.323 Q166.213 526.865 166.213 533.994 Q166.213 541.101 168.019 544.666 Q169.847 548.207 173.458 548.207 Q177.093 548.207 178.898 544.666 Q180.727 541.101 180.727 533.994 Q180.727 526.865 178.898 523.323 Q177.093 519.758 173.458 519.758 M173.458 516.055 Q179.269 516.055 182.324 520.661 Q185.403 525.244 185.403 533.994 Q185.403 542.721 182.324 547.328 Q179.269 551.911 173.458 551.911 Q167.648 551.911 164.57 547.328 Q161.514 542.721 161.514 533.994 Q161.514 525.244 164.57 520.661 Q167.648 516.055 173.458 516.055 Z" fill="#000000" fill-rule="nonzero" fill-opacity="1" /><path clip-path="url(#clip320)" d="M203.62 519.758 Q200.009 519.758 198.181 523.323 Q196.375 526.865 196.375 533.994 Q196.375 541.101 198.181 544.666 Q200.009 548.207 203.62 548.207 Q207.255 548.207 209.06 544.666 Q210.889 541.101 210.889 533.994 Q210.889 526.865 209.06 523.323 Q207.255 519.758 203.62 519.758 M203.62 516.055 Q209.43 516.055 212.486 520.661 Q215.565 525.244 215.565 533.994 Q215.565 542.721 212.486 547.328 Q209.43 551.911 203.62 551.911 Q197.81 551.911 194.732 547.328 Q191.676 542.721 191.676 533.994 Q191.676 525.244 194.732 520.661 Q197.81 516.055 203.62 516.055 Z" fill="#000000" fill-rule="nonzero" fill-opacity="1" /><path clip-path="url(#clip320)" d="M113.135 308.311 Q109.801 308.311 107.88 310.093 Q105.982 311.875 105.982 315 Q105.982 318.125 107.88 319.908 Q109.801 321.69 113.135 321.69 Q116.468 321.69 118.389 319.908 Q120.311 318.102 120.311 315 Q120.311 311.875 118.389 310.093 Q116.491 308.311 113.135 308.311 M108.459 306.32 Q105.45 305.579 103.76 303.519 Q102.093 301.459 102.093 298.496 Q102.093 294.352 105.033 291.945 Q107.996 289.538 113.135 289.538 Q118.297 289.538 121.237 291.945 Q124.176 294.352 124.176 298.496 Q124.176 301.459 122.487 303.519 Q120.82 305.579 117.834 306.32 Q121.213 307.107 123.088 309.399 Q124.987 311.69 124.987 315 Q124.987 320.024 121.908 322.709 Q118.852 325.394 113.135 325.394 Q107.417 325.394 104.338 322.709 Q101.283 320.024 101.283 315 Q101.283 311.69 103.181 309.399 Q105.079 307.107 108.459 306.32 M106.746 298.936 Q106.746 301.621 108.413 303.126 Q110.102 304.63 113.135 304.63 Q116.144 304.63 117.834 303.126 Q119.547 301.621 119.547 298.936 Q119.547 296.251 117.834 294.746 Q116.144 293.241 113.135 293.241 Q110.102 293.241 108.413 294.746 Q106.746 296.251 106.746 298.936 Z" fill="#000000" fill-rule="nonzero" fill-opacity="1" /><path clip-path="url(#clip320)" d="M143.297 293.241 Q139.686 293.241 137.857 296.806 Q136.051 300.348 136.051 307.477 Q136.051 314.584 137.857 318.149 Q139.686 321.69 143.297 321.69 Q146.931 321.69 148.736 318.149 Q150.565 314.584 150.565 307.477 Q150.565 300.348 148.736 296.806 Q146.931 293.241 143.297 293.241 M143.297 289.538 Q149.107 289.538 152.162 294.144 Q155.241 298.727 155.241 307.477 Q155.241 316.204 152.162 320.811 Q149.107 325.394 143.297 325.394 Q137.486 325.394 134.408 320.811 Q131.352 316.204 131.352 307.477 Q131.352 298.727 134.408 294.144 Q137.486 289.538 143.297 289.538 Z" fill="#000000" fill-rule="nonzero" fill-opacity="1" /><path clip-path="url(#clip320)" d="M173.458 293.241 Q169.847 293.241 168.019 296.806 Q166.213 300.348 166.213 307.477 Q166.213 314.584 168.019 318.149 Q169.847 321.69 173.458 321.69 Q177.093 321.69 178.898 318.149 Q180.727 314.584 180.727 307.477 Q180.727 300.348 178.898 296.806 Q177.093 293.241 173.458 293.241 M173.458 289.538 Q179.269 289.538 182.324 294.144 Q185.403 298.727 185.403 307.477 Q185.403 316.204 182.324 320.811 Q179.269 325.394 173.458 325.394 Q167.648 325.394 164.57 320.811 Q161.514 316.204 161.514 307.477 Q161.514 298.727 164.57 294.144 Q167.648 289.538 173.458 289.538 Z" fill="#000000" fill-rule="nonzero" fill-opacity="1" /><path clip-path="url(#clip320)" d="M203.62 293.241 Q200.009 293.241 198.181 296.806 Q196.375 300.348 196.375 307.477 Q196.375 314.584 198.181 318.149 Q200.009 321.69 203.62 321.69 Q207.255 321.69 209.06 318.149 Q210.889 314.584 210.889 307.477 Q210.889 300.348 209.06 296.806 Q207.255 293.241 203.62 293.241 M203.62 289.538 Q209.43 289.538 212.486 294.144 Q215.565 298.727 215.565 307.477 Q215.565 316.204 212.486 320.811 Q209.43 325.394 203.62 325.394 Q197.81 325.394 194.732 320.811 Q191.676 316.204 191.676 307.477 Q191.676 298.727 194.732 294.144 Q197.81 289.538 203.62 289.538 Z" fill="#000000" fill-rule="nonzero" fill-opacity="1" /><path clip-path="url(#clip320)" d="M0.264439 947.202 L7.04392 947.202 Q4.02021 950.449 2.52426 954.141 Q1.02832 957.801 1.02832 961.939 Q1.02832 970.087 6.0254 974.416 Q10.9907 978.745 20.4119 978.745 Q29.8013 978.745 34.7984 974.416 Q39.7636 970.087 39.7636 961.939 Q39.7636 957.801 38.2677 954.141 Q36.7718 950.449 33.7481 947.202 L40.4639 947.202 Q42.7555 950.576 43.9014 954.364 Q45.0472 958.12 45.0472 962.321 Q45.0472 973.111 38.4587 979.317 Q31.8383 985.524 20.4119 985.524 Q8.95363 985.524 2.36512 979.317 Q-4.25521 973.111 -4.25521 962.321 Q-4.25521 958.056 -3.10939 954.3 Q-1.99539 950.513 0.264439 947.202 Z" fill="#000000" fill-rule="nonzero" fill-opacity="1" /><path clip-path="url(#clip320)" d="M30.0559 938.131 L8.4762 938.131 L8.4762 932.275 L29.8331 932.275 Q34.8939 932.275 37.4402 930.302 Q39.9546 928.328 39.9546 924.381 Q39.9546 919.639 36.9309 916.902 Q33.9072 914.133 28.6873 914.133 L8.4762 914.133 L8.4762 908.276 L44.1242 908.276 L44.1242 914.133 L38.6496 914.133 Q41.8962 916.265 43.4876 919.098 Q45.0472 921.899 45.0472 925.623 Q45.0472 931.766 41.2278 934.949 Q37.4083 938.131 30.0559 938.131 M7.61683 923.395 L7.61683 923.395 Z" fill="#000000" fill-rule="nonzero" fill-opacity="1" /><path clip-path="url(#clip320)" d="M15.3193 868.459 Q11.3726 866.263 9.49471 863.207 Q7.61683 860.151 7.61683 856.014 Q7.61683 850.444 11.5317 847.42 Q15.4148 844.396 22.6081 844.396 L44.1242 844.396 L44.1242 850.285 L22.799 850.285 Q17.6746 850.285 15.192 852.099 Q12.7094 853.913 12.7094 857.637 Q12.7094 862.188 15.7331 864.83 Q18.7568 867.472 23.9767 867.472 L44.1242 867.472 L44.1242 873.36 L22.799 873.36 Q17.6428 873.36 15.192 875.175 Q12.7094 876.989 12.7094 880.776 Q12.7094 885.264 15.7649 887.906 Q18.7886 890.548 23.9767 890.548 L44.1242 890.548 L44.1242 896.436 L8.4762 896.436 L8.4762 890.548 L14.0144 890.548 Q10.736 888.543 9.17643 885.742 Q7.61683 882.941 7.61683 879.089 Q7.61683 875.206 9.5902 872.501 Q11.5636 869.764 15.3193 868.459 Z" fill="#000000" fill-rule="nonzero" fill-opacity="1" /><path clip-path="url(#clip320)" d="M30.0559 833.32 L8.4762 833.32 L8.4762 827.464 L29.8331 827.464 Q34.8939 827.464 37.4402 825.49 Q39.9546 823.517 39.9546 819.57 Q39.9546 814.828 36.9309 812.09 Q33.9072 809.321 28.6873 809.321 L8.4762 809.321 L8.4762 803.465 L44.1242 803.465 L44.1242 809.321 L38.6496 809.321 Q41.8962 811.454 43.4876 814.287 Q45.0472 817.087 45.0472 820.811 Q45.0472 826.954 41.2278 830.137 Q37.4083 833.32 30.0559 833.32 M7.61683 818.583 L7.61683 818.583 Z" fill="#000000" fill-rule="nonzero" fill-opacity="1" /><path clip-path="url(#clip320)" d="M-5.40104 791.402 L-5.40104 785.545 L44.1242 785.545 L44.1242 791.402 L-5.40104 791.402 Z" fill="#000000" fill-rule="nonzero" fill-opacity="1" /><path clip-path="url(#clip320)" d="M26.2047 757.091 Q26.2047 764.188 27.8279 766.926 Q29.4512 769.663 33.3661 769.663 Q36.4853 769.663 38.3314 767.626 Q40.1456 765.557 40.1456 762.024 Q40.1456 757.154 36.7081 754.226 Q33.2388 751.266 27.5097 751.266 L26.2047 751.266 L26.2047 757.091 M23.7857 745.41 L44.1242 745.41 L44.1242 751.266 L38.7133 751.266 Q41.9598 753.271 43.5194 756.263 Q45.0472 759.255 45.0472 763.584 Q45.0472 769.058 41.9916 772.305 Q38.9043 775.519 33.7481 775.519 Q27.7325 775.519 24.6769 771.509 Q21.6214 767.467 21.6214 759.478 L21.6214 751.266 L21.0485 751.266 Q17.0062 751.266 14.8101 753.94 Q12.5821 756.581 12.5821 761.388 Q12.5821 764.443 13.3141 767.339 Q14.0462 770.236 15.5103 772.909 L10.0995 772.909 Q8.85814 769.695 8.2534 766.671 Q7.61683 763.647 7.61683 760.783 Q7.61683 753.048 11.6272 749.229 Q15.6376 745.41 23.7857 745.41 Z" fill="#000000" fill-rule="nonzero" fill-opacity="1" /><path clip-path="url(#clip320)" d="M-1.64527 727.554 L8.4762 727.554 L8.4762 715.491 L13.0277 715.491 L13.0277 727.554 L32.3794 727.554 Q36.7399 727.554 37.9813 726.376 Q39.2226 725.167 39.2226 721.506 L39.2226 715.491 L44.1242 715.491 L44.1242 721.506 Q44.1242 728.286 41.6097 730.864 Q39.0634 733.442 32.3794 733.442 L13.0277 733.442 L13.0277 737.739 L8.4762 737.739 L8.4762 733.442 L-1.64527 733.442 L-1.64527 727.554 Z" fill="#000000" fill-rule="nonzero" fill-opacity="1" /><path clip-path="url(#clip320)" d="M8.4762 707.788 L8.4762 701.932 L44.1242 701.932 L44.1242 707.788 L8.4762 707.788 M-5.40104 707.788 L-5.40104 701.932 L2.01501 701.932 L2.01501 707.788 L-5.40104 707.788 Z" fill="#000000" fill-rule="nonzero" fill-opacity="1" /><path clip-path="url(#clip320)" d="M8.4762 693.879 L8.4762 687.673 L38.395 676.533 L8.4762 665.393 L8.4762 659.186 L44.1242 672.554 L44.1242 680.511 L8.4762 693.879 Z" fill="#000000" fill-rule="nonzero" fill-opacity="1" /><path clip-path="url(#clip320)" d="M24.8361 620.61 L27.7006 620.61 L27.7006 647.537 Q33.7481 647.155 36.9309 643.908 Q40.0819 640.63 40.0819 634.805 Q40.0819 631.432 39.2544 628.281 Q38.4269 625.098 36.7718 621.979 L42.3099 621.979 Q43.6467 625.13 44.347 628.44 Q45.0472 631.75 45.0472 635.156 Q45.0472 643.686 40.0819 648.683 Q35.1167 653.648 26.6503 653.648 Q17.8974 653.648 12.7731 648.937 Q7.61683 644.195 7.61683 636.174 Q7.61683 628.981 12.2638 624.811 Q16.8789 620.61 24.8361 620.61 M23.1173 626.466 Q18.3112 626.53 15.4466 629.172 Q12.5821 631.782 12.5821 636.11 Q12.5821 641.012 15.3512 643.972 Q18.1202 646.9 23.1492 647.346 L23.1173 626.466 Z" fill="#000000" fill-rule="nonzero" fill-opacity="1" /><path clip-path="url(#clip320)" d="M1.88769 583.593 L38.8406 583.593 L38.8406 575.827 Q38.8406 565.992 34.3846 561.441 Q29.9286 556.857 20.3164 556.857 Q10.7679 556.857 6.34369 561.441 Q1.88769 565.992 1.88769 575.827 L1.88769 583.593 M-3.39584 590.023 L-3.39584 576.814 Q-3.39584 563 2.36512 556.539 Q8.09426 550.078 20.3164 550.078 Q32.6022 550.078 38.3632 556.571 Q44.1242 563.064 44.1242 576.814 L44.1242 590.023 L-3.39584 590.023 Z" fill="#000000" fill-rule="nonzero" fill-opacity="1" /><path clip-path="url(#clip320)" d="M24.8361 509.592 L27.7006 509.592 L27.7006 536.519 Q33.7481 536.137 36.9309 532.89 Q40.0819 529.612 40.0819 523.788 Q40.0819 520.414 39.2544 517.263 Q38.4269 514.08 36.7718 510.961 L42.3099 510.961 Q43.6467 514.112 44.347 517.422 Q45.0472 520.732 45.0472 524.138 Q45.0472 532.668 40.0819 537.665 Q35.1167 542.63 26.6503 542.63 Q17.8974 542.63 12.7731 537.919 Q7.61683 533.177 7.61683 525.156 Q7.61683 517.963 12.2638 513.793 Q16.8789 509.592 24.8361 509.592 M23.1173 515.448 Q18.3112 515.512 15.4466 518.154 Q12.5821 520.764 12.5821 525.092 Q12.5821 529.994 15.3512 532.954 Q18.1202 535.882 23.1492 536.328 L23.1173 515.448 Z" fill="#000000" fill-rule="nonzero" fill-opacity="1" /><path clip-path="url(#clip320)" d="M26.2047 483.779 Q26.2047 490.877 27.8279 493.614 Q29.4512 496.351 33.3661 496.351 Q36.4853 496.351 38.3314 494.314 Q40.1456 492.245 40.1456 488.712 Q40.1456 483.843 36.7081 480.914 Q33.2388 477.954 27.5097 477.954 L26.2047 477.954 L26.2047 483.779 M23.7857 472.098 L44.1242 472.098 L44.1242 477.954 L38.7133 477.954 Q41.9598 479.96 43.5194 482.952 Q45.0472 485.943 45.0472 490.272 Q45.0472 495.747 41.9916 498.993 Q38.9043 502.208 33.7481 502.208 Q27.7325 502.208 24.6769 498.197 Q21.6214 494.155 21.6214 486.166 L21.6214 477.954 L21.0485 477.954 Q17.0062 477.954 14.8101 480.628 Q12.5821 483.27 12.5821 488.076 Q12.5821 491.131 13.3141 494.028 Q14.0462 496.924 15.5103 499.598 L10.0995 499.598 Q8.85814 496.383 8.2534 493.359 Q7.61683 490.336 7.61683 487.471 Q7.61683 479.737 11.6272 475.917 Q15.6376 472.098 23.7857 472.098 Z" fill="#000000" fill-rule="nonzero" fill-opacity="1" /><path clip-path="url(#clip320)" d="M-1.64527 454.242 L8.4762 454.242 L8.4762 442.179 L13.0277 442.179 L13.0277 454.242 L32.3794 454.242 Q36.7399 454.242 37.9813 453.065 Q39.2226 451.855 39.2226 448.195 L39.2226 442.179 L44.1242 442.179 L44.1242 448.195 Q44.1242 454.974 41.6097 457.552 Q39.0634 460.13 32.3794 460.13 L13.0277 460.13 L13.0277 464.427 L8.4762 464.427 L8.4762 460.13 L-1.64527 460.13 L-1.64527 454.242 Z" fill="#000000" fill-rule="nonzero" fill-opacity="1" /><path clip-path="url(#clip320)" d="M22.6081 404.844 L44.1242 404.844 L44.1242 410.701 L22.799 410.701 Q17.7383 410.701 15.2238 412.674 Q12.7094 414.647 12.7094 418.594 Q12.7094 423.337 15.7331 426.074 Q18.7568 428.811 23.9767 428.811 L44.1242 428.811 L44.1242 434.699 L-5.40104 434.699 L-5.40104 428.811 L14.0144 428.811 Q10.7997 426.71 9.20826 423.878 Q7.61683 421.013 7.61683 417.289 Q7.61683 411.146 11.4363 407.995 Q15.2238 404.844 22.6081 404.844 Z" fill="#000000" fill-rule="nonzero" fill-opacity="1" /><path clip-path="url(#clip320)" d="M9.52654 370.438 L15.0647 370.438 Q13.7916 372.92 13.155 375.594 Q12.5184 378.267 12.5184 381.132 Q12.5184 385.493 13.8552 387.689 Q15.192 389.853 17.8656 389.853 Q19.9026 389.853 21.0803 388.293 Q22.2261 386.734 23.2765 382.023 L23.7221 380.018 Q25.0589 373.78 27.5097 371.17 Q29.9286 368.528 34.2891 368.528 Q39.2544 368.528 42.1508 372.475 Q45.0472 376.39 45.0472 383.265 Q45.0472 386.129 44.4743 389.248 Q43.9332 392.336 42.8192 395.773 L36.7718 395.773 Q38.4587 392.527 39.318 389.376 Q40.1456 386.225 40.1456 383.137 Q40.1456 379 38.7451 376.772 Q37.3129 374.544 34.7347 374.544 Q32.3476 374.544 31.0745 376.167 Q29.8013 377.758 28.6237 383.201 L28.1462 385.238 Q27.0004 390.681 24.6451 393.1 Q22.258 395.519 18.1202 395.519 Q13.0913 395.519 10.3541 391.954 Q7.61683 388.389 7.61683 381.832 Q7.61683 378.586 8.09426 375.721 Q8.57169 372.857 9.52654 370.438 Z" fill="#000000" fill-rule="nonzero" fill-opacity="1" /><path clip-path="url(#clip320)" d="M943.543 16.7545 L943.543 25.383 Q939.411 21.5346 934.712 19.6307 Q930.053 17.7268 924.787 17.7268 Q914.417 17.7268 908.908 24.0867 Q903.398 30.4061 903.398 42.3968 Q903.398 54.3469 908.908 60.7069 Q914.417 67.0263 924.787 67.0263 Q930.053 67.0263 934.712 65.1223 Q939.411 63.2184 943.543 59.3701 L943.543 67.9175 Q939.249 70.8341 934.428 72.2924 Q929.648 73.7508 924.301 73.7508 Q910.569 73.7508 902.669 65.3654 Q894.77 56.9395 894.77 42.3968 Q894.77 27.8135 902.669 19.4281 Q910.569 11.0023 924.301 11.0023 Q929.729 11.0023 934.509 12.4606 Q939.33 13.8784 943.543 16.7545 Z" fill="#000000" fill-rule="nonzero" fill-opacity="1" /><path clip-path="url(#clip320)" d="M955.088 54.671 L955.088 27.2059 L962.542 27.2059 L962.542 54.3874 Q962.542 60.8284 965.053 64.0691 Q967.565 67.2693 972.588 67.2693 Q978.624 67.2693 982.108 63.421 Q985.632 59.5726 985.632 52.9291 L985.632 27.2059 L993.086 27.2059 L993.086 72.576 L985.632 72.576 L985.632 65.6084 Q982.918 69.7404 979.312 71.7658 Q975.748 73.7508 971.008 73.7508 Q963.19 73.7508 959.139 68.8897 Q955.088 64.0286 955.088 54.671 M973.844 26.1121 L973.844 26.1121 Z" fill="#000000" fill-rule="nonzero" fill-opacity="1" /><path clip-path="url(#clip320)" d="M1043.76 35.9153 Q1046.56 30.8922 1050.45 28.5022 Q1054.34 26.1121 1059.6 26.1121 Q1066.69 26.1121 1070.54 31.0947 Q1074.39 36.0368 1074.39 45.1919 L1074.39 72.576 L1066.89 72.576 L1066.89 45.4349 Q1066.89 38.913 1064.58 35.7533 Q1062.27 32.5936 1057.54 32.5936 Q1051.74 32.5936 1048.38 36.4419 Q1045.02 40.2903 1045.02 46.9338 L1045.02 72.576 L1037.52 72.576 L1037.52 45.4349 Q1037.52 38.8725 1035.21 35.7533 Q1032.91 32.5936 1028.09 32.5936 Q1022.37 32.5936 1019.01 36.4824 Q1015.65 40.3308 1015.65 46.9338 L1015.65 72.576 L1008.15 72.576 L1008.15 27.2059 L1015.65 27.2059 L1015.65 34.2544 Q1018.2 30.082 1021.77 28.0971 Q1025.33 26.1121 1030.23 26.1121 Q1035.17 26.1121 1038.62 28.6237 Q1042.1 31.1352 1043.76 35.9153 Z" fill="#000000" fill-rule="nonzero" fill-opacity="1" /><path clip-path="url(#clip320)" d="M1088.48 54.671 L1088.48 27.2059 L1095.94 27.2059 L1095.94 54.3874 Q1095.94 60.8284 1098.45 64.0691 Q1100.96 67.2693 1105.98 67.2693 Q1112.02 67.2693 1115.5 63.421 Q1119.03 59.5726 1119.03 52.9291 L1119.03 27.2059 L1126.48 27.2059 L1126.48 72.576 L1119.03 72.576 L1119.03 65.6084 Q1116.31 69.7404 1112.71 71.7658 Q1109.14 73.7508 1104.4 73.7508 Q1096.59 73.7508 1092.54 68.8897 Q1088.48 64.0286 1088.48 54.671 M1107.24 26.1121 L1107.24 26.1121 Z" fill="#000000" fill-rule="nonzero" fill-opacity="1" /><path clip-path="url(#clip320)" d="M1141.83 9.54393 L1149.29 9.54393 L1149.29 72.576 L1141.83 72.576 L1141.83 9.54393 Z" fill="#000000" fill-rule="nonzero" fill-opacity="1" /><path clip-path="url(#clip320)" d="M1185.5 49.7694 Q1176.47 49.7694 1172.99 51.8354 Q1169.5 53.9013 1169.5 58.8839 Q1169.5 62.8538 1172.09 65.2034 Q1174.73 67.5124 1179.22 67.5124 Q1185.42 67.5124 1189.15 63.1374 Q1192.92 58.7219 1192.92 51.4303 L1192.92 49.7694 L1185.5 49.7694 M1200.37 46.6907 L1200.37 72.576 L1192.92 72.576 L1192.92 65.6895 Q1190.36 69.8214 1186.56 71.8063 Q1182.75 73.7508 1177.24 73.7508 Q1170.27 73.7508 1166.14 69.8619 Q1162.05 65.9325 1162.05 59.3701 Q1162.05 51.7138 1167.15 47.825 Q1172.3 43.9361 1182.47 43.9361 L1192.92 43.9361 L1192.92 43.2069 Q1192.92 38.0623 1189.51 35.2672 Q1186.15 32.4315 1180.03 32.4315 Q1176.15 32.4315 1172.46 33.3632 Q1168.77 34.295 1165.37 36.1584 L1165.37 29.2718 Q1169.46 27.692 1173.31 26.9223 Q1177.16 26.1121 1180.8 26.1121 Q1190.65 26.1121 1195.51 31.2163 Q1200.37 36.3204 1200.37 46.6907 Z" fill="#000000" fill-rule="nonzero" fill-opacity="1" /><path clip-path="url(#clip320)" d="M1223.1 14.324 L1223.1 27.2059 L1238.45 27.2059 L1238.45 32.9987 L1223.1 32.9987 L1223.1 57.6282 Q1223.1 63.1779 1224.59 64.7578 Q1226.13 66.3376 1230.79 66.3376 L1238.45 66.3376 L1238.45 72.576 L1230.79 72.576 Q1222.16 72.576 1218.88 69.3758 Q1215.6 66.1351 1215.6 57.6282 L1215.6 32.9987 L1210.13 32.9987 L1210.13 27.2059 L1215.6 27.2059 L1215.6 14.324 L1223.1 14.324 Z" fill="#000000" fill-rule="nonzero" fill-opacity="1" /><path clip-path="url(#clip320)" d="M1248.25 27.2059 L1255.71 27.2059 L1255.71 72.576 L1248.25 72.576 L1248.25 27.2059 M1248.25 9.54393 L1255.71 9.54393 L1255.71 18.9825 L1248.25 18.9825 L1248.25 9.54393 Z" fill="#000000" fill-rule="nonzero" fill-opacity="1" /><path clip-path="url(#clip320)" d="M1265.95 27.2059 L1273.85 27.2059 L1288.03 65.2844 L1302.21 27.2059 L1310.11 27.2059 L1293.1 72.576 L1282.97 72.576 L1265.95 27.2059 Z" fill="#000000" fill-rule="nonzero" fill-opacity="1" /><path clip-path="url(#clip320)" d="M1359.21 48.0275 L1359.21 51.6733 L1324.94 51.6733 Q1325.42 59.3701 1329.55 63.421 Q1333.73 67.4314 1341.14 67.4314 Q1345.43 67.4314 1349.44 66.3781 Q1353.49 65.3249 1357.46 63.2184 L1357.46 70.267 Q1353.45 71.9684 1349.24 72.8596 Q1345.03 73.7508 1340.69 73.7508 Q1329.84 73.7508 1323.48 67.4314 Q1317.16 61.1119 1317.16 50.3365 Q1317.16 39.1965 1323.15 32.6746 Q1329.19 26.1121 1339.4 26.1121 Q1348.55 26.1121 1353.86 32.0264 Q1359.21 37.9003 1359.21 48.0275 M1351.75 45.84 Q1351.67 39.7232 1348.31 36.0774 Q1344.99 32.4315 1339.48 32.4315 Q1333.24 32.4315 1329.47 35.9558 Q1325.75 39.4801 1325.18 45.8805 L1351.75 45.84 Z" fill="#000000" fill-rule="nonzero" fill-opacity="1" /><path clip-path="url(#clip320)" d="M1406.32 18.8205 L1406.32 65.8515 L1416.2 65.8515 Q1428.72 65.8515 1434.51 60.1802 Q1440.35 54.509 1440.35 42.2752 Q1440.35 30.1225 1434.51 24.4918 Q1428.72 18.8205 1416.2 18.8205 L1406.32 18.8205 M1398.14 12.096 L1414.95 12.096 Q1432.53 12.096 1440.75 19.4281 Q1448.97 26.7198 1448.97 42.2752 Q1448.97 57.9117 1440.71 65.2439 Q1432.45 72.576 1414.95 72.576 L1398.14 72.576 L1398.14 12.096 Z" fill="#000000" fill-rule="nonzero" fill-opacity="1" /><path clip-path="url(#clip320)" d="M1500.5 48.0275 L1500.5 51.6733 L1466.23 51.6733 Q1466.72 59.3701 1470.85 63.421 Q1475.02 67.4314 1482.43 67.4314 Q1486.73 67.4314 1490.74 66.3781 Q1494.79 65.3249 1498.76 63.2184 L1498.76 70.267 Q1494.75 71.9684 1490.54 72.8596 Q1486.32 73.7508 1481.99 73.7508 Q1471.13 73.7508 1464.77 67.4314 Q1458.45 61.1119 1458.45 50.3365 Q1458.45 39.1965 1464.45 32.6746 Q1470.48 26.1121 1480.69 26.1121 Q1489.85 26.1121 1495.15 32.0264 Q1500.5 37.9003 1500.5 48.0275 M1493.05 45.84 Q1492.97 39.7232 1489.6 36.0774 Q1486.28 32.4315 1480.77 32.4315 Q1474.54 32.4315 1470.77 35.9558 Q1467.04 39.4801 1466.47 45.8805 L1493.05 45.84 Z" fill="#000000" fill-rule="nonzero" fill-opacity="1" /><path clip-path="url(#clip320)" d="M1533.35 49.7694 Q1524.32 49.7694 1520.84 51.8354 Q1517.35 53.9013 1517.35 58.8839 Q1517.35 62.8538 1519.95 65.2034 Q1522.58 67.5124 1527.08 67.5124 Q1533.27 67.5124 1537 63.1374 Q1540.77 58.7219 1540.77 51.4303 L1540.77 49.7694 L1533.35 49.7694 M1548.22 46.6907 L1548.22 72.576 L1540.77 72.576 L1540.77 65.6895 Q1538.22 69.8214 1534.41 71.8063 Q1530.6 73.7508 1525.09 73.7508 Q1518.12 73.7508 1513.99 69.8619 Q1509.9 65.9325 1509.9 59.3701 Q1509.9 51.7138 1515 47.825 Q1520.15 43.9361 1530.32 43.9361 L1540.77 43.9361 L1540.77 43.2069 Q1540.77 38.0623 1537.37 35.2672 Q1534 32.4315 1527.89 32.4315 Q1524 32.4315 1520.31 33.3632 Q1516.62 34.295 1513.22 36.1584 L1513.22 29.2718 Q1517.31 27.692 1521.16 26.9223 Q1525.01 26.1121 1528.66 26.1121 Q1538.5 26.1121 1543.36 31.2163 Q1548.22 36.3204 1548.22 46.6907 Z" fill="#000000" fill-rule="nonzero" fill-opacity="1" /><path clip-path="url(#clip320)" d="M1570.95 14.324 L1570.95 27.2059 L1586.3 27.2059 L1586.3 32.9987 L1570.95 32.9987 L1570.95 57.6282 Q1570.95 63.1779 1572.45 64.7578 Q1573.99 66.3376 1578.64 66.3376 L1586.3 66.3376 L1586.3 72.576 L1578.64 72.576 Q1570.02 72.576 1566.73 69.3758 Q1563.45 66.1351 1563.45 57.6282 L1563.45 32.9987 L1557.98 32.9987 L1557.98 27.2059 L1563.45 27.2059 L1563.45 14.324 L1570.95 14.324 Z" fill="#000000" fill-rule="nonzero" fill-opacity="1" /><path clip-path="url(#clip320)" d="M1633.82 45.1919 L1633.82 72.576 L1626.36 72.576 L1626.36 45.4349 Q1626.36 38.994 1623.85 35.7938 Q1621.34 32.5936 1616.32 32.5936 Q1610.28 32.5936 1606.8 36.4419 Q1603.31 40.2903 1603.31 46.9338 L1603.31 72.576 L1595.82 72.576 L1595.82 9.54393 L1603.31 9.54393 L1603.31 34.2544 Q1605.99 30.163 1609.59 28.1376 Q1613.24 26.1121 1617.98 26.1121 Q1625.8 26.1121 1629.81 30.9732 Q1633.82 35.7938 1633.82 45.1919 Z" fill="#000000" fill-rule="nonzero" fill-opacity="1" /><path clip-path="url(#clip320)" d="M1677.61 28.5427 L1677.61 35.5912 Q1674.45 33.9709 1671.04 33.1607 Q1667.64 32.3505 1664 32.3505 Q1658.45 32.3505 1655.65 34.0519 Q1652.9 35.7533 1652.9 39.156 Q1652.9 41.7486 1654.88 43.2475 Q1656.87 44.7058 1662.86 46.0426 L1665.41 46.6097 Q1673.35 48.3111 1676.68 51.4303 Q1680.04 54.509 1680.04 60.0587 Q1680.04 66.3781 1675.01 70.0644 Q1670.03 73.7508 1661.28 73.7508 Q1657.64 73.7508 1653.67 73.0216 Q1649.74 72.3329 1645.36 70.9151 L1645.36 63.2184 Q1649.49 65.3654 1653.5 66.4591 Q1657.51 67.5124 1661.44 67.5124 Q1666.71 67.5124 1669.55 65.73 Q1672.38 63.9071 1672.38 60.6258 Q1672.38 57.5877 1670.32 55.9673 Q1668.29 54.3469 1661.36 52.8481 L1658.77 52.2405 Q1651.84 50.7821 1648.76 47.7845 Q1645.69 44.7463 1645.69 39.4801 Q1645.69 33.0797 1650.22 29.5959 Q1654.76 26.1121 1663.11 26.1121 Q1667.24 26.1121 1670.88 26.7198 Q1674.53 27.3274 1677.61 28.5427 Z" fill="#000000" fill-rule="nonzero" fill-opacity="1" /><path clip-path="url(#clip320)" d="M1750.85 49.9314 Q1750.85 41.7081 1747.44 37.0496 Q1744.08 32.3505 1738.17 32.3505 Q1732.25 32.3505 1728.85 37.0496 Q1725.49 41.7081 1725.49 49.9314 Q1725.49 58.1548 1728.85 62.8538 Q1732.25 67.5124 1738.17 67.5124 Q1744.08 67.5124 1747.44 62.8538 Q1750.85 58.1548 1750.85 49.9314 M1725.49 34.0924 Q1727.84 30.0415 1731.4 28.0971 Q1735.01 26.1121 1739.99 26.1121 Q1748.26 26.1121 1753.4 32.6746 Q1758.58 39.2371 1758.58 49.9314 Q1758.58 60.6258 1753.4 67.1883 Q1748.26 73.7508 1739.99 73.7508 Q1735.01 73.7508 1731.4 71.8063 Q1727.84 69.8214 1725.49 65.7705 L1725.49 72.576 L1717.99 72.576 L1717.99 9.54393 L1725.49 9.54393 L1725.49 34.0924 Z" fill="#000000" fill-rule="nonzero" fill-opacity="1" /><path clip-path="url(#clip320)" d="M1789.82 76.7889 Q1786.66 84.8907 1783.66 87.3618 Q1780.66 89.8329 1775.64 89.8329 L1769.68 89.8329 L1769.68 83.5945 L1774.06 83.5945 Q1777.14 83.5945 1778.84 82.1361 Q1780.54 80.6778 1782.61 75.2496 L1783.94 71.8468 L1765.59 27.2059 L1773.49 27.2059 L1787.67 62.6918 L1801.85 27.2059 L1809.75 27.2059 L1789.82 76.7889 Z" fill="#000000" fill-rule="nonzero" fill-opacity="1" /><path clip-path="url(#clip320)" d="M1875.41 44.2197 Q1878.05 45.1109 1880.52 48.0275 Q1883.03 50.9442 1885.54 56.0483 L1893.84 72.576 L1885.05 72.576 L1877.32 57.061 Q1874.32 50.9847 1871.48 48.9997 Q1868.69 47.0148 1863.83 47.0148 L1854.92 47.0148 L1854.92 72.576 L1846.73 72.576 L1846.73 12.096 L1865.2 12.096 Q1875.57 12.096 1880.68 16.4305 Q1885.78 20.7649 1885.78 29.5149 Q1885.78 35.2267 1883.11 38.994 Q1880.48 42.7613 1875.41 44.2197 M1854.92 18.8205 L1854.92 40.2903 L1865.2 40.2903 Q1871.12 40.2903 1874.12 37.5762 Q1877.15 34.8216 1877.15 29.5149 Q1877.15 24.2082 1874.12 21.5346 Q1871.12 18.8205 1865.2 18.8205 L1854.92 18.8205 Z" fill="#000000" fill-rule="nonzero" fill-opacity="1" /><path clip-path="url(#clip320)" d="M1939.13 48.0275 L1939.13 51.6733 L1904.86 51.6733 Q1905.35 59.3701 1909.48 63.421 Q1913.65 67.4314 1921.07 67.4314 Q1925.36 67.4314 1929.37 66.3781 Q1933.42 65.3249 1937.39 63.2184 L1937.39 70.267 Q1933.38 71.9684 1929.17 72.8596 Q1924.96 73.7508 1920.62 73.7508 Q1909.76 73.7508 1903.4 67.4314 Q1897.09 61.1119 1897.09 50.3365 Q1897.09 39.1965 1903.08 32.6746 Q1909.12 26.1121 1919.32 26.1121 Q1928.48 26.1121 1933.79 32.0264 Q1939.13 37.9003 1939.13 48.0275 M1931.68 45.84 Q1931.6 39.7232 1928.24 36.0774 Q1924.92 32.4315 1919.41 32.4315 Q1913.17 32.4315 1909.4 35.9558 Q1905.67 39.4801 1905.11 45.8805 L1931.68 45.84 Z" fill="#000000" fill-rule="nonzero" fill-opacity="1" /><path clip-path="url(#clip320)" d="M1981.22 49.3643 Q1981.22 41.2625 1977.86 36.8065 Q1974.54 32.3505 1968.5 32.3505 Q1962.51 32.3505 1959.15 36.8065 Q1955.82 41.2625 1955.82 49.3643 Q1955.82 57.4256 1959.15 61.8816 Q1962.51 66.3376 1968.5 66.3376 Q1974.54 66.3376 1977.86 61.8816 Q1981.22 57.4256 1981.22 49.3643 M1988.68 66.9452 Q1988.68 78.5308 1983.53 84.1616 Q1978.39 89.8329 1967.77 89.8329 Q1963.84 89.8329 1960.36 89.2252 Q1956.88 88.6581 1953.6 87.4428 L1953.6 80.1917 Q1956.88 81.9741 1960.08 82.8248 Q1963.28 83.6755 1966.6 83.6755 Q1973.93 83.6755 1977.58 79.8271 Q1981.22 76.0193 1981.22 68.282 L1981.22 64.5957 Q1978.91 68.6061 1975.31 70.5911 Q1971.7 72.576 1966.68 72.576 Q1958.33 72.576 1953.23 66.2161 Q1948.13 59.8562 1948.13 49.3643 Q1948.13 38.832 1953.23 32.472 Q1958.33 26.1121 1966.68 26.1121 Q1971.7 26.1121 1975.31 28.0971 Q1978.91 30.082 1981.22 34.0924 L1981.22 27.2059 L1988.68 27.2059 L1988.68 66.9452 Z" fill="#000000" fill-rule="nonzero" fill-opacity="1" /><path clip-path="url(#clip320)" d="M2004.03 27.2059 L2011.48 27.2059 L2011.48 72.576 L2004.03 72.576 L2004.03 27.2059 M2004.03 9.54393 L2011.48 9.54393 L2011.48 18.9825 L2004.03 18.9825 L2004.03 9.54393 Z" fill="#000000" fill-rule="nonzero" fill-opacity="1" /><path clip-path="url(#clip320)" d="M2044.66 32.4315 Q2038.66 32.4315 2035.18 37.1306 Q2031.7 41.7891 2031.7 49.9314 Q2031.7 58.0738 2035.14 62.7728 Q2038.62 67.4314 2044.66 67.4314 Q2050.61 67.4314 2054.1 62.7323 Q2057.58 58.0333 2057.58 49.9314 Q2057.58 41.8701 2054.1 37.1711 Q2050.61 32.4315 2044.66 32.4315 M2044.66 26.1121 Q2054.38 26.1121 2059.93 32.4315 Q2065.48 38.7509 2065.48 49.9314 Q2065.48 61.0714 2059.93 67.4314 Q2054.38 73.7508 2044.66 73.7508 Q2034.9 73.7508 2029.35 67.4314 Q2023.84 61.0714 2023.84 49.9314 Q2023.84 38.7509 2029.35 32.4315 Q2034.9 26.1121 2044.66 26.1121 Z" fill="#000000" fill-rule="nonzero" fill-opacity="1" /><path clip-path="url(#clip320)" d="M2115.55 45.1919 L2115.55 72.576 L2108.1 72.576 L2108.1 45.4349 Q2108.1 38.994 2105.59 35.7938 Q2103.07 32.5936 2098.05 32.5936 Q2092.01 32.5936 2088.53 36.4419 Q2085.05 40.2903 2085.05 46.9338 L2085.05 72.576 L2077.55 72.576 L2077.55 27.2059 L2085.05 27.2059 L2085.05 34.2544 Q2087.72 30.163 2091.33 28.1376 Q2094.97 26.1121 2099.71 26.1121 Q2107.53 26.1121 2111.54 30.9732 Q2115.55 35.7938 2115.55 45.1919 Z" fill="#000000" fill-rule="nonzero" fill-opacity="1" /><polyline clip-path="url(#clip321)" style="stroke:#4682b4; stroke-linecap:round; stroke-linejoin:round; stroke-width:8; stroke-opacity:1; fill:none" points="328.183,1213.51 334.633,1213.5 341.082,1213.49 347.531,1213.48 353.98,1213.47 360.429,1213.46 366.878,1213.44 373.328,1213.42 379.777,1213.4 386.226,1213.38 392.675,1213.35 399.124,1213.32 405.574,1213.29 412.023,1213.25 418.472,1213.2 424.921,1213.14 431.37,1213.08 437.82,1213 444.269,1212.92 450.718,1212.82 457.167,1212.7 463.616,1212.57 470.065,1212.41 476.515,1212.23 482.964,1212.02 489.413,1211.78 495.862,1211.5 502.311,1211.18 508.761,1210.81 515.21,1210.37 521.659,1209.87 528.108,1209.29 534.557,1208.62 541.007,1207.84 547.456,1206.95 553.905,1205.93 560.354,1204.76 566.803,1203.44 573.253,1201.94 579.702,1200.25 586.151,1198.33 592.6,1196.19 599.049,1193.82 605.498,1191.18 611.948,1188.25 618.397,1185.01 624.846,1181.46 631.295,1177.6 637.744,1173.39 644.194,1168.82 650.643,1163.89 657.092,1158.61 663.541,1152.97 669.99,1146.95 676.44,1140.57 682.889,1133.86 689.338,1126.82 695.787,1119.48 702.236,1111.83 708.685,1103.92 715.135,1095.79 721.584,1087.47 728.033,1078.99 734.482,1070.36 740.931,1061.62 747.381,1052.77 753.83,1043.84 760.279,1034.84 766.728,1025.82 773.177,1016.77 779.627,1007.71 786.076,998.656 792.525,989.631 798.974,980.651 805.423,971.732 811.873,962.889 818.322,954.14 824.771,945.5 831.22,936.984 837.669,928.606 844.118,920.377 850.568,912.312 857.017,904.424 863.466,896.722 869.915,889.213 876.364,881.907 882.814,874.812 889.263,867.939 895.712,861.291 902.161,854.867 908.61,848.671 915.06,842.709 921.509,836.986 927.958,831.493 934.407,826.21 940.856,821.126 947.305,816.237 953.755,811.538 960.204,807.01 966.653,802.641 973.102,798.422 979.551,794.343 986.001,790.396 992.45,786.573 998.899,782.867 1005.35,779.271 1011.8,775.775 1018.25,772.372 1024.7,769.057 1031.14,765.827 1037.59,762.677 1044.04,759.602 1050.49,756.593 1056.94,753.644 1063.39,750.753 1069.84,747.919 1076.29,745.139 1082.74,742.408 1089.19,739.721 1095.64,737.069 1102.09,734.454 1108.54,731.876 1114.98,729.332 1121.43,726.819 1127.88,724.333 1134.33,721.871 1140.78,719.434 1147.23,717.024 1153.68,714.642 1160.13,712.285 1166.58,709.949 1173.03,707.631 1179.48,705.334 1185.93,703.059 1192.37,700.806 1198.82,698.573 1205.27,696.359 1211.72,694.158 1218.17,691.973 1224.62,689.806 1231.07,687.656 1237.52,685.524 1243.97,683.407 1250.42,681.3 1256.87,679.204 1263.32,677.121 1269.76,675.052 1276.21,672.998 1282.66,670.956 1289.11,668.923 1295.56,666.895 1302.01,664.876 1308.46,662.868 1314.91,660.871 1321.36,658.885 1327.81,656.905 1334.26,654.927 1340.71,652.954 1347.16,650.988 1353.6,649.031 1360.05,647.081 1366.5,645.136 1372.95,643.19 1379.4,641.246 1385.85,639.307 1392.3,637.372 1398.75,635.442 1405.2,633.514 1411.65,631.584 1418.1,629.653 1424.55,627.723 1430.99,625.796 1437.44,623.87 1443.89,621.944 1450.34,620.014 1456.79,618.079 1463.24,616.143 1469.69,614.207 1476.14,612.27 1482.59,610.33 1489.04,608.384 1495.49,606.431 1501.94,604.472 1508.38,602.512 1514.83,600.548 1521.28,598.581 1527.73,596.605 1534.18,594.618 1540.63,592.625 1547.08,590.626 1553.53,588.622 1559.98,586.611 1566.43,584.591 1572.88,582.559 1579.33,580.517 1585.78,578.468 1592.22,576.412 1598.67,574.346 1605.12,572.268 1611.57,570.177 1618.02,568.075 1624.47,565.962 1630.92,563.84 1637.37,561.706 1643.82,559.558 1650.27,557.395 1656.72,555.217 1663.17,553.028 1669.61,550.826 1676.06,548.611 1682.51,546.38 1688.96,544.131 1695.41,541.864 1701.86,539.582 1708.31,537.286 1714.76,534.975 1721.21,532.647 1727.66,530.298 1734.11,527.927 1740.56,525.538 1747,523.132 1753.45,520.71 1759.9,518.269 1766.35,515.805 1772.8,513.315 1779.25,510.804 1785.7,508.273 1792.15,505.723 1798.6,503.152 1805.05,500.556 1811.5,497.931 1817.95,495.282 1824.4,492.611 1830.84,489.917 1837.29,487.2 1843.74,484.454 1850.19,481.677 1856.64,478.874 1863.09,476.045 1869.54,473.191 1875.99,470.309 1882.44,467.397 1888.89,464.452 1895.34,461.476 1901.79,458.472 1908.23,455.439 1914.68,452.377 1921.13,449.282 1927.58,446.15 1934.03,442.983 1940.48,439.785 1946.93,436.557 1953.38,433.298 1959.83,430.005 1966.28,426.674 1972.73,423.307 1979.18,419.913 1985.62,416.493 1992.07,413.048 1998.52,409.576 2004.97,406.072 2011.42,402.541 2017.87,398.989 2024.32,395.42 2030.77,391.833 2037.22,388.226 2043.67,384.598 2050.12,380.954 2056.57,377.3 2063.02,373.635 2069.46,369.962 2075.91,366.278 2082.36,362.584 2088.81,358.885 2095.26,355.185 2101.71,351.485 2108.16,347.785 2114.61,344.086 2121.06,340.386 2127.51,336.692 2133.96,333.007 2140.41,329.331 2146.85,325.667 2153.3,322.014 2159.75,318.37 2166.2,314.74 2172.65,311.128 2179.1,307.536 2185.55,303.965 2192,300.416 2198.45,296.886 2204.9,293.377 2211.35,289.893 2217.8,286.438 2224.24,283.013 2230.69,279.619 2237.14,276.253 2243.59,272.915 2250.04,269.608 2256.49,266.337 2262.94,263.102 2269.39,259.905 2275.84,256.744 2282.29,253.617 2288.74,250.527 2295.19,247.477 2301.64,244.468 2308.08,241.501 2314.53,238.576 2320.98,235.689 2327.43,232.844 2333.88,230.041 2340.33,227.283 2346.78,224.57 2353.23,221.9 2359.68,219.274 2366.13,216.69 2372.58,214.151 2379.03,211.658 2385.47,209.21 2391.92,206.808 2398.37,204.45 2404.82,202.136 2411.27,199.867 2417.72,197.642 2424.17,195.463 2430.62,193.329 2437.07,191.24 2443.52,189.193 2449.97,187.191 2456.42,185.232 2462.86,183.316 2469.31,181.444 2475.76,179.615 2482.21,177.827 2488.66,176.081 2495.11,174.377 2501.56,172.714 2508.01,171.091 2514.46,169.508 2520.91,167.965 2527.36,166.46 2533.81,164.995 2540.26,163.567 2546.7,162.176 2553.15,160.822 2559.6,159.504 2566.05,158.222 2572.5,156.975 2578.95,155.763 2585.4,154.584 2591.85,153.438 2598.3,152.325 2604.75,151.244 2611.2,150.195 2617.65,149.176 2624.09,148.187 2630.54,147.228 2636.99,146.297 2643.44,145.395 2649.89,144.521 2656.34,143.674 2662.79,142.853 2669.24,142.057 2675.69,141.287 2682.14,140.541 "/>
<polyline clip-path="url(#clip321)" style="stroke:#ffa500; stroke-linecap:round; stroke-linejoin:round; stroke-width:8; stroke-opacity:1; fill:none" points="328.183,1213.51 334.633,1213.51 341.082,1213.51 347.531,1213.51 353.98,1213.51 360.429,1213.51 366.878,1213.51 373.328,1213.5 379.777,1213.5 386.226,1213.5 392.675,1213.5 399.124,1213.5 405.574,1213.5 412.023,1213.5 418.472,1213.5 424.921,1213.5 431.37,1213.5 437.82,1213.5 444.269,1213.49 450.718,1213.49 457.167,1213.49 463.616,1213.49 470.065,1213.49 476.515,1213.49 482.964,1213.48 489.413,1213.48 495.862,1213.48 502.311,1213.47 508.761,1213.47 515.21,1213.47 521.659,1213.46 528.108,1213.46 534.557,1213.45 541.007,1213.44 547.456,1213.44 553.905,1213.43 560.354,1213.42 566.803,1213.41 573.253,1213.39 579.702,1213.37 586.151,1213.36 592.6,1213.33 599.049,1213.31 605.498,1213.28 611.948,1213.25 618.397,1213.21 624.846,1213.17 631.295,1213.12 637.744,1213.06 644.194,1213 650.643,1212.92 657.092,1212.84 663.541,1212.74 669.99,1212.63 676.44,1212.51 682.889,1212.36 689.338,1212.2 695.787,1212.02 702.236,1211.81 708.685,1211.58 715.135,1211.31 721.584,1211.01 728.033,1210.68 734.482,1210.3 740.931,1209.88 747.381,1209.41 753.83,1208.89 760.279,1208.31 766.728,1207.68 773.177,1206.99 779.627,1206.23 786.076,1205.41 792.525,1204.53 798.974,1203.57 805.423,1202.54 811.873,1201.44 818.322,1200.26 824.771,1199.02 831.22,1197.7 837.669,1196.31 844.118,1194.85 850.568,1193.33 857.017,1191.73 863.466,1190.08 869.915,1188.38 876.364,1186.62 882.814,1184.82 889.263,1182.98 895.712,1181.11 902.161,1179.21 908.61,1177.3 915.06,1175.38 921.509,1173.45 927.958,1171.52 934.407,1169.6 940.856,1167.68 947.305,1165.77 953.755,1163.87 960.204,1161.98 966.653,1160.1 973.102,1158.23 979.551,1156.38 986.001,1154.54 992.45,1152.71 998.899,1150.91 1005.35,1149.11 1011.8,1147.34 1018.25,1145.59 1024.7,1143.85 1031.14,1142.14 1037.59,1140.45 1044.04,1138.77 1050.49,1137.12 1056.94,1135.5 1063.39,1133.89 1069.84,1132.31 1076.29,1130.75 1082.74,1129.22 1089.19,1127.71 1095.64,1126.23 1102.09,1124.78 1108.54,1123.35 1114.98,1121.94 1121.43,1120.56 1127.88,1119.21 1134.33,1117.88 1140.78,1116.57 1147.23,1115.29 1153.68,1114.02 1160.13,1112.78 1166.58,1111.55 1173.03,1110.34 1179.48,1109.15 1185.93,1107.97 1192.37,1106.81 1198.82,1105.66 1205.27,1104.53 1211.72,1103.41 1218.17,1102.3 1224.62,1101.2 1231.07,1100.12 1237.52,1099.04 1243.97,1097.97 1250.42,1096.91 1256.87,1095.86 1263.32,1094.82 1269.76,1093.78 1276.21,1092.75 1282.66,1091.73 1289.11,1090.71 1295.56,1089.69 1302.01,1088.68 1308.46,1087.68 1314.91,1086.67 1321.36,1085.67 1327.81,1084.67 1334.26,1083.67 1340.71,1082.67 1347.16,1081.67 1353.6,1080.68 1360.05,1079.68 1366.5,1078.68 1372.95,1077.68 1379.4,1076.67 1385.85,1075.67 1392.3,1074.66 1398.75,1073.65 1405.2,1072.63 1411.65,1071.61 1418.1,1070.58 1424.55,1069.55 1430.99,1068.51 1437.44,1067.47 1443.89,1066.42 1450.34,1065.36 1456.79,1064.29 1463.24,1063.22 1469.69,1062.13 1476.14,1061.03 1482.59,1059.93 1489.04,1058.81 1495.49,1057.68 1501.94,1056.54 1508.38,1055.39 1514.83,1054.22 1521.28,1053.04 1527.73,1051.85 1534.18,1050.64 1540.63,1049.41 1547.08,1048.17 1553.53,1046.92 1559.98,1045.65 1566.43,1044.36 1572.88,1043.05 1579.33,1041.73 1585.78,1040.39 1592.22,1039.03 1598.67,1037.65 1605.12,1036.26 1611.57,1034.84 1618.02,1033.4 1624.47,1031.94 1630.92,1030.46 1637.37,1028.96 1643.82,1027.44 1650.27,1025.89 1656.72,1024.31 1663.17,1022.72 1669.61,1021.1 1676.06,1019.45 1682.51,1017.78 1688.96,1016.08 1695.41,1014.35 1701.86,1012.59 1708.31,1010.81 1714.76,1009 1721.21,1007.16 1727.66,1005.28 1734.11,1003.37 1740.56,1001.43 1747,999.461 1753.45,997.458 1759.9,995.421 1766.35,993.347 1772.8,991.234 1779.25,989.084 1785.7,986.898 1792.15,984.676 1798.6,982.416 1805.05,980.115 1811.5,977.769 1817.95,975.382 1824.4,972.954 1830.84,970.485 1837.29,967.973 1843.74,965.414 1850.19,962.807 1856.64,960.152 1863.09,957.452 1869.54,954.706 1875.99,951.912 1882.44,949.067 1888.89,946.167 1895.34,943.215 1901.79,940.213 1908.23,937.16 1914.68,934.055 1921.13,930.894 1927.58,927.673 1934.03,924.394 1940.48,921.06 1946.93,917.673 1953.38,914.23 1959.83,910.73 1966.28,907.167 1972.73,903.544 1979.18,899.869 1985.62,896.148 1992.07,892.38 1998.52,888.561 2004.97,884.687 2011.42,880.764 2017.87,876.8 2024.32,872.8 2030.77,868.763 2037.22,864.687 2043.67,860.57 2050.12,856.422 2056.57,852.247 2063.02,848.048 2069.46,843.827 2075.91,839.581 2082.36,835.312 2088.81,831.028 2095.26,826.733 2101.71,822.431 2108.16,818.123 2114.61,813.807 2121.06,809.485 2127.51,805.165 2133.96,800.851 2140.41,796.548 2146.85,792.256 2153.3,787.976 2159.75,783.705 2166.2,779.45 2172.65,775.217 2179.1,771.012 2185.55,766.836 2192,762.689 2198.45,758.568 2204.9,754.475 2211.35,750.418 2217.8,746.401 2224.24,742.428 2230.69,738.499 2237.14,734.611 2243.59,730.762 2250.04,726.958 2256.49,723.206 2262.94,719.507 2269.39,715.862 2275.84,712.27 2282.29,708.727 2288.74,705.237 2295.19,701.805 2301.64,698.432 2308.08,695.119 2314.53,691.864 2320.98,688.667 2327.43,685.527 2333.88,682.449 2340.33,679.432 2346.78,676.477 2353.23,673.585 2359.68,670.752 2366.13,667.979 2372.58,665.267 2379.03,662.617 2385.47,660.028 2391.92,657.501 2398.37,655.034 2404.82,652.626 2411.27,650.277 2417.72,647.987 2424.17,645.757 2430.62,643.584 2437.07,641.468 2443.52,639.409 2449.97,637.407 2456.42,635.459 2462.86,633.566 2469.31,631.726 2475.76,629.938 2482.21,628.203 2488.66,626.519 2495.11,624.885 2501.56,623.301 2508.01,621.764 2514.46,620.274 2520.91,618.831 2527.36,617.434 2533.81,616.082 2540.26,614.773 2546.7,613.505 2553.15,612.279 2559.6,611.094 2566.05,609.949 2572.5,608.843 2578.95,607.775 2585.4,606.742 2591.85,605.745 2598.3,604.783 2604.75,603.855 2611.2,602.961 2617.65,602.099 2624.09,601.267 2630.54,600.465 2636.99,599.692 2643.44,598.949 2649.89,598.233 2656.34,597.545 2662.79,596.882 2669.24,596.244 2675.69,595.63 2682.14,595.04 "/>
<polyline clip-path="url(#clip321)" style="stroke:#008000; stroke-linecap:round; stroke-linejoin:round; stroke-width:8; stroke-opacity:1; fill:none" points="328.183,1213.51 334.633,1213.51 341.082,1213.51 347.531,1213.51 353.98,1213.51 360.429,1213.51 366.878,1213.51 373.328,1213.51 379.777,1213.51 386.226,1213.51 392.675,1213.51 399.124,1213.51 405.574,1213.51 412.023,1213.51 418.472,1213.51 424.921,1213.51 431.37,1213.51 437.82,1213.51 444.269,1213.51 450.718,1213.51 457.167,1213.51 463.616,1213.51 470.065,1213.51 476.515,1213.51 482.964,1213.51 489.413,1213.51 495.862,1213.51 502.311,1213.51 508.761,1213.51 515.21,1213.51 521.659,1213.51 528.108,1213.51 534.557,1213.51 541.007,1213.51 547.456,1213.51 553.905,1213.5 560.354,1213.5 566.803,1213.5 573.253,1213.5 579.702,1213.5 586.151,1213.5 592.6,1213.5 599.049,1213.5 605.498,1213.5 611.948,1213.49 618.397,1213.49 624.846,1213.49 631.295,1213.49 637.744,1213.48 644.194,1213.48 650.643,1213.47 657.092,1213.47 663.541,1213.46 669.99,1213.46 676.44,1213.45 682.889,1213.44 689.338,1213.43 695.787,1213.42 702.236,1213.41 708.685,1213.4 715.135,1213.38 721.584,1213.37 728.033,1213.35 734.482,1213.33 740.931,1213.31 747.381,1213.29 753.83,1213.26 760.279,1213.24 766.728,1213.21 773.177,1213.18 779.627,1213.14 786.076,1213.1 792.525,1213.06 798.974,1213.02 805.423,1212.97 811.873,1212.92 818.322,1212.87 824.771,1212.81 831.22,1212.75 837.669,1212.69 844.118,1212.62 850.568,1212.55 857.017,1212.47 863.466,1212.39 869.915,1212.31 876.364,1212.22 882.814,1212.12 889.263,1212.02 895.712,1211.92 902.161,1211.81 908.61,1211.7 915.06,1211.58 921.509,1211.45 927.958,1211.32 934.407,1211.19 940.856,1211.05 947.305,1210.9 953.755,1210.75 960.204,1210.6 966.653,1210.44 973.102,1210.28 979.551,1210.11 986.001,1209.94 992.45,1209.76 998.899,1209.58 1005.35,1209.4 1011.8,1209.21 1018.25,1209.02 1024.7,1208.83 1031.14,1208.63 1037.59,1208.44 1044.04,1208.24 1050.49,1208.04 1056.94,1207.84 1063.39,1207.64 1069.84,1207.44 1076.29,1207.23 1082.74,1207.03 1089.19,1206.83 1095.64,1206.63 1102.09,1206.43 1108.54,1206.24 1114.98,1206.04 1121.43,1205.85 1127.88,1205.66 1134.33,1205.47 1140.78,1205.29 1147.23,1205.11 1153.68,1204.92 1160.13,1204.75 1166.58,1204.57 1173.03,1204.39 1179.48,1204.22 1185.93,1204.05 1192.37,1203.88 1198.82,1203.71 1205.27,1203.54 1211.72,1203.38 1218.17,1203.22 1224.62,1203.06 1231.07,1202.9 1237.52,1202.74 1243.97,1202.58 1250.42,1202.42 1256.87,1202.27 1263.32,1202.12 1269.76,1201.97 1276.21,1201.81 1282.66,1201.67 1289.11,1201.52 1295.56,1201.37 1302.01,1201.22 1308.46,1201.08 1314.91,1200.93 1321.36,1200.79 1327.81,1200.65 1334.26,1200.51 1340.71,1200.37 1347.16,1200.23 1353.6,1200.09 1360.05,1199.95 1366.5,1199.82 1372.95,1199.68 1379.4,1199.54 1385.85,1199.41 1392.3,1199.27 1398.75,1199.14 1405.2,1199.01 1411.65,1198.87 1418.1,1198.74 1424.55,1198.61 1430.99,1198.48 1437.44,1198.35 1443.89,1198.22 1450.34,1198.09 1456.79,1197.96 1463.24,1197.83 1469.69,1197.7 1476.14,1197.57 1482.59,1197.44 1489.04,1197.31 1495.49,1197.19 1501.94,1197.06 1508.38,1196.93 1514.83,1196.8 1521.28,1196.68 1527.73,1196.55 1534.18,1196.42 1540.63,1196.29 1547.08,1196.17 1553.53,1196.04 1559.98,1195.91 1566.43,1195.78 1572.88,1195.66 1579.33,1195.53 1585.78,1195.4 1592.22,1195.27 1598.67,1195.14 1605.12,1195.02 1611.57,1194.89 1618.02,1194.76 1624.47,1194.63 1630.92,1194.5 1637.37,1194.37 1643.82,1194.24 1650.27,1194.11 1656.72,1193.98 1663.17,1193.85 1669.61,1193.72 1676.06,1193.58 1682.51,1193.45 1688.96,1193.32 1695.41,1193.18 1701.86,1193.05 1708.31,1192.91 1714.76,1192.78 1721.21,1192.64 1727.66,1192.51 1734.11,1192.37 1740.56,1192.23 1747,1192.09 1753.45,1191.95 1759.9,1191.81 1766.35,1191.67 1772.8,1191.53 1779.25,1191.39 1785.7,1191.24 1792.15,1191.1 1798.6,1190.95 1805.05,1190.8 1811.5,1190.66 1817.95,1190.51 1824.4,1190.36 1830.84,1190.2 1837.29,1190.05 1843.74,1189.9 1850.19,1189.74 1856.64,1189.59 1863.09,1189.43 1869.54,1189.27 1875.99,1189.11 1882.44,1188.95 1888.89,1188.78 1895.34,1188.62 1901.79,1188.45 1908.23,1188.28 1914.68,1188.11 1921.13,1187.94 1927.58,1187.77 1934.03,1187.59 1940.48,1187.42 1946.93,1187.24 1953.38,1187.06 1959.83,1186.87 1966.28,1186.69 1972.73,1186.5 1979.18,1186.31 1985.62,1186.12 1992.07,1185.93 1998.52,1185.74 2004.97,1185.54 2011.42,1185.34 2017.87,1185.14 2024.32,1184.94 2030.77,1184.73 2037.22,1184.53 2043.67,1184.32 2050.12,1184.11 2056.57,1183.9 2063.02,1183.69 2069.46,1183.47 2075.91,1183.25 2082.36,1183.03 2088.81,1182.81 2095.26,1182.59 2101.71,1182.37 2108.16,1182.14 2114.61,1181.92 2121.06,1181.69 2127.51,1181.46 2133.96,1181.23 2140.41,1180.99 2146.85,1180.76 2153.3,1180.52 2159.75,1180.28 2166.2,1180.05 2172.65,1179.81 2179.1,1179.56 2185.55,1179.32 2192,1179.08 2198.45,1178.83 2204.9,1178.59 2211.35,1178.34 2217.8,1178.09 2224.24,1177.85 2230.69,1177.6 2237.14,1177.35 2243.59,1177.1 2250.04,1176.84 2256.49,1176.59 2262.94,1176.34 2269.39,1176.09 2275.84,1175.83 2282.29,1175.58 2288.74,1175.32 2295.19,1175.07 2301.64,1174.81 2308.08,1174.56 2314.53,1174.3 2320.98,1174.05 2327.43,1173.79 2333.88,1173.54 2340.33,1173.28 2346.78,1173.03 2353.23,1172.77 2359.68,1172.52 2366.13,1172.26 2372.58,1172.01 2379.03,1171.76 2385.47,1171.5 2391.92,1171.25 2398.37,1171 2404.82,1170.75 2411.27,1170.5 2417.72,1170.25 2424.17,1170 2430.62,1169.75 2437.07,1169.5 2443.52,1169.25 2449.97,1169.01 2456.42,1168.76 2462.86,1168.52 2469.31,1168.28 2475.76,1168.04 2482.21,1167.8 2488.66,1167.56 2495.11,1167.32 2501.56,1167.09 2508.01,1166.85 2514.46,1166.62 2520.91,1166.39 2527.36,1166.16 2533.81,1165.93 2540.26,1165.7 2546.7,1165.47 2553.15,1165.25 2559.6,1165.03 2566.05,1164.81 2572.5,1164.59 2578.95,1164.37 2585.4,1164.16 2591.85,1163.94 2598.3,1163.73 2604.75,1163.52 2611.2,1163.31 2617.65,1163.11 2624.09,1162.9 2630.54,1162.7 2636.99,1162.5 2643.44,1162.3 2649.89,1162.11 2656.34,1161.91 2662.79,1161.72 2669.24,1161.53 2675.69,1161.34 2682.14,1161.15 "/>
<path clip-path="url(#clip320)" d="M340.738 353.624 L935.139 353.624 L935.139 146.264 L340.738 146.264  Z" fill="#ffffff" fill-rule="evenodd" fill-opacity="1"/>
<polyline clip-path="url(#clip320)" style="stroke:#000000; stroke-linecap:round; stroke-linejoin:round; stroke-width:4; stroke-opacity:1; fill:none" points="340.738,353.624 935.139,353.624 935.139,146.264 340.738,146.264 340.738,353.624 "/>
<polyline clip-path="url(#clip320)" style="stroke:#4682b4; stroke-linecap:round; stroke-linejoin:round; stroke-width:8; stroke-opacity:1; fill:none" points="368.462,198.104 534.808,198.104 "/>
<path clip-path="url(#clip320)" d="M562.533 180.824 L567.232 180.824 L567.232 201.819 Q567.232 207.375 569.245 209.828 Q571.259 212.259 575.773 212.259 Q580.264 212.259 582.278 209.828 Q584.292 207.375 584.292 201.819 L584.292 180.824 L588.991 180.824 L588.991 202.398 Q588.991 209.157 585.634 212.606 Q582.301 216.055 575.773 216.055 Q569.222 216.055 565.866 212.606 Q562.533 209.157 562.533 202.398 L562.533 180.824 Z" fill="#000000" fill-rule="nonzero" fill-opacity="1" /><path clip-path="url(#clip320)" d="M612.602 193.439 Q611.884 193.023 611.028 192.838 Q610.194 192.629 609.176 192.629 Q605.565 192.629 603.62 194.99 Q601.699 197.328 601.699 201.726 L601.699 215.384 L597.417 215.384 L597.417 189.458 L601.699 189.458 L601.699 193.486 Q603.042 191.125 605.194 189.99 Q607.347 188.833 610.426 188.833 Q610.866 188.833 611.398 188.902 Q611.93 188.949 612.579 189.064 L612.602 193.439 Z" fill="#000000" fill-rule="nonzero" fill-opacity="1" /><path clip-path="url(#clip320)" d="M635.68 202.444 Q635.68 197.745 633.736 195.083 Q631.815 192.398 628.435 192.398 Q625.055 192.398 623.111 195.083 Q621.19 197.745 621.19 202.444 Q621.19 207.143 623.111 209.828 Q625.055 212.49 628.435 212.49 Q631.815 212.49 633.736 209.828 Q635.68 207.143 635.68 202.444 M621.19 193.393 Q622.532 191.078 624.569 189.967 Q626.629 188.833 629.477 188.833 Q634.199 188.833 637.139 192.583 Q640.102 196.333 640.102 202.444 Q640.102 208.555 637.139 212.305 Q634.199 216.055 629.477 216.055 Q626.629 216.055 624.569 214.944 Q622.532 213.81 621.19 211.495 L621.19 215.384 L616.907 215.384 L616.907 179.365 L621.19 179.365 L621.19 193.393 Z" fill="#000000" fill-rule="nonzero" fill-opacity="1" /><path clip-path="url(#clip320)" d="M658.944 202.351 Q653.782 202.351 651.791 203.532 Q649.801 204.712 649.801 207.56 Q649.801 209.828 651.282 211.171 Q652.787 212.49 655.356 212.49 Q658.898 212.49 661.027 209.99 Q663.18 207.467 663.18 203.3 L663.18 202.351 L658.944 202.351 M667.439 200.592 L667.439 215.384 L663.18 215.384 L663.18 211.449 Q661.722 213.81 659.546 214.944 Q657.37 216.055 654.222 216.055 Q650.24 216.055 647.879 213.833 Q645.541 211.587 645.541 207.837 Q645.541 203.462 648.458 201.24 Q651.398 199.018 657.208 199.018 L663.18 199.018 L663.18 198.601 Q663.18 195.662 661.236 194.064 Q659.314 192.444 655.819 192.444 Q653.597 192.444 651.49 192.976 Q649.384 193.509 647.439 194.574 L647.439 190.638 Q649.777 189.736 651.977 189.296 Q654.176 188.833 656.259 188.833 Q661.884 188.833 664.662 191.75 Q667.439 194.666 667.439 200.592 Z" fill="#000000" fill-rule="nonzero" fill-opacity="1" /><path clip-path="url(#clip320)" d="M697.763 199.736 L697.763 215.384 L693.504 215.384 L693.504 199.875 Q693.504 196.194 692.069 194.365 Q690.634 192.537 687.763 192.537 Q684.314 192.537 682.324 194.736 Q680.333 196.935 680.333 200.731 L680.333 215.384 L676.05 215.384 L676.05 189.458 L680.333 189.458 L680.333 193.486 Q681.861 191.148 683.921 189.99 Q686.004 188.833 688.712 188.833 Q693.18 188.833 695.472 191.611 Q697.763 194.365 697.763 199.736 Z" fill="#000000" fill-rule="nonzero" fill-opacity="1" /><path clip-path="url(#clip320)" d="M731.559 179.412 Q728.458 184.736 726.953 189.944 Q725.448 195.152 725.448 200.5 Q725.448 205.847 726.953 211.101 Q728.481 216.333 731.559 221.634 L727.856 221.634 Q724.384 216.194 722.647 210.939 Q720.934 205.685 720.934 200.5 Q720.934 195.338 722.647 190.106 Q724.36 184.875 727.856 179.412 L731.559 179.412 Z" fill="#000000" fill-rule="nonzero" fill-opacity="1" /><path clip-path="url(#clip320)" d="M740.471 180.824 L758.828 180.824 L758.828 184.759 L744.754 184.759 L744.754 193.231 Q745.772 192.884 746.791 192.722 Q747.809 192.537 748.828 192.537 Q754.615 192.537 757.994 195.708 Q761.374 198.879 761.374 204.296 Q761.374 209.874 757.902 212.976 Q754.43 216.055 748.11 216.055 Q745.934 216.055 743.666 215.685 Q741.42 215.314 739.013 214.574 L739.013 209.874 Q741.096 211.009 743.319 211.564 Q745.541 212.12 748.018 212.12 Q752.022 212.12 754.36 210.013 Q756.698 207.907 756.698 204.296 Q756.698 200.685 754.36 198.578 Q752.022 196.472 748.018 196.472 Q746.143 196.472 744.268 196.888 Q742.416 197.305 740.471 198.185 L740.471 180.824 Z" fill="#000000" fill-rule="nonzero" fill-opacity="1" /><path clip-path="url(#clip320)" d="M770.17 180.824 L777.138 180.824 L785.957 204.342 L794.823 180.824 L801.791 180.824 L801.791 215.384 L797.23 215.384 L797.23 185.037 L788.318 208.74 L783.619 208.74 L774.707 185.037 L774.707 215.384 L770.17 215.384 L770.17 180.824 Z" fill="#000000" fill-rule="nonzero" fill-opacity="1" /><path clip-path="url(#clip320)" d="M810.216 179.412 L813.92 179.412 Q817.392 184.875 819.105 190.106 Q820.841 195.338 820.841 200.5 Q820.841 205.685 819.105 210.939 Q817.392 216.194 813.92 221.634 L810.216 221.634 Q813.295 216.333 814.8 211.101 Q816.327 205.847 816.327 200.5 Q816.327 195.152 814.8 189.944 Q813.295 184.736 810.216 179.412 Z" fill="#000000" fill-rule="nonzero" fill-opacity="1" /><polyline clip-path="url(#clip320)" style="stroke:#ffa500; stroke-linecap:round; stroke-linejoin:round; stroke-width:8; stroke-opacity:1; fill:none" points="368.462,249.944 534.808,249.944 "/>
<path clip-path="url(#clip320)" d="M584.778 233.798 L584.778 238.358 Q582.116 237.085 579.755 236.46 Q577.394 235.835 575.195 235.835 Q571.375 235.835 569.292 237.316 Q567.232 238.798 567.232 241.529 Q567.232 243.821 568.597 245.002 Q569.986 246.159 573.829 246.877 L576.653 247.455 Q581.884 248.451 584.361 250.974 Q586.861 253.474 586.861 257.687 Q586.861 262.71 583.481 265.302 Q580.125 267.895 573.62 267.895 Q571.167 267.895 568.389 267.339 Q565.634 266.784 562.671 265.696 L562.671 260.881 Q565.519 262.478 568.25 263.289 Q570.982 264.099 573.62 264.099 Q577.625 264.099 579.801 262.525 Q581.977 260.951 581.977 258.034 Q581.977 255.488 580.403 254.052 Q578.852 252.617 575.287 251.9 L572.44 251.344 Q567.208 250.303 564.87 248.08 Q562.533 245.858 562.533 241.9 Q562.533 237.316 565.75 234.678 Q568.991 232.039 574.662 232.039 Q577.093 232.039 579.616 232.479 Q582.139 232.918 584.778 233.798 Z" fill="#000000" fill-rule="nonzero" fill-opacity="1" /><path clip-path="url(#clip320)" d="M593.528 256.992 L593.528 241.298 L597.787 241.298 L597.787 256.83 Q597.787 260.511 599.222 262.363 Q600.657 264.191 603.528 264.191 Q606.977 264.191 608.967 261.992 Q610.981 259.793 610.981 255.997 L610.981 241.298 L615.241 241.298 L615.241 267.224 L610.981 267.224 L610.981 263.242 Q609.43 265.603 607.37 266.761 Q605.333 267.895 602.625 267.895 Q598.157 267.895 595.843 265.117 Q593.528 262.339 593.528 256.992 M604.245 240.673 L604.245 240.673 Z" fill="#000000" fill-rule="nonzero" fill-opacity="1" /><path clip-path="url(#clip320)" d="M642.625 254.284 Q642.625 249.585 640.68 246.923 Q638.759 244.238 635.379 244.238 Q632 244.238 630.055 246.923 Q628.134 249.585 628.134 254.284 Q628.134 258.983 630.055 261.668 Q632 264.33 635.379 264.33 Q638.759 264.33 640.68 261.668 Q642.625 258.983 642.625 254.284 M628.134 245.233 Q629.477 242.918 631.514 241.807 Q633.574 240.673 636.421 240.673 Q641.143 240.673 644.083 244.423 Q647.046 248.173 647.046 254.284 Q647.046 260.395 644.083 264.145 Q641.143 267.895 636.421 267.895 Q633.574 267.895 631.514 266.784 Q629.477 265.65 628.134 263.335 L628.134 267.224 L623.852 267.224 L623.852 231.205 L628.134 231.205 L628.134 245.233 Z" fill="#000000" fill-rule="nonzero" fill-opacity="1" /><path clip-path="url(#clip320)" d="M653.666 256.992 L653.666 241.298 L657.926 241.298 L657.926 256.83 Q657.926 260.511 659.361 262.363 Q660.796 264.191 663.666 264.191 Q667.115 264.191 669.106 261.992 Q671.12 259.793 671.12 255.997 L671.12 241.298 L675.379 241.298 L675.379 267.224 L671.12 267.224 L671.12 263.242 Q669.569 265.603 667.509 266.761 Q665.472 267.895 662.763 267.895 Q658.296 267.895 655.981 265.117 Q653.666 262.339 653.666 256.992 M664.384 240.673 L664.384 240.673 Z" fill="#000000" fill-rule="nonzero" fill-opacity="1" /><path clip-path="url(#clip320)" d="M699.175 245.279 Q698.458 244.863 697.601 244.678 Q696.768 244.469 695.749 244.469 Q692.138 244.469 690.194 246.83 Q688.273 249.168 688.273 253.566 L688.273 267.224 L683.99 267.224 L683.99 241.298 L688.273 241.298 L688.273 245.326 Q689.615 242.965 691.768 241.83 Q693.921 240.673 696.999 240.673 Q697.439 240.673 697.972 240.742 Q698.504 240.789 699.152 240.904 L699.175 245.279 Z" fill="#000000" fill-rule="nonzero" fill-opacity="1" /><path clip-path="url(#clip320)" d="M722.254 254.284 Q722.254 249.585 720.309 246.923 Q718.388 244.238 715.009 244.238 Q711.629 244.238 709.685 246.923 Q707.763 249.585 707.763 254.284 Q707.763 258.983 709.685 261.668 Q711.629 264.33 715.009 264.33 Q718.388 264.33 720.309 261.668 Q722.254 258.983 722.254 254.284 M707.763 245.233 Q709.106 242.918 711.143 241.807 Q713.203 240.673 716.05 240.673 Q720.772 240.673 723.712 244.423 Q726.675 248.173 726.675 254.284 Q726.675 260.395 723.712 264.145 Q720.772 267.895 716.05 267.895 Q713.203 267.895 711.143 266.784 Q709.106 265.65 707.763 263.335 L707.763 267.224 L703.481 267.224 L703.481 231.205 L707.763 231.205 L707.763 245.233 Z" fill="#000000" fill-rule="nonzero" fill-opacity="1" /><path clip-path="url(#clip320)" d="M745.518 254.191 Q740.356 254.191 738.365 255.372 Q736.374 256.552 736.374 259.4 Q736.374 261.668 737.856 263.011 Q739.36 264.33 741.93 264.33 Q745.471 264.33 747.601 261.83 Q749.754 259.307 749.754 255.14 L749.754 254.191 L745.518 254.191 M754.013 252.432 L754.013 267.224 L749.754 267.224 L749.754 263.289 Q748.295 265.65 746.12 266.784 Q743.944 267.895 740.795 267.895 Q736.814 267.895 734.453 265.673 Q732.115 263.427 732.115 259.677 Q732.115 255.302 735.032 253.08 Q737.971 250.858 743.782 250.858 L749.754 250.858 L749.754 250.441 Q749.754 247.502 747.809 245.904 Q745.888 244.284 742.393 244.284 Q740.17 244.284 738.064 244.816 Q735.958 245.349 734.013 246.414 L734.013 242.478 Q736.351 241.576 738.55 241.136 Q740.749 240.673 742.832 240.673 Q748.457 240.673 751.235 243.59 Q754.013 246.506 754.013 252.432 Z" fill="#000000" fill-rule="nonzero" fill-opacity="1" /><path clip-path="url(#clip320)" d="M784.337 251.576 L784.337 267.224 L780.078 267.224 L780.078 251.715 Q780.078 248.034 778.642 246.205 Q777.207 244.377 774.337 244.377 Q770.888 244.377 768.897 246.576 Q766.906 248.775 766.906 252.571 L766.906 267.224 L762.624 267.224 L762.624 241.298 L766.906 241.298 L766.906 245.326 Q768.434 242.988 770.494 241.83 Q772.578 240.673 775.286 240.673 Q779.754 240.673 782.045 243.451 Q784.337 246.205 784.337 251.576 Z" fill="#000000" fill-rule="nonzero" fill-opacity="1" /><path clip-path="url(#clip320)" d="M818.133 231.252 Q815.031 236.576 813.527 241.784 Q812.022 246.992 812.022 252.34 Q812.022 257.687 813.527 262.941 Q815.054 268.173 818.133 273.474 L814.429 273.474 Q810.957 268.034 809.221 262.779 Q807.508 257.525 807.508 252.34 Q807.508 247.178 809.221 241.946 Q810.934 236.715 814.429 231.252 L818.133 231.252 Z" fill="#000000" fill-rule="nonzero" fill-opacity="1" /><path clip-path="url(#clip320)" d="M841.165 248.59 Q844.522 249.307 846.397 251.576 Q848.295 253.844 848.295 257.177 Q848.295 262.293 844.776 265.094 Q841.258 267.895 834.776 267.895 Q832.601 267.895 830.286 267.455 Q827.994 267.039 825.54 266.182 L825.54 261.668 Q827.485 262.802 829.8 263.381 Q832.114 263.96 834.638 263.96 Q839.036 263.96 841.327 262.224 Q843.642 260.488 843.642 257.177 Q843.642 254.122 841.489 252.409 Q839.36 250.673 835.54 250.673 L831.513 250.673 L831.513 246.83 L835.726 246.83 Q839.175 246.83 841.003 245.465 Q842.832 244.076 842.832 241.483 Q842.832 238.821 840.934 237.409 Q839.059 235.974 835.54 235.974 Q833.619 235.974 831.42 236.391 Q829.221 236.807 826.582 237.687 L826.582 233.52 Q829.244 232.779 831.559 232.409 Q833.897 232.039 835.957 232.039 Q841.281 232.039 844.383 234.469 Q847.485 236.877 847.485 240.997 Q847.485 243.867 845.841 245.858 Q844.198 247.826 841.165 248.59 Z" fill="#000000" fill-rule="nonzero" fill-opacity="1" /><path clip-path="url(#clip320)" d="M856.744 232.664 L863.711 232.664 L872.531 256.182 L881.397 232.664 L888.364 232.664 L888.364 267.224 L883.804 267.224 L883.804 236.877 L874.892 260.58 L870.193 260.58 L861.281 236.877 L861.281 267.224 L856.744 267.224 L856.744 232.664 Z" fill="#000000" fill-rule="nonzero" fill-opacity="1" /><path clip-path="url(#clip320)" d="M896.79 231.252 L900.494 231.252 Q903.966 236.715 905.679 241.946 Q907.415 247.178 907.415 252.34 Q907.415 257.525 905.679 262.779 Q903.966 268.034 900.494 273.474 L896.79 273.474 Q899.869 268.173 901.373 262.941 Q902.901 257.687 902.901 252.34 Q902.901 246.992 901.373 241.784 Q899.869 236.576 896.79 231.252 Z" fill="#000000" fill-rule="nonzero" fill-opacity="1" /><polyline clip-path="url(#clip320)" style="stroke:#008000; stroke-linecap:round; stroke-linejoin:round; stroke-width:8; stroke-opacity:1; fill:none" points="368.462,301.784 534.808,301.784 "/>
<path clip-path="url(#clip320)" d="M578.921 302.86 Q580.426 303.369 581.838 305.036 Q583.273 306.703 584.708 309.619 L589.454 319.064 L584.431 319.064 L580.009 310.198 Q578.296 306.726 576.676 305.592 Q575.079 304.457 572.301 304.457 L567.208 304.457 L567.208 319.064 L562.533 319.064 L562.533 284.504 L573.088 284.504 Q579.014 284.504 581.931 286.981 Q584.847 289.457 584.847 294.457 Q584.847 297.721 583.319 299.874 Q581.815 302.027 578.921 302.86 M567.208 288.346 L567.208 300.615 L573.088 300.615 Q576.468 300.615 578.181 299.064 Q579.917 297.49 579.917 294.457 Q579.917 291.425 578.181 289.897 Q576.468 288.346 573.088 288.346 L567.208 288.346 Z" fill="#000000" fill-rule="nonzero" fill-opacity="1" /><path clip-path="url(#clip320)" d="M592.718 308.832 L592.718 293.138 L596.977 293.138 L596.977 308.67 Q596.977 312.351 598.412 314.203 Q599.847 316.031 602.718 316.031 Q606.167 316.031 608.157 313.832 Q610.171 311.633 610.171 307.837 L610.171 293.138 L614.43 293.138 L614.43 319.064 L610.171 319.064 L610.171 315.082 Q608.62 317.443 606.56 318.601 Q604.523 319.735 601.815 319.735 Q597.347 319.735 595.032 316.957 Q592.718 314.179 592.718 308.832 M603.435 292.513 L603.435 292.513 Z" fill="#000000" fill-rule="nonzero" fill-opacity="1" /><path clip-path="url(#clip320)" d="M638.227 297.119 Q637.509 296.703 636.653 296.518 Q635.819 296.309 634.801 296.309 Q631.19 296.309 629.245 298.67 Q627.324 301.008 627.324 305.406 L627.324 319.064 L623.041 319.064 L623.041 293.138 L627.324 293.138 L627.324 297.166 Q628.666 294.805 630.819 293.67 Q632.972 292.513 636.051 292.513 Q636.49 292.513 637.023 292.582 Q637.555 292.629 638.203 292.744 L638.227 297.119 Z" fill="#000000" fill-rule="nonzero" fill-opacity="1" /><path clip-path="url(#clip320)" d="M654.476 306.031 Q649.314 306.031 647.324 307.212 Q645.333 308.392 645.333 311.24 Q645.333 313.508 646.814 314.851 Q648.319 316.17 650.889 316.17 Q654.43 316.17 656.56 313.67 Q658.713 311.147 658.713 306.98 L658.713 306.031 L654.476 306.031 M662.972 304.272 L662.972 319.064 L658.713 319.064 L658.713 315.129 Q657.254 317.49 655.078 318.624 Q652.902 319.735 649.754 319.735 Q645.773 319.735 643.412 317.513 Q641.074 315.267 641.074 311.517 Q641.074 307.142 643.99 304.92 Q646.93 302.698 652.74 302.698 L658.713 302.698 L658.713 302.281 Q658.713 299.342 656.768 297.744 Q654.847 296.124 651.352 296.124 Q649.129 296.124 647.023 296.656 Q644.916 297.189 642.972 298.254 L642.972 294.318 Q645.31 293.416 647.509 292.976 Q649.708 292.513 651.791 292.513 Q657.416 292.513 660.194 295.43 Q662.972 298.346 662.972 304.272 Z" fill="#000000" fill-rule="nonzero" fill-opacity="1" /><path clip-path="url(#clip320)" d="M671.745 283.045 L676.004 283.045 L676.004 319.064 L671.745 319.064 L671.745 283.045 Z" fill="#000000" fill-rule="nonzero" fill-opacity="1" /><path clip-path="url(#clip320)" d="M710.217 283.092 Q707.115 288.416 705.61 293.624 Q704.106 298.832 704.106 304.18 Q704.106 309.527 705.61 314.781 Q707.138 320.013 710.217 325.314 L706.513 325.314 Q703.041 319.874 701.305 314.619 Q699.592 309.365 699.592 304.18 Q699.592 299.018 701.305 293.786 Q703.018 288.555 706.513 283.092 L710.217 283.092 Z" fill="#000000" fill-rule="nonzero" fill-opacity="1" /><path clip-path="url(#clip320)" d="M719.893 315.129 L727.532 315.129 L727.532 288.763 L719.222 290.43 L719.222 286.17 L727.485 284.504 L732.161 284.504 L732.161 315.129 L739.8 315.129 L739.8 319.064 L719.893 319.064 L719.893 315.129 Z" fill="#000000" fill-rule="nonzero" fill-opacity="1" /><path clip-path="url(#clip320)" d="M748.828 284.504 L755.795 284.504 L764.615 308.022 L773.48 284.504 L780.448 284.504 L780.448 319.064 L775.888 319.064 L775.888 288.717 L766.976 312.42 L762.277 312.42 L753.365 288.717 L753.365 319.064 L748.828 319.064 L748.828 284.504 Z" fill="#000000" fill-rule="nonzero" fill-opacity="1" /><path clip-path="url(#clip320)" d="M788.874 283.092 L792.578 283.092 Q796.05 288.555 797.763 293.786 Q799.499 299.018 799.499 304.18 Q799.499 309.365 797.763 314.619 Q796.05 319.874 792.578 325.314 L788.874 325.314 Q791.953 320.013 793.457 314.781 Q794.985 309.527 794.985 304.18 Q794.985 298.832 793.457 293.624 Q791.953 288.416 788.874 283.092 Z" fill="#000000" fill-rule="nonzero" fill-opacity="1" /></svg>
