<?xml version="1.0" encoding="utf-8"?>
<svg xmlns="http://www.w3.org/2000/svg" xmlns:xlink="http://www.w3.org/1999/xlink" width="700" height="350" viewBox="0 0 2800 1400">
<defs>
  <clipPath id="clip290">
    <rect x="0" y="0" width="2800" height="1400"/>
  </clipPath>
</defs>
<path clip-path="url(#clip290)" d="M0 1400 L2800 1400 L2800 0 L0 0  Z" fill="#ffffff" fill-rule="evenodd" fill-opacity="1"/>
<defs>
  <clipPath id="clip291">
    <rect x="332" y="108" width="2421" height="1138"/>
  </clipPath>
</defs>
<path clip-path="url(#clip290)" d="M332.819 1245.7 L2752.76 1245.7 L2752.76 108.352 L332.819 108.352  Z" fill="#ffffff" fill-rule="evenodd" fill-opacity="1"/>
<polyline clip-path="url(#clip291)" style="stroke:#000000; stroke-linecap:round; stroke-linejoin:round; stroke-width:2; stroke-opacity:0.1; fill:none" points="401.308,1245.7 401.308,108.352 "/>
<polyline clip-path="url(#clip291)" style="stroke:#000000; stroke-linecap:round; stroke-linejoin:round; stroke-width:2; stroke-opacity:0.1; fill:none" points="1026.78,1245.7 1026.78,108.352 "/>
<polyline clip-path="url(#clip291)" style="stroke:#000000; stroke-linecap:round; stroke-linejoin:round; stroke-width:2; stroke-opacity:0.1; fill:none" points="1652.24,1245.7 1652.24,108.352 "/>
<polyline clip-path="url(#clip291)" style="stroke:#000000; stroke-linecap:round; stroke-linejoin:round; stroke-width:2; stroke-opacity:0.1; fill:none" points="2277.71,1245.7 2277.71,108.352 "/>
<polyline clip-path="url(#clip291)" style="stroke:#000000; stroke-linecap:round; stroke-linejoin:round; stroke-width:2; stroke-opacity:0.1; fill:none" points="332.819,1213.52 2752.76,1213.52 "/>
<polyline clip-path="url(#clip291)" style="stroke:#000000; stroke-linecap:round; stroke-linejoin:round; stroke-width:2; stroke-opacity:0.1; fill:none" points="332.819,945.214 2752.76,945.214 "/>
<polyline clip-path="url(#clip291)" style="stroke:#000000; stroke-linecap:round; stroke-linejoin:round; stroke-width:2; stroke-opacity:0.1; fill:none" points="332.819,676.908 2752.76,676.908 "/>
<polyline clip-path="url(#clip291)" style="stroke:#000000; stroke-linecap:round; stroke-linejoin:round; stroke-width:2; stroke-opacity:0.1; fill:none" points="332.819,408.602 2752.76,408.602 "/>
<polyline clip-path="url(#clip291)" style="stroke:#000000; stroke-linecap:round; stroke-linejoin:round; stroke-width:2; stroke-opacity:0.1; fill:none" points="332.819,140.296 2752.76,140.296 "/>
<polyline clip-path="url(#clip290)" style="stroke:#000000; stroke-linecap:round; stroke-linejoin:round; stroke-width:4; stroke-opacity:1; fill:none" points="332.819,1245.7 2752.76,1245.7 "/>
<polyline clip-path="url(#clip290)" style="stroke:#000000; stroke-linecap:round; stroke-linejoin:round; stroke-width:4; stroke-opacity:1; fill:none" points="401.308,1245.7 401.308,1226.8 "/>
<polyline clip-path="url(#clip290)" style="stroke:#000000; stroke-linecap:round; stroke-linejoin:round; stroke-width:4; stroke-opacity:1; fill:none" points="1026.78,1245.7 1026.78,1226.8 "/>
<polyline clip-path="url(#clip290)" style="stroke:#000000; stroke-linecap:round; stroke-linejoin:round; stroke-width:4; stroke-opacity:1; fill:none" points="1652.24,1245.7 1652.24,1226.8 "/>
<polyline clip-path="url(#clip290)" style="stroke:#000000; stroke-linecap:round; stroke-linejoin:round; stroke-width:4; stroke-opacity:1; fill:none" points="2277.71,1245.7 2277.71,1226.8 "/>
<path clip-path="url(#clip290)" d="M401.308 1279.82 Q397.697 1279.82 395.868 1283.38 Q394.062 1286.92 394.062 1294.05 Q394.062 1301.16 395.868 1304.73 Q397.697 1308.27 401.308 1308.27 Q404.942 1308.27 406.748 1304.73 Q408.576 1301.16 408.576 1294.05 Q408.576 1286.92 406.748 1283.38 Q404.942 1279.82 401.308 1279.82 M401.308 1276.11 Q407.118 1276.11 410.173 1280.72 Q413.252 1285.3 413.252 1294.05 Q413.252 1302.78 410.173 1307.39 Q407.118 1311.97 401.308 1311.97 Q395.498 1311.97 392.419 1307.39 Q389.363 1302.78 389.363 1294.05 Q389.363 1285.3 392.419 1280.72 Q395.498 1276.11 401.308 1276.11 Z" fill="#000000" fill-rule="nonzero" fill-opacity="1" /><path clip-path="url(#clip290)" d="M986.383 1307.36 L994.022 1307.36 L994.022 1281 L985.711 1282.67 L985.711 1278.41 L993.975 1276.74 L998.651 1276.74 L998.651 1307.36 L1006.29 1307.36 L1006.29 1311.3 L986.383 1311.3 L986.383 1307.36 Z" fill="#000000" fill-rule="nonzero" fill-opacity="1" /><path clip-path="url(#clip290)" d="M1025.73 1279.82 Q1022.12 1279.82 1020.29 1283.38 Q1018.49 1286.92 1018.49 1294.05 Q1018.49 1301.16 1020.29 1304.73 Q1022.12 1308.27 1025.73 1308.27 Q1029.37 1308.27 1031.17 1304.73 Q1033 1301.16 1033 1294.05 Q1033 1286.92 1031.17 1283.38 Q1029.37 1279.82 1025.73 1279.82 M1025.73 1276.11 Q1031.54 1276.11 1034.6 1280.72 Q1037.68 1285.3 1037.68 1294.05 Q1037.68 1302.78 1034.6 1307.39 Q1031.54 1311.97 1025.73 1311.97 Q1019.92 1311.97 1016.85 1307.39 Q1013.79 1302.78 1013.79 1294.05 Q1013.79 1285.3 1016.85 1280.72 Q1019.92 1276.11 1025.73 1276.11 Z" fill="#000000" fill-rule="nonzero" fill-opacity="1" /><path clip-path="url(#clip290)" d="M1055.9 1279.82 Q1052.29 1279.82 1050.46 1283.38 Q1048.65 1286.92 1048.65 1294.05 Q1048.65 1301.16 1050.46 1304.73 Q1052.29 1308.27 1055.9 1308.27 Q1059.53 1308.27 1061.34 1304.73 Q1063.16 1301.16 1063.16 1294.05 Q1063.16 1286.92 1061.34 1283.38 Q1059.53 1279.82 1055.9 1279.82 M1055.9 1276.11 Q1061.71 1276.11 1064.76 1280.72 Q1067.84 1285.3 1067.84 1294.05 Q1067.84 1302.78 1064.76 1307.39 Q1061.71 1311.97 1055.9 1311.97 Q1050.09 1311.97 1047.01 1307.39 Q1043.95 1302.78 1043.95 1294.05 Q1043.95 1285.3 1047.01 1280.72 Q1050.09 1276.11 1055.9 1276.11 Z" fill="#000000" fill-rule="nonzero" fill-opacity="1" /><path clip-path="url(#clip290)" d="M1615.94 1307.36 L1632.26 1307.36 L1632.26 1311.3 L1610.31 1311.3 L1610.31 1307.36 Q1612.97 1304.61 1617.56 1299.98 Q1622.16 1295.33 1623.34 1293.99 Q1625.59 1291.46 1626.47 1289.73 Q1627.37 1287.97 1627.37 1286.28 Q1627.37 1283.52 1625.43 1281.79 Q1623.51 1280.05 1620.4 1280.05 Q1618.21 1280.05 1615.75 1280.81 Q1613.32 1281.58 1610.54 1283.13 L1610.54 1278.41 Q1613.37 1277.27 1615.82 1276.69 Q1618.27 1276.11 1620.31 1276.11 Q1625.68 1276.11 1628.88 1278.8 Q1632.07 1281.49 1632.07 1285.98 Q1632.07 1288.11 1631.26 1290.03 Q1630.47 1291.92 1628.37 1294.52 Q1627.79 1295.19 1624.69 1298.41 Q1621.58 1301.6 1615.94 1307.36 Z" fill="#000000" fill-rule="nonzero" fill-opacity="1" /><path clip-path="url(#clip290)" d="M1652.07 1279.82 Q1648.46 1279.82 1646.63 1283.38 Q1644.83 1286.92 1644.83 1294.05 Q1644.83 1301.16 1646.63 1304.73 Q1648.46 1308.27 1652.07 1308.27 Q1655.71 1308.27 1657.51 1304.73 Q1659.34 1301.16 1659.34 1294.05 Q1659.34 1286.92 1657.51 1283.38 Q1655.71 1279.82 1652.07 1279.82 M1652.07 1276.11 Q1657.88 1276.11 1660.94 1280.72 Q1664.02 1285.3 1664.02 1294.05 Q1664.02 1302.78 1660.94 1307.39 Q1657.88 1311.97 1652.07 1311.97 Q1646.26 1311.97 1643.18 1307.39 Q1640.13 1302.78 1640.13 1294.05 Q1640.13 1285.3 1643.18 1280.72 Q1646.26 1276.11 1652.07 1276.11 Z" fill="#000000" fill-rule="nonzero" fill-opacity="1" /><path clip-path="url(#clip290)" d="M1682.23 1279.82 Q1678.62 1279.82 1676.79 1283.38 Q1674.99 1286.92 1674.99 1294.05 Q1674.99 1301.16 1676.79 1304.73 Q1678.62 1308.27 1682.23 1308.27 Q1685.87 1308.27 1687.67 1304.73 Q1689.5 1301.16 1689.5 1294.05 Q1689.5 1286.92 1687.67 1283.38 Q1685.87 1279.82 1682.23 1279.82 M1682.23 1276.11 Q1688.04 1276.11 1691.1 1280.72 Q1694.18 1285.3 1694.18 1294.05 Q1694.18 1302.78 1691.1 1307.39 Q1688.04 1311.97 1682.23 1311.97 Q1676.42 1311.97 1673.34 1307.39 Q1670.29 1302.78 1670.29 1294.05 Q1670.29 1285.3 1673.34 1280.72 Q1676.42 1276.11 1682.23 1276.11 Z" fill="#000000" fill-rule="nonzero" fill-opacity="1" /><path clip-path="url(#clip290)" d="M2251.47 1292.67 Q2254.83 1293.38 2256.71 1295.65 Q2258.6 1297.92 2258.6 1301.25 Q2258.6 1306.37 2255.09 1309.17 Q2251.57 1311.97 2245.09 1311.97 Q2242.91 1311.97 2240.59 1311.53 Q2238.3 1311.11 2235.85 1310.26 L2235.85 1305.74 Q2237.79 1306.88 2240.11 1307.46 Q2242.42 1308.04 2244.95 1308.04 Q2249.34 1308.04 2251.64 1306.3 Q2253.95 1304.56 2253.95 1301.25 Q2253.95 1298.2 2251.8 1296.49 Q2249.67 1294.75 2245.85 1294.75 L2241.82 1294.75 L2241.82 1290.91 L2246.03 1290.91 Q2249.48 1290.91 2251.31 1289.54 Q2253.14 1288.15 2253.14 1285.56 Q2253.14 1282.9 2251.24 1281.49 Q2249.37 1280.05 2245.85 1280.05 Q2243.93 1280.05 2241.73 1280.47 Q2239.53 1280.88 2236.89 1281.76 L2236.89 1277.6 Q2239.55 1276.86 2241.87 1276.49 Q2244.21 1276.11 2246.27 1276.11 Q2251.59 1276.11 2254.69 1278.55 Q2257.79 1280.95 2257.79 1285.07 Q2257.79 1287.94 2256.15 1289.93 Q2254.51 1291.9 2251.47 1292.67 Z" fill="#000000" fill-rule="nonzero" fill-opacity="1" /><path clip-path="url(#clip290)" d="M2277.47 1279.82 Q2273.86 1279.82 2272.03 1283.38 Q2270.22 1286.92 2270.22 1294.05 Q2270.22 1301.16 2272.03 1304.73 Q2273.86 1308.27 2277.47 1308.27 Q2281.1 1308.27 2282.91 1304.73 Q2284.74 1301.16 2284.74 1294.05 Q2284.74 1286.92 2282.91 1283.38 Q2281.1 1279.82 2277.47 1279.82 M2277.47 1276.11 Q2283.28 1276.11 2286.34 1280.72 Q2289.41 1285.3 2289.41 1294.05 Q2289.41 1302.78 2286.34 1307.39 Q2283.28 1311.97 2277.47 1311.97 Q2271.66 1311.97 2268.58 1307.39 Q2265.53 1302.78 2265.53 1294.05 Q2265.53 1285.3 2268.58 1280.72 Q2271.66 1276.11 2277.47 1276.11 Z" fill="#000000" fill-rule="nonzero" fill-opacity="1" /><path clip-path="url(#clip290)" d="M2307.63 1279.82 Q2304.02 1279.82 2302.19 1283.38 Q2300.39 1286.92 2300.39 1294.05 Q2300.39 1301.16 2302.19 1304.73 Q2304.02 1308.27 2307.63 1308.27 Q2311.27 1308.27 2313.07 1304.73 Q2314.9 1301.16 2314.9 1294.05 Q2314.9 1286.92 2313.07 1283.38 Q2311.27 1279.82 2307.63 1279.82 M2307.63 1276.11 Q2313.44 1276.11 2316.5 1280.72 Q2319.58 1285.3 2319.58 1294.05 Q2319.58 1302.78 2316.5 1307.39 Q2313.44 1311.97 2307.63 1311.97 Q2301.82 1311.97 2298.74 1307.39 Q2295.69 1302.78 2295.69 1294.05 Q2295.69 1285.3 2298.74 1280.72 Q2301.82 1276.11 2307.63 1276.11 Z" fill="#000000" fill-rule="nonzero" fill-opacity="1" /><path clip-path="url(#clip290)" d="M1489.03 1354.33 L1489.03 1391.28 L1496.8 1391.28 Q1506.63 1391.28 1511.18 1386.82 Q1515.77 1382.37 1515.77 1372.76 Q1515.77 1363.21 1511.18 1358.78 Q1506.63 1354.33 1496.8 1354.33 L1489.03 1354.33 M1482.6 1349.04 L1495.81 1349.04 Q1509.62 1349.04 1516.08 1354.8 Q1522.54 1360.53 1522.54 1372.76 Q1522.54 1385.04 1516.05 1390.8 Q1509.56 1396.56 1495.81 1396.56 L1482.6 1396.56 L1482.6 1349.04 Z" fill="#000000" fill-rule="nonzero" fill-opacity="1" /><path clip-path="url(#clip290)" d="M1548.74 1378.64 Q1541.64 1378.64 1538.9 1380.27 Q1536.17 1381.89 1536.17 1385.81 Q1536.17 1388.92 1538.2 1390.77 Q1540.27 1392.59 1543.81 1392.59 Q1548.68 1392.59 1551.6 1389.15 Q1554.56 1385.68 1554.56 1379.95 L1554.56 1378.64 L1548.74 1378.64 M1560.42 1376.23 L1560.42 1396.56 L1554.56 1396.56 L1554.56 1391.15 Q1552.56 1394.4 1549.57 1395.96 Q1546.58 1397.49 1542.25 1397.49 Q1536.77 1397.49 1533.53 1394.43 Q1530.31 1391.34 1530.31 1386.19 Q1530.31 1380.17 1534.32 1377.12 Q1538.36 1374.06 1546.35 1374.06 L1554.56 1374.06 L1554.56 1373.49 Q1554.56 1369.45 1551.89 1367.25 Q1549.25 1365.02 1544.44 1365.02 Q1541.39 1365.02 1538.49 1365.75 Q1535.59 1366.49 1532.92 1367.95 L1532.92 1362.54 Q1536.14 1361.3 1539.16 1360.69 Q1542.18 1360.06 1545.05 1360.06 Q1552.78 1360.06 1556.6 1364.07 Q1560.42 1368.08 1560.42 1376.23 Z" fill="#000000" fill-rule="nonzero" fill-opacity="1" /><path clip-path="url(#clip290)" d="M1587.32 1399.87 Q1584.83 1406.24 1582.48 1408.18 Q1580.12 1410.12 1576.18 1410.12 L1571.5 1410.12 L1571.5 1405.22 L1574.93 1405.22 Q1577.35 1405.22 1578.69 1404.08 Q1580.03 1402.93 1581.65 1398.66 L1582.7 1395.99 L1568.28 1360.92 L1574.49 1360.92 L1585.63 1388.8 L1596.77 1360.92 L1602.98 1360.92 L1587.32 1399.87 Z" fill="#000000" fill-rule="nonzero" fill-opacity="1" /><polyline clip-path="url(#clip290)" style="stroke:#000000; stroke-linecap:round; stroke-linejoin:round; stroke-width:4; stroke-opacity:1; fill:none" points="332.819,1245.7 332.819,108.352 "/>
<polyline clip-path="url(#clip290)" style="stroke:#000000; stroke-linecap:round; stroke-linejoin:round; stroke-width:4; stroke-opacity:1; fill:none" points="332.819,1213.52 351.717,1213.52 "/>
<polyline clip-path="url(#clip290)" style="stroke:#000000; stroke-linecap:round; stroke-linejoin:round; stroke-width:4; stroke-opacity:1; fill:none" points="332.819,945.214 351.717,945.214 "/>
<polyline clip-path="url(#clip290)" style="stroke:#000000; stroke-linecap:round; stroke-linejoin:round; stroke-width:4; stroke-opacity:1; fill:none" points="332.819,676.908 351.717,676.908 "/>
<polyline clip-path="url(#clip290)" style="stroke:#000000; stroke-linecap:round; stroke-linejoin:round; stroke-width:4; stroke-opacity:1; fill:none" points="332.819,408.602 351.717,408.602 "/>
<polyline clip-path="url(#clip290)" style="stroke:#000000; stroke-linecap:round; stroke-linejoin:round; stroke-width:4; stroke-opacity:1; fill:none" points="332.819,140.296 351.717,140.296 "/>
<path clip-path="url(#clip290)" d="M278.875 1199.32 Q275.263 1199.32 273.435 1202.88 Q271.629 1206.42 271.629 1213.55 Q271.629 1220.66 273.435 1224.23 Q275.263 1227.77 278.875 1227.77 Q282.509 1227.77 284.314 1224.23 Q286.143 1220.66 286.143 1213.55 Q286.143 1206.42 284.314 1202.88 Q282.509 1199.32 278.875 1199.32 M278.875 1195.61 Q284.685 1195.61 287.74 1200.22 Q290.819 1204.8 290.819 1213.55 Q290.819 1222.28 287.74 1226.89 Q284.685 1231.47 278.875 1231.47 Q273.064 1231.47 269.986 1226.89 Q266.93 1222.28 266.93 1213.55 Q266.93 1204.8 269.986 1200.22 Q273.064 1195.61 278.875 1195.61 Z" fill="#000000" fill-rule="nonzero" fill-opacity="1" /><path clip-path="url(#clip290)" d="M107.163 965.006 L123.482 965.006 L123.482 968.942 L101.538 968.942 L101.538 965.006 Q104.2 962.252 108.783 957.622 Q113.389 952.969 114.57 951.627 Q116.815 949.104 117.695 947.368 Q118.598 945.608 118.598 943.919 Q118.598 941.164 116.653 939.428 Q114.732 937.692 111.63 937.692 Q109.431 937.692 106.977 938.456 Q104.547 939.219 101.769 940.77 L101.769 936.048 Q104.593 934.914 107.047 934.335 Q109.5 933.757 111.538 933.757 Q116.908 933.757 120.102 936.442 Q123.297 939.127 123.297 943.618 Q123.297 945.747 122.487 947.669 Q121.699 949.567 119.593 952.159 Q119.014 952.831 115.912 956.048 Q112.811 959.243 107.163 965.006 Z" fill="#000000" fill-rule="nonzero" fill-opacity="1" /><path clip-path="url(#clip290)" d="M133.297 963.062 L138.181 963.062 L138.181 968.942 L133.297 968.942 L133.297 963.062 Z" fill="#000000" fill-rule="nonzero" fill-opacity="1" /><path clip-path="url(#clip290)" d="M158.366 937.46 Q154.755 937.46 152.926 941.025 Q151.121 944.567 151.121 951.696 Q151.121 958.803 152.926 962.368 Q154.755 965.909 158.366 965.909 Q162 965.909 163.806 962.368 Q165.634 958.803 165.634 951.696 Q165.634 944.567 163.806 941.025 Q162 937.46 158.366 937.46 M158.366 933.757 Q164.176 933.757 167.232 938.363 Q170.31 942.946 170.31 951.696 Q170.31 960.423 167.232 965.03 Q164.176 969.613 158.366 969.613 Q152.556 969.613 149.477 965.03 Q146.422 960.423 146.422 951.696 Q146.422 942.946 149.477 938.363 Q152.556 933.757 158.366 933.757 Z" fill="#000000" fill-rule="nonzero" fill-opacity="1" /><path clip-path="url(#clip290)" d="M206.699 943.479 L196.12 954.104 L206.699 964.682 L203.944 967.483 L193.319 956.858 L182.695 967.483 L179.963 964.682 L190.519 954.104 L179.963 943.479 L182.695 940.678 L193.319 951.303 L203.944 940.678 L206.699 943.479 Z" fill="#000000" fill-rule="nonzero" fill-opacity="1" /><path clip-path="url(#clip290)" d="M219.06 965.006 L226.699 965.006 L226.699 938.641 L218.389 940.307 L218.389 936.048 L226.653 934.382 L231.329 934.382 L231.329 965.006 L238.967 965.006 L238.967 968.942 L219.06 968.942 L219.06 965.006 Z" fill="#000000" fill-rule="nonzero" fill-opacity="1" /><path clip-path="url(#clip290)" d="M258.412 937.46 Q254.801 937.46 252.972 941.025 Q251.166 944.567 251.166 951.696 Q251.166 958.803 252.972 962.368 Q254.801 965.909 258.412 965.909 Q262.046 965.909 263.852 962.368 Q265.68 958.803 265.68 951.696 Q265.68 944.567 263.852 941.025 Q262.046 937.46 258.412 937.46 M258.412 933.757 Q264.222 933.757 267.277 938.363 Q270.356 942.946 270.356 951.696 Q270.356 960.423 267.277 965.03 Q264.222 969.613 258.412 969.613 Q252.602 969.613 249.523 965.03 Q246.467 960.423 246.467 951.696 Q246.467 942.946 249.523 938.363 Q252.602 933.757 258.412 933.757 Z" fill="#000000" fill-rule="nonzero" fill-opacity="1" /><path clip-path="url(#clip290)" d="M283.033 916.761 L273.441 931.751 L283.033 931.751 L283.033 916.761 M282.036 913.451 L286.813 913.451 L286.813 931.751 L290.819 931.751 L290.819 934.911 L286.813 934.911 L286.813 941.531 L283.033 941.531 L283.033 934.911 L270.356 934.911 L270.356 931.243 L282.036 913.451 Z" fill="#000000" fill-rule="nonzero" fill-opacity="1" /><path clip-path="url(#clip290)" d="M115.982 670.15 L104.176 688.599 L115.982 688.599 L115.982 670.15 M114.755 666.076 L120.635 666.076 L120.635 688.599 L125.565 688.599 L125.565 692.488 L120.635 692.488 L120.635 700.636 L115.982 700.636 L115.982 692.488 L100.38 692.488 L100.38 687.974 L114.755 666.076 Z" fill="#000000" fill-rule="nonzero" fill-opacity="1" /><path clip-path="url(#clip290)" d="M133.297 694.756 L138.181 694.756 L138.181 700.636 L133.297 700.636 L133.297 694.756 Z" fill="#000000" fill-rule="nonzero" fill-opacity="1" /><path clip-path="url(#clip290)" d="M158.366 669.154 Q154.755 669.154 152.926 672.719 Q151.121 676.261 151.121 683.39 Q151.121 690.497 152.926 694.062 Q154.755 697.603 158.366 697.603 Q162 697.603 163.806 694.062 Q165.634 690.497 165.634 683.39 Q165.634 676.261 163.806 672.719 Q162 669.154 158.366 669.154 M158.366 665.451 Q164.176 665.451 167.232 670.057 Q170.31 674.64 170.31 683.39 Q170.31 692.117 167.232 696.724 Q164.176 701.307 158.366 701.307 Q152.556 701.307 149.477 696.724 Q146.422 692.117 146.422 683.39 Q146.422 674.64 149.477 670.057 Q152.556 665.451 158.366 665.451 Z" fill="#000000" fill-rule="nonzero" fill-opacity="1" /><path clip-path="url(#clip290)" d="M206.699 675.173 L196.12 685.798 L206.699 696.376 L203.944 699.177 L193.319 688.552 L182.695 699.177 L179.963 696.376 L190.519 685.798 L179.963 675.173 L182.695 672.372 L193.319 682.997 L203.944 672.372 L206.699 675.173 Z" fill="#000000" fill-rule="nonzero" fill-opacity="1" /><path clip-path="url(#clip290)" d="M219.06 696.7 L226.699 696.7 L226.699 670.335 L218.389 672.002 L218.389 667.742 L226.653 666.076 L231.329 666.076 L231.329 696.7 L238.967 696.7 L238.967 700.636 L219.06 700.636 L219.06 696.7 Z" fill="#000000" fill-rule="nonzero" fill-opacity="1" /><path clip-path="url(#clip290)" d="M258.412 669.154 Q254.801 669.154 252.972 672.719 Q251.166 676.261 251.166 683.39 Q251.166 690.497 252.972 694.062 Q254.801 697.603 258.412 697.603 Q262.046 697.603 263.852 694.062 Q265.68 690.497 265.68 683.39 Q265.68 676.261 263.852 672.719 Q262.046 669.154 258.412 669.154 M258.412 665.451 Q264.222 665.451 267.277 670.057 Q270.356 674.64 270.356 683.39 Q270.356 692.117 267.277 696.724 Q264.222 701.307 258.412 701.307 Q252.602 701.307 249.523 696.724 Q246.467 692.117 246.467 683.39 Q246.467 674.64 249.523 670.057 Q252.602 665.451 258.412 665.451 Z" fill="#000000" fill-rule="nonzero" fill-opacity="1" /><path clip-path="url(#clip290)" d="M283.033 648.455 L273.441 663.445 L283.033 663.445 L283.033 648.455 M282.036 645.145 L286.813 645.145 L286.813 663.445 L290.819 663.445 L290.819 666.605 L286.813 666.605 L286.813 673.225 L283.033 673.225 L283.033 666.605 L270.356 666.605 L270.356 662.937 L282.036 645.145 Z" fill="#000000" fill-rule="nonzero" fill-opacity="1" /><path clip-path="url(#clip290)" d="M113.713 413.186 Q110.565 413.186 108.713 415.339 Q106.885 417.492 106.885 421.242 Q106.885 424.969 108.713 427.145 Q110.565 429.297 113.713 429.297 Q116.862 429.297 118.69 427.145 Q120.542 424.969 120.542 421.242 Q120.542 417.492 118.69 415.339 Q116.862 413.186 113.713 413.186 M122.996 398.534 L122.996 402.793 Q121.237 401.959 119.431 401.52 Q117.649 401.08 115.889 401.08 Q111.26 401.08 108.806 404.205 Q106.375 407.33 106.028 413.649 Q107.394 411.635 109.454 410.571 Q111.514 409.483 113.991 409.483 Q119.2 409.483 122.209 412.654 Q125.241 415.802 125.241 421.242 Q125.241 426.566 122.093 429.783 Q118.945 433.001 113.713 433.001 Q107.718 433.001 104.547 428.418 Q101.376 423.811 101.376 415.084 Q101.376 406.89 105.264 402.029 Q109.153 397.145 115.704 397.145 Q117.463 397.145 119.246 397.492 Q121.051 397.839 122.996 398.534 Z" fill="#000000" fill-rule="nonzero" fill-opacity="1" /><path clip-path="url(#clip290)" d="M133.297 426.45 L138.181 426.45 L138.181 432.33 L133.297 432.33 L133.297 426.45 Z" fill="#000000" fill-rule="nonzero" fill-opacity="1" /><path clip-path="url(#clip290)" d="M158.366 400.848 Q154.755 400.848 152.926 404.413 Q151.121 407.955 151.121 415.084 Q151.121 422.191 152.926 425.756 Q154.755 429.297 158.366 429.297 Q162 429.297 163.806 425.756 Q165.634 422.191 165.634 415.084 Q165.634 407.955 163.806 404.413 Q162 400.848 158.366 400.848 M158.366 397.145 Q164.176 397.145 167.232 401.751 Q170.31 406.334 170.31 415.084 Q170.31 423.811 167.232 428.418 Q164.176 433.001 158.366 433.001 Q152.556 433.001 149.477 428.418 Q146.422 423.811 146.422 415.084 Q146.422 406.334 149.477 401.751 Q152.556 397.145 158.366 397.145 Z" fill="#000000" fill-rule="nonzero" fill-opacity="1" /><path clip-path="url(#clip290)" d="M206.699 406.867 L196.12 417.492 L206.699 428.07 L203.944 430.871 L193.319 420.246 L182.695 430.871 L179.963 428.07 L190.519 417.492 L179.963 406.867 L182.695 404.066 L193.319 414.691 L203.944 404.066 L206.699 406.867 Z" fill="#000000" fill-rule="nonzero" fill-opacity="1" /><path clip-path="url(#clip290)" d="M219.06 428.395 L226.699 428.395 L226.699 402.029 L218.389 403.696 L218.389 399.436 L226.653 397.77 L231.329 397.77 L231.329 428.395 L238.967 428.395 L238.967 432.33 L219.06 432.33 L219.06 428.395 Z" fill="#000000" fill-rule="nonzero" fill-opacity="1" /><path clip-path="url(#clip290)" d="M258.412 400.848 Q254.801 400.848 252.972 404.413 Q251.166 407.955 251.166 415.084 Q251.166 422.191 252.972 425.756 Q254.801 429.297 258.412 429.297 Q262.046 429.297 263.852 425.756 Q265.68 422.191 265.68 415.084 Q265.68 407.955 263.852 404.413 Q262.046 400.848 258.412 400.848 M258.412 397.145 Q264.222 397.145 267.277 401.751 Q270.356 406.334 270.356 415.084 Q270.356 423.811 267.277 428.418 Q264.222 433.001 258.412 433.001 Q252.602 433.001 249.523 428.418 Q246.467 423.811 246.467 415.084 Q246.467 406.334 249.523 401.751 Q252.602 397.145 258.412 397.145 Z" fill="#000000" fill-rule="nonzero" fill-opacity="1" /><path clip-path="url(#clip290)" d="M283.033 380.149 L273.441 395.139 L283.033 395.139 L283.033 380.149 M282.036 376.839 L286.813 376.839 L286.813 395.139 L290.819 395.139 L290.819 398.299 L286.813 398.299 L286.813 404.919 L283.033 404.919 L283.033 398.299 L270.356 398.299 L270.356 394.631 L282.036 376.839 Z" fill="#000000" fill-rule="nonzero" fill-opacity="1" /><path clip-path="url(#clip290)" d="M113.135 147.612 Q109.801 147.612 107.88 149.394 Q105.982 151.177 105.982 154.302 Q105.982 157.427 107.88 159.209 Q109.801 160.991 113.135 160.991 Q116.468 160.991 118.389 159.209 Q120.311 157.403 120.311 154.302 Q120.311 151.177 118.389 149.394 Q116.491 147.612 113.135 147.612 M108.459 145.621 Q105.45 144.88 103.76 142.82 Q102.093 140.76 102.093 137.797 Q102.093 133.654 105.033 131.246 Q107.996 128.839 113.135 128.839 Q118.297 128.839 121.237 131.246 Q124.176 133.654 124.176 137.797 Q124.176 140.76 122.487 142.82 Q120.82 144.88 117.834 145.621 Q121.213 146.408 123.088 148.7 Q124.987 150.991 124.987 154.302 Q124.987 159.325 121.908 162.01 Q118.852 164.695 113.135 164.695 Q107.417 164.695 104.338 162.01 Q101.283 159.325 101.283 154.302 Q101.283 150.991 103.181 148.7 Q105.079 146.408 108.459 145.621 M106.746 138.237 Q106.746 140.922 108.413 142.427 Q110.102 143.931 113.135 143.931 Q116.144 143.931 117.834 142.427 Q119.547 140.922 119.547 138.237 Q119.547 135.552 117.834 134.047 Q116.144 132.542 113.135 132.542 Q110.102 132.542 108.413 134.047 Q106.746 135.552 106.746 138.237 Z" fill="#000000" fill-rule="nonzero" fill-opacity="1" /><path clip-path="url(#clip290)" d="M133.297 158.144 L138.181 158.144 L138.181 164.024 L133.297 164.024 L133.297 158.144 Z" fill="#000000" fill-rule="nonzero" fill-opacity="1" /><path clip-path="url(#clip290)" d="M158.366 132.542 Q154.755 132.542 152.926 136.107 Q151.121 139.649 151.121 146.778 Q151.121 153.885 152.926 157.45 Q154.755 160.991 158.366 160.991 Q162 160.991 163.806 157.45 Q165.634 153.885 165.634 146.778 Q165.634 139.649 163.806 136.107 Q162 132.542 158.366 132.542 M158.366 128.839 Q164.176 128.839 167.232 133.445 Q170.31 138.029 170.31 146.778 Q170.31 155.505 167.232 160.112 Q164.176 164.695 158.366 164.695 Q152.556 164.695 149.477 160.112 Q146.422 155.505 146.422 146.778 Q146.422 138.029 149.477 133.445 Q152.556 128.839 158.366 128.839 Z" fill="#000000" fill-rule="nonzero" fill-opacity="1" /><path clip-path="url(#clip290)" d="M206.699 138.561 L196.12 149.186 L206.699 159.765 L203.944 162.565 L193.319 151.941 L182.695 162.565 L179.963 159.765 L190.519 149.186 L179.963 138.561 L182.695 135.76 L193.319 146.385 L203.944 135.76 L206.699 138.561 Z" fill="#000000" fill-rule="nonzero" fill-opacity="1" /><path clip-path="url(#clip290)" d="M219.06 160.089 L226.699 160.089 L226.699 133.723 L218.389 135.39 L218.389 131.13 L226.653 129.464 L231.329 129.464 L231.329 160.089 L238.967 160.089 L238.967 164.024 L219.06 164.024 L219.06 160.089 Z" fill="#000000" fill-rule="nonzero" fill-opacity="1" /><path clip-path="url(#clip290)" d="M258.412 132.542 Q254.801 132.542 252.972 136.107 Q251.166 139.649 251.166 146.778 Q251.166 153.885 252.972 157.45 Q254.801 160.991 258.412 160.991 Q262.046 160.991 263.852 157.45 Q265.68 153.885 265.68 146.778 Q265.68 139.649 263.852 136.107 Q262.046 132.542 258.412 132.542 M258.412 128.839 Q264.222 128.839 267.277 133.445 Q270.356 138.029 270.356 146.778 Q270.356 155.505 267.277 160.112 Q264.222 164.695 258.412 164.695 Q252.602 164.695 249.523 160.112 Q246.467 155.505 246.467 146.778 Q246.467 138.029 249.523 133.445 Q252.602 128.839 258.412 128.839 Z" fill="#000000" fill-rule="nonzero" fill-opacity="1" /><path clip-path="url(#clip290)" d="M283.033 111.844 L273.441 126.833 L283.033 126.833 L283.033 111.844 M282.036 108.533 L286.813 108.533 L286.813 126.833 L290.819 126.833 L290.819 129.993 L286.813 129.993 L286.813 136.613 L283.033 136.613 L283.033 129.993 L270.356 129.993 L270.356 126.326 L282.036 108.533 Z" fill="#000000" fill-rule="nonzero" fill-opacity="1" /><path clip-path="url(#clip290)" d="M-3.39584 875.556 L-3.39584 869.127 L44.1242 869.127 L44.1242 875.556 L-3.39584 875.556 Z" fill="#000000" fill-rule="nonzero" fill-opacity="1" /><path clip-path="url(#clip290)" d="M22.6081 826.954 L44.1242 826.954 L44.1242 832.811 L22.799 832.811 Q17.7383 832.811 15.2238 834.784 Q12.7094 836.757 12.7094 840.704 Q12.7094 845.447 15.7331 848.184 Q18.7568 850.921 23.9767 850.921 L44.1242 850.921 L44.1242 856.809 L8.4762 856.809 L8.4762 850.921 L14.0144 850.921 Q10.7997 848.82 9.20826 845.988 Q7.61683 843.123 7.61683 839.399 Q7.61683 833.256 11.4363 830.105 Q15.2238 826.954 22.6081 826.954 Z" fill="#000000" fill-rule="nonzero" fill-opacity="1" /><path clip-path="url(#clip290)" d="M-5.40104 797.226 L-0.531275 797.226 L-0.531275 802.828 Q-0.531275 805.979 0.741867 807.221 Q2.01501 808.43 5.32518 808.43 L8.4762 808.43 L8.4762 798.786 L13.0277 798.786 L13.0277 808.43 L44.1242 808.43 L44.1242 814.318 L13.0277 814.318 L13.0277 819.92 L8.4762 819.92 L8.4762 814.318 L5.99357 814.318 Q0.0416391 814.318 -2.66379 811.549 Q-5.40104 808.78 -5.40104 802.765 L-5.40104 797.226 Z" fill="#000000" fill-rule="nonzero" fill-opacity="1" /><path clip-path="url(#clip290)" d="M24.8361 761.833 L27.7006 761.833 L27.7006 788.76 Q33.7481 788.378 36.9309 785.132 Q40.0819 781.853 40.0819 776.029 Q40.0819 772.655 39.2544 769.504 Q38.4269 766.321 36.7718 763.202 L42.3099 763.202 Q43.6467 766.353 44.347 769.663 Q45.0472 772.973 45.0472 776.379 Q45.0472 784.909 40.0819 789.906 Q35.1167 794.871 26.6503 794.871 Q17.8974 794.871 12.7731 790.161 Q7.61683 785.418 7.61683 777.397 Q7.61683 770.204 12.2638 766.034 Q16.8789 761.833 24.8361 761.833 M23.1173 767.69 Q18.3112 767.753 15.4466 770.395 Q12.5821 773.005 12.5821 777.334 Q12.5821 782.235 15.3512 785.195 Q18.1202 788.123 23.1492 788.569 L23.1173 767.69 Z" fill="#000000" fill-rule="nonzero" fill-opacity="1" /><path clip-path="url(#clip290)" d="M9.84483 726.567 L15.3193 726.567 Q13.9507 729.05 13.2823 731.564 Q12.5821 734.047 12.5821 736.593 Q12.5821 742.29 16.2105 745.441 Q19.8072 748.592 26.332 748.592 Q32.8569 748.592 36.4853 745.441 Q40.0819 742.29 40.0819 736.593 Q40.0819 734.047 39.4135 731.564 Q38.7133 729.05 37.3447 726.567 L42.7555 726.567 Q43.9014 729.018 44.4743 731.66 Q45.0472 734.27 45.0472 737.23 Q45.0472 745.282 39.9864 750.025 Q34.9257 754.767 26.332 754.767 Q17.611 754.767 12.6139 749.993 Q7.61683 745.187 7.61683 736.848 Q7.61683 734.142 8.18974 731.564 Q8.73083 728.986 9.84483 726.567 Z" fill="#000000" fill-rule="nonzero" fill-opacity="1" /><path clip-path="url(#clip290)" d="M-1.64527 710.589 L8.4762 710.589 L8.4762 698.526 L13.0277 698.526 L13.0277 710.589 L32.3794 710.589 Q36.7399 710.589 37.9813 709.412 Q39.2226 708.202 39.2226 704.542 L39.2226 698.526 L44.1242 698.526 L44.1242 704.542 Q44.1242 711.321 41.6097 713.899 Q39.0634 716.477 32.3794 716.477 L13.0277 716.477 L13.0277 720.774 L8.4762 720.774 L8.4762 716.477 L-1.64527 716.477 L-1.64527 710.589 Z" fill="#000000" fill-rule="nonzero" fill-opacity="1" /><path clip-path="url(#clip290)" d="M8.4762 690.824 L8.4762 684.967 L44.1242 684.967 L44.1242 690.824 L8.4762 690.824 M-5.40104 690.824 L-5.40104 684.967 L2.01501 684.967 L2.01501 690.824 L-5.40104 690.824 Z" fill="#000000" fill-rule="nonzero" fill-opacity="1" /><path clip-path="url(#clip290)" d="M12.5821 658.9 Q12.5821 663.61 16.2742 666.348 Q19.9345 669.085 26.332 669.085 Q32.7295 669.085 36.4217 666.379 Q40.0819 663.642 40.0819 658.9 Q40.0819 654.221 36.3898 651.484 Q32.6977 648.746 26.332 648.746 Q19.9981 648.746 16.306 651.484 Q12.5821 654.221 12.5821 658.9 M7.61683 658.9 Q7.61683 651.261 12.5821 646.9 Q17.5473 642.54 26.332 642.54 Q35.0849 642.54 40.0819 646.9 Q45.0472 651.261 45.0472 658.9 Q45.0472 666.57 40.0819 670.931 Q35.0849 675.26 26.332 675.26 Q17.5473 675.26 12.5821 670.931 Q7.61683 666.57 7.61683 658.9 Z" fill="#000000" fill-rule="nonzero" fill-opacity="1" /><path clip-path="url(#clip290)" d="M30.0559 633.437 L8.4762 633.437 L8.4762 627.58 L29.8331 627.58 Q34.8939 627.58 37.4402 625.607 Q39.9546 623.634 39.9546 619.687 Q39.9546 614.944 36.9309 612.207 Q33.9072 609.438 28.6873 609.438 L8.4762 609.438 L8.4762 603.582 L44.1242 603.582 L44.1242 609.438 L38.6496 609.438 Q41.8962 611.571 43.4876 614.403 Q45.0472 617.204 45.0472 620.928 Q45.0472 627.071 41.2278 630.254 Q37.4083 633.437 30.0559 633.437 M7.61683 618.7 L7.61683 618.7 Z" fill="#000000" fill-rule="nonzero" fill-opacity="1" /><path clip-path="url(#clip290)" d="M9.52654 568.793 L15.0647 568.793 Q13.7916 571.276 13.155 573.949 Q12.5184 576.623 12.5184 579.487 Q12.5184 583.848 13.8552 586.044 Q15.192 588.208 17.8656 588.208 Q19.9026 588.208 21.0803 586.649 Q22.2261 585.089 23.2765 580.379 L23.7221 578.373 Q25.0589 572.135 27.5097 569.525 Q29.9286 566.883 34.2891 566.883 Q39.2544 566.883 42.1508 570.83 Q45.0472 574.745 45.0472 581.62 Q45.0472 584.485 44.4743 587.604 Q43.9332 590.691 42.8192 594.129 L36.7718 594.129 Q38.4587 590.882 39.318 587.731 Q40.1456 584.58 40.1456 581.493 Q40.1456 577.355 38.7451 575.127 Q37.3129 572.899 34.7347 572.899 Q32.3476 572.899 31.0745 574.522 Q29.8013 576.114 28.6237 581.556 L28.1462 583.593 Q27.0004 589.036 24.6451 591.455 Q22.258 593.874 18.1202 593.874 Q13.0913 593.874 10.3541 590.309 Q7.61683 586.744 7.61683 580.188 Q7.61683 576.941 8.09426 574.077 Q8.57169 571.212 9.52654 568.793 Z" fill="#000000" fill-rule="nonzero" fill-opacity="1" /><path clip-path="url(#clip290)" d="M-5.33738 522.769 Q1.98318 527.034 9.1446 529.103 Q16.306 531.172 23.6584 531.172 Q31.0108 531.172 38.2359 529.103 Q45.4291 527.002 52.7179 522.769 L52.7179 527.862 Q45.2382 532.636 38.0131 535.023 Q30.788 537.378 23.6584 537.378 Q16.5606 537.378 9.3674 535.023 Q2.17415 532.668 -5.33738 527.862 L-5.33738 522.769 Z" fill="#000000" fill-rule="nonzero" fill-opacity="1" /><path clip-path="url(#clip290)" d="M-3.39584 511.152 L-3.39584 504.722 L44.1242 504.722 L44.1242 511.152 L-3.39584 511.152 Z" fill="#000000" fill-rule="nonzero" fill-opacity="1" /><path clip-path="url(#clip290)" d="M-5.33738 493.105 L-5.33738 488.012 Q2.17415 483.238 9.3674 480.883 Q16.5606 478.496 23.6584 478.496 Q30.788 478.496 38.0131 480.883 Q45.2382 483.238 52.7179 488.012 L52.7179 493.105 Q45.4291 488.872 38.2359 486.803 Q31.0108 484.702 23.6584 484.702 Q16.306 484.702 9.1446 486.803 Q1.98318 488.872 -5.33738 493.105 Z" fill="#000000" fill-rule="nonzero" fill-opacity="1" /><path clip-path="url(#clip290)" d="M891.787 12.096 L899.97 12.096 L899.97 72.576 L891.787 72.576 L891.787 12.096 Z" fill="#000000" fill-rule="nonzero" fill-opacity="1" /><path clip-path="url(#clip290)" d="M953.644 45.1919 L953.644 72.576 L946.191 72.576 L946.191 45.4349 Q946.191 38.994 943.679 35.7938 Q941.167 32.5936 936.144 32.5936 Q930.108 32.5936 926.625 36.4419 Q923.141 40.2903 923.141 46.9338 L923.141 72.576 L915.647 72.576 L915.647 27.2059 L923.141 27.2059 L923.141 34.2544 Q925.814 30.163 929.42 28.1376 Q933.066 26.1121 937.805 26.1121 Q945.623 26.1121 949.634 30.9732 Q953.644 35.7938 953.644 45.1919 Z" fill="#000000" fill-rule="nonzero" fill-opacity="1" /><path clip-path="url(#clip290)" d="M991.48 9.54393 L991.48 15.7418 L984.35 15.7418 Q980.34 15.7418 978.76 17.3622 Q977.22 18.9825 977.22 23.1955 L977.22 27.2059 L989.495 27.2059 L989.495 32.9987 L977.22 32.9987 L977.22 72.576 L969.726 72.576 L969.726 32.9987 L962.597 32.9987 L962.597 27.2059 L969.726 27.2059 L969.726 24.0462 Q969.726 16.471 973.251 13.0277 Q976.775 9.54393 984.431 9.54393 L991.48 9.54393 Z" fill="#000000" fill-rule="nonzero" fill-opacity="1" /><path clip-path="url(#clip290)" d="M1036.53 48.0275 L1036.53 51.6733 L1002.26 51.6733 Q1002.74 59.3701 1006.87 63.421 Q1011.05 67.4314 1018.46 67.4314 Q1022.75 67.4314 1026.76 66.3781 Q1030.81 65.3249 1034.78 63.2184 L1034.78 70.267 Q1030.77 71.9684 1026.56 72.8596 Q1022.35 73.7508 1018.01 73.7508 Q1007.16 73.7508 1000.8 67.4314 Q994.477 61.1119 994.477 50.3365 Q994.477 39.1965 1000.47 32.6746 Q1006.51 26.1121 1016.72 26.1121 Q1025.87 26.1121 1031.18 32.0264 Q1036.53 37.9003 1036.53 48.0275 M1029.07 45.84 Q1028.99 39.7232 1025.63 36.0774 Q1022.31 32.4315 1016.8 32.4315 Q1010.56 32.4315 1006.79 35.9558 Q1003.07 39.4801 1002.5 45.8805 L1029.07 45.84 Z" fill="#000000" fill-rule="nonzero" fill-opacity="1" /><path clip-path="url(#clip290)" d="M1081.41 28.9478 L1081.41 35.9153 Q1078.25 34.1734 1075.05 33.3227 Q1071.89 32.4315 1068.65 32.4315 Q1061.4 32.4315 1057.39 37.0496 Q1053.38 41.6271 1053.38 49.9314 Q1053.38 58.2358 1057.39 62.8538 Q1061.4 67.4314 1068.65 67.4314 Q1071.89 67.4314 1075.05 66.5807 Q1078.25 65.6895 1081.41 63.9476 L1081.41 70.8341 Q1078.29 72.2924 1074.93 73.0216 Q1071.61 73.7508 1067.84 73.7508 Q1057.59 73.7508 1051.55 67.3098 Q1045.52 60.8689 1045.52 49.9314 Q1045.52 38.832 1051.6 32.472 Q1057.71 26.1121 1068.33 26.1121 Q1071.77 26.1121 1075.05 26.8413 Q1078.33 27.5299 1081.41 28.9478 Z" fill="#000000" fill-rule="nonzero" fill-opacity="1" /><path clip-path="url(#clip290)" d="M1101.75 14.324 L1101.75 27.2059 L1117.1 27.2059 L1117.1 32.9987 L1101.75 32.9987 L1101.75 57.6282 Q1101.75 63.1779 1103.24 64.7578 Q1104.78 66.3376 1109.44 66.3376 L1117.1 66.3376 L1117.1 72.576 L1109.44 72.576 Q1100.81 72.576 1097.53 69.3758 Q1094.25 66.1351 1094.25 57.6282 L1094.25 32.9987 L1088.78 32.9987 L1088.78 27.2059 L1094.25 27.2059 L1094.25 14.324 L1101.75 14.324 Z" fill="#000000" fill-rule="nonzero" fill-opacity="1" /><path clip-path="url(#clip290)" d="M1126.9 27.2059 L1134.36 27.2059 L1134.36 72.576 L1126.9 72.576 L1126.9 27.2059 M1126.9 9.54393 L1134.36 9.54393 L1134.36 18.9825 L1126.9 18.9825 L1126.9 9.54393 Z" fill="#000000" fill-rule="nonzero" fill-opacity="1" /><path clip-path="url(#clip290)" d="M1167.53 32.4315 Q1161.54 32.4315 1158.05 37.1306 Q1154.57 41.7891 1154.57 49.9314 Q1154.57 58.0738 1158.01 62.7728 Q1161.5 67.4314 1167.53 67.4314 Q1173.49 67.4314 1176.97 62.7323 Q1180.45 58.0333 1180.45 49.9314 Q1180.45 41.8701 1176.97 37.1711 Q1173.49 32.4315 1167.53 32.4315 M1167.53 26.1121 Q1177.25 26.1121 1182.8 32.4315 Q1188.35 38.7509 1188.35 49.9314 Q1188.35 61.0714 1182.8 67.4314 Q1177.25 73.7508 1167.53 73.7508 Q1157.77 73.7508 1152.22 67.4314 Q1146.71 61.0714 1146.71 49.9314 Q1146.71 38.7509 1152.22 32.4315 Q1157.77 26.1121 1167.53 26.1121 Z" fill="#000000" fill-rule="nonzero" fill-opacity="1" /><path clip-path="url(#clip290)" d="M1199.94 54.671 L1199.94 27.2059 L1207.39 27.2059 L1207.39 54.3874 Q1207.39 60.8284 1209.9 64.0691 Q1212.42 67.2693 1217.44 67.2693 Q1223.47 67.2693 1226.96 63.421 Q1230.48 59.5726 1230.48 52.9291 L1230.48 27.2059 L1237.94 27.2059 L1237.94 72.576 L1230.48 72.576 L1230.48 65.6084 Q1227.77 69.7404 1224.16 71.7658 Q1220.6 73.7508 1215.86 73.7508 Q1208.04 73.7508 1203.99 68.8897 Q1199.94 64.0286 1199.94 54.671 M1218.69 26.1121 L1218.69 26.1121 Z" fill="#000000" fill-rule="nonzero" fill-opacity="1" /><path clip-path="url(#clip290)" d="M1282.21 28.5427 L1282.21 35.5912 Q1279.05 33.9709 1275.65 33.1607 Q1272.25 32.3505 1268.6 32.3505 Q1263.05 32.3505 1260.26 34.0519 Q1257.5 35.7533 1257.5 39.156 Q1257.5 41.7486 1259.49 43.2475 Q1261.47 44.7058 1267.47 46.0426 L1270.02 46.6097 Q1277.96 48.3111 1281.28 51.4303 Q1284.64 54.509 1284.64 60.0587 Q1284.64 66.3781 1279.62 70.0644 Q1274.64 73.7508 1265.89 73.7508 Q1262.24 73.7508 1258.27 73.0216 Q1254.34 72.3329 1249.97 70.9151 L1249.97 63.2184 Q1254.1 65.3654 1258.11 66.4591 Q1262.12 67.5124 1266.05 67.5124 Q1271.32 67.5124 1274.15 65.73 Q1276.99 63.9071 1276.99 60.6258 Q1276.99 57.5877 1274.92 55.9673 Q1272.9 54.3469 1265.97 52.8481 L1263.38 52.2405 Q1256.45 50.7821 1253.37 47.7845 Q1250.29 44.7463 1250.29 39.4801 Q1250.29 33.0797 1254.83 29.5959 Q1259.37 26.1121 1267.71 26.1121 Q1271.84 26.1121 1275.49 26.7198 Q1279.13 27.3274 1282.21 28.5427 Z" fill="#000000" fill-rule="nonzero" fill-opacity="1" /><path clip-path="url(#clip290)" d="M1323.21 12.096 L1331.39 12.096 L1331.39 72.576 L1323.21 72.576 L1323.21 12.096 Z" fill="#000000" fill-rule="nonzero" fill-opacity="1" /><path clip-path="url(#clip290)" d="M1385.07 45.1919 L1385.07 72.576 L1377.61 72.576 L1377.61 45.4349 Q1377.61 38.994 1375.1 35.7938 Q1372.59 32.5936 1367.57 32.5936 Q1361.53 32.5936 1358.05 36.4419 Q1354.56 40.2903 1354.56 46.9338 L1354.56 72.576 L1347.07 72.576 L1347.07 27.2059 L1354.56 27.2059 L1354.56 34.2544 Q1357.24 30.163 1360.84 28.1376 Q1364.49 26.1121 1369.23 26.1121 Q1377.04 26.1121 1381.06 30.9732 Q1385.07 35.7938 1385.07 45.1919 Z" fill="#000000" fill-rule="nonzero" fill-opacity="1" /><path clip-path="url(#clip290)" d="M1429.79 34.0924 L1429.79 9.54393 L1437.24 9.54393 L1437.24 72.576 L1429.79 72.576 L1429.79 65.7705 Q1427.44 69.8214 1423.83 71.8063 Q1420.27 73.7508 1415.24 73.7508 Q1407.02 73.7508 1401.84 67.1883 Q1396.69 60.6258 1396.69 49.9314 Q1396.69 39.2371 1401.84 32.6746 Q1407.02 26.1121 1415.24 26.1121 Q1420.27 26.1121 1423.83 28.0971 Q1427.44 30.0415 1429.79 34.0924 M1404.39 49.9314 Q1404.39 58.1548 1407.75 62.8538 Q1411.15 67.5124 1417.07 67.5124 Q1422.98 67.5124 1426.38 62.8538 Q1429.79 58.1548 1429.79 49.9314 Q1429.79 41.7081 1426.38 37.0496 Q1422.98 32.3505 1417.07 32.3505 Q1411.15 32.3505 1407.75 37.0496 Q1404.39 41.7081 1404.39 49.9314 Z" fill="#000000" fill-rule="nonzero" fill-opacity="1" /><path clip-path="url(#clip290)" d="M1452.59 27.2059 L1460.05 27.2059 L1460.05 72.576 L1452.59 72.576 L1452.59 27.2059 M1452.59 9.54393 L1460.05 9.54393 L1460.05 18.9825 L1452.59 18.9825 L1452.59 9.54393 Z" fill="#000000" fill-rule="nonzero" fill-opacity="1" /><path clip-path="url(#clip290)" d="M1470.3 27.2059 L1478.2 27.2059 L1492.37 65.2844 L1506.55 27.2059 L1514.45 27.2059 L1497.44 72.576 L1487.31 72.576 L1470.3 27.2059 Z" fill="#000000" fill-rule="nonzero" fill-opacity="1" /><path clip-path="url(#clip290)" d="M1524.74 27.2059 L1532.19 27.2059 L1532.19 72.576 L1524.74 72.576 L1524.74 27.2059 M1524.74 9.54393 L1532.19 9.54393 L1532.19 18.9825 L1524.74 18.9825 L1524.74 9.54393 Z" fill="#000000" fill-rule="nonzero" fill-opacity="1" /><path clip-path="url(#clip290)" d="M1577.65 34.0924 L1577.65 9.54393 L1585.1 9.54393 L1585.1 72.576 L1577.65 72.576 L1577.65 65.7705 Q1575.3 69.8214 1571.69 71.8063 Q1568.13 73.7508 1563.1 73.7508 Q1554.88 73.7508 1549.69 67.1883 Q1544.55 60.6258 1544.55 49.9314 Q1544.55 39.2371 1549.69 32.6746 Q1554.88 26.1121 1563.1 26.1121 Q1568.13 26.1121 1571.69 28.0971 Q1575.3 30.0415 1577.65 34.0924 M1552.25 49.9314 Q1552.25 58.1548 1555.61 62.8538 Q1559.01 67.5124 1564.93 67.5124 Q1570.84 67.5124 1574.24 62.8538 Q1577.65 58.1548 1577.65 49.9314 Q1577.65 41.7081 1574.24 37.0496 Q1570.84 32.3505 1564.93 32.3505 Q1559.01 32.3505 1555.61 37.0496 Q1552.25 41.7081 1552.25 49.9314 Z" fill="#000000" fill-rule="nonzero" fill-opacity="1" /><path clip-path="url(#clip290)" d="M1599.68 54.671 L1599.68 27.2059 L1607.14 27.2059 L1607.14 54.3874 Q1607.14 60.8284 1609.65 64.0691 Q1612.16 67.2693 1617.18 67.2693 Q1623.22 67.2693 1626.7 63.421 Q1630.23 59.5726 1630.23 52.9291 L1630.23 27.2059 L1637.68 27.2059 L1637.68 72.576 L1630.23 72.576 L1630.23 65.6084 Q1627.51 69.7404 1623.91 71.7658 Q1620.34 73.7508 1615.6 73.7508 Q1607.78 73.7508 1603.73 68.8897 Q1599.68 64.0286 1599.68 54.671 M1618.44 26.1121 L1618.44 26.1121 Z" fill="#000000" fill-rule="nonzero" fill-opacity="1" /><path clip-path="url(#clip290)" d="M1673.65 49.7694 Q1664.62 49.7694 1661.13 51.8354 Q1657.65 53.9013 1657.65 58.8839 Q1657.65 62.8538 1660.24 65.2034 Q1662.88 67.5124 1667.37 67.5124 Q1673.57 67.5124 1677.3 63.1374 Q1681.07 58.7219 1681.07 51.4303 L1681.07 49.7694 L1673.65 49.7694 M1688.52 46.6907 L1688.52 72.576 L1681.07 72.576 L1681.07 65.6895 Q1678.51 69.8214 1674.71 71.8063 Q1670.9 73.7508 1665.39 73.7508 Q1658.42 73.7508 1654.29 69.8619 Q1650.2 65.9325 1650.2 59.3701 Q1650.2 51.7138 1655.3 47.825 Q1660.45 43.9361 1670.61 43.9361 L1681.07 43.9361 L1681.07 43.2069 Q1681.07 38.0623 1677.66 35.2672 Q1674.3 32.4315 1668.18 32.4315 Q1664.29 32.4315 1660.61 33.3632 Q1656.92 34.295 1653.52 36.1584 L1653.52 29.2718 Q1657.61 27.692 1661.46 26.9223 Q1665.31 26.1121 1668.95 26.1121 Q1678.8 26.1121 1683.66 31.2163 Q1688.52 36.3204 1688.52 46.6907 Z" fill="#000000" fill-rule="nonzero" fill-opacity="1" /><path clip-path="url(#clip290)" d="M1703.87 9.54393 L1711.33 9.54393 L1711.33 72.576 L1703.87 72.576 L1703.87 9.54393 Z" fill="#000000" fill-rule="nonzero" fill-opacity="1" /><path clip-path="url(#clip290)" d="M1755.84 28.5427 L1755.84 35.5912 Q1752.69 33.9709 1749.28 33.1607 Q1745.88 32.3505 1742.23 32.3505 Q1736.68 32.3505 1733.89 34.0519 Q1731.13 35.7533 1731.13 39.156 Q1731.13 41.7486 1733.12 43.2475 Q1735.1 44.7058 1741.1 46.0426 L1743.65 46.6097 Q1751.59 48.3111 1754.91 51.4303 Q1758.28 54.509 1758.28 60.0587 Q1758.28 66.3781 1753.25 70.0644 Q1748.27 73.7508 1739.52 73.7508 Q1735.87 73.7508 1731.9 73.0216 Q1727.97 72.3329 1723.6 70.9151 L1723.6 63.2184 Q1727.73 65.3654 1731.74 66.4591 Q1735.75 67.5124 1739.68 67.5124 Q1744.95 67.5124 1747.78 65.73 Q1750.62 63.9071 1750.62 60.6258 Q1750.62 57.5877 1748.55 55.9673 Q1746.53 54.3469 1739.6 52.8481 L1737.01 52.2405 Q1730.08 50.7821 1727 47.7845 Q1723.92 44.7463 1723.92 39.4801 Q1723.92 33.0797 1728.46 29.5959 Q1733 26.1121 1741.34 26.1121 Q1745.47 26.1121 1749.12 26.7198 Q1752.77 27.3274 1755.84 28.5427 Z" fill="#000000" fill-rule="nonzero" fill-opacity="1" /><path clip-path="url(#clip290)" d="M1829.09 49.9314 Q1829.09 41.7081 1825.68 37.0496 Q1822.32 32.3505 1816.41 32.3505 Q1810.49 32.3505 1807.09 37.0496 Q1803.73 41.7081 1803.73 49.9314 Q1803.73 58.1548 1807.09 62.8538 Q1810.49 67.5124 1816.41 67.5124 Q1822.32 67.5124 1825.68 62.8538 Q1829.09 58.1548 1829.09 49.9314 M1803.73 34.0924 Q1806.08 30.0415 1809.64 28.0971 Q1813.25 26.1121 1818.23 26.1121 Q1826.49 26.1121 1831.64 32.6746 Q1836.82 39.2371 1836.82 49.9314 Q1836.82 60.6258 1831.64 67.1883 Q1826.49 73.7508 1818.23 73.7508 Q1813.25 73.7508 1809.64 71.8063 Q1806.08 69.8214 1803.73 65.7705 L1803.73 72.576 L1796.23 72.576 L1796.23 9.54393 L1803.73 9.54393 L1803.73 34.0924 Z" fill="#000000" fill-rule="nonzero" fill-opacity="1" /><path clip-path="url(#clip290)" d="M1868.05 76.7889 Q1864.9 84.8907 1861.9 87.3618 Q1858.9 89.8329 1853.88 89.8329 L1847.92 89.8329 L1847.92 83.5945 L1852.3 83.5945 Q1855.38 83.5945 1857.08 82.1361 Q1858.78 80.6778 1860.84 75.2496 L1862.18 71.8468 L1843.83 27.2059 L1851.73 27.2059 L1865.91 62.6918 L1880.09 27.2059 L1887.99 27.2059 L1868.05 76.7889 Z" fill="#000000" fill-rule="nonzero" fill-opacity="1" /><path clip-path="url(#clip290)" d="M1953.65 44.2197 Q1956.28 45.1109 1958.75 48.0275 Q1961.27 50.9442 1963.78 56.0483 L1972.08 72.576 L1963.29 72.576 L1955.55 57.061 Q1952.56 50.9847 1949.72 48.9997 Q1946.93 47.0148 1942.06 47.0148 L1933.15 47.0148 L1933.15 72.576 L1924.97 72.576 L1924.97 12.096 L1943.44 12.096 Q1953.81 12.096 1958.92 16.4305 Q1964.02 20.7649 1964.02 29.5149 Q1964.02 35.2267 1961.35 38.994 Q1958.71 42.7613 1953.65 44.2197 M1933.15 18.8205 L1933.15 40.2903 L1943.44 40.2903 Q1949.36 40.2903 1952.35 37.5762 Q1955.39 34.8216 1955.39 29.5149 Q1955.39 24.2082 1952.35 21.5346 Q1949.36 18.8205 1943.44 18.8205 L1933.15 18.8205 Z" fill="#000000" fill-rule="nonzero" fill-opacity="1" /><path clip-path="url(#clip290)" d="M2017.37 48.0275 L2017.37 51.6733 L1983.1 51.6733 Q1983.59 59.3701 1987.72 63.421 Q1991.89 67.4314 1999.3 67.4314 Q2003.6 67.4314 2007.61 66.3781 Q2011.66 65.3249 2015.63 63.2184 L2015.63 70.267 Q2011.62 71.9684 2007.41 72.8596 Q2003.19 73.7508 1998.86 73.7508 Q1988 73.7508 1981.64 67.4314 Q1975.32 61.1119 1975.32 50.3365 Q1975.32 39.1965 1981.32 32.6746 Q1987.35 26.1121 1997.56 26.1121 Q2006.72 26.1121 2012.02 32.0264 Q2017.37 37.9003 2017.37 48.0275 M2009.92 45.84 Q2009.84 39.7232 2006.47 36.0774 Q2003.15 32.4315 1997.64 32.4315 Q1991.4 32.4315 1987.64 35.9558 Q1983.91 39.4801 1983.34 45.8805 L2009.92 45.84 Z" fill="#000000" fill-rule="nonzero" fill-opacity="1" /><path clip-path="url(#clip290)" d="M2059.46 49.3643 Q2059.46 41.2625 2056.1 36.8065 Q2052.78 32.3505 2046.74 32.3505 Q2040.74 32.3505 2037.38 36.8065 Q2034.06 41.2625 2034.06 49.3643 Q2034.06 57.4256 2037.38 61.8816 Q2040.74 66.3376 2046.74 66.3376 Q2052.78 66.3376 2056.1 61.8816 Q2059.46 57.4256 2059.46 49.3643 M2066.91 66.9452 Q2066.91 78.5308 2061.77 84.1616 Q2056.62 89.8329 2046.01 89.8329 Q2042.08 89.8329 2038.6 89.2252 Q2035.11 88.6581 2031.83 87.4428 L2031.83 80.1917 Q2035.11 81.9741 2038.31 82.8248 Q2041.51 83.6755 2044.84 83.6755 Q2052.17 83.6755 2055.81 79.8271 Q2059.46 76.0193 2059.46 68.282 L2059.46 64.5957 Q2057.15 68.6061 2053.55 70.5911 Q2049.94 72.576 2044.92 72.576 Q2036.57 72.576 2031.47 66.2161 Q2026.36 59.8562 2026.36 49.3643 Q2026.36 38.832 2031.47 32.472 Q2036.57 26.1121 2044.92 26.1121 Q2049.94 26.1121 2053.55 28.0971 Q2057.15 30.082 2059.46 34.0924 L2059.46 27.2059 L2066.91 27.2059 L2066.91 66.9452 Z" fill="#000000" fill-rule="nonzero" fill-opacity="1" /><path clip-path="url(#clip290)" d="M2082.27 27.2059 L2089.72 27.2059 L2089.72 72.576 L2082.27 72.576 L2082.27 27.2059 M2082.27 9.54393 L2089.72 9.54393 L2089.72 18.9825 L2082.27 18.9825 L2082.27 9.54393 Z" fill="#000000" fill-rule="nonzero" fill-opacity="1" /><path clip-path="url(#clip290)" d="M2122.9 32.4315 Q2116.9 32.4315 2113.42 37.1306 Q2109.93 41.7891 2109.93 49.9314 Q2109.93 58.0738 2113.38 62.7728 Q2116.86 67.4314 2122.9 67.4314 Q2128.85 67.4314 2132.34 62.7323 Q2135.82 58.0333 2135.82 49.9314 Q2135.82 41.8701 2132.34 37.1711 Q2128.85 32.4315 2122.9 32.4315 M2122.9 26.1121 Q2132.62 26.1121 2138.17 32.4315 Q2143.72 38.7509 2143.72 49.9314 Q2143.72 61.0714 2138.17 67.4314 Q2132.62 73.7508 2122.9 73.7508 Q2113.13 73.7508 2107.58 67.4314 Q2102.08 61.0714 2102.08 49.9314 Q2102.08 38.7509 2107.58 32.4315 Q2113.13 26.1121 2122.9 26.1121 Z" fill="#000000" fill-rule="nonzero" fill-opacity="1" /><path clip-path="url(#clip290)" d="M2193.79 45.1919 L2193.79 72.576 L2186.33 72.576 L2186.33 45.4349 Q2186.33 38.994 2183.82 35.7938 Q2181.31 32.5936 2176.29 32.5936 Q2170.25 32.5936 2166.77 36.4419 Q2163.28 40.2903 2163.28 46.9338 L2163.28 72.576 L2155.79 72.576 L2155.79 27.2059 L2163.28 27.2059 L2163.28 34.2544 Q2165.96 30.163 2169.56 28.1376 Q2173.21 26.1121 2177.95 26.1121 Q2185.77 26.1121 2189.78 30.9732 Q2193.79 35.7938 2193.79 45.1919 Z" fill="#000000" fill-rule="nonzero" fill-opacity="1" /><polyline clip-path="url(#clip291)" style="stroke:#4682b4; stroke-linecap:round; stroke-linejoin:round; stroke-width:8; stroke-opacity:1; fill:none" points="401.308,1212.18 407.562,1212.33 413.817,1212.33 420.072,1212.24 426.326,1212.08 432.581,1211.88 438.836,1211.63 445.091,1211.33 451.345,1210.99 457.6,1210.59 463.855,1210.13 470.109,1209.59 476.364,1208.97 482.619,1208.25 488.873,1207.41 495.128,1206.45 501.383,1205.33 507.637,1204.03 513.892,1202.53 520.147,1200.79 526.401,1198.78 532.656,1196.44 538.911,1193.74 545.165,1190.62 551.42,1186.99 557.675,1182.8 563.929,1177.95 570.184,1172.33 576.439,1165.82 582.694,1158.29 588.948,1149.57 595.203,1139.52 601.458,1128.08 607.712,1115.14 613.967,1100.61 620.222,1084.45 626.476,1066.56 632.731,1046.56 638.986,1024.39 645.24,1000.31 651.495,974.623 657.75,946.7 664.004,916.133 670.259,883.188 676.514,848.759 682.768,812.947 689.023,774.951 695.278,734.772 701.533,693.265 707.787,651.633 714.042,609.304 720.297,565.953 726.551,522.202 732.806,479.583 739.061,438.744 745.315,398.973 751.57,360.43 757.825,324.22 764.079,292.03 770.334,263.622 776.589,238.585 782.843,216.848 789.098,198.582 795.353,183.457 801.607,170.52 807.862,160.254 814.117,152.637 820.372,147.071 826.626,142.777 832.881,140.541 839.136,140.541 845.39,142.72 851.645,146.916 857.9,153.078 864.154,161.249 870.409,171.386 876.664,183.403 882.918,197.171 889.173,212.618 895.428,229.727 901.682,248.416 907.937,268.529 914.192,289.857 920.446,312.343 926.701,335.993 932.956,360.701 939.21,386.249 945.465,412.294 951.72,438.831 957.975,466.103 964.229,493.978 970.484,521.927 976.739,549.034 982.993,574.9 989.248,599.896 995.503,623.959 1001.76,646.521 1008.01,667.245 1014.27,686.748 1020.52,705.107 1026.78,722.35 1033.03,738.495 1039.29,753.669 1045.54,767.86 1051.79,781.084 1058.05,793.413 1064.3,804.985 1070.56,815.967 1076.81,826.311 1083.07,835.904 1089.32,844.732 1095.58,852.883 1101.83,860.545 1108.09,867.931 1114.34,874.883 1120.6,881.252 1126.85,887.007 1133.11,892.233 1139.36,897.127 1145.62,901.886 1151.87,906.309 1158.12,910.294 1164.38,913.858 1170.63,917.118 1176.89,920.297 1183.14,923.611 1189.4,926.857 1195.65,929.874 1201.91,932.619 1208.16,935.16 1214.42,937.679 1220.67,940.372 1226.93,943.028 1233.18,945.494 1239.44,947.726 1245.69,949.771 1251.94,951.775 1258.2,953.929 1264.45,956.096 1270.71,958.104 1276.96,959.887 1283.22,961.472 1289.47,962.979 1295.73,964.615 1301.98,966.366 1308.24,968.006 1314.49,969.423 1320.75,970.61 1327,971.663 1333.26,972.782 1339.51,974.125 1345.76,975.436 1352.02,976.545 1358.27,977.404 1364.53,978.08 1370.78,978.758 1377.04,979.678 1383.29,980.645 1389.55,981.447 1395.8,982.008 1402.06,982.374 1408.31,982.702 1414.57,983.239 1420.82,983.852 1427.08,984.328 1433.33,984.589 1439.59,984.666 1445.84,984.691 1452.09,984.885 1458.35,985.159 1464.6,985.315 1470.86,985.276 1477.11,985.062 1483.37,984.783 1489.62,984.639 1495.88,984.598 1502.13,984.458 1508.39,984.131 1514.64,983.62 1520.9,983.02 1527.15,982.517 1533.41,982.187 1539.66,981.799 1545.91,981.213 1552.17,980.406 1558.42,979.468 1564.68,978.602 1570.93,977.987 1577.19,977.355 1583.44,976.553 1589.7,975.547 1595.95,974.413 1602.21,973.336 1608.46,972.444 1614.72,971.508 1620.97,970.424 1627.23,969.173 1633.48,967.824 1639.74,966.53 1645.99,965.363 1652.24,964.142 1658.5,962.782 1664.75,961.268 1671.01,959.658 1677.26,958.084 1683.52,956.643 1689.77,955.172 1696.03,953.561 1702.28,951.776 1708.54,949.863 1714.79,947.947 1721.05,946.193 1727.3,944.491 1733.56,942.657 1739.81,940.616 1746.06,938.389 1752.32,936.097 1758.57,933.956 1764.83,931.988 1771.08,929.93 1777.34,927.647 1783.59,925.129 1789.85,922.483 1796.1,919.941 1802.36,917.649 1808.61,915.307 1814.87,912.75 1821.12,909.944 1827.38,906.986 1833.63,904.102 1839.88,901.461 1846.14,898.775 1852.39,895.889 1858.65,892.771 1864.9,889.507 1871.16,886.305 1877.41,883.312 1883.67,880.269 1889.92,877.034 1896.18,873.58 1902.43,869.986 1908.69,866.441 1914.94,863.095 1921.2,859.713 1927.45,856.144 1933.71,852.348 1939.96,848.396 1946.21,844.467 1952.47,840.769 1958.72,837.095 1964.98,833.23 1971.23,829.118 1977.49,824.859 1983.74,820.706 1990,817.022 1996.25,813.656 2002.51,810.269 2008.76,806.736 2015.02,803.133 2021.27,799.732 2027.53,796.921 2033.78,794.412 2040.03,791.932 2046.29,789.415 2052.54,786.95 2058.8,784.774 2065.05,783.058 2071.31,781.526 2077.56,780.065 2083.82,778.662 2090.07,777.404 2096.33,776.474 2102.58,775.909 2108.84,775.519 2115.09,775.222 2121.35,775.012 2127.6,774.962 2133.85,775.219 2140.11,775.857 2146.36,776.695 2152.62,777.626 2158.87,778.624 2165.13,779.738 2171.38,781.097 2177.64,782.863 2183.89,784.906 2190.15,787.053 2196.4,789.229 2202.66,791.451 2208.91,793.822 2215.17,796.535 2221.42,799.632 2227.68,802.869 2233.93,806.124 2240.18,809.368 2246.44,812.671 2252.69,816.199 2258.95,820.122 2265.2,824.223 2271.46,828.351 2277.71,832.453 2283.97,836.563 2290.22,840.802 2296.48,845.346 2302.73,850.071 2308.99,854.826 2315.24,859.557 2321.5,864.275 2327.75,869.056 2334,874.035 2340.26,879.168 2346.51,884.325 2352.77,889.458 2359.02,894.562 2365.28,899.678 2371.53,904.892 2377.79,910.233 2384.04,915.589 2390.3,920.917 2396.55,926.201 2402.81,931.458 2409.06,936.734 2415.32,942.086 2421.57,947.453 2427.83,952.786 2434.08,958.068 2440.33,963.3 2446.59,968.501 2452.84,973.71 2459.1,978.923 2465.35,984.095 2471.61,989.213 2477.86,994.275 2484.12,999.284 2490.37,1004.25 2496.63,1009.19 2502.88,1014.07 2509.14,1018.9 2515.39,1023.67 2521.65,1028.38 2527.9,1033.04 2534.15,1037.62 2540.41,1042.13 2546.66,1046.58 2552.92,1050.98 2559.17,1055.32 2565.43,1059.58 2571.68,1063.76 2577.94,1067.86 2584.19,1071.89 2590.45,1075.86 2596.7,1079.78 2602.96,1083.62 2609.21,1087.37 2615.47,1091.03 2621.72,1094.61 2627.97,1098.14 2634.23,1101.62 2640.48,1105.03 2646.74,1108.35 2652.99,1111.56 2659.25,1114.71 2665.5,1117.79 2671.76,1120.83 2678.01,1123.8 2684.27,1126.69 "/>
<polyline clip-path="url(#clip291)" style="stroke:#ffa500; stroke-linecap:round; stroke-linejoin:round; stroke-width:8; stroke-opacity:1; fill:none" points="401.308,1213.39 407.562,1213.41 413.817,1213.42 420.072,1213.42 426.326,1213.43 432.581,1213.43 438.836,1213.43 445.091,1213.43 451.345,1213.43 457.6,1213.42 463.855,1213.42 470.109,1213.41 476.364,1213.41 482.619,1213.4 488.873,1213.4 495.128,1213.39 501.383,1213.38 507.637,1213.37 513.892,1213.36 520.147,1213.35 526.401,1213.33 532.656,1213.31 538.911,1213.29 545.165,1213.27 551.42,1213.24 557.675,1213.21 563.929,1213.17 570.184,1213.13 576.439,1213.07 582.694,1213.01 588.948,1212.94 595.203,1212.86 601.458,1212.76 607.712,1212.65 613.967,1212.52 620.222,1212.36 626.476,1212.18 632.731,1211.98 638.986,1211.74 645.24,1211.47 651.495,1211.16 657.75,1210.8 664.004,1210.38 670.259,1209.91 676.514,1209.37 682.768,1208.75 689.023,1208.04 695.278,1207.24 701.533,1206.33 707.787,1205.29 714.042,1204.12 720.297,1202.79 726.551,1201.29 732.806,1199.6 739.061,1197.7 745.315,1195.55 751.57,1193.15 757.825,1190.44 764.079,1187.42 770.334,1184.02 776.589,1180.22 782.843,1175.98 789.098,1171.31 795.353,1166.31 801.607,1160.94 807.862,1155.07 814.117,1148.69 820.372,1141.94 826.626,1135.07 832.881,1127.88 839.136,1120.26 845.39,1112.28 851.645,1104.12 857.9,1095.9 864.154,1087.47 870.409,1078.8 876.664,1070.07 882.918,1061.52 889.173,1053.16 895.428,1044.86 901.682,1036.67 907.937,1028.79 914.192,1021.54 920.446,1014.82 926.701,1008.53 932.956,1002.72 939.21,997.616 945.465,993.475 951.72,990.164 957.975,987.668 964.229,985.992 970.484,985.141 976.739,985.02 982.993,985.233 989.248,985.857 995.503,986.847 1001.76,987.956 1008.01,989.017 1014.27,990.244 1020.52,991.649 1026.78,993.2 1033.03,994.834 1039.29,996.561 1045.54,998.412 1051.79,1000.39 1058.05,1002.49 1064.3,1004.68 1070.56,1006.91 1076.81,1009.22 1083.07,1011.63 1089.32,1014.15 1095.58,1016.76 1101.83,1019.43 1108.09,1022.12 1114.34,1024.86 1120.6,1027.68 1126.85,1030.58 1133.11,1033.55 1139.36,1036.55 1145.62,1039.55 1151.87,1042.6 1158.12,1045.66 1164.38,1048.72 1170.63,1051.73 1176.89,1054.62 1183.14,1057.34 1189.4,1059.92 1195.65,1062.42 1201.91,1064.82 1208.16,1067.14 1214.42,1069.33 1220.67,1071.35 1226.93,1073.27 1233.18,1075.09 1239.44,1076.84 1245.69,1078.51 1251.94,1080.08 1258.2,1081.54 1264.45,1082.91 1270.71,1084.2 1276.96,1085.41 1283.22,1086.56 1289.47,1087.62 1295.73,1088.61 1301.98,1089.51 1308.24,1090.35 1314.49,1091.12 1320.75,1091.82 1327,1092.46 1333.26,1093.03 1339.51,1093.54 1345.76,1093.98 1352.02,1094.36 1358.27,1094.67 1364.53,1094.92 1370.78,1095.12 1377.04,1095.25 1383.29,1095.34 1389.55,1095.36 1395.8,1095.31 1402.06,1095.21 1408.31,1095.04 1414.57,1094.83 1420.82,1094.56 1427.08,1094.23 1433.33,1093.84 1439.59,1093.38 1445.84,1092.86 1452.09,1092.29 1458.35,1091.67 1464.6,1090.98 1470.86,1090.22 1477.11,1089.4 1483.37,1088.52 1489.62,1087.58 1495.88,1086.57 1502.13,1085.5 1508.39,1084.36 1514.64,1083.14 1520.9,1081.86 1527.15,1080.51 1533.41,1079.13 1539.66,1077.71 1545.91,1076.17 1552.17,1074.51 1558.42,1072.76 1564.68,1071.01 1570.93,1069.35 1577.19,1067.65 1583.44,1065.85 1589.7,1063.91 1595.95,1061.88 1602.21,1059.85 1608.46,1057.88 1614.72,1055.85 1620.97,1053.71 1627.23,1051.45 1633.48,1049.1 1639.74,1046.75 1645.99,1044.43 1652.24,1042.03 1658.5,1039.53 1664.75,1036.9 1671.01,1034.18 1677.26,1031.44 1683.52,1028.73 1689.77,1025.96 1696.03,1023.06 1702.28,1020.03 1708.54,1016.87 1714.79,1013.67 1721.05,1010.51 1727.3,1007.33 1733.56,1004.03 1739.81,1000.55 1746.06,996.908 1752.32,993.175 1758.57,989.483 1764.83,985.851 1771.08,982.109 1777.34,978.165 1783.59,974.01 1789.85,969.716 1796.1,965.439 1802.36,961.28 1808.61,957.033 1814.87,952.576 1821.12,947.881 1827.38,943.021 1833.63,938.161 1839.88,933.43 1846.14,928.614 1852.39,923.584 1858.65,918.314 1864.9,912.874 1871.16,907.432 1877.41,902.114 1883.67,896.706 1889.92,891.08 1896.18,885.211 1902.43,879.171 1908.69,873.13 1914.94,867.231 1921.2,861.259 1927.45,855.065 1933.71,848.61 1939.96,841.966 1946.21,835.313 1952.47,828.868 1958.72,822.43 1964.98,815.76 1971.23,808.797 1977.49,801.657 1983.74,794.634 1990,788.15 1996.25,782.054 2002.51,775.935 2008.76,769.64 2015.02,763.266 2021.27,757.163 2027.53,751.827 2033.78,746.908 2040.03,742.045 2046.29,737.154 2052.54,732.358 2058.8,727.987 2065.05,724.287 2071.31,720.879 2077.56,717.598 2083.82,714.429 2090.07,711.502 2096.33,709.093 2102.58,707.264 2108.84,705.732 2115.09,704.367 2121.35,703.161 2127.6,702.228 2133.85,701.805 2140.11,702.011 2146.36,702.56 2152.62,703.278 2158.87,704.122 2165.13,705.17 2171.38,706.632 2177.64,708.771 2183.89,711.372 2190.15,714.157 2196.4,717.004 2202.66,719.937 2208.91,723.122 2215.17,726.866 2221.42,731.224 2227.68,735.813 2233.93,740.44 2240.18,745.062 2246.44,749.781 2252.69,754.848 2258.95,760.518 2265.2,766.452 2271.46,772.43 2277.71,778.374 2283.97,784.33 2290.22,790.467 2296.48,797.03 2302.73,803.831 2308.99,810.667 2315.24,817.467 2321.5,824.242 2327.75,831.085 2334,838.164 2340.26,845.409 2346.51,852.665 2352.77,859.879 2359.02,867.043 2365.28,874.197 2371.53,881.428 2377.79,888.752 2384.04,896.057 2390.3,903.307 2396.55,910.49 2402.81,917.614 2409.06,924.708 2415.32,931.806 2421.57,938.852 2427.83,945.828 2434.08,952.73 2440.33,959.554 2446.59,966.3 2452.84,972.967 2459.1,979.538 2465.35,986.013 2471.61,992.409 2477.86,998.727 2484.12,1004.96 2490.37,1011.07 2496.63,1017.04 2502.88,1022.89 2509.14,1028.64 2515.39,1034.32 2521.65,1039.91 2527.9,1045.38 2534.15,1050.69 2540.41,1055.85 2546.66,1060.92 2552.92,1065.91 2559.17,1070.81 2565.43,1075.59 2571.68,1080.21 2577.94,1084.69 2584.19,1089.07 2590.45,1093.36 2596.7,1097.58 2602.96,1101.68 2609.21,1105.63 2615.47,1109.44 2621.72,1113.16 2627.97,1116.79 2634.23,1120.35 2640.48,1123.82 2646.74,1127.15 2652.99,1130.35 2659.25,1133.45 2665.5,1136.48 2671.76,1139.43 2678.01,1142.3 2684.27,1145.07 "/>
<polyline clip-path="url(#clip291)" style="stroke:#008000; stroke-linecap:round; stroke-linejoin:round; stroke-width:8; stroke-opacity:1; fill:none" points="401.308,1213.51 407.562,1213.51 413.817,1213.51 420.072,1213.51 426.326,1213.51 432.581,1213.51 438.836,1213.51 445.091,1213.51 451.345,1213.51 457.6,1213.51 463.855,1213.51 470.109,1213.51 476.364,1213.51 482.619,1213.51 488.873,1213.51 495.128,1213.51 501.383,1213.51 507.637,1213.51 513.892,1213.51 520.147,1213.51 526.401,1213.5 532.656,1213.5 538.911,1213.5 545.165,1213.5 551.42,1213.5 557.675,1213.5 563.929,1213.49 570.184,1213.49 576.439,1213.49 582.694,1213.48 588.948,1213.48 595.203,1213.48 601.458,1213.47 607.712,1213.46 613.967,1213.45 620.222,1213.45 626.476,1213.44 632.731,1213.42 638.986,1213.41 645.24,1213.39 651.495,1213.37 657.75,1213.35 664.004,1213.33 670.259,1213.3 676.514,1213.27 682.768,1213.23 689.023,1213.19 695.278,1213.14 701.533,1213.09 707.787,1213.03 714.042,1212.96 720.297,1212.89 726.551,1212.81 732.806,1212.72 739.061,1212.62 745.315,1212.51 751.57,1212.39 757.825,1212.26 764.079,1212.11 770.334,1211.95 776.589,1211.78 782.843,1211.59 789.098,1211.38 795.353,1211.17 801.607,1210.94 807.862,1210.69 814.117,1210.43 820.372,1210.16 826.626,1209.87 832.881,1209.57 839.136,1209.25 845.39,1208.91 851.645,1208.56 857.9,1208.2 864.154,1207.82 870.409,1207.43 876.664,1207.01 882.918,1206.59 889.173,1206.15 895.428,1205.69 901.682,1205.21 907.937,1204.72 914.192,1204.22 920.446,1203.7 926.701,1203.17 932.956,1202.63 939.21,1202.07 945.465,1201.5 951.72,1200.92 957.975,1200.32 964.229,1199.72 970.484,1199.1 976.739,1198.49 982.993,1197.88 989.248,1197.27 995.503,1196.66 1001.76,1196.07 1008.01,1195.49 1014.27,1194.93 1020.52,1194.38 1026.78,1193.85 1033.03,1193.35 1039.29,1192.88 1045.54,1192.43 1051.79,1192 1058.05,1191.59 1064.3,1191.22 1070.56,1190.9 1076.81,1190.61 1083.07,1190.36 1089.32,1190.13 1095.58,1189.94 1101.83,1189.78 1108.09,1189.69 1114.34,1189.65 1120.6,1189.64 1126.85,1189.65 1133.11,1189.71 1139.36,1189.81 1145.62,1189.97 1151.87,1190.17 1158.12,1190.4 1164.38,1190.65 1170.63,1190.9 1176.89,1191.16 1183.14,1191.42 1189.4,1191.68 1195.65,1191.93 1201.91,1192.18 1208.16,1192.42 1214.42,1192.65 1220.67,1192.88 1226.93,1193.1 1233.18,1193.31 1239.44,1193.52 1245.69,1193.73 1251.94,1193.92 1258.2,1194.12 1264.45,1194.3 1270.71,1194.48 1276.96,1194.66 1283.22,1194.83 1289.47,1195 1295.73,1195.16 1301.98,1195.32 1308.24,1195.47 1314.49,1195.62 1320.75,1195.76 1327,1195.9 1333.26,1196.03 1339.51,1196.16 1345.76,1196.29 1352.02,1196.41 1358.27,1196.53 1364.53,1196.64 1370.78,1196.75 1377.04,1196.85 1383.29,1196.96 1389.55,1197.05 1395.8,1197.15 1402.06,1197.24 1408.31,1197.32 1414.57,1197.41 1420.82,1197.49 1427.08,1197.57 1433.33,1197.64 1439.59,1197.71 1445.84,1197.77 1452.09,1197.84 1458.35,1197.9 1464.6,1197.95 1470.86,1198 1477.11,1198.05 1483.37,1198.1 1489.62,1198.14 1495.88,1198.18 1502.13,1198.22 1508.39,1198.25 1514.64,1198.28 1520.9,1198.31 1527.15,1198.33 1533.41,1198.36 1539.66,1198.38 1545.91,1198.39 1552.17,1198.4 1558.42,1198.41 1564.68,1198.42 1570.93,1198.42 1577.19,1198.43 1583.44,1198.43 1589.7,1198.42 1595.95,1198.41 1602.21,1198.41 1608.46,1198.4 1614.72,1198.38 1620.97,1198.37 1627.23,1198.35 1633.48,1198.32 1639.74,1198.3 1645.99,1198.27 1652.24,1198.24 1658.5,1198.21 1664.75,1198.17 1671.01,1198.13 1677.26,1198.09 1683.52,1198.05 1689.77,1198 1696.03,1197.95 1702.28,1197.9 1708.54,1197.84 1714.79,1197.78 1721.05,1197.72 1727.3,1197.66 1733.56,1197.59 1739.81,1197.52 1746.06,1197.44 1752.32,1197.36 1758.57,1197.28 1764.83,1197.2 1771.08,1197.11 1777.34,1197.02 1783.59,1196.93 1789.85,1196.83 1796.1,1196.72 1802.36,1196.62 1808.61,1196.52 1814.87,1196.41 1821.12,1196.29 1827.38,1196.16 1833.63,1196.04 1839.88,1195.91 1846.14,1195.79 1852.39,1195.65 1858.65,1195.51 1864.9,1195.36 1871.16,1195.21 1877.41,1195.06 1883.67,1194.91 1889.92,1194.75 1896.18,1194.58 1902.43,1194.41 1908.69,1194.23 1914.94,1194.06 1921.2,1193.87 1927.45,1193.69 1933.71,1193.49 1939.96,1193.29 1946.21,1193.08 1952.47,1192.87 1958.72,1192.66 1964.98,1192.44 1971.23,1192.21 1977.49,1191.98 1983.74,1191.74 1990,1191.51 1996.25,1191.29 2002.51,1191.06 2008.76,1190.83 2015.02,1190.59 2021.27,1190.35 2027.53,1190.13 2033.78,1189.91 2040.03,1189.68 2046.29,1189.45 2052.54,1189.22 2058.8,1189 2065.05,1188.78 2071.31,1188.57 2077.56,1188.36 2083.82,1188.14 2090.07,1187.92 2096.33,1187.72 2102.58,1187.52 2108.84,1187.32 2115.09,1187.12 2121.35,1186.92 2127.6,1186.72 2133.85,1186.53 2140.11,1186.35 2146.36,1186.18 2152.62,1186 2158.87,1185.83 2165.13,1185.65 2171.38,1185.48 2177.64,1185.33 2183.89,1185.19 2190.15,1185.05 2196.4,1184.9 2202.66,1184.75 2208.91,1184.61 2215.17,1184.48 2221.42,1184.37 2227.68,1184.27 2233.93,1184.16 2240.18,1184.05 2246.44,1183.93 2252.69,1183.83 2258.95,1183.76 2265.2,1183.7 2271.46,1183.63 2277.71,1183.56 2283.97,1183.49 2290.22,1183.42 2296.48,1183.38 2302.73,1183.36 2308.99,1183.34 2315.24,1183.31 2321.5,1183.27 2327.75,1183.24 2334,1183.24 2340.26,1183.26 2346.51,1183.28 2352.77,1183.3 2359.02,1183.3 2365.28,1183.31 2371.53,1183.34 2377.79,1183.4 2384.04,1183.47 2390.3,1183.52 2396.55,1183.57 2402.81,1183.62 2409.06,1183.67 2415.32,1183.77 2421.57,1183.88 2427.83,1183.98 2434.08,1184.08 2440.33,1184.16 2446.59,1184.24 2452.84,1184.35 2459.1,1184.5 2465.35,1184.65 2471.61,1184.78 2477.86,1184.9 2484.12,1185.02 2490.37,1185.14 2496.63,1185.32 2502.88,1185.5 2509.14,1185.67 2515.39,1185.83 2521.65,1185.97 2527.9,1186.13 2534.15,1186.32 2540.41,1186.53 2546.66,1186.73 2552.92,1186.91 2559.17,1187.09 2565.43,1187.27 2571.68,1187.47 2577.94,1187.7 2584.19,1187.92 2590.45,1188.13 2596.7,1188.33 2602.96,1188.53 2609.21,1188.75 2615.47,1188.99 2621.72,1189.22 2627.97,1189.45 2634.23,1189.66 2640.48,1189.88 2646.74,1190.11 2652.99,1190.36 2659.25,1190.6 2665.5,1190.84 2671.76,1191.07 2678.01,1191.3 2684.27,1191.54 "/>
<path clip-path="url(#clip290)" d="M2085.22 353.624 L2672.09 353.624 L2672.09 146.264 L2085.22 146.264  Z" fill="#ffffff" fill-rule="evenodd" fill-opacity="1"/>
<polyline clip-path="url(#clip290)" style="stroke:#000000; stroke-linecap:round; stroke-linejoin:round; stroke-width:4; stroke-opacity:1; fill:none" points="2085.22,353.624 2672.09,353.624 2672.09,146.264 2085.22,146.264 2085.22,353.624 "/>
<polyline clip-path="url(#clip290)" style="stroke:#4682b4; stroke-linecap:round; stroke-linejoin:round; stroke-width:8; stroke-opacity:1; fill:none" points="2112.1,198.104 2273.43,198.104 "/>
<path clip-path="url(#clip290)" d="M2300.32 180.824 L2305.02 180.824 L2305.02 201.819 Q2305.02 207.375 2307.03 209.828 Q2309.05 212.259 2313.56 212.259 Q2318.05 212.259 2320.07 209.828 Q2322.08 207.375 2322.08 201.819 L2322.08 180.824 L2326.78 180.824 L2326.78 202.398 Q2326.78 209.157 2323.42 212.606 Q2320.09 216.055 2313.56 216.055 Q2307.01 216.055 2303.65 212.606 Q2300.32 209.157 2300.32 202.398 L2300.32 180.824 Z" fill="#000000" fill-rule="nonzero" fill-opacity="1" /><path clip-path="url(#clip290)" d="M2350.39 193.439 Q2349.67 193.023 2348.82 192.838 Q2347.98 192.629 2346.96 192.629 Q2343.35 192.629 2341.41 194.99 Q2339.49 197.328 2339.49 201.726 L2339.49 215.384 L2335.2 215.384 L2335.2 189.458 L2339.49 189.458 L2339.49 193.486 Q2340.83 191.125 2342.98 189.99 Q2345.14 188.833 2348.21 188.833 Q2348.65 188.833 2349.19 188.902 Q2349.72 188.949 2350.37 189.064 L2350.39 193.439 Z" fill="#000000" fill-rule="nonzero" fill-opacity="1" /><path clip-path="url(#clip290)" d="M2373.47 202.444 Q2373.47 197.745 2371.52 195.083 Q2369.6 192.398 2366.22 192.398 Q2362.84 192.398 2360.9 195.083 Q2358.98 197.745 2358.98 202.444 Q2358.98 207.143 2360.9 209.828 Q2362.84 212.49 2366.22 212.49 Q2369.6 212.49 2371.52 209.828 Q2373.47 207.143 2373.47 202.444 M2358.98 193.393 Q2360.32 191.078 2362.36 189.967 Q2364.42 188.833 2367.26 188.833 Q2371.99 188.833 2374.93 192.583 Q2377.89 196.333 2377.89 202.444 Q2377.89 208.555 2374.93 212.305 Q2371.99 216.055 2367.26 216.055 Q2364.42 216.055 2362.36 214.944 Q2360.32 213.81 2358.98 211.495 L2358.98 215.384 L2354.7 215.384 L2354.7 179.365 L2358.98 179.365 L2358.98 193.393 Z" fill="#000000" fill-rule="nonzero" fill-opacity="1" /><path clip-path="url(#clip290)" d="M2396.73 202.351 Q2391.57 202.351 2389.58 203.532 Q2387.59 204.712 2387.59 207.56 Q2387.59 209.828 2389.07 211.171 Q2390.57 212.49 2393.14 212.49 Q2396.69 212.49 2398.82 209.99 Q2400.97 207.467 2400.97 203.3 L2400.97 202.351 L2396.73 202.351 M2405.23 200.592 L2405.23 215.384 L2400.97 215.384 L2400.97 211.449 Q2399.51 213.81 2397.33 214.944 Q2395.16 216.055 2392.01 216.055 Q2388.03 216.055 2385.67 213.833 Q2383.33 211.587 2383.33 207.837 Q2383.33 203.462 2386.25 201.24 Q2389.19 199.018 2395 199.018 L2400.97 199.018 L2400.97 198.601 Q2400.97 195.662 2399.02 194.064 Q2397.1 192.444 2393.61 192.444 Q2391.39 192.444 2389.28 192.976 Q2387.17 193.509 2385.23 194.574 L2385.23 190.638 Q2387.57 189.736 2389.76 189.296 Q2391.96 188.833 2394.05 188.833 Q2399.67 188.833 2402.45 191.75 Q2405.23 194.666 2405.23 200.592 Z" fill="#000000" fill-rule="nonzero" fill-opacity="1" /><path clip-path="url(#clip290)" d="M2435.55 199.736 L2435.55 215.384 L2431.29 215.384 L2431.29 199.875 Q2431.29 196.194 2429.86 194.365 Q2428.42 192.537 2425.55 192.537 Q2422.1 192.537 2420.11 194.736 Q2418.12 196.935 2418.12 200.731 L2418.12 215.384 L2413.84 215.384 L2413.84 189.458 L2418.12 189.458 L2418.12 193.486 Q2419.65 191.148 2421.71 189.99 Q2423.79 188.833 2426.5 188.833 Q2430.97 188.833 2433.26 191.611 Q2435.55 194.365 2435.55 199.736 Z" fill="#000000" fill-rule="nonzero" fill-opacity="1" /><path clip-path="url(#clip290)" d="M2469.35 179.412 Q2466.25 184.736 2464.74 189.944 Q2463.24 195.152 2463.24 200.5 Q2463.24 205.847 2464.74 211.101 Q2466.27 216.333 2469.35 221.634 L2465.64 221.634 Q2462.17 216.194 2460.44 210.939 Q2458.72 205.685 2458.72 200.5 Q2458.72 195.338 2460.44 190.106 Q2462.15 184.875 2465.64 179.412 L2469.35 179.412 Z" fill="#000000" fill-rule="nonzero" fill-opacity="1" /><path clip-path="url(#clip290)" d="M2478.26 180.824 L2496.62 180.824 L2496.62 184.759 L2482.54 184.759 L2482.54 193.231 Q2483.56 192.884 2484.58 192.722 Q2485.6 192.537 2486.62 192.537 Q2492.4 192.537 2495.78 195.708 Q2499.16 198.879 2499.16 204.296 Q2499.16 209.874 2495.69 212.976 Q2492.22 216.055 2485.9 216.055 Q2483.72 216.055 2481.45 215.685 Q2479.21 215.314 2476.8 214.574 L2476.8 209.874 Q2478.88 211.009 2481.11 211.564 Q2483.33 212.12 2485.81 212.12 Q2489.81 212.12 2492.15 210.013 Q2494.49 207.907 2494.49 204.296 Q2494.49 200.685 2492.15 198.578 Q2489.81 196.472 2485.81 196.472 Q2483.93 196.472 2482.06 196.888 Q2480.2 197.305 2478.26 198.185 L2478.26 180.824 Z" fill="#000000" fill-rule="nonzero" fill-opacity="1" /><path clip-path="url(#clip290)" d="M2507.96 180.824 L2514.93 180.824 L2523.75 204.342 L2532.61 180.824 L2539.58 180.824 L2539.58 215.384 L2535.02 215.384 L2535.02 185.037 L2526.11 208.74 L2521.41 208.74 L2512.5 185.037 L2512.5 215.384 L2507.96 215.384 L2507.96 180.824 Z" fill="#000000" fill-rule="nonzero" fill-opacity="1" /><path clip-path="url(#clip290)" d="M2548 179.412 L2551.71 179.412 Q2555.18 184.875 2556.89 190.106 Q2558.63 195.338 2558.63 200.5 Q2558.63 205.685 2556.89 210.939 Q2555.18 216.194 2551.71 221.634 L2548 221.634 Q2551.08 216.333 2552.59 211.101 Q2554.12 205.847 2554.12 200.5 Q2554.12 195.152 2552.59 189.944 Q2551.08 184.736 2548 179.412 Z" fill="#000000" fill-rule="nonzero" fill-opacity="1" /><polyline clip-path="url(#clip290)" style="stroke:#ffa500; stroke-linecap:round; stroke-linejoin:round; stroke-width:8; stroke-opacity:1; fill:none" points="2112.1,249.944 2273.43,249.944 "/>
<path clip-path="url(#clip290)" d="M2322.57 233.798 L2322.57 238.358 Q2319.9 237.085 2317.54 236.46 Q2315.18 235.835 2312.98 235.835 Q2309.16 235.835 2307.08 237.316 Q2305.02 238.798 2305.02 241.529 Q2305.02 243.821 2306.39 245.002 Q2307.77 246.159 2311.62 246.877 L2314.44 247.455 Q2319.67 248.451 2322.15 250.974 Q2324.65 253.474 2324.65 257.687 Q2324.65 262.71 2321.27 265.302 Q2317.91 267.895 2311.41 267.895 Q2308.95 267.895 2306.18 267.339 Q2303.42 266.784 2300.46 265.696 L2300.46 260.881 Q2303.31 262.478 2306.04 263.289 Q2308.77 264.099 2311.41 264.099 Q2315.41 264.099 2317.59 262.525 Q2319.77 260.951 2319.77 258.034 Q2319.77 255.488 2318.19 254.052 Q2316.64 252.617 2313.08 251.9 L2310.23 251.344 Q2305 250.303 2302.66 248.08 Q2300.32 245.858 2300.32 241.9 Q2300.32 237.316 2303.54 234.678 Q2306.78 232.039 2312.45 232.039 Q2314.88 232.039 2317.4 232.479 Q2319.93 232.918 2322.57 233.798 Z" fill="#000000" fill-rule="nonzero" fill-opacity="1" /><path clip-path="url(#clip290)" d="M2331.32 256.992 L2331.32 241.298 L2335.58 241.298 L2335.58 256.83 Q2335.58 260.511 2337.01 262.363 Q2338.45 264.191 2341.32 264.191 Q2344.76 264.191 2346.76 261.992 Q2348.77 259.793 2348.77 255.997 L2348.77 241.298 L2353.03 241.298 L2353.03 267.224 L2348.77 267.224 L2348.77 263.242 Q2347.22 265.603 2345.16 266.761 Q2343.12 267.895 2340.41 267.895 Q2335.95 267.895 2333.63 265.117 Q2331.32 262.339 2331.32 256.992 M2342.03 240.673 L2342.03 240.673 Z" fill="#000000" fill-rule="nonzero" fill-opacity="1" /><path clip-path="url(#clip290)" d="M2380.41 254.284 Q2380.41 249.585 2378.47 246.923 Q2376.55 244.238 2373.17 244.238 Q2369.79 244.238 2367.84 246.923 Q2365.92 249.585 2365.92 254.284 Q2365.92 258.983 2367.84 261.668 Q2369.79 264.33 2373.17 264.33 Q2376.55 264.33 2378.47 261.668 Q2380.41 258.983 2380.41 254.284 M2365.92 245.233 Q2367.26 242.918 2369.3 241.807 Q2371.36 240.673 2374.21 240.673 Q2378.93 240.673 2381.87 244.423 Q2384.83 248.173 2384.83 254.284 Q2384.83 260.395 2381.87 264.145 Q2378.93 267.895 2374.21 267.895 Q2371.36 267.895 2369.3 266.784 Q2367.26 265.65 2365.92 263.335 L2365.92 267.224 L2361.64 267.224 L2361.64 231.205 L2365.92 231.205 L2365.92 245.233 Z" fill="#000000" fill-rule="nonzero" fill-opacity="1" /><path clip-path="url(#clip290)" d="M2391.45 256.992 L2391.45 241.298 L2395.71 241.298 L2395.71 256.83 Q2395.71 260.511 2397.15 262.363 Q2398.58 264.191 2401.45 264.191 Q2404.9 264.191 2406.89 261.992 Q2408.91 259.793 2408.91 255.997 L2408.91 241.298 L2413.17 241.298 L2413.17 267.224 L2408.91 267.224 L2408.91 263.242 Q2407.36 265.603 2405.3 266.761 Q2403.26 267.895 2400.55 267.895 Q2396.08 267.895 2393.77 265.117 Q2391.45 262.339 2391.45 256.992 M2402.17 240.673 L2402.17 240.673 Z" fill="#000000" fill-rule="nonzero" fill-opacity="1" /><path clip-path="url(#clip290)" d="M2436.96 245.279 Q2436.25 244.863 2435.39 244.678 Q2434.56 244.469 2433.54 244.469 Q2429.93 244.469 2427.98 246.83 Q2426.06 249.168 2426.06 253.566 L2426.06 267.224 L2421.78 267.224 L2421.78 241.298 L2426.06 241.298 L2426.06 245.326 Q2427.4 242.965 2429.56 241.83 Q2431.71 240.673 2434.79 240.673 Q2435.23 240.673 2435.76 240.742 Q2436.29 240.789 2436.94 240.904 L2436.96 245.279 Z" fill="#000000" fill-rule="nonzero" fill-opacity="1" /><path clip-path="url(#clip290)" d="M2460.04 254.284 Q2460.04 249.585 2458.1 246.923 Q2456.18 244.238 2452.8 244.238 Q2449.42 244.238 2447.47 246.923 Q2445.55 249.585 2445.55 254.284 Q2445.55 258.983 2447.47 261.668 Q2449.42 264.33 2452.8 264.33 Q2456.18 264.33 2458.1 261.668 Q2460.04 258.983 2460.04 254.284 M2445.55 245.233 Q2446.89 242.918 2448.93 241.807 Q2450.99 240.673 2453.84 240.673 Q2458.56 240.673 2461.5 244.423 Q2464.46 248.173 2464.46 254.284 Q2464.46 260.395 2461.5 264.145 Q2458.56 267.895 2453.84 267.895 Q2450.99 267.895 2448.93 266.784 Q2446.89 265.65 2445.55 263.335 L2445.55 267.224 L2441.27 267.224 L2441.27 231.205 L2445.55 231.205 L2445.55 245.233 Z" fill="#000000" fill-rule="nonzero" fill-opacity="1" /><path clip-path="url(#clip290)" d="M2483.31 254.191 Q2478.14 254.191 2476.15 255.372 Q2474.16 256.552 2474.16 259.4 Q2474.16 261.668 2475.64 263.011 Q2477.15 264.33 2479.72 264.33 Q2483.26 264.33 2485.39 261.83 Q2487.54 259.307 2487.54 255.14 L2487.54 254.191 L2483.31 254.191 M2491.8 252.432 L2491.8 267.224 L2487.54 267.224 L2487.54 263.289 Q2486.08 265.65 2483.91 266.784 Q2481.73 267.895 2478.58 267.895 Q2474.6 267.895 2472.24 265.673 Q2469.9 263.427 2469.9 259.677 Q2469.9 255.302 2472.82 253.08 Q2475.76 250.858 2481.57 250.858 L2487.54 250.858 L2487.54 250.441 Q2487.54 247.502 2485.6 245.904 Q2483.68 244.284 2480.18 244.284 Q2477.96 244.284 2475.85 244.816 Q2473.75 245.349 2471.8 246.414 L2471.8 242.478 Q2474.14 241.576 2476.34 241.136 Q2478.54 240.673 2480.62 240.673 Q2486.25 240.673 2489.02 243.59 Q2491.8 246.506 2491.8 252.432 Z" fill="#000000" fill-rule="nonzero" fill-opacity="1" /><path clip-path="url(#clip290)" d="M2522.13 251.576 L2522.13 267.224 L2517.87 267.224 L2517.87 251.715 Q2517.87 248.034 2516.43 246.205 Q2515 244.377 2512.13 244.377 Q2508.68 244.377 2506.69 246.576 Q2504.69 248.775 2504.69 252.571 L2504.69 267.224 L2500.41 267.224 L2500.41 241.298 L2504.69 241.298 L2504.69 245.326 Q2506.22 242.988 2508.28 241.83 Q2510.37 240.673 2513.07 240.673 Q2517.54 240.673 2519.83 243.451 Q2522.13 246.205 2522.13 251.576 Z" fill="#000000" fill-rule="nonzero" fill-opacity="1" /><path clip-path="url(#clip290)" d="M2555.92 231.252 Q2552.82 236.576 2551.31 241.784 Q2549.81 246.992 2549.81 252.34 Q2549.81 257.687 2551.31 262.941 Q2552.84 268.173 2555.92 273.474 L2552.22 273.474 Q2548.75 268.034 2547.01 262.779 Q2545.3 257.525 2545.3 252.34 Q2545.3 247.178 2547.01 241.946 Q2548.72 236.715 2552.22 231.252 L2555.92 231.252 Z" fill="#000000" fill-rule="nonzero" fill-opacity="1" /><path clip-path="url(#clip290)" d="M2578.95 248.59 Q2582.31 249.307 2584.18 251.576 Q2586.08 253.844 2586.08 257.177 Q2586.08 262.293 2582.56 265.094 Q2579.05 267.895 2572.56 267.895 Q2570.39 267.895 2568.07 267.455 Q2565.78 267.039 2563.33 266.182 L2563.33 261.668 Q2565.27 262.802 2567.59 263.381 Q2569.9 263.96 2572.43 263.96 Q2576.82 263.96 2579.12 262.224 Q2581.43 260.488 2581.43 257.177 Q2581.43 254.122 2579.28 252.409 Q2577.15 250.673 2573.33 250.673 L2569.3 250.673 L2569.3 246.83 L2573.51 246.83 Q2576.96 246.83 2578.79 245.465 Q2580.62 244.076 2580.62 241.483 Q2580.62 238.821 2578.72 237.409 Q2576.85 235.974 2573.33 235.974 Q2571.41 235.974 2569.21 236.391 Q2567.01 236.807 2564.37 237.687 L2564.37 233.52 Q2567.03 232.779 2569.35 232.409 Q2571.69 232.039 2573.75 232.039 Q2579.07 232.039 2582.17 234.469 Q2585.27 236.877 2585.27 240.997 Q2585.27 243.867 2583.63 245.858 Q2581.99 247.826 2578.95 248.59 Z" fill="#000000" fill-rule="nonzero" fill-opacity="1" /><path clip-path="url(#clip290)" d="M2594.53 232.664 L2601.5 232.664 L2610.32 256.182 L2619.18 232.664 L2626.15 232.664 L2626.15 267.224 L2621.59 267.224 L2621.59 236.877 L2612.68 260.58 L2607.98 260.58 L2599.07 236.877 L2599.07 267.224 L2594.53 267.224 L2594.53 232.664 Z" fill="#000000" fill-rule="nonzero" fill-opacity="1" /><path clip-path="url(#clip290)" d="M2634.58 231.252 L2638.28 231.252 Q2641.75 236.715 2643.47 241.946 Q2645.2 247.178 2645.2 252.34 Q2645.2 257.525 2643.47 262.779 Q2641.75 268.034 2638.28 273.474 L2634.58 273.474 Q2637.66 268.173 2639.16 262.941 Q2640.69 257.687 2640.69 252.34 Q2640.69 246.992 2639.16 241.784 Q2637.66 236.576 2634.58 231.252 Z" fill="#000000" fill-rule="nonzero" fill-opacity="1" /><polyline clip-path="url(#clip290)" style="stroke:#008000; stroke-linecap:round; stroke-linejoin:round; stroke-width:8; stroke-opacity:1; fill:none" points="2112.1,301.784 2273.43,301.784 "/>
<path clip-path="url(#clip290)" d="M2316.71 302.86 Q2318.21 303.369 2319.63 305.036 Q2321.06 306.703 2322.5 309.619 L2327.24 319.064 L2322.22 319.064 L2317.8 310.198 Q2316.08 306.726 2314.46 305.592 Q2312.87 304.457 2310.09 304.457 L2305 304.457 L2305 319.064 L2300.32 319.064 L2300.32 284.504 L2310.88 284.504 Q2316.8 284.504 2319.72 286.981 Q2322.64 289.457 2322.64 294.457 Q2322.64 297.721 2321.11 299.874 Q2319.6 302.027 2316.71 302.86 M2305 288.346 L2305 300.615 L2310.88 300.615 Q2314.26 300.615 2315.97 299.064 Q2317.7 297.49 2317.7 294.457 Q2317.7 291.425 2315.97 289.897 Q2314.26 288.346 2310.88 288.346 L2305 288.346 Z" fill="#000000" fill-rule="nonzero" fill-opacity="1" /><path clip-path="url(#clip290)" d="M2330.51 308.832 L2330.51 293.138 L2334.77 293.138 L2334.77 308.67 Q2334.77 312.351 2336.2 314.203 Q2337.64 316.031 2340.51 316.031 Q2343.95 316.031 2345.95 313.832 Q2347.96 311.633 2347.96 307.837 L2347.96 293.138 L2352.22 293.138 L2352.22 319.064 L2347.96 319.064 L2347.96 315.082 Q2346.41 317.443 2344.35 318.601 Q2342.31 319.735 2339.6 319.735 Q2335.14 319.735 2332.82 316.957 Q2330.51 314.179 2330.51 308.832 M2341.22 292.513 L2341.22 292.513 Z" fill="#000000" fill-rule="nonzero" fill-opacity="1" /><path clip-path="url(#clip290)" d="M2376.01 297.119 Q2375.3 296.703 2374.44 296.518 Q2373.61 296.309 2372.59 296.309 Q2368.98 296.309 2367.03 298.67 Q2365.11 301.008 2365.11 305.406 L2365.11 319.064 L2360.83 319.064 L2360.83 293.138 L2365.11 293.138 L2365.11 297.166 Q2366.45 294.805 2368.61 293.67 Q2370.76 292.513 2373.84 292.513 Q2374.28 292.513 2374.81 292.582 Q2375.34 292.629 2375.99 292.744 L2376.01 297.119 Z" fill="#000000" fill-rule="nonzero" fill-opacity="1" /><path clip-path="url(#clip290)" d="M2392.26 306.031 Q2387.1 306.031 2385.11 307.212 Q2383.12 308.392 2383.12 311.24 Q2383.12 313.508 2384.6 314.851 Q2386.11 316.17 2388.68 316.17 Q2392.22 316.17 2394.35 313.67 Q2396.5 311.147 2396.5 306.98 L2396.5 306.031 L2392.26 306.031 M2400.76 304.272 L2400.76 319.064 L2396.5 319.064 L2396.5 315.129 Q2395.04 317.49 2392.87 318.624 Q2390.69 319.735 2387.54 319.735 Q2383.56 319.735 2381.2 317.513 Q2378.86 315.267 2378.86 311.517 Q2378.86 307.142 2381.78 304.92 Q2384.72 302.698 2390.53 302.698 L2396.5 302.698 L2396.5 302.281 Q2396.5 299.342 2394.56 297.744 Q2392.64 296.124 2389.14 296.124 Q2386.92 296.124 2384.81 296.656 Q2382.7 297.189 2380.76 298.254 L2380.76 294.318 Q2383.1 293.416 2385.3 292.976 Q2387.5 292.513 2389.58 292.513 Q2395.2 292.513 2397.98 295.43 Q2400.76 298.346 2400.76 304.272 Z" fill="#000000" fill-rule="nonzero" fill-opacity="1" /><path clip-path="url(#clip290)" d="M2409.53 283.045 L2413.79 283.045 L2413.79 319.064 L2409.53 319.064 L2409.53 283.045 Z" fill="#000000" fill-rule="nonzero" fill-opacity="1" /><path clip-path="url(#clip290)" d="M2448.01 283.092 Q2444.9 288.416 2443.4 293.624 Q2441.89 298.832 2441.89 304.18 Q2441.89 309.527 2443.4 314.781 Q2444.93 320.013 2448.01 325.314 L2444.3 325.314 Q2440.83 319.874 2439.09 314.619 Q2437.38 309.365 2437.38 304.18 Q2437.38 299.018 2439.09 293.786 Q2440.81 288.555 2444.3 283.092 L2448.01 283.092 Z" fill="#000000" fill-rule="nonzero" fill-opacity="1" /><path clip-path="url(#clip290)" d="M2457.68 315.129 L2465.32 315.129 L2465.32 288.763 L2457.01 290.43 L2457.01 286.17 L2465.27 284.504 L2469.95 284.504 L2469.95 315.129 L2477.59 315.129 L2477.59 319.064 L2457.68 319.064 L2457.68 315.129 Z" fill="#000000" fill-rule="nonzero" fill-opacity="1" /><path clip-path="url(#clip290)" d="M2486.62 284.504 L2493.58 284.504 L2502.4 308.022 L2511.27 284.504 L2518.24 284.504 L2518.24 319.064 L2513.68 319.064 L2513.68 288.717 L2504.76 312.42 L2500.07 312.42 L2491.15 288.717 L2491.15 319.064 L2486.62 319.064 L2486.62 284.504 Z" fill="#000000" fill-rule="nonzero" fill-opacity="1" /><path clip-path="url(#clip290)" d="M2526.66 283.092 L2530.37 283.092 Q2533.84 288.555 2535.55 293.786 Q2537.29 299.018 2537.29 304.18 Q2537.29 309.365 2535.55 314.619 Q2533.84 319.874 2530.37 325.314 L2526.66 325.314 Q2529.74 320.013 2531.25 314.781 Q2532.77 309.527 2532.77 304.18 Q2532.77 298.832 2531.25 293.624 Q2529.74 288.416 2526.66 283.092 Z" fill="#000000" fill-rule="nonzero" fill-opacity="1" /></svg>
