<?xml version="1.0" encoding="utf-8"?>
<svg xmlns="http://www.w3.org/2000/svg" xmlns:xlink="http://www.w3.org/1999/xlink" width="672" height="480" viewBox="0 0 2688 1920">
<defs>
  <clipPath id="clip940">
    <rect x="0" y="0" width="2688" height="1920"/>
  </clipPath>
</defs>
<path clip-path="url(#clip940)" d="M0 1920 L2688 1920 L2688 -4.26326e-14 L0 -4.26326e-14  Z" fill="#ffffff" fill-rule="evenodd" fill-opacity="1"/>
<defs>
  <clipPath id="clip941">
    <rect x="268" y="127" width="2373" height="1607"/>
  </clipPath>
</defs>
<path clip-path="url(#clip940)" d="M268.826 1734.12 L2640.76 1734.12 L2640.76 127.792 L268.826 127.792  Z" fill="#ffffff" fill-rule="evenodd" fill-opacity="1"/>
<polyline clip-path="url(#clip941)" style="stroke:#000000; stroke-linecap:round; stroke-linejoin:round; stroke-width:2; stroke-opacity:0.1; fill:none" points="335.956,1734.12 335.956,127.792 "/>
<polyline clip-path="url(#clip941)" style="stroke:#000000; stroke-linecap:round; stroke-linejoin:round; stroke-width:2; stroke-opacity:0.1; fill:none" points="895.373,1734.12 895.373,127.792 "/>
<polyline clip-path="url(#clip941)" style="stroke:#000000; stroke-linecap:round; stroke-linejoin:round; stroke-width:2; stroke-opacity:0.1; fill:none" points="1454.79,1734.12 1454.79,127.792 "/>
<polyline clip-path="url(#clip941)" style="stroke:#000000; stroke-linecap:round; stroke-linejoin:round; stroke-width:2; stroke-opacity:0.1; fill:none" points="2014.21,1734.12 2014.21,127.792 "/>
<polyline clip-path="url(#clip941)" style="stroke:#000000; stroke-linecap:round; stroke-linejoin:round; stroke-width:2; stroke-opacity:0.1; fill:none" points="2573.63,1734.12 2573.63,127.792 "/>
<polyline clip-path="url(#clip941)" style="stroke:#000000; stroke-linecap:round; stroke-linejoin:round; stroke-width:2; stroke-opacity:0.1; fill:none" points="268.826,1688.65 2640.76,1688.65 "/>
<polyline clip-path="url(#clip941)" style="stroke:#000000; stroke-linecap:round; stroke-linejoin:round; stroke-width:2; stroke-opacity:0.1; fill:none" points="268.826,1307.17 2640.76,1307.17 "/>
<polyline clip-path="url(#clip941)" style="stroke:#000000; stroke-linecap:round; stroke-linejoin:round; stroke-width:2; stroke-opacity:0.1; fill:none" points="268.826,925.686 2640.76,925.686 "/>
<polyline clip-path="url(#clip941)" style="stroke:#000000; stroke-linecap:round; stroke-linejoin:round; stroke-width:2; stroke-opacity:0.1; fill:none" points="268.826,544.202 2640.76,544.202 "/>
<polyline clip-path="url(#clip941)" style="stroke:#000000; stroke-linecap:round; stroke-linejoin:round; stroke-width:2; stroke-opacity:0.1; fill:none" points="268.826,162.718 2640.76,162.718 "/>
<polyline clip-path="url(#clip940)" style="stroke:#000000; stroke-linecap:round; stroke-linejoin:round; stroke-width:4; stroke-opacity:1; fill:none" points="268.826,1734.12 2640.76,1734.12 "/>
<polyline clip-path="url(#clip940)" style="stroke:#000000; stroke-linecap:round; stroke-linejoin:round; stroke-width:4; stroke-opacity:1; fill:none" points="335.956,1734.12 335.956,1715.22 "/>
<polyline clip-path="url(#clip940)" style="stroke:#000000; stroke-linecap:round; stroke-linejoin:round; stroke-width:4; stroke-opacity:1; fill:none" points="895.373,1734.12 895.373,1715.22 "/>
<polyline clip-path="url(#clip940)" style="stroke:#000000; stroke-linecap:round; stroke-linejoin:round; stroke-width:4; stroke-opacity:1; fill:none" points="1454.79,1734.12 1454.79,1715.22 "/>
<polyline clip-path="url(#clip940)" style="stroke:#000000; stroke-linecap:round; stroke-linejoin:round; stroke-width:4; stroke-opacity:1; fill:none" points="2014.21,1734.12 2014.21,1715.22 "/>
<polyline clip-path="url(#clip940)" style="stroke:#000000; stroke-linecap:round; stroke-linejoin:round; stroke-width:4; stroke-opacity:1; fill:none" points="2573.63,1734.12 2573.63,1715.22 "/>
<path clip-path="url(#clip940)" d="M335.956 1767.34 Q332.345 1767.34 330.516 1770.9 Q328.71 1774.45 328.71 1781.58 Q328.71 1788.68 330.516 1792.25 Q332.345 1795.79 335.956 1795.79 Q339.59 1795.79 341.395 1792.25 Q343.224 1788.68 343.224 1781.58 Q343.224 1774.45 341.395 1770.9 Q339.59 1767.34 335.956 1767.34 M335.956 1763.64 Q341.766 1763.64 344.821 1768.24 Q347.9 1772.83 347.9 1781.58 Q347.9 1790.3 344.821 1794.91 Q341.766 1799.49 335.956 1799.49 Q330.145 1799.49 327.067 1794.91 Q324.011 1790.3 324.011 1781.58 Q324.011 1772.83 327.067 1768.24 Q330.145 1763.64 335.956 1763.64 Z" fill="#000000" fill-rule="nonzero" fill-opacity="1" /><path clip-path="url(#clip940)" d="M870.072 1764.26 L888.429 1764.26 L888.429 1768.2 L874.355 1768.2 L874.355 1776.67 Q875.373 1776.32 876.392 1776.16 Q877.41 1775.97 878.429 1775.97 Q884.216 1775.97 887.595 1779.15 Q890.975 1782.32 890.975 1787.73 Q890.975 1793.31 887.503 1796.41 Q884.031 1799.49 877.711 1799.49 Q875.535 1799.49 873.267 1799.12 Q871.021 1798.75 868.614 1798.01 L868.614 1793.31 Q870.697 1794.45 872.92 1795 Q875.142 1795.56 877.619 1795.56 Q881.623 1795.56 883.961 1793.45 Q886.299 1791.34 886.299 1787.73 Q886.299 1784.12 883.961 1782.02 Q881.623 1779.91 877.619 1779.91 Q875.744 1779.91 873.869 1780.33 Q872.017 1780.74 870.072 1781.62 L870.072 1764.26 Z" fill="#000000" fill-rule="nonzero" fill-opacity="1" /><path clip-path="url(#clip940)" d="M910.188 1767.34 Q906.577 1767.34 904.748 1770.9 Q902.943 1774.45 902.943 1781.58 Q902.943 1788.68 904.748 1792.25 Q906.577 1795.79 910.188 1795.79 Q913.822 1795.79 915.628 1792.25 Q917.456 1788.68 917.456 1781.58 Q917.456 1774.45 915.628 1770.9 Q913.822 1767.34 910.188 1767.34 M910.188 1763.64 Q915.998 1763.64 919.054 1768.24 Q922.132 1772.83 922.132 1781.58 Q922.132 1790.3 919.054 1794.91 Q915.998 1799.49 910.188 1799.49 Q904.378 1799.49 901.299 1794.91 Q898.244 1790.3 898.244 1781.58 Q898.244 1772.83 901.299 1768.24 Q904.378 1763.64 910.188 1763.64 Z" fill="#000000" fill-rule="nonzero" fill-opacity="1" /><path clip-path="url(#clip940)" d="M1414.4 1794.89 L1422.04 1794.89 L1422.04 1768.52 L1413.73 1770.19 L1413.73 1765.93 L1421.99 1764.26 L1426.67 1764.26 L1426.67 1794.89 L1434.3 1794.89 L1434.3 1798.82 L1414.4 1798.82 L1414.4 1794.89 Z" fill="#000000" fill-rule="nonzero" fill-opacity="1" /><path clip-path="url(#clip940)" d="M1453.75 1767.34 Q1450.14 1767.34 1448.31 1770.9 Q1446.5 1774.45 1446.5 1781.58 Q1446.5 1788.68 1448.31 1792.25 Q1450.14 1795.79 1453.75 1795.79 Q1457.38 1795.79 1459.19 1792.25 Q1461.02 1788.68 1461.02 1781.58 Q1461.02 1774.45 1459.19 1770.9 Q1457.38 1767.34 1453.75 1767.34 M1453.75 1763.64 Q1459.56 1763.64 1462.61 1768.24 Q1465.69 1772.83 1465.69 1781.58 Q1465.69 1790.3 1462.61 1794.91 Q1459.56 1799.49 1453.75 1799.49 Q1447.94 1799.49 1444.86 1794.91 Q1441.8 1790.3 1441.8 1781.58 Q1441.8 1772.83 1444.86 1768.24 Q1447.94 1763.64 1453.75 1763.64 Z" fill="#000000" fill-rule="nonzero" fill-opacity="1" /><path clip-path="url(#clip940)" d="M1483.91 1767.34 Q1480.3 1767.34 1478.47 1770.9 Q1476.67 1774.45 1476.67 1781.58 Q1476.67 1788.68 1478.47 1792.25 Q1480.3 1795.79 1483.91 1795.79 Q1487.55 1795.79 1489.35 1792.25 Q1491.18 1788.68 1491.18 1781.58 Q1491.18 1774.45 1489.35 1770.9 Q1487.55 1767.34 1483.91 1767.34 M1483.91 1763.64 Q1489.72 1763.64 1492.78 1768.24 Q1495.86 1772.83 1495.86 1781.58 Q1495.86 1790.3 1492.78 1794.91 Q1489.72 1799.49 1483.91 1799.49 Q1478.1 1799.49 1475.02 1794.91 Q1471.97 1790.3 1471.97 1781.58 Q1471.97 1772.83 1475.02 1768.24 Q1478.1 1763.64 1483.91 1763.64 Z" fill="#000000" fill-rule="nonzero" fill-opacity="1" /><path clip-path="url(#clip940)" d="M1973.81 1794.89 L1981.45 1794.89 L1981.45 1768.52 L1973.14 1770.19 L1973.14 1765.93 L1981.41 1764.26 L1986.08 1764.26 L1986.08 1794.89 L1993.72 1794.89 L1993.72 1798.82 L1973.81 1798.82 L1973.81 1794.89 Z" fill="#000000" fill-rule="nonzero" fill-opacity="1" /><path clip-path="url(#clip940)" d="M2003.21 1764.26 L2021.57 1764.26 L2021.57 1768.2 L2007.5 1768.2 L2007.5 1776.67 Q2008.51 1776.32 2009.53 1776.16 Q2010.55 1775.97 2011.57 1775.97 Q2017.36 1775.97 2020.74 1779.15 Q2024.12 1782.32 2024.12 1787.73 Q2024.12 1793.31 2020.64 1796.41 Q2017.17 1799.49 2010.85 1799.49 Q2008.68 1799.49 2006.41 1799.12 Q2004.16 1798.75 2001.75 1798.01 L2001.75 1793.31 Q2003.84 1794.45 2006.06 1795 Q2008.28 1795.56 2010.76 1795.56 Q2014.76 1795.56 2017.1 1793.45 Q2019.44 1791.34 2019.44 1787.73 Q2019.44 1784.12 2017.1 1782.02 Q2014.76 1779.91 2010.76 1779.91 Q2008.88 1779.91 2007.01 1780.33 Q2005.16 1780.74 2003.21 1781.62 L2003.21 1764.26 Z" fill="#000000" fill-rule="nonzero" fill-opacity="1" /><path clip-path="url(#clip940)" d="M2043.33 1767.34 Q2039.72 1767.34 2037.89 1770.9 Q2036.08 1774.45 2036.08 1781.58 Q2036.08 1788.68 2037.89 1792.25 Q2039.72 1795.79 2043.33 1795.79 Q2046.96 1795.79 2048.77 1792.25 Q2050.6 1788.68 2050.6 1781.58 Q2050.6 1774.45 2048.77 1770.9 Q2046.96 1767.34 2043.33 1767.34 M2043.33 1763.64 Q2049.14 1763.64 2052.19 1768.24 Q2055.27 1772.83 2055.27 1781.58 Q2055.27 1790.3 2052.19 1794.91 Q2049.14 1799.49 2043.33 1799.49 Q2037.52 1799.49 2034.44 1794.91 Q2031.38 1790.3 2031.38 1781.58 Q2031.38 1772.83 2034.44 1768.24 Q2037.52 1763.64 2043.33 1763.64 Z" fill="#000000" fill-rule="nonzero" fill-opacity="1" /><path clip-path="url(#clip940)" d="M2537.32 1794.89 L2553.64 1794.89 L2553.64 1798.82 L2531.69 1798.82 L2531.69 1794.89 Q2534.36 1792.13 2538.94 1787.5 Q2543.54 1782.85 2544.73 1781.51 Q2546.97 1778.98 2547.85 1777.25 Q2548.75 1775.49 2548.75 1773.8 Q2548.75 1771.04 2546.81 1769.31 Q2544.89 1767.57 2541.79 1767.57 Q2539.59 1767.57 2537.13 1768.34 Q2534.7 1769.1 2531.92 1770.65 L2531.92 1765.93 Q2534.75 1764.79 2537.2 1764.21 Q2539.66 1763.64 2541.69 1763.64 Q2547.06 1763.64 2550.26 1766.32 Q2553.45 1769.01 2553.45 1773.5 Q2553.45 1775.63 2552.64 1777.55 Q2551.86 1779.45 2549.75 1782.04 Q2549.17 1782.71 2546.07 1785.93 Q2542.97 1789.12 2537.32 1794.89 Z" fill="#000000" fill-rule="nonzero" fill-opacity="1" /><path clip-path="url(#clip940)" d="M2573.45 1767.34 Q2569.84 1767.34 2568.01 1770.9 Q2566.21 1774.45 2566.21 1781.58 Q2566.21 1788.68 2568.01 1792.25 Q2569.84 1795.79 2573.45 1795.79 Q2577.09 1795.79 2578.89 1792.25 Q2580.72 1788.68 2580.72 1781.58 Q2580.72 1774.45 2578.89 1770.9 Q2577.09 1767.34 2573.45 1767.34 M2573.45 1763.64 Q2579.26 1763.64 2582.32 1768.24 Q2585.4 1772.83 2585.4 1781.58 Q2585.4 1790.3 2582.32 1794.91 Q2579.26 1799.49 2573.45 1799.49 Q2567.64 1799.49 2564.56 1794.91 Q2561.51 1790.3 2561.51 1781.58 Q2561.51 1772.83 2564.56 1768.24 Q2567.64 1763.64 2573.45 1763.64 Z" fill="#000000" fill-rule="nonzero" fill-opacity="1" /><path clip-path="url(#clip940)" d="M2603.61 1767.34 Q2600 1767.34 2598.17 1770.9 Q2596.37 1774.45 2596.37 1781.58 Q2596.37 1788.68 2598.17 1792.25 Q2600 1795.79 2603.61 1795.79 Q2607.25 1795.79 2609.05 1792.25 Q2610.88 1788.68 2610.88 1781.58 Q2610.88 1774.45 2609.05 1770.9 Q2607.25 1767.34 2603.61 1767.34 M2603.61 1763.64 Q2609.42 1763.64 2612.48 1768.24 Q2615.56 1772.83 2615.56 1781.58 Q2615.56 1790.3 2612.48 1794.91 Q2609.42 1799.49 2603.61 1799.49 Q2597.8 1799.49 2594.73 1794.91 Q2591.67 1790.3 2591.67 1781.58 Q2591.67 1772.83 2594.73 1768.24 Q2597.8 1763.64 2603.61 1763.64 Z" fill="#000000" fill-rule="nonzero" fill-opacity="1" /><path clip-path="url(#clip940)" d="M1376.67 1835.78 L1416.87 1835.78 L1416.87 1841.19 L1400 1841.19 L1400 1883.3 L1393.54 1883.3 L1393.54 1841.19 L1376.67 1841.19 L1376.67 1835.78 Z" fill="#000000" fill-rule="nonzero" fill-opacity="1" /><path clip-path="url(#clip940)" d="M1420.81 1847.65 L1426.67 1847.65 L1426.67 1883.3 L1420.81 1883.3 L1420.81 1847.65 M1420.81 1833.78 L1426.67 1833.78 L1426.67 1841.19 L1420.81 1841.19 L1420.81 1833.78 Z" fill="#000000" fill-rule="nonzero" fill-opacity="1" /><path clip-path="url(#clip940)" d="M1466.68 1854.5 Q1468.87 1850.55 1471.93 1848.67 Q1474.99 1846.79 1479.12 1846.79 Q1484.69 1846.79 1487.72 1850.71 Q1490.74 1854.59 1490.74 1861.78 L1490.74 1883.3 L1484.85 1883.3 L1484.85 1861.98 Q1484.85 1856.85 1483.04 1854.37 Q1481.22 1851.89 1477.5 1851.89 Q1472.95 1851.89 1470.31 1854.91 Q1467.67 1857.93 1467.67 1863.15 L1467.67 1883.3 L1461.78 1883.3 L1461.78 1861.98 Q1461.78 1856.82 1459.96 1854.37 Q1458.15 1851.89 1454.36 1851.89 Q1449.87 1851.89 1447.23 1854.94 Q1444.59 1857.97 1444.59 1863.15 L1444.59 1883.3 L1438.7 1883.3 L1438.7 1847.65 L1444.59 1847.65 L1444.59 1853.19 Q1446.59 1849.91 1449.4 1848.35 Q1452.2 1846.79 1456.05 1846.79 Q1459.93 1846.79 1462.64 1848.77 Q1465.37 1850.74 1466.68 1854.5 Z" fill="#000000" fill-rule="nonzero" fill-opacity="1" /><path clip-path="url(#clip940)" d="M1532.91 1864.01 L1532.91 1866.88 L1505.99 1866.88 Q1506.37 1872.92 1509.62 1876.11 Q1512.89 1879.26 1518.72 1879.26 Q1522.09 1879.26 1525.24 1878.43 Q1528.43 1877.6 1531.55 1875.95 L1531.55 1881.49 Q1528.39 1882.82 1525.08 1883.52 Q1521.77 1884.22 1518.37 1884.22 Q1509.84 1884.22 1504.84 1879.26 Q1499.88 1874.29 1499.88 1865.83 Q1499.88 1857.07 1504.59 1851.95 Q1509.33 1846.79 1517.35 1846.79 Q1524.54 1846.79 1528.71 1851.44 Q1532.91 1856.06 1532.91 1864.01 M1527.06 1862.29 Q1526.99 1857.49 1524.35 1854.62 Q1521.74 1851.76 1517.41 1851.76 Q1512.51 1851.76 1509.55 1854.53 Q1506.62 1857.3 1506.18 1862.33 L1527.06 1862.29 Z" fill="#000000" fill-rule="nonzero" fill-opacity="1" /><polyline clip-path="url(#clip940)" style="stroke:#000000; stroke-linecap:round; stroke-linejoin:round; stroke-width:4; stroke-opacity:1; fill:none" points="268.826,1734.12 268.826,127.792 "/>
<polyline clip-path="url(#clip940)" style="stroke:#000000; stroke-linecap:round; stroke-linejoin:round; stroke-width:4; stroke-opacity:1; fill:none" points="268.826,1688.65 287.723,1688.65 "/>
<polyline clip-path="url(#clip940)" style="stroke:#000000; stroke-linecap:round; stroke-linejoin:round; stroke-width:4; stroke-opacity:1; fill:none" points="268.826,1307.17 287.723,1307.17 "/>
<polyline clip-path="url(#clip940)" style="stroke:#000000; stroke-linecap:round; stroke-linejoin:round; stroke-width:4; stroke-opacity:1; fill:none" points="268.826,925.686 287.723,925.686 "/>
<polyline clip-path="url(#clip940)" style="stroke:#000000; stroke-linecap:round; stroke-linejoin:round; stroke-width:4; stroke-opacity:1; fill:none" points="268.826,544.202 287.723,544.202 "/>
<polyline clip-path="url(#clip940)" style="stroke:#000000; stroke-linecap:round; stroke-linejoin:round; stroke-width:4; stroke-opacity:1; fill:none" points="268.826,162.718 287.723,162.718 "/>
<path clip-path="url(#clip940)" d="M216.561 1674.45 Q212.95 1674.45 211.121 1678.02 Q209.316 1681.56 209.316 1688.69 Q209.316 1695.8 211.121 1699.36 Q212.95 1702.9 216.561 1702.9 Q220.195 1702.9 222.001 1699.36 Q223.83 1695.8 223.83 1688.69 Q223.83 1681.56 222.001 1678.02 Q220.195 1674.45 216.561 1674.45 M216.561 1670.75 Q222.371 1670.75 225.427 1675.36 Q228.506 1679.94 228.506 1688.69 Q228.506 1697.42 225.427 1702.02 Q222.371 1706.61 216.561 1706.61 Q210.751 1706.61 207.672 1702.02 Q204.617 1697.42 204.617 1688.69 Q204.617 1679.94 207.672 1675.36 Q210.751 1670.75 216.561 1670.75 Z" fill="#000000" fill-rule="nonzero" fill-opacity="1" /><path clip-path="url(#clip940)" d="M150.265 1320.52 L166.585 1320.52 L166.585 1324.45 L144.64 1324.45 L144.64 1320.52 Q147.302 1317.76 151.886 1313.13 Q156.492 1308.48 157.673 1307.14 Q159.918 1304.61 160.798 1302.88 Q161.7 1301.12 161.7 1299.43 Q161.7 1296.67 159.756 1294.94 Q157.835 1293.2 154.733 1293.2 Q152.534 1293.2 150.08 1293.96 Q147.649 1294.73 144.872 1296.28 L144.872 1291.56 Q147.696 1290.42 150.149 1289.84 Q152.603 1289.27 154.64 1289.27 Q160.011 1289.27 163.205 1291.95 Q166.399 1294.64 166.399 1299.13 Q166.399 1301.26 165.589 1303.18 Q164.802 1305.08 162.696 1307.67 Q162.117 1308.34 159.015 1311.56 Q155.913 1314.75 150.265 1320.52 Z" fill="#000000" fill-rule="nonzero" fill-opacity="1" /><path clip-path="url(#clip940)" d="M176.446 1289.89 L194.802 1289.89 L194.802 1293.83 L180.728 1293.83 L180.728 1302.3 Q181.746 1301.95 182.765 1301.79 Q183.784 1301.6 184.802 1301.6 Q190.589 1301.6 193.969 1304.77 Q197.348 1307.95 197.348 1313.36 Q197.348 1318.94 193.876 1322.04 Q190.404 1325.12 184.084 1325.12 Q181.909 1325.12 179.64 1324.75 Q177.395 1324.38 174.987 1323.64 L174.987 1318.94 Q177.071 1320.08 179.293 1320.63 Q181.515 1321.19 183.992 1321.19 Q187.996 1321.19 190.334 1319.08 Q192.672 1316.97 192.672 1313.36 Q192.672 1309.75 190.334 1307.65 Q187.996 1305.54 183.992 1305.54 Q182.117 1305.54 180.242 1305.96 Q178.39 1306.37 176.446 1307.25 L176.446 1289.89 Z" fill="#000000" fill-rule="nonzero" fill-opacity="1" /><path clip-path="url(#clip940)" d="M216.561 1292.97 Q212.95 1292.97 211.121 1296.53 Q209.316 1300.08 209.316 1307.21 Q209.316 1314.31 211.121 1317.88 Q212.95 1321.42 216.561 1321.42 Q220.195 1321.42 222.001 1317.88 Q223.83 1314.31 223.83 1307.21 Q223.83 1300.08 222.001 1296.53 Q220.195 1292.97 216.561 1292.97 M216.561 1289.27 Q222.371 1289.27 225.427 1293.87 Q228.506 1298.46 228.506 1307.21 Q228.506 1315.93 225.427 1320.54 Q222.371 1325.12 216.561 1325.12 Q210.751 1325.12 207.672 1320.54 Q204.617 1315.93 204.617 1307.21 Q204.617 1298.46 207.672 1293.87 Q210.751 1289.27 216.561 1289.27 Z" fill="#000000" fill-rule="nonzero" fill-opacity="1" /><path clip-path="url(#clip940)" d="M146.284 908.406 L164.64 908.406 L164.64 912.341 L150.566 912.341 L150.566 920.814 Q151.585 920.466 152.603 920.304 Q153.622 920.119 154.64 920.119 Q160.427 920.119 163.807 923.291 Q167.186 926.462 167.186 931.878 Q167.186 937.457 163.714 940.559 Q160.242 943.638 153.923 943.638 Q151.747 943.638 149.478 943.267 Q147.233 942.897 144.825 942.156 L144.825 937.457 Q146.909 938.591 149.131 939.147 Q151.353 939.702 153.83 939.702 Q157.835 939.702 160.173 937.596 Q162.51 935.49 162.51 931.878 Q162.51 928.267 160.173 926.161 Q157.835 924.054 153.83 924.054 Q151.955 924.054 150.08 924.471 Q148.228 924.888 146.284 925.767 L146.284 908.406 Z" fill="#000000" fill-rule="nonzero" fill-opacity="1" /><path clip-path="url(#clip940)" d="M186.399 911.485 Q182.788 911.485 180.959 915.05 Q179.154 918.591 179.154 925.721 Q179.154 932.827 180.959 936.392 Q182.788 939.934 186.399 939.934 Q190.033 939.934 191.839 936.392 Q193.668 932.827 193.668 925.721 Q193.668 918.591 191.839 915.05 Q190.033 911.485 186.399 911.485 M186.399 907.781 Q192.209 907.781 195.265 912.388 Q198.344 916.971 198.344 925.721 Q198.344 934.448 195.265 939.054 Q192.209 943.638 186.399 943.638 Q180.589 943.638 177.51 939.054 Q174.455 934.448 174.455 925.721 Q174.455 916.971 177.51 912.388 Q180.589 907.781 186.399 907.781 Z" fill="#000000" fill-rule="nonzero" fill-opacity="1" /><path clip-path="url(#clip940)" d="M216.561 911.485 Q212.95 911.485 211.121 915.05 Q209.316 918.591 209.316 925.721 Q209.316 932.827 211.121 936.392 Q212.95 939.934 216.561 939.934 Q220.195 939.934 222.001 936.392 Q223.83 932.827 223.83 925.721 Q223.83 918.591 222.001 915.05 Q220.195 911.485 216.561 911.485 M216.561 907.781 Q222.371 907.781 225.427 912.388 Q228.506 916.971 228.506 925.721 Q228.506 934.448 225.427 939.054 Q222.371 943.638 216.561 943.638 Q210.751 943.638 207.672 939.054 Q204.617 934.448 204.617 925.721 Q204.617 916.971 207.672 912.388 Q210.751 907.781 216.561 907.781 Z" fill="#000000" fill-rule="nonzero" fill-opacity="1" /><path clip-path="url(#clip940)" d="M145.057 526.922 L167.279 526.922 L167.279 528.913 L154.733 561.482 L149.849 561.482 L161.654 530.857 L145.057 530.857 L145.057 526.922 Z" fill="#000000" fill-rule="nonzero" fill-opacity="1" /><path clip-path="url(#clip940)" d="M176.446 526.922 L194.802 526.922 L194.802 530.857 L180.728 530.857 L180.728 539.329 Q181.746 538.982 182.765 538.82 Q183.784 538.635 184.802 538.635 Q190.589 538.635 193.969 541.806 Q197.348 544.977 197.348 550.394 Q197.348 555.973 193.876 559.075 Q190.404 562.153 184.084 562.153 Q181.909 562.153 179.64 561.783 Q177.395 561.413 174.987 560.672 L174.987 555.973 Q177.071 557.107 179.293 557.663 Q181.515 558.218 183.992 558.218 Q187.996 558.218 190.334 556.112 Q192.672 554.005 192.672 550.394 Q192.672 546.783 190.334 544.677 Q187.996 542.57 183.992 542.57 Q182.117 542.57 180.242 542.987 Q178.39 543.403 176.446 544.283 L176.446 526.922 Z" fill="#000000" fill-rule="nonzero" fill-opacity="1" /><path clip-path="url(#clip940)" d="M216.561 530.001 Q212.95 530.001 211.121 533.565 Q209.316 537.107 209.316 544.237 Q209.316 551.343 211.121 554.908 Q212.95 558.45 216.561 558.45 Q220.195 558.45 222.001 554.908 Q223.83 551.343 223.83 544.237 Q223.83 537.107 222.001 533.565 Q220.195 530.001 216.561 530.001 M216.561 526.297 Q222.371 526.297 225.427 530.903 Q228.506 535.487 228.506 544.237 Q228.506 552.964 225.427 557.57 Q222.371 562.153 216.561 562.153 Q210.751 562.153 207.672 557.57 Q204.617 552.964 204.617 544.237 Q204.617 535.487 207.672 530.903 Q210.751 526.297 216.561 526.297 Z" fill="#000000" fill-rule="nonzero" fill-opacity="1" /><path clip-path="url(#clip940)" d="M116.886 176.063 L124.525 176.063 L124.525 149.697 L116.214 151.364 L116.214 147.104 L124.478 145.438 L129.154 145.438 L129.154 176.063 L136.793 176.063 L136.793 179.998 L116.886 179.998 L116.886 176.063 Z" fill="#000000" fill-rule="nonzero" fill-opacity="1" /><path clip-path="url(#clip940)" d="M156.237 148.516 Q152.626 148.516 150.798 152.081 Q148.992 155.623 148.992 162.752 Q148.992 169.859 150.798 173.424 Q152.626 176.965 156.237 176.965 Q159.872 176.965 161.677 173.424 Q163.506 169.859 163.506 162.752 Q163.506 155.623 161.677 152.081 Q159.872 148.516 156.237 148.516 M156.237 144.813 Q162.048 144.813 165.103 149.419 Q168.182 154.002 168.182 162.752 Q168.182 171.479 165.103 176.086 Q162.048 180.669 156.237 180.669 Q150.427 180.669 147.349 176.086 Q144.293 171.479 144.293 162.752 Q144.293 154.002 147.349 149.419 Q150.427 144.813 156.237 144.813 Z" fill="#000000" fill-rule="nonzero" fill-opacity="1" /><path clip-path="url(#clip940)" d="M186.399 148.516 Q182.788 148.516 180.959 152.081 Q179.154 155.623 179.154 162.752 Q179.154 169.859 180.959 173.424 Q182.788 176.965 186.399 176.965 Q190.033 176.965 191.839 173.424 Q193.668 169.859 193.668 162.752 Q193.668 155.623 191.839 152.081 Q190.033 148.516 186.399 148.516 M186.399 144.813 Q192.209 144.813 195.265 149.419 Q198.344 154.002 198.344 162.752 Q198.344 171.479 195.265 176.086 Q192.209 180.669 186.399 180.669 Q180.589 180.669 177.51 176.086 Q174.455 171.479 174.455 162.752 Q174.455 154.002 177.51 149.419 Q180.589 144.813 186.399 144.813 Z" fill="#000000" fill-rule="nonzero" fill-opacity="1" /><path clip-path="url(#clip940)" d="M216.561 148.516 Q212.95 148.516 211.121 152.081 Q209.316 155.623 209.316 162.752 Q209.316 169.859 211.121 173.424 Q212.95 176.965 216.561 176.965 Q220.195 176.965 222.001 173.424 Q223.83 169.859 223.83 162.752 Q223.83 155.623 222.001 152.081 Q220.195 148.516 216.561 148.516 M216.561 144.813 Q222.371 144.813 225.427 149.419 Q228.506 154.002 228.506 162.752 Q228.506 171.479 225.427 176.086 Q222.371 180.669 216.561 180.669 Q210.751 180.669 207.672 176.086 Q204.617 171.479 204.617 162.752 Q204.617 154.002 207.672 149.419 Q210.751 144.813 216.561 144.813 Z" fill="#000000" fill-rule="nonzero" fill-opacity="1" /><path clip-path="url(#clip940)" d="M19.402 1089.79 L37.2578 1089.79 L37.2578 1081.71 Q37.2578 1077.22 34.9343 1074.77 Q32.6108 1072.32 28.314 1072.32 Q24.0489 1072.32 21.7255 1074.77 Q19.402 1077.22 19.402 1081.71 L19.402 1089.79 M14.1184 1096.22 L14.1184 1081.71 Q14.1184 1073.72 17.7469 1069.65 Q21.3435 1065.54 28.314 1065.54 Q35.3481 1065.54 38.9447 1069.65 Q42.5413 1073.72 42.5413 1081.71 L42.5413 1089.79 L61.6384 1089.79 L61.6384 1096.22 L14.1184 1096.22 Z" fill="#000000" fill-rule="nonzero" fill-opacity="1" /><path clip-path="url(#clip940)" d="M30.0964 1045.68 Q30.0964 1050.39 33.7885 1053.13 Q37.4488 1055.87 43.8463 1055.87 Q50.2438 1055.87 53.9359 1053.16 Q57.5962 1050.42 57.5962 1045.68 Q57.5962 1041 53.9041 1038.26 Q50.212 1035.53 43.8463 1035.53 Q37.5124 1035.53 33.8203 1038.26 Q30.0964 1041 30.0964 1045.68 M25.1311 1045.68 Q25.1311 1038.04 30.0964 1033.68 Q35.0616 1029.32 43.8463 1029.32 Q52.5991 1029.32 57.5962 1033.68 Q62.5615 1038.04 62.5615 1045.68 Q62.5615 1053.35 57.5962 1057.71 Q52.5991 1062.04 43.8463 1062.04 Q35.0616 1062.04 30.0964 1057.71 Q25.1311 1053.35 25.1311 1045.68 Z" fill="#000000" fill-rule="nonzero" fill-opacity="1" /><path clip-path="url(#clip940)" d="M56.2912 1013.95 L75.1974 1013.95 L75.1974 1019.84 L25.9905 1019.84 L25.9905 1013.95 L31.4013 1013.95 Q28.2185 1012.1 26.6907 1009.3 Q25.1311 1006.47 25.1311 1002.55 Q25.1311 996.06 30.2873 992.018 Q35.4436 987.944 43.8463 987.944 Q52.249 987.944 57.4052 992.018 Q62.5615 996.06 62.5615 1002.55 Q62.5615 1006.47 61.0337 1009.3 Q59.4741 1012.1 56.2912 1013.95 M43.8463 994.023 Q37.3851 994.023 33.7248 996.696 Q30.0327 999.338 30.0327 1003.99 Q30.0327 1008.63 33.7248 1011.31 Q37.3851 1013.95 43.8463 1013.95 Q50.3075 1013.95 53.9996 1011.31 Q57.6599 1008.63 57.6599 1003.99 Q57.6599 999.338 53.9996 996.696 Q50.3075 994.023 43.8463 994.023 Z" fill="#000000" fill-rule="nonzero" fill-opacity="1" /><path clip-path="url(#clip940)" d="M47.5702 978.841 L25.9905 978.841 L25.9905 972.984 L47.3474 972.984 Q52.4082 972.984 54.9545 971.011 Q57.4689 969.037 57.4689 965.091 Q57.4689 960.348 54.4452 957.611 Q51.4215 954.842 46.2016 954.842 L25.9905 954.842 L25.9905 948.985 L61.6384 948.985 L61.6384 954.842 L56.1639 954.842 Q59.4104 956.974 61.0019 959.807 Q62.5615 962.608 62.5615 966.332 Q62.5615 972.475 58.742 975.658 Q54.9226 978.841 47.5702 978.841 M25.1311 964.104 L25.1311 964.104 Z" fill="#000000" fill-rule="nonzero" fill-opacity="1" /><path clip-path="url(#clip940)" d="M12.1132 936.922 L12.1132 931.066 L61.6384 931.066 L61.6384 936.922 L12.1132 936.922 Z" fill="#000000" fill-rule="nonzero" fill-opacity="1" /><path clip-path="url(#clip940)" d="M43.719 902.611 Q43.719 909.709 45.3422 912.446 Q46.9655 915.184 50.8804 915.184 Q53.9996 915.184 55.8457 913.146 Q57.6599 911.078 57.6599 907.545 Q57.6599 902.675 54.2224 899.747 Q50.7531 896.787 45.0239 896.787 L43.719 896.787 L43.719 902.611 M41.3 890.93 L61.6384 890.93 L61.6384 896.787 L56.2276 896.787 Q59.4741 898.792 61.0337 901.784 Q62.5615 904.776 62.5615 909.104 Q62.5615 914.579 59.5059 917.825 Q56.4186 921.04 51.2623 921.04 Q45.2467 921.04 42.1912 917.03 Q39.1357 912.987 39.1357 904.998 L39.1357 896.787 L38.5628 896.787 Q34.5205 896.787 32.3244 899.46 Q30.0964 902.102 30.0964 906.908 Q30.0964 909.964 30.8284 912.86 Q31.5605 915.756 33.0246 918.43 L27.6137 918.43 Q26.3724 915.215 25.7677 912.192 Q25.1311 909.168 25.1311 906.303 Q25.1311 898.569 29.1415 894.75 Q33.1519 890.93 41.3 890.93 Z" fill="#000000" fill-rule="nonzero" fill-opacity="1" /><path clip-path="url(#clip940)" d="M15.869 873.074 L25.9905 873.074 L25.9905 861.011 L30.542 861.011 L30.542 873.074 L49.8937 873.074 Q54.2542 873.074 55.4955 871.897 Q56.7368 870.687 56.7368 867.027 L56.7368 861.011 L61.6384 861.011 L61.6384 867.027 Q61.6384 873.806 59.124 876.385 Q56.5777 878.963 49.8937 878.963 L30.542 878.963 L30.542 883.259 L25.9905 883.259 L25.9905 878.963 L15.869 878.963 L15.869 873.074 Z" fill="#000000" fill-rule="nonzero" fill-opacity="1" /><path clip-path="url(#clip940)" d="M25.9905 853.309 L25.9905 847.452 L61.6384 847.452 L61.6384 853.309 L25.9905 853.309 M12.1132 853.309 L12.1132 847.452 L19.5293 847.452 L19.5293 853.309 L12.1132 853.309 Z" fill="#000000" fill-rule="nonzero" fill-opacity="1" /><path clip-path="url(#clip940)" d="M30.0964 821.385 Q30.0964 826.095 33.7885 828.833 Q37.4488 831.57 43.8463 831.57 Q50.2438 831.57 53.9359 828.865 Q57.5962 826.127 57.5962 821.385 Q57.5962 816.706 53.9041 813.969 Q50.212 811.232 43.8463 811.232 Q37.5124 811.232 33.8203 813.969 Q30.0964 816.706 30.0964 821.385 M25.1311 821.385 Q25.1311 813.746 30.0964 809.385 Q35.0616 805.025 43.8463 805.025 Q52.5991 805.025 57.5962 809.385 Q62.5615 813.746 62.5615 821.385 Q62.5615 829.056 57.5962 833.416 Q52.5991 837.745 43.8463 837.745 Q35.0616 837.745 30.0964 833.416 Q25.1311 829.056 25.1311 821.385 Z" fill="#000000" fill-rule="nonzero" fill-opacity="1" /><path clip-path="url(#clip940)" d="M40.1224 765.685 L61.6384 765.685 L61.6384 771.541 L40.3133 771.541 Q35.2526 771.541 32.7381 773.515 Q30.2237 775.488 30.2237 779.435 Q30.2237 784.177 33.2474 786.915 Q36.2711 789.652 41.491 789.652 L61.6384 789.652 L61.6384 795.54 L25.9905 795.54 L25.9905 789.652 L31.5287 789.652 Q28.314 787.551 26.7225 784.718 Q25.1311 781.854 25.1311 778.13 Q25.1311 771.987 28.9505 768.836 Q32.7381 765.685 40.1224 765.685 Z" fill="#000000" fill-rule="nonzero" fill-opacity="1" /><path clip-path="url(#clip940)" d="M1191.24 14.0809 L1191.24 22.0612 Q1186.58 19.8332 1182.45 18.7395 Q1178.32 17.6457 1174.47 17.6457 Q1167.78 17.6457 1164.14 20.2383 Q1160.53 22.8309 1160.53 27.611 Q1160.53 31.6214 1162.92 33.6873 Q1165.35 35.7128 1172.08 36.9686 L1177.02 37.9813 Q1186.18 39.7232 1190.51 44.1387 Q1194.88 48.5136 1194.88 55.8863 Q1194.88 64.6767 1188.97 69.2137 Q1183.1 73.7508 1171.71 73.7508 Q1167.42 73.7508 1162.56 72.7785 Q1157.74 71.8063 1152.55 69.9024 L1152.55 61.4765 Q1157.54 64.2716 1162.32 65.6895 Q1167.1 67.1073 1171.71 67.1073 Q1178.72 67.1073 1182.53 64.3527 Q1186.34 61.598 1186.34 56.4939 Q1186.34 52.0379 1183.58 49.5264 Q1180.87 47.0148 1174.63 45.759 L1169.65 44.7868 Q1160.49 42.9639 1156.4 39.075 Q1152.31 35.1862 1152.31 28.2591 Q1152.31 20.2383 1157.94 15.6203 Q1163.61 11.0023 1173.54 11.0023 Q1177.79 11.0023 1182.21 11.7719 Q1186.62 12.5416 1191.24 14.0809 Z" fill="#000000" fill-rule="nonzero" fill-opacity="1" /><path clip-path="url(#clip940)" d="M1207.65 12.096 L1215.83 12.096 L1215.83 72.576 L1207.65 72.576 L1207.65 12.096 Z" fill="#000000" fill-rule="nonzero" fill-opacity="1" /><path clip-path="url(#clip940)" d="M1260.79 44.2197 Q1263.43 45.1109 1265.9 48.0275 Q1268.41 50.9442 1270.92 56.0483 L1279.22 72.576 L1270.43 72.576 L1262.7 57.061 Q1259.7 50.9847 1256.86 48.9997 Q1254.07 47.0148 1249.21 47.0148 L1240.3 47.0148 L1240.3 72.576 L1232.11 72.576 L1232.11 12.096 L1250.58 12.096 Q1260.95 12.096 1266.06 16.4305 Q1271.16 20.7649 1271.16 29.5149 Q1271.16 35.2267 1268.49 38.994 Q1265.86 42.7613 1260.79 44.2197 M1240.3 18.8205 L1240.3 40.2903 L1250.58 40.2903 Q1256.5 40.2903 1259.5 37.5762 Q1262.53 34.8216 1262.53 29.5149 Q1262.53 24.2082 1259.5 21.5346 Q1256.5 18.8205 1250.58 18.8205 L1240.3 18.8205 Z" fill="#000000" fill-rule="nonzero" fill-opacity="1" /><path clip-path="url(#clip940)" d="M1340.68 17.6457 Q1331.76 17.6457 1326.5 24.2892 Q1321.27 30.9327 1321.27 42.3968 Q1321.27 53.8203 1326.5 60.4638 Q1331.76 67.1073 1340.68 67.1073 Q1349.59 67.1073 1354.77 60.4638 Q1360 53.8203 1360 42.3968 Q1360 30.9327 1354.77 24.2892 Q1349.59 17.6457 1340.68 17.6457 M1340.68 11.0023 Q1353.4 11.0023 1361.01 19.5497 Q1368.63 28.0566 1368.63 42.3968 Q1368.63 56.6965 1361.01 65.2439 Q1353.4 73.7508 1340.68 73.7508 Q1327.92 73.7508 1320.26 65.2439 Q1312.64 56.737 1312.64 42.3968 Q1312.64 28.0566 1320.26 19.5497 Q1327.92 11.0023 1340.68 11.0023 Z" fill="#000000" fill-rule="nonzero" fill-opacity="1" /><path clip-path="url(#clip940)" d="M1389.61 18.8205 L1389.61 65.8515 L1399.5 65.8515 Q1412.01 65.8515 1417.81 60.1802 Q1423.64 54.509 1423.64 42.2752 Q1423.64 30.1225 1417.81 24.4918 Q1412.01 18.8205 1399.5 18.8205 L1389.61 18.8205 M1381.43 12.096 L1398.24 12.096 Q1415.82 12.096 1424.04 19.4281 Q1432.27 26.7198 1432.27 42.2752 Q1432.27 57.9117 1424 65.2439 Q1415.74 72.576 1398.24 72.576 L1381.43 72.576 L1381.43 12.096 Z" fill="#000000" fill-rule="nonzero" fill-opacity="1" /><path clip-path="url(#clip940)" d="M1445.31 12.096 L1483.55 12.096 L1483.55 18.9825 L1453.49 18.9825 L1453.49 36.8875 L1482.3 36.8875 L1482.3 43.7741 L1453.49 43.7741 L1453.49 65.6895 L1484.28 65.6895 L1484.28 72.576 L1445.31 72.576 L1445.31 12.096 Z" fill="#000000" fill-rule="nonzero" fill-opacity="1" /><path clip-path="url(#clip940)" d="M1524.1 12.096 L1536.29 12.096 L1551.73 53.2532 L1567.24 12.096 L1579.44 12.096 L1579.44 72.576 L1571.46 72.576 L1571.46 19.4686 L1555.86 60.9499 L1547.64 60.9499 L1532.04 19.4686 L1532.04 72.576 L1524.1 72.576 L1524.1 12.096 Z" fill="#000000" fill-rule="nonzero" fill-opacity="1" /><path clip-path="url(#clip940)" d="M1612.94 32.4315 Q1606.94 32.4315 1603.46 37.1306 Q1599.98 41.7891 1599.98 49.9314 Q1599.98 58.0738 1603.42 62.7728 Q1606.9 67.4314 1612.94 67.4314 Q1618.89 67.4314 1622.38 62.7323 Q1625.86 58.0333 1625.86 49.9314 Q1625.86 41.8701 1622.38 37.1711 Q1618.89 32.4315 1612.94 32.4315 M1612.94 26.1121 Q1622.66 26.1121 1628.21 32.4315 Q1633.76 38.7509 1633.76 49.9314 Q1633.76 61.0714 1628.21 67.4314 Q1622.66 73.7508 1612.94 73.7508 Q1603.18 73.7508 1597.63 67.4314 Q1592.12 61.0714 1592.12 49.9314 Q1592.12 38.7509 1597.63 32.4315 Q1603.18 26.1121 1612.94 26.1121 Z" fill="#000000" fill-rule="nonzero" fill-opacity="1" /><path clip-path="url(#clip940)" d="M1675.97 34.0924 L1675.97 9.54393 L1683.42 9.54393 L1683.42 72.576 L1675.97 72.576 L1675.97 65.7705 Q1673.62 69.8214 1670.02 71.8063 Q1666.45 73.7508 1661.43 73.7508 Q1653.2 73.7508 1648.02 67.1883 Q1642.87 60.6258 1642.87 49.9314 Q1642.87 39.2371 1648.02 32.6746 Q1653.2 26.1121 1661.43 26.1121 Q1666.45 26.1121 1670.02 28.0971 Q1673.62 30.0415 1675.97 34.0924 M1650.57 49.9314 Q1650.57 58.1548 1653.93 62.8538 Q1657.34 67.5124 1663.25 67.5124 Q1669.16 67.5124 1672.57 62.8538 Q1675.97 58.1548 1675.97 49.9314 Q1675.97 41.7081 1672.57 37.0496 Q1669.16 32.3505 1663.25 32.3505 Q1657.34 32.3505 1653.93 37.0496 Q1650.57 41.7081 1650.57 49.9314 Z" fill="#000000" fill-rule="nonzero" fill-opacity="1" /><path clip-path="url(#clip940)" d="M1737.58 48.0275 L1737.58 51.6733 L1703.31 51.6733 Q1703.8 59.3701 1707.93 63.421 Q1712.1 67.4314 1719.52 67.4314 Q1723.81 67.4314 1727.82 66.3781 Q1731.87 65.3249 1735.84 63.2184 L1735.84 70.267 Q1731.83 71.9684 1727.62 72.8596 Q1723.41 73.7508 1719.07 73.7508 Q1708.22 73.7508 1701.86 67.4314 Q1695.54 61.1119 1695.54 50.3365 Q1695.54 39.1965 1701.53 32.6746 Q1707.57 26.1121 1717.78 26.1121 Q1726.93 26.1121 1732.24 32.0264 Q1737.58 37.9003 1737.58 48.0275 M1730.13 45.84 Q1730.05 39.7232 1726.69 36.0774 Q1723.37 32.4315 1717.86 32.4315 Q1711.62 32.4315 1707.85 35.9558 Q1704.12 39.4801 1703.56 45.8805 L1730.13 45.84 Z" fill="#000000" fill-rule="nonzero" fill-opacity="1" /><path clip-path="url(#clip940)" d="M1749.82 9.54393 L1757.27 9.54393 L1757.27 72.576 L1749.82 72.576 L1749.82 9.54393 Z" fill="#000000" fill-rule="nonzero" fill-opacity="1" /><polyline clip-path="url(#clip941)" style="stroke:#009af9; stroke-linecap:round; stroke-linejoin:round; stroke-width:8; stroke-opacity:1; fill:none" points="335.956,177.977 347.144,187.207 358.332,200.759 369.521,220.497 380.709,248.906 391.897,289.107 403.086,344.653 414.274,418.935 425.462,514.077 436.651,629.477 447.839,760.669 459.027,899.465 470.216,1035.86 481.404,1160.9 492.593,1268.82 503.781,1357.61 514.969,1428.18 526.158,1483.02 537.346,1525.09 548.534,1557.2 559.723,1581.73 570.911,1600.55 582.099,1615.08 593.288,1626.41 604.476,1635.31 615.664,1642.38 626.853,1648.05 638.041,1652.63 649.229,1656.37 660.418,1659.45 671.606,1662.01 682.794,1664.15 693.983,1665.95 705.171,1667.47 716.36,1668.77 727.548,1669.89 738.736,1670.85 749.925,1671.68 761.113,1672.4 772.301,1673.03 783.49,1673.58 794.678,1674.07 805.866,1674.5 817.055,1674.87 828.243,1675.21 839.431,1675.51 850.62,1675.77 861.808,1676.01 872.996,1676.22 884.185,1676.4 895.373,1676.57 906.562,1676.72 917.75,1676.86 928.938,1676.98 940.127,1677.09 951.315,1677.19 962.503,1677.28 973.692,1677.36 984.88,1677.43 996.068,1677.49 1007.26,1677.55 1018.45,1677.61 1029.63,1677.66 1040.82,1677.7 1052.01,1677.74 1063.2,1677.77 1074.39,1677.81 1085.58,1677.83 1096.76,1677.86 1107.95,1677.89 1119.14,1677.91 1130.33,1677.93 1141.52,1677.94 1152.71,1677.96 1163.89,1677.98 1175.08,1677.99 1186.27,1678 1197.46,1678.01 1208.65,1678.02 1219.84,1678.03 1231.02,1678.04 1242.21,1678.05 1253.4,1678.05 1264.59,1678.06 1275.78,1678.06 1286.97,1678.07 1298.15,1678.07 1309.34,1678.08 1320.53,1678.08 1331.72,1678.08 1342.91,1678.09 1354.1,1678.09 1365.28,1678.09 1376.47,1678.1 1387.66,1678.1 1398.85,1678.1 1410.04,1678.1 1421.23,1678.1 1432.41,1678.1 1443.6,1678.11 1454.79,1678.11 1465.98,1678.11 1477.17,1678.11 1488.36,1678.11 1499.54,1678.11 1510.73,1678.11 1521.92,1678.11 1533.11,1678.11 1544.3,1678.11 1555.49,1678.11 1566.67,1678.11 1577.86,1678.11 1589.05,1678.11 1600.24,1678.12 1611.43,1678.12 1622.62,1678.12 1633.8,1678.12 1644.99,1678.12 1656.18,1678.12 1667.37,1678.12 1678.56,1678.12 1689.75,1678.12 1700.93,1678.12 1712.12,1678.12 1723.31,1678.12 1734.5,1678.12 1745.69,1678.12 1756.88,1678.12 1768.06,1678.12 1779.25,1678.12 1790.44,1678.12 1801.63,1678.12 1812.82,1678.12 1824.01,1678.12 1835.19,1678.12 1846.38,1678.12 1857.57,1678.12 1868.76,1678.12 1879.95,1678.12 1891.14,1678.12 1902.32,1678.12 1913.51,1678.12 1924.7,1678.12 1935.89,1678.12 1947.08,1678.12 1958.27,1678.12 1969.45,1678.12 1980.64,1678.12 1991.83,1678.12 2003.02,1678.12 2014.21,1678.12 2025.4,1678.12 2036.58,1678.12 2047.77,1678.12 2058.96,1678.12 2070.15,1678.12 2081.34,1678.12 2092.53,1678.12 2103.72,1678.12 2114.9,1678.12 2126.09,1678.12 2137.28,1678.12 2148.47,1678.12 2159.66,1678.12 2170.85,1678.12 2182.03,1678.12 2193.22,1678.12 2204.41,1678.12 2215.6,1678.12 2226.79,1678.12 2237.98,1678.12 2249.16,1678.12 2260.35,1678.12 2271.54,1678.12 2282.73,1678.12 2293.92,1678.12 2305.11,1678.12 2316.29,1678.12 2327.48,1678.12 2338.67,1678.12 2349.86,1678.12 2361.05,1678.12 2372.24,1678.12 2383.42,1678.12 2394.61,1678.12 2405.8,1678.12 2416.99,1678.12 2428.18,1678.12 2439.37,1678.12 2450.55,1678.12 2461.74,1678.12 2472.93,1678.12 2484.12,1678.12 2495.31,1678.12 2506.5,1678.12 2517.68,1678.12 2528.87,1678.12 2540.06,1678.12 2551.25,1678.12 2562.44,1678.12 2573.63,1678.12 "/>
<polyline clip-path="url(#clip941)" style="stroke:#e26f46; stroke-linecap:round; stroke-linejoin:round; stroke-width:8; stroke-opacity:1; fill:none" points="335.956,1673.4 347.144,1666.04 358.332,1655.25 369.521,1639.59 380.709,1617.14 391.897,1585.59 403.086,1542.4 414.274,1485.47 425.462,1414.1 436.651,1330.26 447.839,1239.42 459.027,1150.07 470.216,1071.58 481.404,1011.43 492.593,973.332 503.781,957.056 514.969,959.653 526.158,976.959 537.346,1004.74 548.534,1039.33 559.723,1077.83 570.911,1118.09 582.099,1158.58 593.288,1198.27 604.476,1236.48 615.664,1272.8 626.853,1306.99 638.041,1338.96 649.229,1368.68 660.418,1396.2 671.606,1421.6 682.794,1444.99 693.983,1466.46 705.171,1486.16 716.36,1504.19 727.548,1520.69 738.736,1535.76 749.925,1549.52 761.113,1562.07 772.301,1573.52 783.49,1583.95 794.678,1593.45 805.866,1602.11 817.055,1609.98 828.243,1617.15 839.431,1623.67 850.62,1629.61 861.808,1635 872.996,1639.91 884.185,1644.37 895.373,1648.42 906.562,1652.11 917.75,1655.46 928.938,1658.5 940.127,1661.27 951.315,1663.78 962.503,1666.06 973.692,1668.14 984.88,1670.02 996.068,1671.73 1007.26,1673.29 1018.45,1674.7 1029.63,1675.98 1040.82,1677.14 1052.01,1678.2 1063.2,1679.16 1074.39,1680.04 1085.58,1680.83 1096.76,1681.55 1107.95,1682.2 1119.14,1682.8 1130.33,1683.33 1141.52,1683.82 1152.71,1684.27 1163.89,1684.67 1175.08,1685.04 1186.27,1685.37 1197.46,1685.67 1208.65,1685.95 1219.84,1686.2 1231.02,1686.42 1242.21,1686.63 1253.4,1686.81 1264.59,1686.98 1275.78,1687.14 1286.97,1687.28 1298.15,1687.4 1309.34,1687.52 1320.53,1687.62 1331.72,1687.72 1342.91,1687.8 1354.1,1687.88 1365.28,1687.95 1376.47,1688.02 1387.66,1688.08 1398.85,1688.13 1410.04,1688.18 1421.23,1688.22 1432.41,1688.26 1443.6,1688.3 1454.79,1688.33 1465.98,1688.36 1477.17,1688.39 1488.36,1688.41 1499.54,1688.43 1510.73,1688.46 1521.92,1688.47 1533.11,1688.49 1544.3,1688.51 1555.49,1688.52 1566.67,1688.53 1577.86,1688.54 1589.05,1688.55 1600.24,1688.56 1611.43,1688.57 1622.62,1688.58 1633.8,1688.59 1644.99,1688.59 1656.18,1688.6 1667.37,1688.6 1678.56,1688.61 1689.75,1688.61 1700.93,1688.62 1712.12,1688.62 1723.31,1688.62 1734.5,1688.63 1745.69,1688.63 1756.88,1688.63 1768.06,1688.63 1779.25,1688.64 1790.44,1688.64 1801.63,1688.64 1812.82,1688.64 1824.01,1688.64 1835.19,1688.64 1846.38,1688.64 1857.57,1688.64 1868.76,1688.65 1879.95,1688.65 1891.14,1688.65 1902.32,1688.65 1913.51,1688.65 1924.7,1688.65 1935.89,1688.65 1947.08,1688.65 1958.27,1688.65 1969.45,1688.65 1980.64,1688.65 1991.83,1688.65 2003.02,1688.65 2014.21,1688.65 2025.4,1688.65 2036.58,1688.65 2047.77,1688.65 2058.96,1688.65 2070.15,1688.65 2081.34,1688.65 2092.53,1688.65 2103.72,1688.65 2114.9,1688.65 2126.09,1688.65 2137.28,1688.65 2148.47,1688.65 2159.66,1688.65 2170.85,1688.65 2182.03,1688.65 2193.22,1688.65 2204.41,1688.65 2215.6,1688.65 2226.79,1688.65 2237.98,1688.65 2249.16,1688.65 2260.35,1688.65 2271.54,1688.65 2282.73,1688.65 2293.92,1688.65 2305.11,1688.65 2316.29,1688.65 2327.48,1688.65 2338.67,1688.65 2349.86,1688.65 2361.05,1688.65 2372.24,1688.65 2383.42,1688.65 2394.61,1688.65 2405.8,1688.65 2416.99,1688.65 2428.18,1688.65 2439.37,1688.65 2450.55,1688.65 2461.74,1688.65 2472.93,1688.65 2484.12,1688.65 2495.31,1688.65 2506.5,1688.65 2517.68,1688.65 2528.87,1688.65 2540.06,1688.65 2551.25,1688.65 2562.44,1688.65 2573.63,1688.65 "/>
<polyline clip-path="url(#clip941)" style="stroke:#3da44d; stroke-linecap:round; stroke-linejoin:round; stroke-width:8; stroke-opacity:1; fill:none" points="335.956,1688.65 347.144,1686.78 358.332,1684.02 369.521,1679.94 380.709,1673.98 391.897,1665.34 403.086,1652.98 414.274,1635.62 425.462,1611.85 436.651,1580.29 447.839,1539.94 459.027,1490.49 470.216,1432.59 481.404,1367.7 492.593,1297.88 503.781,1225.36 514.969,1152.19 526.158,1080.05 537.346,1010.2 548.534,943.495 559.723,880.465 570.911,821.388 582.099,766.36 593.288,715.347 604.476,668.233 615.664,624.849 626.853,584.991 638.041,548.441 649.229,514.976 660.418,484.373 671.606,456.415 682.794,430.895 693.983,407.618 705.171,386.398 716.36,367.063 727.548,349.454 738.736,333.422 749.925,318.831 761.113,305.555 772.301,293.478 783.49,282.494 794.678,272.506 805.866,263.425 817.055,255.17 828.243,247.667 839.431,240.848 850.62,234.651 861.808,229.02 872.996,223.904 884.185,219.256 895.373,215.033 906.562,211.197 917.75,207.712 928.938,204.547 940.127,201.672 951.315,199.061 962.503,196.689 973.692,194.535 984.88,192.579 996.068,190.802 1007.26,189.189 1018.45,187.723 1029.63,186.393 1040.82,185.184 1052.01,184.087 1063.2,183.091 1074.39,182.186 1085.58,181.364 1096.76,180.618 1107.95,179.941 1119.14,179.326 1130.33,178.767 1141.52,178.26 1152.71,177.799 1163.89,177.381 1175.08,177.001 1186.27,176.656 1197.46,176.343 1208.65,176.059 1219.84,175.801 1231.02,175.567 1242.21,175.354 1253.4,175.161 1264.59,174.985 1275.78,174.826 1286.97,174.681 1298.15,174.55 1309.34,174.431 1320.53,174.322 1331.72,174.224 1342.91,174.135 1354.1,174.054 1365.28,173.98 1376.47,173.913 1387.66,173.853 1398.85,173.798 1410.04,173.748 1421.23,173.702 1432.41,173.661 1443.6,173.624 1454.79,173.59 1465.98,173.559 1477.17,173.531 1488.36,173.505 1499.54,173.482 1510.73,173.461 1521.92,173.442 1533.11,173.425 1544.3,173.409 1555.49,173.395 1566.67,173.382 1577.86,173.37 1589.05,173.359 1600.24,173.35 1611.43,173.341 1622.62,173.333 1633.8,173.326 1644.99,173.319 1656.18,173.313 1667.37,173.308 1678.56,173.303 1689.75,173.298 1700.93,173.294 1712.12,173.291 1723.31,173.287 1734.5,173.284 1745.69,173.281 1756.88,173.279 1768.06,173.277 1779.25,173.275 1790.44,173.273 1801.63,173.271 1812.82,173.269 1824.01,173.268 1835.19,173.267 1846.38,173.266 1857.57,173.265 1868.76,173.264 1879.95,173.263 1891.14,173.262 1902.32,173.261 1913.51,173.261 1924.7,173.26 1935.89,173.259 1947.08,173.259 1958.27,173.258 1969.45,173.258 1980.64,173.258 1991.83,173.257 2003.02,173.257 2014.21,173.257 2025.4,173.257 2036.58,173.256 2047.77,173.256 2058.96,173.256 2070.15,173.256 2081.34,173.256 2092.53,173.255 2103.72,173.255 2114.9,173.255 2126.09,173.255 2137.28,173.255 2148.47,173.255 2159.66,173.255 2170.85,173.255 2182.03,173.255 2193.22,173.255 2204.41,173.255 2215.6,173.255 2226.79,173.255 2237.98,173.255 2249.16,173.254 2260.35,173.254 2271.54,173.254 2282.73,173.254 2293.92,173.254 2305.11,173.254 2316.29,173.254 2327.48,173.254 2338.67,173.254 2349.86,173.254 2361.05,173.254 2372.24,173.254 2383.42,173.254 2394.61,173.254 2405.8,173.254 2416.99,173.254 2428.18,173.254 2439.37,173.254 2450.55,173.254 2461.74,173.254 2472.93,173.254 2484.12,173.254 2495.31,173.254 2506.5,173.254 2517.68,173.254 2528.87,173.254 2540.06,173.254 2551.25,173.254 2562.44,173.254 2573.63,173.254 "/>
<path clip-path="url(#clip940)" d="M2297.58 1062.26 L2561.69 1062.26 L2561.69 854.899 L2297.58 854.899  Z" fill="#ffffff" fill-rule="evenodd" fill-opacity="1"/>
<polyline clip-path="url(#clip940)" style="stroke:#000000; stroke-linecap:round; stroke-linejoin:round; stroke-width:4; stroke-opacity:1; fill:none" points="2297.58,1062.26 2561.69,1062.26 2561.69,854.899 2297.58,854.899 2297.58,1062.26 "/>
<polyline clip-path="url(#clip940)" style="stroke:#009af9; stroke-linecap:round; stroke-linejoin:round; stroke-width:8; stroke-opacity:1; fill:none" points="2323.93,906.739 2482.06,906.739 "/>
<path clip-path="url(#clip940)" d="M2530.66 890.593 L2530.66 895.153 Q2528 893.88 2525.64 893.255 Q2523.28 892.63 2521.08 892.63 Q2517.26 892.63 2515.17 894.111 Q2513.11 895.593 2513.11 898.324 Q2513.11 900.616 2514.48 901.797 Q2515.87 902.954 2519.71 903.672 L2522.54 904.25 Q2527.77 905.246 2530.24 907.769 Q2532.74 910.269 2532.74 914.482 Q2532.74 919.505 2529.36 922.097 Q2526.01 924.69 2519.5 924.69 Q2517.05 924.69 2514.27 924.134 Q2511.52 923.579 2508.55 922.491 L2508.55 917.676 Q2511.4 919.273 2514.13 920.084 Q2516.86 920.894 2519.5 920.894 Q2523.51 920.894 2525.68 919.32 Q2527.86 917.746 2527.86 914.829 Q2527.86 912.283 2526.29 910.847 Q2524.73 909.412 2521.17 908.695 L2518.32 908.139 Q2513.09 907.098 2510.75 904.875 Q2508.42 902.653 2508.42 898.695 Q2508.42 894.111 2511.63 891.473 Q2514.87 888.834 2520.55 888.834 Q2522.98 888.834 2525.5 889.274 Q2528.02 889.713 2530.66 890.593 Z" fill="#000000" fill-rule="nonzero" fill-opacity="1" /><polyline clip-path="url(#clip940)" style="stroke:#e26f46; stroke-linecap:round; stroke-linejoin:round; stroke-width:8; stroke-opacity:1; fill:none" points="2323.93,958.579 2482.06,958.579 "/>
<path clip-path="url(#clip940)" d="M2508.42 941.299 L2513.09 941.299 L2513.09 975.859 L2508.42 975.859 L2508.42 941.299 Z" fill="#000000" fill-rule="nonzero" fill-opacity="1" /><polyline clip-path="url(#clip940)" style="stroke:#3da44d; stroke-linecap:round; stroke-linejoin:round; stroke-width:8; stroke-opacity:1; fill:none" points="2323.93,1010.42 2482.06,1010.42 "/>
<path clip-path="url(#clip940)" d="M2524.8 1011.5 Q2526.31 1012 2527.72 1013.67 Q2529.16 1015.34 2530.59 1018.25 L2535.34 1027.7 L2530.31 1027.7 L2525.89 1018.83 Q2524.18 1015.36 2522.56 1014.23 Q2520.96 1013.09 2518.18 1013.09 L2513.09 1013.09 L2513.09 1027.7 L2508.42 1027.7 L2508.42 993.139 L2518.97 993.139 Q2524.9 993.139 2527.81 995.616 Q2530.73 998.092 2530.73 1003.09 Q2530.73 1006.36 2529.2 1008.51 Q2527.7 1010.66 2524.8 1011.5 M2513.09 996.981 L2513.09 1009.25 L2518.97 1009.25 Q2522.35 1009.25 2524.06 1007.7 Q2525.8 1006.12 2525.8 1003.09 Q2525.8 1000.06 2524.06 998.532 Q2522.35 996.981 2518.97 996.981 L2513.09 996.981 Z" fill="#000000" fill-rule="nonzero" fill-opacity="1" /></svg>
