<?xml version="1.0" encoding="utf-8"?>
<svg xmlns="http://www.w3.org/2000/svg" xmlns:xlink="http://www.w3.org/1999/xlink" width="672" height="480" viewBox="0 0 2688 1920">
<defs>
  <clipPath id="clip920">
    <rect x="0" y="0" width="2688" height="1920"/>
  </clipPath>
</defs>
<path clip-path="url(#clip920)" d="M0 1920 L2688 1920 L2688 -4.26326e-14 L0 -4.26326e-14  Z" fill="#ffffff" fill-rule="evenodd" fill-opacity="1"/>
<defs>
  <clipPath id="clip921">
    <rect x="238" y="127" width="2403" height="1607"/>
  </clipPath>
</defs>
<path clip-path="url(#clip920)" d="M238.664 1734.12 L2640.76 1734.12 L2640.76 127.792 L238.664 127.792  Z" fill="#ffffff" fill-rule="evenodd" fill-opacity="1"/>
<polyline clip-path="url(#clip921)" style="stroke:#000000; stroke-linecap:round; stroke-linejoin:round; stroke-width:2; stroke-opacity:0.1; fill:none" points="306.647,1734.12 306.647,127.792 "/>
<polyline clip-path="url(#clip921)" style="stroke:#000000; stroke-linecap:round; stroke-linejoin:round; stroke-width:2; stroke-opacity:0.1; fill:none" points="873.179,1734.12 873.179,127.792 "/>
<polyline clip-path="url(#clip921)" style="stroke:#000000; stroke-linecap:round; stroke-linejoin:round; stroke-width:2; stroke-opacity:0.1; fill:none" points="1439.71,1734.12 1439.71,127.792 "/>
<polyline clip-path="url(#clip921)" style="stroke:#000000; stroke-linecap:round; stroke-linejoin:round; stroke-width:2; stroke-opacity:0.1; fill:none" points="2006.24,1734.12 2006.24,127.792 "/>
<polyline clip-path="url(#clip921)" style="stroke:#000000; stroke-linecap:round; stroke-linejoin:round; stroke-width:2; stroke-opacity:0.1; fill:none" points="2572.77,1734.12 2572.77,127.792 "/>
<polyline clip-path="url(#clip921)" style="stroke:#000000; stroke-linecap:round; stroke-linejoin:round; stroke-width:2; stroke-opacity:0.1; fill:none" points="238.664,1688.66 2640.76,1688.66 "/>
<polyline clip-path="url(#clip921)" style="stroke:#000000; stroke-linecap:round; stroke-linejoin:round; stroke-width:2; stroke-opacity:0.1; fill:none" points="238.664,1201.74 2640.76,1201.74 "/>
<polyline clip-path="url(#clip921)" style="stroke:#000000; stroke-linecap:round; stroke-linejoin:round; stroke-width:2; stroke-opacity:0.1; fill:none" points="238.664,714.832 2640.76,714.832 "/>
<polyline clip-path="url(#clip921)" style="stroke:#000000; stroke-linecap:round; stroke-linejoin:round; stroke-width:2; stroke-opacity:0.1; fill:none" points="238.664,227.92 2640.76,227.92 "/>
<polyline clip-path="url(#clip920)" style="stroke:#000000; stroke-linecap:round; stroke-linejoin:round; stroke-width:4; stroke-opacity:1; fill:none" points="238.664,1734.12 2640.76,1734.12 "/>
<polyline clip-path="url(#clip920)" style="stroke:#000000; stroke-linecap:round; stroke-linejoin:round; stroke-width:4; stroke-opacity:1; fill:none" points="306.647,1734.12 306.647,1715.22 "/>
<polyline clip-path="url(#clip920)" style="stroke:#000000; stroke-linecap:round; stroke-linejoin:round; stroke-width:4; stroke-opacity:1; fill:none" points="873.179,1734.12 873.179,1715.22 "/>
<polyline clip-path="url(#clip920)" style="stroke:#000000; stroke-linecap:round; stroke-linejoin:round; stroke-width:4; stroke-opacity:1; fill:none" points="1439.71,1734.12 1439.71,1715.22 "/>
<polyline clip-path="url(#clip920)" style="stroke:#000000; stroke-linecap:round; stroke-linejoin:round; stroke-width:4; stroke-opacity:1; fill:none" points="2006.24,1734.12 2006.24,1715.22 "/>
<polyline clip-path="url(#clip920)" style="stroke:#000000; stroke-linecap:round; stroke-linejoin:round; stroke-width:4; stroke-opacity:1; fill:none" points="2572.77,1734.12 2572.77,1715.22 "/>
<path clip-path="url(#clip920)" d="M306.647 1767.34 Q303.036 1767.34 301.208 1770.9 Q299.402 1774.45 299.402 1781.58 Q299.402 1788.68 301.208 1792.25 Q303.036 1795.79 306.647 1795.79 Q310.282 1795.79 312.087 1792.25 Q313.916 1788.68 313.916 1781.58 Q313.916 1774.45 312.087 1770.9 Q310.282 1767.34 306.647 1767.34 M306.647 1763.64 Q312.458 1763.64 315.513 1768.24 Q318.592 1772.83 318.592 1781.58 Q318.592 1790.3 315.513 1794.91 Q312.458 1799.49 306.647 1799.49 Q300.837 1799.49 297.759 1794.91 Q294.703 1790.3 294.703 1781.58 Q294.703 1772.83 297.759 1768.24 Q300.837 1763.64 306.647 1763.64 Z" fill="#000000" fill-rule="nonzero" fill-opacity="1" /><path clip-path="url(#clip920)" d="M847.878 1764.26 L866.234 1764.26 L866.234 1768.2 L852.16 1768.2 L852.16 1776.67 Q853.179 1776.32 854.197 1776.16 Q855.216 1775.97 856.234 1775.97 Q862.021 1775.97 865.401 1779.15 Q868.78 1782.32 868.78 1787.73 Q868.78 1793.31 865.308 1796.41 Q861.836 1799.49 855.517 1799.49 Q853.341 1799.49 851.072 1799.12 Q848.827 1798.75 846.419 1798.01 L846.419 1793.31 Q848.503 1794.45 850.725 1795 Q852.947 1795.56 855.424 1795.56 Q859.429 1795.56 861.767 1793.45 Q864.105 1791.34 864.105 1787.73 Q864.105 1784.12 861.767 1782.02 Q859.429 1779.91 855.424 1779.91 Q853.549 1779.91 851.674 1780.33 Q849.822 1780.74 847.878 1781.62 L847.878 1764.26 Z" fill="#000000" fill-rule="nonzero" fill-opacity="1" /><path clip-path="url(#clip920)" d="M887.993 1767.34 Q884.382 1767.34 882.554 1770.9 Q880.748 1774.45 880.748 1781.58 Q880.748 1788.68 882.554 1792.25 Q884.382 1795.79 887.993 1795.79 Q891.628 1795.79 893.433 1792.25 Q895.262 1788.68 895.262 1781.58 Q895.262 1774.45 893.433 1770.9 Q891.628 1767.34 887.993 1767.34 M887.993 1763.64 Q893.803 1763.64 896.859 1768.24 Q899.938 1772.83 899.938 1781.58 Q899.938 1790.3 896.859 1794.91 Q893.803 1799.49 887.993 1799.49 Q882.183 1799.49 879.104 1794.91 Q876.049 1790.3 876.049 1781.58 Q876.049 1772.83 879.104 1768.24 Q882.183 1763.64 887.993 1763.64 Z" fill="#000000" fill-rule="nonzero" fill-opacity="1" /><path clip-path="url(#clip920)" d="M1399.32 1794.89 L1406.96 1794.89 L1406.96 1768.52 L1398.65 1770.19 L1398.65 1765.93 L1406.91 1764.26 L1411.58 1764.26 L1411.58 1794.89 L1419.22 1794.89 L1419.22 1798.82 L1399.32 1798.82 L1399.32 1794.89 Z" fill="#000000" fill-rule="nonzero" fill-opacity="1" /><path clip-path="url(#clip920)" d="M1438.67 1767.34 Q1435.06 1767.34 1433.23 1770.9 Q1431.42 1774.45 1431.42 1781.58 Q1431.42 1788.68 1433.23 1792.25 Q1435.06 1795.79 1438.67 1795.79 Q1442.3 1795.79 1444.11 1792.25 Q1445.94 1788.68 1445.94 1781.58 Q1445.94 1774.45 1444.11 1770.9 Q1442.3 1767.34 1438.67 1767.34 M1438.67 1763.64 Q1444.48 1763.64 1447.53 1768.24 Q1450.61 1772.83 1450.61 1781.58 Q1450.61 1790.3 1447.53 1794.91 Q1444.48 1799.49 1438.67 1799.49 Q1432.86 1799.49 1429.78 1794.91 Q1426.72 1790.3 1426.72 1781.58 Q1426.72 1772.83 1429.78 1768.24 Q1432.86 1763.64 1438.67 1763.64 Z" fill="#000000" fill-rule="nonzero" fill-opacity="1" /><path clip-path="url(#clip920)" d="M1468.83 1767.34 Q1465.22 1767.34 1463.39 1770.9 Q1461.58 1774.45 1461.58 1781.58 Q1461.58 1788.68 1463.39 1792.25 Q1465.22 1795.79 1468.83 1795.79 Q1472.46 1795.79 1474.27 1792.25 Q1476.1 1788.68 1476.1 1781.58 Q1476.1 1774.45 1474.27 1770.9 Q1472.46 1767.34 1468.83 1767.34 M1468.83 1763.64 Q1474.64 1763.64 1477.7 1768.24 Q1480.77 1772.83 1480.77 1781.58 Q1480.77 1790.3 1477.7 1794.91 Q1474.64 1799.49 1468.83 1799.49 Q1463.02 1799.49 1459.94 1794.91 Q1456.89 1790.3 1456.89 1781.58 Q1456.89 1772.83 1459.94 1768.24 Q1463.02 1763.64 1468.83 1763.64 Z" fill="#000000" fill-rule="nonzero" fill-opacity="1" /><path clip-path="url(#clip920)" d="M1965.85 1794.89 L1973.49 1794.89 L1973.49 1768.52 L1965.18 1770.19 L1965.18 1765.93 L1973.44 1764.26 L1978.12 1764.26 L1978.12 1794.89 L1985.75 1794.89 L1985.75 1798.82 L1965.85 1798.82 L1965.85 1794.89 Z" fill="#000000" fill-rule="nonzero" fill-opacity="1" /><path clip-path="url(#clip920)" d="M1995.25 1764.26 L2013.6 1764.26 L2013.6 1768.2 L1999.53 1768.2 L1999.53 1776.67 Q2000.55 1776.32 2001.57 1776.16 Q2002.58 1775.97 2003.6 1775.97 Q2009.39 1775.97 2012.77 1779.15 Q2016.15 1782.32 2016.15 1787.73 Q2016.15 1793.31 2012.68 1796.41 Q2009.2 1799.49 2002.88 1799.49 Q2000.71 1799.49 1998.44 1799.12 Q1996.19 1798.75 1993.79 1798.01 L1993.79 1793.31 Q1995.87 1794.45 1998.09 1795 Q2000.32 1795.56 2002.79 1795.56 Q2006.8 1795.56 2009.13 1793.45 Q2011.47 1791.34 2011.47 1787.73 Q2011.47 1784.12 2009.13 1782.02 Q2006.8 1779.91 2002.79 1779.91 Q2000.92 1779.91 1999.04 1780.33 Q1997.19 1780.74 1995.25 1781.62 L1995.25 1764.26 Z" fill="#000000" fill-rule="nonzero" fill-opacity="1" /><path clip-path="url(#clip920)" d="M2035.36 1767.34 Q2031.75 1767.34 2029.92 1770.9 Q2028.12 1774.45 2028.12 1781.58 Q2028.12 1788.68 2029.92 1792.25 Q2031.75 1795.79 2035.36 1795.79 Q2039 1795.79 2040.8 1792.25 Q2042.63 1788.68 2042.63 1781.58 Q2042.63 1774.45 2040.8 1770.9 Q2039 1767.34 2035.36 1767.34 M2035.36 1763.64 Q2041.17 1763.64 2044.23 1768.24 Q2047.31 1772.83 2047.31 1781.58 Q2047.31 1790.3 2044.23 1794.91 Q2041.17 1799.49 2035.36 1799.49 Q2029.55 1799.49 2026.47 1794.91 Q2023.42 1790.3 2023.42 1781.58 Q2023.42 1772.83 2026.47 1768.24 Q2029.55 1763.64 2035.36 1763.64 Z" fill="#000000" fill-rule="nonzero" fill-opacity="1" /><path clip-path="url(#clip920)" d="M2536.46 1794.89 L2552.78 1794.89 L2552.78 1798.82 L2530.84 1798.82 L2530.84 1794.89 Q2533.5 1792.13 2538.08 1787.5 Q2542.69 1782.85 2543.87 1781.51 Q2546.12 1778.98 2547 1777.25 Q2547.9 1775.49 2547.9 1773.8 Q2547.9 1771.04 2545.96 1769.31 Q2544.03 1767.57 2540.93 1767.57 Q2538.73 1767.57 2536.28 1768.34 Q2533.85 1769.1 2531.07 1770.65 L2531.07 1765.93 Q2533.9 1764.79 2536.35 1764.21 Q2538.8 1763.64 2540.84 1763.64 Q2546.21 1763.64 2549.4 1766.32 Q2552.6 1769.01 2552.6 1773.5 Q2552.6 1775.63 2551.79 1777.55 Q2551 1779.45 2548.89 1782.04 Q2548.32 1782.71 2545.21 1785.93 Q2542.11 1789.12 2536.46 1794.89 Z" fill="#000000" fill-rule="nonzero" fill-opacity="1" /><path clip-path="url(#clip920)" d="M2572.6 1767.34 Q2568.99 1767.34 2567.16 1770.9 Q2565.35 1774.45 2565.35 1781.58 Q2565.35 1788.68 2567.16 1792.25 Q2568.99 1795.79 2572.6 1795.79 Q2576.23 1795.79 2578.04 1792.25 Q2579.87 1788.68 2579.87 1781.58 Q2579.87 1774.45 2578.04 1770.9 Q2576.23 1767.34 2572.6 1767.34 M2572.6 1763.64 Q2578.41 1763.64 2581.46 1768.24 Q2584.54 1772.83 2584.54 1781.58 Q2584.54 1790.3 2581.46 1794.91 Q2578.41 1799.49 2572.6 1799.49 Q2566.79 1799.49 2563.71 1794.91 Q2560.65 1790.3 2560.65 1781.58 Q2560.65 1772.83 2563.71 1768.24 Q2566.79 1763.64 2572.6 1763.64 Z" fill="#000000" fill-rule="nonzero" fill-opacity="1" /><path clip-path="url(#clip920)" d="M2602.76 1767.34 Q2599.15 1767.34 2597.32 1770.9 Q2595.52 1774.45 2595.52 1781.58 Q2595.52 1788.68 2597.32 1792.25 Q2599.15 1795.79 2602.76 1795.79 Q2606.39 1795.79 2608.2 1792.25 Q2610.03 1788.68 2610.03 1781.58 Q2610.03 1774.45 2608.2 1770.9 Q2606.39 1767.34 2602.76 1767.34 M2602.76 1763.64 Q2608.57 1763.64 2611.63 1768.24 Q2614.7 1772.83 2614.7 1781.58 Q2614.7 1790.3 2611.63 1794.91 Q2608.57 1799.49 2602.76 1799.49 Q2596.95 1799.49 2593.87 1794.91 Q2590.82 1790.3 2590.82 1781.58 Q2590.82 1772.83 2593.87 1768.24 Q2596.95 1763.64 2602.76 1763.64 Z" fill="#000000" fill-rule="nonzero" fill-opacity="1" /><path clip-path="url(#clip920)" d="M1361.59 1835.78 L1401.79 1835.78 L1401.79 1841.19 L1384.92 1841.19 L1384.92 1883.3 L1378.46 1883.3 L1378.46 1841.19 L1361.59 1841.19 L1361.59 1835.78 Z" fill="#000000" fill-rule="nonzero" fill-opacity="1" /><path clip-path="url(#clip920)" d="M1405.73 1847.65 L1411.59 1847.65 L1411.59 1883.3 L1405.73 1883.3 L1405.73 1847.65 M1405.73 1833.78 L1411.59 1833.78 L1411.59 1841.19 L1405.73 1841.19 L1405.73 1833.78 Z" fill="#000000" fill-rule="nonzero" fill-opacity="1" /><path clip-path="url(#clip920)" d="M1451.6 1854.5 Q1453.79 1850.55 1456.85 1848.67 Q1459.9 1846.79 1464.04 1846.79 Q1469.61 1846.79 1472.64 1850.71 Q1475.66 1854.59 1475.66 1861.78 L1475.66 1883.3 L1469.77 1883.3 L1469.77 1861.98 Q1469.77 1856.85 1467.96 1854.37 Q1466.14 1851.89 1462.42 1851.89 Q1457.87 1851.89 1455.23 1854.91 Q1452.58 1857.93 1452.58 1863.15 L1452.58 1883.3 L1446.7 1883.3 L1446.7 1861.98 Q1446.7 1856.82 1444.88 1854.37 Q1443.07 1851.89 1439.28 1851.89 Q1434.79 1851.89 1432.15 1854.94 Q1429.51 1857.97 1429.51 1863.15 L1429.51 1883.3 L1423.62 1883.3 L1423.62 1847.65 L1429.51 1847.65 L1429.51 1853.19 Q1431.51 1849.91 1434.31 1848.35 Q1437.12 1846.79 1440.97 1846.79 Q1444.85 1846.79 1447.56 1848.77 Q1450.29 1850.74 1451.6 1854.5 Z" fill="#000000" fill-rule="nonzero" fill-opacity="1" /><path clip-path="url(#clip920)" d="M1517.83 1864.01 L1517.83 1866.88 L1490.91 1866.88 Q1491.29 1872.92 1494.53 1876.11 Q1497.81 1879.26 1503.64 1879.26 Q1507.01 1879.26 1510.16 1878.43 Q1513.35 1877.6 1516.46 1875.95 L1516.46 1881.49 Q1513.31 1882.82 1510 1883.52 Q1506.69 1884.22 1503.29 1884.22 Q1494.76 1884.22 1489.76 1879.26 Q1484.79 1874.29 1484.79 1865.83 Q1484.79 1857.07 1489.51 1851.95 Q1494.25 1846.79 1502.27 1846.79 Q1509.46 1846.79 1513.63 1851.44 Q1517.83 1856.06 1517.83 1864.01 M1511.98 1862.29 Q1511.91 1857.49 1509.27 1854.62 Q1506.66 1851.76 1502.33 1851.76 Q1497.43 1851.76 1494.47 1854.53 Q1491.54 1857.3 1491.1 1862.33 L1511.98 1862.29 Z" fill="#000000" fill-rule="nonzero" fill-opacity="1" /><polyline clip-path="url(#clip920)" style="stroke:#000000; stroke-linecap:round; stroke-linejoin:round; stroke-width:4; stroke-opacity:1; fill:none" points="238.664,1734.12 238.664,127.792 "/>
<polyline clip-path="url(#clip920)" style="stroke:#000000; stroke-linecap:round; stroke-linejoin:round; stroke-width:4; stroke-opacity:1; fill:none" points="238.664,1688.66 257.561,1688.66 "/>
<polyline clip-path="url(#clip920)" style="stroke:#000000; stroke-linecap:round; stroke-linejoin:round; stroke-width:4; stroke-opacity:1; fill:none" points="238.664,1201.74 257.561,1201.74 "/>
<polyline clip-path="url(#clip920)" style="stroke:#000000; stroke-linecap:round; stroke-linejoin:round; stroke-width:4; stroke-opacity:1; fill:none" points="238.664,714.832 257.561,714.832 "/>
<polyline clip-path="url(#clip920)" style="stroke:#000000; stroke-linecap:round; stroke-linejoin:round; stroke-width:4; stroke-opacity:1; fill:none" points="238.664,227.92 257.561,227.92 "/>
<path clip-path="url(#clip920)" d="M186.399 1674.45 Q182.788 1674.45 180.959 1678.02 Q179.154 1681.56 179.154 1688.69 Q179.154 1695.8 180.959 1699.36 Q182.788 1702.9 186.399 1702.9 Q190.033 1702.9 191.839 1699.36 Q193.668 1695.8 193.668 1688.69 Q193.668 1681.56 191.839 1678.02 Q190.033 1674.45 186.399 1674.45 M186.399 1670.75 Q192.209 1670.75 195.265 1675.36 Q198.344 1679.94 198.344 1688.69 Q198.344 1697.42 195.265 1702.02 Q192.209 1706.61 186.399 1706.61 Q180.589 1706.61 177.51 1702.02 Q174.455 1697.42 174.455 1688.69 Q174.455 1679.94 177.51 1675.36 Q180.589 1670.75 186.399 1670.75 Z" fill="#000000" fill-rule="nonzero" fill-opacity="1" /><path clip-path="url(#clip920)" d="M146.284 1184.46 L164.64 1184.46 L164.64 1188.4 L150.566 1188.4 L150.566 1196.87 Q151.585 1196.52 152.603 1196.36 Q153.622 1196.18 154.64 1196.18 Q160.427 1196.18 163.807 1199.35 Q167.186 1202.52 167.186 1207.94 Q167.186 1213.51 163.714 1216.62 Q160.242 1219.7 153.923 1219.7 Q151.747 1219.7 149.478 1219.32 Q147.233 1218.95 144.825 1218.21 L144.825 1213.51 Q146.909 1214.65 149.131 1215.2 Q151.353 1215.76 153.83 1215.76 Q157.835 1215.76 160.173 1213.65 Q162.51 1211.55 162.51 1207.94 Q162.51 1204.32 160.173 1202.22 Q157.835 1200.11 153.83 1200.11 Q151.955 1200.11 150.08 1200.53 Q148.228 1200.95 146.284 1201.82 L146.284 1184.46 Z" fill="#000000" fill-rule="nonzero" fill-opacity="1" /><path clip-path="url(#clip920)" d="M186.399 1187.54 Q182.788 1187.54 180.959 1191.11 Q179.154 1194.65 179.154 1201.78 Q179.154 1208.89 180.959 1212.45 Q182.788 1215.99 186.399 1215.99 Q190.033 1215.99 191.839 1212.45 Q193.668 1208.89 193.668 1201.78 Q193.668 1194.65 191.839 1191.11 Q190.033 1187.54 186.399 1187.54 M186.399 1183.84 Q192.209 1183.84 195.265 1188.45 Q198.344 1193.03 198.344 1201.78 Q198.344 1210.51 195.265 1215.11 Q192.209 1219.7 186.399 1219.7 Q180.589 1219.7 177.51 1215.11 Q174.455 1210.51 174.455 1201.78 Q174.455 1193.03 177.51 1188.45 Q180.589 1183.84 186.399 1183.84 Z" fill="#000000" fill-rule="nonzero" fill-opacity="1" /><path clip-path="url(#clip920)" d="M116.886 728.177 L124.525 728.177 L124.525 701.811 L116.214 703.478 L116.214 699.219 L124.478 697.552 L129.154 697.552 L129.154 728.177 L136.793 728.177 L136.793 732.112 L116.886 732.112 L116.886 728.177 Z" fill="#000000" fill-rule="nonzero" fill-opacity="1" /><path clip-path="url(#clip920)" d="M156.237 700.631 Q152.626 700.631 150.798 704.196 Q148.992 707.737 148.992 714.867 Q148.992 721.973 150.798 725.538 Q152.626 729.08 156.237 729.08 Q159.872 729.08 161.677 725.538 Q163.506 721.973 163.506 714.867 Q163.506 707.737 161.677 704.196 Q159.872 700.631 156.237 700.631 M156.237 696.927 Q162.048 696.927 165.103 701.534 Q168.182 706.117 168.182 714.867 Q168.182 723.594 165.103 728.2 Q162.048 732.783 156.237 732.783 Q150.427 732.783 147.349 728.2 Q144.293 723.594 144.293 714.867 Q144.293 706.117 147.349 701.534 Q150.427 696.927 156.237 696.927 Z" fill="#000000" fill-rule="nonzero" fill-opacity="1" /><path clip-path="url(#clip920)" d="M186.399 700.631 Q182.788 700.631 180.959 704.196 Q179.154 707.737 179.154 714.867 Q179.154 721.973 180.959 725.538 Q182.788 729.08 186.399 729.08 Q190.033 729.08 191.839 725.538 Q193.668 721.973 193.668 714.867 Q193.668 707.737 191.839 704.196 Q190.033 700.631 186.399 700.631 M186.399 696.927 Q192.209 696.927 195.265 701.534 Q198.344 706.117 198.344 714.867 Q198.344 723.594 195.265 728.2 Q192.209 732.783 186.399 732.783 Q180.589 732.783 177.51 728.2 Q174.455 723.594 174.455 714.867 Q174.455 706.117 177.51 701.534 Q180.589 696.927 186.399 696.927 Z" fill="#000000" fill-rule="nonzero" fill-opacity="1" /><path clip-path="url(#clip920)" d="M116.886 241.265 L124.525 241.265 L124.525 214.9 L116.214 216.566 L116.214 212.307 L124.478 210.64 L129.154 210.64 L129.154 241.265 L136.793 241.265 L136.793 245.2 L116.886 245.2 L116.886 241.265 Z" fill="#000000" fill-rule="nonzero" fill-opacity="1" /><path clip-path="url(#clip920)" d="M146.284 210.64 L164.64 210.64 L164.64 214.576 L150.566 214.576 L150.566 223.048 Q151.585 222.7 152.603 222.538 Q153.622 222.353 154.64 222.353 Q160.427 222.353 163.807 225.525 Q167.186 228.696 167.186 234.112 Q167.186 239.691 163.714 242.793 Q160.242 245.872 153.923 245.872 Q151.747 245.872 149.478 245.501 Q147.233 245.131 144.825 244.39 L144.825 239.691 Q146.909 240.825 149.131 241.381 Q151.353 241.936 153.83 241.936 Q157.835 241.936 160.173 239.83 Q162.51 237.724 162.51 234.112 Q162.51 230.501 160.173 228.395 Q157.835 226.288 153.83 226.288 Q151.955 226.288 150.08 226.705 Q148.228 227.122 146.284 228.001 L146.284 210.64 Z" fill="#000000" fill-rule="nonzero" fill-opacity="1" /><path clip-path="url(#clip920)" d="M186.399 213.719 Q182.788 213.719 180.959 217.284 Q179.154 220.825 179.154 227.955 Q179.154 235.062 180.959 238.626 Q182.788 242.168 186.399 242.168 Q190.033 242.168 191.839 238.626 Q193.668 235.062 193.668 227.955 Q193.668 220.825 191.839 217.284 Q190.033 213.719 186.399 213.719 M186.399 210.015 Q192.209 210.015 195.265 214.622 Q198.344 219.205 198.344 227.955 Q198.344 236.682 195.265 241.288 Q192.209 245.872 186.399 245.872 Q180.589 245.872 177.51 241.288 Q174.455 236.682 174.455 227.955 Q174.455 219.205 177.51 214.622 Q180.589 210.015 186.399 210.015 Z" fill="#000000" fill-rule="nonzero" fill-opacity="1" /><path clip-path="url(#clip920)" d="M14.1184 1058.03 L14.1184 1051.6 L61.6384 1051.6 L61.6384 1058.03 L14.1184 1058.03 Z" fill="#000000" fill-rule="nonzero" fill-opacity="1" /><path clip-path="url(#clip920)" d="M40.1224 1009.43 L61.6384 1009.43 L61.6384 1015.28 L40.3133 1015.28 Q35.2526 1015.28 32.7381 1017.26 Q30.2237 1019.23 30.2237 1023.18 Q30.2237 1027.92 33.2474 1030.66 Q36.2711 1033.39 41.491 1033.39 L61.6384 1033.39 L61.6384 1039.28 L25.9905 1039.28 L25.9905 1033.39 L31.5287 1033.39 Q28.314 1031.29 26.7225 1028.46 Q25.1311 1025.6 25.1311 1021.87 Q25.1311 1015.73 28.9505 1012.58 Q32.7381 1009.43 40.1224 1009.43 Z" fill="#000000" fill-rule="nonzero" fill-opacity="1" /><path clip-path="url(#clip920)" d="M12.1132 979.7 L16.983 979.7 L16.983 985.302 Q16.983 988.453 18.2562 989.694 Q19.5293 990.904 22.8395 990.904 L25.9905 990.904 L25.9905 981.26 L30.542 981.26 L30.542 990.904 L61.6384 990.904 L61.6384 996.792 L30.542 996.792 L30.542 1002.39 L25.9905 1002.39 L25.9905 996.792 L23.5079 996.792 Q17.5559 996.792 14.8505 994.023 Q12.1132 991.254 12.1132 985.238 L12.1132 979.7 Z" fill="#000000" fill-rule="nonzero" fill-opacity="1" /><path clip-path="url(#clip920)" d="M42.3504 944.307 L45.2149 944.307 L45.2149 971.234 Q51.2623 970.852 54.4452 967.605 Q57.5962 964.327 57.5962 958.502 Q57.5962 955.128 56.7687 951.977 Q55.9411 948.794 54.2861 945.675 L59.8242 945.675 Q61.161 948.826 61.8612 952.136 Q62.5615 955.447 62.5615 958.852 Q62.5615 967.382 57.5962 972.379 Q52.631 977.345 44.1646 977.345 Q35.4117 977.345 30.2873 972.634 Q25.1311 967.892 25.1311 959.871 Q25.1311 952.678 29.7781 948.508 Q34.3932 944.307 42.3504 944.307 M40.6316 950.163 Q35.8255 950.227 32.9609 952.869 Q30.0964 955.478 30.0964 959.807 Q30.0964 964.709 32.8654 967.669 Q35.6345 970.597 40.6634 971.043 L40.6316 950.163 Z" fill="#000000" fill-rule="nonzero" fill-opacity="1" /><path clip-path="url(#clip920)" d="M27.3591 909.041 L32.8336 909.041 Q31.465 911.523 30.7966 914.038 Q30.0964 916.52 30.0964 919.067 Q30.0964 924.764 33.7248 927.915 Q37.3214 931.066 43.8463 931.066 Q50.3711 931.066 53.9996 927.915 Q57.5962 924.764 57.5962 919.067 Q57.5962 916.52 56.9278 914.038 Q56.2276 911.523 54.859 909.041 L60.2698 909.041 Q61.4156 911.491 61.9886 914.133 Q62.5615 916.743 62.5615 919.703 Q62.5615 927.756 57.5007 932.498 Q52.44 937.241 43.8463 937.241 Q35.1253 937.241 30.1282 932.466 Q25.1311 927.66 25.1311 919.321 Q25.1311 916.616 25.704 914.038 Q26.2451 911.46 27.3591 909.041 Z" fill="#000000" fill-rule="nonzero" fill-opacity="1" /><path clip-path="url(#clip920)" d="M15.869 893.063 L25.9905 893.063 L25.9905 881 L30.542 881 L30.542 893.063 L49.8937 893.063 Q54.2542 893.063 55.4955 891.885 Q56.7368 890.676 56.7368 887.015 L56.7368 881 L61.6384 881 L61.6384 887.015 Q61.6384 893.795 59.124 896.373 Q56.5777 898.951 49.8937 898.951 L30.542 898.951 L30.542 903.248 L25.9905 903.248 L25.9905 898.951 L15.869 898.951 L15.869 893.063 Z" fill="#000000" fill-rule="nonzero" fill-opacity="1" /><path clip-path="url(#clip920)" d="M42.3504 842.805 L45.2149 842.805 L45.2149 869.732 Q51.2623 869.35 54.4452 866.104 Q57.5962 862.826 57.5962 857.001 Q57.5962 853.627 56.7687 850.476 Q55.9411 847.293 54.2861 844.174 L59.8242 844.174 Q61.161 847.325 61.8612 850.635 Q62.5615 853.945 62.5615 857.351 Q62.5615 865.881 57.5962 870.878 Q52.631 875.843 44.1646 875.843 Q35.4117 875.843 30.2873 871.133 Q25.1311 866.39 25.1311 858.37 Q25.1311 851.176 29.7781 847.007 Q34.3932 842.805 42.3504 842.805 M40.6316 848.662 Q35.8255 848.726 32.9609 851.367 Q30.0964 853.977 30.0964 858.306 Q30.0964 863.208 32.8654 866.168 Q35.6345 869.096 40.6634 869.541 L40.6316 848.662 Z" fill="#000000" fill-rule="nonzero" fill-opacity="1" /><path clip-path="url(#clip920)" d="M31.4013 809.736 L12.1132 809.736 L12.1132 803.879 L61.6384 803.879 L61.6384 809.736 L56.2912 809.736 Q59.4741 811.582 61.0337 814.414 Q62.5615 817.215 62.5615 821.162 Q62.5615 827.623 57.4052 831.697 Q52.249 835.739 43.8463 835.739 Q35.4436 835.739 30.2873 831.697 Q25.1311 827.623 25.1311 821.162 Q25.1311 817.215 26.6907 814.414 Q28.2185 811.582 31.4013 809.736 M43.8463 829.692 Q50.3075 829.692 53.9996 827.05 Q57.6599 824.377 57.6599 819.73 Q57.6599 815.083 53.9996 812.409 Q50.3075 809.736 43.8463 809.736 Q37.3851 809.736 33.7248 812.409 Q30.0327 815.083 30.0327 819.73 Q30.0327 824.377 33.7248 827.05 Q37.3851 829.692 43.8463 829.692 Z" fill="#000000" fill-rule="nonzero" fill-opacity="1" /><path clip-path="url(#clip920)" d="M979.527 12.096 L987.71 12.096 L987.71 72.576 L979.527 72.576 L979.527 12.096 Z" fill="#000000" fill-rule="nonzero" fill-opacity="1" /><path clip-path="url(#clip920)" d="M1041.38 45.1919 L1041.38 72.576 L1033.93 72.576 L1033.93 45.4349 Q1033.93 38.994 1031.42 35.7938 Q1028.91 32.5936 1023.88 32.5936 Q1017.85 32.5936 1014.36 36.4419 Q1010.88 40.2903 1010.88 46.9338 L1010.88 72.576 L1003.39 72.576 L1003.39 27.2059 L1010.88 27.2059 L1010.88 34.2544 Q1013.55 30.163 1017.16 28.1376 Q1020.81 26.1121 1025.55 26.1121 Q1033.36 26.1121 1037.37 30.9732 Q1041.38 35.7938 1041.38 45.1919 Z" fill="#000000" fill-rule="nonzero" fill-opacity="1" /><path clip-path="url(#clip920)" d="M1079.22 9.54393 L1079.22 15.7418 L1072.09 15.7418 Q1068.08 15.7418 1066.5 17.3622 Q1064.96 18.9825 1064.96 23.1955 L1064.96 27.2059 L1077.23 27.2059 L1077.23 32.9987 L1064.96 32.9987 L1064.96 72.576 L1057.47 72.576 L1057.47 32.9987 L1050.34 32.9987 L1050.34 27.2059 L1057.47 27.2059 L1057.47 24.0462 Q1057.47 16.471 1060.99 13.0277 Q1064.52 9.54393 1072.17 9.54393 L1079.22 9.54393 Z" fill="#000000" fill-rule="nonzero" fill-opacity="1" /><path clip-path="url(#clip920)" d="M1124.27 48.0275 L1124.27 51.6733 L1090 51.6733 Q1090.48 59.3701 1094.61 63.421 Q1098.79 67.4314 1106.2 67.4314 Q1110.49 67.4314 1114.5 66.3781 Q1118.55 65.3249 1122.52 63.2184 L1122.52 70.267 Q1118.51 71.9684 1114.3 72.8596 Q1110.09 73.7508 1105.75 73.7508 Q1094.9 73.7508 1088.54 67.4314 Q1082.22 61.1119 1082.22 50.3365 Q1082.22 39.1965 1088.21 32.6746 Q1094.25 26.1121 1104.46 26.1121 Q1113.61 26.1121 1118.92 32.0264 Q1124.27 37.9003 1124.27 48.0275 M1116.81 45.84 Q1116.73 39.7232 1113.37 36.0774 Q1110.05 32.4315 1104.54 32.4315 Q1098.3 32.4315 1094.53 35.9558 Q1090.81 39.4801 1090.24 45.8805 L1116.81 45.84 Z" fill="#000000" fill-rule="nonzero" fill-opacity="1" /><path clip-path="url(#clip920)" d="M1169.15 28.9478 L1169.15 35.9153 Q1165.99 34.1734 1162.79 33.3227 Q1159.63 32.4315 1156.39 32.4315 Q1149.14 32.4315 1145.13 37.0496 Q1141.12 41.6271 1141.12 49.9314 Q1141.12 58.2358 1145.13 62.8538 Q1149.14 67.4314 1156.39 67.4314 Q1159.63 67.4314 1162.79 66.5807 Q1165.99 65.6895 1169.15 63.9476 L1169.15 70.8341 Q1166.03 72.2924 1162.67 73.0216 Q1159.35 73.7508 1155.58 73.7508 Q1145.33 73.7508 1139.29 67.3098 Q1133.26 60.8689 1133.26 49.9314 Q1133.26 38.832 1139.34 32.472 Q1145.45 26.1121 1156.07 26.1121 Q1159.51 26.1121 1162.79 26.8413 Q1166.07 27.5299 1169.15 28.9478 Z" fill="#000000" fill-rule="nonzero" fill-opacity="1" /><path clip-path="url(#clip920)" d="M1189.49 14.324 L1189.49 27.2059 L1204.84 27.2059 L1204.84 32.9987 L1189.49 32.9987 L1189.49 57.6282 Q1189.49 63.1779 1190.98 64.7578 Q1192.52 66.3376 1197.18 66.3376 L1204.84 66.3376 L1204.84 72.576 L1197.18 72.576 Q1188.55 72.576 1185.27 69.3758 Q1181.99 66.1351 1181.99 57.6282 L1181.99 32.9987 L1176.52 32.9987 L1176.52 27.2059 L1181.99 27.2059 L1181.99 14.324 L1189.49 14.324 Z" fill="#000000" fill-rule="nonzero" fill-opacity="1" /><path clip-path="url(#clip920)" d="M1253.45 48.0275 L1253.45 51.6733 L1219.18 51.6733 Q1219.66 59.3701 1223.8 63.421 Q1227.97 67.4314 1235.38 67.4314 Q1239.68 67.4314 1243.69 66.3781 Q1247.74 65.3249 1251.71 63.2184 L1251.71 70.267 Q1247.7 71.9684 1243.48 72.8596 Q1239.27 73.7508 1234.94 73.7508 Q1224.08 73.7508 1217.72 67.4314 Q1211.4 61.1119 1211.4 50.3365 Q1211.4 39.1965 1217.4 32.6746 Q1223.43 26.1121 1233.64 26.1121 Q1242.8 26.1121 1248.1 32.0264 Q1253.45 37.9003 1253.45 48.0275 M1246 45.84 Q1245.91 39.7232 1242.55 36.0774 Q1239.23 32.4315 1233.72 32.4315 Q1227.48 32.4315 1223.72 35.9558 Q1219.99 39.4801 1219.42 45.8805 L1246 45.84 Z" fill="#000000" fill-rule="nonzero" fill-opacity="1" /><path clip-path="url(#clip920)" d="M1295.54 34.0924 L1295.54 9.54393 L1302.99 9.54393 L1302.99 72.576 L1295.54 72.576 L1295.54 65.7705 Q1293.19 69.8214 1289.58 71.8063 Q1286.02 73.7508 1281 73.7508 Q1272.77 73.7508 1267.59 67.1883 Q1262.44 60.6258 1262.44 49.9314 Q1262.44 39.2371 1267.59 32.6746 Q1272.77 26.1121 1281 26.1121 Q1286.02 26.1121 1289.58 28.0971 Q1293.19 30.0415 1295.54 34.0924 M1270.14 49.9314 Q1270.14 58.1548 1273.5 62.8538 Q1276.9 67.5124 1282.82 67.5124 Q1288.73 67.5124 1292.14 62.8538 Q1295.54 58.1548 1295.54 49.9314 Q1295.54 41.7081 1292.14 37.0496 Q1288.73 32.3505 1282.82 32.3505 Q1276.9 32.3505 1273.5 37.0496 Q1270.14 41.7081 1270.14 49.9314 Z" fill="#000000" fill-rule="nonzero" fill-opacity="1" /><path clip-path="url(#clip920)" d="M1377.29 49.9314 Q1377.29 41.7081 1373.88 37.0496 Q1370.52 32.3505 1364.61 32.3505 Q1358.69 32.3505 1355.29 37.0496 Q1351.93 41.7081 1351.93 49.9314 Q1351.93 58.1548 1355.29 62.8538 Q1358.69 67.5124 1364.61 67.5124 Q1370.52 67.5124 1373.88 62.8538 Q1377.29 58.1548 1377.29 49.9314 M1351.93 34.0924 Q1354.28 30.0415 1357.84 28.0971 Q1361.45 26.1121 1366.43 26.1121 Q1374.69 26.1121 1379.84 32.6746 Q1385.02 39.2371 1385.02 49.9314 Q1385.02 60.6258 1379.84 67.1883 Q1374.69 73.7508 1366.43 73.7508 Q1361.45 73.7508 1357.84 71.8063 Q1354.28 69.8214 1351.93 65.7705 L1351.93 72.576 L1344.43 72.576 L1344.43 9.54393 L1351.93 9.54393 L1351.93 34.0924 Z" fill="#000000" fill-rule="nonzero" fill-opacity="1" /><path clip-path="url(#clip920)" d="M1416.26 76.7889 Q1413.1 84.8907 1410.1 87.3618 Q1407.1 89.8329 1402.08 89.8329 L1396.12 89.8329 L1396.12 83.5945 L1400.5 83.5945 Q1403.58 83.5945 1405.28 82.1361 Q1406.98 80.6778 1409.04 75.2496 L1410.38 71.8468 L1392.03 27.2059 L1399.93 27.2059 L1414.11 62.6918 L1428.29 27.2059 L1436.19 27.2059 L1416.26 76.7889 Z" fill="#000000" fill-rule="nonzero" fill-opacity="1" /><path clip-path="url(#clip920)" d="M1493.38 20.1573 L1482.28 50.2555 L1504.52 50.2555 L1493.38 20.1573 M1488.77 12.096 L1498.04 12.096 L1521.09 72.576 L1512.59 72.576 L1507.08 57.061 L1479.81 57.061 L1474.3 72.576 L1465.68 72.576 L1488.77 12.096 Z" fill="#000000" fill-rule="nonzero" fill-opacity="1" /><path clip-path="url(#clip920)" d="M1559.45 49.3643 Q1559.45 41.2625 1556.09 36.8065 Q1552.77 32.3505 1546.73 32.3505 Q1540.74 32.3505 1537.38 36.8065 Q1534.06 41.2625 1534.06 49.3643 Q1534.06 57.4256 1537.38 61.8816 Q1540.74 66.3376 1546.73 66.3376 Q1552.77 66.3376 1556.09 61.8816 Q1559.45 57.4256 1559.45 49.3643 M1566.91 66.9452 Q1566.91 78.5308 1561.76 84.1616 Q1556.62 89.8329 1546.01 89.8329 Q1542.08 89.8329 1538.59 89.2252 Q1535.11 88.6581 1531.83 87.4428 L1531.83 80.1917 Q1535.11 81.9741 1538.31 82.8248 Q1541.51 83.6755 1544.83 83.6755 Q1552.16 83.6755 1555.81 79.8271 Q1559.45 76.0193 1559.45 68.282 L1559.45 64.5957 Q1557.15 68.6061 1553.54 70.5911 Q1549.93 72.576 1544.91 72.576 Q1536.57 72.576 1531.46 66.2161 Q1526.36 59.8562 1526.36 49.3643 Q1526.36 38.832 1531.46 32.472 Q1536.57 26.1121 1544.91 26.1121 Q1549.93 26.1121 1553.54 28.0971 Q1557.15 30.082 1559.45 34.0924 L1559.45 27.2059 L1566.91 27.2059 L1566.91 66.9452 Z" fill="#000000" fill-rule="nonzero" fill-opacity="1" /><path clip-path="url(#clip920)" d="M1621.07 48.0275 L1621.07 51.6733 L1586.8 51.6733 Q1587.28 59.3701 1591.42 63.421 Q1595.59 67.4314 1603 67.4314 Q1607.3 67.4314 1611.31 66.3781 Q1615.36 65.3249 1619.33 63.2184 L1619.33 70.267 Q1615.32 71.9684 1611.1 72.8596 Q1606.89 73.7508 1602.56 73.7508 Q1591.7 73.7508 1585.34 67.4314 Q1579.02 61.1119 1579.02 50.3365 Q1579.02 39.1965 1585.02 32.6746 Q1591.05 26.1121 1601.26 26.1121 Q1610.41 26.1121 1615.72 32.0264 Q1621.07 37.9003 1621.07 48.0275 M1613.62 45.84 Q1613.53 39.7232 1610.17 36.0774 Q1606.85 32.4315 1601.34 32.4315 Q1595.1 32.4315 1591.34 35.9558 Q1587.61 39.4801 1587.04 45.8805 L1613.62 45.84 Z" fill="#000000" fill-rule="nonzero" fill-opacity="1" /><path clip-path="url(#clip920)" d="M1701.24 63.9476 L1701.24 47.7034 L1687.87 47.7034 L1687.87 40.9789 L1709.34 40.9789 L1709.34 66.9452 Q1704.6 70.3075 1698.89 72.0494 Q1693.17 73.7508 1686.69 73.7508 Q1672.52 73.7508 1664.49 65.4869 Q1656.51 57.1826 1656.51 42.3968 Q1656.51 27.5705 1664.49 19.3066 Q1672.52 11.0023 1686.69 11.0023 Q1692.61 11.0023 1697.91 12.4606 Q1703.26 13.9189 1707.76 16.7545 L1707.76 25.464 Q1703.22 21.6156 1698.12 19.6712 Q1693.01 17.7268 1687.38 17.7268 Q1676.28 17.7268 1670.69 23.9246 Q1665.14 30.1225 1665.14 42.3968 Q1665.14 54.6305 1670.69 60.8284 Q1676.28 67.0263 1687.38 67.0263 Q1691.72 67.0263 1695.12 66.2971 Q1698.52 65.5274 1701.24 63.9476 Z" fill="#000000" fill-rule="nonzero" fill-opacity="1" /><path clip-path="url(#clip920)" d="M1750.25 34.1734 Q1749 33.4443 1747.5 33.1202 Q1746.04 32.7556 1744.26 32.7556 Q1737.94 32.7556 1734.53 36.8875 Q1731.17 40.9789 1731.17 48.6757 L1731.17 72.576 L1723.68 72.576 L1723.68 27.2059 L1731.17 27.2059 L1731.17 34.2544 Q1733.52 30.1225 1737.29 28.1376 Q1741.06 26.1121 1746.44 26.1121 Q1747.21 26.1121 1748.15 26.2337 Q1749.08 26.3147 1750.21 26.5172 L1750.25 34.1734 Z" fill="#000000" fill-rule="nonzero" fill-opacity="1" /><path clip-path="url(#clip920)" d="M1773.83 32.4315 Q1767.83 32.4315 1764.35 37.1306 Q1760.87 41.7891 1760.87 49.9314 Q1760.87 58.0738 1764.31 62.7728 Q1767.79 67.4314 1773.83 67.4314 Q1779.78 67.4314 1783.27 62.7323 Q1786.75 58.0333 1786.75 49.9314 Q1786.75 41.8701 1783.27 37.1711 Q1779.78 32.4315 1773.83 32.4315 M1773.83 26.1121 Q1783.55 26.1121 1789.1 32.4315 Q1794.65 38.7509 1794.65 49.9314 Q1794.65 61.0714 1789.1 67.4314 Q1783.55 73.7508 1773.83 73.7508 Q1764.07 73.7508 1758.52 67.4314 Q1753.01 61.0714 1753.01 49.9314 Q1753.01 38.7509 1758.52 32.4315 Q1764.07 26.1121 1773.83 26.1121 Z" fill="#000000" fill-rule="nonzero" fill-opacity="1" /><path clip-path="url(#clip920)" d="M1806.24 54.671 L1806.24 27.2059 L1813.69 27.2059 L1813.69 54.3874 Q1813.69 60.8284 1816.2 64.0691 Q1818.71 67.2693 1823.74 67.2693 Q1829.77 67.2693 1833.26 63.421 Q1836.78 59.5726 1836.78 52.9291 L1836.78 27.2059 L1844.23 27.2059 L1844.23 72.576 L1836.78 72.576 L1836.78 65.6084 Q1834.07 69.7404 1830.46 71.7658 Q1826.9 73.7508 1822.16 73.7508 Q1814.34 73.7508 1810.29 68.8897 Q1806.24 64.0286 1806.24 54.671 M1824.99 26.1121 L1824.99 26.1121 Z" fill="#000000" fill-rule="nonzero" fill-opacity="1" /><path clip-path="url(#clip920)" d="M1866.8 65.7705 L1866.8 89.8329 L1859.3 89.8329 L1859.3 27.2059 L1866.8 27.2059 L1866.8 34.0924 Q1869.15 30.0415 1872.71 28.0971 Q1876.32 26.1121 1881.3 26.1121 Q1889.56 26.1121 1894.71 32.6746 Q1899.89 39.2371 1899.89 49.9314 Q1899.89 60.6258 1894.71 67.1883 Q1889.56 73.7508 1881.3 73.7508 Q1876.32 73.7508 1872.71 71.8063 Q1869.15 69.8214 1866.8 65.7705 M1892.16 49.9314 Q1892.16 41.7081 1888.75 37.0496 Q1885.39 32.3505 1879.48 32.3505 Q1873.56 32.3505 1870.16 37.0496 Q1866.8 41.7081 1866.8 49.9314 Q1866.8 58.1548 1870.16 62.8538 Q1873.56 67.5124 1879.48 67.5124 Q1885.39 67.5124 1888.75 62.8538 Q1892.16 58.1548 1892.16 49.9314 Z" fill="#000000" fill-rule="nonzero" fill-opacity="1" /><polyline clip-path="url(#clip921)" style="stroke:#0000ff; stroke-linecap:round; stroke-linejoin:round; stroke-width:4; stroke-opacity:1; fill:none" points="306.647,1639.96 312.313,1636.34 317.978,1632.25 323.643,1627.65 329.309,1622.5 334.974,1616.75 340.639,1610.34 346.305,1603.23 351.97,1595.34 357.635,1586.62 363.3,1577 368.966,1566.42 374.631,1554.78 380.296,1542.03 385.962,1528.08 391.627,1512.88 397.292,1496.34 402.958,1478.4 408.623,1459.01 414.288,1438.12 419.954,1415.67 425.619,1391.62 431.284,1365.97 436.95,1338.73 442.615,1309.96 448.28,1279.71 453.945,1248.1 459.611,1215.23 465.276,1181.21 470.941,1146.23 476.607,1110.57 482.272,1074.54 487.937,1038.41 493.603,1002.5 499.268,967.103 504.933,932.511 510.599,899.03 516.264,866.961 521.929,836.609 527.595,808.278 533.26,782.275 538.925,758.908 544.59,738.403 550.256,720.823 555.921,706.191 561.586,694.513 567.252,685.772 572.917,679.931 578.582,676.933 584.248,676.7 589.913,679.134 595.578,684.114 601.244,691.503 606.909,701.138 612.574,712.84 618.24,726.408 623.905,741.618 629.57,758.231 635.235,776.059 640.901,794.939 646.566,814.693 652.231,835.157 657.897,856.179 663.562,877.622 669.227,899.358 674.893,921.276 680.558,943.276 686.223,965.269 691.889,987.183 697.554,1008.96 703.219,1030.54 708.885,1051.89 714.55,1073 720.215,1093.85 725.88,1114.35 731.546,1134.42 737.211,1154.05 742.876,1173.21 748.542,1191.9 754.207,1210.1 759.872,1227.81 765.538,1245.02 771.203,1261.72 776.868,1277.91 782.534,1293.6 788.199,1308.78 793.864,1323.47 799.53,1337.67 805.195,1351.39 810.86,1364.65 816.525,1377.45 822.191,1389.82 827.856,1401.74 833.521,1413.24 839.187,1424.33 844.852,1435 850.517,1445.28 856.183,1455.18 861.848,1464.7 867.513,1473.86 873.179,1482.66 878.844,1491.12 884.509,1499.25 890.175,1507.05 895.84,1514.55 901.505,1521.75 907.17,1528.65 912.836,1535.28 918.501,1541.64 924.166,1547.75 929.832,1553.61 935.497,1559.24 941.162,1564.64 946.828,1569.83 952.493,1574.81 958.158,1579.6 963.824,1584.18 969.489,1588.59 975.154,1592.81 980.82,1596.85 986.485,1600.73 992.15,1604.44 997.815,1607.99 1003.48,1611.4 1009.15,1614.66 1014.81,1617.78 1020.48,1620.77 1026.14,1623.62 1031.81,1626.36 1037.47,1628.98 1043.14,1631.49 1048.8,1633.89 1054.47,1636.2 1060.13,1638.41 1065.8,1640.52 1071.46,1642.56 1077.13,1644.51 1082.8,1646.39 1088.46,1648.18 1094.13,1649.9 1099.79,1651.55 1105.46,1653.13 1111.12,1654.64 1116.79,1656.08 1122.45,1657.47 1128.12,1658.79 1133.78,1660.06 1139.45,1661.27 1145.11,1662.43 1150.78,1663.53 1156.44,1664.6 1162.11,1665.61 1167.77,1666.58 1173.44,1667.51 1179.11,1668.4 1184.77,1669.25 1190.44,1670.07 1196.1,1670.86 1201.77,1671.61 1207.43,1672.33 1213.1,1673.03 1218.76,1673.69 1224.43,1674.33 1230.09,1674.94 1235.76,1675.52 1241.42,1676.08 1247.09,1676.61 1252.75,1677.12 1258.42,1677.61 1264.09,1678.07 1269.75,1678.52 1275.42,1678.95 1281.08,1679.36 1286.75,1679.75 1292.41,1680.12 1298.08,1680.48 1303.74,1680.82 1309.41,1681.15 1315.07,1681.47 1320.74,1681.77 1326.4,1682.06 1332.07,1682.34 1337.73,1682.6 1343.4,1682.86 1349.06,1683.1 1354.73,1683.34 1360.4,1683.56 1366.06,1683.78 1371.73,1683.98 1377.39,1684.18 1383.06,1684.37 1388.72,1684.55 1394.39,1684.72 1400.05,1684.89 1405.72,1685.05 1411.38,1685.2 1417.05,1685.34 1422.71,1685.48 1428.38,1685.61 1434.04,1685.74 1439.71,1685.86 1445.38,1685.98 1451.04,1686.09 1456.71,1686.2 1462.37,1686.3 1468.04,1686.4 1473.7,1686.49 1479.37,1686.59 1485.03,1686.67 1490.7,1686.76 1496.36,1686.84 1502.03,1686.91 1507.69,1686.98 1513.36,1687.05 1519.02,1687.12 1524.69,1687.19 1530.35,1687.25 1536.02,1687.31 1541.69,1687.36 1547.35,1687.42 1553.02,1687.47 1558.68,1687.52 1564.35,1687.56 1570.01,1687.61 1575.68,1687.65 1581.34,1687.69 1587.01,1687.73 1592.67,1687.77 1598.34,1687.81 1604,1687.85 1609.67,1687.88 1615.33,1687.91 1621,1687.94 1626.67,1687.97 1632.33,1688 1638,1688.03 1643.66,1688.05 1649.33,1688.08 1654.99,1688.1 1660.66,1688.13 1666.32,1688.15 1671.99,1688.17 1677.65,1688.19 1683.32,1688.21 1688.98,1688.23 1694.65,1688.24 1700.31,1688.26 1705.98,1688.28 1711.64,1688.29 1717.31,1688.31 1722.98,1688.32 1728.64,1688.34 1734.31,1688.35 1739.97,1688.36 1745.64,1688.37 1751.3,1688.39 1756.97,1688.4 1762.63,1688.41 1768.3,1688.42 1773.96,1688.43 1779.63,1688.44 1785.29,1688.45 1790.96,1688.46 1796.62,1688.46 1802.29,1688.47 1807.96,1688.48 1813.62,1688.49 1819.29,1688.49 1824.95,1688.5 1830.62,1688.51 1836.28,1688.51 1841.95,1688.52 1847.61,1688.52 1853.28,1688.53 1858.94,1688.53 1864.61,1688.54 1870.27,1688.54 1875.94,1688.55 1881.6,1688.55 1887.27,1688.56 1892.93,1688.56 1898.6,1688.57 1904.27,1688.57 1909.93,1688.57 1915.6,1688.58 1921.26,1688.58 1926.93,1688.58 1932.59,1688.59 1938.26,1688.59 1943.92,1688.59 1949.59,1688.59 1955.25,1688.6 1960.92,1688.6 1966.58,1688.6 1972.25,1688.6 1977.91,1688.61 1983.58,1688.61 1989.25,1688.61 1994.91,1688.61 2000.58,1688.61 2006.24,1688.62 2011.91,1688.62 2017.57,1688.62 2023.24,1688.62 2028.9,1688.62 2034.57,1688.62 2040.23,1688.62 2045.9,1688.63 2051.56,1688.63 2057.23,1688.63 2062.89,1688.63 2068.56,1688.63 2074.22,1688.63 2079.89,1688.63 2085.56,1688.63 2091.22,1688.63 2096.89,1688.63 2102.55,1688.64 2108.22,1688.64 2113.88,1688.64 2119.55,1688.64 2125.21,1688.64 2130.88,1688.64 2136.54,1688.64 2142.21,1688.64 2147.87,1688.64 2153.54,1688.64 2159.2,1688.64 2164.87,1688.64 2170.54,1688.64 2176.2,1688.64 2181.87,1688.64 2187.53,1688.64 2193.2,1688.65 2198.86,1688.65 2204.53,1688.65 2210.19,1688.65 2215.86,1688.65 2221.52,1688.65 2227.19,1688.65 2232.85,1688.65 2238.52,1688.65 2244.18,1688.65 2249.85,1688.65 2255.51,1688.65 2261.18,1688.65 2266.85,1688.65 2272.51,1688.65 2278.18,1688.65 2283.84,1688.65 2289.51,1688.65 2295.17,1688.65 2300.84,1688.65 2306.5,1688.65 2312.17,1688.65 2317.83,1688.65 2323.5,1688.65 2329.16,1688.65 2334.83,1688.65 2340.49,1688.65 2346.16,1688.65 2351.82,1688.65 2357.49,1688.65 2363.16,1688.65 2368.82,1688.65 2374.49,1688.65 2380.15,1688.65 2385.82,1688.65 2391.48,1688.65 2397.15,1688.65 2402.81,1688.65 2408.48,1688.65 2414.14,1688.65 2419.81,1688.65 2425.47,1688.65 2431.14,1688.65 2436.8,1688.65 2442.47,1688.65 2448.14,1688.65 2453.8,1688.65 2459.47,1688.65 2465.13,1688.65 2470.8,1688.65 2476.46,1688.65 2482.13,1688.65 2487.79,1688.65 2493.46,1688.65 2499.12,1688.65 2504.79,1688.65 2510.45,1688.65 2516.12,1688.65 2521.78,1688.65 2527.45,1688.65 2533.11,1688.65 2538.78,1688.65 2544.45,1688.65 2550.11,1688.65 2555.78,1688.65 2561.44,1688.65 2567.11,1688.65 2572.77,1688.65 "/>
<polyline clip-path="url(#clip921)" style="stroke:#ff0000; stroke-linecap:round; stroke-linejoin:round; stroke-width:4; stroke-opacity:1; fill:none" points="306.647,1659.44 312.313,1653.36 317.978,1646.77 323.643,1639.61 329.309,1631.83 334.974,1623.35 340.639,1614.1 346.305,1604 351.97,1592.98 357.635,1580.94 363.3,1567.8 368.966,1553.46 374.631,1537.82 380.296,1520.77 385.962,1502.2 391.627,1482.01 397.292,1460.1 402.958,1436.36 408.623,1410.71 414.288,1383.05 419.954,1353.28 425.619,1321.32 431.284,1287.12 436.95,1250.68 442.615,1211.99 448.28,1171.1 453.945,1128.09 459.611,1083.05 465.276,1036.06 470.941,987.328 476.607,937.137 482.272,885.807 487.937,833.672 493.603,781.078 499.268,728.391 504.933,675.99 510.599,624.271 516.264,573.646 521.929,524.543 527.595,477.405 533.26,432.692 538.925,390.878 544.59,352.343 550.256,317.288 555.921,285.868 561.586,258.207 567.252,234.392 572.917,214.483 578.582,198.504 584.248,186.448 589.913,178.275 595.578,173.912 601.244,173.254 606.909,176.165 612.574,182.475 618.24,191.98 623.905,204.448 629.57,219.611 635.235,237.213 640.901,257.006 646.566,278.737 652.231,302.168 657.897,327.074 663.562,353.247 669.227,380.491 674.893,408.623 680.558,437.476 686.223,466.896 691.889,496.743 697.554,526.893 703.219,557.233 708.885,587.665 714.55,618.107 720.215,648.489 725.88,678.687 731.546,708.606 737.211,738.189 742.876,767.386 748.542,796.15 754.207,824.442 759.872,852.223 765.538,879.463 771.203,906.133 776.868,932.211 782.534,957.68 788.199,982.526 793.864,1006.74 799.53,1030.32 805.195,1053.26 810.86,1075.58 816.525,1097.27 822.191,1118.35 827.856,1138.8 833.521,1158.63 839.187,1177.85 844.852,1196.48 850.517,1214.52 856.183,1231.98 861.848,1248.88 867.513,1265.23 873.179,1281.03 878.844,1296.31 884.509,1311.06 890.175,1325.31 895.84,1339.07 901.505,1352.34 907.17,1365.14 912.836,1377.49 918.501,1389.39 924.166,1400.87 929.832,1411.92 935.497,1422.58 941.162,1432.84 946.828,1442.73 952.493,1452.26 958.158,1461.44 963.824,1470.28 969.489,1478.79 975.154,1486.99 980.82,1494.88 986.485,1502.46 992.15,1509.77 997.815,1516.79 1003.48,1523.54 1009.15,1530.03 1014.81,1536.27 1020.48,1542.27 1026.14,1548.04 1031.81,1553.58 1037.47,1558.9 1043.14,1564.02 1048.8,1568.94 1054.47,1573.67 1060.13,1578.22 1065.8,1582.59 1071.46,1586.8 1077.13,1590.85 1082.8,1594.74 1088.46,1598.48 1094.13,1602.07 1099.79,1605.53 1105.46,1608.84 1111.12,1612.03 1116.79,1615.09 1122.45,1618.03 1128.12,1620.85 1133.78,1623.56 1139.45,1626.16 1145.11,1628.65 1150.78,1631.05 1156.44,1633.34 1162.11,1635.55 1167.77,1637.67 1173.44,1639.7 1179.11,1641.66 1184.77,1643.53 1190.44,1645.34 1196.1,1647.07 1201.77,1648.74 1207.43,1650.34 1213.1,1651.88 1218.76,1653.36 1224.43,1654.78 1230.09,1656.14 1235.76,1657.45 1241.42,1658.7 1247.09,1659.91 1252.75,1661.06 1258.42,1662.17 1264.09,1663.23 1269.75,1664.25 1275.42,1665.23 1281.08,1666.17 1286.75,1667.07 1292.41,1667.94 1298.08,1668.77 1303.74,1669.56 1309.41,1670.33 1315.07,1671.06 1320.74,1671.77 1326.4,1672.45 1332.07,1673.1 1337.73,1673.73 1343.4,1674.33 1349.06,1674.9 1354.73,1675.46 1360.4,1675.99 1366.06,1676.5 1371.73,1676.99 1377.39,1677.46 1383.06,1677.91 1388.72,1678.35 1394.39,1678.76 1400.05,1679.16 1405.72,1679.54 1411.38,1679.9 1417.05,1680.26 1422.71,1680.59 1428.38,1680.92 1434.04,1681.23 1439.71,1681.52 1445.38,1681.81 1451.04,1682.09 1456.71,1682.35 1462.37,1682.61 1468.04,1682.85 1473.7,1683.08 1479.37,1683.31 1485.03,1683.52 1490.7,1683.73 1496.36,1683.93 1502.03,1684.12 1507.69,1684.3 1513.36,1684.48 1519.02,1684.65 1524.69,1684.81 1530.35,1684.96 1536.02,1685.11 1541.69,1685.25 1547.35,1685.39 1553.02,1685.52 1558.68,1685.65 1564.35,1685.77 1570.01,1685.88 1575.68,1685.99 1581.34,1686.1 1587.01,1686.2 1592.67,1686.3 1598.34,1686.4 1604,1686.49 1609.67,1686.58 1615.33,1686.66 1621,1686.74 1626.67,1686.82 1632.33,1686.89 1638,1686.96 1643.66,1687.03 1649.33,1687.1 1654.99,1687.16 1660.66,1687.22 1666.32,1687.28 1671.99,1687.33 1677.65,1687.39 1683.32,1687.44 1688.98,1687.49 1694.65,1687.53 1700.31,1687.58 1705.98,1687.62 1711.64,1687.66 1717.31,1687.7 1722.98,1687.74 1728.64,1687.78 1734.31,1687.81 1739.97,1687.85 1745.64,1687.88 1751.3,1687.91 1756.97,1687.94 1762.63,1687.97 1768.3,1688 1773.96,1688.02 1779.63,1688.05 1785.29,1688.07 1790.96,1688.1 1796.62,1688.12 1802.29,1688.14 1807.96,1688.16 1813.62,1688.18 1819.29,1688.2 1824.95,1688.22 1830.62,1688.24 1836.28,1688.25 1841.95,1688.27 1847.61,1688.29 1853.28,1688.3 1858.94,1688.31 1864.61,1688.33 1870.27,1688.34 1875.94,1688.35 1881.6,1688.37 1887.27,1688.38 1892.93,1688.39 1898.6,1688.4 1904.27,1688.41 1909.93,1688.42 1915.6,1688.43 1921.26,1688.44 1926.93,1688.45 1932.59,1688.46 1938.26,1688.46 1943.92,1688.47 1949.59,1688.48 1955.25,1688.49 1960.92,1688.49 1966.58,1688.5 1972.25,1688.51 1977.91,1688.51 1983.58,1688.52 1989.25,1688.52 1994.91,1688.53 2000.58,1688.53 2006.24,1688.54 2011.91,1688.54 2017.57,1688.55 2023.24,1688.55 2028.9,1688.56 2034.57,1688.56 2040.23,1688.56 2045.9,1688.57 2051.56,1688.57 2057.23,1688.57 2062.89,1688.58 2068.56,1688.58 2074.22,1688.58 2079.89,1688.59 2085.56,1688.59 2091.22,1688.59 2096.89,1688.59 2102.55,1688.6 2108.22,1688.6 2113.88,1688.6 2119.55,1688.6 2125.21,1688.61 2130.88,1688.61 2136.54,1688.61 2142.21,1688.61 2147.87,1688.61 2153.54,1688.62 2159.2,1688.62 2164.87,1688.62 2170.54,1688.62 2176.2,1688.62 2181.87,1688.62 2187.53,1688.62 2193.2,1688.63 2198.86,1688.63 2204.53,1688.63 2210.19,1688.63 2215.86,1688.63 2221.52,1688.63 2227.19,1688.63 2232.85,1688.63 2238.52,1688.63 2244.18,1688.63 2249.85,1688.64 2255.51,1688.64 2261.18,1688.64 2266.85,1688.64 2272.51,1688.64 2278.18,1688.64 2283.84,1688.64 2289.51,1688.64 2295.17,1688.64 2300.84,1688.64 2306.5,1688.64 2312.17,1688.64 2317.83,1688.64 2323.5,1688.64 2329.16,1688.64 2334.83,1688.64 2340.49,1688.65 2346.16,1688.65 2351.82,1688.65 2357.49,1688.65 2363.16,1688.65 2368.82,1688.65 2374.49,1688.65 2380.15,1688.65 2385.82,1688.65 2391.48,1688.65 2397.15,1688.65 2402.81,1688.65 2408.48,1688.65 2414.14,1688.65 2419.81,1688.65 2425.47,1688.65 2431.14,1688.65 2436.8,1688.65 2442.47,1688.65 2448.14,1688.65 2453.8,1688.65 2459.47,1688.65 2465.13,1688.65 2470.8,1688.65 2476.46,1688.65 2482.13,1688.65 2487.79,1688.65 2493.46,1688.65 2499.12,1688.65 2504.79,1688.65 2510.45,1688.65 2516.12,1688.65 2521.78,1688.65 2527.45,1688.65 2533.11,1688.65 2538.78,1688.65 2544.45,1688.65 2550.11,1688.65 2555.78,1688.65 2561.44,1688.65 2567.11,1688.65 2572.77,1688.65 "/>
<polyline clip-path="url(#clip921)" style="stroke:#008000; stroke-linecap:round; stroke-linejoin:round; stroke-width:4; stroke-opacity:1; fill:none" points="306.647,1669.18 312.313,1668.23 317.978,1667.12 323.643,1665.83 329.309,1664.36 334.974,1662.69 340.639,1660.79 346.305,1658.66 351.97,1656.26 357.635,1653.58 363.3,1650.59 368.966,1647.27 374.631,1643.6 380.296,1639.53 385.962,1635.05 391.627,1630.12 397.292,1624.72 402.958,1618.81 408.623,1612.36 414.288,1605.36 419.954,1597.75 425.619,1589.52 431.284,1580.65 436.95,1571.11 442.615,1560.9 448.28,1550.02 453.945,1538.47 459.611,1526.26 465.276,1513.4 470.941,1499.93 476.607,1485.89 482.272,1471.36 487.937,1456.39 493.603,1441.07 499.268,1425.48 504.933,1409.72 510.599,1393.88 516.264,1378.06 521.929,1362.4 527.595,1347 533.26,1332 538.925,1317.53 544.59,1303.7 550.256,1290.6 555.921,1278.32 561.586,1266.91 567.252,1256.44 572.917,1246.97 578.582,1238.52 584.248,1231.13 589.913,1224.82 595.578,1219.59 601.244,1215.46 606.909,1212.4 612.574,1210.4 618.24,1209.42 623.905,1209.43 629.57,1210.38 635.235,1212.21 640.901,1214.87 646.566,1218.3 652.231,1222.42 657.897,1227.19 663.562,1232.54 669.227,1238.42 674.893,1244.77 680.558,1251.55 686.223,1258.69 691.889,1266.17 697.554,1273.94 703.219,1281.94 708.885,1290.15 714.55,1298.54 720.215,1307.05 725.88,1315.67 731.546,1324.35 737.211,1333.07 742.876,1341.81 748.542,1350.55 754.207,1359.26 759.872,1367.93 765.538,1376.53 771.203,1385.05 776.868,1393.48 782.534,1401.81 788.199,1410.02 793.864,1418.1 799.53,1426.05 805.195,1433.86 810.86,1441.52 816.525,1449.04 822.191,1456.4 827.856,1463.6 833.521,1470.64 839.187,1477.51 844.852,1484.22 850.517,1490.77 856.183,1497.16 861.848,1503.39 867.513,1509.46 873.179,1515.37 878.844,1521.13 884.509,1526.73 890.175,1532.17 895.84,1537.47 901.505,1542.61 907.17,1547.6 912.836,1552.44 918.501,1557.13 924.166,1561.69 929.832,1566.09 935.497,1570.36 941.162,1574.49 946.828,1578.49 952.493,1582.36 958.158,1586.1 963.824,1589.72 969.489,1593.23 975.154,1596.62 980.82,1599.9 986.485,1603.08 992.15,1606.15 997.815,1609.11 1003.48,1611.98 1009.15,1614.75 1014.81,1617.43 1020.48,1620.02 1026.14,1622.52 1031.81,1624.93 1037.47,1627.26 1043.14,1629.51 1048.8,1631.68 1054.47,1633.77 1060.13,1635.79 1065.8,1637.74 1071.46,1639.62 1077.13,1641.43 1082.8,1643.18 1088.46,1644.86 1094.13,1646.49 1099.79,1648.05 1105.46,1649.56 1111.12,1651.02 1116.79,1652.42 1122.45,1653.78 1128.12,1655.08 1133.78,1656.34 1139.45,1657.55 1145.11,1658.72 1150.78,1659.84 1156.44,1660.92 1162.11,1661.97 1167.77,1662.97 1173.44,1663.94 1179.11,1664.87 1184.77,1665.77 1190.44,1666.64 1196.1,1667.47 1201.77,1668.27 1207.43,1669.04 1213.1,1669.79 1218.76,1670.51 1224.43,1671.2 1230.09,1671.86 1235.76,1672.5 1241.42,1673.12 1247.09,1673.71 1252.75,1674.28 1258.42,1674.83 1264.09,1675.36 1269.75,1675.87 1275.42,1676.35 1281.08,1676.82 1286.75,1677.28 1292.41,1677.71 1298.08,1678.13 1303.74,1678.54 1309.41,1678.92 1315.07,1679.3 1320.74,1679.66 1326.4,1680 1332.07,1680.34 1337.73,1680.66 1343.4,1680.96 1349.06,1681.26 1354.73,1681.55 1360.4,1681.82 1366.06,1682.09 1371.73,1682.34 1377.39,1682.58 1383.06,1682.82 1388.72,1683.04 1394.39,1683.26 1400.05,1683.47 1405.72,1683.67 1411.38,1683.86 1417.05,1684.05 1422.71,1684.23 1428.38,1684.4 1434.04,1684.56 1439.71,1684.72 1445.38,1684.87 1451.04,1685.02 1456.71,1685.16 1462.37,1685.3 1468.04,1685.43 1473.7,1685.56 1479.37,1685.68 1485.03,1685.79 1490.7,1685.9 1496.36,1686.01 1502.03,1686.11 1507.69,1686.21 1513.36,1686.31 1519.02,1686.4 1524.69,1686.49 1530.35,1686.57 1536.02,1686.65 1541.69,1686.73 1547.35,1686.81 1553.02,1686.88 1558.68,1686.95 1564.35,1687.02 1570.01,1687.08 1575.68,1687.14 1581.34,1687.2 1587.01,1687.26 1592.67,1687.31 1598.34,1687.36 1604,1687.42 1609.67,1687.46 1615.33,1687.51 1621,1687.56 1626.67,1687.6 1632.33,1687.64 1638,1687.68 1643.66,1687.72 1649.33,1687.76 1654.99,1687.79 1660.66,1687.82 1666.32,1687.86 1671.99,1687.89 1677.65,1687.92 1683.32,1687.95 1688.98,1687.98 1694.65,1688 1700.31,1688.03 1705.98,1688.05 1711.64,1688.08 1717.31,1688.1 1722.98,1688.12 1728.64,1688.14 1734.31,1688.16 1739.97,1688.18 1745.64,1688.2 1751.3,1688.22 1756.97,1688.24 1762.63,1688.25 1768.3,1688.27 1773.96,1688.28 1779.63,1688.3 1785.29,1688.31 1790.96,1688.33 1796.62,1688.34 1802.29,1688.35 1807.96,1688.36 1813.62,1688.37 1819.29,1688.39 1824.95,1688.4 1830.62,1688.41 1836.28,1688.42 1841.95,1688.43 1847.61,1688.44 1853.28,1688.44 1858.94,1688.45 1864.61,1688.46 1870.27,1688.47 1875.94,1688.48 1881.6,1688.48 1887.27,1688.49 1892.93,1688.5 1898.6,1688.5 1904.27,1688.51 1909.93,1688.51 1915.6,1688.52 1921.26,1688.53 1926.93,1688.53 1932.59,1688.54 1938.26,1688.54 1943.92,1688.54 1949.59,1688.55 1955.25,1688.55 1960.92,1688.56 1966.58,1688.56 1972.25,1688.57 1977.91,1688.57 1983.58,1688.57 1989.25,1688.58 1994.91,1688.58 2000.58,1688.58 2006.24,1688.58 2011.91,1688.59 2017.57,1688.59 2023.24,1688.59 2028.9,1688.6 2034.57,1688.6 2040.23,1688.6 2045.9,1688.6 2051.56,1688.6 2057.23,1688.61 2062.89,1688.61 2068.56,1688.61 2074.22,1688.61 2079.89,1688.61 2085.56,1688.62 2091.22,1688.62 2096.89,1688.62 2102.55,1688.62 2108.22,1688.62 2113.88,1688.62 2119.55,1688.62 2125.21,1688.63 2130.88,1688.63 2136.54,1688.63 2142.21,1688.63 2147.87,1688.63 2153.54,1688.63 2159.2,1688.63 2164.87,1688.63 2170.54,1688.63 2176.2,1688.63 2181.87,1688.64 2187.53,1688.64 2193.2,1688.64 2198.86,1688.64 2204.53,1688.64 2210.19,1688.64 2215.86,1688.64 2221.52,1688.64 2227.19,1688.64 2232.85,1688.64 2238.52,1688.64 2244.18,1688.64 2249.85,1688.64 2255.51,1688.64 2261.18,1688.64 2266.85,1688.64 2272.51,1688.65 2278.18,1688.65 2283.84,1688.65 2289.51,1688.65 2295.17,1688.65 2300.84,1688.65 2306.5,1688.65 2312.17,1688.65 2317.83,1688.65 2323.5,1688.65 2329.16,1688.65 2334.83,1688.65 2340.49,1688.65 2346.16,1688.65 2351.82,1688.65 2357.49,1688.65 2363.16,1688.65 2368.82,1688.65 2374.49,1688.65 2380.15,1688.65 2385.82,1688.65 2391.48,1688.65 2397.15,1688.65 2402.81,1688.65 2408.48,1688.65 2414.14,1688.65 2419.81,1688.65 2425.47,1688.65 2431.14,1688.65 2436.8,1688.65 2442.47,1688.65 2448.14,1688.65 2453.8,1688.65 2459.47,1688.65 2465.13,1688.65 2470.8,1688.65 2476.46,1688.65 2482.13,1688.65 2487.79,1688.65 2493.46,1688.65 2499.12,1688.65 2504.79,1688.65 2510.45,1688.65 2516.12,1688.65 2521.78,1688.65 2527.45,1688.65 2533.11,1688.65 2538.78,1688.65 2544.45,1688.65 2550.11,1688.65 2555.78,1688.65 2561.44,1688.65 2567.11,1688.65 2572.77,1688.65 "/>
<path clip-path="url(#clip920)" d="M1970.32 388.696 L2560.69 388.696 L2560.69 181.336 L1970.32 181.336  Z" fill="#ffffff" fill-rule="evenodd" fill-opacity="1"/>
<polyline clip-path="url(#clip920)" style="stroke:#000000; stroke-linecap:round; stroke-linejoin:round; stroke-width:4; stroke-opacity:1; fill:none" points="1970.32,388.696 2560.69,388.696 2560.69,181.336 1970.32,181.336 1970.32,388.696 "/>
<polyline clip-path="url(#clip920)" style="stroke:#0000ff; stroke-linecap:round; stroke-linejoin:round; stroke-width:4; stroke-opacity:1; fill:none" points="1997.01,233.176 2157.15,233.176 "/>
<path clip-path="url(#clip920)" d="M2211.71 218.558 L2211.71 223.489 Q2209.35 221.29 2206.66 220.202 Q2204 219.114 2200.99 219.114 Q2195.06 219.114 2191.91 222.748 Q2188.77 226.359 2188.77 233.211 Q2188.77 240.04 2191.91 243.674 Q2195.06 247.285 2200.99 247.285 Q2204 247.285 2206.66 246.197 Q2209.35 245.109 2211.71 242.91 L2211.71 247.794 Q2209.25 249.461 2206.5 250.294 Q2203.77 251.128 2200.71 251.128 Q2192.86 251.128 2188.35 246.336 Q2183.84 241.521 2183.84 233.211 Q2183.84 224.878 2188.35 220.086 Q2192.86 215.271 2200.71 215.271 Q2203.81 215.271 2206.54 216.105 Q2209.3 216.915 2211.71 218.558 Z" fill="#000000" fill-rule="nonzero" fill-opacity="1" /><path clip-path="url(#clip920)" d="M2240.29 234.808 L2240.29 250.456 L2236.03 250.456 L2236.03 234.947 Q2236.03 231.267 2234.6 229.438 Q2233.16 227.609 2230.29 227.609 Q2226.85 227.609 2224.85 229.808 Q2222.86 232.007 2222.86 235.804 L2222.86 250.456 L2218.58 250.456 L2218.58 214.438 L2222.86 214.438 L2222.86 228.558 Q2224.39 226.22 2226.45 225.063 Q2228.53 223.906 2231.24 223.906 Q2235.71 223.906 2238 226.683 Q2240.29 229.438 2240.29 234.808 Z" fill="#000000" fill-rule="nonzero" fill-opacity="1" /><path clip-path="url(#clip920)" d="M2248.79 224.531 L2253.05 224.531 L2253.05 250.456 L2248.79 250.456 L2248.79 224.531 M2248.79 214.438 L2253.05 214.438 L2253.05 219.831 L2248.79 219.831 L2248.79 214.438 Z" fill="#000000" fill-rule="nonzero" fill-opacity="1" /><path clip-path="url(#clip920)" d="M2261.96 214.438 L2266.22 214.438 L2266.22 250.456 L2261.96 250.456 L2261.96 214.438 Z" fill="#000000" fill-rule="nonzero" fill-opacity="1" /><path clip-path="url(#clip920)" d="M2292.19 228.466 L2292.19 214.438 L2296.45 214.438 L2296.45 250.456 L2292.19 250.456 L2292.19 246.567 Q2290.85 248.882 2288.79 250.016 Q2286.75 251.128 2283.88 251.128 Q2279.18 251.128 2276.22 247.378 Q2273.28 243.628 2273.28 237.517 Q2273.28 231.405 2276.22 227.655 Q2279.18 223.906 2283.88 223.906 Q2286.75 223.906 2288.79 225.04 Q2290.85 226.151 2292.19 228.466 M2277.68 237.517 Q2277.68 242.216 2279.6 244.901 Q2281.54 247.563 2284.92 247.563 Q2288.3 247.563 2290.25 244.901 Q2292.19 242.216 2292.19 237.517 Q2292.19 232.817 2290.25 230.155 Q2288.3 227.47 2284.92 227.47 Q2281.54 227.47 2279.6 230.155 Q2277.68 232.817 2277.68 237.517 Z" fill="#000000" fill-rule="nonzero" fill-opacity="1" /><path clip-path="url(#clip920)" d="M2320.25 228.512 Q2319.53 228.095 2318.67 227.91 Q2317.84 227.702 2316.82 227.702 Q2313.21 227.702 2311.27 230.063 Q2309.34 232.401 2309.34 236.799 L2309.34 250.456 L2305.06 250.456 L2305.06 224.531 L2309.34 224.531 L2309.34 228.558 Q2310.69 226.197 2312.84 225.063 Q2314.99 223.906 2318.07 223.906 Q2318.51 223.906 2319.04 223.975 Q2319.58 224.021 2320.22 224.137 L2320.25 228.512 Z" fill="#000000" fill-rule="nonzero" fill-opacity="1" /><path clip-path="url(#clip920)" d="M2345.85 236.429 L2345.85 238.512 L2326.27 238.512 Q2326.54 242.91 2328.9 245.225 Q2331.29 247.516 2335.53 247.516 Q2337.98 247.516 2340.27 246.915 Q2342.59 246.313 2344.85 245.109 L2344.85 249.137 Q2342.56 250.109 2340.15 250.618 Q2337.75 251.128 2335.27 251.128 Q2329.07 251.128 2325.43 247.516 Q2321.82 243.905 2321.82 237.748 Q2321.82 231.382 2325.25 227.655 Q2328.7 223.906 2334.53 223.906 Q2339.76 223.906 2342.79 227.285 Q2345.85 230.642 2345.85 236.429 M2341.59 235.179 Q2341.54 231.683 2339.62 229.6 Q2337.72 227.517 2334.58 227.517 Q2331.01 227.517 2328.86 229.53 Q2326.73 231.544 2326.4 235.202 L2341.59 235.179 Z" fill="#000000" fill-rule="nonzero" fill-opacity="1" /><path clip-path="url(#clip920)" d="M2374.39 234.808 L2374.39 250.456 L2370.13 250.456 L2370.13 234.947 Q2370.13 231.267 2368.7 229.438 Q2367.26 227.609 2364.39 227.609 Q2360.94 227.609 2358.95 229.808 Q2356.96 232.007 2356.96 235.804 L2356.96 250.456 L2352.68 250.456 L2352.68 224.531 L2356.96 224.531 L2356.96 228.558 Q2358.49 226.22 2360.55 225.063 Q2362.63 223.906 2365.34 223.906 Q2369.81 223.906 2372.1 226.683 Q2374.39 229.438 2374.39 234.808 Z" fill="#000000" fill-rule="nonzero" fill-opacity="1" /><path clip-path="url(#clip920)" d="M2408.19 214.484 Q2405.08 219.808 2403.58 225.017 Q2402.08 230.225 2402.08 235.572 Q2402.08 240.919 2403.58 246.174 Q2405.11 251.405 2408.19 256.706 L2404.48 256.706 Q2401.01 251.266 2399.27 246.012 Q2397.56 240.757 2397.56 235.572 Q2397.56 230.41 2399.27 225.179 Q2400.99 219.947 2404.48 214.484 L2408.19 214.484 Z" fill="#000000" fill-rule="nonzero" fill-opacity="1" /><path clip-path="url(#clip920)" d="M2427.05 218.975 Q2423.44 218.975 2421.61 222.54 Q2419.81 226.081 2419.81 233.211 Q2419.81 240.317 2421.61 243.882 Q2423.44 247.424 2427.05 247.424 Q2430.69 247.424 2432.49 243.882 Q2434.32 240.317 2434.32 233.211 Q2434.32 226.081 2432.49 222.54 Q2430.69 218.975 2427.05 218.975 M2427.05 215.271 Q2432.86 215.271 2435.92 219.878 Q2439 224.461 2439 233.211 Q2439 241.938 2435.92 246.544 Q2432.86 251.128 2427.05 251.128 Q2421.24 251.128 2418.16 246.544 Q2415.11 241.938 2415.11 233.211 Q2415.11 224.461 2418.16 219.878 Q2421.24 215.271 2427.05 215.271 Z" fill="#000000" fill-rule="nonzero" fill-opacity="1" /><path clip-path="url(#clip920)" d="M2444.46 235.572 L2456.94 235.572 L2456.94 239.368 L2444.46 239.368 L2444.46 235.572 Z" fill="#000000" fill-rule="nonzero" fill-opacity="1" /><path clip-path="url(#clip920)" d="M2465.13 246.521 L2472.77 246.521 L2472.77 220.156 L2464.46 221.822 L2464.46 217.563 L2472.72 215.896 L2477.4 215.896 L2477.4 246.521 L2485.04 246.521 L2485.04 250.456 L2465.13 250.456 L2465.13 246.521 Z" fill="#000000" fill-rule="nonzero" fill-opacity="1" /><path clip-path="url(#clip920)" d="M2507.33 219.97 L2495.52 238.419 L2507.33 238.419 L2507.33 219.97 M2506.1 215.896 L2511.98 215.896 L2511.98 238.419 L2516.91 238.419 L2516.91 242.308 L2511.98 242.308 L2511.98 250.456 L2507.33 250.456 L2507.33 242.308 L2491.73 242.308 L2491.73 237.794 L2506.1 215.896 Z" fill="#000000" fill-rule="nonzero" fill-opacity="1" /><path clip-path="url(#clip920)" d="M2523.37 214.484 L2527.07 214.484 Q2530.55 219.947 2532.26 225.179 Q2534 230.41 2534 235.572 Q2534 240.757 2532.26 246.012 Q2530.55 251.266 2527.07 256.706 L2523.37 256.706 Q2526.45 251.405 2527.95 246.174 Q2529.48 240.919 2529.48 235.572 Q2529.48 230.225 2527.95 225.017 Q2526.45 219.808 2523.37 214.484 Z" fill="#000000" fill-rule="nonzero" fill-opacity="1" /><polyline clip-path="url(#clip920)" style="stroke:#ff0000; stroke-linecap:round; stroke-linejoin:round; stroke-width:4; stroke-opacity:1; fill:none" points="1997.01,285.016 2157.15,285.016 "/>
<path clip-path="url(#clip920)" d="M2199.67 272.343 L2193.33 289.542 L2206.04 289.542 L2199.67 272.343 M2197.03 267.736 L2202.33 267.736 L2215.5 302.296 L2210.64 302.296 L2207.49 293.431 L2191.91 293.431 L2188.77 302.296 L2183.84 302.296 L2197.03 267.736 Z" fill="#000000" fill-rule="nonzero" fill-opacity="1" /><path clip-path="url(#clip920)" d="M2236.59 280.306 L2236.59 266.278 L2240.85 266.278 L2240.85 302.296 L2236.59 302.296 L2236.59 298.407 Q2235.25 300.722 2233.19 301.856 Q2231.15 302.968 2228.28 302.968 Q2223.58 302.968 2220.62 299.218 Q2217.68 295.468 2217.68 289.357 Q2217.68 283.245 2220.62 279.495 Q2223.58 275.746 2228.28 275.746 Q2231.15 275.746 2233.19 276.88 Q2235.25 277.991 2236.59 280.306 M2222.08 289.357 Q2222.08 294.056 2224 296.741 Q2225.94 299.403 2229.32 299.403 Q2232.7 299.403 2234.65 296.741 Q2236.59 294.056 2236.59 289.357 Q2236.59 284.657 2234.65 281.995 Q2232.7 279.31 2229.32 279.31 Q2225.94 279.31 2224 281.995 Q2222.08 284.657 2222.08 289.357 Z" fill="#000000" fill-rule="nonzero" fill-opacity="1" /><path clip-path="url(#clip920)" d="M2249.18 292.065 L2249.18 276.371 L2253.44 276.371 L2253.44 291.903 Q2253.44 295.583 2254.88 297.435 Q2256.31 299.264 2259.18 299.264 Q2262.63 299.264 2264.62 297.065 Q2266.64 294.866 2266.64 291.069 L2266.64 276.371 L2270.9 276.371 L2270.9 302.296 L2266.64 302.296 L2266.64 298.315 Q2265.09 300.676 2263.03 301.833 Q2260.99 302.968 2258.28 302.968 Q2253.81 302.968 2251.5 300.19 Q2249.18 297.412 2249.18 292.065 M2259.9 275.746 L2259.9 275.746 Z" fill="#000000" fill-rule="nonzero" fill-opacity="1" /><path clip-path="url(#clip920)" d="M2279.67 266.278 L2283.93 266.278 L2283.93 302.296 L2279.67 302.296 L2279.67 266.278 Z" fill="#000000" fill-rule="nonzero" fill-opacity="1" /><path clip-path="url(#clip920)" d="M2297.05 269.009 L2297.05 276.371 L2305.83 276.371 L2305.83 279.681 L2297.05 279.681 L2297.05 293.755 Q2297.05 296.926 2297.91 297.829 Q2298.79 298.731 2301.45 298.731 L2305.83 298.731 L2305.83 302.296 L2301.45 302.296 Q2296.52 302.296 2294.65 300.468 Q2292.77 298.616 2292.77 293.755 L2292.77 279.681 L2289.65 279.681 L2289.65 276.371 L2292.77 276.371 L2292.77 269.009 L2297.05 269.009 Z" fill="#000000" fill-rule="nonzero" fill-opacity="1" /><path clip-path="url(#clip920)" d="M2327.96 277.134 L2327.96 281.162 Q2326.15 280.236 2324.21 279.773 Q2322.26 279.31 2320.18 279.31 Q2317.01 279.31 2315.41 280.283 Q2313.84 281.255 2313.84 283.199 Q2313.84 284.681 2314.97 285.537 Q2316.1 286.37 2319.53 287.134 L2320.99 287.458 Q2325.53 288.431 2327.42 290.213 Q2329.34 291.972 2329.34 295.144 Q2329.34 298.755 2326.47 300.861 Q2323.63 302.968 2318.63 302.968 Q2316.54 302.968 2314.28 302.551 Q2312.03 302.157 2309.53 301.347 L2309.53 296.949 Q2311.89 298.176 2314.18 298.801 Q2316.47 299.403 2318.72 299.403 Q2321.73 299.403 2323.35 298.384 Q2324.97 297.343 2324.97 295.468 Q2324.97 293.732 2323.79 292.806 Q2322.63 291.88 2318.67 291.023 L2317.19 290.676 Q2313.23 289.843 2311.47 288.13 Q2309.72 286.394 2309.72 283.384 Q2309.72 279.727 2312.31 277.736 Q2314.9 275.746 2319.67 275.746 Q2322.03 275.746 2324.11 276.093 Q2326.2 276.44 2327.96 277.134 Z" fill="#000000" fill-rule="nonzero" fill-opacity="1" /><path clip-path="url(#clip920)" d="M2361.43 266.324 Q2358.33 271.648 2356.82 276.857 Q2355.32 282.065 2355.32 287.412 Q2355.32 292.759 2356.82 298.014 Q2358.35 303.245 2361.43 308.546 L2357.72 308.546 Q2354.25 303.106 2352.52 297.852 Q2350.8 292.597 2350.8 287.412 Q2350.8 282.25 2352.52 277.019 Q2354.23 271.787 2357.72 266.324 L2361.43 266.324 Z" fill="#000000" fill-rule="nonzero" fill-opacity="1" /><path clip-path="url(#clip920)" d="M2371.1 298.361 L2378.74 298.361 L2378.74 271.996 L2370.43 273.662 L2370.43 269.403 L2378.7 267.736 L2383.37 267.736 L2383.37 298.361 L2391.01 298.361 L2391.01 302.296 L2371.1 302.296 L2371.1 298.361 Z" fill="#000000" fill-rule="nonzero" fill-opacity="1" /><path clip-path="url(#clip920)" d="M2400.5 267.736 L2418.86 267.736 L2418.86 271.671 L2404.78 271.671 L2404.78 280.144 Q2405.8 279.796 2406.82 279.634 Q2407.84 279.449 2408.86 279.449 Q2414.65 279.449 2418.02 282.62 Q2421.4 285.792 2421.4 291.208 Q2421.4 296.787 2417.93 299.889 Q2414.46 302.968 2408.14 302.968 Q2405.96 302.968 2403.7 302.597 Q2401.45 302.227 2399.04 301.486 L2399.04 296.787 Q2401.13 297.921 2403.35 298.477 Q2405.57 299.032 2408.05 299.032 Q2412.05 299.032 2414.39 296.926 Q2416.73 294.819 2416.73 291.208 Q2416.73 287.597 2414.39 285.491 Q2412.05 283.384 2408.05 283.384 Q2406.17 283.384 2404.3 283.801 Q2402.45 284.218 2400.5 285.097 L2400.5 267.736 Z" fill="#000000" fill-rule="nonzero" fill-opacity="1" /><path clip-path="url(#clip920)" d="M2427.86 287.412 L2440.34 287.412 L2440.34 291.208 L2427.86 291.208 L2427.86 287.412 Z" fill="#000000" fill-rule="nonzero" fill-opacity="1" /><path clip-path="url(#clip920)" d="M2458.3 283.153 Q2455.15 283.153 2453.3 285.306 Q2451.47 287.458 2451.47 291.208 Q2451.47 294.935 2453.3 297.111 Q2455.15 299.264 2458.3 299.264 Q2461.45 299.264 2463.28 297.111 Q2465.13 294.935 2465.13 291.208 Q2465.13 287.458 2463.28 285.306 Q2461.45 283.153 2458.3 283.153 M2467.58 268.5 L2467.58 272.759 Q2465.83 271.926 2464.02 271.486 Q2462.24 271.046 2460.48 271.046 Q2455.85 271.046 2453.39 274.171 Q2450.96 277.296 2450.62 283.616 Q2451.98 281.602 2454.04 280.537 Q2456.1 279.449 2458.58 279.449 Q2463.79 279.449 2466.8 282.62 Q2469.83 285.769 2469.83 291.208 Q2469.83 296.532 2466.68 299.75 Q2463.53 302.968 2458.3 302.968 Q2452.31 302.968 2449.14 298.384 Q2445.96 293.778 2445.96 285.051 Q2445.96 276.857 2449.85 271.996 Q2453.74 267.111 2460.29 267.111 Q2462.05 267.111 2463.83 267.459 Q2465.64 267.806 2467.58 268.5 Z" fill="#000000" fill-rule="nonzero" fill-opacity="1" /><path clip-path="url(#clip920)" d="M2490.73 271.81 L2478.93 290.259 L2490.73 290.259 L2490.73 271.81 M2489.51 267.736 L2495.39 267.736 L2495.39 290.259 L2500.32 290.259 L2500.32 294.148 L2495.39 294.148 L2495.39 302.296 L2490.73 302.296 L2490.73 294.148 L2475.13 294.148 L2475.13 289.634 L2489.51 267.736 Z" fill="#000000" fill-rule="nonzero" fill-opacity="1" /><path clip-path="url(#clip920)" d="M2506.77 266.324 L2510.48 266.324 Q2513.95 271.787 2515.66 277.019 Q2517.4 282.25 2517.4 287.412 Q2517.4 292.597 2515.66 297.852 Q2513.95 303.106 2510.48 308.546 L2506.77 308.546 Q2509.85 303.245 2511.36 298.014 Q2512.89 292.759 2512.89 287.412 Q2512.89 282.065 2511.36 276.857 Q2509.85 271.648 2506.77 266.324 Z" fill="#000000" fill-rule="nonzero" fill-opacity="1" /><polyline clip-path="url(#clip920)" style="stroke:#008000; stroke-linecap:round; stroke-linejoin:round; stroke-width:4; stroke-opacity:1; fill:none" points="1997.01,336.856 2157.15,336.856 "/>
<path clip-path="url(#clip920)" d="M2183.84 319.576 L2205.69 319.576 L2205.69 323.511 L2188.51 323.511 L2188.51 333.743 L2204.97 333.743 L2204.97 337.678 L2188.51 337.678 L2188.51 350.201 L2206.1 350.201 L2206.1 354.136 L2183.84 354.136 L2183.84 319.576 Z" fill="#000000" fill-rule="nonzero" fill-opacity="1" /><path clip-path="url(#clip920)" d="M2213.6 318.118 L2217.86 318.118 L2217.86 354.136 L2213.6 354.136 L2213.6 318.118 Z" fill="#000000" fill-rule="nonzero" fill-opacity="1" /><path clip-path="url(#clip920)" d="M2243.84 332.146 L2243.84 318.118 L2248.1 318.118 L2248.1 354.136 L2243.84 354.136 L2243.84 350.247 Q2242.49 352.562 2240.43 353.696 Q2238.4 354.808 2235.53 354.808 Q2230.83 354.808 2227.86 351.058 Q2224.92 347.308 2224.92 341.197 Q2224.92 335.085 2227.86 331.335 Q2230.83 327.586 2235.53 327.586 Q2238.4 327.586 2240.43 328.72 Q2242.49 329.831 2243.84 332.146 M2229.32 341.197 Q2229.32 345.896 2231.24 348.581 Q2233.19 351.243 2236.57 351.243 Q2239.95 351.243 2241.89 348.581 Q2243.84 345.896 2243.84 341.197 Q2243.84 336.497 2241.89 333.835 Q2239.95 331.15 2236.57 331.15 Q2233.19 331.15 2231.24 333.835 Q2229.32 336.497 2229.32 341.197 Z" fill="#000000" fill-rule="nonzero" fill-opacity="1" /><path clip-path="url(#clip920)" d="M2279.04 340.109 L2279.04 342.192 L2259.46 342.192 Q2259.74 346.59 2262.1 348.905 Q2264.48 351.196 2268.72 351.196 Q2271.17 351.196 2273.47 350.595 Q2275.78 349.993 2278.05 348.789 L2278.05 352.817 Q2275.76 353.789 2273.35 354.298 Q2270.94 354.808 2268.47 354.808 Q2262.26 354.808 2258.63 351.196 Q2255.02 347.585 2255.02 341.428 Q2255.02 335.062 2258.44 331.335 Q2261.89 327.586 2267.72 327.586 Q2272.96 327.586 2275.99 330.965 Q2279.04 334.322 2279.04 340.109 M2274.78 338.859 Q2274.74 335.363 2272.82 333.28 Q2270.92 331.197 2267.77 331.197 Q2264.21 331.197 2262.05 333.21 Q2259.92 335.224 2259.6 338.882 L2274.78 338.859 Z" fill="#000000" fill-rule="nonzero" fill-opacity="1" /><path clip-path="url(#clip920)" d="M2301.06 332.192 Q2300.34 331.775 2299.48 331.59 Q2298.65 331.382 2297.63 331.382 Q2294.02 331.382 2292.08 333.743 Q2290.15 336.081 2290.15 340.479 L2290.15 354.136 L2285.87 354.136 L2285.87 328.211 L2290.15 328.211 L2290.15 332.238 Q2291.5 329.877 2293.65 328.743 Q2295.8 327.586 2298.88 327.586 Q2299.32 327.586 2299.85 327.655 Q2300.39 327.701 2301.03 327.817 L2301.06 332.192 Z" fill="#000000" fill-rule="nonzero" fill-opacity="1" /><path clip-path="url(#clip920)" d="M2305.53 318.118 L2309.78 318.118 L2309.78 354.136 L2305.53 354.136 L2305.53 318.118 Z" fill="#000000" fill-rule="nonzero" fill-opacity="1" /><path clip-path="url(#clip920)" d="M2329.48 356.544 Q2327.68 361.173 2325.96 362.585 Q2324.25 363.997 2321.38 363.997 L2317.98 363.997 L2317.98 360.433 L2320.48 360.433 Q2322.24 360.433 2323.21 359.599 Q2324.18 358.766 2325.36 355.664 L2326.13 353.72 L2315.64 328.211 L2320.15 328.211 L2328.26 348.488 L2336.36 328.211 L2340.87 328.211 L2329.48 356.544 Z" fill="#000000" fill-rule="nonzero" fill-opacity="1" /><path clip-path="url(#clip920)" d="M2372.05 318.164 Q2368.95 323.488 2367.45 328.697 Q2365.94 333.905 2365.94 339.252 Q2365.94 344.599 2367.45 349.854 Q2368.97 355.085 2372.05 360.386 L2368.35 360.386 Q2364.88 354.946 2363.14 349.692 Q2361.43 344.437 2361.43 339.252 Q2361.43 334.09 2363.14 328.859 Q2364.85 323.627 2368.35 318.164 L2372.05 318.164 Z" fill="#000000" fill-rule="nonzero" fill-opacity="1" /><path clip-path="url(#clip920)" d="M2391.5 334.993 Q2388.35 334.993 2386.5 337.146 Q2384.67 339.298 2384.67 343.048 Q2384.67 346.775 2386.5 348.951 Q2388.35 351.104 2391.5 351.104 Q2394.65 351.104 2396.47 348.951 Q2398.33 346.775 2398.33 343.048 Q2398.33 339.298 2396.47 337.146 Q2394.65 334.993 2391.5 334.993 M2400.78 320.34 L2400.78 324.599 Q2399.02 323.766 2397.21 323.326 Q2395.43 322.886 2393.67 322.886 Q2389.04 322.886 2386.59 326.011 Q2384.16 329.136 2383.81 335.456 Q2385.18 333.442 2387.24 332.377 Q2389.3 331.289 2391.77 331.289 Q2396.98 331.289 2399.99 334.46 Q2403.02 337.609 2403.02 343.048 Q2403.02 348.372 2399.88 351.59 Q2396.73 354.808 2391.5 354.808 Q2385.5 354.808 2382.33 350.224 Q2379.16 345.618 2379.16 336.891 Q2379.16 328.697 2383.05 323.836 Q2386.94 318.951 2393.49 318.951 Q2395.25 318.951 2397.03 319.299 Q2398.83 319.646 2400.78 320.34 Z" fill="#000000" fill-rule="nonzero" fill-opacity="1" /><path clip-path="url(#clip920)" d="M2411.13 319.576 L2429.48 319.576 L2429.48 323.511 L2415.41 323.511 L2415.41 331.984 Q2416.43 331.636 2417.45 331.474 Q2418.46 331.289 2419.48 331.289 Q2425.27 331.289 2428.65 334.46 Q2432.03 337.632 2432.03 343.048 Q2432.03 348.627 2428.56 351.729 Q2425.08 354.808 2418.77 354.808 Q2416.59 354.808 2414.32 354.437 Q2412.08 354.067 2409.67 353.326 L2409.67 348.627 Q2411.75 349.761 2413.97 350.317 Q2416.2 350.872 2418.67 350.872 Q2422.68 350.872 2425.02 348.766 Q2427.35 346.659 2427.35 343.048 Q2427.35 339.437 2425.02 337.331 Q2422.68 335.224 2418.67 335.224 Q2416.8 335.224 2414.92 335.641 Q2413.07 336.058 2411.13 336.937 L2411.13 319.576 Z" fill="#000000" fill-rule="nonzero" fill-opacity="1" /><path clip-path="url(#clip920)" d="M2457.98 324.414 L2457.98 337.308 L2470.87 337.308 L2470.87 341.243 L2457.98 341.243 L2457.98 354.136 L2454.09 354.136 L2454.09 341.243 L2441.2 341.243 L2441.2 337.308 L2454.09 337.308 L2454.09 324.414 L2457.98 324.414 Z" fill="#000000" fill-rule="nonzero" fill-opacity="1" /><path clip-path="url(#clip920)" d="M2479.69 318.164 L2483.39 318.164 Q2486.87 323.627 2488.58 328.859 Q2490.32 334.09 2490.32 339.252 Q2490.32 344.437 2488.58 349.692 Q2486.87 354.946 2483.39 360.386 L2479.69 360.386 Q2482.77 355.085 2484.27 349.854 Q2485.8 344.599 2485.8 339.252 Q2485.8 333.905 2484.27 328.697 Q2482.77 323.488 2479.69 318.164 Z" fill="#000000" fill-rule="nonzero" fill-opacity="1" /></svg>
