<?xml version="1.0" encoding="utf-8"?>
<svg xmlns="http://www.w3.org/2000/svg" xmlns:xlink="http://www.w3.org/1999/xlink" width="672" height="480" viewBox="0 0 2688 1920">
<defs>
  <clipPath id="clip100">
    <rect x="0" y="0" width="2688" height="1920"/>
  </clipPath>
</defs>
<path clip-path="url(#clip100)" d="M0 1920 L2688 1920 L2688 -4.26326e-14 L0 -4.26326e-14  Z" fill="#ffffff" fill-rule="evenodd" fill-opacity="1"/>
<defs>
  <clipPath id="clip101">
    <rect x="253" y="127" width="2388" height="1607"/>
  </clipPath>
</defs>
<path clip-path="url(#clip100)" d="M253.733 1734.12 L2640.76 1734.12 L2640.76 127.792 L253.733 127.792  Z" fill="#ffffff" fill-rule="evenodd" fill-opacity="1"/>
<polyline clip-path="url(#clip101)" style="stroke:#000000; stroke-linecap:round; stroke-linejoin:round; stroke-width:2; stroke-opacity:0.1; fill:none" points="321.29,1734.12 321.29,127.792 "/>
<polyline clip-path="url(#clip101)" style="stroke:#000000; stroke-linecap:round; stroke-linejoin:round; stroke-width:2; stroke-opacity:0.1; fill:none" points="1071.93,1734.12 1071.93,127.792 "/>
<polyline clip-path="url(#clip101)" style="stroke:#000000; stroke-linecap:round; stroke-linejoin:round; stroke-width:2; stroke-opacity:0.1; fill:none" points="1822.56,1734.12 1822.56,127.792 "/>
<polyline clip-path="url(#clip101)" style="stroke:#000000; stroke-linecap:round; stroke-linejoin:round; stroke-width:2; stroke-opacity:0.1; fill:none" points="2573.2,1734.12 2573.2,127.792 "/>
<polyline clip-path="url(#clip101)" style="stroke:#000000; stroke-linecap:round; stroke-linejoin:round; stroke-width:2; stroke-opacity:0.1; fill:none" points="253.733,1688.65 2640.76,1688.65 "/>
<polyline clip-path="url(#clip101)" style="stroke:#000000; stroke-linecap:round; stroke-linejoin:round; stroke-width:2; stroke-opacity:0.1; fill:none" points="253.733,1309.8 2640.76,1309.8 "/>
<polyline clip-path="url(#clip101)" style="stroke:#000000; stroke-linecap:round; stroke-linejoin:round; stroke-width:2; stroke-opacity:0.1; fill:none" points="253.733,930.955 2640.76,930.955 "/>
<polyline clip-path="url(#clip101)" style="stroke:#000000; stroke-linecap:round; stroke-linejoin:round; stroke-width:2; stroke-opacity:0.1; fill:none" points="253.733,552.104 2640.76,552.104 "/>
<polyline clip-path="url(#clip101)" style="stroke:#000000; stroke-linecap:round; stroke-linejoin:round; stroke-width:2; stroke-opacity:0.1; fill:none" points="253.733,173.254 2640.76,173.254 "/>
<polyline clip-path="url(#clip100)" style="stroke:#000000; stroke-linecap:round; stroke-linejoin:round; stroke-width:4; stroke-opacity:1; fill:none" points="253.733,1734.12 2640.76,1734.12 "/>
<polyline clip-path="url(#clip100)" style="stroke:#000000; stroke-linecap:round; stroke-linejoin:round; stroke-width:4; stroke-opacity:1; fill:none" points="321.29,1734.12 321.29,1715.22 "/>
<polyline clip-path="url(#clip100)" style="stroke:#000000; stroke-linecap:round; stroke-linejoin:round; stroke-width:4; stroke-opacity:1; fill:none" points="1071.93,1734.12 1071.93,1715.22 "/>
<polyline clip-path="url(#clip100)" style="stroke:#000000; stroke-linecap:round; stroke-linejoin:round; stroke-width:4; stroke-opacity:1; fill:none" points="1822.56,1734.12 1822.56,1715.22 "/>
<polyline clip-path="url(#clip100)" style="stroke:#000000; stroke-linecap:round; stroke-linejoin:round; stroke-width:4; stroke-opacity:1; fill:none" points="2573.2,1734.12 2573.2,1715.22 "/>
<path clip-path="url(#clip100)" d="M321.29 1767.34 Q317.679 1767.34 315.85 1770.9 Q314.045 1774.45 314.045 1781.58 Q314.045 1788.68 315.85 1792.25 Q317.679 1795.79 321.29 1795.79 Q324.924 1795.79 326.73 1792.25 Q328.559 1788.68 328.559 1781.58 Q328.559 1774.45 326.73 1770.9 Q324.924 1767.34 321.29 1767.34 M321.29 1763.64 Q327.1 1763.64 330.156 1768.24 Q333.235 1772.83 333.235 1781.58 Q333.235 1790.3 330.156 1794.91 Q327.1 1799.49 321.29 1799.49 Q315.48 1799.49 312.401 1794.91 Q309.346 1790.3 309.346 1781.58 Q309.346 1772.83 312.401 1768.24 Q315.48 1763.64 321.29 1763.64 Z" fill="#000000" fill-rule="nonzero" fill-opacity="1" /><path clip-path="url(#clip100)" d="M1031.53 1794.89 L1039.17 1794.89 L1039.17 1768.52 L1030.86 1770.19 L1030.86 1765.93 L1039.13 1764.26 L1043.8 1764.26 L1043.8 1794.89 L1051.44 1794.89 L1051.44 1798.82 L1031.53 1798.82 L1031.53 1794.89 Z" fill="#000000" fill-rule="nonzero" fill-opacity="1" /><path clip-path="url(#clip100)" d="M1070.88 1767.34 Q1067.27 1767.34 1065.44 1770.9 Q1063.64 1774.45 1063.64 1781.58 Q1063.64 1788.68 1065.44 1792.25 Q1067.27 1795.79 1070.88 1795.79 Q1074.52 1795.79 1076.32 1792.25 Q1078.15 1788.68 1078.15 1781.58 Q1078.15 1774.45 1076.32 1770.9 Q1074.52 1767.34 1070.88 1767.34 M1070.88 1763.64 Q1076.69 1763.64 1079.75 1768.24 Q1082.83 1772.83 1082.83 1781.58 Q1082.83 1790.3 1079.75 1794.91 Q1076.69 1799.49 1070.88 1799.49 Q1065.07 1799.49 1062 1794.91 Q1058.94 1790.3 1058.94 1781.58 Q1058.94 1772.83 1062 1768.24 Q1065.07 1763.64 1070.88 1763.64 Z" fill="#000000" fill-rule="nonzero" fill-opacity="1" /><path clip-path="url(#clip100)" d="M1101.05 1767.34 Q1097.44 1767.34 1095.61 1770.9 Q1093.8 1774.45 1093.8 1781.58 Q1093.8 1788.68 1095.61 1792.25 Q1097.44 1795.79 1101.05 1795.79 Q1104.68 1795.79 1106.49 1792.25 Q1108.32 1788.68 1108.32 1781.58 Q1108.32 1774.45 1106.49 1770.9 Q1104.68 1767.34 1101.05 1767.34 M1101.05 1763.64 Q1106.86 1763.64 1109.91 1768.24 Q1112.99 1772.83 1112.99 1781.58 Q1112.99 1790.3 1109.91 1794.91 Q1106.86 1799.49 1101.05 1799.49 Q1095.24 1799.49 1092.16 1794.91 Q1089.1 1790.3 1089.1 1781.58 Q1089.1 1772.83 1092.16 1768.24 Q1095.24 1763.64 1101.05 1763.64 Z" fill="#000000" fill-rule="nonzero" fill-opacity="1" /><path clip-path="url(#clip100)" d="M1786.25 1794.89 L1802.57 1794.89 L1802.57 1798.82 L1780.63 1798.82 L1780.63 1794.89 Q1783.29 1792.13 1787.88 1787.5 Q1792.48 1782.85 1793.66 1781.51 Q1795.91 1778.98 1796.79 1777.25 Q1797.69 1775.49 1797.69 1773.8 Q1797.69 1771.04 1795.75 1769.31 Q1793.82 1767.57 1790.72 1767.57 Q1788.52 1767.57 1786.07 1768.34 Q1783.64 1769.1 1780.86 1770.65 L1780.86 1765.93 Q1783.69 1764.79 1786.14 1764.21 Q1788.59 1763.64 1790.63 1763.64 Q1796 1763.64 1799.19 1766.32 Q1802.39 1769.01 1802.39 1773.5 Q1802.39 1775.63 1801.58 1777.55 Q1800.79 1779.45 1798.69 1782.04 Q1798.11 1782.71 1795 1785.93 Q1791.9 1789.12 1786.25 1794.89 Z" fill="#000000" fill-rule="nonzero" fill-opacity="1" /><path clip-path="url(#clip100)" d="M1822.39 1767.34 Q1818.78 1767.34 1816.95 1770.9 Q1815.14 1774.45 1815.14 1781.58 Q1815.14 1788.68 1816.95 1792.25 Q1818.78 1795.79 1822.39 1795.79 Q1826.02 1795.79 1827.83 1792.25 Q1829.66 1788.68 1829.66 1781.58 Q1829.66 1774.45 1827.83 1770.9 Q1826.02 1767.34 1822.39 1767.34 M1822.39 1763.64 Q1828.2 1763.64 1831.25 1768.24 Q1834.33 1772.83 1834.33 1781.58 Q1834.33 1790.3 1831.25 1794.91 Q1828.2 1799.49 1822.39 1799.49 Q1816.58 1799.49 1813.5 1794.91 Q1810.44 1790.3 1810.44 1781.58 Q1810.44 1772.83 1813.5 1768.24 Q1816.58 1763.64 1822.39 1763.64 Z" fill="#000000" fill-rule="nonzero" fill-opacity="1" /><path clip-path="url(#clip100)" d="M1852.55 1767.34 Q1848.94 1767.34 1847.11 1770.9 Q1845.31 1774.45 1845.31 1781.58 Q1845.31 1788.68 1847.11 1792.25 Q1848.94 1795.79 1852.55 1795.79 Q1856.19 1795.79 1857.99 1792.25 Q1859.82 1788.68 1859.82 1781.58 Q1859.82 1774.45 1857.99 1770.9 Q1856.19 1767.34 1852.55 1767.34 M1852.55 1763.64 Q1858.36 1763.64 1861.42 1768.24 Q1864.5 1772.83 1864.5 1781.58 Q1864.5 1790.3 1861.42 1794.91 Q1858.36 1799.49 1852.55 1799.49 Q1846.74 1799.49 1843.66 1794.91 Q1840.61 1790.3 1840.61 1781.58 Q1840.61 1772.83 1843.66 1768.24 Q1846.74 1763.64 1852.55 1763.64 Z" fill="#000000" fill-rule="nonzero" fill-opacity="1" /><path clip-path="url(#clip100)" d="M2546.96 1780.19 Q2550.32 1780.9 2552.19 1783.17 Q2554.09 1785.44 2554.09 1788.77 Q2554.09 1793.89 2550.57 1796.69 Q2547.05 1799.49 2540.57 1799.49 Q2538.4 1799.49 2536.08 1799.05 Q2533.79 1798.64 2531.34 1797.78 L2531.34 1793.27 Q2533.28 1794.4 2535.59 1794.98 Q2537.91 1795.56 2540.43 1795.56 Q2544.83 1795.56 2547.12 1793.82 Q2549.44 1792.08 2549.44 1788.77 Q2549.44 1785.72 2547.28 1784.01 Q2545.15 1782.27 2541.34 1782.27 L2537.31 1782.27 L2537.31 1778.43 L2541.52 1778.43 Q2544.97 1778.43 2546.8 1777.06 Q2548.63 1775.67 2548.63 1773.08 Q2548.63 1770.42 2546.73 1769.01 Q2544.85 1767.57 2541.34 1767.57 Q2539.41 1767.57 2537.22 1767.99 Q2535.02 1768.4 2532.38 1769.28 L2532.38 1765.12 Q2535.04 1764.38 2537.35 1764.01 Q2539.69 1763.64 2541.75 1763.64 Q2547.08 1763.64 2550.18 1766.07 Q2553.28 1768.47 2553.28 1772.59 Q2553.28 1775.46 2551.64 1777.46 Q2549.99 1779.42 2546.96 1780.19 Z" fill="#000000" fill-rule="nonzero" fill-opacity="1" /><path clip-path="url(#clip100)" d="M2572.96 1767.34 Q2569.34 1767.34 2567.52 1770.9 Q2565.71 1774.45 2565.71 1781.58 Q2565.71 1788.68 2567.52 1792.25 Q2569.34 1795.79 2572.96 1795.79 Q2576.59 1795.79 2578.4 1792.25 Q2580.22 1788.68 2580.22 1781.58 Q2580.22 1774.45 2578.4 1770.9 Q2576.59 1767.34 2572.96 1767.34 M2572.96 1763.64 Q2578.77 1763.64 2581.82 1768.24 Q2584.9 1772.83 2584.9 1781.58 Q2584.9 1790.3 2581.82 1794.91 Q2578.77 1799.49 2572.96 1799.49 Q2567.15 1799.49 2564.07 1794.91 Q2561.01 1790.3 2561.01 1781.58 Q2561.01 1772.83 2564.07 1768.24 Q2567.15 1763.64 2572.96 1763.64 Z" fill="#000000" fill-rule="nonzero" fill-opacity="1" /><path clip-path="url(#clip100)" d="M2603.12 1767.34 Q2599.51 1767.34 2597.68 1770.9 Q2595.87 1774.45 2595.87 1781.58 Q2595.87 1788.68 2597.68 1792.25 Q2599.51 1795.79 2603.12 1795.79 Q2606.75 1795.79 2608.56 1792.25 Q2610.39 1788.68 2610.39 1781.58 Q2610.39 1774.45 2608.56 1770.9 Q2606.75 1767.34 2603.12 1767.34 M2603.12 1763.64 Q2608.93 1763.64 2611.98 1768.24 Q2615.06 1772.83 2615.06 1781.58 Q2615.06 1790.3 2611.98 1794.91 Q2608.93 1799.49 2603.12 1799.49 Q2597.31 1799.49 2594.23 1794.91 Q2591.17 1790.3 2591.17 1781.58 Q2591.17 1772.83 2594.23 1768.24 Q2597.31 1763.64 2603.12 1763.64 Z" fill="#000000" fill-rule="nonzero" fill-opacity="1" /><path clip-path="url(#clip100)" d="M1257.47 1835.78 L1297.67 1835.78 L1297.67 1841.19 L1280.8 1841.19 L1280.8 1883.3 L1274.34 1883.3 L1274.34 1841.19 L1257.47 1841.19 L1257.47 1835.78 Z" fill="#000000" fill-rule="nonzero" fill-opacity="1" /><path clip-path="url(#clip100)" d="M1301.61 1847.65 L1307.47 1847.65 L1307.47 1883.3 L1301.61 1883.3 L1301.61 1847.65 M1301.61 1833.78 L1307.47 1833.78 L1307.47 1841.19 L1301.61 1841.19 L1301.61 1833.78 Z" fill="#000000" fill-rule="nonzero" fill-opacity="1" /><path clip-path="url(#clip100)" d="M1347.48 1854.5 Q1349.67 1850.55 1352.73 1848.67 Q1355.79 1846.79 1359.92 1846.79 Q1365.49 1846.79 1368.52 1850.71 Q1371.54 1854.59 1371.54 1861.78 L1371.54 1883.3 L1365.65 1883.3 L1365.65 1861.98 Q1365.65 1856.85 1363.84 1854.37 Q1362.02 1851.89 1358.3 1851.89 Q1353.75 1851.89 1351.11 1854.91 Q1348.46 1857.93 1348.46 1863.15 L1348.46 1883.3 L1342.58 1883.3 L1342.58 1861.98 Q1342.58 1856.82 1340.76 1854.37 Q1338.95 1851.89 1335.16 1851.89 Q1330.67 1851.89 1328.03 1854.94 Q1325.39 1857.97 1325.39 1863.15 L1325.39 1883.3 L1319.5 1883.3 L1319.5 1847.65 L1325.39 1847.65 L1325.39 1853.19 Q1327.39 1849.91 1330.2 1848.35 Q1333 1846.79 1336.85 1846.79 Q1340.73 1846.79 1343.44 1848.77 Q1346.17 1850.74 1347.48 1854.5 Z" fill="#000000" fill-rule="nonzero" fill-opacity="1" /><path clip-path="url(#clip100)" d="M1413.71 1864.01 L1413.71 1866.88 L1386.79 1866.88 Q1387.17 1872.92 1390.41 1876.11 Q1393.69 1879.26 1399.52 1879.26 Q1402.89 1879.26 1406.04 1878.43 Q1409.23 1877.6 1412.34 1875.95 L1412.34 1881.49 Q1409.19 1882.82 1405.88 1883.52 Q1402.57 1884.22 1399.17 1884.22 Q1390.64 1884.22 1385.64 1879.26 Q1380.68 1874.29 1380.68 1865.83 Q1380.68 1857.07 1385.39 1851.95 Q1390.13 1846.79 1398.15 1846.79 Q1405.34 1846.79 1409.51 1851.44 Q1413.71 1856.06 1413.71 1864.01 M1407.86 1862.29 Q1407.79 1857.49 1405.15 1854.62 Q1402.54 1851.76 1398.21 1851.76 Q1393.31 1851.76 1390.35 1854.53 Q1387.42 1857.3 1386.98 1862.33 L1407.86 1862.29 Z" fill="#000000" fill-rule="nonzero" fill-opacity="1" /><path clip-path="url(#clip100)" d="M1458.11 1833.84 Q1453.85 1841.16 1451.78 1848.32 Q1449.71 1855.48 1449.71 1862.84 Q1449.71 1870.19 1451.78 1877.41 Q1453.88 1884.61 1458.11 1891.89 L1453.02 1891.89 Q1448.25 1884.41 1445.86 1877.19 Q1443.5 1869.96 1443.5 1862.84 Q1443.5 1855.74 1445.86 1848.54 Q1448.22 1841.35 1453.02 1833.84 L1458.11 1833.84 Z" fill="#000000" fill-rule="nonzero" fill-opacity="1" /><path clip-path="url(#clip100)" d="M1492.93 1853.06 L1492.93 1833.78 L1498.79 1833.78 L1498.79 1883.3 L1492.93 1883.3 L1492.93 1877.95 Q1491.09 1881.14 1488.26 1882.7 Q1485.45 1884.22 1481.51 1884.22 Q1475.05 1884.22 1470.97 1879.07 Q1466.93 1873.91 1466.93 1865.51 Q1466.93 1857.11 1470.97 1851.95 Q1475.05 1846.79 1481.51 1846.79 Q1485.45 1846.79 1488.26 1848.35 Q1491.09 1849.88 1492.93 1853.06 M1472.98 1865.51 Q1472.98 1871.97 1475.62 1875.66 Q1478.29 1879.32 1482.94 1879.32 Q1487.59 1879.32 1490.26 1875.66 Q1492.93 1871.97 1492.93 1865.51 Q1492.93 1859.05 1490.26 1855.39 Q1487.59 1851.7 1482.94 1851.7 Q1478.29 1851.7 1475.62 1855.39 Q1472.98 1859.05 1472.98 1865.51 Z" fill="#000000" fill-rule="nonzero" fill-opacity="1" /><path clip-path="url(#clip100)" d="M1527.05 1865.38 Q1519.96 1865.38 1517.22 1867 Q1514.48 1868.63 1514.48 1872.54 Q1514.48 1875.66 1516.52 1877.51 Q1518.59 1879.32 1522.12 1879.32 Q1526.99 1879.32 1529.92 1875.88 Q1532.88 1872.42 1532.88 1866.69 L1532.88 1865.38 L1527.05 1865.38 M1538.74 1862.96 L1538.74 1883.3 L1532.88 1883.3 L1532.88 1877.89 Q1530.87 1881.14 1527.88 1882.7 Q1524.89 1884.22 1520.56 1884.22 Q1515.09 1884.22 1511.84 1881.17 Q1508.63 1878.08 1508.63 1872.92 Q1508.63 1866.91 1512.64 1863.85 Q1516.68 1860.8 1524.67 1860.8 L1532.88 1860.8 L1532.88 1860.23 Q1532.88 1856.18 1530.21 1853.99 Q1527.56 1851.76 1522.76 1851.76 Q1519.7 1851.76 1516.81 1852.49 Q1513.91 1853.22 1511.24 1854.69 L1511.24 1849.28 Q1514.45 1848.03 1517.47 1847.43 Q1520.5 1846.79 1523.36 1846.79 Q1531.1 1846.79 1534.92 1850.8 Q1538.74 1854.81 1538.74 1862.96 Z" fill="#000000" fill-rule="nonzero" fill-opacity="1" /><path clip-path="url(#clip100)" d="M1565.63 1886.61 Q1563.15 1892.98 1560.79 1894.92 Q1558.44 1896.86 1554.49 1896.86 L1549.81 1896.86 L1549.81 1891.96 L1553.25 1891.96 Q1555.67 1891.96 1557.01 1890.81 Q1558.34 1889.67 1559.97 1885.4 L1561.02 1882.73 L1546.6 1847.65 L1552.8 1847.65 L1563.94 1875.53 L1575.08 1847.65 L1581.29 1847.65 L1565.63 1886.61 Z" fill="#000000" fill-rule="nonzero" fill-opacity="1" /><path clip-path="url(#clip100)" d="M1612.1 1848.7 L1612.1 1854.24 Q1609.62 1852.97 1606.94 1852.33 Q1604.27 1851.7 1601.41 1851.7 Q1597.05 1851.7 1594.85 1853.03 Q1592.68 1854.37 1592.68 1857.04 Q1592.68 1859.08 1594.24 1860.26 Q1595.8 1861.4 1600.51 1862.45 L1602.52 1862.9 Q1608.76 1864.24 1611.37 1866.69 Q1614.01 1869.11 1614.01 1873.47 Q1614.01 1878.43 1610.06 1881.33 Q1606.15 1884.22 1599.27 1884.22 Q1596.41 1884.22 1593.29 1883.65 Q1590.2 1883.11 1586.76 1882 L1586.76 1875.95 Q1590.01 1877.64 1593.16 1878.49 Q1596.31 1879.32 1599.4 1879.32 Q1603.54 1879.32 1605.77 1877.92 Q1607.99 1876.49 1607.99 1873.91 Q1607.99 1871.52 1606.37 1870.25 Q1604.78 1868.98 1599.34 1867.8 L1597.3 1867.32 Q1591.86 1866.18 1589.44 1863.82 Q1587.02 1861.43 1587.02 1857.3 Q1587.02 1852.27 1590.58 1849.53 Q1594.15 1846.79 1600.71 1846.79 Q1603.95 1846.79 1606.82 1847.27 Q1609.68 1847.75 1612.1 1848.7 Z" fill="#000000" fill-rule="nonzero" fill-opacity="1" /><path clip-path="url(#clip100)" d="M1622.41 1833.84 L1627.51 1833.84 Q1632.28 1841.35 1634.63 1848.54 Q1637.02 1855.74 1637.02 1862.84 Q1637.02 1869.96 1634.63 1877.19 Q1632.28 1884.41 1627.51 1891.89 L1622.41 1891.89 Q1626.65 1884.61 1628.71 1877.41 Q1630.82 1870.19 1630.82 1862.84 Q1630.82 1855.48 1628.71 1848.32 Q1626.65 1841.16 1622.41 1833.84 Z" fill="#000000" fill-rule="nonzero" fill-opacity="1" /><polyline clip-path="url(#clip100)" style="stroke:#000000; stroke-linecap:round; stroke-linejoin:round; stroke-width:4; stroke-opacity:1; fill:none" points="253.733,1734.12 253.733,127.792 "/>
<polyline clip-path="url(#clip100)" style="stroke:#000000; stroke-linecap:round; stroke-linejoin:round; stroke-width:4; stroke-opacity:1; fill:none" points="253.733,1688.65 272.631,1688.65 "/>
<polyline clip-path="url(#clip100)" style="stroke:#000000; stroke-linecap:round; stroke-linejoin:round; stroke-width:4; stroke-opacity:1; fill:none" points="253.733,1309.8 272.631,1309.8 "/>
<polyline clip-path="url(#clip100)" style="stroke:#000000; stroke-linecap:round; stroke-linejoin:round; stroke-width:4; stroke-opacity:1; fill:none" points="253.733,930.955 272.631,930.955 "/>
<polyline clip-path="url(#clip100)" style="stroke:#000000; stroke-linecap:round; stroke-linejoin:round; stroke-width:4; stroke-opacity:1; fill:none" points="253.733,552.104 272.631,552.104 "/>
<polyline clip-path="url(#clip100)" style="stroke:#000000; stroke-linecap:round; stroke-linejoin:round; stroke-width:4; stroke-opacity:1; fill:none" points="253.733,173.254 272.631,173.254 "/>
<path clip-path="url(#clip100)" d="M156.237 1674.45 Q152.626 1674.45 150.798 1678.02 Q148.992 1681.56 148.992 1688.69 Q148.992 1695.8 150.798 1699.36 Q152.626 1702.9 156.237 1702.9 Q159.872 1702.9 161.677 1699.36 Q163.506 1695.8 163.506 1688.69 Q163.506 1681.56 161.677 1678.02 Q159.872 1674.45 156.237 1674.45 M156.237 1670.75 Q162.048 1670.75 165.103 1675.36 Q168.182 1679.94 168.182 1688.69 Q168.182 1697.42 165.103 1702.02 Q162.048 1706.61 156.237 1706.61 Q150.427 1706.61 147.349 1702.02 Q144.293 1697.42 144.293 1688.69 Q144.293 1679.94 147.349 1675.36 Q150.427 1670.75 156.237 1670.75 Z" fill="#000000" fill-rule="nonzero" fill-opacity="1" /><path clip-path="url(#clip100)" d="M176.399 1700.06 L181.284 1700.06 L181.284 1705.93 L176.399 1705.93 L176.399 1700.06 Z" fill="#000000" fill-rule="nonzero" fill-opacity="1" /><path clip-path="url(#clip100)" d="M201.469 1674.45 Q197.858 1674.45 196.029 1678.02 Q194.223 1681.56 194.223 1688.69 Q194.223 1695.8 196.029 1699.36 Q197.858 1702.9 201.469 1702.9 Q205.103 1702.9 206.908 1699.36 Q208.737 1695.8 208.737 1688.69 Q208.737 1681.56 206.908 1678.02 Q205.103 1674.45 201.469 1674.45 M201.469 1670.75 Q207.279 1670.75 210.334 1675.36 Q213.413 1679.94 213.413 1688.69 Q213.413 1697.42 210.334 1702.02 Q207.279 1706.61 201.469 1706.61 Q195.658 1706.61 192.58 1702.02 Q189.524 1697.42 189.524 1688.69 Q189.524 1679.94 192.58 1675.36 Q195.658 1670.75 201.469 1670.75 Z" fill="#000000" fill-rule="nonzero" fill-opacity="1" /><path clip-path="url(#clip100)" d="M151.261 1323.15 L167.58 1323.15 L167.58 1327.08 L145.636 1327.08 L145.636 1323.15 Q148.298 1320.39 152.881 1315.77 Q157.487 1311.11 158.668 1309.77 Q160.913 1307.25 161.793 1305.51 Q162.696 1303.75 162.696 1302.06 Q162.696 1299.31 160.751 1297.57 Q158.83 1295.83 155.728 1295.83 Q153.529 1295.83 151.075 1296.6 Q148.645 1297.36 145.867 1298.91 L145.867 1294.19 Q148.691 1293.06 151.145 1292.48 Q153.599 1291.9 155.636 1291.9 Q161.006 1291.9 164.2 1294.58 Q167.395 1297.27 167.395 1301.76 Q167.395 1303.89 166.585 1305.81 Q165.798 1307.71 163.691 1310.3 Q163.112 1310.97 160.011 1314.19 Q156.909 1317.39 151.261 1323.15 Z" fill="#000000" fill-rule="nonzero" fill-opacity="1" /><path clip-path="url(#clip100)" d="M177.395 1321.21 L182.279 1321.21 L182.279 1327.08 L177.395 1327.08 L177.395 1321.21 Z" fill="#000000" fill-rule="nonzero" fill-opacity="1" /><path clip-path="url(#clip100)" d="M192.51 1292.52 L210.867 1292.52 L210.867 1296.46 L196.793 1296.46 L196.793 1304.93 Q197.811 1304.58 198.83 1304.42 Q199.848 1304.24 200.867 1304.24 Q206.654 1304.24 210.033 1307.41 Q213.413 1310.58 213.413 1316 Q213.413 1321.58 209.941 1324.68 Q206.469 1327.76 200.149 1327.76 Q197.973 1327.76 195.705 1327.39 Q193.459 1327.02 191.052 1326.27 L191.052 1321.58 Q193.135 1322.71 195.358 1323.27 Q197.58 1323.82 200.057 1323.82 Q204.061 1323.82 206.399 1321.71 Q208.737 1319.61 208.737 1316 Q208.737 1312.39 206.399 1310.28 Q204.061 1308.17 200.057 1308.17 Q198.182 1308.17 196.307 1308.59 Q194.455 1309.01 192.51 1309.89 L192.51 1292.52 Z" fill="#000000" fill-rule="nonzero" fill-opacity="1" /><path clip-path="url(#clip100)" d="M146.284 913.675 L164.64 913.675 L164.64 917.61 L150.566 917.61 L150.566 926.082 Q151.585 925.735 152.603 925.573 Q153.622 925.387 154.64 925.387 Q160.427 925.387 163.807 928.559 Q167.186 931.73 167.186 937.147 Q167.186 942.725 163.714 945.827 Q160.242 948.906 153.923 948.906 Q151.747 948.906 149.478 948.535 Q147.233 948.165 144.825 947.424 L144.825 942.725 Q146.909 943.86 149.131 944.415 Q151.353 944.971 153.83 944.971 Q157.835 944.971 160.173 942.864 Q162.51 940.758 162.51 937.147 Q162.51 933.536 160.173 931.429 Q157.835 929.323 153.83 929.323 Q151.955 929.323 150.08 929.739 Q148.228 930.156 146.284 931.036 L146.284 913.675 Z" fill="#000000" fill-rule="nonzero" fill-opacity="1" /><path clip-path="url(#clip100)" d="M176.399 942.355 L181.284 942.355 L181.284 948.235 L176.399 948.235 L176.399 942.355 Z" fill="#000000" fill-rule="nonzero" fill-opacity="1" /><path clip-path="url(#clip100)" d="M201.469 916.753 Q197.858 916.753 196.029 920.318 Q194.223 923.86 194.223 930.989 Q194.223 938.096 196.029 941.661 Q197.858 945.202 201.469 945.202 Q205.103 945.202 206.908 941.661 Q208.737 938.096 208.737 930.989 Q208.737 923.86 206.908 920.318 Q205.103 916.753 201.469 916.753 M201.469 913.05 Q207.279 913.05 210.334 917.656 Q213.413 922.239 213.413 930.989 Q213.413 939.716 210.334 944.323 Q207.279 948.906 201.469 948.906 Q195.658 948.906 192.58 944.323 Q189.524 939.716 189.524 930.989 Q189.524 922.239 192.58 917.656 Q195.658 913.05 201.469 913.05 Z" fill="#000000" fill-rule="nonzero" fill-opacity="1" /><path clip-path="url(#clip100)" d="M146.052 534.824 L168.274 534.824 L168.274 536.815 L155.728 569.384 L150.844 569.384 L162.649 538.76 L146.052 538.76 L146.052 534.824 Z" fill="#000000" fill-rule="nonzero" fill-opacity="1" /><path clip-path="url(#clip100)" d="M177.395 563.505 L182.279 563.505 L182.279 569.384 L177.395 569.384 L177.395 563.505 Z" fill="#000000" fill-rule="nonzero" fill-opacity="1" /><path clip-path="url(#clip100)" d="M192.51 534.824 L210.867 534.824 L210.867 538.76 L196.793 538.76 L196.793 547.232 Q197.811 546.884 198.83 546.722 Q199.848 546.537 200.867 546.537 Q206.654 546.537 210.033 549.709 Q213.413 552.88 213.413 558.296 Q213.413 563.875 209.941 566.977 Q206.469 570.056 200.149 570.056 Q197.973 570.056 195.705 569.685 Q193.459 569.315 191.052 568.574 L191.052 563.875 Q193.135 565.009 195.358 565.565 Q197.58 566.12 200.057 566.12 Q204.061 566.12 206.399 564.014 Q208.737 561.908 208.737 558.296 Q208.737 554.685 206.399 552.579 Q204.061 550.472 200.057 550.472 Q198.182 550.472 196.307 550.889 Q194.455 551.306 192.51 552.185 L192.51 534.824 Z" fill="#000000" fill-rule="nonzero" fill-opacity="1" /><path clip-path="url(#clip100)" d="M116.886 186.599 L124.525 186.599 L124.525 160.233 L116.214 161.9 L116.214 157.641 L124.478 155.974 L129.154 155.974 L129.154 186.599 L136.793 186.599 L136.793 190.534 L116.886 190.534 L116.886 186.599 Z" fill="#000000" fill-rule="nonzero" fill-opacity="1" /><path clip-path="url(#clip100)" d="M156.237 159.053 Q152.626 159.053 150.798 162.618 Q148.992 166.159 148.992 173.289 Q148.992 180.395 150.798 183.96 Q152.626 187.502 156.237 187.502 Q159.872 187.502 161.677 183.96 Q163.506 180.395 163.506 173.289 Q163.506 166.159 161.677 162.618 Q159.872 159.053 156.237 159.053 M156.237 155.349 Q162.048 155.349 165.103 159.956 Q168.182 164.539 168.182 173.289 Q168.182 182.016 165.103 186.622 Q162.048 191.205 156.237 191.205 Q150.427 191.205 147.349 186.622 Q144.293 182.016 144.293 173.289 Q144.293 164.539 147.349 159.956 Q150.427 155.349 156.237 155.349 Z" fill="#000000" fill-rule="nonzero" fill-opacity="1" /><path clip-path="url(#clip100)" d="M176.399 184.655 L181.284 184.655 L181.284 190.534 L176.399 190.534 L176.399 184.655 Z" fill="#000000" fill-rule="nonzero" fill-opacity="1" /><path clip-path="url(#clip100)" d="M201.469 159.053 Q197.858 159.053 196.029 162.618 Q194.223 166.159 194.223 173.289 Q194.223 180.395 196.029 183.96 Q197.858 187.502 201.469 187.502 Q205.103 187.502 206.908 183.96 Q208.737 180.395 208.737 173.289 Q208.737 166.159 206.908 162.618 Q205.103 159.053 201.469 159.053 M201.469 155.349 Q207.279 155.349 210.334 159.956 Q213.413 164.539 213.413 173.289 Q213.413 182.016 210.334 186.622 Q207.279 191.205 201.469 191.205 Q195.658 191.205 192.58 186.622 Q189.524 182.016 189.524 173.289 Q189.524 164.539 192.58 159.956 Q195.658 155.349 201.469 155.349 Z" fill="#000000" fill-rule="nonzero" fill-opacity="1" /><path clip-path="url(#clip100)" d="M14.1184 1058.03 L14.1184 1051.6 L61.6384 1051.6 L61.6384 1058.03 L14.1184 1058.03 Z" fill="#000000" fill-rule="nonzero" fill-opacity="1" /><path clip-path="url(#clip100)" d="M40.1224 1009.43 L61.6384 1009.43 L61.6384 1015.28 L40.3133 1015.28 Q35.2526 1015.28 32.7381 1017.26 Q30.2237 1019.23 30.2237 1023.18 Q30.2237 1027.92 33.2474 1030.66 Q36.2711 1033.39 41.491 1033.39 L61.6384 1033.39 L61.6384 1039.28 L25.9905 1039.28 L25.9905 1033.39 L31.5287 1033.39 Q28.314 1031.29 26.7225 1028.46 Q25.1311 1025.6 25.1311 1021.87 Q25.1311 1015.73 28.9505 1012.58 Q32.7381 1009.43 40.1224 1009.43 Z" fill="#000000" fill-rule="nonzero" fill-opacity="1" /><path clip-path="url(#clip100)" d="M12.1132 979.7 L16.983 979.7 L16.983 985.302 Q16.983 988.453 18.2562 989.694 Q19.5293 990.904 22.8395 990.904 L25.9905 990.904 L25.9905 981.26 L30.542 981.26 L30.542 990.904 L61.6384 990.904 L61.6384 996.792 L30.542 996.792 L30.542 1002.39 L25.9905 1002.39 L25.9905 996.792 L23.5079 996.792 Q17.5559 996.792 14.8505 994.023 Q12.1132 991.254 12.1132 985.238 L12.1132 979.7 Z" fill="#000000" fill-rule="nonzero" fill-opacity="1" /><path clip-path="url(#clip100)" d="M42.3504 944.307 L45.2149 944.307 L45.2149 971.234 Q51.2623 970.852 54.4452 967.605 Q57.5962 964.327 57.5962 958.502 Q57.5962 955.128 56.7687 951.977 Q55.9411 948.794 54.2861 945.675 L59.8242 945.675 Q61.161 948.826 61.8612 952.136 Q62.5615 955.447 62.5615 958.852 Q62.5615 967.382 57.5962 972.379 Q52.631 977.345 44.1646 977.345 Q35.4117 977.345 30.2873 972.634 Q25.1311 967.892 25.1311 959.871 Q25.1311 952.678 29.7781 948.508 Q34.3932 944.307 42.3504 944.307 M40.6316 950.163 Q35.8255 950.227 32.9609 952.869 Q30.0964 955.478 30.0964 959.807 Q30.0964 964.709 32.8654 967.669 Q35.6345 970.597 40.6634 971.043 L40.6316 950.163 Z" fill="#000000" fill-rule="nonzero" fill-opacity="1" /><path clip-path="url(#clip100)" d="M27.3591 909.041 L32.8336 909.041 Q31.465 911.523 30.7966 914.038 Q30.0964 916.52 30.0964 919.067 Q30.0964 924.764 33.7248 927.915 Q37.3214 931.066 43.8463 931.066 Q50.3711 931.066 53.9996 927.915 Q57.5962 924.764 57.5962 919.067 Q57.5962 916.52 56.9278 914.038 Q56.2276 911.523 54.859 909.041 L60.2698 909.041 Q61.4156 911.491 61.9886 914.133 Q62.5615 916.743 62.5615 919.703 Q62.5615 927.756 57.5007 932.498 Q52.44 937.241 43.8463 937.241 Q35.1253 937.241 30.1282 932.466 Q25.1311 927.66 25.1311 919.321 Q25.1311 916.616 25.704 914.038 Q26.2451 911.46 27.3591 909.041 Z" fill="#000000" fill-rule="nonzero" fill-opacity="1" /><path clip-path="url(#clip100)" d="M15.869 893.063 L25.9905 893.063 L25.9905 881 L30.542 881 L30.542 893.063 L49.8937 893.063 Q54.2542 893.063 55.4955 891.885 Q56.7368 890.676 56.7368 887.015 L56.7368 881 L61.6384 881 L61.6384 887.015 Q61.6384 893.795 59.124 896.373 Q56.5777 898.951 49.8937 898.951 L30.542 898.951 L30.542 903.248 L25.9905 903.248 L25.9905 898.951 L15.869 898.951 L15.869 893.063 Z" fill="#000000" fill-rule="nonzero" fill-opacity="1" /><path clip-path="url(#clip100)" d="M42.3504 842.805 L45.2149 842.805 L45.2149 869.732 Q51.2623 869.35 54.4452 866.104 Q57.5962 862.826 57.5962 857.001 Q57.5962 853.627 56.7687 850.476 Q55.9411 847.293 54.2861 844.174 L59.8242 844.174 Q61.161 847.325 61.8612 850.635 Q62.5615 853.945 62.5615 857.351 Q62.5615 865.881 57.5962 870.878 Q52.631 875.843 44.1646 875.843 Q35.4117 875.843 30.2873 871.133 Q25.1311 866.39 25.1311 858.37 Q25.1311 851.176 29.7781 847.007 Q34.3932 842.805 42.3504 842.805 M40.6316 848.662 Q35.8255 848.726 32.9609 851.367 Q30.0964 853.977 30.0964 858.306 Q30.0964 863.208 32.8654 866.168 Q35.6345 869.096 40.6634 869.541 L40.6316 848.662 Z" fill="#000000" fill-rule="nonzero" fill-opacity="1" /><path clip-path="url(#clip100)" d="M31.4013 809.736 L12.1132 809.736 L12.1132 803.879 L61.6384 803.879 L61.6384 809.736 L56.2912 809.736 Q59.4741 811.582 61.0337 814.414 Q62.5615 817.215 62.5615 821.162 Q62.5615 827.623 57.4052 831.697 Q52.249 835.739 43.8463 835.739 Q35.4436 835.739 30.2873 831.697 Q25.1311 827.623 25.1311 821.162 Q25.1311 817.215 26.6907 814.414 Q28.2185 811.582 31.4013 809.736 M43.8463 829.692 Q50.3075 829.692 53.9996 827.05 Q57.6599 824.377 57.6599 819.73 Q57.6599 815.083 53.9996 812.409 Q50.3075 809.736 43.8463 809.736 Q37.3851 809.736 33.7248 812.409 Q30.0327 815.083 30.0327 819.73 Q30.0327 824.377 33.7248 827.05 Q37.3851 829.692 43.8463 829.692 Z" fill="#000000" fill-rule="nonzero" fill-opacity="1" /><path clip-path="url(#clip100)" d="M765.599 44.2197 Q768.232 45.1109 770.703 48.0275 Q773.214 50.9442 775.726 56.0483 L784.03 72.576 L775.24 72.576 L767.503 57.061 Q764.505 50.9847 761.669 48.9997 Q758.874 47.0148 754.013 47.0148 L745.101 47.0148 L745.101 72.576 L736.918 72.576 L736.918 12.096 L755.391 12.096 Q765.761 12.096 770.865 16.4305 Q775.969 20.7649 775.969 29.5149 Q775.969 35.2267 773.296 38.994 Q770.662 42.7613 765.599 44.2197 M745.101 18.8205 L745.101 40.2903 L755.391 40.2903 Q761.305 40.2903 764.303 37.5762 Q767.341 34.8216 767.341 29.5149 Q767.341 24.2082 764.303 21.5346 Q761.305 18.8205 755.391 18.8205 L745.101 18.8205 Z" fill="#000000" fill-rule="nonzero" fill-opacity="1" /><path clip-path="url(#clip100)" d="M794.239 27.2059 L801.692 27.2059 L801.692 72.576 L794.239 72.576 L794.239 27.2059 M794.239 9.54393 L801.692 9.54393 L801.692 18.9825 L794.239 18.9825 L794.239 9.54393 Z" fill="#000000" fill-rule="nonzero" fill-opacity="1" /><path clip-path="url(#clip100)" d="M855.002 45.1919 L855.002 72.576 L847.549 72.576 L847.549 45.4349 Q847.549 38.994 845.037 35.7938 Q842.525 32.5936 837.502 32.5936 Q831.467 32.5936 827.983 36.4419 Q824.499 40.2903 824.499 46.9338 L824.499 72.576 L817.005 72.576 L817.005 27.2059 L824.499 27.2059 L824.499 34.2544 Q827.173 30.163 830.778 28.1376 Q834.424 26.1121 839.163 26.1121 Q846.981 26.1121 850.992 30.9732 Q855.002 35.7938 855.002 45.1919 Z" fill="#000000" fill-rule="nonzero" fill-opacity="1" /><path clip-path="url(#clip100)" d="M899.724 49.3643 Q899.724 41.2625 896.362 36.8065 Q893.04 32.3505 887.004 32.3505 Q881.009 32.3505 877.647 36.8065 Q874.325 41.2625 874.325 49.3643 Q874.325 57.4256 877.647 61.8816 Q881.009 66.3376 887.004 66.3376 Q893.04 66.3376 896.362 61.8816 Q899.724 57.4256 899.724 49.3643 M907.178 66.9452 Q907.178 78.5308 902.033 84.1616 Q896.889 89.8329 886.275 89.8329 Q882.346 89.8329 878.862 89.2252 Q875.378 88.6581 872.097 87.4428 L872.097 80.1917 Q875.378 81.9741 878.579 82.8248 Q881.779 83.6755 885.1 83.6755 Q892.433 83.6755 896.078 79.8271 Q899.724 76.0193 899.724 68.282 L899.724 64.5957 Q897.415 68.6061 893.81 70.5911 Q890.205 72.576 885.181 72.576 Q876.837 72.576 871.732 66.2161 Q866.628 59.8562 866.628 49.3643 Q866.628 38.832 871.732 32.472 Q876.837 26.1121 885.181 26.1121 Q890.205 26.1121 893.81 28.0971 Q897.415 30.082 899.724 34.0924 L899.724 27.2059 L907.178 27.2059 L907.178 66.9452 Z" fill="#000000" fill-rule="nonzero" fill-opacity="1" /><path clip-path="url(#clip100)" d="M940.841 12.096 L992.004 12.096 L992.004 18.9825 L970.534 18.9825 L970.534 72.576 L962.311 72.576 L962.311 18.9825 L940.841 18.9825 L940.841 12.096 Z" fill="#000000" fill-rule="nonzero" fill-opacity="1" /><path clip-path="url(#clip100)" d="M1003.06 32.4315 Q997.067 32.4315 993.584 37.1306 Q990.1 41.7891 990.1 49.9314 Q990.1 58.0738 993.543 62.7728 Q997.027 67.4314 1003.06 67.4314 Q1009.02 67.4314 1012.5 62.7323 Q1015.99 58.0333 1015.99 49.9314 Q1015.99 41.8701 1012.5 37.1711 Q1009.02 32.4315 1003.06 32.4315 M1003.06 26.1121 Q1012.78 26.1121 1018.33 32.4315 Q1023.88 38.7509 1023.88 49.9314 Q1023.88 61.0714 1018.33 67.4314 Q1012.78 73.7508 1003.06 73.7508 Q993.3 73.7508 987.75 67.4314 Q982.241 61.0714 982.241 49.9314 Q982.241 38.7509 987.75 32.4315 Q993.3 26.1121 1003.06 26.1121 Z" fill="#000000" fill-rule="nonzero" fill-opacity="1" /><path clip-path="url(#clip100)" d="M1043.45 65.7705 L1043.45 89.8329 L1035.96 89.8329 L1035.96 27.2059 L1043.45 27.2059 L1043.45 34.0924 Q1045.8 30.0415 1049.36 28.0971 Q1052.97 26.1121 1057.95 26.1121 Q1066.22 26.1121 1071.36 32.6746 Q1076.55 39.2371 1076.55 49.9314 Q1076.55 60.6258 1071.36 67.1883 Q1066.22 73.7508 1057.95 73.7508 Q1052.97 73.7508 1049.36 71.8063 Q1045.8 69.8214 1043.45 65.7705 M1068.81 49.9314 Q1068.81 41.7081 1065.41 37.0496 Q1062.04 32.3505 1056.13 32.3505 Q1050.22 32.3505 1046.81 37.0496 Q1043.45 41.7081 1043.45 49.9314 Q1043.45 58.1548 1046.81 62.8538 Q1050.22 67.5124 1056.13 67.5124 Q1062.04 67.5124 1065.41 62.8538 Q1068.81 58.1548 1068.81 49.9314 Z" fill="#000000" fill-rule="nonzero" fill-opacity="1" /><path clip-path="url(#clip100)" d="M1106.48 32.4315 Q1100.49 32.4315 1097 37.1306 Q1093.52 41.7891 1093.52 49.9314 Q1093.52 58.0738 1096.96 62.7728 Q1100.45 67.4314 1106.48 67.4314 Q1112.44 67.4314 1115.92 62.7323 Q1119.4 58.0333 1119.4 49.9314 Q1119.4 41.8701 1115.92 37.1711 Q1112.44 32.4315 1106.48 32.4315 M1106.48 26.1121 Q1116.2 26.1121 1121.75 32.4315 Q1127.3 38.7509 1127.3 49.9314 Q1127.3 61.0714 1121.75 67.4314 Q1116.2 73.7508 1106.48 73.7508 Q1096.72 73.7508 1091.17 67.4314 Q1085.66 61.0714 1085.66 49.9314 Q1085.66 38.7509 1091.17 32.4315 Q1096.72 26.1121 1106.48 26.1121 Z" fill="#000000" fill-rule="nonzero" fill-opacity="1" /><path clip-path="url(#clip100)" d="M1139.66 9.54393 L1147.11 9.54393 L1147.11 72.576 L1139.66 72.576 L1139.66 9.54393 Z" fill="#000000" fill-rule="nonzero" fill-opacity="1" /><path clip-path="url(#clip100)" d="M1180.29 32.4315 Q1174.29 32.4315 1170.81 37.1306 Q1167.33 41.7891 1167.33 49.9314 Q1167.33 58.0738 1170.77 62.7728 Q1174.25 67.4314 1180.29 67.4314 Q1186.24 67.4314 1189.73 62.7323 Q1193.21 58.0333 1193.21 49.9314 Q1193.21 41.8701 1189.73 37.1711 Q1186.24 32.4315 1180.29 32.4315 M1180.29 26.1121 Q1190.01 26.1121 1195.56 32.4315 Q1201.11 38.7509 1201.11 49.9314 Q1201.11 61.0714 1195.56 67.4314 Q1190.01 73.7508 1180.29 73.7508 Q1170.53 73.7508 1164.98 67.4314 Q1159.47 61.0714 1159.47 49.9314 Q1159.47 38.7509 1164.98 32.4315 Q1170.53 26.1121 1180.29 26.1121 Z" fill="#000000" fill-rule="nonzero" fill-opacity="1" /><path clip-path="url(#clip100)" d="M1243.32 49.3643 Q1243.32 41.2625 1239.96 36.8065 Q1236.64 32.3505 1230.6 32.3505 Q1224.61 32.3505 1221.24 36.8065 Q1217.92 41.2625 1217.92 49.3643 Q1217.92 57.4256 1221.24 61.8816 Q1224.61 66.3376 1230.6 66.3376 Q1236.64 66.3376 1239.96 61.8816 Q1243.32 57.4256 1243.32 49.3643 M1250.78 66.9452 Q1250.78 78.5308 1245.63 84.1616 Q1240.49 89.8329 1229.87 89.8329 Q1225.94 89.8329 1222.46 89.2252 Q1218.98 88.6581 1215.69 87.4428 L1215.69 80.1917 Q1218.98 81.9741 1222.18 82.8248 Q1225.38 83.6755 1228.7 83.6755 Q1236.03 83.6755 1239.68 79.8271 Q1243.32 76.0193 1243.32 68.282 L1243.32 64.5957 Q1241.01 68.6061 1237.41 70.5911 Q1233.8 72.576 1228.78 72.576 Q1220.43 72.576 1215.33 66.2161 Q1210.23 59.8562 1210.23 49.3643 Q1210.23 38.832 1215.33 32.472 Q1220.43 26.1121 1228.78 26.1121 Q1233.8 26.1121 1237.41 28.0971 Q1241.01 30.082 1243.32 34.0924 L1243.32 27.2059 L1250.78 27.2059 L1250.78 66.9452 Z" fill="#000000" fill-rule="nonzero" fill-opacity="1" /><path clip-path="url(#clip100)" d="M1285.01 76.7889 Q1281.85 84.8907 1278.85 87.3618 Q1275.85 89.8329 1270.83 89.8329 L1264.87 89.8329 L1264.87 83.5945 L1269.25 83.5945 Q1272.33 83.5945 1274.03 82.1361 Q1275.73 80.6778 1277.8 75.2496 L1279.13 71.8468 L1260.78 27.2059 L1268.68 27.2059 L1282.86 62.6918 L1297.04 27.2059 L1304.94 27.2059 L1285.01 76.7889 Z" fill="#000000" fill-rule="nonzero" fill-opacity="1" /><path clip-path="url(#clip100)" d="M1337.83 46.9338 L1412.69 46.9338 L1412.69 52.7671 L1337.83 52.7671 L1337.83 46.9338 Z" fill="#000000" fill-rule="nonzero" fill-opacity="1" /><path clip-path="url(#clip100)" d="M1451.25 12.096 L1459.44 12.096 L1459.44 72.576 L1451.25 72.576 L1451.25 12.096 Z" fill="#000000" fill-rule="nonzero" fill-opacity="1" /><path clip-path="url(#clip100)" d="M1513.11 45.1919 L1513.11 72.576 L1505.66 72.576 L1505.66 45.4349 Q1505.66 38.994 1503.15 35.7938 Q1500.64 32.5936 1495.61 32.5936 Q1489.58 32.5936 1486.09 36.4419 Q1482.61 40.2903 1482.61 46.9338 L1482.61 72.576 L1475.11 72.576 L1475.11 27.2059 L1482.61 27.2059 L1482.61 34.2544 Q1485.28 30.163 1488.89 28.1376 Q1492.53 26.1121 1497.27 26.1121 Q1505.09 26.1121 1509.1 30.9732 Q1513.11 35.7938 1513.11 45.1919 Z" fill="#000000" fill-rule="nonzero" fill-opacity="1" /><path clip-path="url(#clip100)" d="M1550.95 9.54393 L1550.95 15.7418 L1543.82 15.7418 Q1539.81 15.7418 1538.23 17.3622 Q1536.69 18.9825 1536.69 23.1955 L1536.69 27.2059 L1548.96 27.2059 L1548.96 32.9987 L1536.69 32.9987 L1536.69 72.576 L1529.19 72.576 L1529.19 32.9987 L1522.06 32.9987 L1522.06 27.2059 L1529.19 27.2059 L1529.19 24.0462 Q1529.19 16.471 1532.72 13.0277 Q1536.24 9.54393 1543.9 9.54393 L1550.95 9.54393 Z" fill="#000000" fill-rule="nonzero" fill-opacity="1" /><path clip-path="url(#clip100)" d="M1595.99 48.0275 L1595.99 51.6733 L1561.72 51.6733 Q1562.21 59.3701 1566.34 63.421 Q1570.51 67.4314 1577.93 67.4314 Q1582.22 67.4314 1586.23 66.3781 Q1590.28 65.3249 1594.25 63.2184 L1594.25 70.267 Q1590.24 71.9684 1586.03 72.8596 Q1581.82 73.7508 1577.48 73.7508 Q1566.62 73.7508 1560.26 67.4314 Q1553.95 61.1119 1553.95 50.3365 Q1553.95 39.1965 1559.94 32.6746 Q1565.98 26.1121 1576.18 26.1121 Q1585.34 26.1121 1590.65 32.0264 Q1595.99 37.9003 1595.99 48.0275 M1588.54 45.84 Q1588.46 39.7232 1585.1 36.0774 Q1581.77 32.4315 1576.27 32.4315 Q1570.03 32.4315 1566.26 35.9558 Q1562.53 39.4801 1561.97 45.8805 L1588.54 45.84 Z" fill="#000000" fill-rule="nonzero" fill-opacity="1" /><path clip-path="url(#clip100)" d="M1640.88 28.9478 L1640.88 35.9153 Q1637.72 34.1734 1634.52 33.3227 Q1631.36 32.4315 1628.12 32.4315 Q1620.87 32.4315 1616.86 37.0496 Q1612.85 41.6271 1612.85 49.9314 Q1612.85 58.2358 1616.86 62.8538 Q1620.87 67.4314 1628.12 67.4314 Q1631.36 67.4314 1634.52 66.5807 Q1637.72 65.6895 1640.88 63.9476 L1640.88 70.8341 Q1637.76 72.2924 1634.4 73.0216 Q1631.07 73.7508 1627.31 73.7508 Q1617.06 73.7508 1611.02 67.3098 Q1604.99 60.8689 1604.99 49.9314 Q1604.99 38.832 1611.06 32.472 Q1617.18 26.1121 1627.79 26.1121 Q1631.24 26.1121 1634.52 26.8413 Q1637.8 27.5299 1640.88 28.9478 Z" fill="#000000" fill-rule="nonzero" fill-opacity="1" /><path clip-path="url(#clip100)" d="M1661.21 14.324 L1661.21 27.2059 L1676.57 27.2059 L1676.57 32.9987 L1661.21 32.9987 L1661.21 57.6282 Q1661.21 63.1779 1662.71 64.7578 Q1664.25 66.3376 1668.91 66.3376 L1676.57 66.3376 L1676.57 72.576 L1668.91 72.576 Q1660.28 72.576 1657 69.3758 Q1653.72 66.1351 1653.72 57.6282 L1653.72 32.9987 L1648.25 32.9987 L1648.25 27.2059 L1653.72 27.2059 L1653.72 14.324 L1661.21 14.324 Z" fill="#000000" fill-rule="nonzero" fill-opacity="1" /><path clip-path="url(#clip100)" d="M1725.18 48.0275 L1725.18 51.6733 L1690.91 51.6733 Q1691.39 59.3701 1695.52 63.421 Q1699.7 67.4314 1707.11 67.4314 Q1711.4 67.4314 1715.41 66.3781 Q1719.47 65.3249 1723.44 63.2184 L1723.44 70.267 Q1719.42 71.9684 1715.21 72.8596 Q1711 73.7508 1706.66 73.7508 Q1695.81 73.7508 1689.45 67.4314 Q1683.13 61.1119 1683.13 50.3365 Q1683.13 39.1965 1689.12 32.6746 Q1695.16 26.1121 1705.37 26.1121 Q1714.52 26.1121 1719.83 32.0264 Q1725.18 37.9003 1725.18 48.0275 M1717.72 45.84 Q1717.64 39.7232 1714.28 36.0774 Q1710.96 32.4315 1705.45 32.4315 Q1699.21 32.4315 1695.44 35.9558 Q1691.72 39.4801 1691.15 45.8805 L1717.72 45.84 Z" fill="#000000" fill-rule="nonzero" fill-opacity="1" /><path clip-path="url(#clip100)" d="M1767.27 34.0924 L1767.27 9.54393 L1774.72 9.54393 L1774.72 72.576 L1767.27 72.576 L1767.27 65.7705 Q1764.92 69.8214 1761.31 71.8063 Q1757.75 73.7508 1752.72 73.7508 Q1744.5 73.7508 1739.31 67.1883 Q1734.17 60.6258 1734.17 49.9314 Q1734.17 39.2371 1739.31 32.6746 Q1744.5 26.1121 1752.72 26.1121 Q1757.75 26.1121 1761.31 28.0971 Q1764.92 30.0415 1767.27 34.0924 M1741.87 49.9314 Q1741.87 58.1548 1745.23 62.8538 Q1748.63 67.5124 1754.55 67.5124 Q1760.46 67.5124 1763.86 62.8538 Q1767.27 58.1548 1767.27 49.9314 Q1767.27 41.7081 1763.86 37.0496 Q1760.46 32.3505 1754.55 32.3505 Q1748.63 32.3505 1745.23 37.0496 Q1741.87 41.7081 1741.87 49.9314 Z" fill="#000000" fill-rule="nonzero" fill-opacity="1" /><path clip-path="url(#clip100)" d="M1849.01 49.9314 Q1849.01 41.7081 1845.61 37.0496 Q1842.25 32.3505 1836.33 32.3505 Q1830.42 32.3505 1827.02 37.0496 Q1823.65 41.7081 1823.65 49.9314 Q1823.65 58.1548 1827.02 62.8538 Q1830.42 67.5124 1836.33 67.5124 Q1842.25 67.5124 1845.61 62.8538 Q1849.01 58.1548 1849.01 49.9314 M1823.65 34.0924 Q1826 30.0415 1829.57 28.0971 Q1833.17 26.1121 1838.16 26.1121 Q1846.42 26.1121 1851.57 32.6746 Q1856.75 39.2371 1856.75 49.9314 Q1856.75 60.6258 1851.57 67.1883 Q1846.42 73.7508 1838.16 73.7508 Q1833.17 73.7508 1829.57 71.8063 Q1826 69.8214 1823.65 65.7705 L1823.65 72.576 L1816.16 72.576 L1816.16 9.54393 L1823.65 9.54393 L1823.65 34.0924 Z" fill="#000000" fill-rule="nonzero" fill-opacity="1" /><path clip-path="url(#clip100)" d="M1887.98 76.7889 Q1884.82 84.8907 1881.83 87.3618 Q1878.83 89.8329 1873.8 89.8329 L1867.85 89.8329 L1867.85 83.5945 L1872.22 83.5945 Q1875.3 83.5945 1877 82.1361 Q1878.71 80.6778 1880.77 75.2496 L1882.11 71.8468 L1863.76 27.2059 L1871.66 27.2059 L1885.84 62.6918 L1900.01 27.2059 L1907.91 27.2059 L1887.98 76.7889 Z" fill="#000000" fill-rule="nonzero" fill-opacity="1" /><path clip-path="url(#clip100)" d="M1953.08 18.8205 L1953.08 41.5461 L1963.37 41.5461 Q1969.08 41.5461 1972.2 38.5889 Q1975.32 35.6318 1975.32 30.163 Q1975.32 24.7348 1972.2 21.7777 Q1969.08 18.8205 1963.37 18.8205 L1953.08 18.8205 M1944.9 12.096 L1963.37 12.096 Q1973.54 12.096 1978.72 16.714 Q1983.95 21.2916 1983.95 30.163 Q1983.95 39.1155 1978.72 43.6931 Q1973.54 48.2706 1963.37 48.2706 L1953.08 48.2706 L1953.08 72.576 L1944.9 72.576 L1944.9 12.096 Z" fill="#000000" fill-rule="nonzero" fill-opacity="1" /><path clip-path="url(#clip100)" d="M2011.49 49.7694 Q2002.46 49.7694 1998.98 51.8354 Q1995.49 53.9013 1995.49 58.8839 Q1995.49 62.8538 1998.09 65.2034 Q2000.72 67.5124 2005.22 67.5124 Q2011.41 67.5124 2015.14 63.1374 Q2018.91 58.7219 2018.91 51.4303 L2018.91 49.7694 L2011.49 49.7694 M2026.36 46.6907 L2026.36 72.576 L2018.91 72.576 L2018.91 65.6895 Q2016.36 69.8214 2012.55 71.8063 Q2008.74 73.7508 2003.23 73.7508 Q1996.26 73.7508 1992.13 69.8619 Q1988.04 65.9325 1988.04 59.3701 Q1988.04 51.7138 1993.14 47.825 Q1998.29 43.9361 2008.46 43.9361 L2018.91 43.9361 L2018.91 43.2069 Q2018.91 38.0623 2015.51 35.2672 Q2012.14 32.4315 2006.03 32.4315 Q2002.14 32.4315 1998.45 33.3632 Q1994.76 34.295 1991.36 36.1584 L1991.36 29.2718 Q1995.45 27.692 1999.3 26.9223 Q2003.15 26.1121 2006.8 26.1121 Q2016.64 26.1121 2021.5 31.2163 Q2026.36 36.3204 2026.36 46.6907 Z" fill="#000000" fill-rule="nonzero" fill-opacity="1" /><path clip-path="url(#clip100)" d="M2049.09 14.324 L2049.09 27.2059 L2064.44 27.2059 L2064.44 32.9987 L2049.09 32.9987 L2049.09 57.6282 Q2049.09 63.1779 2050.59 64.7578 Q2052.13 66.3376 2056.78 66.3376 L2064.44 66.3376 L2064.44 72.576 L2056.78 72.576 Q2048.16 72.576 2044.87 69.3758 Q2041.59 66.1351 2041.59 57.6282 L2041.59 32.9987 L2036.12 32.9987 L2036.12 27.2059 L2041.59 27.2059 L2041.59 14.324 L2049.09 14.324 Z" fill="#000000" fill-rule="nonzero" fill-opacity="1" /><path clip-path="url(#clip100)" d="M2106.89 28.9478 L2106.89 35.9153 Q2103.73 34.1734 2100.53 33.3227 Q2097.37 32.4315 2094.13 32.4315 Q2086.88 32.4315 2082.87 37.0496 Q2078.86 41.6271 2078.86 49.9314 Q2078.86 58.2358 2082.87 62.8538 Q2086.88 67.4314 2094.13 67.4314 Q2097.37 67.4314 2100.53 66.5807 Q2103.73 65.6895 2106.89 63.9476 L2106.89 70.8341 Q2103.77 72.2924 2100.41 73.0216 Q2097.09 73.7508 2093.32 73.7508 Q2083.07 73.7508 2077.04 67.3098 Q2071 60.8689 2071 49.9314 Q2071 38.832 2077.08 32.472 Q2083.2 26.1121 2093.81 26.1121 Q2097.25 26.1121 2100.53 26.8413 Q2103.82 27.5299 2106.89 28.9478 Z" fill="#000000" fill-rule="nonzero" fill-opacity="1" /><path clip-path="url(#clip100)" d="M2157.57 45.1919 L2157.57 72.576 L2150.12 72.576 L2150.12 45.4349 Q2150.12 38.994 2147.61 35.7938 Q2145.09 32.5936 2140.07 32.5936 Q2134.03 32.5936 2130.55 36.4419 Q2127.07 40.2903 2127.07 46.9338 L2127.07 72.576 L2119.57 72.576 L2119.57 9.54393 L2127.07 9.54393 L2127.07 34.2544 Q2129.74 30.163 2133.35 28.1376 Q2136.99 26.1121 2141.73 26.1121 Q2149.55 26.1121 2153.56 30.9732 Q2157.57 35.7938 2157.57 45.1919 Z" fill="#000000" fill-rule="nonzero" fill-opacity="1" /><polyline clip-path="url(#clip101)" style="stroke:#0000ff; stroke-linecap:round; stroke-linejoin:round; stroke-width:4; stroke-opacity:1; fill:none" points="321.29,173.254 325.043,176.289 328.797,179.331 332.55,182.379 336.303,185.431 340.056,188.487 343.809,191.546 347.563,194.606 351.316,197.666 355.069,200.726 358.822,203.784 362.575,206.84 366.328,209.892 370.082,212.939 373.835,215.982 377.588,219.017 381.341,222.046 385.094,225.067 388.848,228.079 392.601,231.082 396.354,234.074 400.107,237.055 403.86,240.025 407.613,242.982 411.367,245.927 415.12,248.858 418.873,251.774 422.626,254.676 426.379,257.562 430.132,260.433 433.886,263.287 437.639,266.124 441.392,268.944 445.145,271.747 448.898,274.531 452.652,277.297 456.405,280.043 460.158,282.771 463.911,285.479 467.664,288.167 471.417,290.835 475.171,293.482 478.924,296.109 482.677,298.715 486.43,301.299 490.183,303.863 493.937,306.405 497.69,308.926 501.443,311.424 505.196,313.902 508.949,316.357 512.702,318.791 516.456,321.202 520.209,323.592 523.962,325.96 527.715,328.305 531.468,330.629 535.222,332.932 538.975,335.212 542.728,337.471 546.481,339.708 550.234,341.924 553.987,344.118 557.741,346.291 561.494,348.444 565.247,350.575 569,352.686 572.753,354.776 576.507,356.847 580.26,358.897 584.013,360.928 587.766,362.939 591.519,364.932 595.272,366.906 599.026,368.861 602.779,370.798 606.532,372.718 610.285,374.62 614.038,376.505 617.792,378.374 621.545,380.226 625.298,382.062 629.051,383.883 632.804,385.689 636.557,387.48 640.311,389.257 644.064,391.02 647.817,392.77 651.57,394.507 655.323,396.232 659.077,397.946 662.83,399.648 666.583,401.339 670.336,403.02 674.089,404.691 677.842,406.353 681.596,408.007 685.349,409.652 689.102,411.29 692.855,412.921 696.608,414.545 700.361,416.164 704.115,417.777 707.868,419.385 711.621,420.989 715.374,422.59 719.127,424.187 722.881,425.782 726.634,427.376 730.387,428.968 734.14,430.559 737.893,432.15 741.646,433.742 745.4,435.334 749.153,436.929 752.906,438.526 756.659,440.125 760.412,441.729 764.166,443.336 767.919,444.948 771.672,446.566 775.425,448.19 779.178,449.82 782.931,451.457 786.685,453.101 790.438,454.755 794.191,456.416 797.944,458.088 801.697,459.769 805.451,461.461 809.204,463.163 812.957,464.878 816.71,466.604 820.463,468.344 824.216,470.096 827.97,471.863 831.723,473.644 835.476,475.439 839.229,477.251 842.982,479.077 846.736,480.921 850.489,482.781 854.242,484.659 857.995,486.554 861.748,488.468 865.501,490.401 869.255,492.353 873.008,494.324 876.761,496.316 880.514,498.329 884.267,500.362 888.021,502.417 891.774,504.493 895.527,506.591 899.28,508.712 903.033,510.856 906.786,513.023 910.54,515.214 914.293,517.428 918.046,519.667 921.799,521.93 925.552,524.218 929.306,526.531 933.059,528.87 936.812,531.234 940.565,533.624 944.318,536.04 948.071,538.483 951.825,540.952 955.578,543.448 959.331,545.971 963.084,548.52 966.837,551.098 970.591,553.702 974.344,556.335 978.097,558.995 981.85,561.682 985.603,564.398 989.356,567.142 993.11,569.913 996.863,572.713 1000.62,575.542 1004.37,578.398 1008.12,581.283 1011.88,584.196 1015.63,587.137 1019.38,590.107 1023.14,593.105 1026.89,596.131 1030.64,599.186 1034.39,602.268 1038.15,605.379 1041.9,608.518 1045.65,611.685 1049.41,614.88 1053.16,618.102 1056.91,621.353 1060.67,624.63 1064.42,627.936 1068.17,631.268 1071.93,634.627 1075.68,638.014 1079.43,641.427 1083.19,644.866 1086.94,648.332 1090.69,651.824 1094.45,655.341 1098.2,658.885 1101.95,662.453 1105.71,666.047 1109.46,669.666 1113.21,673.309 1116.96,676.976 1120.72,680.668 1124.47,684.383 1128.22,688.122 1131.98,691.884 1135.73,695.669 1139.48,699.476 1143.24,703.306 1146.99,707.157 1150.74,711.03 1154.5,714.925 1158.25,718.84 1162,722.776 1165.76,726.732 1169.51,730.707 1173.26,734.702 1177.02,738.716 1180.77,742.749 1184.52,746.8 1188.27,750.869 1192.03,754.955 1195.78,759.058 1199.53,763.178 1203.29,767.314 1207.04,771.466 1210.79,775.633 1214.55,779.815 1218.3,784.011 1222.05,788.222 1225.81,792.447 1229.56,796.684 1233.31,800.935 1237.07,805.197 1240.82,809.472 1244.57,813.759 1248.33,818.056 1252.08,822.364 1255.83,826.683 1259.59,831.011 1263.34,835.349 1267.09,839.695 1270.84,844.05 1274.6,848.413 1278.35,852.784 1282.1,857.162 1285.86,861.546 1289.61,865.937 1293.36,870.334 1297.12,874.736 1300.87,879.143 1304.62,883.555 1308.38,887.971 1312.13,892.39 1315.88,896.813 1319.64,901.239 1323.39,905.667 1327.14,910.096 1330.9,914.528 1334.65,918.96 1338.4,923.394 1342.16,927.828 1345.91,932.261 1349.66,936.694 1353.41,941.127 1357.17,945.558 1360.92,949.987 1364.67,954.414 1368.43,958.839 1372.18,963.261 1375.93,967.68 1379.69,972.095 1383.44,976.506 1387.19,980.913 1390.95,985.316 1394.7,989.713 1398.45,994.105 1402.21,998.491 1405.96,1002.87 1409.71,1007.24 1413.47,1011.61 1417.22,1015.97 1420.97,1020.32 1424.73,1024.67 1428.48,1029 1432.23,1033.33 1435.98,1037.65 1439.74,1041.96 1443.49,1046.26 1447.24,1050.55 1451,1054.83 1454.75,1059.1 1458.5,1063.36 1462.26,1067.61 1466.01,1071.85 1469.76,1076.07 1473.52,1080.29 1477.27,1084.49 1481.02,1088.68 1484.78,1092.86 1488.53,1097.02 1492.28,1101.18 1496.04,1105.32 1499.79,1109.44 1503.54,1113.56 1507.3,1117.65 1511.05,1121.74 1514.8,1125.81 1518.55,1129.86 1522.31,1133.91 1526.06,1137.93 1529.81,1141.94 1533.57,1145.94 1537.32,1149.92 1541.07,1153.89 1544.83,1157.83 1548.58,1161.77 1552.33,1165.68 1556.09,1169.59 1559.84,1173.47 1563.59,1177.34 1567.35,1181.19 1571.1,1185.02 1574.85,1188.84 1578.61,1192.64 1582.36,1196.42 1586.11,1200.18 1589.87,1203.93 1593.62,1207.66 1597.37,1211.37 1601.12,1215.07 1604.88,1218.74 1608.63,1222.4 1612.38,1226.04 1616.14,1229.66 1619.89,1233.26 1623.64,1236.85 1627.4,1240.41 1631.15,1243.96 1634.9,1247.49 1638.66,1251 1642.41,1254.49 1646.16,1257.96 1649.92,1261.42 1653.67,1264.85 1657.42,1268.26 1661.18,1271.66 1664.93,1275.04 1668.68,1278.39 1672.44,1281.73 1676.19,1285.05 1679.94,1288.35 1683.69,1291.63 1687.45,1294.89 1691.2,1298.13 1694.95,1301.35 1698.71,1304.56 1702.46,1307.74 1706.21,1310.9 1709.97,1314.05 1713.72,1317.17 1717.47,1320.27 1721.23,1323.36 1724.98,1326.43 1728.73,1329.47 1732.49,1332.5 1736.24,1335.51 1739.99,1338.49 1743.75,1341.46 1747.5,1344.41 1751.25,1347.34 1755.01,1350.25 1758.76,1353.14 1762.51,1356.02 1766.26,1358.87 1770.02,1361.7 1773.77,1364.52 1777.52,1367.31 1781.28,1370.09 1785.03,1372.84 1788.78,1375.58 1792.54,1378.3 1796.29,1381 1800.04,1383.68 1803.8,1386.34 1807.55,1388.98 1811.3,1391.61 1815.06,1394.21 1818.81,1396.8 1822.56,1399.37 1826.32,1401.92 1830.07,1404.45 1833.82,1406.96 1837.58,1409.45 1841.33,1411.93 1845.08,1414.38 1848.83,1416.82 1852.59,1419.24 1856.34,1421.65 1860.09,1424.03 1863.85,1426.4 1867.6,1428.75 1871.35,1431.08 1875.11,1433.39 1878.86,1435.69 1882.61,1437.97 1886.37,1440.23 1890.12,1442.47 1893.87,1444.7 1897.63,1446.91 1901.38,1449.1 1905.13,1451.27 1908.89,1453.43 1912.64,1455.57 1916.39,1457.69 1920.15,1459.8 1923.9,1461.89 1927.65,1463.96 1931.4,1466.02 1935.16,1468.06 1938.91,1470.08 1942.66,1472.09 1946.42,1474.08 1950.17,1476.06 1953.92,1478.02 1957.68,1479.96 1961.43,1481.89 1965.18,1483.8 1968.94,1485.7 1972.69,1487.58 1976.44,1489.44 1980.2,1491.29 1983.95,1493.13 1987.7,1494.95 1991.46,1496.75 1995.21,1498.54 1998.96,1500.32 2002.72,1502.08 2006.47,1503.82 2010.22,1505.55 2013.97,1507.27 2017.73,1508.97 2021.48,1510.65 2025.23,1512.33 2028.99,1513.98 2032.74,1515.63 2036.49,1517.26 2040.25,1518.87 2044,1520.48 2047.75,1522.06 2051.51,1523.64 2055.26,1525.2 2059.01,1526.75 2062.77,1528.28 2066.52,1529.8 2070.27,1531.31 2074.03,1532.81 2077.78,1534.29 2081.53,1535.76 2085.29,1537.21 2089.04,1538.65 2092.79,1540.09 2096.54,1541.5 2100.3,1542.91 2104.05,1544.3 2107.8,1545.68 2111.56,1547.05 2115.31,1548.41 2119.06,1549.75 2122.82,1551.08 2126.57,1552.4 2130.32,1553.71 2134.08,1555.01 2137.83,1556.29 2141.58,1557.57 2145.34,1558.83 2149.09,1560.08 2152.84,1561.32 2156.6,1562.55 2160.35,1563.77 2164.1,1564.98 2167.86,1566.17 2171.61,1567.36 2175.36,1568.53 2179.11,1569.69 2182.87,1570.85 2186.62,1571.99 2190.37,1573.12 2194.13,1574.24 2197.88,1575.35 2201.63,1576.45 2205.39,1577.55 2209.14,1578.63 2212.89,1579.7 2216.65,1580.76 2220.4,1581.81 2224.15,1582.85 2227.91,1583.88 2231.66,1584.91 2235.41,1585.92 2239.17,1586.92 2242.92,1587.92 2246.67,1588.9 2250.43,1589.88 2254.18,1590.85 2257.93,1591.81 2261.68,1592.75 2265.44,1593.69 2269.19,1594.63 2272.94,1595.55 2276.7,1596.46 2280.45,1597.37 2284.2,1598.27 2287.96,1599.15 2291.71,1600.03 2295.46,1600.91 2299.22,1601.77 2302.97,1602.63 2306.72,1603.47 2310.48,1604.31 2314.23,1605.14 2317.98,1605.97 2321.74,1606.78 2325.49,1607.59 2329.24,1608.39 2333,1609.19 2336.75,1609.97 2340.5,1610.75 2344.25,1611.52 2348.01,1612.28 2351.76,1613.04 2355.51,1613.79 2359.27,1614.53 2363.02,1615.27 2366.77,1615.99 2370.53,1616.71 2374.28,1617.43 2378.03,1618.13 2381.79,1618.83 2385.54,1619.53 2389.29,1620.21 2393.05,1620.89 2396.8,1621.57 2400.55,1622.24 2404.31,1622.9 2408.06,1623.55 2411.81,1624.2 2415.57,1624.84 2419.32,1625.48 2423.07,1626.11 2426.82,1626.73 2430.58,1627.35 2434.33,1627.96 2438.08,1628.56 2441.84,1629.16 2445.59,1629.76 2449.34,1630.34 2453.1,1630.93 2456.85,1631.5 2460.6,1632.07 2464.36,1632.64 2468.11,1633.2 2471.86,1633.75 2475.62,1634.3 2479.37,1634.85 2483.12,1635.39 2486.88,1635.92 2490.63,1636.45 2494.38,1636.97 2498.14,1637.49 2501.89,1638 2505.64,1638.51 2509.39,1639.01 2513.15,1639.51 2516.9,1640 2520.65,1640.49 2524.41,1640.97 2528.16,1641.45 2531.91,1641.93 2535.67,1642.4 2539.42,1642.86 2543.17,1643.32 2546.93,1643.78 2550.68,1644.23 2554.43,1644.67 2558.19,1645.12 2561.94,1645.55 2565.69,1645.99 2569.45,1646.42 2573.2,1646.84 "/>
<polyline clip-path="url(#clip101)" style="stroke:#ff0000; stroke-linecap:round; stroke-linejoin:round; stroke-width:4; stroke-opacity:1; fill:none" points="321.29,1688.65 325.043,1681.15 328.797,1673.62 332.55,1666.08 336.303,1658.52 340.056,1650.95 343.809,1643.37 347.563,1635.77 351.316,1628.16 355.069,1620.53 358.822,1612.89 362.575,1605.24 366.328,1597.57 370.082,1589.9 373.835,1582.21 377.588,1574.51 381.341,1566.8 385.094,1559.08 388.848,1551.35 392.601,1543.61 396.354,1535.87 400.107,1528.11 403.86,1520.35 407.613,1512.58 411.367,1504.8 415.12,1497.02 418.873,1489.23 422.626,1481.44 426.379,1473.64 430.132,1465.84 433.886,1458.03 437.639,1450.22 441.392,1442.41 445.145,1434.6 448.898,1426.79 452.652,1418.98 456.405,1411.17 460.158,1403.35 463.911,1395.54 467.664,1387.74 471.417,1379.93 475.171,1372.13 478.924,1364.34 482.677,1356.55 486.43,1348.76 490.183,1340.98 493.937,1333.21 497.69,1325.45 501.443,1317.69 505.196,1309.95 508.949,1302.22 512.702,1294.49 516.456,1286.78 520.209,1279.09 523.962,1271.4 527.715,1263.73 531.468,1256.08 535.222,1248.44 538.975,1240.82 542.728,1233.21 546.481,1225.63 550.234,1218.06 553.987,1210.51 557.741,1202.99 561.494,1195.49 565.247,1188.01 569,1180.55 572.753,1173.12 576.507,1165.71 580.26,1158.33 584.013,1150.98 587.766,1143.66 591.519,1136.37 595.272,1129.1 599.026,1121.87 602.779,1114.67 606.532,1107.5 610.285,1100.36 614.038,1093.26 617.792,1086.2 621.545,1079.17 625.298,1072.18 629.051,1065.23 632.804,1058.32 636.557,1051.44 640.311,1044.61 644.064,1037.82 647.817,1031.08 651.57,1024.38 655.323,1017.72 659.077,1011.11 662.83,1004.54 666.583,998.025 670.336,991.557 674.089,985.138 677.842,978.769 681.596,972.451 685.349,966.185 689.102,959.973 692.855,953.814 696.608,947.709 700.361,941.661 704.115,935.668 707.868,929.733 711.621,923.856 715.374,918.038 719.127,912.28 722.881,906.582 726.634,900.945 730.387,895.371 734.14,889.86 737.893,884.412 741.646,879.029 745.4,873.711 749.153,868.459 752.906,863.273 756.659,858.155 760.412,853.105 764.166,848.124 767.919,843.213 771.672,838.371 775.425,833.6 779.178,828.901 782.931,824.273 786.685,819.719 790.438,815.237 794.191,810.829 797.944,806.495 801.697,802.237 805.451,798.053 809.204,793.946 812.957,789.915 816.71,785.961 820.463,782.084 824.216,778.285 827.97,774.564 831.723,770.922 835.476,767.358 839.229,763.874 842.982,760.47 846.736,757.146 850.489,753.902 854.242,750.739 857.995,747.657 861.748,744.656 865.501,741.736 869.255,738.898 873.008,736.142 876.761,733.468 880.514,730.877 884.267,728.367 888.021,725.94 891.774,723.596 895.527,721.334 899.28,719.155 903.033,717.059 906.786,715.046 910.54,713.115 914.293,711.268 918.046,709.503 921.799,707.82 925.552,706.221 929.306,704.704 933.059,703.27 936.812,701.917 940.565,700.648 944.318,699.46 948.071,698.354 951.825,697.33 955.578,696.387 959.331,695.526 963.084,694.745 966.837,694.045 970.591,693.425 974.344,692.886 978.097,692.426 981.85,692.046 985.603,691.745 989.356,691.522 993.11,691.378 996.863,691.312 1000.62,691.323 1004.37,691.411 1008.12,691.576 1011.88,691.817 1015.63,692.134 1019.38,692.526 1023.14,692.992 1026.89,693.533 1030.64,694.147 1034.39,694.834 1038.15,695.594 1041.9,696.426 1045.65,697.329 1049.41,698.302 1053.16,699.346 1056.91,700.459 1060.67,701.64 1064.42,702.89 1068.17,704.208 1071.93,705.592 1075.68,707.042 1079.43,708.558 1083.19,710.138 1086.94,711.783 1090.69,713.49 1094.45,715.26 1098.2,717.092 1101.95,718.985 1105.71,720.939 1109.46,722.952 1113.21,725.023 1116.96,727.153 1120.72,729.34 1124.47,731.584 1128.22,733.883 1131.98,736.238 1135.73,738.646 1139.48,741.108 1143.24,743.622 1146.99,746.188 1150.74,748.804 1154.5,751.471 1158.25,754.187 1162,756.952 1165.76,759.763 1169.51,762.622 1173.26,765.526 1177.02,768.476 1180.77,771.47 1184.52,774.507 1188.27,777.587 1192.03,780.708 1195.78,783.87 1199.53,787.073 1203.29,790.314 1207.04,793.594 1210.79,796.912 1214.55,800.266 1218.3,803.656 1222.05,807.081 1225.81,810.541 1229.56,814.034 1233.31,817.559 1237.07,821.117 1240.82,824.705 1244.57,828.324 1248.33,831.971 1252.08,835.648 1255.83,839.352 1259.59,843.083 1263.34,846.841 1267.09,850.624 1270.84,854.431 1274.6,858.262 1278.35,862.116 1282.1,865.992 1285.86,869.89 1289.61,873.809 1293.36,877.748 1297.12,881.706 1300.87,885.682 1304.62,889.676 1308.38,893.687 1312.13,897.715 1315.88,901.758 1319.64,905.816 1323.39,909.888 1327.14,913.974 1330.9,918.073 1334.65,922.184 1338.4,926.306 1342.16,930.439 1345.91,934.582 1349.66,938.735 1353.41,942.897 1357.17,947.066 1360.92,951.244 1364.67,955.428 1368.43,959.619 1372.18,963.815 1375.93,968.017 1379.69,972.223 1383.44,976.433 1387.19,980.646 1390.95,984.862 1394.7,989.08 1398.45,993.301 1402.21,997.522 1405.96,1001.74 1409.71,1005.97 1413.47,1010.19 1417.22,1014.41 1420.97,1018.63 1424.73,1022.84 1428.48,1027.06 1432.23,1031.27 1435.98,1035.48 1439.74,1039.68 1443.49,1043.88 1447.24,1048.08 1451,1052.27 1454.75,1056.45 1458.5,1060.63 1462.26,1064.81 1466.01,1068.97 1469.76,1073.13 1473.52,1077.28 1477.27,1081.42 1481.02,1085.55 1484.78,1089.68 1488.53,1093.8 1492.28,1097.9 1496.04,1102 1499.79,1106.08 1503.54,1110.16 1507.3,1114.22 1511.05,1118.28 1514.8,1122.32 1518.55,1126.35 1522.31,1130.37 1526.06,1134.37 1529.81,1138.37 1533.57,1142.35 1537.32,1146.31 1541.07,1150.27 1544.83,1154.21 1548.58,1158.13 1552.33,1162.05 1556.09,1165.94 1559.84,1169.82 1563.59,1173.69 1567.35,1177.54 1571.1,1181.38 1574.85,1185.2 1578.61,1189.01 1582.36,1192.8 1586.11,1196.57 1589.87,1200.33 1593.62,1204.07 1597.37,1207.79 1601.12,1211.5 1604.88,1215.19 1608.63,1218.87 1612.38,1222.52 1616.14,1226.16 1619.89,1229.78 1623.64,1233.39 1627.4,1236.97 1631.15,1240.54 1634.9,1244.09 1638.66,1247.62 1642.41,1251.13 1646.16,1254.63 1649.92,1258.11 1653.67,1261.57 1657.42,1265 1661.18,1268.43 1664.93,1271.83 1668.68,1275.21 1672.44,1278.58 1676.19,1281.92 1679.94,1285.25 1683.69,1288.56 1687.45,1291.85 1691.2,1295.11 1694.95,1298.36 1698.71,1301.6 1702.46,1304.81 1706.21,1308 1709.97,1311.17 1713.72,1314.33 1717.47,1317.46 1721.23,1320.58 1724.98,1323.67 1728.73,1326.75 1732.49,1329.8 1736.24,1332.84 1739.99,1335.86 1743.75,1338.86 1747.5,1341.84 1751.25,1344.79 1755.01,1347.73 1758.76,1350.65 1762.51,1353.56 1766.26,1356.44 1770.02,1359.3 1773.77,1362.14 1777.52,1364.97 1781.28,1367.77 1785.03,1370.56 1788.78,1373.32 1792.54,1376.07 1796.29,1378.8 1800.04,1381.51 1803.8,1384.2 1807.55,1386.87 1811.3,1389.52 1815.06,1392.15 1818.81,1394.76 1822.56,1397.36 1826.32,1399.94 1830.07,1402.49 1833.82,1405.03 1837.58,1407.55 1841.33,1410.05 1845.08,1412.54 1848.83,1415 1852.59,1417.45 1856.34,1419.88 1860.09,1422.28 1863.85,1424.68 1867.6,1427.05 1871.35,1429.41 1875.11,1431.74 1878.86,1434.06 1882.61,1436.36 1886.37,1438.65 1890.12,1440.91 1893.87,1443.16 1897.63,1445.39 1901.38,1447.61 1905.13,1449.8 1908.89,1451.98 1912.64,1454.15 1916.39,1456.29 1920.15,1458.42 1923.9,1460.53 1927.65,1462.62 1931.4,1464.7 1935.16,1466.76 1938.91,1468.81 1942.66,1470.83 1946.42,1472.84 1950.17,1474.84 1953.92,1476.82 1957.68,1478.78 1961.43,1480.73 1965.18,1482.66 1968.94,1484.57 1972.69,1486.47 1976.44,1488.35 1980.2,1490.22 1983.95,1492.07 1987.7,1493.91 1991.46,1495.73 1995.21,1497.53 1998.96,1499.32 2002.72,1501.1 2006.47,1502.86 2010.22,1504.61 2013.97,1506.34 2017.73,1508.05 2021.48,1509.75 2025.23,1511.44 2028.99,1513.11 2032.74,1514.77 2036.49,1516.42 2040.25,1518.05 2044,1519.66 2047.75,1521.26 2051.51,1522.85 2055.26,1524.43 2059.01,1525.99 2062.77,1527.53 2066.52,1529.07 2070.27,1530.59 2074.03,1532.09 2077.78,1533.59 2081.53,1535.07 2085.29,1536.54 2089.04,1537.99 2092.79,1539.43 2096.54,1540.86 2100.3,1542.28 2104.05,1543.68 2107.8,1545.07 2111.56,1546.45 2115.31,1547.82 2119.06,1549.17 2122.82,1550.51 2126.57,1551.84 2130.32,1553.16 2134.08,1554.47 2137.83,1555.76 2141.58,1557.05 2145.34,1558.32 2149.09,1559.58 2152.84,1560.83 2156.6,1562.06 2160.35,1563.29 2164.1,1564.51 2167.86,1565.71 2171.61,1566.9 2175.36,1568.08 2179.11,1569.26 2182.87,1570.42 2186.62,1571.57 2190.37,1572.71 2194.13,1573.83 2197.88,1574.95 2201.63,1576.06 2205.39,1577.16 2209.14,1578.25 2212.89,1579.32 2216.65,1580.39 2220.4,1581.45 2224.15,1582.5 2227.91,1583.54 2231.66,1584.57 2235.41,1585.59 2239.17,1586.6 2242.92,1587.6 2246.67,1588.59 2250.43,1589.57 2254.18,1590.54 2257.93,1591.5 2261.68,1592.46 2265.44,1593.4 2269.19,1594.34 2272.94,1595.27 2276.7,1596.19 2280.45,1597.1 2284.2,1598 2287.96,1598.89 2291.71,1599.78 2295.46,1600.66 2299.22,1601.52 2302.97,1602.38 2306.72,1603.24 2310.48,1604.08 2314.23,1604.92 2317.98,1605.74 2321.74,1606.56 2325.49,1607.38 2329.24,1608.18 2333,1608.98 2336.75,1609.77 2340.5,1610.55 2344.25,1611.32 2348.01,1612.09 2351.76,1612.85 2355.51,1613.6 2359.27,1614.35 2363.02,1615.09 2366.77,1615.82 2370.53,1616.54 2374.28,1617.26 2378.03,1617.97 2381.79,1618.67 2385.54,1619.37 2389.29,1620.06 2393.05,1620.74 2396.8,1621.42 2400.55,1622.09 2404.31,1622.75 2408.06,1623.41 2411.81,1624.06 2415.57,1624.7 2419.32,1625.34 2423.07,1625.97 2426.82,1626.6 2430.58,1627.22 2434.33,1627.83 2438.08,1628.44 2441.84,1629.04 2445.59,1629.64 2449.34,1630.23 2453.1,1630.81 2456.85,1631.39 2460.6,1631.96 2464.36,1632.53 2468.11,1633.09 2471.86,1633.65 2475.62,1634.2 2479.37,1634.75 2483.12,1635.29 2486.88,1635.82 2490.63,1636.35 2494.38,1636.88 2498.14,1637.4 2501.89,1637.91 2505.64,1638.42 2509.39,1638.93 2513.15,1639.43 2516.9,1639.92 2520.65,1640.41 2524.41,1640.89 2528.16,1641.37 2531.91,1641.85 2535.67,1642.32 2539.42,1642.79 2543.17,1643.25 2546.93,1643.71 2550.68,1644.16 2554.43,1644.61 2558.19,1645.05 2561.94,1645.49 2565.69,1645.92 2569.45,1646.35 2573.2,1646.78 "/>
<polyline clip-path="url(#clip101)" style="stroke:#008000; stroke-linecap:round; stroke-linejoin:round; stroke-width:4; stroke-opacity:1; fill:none" points="321.29,1688.65 325.043,1681.15 328.797,1673.62 332.55,1666.08 336.303,1658.52 340.056,1650.95 343.809,1643.37 347.563,1635.77 351.316,1628.16 355.069,1620.53 358.822,1612.89 362.575,1605.24 366.328,1597.57 370.082,1589.9 373.835,1582.21 377.588,1574.51 381.341,1566.8 385.094,1559.08 388.848,1551.35 392.601,1543.61 396.354,1535.87 400.107,1528.11 403.86,1520.35 407.613,1512.58 411.367,1504.8 415.12,1497.02 418.873,1489.23 422.626,1481.44 426.379,1473.64 430.132,1465.84 433.886,1458.03 437.639,1450.22 441.392,1442.41 445.145,1434.6 448.898,1426.79 452.652,1418.98 456.405,1411.17 460.158,1403.35 463.911,1395.54 467.664,1387.74 471.417,1379.93 475.171,1372.13 478.924,1364.34 482.677,1356.55 486.43,1348.76 490.183,1340.98 493.937,1333.21 497.69,1325.45 501.443,1317.69 505.196,1309.95 508.949,1302.22 512.702,1294.49 516.456,1286.78 520.209,1279.09 523.962,1271.4 527.715,1263.73 531.468,1256.08 535.222,1248.44 538.975,1240.82 542.728,1233.21 546.481,1225.63 550.234,1218.06 553.987,1210.51 557.741,1202.99 561.494,1195.49 565.247,1188.01 569,1180.55 572.753,1173.12 576.507,1165.71 580.26,1158.33 584.013,1150.98 587.766,1143.66 591.519,1136.37 595.272,1129.1 599.026,1121.87 602.779,1114.67 606.532,1107.5 610.285,1100.36 614.038,1093.26 617.792,1086.2 621.545,1079.17 625.298,1072.18 629.051,1065.23 632.804,1058.32 636.557,1051.44 640.311,1044.61 644.064,1037.82 647.817,1031.08 651.57,1024.38 655.323,1017.72 659.077,1011.11 662.83,1004.54 666.583,998.025 670.336,991.557 674.089,985.138 677.842,978.769 681.596,972.451 685.349,966.185 689.102,959.973 692.855,953.814 696.608,947.709 700.361,941.661 704.115,935.668 707.868,929.733 711.621,923.856 715.374,918.038 719.127,912.28 722.881,906.582 726.634,900.945 730.387,895.371 734.14,889.86 737.893,884.412 741.646,879.029 745.4,873.711 749.153,868.459 752.906,863.273 756.659,858.155 760.412,853.105 764.166,848.124 767.919,843.213 771.672,838.371 775.425,833.6 779.178,828.901 782.931,824.273 786.685,819.719 790.438,815.237 794.191,810.829 797.944,806.495 801.697,802.237 805.451,798.053 809.204,793.946 812.957,789.915 816.71,785.961 820.463,782.084 824.216,778.285 827.97,774.564 831.723,770.922 835.476,767.358 839.229,763.874 842.982,760.47 846.736,757.146 850.489,753.902 854.242,750.739 857.995,747.657 861.748,744.656 865.501,741.736 869.255,738.898 873.008,736.142 876.761,733.468 880.514,730.877 884.267,728.367 888.021,725.94 891.774,723.596 895.527,721.334 899.28,719.155 903.033,717.059 906.786,715.046 910.54,713.115 914.293,711.268 918.046,709.503 921.799,707.82 925.552,706.221 929.306,704.704 933.059,703.27 936.812,701.917 940.565,700.648 944.318,699.46 948.071,698.354 951.825,697.33 955.578,696.387 959.331,695.526 963.084,694.745 966.837,694.045 970.591,693.425 974.344,692.886 978.097,692.426 981.85,692.046 985.603,691.745 989.356,691.522 993.11,691.378 996.863,691.312 1000.62,691.323 1004.37,691.411 1008.12,691.576 1011.88,691.817 1015.63,692.134 1019.38,692.526 1023.14,692.992 1026.89,693.533 1030.64,694.147 1034.39,694.834 1038.15,695.594 1041.9,696.426 1045.65,697.329 1049.41,698.302 1053.16,699.346 1056.91,700.459 1060.67,701.64 1064.42,702.89 1068.17,704.208 1071.93,705.592 1075.68,707.042 1079.43,708.558 1083.19,710.138 1086.94,711.783 1090.69,713.49 1094.45,715.26 1098.2,717.092 1101.95,718.985 1105.71,720.939 1109.46,722.952 1113.21,725.023 1116.96,727.153 1120.72,729.34 1124.47,731.584 1128.22,733.883 1131.98,736.238 1135.73,738.646 1139.48,741.108 1143.24,743.622 1146.99,746.188 1150.74,748.804 1154.5,751.471 1158.25,754.187 1162,756.952 1165.76,759.763 1169.51,762.622 1173.26,765.526 1177.02,768.476 1180.77,771.47 1184.52,774.507 1188.27,777.587 1192.03,780.708 1195.78,783.87 1199.53,787.073 1203.29,790.314 1207.04,793.594 1210.79,796.912 1214.55,800.266 1218.3,803.656 1222.05,807.081 1225.81,810.541 1229.56,814.034 1233.31,817.559 1237.07,821.117 1240.82,824.705 1244.57,828.324 1248.33,831.971 1252.08,835.648 1255.83,839.352 1259.59,843.083 1263.34,846.841 1267.09,850.624 1270.84,854.431 1274.6,858.262 1278.35,862.116 1282.1,865.992 1285.86,869.89 1289.61,873.809 1293.36,877.748 1297.12,881.706 1300.87,885.682 1304.62,889.676 1308.38,893.687 1312.13,897.715 1315.88,901.758 1319.64,905.816 1323.39,909.888 1327.14,913.974 1330.9,918.073 1334.65,922.184 1338.4,926.306 1342.16,930.439 1345.91,934.582 1349.66,938.735 1353.41,942.897 1357.17,947.066 1360.92,951.244 1364.67,955.428 1368.43,959.619 1372.18,963.815 1375.93,968.017 1379.69,972.223 1383.44,976.433 1387.19,980.646 1390.95,984.862 1394.7,989.08 1398.45,993.301 1402.21,997.522 1405.96,1001.74 1409.71,1005.97 1413.47,1010.19 1417.22,1014.41 1420.97,1018.63 1424.73,1022.84 1428.48,1027.06 1432.23,1031.27 1435.98,1035.48 1439.74,1039.68 1443.49,1043.88 1447.24,1048.08 1451,1052.27 1454.75,1056.45 1458.5,1060.63 1462.26,1064.81 1466.01,1068.97 1469.76,1073.13 1473.52,1077.28 1477.27,1081.42 1481.02,1085.55 1484.78,1089.68 1488.53,1093.8 1492.28,1097.9 1496.04,1102 1499.79,1106.08 1503.54,1110.16 1507.3,1114.22 1511.05,1118.28 1514.8,1122.32 1518.55,1126.35 1522.31,1130.37 1526.06,1134.37 1529.81,1138.37 1533.57,1142.35 1537.32,1146.31 1541.07,1150.27 1544.83,1154.21 1548.58,1158.13 1552.33,1162.05 1556.09,1165.94 1559.84,1169.82 1563.59,1173.69 1567.35,1177.54 1571.1,1181.38 1574.85,1185.2 1578.61,1189.01 1582.36,1192.8 1586.11,1196.57 1589.87,1200.33 1593.62,1204.07 1597.37,1207.79 1601.12,1211.5 1604.88,1215.19 1608.63,1218.87 1612.38,1222.52 1616.14,1226.16 1619.89,1229.78 1623.64,1233.39 1627.4,1236.97 1631.15,1240.54 1634.9,1244.09 1638.66,1247.62 1642.41,1251.13 1646.16,1254.63 1649.92,1258.11 1653.67,1261.57 1657.42,1265 1661.18,1268.43 1664.93,1271.83 1668.68,1275.21 1672.44,1278.58 1676.19,1281.92 1679.94,1285.25 1683.69,1288.56 1687.45,1291.85 1691.2,1295.11 1694.95,1298.36 1698.71,1301.6 1702.46,1304.81 1706.21,1308 1709.97,1311.17 1713.72,1314.33 1717.47,1317.46 1721.23,1320.58 1724.98,1323.67 1728.73,1326.75 1732.49,1329.8 1736.24,1332.84 1739.99,1335.86 1743.75,1338.86 1747.5,1341.84 1751.25,1344.79 1755.01,1347.73 1758.76,1350.65 1762.51,1353.56 1766.26,1356.44 1770.02,1359.3 1773.77,1362.14 1777.52,1364.97 1781.28,1367.77 1785.03,1370.56 1788.78,1373.32 1792.54,1376.07 1796.29,1378.8 1800.04,1381.51 1803.8,1384.2 1807.55,1386.87 1811.3,1389.52 1815.06,1392.15 1818.81,1394.76 1822.56,1397.36 1826.32,1399.94 1830.07,1402.49 1833.82,1405.03 1837.58,1407.55 1841.33,1410.05 1845.08,1412.54 1848.83,1415 1852.59,1417.45 1856.34,1419.88 1860.09,1422.28 1863.85,1424.68 1867.6,1427.05 1871.35,1429.41 1875.11,1431.74 1878.86,1434.06 1882.61,1436.36 1886.37,1438.65 1890.12,1440.91 1893.87,1443.16 1897.63,1445.39 1901.38,1447.61 1905.13,1449.8 1908.89,1451.98 1912.64,1454.15 1916.39,1456.29 1920.15,1458.42 1923.9,1460.53 1927.65,1462.62 1931.4,1464.7 1935.16,1466.76 1938.91,1468.81 1942.66,1470.83 1946.42,1472.84 1950.17,1474.84 1953.92,1476.82 1957.68,1478.78 1961.43,1480.73 1965.18,1482.66 1968.94,1484.57 1972.69,1486.47 1976.44,1488.35 1980.2,1490.22 1983.95,1492.07 1987.7,1493.91 1991.46,1495.73 1995.21,1497.53 1998.96,1499.32 2002.72,1501.1 2006.47,1502.86 2010.22,1504.61 2013.97,1506.34 2017.73,1508.05 2021.48,1509.75 2025.23,1511.44 2028.99,1513.11 2032.74,1514.77 2036.49,1516.42 2040.25,1518.05 2044,1519.66 2047.75,1521.26 2051.51,1522.85 2055.26,1524.43 2059.01,1525.99 2062.77,1527.53 2066.52,1529.07 2070.27,1530.59 2074.03,1532.09 2077.78,1533.59 2081.53,1535.07 2085.29,1536.54 2089.04,1537.99 2092.79,1539.43 2096.54,1540.86 2100.3,1542.28 2104.05,1543.68 2107.8,1545.07 2111.56,1546.45 2115.31,1547.82 2119.06,1549.17 2122.82,1550.51 2126.57,1551.84 2130.32,1553.16 2134.08,1554.47 2137.83,1555.76 2141.58,1557.05 2145.34,1558.32 2149.09,1559.58 2152.84,1560.83 2156.6,1562.06 2160.35,1563.29 2164.1,1564.51 2167.86,1565.71 2171.61,1566.9 2175.36,1568.08 2179.11,1569.26 2182.87,1570.42 2186.62,1571.57 2190.37,1572.71 2194.13,1573.83 2197.88,1574.95 2201.63,1576.06 2205.39,1577.16 2209.14,1578.25 2212.89,1579.32 2216.65,1580.39 2220.4,1581.45 2224.15,1582.5 2227.91,1583.54 2231.66,1584.57 2235.41,1585.59 2239.17,1586.6 2242.92,1587.6 2246.67,1588.59 2250.43,1589.57 2254.18,1590.54 2257.93,1591.5 2261.68,1592.46 2265.44,1593.4 2269.19,1594.34 2272.94,1595.27 2276.7,1596.19 2280.45,1597.1 2284.2,1598 2287.96,1598.89 2291.71,1599.78 2295.46,1600.66 2299.22,1601.52 2302.97,1602.38 2306.72,1603.24 2310.48,1604.08 2314.23,1604.92 2317.98,1605.74 2321.74,1606.56 2325.49,1607.38 2329.24,1608.18 2333,1608.98 2336.75,1609.77 2340.5,1610.55 2344.25,1611.32 2348.01,1612.09 2351.76,1612.85 2355.51,1613.6 2359.27,1614.35 2363.02,1615.09 2366.77,1615.82 2370.53,1616.54 2374.28,1617.26 2378.03,1617.97 2381.79,1618.67 2385.54,1619.37 2389.29,1620.06 2393.05,1620.74 2396.8,1621.42 2400.55,1622.09 2404.31,1622.75 2408.06,1623.41 2411.81,1624.06 2415.57,1624.7 2419.32,1625.34 2423.07,1625.97 2426.82,1626.6 2430.58,1627.22 2434.33,1627.83 2438.08,1628.44 2441.84,1629.04 2445.59,1629.64 2449.34,1630.23 2453.1,1630.81 2456.85,1631.39 2460.6,1631.96 2464.36,1632.53 2468.11,1633.09 2471.86,1633.65 2475.62,1634.2 2479.37,1634.75 2483.12,1635.29 2486.88,1635.82 2490.63,1636.35 2494.38,1636.88 2498.14,1637.4 2501.89,1637.91 2505.64,1638.42 2509.39,1638.93 2513.15,1639.43 2516.9,1639.92 2520.65,1640.41 2524.41,1640.89 2528.16,1641.37 2531.91,1641.85 2535.67,1642.32 2539.42,1642.79 2543.17,1643.25 2546.93,1643.71 2550.68,1644.16 2554.43,1644.61 2558.19,1645.05 2561.94,1645.49 2565.69,1645.92 2569.45,1646.35 2573.2,1646.78 "/>
<path clip-path="url(#clip100)" d="M2270.33 388.696 L2561.19 388.696 L2561.19 181.336 L2270.33 181.336  Z" fill="#ffffff" fill-rule="evenodd" fill-opacity="1"/>
<polyline clip-path="url(#clip100)" style="stroke:#000000; stroke-linecap:round; stroke-linejoin:round; stroke-width:4; stroke-opacity:1; fill:none" points="2270.33,388.696 2561.19,388.696 2561.19,181.336 2270.33,181.336 2270.33,388.696 "/>
<polyline clip-path="url(#clip100)" style="stroke:#0000ff; stroke-linecap:round; stroke-linejoin:round; stroke-width:4; stroke-opacity:1; fill:none" points="2296.86,233.176 2455.99,233.176 "/>
<path clip-path="url(#clip100)" d="M2486.8 246.567 L2486.8 260.317 L2482.51 260.317 L2482.51 224.531 L2486.8 224.531 L2486.8 228.466 Q2488.14 226.151 2490.18 225.04 Q2492.24 223.906 2495.08 223.906 Q2499.81 223.906 2502.74 227.655 Q2505.71 231.405 2505.71 237.517 Q2505.71 243.628 2502.74 247.378 Q2499.81 251.128 2495.08 251.128 Q2492.24 251.128 2490.18 250.016 Q2488.14 248.882 2486.8 246.567 M2501.29 237.517 Q2501.29 232.817 2499.34 230.155 Q2497.42 227.47 2494.04 227.47 Q2490.66 227.47 2488.72 230.155 Q2486.8 232.817 2486.8 237.517 Q2486.8 242.216 2488.72 244.901 Q2490.66 247.563 2494.04 247.563 Q2497.42 247.563 2499.34 244.901 Q2501.29 242.216 2501.29 237.517 Z" fill="#000000" fill-rule="nonzero" fill-opacity="1" /><path clip-path="url(#clip100)" d="M2514.18 246.521 L2521.82 246.521 L2521.82 220.156 L2513.51 221.822 L2513.51 217.563 L2521.77 215.896 L2526.45 215.896 L2526.45 246.521 L2534.09 246.521 L2534.09 250.456 L2514.18 250.456 L2514.18 246.521 Z" fill="#000000" fill-rule="nonzero" fill-opacity="1" /><polyline clip-path="url(#clip100)" style="stroke:#ff0000; stroke-linecap:round; stroke-linejoin:round; stroke-width:4; stroke-opacity:1; fill:none" points="2296.86,285.016 2455.99,285.016 "/>
<path clip-path="url(#clip100)" d="M2486.8 298.407 L2486.8 312.157 L2482.51 312.157 L2482.51 276.371 L2486.8 276.371 L2486.8 280.306 Q2488.14 277.991 2490.18 276.88 Q2492.24 275.746 2495.08 275.746 Q2499.81 275.746 2502.74 279.495 Q2505.71 283.245 2505.71 289.357 Q2505.71 295.468 2502.74 299.218 Q2499.81 302.968 2495.08 302.968 Q2492.24 302.968 2490.18 301.856 Q2488.14 300.722 2486.8 298.407 M2501.29 289.357 Q2501.29 284.657 2499.34 281.995 Q2497.42 279.31 2494.04 279.31 Q2490.66 279.31 2488.72 281.995 Q2486.8 284.657 2486.8 289.357 Q2486.8 294.056 2488.72 296.741 Q2490.66 299.403 2494.04 299.403 Q2497.42 299.403 2499.34 296.741 Q2501.29 294.056 2501.29 289.357 Z" fill="#000000" fill-rule="nonzero" fill-opacity="1" /><path clip-path="url(#clip100)" d="M2517.4 298.361 L2533.72 298.361 L2533.72 302.296 L2511.77 302.296 L2511.77 298.361 Q2514.43 295.607 2519.02 290.977 Q2523.62 286.324 2524.8 284.982 Q2527.05 282.458 2527.93 280.722 Q2528.83 278.963 2528.83 277.273 Q2528.83 274.519 2526.89 272.783 Q2524.97 271.046 2521.87 271.046 Q2519.67 271.046 2517.21 271.81 Q2514.78 272.574 2512 274.125 L2512 269.403 Q2514.83 268.269 2517.28 267.69 Q2519.74 267.111 2521.77 267.111 Q2527.14 267.111 2530.34 269.796 Q2533.53 272.482 2533.53 276.972 Q2533.53 279.102 2532.72 281.023 Q2531.93 282.921 2529.83 285.514 Q2529.25 286.185 2526.15 289.403 Q2523.05 292.597 2517.4 298.361 Z" fill="#000000" fill-rule="nonzero" fill-opacity="1" /><polyline clip-path="url(#clip100)" style="stroke:#008000; stroke-linecap:round; stroke-linejoin:round; stroke-width:4; stroke-opacity:1; fill:none" points="2296.86,336.856 2455.99,336.856 "/>
<path clip-path="url(#clip100)" d="M2486.8 350.247 L2486.8 363.997 L2482.51 363.997 L2482.51 328.211 L2486.8 328.211 L2486.8 332.146 Q2488.14 329.831 2490.18 328.72 Q2492.24 327.586 2495.08 327.586 Q2499.81 327.586 2502.74 331.335 Q2505.71 335.085 2505.71 341.197 Q2505.71 347.308 2502.74 351.058 Q2499.81 354.808 2495.08 354.808 Q2492.24 354.808 2490.18 353.696 Q2488.14 352.562 2486.8 350.247 M2501.29 341.197 Q2501.29 336.497 2499.34 333.835 Q2497.42 331.15 2494.04 331.15 Q2490.66 331.15 2488.72 333.835 Q2486.8 336.497 2486.8 341.197 Q2486.8 345.896 2488.72 348.581 Q2490.66 351.243 2494.04 351.243 Q2497.42 351.243 2499.34 348.581 Q2501.29 345.896 2501.29 341.197 Z" fill="#000000" fill-rule="nonzero" fill-opacity="1" /><path clip-path="url(#clip100)" d="M2527.54 335.502 Q2530.89 336.22 2532.77 338.488 Q2534.67 340.757 2534.67 344.09 Q2534.67 349.206 2531.15 352.007 Q2527.63 354.808 2521.15 354.808 Q2518.97 354.808 2516.66 354.368 Q2514.37 353.951 2511.91 353.095 L2511.91 348.581 Q2513.86 349.715 2516.17 350.294 Q2518.49 350.872 2521.01 350.872 Q2525.41 350.872 2527.7 349.136 Q2530.01 347.4 2530.01 344.09 Q2530.01 341.035 2527.86 339.322 Q2525.73 337.585 2521.91 337.585 L2517.88 337.585 L2517.88 333.743 L2522.1 333.743 Q2525.55 333.743 2527.37 332.377 Q2529.2 330.988 2529.2 328.396 Q2529.2 325.734 2527.3 324.322 Q2525.43 322.886 2521.91 322.886 Q2519.99 322.886 2517.79 323.303 Q2515.59 323.72 2512.95 324.599 L2512.95 320.433 Q2515.62 319.692 2517.93 319.322 Q2520.27 318.951 2522.33 318.951 Q2527.65 318.951 2530.75 321.382 Q2533.86 323.789 2533.86 327.91 Q2533.86 330.78 2532.21 332.771 Q2530.57 334.738 2527.54 335.502 Z" fill="#000000" fill-rule="nonzero" fill-opacity="1" /></svg>
