<?xml version="1.0" encoding="utf-8"?>
<svg xmlns="http://www.w3.org/2000/svg" xmlns:xlink="http://www.w3.org/1999/xlink" width="672" height="480" viewBox="0 0 2688 1920">
<defs>
  <clipPath id="clip010">
    <rect x="0" y="0" width="2688" height="1920"/>
  </clipPath>
</defs>
<path clip-path="url(#clip010)" d="M0 1920 L2688 1920 L2688 -4.26326e-14 L0 -4.26326e-14  Z" fill="#ffffff" fill-rule="evenodd" fill-opacity="1"/>
<defs>
  <clipPath id="clip011">
    <rect x="374" y="127" width="2268" height="1607"/>
  </clipPath>
</defs>
<path clip-path="url(#clip010)" d="M374.242 1734.12 L2640.76 1734.12 L2640.76 127.792 L374.242 127.792  Z" fill="#ffffff" fill-rule="evenodd" fill-opacity="1"/>
<polyline clip-path="url(#clip011)" style="stroke:#000000; stroke-linecap:round; stroke-linejoin:round; stroke-width:2; stroke-opacity:0.1; fill:none" points="438.388,1734.12 438.388,127.792 "/>
<polyline clip-path="url(#clip011)" style="stroke:#000000; stroke-linecap:round; stroke-linejoin:round; stroke-width:2; stroke-opacity:0.1; fill:none" points="883.851,1734.12 883.851,127.792 "/>
<polyline clip-path="url(#clip011)" style="stroke:#000000; stroke-linecap:round; stroke-linejoin:round; stroke-width:2; stroke-opacity:0.1; fill:none" points="1329.31,1734.12 1329.31,127.792 "/>
<polyline clip-path="url(#clip011)" style="stroke:#000000; stroke-linecap:round; stroke-linejoin:round; stroke-width:2; stroke-opacity:0.1; fill:none" points="1774.78,1734.12 1774.78,127.792 "/>
<polyline clip-path="url(#clip011)" style="stroke:#000000; stroke-linecap:round; stroke-linejoin:round; stroke-width:2; stroke-opacity:0.1; fill:none" points="2220.24,1734.12 2220.24,127.792 "/>
<polyline clip-path="url(#clip011)" style="stroke:#000000; stroke-linecap:round; stroke-linejoin:round; stroke-width:2; stroke-opacity:0.1; fill:none" points="374.242,1688.65 2640.76,1688.65 "/>
<polyline clip-path="url(#clip011)" style="stroke:#000000; stroke-linecap:round; stroke-linejoin:round; stroke-width:2; stroke-opacity:0.1; fill:none" points="374.242,1272.18 2640.76,1272.18 "/>
<polyline clip-path="url(#clip011)" style="stroke:#000000; stroke-linecap:round; stroke-linejoin:round; stroke-width:2; stroke-opacity:0.1; fill:none" points="374.242,855.713 2640.76,855.713 "/>
<polyline clip-path="url(#clip011)" style="stroke:#000000; stroke-linecap:round; stroke-linejoin:round; stroke-width:2; stroke-opacity:0.1; fill:none" points="374.242,439.242 2640.76,439.242 "/>
<polyline clip-path="url(#clip010)" style="stroke:#000000; stroke-linecap:round; stroke-linejoin:round; stroke-width:4; stroke-opacity:1; fill:none" points="374.242,1734.12 2640.76,1734.12 "/>
<polyline clip-path="url(#clip010)" style="stroke:#000000; stroke-linecap:round; stroke-linejoin:round; stroke-width:4; stroke-opacity:1; fill:none" points="438.388,1734.12 438.388,1715.22 "/>
<polyline clip-path="url(#clip010)" style="stroke:#000000; stroke-linecap:round; stroke-linejoin:round; stroke-width:4; stroke-opacity:1; fill:none" points="883.851,1734.12 883.851,1715.22 "/>
<polyline clip-path="url(#clip010)" style="stroke:#000000; stroke-linecap:round; stroke-linejoin:round; stroke-width:4; stroke-opacity:1; fill:none" points="1329.31,1734.12 1329.31,1715.22 "/>
<polyline clip-path="url(#clip010)" style="stroke:#000000; stroke-linecap:round; stroke-linejoin:round; stroke-width:4; stroke-opacity:1; fill:none" points="1774.78,1734.12 1774.78,1715.22 "/>
<polyline clip-path="url(#clip010)" style="stroke:#000000; stroke-linecap:round; stroke-linejoin:round; stroke-width:4; stroke-opacity:1; fill:none" points="2220.24,1734.12 2220.24,1715.22 "/>
<path clip-path="url(#clip010)" d="M438.388 1767.34 Q434.777 1767.34 432.948 1770.9 Q431.143 1774.45 431.143 1781.58 Q431.143 1788.68 432.948 1792.25 Q434.777 1795.79 438.388 1795.79 Q442.022 1795.79 443.828 1792.25 Q445.657 1788.68 445.657 1781.58 Q445.657 1774.45 443.828 1770.9 Q442.022 1767.34 438.388 1767.34 M438.388 1763.64 Q444.198 1763.64 447.254 1768.24 Q450.333 1772.83 450.333 1781.58 Q450.333 1790.3 447.254 1794.91 Q444.198 1799.49 438.388 1799.49 Q432.578 1799.49 429.499 1794.91 Q426.444 1790.3 426.444 1781.58 Q426.444 1772.83 429.499 1768.24 Q432.578 1763.64 438.388 1763.64 Z" fill="#000000" fill-rule="nonzero" fill-opacity="1" /><path clip-path="url(#clip010)" d="M863.122 1794.89 L879.441 1794.89 L879.441 1798.82 L857.497 1798.82 L857.497 1794.89 Q860.159 1792.13 864.742 1787.5 Q869.349 1782.85 870.529 1781.51 Q872.775 1778.98 873.654 1777.25 Q874.557 1775.49 874.557 1773.8 Q874.557 1771.04 872.613 1769.31 Q870.691 1767.57 867.589 1767.57 Q865.39 1767.57 862.937 1768.34 Q860.506 1769.1 857.728 1770.65 L857.728 1765.93 Q860.552 1764.79 863.006 1764.21 Q865.46 1763.64 867.497 1763.64 Q872.867 1763.64 876.062 1766.32 Q879.256 1769.01 879.256 1773.5 Q879.256 1775.63 878.446 1777.55 Q877.659 1779.45 875.552 1782.04 Q874.974 1782.71 871.872 1785.93 Q868.77 1789.12 863.122 1794.89 Z" fill="#000000" fill-rule="nonzero" fill-opacity="1" /><path clip-path="url(#clip010)" d="M889.302 1764.26 L907.659 1764.26 L907.659 1768.2 L893.585 1768.2 L893.585 1776.67 Q894.603 1776.32 895.622 1776.16 Q896.64 1775.97 897.659 1775.97 Q903.446 1775.97 906.825 1779.15 Q910.205 1782.32 910.205 1787.73 Q910.205 1793.31 906.733 1796.41 Q903.261 1799.49 896.941 1799.49 Q894.765 1799.49 892.497 1799.12 Q890.251 1798.75 887.844 1798.01 L887.844 1793.31 Q889.927 1794.45 892.15 1795 Q894.372 1795.56 896.849 1795.56 Q900.853 1795.56 903.191 1793.45 Q905.529 1791.34 905.529 1787.73 Q905.529 1784.12 903.191 1782.02 Q900.853 1779.91 896.849 1779.91 Q894.974 1779.91 893.099 1780.33 Q891.247 1780.74 889.302 1781.62 L889.302 1764.26 Z" fill="#000000" fill-rule="nonzero" fill-opacity="1" /><path clip-path="url(#clip010)" d="M1304.01 1764.26 L1322.37 1764.26 L1322.37 1768.2 L1308.3 1768.2 L1308.3 1776.67 Q1309.31 1776.32 1310.33 1776.16 Q1311.35 1775.97 1312.37 1775.97 Q1318.16 1775.97 1321.54 1779.15 Q1324.92 1782.32 1324.92 1787.73 Q1324.92 1793.31 1321.44 1796.41 Q1317.97 1799.49 1311.65 1799.49 Q1309.48 1799.49 1307.21 1799.12 Q1304.96 1798.75 1302.55 1798.01 L1302.55 1793.31 Q1304.64 1794.45 1306.86 1795 Q1309.08 1795.56 1311.56 1795.56 Q1315.56 1795.56 1317.9 1793.45 Q1320.24 1791.34 1320.24 1787.73 Q1320.24 1784.12 1317.9 1782.02 Q1315.56 1779.91 1311.56 1779.91 Q1309.68 1779.91 1307.81 1780.33 Q1305.96 1780.74 1304.01 1781.62 L1304.01 1764.26 Z" fill="#000000" fill-rule="nonzero" fill-opacity="1" /><path clip-path="url(#clip010)" d="M1344.13 1767.34 Q1340.52 1767.34 1338.69 1770.9 Q1336.88 1774.45 1336.88 1781.58 Q1336.88 1788.68 1338.69 1792.25 Q1340.52 1795.79 1344.13 1795.79 Q1347.76 1795.79 1349.57 1792.25 Q1351.4 1788.68 1351.4 1781.58 Q1351.4 1774.45 1349.57 1770.9 Q1347.76 1767.34 1344.13 1767.34 M1344.13 1763.64 Q1349.94 1763.64 1352.99 1768.24 Q1356.07 1772.83 1356.07 1781.58 Q1356.07 1790.3 1352.99 1794.91 Q1349.94 1799.49 1344.13 1799.49 Q1338.32 1799.49 1335.24 1794.91 Q1332.18 1790.3 1332.18 1781.58 Q1332.18 1772.83 1335.24 1768.24 Q1338.32 1763.64 1344.13 1763.64 Z" fill="#000000" fill-rule="nonzero" fill-opacity="1" /><path clip-path="url(#clip010)" d="M1748.63 1764.26 L1770.85 1764.26 L1770.85 1766.25 L1758.31 1798.82 L1753.42 1798.82 L1765.23 1768.2 L1748.63 1768.2 L1748.63 1764.26 Z" fill="#000000" fill-rule="nonzero" fill-opacity="1" /><path clip-path="url(#clip010)" d="M1780.02 1764.26 L1798.38 1764.26 L1798.38 1768.2 L1784.3 1768.2 L1784.3 1776.67 Q1785.32 1776.32 1786.34 1776.16 Q1787.36 1775.97 1788.38 1775.97 Q1794.16 1775.97 1797.54 1779.15 Q1800.92 1782.32 1800.92 1787.73 Q1800.92 1793.31 1797.45 1796.41 Q1793.98 1799.49 1787.66 1799.49 Q1785.48 1799.49 1783.21 1799.12 Q1780.97 1798.75 1778.56 1798.01 L1778.56 1793.31 Q1780.64 1794.45 1782.87 1795 Q1785.09 1795.56 1787.57 1795.56 Q1791.57 1795.56 1793.91 1793.45 Q1796.25 1791.34 1796.25 1787.73 Q1796.25 1784.12 1793.91 1782.02 Q1791.57 1779.91 1787.57 1779.91 Q1785.69 1779.91 1783.82 1780.33 Q1781.96 1780.74 1780.02 1781.62 L1780.02 1764.26 Z" fill="#000000" fill-rule="nonzero" fill-opacity="1" /><path clip-path="url(#clip010)" d="M2179.85 1794.89 L2187.48 1794.89 L2187.48 1768.52 L2179.17 1770.19 L2179.17 1765.93 L2187.44 1764.26 L2192.11 1764.26 L2192.11 1794.89 L2199.75 1794.89 L2199.75 1798.82 L2179.85 1798.82 L2179.85 1794.89 Z" fill="#000000" fill-rule="nonzero" fill-opacity="1" /><path clip-path="url(#clip010)" d="M2219.2 1767.34 Q2215.59 1767.34 2213.76 1770.9 Q2211.95 1774.45 2211.95 1781.58 Q2211.95 1788.68 2213.76 1792.25 Q2215.59 1795.79 2219.2 1795.79 Q2222.83 1795.79 2224.64 1792.25 Q2226.47 1788.68 2226.47 1781.58 Q2226.47 1774.45 2224.64 1770.9 Q2222.83 1767.34 2219.2 1767.34 M2219.2 1763.64 Q2225.01 1763.64 2228.06 1768.24 Q2231.14 1772.83 2231.14 1781.58 Q2231.14 1790.3 2228.06 1794.91 Q2225.01 1799.49 2219.2 1799.49 Q2213.39 1799.49 2210.31 1794.91 Q2207.25 1790.3 2207.25 1781.58 Q2207.25 1772.83 2210.31 1768.24 Q2213.39 1763.64 2219.2 1763.64 Z" fill="#000000" fill-rule="nonzero" fill-opacity="1" /><path clip-path="url(#clip010)" d="M2249.36 1767.34 Q2245.75 1767.34 2243.92 1770.9 Q2242.11 1774.45 2242.11 1781.58 Q2242.11 1788.68 2243.92 1792.25 Q2245.75 1795.79 2249.36 1795.79 Q2252.99 1795.79 2254.8 1792.25 Q2256.63 1788.68 2256.63 1781.58 Q2256.63 1774.45 2254.8 1770.9 Q2252.99 1767.34 2249.36 1767.34 M2249.36 1763.64 Q2255.17 1763.64 2258.23 1768.24 Q2261.3 1772.83 2261.3 1781.58 Q2261.3 1790.3 2258.23 1794.91 Q2255.17 1799.49 2249.36 1799.49 Q2243.55 1799.49 2240.47 1794.91 Q2237.41 1790.3 2237.41 1781.58 Q2237.41 1772.83 2240.47 1768.24 Q2243.55 1763.64 2249.36 1763.64 Z" fill="#000000" fill-rule="nonzero" fill-opacity="1" /><path clip-path="url(#clip010)" d="M1453.74 1841.06 L1453.74 1878.02 L1461.51 1878.02 Q1471.34 1878.02 1475.89 1873.56 Q1480.48 1869.11 1480.48 1859.49 Q1480.48 1849.94 1475.89 1845.52 Q1471.34 1841.06 1461.51 1841.06 L1453.74 1841.06 M1447.31 1835.78 L1460.52 1835.78 Q1474.33 1835.78 1480.79 1841.54 Q1487.26 1847.27 1487.26 1859.49 Q1487.26 1871.78 1480.76 1877.54 Q1474.27 1883.3 1460.52 1883.3 L1447.31 1883.3 L1447.31 1835.78 Z" fill="#000000" fill-rule="nonzero" fill-opacity="1" /><path clip-path="url(#clip010)" d="M1513.45 1865.38 Q1506.35 1865.38 1503.62 1867 Q1500.88 1868.63 1500.88 1872.54 Q1500.88 1875.66 1502.92 1877.51 Q1504.98 1879.32 1508.52 1879.32 Q1513.39 1879.32 1516.32 1875.88 Q1519.28 1872.42 1519.28 1866.69 L1519.28 1865.38 L1513.45 1865.38 M1525.13 1862.96 L1525.13 1883.3 L1519.28 1883.3 L1519.28 1877.89 Q1517.27 1881.14 1514.28 1882.7 Q1511.29 1884.22 1506.96 1884.22 Q1501.48 1884.22 1498.24 1881.17 Q1495.02 1878.08 1495.02 1872.92 Q1495.02 1866.91 1499.03 1863.85 Q1503.07 1860.8 1511.06 1860.8 L1519.28 1860.8 L1519.28 1860.23 Q1519.28 1856.18 1516.6 1853.99 Q1513.96 1851.76 1509.15 1851.76 Q1506.1 1851.76 1503.2 1852.49 Q1500.31 1853.22 1497.63 1854.69 L1497.63 1849.28 Q1500.85 1848.03 1503.87 1847.43 Q1506.89 1846.79 1509.76 1846.79 Q1517.49 1846.79 1521.31 1850.8 Q1525.13 1854.81 1525.13 1862.96 Z" fill="#000000" fill-rule="nonzero" fill-opacity="1" /><path clip-path="url(#clip010)" d="M1552.03 1886.61 Q1549.54 1892.98 1547.19 1894.92 Q1544.83 1896.86 1540.89 1896.86 L1536.21 1896.86 L1536.21 1891.96 L1539.65 1891.96 Q1542.06 1891.96 1543.4 1890.81 Q1544.74 1889.67 1546.36 1885.4 L1547.41 1882.73 L1532.99 1847.65 L1539.2 1847.65 L1550.34 1875.53 L1561.48 1847.65 L1567.69 1847.65 L1552.03 1886.61 Z" fill="#000000" fill-rule="nonzero" fill-opacity="1" /><polyline clip-path="url(#clip010)" style="stroke:#000000; stroke-linecap:round; stroke-linejoin:round; stroke-width:4; stroke-opacity:1; fill:none" points="374.242,1734.12 374.242,127.792 "/>
<polyline clip-path="url(#clip010)" style="stroke:#000000; stroke-linecap:round; stroke-linejoin:round; stroke-width:4; stroke-opacity:1; fill:none" points="374.242,1688.65 393.139,1688.65 "/>
<polyline clip-path="url(#clip010)" style="stroke:#000000; stroke-linecap:round; stroke-linejoin:round; stroke-width:4; stroke-opacity:1; fill:none" points="374.242,1272.18 393.139,1272.18 "/>
<polyline clip-path="url(#clip010)" style="stroke:#000000; stroke-linecap:round; stroke-linejoin:round; stroke-width:4; stroke-opacity:1; fill:none" points="374.242,855.713 393.139,855.713 "/>
<polyline clip-path="url(#clip010)" style="stroke:#000000; stroke-linecap:round; stroke-linejoin:round; stroke-width:4; stroke-opacity:1; fill:none" points="374.242,439.242 393.139,439.242 "/>
<path clip-path="url(#clip010)" d="M321.977 1674.45 Q318.366 1674.45 316.537 1678.02 Q314.732 1681.56 314.732 1688.69 Q314.732 1695.8 316.537 1699.36 Q318.366 1702.9 321.977 1702.9 Q325.611 1702.9 327.417 1699.36 Q329.246 1695.8 329.246 1688.69 Q329.246 1681.56 327.417 1678.02 Q325.611 1674.45 321.977 1674.45 M321.977 1670.75 Q327.787 1670.75 330.843 1675.36 Q333.922 1679.94 333.922 1688.69 Q333.922 1697.42 330.843 1702.02 Q327.787 1706.61 321.977 1706.61 Q316.167 1706.61 313.088 1702.02 Q310.033 1697.42 310.033 1688.69 Q310.033 1679.94 313.088 1675.36 Q316.167 1670.75 321.977 1670.75 Z" fill="#000000" fill-rule="nonzero" fill-opacity="1" /><path clip-path="url(#clip010)" d="M118.097 1261.35 L136.453 1261.35 L136.453 1265.29 L122.379 1265.29 L122.379 1273.76 Q123.398 1273.41 124.416 1273.25 Q125.435 1273.06 126.453 1273.06 Q132.24 1273.06 135.62 1276.24 Q138.999 1279.41 138.999 1284.82 Q138.999 1290.4 135.527 1293.5 Q132.055 1296.58 125.736 1296.58 Q123.56 1296.58 121.291 1296.21 Q119.046 1295.84 116.638 1295.1 L116.638 1290.4 Q118.722 1291.54 120.944 1292.09 Q123.166 1292.65 125.643 1292.65 Q129.648 1292.65 131.985 1290.54 Q134.323 1288.43 134.323 1284.82 Q134.323 1281.21 131.985 1279.11 Q129.648 1277 125.643 1277 Q123.768 1277 121.893 1277.42 Q120.041 1277.83 118.097 1278.71 L118.097 1261.35 Z" fill="#000000" fill-rule="nonzero" fill-opacity="1" /><path clip-path="url(#clip010)" d="M148.212 1290.03 L153.096 1290.03 L153.096 1295.91 L148.212 1295.91 L148.212 1290.03 Z" fill="#000000" fill-rule="nonzero" fill-opacity="1" /><path clip-path="url(#clip010)" d="M173.282 1264.43 Q169.67 1264.43 167.842 1268 Q166.036 1271.54 166.036 1278.67 Q166.036 1285.77 167.842 1289.34 Q169.67 1292.88 173.282 1292.88 Q176.916 1292.88 178.721 1289.34 Q180.55 1285.77 180.55 1278.67 Q180.55 1271.54 178.721 1268 Q176.916 1264.43 173.282 1264.43 M173.282 1260.73 Q179.092 1260.73 182.147 1265.33 Q185.226 1269.92 185.226 1278.67 Q185.226 1287.39 182.147 1292 Q179.092 1296.58 173.282 1296.58 Q167.471 1296.58 164.393 1292 Q161.337 1287.39 161.337 1278.67 Q161.337 1269.92 164.393 1265.33 Q167.471 1260.73 173.282 1260.73 Z" fill="#000000" fill-rule="nonzero" fill-opacity="1" /><path clip-path="url(#clip010)" d="M203.443 1264.43 Q199.832 1264.43 198.004 1268 Q196.198 1271.54 196.198 1278.67 Q196.198 1285.77 198.004 1289.34 Q199.832 1292.88 203.443 1292.88 Q207.078 1292.88 208.883 1289.34 Q210.712 1285.77 210.712 1278.67 Q210.712 1271.54 208.883 1268 Q207.078 1264.43 203.443 1264.43 M203.443 1260.73 Q209.254 1260.73 212.309 1265.33 Q215.388 1269.92 215.388 1278.67 Q215.388 1287.39 212.309 1292 Q209.254 1296.58 203.443 1296.58 Q197.633 1296.58 194.555 1292 Q191.499 1287.39 191.499 1278.67 Q191.499 1269.92 194.555 1265.33 Q197.633 1260.73 203.443 1260.73 Z" fill="#000000" fill-rule="nonzero" fill-opacity="1" /><path clip-path="url(#clip010)" d="M251.777 1270.45 L241.198 1281.07 L251.777 1291.65 L249.022 1294.45 L238.397 1283.83 L227.772 1294.45 L225.041 1291.65 L235.596 1281.07 L225.041 1270.45 L227.772 1267.65 L238.397 1278.27 L249.022 1267.65 L251.777 1270.45 Z" fill="#000000" fill-rule="nonzero" fill-opacity="1" /><path clip-path="url(#clip010)" d="M264.138 1291.98 L271.776 1291.98 L271.776 1265.61 L263.466 1267.28 L263.466 1263.02 L271.73 1261.35 L276.406 1261.35 L276.406 1291.98 L284.045 1291.98 L284.045 1295.91 L264.138 1295.91 L264.138 1291.98 Z" fill="#000000" fill-rule="nonzero" fill-opacity="1" /><path clip-path="url(#clip010)" d="M303.489 1264.43 Q299.878 1264.43 298.049 1268 Q296.244 1271.54 296.244 1278.67 Q296.244 1285.77 298.049 1289.34 Q299.878 1292.88 303.489 1292.88 Q307.123 1292.88 308.929 1289.34 Q310.758 1285.77 310.758 1278.67 Q310.758 1271.54 308.929 1268 Q307.123 1264.43 303.489 1264.43 M303.489 1260.73 Q309.299 1260.73 312.355 1265.33 Q315.434 1269.92 315.434 1278.67 Q315.434 1287.39 312.355 1292 Q309.299 1296.58 303.489 1296.58 Q297.679 1296.58 294.6 1292 Q291.545 1287.39 291.545 1278.67 Q291.545 1269.92 294.6 1265.33 Q297.679 1260.73 303.489 1260.73 Z" fill="#000000" fill-rule="nonzero" fill-opacity="1" /><path clip-path="url(#clip010)" d="M328.129 1253.36 Q330.856 1253.94 332.379 1255.79 Q333.922 1257.63 333.922 1260.34 Q333.922 1264.5 331.063 1266.77 Q328.204 1269.05 322.938 1269.05 Q321.17 1269.05 319.289 1268.69 Q317.427 1268.35 315.434 1267.65 L315.434 1263.99 Q317.013 1264.91 318.894 1265.38 Q320.775 1265.85 322.825 1265.85 Q326.399 1265.85 328.26 1264.44 Q330.141 1263.03 330.141 1260.34 Q330.141 1257.86 328.392 1256.46 Q326.662 1255.05 323.559 1255.05 L320.286 1255.05 L320.286 1251.93 L323.709 1251.93 Q326.511 1251.93 327.997 1250.82 Q329.483 1249.69 329.483 1247.59 Q329.483 1245.42 327.941 1244.28 Q326.417 1243.11 323.559 1243.11 Q321.997 1243.11 320.211 1243.45 Q318.424 1243.79 316.28 1244.5 L316.28 1241.12 Q318.443 1240.52 320.324 1240.21 Q322.223 1239.91 323.897 1239.91 Q328.223 1239.91 330.743 1241.89 Q333.263 1243.84 333.263 1247.19 Q333.263 1249.52 331.928 1251.14 Q330.593 1252.74 328.129 1253.36 Z" fill="#000000" fill-rule="nonzero" fill-opacity="1" /><path clip-path="url(#clip010)" d="M116.886 875.506 L124.525 875.506 L124.525 849.14 L116.214 850.807 L116.214 846.547 L124.478 844.881 L129.154 844.881 L129.154 875.506 L136.793 875.506 L136.793 879.441 L116.886 879.441 L116.886 875.506 Z" fill="#000000" fill-rule="nonzero" fill-opacity="1" /><path clip-path="url(#clip010)" d="M146.237 873.561 L151.122 873.561 L151.122 879.441 L146.237 879.441 L146.237 873.561 Z" fill="#000000" fill-rule="nonzero" fill-opacity="1" /><path clip-path="url(#clip010)" d="M171.307 847.96 Q167.696 847.96 165.867 851.524 Q164.061 855.066 164.061 862.196 Q164.061 869.302 165.867 872.867 Q167.696 876.408 171.307 876.408 Q174.941 876.408 176.747 872.867 Q178.575 869.302 178.575 862.196 Q178.575 855.066 176.747 851.524 Q174.941 847.96 171.307 847.96 M171.307 844.256 Q177.117 844.256 180.172 848.862 Q183.251 853.446 183.251 862.196 Q183.251 870.922 180.172 875.529 Q177.117 880.112 171.307 880.112 Q165.497 880.112 162.418 875.529 Q159.362 870.922 159.362 862.196 Q159.362 853.446 162.418 848.862 Q165.497 844.256 171.307 844.256 Z" fill="#000000" fill-rule="nonzero" fill-opacity="1" /><path clip-path="url(#clip010)" d="M201.469 847.96 Q197.858 847.96 196.029 851.524 Q194.223 855.066 194.223 862.196 Q194.223 869.302 196.029 872.867 Q197.858 876.408 201.469 876.408 Q205.103 876.408 206.908 872.867 Q208.737 869.302 208.737 862.196 Q208.737 855.066 206.908 851.524 Q205.103 847.96 201.469 847.96 M201.469 844.256 Q207.279 844.256 210.334 848.862 Q213.413 853.446 213.413 862.196 Q213.413 870.922 210.334 875.529 Q207.279 880.112 201.469 880.112 Q195.658 880.112 192.58 875.529 Q189.524 870.922 189.524 862.196 Q189.524 853.446 192.58 848.862 Q195.658 844.256 201.469 844.256 Z" fill="#000000" fill-rule="nonzero" fill-opacity="1" /><path clip-path="url(#clip010)" d="M249.802 853.978 L239.223 864.603 L249.802 875.182 L247.047 877.983 L236.422 867.358 L225.797 877.983 L223.066 875.182 L233.621 864.603 L223.066 853.978 L225.797 851.177 L236.422 861.802 L247.047 851.177 L249.802 853.978 Z" fill="#000000" fill-rule="nonzero" fill-opacity="1" /><path clip-path="url(#clip010)" d="M262.163 875.506 L269.802 875.506 L269.802 849.14 L261.491 850.807 L261.491 846.547 L269.755 844.881 L274.431 844.881 L274.431 875.506 L282.07 875.506 L282.07 879.441 L262.163 879.441 L262.163 875.506 Z" fill="#000000" fill-rule="nonzero" fill-opacity="1" /><path clip-path="url(#clip010)" d="M301.514 847.96 Q297.903 847.96 296.075 851.524 Q294.269 855.066 294.269 862.196 Q294.269 869.302 296.075 872.867 Q297.903 876.408 301.514 876.408 Q305.149 876.408 306.954 872.867 Q308.783 869.302 308.783 862.196 Q308.783 855.066 306.954 851.524 Q305.149 847.96 301.514 847.96 M301.514 844.256 Q307.325 844.256 310.38 848.862 Q313.459 853.446 313.459 862.196 Q313.459 870.922 310.38 875.529 Q307.325 880.112 301.514 880.112 Q295.704 880.112 292.626 875.529 Q289.57 870.922 289.57 862.196 Q289.57 853.446 292.626 848.862 Q295.704 844.256 301.514 844.256 Z" fill="#000000" fill-rule="nonzero" fill-opacity="1" /><path clip-path="url(#clip010)" d="M326.135 827.261 L316.543 842.25 L326.135 842.25 L326.135 827.261 M325.138 823.95 L329.916 823.95 L329.916 842.25 L333.922 842.25 L333.922 845.41 L329.916 845.41 L329.916 852.03 L326.135 852.03 L326.135 845.41 L313.459 845.41 L313.459 841.743 L325.138 823.95 Z" fill="#000000" fill-rule="nonzero" fill-opacity="1" /><path clip-path="url(#clip010)" d="M116.886 459.035 L124.525 459.035 L124.525 432.669 L116.214 434.336 L116.214 430.077 L124.478 428.41 L129.154 428.41 L129.154 459.035 L136.793 459.035 L136.793 462.97 L116.886 462.97 L116.886 459.035 Z" fill="#000000" fill-rule="nonzero" fill-opacity="1" /><path clip-path="url(#clip010)" d="M146.237 457.09 L151.122 457.09 L151.122 462.97 L146.237 462.97 L146.237 457.09 Z" fill="#000000" fill-rule="nonzero" fill-opacity="1" /><path clip-path="url(#clip010)" d="M161.353 428.41 L179.709 428.41 L179.709 432.345 L165.635 432.345 L165.635 440.817 Q166.654 440.47 167.673 440.308 Q168.691 440.123 169.71 440.123 Q175.497 440.123 178.876 443.294 Q182.256 446.465 182.256 451.882 Q182.256 457.461 178.784 460.563 Q175.311 463.641 168.992 463.641 Q166.816 463.641 164.548 463.271 Q162.302 462.901 159.895 462.16 L159.895 457.461 Q161.978 458.595 164.2 459.151 Q166.423 459.706 168.899 459.706 Q172.904 459.706 175.242 457.6 Q177.58 455.493 177.58 451.882 Q177.58 448.271 175.242 446.165 Q172.904 444.058 168.899 444.058 Q167.024 444.058 165.149 444.475 Q163.298 444.891 161.353 445.771 L161.353 428.41 Z" fill="#000000" fill-rule="nonzero" fill-opacity="1" /><path clip-path="url(#clip010)" d="M201.469 431.489 Q197.858 431.489 196.029 435.053 Q194.223 438.595 194.223 445.725 Q194.223 452.831 196.029 456.396 Q197.858 459.938 201.469 459.938 Q205.103 459.938 206.908 456.396 Q208.737 452.831 208.737 445.725 Q208.737 438.595 206.908 435.053 Q205.103 431.489 201.469 431.489 M201.469 427.785 Q207.279 427.785 210.334 432.391 Q213.413 436.975 213.413 445.725 Q213.413 454.451 210.334 459.058 Q207.279 463.641 201.469 463.641 Q195.658 463.641 192.58 459.058 Q189.524 454.451 189.524 445.725 Q189.524 436.975 192.58 432.391 Q195.658 427.785 201.469 427.785 Z" fill="#000000" fill-rule="nonzero" fill-opacity="1" /><path clip-path="url(#clip010)" d="M249.802 437.507 L239.223 448.132 L249.802 458.711 L247.047 461.512 L236.422 450.887 L225.797 461.512 L223.066 458.711 L233.621 448.132 L223.066 437.507 L225.797 434.706 L236.422 445.331 L247.047 434.706 L249.802 437.507 Z" fill="#000000" fill-rule="nonzero" fill-opacity="1" /><path clip-path="url(#clip010)" d="M262.163 459.035 L269.802 459.035 L269.802 432.669 L261.491 434.336 L261.491 430.077 L269.755 428.41 L274.431 428.41 L274.431 459.035 L282.07 459.035 L282.07 462.97 L262.163 462.97 L262.163 459.035 Z" fill="#000000" fill-rule="nonzero" fill-opacity="1" /><path clip-path="url(#clip010)" d="M301.514 431.489 Q297.903 431.489 296.075 435.053 Q294.269 438.595 294.269 445.725 Q294.269 452.831 296.075 456.396 Q297.903 459.938 301.514 459.938 Q305.149 459.938 306.954 456.396 Q308.783 452.831 308.783 445.725 Q308.783 438.595 306.954 435.053 Q305.149 431.489 301.514 431.489 M301.514 427.785 Q307.325 427.785 310.38 432.391 Q313.459 436.975 313.459 445.725 Q313.459 454.451 310.38 459.058 Q307.325 463.641 301.514 463.641 Q295.704 463.641 292.626 459.058 Q289.57 454.451 289.57 445.725 Q289.57 436.975 292.626 432.391 Q295.704 427.785 301.514 427.785 Z" fill="#000000" fill-rule="nonzero" fill-opacity="1" /><path clip-path="url(#clip010)" d="M326.135 410.79 L316.543 425.78 L326.135 425.78 L326.135 410.79 M325.138 407.48 L329.916 407.48 L329.916 425.78 L333.922 425.78 L333.922 428.939 L329.916 428.939 L329.916 435.56 L326.135 435.56 L326.135 428.939 L313.459 428.939 L313.459 425.272 L325.138 407.48 Z" fill="#000000" fill-rule="nonzero" fill-opacity="1" /><path clip-path="url(#clip010)" d="M14.1184 1101.87 L14.1184 1095.44 L61.6384 1095.44 L61.6384 1101.87 L14.1184 1101.87 Z" fill="#000000" fill-rule="nonzero" fill-opacity="1" /><path clip-path="url(#clip010)" d="M40.1224 1053.27 L61.6384 1053.27 L61.6384 1059.13 L40.3133 1059.13 Q35.2526 1059.13 32.7381 1061.1 Q30.2237 1063.07 30.2237 1067.02 Q30.2237 1071.76 33.2474 1074.5 Q36.2711 1077.24 41.491 1077.24 L61.6384 1077.24 L61.6384 1083.13 L25.9905 1083.13 L25.9905 1077.24 L31.5287 1077.24 Q28.314 1075.14 26.7225 1072.31 Q25.1311 1069.44 25.1311 1065.72 Q25.1311 1059.57 28.9505 1056.42 Q32.7381 1053.27 40.1224 1053.27 Z" fill="#000000" fill-rule="nonzero" fill-opacity="1" /><path clip-path="url(#clip010)" d="M31.4013 1018.13 L12.1132 1018.13 L12.1132 1012.28 L61.6384 1012.28 L61.6384 1018.13 L56.2912 1018.13 Q59.4741 1019.98 61.0337 1022.81 Q62.5615 1025.61 62.5615 1029.56 Q62.5615 1036.02 57.4052 1040.09 Q52.249 1044.14 43.8463 1044.14 Q35.4436 1044.14 30.2873 1040.09 Q25.1311 1036.02 25.1311 1029.56 Q25.1311 1025.61 26.6907 1022.81 Q28.2185 1019.98 31.4013 1018.13 M43.8463 1038.09 Q50.3075 1038.09 53.9996 1035.45 Q57.6599 1032.77 57.6599 1028.13 Q57.6599 1023.48 53.9996 1020.81 Q50.3075 1018.13 43.8463 1018.13 Q37.3851 1018.13 33.7248 1020.81 Q30.0327 1023.48 30.0327 1028.13 Q30.0327 1032.77 33.7248 1035.45 Q37.3851 1038.09 43.8463 1038.09 Z" fill="#000000" fill-rule="nonzero" fill-opacity="1" /><path clip-path="url(#clip010)" d="M25.9905 1000.21 L25.9905 994.357 L61.6384 994.357 L61.6384 1000.21 L25.9905 1000.21 M12.1132 1000.21 L12.1132 994.357 L19.5293 994.357 L19.5293 1000.21 L12.1132 1000.21 Z" fill="#000000" fill-rule="nonzero" fill-opacity="1" /><path clip-path="url(#clip010)" d="M25.9905 986.304 L25.9905 980.098 L55.9093 968.958 L25.9905 957.818 L25.9905 951.611 L61.6384 964.979 L61.6384 972.936 L25.9905 986.304 Z" fill="#000000" fill-rule="nonzero" fill-opacity="1" /><path clip-path="url(#clip010)" d="M25.9905 943.527 L25.9905 937.67 L61.6384 937.67 L61.6384 943.527 L25.9905 943.527 M12.1132 943.527 L12.1132 937.67 L19.5293 937.67 L19.5293 943.527 L12.1132 943.527 Z" fill="#000000" fill-rule="nonzero" fill-opacity="1" /><path clip-path="url(#clip010)" d="M31.4013 901.959 L12.1132 901.959 L12.1132 896.102 L61.6384 896.102 L61.6384 901.959 L56.2912 901.959 Q59.4741 903.805 61.0337 906.638 Q62.5615 909.438 62.5615 913.385 Q62.5615 919.846 57.4052 923.92 Q52.249 927.963 43.8463 927.963 Q35.4436 927.963 30.2873 923.92 Q25.1311 919.846 25.1311 913.385 Q25.1311 909.438 26.6907 906.638 Q28.2185 903.805 31.4013 901.959 M43.8463 921.915 Q50.3075 921.915 53.9996 919.273 Q57.6599 916.6 57.6599 911.953 Q57.6599 907.306 53.9996 904.632 Q50.3075 901.959 43.8463 901.959 Q37.3851 901.959 33.7248 904.632 Q30.0327 907.306 30.0327 911.953 Q30.0327 916.6 33.7248 919.273 Q37.3851 921.915 43.8463 921.915 Z" fill="#000000" fill-rule="nonzero" fill-opacity="1" /><path clip-path="url(#clip010)" d="M47.5702 884.644 L25.9905 884.644 L25.9905 878.788 L47.3474 878.788 Q52.4082 878.788 54.9545 876.814 Q57.4689 874.841 57.4689 870.894 Q57.4689 866.152 54.4452 863.414 Q51.4215 860.645 46.2016 860.645 L25.9905 860.645 L25.9905 854.789 L61.6384 854.789 L61.6384 860.645 L56.1639 860.645 Q59.4104 862.778 61.0019 865.611 Q62.5615 868.411 62.5615 872.135 Q62.5615 878.278 58.742 881.461 Q54.9226 884.644 47.5702 884.644 M25.1311 869.907 L25.1311 869.907 Z" fill="#000000" fill-rule="nonzero" fill-opacity="1" /><path clip-path="url(#clip010)" d="M43.719 826.525 Q43.719 833.623 45.3422 836.36 Q46.9655 839.097 50.8804 839.097 Q53.9996 839.097 55.8457 837.06 Q57.6599 834.992 57.6599 831.459 Q57.6599 826.589 54.2224 823.661 Q50.7531 820.701 45.0239 820.701 L43.719 820.701 L43.719 826.525 M41.3 814.844 L61.6384 814.844 L61.6384 820.701 L56.2276 820.701 Q59.4741 822.706 61.0337 825.698 Q62.5615 828.689 62.5615 833.018 Q62.5615 838.493 59.5059 841.739 Q56.4186 844.954 51.2623 844.954 Q45.2467 844.954 42.1912 840.943 Q39.1357 836.901 39.1357 828.912 L39.1357 820.701 L38.5628 820.701 Q34.5205 820.701 32.3244 823.374 Q30.0964 826.016 30.0964 830.822 Q30.0964 833.878 30.8284 836.774 Q31.5605 839.67 33.0246 842.344 L27.6137 842.344 Q26.3724 839.129 25.7677 836.106 Q25.1311 833.082 25.1311 830.217 Q25.1311 822.483 29.1415 818.663 Q33.1519 814.844 41.3 814.844 Z" fill="#000000" fill-rule="nonzero" fill-opacity="1" /><path clip-path="url(#clip010)" d="M12.1132 802.781 L12.1132 796.925 L61.6384 796.925 L61.6384 802.781 L12.1132 802.781 Z" fill="#000000" fill-rule="nonzero" fill-opacity="1" /><path clip-path="url(#clip010)" d="M27.0408 761.945 L32.579 761.945 Q31.3059 764.428 30.6693 767.101 Q30.0327 769.775 30.0327 772.639 Q30.0327 777 31.3695 779.196 Q32.7063 781.36 35.3799 781.36 Q37.4169 781.36 38.5946 779.801 Q39.7404 778.241 40.7908 773.531 L41.2364 771.525 Q42.5732 765.287 45.0239 762.677 Q47.4429 760.035 51.8034 760.035 Q56.7687 760.035 59.6651 763.982 Q62.5615 767.897 62.5615 774.772 Q62.5615 777.637 61.9886 780.756 Q61.4475 783.843 60.3335 787.281 L54.2861 787.281 Q55.973 784.034 56.8323 780.883 Q57.6599 777.732 57.6599 774.645 Q57.6599 770.507 56.2594 768.279 Q54.8271 766.051 52.249 766.051 Q49.8619 766.051 48.5887 767.674 Q47.3156 769.266 46.1379 774.708 L45.6605 776.745 Q44.5147 782.188 42.1594 784.607 Q39.7722 787.026 35.6345 787.026 Q30.6056 787.026 27.8684 783.461 Q25.1311 779.896 25.1311 773.34 Q25.1311 770.093 25.6085 767.229 Q26.086 764.364 27.0408 761.945 Z" fill="#000000" fill-rule="nonzero" fill-opacity="1" /><path clip-path="url(#clip010)" d="M1064.84 12.096 L1116 12.096 L1116 18.9825 L1094.53 18.9825 L1094.53 72.576 L1086.31 72.576 L1086.31 18.9825 L1064.84 18.9825 L1064.84 12.096 Z" fill="#000000" fill-rule="nonzero" fill-opacity="1" /><path clip-path="url(#clip010)" d="M1137.67 34.1734 Q1136.42 33.4443 1134.92 33.1202 Q1133.46 32.7556 1131.68 32.7556 Q1125.36 32.7556 1121.95 36.8875 Q1118.59 40.9789 1118.59 48.6757 L1118.59 72.576 L1111.1 72.576 L1111.1 27.2059 L1118.59 27.2059 L1118.59 34.2544 Q1120.94 30.1225 1124.71 28.1376 Q1128.48 26.1121 1133.86 26.1121 Q1134.63 26.1121 1135.56 26.2337 Q1136.5 26.3147 1137.63 26.5172 L1137.67 34.1734 Z" fill="#000000" fill-rule="nonzero" fill-opacity="1" /><path clip-path="url(#clip010)" d="M1144.72 54.671 L1144.72 27.2059 L1152.17 27.2059 L1152.17 54.3874 Q1152.17 60.8284 1154.69 64.0691 Q1157.2 67.2693 1162.22 67.2693 Q1168.26 67.2693 1171.74 63.421 Q1175.26 59.5726 1175.26 52.9291 L1175.26 27.2059 L1182.72 27.2059 L1182.72 72.576 L1175.26 72.576 L1175.26 65.6084 Q1172.55 69.7404 1168.94 71.7658 Q1165.38 73.7508 1160.64 73.7508 Q1152.82 73.7508 1148.77 68.8897 Q1144.72 64.0286 1144.72 54.671 M1163.48 26.1121 L1163.48 26.1121 Z" fill="#000000" fill-rule="nonzero" fill-opacity="1" /><path clip-path="url(#clip010)" d="M1236.88 48.0275 L1236.88 51.6733 L1202.61 51.6733 Q1203.09 59.3701 1207.23 63.421 Q1211.4 67.4314 1218.81 67.4314 Q1223.11 67.4314 1227.12 66.3781 Q1231.17 65.3249 1235.14 63.2184 L1235.14 70.267 Q1231.13 71.9684 1226.91 72.8596 Q1222.7 73.7508 1218.37 73.7508 Q1207.51 73.7508 1201.15 67.4314 Q1194.83 61.1119 1194.83 50.3365 Q1194.83 39.1965 1200.83 32.6746 Q1206.86 26.1121 1217.07 26.1121 Q1226.22 26.1121 1231.53 32.0264 Q1236.88 37.9003 1236.88 48.0275 M1229.42 45.84 Q1229.34 39.7232 1225.98 36.0774 Q1222.66 32.4315 1217.15 32.4315 Q1210.91 32.4315 1207.14 35.9558 Q1203.42 39.4801 1202.85 45.8805 L1229.42 45.84 Z" fill="#000000" fill-rule="nonzero" fill-opacity="1" /><path clip-path="url(#clip010)" d="M1312.06 14.0809 L1312.06 22.0612 Q1307.4 19.8332 1303.27 18.7395 Q1299.14 17.6457 1295.29 17.6457 Q1288.61 17.6457 1284.96 20.2383 Q1281.36 22.8309 1281.36 27.611 Q1281.36 31.6214 1283.75 33.6873 Q1286.18 35.7128 1292.9 36.9686 L1297.84 37.9813 Q1307 39.7232 1311.33 44.1387 Q1315.71 48.5136 1315.71 55.8863 Q1315.71 64.6767 1309.79 69.2137 Q1303.92 73.7508 1292.54 73.7508 Q1288.24 73.7508 1283.38 72.7785 Q1278.56 71.8063 1273.38 69.9024 L1273.38 61.4765 Q1278.36 64.2716 1283.14 65.6895 Q1287.92 67.1073 1292.54 67.1073 Q1299.55 67.1073 1303.35 64.3527 Q1307.16 61.598 1307.16 56.4939 Q1307.16 52.0379 1304.41 49.5264 Q1301.69 47.0148 1295.45 45.759 L1290.47 44.7868 Q1281.32 42.9639 1277.23 39.075 Q1273.13 35.1862 1273.13 28.2591 Q1273.13 20.2383 1278.76 15.6203 Q1284.44 11.0023 1294.36 11.0023 Q1298.61 11.0023 1303.03 11.7719 Q1307.44 12.5416 1312.06 14.0809 Z" fill="#000000" fill-rule="nonzero" fill-opacity="1" /><path clip-path="url(#clip010)" d="M1328.47 12.096 L1366.71 12.096 L1366.71 18.9825 L1336.65 18.9825 L1336.65 36.8875 L1365.45 36.8875 L1365.45 43.7741 L1336.65 43.7741 L1336.65 65.6895 L1367.44 65.6895 L1367.44 72.576 L1328.47 72.576 L1328.47 12.096 Z" fill="#000000" fill-rule="nonzero" fill-opacity="1" /><path clip-path="url(#clip010)" d="M1380.89 12.096 L1389.07 12.096 L1389.07 72.576 L1380.89 72.576 L1380.89 12.096 Z" fill="#000000" fill-rule="nonzero" fill-opacity="1" /><path clip-path="url(#clip010)" d="M1434.04 44.2197 Q1436.67 45.1109 1439.14 48.0275 Q1441.65 50.9442 1444.16 56.0483 L1452.47 72.576 L1443.68 72.576 L1435.94 57.061 Q1432.94 50.9847 1430.11 48.9997 Q1427.31 47.0148 1422.45 47.0148 L1413.54 47.0148 L1413.54 72.576 L1405.36 72.576 L1405.36 12.096 L1423.83 12.096 Q1434.2 12.096 1439.3 16.4305 Q1444.41 20.7649 1444.41 29.5149 Q1444.41 35.2267 1441.73 38.994 Q1439.1 42.7613 1434.04 44.2197 M1413.54 18.8205 L1413.54 40.2903 L1423.83 40.2903 Q1429.74 40.2903 1432.74 37.5762 Q1435.78 34.8216 1435.78 29.5149 Q1435.78 24.2082 1432.74 21.5346 Q1429.74 18.8205 1423.83 18.8205 L1413.54 18.8205 Z" fill="#000000" fill-rule="nonzero" fill-opacity="1" /><path clip-path="url(#clip010)" d="M1471.18 18.8205 L1471.18 65.8515 L1481.07 65.8515 Q1493.58 65.8515 1499.38 60.1802 Q1505.21 54.509 1505.21 42.2752 Q1505.21 30.1225 1499.38 24.4918 Q1493.58 18.8205 1481.07 18.8205 L1471.18 18.8205 M1463 12.096 L1479.81 12.096 Q1497.39 12.096 1505.62 19.4281 Q1513.84 26.7198 1513.84 42.2752 Q1513.84 57.9117 1505.57 65.2439 Q1497.31 72.576 1479.81 72.576 L1463 72.576 L1463 12.096 Z" fill="#000000" fill-rule="nonzero" fill-opacity="1" /><path clip-path="url(#clip010)" d="M1561.44 18.8205 L1561.44 65.8515 L1571.32 65.8515 Q1583.84 65.8515 1589.63 60.1802 Q1595.46 54.509 1595.46 42.2752 Q1595.46 30.1225 1589.63 24.4918 Q1583.84 18.8205 1571.32 18.8205 L1561.44 18.8205 M1553.25 12.096 L1570.06 12.096 Q1587.65 12.096 1595.87 19.4281 Q1604.09 26.7198 1604.09 42.2752 Q1604.09 57.9117 1595.83 65.2439 Q1587.56 72.576 1570.06 72.576 L1553.25 72.576 L1553.25 12.096 Z" fill="#000000" fill-rule="nonzero" fill-opacity="1" /><path clip-path="url(#clip010)" d="M1635.69 76.7889 Q1632.53 84.8907 1629.53 87.3618 Q1626.53 89.8329 1621.51 89.8329 L1615.56 89.8329 L1615.56 83.5945 L1619.93 83.5945 Q1623.01 83.5945 1624.71 82.1361 Q1626.41 80.6778 1628.48 75.2496 L1629.82 71.8468 L1611.47 27.2059 L1619.36 27.2059 L1633.54 62.6918 L1647.72 27.2059 L1655.62 27.2059 L1635.69 76.7889 Z" fill="#000000" fill-rule="nonzero" fill-opacity="1" /><path clip-path="url(#clip010)" d="M1703.62 45.1919 L1703.62 72.576 L1696.17 72.576 L1696.17 45.4349 Q1696.17 38.994 1693.66 35.7938 Q1691.15 32.5936 1686.12 32.5936 Q1680.09 32.5936 1676.6 36.4419 Q1673.12 40.2903 1673.12 46.9338 L1673.12 72.576 L1665.63 72.576 L1665.63 27.2059 L1673.12 27.2059 L1673.12 34.2544 Q1675.79 30.163 1679.4 28.1376 Q1683.04 26.1121 1687.78 26.1121 Q1695.6 26.1121 1699.61 30.9732 Q1703.62 35.7938 1703.62 45.1919 Z" fill="#000000" fill-rule="nonzero" fill-opacity="1" /><path clip-path="url(#clip010)" d="M1739.11 49.7694 Q1730.08 49.7694 1726.59 51.8354 Q1723.11 53.9013 1723.11 58.8839 Q1723.11 62.8538 1725.7 65.2034 Q1728.33 67.5124 1732.83 67.5124 Q1739.03 67.5124 1742.76 63.1374 Q1746.52 58.7219 1746.52 51.4303 L1746.52 49.7694 L1739.11 49.7694 M1753.98 46.6907 L1753.98 72.576 L1746.52 72.576 L1746.52 65.6895 Q1743.97 69.8214 1740.16 71.8063 Q1736.35 73.7508 1730.85 73.7508 Q1723.88 73.7508 1719.75 69.8619 Q1715.65 65.9325 1715.65 59.3701 Q1715.65 51.7138 1720.76 47.825 Q1725.9 43.9361 1736.07 43.9361 L1746.52 43.9361 L1746.52 43.2069 Q1746.52 38.0623 1743.12 35.2672 Q1739.76 32.4315 1733.64 32.4315 Q1729.75 32.4315 1726.07 33.3632 Q1722.38 34.295 1718.98 36.1584 L1718.98 29.2718 Q1723.07 27.692 1726.92 26.9223 Q1730.76 26.1121 1734.41 26.1121 Q1744.25 26.1121 1749.11 31.2163 Q1753.98 36.3204 1753.98 46.6907 Z" fill="#000000" fill-rule="nonzero" fill-opacity="1" /><path clip-path="url(#clip010)" d="M1804.65 35.9153 Q1807.45 30.8922 1811.34 28.5022 Q1815.23 26.1121 1820.49 26.1121 Q1827.58 26.1121 1831.43 31.0947 Q1835.28 36.0368 1835.28 45.1919 L1835.28 72.576 L1827.78 72.576 L1827.78 45.4349 Q1827.78 38.913 1825.47 35.7533 Q1823.17 32.5936 1818.43 32.5936 Q1812.63 32.5936 1809.27 36.4419 Q1805.91 40.2903 1805.91 46.9338 L1805.91 72.576 L1798.41 72.576 L1798.41 45.4349 Q1798.41 38.8725 1796.11 35.7533 Q1793.8 32.5936 1788.98 32.5936 Q1783.26 32.5936 1779.9 36.4824 Q1776.54 40.3308 1776.54 46.9338 L1776.54 72.576 L1769.05 72.576 L1769.05 27.2059 L1776.54 27.2059 L1776.54 34.2544 Q1779.09 30.082 1782.66 28.0971 Q1786.22 26.1121 1791.12 26.1121 Q1796.06 26.1121 1799.51 28.6237 Q1802.99 31.1352 1804.65 35.9153 Z" fill="#000000" fill-rule="nonzero" fill-opacity="1" /><path clip-path="url(#clip010)" d="M1850.14 27.2059 L1857.6 27.2059 L1857.6 72.576 L1850.14 72.576 L1850.14 27.2059 M1850.14 9.54393 L1857.6 9.54393 L1857.6 18.9825 L1850.14 18.9825 L1850.14 9.54393 Z" fill="#000000" fill-rule="nonzero" fill-opacity="1" /><path clip-path="url(#clip010)" d="M1905.84 28.9478 L1905.84 35.9153 Q1902.68 34.1734 1899.48 33.3227 Q1896.32 32.4315 1893.08 32.4315 Q1885.83 32.4315 1881.82 37.0496 Q1877.81 41.6271 1877.81 49.9314 Q1877.81 58.2358 1881.82 62.8538 Q1885.83 67.4314 1893.08 67.4314 Q1896.32 67.4314 1899.48 66.5807 Q1902.68 65.6895 1905.84 63.9476 L1905.84 70.8341 Q1902.73 72.2924 1899.36 73.0216 Q1896.04 73.7508 1892.27 73.7508 Q1882.03 73.7508 1875.99 67.3098 Q1869.95 60.8689 1869.95 49.9314 Q1869.95 38.832 1876.03 32.472 Q1882.15 26.1121 1892.76 26.1121 Q1896.2 26.1121 1899.48 26.8413 Q1902.77 27.5299 1905.84 28.9478 Z" fill="#000000" fill-rule="nonzero" fill-opacity="1" /><path clip-path="url(#clip010)" d="M1947.73 28.5427 L1947.73 35.5912 Q1944.57 33.9709 1941.17 33.1607 Q1937.77 32.3505 1934.12 32.3505 Q1928.57 32.3505 1925.77 34.0519 Q1923.02 35.7533 1923.02 39.156 Q1923.02 41.7486 1925.01 43.2475 Q1926.99 44.7058 1932.99 46.0426 L1935.54 46.6097 Q1943.48 48.3111 1946.8 51.4303 Q1950.16 54.509 1950.16 60.0587 Q1950.16 66.3781 1945.14 70.0644 Q1940.16 73.7508 1931.41 73.7508 Q1927.76 73.7508 1923.79 73.0216 Q1919.86 72.3329 1915.49 70.9151 L1915.49 63.2184 Q1919.62 65.3654 1923.63 66.4591 Q1927.64 67.5124 1931.57 67.5124 Q1936.83 67.5124 1939.67 65.73 Q1942.51 63.9071 1942.51 60.6258 Q1942.51 57.5877 1940.44 55.9673 Q1938.41 54.3469 1931.49 52.8481 L1928.89 52.2405 Q1921.97 50.7821 1918.89 47.7845 Q1915.81 44.7463 1915.81 39.4801 Q1915.81 33.0797 1920.35 29.5959 Q1924.88 26.1121 1933.23 26.1121 Q1937.36 26.1121 1941.01 26.7198 Q1944.65 27.3274 1947.73 28.5427 Z" fill="#000000" fill-rule="nonzero" fill-opacity="1" /><polyline clip-path="url(#clip011)" style="stroke:#009af9; stroke-linecap:round; stroke-linejoin:round; stroke-width:8; stroke-opacity:1; fill:none" points="438.388,1688.65 456.207,1688.51 474.025,1688.4 491.844,1688.31 509.662,1688.23 527.481,1688.16 545.299,1688.09 563.118,1688.02 580.936,1687.94 598.755,1687.86 616.573,1687.78 634.392,1687.69 652.21,1687.59 670.029,1687.48 687.847,1687.36 705.666,1687.23 723.484,1687.08 741.303,1686.92 759.121,1686.74 776.94,1686.55 794.758,1686.33 812.577,1686.1 830.395,1685.84 848.214,1685.55 866.032,1685.23 883.851,1684.89 901.669,1684.5 919.488,1684.08 937.306,1683.61 955.125,1683.1 972.943,1682.54 990.762,1681.92 1008.58,1681.23 1026.4,1680.48 1044.22,1679.65 1062.04,1678.73 1079.85,1677.73 1097.67,1676.62 1115.49,1675.4 1133.31,1674.05 1151.13,1672.58 1168.95,1670.95 1186.77,1669.16 1204.58,1667.19 1222.4,1665.02 1240.22,1662.64 1258.04,1660.02 1275.86,1657.13 1293.68,1653.97 1311.5,1650.48 1329.31,1646.66 1347.13,1642.46 1364.95,1637.84 1382.77,1632.78 1400.59,1627.22 1418.41,1621.12 1436.22,1614.44 1454.04,1607.12 1471.86,1599.1 1489.68,1590.33 1507.5,1580.73 1525.32,1570.25 1543.14,1558.8 1560.95,1546.3 1578.77,1532.69 1596.59,1517.86 1614.41,1501.74 1632.23,1484.23 1650.05,1465.25 1667.87,1444.69 1685.68,1422.46 1703.5,1398.48 1721.32,1372.65 1739.14,1344.9 1756.96,1315.15 1774.78,1283.35 1792.59,1249.44 1810.41,1213.39 1828.23,1175.2 1846.05,1134.88 1863.87,1092.49 1881.69,1048.1 1899.51,1001.82 1917.32,953.817 1935.14,904.284 1952.96,853.465 1970.78,801.646 1988.6,749.159 2006.42,696.378 2024.24,643.715 2042.05,591.614 2059.87,540.55 2077.69,491.011 2095.51,443.496 2113.33,398.5 2131.15,356.509 2148.97,317.977 2166.78,283.327 2184.6,252.935 2202.42,227.12 2220.24,206.139 2238.06,190.18 2255.88,179.362 2273.69,173.729 2291.51,173.254 2309.33,177.843 2327.15,187.336 2344.97,201.52 2362.79,220.127 2380.61,242.853 2398.42,269.356 2416.24,299.275 2434.06,332.229 2451.88,367.831 2469.7,405.692 2487.52,445.433 2505.34,486.679 2523.15,529.078 2540.97,572.293 2558.79,616.011 2576.61,659.945 "/>
<polyline clip-path="url(#clip011)" style="stroke:#e26f46; stroke-linecap:round; stroke-linejoin:round; stroke-width:8; stroke-opacity:1; fill:none" points="438.388,1687.82 456.207,1687.95 474.025,1688.02 491.844,1688.06 509.662,1688.06 527.481,1688.04 545.299,1688.01 563.118,1687.96 580.936,1687.9 598.755,1687.83 616.573,1687.76 634.392,1687.67 652.21,1687.57 670.029,1687.46 687.847,1687.34 705.666,1687.21 723.484,1687.06 741.303,1686.9 759.121,1686.72 776.94,1686.53 794.758,1686.31 812.577,1686.07 830.395,1685.81 848.214,1685.52 866.032,1685.2 883.851,1684.85 901.669,1684.46 919.488,1684.04 937.306,1683.57 955.125,1683.05 972.943,1682.48 990.762,1681.86 1008.58,1681.17 1026.4,1680.41 1044.22,1679.57 1062.04,1678.65 1079.85,1677.64 1097.67,1676.52 1115.49,1675.3 1133.31,1673.95 1151.13,1672.46 1168.95,1670.83 1186.77,1669.03 1204.58,1667.06 1222.4,1664.89 1240.22,1662.5 1258.04,1659.88 1275.86,1657 1293.68,1653.84 1311.5,1650.37 1329.31,1646.56 1347.13,1642.39 1364.95,1637.81 1382.77,1632.8 1400.59,1627.31 1418.41,1621.3 1436.22,1614.73 1454.04,1607.55 1471.86,1599.71 1489.68,1591.16 1507.5,1581.85 1525.32,1571.71 1543.14,1560.68 1560.95,1548.72 1578.77,1535.74 1596.59,1521.7 1614.41,1506.53 1632.23,1490.17 1650.05,1472.58 1667.87,1453.68 1685.68,1433.46 1703.5,1411.86 1721.32,1388.88 1739.14,1364.5 1756.96,1338.73 1774.78,1311.61 1792.59,1283.18 1810.41,1253.55 1828.23,1222.8 1846.05,1191.1 1863.87,1158.62 1881.69,1125.58 1899.51,1092.22 1917.32,1058.84 1935.14,1025.76 1952.96,993.327 1970.78,961.917 1988.6,931.921 2006.42,903.74 2024.24,877.769 2042.05,854.395 2059.87,833.977 2077.69,816.84 2095.51,803.261 2113.33,793.463 2131.15,787.6 2148.97,785.763 2166.78,787.962 2184.6,794.142 2202.42,804.171 2220.24,817.857 2238.06,834.947 2255.88,855.141 2273.69,878.101 2291.51,903.461 2309.33,930.841 2327.15,959.857 2344.97,990.125 2362.79,1021.28 2380.61,1052.98 2398.42,1084.89 2416.24,1116.73 2434.06,1148.25 2451.88,1179.2 2469.7,1209.42 2487.52,1238.73 2505.34,1267.02 2523.15,1294.18 2540.97,1320.15 2558.79,1344.88 2576.61,1368.34 "/>
<polyline clip-path="url(#clip011)" style="stroke:#3da44d; stroke-linecap:round; stroke-linejoin:round; stroke-width:8; stroke-opacity:1; fill:none" stroke-dasharray="32, 20" points="438.388,1688.65 456.207,1688.65 474.025,1688.65 491.844,1688.65 509.662,1688.65 527.481,1688.65 545.299,1688.65 563.118,1688.64 580.936,1688.64 598.755,1688.64 616.573,1688.63 634.392,1688.63 652.21,1688.62 670.029,1688.62 687.847,1688.61 705.666,1688.6 723.484,1688.6 741.303,1688.59 759.121,1688.58 776.94,1688.57 794.758,1688.56 812.577,1688.54 830.395,1688.53 848.214,1688.52 866.032,1688.5 883.851,1688.48 901.669,1688.46 919.488,1688.44 937.306,1688.42 955.125,1688.39 972.943,1688.36 990.762,1688.33 1008.58,1688.29 1026.4,1688.25 1044.22,1688.21 1062.04,1688.16 1079.85,1688.11 1097.67,1688.05 1115.49,1687.99 1133.31,1687.92 1151.13,1687.85 1168.95,1687.76 1186.77,1687.67 1204.58,1687.57 1222.4,1687.45 1240.22,1687.33 1258.04,1687.19 1275.86,1687.04 1293.68,1686.88 1311.5,1686.69 1329.31,1686.49 1347.13,1686.27 1364.95,1686.03 1382.77,1685.76 1400.59,1685.47 1418.41,1685.15 1436.22,1684.8 1454.04,1684.41 1471.86,1683.98 1489.68,1683.51 1507.5,1682.99 1525.32,1682.43 1543.14,1681.81 1560.95,1681.13 1578.77,1680.38 1596.59,1679.57 1614.41,1678.67 1632.23,1677.7 1650.05,1676.63 1667.87,1675.46 1685.68,1674.18 1703.5,1672.79 1721.32,1671.28 1739.14,1669.63 1756.96,1667.84 1774.78,1665.89 1792.59,1663.78 1810.41,1661.5 1828.23,1659.03 1846.05,1656.36 1863.87,1653.48 1881.69,1650.39 1899.51,1647.08 1917.32,1643.52 1935.14,1639.72 1952.96,1635.68 1970.78,1631.37 1988.6,1626.81 2006.42,1621.98 2024.24,1616.88 2042.05,1611.53 2059.87,1605.91 2077.69,1600.05 2095.51,1593.94 2113.33,1587.6 2131.15,1581.04 2148.97,1574.29 2166.78,1567.34 2184.6,1560.24 2202.42,1552.99 2220.24,1545.63 2238.06,1538.18 2255.88,1530.66 2273.69,1523.09 2291.51,1515.52 2309.33,1507.95 2327.15,1500.42 2344.97,1492.94 2362.79,1485.55 2380.61,1478.26 2398.42,1471.1 2416.24,1464.08 2434.06,1457.21 2451.88,1450.52 2469.7,1444.01 2487.52,1437.69 2505.34,1431.58 2523.15,1425.67 2540.97,1419.98 2558.79,1414.51 2576.61,1409.26 "/>
<path clip-path="url(#clip010)" d="M1803.02 388.696 L2565.21 388.696 L2565.21 181.336 L1803.02 181.336  Z" fill="#ffffff" fill-rule="evenodd" fill-opacity="1"/>
<polyline clip-path="url(#clip010)" style="stroke:#000000; stroke-linecap:round; stroke-linejoin:round; stroke-width:4; stroke-opacity:1; fill:none" points="1803.02,388.696 2565.21,388.696 2565.21,181.336 1803.02,181.336 1803.02,388.696 "/>
<polyline clip-path="url(#clip010)" style="stroke:#009af9; stroke-linecap:round; stroke-linejoin:round; stroke-width:8; stroke-opacity:1; fill:none" points="1828.21,233.176 1979.31,233.176 "/>
<path clip-path="url(#clip010)" d="M2004.49 215.896 L2009.17 215.896 L2009.17 250.456 L2004.49 250.456 L2004.49 215.896 Z" fill="#000000" fill-rule="nonzero" fill-opacity="1" /><path clip-path="url(#clip010)" d="M2039.84 234.808 L2039.84 250.456 L2035.58 250.456 L2035.58 234.947 Q2035.58 231.267 2034.15 229.438 Q2032.71 227.609 2029.84 227.609 Q2026.39 227.609 2024.4 229.808 Q2022.41 232.007 2022.41 235.804 L2022.41 250.456 L2018.13 250.456 L2018.13 224.531 L2022.41 224.531 L2022.41 228.558 Q2023.94 226.22 2026 225.063 Q2028.08 223.906 2030.79 223.906 Q2035.26 223.906 2037.55 226.683 Q2039.84 229.438 2039.84 234.808 Z" fill="#000000" fill-rule="nonzero" fill-opacity="1" /><path clip-path="url(#clip010)" d="M2061.46 214.438 L2061.46 217.98 L2057.39 217.98 Q2055.09 217.98 2054.19 218.906 Q2053.31 219.831 2053.31 222.239 L2053.31 224.531 L2060.33 224.531 L2060.33 227.841 L2053.31 227.841 L2053.31 250.456 L2049.03 250.456 L2049.03 227.841 L2044.96 227.841 L2044.96 224.531 L2049.03 224.531 L2049.03 222.725 Q2049.03 218.396 2051.04 216.429 Q2053.06 214.438 2057.43 214.438 L2061.46 214.438 Z" fill="#000000" fill-rule="nonzero" fill-opacity="1" /><path clip-path="url(#clip010)" d="M2087.2 236.429 L2087.2 238.512 L2067.62 238.512 Q2067.89 242.91 2070.26 245.225 Q2072.64 247.516 2076.88 247.516 Q2079.33 247.516 2081.62 246.915 Q2083.94 246.313 2086.2 245.109 L2086.2 249.137 Q2083.91 250.109 2081.51 250.618 Q2079.1 251.128 2076.62 251.128 Q2070.42 251.128 2066.78 247.516 Q2063.17 243.905 2063.17 237.748 Q2063.17 231.382 2066.6 227.655 Q2070.05 223.906 2075.88 223.906 Q2081.11 223.906 2084.14 227.285 Q2087.2 230.642 2087.2 236.429 M2082.94 235.179 Q2082.89 231.683 2080.97 229.6 Q2079.08 227.517 2075.93 227.517 Q2072.36 227.517 2070.21 229.53 Q2068.08 231.544 2067.76 235.202 L2082.94 235.179 Z" fill="#000000" fill-rule="nonzero" fill-opacity="1" /><path clip-path="url(#clip010)" d="M2112.85 225.526 L2112.85 229.507 Q2111.04 228.512 2109.21 228.026 Q2107.41 227.517 2105.56 227.517 Q2101.41 227.517 2099.12 230.155 Q2096.83 232.771 2096.83 237.517 Q2096.83 242.262 2099.12 244.901 Q2101.41 247.516 2105.56 247.516 Q2107.41 247.516 2109.21 247.03 Q2111.04 246.521 2112.85 245.526 L2112.85 249.461 Q2111.07 250.294 2109.14 250.711 Q2107.25 251.128 2105.09 251.128 Q2099.24 251.128 2095.79 247.447 Q2092.34 243.767 2092.34 237.517 Q2092.34 231.174 2095.81 227.54 Q2099.31 223.906 2105.37 223.906 Q2107.34 223.906 2109.21 224.322 Q2111.09 224.716 2112.85 225.526 Z" fill="#000000" fill-rule="nonzero" fill-opacity="1" /><path clip-path="url(#clip010)" d="M2124.47 217.169 L2124.47 224.531 L2133.24 224.531 L2133.24 227.841 L2124.47 227.841 L2124.47 241.915 Q2124.47 245.086 2125.33 245.989 Q2126.2 246.891 2128.87 246.891 L2133.24 246.891 L2133.24 250.456 L2128.87 250.456 Q2123.94 250.456 2122.06 248.628 Q2120.19 246.776 2120.19 241.915 L2120.19 227.841 L2117.06 227.841 L2117.06 224.531 L2120.19 224.531 L2120.19 217.169 L2124.47 217.169 Z" fill="#000000" fill-rule="nonzero" fill-opacity="1" /><path clip-path="url(#clip010)" d="M2138.84 224.531 L2143.1 224.531 L2143.1 250.456 L2138.84 250.456 L2138.84 224.531 M2138.84 214.438 L2143.1 214.438 L2143.1 219.831 L2138.84 219.831 L2138.84 214.438 Z" fill="#000000" fill-rule="nonzero" fill-opacity="1" /><path clip-path="url(#clip010)" d="M2162.06 227.517 Q2158.64 227.517 2156.64 230.202 Q2154.65 232.864 2154.65 237.517 Q2154.65 242.169 2156.62 244.854 Q2158.61 247.516 2162.06 247.516 Q2165.46 247.516 2167.45 244.831 Q2169.45 242.146 2169.45 237.517 Q2169.45 232.91 2167.45 230.225 Q2165.46 227.517 2162.06 227.517 M2162.06 223.906 Q2167.62 223.906 2170.79 227.517 Q2173.96 231.128 2173.96 237.517 Q2173.96 243.882 2170.79 247.516 Q2167.62 251.128 2162.06 251.128 Q2156.48 251.128 2153.31 247.516 Q2150.16 243.882 2150.16 237.517 Q2150.16 231.128 2153.31 227.517 Q2156.48 223.906 2162.06 223.906 Z" fill="#000000" fill-rule="nonzero" fill-opacity="1" /><path clip-path="url(#clip010)" d="M2180.58 240.225 L2180.58 224.531 L2184.84 224.531 L2184.84 240.063 Q2184.84 243.743 2186.27 245.595 Q2187.71 247.424 2190.58 247.424 Q2194.03 247.424 2196.02 245.225 Q2198.03 243.026 2198.03 239.229 L2198.03 224.531 L2202.29 224.531 L2202.29 250.456 L2198.03 250.456 L2198.03 246.475 Q2196.48 248.836 2194.42 249.993 Q2192.38 251.128 2189.68 251.128 Q2185.21 251.128 2182.89 248.35 Q2180.58 245.572 2180.58 240.225 M2191.3 223.906 L2191.3 223.906 Z" fill="#000000" fill-rule="nonzero" fill-opacity="1" /><path clip-path="url(#clip010)" d="M2227.59 225.294 L2227.59 229.322 Q2225.79 228.396 2223.84 227.933 Q2221.9 227.47 2219.82 227.47 Q2216.64 227.47 2215.05 228.443 Q2213.47 229.415 2213.47 231.359 Q2213.47 232.841 2214.61 233.697 Q2215.74 234.53 2219.17 235.294 L2220.63 235.618 Q2225.16 236.591 2227.06 238.373 Q2228.98 240.132 2228.98 243.304 Q2228.98 246.915 2226.11 249.021 Q2223.26 251.128 2218.26 251.128 Q2216.18 251.128 2213.91 250.711 Q2211.67 250.317 2209.17 249.507 L2209.17 245.109 Q2211.53 246.336 2213.82 246.961 Q2216.11 247.563 2218.36 247.563 Q2221.37 247.563 2222.99 246.544 Q2224.61 245.503 2224.61 243.628 Q2224.61 241.892 2223.43 240.966 Q2222.27 240.04 2218.31 239.183 L2216.83 238.836 Q2212.87 238.003 2211.11 236.29 Q2209.35 234.554 2209.35 231.544 Q2209.35 227.887 2211.94 225.896 Q2214.54 223.906 2219.31 223.906 Q2221.67 223.906 2223.75 224.253 Q2225.83 224.6 2227.59 225.294 Z" fill="#000000" fill-rule="nonzero" fill-opacity="1" /><path clip-path="url(#clip010)" d="M2261.07 214.484 Q2257.96 219.808 2256.46 225.017 Q2254.95 230.225 2254.95 235.572 Q2254.95 240.919 2256.46 246.174 Q2257.99 251.405 2261.07 256.706 L2257.36 256.706 Q2253.89 251.266 2252.15 246.012 Q2250.44 240.757 2250.44 235.572 Q2250.44 230.41 2252.15 225.179 Q2253.87 219.947 2257.36 214.484 L2261.07 214.484 Z" fill="#000000" fill-rule="nonzero" fill-opacity="1" /><path clip-path="url(#clip010)" d="M2269.51 215.896 L2274.19 215.896 L2274.19 250.456 L2269.51 250.456 L2269.51 215.896 Z" fill="#000000" fill-rule="nonzero" fill-opacity="1" /><path clip-path="url(#clip010)" d="M2282.64 214.484 L2286.34 214.484 Q2289.81 219.947 2291.53 225.179 Q2293.26 230.41 2293.26 235.572 Q2293.26 240.757 2291.53 246.012 Q2289.81 251.266 2286.34 256.706 L2282.64 256.706 Q2285.72 251.405 2287.22 246.174 Q2288.75 240.919 2288.75 235.572 Q2288.75 230.225 2287.22 225.017 Q2285.72 219.808 2282.64 214.484 Z" fill="#000000" fill-rule="nonzero" fill-opacity="1" /><polyline clip-path="url(#clip010)" style="stroke:#e26f46; stroke-linecap:round; stroke-linejoin:round; stroke-width:8; stroke-opacity:1; fill:none" points="1828.21,285.016 1979.31,285.016 "/>
<path clip-path="url(#clip010)" d="M2004.49 267.736 L2026.34 267.736 L2026.34 271.671 L2009.17 271.671 L2009.17 281.903 L2025.63 281.903 L2025.63 285.838 L2009.17 285.838 L2009.17 298.361 L2026.76 298.361 L2026.76 302.296 L2004.49 302.296 L2004.49 267.736 Z" fill="#000000" fill-rule="nonzero" fill-opacity="1" /><path clip-path="url(#clip010)" d="M2055.81 276.371 L2046.44 288.986 L2056.3 302.296 L2051.27 302.296 L2043.73 292.111 L2036.18 302.296 L2031.16 302.296 L2041.23 288.732 L2032.02 276.371 L2037.04 276.371 L2043.91 285.607 L2050.79 276.371 L2055.81 276.371 Z" fill="#000000" fill-rule="nonzero" fill-opacity="1" /><path clip-path="url(#clip010)" d="M2066.44 298.407 L2066.44 312.157 L2062.15 312.157 L2062.15 276.371 L2066.44 276.371 L2066.44 280.306 Q2067.78 277.991 2069.82 276.88 Q2071.88 275.746 2074.72 275.746 Q2079.45 275.746 2082.39 279.495 Q2085.35 283.245 2085.35 289.357 Q2085.35 295.468 2082.39 299.218 Q2079.45 302.968 2074.72 302.968 Q2071.88 302.968 2069.82 301.856 Q2067.78 300.722 2066.44 298.407 M2080.93 289.357 Q2080.93 284.657 2078.98 281.995 Q2077.06 279.31 2073.68 279.31 Q2070.3 279.31 2068.36 281.995 Q2066.44 284.657 2066.44 289.357 Q2066.44 294.056 2068.36 296.741 Q2070.3 299.403 2073.68 299.403 Q2077.06 299.403 2078.98 296.741 Q2080.93 294.056 2080.93 289.357 Z" fill="#000000" fill-rule="nonzero" fill-opacity="1" /><path clip-path="url(#clip010)" d="M2102.45 279.357 Q2099.03 279.357 2097.04 282.042 Q2095.05 284.704 2095.05 289.357 Q2095.05 294.009 2097.02 296.694 Q2099.01 299.356 2102.45 299.356 Q2105.86 299.356 2107.85 296.671 Q2109.84 293.986 2109.84 289.357 Q2109.84 284.75 2107.85 282.065 Q2105.86 279.357 2102.45 279.357 M2102.45 275.746 Q2108.01 275.746 2111.18 279.357 Q2114.35 282.968 2114.35 289.357 Q2114.35 295.722 2111.18 299.356 Q2108.01 302.968 2102.45 302.968 Q2096.88 302.968 2093.7 299.356 Q2090.56 295.722 2090.56 289.357 Q2090.56 282.968 2093.7 279.357 Q2096.88 275.746 2102.45 275.746 Z" fill="#000000" fill-rule="nonzero" fill-opacity="1" /><path clip-path="url(#clip010)" d="M2137.94 277.134 L2137.94 281.162 Q2136.14 280.236 2134.19 279.773 Q2132.25 279.31 2130.16 279.31 Q2126.99 279.31 2125.39 280.283 Q2123.82 281.255 2123.82 283.199 Q2123.82 284.681 2124.95 285.537 Q2126.09 286.37 2129.51 287.134 L2130.97 287.458 Q2135.51 288.431 2137.41 290.213 Q2139.33 291.972 2139.33 295.144 Q2139.33 298.755 2136.46 300.861 Q2133.61 302.968 2128.61 302.968 Q2126.53 302.968 2124.26 302.551 Q2122.01 302.157 2119.51 301.347 L2119.51 296.949 Q2121.88 298.176 2124.17 298.801 Q2126.46 299.403 2128.7 299.403 Q2131.71 299.403 2133.33 298.384 Q2134.95 297.343 2134.95 295.468 Q2134.95 293.732 2133.77 292.806 Q2132.62 291.88 2128.66 291.023 L2127.18 290.676 Q2123.22 289.843 2121.46 288.13 Q2119.7 286.394 2119.7 283.384 Q2119.7 279.727 2122.29 277.736 Q2124.89 275.746 2129.65 275.746 Q2132.01 275.746 2134.1 276.093 Q2136.18 276.44 2137.94 277.134 Z" fill="#000000" fill-rule="nonzero" fill-opacity="1" /><path clip-path="url(#clip010)" d="M2168.29 288.269 L2168.29 290.352 L2148.7 290.352 Q2148.98 294.75 2151.34 297.065 Q2153.73 299.356 2157.96 299.356 Q2160.42 299.356 2162.71 298.755 Q2165.02 298.153 2167.29 296.949 L2167.29 300.977 Q2165 301.949 2162.59 302.458 Q2160.19 302.968 2157.71 302.968 Q2151.51 302.968 2147.87 299.356 Q2144.26 295.745 2144.26 289.588 Q2144.26 283.222 2147.69 279.495 Q2151.14 275.746 2156.97 275.746 Q2162.2 275.746 2165.23 279.125 Q2168.29 282.482 2168.29 288.269 M2164.03 287.019 Q2163.98 283.523 2162.06 281.44 Q2160.16 279.357 2157.01 279.357 Q2153.45 279.357 2151.3 281.37 Q2149.17 283.384 2148.84 287.042 L2164.03 287.019 Z" fill="#000000" fill-rule="nonzero" fill-opacity="1" /><path clip-path="url(#clip010)" d="M2192.34 280.306 L2192.34 266.278 L2196.6 266.278 L2196.6 302.296 L2192.34 302.296 L2192.34 298.407 Q2191 300.722 2188.94 301.856 Q2186.9 302.968 2184.03 302.968 Q2179.33 302.968 2176.37 299.218 Q2173.43 295.468 2173.43 289.357 Q2173.43 283.245 2176.37 279.495 Q2179.33 275.746 2184.03 275.746 Q2186.9 275.746 2188.94 276.88 Q2191 277.991 2192.34 280.306 M2177.82 289.357 Q2177.82 294.056 2179.75 296.741 Q2181.69 299.403 2185.07 299.403 Q2188.45 299.403 2190.39 296.741 Q2192.34 294.056 2192.34 289.357 Q2192.34 284.657 2190.39 281.995 Q2188.45 279.31 2185.07 279.31 Q2181.69 279.31 2179.75 281.995 Q2177.82 284.657 2177.82 289.357 Z" fill="#000000" fill-rule="nonzero" fill-opacity="1" /><path clip-path="url(#clip010)" d="M2230.67 266.324 Q2227.57 271.648 2226.07 276.857 Q2224.56 282.065 2224.56 287.412 Q2224.56 292.759 2226.07 298.014 Q2227.59 303.245 2230.67 308.546 L2226.97 308.546 Q2223.5 303.106 2221.76 297.852 Q2220.05 292.597 2220.05 287.412 Q2220.05 282.25 2221.76 277.019 Q2223.47 271.787 2226.97 266.324 L2230.67 266.324 Z" fill="#000000" fill-rule="nonzero" fill-opacity="1" /><path clip-path="url(#clip010)" d="M2239.12 267.736 L2260.97 267.736 L2260.97 271.671 L2243.8 271.671 L2243.8 281.903 L2260.25 281.903 L2260.25 285.838 L2243.8 285.838 L2243.8 298.361 L2261.39 298.361 L2261.39 302.296 L2239.12 302.296 L2239.12 267.736 Z" fill="#000000" fill-rule="nonzero" fill-opacity="1" /><path clip-path="url(#clip010)" d="M2268.22 266.324 L2271.92 266.324 Q2275.39 271.787 2277.11 277.019 Q2278.84 282.25 2278.84 287.412 Q2278.84 292.597 2277.11 297.852 Q2275.39 303.106 2271.92 308.546 L2268.22 308.546 Q2271.3 303.245 2272.8 298.014 Q2274.33 292.759 2274.33 287.412 Q2274.33 282.065 2272.8 276.857 Q2271.3 271.648 2268.22 266.324 Z" fill="#000000" fill-rule="nonzero" fill-opacity="1" /><polyline clip-path="url(#clip010)" style="stroke:#3da44d; stroke-linecap:round; stroke-linejoin:round; stroke-width:8; stroke-opacity:1; fill:none" stroke-dasharray="32, 20" points="1828.21,336.856 1979.31,336.856 "/>
<path clip-path="url(#clip010)" d="M2032.36 322.238 L2032.36 327.169 Q2030 324.97 2027.32 323.882 Q2024.65 322.794 2021.65 322.794 Q2015.72 322.794 2012.57 326.428 Q2009.42 330.039 2009.42 336.891 Q2009.42 343.72 2012.57 347.354 Q2015.72 350.965 2021.65 350.965 Q2024.65 350.965 2027.32 349.877 Q2030 348.789 2032.36 346.59 L2032.36 351.474 Q2029.91 353.141 2027.15 353.974 Q2024.42 354.808 2021.37 354.808 Q2013.52 354.808 2009.01 350.016 Q2004.49 345.201 2004.49 336.891 Q2004.49 328.558 2009.01 323.766 Q2013.52 318.951 2021.37 318.951 Q2024.47 318.951 2027.2 319.785 Q2029.96 320.595 2032.36 322.238 Z" fill="#000000" fill-rule="nonzero" fill-opacity="1" /><path clip-path="url(#clip010)" d="M2038.96 343.905 L2038.96 328.211 L2043.22 328.211 L2043.22 343.743 Q2043.22 347.423 2044.65 349.275 Q2046.09 351.104 2048.96 351.104 Q2052.41 351.104 2054.4 348.905 Q2056.41 346.706 2056.41 342.909 L2056.41 328.211 L2060.67 328.211 L2060.67 354.136 L2056.41 354.136 L2056.41 350.155 Q2054.86 352.516 2052.8 353.673 Q2050.77 354.808 2048.06 354.808 Q2043.59 354.808 2041.27 352.03 Q2038.96 349.252 2038.96 343.905 M2049.68 327.586 L2049.68 327.586 Z" fill="#000000" fill-rule="nonzero" fill-opacity="1" /><path clip-path="url(#clip010)" d="M2089.63 333.187 Q2091.23 330.317 2093.45 328.951 Q2095.67 327.586 2098.68 327.586 Q2102.73 327.586 2104.93 330.433 Q2107.13 333.257 2107.13 338.488 L2107.13 354.136 L2102.85 354.136 L2102.85 338.627 Q2102.85 334.9 2101.53 333.095 Q2100.21 331.289 2097.5 331.289 Q2094.19 331.289 2092.27 333.488 Q2090.35 335.687 2090.35 339.484 L2090.35 354.136 L2086.07 354.136 L2086.07 338.627 Q2086.07 334.877 2084.75 333.095 Q2083.43 331.289 2080.67 331.289 Q2077.41 331.289 2075.49 333.511 Q2073.57 335.71 2073.57 339.484 L2073.57 354.136 L2069.28 354.136 L2069.28 328.211 L2073.57 328.211 L2073.57 332.238 Q2075.02 329.854 2077.06 328.72 Q2079.1 327.586 2081.9 327.586 Q2084.72 327.586 2086.69 329.021 Q2088.68 330.456 2089.63 333.187 Z" fill="#000000" fill-rule="nonzero" fill-opacity="1" /><path clip-path="url(#clip010)" d="M2115.19 343.905 L2115.19 328.211 L2119.45 328.211 L2119.45 343.743 Q2119.45 347.423 2120.88 349.275 Q2122.32 351.104 2125.19 351.104 Q2128.64 351.104 2130.63 348.905 Q2132.64 346.706 2132.64 342.909 L2132.64 328.211 L2136.9 328.211 L2136.9 354.136 L2132.64 354.136 L2132.64 350.155 Q2131.09 352.516 2129.03 353.673 Q2126.99 354.808 2124.28 354.808 Q2119.82 354.808 2117.5 352.03 Q2115.19 349.252 2115.19 343.905 M2125.9 327.586 L2125.9 327.586 Z" fill="#000000" fill-rule="nonzero" fill-opacity="1" /><path clip-path="url(#clip010)" d="M2145.67 318.118 L2149.93 318.118 L2149.93 354.136 L2145.67 354.136 L2145.67 318.118 Z" fill="#000000" fill-rule="nonzero" fill-opacity="1" /><path clip-path="url(#clip010)" d="M2170.63 341.104 Q2165.46 341.104 2163.47 342.284 Q2161.48 343.465 2161.48 346.312 Q2161.48 348.581 2162.96 349.923 Q2164.47 351.243 2167.04 351.243 Q2170.58 351.243 2172.71 348.743 Q2174.86 346.22 2174.86 342.053 L2174.86 341.104 L2170.63 341.104 M2179.12 339.345 L2179.12 354.136 L2174.86 354.136 L2174.86 350.201 Q2173.4 352.562 2171.23 353.696 Q2169.05 354.808 2165.9 354.808 Q2161.92 354.808 2159.56 352.585 Q2157.22 350.34 2157.22 346.59 Q2157.22 342.215 2160.14 339.993 Q2163.08 337.771 2168.89 337.771 L2174.86 337.771 L2174.86 337.354 Q2174.86 334.414 2172.92 332.817 Q2171 331.197 2167.5 331.197 Q2165.28 331.197 2163.17 331.729 Q2161.07 332.261 2159.12 333.326 L2159.12 329.391 Q2161.46 328.488 2163.66 328.048 Q2165.86 327.586 2167.94 327.586 Q2173.57 327.586 2176.34 330.502 Q2179.12 333.419 2179.12 339.345 Z" fill="#000000" fill-rule="nonzero" fill-opacity="1" /><path clip-path="url(#clip010)" d="M2192.11 320.849 L2192.11 328.211 L2200.88 328.211 L2200.88 331.521 L2192.11 331.521 L2192.11 345.595 Q2192.11 348.766 2192.96 349.669 Q2193.84 350.571 2196.51 350.571 L2200.88 350.571 L2200.88 354.136 L2196.51 354.136 Q2191.57 354.136 2189.7 352.308 Q2187.82 350.456 2187.82 345.595 L2187.82 331.521 L2184.7 331.521 L2184.7 328.211 L2187.82 328.211 L2187.82 320.849 L2192.11 320.849 Z" fill="#000000" fill-rule="nonzero" fill-opacity="1" /><path clip-path="url(#clip010)" d="M2206.48 328.211 L2210.74 328.211 L2210.74 354.136 L2206.48 354.136 L2206.48 328.211 M2206.48 318.118 L2210.74 318.118 L2210.74 323.511 L2206.48 323.511 L2206.48 318.118 Z" fill="#000000" fill-rule="nonzero" fill-opacity="1" /><path clip-path="url(#clip010)" d="M2216.6 328.211 L2221.11 328.211 L2229.21 349.97 L2237.32 328.211 L2241.83 328.211 L2232.11 354.136 L2226.32 354.136 L2216.6 328.211 Z" fill="#000000" fill-rule="nonzero" fill-opacity="1" /><path clip-path="url(#clip010)" d="M2269.88 340.109 L2269.88 342.192 L2250.3 342.192 Q2250.58 346.59 2252.94 348.905 Q2255.32 351.196 2259.56 351.196 Q2262.01 351.196 2264.31 350.595 Q2266.62 349.993 2268.89 348.789 L2268.89 352.817 Q2266.6 353.789 2264.19 354.298 Q2261.78 354.808 2259.31 354.808 Q2253.1 354.808 2249.47 351.196 Q2245.86 347.585 2245.86 341.428 Q2245.86 335.062 2249.28 331.335 Q2252.73 327.586 2258.57 327.586 Q2263.8 327.586 2266.83 330.965 Q2269.88 334.322 2269.88 340.109 M2265.63 338.859 Q2265.58 335.363 2263.66 333.28 Q2261.76 331.197 2258.61 331.197 Q2255.05 331.197 2252.89 333.21 Q2250.76 335.224 2250.44 338.882 L2265.63 338.859 Z" fill="#000000" fill-rule="nonzero" fill-opacity="1" /><path clip-path="url(#clip010)" d="M2296.81 323.419 L2296.81 350.294 L2302.45 350.294 Q2309.61 350.294 2312.92 347.053 Q2316.25 343.812 2316.25 336.822 Q2316.25 329.877 2312.92 326.66 Q2309.61 323.419 2302.45 323.419 L2296.81 323.419 M2292.13 319.576 L2301.74 319.576 Q2311.78 319.576 2316.48 323.766 Q2321.18 327.933 2321.18 336.822 Q2321.18 345.757 2316.46 349.946 Q2311.74 354.136 2301.74 354.136 L2292.13 354.136 L2292.13 319.576 Z" fill="#000000" fill-rule="nonzero" fill-opacity="1" /><path clip-path="url(#clip010)" d="M2350.62 340.109 L2350.62 342.192 L2331.04 342.192 Q2331.32 346.59 2333.68 348.905 Q2336.06 351.196 2340.3 351.196 Q2342.75 351.196 2345.05 350.595 Q2347.36 349.993 2349.63 348.789 L2349.63 352.817 Q2347.34 353.789 2344.93 354.298 Q2342.52 354.808 2340.05 354.808 Q2333.84 354.808 2330.21 351.196 Q2326.6 347.585 2326.6 341.428 Q2326.6 335.062 2330.02 331.335 Q2333.47 327.586 2339.31 327.586 Q2344.54 327.586 2347.57 330.965 Q2350.62 334.322 2350.62 340.109 M2346.37 338.859 Q2346.32 335.363 2344.4 333.28 Q2342.5 331.197 2339.35 331.197 Q2335.79 331.197 2333.63 333.21 Q2331.5 335.224 2331.18 338.882 L2346.37 338.859 Z" fill="#000000" fill-rule="nonzero" fill-opacity="1" /><path clip-path="url(#clip010)" d="M2369.4 341.104 Q2364.24 341.104 2362.25 342.284 Q2360.25 343.465 2360.25 346.312 Q2360.25 348.581 2361.74 349.923 Q2363.24 351.243 2365.81 351.243 Q2369.35 351.243 2371.48 348.743 Q2373.63 346.22 2373.63 342.053 L2373.63 341.104 L2369.4 341.104 M2377.89 339.345 L2377.89 354.136 L2373.63 354.136 L2373.63 350.201 Q2372.18 352.562 2370 353.696 Q2367.82 354.808 2364.68 354.808 Q2360.69 354.808 2358.33 352.585 Q2356 350.34 2356 346.59 Q2356 342.215 2358.91 339.993 Q2361.85 337.771 2367.66 337.771 L2373.63 337.771 L2373.63 337.354 Q2373.63 334.414 2371.69 332.817 Q2369.77 331.197 2366.27 331.197 Q2364.05 331.197 2361.94 331.729 Q2359.84 332.261 2357.89 333.326 L2357.89 329.391 Q2360.23 328.488 2362.43 328.048 Q2364.63 327.586 2366.71 327.586 Q2372.34 327.586 2375.12 330.502 Q2377.89 333.419 2377.89 339.345 Z" fill="#000000" fill-rule="nonzero" fill-opacity="1" /><path clip-path="url(#clip010)" d="M2390.88 320.849 L2390.88 328.211 L2399.65 328.211 L2399.65 331.521 L2390.88 331.521 L2390.88 345.595 Q2390.88 348.766 2391.74 349.669 Q2392.62 350.571 2395.28 350.571 L2399.65 350.571 L2399.65 354.136 L2395.28 354.136 Q2390.35 354.136 2388.47 352.308 Q2386.6 350.456 2386.6 345.595 L2386.6 331.521 L2383.47 331.521 L2383.47 328.211 L2386.6 328.211 L2386.6 320.849 L2390.88 320.849 Z" fill="#000000" fill-rule="nonzero" fill-opacity="1" /><path clip-path="url(#clip010)" d="M2426.8 338.488 L2426.8 354.136 L2422.55 354.136 L2422.55 338.627 Q2422.55 334.947 2421.11 333.118 Q2419.68 331.289 2416.81 331.289 Q2413.36 331.289 2411.37 333.488 Q2409.37 335.687 2409.37 339.484 L2409.37 354.136 L2405.09 354.136 L2405.09 318.118 L2409.37 318.118 L2409.37 332.238 Q2410.9 329.9 2412.96 328.743 Q2415.05 327.586 2417.75 327.586 Q2422.22 327.586 2424.51 330.363 Q2426.8 333.118 2426.8 338.488 Z" fill="#000000" fill-rule="nonzero" fill-opacity="1" /><path clip-path="url(#clip010)" d="M2451.83 328.974 L2451.83 333.002 Q2450.02 332.076 2448.08 331.613 Q2446.13 331.15 2444.05 331.15 Q2440.88 331.15 2439.28 332.123 Q2437.71 333.095 2437.71 335.039 Q2437.71 336.521 2438.84 337.377 Q2439.98 338.21 2443.4 338.974 L2444.86 339.298 Q2449.4 340.271 2451.3 342.053 Q2453.22 343.812 2453.22 346.984 Q2453.22 350.595 2450.35 352.701 Q2447.5 354.808 2442.5 354.808 Q2440.42 354.808 2438.15 354.391 Q2435.9 353.997 2433.4 353.187 L2433.4 348.789 Q2435.76 350.016 2438.05 350.641 Q2440.35 351.243 2442.59 351.243 Q2445.6 351.243 2447.22 350.224 Q2448.84 349.183 2448.84 347.308 Q2448.84 345.572 2447.66 344.646 Q2446.5 343.72 2442.55 342.863 L2441.06 342.516 Q2437.11 341.683 2435.35 339.97 Q2433.59 338.234 2433.59 335.224 Q2433.59 331.567 2436.18 329.576 Q2438.77 327.586 2443.54 327.586 Q2445.9 327.586 2447.99 327.933 Q2450.07 328.28 2451.83 328.974 Z" fill="#000000" fill-rule="nonzero" fill-opacity="1" /><path clip-path="url(#clip010)" d="M2485.3 318.164 Q2482.2 323.488 2480.69 328.697 Q2479.19 333.905 2479.19 339.252 Q2479.19 344.599 2480.69 349.854 Q2482.22 355.085 2485.3 360.386 L2481.6 360.386 Q2478.12 354.946 2476.39 349.692 Q2474.68 344.437 2474.68 339.252 Q2474.68 334.09 2476.39 328.859 Q2478.1 323.627 2481.6 318.164 L2485.3 318.164 Z" fill="#000000" fill-rule="nonzero" fill-opacity="1" /><path clip-path="url(#clip010)" d="M2498.42 323.419 L2498.42 350.294 L2504.07 350.294 Q2511.23 350.294 2514.54 347.053 Q2517.87 343.812 2517.87 336.822 Q2517.87 329.877 2514.54 326.66 Q2511.23 323.419 2504.07 323.419 L2498.42 323.419 M2493.75 319.576 L2503.36 319.576 Q2513.4 319.576 2518.1 323.766 Q2522.8 327.933 2522.8 336.822 Q2522.8 345.757 2518.08 349.946 Q2513.36 354.136 2503.36 354.136 L2493.75 354.136 L2493.75 319.576 Z" fill="#000000" fill-rule="nonzero" fill-opacity="1" /><path clip-path="url(#clip010)" d="M2529.4 318.164 L2533.1 318.164 Q2536.57 323.627 2538.29 328.859 Q2540.02 334.09 2540.02 339.252 Q2540.02 344.437 2538.29 349.692 Q2536.57 354.946 2533.1 360.386 L2529.4 360.386 Q2532.48 355.085 2533.98 349.854 Q2535.51 344.599 2535.51 339.252 Q2535.51 333.905 2533.98 328.697 Q2532.48 323.488 2529.4 318.164 Z" fill="#000000" fill-rule="nonzero" fill-opacity="1" /></svg>
