<?xml version="1.0" encoding="utf-8"?>
<svg xmlns="http://www.w3.org/2000/svg" xmlns:xlink="http://www.w3.org/1999/xlink" width="672" height="480" viewBox="0 0 2688 1920">
<defs>
  <clipPath id="clip320">
    <rect x="0" y="0" width="2688" height="1920"/>
  </clipPath>
</defs>
<path clip-path="url(#clip320)" d="M0 1920 L2688 1920 L2688 -4.26326e-14 L0 -4.26326e-14  Z" fill="#ffffff" fill-rule="evenodd" fill-opacity="1"/>
<defs>
  <clipPath id="clip321">
    <rect x="255" y="127" width="2386" height="1607"/>
  </clipPath>
</defs>
<path clip-path="url(#clip320)" d="M255.816 1734.12 L2640.76 1734.12 L2640.76 127.792 L255.816 127.792  Z" fill="#ffffff" fill-rule="evenodd" fill-opacity="1"/>
<polyline clip-path="url(#clip321)" style="stroke:#000000; stroke-linecap:round; stroke-linejoin:round; stroke-width:2; stroke-opacity:0.1; fill:none" points="255.816,1734.12 255.816,127.792 "/>
<polyline clip-path="url(#clip321)" style="stroke:#000000; stroke-linecap:round; stroke-linejoin:round; stroke-width:2; stroke-opacity:0.1; fill:none" points="909.224,1734.12 909.224,127.792 "/>
<polyline clip-path="url(#clip321)" style="stroke:#000000; stroke-linecap:round; stroke-linejoin:round; stroke-width:2; stroke-opacity:0.1; fill:none" points="1562.63,1734.12 1562.63,127.792 "/>
<polyline clip-path="url(#clip321)" style="stroke:#000000; stroke-linecap:round; stroke-linejoin:round; stroke-width:2; stroke-opacity:0.1; fill:none" points="2216.04,1734.12 2216.04,127.792 "/>
<polyline clip-path="url(#clip321)" style="stroke:#000000; stroke-linecap:round; stroke-linejoin:round; stroke-width:2; stroke-opacity:0.1; fill:none" points="255.816,1734.12 2640.76,1734.12 "/>
<polyline clip-path="url(#clip321)" style="stroke:#000000; stroke-linecap:round; stroke-linejoin:round; stroke-width:2; stroke-opacity:0.1; fill:none" points="255.816,1369.04 2640.76,1369.04 "/>
<polyline clip-path="url(#clip321)" style="stroke:#000000; stroke-linecap:round; stroke-linejoin:round; stroke-width:2; stroke-opacity:0.1; fill:none" points="255.816,1003.97 2640.76,1003.97 "/>
<polyline clip-path="url(#clip321)" style="stroke:#000000; stroke-linecap:round; stroke-linejoin:round; stroke-width:2; stroke-opacity:0.1; fill:none" points="255.816,638.895 2640.76,638.895 "/>
<polyline clip-path="url(#clip321)" style="stroke:#000000; stroke-linecap:round; stroke-linejoin:round; stroke-width:2; stroke-opacity:0.1; fill:none" points="255.816,273.822 2640.76,273.822 "/>
<polyline clip-path="url(#clip320)" style="stroke:#000000; stroke-linecap:round; stroke-linejoin:round; stroke-width:4; stroke-opacity:1; fill:none" points="255.816,1734.12 2640.76,1734.12 "/>
<polyline clip-path="url(#clip320)" style="stroke:#000000; stroke-linecap:round; stroke-linejoin:round; stroke-width:4; stroke-opacity:1; fill:none" points="255.816,1734.12 255.816,1715.22 "/>
<polyline clip-path="url(#clip320)" style="stroke:#000000; stroke-linecap:round; stroke-linejoin:round; stroke-width:4; stroke-opacity:1; fill:none" points="909.224,1734.12 909.224,1715.22 "/>
<polyline clip-path="url(#clip320)" style="stroke:#000000; stroke-linecap:round; stroke-linejoin:round; stroke-width:4; stroke-opacity:1; fill:none" points="1562.63,1734.12 1562.63,1715.22 "/>
<polyline clip-path="url(#clip320)" style="stroke:#000000; stroke-linecap:round; stroke-linejoin:round; stroke-width:4; stroke-opacity:1; fill:none" points="2216.04,1734.12 2216.04,1715.22 "/>
<path clip-path="url(#clip320)" d="M255.816 1767.34 Q252.205 1767.34 250.377 1770.9 Q248.571 1774.45 248.571 1781.58 Q248.571 1788.68 250.377 1792.25 Q252.205 1795.79 255.816 1795.79 Q259.451 1795.79 261.256 1792.25 Q263.085 1788.68 263.085 1781.58 Q263.085 1774.45 261.256 1770.9 Q259.451 1767.34 255.816 1767.34 M255.816 1763.64 Q261.626 1763.64 264.682 1768.24 Q267.761 1772.83 267.761 1781.58 Q267.761 1790.3 264.682 1794.91 Q261.626 1799.49 255.816 1799.49 Q250.006 1799.49 246.927 1794.91 Q243.872 1790.3 243.872 1781.58 Q243.872 1772.83 246.927 1768.24 Q250.006 1763.64 255.816 1763.64 Z" fill="#000000" fill-rule="nonzero" fill-opacity="1" /><path clip-path="url(#clip320)" d="M872.917 1794.89 L889.236 1794.89 L889.236 1798.82 L867.292 1798.82 L867.292 1794.89 Q869.954 1792.13 874.537 1787.5 Q879.144 1782.85 880.324 1781.51 Q882.569 1778.98 883.449 1777.25 Q884.352 1775.49 884.352 1773.8 Q884.352 1771.04 882.407 1769.31 Q880.486 1767.57 877.384 1767.57 Q875.185 1767.57 872.732 1768.34 Q870.301 1769.1 867.523 1770.65 L867.523 1765.93 Q870.347 1764.79 872.801 1764.21 Q875.255 1763.64 877.292 1763.64 Q882.662 1763.64 885.856 1766.32 Q889.051 1769.01 889.051 1773.5 Q889.051 1775.63 888.241 1777.55 Q887.454 1779.45 885.347 1782.04 Q884.769 1782.71 881.667 1785.93 Q878.565 1789.12 872.917 1794.89 Z" fill="#000000" fill-rule="nonzero" fill-opacity="1" /><path clip-path="url(#clip320)" d="M909.051 1767.34 Q905.44 1767.34 903.611 1770.9 Q901.805 1774.45 901.805 1781.58 Q901.805 1788.68 903.611 1792.25 Q905.44 1795.79 909.051 1795.79 Q912.685 1795.79 914.491 1792.25 Q916.319 1788.68 916.319 1781.58 Q916.319 1774.45 914.491 1770.9 Q912.685 1767.34 909.051 1767.34 M909.051 1763.64 Q914.861 1763.64 917.917 1768.24 Q920.995 1772.83 920.995 1781.58 Q920.995 1790.3 917.917 1794.91 Q914.861 1799.49 909.051 1799.49 Q903.241 1799.49 900.162 1794.91 Q897.106 1790.3 897.106 1781.58 Q897.106 1772.83 900.162 1768.24 Q903.241 1763.64 909.051 1763.64 Z" fill="#000000" fill-rule="nonzero" fill-opacity="1" /><path clip-path="url(#clip320)" d="M939.213 1767.34 Q935.602 1767.34 933.773 1770.9 Q931.967 1774.45 931.967 1781.58 Q931.967 1788.68 933.773 1792.25 Q935.602 1795.79 939.213 1795.79 Q942.847 1795.79 944.652 1792.25 Q946.481 1788.68 946.481 1781.58 Q946.481 1774.45 944.652 1770.9 Q942.847 1767.34 939.213 1767.34 M939.213 1763.64 Q945.023 1763.64 948.078 1768.24 Q951.157 1772.83 951.157 1781.58 Q951.157 1790.3 948.078 1794.91 Q945.023 1799.49 939.213 1799.49 Q933.403 1799.49 930.324 1794.91 Q927.268 1790.3 927.268 1781.58 Q927.268 1772.83 930.324 1768.24 Q933.403 1763.64 939.213 1763.64 Z" fill="#000000" fill-rule="nonzero" fill-opacity="1" /><path clip-path="url(#clip320)" d="M1535.72 1768.34 L1523.92 1786.78 L1535.72 1786.78 L1535.72 1768.34 M1534.5 1764.26 L1540.38 1764.26 L1540.38 1786.78 L1545.31 1786.78 L1545.31 1790.67 L1540.38 1790.67 L1540.38 1798.82 L1535.72 1798.82 L1535.72 1790.67 L1520.12 1790.67 L1520.12 1786.16 L1534.5 1764.26 Z" fill="#000000" fill-rule="nonzero" fill-opacity="1" /><path clip-path="url(#clip320)" d="M1563.04 1767.34 Q1559.43 1767.34 1557.6 1770.9 Q1555.79 1774.45 1555.79 1781.58 Q1555.79 1788.68 1557.6 1792.25 Q1559.43 1795.79 1563.04 1795.79 Q1566.67 1795.79 1568.48 1792.25 Q1570.31 1788.68 1570.31 1781.58 Q1570.31 1774.45 1568.48 1770.9 Q1566.67 1767.34 1563.04 1767.34 M1563.04 1763.64 Q1568.85 1763.64 1571.9 1768.24 Q1574.98 1772.83 1574.98 1781.58 Q1574.98 1790.3 1571.9 1794.91 Q1568.85 1799.49 1563.04 1799.49 Q1557.23 1799.49 1554.15 1794.91 Q1551.09 1790.3 1551.09 1781.58 Q1551.09 1772.83 1554.15 1768.24 Q1557.23 1763.64 1563.04 1763.64 Z" fill="#000000" fill-rule="nonzero" fill-opacity="1" /><path clip-path="url(#clip320)" d="M1593.2 1767.34 Q1589.59 1767.34 1587.76 1770.9 Q1585.95 1774.45 1585.95 1781.58 Q1585.95 1788.68 1587.76 1792.25 Q1589.59 1795.79 1593.2 1795.79 Q1596.83 1795.79 1598.64 1792.25 Q1600.47 1788.68 1600.47 1781.58 Q1600.47 1774.45 1598.64 1770.9 Q1596.83 1767.34 1593.2 1767.34 M1593.2 1763.64 Q1599.01 1763.64 1602.07 1768.24 Q1605.14 1772.83 1605.14 1781.58 Q1605.14 1790.3 1602.07 1794.91 Q1599.01 1799.49 1593.2 1799.49 Q1587.39 1799.49 1584.31 1794.91 Q1581.26 1790.3 1581.26 1781.58 Q1581.26 1772.83 1584.31 1768.24 Q1587.39 1763.64 1593.2 1763.64 Z" fill="#000000" fill-rule="nonzero" fill-opacity="1" /><path clip-path="url(#clip320)" d="M2186.36 1779.68 Q2183.22 1779.68 2181.36 1781.83 Q2179.54 1783.98 2179.54 1787.73 Q2179.54 1791.46 2181.36 1793.64 Q2183.22 1795.79 2186.36 1795.79 Q2189.51 1795.79 2191.34 1793.64 Q2193.19 1791.46 2193.19 1787.73 Q2193.19 1783.98 2191.34 1781.83 Q2189.51 1779.68 2186.36 1779.68 M2195.65 1765.02 L2195.65 1769.28 Q2193.89 1768.45 2192.08 1768.01 Q2190.3 1767.57 2188.54 1767.57 Q2183.91 1767.57 2181.46 1770.7 Q2179.03 1773.82 2178.68 1780.14 Q2180.05 1778.13 2182.11 1777.06 Q2184.17 1775.97 2186.64 1775.97 Q2191.85 1775.97 2194.86 1779.15 Q2197.89 1782.29 2197.89 1787.73 Q2197.89 1793.06 2194.74 1796.27 Q2191.6 1799.49 2186.36 1799.49 Q2180.37 1799.49 2177.2 1794.91 Q2174.03 1790.3 2174.03 1781.58 Q2174.03 1773.38 2177.92 1768.52 Q2181.8 1763.64 2188.36 1763.64 Q2190.11 1763.64 2191.9 1763.98 Q2193.7 1764.33 2195.65 1765.02 Z" fill="#000000" fill-rule="nonzero" fill-opacity="1" /><path clip-path="url(#clip320)" d="M2215.95 1767.34 Q2212.34 1767.34 2210.51 1770.9 Q2208.7 1774.45 2208.7 1781.58 Q2208.7 1788.68 2210.51 1792.25 Q2212.34 1795.79 2215.95 1795.79 Q2219.58 1795.79 2221.39 1792.25 Q2223.22 1788.68 2223.22 1781.58 Q2223.22 1774.45 2221.39 1770.9 Q2219.58 1767.34 2215.95 1767.34 M2215.95 1763.64 Q2221.76 1763.64 2224.81 1768.24 Q2227.89 1772.83 2227.89 1781.58 Q2227.89 1790.3 2224.81 1794.91 Q2221.76 1799.49 2215.95 1799.49 Q2210.14 1799.49 2207.06 1794.91 Q2204 1790.3 2204 1781.58 Q2204 1772.83 2207.06 1768.24 Q2210.14 1763.64 2215.95 1763.64 Z" fill="#000000" fill-rule="nonzero" fill-opacity="1" /><path clip-path="url(#clip320)" d="M2246.11 1767.34 Q2242.5 1767.34 2240.67 1770.9 Q2238.86 1774.45 2238.86 1781.58 Q2238.86 1788.68 2240.67 1792.25 Q2242.5 1795.79 2246.11 1795.79 Q2249.74 1795.79 2251.55 1792.25 Q2253.38 1788.68 2253.38 1781.58 Q2253.38 1774.45 2251.55 1770.9 Q2249.74 1767.34 2246.11 1767.34 M2246.11 1763.64 Q2251.92 1763.64 2254.98 1768.24 Q2258.05 1772.83 2258.05 1781.58 Q2258.05 1790.3 2254.98 1794.91 Q2251.92 1799.49 2246.11 1799.49 Q2240.3 1799.49 2237.22 1794.91 Q2234.17 1790.3 2234.17 1781.58 Q2234.17 1772.83 2237.22 1768.24 Q2240.3 1763.64 2246.11 1763.64 Z" fill="#000000" fill-rule="nonzero" fill-opacity="1" /><path clip-path="url(#clip320)" d="M1394.53 1841.06 L1394.53 1878.02 L1402.29 1878.02 Q1412.13 1878.02 1416.68 1873.56 Q1421.26 1869.11 1421.26 1859.49 Q1421.26 1849.94 1416.68 1845.52 Q1412.13 1841.06 1402.29 1841.06 L1394.53 1841.06 M1388.1 1835.78 L1401.31 1835.78 Q1415.12 1835.78 1421.58 1841.54 Q1428.04 1847.27 1428.04 1859.49 Q1428.04 1871.78 1421.55 1877.54 Q1415.06 1883.3 1401.31 1883.3 L1388.1 1883.3 L1388.1 1835.78 Z" fill="#000000" fill-rule="nonzero" fill-opacity="1" /><path clip-path="url(#clip320)" d="M1454.24 1865.38 Q1447.14 1865.38 1444.4 1867 Q1441.67 1868.63 1441.67 1872.54 Q1441.67 1875.66 1443.7 1877.51 Q1445.77 1879.32 1449.3 1879.32 Q1454.17 1879.32 1457.1 1875.88 Q1460.06 1872.42 1460.06 1866.69 L1460.06 1865.38 L1454.24 1865.38 M1465.92 1862.96 L1465.92 1883.3 L1460.06 1883.3 L1460.06 1877.89 Q1458.06 1881.14 1455.07 1882.7 Q1452.07 1884.22 1447.75 1884.22 Q1442.27 1884.22 1439.02 1881.17 Q1435.81 1878.08 1435.81 1872.92 Q1435.81 1866.91 1439.82 1863.85 Q1443.86 1860.8 1451.85 1860.8 L1460.06 1860.8 L1460.06 1860.23 Q1460.06 1856.18 1457.39 1853.99 Q1454.75 1851.76 1449.94 1851.76 Q1446.89 1851.76 1443.99 1852.49 Q1441.09 1853.22 1438.42 1854.69 L1438.42 1849.28 Q1441.63 1848.03 1444.66 1847.43 Q1447.68 1846.79 1450.55 1846.79 Q1458.28 1846.79 1462.1 1850.8 Q1465.92 1854.81 1465.92 1862.96 Z" fill="#000000" fill-rule="nonzero" fill-opacity="1" /><path clip-path="url(#clip320)" d="M1492.81 1886.61 Q1490.33 1892.98 1487.98 1894.92 Q1485.62 1896.86 1481.67 1896.86 L1477 1896.86 L1477 1891.96 L1480.43 1891.96 Q1482.85 1891.96 1484.19 1890.81 Q1485.53 1889.67 1487.15 1885.4 L1488.2 1882.73 L1473.78 1847.65 L1479.99 1847.65 L1491.13 1875.53 L1502.27 1847.65 L1508.47 1847.65 L1492.81 1886.61 Z" fill="#000000" fill-rule="nonzero" fill-opacity="1" /><polyline clip-path="url(#clip320)" style="stroke:#000000; stroke-linecap:round; stroke-linejoin:round; stroke-width:4; stroke-opacity:1; fill:none" points="255.816,1734.12 255.816,127.792 "/>
<polyline clip-path="url(#clip320)" style="stroke:#000000; stroke-linecap:round; stroke-linejoin:round; stroke-width:4; stroke-opacity:1; fill:none" points="255.816,1734.12 274.714,1734.12 "/>
<polyline clip-path="url(#clip320)" style="stroke:#000000; stroke-linecap:round; stroke-linejoin:round; stroke-width:4; stroke-opacity:1; fill:none" points="255.816,1369.04 274.714,1369.04 "/>
<polyline clip-path="url(#clip320)" style="stroke:#000000; stroke-linecap:round; stroke-linejoin:round; stroke-width:4; stroke-opacity:1; fill:none" points="255.816,1003.97 274.714,1003.97 "/>
<polyline clip-path="url(#clip320)" style="stroke:#000000; stroke-linecap:round; stroke-linejoin:round; stroke-width:4; stroke-opacity:1; fill:none" points="255.816,638.895 274.714,638.895 "/>
<polyline clip-path="url(#clip320)" style="stroke:#000000; stroke-linecap:round; stroke-linejoin:round; stroke-width:4; stroke-opacity:1; fill:none" points="255.816,273.822 274.714,273.822 "/>
<path clip-path="url(#clip320)" d="M128.159 1719.92 Q124.548 1719.92 122.719 1723.48 Q120.913 1727.02 120.913 1734.15 Q120.913 1741.26 122.719 1744.82 Q124.548 1748.36 128.159 1748.36 Q131.793 1748.36 133.599 1744.82 Q135.427 1741.26 135.427 1734.15 Q135.427 1727.02 133.599 1723.48 Q131.793 1719.92 128.159 1719.92 M128.159 1716.21 Q133.969 1716.21 137.025 1720.82 Q140.103 1725.4 140.103 1734.15 Q140.103 1742.88 137.025 1747.48 Q133.969 1752.07 128.159 1752.07 Q122.349 1752.07 119.27 1747.48 Q116.214 1742.88 116.214 1734.15 Q116.214 1725.4 119.27 1720.82 Q122.349 1716.21 128.159 1716.21 Z" fill="#000000" fill-rule="nonzero" fill-opacity="1" /><path clip-path="url(#clip320)" d="M148.321 1745.52 L153.205 1745.52 L153.205 1751.4 L148.321 1751.4 L148.321 1745.52 Z" fill="#000000" fill-rule="nonzero" fill-opacity="1" /><path clip-path="url(#clip320)" d="M173.39 1719.92 Q169.779 1719.92 167.95 1723.48 Q166.145 1727.02 166.145 1734.15 Q166.145 1741.26 167.95 1744.82 Q169.779 1748.36 173.39 1748.36 Q177.024 1748.36 178.83 1744.82 Q180.659 1741.26 180.659 1734.15 Q180.659 1727.02 178.83 1723.48 Q177.024 1719.92 173.39 1719.92 M173.39 1716.21 Q179.2 1716.21 182.256 1720.82 Q185.334 1725.4 185.334 1734.15 Q185.334 1742.88 182.256 1747.48 Q179.2 1752.07 173.39 1752.07 Q167.58 1752.07 164.501 1747.48 Q161.446 1742.88 161.446 1734.15 Q161.446 1725.4 164.501 1720.82 Q167.58 1716.21 173.39 1716.21 Z" fill="#000000" fill-rule="nonzero" fill-opacity="1" /><path clip-path="url(#clip320)" d="M203.552 1719.92 Q199.941 1719.92 198.112 1723.48 Q196.307 1727.02 196.307 1734.15 Q196.307 1741.26 198.112 1744.82 Q199.941 1748.36 203.552 1748.36 Q207.186 1748.36 208.992 1744.82 Q210.82 1741.26 210.82 1734.15 Q210.82 1727.02 208.992 1723.48 Q207.186 1719.92 203.552 1719.92 M203.552 1716.21 Q209.362 1716.21 212.418 1720.82 Q215.496 1725.4 215.496 1734.15 Q215.496 1742.88 212.418 1747.48 Q209.362 1752.07 203.552 1752.07 Q197.742 1752.07 194.663 1747.48 Q191.608 1742.88 191.608 1734.15 Q191.608 1725.4 194.663 1720.82 Q197.742 1716.21 203.552 1716.21 Z" fill="#000000" fill-rule="nonzero" fill-opacity="1" /><path clip-path="url(#clip320)" d="M129.154 1354.84 Q125.543 1354.84 123.714 1358.41 Q121.909 1361.95 121.909 1369.08 Q121.909 1376.18 123.714 1379.75 Q125.543 1383.29 129.154 1383.29 Q132.788 1383.29 134.594 1379.75 Q136.423 1376.18 136.423 1369.08 Q136.423 1361.95 134.594 1358.41 Q132.788 1354.84 129.154 1354.84 M129.154 1351.14 Q134.964 1351.14 138.02 1355.74 Q141.099 1360.33 141.099 1369.08 Q141.099 1377.8 138.02 1382.41 Q134.964 1386.99 129.154 1386.99 Q123.344 1386.99 120.265 1382.41 Q117.21 1377.8 117.21 1369.08 Q117.21 1360.33 120.265 1355.74 Q123.344 1351.14 129.154 1351.14 Z" fill="#000000" fill-rule="nonzero" fill-opacity="1" /><path clip-path="url(#clip320)" d="M149.316 1380.44 L154.2 1380.44 L154.2 1386.32 L149.316 1386.32 L149.316 1380.44 Z" fill="#000000" fill-rule="nonzero" fill-opacity="1" /><path clip-path="url(#clip320)" d="M168.413 1382.39 L184.733 1382.39 L184.733 1386.32 L162.788 1386.32 L162.788 1382.39 Q165.45 1379.63 170.034 1375 Q174.64 1370.35 175.821 1369.01 Q178.066 1366.49 178.946 1364.75 Q179.848 1362.99 179.848 1361.3 Q179.848 1358.55 177.904 1356.81 Q175.983 1355.07 172.881 1355.07 Q170.682 1355.07 168.228 1355.84 Q165.798 1356.6 163.02 1358.15 L163.02 1353.43 Q165.844 1352.3 168.297 1351.72 Q170.751 1351.14 172.788 1351.14 Q178.159 1351.14 181.353 1353.82 Q184.547 1356.51 184.547 1361 Q184.547 1363.13 183.737 1365.05 Q182.95 1366.95 180.844 1369.54 Q180.265 1370.21 177.163 1373.43 Q174.061 1376.62 168.413 1382.39 Z" fill="#000000" fill-rule="nonzero" fill-opacity="1" /><path clip-path="url(#clip320)" d="M194.594 1351.76 L212.95 1351.76 L212.95 1355.7 L198.876 1355.7 L198.876 1364.17 Q199.895 1363.82 200.913 1363.66 Q201.932 1363.48 202.95 1363.48 Q208.737 1363.48 212.117 1366.65 Q215.496 1369.82 215.496 1375.24 Q215.496 1380.81 212.024 1383.92 Q208.552 1386.99 202.233 1386.99 Q200.057 1386.99 197.788 1386.62 Q195.543 1386.25 193.135 1385.51 L193.135 1380.81 Q195.219 1381.95 197.441 1382.5 Q199.663 1383.06 202.14 1383.06 Q206.145 1383.06 208.482 1380.95 Q210.82 1378.85 210.82 1375.24 Q210.82 1371.62 208.482 1369.52 Q206.145 1367.41 202.14 1367.41 Q200.265 1367.41 198.39 1367.83 Q196.538 1368.24 194.594 1369.12 L194.594 1351.76 Z" fill="#000000" fill-rule="nonzero" fill-opacity="1" /><path clip-path="url(#clip320)" d="M128.159 989.768 Q124.548 989.768 122.719 993.333 Q120.913 996.874 120.913 1004 Q120.913 1011.11 122.719 1014.68 Q124.548 1018.22 128.159 1018.22 Q131.793 1018.22 133.599 1014.68 Q135.427 1011.11 135.427 1004 Q135.427 996.874 133.599 993.333 Q131.793 989.768 128.159 989.768 M128.159 986.064 Q133.969 986.064 137.025 990.671 Q140.103 995.254 140.103 1004 Q140.103 1012.73 137.025 1017.34 Q133.969 1021.92 128.159 1021.92 Q122.349 1021.92 119.27 1017.34 Q116.214 1012.73 116.214 1004 Q116.214 995.254 119.27 990.671 Q122.349 986.064 128.159 986.064 Z" fill="#000000" fill-rule="nonzero" fill-opacity="1" /><path clip-path="url(#clip320)" d="M148.321 1015.37 L153.205 1015.37 L153.205 1021.25 L148.321 1021.25 L148.321 1015.37 Z" fill="#000000" fill-rule="nonzero" fill-opacity="1" /><path clip-path="url(#clip320)" d="M163.436 986.689 L181.793 986.689 L181.793 990.624 L167.719 990.624 L167.719 999.097 Q168.737 998.749 169.756 998.587 Q170.774 998.402 171.793 998.402 Q177.58 998.402 180.959 1001.57 Q184.339 1004.74 184.339 1010.16 Q184.339 1015.74 180.867 1018.84 Q177.395 1021.92 171.075 1021.92 Q168.899 1021.92 166.631 1021.55 Q164.385 1021.18 161.978 1020.44 L161.978 1015.74 Q164.061 1016.87 166.284 1017.43 Q168.506 1017.99 170.983 1017.99 Q174.987 1017.99 177.325 1015.88 Q179.663 1013.77 179.663 1010.16 Q179.663 1006.55 177.325 1004.44 Q174.987 1002.34 170.983 1002.34 Q169.108 1002.34 167.233 1002.75 Q165.381 1003.17 163.436 1004.05 L163.436 986.689 Z" fill="#000000" fill-rule="nonzero" fill-opacity="1" /><path clip-path="url(#clip320)" d="M203.552 989.768 Q199.941 989.768 198.112 993.333 Q196.307 996.874 196.307 1004 Q196.307 1011.11 198.112 1014.68 Q199.941 1018.22 203.552 1018.22 Q207.186 1018.22 208.992 1014.68 Q210.82 1011.11 210.82 1004 Q210.82 996.874 208.992 993.333 Q207.186 989.768 203.552 989.768 M203.552 986.064 Q209.362 986.064 212.418 990.671 Q215.496 995.254 215.496 1004 Q215.496 1012.73 212.418 1017.34 Q209.362 1021.92 203.552 1021.92 Q197.742 1021.92 194.663 1017.34 Q191.608 1012.73 191.608 1004 Q191.608 995.254 194.663 990.671 Q197.742 986.064 203.552 986.064 Z" fill="#000000" fill-rule="nonzero" fill-opacity="1" /><path clip-path="url(#clip320)" d="M129.154 624.694 Q125.543 624.694 123.714 628.259 Q121.909 631.801 121.909 638.93 Q121.909 646.037 123.714 649.601 Q125.543 653.143 129.154 653.143 Q132.788 653.143 134.594 649.601 Q136.423 646.037 136.423 638.93 Q136.423 631.801 134.594 628.259 Q132.788 624.694 129.154 624.694 M129.154 620.99 Q134.964 620.99 138.02 625.597 Q141.099 630.18 141.099 638.93 Q141.099 647.657 138.02 652.263 Q134.964 656.847 129.154 656.847 Q123.344 656.847 120.265 652.263 Q117.21 647.657 117.21 638.93 Q117.21 630.18 120.265 625.597 Q123.344 620.99 129.154 620.99 Z" fill="#000000" fill-rule="nonzero" fill-opacity="1" /><path clip-path="url(#clip320)" d="M149.316 650.296 L154.2 650.296 L154.2 656.175 L149.316 656.175 L149.316 650.296 Z" fill="#000000" fill-rule="nonzero" fill-opacity="1" /><path clip-path="url(#clip320)" d="M163.205 621.615 L185.427 621.615 L185.427 623.606 L172.881 656.175 L167.997 656.175 L179.802 625.551 L163.205 625.551 L163.205 621.615 Z" fill="#000000" fill-rule="nonzero" fill-opacity="1" /><path clip-path="url(#clip320)" d="M194.594 621.615 L212.95 621.615 L212.95 625.551 L198.876 625.551 L198.876 634.023 Q199.895 633.676 200.913 633.514 Q201.932 633.328 202.95 633.328 Q208.737 633.328 212.117 636.5 Q215.496 639.671 215.496 645.088 Q215.496 650.666 212.024 653.768 Q208.552 656.847 202.233 656.847 Q200.057 656.847 197.788 656.476 Q195.543 656.106 193.135 655.365 L193.135 650.666 Q195.219 651.801 197.441 652.356 Q199.663 652.912 202.14 652.912 Q206.145 652.912 208.482 650.805 Q210.82 648.699 210.82 645.088 Q210.82 641.476 208.482 639.37 Q206.145 637.264 202.14 637.264 Q200.265 637.264 198.39 637.68 Q196.538 638.097 194.594 638.977 L194.594 621.615 Z" fill="#000000" fill-rule="nonzero" fill-opacity="1" /><path clip-path="url(#clip320)" d="M118.969 287.166 L126.608 287.166 L126.608 260.801 L118.298 262.468 L118.298 258.208 L126.562 256.542 L131.238 256.542 L131.238 287.166 L138.876 287.166 L138.876 291.102 L118.969 291.102 L118.969 287.166 Z" fill="#000000" fill-rule="nonzero" fill-opacity="1" /><path clip-path="url(#clip320)" d="M148.321 285.222 L153.205 285.222 L153.205 291.102 L148.321 291.102 L148.321 285.222 Z" fill="#000000" fill-rule="nonzero" fill-opacity="1" /><path clip-path="url(#clip320)" d="M173.39 259.62 Q169.779 259.62 167.95 263.185 Q166.145 266.727 166.145 273.856 Q166.145 280.963 167.95 284.528 Q169.779 288.069 173.39 288.069 Q177.024 288.069 178.83 284.528 Q180.659 280.963 180.659 273.856 Q180.659 266.727 178.83 263.185 Q177.024 259.62 173.39 259.62 M173.39 255.917 Q179.2 255.917 182.256 260.523 Q185.334 265.106 185.334 273.856 Q185.334 282.583 182.256 287.19 Q179.2 291.773 173.39 291.773 Q167.58 291.773 164.501 287.19 Q161.446 282.583 161.446 273.856 Q161.446 265.106 164.501 260.523 Q167.58 255.917 173.39 255.917 Z" fill="#000000" fill-rule="nonzero" fill-opacity="1" /><path clip-path="url(#clip320)" d="M203.552 259.62 Q199.941 259.62 198.112 263.185 Q196.307 266.727 196.307 273.856 Q196.307 280.963 198.112 284.528 Q199.941 288.069 203.552 288.069 Q207.186 288.069 208.992 284.528 Q210.82 280.963 210.82 273.856 Q210.82 266.727 208.992 263.185 Q207.186 259.62 203.552 259.62 M203.552 255.917 Q209.362 255.917 212.418 260.523 Q215.496 265.106 215.496 273.856 Q215.496 282.583 212.418 287.19 Q209.362 291.773 203.552 291.773 Q197.742 291.773 194.663 287.19 Q191.608 282.583 191.608 273.856 Q191.608 265.106 194.663 260.523 Q197.742 255.917 203.552 255.917 Z" fill="#000000" fill-rule="nonzero" fill-opacity="1" /><path clip-path="url(#clip320)" d="M39.3585 1124.85 Q40.0587 1122.79 42.3504 1120.84 Q44.642 1118.87 48.6524 1116.9 L61.6384 1110.37 L61.6384 1117.28 L49.4481 1123.36 Q44.6738 1125.71 43.1142 1127.94 Q41.5546 1130.14 41.5546 1133.96 L41.5546 1140.96 L61.6384 1140.96 L61.6384 1147.39 L14.1184 1147.39 L14.1184 1132.87 Q14.1184 1124.73 17.5241 1120.72 Q20.9297 1116.71 27.8047 1116.71 Q32.2925 1116.71 35.2526 1118.81 Q38.2126 1120.88 39.3585 1124.85 M19.402 1140.96 L36.2711 1140.96 L36.2711 1132.87 Q36.2711 1128.23 34.1386 1125.87 Q31.9743 1123.49 27.8047 1123.49 Q23.6352 1123.49 21.5345 1125.87 Q19.402 1128.23 19.402 1132.87 L19.402 1140.96 Z" fill="#000000" fill-rule="nonzero" fill-opacity="1" /><path clip-path="url(#clip320)" d="M43.719 1087.58 Q43.719 1094.68 45.3422 1097.42 Q46.9655 1100.16 50.8804 1100.16 Q53.9996 1100.16 55.8457 1098.12 Q57.6599 1096.05 57.6599 1092.52 Q57.6599 1087.65 54.2224 1084.72 Q50.7531 1081.76 45.0239 1081.76 L43.719 1081.76 L43.719 1087.58 M41.3 1075.9 L61.6384 1075.9 L61.6384 1081.76 L56.2276 1081.76 Q59.4741 1083.76 61.0337 1086.76 Q62.5615 1089.75 62.5615 1094.08 Q62.5615 1099.55 59.5059 1102.8 Q56.4186 1106.01 51.2623 1106.01 Q45.2467 1106.01 42.1912 1102 Q39.1357 1097.96 39.1357 1089.97 L39.1357 1081.76 L38.5628 1081.76 Q34.5205 1081.76 32.3244 1084.43 Q30.0964 1087.07 30.0964 1091.88 Q30.0964 1094.94 30.8284 1097.83 Q31.5605 1100.73 33.0246 1103.4 L27.6137 1103.4 Q26.3724 1100.19 25.7677 1097.16 Q25.1311 1094.14 25.1311 1091.27 Q25.1311 1083.54 29.1415 1079.72 Q33.1519 1075.9 41.3 1075.9 Z" fill="#000000" fill-rule="nonzero" fill-opacity="1" /><path clip-path="url(#clip320)" d="M25.9905 1063.84 L25.9905 1057.98 L61.6384 1057.98 L61.6384 1063.84 L25.9905 1063.84 M12.1132 1063.84 L12.1132 1057.98 L19.5293 1057.98 L19.5293 1063.84 L12.1132 1063.84 Z" fill="#000000" fill-rule="nonzero" fill-opacity="1" /><path clip-path="url(#clip320)" d="M40.1224 1016.1 L61.6384 1016.1 L61.6384 1021.95 L40.3133 1021.95 Q35.2526 1021.95 32.7381 1023.93 Q30.2237 1025.9 30.2237 1029.85 Q30.2237 1034.59 33.2474 1037.33 Q36.2711 1040.06 41.491 1040.06 L61.6384 1040.06 L61.6384 1045.95 L25.9905 1045.95 L25.9905 1040.06 L31.5287 1040.06 Q28.314 1037.96 26.7225 1035.13 Q25.1311 1032.26 25.1311 1028.54 Q25.1311 1022.4 28.9505 1019.25 Q32.7381 1016.1 40.1224 1016.1 Z" fill="#000000" fill-rule="nonzero" fill-opacity="1" /><path clip-path="url(#clip320)" d="M12.1132 986.368 L16.983 986.368 L16.983 991.97 Q16.983 995.121 18.2562 996.362 Q19.5293 997.572 22.8395 997.572 L25.9905 997.572 L25.9905 987.928 L30.542 987.928 L30.542 997.572 L61.6384 997.572 L61.6384 1003.46 L30.542 1003.46 L30.542 1009.06 L25.9905 1009.06 L25.9905 1003.46 L23.5079 1003.46 Q17.5559 1003.46 14.8505 1000.69 Q12.1132 997.922 12.1132 991.906 L12.1132 986.368 Z" fill="#000000" fill-rule="nonzero" fill-opacity="1" /><path clip-path="url(#clip320)" d="M43.719 965.266 Q43.719 972.363 45.3422 975.101 Q46.9655 977.838 50.8804 977.838 Q53.9996 977.838 55.8457 975.801 Q57.6599 973.732 57.6599 970.199 Q57.6599 965.329 54.2224 962.401 Q50.7531 959.441 45.0239 959.441 L43.719 959.441 L43.719 965.266 M41.3 953.585 L61.6384 953.585 L61.6384 959.441 L56.2276 959.441 Q59.4741 961.446 61.0337 964.438 Q62.5615 967.43 62.5615 971.759 Q62.5615 977.233 59.5059 980.48 Q56.4186 983.694 51.2623 983.694 Q45.2467 983.694 42.1912 979.684 Q39.1357 975.642 39.1357 967.653 L39.1357 959.441 L38.5628 959.441 Q34.5205 959.441 32.3244 962.115 Q30.0964 964.756 30.0964 969.563 Q30.0964 972.618 30.8284 975.515 Q31.5605 978.411 33.0246 981.084 L27.6137 981.084 Q26.3724 977.87 25.7677 974.846 Q25.1311 971.822 25.1311 968.958 Q25.1311 961.223 29.1415 957.404 Q33.1519 953.585 41.3 953.585 Z" fill="#000000" fill-rule="nonzero" fill-opacity="1" /><path clip-path="url(#clip320)" d="M12.1132 941.522 L12.1132 935.665 L61.6384 935.665 L61.6384 941.522 L12.1132 941.522 Z" fill="#000000" fill-rule="nonzero" fill-opacity="1" /><path clip-path="url(#clip320)" d="M12.1132 923.411 L12.1132 917.555 L61.6384 917.555 L61.6384 923.411 L12.1132 923.411 Z" fill="#000000" fill-rule="nonzero" fill-opacity="1" /><path clip-path="url(#clip320)" d="M25.9905 884.58 L25.9905 878.724 L61.6384 878.724 L61.6384 884.58 L25.9905 884.58 M12.1132 884.58 L12.1132 878.724 L19.5293 878.724 L19.5293 884.58 L12.1132 884.58 Z" fill="#000000" fill-rule="nonzero" fill-opacity="1" /><path clip-path="url(#clip320)" d="M40.1224 836.838 L61.6384 836.838 L61.6384 842.694 L40.3133 842.694 Q35.2526 842.694 32.7381 844.667 Q30.2237 846.641 30.2237 850.588 Q30.2237 855.33 33.2474 858.067 Q36.2711 860.804 41.491 860.804 L61.6384 860.804 L61.6384 866.693 L25.9905 866.693 L25.9905 860.804 L31.5287 860.804 Q28.314 858.704 26.7225 855.871 Q25.1311 853.006 25.1311 849.283 Q25.1311 843.14 28.9505 839.989 Q32.7381 836.838 40.1224 836.838 Z" fill="#000000" fill-rule="nonzero" fill-opacity="1" /><path clip-path="url(#clip320)" d="M31.4013 801.699 L12.1132 801.699 L12.1132 795.842 L61.6384 795.842 L61.6384 801.699 L56.2912 801.699 Q59.4741 803.545 61.0337 806.378 Q62.5615 809.179 62.5615 813.125 Q62.5615 819.587 57.4052 823.661 Q52.249 827.703 43.8463 827.703 Q35.4436 827.703 30.2873 823.661 Q25.1311 819.587 25.1311 813.125 Q25.1311 809.179 26.6907 806.378 Q28.2185 803.545 31.4013 801.699 M43.8463 821.655 Q50.3075 821.655 53.9996 819.014 Q57.6599 816.34 57.6599 811.693 Q57.6599 807.046 53.9996 804.372 Q50.3075 801.699 43.8463 801.699 Q37.3851 801.699 33.7248 804.372 Q30.0327 807.046 30.0327 811.693 Q30.0327 816.34 33.7248 819.014 Q37.3851 821.655 43.8463 821.655 Z" fill="#000000" fill-rule="nonzero" fill-opacity="1" /><path clip-path="url(#clip320)" d="M42.3504 753.288 L45.2149 753.288 L45.2149 780.215 Q51.2623 779.833 54.4452 776.586 Q57.5962 773.308 57.5962 767.483 Q57.5962 764.109 56.7687 760.958 Q55.9411 757.776 54.2861 754.656 L59.8242 754.656 Q61.161 757.807 61.8612 761.118 Q62.5615 764.428 62.5615 767.833 Q62.5615 776.363 57.5962 781.36 Q52.631 786.326 44.1646 786.326 Q35.4117 786.326 30.2873 781.615 Q25.1311 776.873 25.1311 768.852 Q25.1311 761.659 29.7781 757.489 Q34.3932 753.288 42.3504 753.288 M40.6316 759.144 Q35.8255 759.208 32.9609 761.85 Q30.0964 764.459 30.0964 768.788 Q30.0964 773.69 32.8654 776.65 Q35.6345 779.578 40.6634 780.024 L40.6316 759.144 Z" fill="#000000" fill-rule="nonzero" fill-opacity="1" /><path clip-path="url(#clip320)" d="M25.9905 715.189 L43.337 728.079 L61.6384 714.521 L61.6384 721.427 L47.6339 731.803 L61.6384 742.18 L61.6384 749.086 L42.9869 735.241 L25.9905 747.909 L25.9905 741.002 L38.6901 731.549 L25.9905 722.096 L25.9905 715.189 Z" fill="#000000" fill-rule="nonzero" fill-opacity="1" /><path clip-path="url(#clip320)" d="M776.91 14.0809 L776.91 22.0612 Q772.251 19.8332 768.119 18.7395 Q763.987 17.6457 760.139 17.6457 Q753.455 17.6457 749.809 20.2383 Q746.204 22.8309 746.204 27.611 Q746.204 31.6214 748.594 33.6873 Q751.024 35.7128 757.749 36.9686 L762.691 37.9813 Q771.846 39.7232 776.18 44.1387 Q780.555 48.5136 780.555 55.8863 Q780.555 64.6767 774.641 69.2137 Q768.767 73.7508 757.384 73.7508 Q753.09 73.7508 748.229 72.7785 Q743.409 71.8063 738.223 69.9024 L738.223 61.4765 Q743.206 64.2716 747.986 65.6895 Q752.766 67.1073 757.384 67.1073 Q764.392 67.1073 768.2 64.3527 Q772.008 61.598 772.008 56.4939 Q772.008 52.0379 769.253 49.5264 Q766.539 47.0148 760.301 45.759 L755.318 44.7868 Q746.163 42.9639 742.072 39.075 Q737.98 35.1862 737.98 28.2591 Q737.98 20.2383 743.611 15.6203 Q749.282 11.0023 759.207 11.0023 Q763.46 11.0023 767.876 11.7719 Q772.291 12.5416 776.91 14.0809 Z" fill="#000000" fill-rule="nonzero" fill-opacity="1" /><path clip-path="url(#clip320)" d="M831.799 48.0275 L831.799 51.6733 L797.529 51.6733 Q798.015 59.3701 802.147 63.421 Q806.319 67.4314 813.732 67.4314 Q818.026 67.4314 822.037 66.3781 Q826.087 65.3249 830.057 63.2184 L830.057 70.267 Q826.047 71.9684 821.834 72.8596 Q817.621 73.7508 813.287 73.7508 Q802.43 73.7508 796.07 67.4314 Q789.751 61.1119 789.751 50.3365 Q789.751 39.1965 795.746 32.6746 Q801.782 26.1121 811.99 26.1121 Q821.145 26.1121 826.452 32.0264 Q831.799 37.9003 831.799 48.0275 M824.346 45.84 Q824.265 39.7232 820.902 36.0774 Q817.581 32.4315 812.071 32.4315 Q805.833 32.4315 802.066 35.9558 Q798.339 39.4801 797.772 45.8805 L824.346 45.84 Z" fill="#000000" fill-rule="nonzero" fill-opacity="1" /><path clip-path="url(#clip320)" d="M864.652 49.7694 Q855.619 49.7694 852.135 51.8354 Q848.651 53.9013 848.651 58.8839 Q848.651 62.8538 851.244 65.2034 Q853.877 67.5124 858.373 67.5124 Q864.571 67.5124 868.298 63.1374 Q872.065 58.7219 872.065 51.4303 L872.065 49.7694 L864.652 49.7694 M879.519 46.6907 L879.519 72.576 L872.065 72.576 L872.065 65.6895 Q869.513 69.8214 865.705 71.8063 Q861.897 73.7508 856.388 73.7508 Q849.421 73.7508 845.289 69.8619 Q841.197 65.9325 841.197 59.3701 Q841.197 51.7138 846.301 47.825 Q851.446 43.9361 861.614 43.9361 L872.065 43.9361 L872.065 43.2069 Q872.065 38.0623 868.662 35.2672 Q865.3 32.4315 859.183 32.4315 Q855.294 32.4315 851.608 33.3632 Q847.922 34.295 844.519 36.1584 L844.519 29.2718 Q848.611 27.692 852.459 26.9223 Q856.307 26.1121 859.953 26.1121 Q869.797 26.1121 874.658 31.2163 Q879.519 36.3204 879.519 46.6907 Z" fill="#000000" fill-rule="nonzero" fill-opacity="1" /><path clip-path="url(#clip320)" d="M923.795 28.5427 L923.795 35.5912 Q920.636 33.9709 917.233 33.1607 Q913.83 32.3505 910.184 32.3505 Q904.635 32.3505 901.839 34.0519 Q899.085 35.7533 899.085 39.156 Q899.085 41.7486 901.07 43.2475 Q903.055 44.7058 909.05 46.0426 L911.602 46.6097 Q919.542 48.3111 922.864 51.4303 Q926.226 54.509 926.226 60.0587 Q926.226 66.3781 921.203 70.0644 Q916.22 73.7508 907.47 73.7508 Q903.824 73.7508 899.854 73.0216 Q895.925 72.3329 891.55 70.9151 L891.55 63.2184 Q895.682 65.3654 899.692 66.4591 Q903.703 67.5124 907.632 67.5124 Q912.898 67.5124 915.734 65.73 Q918.57 63.9071 918.57 60.6258 Q918.57 57.5877 916.504 55.9673 Q914.478 54.3469 907.551 52.8481 L904.959 52.2405 Q898.032 50.7821 894.953 47.7845 Q891.874 44.7463 891.874 39.4801 Q891.874 33.0797 896.411 29.5959 Q900.948 26.1121 909.293 26.1121 Q913.425 26.1121 917.071 26.7198 Q920.717 27.3274 923.795 28.5427 Z" fill="#000000" fill-rule="nonzero" fill-opacity="1" /><path clip-path="url(#clip320)" d="M955.676 32.4315 Q949.681 32.4315 946.197 37.1306 Q942.713 41.7891 942.713 49.9314 Q942.713 58.0738 946.156 62.7728 Q949.64 67.4314 955.676 67.4314 Q961.631 67.4314 965.115 62.7323 Q968.598 58.0333 968.598 49.9314 Q968.598 41.8701 965.115 37.1711 Q961.631 32.4315 955.676 32.4315 M955.676 26.1121 Q965.398 26.1121 970.948 32.4315 Q976.498 38.7509 976.498 49.9314 Q976.498 61.0714 970.948 67.4314 Q965.398 73.7508 955.676 73.7508 Q945.913 73.7508 940.363 67.4314 Q934.854 61.0714 934.854 49.9314 Q934.854 38.7509 940.363 32.4315 Q945.913 26.1121 955.676 26.1121 Z" fill="#000000" fill-rule="nonzero" fill-opacity="1" /><path clip-path="url(#clip320)" d="M1026.57 45.1919 L1026.57 72.576 L1019.11 72.576 L1019.11 45.4349 Q1019.11 38.994 1016.6 35.7938 Q1014.09 32.5936 1009.07 32.5936 Q1003.03 32.5936 999.547 36.4419 Q996.063 40.2903 996.063 46.9338 L996.063 72.576 L988.569 72.576 L988.569 27.2059 L996.063 27.2059 L996.063 34.2544 Q998.737 30.163 1002.34 28.1376 Q1005.99 26.1121 1010.73 26.1121 Q1018.55 26.1121 1022.56 30.9732 Q1026.57 35.7938 1026.57 45.1919 Z" fill="#000000" fill-rule="nonzero" fill-opacity="1" /><path clip-path="url(#clip320)" d="M1062.05 49.7694 Q1053.02 49.7694 1049.54 51.8354 Q1046.05 53.9013 1046.05 58.8839 Q1046.05 62.8538 1048.64 65.2034 Q1051.28 67.5124 1055.77 67.5124 Q1061.97 67.5124 1065.7 63.1374 Q1069.47 58.7219 1069.47 51.4303 L1069.47 49.7694 L1062.05 49.7694 M1076.92 46.6907 L1076.92 72.576 L1069.47 72.576 L1069.47 65.6895 Q1066.91 69.8214 1063.11 71.8063 Q1059.3 73.7508 1053.79 73.7508 Q1046.82 73.7508 1042.69 69.8619 Q1038.6 65.9325 1038.6 59.3701 Q1038.6 51.7138 1043.7 47.825 Q1048.85 43.9361 1059.01 43.9361 L1069.47 43.9361 L1069.47 43.2069 Q1069.47 38.0623 1066.06 35.2672 Q1062.7 32.4315 1056.58 32.4315 Q1052.7 32.4315 1049.01 33.3632 Q1045.32 34.295 1041.92 36.1584 L1041.92 29.2718 Q1046.01 27.692 1049.86 26.9223 Q1053.71 26.1121 1057.35 26.1121 Q1067.2 26.1121 1072.06 31.2163 Q1076.92 36.3204 1076.92 46.6907 Z" fill="#000000" fill-rule="nonzero" fill-opacity="1" /><path clip-path="url(#clip320)" d="M1092.27 9.54393 L1099.73 9.54393 L1099.73 72.576 L1092.27 72.576 L1092.27 9.54393 Z" fill="#000000" fill-rule="nonzero" fill-opacity="1" /><path clip-path="url(#clip320)" d="M1170.7 44.2197 Q1173.33 45.1109 1175.8 48.0275 Q1178.31 50.9442 1180.83 56.0483 L1189.13 72.576 L1180.34 72.576 L1172.6 57.061 Q1169.6 50.9847 1166.77 48.9997 Q1163.97 47.0148 1159.11 47.0148 L1150.2 47.0148 L1150.2 72.576 L1142.02 72.576 L1142.02 12.096 L1160.49 12.096 Q1170.86 12.096 1175.96 16.4305 Q1181.07 20.7649 1181.07 29.5149 Q1181.07 35.2267 1178.39 38.994 Q1175.76 42.7613 1170.7 44.2197 M1150.2 18.8205 L1150.2 40.2903 L1160.49 40.2903 Q1166.4 40.2903 1169.4 37.5762 Q1172.44 34.8216 1172.44 29.5149 Q1172.44 24.2082 1169.4 21.5346 Q1166.4 18.8205 1160.49 18.8205 L1150.2 18.8205 Z" fill="#000000" fill-rule="nonzero" fill-opacity="1" /><path clip-path="url(#clip320)" d="M1218.13 49.7694 Q1209.1 49.7694 1205.62 51.8354 Q1202.13 53.9013 1202.13 58.8839 Q1202.13 62.8538 1204.73 65.2034 Q1207.36 67.5124 1211.86 67.5124 Q1218.05 67.5124 1221.78 63.1374 Q1225.55 58.7219 1225.55 51.4303 L1225.55 49.7694 L1218.13 49.7694 M1233 46.6907 L1233 72.576 L1225.55 72.576 L1225.55 65.6895 Q1223 69.8214 1219.19 71.8063 Q1215.38 73.7508 1209.87 73.7508 Q1202.9 73.7508 1198.77 69.8619 Q1194.68 65.9325 1194.68 59.3701 Q1194.68 51.7138 1199.78 47.825 Q1204.93 43.9361 1215.1 43.9361 L1225.55 43.9361 L1225.55 43.2069 Q1225.55 38.0623 1222.14 35.2672 Q1218.78 32.4315 1212.67 32.4315 Q1208.78 32.4315 1205.09 33.3632 Q1201.4 34.295 1198 36.1584 L1198 29.2718 Q1202.09 27.692 1205.94 26.9223 Q1209.79 26.1121 1213.43 26.1121 Q1223.28 26.1121 1228.14 31.2163 Q1233 36.3204 1233 46.6907 Z" fill="#000000" fill-rule="nonzero" fill-opacity="1" /><path clip-path="url(#clip320)" d="M1248.35 27.2059 L1255.81 27.2059 L1255.81 72.576 L1248.35 72.576 L1248.35 27.2059 M1248.35 9.54393 L1255.81 9.54393 L1255.81 18.9825 L1248.35 18.9825 L1248.35 9.54393 Z" fill="#000000" fill-rule="nonzero" fill-opacity="1" /><path clip-path="url(#clip320)" d="M1309.12 45.1919 L1309.12 72.576 L1301.66 72.576 L1301.66 45.4349 Q1301.66 38.994 1299.15 35.7938 Q1296.64 32.5936 1291.62 32.5936 Q1285.58 32.5936 1282.1 36.4419 Q1278.61 40.2903 1278.61 46.9338 L1278.61 72.576 L1271.12 72.576 L1271.12 27.2059 L1278.61 27.2059 L1278.61 34.2544 Q1281.29 30.163 1284.89 28.1376 Q1288.54 26.1121 1293.28 26.1121 Q1301.1 26.1121 1305.11 30.9732 Q1309.12 35.7938 1309.12 45.1919 Z" fill="#000000" fill-rule="nonzero" fill-opacity="1" /><path clip-path="url(#clip320)" d="M1346.95 9.54393 L1346.95 15.7418 L1339.82 15.7418 Q1335.81 15.7418 1334.23 17.3622 Q1332.69 18.9825 1332.69 23.1955 L1332.69 27.2059 L1344.97 27.2059 L1344.97 32.9987 L1332.69 32.9987 L1332.69 72.576 L1325.2 72.576 L1325.2 32.9987 L1318.07 32.9987 L1318.07 27.2059 L1325.2 27.2059 L1325.2 24.0462 Q1325.2 16.471 1328.72 13.0277 Q1332.25 9.54393 1339.9 9.54393 L1346.95 9.54393 Z" fill="#000000" fill-rule="nonzero" fill-opacity="1" /><path clip-path="url(#clip320)" d="M1373.81 49.7694 Q1364.78 49.7694 1361.29 51.8354 Q1357.81 53.9013 1357.81 58.8839 Q1357.81 62.8538 1360.4 65.2034 Q1363.03 67.5124 1367.53 67.5124 Q1373.73 67.5124 1377.46 63.1374 Q1381.22 58.7219 1381.22 51.4303 L1381.22 49.7694 L1373.81 49.7694 M1388.68 46.6907 L1388.68 72.576 L1381.22 72.576 L1381.22 65.6895 Q1378.67 69.8214 1374.86 71.8063 Q1371.06 73.7508 1365.55 73.7508 Q1358.58 73.7508 1354.45 69.8619 Q1350.36 65.9325 1350.36 59.3701 Q1350.36 51.7138 1355.46 47.825 Q1360.6 43.9361 1370.77 43.9361 L1381.22 43.9361 L1381.22 43.2069 Q1381.22 38.0623 1377.82 35.2672 Q1374.46 32.4315 1368.34 32.4315 Q1364.45 32.4315 1360.77 33.3632 Q1357.08 34.295 1353.68 36.1584 L1353.68 29.2718 Q1357.77 27.692 1361.62 26.9223 Q1365.47 26.1121 1369.11 26.1121 Q1378.95 26.1121 1383.82 31.2163 Q1388.68 36.3204 1388.68 46.6907 Z" fill="#000000" fill-rule="nonzero" fill-opacity="1" /><path clip-path="url(#clip320)" d="M1404.03 9.54393 L1411.48 9.54393 L1411.48 72.576 L1404.03 72.576 L1404.03 9.54393 Z" fill="#000000" fill-rule="nonzero" fill-opacity="1" /><path clip-path="url(#clip320)" d="M1427.08 9.54393 L1434.53 9.54393 L1434.53 72.576 L1427.08 72.576 L1427.08 9.54393 Z" fill="#000000" fill-rule="nonzero" fill-opacity="1" /><path clip-path="url(#clip320)" d="M1485.01 18.8205 L1485.01 41.5461 L1495.3 41.5461 Q1501.01 41.5461 1504.13 38.5889 Q1507.25 35.6318 1507.25 30.163 Q1507.25 24.7348 1504.13 21.7777 Q1501.01 18.8205 1495.3 18.8205 L1485.01 18.8205 M1476.82 12.096 L1495.3 12.096 Q1505.46 12.096 1510.65 16.714 Q1515.88 21.2916 1515.88 30.163 Q1515.88 39.1155 1510.65 43.6931 Q1505.46 48.2706 1495.3 48.2706 L1485.01 48.2706 L1485.01 72.576 L1476.82 72.576 L1476.82 12.096 Z" fill="#000000" fill-rule="nonzero" fill-opacity="1" /><path clip-path="url(#clip320)" d="M1543.42 49.7694 Q1534.39 49.7694 1530.9 51.8354 Q1527.42 53.9013 1527.42 58.8839 Q1527.42 62.8538 1530.01 65.2034 Q1532.65 67.5124 1537.14 67.5124 Q1543.34 67.5124 1547.07 63.1374 Q1550.83 58.7219 1550.83 51.4303 L1550.83 49.7694 L1543.42 49.7694 M1558.29 46.6907 L1558.29 72.576 L1550.83 72.576 L1550.83 65.6895 Q1548.28 69.8214 1544.47 71.8063 Q1540.67 73.7508 1535.16 73.7508 Q1528.19 73.7508 1524.06 69.8619 Q1519.97 65.9325 1519.97 59.3701 Q1519.97 51.7138 1525.07 47.825 Q1530.22 43.9361 1540.38 43.9361 L1550.83 43.9361 L1550.83 43.2069 Q1550.83 38.0623 1547.43 35.2672 Q1544.07 32.4315 1537.95 32.4315 Q1534.06 32.4315 1530.38 33.3632 Q1526.69 34.295 1523.29 36.1584 L1523.29 29.2718 Q1527.38 27.692 1531.23 26.9223 Q1535.08 26.1121 1538.72 26.1121 Q1548.57 26.1121 1553.43 31.2163 Q1558.29 36.3204 1558.29 46.6907 Z" fill="#000000" fill-rule="nonzero" fill-opacity="1" /><path clip-path="url(#clip320)" d="M1581.01 14.324 L1581.01 27.2059 L1596.37 27.2059 L1596.37 32.9987 L1581.01 32.9987 L1581.01 57.6282 Q1581.01 63.1779 1582.51 64.7578 Q1584.05 66.3376 1588.71 66.3376 L1596.37 66.3376 L1596.37 72.576 L1588.71 72.576 Q1580.08 72.576 1576.8 69.3758 Q1573.52 66.1351 1573.52 57.6282 L1573.52 32.9987 L1568.05 32.9987 L1568.05 27.2059 L1573.52 27.2059 L1573.52 14.324 L1581.01 14.324 Z" fill="#000000" fill-rule="nonzero" fill-opacity="1" /><path clip-path="url(#clip320)" d="M1613.54 14.324 L1613.54 27.2059 L1628.9 27.2059 L1628.9 32.9987 L1613.54 32.9987 L1613.54 57.6282 Q1613.54 63.1779 1615.04 64.7578 Q1616.58 66.3376 1621.24 66.3376 L1628.9 66.3376 L1628.9 72.576 L1621.24 72.576 Q1612.61 72.576 1609.33 69.3758 Q1606.05 66.1351 1606.05 57.6282 L1606.05 32.9987 L1600.58 32.9987 L1600.58 27.2059 L1606.05 27.2059 L1606.05 14.324 L1613.54 14.324 Z" fill="#000000" fill-rule="nonzero" fill-opacity="1" /><path clip-path="url(#clip320)" d="M1677.51 48.0275 L1677.51 51.6733 L1643.24 51.6733 Q1643.72 59.3701 1647.85 63.421 Q1652.03 67.4314 1659.44 67.4314 Q1663.73 67.4314 1667.74 66.3781 Q1671.79 65.3249 1675.76 63.2184 L1675.76 70.267 Q1671.75 71.9684 1667.54 72.8596 Q1663.33 73.7508 1658.99 73.7508 Q1648.14 73.7508 1641.78 67.4314 Q1635.46 61.1119 1635.46 50.3365 Q1635.46 39.1965 1641.45 32.6746 Q1647.49 26.1121 1657.7 26.1121 Q1666.85 26.1121 1672.16 32.0264 Q1677.51 37.9003 1677.51 48.0275 M1670.05 45.84 Q1669.97 39.7232 1666.61 36.0774 Q1663.29 32.4315 1657.78 32.4315 Q1651.54 32.4315 1647.77 35.9558 Q1644.05 39.4801 1643.48 45.8805 L1670.05 45.84 Z" fill="#000000" fill-rule="nonzero" fill-opacity="1" /><path clip-path="url(#clip320)" d="M1716.03 34.1734 Q1714.77 33.4443 1713.28 33.1202 Q1711.82 32.7556 1710.04 32.7556 Q1703.72 32.7556 1700.31 36.8875 Q1696.95 40.9789 1696.95 48.6757 L1696.95 72.576 L1689.46 72.576 L1689.46 27.2059 L1696.95 27.2059 L1696.95 34.2544 Q1699.3 30.1225 1703.07 28.1376 Q1706.84 26.1121 1712.22 26.1121 Q1712.99 26.1121 1713.92 26.2337 Q1714.86 26.3147 1715.99 26.5172 L1716.03 34.1734 Z" fill="#000000" fill-rule="nonzero" fill-opacity="1" /><path clip-path="url(#clip320)" d="M1760.1 45.1919 L1760.1 72.576 L1752.65 72.576 L1752.65 45.4349 Q1752.65 38.994 1750.14 35.7938 Q1747.63 32.5936 1742.6 32.5936 Q1736.57 32.5936 1733.08 36.4419 Q1729.6 40.2903 1729.6 46.9338 L1729.6 72.576 L1722.11 72.576 L1722.11 27.2059 L1729.6 27.2059 L1729.6 34.2544 Q1732.27 30.163 1735.88 28.1376 Q1739.53 26.1121 1744.27 26.1121 Q1752.08 26.1121 1756.09 30.9732 Q1760.1 35.7938 1760.1 45.1919 Z" fill="#000000" fill-rule="nonzero" fill-opacity="1" /><path clip-path="url(#clip320)" d="M1819.25 9.62495 Q1813.82 18.942 1811.19 28.0566 Q1808.55 37.1711 1808.55 46.5287 Q1808.55 55.8863 1811.19 65.0818 Q1813.86 74.2369 1819.25 83.5134 L1812.77 83.5134 Q1806.69 73.9938 1803.65 64.7983 Q1800.65 55.6027 1800.65 46.5287 Q1800.65 37.4952 1803.65 28.3401 Q1806.65 19.1851 1812.77 9.62495 L1819.25 9.62495 Z" fill="#000000" fill-rule="nonzero" fill-opacity="1" /><path clip-path="url(#clip320)" d="M1841.81 65.6895 L1870.37 65.6895 L1870.37 72.576 L1831.97 72.576 L1831.97 65.6895 Q1836.63 60.8689 1844.65 52.7671 Q1852.71 44.6248 1854.77 42.2752 Q1858.7 37.8598 1860.24 34.8216 Q1861.82 31.7429 1861.82 28.7857 Q1861.82 23.9651 1858.42 20.927 Q1855.06 17.8888 1849.63 17.8888 Q1845.78 17.8888 1841.49 19.2256 Q1837.23 20.5624 1832.37 23.2765 L1832.37 15.0127 Q1837.31 13.0277 1841.61 12.015 Q1845.9 11.0023 1849.47 11.0023 Q1858.87 11.0023 1864.46 15.7013 Q1870.05 20.4004 1870.05 28.2591 Q1870.05 31.9859 1868.63 35.3482 Q1867.25 38.6699 1863.56 43.2069 Q1862.55 44.3817 1857.12 50.0125 Q1851.7 55.6027 1841.81 65.6895 Z" fill="#000000" fill-rule="nonzero" fill-opacity="1" /><path clip-path="url(#clip320)" d="M1931.74 76.7889 Q1928.58 84.8907 1925.58 87.3618 Q1922.59 89.8329 1917.56 89.8329 L1911.61 89.8329 L1911.61 83.5945 L1915.98 83.5945 Q1919.06 83.5945 1920.76 82.1361 Q1922.46 80.6778 1924.53 75.2496 L1925.87 71.8468 L1907.52 27.2059 L1915.42 27.2059 L1929.59 62.6918 L1943.77 27.2059 L1951.67 27.2059 L1931.74 76.7889 Z" fill="#000000" fill-rule="nonzero" fill-opacity="1" /><path clip-path="url(#clip320)" d="M2000.77 48.0275 L2000.77 51.6733 L1966.5 51.6733 Q1966.98 59.3701 1971.12 63.421 Q1975.29 67.4314 1982.7 67.4314 Q1987 67.4314 1991.01 66.3781 Q1995.06 65.3249 1999.03 63.2184 L1999.03 70.267 Q1995.02 71.9684 1990.8 72.8596 Q1986.59 73.7508 1982.26 73.7508 Q1971.4 73.7508 1965.04 67.4314 Q1958.72 61.1119 1958.72 50.3365 Q1958.72 39.1965 1964.72 32.6746 Q1970.75 26.1121 1980.96 26.1121 Q1990.11 26.1121 1995.42 32.0264 Q2000.77 37.9003 2000.77 48.0275 M1993.32 45.84 Q1993.23 39.7232 1989.87 36.0774 Q1986.55 32.4315 1981.04 32.4315 Q1974.8 32.4315 1971.04 35.9558 Q1967.31 39.4801 1966.74 45.8805 L1993.32 45.84 Z" fill="#000000" fill-rule="nonzero" fill-opacity="1" /><path clip-path="url(#clip320)" d="M2033.62 49.7694 Q2024.59 49.7694 2021.1 51.8354 Q2017.62 53.9013 2017.62 58.8839 Q2017.62 62.8538 2020.21 65.2034 Q2022.85 67.5124 2027.34 67.5124 Q2033.54 67.5124 2037.27 63.1374 Q2041.03 58.7219 2041.03 51.4303 L2041.03 49.7694 L2033.62 49.7694 M2048.49 46.6907 L2048.49 72.576 L2041.03 72.576 L2041.03 65.6895 Q2038.48 69.8214 2034.67 71.8063 Q2030.87 73.7508 2025.36 73.7508 Q2018.39 73.7508 2014.26 69.8619 Q2010.17 65.9325 2010.17 59.3701 Q2010.17 51.7138 2015.27 47.825 Q2020.42 43.9361 2030.58 43.9361 L2041.03 43.9361 L2041.03 43.2069 Q2041.03 38.0623 2037.63 35.2672 Q2034.27 32.4315 2028.15 32.4315 Q2024.26 32.4315 2020.58 33.3632 Q2016.89 34.295 2013.49 36.1584 L2013.49 29.2718 Q2017.58 27.692 2021.43 26.9223 Q2025.28 26.1121 2028.92 26.1121 Q2038.77 26.1121 2043.63 31.2163 Q2048.49 36.3204 2048.49 46.6907 Z" fill="#000000" fill-rule="nonzero" fill-opacity="1" /><path clip-path="url(#clip320)" d="M2090.13 34.1734 Q2088.88 33.4443 2087.38 33.1202 Q2085.92 32.7556 2084.14 32.7556 Q2077.82 32.7556 2074.41 36.8875 Q2071.05 40.9789 2071.05 48.6757 L2071.05 72.576 L2063.56 72.576 L2063.56 27.2059 L2071.05 27.2059 L2071.05 34.2544 Q2073.4 30.1225 2077.17 28.1376 Q2080.94 26.1121 2086.32 26.1121 Q2087.09 26.1121 2088.03 26.2337 Q2088.96 26.3147 2090.09 26.5172 L2090.13 34.1734 Z" fill="#000000" fill-rule="nonzero" fill-opacity="1" /><path clip-path="url(#clip320)" d="M2126.87 28.5427 L2126.87 35.5912 Q2123.71 33.9709 2120.31 33.1607 Q2116.91 32.3505 2113.26 32.3505 Q2107.71 32.3505 2104.92 34.0519 Q2102.16 35.7533 2102.16 39.156 Q2102.16 41.7486 2104.15 43.2475 Q2106.13 44.7058 2112.13 46.0426 L2114.68 46.6097 Q2122.62 48.3111 2125.94 51.4303 Q2129.3 54.509 2129.3 60.0587 Q2129.3 66.3781 2124.28 70.0644 Q2119.3 73.7508 2110.55 73.7508 Q2106.9 73.7508 2102.93 73.0216 Q2099 72.3329 2094.63 70.9151 L2094.63 63.2184 Q2098.76 65.3654 2102.77 66.4591 Q2106.78 67.5124 2110.71 67.5124 Q2115.98 67.5124 2118.81 65.73 Q2121.65 63.9071 2121.65 60.6258 Q2121.65 57.5877 2119.58 55.9673 Q2117.56 54.3469 2110.63 52.8481 L2108.04 52.2405 Q2101.11 50.7821 2098.03 47.7845 Q2094.95 44.7463 2094.95 39.4801 Q2094.95 33.0797 2099.49 29.5959 Q2104.03 26.1121 2112.37 26.1121 Q2116.5 26.1121 2120.15 26.7198 Q2123.79 27.3274 2126.87 28.5427 Z" fill="#000000" fill-rule="nonzero" fill-opacity="1" /><path clip-path="url(#clip320)" d="M2140 9.62495 L2146.48 9.62495 Q2152.56 19.1851 2155.55 28.3401 Q2158.59 37.4952 2158.59 46.5287 Q2158.59 55.6027 2155.55 64.7983 Q2152.56 73.9938 2146.48 83.5134 L2140 83.5134 Q2145.39 74.2369 2148.02 65.0818 Q2150.69 55.8863 2150.69 46.5287 Q2150.69 37.1711 2148.02 28.0566 Q2145.39 18.942 2140 9.62495 Z" fill="#000000" fill-rule="nonzero" fill-opacity="1" /><path clip-path="url(#clip321)" d="M255.816 1441.52 L353.828 1353 L451.839 1135.37 L549.85 845.372 L647.861 558.654 L745.872 349.997 L843.884 273.822 L941.895 349.997 L1039.91 558.654 L1137.92 845.372 L1235.93 1135.37 L1333.94 1353 L1431.95 1441.52 L1529.96 1377.82 L1627.97 1178.53 L1725.98 895.62 L1824 602.884 L1922.01 376.671 L2020.02 275.984 L2118.03 327.083 L2216.04 516.641 L2314.05 795.216 L2412.06 1090.15 L2510.07 1324.52 L2608.09 1437.2 L2706.1 1398.79 L2706.1 1734.12 L2608.09 1734.12 L2510.07 1734.12 L2412.06 1734.12 L2314.05 1734.12 L2216.04 1734.12 L2118.03 1734.12 L2020.02 1734.12 L1922.01 1734.12 L1824 1734.12 L1725.98 1734.12 L1627.97 1734.12 L1529.96 1734.12 L1431.95 1734.12 L1333.94 1734.12 L1235.93 1734.12 L1137.92 1734.12 L1039.91 1734.12 L941.895 1734.12 L843.884 1734.12 L745.872 1734.12 L647.861 1734.12 L549.85 1734.12 L451.839 1734.12 L353.828 1734.12 L255.816 1734.12  Z" fill="#4682b4" fill-rule="evenodd" fill-opacity="0.15"/>
<polyline clip-path="url(#clip321)" style="stroke:#4682b4; stroke-linecap:round; stroke-linejoin:round; stroke-width:8; stroke-opacity:1; fill:none" points="255.816,1441.52 353.828,1353 451.839,1135.37 549.85,845.372 647.861,558.654 745.872,349.997 843.884,273.822 941.895,349.997 1039.91,558.654 1137.92,845.372 1235.93,1135.37 1333.94,1353 1431.95,1441.52 1529.96,1377.82 1627.97,1178.53 1725.98,895.62 1824,602.884 1922.01,376.671 2020.02,275.984 2118.03,327.083 2216.04,516.641 2314.05,795.216 2412.06,1090.15 2510.07,1324.52 2608.09,1437.2 2706.1,1398.79 "/>
<polyline clip-path="url(#clip321)" style="stroke:#808080; stroke-linecap:round; stroke-linejoin:round; stroke-width:4; stroke-opacity:1; fill:none" stroke-dasharray="16, 10" points="843.884,3340.44 843.884,-1478.53 "/>
<polyline clip-path="url(#clip321)" style="stroke:#808080; stroke-linecap:round; stroke-linejoin:round; stroke-width:4; stroke-opacity:1; fill:none" stroke-dasharray="16, 10" points="2036.35,3340.44 2036.35,-1478.53 "/>
<path clip-path="url(#clip320)" d="M1920.06 1680.57 L2561.26 1680.57 L2561.26 1525.05 L1920.06 1525.05  Z" fill="#ffffff" fill-rule="evenodd" fill-opacity="1"/>
<polyline clip-path="url(#clip320)" style="stroke:#000000; stroke-linecap:round; stroke-linejoin:round; stroke-width:4; stroke-opacity:1; fill:none" points="1920.06,1680.57 2561.26,1680.57 2561.26,1525.05 1920.06,1525.05 1920.06,1680.57 "/>
<path clip-path="url(#clip320)" d="M1946.56 1597.63 L2105.55 1597.63 L2105.55 1556.16 L1946.56 1556.16 L1946.56 1597.63  Z" fill="#4682b4" fill-rule="evenodd" fill-opacity="0.15"/>
<polyline clip-path="url(#clip320)" style="stroke:#4682b4; stroke-linecap:round; stroke-linejoin:round; stroke-width:8; stroke-opacity:1; fill:none" points="1946.56,1556.16 2105.55,1556.16 "/>
<path clip-path="url(#clip320)" d="M2148.44 1577.97 Q2149.95 1578.48 2151.36 1580.15 Q2152.79 1581.81 2154.23 1584.73 L2158.97 1594.17 L2153.95 1594.17 L2149.53 1585.31 Q2147.82 1581.83 2146.2 1580.7 Q2144.6 1579.57 2141.82 1579.57 L2136.73 1579.57 L2136.73 1594.17 L2132.05 1594.17 L2132.05 1559.61 L2142.61 1559.61 Q2148.53 1559.61 2151.45 1562.09 Q2154.37 1564.57 2154.37 1569.57 Q2154.37 1572.83 2152.84 1574.98 Q2151.33 1577.14 2148.44 1577.97 M2136.73 1563.46 L2136.73 1575.72 L2142.61 1575.72 Q2145.99 1575.72 2147.7 1574.17 Q2149.44 1572.6 2149.44 1569.57 Q2149.44 1566.53 2147.7 1565.01 Q2145.99 1563.46 2142.61 1563.46 L2136.73 1563.46 Z" fill="#000000" fill-rule="nonzero" fill-opacity="1" /><path clip-path="url(#clip320)" d="M2175.55 1581.14 Q2170.39 1581.14 2168.39 1582.32 Q2166.4 1583.5 2166.4 1586.35 Q2166.4 1588.62 2167.89 1589.96 Q2169.39 1591.28 2171.96 1591.28 Q2175.5 1591.28 2177.63 1588.78 Q2179.78 1586.26 2179.78 1582.09 L2179.78 1581.14 L2175.55 1581.14 M2184.04 1579.38 L2184.04 1594.17 L2179.78 1594.17 L2179.78 1590.24 Q2178.33 1592.6 2176.15 1593.73 Q2173.97 1594.84 2170.83 1594.84 Q2166.84 1594.84 2164.48 1592.62 Q2162.14 1590.38 2162.14 1586.63 Q2162.14 1582.25 2165.06 1580.03 Q2168 1577.81 2173.81 1577.81 L2179.78 1577.81 L2179.78 1577.39 Q2179.78 1574.45 2177.84 1572.85 Q2175.92 1571.23 2172.42 1571.23 Q2170.2 1571.23 2168.09 1571.77 Q2165.99 1572.3 2164.04 1573.36 L2164.04 1569.43 Q2166.38 1568.52 2168.58 1568.09 Q2170.78 1567.62 2172.86 1567.62 Q2178.49 1567.62 2181.27 1570.54 Q2184.04 1573.46 2184.04 1579.38 Z" fill="#000000" fill-rule="nonzero" fill-opacity="1" /><path clip-path="url(#clip320)" d="M2192.82 1568.25 L2197.08 1568.25 L2197.08 1594.17 L2192.82 1594.17 L2192.82 1568.25 M2192.82 1558.15 L2197.08 1558.15 L2197.08 1563.55 L2192.82 1563.55 L2192.82 1558.15 Z" fill="#000000" fill-rule="nonzero" fill-opacity="1" /><path clip-path="url(#clip320)" d="M2227.54 1578.52 L2227.54 1594.17 L2223.28 1594.17 L2223.28 1578.66 Q2223.28 1574.98 2221.84 1573.15 Q2220.41 1571.33 2217.54 1571.33 Q2214.09 1571.33 2212.1 1573.52 Q2210.11 1575.72 2210.11 1579.52 L2210.11 1594.17 L2205.83 1594.17 L2205.83 1568.25 L2210.11 1568.25 L2210.11 1572.27 Q2211.64 1569.94 2213.7 1568.78 Q2215.78 1567.62 2218.49 1567.62 Q2222.95 1567.62 2225.25 1570.4 Q2227.54 1573.15 2227.54 1578.52 Z" fill="#000000" fill-rule="nonzero" fill-opacity="1" /><path clip-path="url(#clip320)" d="M2249.16 1558.15 L2249.16 1561.7 L2245.08 1561.7 Q2242.79 1561.7 2241.89 1562.62 Q2241.01 1563.55 2241.01 1565.96 L2241.01 1568.25 L2248.02 1568.25 L2248.02 1571.56 L2241.01 1571.56 L2241.01 1594.17 L2236.73 1594.17 L2236.73 1571.56 L2232.65 1571.56 L2232.65 1568.25 L2236.73 1568.25 L2236.73 1566.44 Q2236.73 1562.11 2238.74 1560.15 Q2240.76 1558.15 2245.13 1558.15 L2249.16 1558.15 Z" fill="#000000" fill-rule="nonzero" fill-opacity="1" /><path clip-path="url(#clip320)" d="M2264.51 1581.14 Q2259.34 1581.14 2257.35 1582.32 Q2255.36 1583.5 2255.36 1586.35 Q2255.36 1588.62 2256.84 1589.96 Q2258.35 1591.28 2260.92 1591.28 Q2264.46 1591.28 2266.59 1588.78 Q2268.74 1586.26 2268.74 1582.09 L2268.74 1581.14 L2264.51 1581.14 M2273 1579.38 L2273 1594.17 L2268.74 1594.17 L2268.74 1590.24 Q2267.28 1592.6 2265.11 1593.73 Q2262.93 1594.84 2259.78 1594.84 Q2255.8 1594.84 2253.44 1592.62 Q2251.1 1590.38 2251.1 1586.63 Q2251.1 1582.25 2254.02 1580.03 Q2256.96 1577.81 2262.77 1577.81 L2268.74 1577.81 L2268.74 1577.39 Q2268.74 1574.45 2266.8 1572.85 Q2264.88 1571.23 2261.38 1571.23 Q2259.16 1571.23 2257.05 1571.77 Q2254.95 1572.3 2253 1573.36 L2253 1569.43 Q2255.34 1568.52 2257.54 1568.09 Q2259.74 1567.62 2261.82 1567.62 Q2267.45 1567.62 2270.22 1570.54 Q2273 1573.46 2273 1579.38 Z" fill="#000000" fill-rule="nonzero" fill-opacity="1" /><path clip-path="url(#clip320)" d="M2281.77 1558.15 L2286.03 1558.15 L2286.03 1594.17 L2281.77 1594.17 L2281.77 1558.15 Z" fill="#000000" fill-rule="nonzero" fill-opacity="1" /><path clip-path="url(#clip320)" d="M2294.95 1558.15 L2299.2 1558.15 L2299.2 1594.17 L2294.95 1594.17 L2294.95 1558.15 Z" fill="#000000" fill-rule="nonzero" fill-opacity="1" /><polyline clip-path="url(#clip320)" style="stroke:#808080; stroke-linecap:round; stroke-linejoin:round; stroke-width:4; stroke-opacity:1; fill:none" stroke-dasharray="16, 10" points="1946.56,1628.73 2105.55,1628.73 "/>
<path clip-path="url(#clip320)" d="M2132.05 1611.45 L2136.77 1611.45 L2144.04 1640.67 L2151.29 1611.45 L2156.54 1611.45 L2163.81 1640.67 L2171.06 1611.45 L2175.8 1611.45 L2167.12 1646.01 L2161.24 1646.01 L2153.95 1616.01 L2146.59 1646.01 L2140.71 1646.01 L2132.05 1611.45 Z" fill="#000000" fill-rule="nonzero" fill-opacity="1" /><path clip-path="url(#clip320)" d="M2201.22 1631.99 L2201.22 1634.07 L2181.64 1634.07 Q2181.91 1638.47 2184.27 1640.78 Q2186.66 1643.07 2190.89 1643.07 Q2193.35 1643.07 2195.64 1642.47 Q2197.95 1641.87 2200.22 1640.67 L2200.22 1644.69 Q2197.93 1645.67 2195.52 1646.17 Q2193.12 1646.68 2190.64 1646.68 Q2184.44 1646.68 2180.8 1643.07 Q2177.19 1639.46 2177.19 1633.3 Q2177.19 1626.94 2180.62 1623.21 Q2184.07 1619.46 2189.9 1619.46 Q2195.13 1619.46 2198.16 1622.84 Q2201.22 1626.2 2201.22 1631.99 M2196.96 1630.74 Q2196.91 1627.24 2194.99 1625.16 Q2193.09 1623.07 2189.95 1623.07 Q2186.38 1623.07 2184.23 1625.09 Q2182.1 1627.1 2181.77 1630.76 L2196.96 1630.74 Z" fill="#000000" fill-rule="nonzero" fill-opacity="1" /><path clip-path="url(#clip320)" d="M2212.42 1612.73 L2212.42 1620.09 L2221.2 1620.09 L2221.2 1623.4 L2212.42 1623.4 L2212.42 1637.47 Q2212.42 1640.64 2213.28 1641.55 Q2214.16 1642.45 2216.82 1642.45 L2221.2 1642.45 L2221.2 1646.01 L2216.82 1646.01 Q2211.89 1646.01 2210.01 1644.18 Q2208.14 1642.33 2208.14 1637.47 L2208.14 1623.4 L2205.01 1623.4 L2205.01 1620.09 L2208.14 1620.09 L2208.14 1612.73 L2212.42 1612.73 Z" fill="#000000" fill-rule="nonzero" fill-opacity="1" /><path clip-path="url(#clip320)" d="M2258.39 1620.85 L2258.39 1624.88 Q2256.59 1623.95 2254.64 1623.49 Q2252.7 1623.03 2250.62 1623.03 Q2247.45 1623.03 2245.85 1624 Q2244.27 1624.97 2244.27 1626.92 Q2244.27 1628.4 2245.41 1629.25 Q2246.54 1630.09 2249.97 1630.85 L2251.43 1631.17 Q2255.96 1632.15 2257.86 1633.93 Q2259.78 1635.69 2259.78 1638.86 Q2259.78 1642.47 2256.91 1644.58 Q2254.07 1646.68 2249.07 1646.68 Q2246.98 1646.68 2244.71 1646.27 Q2242.47 1645.87 2239.97 1645.06 L2239.97 1640.67 Q2242.33 1641.89 2244.62 1642.52 Q2246.91 1643.12 2249.16 1643.12 Q2252.17 1643.12 2253.79 1642.1 Q2255.41 1641.06 2255.41 1639.18 Q2255.41 1637.45 2254.23 1636.52 Q2253.07 1635.6 2249.11 1634.74 L2247.63 1634.39 Q2243.67 1633.56 2241.91 1631.85 Q2240.15 1630.11 2240.15 1627.1 Q2240.15 1623.44 2242.75 1621.45 Q2245.34 1619.46 2250.11 1619.46 Q2252.47 1619.46 2254.55 1619.81 Q2256.64 1620.16 2258.39 1620.85 Z" fill="#000000" fill-rule="nonzero" fill-opacity="1" /><path clip-path="url(#clip320)" d="M2288.74 1631.99 L2288.74 1634.07 L2269.16 1634.07 Q2269.44 1638.47 2271.8 1640.78 Q2274.18 1643.07 2278.42 1643.07 Q2280.87 1643.07 2283.16 1642.47 Q2285.48 1641.87 2287.75 1640.67 L2287.75 1644.69 Q2285.45 1645.67 2283.05 1646.17 Q2280.64 1646.68 2278.16 1646.68 Q2271.96 1646.68 2268.32 1643.07 Q2264.71 1639.46 2264.71 1633.3 Q2264.71 1626.94 2268.14 1623.21 Q2271.59 1619.46 2277.42 1619.46 Q2282.65 1619.46 2285.69 1622.84 Q2288.74 1626.2 2288.74 1631.99 M2284.48 1630.74 Q2284.44 1627.24 2282.51 1625.16 Q2280.62 1623.07 2277.47 1623.07 Q2273.9 1623.07 2271.75 1625.09 Q2269.62 1627.1 2269.3 1630.76 L2284.48 1630.74 Z" fill="#000000" fill-rule="nonzero" fill-opacity="1" /><path clip-path="url(#clip320)" d="M2307.51 1632.98 Q2302.35 1632.98 2300.36 1634.16 Q2298.37 1635.34 2298.37 1638.19 Q2298.37 1640.46 2299.85 1641.8 Q2301.36 1643.12 2303.93 1643.12 Q2307.47 1643.12 2309.6 1640.62 Q2311.75 1638.1 2311.75 1633.93 L2311.75 1632.98 L2307.51 1632.98 M2316.01 1631.22 L2316.01 1646.01 L2311.75 1646.01 L2311.75 1642.08 Q2310.29 1644.44 2308.12 1645.57 Q2305.94 1646.68 2302.79 1646.68 Q2298.81 1646.68 2296.45 1644.46 Q2294.11 1642.22 2294.11 1638.47 Q2294.11 1634.09 2297.03 1631.87 Q2299.97 1629.65 2305.78 1629.65 L2311.75 1629.65 L2311.75 1629.23 Q2311.75 1626.29 2309.81 1624.69 Q2307.88 1623.07 2304.39 1623.07 Q2302.17 1623.07 2300.06 1623.61 Q2297.95 1624.14 2296.01 1625.2 L2296.01 1621.27 Q2298.35 1620.36 2300.55 1619.93 Q2302.75 1619.46 2304.83 1619.46 Q2310.45 1619.46 2313.23 1622.38 Q2316.01 1625.3 2316.01 1631.22 Z" fill="#000000" fill-rule="nonzero" fill-opacity="1" /><path clip-path="url(#clip320)" d="M2341.31 1620.85 L2341.31 1624.88 Q2339.51 1623.95 2337.56 1623.49 Q2335.62 1623.03 2333.53 1623.03 Q2330.36 1623.03 2328.76 1624 Q2327.19 1624.97 2327.19 1626.92 Q2327.19 1628.4 2328.32 1629.25 Q2329.46 1630.09 2332.88 1630.85 L2334.34 1631.17 Q2338.88 1632.15 2340.78 1633.93 Q2342.7 1635.69 2342.7 1638.86 Q2342.7 1642.47 2339.83 1644.58 Q2336.98 1646.68 2331.98 1646.68 Q2329.9 1646.68 2327.63 1646.27 Q2325.38 1645.87 2322.88 1645.06 L2322.88 1640.67 Q2325.25 1641.89 2327.54 1642.52 Q2329.83 1643.12 2332.07 1643.12 Q2335.08 1643.12 2336.7 1642.1 Q2338.32 1641.06 2338.32 1639.18 Q2338.32 1637.45 2337.14 1636.52 Q2335.99 1635.6 2332.03 1634.74 L2330.55 1634.39 Q2326.59 1633.56 2324.83 1631.85 Q2323.07 1630.11 2323.07 1627.1 Q2323.07 1623.44 2325.66 1621.45 Q2328.26 1619.46 2333.02 1619.46 Q2335.38 1619.46 2337.47 1619.81 Q2339.55 1620.16 2341.31 1620.85 Z" fill="#000000" fill-rule="nonzero" fill-opacity="1" /><path clip-path="url(#clip320)" d="M2359.53 1623.07 Q2356.1 1623.07 2354.11 1625.76 Q2352.12 1628.42 2352.12 1633.07 Q2352.12 1637.73 2354.09 1640.41 Q2356.08 1643.07 2359.53 1643.07 Q2362.93 1643.07 2364.92 1640.39 Q2366.91 1637.7 2366.91 1633.07 Q2366.91 1628.47 2364.92 1625.78 Q2362.93 1623.07 2359.53 1623.07 M2359.53 1619.46 Q2365.08 1619.46 2368.25 1623.07 Q2371.43 1626.68 2371.43 1633.07 Q2371.43 1639.44 2368.25 1643.07 Q2365.08 1646.68 2359.53 1646.68 Q2353.95 1646.68 2350.78 1643.07 Q2347.63 1639.44 2347.63 1633.07 Q2347.63 1626.68 2350.78 1623.07 Q2353.95 1619.46 2359.53 1619.46 Z" fill="#000000" fill-rule="nonzero" fill-opacity="1" /><path clip-path="url(#clip320)" d="M2400.04 1630.36 L2400.04 1646.01 L2395.78 1646.01 L2395.78 1630.5 Q2395.78 1626.82 2394.34 1624.99 Q2392.91 1623.17 2390.04 1623.17 Q2386.59 1623.17 2384.6 1625.36 Q2382.61 1627.56 2382.61 1631.36 L2382.61 1646.01 L2378.32 1646.01 L2378.32 1620.09 L2382.61 1620.09 L2382.61 1624.11 Q2384.13 1621.78 2386.19 1620.62 Q2388.28 1619.46 2390.99 1619.46 Q2395.45 1619.46 2397.75 1622.24 Q2400.04 1624.99 2400.04 1630.36 Z" fill="#000000" fill-rule="nonzero" fill-opacity="1" /><path clip-path="url(#clip320)" d="M2427.72 1642.12 L2427.72 1655.87 L2423.44 1655.87 L2423.44 1620.09 L2427.72 1620.09 L2427.72 1624.02 Q2429.06 1621.71 2431.1 1620.6 Q2433.16 1619.46 2436.01 1619.46 Q2440.73 1619.46 2443.67 1623.21 Q2446.63 1626.96 2446.63 1633.07 Q2446.63 1639.18 2443.67 1642.93 Q2440.73 1646.68 2436.01 1646.68 Q2433.16 1646.68 2431.1 1645.57 Q2429.06 1644.44 2427.72 1642.12 M2442.21 1633.07 Q2442.21 1628.37 2440.27 1625.71 Q2438.35 1623.03 2434.97 1623.03 Q2431.59 1623.03 2429.64 1625.71 Q2427.72 1628.37 2427.72 1633.07 Q2427.72 1637.77 2429.64 1640.46 Q2431.59 1643.12 2434.97 1643.12 Q2438.35 1643.12 2440.27 1640.46 Q2442.21 1637.77 2442.21 1633.07 Z" fill="#000000" fill-rule="nonzero" fill-opacity="1" /><path clip-path="url(#clip320)" d="M2475.87 1631.99 L2475.87 1634.07 L2456.29 1634.07 Q2456.56 1638.47 2458.93 1640.78 Q2461.31 1643.07 2465.55 1643.07 Q2468 1643.07 2470.29 1642.47 Q2472.61 1641.87 2474.87 1640.67 L2474.87 1644.69 Q2472.58 1645.67 2470.18 1646.17 Q2467.77 1646.68 2465.29 1646.68 Q2459.09 1646.68 2455.45 1643.07 Q2451.84 1639.46 2451.84 1633.3 Q2451.84 1626.94 2455.27 1623.21 Q2458.72 1619.46 2464.55 1619.46 Q2469.78 1619.46 2472.81 1622.84 Q2475.87 1626.2 2475.87 1631.99 M2471.61 1630.74 Q2471.56 1627.24 2469.64 1625.16 Q2467.75 1623.07 2464.6 1623.07 Q2461.03 1623.07 2458.88 1625.09 Q2456.75 1627.1 2456.43 1630.76 L2471.61 1630.74 Z" fill="#000000" fill-rule="nonzero" fill-opacity="1" /><path clip-path="url(#clip320)" d="M2494.64 1632.98 Q2489.48 1632.98 2487.49 1634.16 Q2485.5 1635.34 2485.5 1638.19 Q2485.5 1640.46 2486.98 1641.8 Q2488.49 1643.12 2491.06 1643.12 Q2494.6 1643.12 2496.73 1640.62 Q2498.88 1638.1 2498.88 1633.93 L2498.88 1632.98 L2494.64 1632.98 M2503.14 1631.22 L2503.14 1646.01 L2498.88 1646.01 L2498.88 1642.08 Q2497.42 1644.44 2495.24 1645.57 Q2493.07 1646.68 2489.92 1646.68 Q2485.94 1646.68 2483.58 1644.46 Q2481.24 1642.22 2481.24 1638.47 Q2481.24 1634.09 2484.16 1631.87 Q2487.1 1629.65 2492.91 1629.65 L2498.88 1629.65 L2498.88 1629.23 Q2498.88 1626.29 2496.93 1624.69 Q2495.01 1623.07 2491.52 1623.07 Q2489.3 1623.07 2487.19 1623.61 Q2485.08 1624.14 2483.14 1625.2 L2483.14 1621.27 Q2485.48 1620.36 2487.68 1619.93 Q2489.87 1619.46 2491.96 1619.46 Q2497.58 1619.46 2500.36 1622.38 Q2503.14 1625.3 2503.14 1631.22 Z" fill="#000000" fill-rule="nonzero" fill-opacity="1" /><path clip-path="url(#clip320)" d="M2511.75 1609.99 L2516.03 1609.99 L2516.03 1631.27 L2528.74 1620.09 L2534.18 1620.09 L2520.43 1632.22 L2534.76 1646.01 L2529.2 1646.01 L2516.03 1633.35 L2516.03 1646.01 L2511.75 1646.01 L2511.75 1609.99 Z" fill="#000000" fill-rule="nonzero" fill-opacity="1" /></svg>
