<?xml version="1.0" encoding="utf-8"?>
<svg xmlns="http://www.w3.org/2000/svg" xmlns:xlink="http://www.w3.org/1999/xlink" width="672" height="480" viewBox="0 0 2688 1920">
<defs>
  <clipPath id="clip420">
    <rect x="0" y="0" width="2688" height="1920"/>
  </clipPath>
</defs>
<path clip-path="url(#clip420)" d="M0 1920 L2688 1920 L2688 -4.26326e-14 L0 -4.26326e-14  Z" fill="#ffffff" fill-rule="evenodd" fill-opacity="1"/>
<defs>
  <clipPath id="clip421">
    <rect x="208" y="127" width="2433" height="1607"/>
  </clipPath>
</defs>
<path clip-path="url(#clip420)" d="M208.502 1734.12 L2640.76 1734.12 L2640.76 127.792 L208.502 127.792  Z" fill="#ffffff" fill-rule="evenodd" fill-opacity="1"/>
<polyline clip-path="url(#clip421)" style="stroke:#000000; stroke-linecap:round; stroke-linejoin:round; stroke-width:2; stroke-opacity:0.1; fill:none" points="277.339,1734.12 277.339,127.792 "/>
<polyline clip-path="url(#clip421)" style="stroke:#000000; stroke-linecap:round; stroke-linejoin:round; stroke-width:2; stroke-opacity:0.1; fill:none" points="1042.2,1734.12 1042.2,127.792 "/>
<polyline clip-path="url(#clip421)" style="stroke:#000000; stroke-linecap:round; stroke-linejoin:round; stroke-width:2; stroke-opacity:0.1; fill:none" points="1807.06,1734.12 1807.06,127.792 "/>
<polyline clip-path="url(#clip421)" style="stroke:#000000; stroke-linecap:round; stroke-linejoin:round; stroke-width:2; stroke-opacity:0.1; fill:none" points="2571.92,1734.12 2571.92,127.792 "/>
<polyline clip-path="url(#clip421)" style="stroke:#000000; stroke-linecap:round; stroke-linejoin:round; stroke-width:2; stroke-opacity:0.1; fill:none" points="208.502,1688.65 2640.76,1688.65 "/>
<polyline clip-path="url(#clip421)" style="stroke:#000000; stroke-linecap:round; stroke-linejoin:round; stroke-width:2; stroke-opacity:0.1; fill:none" points="208.502,1460.19 2640.76,1460.19 "/>
<polyline clip-path="url(#clip421)" style="stroke:#000000; stroke-linecap:round; stroke-linejoin:round; stroke-width:2; stroke-opacity:0.1; fill:none" points="208.502,1231.72 2640.76,1231.72 "/>
<polyline clip-path="url(#clip421)" style="stroke:#000000; stroke-linecap:round; stroke-linejoin:round; stroke-width:2; stroke-opacity:0.1; fill:none" points="208.502,1003.25 2640.76,1003.25 "/>
<polyline clip-path="url(#clip421)" style="stroke:#000000; stroke-linecap:round; stroke-linejoin:round; stroke-width:2; stroke-opacity:0.1; fill:none" points="208.502,774.782 2640.76,774.782 "/>
<polyline clip-path="url(#clip421)" style="stroke:#000000; stroke-linecap:round; stroke-linejoin:round; stroke-width:2; stroke-opacity:0.1; fill:none" points="208.502,546.314 2640.76,546.314 "/>
<polyline clip-path="url(#clip421)" style="stroke:#000000; stroke-linecap:round; stroke-linejoin:round; stroke-width:2; stroke-opacity:0.1; fill:none" points="208.502,317.846 2640.76,317.846 "/>
<polyline clip-path="url(#clip420)" style="stroke:#000000; stroke-linecap:round; stroke-linejoin:round; stroke-width:4; stroke-opacity:1; fill:none" points="208.502,1734.12 2640.76,1734.12 "/>
<polyline clip-path="url(#clip420)" style="stroke:#000000; stroke-linecap:round; stroke-linejoin:round; stroke-width:4; stroke-opacity:1; fill:none" points="277.339,1734.12 277.339,1715.22 "/>
<polyline clip-path="url(#clip420)" style="stroke:#000000; stroke-linecap:round; stroke-linejoin:round; stroke-width:4; stroke-opacity:1; fill:none" points="1042.2,1734.12 1042.2,1715.22 "/>
<polyline clip-path="url(#clip420)" style="stroke:#000000; stroke-linecap:round; stroke-linejoin:round; stroke-width:4; stroke-opacity:1; fill:none" points="1807.06,1734.12 1807.06,1715.22 "/>
<polyline clip-path="url(#clip420)" style="stroke:#000000; stroke-linecap:round; stroke-linejoin:round; stroke-width:4; stroke-opacity:1; fill:none" points="2571.92,1734.12 2571.92,1715.22 "/>
<path clip-path="url(#clip420)" d="M277.339 1767.34 Q273.728 1767.34 271.899 1770.9 Q270.094 1774.45 270.094 1781.58 Q270.094 1788.68 271.899 1792.25 Q273.728 1795.79 277.339 1795.79 Q280.973 1795.79 282.779 1792.25 Q284.608 1788.68 284.608 1781.58 Q284.608 1774.45 282.779 1770.9 Q280.973 1767.34 277.339 1767.34 M277.339 1763.64 Q283.149 1763.64 286.205 1768.24 Q289.284 1772.83 289.284 1781.58 Q289.284 1790.3 286.205 1794.91 Q283.149 1799.49 277.339 1799.49 Q271.529 1799.49 268.45 1794.91 Q265.395 1790.3 265.395 1781.58 Q265.395 1772.83 268.45 1768.24 Q271.529 1763.64 277.339 1763.64 Z" fill="#000000" fill-rule="nonzero" fill-opacity="1" /><path clip-path="url(#clip420)" d="M1001.81 1794.89 L1009.44 1794.89 L1009.44 1768.52 L1001.13 1770.19 L1001.13 1765.93 L1009.4 1764.26 L1014.07 1764.26 L1014.07 1794.89 L1021.71 1794.89 L1021.71 1798.82 L1001.81 1798.82 L1001.81 1794.89 Z" fill="#000000" fill-rule="nonzero" fill-opacity="1" /><path clip-path="url(#clip420)" d="M1041.16 1767.34 Q1037.55 1767.34 1035.72 1770.9 Q1033.91 1774.45 1033.91 1781.58 Q1033.91 1788.68 1035.72 1792.25 Q1037.55 1795.79 1041.16 1795.79 Q1044.79 1795.79 1046.6 1792.25 Q1048.43 1788.68 1048.43 1781.58 Q1048.43 1774.45 1046.6 1770.9 Q1044.79 1767.34 1041.16 1767.34 M1041.16 1763.64 Q1046.97 1763.64 1050.02 1768.24 Q1053.1 1772.83 1053.1 1781.58 Q1053.1 1790.3 1050.02 1794.91 Q1046.97 1799.49 1041.16 1799.49 Q1035.35 1799.49 1032.27 1794.91 Q1029.21 1790.3 1029.21 1781.58 Q1029.21 1772.83 1032.27 1768.24 Q1035.35 1763.64 1041.16 1763.64 Z" fill="#000000" fill-rule="nonzero" fill-opacity="1" /><path clip-path="url(#clip420)" d="M1071.32 1767.34 Q1067.71 1767.34 1065.88 1770.9 Q1064.07 1774.45 1064.07 1781.58 Q1064.07 1788.68 1065.88 1792.25 Q1067.71 1795.79 1071.32 1795.79 Q1074.95 1795.79 1076.76 1792.25 Q1078.59 1788.68 1078.59 1781.58 Q1078.59 1774.45 1076.76 1770.9 Q1074.95 1767.34 1071.32 1767.34 M1071.32 1763.64 Q1077.13 1763.64 1080.18 1768.24 Q1083.26 1772.83 1083.26 1781.58 Q1083.26 1790.3 1080.18 1794.91 Q1077.13 1799.49 1071.32 1799.49 Q1065.51 1799.49 1062.43 1794.91 Q1059.37 1790.3 1059.37 1781.58 Q1059.37 1772.83 1062.43 1768.24 Q1065.51 1763.64 1071.32 1763.64 Z" fill="#000000" fill-rule="nonzero" fill-opacity="1" /><path clip-path="url(#clip420)" d="M1770.75 1794.89 L1787.07 1794.89 L1787.07 1798.82 L1765.13 1798.82 L1765.13 1794.89 Q1767.79 1792.13 1772.37 1787.5 Q1776.98 1782.85 1778.16 1781.51 Q1780.4 1778.98 1781.28 1777.25 Q1782.19 1775.49 1782.19 1773.8 Q1782.19 1771.04 1780.24 1769.31 Q1778.32 1767.57 1775.22 1767.57 Q1773.02 1767.57 1770.57 1768.34 Q1768.14 1769.1 1765.36 1770.65 L1765.36 1765.93 Q1768.18 1764.79 1770.64 1764.21 Q1773.09 1763.64 1775.13 1763.64 Q1780.5 1763.64 1783.69 1766.32 Q1786.89 1769.01 1786.89 1773.5 Q1786.89 1775.63 1786.08 1777.55 Q1785.29 1779.45 1783.18 1782.04 Q1782.6 1782.71 1779.5 1785.93 Q1776.4 1789.12 1770.75 1794.89 Z" fill="#000000" fill-rule="nonzero" fill-opacity="1" /><path clip-path="url(#clip420)" d="M1806.89 1767.34 Q1803.27 1767.34 1801.45 1770.9 Q1799.64 1774.45 1799.64 1781.58 Q1799.64 1788.68 1801.45 1792.25 Q1803.27 1795.79 1806.89 1795.79 Q1810.52 1795.79 1812.32 1792.25 Q1814.15 1788.68 1814.15 1781.58 Q1814.15 1774.45 1812.32 1770.9 Q1810.52 1767.34 1806.89 1767.34 M1806.89 1763.64 Q1812.7 1763.64 1815.75 1768.24 Q1818.83 1772.83 1818.83 1781.58 Q1818.83 1790.3 1815.75 1794.91 Q1812.7 1799.49 1806.89 1799.49 Q1801.07 1799.49 1798 1794.91 Q1794.94 1790.3 1794.94 1781.58 Q1794.94 1772.83 1798 1768.24 Q1801.07 1763.64 1806.89 1763.64 Z" fill="#000000" fill-rule="nonzero" fill-opacity="1" /><path clip-path="url(#clip420)" d="M1837.05 1767.34 Q1833.44 1767.34 1831.61 1770.9 Q1829.8 1774.45 1829.8 1781.58 Q1829.8 1788.68 1831.61 1792.25 Q1833.44 1795.79 1837.05 1795.79 Q1840.68 1795.79 1842.49 1792.25 Q1844.32 1788.68 1844.32 1781.58 Q1844.32 1774.45 1842.49 1770.9 Q1840.68 1767.34 1837.05 1767.34 M1837.05 1763.64 Q1842.86 1763.64 1845.91 1768.24 Q1848.99 1772.83 1848.99 1781.58 Q1848.99 1790.3 1845.91 1794.91 Q1842.86 1799.49 1837.05 1799.49 Q1831.24 1799.49 1828.16 1794.91 Q1825.1 1790.3 1825.1 1781.58 Q1825.1 1772.83 1828.16 1768.24 Q1831.24 1763.64 1837.05 1763.64 Z" fill="#000000" fill-rule="nonzero" fill-opacity="1" /><path clip-path="url(#clip420)" d="M2545.68 1780.19 Q2549.04 1780.9 2550.91 1783.17 Q2552.81 1785.44 2552.81 1788.77 Q2552.81 1793.89 2549.29 1796.69 Q2545.77 1799.49 2539.29 1799.49 Q2537.12 1799.49 2534.8 1799.05 Q2532.51 1798.64 2530.06 1797.78 L2530.06 1793.27 Q2532 1794.4 2534.31 1794.98 Q2536.63 1795.56 2539.15 1795.56 Q2543.55 1795.56 2545.84 1793.82 Q2548.16 1792.08 2548.16 1788.77 Q2548.16 1785.72 2546 1784.01 Q2543.87 1782.27 2540.06 1782.27 L2536.03 1782.27 L2536.03 1778.43 L2540.24 1778.43 Q2543.69 1778.43 2545.52 1777.06 Q2547.35 1775.67 2547.35 1773.08 Q2547.35 1770.42 2545.45 1769.01 Q2543.57 1767.57 2540.06 1767.57 Q2538.13 1767.57 2535.93 1767.99 Q2533.74 1768.4 2531.1 1769.28 L2531.1 1765.12 Q2533.76 1764.38 2536.07 1764.01 Q2538.41 1763.64 2540.47 1763.64 Q2545.8 1763.64 2548.9 1766.07 Q2552 1768.47 2552 1772.59 Q2552 1775.46 2550.36 1777.46 Q2548.71 1779.42 2545.68 1780.19 Z" fill="#000000" fill-rule="nonzero" fill-opacity="1" /><path clip-path="url(#clip420)" d="M2571.68 1767.34 Q2568.06 1767.34 2566.24 1770.9 Q2564.43 1774.45 2564.43 1781.58 Q2564.43 1788.68 2566.24 1792.25 Q2568.06 1795.79 2571.68 1795.79 Q2575.31 1795.79 2577.12 1792.25 Q2578.94 1788.68 2578.94 1781.58 Q2578.94 1774.45 2577.12 1770.9 Q2575.31 1767.34 2571.68 1767.34 M2571.68 1763.64 Q2577.49 1763.64 2580.54 1768.24 Q2583.62 1772.83 2583.62 1781.58 Q2583.62 1790.3 2580.54 1794.91 Q2577.49 1799.49 2571.68 1799.49 Q2565.87 1799.49 2562.79 1794.91 Q2559.73 1790.3 2559.73 1781.58 Q2559.73 1772.83 2562.79 1768.24 Q2565.87 1763.64 2571.68 1763.64 Z" fill="#000000" fill-rule="nonzero" fill-opacity="1" /><path clip-path="url(#clip420)" d="M2601.84 1767.34 Q2598.23 1767.34 2596.4 1770.9 Q2594.59 1774.45 2594.59 1781.58 Q2594.59 1788.68 2596.4 1792.25 Q2598.23 1795.79 2601.84 1795.79 Q2605.47 1795.79 2607.28 1792.25 Q2609.11 1788.68 2609.11 1781.58 Q2609.11 1774.45 2607.28 1770.9 Q2605.47 1767.34 2601.84 1767.34 M2601.84 1763.64 Q2607.65 1763.64 2610.7 1768.24 Q2613.78 1772.83 2613.78 1781.58 Q2613.78 1790.3 2610.7 1794.91 Q2607.65 1799.49 2601.84 1799.49 Q2596.03 1799.49 2592.95 1794.91 Q2589.89 1790.3 2589.89 1781.58 Q2589.89 1772.83 2592.95 1768.24 Q2596.03 1763.64 2601.84 1763.64 Z" fill="#000000" fill-rule="nonzero" fill-opacity="1" /><path clip-path="url(#clip420)" d="M1234.85 1835.78 L1275.05 1835.78 L1275.05 1841.19 L1258.18 1841.19 L1258.18 1883.3 L1251.72 1883.3 L1251.72 1841.19 L1234.85 1841.19 L1234.85 1835.78 Z" fill="#000000" fill-rule="nonzero" fill-opacity="1" /><path clip-path="url(#clip420)" d="M1279 1847.65 L1284.85 1847.65 L1284.85 1883.3 L1279 1883.3 L1279 1847.65 M1279 1833.78 L1284.85 1833.78 L1284.85 1841.19 L1279 1841.19 L1279 1833.78 Z" fill="#000000" fill-rule="nonzero" fill-opacity="1" /><path clip-path="url(#clip420)" d="M1324.86 1854.5 Q1327.06 1850.55 1330.11 1848.67 Q1333.17 1846.79 1337.31 1846.79 Q1342.88 1846.79 1345.9 1850.71 Q1348.92 1854.59 1348.92 1861.78 L1348.92 1883.3 L1343.04 1883.3 L1343.04 1861.98 Q1343.04 1856.85 1341.22 1854.37 Q1339.41 1851.89 1335.68 1851.89 Q1331.13 1851.89 1328.49 1854.91 Q1325.85 1857.93 1325.85 1863.15 L1325.85 1883.3 L1319.96 1883.3 L1319.96 1861.98 Q1319.96 1856.82 1318.15 1854.37 Q1316.33 1851.89 1312.54 1851.89 Q1308.06 1851.89 1305.42 1854.94 Q1302.77 1857.97 1302.77 1863.15 L1302.77 1883.3 L1296.89 1883.3 L1296.89 1847.65 L1302.77 1847.65 L1302.77 1853.19 Q1304.78 1849.91 1307.58 1848.35 Q1310.38 1846.79 1314.23 1846.79 Q1318.11 1846.79 1320.82 1848.77 Q1323.56 1850.74 1324.86 1854.5 Z" fill="#000000" fill-rule="nonzero" fill-opacity="1" /><path clip-path="url(#clip420)" d="M1391.1 1864.01 L1391.1 1866.88 L1364.17 1866.88 Q1364.55 1872.92 1367.8 1876.11 Q1371.08 1879.26 1376.9 1879.26 Q1380.28 1879.26 1383.43 1878.43 Q1386.61 1877.6 1389.73 1875.95 L1389.73 1881.49 Q1386.58 1882.82 1383.27 1883.52 Q1379.96 1884.22 1376.55 1884.22 Q1368.02 1884.22 1363.02 1879.26 Q1358.06 1874.29 1358.06 1865.83 Q1358.06 1857.07 1362.77 1851.95 Q1367.51 1846.79 1375.53 1846.79 Q1382.73 1846.79 1386.9 1851.44 Q1391.1 1856.06 1391.1 1864.01 M1385.24 1862.29 Q1385.18 1857.49 1382.54 1854.62 Q1379.93 1851.76 1375.6 1851.76 Q1370.7 1851.76 1367.74 1854.53 Q1364.81 1857.3 1364.36 1862.33 L1385.24 1862.29 Z" fill="#000000" fill-rule="nonzero" fill-opacity="1" /><path clip-path="url(#clip420)" d="M1435.5 1833.84 Q1431.23 1841.16 1429.16 1848.32 Q1427.1 1855.48 1427.1 1862.84 Q1427.1 1870.19 1429.16 1877.41 Q1431.27 1884.61 1435.5 1891.89 L1430.41 1891.89 Q1425.63 1884.41 1423.24 1877.19 Q1420.89 1869.96 1420.89 1862.84 Q1420.89 1855.74 1423.24 1848.54 Q1425.6 1841.35 1430.41 1833.84 L1435.5 1833.84 Z" fill="#000000" fill-rule="nonzero" fill-opacity="1" /><path clip-path="url(#clip420)" d="M1470.32 1853.06 L1470.32 1833.78 L1476.18 1833.78 L1476.18 1883.3 L1470.32 1883.3 L1470.32 1877.95 Q1468.47 1881.14 1465.64 1882.7 Q1462.84 1884.22 1458.89 1884.22 Q1452.43 1884.22 1448.36 1879.07 Q1444.31 1873.91 1444.31 1865.51 Q1444.31 1857.11 1448.36 1851.95 Q1452.43 1846.79 1458.89 1846.79 Q1462.84 1846.79 1465.64 1848.35 Q1468.47 1849.88 1470.32 1853.06 M1450.36 1865.51 Q1450.36 1871.97 1453 1875.66 Q1455.68 1879.32 1460.32 1879.32 Q1464.97 1879.32 1467.65 1875.66 Q1470.32 1871.97 1470.32 1865.51 Q1470.32 1859.05 1467.65 1855.39 Q1464.97 1851.7 1460.32 1851.7 Q1455.68 1851.7 1453 1855.39 Q1450.36 1859.05 1450.36 1865.51 Z" fill="#000000" fill-rule="nonzero" fill-opacity="1" /><path clip-path="url(#clip420)" d="M1504.44 1865.38 Q1497.34 1865.38 1494.6 1867 Q1491.87 1868.63 1491.87 1872.54 Q1491.87 1875.66 1493.9 1877.51 Q1495.97 1879.32 1499.51 1879.32 Q1504.38 1879.32 1507.3 1875.88 Q1510.26 1872.42 1510.26 1866.69 L1510.26 1865.38 L1504.44 1865.38 M1516.12 1862.96 L1516.12 1883.3 L1510.26 1883.3 L1510.26 1877.89 Q1508.26 1881.14 1505.27 1882.7 Q1502.27 1884.22 1497.95 1884.22 Q1492.47 1884.22 1489.22 1881.17 Q1486.01 1878.08 1486.01 1872.92 Q1486.01 1866.91 1490.02 1863.85 Q1494.06 1860.8 1502.05 1860.8 L1510.26 1860.8 L1510.26 1860.23 Q1510.26 1856.18 1507.59 1853.99 Q1504.95 1851.76 1500.14 1851.76 Q1497.09 1851.76 1494.19 1852.49 Q1491.29 1853.22 1488.62 1854.69 L1488.62 1849.28 Q1491.83 1848.03 1494.86 1847.43 Q1497.88 1846.79 1500.75 1846.79 Q1508.48 1846.79 1512.3 1850.8 Q1516.12 1854.81 1516.12 1862.96 Z" fill="#000000" fill-rule="nonzero" fill-opacity="1" /><path clip-path="url(#clip420)" d="M1543.02 1886.61 Q1540.53 1892.98 1538.18 1894.92 Q1535.82 1896.86 1531.88 1896.86 L1527.2 1896.86 L1527.2 1891.96 L1530.63 1891.96 Q1533.05 1891.96 1534.39 1890.81 Q1535.73 1889.67 1537.35 1885.4 L1538.4 1882.73 L1523.98 1847.65 L1530.19 1847.65 L1541.33 1875.53 L1552.47 1847.65 L1558.67 1847.65 L1543.02 1886.61 Z" fill="#000000" fill-rule="nonzero" fill-opacity="1" /><path clip-path="url(#clip420)" d="M1589.48 1848.7 L1589.48 1854.24 Q1587 1852.97 1584.33 1852.33 Q1581.65 1851.7 1578.79 1851.7 Q1574.43 1851.7 1572.23 1853.03 Q1570.07 1854.37 1570.07 1857.04 Q1570.07 1859.08 1571.63 1860.26 Q1573.19 1861.4 1577.9 1862.45 L1579.9 1862.9 Q1586.14 1864.24 1588.75 1866.69 Q1591.39 1869.11 1591.39 1873.47 Q1591.39 1878.43 1587.45 1881.33 Q1583.53 1884.22 1576.66 1884.22 Q1573.79 1884.22 1570.67 1883.65 Q1567.59 1883.11 1564.15 1882 L1564.15 1875.95 Q1567.4 1877.64 1570.55 1878.49 Q1573.7 1879.32 1576.79 1879.32 Q1580.92 1879.32 1583.15 1877.92 Q1585.38 1876.49 1585.38 1873.91 Q1585.38 1871.52 1583.76 1870.25 Q1582.16 1868.98 1576.72 1867.8 L1574.68 1867.32 Q1569.24 1866.18 1566.82 1863.82 Q1564.4 1861.43 1564.4 1857.3 Q1564.4 1852.27 1567.97 1849.53 Q1571.53 1846.79 1578.09 1846.79 Q1581.34 1846.79 1584.2 1847.27 Q1587.07 1847.75 1589.48 1848.7 Z" fill="#000000" fill-rule="nonzero" fill-opacity="1" /><path clip-path="url(#clip420)" d="M1599.8 1833.84 L1604.89 1833.84 Q1609.66 1841.35 1612.02 1848.54 Q1614.41 1855.74 1614.41 1862.84 Q1614.41 1869.96 1612.02 1877.19 Q1609.66 1884.41 1604.89 1891.89 L1599.8 1891.89 Q1604.03 1884.61 1606.1 1877.41 Q1608.2 1870.19 1608.2 1862.84 Q1608.2 1855.48 1606.1 1848.32 Q1604.03 1841.16 1599.8 1833.84 Z" fill="#000000" fill-rule="nonzero" fill-opacity="1" /><polyline clip-path="url(#clip420)" style="stroke:#000000; stroke-linecap:round; stroke-linejoin:round; stroke-width:4; stroke-opacity:1; fill:none" points="208.502,1734.12 208.502,127.792 "/>
<polyline clip-path="url(#clip420)" style="stroke:#000000; stroke-linecap:round; stroke-linejoin:round; stroke-width:4; stroke-opacity:1; fill:none" points="208.502,1688.65 227.399,1688.65 "/>
<polyline clip-path="url(#clip420)" style="stroke:#000000; stroke-linecap:round; stroke-linejoin:round; stroke-width:4; stroke-opacity:1; fill:none" points="208.502,1460.19 227.399,1460.19 "/>
<polyline clip-path="url(#clip420)" style="stroke:#000000; stroke-linecap:round; stroke-linejoin:round; stroke-width:4; stroke-opacity:1; fill:none" points="208.502,1231.72 227.399,1231.72 "/>
<polyline clip-path="url(#clip420)" style="stroke:#000000; stroke-linecap:round; stroke-linejoin:round; stroke-width:4; stroke-opacity:1; fill:none" points="208.502,1003.25 227.399,1003.25 "/>
<polyline clip-path="url(#clip420)" style="stroke:#000000; stroke-linecap:round; stroke-linejoin:round; stroke-width:4; stroke-opacity:1; fill:none" points="208.502,774.782 227.399,774.782 "/>
<polyline clip-path="url(#clip420)" style="stroke:#000000; stroke-linecap:round; stroke-linejoin:round; stroke-width:4; stroke-opacity:1; fill:none" points="208.502,546.314 227.399,546.314 "/>
<polyline clip-path="url(#clip420)" style="stroke:#000000; stroke-linecap:round; stroke-linejoin:round; stroke-width:4; stroke-opacity:1; fill:none" points="208.502,317.846 227.399,317.846 "/>
<path clip-path="url(#clip420)" d="M156.237 1674.45 Q152.626 1674.45 150.798 1678.02 Q148.992 1681.56 148.992 1688.69 Q148.992 1695.8 150.798 1699.36 Q152.626 1702.9 156.237 1702.9 Q159.872 1702.9 161.677 1699.36 Q163.506 1695.8 163.506 1688.69 Q163.506 1681.56 161.677 1678.02 Q159.872 1674.45 156.237 1674.45 M156.237 1670.75 Q162.048 1670.75 165.103 1675.36 Q168.182 1679.94 168.182 1688.69 Q168.182 1697.42 165.103 1702.02 Q162.048 1706.61 156.237 1706.61 Q150.427 1706.61 147.349 1702.02 Q144.293 1697.42 144.293 1688.69 Q144.293 1679.94 147.349 1675.36 Q150.427 1670.75 156.237 1670.75 Z" fill="#000000" fill-rule="nonzero" fill-opacity="1" /><path clip-path="url(#clip420)" d="M151.862 1473.53 L168.182 1473.53 L168.182 1477.47 L146.237 1477.47 L146.237 1473.53 Q148.899 1470.78 153.483 1466.15 Q158.089 1461.49 159.27 1460.15 Q161.515 1457.63 162.395 1455.89 Q163.298 1454.13 163.298 1452.44 Q163.298 1449.69 161.353 1447.95 Q159.432 1446.22 156.33 1446.22 Q154.131 1446.22 151.677 1446.98 Q149.247 1447.74 146.469 1449.3 L146.469 1444.57 Q149.293 1443.44 151.747 1442.86 Q154.2 1442.28 156.237 1442.28 Q161.608 1442.28 164.802 1444.97 Q167.997 1447.65 167.997 1452.14 Q167.997 1454.27 167.186 1456.19 Q166.399 1458.09 164.293 1460.68 Q163.714 1461.36 160.612 1464.57 Q157.511 1467.77 151.862 1473.53 Z" fill="#000000" fill-rule="nonzero" fill-opacity="1" /><path clip-path="url(#clip420)" d="M158.598 1218.51 L146.793 1236.96 L158.598 1236.96 L158.598 1218.51 M157.372 1214.44 L163.251 1214.44 L163.251 1236.96 L168.182 1236.96 L168.182 1240.85 L163.251 1240.85 L163.251 1249 L158.598 1249 L158.598 1240.85 L142.997 1240.85 L142.997 1236.34 L157.372 1214.44 Z" fill="#000000" fill-rule="nonzero" fill-opacity="1" /><path clip-path="url(#clip420)" d="M156.654 1001.39 Q153.506 1001.39 151.654 1003.54 Q149.825 1005.69 149.825 1009.44 Q149.825 1013.17 151.654 1015.35 Q153.506 1017.5 156.654 1017.5 Q159.802 1017.5 161.631 1015.35 Q163.483 1013.17 163.483 1009.44 Q163.483 1005.69 161.631 1003.54 Q159.802 1001.39 156.654 1001.39 M165.936 986.734 L165.936 990.993 Q164.177 990.16 162.372 989.72 Q160.589 989.28 158.83 989.28 Q154.2 989.28 151.747 992.405 Q149.316 995.53 148.969 1001.85 Q150.335 999.836 152.395 998.771 Q154.455 997.683 156.932 997.683 Q162.14 997.683 165.149 1000.85 Q168.182 1004 168.182 1009.44 Q168.182 1014.77 165.034 1017.98 Q161.885 1021.2 156.654 1021.2 Q150.659 1021.2 147.487 1016.62 Q144.316 1012.01 144.316 1003.28 Q144.316 995.091 148.205 990.23 Q152.094 985.345 158.645 985.345 Q160.404 985.345 162.186 985.692 Q163.992 986.04 165.936 986.734 Z" fill="#000000" fill-rule="nonzero" fill-opacity="1" /><path clip-path="url(#clip420)" d="M156.33 775.65 Q152.997 775.65 151.075 777.432 Q149.177 779.215 149.177 782.34 Q149.177 785.465 151.075 787.247 Q152.997 789.03 156.33 789.03 Q159.663 789.03 161.585 787.247 Q163.506 785.442 163.506 782.34 Q163.506 779.215 161.585 777.432 Q159.686 775.65 156.33 775.65 M151.654 773.659 Q148.645 772.919 146.955 770.858 Q145.288 768.798 145.288 765.835 Q145.288 761.692 148.228 759.284 Q151.191 756.877 156.33 756.877 Q161.492 756.877 164.432 759.284 Q167.372 761.692 167.372 765.835 Q167.372 768.798 165.682 770.858 Q164.015 772.919 161.029 773.659 Q164.409 774.446 166.284 776.738 Q168.182 779.03 168.182 782.34 Q168.182 787.363 165.103 790.048 Q162.048 792.733 156.33 792.733 Q150.612 792.733 147.534 790.048 Q144.478 787.363 144.478 782.34 Q144.478 779.03 146.376 776.738 Q148.274 774.446 151.654 773.659 M149.941 766.275 Q149.941 768.96 151.608 770.465 Q153.298 771.97 156.33 771.97 Q159.339 771.97 161.029 770.465 Q162.742 768.96 162.742 766.275 Q162.742 763.59 161.029 762.085 Q159.339 760.581 156.33 760.581 Q153.298 760.581 151.608 762.085 Q149.941 763.59 149.941 766.275 Z" fill="#000000" fill-rule="nonzero" fill-opacity="1" /><path clip-path="url(#clip420)" d="M116.886 559.659 L124.525 559.659 L124.525 533.293 L116.214 534.96 L116.214 530.7 L124.478 529.034 L129.154 529.034 L129.154 559.659 L136.793 559.659 L136.793 563.594 L116.886 563.594 L116.886 559.659 Z" fill="#000000" fill-rule="nonzero" fill-opacity="1" /><path clip-path="url(#clip420)" d="M156.237 532.113 Q152.626 532.113 150.798 535.677 Q148.992 539.219 148.992 546.349 Q148.992 553.455 150.798 557.02 Q152.626 560.561 156.237 560.561 Q159.872 560.561 161.677 557.02 Q163.506 553.455 163.506 546.349 Q163.506 539.219 161.677 535.677 Q159.872 532.113 156.237 532.113 M156.237 528.409 Q162.048 528.409 165.103 533.015 Q168.182 537.599 168.182 546.349 Q168.182 555.075 165.103 559.682 Q162.048 564.265 156.237 564.265 Q150.427 564.265 147.349 559.682 Q144.293 555.075 144.293 546.349 Q144.293 537.599 147.349 533.015 Q150.427 528.409 156.237 528.409 Z" fill="#000000" fill-rule="nonzero" fill-opacity="1" /><path clip-path="url(#clip420)" d="M118.483 331.19 L126.122 331.19 L126.122 304.825 L117.812 306.491 L117.812 302.232 L126.076 300.566 L130.751 300.566 L130.751 331.19 L138.39 331.19 L138.39 335.126 L118.483 335.126 L118.483 331.19 Z" fill="#000000" fill-rule="nonzero" fill-opacity="1" /><path clip-path="url(#clip420)" d="M151.862 331.19 L168.182 331.19 L168.182 335.126 L146.237 335.126 L146.237 331.19 Q148.899 328.436 153.483 323.806 Q158.089 319.153 159.27 317.811 Q161.515 315.288 162.395 313.552 Q163.298 311.792 163.298 310.103 Q163.298 307.348 161.353 305.612 Q159.432 303.876 156.33 303.876 Q154.131 303.876 151.677 304.64 Q149.247 305.404 146.469 306.954 L146.469 302.232 Q149.293 301.098 151.747 300.519 Q154.2 299.941 156.237 299.941 Q161.608 299.941 164.802 302.626 Q167.997 305.311 167.997 309.802 Q167.997 311.931 167.186 313.853 Q166.399 315.751 164.293 318.343 Q163.714 319.015 160.612 322.232 Q157.511 325.427 151.862 331.19 Z" fill="#000000" fill-rule="nonzero" fill-opacity="1" /><path clip-path="url(#clip420)" d="M14.1184 1058.03 L14.1184 1051.6 L61.6384 1051.6 L61.6384 1058.03 L14.1184 1058.03 Z" fill="#000000" fill-rule="nonzero" fill-opacity="1" /><path clip-path="url(#clip420)" d="M40.1224 1009.43 L61.6384 1009.43 L61.6384 1015.28 L40.3133 1015.28 Q35.2526 1015.28 32.7381 1017.26 Q30.2237 1019.23 30.2237 1023.18 Q30.2237 1027.92 33.2474 1030.66 Q36.2711 1033.39 41.491 1033.39 L61.6384 1033.39 L61.6384 1039.28 L25.9905 1039.28 L25.9905 1033.39 L31.5287 1033.39 Q28.314 1031.29 26.7225 1028.46 Q25.1311 1025.6 25.1311 1021.87 Q25.1311 1015.73 28.9505 1012.58 Q32.7381 1009.43 40.1224 1009.43 Z" fill="#000000" fill-rule="nonzero" fill-opacity="1" /><path clip-path="url(#clip420)" d="M12.1132 979.7 L16.983 979.7 L16.983 985.302 Q16.983 988.453 18.2562 989.694 Q19.5293 990.904 22.8395 990.904 L25.9905 990.904 L25.9905 981.26 L30.542 981.26 L30.542 990.904 L61.6384 990.904 L61.6384 996.792 L30.542 996.792 L30.542 1002.39 L25.9905 1002.39 L25.9905 996.792 L23.5079 996.792 Q17.5559 996.792 14.8505 994.023 Q12.1132 991.254 12.1132 985.238 L12.1132 979.7 Z" fill="#000000" fill-rule="nonzero" fill-opacity="1" /><path clip-path="url(#clip420)" d="M42.3504 944.307 L45.2149 944.307 L45.2149 971.234 Q51.2623 970.852 54.4452 967.605 Q57.5962 964.327 57.5962 958.502 Q57.5962 955.128 56.7687 951.977 Q55.9411 948.794 54.2861 945.675 L59.8242 945.675 Q61.161 948.826 61.8612 952.136 Q62.5615 955.447 62.5615 958.852 Q62.5615 967.382 57.5962 972.379 Q52.631 977.345 44.1646 977.345 Q35.4117 977.345 30.2873 972.634 Q25.1311 967.892 25.1311 959.871 Q25.1311 952.678 29.7781 948.508 Q34.3932 944.307 42.3504 944.307 M40.6316 950.163 Q35.8255 950.227 32.9609 952.869 Q30.0964 955.478 30.0964 959.807 Q30.0964 964.709 32.8654 967.669 Q35.6345 970.597 40.6634 971.043 L40.6316 950.163 Z" fill="#000000" fill-rule="nonzero" fill-opacity="1" /><path clip-path="url(#clip420)" d="M27.3591 909.041 L32.8336 909.041 Q31.465 911.523 30.7966 914.038 Q30.0964 916.52 30.0964 919.067 Q30.0964 924.764 33.7248 927.915 Q37.3214 931.066 43.8463 931.066 Q50.3711 931.066 53.9996 927.915 Q57.5962 924.764 57.5962 919.067 Q57.5962 916.52 56.9278 914.038 Q56.2276 911.523 54.859 909.041 L60.2698 909.041 Q61.4156 911.491 61.9886 914.133 Q62.5615 916.743 62.5615 919.703 Q62.5615 927.756 57.5007 932.498 Q52.44 937.241 43.8463 937.241 Q35.1253 937.241 30.1282 932.466 Q25.1311 927.66 25.1311 919.321 Q25.1311 916.616 25.704 914.038 Q26.2451 911.46 27.3591 909.041 Z" fill="#000000" fill-rule="nonzero" fill-opacity="1" /><path clip-path="url(#clip420)" d="M15.869 893.063 L25.9905 893.063 L25.9905 881 L30.542 881 L30.542 893.063 L49.8937 893.063 Q54.2542 893.063 55.4955 891.885 Q56.7368 890.676 56.7368 887.015 L56.7368 881 L61.6384 881 L61.6384 887.015 Q61.6384 893.795 59.124 896.373 Q56.5777 898.951 49.8937 898.951 L30.542 898.951 L30.542 903.248 L25.9905 903.248 L25.9905 898.951 L15.869 898.951 L15.869 893.063 Z" fill="#000000" fill-rule="nonzero" fill-opacity="1" /><path clip-path="url(#clip420)" d="M42.3504 842.805 L45.2149 842.805 L45.2149 869.732 Q51.2623 869.35 54.4452 866.104 Q57.5962 862.826 57.5962 857.001 Q57.5962 853.627 56.7687 850.476 Q55.9411 847.293 54.2861 844.174 L59.8242 844.174 Q61.161 847.325 61.8612 850.635 Q62.5615 853.945 62.5615 857.351 Q62.5615 865.881 57.5962 870.878 Q52.631 875.843 44.1646 875.843 Q35.4117 875.843 30.2873 871.133 Q25.1311 866.39 25.1311 858.37 Q25.1311 851.176 29.7781 847.007 Q34.3932 842.805 42.3504 842.805 M40.6316 848.662 Q35.8255 848.726 32.9609 851.367 Q30.0964 853.977 30.0964 858.306 Q30.0964 863.208 32.8654 866.168 Q35.6345 869.096 40.6634 869.541 L40.6316 848.662 Z" fill="#000000" fill-rule="nonzero" fill-opacity="1" /><path clip-path="url(#clip420)" d="M31.4013 809.736 L12.1132 809.736 L12.1132 803.879 L61.6384 803.879 L61.6384 809.736 L56.2912 809.736 Q59.4741 811.582 61.0337 814.414 Q62.5615 817.215 62.5615 821.162 Q62.5615 827.623 57.4052 831.697 Q52.249 835.739 43.8463 835.739 Q35.4436 835.739 30.2873 831.697 Q25.1311 827.623 25.1311 821.162 Q25.1311 817.215 26.6907 814.414 Q28.2185 811.582 31.4013 809.736 M43.8463 829.692 Q50.3075 829.692 53.9996 827.05 Q57.6599 824.377 57.6599 819.73 Q57.6599 815.083 53.9996 812.409 Q50.3075 809.736 43.8463 809.736 Q37.3851 809.736 33.7248 812.409 Q30.0327 815.083 30.0327 819.73 Q30.0327 824.377 33.7248 827.05 Q37.3851 829.692 43.8463 829.692 Z" fill="#000000" fill-rule="nonzero" fill-opacity="1" /><path clip-path="url(#clip420)" d="M759.794 14.0809 L759.794 22.0612 Q755.136 19.8332 751.004 18.7395 Q746.872 17.6457 743.024 17.6457 Q736.34 17.6457 732.694 20.2383 Q729.089 22.8309 729.089 27.611 Q729.089 31.6214 731.479 33.6873 Q733.909 35.7128 740.634 36.9686 L745.576 37.9813 Q754.731 39.7232 759.065 44.1387 Q763.44 48.5136 763.44 55.8863 Q763.44 64.6767 757.526 69.2137 Q751.652 73.7508 740.269 73.7508 Q735.975 73.7508 731.114 72.7785 Q726.293 71.8063 721.108 69.9024 L721.108 61.4765 Q726.091 64.2716 730.871 65.6895 Q735.651 67.1073 740.269 67.1073 Q747.277 67.1073 751.085 64.3527 Q754.893 61.598 754.893 56.4939 Q754.893 52.0379 752.138 49.5264 Q749.424 47.0148 743.186 45.759 L738.203 44.7868 Q729.048 42.9639 724.957 39.075 Q720.865 35.1862 720.865 28.2591 Q720.865 20.2383 726.496 15.6203 Q732.167 11.0023 742.092 11.0023 Q746.345 11.0023 750.761 11.7719 Q755.176 12.5416 759.794 14.0809 Z" fill="#000000" fill-rule="nonzero" fill-opacity="1" /><path clip-path="url(#clip420)" d="M783.249 14.324 L783.249 27.2059 L798.602 27.2059 L798.602 32.9987 L783.249 32.9987 L783.249 57.6282 Q783.249 63.1779 784.748 64.7578 Q786.287 66.3376 790.946 66.3376 L798.602 66.3376 L798.602 72.576 L790.946 72.576 Q782.317 72.576 779.036 69.3758 Q775.755 66.1351 775.755 57.6282 L775.755 32.9987 L770.286 32.9987 L770.286 27.2059 L775.755 27.2059 L775.755 14.324 L783.249 14.324 Z" fill="#000000" fill-rule="nonzero" fill-opacity="1" /><path clip-path="url(#clip420)" d="M829.024 49.7694 Q819.991 49.7694 816.507 51.8354 Q813.023 53.9013 813.023 58.8839 Q813.023 62.8538 815.616 65.2034 Q818.249 67.5124 822.745 67.5124 Q828.943 67.5124 832.67 63.1374 Q836.438 58.7219 836.438 51.4303 L836.438 49.7694 L829.024 49.7694 M843.891 46.6907 L843.891 72.576 L836.438 72.576 L836.438 65.6895 Q833.885 69.8214 830.078 71.8063 Q826.27 73.7508 820.761 73.7508 Q813.793 73.7508 809.661 69.8619 Q805.57 65.9325 805.57 59.3701 Q805.57 51.7138 810.674 47.825 Q815.818 43.9361 825.986 43.9361 L836.438 43.9361 L836.438 43.2069 Q836.438 38.0623 833.035 35.2672 Q829.673 32.4315 823.556 32.4315 Q819.667 32.4315 815.98 33.3632 Q812.294 34.295 808.891 36.1584 L808.891 29.2718 Q812.983 27.692 816.831 26.9223 Q820.68 26.1121 824.325 26.1121 Q834.169 26.1121 839.03 31.2163 Q843.891 36.3204 843.891 46.6907 Z" fill="#000000" fill-rule="nonzero" fill-opacity="1" /><path clip-path="url(#clip420)" d="M885.534 34.1734 Q884.279 33.4443 882.78 33.1202 Q881.322 32.7556 879.539 32.7556 Q873.22 32.7556 869.817 36.8875 Q866.455 40.9789 866.455 48.6757 L866.455 72.576 L858.961 72.576 L858.961 27.2059 L866.455 27.2059 L866.455 34.2544 Q868.804 30.1225 872.572 28.1376 Q876.339 26.1121 881.727 26.1121 Q882.496 26.1121 883.428 26.2337 Q884.36 26.3147 885.494 26.5172 L885.534 34.1734 Z" fill="#000000" fill-rule="nonzero" fill-opacity="1" /><path clip-path="url(#clip420)" d="M911.663 12.096 L962.826 12.096 L962.826 18.9825 L941.356 18.9825 L941.356 72.576 L933.133 72.576 L933.133 18.9825 L911.663 18.9825 L911.663 12.096 Z" fill="#000000" fill-rule="nonzero" fill-opacity="1" /><path clip-path="url(#clip420)" d="M973.885 32.4315 Q967.889 32.4315 964.406 37.1306 Q960.922 41.7891 960.922 49.9314 Q960.922 58.0738 964.365 62.7728 Q967.849 67.4314 973.885 67.4314 Q979.84 67.4314 983.323 62.7323 Q986.807 58.0333 986.807 49.9314 Q986.807 41.8701 983.323 37.1711 Q979.84 32.4315 973.885 32.4315 M973.885 26.1121 Q983.607 26.1121 989.157 32.4315 Q994.706 38.7509 994.706 49.9314 Q994.706 61.0714 989.157 67.4314 Q983.607 73.7508 973.885 73.7508 Q964.122 73.7508 958.572 67.4314 Q953.063 61.0714 953.063 49.9314 Q953.063 38.7509 958.572 32.4315 Q964.122 26.1121 973.885 26.1121 Z" fill="#000000" fill-rule="nonzero" fill-opacity="1" /><path clip-path="url(#clip420)" d="M1014.27 65.7705 L1014.27 89.8329 L1006.78 89.8329 L1006.78 27.2059 L1014.27 27.2059 L1014.27 34.0924 Q1016.62 30.0415 1020.19 28.0971 Q1023.79 26.1121 1028.77 26.1121 Q1037.04 26.1121 1042.18 32.6746 Q1047.37 39.2371 1047.37 49.9314 Q1047.37 60.6258 1042.18 67.1883 Q1037.04 73.7508 1028.77 73.7508 Q1023.79 73.7508 1020.19 71.8063 Q1016.62 69.8214 1014.27 65.7705 M1039.63 49.9314 Q1039.63 41.7081 1036.23 37.0496 Q1032.87 32.3505 1026.95 32.3505 Q1021.04 32.3505 1017.63 37.0496 Q1014.27 41.7081 1014.27 49.9314 Q1014.27 58.1548 1017.63 62.8538 Q1021.04 67.5124 1026.95 67.5124 Q1032.87 67.5124 1036.23 62.8538 Q1039.63 58.1548 1039.63 49.9314 Z" fill="#000000" fill-rule="nonzero" fill-opacity="1" /><path clip-path="url(#clip420)" d="M1077.3 32.4315 Q1071.31 32.4315 1067.83 37.1306 Q1064.34 41.7891 1064.34 49.9314 Q1064.34 58.0738 1067.78 62.7728 Q1071.27 67.4314 1077.3 67.4314 Q1083.26 67.4314 1086.74 62.7323 Q1090.23 58.0333 1090.23 49.9314 Q1090.23 41.8701 1086.74 37.1711 Q1083.26 32.4315 1077.3 32.4315 M1077.3 26.1121 Q1087.03 26.1121 1092.58 32.4315 Q1098.13 38.7509 1098.13 49.9314 Q1098.13 61.0714 1092.58 67.4314 Q1087.03 73.7508 1077.3 73.7508 Q1067.54 73.7508 1061.99 67.4314 Q1056.48 61.0714 1056.48 49.9314 Q1056.48 38.7509 1061.99 32.4315 Q1067.54 26.1121 1077.3 26.1121 Z" fill="#000000" fill-rule="nonzero" fill-opacity="1" /><path clip-path="url(#clip420)" d="M1110.48 9.54393 L1117.93 9.54393 L1117.93 72.576 L1110.48 72.576 L1110.48 9.54393 Z" fill="#000000" fill-rule="nonzero" fill-opacity="1" /><path clip-path="url(#clip420)" d="M1151.11 32.4315 Q1145.12 32.4315 1141.63 37.1306 Q1138.15 41.7891 1138.15 49.9314 Q1138.15 58.0738 1141.59 62.7728 Q1145.08 67.4314 1151.11 67.4314 Q1157.07 67.4314 1160.55 62.7323 Q1164.03 58.0333 1164.03 49.9314 Q1164.03 41.8701 1160.55 37.1711 Q1157.07 32.4315 1151.11 32.4315 M1151.11 26.1121 Q1160.83 26.1121 1166.38 32.4315 Q1171.93 38.7509 1171.93 49.9314 Q1171.93 61.0714 1166.38 67.4314 Q1160.83 73.7508 1151.11 73.7508 Q1141.35 73.7508 1135.8 67.4314 Q1130.29 61.0714 1130.29 49.9314 Q1130.29 38.7509 1135.8 32.4315 Q1141.35 26.1121 1151.11 26.1121 Z" fill="#000000" fill-rule="nonzero" fill-opacity="1" /><path clip-path="url(#clip420)" d="M1214.14 49.3643 Q1214.14 41.2625 1210.78 36.8065 Q1207.46 32.3505 1201.42 32.3505 Q1195.43 32.3505 1192.07 36.8065 Q1188.74 41.2625 1188.74 49.3643 Q1188.74 57.4256 1192.07 61.8816 Q1195.43 66.3376 1201.42 66.3376 Q1207.46 66.3376 1210.78 61.8816 Q1214.14 57.4256 1214.14 49.3643 M1221.6 66.9452 Q1221.6 78.5308 1216.45 84.1616 Q1211.31 89.8329 1200.69 89.8329 Q1196.77 89.8329 1193.28 89.2252 Q1189.8 88.6581 1186.52 87.4428 L1186.52 80.1917 Q1189.8 81.9741 1193 82.8248 Q1196.2 83.6755 1199.52 83.6755 Q1206.85 83.6755 1210.5 79.8271 Q1214.14 76.0193 1214.14 68.282 L1214.14 64.5957 Q1211.83 68.6061 1208.23 70.5911 Q1204.62 72.576 1199.6 72.576 Q1191.26 72.576 1186.15 66.2161 Q1181.05 59.8562 1181.05 49.3643 Q1181.05 38.832 1186.15 32.472 Q1191.26 26.1121 1199.6 26.1121 Q1204.62 26.1121 1208.23 28.0971 Q1211.83 30.082 1214.14 34.0924 L1214.14 27.2059 L1221.6 27.2059 L1221.6 66.9452 Z" fill="#000000" fill-rule="nonzero" fill-opacity="1" /><path clip-path="url(#clip420)" d="M1255.83 76.7889 Q1252.67 84.8907 1249.67 87.3618 Q1246.67 89.8329 1241.65 89.8329 L1235.69 89.8329 L1235.69 83.5945 L1240.07 83.5945 Q1243.15 83.5945 1244.85 82.1361 Q1246.55 80.6778 1248.62 75.2496 L1249.95 71.8468 L1231.6 27.2059 L1239.5 27.2059 L1253.68 62.6918 L1267.86 27.2059 L1275.76 27.2059 L1255.83 76.7889 Z" fill="#000000" fill-rule="nonzero" fill-opacity="1" /><path clip-path="url(#clip420)" d="M1308.65 46.9338 L1383.51 46.9338 L1383.51 52.7671 L1308.65 52.7671 L1308.65 46.9338 Z" fill="#000000" fill-rule="nonzero" fill-opacity="1" /><path clip-path="url(#clip420)" d="M1422.08 12.096 L1430.26 12.096 L1430.26 72.576 L1422.08 72.576 L1422.08 12.096 Z" fill="#000000" fill-rule="nonzero" fill-opacity="1" /><path clip-path="url(#clip420)" d="M1483.93 45.1919 L1483.93 72.576 L1476.48 72.576 L1476.48 45.4349 Q1476.48 38.994 1473.97 35.7938 Q1471.46 32.5936 1466.43 32.5936 Q1460.4 32.5936 1456.91 36.4419 Q1453.43 40.2903 1453.43 46.9338 L1453.43 72.576 L1445.94 72.576 L1445.94 27.2059 L1453.43 27.2059 L1453.43 34.2544 Q1456.1 30.163 1459.71 28.1376 Q1463.36 26.1121 1468.1 26.1121 Q1475.91 26.1121 1479.92 30.9732 Q1483.93 35.7938 1483.93 45.1919 Z" fill="#000000" fill-rule="nonzero" fill-opacity="1" /><path clip-path="url(#clip420)" d="M1521.77 9.54393 L1521.77 15.7418 L1514.64 15.7418 Q1510.63 15.7418 1509.05 17.3622 Q1507.51 18.9825 1507.51 23.1955 L1507.51 27.2059 L1519.78 27.2059 L1519.78 32.9987 L1507.51 32.9987 L1507.51 72.576 L1500.02 72.576 L1500.02 32.9987 L1492.89 32.9987 L1492.89 27.2059 L1500.02 27.2059 L1500.02 24.0462 Q1500.02 16.471 1503.54 13.0277 Q1507.06 9.54393 1514.72 9.54393 L1521.77 9.54393 Z" fill="#000000" fill-rule="nonzero" fill-opacity="1" /><path clip-path="url(#clip420)" d="M1566.82 48.0275 L1566.82 51.6733 L1532.54 51.6733 Q1533.03 59.3701 1537.16 63.421 Q1541.34 67.4314 1548.75 67.4314 Q1553.04 67.4314 1557.05 66.3781 Q1561.1 65.3249 1565.07 63.2184 L1565.07 70.267 Q1561.06 71.9684 1556.85 72.8596 Q1552.64 73.7508 1548.3 73.7508 Q1537.45 73.7508 1531.09 67.4314 Q1524.77 61.1119 1524.77 50.3365 Q1524.77 39.1965 1530.76 32.6746 Q1536.8 26.1121 1547.01 26.1121 Q1556.16 26.1121 1561.47 32.0264 Q1566.82 37.9003 1566.82 48.0275 M1559.36 45.84 Q1559.28 39.7232 1555.92 36.0774 Q1552.6 32.4315 1547.09 32.4315 Q1540.85 32.4315 1537.08 35.9558 Q1533.36 39.4801 1532.79 45.8805 L1559.36 45.84 Z" fill="#000000" fill-rule="nonzero" fill-opacity="1" /><path clip-path="url(#clip420)" d="M1611.7 28.9478 L1611.7 35.9153 Q1608.54 34.1734 1605.34 33.3227 Q1602.18 32.4315 1598.94 32.4315 Q1591.69 32.4315 1587.68 37.0496 Q1583.67 41.6271 1583.67 49.9314 Q1583.67 58.2358 1587.68 62.8538 Q1591.69 67.4314 1598.94 67.4314 Q1602.18 67.4314 1605.34 66.5807 Q1608.54 65.6895 1611.7 63.9476 L1611.7 70.8341 Q1608.58 72.2924 1605.22 73.0216 Q1601.9 73.7508 1598.13 73.7508 Q1587.88 73.7508 1581.84 67.3098 Q1575.81 60.8689 1575.81 49.9314 Q1575.81 38.832 1581.88 32.472 Q1588 26.1121 1598.62 26.1121 Q1602.06 26.1121 1605.34 26.8413 Q1608.62 27.5299 1611.7 28.9478 Z" fill="#000000" fill-rule="nonzero" fill-opacity="1" /><path clip-path="url(#clip420)" d="M1632.04 14.324 L1632.04 27.2059 L1647.39 27.2059 L1647.39 32.9987 L1632.04 32.9987 L1632.04 57.6282 Q1632.04 63.1779 1633.53 64.7578 Q1635.07 66.3376 1639.73 66.3376 L1647.39 66.3376 L1647.39 72.576 L1639.73 72.576 Q1631.1 72.576 1627.82 69.3758 Q1624.54 66.1351 1624.54 57.6282 L1624.54 32.9987 L1619.07 32.9987 L1619.07 27.2059 L1624.54 27.2059 L1624.54 14.324 L1632.04 14.324 Z" fill="#000000" fill-rule="nonzero" fill-opacity="1" /><path clip-path="url(#clip420)" d="M1696 48.0275 L1696 51.6733 L1661.73 51.6733 Q1662.21 59.3701 1666.35 63.421 Q1670.52 67.4314 1677.93 67.4314 Q1682.23 67.4314 1686.24 66.3781 Q1690.29 65.3249 1694.26 63.2184 L1694.26 70.267 Q1690.25 71.9684 1686.03 72.8596 Q1681.82 73.7508 1677.49 73.7508 Q1666.63 73.7508 1660.27 67.4314 Q1653.95 61.1119 1653.95 50.3365 Q1653.95 39.1965 1659.95 32.6746 Q1665.98 26.1121 1676.19 26.1121 Q1685.35 26.1121 1690.65 32.0264 Q1696 37.9003 1696 48.0275 M1688.55 45.84 Q1688.46 39.7232 1685.1 36.0774 Q1681.78 32.4315 1676.27 32.4315 Q1670.03 32.4315 1666.27 35.9558 Q1662.54 39.4801 1661.97 45.8805 L1688.55 45.84 Z" fill="#000000" fill-rule="nonzero" fill-opacity="1" /><path clip-path="url(#clip420)" d="M1738.09 34.0924 L1738.09 9.54393 L1745.54 9.54393 L1745.54 72.576 L1738.09 72.576 L1738.09 65.7705 Q1735.74 69.8214 1732.13 71.8063 Q1728.57 73.7508 1723.55 73.7508 Q1715.32 73.7508 1710.14 67.1883 Q1704.99 60.6258 1704.99 49.9314 Q1704.99 39.2371 1710.14 32.6746 Q1715.32 26.1121 1723.55 26.1121 Q1728.57 26.1121 1732.13 28.0971 Q1735.74 30.0415 1738.09 34.0924 M1712.69 49.9314 Q1712.69 58.1548 1716.05 62.8538 Q1719.45 67.5124 1725.37 67.5124 Q1731.28 67.5124 1734.69 62.8538 Q1738.09 58.1548 1738.09 49.9314 Q1738.09 41.7081 1734.69 37.0496 Q1731.28 32.3505 1725.37 32.3505 Q1719.45 32.3505 1716.05 37.0496 Q1712.69 41.7081 1712.69 49.9314 Z" fill="#000000" fill-rule="nonzero" fill-opacity="1" /><path clip-path="url(#clip420)" d="M1819.84 49.9314 Q1819.84 41.7081 1816.43 37.0496 Q1813.07 32.3505 1807.16 32.3505 Q1801.24 32.3505 1797.84 37.0496 Q1794.48 41.7081 1794.48 49.9314 Q1794.48 58.1548 1797.84 62.8538 Q1801.24 67.5124 1807.16 67.5124 Q1813.07 67.5124 1816.43 62.8538 Q1819.84 58.1548 1819.84 49.9314 M1794.48 34.0924 Q1796.83 30.0415 1800.39 28.0971 Q1804 26.1121 1808.98 26.1121 Q1817.24 26.1121 1822.39 32.6746 Q1827.57 39.2371 1827.57 49.9314 Q1827.57 60.6258 1822.39 67.1883 Q1817.24 73.7508 1808.98 73.7508 Q1804 73.7508 1800.39 71.8063 Q1796.83 69.8214 1794.48 65.7705 L1794.48 72.576 L1786.98 72.576 L1786.98 9.54393 L1794.48 9.54393 L1794.48 34.0924 Z" fill="#000000" fill-rule="nonzero" fill-opacity="1" /><path clip-path="url(#clip420)" d="M1858.8 76.7889 Q1855.65 84.8907 1852.65 87.3618 Q1849.65 89.8329 1844.63 89.8329 L1838.67 89.8329 L1838.67 83.5945 L1843.05 83.5945 Q1846.13 83.5945 1847.83 82.1361 Q1849.53 80.6778 1851.59 75.2496 L1852.93 71.8468 L1834.58 27.2059 L1842.48 27.2059 L1856.66 62.6918 L1870.84 27.2059 L1878.74 27.2059 L1858.8 76.7889 Z" fill="#000000" fill-rule="nonzero" fill-opacity="1" /><path clip-path="url(#clip420)" d="M1923.9 18.8205 L1923.9 41.5461 L1934.19 41.5461 Q1939.9 41.5461 1943.02 38.5889 Q1946.14 35.6318 1946.14 30.163 Q1946.14 24.7348 1943.02 21.7777 Q1939.9 18.8205 1934.19 18.8205 L1923.9 18.8205 M1915.72 12.096 L1934.19 12.096 Q1944.36 12.096 1949.55 16.714 Q1954.77 21.2916 1954.77 30.163 Q1954.77 39.1155 1949.55 43.6931 Q1944.36 48.2706 1934.19 48.2706 L1923.9 48.2706 L1923.9 72.576 L1915.72 72.576 L1915.72 12.096 Z" fill="#000000" fill-rule="nonzero" fill-opacity="1" /><path clip-path="url(#clip420)" d="M1982.32 49.7694 Q1973.28 49.7694 1969.8 51.8354 Q1966.32 53.9013 1966.32 58.8839 Q1966.32 62.8538 1968.91 65.2034 Q1971.54 67.5124 1976.04 67.5124 Q1982.24 67.5124 1985.96 63.1374 Q1989.73 58.7219 1989.73 51.4303 L1989.73 49.7694 L1982.32 49.7694 M1997.18 46.6907 L1997.18 72.576 L1989.73 72.576 L1989.73 65.6895 Q1987.18 69.8214 1983.37 71.8063 Q1979.56 73.7508 1974.05 73.7508 Q1967.09 73.7508 1962.95 69.8619 Q1958.86 65.9325 1958.86 59.3701 Q1958.86 51.7138 1963.97 47.825 Q1969.11 43.9361 1979.28 43.9361 L1989.73 43.9361 L1989.73 43.2069 Q1989.73 38.0623 1986.33 35.2672 Q1982.96 32.4315 1976.85 32.4315 Q1972.96 32.4315 1969.27 33.3632 Q1965.59 34.295 1962.18 36.1584 L1962.18 29.2718 Q1966.28 27.692 1970.12 26.9223 Q1973.97 26.1121 1977.62 26.1121 Q1987.46 26.1121 1992.32 31.2163 Q1997.18 36.3204 1997.18 46.6907 Z" fill="#000000" fill-rule="nonzero" fill-opacity="1" /><path clip-path="url(#clip420)" d="M2019.91 14.324 L2019.91 27.2059 L2035.26 27.2059 L2035.26 32.9987 L2019.91 32.9987 L2019.91 57.6282 Q2019.91 63.1779 2021.41 64.7578 Q2022.95 66.3376 2027.61 66.3376 L2035.26 66.3376 L2035.26 72.576 L2027.61 72.576 Q2018.98 72.576 2015.7 69.3758 Q2012.42 66.1351 2012.42 57.6282 L2012.42 32.9987 L2006.95 32.9987 L2006.95 27.2059 L2012.42 27.2059 L2012.42 14.324 L2019.91 14.324 Z" fill="#000000" fill-rule="nonzero" fill-opacity="1" /><path clip-path="url(#clip420)" d="M2077.72 28.9478 L2077.72 35.9153 Q2074.56 34.1734 2071.36 33.3227 Q2068.2 32.4315 2064.96 32.4315 Q2057.7 32.4315 2053.69 37.0496 Q2049.68 41.6271 2049.68 49.9314 Q2049.68 58.2358 2053.69 62.8538 Q2057.7 67.4314 2064.96 67.4314 Q2068.2 67.4314 2071.36 66.5807 Q2074.56 65.6895 2077.72 63.9476 L2077.72 70.8341 Q2074.6 72.2924 2071.23 73.0216 Q2067.91 73.7508 2064.15 73.7508 Q2053.9 73.7508 2047.86 67.3098 Q2041.82 60.8689 2041.82 49.9314 Q2041.82 38.832 2047.9 32.472 Q2054.02 26.1121 2064.63 26.1121 Q2068.07 26.1121 2071.36 26.8413 Q2074.64 27.5299 2077.72 28.9478 Z" fill="#000000" fill-rule="nonzero" fill-opacity="1" /><path clip-path="url(#clip420)" d="M2128.39 45.1919 L2128.39 72.576 L2120.94 72.576 L2120.94 45.4349 Q2120.94 38.994 2118.43 35.7938 Q2115.92 32.5936 2110.89 32.5936 Q2104.86 32.5936 2101.37 36.4419 Q2097.89 40.2903 2097.89 46.9338 L2097.89 72.576 L2090.39 72.576 L2090.39 9.54393 L2097.89 9.54393 L2097.89 34.2544 Q2100.56 30.163 2104.17 28.1376 Q2107.81 26.1121 2112.55 26.1121 Q2120.37 26.1121 2124.38 30.9732 Q2128.39 35.7938 2128.39 45.1919 Z" fill="#000000" fill-rule="nonzero" fill-opacity="1" /><polyline clip-path="url(#clip421)" style="stroke:#0000ff; stroke-linecap:round; stroke-linejoin:round; stroke-width:4; stroke-opacity:1; fill:none" points="277.339,546.314 281.163,548.52 284.988,550.571 288.812,552.467 292.636,554.209 296.461,555.799 300.285,557.236 304.109,558.523 307.934,559.66 311.758,560.648 315.582,561.489 319.406,562.183 323.231,562.732 327.055,563.137 330.879,563.399 334.704,563.519 338.528,563.499 342.352,563.341 346.177,563.044 350.001,562.612 353.825,562.044 357.649,561.343 361.474,560.511 365.298,559.548 369.122,558.455 372.947,557.236 376.771,555.891 380.595,554.421 384.42,552.83 388.244,551.117 392.068,549.286 395.892,547.337 399.717,545.273 403.541,543.095 407.365,540.805 411.19,538.405 415.014,535.897 418.838,533.283 422.662,530.566 426.487,527.746 430.311,524.826 434.135,521.808 437.96,518.694 441.784,515.487 445.608,512.188 449.433,508.8 453.257,505.325 457.081,501.765 460.905,498.123 464.73,494.401 468.554,490.601 472.378,486.726 476.203,482.778 480.027,478.76 483.851,474.674 487.676,470.522 491.5,466.308 495.324,462.034 499.148,457.702 502.973,453.315 506.797,448.876 510.621,444.388 514.446,439.852 518.27,435.273 522.094,430.652 525.919,425.993 529.743,421.299 533.567,416.571 537.391,411.813 541.216,407.029 545.04,402.22 548.864,397.39 552.689,392.541 556.513,387.677 560.337,382.8 564.162,377.914 567.986,373.021 571.81,368.124 575.634,363.227 579.459,358.332 583.283,353.443 587.107,348.562 590.932,343.692 594.756,338.837 598.58,333.999 602.405,329.182 606.229,324.388 610.053,319.62 613.877,314.882 617.702,310.176 621.526,305.504 625.35,300.872 629.175,296.28 632.999,291.732 636.823,287.231 640.648,282.78 644.472,278.381 648.296,274.037 652.12,269.752 655.945,265.528 659.769,261.368 663.593,257.274 667.418,253.25 671.242,249.297 675.066,245.418 678.891,241.617 682.715,237.895 686.539,234.255 690.363,230.7 694.188,227.231 698.012,223.851 701.836,220.563 705.661,217.368 709.485,214.27 713.309,211.269 717.134,208.368 720.958,205.57 724.782,202.876 728.606,200.288 732.431,197.809 736.255,195.439 740.079,193.181 743.904,191.037 747.728,189.007 751.552,187.094 755.377,185.299 759.201,183.624 763.025,182.069 766.849,180.637 770.674,179.328 774.498,178.144 778.322,177.086 782.147,176.154 785.971,175.35 789.795,174.674 793.62,174.129 797.444,173.713 801.268,173.428 805.092,173.275 808.917,173.254 812.741,173.366 816.565,173.611 820.39,173.989 824.214,174.501 828.038,175.147 831.862,175.926 835.687,176.84 839.511,177.888 843.335,179.07 847.16,180.386 850.984,181.835 854.808,183.417 858.633,185.133 862.457,186.981 866.281,188.961 870.105,191.073 873.93,193.316 877.754,195.689 881.578,198.192 885.403,200.824 889.227,203.585 893.051,206.472 896.876,209.486 900.7,212.625 904.524,215.889 908.348,219.276 912.173,222.785 915.997,226.415 919.821,230.164 923.646,234.032 927.47,238.017 931.294,242.118 935.119,246.333 938.943,250.66 942.767,255.099 946.591,259.648 950.416,264.304 954.24,269.068 958.064,273.936 961.889,278.908 965.713,283.981 969.537,289.155 973.362,294.427 977.186,299.795 981.01,305.258 984.834,310.814 988.659,316.461 992.483,322.197 996.307,328.02 1000.13,333.929 1003.96,339.922 1007.78,345.996 1011.6,352.15 1015.43,358.381 1019.25,364.689 1023.08,371.07 1026.9,377.522 1030.73,384.045 1034.55,390.635 1038.37,397.292 1042.2,404.012 1046.02,410.794 1049.85,417.637 1053.67,424.537 1057.5,431.493 1061.32,438.504 1065.14,445.567 1068.97,452.68 1072.79,459.842 1076.62,467.05 1080.44,474.302 1084.27,481.596 1088.09,488.932 1091.91,496.306 1095.74,503.717 1099.56,511.162 1103.39,518.641 1107.21,526.151 1111.04,533.691 1114.86,541.258 1118.68,548.851 1122.51,556.468 1126.33,564.107 1130.16,571.767 1133.98,579.445 1137.81,587.141 1141.63,594.852 1145.46,602.577 1149.28,610.314 1153.1,618.062 1156.93,625.819 1160.75,633.583 1164.58,641.354 1168.4,649.128 1172.23,656.906 1176.05,664.685 1179.87,672.465 1183.7,680.242 1187.52,688.017 1191.35,695.788 1195.17,703.554 1199,711.312 1202.82,719.063 1206.64,726.804 1210.47,734.534 1214.29,742.253 1218.12,749.958 1221.94,757.65 1225.77,765.326 1229.59,772.985 1233.41,780.627 1237.24,788.251 1241.06,795.854 1244.89,803.437 1248.71,810.999 1252.54,818.537 1256.36,826.052 1260.18,833.543 1264.01,841.008 1267.83,848.447 1271.66,855.859 1275.48,863.243 1279.31,870.598 1283.13,877.924 1286.95,885.22 1290.78,892.484 1294.6,899.717 1298.43,906.918 1302.25,914.085 1306.08,921.219 1309.9,928.319 1313.72,935.384 1317.55,942.414 1321.37,949.407 1325.2,956.364 1329.02,963.285 1332.85,970.167 1336.67,977.012 1340.49,983.818 1344.32,990.586 1348.14,997.314 1351.97,1004 1355.79,1010.65 1359.62,1017.26 1363.44,1023.83 1367.26,1030.35 1371.09,1036.84 1374.91,1043.28 1378.74,1049.68 1382.56,1056.04 1386.39,1062.36 1390.21,1068.63 1394.03,1074.86 1397.86,1081.05 1401.68,1087.2 1405.51,1093.3 1409.33,1099.36 1413.16,1105.37 1416.98,1111.34 1420.8,1117.27 1424.63,1123.15 1428.45,1128.99 1432.28,1134.79 1436.1,1140.54 1439.93,1146.24 1443.75,1151.91 1447.57,1157.52 1451.4,1163.1 1455.22,1168.63 1459.05,1174.11 1462.87,1179.55 1466.7,1184.95 1470.52,1190.3 1474.34,1195.61 1478.17,1200.88 1481.99,1206.1 1485.82,1211.27 1489.64,1216.4 1493.47,1221.49 1497.29,1226.54 1501.11,1231.54 1504.94,1236.49 1508.76,1241.41 1512.59,1246.28 1516.41,1251.11 1520.24,1255.89 1524.06,1260.63 1527.88,1265.33 1531.71,1269.99 1535.53,1274.61 1539.36,1279.18 1543.18,1283.71 1547.01,1288.2 1550.83,1292.64 1554.65,1297.05 1558.48,1301.41 1562.3,1305.74 1566.13,1310.02 1569.95,1314.26 1573.78,1318.46 1577.6,1322.62 1581.43,1326.74 1585.25,1330.82 1589.07,1334.87 1592.9,1338.87 1596.72,1342.83 1600.55,1346.76 1604.37,1350.64 1608.2,1354.49 1612.02,1358.3 1615.84,1362.07 1619.67,1365.8 1623.49,1369.5 1627.32,1373.16 1631.14,1376.78 1634.97,1380.36 1638.79,1383.91 1642.61,1387.42 1646.44,1390.9 1650.26,1394.34 1654.09,1397.75 1657.91,1401.12 1661.74,1404.45 1665.56,1407.75 1669.38,1411.02 1673.21,1414.25 1677.03,1417.45 1680.86,1420.62 1684.68,1423.75 1688.51,1426.85 1692.33,1429.91 1696.15,1432.94 1699.98,1435.94 1703.8,1438.91 1707.63,1441.85 1711.45,1444.76 1715.28,1447.63 1719.1,1450.47 1722.92,1453.29 1726.75,1456.07 1730.57,1458.82 1734.4,1461.54 1738.22,1464.24 1742.05,1466.9 1745.87,1469.53 1749.69,1472.14 1753.52,1474.72 1757.34,1477.26 1761.17,1479.78 1764.99,1482.28 1768.82,1484.74 1772.64,1487.18 1776.46,1489.59 1780.29,1491.97 1784.11,1494.33 1787.94,1496.66 1791.76,1498.96 1795.59,1501.24 1799.41,1503.49 1803.23,1505.72 1807.06,1507.93 1810.88,1510.1 1814.71,1512.26 1818.53,1514.38 1822.36,1516.49 1826.18,1518.57 1830,1520.63 1833.83,1522.66 1837.65,1524.67 1841.48,1526.66 1845.3,1528.62 1849.13,1530.56 1852.95,1532.48 1856.77,1534.38 1860.6,1536.26 1864.42,1538.11 1868.25,1539.94 1872.07,1541.76 1875.9,1543.55 1879.72,1545.32 1883.54,1547.07 1887.37,1548.8 1891.19,1550.5 1895.02,1552.19 1898.84,1553.86 1902.67,1555.51 1906.49,1557.14 1910.31,1558.75 1914.14,1560.35 1917.96,1561.92 1921.79,1563.48 1925.61,1565.01 1929.44,1566.53 1933.26,1568.03 1937.08,1569.52 1940.91,1570.98 1944.73,1572.43 1948.56,1573.86 1952.38,1575.28 1956.21,1576.68 1960.03,1578.06 1963.85,1579.42 1967.68,1580.77 1971.5,1582.1 1975.33,1583.42 1979.15,1584.72 1982.98,1586.01 1986.8,1587.28 1990.63,1588.53 1994.45,1589.77 1998.27,1591 2002.1,1592.21 2005.92,1593.4 2009.75,1594.59 2013.57,1595.75 2017.4,1596.91 2021.22,1598.05 2025.04,1599.17 2028.87,1600.28 2032.69,1601.38 2036.52,1602.47 2040.34,1603.54 2044.17,1604.6 2047.99,1605.65 2051.81,1606.68 2055.64,1607.7 2059.46,1608.71 2063.29,1609.71 2067.11,1610.69 2070.94,1611.67 2074.76,1612.63 2078.58,1613.58 2082.41,1614.51 2086.23,1615.44 2090.06,1616.36 2093.88,1617.26 2097.71,1618.15 2101.53,1619.04 2105.35,1619.91 2109.18,1620.77 2113,1621.62 2116.83,1622.46 2120.65,1623.29 2124.48,1624.11 2128.3,1624.91 2132.12,1625.71 2135.95,1626.5 2139.77,1627.28 2143.6,1628.05 2147.42,1628.81 2151.25,1629.57 2155.07,1630.31 2158.89,1631.04 2162.72,1631.77 2166.54,1632.48 2170.37,1633.19 2174.19,1633.88 2178.02,1634.57 2181.84,1635.25 2185.66,1635.93 2189.49,1636.59 2193.31,1637.25 2197.14,1637.89 2200.96,1638.53 2204.79,1639.16 2208.61,1639.79 2212.43,1640.4 2216.26,1641.01 2220.08,1641.61 2223.91,1642.21 2227.73,1642.79 2231.56,1643.37 2235.38,1643.94 2239.2,1644.51 2243.03,1645.06 2246.85,1645.61 2250.68,1646.16 2254.5,1646.7 2258.33,1647.23 2262.15,1647.75 2265.97,1648.27 2269.8,1648.78 2273.62,1649.28 2277.45,1649.78 2281.27,1650.27 2285.1,1650.76 2288.92,1651.24 2292.74,1651.71 2296.57,1652.18 2300.39,1652.64 2304.22,1653.1 2308.04,1653.55 2311.87,1653.99 2315.69,1654.43 2319.51,1654.86 2323.34,1655.29 2327.16,1655.71 2330.99,1656.13 2334.81,1656.55 2338.64,1656.95 2342.46,1657.35 2346.28,1657.75 2350.11,1658.14 2353.93,1658.53 2357.76,1658.91 2361.58,1659.29 2365.41,1659.66 2369.23,1660.03 2373.05,1660.4 2376.88,1660.75 2380.7,1661.11 2384.53,1661.46 2388.35,1661.8 2392.18,1662.15 2396,1662.48 2399.83,1662.81 2403.65,1663.14 2407.47,1663.47 2411.3,1663.79 2415.12,1664.1 2418.95,1664.42 2422.77,1664.72 2426.6,1665.03 2430.42,1665.33 2434.24,1665.63 2438.07,1665.92 2441.89,1666.21 2445.72,1666.49 2449.54,1666.78 2453.37,1667.06 2457.19,1667.33 2461.01,1667.6 2464.84,1667.87 2468.66,1668.13 2472.49,1668.4 2476.31,1668.65 2480.14,1668.91 2483.96,1669.16 2487.78,1669.41 2491.61,1669.65 2495.43,1669.9 2499.26,1670.14 2503.08,1670.37 2506.91,1670.6 2510.73,1670.84 2514.55,1671.06 2518.38,1671.29 2522.2,1671.51 2526.03,1671.73 2529.85,1671.94 2533.68,1672.16 2537.5,1672.37 2541.32,1672.57 2545.15,1672.78 2548.97,1672.98 2552.8,1673.18 2556.62,1673.38 2560.45,1673.57 2564.27,1673.77 2568.09,1673.96 2571.92,1674.14 "/>
<polyline clip-path="url(#clip421)" style="stroke:#ff0000; stroke-linecap:round; stroke-linejoin:round; stroke-width:4; stroke-opacity:1; fill:none" points="277.339,1688.65 281.163,1677.36 284.988,1666.1 288.812,1654.87 292.636,1643.68 296.461,1632.51 300.285,1621.37 304.109,1610.26 307.934,1599.18 311.758,1588.13 315.582,1577.1 319.406,1566.1 323.231,1555.13 327.055,1544.18 330.879,1533.25 334.704,1522.35 338.528,1511.48 342.352,1500.62 346.177,1489.8 350.001,1478.99 353.825,1468.21 357.649,1457.45 361.474,1446.72 365.298,1436 369.122,1425.31 372.947,1414.65 376.771,1404 380.595,1393.38 384.42,1382.78 388.244,1372.2 392.068,1361.65 395.892,1351.12 399.717,1340.62 403.541,1330.13 407.365,1319.68 411.19,1309.24 415.014,1298.83 418.838,1288.45 422.662,1278.09 426.487,1267.76 430.311,1257.46 434.135,1247.18 437.96,1236.93 441.784,1226.71 445.608,1216.52 449.433,1206.36 453.257,1196.24 457.081,1186.14 460.905,1176.07 464.73,1166.04 468.554,1156.04 472.378,1146.08 476.203,1136.16 480.027,1126.27 483.851,1116.42 487.676,1106.61 491.5,1096.84 495.324,1087.11 499.148,1077.42 502.973,1067.78 506.797,1058.18 510.621,1048.63 514.446,1039.13 518.27,1029.67 522.094,1020.27 525.919,1010.91 529.743,1001.61 533.567,992.367 537.391,983.176 541.216,974.043 545.04,964.968 548.864,955.952 552.689,946.999 556.513,938.108 560.337,929.282 564.162,920.522 567.986,911.829 571.81,903.205 575.634,894.653 579.459,886.172 583.283,877.765 587.107,869.434 590.932,861.18 594.756,853.005 598.58,844.91 602.405,836.897 606.229,828.968 610.053,821.123 613.877,813.366 617.702,805.696 621.526,798.117 625.35,790.629 629.175,783.235 632.999,775.935 636.823,768.731 640.648,761.626 644.472,754.62 648.296,747.715 652.12,740.912 655.945,734.213 659.769,727.62 663.593,721.134 667.418,714.757 671.242,708.49 675.066,702.334 678.891,696.291 682.715,690.361 686.539,684.548 690.363,678.851 694.188,673.271 698.012,667.811 701.836,662.472 705.661,657.254 709.485,652.158 713.309,647.187 717.134,642.34 720.958,637.619 724.782,633.025 728.606,628.559 732.431,624.221 736.255,620.014 740.079,615.936 743.904,611.99 747.728,608.176 751.552,604.494 755.377,600.946 759.201,597.532 763.025,594.253 766.849,591.108 770.674,588.099 774.498,585.225 778.322,582.488 782.147,579.888 785.971,577.424 789.795,575.097 793.62,572.908 797.444,570.856 801.268,568.941 805.092,567.163 808.917,565.523 812.741,564.02 816.565,562.653 820.39,561.424 824.214,560.332 828.038,559.376 831.862,558.556 835.687,557.871 839.511,557.322 843.335,556.907 847.16,556.627 850.984,556.48 854.808,556.466 858.633,556.584 862.457,556.834 866.281,557.215 870.105,557.726 873.93,558.366 877.754,559.134 881.578,560.029 885.403,561.051 889.227,562.198 893.051,563.469 896.876,564.863 900.7,566.379 904.524,568.016 908.348,569.772 912.173,571.646 915.997,573.638 919.821,575.745 923.646,577.966 927.47,580.3 931.294,582.746 935.119,585.301 938.943,587.965 942.767,590.736 946.591,593.612 950.416,596.592 954.24,599.675 958.064,602.858 961.889,606.141 965.713,609.521 969.537,612.996 973.362,616.566 977.186,620.229 981.01,623.982 984.834,627.824 988.659,631.753 992.483,635.768 996.307,639.867 1000.13,644.047 1003.96,648.307 1007.78,652.646 1011.6,657.061 1015.43,661.552 1019.25,666.114 1023.08,670.748 1026.9,675.452 1030.73,680.222 1034.55,685.059 1038.37,689.959 1042.2,694.921 1046.02,699.944 1049.85,705.025 1053.67,710.162 1057.5,715.355 1061.32,720.6 1065.14,725.897 1068.97,731.243 1072.79,736.638 1076.62,742.077 1080.44,747.562 1084.27,753.088 1088.09,758.655 1091.91,764.261 1095.74,769.905 1099.56,775.584 1103.39,781.297 1107.21,787.042 1111.04,792.818 1114.86,798.623 1118.68,804.455 1122.51,810.313 1126.33,816.196 1130.16,822.101 1133.98,828.027 1137.81,833.973 1141.63,839.936 1145.46,845.917 1149.28,851.913 1153.1,857.922 1156.93,863.944 1160.75,869.977 1164.58,876.019 1168.4,882.069 1172.23,888.127 1176.05,894.189 1179.87,900.256 1183.7,906.326 1187.52,912.398 1191.35,918.47 1195.17,924.541 1199,930.61 1202.82,936.677 1206.64,942.739 1210.47,948.796 1214.29,954.846 1218.12,960.889 1221.94,966.923 1225.77,972.948 1229.59,978.962 1233.41,984.965 1237.24,990.956 1241.06,996.933 1244.89,1002.9 1248.71,1008.84 1252.54,1014.77 1256.36,1020.69 1260.18,1026.59 1264.01,1032.46 1267.83,1038.32 1271.66,1044.16 1275.48,1049.98 1279.31,1055.78 1283.13,1061.55 1286.95,1067.3 1290.78,1073.03 1294.6,1078.73 1298.43,1084.41 1302.25,1090.06 1306.08,1095.69 1309.9,1101.29 1313.72,1106.87 1317.55,1112.41 1321.37,1117.93 1325.2,1123.42 1329.02,1128.88 1332.85,1134.31 1336.67,1139.72 1340.49,1145.09 1344.32,1150.43 1348.14,1155.74 1351.97,1161.02 1355.79,1166.26 1359.62,1171.48 1363.44,1176.66 1367.26,1181.81 1371.09,1186.92 1374.91,1192.01 1378.74,1197.06 1382.56,1202.07 1386.39,1207.06 1390.21,1212 1394.03,1216.92 1397.86,1221.8 1401.68,1226.64 1405.51,1231.45 1409.33,1236.23 1413.16,1240.97 1416.98,1245.67 1420.8,1250.34 1424.63,1254.97 1428.45,1259.57 1432.28,1264.14 1436.1,1268.66 1439.93,1273.16 1443.75,1277.61 1447.57,1282.03 1451.4,1286.42 1455.22,1290.77 1459.05,1295.08 1462.87,1299.36 1466.7,1303.6 1470.52,1307.81 1474.34,1311.98 1478.17,1316.11 1481.99,1320.21 1485.82,1324.27 1489.64,1328.3 1493.47,1332.29 1497.29,1336.25 1501.11,1340.17 1504.94,1344.06 1508.76,1347.91 1512.59,1351.73 1516.41,1355.51 1520.24,1359.26 1524.06,1362.97 1527.88,1366.65 1531.71,1370.3 1535.53,1373.91 1539.36,1377.48 1543.18,1381.03 1547.01,1384.53 1550.83,1388.01 1554.65,1391.45 1558.48,1394.86 1562.3,1398.23 1566.13,1401.57 1569.95,1404.88 1573.78,1408.16 1577.6,1411.4 1581.43,1414.61 1585.25,1417.79 1589.07,1420.94 1592.9,1424.06 1596.72,1427.14 1600.55,1430.19 1604.37,1433.22 1608.2,1436.21 1612.02,1439.17 1615.84,1442.1 1619.67,1445 1623.49,1447.87 1627.32,1450.71 1631.14,1453.52 1634.97,1456.3 1638.79,1459.05 1642.61,1461.77 1646.44,1464.46 1650.26,1467.13 1654.09,1469.76 1657.91,1472.37 1661.74,1474.95 1665.56,1477.5 1669.38,1480.03 1673.21,1482.53 1677.03,1485 1680.86,1487.44 1684.68,1489.86 1688.51,1492.25 1692.33,1494.61 1696.15,1496.95 1699.98,1499.26 1703.8,1501.55 1707.63,1503.81 1711.45,1506.04 1715.28,1508.26 1719.1,1510.44 1722.92,1512.61 1726.75,1514.74 1730.57,1516.86 1734.4,1518.95 1738.22,1521.01 1742.05,1523.06 1745.87,1525.08 1749.69,1527.07 1753.52,1529.05 1757.34,1531 1761.17,1532.93 1764.99,1534.84 1768.82,1536.72 1772.64,1538.59 1776.46,1540.43 1780.29,1542.25 1784.11,1544.05 1787.94,1545.83 1791.76,1547.59 1795.59,1549.33 1799.41,1551.05 1803.23,1552.75 1807.06,1554.42 1810.88,1556.08 1814.71,1557.72 1818.53,1559.34 1822.36,1560.94 1826.18,1562.53 1830,1564.09 1833.83,1565.63 1837.65,1567.16 1841.48,1568.67 1845.3,1570.16 1849.13,1571.63 1852.95,1573.09 1856.77,1574.53 1860.6,1575.95 1864.42,1577.36 1868.25,1578.74 1872.07,1580.11 1875.9,1581.47 1879.72,1582.81 1883.54,1584.13 1887.37,1585.44 1891.19,1586.73 1895.02,1588 1898.84,1589.26 1902.67,1590.51 1906.49,1591.74 1910.31,1592.95 1914.14,1594.15 1917.96,1595.34 1921.79,1596.51 1925.61,1597.67 1929.44,1598.81 1933.26,1599.94 1937.08,1601.05 1940.91,1602.16 1944.73,1603.25 1948.56,1604.32 1952.38,1605.38 1956.21,1606.43 1960.03,1607.47 1963.85,1608.49 1967.68,1609.5 1971.5,1610.5 1975.33,1611.49 1979.15,1612.46 1982.98,1613.42 1986.8,1614.37 1990.63,1615.31 1994.45,1616.24 1998.27,1617.16 2002.1,1618.06 2005.92,1618.95 2009.75,1619.84 2013.57,1620.71 2017.4,1621.57 2021.22,1622.42 2025.04,1623.26 2028.87,1624.09 2032.69,1624.9 2036.52,1625.71 2040.34,1626.51 2044.17,1627.3 2047.99,1628.08 2051.81,1628.85 2055.64,1629.61 2059.46,1630.36 2063.29,1631.1 2067.11,1631.83 2070.94,1632.55 2074.76,1633.26 2078.58,1633.97 2082.41,1634.66 2086.23,1635.35 2090.06,1636.03 2093.88,1636.7 2097.71,1637.36 2101.53,1638.01 2105.35,1638.66 2109.18,1639.29 2113,1639.92 2116.83,1640.54 2120.65,1641.16 2124.48,1641.76 2128.3,1642.36 2132.12,1642.95 2135.95,1643.53 2139.77,1644.11 2143.6,1644.68 2147.42,1645.24 2151.25,1645.79 2155.07,1646.34 2158.89,1646.88 2162.72,1647.41 2166.54,1647.94 2170.37,1648.46 2174.19,1648.97 2178.02,1649.48 2181.84,1649.98 2185.66,1650.48 2189.49,1650.96 2193.31,1651.44 2197.14,1651.92 2200.96,1652.39 2204.79,1652.85 2208.61,1653.31 2212.43,1653.76 2216.26,1654.21 2220.08,1654.65 2223.91,1655.09 2227.73,1655.52 2231.56,1655.94 2235.38,1656.36 2239.2,1656.77 2243.03,1657.18 2246.85,1657.58 2250.68,1657.98 2254.5,1658.37 2258.33,1658.76 2262.15,1659.14 2265.97,1659.52 2269.8,1659.9 2273.62,1660.26 2277.45,1660.63 2281.27,1660.99 2285.1,1661.34 2288.92,1661.69 2292.74,1662.04 2296.57,1662.38 2300.39,1662.72 2304.22,1663.05 2308.04,1663.38 2311.87,1663.7 2315.69,1664.02 2319.51,1664.34 2323.34,1664.65 2327.16,1664.96 2330.99,1665.26 2334.81,1665.56 2338.64,1665.86 2342.46,1666.15 2346.28,1666.44 2350.11,1666.72 2353.93,1667 2357.76,1667.28 2361.58,1667.56 2365.41,1667.83 2369.23,1668.09 2373.05,1668.36 2376.88,1668.62 2380.7,1668.88 2384.53,1669.13 2388.35,1669.38 2392.18,1669.63 2396,1669.87 2399.83,1670.11 2403.65,1670.35 2407.47,1670.59 2411.3,1670.82 2415.12,1671.05 2418.95,1671.27 2422.77,1671.5 2426.6,1671.72 2430.42,1671.94 2434.24,1672.15 2438.07,1672.36 2441.89,1672.57 2445.72,1672.78 2449.54,1672.98 2453.37,1673.18 2457.19,1673.38 2461.01,1673.58 2464.84,1673.77 2468.66,1673.96 2472.49,1674.15 2476.31,1674.34 2480.14,1674.52 2483.96,1674.7 2487.78,1674.88 2491.61,1675.06 2495.43,1675.24 2499.26,1675.41 2503.08,1675.58 2506.91,1675.75 2510.73,1675.91 2514.55,1676.08 2518.38,1676.24 2522.2,1676.4 2526.03,1676.55 2529.85,1676.71 2533.68,1676.86 2537.5,1677.02 2541.32,1677.17 2545.15,1677.31 2548.97,1677.46 2552.8,1677.6 2556.62,1677.74 2560.45,1677.89 2564.27,1678.02 2568.09,1678.16 2571.92,1678.3 "/>
<polyline clip-path="url(#clip421)" style="stroke:#008000; stroke-linecap:round; stroke-linejoin:round; stroke-width:4; stroke-opacity:1; fill:none" points="277.339,1688.65 281.163,1677.36 284.988,1666.1 288.812,1654.87 292.636,1643.68 296.461,1632.51 300.285,1621.37 304.109,1610.26 307.934,1599.18 311.758,1588.13 315.582,1577.1 319.406,1566.1 323.231,1555.13 327.055,1544.18 330.879,1533.25 334.704,1522.35 338.528,1511.48 342.352,1500.62 346.177,1489.8 350.001,1478.99 353.825,1468.21 357.649,1457.45 361.474,1446.72 365.298,1436 369.122,1425.31 372.947,1414.65 376.771,1404 380.595,1393.38 384.42,1382.78 388.244,1372.2 392.068,1361.65 395.892,1351.12 399.717,1340.62 403.541,1330.13 407.365,1319.68 411.19,1309.24 415.014,1298.83 418.838,1288.45 422.662,1278.09 426.487,1267.76 430.311,1257.46 434.135,1247.18 437.96,1236.93 441.784,1226.71 445.608,1216.52 449.433,1206.36 453.257,1196.24 457.081,1186.14 460.905,1176.07 464.73,1166.04 468.554,1156.04 472.378,1146.08 476.203,1136.16 480.027,1126.27 483.851,1116.42 487.676,1106.61 491.5,1096.84 495.324,1087.11 499.148,1077.42 502.973,1067.78 506.797,1058.18 510.621,1048.63 514.446,1039.13 518.27,1029.67 522.094,1020.27 525.919,1010.91 529.743,1001.61 533.567,992.367 537.391,983.176 541.216,974.043 545.04,964.968 548.864,955.952 552.689,946.999 556.513,938.108 560.337,929.282 564.162,920.522 567.986,911.829 571.81,903.205 575.634,894.653 579.459,886.172 583.283,877.765 587.107,869.434 590.932,861.18 594.756,853.005 598.58,844.91 602.405,836.897 606.229,828.968 610.053,821.123 613.877,813.366 617.702,805.696 621.526,798.117 625.35,790.629 629.175,783.235 632.999,775.935 636.823,768.731 640.648,761.626 644.472,754.62 648.296,747.715 652.12,740.912 655.945,734.213 659.769,727.62 663.593,721.134 667.418,714.757 671.242,708.49 675.066,702.334 678.891,696.291 682.715,690.361 686.539,684.548 690.363,678.851 694.188,673.271 698.012,667.811 701.836,662.472 705.661,657.254 709.485,652.158 713.309,647.187 717.134,642.34 720.958,637.619 724.782,633.025 728.606,628.559 732.431,624.221 736.255,620.014 740.079,615.936 743.904,611.99 747.728,608.176 751.552,604.494 755.377,600.946 759.201,597.532 763.025,594.253 766.849,591.108 770.674,588.099 774.498,585.225 778.322,582.488 782.147,579.888 785.971,577.424 789.795,575.097 793.62,572.908 797.444,570.856 801.268,568.941 805.092,567.163 808.917,565.523 812.741,564.02 816.565,562.653 820.39,561.424 824.214,560.332 828.038,559.376 831.862,558.556 835.687,557.871 839.511,557.322 843.335,556.907 847.16,556.627 850.984,556.48 854.808,556.466 858.633,556.584 862.457,556.834 866.281,557.215 870.105,557.726 873.93,558.366 877.754,559.134 881.578,560.029 885.403,561.051 889.227,562.198 893.051,563.469 896.876,564.863 900.7,566.379 904.524,568.016 908.348,569.772 912.173,571.646 915.997,573.638 919.821,575.745 923.646,577.966 927.47,580.3 931.294,582.746 935.119,585.301 938.943,587.965 942.767,590.736 946.591,593.612 950.416,596.592 954.24,599.675 958.064,602.858 961.889,606.141 965.713,609.521 969.537,612.996 973.362,616.566 977.186,620.229 981.01,623.982 984.834,627.824 988.659,631.753 992.483,635.768 996.307,639.867 1000.13,644.047 1003.96,648.307 1007.78,652.646 1011.6,657.061 1015.43,661.552 1019.25,666.114 1023.08,670.748 1026.9,675.452 1030.73,680.222 1034.55,685.059 1038.37,689.959 1042.2,694.921 1046.02,699.944 1049.85,705.025 1053.67,710.162 1057.5,715.355 1061.32,720.6 1065.14,725.897 1068.97,731.243 1072.79,736.638 1076.62,742.077 1080.44,747.562 1084.27,753.088 1088.09,758.655 1091.91,764.261 1095.74,769.905 1099.56,775.584 1103.39,781.297 1107.21,787.042 1111.04,792.818 1114.86,798.623 1118.68,804.455 1122.51,810.313 1126.33,816.196 1130.16,822.101 1133.98,828.027 1137.81,833.973 1141.63,839.936 1145.46,845.917 1149.28,851.913 1153.1,857.922 1156.93,863.944 1160.75,869.977 1164.58,876.019 1168.4,882.069 1172.23,888.127 1176.05,894.189 1179.87,900.256 1183.7,906.326 1187.52,912.398 1191.35,918.47 1195.17,924.541 1199,930.61 1202.82,936.677 1206.64,942.739 1210.47,948.796 1214.29,954.846 1218.12,960.889 1221.94,966.923 1225.77,972.948 1229.59,978.962 1233.41,984.965 1237.24,990.956 1241.06,996.933 1244.89,1002.9 1248.71,1008.84 1252.54,1014.77 1256.36,1020.69 1260.18,1026.59 1264.01,1032.46 1267.83,1038.32 1271.66,1044.16 1275.48,1049.98 1279.31,1055.78 1283.13,1061.55 1286.95,1067.3 1290.78,1073.03 1294.6,1078.73 1298.43,1084.41 1302.25,1090.06 1306.08,1095.69 1309.9,1101.29 1313.72,1106.87 1317.55,1112.41 1321.37,1117.93 1325.2,1123.42 1329.02,1128.88 1332.85,1134.31 1336.67,1139.72 1340.49,1145.09 1344.32,1150.43 1348.14,1155.74 1351.97,1161.02 1355.79,1166.26 1359.62,1171.48 1363.44,1176.66 1367.26,1181.81 1371.09,1186.92 1374.91,1192.01 1378.74,1197.06 1382.56,1202.07 1386.39,1207.06 1390.21,1212 1394.03,1216.92 1397.86,1221.8 1401.68,1226.64 1405.51,1231.45 1409.33,1236.23 1413.16,1240.97 1416.98,1245.67 1420.8,1250.34 1424.63,1254.97 1428.45,1259.57 1432.28,1264.14 1436.1,1268.66 1439.93,1273.16 1443.75,1277.61 1447.57,1282.03 1451.4,1286.42 1455.22,1290.77 1459.05,1295.08 1462.87,1299.36 1466.7,1303.6 1470.52,1307.81 1474.34,1311.98 1478.17,1316.11 1481.99,1320.21 1485.82,1324.27 1489.64,1328.3 1493.47,1332.29 1497.29,1336.25 1501.11,1340.17 1504.94,1344.06 1508.76,1347.91 1512.59,1351.73 1516.41,1355.51 1520.24,1359.26 1524.06,1362.97 1527.88,1366.65 1531.71,1370.3 1535.53,1373.91 1539.36,1377.48 1543.18,1381.03 1547.01,1384.53 1550.83,1388.01 1554.65,1391.45 1558.48,1394.86 1562.3,1398.23 1566.13,1401.57 1569.95,1404.88 1573.78,1408.16 1577.6,1411.4 1581.43,1414.61 1585.25,1417.79 1589.07,1420.94 1592.9,1424.06 1596.72,1427.14 1600.55,1430.19 1604.37,1433.22 1608.2,1436.21 1612.02,1439.17 1615.84,1442.1 1619.67,1445 1623.49,1447.87 1627.32,1450.71 1631.14,1453.52 1634.97,1456.3 1638.79,1459.05 1642.61,1461.77 1646.44,1464.46 1650.26,1467.13 1654.09,1469.76 1657.91,1472.37 1661.74,1474.95 1665.56,1477.5 1669.38,1480.03 1673.21,1482.53 1677.03,1485 1680.86,1487.44 1684.68,1489.86 1688.51,1492.25 1692.33,1494.61 1696.15,1496.95 1699.98,1499.26 1703.8,1501.55 1707.63,1503.81 1711.45,1506.04 1715.28,1508.26 1719.1,1510.44 1722.92,1512.61 1726.75,1514.74 1730.57,1516.86 1734.4,1518.95 1738.22,1521.01 1742.05,1523.06 1745.87,1525.08 1749.69,1527.07 1753.52,1529.05 1757.34,1531 1761.17,1532.93 1764.99,1534.84 1768.82,1536.72 1772.64,1538.59 1776.46,1540.43 1780.29,1542.25 1784.11,1544.05 1787.94,1545.83 1791.76,1547.59 1795.59,1549.33 1799.41,1551.05 1803.23,1552.75 1807.06,1554.42 1810.88,1556.08 1814.71,1557.72 1818.53,1559.34 1822.36,1560.94 1826.18,1562.53 1830,1564.09 1833.83,1565.63 1837.65,1567.16 1841.48,1568.67 1845.3,1570.16 1849.13,1571.63 1852.95,1573.09 1856.77,1574.53 1860.6,1575.95 1864.42,1577.36 1868.25,1578.74 1872.07,1580.11 1875.9,1581.47 1879.72,1582.81 1883.54,1584.13 1887.37,1585.44 1891.19,1586.73 1895.02,1588 1898.84,1589.26 1902.67,1590.51 1906.49,1591.74 1910.31,1592.95 1914.14,1594.15 1917.96,1595.34 1921.79,1596.51 1925.61,1597.67 1929.44,1598.81 1933.26,1599.94 1937.08,1601.05 1940.91,1602.16 1944.73,1603.25 1948.56,1604.32 1952.38,1605.38 1956.21,1606.43 1960.03,1607.47 1963.85,1608.49 1967.68,1609.5 1971.5,1610.5 1975.33,1611.49 1979.15,1612.46 1982.98,1613.42 1986.8,1614.37 1990.63,1615.31 1994.45,1616.24 1998.27,1617.16 2002.1,1618.06 2005.92,1618.95 2009.75,1619.84 2013.57,1620.71 2017.4,1621.57 2021.22,1622.42 2025.04,1623.26 2028.87,1624.09 2032.69,1624.9 2036.52,1625.71 2040.34,1626.51 2044.17,1627.3 2047.99,1628.08 2051.81,1628.85 2055.64,1629.61 2059.46,1630.36 2063.29,1631.1 2067.11,1631.83 2070.94,1632.55 2074.76,1633.26 2078.58,1633.97 2082.41,1634.66 2086.23,1635.35 2090.06,1636.03 2093.88,1636.7 2097.71,1637.36 2101.53,1638.01 2105.35,1638.66 2109.18,1639.29 2113,1639.92 2116.83,1640.54 2120.65,1641.16 2124.48,1641.76 2128.3,1642.36 2132.12,1642.95 2135.95,1643.53 2139.77,1644.11 2143.6,1644.68 2147.42,1645.24 2151.25,1645.79 2155.07,1646.34 2158.89,1646.88 2162.72,1647.41 2166.54,1647.94 2170.37,1648.46 2174.19,1648.97 2178.02,1649.48 2181.84,1649.98 2185.66,1650.48 2189.49,1650.96 2193.31,1651.44 2197.14,1651.92 2200.96,1652.39 2204.79,1652.85 2208.61,1653.31 2212.43,1653.76 2216.26,1654.21 2220.08,1654.65 2223.91,1655.09 2227.73,1655.52 2231.56,1655.94 2235.38,1656.36 2239.2,1656.77 2243.03,1657.18 2246.85,1657.58 2250.68,1657.98 2254.5,1658.37 2258.33,1658.76 2262.15,1659.14 2265.97,1659.52 2269.8,1659.9 2273.62,1660.26 2277.45,1660.63 2281.27,1660.99 2285.1,1661.34 2288.92,1661.69 2292.74,1662.04 2296.57,1662.38 2300.39,1662.72 2304.22,1663.05 2308.04,1663.38 2311.87,1663.7 2315.69,1664.02 2319.51,1664.34 2323.34,1664.65 2327.16,1664.96 2330.99,1665.26 2334.81,1665.56 2338.64,1665.86 2342.46,1666.15 2346.28,1666.44 2350.11,1666.72 2353.93,1667 2357.76,1667.28 2361.58,1667.56 2365.41,1667.83 2369.23,1668.09 2373.05,1668.36 2376.88,1668.62 2380.7,1668.88 2384.53,1669.13 2388.35,1669.38 2392.18,1669.63 2396,1669.87 2399.83,1670.11 2403.65,1670.35 2407.47,1670.59 2411.3,1670.82 2415.12,1671.05 2418.95,1671.27 2422.77,1671.5 2426.6,1671.72 2430.42,1671.94 2434.24,1672.15 2438.07,1672.36 2441.89,1672.57 2445.72,1672.78 2449.54,1672.98 2453.37,1673.18 2457.19,1673.38 2461.01,1673.58 2464.84,1673.77 2468.66,1673.96 2472.49,1674.15 2476.31,1674.34 2480.14,1674.52 2483.96,1674.7 2487.78,1674.88 2491.61,1675.06 2495.43,1675.24 2499.26,1675.41 2503.08,1675.58 2506.91,1675.75 2510.73,1675.91 2514.55,1676.08 2518.38,1676.24 2522.2,1676.4 2526.03,1676.55 2529.85,1676.71 2533.68,1676.86 2537.5,1677.02 2541.32,1677.17 2545.15,1677.31 2548.97,1677.46 2552.8,1677.6 2556.62,1677.74 2560.45,1677.89 2564.27,1678.02 2568.09,1678.16 2571.92,1678.3 "/>
<path clip-path="url(#clip420)" d="M2264.3 388.696 L2559.68 388.696 L2559.68 181.336 L2264.3 181.336  Z" fill="#ffffff" fill-rule="evenodd" fill-opacity="1"/>
<polyline clip-path="url(#clip420)" style="stroke:#000000; stroke-linecap:round; stroke-linejoin:round; stroke-width:4; stroke-opacity:1; fill:none" points="2264.3,388.696 2559.68,388.696 2559.68,181.336 2264.3,181.336 2264.3,388.696 "/>
<polyline clip-path="url(#clip420)" style="stroke:#0000ff; stroke-linecap:round; stroke-linejoin:round; stroke-width:4; stroke-opacity:1; fill:none" points="2291.33,233.176 2453.48,233.176 "/>
<path clip-path="url(#clip420)" d="M2484.79 246.567 L2484.79 260.317 L2480.5 260.317 L2480.5 224.531 L2484.79 224.531 L2484.79 228.466 Q2486.13 226.151 2488.17 225.04 Q2490.23 223.906 2493.07 223.906 Q2497.79 223.906 2500.73 227.655 Q2503.7 231.405 2503.7 237.517 Q2503.7 243.628 2500.73 247.378 Q2497.79 251.128 2493.07 251.128 Q2490.23 251.128 2488.17 250.016 Q2486.13 248.882 2484.79 246.567 M2499.28 237.517 Q2499.28 232.817 2497.33 230.155 Q2495.41 227.47 2492.03 227.47 Q2488.65 227.47 2486.71 230.155 Q2484.79 232.817 2484.79 237.517 Q2484.79 242.216 2486.71 244.901 Q2488.65 247.563 2492.03 247.563 Q2495.41 247.563 2497.33 244.901 Q2499.28 242.216 2499.28 237.517 Z" fill="#000000" fill-rule="nonzero" fill-opacity="1" /><path clip-path="url(#clip420)" d="M2512.17 246.521 L2519.81 246.521 L2519.81 220.156 L2511.5 221.822 L2511.5 217.563 L2519.76 215.896 L2524.44 215.896 L2524.44 246.521 L2532.08 246.521 L2532.08 250.456 L2512.17 250.456 L2512.17 246.521 Z" fill="#000000" fill-rule="nonzero" fill-opacity="1" /><polyline clip-path="url(#clip420)" style="stroke:#ff0000; stroke-linecap:round; stroke-linejoin:round; stroke-width:4; stroke-opacity:1; fill:none" points="2291.33,285.016 2453.48,285.016 "/>
<path clip-path="url(#clip420)" d="M2484.79 298.407 L2484.79 312.157 L2480.5 312.157 L2480.5 276.371 L2484.79 276.371 L2484.79 280.306 Q2486.13 277.991 2488.17 276.88 Q2490.23 275.746 2493.07 275.746 Q2497.79 275.746 2500.73 279.495 Q2503.7 283.245 2503.7 289.357 Q2503.7 295.468 2500.73 299.218 Q2497.79 302.968 2493.07 302.968 Q2490.23 302.968 2488.17 301.856 Q2486.13 300.722 2484.79 298.407 M2499.28 289.357 Q2499.28 284.657 2497.33 281.995 Q2495.41 279.31 2492.03 279.31 Q2488.65 279.31 2486.71 281.995 Q2484.79 284.657 2484.79 289.357 Q2484.79 294.056 2486.71 296.741 Q2488.65 299.403 2492.03 299.403 Q2495.41 299.403 2497.33 296.741 Q2499.28 294.056 2499.28 289.357 Z" fill="#000000" fill-rule="nonzero" fill-opacity="1" /><path clip-path="url(#clip420)" d="M2515.39 298.361 L2531.71 298.361 L2531.71 302.296 L2509.76 302.296 L2509.76 298.361 Q2512.42 295.607 2517.01 290.977 Q2521.61 286.324 2522.79 284.982 Q2525.04 282.458 2525.92 280.722 Q2526.82 278.963 2526.82 277.273 Q2526.82 274.519 2524.88 272.783 Q2522.96 271.046 2519.85 271.046 Q2517.66 271.046 2515.2 271.81 Q2512.77 272.574 2509.99 274.125 L2509.99 269.403 Q2512.82 268.269 2515.27 267.69 Q2517.73 267.111 2519.76 267.111 Q2525.13 267.111 2528.33 269.796 Q2531.52 272.482 2531.52 276.972 Q2531.52 279.102 2530.71 281.023 Q2529.92 282.921 2527.82 285.514 Q2527.24 286.185 2524.14 289.403 Q2521.04 292.597 2515.39 298.361 Z" fill="#000000" fill-rule="nonzero" fill-opacity="1" /><polyline clip-path="url(#clip420)" style="stroke:#008000; stroke-linecap:round; stroke-linejoin:round; stroke-width:4; stroke-opacity:1; fill:none" points="2291.33,336.856 2453.48,336.856 "/>
<path clip-path="url(#clip420)" d="M2484.79 350.247 L2484.79 363.997 L2480.5 363.997 L2480.5 328.211 L2484.79 328.211 L2484.79 332.146 Q2486.13 329.831 2488.17 328.72 Q2490.23 327.586 2493.07 327.586 Q2497.79 327.586 2500.73 331.335 Q2503.7 335.085 2503.7 341.197 Q2503.7 347.308 2500.73 351.058 Q2497.79 354.808 2493.07 354.808 Q2490.23 354.808 2488.17 353.696 Q2486.13 352.562 2484.79 350.247 M2499.28 341.197 Q2499.28 336.497 2497.33 333.835 Q2495.41 331.15 2492.03 331.15 Q2488.65 331.15 2486.71 333.835 Q2484.79 336.497 2484.79 341.197 Q2484.79 345.896 2486.71 348.581 Q2488.65 351.243 2492.03 351.243 Q2495.41 351.243 2497.33 348.581 Q2499.28 345.896 2499.28 341.197 Z" fill="#000000" fill-rule="nonzero" fill-opacity="1" /><path clip-path="url(#clip420)" d="M2525.53 335.502 Q2528.88 336.22 2530.76 338.488 Q2532.66 340.757 2532.66 344.09 Q2532.66 349.206 2529.14 352.007 Q2525.62 354.808 2519.14 354.808 Q2516.96 354.808 2514.65 354.368 Q2512.35 353.951 2509.9 353.095 L2509.9 348.581 Q2511.85 349.715 2514.16 350.294 Q2516.48 350.872 2519 350.872 Q2523.4 350.872 2525.69 349.136 Q2528 347.4 2528 344.09 Q2528 341.035 2525.85 339.322 Q2523.72 337.585 2519.9 337.585 L2515.87 337.585 L2515.87 333.743 L2520.09 333.743 Q2523.54 333.743 2525.36 332.377 Q2527.19 330.988 2527.19 328.396 Q2527.19 325.734 2525.29 324.322 Q2523.42 322.886 2519.9 322.886 Q2517.98 322.886 2515.78 323.303 Q2513.58 323.72 2510.94 324.599 L2510.94 320.433 Q2513.6 319.692 2515.92 319.322 Q2518.26 318.951 2520.32 318.951 Q2525.64 318.951 2528.74 321.382 Q2531.85 323.789 2531.85 327.91 Q2531.85 330.78 2530.2 332.771 Q2528.56 334.738 2525.53 335.502 Z" fill="#000000" fill-rule="nonzero" fill-opacity="1" /></svg>
