<?xml version="1.0" encoding="utf-8"?>
<svg xmlns="http://www.w3.org/2000/svg" xmlns:xlink="http://www.w3.org/1999/xlink" width="672" height="480" viewBox="0 0 2688 1920">
<defs>
  <clipPath id="clip780">
    <rect x="0" y="0" width="2688" height="1920"/>
  </clipPath>
</defs>
<path clip-path="url(#clip780)" d="M0 1920 L2688 1920 L2688 -4.26326e-14 L0 -4.26326e-14  Z" fill="#ffffff" fill-rule="evenodd" fill-opacity="1"/>
<defs>
  <clipPath id="clip781">
    <rect x="271" y="127" width="2370" height="1607"/>
  </clipPath>
</defs>
<path clip-path="url(#clip780)" d="M271.719 1734.12 L2640.76 1734.12 L2640.76 127.792 L271.719 127.792  Z" fill="#ffffff" fill-rule="evenodd" fill-opacity="1"/>
<polyline clip-path="url(#clip781)" style="stroke:#000000; stroke-linecap:round; stroke-linejoin:round; stroke-width:2; stroke-opacity:0.1; fill:none" points="338.767,1734.12 338.767,127.792 "/>
<polyline clip-path="url(#clip781)" style="stroke:#000000; stroke-linecap:round; stroke-linejoin:round; stroke-width:2; stroke-opacity:0.1; fill:none" points="951.08,1734.12 951.08,127.792 "/>
<polyline clip-path="url(#clip781)" style="stroke:#000000; stroke-linecap:round; stroke-linejoin:round; stroke-width:2; stroke-opacity:0.1; fill:none" points="1563.39,1734.12 1563.39,127.792 "/>
<polyline clip-path="url(#clip781)" style="stroke:#000000; stroke-linecap:round; stroke-linejoin:round; stroke-width:2; stroke-opacity:0.1; fill:none" points="2175.7,1734.12 2175.7,127.792 "/>
<polyline clip-path="url(#clip781)" style="stroke:#000000; stroke-linecap:round; stroke-linejoin:round; stroke-width:2; stroke-opacity:0.1; fill:none" points="271.719,1688.77 2640.76,1688.77 "/>
<polyline clip-path="url(#clip781)" style="stroke:#000000; stroke-linecap:round; stroke-linejoin:round; stroke-width:2; stroke-opacity:0.1; fill:none" points="271.719,1395.64 2640.76,1395.64 "/>
<polyline clip-path="url(#clip781)" style="stroke:#000000; stroke-linecap:round; stroke-linejoin:round; stroke-width:2; stroke-opacity:0.1; fill:none" points="271.719,1102.5 2640.76,1102.5 "/>
<polyline clip-path="url(#clip781)" style="stroke:#000000; stroke-linecap:round; stroke-linejoin:round; stroke-width:2; stroke-opacity:0.1; fill:none" points="271.719,809.369 2640.76,809.369 "/>
<polyline clip-path="url(#clip781)" style="stroke:#000000; stroke-linecap:round; stroke-linejoin:round; stroke-width:2; stroke-opacity:0.1; fill:none" points="271.719,516.235 2640.76,516.235 "/>
<polyline clip-path="url(#clip781)" style="stroke:#000000; stroke-linecap:round; stroke-linejoin:round; stroke-width:2; stroke-opacity:0.1; fill:none" points="271.719,223.102 2640.76,223.102 "/>
<polyline clip-path="url(#clip780)" style="stroke:#000000; stroke-linecap:round; stroke-linejoin:round; stroke-width:4; stroke-opacity:1; fill:none" points="271.719,1734.12 2640.76,1734.12 "/>
<polyline clip-path="url(#clip780)" style="stroke:#000000; stroke-linecap:round; stroke-linejoin:round; stroke-width:4; stroke-opacity:1; fill:none" points="338.767,1734.12 338.767,1715.22 "/>
<polyline clip-path="url(#clip780)" style="stroke:#000000; stroke-linecap:round; stroke-linejoin:round; stroke-width:4; stroke-opacity:1; fill:none" points="951.08,1734.12 951.08,1715.22 "/>
<polyline clip-path="url(#clip780)" style="stroke:#000000; stroke-linecap:round; stroke-linejoin:round; stroke-width:4; stroke-opacity:1; fill:none" points="1563.39,1734.12 1563.39,1715.22 "/>
<polyline clip-path="url(#clip780)" style="stroke:#000000; stroke-linecap:round; stroke-linejoin:round; stroke-width:4; stroke-opacity:1; fill:none" points="2175.7,1734.12 2175.7,1715.22 "/>
<path clip-path="url(#clip780)" d="M338.767 1767.34 Q335.156 1767.34 333.327 1770.9 Q331.522 1774.45 331.522 1781.58 Q331.522 1788.68 333.327 1792.25 Q335.156 1795.79 338.767 1795.79 Q342.401 1795.79 344.207 1792.25 Q346.036 1788.68 346.036 1781.58 Q346.036 1774.45 344.207 1770.9 Q342.401 1767.34 338.767 1767.34 M338.767 1763.64 Q344.577 1763.64 347.633 1768.24 Q350.712 1772.83 350.712 1781.58 Q350.712 1790.3 347.633 1794.91 Q344.577 1799.49 338.767 1799.49 Q332.957 1799.49 329.878 1794.91 Q326.823 1790.3 326.823 1781.58 Q326.823 1772.83 329.878 1768.24 Q332.957 1763.64 338.767 1763.64 Z" fill="#000000" fill-rule="nonzero" fill-opacity="1" /><path clip-path="url(#clip780)" d="M910.686 1794.89 L918.325 1794.89 L918.325 1768.52 L910.015 1770.19 L910.015 1765.93 L918.279 1764.26 L922.955 1764.26 L922.955 1794.89 L930.594 1794.89 L930.594 1798.82 L910.686 1798.82 L910.686 1794.89 Z" fill="#000000" fill-rule="nonzero" fill-opacity="1" /><path clip-path="url(#clip780)" d="M950.038 1767.34 Q946.427 1767.34 944.598 1770.9 Q942.793 1774.45 942.793 1781.58 Q942.793 1788.68 944.598 1792.25 Q946.427 1795.79 950.038 1795.79 Q953.672 1795.79 955.478 1792.25 Q957.307 1788.68 957.307 1781.58 Q957.307 1774.45 955.478 1770.9 Q953.672 1767.34 950.038 1767.34 M950.038 1763.64 Q955.848 1763.64 958.904 1768.24 Q961.982 1772.83 961.982 1781.58 Q961.982 1790.3 958.904 1794.91 Q955.848 1799.49 950.038 1799.49 Q944.228 1799.49 941.149 1794.91 Q938.094 1790.3 938.094 1781.58 Q938.094 1772.83 941.149 1768.24 Q944.228 1763.64 950.038 1763.64 Z" fill="#000000" fill-rule="nonzero" fill-opacity="1" /><path clip-path="url(#clip780)" d="M980.2 1767.34 Q976.589 1767.34 974.76 1770.9 Q972.955 1774.45 972.955 1781.58 Q972.955 1788.68 974.76 1792.25 Q976.589 1795.79 980.2 1795.79 Q983.834 1795.79 985.64 1792.25 Q987.468 1788.68 987.468 1781.58 Q987.468 1774.45 985.64 1770.9 Q983.834 1767.34 980.2 1767.34 M980.2 1763.64 Q986.01 1763.64 989.066 1768.24 Q992.144 1772.83 992.144 1781.58 Q992.144 1790.3 989.066 1794.91 Q986.01 1799.49 980.2 1799.49 Q974.39 1799.49 971.311 1794.91 Q968.256 1790.3 968.256 1781.58 Q968.256 1772.83 971.311 1768.24 Q974.39 1763.64 980.2 1763.64 Z" fill="#000000" fill-rule="nonzero" fill-opacity="1" /><path clip-path="url(#clip780)" d="M1527.08 1794.89 L1543.4 1794.89 L1543.4 1798.82 L1521.46 1798.82 L1521.46 1794.89 Q1524.12 1792.13 1528.7 1787.5 Q1533.31 1782.85 1534.49 1781.51 Q1536.74 1778.98 1537.62 1777.25 Q1538.52 1775.49 1538.52 1773.8 Q1538.52 1771.04 1536.58 1769.31 Q1534.65 1767.57 1531.55 1767.57 Q1529.35 1767.57 1526.9 1768.34 Q1524.47 1769.1 1521.69 1770.65 L1521.69 1765.93 Q1524.52 1764.79 1526.97 1764.21 Q1529.42 1763.64 1531.46 1763.64 Q1536.83 1763.64 1540.02 1766.32 Q1543.22 1769.01 1543.22 1773.5 Q1543.22 1775.63 1542.41 1777.55 Q1541.62 1779.45 1539.51 1782.04 Q1538.94 1782.71 1535.83 1785.93 Q1532.73 1789.12 1527.08 1794.89 Z" fill="#000000" fill-rule="nonzero" fill-opacity="1" /><path clip-path="url(#clip780)" d="M1563.22 1767.34 Q1559.61 1767.34 1557.78 1770.9 Q1555.97 1774.45 1555.97 1781.58 Q1555.97 1788.68 1557.78 1792.25 Q1559.61 1795.79 1563.22 1795.79 Q1566.85 1795.79 1568.66 1792.25 Q1570.49 1788.68 1570.49 1781.58 Q1570.49 1774.45 1568.66 1770.9 Q1566.85 1767.34 1563.22 1767.34 M1563.22 1763.64 Q1569.03 1763.64 1572.08 1768.24 Q1575.16 1772.83 1575.16 1781.58 Q1575.16 1790.3 1572.08 1794.91 Q1569.03 1799.49 1563.22 1799.49 Q1557.41 1799.49 1554.33 1794.91 Q1551.27 1790.3 1551.27 1781.58 Q1551.27 1772.83 1554.33 1768.24 Q1557.41 1763.64 1563.22 1763.64 Z" fill="#000000" fill-rule="nonzero" fill-opacity="1" /><path clip-path="url(#clip780)" d="M1593.38 1767.34 Q1589.77 1767.34 1587.94 1770.9 Q1586.14 1774.45 1586.14 1781.58 Q1586.14 1788.68 1587.94 1792.25 Q1589.77 1795.79 1593.38 1795.79 Q1597.01 1795.79 1598.82 1792.25 Q1600.65 1788.68 1600.65 1781.58 Q1600.65 1774.45 1598.82 1770.9 Q1597.01 1767.34 1593.38 1767.34 M1593.38 1763.64 Q1599.19 1763.64 1602.25 1768.24 Q1605.32 1772.83 1605.32 1781.58 Q1605.32 1790.3 1602.25 1794.91 Q1599.19 1799.49 1593.38 1799.49 Q1587.57 1799.49 1584.49 1794.91 Q1581.44 1790.3 1581.44 1781.58 Q1581.44 1772.83 1584.49 1768.24 Q1587.57 1763.64 1593.38 1763.64 Z" fill="#000000" fill-rule="nonzero" fill-opacity="1" /><path clip-path="url(#clip780)" d="M2149.47 1780.19 Q2152.82 1780.9 2154.7 1783.17 Q2156.6 1785.44 2156.6 1788.77 Q2156.6 1793.89 2153.08 1796.69 Q2149.56 1799.49 2143.08 1799.49 Q2140.9 1799.49 2138.59 1799.05 Q2136.3 1798.64 2133.84 1797.78 L2133.84 1793.27 Q2135.79 1794.4 2138.1 1794.98 Q2140.42 1795.56 2142.94 1795.56 Q2147.34 1795.56 2149.63 1793.82 Q2151.94 1792.08 2151.94 1788.77 Q2151.94 1785.72 2149.79 1784.01 Q2147.66 1782.27 2143.84 1782.27 L2139.81 1782.27 L2139.81 1778.43 L2144.03 1778.43 Q2147.48 1778.43 2149.3 1777.06 Q2151.13 1775.67 2151.13 1773.08 Q2151.13 1770.42 2149.23 1769.01 Q2147.36 1767.57 2143.84 1767.57 Q2141.92 1767.57 2139.72 1767.99 Q2137.52 1768.4 2134.88 1769.28 L2134.88 1765.12 Q2137.55 1764.38 2139.86 1764.01 Q2142.2 1763.64 2144.26 1763.64 Q2149.58 1763.64 2152.68 1766.07 Q2155.79 1768.47 2155.79 1772.59 Q2155.79 1775.46 2154.14 1777.46 Q2152.5 1779.42 2149.47 1780.19 Z" fill="#000000" fill-rule="nonzero" fill-opacity="1" /><path clip-path="url(#clip780)" d="M2175.46 1767.34 Q2171.85 1767.34 2170.02 1770.9 Q2168.22 1774.45 2168.22 1781.58 Q2168.22 1788.68 2170.02 1792.25 Q2171.85 1795.79 2175.46 1795.79 Q2179.1 1795.79 2180.9 1792.25 Q2182.73 1788.68 2182.73 1781.58 Q2182.73 1774.45 2180.9 1770.9 Q2179.1 1767.34 2175.46 1767.34 M2175.46 1763.64 Q2181.27 1763.64 2184.33 1768.24 Q2187.41 1772.83 2187.41 1781.58 Q2187.41 1790.3 2184.33 1794.91 Q2181.27 1799.49 2175.46 1799.49 Q2169.65 1799.49 2166.57 1794.91 Q2163.52 1790.3 2163.52 1781.58 Q2163.52 1772.83 2166.57 1768.24 Q2169.65 1763.64 2175.46 1763.64 Z" fill="#000000" fill-rule="nonzero" fill-opacity="1" /><path clip-path="url(#clip780)" d="M2205.62 1767.34 Q2202.01 1767.34 2200.18 1770.9 Q2198.38 1774.45 2198.38 1781.58 Q2198.38 1788.68 2200.18 1792.25 Q2202.01 1795.79 2205.62 1795.79 Q2209.26 1795.79 2211.06 1792.25 Q2212.89 1788.68 2212.89 1781.58 Q2212.89 1774.45 2211.06 1770.9 Q2209.26 1767.34 2205.62 1767.34 M2205.62 1763.64 Q2211.43 1763.64 2214.49 1768.24 Q2217.57 1772.83 2217.57 1781.58 Q2217.57 1790.3 2214.49 1794.91 Q2211.43 1799.49 2205.62 1799.49 Q2199.81 1799.49 2196.73 1794.91 Q2193.68 1790.3 2193.68 1781.58 Q2193.68 1772.83 2196.73 1768.24 Q2199.81 1763.64 2205.62 1763.64 Z" fill="#000000" fill-rule="nonzero" fill-opacity="1" /><path clip-path="url(#clip780)" d="M1402.48 1841.06 L1402.48 1878.02 L1410.25 1878.02 Q1420.08 1878.02 1424.63 1873.56 Q1429.22 1869.11 1429.22 1859.49 Q1429.22 1849.94 1424.63 1845.52 Q1420.08 1841.06 1410.25 1841.06 L1402.48 1841.06 M1396.05 1835.78 L1409.26 1835.78 Q1423.07 1835.78 1429.53 1841.54 Q1435.99 1847.27 1435.99 1859.49 Q1435.99 1871.78 1429.5 1877.54 Q1423.01 1883.3 1409.26 1883.3 L1396.05 1883.3 L1396.05 1835.78 Z" fill="#000000" fill-rule="nonzero" fill-opacity="1" /><path clip-path="url(#clip780)" d="M1462.19 1865.38 Q1455.09 1865.38 1452.35 1867 Q1449.62 1868.63 1449.62 1872.54 Q1449.62 1875.66 1451.65 1877.51 Q1453.72 1879.32 1457.26 1879.32 Q1462.13 1879.32 1465.05 1875.88 Q1468.01 1872.42 1468.01 1866.69 L1468.01 1865.38 L1462.19 1865.38 M1473.87 1862.96 L1473.87 1883.3 L1468.01 1883.3 L1468.01 1877.89 Q1466.01 1881.14 1463.02 1882.7 Q1460.03 1884.22 1455.7 1884.22 Q1450.22 1884.22 1446.98 1881.17 Q1443.76 1878.08 1443.76 1872.92 Q1443.76 1866.91 1447.77 1863.85 Q1451.81 1860.8 1459.8 1860.8 L1468.01 1860.8 L1468.01 1860.23 Q1468.01 1856.18 1465.34 1853.99 Q1462.7 1851.76 1457.89 1851.76 Q1454.84 1851.76 1451.94 1852.49 Q1449.04 1853.22 1446.37 1854.69 L1446.37 1849.28 Q1449.59 1848.03 1452.61 1847.43 Q1455.63 1846.79 1458.5 1846.79 Q1466.23 1846.79 1470.05 1850.8 Q1473.87 1854.81 1473.87 1862.96 Z" fill="#000000" fill-rule="nonzero" fill-opacity="1" /><path clip-path="url(#clip780)" d="M1500.77 1886.61 Q1498.28 1892.98 1495.93 1894.92 Q1493.57 1896.86 1489.63 1896.86 L1484.95 1896.86 L1484.95 1891.96 L1488.38 1891.96 Q1490.8 1891.96 1492.14 1890.81 Q1493.48 1889.67 1495.1 1885.4 L1496.15 1882.73 L1481.73 1847.65 L1487.94 1847.65 L1499.08 1875.53 L1510.22 1847.65 L1516.43 1847.65 L1500.77 1886.61 Z" fill="#000000" fill-rule="nonzero" fill-opacity="1" /><polyline clip-path="url(#clip780)" style="stroke:#000000; stroke-linecap:round; stroke-linejoin:round; stroke-width:4; stroke-opacity:1; fill:none" points="271.719,1734.12 271.719,127.792 "/>
<polyline clip-path="url(#clip780)" style="stroke:#000000; stroke-linecap:round; stroke-linejoin:round; stroke-width:4; stroke-opacity:1; fill:none" points="271.719,1688.77 290.617,1688.77 "/>
<polyline clip-path="url(#clip780)" style="stroke:#000000; stroke-linecap:round; stroke-linejoin:round; stroke-width:4; stroke-opacity:1; fill:none" points="271.719,1395.64 290.617,1395.64 "/>
<polyline clip-path="url(#clip780)" style="stroke:#000000; stroke-linecap:round; stroke-linejoin:round; stroke-width:4; stroke-opacity:1; fill:none" points="271.719,1102.5 290.617,1102.5 "/>
<polyline clip-path="url(#clip780)" style="stroke:#000000; stroke-linecap:round; stroke-linejoin:round; stroke-width:4; stroke-opacity:1; fill:none" points="271.719,809.369 290.617,809.369 "/>
<polyline clip-path="url(#clip780)" style="stroke:#000000; stroke-linecap:round; stroke-linejoin:round; stroke-width:4; stroke-opacity:1; fill:none" points="271.719,516.235 290.617,516.235 "/>
<polyline clip-path="url(#clip780)" style="stroke:#000000; stroke-linecap:round; stroke-linejoin:round; stroke-width:4; stroke-opacity:1; fill:none" points="271.719,223.102 290.617,223.102 "/>
<path clip-path="url(#clip780)" d="M219.455 1674.57 Q215.844 1674.57 214.015 1678.13 Q212.209 1681.67 212.209 1688.8 Q212.209 1695.91 214.015 1699.48 Q215.844 1703.02 219.455 1703.02 Q223.089 1703.02 224.894 1699.48 Q226.723 1695.91 226.723 1688.8 Q226.723 1681.67 224.894 1678.13 Q223.089 1674.57 219.455 1674.57 M219.455 1670.86 Q225.265 1670.86 228.32 1675.47 Q231.399 1680.05 231.399 1688.8 Q231.399 1697.53 228.32 1702.14 Q225.265 1706.72 219.455 1706.72 Q213.644 1706.72 210.566 1702.14 Q207.51 1697.53 207.51 1688.8 Q207.51 1680.05 210.566 1675.47 Q213.644 1670.86 219.455 1670.86 Z" fill="#000000" fill-rule="nonzero" fill-opacity="1" /><path clip-path="url(#clip780)" d="M119.779 1408.98 L127.418 1408.98 L127.418 1382.61 L119.108 1384.28 L119.108 1380.02 L127.372 1378.36 L132.048 1378.36 L132.048 1408.98 L139.687 1408.98 L139.687 1412.92 L119.779 1412.92 L119.779 1408.98 Z" fill="#000000" fill-rule="nonzero" fill-opacity="1" /><path clip-path="url(#clip780)" d="M159.131 1381.43 Q155.52 1381.43 153.691 1385 Q151.886 1388.54 151.886 1395.67 Q151.886 1402.78 153.691 1406.34 Q155.52 1409.88 159.131 1409.88 Q162.765 1409.88 164.571 1406.34 Q166.399 1402.78 166.399 1395.67 Q166.399 1388.54 164.571 1385 Q162.765 1381.43 159.131 1381.43 M159.131 1377.73 Q164.941 1377.73 167.997 1382.34 Q171.075 1386.92 171.075 1395.67 Q171.075 1404.4 167.997 1409 Q164.941 1413.59 159.131 1413.59 Q153.321 1413.59 150.242 1409 Q147.186 1404.4 147.186 1395.67 Q147.186 1386.92 150.242 1382.34 Q153.321 1377.73 159.131 1377.73 Z" fill="#000000" fill-rule="nonzero" fill-opacity="1" /><path clip-path="url(#clip780)" d="M189.293 1381.43 Q185.682 1381.43 183.853 1385 Q182.047 1388.54 182.047 1395.67 Q182.047 1402.78 183.853 1406.34 Q185.682 1409.88 189.293 1409.88 Q192.927 1409.88 194.733 1406.34 Q196.561 1402.78 196.561 1395.67 Q196.561 1388.54 194.733 1385 Q192.927 1381.43 189.293 1381.43 M189.293 1377.73 Q195.103 1377.73 198.158 1382.34 Q201.237 1386.92 201.237 1395.67 Q201.237 1404.4 198.158 1409 Q195.103 1413.59 189.293 1413.59 Q183.483 1413.59 180.404 1409 Q177.348 1404.4 177.348 1395.67 Q177.348 1386.92 180.404 1382.34 Q183.483 1377.73 189.293 1377.73 Z" fill="#000000" fill-rule="nonzero" fill-opacity="1" /><path clip-path="url(#clip780)" d="M219.455 1381.43 Q215.844 1381.43 214.015 1385 Q212.209 1388.54 212.209 1395.67 Q212.209 1402.78 214.015 1406.34 Q215.844 1409.88 219.455 1409.88 Q223.089 1409.88 224.894 1406.34 Q226.723 1402.78 226.723 1395.67 Q226.723 1388.54 224.894 1385 Q223.089 1381.43 219.455 1381.43 M219.455 1377.73 Q225.265 1377.73 228.32 1382.34 Q231.399 1386.92 231.399 1395.67 Q231.399 1404.4 228.32 1409 Q225.265 1413.59 219.455 1413.59 Q213.644 1413.59 210.566 1409 Q207.51 1404.4 207.51 1395.67 Q207.51 1386.92 210.566 1382.34 Q213.644 1377.73 219.455 1377.73 Z" fill="#000000" fill-rule="nonzero" fill-opacity="1" /><path clip-path="url(#clip780)" d="M122.997 1115.85 L139.316 1115.85 L139.316 1119.78 L117.372 1119.78 L117.372 1115.85 Q120.034 1113.09 124.617 1108.46 Q129.224 1103.81 130.404 1102.47 Q132.65 1099.94 133.529 1098.21 Q134.432 1096.45 134.432 1094.76 Q134.432 1092 132.488 1090.27 Q130.566 1088.53 127.464 1088.53 Q125.265 1088.53 122.812 1089.3 Q120.381 1090.06 117.603 1091.61 L117.603 1086.89 Q120.427 1085.75 122.881 1085.18 Q125.335 1084.6 127.372 1084.6 Q132.742 1084.6 135.937 1087.28 Q139.131 1089.97 139.131 1094.46 Q139.131 1096.59 138.321 1098.51 Q137.534 1100.41 135.427 1103 Q134.849 1103.67 131.747 1106.89 Q128.645 1110.08 122.997 1115.85 Z" fill="#000000" fill-rule="nonzero" fill-opacity="1" /><path clip-path="url(#clip780)" d="M159.131 1088.3 Q155.52 1088.3 153.691 1091.87 Q151.886 1095.41 151.886 1102.54 Q151.886 1109.64 153.691 1113.21 Q155.52 1116.75 159.131 1116.75 Q162.765 1116.75 164.571 1113.21 Q166.399 1109.64 166.399 1102.54 Q166.399 1095.41 164.571 1091.87 Q162.765 1088.3 159.131 1088.3 M159.131 1084.6 Q164.941 1084.6 167.997 1089.2 Q171.075 1093.79 171.075 1102.54 Q171.075 1111.26 167.997 1115.87 Q164.941 1120.45 159.131 1120.45 Q153.321 1120.45 150.242 1115.87 Q147.186 1111.26 147.186 1102.54 Q147.186 1093.79 150.242 1089.2 Q153.321 1084.6 159.131 1084.6 Z" fill="#000000" fill-rule="nonzero" fill-opacity="1" /><path clip-path="url(#clip780)" d="M189.293 1088.3 Q185.682 1088.3 183.853 1091.87 Q182.047 1095.41 182.047 1102.54 Q182.047 1109.64 183.853 1113.21 Q185.682 1116.75 189.293 1116.75 Q192.927 1116.75 194.733 1113.21 Q196.561 1109.64 196.561 1102.54 Q196.561 1095.41 194.733 1091.87 Q192.927 1088.3 189.293 1088.3 M189.293 1084.6 Q195.103 1084.6 198.158 1089.2 Q201.237 1093.79 201.237 1102.54 Q201.237 1111.26 198.158 1115.87 Q195.103 1120.45 189.293 1120.45 Q183.483 1120.45 180.404 1115.87 Q177.348 1111.26 177.348 1102.54 Q177.348 1093.79 180.404 1089.2 Q183.483 1084.6 189.293 1084.6 Z" fill="#000000" fill-rule="nonzero" fill-opacity="1" /><path clip-path="url(#clip780)" d="M219.455 1088.3 Q215.844 1088.3 214.015 1091.87 Q212.209 1095.41 212.209 1102.54 Q212.209 1109.64 214.015 1113.21 Q215.844 1116.75 219.455 1116.75 Q223.089 1116.75 224.894 1113.21 Q226.723 1109.64 226.723 1102.54 Q226.723 1095.41 224.894 1091.87 Q223.089 1088.3 219.455 1088.3 M219.455 1084.6 Q225.265 1084.6 228.32 1089.2 Q231.399 1093.79 231.399 1102.54 Q231.399 1111.26 228.32 1115.87 Q225.265 1120.45 219.455 1120.45 Q213.644 1120.45 210.566 1115.87 Q207.51 1111.26 207.51 1102.54 Q207.51 1093.79 210.566 1089.2 Q213.644 1084.6 219.455 1084.6 Z" fill="#000000" fill-rule="nonzero" fill-opacity="1" /><path clip-path="url(#clip780)" d="M133.136 808.014 Q136.492 808.732 138.367 811.001 Q140.265 813.269 140.265 816.602 Q140.265 821.718 136.747 824.519 Q133.228 827.32 126.747 827.32 Q124.571 827.32 122.256 826.88 Q119.964 826.463 117.511 825.607 L117.511 821.093 Q119.455 822.227 121.77 822.806 Q124.085 823.385 126.608 823.385 Q131.006 823.385 133.298 821.649 Q135.612 819.913 135.612 816.602 Q135.612 813.547 133.46 811.834 Q131.33 810.098 127.511 810.098 L123.483 810.098 L123.483 806.255 L127.696 806.255 Q131.145 806.255 132.974 804.889 Q134.802 803.501 134.802 800.908 Q134.802 798.246 132.904 796.834 Q131.029 795.399 127.511 795.399 Q125.589 795.399 123.39 795.815 Q121.191 796.232 118.552 797.112 L118.552 792.945 Q121.214 792.204 123.529 791.834 Q125.867 791.464 127.927 791.464 Q133.251 791.464 136.353 793.894 Q139.455 796.302 139.455 800.422 Q139.455 803.292 137.812 805.283 Q136.168 807.251 133.136 808.014 Z" fill="#000000" fill-rule="nonzero" fill-opacity="1" /><path clip-path="url(#clip780)" d="M159.131 795.167 Q155.52 795.167 153.691 798.732 Q151.886 802.274 151.886 809.403 Q151.886 816.51 153.691 820.075 Q155.52 823.616 159.131 823.616 Q162.765 823.616 164.571 820.075 Q166.399 816.51 166.399 809.403 Q166.399 802.274 164.571 798.732 Q162.765 795.167 159.131 795.167 M159.131 791.464 Q164.941 791.464 167.997 796.07 Q171.075 800.653 171.075 809.403 Q171.075 818.13 167.997 822.737 Q164.941 827.32 159.131 827.32 Q153.321 827.32 150.242 822.737 Q147.186 818.13 147.186 809.403 Q147.186 800.653 150.242 796.07 Q153.321 791.464 159.131 791.464 Z" fill="#000000" fill-rule="nonzero" fill-opacity="1" /><path clip-path="url(#clip780)" d="M189.293 795.167 Q185.682 795.167 183.853 798.732 Q182.047 802.274 182.047 809.403 Q182.047 816.51 183.853 820.075 Q185.682 823.616 189.293 823.616 Q192.927 823.616 194.733 820.075 Q196.561 816.51 196.561 809.403 Q196.561 802.274 194.733 798.732 Q192.927 795.167 189.293 795.167 M189.293 791.464 Q195.103 791.464 198.158 796.07 Q201.237 800.653 201.237 809.403 Q201.237 818.13 198.158 822.737 Q195.103 827.32 189.293 827.32 Q183.483 827.32 180.404 822.737 Q177.348 818.13 177.348 809.403 Q177.348 800.653 180.404 796.07 Q183.483 791.464 189.293 791.464 Z" fill="#000000" fill-rule="nonzero" fill-opacity="1" /><path clip-path="url(#clip780)" d="M219.455 795.167 Q215.844 795.167 214.015 798.732 Q212.209 802.274 212.209 809.403 Q212.209 816.51 214.015 820.075 Q215.844 823.616 219.455 823.616 Q223.089 823.616 224.894 820.075 Q226.723 816.51 226.723 809.403 Q226.723 802.274 224.894 798.732 Q223.089 795.167 219.455 795.167 M219.455 791.464 Q225.265 791.464 228.32 796.07 Q231.399 800.653 231.399 809.403 Q231.399 818.13 228.32 822.737 Q225.265 827.32 219.455 827.32 Q213.644 827.32 210.566 822.737 Q207.51 818.13 207.51 809.403 Q207.51 800.653 210.566 796.07 Q213.644 791.464 219.455 791.464 Z" fill="#000000" fill-rule="nonzero" fill-opacity="1" /><path clip-path="url(#clip780)" d="M131.816 503.029 L120.011 521.478 L131.816 521.478 L131.816 503.029 M130.589 498.955 L136.469 498.955 L136.469 521.478 L141.399 521.478 L141.399 525.367 L136.469 525.367 L136.469 533.515 L131.816 533.515 L131.816 525.367 L116.214 525.367 L116.214 520.853 L130.589 498.955 Z" fill="#000000" fill-rule="nonzero" fill-opacity="1" /><path clip-path="url(#clip780)" d="M159.131 502.034 Q155.52 502.034 153.691 505.599 Q151.886 509.14 151.886 516.27 Q151.886 523.376 153.691 526.941 Q155.52 530.483 159.131 530.483 Q162.765 530.483 164.571 526.941 Q166.399 523.376 166.399 516.27 Q166.399 509.14 164.571 505.599 Q162.765 502.034 159.131 502.034 M159.131 498.33 Q164.941 498.33 167.997 502.937 Q171.075 507.52 171.075 516.27 Q171.075 524.997 167.997 529.603 Q164.941 534.186 159.131 534.186 Q153.321 534.186 150.242 529.603 Q147.186 524.997 147.186 516.27 Q147.186 507.52 150.242 502.937 Q153.321 498.33 159.131 498.33 Z" fill="#000000" fill-rule="nonzero" fill-opacity="1" /><path clip-path="url(#clip780)" d="M189.293 502.034 Q185.682 502.034 183.853 505.599 Q182.047 509.14 182.047 516.27 Q182.047 523.376 183.853 526.941 Q185.682 530.483 189.293 530.483 Q192.927 530.483 194.733 526.941 Q196.561 523.376 196.561 516.27 Q196.561 509.14 194.733 505.599 Q192.927 502.034 189.293 502.034 M189.293 498.33 Q195.103 498.33 198.158 502.937 Q201.237 507.52 201.237 516.27 Q201.237 524.997 198.158 529.603 Q195.103 534.186 189.293 534.186 Q183.483 534.186 180.404 529.603 Q177.348 524.997 177.348 516.27 Q177.348 507.52 180.404 502.937 Q183.483 498.33 189.293 498.33 Z" fill="#000000" fill-rule="nonzero" fill-opacity="1" /><path clip-path="url(#clip780)" d="M219.455 502.034 Q215.844 502.034 214.015 505.599 Q212.209 509.14 212.209 516.27 Q212.209 523.376 214.015 526.941 Q215.844 530.483 219.455 530.483 Q223.089 530.483 224.894 526.941 Q226.723 523.376 226.723 516.27 Q226.723 509.14 224.894 505.599 Q223.089 502.034 219.455 502.034 M219.455 498.33 Q225.265 498.33 228.32 502.937 Q231.399 507.52 231.399 516.27 Q231.399 524.997 228.32 529.603 Q225.265 534.186 219.455 534.186 Q213.644 534.186 210.566 529.603 Q207.51 524.997 207.51 516.27 Q207.51 507.52 210.566 502.937 Q213.644 498.33 219.455 498.33 Z" fill="#000000" fill-rule="nonzero" fill-opacity="1" /><path clip-path="url(#clip780)" d="M119.015 205.822 L137.372 205.822 L137.372 209.757 L123.298 209.757 L123.298 218.229 Q124.316 217.882 125.335 217.72 Q126.353 217.534 127.372 217.534 Q133.159 217.534 136.538 220.706 Q139.918 223.877 139.918 229.294 Q139.918 234.872 136.446 237.974 Q132.974 241.053 126.654 241.053 Q124.478 241.053 122.21 240.682 Q119.964 240.312 117.557 239.571 L117.557 234.872 Q119.64 236.007 121.863 236.562 Q124.085 237.118 126.562 237.118 Q130.566 237.118 132.904 235.011 Q135.242 232.905 135.242 229.294 Q135.242 225.683 132.904 223.576 Q130.566 221.47 126.562 221.47 Q124.687 221.47 122.812 221.886 Q120.96 222.303 119.015 223.183 L119.015 205.822 Z" fill="#000000" fill-rule="nonzero" fill-opacity="1" /><path clip-path="url(#clip780)" d="M159.131 208.9 Q155.52 208.9 153.691 212.465 Q151.886 216.007 151.886 223.136 Q151.886 230.243 153.691 233.807 Q155.52 237.349 159.131 237.349 Q162.765 237.349 164.571 233.807 Q166.399 230.243 166.399 223.136 Q166.399 216.007 164.571 212.465 Q162.765 208.9 159.131 208.9 M159.131 205.197 Q164.941 205.197 167.997 209.803 Q171.075 214.386 171.075 223.136 Q171.075 231.863 167.997 236.469 Q164.941 241.053 159.131 241.053 Q153.321 241.053 150.242 236.469 Q147.186 231.863 147.186 223.136 Q147.186 214.386 150.242 209.803 Q153.321 205.197 159.131 205.197 Z" fill="#000000" fill-rule="nonzero" fill-opacity="1" /><path clip-path="url(#clip780)" d="M189.293 208.9 Q185.682 208.9 183.853 212.465 Q182.047 216.007 182.047 223.136 Q182.047 230.243 183.853 233.807 Q185.682 237.349 189.293 237.349 Q192.927 237.349 194.733 233.807 Q196.561 230.243 196.561 223.136 Q196.561 216.007 194.733 212.465 Q192.927 208.9 189.293 208.9 M189.293 205.197 Q195.103 205.197 198.158 209.803 Q201.237 214.386 201.237 223.136 Q201.237 231.863 198.158 236.469 Q195.103 241.053 189.293 241.053 Q183.483 241.053 180.404 236.469 Q177.348 231.863 177.348 223.136 Q177.348 214.386 180.404 209.803 Q183.483 205.197 189.293 205.197 Z" fill="#000000" fill-rule="nonzero" fill-opacity="1" /><path clip-path="url(#clip780)" d="M219.455 208.9 Q215.844 208.9 214.015 212.465 Q212.209 216.007 212.209 223.136 Q212.209 230.243 214.015 233.807 Q215.844 237.349 219.455 237.349 Q223.089 237.349 224.894 233.807 Q226.723 230.243 226.723 223.136 Q226.723 216.007 224.894 212.465 Q223.089 208.9 219.455 208.9 M219.455 205.197 Q225.265 205.197 228.32 209.803 Q231.399 214.386 231.399 223.136 Q231.399 231.863 228.32 236.469 Q225.265 241.053 219.455 241.053 Q213.644 241.053 210.566 236.469 Q207.51 231.863 207.51 223.136 Q207.51 214.386 210.566 209.803 Q213.644 205.197 219.455 205.197 Z" fill="#000000" fill-rule="nonzero" fill-opacity="1" /><path clip-path="url(#clip780)" d="M14.1184 1243.67 L14.1184 1234.09 L46.4562 1221.96 L14.1184 1209.77 L14.1184 1200.19 L61.6384 1200.19 L61.6384 1206.46 L19.9112 1206.46 L52.5037 1218.72 L52.5037 1225.18 L19.9112 1237.43 L61.6384 1237.43 L61.6384 1243.67 L14.1184 1243.67 Z" fill="#000000" fill-rule="nonzero" fill-opacity="1" /><path clip-path="url(#clip780)" d="M42.3504 1157.19 L45.2149 1157.19 L45.2149 1184.12 Q51.2623 1183.74 54.4452 1180.49 Q57.5962 1177.21 57.5962 1171.39 Q57.5962 1168.01 56.7687 1164.86 Q55.9411 1161.68 54.2861 1158.56 L59.8242 1158.56 Q61.161 1161.71 61.8612 1165.02 Q62.5615 1168.33 62.5615 1171.74 Q62.5615 1180.27 57.5962 1185.26 Q52.631 1190.23 44.1646 1190.23 Q35.4117 1190.23 30.2873 1185.52 Q25.1311 1180.78 25.1311 1172.76 Q25.1311 1165.56 29.7781 1161.39 Q34.3932 1157.19 42.3504 1157.19 M40.6316 1163.05 Q35.8255 1163.11 32.9609 1165.75 Q30.0964 1168.36 30.0964 1172.69 Q30.0964 1177.59 32.8654 1180.55 Q35.6345 1183.48 40.6634 1183.93 L40.6316 1163.05 Z" fill="#000000" fill-rule="nonzero" fill-opacity="1" /><path clip-path="url(#clip780)" d="M43.719 1131.38 Q43.719 1138.48 45.3422 1141.21 Q46.9655 1143.95 50.8804 1143.95 Q53.9996 1143.95 55.8457 1141.91 Q57.6599 1139.85 57.6599 1136.31 Q57.6599 1131.44 54.2224 1128.51 Q50.7531 1125.55 45.0239 1125.55 L43.719 1125.55 L43.719 1131.38 M41.3 1119.7 L61.6384 1119.7 L61.6384 1125.55 L56.2276 1125.55 Q59.4741 1127.56 61.0337 1130.55 Q62.5615 1133.54 62.5615 1137.87 Q62.5615 1143.35 59.5059 1146.59 Q56.4186 1149.81 51.2623 1149.81 Q45.2467 1149.81 42.1912 1145.8 Q39.1357 1141.75 39.1357 1133.77 L39.1357 1125.55 L38.5628 1125.55 Q34.5205 1125.55 32.3244 1128.23 Q30.0964 1130.87 30.0964 1135.68 Q30.0964 1138.73 30.8284 1141.63 Q31.5605 1144.52 33.0246 1147.2 L27.6137 1147.2 Q26.3724 1143.98 25.7677 1140.96 Q25.1311 1137.94 25.1311 1135.07 Q25.1311 1127.34 29.1415 1123.52 Q33.1519 1119.7 41.3 1119.7 Z" fill="#000000" fill-rule="nonzero" fill-opacity="1" /><path clip-path="url(#clip780)" d="M40.1224 1078 L61.6384 1078 L61.6384 1083.86 L40.3133 1083.86 Q35.2526 1083.86 32.7381 1085.83 Q30.2237 1087.81 30.2237 1091.75 Q30.2237 1096.49 33.2474 1099.23 Q36.2711 1101.97 41.491 1101.97 L61.6384 1101.97 L61.6384 1107.86 L25.9905 1107.86 L25.9905 1101.97 L31.5287 1101.97 Q28.314 1099.87 26.7225 1097.04 Q25.1311 1094.17 25.1311 1090.45 Q25.1311 1084.3 28.9505 1081.15 Q32.7381 1078 40.1224 1078 Z" fill="#000000" fill-rule="nonzero" fill-opacity="1" /><path clip-path="url(#clip780)" d="M14.1184 1051.93 L14.1184 1011.74 L19.5293 1011.74 L19.5293 1028.6 L61.6384 1028.6 L61.6384 1035.07 L19.5293 1035.07 L19.5293 1051.93 L14.1184 1051.93 Z" fill="#000000" fill-rule="nonzero" fill-opacity="1" /><path clip-path="url(#clip780)" d="M30.0964 1003.05 Q30.0964 1007.76 33.7885 1010.49 Q37.4488 1013.23 43.8463 1013.23 Q50.2438 1013.23 53.9359 1010.53 Q57.5962 1007.79 57.5962 1003.05 Q57.5962 998.367 53.9041 995.63 Q50.212 992.893 43.8463 992.893 Q37.5124 992.893 33.8203 995.63 Q30.0964 998.367 30.0964 1003.05 M25.1311 1003.05 Q25.1311 995.407 30.0964 991.047 Q35.0616 986.686 43.8463 986.686 Q52.5991 986.686 57.5962 991.047 Q62.5615 995.407 62.5615 1003.05 Q62.5615 1010.72 57.5962 1015.08 Q52.5991 1019.41 43.8463 1019.41 Q35.0616 1019.41 30.0964 1015.08 Q25.1311 1010.72 25.1311 1003.05 Z" fill="#000000" fill-rule="nonzero" fill-opacity="1" /><path clip-path="url(#clip780)" d="M15.869 971.186 L25.9905 971.186 L25.9905 959.123 L30.542 959.123 L30.542 971.186 L49.8937 971.186 Q54.2542 971.186 55.4955 970.008 Q56.7368 968.799 56.7368 965.138 L56.7368 959.123 L61.6384 959.123 L61.6384 965.138 Q61.6384 971.918 59.124 974.496 Q56.5777 977.074 49.8937 977.074 L30.542 977.074 L30.542 981.371 L25.9905 981.371 L25.9905 977.074 L15.869 977.074 L15.869 971.186 Z" fill="#000000" fill-rule="nonzero" fill-opacity="1" /><path clip-path="url(#clip780)" d="M43.719 935.22 Q43.719 942.317 45.3422 945.055 Q46.9655 947.792 50.8804 947.792 Q53.9996 947.792 55.8457 945.755 Q57.6599 943.686 57.6599 940.153 Q57.6599 935.283 54.2224 932.355 Q50.7531 929.395 45.0239 929.395 L43.719 929.395 L43.719 935.22 M41.3 923.539 L61.6384 923.539 L61.6384 929.395 L56.2276 929.395 Q59.4741 931.4 61.0337 934.392 Q62.5615 937.384 62.5615 941.713 Q62.5615 947.187 59.5059 950.434 Q56.4186 953.648 51.2623 953.648 Q45.2467 953.648 42.1912 949.638 Q39.1357 945.596 39.1357 937.607 L39.1357 929.395 L38.5628 929.395 Q34.5205 929.395 32.3244 932.069 Q30.0964 934.71 30.0964 939.516 Q30.0964 942.572 30.8284 945.468 Q31.5605 948.365 33.0246 951.038 L27.6137 951.038 Q26.3724 947.824 25.7677 944.8 Q25.1311 941.776 25.1311 938.912 Q25.1311 931.177 29.1415 927.358 Q33.1519 923.539 41.3 923.539 Z" fill="#000000" fill-rule="nonzero" fill-opacity="1" /><path clip-path="url(#clip780)" d="M12.1132 911.475 L12.1132 905.619 L61.6384 905.619 L61.6384 911.475 L12.1132 911.475 Z" fill="#000000" fill-rule="nonzero" fill-opacity="1" /><path clip-path="url(#clip780)" d="M14.1184 872.39 L14.1184 865.961 L61.6384 865.961 L61.6384 872.39 L14.1184 872.39 Z" fill="#000000" fill-rule="nonzero" fill-opacity="1" /><path clip-path="url(#clip780)" d="M40.1224 823.788 L61.6384 823.788 L61.6384 829.644 L40.3133 829.644 Q35.2526 829.644 32.7381 831.618 Q30.2237 833.591 30.2237 837.538 Q30.2237 842.28 33.2474 845.018 Q36.2711 847.755 41.491 847.755 L61.6384 847.755 L61.6384 853.643 L25.9905 853.643 L25.9905 847.755 L31.5287 847.755 Q28.314 845.654 26.7225 842.821 Q25.1311 839.957 25.1311 836.233 Q25.1311 830.09 28.9505 826.939 Q32.7381 823.788 40.1224 823.788 Z" fill="#000000" fill-rule="nonzero" fill-opacity="1" /><path clip-path="url(#clip780)" d="M12.1132 794.06 L16.983 794.06 L16.983 799.662 Q16.983 802.813 18.2562 804.054 Q19.5293 805.264 22.8395 805.264 L25.9905 805.264 L25.9905 795.62 L30.542 795.62 L30.542 805.264 L61.6384 805.264 L61.6384 811.152 L30.542 811.152 L30.542 816.754 L25.9905 816.754 L25.9905 811.152 L23.5079 811.152 Q17.5559 811.152 14.8505 808.383 Q12.1132 805.614 12.1132 799.598 L12.1132 794.06 Z" fill="#000000" fill-rule="nonzero" fill-opacity="1" /><path clip-path="url(#clip780)" d="M42.3504 758.667 L45.2149 758.667 L45.2149 785.594 Q51.2623 785.212 54.4452 781.965 Q57.5962 778.687 57.5962 772.862 Q57.5962 769.488 56.7687 766.337 Q55.9411 763.155 54.2861 760.035 L59.8242 760.035 Q61.161 763.186 61.8612 766.497 Q62.5615 769.807 62.5615 773.212 Q62.5615 781.742 57.5962 786.739 Q52.631 791.705 44.1646 791.705 Q35.4117 791.705 30.2873 786.994 Q25.1311 782.252 25.1311 774.231 Q25.1311 767.038 29.7781 762.868 Q34.3932 758.667 42.3504 758.667 M40.6316 764.523 Q35.8255 764.587 32.9609 767.229 Q30.0964 769.839 30.0964 774.167 Q30.0964 779.069 32.8654 782.029 Q35.6345 784.957 40.6634 785.403 L40.6316 764.523 Z" fill="#000000" fill-rule="nonzero" fill-opacity="1" /><path clip-path="url(#clip780)" d="M27.3591 723.401 L32.8336 723.401 Q31.465 725.883 30.7966 728.398 Q30.0964 730.88 30.0964 733.427 Q30.0964 739.124 33.7248 742.275 Q37.3214 745.426 43.8463 745.426 Q50.3711 745.426 53.9996 742.275 Q57.5962 739.124 57.5962 733.427 Q57.5962 730.88 56.9278 728.398 Q56.2276 725.883 54.859 723.401 L60.2698 723.401 Q61.4156 725.851 61.9886 728.493 Q62.5615 731.103 62.5615 734.063 Q62.5615 742.116 57.5007 746.858 Q52.44 751.601 43.8463 751.601 Q35.1253 751.601 30.1282 746.826 Q25.1311 742.02 25.1311 733.681 Q25.1311 730.976 25.704 728.398 Q26.2451 725.82 27.3591 723.401 Z" fill="#000000" fill-rule="nonzero" fill-opacity="1" /><path clip-path="url(#clip780)" d="M15.869 707.423 L25.9905 707.423 L25.9905 695.36 L30.542 695.36 L30.542 707.423 L49.8937 707.423 Q54.2542 707.423 55.4955 706.245 Q56.7368 705.036 56.7368 701.375 L56.7368 695.36 L61.6384 695.36 L61.6384 701.375 Q61.6384 708.155 59.124 710.733 Q56.5777 713.311 49.8937 713.311 L30.542 713.311 L30.542 717.608 L25.9905 717.608 L25.9905 713.311 L15.869 713.311 L15.869 707.423 Z" fill="#000000" fill-rule="nonzero" fill-opacity="1" /><path clip-path="url(#clip780)" d="M42.3504 657.166 L45.2149 657.166 L45.2149 684.092 Q51.2623 683.711 54.4452 680.464 Q57.5962 677.186 57.5962 671.361 Q57.5962 667.987 56.7687 664.836 Q55.9411 661.653 54.2861 658.534 L59.8242 658.534 Q61.161 661.685 61.8612 664.995 Q62.5615 668.306 62.5615 671.711 Q62.5615 680.241 57.5962 685.238 Q52.631 690.204 44.1646 690.204 Q35.4117 690.204 30.2873 685.493 Q25.1311 680.75 25.1311 672.73 Q25.1311 665.536 29.7781 661.367 Q34.3932 657.166 42.3504 657.166 M40.6316 663.022 Q35.8255 663.086 32.9609 665.727 Q30.0964 668.337 30.0964 672.666 Q30.0964 677.568 32.8654 680.528 Q35.6345 683.456 40.6634 683.901 L40.6316 663.022 Z" fill="#000000" fill-rule="nonzero" fill-opacity="1" /><path clip-path="url(#clip780)" d="M31.4013 624.096 L12.1132 624.096 L12.1132 618.239 L61.6384 618.239 L61.6384 624.096 L56.2912 624.096 Q59.4741 625.942 61.0337 628.774 Q62.5615 631.575 62.5615 635.522 Q62.5615 641.983 57.4052 646.057 Q52.249 650.1 43.8463 650.1 Q35.4436 650.1 30.2873 646.057 Q25.1311 641.983 25.1311 635.522 Q25.1311 631.575 26.6907 628.774 Q28.2185 625.942 31.4013 624.096 M43.8463 644.052 Q50.3075 644.052 53.9996 641.41 Q57.6599 638.737 57.6599 634.09 Q57.6599 629.443 53.9996 626.769 Q50.3075 624.096 43.8463 624.096 Q37.3851 624.096 33.7248 626.769 Q30.0327 629.443 30.0327 634.09 Q30.0327 638.737 33.7248 641.41 Q37.3851 644.052 43.8463 644.052 Z" fill="#000000" fill-rule="nonzero" fill-opacity="1" /><path clip-path="url(#clip780)" d="M609.558 12.096 L617.741 12.096 L617.741 72.576 L609.558 72.576 L609.558 12.096 Z" fill="#000000" fill-rule="nonzero" fill-opacity="1" /><path clip-path="url(#clip780)" d="M669.025 35.9153 Q671.82 30.8922 675.709 28.5022 Q679.598 26.1121 684.864 26.1121 Q691.953 26.1121 695.802 31.0947 Q699.65 36.0368 699.65 45.1919 L699.65 72.576 L692.156 72.576 L692.156 45.4349 Q692.156 38.913 689.847 35.7533 Q687.538 32.5936 682.798 32.5936 Q677.006 32.5936 673.643 36.4419 Q670.281 40.2903 670.281 46.9338 L670.281 72.576 L662.787 72.576 L662.787 45.4349 Q662.787 38.8725 660.478 35.7533 Q658.169 32.5936 653.348 32.5936 Q647.636 32.5936 644.274 36.4824 Q640.912 40.3308 640.912 46.9338 L640.912 72.576 L633.418 72.576 L633.418 27.2059 L640.912 27.2059 L640.912 34.2544 Q643.464 30.082 647.029 28.0971 Q650.594 26.1121 655.495 26.1121 Q660.437 26.1121 663.881 28.6237 Q667.364 31.1352 669.025 35.9153 Z" fill="#000000" fill-rule="nonzero" fill-opacity="1" /><path clip-path="url(#clip780)" d="M721.728 65.7705 L721.728 89.8329 L714.233 89.8329 L714.233 27.2059 L721.728 27.2059 L721.728 34.0924 Q724.077 30.0415 727.642 28.0971 Q731.247 26.1121 736.23 26.1121 Q744.494 26.1121 749.638 32.6746 Q754.823 39.2371 754.823 49.9314 Q754.823 60.6258 749.638 67.1883 Q744.494 73.7508 736.23 73.7508 Q731.247 73.7508 727.642 71.8063 Q724.077 69.8214 721.728 65.7705 M747.086 49.9314 Q747.086 41.7081 743.683 37.0496 Q740.321 32.3505 734.407 32.3505 Q728.493 32.3505 725.09 37.0496 Q721.728 41.7081 721.728 49.9314 Q721.728 58.1548 725.09 62.8538 Q728.493 67.5124 734.407 67.5124 Q740.321 67.5124 743.683 62.8538 Q747.086 58.1548 747.086 49.9314 Z" fill="#000000" fill-rule="nonzero" fill-opacity="1" /><path clip-path="url(#clip780)" d="M787.798 49.7694 Q778.764 49.7694 775.28 51.8354 Q771.797 53.9013 771.797 58.8839 Q771.797 62.8538 774.389 65.2034 Q777.022 67.5124 781.519 67.5124 Q787.717 67.5124 791.444 63.1374 Q795.211 58.7219 795.211 51.4303 L795.211 49.7694 L787.798 49.7694 M802.665 46.6907 L802.665 72.576 L795.211 72.576 L795.211 65.6895 Q792.659 69.8214 788.851 71.8063 Q785.043 73.7508 779.534 73.7508 Q772.566 73.7508 768.434 69.8619 Q764.343 65.9325 764.343 59.3701 Q764.343 51.7138 769.447 47.825 Q774.592 43.9361 784.76 43.9361 L795.211 43.9361 L795.211 43.2069 Q795.211 38.0623 791.808 35.2672 Q788.446 32.4315 782.329 32.4315 Q778.44 32.4315 774.754 33.3632 Q771.068 34.295 767.665 36.1584 L767.665 29.2718 Q771.756 27.692 775.605 26.9223 Q779.453 26.1121 783.099 26.1121 Q792.942 26.1121 797.803 31.2163 Q802.665 36.3204 802.665 46.6907 Z" fill="#000000" fill-rule="nonzero" fill-opacity="1" /><path clip-path="url(#clip780)" d="M850.668 28.9478 L850.668 35.9153 Q847.508 34.1734 844.308 33.3227 Q841.148 32.4315 837.907 32.4315 Q830.656 32.4315 826.646 37.0496 Q822.636 41.6271 822.636 49.9314 Q822.636 58.2358 826.646 62.8538 Q830.656 67.4314 837.907 67.4314 Q841.148 67.4314 844.308 66.5807 Q847.508 65.6895 850.668 63.9476 L850.668 70.8341 Q847.549 72.2924 844.186 73.0216 Q840.865 73.7508 837.097 73.7508 Q826.848 73.7508 820.813 67.3098 Q814.777 60.8689 814.777 49.9314 Q814.777 38.832 820.853 32.472 Q826.97 26.1121 837.583 26.1121 Q841.027 26.1121 844.308 26.8413 Q847.589 27.5299 850.668 28.9478 Z" fill="#000000" fill-rule="nonzero" fill-opacity="1" /><path clip-path="url(#clip780)" d="M871.003 14.324 L871.003 27.2059 L886.356 27.2059 L886.356 32.9987 L871.003 32.9987 L871.003 57.6282 Q871.003 63.1779 872.502 64.7578 Q874.042 66.3376 878.7 66.3376 L886.356 66.3376 L886.356 72.576 L878.7 72.576 Q870.072 72.576 866.79 69.3758 Q863.509 66.1351 863.509 57.6282 L863.509 32.9987 L858.04 32.9987 L858.04 27.2059 L863.509 27.2059 L863.509 14.324 L871.003 14.324 Z" fill="#000000" fill-rule="nonzero" fill-opacity="1" /><path clip-path="url(#clip780)" d="M940.112 32.4315 Q934.116 32.4315 930.633 37.1306 Q927.149 41.7891 927.149 49.9314 Q927.149 58.0738 930.592 62.7728 Q934.076 67.4314 940.112 67.4314 Q946.067 67.4314 949.55 62.7323 Q953.034 58.0333 953.034 49.9314 Q953.034 41.8701 949.55 37.1711 Q946.067 32.4315 940.112 32.4315 M940.112 26.1121 Q949.834 26.1121 955.384 32.4315 Q960.933 38.7509 960.933 49.9314 Q960.933 61.0714 955.384 67.4314 Q949.834 73.7508 940.112 73.7508 Q930.349 73.7508 924.799 67.4314 Q919.29 61.0714 919.29 49.9314 Q919.29 38.7509 924.799 32.4315 Q930.349 26.1121 940.112 26.1121 Z" fill="#000000" fill-rule="nonzero" fill-opacity="1" /><path clip-path="url(#clip780)" d="M996.257 9.54393 L996.257 15.7418 L989.128 15.7418 Q985.117 15.7418 983.537 17.3622 Q981.998 18.9825 981.998 23.1955 L981.998 27.2059 L994.272 27.2059 L994.272 32.9987 L981.998 32.9987 L981.998 72.576 L974.504 72.576 L974.504 32.9987 L967.374 32.9987 L967.374 27.2059 L974.504 27.2059 L974.504 24.0462 Q974.504 16.471 978.028 13.0277 Q981.553 9.54393 989.209 9.54393 L996.257 9.54393 Z" fill="#000000" fill-rule="nonzero" fill-opacity="1" /><path clip-path="url(#clip780)" d="M1044.79 72.576 L1021.7 12.096 L1030.24 12.096 L1049.41 63.0159 L1068.61 12.096 L1077.11 12.096 L1054.06 72.576 L1044.79 72.576 Z" fill="#000000" fill-rule="nonzero" fill-opacity="1" /><path clip-path="url(#clip780)" d="M1099.8 49.7694 Q1090.76 49.7694 1087.28 51.8354 Q1083.8 53.9013 1083.8 58.8839 Q1083.8 62.8538 1086.39 65.2034 Q1089.02 67.5124 1093.52 67.5124 Q1099.72 67.5124 1103.44 63.1374 Q1107.21 58.7219 1107.21 51.4303 L1107.21 49.7694 L1099.8 49.7694 M1114.67 46.6907 L1114.67 72.576 L1107.21 72.576 L1107.21 65.6895 Q1104.66 69.8214 1100.85 71.8063 Q1097.04 73.7508 1091.53 73.7508 Q1084.57 73.7508 1080.44 69.8619 Q1076.34 65.9325 1076.34 59.3701 Q1076.34 51.7138 1081.45 47.825 Q1086.59 43.9361 1096.76 43.9361 L1107.21 43.9361 L1107.21 43.2069 Q1107.21 38.0623 1103.81 35.2672 Q1100.45 32.4315 1094.33 32.4315 Q1090.44 32.4315 1086.75 33.3632 Q1083.07 34.295 1079.67 36.1584 L1079.67 29.2718 Q1083.76 27.692 1087.61 26.9223 Q1091.45 26.1121 1095.1 26.1121 Q1104.94 26.1121 1109.8 31.2163 Q1114.67 36.3204 1114.67 46.6907 Z" fill="#000000" fill-rule="nonzero" fill-opacity="1" /><path clip-path="url(#clip780)" d="M1162.67 28.9478 L1162.67 35.9153 Q1159.51 34.1734 1156.31 33.3227 Q1153.15 32.4315 1149.91 32.4315 Q1142.66 32.4315 1138.65 37.0496 Q1134.64 41.6271 1134.64 49.9314 Q1134.64 58.2358 1138.65 62.8538 Q1142.66 67.4314 1149.91 67.4314 Q1153.15 67.4314 1156.31 66.5807 Q1159.51 65.6895 1162.67 63.9476 L1162.67 70.8341 Q1159.55 72.2924 1156.19 73.0216 Q1152.87 73.7508 1149.1 73.7508 Q1138.85 73.7508 1132.81 67.3098 Q1126.78 60.8689 1126.78 49.9314 Q1126.78 38.832 1132.85 32.472 Q1138.97 26.1121 1149.58 26.1121 Q1153.03 26.1121 1156.31 26.8413 Q1159.59 27.5299 1162.67 28.9478 Z" fill="#000000" fill-rule="nonzero" fill-opacity="1" /><path clip-path="url(#clip780)" d="M1208.28 28.9478 L1208.28 35.9153 Q1205.12 34.1734 1201.92 33.3227 Q1198.76 32.4315 1195.52 32.4315 Q1188.27 32.4315 1184.26 37.0496 Q1180.25 41.6271 1180.25 49.9314 Q1180.25 58.2358 1184.26 62.8538 Q1188.27 67.4314 1195.52 67.4314 Q1198.76 67.4314 1201.92 66.5807 Q1205.12 65.6895 1208.28 63.9476 L1208.28 70.8341 Q1205.16 72.2924 1201.8 73.0216 Q1198.48 73.7508 1194.71 73.7508 Q1184.46 73.7508 1178.43 67.3098 Q1172.39 60.8689 1172.39 49.9314 Q1172.39 38.832 1178.47 32.472 Q1184.58 26.1121 1195.2 26.1121 Q1198.64 26.1121 1201.92 26.8413 Q1205.2 27.5299 1208.28 28.9478 Z" fill="#000000" fill-rule="nonzero" fill-opacity="1" /><path clip-path="url(#clip780)" d="M1221.24 27.2059 L1228.7 27.2059 L1228.7 72.576 L1221.24 72.576 L1221.24 27.2059 M1221.24 9.54393 L1228.7 9.54393 L1228.7 18.9825 L1221.24 18.9825 L1221.24 9.54393 Z" fill="#000000" fill-rule="nonzero" fill-opacity="1" /><path clip-path="url(#clip780)" d="M1282.01 45.1919 L1282.01 72.576 L1274.55 72.576 L1274.55 45.4349 Q1274.55 38.994 1272.04 35.7938 Q1269.53 32.5936 1264.51 32.5936 Q1258.47 32.5936 1254.99 36.4419 Q1251.5 40.2903 1251.5 46.9338 L1251.5 72.576 L1244.01 72.576 L1244.01 27.2059 L1251.5 27.2059 L1251.5 34.2544 Q1254.18 30.163 1257.78 28.1376 Q1261.43 26.1121 1266.17 26.1121 Q1273.99 26.1121 1278 30.9732 Q1282.01 35.7938 1282.01 45.1919 Z" fill="#000000" fill-rule="nonzero" fill-opacity="1" /><path clip-path="url(#clip780)" d="M1317.49 49.7694 Q1308.46 49.7694 1304.98 51.8354 Q1301.49 53.9013 1301.49 58.8839 Q1301.49 62.8538 1304.09 65.2034 Q1306.72 67.5124 1311.22 67.5124 Q1317.41 67.5124 1321.14 63.1374 Q1324.91 58.7219 1324.91 51.4303 L1324.91 49.7694 L1317.49 49.7694 M1332.36 46.6907 L1332.36 72.576 L1324.91 72.576 L1324.91 65.6895 Q1322.36 69.8214 1318.55 71.8063 Q1314.74 73.7508 1309.23 73.7508 Q1302.26 73.7508 1298.13 69.8619 Q1294.04 65.9325 1294.04 59.3701 Q1294.04 51.7138 1299.14 47.825 Q1304.29 43.9361 1314.46 43.9361 L1324.91 43.9361 L1324.91 43.2069 Q1324.91 38.0623 1321.5 35.2672 Q1318.14 32.4315 1312.03 32.4315 Q1308.14 32.4315 1304.45 33.3632 Q1300.76 34.295 1297.36 36.1584 L1297.36 29.2718 Q1301.45 27.692 1305.3 26.9223 Q1309.15 26.1121 1312.79 26.1121 Q1322.64 26.1121 1327.5 31.2163 Q1332.36 36.3204 1332.36 46.6907 Z" fill="#000000" fill-rule="nonzero" fill-opacity="1" /><path clip-path="url(#clip780)" d="M1355.09 14.324 L1355.09 27.2059 L1370.44 27.2059 L1370.44 32.9987 L1355.09 32.9987 L1355.09 57.6282 Q1355.09 63.1779 1356.59 64.7578 Q1358.12 66.3376 1362.78 66.3376 L1370.44 66.3376 L1370.44 72.576 L1362.78 72.576 Q1354.15 72.576 1350.87 69.3758 Q1347.59 66.1351 1347.59 57.6282 L1347.59 32.9987 L1342.12 32.9987 L1342.12 27.2059 L1347.59 27.2059 L1347.59 14.324 L1355.09 14.324 Z" fill="#000000" fill-rule="nonzero" fill-opacity="1" /><path clip-path="url(#clip780)" d="M1380.24 27.2059 L1387.7 27.2059 L1387.7 72.576 L1380.24 72.576 L1380.24 27.2059 M1380.24 9.54393 L1387.7 9.54393 L1387.7 18.9825 L1380.24 18.9825 L1380.24 9.54393 Z" fill="#000000" fill-rule="nonzero" fill-opacity="1" /><path clip-path="url(#clip780)" d="M1420.87 32.4315 Q1414.88 32.4315 1411.39 37.1306 Q1407.91 41.7891 1407.91 49.9314 Q1407.91 58.0738 1411.35 62.7728 Q1414.84 67.4314 1420.87 67.4314 Q1426.83 67.4314 1430.31 62.7323 Q1433.8 58.0333 1433.8 49.9314 Q1433.8 41.8701 1430.31 37.1711 Q1426.83 32.4315 1420.87 32.4315 M1420.87 26.1121 Q1430.6 26.1121 1436.14 32.4315 Q1441.69 38.7509 1441.69 49.9314 Q1441.69 61.0714 1436.14 67.4314 Q1430.6 73.7508 1420.87 73.7508 Q1411.11 73.7508 1405.56 67.4314 Q1400.05 61.0714 1400.05 49.9314 Q1400.05 38.7509 1405.56 32.4315 Q1411.11 26.1121 1420.87 26.1121 Z" fill="#000000" fill-rule="nonzero" fill-opacity="1" /><path clip-path="url(#clip780)" d="M1491.76 45.1919 L1491.76 72.576 L1484.31 72.576 L1484.31 45.4349 Q1484.31 38.994 1481.8 35.7938 Q1479.29 32.5936 1474.26 32.5936 Q1468.23 32.5936 1464.74 36.4419 Q1461.26 40.2903 1461.26 46.9338 L1461.26 72.576 L1453.77 72.576 L1453.77 27.2059 L1461.26 27.2059 L1461.26 34.2544 Q1463.93 30.163 1467.54 28.1376 Q1471.19 26.1121 1475.92 26.1121 Q1483.74 26.1121 1487.75 30.9732 Q1491.76 35.7938 1491.76 45.1919 Z" fill="#000000" fill-rule="nonzero" fill-opacity="1" /><path clip-path="url(#clip780)" d="M1550.58 32.4315 Q1544.59 32.4315 1541.1 37.1306 Q1537.62 41.7891 1537.62 49.9314 Q1537.62 58.0738 1541.06 62.7728 Q1544.55 67.4314 1550.58 67.4314 Q1556.54 67.4314 1560.02 62.7323 Q1563.51 58.0333 1563.51 49.9314 Q1563.51 41.8701 1560.02 37.1711 Q1556.54 32.4315 1550.58 32.4315 M1550.58 26.1121 Q1560.31 26.1121 1565.85 32.4315 Q1571.4 38.7509 1571.4 49.9314 Q1571.4 61.0714 1565.85 67.4314 Q1560.31 73.7508 1550.58 73.7508 Q1540.82 73.7508 1535.27 67.4314 Q1529.76 61.0714 1529.76 49.9314 Q1529.76 38.7509 1535.27 32.4315 Q1540.82 26.1121 1550.58 26.1121 Z" fill="#000000" fill-rule="nonzero" fill-opacity="1" /><path clip-path="url(#clip780)" d="M1621.47 45.1919 L1621.47 72.576 L1614.02 72.576 L1614.02 45.4349 Q1614.02 38.994 1611.51 35.7938 Q1609 32.5936 1603.97 32.5936 Q1597.94 32.5936 1594.45 36.4419 Q1590.97 40.2903 1590.97 46.9338 L1590.97 72.576 L1583.48 72.576 L1583.48 27.2059 L1590.97 27.2059 L1590.97 34.2544 Q1593.64 30.163 1597.25 28.1376 Q1600.9 26.1121 1605.63 26.1121 Q1613.45 26.1121 1617.46 30.9732 Q1621.47 35.7938 1621.47 45.1919 Z" fill="#000000" fill-rule="nonzero" fill-opacity="1" /><path clip-path="url(#clip780)" d="M1663.04 12.096 L1701.28 12.096 L1701.28 18.9825 L1671.22 18.9825 L1671.22 36.8875 L1700.02 36.8875 L1700.02 43.7741 L1671.22 43.7741 L1671.22 65.6895 L1702.01 65.6895 L1702.01 72.576 L1663.04 72.576 L1663.04 12.096 Z" fill="#000000" fill-rule="nonzero" fill-opacity="1" /><path clip-path="url(#clip780)" d="M1722.34 65.7705 L1722.34 89.8329 L1714.85 89.8329 L1714.85 27.2059 L1722.34 27.2059 L1722.34 34.0924 Q1724.69 30.0415 1728.26 28.0971 Q1731.86 26.1121 1736.84 26.1121 Q1745.11 26.1121 1750.25 32.6746 Q1755.44 39.2371 1755.44 49.9314 Q1755.44 60.6258 1750.25 67.1883 Q1745.11 73.7508 1736.84 73.7508 Q1731.86 73.7508 1728.26 71.8063 Q1724.69 69.8214 1722.34 65.7705 M1747.7 49.9314 Q1747.7 41.7081 1744.3 37.0496 Q1740.94 32.3505 1735.02 32.3505 Q1729.11 32.3505 1725.7 37.0496 Q1722.34 41.7081 1722.34 49.9314 Q1722.34 58.1548 1725.7 62.8538 Q1729.11 67.5124 1735.02 67.5124 Q1740.94 67.5124 1744.3 62.8538 Q1747.7 58.1548 1747.7 49.9314 Z" fill="#000000" fill-rule="nonzero" fill-opacity="1" /><path clip-path="url(#clip780)" d="M1767.79 27.2059 L1775.25 27.2059 L1775.25 72.576 L1767.79 72.576 L1767.79 27.2059 M1767.79 9.54393 L1775.25 9.54393 L1775.25 18.9825 L1767.79 18.9825 L1767.79 9.54393 Z" fill="#000000" fill-rule="nonzero" fill-opacity="1" /><path clip-path="url(#clip780)" d="M1820.7 34.0924 L1820.7 9.54393 L1828.15 9.54393 L1828.15 72.576 L1820.7 72.576 L1820.7 65.7705 Q1818.35 69.8214 1814.74 71.8063 Q1811.18 73.7508 1806.15 73.7508 Q1797.93 73.7508 1792.75 67.1883 Q1787.6 60.6258 1787.6 49.9314 Q1787.6 39.2371 1792.75 32.6746 Q1797.93 26.1121 1806.15 26.1121 Q1811.18 26.1121 1814.74 28.0971 Q1818.35 30.0415 1820.7 34.0924 M1795.3 49.9314 Q1795.3 58.1548 1798.66 62.8538 Q1802.06 67.5124 1807.98 67.5124 Q1813.89 67.5124 1817.29 62.8538 Q1820.7 58.1548 1820.7 49.9314 Q1820.7 41.7081 1817.29 37.0496 Q1813.89 32.3505 1807.98 32.3505 Q1802.06 32.3505 1798.66 37.0496 Q1795.3 41.7081 1795.3 49.9314 Z" fill="#000000" fill-rule="nonzero" fill-opacity="1" /><path clip-path="url(#clip780)" d="M1882.31 48.0275 L1882.31 51.6733 L1848.04 51.6733 Q1848.53 59.3701 1852.66 63.421 Q1856.83 67.4314 1864.24 67.4314 Q1868.54 67.4314 1872.55 66.3781 Q1876.6 65.3249 1880.57 63.2184 L1880.57 70.267 Q1876.56 71.9684 1872.35 72.8596 Q1868.13 73.7508 1863.8 73.7508 Q1852.94 73.7508 1846.58 67.4314 Q1840.26 61.1119 1840.26 50.3365 Q1840.26 39.1965 1846.26 32.6746 Q1852.29 26.1121 1862.5 26.1121 Q1871.66 26.1121 1876.96 32.0264 Q1882.31 37.9003 1882.31 48.0275 M1874.86 45.84 Q1874.78 39.7232 1871.41 36.0774 Q1868.09 32.4315 1862.58 32.4315 Q1856.35 32.4315 1852.58 35.9558 Q1848.85 39.4801 1848.28 45.8805 L1874.86 45.84 Z" fill="#000000" fill-rule="nonzero" fill-opacity="1" /><path clip-path="url(#clip780)" d="M1929.87 35.9153 Q1932.66 30.8922 1936.55 28.5022 Q1940.44 26.1121 1945.71 26.1121 Q1952.8 26.1121 1956.65 31.0947 Q1960.49 36.0368 1960.49 45.1919 L1960.49 72.576 L1953 72.576 L1953 45.4349 Q1953 38.913 1950.69 35.7533 Q1948.38 32.5936 1943.64 32.5936 Q1937.85 32.5936 1934.49 36.4419 Q1931.12 40.2903 1931.12 46.9338 L1931.12 72.576 L1923.63 72.576 L1923.63 45.4349 Q1923.63 38.8725 1921.32 35.7533 Q1919.01 32.5936 1914.19 32.5936 Q1908.48 32.5936 1905.12 36.4824 Q1901.76 40.3308 1901.76 46.9338 L1901.76 72.576 L1894.26 72.576 L1894.26 27.2059 L1901.76 27.2059 L1901.76 34.2544 Q1904.31 30.082 1907.87 28.0971 Q1911.44 26.1121 1916.34 26.1121 Q1921.28 26.1121 1924.72 28.6237 Q1928.21 31.1352 1929.87 35.9153 Z" fill="#000000" fill-rule="nonzero" fill-opacity="1" /><path clip-path="url(#clip780)" d="M1975.36 27.2059 L1982.81 27.2059 L1982.81 72.576 L1975.36 72.576 L1975.36 27.2059 M1975.36 9.54393 L1982.81 9.54393 L1982.81 18.9825 L1975.36 18.9825 L1975.36 9.54393 Z" fill="#000000" fill-rule="nonzero" fill-opacity="1" /><path clip-path="url(#clip780)" d="M2031.06 28.9478 L2031.06 35.9153 Q2027.9 34.1734 2024.7 33.3227 Q2021.54 32.4315 2018.3 32.4315 Q2011.05 32.4315 2007.04 37.0496 Q2003.03 41.6271 2003.03 49.9314 Q2003.03 58.2358 2007.04 62.8538 Q2011.05 67.4314 2018.3 67.4314 Q2021.54 67.4314 2024.7 66.5807 Q2027.9 65.6895 2031.06 63.9476 L2031.06 70.8341 Q2027.94 72.2924 2024.58 73.0216 Q2021.26 73.7508 2017.49 73.7508 Q2007.24 73.7508 2001.21 67.3098 Q1995.17 60.8689 1995.17 49.9314 Q1995.17 38.832 2001.25 32.472 Q2007.36 26.1121 2017.98 26.1121 Q2021.42 26.1121 2024.7 26.8413 Q2027.98 27.5299 2031.06 28.9478 Z" fill="#000000" fill-rule="nonzero" fill-opacity="1" /><path clip-path="url(#clip780)" d="M2116.01 16.7545 L2116.01 25.383 Q2111.88 21.5346 2107.18 19.6307 Q2102.52 17.7268 2097.25 17.7268 Q2086.88 17.7268 2081.37 24.0867 Q2075.86 30.4061 2075.86 42.3968 Q2075.86 54.3469 2081.37 60.7069 Q2086.88 67.0263 2097.25 67.0263 Q2102.52 67.0263 2107.18 65.1223 Q2111.88 63.2184 2116.01 59.3701 L2116.01 67.9175 Q2111.71 70.8341 2106.89 72.2924 Q2102.11 73.7508 2096.77 73.7508 Q2083.03 73.7508 2075.13 65.3654 Q2067.24 56.9395 2067.24 42.3968 Q2067.24 27.8135 2075.13 19.4281 Q2083.03 11.0023 2096.77 11.0023 Q2102.19 11.0023 2106.97 12.4606 Q2111.8 13.8784 2116.01 16.7545 Z" fill="#000000" fill-rule="nonzero" fill-opacity="1" /><path clip-path="url(#clip780)" d="M2127.55 54.671 L2127.55 27.2059 L2135.01 27.2059 L2135.01 54.3874 Q2135.01 60.8284 2137.52 64.0691 Q2140.03 67.2693 2145.05 67.2693 Q2151.09 67.2693 2154.57 63.421 Q2158.1 59.5726 2158.1 52.9291 L2158.1 27.2059 L2165.55 27.2059 L2165.55 72.576 L2158.1 72.576 L2158.1 65.6084 Q2155.38 69.7404 2151.78 71.7658 Q2148.21 73.7508 2143.47 73.7508 Q2135.66 73.7508 2131.6 68.8897 Q2127.55 64.0286 2127.55 54.671 M2146.31 26.1121 L2146.31 26.1121 Z" fill="#000000" fill-rule="nonzero" fill-opacity="1" /><path clip-path="url(#clip780)" d="M2207.19 34.1734 Q2205.94 33.4443 2204.44 33.1202 Q2202.98 32.7556 2201.2 32.7556 Q2194.88 32.7556 2191.48 36.8875 Q2188.11 40.9789 2188.11 48.6757 L2188.11 72.576 L2180.62 72.576 L2180.62 27.2059 L2188.11 27.2059 L2188.11 34.2544 Q2190.46 30.1225 2194.23 28.1376 Q2198 26.1121 2203.39 26.1121 Q2204.16 26.1121 2205.09 26.2337 Q2206.02 26.3147 2207.15 26.5172 L2207.19 34.1734 Z" fill="#000000" fill-rule="nonzero" fill-opacity="1" /><path clip-path="url(#clip780)" d="M2209.67 27.2059 L2217.56 27.2059 L2231.74 65.2844 L2245.92 27.2059 L2253.82 27.2059 L2236.81 72.576 L2226.68 72.576 L2209.67 27.2059 Z" fill="#000000" fill-rule="nonzero" fill-opacity="1" /><path clip-path="url(#clip780)" d="M2302.92 48.0275 L2302.92 51.6733 L2268.65 51.6733 Q2269.13 59.3701 2273.26 63.421 Q2277.44 67.4314 2284.85 67.4314 Q2289.14 67.4314 2293.15 66.3781 Q2297.21 65.3249 2301.18 63.2184 L2301.18 70.267 Q2297.16 71.9684 2292.95 72.8596 Q2288.74 73.7508 2284.4 73.7508 Q2273.55 73.7508 2267.19 67.4314 Q2260.87 61.1119 2260.87 50.3365 Q2260.87 39.1965 2266.86 32.6746 Q2272.9 26.1121 2283.11 26.1121 Q2292.26 26.1121 2297.57 32.0264 Q2302.92 37.9003 2302.92 48.0275 M2295.46 45.84 Q2295.38 39.7232 2292.02 36.0774 Q2288.7 32.4315 2283.19 32.4315 Q2276.95 32.4315 2273.18 35.9558 Q2269.46 39.4801 2268.89 45.8805 L2295.46 45.84 Z" fill="#000000" fill-rule="nonzero" fill-opacity="1" /><polyline clip-path="url(#clip781)" style="stroke:#ff0000; stroke-linecap:round; stroke-linejoin:round; stroke-width:8; stroke-opacity:1; fill:none" points="338.767,1686.42 344.89,1686.03 351.013,1685.69 357.137,1685.32 363.26,1684.92 369.383,1684.55 375.506,1683.64 381.629,1682.54 387.752,1681.35 393.875,1680.28 399.998,1679.09 406.122,1677.85 412.245,1676.32 418.368,1674.37 424.491,1672.37 430.614,1670.2 436.737,1667.7 442.86,1664.92 448.983,1662.42 455.107,1659.03 461.23,1655.41 467.353,1650.99 473.476,1646.63 479.599,1641.24 485.722,1635.12 491.845,1628.91 497.968,1621.79 504.092,1614.28 510.215,1606.04 516.338,1596.26 522.461,1585.28 528.584,1573.73 534.707,1560.99 540.83,1546.65 546.953,1530.6 553.077,1513.05 559.2,1493.94 565.323,1472.55 571.446,1450.07 577.569,1424.95 583.692,1396.63 589.815,1367.07 595.938,1333.42 602.062,1297.53 608.185,1260.08 614.308,1219.55 620.431,1176.23 626.554,1129.46 632.677,1080.07 638.8,1027.14 644.923,973.016 651.047,914.797 657.17,853.526 663.293,792.426 669.416,730.428 675.539,667.096 681.662,602.982 687.785,540.307 693.908,480.423 700.032,423.098 706.155,370.392 712.278,322.966 718.401,280.937 724.524,242.777 730.647,214.457 736.77,193.058 742.893,178.66 749.017,173.254 755.14,179.137 761.263,191.212 767.386,213.783 773.509,242.328 779.632,279.439 785.755,323.684 791.878,373.488 798.002,427.641 804.125,484.295 810.248,544.464 816.371,605.456 822.494,668.978 828.617,731.36 834.74,794.049 840.863,854.79 846.987,912.493 853.11,969.962 859.233,1023.79 865.356,1075.84 871.479,1125.26 877.602,1171.75 883.725,1215 889.848,1255.51 895.972,1293.1 902.095,1328.12 908.218,1359.94 914.341,1389.13 920.464,1416.73 926.587,1441.39 932.71,1464.8 938.833,1485.82 944.957,1505.08 951.08,1522.68 957.203,1538.65 963.326,1553.74 969.449,1566.49 975.572,1577.86 981.695,1588.43 987.818,1598.06 993.942,1606.72 1000.06,1614.62 1006.19,1621.52 1012.31,1627.93 1018.43,1633.93 1024.56,1639.05 1030.68,1644.07 1036.8,1648.79 1042.93,1652.58 1049.05,1656.06 1055.17,1659.36 1061.3,1662.15 1067.42,1664.63 1073.54,1666.95 1079.67,1668.84 1085.79,1670.8 1091.91,1672.5 1098.03,1673.82 1104.16,1675.15 1110.28,1676.24 1116.4,1677.33 1122.53,1678.47 1128.65,1679.29 1134.77,1680.07 1140.9,1680.78 1147.02,1681.19 1153.14,1681.66 1159.27,1682.14 1165.39,1682.64 1171.51,1683.09 1177.64,1683.42 1183.76,1683.74 1189.88,1683.98 1196,1684.18 1202.13,1684.46 1208.25,1684.53 1214.37,1684.81 1220.5,1684.95 1226.62,1685.07 1232.74,1685.11 1238.87,1685.24 1244.99,1685.32 1251.11,1685.36 1257.24,1685.46 1263.36,1685.53 1269.48,1685.59 1275.61,1685.7 1281.73,1685.72 1287.85,1685.68 1293.97,1685.67 1300.1,1685.64 1306.22,1685.64 1312.34,1685.67 1318.47,1685.7 1324.59,1685.62 1330.71,1685.64 1336.84,1685.68 1342.96,1685.66 1349.08,1685.57 1355.21,1685.59 1361.33,1685.64 1367.45,1685.59 1373.58,1685.68 1379.7,1685.68 1385.82,1685.69 1391.94,1685.62 1398.07,1685.66 1404.19,1685.73 1410.31,1685.71 1416.44,1685.71 1422.56,1685.67 1428.68,1685.67 1434.81,1685.63 1440.93,1685.59 1447.05,1685.73 1453.18,1685.77 1459.3,1685.81 1465.42,1685.81 1471.55,1685.83 1477.67,1685.75 1483.79,1685.77 1489.91,1685.73 1496.04,1685.68 1502.16,1685.69 1508.28,1685.73 1514.41,1685.81 1520.53,1685.89 1526.65,1685.9 1532.78,1685.93 1538.9,1685.86 1545.02,1685.85 1551.15,1685.92 1557.27,1685.89 1563.39,1685.95 1569.52,1685.87 1575.64,1685.85 1581.76,1685.86 1587.88,1685.85 1594.01,1685.79 1600.13,1685.84 1606.25,1685.9 1612.38,1685.92 1618.5,1685.9 1624.62,1685.95 1630.75,1686.01 1636.87,1685.96 1642.99,1686 1649.12,1686.07 1655.24,1686.1 1661.36,1686.13 1667.49,1686.13 1673.61,1686.15 1679.73,1686.18 1685.85,1686.3 1691.98,1686.34 1698.1,1686.46 1704.22,1686.59 1710.35,1686.69 1716.47,1686.69 1722.59,1686.71 1728.72,1686.72 1734.84,1686.75 1740.96,1686.81 1747.09,1686.88 1753.21,1686.87 1759.33,1686.92 1765.46,1686.94 1771.58,1687 1777.7,1687.09 1783.82,1687.15 1789.95,1687.2 1796.07,1687.3 1802.19,1687.34 1808.32,1687.38 1814.44,1687.42 1820.56,1687.41 1826.69,1687.48 1832.81,1687.56 1838.93,1687.57 1845.06,1687.66 1851.18,1687.69 1857.3,1687.78 1863.43,1687.81 1869.55,1687.85 1875.67,1687.9 1881.79,1687.95 1887.92,1688.01 1894.04,1688.03 1900.16,1688.09 1906.29,1688.12 1912.41,1688.13 1918.53,1688.19 1924.66,1688.23 1930.78,1688.29 1936.9,1688.31 1943.03,1688.34 1949.15,1688.36 1955.27,1688.41 1961.4,1688.4 1967.52,1688.39 1973.64,1688.38 1979.76,1688.43 1985.89,1688.41 1992.01,1688.4 1998.13,1688.39 2004.26,1688.41 2010.38,1688.4 2016.5,1688.43 2022.63,1688.44 2028.75,1688.44 2034.87,1688.43 2041,1688.47 2047.12,1688.49 2053.24,1688.48 2059.37,1688.46 2065.49,1688.46 2071.61,1688.47 2077.73,1688.49 2083.86,1688.5 2089.98,1688.5 2096.1,1688.49 2102.23,1688.5 2108.35,1688.49 2114.47,1688.47 2120.6,1688.49 2126.72,1688.49 2132.84,1688.47 2138.97,1688.48 2145.09,1688.5 2151.21,1688.5 2157.34,1688.49 2163.46,1688.5 2169.58,1688.51 2175.7,1688.51 2181.83,1688.51 2187.95,1688.51 2194.07,1688.5 2200.2,1688.5 2206.32,1688.5 2212.44,1688.51 2218.57,1688.51 2224.69,1688.53 2230.81,1688.51 2236.94,1688.49 2243.06,1688.51 2249.18,1688.51 2255.31,1688.51 2261.43,1688.53 2267.55,1688.53 2273.67,1688.51 2279.8,1688.51 2285.92,1688.5 2292.04,1688.48 2298.17,1688.49 2304.29,1688.48 2310.41,1688.46 2316.54,1688.47 2322.66,1688.5 2328.78,1688.49 2334.91,1688.49 2341.03,1688.51 2347.15,1688.49 2353.28,1688.51 2359.4,1688.52 2365.52,1688.54 2371.64,1688.54 2377.77,1688.53 2383.89,1688.52 2390.01,1688.48 2396.14,1688.48 2402.26,1688.51 2408.38,1688.52 2414.51,1688.51 2420.63,1688.54 2426.75,1688.54 2432.88,1688.52 2439,1688.49 2445.12,1688.51 2451.25,1688.5 2457.37,1688.5 2463.49,1688.52 2469.61,1688.54 2475.74,1688.52 2481.86,1688.51 2487.98,1688.53 2494.11,1688.52 2500.23,1688.53 2506.35,1688.55 2512.48,1688.53 2518.6,1688.52 2524.72,1688.52 2530.85,1688.52 2536.97,1688.51 2543.09,1688.53 2549.22,1688.51 2555.34,1688.51 2561.46,1688.5 2567.58,1688.51 2573.71,1688.5 "/>
<polyline clip-path="url(#clip781)" style="stroke:#0000ff; stroke-linecap:round; stroke-linejoin:round; stroke-width:8; stroke-opacity:1; fill:none" points="338.767,1686.42 344.89,1686.03 351.013,1685.6 357.137,1685.34 363.26,1685.06 369.383,1684.66 375.506,1683.79 381.629,1682.7 387.752,1681.5 393.875,1680.42 399.998,1679.39 406.122,1678.23 412.245,1676.69 418.368,1675.14 424.491,1673.36 430.614,1671.3 436.737,1669.06 442.86,1666.92 448.983,1664.12 455.107,1661.65 461.23,1658.67 467.353,1655.17 473.476,1650.96 479.599,1647.25 485.722,1642.39 491.845,1637.68 497.968,1632.42 504.092,1626.46 510.215,1620.46 516.338,1613.49 522.461,1605.8 528.584,1597.95 534.707,1589.27 540.83,1579.62 546.953,1569.67 553.077,1558.71 559.2,1546.4 565.323,1533.96 571.446,1519.77 577.569,1505.67 583.692,1489.79 589.815,1472.93 595.938,1455.41 602.062,1435.75 608.185,1415.24 614.308,1394.01 620.431,1372.21 626.554,1348.04 632.677,1323.3 638.8,1298.67 644.923,1272.11 651.047,1245.82 657.17,1216.97 663.293,1188.01 669.416,1160.86 675.539,1132.3 681.662,1104.19 687.785,1076.5 693.908,1048.82 700.032,1022.56 706.155,995.84 712.278,971.888 718.401,948.689 724.524,927.604 730.647,910.207 736.77,894.914 742.893,882.564 749.017,870.965 755.14,862.713 761.263,857.12 767.386,857.073 773.509,857.287 779.632,863.537 785.755,872.216 791.878,884.264 798.002,896.45 804.125,913.73 810.248,933.455 816.371,954.347 822.494,977.038 828.617,1002.49 834.74,1027.43 840.863,1054.07 846.987,1082.04 853.11,1109.04 859.233,1137.56 865.356,1166.14 871.479,1193.21 877.602,1220.57 883.725,1247.06 889.848,1272.3 895.972,1297.88 902.095,1321.86 908.218,1344.76 914.341,1367.35 920.464,1389.35 926.587,1409.92 932.71,1429.47 938.833,1447.65 944.957,1465.21 951.08,1481.44 957.203,1496.85 963.326,1511.75 969.449,1524.68 975.572,1537.09 981.695,1549.26 987.818,1560.12 993.942,1570.43 1000.06,1579.49 1006.19,1588.38 1012.31,1596.26 1018.43,1603.73 1024.56,1610.41 1030.68,1616.67 1036.8,1622.39 1042.93,1627.62 1049.05,1632.82 1055.17,1637.38 1061.3,1641.35 1067.42,1645.14 1073.54,1648.47 1079.67,1651.89 1085.79,1655.18 1091.91,1657.72 1098.03,1659.98 1104.16,1662.22 1110.28,1664.28 1116.4,1666.28 1122.53,1668.05 1128.65,1669.77 1134.77,1671.23 1140.9,1672.61 1147.02,1673.73 1153.14,1674.83 1159.27,1675.75 1165.39,1676.61 1171.51,1677.45 1177.64,1678 1183.76,1678.69 1189.88,1679.41 1196,1680.07 1202.13,1680.53 1208.25,1680.9 1214.37,1681.14 1220.5,1681.46 1226.62,1681.71 1232.74,1681.95 1238.87,1682.06 1244.99,1682.45 1251.11,1682.67 1257.24,1682.89 1263.36,1683.04 1269.48,1683.21 1275.61,1683.31 1281.73,1683.37 1287.85,1683.41 1293.97,1683.59 1300.1,1683.76 1306.22,1683.89 1312.34,1683.94 1318.47,1684.05 1324.59,1684.13 1330.71,1684.19 1336.84,1684.18 1342.96,1684.24 1349.08,1684.28 1355.21,1684.27 1361.33,1684.41 1367.45,1684.47 1373.58,1684.56 1379.7,1684.69 1385.82,1684.69 1391.94,1684.77 1398.07,1684.79 1404.19,1684.86 1410.31,1684.94 1416.44,1685.05 1422.56,1685.12 1428.68,1685.09 1434.81,1685.12 1440.93,1685.15 1447.05,1685.08 1453.18,1685.1 1459.3,1685.16 1465.42,1685.17 1471.55,1685.21 1477.67,1685.24 1483.79,1685.38 1489.91,1685.38 1496.04,1685.38 1502.16,1685.33 1508.28,1685.37 1514.41,1685.45 1520.53,1685.41 1526.65,1685.6 1532.78,1685.61 1538.9,1685.55 1545.02,1685.54 1551.15,1685.53 1557.27,1685.54 1563.39,1685.53 1569.52,1685.5 1575.64,1685.52 1581.76,1685.65 1587.88,1685.66 1594.01,1685.74 1600.13,1685.83 1606.25,1685.88 1612.38,1685.83 1618.5,1685.87 1624.62,1685.81 1630.75,1685.85 1636.87,1685.9 1642.99,1686.01 1649.12,1685.95 1655.24,1686.08 1661.36,1686.18 1667.49,1686.29 1673.61,1686.36 1679.73,1686.45 1685.85,1686.5 1691.98,1686.62 1698.1,1686.63 1704.22,1686.71 1710.35,1686.73 1716.47,1686.76 1722.59,1686.74 1728.72,1686.83 1734.84,1686.84 1740.96,1686.92 1747.09,1686.93 1753.21,1686.93 1759.33,1686.96 1765.46,1687.05 1771.58,1687.15 1777.7,1687.26 1783.82,1687.38 1789.95,1687.37 1796.07,1687.4 1802.19,1687.48 1808.32,1687.54 1814.44,1687.61 1820.56,1687.71 1826.69,1687.75 1832.81,1687.8 1838.93,1687.85 1845.06,1687.9 1851.18,1687.94 1857.3,1688 1863.43,1688.02 1869.55,1688.03 1875.67,1688.08 1881.79,1688.1 1887.92,1688.15 1894.04,1688.19 1900.16,1688.26 1906.29,1688.3 1912.41,1688.34 1918.53,1688.34 1924.66,1688.36 1930.78,1688.38 1936.9,1688.37 1943.03,1688.39 1949.15,1688.41 1955.27,1688.4 1961.4,1688.43 1967.52,1688.44 1973.64,1688.43 1979.76,1688.44 1985.89,1688.47 1992.01,1688.5 1998.13,1688.51 2004.26,1688.53 2010.38,1688.53 2016.5,1688.54 2022.63,1688.52 2028.75,1688.51 2034.87,1688.51 2041,1688.53 2047.12,1688.53 2053.24,1688.55 2059.37,1688.53 2065.49,1688.53 2071.61,1688.52 2077.73,1688.52 2083.86,1688.54 2089.98,1688.55 2096.1,1688.55 2102.23,1688.57 2108.35,1688.59 2114.47,1688.6 2120.6,1688.59 2126.72,1688.59 2132.84,1688.59 2138.97,1688.59 2145.09,1688.59 2151.21,1688.59 2157.34,1688.6 2163.46,1688.59 2169.58,1688.59 2175.7,1688.58 2181.83,1688.57 2187.95,1688.58 2194.07,1688.58 2200.2,1688.56 2206.32,1688.56 2212.44,1688.57 2218.57,1688.6 2224.69,1688.61 2230.81,1688.63 2236.94,1688.64 2243.06,1688.65 2249.18,1688.62 2255.31,1688.63 2261.43,1688.62 2267.55,1688.6 2273.67,1688.56 2279.8,1688.56 2285.92,1688.57 2292.04,1688.6 2298.17,1688.59 2304.29,1688.6 2310.41,1688.63 2316.54,1688.63 2322.66,1688.62 2328.78,1688.63 2334.91,1688.63 2341.03,1688.62 2347.15,1688.62 2353.28,1688.62 2359.4,1688.62 2365.52,1688.62 2371.64,1688.62 2377.77,1688.62 2383.89,1688.62 2390.01,1688.61 2396.14,1688.58 2402.26,1688.58 2408.38,1688.58 2414.51,1688.58 2420.63,1688.6 2426.75,1688.59 2432.88,1688.59 2439,1688.6 2445.12,1688.61 2451.25,1688.6 2457.37,1688.63 2463.49,1688.6 2469.61,1688.6 2475.74,1688.59 2481.86,1688.59 2487.98,1688.58 2494.11,1688.57 2500.23,1688.58 2506.35,1688.58 2512.48,1688.57 2518.6,1688.56 2524.72,1688.57 2530.85,1688.57 2536.97,1688.59 2543.09,1688.61 2549.22,1688.63 2555.34,1688.63 2561.46,1688.64 2567.58,1688.64 2573.71,1688.64 "/>
<path clip-path="url(#clip780)" d="M1935.47 336.856 L2561.79 336.856 L2561.79 181.336 L1935.47 181.336  Z" fill="#ffffff" fill-rule="evenodd" fill-opacity="1"/>
<polyline clip-path="url(#clip780)" style="stroke:#000000; stroke-linecap:round; stroke-linejoin:round; stroke-width:4; stroke-opacity:1; fill:none" points="1935.47,336.856 2561.79,336.856 2561.79,181.336 1935.47,181.336 1935.47,336.856 "/>
<polyline clip-path="url(#clip780)" style="stroke:#ff0000; stroke-linecap:round; stroke-linejoin:round; stroke-width:8; stroke-opacity:1; fill:none" points="1961.79,233.176 2119.72,233.176 "/>
<path clip-path="url(#clip780)" d="M2146.05 215.896 L2152.34 215.896 L2167.67 244.808 L2167.67 215.896 L2172.2 215.896 L2172.2 250.456 L2165.91 250.456 L2150.58 221.544 L2150.58 250.456 L2146.05 250.456 L2146.05 215.896 Z" fill="#000000" fill-rule="nonzero" fill-opacity="1" /><path clip-path="url(#clip780)" d="M2191.37 227.517 Q2187.94 227.517 2185.95 230.202 Q2183.96 232.864 2183.96 237.517 Q2183.96 242.169 2185.93 244.854 Q2187.92 247.516 2191.37 247.516 Q2194.77 247.516 2196.76 244.831 Q2198.75 242.146 2198.75 237.517 Q2198.75 232.91 2196.76 230.225 Q2194.77 227.517 2191.37 227.517 M2191.37 223.906 Q2196.93 223.906 2200.1 227.517 Q2203.27 231.128 2203.27 237.517 Q2203.27 243.882 2200.1 247.516 Q2196.93 251.128 2191.37 251.128 Q2185.79 251.128 2182.62 247.516 Q2179.47 243.882 2179.47 237.517 Q2179.47 231.128 2182.62 227.517 Q2185.79 223.906 2191.37 223.906 Z" fill="#000000" fill-rule="nonzero" fill-opacity="1" /><path clip-path="url(#clip780)" d="M2222.34 224.531 L2226.86 224.531 L2234.96 246.29 L2243.06 224.531 L2247.57 224.531 L2237.85 250.456 L2232.06 250.456 L2222.34 224.531 Z" fill="#000000" fill-rule="nonzero" fill-opacity="1" /><path clip-path="url(#clip780)" d="M2265.24 237.424 Q2260.07 237.424 2258.08 238.604 Q2256.09 239.785 2256.09 242.632 Q2256.09 244.901 2257.57 246.243 Q2259.08 247.563 2261.65 247.563 Q2265.19 247.563 2267.32 245.063 Q2269.47 242.54 2269.47 238.373 L2269.47 237.424 L2265.24 237.424 M2273.73 235.665 L2273.73 250.456 L2269.47 250.456 L2269.47 246.521 Q2268.01 248.882 2265.84 250.016 Q2263.66 251.128 2260.51 251.128 Q2256.53 251.128 2254.17 248.905 Q2251.83 246.66 2251.83 242.91 Q2251.83 238.535 2254.75 236.313 Q2257.69 234.091 2263.5 234.091 L2269.47 234.091 L2269.47 233.674 Q2269.47 230.734 2267.53 229.137 Q2265.61 227.517 2262.11 227.517 Q2259.89 227.517 2257.78 228.049 Q2255.68 228.581 2253.73 229.646 L2253.73 225.711 Q2256.07 224.808 2258.27 224.368 Q2260.47 223.906 2262.55 223.906 Q2268.18 223.906 2270.95 226.822 Q2273.73 229.739 2273.73 235.665 Z" fill="#000000" fill-rule="nonzero" fill-opacity="1" /><path clip-path="url(#clip780)" d="M2301.16 225.526 L2301.16 229.507 Q2299.36 228.512 2297.53 228.026 Q2295.72 227.517 2293.87 227.517 Q2289.73 227.517 2287.43 230.155 Q2285.14 232.771 2285.14 237.517 Q2285.14 242.262 2287.43 244.901 Q2289.73 247.516 2293.87 247.516 Q2295.72 247.516 2297.53 247.03 Q2299.36 246.521 2301.16 245.526 L2301.16 249.461 Q2299.38 250.294 2297.46 250.711 Q2295.56 251.128 2293.41 251.128 Q2287.55 251.128 2284.1 247.447 Q2280.65 243.767 2280.65 237.517 Q2280.65 231.174 2284.12 227.54 Q2287.62 223.906 2293.68 223.906 Q2295.65 223.906 2297.53 224.322 Q2299.4 224.716 2301.16 225.526 Z" fill="#000000" fill-rule="nonzero" fill-opacity="1" /><path clip-path="url(#clip780)" d="M2327.23 225.526 L2327.23 229.507 Q2325.42 228.512 2323.59 228.026 Q2321.79 227.517 2319.93 227.517 Q2315.79 227.517 2313.5 230.155 Q2311.21 232.771 2311.21 237.517 Q2311.21 242.262 2313.5 244.901 Q2315.79 247.516 2319.93 247.516 Q2321.79 247.516 2323.59 247.03 Q2325.42 246.521 2327.23 245.526 L2327.23 249.461 Q2325.44 250.294 2323.52 250.711 Q2321.62 251.128 2319.47 251.128 Q2313.61 251.128 2310.17 247.447 Q2306.72 243.767 2306.72 237.517 Q2306.72 231.174 2310.19 227.54 Q2313.68 223.906 2319.75 223.906 Q2321.72 223.906 2323.59 224.322 Q2325.47 224.716 2327.23 225.526 Z" fill="#000000" fill-rule="nonzero" fill-opacity="1" /><path clip-path="url(#clip780)" d="M2334.63 224.531 L2338.89 224.531 L2338.89 250.456 L2334.63 250.456 L2334.63 224.531 M2334.63 214.438 L2338.89 214.438 L2338.89 219.831 L2334.63 219.831 L2334.63 214.438 Z" fill="#000000" fill-rule="nonzero" fill-opacity="1" /><path clip-path="url(#clip780)" d="M2369.36 234.808 L2369.36 250.456 L2365.1 250.456 L2365.1 234.947 Q2365.1 231.267 2363.66 229.438 Q2362.23 227.609 2359.36 227.609 Q2355.91 227.609 2353.92 229.808 Q2351.92 232.007 2351.92 235.804 L2351.92 250.456 L2347.64 250.456 L2347.64 224.531 L2351.92 224.531 L2351.92 228.558 Q2353.45 226.22 2355.51 225.063 Q2357.6 223.906 2360.3 223.906 Q2364.77 223.906 2367.06 226.683 Q2369.36 229.438 2369.36 234.808 Z" fill="#000000" fill-rule="nonzero" fill-opacity="1" /><path clip-path="url(#clip780)" d="M2389.63 237.424 Q2384.47 237.424 2382.48 238.604 Q2380.49 239.785 2380.49 242.632 Q2380.49 244.901 2381.97 246.243 Q2383.48 247.563 2386.04 247.563 Q2389.59 247.563 2391.72 245.063 Q2393.87 242.54 2393.87 238.373 L2393.87 237.424 L2389.63 237.424 M2398.13 235.665 L2398.13 250.456 L2393.87 250.456 L2393.87 246.521 Q2392.41 248.882 2390.23 250.016 Q2388.06 251.128 2384.91 251.128 Q2380.93 251.128 2378.57 248.905 Q2376.23 246.66 2376.23 242.91 Q2376.23 238.535 2379.15 236.313 Q2382.09 234.091 2387.9 234.091 L2393.87 234.091 L2393.87 233.674 Q2393.87 230.734 2391.92 229.137 Q2390 227.517 2386.51 227.517 Q2384.29 227.517 2382.18 228.049 Q2380.07 228.581 2378.13 229.646 L2378.13 225.711 Q2380.47 224.808 2382.67 224.368 Q2384.86 223.906 2386.95 223.906 Q2392.57 223.906 2395.35 226.822 Q2398.13 229.739 2398.13 235.665 Z" fill="#000000" fill-rule="nonzero" fill-opacity="1" /><path clip-path="url(#clip780)" d="M2411.11 217.169 L2411.11 224.531 L2419.89 224.531 L2419.89 227.841 L2411.11 227.841 L2411.11 241.915 Q2411.11 245.086 2411.97 245.989 Q2412.85 246.891 2415.51 246.891 L2419.89 246.891 L2419.89 250.456 L2415.51 250.456 Q2410.58 250.456 2408.71 248.628 Q2406.83 246.776 2406.83 241.915 L2406.83 227.841 L2403.71 227.841 L2403.71 224.531 L2406.83 224.531 L2406.83 217.169 L2411.11 217.169 Z" fill="#000000" fill-rule="nonzero" fill-opacity="1" /><path clip-path="url(#clip780)" d="M2425.49 224.531 L2429.75 224.531 L2429.75 250.456 L2425.49 250.456 L2425.49 224.531 M2425.49 214.438 L2429.75 214.438 L2429.75 219.831 L2425.49 219.831 L2425.49 214.438 Z" fill="#000000" fill-rule="nonzero" fill-opacity="1" /><path clip-path="url(#clip780)" d="M2448.71 227.517 Q2445.28 227.517 2443.29 230.202 Q2441.3 232.864 2441.3 237.517 Q2441.3 242.169 2443.27 244.854 Q2445.26 247.516 2448.71 247.516 Q2452.11 247.516 2454.1 244.831 Q2456.09 242.146 2456.09 237.517 Q2456.09 232.91 2454.1 230.225 Q2452.11 227.517 2448.71 227.517 M2448.71 223.906 Q2454.26 223.906 2457.43 227.517 Q2460.6 231.128 2460.6 237.517 Q2460.6 243.882 2457.43 247.516 Q2454.26 251.128 2448.71 251.128 Q2443.13 251.128 2439.96 247.516 Q2436.81 243.882 2436.81 237.517 Q2436.81 231.128 2439.96 227.517 Q2443.13 223.906 2448.71 223.906 Z" fill="#000000" fill-rule="nonzero" fill-opacity="1" /><path clip-path="url(#clip780)" d="M2489.22 234.808 L2489.22 250.456 L2484.96 250.456 L2484.96 234.947 Q2484.96 231.267 2483.52 229.438 Q2482.09 227.609 2479.22 227.609 Q2475.77 227.609 2473.78 229.808 Q2471.79 232.007 2471.79 235.804 L2471.79 250.456 L2467.5 250.456 L2467.5 224.531 L2471.79 224.531 L2471.79 228.558 Q2473.31 226.22 2475.37 225.063 Q2477.46 223.906 2480.16 223.906 Q2484.63 223.906 2486.92 226.683 Q2489.22 229.438 2489.22 234.808 Z" fill="#000000" fill-rule="nonzero" fill-opacity="1" /><polyline clip-path="url(#clip780)" style="stroke:#0000ff; stroke-linecap:round; stroke-linejoin:round; stroke-width:8; stroke-opacity:1; fill:none" points="1961.79,285.016 2119.72,285.016 "/>
<path clip-path="url(#clip780)" d="M2146.05 267.736 L2150.77 267.736 L2158.04 296.949 L2165.28 267.736 L2170.54 267.736 L2177.81 296.949 L2185.05 267.736 L2189.8 267.736 L2181.12 302.296 L2175.24 302.296 L2167.94 272.296 L2160.58 302.296 L2154.7 302.296 L2146.05 267.736 Z" fill="#000000" fill-rule="nonzero" fill-opacity="1" /><path clip-path="url(#clip780)" d="M2194.77 276.371 L2199.03 276.371 L2199.03 302.296 L2194.77 302.296 L2194.77 276.371 M2194.77 266.278 L2199.03 266.278 L2199.03 271.671 L2194.77 271.671 L2194.77 266.278 Z" fill="#000000" fill-rule="nonzero" fill-opacity="1" /><path clip-path="url(#clip780)" d="M2212.16 269.009 L2212.16 276.371 L2220.93 276.371 L2220.93 279.681 L2212.16 279.681 L2212.16 293.755 Q2212.16 296.926 2213.01 297.829 Q2213.89 298.731 2216.56 298.731 L2220.93 298.731 L2220.93 302.296 L2216.56 302.296 Q2211.62 302.296 2209.75 300.468 Q2207.87 298.616 2207.87 293.755 L2207.87 279.681 L2204.75 279.681 L2204.75 276.371 L2207.87 276.371 L2207.87 269.009 L2212.16 269.009 Z" fill="#000000" fill-rule="nonzero" fill-opacity="1" /><path clip-path="url(#clip780)" d="M2248.08 286.648 L2248.08 302.296 L2243.82 302.296 L2243.82 286.787 Q2243.82 283.107 2242.39 281.278 Q2240.95 279.449 2238.08 279.449 Q2234.63 279.449 2232.64 281.648 Q2230.65 283.847 2230.65 287.644 L2230.65 302.296 L2226.37 302.296 L2226.37 266.278 L2230.65 266.278 L2230.65 280.398 Q2232.18 278.06 2234.24 276.903 Q2236.32 275.746 2239.03 275.746 Q2243.5 275.746 2245.79 278.523 Q2248.08 281.278 2248.08 286.648 Z" fill="#000000" fill-rule="nonzero" fill-opacity="1" /><path clip-path="url(#clip780)" d="M2268.59 276.371 L2273.11 276.371 L2281.21 298.13 L2289.31 276.371 L2293.82 276.371 L2284.1 302.296 L2278.31 302.296 L2268.59 276.371 Z" fill="#000000" fill-rule="nonzero" fill-opacity="1" /><path clip-path="url(#clip780)" d="M2311.49 289.264 Q2306.32 289.264 2304.33 290.444 Q2302.34 291.625 2302.34 294.472 Q2302.34 296.741 2303.82 298.083 Q2305.33 299.403 2307.9 299.403 Q2311.44 299.403 2313.57 296.903 Q2315.72 294.38 2315.72 290.213 L2315.72 289.264 L2311.49 289.264 M2319.98 287.505 L2319.98 302.296 L2315.72 302.296 L2315.72 298.361 Q2314.26 300.722 2312.09 301.856 Q2309.91 302.968 2306.76 302.968 Q2302.78 302.968 2300.42 300.745 Q2298.08 298.5 2298.08 294.75 Q2298.08 290.375 2301 288.153 Q2303.94 285.931 2309.75 285.931 L2315.72 285.931 L2315.72 285.514 Q2315.72 282.574 2313.78 280.977 Q2311.86 279.357 2308.36 279.357 Q2306.14 279.357 2304.03 279.889 Q2301.92 280.421 2299.98 281.486 L2299.98 277.551 Q2302.32 276.648 2304.52 276.208 Q2306.72 275.746 2308.8 275.746 Q2314.42 275.746 2317.2 278.662 Q2319.98 281.579 2319.98 287.505 Z" fill="#000000" fill-rule="nonzero" fill-opacity="1" /><path clip-path="url(#clip780)" d="M2347.41 277.366 L2347.41 281.347 Q2345.61 280.352 2343.78 279.866 Q2341.97 279.357 2340.12 279.357 Q2335.98 279.357 2333.68 281.995 Q2331.39 284.611 2331.39 289.357 Q2331.39 294.102 2333.68 296.741 Q2335.98 299.356 2340.12 299.356 Q2341.97 299.356 2343.78 298.87 Q2345.61 298.361 2347.41 297.366 L2347.41 301.301 Q2345.63 302.134 2343.71 302.551 Q2341.81 302.968 2339.66 302.968 Q2333.8 302.968 2330.35 299.287 Q2326.9 295.607 2326.9 289.357 Q2326.9 283.014 2330.37 279.38 Q2333.87 275.746 2339.93 275.746 Q2341.9 275.746 2343.78 276.162 Q2345.65 276.556 2347.41 277.366 Z" fill="#000000" fill-rule="nonzero" fill-opacity="1" /><path clip-path="url(#clip780)" d="M2373.48 277.366 L2373.48 281.347 Q2371.67 280.352 2369.84 279.866 Q2368.04 279.357 2366.18 279.357 Q2362.04 279.357 2359.75 281.995 Q2357.46 284.611 2357.46 289.357 Q2357.46 294.102 2359.75 296.741 Q2362.04 299.356 2366.18 299.356 Q2368.04 299.356 2369.84 298.87 Q2371.67 298.361 2373.48 297.366 L2373.48 301.301 Q2371.69 302.134 2369.77 302.551 Q2367.87 302.968 2365.72 302.968 Q2359.86 302.968 2356.42 299.287 Q2352.97 295.607 2352.97 289.357 Q2352.97 283.014 2356.44 279.38 Q2359.93 275.746 2366 275.746 Q2367.97 275.746 2369.84 276.162 Q2371.72 276.556 2373.48 277.366 Z" fill="#000000" fill-rule="nonzero" fill-opacity="1" /><path clip-path="url(#clip780)" d="M2380.88 276.371 L2385.14 276.371 L2385.14 302.296 L2380.88 302.296 L2380.88 276.371 M2380.88 266.278 L2385.14 266.278 L2385.14 271.671 L2380.88 271.671 L2380.88 266.278 Z" fill="#000000" fill-rule="nonzero" fill-opacity="1" /><path clip-path="url(#clip780)" d="M2415.6 286.648 L2415.6 302.296 L2411.35 302.296 L2411.35 286.787 Q2411.35 283.107 2409.91 281.278 Q2408.48 279.449 2405.6 279.449 Q2402.16 279.449 2400.17 281.648 Q2398.17 283.847 2398.17 287.644 L2398.17 302.296 L2393.89 302.296 L2393.89 276.371 L2398.17 276.371 L2398.17 280.398 Q2399.7 278.06 2401.76 276.903 Q2403.85 275.746 2406.55 275.746 Q2411.02 275.746 2413.31 278.523 Q2415.6 281.278 2415.6 286.648 Z" fill="#000000" fill-rule="nonzero" fill-opacity="1" /><path clip-path="url(#clip780)" d="M2435.88 289.264 Q2430.72 289.264 2428.73 290.444 Q2426.74 291.625 2426.74 294.472 Q2426.74 296.741 2428.22 298.083 Q2429.73 299.403 2432.29 299.403 Q2435.84 299.403 2437.97 296.903 Q2440.12 294.38 2440.12 290.213 L2440.12 289.264 L2435.88 289.264 M2444.38 287.505 L2444.38 302.296 L2440.12 302.296 L2440.12 298.361 Q2438.66 300.722 2436.48 301.856 Q2434.31 302.968 2431.16 302.968 Q2427.18 302.968 2424.82 300.745 Q2422.48 298.5 2422.48 294.75 Q2422.48 290.375 2425.4 288.153 Q2428.34 285.931 2434.15 285.931 L2440.12 285.931 L2440.12 285.514 Q2440.12 282.574 2438.17 280.977 Q2436.25 279.357 2432.76 279.357 Q2430.54 279.357 2428.43 279.889 Q2426.32 280.421 2424.38 281.486 L2424.38 277.551 Q2426.72 276.648 2428.92 276.208 Q2431.11 275.746 2433.2 275.746 Q2438.82 275.746 2441.6 278.662 Q2444.38 281.579 2444.38 287.505 Z" fill="#000000" fill-rule="nonzero" fill-opacity="1" /><path clip-path="url(#clip780)" d="M2457.36 269.009 L2457.36 276.371 L2466.14 276.371 L2466.14 279.681 L2457.36 279.681 L2457.36 293.755 Q2457.36 296.926 2458.22 297.829 Q2459.1 298.731 2461.76 298.731 L2466.14 298.731 L2466.14 302.296 L2461.76 302.296 Q2456.83 302.296 2454.96 300.468 Q2453.08 298.616 2453.08 293.755 L2453.08 279.681 L2449.96 279.681 L2449.96 276.371 L2453.08 276.371 L2453.08 269.009 L2457.36 269.009 Z" fill="#000000" fill-rule="nonzero" fill-opacity="1" /><path clip-path="url(#clip780)" d="M2471.74 276.371 L2476 276.371 L2476 302.296 L2471.74 302.296 L2471.74 276.371 M2471.74 266.278 L2476 266.278 L2476 271.671 L2471.74 271.671 L2471.74 266.278 Z" fill="#000000" fill-rule="nonzero" fill-opacity="1" /><path clip-path="url(#clip780)" d="M2494.96 279.357 Q2491.53 279.357 2489.54 282.042 Q2487.55 284.704 2487.55 289.357 Q2487.55 294.009 2489.52 296.694 Q2491.51 299.356 2494.96 299.356 Q2498.36 299.356 2500.35 296.671 Q2502.34 293.986 2502.34 289.357 Q2502.34 284.75 2500.35 282.065 Q2498.36 279.357 2494.96 279.357 M2494.96 275.746 Q2500.51 275.746 2503.68 279.357 Q2506.85 282.968 2506.85 289.357 Q2506.85 295.722 2503.68 299.356 Q2500.51 302.968 2494.96 302.968 Q2489.38 302.968 2486.21 299.356 Q2483.06 295.722 2483.06 289.357 Q2483.06 282.968 2486.21 279.357 Q2489.38 275.746 2494.96 275.746 Z" fill="#000000" fill-rule="nonzero" fill-opacity="1" /><path clip-path="url(#clip780)" d="M2535.47 286.648 L2535.47 302.296 L2531.21 302.296 L2531.21 286.787 Q2531.21 283.107 2529.77 281.278 Q2528.34 279.449 2525.47 279.449 Q2522.02 279.449 2520.03 281.648 Q2518.03 283.847 2518.03 287.644 L2518.03 302.296 L2513.75 302.296 L2513.75 276.371 L2518.03 276.371 L2518.03 280.398 Q2519.56 278.06 2521.62 276.903 Q2523.71 275.746 2526.41 275.746 Q2530.88 275.746 2533.17 278.523 Q2535.47 281.278 2535.47 286.648 Z" fill="#000000" fill-rule="nonzero" fill-opacity="1" /></svg>
