<?xml version="1.0" encoding="utf-8"?>
<svg xmlns="http://www.w3.org/2000/svg" xmlns:xlink="http://www.w3.org/1999/xlink" width="672" height="480" viewBox="0 0 2688 1920">
<defs>
  <clipPath id="clip630">
    <rect x="0" y="0" width="2688" height="1920"/>
  </clipPath>
</defs>
<path clip-path="url(#clip630)" d="M0 1920 L2688 1920 L2688 -4.26326e-14 L0 -4.26326e-14  Z" fill="#ffffff" fill-rule="evenodd" fill-opacity="1"/>
<defs>
  <clipPath id="clip631">
    <rect x="268" y="127" width="2373" height="1607"/>
  </clipPath>
</defs>
<path clip-path="url(#clip630)" d="M268.826 1734.12 L2640.76 1734.12 L2640.76 127.792 L268.826 127.792  Z" fill="#ffffff" fill-rule="evenodd" fill-opacity="1"/>
<polyline clip-path="url(#clip631)" style="stroke:#000000; stroke-linecap:round; stroke-linejoin:round; stroke-width:2; stroke-opacity:0.1; fill:none" points="335.956,1734.12 335.956,127.792 "/>
<polyline clip-path="url(#clip631)" style="stroke:#000000; stroke-linecap:round; stroke-linejoin:round; stroke-width:2; stroke-opacity:0.1; fill:none" points="949.016,1734.12 949.016,127.792 "/>
<polyline clip-path="url(#clip631)" style="stroke:#000000; stroke-linecap:round; stroke-linejoin:round; stroke-width:2; stroke-opacity:0.1; fill:none" points="1562.08,1734.12 1562.08,127.792 "/>
<polyline clip-path="url(#clip631)" style="stroke:#000000; stroke-linecap:round; stroke-linejoin:round; stroke-width:2; stroke-opacity:0.1; fill:none" points="2175.14,1734.12 2175.14,127.792 "/>
<polyline clip-path="url(#clip631)" style="stroke:#000000; stroke-linecap:round; stroke-linejoin:round; stroke-width:2; stroke-opacity:0.1; fill:none" points="268.826,1688.65 2640.76,1688.65 "/>
<polyline clip-path="url(#clip631)" style="stroke:#000000; stroke-linecap:round; stroke-linejoin:round; stroke-width:2; stroke-opacity:0.1; fill:none" points="268.826,1349.51 2640.76,1349.51 "/>
<polyline clip-path="url(#clip631)" style="stroke:#000000; stroke-linecap:round; stroke-linejoin:round; stroke-width:2; stroke-opacity:0.1; fill:none" points="268.826,1010.37 2640.76,1010.37 "/>
<polyline clip-path="url(#clip631)" style="stroke:#000000; stroke-linecap:round; stroke-linejoin:round; stroke-width:2; stroke-opacity:0.1; fill:none" points="268.826,671.234 2640.76,671.234 "/>
<polyline clip-path="url(#clip631)" style="stroke:#000000; stroke-linecap:round; stroke-linejoin:round; stroke-width:2; stroke-opacity:0.1; fill:none" points="268.826,332.094 2640.76,332.094 "/>
<polyline clip-path="url(#clip630)" style="stroke:#000000; stroke-linecap:round; stroke-linejoin:round; stroke-width:4; stroke-opacity:1; fill:none" points="268.826,1734.12 2640.76,1734.12 "/>
<polyline clip-path="url(#clip630)" style="stroke:#000000; stroke-linecap:round; stroke-linejoin:round; stroke-width:4; stroke-opacity:1; fill:none" points="335.956,1734.12 335.956,1715.22 "/>
<polyline clip-path="url(#clip630)" style="stroke:#000000; stroke-linecap:round; stroke-linejoin:round; stroke-width:4; stroke-opacity:1; fill:none" points="949.016,1734.12 949.016,1715.22 "/>
<polyline clip-path="url(#clip630)" style="stroke:#000000; stroke-linecap:round; stroke-linejoin:round; stroke-width:4; stroke-opacity:1; fill:none" points="1562.08,1734.12 1562.08,1715.22 "/>
<polyline clip-path="url(#clip630)" style="stroke:#000000; stroke-linecap:round; stroke-linejoin:round; stroke-width:4; stroke-opacity:1; fill:none" points="2175.14,1734.12 2175.14,1715.22 "/>
<path clip-path="url(#clip630)" d="M335.956 1767.34 Q332.345 1767.34 330.516 1770.9 Q328.71 1774.45 328.71 1781.58 Q328.71 1788.68 330.516 1792.25 Q332.345 1795.79 335.956 1795.79 Q339.59 1795.79 341.395 1792.25 Q343.224 1788.68 343.224 1781.58 Q343.224 1774.45 341.395 1770.9 Q339.59 1767.34 335.956 1767.34 M335.956 1763.64 Q341.766 1763.64 344.821 1768.24 Q347.9 1772.83 347.9 1781.58 Q347.9 1790.3 344.821 1794.91 Q341.766 1799.49 335.956 1799.49 Q330.145 1799.49 327.067 1794.91 Q324.011 1790.3 324.011 1781.58 Q324.011 1772.83 327.067 1768.24 Q330.145 1763.64 335.956 1763.64 Z" fill="#000000" fill-rule="nonzero" fill-opacity="1" /><path clip-path="url(#clip630)" d="M908.623 1794.89 L916.261 1794.89 L916.261 1768.52 L907.951 1770.19 L907.951 1765.93 L916.215 1764.26 L920.891 1764.26 L920.891 1794.89 L928.53 1794.89 L928.53 1798.82 L908.623 1798.82 L908.623 1794.89 Z" fill="#000000" fill-rule="nonzero" fill-opacity="1" /><path clip-path="url(#clip630)" d="M947.974 1767.34 Q944.363 1767.34 942.534 1770.9 Q940.729 1774.45 940.729 1781.58 Q940.729 1788.68 942.534 1792.25 Q944.363 1795.79 947.974 1795.79 Q951.609 1795.79 953.414 1792.25 Q955.243 1788.68 955.243 1781.58 Q955.243 1774.45 953.414 1770.9 Q951.609 1767.34 947.974 1767.34 M947.974 1763.64 Q953.784 1763.64 956.84 1768.24 Q959.919 1772.83 959.919 1781.58 Q959.919 1790.3 956.84 1794.91 Q953.784 1799.49 947.974 1799.49 Q942.164 1799.49 939.085 1794.91 Q936.03 1790.3 936.03 1781.58 Q936.03 1772.83 939.085 1768.24 Q942.164 1763.64 947.974 1763.64 Z" fill="#000000" fill-rule="nonzero" fill-opacity="1" /><path clip-path="url(#clip630)" d="M978.136 1767.34 Q974.525 1767.34 972.696 1770.9 Q970.891 1774.45 970.891 1781.58 Q970.891 1788.68 972.696 1792.25 Q974.525 1795.79 978.136 1795.79 Q981.77 1795.79 983.576 1792.25 Q985.405 1788.68 985.405 1781.58 Q985.405 1774.45 983.576 1770.9 Q981.77 1767.34 978.136 1767.34 M978.136 1763.64 Q983.946 1763.64 987.002 1768.24 Q990.081 1772.83 990.081 1781.58 Q990.081 1790.3 987.002 1794.91 Q983.946 1799.49 978.136 1799.49 Q972.326 1799.49 969.247 1794.91 Q966.192 1790.3 966.192 1781.58 Q966.192 1772.83 969.247 1768.24 Q972.326 1763.64 978.136 1763.64 Z" fill="#000000" fill-rule="nonzero" fill-opacity="1" /><path clip-path="url(#clip630)" d="M1525.77 1794.89 L1542.09 1794.89 L1542.09 1798.82 L1520.14 1798.82 L1520.14 1794.89 Q1522.81 1792.13 1527.39 1787.5 Q1532 1782.85 1533.18 1781.51 Q1535.42 1778.98 1536.3 1777.25 Q1537.2 1775.49 1537.2 1773.8 Q1537.2 1771.04 1535.26 1769.31 Q1533.34 1767.57 1530.24 1767.57 Q1528.04 1767.57 1525.58 1768.34 Q1523.15 1769.1 1520.38 1770.65 L1520.38 1765.93 Q1523.2 1764.79 1525.65 1764.21 Q1528.11 1763.64 1530.14 1763.64 Q1535.51 1763.64 1538.71 1766.32 Q1541.9 1769.01 1541.9 1773.5 Q1541.9 1775.63 1541.09 1777.55 Q1540.31 1779.45 1538.2 1782.04 Q1537.62 1782.71 1534.52 1785.93 Q1531.42 1789.12 1525.77 1794.89 Z" fill="#000000" fill-rule="nonzero" fill-opacity="1" /><path clip-path="url(#clip630)" d="M1561.9 1767.34 Q1558.29 1767.34 1556.46 1770.9 Q1554.66 1774.45 1554.66 1781.58 Q1554.66 1788.68 1556.46 1792.25 Q1558.29 1795.79 1561.9 1795.79 Q1565.54 1795.79 1567.34 1792.25 Q1569.17 1788.68 1569.17 1781.58 Q1569.17 1774.45 1567.34 1770.9 Q1565.54 1767.34 1561.9 1767.34 M1561.9 1763.64 Q1567.71 1763.64 1570.77 1768.24 Q1573.85 1772.83 1573.85 1781.58 Q1573.85 1790.3 1570.77 1794.91 Q1567.71 1799.49 1561.9 1799.49 Q1556.09 1799.49 1553.01 1794.91 Q1549.96 1790.3 1549.96 1781.58 Q1549.96 1772.83 1553.01 1768.24 Q1556.09 1763.64 1561.9 1763.64 Z" fill="#000000" fill-rule="nonzero" fill-opacity="1" /><path clip-path="url(#clip630)" d="M1592.06 1767.34 Q1588.45 1767.34 1586.62 1770.9 Q1584.82 1774.45 1584.82 1781.58 Q1584.82 1788.68 1586.62 1792.25 Q1588.45 1795.79 1592.06 1795.79 Q1595.7 1795.79 1597.5 1792.25 Q1599.33 1788.68 1599.33 1781.58 Q1599.33 1774.45 1597.5 1770.9 Q1595.7 1767.34 1592.06 1767.34 M1592.06 1763.64 Q1597.87 1763.64 1600.93 1768.24 Q1604.01 1772.83 1604.01 1781.58 Q1604.01 1790.3 1600.93 1794.91 Q1597.87 1799.49 1592.06 1799.49 Q1586.25 1799.49 1583.18 1794.91 Q1580.12 1790.3 1580.12 1781.58 Q1580.12 1772.83 1583.18 1768.24 Q1586.25 1763.64 1592.06 1763.64 Z" fill="#000000" fill-rule="nonzero" fill-opacity="1" /><path clip-path="url(#clip630)" d="M2148.9 1780.19 Q2152.25 1780.9 2154.13 1783.17 Q2156.03 1785.44 2156.03 1788.77 Q2156.03 1793.89 2152.51 1796.69 Q2148.99 1799.49 2142.51 1799.49 Q2140.33 1799.49 2138.02 1799.05 Q2135.73 1798.64 2133.27 1797.78 L2133.27 1793.27 Q2135.22 1794.4 2137.53 1794.98 Q2139.85 1795.56 2142.37 1795.56 Q2146.77 1795.56 2149.06 1793.82 Q2151.38 1792.08 2151.38 1788.77 Q2151.38 1785.72 2149.22 1784.01 Q2147.09 1782.27 2143.27 1782.27 L2139.25 1782.27 L2139.25 1778.43 L2143.46 1778.43 Q2146.91 1778.43 2148.74 1777.06 Q2150.56 1775.67 2150.56 1773.08 Q2150.56 1770.42 2148.67 1769.01 Q2146.79 1767.57 2143.27 1767.57 Q2141.35 1767.57 2139.15 1767.99 Q2136.95 1768.4 2134.32 1769.28 L2134.32 1765.12 Q2136.98 1764.38 2139.29 1764.01 Q2141.63 1763.64 2143.69 1763.64 Q2149.01 1763.64 2152.12 1766.07 Q2155.22 1768.47 2155.22 1772.59 Q2155.22 1775.46 2153.57 1777.46 Q2151.93 1779.42 2148.9 1780.19 Z" fill="#000000" fill-rule="nonzero" fill-opacity="1" /><path clip-path="url(#clip630)" d="M2174.89 1767.34 Q2171.28 1767.34 2169.45 1770.9 Q2167.65 1774.45 2167.65 1781.58 Q2167.65 1788.68 2169.45 1792.25 Q2171.28 1795.79 2174.89 1795.79 Q2178.53 1795.79 2180.33 1792.25 Q2182.16 1788.68 2182.16 1781.58 Q2182.16 1774.45 2180.33 1770.9 Q2178.53 1767.34 2174.89 1767.34 M2174.89 1763.64 Q2180.7 1763.64 2183.76 1768.24 Q2186.84 1772.83 2186.84 1781.58 Q2186.84 1790.3 2183.76 1794.91 Q2180.7 1799.49 2174.89 1799.49 Q2169.08 1799.49 2166 1794.91 Q2162.95 1790.3 2162.95 1781.58 Q2162.95 1772.83 2166 1768.24 Q2169.08 1763.64 2174.89 1763.64 Z" fill="#000000" fill-rule="nonzero" fill-opacity="1" /><path clip-path="url(#clip630)" d="M2205.06 1767.34 Q2201.44 1767.34 2199.62 1770.9 Q2197.81 1774.45 2197.81 1781.58 Q2197.81 1788.68 2199.62 1792.25 Q2201.44 1795.79 2205.06 1795.79 Q2208.69 1795.79 2210.5 1792.25 Q2212.32 1788.68 2212.32 1781.58 Q2212.32 1774.45 2210.5 1770.9 Q2208.69 1767.34 2205.06 1767.34 M2205.06 1763.64 Q2210.87 1763.64 2213.92 1768.24 Q2217 1772.83 2217 1781.58 Q2217 1790.3 2213.92 1794.91 Q2210.87 1799.49 2205.06 1799.49 Q2199.25 1799.49 2196.17 1794.91 Q2193.11 1790.3 2193.11 1781.58 Q2193.11 1772.83 2196.17 1768.24 Q2199.25 1763.64 2205.06 1763.64 Z" fill="#000000" fill-rule="nonzero" fill-opacity="1" /><path clip-path="url(#clip630)" d="M1401.03 1841.06 L1401.03 1878.02 L1408.8 1878.02 Q1418.63 1878.02 1423.18 1873.56 Q1427.77 1869.11 1427.77 1859.49 Q1427.77 1849.94 1423.18 1845.52 Q1418.63 1841.06 1408.8 1841.06 L1401.03 1841.06 M1394.6 1835.78 L1407.81 1835.78 Q1421.63 1835.78 1428.09 1841.54 Q1434.55 1847.27 1434.55 1859.49 Q1434.55 1871.78 1428.05 1877.54 Q1421.56 1883.3 1407.81 1883.3 L1394.6 1883.3 L1394.6 1835.78 Z" fill="#000000" fill-rule="nonzero" fill-opacity="1" /><path clip-path="url(#clip630)" d="M1460.74 1865.38 Q1453.64 1865.38 1450.91 1867 Q1448.17 1868.63 1448.17 1872.54 Q1448.17 1875.66 1450.21 1877.51 Q1452.28 1879.32 1455.81 1879.32 Q1460.68 1879.32 1463.61 1875.88 Q1466.57 1872.42 1466.57 1866.69 L1466.57 1865.38 L1460.74 1865.38 M1472.42 1862.96 L1472.42 1883.3 L1466.57 1883.3 L1466.57 1877.89 Q1464.56 1881.14 1461.57 1882.7 Q1458.58 1884.22 1454.25 1884.22 Q1448.78 1884.22 1445.53 1881.17 Q1442.31 1878.08 1442.31 1872.92 Q1442.31 1866.91 1446.32 1863.85 Q1450.37 1860.8 1458.36 1860.8 L1466.57 1860.8 L1466.57 1860.23 Q1466.57 1856.18 1463.89 1853.99 Q1461.25 1851.76 1456.45 1851.76 Q1453.39 1851.76 1450.49 1852.49 Q1447.6 1853.22 1444.92 1854.69 L1444.92 1849.28 Q1448.14 1848.03 1451.16 1847.43 Q1454.19 1846.79 1457.05 1846.79 Q1464.78 1846.79 1468.6 1850.8 Q1472.42 1854.81 1472.42 1862.96 Z" fill="#000000" fill-rule="nonzero" fill-opacity="1" /><path clip-path="url(#clip630)" d="M1499.32 1886.61 Q1496.84 1892.98 1494.48 1894.92 Q1492.13 1896.86 1488.18 1896.86 L1483.5 1896.86 L1483.5 1891.96 L1486.94 1891.96 Q1489.36 1891.96 1490.69 1890.81 Q1492.03 1889.67 1493.65 1885.4 L1494.7 1882.73 L1480.29 1847.65 L1486.49 1847.65 L1497.63 1875.53 L1508.77 1847.65 L1514.98 1847.65 L1499.32 1886.61 Z" fill="#000000" fill-rule="nonzero" fill-opacity="1" /><polyline clip-path="url(#clip630)" style="stroke:#000000; stroke-linecap:round; stroke-linejoin:round; stroke-width:4; stroke-opacity:1; fill:none" points="268.826,1734.12 268.826,127.792 "/>
<polyline clip-path="url(#clip630)" style="stroke:#000000; stroke-linecap:round; stroke-linejoin:round; stroke-width:4; stroke-opacity:1; fill:none" points="268.826,1688.65 287.723,1688.65 "/>
<polyline clip-path="url(#clip630)" style="stroke:#000000; stroke-linecap:round; stroke-linejoin:round; stroke-width:4; stroke-opacity:1; fill:none" points="268.826,1349.51 287.723,1349.51 "/>
<polyline clip-path="url(#clip630)" style="stroke:#000000; stroke-linecap:round; stroke-linejoin:round; stroke-width:4; stroke-opacity:1; fill:none" points="268.826,1010.37 287.723,1010.37 "/>
<polyline clip-path="url(#clip630)" style="stroke:#000000; stroke-linecap:round; stroke-linejoin:round; stroke-width:4; stroke-opacity:1; fill:none" points="268.826,671.234 287.723,671.234 "/>
<polyline clip-path="url(#clip630)" style="stroke:#000000; stroke-linecap:round; stroke-linejoin:round; stroke-width:4; stroke-opacity:1; fill:none" points="268.826,332.094 287.723,332.094 "/>
<path clip-path="url(#clip630)" d="M216.561 1674.45 Q212.95 1674.45 211.121 1678.02 Q209.316 1681.56 209.316 1688.69 Q209.316 1695.8 211.121 1699.36 Q212.95 1702.9 216.561 1702.9 Q220.195 1702.9 222.001 1699.36 Q223.83 1695.8 223.83 1688.69 Q223.83 1681.56 222.001 1678.02 Q220.195 1674.45 216.561 1674.45 M216.561 1670.75 Q222.371 1670.75 225.427 1675.36 Q228.506 1679.94 228.506 1688.69 Q228.506 1697.42 225.427 1702.02 Q222.371 1706.61 216.561 1706.61 Q210.751 1706.61 207.672 1702.02 Q204.617 1697.42 204.617 1688.69 Q204.617 1679.94 207.672 1675.36 Q210.751 1670.75 216.561 1670.75 Z" fill="#000000" fill-rule="nonzero" fill-opacity="1" /><path clip-path="url(#clip630)" d="M150.265 1362.86 L166.585 1362.86 L166.585 1366.79 L144.64 1366.79 L144.64 1362.86 Q147.302 1360.1 151.886 1355.48 Q156.492 1350.82 157.673 1349.48 Q159.918 1346.96 160.798 1345.22 Q161.7 1343.46 161.7 1341.77 Q161.7 1339.02 159.756 1337.28 Q157.835 1335.54 154.733 1335.54 Q152.534 1335.54 150.08 1336.31 Q147.649 1337.07 144.872 1338.62 L144.872 1333.9 Q147.696 1332.77 150.149 1332.19 Q152.603 1331.61 154.64 1331.61 Q160.011 1331.61 163.205 1334.29 Q166.399 1336.98 166.399 1341.47 Q166.399 1343.6 165.589 1345.52 Q164.802 1347.42 162.696 1350.01 Q162.117 1350.68 159.015 1353.9 Q155.913 1357.1 150.265 1362.86 Z" fill="#000000" fill-rule="nonzero" fill-opacity="1" /><path clip-path="url(#clip630)" d="M176.446 1332.23 L194.802 1332.23 L194.802 1336.17 L180.728 1336.17 L180.728 1344.64 Q181.746 1344.29 182.765 1344.13 Q183.784 1343.95 184.802 1343.95 Q190.589 1343.95 193.969 1347.12 Q197.348 1350.29 197.348 1355.71 Q197.348 1361.29 193.876 1364.39 Q190.404 1367.47 184.084 1367.47 Q181.909 1367.47 179.64 1367.1 Q177.395 1366.73 174.987 1365.98 L174.987 1361.29 Q177.071 1362.42 179.293 1362.98 Q181.515 1363.53 183.992 1363.53 Q187.996 1363.53 190.334 1361.42 Q192.672 1359.32 192.672 1355.71 Q192.672 1352.1 190.334 1349.99 Q187.996 1347.88 183.992 1347.88 Q182.117 1347.88 180.242 1348.3 Q178.39 1348.72 176.446 1349.6 L176.446 1332.23 Z" fill="#000000" fill-rule="nonzero" fill-opacity="1" /><path clip-path="url(#clip630)" d="M216.561 1335.31 Q212.95 1335.31 211.121 1338.88 Q209.316 1342.42 209.316 1349.55 Q209.316 1356.66 211.121 1360.22 Q212.95 1363.76 216.561 1363.76 Q220.195 1363.76 222.001 1360.22 Q223.83 1356.66 223.83 1349.55 Q223.83 1342.42 222.001 1338.88 Q220.195 1335.31 216.561 1335.31 M216.561 1331.61 Q222.371 1331.61 225.427 1336.22 Q228.506 1340.8 228.506 1349.55 Q228.506 1358.28 225.427 1362.88 Q222.371 1367.47 216.561 1367.47 Q210.751 1367.47 207.672 1362.88 Q204.617 1358.28 204.617 1349.55 Q204.617 1340.8 207.672 1336.22 Q210.751 1331.61 216.561 1331.61 Z" fill="#000000" fill-rule="nonzero" fill-opacity="1" /><path clip-path="url(#clip630)" d="M146.284 993.094 L164.64 993.094 L164.64 997.03 L150.566 997.03 L150.566 1005.5 Q151.585 1005.15 152.603 1004.99 Q153.622 1004.81 154.64 1004.81 Q160.427 1004.81 163.807 1007.98 Q167.186 1011.15 167.186 1016.57 Q167.186 1022.15 163.714 1025.25 Q160.242 1028.33 153.923 1028.33 Q151.747 1028.33 149.478 1027.96 Q147.233 1027.58 144.825 1026.84 L144.825 1022.15 Q146.909 1023.28 149.131 1023.83 Q151.353 1024.39 153.83 1024.39 Q157.835 1024.39 160.173 1022.28 Q162.51 1020.18 162.51 1016.57 Q162.51 1012.96 160.173 1010.85 Q157.835 1008.74 153.83 1008.74 Q151.955 1008.74 150.08 1009.16 Q148.228 1009.58 146.284 1010.46 L146.284 993.094 Z" fill="#000000" fill-rule="nonzero" fill-opacity="1" /><path clip-path="url(#clip630)" d="M186.399 996.173 Q182.788 996.173 180.959 999.738 Q179.154 1003.28 179.154 1010.41 Q179.154 1017.52 180.959 1021.08 Q182.788 1024.62 186.399 1024.62 Q190.033 1024.62 191.839 1021.08 Q193.668 1017.52 193.668 1010.41 Q193.668 1003.28 191.839 999.738 Q190.033 996.173 186.399 996.173 M186.399 992.469 Q192.209 992.469 195.265 997.076 Q198.344 1001.66 198.344 1010.41 Q198.344 1019.14 195.265 1023.74 Q192.209 1028.33 186.399 1028.33 Q180.589 1028.33 177.51 1023.74 Q174.455 1019.14 174.455 1010.41 Q174.455 1001.66 177.51 997.076 Q180.589 992.469 186.399 992.469 Z" fill="#000000" fill-rule="nonzero" fill-opacity="1" /><path clip-path="url(#clip630)" d="M216.561 996.173 Q212.95 996.173 211.121 999.738 Q209.316 1003.28 209.316 1010.41 Q209.316 1017.52 211.121 1021.08 Q212.95 1024.62 216.561 1024.62 Q220.195 1024.62 222.001 1021.08 Q223.83 1017.52 223.83 1010.41 Q223.83 1003.28 222.001 999.738 Q220.195 996.173 216.561 996.173 M216.561 992.469 Q222.371 992.469 225.427 997.076 Q228.506 1001.66 228.506 1010.41 Q228.506 1019.14 225.427 1023.74 Q222.371 1028.33 216.561 1028.33 Q210.751 1028.33 207.672 1023.74 Q204.617 1019.14 204.617 1010.41 Q204.617 1001.66 207.672 997.076 Q210.751 992.469 216.561 992.469 Z" fill="#000000" fill-rule="nonzero" fill-opacity="1" /><path clip-path="url(#clip630)" d="M145.057 653.954 L167.279 653.954 L167.279 655.945 L154.733 688.514 L149.849 688.514 L161.654 657.889 L145.057 657.889 L145.057 653.954 Z" fill="#000000" fill-rule="nonzero" fill-opacity="1" /><path clip-path="url(#clip630)" d="M176.446 653.954 L194.802 653.954 L194.802 657.889 L180.728 657.889 L180.728 666.361 Q181.746 666.014 182.765 665.852 Q183.784 665.667 184.802 665.667 Q190.589 665.667 193.969 668.838 Q197.348 672.01 197.348 677.426 Q197.348 683.005 193.876 686.107 Q190.404 689.185 184.084 689.185 Q181.909 689.185 179.64 688.815 Q177.395 688.445 174.987 687.704 L174.987 683.005 Q177.071 684.139 179.293 684.695 Q181.515 685.25 183.992 685.25 Q187.996 685.25 190.334 683.144 Q192.672 681.037 192.672 677.426 Q192.672 673.815 190.334 671.709 Q187.996 669.602 183.992 669.602 Q182.117 669.602 180.242 670.019 Q178.39 670.436 176.446 671.315 L176.446 653.954 Z" fill="#000000" fill-rule="nonzero" fill-opacity="1" /><path clip-path="url(#clip630)" d="M216.561 657.033 Q212.95 657.033 211.121 660.598 Q209.316 664.139 209.316 671.269 Q209.316 678.375 211.121 681.94 Q212.95 685.482 216.561 685.482 Q220.195 685.482 222.001 681.94 Q223.83 678.375 223.83 671.269 Q223.83 664.139 222.001 660.598 Q220.195 657.033 216.561 657.033 M216.561 653.329 Q222.371 653.329 225.427 657.936 Q228.506 662.519 228.506 671.269 Q228.506 679.996 225.427 684.602 Q222.371 689.185 216.561 689.185 Q210.751 689.185 207.672 684.602 Q204.617 679.996 204.617 671.269 Q204.617 662.519 207.672 657.936 Q210.751 653.329 216.561 653.329 Z" fill="#000000" fill-rule="nonzero" fill-opacity="1" /><path clip-path="url(#clip630)" d="M116.886 345.439 L124.525 345.439 L124.525 319.073 L116.214 320.74 L116.214 316.481 L124.478 314.814 L129.154 314.814 L129.154 345.439 L136.793 345.439 L136.793 349.374 L116.886 349.374 L116.886 345.439 Z" fill="#000000" fill-rule="nonzero" fill-opacity="1" /><path clip-path="url(#clip630)" d="M156.237 317.893 Q152.626 317.893 150.798 321.457 Q148.992 324.999 148.992 332.129 Q148.992 339.235 150.798 342.8 Q152.626 346.341 156.237 346.341 Q159.872 346.341 161.677 342.8 Q163.506 339.235 163.506 332.129 Q163.506 324.999 161.677 321.457 Q159.872 317.893 156.237 317.893 M156.237 314.189 Q162.048 314.189 165.103 318.795 Q168.182 323.379 168.182 332.129 Q168.182 340.855 165.103 345.462 Q162.048 350.045 156.237 350.045 Q150.427 350.045 147.349 345.462 Q144.293 340.855 144.293 332.129 Q144.293 323.379 147.349 318.795 Q150.427 314.189 156.237 314.189 Z" fill="#000000" fill-rule="nonzero" fill-opacity="1" /><path clip-path="url(#clip630)" d="M186.399 317.893 Q182.788 317.893 180.959 321.457 Q179.154 324.999 179.154 332.129 Q179.154 339.235 180.959 342.8 Q182.788 346.341 186.399 346.341 Q190.033 346.341 191.839 342.8 Q193.668 339.235 193.668 332.129 Q193.668 324.999 191.839 321.457 Q190.033 317.893 186.399 317.893 M186.399 314.189 Q192.209 314.189 195.265 318.795 Q198.344 323.379 198.344 332.129 Q198.344 340.855 195.265 345.462 Q192.209 350.045 186.399 350.045 Q180.589 350.045 177.51 345.462 Q174.455 340.855 174.455 332.129 Q174.455 323.379 177.51 318.795 Q180.589 314.189 186.399 314.189 Z" fill="#000000" fill-rule="nonzero" fill-opacity="1" /><path clip-path="url(#clip630)" d="M216.561 317.893 Q212.95 317.893 211.121 321.457 Q209.316 324.999 209.316 332.129 Q209.316 339.235 211.121 342.8 Q212.95 346.341 216.561 346.341 Q220.195 346.341 222.001 342.8 Q223.83 339.235 223.83 332.129 Q223.83 324.999 222.001 321.457 Q220.195 317.893 216.561 317.893 M216.561 314.189 Q222.371 314.189 225.427 318.795 Q228.506 323.379 228.506 332.129 Q228.506 340.855 225.427 345.462 Q222.371 350.045 216.561 350.045 Q210.751 350.045 207.672 345.462 Q204.617 340.855 204.617 332.129 Q204.617 323.379 207.672 318.795 Q210.751 314.189 216.561 314.189 Z" fill="#000000" fill-rule="nonzero" fill-opacity="1" /><path clip-path="url(#clip630)" d="M14.1184 1157.19 L14.1184 1147.61 L46.4562 1135.48 L14.1184 1123.29 L14.1184 1113.71 L61.6384 1113.71 L61.6384 1119.98 L19.9112 1119.98 L52.5037 1132.24 L52.5037 1138.7 L19.9112 1150.95 L61.6384 1150.95 L61.6384 1157.19 L14.1184 1157.19 Z" fill="#000000" fill-rule="nonzero" fill-opacity="1" /><path clip-path="url(#clip630)" d="M42.3504 1070.71 L45.2149 1070.71 L45.2149 1097.64 Q51.2623 1097.26 54.4452 1094.01 Q57.5962 1090.73 57.5962 1084.91 Q57.5962 1081.54 56.7687 1078.38 Q55.9411 1075.2 54.2861 1072.08 L59.8242 1072.08 Q61.161 1075.23 61.8612 1078.54 Q62.5615 1081.85 62.5615 1085.26 Q62.5615 1093.79 57.5962 1098.79 Q52.631 1103.75 44.1646 1103.75 Q35.4117 1103.75 30.2873 1099.04 Q25.1311 1094.3 25.1311 1086.28 Q25.1311 1079.08 29.7781 1074.92 Q34.3932 1070.71 42.3504 1070.71 M40.6316 1076.57 Q35.8255 1076.63 32.9609 1079.28 Q30.0964 1081.89 30.0964 1086.21 Q30.0964 1091.12 32.8654 1094.08 Q35.6345 1097 40.6634 1097.45 L40.6316 1076.57 Z" fill="#000000" fill-rule="nonzero" fill-opacity="1" /><path clip-path="url(#clip630)" d="M43.719 1044.9 Q43.719 1052 45.3422 1054.74 Q46.9655 1057.47 50.8804 1057.47 Q53.9996 1057.47 55.8457 1055.44 Q57.6599 1053.37 57.6599 1049.83 Q57.6599 1044.96 54.2224 1042.04 Q50.7531 1039.08 45.0239 1039.08 L43.719 1039.08 L43.719 1044.9 M41.3 1033.22 L61.6384 1033.22 L61.6384 1039.08 L56.2276 1039.08 Q59.4741 1041.08 61.0337 1044.07 Q62.5615 1047.07 62.5615 1051.39 Q62.5615 1056.87 59.5059 1060.11 Q56.4186 1063.33 51.2623 1063.33 Q45.2467 1063.33 42.1912 1059.32 Q39.1357 1055.28 39.1357 1047.29 L39.1357 1039.08 L38.5628 1039.08 Q34.5205 1039.08 32.3244 1041.75 Q30.0964 1044.39 30.0964 1049.2 Q30.0964 1052.25 30.8284 1055.15 Q31.5605 1058.05 33.0246 1060.72 L27.6137 1060.72 Q26.3724 1057.5 25.7677 1054.48 Q25.1311 1051.46 25.1311 1048.59 Q25.1311 1040.86 29.1415 1037.04 Q33.1519 1033.22 41.3 1033.22 Z" fill="#000000" fill-rule="nonzero" fill-opacity="1" /><path clip-path="url(#clip630)" d="M40.1224 991.524 L61.6384 991.524 L61.6384 997.381 L40.3133 997.381 Q35.2526 997.381 32.7381 999.354 Q30.2237 1001.33 30.2237 1005.27 Q30.2237 1010.02 33.2474 1012.75 Q36.2711 1015.49 41.491 1015.49 L61.6384 1015.49 L61.6384 1021.38 L25.9905 1021.38 L25.9905 1015.49 L31.5287 1015.49 Q28.314 1013.39 26.7225 1010.56 Q25.1311 1007.69 25.1311 1003.97 Q25.1311 997.826 28.9505 994.675 Q32.7381 991.524 40.1224 991.524 Z" fill="#000000" fill-rule="nonzero" fill-opacity="1" /><path clip-path="url(#clip630)" d="M14.1184 958.868 L14.1184 952.439 L61.6384 952.439 L61.6384 958.868 L14.1184 958.868 Z" fill="#000000" fill-rule="nonzero" fill-opacity="1" /><path clip-path="url(#clip630)" d="M40.1224 910.266 L61.6384 910.266 L61.6384 916.122 L40.3133 916.122 Q35.2526 916.122 32.7381 918.096 Q30.2237 920.069 30.2237 924.016 Q30.2237 928.758 33.2474 931.496 Q36.2711 934.233 41.491 934.233 L61.6384 934.233 L61.6384 940.121 L25.9905 940.121 L25.9905 934.233 L31.5287 934.233 Q28.314 932.132 26.7225 929.299 Q25.1311 926.435 25.1311 922.711 Q25.1311 916.568 28.9505 913.417 Q32.7381 910.266 40.1224 910.266 Z" fill="#000000" fill-rule="nonzero" fill-opacity="1" /><path clip-path="url(#clip630)" d="M12.1132 880.538 L16.983 880.538 L16.983 886.14 Q16.983 889.291 18.2562 890.532 Q19.5293 891.742 22.8395 891.742 L25.9905 891.742 L25.9905 882.098 L30.542 882.098 L30.542 891.742 L61.6384 891.742 L61.6384 897.63 L30.542 897.63 L30.542 903.232 L25.9905 903.232 L25.9905 897.63 L23.5079 897.63 Q17.5559 897.63 14.8505 894.861 Q12.1132 892.092 12.1132 886.076 L12.1132 880.538 Z" fill="#000000" fill-rule="nonzero" fill-opacity="1" /><path clip-path="url(#clip630)" d="M42.3504 845.145 L45.2149 845.145 L45.2149 872.072 Q51.2623 871.69 54.4452 868.443 Q57.5962 865.165 57.5962 859.34 Q57.5962 855.967 56.7687 852.816 Q55.9411 849.633 54.2861 846.513 L59.8242 846.513 Q61.161 849.664 61.8612 852.975 Q62.5615 856.285 62.5615 859.69 Q62.5615 868.221 57.5962 873.218 Q52.631 878.183 44.1646 878.183 Q35.4117 878.183 30.2873 873.472 Q25.1311 868.73 25.1311 860.709 Q25.1311 853.516 29.7781 849.346 Q34.3932 845.145 42.3504 845.145 M40.6316 851.001 Q35.8255 851.065 32.9609 853.707 Q30.0964 856.317 30.0964 860.645 Q30.0964 865.547 32.8654 868.507 Q35.6345 871.435 40.6634 871.881 L40.6316 851.001 Z" fill="#000000" fill-rule="nonzero" fill-opacity="1" /><path clip-path="url(#clip630)" d="M27.3591 809.879 L32.8336 809.879 Q31.465 812.361 30.7966 814.876 Q30.0964 817.359 30.0964 819.905 Q30.0964 825.602 33.7248 828.753 Q37.3214 831.904 43.8463 831.904 Q50.3711 831.904 53.9996 828.753 Q57.5962 825.602 57.5962 819.905 Q57.5962 817.359 56.9278 814.876 Q56.2276 812.361 54.859 809.879 L60.2698 809.879 Q61.4156 812.33 61.9886 814.971 Q62.5615 817.581 62.5615 820.541 Q62.5615 828.594 57.5007 833.336 Q52.44 838.079 43.8463 838.079 Q35.1253 838.079 30.1282 833.305 Q25.1311 828.499 25.1311 820.159 Q25.1311 817.454 25.704 814.876 Q26.2451 812.298 27.3591 809.879 Z" fill="#000000" fill-rule="nonzero" fill-opacity="1" /><path clip-path="url(#clip630)" d="M15.869 793.901 L25.9905 793.901 L25.9905 781.838 L30.542 781.838 L30.542 793.901 L49.8937 793.901 Q54.2542 793.901 55.4955 792.723 Q56.7368 791.514 56.7368 787.853 L56.7368 781.838 L61.6384 781.838 L61.6384 787.853 Q61.6384 794.633 59.124 797.211 Q56.5777 799.789 49.8937 799.789 L30.542 799.789 L30.542 804.086 L25.9905 804.086 L25.9905 799.789 L15.869 799.789 L15.869 793.901 Z" fill="#000000" fill-rule="nonzero" fill-opacity="1" /><path clip-path="url(#clip630)" d="M42.3504 743.644 L45.2149 743.644 L45.2149 770.571 Q51.2623 770.189 54.4452 766.942 Q57.5962 763.664 57.5962 757.839 Q57.5962 754.465 56.7687 751.314 Q55.9411 748.131 54.2861 745.012 L59.8242 745.012 Q61.161 748.163 61.8612 751.473 Q62.5615 754.784 62.5615 758.189 Q62.5615 766.719 57.5962 771.716 Q52.631 776.682 44.1646 776.682 Q35.4117 776.682 30.2873 771.971 Q25.1311 767.229 25.1311 759.208 Q25.1311 752.015 29.7781 747.845 Q34.3932 743.644 42.3504 743.644 M40.6316 749.5 Q35.8255 749.564 32.9609 752.206 Q30.0964 754.815 30.0964 759.144 Q30.0964 764.046 32.8654 767.006 Q35.6345 769.934 40.6634 770.38 L40.6316 749.5 Z" fill="#000000" fill-rule="nonzero" fill-opacity="1" /><path clip-path="url(#clip630)" d="M31.4013 710.574 L12.1132 710.574 L12.1132 704.717 L61.6384 704.717 L61.6384 710.574 L56.2912 710.574 Q59.4741 712.42 61.0337 715.253 Q62.5615 718.053 62.5615 722 Q62.5615 728.461 57.4052 732.535 Q52.249 736.578 43.8463 736.578 Q35.4436 736.578 30.2873 732.535 Q25.1311 728.461 25.1311 722 Q25.1311 718.053 26.6907 715.253 Q28.2185 712.42 31.4013 710.574 M43.8463 730.53 Q50.3075 730.53 53.9996 727.889 Q57.6599 725.215 57.6599 720.568 Q57.6599 715.921 53.9996 713.247 Q50.3075 710.574 43.8463 710.574 Q37.3851 710.574 33.7248 713.247 Q30.0327 715.921 30.0327 720.568 Q30.0327 725.215 33.7248 727.889 Q37.3851 730.53 43.8463 730.53 Z" fill="#000000" fill-rule="nonzero" fill-opacity="1" /><path clip-path="url(#clip630)" d="M681.129 14.0809 L681.129 22.0612 Q676.47 19.8332 672.338 18.7395 Q668.206 17.6457 664.358 17.6457 Q657.674 17.6457 654.028 20.2383 Q650.423 22.8309 650.423 27.611 Q650.423 31.6214 652.813 33.6873 Q655.243 35.7128 661.968 36.9686 L666.91 37.9813 Q676.065 39.7232 680.4 44.1387 Q684.775 48.5136 684.775 55.8863 Q684.775 64.6767 678.86 69.2137 Q672.986 73.7508 661.603 73.7508 Q657.309 73.7508 652.448 72.7785 Q647.628 71.8063 642.443 69.9024 L642.443 61.4765 Q647.425 64.2716 652.205 65.6895 Q656.985 67.1073 661.603 67.1073 Q668.611 67.1073 672.419 64.3527 Q676.227 61.598 676.227 56.4939 Q676.227 52.0379 673.473 49.5264 Q670.758 47.0148 664.52 45.759 L659.537 44.7868 Q650.382 42.9639 646.291 39.075 Q642.2 35.1862 642.2 28.2591 Q642.2 20.2383 647.83 15.6203 Q653.502 11.0023 663.426 11.0023 Q667.68 11.0023 672.095 11.7719 Q676.511 12.5416 681.129 14.0809 Z" fill="#000000" fill-rule="nonzero" fill-opacity="1" /><path clip-path="url(#clip630)" d="M697.535 12.096 L735.775 12.096 L735.775 18.9825 L705.718 18.9825 L705.718 36.8875 L734.52 36.8875 L734.52 43.7741 L705.718 43.7741 L705.718 65.6895 L736.505 65.6895 L736.505 72.576 L697.535 72.576 L697.535 12.096 Z" fill="#000000" fill-rule="nonzero" fill-opacity="1" /><path clip-path="url(#clip630)" d="M749.954 12.096 L758.136 12.096 L758.136 72.576 L749.954 72.576 L749.954 12.096 Z" fill="#000000" fill-rule="nonzero" fill-opacity="1" /><path clip-path="url(#clip630)" d="M803.101 44.2197 Q805.735 45.1109 808.206 48.0275 Q810.717 50.9442 813.229 56.0483 L821.533 72.576 L812.743 72.576 L805.005 57.061 Q802.008 50.9847 799.172 48.9997 Q796.377 47.0148 791.516 47.0148 L782.604 47.0148 L782.604 72.576 L774.421 72.576 L774.421 12.096 L792.893 12.096 Q803.264 12.096 808.368 16.4305 Q813.472 20.7649 813.472 29.5149 Q813.472 35.2267 810.798 38.994 Q808.165 42.7613 803.101 44.2197 M782.604 18.8205 L782.604 40.2903 L792.893 40.2903 Q798.808 40.2903 801.805 37.5762 Q804.843 34.8216 804.843 29.5149 Q804.843 24.2082 801.805 21.5346 Q798.808 18.8205 792.893 18.8205 L782.604 18.8205 Z" fill="#000000" fill-rule="nonzero" fill-opacity="1" /><path clip-path="url(#clip630)" d="M853.778 27.2059 L861.232 27.2059 L870.549 62.6108 L879.826 27.2059 L888.616 27.2059 L897.933 62.6108 L907.21 27.2059 L914.663 27.2059 L902.794 72.576 L894.004 72.576 L884.241 35.3887 L874.438 72.576 L865.647 72.576 L853.778 27.2059 Z" fill="#000000" fill-rule="nonzero" fill-opacity="1" /><path clip-path="url(#clip630)" d="M925.965 27.2059 L933.419 27.2059 L933.419 72.576 L925.965 72.576 L925.965 27.2059 M925.965 9.54393 L933.419 9.54393 L933.419 18.9825 L925.965 18.9825 L925.965 9.54393 Z" fill="#000000" fill-rule="nonzero" fill-opacity="1" /><path clip-path="url(#clip630)" d="M956.388 14.324 L956.388 27.2059 L971.741 27.2059 L971.741 32.9987 L956.388 32.9987 L956.388 57.6282 Q956.388 63.1779 957.887 64.7578 Q959.426 66.3376 964.084 66.3376 L971.741 66.3376 L971.741 72.576 L964.084 72.576 Q955.456 72.576 952.175 69.3758 Q948.894 66.1351 948.894 57.6282 L948.894 32.9987 L943.425 32.9987 L943.425 27.2059 L948.894 27.2059 L948.894 14.324 L956.388 14.324 Z" fill="#000000" fill-rule="nonzero" fill-opacity="1" /><path clip-path="url(#clip630)" d="M1019.26 45.1919 L1019.26 72.576 L1011.8 72.576 L1011.8 45.4349 Q1011.8 38.994 1009.29 35.7938 Q1006.78 32.5936 1001.76 32.5936 Q995.722 32.5936 992.238 36.4419 Q988.754 40.2903 988.754 46.9338 L988.754 72.576 L981.26 72.576 L981.26 9.54393 L988.754 9.54393 L988.754 34.2544 Q991.428 30.163 995.033 28.1376 Q998.679 26.1121 1003.42 26.1121 Q1011.24 26.1121 1015.25 30.9732 Q1019.26 35.7938 1019.26 45.1919 Z" fill="#000000" fill-rule="nonzero" fill-opacity="1" /><path clip-path="url(#clip630)" d="M1069 18.8205 L1069 65.8515 L1078.89 65.8515 Q1091.4 65.8515 1097.2 60.1802 Q1103.03 54.509 1103.03 42.2752 Q1103.03 30.1225 1097.2 24.4918 Q1091.4 18.8205 1078.89 18.8205 L1069 18.8205 M1060.82 12.096 L1077.63 12.096 Q1095.21 12.096 1103.44 19.4281 Q1111.66 26.7198 1111.66 42.2752 Q1111.66 57.9117 1103.4 65.2439 Q1095.13 72.576 1077.63 72.576 L1060.82 72.576 L1060.82 12.096 Z" fill="#000000" fill-rule="nonzero" fill-opacity="1" /><path clip-path="url(#clip630)" d="M1163.19 48.0275 L1163.19 51.6733 L1128.92 51.6733 Q1129.4 59.3701 1133.53 63.421 Q1137.71 67.4314 1145.12 67.4314 Q1149.41 67.4314 1153.42 66.3781 Q1157.47 65.3249 1161.44 63.2184 L1161.44 70.267 Q1157.43 71.9684 1153.22 72.8596 Q1149.01 73.7508 1144.67 73.7508 Q1133.82 73.7508 1127.46 67.4314 Q1121.14 61.1119 1121.14 50.3365 Q1121.14 39.1965 1127.13 32.6746 Q1133.17 26.1121 1143.38 26.1121 Q1152.53 26.1121 1157.84 32.0264 Q1163.19 37.9003 1163.19 48.0275 M1155.73 45.84 Q1155.65 39.7232 1152.29 36.0774 Q1148.97 32.4315 1143.46 32.4315 Q1137.22 32.4315 1133.45 35.9558 Q1129.73 39.4801 1129.16 45.8805 L1155.73 45.84 Z" fill="#000000" fill-rule="nonzero" fill-opacity="1" /><path clip-path="url(#clip630)" d="M1175.42 9.54393 L1182.87 9.54393 L1182.87 72.576 L1175.42 72.576 L1175.42 9.54393 Z" fill="#000000" fill-rule="nonzero" fill-opacity="1" /><path clip-path="url(#clip630)" d="M1219.09 49.7694 Q1210.06 49.7694 1206.57 51.8354 Q1203.09 53.9013 1203.09 58.8839 Q1203.09 62.8538 1205.68 65.2034 Q1208.31 67.5124 1212.81 67.5124 Q1219.01 67.5124 1222.73 63.1374 Q1226.5 58.7219 1226.5 51.4303 L1226.5 49.7694 L1219.09 49.7694 M1233.96 46.6907 L1233.96 72.576 L1226.5 72.576 L1226.5 65.6895 Q1223.95 69.8214 1220.14 71.8063 Q1216.33 73.7508 1210.83 73.7508 Q1203.86 73.7508 1199.73 69.8619 Q1195.63 65.9325 1195.63 59.3701 Q1195.63 51.7138 1200.74 47.825 Q1205.88 43.9361 1216.05 43.9361 L1226.5 43.9361 L1226.5 43.2069 Q1226.5 38.0623 1223.1 35.2672 Q1219.74 32.4315 1213.62 32.4315 Q1209.73 32.4315 1206.04 33.3632 Q1202.36 34.295 1198.96 36.1584 L1198.96 29.2718 Q1203.05 27.692 1206.9 26.9223 Q1210.74 26.1121 1214.39 26.1121 Q1224.23 26.1121 1229.09 31.2163 Q1233.96 36.3204 1233.96 46.6907 Z" fill="#000000" fill-rule="nonzero" fill-opacity="1" /><path clip-path="url(#clip630)" d="M1268.19 76.7889 Q1265.03 84.8907 1262.03 87.3618 Q1259.03 89.8329 1254.01 89.8329 L1248.05 89.8329 L1248.05 83.5945 L1252.43 83.5945 Q1255.51 83.5945 1257.21 82.1361 Q1258.91 80.6778 1260.98 75.2496 L1262.31 71.8468 L1243.96 27.2059 L1251.86 27.2059 L1266.04 62.6918 L1280.22 27.2059 L1288.12 27.2059 L1268.19 76.7889 Z" fill="#000000" fill-rule="nonzero" fill-opacity="1" /><path clip-path="url(#clip630)" d="M1294.27 62.2867 L1302.82 62.2867 L1302.82 72.576 L1294.27 72.576 L1294.27 62.2867 M1294.27 29.6769 L1302.82 29.6769 L1302.82 39.9662 L1294.27 39.9662 L1294.27 29.6769 Z" fill="#000000" fill-rule="nonzero" fill-opacity="1" /><path clip-path="url(#clip630)" d="M1347.02 12.096 L1355.2 12.096 L1355.2 72.576 L1347.02 72.576 L1347.02 12.096 Z" fill="#000000" fill-rule="nonzero" fill-opacity="1" /><path clip-path="url(#clip630)" d="M1408.87 45.1919 L1408.87 72.576 L1401.42 72.576 L1401.42 45.4349 Q1401.42 38.994 1398.91 35.7938 Q1396.4 32.5936 1391.37 32.5936 Q1385.34 32.5936 1381.85 36.4419 Q1378.37 40.2903 1378.37 46.9338 L1378.37 72.576 L1370.88 72.576 L1370.88 27.2059 L1378.37 27.2059 L1378.37 34.2544 Q1381.04 30.163 1384.65 28.1376 Q1388.3 26.1121 1393.03 26.1121 Q1400.85 26.1121 1404.86 30.9732 Q1408.87 35.7938 1408.87 45.1919 Z" fill="#000000" fill-rule="nonzero" fill-opacity="1" /><path clip-path="url(#clip630)" d="M1446.71 9.54393 L1446.71 15.7418 L1439.58 15.7418 Q1435.57 15.7418 1433.99 17.3622 Q1432.45 18.9825 1432.45 23.1955 L1432.45 27.2059 L1444.72 27.2059 L1444.72 32.9987 L1432.45 32.9987 L1432.45 72.576 L1424.96 72.576 L1424.96 32.9987 L1417.83 32.9987 L1417.83 27.2059 L1424.96 27.2059 L1424.96 24.0462 Q1424.96 16.471 1428.48 13.0277 Q1432 9.54393 1439.66 9.54393 L1446.71 9.54393 Z" fill="#000000" fill-rule="nonzero" fill-opacity="1" /><path clip-path="url(#clip630)" d="M1491.76 48.0275 L1491.76 51.6733 L1457.48 51.6733 Q1457.97 59.3701 1462.1 63.421 Q1466.28 67.4314 1473.69 67.4314 Q1477.98 67.4314 1481.99 66.3781 Q1486.04 65.3249 1490.01 63.2184 L1490.01 70.267 Q1486 71.9684 1481.79 72.8596 Q1477.58 73.7508 1473.24 73.7508 Q1462.39 73.7508 1456.03 67.4314 Q1449.71 61.1119 1449.71 50.3365 Q1449.71 39.1965 1455.7 32.6746 Q1461.74 26.1121 1471.95 26.1121 Q1481.1 26.1121 1486.41 32.0264 Q1491.76 37.9003 1491.76 48.0275 M1484.3 45.84 Q1484.22 39.7232 1480.86 36.0774 Q1477.54 32.4315 1472.03 32.4315 Q1465.79 32.4315 1462.02 35.9558 Q1458.29 39.4801 1457.73 45.8805 L1484.3 45.84 Z" fill="#000000" fill-rule="nonzero" fill-opacity="1" /><path clip-path="url(#clip630)" d="M1536.64 28.9478 L1536.64 35.9153 Q1533.48 34.1734 1530.28 33.3227 Q1527.12 32.4315 1523.88 32.4315 Q1516.63 32.4315 1512.62 37.0496 Q1508.61 41.6271 1508.61 49.9314 Q1508.61 58.2358 1512.62 62.8538 Q1516.63 67.4314 1523.88 67.4314 Q1527.12 67.4314 1530.28 66.5807 Q1533.48 65.6895 1536.64 63.9476 L1536.64 70.8341 Q1533.52 72.2924 1530.16 73.0216 Q1526.84 73.7508 1523.07 73.7508 Q1512.82 73.7508 1506.78 67.3098 Q1500.75 60.8689 1500.75 49.9314 Q1500.75 38.832 1506.82 32.472 Q1512.94 26.1121 1523.55 26.1121 Q1527 26.1121 1530.28 26.8413 Q1533.56 27.5299 1536.64 28.9478 Z" fill="#000000" fill-rule="nonzero" fill-opacity="1" /><path clip-path="url(#clip630)" d="M1556.97 14.324 L1556.97 27.2059 L1572.33 27.2059 L1572.33 32.9987 L1556.97 32.9987 L1556.97 57.6282 Q1556.97 63.1779 1558.47 64.7578 Q1560.01 66.3376 1564.67 66.3376 L1572.33 66.3376 L1572.33 72.576 L1564.67 72.576 Q1556.04 72.576 1552.76 69.3758 Q1549.48 66.1351 1549.48 57.6282 L1549.48 32.9987 L1544.01 32.9987 L1544.01 27.2059 L1549.48 27.2059 L1549.48 14.324 L1556.97 14.324 Z" fill="#000000" fill-rule="nonzero" fill-opacity="1" /><path clip-path="url(#clip630)" d="M1620.94 48.0275 L1620.94 51.6733 L1586.67 51.6733 Q1587.15 59.3701 1591.29 63.421 Q1595.46 67.4314 1602.87 67.4314 Q1607.17 67.4314 1611.18 66.3781 Q1615.23 65.3249 1619.2 63.2184 L1619.2 70.267 Q1615.19 71.9684 1610.97 72.8596 Q1606.76 73.7508 1602.43 73.7508 Q1591.57 73.7508 1585.21 67.4314 Q1578.89 61.1119 1578.89 50.3365 Q1578.89 39.1965 1584.89 32.6746 Q1590.92 26.1121 1601.13 26.1121 Q1610.28 26.1121 1615.59 32.0264 Q1620.94 37.9003 1620.94 48.0275 M1613.48 45.84 Q1613.4 39.7232 1610.04 36.0774 Q1606.72 32.4315 1601.21 32.4315 Q1594.97 32.4315 1591.2 35.9558 Q1587.48 39.4801 1586.91 45.8805 L1613.48 45.84 Z" fill="#000000" fill-rule="nonzero" fill-opacity="1" /><path clip-path="url(#clip630)" d="M1663.03 34.0924 L1663.03 9.54393 L1670.48 9.54393 L1670.48 72.576 L1663.03 72.576 L1663.03 65.7705 Q1660.68 69.8214 1657.07 71.8063 Q1653.51 73.7508 1648.48 73.7508 Q1640.26 73.7508 1635.08 67.1883 Q1629.93 60.6258 1629.93 49.9314 Q1629.93 39.2371 1635.08 32.6746 Q1640.26 26.1121 1648.48 26.1121 Q1653.51 26.1121 1657.07 28.0971 Q1660.68 30.0415 1663.03 34.0924 M1637.63 49.9314 Q1637.63 58.1548 1640.99 62.8538 Q1644.39 67.5124 1650.31 67.5124 Q1656.22 67.5124 1659.62 62.8538 Q1663.03 58.1548 1663.03 49.9314 Q1663.03 41.7081 1659.62 37.0496 Q1656.22 32.3505 1650.31 32.3505 Q1644.39 32.3505 1640.99 37.0496 Q1637.63 41.7081 1637.63 49.9314 Z" fill="#000000" fill-rule="nonzero" fill-opacity="1" /><path clip-path="url(#clip630)" d="M1744.77 49.9314 Q1744.77 41.7081 1741.37 37.0496 Q1738.01 32.3505 1732.1 32.3505 Q1726.18 32.3505 1722.78 37.0496 Q1719.42 41.7081 1719.42 49.9314 Q1719.42 58.1548 1722.78 62.8538 Q1726.18 67.5124 1732.1 67.5124 Q1738.01 67.5124 1741.37 62.8538 Q1744.77 58.1548 1744.77 49.9314 M1719.42 34.0924 Q1721.77 30.0415 1725.33 28.0971 Q1728.94 26.1121 1733.92 26.1121 Q1742.18 26.1121 1747.33 32.6746 Q1752.51 39.2371 1752.51 49.9314 Q1752.51 60.6258 1747.33 67.1883 Q1742.18 73.7508 1733.92 73.7508 Q1728.94 73.7508 1725.33 71.8063 Q1721.77 69.8214 1719.42 65.7705 L1719.42 72.576 L1711.92 72.576 L1711.92 9.54393 L1719.42 9.54393 L1719.42 34.0924 Z" fill="#000000" fill-rule="nonzero" fill-opacity="1" /><path clip-path="url(#clip630)" d="M1783.74 76.7889 Q1780.58 84.8907 1777.59 87.3618 Q1774.59 89.8329 1769.57 89.8329 L1763.61 89.8329 L1763.61 83.5945 L1767.99 83.5945 Q1771.07 83.5945 1772.77 82.1361 Q1774.47 80.6778 1776.53 75.2496 L1777.87 71.8468 L1759.52 27.2059 L1767.42 27.2059 L1781.6 62.6918 L1795.78 27.2059 L1803.67 27.2059 L1783.74 76.7889 Z" fill="#000000" fill-rule="nonzero" fill-opacity="1" /><path clip-path="url(#clip630)" d="M1860.87 20.1573 L1849.77 50.2555 L1872.01 50.2555 L1860.87 20.1573 M1856.26 12.096 L1865.53 12.096 L1888.58 72.576 L1880.07 72.576 L1874.57 57.061 L1847.3 57.061 L1841.79 72.576 L1833.17 72.576 L1856.26 12.096 Z" fill="#000000" fill-rule="nonzero" fill-opacity="1" /><path clip-path="url(#clip630)" d="M1926.94 49.3643 Q1926.94 41.2625 1923.58 36.8065 Q1920.26 32.3505 1914.22 32.3505 Q1908.23 32.3505 1904.87 36.8065 Q1901.54 41.2625 1901.54 49.3643 Q1901.54 57.4256 1904.87 61.8816 Q1908.23 66.3376 1914.22 66.3376 Q1920.26 66.3376 1923.58 61.8816 Q1926.94 57.4256 1926.94 49.3643 M1934.4 66.9452 Q1934.4 78.5308 1929.25 84.1616 Q1924.11 89.8329 1913.49 89.8329 Q1909.57 89.8329 1906.08 89.2252 Q1902.6 88.6581 1899.32 87.4428 L1899.32 80.1917 Q1902.6 81.9741 1905.8 82.8248 Q1909 83.6755 1912.32 83.6755 Q1919.65 83.6755 1923.3 79.8271 Q1926.94 76.0193 1926.94 68.282 L1926.94 64.5957 Q1924.63 68.6061 1921.03 70.5911 Q1917.42 72.576 1912.4 72.576 Q1904.06 72.576 1898.95 66.2161 Q1893.85 59.8562 1893.85 49.3643 Q1893.85 38.832 1898.95 32.472 Q1904.06 26.1121 1912.4 26.1121 Q1917.42 26.1121 1921.03 28.0971 Q1924.63 30.082 1926.94 34.0924 L1926.94 27.2059 L1934.4 27.2059 L1934.4 66.9452 Z" fill="#000000" fill-rule="nonzero" fill-opacity="1" /><path clip-path="url(#clip630)" d="M1988.56 48.0275 L1988.56 51.6733 L1954.29 51.6733 Q1954.77 59.3701 1958.91 63.421 Q1963.08 67.4314 1970.49 67.4314 Q1974.79 67.4314 1978.8 66.3781 Q1982.85 65.3249 1986.82 63.2184 L1986.82 70.267 Q1982.81 71.9684 1978.59 72.8596 Q1974.38 73.7508 1970.05 73.7508 Q1959.19 73.7508 1952.83 67.4314 Q1946.51 61.1119 1946.51 50.3365 Q1946.51 39.1965 1952.51 32.6746 Q1958.54 26.1121 1968.75 26.1121 Q1977.9 26.1121 1983.21 32.0264 Q1988.56 37.9003 1988.56 48.0275 M1981.1 45.84 Q1981.02 39.7232 1977.66 36.0774 Q1974.34 32.4315 1968.83 32.4315 Q1962.59 32.4315 1958.82 35.9558 Q1955.1 39.4801 1954.53 45.8805 L1981.1 45.84 Z" fill="#000000" fill-rule="nonzero" fill-opacity="1" /><path clip-path="url(#clip630)" d="M2068.73 63.9476 L2068.73 47.7034 L2055.36 47.7034 L2055.36 40.9789 L2076.83 40.9789 L2076.83 66.9452 Q2072.09 70.3075 2066.38 72.0494 Q2060.66 73.7508 2054.18 73.7508 Q2040 73.7508 2031.98 65.4869 Q2024 57.1826 2024 42.3968 Q2024 27.5705 2031.98 19.3066 Q2040 11.0023 2054.18 11.0023 Q2060.1 11.0023 2065.4 12.4606 Q2070.75 13.9189 2075.25 16.7545 L2075.25 25.464 Q2070.71 21.6156 2065.61 19.6712 Q2060.5 17.7268 2054.87 17.7268 Q2043.77 17.7268 2038.18 23.9246 Q2032.63 30.1225 2032.63 42.3968 Q2032.63 54.6305 2038.18 60.8284 Q2043.77 67.0263 2054.87 67.0263 Q2059.21 67.0263 2062.61 66.2971 Q2066.01 65.5274 2068.73 63.9476 Z" fill="#000000" fill-rule="nonzero" fill-opacity="1" /><path clip-path="url(#clip630)" d="M2117.74 34.1734 Q2116.49 33.4443 2114.99 33.1202 Q2113.53 32.7556 2111.75 32.7556 Q2105.43 32.7556 2102.02 36.8875 Q2098.66 40.9789 2098.66 48.6757 L2098.66 72.576 L2091.17 72.576 L2091.17 27.2059 L2098.66 27.2059 L2098.66 34.2544 Q2101.01 30.1225 2104.78 28.1376 Q2108.55 26.1121 2113.93 26.1121 Q2114.7 26.1121 2115.63 26.2337 Q2116.57 26.3147 2117.7 26.5172 L2117.74 34.1734 Z" fill="#000000" fill-rule="nonzero" fill-opacity="1" /><path clip-path="url(#clip630)" d="M2141.32 32.4315 Q2135.32 32.4315 2131.84 37.1306 Q2128.35 41.7891 2128.35 49.9314 Q2128.35 58.0738 2131.8 62.7728 Q2135.28 67.4314 2141.32 67.4314 Q2147.27 67.4314 2150.76 62.7323 Q2154.24 58.0333 2154.24 49.9314 Q2154.24 41.8701 2150.76 37.1711 Q2147.27 32.4315 2141.32 32.4315 M2141.32 26.1121 Q2151.04 26.1121 2156.59 32.4315 Q2162.14 38.7509 2162.14 49.9314 Q2162.14 61.0714 2156.59 67.4314 Q2151.04 73.7508 2141.32 73.7508 Q2131.56 73.7508 2126.01 67.4314 Q2120.5 61.0714 2120.5 49.9314 Q2120.5 38.7509 2126.01 32.4315 Q2131.56 26.1121 2141.32 26.1121 Z" fill="#000000" fill-rule="nonzero" fill-opacity="1" /><path clip-path="url(#clip630)" d="M2173.72 54.671 L2173.72 27.2059 L2181.18 27.2059 L2181.18 54.3874 Q2181.18 60.8284 2183.69 64.0691 Q2186.2 67.2693 2191.22 67.2693 Q2197.26 67.2693 2200.74 63.421 Q2204.27 59.5726 2204.27 52.9291 L2204.27 27.2059 L2211.72 27.2059 L2211.72 72.576 L2204.27 72.576 L2204.27 65.6084 Q2201.55 69.7404 2197.95 71.7658 Q2194.38 73.7508 2189.64 73.7508 Q2181.83 73.7508 2177.78 68.8897 Q2173.72 64.0286 2173.72 54.671 M2192.48 26.1121 L2192.48 26.1121 Z" fill="#000000" fill-rule="nonzero" fill-opacity="1" /><path clip-path="url(#clip630)" d="M2234.29 65.7705 L2234.29 89.8329 L2226.79 89.8329 L2226.79 27.2059 L2234.29 27.2059 L2234.29 34.0924 Q2236.64 30.0415 2240.2 28.0971 Q2243.81 26.1121 2248.79 26.1121 Q2257.05 26.1121 2262.2 32.6746 Q2267.38 39.2371 2267.38 49.9314 Q2267.38 60.6258 2262.2 67.1883 Q2257.05 73.7508 2248.79 73.7508 Q2243.81 73.7508 2240.2 71.8063 Q2236.64 69.8214 2234.29 65.7705 M2259.64 49.9314 Q2259.64 41.7081 2256.24 37.0496 Q2252.88 32.3505 2246.97 32.3505 Q2241.05 32.3505 2237.65 37.0496 Q2234.29 41.7081 2234.29 49.9314 Q2234.29 58.1548 2237.65 62.8538 Q2241.05 67.5124 2246.97 67.5124 Q2252.88 67.5124 2256.24 62.8538 Q2259.64 58.1548 2259.64 49.9314 Z" fill="#000000" fill-rule="nonzero" fill-opacity="1" /><polyline clip-path="url(#clip631)" style="stroke:#0000ff; stroke-linecap:round; stroke-linejoin:round; stroke-width:8; stroke-opacity:1; fill:none" points="335.956,1688.65 342.086,1685.28 348.217,1682.17 354.347,1679.69 360.478,1677.46 366.609,1674.83 372.739,1676.16 378.87,1675.74 385,1673.65 391.131,1670.9 397.262,1668.23 403.392,1664.43 409.523,1661.47 415.653,1658.92 421.784,1655.87 427.915,1651.72 434.045,1647.31 440.176,1642.82 446.306,1637.02 452.437,1631.95 458.568,1626.2 464.698,1619.25 470.829,1610.96 476.959,1602.78 483.09,1592.68 489.221,1582.59 495.351,1571.92 501.482,1559.86 507.613,1547.46 513.743,1533.74 519.874,1518.62 526.004,1502.03 532.135,1484.41 538.266,1465.08 544.396,1443.85 550.527,1422.38 556.657,1398.65 562.788,1373.99 568.919,1346.03 575.049,1318.56 581.18,1286.31 587.31,1251.8 593.441,1219.14 599.572,1183.21 605.702,1143.18 611.833,1105.01 617.963,1065.97 624.094,1023.56 630.225,978.251 636.355,931.382 642.486,883.848 648.616,839.651 654.747,791.873 660.878,747.704 667.008,707.943 673.139,662.891 679.269,618.315 685.4,577.333 691.531,539.851 697.661,503.835 703.792,474.153 709.922,448.772 716.053,429.753 722.184,416.648 728.314,408.143 734.445,407.342 740.575,412.117 746.706,416.296 752.837,427.365 758.967,442.776 765.098,469.025 771.228,495.315 777.359,533.475 783.49,573.399 789.62,620.092 795.751,661.128 801.881,708.011 808.012,753.984 814.143,801.369 820.273,851.548 826.404,898.906 832.534,948.285 838.665,996.239 844.796,1042.17 850.926,1083.33 857.057,1128.4 863.187,1166.68 869.318,1205.42 875.449,1241.48 881.579,1275.07 887.71,1305.52 893.841,1336.45 899.971,1364.15 906.102,1391.04 912.232,1414.66 918.363,1437.8 924.494,1459.48 930.624,1477.89 936.755,1495.4 942.885,1512.33 949.016,1528.42 955.147,1540.83 961.277,1554.19 967.408,1565.76 973.538,1576.48 979.669,1586.56 985.8,1595.78 991.93,1603.57 998.061,1610.48 1004.19,1616.88 1010.32,1622.35 1016.45,1628.48 1022.58,1633.13 1028.71,1637.69 1034.84,1642.31 1040.97,1645.07 1047.11,1648.07 1053.24,1651.02 1059.37,1654.33 1065.5,1656.44 1071.63,1659.1 1077.76,1661.81 1083.89,1663.98 1090.02,1665.84 1096.15,1667.14 1102.28,1668.74 1108.41,1669.32 1114.54,1670.56 1120.67,1671.51 1126.8,1672.93 1132.93,1673.53 1139.06,1674.41 1145.2,1675.28 1151.33,1675.74 1157.46,1676.24 1163.59,1676.73 1169.72,1677.48 1175.85,1677.56 1181.98,1678.2 1188.11,1678.66 1194.24,1679.21 1200.37,1679.28 1206.5,1679.78 1212.63,1679.65 1218.76,1679.62 1224.89,1679.77 1231.02,1679.81 1237.15,1679.77 1243.28,1680.04 1249.42,1680.14 1255.55,1680.26 1261.68,1680.41 1267.81,1680.62 1273.94,1680.56 1280.07,1680.52 1286.2,1680.14 1292.33,1680.37 1298.46,1680.58 1304.59,1680.87 1310.72,1680.87 1316.85,1681.14 1322.98,1681.09 1329.11,1680.88 1335.24,1680.73 1341.37,1680.84 1347.51,1680.91 1353.64,1681.03 1359.77,1681.18 1365.9,1681.15 1372.03,1681.28 1378.16,1681.63 1384.29,1681.53 1390.42,1681.47 1396.55,1681.76 1402.68,1681.83 1408.81,1681.71 1414.94,1681.87 1421.07,1681.91 1427.2,1681.64 1433.33,1681.59 1439.46,1681.53 1445.59,1681.42 1451.73,1681.55 1457.86,1681.86 1463.99,1681.87 1470.12,1682.14 1476.25,1682.09 1482.38,1682.22 1488.51,1682.32 1494.64,1682.33 1500.77,1682.18 1506.9,1682.4 1513.03,1682.51 1519.16,1682.47 1525.29,1682.78 1531.42,1682.82 1537.55,1682.7 1543.68,1682.54 1549.82,1682.2 1555.95,1681.98 1562.08,1681.86 1568.21,1681.66 1574.34,1681.76 1580.47,1682.32 1586.6,1682.46 1592.73,1682.73 1598.86,1683.23 1604.99,1683.17 1611.12,1682.82 1617.25,1683.17 1623.38,1683.07 1629.51,1683.09 1635.64,1683.31 1641.77,1683.69 1647.9,1683.47 1654.04,1683.85 1660.17,1684.11 1666.3,1684.22 1672.43,1684.37 1678.56,1684.68 1684.69,1684.65 1690.82,1684.84 1696.95,1684.82 1703.08,1684.88 1709.21,1684.88 1715.34,1685.05 1721.47,1685.05 1727.6,1685.3 1733.73,1685.32 1739.86,1685.49 1745.99,1685.51 1752.12,1685.43 1758.26,1685.66 1764.39,1685.97 1770.52,1686.15 1776.65,1686.32 1782.78,1686.51 1788.91,1686.39 1795.04,1686.32 1801.17,1686.25 1807.3,1686.39 1813.43,1686.58 1819.56,1686.84 1825.69,1686.96 1831.82,1687.18 1837.95,1687.28 1844.08,1687.35 1850.21,1687.39 1856.35,1687.5 1862.48,1687.53 1868.61,1687.57 1874.74,1687.68 1880.87,1687.71 1887,1687.79 1893.13,1687.9 1899.26,1687.98 1905.39,1688.07 1911.52,1688.14 1917.65,1688.1 1923.78,1688.1 1929.91,1688.03 1936.04,1687.95 1942.17,1687.92 1948.3,1687.95 1954.43,1687.87 1960.57,1687.95 1966.7,1688.03 1972.83,1687.99 1978.96,1688.03 1985.09,1688.11 1991.22,1688.11 1997.35,1688.1 2003.48,1688.17 2009.61,1688.15 2015.74,1688.17 2021.87,1688.06 2028,1688.02 2034.13,1688.04 2040.26,1688.14 2046.39,1688.14 2052.52,1688.21 2058.66,1688.19 2064.79,1688.18 2070.92,1688.13 2077.05,1688.09 2083.18,1688.11 2089.31,1688.17 2095.44,1688.13 2101.57,1688.14 2107.7,1688.21 2113.83,1688.19 2119.96,1688.19 2126.09,1688.21 2132.22,1688.22 2138.35,1688.17 2144.48,1688.21 2150.61,1688.23 2156.74,1688.28 2162.88,1688.19 2169.01,1688.22 2175.14,1688.17 2181.27,1688.14 2187.4,1688.14 2193.53,1688.19 2199.66,1688.06 2205.79,1688.1 2211.92,1688.1 2218.05,1688.11 2224.18,1688.11 2230.31,1688.21 2236.44,1688.28 2242.57,1688.36 2248.7,1688.3 2254.83,1688.32 2260.97,1688.23 2267.1,1688.14 2273.23,1688.06 2279.36,1688.07 2285.49,1688.1 2291.62,1688.17 2297.75,1688.18 2303.88,1688.18 2310.01,1688.25 2316.14,1688.25 2322.27,1688.28 2328.4,1688.26 2334.53,1688.28 2340.66,1688.23 2346.79,1688.22 2352.92,1688.21 2359.05,1688.23 2365.19,1688.26 2371.32,1688.26 2377.45,1688.3 2383.58,1688.3 2389.71,1688.23 2395.84,1688.15 2401.97,1688.17 2408.1,1688.13 2414.23,1688.13 2420.36,1688.25 2426.49,1688.21 2432.62,1688.22 2438.75,1688.21 2444.88,1688.28 2451.01,1688.18 2457.14,1688.3 2463.27,1688.19 2469.41,1688.23 2475.54,1688.14 2481.67,1688.18 2487.8,1688.14 2493.93,1688.17 2500.06,1688.15 2506.19,1688.17 2512.32,1688.1 2518.45,1688.09 2524.58,1688.1 2530.71,1688.06 2536.84,1688.13 2542.97,1688.21 2549.1,1688.22 2555.23,1688.26 2561.36,1688.3 2567.5,1688.3 2573.63,1688.28 "/>
<polyline clip-path="url(#clip631)" style="stroke:#ff0000; stroke-linecap:round; stroke-linejoin:round; stroke-width:8; stroke-opacity:1; fill:none" points="335.956,1681.87 342.086,1682.9 348.217,1683.58 354.347,1684.44 360.478,1685.01 366.609,1685.53 372.739,1683.16 378.87,1680.88 385,1679.24 391.131,1678.25 397.262,1677.06 403.392,1676.2 409.523,1674.07 415.653,1671.73 421.784,1669.16 427.915,1666.31 434.045,1663.46 440.176,1660.47 446.306,1656.48 452.437,1653.29 458.568,1649.42 464.698,1644.49 470.829,1638.45 476.959,1633.74 483.09,1626.97 489.221,1621.29 495.351,1613.68 501.482,1605.69 507.613,1597.7 513.743,1587.69 519.874,1576.11 526.004,1564.77 532.135,1552.4 538.266,1538.27 544.396,1525.77 550.527,1510.89 556.657,1491.82 562.788,1474.11 568.919,1454.57 575.049,1434.61 581.18,1412.87 587.31,1388.56 593.441,1362.05 599.572,1331.47 605.702,1299.88 611.833,1266.95 617.963,1230.8 624.094,1190.91 630.225,1151.54 636.355,1114.1 642.486,1071.96 648.616,1028.96 654.747,981.371 660.878,930.324 667.008,881.325 673.139,831.892 679.269,784.86 685.4,735.969 691.531,683.647 697.661,635.801 703.792,582.189 709.922,534.913 716.053,485.887 722.184,437.255 728.314,393.79 734.445,352.7 740.575,313.821 746.706,281.277 752.837,250.375 758.967,226.241 765.098,207.25 771.228,187.227 777.359,176.049 783.49,173.254 789.62,175.492 795.751,180.729 801.881,197.659 808.012,222.389 814.143,248.964 820.273,276.461 826.404,315.964 832.534,351.832 838.665,393.519 844.796,439.94 850.926,484.598 857.057,533.652 863.187,587.575 869.318,635.367 875.449,685.682 881.579,736.336 887.71,784.534 893.841,834.781 899.971,881.895 906.102,926.444 912.232,974.71 918.363,1019.72 924.494,1060.87 930.624,1103.12 936.755,1141.13 942.885,1178.19 949.016,1212.98 955.147,1245.87 961.277,1279.29 967.408,1307.85 973.538,1335.58 979.669,1362.9 985.8,1387.25 991.93,1410.45 998.061,1430.92 1004.19,1451.66 1010.32,1470.21 1016.45,1486.53 1022.58,1502.17 1028.71,1517.29 1034.84,1530.48 1040.97,1543.63 1047.11,1556.78 1053.24,1567.45 1059.37,1576.67 1065.5,1585.79 1071.63,1593 1077.76,1601.24 1083.89,1609.45 1090.02,1615.14 1096.15,1620.5 1102.28,1625.34 1108.41,1630.61 1114.54,1635.67 1120.67,1639.97 1126.8,1643.94 1132.93,1647.74 1139.06,1651.12 1145.2,1653.52 1151.33,1656.31 1157.46,1658.72 1163.59,1660.79 1169.72,1662.79 1175.85,1664.29 1181.98,1665.97 1188.11,1667.36 1194.24,1669.05 1200.37,1670.42 1206.5,1670.92 1212.63,1671.59 1218.76,1672.69 1224.89,1673.23 1231.02,1673.94 1237.15,1674.23 1243.28,1675.23 1249.42,1675.78 1255.55,1676.28 1261.68,1676.53 1267.81,1677.04 1273.94,1677.45 1280.07,1677.65 1286.2,1677.99 1292.33,1678.48 1298.46,1678.75 1304.59,1678.83 1310.72,1679.09 1316.85,1679.51 1322.98,1679.86 1329.11,1680.14 1335.24,1680.3 1341.37,1680.42 1347.51,1680.33 1353.64,1680.38 1359.77,1680.49 1365.9,1680.81 1372.03,1681.03 1378.16,1681.17 1384.29,1681.15 1390.42,1681.32 1396.55,1681.1 1402.68,1681.14 1408.81,1681.42 1414.94,1681.75 1421.07,1681.91 1427.2,1681.94 1433.33,1681.91 1439.46,1681.99 1445.59,1681.91 1451.73,1681.83 1457.86,1681.83 1463.99,1681.98 1470.12,1681.91 1476.25,1681.97 1482.38,1682.24 1488.51,1682.12 1494.64,1682.02 1500.77,1681.82 1506.9,1681.76 1513.03,1682.05 1519.16,1681.97 1525.29,1682.24 1531.42,1682.32 1537.55,1682.28 1543.68,1682.4 1549.82,1682.74 1555.95,1682.96 1562.08,1682.96 1568.21,1683.12 1574.34,1683.13 1580.47,1683.08 1586.6,1682.94 1592.73,1683.03 1598.86,1682.79 1604.99,1682.98 1611.12,1683.07 1617.25,1682.89 1623.38,1682.73 1629.51,1682.77 1635.64,1682.88 1641.77,1682.97 1647.9,1683.03 1654.04,1683.26 1660.17,1683.42 1666.3,1683.61 1672.43,1683.73 1678.56,1683.93 1684.69,1684.12 1690.82,1684.35 1696.95,1684.4 1703.08,1684.59 1709.21,1684.71 1715.34,1684.73 1721.47,1684.71 1727.6,1684.79 1733.73,1684.82 1739.86,1684.8 1745.99,1684.75 1752.12,1684.79 1758.26,1684.71 1764.39,1684.79 1770.52,1685.05 1776.65,1685.39 1782.78,1685.67 1788.91,1685.71 1795.04,1685.75 1801.17,1686.15 1807.3,1686.27 1813.43,1686.31 1819.56,1686.42 1825.69,1686.48 1831.82,1686.42 1837.95,1686.51 1844.08,1686.59 1850.21,1686.73 1856.35,1686.85 1862.48,1686.9 1868.61,1686.86 1874.74,1686.96 1880.87,1686.99 1887,1687.12 1893.13,1687.18 1899.26,1687.35 1905.39,1687.45 1911.52,1687.52 1917.65,1687.52 1923.78,1687.64 1929.91,1687.73 1936.04,1687.77 1942.17,1687.84 1948.3,1687.91 1954.43,1687.98 1960.57,1687.99 1966.7,1688 1972.83,1687.99 1978.96,1687.95 1985.09,1688 1991.22,1688.13 1997.35,1688.17 2003.48,1688.17 2009.61,1688.18 2015.74,1688.18 2021.87,1688.19 2028,1688.21 2034.13,1688.21 2040.26,1688.17 2046.39,1688.18 2052.52,1688.21 2058.66,1688.18 2064.79,1688.15 2070.92,1688.15 2077.05,1688.21 2083.18,1688.25 2089.31,1688.26 2095.44,1688.25 2101.57,1688.29 2107.7,1688.33 2113.83,1688.38 2119.96,1688.36 2126.09,1688.37 2132.22,1688.36 2138.35,1688.4 2144.48,1688.34 2150.61,1688.34 2156.74,1688.34 2162.88,1688.37 2169.01,1688.36 2175.14,1688.38 2181.27,1688.34 2187.4,1688.36 2193.53,1688.34 2199.66,1688.36 2205.79,1688.36 2211.92,1688.37 2218.05,1688.47 2224.18,1688.52 2230.31,1688.51 2236.44,1688.48 2242.57,1688.47 2248.7,1688.37 2254.83,1688.38 2260.97,1688.45 2267.1,1688.42 2273.23,1688.37 2279.36,1688.33 2285.49,1688.37 2291.62,1688.4 2297.75,1688.4 2303.88,1688.41 2310.01,1688.45 2316.14,1688.48 2322.27,1688.42 2328.4,1688.47 2334.53,1688.47 2340.66,1688.47 2346.79,1688.45 2352.92,1688.48 2359.05,1688.47 2365.19,1688.44 2371.32,1688.44 2377.45,1688.4 2383.58,1688.4 2389.71,1688.38 2395.84,1688.34 2401.97,1688.33 2408.1,1688.34 2414.23,1688.36 2420.36,1688.33 2426.49,1688.33 2432.62,1688.33 2438.75,1688.37 2444.88,1688.38 2451.01,1688.41 2457.14,1688.41 2463.27,1688.4 2469.41,1688.37 2475.54,1688.4 2481.67,1688.4 2487.8,1688.42 2493.93,1688.34 2500.06,1688.38 2506.19,1688.41 2512.32,1688.41 2518.45,1688.4 2524.58,1688.42 2530.71,1688.44 2536.84,1688.44 2542.97,1688.44 2549.1,1688.48 2555.23,1688.47 2561.36,1688.48 2567.5,1688.47 2573.63,1688.45 "/>
<polyline clip-path="url(#clip631)" style="stroke:#008000; stroke-linecap:round; stroke-linejoin:round; stroke-width:8; stroke-opacity:1; fill:none" points="335.956,1684.59 342.086,1685.09 348.217,1685.56 354.347,1685.96 360.478,1686.31 366.609,1686.59 372.739,1683.59 378.87,1681.26 385,1679.43 391.131,1678.17 397.262,1677.3 403.392,1676.54 409.523,1674.52 415.653,1672.27 421.784,1669.61 427.915,1667.09 434.045,1663.99 440.176,1661.59 446.306,1658.38 452.437,1655.22 458.568,1651.04 464.698,1646.74 470.829,1641.57 476.959,1637.3 483.09,1631.69 489.221,1625.66 495.351,1619.61 501.482,1612.06 507.613,1604.68 513.743,1596.18 519.874,1587.27 526.004,1578.87 532.135,1568.68 538.266,1557.48 544.396,1545.16 550.527,1530.82 556.657,1516.66 562.788,1501.42 568.919,1483.29 575.049,1465.45 581.18,1445.97 587.31,1426.73 593.441,1404.86 599.572,1380.35 605.702,1357.07 611.833,1329.91 617.963,1304.22 624.094,1274.69 630.225,1244.84 636.355,1215.2 642.486,1181.95 648.616,1147.5 654.747,1109.35 660.878,1070.54 667.008,1033.63 673.139,995.941 679.269,957.496 685.4,919.214 691.531,880.904 697.661,843.26 703.792,802.888 709.922,764.701 716.053,725.388 722.184,689.548 728.314,661.006 734.445,632.124 740.575,609.077 746.706,583.763 752.837,565.409 758.967,548.248 765.098,540.774 771.228,535.497 777.359,537.437 783.49,540.475 789.62,547.299 795.751,557.419 801.881,573.575 808.012,594.154 814.143,616.877 820.273,644.211 826.404,675.114 832.534,705.297 838.665,738.954 844.796,776.028 850.926,815.192 857.057,853.054 863.187,893.086 869.318,931.83 875.449,972.065 881.579,1010.42 887.71,1048.59 893.841,1085.8 899.971,1121.94 906.102,1156.49 912.232,1189.13 918.363,1222.77 924.494,1255.17 930.624,1284.96 936.755,1313.57 942.885,1340.86 949.016,1365.1 955.147,1391.09 961.277,1413.3 967.408,1433 973.538,1451.95 979.669,1470.87 985.8,1487.57 991.93,1504.27 998.061,1518.87 1004.19,1532.83 1010.32,1545.29 1016.45,1557.39 1022.58,1568.02 1028.71,1577.31 1034.84,1585.96 1040.97,1594.28 1047.11,1602.19 1053.24,1609.68 1059.37,1615.51 1065.5,1621.83 1071.63,1627.35 1077.76,1632.24 1083.89,1637.09 1090.02,1641.28 1096.15,1645.1 1102.28,1649 1108.41,1652.71 1114.54,1655.68 1120.67,1658.61 1126.8,1661.18 1132.93,1663.52 1139.06,1665.66 1145.2,1667.57 1151.33,1669.41 1157.46,1670.75 1163.59,1672.19 1169.72,1673.33 1175.85,1674.26 1181.98,1675.14 1188.11,1676.65 1194.24,1677.46 1200.37,1678.11 1206.5,1678.85 1212.63,1679.43 1218.76,1679.81 1224.89,1680.3 1231.02,1680.66 1237.15,1680.91 1243.28,1681.47 1249.42,1681.82 1255.55,1682.24 1261.68,1682.51 1267.81,1682.59 1273.94,1682.69 1280.07,1682.81 1286.2,1683.03 1292.33,1683.15 1298.46,1683.46 1304.59,1683.69 1310.72,1683.68 1316.85,1683.49 1322.98,1683.55 1329.11,1683.77 1335.24,1683.7 1341.37,1683.76 1347.51,1683.97 1353.64,1683.74 1359.77,1684.11 1365.9,1684.12 1372.03,1684.18 1378.16,1684.27 1384.29,1684.41 1390.42,1684.65 1396.55,1684.68 1402.68,1684.91 1408.81,1685.11 1414.94,1685.13 1421.07,1685.26 1427.2,1685.34 1433.33,1685.56 1439.46,1685.67 1445.59,1685.56 1451.73,1685.59 1457.86,1685.58 1463.99,1685.47 1470.12,1685.43 1476.25,1685.59 1482.38,1685.83 1488.51,1685.83 1494.64,1685.94 1500.77,1686.06 1506.9,1686.05 1513.03,1686.05 1519.16,1686 1525.29,1686.27 1531.42,1686.2 1537.55,1686.09 1543.68,1686.08 1549.82,1686.05 1555.95,1686.1 1562.08,1686.15 1568.21,1686.05 1574.34,1686.05 1580.47,1686.15 1586.6,1686.2 1592.73,1686.2 1598.86,1686.32 1604.99,1686.44 1611.12,1686.47 1617.25,1686.5 1623.38,1686.5 1629.51,1686.61 1635.64,1686.51 1641.77,1686.51 1647.9,1686.42 1654.04,1686.42 1660.17,1686.47 1666.3,1686.65 1672.43,1686.72 1678.56,1686.63 1684.69,1686.67 1690.82,1686.81 1696.95,1686.86 1703.08,1686.99 1709.21,1686.96 1715.34,1686.86 1721.47,1686.82 1727.6,1686.92 1733.73,1686.92 1739.86,1687.12 1745.99,1687.2 1752.12,1687.23 1758.26,1687.24 1764.39,1687.27 1770.52,1687.26 1776.65,1687.28 1782.78,1687.34 1788.91,1687.38 1795.04,1687.56 1801.17,1687.61 1807.3,1687.62 1813.43,1687.72 1819.56,1687.79 1825.69,1687.8 1831.82,1687.87 1837.95,1687.91 1844.08,1687.98 1850.21,1688 1856.35,1688.03 1862.48,1688.06 1868.61,1688.11 1874.74,1688.13 1880.87,1688.15 1887,1688.18 1893.13,1688.22 1899.26,1688.26 1905.39,1688.28 1911.52,1688.3 1917.65,1688.34 1923.78,1688.36 1929.91,1688.38 1936.04,1688.4 1942.17,1688.42 1948.3,1688.42 1954.43,1688.41 1960.57,1688.44 1966.7,1688.42 1972.83,1688.41 1978.96,1688.45 1985.09,1688.47 1991.22,1688.47 1997.35,1688.52 2003.48,1688.55 2009.61,1688.53 2015.74,1688.56 2021.87,1688.55 2028,1688.53 2034.13,1688.53 2040.26,1688.53 2046.39,1688.56 2052.52,1688.52 2058.66,1688.51 2064.79,1688.52 2070.92,1688.52 2077.05,1688.51 2083.18,1688.53 2089.31,1688.53 2095.44,1688.57 2101.57,1688.6 2107.7,1688.61 2113.83,1688.6 2119.96,1688.6 2126.09,1688.57 2132.22,1688.57 2138.35,1688.59 2144.48,1688.57 2150.61,1688.57 2156.74,1688.57 2162.88,1688.56 2169.01,1688.56 2175.14,1688.56 2181.27,1688.56 2187.4,1688.59 2193.53,1688.56 2199.66,1688.6 2205.79,1688.56 2211.92,1688.57 2218.05,1688.59 2224.18,1688.59 2230.31,1688.6 2236.44,1688.63 2242.57,1688.61 2248.7,1688.6 2254.83,1688.6 2260.97,1688.59 2267.1,1688.6 2273.23,1688.57 2279.36,1688.59 2285.49,1688.59 2291.62,1688.61 2297.75,1688.57 2303.88,1688.6 2310.01,1688.61 2316.14,1688.61 2322.27,1688.59 2328.4,1688.59 2334.53,1688.59 2340.66,1688.57 2346.79,1688.6 2352.92,1688.6 2359.05,1688.59 2365.19,1688.59 2371.32,1688.57 2377.45,1688.56 2383.58,1688.59 2389.71,1688.6 2395.84,1688.6 2401.97,1688.6 2408.1,1688.6 2414.23,1688.6 2420.36,1688.59 2426.49,1688.59 2432.62,1688.6 2438.75,1688.59 2444.88,1688.59 2451.01,1688.57 2457.14,1688.59 2463.27,1688.59 2469.41,1688.59 2475.54,1688.59 2481.67,1688.57 2487.8,1688.55 2493.93,1688.53 2500.06,1688.56 2506.19,1688.53 2512.32,1688.53 2518.45,1688.53 2524.58,1688.53 2530.71,1688.56 2536.84,1688.59 2542.97,1688.59 2549.1,1688.6 2555.23,1688.6 2561.36,1688.6 2567.5,1688.61 2573.63,1688.63 "/>
<path clip-path="url(#clip630)" d="M1967.74 388.696 L2561.69 388.696 L2561.69 181.336 L1967.74 181.336  Z" fill="#ffffff" fill-rule="evenodd" fill-opacity="1"/>
<polyline clip-path="url(#clip630)" style="stroke:#000000; stroke-linecap:round; stroke-linejoin:round; stroke-width:4; stroke-opacity:1; fill:none" points="1967.74,388.696 2561.69,388.696 2561.69,181.336 1967.74,181.336 1967.74,388.696 "/>
<polyline clip-path="url(#clip630)" style="stroke:#0000ff; stroke-linecap:round; stroke-linejoin:round; stroke-width:8; stroke-opacity:1; fill:none" points="1994.1,233.176 2152.22,233.176 "/>
<path clip-path="url(#clip630)" d="M2206.45 218.558 L2206.45 223.489 Q2204.09 221.29 2201.4 220.202 Q2198.74 219.114 2195.73 219.114 Q2189.81 219.114 2186.66 222.748 Q2183.51 226.359 2183.51 233.211 Q2183.51 240.04 2186.66 243.674 Q2189.81 247.285 2195.73 247.285 Q2198.74 247.285 2201.4 246.197 Q2204.09 245.109 2206.45 242.91 L2206.45 247.794 Q2204 249.461 2201.24 250.294 Q2198.51 251.128 2195.45 251.128 Q2187.61 251.128 2183.09 246.336 Q2178.58 241.521 2178.58 233.211 Q2178.58 224.878 2183.09 220.086 Q2187.61 215.271 2195.45 215.271 Q2198.56 215.271 2201.29 216.105 Q2204.04 216.915 2206.45 218.558 Z" fill="#000000" fill-rule="nonzero" fill-opacity="1" /><path clip-path="url(#clip630)" d="M2235.04 234.808 L2235.04 250.456 L2230.78 250.456 L2230.78 234.947 Q2230.78 231.267 2229.34 229.438 Q2227.91 227.609 2225.04 227.609 Q2221.59 227.609 2219.6 229.808 Q2217.61 232.007 2217.61 235.804 L2217.61 250.456 L2213.32 250.456 L2213.32 214.438 L2217.61 214.438 L2217.61 228.558 Q2219.13 226.22 2221.19 225.063 Q2223.28 223.906 2225.99 223.906 Q2230.45 223.906 2232.75 226.683 Q2235.04 229.438 2235.04 234.808 Z" fill="#000000" fill-rule="nonzero" fill-opacity="1" /><path clip-path="url(#clip630)" d="M2243.53 224.531 L2247.79 224.531 L2247.79 250.456 L2243.53 250.456 L2243.53 224.531 M2243.53 214.438 L2247.79 214.438 L2247.79 219.831 L2243.53 219.831 L2243.53 214.438 Z" fill="#000000" fill-rule="nonzero" fill-opacity="1" /><path clip-path="url(#clip630)" d="M2256.7 214.438 L2260.96 214.438 L2260.96 250.456 L2256.7 250.456 L2256.7 214.438 Z" fill="#000000" fill-rule="nonzero" fill-opacity="1" /><path clip-path="url(#clip630)" d="M2286.94 228.466 L2286.94 214.438 L2291.19 214.438 L2291.19 250.456 L2286.94 250.456 L2286.94 246.567 Q2285.59 248.882 2283.53 250.016 Q2281.5 251.128 2278.63 251.128 Q2273.93 251.128 2270.96 247.378 Q2268.02 243.628 2268.02 237.517 Q2268.02 231.405 2270.96 227.655 Q2273.93 223.906 2278.63 223.906 Q2281.5 223.906 2283.53 225.04 Q2285.59 226.151 2286.94 228.466 M2272.42 237.517 Q2272.42 242.216 2274.34 244.901 Q2276.29 247.563 2279.67 247.563 Q2283.05 247.563 2284.99 244.901 Q2286.94 242.216 2286.94 237.517 Q2286.94 232.817 2284.99 230.155 Q2283.05 227.47 2279.67 227.47 Q2276.29 227.47 2274.34 230.155 Q2272.42 232.817 2272.42 237.517 Z" fill="#000000" fill-rule="nonzero" fill-opacity="1" /><path clip-path="url(#clip630)" d="M2314.99 228.512 Q2314.27 228.095 2313.42 227.91 Q2312.58 227.702 2311.56 227.702 Q2307.95 227.702 2306.01 230.063 Q2304.09 232.401 2304.09 236.799 L2304.09 250.456 L2299.81 250.456 L2299.81 224.531 L2304.09 224.531 L2304.09 228.558 Q2305.43 226.197 2307.58 225.063 Q2309.74 223.906 2312.81 223.906 Q2313.25 223.906 2313.79 223.975 Q2314.32 224.021 2314.97 224.137 L2314.99 228.512 Z" fill="#000000" fill-rule="nonzero" fill-opacity="1" /><path clip-path="url(#clip630)" d="M2340.59 236.429 L2340.59 238.512 L2321.01 238.512 Q2321.29 242.91 2323.65 245.225 Q2326.03 247.516 2330.27 247.516 Q2332.72 247.516 2335.01 246.915 Q2337.33 246.313 2339.6 245.109 L2339.6 249.137 Q2337.31 250.109 2334.9 250.618 Q2332.49 251.128 2330.01 251.128 Q2323.81 251.128 2320.18 247.516 Q2316.56 243.905 2316.56 237.748 Q2316.56 231.382 2319.99 227.655 Q2323.44 223.906 2329.27 223.906 Q2334.5 223.906 2337.54 227.285 Q2340.59 230.642 2340.59 236.429 M2336.33 235.179 Q2336.29 231.683 2334.37 229.6 Q2332.47 227.517 2329.32 227.517 Q2325.75 227.517 2323.6 229.53 Q2321.47 231.544 2321.15 235.202 L2336.33 235.179 Z" fill="#000000" fill-rule="nonzero" fill-opacity="1" /><path clip-path="url(#clip630)" d="M2369.13 234.808 L2369.13 250.456 L2364.87 250.456 L2364.87 234.947 Q2364.87 231.267 2363.44 229.438 Q2362 227.609 2359.13 227.609 Q2355.68 227.609 2353.69 229.808 Q2351.7 232.007 2351.7 235.804 L2351.7 250.456 L2347.42 250.456 L2347.42 224.531 L2351.7 224.531 L2351.7 228.558 Q2353.23 226.22 2355.29 225.063 Q2357.37 223.906 2360.08 223.906 Q2364.55 223.906 2366.84 226.683 Q2369.13 229.438 2369.13 234.808 Z" fill="#000000" fill-rule="nonzero" fill-opacity="1" /><path clip-path="url(#clip630)" d="M2402.93 214.484 Q2399.83 219.808 2398.32 225.017 Q2396.82 230.225 2396.82 235.572 Q2396.82 240.919 2398.32 246.174 Q2399.85 251.405 2402.93 256.706 L2399.23 256.706 Q2395.75 251.266 2394.02 246.012 Q2392.31 240.757 2392.31 235.572 Q2392.31 230.41 2394.02 225.179 Q2395.73 219.947 2399.23 214.484 L2402.93 214.484 Z" fill="#000000" fill-rule="nonzero" fill-opacity="1" /><path clip-path="url(#clip630)" d="M2421.8 218.975 Q2418.18 218.975 2416.36 222.54 Q2414.55 226.081 2414.55 233.211 Q2414.55 240.317 2416.36 243.882 Q2418.18 247.424 2421.8 247.424 Q2425.43 247.424 2427.24 243.882 Q2429.06 240.317 2429.06 233.211 Q2429.06 226.081 2427.24 222.54 Q2425.43 218.975 2421.8 218.975 M2421.8 215.271 Q2427.61 215.271 2430.66 219.878 Q2433.74 224.461 2433.74 233.211 Q2433.74 241.938 2430.66 246.544 Q2427.61 251.128 2421.8 251.128 Q2415.99 251.128 2412.91 246.544 Q2409.85 241.938 2409.85 233.211 Q2409.85 224.461 2412.91 219.878 Q2415.99 215.271 2421.8 215.271 Z" fill="#000000" fill-rule="nonzero" fill-opacity="1" /><path clip-path="url(#clip630)" d="M2439.2 235.804 L2458.28 235.804 L2458.28 239.137 L2439.2 239.137 L2439.2 235.804 Z" fill="#000000" fill-rule="nonzero" fill-opacity="1" /><path clip-path="url(#clip630)" d="M2466.47 246.521 L2474.11 246.521 L2474.11 220.156 L2465.8 221.822 L2465.8 217.563 L2474.06 215.896 L2478.74 215.896 L2478.74 246.521 L2486.38 246.521 L2486.38 250.456 L2466.47 250.456 L2466.47 246.521 Z" fill="#000000" fill-rule="nonzero" fill-opacity="1" /><path clip-path="url(#clip630)" d="M2508.67 219.97 L2496.86 238.419 L2508.67 238.419 L2508.67 219.97 M2507.44 215.896 L2513.32 215.896 L2513.32 238.419 L2518.25 238.419 L2518.25 242.308 L2513.32 242.308 L2513.32 250.456 L2508.67 250.456 L2508.67 242.308 L2493.07 242.308 L2493.07 237.794 L2507.44 215.896 Z" fill="#000000" fill-rule="nonzero" fill-opacity="1" /><path clip-path="url(#clip630)" d="M2524.71 214.484 L2528.42 214.484 Q2531.89 219.947 2533.6 225.179 Q2535.34 230.41 2535.34 235.572 Q2535.34 240.757 2533.6 246.012 Q2531.89 251.266 2528.42 256.706 L2524.71 256.706 Q2527.79 251.405 2529.3 246.174 Q2530.82 240.919 2530.82 235.572 Q2530.82 230.225 2529.3 225.017 Q2527.79 219.808 2524.71 214.484 Z" fill="#000000" fill-rule="nonzero" fill-opacity="1" /><polyline clip-path="url(#clip630)" style="stroke:#ff0000; stroke-linecap:round; stroke-linejoin:round; stroke-width:8; stroke-opacity:1; fill:none" points="1994.1,285.016 2152.22,285.016 "/>
<path clip-path="url(#clip630)" d="M2194.41 272.343 L2188.07 289.542 L2200.78 289.542 L2194.41 272.343 M2191.77 267.736 L2197.07 267.736 L2210.25 302.296 L2205.38 302.296 L2202.24 293.431 L2186.66 293.431 L2183.51 302.296 L2178.58 302.296 L2191.77 267.736 Z" fill="#000000" fill-rule="nonzero" fill-opacity="1" /><path clip-path="url(#clip630)" d="M2231.33 280.306 L2231.33 266.278 L2235.59 266.278 L2235.59 302.296 L2231.33 302.296 L2231.33 298.407 Q2229.99 300.722 2227.93 301.856 Q2225.89 302.968 2223.02 302.968 Q2218.32 302.968 2215.36 299.218 Q2212.42 295.468 2212.42 289.357 Q2212.42 283.245 2215.36 279.495 Q2218.32 275.746 2223.02 275.746 Q2225.89 275.746 2227.93 276.88 Q2229.99 277.991 2231.33 280.306 M2216.82 289.357 Q2216.82 294.056 2218.74 296.741 Q2220.69 299.403 2224.07 299.403 Q2227.44 299.403 2229.39 296.741 Q2231.33 294.056 2231.33 289.357 Q2231.33 284.657 2229.39 281.995 Q2227.44 279.31 2224.07 279.31 Q2220.69 279.31 2218.74 281.995 Q2216.82 284.657 2216.82 289.357 Z" fill="#000000" fill-rule="nonzero" fill-opacity="1" /><path clip-path="url(#clip630)" d="M2243.93 292.065 L2243.93 276.371 L2248.19 276.371 L2248.19 291.903 Q2248.19 295.583 2249.62 297.435 Q2251.06 299.264 2253.93 299.264 Q2257.38 299.264 2259.37 297.065 Q2261.38 294.866 2261.38 291.069 L2261.38 276.371 L2265.64 276.371 L2265.64 302.296 L2261.38 302.296 L2261.38 298.315 Q2259.83 300.676 2257.77 301.833 Q2255.73 302.968 2253.02 302.968 Q2248.56 302.968 2246.24 300.19 Q2243.93 297.412 2243.93 292.065 M2254.64 275.746 L2254.64 275.746 Z" fill="#000000" fill-rule="nonzero" fill-opacity="1" /><path clip-path="url(#clip630)" d="M2274.41 266.278 L2278.67 266.278 L2278.67 302.296 L2274.41 302.296 L2274.41 266.278 Z" fill="#000000" fill-rule="nonzero" fill-opacity="1" /><path clip-path="url(#clip630)" d="M2291.8 269.009 L2291.8 276.371 L2300.57 276.371 L2300.57 279.681 L2291.8 279.681 L2291.8 293.755 Q2291.8 296.926 2292.65 297.829 Q2293.53 298.731 2296.19 298.731 L2300.57 298.731 L2300.57 302.296 L2296.19 302.296 Q2291.26 302.296 2289.39 300.468 Q2287.51 298.616 2287.51 293.755 L2287.51 279.681 L2284.39 279.681 L2284.39 276.371 L2287.51 276.371 L2287.51 269.009 L2291.8 269.009 Z" fill="#000000" fill-rule="nonzero" fill-opacity="1" /><path clip-path="url(#clip630)" d="M2322.7 277.134 L2322.7 281.162 Q2320.89 280.236 2318.95 279.773 Q2317 279.31 2314.92 279.31 Q2311.75 279.31 2310.15 280.283 Q2308.58 281.255 2308.58 283.199 Q2308.58 284.681 2309.71 285.537 Q2310.85 286.37 2314.27 287.134 L2315.73 287.458 Q2320.27 288.431 2322.17 290.213 Q2324.09 291.972 2324.09 295.144 Q2324.09 298.755 2321.22 300.861 Q2318.37 302.968 2313.37 302.968 Q2311.29 302.968 2309.02 302.551 Q2306.77 302.157 2304.27 301.347 L2304.27 296.949 Q2306.63 298.176 2308.93 298.801 Q2311.22 299.403 2313.46 299.403 Q2316.47 299.403 2318.09 298.384 Q2319.71 297.343 2319.71 295.468 Q2319.71 293.732 2318.53 292.806 Q2317.37 291.88 2313.42 291.023 L2311.94 290.676 Q2307.98 289.843 2306.22 288.13 Q2304.46 286.394 2304.46 283.384 Q2304.46 279.727 2307.05 277.736 Q2309.64 275.746 2314.41 275.746 Q2316.77 275.746 2318.86 276.093 Q2320.94 276.44 2322.7 277.134 Z" fill="#000000" fill-rule="nonzero" fill-opacity="1" /><path clip-path="url(#clip630)" d="M2356.17 266.324 Q2353.07 271.648 2351.56 276.857 Q2350.06 282.065 2350.06 287.412 Q2350.06 292.759 2351.56 298.014 Q2353.09 303.245 2356.17 308.546 L2352.47 308.546 Q2349 303.106 2347.26 297.852 Q2345.55 292.597 2345.55 287.412 Q2345.55 282.25 2347.26 277.019 Q2348.97 271.787 2352.47 266.324 L2356.17 266.324 Z" fill="#000000" fill-rule="nonzero" fill-opacity="1" /><path clip-path="url(#clip630)" d="M2365.85 298.361 L2373.49 298.361 L2373.49 271.996 L2365.18 273.662 L2365.18 269.403 L2373.44 267.736 L2378.12 267.736 L2378.12 298.361 L2385.75 298.361 L2385.75 302.296 L2365.85 302.296 L2365.85 298.361 Z" fill="#000000" fill-rule="nonzero" fill-opacity="1" /><path clip-path="url(#clip630)" d="M2395.24 267.736 L2413.6 267.736 L2413.6 271.671 L2399.53 271.671 L2399.53 280.144 Q2400.55 279.796 2401.56 279.634 Q2402.58 279.449 2403.6 279.449 Q2409.39 279.449 2412.77 282.62 Q2416.15 285.792 2416.15 291.208 Q2416.15 296.787 2412.68 299.889 Q2409.2 302.968 2402.88 302.968 Q2400.71 302.968 2398.44 302.597 Q2396.19 302.227 2393.79 301.486 L2393.79 296.787 Q2395.87 297.921 2398.09 298.477 Q2400.31 299.032 2402.79 299.032 Q2406.8 299.032 2409.13 296.926 Q2411.47 294.819 2411.47 291.208 Q2411.47 287.597 2409.13 285.491 Q2406.8 283.384 2402.79 283.384 Q2400.92 283.384 2399.04 283.801 Q2397.19 284.218 2395.24 285.097 L2395.24 267.736 Z" fill="#000000" fill-rule="nonzero" fill-opacity="1" /><path clip-path="url(#clip630)" d="M2422.61 287.644 L2441.68 287.644 L2441.68 290.977 L2422.61 290.977 L2422.61 287.644 Z" fill="#000000" fill-rule="nonzero" fill-opacity="1" /><path clip-path="url(#clip630)" d="M2459.64 283.153 Q2456.49 283.153 2454.64 285.306 Q2452.81 287.458 2452.81 291.208 Q2452.81 294.935 2454.64 297.111 Q2456.49 299.264 2459.64 299.264 Q2462.79 299.264 2464.62 297.111 Q2466.47 294.935 2466.47 291.208 Q2466.47 287.458 2464.62 285.306 Q2462.79 283.153 2459.64 283.153 M2468.93 268.5 L2468.93 272.759 Q2467.17 271.926 2465.36 271.486 Q2463.58 271.046 2461.82 271.046 Q2457.19 271.046 2454.74 274.171 Q2452.3 277.296 2451.96 283.616 Q2453.32 281.602 2455.38 280.537 Q2457.44 279.449 2459.92 279.449 Q2465.13 279.449 2468.14 282.62 Q2471.17 285.769 2471.17 291.208 Q2471.17 296.532 2468.02 299.75 Q2464.87 302.968 2459.64 302.968 Q2453.65 302.968 2450.48 298.384 Q2447.3 293.778 2447.3 285.051 Q2447.3 276.857 2451.19 271.996 Q2455.08 267.111 2461.63 267.111 Q2463.39 267.111 2465.18 267.459 Q2466.98 267.806 2468.93 268.5 Z" fill="#000000" fill-rule="nonzero" fill-opacity="1" /><path clip-path="url(#clip630)" d="M2492.07 271.81 L2480.27 290.259 L2492.07 290.259 L2492.07 271.81 M2490.85 267.736 L2496.73 267.736 L2496.73 290.259 L2501.66 290.259 L2501.66 294.148 L2496.73 294.148 L2496.73 302.296 L2492.07 302.296 L2492.07 294.148 L2476.47 294.148 L2476.47 289.634 L2490.85 267.736 Z" fill="#000000" fill-rule="nonzero" fill-opacity="1" /><path clip-path="url(#clip630)" d="M2508.11 266.324 L2511.82 266.324 Q2515.29 271.787 2517 277.019 Q2518.74 282.25 2518.74 287.412 Q2518.74 292.597 2517 297.852 Q2515.29 303.106 2511.82 308.546 L2508.11 308.546 Q2511.19 303.245 2512.7 298.014 Q2514.23 292.759 2514.23 287.412 Q2514.23 282.065 2512.7 276.857 Q2511.19 271.648 2508.11 266.324 Z" fill="#000000" fill-rule="nonzero" fill-opacity="1" /><polyline clip-path="url(#clip630)" style="stroke:#008000; stroke-linecap:round; stroke-linejoin:round; stroke-width:8; stroke-opacity:1; fill:none" points="1994.1,336.856 2152.22,336.856 "/>
<path clip-path="url(#clip630)" d="M2178.58 319.576 L2200.43 319.576 L2200.43 323.511 L2183.26 323.511 L2183.26 333.743 L2199.71 333.743 L2199.71 337.678 L2183.26 337.678 L2183.26 350.201 L2200.85 350.201 L2200.85 354.136 L2178.58 354.136 L2178.58 319.576 Z" fill="#000000" fill-rule="nonzero" fill-opacity="1" /><path clip-path="url(#clip630)" d="M2208.35 318.118 L2212.61 318.118 L2212.61 354.136 L2208.35 354.136 L2208.35 318.118 Z" fill="#000000" fill-rule="nonzero" fill-opacity="1" /><path clip-path="url(#clip630)" d="M2238.58 332.146 L2238.58 318.118 L2242.84 318.118 L2242.84 354.136 L2238.58 354.136 L2238.58 350.247 Q2237.24 352.562 2235.18 353.696 Q2233.14 354.808 2230.27 354.808 Q2225.57 354.808 2222.61 351.058 Q2219.67 347.308 2219.67 341.197 Q2219.67 335.085 2222.61 331.335 Q2225.57 327.586 2230.27 327.586 Q2233.14 327.586 2235.18 328.72 Q2237.24 329.831 2238.58 332.146 M2224.07 341.197 Q2224.07 345.896 2225.99 348.581 Q2227.93 351.243 2231.31 351.243 Q2234.69 351.243 2236.63 348.581 Q2238.58 345.896 2238.58 341.197 Q2238.58 336.497 2236.63 333.835 Q2234.69 331.15 2231.31 331.15 Q2227.93 331.15 2225.99 333.835 Q2224.07 336.497 2224.07 341.197 Z" fill="#000000" fill-rule="nonzero" fill-opacity="1" /><path clip-path="url(#clip630)" d="M2273.79 340.109 L2273.79 342.192 L2254.2 342.192 Q2254.48 346.59 2256.84 348.905 Q2259.23 351.196 2263.46 351.196 Q2265.92 351.196 2268.21 350.595 Q2270.52 349.993 2272.79 348.789 L2272.79 352.817 Q2270.5 353.789 2268.09 354.298 Q2265.69 354.808 2263.21 354.808 Q2257 354.808 2253.37 351.196 Q2249.76 347.585 2249.76 341.428 Q2249.76 335.062 2253.19 331.335 Q2256.63 327.586 2262.47 327.586 Q2267.7 327.586 2270.73 330.965 Q2273.79 334.322 2273.79 340.109 M2269.53 338.859 Q2269.48 335.363 2267.56 333.28 Q2265.66 331.197 2262.51 331.197 Q2258.95 331.197 2256.8 333.21 Q2254.67 335.224 2254.34 338.882 L2269.53 338.859 Z" fill="#000000" fill-rule="nonzero" fill-opacity="1" /><path clip-path="url(#clip630)" d="M2295.8 332.192 Q2295.08 331.775 2294.23 331.59 Q2293.39 331.382 2292.38 331.382 Q2288.76 331.382 2286.82 333.743 Q2284.9 336.081 2284.9 340.479 L2284.9 354.136 L2280.62 354.136 L2280.62 328.211 L2284.9 328.211 L2284.9 332.238 Q2286.24 329.877 2288.39 328.743 Q2290.55 327.586 2293.63 327.586 Q2294.06 327.586 2294.6 327.655 Q2295.13 327.701 2295.78 327.817 L2295.8 332.192 Z" fill="#000000" fill-rule="nonzero" fill-opacity="1" /><path clip-path="url(#clip630)" d="M2300.27 318.118 L2304.53 318.118 L2304.53 354.136 L2300.27 354.136 L2300.27 318.118 Z" fill="#000000" fill-rule="nonzero" fill-opacity="1" /><path clip-path="url(#clip630)" d="M2324.23 356.544 Q2322.42 361.173 2320.71 362.585 Q2319 363.997 2316.12 363.997 L2312.72 363.997 L2312.72 360.433 L2315.22 360.433 Q2316.98 360.433 2317.95 359.599 Q2318.93 358.766 2320.11 355.664 L2320.87 353.72 L2310.38 328.211 L2314.9 328.211 L2323 348.488 L2331.1 328.211 L2335.62 328.211 L2324.23 356.544 Z" fill="#000000" fill-rule="nonzero" fill-opacity="1" /><path clip-path="url(#clip630)" d="M2366.8 318.164 Q2363.69 323.488 2362.19 328.697 Q2360.68 333.905 2360.68 339.252 Q2360.68 344.599 2362.19 349.854 Q2363.72 355.085 2366.8 360.386 L2363.09 360.386 Q2359.62 354.946 2357.88 349.692 Q2356.17 344.437 2356.17 339.252 Q2356.17 334.09 2357.88 328.859 Q2359.6 323.627 2363.09 318.164 L2366.8 318.164 Z" fill="#000000" fill-rule="nonzero" fill-opacity="1" /><path clip-path="url(#clip630)" d="M2386.24 334.993 Q2383.09 334.993 2381.24 337.146 Q2379.41 339.298 2379.41 343.048 Q2379.41 346.775 2381.24 348.951 Q2383.09 351.104 2386.24 351.104 Q2389.39 351.104 2391.22 348.951 Q2393.07 346.775 2393.07 343.048 Q2393.07 339.298 2391.22 337.146 Q2389.39 334.993 2386.24 334.993 M2395.52 320.34 L2395.52 324.599 Q2393.76 323.766 2391.96 323.326 Q2390.18 322.886 2388.42 322.886 Q2383.79 322.886 2381.33 326.011 Q2378.9 329.136 2378.56 335.456 Q2379.92 333.442 2381.98 332.377 Q2384.04 331.289 2386.52 331.289 Q2391.73 331.289 2394.74 334.46 Q2397.77 337.609 2397.77 343.048 Q2397.77 348.372 2394.62 351.59 Q2391.47 354.808 2386.24 354.808 Q2380.25 354.808 2377.07 350.224 Q2373.9 345.618 2373.9 336.891 Q2373.9 328.697 2377.79 323.836 Q2381.68 318.951 2388.23 318.951 Q2389.99 318.951 2391.77 319.299 Q2393.58 319.646 2395.52 320.34 Z" fill="#000000" fill-rule="nonzero" fill-opacity="1" /><path clip-path="url(#clip630)" d="M2405.87 319.576 L2424.23 319.576 L2424.23 323.511 L2410.15 323.511 L2410.15 331.984 Q2411.17 331.636 2412.19 331.474 Q2413.21 331.289 2414.23 331.289 Q2420.01 331.289 2423.39 334.46 Q2426.77 337.632 2426.77 343.048 Q2426.77 348.627 2423.3 351.729 Q2419.83 354.808 2413.51 354.808 Q2411.33 354.808 2409.06 354.437 Q2406.82 354.067 2404.41 353.326 L2404.41 348.627 Q2406.49 349.761 2408.72 350.317 Q2410.94 350.872 2413.42 350.872 Q2417.42 350.872 2419.76 348.766 Q2422.1 346.659 2422.1 343.048 Q2422.1 339.437 2419.76 337.331 Q2417.42 335.224 2413.42 335.224 Q2411.54 335.224 2409.67 335.641 Q2407.81 336.058 2405.87 336.937 L2405.87 319.576 Z" fill="#000000" fill-rule="nonzero" fill-opacity="1" /><path clip-path="url(#clip630)" d="M2452.72 324.414 L2452.72 337.308 L2465.61 337.308 L2465.61 341.243 L2452.72 341.243 L2452.72 354.136 L2448.83 354.136 L2448.83 341.243 L2435.94 341.243 L2435.94 337.308 L2448.83 337.308 L2448.83 324.414 L2452.72 324.414 Z" fill="#000000" fill-rule="nonzero" fill-opacity="1" /><path clip-path="url(#clip630)" d="M2474.43 318.164 L2478.14 318.164 Q2481.61 323.627 2483.32 328.859 Q2485.06 334.09 2485.06 339.252 Q2485.06 344.437 2483.32 349.692 Q2481.61 354.946 2478.14 360.386 L2474.43 360.386 Q2477.51 355.085 2479.02 349.854 Q2480.55 344.599 2480.55 339.252 Q2480.55 333.905 2479.02 328.697 Q2477.51 323.488 2474.43 318.164 Z" fill="#000000" fill-rule="nonzero" fill-opacity="1" /></svg>
