<?xml version="1.0" encoding="utf-8"?>
<svg xmlns="http://www.w3.org/2000/svg" xmlns:xlink="http://www.w3.org/1999/xlink" width="800" height="400" viewBox="0 0 3200 1600">
<defs>
  <clipPath id="clip590">
    <rect x="0" y="0" width="3200" height="1600"/>
  </clipPath>
</defs>
<path clip-path="url(#clip590)" d="M0 1600 L3200 1600 L3200 0 L0 0  Z" fill="#ffffff" fill-rule="evenodd" fill-opacity="1"/>
<defs>
  <clipPath id="clip591">
    <rect x="335" y="108" width="2818" height="1336"/>
  </clipPath>
</defs>
<path clip-path="url(#clip590)" d="M335.662 1443.7 L3152.76 1443.7 L3152.76 108.352 L335.662 108.352  Z" fill="#ffffff" fill-rule="evenodd" fill-opacity="1"/>
<polyline clip-path="url(#clip591)" style="stroke:#000000; stroke-linecap:round; stroke-linejoin:round; stroke-width:2; stroke-opacity:0.1; fill:none" points="415.391,1443.7 415.391,108.352 "/>
<polyline clip-path="url(#clip591)" style="stroke:#000000; stroke-linecap:round; stroke-linejoin:round; stroke-width:2; stroke-opacity:0.1; fill:none" points="1153.62,1443.7 1153.62,108.352 "/>
<polyline clip-path="url(#clip591)" style="stroke:#000000; stroke-linecap:round; stroke-linejoin:round; stroke-width:2; stroke-opacity:0.1; fill:none" points="1891.86,1443.7 1891.86,108.352 "/>
<polyline clip-path="url(#clip591)" style="stroke:#000000; stroke-linecap:round; stroke-linejoin:round; stroke-width:2; stroke-opacity:0.1; fill:none" points="2630.09,1443.7 2630.09,108.352 "/>
<polyline clip-path="url(#clip591)" style="stroke:#000000; stroke-linecap:round; stroke-linejoin:round; stroke-width:2; stroke-opacity:0.1; fill:none" points="335.662,1405.91 3152.76,1405.91 "/>
<polyline clip-path="url(#clip591)" style="stroke:#000000; stroke-linecap:round; stroke-linejoin:round; stroke-width:2; stroke-opacity:0.1; fill:none" points="335.662,1016.89 3152.76,1016.89 "/>
<polyline clip-path="url(#clip591)" style="stroke:#000000; stroke-linecap:round; stroke-linejoin:round; stroke-width:2; stroke-opacity:0.1; fill:none" points="335.662,627.868 3152.76,627.868 "/>
<polyline clip-path="url(#clip591)" style="stroke:#000000; stroke-linecap:round; stroke-linejoin:round; stroke-width:2; stroke-opacity:0.1; fill:none" points="335.662,238.848 3152.76,238.848 "/>
<polyline clip-path="url(#clip590)" style="stroke:#000000; stroke-linecap:round; stroke-linejoin:round; stroke-width:4; stroke-opacity:1; fill:none" points="335.662,1443.7 3152.76,1443.7 "/>
<polyline clip-path="url(#clip590)" style="stroke:#000000; stroke-linecap:round; stroke-linejoin:round; stroke-width:4; stroke-opacity:1; fill:none" points="415.391,1443.7 415.391,1424.8 "/>
<polyline clip-path="url(#clip590)" style="stroke:#000000; stroke-linecap:round; stroke-linejoin:round; stroke-width:4; stroke-opacity:1; fill:none" points="1153.62,1443.7 1153.62,1424.8 "/>
<polyline clip-path="url(#clip590)" style="stroke:#000000; stroke-linecap:round; stroke-linejoin:round; stroke-width:4; stroke-opacity:1; fill:none" points="1891.86,1443.7 1891.86,1424.8 "/>
<polyline clip-path="url(#clip590)" style="stroke:#000000; stroke-linecap:round; stroke-linejoin:round; stroke-width:4; stroke-opacity:1; fill:none" points="2630.09,1443.7 2630.09,1424.8 "/>
<path clip-path="url(#clip590)" d="M415.391 1481.02 Q411.78 1481.02 409.951 1484.58 Q408.145 1488.12 408.145 1495.25 Q408.145 1502.36 409.951 1505.93 Q411.78 1509.47 415.391 1509.47 Q419.025 1509.47 420.83 1505.93 Q422.659 1502.36 422.659 1495.25 Q422.659 1488.12 420.83 1484.58 Q419.025 1481.02 415.391 1481.02 M415.391 1477.31 Q421.201 1477.31 424.256 1481.92 Q427.335 1486.5 427.335 1495.25 Q427.335 1503.98 424.256 1508.59 Q421.201 1513.17 415.391 1513.17 Q409.58 1513.17 406.502 1508.59 Q403.446 1503.98 403.446 1495.25 Q403.446 1486.5 406.502 1481.92 Q409.58 1477.31 415.391 1477.31 Z" fill="#000000" fill-rule="nonzero" fill-opacity="1" /><path clip-path="url(#clip590)" d="M1128.32 1477.94 L1146.68 1477.94 L1146.68 1481.88 L1132.6 1481.88 L1132.6 1490.35 Q1133.62 1490 1134.64 1489.84 Q1135.66 1489.65 1136.68 1489.65 Q1142.47 1489.65 1145.85 1492.82 Q1149.22 1496 1149.22 1501.41 Q1149.22 1506.99 1145.75 1510.09 Q1142.28 1513.17 1135.96 1513.17 Q1133.79 1513.17 1131.52 1512.8 Q1129.27 1512.43 1126.86 1511.69 L1126.86 1506.99 Q1128.95 1508.12 1131.17 1508.68 Q1133.39 1509.24 1135.87 1509.24 Q1139.87 1509.24 1142.21 1507.13 Q1144.55 1505.02 1144.55 1501.41 Q1144.55 1497.8 1142.21 1495.69 Q1139.87 1493.59 1135.87 1493.59 Q1133.99 1493.59 1132.12 1494 Q1130.27 1494.42 1128.32 1495.3 L1128.32 1477.94 Z" fill="#000000" fill-rule="nonzero" fill-opacity="1" /><path clip-path="url(#clip590)" d="M1168.44 1481.02 Q1164.83 1481.02 1163 1484.58 Q1161.19 1488.12 1161.19 1495.25 Q1161.19 1502.36 1163 1505.93 Q1164.83 1509.47 1168.44 1509.47 Q1172.07 1509.47 1173.88 1505.93 Q1175.71 1502.36 1175.71 1495.25 Q1175.71 1488.12 1173.88 1484.58 Q1172.07 1481.02 1168.44 1481.02 M1168.44 1477.31 Q1174.25 1477.31 1177.3 1481.92 Q1180.38 1486.5 1180.38 1495.25 Q1180.38 1503.98 1177.3 1508.59 Q1174.25 1513.17 1168.44 1513.17 Q1162.63 1513.17 1159.55 1508.59 Q1156.49 1503.98 1156.49 1495.25 Q1156.49 1486.5 1159.55 1481.92 Q1162.63 1477.31 1168.44 1477.31 Z" fill="#000000" fill-rule="nonzero" fill-opacity="1" /><path clip-path="url(#clip590)" d="M1851.46 1508.56 L1859.1 1508.56 L1859.1 1482.2 L1850.79 1483.87 L1850.79 1479.61 L1859.05 1477.94 L1863.73 1477.94 L1863.73 1508.56 L1871.37 1508.56 L1871.37 1512.5 L1851.46 1512.5 L1851.46 1508.56 Z" fill="#000000" fill-rule="nonzero" fill-opacity="1" /><path clip-path="url(#clip590)" d="M1890.81 1481.02 Q1887.2 1481.02 1885.37 1484.58 Q1883.57 1488.12 1883.57 1495.25 Q1883.57 1502.36 1885.37 1505.93 Q1887.2 1509.47 1890.81 1509.47 Q1894.45 1509.47 1896.25 1505.93 Q1898.08 1502.36 1898.08 1495.25 Q1898.08 1488.12 1896.25 1484.58 Q1894.45 1481.02 1890.81 1481.02 M1890.81 1477.31 Q1896.62 1477.31 1899.68 1481.92 Q1902.76 1486.5 1902.76 1495.25 Q1902.76 1503.98 1899.68 1508.59 Q1896.62 1513.17 1890.81 1513.17 Q1885 1513.17 1881.92 1508.59 Q1878.87 1503.98 1878.87 1495.25 Q1878.87 1486.5 1881.92 1481.92 Q1885 1477.31 1890.81 1477.31 Z" fill="#000000" fill-rule="nonzero" fill-opacity="1" /><path clip-path="url(#clip590)" d="M1920.98 1481.02 Q1917.36 1481.02 1915.54 1484.58 Q1913.73 1488.12 1913.73 1495.25 Q1913.73 1502.36 1915.54 1505.93 Q1917.36 1509.47 1920.98 1509.47 Q1924.61 1509.47 1926.42 1505.93 Q1928.24 1502.36 1928.24 1495.25 Q1928.24 1488.12 1926.42 1484.58 Q1924.61 1481.02 1920.98 1481.02 M1920.98 1477.31 Q1926.79 1477.31 1929.84 1481.92 Q1932.92 1486.5 1932.92 1495.25 Q1932.92 1503.98 1929.84 1508.59 Q1926.79 1513.17 1920.98 1513.17 Q1915.17 1513.17 1912.09 1508.59 Q1909.03 1503.98 1909.03 1495.25 Q1909.03 1486.5 1912.09 1481.92 Q1915.17 1477.31 1920.98 1477.31 Z" fill="#000000" fill-rule="nonzero" fill-opacity="1" /><path clip-path="url(#clip590)" d="M2589.69 1508.56 L2597.33 1508.56 L2597.33 1482.2 L2589.02 1483.87 L2589.02 1479.61 L2597.29 1477.94 L2601.96 1477.94 L2601.96 1508.56 L2609.6 1508.56 L2609.6 1512.5 L2589.69 1512.5 L2589.69 1508.56 Z" fill="#000000" fill-rule="nonzero" fill-opacity="1" /><path clip-path="url(#clip590)" d="M2619.09 1477.94 L2637.45 1477.94 L2637.45 1481.88 L2623.37 1481.88 L2623.37 1490.35 Q2624.39 1490 2625.41 1489.84 Q2626.43 1489.65 2627.45 1489.65 Q2633.24 1489.65 2636.62 1492.82 Q2639.99 1496 2639.99 1501.41 Q2639.99 1506.99 2636.52 1510.09 Q2633.05 1513.17 2626.73 1513.17 Q2624.56 1513.17 2622.29 1512.8 Q2620.04 1512.43 2617.63 1511.69 L2617.63 1506.99 Q2619.72 1508.12 2621.94 1508.68 Q2624.16 1509.24 2626.64 1509.24 Q2630.64 1509.24 2632.98 1507.13 Q2635.32 1505.02 2635.32 1501.41 Q2635.32 1497.8 2632.98 1495.69 Q2630.64 1493.59 2626.64 1493.59 Q2624.76 1493.59 2622.89 1494 Q2621.04 1494.42 2619.09 1495.3 L2619.09 1477.94 Z" fill="#000000" fill-rule="nonzero" fill-opacity="1" /><path clip-path="url(#clip590)" d="M2659.21 1481.02 Q2655.6 1481.02 2653.77 1484.58 Q2651.96 1488.12 2651.96 1495.25 Q2651.96 1502.36 2653.77 1505.93 Q2655.6 1509.47 2659.21 1509.47 Q2662.84 1509.47 2664.65 1505.93 Q2666.48 1502.36 2666.48 1495.25 Q2666.48 1488.12 2664.65 1484.58 Q2662.84 1481.02 2659.21 1481.02 M2659.21 1477.31 Q2665.02 1477.31 2668.07 1481.92 Q2671.15 1486.5 2671.15 1495.25 Q2671.15 1503.98 2668.07 1508.59 Q2665.02 1513.17 2659.21 1513.17 Q2653.4 1513.17 2650.32 1508.59 Q2647.26 1503.98 2647.26 1495.25 Q2647.26 1486.5 2650.32 1481.92 Q2653.4 1477.31 2659.21 1477.31 Z" fill="#000000" fill-rule="nonzero" fill-opacity="1" /><path clip-path="url(#clip590)" d="M1690.45 1558.33 L1690.45 1595.28 L1698.22 1595.28 Q1708.05 1595.28 1712.6 1590.82 Q1717.19 1586.37 1717.19 1576.76 Q1717.19 1567.21 1712.6 1562.78 Q1708.05 1558.33 1698.22 1558.33 L1690.45 1558.33 M1684.02 1553.04 L1697.23 1553.04 Q1711.04 1553.04 1717.5 1558.8 Q1723.97 1564.53 1723.97 1576.76 Q1723.97 1589.04 1717.47 1594.8 Q1710.98 1600.56 1697.23 1600.56 L1684.02 1600.56 L1684.02 1553.04 Z" fill="#000000" fill-rule="nonzero" fill-opacity="1" /><path clip-path="url(#clip590)" d="M1750.16 1582.64 Q1743.06 1582.64 1740.33 1584.27 Q1737.59 1585.89 1737.59 1589.81 Q1737.59 1592.92 1739.63 1594.77 Q1741.69 1596.59 1745.23 1596.59 Q1750.1 1596.59 1753.03 1593.15 Q1755.99 1589.68 1755.99 1583.95 L1755.99 1582.64 L1750.16 1582.64 M1761.84 1580.23 L1761.84 1600.56 L1755.99 1600.56 L1755.99 1595.15 Q1753.98 1598.4 1750.99 1599.96 Q1748 1601.49 1743.67 1601.49 Q1738.19 1601.49 1734.95 1598.43 Q1731.73 1595.34 1731.73 1590.19 Q1731.73 1584.17 1735.74 1581.12 Q1739.78 1578.06 1747.77 1578.06 L1755.99 1578.06 L1755.99 1577.49 Q1755.99 1573.45 1753.31 1571.25 Q1750.67 1569.02 1745.86 1569.02 Q1742.81 1569.02 1739.91 1569.75 Q1737.02 1570.49 1734.34 1571.95 L1734.34 1566.54 Q1737.56 1565.3 1740.58 1564.69 Q1743.6 1564.06 1746.47 1564.06 Q1754.2 1564.06 1758.02 1568.07 Q1761.84 1572.08 1761.84 1580.23 Z" fill="#000000" fill-rule="nonzero" fill-opacity="1" /><path clip-path="url(#clip590)" d="M1788.74 1603.87 Q1786.25 1610.24 1783.9 1612.18 Q1781.54 1614.12 1777.6 1614.12 L1772.92 1614.12 L1772.92 1609.22 L1776.36 1609.22 Q1778.77 1609.22 1780.11 1608.08 Q1781.45 1606.93 1783.07 1602.66 L1784.12 1599.99 L1769.7 1564.92 L1775.91 1564.92 L1787.05 1592.8 L1798.19 1564.92 L1804.4 1564.92 L1788.74 1603.87 Z" fill="#000000" fill-rule="nonzero" fill-opacity="1" /><polyline clip-path="url(#clip590)" style="stroke:#000000; stroke-linecap:round; stroke-linejoin:round; stroke-width:4; stroke-opacity:1; fill:none" points="335.662,1443.7 335.662,108.352 "/>
<polyline clip-path="url(#clip590)" style="stroke:#000000; stroke-linecap:round; stroke-linejoin:round; stroke-width:4; stroke-opacity:1; fill:none" points="335.662,1405.91 354.559,1405.91 "/>
<polyline clip-path="url(#clip590)" style="stroke:#000000; stroke-linecap:round; stroke-linejoin:round; stroke-width:4; stroke-opacity:1; fill:none" points="335.662,1016.89 354.559,1016.89 "/>
<polyline clip-path="url(#clip590)" style="stroke:#000000; stroke-linecap:round; stroke-linejoin:round; stroke-width:4; stroke-opacity:1; fill:none" points="335.662,627.868 354.559,627.868 "/>
<polyline clip-path="url(#clip590)" style="stroke:#000000; stroke-linecap:round; stroke-linejoin:round; stroke-width:4; stroke-opacity:1; fill:none" points="335.662,238.848 354.559,238.848 "/>
<path clip-path="url(#clip590)" d="M275.717 1391.71 Q272.106 1391.71 270.277 1395.27 Q268.472 1398.81 268.472 1405.94 Q268.472 1413.05 270.277 1416.61 Q272.106 1420.15 275.717 1420.15 Q279.351 1420.15 281.157 1416.61 Q282.986 1413.05 282.986 1405.94 Q282.986 1398.81 281.157 1395.27 Q279.351 1391.71 275.717 1391.71 M275.717 1388 Q281.527 1388 284.583 1392.61 Q287.662 1397.19 287.662 1405.94 Q287.662 1414.67 284.583 1419.27 Q281.527 1423.86 275.717 1423.86 Q269.907 1423.86 266.828 1419.27 Q263.773 1414.67 263.773 1405.94 Q263.773 1397.19 266.828 1392.61 Q269.907 1388 275.717 1388 Z" fill="#000000" fill-rule="nonzero" fill-opacity="1" /><path clip-path="url(#clip590)" d="M100.788 1036.68 L108.426 1036.68 L108.426 1010.31 L100.116 1011.98 L100.116 1007.72 L108.38 1006.06 L113.056 1006.06 L113.056 1036.68 L120.695 1036.68 L120.695 1040.62 L100.788 1040.62 L100.788 1036.68 Z" fill="#000000" fill-rule="nonzero" fill-opacity="1" /><path clip-path="url(#clip590)" d="M130.139 1034.74 L135.023 1034.74 L135.023 1040.62 L130.139 1040.62 L130.139 1034.74 Z" fill="#000000" fill-rule="nonzero" fill-opacity="1" /><path clip-path="url(#clip590)" d="M155.209 1009.13 Q151.597 1009.13 149.769 1012.7 Q147.963 1016.24 147.963 1023.37 Q147.963 1030.48 149.769 1034.04 Q151.597 1037.58 155.209 1037.58 Q158.843 1037.58 160.648 1034.04 Q162.477 1030.48 162.477 1023.37 Q162.477 1016.24 160.648 1012.7 Q158.843 1009.13 155.209 1009.13 M155.209 1005.43 Q161.019 1005.43 164.074 1010.04 Q167.153 1014.62 167.153 1023.37 Q167.153 1032.1 164.074 1036.7 Q161.019 1041.29 155.209 1041.29 Q149.398 1041.29 146.32 1036.7 Q143.264 1032.1 143.264 1023.37 Q143.264 1014.62 146.32 1010.04 Q149.398 1005.43 155.209 1005.43 Z" fill="#000000" fill-rule="nonzero" fill-opacity="1" /><path clip-path="url(#clip590)" d="M203.542 1015.15 L192.963 1025.78 L203.542 1036.36 L200.787 1039.16 L190.162 1028.53 L179.537 1039.16 L176.806 1036.36 L187.361 1025.78 L176.806 1015.15 L179.537 1012.35 L190.162 1022.98 L200.787 1012.35 L203.542 1015.15 Z" fill="#000000" fill-rule="nonzero" fill-opacity="1" /><path clip-path="url(#clip590)" d="M215.903 1036.68 L223.542 1036.68 L223.542 1010.31 L215.231 1011.98 L215.231 1007.72 L223.495 1006.06 L228.171 1006.06 L228.171 1036.68 L235.81 1036.68 L235.81 1040.62 L215.903 1040.62 L215.903 1036.68 Z" fill="#000000" fill-rule="nonzero" fill-opacity="1" /><path clip-path="url(#clip590)" d="M255.254 1009.13 Q251.643 1009.13 249.815 1012.7 Q248.009 1016.24 248.009 1023.37 Q248.009 1030.48 249.815 1034.04 Q251.643 1037.58 255.254 1037.58 Q258.889 1037.58 260.694 1034.04 Q262.523 1030.48 262.523 1023.37 Q262.523 1016.24 260.694 1012.7 Q258.889 1009.13 255.254 1009.13 M255.254 1005.43 Q261.064 1005.43 264.12 1010.04 Q267.199 1014.62 267.199 1023.37 Q267.199 1032.1 264.12 1036.7 Q261.064 1041.29 255.254 1041.29 Q249.444 1041.29 246.365 1036.7 Q243.31 1032.1 243.31 1023.37 Q243.31 1014.62 246.365 1010.04 Q249.444 1005.43 255.254 1005.43 Z" fill="#000000" fill-rule="nonzero" fill-opacity="1" /><path clip-path="url(#clip590)" d="M279.875 988.435 L270.283 1003.42 L279.875 1003.42 L279.875 988.435 M278.878 985.125 L283.655 985.125 L283.655 1003.42 L287.662 1003.42 L287.662 1006.58 L283.655 1006.58 L283.655 1013.2 L279.875 1013.2 L279.875 1006.58 L267.199 1006.58 L267.199 1002.92 L278.878 985.125 Z" fill="#000000" fill-rule="nonzero" fill-opacity="1" /><path clip-path="url(#clip590)" d="M104.005 647.66 L120.324 647.66 L120.324 651.595 L98.3802 651.595 L98.3802 647.66 Q101.042 644.906 105.625 640.276 Q110.232 635.623 111.412 634.281 Q113.658 631.758 114.537 630.022 Q115.44 628.262 115.44 626.572 Q115.44 623.818 113.496 622.082 Q111.575 620.346 108.473 620.346 Q106.274 620.346 103.82 621.11 Q101.389 621.873 98.6116 623.424 L98.6116 618.702 Q101.436 617.568 103.889 616.989 Q106.343 616.41 108.38 616.41 Q113.75 616.41 116.945 619.096 Q120.139 621.781 120.139 626.272 Q120.139 628.401 119.329 630.322 Q118.542 632.221 116.436 634.813 Q115.857 635.484 112.755 638.702 Q109.653 641.896 104.005 647.66 Z" fill="#000000" fill-rule="nonzero" fill-opacity="1" /><path clip-path="url(#clip590)" d="M130.139 645.716 L135.023 645.716 L135.023 651.595 L130.139 651.595 L130.139 645.716 Z" fill="#000000" fill-rule="nonzero" fill-opacity="1" /><path clip-path="url(#clip590)" d="M155.209 620.114 Q151.597 620.114 149.769 623.679 Q147.963 627.221 147.963 634.35 Q147.963 641.457 149.769 645.021 Q151.597 648.563 155.209 648.563 Q158.843 648.563 160.648 645.021 Q162.477 641.457 162.477 634.35 Q162.477 627.221 160.648 623.679 Q158.843 620.114 155.209 620.114 M155.209 616.41 Q161.019 616.41 164.074 621.017 Q167.153 625.6 167.153 634.35 Q167.153 643.077 164.074 647.683 Q161.019 652.267 155.209 652.267 Q149.398 652.267 146.32 647.683 Q143.264 643.077 143.264 634.35 Q143.264 625.6 146.32 621.017 Q149.398 616.41 155.209 616.41 Z" fill="#000000" fill-rule="nonzero" fill-opacity="1" /><path clip-path="url(#clip590)" d="M203.542 626.133 L192.963 636.758 L203.542 647.336 L200.787 650.137 L190.162 639.512 L179.537 650.137 L176.806 647.336 L187.361 636.758 L176.806 626.133 L179.537 623.332 L190.162 633.957 L200.787 623.332 L203.542 626.133 Z" fill="#000000" fill-rule="nonzero" fill-opacity="1" /><path clip-path="url(#clip590)" d="M215.903 647.66 L223.542 647.66 L223.542 621.295 L215.231 622.961 L215.231 618.702 L223.495 617.035 L228.171 617.035 L228.171 647.66 L235.81 647.66 L235.81 651.595 L215.903 651.595 L215.903 647.66 Z" fill="#000000" fill-rule="nonzero" fill-opacity="1" /><path clip-path="url(#clip590)" d="M255.254 620.114 Q251.643 620.114 249.815 623.679 Q248.009 627.221 248.009 634.35 Q248.009 641.457 249.815 645.021 Q251.643 648.563 255.254 648.563 Q258.889 648.563 260.694 645.021 Q262.523 641.457 262.523 634.35 Q262.523 627.221 260.694 623.679 Q258.889 620.114 255.254 620.114 M255.254 616.41 Q261.064 616.41 264.12 621.017 Q267.199 625.6 267.199 634.35 Q267.199 643.077 264.12 647.683 Q261.064 652.267 255.254 652.267 Q249.444 652.267 246.365 647.683 Q243.31 643.077 243.31 634.35 Q243.31 625.6 246.365 621.017 Q249.444 616.41 255.254 616.41 Z" fill="#000000" fill-rule="nonzero" fill-opacity="1" /><path clip-path="url(#clip590)" d="M279.875 599.415 L270.283 614.405 L279.875 614.405 L279.875 599.415 M278.878 596.105 L283.655 596.105 L283.655 614.405 L287.662 614.405 L287.662 617.565 L283.655 617.565 L283.655 624.185 L279.875 624.185 L279.875 617.565 L267.199 617.565 L267.199 613.897 L278.878 596.105 Z" fill="#000000" fill-rule="nonzero" fill-opacity="1" /><path clip-path="url(#clip590)" d="M114.144 243.942 Q117.5 244.659 119.375 246.928 Q121.274 249.196 121.274 252.53 Q121.274 257.645 117.755 260.446 Q114.237 263.247 107.755 263.247 Q105.579 263.247 103.264 262.807 Q100.973 262.391 98.519 261.534 L98.519 257.02 Q100.463 258.155 102.778 258.733 Q105.093 259.312 107.616 259.312 Q112.014 259.312 114.306 257.576 Q116.621 255.84 116.621 252.53 Q116.621 249.474 114.468 247.761 Q112.338 246.025 108.519 246.025 L104.491 246.025 L104.491 242.183 L108.704 242.183 Q112.153 242.183 113.982 240.817 Q115.811 239.428 115.811 236.835 Q115.811 234.173 113.912 232.761 Q112.037 231.326 108.519 231.326 Q106.598 231.326 104.399 231.743 Q102.2 232.159 99.5607 233.039 L99.5607 228.872 Q102.223 228.132 104.538 227.761 Q106.875 227.391 108.936 227.391 Q114.26 227.391 117.362 229.821 Q120.463 232.229 120.463 236.349 Q120.463 239.22 118.82 241.21 Q117.176 243.178 114.144 243.942 Z" fill="#000000" fill-rule="nonzero" fill-opacity="1" /><path clip-path="url(#clip590)" d="M130.139 256.696 L135.023 256.696 L135.023 262.576 L130.139 262.576 L130.139 256.696 Z" fill="#000000" fill-rule="nonzero" fill-opacity="1" /><path clip-path="url(#clip590)" d="M155.209 231.095 Q151.597 231.095 149.769 234.659 Q147.963 238.201 147.963 245.331 Q147.963 252.437 149.769 256.002 Q151.597 259.544 155.209 259.544 Q158.843 259.544 160.648 256.002 Q162.477 252.437 162.477 245.331 Q162.477 238.201 160.648 234.659 Q158.843 231.095 155.209 231.095 M155.209 227.391 Q161.019 227.391 164.074 231.997 Q167.153 236.581 167.153 245.331 Q167.153 254.057 164.074 258.664 Q161.019 263.247 155.209 263.247 Q149.398 263.247 146.32 258.664 Q143.264 254.057 143.264 245.331 Q143.264 236.581 146.32 231.997 Q149.398 227.391 155.209 227.391 Z" fill="#000000" fill-rule="nonzero" fill-opacity="1" /><path clip-path="url(#clip590)" d="M203.542 237.113 L192.963 247.738 L203.542 258.317 L200.787 261.118 L190.162 250.493 L179.537 261.118 L176.806 258.317 L187.361 247.738 L176.806 237.113 L179.537 234.312 L190.162 244.937 L200.787 234.312 L203.542 237.113 Z" fill="#000000" fill-rule="nonzero" fill-opacity="1" /><path clip-path="url(#clip590)" d="M215.903 258.641 L223.542 258.641 L223.542 232.275 L215.231 233.942 L215.231 229.683 L223.495 228.016 L228.171 228.016 L228.171 258.641 L235.81 258.641 L235.81 262.576 L215.903 262.576 L215.903 258.641 Z" fill="#000000" fill-rule="nonzero" fill-opacity="1" /><path clip-path="url(#clip590)" d="M255.254 231.095 Q251.643 231.095 249.815 234.659 Q248.009 238.201 248.009 245.331 Q248.009 252.437 249.815 256.002 Q251.643 259.544 255.254 259.544 Q258.889 259.544 260.694 256.002 Q262.523 252.437 262.523 245.331 Q262.523 238.201 260.694 234.659 Q258.889 231.095 255.254 231.095 M255.254 227.391 Q261.064 227.391 264.12 231.997 Q267.199 236.581 267.199 245.331 Q267.199 254.057 264.12 258.664 Q261.064 263.247 255.254 263.247 Q249.444 263.247 246.365 258.664 Q243.31 254.057 243.31 245.331 Q243.31 236.581 246.365 231.997 Q249.444 227.391 255.254 227.391 Z" fill="#000000" fill-rule="nonzero" fill-opacity="1" /><path clip-path="url(#clip590)" d="M279.875 210.396 L270.283 225.386 L279.875 225.386 L279.875 210.396 M278.878 207.086 L283.655 207.086 L283.655 225.386 L287.662 225.386 L287.662 228.545 L283.655 228.545 L283.655 235.166 L279.875 235.166 L279.875 228.545 L267.199 228.545 L267.199 224.878 L278.878 207.086 Z" fill="#000000" fill-rule="nonzero" fill-opacity="1" /><path clip-path="url(#clip590)" d="M-11.3958 930.363 L-11.3958 923.933 L36.1242 923.933 L36.1242 930.363 L-11.3958 930.363 Z" fill="#000000" fill-rule="nonzero" fill-opacity="1" /><path clip-path="url(#clip590)" d="M14.6081 881.76 L36.1242 881.76 L36.1242 887.617 L14.799 887.617 Q9.7383 887.617 7.22385 889.59 Q4.7094 891.564 4.7094 895.51 Q4.7094 900.253 7.73311 902.99 Q10.7568 905.727 15.9767 905.727 L36.1242 905.727 L36.1242 911.616 L0.4762 911.616 L0.4762 905.727 L6.01437 905.727 Q2.79968 903.627 1.20826 900.794 Q-0.38317 897.929 -0.38317 894.205 Q-0.38317 888.062 3.43625 884.911 Q7.22385 881.76 14.6081 881.76 Z" fill="#000000" fill-rule="nonzero" fill-opacity="1" /><path clip-path="url(#clip590)" d="M-13.401 852.033 L-8.53127 852.033 L-8.53127 857.634 Q-8.53127 860.785 -7.25813 862.027 Q-5.98499 863.236 -2.67482 863.236 L0.4762 863.236 L0.4762 853.592 L5.02768 853.592 L5.02768 863.236 L36.1242 863.236 L36.1242 869.124 L5.02768 869.124 L5.02768 874.726 L0.4762 874.726 L0.4762 869.124 L-2.00643 869.124 Q-7.95836 869.124 -10.6638 866.355 Q-13.401 863.586 -13.401 857.571 L-13.401 852.033 Z" fill="#000000" fill-rule="nonzero" fill-opacity="1" /><path clip-path="url(#clip590)" d="M16.8361 816.639 L19.7006 816.639 L19.7006 843.566 Q25.7481 843.184 28.9309 839.938 Q32.0819 836.659 32.0819 830.835 Q32.0819 827.461 31.2544 824.31 Q30.4269 821.127 28.7718 818.008 L34.3099 818.008 Q35.6467 821.159 36.347 824.469 Q37.0472 827.779 37.0472 831.185 Q37.0472 839.715 32.0819 844.712 Q27.1167 849.677 18.6503 849.677 Q9.89745 849.677 4.77305 844.967 Q-0.38317 840.224 -0.38317 832.203 Q-0.38317 825.01 4.2638 820.841 Q8.87893 816.639 16.8361 816.639 M15.1173 822.496 Q10.3112 822.559 7.44665 825.201 Q4.58208 827.811 4.58208 832.14 Q4.58208 837.041 7.35116 840.001 Q10.1202 842.93 15.1492 843.375 L15.1173 822.496 Z" fill="#000000" fill-rule="nonzero" fill-opacity="1" /><path clip-path="url(#clip590)" d="M1.84483 781.373 L7.31933 781.373 Q5.95071 783.856 5.28231 786.37 Q4.58208 788.853 4.58208 791.399 Q4.58208 797.096 8.21053 800.247 Q11.8072 803.399 18.332 803.399 Q24.8569 803.399 28.4853 800.247 Q32.0819 797.096 32.0819 791.399 Q32.0819 788.853 31.4135 786.37 Q30.7133 783.856 29.3447 781.373 L34.7555 781.373 Q35.9014 783.824 36.4743 786.466 Q37.0472 789.076 37.0472 792.036 Q37.0472 800.088 31.9864 804.831 Q26.9257 809.573 18.332 809.573 Q9.61099 809.573 4.61391 804.799 Q-0.38317 799.993 -0.38317 791.654 Q-0.38317 788.948 0.189744 786.37 Q0.730829 783.792 1.84483 781.373 Z" fill="#000000" fill-rule="nonzero" fill-opacity="1" /><path clip-path="url(#clip590)" d="M-9.64527 765.395 L0.4762 765.395 L0.4762 753.332 L5.02768 753.332 L5.02768 765.395 L24.3794 765.395 Q28.7399 765.395 29.9813 764.218 Q31.2226 763.008 31.2226 759.348 L31.2226 753.332 L36.1242 753.332 L36.1242 759.348 Q36.1242 766.127 33.6097 768.705 Q31.0634 771.284 24.3794 771.284 L5.02768 771.284 L5.02768 775.58 L0.4762 775.58 L0.4762 771.284 L-9.64527 771.284 L-9.64527 765.395 Z" fill="#000000" fill-rule="nonzero" fill-opacity="1" /><path clip-path="url(#clip590)" d="M0.4762 745.63 L0.4762 739.773 L36.1242 739.773 L36.1242 745.63 L0.4762 745.63 M-13.401 745.63 L-13.401 739.773 L-5.98499 739.773 L-5.98499 745.63 L-13.401 745.63 Z" fill="#000000" fill-rule="nonzero" fill-opacity="1" /><path clip-path="url(#clip590)" d="M4.58208 713.706 Q4.58208 718.416 8.27419 721.154 Q11.9345 723.891 18.332 723.891 Q24.7295 723.891 28.4217 721.185 Q32.0819 718.448 32.0819 713.706 Q32.0819 709.027 28.3898 706.29 Q24.6977 703.552 18.332 703.552 Q11.9981 703.552 8.30602 706.29 Q4.58208 709.027 4.58208 713.706 M-0.38317 713.706 Q-0.38317 706.067 4.58208 701.706 Q9.54733 697.346 18.332 697.346 Q27.0849 697.346 32.0819 701.706 Q37.0472 706.067 37.0472 713.706 Q37.0472 721.376 32.0819 725.737 Q27.0849 730.066 18.332 730.066 Q9.54733 730.066 4.58208 725.737 Q-0.38317 721.376 -0.38317 713.706 Z" fill="#000000" fill-rule="nonzero" fill-opacity="1" /><path clip-path="url(#clip590)" d="M22.0559 688.243 L0.4762 688.243 L0.4762 682.386 L21.8331 682.386 Q26.8939 682.386 29.4402 680.413 Q31.9546 678.44 31.9546 674.493 Q31.9546 669.751 28.9309 667.013 Q25.9072 664.244 20.6873 664.244 L0.4762 664.244 L0.4762 658.388 L36.1242 658.388 L36.1242 664.244 L30.6496 664.244 Q33.8962 666.377 35.4876 669.209 Q37.0472 672.01 37.0472 675.734 Q37.0472 681.877 33.2278 685.06 Q29.4083 688.243 22.0559 688.243 M-0.38317 673.506 L-0.38317 673.506 Z" fill="#000000" fill-rule="nonzero" fill-opacity="1" /><path clip-path="url(#clip590)" d="M1.52654 623.599 L7.06471 623.599 Q5.79157 626.082 5.15499 628.755 Q4.51842 631.429 4.51842 634.294 Q4.51842 638.654 5.85522 640.85 Q7.19202 643.015 9.86562 643.015 Q11.9026 643.015 13.0803 641.455 Q14.2261 639.895 15.2765 635.185 L15.7221 633.18 Q17.0589 626.941 19.5097 624.331 Q21.9286 621.689 26.2891 621.689 Q31.2544 621.689 34.1508 625.636 Q37.0472 629.551 37.0472 636.426 Q37.0472 639.291 36.4743 642.41 Q35.9332 645.497 34.8192 648.935 L28.7718 648.935 Q30.4587 645.688 31.318 642.537 Q32.1456 639.386 32.1456 636.299 Q32.1456 632.161 30.7451 629.933 Q29.3129 627.705 26.7347 627.705 Q24.3476 627.705 23.0745 629.328 Q21.8013 630.92 20.6237 636.362 L20.1462 638.399 Q19.0004 643.842 16.6451 646.261 Q14.258 648.68 10.1202 648.68 Q5.09134 648.68 2.35408 645.115 Q-0.38317 641.55 -0.38317 634.994 Q-0.38317 631.747 0.0942579 628.883 Q0.571686 626.018 1.52654 623.599 Z" fill="#000000" fill-rule="nonzero" fill-opacity="1" /><path clip-path="url(#clip590)" d="M1251.07 12.096 L1259.25 12.096 L1259.25 72.576 L1251.07 72.576 L1251.07 12.096 Z" fill="#000000" fill-rule="nonzero" fill-opacity="1" /><path clip-path="url(#clip590)" d="M1312.93 45.1919 L1312.93 72.576 L1305.48 72.576 L1305.48 45.4349 Q1305.48 38.994 1302.96 35.7938 Q1300.45 32.5936 1295.43 32.5936 Q1289.39 32.5936 1285.91 36.4419 Q1282.43 40.2903 1282.43 46.9338 L1282.43 72.576 L1274.93 72.576 L1274.93 27.2059 L1282.43 27.2059 L1282.43 34.2544 Q1285.1 30.163 1288.7 28.1376 Q1292.35 26.1121 1297.09 26.1121 Q1304.91 26.1121 1308.92 30.9732 Q1312.93 35.7938 1312.93 45.1919 Z" fill="#000000" fill-rule="nonzero" fill-opacity="1" /><path clip-path="url(#clip590)" d="M1350.76 9.54393 L1350.76 15.7418 L1343.64 15.7418 Q1339.62 15.7418 1338.04 17.3622 Q1336.51 18.9825 1336.51 23.1955 L1336.51 27.2059 L1348.78 27.2059 L1348.78 32.9987 L1336.51 32.9987 L1336.51 72.576 L1329.01 72.576 L1329.01 32.9987 L1321.88 32.9987 L1321.88 27.2059 L1329.01 27.2059 L1329.01 24.0462 Q1329.01 16.471 1332.54 13.0277 Q1336.06 9.54393 1343.72 9.54393 L1350.76 9.54393 Z" fill="#000000" fill-rule="nonzero" fill-opacity="1" /><path clip-path="url(#clip590)" d="M1395.81 48.0275 L1395.81 51.6733 L1361.54 51.6733 Q1362.03 59.3701 1366.16 63.421 Q1370.33 67.4314 1377.74 67.4314 Q1382.04 67.4314 1386.05 66.3781 Q1390.1 65.3249 1394.07 63.2184 L1394.07 70.267 Q1390.06 71.9684 1385.85 72.8596 Q1381.63 73.7508 1377.3 73.7508 Q1366.44 73.7508 1360.08 67.4314 Q1353.76 61.1119 1353.76 50.3365 Q1353.76 39.1965 1359.76 32.6746 Q1365.79 26.1121 1376 26.1121 Q1385.16 26.1121 1390.46 32.0264 Q1395.81 37.9003 1395.81 48.0275 M1388.36 45.84 Q1388.28 39.7232 1384.91 36.0774 Q1381.59 32.4315 1376.08 32.4315 Q1369.84 32.4315 1366.08 35.9558 Q1362.35 39.4801 1361.78 45.8805 L1388.36 45.84 Z" fill="#000000" fill-rule="nonzero" fill-opacity="1" /><path clip-path="url(#clip590)" d="M1440.69 28.9478 L1440.69 35.9153 Q1437.54 34.1734 1434.33 33.3227 Q1431.18 32.4315 1427.93 32.4315 Q1420.68 32.4315 1416.67 37.0496 Q1412.66 41.6271 1412.66 49.9314 Q1412.66 58.2358 1416.67 62.8538 Q1420.68 67.4314 1427.93 67.4314 Q1431.18 67.4314 1434.33 66.5807 Q1437.54 65.6895 1440.69 63.9476 L1440.69 70.8341 Q1437.58 72.2924 1434.21 73.0216 Q1430.89 73.7508 1427.12 73.7508 Q1416.88 73.7508 1410.84 67.3098 Q1404.8 60.8689 1404.8 49.9314 Q1404.8 38.832 1410.88 32.472 Q1417 26.1121 1427.61 26.1121 Q1431.05 26.1121 1434.33 26.8413 Q1437.62 27.5299 1440.69 28.9478 Z" fill="#000000" fill-rule="nonzero" fill-opacity="1" /><path clip-path="url(#clip590)" d="M1461.03 14.324 L1461.03 27.2059 L1476.38 27.2059 L1476.38 32.9987 L1461.03 32.9987 L1461.03 57.6282 Q1461.03 63.1779 1462.53 64.7578 Q1464.07 66.3376 1468.73 66.3376 L1476.38 66.3376 L1476.38 72.576 L1468.73 72.576 Q1460.1 72.576 1456.82 69.3758 Q1453.54 66.1351 1453.54 57.6282 L1453.54 32.9987 L1448.07 32.9987 L1448.07 27.2059 L1453.54 27.2059 L1453.54 14.324 L1461.03 14.324 Z" fill="#000000" fill-rule="nonzero" fill-opacity="1" /><path clip-path="url(#clip590)" d="M1486.19 27.2059 L1493.64 27.2059 L1493.64 72.576 L1486.19 72.576 L1486.19 27.2059 M1486.19 9.54393 L1493.64 9.54393 L1493.64 18.9825 L1486.19 18.9825 L1486.19 9.54393 Z" fill="#000000" fill-rule="nonzero" fill-opacity="1" /><path clip-path="url(#clip590)" d="M1526.82 32.4315 Q1520.82 32.4315 1517.34 37.1306 Q1513.85 41.7891 1513.85 49.9314 Q1513.85 58.0738 1517.3 62.7728 Q1520.78 67.4314 1526.82 67.4314 Q1532.77 67.4314 1536.26 62.7323 Q1539.74 58.0333 1539.74 49.9314 Q1539.74 41.8701 1536.26 37.1711 Q1532.77 32.4315 1526.82 32.4315 M1526.82 26.1121 Q1536.54 26.1121 1542.09 32.4315 Q1547.64 38.7509 1547.64 49.9314 Q1547.64 61.0714 1542.09 67.4314 Q1536.54 73.7508 1526.82 73.7508 Q1517.05 73.7508 1511.5 67.4314 Q1506 61.0714 1506 49.9314 Q1506 38.7509 1511.5 32.4315 Q1517.05 26.1121 1526.82 26.1121 Z" fill="#000000" fill-rule="nonzero" fill-opacity="1" /><path clip-path="url(#clip590)" d="M1559.22 54.671 L1559.22 27.2059 L1566.68 27.2059 L1566.68 54.3874 Q1566.68 60.8284 1569.19 64.0691 Q1571.7 67.2693 1576.72 67.2693 Q1582.76 67.2693 1586.24 63.421 Q1589.77 59.5726 1589.77 52.9291 L1589.77 27.2059 L1597.22 27.2059 L1597.22 72.576 L1589.77 72.576 L1589.77 65.6084 Q1587.05 69.7404 1583.45 71.7658 Q1579.88 73.7508 1575.14 73.7508 Q1567.33 73.7508 1563.28 68.8897 Q1559.22 64.0286 1559.22 54.671 M1577.98 26.1121 L1577.98 26.1121 Z" fill="#000000" fill-rule="nonzero" fill-opacity="1" /><path clip-path="url(#clip590)" d="M1641.5 28.5427 L1641.5 35.5912 Q1638.34 33.9709 1634.94 33.1607 Q1631.53 32.3505 1627.89 32.3505 Q1622.34 32.3505 1619.54 34.0519 Q1616.79 35.7533 1616.79 39.156 Q1616.79 41.7486 1618.77 43.2475 Q1620.76 44.7058 1626.75 46.0426 L1629.3 46.6097 Q1637.24 48.3111 1640.57 51.4303 Q1643.93 54.509 1643.93 60.0587 Q1643.93 66.3781 1638.91 70.0644 Q1633.92 73.7508 1625.17 73.7508 Q1621.53 73.7508 1617.56 73.0216 Q1613.63 72.3329 1609.25 70.9151 L1609.25 63.2184 Q1613.38 65.3654 1617.4 66.4591 Q1621.41 67.5124 1625.33 67.5124 Q1630.6 67.5124 1633.44 65.73 Q1636.27 63.9071 1636.27 60.6258 Q1636.27 57.5877 1634.21 55.9673 Q1632.18 54.3469 1625.25 52.8481 L1622.66 52.2405 Q1615.73 50.7821 1612.66 47.7845 Q1609.58 44.7463 1609.58 39.4801 Q1609.58 33.0797 1614.11 29.5959 Q1618.65 26.1121 1627 26.1121 Q1631.13 26.1121 1634.77 26.7198 Q1638.42 27.3274 1641.5 28.5427 Z" fill="#000000" fill-rule="nonzero" fill-opacity="1" /><path clip-path="url(#clip590)" d="M1714.74 49.9314 Q1714.74 41.7081 1711.34 37.0496 Q1707.97 32.3505 1702.06 32.3505 Q1696.14 32.3505 1692.74 37.0496 Q1689.38 41.7081 1689.38 49.9314 Q1689.38 58.1548 1692.74 62.8538 Q1696.14 67.5124 1702.06 67.5124 Q1707.97 67.5124 1711.34 62.8538 Q1714.74 58.1548 1714.74 49.9314 M1689.38 34.0924 Q1691.73 30.0415 1695.29 28.0971 Q1698.9 26.1121 1703.88 26.1121 Q1712.15 26.1121 1717.29 32.6746 Q1722.48 39.2371 1722.48 49.9314 Q1722.48 60.6258 1717.29 67.1883 Q1712.15 73.7508 1703.88 73.7508 Q1698.9 73.7508 1695.29 71.8063 Q1691.73 69.8214 1689.38 65.7705 L1689.38 72.576 L1681.89 72.576 L1681.89 9.54393 L1689.38 9.54393 L1689.38 34.0924 Z" fill="#000000" fill-rule="nonzero" fill-opacity="1" /><path clip-path="url(#clip590)" d="M1753.71 76.7889 Q1750.55 84.8907 1747.55 87.3618 Q1744.55 89.8329 1739.53 89.8329 L1733.58 89.8329 L1733.58 83.5945 L1737.95 83.5945 Q1741.03 83.5945 1742.73 82.1361 Q1744.43 80.6778 1746.5 75.2496 L1747.83 71.8468 L1729.48 27.2059 L1737.38 27.2059 L1751.56 62.6918 L1765.74 27.2059 L1773.64 27.2059 L1753.71 76.7889 Z" fill="#000000" fill-rule="nonzero" fill-opacity="1" /><path clip-path="url(#clip590)" d="M1830.84 20.1573 L1819.74 50.2555 L1841.98 50.2555 L1830.84 20.1573 M1826.22 12.096 L1835.5 12.096 L1858.55 72.576 L1850.04 72.576 L1844.53 57.061 L1817.27 57.061 L1811.76 72.576 L1803.13 72.576 L1826.22 12.096 Z" fill="#000000" fill-rule="nonzero" fill-opacity="1" /><path clip-path="url(#clip590)" d="M1896.91 49.3643 Q1896.91 41.2625 1893.55 36.8065 Q1890.22 32.3505 1884.19 32.3505 Q1878.19 32.3505 1874.83 36.8065 Q1871.51 41.2625 1871.51 49.3643 Q1871.51 57.4256 1874.83 61.8816 Q1878.19 66.3376 1884.19 66.3376 Q1890.22 66.3376 1893.55 61.8816 Q1896.91 57.4256 1896.91 49.3643 M1904.36 66.9452 Q1904.36 78.5308 1899.22 84.1616 Q1894.07 89.8329 1883.46 89.8329 Q1879.53 89.8329 1876.05 89.2252 Q1872.56 88.6581 1869.28 87.4428 L1869.28 80.1917 Q1872.56 81.9741 1875.76 82.8248 Q1878.96 83.6755 1882.28 83.6755 Q1889.62 83.6755 1893.26 79.8271 Q1896.91 76.0193 1896.91 68.282 L1896.91 64.5957 Q1894.6 68.6061 1890.99 70.5911 Q1887.39 72.576 1882.36 72.576 Q1874.02 72.576 1868.92 66.2161 Q1863.81 59.8562 1863.81 49.3643 Q1863.81 38.832 1868.92 32.472 Q1874.02 26.1121 1882.36 26.1121 Q1887.39 26.1121 1890.99 28.0971 Q1894.6 30.082 1896.91 34.0924 L1896.91 27.2059 L1904.36 27.2059 L1904.36 66.9452 Z" fill="#000000" fill-rule="nonzero" fill-opacity="1" /><path clip-path="url(#clip590)" d="M1958.52 48.0275 L1958.52 51.6733 L1924.25 51.6733 Q1924.74 59.3701 1928.87 63.421 Q1933.04 67.4314 1940.45 67.4314 Q1944.75 67.4314 1948.76 66.3781 Q1952.81 65.3249 1956.78 63.2184 L1956.78 70.267 Q1952.77 71.9684 1948.56 72.8596 Q1944.34 73.7508 1940.01 73.7508 Q1929.15 73.7508 1922.79 67.4314 Q1916.47 61.1119 1916.47 50.3365 Q1916.47 39.1965 1922.47 32.6746 Q1928.5 26.1121 1938.71 26.1121 Q1947.87 26.1121 1953.17 32.0264 Q1958.52 37.9003 1958.52 48.0275 M1951.07 45.84 Q1950.99 39.7232 1947.62 36.0774 Q1944.3 32.4315 1938.79 32.4315 Q1932.56 32.4315 1928.79 35.9558 Q1925.06 39.4801 1924.49 45.8805 L1951.07 45.84 Z" fill="#000000" fill-rule="nonzero" fill-opacity="1" /><path clip-path="url(#clip590)" d="M2038.69 63.9476 L2038.69 47.7034 L2025.32 47.7034 L2025.32 40.9789 L2046.79 40.9789 L2046.79 66.9452 Q2042.05 70.3075 2036.34 72.0494 Q2030.63 73.7508 2024.15 73.7508 Q2009.97 73.7508 2001.95 65.4869 Q1993.97 57.1826 1993.97 42.3968 Q1993.97 27.5705 2001.95 19.3066 Q2009.97 11.0023 2024.15 11.0023 Q2030.06 11.0023 2035.37 12.4606 Q2040.71 13.9189 2045.21 16.7545 L2045.21 25.464 Q2040.67 21.6156 2035.57 19.6712 Q2030.47 17.7268 2024.84 17.7268 Q2013.74 17.7268 2008.15 23.9246 Q2002.6 30.1225 2002.6 42.3968 Q2002.6 54.6305 2008.15 60.8284 Q2013.74 67.0263 2024.84 67.0263 Q2029.17 67.0263 2032.57 66.2971 Q2035.98 65.5274 2038.69 63.9476 Z" fill="#000000" fill-rule="nonzero" fill-opacity="1" /><path clip-path="url(#clip590)" d="M2087.71 34.1734 Q2086.45 33.4443 2084.95 33.1202 Q2083.49 32.7556 2081.71 32.7556 Q2075.39 32.7556 2071.99 36.8875 Q2068.63 40.9789 2068.63 48.6757 L2068.63 72.576 L2061.13 72.576 L2061.13 27.2059 L2068.63 27.2059 L2068.63 34.2544 Q2070.97 30.1225 2074.74 28.1376 Q2078.51 26.1121 2083.9 26.1121 Q2084.67 26.1121 2085.6 26.2337 Q2086.53 26.3147 2087.66 26.5172 L2087.71 34.1734 Z" fill="#000000" fill-rule="nonzero" fill-opacity="1" /><path clip-path="url(#clip590)" d="M2111.28 32.4315 Q2105.29 32.4315 2101.8 37.1306 Q2098.32 41.7891 2098.32 49.9314 Q2098.32 58.0738 2101.76 62.7728 Q2105.25 67.4314 2111.28 67.4314 Q2117.24 67.4314 2120.72 62.7323 Q2124.2 58.0333 2124.2 49.9314 Q2124.2 41.8701 2120.72 37.1711 Q2117.24 32.4315 2111.28 32.4315 M2111.28 26.1121 Q2121 26.1121 2126.55 32.4315 Q2132.1 38.7509 2132.1 49.9314 Q2132.1 61.0714 2126.55 67.4314 Q2121 73.7508 2111.28 73.7508 Q2101.52 73.7508 2095.97 67.4314 Q2090.46 61.0714 2090.46 49.9314 Q2090.46 38.7509 2095.97 32.4315 Q2101.52 26.1121 2111.28 26.1121 Z" fill="#000000" fill-rule="nonzero" fill-opacity="1" /><path clip-path="url(#clip590)" d="M2143.69 54.671 L2143.69 27.2059 L2151.14 27.2059 L2151.14 54.3874 Q2151.14 60.8284 2153.65 64.0691 Q2156.17 67.2693 2161.19 67.2693 Q2167.22 67.2693 2170.71 63.421 Q2174.23 59.5726 2174.23 52.9291 L2174.23 27.2059 L2181.69 27.2059 L2181.69 72.576 L2174.23 72.576 L2174.23 65.6084 Q2171.52 69.7404 2167.91 71.7658 Q2164.35 73.7508 2159.61 73.7508 Q2151.79 73.7508 2147.74 68.8897 Q2143.69 64.0286 2143.69 54.671 M2162.44 26.1121 L2162.44 26.1121 Z" fill="#000000" fill-rule="nonzero" fill-opacity="1" /><path clip-path="url(#clip590)" d="M2204.25 65.7705 L2204.25 89.8329 L2196.76 89.8329 L2196.76 27.2059 L2204.25 27.2059 L2204.25 34.0924 Q2206.6 30.0415 2210.16 28.0971 Q2213.77 26.1121 2218.75 26.1121 Q2227.02 26.1121 2232.16 32.6746 Q2237.35 39.2371 2237.35 49.9314 Q2237.35 60.6258 2232.16 67.1883 Q2227.02 73.7508 2218.75 73.7508 Q2213.77 73.7508 2210.16 71.8063 Q2206.6 69.8214 2204.25 65.7705 M2229.61 49.9314 Q2229.61 41.7081 2226.21 37.0496 Q2222.84 32.3505 2216.93 32.3505 Q2211.01 32.3505 2207.61 37.0496 Q2204.25 41.7081 2204.25 49.9314 Q2204.25 58.1548 2207.61 62.8538 Q2211.01 67.5124 2216.93 67.5124 Q2222.84 67.5124 2226.21 62.8538 Q2229.61 58.1548 2229.61 49.9314 Z" fill="#000000" fill-rule="nonzero" fill-opacity="1" /><polyline clip-path="url(#clip591)" style="stroke:#0000ff; stroke-linecap:round; stroke-linejoin:round; stroke-width:8; stroke-opacity:1; fill:none" points="415.391,1405.91 430.155,1405.91 444.92,1405.91 459.685,1405.91 474.449,1405.91 489.214,1405.91 503.979,1405.91 518.743,1405.91 533.508,1405.91 548.272,1405.87 563.037,1405.87 577.802,1405.87 592.566,1405.87 607.331,1405.87 622.096,1405.87 636.86,1405.87 651.625,1405.87 666.39,1405.87 681.154,1405.87 695.919,1405.87 710.684,1405.87 725.448,1405.87 740.213,1405.91 754.977,1405.91 769.742,1405.91 784.507,1405.91 799.271,1405.87 814.036,1405.87 828.801,1405.79 843.565,1405.75 858.33,1405.83 873.095,1405.83 887.859,1405.83 902.624,1405.79 917.389,1405.79 932.153,1405.79 946.918,1405.79 961.683,1405.79 976.447,1405.79 991.212,1405.71 1005.98,1405.67 1020.74,1405.67 1035.51,1405.71 1050.27,1405.71 1065.04,1405.63 1079.8,1405.52 1094.56,1405.52 1109.33,1405.4 1124.09,1405.4 1138.86,1405.36 1153.62,1405.36 1168.39,1405.36 1183.15,1405.32 1197.92,1405.09 1212.68,1405.05 1227.45,1404.9 1242.21,1404.74 1256.98,1404.78 1271.74,1404.74 1286.5,1404.55 1301.27,1404.55 1316.03,1404.31 1330.8,1404.12 1345.56,1404 1360.33,1404 1375.09,1403.88 1389.86,1403.69 1404.62,1403.53 1419.39,1403.42 1434.15,1403.18 1448.92,1402.72 1463.68,1402.37 1478.45,1401.98 1493.21,1401.86 1507.97,1401.98 1522.74,1401.67 1537.5,1401.28 1552.27,1400.77 1567.03,1400.58 1581.8,1400.07 1596.56,1399.95 1611.33,1399.68 1626.09,1399.8 1640.86,1399.02 1655.62,1397.89 1670.39,1397.15 1685.15,1397.19 1699.91,1396.65 1714.68,1395.71 1729.44,1394.55 1744.21,1393.34 1758.97,1392.87 1773.74,1392.49 1788.5,1391.28 1803.27,1389.37 1818.03,1388.44 1832.8,1387.35 1847.56,1386.14 1862.33,1384.08 1877.09,1382.53 1891.86,1381.09 1906.62,1379.3 1921.38,1377.55 1936.15,1376.46 1950.91,1373.97 1965.68,1371.52 1980.44,1367.78 1995.21,1365.33 2009.97,1362.8 2024.74,1358.91 2039.5,1356.38 2054.27,1352.57 2069.03,1347.87 2083.8,1343.08 2098.56,1339.97 2113.32,1334.21 2128.09,1328.41 2142.85,1321.61 2157.62,1316.51 2172.38,1309.59 2187.15,1304.61 2201.91,1297.84 2216.68,1291.15 2231.44,1282.47 2246.21,1273.13 2260.97,1263.45 2275.74,1252.01 2290.5,1242.05 2305.27,1232.09 2320.03,1221.75 2334.79,1210.74 2349.56,1197.31 2364.32,1186.81 2379.09,1174.71 2393.85,1163.12 2408.62,1144.91 2423.38,1133.13 2438.15,1118.27 2452.91,1103.13 2467.68,1089.75 2482.44,1071.54 2497.21,1050.27 2511.97,1033.97 2526.73,1020.54 2541.5,1006.19 2556.26,989.345 2571.03,974.017 2585.79,955.15 2600.56,939.862 2615.32,921.967 2630.09,903.06 2644.85,882.014 2659.62,866.103 2674.38,853.266 2689.15,835.488 2703.91,824.478 2718.68,810.707 2733.44,800.281 2748.2,790.128 2762.97,779.08 2777.73,766.32 2792.5,756.167 2807.26,745.974 2822.03,736.56 2836.79,729.674 2851.56,723.839 2866.32,728.896 2881.09,726.912 2895.85,729.713 2910.62,725.667 2925.38,728.274 2940.15,729.597 2954.91,730.491 2969.67,735.899 2984.44,744.068 2999.2,746.519 3013.97,752.315 3028.73,755.35 3043.5,759.94 3058.26,769.821 3073.03,782.309 "/>
<polyline clip-path="url(#clip591)" style="stroke:#ff0000; stroke-linecap:round; stroke-linejoin:round; stroke-width:8; stroke-opacity:1; fill:none" points="415.391,1405.71 430.155,1405.75 444.92,1405.71 459.685,1405.75 474.449,1405.75 489.214,1405.75 503.979,1405.75 518.743,1405.87 533.508,1405.83 548.272,1405.87 563.037,1405.79 577.802,1405.75 592.566,1405.79 607.331,1405.75 622.096,1405.71 636.86,1405.71 651.625,1405.67 666.39,1405.67 681.154,1405.63 695.919,1405.48 710.684,1405.48 725.448,1405.52 740.213,1405.52 754.977,1405.56 769.742,1405.6 784.507,1405.6 799.271,1405.56 814.036,1405.52 828.801,1405.4 843.565,1405.36 858.33,1405.28 873.095,1405.17 887.859,1405.13 902.624,1405.09 917.389,1404.86 932.153,1404.74 946.918,1404.82 961.683,1404.74 976.447,1404.66 991.212,1404.55 1005.98,1404.7 1020.74,1404.31 1035.51,1404.35 1050.27,1404.23 1065.04,1404.2 1079.8,1404.08 1094.56,1403.73 1109.33,1403.61 1124.09,1403.65 1138.86,1403.65 1153.62,1403.53 1168.39,1403.18 1183.15,1403.03 1197.92,1402.83 1212.68,1402.56 1227.45,1402.21 1242.21,1401.9 1256.98,1401.28 1271.74,1400.97 1286.5,1400.89 1301.27,1400.66 1316.03,1400.5 1330.8,1400.15 1345.56,1399.18 1360.33,1398.63 1375.09,1397.97 1389.86,1396.96 1404.62,1396.61 1419.39,1395.6 1434.15,1394.98 1448.92,1393.93 1463.68,1393.5 1478.45,1392.87 1493.21,1391.63 1507.97,1391.28 1522.74,1390.23 1537.5,1387.7 1552.27,1386.57 1567.03,1385.64 1581.8,1384.24 1596.56,1382.88 1611.33,1380.23 1626.09,1378.79 1640.86,1376.54 1655.62,1375.1 1670.39,1373.85 1685.15,1370.27 1699.91,1368.95 1714.68,1366.89 1729.44,1363.7 1744.21,1361.01 1758.97,1357.2 1773.74,1354.32 1788.5,1349.46 1803.27,1344.17 1818.03,1339.7 1832.8,1333.86 1847.56,1330.36 1862.33,1325.22 1877.09,1318.42 1891.86,1311.3 1906.62,1304.41 1921.38,1297.37 1936.15,1291.19 1950.91,1284.61 1965.68,1277.3 1980.44,1267.77 1995.21,1259.21 2009.97,1250.1 2024.74,1239.48 2039.5,1228.67 2054.27,1215.4 2069.03,1204.74 2083.8,1189.5 2098.56,1176.23 2113.32,1163.35 2128.09,1146 2142.85,1128.34 2157.62,1111.57 2172.38,1094.61 2187.15,1077.69 2201.91,1057.66 2216.68,1033.19 2231.44,1008.68 2246.21,987.516 2260.97,962.697 2275.74,936.049 2290.5,905.745 2305.27,871.433 2320.03,848.792 2334.79,825.023 2349.56,796.236 2364.32,763.247 2379.09,731.269 2393.85,697.541 2408.62,666.887 2423.38,633.781 2438.15,603.087 2452.91,573.211 2467.68,541.155 2482.44,511.318 2497.21,483.503 2511.97,453.237 2526.73,422.971 2541.5,402.159 2556.26,374.266 2571.03,343.261 2585.79,316.302 2600.56,297.396 2615.32,276.933 2630.09,255.498 2644.85,243.011 2659.62,228.073 2674.38,219.086 2689.15,207.065 2703.91,208.31 2718.68,200.686 2733.44,196.834 2748.2,200.686 2762.97,200.53 2777.73,202.436 2792.5,214.029 2807.26,224.805 2822.03,231.457 2836.79,246.434 2851.56,259.855 2866.32,275.144 2881.09,297.512 2895.85,311.712 2910.62,337.737 2925.38,364.502 2940.15,386.948 2954.91,413.557 2969.67,439.66 2984.44,464.13 2999.2,491.05 3013.97,515.791 3028.73,542.011 3043.5,566.286 3058.26,589.822 3073.03,616.664 "/>
<polyline clip-path="url(#clip591)" style="stroke:#008000; stroke-linecap:round; stroke-linejoin:round; stroke-width:8; stroke-opacity:1; fill:none" points="415.391,1405.91 430.155,1405.91 444.92,1405.91 459.685,1405.87 474.449,1405.83 489.214,1405.83 503.979,1405.83 518.743,1405.87 533.508,1405.79 548.272,1405.79 563.037,1405.83 577.802,1405.87 592.566,1405.87 607.331,1405.87 622.096,1405.83 636.86,1405.83 651.625,1405.87 666.39,1405.87 681.154,1405.87 695.919,1405.87 710.684,1405.87 725.448,1405.87 740.213,1405.79 754.977,1405.79 769.742,1405.79 784.507,1405.67 799.271,1405.67 814.036,1405.67 828.801,1405.71 843.565,1405.75 858.33,1405.71 873.095,1405.71 887.859,1405.71 902.624,1405.75 917.389,1405.75 932.153,1405.75 946.918,1405.71 961.683,1405.52 976.447,1405.56 991.212,1405.56 1005.98,1405.56 1020.74,1405.48 1035.51,1405.32 1050.27,1405.21 1065.04,1405.09 1079.8,1405.09 1094.56,1405.09 1109.33,1404.7 1124.09,1404.66 1138.86,1404.51 1153.62,1404.12 1168.39,1403.92 1183.15,1403.73 1197.92,1403.42 1212.68,1403.42 1227.45,1402.87 1242.21,1402.76 1256.98,1402.41 1271.74,1402.09 1286.5,1401.71 1301.27,1401.82 1316.03,1401.2 1330.8,1401.32 1345.56,1401.2 1360.33,1400.69 1375.09,1400.19 1389.86,1399.6 1404.62,1399.06 1419.39,1398.79 1434.15,1398.59 1448.92,1398.24 1463.68,1396.96 1478.45,1396.53 1493.21,1395.79 1507.97,1395.13 1522.74,1393.5 1537.5,1392.8 1552.27,1391.94 1567.03,1391.01 1581.8,1389.49 1596.56,1388.6 1611.33,1387.7 1626.09,1385.91 1640.86,1384.47 1655.62,1382.53 1670.39,1380.97 1685.15,1378.79 1699.91,1376.85 1714.68,1375.6 1729.44,1373.85 1744.21,1370.78 1758.97,1369.18 1773.74,1367.28 1788.5,1365.25 1803.27,1362.76 1818.03,1359.69 1832.8,1355.53 1847.56,1352.42 1862.33,1347.05 1877.09,1342.42 1891.86,1338.49 1906.62,1332.62 1921.38,1326.9 1936.15,1321.68 1950.91,1313.36 1965.68,1305.89 1980.44,1299.43 1995.21,1291.15 2009.97,1282.86 2024.74,1273.1 2039.5,1263.91 2054.27,1251.74 2069.03,1238.32 2083.8,1224.2 2098.56,1209.22 2113.32,1199.49 2128.09,1187.9 2142.85,1174.75 2157.62,1159.27 2172.38,1143.28 2187.15,1126.01 2201.91,1106.91 2216.68,1090.49 2231.44,1068.67 2246.21,1048.94 2260.97,1024.28 2275.74,1003.54 2290.5,978.297 2305.27,950.521 2320.03,926.285 2334.79,898.081 2349.56,870.966 2364.32,844.746 2379.09,810.707 2393.85,781.803 2408.62,753.677 2423.38,723.956 2438.15,691.317 2452.91,665.136 2467.68,633.003 2482.44,609.506 2497.21,577.218 2511.97,541.272 2526.73,509.1 2541.5,482.297 2556.26,445.262 2571.03,415.502 2585.79,388.037 2600.56,359.133 2615.32,333.925 2630.09,311.712 2644.85,284.519 2659.62,264.679 2674.38,245.073 2689.15,227.022 2703.91,208.466 2718.68,189.287 2733.44,174.971 2748.2,165.635 2762.97,158.905 2777.73,156.298 2792.5,154.626 2807.26,148.635 2822.03,146.145 2836.79,147.468 2851.56,152.525 2866.32,166.919 2881.09,176.878 2895.85,190.221 2910.62,200.53 2925.38,217.686 2940.15,234.958 2954.91,254.681 2969.67,270.865 2984.44,289.732 2999.2,312.84 3013.97,335.636 3028.73,361.428 3043.5,386.52 3058.26,412.312 3073.03,442.072 "/>
<polyline clip-path="url(#clip591)" style="stroke:#ffa500; stroke-linecap:round; stroke-linejoin:round; stroke-width:8; stroke-opacity:1; fill:none" points="415.391,1405.91 430.155,1405.91 444.92,1405.91 459.685,1405.91 474.449,1405.91 489.214,1405.91 503.979,1405.91 518.743,1405.91 533.508,1405.91 548.272,1405.91 563.037,1405.91 577.802,1405.91 592.566,1405.91 607.331,1405.91 622.096,1405.91 636.86,1405.91 651.625,1405.91 666.39,1405.91 681.154,1405.87 695.919,1405.87 710.684,1405.87 725.448,1405.87 740.213,1405.79 754.977,1405.83 769.742,1405.87 784.507,1405.83 799.271,1405.79 814.036,1405.83 828.801,1405.83 843.565,1405.83 858.33,1405.83 873.095,1405.79 887.859,1405.83 902.624,1405.79 917.389,1405.79 932.153,1405.79 946.918,1405.79 961.683,1405.79 976.447,1405.75 991.212,1405.75 1005.98,1405.75 1020.74,1405.79 1035.51,1405.75 1050.27,1405.67 1065.04,1405.63 1079.8,1405.63 1094.56,1405.6 1109.33,1405.6 1124.09,1405.6 1138.86,1405.67 1153.62,1405.6 1168.39,1405.67 1183.15,1405.6 1197.92,1405.6 1212.68,1405.56 1227.45,1405.6 1242.21,1405.63 1256.98,1405.6 1271.74,1405.56 1286.5,1405.52 1301.27,1405.52 1316.03,1405.48 1330.8,1405.4 1345.56,1405.32 1360.33,1405.28 1375.09,1405.13 1389.86,1404.93 1404.62,1404.74 1419.39,1404.74 1434.15,1404.43 1448.92,1404.47 1463.68,1404.43 1478.45,1404.27 1493.21,1404.04 1507.97,1403.92 1522.74,1403.57 1537.5,1403.42 1552.27,1403.22 1567.03,1403.03 1581.8,1402.52 1596.56,1402.41 1611.33,1402.13 1626.09,1401.71 1640.86,1401.39 1655.62,1401.2 1670.39,1401.24 1685.15,1400.93 1699.91,1400.42 1714.68,1400.23 1729.44,1399.25 1744.21,1398.79 1758.97,1398.24 1773.74,1397.78 1788.5,1396.57 1803.27,1395.68 1818.03,1395.6 1832.8,1394.9 1847.56,1393.81 1862.33,1393.22 1877.09,1391.94 1891.86,1390.93 1906.62,1389.68 1921.38,1388.79 1936.15,1387.55 1950.91,1386.38 1965.68,1385.56 1980.44,1383.34 1995.21,1381.44 2009.97,1380.23 2024.74,1377.63 2039.5,1376.15 2054.27,1374.36 2069.03,1373.03 2083.8,1371.05 2098.56,1367.47 2113.32,1365.68 2128.09,1361.68 2142.85,1359.69 2157.62,1356.38 2172.38,1352.14 2187.15,1349.93 2201.91,1346.08 2216.68,1343.2 2231.44,1338.33 2246.21,1334.52 2260.97,1331.1 2275.74,1324.64 2290.5,1319.54 2305.27,1314.92 2320.03,1310.6 2334.79,1306.01 2349.56,1297.64 2364.32,1292.08 2379.09,1287.37 2393.85,1282.82 2408.62,1276.09 2423.38,1267.65 2438.15,1260.57 2452.91,1250.61 2467.68,1240.92 2482.44,1231.82 2497.21,1222.8 2511.97,1215.21 2526.73,1204.55 2541.5,1195.33 2556.26,1187.47 2571.03,1176.04 2585.79,1165.14 2600.56,1154.17 2615.32,1142.23 2630.09,1131.92 2644.85,1121.03 2659.62,1113.52 2674.38,1110.29 2689.15,1103.06 2703.91,1091.97 2718.68,1081.74 2733.44,1070.84 2748.2,1063.57 2762.97,1054.58 2777.73,1049.29 2792.5,1043.65 2807.26,1039.45 2822.03,1033.03 2836.79,1026.38 2851.56,1018.02 2866.32,1011.32 2881.09,1004.52 2895.85,1001.21 2910.62,998.954 2925.38,998.292 2940.15,997.787 2954.91,998.72 2969.67,999.343 2984.44,999.459 2999.2,998.292 3013.97,998.37 3028.73,1003.43 3043.5,1007.59 3058.26,1011.87 3073.03,1014.63 "/>
<path clip-path="url(#clip590)" d="M2639.74 412.064 L3058.85 412.064 L3058.85 152.864 L2639.74 152.864  Z" fill="#ffffff" fill-rule="evenodd" fill-opacity="1"/>
<polyline clip-path="url(#clip590)" style="stroke:#000000; stroke-linecap:round; stroke-linejoin:round; stroke-width:4; stroke-opacity:1; fill:none" points="2639.74,412.064 3058.85,412.064 3058.85,152.864 2639.74,152.864 2639.74,412.064 "/>
<polyline clip-path="url(#clip590)" style="stroke:#0000ff; stroke-linecap:round; stroke-linejoin:round; stroke-width:8; stroke-opacity:1; fill:none" points="2671.04,204.704 2858.84,204.704 "/>
<path clip-path="url(#clip590)" d="M2902.09 190.502 Q2898.48 190.502 2896.65 194.067 Q2894.84 197.609 2894.84 204.738 Q2894.84 211.845 2896.65 215.41 Q2898.48 218.951 2902.09 218.951 Q2905.72 218.951 2907.53 215.41 Q2909.36 211.845 2909.36 204.738 Q2909.36 197.609 2907.53 194.067 Q2905.72 190.502 2902.09 190.502 M2902.09 186.799 Q2907.9 186.799 2910.96 191.405 Q2914.03 195.988 2914.03 204.738 Q2914.03 213.465 2910.96 218.072 Q2907.9 222.655 2902.09 222.655 Q2896.28 222.655 2893.2 218.072 Q2890.15 213.465 2890.15 204.738 Q2890.15 195.988 2893.2 191.405 Q2896.28 186.799 2902.09 186.799 Z" fill="#000000" fill-rule="nonzero" fill-opacity="1" /><path clip-path="url(#clip590)" d="M2919.5 207.331 L2938.57 207.331 L2938.57 210.664 L2919.5 210.664 L2919.5 207.331 Z" fill="#000000" fill-rule="nonzero" fill-opacity="1" /><path clip-path="url(#clip590)" d="M2946.77 218.049 L2954.4 218.049 L2954.4 191.683 L2946.09 193.35 L2946.09 189.09 L2954.36 187.424 L2959.03 187.424 L2959.03 218.049 L2966.67 218.049 L2966.67 221.984 L2946.77 221.984 L2946.77 218.049 Z" fill="#000000" fill-rule="nonzero" fill-opacity="1" /><path clip-path="url(#clip590)" d="M2988.96 191.498 L2977.16 209.947 L2988.96 209.947 L2988.96 191.498 M2987.74 187.424 L2993.62 187.424 L2993.62 209.947 L2998.55 209.947 L2998.55 213.836 L2993.62 213.836 L2993.62 221.984 L2988.96 221.984 L2988.96 213.836 L2973.36 213.836 L2973.36 209.322 L2987.74 187.424 Z" fill="#000000" fill-rule="nonzero" fill-opacity="1" /><polyline clip-path="url(#clip590)" style="stroke:#ff0000; stroke-linecap:round; stroke-linejoin:round; stroke-width:8; stroke-opacity:1; fill:none" points="2671.04,256.544 2858.84,256.544 "/>
<path clip-path="url(#clip590)" d="M2890.82 269.889 L2898.46 269.889 L2898.46 243.523 L2890.15 245.19 L2890.15 240.93 L2898.41 239.264 L2903.08 239.264 L2903.08 269.889 L2910.72 269.889 L2910.72 273.824 L2890.82 273.824 L2890.82 269.889 Z" fill="#000000" fill-rule="nonzero" fill-opacity="1" /><path clip-path="url(#clip590)" d="M2920.21 239.264 L2938.57 239.264 L2938.57 243.199 L2924.5 243.199 L2924.5 251.671 Q2925.52 251.324 2926.53 251.162 Q2927.55 250.977 2928.57 250.977 Q2934.36 250.977 2937.74 254.148 Q2941.12 257.319 2941.12 262.736 Q2941.12 268.314 2937.64 271.416 Q2934.17 274.495 2927.85 274.495 Q2925.68 274.495 2923.41 274.125 Q2921.16 273.754 2918.76 273.014 L2918.76 268.314 Q2920.84 269.449 2923.06 270.004 Q2925.28 270.56 2927.76 270.56 Q2931.77 270.56 2934.1 268.453 Q2936.44 266.347 2936.44 262.736 Q2936.44 259.125 2934.1 257.018 Q2931.77 254.912 2927.76 254.912 Q2925.89 254.912 2924.01 255.328 Q2922.16 255.745 2920.21 256.625 L2920.21 239.264 Z" fill="#000000" fill-rule="nonzero" fill-opacity="1" /><path clip-path="url(#clip590)" d="M2947.58 259.171 L2966.65 259.171 L2966.65 262.504 L2947.58 262.504 L2947.58 259.171 Z" fill="#000000" fill-rule="nonzero" fill-opacity="1" /><path clip-path="url(#clip590)" d="M2978.06 269.889 L2994.38 269.889 L2994.38 273.824 L2972.44 273.824 L2972.44 269.889 Q2975.1 267.134 2979.68 262.504 Q2984.29 257.852 2985.47 256.509 Q2987.71 253.986 2988.59 252.25 Q2989.5 250.491 2989.5 248.801 Q2989.5 246.046 2987.55 244.31 Q2985.63 242.574 2982.53 242.574 Q2980.33 242.574 2977.88 243.338 Q2975.45 244.102 2972.67 245.653 L2972.67 240.93 Q2975.49 239.796 2977.95 239.217 Q2980.4 238.639 2982.44 238.639 Q2987.81 238.639 2991 241.324 Q2994.2 244.009 2994.2 248.5 Q2994.2 250.629 2993.39 252.551 Q2992.6 254.449 2990.49 257.041 Q2989.91 257.713 2986.81 260.93 Q2983.71 264.125 2978.06 269.889 Z" fill="#000000" fill-rule="nonzero" fill-opacity="1" /><path clip-path="url(#clip590)" d="M3004.33 273.106 L3004.33 268.847 Q3006.09 269.68 3007.9 270.12 Q3009.7 270.56 3011.44 270.56 Q3016.07 270.56 3018.5 267.458 Q3020.95 264.333 3021.3 257.99 Q3019.96 259.981 3017.9 261.046 Q3015.84 262.111 3013.34 262.111 Q3008.15 262.111 3005.12 258.986 Q3002.11 255.838 3002.11 250.398 Q3002.11 245.074 3005.26 241.856 Q3008.41 238.639 3013.64 238.639 Q3019.64 238.639 3022.78 243.245 Q3025.95 247.828 3025.95 256.578 Q3025.95 264.75 3022.07 269.634 Q3018.2 274.495 3011.65 274.495 Q3009.89 274.495 3008.08 274.148 Q3006.28 273.801 3004.33 273.106 M3013.64 258.453 Q3016.79 258.453 3018.62 256.301 Q3020.47 254.148 3020.47 250.398 Q3020.47 246.671 3018.62 244.518 Q3016.79 242.342 3013.64 242.342 Q3010.49 242.342 3008.64 244.518 Q3006.81 246.671 3006.81 250.398 Q3006.81 254.148 3008.64 256.301 Q3010.49 258.453 3013.64 258.453 Z" fill="#000000" fill-rule="nonzero" fill-opacity="1" /><polyline clip-path="url(#clip590)" style="stroke:#008000; stroke-linecap:round; stroke-linejoin:round; stroke-width:8; stroke-opacity:1; fill:none" points="2671.04,308.384 2858.84,308.384 "/>
<path clip-path="url(#clip590)" d="M2905.77 307.03 Q2909.13 307.747 2911 310.016 Q2912.9 312.284 2912.9 315.617 Q2912.9 320.733 2909.38 323.534 Q2905.86 326.335 2899.38 326.335 Q2897.21 326.335 2894.89 325.895 Q2892.6 325.479 2890.15 324.622 L2890.15 320.108 Q2892.09 321.242 2894.4 321.821 Q2896.72 322.4 2899.24 322.4 Q2903.64 322.4 2905.93 320.664 Q2908.25 318.928 2908.25 315.617 Q2908.25 312.562 2906.09 310.849 Q2903.96 309.113 2900.14 309.113 L2896.12 309.113 L2896.12 305.27 L2900.33 305.27 Q2903.78 305.27 2905.61 303.905 Q2907.44 302.516 2907.44 299.923 Q2907.44 297.261 2905.54 295.849 Q2903.66 294.414 2900.14 294.414 Q2898.22 294.414 2896.02 294.831 Q2893.83 295.247 2891.19 296.127 L2891.19 291.96 Q2893.85 291.219 2896.16 290.849 Q2898.5 290.479 2900.56 290.479 Q2905.89 290.479 2908.99 292.909 Q2912.09 295.317 2912.09 299.437 Q2912.09 302.307 2910.45 304.298 Q2908.8 306.266 2905.77 307.03 Z" fill="#000000" fill-rule="nonzero" fill-opacity="1" /><path clip-path="url(#clip590)" d="M2931.77 294.182 Q2928.15 294.182 2926.33 297.747 Q2924.52 301.289 2924.52 308.418 Q2924.52 315.525 2926.33 319.09 Q2928.15 322.631 2931.77 322.631 Q2935.4 322.631 2937.2 319.09 Q2939.03 315.525 2939.03 308.418 Q2939.03 301.289 2937.2 297.747 Q2935.4 294.182 2931.77 294.182 M2931.77 290.479 Q2937.58 290.479 2940.63 295.085 Q2943.71 299.668 2943.71 308.418 Q2943.71 317.145 2940.63 321.752 Q2937.58 326.335 2931.77 326.335 Q2925.96 326.335 2922.88 321.752 Q2919.82 317.145 2919.82 308.418 Q2919.82 299.668 2922.88 295.085 Q2925.96 290.479 2931.77 290.479 Z" fill="#000000" fill-rule="nonzero" fill-opacity="1" /><path clip-path="url(#clip590)" d="M2949.17 311.011 L2968.25 311.011 L2968.25 314.344 L2949.17 314.344 L2949.17 311.011 Z" fill="#000000" fill-rule="nonzero" fill-opacity="1" /><path clip-path="url(#clip590)" d="M2988.48 295.178 L2976.67 313.627 L2988.48 313.627 L2988.48 295.178 M2987.25 291.104 L2993.13 291.104 L2993.13 313.627 L2998.06 313.627 L2998.06 317.516 L2993.13 317.516 L2993.13 325.664 L2988.48 325.664 L2988.48 317.516 L2972.88 317.516 L2972.88 313.002 L2987.25 291.104 Z" fill="#000000" fill-rule="nonzero" fill-opacity="1" /><path clip-path="url(#clip590)" d="M3005.93 324.946 L3005.93 320.687 Q3007.69 321.52 3009.5 321.96 Q3011.3 322.4 3013.04 322.4 Q3017.67 322.4 3020.1 319.298 Q3022.55 316.173 3022.9 309.83 Q3021.56 311.821 3019.5 312.886 Q3017.44 313.951 3014.94 313.951 Q3009.75 313.951 3006.72 310.826 Q3003.71 307.678 3003.71 302.238 Q3003.71 296.914 3006.86 293.696 Q3010.01 290.479 3015.24 290.479 Q3021.23 290.479 3024.38 295.085 Q3027.55 299.668 3027.55 308.418 Q3027.55 316.59 3023.66 321.474 Q3019.8 326.335 3013.25 326.335 Q3011.49 326.335 3009.68 325.988 Q3007.88 325.641 3005.93 324.946 M3015.24 310.293 Q3018.39 310.293 3020.21 308.141 Q3022.07 305.988 3022.07 302.238 Q3022.07 298.511 3020.21 296.358 Q3018.39 294.182 3015.24 294.182 Q3012.09 294.182 3010.24 296.358 Q3008.41 298.511 3008.41 302.238 Q3008.41 305.988 3010.24 308.141 Q3012.09 310.293 3015.24 310.293 Z" fill="#000000" fill-rule="nonzero" fill-opacity="1" /><polyline clip-path="url(#clip590)" style="stroke:#ffa500; stroke-linecap:round; stroke-linejoin:round; stroke-width:8; stroke-opacity:1; fill:none" points="2671.04,360.224 2858.84,360.224 "/>
<path clip-path="url(#clip590)" d="M2891.6 342.944 L2909.96 342.944 L2909.96 346.879 L2895.89 346.879 L2895.89 355.351 Q2896.9 355.004 2897.92 354.842 Q2898.94 354.657 2899.96 354.657 Q2905.75 354.657 2909.13 357.828 Q2912.51 360.999 2912.51 366.416 Q2912.51 371.994 2909.03 375.096 Q2905.56 378.175 2899.24 378.175 Q2897.07 378.175 2894.8 377.805 Q2892.55 377.434 2890.15 376.694 L2890.15 371.994 Q2892.23 373.129 2894.45 373.684 Q2896.67 374.24 2899.15 374.24 Q2903.15 374.24 2905.49 372.133 Q2907.83 370.027 2907.83 366.416 Q2907.83 362.805 2905.49 360.698 Q2903.15 358.592 2899.15 358.592 Q2897.27 358.592 2895.4 359.008 Q2893.55 359.425 2891.6 360.305 L2891.6 342.944 Z" fill="#000000" fill-rule="nonzero" fill-opacity="1" /><path clip-path="url(#clip590)" d="M2931.72 346.022 Q2928.11 346.022 2926.28 349.587 Q2924.47 353.129 2924.47 360.258 Q2924.47 367.365 2926.28 370.93 Q2928.11 374.471 2931.72 374.471 Q2935.35 374.471 2937.16 370.93 Q2938.99 367.365 2938.99 360.258 Q2938.99 353.129 2937.16 349.587 Q2935.35 346.022 2931.72 346.022 M2931.72 342.319 Q2937.53 342.319 2940.58 346.925 Q2943.66 351.508 2943.66 360.258 Q2943.66 368.985 2940.58 373.592 Q2937.53 378.175 2931.72 378.175 Q2925.91 378.175 2922.83 373.592 Q2919.77 368.985 2919.77 360.258 Q2919.77 351.508 2922.83 346.925 Q2925.91 342.319 2931.72 342.319 Z" fill="#000000" fill-rule="nonzero" fill-opacity="1" /><path clip-path="url(#clip590)" d="M2968.62 347.782 L2968.62 360.675 L2981.51 360.675 L2981.51 364.61 L2968.62 364.61 L2968.62 377.504 L2964.73 377.504 L2964.73 364.61 L2951.83 364.61 L2951.83 360.675 L2964.73 360.675 L2964.73 347.782 L2968.62 347.782 Z" fill="#000000" fill-rule="nonzero" fill-opacity="1" /></svg>
