<?xml version="1.0" encoding="utf-8"?>
<svg xmlns="http://www.w3.org/2000/svg" xmlns:xlink="http://www.w3.org/1999/xlink" width="800" height="400" viewBox="0 0 3200 1600">
<defs>
  <clipPath id="clip620">
    <rect x="0" y="0" width="3200" height="1600"/>
  </clipPath>
</defs>
<path clip-path="url(#clip620)" d="M0 1600 L3200 1600 L3200 0 L0 0  Z" fill="#ffffff" fill-rule="evenodd" fill-opacity="1"/>
<defs>
  <clipPath id="clip621">
    <rect x="336" y="108" width="2817" height="1336"/>
  </clipPath>
</defs>
<path clip-path="url(#clip620)" d="M336.819 1443.7 L3152.76 1443.7 L3152.76 108.352 L336.819 108.352  Z" fill="#ffffff" fill-rule="evenodd" fill-opacity="1"/>
<polyline clip-path="url(#clip621)" style="stroke:#000000; stroke-linecap:round; stroke-linejoin:round; stroke-width:2; stroke-opacity:0.1; fill:none" points="416.515,1443.7 416.515,108.352 "/>
<polyline clip-path="url(#clip621)" style="stroke:#000000; stroke-linecap:round; stroke-linejoin:round; stroke-width:2; stroke-opacity:0.1; fill:none" points="1154.44,1443.7 1154.44,108.352 "/>
<polyline clip-path="url(#clip621)" style="stroke:#000000; stroke-linecap:round; stroke-linejoin:round; stroke-width:2; stroke-opacity:0.1; fill:none" points="1892.37,1443.7 1892.37,108.352 "/>
<polyline clip-path="url(#clip621)" style="stroke:#000000; stroke-linecap:round; stroke-linejoin:round; stroke-width:2; stroke-opacity:0.1; fill:none" points="2630.3,1443.7 2630.3,108.352 "/>
<polyline clip-path="url(#clip621)" style="stroke:#000000; stroke-linecap:round; stroke-linejoin:round; stroke-width:2; stroke-opacity:0.1; fill:none" points="336.819,1405.91 3152.76,1405.91 "/>
<polyline clip-path="url(#clip621)" style="stroke:#000000; stroke-linecap:round; stroke-linejoin:round; stroke-width:2; stroke-opacity:0.1; fill:none" points="336.819,1095.37 3152.76,1095.37 "/>
<polyline clip-path="url(#clip621)" style="stroke:#000000; stroke-linecap:round; stroke-linejoin:round; stroke-width:2; stroke-opacity:0.1; fill:none" points="336.819,784.837 3152.76,784.837 "/>
<polyline clip-path="url(#clip621)" style="stroke:#000000; stroke-linecap:round; stroke-linejoin:round; stroke-width:2; stroke-opacity:0.1; fill:none" points="336.819,474.303 3152.76,474.303 "/>
<polyline clip-path="url(#clip621)" style="stroke:#000000; stroke-linecap:round; stroke-linejoin:round; stroke-width:2; stroke-opacity:0.1; fill:none" points="336.819,163.768 3152.76,163.768 "/>
<polyline clip-path="url(#clip620)" style="stroke:#000000; stroke-linecap:round; stroke-linejoin:round; stroke-width:4; stroke-opacity:1; fill:none" points="336.819,1443.7 3152.76,1443.7 "/>
<polyline clip-path="url(#clip620)" style="stroke:#000000; stroke-linecap:round; stroke-linejoin:round; stroke-width:4; stroke-opacity:1; fill:none" points="416.515,1443.7 416.515,1424.8 "/>
<polyline clip-path="url(#clip620)" style="stroke:#000000; stroke-linecap:round; stroke-linejoin:round; stroke-width:4; stroke-opacity:1; fill:none" points="1154.44,1443.7 1154.44,1424.8 "/>
<polyline clip-path="url(#clip620)" style="stroke:#000000; stroke-linecap:round; stroke-linejoin:round; stroke-width:4; stroke-opacity:1; fill:none" points="1892.37,1443.7 1892.37,1424.8 "/>
<polyline clip-path="url(#clip620)" style="stroke:#000000; stroke-linecap:round; stroke-linejoin:round; stroke-width:4; stroke-opacity:1; fill:none" points="2630.3,1443.7 2630.3,1424.8 "/>
<path clip-path="url(#clip620)" d="M416.515 1481.02 Q412.904 1481.02 411.075 1484.58 Q409.27 1488.12 409.27 1495.25 Q409.27 1502.36 411.075 1505.93 Q412.904 1509.47 416.515 1509.47 Q420.15 1509.47 421.955 1505.93 Q423.784 1502.36 423.784 1495.25 Q423.784 1488.12 421.955 1484.58 Q420.15 1481.02 416.515 1481.02 M416.515 1477.31 Q422.325 1477.31 425.381 1481.92 Q428.46 1486.5 428.46 1495.25 Q428.46 1503.98 425.381 1508.59 Q422.325 1513.17 416.515 1513.17 Q410.705 1513.17 407.626 1508.59 Q404.571 1503.98 404.571 1495.25 Q404.571 1486.5 407.626 1481.92 Q410.705 1477.31 416.515 1477.31 Z" fill="#000000" fill-rule="nonzero" fill-opacity="1" /><path clip-path="url(#clip620)" d="M1129.14 1477.94 L1147.5 1477.94 L1147.5 1481.88 L1133.43 1481.88 L1133.43 1490.35 Q1134.44 1490 1135.46 1489.84 Q1136.48 1489.65 1137.5 1489.65 Q1143.29 1489.65 1146.67 1492.82 Q1150.05 1496 1150.05 1501.41 Q1150.05 1506.99 1146.57 1510.09 Q1143.1 1513.17 1136.78 1513.17 Q1134.61 1513.17 1132.34 1512.8 Q1130.09 1512.43 1127.69 1511.69 L1127.69 1506.99 Q1129.77 1508.12 1131.99 1508.68 Q1134.21 1509.24 1136.69 1509.24 Q1140.69 1509.24 1143.03 1507.13 Q1145.37 1505.02 1145.37 1501.41 Q1145.37 1497.8 1143.03 1495.69 Q1140.69 1493.59 1136.69 1493.59 Q1134.81 1493.59 1132.94 1494 Q1131.09 1494.42 1129.14 1495.3 L1129.14 1477.94 Z" fill="#000000" fill-rule="nonzero" fill-opacity="1" /><path clip-path="url(#clip620)" d="M1169.26 1481.02 Q1165.65 1481.02 1163.82 1484.58 Q1162.01 1488.12 1162.01 1495.25 Q1162.01 1502.36 1163.82 1505.93 Q1165.65 1509.47 1169.26 1509.47 Q1172.89 1509.47 1174.7 1505.93 Q1176.53 1502.36 1176.53 1495.25 Q1176.53 1488.12 1174.7 1484.58 Q1172.89 1481.02 1169.26 1481.02 M1169.26 1477.31 Q1175.07 1477.31 1178.12 1481.92 Q1181.2 1486.5 1181.2 1495.25 Q1181.2 1503.98 1178.12 1508.59 Q1175.07 1513.17 1169.26 1513.17 Q1163.45 1513.17 1160.37 1508.59 Q1157.31 1503.98 1157.31 1495.25 Q1157.31 1486.5 1160.37 1481.92 Q1163.45 1477.31 1169.26 1477.31 Z" fill="#000000" fill-rule="nonzero" fill-opacity="1" /><path clip-path="url(#clip620)" d="M1851.98 1508.56 L1859.62 1508.56 L1859.62 1482.2 L1851.31 1483.87 L1851.31 1479.61 L1859.57 1477.94 L1864.25 1477.94 L1864.25 1508.56 L1871.89 1508.56 L1871.89 1512.5 L1851.98 1512.5 L1851.98 1508.56 Z" fill="#000000" fill-rule="nonzero" fill-opacity="1" /><path clip-path="url(#clip620)" d="M1891.33 1481.02 Q1887.72 1481.02 1885.89 1484.58 Q1884.09 1488.12 1884.09 1495.25 Q1884.09 1502.36 1885.89 1505.93 Q1887.72 1509.47 1891.33 1509.47 Q1894.97 1509.47 1896.77 1505.93 Q1898.6 1502.36 1898.6 1495.25 Q1898.6 1488.12 1896.77 1484.58 Q1894.97 1481.02 1891.33 1481.02 M1891.33 1477.31 Q1897.14 1477.31 1900.2 1481.92 Q1903.28 1486.5 1903.28 1495.25 Q1903.28 1503.98 1900.2 1508.59 Q1897.14 1513.17 1891.33 1513.17 Q1885.52 1513.17 1882.44 1508.59 Q1879.39 1503.98 1879.39 1495.25 Q1879.39 1486.5 1882.44 1481.92 Q1885.52 1477.31 1891.33 1477.31 Z" fill="#000000" fill-rule="nonzero" fill-opacity="1" /><path clip-path="url(#clip620)" d="M1921.49 1481.02 Q1917.88 1481.02 1916.05 1484.58 Q1914.25 1488.12 1914.25 1495.25 Q1914.25 1502.36 1916.05 1505.93 Q1917.88 1509.47 1921.49 1509.47 Q1925.13 1509.47 1926.93 1505.93 Q1928.76 1502.36 1928.76 1495.25 Q1928.76 1488.12 1926.93 1484.58 Q1925.13 1481.02 1921.49 1481.02 M1921.49 1477.31 Q1927.3 1477.31 1930.36 1481.92 Q1933.44 1486.5 1933.44 1495.25 Q1933.44 1503.98 1930.36 1508.59 Q1927.3 1513.17 1921.49 1513.17 Q1915.68 1513.17 1912.6 1508.59 Q1909.55 1503.98 1909.55 1495.25 Q1909.55 1486.5 1912.6 1481.92 Q1915.68 1477.31 1921.49 1477.31 Z" fill="#000000" fill-rule="nonzero" fill-opacity="1" /><path clip-path="url(#clip620)" d="M2589.91 1508.56 L2597.55 1508.56 L2597.55 1482.2 L2589.24 1483.87 L2589.24 1479.61 L2597.5 1477.94 L2602.18 1477.94 L2602.18 1508.56 L2609.82 1508.56 L2609.82 1512.5 L2589.91 1512.5 L2589.91 1508.56 Z" fill="#000000" fill-rule="nonzero" fill-opacity="1" /><path clip-path="url(#clip620)" d="M2619.31 1477.94 L2637.66 1477.94 L2637.66 1481.88 L2623.59 1481.88 L2623.59 1490.35 Q2624.61 1490 2625.63 1489.84 Q2626.64 1489.65 2627.66 1489.65 Q2633.45 1489.65 2636.83 1492.82 Q2640.21 1496 2640.21 1501.41 Q2640.21 1506.99 2636.74 1510.09 Q2633.27 1513.17 2626.95 1513.17 Q2624.77 1513.17 2622.5 1512.8 Q2620.26 1512.43 2617.85 1511.69 L2617.85 1506.99 Q2619.93 1508.12 2622.15 1508.68 Q2624.38 1509.24 2626.85 1509.24 Q2630.86 1509.24 2633.2 1507.13 Q2635.53 1505.02 2635.53 1501.41 Q2635.53 1497.8 2633.2 1495.69 Q2630.86 1493.59 2626.85 1493.59 Q2624.98 1493.59 2623.1 1494 Q2621.25 1494.42 2619.31 1495.3 L2619.31 1477.94 Z" fill="#000000" fill-rule="nonzero" fill-opacity="1" /><path clip-path="url(#clip620)" d="M2659.42 1481.02 Q2655.81 1481.02 2653.98 1484.58 Q2652.18 1488.12 2652.18 1495.25 Q2652.18 1502.36 2653.98 1505.93 Q2655.81 1509.47 2659.42 1509.47 Q2663.06 1509.47 2664.86 1505.93 Q2666.69 1502.36 2666.69 1495.25 Q2666.69 1488.12 2664.86 1484.58 Q2663.06 1481.02 2659.42 1481.02 M2659.42 1477.31 Q2665.23 1477.31 2668.29 1481.92 Q2671.37 1486.5 2671.37 1495.25 Q2671.37 1503.98 2668.29 1508.59 Q2665.23 1513.17 2659.42 1513.17 Q2653.61 1513.17 2650.53 1508.59 Q2647.48 1503.98 2647.48 1495.25 Q2647.48 1486.5 2650.53 1481.92 Q2653.61 1477.31 2659.42 1477.31 Z" fill="#000000" fill-rule="nonzero" fill-opacity="1" /><path clip-path="url(#clip620)" d="M1691.03 1558.33 L1691.03 1595.28 L1698.8 1595.28 Q1708.63 1595.28 1713.18 1590.82 Q1717.77 1586.37 1717.77 1576.76 Q1717.77 1567.21 1713.18 1562.78 Q1708.63 1558.33 1698.8 1558.33 L1691.03 1558.33 M1684.6 1553.04 L1697.81 1553.04 Q1711.62 1553.04 1718.08 1558.8 Q1724.54 1564.53 1724.54 1576.76 Q1724.54 1589.04 1718.05 1594.8 Q1711.56 1600.56 1697.81 1600.56 L1684.6 1600.56 L1684.6 1553.04 Z" fill="#000000" fill-rule="nonzero" fill-opacity="1" /><path clip-path="url(#clip620)" d="M1750.74 1582.64 Q1743.64 1582.64 1740.9 1584.27 Q1738.17 1585.89 1738.17 1589.81 Q1738.17 1592.92 1740.2 1594.77 Q1742.27 1596.59 1745.81 1596.59 Q1750.68 1596.59 1753.6 1593.15 Q1756.56 1589.68 1756.56 1583.95 L1756.56 1582.64 L1750.74 1582.64 M1762.42 1580.23 L1762.42 1600.56 L1756.56 1600.56 L1756.56 1595.15 Q1754.56 1598.4 1751.57 1599.96 Q1748.58 1601.49 1744.25 1601.49 Q1738.77 1601.49 1735.53 1598.43 Q1732.31 1595.34 1732.31 1590.19 Q1732.31 1584.17 1736.32 1581.12 Q1740.36 1578.06 1748.35 1578.06 L1756.56 1578.06 L1756.56 1577.49 Q1756.56 1573.45 1753.89 1571.25 Q1751.25 1569.02 1746.44 1569.02 Q1743.39 1569.02 1740.49 1569.75 Q1737.59 1570.49 1734.92 1571.95 L1734.92 1566.54 Q1738.14 1565.3 1741.16 1564.69 Q1744.18 1564.06 1747.05 1564.06 Q1754.78 1564.06 1758.6 1568.07 Q1762.42 1572.08 1762.42 1580.23 Z" fill="#000000" fill-rule="nonzero" fill-opacity="1" /><path clip-path="url(#clip620)" d="M1789.32 1603.87 Q1786.83 1610.24 1784.48 1612.18 Q1782.12 1614.12 1778.18 1614.12 L1773.5 1614.12 L1773.5 1609.22 L1776.93 1609.22 Q1779.35 1609.22 1780.69 1608.08 Q1782.03 1606.93 1783.65 1602.66 L1784.7 1599.99 L1770.28 1564.92 L1776.49 1564.92 L1787.63 1592.8 L1798.77 1564.92 L1804.98 1564.92 L1789.32 1603.87 Z" fill="#000000" fill-rule="nonzero" fill-opacity="1" /><polyline clip-path="url(#clip620)" style="stroke:#000000; stroke-linecap:round; stroke-linejoin:round; stroke-width:4; stroke-opacity:1; fill:none" points="336.819,1443.7 336.819,108.352 "/>
<polyline clip-path="url(#clip620)" style="stroke:#000000; stroke-linecap:round; stroke-linejoin:round; stroke-width:4; stroke-opacity:1; fill:none" points="336.819,1405.91 355.717,1405.91 "/>
<polyline clip-path="url(#clip620)" style="stroke:#000000; stroke-linecap:round; stroke-linejoin:round; stroke-width:4; stroke-opacity:1; fill:none" points="336.819,1095.37 355.717,1095.37 "/>
<polyline clip-path="url(#clip620)" style="stroke:#000000; stroke-linecap:round; stroke-linejoin:round; stroke-width:4; stroke-opacity:1; fill:none" points="336.819,784.837 355.717,784.837 "/>
<polyline clip-path="url(#clip620)" style="stroke:#000000; stroke-linecap:round; stroke-linejoin:round; stroke-width:4; stroke-opacity:1; fill:none" points="336.819,474.303 355.717,474.303 "/>
<polyline clip-path="url(#clip620)" style="stroke:#000000; stroke-linecap:round; stroke-linejoin:round; stroke-width:4; stroke-opacity:1; fill:none" points="336.819,163.768 355.717,163.768 "/>
<path clip-path="url(#clip620)" d="M276.875 1391.71 Q273.263 1391.71 271.435 1395.27 Q269.629 1398.81 269.629 1405.94 Q269.629 1413.05 271.435 1416.61 Q273.263 1420.15 276.875 1420.15 Q280.509 1420.15 282.314 1416.61 Q284.143 1413.05 284.143 1405.94 Q284.143 1398.81 282.314 1395.27 Q280.509 1391.71 276.875 1391.71 M276.875 1388 Q282.685 1388 285.74 1392.61 Q288.819 1397.19 288.819 1405.94 Q288.819 1414.67 285.74 1419.27 Q282.685 1423.86 276.875 1423.86 Q271.064 1423.86 267.986 1419.27 Q264.93 1414.67 264.93 1405.94 Q264.93 1397.19 267.986 1392.61 Q271.064 1388 276.875 1388 Z" fill="#000000" fill-rule="nonzero" fill-opacity="1" /><path clip-path="url(#clip620)" d="M105.163 1115.16 L121.482 1115.16 L121.482 1119.1 L99.5376 1119.1 L99.5376 1115.16 Q102.2 1112.41 106.783 1107.78 Q111.389 1103.13 112.57 1101.79 Q114.815 1099.26 115.695 1097.53 Q116.598 1095.77 116.598 1094.08 Q116.598 1091.32 114.653 1089.59 Q112.732 1087.85 109.63 1087.85 Q107.431 1087.85 104.977 1088.61 Q102.547 1089.38 99.769 1090.93 L99.769 1086.21 Q102.593 1085.07 105.047 1084.49 Q107.5 1083.91 109.538 1083.91 Q114.908 1083.91 118.102 1086.6 Q121.297 1089.29 121.297 1093.78 Q121.297 1095.91 120.487 1097.83 Q119.699 1099.72 117.593 1102.32 Q117.014 1102.99 113.912 1106.21 Q110.811 1109.4 105.163 1115.16 Z" fill="#000000" fill-rule="nonzero" fill-opacity="1" /><path clip-path="url(#clip620)" d="M131.297 1113.22 L136.181 1113.22 L136.181 1119.1 L131.297 1119.1 L131.297 1113.22 Z" fill="#000000" fill-rule="nonzero" fill-opacity="1" /><path clip-path="url(#clip620)" d="M156.366 1087.62 Q152.755 1087.62 150.926 1091.18 Q149.121 1094.72 149.121 1101.85 Q149.121 1108.96 150.926 1112.53 Q152.755 1116.07 156.366 1116.07 Q160 1116.07 161.806 1112.53 Q163.634 1108.96 163.634 1101.85 Q163.634 1094.72 161.806 1091.18 Q160 1087.62 156.366 1087.62 M156.366 1083.91 Q162.176 1083.91 165.232 1088.52 Q168.31 1093.1 168.31 1101.85 Q168.31 1110.58 165.232 1115.19 Q162.176 1119.77 156.366 1119.77 Q150.556 1119.77 147.477 1115.19 Q144.422 1110.58 144.422 1101.85 Q144.422 1093.1 147.477 1088.52 Q150.556 1083.91 156.366 1083.91 Z" fill="#000000" fill-rule="nonzero" fill-opacity="1" /><path clip-path="url(#clip620)" d="M204.699 1093.64 L194.12 1104.26 L204.699 1114.84 L201.944 1117.64 L191.319 1107.02 L180.695 1117.64 L177.963 1114.84 L188.519 1104.26 L177.963 1093.64 L180.695 1090.84 L191.319 1101.46 L201.944 1090.84 L204.699 1093.64 Z" fill="#000000" fill-rule="nonzero" fill-opacity="1" /><path clip-path="url(#clip620)" d="M217.06 1115.16 L224.699 1115.16 L224.699 1088.8 L216.389 1090.47 L216.389 1086.21 L224.653 1084.54 L229.329 1084.54 L229.329 1115.16 L236.967 1115.16 L236.967 1119.1 L217.06 1119.1 L217.06 1115.16 Z" fill="#000000" fill-rule="nonzero" fill-opacity="1" /><path clip-path="url(#clip620)" d="M256.412 1087.62 Q252.801 1087.62 250.972 1091.18 Q249.166 1094.72 249.166 1101.85 Q249.166 1108.96 250.972 1112.53 Q252.801 1116.07 256.412 1116.07 Q260.046 1116.07 261.852 1112.53 Q263.68 1108.96 263.68 1101.85 Q263.68 1094.72 261.852 1091.18 Q260.046 1087.62 256.412 1087.62 M256.412 1083.91 Q262.222 1083.91 265.277 1088.52 Q268.356 1093.1 268.356 1101.85 Q268.356 1110.58 265.277 1115.19 Q262.222 1119.77 256.412 1119.77 Q250.602 1119.77 247.523 1115.19 Q244.467 1110.58 244.467 1101.85 Q244.467 1093.1 247.523 1088.52 Q250.602 1083.91 256.412 1083.91 Z" fill="#000000" fill-rule="nonzero" fill-opacity="1" /><path clip-path="url(#clip620)" d="M281.033 1066.92 L271.441 1081.91 L281.033 1081.91 L281.033 1066.92 M280.036 1063.61 L284.813 1063.61 L284.813 1081.91 L288.819 1081.91 L288.819 1085.07 L284.813 1085.07 L284.813 1091.69 L281.033 1091.69 L281.033 1085.07 L268.356 1085.07 L268.356 1081.4 L280.036 1063.61 Z" fill="#000000" fill-rule="nonzero" fill-opacity="1" /><path clip-path="url(#clip620)" d="M113.982 778.079 L102.176 796.528 L113.982 796.528 L113.982 778.079 M112.755 774.005 L118.635 774.005 L118.635 796.528 L123.565 796.528 L123.565 800.417 L118.635 800.417 L118.635 808.565 L113.982 808.565 L113.982 800.417 L98.3802 800.417 L98.3802 795.903 L112.755 774.005 Z" fill="#000000" fill-rule="nonzero" fill-opacity="1" /><path clip-path="url(#clip620)" d="M131.297 802.685 L136.181 802.685 L136.181 808.565 L131.297 808.565 L131.297 802.685 Z" fill="#000000" fill-rule="nonzero" fill-opacity="1" /><path clip-path="url(#clip620)" d="M156.366 777.084 Q152.755 777.084 150.926 780.648 Q149.121 784.19 149.121 791.32 Q149.121 798.426 150.926 801.991 Q152.755 805.533 156.366 805.533 Q160 805.533 161.806 801.991 Q163.634 798.426 163.634 791.32 Q163.634 784.19 161.806 780.648 Q160 777.084 156.366 777.084 M156.366 773.38 Q162.176 773.38 165.232 777.986 Q168.31 782.57 168.31 791.32 Q168.31 800.047 165.232 804.653 Q162.176 809.236 156.366 809.236 Q150.556 809.236 147.477 804.653 Q144.422 800.047 144.422 791.32 Q144.422 782.57 147.477 777.986 Q150.556 773.38 156.366 773.38 Z" fill="#000000" fill-rule="nonzero" fill-opacity="1" /><path clip-path="url(#clip620)" d="M204.699 783.102 L194.12 793.727 L204.699 804.306 L201.944 807.107 L191.319 796.482 L180.695 807.107 L177.963 804.306 L188.519 793.727 L177.963 783.102 L180.695 780.301 L191.319 790.926 L201.944 780.301 L204.699 783.102 Z" fill="#000000" fill-rule="nonzero" fill-opacity="1" /><path clip-path="url(#clip620)" d="M217.06 804.63 L224.699 804.63 L224.699 778.264 L216.389 779.931 L216.389 775.672 L224.653 774.005 L229.329 774.005 L229.329 804.63 L236.967 804.63 L236.967 808.565 L217.06 808.565 L217.06 804.63 Z" fill="#000000" fill-rule="nonzero" fill-opacity="1" /><path clip-path="url(#clip620)" d="M256.412 777.084 Q252.801 777.084 250.972 780.648 Q249.166 784.19 249.166 791.32 Q249.166 798.426 250.972 801.991 Q252.801 805.533 256.412 805.533 Q260.046 805.533 261.852 801.991 Q263.68 798.426 263.68 791.32 Q263.68 784.19 261.852 780.648 Q260.046 777.084 256.412 777.084 M256.412 773.38 Q262.222 773.38 265.277 777.986 Q268.356 782.57 268.356 791.32 Q268.356 800.047 265.277 804.653 Q262.222 809.236 256.412 809.236 Q250.602 809.236 247.523 804.653 Q244.467 800.047 244.467 791.32 Q244.467 782.57 247.523 777.986 Q250.602 773.38 256.412 773.38 Z" fill="#000000" fill-rule="nonzero" fill-opacity="1" /><path clip-path="url(#clip620)" d="M281.033 756.385 L271.441 771.375 L281.033 771.375 L281.033 756.385 M280.036 753.075 L284.813 753.075 L284.813 771.375 L288.819 771.375 L288.819 774.534 L284.813 774.534 L284.813 781.155 L281.033 781.155 L281.033 774.534 L268.356 774.534 L268.356 770.867 L280.036 753.075 Z" fill="#000000" fill-rule="nonzero" fill-opacity="1" /><path clip-path="url(#clip620)" d="M111.713 478.887 Q108.565 478.887 106.713 481.04 Q104.885 483.192 104.885 486.942 Q104.885 490.669 106.713 492.845 Q108.565 494.998 111.713 494.998 Q114.862 494.998 116.69 492.845 Q118.542 490.669 118.542 486.942 Q118.542 483.192 116.69 481.04 Q114.862 478.887 111.713 478.887 M120.996 464.234 L120.996 468.493 Q119.237 467.66 117.431 467.22 Q115.649 466.78 113.889 466.78 Q109.26 466.78 106.806 469.905 Q104.375 473.03 104.028 479.35 Q105.394 477.336 107.454 476.271 Q109.514 475.183 111.991 475.183 Q117.2 475.183 120.209 478.354 Q123.241 481.503 123.241 486.942 Q123.241 492.266 120.093 495.484 Q116.945 498.702 111.713 498.702 Q105.718 498.702 102.547 494.118 Q99.3755 489.512 99.3755 480.785 Q99.3755 472.591 103.264 467.729 Q107.153 462.845 113.704 462.845 Q115.463 462.845 117.246 463.192 Q119.051 463.54 120.996 464.234 Z" fill="#000000" fill-rule="nonzero" fill-opacity="1" /><path clip-path="url(#clip620)" d="M131.297 492.151 L136.181 492.151 L136.181 498.03 L131.297 498.03 L131.297 492.151 Z" fill="#000000" fill-rule="nonzero" fill-opacity="1" /><path clip-path="url(#clip620)" d="M156.366 466.549 Q152.755 466.549 150.926 470.114 Q149.121 473.655 149.121 480.785 Q149.121 487.891 150.926 491.456 Q152.755 494.998 156.366 494.998 Q160 494.998 161.806 491.456 Q163.634 487.891 163.634 480.785 Q163.634 473.655 161.806 470.114 Q160 466.549 156.366 466.549 M156.366 462.845 Q162.176 462.845 165.232 467.452 Q168.31 472.035 168.31 480.785 Q168.31 489.512 165.232 494.118 Q162.176 498.702 156.366 498.702 Q150.556 498.702 147.477 494.118 Q144.422 489.512 144.422 480.785 Q144.422 472.035 147.477 467.452 Q150.556 462.845 156.366 462.845 Z" fill="#000000" fill-rule="nonzero" fill-opacity="1" /><path clip-path="url(#clip620)" d="M204.699 472.567 L194.12 483.192 L204.699 493.771 L201.944 496.572 L191.319 485.947 L180.695 496.572 L177.963 493.771 L188.519 483.192 L177.963 472.567 L180.695 469.766 L191.319 480.391 L201.944 469.766 L204.699 472.567 Z" fill="#000000" fill-rule="nonzero" fill-opacity="1" /><path clip-path="url(#clip620)" d="M217.06 494.095 L224.699 494.095 L224.699 467.729 L216.389 469.396 L216.389 465.137 L224.653 463.47 L229.329 463.47 L229.329 494.095 L236.967 494.095 L236.967 498.03 L217.06 498.03 L217.06 494.095 Z" fill="#000000" fill-rule="nonzero" fill-opacity="1" /><path clip-path="url(#clip620)" d="M256.412 466.549 Q252.801 466.549 250.972 470.114 Q249.166 473.655 249.166 480.785 Q249.166 487.891 250.972 491.456 Q252.801 494.998 256.412 494.998 Q260.046 494.998 261.852 491.456 Q263.68 487.891 263.68 480.785 Q263.68 473.655 261.852 470.114 Q260.046 466.549 256.412 466.549 M256.412 462.845 Q262.222 462.845 265.277 467.452 Q268.356 472.035 268.356 480.785 Q268.356 489.512 265.277 494.118 Q262.222 498.702 256.412 498.702 Q250.602 498.702 247.523 494.118 Q244.467 489.512 244.467 480.785 Q244.467 472.035 247.523 467.452 Q250.602 462.845 256.412 462.845 Z" fill="#000000" fill-rule="nonzero" fill-opacity="1" /><path clip-path="url(#clip620)" d="M281.033 445.85 L271.441 460.84 L281.033 460.84 L281.033 445.85 M280.036 442.54 L284.813 442.54 L284.813 460.84 L288.819 460.84 L288.819 463.999 L284.813 463.999 L284.813 470.62 L281.033 470.62 L281.033 463.999 L268.356 463.999 L268.356 460.332 L280.036 442.54 Z" fill="#000000" fill-rule="nonzero" fill-opacity="1" /><path clip-path="url(#clip620)" d="M111.135 171.083 Q107.801 171.083 105.88 172.866 Q103.982 174.648 103.982 177.773 Q103.982 180.898 105.88 182.681 Q107.801 184.463 111.135 184.463 Q114.468 184.463 116.389 182.681 Q118.311 180.875 118.311 177.773 Q118.311 174.648 116.389 172.866 Q114.491 171.083 111.135 171.083 M106.459 169.093 Q103.45 168.352 101.76 166.292 Q100.093 164.232 100.093 161.269 Q100.093 157.125 103.033 154.718 Q105.996 152.31 111.135 152.31 Q116.297 152.31 119.237 154.718 Q122.176 157.125 122.176 161.269 Q122.176 164.232 120.487 166.292 Q118.82 168.352 115.834 169.093 Q119.213 169.88 121.088 172.171 Q122.987 174.463 122.987 177.773 Q122.987 182.796 119.908 185.482 Q116.852 188.167 111.135 188.167 Q105.417 188.167 102.338 185.482 Q99.2829 182.796 99.2829 177.773 Q99.2829 174.463 101.181 172.171 Q103.079 169.88 106.459 169.093 M104.746 161.709 Q104.746 164.394 106.413 165.898 Q108.102 167.403 111.135 167.403 Q114.144 167.403 115.834 165.898 Q117.547 164.394 117.547 161.709 Q117.547 159.023 115.834 157.519 Q114.144 156.014 111.135 156.014 Q108.102 156.014 106.413 157.519 Q104.746 159.023 104.746 161.709 Z" fill="#000000" fill-rule="nonzero" fill-opacity="1" /><path clip-path="url(#clip620)" d="M131.297 181.616 L136.181 181.616 L136.181 187.495 L131.297 187.495 L131.297 181.616 Z" fill="#000000" fill-rule="nonzero" fill-opacity="1" /><path clip-path="url(#clip620)" d="M156.366 156.014 Q152.755 156.014 150.926 159.579 Q149.121 163.121 149.121 170.25 Q149.121 177.357 150.926 180.921 Q152.755 184.463 156.366 184.463 Q160 184.463 161.806 180.921 Q163.634 177.357 163.634 170.25 Q163.634 163.121 161.806 159.579 Q160 156.014 156.366 156.014 M156.366 152.31 Q162.176 152.31 165.232 156.917 Q168.31 161.5 168.31 170.25 Q168.31 178.977 165.232 183.583 Q162.176 188.167 156.366 188.167 Q150.556 188.167 147.477 183.583 Q144.422 178.977 144.422 170.25 Q144.422 161.5 147.477 156.917 Q150.556 152.31 156.366 152.31 Z" fill="#000000" fill-rule="nonzero" fill-opacity="1" /><path clip-path="url(#clip620)" d="M204.699 162.033 L194.12 172.658 L204.699 183.236 L201.944 186.037 L191.319 175.412 L180.695 186.037 L177.963 183.236 L188.519 172.658 L177.963 162.033 L180.695 159.232 L191.319 169.857 L201.944 159.232 L204.699 162.033 Z" fill="#000000" fill-rule="nonzero" fill-opacity="1" /><path clip-path="url(#clip620)" d="M217.06 183.56 L224.699 183.56 L224.699 157.195 L216.389 158.861 L216.389 154.602 L224.653 152.935 L229.329 152.935 L229.329 183.56 L236.967 183.56 L236.967 187.495 L217.06 187.495 L217.06 183.56 Z" fill="#000000" fill-rule="nonzero" fill-opacity="1" /><path clip-path="url(#clip620)" d="M256.412 156.014 Q252.801 156.014 250.972 159.579 Q249.166 163.121 249.166 170.25 Q249.166 177.357 250.972 180.921 Q252.801 184.463 256.412 184.463 Q260.046 184.463 261.852 180.921 Q263.68 177.357 263.68 170.25 Q263.68 163.121 261.852 159.579 Q260.046 156.014 256.412 156.014 M256.412 152.31 Q262.222 152.31 265.277 156.917 Q268.356 161.5 268.356 170.25 Q268.356 178.977 265.277 183.583 Q262.222 188.167 256.412 188.167 Q250.602 188.167 247.523 183.583 Q244.467 178.977 244.467 170.25 Q244.467 161.5 247.523 156.917 Q250.602 152.31 256.412 152.31 Z" fill="#000000" fill-rule="nonzero" fill-opacity="1" /><path clip-path="url(#clip620)" d="M281.033 135.315 L271.441 150.305 L281.033 150.305 L281.033 135.315 M280.036 132.005 L284.813 132.005 L284.813 150.305 L288.819 150.305 L288.819 153.465 L284.813 153.465 L284.813 160.085 L281.033 160.085 L281.033 153.465 L268.356 153.465 L268.356 149.797 L280.036 132.005 Z" fill="#000000" fill-rule="nonzero" fill-opacity="1" /><path clip-path="url(#clip620)" d="M-11.3958 930.363 L-11.3958 923.933 L36.1242 923.933 L36.1242 930.363 L-11.3958 930.363 Z" fill="#000000" fill-rule="nonzero" fill-opacity="1" /><path clip-path="url(#clip620)" d="M14.6081 881.76 L36.1242 881.76 L36.1242 887.617 L14.799 887.617 Q9.7383 887.617 7.22385 889.59 Q4.7094 891.564 4.7094 895.51 Q4.7094 900.253 7.73311 902.99 Q10.7568 905.727 15.9767 905.727 L36.1242 905.727 L36.1242 911.616 L0.4762 911.616 L0.4762 905.727 L6.01437 905.727 Q2.79968 903.627 1.20826 900.794 Q-0.38317 897.929 -0.38317 894.205 Q-0.38317 888.062 3.43625 884.911 Q7.22385 881.76 14.6081 881.76 Z" fill="#000000" fill-rule="nonzero" fill-opacity="1" /><path clip-path="url(#clip620)" d="M-13.401 852.033 L-8.53127 852.033 L-8.53127 857.634 Q-8.53127 860.785 -7.25813 862.027 Q-5.98499 863.236 -2.67482 863.236 L0.4762 863.236 L0.4762 853.592 L5.02768 853.592 L5.02768 863.236 L36.1242 863.236 L36.1242 869.124 L5.02768 869.124 L5.02768 874.726 L0.4762 874.726 L0.4762 869.124 L-2.00643 869.124 Q-7.95836 869.124 -10.6638 866.355 Q-13.401 863.586 -13.401 857.571 L-13.401 852.033 Z" fill="#000000" fill-rule="nonzero" fill-opacity="1" /><path clip-path="url(#clip620)" d="M16.8361 816.639 L19.7006 816.639 L19.7006 843.566 Q25.7481 843.184 28.9309 839.938 Q32.0819 836.659 32.0819 830.835 Q32.0819 827.461 31.2544 824.31 Q30.4269 821.127 28.7718 818.008 L34.3099 818.008 Q35.6467 821.159 36.347 824.469 Q37.0472 827.779 37.0472 831.185 Q37.0472 839.715 32.0819 844.712 Q27.1167 849.677 18.6503 849.677 Q9.89745 849.677 4.77305 844.967 Q-0.38317 840.224 -0.38317 832.203 Q-0.38317 825.01 4.2638 820.841 Q8.87893 816.639 16.8361 816.639 M15.1173 822.496 Q10.3112 822.559 7.44665 825.201 Q4.58208 827.811 4.58208 832.14 Q4.58208 837.041 7.35116 840.001 Q10.1202 842.93 15.1492 843.375 L15.1173 822.496 Z" fill="#000000" fill-rule="nonzero" fill-opacity="1" /><path clip-path="url(#clip620)" d="M1.84483 781.373 L7.31933 781.373 Q5.95071 783.856 5.28231 786.37 Q4.58208 788.853 4.58208 791.399 Q4.58208 797.096 8.21053 800.247 Q11.8072 803.399 18.332 803.399 Q24.8569 803.399 28.4853 800.247 Q32.0819 797.096 32.0819 791.399 Q32.0819 788.853 31.4135 786.37 Q30.7133 783.856 29.3447 781.373 L34.7555 781.373 Q35.9014 783.824 36.4743 786.466 Q37.0472 789.076 37.0472 792.036 Q37.0472 800.088 31.9864 804.831 Q26.9257 809.573 18.332 809.573 Q9.61099 809.573 4.61391 804.799 Q-0.38317 799.993 -0.38317 791.654 Q-0.38317 788.948 0.189744 786.37 Q0.730829 783.792 1.84483 781.373 Z" fill="#000000" fill-rule="nonzero" fill-opacity="1" /><path clip-path="url(#clip620)" d="M-9.64527 765.395 L0.4762 765.395 L0.4762 753.332 L5.02768 753.332 L5.02768 765.395 L24.3794 765.395 Q28.7399 765.395 29.9813 764.218 Q31.2226 763.008 31.2226 759.348 L31.2226 753.332 L36.1242 753.332 L36.1242 759.348 Q36.1242 766.127 33.6097 768.705 Q31.0634 771.284 24.3794 771.284 L5.02768 771.284 L5.02768 775.58 L0.4762 775.58 L0.4762 771.284 L-9.64527 771.284 L-9.64527 765.395 Z" fill="#000000" fill-rule="nonzero" fill-opacity="1" /><path clip-path="url(#clip620)" d="M0.4762 745.63 L0.4762 739.773 L36.1242 739.773 L36.1242 745.63 L0.4762 745.63 M-13.401 745.63 L-13.401 739.773 L-5.98499 739.773 L-5.98499 745.63 L-13.401 745.63 Z" fill="#000000" fill-rule="nonzero" fill-opacity="1" /><path clip-path="url(#clip620)" d="M4.58208 713.706 Q4.58208 718.416 8.27419 721.154 Q11.9345 723.891 18.332 723.891 Q24.7295 723.891 28.4217 721.185 Q32.0819 718.448 32.0819 713.706 Q32.0819 709.027 28.3898 706.29 Q24.6977 703.552 18.332 703.552 Q11.9981 703.552 8.30602 706.29 Q4.58208 709.027 4.58208 713.706 M-0.38317 713.706 Q-0.38317 706.067 4.58208 701.706 Q9.54733 697.346 18.332 697.346 Q27.0849 697.346 32.0819 701.706 Q37.0472 706.067 37.0472 713.706 Q37.0472 721.376 32.0819 725.737 Q27.0849 730.066 18.332 730.066 Q9.54733 730.066 4.58208 725.737 Q-0.38317 721.376 -0.38317 713.706 Z" fill="#000000" fill-rule="nonzero" fill-opacity="1" /><path clip-path="url(#clip620)" d="M22.0559 688.243 L0.4762 688.243 L0.4762 682.386 L21.8331 682.386 Q26.8939 682.386 29.4402 680.413 Q31.9546 678.44 31.9546 674.493 Q31.9546 669.751 28.9309 667.013 Q25.9072 664.244 20.6873 664.244 L0.4762 664.244 L0.4762 658.388 L36.1242 658.388 L36.1242 664.244 L30.6496 664.244 Q33.8962 666.377 35.4876 669.209 Q37.0472 672.01 37.0472 675.734 Q37.0472 681.877 33.2278 685.06 Q29.4083 688.243 22.0559 688.243 M-0.38317 673.506 L-0.38317 673.506 Z" fill="#000000" fill-rule="nonzero" fill-opacity="1" /><path clip-path="url(#clip620)" d="M1.52654 623.599 L7.06471 623.599 Q5.79157 626.082 5.15499 628.755 Q4.51842 631.429 4.51842 634.294 Q4.51842 638.654 5.85522 640.85 Q7.19202 643.015 9.86562 643.015 Q11.9026 643.015 13.0803 641.455 Q14.2261 639.895 15.2765 635.185 L15.7221 633.18 Q17.0589 626.941 19.5097 624.331 Q21.9286 621.689 26.2891 621.689 Q31.2544 621.689 34.1508 625.636 Q37.0472 629.551 37.0472 636.426 Q37.0472 639.291 36.4743 642.41 Q35.9332 645.497 34.8192 648.935 L28.7718 648.935 Q30.4587 645.688 31.318 642.537 Q32.1456 639.386 32.1456 636.299 Q32.1456 632.161 30.7451 629.933 Q29.3129 627.705 26.7347 627.705 Q24.3476 627.705 23.0745 629.328 Q21.8013 630.92 20.6237 636.362 L20.1462 638.399 Q19.0004 643.842 16.6451 646.261 Q14.258 648.68 10.1202 648.68 Q5.09134 648.68 2.35408 645.115 Q-0.38317 641.55 -0.38317 634.994 Q-0.38317 631.747 0.0942579 628.883 Q0.571686 626.018 1.52654 623.599 Z" fill="#000000" fill-rule="nonzero" fill-opacity="1" /><path clip-path="url(#clip620)" d="M1086.86 12.096 L1095.04 12.096 L1095.04 72.576 L1086.86 72.576 L1086.86 12.096 Z" fill="#000000" fill-rule="nonzero" fill-opacity="1" /><path clip-path="url(#clip620)" d="M1148.72 45.1919 L1148.72 72.576 L1141.26 72.576 L1141.26 45.4349 Q1141.26 38.994 1138.75 35.7938 Q1136.24 32.5936 1131.22 32.5936 Q1125.18 32.5936 1121.7 36.4419 Q1118.21 40.2903 1118.21 46.9338 L1118.21 72.576 L1110.72 72.576 L1110.72 27.2059 L1118.21 27.2059 L1118.21 34.2544 Q1120.89 30.163 1124.49 28.1376 Q1128.14 26.1121 1132.88 26.1121 Q1140.7 26.1121 1144.71 30.9732 Q1148.72 35.7938 1148.72 45.1919 Z" fill="#000000" fill-rule="nonzero" fill-opacity="1" /><path clip-path="url(#clip620)" d="M1186.55 9.54393 L1186.55 15.7418 L1179.42 15.7418 Q1175.41 15.7418 1173.83 17.3622 Q1172.29 18.9825 1172.29 23.1955 L1172.29 27.2059 L1184.57 27.2059 L1184.57 32.9987 L1172.29 32.9987 L1172.29 72.576 L1164.8 72.576 L1164.8 32.9987 L1157.67 32.9987 L1157.67 27.2059 L1164.8 27.2059 L1164.8 24.0462 Q1164.8 16.471 1168.32 13.0277 Q1171.85 9.54393 1179.5 9.54393 L1186.55 9.54393 Z" fill="#000000" fill-rule="nonzero" fill-opacity="1" /><path clip-path="url(#clip620)" d="M1231.6 48.0275 L1231.6 51.6733 L1197.33 51.6733 Q1197.81 59.3701 1201.95 63.421 Q1206.12 67.4314 1213.53 67.4314 Q1217.83 67.4314 1221.84 66.3781 Q1225.89 65.3249 1229.86 63.2184 L1229.86 70.267 Q1225.85 71.9684 1221.63 72.8596 Q1217.42 73.7508 1213.09 73.7508 Q1202.23 73.7508 1195.87 67.4314 Q1189.55 61.1119 1189.55 50.3365 Q1189.55 39.1965 1195.55 32.6746 Q1201.58 26.1121 1211.79 26.1121 Q1220.94 26.1121 1226.25 32.0264 Q1231.6 37.9003 1231.6 48.0275 M1224.14 45.84 Q1224.06 39.7232 1220.7 36.0774 Q1217.38 32.4315 1211.87 32.4315 Q1205.63 32.4315 1201.86 35.9558 Q1198.14 39.4801 1197.57 45.8805 L1224.14 45.84 Z" fill="#000000" fill-rule="nonzero" fill-opacity="1" /><path clip-path="url(#clip620)" d="M1276.48 28.9478 L1276.48 35.9153 Q1273.32 34.1734 1270.12 33.3227 Q1266.96 32.4315 1263.72 32.4315 Q1256.47 32.4315 1252.46 37.0496 Q1248.45 41.6271 1248.45 49.9314 Q1248.45 58.2358 1252.46 62.8538 Q1256.47 67.4314 1263.72 67.4314 Q1266.96 67.4314 1270.12 66.5807 Q1273.32 65.6895 1276.48 63.9476 L1276.48 70.8341 Q1273.36 72.2924 1270 73.0216 Q1266.68 73.7508 1262.91 73.7508 Q1252.66 73.7508 1246.63 67.3098 Q1240.59 60.8689 1240.59 49.9314 Q1240.59 38.832 1246.67 32.472 Q1252.78 26.1121 1263.4 26.1121 Q1266.84 26.1121 1270.12 26.8413 Q1273.4 27.5299 1276.48 28.9478 Z" fill="#000000" fill-rule="nonzero" fill-opacity="1" /><path clip-path="url(#clip620)" d="M1296.82 14.324 L1296.82 27.2059 L1312.17 27.2059 L1312.17 32.9987 L1296.82 32.9987 L1296.82 57.6282 Q1296.82 63.1779 1298.32 64.7578 Q1299.86 66.3376 1304.51 66.3376 L1312.17 66.3376 L1312.17 72.576 L1304.51 72.576 Q1295.89 72.576 1292.61 69.3758 Q1289.32 66.1351 1289.32 57.6282 L1289.32 32.9987 L1283.86 32.9987 L1283.86 27.2059 L1289.32 27.2059 L1289.32 14.324 L1296.82 14.324 Z" fill="#000000" fill-rule="nonzero" fill-opacity="1" /><path clip-path="url(#clip620)" d="M1321.97 27.2059 L1329.43 27.2059 L1329.43 72.576 L1321.97 72.576 L1321.97 27.2059 M1321.97 9.54393 L1329.43 9.54393 L1329.43 18.9825 L1321.97 18.9825 L1321.97 9.54393 Z" fill="#000000" fill-rule="nonzero" fill-opacity="1" /><path clip-path="url(#clip620)" d="M1362.6 32.4315 Q1356.61 32.4315 1353.13 37.1306 Q1349.64 41.7891 1349.64 49.9314 Q1349.64 58.0738 1353.09 62.7728 Q1356.57 67.4314 1362.6 67.4314 Q1368.56 67.4314 1372.04 62.7323 Q1375.53 58.0333 1375.53 49.9314 Q1375.53 41.8701 1372.04 37.1711 Q1368.56 32.4315 1362.6 32.4315 M1362.6 26.1121 Q1372.33 26.1121 1377.88 32.4315 Q1383.43 38.7509 1383.43 49.9314 Q1383.43 61.0714 1377.88 67.4314 Q1372.33 73.7508 1362.6 73.7508 Q1352.84 73.7508 1347.29 67.4314 Q1341.78 61.0714 1341.78 49.9314 Q1341.78 38.7509 1347.29 32.4315 Q1352.84 26.1121 1362.6 26.1121 Z" fill="#000000" fill-rule="nonzero" fill-opacity="1" /><path clip-path="url(#clip620)" d="M1395.01 54.671 L1395.01 27.2059 L1402.47 27.2059 L1402.47 54.3874 Q1402.47 60.8284 1404.98 64.0691 Q1407.49 67.2693 1412.51 67.2693 Q1418.55 67.2693 1422.03 63.421 Q1425.56 59.5726 1425.56 52.9291 L1425.56 27.2059 L1433.01 27.2059 L1433.01 72.576 L1425.56 72.576 L1425.56 65.6084 Q1422.84 69.7404 1419.24 71.7658 Q1415.67 73.7508 1410.93 73.7508 Q1403.11 73.7508 1399.06 68.8897 Q1395.01 64.0286 1395.01 54.671 M1413.77 26.1121 L1413.77 26.1121 Z" fill="#000000" fill-rule="nonzero" fill-opacity="1" /><path clip-path="url(#clip620)" d="M1477.29 28.5427 L1477.29 35.5912 Q1474.13 33.9709 1470.72 33.1607 Q1467.32 32.3505 1463.67 32.3505 Q1458.13 32.3505 1455.33 34.0519 Q1452.58 35.7533 1452.58 39.156 Q1452.58 41.7486 1454.56 43.2475 Q1456.55 44.7058 1462.54 46.0426 L1465.09 46.6097 Q1473.03 48.3111 1476.35 51.4303 Q1479.72 54.509 1479.72 60.0587 Q1479.72 66.3781 1474.69 70.0644 Q1469.71 73.7508 1460.96 73.7508 Q1457.32 73.7508 1453.35 73.0216 Q1449.42 72.3329 1445.04 70.9151 L1445.04 63.2184 Q1449.17 65.3654 1453.18 66.4591 Q1457.19 67.5124 1461.12 67.5124 Q1466.39 67.5124 1469.22 65.73 Q1472.06 63.9071 1472.06 60.6258 Q1472.06 57.5877 1469.99 55.9673 Q1467.97 54.3469 1461.04 52.8481 L1458.45 52.2405 Q1451.52 50.7821 1448.44 47.7845 Q1445.36 44.7463 1445.36 39.4801 Q1445.36 33.0797 1449.9 29.5959 Q1454.44 26.1121 1462.78 26.1121 Q1466.92 26.1121 1470.56 26.7198 Q1474.21 27.3274 1477.29 28.5427 Z" fill="#000000" fill-rule="nonzero" fill-opacity="1" /><path clip-path="url(#clip620)" d="M1550.53 49.9314 Q1550.53 41.7081 1547.12 37.0496 Q1543.76 32.3505 1537.85 32.3505 Q1531.93 32.3505 1528.53 37.0496 Q1525.17 41.7081 1525.17 49.9314 Q1525.17 58.1548 1528.53 62.8538 Q1531.93 67.5124 1537.85 67.5124 Q1543.76 67.5124 1547.12 62.8538 Q1550.53 58.1548 1550.53 49.9314 M1525.17 34.0924 Q1527.52 30.0415 1531.08 28.0971 Q1534.69 26.1121 1539.67 26.1121 Q1547.93 26.1121 1553.08 32.6746 Q1558.26 39.2371 1558.26 49.9314 Q1558.26 60.6258 1553.08 67.1883 Q1547.93 73.7508 1539.67 73.7508 Q1534.69 73.7508 1531.08 71.8063 Q1527.52 69.8214 1525.17 65.7705 L1525.17 72.576 L1517.67 72.576 L1517.67 9.54393 L1525.17 9.54393 L1525.17 34.0924 Z" fill="#000000" fill-rule="nonzero" fill-opacity="1" /><path clip-path="url(#clip620)" d="M1589.5 76.7889 Q1586.34 84.8907 1583.34 87.3618 Q1580.34 89.8329 1575.32 89.8329 L1569.36 89.8329 L1569.36 83.5945 L1573.74 83.5945 Q1576.82 83.5945 1578.52 82.1361 Q1580.22 80.6778 1582.29 75.2496 L1583.62 71.8468 L1565.27 27.2059 L1573.17 27.2059 L1587.35 62.6918 L1601.53 27.2059 L1609.43 27.2059 L1589.5 76.7889 Z" fill="#000000" fill-rule="nonzero" fill-opacity="1" /><path clip-path="url(#clip620)" d="M1662.01 72.576 L1638.92 12.096 L1647.46 12.096 L1666.63 63.0159 L1685.83 12.096 L1694.33 12.096 L1671.28 72.576 L1662.01 72.576 Z" fill="#000000" fill-rule="nonzero" fill-opacity="1" /><path clip-path="url(#clip620)" d="M1717.02 49.7694 Q1707.98 49.7694 1704.5 51.8354 Q1701.02 53.9013 1701.02 58.8839 Q1701.02 62.8538 1703.61 65.2034 Q1706.24 67.5124 1710.74 67.5124 Q1716.94 67.5124 1720.66 63.1374 Q1724.43 58.7219 1724.43 51.4303 L1724.43 49.7694 L1717.02 49.7694 M1731.89 46.6907 L1731.89 72.576 L1724.43 72.576 L1724.43 65.6895 Q1721.88 69.8214 1718.07 71.8063 Q1714.26 73.7508 1708.75 73.7508 Q1701.79 73.7508 1697.66 69.8619 Q1693.56 65.9325 1693.56 59.3701 Q1693.56 51.7138 1698.67 47.825 Q1703.81 43.9361 1713.98 43.9361 L1724.43 43.9361 L1724.43 43.2069 Q1724.43 38.0623 1721.03 35.2672 Q1717.67 32.4315 1711.55 32.4315 Q1707.66 32.4315 1703.97 33.3632 Q1700.29 34.295 1696.89 36.1584 L1696.89 29.2718 Q1700.98 27.692 1704.83 26.9223 Q1708.67 26.1121 1712.32 26.1121 Q1722.16 26.1121 1727.02 31.2163 Q1731.89 36.3204 1731.89 46.6907 Z" fill="#000000" fill-rule="nonzero" fill-opacity="1" /><path clip-path="url(#clip620)" d="M1779.89 28.9478 L1779.89 35.9153 Q1776.73 34.1734 1773.53 33.3227 Q1770.37 32.4315 1767.13 32.4315 Q1759.88 32.4315 1755.87 37.0496 Q1751.86 41.6271 1751.86 49.9314 Q1751.86 58.2358 1755.87 62.8538 Q1759.88 67.4314 1767.13 67.4314 Q1770.37 67.4314 1773.53 66.5807 Q1776.73 65.6895 1779.89 63.9476 L1779.89 70.8341 Q1776.77 72.2924 1773.41 73.0216 Q1770.09 73.7508 1766.32 73.7508 Q1756.07 73.7508 1750.03 67.3098 Q1744 60.8689 1744 49.9314 Q1744 38.832 1750.07 32.472 Q1756.19 26.1121 1766.8 26.1121 Q1770.25 26.1121 1773.53 26.8413 Q1776.81 27.5299 1779.89 28.9478 Z" fill="#000000" fill-rule="nonzero" fill-opacity="1" /><path clip-path="url(#clip620)" d="M1825.5 28.9478 L1825.5 35.9153 Q1822.34 34.1734 1819.14 33.3227 Q1815.98 32.4315 1812.74 32.4315 Q1805.49 32.4315 1801.48 37.0496 Q1797.47 41.6271 1797.47 49.9314 Q1797.47 58.2358 1801.48 62.8538 Q1805.49 67.4314 1812.74 67.4314 Q1815.98 67.4314 1819.14 66.5807 Q1822.34 65.6895 1825.5 63.9476 L1825.5 70.8341 Q1822.38 72.2924 1819.02 73.0216 Q1815.7 73.7508 1811.93 73.7508 Q1801.68 73.7508 1795.65 67.3098 Q1789.61 60.8689 1789.61 49.9314 Q1789.61 38.832 1795.69 32.472 Q1801.8 26.1121 1812.42 26.1121 Q1815.86 26.1121 1819.14 26.8413 Q1822.42 27.5299 1825.5 28.9478 Z" fill="#000000" fill-rule="nonzero" fill-opacity="1" /><path clip-path="url(#clip620)" d="M1838.46 27.2059 L1845.92 27.2059 L1845.92 72.576 L1838.46 72.576 L1838.46 27.2059 M1838.46 9.54393 L1845.92 9.54393 L1845.92 18.9825 L1838.46 18.9825 L1838.46 9.54393 Z" fill="#000000" fill-rule="nonzero" fill-opacity="1" /><path clip-path="url(#clip620)" d="M1899.23 45.1919 L1899.23 72.576 L1891.77 72.576 L1891.77 45.4349 Q1891.77 38.994 1889.26 35.7938 Q1886.75 32.5936 1881.73 32.5936 Q1875.69 32.5936 1872.21 36.4419 Q1868.72 40.2903 1868.72 46.9338 L1868.72 72.576 L1861.23 72.576 L1861.23 27.2059 L1868.72 27.2059 L1868.72 34.2544 Q1871.4 30.163 1875 28.1376 Q1878.65 26.1121 1883.39 26.1121 Q1891.21 26.1121 1895.22 30.9732 Q1899.23 35.7938 1899.23 45.1919 Z" fill="#000000" fill-rule="nonzero" fill-opacity="1" /><path clip-path="url(#clip620)" d="M1934.71 49.7694 Q1925.68 49.7694 1922.2 51.8354 Q1918.71 53.9013 1918.71 58.8839 Q1918.71 62.8538 1921.31 65.2034 Q1923.94 67.5124 1928.44 67.5124 Q1934.63 67.5124 1938.36 63.1374 Q1942.13 58.7219 1942.13 51.4303 L1942.13 49.7694 L1934.71 49.7694 M1949.58 46.6907 L1949.58 72.576 L1942.13 72.576 L1942.13 65.6895 Q1939.58 69.8214 1935.77 71.8063 Q1931.96 73.7508 1926.45 73.7508 Q1919.48 73.7508 1915.35 69.8619 Q1911.26 65.9325 1911.26 59.3701 Q1911.26 51.7138 1916.36 47.825 Q1921.51 43.9361 1931.68 43.9361 L1942.13 43.9361 L1942.13 43.2069 Q1942.13 38.0623 1938.72 35.2672 Q1935.36 32.4315 1929.25 32.4315 Q1925.36 32.4315 1921.67 33.3632 Q1917.98 34.295 1914.58 36.1584 L1914.58 29.2718 Q1918.67 27.692 1922.52 26.9223 Q1926.37 26.1121 1930.02 26.1121 Q1939.86 26.1121 1944.72 31.2163 Q1949.58 36.3204 1949.58 46.6907 Z" fill="#000000" fill-rule="nonzero" fill-opacity="1" /><path clip-path="url(#clip620)" d="M1972.31 14.324 L1972.31 27.2059 L1987.66 27.2059 L1987.66 32.9987 L1972.31 32.9987 L1972.31 57.6282 Q1972.31 63.1779 1973.81 64.7578 Q1975.34 66.3376 1980 66.3376 L1987.66 66.3376 L1987.66 72.576 L1980 72.576 Q1971.37 72.576 1968.09 69.3758 Q1964.81 66.1351 1964.81 57.6282 L1964.81 32.9987 L1959.34 32.9987 L1959.34 27.2059 L1964.81 27.2059 L1964.81 14.324 L1972.31 14.324 Z" fill="#000000" fill-rule="nonzero" fill-opacity="1" /><path clip-path="url(#clip620)" d="M1997.46 27.2059 L2004.92 27.2059 L2004.92 72.576 L1997.46 72.576 L1997.46 27.2059 M1997.46 9.54393 L2004.92 9.54393 L2004.92 18.9825 L1997.46 18.9825 L1997.46 9.54393 Z" fill="#000000" fill-rule="nonzero" fill-opacity="1" /><path clip-path="url(#clip620)" d="M2038.09 32.4315 Q2032.1 32.4315 2028.61 37.1306 Q2025.13 41.7891 2025.13 49.9314 Q2025.13 58.0738 2028.57 62.7728 Q2032.06 67.4314 2038.09 67.4314 Q2044.05 67.4314 2047.53 62.7323 Q2051.02 58.0333 2051.02 49.9314 Q2051.02 41.8701 2047.53 37.1711 Q2044.05 32.4315 2038.09 32.4315 M2038.09 26.1121 Q2047.82 26.1121 2053.37 32.4315 Q2058.91 38.7509 2058.91 49.9314 Q2058.91 61.0714 2053.37 67.4314 Q2047.82 73.7508 2038.09 73.7508 Q2028.33 73.7508 2022.78 67.4314 Q2017.27 61.0714 2017.27 49.9314 Q2017.27 38.7509 2022.78 32.4315 Q2028.33 26.1121 2038.09 26.1121 Z" fill="#000000" fill-rule="nonzero" fill-opacity="1" /><path clip-path="url(#clip620)" d="M2108.98 45.1919 L2108.98 72.576 L2101.53 72.576 L2101.53 45.4349 Q2101.53 38.994 2099.02 35.7938 Q2096.51 32.5936 2091.48 32.5936 Q2085.45 32.5936 2081.96 36.4419 Q2078.48 40.2903 2078.48 46.9338 L2078.48 72.576 L2070.99 72.576 L2070.99 27.2059 L2078.48 27.2059 L2078.48 34.2544 Q2081.15 30.163 2084.76 28.1376 Q2088.41 26.1121 2093.14 26.1121 Q2100.96 26.1121 2104.97 30.9732 Q2108.98 35.7938 2108.98 45.1919 Z" fill="#000000" fill-rule="nonzero" fill-opacity="1" /><path clip-path="url(#clip620)" d="M2186.8 14.0809 L2186.8 22.0612 Q2182.14 19.8332 2178.01 18.7395 Q2173.88 17.6457 2170.03 17.6457 Q2163.35 17.6457 2159.7 20.2383 Q2156.1 22.8309 2156.1 27.611 Q2156.1 31.6214 2158.49 33.6873 Q2160.92 35.7128 2167.64 36.9686 L2172.58 37.9813 Q2181.74 39.7232 2186.07 44.1387 Q2190.45 48.5136 2190.45 55.8863 Q2190.45 64.6767 2184.53 69.2137 Q2178.66 73.7508 2167.28 73.7508 Q2162.98 73.7508 2158.12 72.7785 Q2153.3 71.8063 2148.12 69.9024 L2148.12 61.4765 Q2153.1 64.2716 2157.88 65.6895 Q2162.66 67.1073 2167.28 67.1073 Q2174.28 67.1073 2178.09 64.3527 Q2181.9 61.598 2181.9 56.4939 Q2181.9 52.0379 2179.15 49.5264 Q2176.43 47.0148 2170.19 45.759 L2165.21 44.7868 Q2156.06 42.9639 2151.96 39.075 Q2147.87 35.1862 2147.87 28.2591 Q2147.87 20.2383 2153.5 15.6203 Q2159.17 11.0023 2169.1 11.0023 Q2173.35 11.0023 2177.77 11.7719 Q2182.18 12.5416 2186.8 14.0809 Z" fill="#000000" fill-rule="nonzero" fill-opacity="1" /><path clip-path="url(#clip620)" d="M2210.26 14.324 L2210.26 27.2059 L2225.61 27.2059 L2225.61 32.9987 L2210.26 32.9987 L2210.26 57.6282 Q2210.26 63.1779 2211.76 64.7578 Q2213.29 66.3376 2217.95 66.3376 L2225.61 66.3376 L2225.61 72.576 L2217.95 72.576 Q2209.32 72.576 2206.04 69.3758 Q2202.76 66.1351 2202.76 57.6282 L2202.76 32.9987 L2197.29 32.9987 L2197.29 27.2059 L2202.76 27.2059 L2202.76 14.324 L2210.26 14.324 Z" fill="#000000" fill-rule="nonzero" fill-opacity="1" /><path clip-path="url(#clip620)" d="M2256.03 49.7694 Q2247 49.7694 2243.51 51.8354 Q2240.03 53.9013 2240.03 58.8839 Q2240.03 62.8538 2242.62 65.2034 Q2245.26 67.5124 2249.75 67.5124 Q2255.95 67.5124 2259.68 63.1374 Q2263.44 58.7219 2263.44 51.4303 L2263.44 49.7694 L2256.03 49.7694 M2270.9 46.6907 L2270.9 72.576 L2263.44 72.576 L2263.44 65.6895 Q2260.89 69.8214 2257.09 71.8063 Q2253.28 73.7508 2247.77 73.7508 Q2240.8 73.7508 2236.67 69.8619 Q2232.58 65.9325 2232.58 59.3701 Q2232.58 51.7138 2237.68 47.825 Q2242.83 43.9361 2252.99 43.9361 L2263.44 43.9361 L2263.44 43.2069 Q2263.44 38.0623 2260.04 35.2672 Q2256.68 32.4315 2250.56 32.4315 Q2246.67 32.4315 2242.99 33.3632 Q2239.3 34.295 2235.9 36.1584 L2235.9 29.2718 Q2239.99 27.692 2243.84 26.9223 Q2247.69 26.1121 2251.33 26.1121 Q2261.18 26.1121 2266.04 31.2163 Q2270.9 36.3204 2270.9 46.6907 Z" fill="#000000" fill-rule="nonzero" fill-opacity="1" /><path clip-path="url(#clip620)" d="M2293.62 14.324 L2293.62 27.2059 L2308.98 27.2059 L2308.98 32.9987 L2293.62 32.9987 L2293.62 57.6282 Q2293.62 63.1779 2295.12 64.7578 Q2296.66 66.3376 2301.32 66.3376 L2308.98 66.3376 L2308.98 72.576 L2301.32 72.576 Q2292.69 72.576 2289.41 69.3758 Q2286.13 66.1351 2286.13 57.6282 L2286.13 32.9987 L2280.66 32.9987 L2280.66 27.2059 L2286.13 27.2059 L2286.13 14.324 L2293.62 14.324 Z" fill="#000000" fill-rule="nonzero" fill-opacity="1" /><path clip-path="url(#clip620)" d="M2318.01 54.671 L2318.01 27.2059 L2325.46 27.2059 L2325.46 54.3874 Q2325.46 60.8284 2327.98 64.0691 Q2330.49 67.2693 2335.51 67.2693 Q2341.55 67.2693 2345.03 63.421 Q2348.55 59.5726 2348.55 52.9291 L2348.55 27.2059 L2356.01 27.2059 L2356.01 72.576 L2348.55 72.576 L2348.55 65.6084 Q2345.84 69.7404 2342.24 71.7658 Q2338.67 73.7508 2333.93 73.7508 Q2326.11 73.7508 2322.06 68.8897 Q2318.01 64.0286 2318.01 54.671 M2336.77 26.1121 L2336.77 26.1121 Z" fill="#000000" fill-rule="nonzero" fill-opacity="1" /><path clip-path="url(#clip620)" d="M2400.28 28.5427 L2400.28 35.5912 Q2397.12 33.9709 2393.72 33.1607 Q2390.32 32.3505 2386.67 32.3505 Q2381.12 32.3505 2378.33 34.0519 Q2375.57 35.7533 2375.57 39.156 Q2375.57 41.7486 2377.56 43.2475 Q2379.54 44.7058 2385.54 46.0426 L2388.09 46.6097 Q2396.03 48.3111 2399.35 51.4303 Q2402.72 54.509 2402.72 60.0587 Q2402.72 66.3781 2397.69 70.0644 Q2392.71 73.7508 2383.96 73.7508 Q2380.31 73.7508 2376.34 73.0216 Q2372.41 72.3329 2368.04 70.9151 L2368.04 63.2184 Q2372.17 65.3654 2376.18 66.4591 Q2380.19 67.5124 2384.12 67.5124 Q2389.39 67.5124 2392.22 65.73 Q2395.06 63.9071 2395.06 60.6258 Q2395.06 57.5877 2392.99 55.9673 Q2390.97 54.3469 2384.04 52.8481 L2381.45 52.2405 Q2374.52 50.7821 2371.44 47.7845 Q2368.36 44.7463 2368.36 39.4801 Q2368.36 33.0797 2372.9 29.5959 Q2377.44 26.1121 2385.78 26.1121 Q2389.91 26.1121 2393.56 26.7198 Q2397.21 27.3274 2400.28 28.5427 Z" fill="#000000" fill-rule="nonzero" fill-opacity="1" /><polyline clip-path="url(#clip621)" style="stroke:#4682b4; stroke-linecap:round; stroke-linejoin:round; stroke-width:8; stroke-opacity:1; fill:none" points="416.515,1405.83 431.274,1405.84 446.032,1405.83 460.791,1405.83 475.55,1405.81 490.308,1405.81 505.067,1405.81 519.825,1405.88 534.584,1405.83 549.342,1405.83 564.101,1405.81 578.86,1405.81 593.618,1405.83 608.377,1405.81 623.135,1405.78 637.894,1405.78 652.653,1405.78 667.411,1405.78 682.17,1405.75 696.928,1405.69 711.687,1405.69 726.445,1405.71 741.204,1405.66 755.963,1405.69 770.721,1405.74 785.48,1405.67 800.238,1405.64 814.997,1405.66 829.756,1405.63 844.514,1405.6 859.273,1405.6 874.031,1405.53 888.79,1405.55 903.548,1405.5 918.307,1405.41 933.066,1405.35 947.824,1405.35 962.583,1405.24 977.341,1405.18 992.1,1405.12 1006.86,1405.19 1021.62,1405.04 1036.38,1405.01 1051.13,1404.91 1065.89,1404.84 1080.65,1404.74 1095.41,1404.56 1110.17,1404.31 1124.93,1404.32 1139.69,1404.29 1154.44,1404.11 1169.2,1403.94 1183.96,1403.75 1198.72,1403.48 1213.48,1403.35 1228.24,1402.97 1243,1402.72 1257.75,1402.37 1272.51,1402.1 1287.27,1401.84 1302.03,1401.73 1316.79,1401.3 1331.55,1401.09 1346.31,1400.66 1361.06,1400.27 1375.82,1399.74 1390.58,1398.95 1405.34,1398.5 1420.1,1398.03 1434.86,1397.52 1449.62,1396.9 1464.37,1396.08 1479.13,1395.46 1493.89,1394.57 1508.65,1394.09 1523.41,1392.79 1538.17,1391.36 1552.93,1390.4 1567.68,1389.56 1582.44,1388.16 1597.2,1387.26 1611.96,1385.77 1626.72,1384.56 1641.48,1382.79 1656.24,1381.02 1670.99,1379.65 1685.75,1377.35 1700.51,1375.85 1715.27,1374.36 1730.03,1371.69 1744.79,1368.92 1759.55,1366.53 1774.3,1364.47 1789.06,1361.03 1803.82,1357.08 1818.58,1353.86 1833.34,1349.62 1848.1,1346.35 1862.86,1341.22 1877.61,1335.94 1892.37,1330.77 1907.13,1325.07 1921.89,1319.33 1936.65,1314.35 1951.41,1307.51 1966.17,1300.68 1980.92,1292.33 1995.68,1284.32 2010.44,1276.51 2025.2,1266.48 2039.96,1257.58 2054.72,1246.09 2069.48,1234.72 2084.23,1221.36 2098.99,1208.44 2113.75,1197.23 2128.51,1182.77 2143.27,1168.22 2158.03,1152.95 2172.79,1136.81 2187.54,1121.92 2202.3,1103.2 2217.06,1084.63 2231.82,1062.46 2246.58,1041.31 2261.34,1017.97 2276.1,994.107 2290.85,967.696 2305.61,939.918 2320.37,917.669 2335.13,893.183 2349.89,864.878 2364.65,837.613 2379.41,807.491 2394.16,778.254 2408.92,747.154 2423.68,717.296 2438.44,686.01 2453.2,656.602 2467.96,624.896 2482.72,596.141 2497.47,562.277 2512.23,529.469 2526.99,499.021 2541.75,473.914 2556.51,442.023 2571.27,409.354 2586.03,379.062 2600.79,352.433 2615.54,325.619 2630.3,298.602 2645.06,273.775 2659.82,252.503 2674.58,237.908 2689.34,218.049 2704.1,204.665 2718.85,187.757 2733.61,174.528 2748.37,166.454 2763.13,157.821 2777.89,152.589 2792.65,151.548 2807.41,149.607 2822.16,146.145 2836.92,149.468 2851.68,151.673 2866.44,162.588 2881.2,172.665 2895.96,182.99 2910.72,194.029 2925.47,211.652 2940.23,226.869 2954.99,246.494 2969.75,265.515 2984.51,285.653 2999.27,304.72 3014.03,325.603 3028.78,348.458 3043.54,369.808 3058.3,392.772 3073.06,419.975 "/>
<polyline clip-path="url(#clip621)" style="stroke:#ffa500; stroke-linecap:round; stroke-linejoin:round; stroke-width:8; stroke-opacity:1; fill:none" points="416.515,1405.91 431.274,1405.91 446.032,1405.91 460.791,1405.91 475.55,1405.91 490.308,1405.91 505.067,1405.91 519.825,1405.91 534.584,1405.91 549.342,1405.91 564.101,1405.91 578.86,1405.91 593.618,1405.91 608.377,1405.91 623.135,1405.91 637.894,1405.91 652.653,1405.91 667.411,1405.91 682.17,1405.91 696.928,1405.91 711.687,1405.91 726.445,1405.91 741.204,1405.91 755.963,1405.91 770.721,1405.89 785.48,1405.89 800.238,1405.88 814.997,1405.86 829.756,1405.83 844.514,1405.84 859.273,1405.83 874.031,1405.83 888.79,1405.83 903.548,1405.83 918.307,1405.83 933.066,1405.84 947.824,1405.86 962.583,1405.86 977.341,1405.89 992.1,1405.88 1006.86,1405.84 1021.62,1405.83 1036.38,1405.81 1051.13,1405.78 1065.89,1405.75 1080.65,1405.75 1095.41,1405.78 1110.17,1405.78 1124.93,1405.77 1139.69,1405.75 1154.44,1405.72 1169.2,1405.71 1183.96,1405.71 1198.72,1405.69 1213.48,1405.69 1228.24,1405.67 1243,1405.71 1257.75,1405.69 1272.51,1405.67 1287.27,1405.66 1302.03,1405.69 1316.79,1405.72 1331.55,1405.72 1346.31,1405.64 1361.06,1405.58 1375.82,1405.57 1390.58,1405.57 1405.34,1405.52 1420.1,1405.43 1434.86,1405.39 1449.62,1405.29 1464.37,1405.27 1479.13,1405.27 1493.89,1405.22 1508.65,1405.3 1523.41,1405.25 1538.17,1405.19 1552.93,1405.15 1567.68,1405.13 1582.44,1404.96 1597.2,1404.94 1611.96,1404.85 1626.72,1404.7 1641.48,1404.57 1656.24,1404.48 1670.99,1404.46 1685.75,1404.4 1700.51,1404.14 1715.27,1403.89 1730.03,1403.75 1744.79,1403.56 1759.55,1403.39 1774.3,1403.25 1789.06,1403.05 1803.82,1402.88 1818.58,1402.72 1833.34,1402.29 1848.1,1402.04 1862.86,1401.87 1877.61,1401.42 1892.37,1401.23 1907.13,1400.66 1921.89,1400.27 1936.65,1399.82 1951.41,1399.4 1966.17,1399.12 1980.92,1398.9 1995.68,1398.52 2010.44,1397.91 2025.2,1397.43 2039.96,1397.04 2054.72,1396.3 2069.48,1395.92 2084.23,1395.01 2098.99,1394.08 2113.75,1393.25 2128.51,1392.38 2143.27,1391.13 2158.03,1390.47 2172.79,1389.12 2187.54,1387.85 2202.3,1386.98 2217.06,1385.44 2231.82,1383.94 2246.58,1383.56 2261.34,1381.98 2276.1,1379.9 2290.85,1378.52 2305.61,1376.05 2320.37,1374.14 2335.13,1372.37 2349.89,1370.01 2364.65,1367.71 2379.41,1365.18 2394.16,1363.13 2408.92,1361.03 2423.68,1358.36 2438.44,1356.39 2453.2,1353.91 2467.96,1351.28 2482.72,1348.46 2497.47,1346.75 2512.23,1343.99 2526.99,1340.69 2541.75,1337.74 2556.51,1334.3 2571.27,1332.79 2586.03,1330 2600.79,1328.27 2615.54,1325.94 2630.3,1324.27 2645.06,1321.38 2659.82,1320 2674.58,1317.51 2689.34,1315.74 2704.1,1314.45 2718.85,1311.92 2733.61,1309.7 2748.37,1309.25 2763.13,1307.3 2777.89,1305.7 2792.65,1304.6 2807.41,1303.46 2822.16,1302.69 2836.92,1301.04 2851.68,1301.18 2866.44,1301.23 2881.2,1300.4 2895.96,1301.04 2910.72,1301.66 2925.47,1302.41 2940.23,1304.14 2954.99,1304.25 2969.75,1304.58 2984.51,1305.06 2999.27,1306.57 3014.03,1306.89 3028.78,1307.86 3043.54,1309.59 3058.3,1311.64 3073.06,1312.62 "/>
<polyline clip-path="url(#clip621)" style="stroke:#008000; stroke-linecap:round; stroke-linejoin:round; stroke-width:8; stroke-opacity:1; fill:none" points="416.515,1405.91 431.274,1405.91 446.032,1405.91 460.791,1405.91 475.55,1405.91 490.308,1405.91 505.067,1405.91 519.825,1405.91 534.584,1405.91 549.342,1405.91 564.101,1405.91 578.86,1405.91 593.618,1405.91 608.377,1405.91 623.135,1405.91 637.894,1405.91 652.653,1405.91 667.411,1405.91 682.17,1405.91 696.928,1405.91 711.687,1405.91 726.445,1405.91 741.204,1405.91 755.963,1405.91 770.721,1405.91 785.48,1405.91 800.238,1405.91 814.997,1405.91 829.756,1405.91 844.514,1405.91 859.273,1405.91 874.031,1405.91 888.79,1405.89 903.548,1405.91 918.307,1405.91 933.066,1405.91 947.824,1405.91 962.583,1405.91 977.341,1405.91 992.1,1405.91 1006.86,1405.91 1021.62,1405.91 1036.38,1405.91 1051.13,1405.91 1065.89,1405.91 1080.65,1405.91 1095.41,1405.91 1110.17,1405.91 1124.93,1405.91 1139.69,1405.91 1154.44,1405.89 1169.2,1405.89 1183.96,1405.89 1198.72,1405.88 1213.48,1405.88 1228.24,1405.86 1243,1405.86 1257.75,1405.84 1272.51,1405.84 1287.27,1405.84 1302.03,1405.88 1316.79,1405.86 1331.55,1405.86 1346.31,1405.86 1361.06,1405.88 1375.82,1405.84 1390.58,1405.84 1405.34,1405.84 1420.1,1405.84 1434.86,1405.84 1449.62,1405.84 1464.37,1405.84 1479.13,1405.83 1493.89,1405.83 1508.65,1405.83 1523.41,1405.84 1538.17,1405.83 1552.93,1405.77 1567.68,1405.72 1582.44,1405.72 1597.2,1405.64 1611.96,1405.6 1626.72,1405.55 1641.48,1405.53 1656.24,1405.52 1670.99,1405.5 1685.75,1405.46 1700.51,1405.5 1715.27,1405.47 1730.03,1405.46 1744.79,1405.44 1759.55,1405.44 1774.3,1405.39 1789.06,1405.32 1803.82,1405.22 1818.58,1405.18 1833.34,1405.15 1848.1,1405.12 1862.86,1405.16 1877.61,1405.19 1892.37,1405.16 1907.13,1405.13 1921.89,1405.12 1936.65,1405.07 1951.41,1404.91 1966.17,1404.82 1980.92,1404.63 1995.68,1404.57 2010.44,1404.56 2025.2,1404.34 2039.96,1404.04 2054.72,1403.89 2069.48,1403.61 2084.23,1403.47 2098.99,1403.38 2113.75,1403.38 2128.51,1403.24 2143.27,1403.24 2158.03,1402.94 2172.79,1402.82 2187.54,1402.46 2202.3,1402.2 2217.06,1402.17 2231.82,1401.95 2246.58,1401.9 2261.34,1401.84 2276.1,1401.73 2290.85,1401.34 2305.61,1400.99 2320.37,1400.58 2335.13,1399.87 2349.89,1399.53 2364.65,1399.04 2379.41,1398.64 2394.16,1398.49 2408.92,1398.27 2423.68,1397.65 2438.44,1396.87 2453.2,1396.37 2467.96,1395.88 2482.72,1395.27 2497.47,1394.76 2512.23,1394.37 2526.99,1393.58 2541.75,1393.22 2556.51,1392.79 2571.27,1392.03 2586.03,1391.51 2600.79,1390.3 2615.54,1389.31 2630.3,1388.92 2645.06,1388.05 2659.82,1387.48 2674.58,1386.73 2689.34,1386.37 2704.1,1385.32 2718.85,1384.48 2733.61,1384.17 2748.37,1383.55 2763.13,1383.39 2777.89,1382.74 2792.65,1382.54 2807.41,1381.78 2822.16,1381.36 2836.92,1380.78 2851.68,1380.15 2866.44,1380.38 2881.2,1380.52 2895.96,1380.35 2910.72,1380.68 2925.47,1380.61 2940.23,1379.84 2954.99,1379.33 2969.75,1379.26 2984.51,1379.25 2999.27,1379.15 3014.03,1379.26 3028.78,1379.43 3043.54,1379.54 3058.3,1379.87 3073.06,1380.37 "/>
<path clip-path="url(#clip620)" d="M2623.06 360.224 L3058.89 360.224 L3058.89 152.864 L2623.06 152.864  Z" fill="#ffffff" fill-rule="evenodd" fill-opacity="1"/>
<polyline clip-path="url(#clip620)" style="stroke:#000000; stroke-linecap:round; stroke-linejoin:round; stroke-width:4; stroke-opacity:1; fill:none" points="2623.06,360.224 3058.89,360.224 3058.89,152.864 2623.06,152.864 2623.06,360.224 "/>
<polyline clip-path="url(#clip620)" style="stroke:#4682b4; stroke-linecap:round; stroke-linejoin:round; stroke-width:8; stroke-opacity:1; fill:none" points="2654.35,204.704 2842.08,204.704 "/>
<path clip-path="url(#clip620)" d="M2873.37 187.424 L2878.07 187.424 L2878.07 208.419 Q2878.07 213.975 2880.08 216.428 Q2882.09 218.859 2886.61 218.859 Q2891.1 218.859 2893.11 216.428 Q2895.13 213.975 2895.13 208.419 L2895.13 187.424 L2899.83 187.424 L2899.83 208.998 Q2899.83 215.757 2896.47 219.206 Q2893.14 222.655 2886.61 222.655 Q2880.06 222.655 2876.7 219.206 Q2873.37 215.757 2873.37 208.998 L2873.37 187.424 Z" fill="#000000" fill-rule="nonzero" fill-opacity="1" /><path clip-path="url(#clip620)" d="M2929.96 206.336 L2929.96 221.984 L2925.71 221.984 L2925.71 206.475 Q2925.71 202.794 2924.27 200.965 Q2922.84 199.137 2919.96 199.137 Q2916.52 199.137 2914.53 201.336 Q2912.53 203.535 2912.53 207.331 L2912.53 221.984 L2908.25 221.984 L2908.25 196.058 L2912.53 196.058 L2912.53 200.086 Q2914.06 197.748 2916.12 196.59 Q2918.21 195.433 2920.91 195.433 Q2925.38 195.433 2927.67 198.211 Q2929.96 200.965 2929.96 206.336 Z" fill="#000000" fill-rule="nonzero" fill-opacity="1" /><path clip-path="url(#clip620)" d="M2935.4 196.058 L2939.92 196.058 L2948.02 217.817 L2956.12 196.058 L2960.64 196.058 L2950.91 221.984 L2945.13 221.984 L2935.4 196.058 Z" fill="#000000" fill-rule="nonzero" fill-opacity="1" /><path clip-path="url(#clip620)" d="M2978.3 208.951 Q2973.14 208.951 2971.15 210.132 Q2969.15 211.312 2969.15 214.16 Q2969.15 216.428 2970.64 217.771 Q2972.14 219.09 2974.71 219.09 Q2978.25 219.09 2980.38 216.59 Q2982.53 214.067 2982.53 209.9 L2982.53 208.951 L2978.3 208.951 M2986.79 207.192 L2986.79 221.984 L2982.53 221.984 L2982.53 218.049 Q2981.08 220.41 2978.9 221.544 Q2976.72 222.655 2973.58 222.655 Q2969.59 222.655 2967.23 220.433 Q2964.9 218.187 2964.9 214.437 Q2964.9 210.062 2967.81 207.84 Q2970.75 205.618 2976.56 205.618 L2982.53 205.618 L2982.53 205.201 Q2982.53 202.262 2980.59 200.664 Q2978.67 199.044 2975.17 199.044 Q2972.95 199.044 2970.84 199.576 Q2968.74 200.109 2966.79 201.174 L2966.79 197.238 Q2969.13 196.336 2971.33 195.896 Q2973.53 195.433 2975.61 195.433 Q2981.24 195.433 2984.02 198.35 Q2986.79 201.266 2986.79 207.192 Z" fill="#000000" fill-rule="nonzero" fill-opacity="1" /><path clip-path="url(#clip620)" d="M3017.12 196.058 L3007.74 208.674 L3017.6 221.984 L3012.58 221.984 L3005.03 211.799 L2997.49 221.984 L2992.46 221.984 L3002.53 208.419 L2993.32 196.058 L2998.34 196.058 L3005.22 205.294 L3012.09 196.058 L3017.12 196.058 Z" fill="#000000" fill-rule="nonzero" fill-opacity="1" /><polyline clip-path="url(#clip620)" style="stroke:#ffa500; stroke-linecap:round; stroke-linejoin:round; stroke-width:8; stroke-opacity:1; fill:none" points="2654.35,256.544 2842.08,256.544 "/>
<path clip-path="url(#clip620)" d="M2874.04 269.889 L2881.68 269.889 L2881.68 243.523 L2873.37 245.19 L2873.37 240.93 L2881.63 239.264 L2886.31 239.264 L2886.31 269.889 L2893.95 269.889 L2893.95 273.824 L2874.04 273.824 L2874.04 269.889 Z" fill="#000000" fill-rule="nonzero" fill-opacity="1" /><path clip-path="url(#clip620)" d="M2900.64 258.94 L2913.11 258.94 L2913.11 262.736 L2900.64 262.736 L2900.64 258.94 Z" fill="#000000" fill-rule="nonzero" fill-opacity="1" /><path clip-path="url(#clip620)" d="M2936.96 251.833 L2936.96 237.805 L2941.21 237.805 L2941.21 273.824 L2936.96 273.824 L2936.96 269.935 Q2935.61 272.25 2933.55 273.384 Q2931.52 274.495 2928.65 274.495 Q2923.95 274.495 2920.98 270.745 Q2918.04 266.995 2918.04 260.884 Q2918.04 254.773 2920.98 251.023 Q2923.95 247.273 2928.65 247.273 Q2931.52 247.273 2933.55 248.407 Q2935.61 249.518 2936.96 251.833 M2922.44 260.884 Q2922.44 265.583 2924.36 268.268 Q2926.31 270.93 2929.69 270.93 Q2933.07 270.93 2935.01 268.268 Q2936.96 265.583 2936.96 260.884 Q2936.96 256.185 2935.01 253.523 Q2933.07 250.838 2929.69 250.838 Q2926.31 250.838 2924.36 253.523 Q2922.44 256.185 2922.44 260.884 Z" fill="#000000" fill-rule="nonzero" fill-opacity="1" /><path clip-path="url(#clip620)" d="M2960.03 250.884 Q2956.61 250.884 2954.62 253.569 Q2952.63 256.231 2952.63 260.884 Q2952.63 265.537 2954.59 268.222 Q2956.59 270.884 2960.03 270.884 Q2963.44 270.884 2965.43 268.199 Q2967.42 265.514 2967.42 260.884 Q2967.42 256.278 2965.43 253.592 Q2963.44 250.884 2960.03 250.884 M2960.03 247.273 Q2965.59 247.273 2968.76 250.884 Q2971.93 254.495 2971.93 260.884 Q2971.93 267.25 2968.76 270.884 Q2965.59 274.495 2960.03 274.495 Q2954.46 274.495 2951.28 270.884 Q2948.14 267.25 2948.14 260.884 Q2948.14 254.495 2951.28 250.884 Q2954.46 247.273 2960.03 247.273 Z" fill="#000000" fill-rule="nonzero" fill-opacity="1" /><path clip-path="url(#clip620)" d="M2995.52 248.662 L2995.52 252.69 Q2993.71 251.764 2991.77 251.301 Q2989.83 250.838 2987.74 250.838 Q2984.57 250.838 2982.97 251.81 Q2981.4 252.782 2981.4 254.727 Q2981.4 256.208 2982.53 257.065 Q2983.67 257.898 2987.09 258.662 L2988.55 258.986 Q2993.09 259.958 2994.99 261.74 Q2996.91 263.5 2996.91 266.671 Q2996.91 270.282 2994.04 272.389 Q2991.19 274.495 2986.19 274.495 Q2984.11 274.495 2981.84 274.078 Q2979.59 273.685 2977.09 272.875 L2977.09 268.477 Q2979.46 269.703 2981.75 270.328 Q2984.04 270.93 2986.28 270.93 Q2989.29 270.93 2990.91 269.912 Q2992.53 268.87 2992.53 266.995 Q2992.53 265.259 2991.35 264.333 Q2990.2 263.407 2986.24 262.551 L2984.76 262.203 Q2980.8 261.37 2979.04 259.657 Q2977.28 257.921 2977.28 254.912 Q2977.28 251.254 2979.87 249.264 Q2982.46 247.273 2987.23 247.273 Q2989.59 247.273 2991.68 247.62 Q2993.76 247.967 2995.52 248.662 Z" fill="#000000" fill-rule="nonzero" fill-opacity="1" /><path clip-path="url(#clip620)" d="M3025.87 259.796 L3025.87 261.879 L3006.28 261.879 Q3006.56 266.277 3008.92 268.592 Q3011.31 270.884 3015.54 270.884 Q3018 270.884 3020.29 270.282 Q3022.6 269.68 3024.87 268.477 L3024.87 272.504 Q3022.58 273.476 3020.17 273.986 Q3017.77 274.495 3015.29 274.495 Q3009.08 274.495 3005.45 270.884 Q3001.84 267.273 3001.84 261.115 Q3001.84 254.75 3005.27 251.023 Q3008.71 247.273 3014.55 247.273 Q3019.78 247.273 3022.81 250.653 Q3025.87 254.009 3025.87 259.796 M3021.61 258.546 Q3021.56 255.051 3019.64 252.967 Q3017.74 250.884 3014.59 250.884 Q3011.03 250.884 3008.88 252.898 Q3006.75 254.912 3006.42 258.569 L3021.61 258.546 Z" fill="#000000" fill-rule="nonzero" fill-opacity="1" /><polyline clip-path="url(#clip620)" style="stroke:#008000; stroke-linecap:round; stroke-linejoin:round; stroke-width:8; stroke-opacity:1; fill:none" points="2654.35,308.384 2842.08,308.384 "/>
<path clip-path="url(#clip620)" d="M2878.99 321.729 L2895.31 321.729 L2895.31 325.664 L2873.37 325.664 L2873.37 321.729 Q2876.03 318.974 2880.61 314.344 Q2885.22 309.692 2886.4 308.349 Q2888.65 305.826 2889.53 304.09 Q2890.43 302.331 2890.43 300.641 Q2890.43 297.886 2888.48 296.15 Q2886.56 294.414 2883.46 294.414 Q2881.26 294.414 2878.81 295.178 Q2876.38 295.942 2873.6 297.493 L2873.6 292.77 Q2876.42 291.636 2878.88 291.057 Q2881.33 290.479 2883.37 290.479 Q2888.74 290.479 2891.93 293.164 Q2895.13 295.849 2895.13 300.34 Q2895.13 302.469 2894.32 304.391 Q2893.53 306.289 2891.42 308.881 Q2890.84 309.553 2887.74 312.77 Q2884.64 315.965 2878.99 321.729 Z" fill="#000000" fill-rule="nonzero" fill-opacity="1" /><path clip-path="url(#clip620)" d="M2902.37 310.78 L2914.85 310.78 L2914.85 314.576 L2902.37 314.576 L2902.37 310.78 Z" fill="#000000" fill-rule="nonzero" fill-opacity="1" /><path clip-path="url(#clip620)" d="M2938.69 303.673 L2938.69 289.645 L2942.95 289.645 L2942.95 325.664 L2938.69 325.664 L2938.69 321.775 Q2937.35 324.09 2935.29 325.224 Q2933.25 326.335 2930.38 326.335 Q2925.68 326.335 2922.72 322.585 Q2919.78 318.835 2919.78 312.724 Q2919.78 306.613 2922.72 302.863 Q2925.68 299.113 2930.38 299.113 Q2933.25 299.113 2935.29 300.247 Q2937.35 301.358 2938.69 303.673 M2924.18 312.724 Q2924.18 317.423 2926.1 320.108 Q2928.04 322.77 2931.42 322.77 Q2934.8 322.77 2936.75 320.108 Q2938.69 317.423 2938.69 312.724 Q2938.69 308.025 2936.75 305.363 Q2934.8 302.678 2931.42 302.678 Q2928.04 302.678 2926.1 305.363 Q2924.18 308.025 2924.18 312.724 Z" fill="#000000" fill-rule="nonzero" fill-opacity="1" /><path clip-path="url(#clip620)" d="M2961.77 302.724 Q2958.34 302.724 2956.35 305.409 Q2954.36 308.071 2954.36 312.724 Q2954.36 317.377 2956.33 320.062 Q2958.32 322.724 2961.77 322.724 Q2965.17 322.724 2967.16 320.039 Q2969.15 317.354 2969.15 312.724 Q2969.15 308.118 2967.16 305.432 Q2965.17 302.724 2961.77 302.724 M2961.77 299.113 Q2967.33 299.113 2970.5 302.724 Q2973.67 306.335 2973.67 312.724 Q2973.67 319.09 2970.5 322.724 Q2967.33 326.335 2961.77 326.335 Q2956.19 326.335 2953.02 322.724 Q2949.87 319.09 2949.87 312.724 Q2949.87 306.335 2953.02 302.724 Q2956.19 299.113 2961.77 299.113 Z" fill="#000000" fill-rule="nonzero" fill-opacity="1" /><path clip-path="url(#clip620)" d="M2997.26 300.502 L2997.26 304.53 Q2995.45 303.604 2993.51 303.141 Q2991.56 302.678 2989.48 302.678 Q2986.31 302.678 2984.71 303.65 Q2983.14 304.622 2983.14 306.567 Q2983.14 308.048 2984.27 308.905 Q2985.4 309.738 2988.83 310.502 L2990.29 310.826 Q2994.83 311.798 2996.72 313.58 Q2998.64 315.34 2998.64 318.511 Q2998.64 322.122 2995.77 324.229 Q2992.93 326.335 2987.93 326.335 Q2985.84 326.335 2983.58 325.918 Q2981.33 325.525 2978.83 324.715 L2978.83 320.317 Q2981.19 321.543 2983.48 322.168 Q2985.77 322.77 2988.02 322.77 Q2991.03 322.77 2992.65 321.752 Q2994.27 320.71 2994.27 318.835 Q2994.27 317.099 2993.09 316.173 Q2991.93 315.247 2987.97 314.391 L2986.49 314.043 Q2982.53 313.21 2980.77 311.497 Q2979.02 309.761 2979.02 306.752 Q2979.02 303.094 2981.61 301.104 Q2984.2 299.113 2988.97 299.113 Q2991.33 299.113 2993.41 299.46 Q2995.5 299.807 2997.26 300.502 Z" fill="#000000" fill-rule="nonzero" fill-opacity="1" /><path clip-path="url(#clip620)" d="M3027.6 311.636 L3027.6 313.719 L3008.02 313.719 Q3008.3 318.117 3010.66 320.432 Q3013.04 322.724 3017.28 322.724 Q3019.73 322.724 3022.02 322.122 Q3024.34 321.52 3026.61 320.317 L3026.61 324.344 Q3024.32 325.316 3021.91 325.826 Q3019.5 326.335 3017.02 326.335 Q3010.82 326.335 3007.19 322.724 Q3003.58 319.113 3003.58 312.955 Q3003.58 306.59 3007 302.863 Q3010.45 299.113 3016.28 299.113 Q3021.52 299.113 3024.55 302.493 Q3027.6 305.849 3027.6 311.636 M3023.34 310.386 Q3023.3 306.891 3021.38 304.807 Q3019.48 302.724 3016.33 302.724 Q3012.77 302.724 3010.61 304.738 Q3008.48 306.752 3008.16 310.409 L3023.34 310.386 Z" fill="#000000" fill-rule="nonzero" fill-opacity="1" /></svg>
