<?xml version="1.0" encoding="utf-8"?>
<svg xmlns="http://www.w3.org/2000/svg" xmlns:xlink="http://www.w3.org/1999/xlink" width="672" height="480" viewBox="0 0 2688 1920">
<defs>
  <clipPath id="clip030">
    <rect x="0" y="0" width="2688" height="1920"/>
  </clipPath>
</defs>
<path clip-path="url(#clip030)" d="M0 1920 L2688 1920 L2688 -4.26326e-14 L0 -4.26326e-14  Z" fill="#ffffff" fill-rule="evenodd" fill-opacity="1"/>
<defs>
  <clipPath id="clip031">
    <rect x="241" y="127" width="2400" height="1607"/>
  </clipPath>
</defs>
<path clip-path="url(#clip030)" d="M241.557 1734.12 L2640.76 1734.12 L2640.76 127.792 L241.557 127.792  Z" fill="#ffffff" fill-rule="evenodd" fill-opacity="1"/>
<polyline clip-path="url(#clip031)" style="stroke:#000000; stroke-linecap:round; stroke-linejoin:round; stroke-width:2; stroke-opacity:0.1; fill:none" points="309.459,1734.12 309.459,127.792 "/>
<polyline clip-path="url(#clip031)" style="stroke:#000000; stroke-linecap:round; stroke-linejoin:round; stroke-width:2; stroke-opacity:0.1; fill:none" points="875.308,1734.12 875.308,127.792 "/>
<polyline clip-path="url(#clip031)" style="stroke:#000000; stroke-linecap:round; stroke-linejoin:round; stroke-width:2; stroke-opacity:0.1; fill:none" points="1441.16,1734.12 1441.16,127.792 "/>
<polyline clip-path="url(#clip031)" style="stroke:#000000; stroke-linecap:round; stroke-linejoin:round; stroke-width:2; stroke-opacity:0.1; fill:none" points="2007.01,1734.12 2007.01,127.792 "/>
<polyline clip-path="url(#clip031)" style="stroke:#000000; stroke-linecap:round; stroke-linejoin:round; stroke-width:2; stroke-opacity:0.1; fill:none" points="2572.85,1734.12 2572.85,127.792 "/>
<polyline clip-path="url(#clip031)" style="stroke:#000000; stroke-linecap:round; stroke-linejoin:round; stroke-width:2; stroke-opacity:0.1; fill:none" points="241.557,1688.65 2640.76,1688.65 "/>
<polyline clip-path="url(#clip031)" style="stroke:#000000; stroke-linecap:round; stroke-linejoin:round; stroke-width:2; stroke-opacity:0.1; fill:none" points="241.557,1442.08 2640.76,1442.08 "/>
<polyline clip-path="url(#clip031)" style="stroke:#000000; stroke-linecap:round; stroke-linejoin:round; stroke-width:2; stroke-opacity:0.1; fill:none" points="241.557,1195.5 2640.76,1195.5 "/>
<polyline clip-path="url(#clip031)" style="stroke:#000000; stroke-linecap:round; stroke-linejoin:round; stroke-width:2; stroke-opacity:0.1; fill:none" points="241.557,948.925 2640.76,948.925 "/>
<polyline clip-path="url(#clip031)" style="stroke:#000000; stroke-linecap:round; stroke-linejoin:round; stroke-width:2; stroke-opacity:0.1; fill:none" points="241.557,702.348 2640.76,702.348 "/>
<polyline clip-path="url(#clip031)" style="stroke:#000000; stroke-linecap:round; stroke-linejoin:round; stroke-width:2; stroke-opacity:0.1; fill:none" points="241.557,455.771 2640.76,455.771 "/>
<polyline clip-path="url(#clip031)" style="stroke:#000000; stroke-linecap:round; stroke-linejoin:round; stroke-width:2; stroke-opacity:0.1; fill:none" points="241.557,209.195 2640.76,209.195 "/>
<polyline clip-path="url(#clip030)" style="stroke:#000000; stroke-linecap:round; stroke-linejoin:round; stroke-width:4; stroke-opacity:1; fill:none" points="241.557,1734.12 2640.76,1734.12 "/>
<polyline clip-path="url(#clip030)" style="stroke:#000000; stroke-linecap:round; stroke-linejoin:round; stroke-width:4; stroke-opacity:1; fill:none" points="309.459,1734.12 309.459,1715.22 "/>
<polyline clip-path="url(#clip030)" style="stroke:#000000; stroke-linecap:round; stroke-linejoin:round; stroke-width:4; stroke-opacity:1; fill:none" points="875.308,1734.12 875.308,1715.22 "/>
<polyline clip-path="url(#clip030)" style="stroke:#000000; stroke-linecap:round; stroke-linejoin:round; stroke-width:4; stroke-opacity:1; fill:none" points="1441.16,1734.12 1441.16,1715.22 "/>
<polyline clip-path="url(#clip030)" style="stroke:#000000; stroke-linecap:round; stroke-linejoin:round; stroke-width:4; stroke-opacity:1; fill:none" points="2007.01,1734.12 2007.01,1715.22 "/>
<polyline clip-path="url(#clip030)" style="stroke:#000000; stroke-linecap:round; stroke-linejoin:round; stroke-width:4; stroke-opacity:1; fill:none" points="2572.85,1734.12 2572.85,1715.22 "/>
<path clip-path="url(#clip030)" d="M309.459 1767.34 Q305.848 1767.34 304.019 1770.9 Q302.214 1774.45 302.214 1781.58 Q302.214 1788.68 304.019 1792.25 Q305.848 1795.79 309.459 1795.79 Q313.093 1795.79 314.899 1792.25 Q316.727 1788.68 316.727 1781.58 Q316.727 1774.45 314.899 1770.9 Q313.093 1767.34 309.459 1767.34 M309.459 1763.64 Q315.269 1763.64 318.325 1768.24 Q321.403 1772.83 321.403 1781.58 Q321.403 1790.3 318.325 1794.91 Q315.269 1799.49 309.459 1799.49 Q303.649 1799.49 300.57 1794.91 Q297.515 1790.3 297.515 1781.58 Q297.515 1772.83 300.57 1768.24 Q303.649 1763.64 309.459 1763.64 Z" fill="#000000" fill-rule="nonzero" fill-opacity="1" /><path clip-path="url(#clip030)" d="M850.007 1764.26 L868.363 1764.26 L868.363 1768.2 L854.289 1768.2 L854.289 1776.67 Q855.308 1776.32 856.326 1776.16 Q857.345 1775.97 858.363 1775.97 Q864.15 1775.97 867.53 1779.15 Q870.91 1782.32 870.91 1787.73 Q870.91 1793.31 867.437 1796.41 Q863.965 1799.49 857.646 1799.49 Q855.47 1799.49 853.201 1799.12 Q850.956 1798.75 848.549 1798.01 L848.549 1793.31 Q850.632 1794.45 852.854 1795 Q855.076 1795.56 857.553 1795.56 Q861.558 1795.56 863.896 1793.45 Q866.234 1791.34 866.234 1787.73 Q866.234 1784.12 863.896 1782.02 Q861.558 1779.91 857.553 1779.91 Q855.678 1779.91 853.803 1780.33 Q851.951 1780.74 850.007 1781.62 L850.007 1764.26 Z" fill="#000000" fill-rule="nonzero" fill-opacity="1" /><path clip-path="url(#clip030)" d="M890.122 1767.34 Q886.511 1767.34 884.683 1770.9 Q882.877 1774.45 882.877 1781.58 Q882.877 1788.68 884.683 1792.25 Q886.511 1795.79 890.122 1795.79 Q893.757 1795.79 895.562 1792.25 Q897.391 1788.68 897.391 1781.58 Q897.391 1774.45 895.562 1770.9 Q893.757 1767.34 890.122 1767.34 M890.122 1763.64 Q895.933 1763.64 898.988 1768.24 Q902.067 1772.83 902.067 1781.58 Q902.067 1790.3 898.988 1794.91 Q895.933 1799.49 890.122 1799.49 Q884.312 1799.49 881.234 1794.91 Q878.178 1790.3 878.178 1781.58 Q878.178 1772.83 881.234 1768.24 Q884.312 1763.64 890.122 1763.64 Z" fill="#000000" fill-rule="nonzero" fill-opacity="1" /><path clip-path="url(#clip030)" d="M1400.76 1794.89 L1408.4 1794.89 L1408.4 1768.52 L1400.09 1770.19 L1400.09 1765.93 L1408.36 1764.26 L1413.03 1764.26 L1413.03 1794.89 L1420.67 1794.89 L1420.67 1798.82 L1400.76 1798.82 L1400.76 1794.89 Z" fill="#000000" fill-rule="nonzero" fill-opacity="1" /><path clip-path="url(#clip030)" d="M1440.11 1767.34 Q1436.5 1767.34 1434.68 1770.9 Q1432.87 1774.45 1432.87 1781.58 Q1432.87 1788.68 1434.68 1792.25 Q1436.5 1795.79 1440.11 1795.79 Q1443.75 1795.79 1445.55 1792.25 Q1447.38 1788.68 1447.38 1781.58 Q1447.38 1774.45 1445.55 1770.9 Q1443.75 1767.34 1440.11 1767.34 M1440.11 1763.64 Q1445.93 1763.64 1448.98 1768.24 Q1452.06 1772.83 1452.06 1781.58 Q1452.06 1790.3 1448.98 1794.91 Q1445.93 1799.49 1440.11 1799.49 Q1434.3 1799.49 1431.23 1794.91 Q1428.17 1790.3 1428.17 1781.58 Q1428.17 1772.83 1431.23 1768.24 Q1434.3 1763.64 1440.11 1763.64 Z" fill="#000000" fill-rule="nonzero" fill-opacity="1" /><path clip-path="url(#clip030)" d="M1470.28 1767.34 Q1466.67 1767.34 1464.84 1770.9 Q1463.03 1774.45 1463.03 1781.58 Q1463.03 1788.68 1464.84 1792.25 Q1466.67 1795.79 1470.28 1795.79 Q1473.91 1795.79 1475.72 1792.25 Q1477.55 1788.68 1477.55 1781.58 Q1477.55 1774.45 1475.72 1770.9 Q1473.91 1767.34 1470.28 1767.34 M1470.28 1763.64 Q1476.09 1763.64 1479.14 1768.24 Q1482.22 1772.83 1482.22 1781.58 Q1482.22 1790.3 1479.14 1794.91 Q1476.09 1799.49 1470.28 1799.49 Q1464.47 1799.49 1461.39 1794.91 Q1458.33 1790.3 1458.33 1781.58 Q1458.33 1772.83 1461.39 1768.24 Q1464.47 1763.64 1470.28 1763.64 Z" fill="#000000" fill-rule="nonzero" fill-opacity="1" /><path clip-path="url(#clip030)" d="M1966.61 1794.89 L1974.25 1794.89 L1974.25 1768.52 L1965.94 1770.19 L1965.94 1765.93 L1974.2 1764.26 L1978.88 1764.26 L1978.88 1794.89 L1986.52 1794.89 L1986.52 1798.82 L1966.61 1798.82 L1966.61 1794.89 Z" fill="#000000" fill-rule="nonzero" fill-opacity="1" /><path clip-path="url(#clip030)" d="M1996.01 1764.26 L2014.37 1764.26 L2014.37 1768.2 L2000.29 1768.2 L2000.29 1776.67 Q2001.31 1776.32 2002.33 1776.16 Q2003.35 1775.97 2004.37 1775.97 Q2010.15 1775.97 2013.53 1779.15 Q2016.91 1782.32 2016.91 1787.73 Q2016.91 1793.31 2013.44 1796.41 Q2009.97 1799.49 2003.65 1799.49 Q2001.47 1799.49 1999.2 1799.12 Q1996.96 1798.75 1994.55 1798.01 L1994.55 1793.31 Q1996.63 1794.45 1998.86 1795 Q2001.08 1795.56 2003.56 1795.56 Q2007.56 1795.56 2009.9 1793.45 Q2012.24 1791.34 2012.24 1787.73 Q2012.24 1784.12 2009.9 1782.02 Q2007.56 1779.91 2003.56 1779.91 Q2001.68 1779.91 1999.81 1780.33 Q1997.95 1780.74 1996.01 1781.62 L1996.01 1764.26 Z" fill="#000000" fill-rule="nonzero" fill-opacity="1" /><path clip-path="url(#clip030)" d="M2036.13 1767.34 Q2032.51 1767.34 2030.69 1770.9 Q2028.88 1774.45 2028.88 1781.58 Q2028.88 1788.68 2030.69 1792.25 Q2032.51 1795.79 2036.13 1795.79 Q2039.76 1795.79 2041.57 1792.25 Q2043.39 1788.68 2043.39 1781.58 Q2043.39 1774.45 2041.57 1770.9 Q2039.76 1767.34 2036.13 1767.34 M2036.13 1763.64 Q2041.94 1763.64 2044.99 1768.24 Q2048.07 1772.83 2048.07 1781.58 Q2048.07 1790.3 2044.99 1794.91 Q2041.94 1799.49 2036.13 1799.49 Q2030.32 1799.49 2027.24 1794.91 Q2024.18 1790.3 2024.18 1781.58 Q2024.18 1772.83 2027.24 1768.24 Q2030.32 1763.64 2036.13 1763.64 Z" fill="#000000" fill-rule="nonzero" fill-opacity="1" /><path clip-path="url(#clip030)" d="M2536.55 1794.89 L2552.87 1794.89 L2552.87 1798.82 L2530.92 1798.82 L2530.92 1794.89 Q2533.58 1792.13 2538.17 1787.5 Q2542.77 1782.85 2543.95 1781.51 Q2546.2 1778.98 2547.08 1777.25 Q2547.98 1775.49 2547.98 1773.8 Q2547.98 1771.04 2546.04 1769.31 Q2544.12 1767.57 2541.01 1767.57 Q2538.81 1767.57 2536.36 1768.34 Q2533.93 1769.1 2531.15 1770.65 L2531.15 1765.93 Q2533.98 1764.79 2536.43 1764.21 Q2538.88 1763.64 2540.92 1763.64 Q2546.29 1763.64 2549.49 1766.32 Q2552.68 1769.01 2552.68 1773.5 Q2552.68 1775.63 2551.87 1777.55 Q2551.08 1779.45 2548.98 1782.04 Q2548.4 1782.71 2545.3 1785.93 Q2542.19 1789.12 2536.55 1794.89 Z" fill="#000000" fill-rule="nonzero" fill-opacity="1" /><path clip-path="url(#clip030)" d="M2572.68 1767.34 Q2569.07 1767.34 2567.24 1770.9 Q2565.44 1774.45 2565.44 1781.58 Q2565.44 1788.68 2567.24 1792.25 Q2569.07 1795.79 2572.68 1795.79 Q2576.31 1795.79 2578.12 1792.25 Q2579.95 1788.68 2579.95 1781.58 Q2579.95 1774.45 2578.12 1770.9 Q2576.31 1767.34 2572.68 1767.34 M2572.68 1763.64 Q2578.49 1763.64 2581.55 1768.24 Q2584.62 1772.83 2584.62 1781.58 Q2584.62 1790.3 2581.55 1794.91 Q2578.49 1799.49 2572.68 1799.49 Q2566.87 1799.49 2563.79 1794.91 Q2560.74 1790.3 2560.74 1781.58 Q2560.74 1772.83 2563.79 1768.24 Q2566.87 1763.64 2572.68 1763.64 Z" fill="#000000" fill-rule="nonzero" fill-opacity="1" /><path clip-path="url(#clip030)" d="M2602.84 1767.34 Q2599.23 1767.34 2597.4 1770.9 Q2595.6 1774.45 2595.6 1781.58 Q2595.6 1788.68 2597.4 1792.25 Q2599.23 1795.79 2602.84 1795.79 Q2606.48 1795.79 2608.28 1792.25 Q2610.11 1788.68 2610.11 1781.58 Q2610.11 1774.45 2608.28 1770.9 Q2606.48 1767.34 2602.84 1767.34 M2602.84 1763.64 Q2608.65 1763.64 2611.71 1768.24 Q2614.79 1772.83 2614.79 1781.58 Q2614.79 1790.3 2611.71 1794.91 Q2608.65 1799.49 2602.84 1799.49 Q2597.03 1799.49 2593.95 1794.91 Q2590.9 1790.3 2590.9 1781.58 Q2590.9 1772.83 2593.95 1768.24 Q2597.03 1763.64 2602.84 1763.64 Z" fill="#000000" fill-rule="nonzero" fill-opacity="1" /><path clip-path="url(#clip030)" d="M1363.03 1835.78 L1403.23 1835.78 L1403.23 1841.19 L1386.36 1841.19 L1386.36 1883.3 L1379.9 1883.3 L1379.9 1841.19 L1363.03 1841.19 L1363.03 1835.78 Z" fill="#000000" fill-rule="nonzero" fill-opacity="1" /><path clip-path="url(#clip030)" d="M1407.18 1847.65 L1413.04 1847.65 L1413.04 1883.3 L1407.18 1883.3 L1407.18 1847.65 M1407.18 1833.78 L1413.04 1833.78 L1413.04 1841.19 L1407.18 1841.19 L1407.18 1833.78 Z" fill="#000000" fill-rule="nonzero" fill-opacity="1" /><path clip-path="url(#clip030)" d="M1453.04 1854.5 Q1455.24 1850.55 1458.3 1848.67 Q1461.35 1846.79 1465.49 1846.79 Q1471.06 1846.79 1474.08 1850.71 Q1477.11 1854.59 1477.11 1861.78 L1477.11 1883.3 L1471.22 1883.3 L1471.22 1861.98 Q1471.22 1856.85 1469.4 1854.37 Q1467.59 1851.89 1463.87 1851.89 Q1459.31 1851.89 1456.67 1854.91 Q1454.03 1857.93 1454.03 1863.15 L1454.03 1883.3 L1448.14 1883.3 L1448.14 1861.98 Q1448.14 1856.82 1446.33 1854.37 Q1444.51 1851.89 1440.73 1851.89 Q1436.24 1851.89 1433.6 1854.94 Q1430.96 1857.97 1430.96 1863.15 L1430.96 1883.3 L1425.07 1883.3 L1425.07 1847.65 L1430.96 1847.65 L1430.96 1853.19 Q1432.96 1849.91 1435.76 1848.35 Q1438.56 1846.79 1442.41 1846.79 Q1446.3 1846.79 1449 1848.77 Q1451.74 1850.74 1453.04 1854.5 Z" fill="#000000" fill-rule="nonzero" fill-opacity="1" /><path clip-path="url(#clip030)" d="M1519.28 1864.01 L1519.28 1866.88 L1492.35 1866.88 Q1492.73 1872.92 1495.98 1876.11 Q1499.26 1879.26 1505.08 1879.26 Q1508.46 1879.26 1511.61 1878.43 Q1514.79 1877.6 1517.91 1875.95 L1517.91 1881.49 Q1514.76 1882.82 1511.45 1883.52 Q1508.14 1884.22 1504.73 1884.22 Q1496.2 1884.22 1491.21 1879.26 Q1486.24 1874.29 1486.24 1865.83 Q1486.24 1857.07 1490.95 1851.95 Q1495.69 1846.79 1503.72 1846.79 Q1510.91 1846.79 1515.08 1851.44 Q1519.28 1856.06 1519.28 1864.01 M1513.42 1862.29 Q1513.36 1857.49 1510.72 1854.62 Q1508.11 1851.76 1503.78 1851.76 Q1498.88 1851.76 1495.92 1854.53 Q1492.99 1857.3 1492.54 1862.33 L1513.42 1862.29 Z" fill="#000000" fill-rule="nonzero" fill-opacity="1" /><polyline clip-path="url(#clip030)" style="stroke:#000000; stroke-linecap:round; stroke-linejoin:round; stroke-width:4; stroke-opacity:1; fill:none" points="241.557,1734.12 241.557,127.792 "/>
<polyline clip-path="url(#clip030)" style="stroke:#000000; stroke-linecap:round; stroke-linejoin:round; stroke-width:4; stroke-opacity:1; fill:none" points="241.557,1688.65 260.455,1688.65 "/>
<polyline clip-path="url(#clip030)" style="stroke:#000000; stroke-linecap:round; stroke-linejoin:round; stroke-width:4; stroke-opacity:1; fill:none" points="241.557,1442.08 260.455,1442.08 "/>
<polyline clip-path="url(#clip030)" style="stroke:#000000; stroke-linecap:round; stroke-linejoin:round; stroke-width:4; stroke-opacity:1; fill:none" points="241.557,1195.5 260.455,1195.5 "/>
<polyline clip-path="url(#clip030)" style="stroke:#000000; stroke-linecap:round; stroke-linejoin:round; stroke-width:4; stroke-opacity:1; fill:none" points="241.557,948.925 260.455,948.925 "/>
<polyline clip-path="url(#clip030)" style="stroke:#000000; stroke-linecap:round; stroke-linejoin:round; stroke-width:4; stroke-opacity:1; fill:none" points="241.557,702.348 260.455,702.348 "/>
<polyline clip-path="url(#clip030)" style="stroke:#000000; stroke-linecap:round; stroke-linejoin:round; stroke-width:4; stroke-opacity:1; fill:none" points="241.557,455.771 260.455,455.771 "/>
<polyline clip-path="url(#clip030)" style="stroke:#000000; stroke-linecap:round; stroke-linejoin:round; stroke-width:4; stroke-opacity:1; fill:none" points="241.557,209.195 260.455,209.195 "/>
<path clip-path="url(#clip030)" d="M189.293 1674.45 Q185.682 1674.45 183.853 1678.02 Q182.047 1681.56 182.047 1688.69 Q182.047 1695.8 183.853 1699.36 Q185.682 1702.9 189.293 1702.9 Q192.927 1702.9 194.733 1699.36 Q196.561 1695.8 196.561 1688.69 Q196.561 1681.56 194.733 1678.02 Q192.927 1674.45 189.293 1674.45 M189.293 1670.75 Q195.103 1670.75 198.158 1675.36 Q201.237 1679.94 201.237 1688.69 Q201.237 1697.42 198.158 1702.02 Q195.103 1706.61 189.293 1706.61 Q183.483 1706.61 180.404 1702.02 Q177.348 1697.42 177.348 1688.69 Q177.348 1679.94 180.404 1675.36 Q183.483 1670.75 189.293 1670.75 Z" fill="#000000" fill-rule="nonzero" fill-opacity="1" /><path clip-path="url(#clip030)" d="M119.779 1455.42 L127.418 1455.42 L127.418 1429.06 L119.108 1430.72 L119.108 1426.46 L127.372 1424.8 L132.048 1424.8 L132.048 1455.42 L139.687 1455.42 L139.687 1459.36 L119.779 1459.36 L119.779 1455.42 Z" fill="#000000" fill-rule="nonzero" fill-opacity="1" /><path clip-path="url(#clip030)" d="M159.131 1427.88 Q155.52 1427.88 153.691 1431.44 Q151.886 1434.98 151.886 1442.11 Q151.886 1449.22 153.691 1452.78 Q155.52 1456.33 159.131 1456.33 Q162.765 1456.33 164.571 1452.78 Q166.399 1449.22 166.399 1442.11 Q166.399 1434.98 164.571 1431.44 Q162.765 1427.88 159.131 1427.88 M159.131 1424.17 Q164.941 1424.17 167.997 1428.78 Q171.075 1433.36 171.075 1442.11 Q171.075 1450.84 167.997 1455.45 Q164.941 1460.03 159.131 1460.03 Q153.321 1460.03 150.242 1455.45 Q147.186 1450.84 147.186 1442.11 Q147.186 1433.36 150.242 1428.78 Q153.321 1424.17 159.131 1424.17 Z" fill="#000000" fill-rule="nonzero" fill-opacity="1" /><path clip-path="url(#clip030)" d="M189.293 1427.88 Q185.682 1427.88 183.853 1431.44 Q182.047 1434.98 182.047 1442.11 Q182.047 1449.22 183.853 1452.78 Q185.682 1456.33 189.293 1456.33 Q192.927 1456.33 194.733 1452.78 Q196.561 1449.22 196.561 1442.11 Q196.561 1434.98 194.733 1431.44 Q192.927 1427.88 189.293 1427.88 M189.293 1424.17 Q195.103 1424.17 198.158 1428.78 Q201.237 1433.36 201.237 1442.11 Q201.237 1450.84 198.158 1455.45 Q195.103 1460.03 189.293 1460.03 Q183.483 1460.03 180.404 1455.45 Q177.348 1450.84 177.348 1442.11 Q177.348 1433.36 180.404 1428.78 Q183.483 1424.17 189.293 1424.17 Z" fill="#000000" fill-rule="nonzero" fill-opacity="1" /><path clip-path="url(#clip030)" d="M122.997 1208.85 L139.316 1208.85 L139.316 1212.78 L117.372 1212.78 L117.372 1208.85 Q120.034 1206.09 124.617 1201.46 Q129.224 1196.81 130.404 1195.47 Q132.65 1192.94 133.529 1191.21 Q134.432 1189.45 134.432 1187.76 Q134.432 1185 132.488 1183.27 Q130.566 1181.53 127.464 1181.53 Q125.265 1181.53 122.812 1182.3 Q120.381 1183.06 117.603 1184.61 L117.603 1179.89 Q120.427 1178.75 122.881 1178.18 Q125.335 1177.6 127.372 1177.6 Q132.742 1177.6 135.937 1180.28 Q139.131 1182.97 139.131 1187.46 Q139.131 1189.59 138.321 1191.51 Q137.534 1193.41 135.427 1196 Q134.849 1196.67 131.747 1199.89 Q128.645 1203.08 122.997 1208.85 Z" fill="#000000" fill-rule="nonzero" fill-opacity="1" /><path clip-path="url(#clip030)" d="M159.131 1181.3 Q155.52 1181.3 153.691 1184.86 Q151.886 1188.41 151.886 1195.54 Q151.886 1202.64 153.691 1206.21 Q155.52 1209.75 159.131 1209.75 Q162.765 1209.75 164.571 1206.21 Q166.399 1202.64 166.399 1195.54 Q166.399 1188.41 164.571 1184.86 Q162.765 1181.3 159.131 1181.3 M159.131 1177.6 Q164.941 1177.6 167.997 1182.2 Q171.075 1186.79 171.075 1195.54 Q171.075 1204.26 167.997 1208.87 Q164.941 1213.45 159.131 1213.45 Q153.321 1213.45 150.242 1208.87 Q147.186 1204.26 147.186 1195.54 Q147.186 1186.79 150.242 1182.2 Q153.321 1177.6 159.131 1177.6 Z" fill="#000000" fill-rule="nonzero" fill-opacity="1" /><path clip-path="url(#clip030)" d="M189.293 1181.3 Q185.682 1181.3 183.853 1184.86 Q182.047 1188.41 182.047 1195.54 Q182.047 1202.64 183.853 1206.21 Q185.682 1209.75 189.293 1209.75 Q192.927 1209.75 194.733 1206.21 Q196.561 1202.64 196.561 1195.54 Q196.561 1188.41 194.733 1184.86 Q192.927 1181.3 189.293 1181.3 M189.293 1177.6 Q195.103 1177.6 198.158 1182.2 Q201.237 1186.79 201.237 1195.54 Q201.237 1204.26 198.158 1208.87 Q195.103 1213.45 189.293 1213.45 Q183.483 1213.45 180.404 1208.87 Q177.348 1204.26 177.348 1195.54 Q177.348 1186.79 180.404 1182.2 Q183.483 1177.6 189.293 1177.6 Z" fill="#000000" fill-rule="nonzero" fill-opacity="1" /><path clip-path="url(#clip030)" d="M133.136 947.571 Q136.492 948.288 138.367 950.557 Q140.265 952.825 140.265 956.159 Q140.265 961.274 136.747 964.075 Q133.228 966.876 126.747 966.876 Q124.571 966.876 122.256 966.436 Q119.964 966.02 117.511 965.163 L117.511 960.649 Q119.455 961.783 121.77 962.362 Q124.085 962.941 126.608 962.941 Q131.006 962.941 133.298 961.205 Q135.612 959.469 135.612 956.159 Q135.612 953.103 133.46 951.39 Q131.33 949.654 127.511 949.654 L123.483 949.654 L123.483 945.811 L127.696 945.811 Q131.145 945.811 132.974 944.446 Q134.802 943.057 134.802 940.464 Q134.802 937.802 132.904 936.39 Q131.029 934.955 127.511 934.955 Q125.589 934.955 123.39 935.372 Q121.191 935.788 118.552 936.668 L118.552 932.501 Q121.214 931.76 123.529 931.39 Q125.867 931.02 127.927 931.02 Q133.251 931.02 136.353 933.45 Q139.455 935.858 139.455 939.978 Q139.455 942.848 137.812 944.839 Q136.168 946.807 133.136 947.571 Z" fill="#000000" fill-rule="nonzero" fill-opacity="1" /><path clip-path="url(#clip030)" d="M159.131 934.723 Q155.52 934.723 153.691 938.288 Q151.886 941.83 151.886 948.959 Q151.886 956.066 153.691 959.631 Q155.52 963.172 159.131 963.172 Q162.765 963.172 164.571 959.631 Q166.399 956.066 166.399 948.959 Q166.399 941.83 164.571 938.288 Q162.765 934.723 159.131 934.723 M159.131 931.02 Q164.941 931.02 167.997 935.626 Q171.075 940.21 171.075 948.959 Q171.075 957.686 167.997 962.293 Q164.941 966.876 159.131 966.876 Q153.321 966.876 150.242 962.293 Q147.186 957.686 147.186 948.959 Q147.186 940.21 150.242 935.626 Q153.321 931.02 159.131 931.02 Z" fill="#000000" fill-rule="nonzero" fill-opacity="1" /><path clip-path="url(#clip030)" d="M189.293 934.723 Q185.682 934.723 183.853 938.288 Q182.047 941.83 182.047 948.959 Q182.047 956.066 183.853 959.631 Q185.682 963.172 189.293 963.172 Q192.927 963.172 194.733 959.631 Q196.561 956.066 196.561 948.959 Q196.561 941.83 194.733 938.288 Q192.927 934.723 189.293 934.723 M189.293 931.02 Q195.103 931.02 198.158 935.626 Q201.237 940.21 201.237 948.959 Q201.237 957.686 198.158 962.293 Q195.103 966.876 189.293 966.876 Q183.483 966.876 180.404 962.293 Q177.348 957.686 177.348 948.959 Q177.348 940.21 180.404 935.626 Q183.483 931.02 189.293 931.02 Z" fill="#000000" fill-rule="nonzero" fill-opacity="1" /><path clip-path="url(#clip030)" d="M131.816 689.142 L120.011 707.591 L131.816 707.591 L131.816 689.142 M130.589 685.068 L136.469 685.068 L136.469 707.591 L141.399 707.591 L141.399 711.48 L136.469 711.48 L136.469 719.628 L131.816 719.628 L131.816 711.48 L116.214 711.48 L116.214 706.966 L130.589 685.068 Z" fill="#000000" fill-rule="nonzero" fill-opacity="1" /><path clip-path="url(#clip030)" d="M159.131 688.147 Q155.52 688.147 153.691 691.711 Q151.886 695.253 151.886 702.383 Q151.886 709.489 153.691 713.054 Q155.52 716.596 159.131 716.596 Q162.765 716.596 164.571 713.054 Q166.399 709.489 166.399 702.383 Q166.399 695.253 164.571 691.711 Q162.765 688.147 159.131 688.147 M159.131 684.443 Q164.941 684.443 167.997 689.049 Q171.075 693.633 171.075 702.383 Q171.075 711.11 167.997 715.716 Q164.941 720.299 159.131 720.299 Q153.321 720.299 150.242 715.716 Q147.186 711.11 147.186 702.383 Q147.186 693.633 150.242 689.049 Q153.321 684.443 159.131 684.443 Z" fill="#000000" fill-rule="nonzero" fill-opacity="1" /><path clip-path="url(#clip030)" d="M189.293 688.147 Q185.682 688.147 183.853 691.711 Q182.047 695.253 182.047 702.383 Q182.047 709.489 183.853 713.054 Q185.682 716.596 189.293 716.596 Q192.927 716.596 194.733 713.054 Q196.561 709.489 196.561 702.383 Q196.561 695.253 194.733 691.711 Q192.927 688.147 189.293 688.147 M189.293 684.443 Q195.103 684.443 198.158 689.049 Q201.237 693.633 201.237 702.383 Q201.237 711.11 198.158 715.716 Q195.103 720.299 189.293 720.299 Q183.483 720.299 180.404 715.716 Q177.348 711.11 177.348 702.383 Q177.348 693.633 180.404 689.049 Q183.483 684.443 189.293 684.443 Z" fill="#000000" fill-rule="nonzero" fill-opacity="1" /><path clip-path="url(#clip030)" d="M119.015 438.491 L137.372 438.491 L137.372 442.426 L123.298 442.426 L123.298 450.899 Q124.316 450.551 125.335 450.389 Q126.353 450.204 127.372 450.204 Q133.159 450.204 136.538 453.375 Q139.918 456.547 139.918 461.963 Q139.918 467.542 136.446 470.644 Q132.974 473.723 126.654 473.723 Q124.478 473.723 122.21 473.352 Q119.964 472.982 117.557 472.241 L117.557 467.542 Q119.64 468.676 121.863 469.232 Q124.085 469.787 126.562 469.787 Q130.566 469.787 132.904 467.681 Q135.242 465.574 135.242 461.963 Q135.242 458.352 132.904 456.246 Q130.566 454.139 126.562 454.139 Q124.687 454.139 122.812 454.556 Q120.96 454.973 119.015 455.852 L119.015 438.491 Z" fill="#000000" fill-rule="nonzero" fill-opacity="1" /><path clip-path="url(#clip030)" d="M159.131 441.57 Q155.52 441.57 153.691 445.135 Q151.886 448.676 151.886 455.806 Q151.886 462.912 153.691 466.477 Q155.52 470.019 159.131 470.019 Q162.765 470.019 164.571 466.477 Q166.399 462.912 166.399 455.806 Q166.399 448.676 164.571 445.135 Q162.765 441.57 159.131 441.57 M159.131 437.866 Q164.941 437.866 167.997 442.473 Q171.075 447.056 171.075 455.806 Q171.075 464.533 167.997 469.139 Q164.941 473.723 159.131 473.723 Q153.321 473.723 150.242 469.139 Q147.186 464.533 147.186 455.806 Q147.186 447.056 150.242 442.473 Q153.321 437.866 159.131 437.866 Z" fill="#000000" fill-rule="nonzero" fill-opacity="1" /><path clip-path="url(#clip030)" d="M189.293 441.57 Q185.682 441.57 183.853 445.135 Q182.047 448.676 182.047 455.806 Q182.047 462.912 183.853 466.477 Q185.682 470.019 189.293 470.019 Q192.927 470.019 194.733 466.477 Q196.561 462.912 196.561 455.806 Q196.561 448.676 194.733 445.135 Q192.927 441.57 189.293 441.57 M189.293 437.866 Q195.103 437.866 198.158 442.473 Q201.237 447.056 201.237 455.806 Q201.237 464.533 198.158 469.139 Q195.103 473.723 189.293 473.723 Q183.483 473.723 180.404 469.139 Q177.348 464.533 177.348 455.806 Q177.348 447.056 180.404 442.473 Q183.483 437.866 189.293 437.866 Z" fill="#000000" fill-rule="nonzero" fill-opacity="1" /><path clip-path="url(#clip030)" d="M129.548 207.331 Q126.4 207.331 124.548 209.484 Q122.719 211.637 122.719 215.387 Q122.719 219.113 124.548 221.289 Q126.4 223.442 129.548 223.442 Q132.696 223.442 134.525 221.289 Q136.376 219.113 136.376 215.387 Q136.376 211.637 134.525 209.484 Q132.696 207.331 129.548 207.331 M138.83 192.678 L138.83 196.938 Q137.071 196.104 135.265 195.664 Q133.483 195.225 131.724 195.225 Q127.094 195.225 124.64 198.35 Q122.21 201.475 121.863 207.794 Q123.228 205.78 125.288 204.715 Q127.349 203.627 129.825 203.627 Q135.034 203.627 138.043 206.799 Q141.075 209.947 141.075 215.387 Q141.075 220.711 137.927 223.928 Q134.779 227.146 129.548 227.146 Q123.552 227.146 120.381 222.563 Q117.21 217.956 117.21 209.229 Q117.21 201.035 121.099 196.174 Q124.988 191.29 131.538 191.29 Q133.298 191.29 135.08 191.637 Q136.886 191.984 138.83 192.678 Z" fill="#000000" fill-rule="nonzero" fill-opacity="1" /><path clip-path="url(#clip030)" d="M159.131 194.993 Q155.52 194.993 153.691 198.558 Q151.886 202.1 151.886 209.229 Q151.886 216.336 153.691 219.9 Q155.52 223.442 159.131 223.442 Q162.765 223.442 164.571 219.9 Q166.399 216.336 166.399 209.229 Q166.399 202.1 164.571 198.558 Q162.765 194.993 159.131 194.993 M159.131 191.29 Q164.941 191.29 167.997 195.896 Q171.075 200.479 171.075 209.229 Q171.075 217.956 167.997 222.563 Q164.941 227.146 159.131 227.146 Q153.321 227.146 150.242 222.563 Q147.186 217.956 147.186 209.229 Q147.186 200.479 150.242 195.896 Q153.321 191.29 159.131 191.29 Z" fill="#000000" fill-rule="nonzero" fill-opacity="1" /><path clip-path="url(#clip030)" d="M189.293 194.993 Q185.682 194.993 183.853 198.558 Q182.047 202.1 182.047 209.229 Q182.047 216.336 183.853 219.9 Q185.682 223.442 189.293 223.442 Q192.927 223.442 194.733 219.9 Q196.561 216.336 196.561 209.229 Q196.561 202.1 194.733 198.558 Q192.927 194.993 189.293 194.993 M189.293 191.29 Q195.103 191.29 198.158 195.896 Q201.237 200.479 201.237 209.229 Q201.237 217.956 198.158 222.563 Q195.103 227.146 189.293 227.146 Q183.483 227.146 180.404 222.563 Q177.348 217.956 177.348 209.229 Q177.348 200.479 180.404 195.896 Q183.483 191.29 189.293 191.29 Z" fill="#000000" fill-rule="nonzero" fill-opacity="1" /><path clip-path="url(#clip030)" d="M14.1184 1058.03 L14.1184 1051.6 L61.6384 1051.6 L61.6384 1058.03 L14.1184 1058.03 Z" fill="#000000" fill-rule="nonzero" fill-opacity="1" /><path clip-path="url(#clip030)" d="M40.1224 1009.43 L61.6384 1009.43 L61.6384 1015.28 L40.3133 1015.28 Q35.2526 1015.28 32.7381 1017.26 Q30.2237 1019.23 30.2237 1023.18 Q30.2237 1027.92 33.2474 1030.66 Q36.2711 1033.39 41.491 1033.39 L61.6384 1033.39 L61.6384 1039.28 L25.9905 1039.28 L25.9905 1033.39 L31.5287 1033.39 Q28.314 1031.29 26.7225 1028.46 Q25.1311 1025.6 25.1311 1021.87 Q25.1311 1015.73 28.9505 1012.58 Q32.7381 1009.43 40.1224 1009.43 Z" fill="#000000" fill-rule="nonzero" fill-opacity="1" /><path clip-path="url(#clip030)" d="M12.1132 979.7 L16.983 979.7 L16.983 985.302 Q16.983 988.453 18.2562 989.694 Q19.5293 990.904 22.8395 990.904 L25.9905 990.904 L25.9905 981.26 L30.542 981.26 L30.542 990.904 L61.6384 990.904 L61.6384 996.792 L30.542 996.792 L30.542 1002.39 L25.9905 1002.39 L25.9905 996.792 L23.5079 996.792 Q17.5559 996.792 14.8505 994.023 Q12.1132 991.254 12.1132 985.238 L12.1132 979.7 Z" fill="#000000" fill-rule="nonzero" fill-opacity="1" /><path clip-path="url(#clip030)" d="M42.3504 944.307 L45.2149 944.307 L45.2149 971.234 Q51.2623 970.852 54.4452 967.605 Q57.5962 964.327 57.5962 958.502 Q57.5962 955.128 56.7687 951.977 Q55.9411 948.794 54.2861 945.675 L59.8242 945.675 Q61.161 948.826 61.8612 952.136 Q62.5615 955.447 62.5615 958.852 Q62.5615 967.382 57.5962 972.379 Q52.631 977.345 44.1646 977.345 Q35.4117 977.345 30.2873 972.634 Q25.1311 967.892 25.1311 959.871 Q25.1311 952.678 29.7781 948.508 Q34.3932 944.307 42.3504 944.307 M40.6316 950.163 Q35.8255 950.227 32.9609 952.869 Q30.0964 955.478 30.0964 959.807 Q30.0964 964.709 32.8654 967.669 Q35.6345 970.597 40.6634 971.043 L40.6316 950.163 Z" fill="#000000" fill-rule="nonzero" fill-opacity="1" /><path clip-path="url(#clip030)" d="M27.3591 909.041 L32.8336 909.041 Q31.465 911.523 30.7966 914.038 Q30.0964 916.52 30.0964 919.067 Q30.0964 924.764 33.7248 927.915 Q37.3214 931.066 43.8463 931.066 Q50.3711 931.066 53.9996 927.915 Q57.5962 924.764 57.5962 919.067 Q57.5962 916.52 56.9278 914.038 Q56.2276 911.523 54.859 909.041 L60.2698 909.041 Q61.4156 911.491 61.9886 914.133 Q62.5615 916.743 62.5615 919.703 Q62.5615 927.756 57.5007 932.498 Q52.44 937.241 43.8463 937.241 Q35.1253 937.241 30.1282 932.466 Q25.1311 927.66 25.1311 919.321 Q25.1311 916.616 25.704 914.038 Q26.2451 911.46 27.3591 909.041 Z" fill="#000000" fill-rule="nonzero" fill-opacity="1" /><path clip-path="url(#clip030)" d="M15.869 893.063 L25.9905 893.063 L25.9905 881 L30.542 881 L30.542 893.063 L49.8937 893.063 Q54.2542 893.063 55.4955 891.885 Q56.7368 890.676 56.7368 887.015 L56.7368 881 L61.6384 881 L61.6384 887.015 Q61.6384 893.795 59.124 896.373 Q56.5777 898.951 49.8937 898.951 L30.542 898.951 L30.542 903.248 L25.9905 903.248 L25.9905 898.951 L15.869 898.951 L15.869 893.063 Z" fill="#000000" fill-rule="nonzero" fill-opacity="1" /><path clip-path="url(#clip030)" d="M42.3504 842.805 L45.2149 842.805 L45.2149 869.732 Q51.2623 869.35 54.4452 866.104 Q57.5962 862.826 57.5962 857.001 Q57.5962 853.627 56.7687 850.476 Q55.9411 847.293 54.2861 844.174 L59.8242 844.174 Q61.161 847.325 61.8612 850.635 Q62.5615 853.945 62.5615 857.351 Q62.5615 865.881 57.5962 870.878 Q52.631 875.843 44.1646 875.843 Q35.4117 875.843 30.2873 871.133 Q25.1311 866.39 25.1311 858.37 Q25.1311 851.176 29.7781 847.007 Q34.3932 842.805 42.3504 842.805 M40.6316 848.662 Q35.8255 848.726 32.9609 851.367 Q30.0964 853.977 30.0964 858.306 Q30.0964 863.208 32.8654 866.168 Q35.6345 869.096 40.6634 869.541 L40.6316 848.662 Z" fill="#000000" fill-rule="nonzero" fill-opacity="1" /><path clip-path="url(#clip030)" d="M31.4013 809.736 L12.1132 809.736 L12.1132 803.879 L61.6384 803.879 L61.6384 809.736 L56.2912 809.736 Q59.4741 811.582 61.0337 814.414 Q62.5615 817.215 62.5615 821.162 Q62.5615 827.623 57.4052 831.697 Q52.249 835.739 43.8463 835.739 Q35.4436 835.739 30.2873 831.697 Q25.1311 827.623 25.1311 821.162 Q25.1311 817.215 26.6907 814.414 Q28.2185 811.582 31.4013 809.736 M43.8463 829.692 Q50.3075 829.692 53.9996 827.05 Q57.6599 824.377 57.6599 819.73 Q57.6599 815.083 53.9996 812.409 Q50.3075 809.736 43.8463 809.736 Q37.3851 809.736 33.7248 812.409 Q30.0327 815.083 30.0327 819.73 Q30.0327 824.377 33.7248 827.05 Q37.3851 829.692 43.8463 829.692 Z" fill="#000000" fill-rule="nonzero" fill-opacity="1" /><path clip-path="url(#clip030)" d="M747.986 12.096 L786.227 12.096 L786.227 18.9825 L756.169 18.9825 L756.169 36.8875 L784.971 36.8875 L784.971 43.7741 L756.169 43.7741 L756.169 65.6895 L786.956 65.6895 L786.956 72.576 L747.986 72.576 L747.986 12.096 Z" fill="#000000" fill-rule="nonzero" fill-opacity="1" /><path clip-path="url(#clip030)" d="M823.049 9.54393 L823.049 15.7418 L815.92 15.7418 Q811.909 15.7418 810.329 17.3622 Q808.79 18.9825 808.79 23.1955 L808.79 27.2059 L821.064 27.2059 L821.064 32.9987 L808.79 32.9987 L808.79 72.576 L801.296 72.576 L801.296 32.9987 L794.166 32.9987 L794.166 27.2059 L801.296 27.2059 L801.296 24.0462 Q801.296 16.471 804.82 13.0277 Q808.345 9.54393 816.001 9.54393 L823.049 9.54393 Z" fill="#000000" fill-rule="nonzero" fill-opacity="1" /><path clip-path="url(#clip030)" d="M852.256 9.54393 L852.256 15.7418 L845.127 15.7418 Q841.116 15.7418 839.536 17.3622 Q837.997 18.9825 837.997 23.1955 L837.997 27.2059 L850.271 27.2059 L850.271 32.9987 L837.997 32.9987 L837.997 72.576 L830.503 72.576 L830.503 32.9987 L823.373 32.9987 L823.373 27.2059 L830.503 27.2059 L830.503 24.0462 Q830.503 16.471 834.027 13.0277 Q837.552 9.54393 845.208 9.54393 L852.256 9.54393 Z" fill="#000000" fill-rule="nonzero" fill-opacity="1" /><path clip-path="url(#clip030)" d="M897.302 48.0275 L897.302 51.6733 L863.032 51.6733 Q863.518 59.3701 867.65 63.421 Q871.822 67.4314 879.235 67.4314 Q883.529 67.4314 887.54 66.3781 Q891.591 65.3249 895.56 63.2184 L895.56 70.267 Q891.55 71.9684 887.337 72.8596 Q883.124 73.7508 878.79 73.7508 Q867.933 73.7508 861.573 67.4314 Q855.254 61.1119 855.254 50.3365 Q855.254 39.1965 861.249 32.6746 Q867.285 26.1121 877.493 26.1121 Q886.648 26.1121 891.955 32.0264 Q897.302 37.9003 897.302 48.0275 M889.849 45.84 Q889.768 39.7232 886.405 36.0774 Q883.084 32.4315 877.574 32.4315 Q871.336 32.4315 867.569 35.9558 Q863.842 39.4801 863.275 45.8805 L889.849 45.84 Z" fill="#000000" fill-rule="nonzero" fill-opacity="1" /><path clip-path="url(#clip030)" d="M942.186 28.9478 L942.186 35.9153 Q939.027 34.1734 935.826 33.3227 Q932.667 32.4315 929.426 32.4315 Q922.175 32.4315 918.165 37.0496 Q914.154 41.6271 914.154 49.9314 Q914.154 58.2358 918.165 62.8538 Q922.175 67.4314 929.426 67.4314 Q932.667 67.4314 935.826 66.5807 Q939.027 65.6895 942.186 63.9476 L942.186 70.8341 Q939.067 72.2924 935.705 73.0216 Q932.383 73.7508 928.616 73.7508 Q918.367 73.7508 912.331 67.3098 Q906.295 60.8689 906.295 49.9314 Q906.295 38.832 912.372 32.472 Q918.489 26.1121 929.102 26.1121 Q932.545 26.1121 935.826 26.8413 Q939.108 27.5299 942.186 28.9478 Z" fill="#000000" fill-rule="nonzero" fill-opacity="1" /><path clip-path="url(#clip030)" d="M962.522 14.324 L962.522 27.2059 L977.875 27.2059 L977.875 32.9987 L962.522 32.9987 L962.522 57.6282 Q962.522 63.1779 964.021 64.7578 Q965.56 66.3376 970.219 66.3376 L977.875 66.3376 L977.875 72.576 L970.219 72.576 Q961.59 72.576 958.309 69.3758 Q955.028 66.1351 955.028 57.6282 L955.028 32.9987 L949.559 32.9987 L949.559 27.2059 L955.028 27.2059 L955.028 14.324 L962.522 14.324 Z" fill="#000000" fill-rule="nonzero" fill-opacity="1" /><path clip-path="url(#clip030)" d="M1031.63 32.4315 Q1025.64 32.4315 1022.15 37.1306 Q1018.67 41.7891 1018.67 49.9314 Q1018.67 58.0738 1022.11 62.7728 Q1025.59 67.4314 1031.63 67.4314 Q1037.59 67.4314 1041.07 62.7323 Q1044.55 58.0333 1044.55 49.9314 Q1044.55 41.8701 1041.07 37.1711 Q1037.59 32.4315 1031.63 32.4315 M1031.63 26.1121 Q1041.35 26.1121 1046.9 32.4315 Q1052.45 38.7509 1052.45 49.9314 Q1052.45 61.0714 1046.9 67.4314 Q1041.35 73.7508 1031.63 73.7508 Q1021.87 73.7508 1016.32 67.4314 Q1010.81 61.0714 1010.81 49.9314 Q1010.81 38.7509 1016.32 32.4315 Q1021.87 26.1121 1031.63 26.1121 Z" fill="#000000" fill-rule="nonzero" fill-opacity="1" /><path clip-path="url(#clip030)" d="M1087.78 9.54393 L1087.78 15.7418 L1080.65 15.7418 Q1076.64 15.7418 1075.06 17.3622 Q1073.52 18.9825 1073.52 23.1955 L1073.52 27.2059 L1085.79 27.2059 L1085.79 32.9987 L1073.52 32.9987 L1073.52 72.576 L1066.02 72.576 L1066.02 32.9987 L1058.89 32.9987 L1058.89 27.2059 L1066.02 27.2059 L1066.02 24.0462 Q1066.02 16.471 1069.55 13.0277 Q1073.07 9.54393 1080.73 9.54393 L1087.78 9.54393 Z" fill="#000000" fill-rule="nonzero" fill-opacity="1" /><path clip-path="url(#clip030)" d="M1127.84 69.7809 L1127.84 89.8329 L1120.35 89.8329 L1120.35 27.4894 Q1120.35 9.01731 1137.6 9.01731 Q1155.18 9.01731 1155.18 24.6133 Q1155.18 35.7128 1148.22 39.7637 Q1159.56 43.4095 1159.56 54.2254 Q1159.56 73.4267 1140.03 73.4267 Q1131.44 73.4267 1127.84 69.7809 M1127.84 60.0587 Q1132.34 67.0668 1140.32 67.0668 Q1151.98 67.0668 1151.98 54.3469 Q1151.98 42.9234 1133.19 43.8146 L1133.19 36.928 Q1147.89 36.928 1147.89 23.9651 Q1147.89 15.0937 1138.41 15.0937 Q1127.84 15.0937 1127.84 27.7325 L1127.84 60.0587 Z" fill="#000000" fill-rule="nonzero" fill-opacity="1" /><path clip-path="url(#clip030)" d="M1217.28 32.4315 Q1211.29 32.4315 1207.8 37.1306 Q1204.32 41.7891 1204.32 49.9314 Q1204.32 58.0738 1207.76 62.7728 Q1211.25 67.4314 1217.28 67.4314 Q1223.24 67.4314 1226.72 62.7323 Q1230.21 58.0333 1230.21 49.9314 Q1230.21 41.8701 1226.72 37.1711 Q1223.24 32.4315 1217.28 32.4315 M1217.28 26.1121 Q1227.01 26.1121 1232.56 32.4315 Q1238.1 38.7509 1238.1 49.9314 Q1238.1 61.0714 1232.56 67.4314 Q1227.01 73.7508 1217.28 73.7508 Q1207.52 73.7508 1201.97 67.4314 Q1196.46 61.0714 1196.46 49.9314 Q1196.46 38.7509 1201.97 32.4315 Q1207.52 26.1121 1217.28 26.1121 Z" fill="#000000" fill-rule="nonzero" fill-opacity="1" /><path clip-path="url(#clip030)" d="M1288.17 45.1919 L1288.17 72.576 L1280.72 72.576 L1280.72 45.4349 Q1280.72 38.994 1278.21 35.7938 Q1275.7 32.5936 1270.67 32.5936 Q1264.64 32.5936 1261.15 36.4419 Q1257.67 40.2903 1257.67 46.9338 L1257.67 72.576 L1250.18 72.576 L1250.18 27.2059 L1257.67 27.2059 L1257.67 34.2544 Q1260.34 30.163 1263.95 28.1376 Q1267.6 26.1121 1272.34 26.1121 Q1280.15 26.1121 1284.16 30.9732 Q1288.17 35.7938 1288.17 45.1919 Z" fill="#000000" fill-rule="nonzero" fill-opacity="1" /><path clip-path="url(#clip030)" d="M1329.74 12.096 L1367.98 12.096 L1367.98 18.9825 L1337.92 18.9825 L1337.92 36.8875 L1366.72 36.8875 L1366.72 43.7741 L1337.92 43.7741 L1337.92 65.6895 L1368.71 65.6895 L1368.71 72.576 L1329.74 72.576 L1329.74 12.096 Z" fill="#000000" fill-rule="nonzero" fill-opacity="1" /><path clip-path="url(#clip030)" d="M1389.04 65.7705 L1389.04 89.8329 L1381.55 89.8329 L1381.55 27.2059 L1389.04 27.2059 L1389.04 34.0924 Q1391.39 30.0415 1394.96 28.0971 Q1398.56 26.1121 1403.54 26.1121 Q1411.81 26.1121 1416.95 32.6746 Q1422.14 39.2371 1422.14 49.9314 Q1422.14 60.6258 1416.95 67.1883 Q1411.81 73.7508 1403.54 73.7508 Q1398.56 73.7508 1394.96 71.8063 Q1391.39 69.8214 1389.04 65.7705 M1414.4 49.9314 Q1414.4 41.7081 1411 37.0496 Q1407.64 32.3505 1401.72 32.3505 Q1395.81 32.3505 1392.4 37.0496 Q1389.04 41.7081 1389.04 49.9314 Q1389.04 58.1548 1392.4 62.8538 Q1395.81 67.5124 1401.72 67.5124 Q1407.64 67.5124 1411 62.8538 Q1414.4 58.1548 1414.4 49.9314 Z" fill="#000000" fill-rule="nonzero" fill-opacity="1" /><path clip-path="url(#clip030)" d="M1434.49 27.2059 L1441.95 27.2059 L1441.95 72.576 L1434.49 72.576 L1434.49 27.2059 M1434.49 9.54393 L1441.95 9.54393 L1441.95 18.9825 L1434.49 18.9825 L1434.49 9.54393 Z" fill="#000000" fill-rule="nonzero" fill-opacity="1" /><path clip-path="url(#clip030)" d="M1487.4 34.0924 L1487.4 9.54393 L1494.85 9.54393 L1494.85 72.576 L1487.4 72.576 L1487.4 65.7705 Q1485.05 69.8214 1481.44 71.8063 Q1477.88 73.7508 1472.85 73.7508 Q1464.63 73.7508 1459.45 67.1883 Q1454.3 60.6258 1454.3 49.9314 Q1454.3 39.2371 1459.45 32.6746 Q1464.63 26.1121 1472.85 26.1121 Q1477.88 26.1121 1481.44 28.0971 Q1485.05 30.0415 1487.4 34.0924 M1462 49.9314 Q1462 58.1548 1465.36 62.8538 Q1468.76 67.5124 1474.68 67.5124 Q1480.59 67.5124 1483.99 62.8538 Q1487.4 58.1548 1487.4 49.9314 Q1487.4 41.7081 1483.99 37.0496 Q1480.59 32.3505 1474.68 32.3505 Q1468.76 32.3505 1465.36 37.0496 Q1462 41.7081 1462 49.9314 Z" fill="#000000" fill-rule="nonzero" fill-opacity="1" /><path clip-path="url(#clip030)" d="M1549.01 48.0275 L1549.01 51.6733 L1514.74 51.6733 Q1515.23 59.3701 1519.36 63.421 Q1523.53 67.4314 1530.94 67.4314 Q1535.24 67.4314 1539.25 66.3781 Q1543.3 65.3249 1547.27 63.2184 L1547.27 70.267 Q1543.26 71.9684 1539.05 72.8596 Q1534.83 73.7508 1530.5 73.7508 Q1519.64 73.7508 1513.28 67.4314 Q1506.96 61.1119 1506.96 50.3365 Q1506.96 39.1965 1512.96 32.6746 Q1518.99 26.1121 1529.2 26.1121 Q1538.36 26.1121 1543.66 32.0264 Q1549.01 37.9003 1549.01 48.0275 M1541.56 45.84 Q1541.48 39.7232 1538.11 36.0774 Q1534.79 32.4315 1529.28 32.4315 Q1523.05 32.4315 1519.28 35.9558 Q1515.55 39.4801 1514.98 45.8805 L1541.56 45.84 Z" fill="#000000" fill-rule="nonzero" fill-opacity="1" /><path clip-path="url(#clip030)" d="M1596.57 35.9153 Q1599.36 30.8922 1603.25 28.5022 Q1607.14 26.1121 1612.41 26.1121 Q1619.5 26.1121 1623.35 31.0947 Q1627.19 36.0368 1627.19 45.1919 L1627.19 72.576 L1619.7 72.576 L1619.7 45.4349 Q1619.7 38.913 1617.39 35.7533 Q1615.08 32.5936 1610.34 32.5936 Q1604.55 32.5936 1601.19 36.4419 Q1597.83 40.2903 1597.83 46.9338 L1597.83 72.576 L1590.33 72.576 L1590.33 45.4349 Q1590.33 38.8725 1588.02 35.7533 Q1585.71 32.5936 1580.89 32.5936 Q1575.18 32.5936 1571.82 36.4824 Q1568.46 40.3308 1568.46 46.9338 L1568.46 72.576 L1560.96 72.576 L1560.96 27.2059 L1568.46 27.2059 L1568.46 34.2544 Q1571.01 30.082 1574.57 28.0971 Q1578.14 26.1121 1583.04 26.1121 Q1587.98 26.1121 1591.42 28.6237 Q1594.91 31.1352 1596.57 35.9153 Z" fill="#000000" fill-rule="nonzero" fill-opacity="1" /><path clip-path="url(#clip030)" d="M1642.06 27.2059 L1649.51 27.2059 L1649.51 72.576 L1642.06 72.576 L1642.06 27.2059 M1642.06 9.54393 L1649.51 9.54393 L1649.51 18.9825 L1642.06 18.9825 L1642.06 9.54393 Z" fill="#000000" fill-rule="nonzero" fill-opacity="1" /><path clip-path="url(#clip030)" d="M1697.76 28.9478 L1697.76 35.9153 Q1694.6 34.1734 1691.4 33.3227 Q1688.24 32.4315 1685 32.4315 Q1677.75 32.4315 1673.74 37.0496 Q1669.73 41.6271 1669.73 49.9314 Q1669.73 58.2358 1673.74 62.8538 Q1677.75 67.4314 1685 67.4314 Q1688.24 67.4314 1691.4 66.5807 Q1694.6 65.6895 1697.76 63.9476 L1697.76 70.8341 Q1694.64 72.2924 1691.28 73.0216 Q1687.96 73.7508 1684.19 73.7508 Q1673.94 73.7508 1667.91 67.3098 Q1661.87 60.8689 1661.87 49.9314 Q1661.87 38.832 1667.95 32.472 Q1674.06 26.1121 1684.68 26.1121 Q1688.12 26.1121 1691.4 26.8413 Q1694.68 27.5299 1697.76 28.9478 Z" fill="#000000" fill-rule="nonzero" fill-opacity="1" /><path clip-path="url(#clip030)" d="M1745.6 18.8205 L1745.6 65.8515 L1755.49 65.8515 Q1768 65.8515 1773.8 60.1802 Q1779.63 54.509 1779.63 42.2752 Q1779.63 30.1225 1773.8 24.4918 Q1768 18.8205 1755.49 18.8205 L1745.6 18.8205 M1737.42 12.096 L1754.23 12.096 Q1771.81 12.096 1780.03 19.4281 Q1788.26 26.7198 1788.26 42.2752 Q1788.26 57.9117 1779.99 65.2439 Q1771.73 72.576 1754.23 72.576 L1737.42 72.576 L1737.42 12.096 Z" fill="#000000" fill-rule="nonzero" fill-opacity="1" /><path clip-path="url(#clip030)" d="M1819.86 76.7889 Q1816.7 84.8907 1813.7 87.3618 Q1810.7 89.8329 1805.68 89.8329 L1799.72 89.8329 L1799.72 83.5945 L1804.1 83.5945 Q1807.18 83.5945 1808.88 82.1361 Q1810.58 80.6778 1812.64 75.2496 L1813.98 71.8468 L1795.63 27.2059 L1803.53 27.2059 L1817.71 62.6918 L1831.89 27.2059 L1839.79 27.2059 L1819.86 76.7889 Z" fill="#000000" fill-rule="nonzero" fill-opacity="1" /><path clip-path="url(#clip030)" d="M1887.79 45.1919 L1887.79 72.576 L1880.34 72.576 L1880.34 45.4349 Q1880.34 38.994 1877.82 35.7938 Q1875.31 32.5936 1870.29 32.5936 Q1864.25 32.5936 1860.77 36.4419 Q1857.29 40.2903 1857.29 46.9338 L1857.29 72.576 L1849.79 72.576 L1849.79 27.2059 L1857.29 27.2059 L1857.29 34.2544 Q1859.96 30.163 1863.56 28.1376 Q1867.21 26.1121 1871.95 26.1121 Q1879.77 26.1121 1883.78 30.9732 Q1887.79 35.7938 1887.79 45.1919 Z" fill="#000000" fill-rule="nonzero" fill-opacity="1" /><path clip-path="url(#clip030)" d="M1923.27 49.7694 Q1914.24 49.7694 1910.76 51.8354 Q1907.27 53.9013 1907.27 58.8839 Q1907.27 62.8538 1909.87 65.2034 Q1912.5 67.5124 1917 67.5124 Q1923.19 67.5124 1926.92 63.1374 Q1930.69 58.7219 1930.69 51.4303 L1930.69 49.7694 L1923.27 49.7694 M1938.14 46.6907 L1938.14 72.576 L1930.69 72.576 L1930.69 65.6895 Q1928.14 69.8214 1924.33 71.8063 Q1920.52 73.7508 1915.01 73.7508 Q1908.04 73.7508 1903.91 69.8619 Q1899.82 65.9325 1899.82 59.3701 Q1899.82 51.7138 1904.92 47.825 Q1910.07 43.9361 1920.24 43.9361 L1930.69 43.9361 L1930.69 43.2069 Q1930.69 38.0623 1927.29 35.2672 Q1923.92 32.4315 1917.81 32.4315 Q1913.92 32.4315 1910.23 33.3632 Q1906.54 34.295 1903.14 36.1584 L1903.14 29.2718 Q1907.23 27.692 1911.08 26.9223 Q1914.93 26.1121 1918.58 26.1121 Q1928.42 26.1121 1933.28 31.2163 Q1938.14 36.3204 1938.14 46.6907 Z" fill="#000000" fill-rule="nonzero" fill-opacity="1" /><path clip-path="url(#clip030)" d="M1988.82 35.9153 Q1991.61 30.8922 1995.5 28.5022 Q1999.39 26.1121 2004.66 26.1121 Q2011.75 26.1121 2015.59 31.0947 Q2019.44 36.0368 2019.44 45.1919 L2019.44 72.576 L2011.95 72.576 L2011.95 45.4349 Q2011.95 38.913 2009.64 35.7533 Q2007.33 32.5936 2002.59 32.5936 Q1996.8 32.5936 1993.44 36.4419 Q1990.07 40.2903 1990.07 46.9338 L1990.07 72.576 L1982.58 72.576 L1982.58 45.4349 Q1982.58 38.8725 1980.27 35.7533 Q1977.96 32.5936 1973.14 32.5936 Q1967.43 32.5936 1964.07 36.4824 Q1960.71 40.3308 1960.71 46.9338 L1960.71 72.576 L1953.21 72.576 L1953.21 27.2059 L1960.71 27.2059 L1960.71 34.2544 Q1963.26 30.082 1966.82 28.0971 Q1970.39 26.1121 1975.29 26.1121 Q1980.23 26.1121 1983.67 28.6237 Q1987.16 31.1352 1988.82 35.9153 Z" fill="#000000" fill-rule="nonzero" fill-opacity="1" /><path clip-path="url(#clip030)" d="M2034.31 27.2059 L2041.76 27.2059 L2041.76 72.576 L2034.31 72.576 L2034.31 27.2059 M2034.31 9.54393 L2041.76 9.54393 L2041.76 18.9825 L2034.31 18.9825 L2034.31 9.54393 Z" fill="#000000" fill-rule="nonzero" fill-opacity="1" /><path clip-path="url(#clip030)" d="M2090.01 28.9478 L2090.01 35.9153 Q2086.85 34.1734 2083.65 33.3227 Q2080.49 32.4315 2077.25 32.4315 Q2070 32.4315 2065.99 37.0496 Q2061.98 41.6271 2061.98 49.9314 Q2061.98 58.2358 2065.99 62.8538 Q2070 67.4314 2077.25 67.4314 Q2080.49 67.4314 2083.65 66.5807 Q2086.85 65.6895 2090.01 63.9476 L2090.01 70.8341 Q2086.89 72.2924 2083.53 73.0216 Q2080.21 73.7508 2076.44 73.7508 Q2066.19 73.7508 2060.15 67.3098 Q2054.12 60.8689 2054.12 49.9314 Q2054.12 38.832 2060.2 32.472 Q2066.31 26.1121 2076.93 26.1121 Q2080.37 26.1121 2083.65 26.8413 Q2086.93 27.5299 2090.01 28.9478 Z" fill="#000000" fill-rule="nonzero" fill-opacity="1" /><path clip-path="url(#clip030)" d="M2131.9 28.5427 L2131.9 35.5912 Q2128.74 33.9709 2125.33 33.1607 Q2121.93 32.3505 2118.29 32.3505 Q2112.74 32.3505 2109.94 34.0519 Q2107.19 35.7533 2107.19 39.156 Q2107.19 41.7486 2109.17 43.2475 Q2111.16 44.7058 2117.15 46.0426 L2119.7 46.6097 Q2127.64 48.3111 2130.96 51.4303 Q2134.33 54.509 2134.33 60.0587 Q2134.33 66.3781 2129.3 70.0644 Q2124.32 73.7508 2115.57 73.7508 Q2111.93 73.7508 2107.96 73.0216 Q2104.03 72.3329 2099.65 70.9151 L2099.65 63.2184 Q2103.78 65.3654 2107.79 66.4591 Q2111.8 67.5124 2115.73 67.5124 Q2121 67.5124 2123.84 65.73 Q2126.67 63.9071 2126.67 60.6258 Q2126.67 57.5877 2124.6 55.9673 Q2122.58 54.3469 2115.65 52.8481 L2113.06 52.2405 Q2106.13 50.7821 2103.05 47.7845 Q2099.98 44.7463 2099.98 39.4801 Q2099.98 33.0797 2104.51 29.5959 Q2109.05 26.1121 2117.39 26.1121 Q2121.53 26.1121 2125.17 26.7198 Q2128.82 27.3274 2131.9 28.5427 Z" fill="#000000" fill-rule="nonzero" fill-opacity="1" /><polyline clip-path="url(#clip031)" style="stroke:#009af9; stroke-linecap:round; stroke-linejoin:round; stroke-width:4; stroke-opacity:1; fill:none" points="309.459,1664 320.776,1658.64 332.093,1652.16 343.41,1644.35 354.727,1634.94 366.044,1623.66 377.361,1610.19 388.678,1594.18 399.995,1575.3 411.312,1553.16 422.629,1527.41 433.946,1497.79 445.263,1464.14 456.58,1426.43 467.897,1384.83 479.214,1339.77 490.531,1291.95 501.848,1242.37 513.165,1192.32 524.482,1143.35 535.798,1096.97 547.115,1054.72 558.432,1017.91 569.749,987.511 581.066,964.227 592.383,948.446 603.7,940.257 615.017,939.421 626.334,945.214 637.651,956.775 648.968,973.262 660.285,993.855 671.602,1017.75 682.919,1044.18 694.236,1072.37 705.553,1101.62 716.87,1131.43 728.187,1161.38 739.504,1191.09 750.821,1220.24 762.138,1248.56 773.455,1275.86 784.772,1302.01 796.089,1326.95 807.406,1350.67 818.723,1373.22 830.04,1394.73 841.357,1415.34 852.674,1434.8 863.991,1453.07 875.308,1470.18 886.625,1486.18 897.942,1501.13 909.259,1515.06 920.576,1528.03 931.893,1540.09 943.21,1551.3 954.527,1561.72 965.844,1571.39 977.161,1580.36 988.478,1588.68 999.794,1596.38 1011.11,1603.5 1022.43,1610.08 1033.75,1616.16 1045.06,1621.77 1056.38,1626.96 1067.7,1631.75 1079.01,1636.17 1090.33,1640.27 1101.65,1644.06 1112.96,1647.55 1124.28,1650.78 1135.6,1653.75 1146.92,1656.49 1158.23,1659.02 1169.55,1661.34 1180.87,1663.49 1192.18,1665.46 1203.5,1667.28 1214.82,1668.97 1226.13,1670.52 1237.45,1671.96 1248.77,1673.28 1260.08,1674.49 1271.4,1675.61 1282.72,1676.64 1294.04,1677.59 1305.35,1678.46 1316.67,1679.26 1327.99,1680 1339.3,1680.69 1350.62,1681.32 1361.94,1681.9 1373.25,1682.44 1384.57,1682.93 1395.89,1683.38 1407.21,1683.8 1418.52,1684.18 1429.84,1684.54 1441.16,1684.86 1452.47,1685.16 1463.79,1685.44 1475.11,1685.69 1486.42,1685.93 1497.74,1686.14 1509.06,1686.34 1520.38,1686.53 1531.69,1686.7 1543.01,1686.85 1554.33,1686.99 1565.64,1687.12 1576.96,1687.24 1588.28,1687.36 1599.59,1687.46 1610.91,1687.55 1622.23,1687.64 1633.55,1687.72 1644.86,1687.8 1656.18,1687.86 1667.5,1687.93 1678.81,1687.98 1690.13,1688.04 1701.45,1688.09 1712.76,1688.13 1724.08,1688.17 1735.4,1688.21 1746.71,1688.25 1758.03,1688.28 1769.35,1688.31 1780.67,1688.34 1791.98,1688.36 1803.3,1688.38 1814.62,1688.41 1825.93,1688.43 1837.25,1688.44 1848.57,1688.46 1859.88,1688.48 1871.2,1688.49 1882.52,1688.5 1893.84,1688.52 1905.15,1688.53 1916.47,1688.54 1927.79,1688.55 1939.1,1688.55 1950.42,1688.56 1961.74,1688.57 1973.05,1688.58 1984.37,1688.58 1995.69,1688.59 2007.01,1688.59 2018.32,1688.6 2029.64,1688.6 2040.96,1688.61 2052.27,1688.61 2063.59,1688.61 2074.91,1688.62 2086.22,1688.62 2097.54,1688.62 2108.86,1688.63 2120.18,1688.63 2131.49,1688.63 2142.81,1688.63 2154.13,1688.63 2165.44,1688.64 2176.76,1688.64 2188.08,1688.64 2199.39,1688.64 2210.71,1688.64 2222.03,1688.64 2233.34,1688.64 2244.66,1688.64 2255.98,1688.65 2267.3,1688.65 2278.61,1688.65 2289.93,1688.65 2301.25,1688.65 2312.56,1688.65 2323.88,1688.65 2335.2,1688.65 2346.51,1688.65 2357.83,1688.65 2369.15,1688.65 2380.47,1688.65 2391.78,1688.65 2403.1,1688.65 2414.42,1688.65 2425.73,1688.65 2437.05,1688.65 2448.37,1688.65 2459.68,1688.65 2471,1688.65 2482.32,1688.65 2493.64,1688.65 2504.95,1688.65 2516.27,1688.65 2527.59,1688.65 2538.9,1688.65 2550.22,1688.65 2561.54,1688.65 2572.85,1688.65 "/>
<polyline clip-path="url(#clip031)" style="stroke:#e26f46; stroke-linecap:round; stroke-linejoin:round; stroke-width:4; stroke-opacity:1; fill:none" points="309.459,1664 320.776,1652.11 332.093,1634.68 343.41,1609.37 354.727,1573.1 366.044,1522.12 377.361,1452.3 388.678,1360.32 399.995,1245 411.312,1109.36 422.629,962.417 433.946,817.908 445.263,691.309 456.58,594.039 467.897,532.508 479.214,506.541 490.531,510.455 501.848,538.035 513.165,582.971 524.482,639.098 535.798,701.367 547.115,766.089 558.432,830.924 569.749,894.883 581.066,956.992 592.383,1015.97 603.7,1071.47 615.017,1123.3 626.334,1171.47 637.651,1216.04 648.968,1257.17 660.285,1295.03 671.602,1329.81 682.919,1361.7 694.236,1390.87 705.553,1417.54 716.87,1441.91 728.187,1464.18 739.504,1484.51 750.821,1503.04 762.138,1519.9 773.455,1535.25 784.772,1549.2 796.089,1561.88 807.406,1573.4 818.723,1583.9 830.04,1593.46 841.357,1602.17 852.674,1610.09 863.991,1617.29 875.308,1623.83 886.625,1629.76 897.942,1635.15 909.259,1640.05 920.576,1644.5 931.893,1648.55 943.21,1652.24 954.527,1655.59 965.844,1658.64 977.161,1661.4 988.478,1663.9 999.794,1666.17 1011.11,1668.23 1022.43,1670.1 1033.75,1671.8 1045.06,1673.35 1056.38,1674.76 1067.7,1676.04 1079.01,1677.2 1090.33,1678.26 1101.65,1679.21 1112.96,1680.08 1124.28,1680.86 1135.6,1681.58 1146.92,1682.23 1158.23,1682.82 1169.55,1683.36 1180.87,1683.85 1192.18,1684.29 1203.5,1684.69 1214.82,1685.06 1226.13,1685.39 1237.45,1685.69 1248.77,1685.96 1260.08,1686.21 1271.4,1686.43 1282.72,1686.64 1294.04,1686.82 1305.35,1686.99 1316.67,1687.14 1327.99,1687.28 1339.3,1687.41 1350.62,1687.52 1361.94,1687.63 1373.25,1687.72 1384.57,1687.81 1395.89,1687.89 1407.21,1687.96 1418.52,1688.02 1429.84,1688.08 1441.16,1688.13 1452.47,1688.18 1463.79,1688.22 1475.11,1688.26 1486.42,1688.3 1497.74,1688.33 1509.06,1688.36 1520.38,1688.39 1531.69,1688.41 1543.01,1688.44 1554.33,1688.46 1565.64,1688.47 1576.96,1688.49 1588.28,1688.51 1599.59,1688.52 1610.91,1688.53 1622.23,1688.54 1633.55,1688.55 1644.86,1688.56 1656.18,1688.57 1667.5,1688.58 1678.81,1688.59 1690.13,1688.59 1701.45,1688.6 1712.76,1688.6 1724.08,1688.61 1735.4,1688.61 1746.71,1688.62 1758.03,1688.62 1769.35,1688.62 1780.67,1688.63 1791.98,1688.63 1803.3,1688.63 1814.62,1688.63 1825.93,1688.64 1837.25,1688.64 1848.57,1688.64 1859.88,1688.64 1871.2,1688.64 1882.52,1688.64 1893.84,1688.64 1905.15,1688.64 1916.47,1688.65 1927.79,1688.65 1939.1,1688.65 1950.42,1688.65 1961.74,1688.65 1973.05,1688.65 1984.37,1688.65 1995.69,1688.65 2007.01,1688.65 2018.32,1688.65 2029.64,1688.65 2040.96,1688.65 2052.27,1688.65 2063.59,1688.65 2074.91,1688.65 2086.22,1688.65 2097.54,1688.65 2108.86,1688.65 2120.18,1688.65 2131.49,1688.65 2142.81,1688.65 2154.13,1688.65 2165.44,1688.65 2176.76,1688.65 2188.08,1688.65 2199.39,1688.65 2210.71,1688.65 2222.03,1688.65 2233.34,1688.65 2244.66,1688.65 2255.98,1688.65 2267.3,1688.65 2278.61,1688.65 2289.93,1688.65 2301.25,1688.65 2312.56,1688.65 2323.88,1688.65 2335.2,1688.65 2346.51,1688.65 2357.83,1688.65 2369.15,1688.65 2380.47,1688.65 2391.78,1688.65 2403.1,1688.65 2414.42,1688.65 2425.73,1688.65 2437.05,1688.65 2448.37,1688.65 2459.68,1688.65 2471,1688.65 2482.32,1688.65 2493.64,1688.65 2504.95,1688.65 2516.27,1688.65 2527.59,1688.65 2538.9,1688.65 2550.22,1688.65 2561.54,1688.65 2572.85,1688.65 "/>
<polyline clip-path="url(#clip031)" style="stroke:#3da44d; stroke-linecap:round; stroke-linejoin:round; stroke-width:4; stroke-opacity:1; fill:none" points="309.459,1664 320.776,1639.59 332.093,1592.29 343.41,1504.01 354.727,1350.21 366.044,1113 377.361,809.156 388.678,508.153 399.995,288.828 411.312,183.722 422.629,173.254 433.946,225.459 445.263,310.216 456.58,408.837 467.897,510.945 479.214,610.723 490.531,705.382 501.848,793.725 513.165,875.329 524.482,950.248 535.798,1018.75 547.115,1081.21 558.432,1138.05 569.749,1189.72 581.066,1236.64 592.383,1279.22 603.7,1317.84 615.017,1352.84 626.334,1384.57 637.651,1413.33 648.968,1439.38 660.285,1462.99 671.602,1484.36 682.919,1503.7 694.236,1521.21 705.553,1537.07 716.87,1551.44 728.187,1564.46 739.504,1576.25 750.821,1586.91 762.138,1596.56 773.455,1605.28 784.772,1613.17 796.089,1620.33 807.406,1626.81 818.723,1632.68 830.04,1638 841.357,1642.81 852.674,1647.16 863.991,1651.09 875.308,1654.65 886.625,1657.87 897.942,1660.79 909.259,1663.43 920.576,1665.83 931.893,1668 943.21,1669.96 954.527,1671.74 965.844,1673.34 977.161,1674.79 988.478,1676.1 999.794,1677.29 1011.11,1678.37 1022.43,1679.35 1033.75,1680.23 1045.06,1681.03 1056.38,1681.76 1067.7,1682.41 1079.01,1683 1090.33,1683.53 1101.65,1684.02 1112.96,1684.46 1124.28,1684.86 1135.6,1685.22 1146.92,1685.55 1158.23,1685.84 1169.55,1686.11 1180.87,1686.35 1192.18,1686.57 1203.5,1686.76 1214.82,1686.94 1226.13,1687.11 1237.45,1687.25 1248.77,1687.39 1260.08,1687.51 1271.4,1687.62 1282.72,1687.71 1294.04,1687.8 1305.35,1687.88 1316.67,1687.96 1327.99,1688.02 1339.3,1688.08 1350.62,1688.14 1361.94,1688.19 1373.25,1688.23 1384.57,1688.27 1395.89,1688.31 1407.21,1688.34 1418.52,1688.37 1429.84,1688.4 1441.16,1688.42 1452.47,1688.44 1463.79,1688.46 1475.11,1688.48 1486.42,1688.5 1497.74,1688.51 1509.06,1688.53 1520.38,1688.54 1531.69,1688.55 1543.01,1688.56 1554.33,1688.57 1565.64,1688.58 1576.96,1688.58 1588.28,1688.59 1599.59,1688.6 1610.91,1688.6 1622.23,1688.61 1633.55,1688.61 1644.86,1688.62 1656.18,1688.62 1667.5,1688.62 1678.81,1688.63 1690.13,1688.63 1701.45,1688.63 1712.76,1688.63 1724.08,1688.64 1735.4,1688.64 1746.71,1688.64 1758.03,1688.64 1769.35,1688.64 1780.67,1688.64 1791.98,1688.64 1803.3,1688.65 1814.62,1688.65 1825.93,1688.65 1837.25,1688.65 1848.57,1688.65 1859.88,1688.65 1871.2,1688.65 1882.52,1688.65 1893.84,1688.65 1905.15,1688.65 1916.47,1688.65 1927.79,1688.65 1939.1,1688.65 1950.42,1688.65 1961.74,1688.65 1973.05,1688.65 1984.37,1688.65 1995.69,1688.65 2007.01,1688.65 2018.32,1688.65 2029.64,1688.65 2040.96,1688.65 2052.27,1688.65 2063.59,1688.65 2074.91,1688.65 2086.22,1688.65 2097.54,1688.65 2108.86,1688.65 2120.18,1688.65 2131.49,1688.65 2142.81,1688.65 2154.13,1688.65 2165.44,1688.65 2176.76,1688.65 2188.08,1688.65 2199.39,1688.65 2210.71,1688.65 2222.03,1688.65 2233.34,1688.65 2244.66,1688.65 2255.98,1688.65 2267.3,1688.65 2278.61,1688.65 2289.93,1688.65 2301.25,1688.65 2312.56,1688.65 2323.88,1688.65 2335.2,1688.65 2346.51,1688.65 2357.83,1688.65 2369.15,1688.65 2380.47,1688.65 2391.78,1688.65 2403.1,1688.65 2414.42,1688.65 2425.73,1688.65 2437.05,1688.65 2448.37,1688.65 2459.68,1688.65 2471,1688.65 2482.32,1688.65 2493.64,1688.65 2504.95,1688.65 2516.27,1688.65 2527.59,1688.65 2538.9,1688.65 2550.22,1688.65 2561.54,1688.65 2572.85,1688.65 "/>
<path clip-path="url(#clip030)" d="M2153.04 388.696 L2560.78 388.696 L2560.78 181.336 L2153.04 181.336  Z" fill="#ffffff" fill-rule="evenodd" fill-opacity="1"/>
<polyline clip-path="url(#clip030)" style="stroke:#000000; stroke-linecap:round; stroke-linejoin:round; stroke-width:4; stroke-opacity:1; fill:none" points="2153.04,388.696 2560.78,388.696 2560.78,181.336 2153.04,181.336 2153.04,388.696 "/>
<polyline clip-path="url(#clip030)" style="stroke:#009af9; stroke-linecap:round; stroke-linejoin:round; stroke-width:4; stroke-opacity:1; fill:none" points="2179.7,233.176 2339.64,233.176 "/>
<path clip-path="url(#clip030)" d="M2370.58 248.859 L2370.58 260.317 L2366.3 260.317 L2366.3 224.693 Q2366.3 214.137 2376.16 214.137 Q2386.21 214.137 2386.21 223.049 Q2386.21 229.392 2382.23 231.706 Q2388.71 233.79 2388.71 239.97 Q2388.71 250.942 2377.55 250.942 Q2372.64 250.942 2370.58 248.859 M2370.58 243.304 Q2373.15 247.308 2377.71 247.308 Q2384.38 247.308 2384.38 240.04 Q2384.38 233.512 2373.64 234.021 L2373.64 230.086 Q2382.04 230.086 2382.04 222.679 Q2382.04 217.609 2376.63 217.609 Q2370.58 217.609 2370.58 224.831 L2370.58 243.304 Z" fill="#000000" fill-rule="nonzero" fill-opacity="1" /><path clip-path="url(#clip030)" d="M2412.2 228.929 L2441.88 228.929 L2441.88 232.817 L2412.2 232.817 L2412.2 228.929 M2412.2 238.373 L2441.88 238.373 L2441.88 242.308 L2412.2 242.308 L2412.2 238.373 Z" fill="#000000" fill-rule="nonzero" fill-opacity="1" /><path clip-path="url(#clip030)" d="M2477.04 218.975 Q2473.43 218.975 2471.6 222.54 Q2469.8 226.081 2469.8 233.211 Q2469.8 240.317 2471.6 243.882 Q2473.43 247.424 2477.04 247.424 Q2480.68 247.424 2482.48 243.882 Q2484.31 240.317 2484.31 233.211 Q2484.31 226.081 2482.48 222.54 Q2480.68 218.975 2477.04 218.975 M2477.04 215.271 Q2482.85 215.271 2485.91 219.878 Q2488.99 224.461 2488.99 233.211 Q2488.99 241.938 2485.91 246.544 Q2482.85 251.128 2477.04 251.128 Q2471.23 251.128 2468.15 246.544 Q2465.1 241.938 2465.1 233.211 Q2465.1 224.461 2468.15 219.878 Q2471.23 215.271 2477.04 215.271 Z" fill="#000000" fill-rule="nonzero" fill-opacity="1" /><path clip-path="url(#clip030)" d="M2497.2 244.577 L2502.09 244.577 L2502.09 250.456 L2497.2 250.456 L2497.2 244.577 Z" fill="#000000" fill-rule="nonzero" fill-opacity="1" /><path clip-path="url(#clip030)" d="M2526.44 231.822 Q2529.8 232.54 2531.67 234.808 Q2533.57 237.077 2533.57 240.41 Q2533.57 245.526 2530.05 248.327 Q2526.53 251.128 2520.05 251.128 Q2517.87 251.128 2515.56 250.688 Q2513.27 250.271 2510.81 249.415 L2510.81 244.901 Q2512.76 246.035 2515.07 246.614 Q2517.39 247.192 2519.91 247.192 Q2524.31 247.192 2526.6 245.456 Q2528.92 243.72 2528.92 240.41 Q2528.92 237.355 2526.76 235.642 Q2524.63 233.905 2520.81 233.905 L2516.79 233.905 L2516.79 230.063 L2521 230.063 Q2524.45 230.063 2526.28 228.697 Q2528.11 227.308 2528.11 224.716 Q2528.11 222.054 2526.21 220.642 Q2524.33 219.206 2520.81 219.206 Q2518.89 219.206 2516.69 219.623 Q2514.5 220.04 2511.86 220.919 L2511.86 216.753 Q2514.52 216.012 2516.83 215.642 Q2519.17 215.271 2521.23 215.271 Q2526.56 215.271 2529.66 217.702 Q2532.76 220.109 2532.76 224.23 Q2532.76 227.1 2531.12 229.091 Q2529.47 231.058 2526.44 231.822 Z" fill="#000000" fill-rule="nonzero" fill-opacity="1" /><polyline clip-path="url(#clip030)" style="stroke:#e26f46; stroke-linecap:round; stroke-linejoin:round; stroke-width:4; stroke-opacity:1; fill:none" points="2179.7,285.016 2339.64,285.016 "/>
<path clip-path="url(#clip030)" d="M2370.58 300.699 L2370.58 312.157 L2366.3 312.157 L2366.3 276.533 Q2366.3 265.977 2376.16 265.977 Q2386.21 265.977 2386.21 274.889 Q2386.21 281.232 2382.23 283.546 Q2388.71 285.63 2388.71 291.81 Q2388.71 302.782 2377.55 302.782 Q2372.64 302.782 2370.58 300.699 M2370.58 295.144 Q2373.15 299.148 2377.71 299.148 Q2384.38 299.148 2384.38 291.88 Q2384.38 285.352 2373.64 285.861 L2373.64 281.926 Q2382.04 281.926 2382.04 274.519 Q2382.04 269.449 2376.63 269.449 Q2370.58 269.449 2370.58 276.671 L2370.58 295.144 Z" fill="#000000" fill-rule="nonzero" fill-opacity="1" /><path clip-path="url(#clip030)" d="M2412.2 280.769 L2441.88 280.769 L2441.88 284.657 L2412.2 284.657 L2412.2 280.769 M2412.2 290.213 L2441.88 290.213 L2441.88 294.148 L2412.2 294.148 L2412.2 290.213 Z" fill="#000000" fill-rule="nonzero" fill-opacity="1" /><path clip-path="url(#clip030)" d="M2477.04 270.815 Q2473.43 270.815 2471.6 274.38 Q2469.8 277.921 2469.8 285.051 Q2469.8 292.157 2471.6 295.722 Q2473.43 299.264 2477.04 299.264 Q2480.68 299.264 2482.48 295.722 Q2484.31 292.157 2484.31 285.051 Q2484.31 277.921 2482.48 274.38 Q2480.68 270.815 2477.04 270.815 M2477.04 267.111 Q2482.85 267.111 2485.91 271.718 Q2488.99 276.301 2488.99 285.051 Q2488.99 293.778 2485.91 298.384 Q2482.85 302.968 2477.04 302.968 Q2471.23 302.968 2468.15 298.384 Q2465.1 293.778 2465.1 285.051 Q2465.1 276.301 2468.15 271.718 Q2471.23 267.111 2477.04 267.111 Z" fill="#000000" fill-rule="nonzero" fill-opacity="1" /><path clip-path="url(#clip030)" d="M2497.2 296.417 L2502.09 296.417 L2502.09 302.296 L2497.2 302.296 L2497.2 296.417 Z" fill="#000000" fill-rule="nonzero" fill-opacity="1" /><path clip-path="url(#clip030)" d="M2512.32 267.736 L2530.68 267.736 L2530.68 271.671 L2516.6 271.671 L2516.6 280.144 Q2517.62 279.796 2518.64 279.634 Q2519.66 279.449 2520.68 279.449 Q2526.46 279.449 2529.84 282.62 Q2533.22 285.792 2533.22 291.208 Q2533.22 296.787 2529.75 299.889 Q2526.28 302.968 2519.96 302.968 Q2517.78 302.968 2515.51 302.597 Q2513.27 302.227 2510.86 301.486 L2510.86 296.787 Q2512.94 297.921 2515.17 298.477 Q2517.39 299.032 2519.87 299.032 Q2523.87 299.032 2526.21 296.926 Q2528.55 294.819 2528.55 291.208 Q2528.55 287.597 2526.21 285.491 Q2523.87 283.384 2519.87 283.384 Q2517.99 283.384 2516.12 283.801 Q2514.26 284.218 2512.32 285.097 L2512.32 267.736 Z" fill="#000000" fill-rule="nonzero" fill-opacity="1" /><polyline clip-path="url(#clip030)" style="stroke:#3da44d; stroke-linecap:round; stroke-linejoin:round; stroke-width:4; stroke-opacity:1; fill:none" points="2179.7,336.856 2339.64,336.856 "/>
<path clip-path="url(#clip030)" d="M2370.58 352.539 L2370.58 363.997 L2366.3 363.997 L2366.3 328.373 Q2366.3 317.817 2376.16 317.817 Q2386.21 317.817 2386.21 326.729 Q2386.21 333.072 2382.23 335.386 Q2388.71 337.47 2388.71 343.65 Q2388.71 354.622 2377.55 354.622 Q2372.64 354.622 2370.58 352.539 M2370.58 346.984 Q2373.15 350.988 2377.71 350.988 Q2384.38 350.988 2384.38 343.72 Q2384.38 337.192 2373.64 337.701 L2373.64 333.766 Q2382.04 333.766 2382.04 326.359 Q2382.04 321.289 2376.63 321.289 Q2370.58 321.289 2370.58 328.511 L2370.58 346.984 Z" fill="#000000" fill-rule="nonzero" fill-opacity="1" /><path clip-path="url(#clip030)" d="M2412.2 332.609 L2441.88 332.609 L2441.88 336.497 L2412.2 336.497 L2412.2 332.609 M2412.2 342.053 L2441.88 342.053 L2441.88 345.988 L2412.2 345.988 L2412.2 342.053 Z" fill="#000000" fill-rule="nonzero" fill-opacity="1" /><path clip-path="url(#clip030)" d="M2477.04 322.655 Q2473.43 322.655 2471.6 326.22 Q2469.8 329.761 2469.8 336.891 Q2469.8 343.997 2471.6 347.562 Q2473.43 351.104 2477.04 351.104 Q2480.68 351.104 2482.48 347.562 Q2484.31 343.997 2484.31 336.891 Q2484.31 329.761 2482.48 326.22 Q2480.68 322.655 2477.04 322.655 M2477.04 318.951 Q2482.85 318.951 2485.91 323.558 Q2488.99 328.141 2488.99 336.891 Q2488.99 345.618 2485.91 350.224 Q2482.85 354.808 2477.04 354.808 Q2471.23 354.808 2468.15 350.224 Q2465.1 345.618 2465.1 336.891 Q2465.1 328.141 2468.15 323.558 Q2471.23 318.951 2477.04 318.951 Z" fill="#000000" fill-rule="nonzero" fill-opacity="1" /><path clip-path="url(#clip030)" d="M2497.2 348.257 L2502.09 348.257 L2502.09 354.136 L2497.2 354.136 L2497.2 348.257 Z" fill="#000000" fill-rule="nonzero" fill-opacity="1" /><path clip-path="url(#clip030)" d="M2522.27 337.724 Q2518.94 337.724 2517.02 339.507 Q2515.12 341.289 2515.12 344.414 Q2515.12 347.539 2517.02 349.321 Q2518.94 351.104 2522.27 351.104 Q2525.61 351.104 2527.53 349.321 Q2529.45 347.516 2529.45 344.414 Q2529.45 341.289 2527.53 339.507 Q2525.63 337.724 2522.27 337.724 M2517.6 335.734 Q2514.59 334.993 2512.9 332.933 Q2511.23 330.873 2511.23 327.91 Q2511.23 323.766 2514.17 321.359 Q2517.13 318.951 2522.27 318.951 Q2527.44 318.951 2530.37 321.359 Q2533.31 323.766 2533.31 327.91 Q2533.31 330.873 2531.62 332.933 Q2529.96 334.993 2526.97 335.734 Q2530.35 336.521 2532.23 338.812 Q2534.12 341.104 2534.12 344.414 Q2534.12 349.437 2531.05 352.122 Q2527.99 354.808 2522.27 354.808 Q2516.56 354.808 2513.48 352.122 Q2510.42 349.437 2510.42 344.414 Q2510.42 341.104 2512.32 338.812 Q2514.22 336.521 2517.6 335.734 M2515.88 328.349 Q2515.88 331.035 2517.55 332.539 Q2519.24 334.044 2522.27 334.044 Q2525.28 334.044 2526.97 332.539 Q2528.69 331.035 2528.69 328.349 Q2528.69 325.664 2526.97 324.16 Q2525.28 322.655 2522.27 322.655 Q2519.24 322.655 2517.55 324.16 Q2515.88 325.664 2515.88 328.349 Z" fill="#000000" fill-rule="nonzero" fill-opacity="1" /></svg>
